<?xml version="1.0" encoding="UTF-8" standalone="no"?>
<svg xmlns:xlink="http://www.w3.org/1999/xlink" height="44.15px" width="13.8px" xmlns="http://www.w3.org/2000/svg">
  <g transform="matrix(1.0, 0.0, 0.0, 1.0, 5.3, 4.1)">
    <path d="M0.9 -4.05 Q2.6 -3.4 4.0 -1.8 6.5 1.0 6.5 4.95 6.5 8.75 4.15 11.5 L3.75 11.7 3.7 12.0 Q3.1 19.4 2.9 27.55 L4.05 28.75 Q5.85 31.0 5.85 34.2 5.85 37.1 4.35 39.3 3.15 40.05 1.65 40.05 L0.7 39.95 Q-1.0 39.65 -2.3 38.15 -3.95 36.3 -3.95 33.7 -3.95 31.1 -2.3 29.25 L-1.9 28.85 Q-1.4 9.6 -3.35 8.45 -5.3 7.3 -5.3 3.95 -5.3 0.65 -3.3 -1.75 -1.5 -3.8 0.9 -4.05" fill="#ecbe24" fill-rule="evenodd" stroke="none"/>
    <path d="M2.9 27.55 Q3.1 19.4 3.7 12.0 L3.75 11.7 4.15 11.5 Q6.5 8.75 6.5 4.95 6.5 1.0 4.0 -1.8 2.6 -3.4 0.9 -4.05 L1.6 -4.1 Q4.45 -4.1 6.45 -1.75 8.5 0.65 8.5 4.0 8.5 6.95 6.85 9.15 L5.8 14.5 Q4.8 19.55 6.15 29.85 L5.8 29.45 6.0 29.75 Q3.7 27.8 2.9 27.55" fill="#f7dea6" fill-rule="evenodd" stroke="none"/>
    <path d="M2.9 27.55 Q3.7 27.8 6.0 29.75 7.3 31.4 7.3 33.7 7.3 36.3 5.6 38.15 L4.35 39.3 Q5.85 37.1 5.85 34.2 5.85 31.0 4.05 28.75 L2.9 27.55" fill="#fae9cd" fill-rule="evenodd" stroke="none"/>
    <path d="M6.15 29.85 Q4.8 19.55 5.8 14.5 L6.85 9.15 Q8.5 6.95 8.5 4.0 8.5 0.65 6.45 -1.75 4.45 -4.1 1.6 -4.1 L0.9 -4.05 Q-1.5 -3.8 -3.3 -1.75 -5.3 0.65 -5.3 3.95 -5.3 7.3 -3.35 8.45 -1.4 9.6 -1.9 28.85 L-2.3 29.25 Q-3.95 31.1 -3.95 33.7 -3.95 36.3 -2.3 38.15 -1.0 39.65 0.7 39.95 L1.65 40.05 Q3.15 40.05 4.35 39.3 L5.6 38.15 Q7.3 36.3 7.3 33.7 7.3 31.4 6.0 29.75" fill="none" stroke="#91680d" stroke-linecap="round" stroke-linejoin="round" stroke-width="0.05"/>
  </g>
</svg>
