<?xml version="1.0" encoding="UTF-8" standalone="no"?>
<svg xmlns:xlink="http://www.w3.org/1999/xlink" height="46.3px" width="95.4px" xmlns="http://www.w3.org/2000/svg">
  <g transform="matrix(1.0, 0.0, 0.0, 1.0, 52.1, 20.5)">
    <path d="M27.15 13.2 L27.25 13.05 27.6 12.4 Q30.55 6.55 30.8 -0.8 31.0 -7.05 29.15 -11.5 L29.1 -11.6 29.15 -11.5 Q31.0 -7.05 30.8 -0.8 30.55 6.55 27.6 12.4 L27.25 13.05 27.15 13.2 -21.8 16.45 -21.7 16.3 Q-19.0 10.7 -18.75 3.6 -18.55 -2.7 -20.4 -7.2 L-20.5 -7.3 -20.4 -7.2 Q-18.55 -2.7 -18.75 3.6 -19.0 10.7 -21.7 16.3 L-21.8 16.45 -33.4 17.2 Q-30.65 11.6 -30.45 4.5 -30.25 -1.8 -32.1 -6.3 L-20.5 -7.3 29.1 -11.6 41.65 -12.75 Q43.5 -8.3 43.3 -2.05 43.05 5.75 39.75 11.8 L39.45 12.4 27.15 13.2 M27.45 -14.7 L-22.55 -11.05 -22.7 -11.05 Q-24.4 -13.15 -26.55 -13.7 -24.4 -13.15 -22.7 -11.05 L-34.35 -10.2 Q-35.95 -12.5 -38.75 -12.75 L-39.1 -12.75 -40.55 -12.7 -40.4 -12.75 -40.7 -12.7 Q-32.8 -16.4 -26.55 -13.7 L22.6 -18.05 Q27.45 -22.3 35.55 -19.2 L35.45 -19.2 Q38.1 -18.7 40.15 -15.6 L27.45 -14.7 26.9 -15.4 Q25.0 -17.75 22.6 -18.05 25.0 -17.75 26.9 -15.4 L27.45 -14.7 M40.25 -15.4 L40.15 -15.6 40.25 -15.4 40.15 -15.6 40.6 -14.85 40.25 -15.4" fill="#807a96" fill-rule="evenodd" stroke="none"/>
    <path d="M41.65 -12.75 L29.1 -11.6 28.75 -12.4 27.65 -14.35 27.45 -14.7 27.65 -14.35 28.75 -12.4 29.1 -11.6 -20.5 -7.3 -21.45 -9.25 -22.55 -11.05 -21.45 -9.25 -20.5 -7.3 -32.1 -6.3 -33.1 -8.4 -34.2 -10.05 -34.35 -10.2 -22.7 -11.05 -22.55 -11.05 27.45 -14.7 40.15 -15.6 40.25 -15.4 40.4 -15.15 41.6 -12.85 41.65 -12.75" fill="#ceccd7" fill-rule="evenodd" stroke="none"/>
    <path d="M27.15 13.2 L39.45 12.4 Q36.3 17.9 31.2 20.4 26.1 22.9 21.1 19.45 L21.1 19.4 22.85 18.45 Q25.05 16.85 26.95 13.6 L27.15 13.2 26.95 13.6 Q25.05 16.85 22.85 18.45 L21.1 19.4 -28.35 23.75 -28.8 23.8 Q-32.85 26.2 -39.1 25.75 L-42.95 25.15 -41.6 25.1 -40.5 24.8 Q-36.85 23.55 -33.95 18.3 L-33.4 17.2 -21.8 16.45 27.15 13.2 M-28.35 23.75 Q-24.95 22.35 -22.3 17.45 L-21.8 16.45 -22.3 17.45 Q-24.95 22.35 -28.35 23.75" fill="#66647b" fill-rule="evenodd" stroke="none"/>
    <path d="M-48.35 20.3 L-49.9 18.25 Q-52.3 14.1 -52.1 7.75 -51.85 1.4 -49.2 -3.55 -47.5 -6.7 -45.45 -8.05 L-45.0 -8.35 -44.15 -8.75 -43.0 -9.05 -42.95 -9.05 -41.15 -9.0 Q-39.75 -8.75 -38.55 -7.5 L-38.3 -7.3 -37.95 -6.9 -37.0 -5.5 -36.5 -4.55 -36.45 -4.35 -36.25 -4.0 Q-34.65 -0.3 -34.8 5.0 -35.0 10.6 -37.1 15.15 L-37.35 15.7 -37.5 15.95 -37.7 16.3 Q-40.05 20.6 -43.05 21.6 L-43.95 21.8 -45.6 21.8 -45.9 21.7 -46.95 21.35 -48.0 20.65 -48.35 20.3" fill="url(#gradient0)" fill-rule="evenodd" stroke="none"/>
    <path d="M-44.15 -8.75 L-45.0 -8.4 -47.2 -6.6 Q-43.9 -12.05 -40.55 -12.7 L-39.1 -12.75 -38.75 -12.75 Q-35.95 -12.5 -34.35 -10.2 L-34.2 -10.05 -38.55 -7.5 Q-39.75 -8.75 -41.15 -9.0 L-42.95 -9.05 -43.0 -9.05 -44.15 -8.75 M-36.5 -4.55 L-32.1 -6.3 Q-30.25 -1.8 -30.45 4.5 -30.65 11.6 -33.4 17.2 L-37.35 15.7 -37.1 15.15 Q-35.0 10.6 -34.8 5.0 -34.65 -0.3 -36.25 -4.0 L-36.45 -4.35 -36.5 -4.55" fill="#a4a0b4" fill-rule="evenodd" stroke="none"/>
    <path d="M-38.55 -7.5 L-34.2 -10.05 -33.1 -8.4 -32.1 -6.3 -36.5 -4.55 -37.0 -5.5 -37.95 -6.9 -38.3 -7.3 -38.55 -7.5" fill="#ededf1" fill-rule="evenodd" stroke="none"/>
    <path d="M-42.95 25.15 L-44.55 24.85 -44.7 24.8 Q-46.85 23.95 -48.65 20.05 L-48.35 20.3 -48.0 20.65 -46.95 21.35 -45.9 21.7 -45.6 21.8 -43.95 21.8 -43.05 21.6 Q-40.05 20.6 -37.7 16.3 L-37.5 15.95 -37.35 15.7 -33.4 17.2 -33.95 18.3 Q-36.85 23.55 -40.5 24.8 L-41.6 25.1 -42.95 25.15" fill="#78758e" fill-rule="evenodd" stroke="none"/>
    <path d="M29.1 -11.6 L29.15 -11.5 Q31.0 -7.05 30.8 -0.8 30.55 6.55 27.6 12.4 L27.25 13.05 27.15 13.2 M22.6 -18.05 Q25.0 -17.75 26.9 -15.4 L27.45 -14.7 M-26.55 -13.7 Q-24.4 -13.15 -22.7 -11.05 M-34.35 -10.2 Q-35.95 -12.5 -38.75 -12.75 M-39.1 -12.75 L-40.55 -12.7 M-33.4 17.2 Q-30.65 11.6 -30.45 4.5 -30.25 -1.8 -32.1 -6.3 M-20.5 -7.3 L-20.4 -7.2 Q-18.55 -2.7 -18.75 3.6 -19.0 10.7 -21.7 16.3 L-21.8 16.45" fill="none" stroke="#ceccd7" stroke-linecap="round" stroke-linejoin="round" stroke-width="0.05"/>
    <path d="M39.45 12.4 L39.75 11.8 Q43.05 5.75 43.3 -2.05 43.5 -8.3 41.65 -12.75 L41.6 -12.85 40.4 -15.15 40.25 -15.4 40.15 -15.6 40.25 -15.4 40.6 -14.85 40.15 -15.6 Q38.1 -18.7 35.45 -19.2 L35.55 -19.2 M29.1 -11.6 L28.75 -12.4 27.65 -14.35 27.45 -14.7 M21.1 19.4 L21.1 19.45 Q26.1 22.9 31.2 20.4 36.3 17.9 39.45 12.4 M27.15 13.2 L26.95 13.6 Q25.05 16.85 22.85 18.45 L21.1 19.4 -28.35 23.75 M-28.8 23.8 Q-32.85 26.2 -39.1 25.75 L-42.95 25.15 -44.55 24.85 -44.7 24.8 Q-46.85 23.95 -48.65 20.05 M-48.35 20.3 L-49.9 18.25 Q-52.3 14.1 -52.1 7.75 -51.85 1.4 -49.2 -3.55 -47.5 -6.7 -45.45 -8.05 L-45.0 -8.35 -44.15 -8.75 -43.0 -9.05 -42.95 -9.05 -41.15 -9.0 Q-39.75 -8.75 -38.55 -7.5 L-38.3 -7.3 -37.95 -6.9 -37.0 -5.5 -36.5 -4.55 -36.45 -4.35 -36.25 -4.0 Q-34.65 -0.3 -34.8 5.0 -35.0 10.6 -37.1 15.15 L-37.35 15.7 -37.5 15.95 -37.7 16.3 Q-40.05 20.6 -43.05 21.6 L-43.95 21.8 -45.6 21.8 -45.9 21.7 -46.95 21.35 -48.0 20.65 -48.35 20.3 M-47.2 -6.6 Q-43.9 -12.05 -40.55 -12.7 L-40.7 -12.7 M-34.2 -10.05 L-34.35 -10.2 M-38.75 -12.75 L-39.1 -12.75 M-40.55 -12.7 L-40.4 -12.75 M-32.1 -6.3 L-33.1 -8.4 -34.2 -10.05 M-42.95 25.15 L-41.6 25.1 -40.5 24.8 Q-36.85 23.55 -33.95 18.3 L-33.4 17.2" fill="none" stroke="#4f4d5e" stroke-linecap="round" stroke-linejoin="round" stroke-width="0.05"/>
    <path d="M-22.55 -11.05 L-21.45 -9.25 -20.5 -7.3 M35.55 -19.2 Q27.45 -22.3 22.6 -18.05 L-26.55 -13.7 Q-32.8 -16.4 -40.7 -12.7 M-28.35 23.75 L-28.8 23.8 M-21.8 16.45 L-22.3 17.45 Q-24.95 22.35 -28.35 23.75" fill="none" stroke="#4f4d5e" stroke-linecap="round" stroke-linejoin="round" stroke-width="0.05"/>
  </g>
  <defs>
    <radialGradient cx="0" cy="0" gradientTransform="matrix(0.0196, 0.0021, -0.0029, 0.0267, -37.35, 8.7)" gradientUnits="userSpaceOnUse" id="gradient0" r="819.2" spreadMethod="pad">
      <stop offset="0.0" stop-color="#000000"/>
      <stop offset="1.0" stop-color="#999999"/>
    </radialGradient>
  </defs>
</svg>
