<?xml version="1.0" encoding="UTF-8" standalone="no"?>
<svg xmlns:xlink="http://www.w3.org/1999/xlink" height="50.8px" width="37.1px" xmlns="http://www.w3.org/2000/svg">
  <g transform="matrix(1.0, 0.0, 0.0, 1.0, 25.55, 55.3)">
    <path d="M10.05 -36.45 Q12.7 -28.75 10.65 -20.75 L9.5 -15.75 Q8.8 -11.9 5.25 -10.05 5.0 -9.35 4.3 -9.1 4.1 -8.4 3.5 -8.05 L3.4 -8.0 Q2.85 -7.95 2.6 -8.3 L0.45 -8.1 0.05 -7.65 -1.1 -5.75 Q-1.45 -5.2 -1.95 -4.75 L-2.4 -4.55 -6.05 -4.9 -7.2 -6.3 Q-8.8 -8.7 -7.25 -11.15 L-6.9 -11.45 -6.45 -11.9 -6.25 -12.15 -6.25 -12.5 -6.25 -13.5 -6.4 -14.5 -6.55 -14.75 -7.6 -15.9 -7.95 -16.45 Q-13.9 -18.6 -20.4 -20.2 L-20.4 -20.55 -20.4 -21.2 -20.4 -22.2 Q-19.55 -24.1 -17.65 -24.15 -14.45 -24.25 -12.0 -26.05 -11.65 -29.15 -12.8 -31.25 -17.85 -32.55 -20.9 -35.4 L-21.05 -35.6 Q-27.85 -36.65 -24.4 -42.0 -23.05 -44.05 -20.65 -43.1 -15.95 -41.25 -12.0 -37.9 L-11.9 -37.85 -7.8 -38.2 Q-3.3 -42.95 -4.6 -49.8 -5.35 -53.75 -2.2 -55.3 9.55 -55.7 8.45 -45.6 7.9 -40.65 9.85 -36.55 L10.05 -36.45" fill="url(#gradient0)" fill-rule="evenodd" stroke="none"/>
  </g>
  <defs>
    <radialGradient cx="0" cy="0" gradientTransform="matrix(0.0418, 0.0, 0.0, 0.0418, 4.65, -25.8)" gradientUnits="userSpaceOnUse" id="gradient0" r="819.2" spreadMethod="pad">
      <stop offset="0.0" stop-color="#f906c9"/>
      <stop offset="0.9803921568627451" stop-color="#000000"/>
    </radialGradient>
  </defs>
</svg>
