<?xml version="1.0" encoding="UTF-8" standalone="no"?>
<svg xmlns:xlink="http://www.w3.org/1999/xlink" height="52.2px" width="40.65px" xmlns="http://www.w3.org/2000/svg">
  <g transform="matrix(1.0, 0.0, 0.0, 1.0, 31.5, 58.85)">
    <path d="M8.75 -55.9 L9.15 -54.25 Q9.3 -52.15 8.05 -50.6 L7.75 -50.25 5.9 -50.1 4.55 -50.35 1.35 -54.05 -1.0 -56.8 -1.05 -58.5 -0.4 -58.85 Q4.45 -58.7 8.5 -56.15 L8.75 -55.9 M0.45 -32.8 Q-8.05 -32.5 -15.3 -29.4 -15.55 -27.75 -14.9 -26.45 L-13.85 -24.7 -13.6 -24.65 -13.4 -24.55 -13.25 -24.35 -13.15 -24.15 -13.15 -24.05 -13.15 -23.95 -13.2 -23.85 -13.1 -23.75 -13.1 -23.7 Q-8.35 -19.55 -6.25 -13.75 -6.05 -13.2 -6.1 -12.65 -6.45 -8.0 -11.0 -7.8 L-12.7 -8.1 -16.55 -8.2 Q-18.35 -6.25 -20.45 -6.85 L-20.5 -6.85 -20.85 -6.65 -27.7 -6.65 -28.65 -7.35 -29.45 -7.95 Q-29.85 -10.35 -29.6 -12.95 -29.45 -14.7 -30.1 -16.25 L-30.2 -16.6 Q-32.1 -18.6 -31.25 -21.85 -30.8 -23.5 -30.6 -25.2 L-30.55 -25.5 Q-29.25 -29.9 -25.2 -32.1 -24.2 -32.7 -23.95 -33.8 L-24.25 -34.35 Q-24.95 -35.15 -25.45 -36.1 L-25.7 -36.45 Q-32.9 -40.8 -27.75 -47.4 -25.05 -50.8 -21.15 -52.25 -18.85 -52.3 -17.25 -50.95 L-17.1 -50.7 Q-17.0 -50.05 -17.55 -49.8 -18.85 -49.15 -19.3 -48.05 -16.05 -43.65 -10.25 -45.4 -8.2 -47.0 -6.8 -49.15 L-6.4 -49.6 Q-5.55 -50.55 -5.15 -51.55 L-4.3 -51.7 -3.95 -51.8 Q8.25 -46.25 1.85 -34.6 L0.45 -32.8 M-19.35 -8.15 L-19.4 -8.2 -19.4 -8.15 -19.35 -8.15" fill="url(#gradient0)" fill-rule="evenodd" stroke="none"/>
  </g>
  <defs>
    <radialGradient cx="0" cy="0" gradientTransform="matrix(0.0418, 0.0, 0.0, 0.0418, 4.65, -25.8)" gradientUnits="userSpaceOnUse" id="gradient0" r="819.2" spreadMethod="pad">
      <stop offset="0.0" stop-color="#f906c9"/>
      <stop offset="0.9803921568627451" stop-color="#000000"/>
    </radialGradient>
  </defs>
</svg>
