<?xml version="1.0" encoding="UTF-8" standalone="no"?>
<svg xmlns:xlink="http://www.w3.org/1999/xlink" height="78.3px" width="63.7px" xmlns="http://www.w3.org/2000/svg">
  <g transform="matrix(1.0, 0.0, 0.0, 1.0, 45.0, 69.9)">
    <path d="M17.45 -64.05 L17.85 -63.4 18.45 -62.7 18.6 -62.05 18.7 -61.05 18.3 -60.45 17.7 -59.75 Q16.15 -59.1 14.95 -60.3 L14.9 -61.3 14.95 -62.6 Q14.95 -63.25 15.55 -63.65 L16.35 -64.15 17.45 -64.05 M1.45 -50.05 Q-0.7 -48.6 -3.25 -48.35 -4.0 -49.35 -5.95 -48.85 L-8.15 -47.25 -8.25 -47.25 Q-8.25 -48.85 -7.65 -50.6 -6.95 -52.65 -7.15 -54.9 L-8.25 -56.2 -10.0 -57.85 -10.15 -58.2 Q-10.2 -59.15 -10.9 -59.85 L-11.15 -60.2 -11.15 -62.85 -11.15 -66.8 -8.55 -68.9 Q-7.55 -69.6 -6.6 -69.9 7.9 -68.2 4.65 -54.5 3.95 -51.7 1.45 -50.05 M-25.15 -58.4 L-21.65 -57.6 Q-20.45 -57.0 -19.4 -56.0 -19.05 -54.9 -19.35 -53.7 -19.7 -52.2 -20.75 -51.35 L-23.4 -51.6 Q-26.0 -51.6 -28.35 -50.55 -30.9 -49.35 -31.9 -46.65 L-32.05 -46.1 -32.25 -46.65 -32.3 -49.2 Q-32.1 -52.55 -31.0 -55.75 L-28.45 -57.35 Q-26.85 -58.3 -25.15 -58.4 M-40.7 -7.4 L-40.05 -9.1 -39.95 -9.4 Q-38.0 -10.7 -35.5 -10.85 -34.65 -11.9 -34.2 -13.15 L-34.1 -13.5 -33.1 -14.15 Q-30.3 -20.65 -29.7 -24.4 L-28.9 -29.4 -28.8 -30.4 -25.15 -35.1 -25.25 -35.25 -25.2 -35.55 Q-24.85 -36.5 -24.0 -37.25 L-23.4 -37.9 -18.6 -39.5 -17.65 -39.85 Q-13.45 -40.65 -11.0 -37.45 L-10.7 -37.1 Q-7.85 -24.15 -20.3 -18.3 L-22.4 -17.25 Q-23.65 -14.95 -22.6 -12.7 -21.6 -10.5 -20.95 -8.3 -19.65 -6.35 -18.95 -4.2 -18.35 -2.2 -18.4 0.0 -22.25 3.25 -26.6 5.85 L-26.9 6.55 Q-27.45 7.5 -29.1 7.95 L-29.7 8.15 -31.5 8.25 -32.1 8.35 Q-35.2 3.1 -41.6 2.6 L-42.75 2.55 -42.8 2.55 -43.65 2.35 -43.7 2.3 -44.25 1.85 -44.9 1.2 Q-45.7 -3.95 -41.15 -7.1 L-40.7 -7.4" fill="url(#gradient0)" fill-rule="evenodd" stroke="none"/>
    <path d="M10.05 -22.35 Q12.7 -30.05 10.65 -38.05 L9.5 -43.05 Q8.8 -46.9 5.25 -48.75 L4.3 -49.7 Q4.1 -50.4 3.5 -50.75 L3.4 -50.8 Q2.85 -50.85 2.6 -50.5 L0.45 -50.7 0.05 -51.15 -1.1 -53.05 -1.95 -54.05 -2.4 -54.25 -6.05 -53.9 -7.2 -52.5 Q-8.8 -50.1 -7.25 -47.65 L-6.9 -47.35 -6.45 -46.9 -6.25 -46.65 -6.25 -46.3 -6.25 -45.3 -6.4 -44.3 -6.55 -44.05 -7.6 -42.9 -7.95 -42.35 Q-13.9 -40.2 -20.4 -38.6 L-20.4 -38.25 -20.4 -37.6 -20.4 -36.6 Q-19.55 -34.7 -17.65 -34.65 -14.45 -34.55 -12.0 -32.75 -11.65 -29.65 -12.8 -27.55 -17.85 -26.25 -20.9 -23.4 L-21.05 -23.2 Q-27.85 -22.15 -24.4 -16.8 -23.05 -14.75 -20.65 -15.7 -15.95 -17.55 -12.0 -20.9 L-11.9 -20.95 -7.8 -20.6 Q-3.3 -15.85 -4.6 -9.0 -5.35 -5.05 -2.2 -3.5 9.55 -3.1 8.45 -13.2 7.9 -18.15 9.85 -22.25 L10.05 -22.35" fill="url(#gradient1)" fill-rule="evenodd" stroke="none"/>
  </g>
  <defs>
    <radialGradient cx="0" cy="0" gradientTransform="matrix(0.0418, 0.0, 0.0, 0.0418, 4.65, -25.8)" gradientUnits="userSpaceOnUse" id="gradient0" r="819.2" spreadMethod="pad">
      <stop offset="0.0" stop-color="#f906c9"/>
      <stop offset="0.9803921568627451" stop-color="#000000"/>
    </radialGradient>
    <radialGradient cx="0" cy="0" gradientTransform="matrix(0.0418, 0.0, 0.0, -0.0418, 4.65, -33.0)" gradientUnits="userSpaceOnUse" id="gradient1" r="819.2" spreadMethod="pad">
      <stop offset="0.0" stop-color="#f906c9"/>
      <stop offset="0.9803921568627451" stop-color="#000000"/>
    </radialGradient>
  </defs>
</svg>
