<?xml version="1.0" encoding="UTF-8" standalone="no"?>
<svg xmlns:xlink="http://www.w3.org/1999/xlink" height="84.2px" width="75.7px" xmlns="http://www.w3.org/2000/svg">
  <g transform="matrix(1.0, 0.0, 0.0, 1.0, 50.85, 70.35)">
    <path d="M24.85 -60.2 L24.85 -58.85 24.85 -58.2 Q23.5 -57.15 22.0 -58.2 21.3 -58.8 21.5 -59.85 L21.55 -60.5 Q21.9 -61.2 22.6 -61.65 L23.0 -61.95 Q24.15 -61.75 24.65 -60.55 L24.85 -60.2 M-23.4 -65.85 L-22.55 -67.05 -20.5 -69.0 -14.55 -70.35 Q-5.1 -69.65 -6.2 -61.75 -6.95 -56.8 -12.25 -55.85 -16.75 -55.1 -19.75 -58.1 -19.9 -59.4 -20.45 -60.7 L-20.95 -61.8 Q-21.0 -62.5 -21.5 -63.05 -22.35 -64.05 -23.0 -65.2 L-23.4 -65.85 M-38.0 -59.1 Q-37.45 -58.9 -37.95 -57.65 -38.6 -56.35 -41.0 -57.45 L-41.25 -57.3 Q-42.15 -56.05 -41.65 -54.4 -41.15 -52.9 -40.25 -51.7 -39.95 -51.05 -39.95 -50.25 L-39.95 -49.25 -40.3 -49.3 Q-46.7 -50.1 -46.0 -54.75 -45.3 -59.45 -43.25 -60.2 L-39.75 -59.55 -38.0 -59.1 M-39.05 -58.35 L-39.1 -58.3 -38.95 -58.25 -39.05 -58.35 M-42.75 -17.2 L-42.4 -17.5 -41.4 -18.6 -39.6 -18.45 -39.2 -18.1 -38.7 -17.75 -38.7 -17.55 Q-38.5 -15.8 -39.3 -14.25 L-39.7 -14.15 Q-41.3 -14.05 -42.5 -14.9 L-42.6 -15.9 -42.75 -17.2 M-17.65 -39.0 L-14.75 -38.9 Q-10.6 -32.8 -16.35 -26.9 -23.1 -19.95 -27.7 -11.4 -30.55 -3.6 -34.4 3.85 L-36.1 6.5 -36.15 7.45 -36.85 10.45 -36.6 10.7 -36.1 11.0 -36.1 12.35 -36.55 12.4 Q-37.8 13.85 -39.3 13.65 L-39.5 13.6 Q-42.45 14.3 -45.55 12.9 L-45.55 11.9 -45.55 11.55 Q-45.55 10.95 -44.9 10.6 -44.45 9.65 -44.85 8.6 L-45.0 8.25 -49.75 6.6 Q-50.5 6.05 -50.85 5.3 -45.45 -6.95 -34.25 -15.4 -32.7 -16.55 -31.9 -18.35 L-28.15 -25.85 -28.35 -28.4 -20.8 -36.3 -20.4 -36.65 -20.3 -37.0 -20.05 -37.65 -19.7 -37.95 -17.65 -39.0 M-27.85 -25.2 L-27.8 -25.2 -27.85 -25.25 -27.85 -25.2" fill="url(#gradient0)" fill-rule="evenodd" stroke="none"/>
    <path d="M9.15 -4.55 Q9.3 -6.65 8.05 -8.2 L7.75 -8.55 5.9 -8.7 4.55 -8.45 1.35 -4.75 -1.0 -2.0 -1.05 -0.3 -0.4 0.05 Q4.45 -0.1 8.5 -2.65 L8.75 -2.9 9.15 -4.55 M0.45 -26.0 Q-8.05 -26.3 -15.3 -29.4 -15.55 -31.05 -14.9 -32.35 L-13.85 -34.1 -13.6 -34.15 -13.4 -34.25 -13.25 -34.45 -13.15 -34.65 -13.15 -34.75 -13.15 -34.85 -13.2 -34.95 -13.1 -35.05 -13.1 -35.1 Q-8.35 -39.25 -6.25 -45.05 -6.05 -45.6 -6.1 -46.15 -6.45 -50.8 -11.0 -51.0 L-12.7 -50.7 -16.55 -50.6 Q-18.35 -52.55 -20.45 -51.95 L-20.5 -51.95 -20.85 -52.15 -27.7 -52.15 -28.65 -51.45 -29.45 -50.85 Q-29.85 -48.45 -29.6 -45.85 -29.45 -44.1 -30.1 -42.55 L-30.2 -42.2 Q-32.1 -40.2 -31.25 -36.95 L-30.6 -33.6 -30.55 -33.3 Q-29.25 -28.9 -25.2 -26.7 -24.2 -26.1 -23.95 -25.0 L-24.25 -24.45 -25.45 -22.7 -25.7 -22.35 Q-32.9 -18.0 -27.75 -11.4 -25.05 -8.0 -21.15 -6.55 -18.85 -6.5 -17.25 -7.85 L-17.1 -8.1 Q-17.0 -8.75 -17.55 -9.0 -18.85 -9.65 -19.3 -10.75 -16.05 -15.15 -10.25 -13.4 -8.2 -11.8 -6.8 -9.65 L-6.4 -9.2 -5.15 -7.25 -4.3 -7.1 -3.95 -7.0 Q8.25 -12.55 1.85 -24.2 L0.45 -26.0 M-19.4 -50.6 L-19.4 -50.65 -19.35 -50.65 -19.4 -50.6" fill="url(#gradient1)" fill-rule="evenodd" stroke="none"/>
  </g>
  <defs>
    <radialGradient cx="0" cy="0" gradientTransform="matrix(0.0418, 0.0, 0.0, 0.0418, 4.65, -25.8)" gradientUnits="userSpaceOnUse" id="gradient0" r="819.2" spreadMethod="pad">
      <stop offset="0.0" stop-color="#f906c9"/>
      <stop offset="0.9803921568627451" stop-color="#000000"/>
    </radialGradient>
    <radialGradient cx="0" cy="0" gradientTransform="matrix(0.0418, 0.0, 0.0, -0.0418, 4.65, -33.0)" gradientUnits="userSpaceOnUse" id="gradient1" r="819.2" spreadMethod="pad">
      <stop offset="0.0" stop-color="#f906c9"/>
      <stop offset="0.9803921568627451" stop-color="#000000"/>
    </radialGradient>
  </defs>
</svg>
