<?xml version="1.0" encoding="UTF-8" standalone="no"?>
<svg xmlns:xlink="http://www.w3.org/1999/xlink" height="95.65px" width="82.8px" xmlns="http://www.w3.org/2000/svg">
  <g transform="matrix(1.0, 0.0, 0.0, 1.0, 64.1, 73.45)">
    <path d="M-26.8 -71.2 Q-25.8 -66.15 -30.45 -65.1 L-35.65 -64.5 Q-37.2 -65.3 -38.15 -66.65 L-39.5 -68.65 -39.5 -71.2 Q-38.25 -72.65 -36.65 -73.45 L-27.15 -71.4 -26.8 -71.2 M-57.95 -52.35 Q-56.5 -53.85 -54.3 -53.9 L-54.05 -53.9 Q-53.55 -53.35 -54.05 -52.95 L-52.55 -50.35 -51.95 -48.7 -51.95 -48.35 -51.95 -48.05 -53.2 -46.7 Q-56.05 -45.85 -58.35 -48.05 L-58.3 -50.0 -57.95 -52.35 M-62.25 -17.35 L-60.25 -17.1 -59.9 -16.9 -59.95 -16.6 -59.9 -14.9 -59.0 -13.95 Q-58.25 -13.4 -58.15 -12.6 L-58.2 -12.3 Q-58.65 -11.6 -59.25 -11.05 L-62.55 -11.5 -62.95 -11.75 -64.1 -12.8 -64.0 -13.45 Q-63.65 -14.4 -63.65 -15.45 L-63.25 -16.15 -62.25 -17.35 M-45.8 -9.5 L-46.0 -8.85 -46.35 -8.5 -46.65 -8.2 Q-47.25 -5.2 -48.25 -2.25 -48.85 -0.5 -48.9 1.4 -46.45 3.85 -45.65 7.0 L-44.8 10.05 Q-43.8 11.45 -42.05 11.45 L-41.6 11.5 -41.45 11.3 Q-41.15 11.1 -40.85 11.05 -37.85 12.05 -39.2 14.8 L-39.25 14.85 -41.8 14.9 -42.5 15.0 -44.5 18.0 Q-44.95 18.75 -45.0 19.65 -49.55 23.7 -55.3 21.3 L-55.1 19.35 Q-54.95 18.4 -54.4 17.65 -53.9 14.45 -53.85 11.0 -53.85 9.15 -55.3 8.05 -58.8 8.3 -61.45 5.85 -57.45 -10.2 -45.9 -21.85 -44.35 -23.45 -43.25 -25.45 -38.6 -33.95 -30.65 -38.45 L-29.65 -39.55 -29.45 -39.65 Q-28.0 -39.9 -26.9 -40.3 L-24.05 -40.2 -22.4 -38.45 -20.75 -36.55 Q-20.3 -29.75 -28.0 -28.65 L-30.0 -28.4 Q-34.05 -22.8 -39.6 -18.75 L-39.95 -18.45 -40.25 -16.1 Q-40.35 -14.35 -41.25 -12.8 -42.7 -11.75 -44.35 -10.8 L-45.8 -9.85 -45.8 -9.5 M-40.25 13.1 L-40.25 13.3 -40.2 13.3 -40.25 13.1" fill="url(#gradient0)" fill-rule="evenodd" stroke="none"/>
    <path d="M17.85 4.6 L18.45 3.9 18.6 3.25 18.7 2.25 18.3 1.65 17.7 0.95 Q16.15 0.3 14.95 1.5 L14.9 2.5 14.95 3.8 Q14.95 4.45 15.55 4.85 L16.35 5.35 17.45 5.25 17.85 4.6 M1.45 -8.75 Q-0.7 -10.2 -3.25 -10.45 -4.0 -9.45 -5.95 -9.95 L-8.15 -11.55 -8.25 -11.55 Q-8.25 -9.95 -7.65 -8.2 -6.95 -6.15 -7.15 -3.9 L-8.25 -2.6 -10.0 -0.95 -10.15 -0.6 Q-10.2 0.35 -10.9 1.05 L-11.15 1.4 -11.15 4.05 -11.15 8.0 -8.55 10.1 Q-7.55 10.8 -6.6 11.1 7.9 9.4 4.65 -4.3 3.95 -7.1 1.45 -8.75 M-25.15 -0.4 L-21.65 -1.2 Q-20.45 -1.8 -19.4 -2.8 -19.05 -3.9 -19.35 -5.1 -19.7 -6.6 -20.75 -7.45 L-23.4 -7.2 Q-26.0 -7.2 -28.35 -8.25 -30.9 -9.45 -31.9 -12.15 L-32.05 -12.7 -32.25 -12.15 -32.3 -9.6 Q-32.1 -6.25 -31.0 -3.05 L-28.45 -1.45 Q-26.85 -0.5 -25.15 -0.4 M-40.7 -51.4 L-40.05 -49.7 -39.95 -49.4 Q-38.0 -48.1 -35.5 -47.95 -34.65 -46.9 -34.2 -45.65 L-34.1 -45.3 -33.1 -44.65 Q-30.3 -38.15 -29.7 -34.4 L-28.9 -29.4 -28.8 -28.4 -25.15 -23.7 -25.25 -23.55 -25.2 -23.25 Q-24.85 -22.3 -24.0 -21.55 L-23.4 -20.9 -18.6 -19.3 -17.65 -18.95 Q-13.45 -18.15 -11.0 -21.35 L-10.7 -21.7 Q-7.85 -34.65 -20.3 -40.5 L-22.4 -41.55 Q-23.65 -43.85 -22.6 -46.1 -21.6 -48.3 -20.95 -50.5 -19.65 -52.45 -18.95 -54.6 -18.35 -56.6 -18.4 -58.8 -22.25 -62.05 -26.6 -64.65 L-26.9 -65.35 Q-27.45 -66.3 -29.1 -66.75 L-29.7 -66.95 -31.5 -67.05 -32.1 -67.15 Q-35.2 -61.9 -41.6 -61.4 L-42.75 -61.35 -42.8 -61.35 -43.65 -61.15 -43.7 -61.1 -44.25 -60.65 -44.9 -60.0 Q-45.7 -54.85 -41.15 -51.7 L-40.7 -51.4" fill="url(#gradient1)" fill-rule="evenodd" stroke="none"/>
  </g>
  <defs>
    <radialGradient cx="0" cy="0" gradientTransform="matrix(0.0418, 0.0, 0.0, 0.0418, 4.65, -25.8)" gradientUnits="userSpaceOnUse" id="gradient0" r="819.2" spreadMethod="pad">
      <stop offset="0.0" stop-color="#f906c9"/>
      <stop offset="0.9803921568627451" stop-color="#000000"/>
    </radialGradient>
    <radialGradient cx="0" cy="0" gradientTransform="matrix(0.0418, 0.0, 0.0, -0.0418, 4.65, -33.0)" gradientUnits="userSpaceOnUse" id="gradient1" r="819.2" spreadMethod="pad">
      <stop offset="0.0" stop-color="#f906c9"/>
      <stop offset="0.9803921568627451" stop-color="#000000"/>
    </radialGradient>
  </defs>
</svg>
