<?xml version="1.0" encoding="UTF-8" standalone="no"?>
<svg xmlns:xlink="http://www.w3.org/1999/xlink" height="94.2px" width="100.0px" xmlns="http://www.w3.org/2000/svg">
  <g transform="matrix(1.0, 0.0, 0.0, 1.0, 75.15, 73.0)">
    <path d="M-45.8 -70.65 L-45.95 -70.15 -45.3 -69.35 Q-43.45 -66.8 -43.15 -64.6 -46.85 -62.55 -49.1 -66.35 L-49.1 -67.35 -49.1 -68.0 Q-47.2 -70.9 -44.25 -73.0 -45.25 -72.1 -45.8 -70.65 M-44.5 -65.25 L-44.35 -65.25 -44.5 -65.35 -44.5 -65.25 M-60.2 -45.8 L-59.85 -44.75 Q-60.85 -43.45 -63.55 -44.95 -64.95 -46.95 -63.55 -49.35 -63.2 -49.95 -62.7 -50.0 -61.15 -49.4 -61.65 -47.25 L-61.7 -46.95 -60.2 -45.8 M-51.0 -25.65 Q-51.45 -24.15 -52.05 -22.7 -53.65 -16.6 -54.6 -9.95 L-54.6 -9.6 -53.85 -8.65 Q-53.65 -6.5 -53.75 -4.3 L-53.75 -4.0 Q-58.9 1.85 -56.85 9.6 -55.95 11.25 -54.05 11.8 -53.3 13.0 -53.3 14.45 L-53.3 14.75 Q-48.7 14.45 -44.8 14.95 L-44.75 14.85 -44.65 14.75 -44.55 14.6 -44.45 14.55 -44.35 14.5 -44.15 14.5 Q-42.35 14.75 -42.8 16.6 L-42.8 16.7 -42.85 16.8 -42.8 16.9 -42.75 17.0 -42.7 17.1 -43.15 17.7 -43.15 18.0 Q-43.75 19.15 -44.8 19.95 L-47.1 20.3 Q-48.8 19.35 -50.2 18.0 -51.4 19.7 -53.3 20.85 L-57.25 21.2 Q-66.3 16.0 -65.45 6.25 L-65.45 5.3 -67.0 3.95 Q-66.8 -3.1 -61.8 -8.75 L-60.7 -9.95 Q-60.7 -11.7 -59.95 -13.3 L-59.7 -13.95 -58.8 -14.6 -58.6 -15.25 -58.5 -15.6 Q-55.3 -17.45 -54.85 -20.9 L-52.05 -24.5 -51.85 -24.95 -51.45 -25.15 -51.15 -25.55 -51.0 -25.65 M-50.45 -36.0 Q-44.8 -41.5 -37.4 -42.7 L-36.4 -40.9 -36.5 -40.85 -36.55 -40.2 -36.65 -39.85 Q-37.35 -39.0 -38.4 -38.55 -39.4 -35.95 -39.6 -33.25 L-39.95 -32.25 Q-44.8 -29.3 -50.3 -32.35 -51.25 -33.8 -50.65 -35.35 L-50.45 -36.0 M-73.7 -9.85 L-72.6 -9.75 -72.05 -8.7 Q-71.8 -8.25 -71.85 -7.75 L-71.1 -6.7 -70.95 -6.1 Q-71.8 -4.65 -73.6 -5.3 L-74.6 -6.35 -75.15 -6.95 -75.05 -7.95 -74.5 -9.3 -74.15 -9.6 -73.7 -9.85 M-73.6 -8.5 L-73.55 -8.55 -73.6 -8.55 -73.6 -8.5" fill="url(#gradient0)" fill-rule="evenodd" stroke="none"/>
    <path d="M24.85 0.05 L24.85 -0.6 Q23.5 -1.65 22.0 -0.6 21.3 0.0 21.5 1.05 L21.55 1.7 Q21.9 2.4 22.6 2.85 L23.0 3.15 Q24.15 2.95 24.65 1.75 L24.85 1.4 24.85 0.05 M-23.4 7.05 L-22.55 8.25 -20.5 10.2 -14.55 11.55 Q-5.1 10.85 -6.2 2.95 -6.95 -2.0 -12.25 -2.95 -16.75 -3.7 -19.75 -0.7 -19.9 0.6 -20.45 1.9 L-20.95 3.0 Q-21.0 3.7 -21.5 4.25 -22.35 5.25 -23.0 6.4 L-23.4 7.05 M-39.95 -8.55 L-39.95 -9.55 -40.3 -9.5 Q-46.7 -8.7 -46.0 -4.05 -45.3 0.65 -43.25 1.4 L-39.75 0.75 -38.0 0.3 Q-37.45 0.1 -37.95 -1.15 -38.6 -2.45 -41.0 -1.35 -41.1 -1.3 -41.25 -1.5 -42.15 -2.75 -41.65 -4.4 -41.15 -5.9 -40.25 -7.1 -39.95 -7.75 -39.95 -8.55 M-39.1 -0.5 L-38.95 -0.55 -39.05 -0.45 -39.1 -0.5 M-42.6 -42.9 L-42.75 -41.6 -42.4 -41.3 -41.4 -40.2 -39.6 -40.35 -39.2 -40.7 -38.7 -41.05 -38.7 -41.25 Q-38.5 -43.0 -39.3 -44.55 L-39.7 -44.65 Q-41.3 -44.75 -42.5 -43.9 L-42.6 -42.9 M-17.65 -19.8 L-14.75 -19.9 Q-10.6 -26.0 -16.35 -31.9 -23.1 -38.85 -27.7 -47.4 -30.55 -55.2 -34.4 -62.65 L-36.1 -65.3 -36.15 -66.25 -36.85 -69.25 -36.6 -69.5 -36.1 -69.8 -36.1 -71.15 -36.55 -71.2 Q-37.8 -72.65 -39.3 -72.45 L-39.5 -72.4 Q-42.45 -73.1 -45.55 -71.7 L-45.55 -70.7 -45.55 -70.35 Q-45.55 -69.75 -44.9 -69.4 -44.45 -68.45 -44.85 -67.4 L-45.0 -67.05 -49.75 -65.4 Q-50.5 -64.85 -50.85 -64.1 -45.45 -51.85 -34.25 -43.4 -32.7 -42.25 -31.9 -40.45 L-28.15 -32.95 -28.35 -30.4 -20.8 -22.5 -20.4 -22.15 -20.3 -21.8 -20.05 -21.15 -19.7 -20.85 -17.65 -19.8 M-27.85 -33.6 L-27.8 -33.6 -27.85 -33.55 -27.85 -33.6" fill="url(#gradient1)" fill-rule="evenodd" stroke="none"/>
  </g>
  <defs>
    <radialGradient cx="0" cy="0" gradientTransform="matrix(0.0418, 0.0, 0.0, 0.0418, 4.65, -25.8)" gradientUnits="userSpaceOnUse" id="gradient0" r="819.2" spreadMethod="pad">
      <stop offset="0.0" stop-color="#f906c9"/>
      <stop offset="0.9803921568627451" stop-color="#000000"/>
    </radialGradient>
    <radialGradient cx="0" cy="0" gradientTransform="matrix(0.0418, 0.0, 0.0, -0.0418, 4.65, -33.0)" gradientUnits="userSpaceOnUse" id="gradient1" r="819.2" spreadMethod="pad">
      <stop offset="0.0" stop-color="#f906c9"/>
      <stop offset="0.9803921568627451" stop-color="#000000"/>
    </radialGradient>
  </defs>
</svg>
