<?xml version="1.0" encoding="UTF-8" standalone="no"?>
<svg xmlns:xlink="http://www.w3.org/1999/xlink" height="106.2px" width="63.7px" xmlns="http://www.w3.org/2000/svg">
  <g transform="matrix(1.0, 0.0, 0.0, 1.0, 84.45, 81.0)">
    <path d="M-82.35 -3.55 L-82.4 -2.85 Q-81.05 -1.15 -81.2 -0.45 L-81.3 0.35 -81.35 0.5 -81.45 0.7 -81.55 0.8 -81.55 0.85 Q-82.85 2.1 -84.2 0.3 -84.75 -1.05 -84.15 -2.35 L-83.85 -3.0 -82.55 -3.55 -82.35 -3.55 M-59.65 -63.45 Q-61.85 -64.75 -61.2 -67.45 -60.85 -69.05 -59.6 -70.1 L-59.4 -70.15 -59.1 -70.2 Q-54.8 -68.0 -57.5 -63.9 -58.35 -62.65 -59.65 -63.45 M-65.0 -37.95 L-65.25 -36.65 -65.2 -36.35 -65.0 -36.0 -64.0 -34.7 -63.8 -33.0 Q-63.75 -31.0 -64.85 -29.35 L-65.0 -29.15 Q-67.4 -28.75 -69.45 -30.1 L-70.1 -30.5 -70.35 -30.85 -71.0 -32.2 -71.2 -32.8 Q-70.25 -36.85 -66.75 -39.35 -65.95 -39.9 -64.8 -40.2 L-62.7 -40.2 -65.0 -37.95 M-63.45 -22.55 L-65.2 -18.65 -64.95 -16.75 Q-64.35 -14.65 -64.35 -12.4 L-64.5 -12.1 -66.0 -11.05 Q-67.6 -11.25 -69.05 -12.15 L-70.1 -12.8 Q-70.45 -13.4 -70.45 -14.15 L-70.15 -15.9 -69.65 -16.8 Q-68.05 -19.45 -65.65 -21.2 L-63.45 -22.55 M-53.95 23.6 Q-55.25 23.85 -56.05 25.05 -69.85 26.45 -70.3 12.9 -67.85 8.8 -62.9 7.95 -62.5 9.1 -63.0 10.6 L-63.1 10.9 Q-64.25 12.0 -64.35 13.9 -63.9 15.05 -62.8 15.9 -59.25 16.55 -56.4 18.75 -54.45 20.25 -52.65 18.75 L-51.65 18.05 Q-49.45 16.35 -46.7 15.65 L-46.2 15.65 -46.0 15.7 Q-44.3 17.6 -46.55 19.05 -48.1 20.1 -49.1 21.5 L-49.7 22.1 Q-50.1 22.95 -51.3 23.6 -52.65 24.45 -53.95 23.6" fill="url(#gradient0)" fill-rule="evenodd" stroke="none"/>
    <path d="M-30.45 6.3 L-35.65 5.7 Q-37.2 6.5 -38.15 7.85 L-39.5 9.85 -39.5 12.4 Q-38.25 13.85 -36.65 14.65 L-27.15 12.6 -26.8 12.4 Q-25.8 7.35 -30.45 6.3 M-54.3 -4.9 L-54.05 -4.9 Q-53.55 -5.45 -54.05 -5.85 L-52.55 -8.45 Q-51.95 -9.6 -51.95 -10.1 L-51.95 -10.45 -51.95 -10.75 -53.2 -12.1 Q-56.05 -12.95 -58.35 -10.75 L-58.3 -8.8 -57.95 -6.45 Q-56.5 -4.95 -54.3 -4.9 M-62.95 -47.05 L-64.1 -46.0 -64.0 -45.35 Q-63.65 -44.4 -63.65 -43.35 L-63.25 -42.65 -62.25 -41.45 -60.25 -41.7 -59.9 -41.9 -59.95 -42.2 -59.9 -43.9 -59.0 -44.85 Q-58.25 -45.4 -58.15 -46.2 L-58.2 -46.5 -59.25 -47.75 -62.55 -47.3 -62.95 -47.05 M-46.35 -50.3 L-46.65 -50.6 Q-47.25 -53.6 -48.25 -56.55 -48.85 -58.3 -48.9 -60.2 -46.45 -62.65 -45.65 -65.8 L-44.8 -68.85 Q-43.8 -70.25 -42.05 -70.25 L-41.6 -70.3 -41.45 -70.1 Q-41.15 -69.9 -40.85 -69.85 -37.85 -70.85 -39.2 -73.6 L-39.25 -73.65 -41.8 -73.7 -42.5 -73.8 -44.5 -76.8 Q-44.95 -77.55 -45.0 -78.45 -49.55 -82.5 -55.3 -80.1 L-55.1 -78.15 Q-54.95 -77.2 -54.4 -76.45 -53.9 -73.25 -53.85 -69.8 -53.85 -67.95 -55.3 -66.85 -58.8 -67.1 -61.45 -64.65 -57.45 -48.6 -45.9 -36.95 -44.35 -35.35 -43.25 -33.35 -38.6 -24.85 -30.65 -20.35 L-29.65 -19.25 Q-29.55 -19.15 -29.45 -19.15 L-26.9 -18.5 -24.05 -18.6 Q-23.1 -19.35 -22.4 -20.35 L-20.75 -22.25 Q-20.3 -29.05 -28.0 -30.15 L-30.0 -30.4 Q-34.05 -36.0 -39.6 -40.05 L-39.95 -40.35 -40.25 -42.7 Q-40.35 -44.45 -41.25 -46.0 L-44.35 -48.0 -45.8 -48.95 -45.8 -49.3 -46.0 -49.95 -46.35 -50.3 M-40.25 -72.1 L-40.2 -72.1 -40.25 -71.9 -40.25 -72.1" fill="url(#gradient1)" fill-rule="evenodd" stroke="none"/>
  </g>
  <defs>
    <radialGradient cx="0" cy="0" gradientTransform="matrix(0.0418, 0.0, 0.0, 0.0418, 4.65, -25.8)" gradientUnits="userSpaceOnUse" id="gradient0" r="819.2" spreadMethod="pad">
      <stop offset="0.0" stop-color="#f906c9"/>
      <stop offset="0.9803921568627451" stop-color="#000000"/>
    </radialGradient>
    <radialGradient cx="0" cy="0" gradientTransform="matrix(0.0418, 0.0, 0.0, -0.0418, 4.65, -33.0)" gradientUnits="userSpaceOnUse" id="gradient1" r="819.2" spreadMethod="pad">
      <stop offset="0.0" stop-color="#f906c9"/>
      <stop offset="0.9803921568627451" stop-color="#000000"/>
    </radialGradient>
  </defs>
</svg>
