<?xml version="1.0" encoding="UTF-8" standalone="no"?>
<svg xmlns:xlink="http://www.w3.org/1999/xlink" height="107.1px" width="60.1px" xmlns="http://www.w3.org/2000/svg">
  <g transform="matrix(1.0, 0.0, 0.0, 1.0, 96.5, 80.0)">
    <path d="M-82.5 -35.45 L-81.65 -34.15 -79.9 -32.45 -79.75 -31.5 -79.8 -30.8 Q-81.7 -29.15 -83.65 -30.8 -84.3 -33.35 -82.5 -35.45 M-92.55 -1.45 L-92.95 -1.25 Q-93.3 0.05 -92.5 1.25 -92.1 1.9 -92.15 2.75 -94.4 4.05 -96.35 2.4 -97.35 -2.3 -91.8 -3.55 L-91.6 -3.55 Q-90.0 -2.1 -92.55 -1.45 M-85.75 -10.5 L-85.75 -11.85 -85.75 -13.15 Q-81.4 -17.75 -75.05 -19.55 L-74.25 -19.4 Q-78.55 -18.05 -80.05 -15.2 -81.6 -12.35 -81.55 -11.85 L-82.55 -10.55 -83.0 -9.85 Q-84.5 -9.45 -85.75 -10.5 M-46.1 19.95 Q-48.3 21.85 -50.85 23.15 -59.45 25.75 -64.2 26.65 -69.0 27.5 -71.5 26.75 -74.05 26.0 -76.9 25.7 L-80.1 22.45 Q-81.95 20.5 -84.45 19.95 L-84.45 19.65 -84.45 19.3 -84.45 18.95 -84.45 18.0 Q-83.1 16.45 -81.25 15.45 L-77.25 13.55 Q-74.85 13.3 -72.8 14.15 L-72.7 14.35 Q-75.05 14.95 -77.8 16.45 L-78.15 17.1 -78.6 18.4 -78.85 19.45 -78.9 19.75 Q-76.35 20.8 -73.05 20.75 L-72.65 21.1 -72.25 21.35 -71.5 21.75 -71.2 22.35 -70.3 23.4 -69.65 23.95 -62.75 23.05 -44.9 17.55 Q-45.0 18.95 -46.1 19.95" fill="url(#gradient0)" fill-rule="evenodd" stroke="none"/>
    <path d="M-45.8 11.85 L-45.95 11.35 -45.3 10.55 Q-43.45 8.0 -43.15 5.8 -46.85 3.75 -49.1 7.55 L-49.1 8.55 -49.1 9.2 Q-47.2 12.1 -44.25 14.2 -45.25 13.3 -45.8 11.85 M-44.5 6.45 L-44.35 6.45 -44.5 6.55 -44.5 6.45 M-50.45 -22.8 Q-44.8 -17.3 -37.4 -16.1 L-36.4 -17.9 -36.5 -17.95 -36.55 -18.6 -36.65 -18.95 Q-37.35 -19.8 -38.4 -20.25 -39.4 -22.85 -39.6 -25.55 L-39.95 -26.55 Q-44.8 -29.5 -50.3 -26.45 -51.25 -25.0 -50.65 -23.45 L-50.45 -22.8 M-51.0 -33.15 L-52.05 -36.1 Q-53.65 -42.2 -54.6 -48.85 L-54.6 -49.2 -53.85 -50.15 Q-53.65 -52.3 -53.75 -54.5 L-53.75 -54.8 Q-58.9 -60.65 -56.85 -68.4 -55.95 -70.05 -54.05 -70.6 -53.3 -71.8 -53.3 -73.25 L-53.3 -73.55 Q-48.7 -73.25 -44.8 -73.75 L-44.75 -73.65 -44.65 -73.55 -44.55 -73.4 -44.45 -73.35 -44.35 -73.3 -44.15 -73.3 Q-42.35 -73.55 -42.8 -75.4 L-42.8 -75.5 -42.85 -75.6 -42.8 -75.7 -42.75 -75.8 -42.7 -75.9 -43.15 -76.5 -43.15 -76.8 Q-43.75 -77.95 -44.8 -78.75 L-47.1 -79.1 Q-48.8 -78.15 -50.2 -76.8 -51.4 -78.5 -53.3 -79.65 L-57.25 -80.0 Q-66.3 -74.8 -65.45 -65.05 L-65.45 -64.1 -67.0 -62.75 Q-66.8 -55.7 -61.8 -50.05 L-60.7 -48.85 Q-60.7 -47.1 -59.95 -45.5 L-59.7 -44.85 -58.8 -44.2 -58.6 -43.55 -58.5 -43.2 Q-55.3 -41.35 -54.85 -37.9 L-52.05 -34.3 -51.85 -33.85 Q-51.75 -33.7 -51.45 -33.65 L-51.15 -33.25 -51.0 -33.15 M-60.2 -13.0 Q-59.95 -13.55 -59.85 -14.05 -60.85 -15.35 -63.55 -13.85 -64.95 -11.85 -63.55 -9.45 -63.2 -8.85 -62.7 -8.8 -61.15 -9.4 -61.65 -11.55 L-61.7 -11.85 -60.2 -13.0 M-74.15 -49.2 L-73.7 -48.95 -72.6 -49.05 -72.05 -50.1 Q-71.8 -50.55 -71.85 -51.05 -71.35 -51.5 -71.1 -52.1 L-70.95 -52.7 Q-71.8 -54.15 -73.6 -53.5 L-74.6 -52.45 -75.15 -51.85 -75.05 -50.85 -74.5 -49.5 -74.15 -49.2 M-73.6 -50.3 L-73.55 -50.25 -73.6 -50.25 -73.6 -50.3" fill="url(#gradient1)" fill-rule="evenodd" stroke="none"/>
  </g>
  <defs>
    <radialGradient cx="0" cy="0" gradientTransform="matrix(0.0418, 0.0, 0.0, 0.0418, 4.65, -25.8)" gradientUnits="userSpaceOnUse" id="gradient0" r="819.2" spreadMethod="pad">
      <stop offset="0.0" stop-color="#f906c9"/>
      <stop offset="0.9803921568627451" stop-color="#000000"/>
    </radialGradient>
    <radialGradient cx="0" cy="0" gradientTransform="matrix(0.0418, 0.0, 0.0, -0.0418, 4.65, -33.0)" gradientUnits="userSpaceOnUse" id="gradient1" r="819.2" spreadMethod="pad">
      <stop offset="0.0" stop-color="#f906c9"/>
      <stop offset="0.9803921568627451" stop-color="#000000"/>
    </radialGradient>
  </defs>
</svg>
