<?xml version="1.0" encoding="UTF-8" standalone="no"?>
<svg xmlns:xlink="http://www.w3.org/1999/xlink" height="112.2px" width="59.05px" xmlns="http://www.w3.org/2000/svg">
  <g transform="matrix(1.0, 0.0, 0.0, 1.0, 104.3, 84.0)">
    <path d="M-95.0 -8.85 L-94.9 -11.15 Q-94.8 -12.45 -94.05 -12.95 -91.9 -12.65 -90.3 -11.05 L-89.95 -10.75 Q-89.85 -9.55 -90.85 -8.9 L-91.95 -7.5 -92.25 -7.45 -93.5 -7.5 -94.35 -8.2 -95.0 -8.85 M-58.7 13.1 Q-53.65 13.55 -49.65 16.9 L-45.9 18.1 -59.6 17.55 Q-64.45 20.05 -68.7 23.15 -72.1 25.65 -75.85 27.1 -82.5 29.7 -88.5 26.15 L-88.6 25.9 -88.9 25.9 Q-89.25 25.85 -89.2 23.55 -89.15 21.25 -87.3 19.4 L-84.3 17.8 -83.0 17.1 -82.55 17.15 Q-80.25 17.5 -80.25 18.4 L-80.25 18.85 Q-80.7 20.1 -81.85 20.8 -83.35 21.65 -83.75 23.15 -77.5 27.35 -73.35 21.2 -68.2 13.6 -58.7 13.1 M-101.0 6.05 L-101.3 6.7 -102.75 7.05 -104.2 6.05 Q-104.45 5.25 -104.15 4.4 L-103.85 3.75 Q-103.05 3.15 -102.0 3.1 L-101.75 3.05 -100.7 3.8 -100.55 4.05 -101.0 6.05" fill="url(#gradient0)" fill-rule="evenodd" stroke="none"/>
    <path d="M-82.4 -55.95 Q-81.05 -57.65 -81.2 -58.35 L-81.3 -59.15 -81.35 -59.3 -81.45 -59.5 -81.55 -59.6 -81.55 -59.65 Q-82.85 -60.9 -84.2 -59.1 -84.75 -57.75 -84.15 -56.45 L-83.85 -55.8 Q-83.25 -55.35 -82.55 -55.25 L-82.35 -55.25 -82.4 -55.95 M-61.2 8.65 Q-60.85 10.25 -59.6 11.3 L-59.4 11.35 -59.1 11.4 Q-54.8 9.2 -57.5 5.1 -58.35 3.85 -59.65 4.65 -61.85 5.95 -61.2 8.65 M-64.8 -18.6 L-62.7 -18.6 -65.0 -20.85 Q-65.3 -21.45 -65.25 -22.15 L-65.2 -22.45 -65.0 -22.8 -64.0 -24.1 -63.8 -25.8 Q-63.75 -27.8 -64.85 -29.45 L-65.0 -29.65 Q-67.4 -30.05 -69.45 -28.7 L-70.1 -28.3 -70.35 -27.95 -71.0 -26.6 -71.2 -26.0 Q-70.25 -21.95 -66.75 -19.45 -65.95 -18.9 -64.8 -18.6 M-63.45 -36.25 L-65.2 -40.15 -64.95 -42.05 Q-64.35 -44.15 -64.35 -46.4 L-64.5 -46.7 -66.0 -47.75 Q-67.6 -47.55 -69.05 -46.65 L-70.1 -46.0 -70.45 -44.65 -70.15 -42.9 -69.65 -42.0 Q-68.05 -39.35 -65.65 -37.6 L-63.45 -36.25 M-51.65 -76.85 Q-49.45 -75.15 -46.7 -74.45 L-46.2 -74.45 -46.0 -74.5 Q-44.3 -76.4 -46.55 -77.85 -48.1 -78.9 -49.1 -80.3 L-49.7 -80.9 Q-50.1 -81.75 -51.3 -82.4 -52.65 -83.25 -53.95 -82.4 -55.25 -82.65 -56.05 -83.85 -69.85 -85.25 -70.3 -71.7 -67.85 -67.6 -62.9 -66.75 -62.5 -67.9 -63.0 -69.4 L-63.1 -69.7 Q-64.25 -70.8 -64.35 -72.7 -63.9 -73.85 -62.8 -74.7 -59.25 -75.35 -56.4 -77.55 -54.45 -79.05 -52.65 -77.55 L-51.65 -76.85" fill="url(#gradient1)" fill-rule="evenodd" stroke="none"/>
  </g>
  <defs>
    <radialGradient cx="0" cy="0" gradientTransform="matrix(0.0418, 0.0, 0.0, 0.0418, 4.65, -25.8)" gradientUnits="userSpaceOnUse" id="gradient0" r="819.2" spreadMethod="pad">
      <stop offset="0.0" stop-color="#f906c9"/>
      <stop offset="0.9803921568627451" stop-color="#000000"/>
    </radialGradient>
    <radialGradient cx="0" cy="0" gradientTransform="matrix(0.0418, 0.0, 0.0, -0.0418, 4.65, -33.0)" gradientUnits="userSpaceOnUse" id="gradient1" r="819.2" spreadMethod="pad">
      <stop offset="0.0" stop-color="#f906c9"/>
      <stop offset="0.9803921568627451" stop-color="#000000"/>
    </radialGradient>
  </defs>
</svg>
