<?xml version="1.0" encoding="UTF-8" standalone="no"?>
<svg xmlns:xlink="http://www.w3.org/1999/xlink" height="116.6px" width="56.3px" xmlns="http://www.w3.org/2000/svg">
  <g transform="matrix(1.0, 0.0, 0.0, 1.0, 101.2, 85.9)">
    <path d="M-98.45 -7.4 L-98.35 -6.1 Q-102.0 -5.55 -100.95 -8.25 L-100.65 -8.5 -99.15 -8.3 -98.8 -8.1 -98.45 -7.4 M-75.1 11.2 L-75.65 11.7 -75.95 11.9 -78.15 11.8 -79.25 13.25 -78.9 14.1 -79.8 15.2 Q-82.25 23.5 -87.85 29.85 L-88.85 30.65 Q-94.9 31.15 -98.7 26.35 -99.1 25.9 -99.0 25.25 L-96.9 25.3 Q-94.95 26.9 -91.8 26.05 L-90.05 25.55 -89.25 25.1 Q-88.3 22.8 -87.4 17.55 L-87.1 16.85 Q-87.75 12.35 -85.4 8.7 -84.55 7.35 -83.0 6.5 L-78.35 6.6 -75.95 8.3 -75.1 11.2" fill="url(#gradient0)" fill-rule="evenodd" stroke="none"/>
    <path d="M-81.65 -24.65 L-79.9 -26.35 Q-79.7 -26.8 -79.75 -27.3 L-79.8 -28.0 Q-81.7 -29.65 -83.65 -28.0 -84.3 -25.45 -82.5 -23.35 L-81.65 -24.65 M-83.0 -48.95 Q-84.5 -49.35 -85.75 -48.3 L-85.75 -46.95 -85.75 -45.65 Q-81.4 -41.05 -75.05 -39.25 L-74.25 -39.4 Q-78.55 -40.75 -80.05 -43.6 -81.6 -46.45 -81.55 -46.95 L-82.55 -48.25 -83.0 -48.95 M-92.95 -57.55 Q-93.3 -58.85 -92.5 -60.05 -92.1 -60.7 -92.15 -61.55 -94.4 -62.85 -96.35 -61.2 -97.35 -56.5 -91.8 -55.25 L-91.6 -55.25 Q-90.0 -56.7 -92.55 -57.35 -92.75 -57.4 -92.95 -57.55 M-46.1 -78.75 Q-48.3 -80.65 -50.85 -81.95 -59.45 -84.55 -64.2 -85.45 -69.0 -86.3 -71.5 -85.55 -74.05 -84.8 -76.9 -84.5 L-80.1 -81.25 Q-81.95 -79.3 -84.45 -78.75 L-84.45 -78.45 -84.45 -78.1 -84.45 -77.75 -84.45 -76.8 Q-83.1 -75.25 -81.25 -74.25 L-77.25 -72.35 Q-74.85 -72.1 -72.8 -72.95 L-72.7 -73.15 Q-75.05 -73.75 -77.8 -75.25 L-78.15 -75.9 -78.6 -77.2 -78.85 -78.25 -78.9 -78.55 Q-76.35 -79.6 -73.05 -79.55 L-72.65 -79.9 -72.25 -80.15 -71.5 -80.55 -71.2 -81.15 -70.3 -82.2 -69.65 -82.75 -62.75 -81.85 -44.9 -76.35 Q-45.0 -77.75 -46.1 -78.75" fill="url(#gradient1)" fill-rule="evenodd" stroke="none"/>
  </g>
  <defs>
    <radialGradient cx="0" cy="0" gradientTransform="matrix(0.0418, 0.0, 0.0, 0.0418, 4.65, -25.8)" gradientUnits="userSpaceOnUse" id="gradient0" r="819.2" spreadMethod="pad">
      <stop offset="0.0" stop-color="#f906c9"/>
      <stop offset="0.9803921568627451" stop-color="#000000"/>
    </radialGradient>
    <radialGradient cx="0" cy="0" gradientTransform="matrix(0.0418, 0.0, 0.0, -0.0418, 4.65, -33.0)" gradientUnits="userSpaceOnUse" id="gradient1" r="819.2" spreadMethod="pad">
      <stop offset="0.0" stop-color="#f906c9"/>
      <stop offset="0.9803921568627451" stop-color="#000000"/>
    </radialGradient>
  </defs>
</svg>
