<?xml version="1.0" encoding="UTF-8" standalone="no"?>
<svg xmlns:xlink="http://www.w3.org/1999/xlink" height="114.95px" width="58.4px" xmlns="http://www.w3.org/2000/svg">
  <g transform="matrix(1.0, 0.0, 0.0, 1.0, 104.3, 87.0)">
    <path d="M-100.55 14.45 Q-95.35 19.35 -92.75 25.45 -92.65 25.7 -92.7 26.05 -93.3 27.1 -94.45 27.7 -98.45 28.65 -100.75 25.9 -99.55 24.55 -96.9 24.15 -97.05 22.4 -98.25 20.85 L-98.55 20.5 Q-101.0 19.25 -103.3 17.55 -103.7 15.35 -103.05 13.25 L-102.65 12.25 Q-101.9 11.45 -100.85 11.45 -99.95 12.5 -100.5 14.15 L-100.55 14.45" fill="url(#gradient0)" fill-rule="evenodd" stroke="none"/>
    <path d="M-94.9 -47.65 Q-94.8 -46.35 -94.05 -45.85 -91.9 -46.15 -90.3 -47.75 L-89.95 -48.05 Q-89.85 -49.25 -90.85 -49.9 -91.6 -50.45 -91.95 -51.3 L-92.25 -51.35 -93.5 -51.3 -94.35 -50.6 -95.0 -49.95 -94.9 -47.65 M-73.35 -80.0 Q-68.2 -72.4 -58.7 -71.9 -53.65 -72.35 -49.65 -75.7 L-45.9 -76.9 -59.6 -76.35 Q-64.45 -78.85 -68.7 -81.95 -72.1 -84.45 -75.85 -85.9 -82.5 -88.5 -88.5 -84.95 L-88.6 -84.7 -88.9 -84.7 Q-89.25 -84.65 -89.2 -82.35 -89.15 -80.05 -87.3 -78.2 L-84.3 -76.6 -83.0 -75.9 -82.55 -75.95 Q-80.25 -76.3 -80.25 -77.2 L-80.25 -77.65 Q-80.7 -78.9 -81.85 -79.6 -83.35 -80.45 -83.75 -81.95 -77.5 -86.15 -73.35 -80.0 M-101.0 -64.85 L-101.3 -65.5 -102.75 -65.85 -104.2 -64.85 Q-104.45 -64.05 -104.15 -63.2 L-103.85 -62.55 Q-103.05 -61.95 -102.0 -61.9 L-101.75 -61.85 -100.7 -62.6 -100.55 -62.85 -101.0 -64.85" fill="url(#gradient1)" fill-rule="evenodd" stroke="none"/>
  </g>
  <defs>
    <radialGradient cx="0" cy="0" gradientTransform="matrix(0.0418, 0.0, 0.0, 0.0418, 4.65, -25.8)" gradientUnits="userSpaceOnUse" id="gradient0" r="819.2" spreadMethod="pad">
      <stop offset="0.0" stop-color="#f906c9"/>
      <stop offset="0.9803921568627451" stop-color="#000000"/>
    </radialGradient>
    <radialGradient cx="0" cy="0" gradientTransform="matrix(0.0418, 0.0, 0.0, -0.0418, 4.65, -33.0)" gradientUnits="userSpaceOnUse" id="gradient1" r="819.2" spreadMethod="pad">
      <stop offset="0.0" stop-color="#f906c9"/>
      <stop offset="0.9803921568627451" stop-color="#000000"/>
    </radialGradient>
  </defs>
</svg>
