<?xml version="1.0" encoding="UTF-8" standalone="no"?>
<svg xmlns:xlink="http://www.w3.org/1999/xlink" height="39.2px" width="26.1px" xmlns="http://www.w3.org/2000/svg">
  <g transform="matrix(1.0, 0.0, 0.0, 1.0, 101.2, 89.5)">
    <path d="M-98.35 -52.7 Q-102.0 -53.25 -100.95 -50.55 L-100.65 -50.3 -99.15 -50.5 -98.8 -50.7 -98.45 -51.4 -98.35 -52.7 M-75.65 -70.5 L-75.95 -70.7 -78.15 -70.6 -79.25 -72.05 -78.9 -72.9 -79.8 -74.0 Q-82.25 -82.3 -87.85 -88.65 L-88.85 -89.45 Q-94.9 -89.95 -98.7 -85.15 -99.1 -84.7 -99.0 -84.05 L-96.9 -84.1 Q-94.95 -85.7 -91.8 -84.85 L-90.05 -84.35 -89.25 -83.9 Q-88.3 -81.6 -87.4 -76.35 L-87.1 -75.65 Q-87.75 -71.15 -85.4 -67.5 -84.55 -66.15 -83.0 -65.3 L-78.35 -65.4 -75.95 -67.1 -75.1 -70.0 -75.65 -70.5" fill="url(#gradient0)" fill-rule="evenodd" stroke="none"/>
  </g>
  <defs>
    <radialGradient cx="0" cy="0" gradientTransform="matrix(0.0418, 0.0, 0.0, -0.0418, 4.65, -33.0)" gradientUnits="userSpaceOnUse" id="gradient0" r="819.2" spreadMethod="pad">
      <stop offset="0.0" stop-color="#f906c9"/>
      <stop offset="0.9803921568627451" stop-color="#000000"/>
    </radialGradient>
  </defs>
</svg>
