<?xml version="1.0" encoding="UTF-8" standalone="no"?>
<svg xmlns:xlink="http://www.w3.org/1999/xlink" height="115.6px" width="138.25px" xmlns="http://www.w3.org/2000/svg">
  <g transform="matrix(1.0, 0.0, 0.0, 1.0, 66.95, 115.6)">
    <path d="M41.05 -115.6 L52.95 -110.35 Q48.8 -79.25 35.2 -50.65 L41.3 -40.45 37.7 -35.5 42.4 -35.2 68.2 -62.1 Q69.75 -59.55 70.6 -56.7 72.25 -51.35 70.1 -46.1 65.9 -35.8 55.85 -30.55 42.6 -23.75 28.0 -27.95 L20.85 -20.5 23.3 -19.4 -38.95 -17.3 -45.35 -35.1 Q-52.2 -38.3 -57.75 -43.65 -67.8 -53.2 -66.85 -67.1 L-60.75 -66.8 -47.7 -44.1 -43.55 -44.05 -38.85 -47.95 -31.1 -42.8 -28.3 -43.45 Q-18.6 -62.75 -4.8 -79.3 2.45 -77.3 10.05 -78.25 23.85 -80.3 33.2 -90.55 42.95 -101.3 41.05 -115.6 M12.05 -0.95 L11.75 0.0 11.5 -0.95 12.05 -0.95 M-45.75 -39.6 L-45.7 -41.2 -48.25 -40.75 -45.75 -39.6" fill="#666666" fill-rule="evenodd" stroke="none"/>
  </g>
</svg>
