<?xml version="1.0" encoding="UTF-8" standalone="no"?>
<svg xmlns:xlink="http://www.w3.org/1999/xlink" height="87.6px" width="91.5px" xmlns="http://www.w3.org/2000/svg">
  <g transform="matrix(1.0, 0.0, 0.0, 1.0, 51.2, 57.05)">
    <path d="M-28.2 -41.35 Q-36.15 -49.2 -24.85 -48.55 -10.9 -47.6 2.6 -43.3 L6.45 -42.55 7.25 -43.35 Q3.3 -50.4 7.8 -55.15 L10.2 -55.2 Q23.1 -60.45 30.3 -50.85 35.85 -43.35 30.35 -35.95 L30.3 -37.55 27.8 -35.2 26.75 -35.4 27.9 -38.0 Q28.5 -39.3 28.25 -40.2 23.6 -54.1 8.75 -48.9 12.65 -44.7 9.8 -39.8 7.05 -35.05 3.3 -40.15 0.95 -39.7 -1.0 -40.75 -15.15 -48.25 -28.2 -41.35 M27.9 -17.7 Q31.05 -21.75 35.8 -22.15 L36.0 -22.05 Q42.25 -17.35 39.45 -10.05 L36.9 -9.5 37.2 -10.15 Q37.9 -23.2 27.9 -16.9 L27.9 -17.7 M16.9 5.95 Q15.25 -2.85 4.75 -3.55 L3.4 -3.65 -1.0 -1.05 Q-2.7 1.85 -5.8 3.2 L-6.15 3.35 -5.0 -1.55 -0.55 -3.15 Q4.15 -10.0 12.0 -7.6 16.25 -6.35 19.4 -3.15 L19.45 -2.05 Q19.5 -0.15 19.0 1.7 18.35 4.0 16.9 5.95 M-37.8 8.3 Q-48.15 7.2 -50.9 -4.05 -52.25 -9.35 -47.2 -13.45 -41.8 -17.9 -34.8 -18.5 -34.85 -23.35 -37.35 -28.3 -38.25 -30.1 -36.1 -31.0 -31.4 -32.9 -25.85 -31.0 L-26.25 -39.5 -25.75 -39.0 Q-23.3 -36.55 -21.55 -33.5 L-19.7 -29.7 -22.1 -30.65 -35.35 -26.4 -35.15 -25.4 Q-34.9 -24.1 -34.05 -23.05 L-30.15 -18.1 -30.6 -15.75 -33.7 -17.4 Q-37.0 -16.75 -39.8 -15.0 -43.55 -12.75 -46.0 -9.1 -45.65 -6.4 -45.9 -3.7 -46.1 -1.65 -46.6 0.4 L-41.65 4.2 -41.8 4.2 -37.8 8.3" fill="#bfbfbf" fill-rule="evenodd" stroke="none"/>
    <path d="M-28.2 -41.35 Q-15.15 -48.25 -1.0 -40.75 0.95 -39.7 3.3 -40.15 7.05 -35.05 9.8 -39.8 12.65 -44.7 8.75 -48.9 23.6 -54.1 28.25 -40.2 28.5 -39.3 27.9 -38.0 L26.75 -35.4 27.8 -35.2 30.3 -37.55 30.35 -35.95 26.85 -33.45 Q25.9 -27.3 25.85 -21.2 25.8 -19.3 26.8 -17.6 L27.9 -17.7 27.9 -16.9 Q37.9 -23.2 37.2 -10.15 L36.9 -9.5 39.45 -10.05 Q37.3 -6.4 33.2 -5.2 L32.25 -4.95 Q33.95 15.85 14.0 10.1 L13.65 8.35 16.8 7.1 16.9 5.95 Q18.35 4.0 19.0 1.7 19.5 -0.15 19.45 -2.05 L19.4 -3.15 Q16.25 -6.35 12.0 -7.6 4.15 -10.0 -0.55 -3.15 L-5.0 -1.55 -6.15 3.35 Q-6.05 5.15 -5.6 6.95 L-1.8 19.6 Q5.5 17.2 12.0 19.0 13.8 19.55 12.95 21.55 9.05 30.45 -0.75 26.0 -6.05 34.8 -15.7 26.6 -25.95 17.8 -35.2 9.05 -36.2 8.1 -37.8 8.3 L-41.8 4.2 -41.65 4.2 -46.6 0.4 Q-46.1 -1.65 -45.9 -3.7 -45.65 -6.4 -46.0 -9.1 -43.55 -12.75 -39.8 -15.0 -37.0 -16.75 -33.7 -17.4 L-30.6 -15.75 -30.15 -18.1 -34.05 -23.05 Q-34.9 -24.1 -35.15 -25.4 L-35.35 -26.4 -22.1 -30.65 -19.7 -29.7 -21.55 -33.5 Q-23.3 -36.55 -25.75 -39.0 L-26.25 -39.5 Q-26.3 -40.0 -26.65 -40.3 L-27.55 -40.65 -28.25 -41.35 -28.2 -41.35" fill="#999999" fill-rule="evenodd" stroke="none"/>
    <path d="M-12.1 -9.0 L-13.6 -7.1 Q-18.95 8.85 -10.0 14.0 L-3.85 13.5 -6.4 15.9 -2.45 21.5 Q-1.25 21.55 -0.7 22.6 -0.35 23.3 -0.75 24.0 -2.8 27.4 -6.0 24.85 L-6.5 24.85 Q-12.0 25.1 -16.7 22.15 -21.35 19.2 -22.9 13.95 -24.85 7.35 -19.3 3.4 -19.9 0.55 -19.1 -2.2 -17.7 -7.4 -12.9 -9.65 L-12.1 -9.0 M7.05 -27.0 Q4.5 -27.4 2.2 -26.55 -10.7 -22.7 -0.75 -11.4 -2.65 -11.45 -4.3 -12.25 -8.4 -14.3 -9.5 -18.65 -11.1 -24.75 -6.95 -29.5 -4.9 -31.85 -1.9 -32.75 4.05 -34.6 10.0 -32.45 15.25 -30.55 19.15 -26.55 21.1 -24.55 22.55 -22.1 L21.1 -20.15 Q21.6 -16.75 18.6 -15.05 17.8 -14.65 16.95 -15.05 L16.65 -15.2 17.1 -21.8 15.3 -22.55 14.15 -23.7 Q11.1 -26.5 7.05 -27.0" fill="#666666" fill-rule="evenodd" stroke="none"/>
    <path d="M26.75 -34.2 L23.45 -34.2 22.85 -32.7 Q24.45 -27.0 22.05 -21.85 L20.9 -19.65 Q31.85 -15.4 33.05 -3.85 33.7 2.55 27.5 4.75 L25.05 5.5 25.35 3.25 31.05 -0.65 Q30.75 -5.55 28.6 -9.8 27.5 -6.0 24.5 -3.3 22.9 -1.9 21.15 -3.15 22.05 -5.3 23.7 -6.9 L24.6 -7.7 25.95 -12.1 23.35 -15.05 Q17.75 -16.5 12.9 -12.15 L11.8 -12.05 9.25 -12.3 9.25 -13.3 Q17.3 -16.0 19.85 -23.85 21.4 -28.5 20.25 -33.4 13.1 -35.35 6.4 -33.1 L6.5 -30.85 Q6.45 -30.0 5.95 -29.35 4.45 -30.1 4.25 -31.7 L4.05 -33.75 4.05 -34.85 9.9 -40.05 Q8.6 -43.5 5.1 -44.85 3.55 -43.2 1.35 -43.7 0.45 -44.05 -0.35 -44.5 L-1.2 -45.0 Q-5.7 -44.9 -7.85 -40.5 -8.85 -38.35 -9.2 -36.3 L-9.85 -35.6 -11.2 -36.15 Q-10.7 -40.75 -7.4 -44.3 1.45 -49.95 11.05 -45.75 18.45 -42.4 21.85 -34.7 L25.1 -37.8 Q27.85 -37.15 29.7 -35.05 32.1 -32.25 31.45 -28.65 L29.9 -28.8 Q29.3 -31.2 27.55 -33.3 L26.75 -34.2 M-19.95 -30.55 L-20.45 -28.3 Q-20.85 -26.75 -22.4 -26.1 L-19.0 -14.7 -19.9 -14.5 Q-22.5 -17.15 -24.4 -20.45 L-25.0 -21.1 -26.65 -21.95 Q-27.75 -18.3 -26.1 -12.55 -24.1 -5.0 -19.95 0.65 -18.95 1.95 -18.1 3.4 -23.65 -1.1 -26.7 -7.6 -30.15 -14.8 -29.0 -22.55 -26.05 -31.35 -17.2 -34.05 L-13.15 -35.05 -19.95 -30.55" fill="#f1f2ff" fill-rule="evenodd" stroke="none"/>
    <path d="M20.55 -38.0 Q19.9 -38.2 19.75 -39.05 L19.65 -39.6 18.3 -41.05 16.05 -36.95 17.3 -37.15 Q19.25 -37.15 19.9 -35.4 L20.1 -34.8 17.9 -35.3 Q16.85 -35.75 15.9 -36.35 L15.25 -35.4 14.3 -35.8 14.25 -38.55 12.45 -38.7 11.7 -38.0 10.4 -37.1 8.95 -36.65 Q9.6 -39.15 11.95 -40.0 L14.75 -40.25 Q20.2 -44.85 21.65 -38.3 L21.65 -37.8 21.1 -37.75 20.55 -38.0 M22.85 -25.85 L22.3 -31.2 23.2 -31.4 Q24.75 -28.95 23.65 -25.85 L22.85 -25.85 M29.4 -32.55 L27.65 -34.85 28.35 -35.45 30.3 -33.2 29.4 -32.55 M6.75 -47.95 L3.3 -46.8 Q5.05 -50.35 7.9 -48.2 9.0 -47.4 9.8 -46.2 7.6 -46.05 6.75 -47.95 M2.55 -47.1 L3.0 -46.5 2.55 -45.9 1.4 -45.65 0.3 -45.9 -0.2 -46.5 0.3 -47.1 1.4 -47.35 2.55 -47.1 M5.5 -34.0 L5.15 -34.25 5.65 -35.35 7.25 -36.55 Q10.0 -35.55 10.2 -32.65 L10.2 -31.9 6.5 -34.6 6.0 -34.05 5.5 -34.0 M18.5 -24.6 L19.55 -24.15 19.9 -23.95 Q20.55 -22.95 20.1 -21.95 L19.85 -21.45 19.35 -21.25 18.5 -24.6 M32.7 -17.75 L34.0 -18.3 Q37.05 -15.9 35.65 -12.35 L35.25 -11.6 34.2 -11.85 Q34.5 -13.8 34.0 -15.7 L33.65 -16.75 32.8 -17.15 32.7 -17.75 M22.65 -20.15 L23.65 -19.45 24.35 -18.55 25.55 -16.65 25.05 -15.95 24.2 -16.0 21.6 -19.65 22.65 -20.15 M22.95 -20.8 L22.6 -22.45 21.25 -23.45 23.0 -24.9 24.15 -23.6 Q24.95 -21.95 23.3 -20.9 L22.95 -20.8 M28.75 -14.15 Q31.35 -12.3 30.15 -9.3 L29.85 -8.65 Q28.05 -10.85 28.15 -13.8 L28.75 -14.15 M23.1 -9.05 Q23.5 -8.75 23.5 -8.25 23.5 -7.75 23.1 -7.4 22.7 -7.1 22.1 -7.1 21.5 -7.1 21.1 -7.4 20.7 -7.75 20.7 -8.25 20.7 -8.75 21.1 -9.05 21.5 -9.4 22.1 -9.4 22.7 -9.4 23.1 -9.05 M30.3 -5.45 Q33.15 -2.55 30.35 0.45 L30.0 0.8 29.65 -5.1 30.3 -5.45 M26.65 7.4 L25.75 6.8 26.4 5.7 30.55 4.9 31.6 6.1 Q29.7 9.15 26.65 7.4 M-7.2 -45.9 Q-6.85 -45.9 -6.6 -45.55 L-6.4 -44.75 -6.6 -43.9 Q-6.85 -43.6 -7.2 -43.6 -7.55 -43.6 -7.75 -43.9 L-8.0 -44.75 -7.75 -45.55 Q-7.55 -45.9 -7.2 -45.9 M-6.95 -40.25 Q-2.4 -41.6 -1.0 -37.15 -0.75 -36.3 -1.0 -35.3 L-3.15 -38.35 -5.6 -38.35 -7.25 -38.8 -6.95 -40.25 M-10.15 -30.25 L-9.7 -31.1 -7.8 -30.45 Q-7.9 -29.35 -8.55 -28.45 -9.15 -27.65 -10.3 -27.6 -10.65 -29.0 -10.15 -30.25 M-24.15 -29.15 L-26.0 -23.55 -26.15 -24.7 -25.65 -28.15 -24.15 -29.15 M-29.65 -25.5 L-28.05 -24.45 -29.05 -23.65 -29.9 -24.0 -30.4 -25.0 -29.65 -25.5 M-28.0 -18.55 L-26.9 -16.05 -27.5 -15.25 Q-29.45 -17.25 -27.7 -19.55 L-27.05 -20.2 -28.0 -18.55 M-32.1 -7.75 Q-29.2 -7.85 -30.45 -6.6 L-31.5 -6.25 -32.15 -5.25 Q-32.75 -6.0 -32.55 -6.6 L-32.1 -7.75 M-37.75 -10.6 Q-37.5 -10.9 -37.1 -10.9 -36.7 -10.9 -36.4 -10.6 L-36.15 -9.95 Q-36.15 -9.55 -36.4 -9.25 -36.7 -9.0 -37.1 -9.0 -37.5 -9.0 -37.75 -9.25 L-38.05 -9.95 -37.75 -10.6 M-27.25 -3.35 L-26.55 -3.05 -26.1 -2.2 -27.55 1.3 -28.4 1.0 Q-28.95 -0.7 -28.0 -2.25 L-27.25 -3.35 M-22.4 -4.05 L-21.55 -3.45 Q-22.0 -1.8 -21.5 -0.1 L-21.25 0.55 -21.75 1.45 Q-23.85 -0.25 -22.95 -2.8 L-22.4 -4.05 M-24.95 -3.2 Q-26.15 -4.3 -26.8 -5.95 -28.05 -9.1 -26.2 -12.2 L-25.0 -11.7 -26.75 -7.6 -24.5 -3.9 -24.95 -3.2 M-9.65 11.8 L-10.65 12.0 -11.65 11.8 -12.05 11.25 Q-12.05 10.95 -11.65 10.75 L-10.65 10.5 -9.65 10.75 Q-9.25 10.95 -9.25 11.25 L-9.65 11.8 M-14.4 5.4 Q-14.4 5.9 -14.75 6.25 L-15.6 6.6 Q-16.1 6.6 -16.45 6.25 L-16.8 5.4 Q-16.8 4.9 -16.45 4.55 -16.1 4.2 -15.6 4.2 -15.1 4.2 -14.75 4.55 -14.4 4.9 -14.4 5.4 M-4.65 14.9 L-2.25 12.6 -1.2 13.45 Q-1.7 15.6 -3.8 15.7 L-4.4 15.6 -4.65 14.9" fill="#ffffff" fill-rule="evenodd" stroke="none"/>
  </g>
</svg>
