<?xml version="1.0" encoding="UTF-8" standalone="no"?>
<svg xmlns:xlink="http://www.w3.org/1999/xlink" height="131.0px" width="163.6px" xmlns="http://www.w3.org/2000/svg">
  <g transform="matrix(1.0, 0.0, 0.0, 1.0, 90.9, 145.85)">
    <path d="M6.1 -145.3 L13.55 -94.0 17.75 -94.0 19.75 -97.25 21.75 -100.2 Q29.2 -110.05 41.2 -112.6 L41.05 -115.6 44.7 -115.3 48.0 -117.3 51.3 -118.95 Q61.6 -123.55 72.7 -121.6 L71.95 -119.1 71.05 -116.7 Q67.45 -107.5 61.6 -99.6 57.7 -94.3 55.35 -88.5 53.55 -83.95 52.4 -79.3 L56.1 -76.15 58.1 -74.25 Q62.95 -69.1 63.1 -61.85 L63.05 -57.9 68.2 -62.1 69.4 -59.85 70.35 -57.55 Q72.5 -52.3 71.4 -46.85 70.1 -40.4 65.25 -36.1 62.8 -33.95 59.65 -32.8 L58.75 -30.65 57.8 -28.5 Q54.85 -21.45 48.4 -17.35 45.8 -15.65 42.65 -14.85 L-40.6 -14.85 -40.15 -15.45 -49.05 -24.2 -52.6 -27.8 Q-62.3 -37.85 -68.25 -50.5 -76.55 -68.25 -87.65 -84.4 L-90.9 -89.0 -88.2 -92.55 -55.75 -76.25 -52.7 -81.25 -33.3 -80.7 -31.3 -86.25 -30.2 -88.9 Q-25.05 -100.55 -15.9 -109.6 -11.8 -113.65 -7.1 -117.05 L-7.0 -121.2 -6.6 -125.25 Q-5.2 -135.1 1.45 -142.75 L4.2 -145.85 6.1 -145.3" fill="#666666" fill-rule="evenodd" stroke="none"/>
  </g>
</svg>
