<?xml version="1.0" encoding="UTF-8" standalone="no"?>
<svg xmlns:xlink="http://www.w3.org/1999/xlink" height="160.95px" width="174.15px" xmlns="http://www.w3.org/2000/svg">
  <g transform="matrix(1.0, 0.0, 0.0, 1.0, 92.8, 177.05)">
    <path d="M25.65 -176.75 Q28.45 -162.3 29.75 -147.75 30.65 -137.35 30.55 -126.85 L30.3 -112.85 40.3 -108.7 Q39.8 -102.55 38.05 -96.65 36.8 -92.4 34.75 -88.25 L31.95 -82.9 Q37.35 -84.9 42.2 -87.8 45.8 -90.1 49.3 -92.7 54.2 -96.35 58.7 -100.45 68.9 -109.85 76.6 -121.75 L81.35 -121.2 Q81.1 -114.2 79.7 -107.6 78.9 -103.8 77.65 -100.1 76.1 -95.45 74.0 -91.1 69.8 -82.3 63.5 -75.0 53.25 -62.9 39.1 -56.05 L35.85 -54.65 36.4 -41.3 45.85 -39.1 45.85 -16.1 -40.9 -16.1 -42.65 -21.0 Q-54.7 -25.65 -66.1 -31.6 -74.45 -35.95 -82.3 -41.05 L-92.8 -47.95 -92.7 -49.0 Q-86.8 -49.45 -81.05 -49.25 L-72.35 -48.0 -69.5 -47.4 -63.45 -52.05 -60.15 -55.1 -58.7 -56.85 -44.85 -39.1 -25.85 -170.65 Q-21.0 -167.2 -17.35 -162.6 -15.4 -160.2 -13.75 -157.55 -11.65 -154.2 -10.2 -150.55 -7.5 -143.85 -7.4 -136.5 -7.35 -132.85 -7.95 -129.25 -5.55 -129.9 -3.55 -131.35 -2.05 -132.5 -0.8 -134.05 1.35 -136.65 3.05 -139.5 8.2 -147.85 11.95 -156.85 15.35 -164.9 20.6 -171.65 L24.95 -177.05 25.65 -176.75" fill="#666666" fill-rule="evenodd" stroke="none"/>
  </g>
</svg>
