<?xml version="1.0" encoding="UTF-8" standalone="no"?>
<svg xmlns:xlink="http://www.w3.org/1999/xlink" height="194.5px" width="181.65px" xmlns="http://www.w3.org/2000/svg">
  <g transform="matrix(1.0, 0.0, 0.0, 1.0, 95.15, 210.8)">
    <path d="M13.95 -201.95 L30.8 -210.8 Q41.05 -202.2 40.75 -188.8 40.65 -185.25 39.85 -181.8 32.1 -149.35 26.65 -116.2 L23.55 -96.1 21.9 -84.3 Q27.0 -85.3 31.45 -88.0 37.35 -91.4 41.05 -97.2 L42.85 -100.2 45.75 -105.35 49.35 -105.35 52.4 -102.85 55.45 -103.35 86.5 -154.45 85.25 -146.2 Q80.6 -117.7 68.55 -91.5 65.65 -85.3 61.6 -79.7 53.3 -68.35 45.85 -56.75 40.1 -47.85 38.35 -37.4 L36.5 -25.1 35.4 -16.3 -84.1 -16.3 Q-91.5 -31.8 -93.8 -48.75 L-94.8 -57.95 -95.15 -64.3 Q-91.5 -62.95 -88.25 -60.9 -81.2 -56.45 -77.2 -49.1 L-75.6 -45.8 -74.9 -44.05 -74.6 -52.65 -67.95 -54.9 Q-69.25 -75.05 -66.65 -95.1 L-64.25 -111.15 -62.7 -119.15 Q-67.55 -130.0 -68.9 -141.75 -70.4 -155.1 -67.15 -168.15 L-64.7 -177.3 -62.95 -183.0 -62.0 -181.35 Q-59.5 -183.7 -56.3 -184.8 L-55.05 -185.2 -52.4 -185.7 -48.4 -185.65 -45.25 -187.6 -44.75 -186.15 Q-43.1 -181.35 -44.75 -176.35 -48.5 -165.1 -50.5 -153.3 -52.85 -139.6 -48.3 -126.4 -45.65 -118.7 -39.25 -113.95 -37.55 -112.75 -35.65 -111.85 -34.75 -111.4 -33.75 -111.05 -24.45 -114.1 -16.15 -119.3 -12.9 -121.4 -9.8 -123.7 L-6.65 -126.0 -6.35 -127.25 Q-5.8 -129.05 -4.7 -130.5 1.3 -138.8 6.05 -148.25 12.0 -160.0 12.8 -173.25 L13.55 -189.35 13.95 -201.95 M-10.6 -165.5 L-13.65 -163.5 -11.15 -170.55 -10.05 -170.55 -10.6 -165.5" fill="#666666" fill-rule="evenodd" stroke="none"/>
  </g>
</svg>
