<?xml version="1.0" encoding="UTF-8" standalone="no"?>
<svg xmlns:xlink="http://www.w3.org/1999/xlink" height="223.8px" width="182.2px" xmlns="http://www.w3.org/2000/svg">
  <g transform="matrix(1.0, 0.0, 0.0, 1.0, 105.4, 239.4)">
    <path d="M63.9 -116.8 L65.1 -116.2 64.85 -118.65 63.9 -116.8 M10.55 -239.4 L15.25 -237.9 25.0 -215.1 Q27.85 -208.5 28.7 -201.45 29.25 -197.15 29.05 -192.85 25.95 -134.0 22.15 -75.4 L25.5 -73.2 32.3 -78.85 Q41.6 -86.5 48.4 -96.4 50.75 -99.8 52.45 -103.65 57.3 -114.9 66.8 -122.55 69.85 -115.1 69.6 -106.95 69.55 -105.05 68.85 -103.35 59.3 -79.7 49.05 -56.25 55.65 -52.65 58.1 -45.65 60.9 -37.55 55.45 -31.05 L68.35 -32.35 74.3 -60.15 Q75.55 -53.65 75.6 -47.35 75.7 -35.95 71.3 -25.65 L72.5 -24.8 76.8 -25.75 72.65 -19.95 65.55 -18.3 Q58.7 -16.55 51.7 -17.8 L-67.8 -17.8 -67.8 -15.6 Q-69.7 -24.75 -73.95 -33.15 -79.15 -43.4 -87.95 -50.75 -89.15 -55.75 -90.65 -60.7 -94.6 -73.8 -105.4 -82.35 -105.35 -86.75 -103.25 -90.6 L-100.7 -94.8 -92.75 -92.05 Q-82.75 -88.3 -79.35 -78.2 L-89.6 -155.85 Q-84.35 -153.35 -79.15 -150.65 -62.3 -142.1 -51.9 -126.15 L-10.3 -135.85 11.25 -196.65 Q2.75 -205.55 1.85 -217.75 0.85 -230.75 10.55 -239.4" fill="#666666" fill-rule="evenodd" stroke="none"/>
  </g>
</svg>
