<?xml version="1.0" encoding="UTF-8" standalone="no"?>
<svg xmlns:xlink="http://www.w3.org/1999/xlink" height="90.6px" width="109.55px" xmlns="http://www.w3.org/2000/svg">
  <g transform="matrix(1.0, 0.0, 0.0, 1.0, 61.8, 69.2)">
    <path d="M11.35 -52.0 Q12.4 -55.9 16.1 -57.4 18.1 -55.9 20.4 -54.75 L21.9 -53.85 Q26.4 -50.25 23.3 -45.25 L20.9 -44.65 Q22.35 -50.05 16.8 -52.1 14.05 -53.15 11.35 -52.0 M29.2 -13.7 L29.3 -13.95 29.5 -13.9 29.5 -13.8 29.4 -13.7 29.2 -13.7 M29.05 -27.35 Q27.5 -30.25 25.0 -32.3 21.4 -35.3 16.9 -36.75 5.7 -40.4 -5.8 -38.2 L-15.15 -23.35 -18.65 -21.35 -19.4 -18.1 Q-21.95 -6.65 -18.45 4.65 L-22.3 2.0 Q-23.35 -2.15 -23.45 -6.35 -23.7 -14.45 -20.2 -21.7 -19.3 -23.6 -17.8 -25.0 -10.65 -31.85 -6.95 -41.05 L-1.15 -41.55 0.45 -40.65 4.7 -41.75 7.3 -40.55 Q12.2 -41.8 16.65 -39.45 L20.9 -37.3 Q27.5 -34.25 29.05 -27.35 M-18.15 5.7 L-18.1 6.0 -18.2 5.8 -18.15 5.7 M-46.4 -8.75 L-47.0 -9.0 Q-48.5 -9.8 -49.3 -11.25 L-50.0 -12.95 -49.45 -15.05 -47.15 -16.15 Q-42.1 -18.3 -36.8 -16.9 L-35.5 -19.05 -32.15 -13.9 Q-38.05 -16.45 -43.75 -13.75 -45.1 -13.15 -45.7 -11.85 -46.4 -10.4 -46.4 -8.75 M-21.3 -41.9 Q-25.5 -45.6 -30.05 -48.8 -31.7 -50.0 -33.15 -51.35 -36.65 -54.55 -32.7 -56.6 -30.0 -55.25 -27.05 -54.4 L-22.9 -53.85 Q-17.3 -53.9 -13.05 -50.5 L-17.35 -50.4 Q-29.2 -52.4 -24.85 -46.85 -22.5 -43.9 -21.3 -41.9 M-58.25 -37.5 Q-57.15 -39.3 -55.35 -40.5 -51.25 -43.15 -46.9 -40.65 L-46.95 -39.35 -49.75 -36.3 -53.75 -38.95 -58.25 -37.5 M-61.55 -31.1 L-58.8 -36.5 Q-58.85 -34.3 -59.6 -32.7 -60.4 -31.1 -61.55 -31.1" fill="#bfbfbf" fill-rule="evenodd" stroke="none"/>
    <path d="M23.3 -45.25 L22.4 -42.0 Q25.2 -41.7 27.6 -40.35 30.25 -38.85 31.45 -36.05 36.55 -24.5 35.3 -11.8 L34.85 -10.7 Q31.4 -7.0 27.2 -4.05 27.1 0.2 24.1 3.25 L23.8 3.5 22.55 3.0 29.2 -13.7 29.4 -13.7 29.5 -13.8 29.5 -13.9 29.3 -13.95 29.55 -14.75 Q31.4 -21.15 29.05 -27.35 27.5 -34.25 20.9 -37.3 L16.65 -39.45 Q12.2 -41.8 7.3 -40.55 L4.7 -41.75 0.45 -40.65 -1.15 -41.55 -6.95 -41.05 Q-10.65 -31.85 -17.8 -25.0 -19.3 -23.6 -20.2 -21.7 -23.7 -14.45 -23.45 -6.35 -23.35 -2.15 -22.3 2.0 L-18.45 4.65 -18.15 5.7 -18.2 5.8 -18.1 6.0 -17.2 6.85 -16.15 8.25 Q-14.3 11.0 -14.05 14.2 -15.7 13.75 -17.05 12.7 -17.65 12.25 -18.3 12.1 L-26.1 9.75 -26.6 9.5 Q-32.45 2.2 -36.9 -6.1 L-37.55 -6.1 Q-42.35 -6.1 -46.4 -8.75 -46.4 -10.4 -45.7 -11.85 -45.1 -13.15 -43.75 -13.75 -38.05 -16.45 -32.15 -13.9 L-35.5 -19.05 -25.0 -25.75 Q-25.45 -27.9 -24.3 -29.75 -22.5 -32.85 -19.3 -34.7 L-20.6 -41.25 -21.3 -41.9 Q-22.5 -43.9 -24.85 -46.85 -29.2 -52.4 -17.35 -50.4 L-13.05 -50.5 Q-9.7 -47.85 -5.65 -46.5 3.5 -43.35 12.5 -47.05 L11.35 -52.0 Q14.05 -53.15 16.8 -52.1 22.35 -50.05 20.9 -44.65 L23.3 -45.25 M34.55 -55.2 L29.5 -59.7 27.55 -58.8 26.85 -59.7 28.95 -61.5 30.3 -61.75 35.25 -55.9 34.55 -55.2 M39.5 -34.85 L39.75 -35.7 40.75 -36.05 Q43.1 -34.9 44.85 -32.9 48.0 -29.3 47.75 -24.45 L47.45 -22.1 45.45 -22.2 45.8 -28.25 39.5 -34.85 M-26.9 -62.35 L-27.85 -64.7 Q-24.85 -67.85 -20.6 -68.75 -13.7 -70.3 -7.65 -66.55 L-8.45 -65.4 -10.6 -65.75 Q-17.75 -66.45 -24.9 -65.0 L-25.8 -62.8 -26.9 -62.35 M3.6 14.8 L9.45 10.15 4.5 -4.9 -6.75 -9.0 -8.65 -7.45 -9.55 -7.85 -7.15 -10.55 -2.25 -10.2 -1.85 -10.8 -0.35 -11.6 Q8.95 -5.8 11.05 5.15 11.6 8.25 11.55 11.35 L8.65 13.3 8.05 17.8 3.5 18.2 Q-0.45 20.8 -5.1 21.35 -9.2 21.85 -10.6 18.3 L-10.85 17.4 -8.95 18.2 Q-7.7 18.7 -6.4 18.6 -1.0 17.95 3.6 14.8 M-58.25 -37.5 L-53.75 -38.95 -49.75 -36.3 Q-52.25 -32.3 -56.4 -30.1 L-56.95 -29.8 Q-58.65 -25.9 -58.0 -21.7 L-58.05 -21.25 Q-59.1 -21.65 -59.6 -22.7 -60.2 -23.85 -60.2 -25.15 -61.7 -26.7 -61.8 -28.85 L-61.55 -31.1 Q-60.4 -31.1 -59.6 -32.7 -58.85 -34.3 -58.8 -36.5 L-58.65 -37.2 -58.25 -37.5" fill="#999999" fill-rule="evenodd" stroke="none"/>
    <path d="M14.4 -54.7 Q13.2 -54.15 12.55 -52.95 L12.0 -52.8 11.25 -52.9 Q10.7 -53.15 10.45 -53.65 15.6 -61.9 22.2 -54.35 24.95 -51.25 26.1 -47.2 27.35 -42.45 24.3 -39.3 22.15 -37.15 19.5 -38.5 L19.5 -39.6 21.0 -40.3 Q23.85 -48.8 17.8 -55.25 16.0 -55.45 14.4 -54.7 M10.25 5.6 Q11.75 6.8 10.1 10.85 L9.25 10.6 10.25 5.6 M1.65 14.95 L2.45 15.85 Q-0.8 19.5 -5.7 19.55 L-6.75 19.3 -7.0 19.1 1.65 14.95 M9.1 6.1 Q7.6 6.2 6.6 4.85 L5.75 1.0 1.9 -2.1 -0.15 -1.85 Q-3.65 -2.25 -4.55 -5.65 L-7.15 -6.55 Q-7.95 -6.9 -8.6 -7.4 -10.05 -8.45 -8.75 -9.5 L-6.85 -10.7 Q-4.95 -11.6 -3.75 -10.0 0.05 -9.4 3.25 -7.2 7.6 -4.25 9.45 0.7 10.3 3.15 9.55 5.7 L9.1 6.1 M-35.1 -56.25 Q-31.35 -57.15 -28.3 -54.95 L-27.15 -54.85 -20.3 -55.2 -17.4 -55.9 Q-14.85 -55.35 -13.2 -53.35 -12.5 -52.45 -12.1 -51.35 -12.8 -50.7 -13.75 -50.75 -15.4 -50.9 -16.3 -52.3 -18.1 -52.4 -19.8 -51.75 L-19.45 -51.6 -19.35 -51.5 -19.3 -51.45 -19.25 -51.35 -19.15 -51.2 -19.1 -50.9 Q-19.6 -50.4 -20.3 -50.3 L-22.1 -50.65 -22.55 -50.95 -23.8 -50.05 Q-22.2 -46.85 -19.45 -44.55 L-20.15 -43.15 Q-22.15 -43.3 -23.8 -44.4 -26.8 -46.4 -26.8 -50.0 L-26.8 -51.1 -27.15 -50.85 Q-32.2 -48.4 -35.4 -52.7 -35.9 -53.35 -35.85 -54.2 -35.8 -55.35 -35.1 -56.25 M-26.45 -24.45 Q-27.75 -23.05 -28.65 -21.35 -27.0 -20.4 -28.05 -18.95 -29.6 -16.9 -32.1 -16.5 L-33.35 -16.45 -31.3 -14.1 Q-32.15 -12.75 -33.85 -13.15 -35.15 -13.5 -36.15 -14.3 -34.65 -8.5 -36.65 -8.4 -38.7 -9.8 -39.4 -12.3 -39.8 -13.55 -39.6 -14.9 -37.8 -19.4 -33.1 -21.85 L-31.05 -23.35 -30.05 -23.9 Q-27.15 -30.3 -20.9 -33.55 L-19.3 -32.7 Q-22.25 -29.05 -24.05 -23.9 -25.9 -25.0 -26.45 -24.45" fill="#666666" fill-rule="evenodd" stroke="none"/>
    <path d="M11.3 -50.6 L12.75 -48.75 Q16.2 -47.85 19.1 -45.8 L19.1 -44.3 22.05 -41.9 22.25 -40.85 Q20.1 -41.45 18.65 -43.15 L18.05 -43.8 17.95 -45.15 13.05 -48.25 14.1 -46.25 13.85 -44.65 13.2 -44.4 13.45 -45.9 Q11.9 -49.1 9.05 -51.1 6.4 -53.0 3.3 -53.6 6.6 -53.8 9.45 -52.0 L11.3 -50.6 M30.65 -37.9 L30.2 -38.0 30.9 -40.3 29.5 -44.45 Q32.55 -41.85 30.9 -38.3 L30.65 -37.9 M7.85 -38.45 Q10.3 -38.45 11.3 -36.15 L11.45 -35.85 7.45 -38.45 7.85 -38.45 M28.35 -14.25 Q28.0 -17.8 25.55 -20.25 L26.1 -20.5 Q28.75 -18.35 28.45 -14.9 L28.35 -14.25 M28.95 -2.1 Q28.95 -2.75 29.1 -3.2 L29.4 -3.65 29.75 -3.2 29.85 -2.1 29.75 -1.0 29.4 -0.55 29.1 -1.0 Q28.95 -1.5 28.95 -2.1 M-19.35 -43.4 L-19.6 -43.15 Q-20.9 -42.05 -22.55 -41.85 L-23.1 -41.8 Q-21.8 -39.25 -23.35 -36.75 L-23.95 -36.75 -24.3 -41.8 -27.95 -40.4 Q-28.3 -38.2 -30.15 -36.95 L-30.8 -37.25 Q-27.3 -44.05 -19.7 -43.8 L-19.35 -43.4 M-33.35 -27.85 L-32.35 -29.7 -31.0 -29.3 -32.9 -28.6 -32.45 -28.65 Q-29.8 -28.45 -28.75 -26.0 L-28.6 -25.7 -29.45 -25.5 -30.9 -27.45 -33.35 -27.85 M-34.7 -24.85 L-33.9 -23.45 -35.2 -24.45 -33.7 -27.2 -34.7 -24.85 M-8.65 -8.05 Q-5.3 -10.45 -1.25 -9.35 L-1.55 -9.35 -0.75 -9.0 Q11.65 -2.95 7.4 9.95 8.4 -7.9 -8.65 -8.05" fill="#f1f2ff" fill-rule="evenodd" stroke="none"/>
    <path d="M7.65 -60.15 L7.4 -59.65 6.7 -59.45 6.0 -59.65 Q5.7 -59.85 5.7 -60.15 5.7 -60.5 6.0 -60.7 L6.7 -60.95 7.4 -60.7 7.65 -60.15 M1.3 -57.4 Q1.65 -56.95 1.65 -56.35 1.65 -55.8 1.3 -55.4 0.85 -55.0 0.3 -55.0 -0.3 -55.0 -0.7 -55.4 -1.1 -55.8 -1.1 -56.35 -1.1 -56.95 -0.7 -57.4 -0.3 -57.8 0.3 -57.75 L1.3 -57.4 M37.65 -47.9 Q37.65 -47.55 37.3 -47.25 L36.5 -46.95 35.6 -47.25 Q35.25 -47.55 35.25 -47.9 35.25 -48.3 35.6 -48.55 L36.5 -48.85 37.3 -48.55 Q37.65 -48.3 37.65 -47.9 M23.65 -16.45 L23.95 -15.75 23.65 -15.05 Q23.4 -14.8 23.0 -14.8 22.6 -14.8 22.3 -15.05 22.0 -15.35 22.05 -15.75 22.0 -16.15 22.3 -16.45 22.6 -16.75 23.0 -16.7 23.4 -16.75 23.65 -16.45 M38.5 -0.5 L38.2 0.2 37.55 0.5 Q37.15 0.5 36.85 0.2 36.55 -0.1 36.6 -0.5 36.55 -0.9 36.85 -1.15 L37.55 -1.4 38.2 -1.15 38.5 -0.5 M41.25 -16.45 L41.1 -16.75 41.25 -17.0 41.55 -17.15 41.9 -17.0 42.0 -16.75 41.9 -16.45 Q41.75 -16.3 41.55 -16.3 41.35 -16.3 41.25 -16.45 M-7.0 -64.4 L-7.25 -63.75 Q-7.5 -63.5 -7.9 -63.5 L-8.5 -63.75 -8.8 -64.4 -8.5 -64.95 -7.9 -65.25 Q-7.5 -65.25 -7.25 -64.95 L-7.0 -64.4 M-8.35 -60.0 L-7.9 -60.15 -7.4 -60.0 -7.2 -59.55 -7.4 -59.1 -7.9 -58.9 Q-8.15 -58.9 -8.35 -59.1 L-8.5 -59.55 -8.35 -60.0 M-42.85 -50.7 L-42.5 -50.6 -42.35 -50.3 -42.5 -50.05 -42.85 -49.95 -43.2 -50.05 -43.4 -50.3 -43.2 -50.6 -42.85 -50.7 M-48.05 -25.25 L-48.25 -25.85 -48.05 -26.4 -47.45 -26.65 -46.9 -26.4 Q-46.65 -26.2 -46.65 -25.85 -46.65 -25.5 -46.9 -25.25 L-47.45 -25.05 -48.05 -25.25 M-38.1 -32.15 L-37.85 -31.6 -38.1 -31.05 Q-38.35 -30.85 -38.6 -30.8 L-39.15 -31.05 -39.4 -31.6 -39.15 -32.15 -38.6 -32.35 -38.1 -32.15 M-38.9 -7.9 L-38.6 -8.6 -37.95 -8.9 Q-37.5 -8.9 -37.2 -8.6 -36.9 -8.3 -36.9 -7.9 -36.9 -7.45 -37.2 -7.15 -37.5 -6.9 -37.95 -6.9 L-38.6 -7.15 Q-38.9 -7.45 -38.9 -7.9 M-3.95 7.85 L-3.75 8.35 -3.95 8.9 -4.5 9.15 -5.0 8.9 -5.25 8.35 -5.0 7.85 Q-4.8 7.6 -4.5 7.65 -4.2 7.6 -3.95 7.85 M-36.05 3.35 Q-35.7 3.35 -35.5 3.6 -35.25 3.8 -35.25 4.15 L-35.5 4.75 Q-35.7 4.95 -36.05 4.95 -36.4 4.95 -36.6 4.75 L-36.85 4.15 -36.6 3.6 Q-36.4 3.35 -36.05 3.35" fill="#ffffff" fill-rule="evenodd" stroke="none"/>
  </g>
</svg>
