<?xml version="1.0" encoding="UTF-8" standalone="no"?>
<svg xmlns:xlink="http://www.w3.org/1999/xlink" height="228.7px" width="214.65px" xmlns="http://www.w3.org/2000/svg">
  <g transform="matrix(1.0, 0.0, 0.0, 1.0, 110.5, 241.1)">
    <path d="M81.95 -105.95 L82.15 -105.55 82.35 -105.95 81.95 -105.95 M20.25 -241.1 L30.7 -235.65 Q36.45 -228.55 34.4 -219.85 33.45 -215.8 31.1 -212.5 38.3 -210.2 43.3 -204.7 45.7 -202.0 46.95 -198.65 53.8 -179.75 54.05 -159.7 54.15 -152.6 53.3 -145.6 51.9 -134.0 42.65 -126.55 37.85 -122.7 31.95 -121.15 34.55 -115.65 34.05 -109.6 33.6 -103.65 29.9 -98.75 42.5 -101.4 53.6 -108.0 60.2 -111.95 65.85 -117.25 L67.45 -116.05 66.65 -113.65 Q62.85 -103.05 55.8 -94.35 51.1 -88.55 45.05 -83.85 L48.6 -82.8 Q52.85 -81.65 57.1 -82.7 L58.8 -83.3 60.95 -81.2 51.6 -78.6 Q37.6 -74.7 22.8 -74.3 L27.15 -70.5 Q26.3 -65.0 22.7 -60.9 16.0 -53.45 5.65 -52.6 -2.4 -52.25 -8.65 -47.5 -14.7 -42.95 -14.45 -35.45 -14.4 -33.9 -13.5 -32.6 -6.2 -21.95 7.15 -20.7 14.35 -19.95 21.05 -22.25 L23.0 -24.75 21.1 -24.0 24.5 -25.95 Q39.45 -34.35 50.15 -47.85 54.9 -53.9 58.25 -60.55 69.35 -82.8 77.95 -106.0 83.4 -120.7 87.7 -135.65 93.9 -157.05 104.15 -176.9 103.55 -168.1 102.05 -159.4 99.1 -142.2 92.9 -125.85 L89.5 -117.85 Q82.2 -102.35 77.8 -86.0 74.1 -72.3 73.3 -58.1 63.8 -48.2 60.6 -34.85 58.95 -28.0 60.8 -21.4 61.75 -17.95 65.1 -16.55 68.8 -14.9 72.45 -16.5 67.7 -13.15 62.1 -14.4 L53.1 -15.9 Q42.45 -16.2 32.15 -18.65 20.0 -12.5 6.6 -12.4 L1.8 -12.85 -20.95 -15.45 Q-43.9 -18.65 -67.2 -18.45 L-62.3 -22.25 -64.35 -28.25 -69.95 -29.1 Q-73.15 -34.15 -77.65 -38.2 -80.4 -40.65 -83.5 -42.6 -83.8 -46.95 -85.4 -50.95 -87.9 -57.2 -93.15 -61.4 L-101.3 -67.85 Q-107.15 -72.55 -109.4 -79.8 L-107.9 -80.75 Q-103.5 -83.65 -98.25 -84.65 L-96.55 -85.0 -93.45 -78.25 Q-88.6 -68.35 -79.95 -61.6 L-78.4 -70.15 Q-77.65 -74.45 -77.45 -78.95 -77.1 -86.8 -73.35 -93.85 L-77.45 -100.3 -87.4 -104.0 -86.75 -105.8 Q-85.25 -110.35 -86.35 -115.0 L-87.4 -118.75 Q-94.0 -122.0 -98.95 -127.45 -104.65 -133.75 -107.2 -141.8 L-109.6 -142.8 Q-111.45 -148.15 -109.45 -153.45 -108.2 -156.9 -105.65 -159.6 L-103.5 -159.8 Q-95.5 -160.6 -88.3 -157.25 -79.9 -153.35 -74.75 -145.6 -71.35 -140.4 -70.8 -134.3 -62.2 -128.9 -55.55 -121.25 -52.95 -118.25 -51.0 -114.8 -48.7 -110.7 -44.4 -108.9 -40.9 -107.4 -37.75 -109.35 L-37.3 -119.5 -35.5 -122.0 -16.8 -121.05 -16.35 -122.55 -15.2 -123.4 -14.8 -124.7 -12.55 -125.3 Q-7.3 -127.0 -5.25 -132.0 -1.75 -140.65 -4.25 -149.9 L-5.8 -156.55 Q-6.75 -161.25 -4.1 -165.3 -4.9 -171.3 -4.55 -177.15 -3.7 -191.75 4.3 -203.95 9.6 -212.0 17.0 -218.55 L17.3 -219.85 Q15.2 -225.15 16.05 -230.8 16.9 -236.5 20.25 -241.1" fill="#666666" fill-rule="evenodd" stroke="none"/>
  </g>
</svg>
