<?xml version="1.0" encoding="UTF-8" standalone="no"?>
<svg xmlns:xlink="http://www.w3.org/1999/xlink" height="237.4px" width="232.55px" xmlns="http://www.w3.org/2000/svg">
  <g transform="matrix(1.0, 0.0, 0.0, 1.0, 113.3, 250.05)">
    <path d="M15.4 -249.05 L25.5 -250.05 Q36.35 -250.05 45.25 -244.0 47.75 -242.25 49.2 -239.45 51.6 -234.75 50.95 -229.5 50.2 -223.5 45.15 -220.25 L45.15 -218.55 Q53.2 -210.5 56.5 -199.65 57.65 -195.85 58.15 -191.75 59.05 -184.35 57.5 -177.2 54.6 -163.65 44.05 -154.8 L45.4 -151.6 Q52.5 -134.2 46.0 -116.5 L26.15 -108.8 29.3 -105.5 Q33.9 -101.1 40.1 -100.85 50.5 -100.35 56.45 -108.8 L61.65 -109.2 Q65.9 -107.15 68.75 -103.4 75.1 -95.05 72.0 -85.25 L70.2 -84.3 69.4 -83.0 63.2 -80.5 54.6 -84.55 40.65 -74.0 40.1 -71.5 45.2 -61.0 43.3 -59.55 Q33.45 -52.55 21.5 -54.85 L20.45 -51.65 Q19.6 -49.35 17.7 -48.1 4.85 -39.65 -9.0 -47.0 L-28.15 -40.5 -28.65 -37.95 Q-29.15 -35.2 -28.4 -32.35 -27.6 -29.2 -25.2 -27.0 -16.3 -18.85 -4.3 -18.6 L-3.8 -17.8 Q7.2 -14.65 18.65 -15.9 23.25 -16.35 27.6 -17.35 34.35 -19.1 39.9 -23.2 65.3 -42.15 82.6 -68.95 88.05 -70.35 89.95 -75.75 92.4 -82.9 92.85 -90.5 93.65 -103.2 92.05 -115.8 91.1 -123.5 89.45 -131.0 82.8 -160.65 92.4 -189.35 L90.65 -195.5 Q98.4 -172.85 100.65 -149.1 102.95 -124.3 116.75 -103.6 118.0 -101.75 118.45 -99.65 119.25 -96.15 119.25 -92.55 119.25 -87.25 117.0 -82.6 112.95 -74.45 104.7 -70.65 100.0 -59.1 91.5 -49.85 84.9 -42.6 78.0 -35.7 74.9 -32.55 74.3 -28.2 74.1 -26.75 74.4 -25.4 75.75 -18.8 82.7 -18.8 L75.65 -18.35 77.55 -14.55 63.6 -15.45 54.35 -14.95 Q31.7 -12.1 8.9 -13.35 L8.55 -14.05 Q-10.75 -14.05 -30.05 -13.2 -58.5 -11.05 -86.5 -16.95 L-82.8 -22.35 -77.85 -23.15 -76.0 -25.45 -76.4 -28.0 -80.95 -30.95 Q-79.45 -40.6 -85.15 -48.55 -87.1 -47.3 -89.3 -46.6 -95.95 -44.6 -102.0 -48.15 -112.6 -54.35 -112.2 -66.7 L-104.95 -68.8 -105.05 -71.75 -106.0 -73.05 -106.0 -75.55 -104.15 -78.4 Q-86.65 -74.15 -74.7 -60.45 -75.15 -65.65 -73.75 -70.55 L-71.9 -76.5 Q-69.35 -84.1 -75.05 -90.35 -74.15 -98.0 -77.45 -104.85 -84.7 -119.85 -100.55 -124.55 -112.35 -139.85 -112.05 -159.15 L-113.3 -158.6 -98.8 -167.75 Q-94.15 -161.3 -87.2 -157.6 L-77.45 -160.45 -73.05 -156.2 Q-68.85 -152.0 -65.8 -147.1 -56.85 -132.9 -57.95 -116.25 L-48.85 -117.05 Q-49.55 -121.1 -48.55 -124.8 -46.45 -132.35 -39.45 -135.95 L-34.15 -131.35 Q-30.25 -128.15 -25.35 -126.5 -19.15 -124.55 -12.75 -124.8 -2.25 -125.75 4.55 -133.85 4.05 -157.1 -2.4 -179.45 10.15 -188.05 24.35 -192.55 L24.3 -194.5 Q24.1 -199.05 20.8 -202.25 L19.7 -202.45 Q17.1 -203.2 15.05 -204.85 11.7 -207.35 11.35 -211.55 9.75 -230.7 15.4 -249.05" fill="#666666" fill-rule="evenodd" stroke="none"/>
  </g>
</svg>
