<?xml version="1.0" encoding="UTF-8" standalone="no"?>
<svg xmlns:xlink="http://www.w3.org/1999/xlink" height="92.35px" width="109.45px" xmlns="http://www.w3.org/2000/svg">
  <g transform="matrix(1.0, 0.0, 0.0, 1.0, 62.4, 77.9)">
    <path d="M13.9 -51.7 Q13.1 -54.5 14.05 -57.25 14.3 -58.15 15.2 -58.5 L19.65 -58.3 Q26.55 -55.05 28.8 -47.8 30.0 -43.85 29.9 -39.6 31.7 -39.1 33.0 -37.8 34.75 -36.05 35.5 -33.6 36.55 -29.75 36.5 -25.8 36.0 -30.1 33.3 -33.55 30.55 -37.05 26.3 -38.35 L23.9 -38.95 Q25.3 -38.8 26.35 -39.85 27.6 -41.1 27.55 -42.8 L27.35 -44.2 Q24.35 -46.05 22.3 -48.9 L21.4 -49.85 Q19.15 -51.8 16.15 -51.9 L13.9 -51.7 M-37.4 -19.2 L-41.0 -25.5 -41.5 -16.9 Q-42.5 -19.2 -42.85 -21.65 -43.25 -24.2 -42.85 -26.75 -42.55 -29.45 -41.7 -31.95 -40.55 -35.35 -38.0 -37.45 L-36.1 -38.85 Q-34.8 -39.5 -33.35 -39.65 L-28.7 -39.5 -24.95 -35.1 -24.3 -36.4 -25.45 -38.05 Q-26.95 -40.35 -29.45 -41.4 L-30.8 -42.1 Q-34.75 -44.15 -35.7 -48.55 -36.35 -51.6 -34.7 -54.1 -34.15 -55.0 -33.25 -55.45 -30.55 -56.9 -27.4 -56.35 L-19.6 -54.5 Q-15.5 -53.3 -11.55 -51.65 -7.8 -50.1 -4.55 -47.65 L-5.95 -47.15 -6.75 -46.1 -6.75 -46.35 -8.95 -48.0 Q-13.4 -50.7 -18.5 -49.95 -23.2 -49.3 -26.45 -45.9 L-27.05 -45.25 -26.0 -43.4 Q-22.85 -42.5 -19.55 -42.45 L-18.6 -42.45 -23.1 -40.8 Q-22.2 -38.5 -22.3 -36.05 -22.35 -34.9 -23.15 -33.9 L-23.35 -33.65 -24.8 -33.9 Q-29.6 -34.5 -34.05 -32.6 L-34.7 -32.35 Q-35.7 -29.05 -35.1 -25.6 -34.7 -23.1 -32.4 -22.2 L-31.95 -22.05 -31.55 -22.55 -30.25 -22.55 -32.1 -19.4 -37.4 -19.2 M-61.2 -38.9 L-62.4 -40.05 Q-62.3 -44.15 -59.05 -46.95 -55.9 -49.7 -54.0 -49.8 L-53.9 -49.8 -53.75 -49.85 -48.6 -50.1 Q-46.25 -49.5 -44.7 -47.65 L-45.0 -44.5 -48.4 -47.95 -52.4 -48.05 Q-55.1 -47.75 -58.55 -43.75 -62.0 -39.8 -61.2 -38.9" fill="#bfbfbf" fill-rule="evenodd" stroke="none"/>
    <path d="M13.9 -51.7 L16.15 -51.9 Q19.15 -51.8 21.4 -49.85 L22.3 -48.9 Q24.35 -46.05 27.35 -44.2 L27.55 -42.8 Q27.6 -41.1 26.35 -39.85 25.3 -38.8 23.9 -38.95 L26.3 -38.35 Q30.55 -37.05 33.3 -33.55 36.0 -30.1 36.5 -25.8 37.25 -19.35 36.65 -12.95 36.25 -9.25 34.0 -6.35 32.65 -4.7 30.85 -3.7 29.7 -3.05 28.4 -2.7 26.5 -2.3 25.4 -3.95 25.9 -4.3 26.55 -4.4 L28.95 -4.25 30.25 -6.8 Q31.35 -9.25 32.1 -11.85 33.4 -16.5 32.8 -21.25 L32.55 -22.0 31.6 -23.55 27.4 -29.15 Q24.9 -32.45 21.6 -34.9 L17.35 -37.5 Q12.5 -39.85 8.15 -43.05 7.2 -42.55 6.15 -42.35 L1.95 -42.55 Q-2.2 -43.65 -6.25 -42.35 -7.85 -38.9 -10.95 -36.7 -13.2 -35.05 -15.8 -34.0 L-16.4 -33.65 Q-20.9 -29.5 -25.9 -25.95 L-28.9 -17.7 Q-28.55 -13.15 -27.1 -8.85 -26.15 -6.05 -25.6 -3.15 -25.1 -0.1 -26.75 2.45 L-27.6 2.45 -28.9 0.1 Q-30.0 -1.9 -30.6 -4.05 L-33.5 -13.4 -37.4 -19.2 -32.1 -19.4 -30.25 -22.55 -31.55 -22.55 -31.95 -22.05 -32.4 -22.2 Q-34.7 -23.1 -35.1 -25.6 -35.7 -29.05 -34.7 -32.35 L-34.05 -32.6 Q-29.6 -34.5 -24.8 -33.9 L-23.35 -33.65 -23.15 -33.9 Q-22.35 -34.9 -22.3 -36.05 -22.2 -38.5 -23.1 -40.8 L-18.6 -42.45 -19.55 -42.45 Q-22.85 -42.5 -26.0 -43.4 L-27.05 -45.25 -26.45 -45.9 Q-23.2 -49.3 -18.5 -49.95 -13.4 -50.7 -8.95 -48.0 L-6.75 -46.35 -6.75 -46.1 -5.95 -47.15 -4.55 -47.65 Q-3.1 -46.4 -2.85 -44.45 L2.45 -44.8 10.1 -44.45 11.05 -46.4 11.75 -47.15 Q14.0 -48.95 13.9 -51.7 M-12.8 -74.3 L-13.75 -75.3 -18.8 -74.95 -21.2 -70.25 -22.5 -70.75 Q-22.45 -73.95 -20.05 -76.05 -17.9 -78.0 -14.95 -77.9 -10.2 -77.8 -8.35 -73.45 -7.55 -71.4 -7.75 -69.2 L-8.0 -67.95 Q-9.15 -68.2 -10.05 -69.0 -11.05 -69.9 -11.2 -71.2 -11.5 -73.0 -12.8 -74.3 M6.25 -7.35 Q6.15 -12.3 3.6 -16.5 2.35 -18.65 0.0 -19.2 -2.0 -19.7 -3.55 -18.4 L-4.3 -17.6 Q-6.3 -14.25 -6.7 -10.25 L-7.0 -11.1 Q-9.25 -16.95 -6.4 -22.4 L-5.25 -22.55 Q-1.3 -22.85 2.45 -21.7 5.5 -20.75 6.85 -17.95 7.9 -15.3 8.4 -12.5 L9.0 -9.35 Q9.4 -6.55 8.5 -3.9 L9.45 -1.2 Q11.15 3.75 10.15 8.9 9.55 11.7 7.95 14.05 7.5 14.7 6.75 14.3 L6.7 13.6 Q6.25 9.05 2.65 6.2 1.05 6.6 -0.4 5.9 L-0.3 5.1 0.6 4.9 Q4.2 4.7 6.75 7.5 L7.05 6.75 Q8.75 1.8 7.05 -3.1 L6.1 -3.6 6.25 -7.35 M37.9 -38.7 Q37.2 -41.2 39.15 -43.0 L44.85 -43.65 Q47.45 -41.2 46.95 -37.65 46.65 -35.9 45.1 -35.2 L44.35 -35.85 44.45 -36.3 Q44.65 -37.95 43.85 -39.35 L42.7 -40.55 42.45 -38.25 41.6 -36.05 Q38.7 -35.8 37.9 -38.7 M34.0 -66.3 L33.65 -67.15 Q33.45 -69.35 32.15 -71.05 L31.2 -69.9 31.1 -69.25 Q30.65 -67.55 29.05 -66.9 L28.65 -67.15 28.5 -67.65 28.7 -67.95 Q29.65 -69.55 30.2 -71.35 L31.65 -73.0 Q33.75 -71.9 34.9 -69.85 L35.65 -68.15 Q36.25 -66.45 34.7 -65.65 L34.0 -66.3 M-61.2 -38.9 Q-62.0 -39.8 -58.55 -43.75 -55.1 -47.75 -52.4 -48.05 L-48.4 -47.95 -45.0 -44.5 -44.7 -47.65 Q-42.5 -43.9 -44.55 -40.1 L-47.35 -40.2 Q-50.5 -41.35 -50.55 -44.65 L-51.6 -45.45 Q-54.9 -45.5 -56.15 -42.55 L-56.35 -41.7 Q-56.5 -38.85 -57.2 -36.05 L-57.65 -36.05 Q-60.45 -36.2 -61.2 -38.9" fill="#999999" fill-rule="evenodd" stroke="none"/>
    <path d="M-40.6 -27.5 L-40.8 -27.55 Q-45.85 -34.05 -38.5 -39.25 -34.55 -40.4 -30.45 -40.65 -23.1 -41.3 -24.15 -34.6 L-28.2 -36.7 -36.4 -35.4 -39.3 -26.0 -40.25 -25.95 -40.6 -27.5 M-27.9 -58.35 Q-22.4 -57.15 -17.5 -54.25 -25.15 -55.6 -32.75 -53.6 -34.55 -50.5 -32.9 -45.65 L-35.3 -49.35 -35.7 -50.4 Q-36.6 -58.05 -27.9 -58.35 M6.7 -21.25 Q7.7 -19.95 8.15 -18.4 8.8 -16.1 7.5 -14.05 5.35 -21.5 -0.2 -22.05 L-5.0 -21.2 -6.75 -16.15 Q-7.9 -16.05 -8.2 -17.15 -8.9 -19.35 -7.5 -21.05 -1.0 -29.05 6.7 -21.25 M15.25 -59.35 Q23.85 -61.45 27.7 -54.1 30.75 -48.25 26.3 -47.9 L25.95 -49.95 Q23.6 -59.0 13.75 -57.4 L14.05 -58.4 15.25 -59.35" fill="#666666" fill-rule="evenodd" stroke="none"/>
  </g>
</svg>
