<?xml version="1.0" encoding="UTF-8" standalone="no"?>
<svg xmlns:xlink="http://www.w3.org/1999/xlink" height="237.4px" width="250.35px" xmlns="http://www.w3.org/2000/svg">
  <g transform="matrix(1.0, 0.0, 0.0, 1.0, 125.15, 249.35)">
    <path d="M101.75 -151.5 L102.1 -152.15 99.9 -156.9 103.3 -159.3 105.45 -156.85 Q112.8 -148.1 116.0 -137.2 118.4 -128.9 118.35 -120.3 118.3 -115.15 117.15 -110.1 121.5 -105.95 123.3 -100.2 124.65 -95.85 124.1 -91.6 123.85 -89.5 122.7 -87.5 L123.45 -85.4 Q124.8 -81.3 123.65 -77.25 L123.1 -75.4 122.7 -74.55 121.15 -72.0 Q123.3 -67.6 124.35 -62.7 126.4 -52.95 123.4 -43.45 122.15 -39.45 119.35 -36.1 L115.2 -31.55 Q115.55 -28.15 114.3 -24.9 113.45 -22.65 112.05 -20.95 108.2 -16.3 102.2 -14.65 95.85 -12.9 89.1 -13.25 85.05 -13.5 81.05 -14.5 L80.25 -13.8 Q78.65 -12.45 76.65 -12.05 72.9 -11.55 69.8 -13.55 68.0 -14.6 67.05 -16.2 65.4 -18.9 64.75 -22.1 80.8 -24.4 94.95 -32.4 101.15 -35.85 106.2 -40.7 109.8 -44.25 110.35 -49.35 111.55 -60.6 111.8 -71.6 112.0 -80.0 114.2 -87.9 108.2 -98.85 109.1 -111.2 109.35 -114.8 108.6 -118.3 104.95 -134.85 101.75 -151.5 M28.9 -246.4 L29.85 -246.45 Q39.45 -239.3 37.3 -227.45 40.25 -226.55 43.0 -225.25 51.85 -221.35 56.65 -212.9 60.8 -205.6 60.45 -197.1 60.2 -190.95 58.9 -185.05 55.2 -168.15 56.9 -151.05 59.5 -125.5 44.6 -104.4 L56.45 -103.95 56.8 -104.95 Q63.1 -106.5 69.5 -105.25 75.6 -103.95 80.75 -100.3 86.7 -96.15 87.6 -89.3 86.3 -85.95 84.45 -82.8 77.8 -71.5 66.1 -65.65 L61.65 -63.4 Q46.05 -55.7 28.85 -52.6 L33.35 -47.15 Q31.95 -40.7 25.55 -38.65 7.0 -33.05 -7.05 -46.4 L-31.95 -44.05 -40.95 -26.7 -13.55 -16.6 -83.1 -16.55 -83.9 -18.0 Q-100.05 -18.7 -107.0 -33.6 -105.3 -33.95 -104.35 -35.3 -100.65 -40.8 -105.45 -46.15 -115.6 -43.4 -121.85 -51.8 -128.1 -60.3 -122.6 -69.6 -99.15 -71.55 -80.65 -86.1 -79.05 -99.2 -88.0 -108.9 L-105.35 -107.65 Q-114.95 -115.3 -115.25 -127.4 -105.7 -136.85 -101.9 -149.9 L-80.95 -145.5 -73.9 -125.95 -68.4 -125.55 Q-58.25 -118.2 -56.6 -105.95 L-41.15 -109.35 -36.75 -124.55 Q-22.35 -120.05 -10.55 -129.9 L-13.15 -137.55 -36.45 -140.15 -35.9 -144.45 Q-35.5 -146.4 -34.35 -147.95 -26.85 -158.55 -13.6 -157.15 -9.95 -156.8 -6.6 -154.95 5.9 -148.25 18.55 -154.35 27.4 -175.5 24.95 -198.2 10.05 -203.4 7.6 -218.9 L9.5 -219.05 9.8 -218.35 10.55 -222.25 6.3 -227.7 Q5.6 -237.05 11.45 -244.25 17.15 -251.25 25.2 -248.6 L28.9 -246.4" fill="#666666" fill-rule="evenodd" stroke="none"/>
  </g>
</svg>
