<?xml version="1.0" encoding="UTF-8" standalone="no"?>
<svg xmlns:xlink="http://www.w3.org/1999/xlink" height="246.0px" width="280.65px" xmlns="http://www.w3.org/2000/svg">
  <g transform="matrix(1.0, 0.0, 0.0, 1.0, 136.15, 246.7)">
    <path d="M77.1 -89.1 L74.5 -86.1 Q75.05 -81.55 78.25 -78.25 81.75 -74.65 86.65 -74.65 93.05 -74.7 93.85 -81.2 L92.05 -82.75 Q85.7 -88.45 77.1 -89.1 M126.85 -132.65 L127.3 -133.65 132.45 -136.55 129.8 -144.15 Q135.45 -133.6 139.05 -122.3 144.25 -106.0 144.5 -88.85 144.6 -80.45 143.0 -72.1 141.6 -65.0 138.5 -58.1 135.75 -51.95 131.7 -46.95 132.95 -40.5 132.0 -33.95 130.9 -26.15 126.75 -19.5 123.8 -14.65 119.25 -11.35 114.35 -7.9 108.4 -6.65 L98.6 -6.95 104.5 -12.7 Q111.2 -19.4 115.8 -27.7 119.65 -34.75 120.75 -42.55 L106.8 -26.6 105.15 -27.25 104.75 -27.5 104.5 -27.75 104.3 -28.1 103.05 -31.75 109.05 -37.85 Q117.55 -46.95 122.4 -58.5 127.0 -69.4 128.75 -81.1 130.45 -92.85 129.9 -104.75 129.3 -118.8 126.85 -132.65 M26.9 -204.0 L21.5 -203.5 21.65 -199.4 Q21.75 -190.5 16.75 -183.25 L12.2 -184.5 Q7.75 -185.9 4.7 -189.5 2.5 -191.95 1.3 -195.1 0.25 -197.8 0.3 -200.3 0.8 -218.5 12.9 -232.3 26.85 -248.05 47.9 -246.6 65.1 -245.3 78.0 -234.35 L79.4 -233.0 Q82.35 -229.85 84.7 -226.55 87.0 -223.35 86.5 -219.2 84.85 -204.5 78.0 -191.4 81.15 -186.5 81.9 -180.8 L82.05 -178.0 Q82.0 -170.9 78.25 -164.9 71.7 -154.45 59.95 -150.15 L67.0 -125.25 Q57.25 -123.5 48.65 -118.7 L53.45 -106.8 Q80.35 -104.85 106.65 -99.75 L107.5 -98.95 107.9 -72.25 106.6 -78.45 106.6 -76.7 106.05 -73.55 Q105.3 -70.85 103.2 -69.15 90.6 -59.0 74.35 -57.4 L78.25 -56.55 Q61.85 -51.3 57.5 -34.55 L54.85 -33.65 Q34.6 -27.75 13.5 -29.95 L-3.8 -19.8 Q-2.2 -18.85 -0.45 -18.05 2.9 -16.4 6.5 -15.7 11.85 -14.6 13.5 -9.9 L10.1 -2.4 2.4 -4.1 -0.6 -0.7 Q-16.5 -1.5 -30.3 -9.3 -35.4 -4.8 -42.35 -4.4 L-43.65 -4.3 -47.65 -4.9 Q-49.85 -5.35 -51.9 -6.6 -60.6 -11.8 -58.0 -21.55 L-62.9 -22.55 Q-74.35 -23.9 -79.8 -13.65 L-78.75 -11.85 -77.35 -11.6 -77.05 -10.0 -77.8 -8.05 -79.25 -9.0 -98.95 -9.0 Q-100.45 -11.8 -100.7 -15.0 -101.0 -19.15 -98.3 -22.5 -93.0 -29.0 -92.5 -37.3 L-95.85 -38.4 -96.35 -37.8 Q-99.05 -38.55 -101.55 -39.65 -105.8 -41.55 -109.4 -44.75 L-108.25 -51.5 -75.6 -74.85 Q-75.0 -96.45 -80.75 -117.45 -93.95 -121.45 -106.85 -116.55 L-106.7 -109.0 -104.75 -110.3 Q-100.1 -109.05 -96.3 -105.9 L-95.15 -104.9 Q-91.7 -101.8 -89.8 -97.65 -86.55 -90.5 -90.5 -83.85 L-87.65 -77.55 Q-91.2 -72.5 -96.1 -68.95 -105.7 -62.1 -117.45 -61.85 L-118.8 -70.4 -123.9 -74.7 Q-121.15 -86.05 -128.6 -94.85 -133.3 -100.45 -135.1 -107.6 -137.8 -118.5 -133.45 -128.75 L-132.7 -130.05 Q-129.35 -134.9 -123.9 -137.35 -103.9 -146.0 -82.7 -139.6 L-86.0 -139.95 -81.5 -137.5 Q-80.65 -132.1 -78.7 -127.15 -73.1 -112.6 -59.55 -104.55 -28.1 -118.25 5.35 -125.55 L7.3 -125.7 25.6 -125.15 Q38.9 -126.8 49.95 -134.4 50.05 -136.55 49.35 -138.65 48.35 -141.65 46.1 -143.6 38.15 -150.2 27.45 -150.6 L58.7 -186.1 58.05 -188.3 57.1 -188.25 53.15 -192.7 47.5 -193.3 Q35.05 -194.55 26.9 -204.0" fill="#666666" fill-rule="evenodd" stroke="none"/>
  </g>
</svg>
