<?xml version="1.0" encoding="UTF-8" standalone="no"?>
<svg xmlns:xlink="http://www.w3.org/1999/xlink" height="86.1px" width="102.4px" xmlns="http://www.w3.org/2000/svg">
  <g transform="matrix(1.0, 0.0, 0.0, 1.0, 57.7, 85.15)">
    <path d="M33.05 -76.65 L34.1 -76.1 Q35.3 -75.3 36.1 -74.1 L36.65 -72.95 36.95 -72.15 37.2 -70.45 35.85 -70.55 33.6 -74.8 32.55 -75.3 29.25 -74.3 29.05 -75.15 33.05 -76.65 M27.35 -59.0 Q27.35 -50.4 31.25 -42.8 34.8 -35.8 31.05 -29.15 28.9 -40.2 22.0 -49.1 L20.55 -49.6 Q19.5 -50.05 18.65 -50.75 16.5 -52.7 13.8 -52.7 L13.55 -52.9 13.7 -52.7 13.6 -52.7 13.55 -52.9 Q12.2 -54.9 12.25 -57.3 12.3 -60.45 14.05 -63.15 L14.7 -64.3 Q16.7 -64.7 18.75 -64.25 20.7 -63.8 22.3 -62.55 L23.45 -61.65 23.15 -59.8 21.85 -59.3 20.0 -56.1 25.8 -56.65 27.35 -59.0 M-14.65 -85.05 Q-10.05 -84.3 -9.7 -79.85 L-10.3 -79.75 Q-12.6 -79.45 -14.1 -81.2 L-20.55 -82.2 -21.05 -80.55 -22.0 -80.65 -22.45 -81.5 Q-19.7 -85.85 -14.65 -85.05 M8.5 -2.75 L7.15 -5.1 2.0 -6.55 1.75 -7.5 4.65 -8.4 9.1 -6.45 8.4 -8.85 9.0 -9.8 9.85 -7.95 10.3 -5.95 Q12.2 -2.5 9.25 0.15 L8.6 0.65 7.85 0.9 6.75 0.75 8.5 -2.75 M3.9 -31.5 L4.85 -30.6 Q8.6 -24.45 6.25 -17.35 3.65 -23.35 -1.05 -27.8 -2.7 -28.3 -4.0 -27.2 -5.35 -26.15 -6.85 -25.55 -7.35 -26.0 -7.2 -27.0 -6.75 -29.7 -4.55 -31.25 -0.4 -34.25 3.9 -31.5 M39.2 -43.0 L38.85 -43.75 Q37.35 -46.85 39.5 -49.5 L41.6 -49.35 44.7 -46.4 43.95 -45.35 41.9 -46.75 40.3 -43.3 39.2 -43.0 M-27.0 -47.5 Q-28.9 -52.1 -26.15 -56.25 -24.5 -58.85 -21.65 -59.85 -16.15 -61.8 -13.4 -56.95 L-12.7 -57.95 Q-11.6 -59.4 -10.15 -60.35 -6.0 -63.35 -1.55 -60.5 L-4.65 -46.75 -8.35 -56.0 Q-8.2 -51.1 -11.85 -47.75 -15.15 -44.8 -18.1 -48.0 L-18.55 -47.75 Q-22.75 -45.45 -27.0 -47.5 M-46.1 -63.25 Q-43.3 -58.55 -46.95 -54.65 -50.4 -51.0 -53.95 -54.7 L-52.25 -61.55 -56.3 -61.8 -57.5 -60.15 -57.6 -60.65 Q-58.15 -63.65 -55.65 -65.4 -50.6 -65.7 -46.1 -63.25 M-39.9 -25.05 L-39.65 -25.95 Q-37.95 -33.3 -31.55 -37.35 -28.3 -37.05 -26.5 -34.25 -25.5 -32.65 -25.75 -30.75 L-26.8 -30.35 -23.1 -31.0 -22.8 -33.3 Q-21.95 -29.35 -25.6 -27.9 -29.7 -26.4 -32.85 -29.45 L-34.6 -29.65 Q-36.1 -25.75 -34.75 -21.8 -33.3 -17.4 -29.9 -14.15 -28.8 -13.05 -29.3 -12.65 L-30.05 -12.6 Q-31.0 -12.6 -31.8 -13.05 -38.8 -16.95 -39.9 -25.05" fill="#999999" fill-rule="evenodd" stroke="none"/>
    <path d="M13.6 -52.7 Q9.7 -52.2 8.15 -48.25 7.05 -45.5 7.15 -42.55 5.9 -49.8 9.4 -56.15 9.8 -56.9 9.85 -57.8 L9.7 -63.6 Q9.55 -66.25 11.3 -68.15 14.55 -71.9 19.2 -70.1 26.8 -67.2 27.35 -59.0 L25.8 -56.65 20.0 -56.1 21.85 -59.3 23.15 -59.8 23.45 -61.65 22.3 -62.55 Q20.7 -63.8 18.75 -64.25 16.7 -64.7 14.7 -64.3 L14.05 -63.15 Q12.3 -60.45 12.25 -57.3 12.2 -54.9 13.55 -52.9 L13.6 -52.7 M13.8 -52.7 L13.7 -52.7 13.55 -52.9 13.8 -52.7 M-27.0 -47.5 Q-31.15 -53.75 -29.05 -60.95 -27.65 -65.8 -22.5 -65.3 -16.35 -69.45 -9.1 -67.9 -2.9 -66.55 -1.55 -60.5 -6.0 -63.35 -10.15 -60.35 -11.6 -59.4 -12.7 -57.95 L-13.4 -56.95 Q-16.15 -61.8 -21.65 -59.85 -24.5 -58.85 -26.15 -56.25 -28.9 -52.1 -27.0 -47.5 M-39.9 -25.05 Q-40.85 -31.45 -40.0 -37.8 -39.45 -41.9 -35.5 -42.95 L-35.2 -42.6 -32.05 -42.45 Q-24.35 -40.9 -22.8 -33.3 L-23.1 -31.0 -26.8 -30.35 -25.75 -30.75 Q-25.5 -32.65 -26.5 -34.25 -28.3 -37.05 -31.55 -37.35 -37.95 -33.3 -39.65 -25.95 L-39.9 -25.05" fill="#bfbfbf" fill-rule="evenodd" stroke="none"/>
    <path d="M-34.8 -43.75 L-33.6 -43.3 -33.35 -42.4 -40.45 -36.05 Q-42.2 -44.9 -34.8 -43.75 M-4.6 -65.75 Q-13.55 -68.55 -22.5 -65.3 -22.6 -65.8 -16.2 -68.8 -9.8 -71.85 -4.6 -65.75 M1.55 -34.25 Q4.45 -34.75 6.1 -27.9 2.5 -32.2 -4.6 -31.25 -3.25 -32.85 -2.35 -33.3 -1.45 -33.75 1.55 -34.25 M27.7 -63.45 Q29.2 -59.75 27.65 -56.25 L26.4 -56.95 Q25.55 -63.45 20.0 -67.55 L19.6 -68.3 20.35 -68.85 22.15 -68.4 Q26.1 -67.2 27.7 -63.45" fill="#666666" fill-rule="evenodd" stroke="none"/>
  </g>
</svg>
