<?xml version="1.0" encoding="UTF-8" standalone="no"?>
<svg xmlns:xlink="http://www.w3.org/1999/xlink" height="284.35px" width="352.45px" xmlns="http://www.w3.org/2000/svg">
  <g transform="matrix(1.0, 0.0, 0.0, 1.0, 146.5, 171.7)">
    <path d="M-92.75 53.05 L-94.55 53.3 -93.1 49.0 -92.75 53.05 M83.35 21.0 L83.9 22.8 Q85.65 29.1 81.9 34.4 L80.5 36.25 81.15 38.15 80.4 39.15 78.7 35.6 81.5 33.5 Q74.4 31.15 70.5 24.7 76.45 21.2 83.35 21.0 M186.8 -110.1 L188.75 -109.6 Q192.35 -108.35 195.2 -106.0 197.85 -103.75 199.35 -100.35 202.35 -93.75 203.95 -86.75 209.05 -64.4 201.25 -43.0 195.4 -26.85 180.45 -18.7 176.8 -19.3 174.45 -22.15 L172.5 -24.8 189.15 -38.7 Q186.05 -43.25 187.55 -48.45 188.1 -50.45 189.4 -52.05 194.5 -58.15 194.8 -65.95 195.05 -73.6 187.75 -75.55 187.95 -79.3 190.55 -81.75 L193.0 -83.65 Q193.45 -86.7 193.0 -89.7 191.5 -100.05 182.5 -105.1 L186.8 -110.1 M56.95 -62.3 L61.45 -57.9 Q73.5 -46.1 87.1 -36.3 L85.85 -33.6 91.05 -26.05 100.35 -25.75 Q103.75 -27.9 107.3 -29.8 118.75 -36.05 130.8 -41.15 137.15 -43.95 142.8 -48.15 L143.35 -52.45 138.9 -55.45 138.8 -57.1 Q138.2 -63.15 133.75 -67.25 128.95 -71.7 123.55 -75.0 114.5 -80.75 104.55 -84.6 92.4 -82.25 81.0 -77.4 70.75 -72.9 61.75 -66.2 L56.95 -62.3 M90.15 -170.1 Q90.6 -169.0 90.35 -167.9 88.15 -158.2 83.3 -149.35 L92.6 -148.95 Q112.35 -148.85 127.25 -161.75 134.35 -154.4 135.3 -144.3 136.45 -131.95 128.55 -122.4 129.55 -119.75 129.7 -117.0 130.4 -104.25 118.75 -98.55 L120.25 -98.8 Q131.0 -100.3 138.3 -92.2 141.75 -88.4 143.85 -83.55 150.7 -67.5 167.35 -62.65 168.35 -59.8 168.85 -56.95 170.9 -45.7 164.15 -36.6 163.35 -35.45 162.2 -34.95 144.05 -27.0 124.15 -28.3 113.45 -18.45 108.35 -4.95 L109.4 -3.7 Q109.25 2.65 107.5 8.6 102.3 26.55 86.85 37.15 L88.35 33.7 86.15 37.3 Q88.85 27.75 91.8 18.3 94.3 10.4 93.35 2.2 L92.1 0.7 Q87.65 -4.95 86.25 -11.95 L87.2 -13.3 87.3 -14.6 58.15 -27.85 49.15 -21.9 Q46.9 -20.35 45.0 -18.45 37.05 -10.15 26.05 -7.3 L25.3 -8.05 21.55 -7.35 Q16.8 5.55 5.35 12.95 L3.8 12.55 1.65 8.35 Q-2.05 2.1 -9.2 0.4 -17.4 5.35 -23.15 13.1 L-22.4 16.6 Q-18.35 19.25 -15.95 23.5 -14.8 25.45 -14.3 27.7 -9.7 49.25 -18.9 69.25 -17.4 71.55 -16.9 74.25 -14.8 84.75 -23.1 91.9 -37.8 104.55 -55.55 112.15 -57.95 113.15 -60.5 112.05 -65.4 109.95 -66.35 104.65 -67.4 98.5 -66.25 92.35 -64.4 82.15 -60.7 72.55 -55.8 59.8 -51.75 46.85 -46.95 31.4 -50.25 15.65 -44.7 14.1 -42.4 8.95 -41.05 5.85 -41.8 2.3 -45.05 -13.0 -42.05 -28.3 L-43.15 -30.25 Q-47.15 -36.9 -53.25 -41.5 -62.95 -48.7 -75.0 -48.95 -82.5 -49.1 -88.1 -44.3 -102.15 -32.25 -102.55 -13.35 -102.65 -9.45 -101.9 -5.6 -97.0 20.25 -93.35 46.45 L-100.8 39.25 -98.95 31.45 Q-106.25 10.2 -111.35 -11.75 -113.05 -19.1 -114.25 -26.5 -115.65 -34.85 -110.6 -41.95 L-112.75 -46.3 -112.2 -50.95 -108.45 -53.1 Q-104.65 -55.0 -100.6 -56.1 -92.45 -58.4 -87.0 -64.5 -86.5 -65.1 -86.5 -65.8 -86.3 -71.25 -90.05 -75.6 L-83.9 -80.0 -83.5 -81.35 Q-91.65 -93.0 -103.75 -100.5 L-95.3 -110.65 Q-99.35 -118.85 -106.55 -124.55 -113.25 -118.05 -118.75 -110.4 -133.7 -89.65 -136.9 -64.25 -140.15 -38.45 -128.8 -15.2 -130.7 -2.9 -126.7 8.95 -121.65 23.95 -108.25 32.1 L-108.55 59.3 -111.35 58.85 -111.3 61.2 -112.8 61.9 Q-112.65 57.1 -114.0 52.7 -119.65 34.55 -137.1 25.9 -143.0 -14.4 -146.2 -55.1 -147.85 -76.5 -140.1 -96.55 -131.55 -118.6 -114.25 -134.45 L-111.95 -134.15 Q-101.2 -132.75 -92.65 -126.05 -84.55 -119.7 -80.5 -110.35 -75.3 -98.35 -75.3 -85.15 -75.3 -79.95 -73.85 -75.05 -70.4 -63.45 -61.35 -54.95 -45.8 -40.35 -24.75 -36.05 -16.4 -58.2 -12.85 -81.5 L-12.2 -82.05 Q-14.5 -94.15 -15.35 -102.2 -19.35 -101.75 -23.5 -103.2 -35.2 -107.45 -38.25 -119.55 L-39.75 -120.9 -35.95 -129.75 -33.45 -129.9 -32.4 -132.55 -30.65 -133.25 -29.85 -133.05 -28.1 -135.15 Q-12.7 -125.9 8.9 -114.3 20.55 -117.6 30.85 -124.35 32.85 -125.65 34.25 -127.45 46.6 -143.35 63.55 -154.2 L68.05 -159.7 Q72.3 -159.4 76.3 -160.6 85.0 -163.5 89.25 -171.7 L90.15 -170.1" fill="#666666" fill-rule="evenodd" stroke="none"/>
  </g>
</svg>
