<?xml version="1.0" encoding="UTF-8" standalone="no"?>
<svg xmlns:xlink="http://www.w3.org/1999/xlink" height="85.15px" width="98.8px" xmlns="http://www.w3.org/2000/svg">
  <g transform="matrix(1.0, 0.0, 0.0, 1.0, 53.95, 93.7)">
    <path d="M41.2 -51.1 L40.45 -51.0 40.05 -53.25 42.5 -54.1 Q44.05 -53.2 44.65 -51.45 44.95 -50.35 44.75 -49.1 L43.85 -49.0 42.25 -51.95 41.55 -52.25 41.2 -51.1 M29.5 -82.4 L30.4 -84.15 31.2 -84.35 Q33.0 -83.5 34.1 -81.8 L34.35 -81.4 33.4 -81.15 30.8 -82.7 30.05 -81.5 29.5 -82.4 M23.4 -76.25 Q26.9 -71.1 23.7 -65.8 L23.4 -65.4 Q22.4 -72.0 16.1 -73.35 L15.9 -73.35 Q11.95 -69.15 15.9 -63.9 L17.25 -61.4 16.95 -60.1 16.45 -59.9 15.6 -62.45 14.95 -62.35 14.25 -64.4 Q11.85 -65.65 10.4 -67.95 9.55 -69.3 9.1 -70.8 L8.35 -69.9 9.1 -74.0 9.65 -73.8 Q15.8 -79.6 23.4 -76.25 M26.9 -57.3 Q35.25 -52.7 34.1 -43.05 L34.0 -42.25 32.8 -41.75 Q32.45 -50.5 26.35 -56.6 L26.9 -57.3 M-3.85 -46.1 L-3.0 -44.2 Q-0.9 -48.05 3.35 -49.05 L5.2 -49.3 Q10.05 -43.3 5.1 -38.0 L4.7 -37.6 3.8 -38.1 3.35 -40.55 1.1 -40.4 0.3 -37.8 Q-4.7 -38.7 -4.15 -44.45 L-3.85 -46.1 M7.85 -8.55 L7.0 -8.65 5.35 -10.25 4.15 -10.25 2.35 -9.15 1.8 -9.85 Q3.5 -12.05 6.15 -11.3 7.55 -10.9 8.35 -9.75 L8.2 -9.0 7.85 -8.55 M-10.65 -92.7 Q-9.95 -91.5 -10.65 -90.3 L-10.95 -89.95 Q-12.8 -90.35 -13.5 -92.05 L-13.6 -92.45 -15.6 -92.7 -19.85 -90.0 Q-18.2 -93.15 -14.75 -93.65 -12.55 -93.95 -10.65 -92.7 M-7.3 -71.1 Q-7.75 -69.05 -9.4 -67.85 L-9.75 -67.6 Q-11.6 -58.0 -21.4 -60.7 -28.8 -66.75 -20.55 -73.1 -14.2 -78.05 -7.75 -73.3 L-7.3 -71.1 M-33.15 -39.95 L-33.3 -40.4 Q-36.1 -43.35 -33.85 -46.85 L-33.65 -47.15 -35.35 -47.15 -38.05 -43.9 -38.5 -44.2 -38.35 -46.15 -34.4 -50.35 -31.35 -50.45 Q-25.0 -47.75 -27.45 -41.15 L-27.6 -40.8 -33.15 -39.95 M-52.1 -64.6 Q-54.35 -66.35 -53.85 -69.2 L-50.3 -70.65 -50.2 -70.95 Q-49.5 -72.6 -47.7 -72.5 -45.7 -70.5 -45.75 -67.65 -45.8 -66.4 -46.2 -65.2 L-47.35 -64.95 Q-49.55 -62.6 -52.1 -64.6" fill="#999999" fill-rule="evenodd" stroke="none"/>
    <path d="M9.1 -74.0 Q14.3 -85.4 23.05 -76.65 L23.4 -76.25 Q15.8 -79.6 9.65 -73.8 L9.1 -74.0 M5.2 -49.3 L3.35 -49.05 Q-0.9 -48.05 -3.0 -44.2 L-3.85 -46.1 Q-3.15 -47.9 -1.75 -49.3 L-0.15 -50.85 4.15 -50.4 5.2 -49.3 M-21.4 -60.7 Q-30.35 -63.65 -28.2 -72.7 L-28.0 -73.3 Q-17.95 -85.3 -5.25 -77.05 -4.0 -76.25 -3.35 -74.9 L-4.05 -74.55 Q-5.55 -75.45 -7.3 -75.6 L-8.5 -75.55 -8.0 -75.3 Q-7.45 -74.2 -7.3 -73.0 -7.15 -72.05 -7.3 -71.1 L-7.75 -73.3 Q-14.2 -78.05 -20.55 -73.1 -28.8 -66.75 -21.4 -60.7 M-31.35 -50.45 Q-21.55 -47.5 -27.9 -38.9 -29.35 -36.95 -31.8 -37.3 L-33.15 -39.95 -27.6 -40.8 -27.45 -41.15 Q-25.0 -47.75 -31.35 -50.45" fill="#bfbfbf" fill-rule="evenodd" stroke="none"/>
  </g>
</svg>
