<?xml version="1.0" encoding="UTF-8" standalone="no"?>
<svg xmlns:xlink="http://www.w3.org/1999/xlink" height="275.2px" width="382.55px" xmlns="http://www.w3.org/2000/svg">
  <g transform="matrix(1.0, 0.0, 0.0, 1.0, 168.7, 150.35)">
    <path d="M0.65 51.0 L2.9 50.05 Q4.8 56.0 5.2 62.1 5.5 66.25 4.95 70.35 2.7 87.65 -8.45 101.2 -19.2 114.3 -34.35 121.65 L-38.45 123.75 Q-42.7 125.8 -46.75 124.0 -49.15 122.9 -51.35 121.05 L-52.55 119.8 Q-54.5 117.75 -55.65 115.15 -64.7 95.05 -56.4 74.35 L-57.5 72.85 Q-59.25 70.55 -60.65 67.8 L-61.3 66.15 Q-63.8 58.25 -61.95 50.05 -59.2 37.95 -65.1 27.1 L-69.05 26.35 Q-73.05 10.05 -69.6 -6.5 L-65.75 -6.4 -56.15 -19.25 -58.2 -34.1 -44.35 -31.25 -42.55 -32.5 Q-36.35 -37.9 -32.75 -44.95 -7.55 -46.8 -2.35 -2.55 L-16.75 7.6 0.65 51.0 M203.5 -63.4 L205.65 -64.9 209.45 -65.75 Q215.55 -54.6 213.2 -41.85 210.65 -27.9 198.5 -21.0 204.15 -28.25 206.05 -37.45 208.8 -50.95 203.5 -63.4 M84.25 -130.85 L84.75 -129.05 85.15 -127.3 85.9 -120.5 Q86.1 -116.3 85.2 -112.25 83.6 -105.0 79.55 -98.65 L81.15 -98.0 84.3 -99.55 Q90.3 -102.4 97.1 -102.5 L103.75 -102.35 Q108.25 -101.75 112.3 -99.85 114.6 -98.65 116.5 -96.95 118.5 -95.2 119.95 -93.15 122.65 -89.35 123.75 -84.9 L140.35 -82.05 139.4 -78.9 Q138.0 -74.3 135.45 -70.0 130.7 -61.9 123.35 -55.95 L123.7 -55.2 135.7 -43.65 Q136.85 -38.25 136.95 -32.95 137.1 -25.55 135.3 -18.45 133.7 -12.15 130.65 -6.05 126.0 3.15 118.75 10.4 113.65 15.6 108.0 20.15 L103.6 24.15 Q99.95 27.95 97.25 32.5 94.45 37.2 92.7 42.6 91.0 47.95 90.6 53.6 89.0 76.05 91.1 98.45 L88.85 97.4 85.4 67.5 83.9 67.05 83.0 65.1 82.3 63.05 Q81.15 57.8 82.55 52.3 L83.7 51.6 84.2 50.25 84.8 47.55 84.75 43.85 Q84.45 40.4 82.6 37.45 L83.35 34.65 Q84.45 30.55 86.5 26.7 87.85 24.2 89.6 22.05 93.05 17.75 94.45 12.55 L93.4 10.25 Q91.9 6.85 90.85 3.0 89.85 -0.65 89.6 -4.4 89.25 -9.3 86.6 -13.1 L109.5 -40.65 108.7 -43.6 Q106.85 -41.1 105.5 -38.35 L102.95 -38.5 Q99.0 -38.75 95.25 -39.85 90.1 -41.05 85.5 -43.6 L84.0 -42.75 Q79.65 -40.2 74.7 -39.1 L71.5 -38.25 66.5 -37.85 59.65 -38.55 Q57.3 -38.85 55.45 -39.7 52.1 -41.35 49.7 -44.1 L44.9 -43.25 40.1 -43.25 Q35.3 -43.25 30.7 -45.1 L21.3 -34.1 20.7 -28.65 16.55 -27.8 Q12.6 -33.4 1.6 -41.45 -9.45 -49.5 -8.35 -61.2 -7.25 -72.9 -8.45 -91.15 L0.3 -100.15 Q6.05 -100.3 11.4 -101.9 18.0 -103.9 24.2 -107.35 33.5 -112.5 43.05 -117.0 49.5 -119.95 55.85 -123.05 69.35 -129.5 84.25 -130.85 M-165.2 -53.4 Q-166.15 -54.7 -166.8 -56.35 L-166.7 -63.5 Q-161.25 -66.85 -155.3 -68.9 -146.3 -72.2 -136.85 -72.3 -127.6 -72.35 -118.9 -69.45 -95.0 -61.6 -73.7 -47.9 L-71.65 -33.05 -81.25 -20.2 -85.1 -20.3 -84.55 -23.25 Q-89.85 -30.5 -98.7 -31.35 -104.7 -24.95 -113.2 -28.8 L-115.65 -27.25 Q-121.0 -29.3 -123.05 -34.65 L-145.95 -38.2 -148.8 -35.4 -150.1 -33.95 Q-150.5 -32.6 -149.25 -31.35 -148.15 -30.25 -147.6 -28.7 L-147.75 -27.25 -148.15 -25.75 -148.85 -24.2 Q-139.2 -14.25 -146.2 -5.6 -148.05 -3.35 -150.5 -5.25 -164.65 -16.35 -168.15 -34.85 -170.05 -44.8 -165.35 -53.2 L-165.2 -53.4 M-148.95 0.55 L-148.65 2.7 -147.8 -0.55 Q-143.8 17.2 -142.15 35.25 L-141.9 38.75 Q-141.6 44.05 -142.3 49.2 L-142.8 49.8 -142.85 53.4 Q-137.9 59.6 -135.5 67.25 -133.35 74.05 -133.8 81.35 L-133.95 83.55 Q-134.3 86.75 -135.5 89.8 L-134.0 92.55 -136.55 94.05 -145.65 79.55 -143.45 77.5 -151.1 8.8 -149.55 7.5 -148.95 0.55 M-139.65 -126.8 Q-134.85 -138.7 -124.0 -145.35 -121.35 -146.9 -118.4 -148.05 -113.65 -150.0 -108.4 -150.35 -99.2 -145.0 -92.2 -136.95 L-92.35 -134.85 -99.35 -136.8 Q-115.05 -140.25 -130.8 -137.1 L-137.95 -120.65 -136.1 -117.25 Q-136.45 -115.4 -137.2 -113.7 -141.65 -103.85 -148.1 -94.75 L-146.65 -102.95 Q-144.35 -115.2 -139.65 -126.8" fill="#666666" fill-rule="evenodd" stroke="none"/>
  </g>
</svg>
