<?xml version="1.0" encoding="UTF-8" standalone="no"?>
<svg xmlns:xlink="http://www.w3.org/1999/xlink" height="267.05px" width="338.85px" xmlns="http://www.w3.org/2000/svg">
  <g transform="matrix(1.0, 0.0, 0.0, 1.0, 193.95, 156.65)">
    <path d="M84.4 -104.15 Q97.8 -108.45 105.05 -95.1 L107.4 -91.15 Q135.2 -78.7 133.05 -51.05 137.2 -43.6 134.6 -34.85 132.85 -28.95 128.0 -25.05 L143.15 -23.2 144.5 -20.0 Q144.9 -18.95 144.9 -17.75 144.95 -15.4 144.4 -13.1 136.6 -12.5 129.05 -12.9 L118.95 -14.3 114.1 -14.0 111.9 -12.4 109.05 -10.65 108.2 -9.55 Q102.7 -1.8 105.4 7.45 98.3 19.4 95.85 33.15 95.1 19.85 89.9 7.55 87.5 1.8 82.65 -2.15 73.75 -9.35 62.35 -11.0 L67.3 -15.3 68.55 -14.55 73.35 -19.6 103.3 -41.5 Q103.4 -42.85 103.65 -44.2 100.6 -52.2 99.0 -60.7 97.8 -67.1 92.65 -71.15 65.85 -68.9 59.2 -91.6 57.4 -97.8 61.95 -102.15 L61.0 -103.45 58.45 -105.9 Q55.55 -95.45 55.05 -83.45 54.9 -80.5 51.4 -80.1 32.2 -77.9 37.65 -92.15 38.4 -94.0 39.7 -95.65 38.35 -106.2 43.45 -115.25 47.25 -121.9 53.95 -123.1 72.3 -121.0 83.75 -104.95 L84.4 -104.15 M5.4 -53.15 Q6.7 -51.85 6.7 -49.95 6.7 -48.05 5.4 -46.7 4.05 -45.4 2.15 -45.4 0.25 -45.4 -1.05 -46.7 -2.4 -48.05 -2.4 -49.95 -2.4 -51.85 -1.05 -53.15 0.25 -54.5 2.15 -54.5 4.05 -54.5 5.4 -53.15 M-172.1 -59.45 Q-168.45 -61.4 -164.85 -61.9 -161.55 -61.2 -159.3 -60.25 -154.3 -64.45 -146.85 -65.15 -138.65 -63.0 -134.95 -55.4 L-134.65 -54.7 Q-138.2 -42.75 -147.85 -52.2 L-148.35 -52.7 Q-153.2 -49.65 -157.5 -49.75 L-160.45 -47.0 Q-162.85 -45.0 -166.25 -43.8 -168.1 -43.15 -168.85 -41.7 -170.6 -29.4 -160.4 -21.8 L-155.35 -17.7 Q-131.85 -24.15 -126.8 -5.85 -126.1 -3.45 -128.65 -2.25 -134.95 0.65 -142.1 -1.05 L-158.1 -4.35 Q-172.55 -6.8 -183.6 -17.7 -206.2 -40.0 -179.4 -55.4 L-172.1 -59.45 M-113.4 -152.45 Q-123.4 -153.0 -129.7 -136.95 -136.0 -120.9 -146.6 -120.35 L-150.6 -120.8 -151.6 -131.45 Q-144.55 -133.3 -140.65 -139.3 -138.85 -142.1 -138.25 -145.4 L-116.55 -156.65 -112.5 -154.25 -113.4 -152.45 M-158.65 10.0 L-160.5 11.7 -160.15 21.15 Q-156.55 25.75 -154.15 31.25 -149.9 41.0 -150.55 51.6 L-148.65 54.35 -150.9 52.3 Q-152.9 52.35 -154.7 51.25 -158.05 49.15 -158.65 45.25 -159.0 43.0 -158.8 40.65 -162.35 36.05 -164.3 30.6 -167.9 20.6 -165.95 10.15 L-158.65 10.0 M-58.1 -9.4 L-59.65 -10.8 -61.4 -12.2 -56.15 -19.25 -58.4 -34.75 Q-52.7 -61.05 -16.05 -46.25 -5.2 -43.45 -3.15 -31.8 -2.45 -27.7 -1.4 -23.95 L-0.6 -21.35 0.25 -18.9 -1.35 -15.6 1.7 -9.45 -9.7 -6.4 -11.55 -4.15 Q-10.05 5.7 -10.8 15.8 -11.5 25.8 -20.2 30.1 -21.5 30.75 -23.15 30.95 L-23.95 30.95 -25.55 30.8 Q-28.05 47.85 -20.25 63.0 -18.2 66.95 -15.5 70.55 L-13.55 72.9 -11.6 75.2 Q-10.85 80.85 -14.45 85.25 -15.95 87.1 -17.95 88.25 L-19.35 89.1 -28.7 93.85 -33.75 110.05 -34.75 110.4 -36.5 109.75 -37.35 109.2 -38.0 108.45 -38.6 107.5 -39.55 105.6 Q-32.6 96.25 -34.8 84.6 -35.4 81.25 -36.7 78.3 L-37.65 76.35 -38.7 74.3 -38.25 69.95 Q-37.85 64.7 -39.6 59.45 -43.55 47.8 -48.35 36.55 -53.05 25.6 -54.1 13.65 -54.4 9.9 -54.05 6.2 -53.45 -0.25 -55.85 -6.1 -56.6 -7.9 -58.1 -9.4" fill="#666666" fill-rule="evenodd" stroke="none"/>
  </g>
</svg>
