<?xml version="1.0" encoding="UTF-8" standalone="no"?>
<svg xmlns:xlink="http://www.w3.org/1999/xlink" height="86.15px" width="95.5px" xmlns="http://www.w3.org/2000/svg">
  <g transform="matrix(1.0, 0.0, 0.0, 1.0, 52.2, 98.8)">
    <path d="M43.3 -53.95 Q43.25 -53.3 42.7 -52.95 42.5 -52.95 42.3 -53.1 41.4 -53.65 41.2 -54.7 L38.6 -54.85 38.55 -55.35 39.15 -56.0 Q39.85 -56.6 40.75 -56.65 L42.25 -56.55 Q43.35 -55.45 43.3 -53.95 M31.0 -87.8 Q32.7 -87.4 32.45 -85.7 L32.4 -85.5 31.45 -85.45 31.05 -85.75 30.2 -85.75 Q29.35 -87.05 30.65 -87.65 L31.0 -87.8 M21.25 -87.8 Q24.1 -82.9 21.05 -78.1 L20.8 -77.9 Q20.8 -76.1 19.6 -74.85 19.2 -74.45 18.65 -74.4 L17.95 -75.15 Q20.0 -76.95 18.85 -79.3 18.15 -80.75 16.7 -81.5 15.15 -79.45 15.45 -76.9 16.25 -76.1 15.8 -75.0 L15.4 -73.55 14.65 -73.0 Q10.35 -75.15 9.65 -80.0 L9.55 -80.55 Q11.85 -83.4 14.85 -85.4 L15.75 -85.95 Q17.95 -85.75 20.1 -85.0 21.1 -84.65 21.55 -83.6 L21.25 -87.8 M3.65 -54.5 Q7.55 -52.0 6.7 -47.35 L6.6 -46.95 6.35 -46.85 6.0 -46.75 5.7 -46.85 5.4 -47.05 Q5.0 -49.45 2.75 -50.5 L-0.2 -50.75 Q0.3 -48.25 -0.7 -46.05 L-0.85 -45.8 -1.55 -45.9 -1.85 -44.05 -2.85 -44.45 Q-5.05 -52.25 1.5 -54.65 L3.65 -54.5 M27.1 -62.6 Q31.65 -61.4 31.0 -57.05 L30.9 -56.9 30.0 -57.05 Q28.9 -60.15 26.4 -61.95 L27.1 -62.6 M2.75 -12.65 L2.3 -13.3 Q2.65 -14.25 3.55 -14.65 5.15 -15.5 6.8 -14.4 L6.95 -14.15 7.05 -13.9 7.05 -13.6 7.05 -13.3 6.8 -12.8 Q5.3 -13.0 3.75 -12.8 L2.75 -12.65 M-3.6 -80.8 L-3.4 -75.95 -3.55 -75.85 -5.05 -75.8 Q-5.45 -77.45 -6.7 -78.6 -7.8 -79.6 -9.15 -79.05 L-9.4 -78.65 Q-10.1 -77.3 -9.25 -75.9 -7.9 -72.8 -11.45 -69.1 -13.5 -67.0 -15.9 -68.5 -18.75 -70.25 -19.2 -73.6 L-24.4 -76.35 Q-23.25 -82.25 -17.5 -84.0 L-17.05 -84.1 Q-16.4 -83.7 -16.05 -82.95 L-15.1 -80.55 Q-14.65 -83.3 -12.35 -84.8 L-11.75 -85.15 Q-6.7 -84.8 -3.6 -80.8 M-26.55 -78.0 Q-27.0 -78.0 -27.35 -78.6 L-27.65 -80.0 -26.55 -78.0 M-14.95 -97.15 L-18.9 -96.9 -18.8 -97.2 Q-17.0 -99.95 -14.45 -97.9 L-14.3 -97.75 -14.95 -97.15 M-26.8 -54.5 Q-26.0 -52.15 -27.6 -50.3 L-27.95 -50.0 -28.0 -49.1 Q-35.35 -44.15 -36.5 -53.25 -33.25 -55.3 -29.45 -55.1 L-26.8 -54.5 M-47.8 -79.8 Q-46.4 -75.95 -48.45 -72.4 -49.8 -72.05 -50.85 -73.0 -51.3 -73.45 -51.4 -74.1 L-52.2 -74.75 -52.05 -77.35 Q-51.3 -78.9 -49.85 -79.75 L-49.2 -80.05 -48.2 -79.7 -47.8 -79.8" fill="#999999" fill-rule="evenodd" stroke="none"/>
    <path d="M9.55 -80.55 Q9.6 -89.0 17.25 -87.95 L17.55 -87.9 18.0 -88.65 19.75 -88.6 21.25 -87.8 21.55 -83.6 Q21.1 -84.65 20.1 -85.0 17.95 -85.75 15.75 -85.95 L14.85 -85.4 Q11.85 -83.4 9.55 -80.55 M-27.65 -80.0 Q-26.65 -87.8 -18.25 -88.7 L-11.55 -88.25 Q-5.35 -86.85 -3.6 -80.8 -6.7 -84.8 -11.75 -85.15 L-12.35 -84.8 Q-14.65 -83.3 -15.1 -80.55 L-16.05 -82.95 Q-16.4 -83.7 -17.05 -84.1 L-17.5 -84.0 Q-23.25 -82.25 -24.4 -76.35 L-26.55 -78.0 -27.65 -80.0 M-36.5 -53.25 L-36.5 -54.2 Q-35.1 -56.2 -32.95 -57.45 L-32.35 -57.8 -31.8 -57.5 -31.65 -57.2 Q-29.55 -57.1 -27.85 -55.75 L-26.8 -54.5 -29.45 -55.1 Q-33.25 -55.3 -36.5 -53.25" fill="#bfbfbf" fill-rule="evenodd" stroke="none"/>
  </g>
</svg>
