<?xml version="1.0" encoding="UTF-8" standalone="no"?>
<svg xmlns:xlink="http://www.w3.org/1999/xlink" height="245.2px" width="390.5px" xmlns="http://www.w3.org/2000/svg">
  <g transform="matrix(1.0, 0.0, 0.0, 1.0, 210.9, 153.55)">
    <path d="M101.15 -100.9 L102.4 -100.4 103.1 -100.45 104.9 -100.9 Q126.15 -91.9 144.4 -79.15 L145.85 -79.4 Q154.4 -76.8 156.05 -69.5 157.4 -67.1 157.45 -63.9 L157.45 -62.3 Q167.05 -56.9 166.1 -45.7 L166.1 -44.95 Q178.95 -40.4 174.15 -30.0 L172.5 -27.15 177.05 -27.6 178.45 -25.45 178.85 -24.7 179.15 -23.8 179.3 -22.8 179.6 -20.0 174.5 -15.35 168.35 -15.35 167.35 -14.5 121.3 -17.05 Q118.35 -14.45 114.75 -12.85 L113.15 -12.25 109.95 -10.95 108.25 -10.55 101.25 5.45 98.4 5.9 98.55 -3.6 94.0 -7.85 118.15 -34.3 Q125.1 -31.8 132.2 -30.15 132.1 -32.85 132.85 -35.45 140.6 -40.5 143.4 -48.95 138.4 -59.05 140.55 -70.5 119.75 -81.05 102.7 -96.5 101.9 -97.25 101.4 -98.4 96.9 -99.95 99.0 -101.5 L99.4 -101.65 101.15 -100.9 M83.9 -99.65 Q85.9 -98.3 86.4 -95.9 L86.65 -94.4 Q82.4 -85.85 76.15 -92.9 L75.95 -94.4 Q75.75 -95.55 76.15 -96.65 L77.25 -98.05 78.65 -99.4 80.4 -99.85 81.9 -100.15 83.9 -99.65 M114.75 -61.15 L115.8 -60.9 Q119.05 -60.1 120.6 -57.1 L121.0 -56.25 Q120.75 -54.2 119.7 -52.45 116.05 -46.4 108.8 -47.6 108.35 -55.85 114.75 -61.15 M16.05 -72.45 Q17.45 -70.9 17.85 -69.1 22.8 -48.0 1.8 -51.35 L7.4 -59.95 8.45 -60.8 9.0 -62.55 Q11.05 -68.6 16.05 -72.45 M71.55 -67.4 Q72.95 -65.75 72.95 -63.4 72.95 -61.05 71.55 -59.4 70.1 -57.75 68.1 -57.75 66.1 -57.75 64.7 -59.4 63.25 -61.05 63.25 -63.4 63.25 -65.75 64.7 -67.4 66.1 -69.05 68.1 -69.05 70.1 -69.05 71.55 -67.4 M-205.85 -68.65 L-208.0 -69.2 -205.85 -69.75 -205.85 -68.65 M-206.25 -35.75 Q-198.95 -46.5 -186.85 -49.7 -180.0 -49.0 -174.95 -45.25 L-174.6 -44.7 -174.65 -43.2 Q-174.7 -42.8 -174.9 -42.45 L-175.35 -41.7 Q-179.55 -39.55 -184.35 -38.45 -192.25 -32.45 -196.35 -23.5 -197.45 -21.1 -196.3 -18.95 -192.05 -18.3 -189.1 -16.1 -188.75 -17.8 -187.35 -18.95 L-183.85 -20.05 -183.85 -20.2 Q-166.05 -15.1 -170.8 -0.3 L-171.35 0.5 Q-179.9 -0.3 -186.0 -8.45 -191.95 2.65 -204.05 -8.8 -216.5 -20.6 -206.25 -35.75 M-14.95 32.9 Q-13.35 36.7 -13.6 40.75 L-21.7 57.35 Q-20.75 62.5 -18.7 67.35 L-17.6 69.8 Q-14.8 75.4 -11.15 80.5 -12.45 83.1 -15.25 84.15 L-16.25 84.6 -35.1 84.95 -34.9 86.55 -36.7 85.1 -45.05 91.65 -47.45 90.95 -37.7 84.15 Q-39.0 80.8 -39.65 77.05 L-40.05 74.6 Q-40.65 69.65 -40.15 64.75 -50.95 58.8 -48.1 45.8 -45.6 34.3 -36.95 25.95 L-16.2 30.25 -14.95 32.9 M-56.15 -19.25 L-56.45 -24.5 Q-50.6 -26.0 -46.0 -30.15 -41.15 -34.45 -39.55 -40.8 L-35.9 -40.25 -33.95 -37.5 Q-32.6 -35.6 -30.6 -34.0 -28.75 -32.4 -26.55 -31.45 L-25.3 -31.95 -16.8 -9.9 -14.45 -9.05 -7.2 5.5 -8.1 8.35 Q-9.35 12.4 -12.0 15.75 -15.45 20.1 -20.55 22.85 L-19.45 18.05 Q-18.6 13.35 -20.95 9.4 -24.8 3.1 -31.85 1.35 L-37.6 4.25 -43.1 14.1 -44.95 10.7 Q-51.3 -1.5 -54.25 -14.8 L-58.8 -15.65 -56.15 -19.25 M-136.0 -153.55 L-136.0 -150.1 -138.1 -147.5 -142.3 -147.5 -147.65 -143.6 -149.15 -139.6 -148.2 -135.0 -153.75 -129.45 -157.2 -131.55 -156.95 -134.45 Q-154.1 -152.5 -136.0 -153.55" fill="#666666" fill-rule="evenodd" stroke="none"/>
  </g>
</svg>
