<?xml version="1.0" encoding="UTF-8" standalone="no"?>
<svg xmlns:xlink="http://www.w3.org/1999/xlink" height="248.35px" width="384.1px" xmlns="http://www.w3.org/2000/svg">
  <g transform="matrix(1.0, 0.0, 0.0, 1.0, 229.35, 153.8)">
    <path d="M140.45 -51.75 Q142.8 -52.85 144.85 -53.2 163.35 -44.3 147.35 -28.45 143.3 -24.45 137.6 -26.7 119.9 -9.5 96.9 -10.85 94.3 -11.0 93.65 -13.45 93.65 -14.2 93.9 -14.85 94.25 -15.7 94.9 -16.45 114.8 -20.4 130.1 -33.95 130.7 -35.9 126.85 -33.45 122.55 -25.4 114.4 -30.2 113.1 -47.95 134.45 -50.1 137.4 -50.4 140.45 -51.75 M-219.8 -38.7 L-214.85 -37.95 Q-214.3 -37.8 -213.8 -37.45 -213.4 -35.95 -215.0 -34.75 L-216.55 -32.95 Q-215.75 -28.15 -215.45 -23.2 -215.3 -20.9 -216.05 -18.7 -206.95 -17.55 -202.55 -8.0 L-202.65 -7.25 -203.35 -5.75 -203.8 -5.0 Q-215.4 -4.0 -227.3 -8.7 L-228.0 -9.5 -228.55 -10.2 -229.05 -10.95 Q-229.9 -14.8 -228.2 -18.4 L-226.05 -22.2 Q-226.0 -26.0 -225.55 -29.7 L-225.05 -34.2 -224.0 -35.65 -222.05 -37.95 -221.0 -38.3 -219.8 -38.55 -219.8 -38.7 M-32.65 42.1 L-27.2 46.2 -25.6 48.5 Q-24.3 50.65 -23.45 53.05 -20.8 60.75 -24.8 68.0 L-26.05 68.55 -28.25 72.55 -26.9 75.45 -27.35 77.35 -25.5 82.85 Q-25.15 83.9 -24.95 85.05 -24.3 89.05 -25.2 93.05 L-27.7 94.55 -29.8 93.6 -32.8 87.4 -29.0 77.45 -30.0 75.85 -29.8 73.4 -46.45 47.55 -43.55 47.6 -40.25 41.65 -41.7 47.4 -32.65 42.1 M-24.75 16.2 Q-24.0 18.0 -25.2 19.55 -24.2 23.05 -25.35 26.5 -25.9 28.0 -26.75 29.3 -30.05 28.25 -32.8 26.1 -35.15 24.25 -36.75 21.8 L-31.15 16.85 -30.4 12.25 Q-26.35 12.6 -24.75 16.2 M-46.3 -27.45 L-41.55 -36.6 -34.8 -36.75 -25.65 -21.1 -21.4 -20.7 -18.45 -22.9 -18.45 -17.2 -36.9 -17.2 -27.05 -13.25 Q-42.3 -18.1 -58.25 -16.4 L-56.15 -19.25 -56.55 -25.3 Q-49.3 -19.55 -40.05 -19.5 L-41.35 -20.3 Q-45.2 -22.95 -46.3 -27.45 M-132.65 -80.2 Q-132.1 -79.65 -132.1 -78.85 -132.1 -78.05 -132.65 -77.45 -133.2 -76.9 -134.0 -76.9 -134.8 -76.9 -135.35 -77.45 -135.9 -78.05 -135.9 -78.85 -135.9 -79.65 -135.35 -80.2 -134.8 -80.8 -134.0 -80.8 -133.2 -80.8 -132.65 -80.2 M-161.9 -150.2 L-156.95 -153.2 -156.1 -151.75 -154.95 -153.8 Q-154.8 -152.55 -154.95 -151.35 -155.35 -147.55 -158.95 -146.75 L-161.4 -148.1 -161.9 -150.2" fill="#666666" fill-rule="evenodd" stroke="none"/>
  </g>
</svg>
