<?xml version="1.0" encoding="UTF-8" standalone="no"?>
<svg xmlns:xlink="http://www.w3.org/1999/xlink" height="42.0px" width="73.25px" xmlns="http://www.w3.org/2000/svg">
  <g transform="matrix(1.0, 0.0, 0.0, 1.0, 51.55, 95.85)">
    <path d="M21.25 -87.65 Q19.7 -87.3 18.7 -88.55 17.2 -90.35 15.15 -89.25 14.7 -85.4 12.2 -83.2 L11.85 -83.15 11.45 -83.65 Q7.5 -90.8 13.7 -93.7 L15.95 -94.45 16.2 -95.6 16.8 -95.85 Q22.95 -94.05 21.35 -88.0 L21.25 -87.65 M5.55 -53.85 Q2.75 -55.95 -0.6 -55.55 L-1.35 -54.5 Q-2.2 -55.95 -1.0 -57.15 L-0.3 -57.25 0.75 -58.45 0.8 -59.0 1.6 -59.8 Q4.8 -60.25 6.25 -57.35 L6.65 -55.7 Q6.8 -54.6 5.8 -54.0 L5.55 -53.85 M-8.15 -87.7 L-8.1 -87.2 Q-7.95 -85.5 -9.1 -84.15 L-10.25 -84.05 Q-9.6 -78.8 -12.5 -74.45 L-13.5 -74.85 -13.75 -76.6 -15.2 -78.05 -17.15 -76.1 -17.65 -76.05 Q-21.85 -76.25 -23.65 -80.05 L-22.05 -84.65 Q-18.35 -86.4 -15.15 -83.85 L-14.85 -84.35 Q-12.5 -88.0 -8.15 -87.7 M-30.25 -55.9 Q-32.7 -54.45 -35.1 -55.55 L-35.65 -55.9 Q-36.1 -59.9 -33.0 -62.55 -32.15 -62.35 -31.4 -62.95 L-31.05 -63.3 Q-27.3 -61.3 -29.0 -57.5 -29.4 -56.55 -30.25 -55.9 M-47.8 -80.1 L-47.85 -79.75 Q-49.65 -78.8 -51.3 -80.0 -51.95 -81.95 -50.9 -83.75 L-49.05 -82.3 -48.6 -82.2 Q-47.6 -81.4 -47.8 -80.1" fill="#999999" fill-rule="evenodd" stroke="none"/>
    <path d="M-8.15 -87.7 Q-12.5 -88.0 -14.85 -84.35 L-15.15 -83.85 Q-18.35 -86.4 -22.05 -84.65 L-23.65 -80.05 Q-25.85 -90.55 -15.35 -90.75 L-12.7 -90.45 -12.0 -91.45 -11.45 -91.65 Q-10.3 -91.35 -9.4 -90.45 -8.35 -89.3 -8.15 -87.7" fill="#bfbfbf" fill-rule="evenodd" stroke="none"/>
  </g>
</svg>
