<?xml version="1.0" encoding="UTF-8" standalone="no"?>
<svg xmlns:xlink="http://www.w3.org/1999/xlink" height="75.1px" width="410.5px" xmlns="http://www.w3.org/2000/svg">
  <g transform="matrix(1.0, 0.0, 0.0, 1.0, 242.75, 89.9)">
    <path d="M144.25 -25.7 Q143.7 -28.9 146.05 -31.5 148.95 -34.8 152.85 -34.95 174.1 -36.25 165.05 -21.6 163.85 -19.7 161.35 -18.95 147.15 -8.1 144.25 -25.7 M-235.4 -15.2 Q-238.45 -13.9 -240.45 -16.9 -246.7 -26.3 -235.8 -29.2 -220.5 -21.5 -235.4 -15.2 M-113.7 -83.4 L-113.65 -82.65 -114.1 -81.15 Q-114.5 -79.8 -115.65 -78.9 L-118.4 -77.7 -119.9 -77.15 Q-130.85 -82.9 -121.2 -89.4 -120.65 -89.75 -119.9 -89.9 -114.3 -89.0 -113.7 -83.4" fill="#666666" fill-rule="evenodd" stroke="none"/>
  </g>
</svg>
