<?xml version="1.0" encoding="UTF-8" standalone="no"?>
<svg xmlns:xlink="http://www.w3.org/1999/xlink" height="40.7px" width="71.3px" xmlns="http://www.w3.org/2000/svg">
  <g transform="matrix(1.0, 0.0, 0.0, 1.0, 50.85, 98.7)">
    <path d="M15.2 -95.5 Q13.1 -94.3 11.3 -92.85 L10.5 -93.7 Q12.65 -99.05 17.8 -97.95 20.7 -100.05 20.45 -96.3 20.3 -94.9 19.5 -93.75 16.8 -93.3 15.2 -95.5 M0.55 -58.1 L-0.4 -58.45 -0.65 -59.55 Q1.7 -64.15 4.55 -59.7 4.95 -58.9 4.4 -58.2 L4.2 -58.0 3.15 -58.2 2.25 -59.75 1.65 -60.15 Q0.7 -59.55 0.6 -58.4 L0.55 -58.1 M-23.25 -89.35 Q-19.6 -95.45 -12.9 -92.4 L-12.15 -92.05 Q-12.0 -88.0 -13.75 -84.35 L-14.2 -83.5 -14.55 -83.45 -14.7 -83.45 -15.05 -83.55 -15.45 -83.8 -15.75 -84.0 -17.15 -87.1 Q-20.5 -87.4 -23.25 -89.35 M-33.35 -62.55 L-33.55 -62.2 -33.35 -61.85 Q-33.25 -61.7 -33.0 -61.7 -32.8 -61.7 -32.65 -61.85 -32.5 -62.0 -32.5 -62.2 L-32.65 -62.55 -33.0 -62.65 -33.35 -62.55 M-33.9 -64.4 Q-32.0 -63.8 -30.8 -62.2 L-30.5 -61.7 Q-32.0 -59.25 -34.55 -60.15 L-34.95 -60.35 Q-35.7 -61.7 -35.2 -63.15 -34.85 -64.1 -33.9 -64.4 M-48.15 -86.65 L-49.55 -85.75 -49.3 -85.7 -49.05 -85.7 Q-48.3 -85.6 -47.9 -84.9 L-48.05 -84.75 Q-48.95 -84.0 -50.0 -84.35 L-50.8 -84.9 -50.85 -85.35 Q-51.0 -86.6 -49.9 -87.15 L-49.55 -87.35 -48.15 -86.65" fill="#999999" fill-rule="evenodd" stroke="none"/>
    <path d="M-12.15 -92.05 L-12.9 -92.4 Q-19.6 -95.45 -23.25 -89.35 -27.95 -93.1 -22.0 -95.7 -14.5 -99.05 -12.15 -92.05" fill="#bfbfbf" fill-rule="evenodd" stroke="none"/>
  </g>
</svg>
