<?xml version="1.0" encoding="UTF-8" standalone="no"?>
<svg xmlns:xlink="http://www.w3.org/1999/xlink" height="15.1px" width="77.8px" xmlns="http://www.w3.org/2000/svg">
  <g transform="matrix(1.0, 0.0, 0.0, 1.0, 2.65, 10.45)">
    <path d="M38.05 -5.0 L37.65 -5.2 38.0 -5.25 38.05 -5.0" fill="url(#gradient0)" fill-rule="evenodd" stroke="none"/>
    <path d="M38.0 -5.25 Q49.0 -7.05 48.65 -5.35 43.65 -3.05 37.5 -2.9 50.45 -2.9 47.45 -2.05 46.85 -1.45 45.0 -1.35 L48.5 -0.85 48.6 -0.9 49.4 -1.1 50.2 -0.9 50.6 -0.35 50.5 -0.1 Q51.35 0.35 51.35 0.95 51.35 1.95 48.65 2.65 L42.25 3.35 35.8 2.65 Q33.15 1.95 33.15 0.95 33.15 0.4 33.9 -0.05 30.25 -0.6 26.95 0.55 L28.4 0.75 Q29.3 0.95 29.3 1.25 29.3 1.55 28.4 1.75 L26.15 1.95 26.0 1.95 25.3 1.95 Q19.3 3.5 12.7 3.4 L12.0 3.4 11.65 3.45 8.95 3.65 8.7 3.65 7.7 3.65 6.7 3.65 Q6.2 4.05 5.1 4.45 L3.1 4.25 Q1.75 3.2 2.2 2.55 L1.75 2.3 Q0.3 2.45 -1.35 1.35 -3.6 -0.2 -2.0 -1.7 L-1.8 -1.75 -1.45 -1.8 -1.4 -1.8 -1.35 -1.8 -1.35 -1.9 Q-1.4 -4.25 1.25 -5.9 3.85 -7.45 7.5 -7.5 L8.7 -7.7 8.95 -7.7 8.95 -7.75 9.55 -7.65 10.65 -7.6 Q10.1 -8.65 12.7 -9.3 L13.05 -9.35 Q17.6 -8.55 14.5 -6.75 L20.45 -6.3 20.95 -6.45 21.15 -6.7 Q22.8 -7.75 26.0 -7.75 L29.25 -7.6 28.85 -8.1 Q27.9 -10.25 31.6 -10.45 34.35 -10.25 35.6 -8.75 L35.65 -8.65 Q34.8 -7.4 33.5 -7.0 L35.25 -6.6 35.4 -6.4 Q35.65 -4.3 27.55 -4.8 26.85 -5.3 26.0 -5.45 L24.35 -5.6 Q22.95 -5.5 22.05 -4.8 23.85 -3.6 26.0 -3.3 L30.35 -3.7 31.0 -3.9 31.15 -4.1 Q35.15 -2.5 39.3 -4.2 L38.9 -4.5 38.05 -5.0 38.0 -5.25" fill="url(#gradient1)" fill-rule="evenodd" stroke="none"/>
    <path d="M49.8 -3.55 L50.8 -3.3 51.25 -2.65 Q51.25 -2.3 50.8 -2.05 L49.8 -1.8 48.75 -2.05 Q48.35 -2.3 48.4 -2.65 48.35 -3.05 48.75 -3.3 L49.8 -3.55 M54.05 -3.25 L54.7 -3.1 55.0 -2.65 54.7 -2.25 54.05 -2.1 53.4 -2.25 53.15 -2.65 53.4 -3.1 54.05 -3.25 M64.55 -2.05 L65.8 -1.75 66.35 -0.95 65.8 -0.15 64.55 0.15 63.25 -0.15 Q62.7 -0.5 62.7 -0.95 62.7 -1.4 63.25 -1.75 L64.55 -2.05 M73.9 -2.2 L73.7 -2.5 73.9 -2.8 74.4 -2.95 74.9 -2.8 75.15 -2.5 74.9 -2.2 74.4 -2.05 73.9 -2.2" fill="#c434c5" fill-rule="evenodd" stroke="none"/>
  </g>
  <defs>
    <radialGradient cx="0" cy="0" gradientTransform="matrix(0.0292, 0.0, 0.0, 0.018, 4.8, -2.35)" gradientUnits="userSpaceOnUse" id="gradient0" r="819.2" spreadMethod="pad">
      <stop offset="0.0" stop-color="#fdc4f7"/>
      <stop offset="1.0" stop-color="#9f048c"/>
    </radialGradient>
    <radialGradient cx="0" cy="0" gradientTransform="matrix(0.0292, 0.0, 0.0, 0.018, 4.8, -2.35)" gradientUnits="userSpaceOnUse" id="gradient1" r="819.2" spreadMethod="pad">
      <stop offset="0.0" stop-color="#f1c9f0"/>
      <stop offset="1.0" stop-color="#c434c5"/>
    </radialGradient>
  </defs>
</svg>
