<?xml version="1.0" encoding="UTF-8" standalone="no"?>
<svg xmlns:xlink="http://www.w3.org/1999/xlink" height="15.2px" width="77.25px" xmlns="http://www.w3.org/2000/svg">
  <g transform="matrix(1.0, 0.0, 0.0, 1.0, 2.8, 9.65)">
    <path d="M22.75 2.35 L22.75 2.3 23.35 2.3 22.75 2.35 M59.05 -1.0 L59.05 -1.05 59.4 -1.05 59.05 -1.0" fill="url(#gradient0)" fill-rule="evenodd" stroke="none"/>
    <path d="M22.75 2.35 L22.55 2.35 22.2 2.55 21.15 2.85 20.0 2.55 19.8 2.4 19.6 2.4 18.9 2.5 Q16.25 2.55 13.85 3.15 L11.65 3.4 Q12.4 4.3 9.75 5.35 8.55 5.8 7.7 5.1 6.6 4.25 6.7 3.65 L6.65 3.65 6.55 3.65 Q3.1 4.3 0.5 2.3 L0.15 1.8 -0.3 1.55 -0.4 1.35 -0.45 1.05 -0.25 0.85 -1.0 -0.25 -2.15 -0.65 Q-2.8 -1.1 -2.8 -1.65 -2.8 -2.25 -2.15 -2.65 L-1.2 -3.0 Q-0.75 -4.65 1.25 -5.9 3.55 -7.25 6.65 -7.45 L8.95 -7.4 8.95 -7.45 11.0 -7.2 11.55 -7.15 12.45 -7.4 16.05 -7.75 19.7 -7.4 Q21.2 -7.05 21.2 -6.6 21.2 -6.25 20.3 -5.95 L25.8 -5.25 29.85 -5.3 29.85 -5.65 28.6 -5.95 36.95 -6.6 Q35.65 -9.4 40.7 -9.6 43.0 -9.85 44.3 -8.85 L44.4 -8.8 Q44.3 -5.45 39.4 -5.55 L39.2 -5.45 39.15 -5.45 38.7 -5.3 39.2 -5.25 42.9 -4.55 44.05 -4.2 49.0 -3.95 Q47.9 -3.25 46.15 -3.05 L45.8 -2.95 45.95 -2.4 45.95 -2.2 Q51.8 -2.2 51.1 -1.55 L52.35 -1.6 56.55 -1.15 56.85 -1.4 57.8 -1.65 58.7 -1.4 59.05 -1.05 59.05 -1.0 59.1 -0.8 58.75 -0.25 58.95 0.2 Q58.95 0.95 57.0 1.5 L52.35 2.0 47.65 1.5 Q45.8 1.0 45.7 0.3 42.65 0.75 39.55 0.4 L37.05 0.6 Q37.85 1.0 37.75 1.55 37.55 2.4 31.45 1.6 L25.8 2.2 23.35 2.3 22.75 2.3 22.75 2.35 M19.65 2.15 L19.6 2.2 19.65 2.2 19.65 2.15" fill="url(#gradient1)" fill-rule="evenodd" stroke="none"/>
    <path d="M25.0 -7.7 L25.1 -7.6 Q23.9 -5.05 21.65 -7.25 21.05 -7.85 21.95 -8.25 L23.15 -8.6 Q24.5 -8.55 25.0 -7.7 M53.25 -5.2 L54.45 -5.5 55.65 -5.2 56.2 -4.45 Q56.15 -4.0 55.65 -3.7 55.15 -3.4 54.45 -3.4 L53.25 -3.7 Q52.75 -4.0 52.75 -4.45 52.75 -4.9 53.25 -5.2 M74.25 0.6 L73.8 0.7 73.3 0.6 73.1 0.3 73.3 0.0 73.8 -0.15 74.25 0.0 74.45 0.3 74.25 0.6" fill="#c434c5" fill-rule="evenodd" stroke="none"/>
  </g>
  <defs>
    <radialGradient cx="0" cy="0" gradientTransform="matrix(0.116, 0.0, 0.0, 0.0499, 4.1, -1.65)" gradientUnits="userSpaceOnUse" id="gradient0" r="819.2" spreadMethod="pad">
      <stop offset="0.0" stop-color="#f906c9"/>
      <stop offset="0.9803921568627451" stop-color="#000000"/>
    </radialGradient>
    <radialGradient cx="0" cy="0" gradientTransform="matrix(0.0237, 0.0, 0.0, 0.0146, 4.8, -2.35)" gradientUnits="userSpaceOnUse" id="gradient1" r="819.2" spreadMethod="pad">
      <stop offset="0.0" stop-color="#f1c9f0"/>
      <stop offset="1.0" stop-color="#c434c5"/>
    </radialGradient>
  </defs>
</svg>
