<?xml version="1.0" encoding="UTF-8" standalone="no"?>
<svg xmlns:xlink="http://www.w3.org/1999/xlink" height="15.75px" width="67.25px" xmlns="http://www.w3.org/2000/svg">
  <g transform="matrix(1.0, 0.0, 0.0, 1.0, 1.7, 10.3)">
    <path d="M28.0 -6.65 L27.95 -6.65 28.0 -6.65" fill="url(#gradient0)" fill-rule="evenodd" stroke="none"/>
    <path d="M27.95 -6.65 L27.7 -7.15 Q27.35 -7.85 28.65 -8.1 L29.4 -8.25 Q31.55 -8.2 32.05 -7.1 L38.25 -7.3 Q41.1 -7.05 38.75 -6.5 41.7 -5.7 40.65 -5.45 L42.4 -5.6 44.3 -5.8 48.2 -5.9 Q50.95 -5.95 48.9 -5.15 L50.05 -4.85 51.05 -4.55 51.5 -4.45 51.65 -4.3 Q52.75 -3.75 52.75 -3.1 52.75 -2.6 52.05 -2.1 51.8 -1.8 50.85 -1.55 L50.05 -1.3 43.6 -0.55 37.15 -1.3 36.3 -1.6 34.85 -1.4 32.7 -1.1 32.6 -1.05 32.7 -1.05 34.85 -1.2 34.9 -1.2 37.8 -0.85 Q39.0 -0.55 39.0 -0.05 39.0 0.4 37.8 0.75 L34.9 1.1 33.5 1.0 33.0 1.05 27.95 0.9 26.5 0.55 Q24.75 -0.05 23.3 0.5 20.7 1.4 18.25 2.55 L18.1 2.6 18.25 2.6 Q19.2 2.6 19.9 3.0 20.6 3.4 20.6 4.0 20.6 4.6 19.9 5.05 19.2 5.45 18.25 5.45 17.3 5.45 16.65 5.05 15.95 4.6 15.95 4.0 15.95 3.45 16.5 3.1 L15.5 3.1 13.45 3.2 10.5 3.55 8.95 3.65 8.7 3.65 7.7 3.65 Q3.95 3.65 1.25 2.0 -1.4 0.35 -1.35 -1.9 L-1.2 -2.95 -1.25 -3.0 -1.7 -3.7 Q-1.7 -4.1 -1.25 -4.35 L-0.25 -4.65 1.25 -5.9 Q3.95 -7.5 7.7 -7.5 L8.7 -7.45 8.95 -7.45 10.5 -7.25 12.75 -6.9 14.5 -7.05 17.15 -7.1 Q21.85 -6.2 26.65 -6.25 L27.95 -6.25 28.25 -6.25 28.0 -6.65 27.95 -6.65 M29.5 -4.7 Q31.2 -3.95 33.3 -3.8 L34.7 -3.7 Q35.3 -4.35 37.15 -4.85 L39.9 -5.4 37.55 -5.2 Q35.6 -5.05 33.5 -5.85 32.7 -4.55 28.35 -5.2 L29.5 -4.7 M34.05 -2.65 Q31.0 -3.65 30.1 -1.95 L31.0 -1.85 Q32.85 -1.75 34.05 -2.65" fill="url(#gradient1)" fill-rule="evenodd" stroke="none"/>
    <path d="M54.8 -6.55 L55.2 -6.35 55.65 -5.75 55.2 -5.15 54.25 -4.9 53.25 -5.15 Q52.85 -5.45 52.85 -5.75 L52.9 -6.0 51.05 -6.5 Q48.95 -7.5 50.3 -9.0 51.15 -10.0 52.7 -10.3 58.15 -9.9 55.4 -7.05 L54.8 -6.55 M55.6 -3.4 L56.25 -3.25 56.5 -2.85 56.25 -2.5 55.6 -2.35 55.0 -2.5 54.75 -2.85 55.0 -3.25 55.6 -3.4 M61.3 -2.65 Q58.5 -4.65 62.2 -5.45 L62.25 -5.5 Q67.3 -4.05 64.6 -0.85 63.05 0.9 59.8 0.55 57.35 0.3 58.5 -1.0 59.25 -1.95 61.15 -2.15 L61.25 -2.45 61.3 -2.65" fill="#c434c5" fill-rule="evenodd" stroke="none"/>
  </g>
  <defs>
    <radialGradient cx="0" cy="0" gradientTransform="matrix(0.116, 0.0, 0.0, 0.0499, 4.1, -1.65)" gradientUnits="userSpaceOnUse" id="gradient0" r="819.2" spreadMethod="pad">
      <stop offset="0.0" stop-color="#f906c9"/>
      <stop offset="0.9803921568627451" stop-color="#000000"/>
    </radialGradient>
    <radialGradient cx="0" cy="0" gradientTransform="matrix(0.0292, 0.0, 0.0, 0.018, 4.8, -2.35)" gradientUnits="userSpaceOnUse" id="gradient1" r="819.2" spreadMethod="pad">
      <stop offset="0.0" stop-color="#f1c9f0"/>
      <stop offset="1.0" stop-color="#c434c5"/>
    </radialGradient>
  </defs>
</svg>
