<?xml version="1.0" encoding="UTF-8" standalone="no"?>
<svg xmlns:xlink="http://www.w3.org/1999/xlink" height="14.5px" width="76.25px" xmlns="http://www.w3.org/2000/svg">
  <g transform="matrix(1.0, 0.0, 0.0, 1.0, 1.35, 9.4)">
    <path d="M1.25 -6.1 L1.6 -6.1 Q4.2 -7.5 7.7 -7.5 L7.85 -7.5 8.7 -7.45 8.95 -7.45 12.7 -6.95 13.45 -6.85 Q14.7 -6.7 15.65 -6.85 L16.05 -6.95 18.7 -7.55 20.65 -7.7 21.45 -7.65 21.65 -7.7 25.8 -8.1 29.9 -7.7 Q31.6 -7.3 31.6 -6.7 31.6 -6.15 29.9 -5.75 L28.45 -5.5 29.9 -5.4 33.35 -5.15 34.35 -5.1 Q33.8 -5.4 33.8 -5.75 33.8 -6.4 35.5 -6.8 L39.75 -7.25 43.9 -6.8 Q45.65 -6.4 45.65 -5.75 45.65 -5.15 43.9 -4.7 L39.75 -4.25 37.25 -4.4 33.6 -4.2 31.5 -4.1 30.45 -3.8 32.45 -3.65 33.55 -3.7 35.7 -3.65 38.4 -3.2 39.35 -3.5 43.5 -3.75 Q44.7 -3.5 44.25 -2.9 43.8 -2.3 42.6 -2.25 L39.55 -2.05 Q37.7 -1.9 37.35 -1.3 L40.5 -1.7 Q44.6 -1.15 40.35 -1.0 L35.65 -0.4 37.6 -0.35 40.65 -0.1 41.5 0.05 Q42.45 0.3 42.5 0.6 42.45 1.0 40.65 1.3 L37.15 1.6 37.85 1.95 Q38.7 2.45 38.7 3.15 38.7 3.85 37.85 4.35 L35.9 4.9 33.9 4.35 Q33.1 3.85 33.1 3.15 33.1 2.45 33.9 1.95 34.3 1.7 34.75 1.55 L31.75 1.3 Q29.9 1.05 29.9 0.65 L29.9 0.6 Q29.9 0.2 31.75 -0.1 L32.0 -0.15 32.15 -0.15 32.0 -0.3 Q31.3 -0.95 29.9 -0.9 L29.1 -0.8 25.1 -0.1 Q24.25 0.05 24.05 0.4 L23.35 1.15 24.75 0.95 26.55 0.8 28.55 1.0 29.35 1.45 Q29.35 1.65 28.55 1.85 L26.55 2.05 24.6 1.85 24.1 1.7 Q23.65 1.85 23.35 2.1 L21.05 3.3 21.05 3.45 Q21.05 4.1 20.25 4.6 L18.35 5.1 16.4 4.6 Q15.6 4.1 15.6 3.45 15.6 3.15 15.75 2.9 L15.75 2.85 15.8 2.85 15.65 2.85 8.95 3.65 8.7 3.65 7.7 3.65 Q3.95 3.65 1.25 2.0 -1.4 0.35 -1.35 -1.9 -1.4 -3.65 0.15 -5.05 L0.0 -5.35 Q0.0 -5.7 0.35 -5.9 L1.25 -6.1 M22.6 -2.2 L21.5 -2.25 22.2 -1.6 22.75 -1.5 25.65 -1.85 24.5 -1.85 22.6 -2.2" fill="url(#gradient0)" fill-rule="evenodd" stroke="none"/>
    <path d="M48.65 -6.85 L48.3 -6.35 46.05 -6.3 Q44.65 -7.3 46.55 -7.95 L47.1 -8.1 Q48.4 -8.0 48.65 -7.25 L48.7 -7.15 48.65 -6.85 M45.45 -2.05 L45.4 -2.35 Q45.35 -3.2 47.75 -3.8 L50.0 -4.2 50.65 -4.3 50.0 -4.25 49.95 -4.25 47.3 -4.5 46.45 -4.75 46.3 -4.9 46.2 -5.05 Q46.2 -5.35 47.3 -5.6 L49.95 -5.8 52.6 -5.6 Q53.7 -5.35 53.75 -5.05 53.7 -4.75 52.6 -4.5 L51.9 -4.35 52.6 -4.4 52.65 -4.4 53.65 -4.4 59.5 -3.8 Q61.95 -3.2 61.95 -2.35 61.95 -1.5 59.5 -0.85 L53.65 -0.2 47.75 -0.85 46.75 -1.15 45.3 -1.05 43.5 -1.2 Q42.75 -1.45 42.75 -1.55 42.75 -1.75 43.5 -1.9 L45.3 -2.05 45.45 -2.05 M64.85 -6.6 Q62.3 -5.0 60.4 -7.0 59.2 -8.25 61.25 -9.0 L63.3 -9.4 Q68.25 -8.85 64.85 -6.6 M71.0 -6.55 L71.55 -6.65 Q77.0 -5.5 73.55 -2.75 72.95 -2.35 72.05 -2.5 70.15 -2.9 70.5 -4.15 68.05 -5.6 71.0 -6.55" fill="#c434c5" fill-rule="evenodd" stroke="none"/>
  </g>
  <defs>
    <radialGradient cx="0" cy="0" gradientTransform="matrix(0.0237, 0.0, 0.0, 0.0146, 4.8, -2.35)" gradientUnits="userSpaceOnUse" id="gradient0" r="819.2" spreadMethod="pad">
      <stop offset="0.0" stop-color="#f1c9f0"/>
      <stop offset="1.0" stop-color="#c434c5"/>
    </radialGradient>
  </defs>
</svg>
