<?xml version="1.0" encoding="UTF-8" standalone="no"?>
<svg xmlns:xlink="http://www.w3.org/1999/xlink" height="13.8px" width="80.8px" xmlns="http://www.w3.org/2000/svg">
  <g transform="matrix(1.0, 0.0, 0.0, 1.0, 1.35, 8.85)">
    <path d="M48.65 -1.2 L48.35 -1.3 48.7 -1.35 48.65 -1.2" fill="#000000" fill-rule="evenodd" stroke="none"/>
    <path d="M44.5 -2.65 L44.9 -2.45 44.5 -2.55 44.5 -2.65" fill="url(#gradient0)" fill-rule="evenodd" stroke="none"/>
    <path d="M46.65 -3.75 L48.0 -3.75 46.7 -3.6 46.65 -3.6 46.65 -3.75" fill="url(#gradient1)" fill-rule="evenodd" stroke="none"/>
    <path d="M44.3 -2.55 L41.5 -2.35 39.75 -1.8 39.2 -1.7 38.85 -1.65 39.05 -1.9 38.9 -2.25 Q38.05 -2.15 37.6 -1.75 L35.8 -1.25 37.6 -1.1 38.3 -1.15 40.35 -1.35 42.95 -1.0 Q44.05 -0.65 44.05 -0.15 44.05 0.35 42.95 0.7 L40.35 1.1 38.0 0.8 36.7 0.6 35.35 0.25 Q36.55 0.15 36.2 -0.3 34.6 -1.75 30.3 -1.4 L27.95 -1.0 27.8 -0.95 27.95 -0.95 28.0 -0.95 30.45 -0.55 Q31.5 -0.2 31.5 0.35 31.5 0.9 30.45 1.3 L28.0 1.7 26.65 1.6 26.45 1.55 24.75 2.45 22.0 3.35 18.6 3.7 17.15 3.5 12.3 3.4 8.95 3.65 8.7 3.65 8.1 3.65 7.7 3.65 Q3.95 3.65 1.25 2.0 -1.4 0.35 -1.35 -1.9 -1.4 -4.25 1.25 -5.9 L2.35 -6.45 2.15 -6.8 2.5 -7.25 3.25 -7.45 4.0 -7.25 4.2 -7.1 5.6 -7.35 8.1 -7.75 8.25 -7.75 8.7 -7.95 8.95 -7.95 8.95 -8.0 10.0 -8.05 12.75 -7.55 17.3 -6.0 22.05 -4.95 23.6 -4.9 23.5 -5.1 23.85 -5.55 23.8 -5.7 Q23.8 -6.15 25.0 -6.45 L26.65 -6.75 27.95 -6.8 30.7 -6.5 34.9 -6.1 Q36.85 -5.7 36.85 -5.1 L36.75 -4.85 36.75 -4.6 36.65 -4.6 36.45 -4.6 35.95 -4.35 35.85 -4.35 36.05 -4.3 40.5 -3.85 37.85 -3.5 37.4 -3.25 Q39.35 -3.5 41.9 -3.2 L44.3 -2.7 44.3 -2.55" fill="url(#gradient2)" fill-rule="evenodd" stroke="none"/>
    <path d="M36.75 -4.85 L37.15 -4.9 36.9 -5.1 36.85 -5.3 Q36.8 -5.75 38.25 -6.1 L41.85 -6.4 45.4 -6.1 Q46.85 -5.75 46.85 -5.3 46.85 -4.85 45.4 -4.5 L45.35 -4.5 45.15 -4.45 45.35 -4.45 Q45.85 -4.4 46.2 -4.15 L46.6 -3.75 46.65 -3.75 46.65 -3.6 46.65 -3.5 46.2 -2.85 45.15 -2.55 44.55 -2.65 44.45 -2.65 44.5 -2.65 44.5 -2.55 44.3 -2.55 44.3 -2.7 44.05 -2.85 Q43.6 -3.15 43.6 -3.5 L43.65 -3.75 43.5 -3.75 42.8 -3.9 43.95 -4.1 44.05 -4.15 44.35 -4.3 41.85 -4.15 38.25 -4.5 38.05 -4.55 37.2 -4.6 36.75 -4.6 36.75 -4.85 M48.8 -5.5 Q48.8 -5.9 49.55 -6.15 L51.45 -6.4 53.25 -6.15 Q54.0 -5.9 54.0 -5.5 54.0 -5.15 53.25 -4.9 L51.45 -4.6 49.55 -4.9 Q48.8 -5.15 48.8 -5.5 M48.65 -1.2 L48.7 -1.35 49.5 -1.95 51.5 -2.15 53.45 -1.95 54.3 -1.35 Q54.3 -1.0 53.45 -0.75 L51.5 -0.5 49.5 -0.75 Q48.9 -0.95 48.75 -1.2 L48.65 -1.2 M50.9 -2.7 L50.3 -2.8 50.95 -3.0 50.4 -3.5 Q50.4 -3.85 51.35 -4.1 L53.65 -4.3 55.95 -4.1 56.25 -4.0 56.35 -4.0 56.3 -3.95 56.9 -3.5 Q56.9 -3.15 55.95 -2.9 L53.65 -2.65 52.35 -2.75 52.05 -2.7 50.9 -2.7 M68.1 -8.4 L68.15 -8.5 68.45 -8.7 68.85 -8.8 69.15 -8.85 69.55 -8.75 69.85 -8.7 70.1 -8.45 70.3 -8.15 70.1 -7.8 69.65 -7.5 68.4 -7.6 Q68.0 -7.8 68.0 -8.1 L68.1 -8.4 M65.3 -4.55 L66.7 -4.55 Q73.85 -4.4 72.25 -0.6 72.0 0.0 70.9 0.1 67.65 0.35 66.95 -1.45 61.7 -1.2 63.0 -3.6 63.5 -4.6 65.3 -4.55 M76.0 -7.2 Q76.2 -7.45 76.7 -7.55 L77.2 -7.65 Q81.1 -6.05 78.25 -3.75 L78.15 -3.7 76.85 -3.9 Q76.9 -5.35 76.0 -6.7 75.85 -6.95 76.0 -7.2 M51.75 4.55 L50.15 4.95 Q49.15 4.95 48.5 4.55 L48.2 4.3 Q47.8 3.95 47.8 3.55 47.8 3.1 48.2 2.75 L48.5 2.5 Q49.15 2.1 50.15 2.1 L51.75 2.5 Q52.45 2.95 52.45 3.55 52.45 4.1 51.75 4.55" fill="#c434c5" fill-rule="evenodd" stroke="none"/>
  </g>
  <defs>
    <radialGradient cx="0" cy="0" gradientTransform="matrix(0.0292, 0.0, 0.0, 0.018, 4.8, -2.35)" gradientUnits="userSpaceOnUse" id="gradient0" r="819.2" spreadMethod="pad">
      <stop offset="0.0" stop-color="#f906c9"/>
      <stop offset="0.9803921568627451" stop-color="#000000"/>
    </radialGradient>
    <radialGradient cx="0" cy="0" gradientTransform="matrix(0.0292, 0.0, 0.0, 0.018, 4.8, -2.35)" gradientUnits="userSpaceOnUse" id="gradient1" r="819.2" spreadMethod="pad">
      <stop offset="0.0" stop-color="#fdc4f7"/>
      <stop offset="1.0" stop-color="#9f048c"/>
    </radialGradient>
    <radialGradient cx="0" cy="0" gradientTransform="matrix(0.0292, 0.0, 0.0, 0.018, 4.8, -2.35)" gradientUnits="userSpaceOnUse" id="gradient2" r="819.2" spreadMethod="pad">
      <stop offset="0.0" stop-color="#f1c9f0"/>
      <stop offset="1.0" stop-color="#c434c5"/>
    </radialGradient>
  </defs>
</svg>
