<?xml version="1.0" encoding="UTF-8" standalone="no"?>
<svg xmlns:xlink="http://www.w3.org/1999/xlink" height="12.95px" width="86.2px" xmlns="http://www.w3.org/2000/svg">
  <g transform="matrix(1.0, 0.0, 0.0, 1.0, 1.35, 8.9)">
    <path d="M51.7 -5.0 L51.35 -5.1 51.7 -5.15 51.7 -5.0" fill="#000000" fill-rule="evenodd" stroke="none"/>
    <path d="M39.05 -5.15 L39.2 -5.15 39.05 -5.15 39.0 -5.15 39.05 -5.15 M46.85 -0.8 L47.0 -0.8 46.9 -0.8 46.85 -0.8 M52.65 -3.3 L52.55 -3.3 52.3 -3.3 52.55 -3.3 52.75 -3.35 52.65 -3.3" fill="url(#gradient0)" fill-rule="evenodd" stroke="none"/>
    <path d="M46.35 -2.65 L44.75 -2.45 42.25 -2.15 42.0 -2.1 42.25 -2.15 Q42.5 -2.25 42.2 -2.35 L40.2 -2.65 37.5 -2.2 39.75 -2.05 Q40.85 -1.8 40.9 -1.5 40.85 -1.25 39.75 -1.0 L37.1 -0.8 36.45 -0.8 34.9 -0.95 34.4 -1.0 Q34.35 -0.95 34.75 -0.85 L34.8 -0.85 34.85 -0.85 34.95 -0.8 36.45 -0.6 Q37.25 -0.4 37.25 -0.05 37.25 0.25 36.45 0.5 L34.6 0.7 32.65 0.5 32.45 0.4 32.45 0.45 31.85 0.85 30.5 1.5 28.5 2.1 28.6 2.25 27.55 2.85 25.05 3.1 22.55 2.85 Q21.5 2.6 21.55 2.25 L21.7 2.0 Q19.45 2.0 18.3 2.7 L16.05 3.7 15.0 3.95 14.85 4.0 8.95 3.7 8.7 3.65 7.7 3.65 Q3.95 3.65 1.25 2.0 -1.4 0.35 -1.35 -1.9 -1.4 -4.25 1.25 -5.9 3.2 -7.1 5.8 -7.35 L5.9 -7.4 5.85 -7.65 Q5.85 -7.95 6.2 -8.15 L7.1 -8.4 8.0 -8.15 8.3 -7.85 8.45 -7.9 9.05 -8.1 11.85 -8.45 14.55 -8.1 Q15.7 -7.8 15.7 -7.3 15.7 -6.95 14.95 -6.65 L14.85 -6.6 14.8 -6.55 14.95 -6.55 15.0 -6.55 Q15.0 -6.5 15.35 -6.4 L20.35 -5.25 25.75 -4.65 29.1 -4.8 Q29.8 -5.55 30.0 -7.1 L31.85 -7.3 33.6 -7.4 37.85 -6.95 Q39.6 -6.5 39.6 -5.85 39.6 -5.5 39.05 -5.15 L39.0 -5.15 37.85 -4.75 36.6 -4.45 36.55 -4.45 35.15 -4.3 36.55 -4.3 36.6 -4.3 39.2 -4.5 42.05 -4.05 43.8 -3.85 41.9 -3.65 39.0 -3.65 35.9 -3.5 33.7 -3.3 33.45 -3.35 33.35 -3.35 32.6 -3.3 33.4 -3.15 33.5 -3.15 35.05 -2.95 37.6 -3.15 40.35 -3.2 42.5 -3.15 45.8 -2.95 46.3 -2.8 46.35 -2.65 M28.25 -3.45 L25.75 -2.95 26.55 -2.8 28.35 -3.05 Q29.5 -3.85 31.85 -3.75 L32.15 -3.7 31.85 -3.75 28.25 -3.45" fill="url(#gradient1)" fill-rule="evenodd" stroke="none"/>
    <path d="M46.3 -2.8 L46.1 -3.0 Q46.1 -3.1 46.45 -3.2 46.35 -3.25 46.35 -3.25 L46.55 -3.25 46.7 -3.3 48.15 -3.4 49.65 -3.3 50.25 -3.0 Q50.25 -2.85 49.65 -2.7 L48.15 -2.55 47.1 -2.65 47.0 -2.65 46.95 -2.65 46.35 -2.65 46.3 -2.8 M21.0 -8.7 L21.95 -8.9 22.9 -8.7 Q23.3 -8.45 23.3 -8.1 23.3 -7.75 22.9 -7.55 L21.95 -7.3 21.0 -7.55 Q20.65 -7.75 20.65 -8.1 20.65 -8.45 21.0 -8.7 M46.9 -0.8 L47.25 -0.3 Q47.25 0.15 46.2 0.5 L43.75 0.8 41.3 0.5 Q40.65 0.25 40.4 0.0 L40.05 -0.05 40.3 -0.1 40.3 -0.3 40.4 -0.6 40.35 -0.65 40.55 -0.8 41.75 -1.2 43.75 -1.4 46.2 -1.1 46.85 -0.8 46.9 -0.8 M49.15 -6.4 Q50.4 -6.1 50.4 -5.65 50.4 -5.25 49.15 -4.95 L46.1 -4.6 43.0 -4.95 Q41.75 -5.25 41.75 -5.65 41.75 -6.1 43.0 -6.4 L46.1 -6.7 49.15 -6.4 M46.0 -3.65 Q48.1 -5.05 50.2 -4.3 48.8 -3.6 47.05 -3.6 L46.0 -3.65 M52.75 -3.35 L53.35 -3.65 55.2 -3.85 56.15 -3.8 57.0 -3.65 57.8 -3.1 57.0 -2.55 56.15 -2.4 55.2 -2.35 53.35 -2.55 Q52.55 -2.8 52.6 -3.1 L52.65 -3.3 52.75 -3.35 M51.7 -5.15 Q51.7 -5.5 52.1 -5.75 L53.05 -5.95 54.0 -5.75 54.4 -5.15 Q54.4 -4.8 54.0 -4.55 L53.05 -4.3 52.1 -4.55 51.7 -5.0 51.7 -5.15 M51.45 -2.05 L52.5 -2.35 53.6 -2.05 53.95 -1.7 54.3 -1.6 54.8 -1.3 54.0 -1.3 53.6 -0.7 52.5 -0.45 Q51.85 -0.45 51.45 -0.7 50.95 -1.0 50.95 -1.4 L51.1 -1.75 51.05 -1.75 51.1 -1.8 51.45 -2.05 M78.3 -8.45 L78.5 -8.15 78.35 -7.8 77.85 -7.5 76.6 -7.6 Q76.25 -7.8 76.2 -8.1 L76.3 -8.4 76.45 -8.5 76.65 -8.7 77.05 -8.8 77.4 -8.85 77.8 -8.75 78.1 -8.7 78.3 -8.45 M74.4 -4.1 L75.4 -4.2 Q82.4 -2.8 79.6 1.1 79.25 1.6 78.25 1.45 75.85 1.05 76.7 -0.4 L76.25 -1.2 75.4 -1.9 73.05 -2.4 72.65 -2.65 72.6 -2.9 72.6 -3.25 72.6 -3.4 Q73.2 -4.05 74.4 -4.1 M82.8 -7.95 Q84.45 -7.6 84.85 -6.4 L84.85 -6.3 84.8 -6.1 84.6 -5.8 Q82.0 -5.5 81.7 -7.4 81.8 -7.75 82.4 -7.9 L82.8 -7.95 M61.75 2.6 L62.55 2.8 62.9 3.35 62.55 3.8 61.75 4.05 60.9 3.8 60.6 3.35 Q60.6 3.05 60.9 2.8 L61.75 2.6" fill="#c434c5" fill-rule="evenodd" stroke="none"/>
  </g>
  <defs>
    <radialGradient cx="0" cy="0" gradientTransform="matrix(0.116, 0.0, 0.0, 0.0499, 4.1, -1.65)" gradientUnits="userSpaceOnUse" id="gradient0" r="819.2" spreadMethod="pad">
      <stop offset="0.0" stop-color="#f906c9"/>
      <stop offset="0.9803921568627451" stop-color="#000000"/>
    </radialGradient>
    <radialGradient cx="0" cy="0" gradientTransform="matrix(0.0237, 0.0, 0.0, 0.0146, 4.8, -2.35)" gradientUnits="userSpaceOnUse" id="gradient1" r="819.2" spreadMethod="pad">
      <stop offset="0.0" stop-color="#f1c9f0"/>
      <stop offset="1.0" stop-color="#c434c5"/>
    </radialGradient>
  </defs>
</svg>
