<?xml version="1.0" encoding="UTF-8" standalone="no"?>
<svg xmlns:xlink="http://www.w3.org/1999/xlink" height="13.5px" width="91.45px" xmlns="http://www.w3.org/2000/svg">
  <g transform="matrix(1.0, 0.0, 0.0, 1.0, 1.35, 9.85)">
    <path d="M41.5 -5.15 L41.7 -5.2 41.5 -5.15 M22.55 -5.45 L22.6 -5.45 22.55 -5.45 M44.05 -5.45 L43.5 -5.4 43.95 -5.5 44.05 -5.5 44.05 -5.45 M50.1 -5.2 L50.9 -5.15 50.1 -5.15 50.1 -5.2 M48.05 -2.4 L48.05 -2.5 48.7 -2.35 48.05 -2.4" fill="url(#gradient0)" fill-rule="evenodd" stroke="none"/>
    <path d="M48.0 -2.4 L48.0 -2.5 48.05 -2.5 48.05 -2.4 48.0 -2.4" fill="url(#gradient1)" fill-rule="evenodd" stroke="none"/>
    <path d="M45.4 -4.1 L46.75 -3.95 Q45.05 -3.75 43.25 -3.95 L40.9 -4.0 43.9 -4.3 45.4 -4.1" fill="#9f048c" fill-rule="evenodd" stroke="none"/>
    <path d="M48.0 -2.4 L48.0 -2.35 Q48.0 -1.95 46.95 -1.7 L44.45 -1.4 43.0 -1.5 42.65 -1.4 39.9 -1.2 36.5 -1.1 39.45 -0.75 Q40.7 -0.45 40.7 0.0 40.7 0.45 39.45 0.75 L36.4 1.1 33.3 0.75 33.25 0.75 33.25 0.8 Q31.35 1.8 27.7 1.95 27.4 1.35 26.6 1.1 L23.65 1.15 22.55 1.55 16.75 2.7 14.15 3.1 8.95 3.6 8.7 3.6 8.45 3.65 7.7 3.65 Q3.95 3.65 1.25 2.0 -1.4 0.35 -1.35 -1.9 -1.4 -4.25 1.25 -5.9 L2.85 -6.65 Q3.3 -9.4 8.95 -9.85 14.9 -9.85 15.75 -7.25 L16.65 -6.95 20.35 -5.9 22.55 -5.45 21.1 -5.4 18.85 -5.3 19.9 -5.1 22.55 -4.45 23.65 -4.2 26.85 -3.7 Q30.45 -3.6 31.75 -4.45 31.05 -4.75 31.05 -5.15 L31.5 -5.75 30.5 -5.95 32.1 -6.0 32.6 -6.15 36.3 -6.6 39.95 -6.15 Q41.45 -5.75 41.5 -5.15 41.45 -4.55 39.95 -4.15 L37.0 -3.75 36.45 -3.65 35.35 -3.65 32.5 -3.8 33.9 -3.45 32.45 -3.05 29.8 -2.5 25.3 -2.5 27.45 -1.95 29.5 -1.9 33.7 -2.05 Q34.5 -2.1 34.55 -2.45 34.5 -2.9 35.55 -2.95 L39.5 -3.1 41.75 -3.25 Q42.45 -3.5 43.4 -3.25 L44.45 -3.3 46.95 -3.0 Q47.8 -2.8 48.0 -2.5 L48.0 -2.4" fill="url(#gradient2)" fill-rule="evenodd" stroke="none"/>
    <path d="M27.95 -7.75 Q27.55 -8.0 27.6 -8.25 L27.95 -8.8 28.8 -9.0 29.6 -8.8 30.0 -8.25 29.6 -7.75 28.8 -7.55 Q28.3 -7.55 27.95 -7.75 M44.05 -5.5 Q44.2 -5.75 44.95 -5.9 L47.2 -6.1 49.4 -5.9 Q50.3 -5.7 50.3 -5.45 L50.1 -5.2 50.1 -5.15 49.9 -5.1 49.4 -5.0 47.2 -4.8 44.95 -5.0 Q44.05 -5.2 44.05 -5.45 L44.05 -5.5 M42.2 -0.85 L45.3 -1.05 45.45 -1.05 48.15 -0.85 Q49.3 -0.65 49.3 -0.35 49.3 -0.05 48.15 0.15 L45.4 0.35 42.55 0.15 Q41.45 -0.05 41.45 -0.35 41.45 -0.65 42.55 -0.85 L42.6 -0.85 42.2 -0.85 M48.75 -3.8 Q48.05 -3.95 48.1 -4.1 48.05 -4.3 48.75 -4.4 L50.4 -4.55 52.05 -4.4 Q52.75 -4.3 52.75 -4.1 52.75 -3.95 52.05 -3.8 L50.4 -3.65 48.75 -3.8 M49.95 -3.15 L51.35 -3.3 52.75 -3.15 53.35 -2.85 Q53.35 -2.7 52.75 -2.55 L51.35 -2.4 49.95 -2.55 Q49.4 -2.7 49.4 -2.85 49.4 -3.0 49.9 -3.15 L49.95 -3.15 M54.85 -3.1 L55.75 -3.3 56.6 -3.05 56.95 -2.8 57.65 -2.7 57.0 -2.5 Q57.0 -2.2 56.6 -1.95 L56.1 -1.75 56.25 -1.35 55.85 -0.75 54.85 -0.5 53.85 -0.75 Q53.45 -1.05 53.45 -1.35 L53.85 -1.95 54.55 -2.2 54.45 -2.5 54.7 -3.0 54.55 -3.1 54.85 -3.1 M62.55 -2.2 L62.1 -2.1 61.6 -2.2 Q61.35 -2.35 61.4 -2.5 61.35 -2.7 61.6 -2.8 L62.1 -2.95 62.55 -2.8 62.75 -2.5 62.55 -2.2 M88.45 -0.95 L88.7 -1.15 86.8 -3.75 Q86.6 -4.0 87.1 -4.05 92.9 -1.65 87.55 0.5 L87.15 0.5 86.95 0.25 Q86.85 0.05 87.05 -0.15 L88.45 -0.95 M72.6 2.6 L73.25 2.45 73.8 2.6 74.1 3.0 73.8 3.35 73.25 3.55 72.6 3.35 72.35 3.0 72.6 2.6" fill="#c434c5" fill-rule="evenodd" stroke="none"/>
  </g>
  <defs>
    <radialGradient cx="0" cy="0" gradientTransform="matrix(0.0292, 0.0, 0.0, 0.018, 4.8, -2.35)" gradientUnits="userSpaceOnUse" id="gradient0" r="819.2" spreadMethod="pad">
      <stop offset="0.0" stop-color="#f906c9"/>
      <stop offset="0.9803921568627451" stop-color="#000000"/>
    </radialGradient>
    <radialGradient cx="0" cy="0" gradientTransform="matrix(0.0292, 0.0, 0.0, 0.018, 4.8, -2.35)" gradientUnits="userSpaceOnUse" id="gradient1" r="819.2" spreadMethod="pad">
      <stop offset="0.0" stop-color="#fdc4f7"/>
      <stop offset="1.0" stop-color="#ea05bc"/>
    </radialGradient>
    <radialGradient cx="0" cy="0" gradientTransform="matrix(0.0292, 0.0, 0.0, 0.018, 4.8, -2.35)" gradientUnits="userSpaceOnUse" id="gradient2" r="819.2" spreadMethod="pad">
      <stop offset="0.0" stop-color="#f1c9f0"/>
      <stop offset="1.0" stop-color="#c434c5"/>
    </radialGradient>
  </defs>
</svg>
