<?xml version="1.0" encoding="UTF-8" standalone="no"?>
<svg xmlns:xlink="http://www.w3.org/1999/xlink" height="15.1px" width="100.45px" xmlns="http://www.w3.org/2000/svg">
  <g transform="matrix(1.0, 0.0, 0.0, 1.0, 1.35, 9.9)">
    <path d="M45.65 -3.1 L45.7 -3.1 47.75 -3.05 45.7 -2.95 45.65 -3.1" fill="url(#gradient0)" fill-rule="evenodd" stroke="none"/>
    <path d="M45.7 -2.95 L45.25 -2.9 40.2 -2.35 Q38.9 -2.2 37.6 -2.35 L35.05 -2.65 Q34.35 -2.75 34.25 -2.45 33.1 -1.9 31.2 -1.95 L35.45 -1.75 37.35 -1.8 41.75 -2.05 43.2 -2.2 45.8 -2.25 46.75 -2.15 47.3 -2.05 49.0 -2.15 51.1 -1.95 Q52.0 -1.8 52.0 -1.55 52.0 -1.35 51.1 -1.15 L49.0 -0.95 47.6 -1.05 46.8 -1.15 Q45.9 -1.35 45.95 -1.55 L45.15 -1.5 42.5 -1.25 44.6 -1.15 47.6 -0.85 Q50.45 -0.4 50.45 0.2 50.45 0.8 47.6 1.25 L40.7 1.7 35.0 1.45 35.15 1.8 Q35.15 2.4 33.25 2.85 L28.6 3.3 25.15 3.1 24.0 2.85 23.6 2.75 22.35 3.65 21.6 3.95 Q14.45 6.35 7.8 4.05 L7.35 3.65 Q3.8 3.55 1.25 2.0 -1.4 0.35 -1.35 -1.9 -1.4 -4.25 1.25 -5.9 3.25 -7.1 5.95 -7.4 L8.0 -7.75 8.7 -7.8 8.95 -7.8 9.4 -7.8 13.0 -7.85 13.3 -7.9 13.45 -8.2 Q14.1 -9.3 16.05 -9.7 L18.05 -9.85 Q21.45 -8.8 21.2 -7.3 L25.15 -6.85 25.2 -6.8 Q27.15 -6.35 27.2 -5.6 27.15 -4.9 25.2 -4.4 L25.15 -4.35 25.1 -4.35 24.45 -4.2 25.15 -4.2 28.2 -4.4 32.9 -4.0 Q31.6 -4.45 31.6 -5.0 31.6 -5.65 33.45 -6.1 L37.9 -6.6 42.35 -6.1 Q43.65 -5.8 44.05 -5.35 L45.0 -5.7 48.45 -6.05 51.85 -5.7 Q53.3 -5.35 53.3 -4.9 53.3 -4.45 51.85 -4.1 L48.45 -3.75 45.0 -4.1 43.9 -4.5 Q43.45 -4.15 42.35 -3.85 L41.8 -3.75 42.35 -3.65 43.2 -3.4 45.65 -3.1 45.7 -2.95" fill="url(#gradient1)" fill-rule="evenodd" stroke="none"/>
    <path d="M64.8 -2.2 L66.1 -1.9 Q66.6 -1.6 66.6 -1.1 66.6 -0.65 66.1 -0.35 65.55 0.0 64.8 0.0 64.05 0.0 63.5 -0.35 63.0 -0.65 63.0 -1.1 63.0 -1.6 63.5 -1.9 L64.8 -2.2 M72.55 -1.35 L73.25 -1.5 73.95 -1.35 74.25 -0.9 73.95 -0.45 73.25 -0.25 Q72.85 -0.3 72.55 -0.45 72.25 -0.65 72.25 -0.9 L72.55 -1.35 M97.0 -2.4 L97.45 -2.6 98.25 -2.35 98.55 -2.25 Q99.1 -1.7 99.1 -1.0 L98.95 -0.5 Q97.7 0.6 96.1 -0.2 96.0 -0.6 96.4 -0.85 L96.85 -1.2 Q96.35 -1.95 97.0 -2.4" fill="#c434c5" fill-rule="evenodd" stroke="none"/>
  </g>
  <defs>
    <radialGradient cx="0" cy="0" gradientTransform="matrix(0.0237, 0.0, 0.0, 0.0146, 4.8, -2.35)" gradientUnits="userSpaceOnUse" id="gradient0" r="819.2" spreadMethod="pad">
      <stop offset="0.0" stop-color="#fdc4f7"/>
      <stop offset="1.0" stop-color="#9f048c"/>
    </radialGradient>
    <radialGradient cx="0" cy="0" gradientTransform="matrix(0.0237, 0.0, 0.0, 0.0146, 4.8, -2.35)" gradientUnits="userSpaceOnUse" id="gradient1" r="819.2" spreadMethod="pad">
      <stop offset="0.0" stop-color="#f1c9f0"/>
      <stop offset="1.0" stop-color="#c434c5"/>
    </radialGradient>
  </defs>
</svg>
