<?xml version="1.0" encoding="UTF-8" standalone="no"?>
<svg xmlns:xlink="http://www.w3.org/1999/xlink" height="25.3px" width="35.7px" xmlns="http://www.w3.org/2000/svg">
  <g transform="matrix(1.0, 0.0, 0.0, 1.0, 26.85, -8.0)">
    <path d="M7.7 13.4 Q8.7 13.5 8.85 14.35 8.95 15.55 7.7 15.9 L7.25 15.95 6.55 15.2 Q6.6 14.15 7.25 13.55 L7.7 13.4 M2.15 16.6 L-0.35 19.45 -1.1 20.05 -2.35 20.95 Q-2.45 21.9 -1.85 22.7 -1.4 23.2 -1.6 23.8 L-1.7 24.05 -2.45 24.0 -3.95 21.65 -5.1 21.55 Q-6.55 21.9 -7.6 22.95 L-9.0 24.05 Q-12.7 26.55 -16.8 27.9 -19.1 28.7 -21.15 30.15 L-23.6 32.2 Q-24.65 33.3 -25.95 33.3 L-26.75 33.2 Q-27.0 32.85 -26.55 32.35 L-25.6 31.3 Q-23.35 28.8 -20.5 27.45 L-20.65 27.45 -20.95 27.4 Q-21.25 27.1 -20.9 26.85 L-19.05 25.95 -15.6 24.45 -12.25 23.15 -11.05 22.65 Q-10.4 22.4 -9.95 21.6 -9.4 20.6 -8.15 20.6 L-5.0 20.25 -5.0 20.2 Q-5.2 19.45 -5.85 19.0 -7.3 17.9 -9.1 17.3 L-9.8 16.9 Q-9.9 16.1 -8.85 16.2 L-6.0 17.9 -4.35 18.1 Q-3.15 15.9 -2.75 13.25 L-2.6 12.85 -2.2 12.7 Q-1.85 13.3 -1.95 14.3 L-2.4 16.45 Q-2.65 17.35 -2.0 18.05 -0.9 18.1 0.0 17.3 0.35 17.05 0.8 16.9 L2.15 16.6 M2.15 21.3 L1.95 22.65 1.8 22.9 1.65 22.95 1.25 22.7 0.8 22.4 0.6 22.35 -0.7 22.7 -1.25 22.45 -1.4 22.3 -1.5 22.1 Q-1.45 21.5 -1.1 21.5 L0.2 21.5 2.15 21.3 M0.85 31.5 L0.5 31.75 Q0.0 32.1 -0.5 31.2 L-0.4 29.4 Q0.95 29.7 1.05 31.2 L0.85 31.5 M-0.45 9.7 Q-0.75 10.0 -1.15 10.0 L-1.85 9.7 -2.15 9.0 -1.85 8.3 Q-1.55 8.0 -1.15 8.0 -0.75 8.0 -0.45 8.3 -0.15 8.6 -0.15 9.0 -0.15 9.4 -0.45 9.7 M-13.8 14.7 L-13.65 15.3 -13.65 15.85 -13.9 16.15 -14.95 16.25 -16.3 15.7 Q-17.0 15.25 -17.05 14.5 L-17.0 13.8 Q-16.75 13.15 -16.05 13.2 L-15.8 13.3 Q-14.0 14.05 -13.8 14.7" fill="#dc72cf" fill-rule="evenodd" stroke="none"/>
    <path d="M7.7 13.4 Q8.7 13.5 8.85 14.35 8.95 15.55 7.7 15.9 L7.25 15.95 6.55 15.2 Q6.6 14.15 7.25 13.55 L7.7 13.4 M2.15 16.6 L-0.35 19.45 -1.1 20.05 -2.35 20.95 Q-2.45 21.9 -1.85 22.7 -1.4 23.2 -1.6 23.8 L-1.7 24.05 -2.45 24.0 -3.95 21.65 -5.1 21.55 Q-6.55 21.9 -7.6 22.95 L-9.0 24.05 Q-12.7 26.55 -16.8 27.9 -19.1 28.7 -21.15 30.15 L-23.6 32.2 Q-24.65 33.3 -25.95 33.3 L-26.75 33.2 Q-27.0 32.85 -26.55 32.35 L-25.6 31.3 Q-23.35 28.8 -20.5 27.45 L-20.65 27.45 -20.95 27.4 Q-21.25 27.1 -20.9 26.85 L-19.05 25.95 -15.6 24.45 -12.25 23.15 -11.05 22.65 Q-10.4 22.4 -9.95 21.6 -9.4 20.6 -8.15 20.6 L-5.0 20.25 -5.0 20.2 Q-5.2 19.45 -5.85 19.0 -7.3 17.9 -9.1 17.3 L-9.8 16.9 Q-9.9 16.1 -8.85 16.2 L-6.0 17.9 -4.35 18.1 Q-3.15 15.9 -2.75 13.25 L-2.6 12.85 -2.2 12.7 Q-1.85 13.3 -1.95 14.3 L-2.4 16.45 Q-2.65 17.35 -2.0 18.05 -0.9 18.1 0.0 17.3 0.35 17.05 0.8 16.9 L2.15 16.6 M2.15 21.3 L1.95 22.65 1.8 22.9 1.65 22.95 1.25 22.7 0.8 22.4 0.6 22.35 -0.7 22.7 -1.25 22.45 -1.4 22.3 -1.5 22.1 Q-1.45 21.5 -1.1 21.5 L0.2 21.5 2.15 21.3 M0.85 31.5 L1.05 31.2 Q0.95 29.7 -0.4 29.4 L-0.5 31.2 Q0.0 32.1 0.5 31.75 L0.85 31.5 M-0.45 9.7 Q-0.75 10.0 -1.15 10.0 L-1.85 9.7 -2.15 9.0 -1.85 8.3 Q-1.55 8.0 -1.15 8.0 -0.75 8.0 -0.45 8.3 -0.15 8.6 -0.15 9.0 -0.15 9.4 -0.45 9.7 M-13.8 14.7 Q-14.0 14.05 -15.8 13.3 L-16.05 13.2 Q-16.75 13.15 -17.0 13.8 L-17.05 14.5 Q-17.0 15.25 -16.3 15.7 L-14.95 16.25 -13.9 16.15 -13.65 15.85 -13.65 15.3 -13.8 14.7" fill="none" stroke="#eaace8" stroke-linecap="round" stroke-linejoin="round" stroke-width="0.05"/>
  </g>
</svg>
