<?xml version="1.0" encoding="UTF-8" standalone="no"?>
<svg xmlns:xlink="http://www.w3.org/1999/xlink" height="18.9px" width="32.3px" xmlns="http://www.w3.org/2000/svg">
  <g transform="matrix(1.0, 0.0, 0.0, 1.0, 18.1, -14.0)">
    <path d="M3.25 22.95 L4.0 22.9 Q4.8 23.75 5.95 23.75 L6.0 23.7 6.0 23.6 5.95 23.4 5.8 23.25 5.45 23.05 5.3 22.6 5.9 22.5 6.6 22.6 7.0 22.85 9.9 22.4 10.6 22.35 Q11.35 22.4 12.0 21.85 13.55 20.6 14.15 18.9 14.35 20.7 13.35 22.35 12.85 23.1 11.8 23.25 L10.75 23.65 Q8.9 24.35 6.9 24.25 L5.4 24.55 Q4.45 24.3 3.5 23.65 3.1 23.35 3.25 22.95 M0.25 23.9 Q-0.3 23.5 0.2 22.85 1.25 22.9 0.35 23.85 L0.25 23.9 M1.4 32.45 L1.35 32.8 1.15 32.9 1.0 32.8 0.9 32.45 1.0 32.15 1.15 32.0 1.35 32.15 1.4 32.45 M-16.45 14.55 L-16.45 14.6 -16.45 14.75 Q-16.55 15.3 -17.1 15.55 L-17.3 15.6 Q-17.7 15.65 -17.9 15.3 -18.35 14.7 -17.8 14.2 L-17.5 14.05 Q-16.95 13.9 -16.45 14.55" fill="#dc72cf" fill-rule="evenodd" stroke="none"/>
    <path d="M3.25 22.95 L4.0 22.9 Q4.8 23.75 5.95 23.75 L6.0 23.7 6.0 23.6 5.95 23.4 5.8 23.25 5.45 23.05 5.3 22.6 5.9 22.5 6.6 22.6 7.0 22.85 9.9 22.4 10.6 22.35 Q11.35 22.4 12.0 21.85 13.55 20.6 14.15 18.9 14.35 20.7 13.35 22.35 12.85 23.1 11.8 23.25 L10.75 23.65 Q8.9 24.35 6.9 24.25 L5.4 24.55 Q4.45 24.3 3.5 23.65 3.1 23.35 3.25 22.95 M0.25 23.9 Q-0.3 23.5 0.2 22.85 1.25 22.9 0.35 23.85 L0.25 23.9 M1.4 32.45 L1.35 32.8 1.15 32.9 1.0 32.8 0.9 32.45 1.0 32.15 1.15 32.0 1.35 32.15 1.4 32.45 M-16.45 14.75 L-16.45 14.55 -16.45 14.6 -16.45 14.75 Q-16.55 15.3 -17.1 15.55 L-17.3 15.6 Q-17.7 15.65 -17.9 15.3 -18.35 14.7 -17.8 14.2 L-17.5 14.05 Q-16.95 13.9 -16.45 14.55" fill="none" stroke="#eaace8" stroke-linecap="round" stroke-linejoin="round" stroke-width="0.05"/>
  </g>
</svg>
