<?xml version="1.0" encoding="UTF-8" standalone="no"?>
<svg xmlns:xlink="http://www.w3.org/1999/xlink" height="3.15px" width="2.3px" xmlns="http://www.w3.org/2000/svg">
  <g transform="matrix(1.0, 0.0, 0.0, 1.0, -15.95, -24.4)">
    <path d="M15.95 26.75 L17.15 26.65 Q17.75 25.95 17.55 24.9 L17.45 24.4 18.25 25.65 Q18.15 26.55 17.65 27.3 L17.5 27.45 Q17.1 27.65 16.6 27.45 L16.15 27.2 15.95 26.75" fill="#dc72cf" fill-rule="evenodd" stroke="none"/>
    <path d="M15.95 26.75 L17.15 26.65 Q17.75 25.95 17.55 24.9 L17.45 24.4 18.25 25.65 Q18.15 26.55 17.65 27.3 L17.5 27.45 Q17.1 27.65 16.6 27.45 L16.15 27.2 15.95 26.75 Z" fill="none" stroke="#eaace8" stroke-linecap="round" stroke-linejoin="round" stroke-width="0.05"/>
  </g>
</svg>
