<?xml version="1.0" encoding="UTF-8" standalone="no"?>
<svg xmlns:xlink="http://www.w3.org/1999/xlink" height="53.45px" width="111.3px" xmlns="http://www.w3.org/2000/svg">
  <g transform="matrix(1.0, 0.0, 0.0, 1.0, 9.15, 18.4)">
    <path d="M7.55 -7.95 L7.75 -8.05 Q14.3 -10.0 24.55 -9.45 24.0 -13.75 28.0 -17.25 29.05 -18.25 30.2 -18.4 36.15 -15.95 33.9 -8.35 40.85 -4.35 34.85 0.45 29.45 4.25 23.8 1.75 32.15 6.95 41.45 5.95 43.35 6.4 44.6 4.5 L45.2 3.25 45.3 2.7 45.15 2.0 44.1 0.8 48.8 0.5 Q65.2 -0.25 59.8 3.5 L53.75 5.6 Q57.6 4.6 56.95 8.55 56.85 11.7 48.5 9.9 L49.15 8.55 Q42.9 8.55 37.15 12.05 L39.95 13.2 Q73.6 7.3 67.25 12.05 L65.35 12.75 62.4 13.05 60.6 14.1 62.9 14.95 Q67.25 17.5 47.9 17.25 L54.9 18.9 Q62.85 20.8 48.5 22.9 L46.1 22.65 Q47.7 24.5 47.7 26.75 47.7 30.15 44.05 32.55 40.45 35.0 35.35 35.05 30.2 35.0 26.55 32.55 24.35 31.05 23.5 29.25 18.05 31.3 12.1 30.9 L1.65 29.7 Q-1.15 28.35 -3.4 25.1 -4.55 23.5 -5.3 21.7 -5.8 22.45 -6.4 22.45 -7.45 22.45 -8.2 20.15 -8.9 17.9 -8.95 14.85 -9.95 6.85 -5.8 3.45 -4.9 0.9 -3.4 -1.3 -1.45 -4.0 0.9 -5.3 -1.55 -11.1 3.75 -13.2 7.65 -10.85 7.55 -8.0 L7.55 -7.95" fill="url(#gradient0)" fill-rule="evenodd" stroke="none"/>
    <path d="M75.95 15.8 L76.75 15.5 76.0 15.8 75.95 15.8" fill="url(#gradient1)" fill-rule="evenodd" stroke="none"/>
    <path d="M102.15 6.0 L101.8 7.15 Q101.45 7.6 101.0 7.65 100.55 7.6 100.2 7.15 99.85 6.65 99.85 6.0 99.85 5.3 100.2 4.85 100.55 4.35 101.0 4.35 101.45 4.35 101.8 4.85 102.15 5.3 102.15 6.0 M92.8 11.2 Q93.35 12.0 93.35 13.2 93.35 14.35 92.8 15.15 92.2 16.0 91.4 16.0 90.6 16.0 90.0 15.15 89.4 14.35 89.45 13.2 89.4 12.0 90.0 11.2 90.6 10.35 91.4 10.4 92.2 10.35 92.8 11.2 M100.55 15.0 Q100.95 15.6 100.95 16.4 100.95 17.2 100.55 17.8 100.1 18.4 99.55 18.4 99.0 18.4 98.6 17.8 98.15 17.2 98.15 16.4 98.15 15.6 98.6 15.0 99.0 14.4 99.55 14.45 100.1 14.4 100.55 15.0 M71.75 4.0 L71.75 4.15 Q71.8 5.65 70.75 5.25 66.2 6.85 63.8 2.25 L64.4 1.2 Q70.1 -1.65 71.35 2.75 L71.75 4.0 M76.0 15.8 L75.45 16.05 75.4 16.1 75.45 16.0 75.55 15.95 75.15 16.0 Q74.25 16.0 73.6 15.1 72.95 14.15 72.95 12.85 72.95 11.5 73.6 10.6 74.25 9.7 75.15 9.7 76.1 9.7 76.75 10.6 77.35 11.5 77.35 12.85 77.35 14.15 76.75 15.1 L75.95 15.8 76.0 15.8 M68.7 19.9 L68.05 20.4 Q63.5 22.85 60.65 19.9 63.65 16.7 68.4 17.8 L68.9 19.25 68.7 19.9" fill="#000000" fill-rule="evenodd" stroke="none"/>
  </g>
  <defs>
    <radialGradient cx="0" cy="0" gradientTransform="matrix(0.0342, 0.0, 0.0, 0.0489, 1.7, 10.6)" gradientUnits="userSpaceOnUse" id="gradient0" r="819.2" spreadMethod="pad">
      <stop offset="0.0" stop-color="#f906c9"/>
      <stop offset="0.9803921568627451" stop-color="#000000"/>
    </radialGradient>
    <radialGradient cx="0" cy="0" gradientTransform="matrix(0.1673, 0.0, 0.0, 0.1673, 0.7, 12.9)" gradientUnits="userSpaceOnUse" id="gradient1" r="819.2" spreadMethod="pad">
      <stop offset="0.0" stop-color="#f906c9"/>
      <stop offset="0.9803921568627451" stop-color="#000000"/>
    </radialGradient>
  </defs>
</svg>
