<?xml version="1.0" encoding="UTF-8" standalone="no"?>
<svg xmlns:xlink="http://www.w3.org/1999/xlink" height="50.6px" width="112.25px" xmlns="http://www.w3.org/2000/svg">
  <g transform="matrix(1.0, 0.0, 0.0, 1.0, 9.05, 16.6)">
    <path d="M13.6 -12.95 Q20.2 -10.15 15.7 -4.25 19.75 -1.6 24.3 -2.8 L25.0 -3.3 25.35 -4.1 Q27.7 -7.55 32.35 -7.55 L37.0 -7.1 Q36.6 -7.85 36.45 -8.8 35.1 -15.95 40.4 -16.6 44.35 -15.85 46.15 -10.9 L46.2 -10.55 Q45.0 -6.35 43.15 -5.0 L45.65 -3.7 45.85 -3.05 Q46.25 4.0 34.55 2.25 33.5 0.7 32.35 0.05 31.2 -0.55 29.9 -0.4 27.85 -0.05 26.6 2.25 29.25 6.4 32.35 7.3 35.25 8.1 38.55 6.0 L39.5 5.4 39.75 4.65 Q45.5 10.1 51.5 4.35 L50.95 3.25 49.65 1.6 49.1 1.05 Q65.45 -5.2 65.0 0.45 57.8 8.2 48.9 8.7 67.6 8.75 63.25 11.45 62.4 13.5 59.75 13.8 62.5 14.3 64.75 15.65 L64.9 15.4 Q65.4 14.75 66.1 14.75 66.75 14.75 67.25 15.4 67.75 16.15 67.75 17.15 L67.65 18.05 Q68.85 19.65 68.85 21.55 68.85 24.95 65.0 27.25 61.15 29.65 55.75 29.65 50.3 29.65 46.45 27.25 42.6 24.95 42.6 21.55 42.6 19.7 43.7 18.2 38.45 16.5 33.65 20.3 34.8 20.45 35.75 20.9 37.05 21.6 37.05 22.6 37.05 23.6 35.75 24.25 34.4 25.0 32.5 25.0 L32.35 25.0 31.3 24.95 Q22.7 30.2 13.15 29.8 L12.1 29.85 Q11.65 29.7 11.65 30.0 L7.75 30.6 7.35 30.6 5.9 30.7 4.45 30.55 Q3.7 31.9 2.15 33.4 0.45 34.95 -0.75 32.65 -2.65 29.2 -2.0 26.9 L-2.7 26.05 Q-4.75 26.6 -7.15 22.85 -10.35 17.8 -8.1 12.7 L-7.8 12.55 -7.3 12.35 -7.15 12.4 -7.15 12.0 Q-7.2 4.25 -3.4 -1.3 0.35 -6.55 5.6 -6.65 6.7 -7.25 7.35 -7.45 L7.75 -7.45 7.75 -7.55 8.6 -7.25 10.2 -7.1 Q9.4 -10.5 13.1 -12.7 L13.6 -12.95" fill="url(#gradient0)" fill-rule="evenodd" stroke="none"/>
    <path d="M102.15 11.55 L101.4 11.05 Q101.1 10.6 101.1 10.05 101.1 9.45 101.4 8.95 101.75 8.55 102.15 8.55 102.55 8.55 102.85 8.95 103.2 9.45 103.2 10.05 L102.85 11.05 102.15 11.55 M89.75 12.6 Q90.5 13.7 90.5 15.25 90.5 16.8 89.75 17.9 88.95 19.0 87.9 19.0 86.8 19.0 86.05 17.9 85.25 16.8 85.3 15.25 85.25 13.7 86.05 12.6 86.8 11.5 87.9 11.55 88.95 11.5 89.75 12.6 M71.45 9.45 Q71.45 8.65 71.8 8.05 72.2 7.55 72.8 7.55 73.35 7.55 73.7 8.05 74.1 8.65 74.1 9.45 74.1 10.3 73.7 10.8 73.35 11.35 72.8 11.35 72.2 11.35 71.8 10.8 71.45 10.3 71.45 9.45 M65.15 7.3 Q65.8 6.45 66.65 6.5 67.5 6.45 68.1 7.3 68.75 8.2 68.75 9.45 68.75 10.7 68.1 11.55 67.5 12.45 66.65 12.45 65.8 12.45 65.15 11.55 64.55 10.7 64.6 9.45 64.55 8.2 65.15 7.3" fill="#000000" fill-rule="evenodd" stroke="none"/>
  </g>
  <defs>
    <radialGradient cx="0" cy="0" gradientTransform="matrix(0.0421, 0.0, 0.0, 0.0603, 1.7, 10.6)" gradientUnits="userSpaceOnUse" id="gradient0" r="819.2" spreadMethod="pad">
      <stop offset="0.0" stop-color="#f906c9"/>
      <stop offset="0.9803921568627451" stop-color="#000000"/>
    </radialGradient>
  </defs>
</svg>
