<?xml version="1.0" encoding="UTF-8" standalone="no"?>
<svg xmlns:xlink="http://www.w3.org/1999/xlink" height="81.35px" width="81.35px" xmlns="http://www.w3.org/2000/svg">
  <g transform="matrix(1.0, 0.0, 0.0, 1.0, 40.6, 40.1)">
    <path d="M6.1 -5.65 Q8.3 -3.4 8.3 -0.2 8.3 3.0 6.1 5.25 3.85 7.5 0.65 7.55 -2.5 7.5 -4.75 5.25 -7.0 3.0 -7.0 -0.2 -7.0 -3.4 -4.75 -5.65 -2.5 -7.95 0.65 -7.95 3.85 -7.95 6.1 -5.65" fill="#f1f2ff" fill-rule="evenodd" stroke="none"/>
    <path d="M6.45 -10.95 L6.35 -5.35 6.4 -4.75 6.35 -4.1 6.3 -3.6 6.05 -2.7 5.65 -1.95 8.9 -1.15 6.2 -0.9 Q6.35 -0.15 8.85 0.8 5.9 1.45 9.8 2.45 5.15 3.05 7.4 3.65 L5.8 4.1 7.4 5.95 Q3.7 4.35 8.9 8.85 2.75 6.05 5.65 9.05 1.3 7.45 0.1 7.85 -0.5 8.0 3.2 10.35 L-2.4 7.8 -2.95 9.5 -2.6 7.75 -3.25 7.45 -4.75 11.45 Q-4.5 7.45 -6.2 14.2 -5.75 7.5 -6.95 11.5 -6.9 6.95 -7.35 6.1 -7.55 5.65 -8.25 10.0 L-7.95 5.7 -10.6 7.75 -10.6 7.8 -10.6 7.75 Q-7.95 5.3 -8.55 5.4 -9.05 5.5 -10.6 6.5 L-12.8 8.1 Q-10.55 5.2 -15.2 9.3 -11.35 4.45 -14.25 6.75 -11.8 3.3 -11.6 2.35 -11.55 1.85 -14.3 4.75 L-10.75 0.3 -10.6 0.1 -10.5 0.0 -12.25 -6.3 Q-10.75 -2.65 -10.4 -3.45 -10.05 -4.5 -11.1 -9.25 -8.7 -6.05 -10.95 -12.5 L-8.4 -9.5 Q-7.5 -8.85 -8.05 -11.05 L-5.95 -8.8 -5.75 -10.65 -5.75 -8.6 -5.25 -8.15 -4.8 -10.05 -5.25 -10.95 -4.8 -10.25 -4.4 -12.45 Q-4.0 -8.8 -3.55 -14.95 -2.85 -8.8 -2.4 -12.5 L-2.15 -10.85 -1.9 -11.4 -2.1 -10.6 -1.6 -8.55 -1.0 -9.5 -1.0 -11.1 -0.85 -9.7 0.8 -13.05 Q0.8 -9.1 2.85 -15.55 2.8 -12.55 3.1 -11.65 3.45 -10.6 4.3 -12.7 4.6 -8.1 5.4 -7.1 5.75 -6.65 6.45 -10.95" fill="url(#gradient0)" fill-rule="evenodd" stroke="none"/>
    <path d="M-28.55 -28.35 Q-16.6 -40.2 0.3 -40.1 17.15 -40.05 29.0 -28.1 40.85 -16.15 40.75 0.75 40.65 17.65 28.7 29.5 16.75 41.35 -0.15 41.25 -17.0 41.2 -28.85 29.25 -40.7 17.3 -40.6 0.4 -40.5 -16.5 -28.55 -28.35" fill="url(#gradient1)" fill-rule="evenodd" stroke="none"/>
  </g>
  <defs>
    <radialGradient cx="0" cy="0" gradientTransform="matrix(0.0219, 0.0, 0.0, 0.0219, -4.0, 1.05)" gradientUnits="userSpaceOnUse" id="gradient0" r="819.2" spreadMethod="pad">
      <stop offset="0.4549019607843137" stop-color="#ffffff"/>
      <stop offset="0.7372549019607844" stop-color="#d6d9fe"/>
      <stop offset="1.0" stop-color="#703cf9"/>
    </radialGradient>
    <radialGradient cx="0" cy="0" gradientTransform="matrix(0.0518, 0.0, 0.0, 0.0518, 0.65, 1.1)" gradientUnits="userSpaceOnUse" id="gradient1" r="819.2" spreadMethod="pad">
      <stop offset="0.011764705882352941" stop-color="#ffffff"/>
      <stop offset="1.0" stop-color="#ffffff" stop-opacity="0.0"/>
    </radialGradient>
  </defs>
</svg>
