<?xml version="1.0" encoding="UTF-8" standalone="no"?>
<svg xmlns:xlink="http://www.w3.org/1999/xlink" height="78.05px" width="90.4px" xmlns="http://www.w3.org/2000/svg">
  <g transform="matrix(1.0, 0.0, 0.0, 1.0, 47.15, 49.85)">
    <path d="M11.5 -41.65 Q13.75 -46.15 17.1 -49.85 L18.0 -49.7 19.6 -49.15 21.35 -48.15 28.75 -48.35 Q34.0 -47.45 36.05 -42.65 36.8 -40.95 36.65 -39.1 36.05 -33.15 32.3 -28.35 L25.35 -29.95 Q27.1 -29.6 28.8 -30.4 30.4 -31.2 31.25 -32.75 32.7 -35.55 31.35 -38.4 30.2 -40.9 27.7 -42.0 L26.75 -39.45 22.85 -38.3 24.6 -40.4 24.6 -41.8 Q21.95 -45.05 17.75 -44.25 16.35 -44.0 15.15 -43.2 L14.2 -38.95 11.5 -41.65 M27.35 -19.75 L27.15 -14.5 Q28.9 -14.8 30.5 -15.65 33.8 -17.4 36.65 -19.9 37.25 -20.4 38.1 -20.4 38.75 -20.4 39.25 -19.95 41.5 -18.1 42.45 -15.25 44.25 -9.3 42.0 -3.5 L41.7 -3.15 42.0 -5.45 Q42.25 -10.95 37.85 -14.3 35.75 -15.9 33.35 -14.95 30.55 -13.9 29.15 -11.25 L29.6 -9.35 26.05 -11.45 25.75 -12.35 Q24.65 -16.45 27.35 -19.75 M-44.05 3.7 Q-48.1 1.3 -46.9 -3.35 -46.45 -5.2 -44.95 -6.45 -45.5 -9.25 -43.55 -11.3 -40.45 -10.5 -37.85 -12.3 L-37.0 -13.05 Q-32.25 -11.7 -27.7 -13.7 -30.15 -17.2 -29.1 -21.25 -34.85 -24.45 -35.05 -31.0 -35.1 -32.35 -34.3 -33.4 -33.45 -34.6 -32.15 -35.25 -26.65 -35.0 -25.3 -29.65 L-32.75 -29.0 -33.05 -27.8 -30.35 -25.45 -28.5 -25.2 -27.65 -23.6 Q-27.15 -22.55 -26.95 -21.35 L-25.65 -14.8 -20.15 -12.9 -19.25 -11.45 Q-26.5 -12.25 -32.95 -9.0 -31.85 -8.35 -31.35 -7.15 -30.6 -5.4 -31.3 -3.6 L-31.55 -6.0 Q-32.75 -6.8 -34.05 -7.25 -38.3 -8.65 -41.6 -5.55 -45.75 -1.75 -44.05 3.7 M-24.65 -36.35 Q-25.7 -39.05 -23.0 -40.4 L-20.95 -41.25 Q-16.55 -42.85 -11.95 -41.65 L-10.9 -41.6 Q-4.65 -42.15 0.55 -38.7 2.75 -37.2 4.35 -35.05 L3.25 -35.05 Q1.75 -32.8 0.7 -33.3 -0.95 -34.05 -3.8 -35.5 -6.7 -36.95 -9.25 -37.15 L-12.6 -37.3 -24.65 -36.35 M5.15 -34.95 L5.45 -35.15 5.3 -35.0 5.15 -34.95 M4.85 -7.7 Q9.0 -6.1 9.65 -1.75 7.95 -4.65 4.85 -5.7 2.1 -6.65 -0.65 -5.75 -2.8 -5.05 -4.4 -3.55 -6.4 -2.3 -2.85 1.1 L-3.65 1.95 -4.55 1.0 Q-5.3 0.25 -5.8 -1.2 -6.4 -2.7 -5.25 -5.1 -1.15 -7.95 3.8 -7.95 L4.85 -7.7" fill="#bfbfbf" fill-rule="evenodd" stroke="none"/>
    <path d="M32.3 -28.35 Q29.5 -24.85 27.8 -20.75 L27.35 -19.75 Q24.65 -16.45 25.75 -12.35 L26.05 -11.45 29.6 -9.35 29.15 -11.25 Q30.55 -13.9 33.35 -14.95 35.75 -15.9 37.85 -14.3 42.25 -10.95 42.0 -5.45 L41.7 -3.15 42.0 -3.5 Q40.9 1.75 36.05 3.85 L31.5 5.65 26.95 7.45 Q26.15 11.05 27.7 14.4 L27.85 15.4 Q27.55 17.9 25.85 19.85 23.5 22.55 20.05 22.1 18.55 21.9 17.25 21.05 L14.05 19.0 Q13.35 18.55 12.55 18.65 9.05 19.05 7.5 22.25 3.55 20.45 0.05 17.95 -0.85 17.3 -1.85 17.0 -5.0 15.9 -8.25 16.35 L-9.7 24.55 -10.1 25.7 Q-10.9 27.0 -12.1 27.9 -17.1 29.25 -19.1 24.55 L-19.65 22.8 Q-23.8 21.35 -26.9 18.4 L-27.7 17.15 -27.9 15.55 -31.6 10.85 -32.75 10.0 Q-36.2 8.65 -39.35 6.9 L-44.05 3.7 Q-45.75 -1.75 -41.6 -5.55 -38.3 -8.65 -34.05 -7.25 -32.75 -6.8 -31.55 -6.0 L-31.3 -3.6 Q-30.6 -5.4 -31.35 -7.15 -31.85 -8.35 -32.95 -9.0 -26.5 -12.25 -19.25 -11.45 L-20.15 -12.9 -25.65 -14.8 -26.95 -21.35 Q-27.15 -22.55 -27.65 -23.6 L-28.5 -25.2 -30.35 -25.45 -33.05 -27.8 -32.75 -29.0 -25.3 -29.65 -18.2 -26.25 -18.45 -26.95 -18.2 -27.85 -24.65 -36.35 -12.6 -37.3 -9.25 -37.15 Q-6.7 -36.95 -3.8 -35.5 -0.95 -34.05 0.7 -33.3 1.75 -32.8 3.25 -35.05 L4.35 -35.05 4.65 -34.7 5.15 -34.95 5.3 -35.0 5.45 -35.15 Q8.9 -37.3 11.0 -40.75 L11.5 -41.65 14.2 -38.95 15.15 -43.2 Q16.35 -44.0 17.75 -44.25 21.95 -45.05 24.6 -41.8 L24.6 -40.4 22.85 -38.3 26.75 -39.45 27.7 -42.0 Q30.2 -40.9 31.35 -38.4 32.7 -35.55 31.25 -32.75 30.4 -31.2 28.8 -30.4 27.1 -29.6 25.35 -29.95 L32.3 -28.35 M4.85 -7.7 L3.8 -7.95 Q-1.15 -7.95 -5.25 -5.1 -6.4 -2.7 -5.8 -1.2 -5.3 0.25 -4.55 1.0 L-3.65 1.95 -2.85 1.1 Q-6.4 -2.3 -4.4 -3.55 -2.8 -5.05 -0.65 -5.75 2.1 -6.65 4.85 -5.7 7.95 -4.65 9.65 -1.75 9.0 -6.1 4.85 -7.7" fill="#999999" fill-rule="evenodd" stroke="none"/>
    <path d="M17.15 -18.5 Q19.6 -16.3 21.3 -13.55 L24.05 -8.4 25.05 -5.55 25.2 -4.8 25.4 -3.35 Q25.7 0.6 24.05 4.3 22.55 7.55 19.6 9.5 18.05 10.5 16.3 11.0 L15.5 10.9 Q14.9 10.6 14.7 9.95 L14.4 8.4 Q14.25 7.5 13.6 6.95 12.95 6.35 12.15 6.2 L11.5 6.1 11.35 5.9 11.25 5.65 11.1 5.15 11.1 4.9 Q11.2 3.2 12.9 2.75 L14.6 2.2 18.4 -0.3 18.45 -1.05 18.5 -1.85 18.5 -3.4 18.5 -4.05 Q18.25 -7.0 17.0 -9.55 15.45 -12.75 12.8 -15.2 11.35 -16.6 9.45 -17.25 L6.7 -17.8 4.95 -17.7 3.7 -17.45 0.15 -11.85 0.05 -10.15 -1.05 -9.85 -2.55 -17.15 -3.1 -17.1 -3.65 -17.05 -4.8 -16.9 -5.85 -16.65 Q-8.6 -15.85 -10.85 -14.15 -11.95 -13.3 -12.2 -11.9 L-13.4 -7.05 Q-14.1 -4.75 -15.3 -2.65 L-15.9 -1.6 -11.65 6.7 -7.95 8.2 -7.3 7.95 -6.6 7.8 -5.25 7.55 -4.95 7.6 Q-3.8 7.9 -3.2 9.05 -2.55 10.4 -2.7 11.95 -2.85 13.05 -3.35 14.05 -3.95 15.2 -5.0 15.95 -6.2 16.75 -7.55 16.95 L-8.4 17.05 -9.35 17.0 -11.2 16.65 Q-13.95 16.0 -16.15 14.25 -19.9 11.35 -22.05 7.2 -24.3 2.85 -24.5 -2.0 -24.75 -6.25 -23.4 -10.25 -22.65 -12.6 -21.3 -14.65 -19.0 -18.25 -15.9 -21.15 L-13.85 -23.1 -1.8 -19.2 3.45 -21.6 4.15 -21.85 5.6 -22.2 6.3 -22.35 Q9.1 -22.7 11.8 -21.7 14.75 -20.6 17.15 -18.5" fill="#666666" fill-rule="evenodd" stroke="none"/>
    <path d="M30.3 -27.0 Q31.4 -25.65 31.9 -24.0 32.65 -21.65 31.35 -19.7 30.9 -19.0 30.15 -18.7 L27.35 -17.9 26.75 -18.9 28.6 -19.75 Q29.8 -20.2 30.35 -21.55 31.0 -23.15 30.1 -24.45 L26.25 -27.65 Q22.4 -27.65 21.45 -24.1 L20.3 -19.4 Q19.7 -16.65 18.15 -14.0 21.45 -14.15 24.45 -12.45 27.85 -10.4 29.45 -6.95 L30.2 -5.15 Q31.15 -1.45 30.3 2.05 29.35 5.9 26.0 8.0 23.95 9.3 21.6 8.85 L21.35 7.7 Q23.7 6.2 24.95 3.9 26.0 2.05 26.2 0.0 26.6 -3.55 24.45 -6.6 L23.4 -6.7 Q22.1 -5.4 21.5 -3.7 L18.85 3.95 17.6 3.8 Q17.3 1.35 16.15 -0.85 14.65 -3.75 12.0 -5.65 L10.85 -5.55 10.4 -5.05 9.45 -4.4 8.4 -4.1 8.4 -7.25 6.8 -7.25 6.7 -8.4 Q9.25 -9.3 10.75 -11.55 L11.65 -13.15 Q13.9 -17.85 11.95 -22.6 10.75 -25.55 8.2 -27.4 L7.6 -27.2 6.6 -27.45 5.65 -27.95 Q6.7 -31.05 9.35 -33.1 8.3 -35.3 6.45 -37.05 L5.3 -38.0 Q1.2 -37.9 -1.45 -34.7 L-2.75 -32.45 Q-3.4 -30.7 -3.05 -28.8 -2.6 -26.3 -1.2 -23.85 L-1.8 -23.6 -2.6 -23.15 -3.7 -23.15 Q-7.5 -24.5 -8.5 -28.6 -8.8 -29.8 -8.7 -31.05 -8.6 -32.65 -8.1 -34.15 -7.5 -35.9 -6.4 -37.45 L-3.85 -40.25 -0.3 -42.55 Q2.85 -44.05 6.4 -43.6 9.7 -43.15 12.55 -41.35 15.3 -39.65 17.15 -37.1 19.55 -33.9 20.15 -29.95 L22.7 -31.6 Q27.35 -30.75 30.3 -27.0 M-24.95 -12.55 Q-25.85 -8.15 -24.15 -3.95 L-20.35 -4.6 -19.95 -3.8 -21.4 -1.3 -18.7 2.15 -19.45 3.35 Q-21.2 2.75 -22.4 1.3 L-23.25 0.1 -23.9 1.25 -24.1 2.2 -24.05 2.6 -21.7 4.8 -22.75 5.45 Q-24.45 5.35 -25.45 3.85 -27.2 1.2 -26.05 -1.85 -27.9 -4.55 -28.65 -7.8 -29.1 -11.1 -28.2 -14.05 -27.15 -17.55 -24.6 -19.9 -21.85 -22.5 -18.0 -22.9 -14.0 -23.35 -10.6 -21.4 -7.2 -19.5 -5.6 -16.2 -4.85 -14.6 -4.95 -12.7 -4.95 -10.5 -5.95 -8.5 -6.75 -6.95 -8.45 -6.8 -8.65 -8.55 -8.0 -10.05 -7.55 -10.95 -7.55 -12.0 L-7.65 -14.85 Q-10.5 -17.9 -14.05 -20.15 L-14.25 -11.85 Q-14.35 -9.95 -15.4 -8.35 L-16.6 -6.85 -17.45 -5.95 -18.3 -6.25 -18.65 -7.5 Q-17.25 -9.65 -17.6 -12.35 -17.95 -15.4 -19.9 -17.65 L-22.55 -18.05 Q-24.35 -15.55 -24.95 -12.55" fill="#f1f2ff" fill-rule="evenodd" stroke="none"/>
    <path d="M5.65 -41.4 L5.9 -40.7 5.95 -40.15 5.25 -39.9 3.85 -42.0 4.4 -42.4 5.3 -41.85 5.65 -41.4 M8.65 -28.7 L8.55 -30.3 6.25 -32.75 3.95 -33.0 4.55 -33.4 4.55 -33.95 Q9.35 -33.35 8.65 -28.7 M10.5 -35.35 L10.4 -35.95 Q11.45 -37.6 10.6 -39.35 12.55 -37.35 11.25 -35.0 L10.5 -35.35 M14.2 -32.25 Q15.05 -29.65 13.25 -27.85 15.6 -27.05 15.15 -24.7 9.3 -29.4 14.95 -35.7 L15.85 -34.5 Q15.7 -33.3 14.75 -32.6 L14.2 -32.25 M18.45 -25.3 Q20.65 -22.3 19.25 -18.95 L18.9 -18.2 Q16.9 -19.95 17.3 -22.65 L17.8 -25.05 18.45 -25.3 M17.4 -28.35 L17.0 -29.45 17.6 -29.8 Q19.45 -29.2 19.75 -27.2 L19.75 -26.4 Q18.05 -26.85 17.4 -28.35 M20.35 -24.4 Q23.35 -24.6 23.95 -21.1 L24.05 -20.15 20.35 -24.4 M24.05 -15.7 L24.7 -16.05 25.2 -15.85 25.95 -14.05 25.8 -12.55 24.8 -12.5 24.05 -15.7 M26.45 -6.8 L26.25 -5.75 25.8 -5.3 Q25.55 -5.3 25.35 -5.75 L25.15 -6.8 25.35 -7.85 25.8 -8.3 26.25 -7.85 26.45 -6.8 M23.65 -11.4 Q21.55 -10.4 20.45 -12.4 21.85 -12.95 23.05 -11.9 L23.65 -11.4 M28.95 -0.9 L28.25 -1.15 28.9 -3.9 29.3 -3.7 29.4 -3.4 Q29.8 -1.95 28.95 -0.9 M27.7 4.6 Q28.05 4.6 28.35 4.95 L28.6 5.75 28.35 6.6 27.7 6.9 Q27.35 6.9 27.1 6.6 26.8 6.25 26.8 5.75 26.8 5.25 27.1 4.95 L27.7 4.6 M25.95 14.0 L25.35 13.75 25.35 13.25 26.95 12.3 27.45 12.45 27.75 13.0 Q27.5 14.45 25.95 14.0 M21.0 17.2 L21.05 16.7 24.0 15.85 24.2 16.25 22.25 17.55 21.0 17.2 M-3.15 -34.25 L-5.95 -35.35 -6.15 -34.7 -7.75 -34.85 Q-7.05 -38.35 -3.6 -37.65 L-4.3 -36.95 Q-1.3 -36.15 -1.65 -33.1 L-1.85 -32.1 -3.15 -34.25 M-7.55 -27.6 L-7.7 -27.1 -9.5 -26.65 -8.35 -29.85 Q-7.15 -29.0 -7.55 -27.6 M-25.5 -15.4 Q-25.7 -15.25 -25.9 -15.25 L-26.8 -15.3 Q-27.65 -12.4 -27.25 -9.3 L-26.95 -7.4 -28.15 -9.55 Q-29.1 -12.1 -28.3 -14.7 L-27.7 -16.5 -26.0 -16.75 -24.45 -16.2 -24.6 -16.05 -25.05 -15.5 -25.5 -15.4 M-25.6 -2.3 L-24.95 -1.85 -25.0 -1.1 -26.1 0.1 -25.1 3.15 Q-27.5 2.35 -27.85 -0.25 L-25.6 -2.3 M-22.3 -3.95 L-21.3 -3.75 -21.15 -3.35 -21.65 -0.3 -20.05 0.65 Q-20.9 1.0 -21.95 -0.6 -23.05 -2.25 -22.3 -3.95 M-15.3 7.75 Q-16.4 6.9 -16.2 5.7 L-15.9 4.35 -15.45 4.55 -15.3 7.75" fill="#ffffff" fill-rule="evenodd" stroke="none"/>
  </g>
</svg>
