<?xml version="1.0" encoding="UTF-8" standalone="no"?>
<svg xmlns:xlink="http://www.w3.org/1999/xlink" height="94.75px" width="103.3px" xmlns="http://www.w3.org/2000/svg">
  <g transform="matrix(1.0, 0.0, 0.0, 1.0, 57.35, 66.2)">
    <path d="M31.2 -35.1 L29.85 -38.5 30.8 -41.35 31.95 -41.0 32.7 -42.25 Q29.95 -47.4 25.15 -50.65 L23.35 -51.7 20.1 -53.15 20.1 -48.65 12.3 -48.0 14.9 -44.9 10.85 -45.35 10.35 -41.35 Q7.05 -43.6 3.7 -45.8 L6.35 -46.95 4.85 -53.95 6.25 -54.4 Q11.25 -55.7 14.25 -51.35 18.3 -57.4 24.8 -54.0 28.6 -52.05 31.7 -49.05 34.35 -46.5 34.6 -43.0 34.95 -38.2 31.2 -35.1 M-2.15 -48.45 L3.05 -38.25 Q-3.85 -44.1 -13.0 -43.9 L-18.55 -43.2 -19.0 -39.45 -21.6 -36.1 -19.9 -27.8 -24.85 -29.3 -24.5 -39.2 -22.8 -40.05 Q-22.35 -43.45 -22.45 -46.75 -22.6 -49.2 -23.25 -51.55 L-21.0 -52.8 Q-14.65 -55.4 -8.9 -51.2 -7.8 -50.4 -6.4 -49.8 L-2.15 -48.45 M-26.65 -29.65 L-28.65 -29.1 -29.15 -28.15 Q-30.6 -25.45 -33.1 -23.85 -35.35 -22.45 -34.5 -19.9 L-28.3 -18.05 Q-22.75 -16.3 -22.5 -10.5 -30.7 -14.55 -37.2 -8.2 L-37.35 -7.6 Q-38.3 -3.3 -36.5 0.85 -44.9 -2.85 -44.25 -11.75 L-43.9 -12.65 Q-40.8 -16.55 -36.0 -18.15 L-36.05 -23.95 -30.7 -31.25 -26.65 -29.65 M-12.9 -11.05 Q-6.85 -18.85 3.3 -19.2 L3.25 -19.3 Q1.15 -22.4 -2.85 -22.9 L-6.2 -23.4 Q0.2 -26.55 5.35 -21.65 6.65 -20.4 6.75 -18.5 8.35 -17.75 10.8 -17.0 17.15 -15.1 20.8 -9.55 L18.5 -0.95 Q15.75 -11.75 4.7 -13.75 -4.55 -15.45 -12.9 -11.05 M27.05 -18.9 Q26.35 -20.45 27.05 -21.95 27.8 -23.6 28.15 -25.3 28.95 -29.6 25.55 -32.3 L19.9 -31.6 20.45 -32.15 Q25.0 -36.15 31.0 -34.65 34.35 -27.05 29.45 -20.9 28.45 -19.65 27.05 -18.9 M33.55 -22.65 L33.1 -24.8 38.6 -26.55 Q41.65 -24.55 43.05 -21.15 44.3 -18.1 43.65 -14.8 43.65 -18.05 40.7 -20.35 37.7 -22.65 33.55 -22.65 M-27.9 -59.1 Q-27.8 -62.2 -25.75 -64.25 -23.7 -66.35 -20.95 -66.2 -18.25 -66.05 -16.35 -63.8 -14.5 -61.6 -14.6 -58.55 -20.8 -63.55 -27.45 -59.4 L-27.9 -59.1 M-56.0 -19.75 Q-53.55 -25.15 -47.85 -23.8 L-47.1 -23.6 Q-44.2 -20.45 -45.75 -16.55 -46.15 -15.65 -46.7 -14.95 -45.4 -17.8 -46.9 -20.6 L-47.2 -21.15 Q-51.75 -23.3 -55.55 -20.15 L-56.0 -19.75 M-50.1 -0.9 Q-57.35 -5.5 -57.35 -14.05 L-57.3 -15.1 -51.7 -9.1 -54.0 -8.75 -54.7 -7.65 -50.1 -0.9" fill="#bfbfbf" fill-rule="evenodd" stroke="none"/>
    <path d="M3.7 -45.8 Q7.05 -43.6 10.35 -41.35 L10.85 -45.35 14.9 -44.9 12.3 -48.0 20.1 -48.65 20.1 -53.15 23.35 -51.7 25.15 -50.65 Q29.95 -47.4 32.7 -42.25 L31.95 -41.0 30.8 -41.35 29.85 -38.5 31.2 -35.1 31.0 -34.65 Q25.0 -36.15 20.45 -32.15 L19.9 -31.6 25.55 -32.3 Q28.95 -29.6 28.15 -25.3 27.8 -23.6 27.05 -21.95 26.35 -20.45 27.05 -18.9 L25.3 -13.8 Q34.1 -5.35 29.95 6.1 27.35 13.15 20.3 11.3 18.8 10.95 17.8 9.85 L16.65 8.45 Q17.9 6.8 18.45 4.85 19.25 1.95 18.5 -0.95 L20.8 -9.55 Q17.15 -15.1 10.8 -17.0 8.35 -17.75 6.75 -18.5 6.65 -20.4 5.35 -21.65 0.2 -26.55 -6.2 -23.4 L-2.85 -22.9 Q1.15 -22.4 3.25 -19.3 L3.3 -19.2 Q-6.85 -18.85 -12.9 -11.05 -18.35 -5.65 -16.7 2.3 -15.95 5.8 -14.6 9.05 -10.85 18.1 -0.9 19.4 L3.05 19.55 7.3 13.85 -1.25 3.4 2.1 0.35 Q11.55 3.7 13.2 13.45 14.0 18.35 11.6 22.55 10.25 24.8 7.7 25.35 L5.2 25.65 Q2.0 29.35 -3.3 28.35 -6.55 27.75 -9.6 26.55 -15.55 24.1 -19.5 18.9 L-22.45 15.6 Q-25.75 12.55 -29.35 9.95 -30.2 5.7 -33.45 2.85 -34.8 1.65 -36.5 0.85 -38.3 -3.3 -37.35 -7.6 L-37.2 -8.2 Q-30.7 -14.55 -22.5 -10.5 -22.75 -16.3 -28.3 -18.05 L-34.5 -19.9 Q-35.35 -22.45 -33.1 -23.85 -30.6 -25.45 -29.15 -28.15 L-28.65 -29.1 -26.65 -29.65 -24.85 -29.3 -19.9 -27.8 -21.6 -36.1 -19.0 -39.45 -18.55 -43.2 -13.0 -43.9 Q-3.85 -44.1 3.05 -38.25 L-2.15 -48.45 1.4 -45.8 3.7 -45.8 M43.65 -14.8 Q42.95 -9.9 38.15 -10.6 L37.8 -10.7 37.45 -20.0 34.85 -21.95 34.15 -21.85 33.55 -22.65 Q37.7 -22.65 40.7 -20.35 43.65 -18.05 43.65 -14.8 M-14.6 -58.55 Q-17.05 -56.35 -19.6 -58.65 L-19.9 -59.0 -25.25 -59.55 -29.35 -50.4 -27.9 -59.1 -27.45 -59.4 Q-20.8 -63.55 -14.6 -58.55 M-56.0 -19.75 L-55.55 -20.15 Q-51.75 -23.3 -47.2 -21.15 L-46.9 -20.6 Q-45.4 -17.8 -46.7 -14.95 -48.3 -13.9 -49.15 -12.2 -50.1 -10.5 -49.25 -8.8 -47.25 -4.7 -46.3 -0.65 L-50.1 -0.9 -54.7 -7.65 -54.0 -8.75 -51.7 -9.1 -57.3 -15.1 -56.0 -19.75" fill="#999999" fill-rule="evenodd" stroke="none"/>
    <path d="M0.1 2.15 Q5.35 3.4 8.35 7.95 11.25 12.3 10.7 17.6 10.15 23.2 4.95 25.4 2.65 26.35 0.25 26.25 -4.6 26.15 -9.0 24.5 -11.25 23.65 -12.7 21.8 L-14.55 19.9 Q-16.4 18.2 -17.7 16.15 -19.25 13.75 -18.9 11.05 L-18.1 10.75 -20.65 5.5 -20.0 0.9 Q-19.15 -3.7 -17.25 -8.05 -15.2 -12.7 -12.15 -16.8 L-11.45 -16.2 -14.1 -11.75 -16.85 0.55 -11.3 14.3 -9.3 16.35 -4.9 18.1 -2.4 18.7 1.05 18.7 Q2.15 18.9 2.95 18.15 5.4 15.6 4.25 12.2 3.9 11.15 3.1 10.45 1.15 8.8 0.7 6.3 L0.05 6.4 Q-0.8 6.4 -1.15 5.7 -2.4 3.35 -0.25 2.15 L0.1 2.15 M23.3 -45.4 Q25.75 -45.1 27.35 -43.15 L28.6 -41.0 Q29.5 -38.5 28.7 -36.05 L23.65 -42.05 20.2 -42.25 20.7 -41.8 22.75 -39.5 Q24.25 -37.45 24.95 -34.95 25.4 -33.3 25.25 -31.6 L24.7 -29.45 Q24.15 -27.95 23.1 -26.65 L22.05 -25.75 Q20.8 -25.1 19.4 -25.2 18.2 -25.25 17.6 -26.2 17.15 -26.95 17.15 -27.85 L17.4 -28.65 19.2 -30.8 20.1 -35.95 13.9 -41.0 4.65 -38.6 3.6 -37.45 0.95 -39.55 Q-0.05 -40.3 -1.35 -40.4 L-4.4 -40.05 Q-5.6 -39.7 -6.6 -39.0 L-8.35 -37.25 Q-9.9 -34.9 -10.05 -32.05 -10.2 -30.05 -9.5 -28.15 -8.3 -25.1 -5.7 -23.05 -7.4 -22.35 -9.15 -22.65 -11.3 -23.15 -13.05 -24.4 -16.0 -26.7 -16.7 -30.4 L-21.0 -22.9 -17.7 -18.4 Q-18.45 -17.95 -19.3 -18.1 L-19.95 -18.45 Q-21.85 -20.05 -22.55 -22.4 -23.4 -25.25 -22.1 -27.95 -20.4 -31.45 -17.25 -33.75 L-17.15 -35.6 Q-16.9 -37.7 -15.9 -39.5 L-14.2 -41.95 Q-11.95 -44.55 -8.65 -45.4 L-1.7 -45.7 Q1.5 -45.15 4.15 -43.3 6.2 -44.45 8.5 -45.1 L13.65 -45.9 18.3 -45.8 20.8 -45.5 23.3 -45.4" fill="#666666" fill-rule="evenodd" stroke="none"/>
    <path d="M26.7 -3.1 L26.7 -3.05 26.45 -3.05 26.7 -3.1" fill="#ffcc66" fill-rule="evenodd" stroke="none"/>
    <path d="M26.7 -3.05 Q26.85 -1.7 26.5 -0.3 26.05 1.65 24.1 2.2 L23.1 1.55 23.1 0.95 23.9 0.3 24.05 -1.3 26.45 -3.05 Q23.95 -5.05 20.9 -5.9 L20.7 -6.5 21.1 -8.2 Q24.6 -10.05 23.65 -13.65 22.95 -16.15 20.1 -16.85 L20.75 -15.55 20.15 -14.35 19.25 -14.55 18.15 -16.5 16.35 -14.5 16.25 -13.0 14.5 -13.5 14.55 -16.2 Q18.55 -18.35 20.1 -22.65 21.45 -26.35 19.95 -30.1 L18.9 -32.8 18.55 -33.5 15.7 -37.65 5.55 -32.95 14.5 -40.2 Q13.1 -41.65 11.5 -42.65 5.5 -45.05 -2.0 -45.05 L-9.6 -43.4 Q-6.05 -45.75 -1.95 -46.7 6.15 -48.75 13.35 -44.75 20.7 -40.65 23.35 -32.8 L24.0 -30.1 Q24.6 -26.45 23.65 -23.0 L23.0 -20.8 23.85 -20.05 Q28.05 -16.2 27.15 -11.65 26.8 -9.9 25.7 -8.05 L25.0 -7.0 26.35 -4.55 26.7 -3.1 26.45 -3.05 26.7 -3.05 M31.95 -37.95 L30.45 -38.45 Q27.45 -39.15 24.6 -37.8 L24.55 -38.8 27.7 -41.55 33.5 -38.5 32.95 -37.45 31.95 -37.95 M13.3 -23.7 L15.05 -21.95 14.1 -21.7 Q12.45 -21.75 11.55 -23.05 L11.95 -24.45 6.75 -24.0 7.4 -23.15 Q8.6 -21.55 8.4 -19.4 L8.0 -19.2 Q6.25 -21.4 5.3 -24.0 L4.65 -25.8 Q8.8 -26.65 12.05 -24.6 L13.3 -23.7 M3.1 13.85 Q2.85 16.0 1.85 17.95 L1.4 18.8 Q-4.65 18.75 -9.6 15.35 -12.2 13.5 -13.85 10.8 -15.0 8.9 -15.75 6.8 L-15.5 8.15 -27.4 -23.55 -26.75 -24.5 -29.0 -27.7 Q-30.0 -29.45 -30.6 -31.3 -33.0 -26.55 -32.1 -21.35 -31.7 -19.05 -30.65 -16.9 L-31.2 -16.3 Q-37.0 -23.35 -33.1 -32.15 L-32.9 -32.5 -32.7 -33.0 Q-29.15 -40.2 -22.65 -38.7 L-19.0 -38.15 -18.05 -37.85 Q-14.15 -36.6 -11.05 -33.45 -21.3 -35.2 -26.6 -33.5 L-27.5 -33.2 -27.4 -29.65 -24.95 -26.2 -23.45 -26.75 -19.45 -26.25 -19.7 -25.3 -23.7 -25.1 Q-25.0 -17.95 -21.55 -11.6 L-19.7 -8.85 -19.7 -6.1 -20.05 -6.55 -13.8 7.85 -13.85 7.1 -10.2 14.4 -9.35 14.5 Q-8.05 15.75 -6.4 16.55 -3.95 17.65 -1.2 17.5 0.45 15.4 1.0 12.75 L1.35 9.8 1.05 7.4 0.25 5.05 1.05 6.1 1.35 6.5 Q3.45 9.8 3.1 13.85" fill="#f1f2ff" fill-rule="evenodd" stroke="none"/>
    <path d="M5.75 -50.55 Q9.2 -50.1 11.6 -47.35 L10.8 -46.1 9.4 -46.7 Q7.5 -47.8 6.2 -49.75 L5.75 -50.55 M33.1 -44.75 Q33.35 -45.05 33.7 -45.05 L34.35 -44.75 34.6 -44.15 34.35 -43.5 Q34.05 -43.25 33.7 -43.25 33.35 -43.25 33.1 -43.5 32.8 -43.8 32.8 -44.15 L33.1 -44.75 M24.05 -47.05 L24.45 -47.2 24.85 -47.05 25.0 -46.7 24.85 -46.35 Q24.7 -46.2 24.45 -46.2 24.2 -46.2 24.05 -46.35 L23.9 -46.7 24.05 -47.05 M21.6 -39.5 Q21.1 -37.45 19.55 -36.15 L19.3 -42.15 17.3 -43.2 20.5 -43.75 Q22.15 -41.9 21.6 -39.5 M29.15 -36.55 L31.05 -33.05 27.35 -35.8 29.15 -36.55 M38.25 -32.75 L37.6 -32.5 Q37.25 -32.5 37.0 -32.75 36.7 -33.05 36.7 -33.45 36.7 -33.85 37.0 -34.1 37.25 -34.4 37.6 -34.4 L38.25 -34.1 38.5 -33.45 38.25 -32.75 M0.6 -43.7 L-0.85 -44.35 Q-0.45 -41.15 -2.3 -38.5 L-3.5 -38.8 -2.9 -45.15 -4.35 -43.05 Q-3.8 -45.4 -2.3 -47.25 L-1.55 -48.1 0.2 -46.45 0.6 -43.7 M16.35 -36.65 Q16.75 -34.9 15.5 -33.9 14.75 -36.55 16.1 -39.1 17.0 -38.25 16.6 -37.1 L16.35 -36.65 M19.75 -20.25 L17.15 -23.95 18.8 -25.1 Q20.4 -23.5 20.0 -21.3 L19.75 -20.25 M38.35 -23.65 Q40.1 -22.95 40.05 -21.15 L39.8 -17.25 39.1 -17.3 38.35 -23.65 M22.65 -18.65 L22.3 -18.9 23.65 -23.9 Q25.05 -21.35 23.15 -19.15 L22.65 -18.65 M29.9 -8.6 L29.85 -7.55 27.8 -12.8 28.95 -11.65 Q29.9 -10.35 29.9 -8.6 M30.0 -3.8 Q31.55 -1.15 29.3 1.0 L28.7 1.5 28.15 0.3 Q29.85 -1.0 29.3 -3.15 L30.0 -3.8 M44.9 -19.75 Q44.45 -19.75 44.15 -20.05 43.85 -20.35 43.85 -20.8 43.85 -21.25 44.15 -21.55 L44.9 -21.85 45.65 -21.55 45.95 -20.8 45.65 -20.05 Q45.35 -19.75 44.9 -19.75 M42.65 2.1 L43.35 2.4 43.6 3.05 43.35 3.75 42.65 4.0 42.0 3.75 Q41.7 3.45 41.7 3.05 41.7 2.65 42.0 2.4 42.25 2.1 42.65 2.1 M28.0 7.9 L27.5 8.55 26.9 8.3 26.1 7.2 28.55 5.1 28.55 6.5 28.0 7.9 M4.7 9.4 Q4.3 10.7 3.15 11.2 L1.75 9.35 5.2 7.9 4.7 9.4 M8.45 16.95 L7.7 17.25 6.65 15.1 7.5 14.75 9.0 16.15 8.45 16.95 M3.8 16.5 L2.2 18.1 1.3 16.25 3.3 15.75 3.8 16.5 M-8.1 -44.35 L-9.05 -44.5 -9.55 -45.9 -5.5 -46.05 -8.1 -44.35 M-11.2 -31.2 L-10.45 -31.45 -8.7 -30.1 -9.1 -29.6 -11.45 -29.65 -11.8 -30.35 -11.2 -31.2 M-24.35 -45.4 L-24.6 -46.0 -24.35 -46.6 -23.75 -46.85 -23.15 -46.6 -22.9 -46.0 -23.15 -45.4 Q-23.4 -45.15 -23.75 -45.15 -24.1 -45.15 -24.35 -45.4 M-34.4 -38.1 L-34.2 -37.7 -34.4 -37.25 Q-34.65 -37.1 -34.95 -37.1 L-35.45 -37.25 -35.7 -37.7 -35.45 -38.1 -34.95 -38.3 -34.4 -38.1 M-39.05 -27.15 L-38.5 -27.4 -37.9 -27.15 -37.7 -26.6 -37.9 -26.0 Q-38.15 -25.8 -38.5 -25.8 L-39.05 -26.0 -39.3 -26.6 -39.05 -27.15 M-27.15 -24.8 L-26.65 -24.0 Q-28.15 -20.65 -27.05 -17.15 -28.25 -19.35 -28.05 -21.85 L-27.7 -25.0 -27.15 -24.8 M-23.7 -29.75 L-24.0 -29.05 -26.8 -29.85 -27.7 -27.75 -28.15 -27.9 -27.9 -31.3 -26.6 -31.7 -23.7 -29.75 M-37.5 -13.65 L-38.85 -11.6 -39.6 -12.05 -39.25 -13.55 -37.9 -14.2 -37.5 -13.65 M-34.8 -11.95 Q-34.35 -10.75 -35.25 -10.0 L-35.7 -9.7 -36.1 -8.7 -36.9 -8.95 -37.05 -10.1 -34.8 -11.95 M-27.1 -6.8 Q-26.6 -5.05 -27.4 -3.45 -29.6 -6.0 -29.75 -9.45 L-29.05 -9.7 Q-27.6 -8.5 -27.1 -6.8 M-28.5 -2.0 L-27.6 1.8 -27.9 2.15 -29.35 0.15 -30.3 -2.0 -29.25 -2.45 -28.5 -2.0 M-22.85 -2.65 L-21.9 -2.1 -22.8 -0.15 -23.35 -0.25 -23.5 -2.4 -22.85 -2.65 M-1.45 4.0 Q-1.7 5.35 -3.0 6.0 L-3.7 6.25 -1.45 4.0 M-14.55 4.9 L-15.8 3.2 -14.1 3.15 -13.1 3.8 -14.55 4.9 M-14.8 10.45 L-15.1 9.55 -14.8 8.7 Q-14.5 8.3 -14.05 8.3 -13.6 8.3 -13.3 8.7 -13.0 9.05 -13.0 9.55 -13.0 10.05 -13.3 10.45 -13.6 10.8 -14.05 10.8 -14.5 10.8 -14.8 10.45 M-19.8 17.65 Q-19.55 17.65 -19.35 17.85 L-19.15 18.3 -19.35 18.75 Q-19.55 18.95 -19.8 18.95 L-20.25 18.75 -20.45 18.3 -20.25 17.85 -19.8 17.65 M-20.25 15.1 Q-20.6 15.1 -20.8 14.9 L-21.05 14.3 -20.8 13.75 Q-20.6 13.5 -20.25 13.5 -19.9 13.5 -19.65 13.75 -19.45 13.95 -19.45 14.3 L-19.65 14.9 -20.25 15.1 M-4.35 17.05 Q-4.35 17.55 -4.7 17.9 -5.1 18.25 -5.6 18.25 -6.1 18.25 -6.45 17.9 -6.85 17.55 -6.85 17.05 -6.85 16.55 -6.45 16.2 -6.1 15.85 -5.6 15.85 -5.1 15.85 -4.7 16.2 -4.35 16.55 -4.35 17.05 M-38.75 2.95 L-39.1 3.05 -39.4 2.95 -39.55 2.65 -39.4 2.4 Q-39.3 2.25 -39.1 2.25 L-38.75 2.4 -38.65 2.65 -38.75 2.95 M-31.45 11.25 L-31.25 11.75 -31.45 12.25 Q-31.65 12.45 -31.9 12.45 L-32.35 12.25 -32.55 11.75 -32.35 11.25 -31.9 11.05 Q-31.65 11.05 -31.45 11.25" fill="#ffffff" fill-rule="evenodd" stroke="none"/>
  </g>
</svg>
