<?xml version="1.0" encoding="UTF-8" standalone="no"?>
<svg xmlns:xlink="http://www.w3.org/1999/xlink" height="96.6px" width="104.1px" xmlns="http://www.w3.org/2000/svg">
  <g transform="matrix(1.0, 0.0, 0.0, 1.0, 57.1, 68.75)">
    <path d="M10.7 -48.0 L15.6 -49.85 16.35 -49.6 Q21.05 -47.95 23.35 -43.55 L22.0 -40.75 24.45 -38.2 24.25 -36.85 27.3 -35.95 27.45 -35.8 Q27.95 -33.0 28.75 -30.25 L29.75 -27.65 Q31.8 -23.1 30.3 -18.35 L32.45 -16.55 Q35.1 -13.3 35.05 -8.85 L36.55 -14.15 Q37.75 -10.6 37.65 -6.85 L37.4 -3.35 Q36.85 1.05 33.2 3.3 31.75 6.8 28.25 7.85 L24.45 7.65 24.35 6.6 Q26.75 4.95 28.45 2.6 30.0 0.45 30.55 -2.2 31.8 -9.05 29.15 -15.5 L29.35 -15.05 Q27.6 -21.95 22.4 -26.9 18.55 -30.5 13.95 -32.9 7.7 -36.2 0.75 -34.9 -6.05 -33.75 -11.5 -29.45 -16.95 -25.25 -20.1 -19.1 -22.5 -14.4 -22.95 -9.15 -24.0 -4.9 -21.5 -1.2 L-16.35 6.15 Q-14.1 9.25 -12.35 12.65 -11.2 14.9 -9.35 16.7 -5.15 21.0 0.7 20.55 2.8 17.25 6.6 16.0 8.65 15.3 9.15 13.1 7.05 4.55 0.2 -1.1 L-0.85 -2.4 Q-1.75 -4.15 -3.5 -4.2 L-4.0 -3.85 -6.45 -0.15 -7.65 -0.4 -8.9 -1.1 Q-11.55 -3.55 -9.65 -6.8 -9.2 -7.7 -8.2 -8.05 L-6.55 -8.6 Q-6.05 -9.5 -5.0 -9.6 2.15 -10.15 6.1 -4.1 L6.85 -3.3 Q9.35 -1.6 10.9 1.0 L11.4 2.6 Q11.8 6.45 13.7 9.85 15.1 12.3 13.3 14.3 12.35 20.25 6.65 22.2 L6.0 22.7 Q2.4 27.1 -3.25 26.25 -4.9 27.85 -7.15 27.85 -11.9 27.85 -13.4 23.55 -20.1 19.9 -20.85 12.45 -26.25 7.15 -29.2 5.8 -29.85 5.5 -29.95 4.8 -30.7 0.65 -34.05 -1.8 L-34.7 -1.85 -35.6 -4.35 Q-35.0 -5.65 -34.85 -7.0 -34.45 -10.75 -37.0 -13.6 L-36.55 -15.5 -31.55 -16.65 -31.5 -18.3 Q-31.25 -20.4 -29.9 -21.95 -27.9 -24.3 -24.75 -24.25 L-18.3 -24.25 -18.85 -25.7 Q-20.7 -30.85 -20.35 -36.3 L-19.3 -36.9 -20.05 -39.0 -19.95 -40.4 -21.05 -41.45 -21.55 -42.55 -20.85 -43.15 Q-15.15 -48.0 -7.75 -46.6 L-4.8 -44.2 1.35 -45.8 2.55 -44.4 4.7 -43.95 5.25 -44.45 Q7.5 -42.85 10.15 -44.1 L10.7 -48.0 M22.2 -57.5 L21.5 -57.85 Q25.15 -59.85 29.35 -59.75 L31.25 -59.25 Q33.5 -58.65 34.9 -56.8 36.75 -54.45 36.0 -51.45 34.85 -50.95 33.7 -51.45 32.45 -52.0 32.25 -53.3 31.8 -56.25 29.15 -57.85 L22.2 -57.5 M37.65 -32.6 L37.55 -33.55 38.25 -34.15 39.5 -34.0 Q45.4 -31.35 46.25 -24.85 46.4 -23.55 46.7 -22.2 47.8 -17.2 44.7 -13.3 42.9 -11.05 40.75 -12.45 40.8 -14.65 41.95 -16.5 L42.65 -17.8 Q44.75 -22.8 42.4 -27.75 40.85 -31.1 37.65 -32.6 M-20.95 -62.5 L-21.3 -63.05 -21.7 -63.9 Q-23.75 -63.95 -25.55 -63.05 L-29.45 -60.7 -29.45 -59.45 -30.55 -60.95 -30.35 -61.4 Q-29.45 -62.95 -27.9 -64.05 -22.25 -68.25 -15.2 -68.75 -13.05 -68.9 -11.8 -67.05 -10.55 -65.25 -10.5 -63.05 -10.95 -62.25 -11.9 -62.45 -13.9 -62.9 -15.05 -64.75 L-19.7 -64.75 -19.25 -62.8 -19.85 -62.05 Q-20.5 -62.1 -20.95 -62.5 M-51.2 -31.55 Q-48.85 -33.85 -45.4 -34.15 -43.4 -34.35 -41.85 -33.1 -41.45 -32.8 -41.5 -32.25 -42.05 -26.85 -47.3 -24.85 L-47.75 -24.45 Q-49.45 -19.7 -52.35 -15.75 L-52.85 -15.65 -53.8 -13.7 -54.85 -14.0 -54.8 -19.3 -55.0 -19.4 Q-56.25 -19.8 -56.85 -20.9 L-57.1 -21.85 Q-53.2 -25.6 -51.65 -30.75 L-51.2 -31.55 M-39.65 -16.1 L-39.55 -16.1 -39.65 -16.1" fill="#999999" fill-rule="evenodd" stroke="none"/>
    <path d="M23.35 -43.55 Q21.05 -47.95 16.35 -49.6 L15.6 -49.85 10.7 -48.0 Q11.0 -48.95 11.75 -49.55 14.25 -51.7 17.7 -52.0 L25.6 -50.3 25.6 -50.25 Q26.05 -46.4 23.35 -43.55 M5.25 -44.45 L4.7 -43.95 2.55 -44.4 1.35 -45.8 1.85 -45.85 Q3.8 -45.8 5.25 -44.45 M-7.75 -46.6 Q-15.15 -48.0 -20.85 -43.15 L-21.55 -42.55 -23.45 -46.25 Q-24.55 -48.5 -22.5 -50.15 -21.85 -50.7 -20.95 -50.85 -16.25 -51.75 -13.0 -47.9 L-7.75 -46.6 M-21.05 -41.45 L-19.95 -40.4 -20.05 -39.0 -21.05 -41.45 M-20.35 -36.3 Q-20.7 -30.85 -18.85 -25.7 L-18.3 -24.25 -24.75 -24.25 Q-27.9 -24.3 -29.9 -21.95 -31.25 -20.4 -31.5 -18.3 L-31.55 -16.65 -36.55 -15.5 -37.0 -13.6 Q-34.45 -10.75 -34.85 -7.0 -35.0 -5.65 -35.6 -4.35 L-34.7 -1.85 Q-42.5 -2.9 -46.6 -9.65 -46.6 -11.3 -45.85 -12.7 -43.9 -16.3 -39.65 -16.1 L-39.55 -16.1 -35.75 -16.55 -34.5 -19.2 -35.15 -20.2 Q-36.7 -23.0 -34.2 -25.0 -30.3 -28.2 -26.1 -25.15 -24.45 -25.95 -23.65 -27.55 -23.35 -28.2 -23.4 -28.9 -24.0 -33.55 -20.35 -36.3 M-22.95 -9.15 Q-22.5 -14.4 -20.1 -19.1 -16.95 -25.25 -11.5 -29.45 -6.05 -33.75 0.75 -34.9 7.7 -36.2 13.95 -32.9 18.55 -30.5 22.4 -26.9 27.6 -21.95 29.35 -15.05 L29.15 -15.5 28.9 -16.05 28.4 -17.15 Q25.55 -23.8 19.55 -27.7 18.0 -28.7 16.3 -29.3 9.8 -31.55 3.15 -29.3 L1.2 -28.55 Q-5.15 -25.55 -11.85 -23.65 -14.8 -22.85 -16.45 -20.25 L-21.05 -13.05 Q-22.25 -11.25 -22.95 -9.15 M36.55 -14.15 L35.05 -8.85 Q35.1 -13.3 32.45 -16.55 L30.3 -18.35 Q31.8 -23.1 29.75 -27.65 L28.75 -30.25 Q27.95 -33.0 27.45 -35.8 L28.1 -34.55 27.95 -33.9 28.0 -33.8 Q30.0 -32.35 30.7 -29.95 31.0 -29.0 30.5 -28.2 31.9 -25.9 31.75 -23.2 31.7 -22.75 31.95 -22.4 34.75 -18.6 36.55 -14.15 M27.3 -35.95 L24.25 -36.85 24.45 -38.2 27.3 -35.95 M21.5 -57.85 L22.2 -57.5 21.45 -57.6 21.5 -57.85" fill="#bfbfbf" fill-rule="evenodd" stroke="none"/>
    <path d="M17.25 -50.65 L13.2 -48.3 17.55 -45.35 21.3 -41.7 Q23.3 -39.3 24.45 -36.4 25.25 -34.25 25.05 -31.95 L24.45 -29.05 Q24.3 -28.85 24.15 -28.9 23.35 -29.1 22.85 -29.65 21.8 -30.75 22.05 -32.2 L22.2 -32.85 15.0 -41.2 8.45 -43.05 Q3.3 -43.45 -1.7 -44.8 L-6.7 -41.7 Q-8.0 -44.15 -9.7 -42.55 L-17.45 -37.65 Q-11.75 -37.75 -10.85 -33.45 -14.8 -35.75 -18.7 -33.95 -26.1 -30.25 -17.85 -24.05 L-23.65 -20.35 -23.5 -19.3 Q-23.55 -18.4 -24.15 -17.7 -24.85 -16.95 -25.95 -17.3 -26.85 -17.55 -27.2 -18.4 -27.6 -19.35 -27.25 -20.35 L-27.65 -20.25 -28.3 -12.1 Q-29.55 -12.15 -30.55 -12.75 -31.6 -13.4 -32.15 -14.5 -33.6 -17.5 -32.3 -20.55 -31.55 -22.3 -29.85 -23.3 L-24.15 -26.4 -25.55 -30.8 Q-26.15 -30.75 -26.45 -31.2 L-27.05 -32.15 Q-27.4 -32.7 -27.4 -33.8 -27.45 -34.9 -25.9 -36.15 L-28.55 -35.25 Q-31.3 -34.8 -29.5 -32.05 L-28.55 -30.8 Q-28.85 -30.2 -29.45 -29.85 L-30.5 -29.9 Q-31.95 -30.95 -32.2 -32.75 -32.45 -34.45 -31.6 -35.95 -30.6 -37.95 -28.4 -38.6 L-24.4 -39.95 -23.05 -40.4 -21.75 -40.95 -20.45 -41.55 -17.0 -43.15 Q-13.95 -44.7 -11.1 -46.55 -16.85 -51.2 -22.1 -48.8 L-21.25 -41.95 Q-22.35 -42.35 -23.15 -43.1 -24.45 -44.35 -24.75 -46.1 -25.15 -48.15 -24.3 -49.95 L-23.9 -50.7 Q-22.1 -53.05 -19.1 -52.9 -15.45 -52.8 -12.35 -50.85 L-11.5 -50.35 Q-0.8 -53.0 9.9 -48.7 L14.5 -52.8 18.8 -53.4 Q21.4 -53.4 23.8 -52.4 25.0 -51.95 25.75 -50.95 26.6 -49.75 26.7 -48.2 26.8 -47.0 26.0 -46.05 25.25 -45.2 24.2 -44.9 L24.45 -47.05 21.25 -50.2 17.25 -50.65 M4.05 3.3 L-0.8 -2.2 -3.15 -2.7 -4.2 -2.25 -5.45 -0.3 Q-7.7 0.25 -9.25 -1.5 -10.75 -3.2 -10.5 -5.45 L-10.3 -5.75 Q-8.45 -9.8 -3.3 -10.95 -2.8 -11.1 -0.55 -10.15 L3.35 -7.95 Q8.5 -4.65 11.1 0.9 L11.3 1.25 Q15.15 9.75 8.45 16.8 5.75 19.65 2.2 21.2 -6.15 24.8 -12.65 18.55 -14.45 16.75 -15.1 14.25 L-12.1 18.05 -11.45 17.65 Q-4.65 21.95 2.35 17.4 5.3 15.45 6.95 12.35 L6.35 8.0 Q5.0 6.8 4.35 5.2 4.0 4.25 4.05 3.3" fill="#666666" fill-rule="evenodd" stroke="none"/>
    <path d="M30.65 -39.25 L29.2 -41.65 27.35 -43.85 28.6 -44.45 31.3 -39.2 30.65 -39.25 M21.15 -38.6 Q19.2 -39.2 17.45 -40.7 L14.2 -43.0 12.45 -44.0 Q13.6 -42.25 13.1 -40.15 L12.7 -39.0 Q12.1 -37.3 10.25 -36.75 L10.15 -37.8 11.85 -39.05 10.5 -42.15 Q9.3 -44.6 7.05 -46.4 5.3 -47.75 3.35 -48.6 L-3.5 -48.3 Q-6.3 -47.4 -8.75 -45.7 -7.05 -47.7 -4.65 -48.95 -2.3 -50.15 0.3 -50.65 3.7 -51.05 6.8 -49.45 8.35 -48.7 9.75 -47.4 L11.7 -45.2 Q15.6 -43.8 18.15 -42.35 20.55 -41.0 22.25 -38.95 24.95 -35.55 25.4 -31.35 L25.75 -28.2 Q24.95 -27.75 24.15 -27.4 L22.55 -26.85 21.65 -26.9 21.4 -27.75 24.3 -29.0 23.75 -32.75 23.05 -35.15 21.9 -37.4 21.15 -38.6 M6.95 -33.1 L8.2 -33.15 8.35 -33.2 8.35 -33.15 Q10.05 -33.05 11.15 -31.55 L11.5 -30.35 Q11.55 -29.15 10.35 -27.0 L10.35 -28.55 Q10.6 -31.9 8.3 -32.65 L7.8 -32.85 5.45 -31.45 4.8 -32.75 6.95 -33.1 M19.4 -21.9 L22.25 -23.2 22.95 -22.6 22.65 -21.95 Q26.5 -20.55 28.35 -17.0 28.85 -16.1 28.65 -15.05 L28.15 -13.45 28.15 -13.5 28.05 -13.3 27.75 -12.8 26.75 -11.6 26.7 -12.65 27.95 -14.35 Q27.25 -16.95 25.3 -18.8 23.85 -20.15 21.8 -20.95 L21.0 -20.45 20.95 -19.15 20.1 -18.1 19.35 -18.45 19.4 -21.9 M4.1 -1.6 Q6.0 0.05 7.55 2.05 8.5 3.4 9.1 5.0 L9.5 7.05 9.45 10.35 Q9.15 12.95 7.9 15.15 5.5 18.1 1.85 19.3 L-1.85 19.9 Q-3.6 19.9 -5.2 19.2 L-8.05 17.45 -8.55 17.05 -10.25 15.35 -7.85 17.25 Q-6.6 18.0 -5.1 18.35 -3.0 18.7 -0.85 18.35 L0.3 17.8 1.9 16.65 Q5.65 13.2 5.4 8.0 5.3 6.35 4.5 4.8 L2.45 1.45 Q-0.25 -0.95 -3.65 -2.5 L-5.45 -3.25 -6.4 -0.95 -7.05 -0.95 -7.45 -3.15 -5.45 -3.4 -4.1 -3.6 Q-1.1 -4.05 1.85 -2.95 3.05 -2.45 4.1 -1.6 M29.65 -1.8 L27.9 -1.8 27.65 -4.2 29.3 -4.4 29.65 -1.8 M-15.75 -39.45 L-18.8 -39.8 -21.6 -39.35 -24.05 -38.8 -26.05 -36.05 -24.3 -31.3 -24.5 -30.9 -24.95 -30.7 -25.9 -31.1 -26.95 -33.85 -27.35 -35.3 -27.35 -37.25 -30.6 -35.15 -31.3 -32.15 -30.6 -30.9 -31.05 -30.35 -32.55 -31.1 -32.45 -32.85 -31.75 -35.95 Q-28.85 -38.3 -25.25 -39.45 -20.9 -40.75 -16.4 -39.65 L-15.75 -39.45 M-31.0 -28.35 L-27.4 -28.0 -27.4 -26.55 -31.6 -26.55 -31.5 -23.3 -30.9 -20.85 -30.4 -19.65 -31.5 -19.2 -32.45 -20.15 Q-33.55 -21.3 -33.9 -22.9 -34.45 -25.2 -33.55 -27.3 -32.65 -28.55 -31.0 -28.35 M-24.15 -7.5 L-24.65 -9.55 -23.95 -10.0 -23.5 -9.85 -17.05 4.25 -17.4 4.55 -19.9 1.45 -21.05 -0.15 Q-23.15 -3.6 -24.15 -7.5" fill="#f1f2ff" fill-rule="evenodd" stroke="none"/>
    <path d="M3.25 18.1 Q3.6 18.4 3.6 18.85 L3.25 19.6 2.5 19.9 Q2.05 19.9 1.75 19.6 1.4 19.3 1.4 18.85 1.4 18.4 1.75 18.1 2.05 17.75 2.5 17.75 2.95 17.75 3.25 18.1 M8.4 8.9 L8.1 9.6 7.4 9.9 6.7 9.6 Q6.35 9.3 6.35 8.9 6.35 8.45 6.7 8.15 6.95 7.85 7.4 7.85 7.8 7.85 8.1 8.15 8.4 8.45 8.4 8.9 M5.65 3.05 Q5.65 3.5 5.25 3.85 L4.3 4.15 3.25 3.85 Q2.85 3.5 2.85 3.05 2.85 2.6 3.25 2.35 3.7 2.0 4.3 2.05 4.85 2.0 5.25 2.35 5.65 2.6 5.65 3.05 M-5.35 18.3 L-4.8 19.15 -5.5 19.1 -5.35 18.3 M-3.65 20.85 Q-4.1 20.45 -4.1 19.85 -4.1 19.25 -3.65 18.85 -3.25 18.4 -2.65 18.45 -2.05 18.4 -1.65 18.85 -1.25 19.25 -1.2 19.85 -1.25 20.45 -1.65 20.85 -2.05 21.25 -2.65 21.3 -3.25 21.25 -3.65 20.85 M-12.9 7.3 L-12.25 7.65 -11.15 10.65 -13.05 7.4 -12.9 7.3 M-34.15 -6.35 Q-34.5 -7.2 -34.5 -8.3 -34.5 -9.5 -34.15 -10.3 -33.85 -11.15 -33.4 -11.1 -32.95 -11.15 -32.6 -10.3 -32.3 -9.5 -32.3 -8.3 -32.3 -7.2 -32.6 -6.35 -32.95 -5.55 -33.4 -5.55 -33.85 -5.55 -34.15 -6.35 M-39.15 -14.25 Q-39.35 -14.05 -39.65 -14.05 L-40.15 -14.25 -40.35 -14.8 -40.15 -15.3 -39.65 -15.5 -39.15 -15.3 -38.95 -14.8 -39.15 -14.25 M-38.4 -21.85 L-38.15 -22.6 -37.6 -22.9 Q-37.25 -22.9 -37.0 -22.6 L-36.8 -21.85 -37.0 -21.15 Q-37.25 -20.9 -37.6 -20.85 L-38.15 -21.15 -38.4 -21.85 M-33.45 -42.05 Q-33.05 -42.1 -32.75 -41.8 L-32.5 -41.1 Q-32.5 -40.7 -32.75 -40.4 -33.05 -40.15 -33.45 -40.15 L-34.15 -40.4 -34.4 -41.1 -34.15 -41.8 -33.45 -42.05 M-42.85 -23.0 Q-42.5 -22.65 -42.5 -22.15 -42.5 -21.7 -42.85 -21.35 -43.2 -21.0 -43.65 -21.0 -44.15 -21.0 -44.5 -21.35 -44.85 -21.7 -44.8 -22.15 -44.85 -22.65 -44.5 -23.0 -44.15 -23.35 -43.65 -23.3 -43.2 -23.35 -42.85 -23.0 M-43.0 -37.65 L-43.2 -37.1 Q-43.45 -36.9 -43.75 -36.85 L-44.3 -37.1 -44.55 -37.65 -44.3 -38.25 -43.75 -38.45 -43.2 -38.25 -43.0 -37.65 M-0.75 -53.95 Q-1.1 -53.65 -1.55 -53.65 -2.0 -53.65 -2.25 -53.95 -2.6 -54.3 -2.6 -54.75 -2.6 -55.2 -2.25 -55.45 -2.0 -55.8 -1.55 -55.8 -1.1 -55.8 -0.75 -55.45 -0.45 -55.2 -0.45 -54.75 -0.45 -54.3 -0.75 -53.95 M-20.6 -61.35 L-20.35 -62.0 -19.7 -62.25 Q-19.35 -62.3 -19.05 -62.0 -18.8 -61.75 -18.8 -61.35 -18.8 -61.0 -19.05 -60.7 -19.35 -60.45 -19.7 -60.45 L-20.35 -60.7 -20.6 -61.35 M45.65 -24.8 Q45.25 -24.45 44.7 -24.45 44.15 -24.45 43.75 -24.8 43.35 -25.25 43.35 -25.8 43.35 -26.35 43.75 -26.75 44.15 -27.2 44.7 -27.2 45.25 -27.2 45.65 -26.75 46.05 -26.35 46.05 -25.8 46.05 -25.25 45.65 -24.8 M37.4 -16.65 L37.65 -17.25 Q37.9 -17.55 38.3 -17.55 L38.95 -17.25 39.2 -16.65 38.95 -16.0 38.3 -15.75 Q37.9 -15.75 37.65 -16.0 37.4 -16.3 37.4 -16.65 M4.6 -2.0 Q5.05 -1.55 5.1 -0.85 5.05 -0.2 4.6 0.25 L3.5 0.7 Q2.8 0.7 2.35 0.25 1.9 -0.2 1.9 -0.85 1.9 -1.55 2.35 -2.0 2.8 -2.45 3.5 -2.45 L4.6 -2.0 M2.4 -43.1 L1.8 -42.0 -3.05 -44.85 Q1.65 -46.25 2.4 -43.1 M34.4 -36.9 Q34.75 -36.35 34.75 -35.6 34.75 -34.85 34.4 -34.3 34.0 -33.75 33.45 -33.75 32.9 -33.75 32.55 -34.3 32.15 -34.85 32.15 -35.6 32.15 -36.35 32.55 -36.9 32.9 -37.45 33.45 -37.45 34.0 -37.45 34.4 -36.9 M30.0 -27.7 Q29.95 -27.15 29.55 -26.7 29.1 -26.3 28.55 -26.3 27.95 -26.3 27.55 -26.7 27.1 -27.15 27.1 -27.7 27.1 -28.3 27.55 -28.7 27.95 -29.15 28.55 -29.15 29.1 -29.15 29.55 -28.7 29.95 -28.3 30.0 -27.7 M21.0 -45.25 L21.35 -44.3 Q21.35 -43.75 21.0 -43.35 20.6 -42.95 20.05 -42.95 19.5 -42.95 19.1 -43.35 18.7 -43.75 18.75 -44.3 18.7 -44.85 19.1 -45.25 19.5 -45.65 20.05 -45.6 L21.0 -45.25 M32.95 -57.75 L32.7 -57.05 32.05 -56.8 Q31.7 -56.8 31.45 -57.05 31.15 -57.35 31.15 -57.75 31.15 -58.1 31.45 -58.35 L32.05 -58.6 32.7 -58.35 32.95 -57.75 M0.3 -50.65 L0.55 -50.25 Q-2.75 -51.5 -5.65 -50.25 -3.0 -53.65 0.3 -50.65" fill="#ffffff" fill-rule="evenodd" stroke="none"/>
  </g>
</svg>
