<?xml version="1.0" encoding="UTF-8" standalone="no"?>
<svg xmlns:xlink="http://www.w3.org/1999/xlink" height="50.9px" width="111.45px" xmlns="http://www.w3.org/2000/svg">
  <g transform="matrix(1.0, 0.0, 0.0, 1.0, 9.25, 13.95)">
    <path d="M27.6 26.2 L27.3 26.2 26.85 27.0 Q26.2 28.0 25.3 28.0 24.35 28.0 23.65 27.0 L23.35 26.45 Q22.25 26.55 22.1 26.8 18.25 27.0 14.8 29.0 L11.65 29.85 Q12.7 32.8 8.85 36.35 7.1 37.85 5.9 35.55 4.35 32.65 4.45 30.55 L4.35 30.55 4.25 30.55 Q-0.7 32.75 -4.5 26.2 -4.55 25.15 -5.0 24.5 L-5.65 23.55 -5.75 22.85 -5.8 21.9 -5.55 21.2 -6.65 17.5 Q-7.6 17.2 -8.3 16.15 -9.25 14.85 -9.25 12.85 -9.25 10.85 -8.3 9.45 -7.7 8.65 -6.95 8.35 -6.25 2.9 -3.4 -1.3 -0.1 -5.9 4.35 -6.55 L7.75 -6.45 7.75 -6.5 10.65 -5.75 11.45 -5.55 12.75 -6.4 Q14.9 -7.6 18.0 -7.6 21.05 -7.6 23.2 -6.4 25.35 -5.25 25.4 -3.7 25.4 -2.5 24.1 -1.5 28.0 0.3 32.0 0.75 L37.9 0.6 37.9 -0.55 36.1 -1.55 Q44.0 -3.55 48.1 -3.7 46.2 -13.15 53.55 -13.8 56.8 -14.65 58.75 -11.3 L58.85 -11.05 Q58.75 0.15 51.6 -0.15 L51.35 0.2 50.65 0.55 Q54.0 1.25 56.7 3.1 L58.3 4.35 Q61.8 5.8 65.5 5.1 63.9 7.45 61.4 8.2 L60.9 8.45 61.1 10.3 61.1 11.05 Q69.55 11.1 68.5 13.2 L70.3 13.1 Q73.8 13.1 76.4 14.5 L76.8 13.7 Q77.35 12.95 78.15 12.95 78.95 12.95 79.5 13.7 L80.0 14.85 80.0 15.0 80.1 15.65 Q80.05 16.8 79.55 17.55 L79.85 19.15 Q79.85 21.6 77.0 23.35 74.25 25.15 70.3 25.2 66.35 25.15 63.55 23.35 60.9 21.7 60.75 19.35 56.35 20.9 51.85 19.7 L48.25 20.4 Q49.4 21.9 49.25 23.55 48.95 26.55 40.15 23.8 36.1 25.35 32.0 25.85 L27.65 26.1 27.6 26.2 M23.05 25.7 L23.1 25.7 23.05 25.7" fill="url(#gradient0)" fill-rule="evenodd" stroke="none"/>
    <path d="M27.6 26.2 L27.65 26.1 28.5 26.2 27.6 26.2 M80.0 15.0 L80.0 14.85 80.5 14.85 80.0 15.0" fill="url(#gradient1)" fill-rule="evenodd" stroke="none"/>
    <path d="M28.15 -10.4 Q30.2 -10.15 30.9 -7.4 L31.0 -7.0 Q29.25 1.6 26.05 -5.85 25.15 -7.85 26.5 -9.3 27.3 -10.25 28.15 -10.4 M102.2 19.4 L101.95 20.4 Q101.65 20.8 101.25 20.8 L100.55 20.4 Q100.25 19.95 100.25 19.4 100.25 18.8 100.55 18.4 100.8 18.0 101.25 18.0 101.65 18.0 101.95 18.4 L102.2 19.4 M70.9 3.5 Q70.9 2.0 71.6 0.95 72.3 -0.05 73.35 -0.05 74.4 -0.05 75.1 0.95 75.85 2.0 75.85 3.5 75.85 5.0 75.1 6.0 74.4 7.05 73.35 7.05 72.3 7.05 71.6 6.0 70.9 5.0 70.9 3.5" fill="#000000" fill-rule="evenodd" stroke="none"/>
  </g>
  <defs>
    <radialGradient cx="0" cy="0" gradientTransform="matrix(0.0342, 0.0, 0.0, 0.0489, 1.7, 10.6)" gradientUnits="userSpaceOnUse" id="gradient0" r="819.2" spreadMethod="pad">
      <stop offset="0.0" stop-color="#f906c9"/>
      <stop offset="0.9803921568627451" stop-color="#000000"/>
    </radialGradient>
    <radialGradient cx="0" cy="0" gradientTransform="matrix(0.1673, 0.0, 0.0, 0.1673, 0.7, 12.9)" gradientUnits="userSpaceOnUse" id="gradient1" r="819.2" spreadMethod="pad">
      <stop offset="0.0" stop-color="#f906c9"/>
      <stop offset="0.9803921568627451" stop-color="#000000"/>
    </radialGradient>
  </defs>
</svg>
