<?xml version="1.0" encoding="UTF-8" standalone="no"?>
<svg xmlns:xlink="http://www.w3.org/1999/xlink" height="35.5px" width="47.0px" xmlns="http://www.w3.org/2000/svg">
  <g transform="matrix(1.0, 0.0, 0.0, 1.0, 23.5, 20.05)">
    <path d="M9.45 -16.8 L9.65 -15.95 Q10.3 -11.35 8.45 -7.1 L7.1 -6.3 4.65 -4.35 Q2.85 -2.7 1.25 -0.3 5.15 -4.3 9.2 -5.6 5.15 -4.3 1.25 -0.3 2.85 -2.7 4.65 -4.35 7.25 -6.3 9.2 -5.6 5.5 -3.3 5.15 -2.3 9.65 -4.55 13.55 -2.7 9.45 -3.25 5.05 -1.35 7.05 -0.95 8.05 0.15 5.65 0.15 3.95 1.7 L3.1 2.55 Q4.2 6.3 14.6 2.3 18.35 1.0 23.2 3.0 18.4 2.4 12.95 4.5 10.0 6.05 7.45 6.35 6.35 7.55 4.6 7.9 L4.55 7.25 4.35 6.3 4.2 6.25 Q3.05 6.0 1.95 5.45 L-0.05 4.0 Q-0.45 7.0 -0.05 9.3 -0.45 7.0 -0.05 4.0 L1.95 5.45 Q3.05 6.0 4.2 6.25 L4.35 6.3 4.55 7.25 Q2.5 6.8 0.65 5.6 -0.15 6.4 -0.05 9.3 -2.0 8.15 -3.05 4.65 L-3.65 6.25 -4.0 8.1 Q-6.45 7.6 -8.1 6.3 -9.45 6.05 -10.7 5.4 -15.6 3.65 -21.1 6.4 -18.45 2.5 -15.15 1.65 L-14.85 2.0 Q1.3 8.05 -6.1 -0.95 L-8.5 -2.3 Q-5.75 -1.15 -4.35 -1.45 -7.75 -5.4 -11.55 -6.75 -14.1 -9.1 -15.45 -11.5 -11.2 -7.45 -5.05 -3.7 -3.7 -2.6 -3.3 -1.1 L-3.0 0.25 Q-1.9 -7.35 1.4 -9.35 L0.4 -7.5 Q-0.85 -2.6 0.75 -1.75 4.05 -4.0 6.0 -7.2 9.95 -10.3 9.45 -16.8 M-4.3 -10.85 L-2.8 -8.85 Q-3.75 -5.9 -3.4 -2.4 -4.6 -6.7 -7.6 -9.15 -2.15 -5.6 -4.3 -10.85 M1.25 -0.3 L0.1 1.5 Q-1.0 2.4 -1.7 2.25 L-1.9 2.2 -2.25 1.9 -3.0 0.25 -2.25 1.9 -1.9 2.2 -1.7 2.25 Q-1.0 2.4 0.1 1.5 L1.25 -0.3 M8.05 0.15 Q4.05 -0.5 0.1 1.5 2.6 -0.3 5.05 -1.35 2.6 -0.3 0.1 1.5 4.05 -0.5 8.05 0.15 M4.35 6.3 L7.45 6.35 4.35 6.3 M-2.25 1.9 Q-4.3 0.2 -6.1 -0.95 -4.3 0.2 -2.25 1.9 M-3.05 4.65 L-1.7 2.25 -0.5 3.6 -0.05 4.0 -0.5 3.6 -1.7 2.25 -3.05 4.65 M-10.7 5.4 Q-12.9 4.3 -14.85 2.0 -12.9 4.3 -10.7 5.4 M-8.1 6.3 Q-6.0 6.75 -3.65 6.25 -6.0 6.75 -8.1 6.3 M-4.35 -1.45 L-3.0 0.25 -4.35 -1.45 M-1.0 0.3 Q-1.25 -3.9 0.4 -7.5 -1.25 -3.9 -1.0 0.3" fill="#623193" fill-rule="evenodd" stroke="none"/>
    <path d="M-2.8 -8.85 Q-0.45 -16.2 9.95 -19.95 L10.15 -20.05 10.1 -19.95 Q9.35 -18.65 9.4 -17.25 L9.45 -16.8 Q9.95 -10.3 6.0 -7.2 4.05 -4.0 0.75 -1.75 -0.85 -2.6 0.4 -7.5 L1.4 -9.35 Q-1.9 -7.35 -3.0 0.25 L-3.3 -1.1 -3.4 -2.2 -3.4 -2.4 -3.4 -2.2 -3.3 -1.1 Q-3.7 -2.6 -5.05 -3.7 -11.2 -7.45 -15.45 -11.5 -17.55 -15.3 -16.7 -19.25 -15.7 -17.0 -12.5 -15.7 -7.55 -14.6 -4.3 -10.85 -2.15 -5.6 -7.6 -9.15 -4.6 -6.7 -3.4 -2.4 -3.75 -5.9 -2.8 -8.85 M8.45 -7.1 Q12.15 -9.0 16.45 -8.3 19.4 -7.4 22.15 -8.3 19.05 -3.4 15.25 -2.4 17.4 -1.85 19.5 -0.6 22.15 1.15 23.45 2.95 L23.5 3.0 23.45 3.0 23.2 3.0 Q18.35 1.0 14.6 2.3 4.2 6.3 3.1 2.55 L3.95 1.7 Q5.65 0.15 8.05 0.15 7.05 -0.95 5.05 -1.35 9.45 -3.25 13.55 -2.7 9.65 -4.55 5.15 -2.3 5.5 -3.3 9.2 -5.6 7.25 -6.3 4.65 -4.35 L7.1 -6.3 8.45 -7.1 M4.6 7.9 Q4.65 10.4 2.65 12.9 1.95 14.8 3.1 15.45 0.35 15.3 -1.85 13.55 -4.15 11.1 -4.0 8.1 L-3.65 6.25 -3.05 4.65 Q-2.0 8.15 -0.05 9.3 -0.15 6.4 0.65 5.6 2.5 6.8 4.55 7.25 L4.6 7.9 M-15.15 1.65 L-15.4 1.35 Q-18.7 -3.7 -23.5 -5.3 -17.05 -8.7 -11.55 -6.75 -7.75 -5.4 -4.35 -1.45 -5.75 -1.15 -8.5 -2.3 L-6.1 -0.95 Q1.3 8.05 -14.85 2.0 L-15.15 1.65 M15.25 -2.4 L13.55 -2.7 15.25 -2.4 M15.3 -7.4 Q11.95 -7.75 10.3 -6.5 17.05 -5.45 20.4 -7.2 L15.3 -7.4 M10.0 -0.1 Q16.2 -0.6 20.35 1.55 19.1 -0.15 16.2 -1.4 12.85 -1.75 10.0 -0.1 M-11.45 -13.6 Q-13.6 -14.25 -14.85 -15.55 -12.05 -11.45 -7.15 -10.9 -8.1 -12.6 -11.45 -13.6 M-9.15 -3.8 Q-11.25 -5.65 -14.45 -6.5 -17.7 -7.35 -22.25 -5.4 -15.0 -6.15 -9.15 -3.8 M-3.3 8.15 Q-4.25 12.7 1.7 14.55 -1.6 12.95 -3.3 8.15 M-0.9 -9.4 Q5.5 -14.8 8.4 -18.3 2.5 -17.05 -0.9 -9.4" fill="#8446c1" fill-rule="evenodd" stroke="none"/>
    <path d="M15.3 -7.4 L20.4 -7.2 Q17.05 -5.45 10.3 -6.5 11.95 -7.75 15.3 -7.4 M10.0 -0.1 Q12.85 -1.75 16.2 -1.4 19.1 -0.15 20.35 1.55 16.2 -0.6 10.0 -0.1 M-11.45 -13.6 Q-8.1 -12.6 -7.15 -10.9 -12.05 -11.45 -14.85 -15.55 -13.6 -14.25 -11.45 -13.6 M-9.15 -3.8 Q-15.0 -6.15 -22.25 -5.4 -17.7 -7.35 -14.45 -6.5 -11.25 -5.65 -9.15 -3.8 M-0.9 -9.4 Q2.5 -17.05 8.4 -18.3 5.5 -14.8 -0.9 -9.4 M-3.3 8.15 Q-1.6 12.95 1.7 14.55 -4.25 12.7 -3.3 8.15" fill="#be9ede" fill-rule="evenodd" stroke="none"/>
    <path d="M-2.8 -8.85 Q-0.45 -16.2 9.95 -19.95 L10.15 -20.05 10.1 -19.95 Q9.35 -18.65 9.4 -17.25 M9.45 -16.8 L9.65 -15.95 Q10.3 -11.35 8.45 -7.1 12.15 -9.0 16.45 -8.3 19.4 -7.4 22.15 -8.3 19.05 -3.4 15.25 -2.4 17.4 -1.85 19.5 -0.6 22.15 1.15 23.45 2.95 L23.5 3.0 23.45 3.0 23.2 3.0 Q18.4 2.4 12.95 4.5 10.0 6.05 7.45 6.35 6.35 7.55 4.6 7.9 4.65 10.4 2.65 12.9 1.95 14.8 3.1 15.45 0.35 15.3 -1.85 13.55 -4.15 11.1 -4.0 8.1 -6.45 7.6 -8.1 6.3 -9.45 6.05 -10.7 5.4 -15.6 3.65 -21.1 6.4 -18.45 2.5 -15.15 1.65 L-15.4 1.35 Q-18.7 -3.7 -23.5 -5.3 -17.05 -8.7 -11.55 -6.75 -14.1 -9.1 -15.45 -11.5 -17.55 -15.3 -16.7 -19.25 -15.7 -17.0 -12.5 -15.7 -7.55 -14.6 -4.3 -10.85 L-2.8 -8.85 Q-3.75 -5.9 -3.4 -2.4 L-3.4 -2.2 -3.3 -1.1 -3.0 0.25 -2.25 1.9 -1.9 2.2 -1.7 2.25 Q-1.0 2.4 0.1 1.5 L1.25 -0.3 Q5.15 -4.3 9.2 -5.6 M1.4 -9.35 L0.4 -7.5 Q-1.25 -3.9 -1.0 0.3 M4.65 -4.35 Q2.85 -2.7 1.25 -0.3 M4.65 -4.35 L7.1 -6.3 8.45 -7.1 M13.55 -2.7 L15.25 -2.4 M5.05 -1.35 Q9.45 -3.25 13.55 -2.7 M4.55 7.25 L4.35 6.3 4.2 6.25 Q3.05 6.0 1.95 5.45 L-0.05 4.0 Q-0.45 7.0 -0.05 9.3 M4.55 7.25 L4.6 7.9 M7.45 6.35 L4.35 6.3 M5.05 -1.35 Q2.6 -0.3 0.1 1.5 4.05 -0.5 8.05 0.15 M-8.5 -2.3 L-6.1 -0.95 Q-4.3 0.2 -2.25 1.9 M-3.4 -2.4 Q-4.6 -6.7 -7.6 -9.15 M-4.35 -1.45 Q-7.75 -5.4 -11.55 -6.75 M-0.05 4.0 L-0.5 3.6 -1.7 2.25 -3.05 4.65 -3.65 6.25 -4.0 8.1 M-3.65 6.25 Q-6.0 6.75 -8.1 6.3 M-14.85 2.0 Q-12.9 4.3 -10.7 5.4 M-14.85 2.0 L-15.15 1.65 M-3.0 0.25 L-4.35 -1.45" fill="none" stroke="#9966cc" stroke-linecap="round" stroke-linejoin="round" stroke-width="0.05"/>
  </g>
</svg>
