<?xml version="1.0" encoding="UTF-8" standalone="no"?>
<svg xmlns:xlink="http://www.w3.org/1999/xlink" height="52.9px" width="97.0px" xmlns="http://www.w3.org/2000/svg">
  <g transform="matrix(1.0, 0.0, 0.0, 1.0, 7.65, 16.2)">
    <path d="M35.15 -3.8 L35.1 -3.8 35.1 -3.95 35.15 -3.95 35.15 -3.8" fill="url(#gradient0)" fill-rule="evenodd" stroke="none"/>
    <path d="M35.15 -3.95 L34.75 -5.6 Q34.3 -7.9 36.15 -8.8 L37.2 -9.25 Q40.3 -9.1 41.0 -5.35 47.1 -6.55 49.95 -6.0 54.1 -5.25 50.7 -3.45 55.0 -0.75 53.45 0.05 L55.95 -0.3 Q57.3 -1.05 58.7 -1.1 L64.35 -1.3 Q68.3 -1.45 65.35 1.2 L67.0 2.1 68.45 3.2 Q68.85 3.15 69.1 3.5 L69.35 4.05 Q70.9 5.85 70.9 8.05 70.9 9.8 69.9 11.35 69.55 12.4 68.15 13.2 L67.0 14.0 Q63.15 16.5 57.7 16.5 52.25 16.5 48.4 14.0 L47.15 13.1 Q44.45 13.8 41.8 14.85 L42.0 14.95 45.1 14.45 Q47.6 14.4 49.35 15.5 51.05 16.65 51.05 18.25 51.05 19.8 49.35 20.9 47.6 22.05 45.1 22.05 L43.15 21.85 42.45 21.95 Q38.65 22.65 35.1 21.45 33.5 20.95 33.0 20.3 30.55 18.3 28.4 20.05 24.6 23.25 20.95 27.1 L21.15 27.1 Q22.55 27.05 23.55 28.5 24.5 29.9 24.55 31.9 24.5 33.85 23.55 35.3 22.55 36.7 21.15 36.7 19.75 36.7 18.8 35.3 17.8 33.85 17.8 31.9 17.8 30.1 18.65 28.8 L17.15 28.85 14.2 29.15 9.9 30.3 7.75 30.6 7.35 30.6 5.9 30.7 Q0.45 30.65 -3.4 25.1 -7.2 19.7 -7.15 12.0 L-6.95 8.45 -7.05 8.3 Q-7.7 7.4 -7.65 6.05 -7.7 4.75 -7.05 3.75 -6.4 2.9 -5.6 2.85 -4.75 0.65 -3.4 -1.3 0.45 -6.7 5.9 -6.65 L7.35 -6.6 7.75 -6.5 9.9 -5.9 Q11.55 -5.65 13.2 -4.75 L15.75 -5.2 19.55 -5.4 Q26.3 -2.45 33.25 -2.55 L35.1 -2.55 35.55 -2.55 35.15 -3.8 35.15 -3.95 M48.4 2.1 Q50.2 0.95 52.35 0.3 L49.0 1.0 Q46.15 1.55 43.15 -1.15 41.95 3.25 35.7 1.05 L37.35 2.6 Q39.85 5.15 42.85 5.75 L44.85 6.05 Q45.7 3.85 48.4 2.1 M39.5 12.3 Q42.2 12.5 43.95 9.45 39.5 6.2 38.25 11.95 L39.5 12.3" fill="url(#gradient1)" fill-rule="evenodd" stroke="none"/>
    <path d="M67.35 -11.8 Q68.65 -15.1 70.85 -16.2 78.7 -14.8 74.7 -5.2 L73.85 -3.55 74.45 -2.95 Q75.1 -2.05 75.1 -0.9 75.1 0.25 74.45 1.1 73.9 2.0 73.1 2.0 72.25 2.0 71.65 1.1 71.05 0.25 71.05 -0.9 L71.15 -1.7 Q69.85 -1.8 68.4 -3.45 65.4 -6.75 67.35 -11.8 M84.55 0.1 L84.6 0.05 Q91.9 4.8 88.0 15.6 85.8 21.45 81.05 20.3 77.55 19.45 79.15 15.0 80.3 11.85 83.05 11.2 82.95 10.7 83.15 10.2 L83.25 9.55 Q79.2 2.9 84.55 0.1 M75.9 7.5 Q76.3 8.05 76.3 8.8 76.3 9.55 75.9 10.05 75.55 10.6 75.05 10.6 74.5 10.6 74.1 10.05 73.75 9.55 73.8 8.8 73.75 8.05 74.1 7.5 74.5 7.0 75.05 7.0 75.55 7.0 75.9 7.5" fill="#000000" fill-rule="evenodd" stroke="none"/>
  </g>
  <defs>
    <radialGradient cx="0" cy="0" gradientTransform="matrix(0.1673, 0.0, 0.0, 0.1673, 0.7, 12.9)" gradientUnits="userSpaceOnUse" id="gradient0" r="819.2" spreadMethod="pad">
      <stop offset="0.0" stop-color="#f906c9"/>
      <stop offset="0.9803921568627451" stop-color="#000000"/>
    </radialGradient>
    <radialGradient cx="0" cy="0" gradientTransform="matrix(0.0421, 0.0, 0.0, 0.0603, 1.7, 10.6)" gradientUnits="userSpaceOnUse" id="gradient1" r="819.2" spreadMethod="pad">
      <stop offset="0.0" stop-color="#f906c9"/>
      <stop offset="0.9803921568627451" stop-color="#000000"/>
    </radialGradient>
  </defs>
</svg>
