<?xml version="1.0" encoding="UTF-8" standalone="no"?>
<svg xmlns:xlink="http://www.w3.org/1999/xlink" height="47.15px" width="36.75px" xmlns="http://www.w3.org/2000/svg">
  <g transform="matrix(1.0, 0.0, 0.0, 1.0, 18.4, 27.65)">
    <path d="M-0.6 -6.15 L-0.55 -5.95 Q0.95 8.85 -7.85 19.5 -8.9 19.1 -10.05 18.65 -0.2 8.95 -1.45 -5.95 L-0.85 -5.95 -0.6 -6.15" fill="#508f73" fill-rule="evenodd" stroke="none"/>
    <path d="M-1.45 -5.95 Q-0.2 8.95 -10.05 18.65 -8.9 19.1 -7.85 19.5 0.95 8.85 -0.55 -5.95 L-0.6 -6.15" fill="none" stroke="#41745a" stroke-linecap="round" stroke-linejoin="round" stroke-width="0.05"/>
    <path d="M15.7 -14.9 L15.85 -15.05 15.8 -14.85 15.7 -14.9 M8.75 -7.95 L8.7 -7.95 8.75 -7.95 M17.1 -7.55 L17.3 -7.55 17.15 -7.5 17.1 -7.5 17.1 -7.55 M12.8 -3.15 L12.9 -3.15 12.8 -3.1 12.8 -3.15 M-17.05 -5.4 L-17.0 -5.4 -17.05 -5.4 M-5.2 -27.45 L-5.15 -27.55 -5.15 -27.65 -5.15 -27.55 -5.1 -27.4 -5.2 -27.45 M-0.35 -23.6 L-0.35 -23.7 -0.3 -23.6 -0.35 -23.6 M2.2 -22.2 L2.15 -22.45 2.05 -22.7 2.2 -22.5 2.15 -22.45 2.25 -22.25 2.2 -22.2 M9.5 -17.2 L9.6 -17.3 9.55 -17.15 9.5 -17.2 M10.1 -18.15 L10.1 -18.2 10.1 -18.1 10.1 -18.15 M8.3 -14.4 L8.2 -14.35 8.2 -14.4 8.3 -14.4 M13.6 -18.3 L13.7 -18.45 13.65 -18.25 13.6 -18.3" fill="#00cc99" fill-rule="evenodd" stroke="none"/>
    <path d="M15.7 -14.9 L15.8 -14.85 15.6 -14.55 15.35 -14.0 14.95 -13.3 14.7 -12.95 Q13.6 -11.2 12.15 -9.95 10.75 -8.8 9.05 -8.1 L9.0 -8.05 8.95 -8.05 8.9 -8.0 8.75 -7.95 8.7 -7.95 8.45 -8.0 8.35 -8.05 8.3 -8.05 8.2 -8.1 7.9 -8.2 Q9.75 -8.85 11.3 -9.95 12.85 -11.2 14.1 -12.95 L14.55 -13.65 14.7 -13.95 14.85 -14.1 14.95 -14.15 15.1 -14.3 15.7 -14.85 15.7 -14.9 M17.3 -7.55 L17.8 -7.75 18.35 -7.85 17.95 -7.65 17.35 -7.35 15.95 -6.7 Q13.95 -5.95 11.6 -5.6 L8.75 -5.4 7.75 -5.4 7.7 -5.4 7.45 -5.4 7.2 -5.55 7.15 -5.6 6.95 -5.75 6.85 -5.8 6.85 -5.85 7.85 -5.8 8.0 -5.8 11.2 -5.95 Q14.0 -6.25 16.35 -7.15 L16.45 -7.2 16.5 -7.25 17.1 -7.5 17.15 -7.5 17.3 -7.55 M12.9 -3.15 L12.95 -3.15 13.1 -3.15 13.85 -3.15 13.8 -3.1 11.8 -2.55 10.75 -2.45 6.9 -2.85 6.4 -3.0 6.3 -3.05 6.15 -3.05 6.05 -3.1 6.05 -3.15 6.0 -3.25 6.0 -3.3 6.0 -3.4 5.95 -3.6 Q8.05 -2.95 9.9 -2.85 L10.1 -2.85 11.4 -2.9 12.75 -3.1 12.8 -3.1 12.9 -3.15 M7.45 0.25 L7.55 0.35 7.65 0.5 7.7 0.5 7.75 0.55 7.85 0.7 8.3 1.1 6.5 0.25 6.45 0.25 Q4.75 -0.7 3.4 -2.2 L2.3 -3.45 1.85 -4.1 1.7 -4.35 1.6 -4.45 1.45 -4.7 1.45 -4.95 1.5 -5.4 1.65 -5.2 2.0 -4.65 2.5 -3.9 Q4.3 -1.55 6.5 -0.25 L7.05 0.05 7.15 0.1 7.2 0.1 7.3 0.15 7.45 0.25 M2.1 0.4 L2.2 0.55 2.3 0.8 2.55 1.25 3.0 1.95 2.5 1.45 1.9 0.8 Q0.4 -0.8 -0.45 -2.7 L-0.7 -3.4 -0.95 -4.1 -1.05 -4.45 -1.1 -4.55 -1.2 -4.95 -1.1 -5.25 -1.0 -5.65 -0.9 -5.2 -0.85 -5.0 Q-0.5 -3.75 0.05 -2.65 L0.7 -1.45 0.95 -1.0 1.55 -0.2 1.65 -0.15 1.7 -0.05 2.1 0.4 M-1.3 -5.05 L-1.4 -4.75 -1.4 -4.7 Q-1.85 -3.05 -2.65 -1.75 L-3.7 -0.4 -4.3 0.2 -4.35 0.25 -4.65 0.5 -5.2 0.9 -5.0 0.5 -5.0 0.45 -4.95 0.35 -4.85 0.05 -4.7 -0.15 -4.45 -0.35 Q-2.95 -1.75 -2.05 -3.85 L-1.85 -4.5 -1.8 -4.6 -1.6 -5.3 -1.55 -5.35 -1.55 -5.4 -1.5 -5.75 -1.3 -5.05 M-6.05 -4.35 L-6.15 -4.3 -6.15 -4.25 Q-9.0 -2.1 -11.3 -1.15 L-12.7 -0.7 -13.3 -0.55 -14.15 -0.5 -13.85 -0.7 -13.55 -0.9 -13.45 -0.9 -13.2 -1.05 -13.1 -1.15 -12.85 -1.2 Q-12.05 -1.4 -11.2 -1.75 L-8.9 -3.0 -7.0 -4.25 -6.7 -4.45 -6.4 -4.75 -6.25 -4.85 -6.05 -4.55 -5.95 -4.4 -6.05 -4.35 M-9.4 -5.3 L-9.75 -5.3 -9.8 -5.25 -9.95 -5.2 -11.4 -5.0 -13.8 -4.75 Q-16.4 -4.7 -18.4 -5.35 L-18.2 -5.35 -17.6 -5.4 -17.4 -5.4 -17.2 -5.4 -17.05 -5.4 -17.0 -5.4 -14.8 -5.2 -14.75 -5.2 -14.7 -5.2 -14.3 -5.2 -13.1 -5.2 -11.95 -5.3 -10.45 -5.5 -9.9 -5.6 -9.75 -5.65 -9.6 -5.65 -9.25 -5.75 -9.25 -5.7 -9.35 -5.4 -9.4 -5.3 M-16.5 -5.5 Q-15.15 -5.7 -14.05 -6.15 L-11.85 -7.5 -11.3 -8.0 -11.45 -8.05 -11.55 -8.05 -11.7 -8.1 -11.9 -8.1 -11.95 -8.15 Q-13.75 -8.55 -15.05 -9.3 L-15.1 -9.35 -17.05 -10.95 -17.9 -12.15 -17.95 -12.25 -17.8 -12.15 -17.3 -11.85 -17.05 -11.6 -17.0 -11.6 -16.85 -11.5 -16.75 -11.45 -16.55 -11.2 -15.65 -10.25 -14.6 -9.55 -14.0 -9.2 -12.7 -8.6 -12.25 -8.5 -11.75 -8.35 -11.7 -8.3 -11.4 -8.25 -11.25 -8.2 -11.05 -8.2 -10.95 -8.15 -10.65 -8.1 Q-12.75 -5.85 -16.5 -5.5 M-11.25 -10.85 L-11.3 -10.85 -11.6 -11.05 -11.65 -11.1 -11.7 -11.1 -11.75 -11.15 -11.8 -11.2 -11.85 -11.2 -13.65 -12.75 Q-14.3 -13.5 -14.6 -14.3 L-14.9 -15.3 -14.9 -15.45 -14.95 -15.55 -14.7 -15.25 -14.5 -15.0 -14.35 -14.85 -14.05 -14.55 -14.0 -14.5 -13.95 -14.3 -13.9 -14.2 -13.75 -13.85 -12.15 -12.0 -11.05 -11.2 -11.0 -11.15 -10.6 -10.9 -11.2 -10.75 -11.25 -10.85 M-10.35 -13.0 L-10.45 -13.05 -10.7 -13.3 -10.8 -13.35 -10.85 -13.4 -11.8 -14.35 Q-13.4 -16.05 -14.35 -18.15 L-14.4 -18.3 -14.75 -19.25 -14.85 -19.5 -14.95 -19.8 -14.45 -19.05 -14.05 -18.55 -13.95 -18.4 -13.75 -18.15 -13.55 -17.9 -13.35 -17.55 -13.1 -17.05 Q-11.9 -14.95 -10.0 -13.35 L-9.7 -13.05 -10.35 -12.95 -10.35 -13.0 M-9.8 -15.6 L-9.85 -15.65 -9.95 -15.75 -9.95 -15.8 -10.05 -15.9 -10.1 -15.95 -10.2 -16.0 -11.3 -17.9 -11.3 -17.95 -11.65 -19.4 -11.7 -19.55 -11.7 -19.75 -11.5 -19.5 -11.3 -19.1 -11.15 -18.9 -11.05 -18.5 -11.0 -18.35 -10.7 -17.6 -10.65 -17.55 -9.05 -15.35 -9.3 -15.45 -9.65 -15.55 -9.8 -15.6 M-7.55 -16.25 L-7.6 -16.3 -7.65 -16.4 -7.65 -16.45 -7.75 -16.5 -7.8 -16.6 -7.85 -16.65 -8.2 -17.4 Q-8.9 -19.15 -8.3 -21.35 L-8.05 -22.1 -8.0 -22.2 -7.9 -22.45 -7.75 -22.75 -7.75 -22.55 -7.7 -22.0 -7.75 -21.8 -7.85 -21.55 -7.95 -21.1 -8.05 -20.5 Q-8.35 -18.6 -7.55 -17.1 L-6.85 -16.0 -7.0 -16.1 -7.35 -16.15 -7.55 -16.25 M-4.0 -16.55 L-4.0 -16.65 -4.0 -16.7 -4.05 -16.75 -4.1 -16.9 -4.1 -16.95 Q-5.5 -21.9 -5.25 -26.45 L-5.25 -26.6 -5.2 -27.15 -5.2 -27.45 -5.1 -27.4 -5.0 -26.7 -4.85 -26.0 -4.85 -25.5 -4.85 -25.1 -4.8 -23.45 Q-4.6 -20.0 -3.45 -16.3 L-3.7 -16.45 -3.85 -16.5 -3.9 -16.55 -4.0 -16.55 M-0.4 -23.25 L-0.4 -23.3 -0.35 -23.6 -0.3 -23.6 -0.15 -23.3 -0.05 -22.9 0.0 -22.85 0.15 -22.4 0.45 -21.45 0.85 -18.75 0.85 -18.7 0.85 -18.45 0.75 -18.35 0.7 -18.3 0.55 -18.25 0.55 -18.7 0.55 -19.3 -0.1 -22.45 -0.3 -23.05 -0.4 -23.25 M2.2 -22.5 L2.4 -22.2 2.65 -21.9 2.8 -21.6 2.9 -21.45 3.05 -21.15 3.35 -20.6 3.5 -20.3 Q4.15 -18.8 3.95 -17.65 L3.7 -16.85 3.65 -16.75 3.6 -16.7 3.5 -16.65 3.1 -16.6 3.05 -16.55 2.85 -16.55 2.85 -16.6 3.05 -16.85 3.15 -16.95 3.5 -17.65 Q3.8 -18.7 3.4 -19.95 L3.2 -20.5 2.85 -21.3 2.25 -22.25 2.15 -22.45 2.2 -22.5 M7.1 -19.35 L7.15 -19.4 7.25 -19.65 7.35 -19.8 7.35 -19.65 7.45 -19.3 7.55 -18.85 7.55 -18.1 7.5 -17.5 7.2 -16.6 6.8 -16.0 6.75 -16.0 6.65 -15.95 6.25 -15.9 6.2 -15.9 6.05 -15.9 6.0 -15.9 5.85 -15.9 6.15 -16.1 6.55 -16.6 7.05 -17.5 7.2 -18.75 7.1 -19.35 M9.6 -17.3 L9.75 -17.55 9.8 -17.6 9.85 -17.7 10.1 -18.15 10.1 -18.1 10.1 -17.7 10.1 -17.55 10.0 -17.15 10.0 -17.05 9.75 -16.25 9.5 -15.8 8.45 -14.55 8.35 -14.45 8.3 -14.4 8.2 -14.4 7.55 -14.2 7.5 -14.2 7.35 -14.2 7.05 -14.1 7.0 -14.2 7.6 -14.55 7.65 -14.6 8.9 -15.8 9.4 -16.75 9.55 -17.15 9.6 -17.3 M12.8 -17.15 L13.1 -17.5 13.1 -17.6 13.6 -18.3 13.65 -18.25 13.55 -17.95 13.55 -17.7 13.3 -17.0 12.7 -15.8 12.7 -15.75 11.15 -13.95 Q10.0 -12.95 8.4 -12.3 L8.25 -12.25 8.2 -12.25 7.8 -12.25 7.75 -12.25 7.6 -12.25 7.5 -12.25 7.4 -12.25 6.9 -12.3 Q8.85 -12.9 10.25 -13.95 L12.05 -15.75 12.05 -15.8 12.45 -16.35 12.8 -17.15" fill="#01a372" fill-rule="evenodd" stroke="none"/>
    <path d="M8.7 -7.95 L8.4 -7.85 8.3 -7.8 Q10.9 -7.0 13.65 -7.05 L15.4 -7.2 16.0 -7.3 16.1 -7.35 16.95 -7.5 17.1 -7.55 17.1 -7.5 16.5 -7.25 16.45 -7.2 16.35 -7.15 Q14.0 -6.25 11.2 -5.95 L8.0 -5.8 7.85 -5.8 6.85 -5.85 6.85 -5.8 6.95 -5.75 7.15 -5.6 7.2 -5.55 7.45 -5.4 7.35 -5.4 7.25 -5.4 7.05 -5.4 6.75 -5.4 6.55 -5.4 7.95 -4.55 Q10.05 -3.4 12.3 -3.15 L12.4 -3.15 12.8 -3.15 12.8 -3.1 12.75 -3.1 11.4 -2.9 10.1 -2.85 9.9 -2.85 Q8.05 -2.95 5.95 -3.6 L6.0 -3.4 6.0 -3.3 6.0 -3.25 6.05 -3.15 6.05 -3.1 5.85 -3.15 5.75 -3.2 6.05 -1.9 Q6.45 -0.9 7.3 0.05 L7.35 0.15 7.45 0.25 7.3 0.15 7.2 0.1 7.15 0.1 7.05 0.05 6.5 -0.25 Q4.3 -1.55 2.5 -3.9 L2.0 -4.65 1.65 -5.2 1.5 -5.4 1.45 -4.95 1.45 -4.7 1.3 -4.95 1.25 -5.05 1.25 -4.85 1.25 -4.75 Q1.05 -2.8 1.55 -1.05 L1.9 -0.15 1.95 0.05 2.0 0.1 2.1 0.4 1.7 -0.05 1.65 -0.15 1.55 -0.2 0.95 -1.0 0.7 -1.45 0.05 -2.65 Q-0.5 -3.75 -0.85 -5.0 L-0.9 -5.2 -1.0 -5.65 -1.1 -5.25 -1.2 -4.95 -1.25 -5.25 -1.3 -5.05 -1.5 -5.75 -1.55 -5.4 -1.55 -5.35 -1.6 -5.3 -1.8 -4.6 -1.85 -4.5 -2.05 -3.85 Q-2.95 -1.75 -4.45 -0.35 L-4.7 -0.15 -4.85 0.05 -4.85 -0.05 -4.85 -0.15 Q-4.55 -1.65 -5.35 -3.25 L-5.65 -3.8 -5.85 -4.1 -5.95 -4.25 -6.05 -4.35 -5.95 -4.4 -6.05 -4.55 -6.25 -4.85 -6.4 -4.75 -6.7 -4.45 -7.0 -4.25 -8.9 -3.0 -11.2 -1.75 Q-12.05 -1.4 -12.85 -1.2 L-13.1 -1.15 -11.8 -2.1 Q-10.6 -3.15 -9.9 -4.3 L-9.45 -5.1 -9.35 -5.3 -9.35 -5.35 -9.4 -5.3 -9.35 -5.4 -9.25 -5.7 -9.25 -5.75 -9.6 -5.65 -9.75 -5.65 -9.9 -5.6 -10.45 -5.5 -11.95 -5.3 -13.1 -5.2 -14.3 -5.2 -14.7 -5.2 -14.75 -5.2 -14.8 -5.2 -17.0 -5.4 -16.95 -5.4 -16.85 -5.45 -16.5 -5.5 Q-12.75 -5.85 -10.65 -8.1 L-10.95 -8.15 -11.05 -8.2 -11.25 -8.2 -11.4 -8.25 -11.7 -8.3 -11.75 -8.35 -12.25 -8.5 -12.7 -8.6 -14.0 -9.2 -14.6 -9.55 -15.65 -10.25 -16.55 -11.2 -16.75 -11.45 -16.6 -11.4 -16.1 -11.15 Q-14.5 -10.45 -12.7 -10.6 L-11.95 -10.7 -11.25 -10.85 -11.2 -10.75 -10.6 -10.9 -11.0 -11.15 -11.05 -11.2 -12.15 -12.0 -13.75 -13.85 -13.9 -14.2 -13.95 -14.3 -14.0 -14.5 -13.25 -13.8 -12.6 -13.35 Q-11.5 -12.7 -10.5 -12.95 L-10.35 -13.0 -10.35 -12.95 -9.7 -13.05 -10.0 -13.35 Q-11.9 -14.95 -13.1 -17.05 L-13.35 -17.55 -13.55 -17.9 -12.6 -16.95 -11.05 -15.85 -9.45 -15.2 -9.8 -15.6 -9.65 -15.55 -9.3 -15.45 -9.05 -15.35 -10.65 -17.55 -10.7 -17.6 -11.0 -18.35 -11.05 -18.5 -11.15 -18.9 -11.0 -18.7 -10.9 -18.55 -10.8 -18.45 -10.3 -17.8 -10.0 -17.5 -8.65 -16.45 -7.25 -15.9 -7.55 -16.25 -7.35 -16.15 -7.0 -16.1 -6.85 -16.0 -7.55 -17.1 Q-8.35 -18.6 -8.05 -20.5 L-7.95 -21.1 -7.85 -21.55 -7.75 -21.8 -7.7 -22.0 -7.65 -21.45 -7.35 -20.3 -7.0 -19.35 -6.05 -17.7 -4.55 -16.5 -3.9 -16.15 -4.0 -16.55 -3.9 -16.55 -3.85 -16.5 -3.7 -16.45 -3.45 -16.3 Q-4.6 -20.0 -4.8 -23.45 L-4.85 -25.1 -4.85 -25.5 -4.85 -26.0 -4.8 -25.75 -4.65 -25.05 -4.1 -23.3 -3.45 -21.55 -2.1 -19.05 -2.0 -18.9 -1.8 -18.55 -1.6 -19.0 -1.55 -19.0 -1.5 -19.2 -1.45 -19.2 -1.3 -19.6 Q-0.9 -20.6 -0.65 -21.65 L-0.65 -21.7 -0.4 -23.25 -0.3 -23.05 -0.1 -22.45 0.55 -19.3 0.55 -18.7 0.55 -18.25 0.7 -18.3 0.75 -18.35 0.85 -18.45 0.85 -18.1 1.25 -18.35 1.45 -18.55 1.5 -18.6 1.95 -19.1 2.1 -19.3 2.4 -20.2 Q2.5 -21.1 2.2 -22.2 L2.25 -22.25 2.85 -21.3 3.2 -20.5 3.4 -19.95 Q3.8 -18.7 3.5 -17.65 L3.15 -16.95 3.05 -16.85 2.85 -16.6 2.85 -16.55 3.05 -16.55 3.1 -16.6 3.5 -16.65 3.6 -16.7 3.5 -16.55 3.5 -16.5 3.4 -16.4 3.15 -16.1 3.3 -16.15 3.9 -16.3 4.4 -16.45 4.65 -16.6 Q5.3 -16.9 5.85 -17.35 L6.75 -18.55 7.1 -19.35 7.2 -18.75 7.05 -17.5 6.55 -16.6 6.15 -16.1 5.85 -15.9 6.0 -15.9 6.05 -15.9 6.2 -15.9 6.25 -15.9 6.65 -15.95 6.75 -16.0 6.7 -15.9 6.45 -15.7 6.2 -15.45 7.0 -15.6 7.65 -15.75 7.85 -15.8 8.95 -16.55 9.5 -17.2 9.55 -17.15 9.4 -16.75 8.9 -15.8 7.65 -14.6 7.6 -14.55 7.0 -14.2 7.05 -14.1 7.35 -14.2 7.5 -14.2 7.55 -14.2 8.2 -14.4 8.2 -14.35 8.05 -14.2 8.0 -14.2 7.95 -14.1 7.75 -13.95 7.25 -13.7 8.0 -13.85 9.15 -14.2 9.2 -14.2 11.3 -15.5 12.8 -17.15 12.45 -16.35 12.05 -15.8 12.05 -15.75 10.25 -13.95 Q8.85 -12.9 6.9 -12.3 L7.4 -12.25 7.5 -12.25 7.6 -12.25 7.75 -12.25 7.8 -12.25 8.2 -12.25 7.75 -12.05 7.55 -12.05 7.25 -11.95 9.25 -11.85 10.25 -11.95 12.35 -12.5 Q13.6 -13.05 14.7 -13.95 L14.55 -13.65 14.1 -12.95 Q12.85 -11.2 11.3 -9.95 9.75 -8.85 7.9 -8.2 L8.2 -8.1 8.3 -8.05 8.35 -8.05 8.45 -8.0 8.7 -7.95 M-1.0 -10.75 Q-1.55 -14.9 -4.0 -16.55 -1.55 -14.9 -1.0 -10.75 M-4.3 -10.0 Q-6.45 -13.35 -9.7 -13.05 -6.45 -13.35 -4.3 -10.0 M0.8 -11.65 Q0.65 -15.3 3.3 -16.15 0.65 -15.3 0.8 -11.65 M2.85 -11.5 Q4.75 -13.35 6.9 -12.3 4.75 -13.35 2.85 -11.5 M0.7 -8.85 Q1.9 -7.65 1.5 -5.4 1.9 -7.65 0.7 -8.85 M2.85 -8.65 Q5.6 -6.85 5.95 -3.6 5.6 -6.85 2.85 -8.65 M-1.25 -8.2 Q-1.95 -7.0 -1.25 -5.25 -1.95 -7.0 -1.25 -8.2 M-3.35 -8.35 Q-7.5 -9.0 -9.35 -5.35 -7.5 -9.0 -3.35 -8.35" fill="#18feb9" fill-rule="evenodd" stroke="none"/>
    <path d="M15.8 -14.85 L15.85 -15.05 15.7 -14.9 15.7 -14.85 15.1 -14.3 14.95 -14.15 14.85 -14.1 14.7 -13.95 Q13.6 -13.05 12.35 -12.5 L10.25 -11.95 9.25 -11.85 7.25 -11.95 7.55 -12.05 7.75 -12.05 8.2 -12.25 8.25 -12.25 8.4 -12.3 Q10.0 -12.95 11.15 -13.95 L12.7 -15.75 M15.8 -14.85 L15.6 -14.55 15.35 -14.0 14.95 -13.3 14.7 -12.95 Q13.6 -11.2 12.15 -9.95 10.75 -8.8 9.05 -8.1 L9.0 -8.05 M8.95 -8.05 L8.9 -8.0 8.75 -7.95 8.7 -7.95 8.4 -7.85 8.3 -7.8 Q10.9 -7.0 13.65 -7.05 L15.4 -7.2 16.0 -7.3 16.1 -7.35 16.95 -7.5 17.1 -7.55 17.3 -7.55 17.8 -7.75 18.35 -7.85 17.95 -7.65 17.35 -7.35 15.95 -6.7 Q13.95 -5.95 11.6 -5.6 L8.75 -5.4 7.75 -5.4 7.7 -5.4 7.45 -5.4 7.35 -5.4 7.25 -5.4 7.05 -5.4 6.75 -5.4 6.55 -5.4 7.95 -4.55 Q10.05 -3.4 12.3 -3.15 L12.4 -3.15 12.8 -3.15 12.9 -3.15 M12.95 -3.15 L13.1 -3.15 13.85 -3.15 13.8 -3.1 11.8 -2.55 10.75 -2.45 6.9 -2.85 6.4 -3.0 6.3 -3.05 6.15 -3.05 6.05 -3.1 5.85 -3.15 5.75 -3.2 6.05 -1.9 Q6.45 -0.9 7.3 0.05 L7.35 0.15 7.45 0.25 7.55 0.35 7.65 0.5 7.7 0.5 7.75 0.55 7.85 0.7 8.3 1.1 6.5 0.25 M6.45 0.25 Q4.75 -0.7 3.4 -2.2 L2.3 -3.45 1.85 -4.1 1.7 -4.35 1.6 -4.45 1.45 -4.7 1.3 -4.95 1.25 -5.05 1.25 -4.85 1.25 -4.75 Q1.05 -2.8 1.55 -1.05 L1.9 -0.15 1.95 0.05 2.0 0.1 2.1 0.4 2.2 0.55 2.3 0.8 2.55 1.25 3.0 1.95 2.5 1.45 1.9 0.8 Q0.4 -0.8 -0.45 -2.7 L-0.7 -3.4 -0.95 -4.1 -1.05 -4.45 -1.1 -4.55 -1.2 -4.95 -1.25 -5.25 -1.3 -5.05 -1.4 -4.75 -1.4 -4.7 Q-1.85 -3.05 -2.65 -1.75 L-3.7 -0.4 -4.3 0.2 M-4.35 0.25 L-4.65 0.5 -5.2 0.9 -5.0 0.5 -5.0 0.45 -4.95 0.35 -4.85 0.05 -4.85 -0.05 -4.85 -0.15 Q-4.55 -1.65 -5.35 -3.25 L-5.65 -3.8 -5.85 -4.1 -5.95 -4.25 -6.05 -4.35 -6.15 -4.3 -6.15 -4.25 Q-9.0 -2.1 -11.3 -1.15 L-12.7 -0.7 -13.3 -0.55 -14.15 -0.5 -13.85 -0.7 -13.55 -0.9 -13.45 -0.9 -13.2 -1.05 -13.1 -1.15 -11.8 -2.1 Q-10.6 -3.15 -9.9 -4.3 L-9.45 -5.1 -9.35 -5.3 -9.35 -5.35 -9.4 -5.3 -9.75 -5.3 -9.8 -5.25 -9.95 -5.2 -11.4 -5.0 -13.8 -4.75 Q-16.4 -4.7 -18.4 -5.35 L-18.2 -5.35 -17.6 -5.4 -17.4 -5.4 -17.2 -5.4 -17.05 -5.4 -17.0 -5.4 -16.95 -5.4 -16.85 -5.45 -16.5 -5.5 Q-15.15 -5.7 -14.05 -6.15 L-11.85 -7.5 -11.3 -8.0 -11.45 -8.05 -11.55 -8.05 -11.7 -8.1 -11.9 -8.1 -11.95 -8.15 Q-13.75 -8.55 -15.05 -9.3 M-15.1 -9.35 L-17.05 -10.95 -17.9 -12.15 -17.95 -12.25 -17.8 -12.15 -17.3 -11.85 -17.05 -11.6 -17.0 -11.6 -16.85 -11.5 M-16.75 -11.45 L-16.6 -11.4 -16.1 -11.15 Q-14.5 -10.45 -12.7 -10.6 L-11.95 -10.7 -11.25 -10.85 -11.3 -10.85 -11.6 -11.05 -11.65 -11.1 -11.7 -11.1 -11.75 -11.15 -11.8 -11.2 -11.85 -11.2 -13.65 -12.75 Q-14.3 -13.5 -14.6 -14.3 L-14.9 -15.3 -14.9 -15.45 -14.95 -15.55 -14.7 -15.25 -14.5 -15.0 -14.35 -14.85 -14.05 -14.55 -14.0 -14.5 -13.25 -13.8 -12.6 -13.35 Q-11.5 -12.7 -10.5 -12.95 L-10.35 -13.0 -10.45 -13.05 -10.7 -13.3 -10.8 -13.35 -10.85 -13.4 -11.8 -14.35 Q-13.4 -16.05 -14.35 -18.15 M-14.4 -18.3 L-14.75 -19.25 -14.85 -19.5 -14.95 -19.8 -14.45 -19.05 -14.05 -18.55 -13.95 -18.4 -13.75 -18.15 -13.55 -17.9 -12.6 -16.95 -11.05 -15.85 -9.45 -15.2 -9.8 -15.6 -9.85 -15.65 -9.95 -15.75 -9.95 -15.8 -10.05 -15.9 -10.1 -15.95 -10.2 -16.0 -11.3 -17.9 M-11.3 -17.95 L-11.65 -19.4 -11.7 -19.55 -11.7 -19.75 -11.5 -19.5 -11.3 -19.1 -11.15 -18.9 -11.0 -18.7 -10.9 -18.55 -10.8 -18.45 -10.3 -17.8 -10.0 -17.5 -8.65 -16.45 -7.25 -15.9 -7.55 -16.25 -7.6 -16.3 -7.65 -16.4 -7.65 -16.45 -7.75 -16.5 -7.8 -16.6 -7.85 -16.65 -8.2 -17.4 Q-8.9 -19.15 -8.3 -21.35 L-8.05 -22.1 -8.0 -22.2 -7.9 -22.45 -7.75 -22.75 -7.75 -22.55 -7.7 -22.0 -7.65 -21.45 -7.35 -20.3 -7.0 -19.35 -6.05 -17.7 -4.55 -16.5 -3.9 -16.15 -4.0 -16.55 -4.0 -16.65 -4.0 -16.7 -4.05 -16.75 -4.1 -16.9 -4.1 -16.95 Q-5.5 -21.9 -5.25 -26.45 L-5.25 -26.6 -5.2 -27.15 -5.2 -27.45 -5.15 -27.55 -5.15 -27.65 -5.15 -27.55 -5.1 -27.4 -5.0 -26.7 -4.85 -26.0 -4.8 -25.75 -4.65 -25.05 -4.1 -23.3 -3.45 -21.55 -2.1 -19.05 -2.0 -18.9 -1.8 -18.55 -1.6 -19.0 -1.55 -19.0 -1.5 -19.2 -1.45 -19.2 -1.3 -19.6 Q-0.9 -20.6 -0.65 -21.65 L-0.65 -21.7 -0.4 -23.25 -0.4 -23.3 -0.35 -23.6 -0.35 -23.7 -0.3 -23.6 -0.15 -23.3 -0.05 -22.9 0.0 -22.85 0.15 -22.4 0.45 -21.45 0.85 -18.75 0.85 -18.7 0.85 -18.45 0.85 -18.1 1.25 -18.35 1.45 -18.55 1.5 -18.6 1.95 -19.1 2.1 -19.3 2.4 -20.2 Q2.5 -21.1 2.2 -22.2 L2.15 -22.45 2.05 -22.7 2.2 -22.5 2.4 -22.2 2.65 -21.9 2.8 -21.6 2.9 -21.45 3.05 -21.15 3.35 -20.6 3.5 -20.3 Q4.15 -18.8 3.95 -17.65 L3.7 -16.85 3.65 -16.75 3.6 -16.7 3.5 -16.55 M3.3 -16.15 L3.9 -16.3 4.4 -16.45 4.65 -16.6 Q5.3 -16.9 5.85 -17.35 L6.75 -18.55 7.1 -19.35 7.15 -19.4 7.25 -19.65 7.35 -19.8 7.35 -19.65 7.45 -19.3 7.55 -18.85 7.55 -18.1 7.5 -17.5 7.2 -16.6 6.8 -16.0 6.75 -16.0 6.7 -15.9 6.45 -15.7 6.2 -15.45 7.0 -15.6 7.65 -15.75 7.85 -15.8 8.95 -16.55 9.5 -17.2 9.6 -17.3 9.75 -17.55 9.8 -17.6 9.85 -17.7 10.1 -18.15 10.1 -18.2 10.1 -18.1 10.1 -17.7 10.1 -17.55 10.0 -17.15 10.0 -17.05 9.75 -16.25 9.5 -15.8 8.45 -14.55 8.35 -14.45 8.3 -14.4 8.2 -14.35 8.05 -14.2 8.0 -14.2 7.95 -14.1 7.75 -13.95 7.25 -13.7 8.0 -13.85 9.15 -14.2 9.2 -14.2 11.3 -15.5 12.8 -17.15 13.1 -17.5 13.1 -17.6 13.6 -18.3 13.7 -18.45 13.65 -18.25 13.55 -17.95 13.55 -17.7 13.3 -17.0 12.7 -15.8 M3.3 -16.15 L3.15 -16.1 3.4 -16.4 3.5 -16.5" fill="none" stroke="#009966" stroke-linecap="round" stroke-linejoin="round" stroke-width="0.05"/>
    <path d="M3.5 -16.55 L3.5 -16.5 3.3 -16.15 Q0.65 -15.3 0.8 -11.65 M-4.0 -16.55 Q-1.55 -14.9 -1.0 -10.75 M-9.7 -13.05 Q-6.45 -13.35 -4.3 -10.0 M6.9 -12.3 Q4.75 -13.35 2.85 -11.5 M5.95 -3.6 Q5.6 -6.85 2.85 -8.65 M1.5 -5.4 Q1.9 -7.65 0.7 -8.85 M-1.25 -5.25 Q-1.95 -7.0 -1.25 -8.2 M-9.35 -5.35 Q-7.5 -9.0 -3.35 -8.35" fill="none" stroke="#41745a" stroke-linecap="round" stroke-linejoin="round" stroke-width="0.05"/>
  </g>
</svg>
