<?xml version="1.0" encoding="UTF-8" standalone="no"?>
<svg xmlns:xlink="http://www.w3.org/1999/xlink" height="28.6px" width="31.45px" xmlns="http://www.w3.org/2000/svg">
  <g transform="matrix(1.0, 0.0, 0.0, 1.0, 15.7, 14.3)">
    <path d="M9.55 -11.7 L15.75 -2.4 13.7 -1.1 9.15 -11.25 13.7 -1.1 15.75 -2.4 -2.55 14.3 13.7 -1.1 3.0 3.25 13.7 -1.1 -2.55 14.3 3.0 3.25 3.9 -10.45 9.15 -11.25 9.55 -11.7" fill="#36f8f7" fill-rule="evenodd" stroke="none"/>
    <path d="M9.55 -11.7 L9.15 -11.25 3.9 -10.45 1.05 -10.7 1.0 -10.7 -8.15 -13.8 -14.4 -3.85 -2.55 14.3 -15.7 -5.05 -8.55 -14.3 -0.2 -14.3 1.85 -14.05 9.55 -11.7 M-15.7 -5.05 L-14.4 -3.85 -15.7 -5.05 M-8.55 -14.3 L-8.15 -13.8 -8.55 -14.3" fill="#d7fdfc" fill-rule="evenodd" stroke="none"/>
    <path d="M-8.15 -13.8 L1.0 -10.7 1.05 -10.7 -1.75 3.1 -2.55 14.3 -14.4 -3.85 -1.75 3.1 -14.4 -3.85 -8.15 -13.8" fill="#a0f8fc" fill-rule="evenodd" stroke="none"/>
    <path d="M1.05 -10.7 L3.9 -10.45 3.0 3.25 -1.75 3.1 3.0 3.25 -2.55 14.3 -1.75 3.1 1.05 -10.7" fill="#7efaf9" fill-rule="evenodd" stroke="none"/>
    <path d="M15.75 -2.4 L9.55 -11.7 9.15 -11.25 13.7 -1.1 15.75 -2.4 -2.55 14.3 -15.7 -5.05 -8.55 -14.3 -0.2 -14.3 1.85 -14.05 9.55 -11.7 M3.9 -10.45 L9.15 -11.25 M-8.15 -13.8 L1.0 -10.7 1.05 -10.7 3.9 -10.45 3.0 3.25 13.7 -1.1 -2.55 14.3 -14.4 -3.85 -15.7 -5.05 M1.05 -10.7 L-1.75 3.1 3.0 3.25 -2.55 14.3 -1.75 3.1 -14.4 -3.85 -8.15 -13.8 -8.55 -14.3" fill="none" stroke="#ffffff" stroke-linecap="round" stroke-linejoin="round" stroke-width="0.05"/>
  </g>
</svg>
