<?xml version="1.0" encoding="UTF-8" standalone="no"?>
<svg xmlns:xlink="http://www.w3.org/1999/xlink" height="48.65px" width="110.0px" xmlns="http://www.w3.org/2000/svg">
  <g transform="matrix(1.0, 0.0, 0.0, 1.0, 7.15, 13.1)">
    <path d="M6.15 -6.65 L7.35 -6.6 7.75 -6.5 Q10.5 -6.1 13.1 -4.95 L14.2 -4.5 Q16.0 -4.05 17.4 -4.5 L17.95 -4.95 Q19.65 -6.4 21.75 -6.95 22.95 -7.55 24.55 -7.35 L25.7 -7.2 26.05 -7.4 Q28.5 -8.75 32.0 -8.75 35.45 -8.75 37.95 -7.4 40.4 -6.0 40.4 -4.1 40.4 -2.2 37.95 -0.9 L35.85 0.0 37.95 0.35 42.95 1.15 44.35 1.25 Q43.55 0.25 43.55 -0.9 43.55 -2.95 46.05 -4.45 48.55 -5.85 52.1 -5.85 55.6 -5.85 58.1 -4.45 60.65 -2.95 60.65 -0.9 60.65 1.15 58.1 2.6 55.6 4.05 52.1 4.1 L48.5 3.65 43.25 4.25 40.25 4.6 Q39.35 4.75 38.7 5.6 L41.6 6.1 43.2 5.95 46.3 6.1 50.2 7.6 51.55 6.7 Q53.95 4.6 57.55 5.85 59.25 6.7 58.6 8.7 57.95 10.75 56.25 10.9 L51.9 11.55 Q49.2 12.0 48.65 14.05 51.1 14.05 53.25 12.75 59.1 14.6 53.0 15.1 46.85 15.5 46.25 17.1 L49.0 17.25 Q51.5 17.4 53.45 18.05 L54.65 18.6 Q56.05 19.45 56.1 20.45 56.1 21.85 53.45 22.8 51.25 23.6 48.35 23.75 L49.45 24.85 Q50.65 26.6 50.65 29.0 50.65 31.35 49.45 33.05 48.25 34.75 46.6 34.8 44.9 34.75 43.7 33.05 42.55 31.35 42.55 29.0 42.55 26.6 43.7 24.85 44.25 24.1 44.9 23.7 42.45 23.45 40.6 22.8 37.95 21.85 37.95 20.5 L37.95 20.45 Q37.95 19.05 40.6 18.05 L41.2 17.85 40.95 17.4 Q40.0 15.3 37.95 15.45 L36.8 15.65 Q33.6 16.35 31.05 18.1 29.8 18.55 29.45 19.7 28.75 21.0 28.5 22.35 29.45 21.75 30.55 21.6 31.6 21.1 33.15 21.15 34.8 21.1 35.95 21.7 37.1 22.35 37.15 23.2 37.1 24.0 35.95 24.6 34.8 25.25 33.15 25.25 31.45 25.25 30.3 24.6 L29.55 24.05 Q28.95 24.6 28.5 25.4 L25.15 29.55 25.15 29.9 Q25.15 32.2 24.0 33.85 22.85 35.5 21.25 35.55 19.6 35.5 18.45 33.85 17.3 32.2 17.3 29.9 17.3 28.85 17.55 28.0 L17.55 27.9 17.4 28.0 Q13.0 29.85 7.75 30.6 L7.35 30.6 5.9 30.7 Q0.45 30.65 -3.4 25.1 -7.2 19.7 -7.15 12.0 -7.2 6.1 -5.0 1.5 L-5.2 0.45 Q-5.2 -0.65 -4.65 -1.35 -4.15 -2.1 -3.4 -2.1 L-2.85 -2.05 Q0.85 -6.7 5.9 -6.65 L6.15 -6.65 M30.1 12.2 Q28.75 11.45 27.4 11.05 L25.8 10.85 Q25.85 11.6 26.85 13.05 27.15 13.05 27.65 13.35 30.15 13.9 31.8 12.2 31.0 12.45 30.1 12.2" fill="url(#gradient0)" fill-rule="evenodd" stroke="none"/>
    <path d="M66.9 -1.05 Q69.15 -1.05 70.7 -0.3 72.3 0.45 72.35 1.5 72.3 2.6 70.7 3.35 L69.65 3.75 70.75 3.65 72.2 3.6 Q77.2 3.6 80.65 5.65 84.2 7.7 84.2 10.6 84.2 13.5 80.65 15.6 77.2 17.65 72.2 17.65 67.25 17.65 63.7 15.6 L62.25 14.5 60.15 14.85 57.55 14.35 Q56.5 13.6 56.5 13.2 56.5 12.5 57.55 12.05 58.6 11.55 60.15 11.55 L60.35 11.55 60.35 11.5 60.25 10.6 Q60.25 7.7 63.7 5.65 65.2 4.8 66.95 4.3 L67.9 4.05 66.9 4.1 Q64.65 4.05 63.05 3.35 L61.8 2.45 61.55 2.0 61.45 1.5 Q61.45 0.45 63.05 -0.3 64.65 -1.05 66.9 -1.05 M62.75 -8.75 Q64.65 -8.4 65.0 -5.9 L65.05 -5.5 65.0 -4.6 64.45 -2.95 Q62.95 -1.2 61.25 -2.7 59.2 -6.1 61.95 -8.25 L62.75 -8.75 M98.0 -3.95 Q105.9 -0.05 100.9 9.15 100.05 10.6 98.75 9.95 96.0 8.65 96.5 4.5 93.0 -0.3 97.25 -3.5 L98.0 -3.95 M81.95 -5.1 Q80.25 -9.25 83.2 -11.7 84.6 -12.9 86.15 -13.1 93.3 -11.2 88.35 -3.75 84.7 1.6 81.95 -5.1" fill="#000000" fill-rule="evenodd" stroke="none"/>
  </g>
  <defs>
    <radialGradient cx="0" cy="0" gradientTransform="matrix(0.0342, 0.0, 0.0, 0.0489, 1.7, 10.6)" gradientUnits="userSpaceOnUse" id="gradient0" r="819.2" spreadMethod="pad">
      <stop offset="0.0" stop-color="#f906c9"/>
      <stop offset="0.9803921568627451" stop-color="#000000"/>
    </radialGradient>
  </defs>
</svg>
