<?xml version="1.0" encoding="UTF-8" standalone="no"?>
<svg xmlns:xlink="http://www.w3.org/1999/xlink" height="23.2px" width="40.9px" xmlns="http://www.w3.org/2000/svg">
  <g transform="matrix(1.0, 0.0, 0.0, 1.0, 20.45, 11.6)">
    <path d="M-20.45 -7.35 L-16.65 -11.6 -1.65 -1.4 -7.05 4.0 -20.45 -7.35" fill="url(#gradient0)" fill-rule="evenodd" stroke="none"/>
    <path d="M-20.45 -7.35 L-7.05 4.0 1.55 6.2 0.55 11.6 -7.05 4.0 0.55 11.6 1.55 6.2 19.75 4.1 16.2 9.05 0.55 11.6 -17.45 -2.65 -20.45 -7.35" fill="#ae3737" fill-rule="evenodd" stroke="none"/>
    <path d="M-7.05 4.0 L-1.65 -1.4 1.55 6.2 -7.05 4.0" fill="url(#gradient1)" fill-rule="evenodd" stroke="none"/>
    <path d="M14.85 -2.35 L15.2 -2.2 19.75 4.1 1.55 6.2 -1.65 -1.4 14.85 -2.35" fill="url(#gradient2)" fill-rule="evenodd" stroke="none"/>
    <path d="M-1.65 -1.4 L-16.65 -11.6 -7.1 -11.6 14.85 -2.35 -1.65 -1.4" fill="url(#gradient3)" fill-rule="evenodd" stroke="none"/>
    <path d="M15.2 -2.2 L20.45 3.55 19.75 4.1 15.2 -2.2" fill="url(#gradient4)" fill-rule="evenodd" stroke="none"/>
    <path d="M-16.65 -11.6 L-20.45 -7.35 -7.05 4.0 -1.65 -1.4 -16.65 -11.6 -7.1 -11.6 14.85 -2.35 15.2 -2.2 20.45 3.55 16.2 9.05 0.55 11.6 -17.45 -2.65 -20.45 -7.35 M1.55 6.2 L-7.05 4.0 0.55 11.6 1.55 6.2 -1.65 -1.4 14.85 -2.35 M20.45 3.55 L19.75 4.1 16.2 9.05 M19.75 4.1 L15.2 -2.2 M1.55 6.2 L19.75 4.1" fill="none" stroke="#fe5656" stroke-linecap="round" stroke-linejoin="round" stroke-width="0.05"/>
  </g>
  <defs>
    <linearGradient gradientTransform="matrix(-0.0094, -0.0054, 0.0027, -0.0046, -11.8, -3.8)" gradientUnits="userSpaceOnUse" id="gradient0" spreadMethod="pad" x1="-819.2" x2="819.2">
      <stop offset="0.011764705882352941" stop-color="#ff0000"/>
      <stop offset="1.0" stop-color="#ac3939"/>
    </linearGradient>
    <linearGradient gradientTransform="matrix(-0.0022, 0.0038, -0.0045, -0.0026, -2.9, 5.35)" gradientUnits="userSpaceOnUse" id="gradient1" spreadMethod="pad" x1="-819.2" x2="819.2">
      <stop offset="0.011764705882352941" stop-color="#ff0000"/>
      <stop offset="1.0" stop-color="#ac3939"/>
    </linearGradient>
    <linearGradient gradientTransform="matrix(0.0012, 0.0044, -0.0114, 0.003, 9.45, 2.75)" gradientUnits="userSpaceOnUse" id="gradient2" spreadMethod="pad" x1="-819.2" x2="819.2">
      <stop offset="0.011764705882352941" stop-color="#ff0000"/>
      <stop offset="1.0" stop-color="#ac3939"/>
    </linearGradient>
    <linearGradient gradientTransform="matrix(-0.0079, -0.0058, 0.004, -0.0054, -2.45, -8.15)" gradientUnits="userSpaceOnUse" id="gradient3" spreadMethod="pad" x1="-819.2" x2="819.2">
      <stop offset="0.011764705882352941" stop-color="#ff0000"/>
      <stop offset="1.0" stop-color="#ac3939"/>
    </linearGradient>
    <linearGradient gradientTransform="matrix(0.0019, 0.0019, -5.0E-4, 5.0E-4, 19.8, 3.35)" gradientUnits="userSpaceOnUse" id="gradient4" spreadMethod="pad" x1="-819.2" x2="819.2">
      <stop offset="0.011764705882352941" stop-color="#ff0000"/>
      <stop offset="1.0" stop-color="#ac3939"/>
    </linearGradient>
  </defs>
</svg>
