<?xml version="1.0" encoding="UTF-8" standalone="no"?>
<svg xmlns:xlink="http://www.w3.org/1999/xlink" height="46.25px" width="116.55px" xmlns="http://www.w3.org/2000/svg">
  <g transform="matrix(1.0, 0.0, 0.0, 1.0, 7.15, 11.2)">
    <path d="M6.7 -7.55 L7.35 -8.2 7.75 -8.3 7.75 -8.4 9.25 -8.55 Q11.15 -8.4 13.2 -6.95 16.4 -4.65 19.8 -1.75 22.7 0.55 26.6 1.9 L28.85 2.05 28.75 1.35 Q28.75 0.55 29.2 -0.15 L29.15 -0.7 Q29.15 -2.2 30.9 -3.3 31.95 -3.95 33.25 -4.2 L35.1 -4.35 Q37.4 -4.35 39.05 -3.45 42.6 -3.3 45.1 -2.05 47.95 -0.65 47.95 1.35 L47.8 2.2 48.4 2.05 48.05 1.3 47.95 0.7 Q47.9 -0.9 50.0 -1.95 52.15 -3.05 55.15 -3.05 58.15 -3.05 60.25 -1.95 62.4 -0.9 62.4 0.7 62.4 2.25 60.25 3.35 L59.9 3.5 60.2 3.55 Q60.95 3.65 61.45 4.4 L62.0 5.8 Q63.0 6.0 64.05 5.8 L62.1 6.3 62.1 6.65 Q62.1 7.95 61.45 8.9 60.8 9.8 59.9 9.8 L59.05 9.55 58.35 8.9 Q57.7 7.95 57.7 6.65 L57.75 5.9 57.55 5.8 Q57.0 5.35 56.55 5.35 57.3 4.75 58.2 4.65 L58.35 4.4 58.8 3.9 55.15 4.4 Q52.15 4.4 50.0 3.35 L49.65 3.15 48.45 3.05 47.65 2.95 47.4 2.95 46.65 3.75 46.5 3.9 46.8 3.9 Q50.15 3.9 53.25 5.55 50.7 5.25 49.4 6.7 48.9 7.1 48.75 7.55 51.6 6.65 55.25 7.7 57.4 8.15 59.0 9.6 L59.6 10.15 Q57.3 9.0 54.65 10.45 52.9 11.15 52.1 12.3 51.7 12.45 51.35 12.75 L50.85 12.9 51.15 12.05 50.9 10.85 Q49.7 11.3 49.0 12.6 48.15 13.75 46.45 14.2 47.7 14.7 49.05 14.7 L50.1 14.6 Q51.4 13.9 53.05 13.95 55.2 13.9 56.8 15.1 58.35 16.3 58.35 18.0 58.35 19.6 56.8 20.8 55.2 22.0 53.05 22.05 51.05 22.0 49.6 21.05 L47.7 20.45 45.75 19.3 Q47.5 19.0 47.0 17.4 44.75 12.6 38.5 13.65 36.2 13.8 35.1 15.0 L34.95 15.15 35.1 15.15 35.2 15.15 Q37.3 15.15 38.75 16.5 40.25 17.8 40.25 19.65 40.25 21.45 38.75 22.8 37.3 24.1 35.2 24.1 L33.25 23.8 33.0 23.65 30.5 26.65 Q28.8 28.4 26.5 29.55 24.2 30.55 21.6 30.75 L19.55 30.15 12.55 29.75 7.75 30.6 7.35 30.6 6.5 30.7 5.9 30.7 Q0.45 30.65 -3.4 25.1 -7.2 19.7 -7.15 12.0 -7.2 4.25 -3.4 -1.3 L-1.85 -3.2 -2.05 -4.35 Q-2.1 -5.25 -1.6 -5.9 -1.15 -6.6 -0.5 -6.6 0.1 -6.6 0.6 -5.9 L0.9 -5.35 2.9 -6.2 Q5.75 -7.8 6.5 -7.6 L6.7 -7.55 M64.3 32.85 Q63.75 31.7 63.8 30.25 63.75 28.75 64.3 27.65 L64.3 32.85" fill="url(#gradient0)" fill-rule="evenodd" stroke="none"/>
    <path d="M69.0 -3.05 Q70.55 -3.05 71.65 -2.2 72.7 -1.3 72.75 -0.05 72.7 1.2 71.65 2.0 70.55 2.9 69.0 2.95 67.4 2.9 66.3 2.0 65.2 1.2 65.2 -0.05 65.2 -1.3 66.3 -2.2 67.4 -3.05 69.0 -3.05 M95.55 -10.7 L95.9 -10.0 96.2 -9.0 95.9 -7.65 95.3 -6.75 Q94.3 -6.3 93.5 -7.1 92.9 -7.75 92.9 -8.8 92.85 -9.35 93.05 -9.8 L93.15 -10.15 93.55 -10.8 94.15 -11.05 94.6 -11.2 95.15 -10.95 95.55 -10.7 M104.4 -5.75 Q104.75 -6.6 105.45 -6.9 L106.15 -7.25 Q111.8 -1.85 107.7 5.9 L107.55 6.05 Q106.45 6.4 105.7 5.35 105.75 0.45 104.45 -4.1 104.2 -4.95 104.4 -5.75 M89.05 3.2 L91.0 3.1 Q101.35 3.65 99.05 16.4 98.65 18.45 97.05 18.8 92.4 19.7 91.4 13.5 83.85 14.4 85.7 6.4 86.45 3.1 89.05 3.2 M76.05 5.1 Q76.9 5.8 76.9 6.75 76.9 7.9 75.5 8.65 74.15 9.45 72.2 9.45 L70.3 9.25 69.9 9.4 68.25 9.3 Q67.6 8.85 67.35 9.0 L68.35 8.3 Q67.5 7.65 67.55 6.75 67.5 5.55 68.85 4.75 70.25 4.0 72.2 4.0 74.15 4.0 75.5 4.75 L75.95 5.0 76.05 4.95 76.05 5.1 M69.1 11.2 Q70.75 11.2 71.95 11.95 73.15 12.75 73.15 13.95 73.15 15.1 71.95 15.85 70.75 16.65 69.1 16.65 67.4 16.65 66.2 15.85 65.3 15.25 65.1 14.45 L64.55 14.05 65.05 13.9 Q65.05 12.75 66.2 11.95 67.4 11.2 69.1 11.2 M64.3 27.65 L64.75 26.85 Q65.75 25.4 67.15 25.45 68.5 25.4 69.5 26.85 70.45 28.25 70.5 30.25 70.45 32.2 69.5 33.6 68.5 35.0 67.15 35.05 65.75 35.0 64.75 33.6 L64.3 32.85 64.3 27.65" fill="#000000" fill-rule="evenodd" stroke="none"/>
  </g>
  <defs>
    <radialGradient cx="0" cy="0" gradientTransform="matrix(0.0421, 0.0, 0.0, 0.0603, 1.7, 10.6)" gradientUnits="userSpaceOnUse" id="gradient0" r="819.2" spreadMethod="pad">
      <stop offset="0.0" stop-color="#f906c9"/>
      <stop offset="0.9803921568627451" stop-color="#000000"/>
    </radialGradient>
  </defs>
</svg>
