<?xml version="1.0" encoding="UTF-8" standalone="no"?>
<svg xmlns:xlink="http://www.w3.org/1999/xlink" height="140.55px" width="140.55px" xmlns="http://www.w3.org/2000/svg">
  <g transform="matrix(1.0, 0.0, 0.0, 1.0, 75.0, 68.25)">
    <path d="M-34.15 0.55 Q-37.05 -2.9 -35.55 -7.05 L-34.4 -9.0 -33.25 -10.25 -29.05 -9.1 Q-27.45 -13.75 -23.65 -16.65 L-21.3 -18.1 -19.1 -18.9 -14.85 -19.55 -18.7 -22.15 Q-18.05 -25.5 -15.55 -27.8 -14.35 -29.0 -12.7 -29.5 L-10.85 -29.85 -7.8 -29.95 Q-6.15 -33.1 -2.7 -33.25 L-1.55 -33.3 Q-0.35 -33.15 0.7 -32.55 L1.4 -31.7 Q2.9 -26.05 7.6 -22.65 8.8 -21.8 10.25 -21.2 L12.25 -20.45 Q11.55 -24.35 14.35 -27.0 15.6 -28.2 17.25 -28.8 19.0 -31.35 21.95 -32.15 22.65 -32.4 23.45 -32.15 L24.8 -31.4 Q26.3 -30.15 27.15 -28.35 26.15 -29.65 24.6 -30.15 22.35 -30.9 20.25 -29.65 L24.35 -27.35 23.45 -21.65 23.45 -24.5 22.0 -25.7 13.45 -22.45 18.95 -16.2 Q13.5 -16.35 8.75 -13.6 8.65 -15.35 8.15 -17.0 6.95 -20.65 3.75 -22.85 L4.0 -23.8 Q1.65 -26.35 -1.6 -27.4 -7.1 -29.15 -12.2 -26.6 -15.15 -25.15 -16.85 -22.35 L-12.6 -20.45 Q-9.9 -15.35 -9.5 -9.55 L-10.45 -9.35 Q-10.85 -11.1 -11.9 -12.55 -14.1 -15.5 -17.75 -15.5 -22.8 -15.45 -26.8 -12.4 -26.15 -10.8 -26.35 -9.1 -26.55 -6.95 -28.05 -5.35 L-30.35 -6.7 Q-31.55 -4.8 -33.65 -3.95 L-35.1 -3.65 -34.15 0.55 M22.65 -8.2 Q24.8 -10.5 27.9 -10.75 28.8 -10.7 29.6 -10.1 L31.95 -7.75 Q33.9 -5.15 32.15 -2.35 31.1 -0.7 29.5 0.45 L26.75 0.15 26.55 -1.55 Q28.6 -2.15 29.85 -3.9 30.8 -5.3 30.7 -7.05 L30.6 -8.3 30.1 -8.45 Q28.45 -8.85 26.85 -8.5 L26.3 -8.4 26.05 -8.15 24.75 -7.4 Q23.5 -7.1 22.5 -7.9 L22.65 -8.2" fill="#bfbfbf" fill-rule="evenodd" stroke="none"/>
    <path d="M-34.15 0.55 L-35.1 -3.65 -33.65 -3.95 Q-31.55 -4.8 -30.35 -6.7 L-28.05 -5.35 Q-26.55 -6.95 -26.35 -9.1 -26.15 -10.8 -26.8 -12.4 -22.8 -15.45 -17.75 -15.5 -14.1 -15.5 -11.9 -12.55 -10.85 -11.1 -10.45 -9.35 L-9.5 -9.55 Q-9.9 -15.35 -12.6 -20.45 L-16.85 -22.35 Q-15.15 -25.15 -12.2 -26.6 -7.1 -29.15 -1.6 -27.4 1.65 -26.35 4.0 -23.8 L3.75 -22.85 Q6.95 -20.65 8.15 -17.0 8.65 -15.35 8.75 -13.6 13.5 -16.35 18.95 -16.2 L13.45 -22.45 22.0 -25.7 23.45 -24.5 23.45 -21.65 24.35 -27.35 20.25 -29.65 Q22.35 -30.9 24.6 -30.15 26.15 -29.65 27.15 -28.35 27.25 -26.0 25.9 -24.0 L25.5 -23.45 Q26.55 -18.6 23.6 -14.65 L22.85 -13.8 21.4 -8.3 22.65 -8.2 22.5 -7.9 Q23.5 -7.1 24.75 -7.4 L26.05 -8.15 26.3 -8.4 26.85 -8.5 Q28.45 -8.85 30.1 -8.45 L30.6 -8.3 30.7 -7.05 Q30.8 -5.3 29.85 -3.9 28.6 -2.15 26.55 -1.55 L26.75 0.15 29.5 0.45 Q25.95 2.25 23.45 5.35 L21.95 7.55 Q23.65 8.9 24.85 10.75 26.25 13.0 25.4 15.45 24.9 16.75 23.85 17.65 22.7 18.65 21.4 19.35 20.85 21.35 19.65 23.05 18.05 25.35 15.3 25.9 12.55 26.3 10.0 25.4 7.95 26.4 5.7 26.25 3.5 25.95 1.65 24.65 2.25 25.65 1.4 26.45 -0.3 28.05 -2.6 28.3 -4.1 28.2 -5.0 27.05 -6.1 25.6 -6.65 23.9 -8.95 24.95 -11.35 24.4 -13.3 24.0 -14.55 22.5 L-15.8 20.6 -21.8 17.55 -21.1 15.2 Q-23.9 13.2 -25.2 10.05 -26.55 6.9 -26.0 3.5 L-26.85 3.5 Q-28.5 4.45 -30.35 4.2 -31.45 4.1 -32.2 3.3 -33.1 2.25 -33.45 0.9 L-34.15 0.55" fill="#999999" fill-rule="evenodd" stroke="none"/>
    <path d="M3.2 -7.95 Q8.35 -8.9 10.45 -4.5 13.0 0.9 14.5 6.75 12.9 14.35 3.95 15.0 L-4.45 15.9 Q-9.1 16.7 -9.6 10.95 -9.85 9.05 -11.2 7.65 -13.1 5.6 -11.55 3.45 -14.8 -1.5 -10.1 -4.95 -6.5 -7.65 -2.95 -5.1 L-1.1 -3.3 -4.35 -1.5 -5.3 0.45 -3.4 9.15 -2.85 9.45 -2.05 8.55 Q-1.85 6.2 0.65 5.4 L2.2 5.15 3.1 5.1 Q-1.6 -1.1 1.45 -6.75 2.0 -7.75 3.2 -7.95" fill="#666666" fill-rule="evenodd" stroke="none"/>
    <path d="M2.65 -9.6 L2.75 -9.6 2.75 -9.45 2.65 -9.6" fill="#ffcc66" fill-rule="evenodd" stroke="none"/>
    <path d="M19.8 -12.4 L17.15 -12.6 16.8 -12.35 21.15 -7.35 Q23.15 -4.95 23.8 -1.9 L24.35 1.6 Q24.45 3.2 24.2 4.8 23.5 8.9 20.5 11.7 L22.45 14.05 21.3 15.7 18.85 18.5 16.1 20.9 Q12.5 23.75 7.95 24.2 L5.7 24.45 1.3 21.4 10.4 19.05 6.45 10.65 Q8.8 11.5 11.1 12.5 13.65 13.5 16.45 13.5 19.7 4.1 15.9 1.15 L13.6 1.0 6.85 4.55 6.6 4.0 10.3 1.75 Q12.1 0.65 13.4 -1.15 L14.15 -2.4 15.05 -5.05 Q15.4 -6.5 14.9 -7.65 14.35 -9.0 13.35 -9.8 L4.3 0.1 3.35 -0.4 5.05 -7.0 Q1.75 -15.75 -3.4 -10.0 L-4.85 -2.4 -6.65 -8.85 Q-7.6 -11.8 -8.7 -13.45 -9.8 -15.1 -12.15 -16.8 L-13.35 -15.85 -13.55 -20.45 Q-9.8 -22.3 -5.8 -23.25 L3.3 -23.6 Q6.85 -22.95 10.4 -21.75 16.25 -19.65 20.65 -15.5 L20.8 -10.9 19.8 -12.4 M-23.9 -6.85 L-22.45 -10.65 Q-20.95 -14.05 -18.45 -17.1 L-17.85 -13.95 -17.4 -9.05 -16.9 -6.7 -16.1 -4.5 Q-14.1 0.25 -9.8 2.9 L-4.15 6.15 -3.85 6.85 -4.4 7.75 Q-11.7 3.6 -19.05 4.85 -18.9 7.15 -17.8 9.45 L-16.55 11.95 -15.5 14.1 -12.9 15.1 -19.9 13.6 -21.35 11.4 Q-24.05 6.95 -24.65 1.9 -25.2 -2.65 -23.9 -6.85" fill="#f1f2ff" fill-rule="evenodd" stroke="none"/>
    <path d="M-7.15 -19.9 L-6.45 -19.95 -4.3 -19.75 Q2.55 -23.15 9.2 -19.6 13.3 -17.45 13.25 -12.65 L11.75 -13.45 11.9 -14.25 12.3 -14.55 11.35 -16.9 10.95 -16.8 9.7 -14.55 8.75 -15.85 9.55 -16.6 9.45 -18.5 8.25 -19.05 8.25 -19.15 8.2 -19.1 Q6.25 -19.95 4.15 -20.25 L-0.2 -20.0 0.15 -19.2 0.1 -19.15 -0.05 -17.4 -0.65 -15.05 -1.55 -14.25 -2.0 -14.05 -2.8 -14.6 -2.35 -15.5 -1.45 -15.3 -1.2 -18.7 -1.8 -18.7 -5.8 -14.85 -5.8 -15.45 -4.65 -16.4 -4.55 -18.65 -7.05 -18.8 -7.15 -19.9 M-12.35 4.95 L-12.35 4.85 -12.15 4.4 -11.7 4.2 -11.55 4.25 -12.35 4.95 M-7.1 -18.8 L-8.2 -18.85 -9.0 -17.25 -9.3 -17.1 -9.6 -17.25 -9.15 -18.55 Q-8.45 -19.65 -7.25 -19.85 L-7.3 -19.7 -7.1 -18.8 M0.0 -16.0 L0.1 -17.25 0.35 -18.55 Q0.5 -17.55 0.15 -16.5 L0.0 -16.0 M19.15 -8.35 L21.9 -3.8 21.5 -3.45 Q24.75 0.75 21.35 4.8 L21.0 5.15 20.7 5.0 Q22.75 0.05 19.9 -4.6 L20.55 -5.1 18.6 -7.55 18.55 -7.9 18.8 -8.25 19.15 -8.35 M-21.3 -1.8 L-20.5 -0.95 -20.85 -0.4 -20.85 0.55 -18.55 1.9 -18.45 2.3 -17.5 2.95 Q-20.0 3.8 -21.55 1.45 -25.15 -3.85 -21.1 -9.0 L-22.05 -4.95 -19.6 -4.4 -19.45 -4.0 -19.6 -3.6 -21.3 -3.95 -21.3 -1.8 M-16.35 1.15 L-15.9 0.95 -15.45 1.15 -15.25 1.6 -15.45 2.05 -15.9 2.25 -16.35 2.05 -16.5 1.6 -16.35 1.15 M-19.45 10.65 Q-20.7 10.05 -21.55 9.05 -23.9 6.3 -23.2 2.7 L-22.65 2.45 -22.2 2.65 -21.55 6.4 -20.7 6.4 -20.4 6.85 -21.0 7.6 -19.2 10.5 -19.45 10.65 M20.65 7.95 L20.45 8.4 20.0 8.6 Q19.7 8.6 19.55 8.4 L19.3 7.95 Q19.3 7.65 19.55 7.5 19.7 7.3 20.0 7.3 L20.45 7.5 Q20.65 7.65 20.65 7.95 M20.7 16.4 L18.05 16.4 18.05 14.6 20.7 14.6 20.7 16.4 M15.1 16.85 L18.5 17.8 18.05 18.8 15.2 19.15 12.4 19.9 14.7 18.55 14.95 18.65 15.75 18.2 14.6 17.3 15.1 16.85 M12.15 21.95 L9.95 21.95 12.15 19.75 12.15 21.95" fill="#ffffff" fill-rule="evenodd" stroke="none"/>
    <path d="M8.25 -19.05 L7.5 -16.55 7.25 -16.0 6.35 -15.05 5.5 -12.55 3.95 -9.65 3.75 -9.0 3.7 -8.8 Q5.4 -6.0 12.4 -8.85 13.45 -8.4 14.65 -8.1 12.55 -7.1 11.0 -6.7 9.55 -6.1 8.75 -7.1 5.3 -6.15 5.4 -5.5 5.5 -4.85 6.8 -4.1 6.1 -3.2 10.15 -2.35 11.3 -2.05 12.8 -2.7 L16.6 -3.4 19.5 -2.05 Q16.05 -1.0 13.95 -0.65 L13.2 -0.4 12.6 -0.2 Q12.55 -0.05 12.8 0.15 L13.6 0.7 14.8 1.4 15.35 1.7 14.65 1.85 12.3 2.15 Q10.35 2.2 15.25 2.9 L14.85 2.9 Q12.1 3.05 11.6 3.5 6.15 3.8 8.85 5.5 8.0 5.1 8.4 5.75 6.3 7.1 11.15 11.6 L11.6 12.5 10.15 11.8 8.0 10.15 Q2.65 6.15 3.7 7.65 L5.85 11.2 Q5.5 12.65 7.2 16.4 5.85 15.0 5.85 14.65 1.65 9.7 0.0 8.35 L-1.2 8.25 Q-1.5 8.35 0.35 9.55 L-1.7 8.65 -1.65 8.0 -1.4 7.65 -1.0 7.8 -0.9 7.8 Q-0.65 7.85 0.0 8.35 L1.55 8.8 Q0.15 7.3 3.2 8.65 0.65 6.35 2.5 7.15 L1.7 6.15 2.5 5.95 Q1.4 5.6 3.7 5.3 1.75 4.75 3.25 4.4 2.0 3.9 1.9 3.5 L3.25 3.35 1.65 2.95 1.85 2.55 1.95 2.1 2.0 1.85 2.0 1.55 2.0 1.25 2.0 -0.5 2.35 -0.4 2.0 -0.8 2.0 -1.15 Q2.35 -1.2 3.95 -0.45 1.35 -2.7 3.2 -1.85 L2.4 -2.8 3.2 -3.0 Q2.1 -3.3 4.4 -3.6 2.45 -4.1 3.95 -4.45 2.7 -4.9 2.65 -5.3 L4.0 -5.4 2.4 -5.8 2.6 -6.2 2.7 -6.65 2.75 -6.9 2.75 -7.2 2.75 -7.5 2.75 -8.45 2.8 -10.3 Q2.45 -8.15 2.3 -8.4 2.0 -8.75 1.85 -10.05 2.85 -10.85 4.9 -15.1 L6.4 -16.6 7.15 -17.9 7.65 -18.5 8.2 -19.1 8.25 -19.15 8.25 -19.05 M-4.3 11.1 L-4.45 11.5 Q-4.45 10.9 -4.65 11.05 -4.8 10.35 -5.7 12.6 L-6.35 13.4 -8.35 18.95 -8.1 17.75 Q-6.35 9.55 -6.85 11.0 L-6.75 9.8 Q-6.85 9.25 -7.2 11.15 L-7.0 8.3 -7.15 8.3 -6.55 7.85 -5.55 7.3 -6.55 8.45 -5.25 7.45 -5.4 9.6 -4.95 7.65 Q-4.7 8.05 -4.75 10.3 -4.2 8.4 -4.3 11.1 M-7.4 8.3 L-8.45 8.95 -8.5 8.95 -8.1 8.6 -7.6 8.25 Q-7.1 7.85 -7.4 8.3 M-8.45 8.65 L-8.75 8.75 Q-9.15 7.5 -13.15 11.9 L-12.65 10.75 Q-10.7 7.45 -16.2 13.9 L-16.65 14.1 -12.4 7.85 Q-10.55 5.8 -11.85 6.8 -11.0 5.4 -12.8 6.5 L-12.9 6.6 -12.95 6.65 -13.1 6.75 -15.35 8.15 -14.05 6.85 -12.55 5.15 -12.35 4.95 -11.55 4.25 -11.35 3.95 -11.35 3.9 -11.3 3.85 Q-11.55 3.7 -12.65 3.1 -13.25 0.6 -18.95 -0.45 L-20.35 -0.55 -20.25 -0.65 -18.95 -0.45 Q-12.95 0.1 -12.9 1.6 L-12.15 1.45 Q-11.7 0.5 -12.0 -2.2 -10.55 -2.0 -13.25 -7.05 -14.35 -9.2 -17.45 -10.6 L-17.6 -11.05 Q-12.75 -8.25 -11.0 -6.4 L-10.65 -6.1 -10.4 -5.9 -9.65 -5.4 Q-9.45 -5.85 -11.9 -13.9 L-11.7 -13.5 Q-9.95 -9.05 -9.05 -7.55 L-8.35 -4.4 -10.1 -2.1 -8.75 -3.3 Q-8.85 -2.8 -10.1 -1.05 -8.65 -2.2 -10.55 0.25 L-10.45 0.2 Q-8.15 -1.85 -9.25 -0.45 L-8.15 -1.25 -7.5 -1.65 -8.1 -0.9 -7.75 -0.95 -8.15 -0.6 -7.65 -1.0 -6.9 -1.15 -6.85 -1.15 -6.95 -0.05 -7.0 -0.1 -6.95 0.05 -7.0 0.45 -6.95 0.15 Q-6.5 2.35 -6.65 2.85 -6.85 3.25 -7.6 1.4 L-6.85 4.75 -8.6 7.05 -7.25 5.85 Q-7.35 6.35 -8.6 8.1 -7.4 7.15 -8.45 8.65 M-8.1 -6.5 L-8.5 -9.25 Q-7.3 -7.7 -8.45 -10.95 L-7.75 -10.05 Q-7.5 -8.25 -7.55 -7.65 L-7.55 -7.55 -7.75 -6.35 -8.0 -6.5 -8.0 -6.55 -8.1 -6.55 -8.1 -6.5 M-7.05 -18.65 L-7.1 -18.8 -7.3 -19.7 -7.25 -19.85 -7.2 -20.5 -7.15 -19.9 -7.05 -18.8 -7.05 -18.65 M-0.65 -15.05 L-0.05 -17.4 0.1 -19.15 0.15 -19.2 0.45 -19.65 0.45 -19.4 0.35 -18.55 0.1 -17.25 0.0 -16.0 -0.25 -12.65 Q-0.05 -12.3 0.4 -13.5 L0.45 -13.15 0.65 -11.55 Q0.0 -9.75 0.0 -11.35 L-0.7 -10.0 -0.8 -11.2 Q-1.2 -10.3 -1.35 -10.55 L-1.4 -10.65 -1.55 -12.6 -2.05 -11.15 -2.1 -11.45 -1.4 -13.4 -0.95 -13.9 -0.65 -15.05 M-4.8 -13.8 L-4.85 -14.4 -4.75 -14.85 -4.8 -13.8 M-3.35 -9.4 L-3.4 -9.35 -3.45 -9.35 -3.45 -9.25 -3.75 -8.65 -3.8 -8.75 -4.15 -9.75 -4.7 -9.85 -5.2 -10.45 -5.15 -10.9 Q-4.95 -9.1 -4.75 -12.2 -4.55 -10.45 -4.35 -10.3 L-4.25 -10.05 -4.2 -9.85 -4.15 -9.75 -3.9 -9.7 -3.75 -9.05 -3.5 -9.45 -3.45 -9.4 -3.4 -9.7 -3.4 -9.65 -3.35 -9.7 -3.35 -9.4" fill="url(#gradient0)" fill-rule="evenodd" stroke="none"/>
    <path d="M1.85 -10.05 Q2.0 -8.75 2.3 -8.4 2.45 -8.15 2.8 -10.3 L2.75 -8.45 2.75 -7.5 2.75 -7.2 2.75 -6.9 2.7 -6.65 2.6 -6.2 2.4 -5.8 4.0 -5.4 2.65 -5.3 Q2.7 -4.9 3.95 -4.45 2.45 -4.1 4.4 -3.6 2.1 -3.3 3.2 -3.0 L2.4 -2.8 3.2 -1.85 Q1.35 -2.7 3.95 -0.45 2.35 -1.2 2.0 -1.15 L2.0 -1.6 1.8 -0.6 1.2 -0.8 1.0 -1.0 0.7 -2.0 0.85 -1.95 0.05 -2.9 0.85 -3.15 Q-0.3 -3.45 2.05 -3.8 0.1 -4.3 1.55 -4.65 0.3 -5.15 0.25 -5.55 L1.6 -5.75 -0.05 -6.2 0.15 -6.55 0.3 -7.0 0.3 -7.25 0.35 -7.6 0.3 -7.9 0.35 -10.75 -0.25 -8.45 Q-0.55 -8.75 -0.7 -10.0 L0.0 -11.35 Q0.0 -9.75 0.65 -11.55 L1.0 -12.6 Q1.0 -11.1 1.15 -10.65 1.3 -10.15 1.75 -11.2 L1.85 -10.05 M2.0 -0.8 L2.35 -0.4 2.0 -0.5 2.0 -0.8 M-2.1 -11.45 L-2.05 -11.15 -1.55 -12.6 -1.4 -10.65 -1.35 -10.55 Q-1.2 -10.3 -0.8 -11.2 L-0.7 -10.0 -0.85 -9.7 -0.9 -10.3 -0.9 -9.6 -1.2 -9.1 -1.45 -10.15 -1.35 -10.55 -1.5 -10.25 -1.6 -11.1 Q-1.8 -9.7 -2.05 -11.15 L-2.4 -10.55 -2.3 -11.15 -2.2 -12.3 -2.1 -11.45 M-3.35 -9.7 L-3.05 -10.3 -2.75 -10.85 -2.65 -11.1 -2.9 -10.05 -3.0 -10.25 -2.9 -9.95 Q-3.0 -9.35 -3.35 -9.25 L-3.35 -9.4 -3.35 -9.7 M-5.9 -9.6 L-5.9 -9.25 -6.05 -9.8 -5.9 -9.6 M-7.75 -0.95 L-8.1 -0.9 -7.5 -1.65 -7.15 -1.8 Q-6.9 -1.85 -7.75 -0.95 M-1.55 -1.1 L-1.7 -0.8 -1.8 -0.8 -1.7 -1.15 -1.55 -1.1 M-5.65 -0.3 L-6.4 -1.1 -6.5 -1.4 -5.8 -1.95 -4.75 -2.5 Q-4.45 -2.55 -5.8 -1.3 L-4.45 -2.35 -4.55 -0.8 -4.8 -0.2 -5.65 -0.3 M-1.85 -0.55 L-1.95 -0.3 -1.9 -0.5 -1.85 -0.55 M-0.25 -1.05 L-0.45 -1.05 Q-0.75 -1.0 1.1 0.2 0.4 -0.15 -0.15 -0.4 -0.8 -1.1 -0.25 -1.05" fill="url(#gradient1)" fill-rule="evenodd" stroke="none"/>
    <path d="M-1.7 8.65 Q-1.65 10.5 0.15 15.8 L-0.4 17.85 Q-2.7 11.6 -3.55 10.4 -3.8 10.1 -4.05 10.5 L-4.35 11.6 -4.3 11.1 Q-4.2 8.4 -4.75 10.3 -4.7 8.05 -4.95 7.65 L-5.4 9.6 -5.25 7.45 -6.55 8.45 -5.55 7.3 -6.55 7.85 -7.15 8.3 -7.65 8.65 -7.4 8.3 Q-7.1 7.85 -7.6 8.25 L-8.1 8.6 -8.5 8.95 -8.9 9.3 -9.05 9.4 -8.45 8.65 Q-7.4 7.15 -8.6 8.1 -7.35 6.35 -7.25 5.85 L-8.6 7.05 -6.85 4.75 -7.6 1.4 Q-6.85 3.25 -6.65 2.85 -6.5 2.35 -6.95 0.15 L-7.0 0.45 -6.95 0.05 -7.0 -0.1 -6.95 -0.05 -6.85 -1.15 -6.9 -1.15 -7.65 -1.0 -8.15 -0.6 -7.75 -0.95 Q-6.9 -1.85 -7.15 -1.8 L-7.5 -1.65 -8.15 -1.25 -9.25 -0.45 Q-8.15 -1.85 -10.45 0.2 L-10.55 0.25 Q-8.65 -2.2 -10.1 -1.05 -8.85 -2.8 -8.75 -3.3 L-10.1 -2.1 -8.35 -4.4 -9.05 -7.55 -9.1 -7.75 -8.9 -7.35 -8.65 -6.95 -8.1 -6.5 -8.1 -6.55 -8.0 -6.55 -8.0 -6.5 -7.75 -6.35 -7.55 -7.55 -7.55 -7.65 Q-7.5 -8.25 -7.75 -10.05 L-8.3 -13.8 -8.25 -13.55 Q-6.55 -9.05 -7.05 -18.65 -6.15 -14.2 -5.6 -13.0 -5.05 -11.75 -4.8 -13.8 -4.7 -11.2 -4.35 -10.3 L-4.15 -11.05 -4.05 -10.2 -3.9 -10.5 -4.0 -10.1 -3.9 -9.7 -3.5 -9.45 -3.45 -9.55 -3.45 -10.25 -3.4 -9.7 -3.35 -10.3 -3.35 -9.7 -3.4 -9.65 -3.4 -9.7 -3.45 -9.4 -3.5 -9.45 -3.75 -9.05 -3.9 -9.7 -4.15 -9.75 -4.2 -9.85 -4.25 -10.05 -4.35 -10.3 Q-4.55 -10.45 -4.75 -12.2 -4.95 -9.1 -5.15 -10.9 L-5.2 -10.45 -4.7 -9.85 -4.15 -9.75 -3.8 -8.75 -3.75 -8.65 -3.45 -9.25 -3.45 -9.35 -3.4 -9.35 -3.35 -9.4 -3.35 -9.25 Q-3.0 -9.35 -2.9 -9.95 L-3.0 -10.25 -2.9 -10.05 -2.65 -11.1 -2.75 -10.85 -2.45 -11.65 -2.3 -11.15 -2.4 -10.55 -2.05 -11.15 Q-1.8 -9.7 -1.6 -11.1 L-1.5 -10.25 -1.35 -10.55 -1.45 -10.15 -1.2 -9.1 -0.9 -9.6 -0.9 -10.3 -0.85 -9.7 -0.7 -10.0 Q-0.55 -8.75 -0.25 -8.45 L0.35 -10.75 0.3 -7.9 0.35 -7.6 0.3 -7.25 0.3 -7.0 0.15 -6.55 -0.05 -6.2 1.6 -5.75 0.25 -5.55 Q0.3 -5.15 1.55 -4.65 0.1 -4.3 2.05 -3.8 -0.3 -3.45 0.85 -3.15 L0.05 -2.9 0.85 -1.95 0.7 -2.0 1.0 -1.0 1.2 -0.8 1.8 -0.6 2.0 -1.6 2.0 -1.15 2.0 -0.8 2.0 -0.5 2.0 1.25 2.0 1.55 2.0 1.85 1.95 2.1 1.85 2.55 1.65 2.95 3.25 3.35 1.9 3.5 Q2.0 3.9 3.25 4.4 1.75 4.75 3.7 5.3 1.4 5.6 2.5 5.95 L1.7 6.15 2.5 7.15 Q0.65 6.35 3.2 8.65 0.15 7.3 1.55 8.8 L0.0 8.35 Q-0.65 7.85 -0.9 7.8 L-1.0 7.8 -1.4 7.65 -1.65 8.0 -1.7 8.65 M-5.9 -9.6 L-6.05 -9.8 -5.9 -9.25 -5.9 -9.6 M-5.65 -0.3 L-4.8 -0.2 -4.55 -0.8 -4.45 -2.35 -5.8 -1.3 Q-4.45 -2.55 -4.75 -2.5 L-5.8 -1.95 -6.5 -1.4 -6.4 -1.1 -5.65 -0.3 M-1.55 -1.1 L-1.7 -1.15 -1.8 -0.8 -1.7 -0.8 -1.55 -1.1 M-1.85 -0.55 L-1.9 -0.5 -1.95 -0.3 -1.85 -0.55 M-0.25 -1.05 Q-0.8 -1.1 -0.15 -0.4 0.4 -0.15 1.1 0.2 -0.75 -1.0 -0.45 -1.05 L-0.25 -1.05" fill="url(#gradient2)" fill-rule="evenodd" stroke="none"/>
    <path d="M65.55 2.3 Q65.35 31.5 44.75 52.0 24.1 72.45 -5.1 72.3 -34.2 72.2 -54.7 51.55 -75.15 30.9 -75.0 1.7 -74.8 -27.5 -54.15 -47.95 -33.55 -68.45 -4.3 -68.25 24.8 -68.2 45.25 -47.55 65.7 -26.9 65.55 2.3" fill="url(#gradient3)" fill-rule="evenodd" stroke="none"/>
  </g>
  <defs>
    <radialGradient cx="0" cy="0" gradientTransform="matrix(0.0219, 0.0, 0.0, 0.0219, -4.0, 1.05)" gradientUnits="userSpaceOnUse" id="gradient0" r="819.2" spreadMethod="pad">
      <stop offset="0.4549019607843137" stop-color="#ffffff"/>
      <stop offset="0.7372549019607844" stop-color="#ebecff"/>
      <stop offset="1.0" stop-color="#b89efc"/>
    </radialGradient>
    <radialGradient cx="0" cy="0" gradientTransform="matrix(0.0212, 0.0, 0.0, 0.0212, -2.9, 0.8)" gradientUnits="userSpaceOnUse" id="gradient1" r="819.2" spreadMethod="pad">
      <stop offset="0.4549019607843137" stop-color="#ffffff"/>
      <stop offset="0.7372549019607844" stop-color="#d6d9fe"/>
      <stop offset="1.0" stop-color="#703cf9"/>
    </radialGradient>
    <radialGradient cx="0" cy="0" gradientTransform="matrix(0.03, 0.0, 0.0, 0.03, -3.2, 0.6)" gradientUnits="userSpaceOnUse" id="gradient2" r="819.2" spreadMethod="pad">
      <stop offset="0.4549019607843137" stop-color="#ffffff"/>
      <stop offset="0.7372549019607844" stop-color="#d6d9fe"/>
      <stop offset="1.0" stop-color="#703cf9"/>
    </radialGradient>
    <radialGradient cx="0" cy="0" gradientTransform="matrix(0.0895, 0.0, 0.0, 0.0895, -3.75, 2.9)" gradientUnits="userSpaceOnUse" id="gradient3" r="819.2" spreadMethod="pad">
      <stop offset="0.011764705882352941" stop-color="#ffffff"/>
      <stop offset="1.0" stop-color="#ffffff" stop-opacity="0.0"/>
    </radialGradient>
  </defs>
</svg>
