<?xml version="1.0" encoding="UTF-8" standalone="no"?>
<svg xmlns:xlink="http://www.w3.org/1999/xlink" height="217.25px" width="217.2px" xmlns="http://www.w3.org/2000/svg">
  <g transform="matrix(1.0, 0.0, 0.0, 1.0, 114.45, 112.8)">
    <path d="M42.4 -4.0 L42.0 -3.5 42.15 -4.1 42.4 -4.0 M-23.5 19.6 Q-24.05 19.0 -24.25 18.2 L-24.2 18.2 -23.5 19.6 M-41.65 -2.5 L-41.85 -2.55 -41.6 -2.7 -41.55 -2.65 -41.65 -2.5 M-3.75 -32.55 Q0.5 -35.5 5.3 -32.75 0.6 -32.9 -3.75 -32.55" fill="#bfbfbf" fill-rule="evenodd" stroke="none"/>
    <path d="M40.95 -7.35 L41.0 -7.0 40.85 -7.35 40.95 -7.35" fill="#999999" fill-rule="evenodd" stroke="none"/>
    <path d="M11.7 -33.4 L12.75 -35.0 Q14.4 -36.95 16.65 -38.0 15.4 -40.65 17.25 -43.05 18.8 -45.1 21.15 -45.8 23.85 -46.25 25.0 -44.1 L25.05 -43.95 Q34.85 -41.15 35.4 -31.45 35.45 -30.6 35.0 -29.75 33.7 -27.5 31.05 -27.1 30.7 -24.7 29.8 -22.45 L29.15 -23.8 27.2 -24.5 Q26.8 -26.55 24.6 -27.15 L17.25 -26.9 Q17.45 -28.4 19.2 -28.7 L23.45 -29.0 Q24.0 -28.75 24.6 -28.55 L25.95 -28.55 Q26.2 -28.9 26.1 -29.5 L26.05 -30.2 25.95 -30.65 25.55 -31.85 23.65 -34.0 Q18.9 -35.75 13.9 -34.05 12.8 -33.65 11.7 -33.4 M29.0 -15.8 Q31.25 -18.6 35.4 -17.05 39.45 -15.6 41.95 -12.2 45.25 -7.7 42.4 -4.0 L42.15 -4.1 41.7 -4.85 41.15 -5.45 40.5 -6.0 Q39.75 -6.45 39.3 -7.2 L35.5 -7.45 38.85 -8.15 39.05 -8.1 39.35 -7.95 39.75 -7.85 40.05 -7.7 40.5 -7.6 40.85 -7.35 41.0 -7.0 40.95 -7.35 Q40.7 -11.75 36.85 -13.9 32.85 -16.15 29.0 -15.8 M-24.25 18.2 Q-24.55 17.1 -24.15 15.7 L-25.85 14.35 -23.5 14.6 -22.8 14.15 Q-20.9 13.8 -19.25 14.55 -18.7 14.75 -18.3 15.1 -19.3 14.95 -21.85 15.1 L-23.25 15.35 Q-24.55 16.5 -24.2 18.2 L-24.25 18.2 M-30.8 4.1 L-31.4 2.6 Q-31.8 1.95 -32.45 1.65 L-33.1 1.7 -35.25 1.75 -35.5 1.75 Q-38.6 1.55 -41.35 0.1 L-41.55 -0.7 -41.65 -1.65 -41.65 -2.35 -41.65 -2.5 -41.55 -2.65 -39.4 -0.55 -37.0 -0.55 -35.15 -2.25 -34.9 -3.65 -34.6 -4.35 -34.4 -4.85 Q-29.85 -6.75 -24.45 -6.0 -30.4 -2.95 -30.8 4.1 M-44.0 -3.7 Q-46.8 -5.8 -44.85 -9.6 -43.1 -13.15 -38.95 -13.35 -34.65 -13.55 -30.35 -13.15 L-30.05 -14.15 -29.65 -15.75 -26.1 -17.0 -25.7 -17.95 -25.65 -19.75 -25.65 -19.9 Q-28.0 -22.05 -29.6 -24.7 -30.5 -26.1 -30.4 -27.75 L-25.95 -27.65 -28.0 -27.1 Q-25.65 -25.25 -24.35 -22.65 -21.4 -16.85 -26.8 -15.05 -28.15 -11.75 -31.5 -10.95 L-33.9 -10.65 Q-41.1 -10.75 -44.35 -4.85 L-44.0 -3.7 M-20.2 -24.6 Q-19.35 -24.8 -18.5 -25.35 -20.4 -26.65 -21.3 -29.05 -22.25 -31.55 -20.05 -32.4 -13.7 -35.05 -7.65 -32.15 -12.5 -31.5 -16.85 -30.2 L-14.5 -30.15 Q-3.2 -30.7 0.9 -20.0 0.15 -21.2 -1.05 -21.75 -7.15 -24.6 -13.8 -24.95 L-15.0 -26.4 -15.7 -24.25 -17.8 -23.1 -19.45 -23.55 -20.2 -24.6" fill="#e6e6e6" fill-rule="evenodd" stroke="none"/>
    <path d="M29.8 -22.45 L28.35 -19.55 Q26.9 -17.05 28.0 -14.2 L29.0 -15.8 Q32.85 -16.15 36.85 -13.9 40.7 -11.75 40.95 -7.35 L40.85 -7.35 40.5 -7.6 40.05 -7.7 39.75 -7.85 39.35 -7.95 39.05 -8.1 38.85 -8.15 35.5 -7.45 39.3 -7.2 Q39.75 -6.45 40.5 -6.0 L41.15 -5.45 41.7 -4.85 42.15 -4.1 42.0 -3.5 41.65 -3.1 40.25 -2.0 36.85 0.4 Q34.3 2.55 31.1 2.3 30.05 5.85 29.85 9.35 29.8 9.95 30.1 10.55 32.8 16.1 27.65 18.45 27.45 20.6 26.45 22.5 25.45 24.25 23.95 25.65 22.6 30.15 18.05 29.7 15.95 29.5 13.8 29.75 L12.2 31.1 11.05 31.95 Q8.25 32.1 5.9 30.6 3.6 34.8 -0.4 34.4 L-1.75 33.7 -2.8 32.55 -2.9 29.75 Q-2.85 28.3 -2.3 27.0 -4.8 28.0 -8.0 28.45 -10.05 28.7 -11.2 26.95 -12.9 24.5 -13.25 21.5 -17.35 22.2 -21.2 20.95 -22.75 20.45 -23.5 19.6 L-24.2 18.2 Q-24.55 16.5 -23.25 15.35 L-21.85 15.1 Q-19.3 14.95 -18.3 15.1 -18.7 14.75 -19.25 14.55 -20.9 13.8 -22.8 14.15 L-23.5 14.6 -25.85 14.35 Q-29.85 10.85 -30.5 5.5 L-30.8 4.1 Q-30.4 -2.95 -24.45 -6.0 -29.85 -6.75 -34.4 -4.85 L-34.6 -4.35 -34.9 -3.65 -35.15 -2.25 -37.0 -0.55 -39.4 -0.55 -41.55 -2.65 -41.6 -2.7 -41.85 -2.55 Q-43.15 -3.05 -44.0 -3.7 L-44.35 -4.85 Q-41.1 -10.75 -33.9 -10.65 L-31.5 -10.95 Q-28.15 -11.75 -26.8 -15.05 -21.4 -16.85 -24.35 -22.65 -25.65 -25.25 -28.0 -27.1 L-25.95 -27.65 -24.6 -26.5 Q-22.45 -24.15 -20.2 -24.6 L-19.45 -23.55 -17.8 -23.1 -15.7 -24.25 -15.0 -26.4 -13.8 -24.95 Q-7.15 -24.6 -1.05 -21.75 0.15 -21.2 0.9 -20.0 -3.2 -30.7 -14.5 -30.15 L-16.85 -30.2 Q-12.5 -31.5 -7.65 -32.15 -6.65 -31.65 -5.6 -30.95 L-3.75 -32.55 Q0.6 -32.9 5.3 -32.75 L5.45 -32.65 Q6.15 -32.25 6.15 -31.4 8.1 -28.65 11.15 -29.65 10.9 -31.75 11.7 -33.4 12.8 -33.65 13.9 -34.05 18.9 -35.75 23.65 -34.0 L25.55 -31.85 25.95 -30.65 26.05 -30.2 26.1 -29.5 Q26.2 -28.9 25.95 -28.55 L24.6 -28.55 Q24.0 -28.75 23.45 -29.0 L19.2 -28.7 Q17.45 -28.4 17.25 -26.9 L24.6 -27.15 Q26.8 -26.55 27.2 -24.5 L29.15 -23.8 29.8 -22.45" fill="#dbdbdb" fill-rule="evenodd" stroke="none"/>
    <path d="M20.25 -5.2 Q20.8 -4.6 20.9 -3.6 21.25 2.65 18.45 8.3 L17.95 9.35 Q20.05 15.2 15.75 19.45 14.2 21.0 11.95 21.15 9.85 24.4 6.35 23.3 5.6 23.1 5.1 22.55 L5.65 20.75 Q4.3 16.85 8.6 14.8 9.2 14.5 9.65 13.9 14.3 7.3 11.65 -0.25 10.45 -3.8 7.45 -5.65 4.65 -2.2 0.25 -4.05 -0.85 -4.55 -1.5 -3.5 -4.25 0.8 -3.05 5.6 -2.75 6.8 -1.8 7.75 1.55 11.25 2.65 15.3 L2.35 15.55 Q-1.85 17.75 -6.4 15.8 L-6.15 16.35 -6.4 16.85 Q-14.0 15.45 -15.75 7.65 -16.25 5.35 -16.15 3.05 L-15.1 2.15 -14.1 1.45 Q-18.0 -4.6 -16.15 -11.0 -15.75 -12.5 -14.4 -13.35 -11.05 -15.55 -8.4 -12.3 -6.3 -17.6 -1.2 -15.9 L6.0 -13.3 Q10.3 -13.4 13.85 -11.4 L15.8 -9.85 20.25 -5.2 M11.45 17.3 L11.3 17.5 11.45 17.5 11.45 17.3" fill="#eaeaea" fill-rule="evenodd" stroke="none"/>
    <path d="M14.3 -35.3 Q16.7 -33.55 18.3 -31.1 L21.25 -26.5 Q23.2 -23.25 25.85 -20.65 L27.15 -19.0 Q28.85 -16.5 29.0 -13.5 29.2 -9.75 28.65 -6.05 28.3 -3.65 27.55 -1.3 28.5 1.5 28.9 4.45 29.4 8.1 27.6 11.4 26.55 13.3 24.85 14.6 L23.1 16.0 14.65 20.2 Q22.0 11.2 18.95 9.25 L14.3 9.15 15.55 7.55 Q18.1 4.65 22.05 3.55 21.35 1.7 20.1 0.4 L19.15 -0.55 13.9 -0.8 13.55 -1.75 Q15.4 -3.5 17.8 -3.75 L17.75 -5.95 Q18.85 -7.3 19.6 -5.45 L19.55 -4.8 23.6 -4.95 Q24.85 -7.1 24.95 -9.5 L24.95 -10.7 21.75 -8.6 21.45 -6.8 20.7 -7.0 18.5 -10.7 19.2 -11.15 21.0 -9.8 23.45 -11.0 Q23.8 -12.95 22.5 -14.45 L21.05 -16.0 20.2 -16.75 Q17.75 -10.75 12.45 -7.1 L9.2 -5.15 8.2 -6.35 Q10.6 -8.1 11.9 -10.7 L12.35 -12.1 12.3 -13.5 Q11.9 -15.45 10.65 -16.9 L7.85 -19.7 4.55 -21.7 Q2.8 -22.55 0.95 -23.0 L-0.4 -23.2 Q-2.4 -22.75 -3.95 -21.45 -5.5 -20.15 -6.3 -18.8 -7.1 -17.45 -5.5 -12.1 L-3.1 -9.55 -2.45 -8.55 -2.35 -7.8 Q-4.35 -8.45 -6.15 -9.6 L-7.25 -10.4 Q-11.0 -13.3 -13.0 -17.7 -14.45 -22.15 -14.65 -26.95 L-14.65 -30.1 -13.85 -30.7 -12.8 -30.3 -12.6 -29.65 Q-11.5 -31.55 -9.75 -32.95 -7.1 -34.95 -3.7 -36.1 L1.4 -37.65 Q5.05 -38.55 8.75 -37.75 11.7 -37.1 14.3 -35.3 M-22.15 -17.4 L-18.55 -20.55 -16.45 -21.85 -15.7 -21.0 -15.85 -19.6 -17.3 -19.4 -19.7 -16.8 Q-19.55 -12.1 -17.9 -7.65 -16.45 -3.9 -14.2 -0.9 -11.75 2.3 -8.85 4.7 L-9.05 5.15 Q-12.45 4.0 -15.25 1.8 -18.15 -0.5 -20.2 -3.7 L-22.35 -7.15 Q-22.25 -2.8 -20.9 1.25 -19.45 5.75 -16.95 9.85 L-17.7 10.75 -21.1 7.85 Q-24.1 4.45 -25.55 0.15 -27.05 -4.35 -26.4 -9.1 -26.1 -11.4 -25.0 -13.5 -23.9 -15.65 -22.15 -17.4" fill="#f2f4ff" fill-rule="evenodd" stroke="none"/>
    <path d="M0.1 -60.75 L-1.45 -62.5 -6.85 -64.75 Q-10.55 -61.65 -11.5 -56.35 -12.85 -62.05 -9.0 -66.85 -5.25 -67.65 -1.45 -65.1 1.5 -63.2 2.95 -59.9 L0.1 -60.75 M11.95 -58.1 L14.75 -60.3 11.15 -60.0 10.7 -61.75 Q13.65 -64.35 17.15 -63.4 21.45 -62.45 23.9 -58.65 23.7 -56.0 21.2 -55.3 L16.2 -53.35 16.2 -54.3 17.7 -55.2 19.55 -55.0 20.7 -58.1 19.35 -60.3 Q18.2 -56.55 14.15 -57.3 L11.95 -58.1 M27.95 -52.3 Q31.5 -51.7 33.9 -48.9 L35.15 -47.3 35.65 -46.3 34.3 -44.75 Q29.0 -46.15 25.65 -50.45 L27.95 -52.3 M2.95 -16.4 L6.15 -22.85 Q6.15 -15.2 15.8 -53.6 10.0 -21.8 10.55 -20.1 11.2 -18.05 12.9 -22.1 13.4 -13.25 14.95 -11.35 L15.05 -11.35 Q16.45 -11.85 38.5 -49.5 37.3 -51.4 35.45 -52.95 L32.95 -54.8 Q36.65 -53.4 39.05 -50.5 L40.15 -52.35 39.1 -50.4 Q40.4 -48.85 41.35 -46.8 L41.05 -45.75 Q46.05 -45.85 48.1 -41.3 L48.85 -39.1 47.6 -39.2 Q46.45 -42.1 43.55 -42.95 L42.1 -43.25 40.3 -44.85 Q39.8 -47.3 38.6 -49.35 L17.5 -8.3 17.2 -7.7 Q24.4 -1.2 55.55 -1.8 L16.55 0.6 Q16.9 2.1 21.65 3.9 17.65 4.8 42.3 8.35 L42.35 8.35 51.05 9.55 51.0 9.1 52.25 8.35 53.8 9.95 67.35 11.65 54.7 10.8 56.0 12.1 Q55.6 13.25 53.6 12.4 52.25 11.7 51.55 10.55 L40.9 9.75 Q40.2 11.35 52.4 13.35 16.85 11.55 51.1 15.45 13.3 12.1 21.7 19.4 9.9 14.0 36.05 43.1 7.1 16.75 4.75 17.45 3.65 17.75 22.55 51.0 1.5 18.0 -0.05 17.4 L-0.4 17.3 -1.7 16.7 Q-2.85 19.3 -0.45 52.4 -4.1 16.75 -7.4 29.7 -6.5 16.75 -19.4 55.8 -8.7 15.75 -9.55 14.05 -10.0 13.25 -11.3 21.65 L-10.7 13.3 -15.75 17.3 -15.8 17.25 Q-10.75 12.5 -11.9 12.75 -12.85 12.9 -15.8 14.9 L-17.65 16.75 -16.7 17.8 -17.65 18.65 -18.65 18.0 -32.4 35.1 Q-19.35 17.5 -43.75 37.95 -17.3 10.9 -22.9 15.35 -18.5 9.2 -24.45 12.4 L-37.55 22.05 Q-16.9 4.0 -16.1 2.95 L-15.8 2.55 -15.7 2.35 Q-16.4 0.35 -29.9 -8.45 L-30.75 -7.1 -33.1 -6.8 -31.25 -9.3 -43.4 -16.95 Q-42.6 -16.25 -41.95 -15.2 -40.6 -12.8 -41.25 -10.25 L-41.55 -9.3 -40.8 -7.95 -41.75 -6.8 Q-43.1 -7.7 -43.3 -9.2 -43.6 -11.35 -43.5 -13.55 L-45.7 -16.15 Q-45.55 -20.5 -42.9 -23.65 L-40.7 -26.0 -39.25 -25.2 -40.4 -25.2 -43.7 -17.2 Q-16.1 -2.75 -15.5 -4.3 -14.8 -6.3 -16.8 -15.45 -12.2 -9.35 -35.95 -49.15 -13.05 -17.0 -11.6 -15.95 -9.8 -14.75 -18.1 -40.75 -8.65 -16.35 -6.9 -14.65 L-6.5 -14.65 -6.5 -14.25 -5.5 -13.35 -4.7 -17.05 -4.65 -17.45 Q-4.3 -19.25 -6.7 -36.0 -3.1 -14.65 -2.75 -54.2 -0.95 -14.6 1.5 -34.8 0.2 -20.0 0.45 -18.55 L0.55 -18.1 Q1.05 -15.7 1.5 -14.15 L2.7 -16.0 2.7 -16.4 2.95 -16.4 M4.5 -41.0 L0.95 -42.15 Q4.3 -42.1 6.45 -39.55 7.5 -38.4 7.9 -36.85 L7.7 -36.75 6.65 -37.05 4.5 -41.0 M48.3 -32.45 L49.05 -32.8 52.05 -26.45 Q48.65 -27.15 48.1 -31.95 L48.3 -32.45 M54.45 -9.3 L55.7 -16.7 56.55 -16.9 57.45 -16.65 Q58.4 -11.75 54.45 -9.3 M-10.8 -50.85 L-13.2 -45.55 -8.4 -46.3 -9.0 -44.4 Q-9.2 -43.9 -9.55 -43.5 -10.75 -42.25 -12.25 -41.5 -14.0 -43.25 -13.4 -46.4 L-12.35 -51.25 -10.8 -50.85 M-51.6 -6.4 Q-51.0 -6.4 -50.55 -6.0 -50.15 -5.65 -50.15 -5.05 -50.15 -4.5 -50.55 -4.1 -51.0 -3.7 -51.6 -3.7 -52.15 -3.7 -52.6 -4.1 -53.05 -4.5 -53.05 -5.05 L-52.6 -6.0 Q-52.15 -6.4 -51.6 -6.4 M-32.2 -4.95 Q-32.4 2.45 -27.6 8.25 -31.65 6.1 -32.6 1.7 -33.1 -0.65 -32.9 -3.05 L-32.2 -4.95 M-40.0 -7.0 L-39.65 -7.75 -35.2 -6.2 -35.85 -5.25 -40.0 -7.0 M-15.9 19.05 Q-15.55 18.65 -14.95 18.65 -14.4 18.65 -14.0 19.05 -13.6 19.4 -13.6 20.0 -13.6 20.55 -14.0 20.95 -14.4 21.35 -14.95 21.35 -15.55 21.35 -15.9 20.95 -16.3 20.55 -16.3 20.0 -16.3 19.4 -15.9 19.05 M-37.05 9.1 Q-39.65 9.75 -41.55 7.35 -44.0 4.25 -42.7 0.45 L-41.55 0.05 -40.6 0.7 -41.15 1.6 -39.65 7.75 -37.05 9.1 M-47.25 6.3 L-43.2 10.75 -48.9 8.05 -49.1 7.2 -48.6 6.4 -47.25 6.3 M54.45 24.05 L52.5 24.8 52.25 24.05 54.45 22.4 54.45 24.05 M50.2 29.45 L51.15 29.15 52.6 30.5 Q49.9 34.05 45.7 33.1 44.9 32.7 44.15 32.45 L49.15 30.8 50.2 29.45" fill="#ffffff" fill-rule="evenodd" stroke="none"/>
    <path d="M-15.8 17.3 L-15.85 17.35 -15.8 17.25 -15.8 17.3 M-4.85 -17.3 L-5.55 -18.75 -4.65 -17.45 -4.85 -17.3 M0.45 -18.55 L0.95 -19.65 0.65 -18.5 0.45 -18.55 M2.7 -16.4 L2.65 -19.1 2.95 -16.4 2.7 -16.4" fill="url(#gradient0)" fill-rule="evenodd" stroke="none"/>
    <path d="M-0.05 17.4 L-1.05 20.65 -0.4 17.35 -0.4 17.3 -0.05 17.4 M-15.75 17.3 L-15.8 17.3 -15.8 17.25 -15.75 17.3 M-6.9 -14.65 L-6.45 -18.15 -6.5 -14.65 -6.9 -14.65 M-4.7 -17.05 L-4.85 -17.3 -4.65 -17.45 -4.7 -17.05 M0.65 -18.5 L0.55 -18.1 0.45 -18.55 0.65 -18.5" fill="url(#gradient1)" fill-rule="evenodd" stroke="none"/>
    <path d="M-82.25 -81.4 Q-50.4 -113.1 -5.2 -112.8 39.8 -112.7 71.4 -80.8 103.0 -48.85 102.75 -3.75 102.45 41.4 70.6 73.05 38.7 104.65 -6.45 104.45 -51.4 104.3 -83.1 72.35 -114.7 40.45 -114.45 -4.65 -114.15 -49.8 -82.25 -81.4" fill="url(#gradient2)" fill-rule="evenodd" stroke="none"/>
  </g>
  <defs>
    <radialGradient cx="0" cy="0" gradientTransform="matrix(0.0395, 0.0, 0.0, 0.0395, 1.15, 3.4)" gradientUnits="userSpaceOnUse" id="gradient0" r="819.2" spreadMethod="pad">
      <stop offset="0.4549019607843137" stop-color="#ffffff"/>
      <stop offset="0.7372549019607844" stop-color="#d6d9fe"/>
      <stop offset="1.0" stop-color="#703cf9"/>
    </radialGradient>
    <radialGradient cx="0" cy="0" gradientTransform="matrix(0.0735, 0.0, 0.0, 0.0735, -0.1, 2.55)" gradientUnits="userSpaceOnUse" id="gradient1" r="819.2" spreadMethod="pad">
      <stop offset="0.4549019607843137" stop-color="#ffffff"/>
      <stop offset="0.7372549019607844" stop-color="#d6d9fe"/>
      <stop offset="1.0" stop-color="#703cf9"/>
    </radialGradient>
    <radialGradient cx="0" cy="0" gradientTransform="matrix(0.1384, 0.0, 0.0, 0.1384, -4.35, -2.8)" gradientUnits="userSpaceOnUse" id="gradient2" r="819.2" spreadMethod="pad">
      <stop offset="0.011764705882352941" stop-color="#ffffff"/>
      <stop offset="1.0" stop-color="#ffffff" stop-opacity="0.0"/>
    </radialGradient>
  </defs>
</svg>
