<?xml version="1.0" encoding="UTF-8" standalone="no"?>
<svg xmlns:xlink="http://www.w3.org/1999/xlink" height="43.4px" width="124.4px" xmlns="http://www.w3.org/2000/svg">
  <g transform="matrix(1.0, 0.0, 0.0, 1.0, 7.15, 11.45)">
    <path d="M51.1 1.15 L49.4 2.5 Q47.65 3.55 45.5 3.9 46.2 4.1 47.5 3.9 49.25 3.2 51.35 3.35 53.5 3.35 55.45 4.8 56.55 5.5 57.95 5.55 L55.25 6.1 Q53.2 6.4 51.05 6.1 48.6 5.8 46.6 6.7 45.1 7.25 43.4 7.25 L41.8 7.4 45.35 8.45 Q47.35 8.85 49.05 7.85 50.7 6.4 53.05 7.7 L56.15 7.85 Q58.25 6.7 60.85 8.55 L61.55 8.95 61.3 8.4 Q61.3 7.95 61.8 7.6 L61.65 7.55 62.0 7.5 62.15 7.4 Q63.0 6.95 64.3 7.0 65.55 6.95 66.45 7.4 67.3 7.8 67.3 8.4 67.3 8.95 66.45 9.4 L64.3 9.8 62.75 9.6 62.65 9.55 62.55 9.55 Q61.1 9.2 59.4 10.15 57.6 10.9 55.4 11.35 56.3 11.0 55.65 10.6 54.55 9.4 52.8 9.6 50.0 9.6 48.9 10.95 50.75 11.0 52.15 11.6 53.75 12.35 53.8 13.35 53.75 14.35 52.15 15.0 50.6 15.75 48.35 15.75 L45.15 15.25 44.4 15.1 44.9 15.5 45.0 15.55 45.2 15.65 Q46.45 15.75 47.4 16.4 48.55 17.15 48.55 18.25 48.55 19.3 47.4 20.05 46.3 20.8 44.7 20.8 43.1 20.8 41.95 20.05 L41.6 19.8 41.6 19.9 40.75 21.25 38.8 23.5 35.95 25.45 36.05 26.0 Q36.05 27.15 34.55 28.0 33.0 28.8 30.95 28.85 28.85 28.8 27.35 28.0 25.85 27.15 25.85 26.0 L26.1 25.1 Q22.85 25.2 21.2 27.4 L17.95 30.75 16.4 31.6 Q16.1 31.6 16.25 31.75 L7.75 30.75 7.35 30.6 5.9 30.7 Q0.45 30.65 -3.4 25.1 -7.2 19.7 -7.15 12.0 -7.2 4.25 -3.4 -1.3 -0.55 -5.3 3.15 -6.3 L3.35 -6.4 3.25 -7.15 Q3.25 -8.25 3.75 -9.0 4.25 -9.75 5.05 -9.75 5.8 -9.75 6.3 -9.0 L6.75 -7.95 7.0 -8.05 7.9 -8.8 Q9.55 -10.0 11.85 -10.0 14.15 -10.0 15.8 -8.8 17.45 -7.65 17.45 -6.1 17.45 -4.75 16.2 -3.65 L16.15 -3.6 16.4 -3.5 16.95 -3.05 Q20.2 -1.0 24.2 0.75 28.0 2.05 31.95 2.75 34.75 3.2 36.75 2.25 37.85 -0.15 38.1 -5.35 L40.75 -6.15 43.25 -6.35 Q46.85 -6.35 49.4 -4.85 51.9 -3.3 51.95 -1.15 51.9 0.1 51.1 1.1 L51.1 1.15 M40.75 5.9 L41.2 5.95 40.75 5.8 Q37.9 4.9 35.6 6.8 33.9 7.85 31.95 8.45 32.05 8.7 33.1 9.0 34.75 9.3 35.7 8.25 37.4 5.5 40.75 5.9" fill="url(#gradient0)" fill-rule="evenodd" stroke="none"/>
    <path d="M51.1 1.1 L51.35 1.15 51.1 1.15 51.1 1.1 M70.75 7.4 L70.25 7.4 70.85 7.2 70.75 7.4 M62.5 15.8 L62.4 15.7 62.6 15.8 62.5 15.8" fill="url(#gradient1)" fill-rule="evenodd" stroke="none"/>
    <path d="M27.8 -10.7 Q28.4 -9.9 28.4 -8.75 28.4 -7.6 27.8 -6.85 27.3 -6.0 26.5 -6.0 25.65 -6.0 25.1 -6.85 24.6 -7.6 24.6 -8.75 24.6 -9.9 25.1 -10.7 25.65 -11.45 26.5 -11.45 27.3 -11.45 27.8 -10.7 M56.85 -3.05 Q58.65 -4.05 61.3 -4.0 63.9 -4.05 65.7 -3.05 67.5 -1.95 67.55 -0.55 67.5 0.85 65.7 1.85 63.9 2.95 61.3 2.95 58.65 2.95 56.85 1.85 55.05 0.85 55.05 -0.55 55.05 -1.95 56.85 -3.05 M72.75 -0.8 Q73.3 0.0 73.3 1.2 73.3 2.35 72.75 3.2 72.15 4.0 71.35 4.0 70.5 4.0 69.95 3.2 69.5 2.5 69.4 1.6 L68.9 1.3 69.4 1.2 Q69.35 0.0 69.95 -0.8 70.5 -1.65 71.35 -1.6 72.15 -1.65 72.75 -0.8 M107.5 -10.7 L107.75 -10.0 108.05 -9.0 Q108.1 -8.25 107.8 -7.65 L107.15 -6.75 Q106.2 -6.3 105.35 -7.1 104.8 -7.75 104.75 -8.8 L104.9 -9.8 105.05 -10.15 105.4 -10.8 106.0 -11.05 106.45 -11.2 107.05 -10.95 107.5 -10.7 M114.25 -8.3 Q116.65 -7.1 117.2 -3.1 117.15 -2.95 117.25 -2.8 L117.15 -2.1 116.85 -1.05 Q113.05 0.1 112.7 -6.4 112.85 -7.6 113.65 -8.05 L114.25 -8.3 M103.55 4.25 Q113.7 9.05 109.65 22.05 109.15 23.75 107.7 23.2 104.25 21.85 105.45 17.0 L104.8 14.45 Q104.35 13.1 103.55 12.1 101.7 11.75 100.2 10.3 L99.6 9.55 99.5 8.7 99.5 7.5 99.55 7.05 Q100.4 4.9 102.15 4.6 L103.55 4.25 M82.7 27.85 Q83.2 27.15 83.9 27.15 84.55 27.15 85.05 27.85 85.55 28.55 85.55 29.55 85.55 30.55 85.05 31.2 84.55 31.95 83.9 31.95 83.2 31.95 82.7 31.2 82.2 30.55 82.2 29.55 82.2 28.55 82.7 27.85 M70.85 7.2 Q71.1 6.65 71.75 6.25 72.85 5.5 74.4 5.5 L75.8 5.65 Q76.5 5.85 77.05 6.25 78.15 6.95 78.15 8.05 78.15 9.15 77.05 9.9 L75.8 10.45 74.4 10.6 Q72.85 10.6 71.75 9.9 70.65 9.15 70.65 8.05 L70.75 7.4 70.85 7.2 M61.2 6.25 Q64.2 1.55 67.2 3.9 65.2 6.4 62.7 6.4 L61.2 6.25 M70.55 10.6 Q71.45 10.6 72.1 11.55 L72.6 12.7 73.1 13.05 73.9 14.05 72.75 14.0 Q72.65 15.15 72.1 16.0 71.45 16.9 70.55 16.9 69.6 16.9 69.0 16.0 68.35 15.1 68.35 13.75 68.35 13.1 68.5 12.55 L68.4 12.5 68.55 12.4 69.0 11.55 Q69.6 10.6 70.55 10.6 M62.5 15.8 Q62.95 16.5 62.95 17.4 62.95 18.95 61.45 20.05 60.0 21.15 57.95 21.15 55.85 21.15 54.35 20.05 53.4 19.35 53.1 18.45 L52.6 18.3 52.95 18.05 52.9 17.4 53.1 16.35 53.05 16.25 53.25 15.65 Q53.85 14.65 55.0 14.35 56.3 13.65 57.95 13.7 60.0 13.65 61.45 14.75 L62.4 15.7 62.5 15.8" fill="#000000" fill-rule="evenodd" stroke="none"/>
  </g>
  <defs>
    <radialGradient cx="0" cy="0" gradientTransform="matrix(0.0342, 0.0, 0.0, 0.0489, 1.7, 10.6)" gradientUnits="userSpaceOnUse" id="gradient0" r="819.2" spreadMethod="pad">
      <stop offset="0.0" stop-color="#f906c9"/>
      <stop offset="0.9803921568627451" stop-color="#000000"/>
    </radialGradient>
    <radialGradient cx="0" cy="0" gradientTransform="matrix(0.1673, 0.0, 0.0, 0.1673, 0.7, 12.9)" gradientUnits="userSpaceOnUse" id="gradient1" r="819.2" spreadMethod="pad">
      <stop offset="0.0" stop-color="#f906c9"/>
      <stop offset="0.9803921568627451" stop-color="#000000"/>
    </radialGradient>
  </defs>
</svg>
