<?xml version="1.0" encoding="UTF-8" standalone="no"?>
<svg xmlns:xlink="http://www.w3.org/1999/xlink" height="45.25px" width="132.0px" xmlns="http://www.w3.org/2000/svg">
  <g transform="matrix(1.0, 0.0, 0.0, 1.0, 7.15, 14.55)">
    <path d="M7.7 -14.55 Q16.25 -14.55 17.5 -5.95 L18.85 -4.95 Q21.1 -2.75 24.2 -1.3 L27.3 0.1 27.4 0.15 27.3 0.15 25.25 0.3 21.95 0.55 Q22.25 0.55 23.55 1.3 L27.3 3.45 28.9 4.35 Q30.9 5.35 33.5 5.95 38.75 6.4 40.6 3.5 39.6 2.45 39.6 1.1 39.6 0.05 40.2 -0.85 L38.8 -1.6 41.1 -1.8 41.8 -2.3 Q44.0 -3.7 47.15 -3.7 50.25 -3.7 52.45 -2.3 54.6 -0.9 54.65 1.1 L54.95 1.05 54.65 1.15 Q54.6 3.1 52.45 4.5 50.6 5.65 48.15 5.85 L47.4 6.1 45.75 6.25 Q43.6 6.35 41.7 5.65 42.2 6.35 43.75 6.8 42.4 7.55 41.6 8.25 39.85 9.55 37.8 10.0 34.55 10.45 31.3 10.0 33.2 11.0 34.4 11.9 L37.35 12.05 Q40.25 11.0 43.4 11.45 44.55 11.3 44.65 10.15 44.55 8.7 46.1 8.45 48.65 7.55 51.75 8.0 53.85 8.25 55.05 7.55 L57.45 7.5 58.9 7.4 Q61.05 7.4 62.55 8.3 63.8 9.05 64.0 10.1 L64.05 10.1 65.1 10.45 64.1 10.3 64.05 10.3 64.05 10.55 Q64.05 11.85 62.55 12.75 61.05 13.65 58.9 13.7 L56.85 13.45 56.35 13.65 Q54.3 13.75 52.35 14.35 L47.5 14.65 47.4 14.65 47.45 14.7 47.5 14.75 Q49.95 14.8 51.7 15.85 53.5 16.9 53.55 18.4 53.5 19.9 51.7 20.95 49.9 22.05 47.3 22.05 44.7 22.05 42.85 20.95 L42.8 20.9 42.8 20.95 42.75 21.05 Q40.05 24.5 34.75 24.95 34.35 22.9 33.15 22.05 30.5 20.0 28.9 22.2 L27.3 23.55 Q24.7 25.25 19.0 27.55 17.1 27.95 15.2 28.85 L7.75 30.45 7.75 30.5 7.35 30.5 7.0 30.6 5.9 30.7 Q0.45 30.65 -3.4 25.1 -7.2 19.7 -7.15 12.0 -7.2 4.25 -3.4 -1.3 L-1.1 -3.9 Q-0.45 -13.0 7.7 -14.55 M36.3 -6.85 Q35.6 -6.85 35.1 -7.6 34.6 -8.35 34.6 -9.3 34.6 -10.3 35.1 -11.05 35.6 -11.8 36.3 -11.8 37.0 -11.8 37.55 -11.05 38.05 -10.3 38.05 -9.3 38.05 -8.35 37.55 -7.6 37.0 -6.85 36.3 -6.85 M67.05 1.0 L68.4 1.15 67.05 1.2 67.05 1.0 M58.35 0.15 L57.55 0.3 58.25 -0.05 58.35 -0.1 58.35 0.15 M83.65 8.95 Q83.95 8.55 84.35 8.55 84.75 8.55 85.05 8.95 L85.35 9.95 85.05 10.95 84.35 11.35 Q83.95 11.35 83.65 10.95 83.35 10.55 83.35 9.95 83.35 9.35 83.65 8.95 M99.15 28.4 Q99.15 27.65 99.5 27.1 99.9 26.6 100.45 26.6 100.95 26.6 101.3 27.1 101.7 27.65 101.7 28.4 101.7 29.15 101.3 29.65 100.95 30.25 100.45 30.25 99.9 30.25 99.5 29.65 99.15 29.15 99.15 28.4 M73.5 8.0 L73.9 8.1 Q74.45 7.35 75.2 7.4 75.95 7.4 76.5 8.15 L76.95 9.05 77.95 9.4 77.05 9.95 77.05 10.05 Q77.05 11.1 76.5 11.85 L75.75 12.55 75.95 13.85 Q75.95 15.0 75.35 15.85 74.75 16.75 73.95 16.75 73.15 16.75 72.5 15.85 71.9 15.0 71.95 13.85 71.9 12.7 72.5 11.8 72.95 11.2 73.5 11.05 L73.35 10.05 Q73.35 9.1 73.75 8.4 L73.5 8.0 M69.9 3.6 Q70.9 4.05 70.9 4.65 70.9 5.25 69.9 5.65 68.9 6.15 67.55 6.15 L65.15 5.65 Q64.15 5.25 64.2 4.65 64.15 4.05 65.15 3.6 66.15 3.15 67.55 3.2 68.9 3.15 69.9 3.6 M64.25 18.9 Q62.6 19.6 60.25 19.65 L56.2 18.9 Q54.6 18.2 54.6 17.25 54.6 16.25 56.2 15.5 L56.25 15.5 Q56.05 15.3 55.7 15.5 57.55 14.2 60.15 14.8 L60.35 14.85 Q62.65 14.85 64.25 15.5 65.9 16.25 65.9 17.25 65.9 18.2 64.25 18.9 M60.3 4.65 Q61.05 5.25 62.25 5.25 59.8 5.95 57.2 5.25 L53.85 4.95 58.15 4.05 Q59.25 3.75 60.3 4.65" fill="url(#gradient0)" fill-rule="evenodd" stroke="none"/>
    <path d="M58.35 -0.1 Q58.55 -0.85 59.65 -1.35 61.0 -1.95 62.85 -1.95 64.7 -1.95 66.05 -1.35 67.35 -0.7 67.35 0.2 L67.05 1.0 67.05 1.2 66.8 1.25 66.05 1.7 Q64.7 2.35 62.85 2.35 61.0 2.35 59.65 1.7 58.3 1.1 58.35 0.2 L58.35 0.15 58.35 -0.1 M122.8 14.5 L120.0 5.9 Q119.8 5.05 120.5 4.9 128.85 13.0 121.1 20.05 L120.55 20.15 120.25 19.25 Q120.05 18.55 120.35 18.0 L122.4 15.25 122.8 14.5 M70.9 9.9 Q70.05 10.35 68.9 10.4 67.75 10.35 66.9 9.9 66.05 9.45 66.1 8.9 66.1 8.35 66.8 7.9 L66.75 7.85 66.8 7.9 66.9 7.8 Q67.75 7.4 68.9 7.4 L70.9 7.8 Q71.75 8.3 71.75 8.9 71.75 9.45 70.9 9.9" fill="#000000" fill-rule="evenodd" stroke="none"/>
  </g>
  <defs>
    <radialGradient cx="0" cy="0" gradientTransform="matrix(0.0421, 0.0, 0.0, 0.0603, 1.7, 10.6)" gradientUnits="userSpaceOnUse" id="gradient0" r="819.2" spreadMethod="pad">
      <stop offset="0.0" stop-color="#f906c9"/>
      <stop offset="0.9803921568627451" stop-color="#000000"/>
    </radialGradient>
  </defs>
</svg>
