<?xml version="1.0" encoding="UTF-8" standalone="no"?>
<svg xmlns:xlink="http://www.w3.org/1999/xlink" height="184.85px" width="29.65px" xmlns="http://www.w3.org/2000/svg">
  <g transform="matrix(1.0, 0.0, 0.0, 1.0, 11.3, 142.8)">
    <path d="M0.05 -126.7 L-1.3 -126.7 Q-2.45 -127.05 -1.3 -127.8 L0.05 -127.8 Q0.7 -127.25 0.05 -126.7 M-6.85 -48.05 L3.1 -48.05 Q4.35 -46.45 3.0 -45.5 L-6.85 -45.5 Q-7.55 -46.75 -6.85 -48.05 M5.3 -7.7 L3.1 -7.7 -0.5 -7.7 -2.55 -7.7 -10.95 -7.7 Q-11.6 -9.15 -10.95 -10.25 L5.1 -10.25 Q6.2 -8.5 5.3 -7.7 M1.05 41.95 L0.1 42.05 Q-1.6 42.05 -2.85 40.8 -4.05 39.6 -4.05 37.9 -4.05 36.5 -3.2 35.4 L-3.1 35.25 -3.45 35.25 Q-3.75 34.5 -3.45 33.55 L-1.35 33.4 0.1 33.4 Q1.95 33.8 1.1 35.45 L0.7 35.5 -3.1 35.25 0.7 35.5 1.1 35.45 Q4.55 38.8 1.05 41.95 M-4.65 -22.2 Q-5.15 -23.45 -4.65 -24.75 L-2.1 -24.75 0.05 -24.75 Q1.7 -22.9 0.0 -22.2 L-4.65 -22.2 M-1.9 -34.25 L-4.65 -34.25 Q-5.15 -35.5 -4.65 -36.8 L0.0 -36.8 Q1.25 -35.5 0.1 -34.25 L-1.9 -34.25 M-2.65 36.95 Q-3.2 36.95 -3.6 37.3 -3.95 37.7 -3.95 38.25 -3.95 38.8 -3.6 39.15 -3.2 39.55 -2.65 39.55 -2.1 39.55 -1.75 39.15 -1.35 38.8 -1.35 38.25 -1.35 37.7 -1.75 37.3 -2.1 36.95 -2.65 36.95" fill="#c7ca77" fill-rule="evenodd" stroke="none"/>
    <path d="M-1.3 -126.7 L0.05 -126.7 Q-0.15 -50.5 3.1 -48.05 L-6.85 -48.05 Q-2.65 -59.8 -1.4 -117.8 L-1.3 -126.7 M0.05 -127.8 L-1.3 -127.8 -3.0 -130.3 Q-1.75 -136.65 0.05 -142.8 1.65 -131.75 0.05 -127.8 M-10.95 -10.25 Q-4.45 -13.5 -4.65 -22.2 L0.0 -22.2 Q1.05 -13.05 5.1 -10.25 L-10.95 -10.25 M-4.65 -36.8 Q-1.35 -38.3 -6.85 -45.5 L3.0 -45.5 Q-0.05 -42.35 0.0 -36.8 L-4.65 -36.8" fill="#c4dde4" fill-rule="evenodd" stroke="none"/>
    <path d="M0.05 -126.7 Q0.7 -127.25 0.05 -127.8 L1.45 -127.8 Q2.4 -127.25 1.45 -126.7 L0.05 -126.7 M6.8 -48.05 Q7.8 -46.95 6.8 -45.5 L3.0 -45.5 Q4.35 -46.45 3.1 -48.05 L6.8 -48.05 M10.75 -10.25 Q11.35 -9.15 10.75 -7.7 L5.3 -7.7 Q6.2 -8.5 5.1 -10.25 L10.75 -10.25 M1.5 33.4 L3.6 33.55 Q3.95 34.75 3.6 35.25 L3.3 35.25 3.4 35.4 Q4.25 36.5 4.25 37.9 4.25 39.6 3.0 40.8 2.15 41.7 1.05 41.95 4.55 38.8 1.1 35.45 1.95 33.8 0.1 33.4 L1.5 33.4 M3.1 -42.2 Q3.4 -42.05 3.6 -42.0 6.05 -40.9 8.25 -39.35 10.55 -37.85 12.2 -35.55 13.1 -34.3 13.3 -32.8 13.7 -30.35 13.4 -27.7 10.7 -19.15 5.15 -14.9 4.65 -16.7 5.15 -17.65 L5.4 -18.05 6.95 -19.35 Q9.55 -21.75 11.05 -24.45 12.5 -27.2 11.5 -31.8 10.5 -36.45 3.6 -40.3 3.05 -41.25 3.1 -42.0 L3.1 -42.2 M2.1 -34.25 L0.1 -34.25 Q1.25 -35.5 0.0 -36.8 L4.65 -36.8 Q5.35 -35.7 4.65 -34.25 L2.1 -34.25 M0.05 -24.75 L2.25 -24.75 4.65 -24.75 Q5.35 -23.65 4.65 -22.2 L0.0 -22.2 Q1.7 -22.9 0.05 -24.75 M3.3 35.25 L1.1 35.45 3.3 35.25" fill="#959c3c" fill-rule="evenodd" stroke="none"/>
    <path d="M3.1 -48.05 Q-0.15 -50.5 0.05 -126.7 L1.45 -126.7 1.55 -106.05 Q2.4 -72.75 6.8 -48.05 L3.1 -48.05 M1.45 -127.8 L0.05 -127.8 Q1.65 -131.75 0.05 -142.8 2.0 -136.55 3.05 -130.25 L1.45 -127.8 M6.8 -45.5 L5.9 -44.45 Q4.15 -44.0 3.5 -43.15 3.15 -42.75 3.1 -42.2 L3.1 -42.0 Q3.05 -41.25 3.6 -40.3 3.05 -38.15 4.65 -36.8 L0.0 -36.8 Q-0.05 -42.35 3.0 -45.5 L6.8 -45.5 M10.2 -10.65 L10.75 -10.25 5.1 -10.25 Q1.05 -13.05 0.0 -22.2 L4.65 -22.2 Q4.85 -19.95 5.4 -18.05 L5.15 -17.65 Q4.65 -16.7 5.15 -14.9 5.3 -13.65 7.4 -11.45 8.55 -10.25 10.2 -10.65" fill="#86a7b0" fill-rule="evenodd" stroke="none"/>
    <path d="M3.1 -42.2 Q3.15 -42.75 3.5 -43.15 9.65 -42.45 13.85 -35.35 18.0 -28.25 14.5 -21.05 10.95 -13.9 7.4 -11.45 5.3 -13.65 5.15 -14.9 10.7 -19.15 13.4 -27.7 13.7 -30.35 13.3 -32.8 13.1 -34.3 12.2 -35.55 10.55 -37.85 8.25 -39.35 6.05 -40.9 3.6 -42.0 3.4 -42.05 3.1 -42.2" fill="#60690e" fill-rule="evenodd" stroke="none"/>
    <path d="M0.1 -34.25 L2.1 -34.25 3.75 -33.1 Q5.25 -31.6 5.25 -29.45 5.25 -27.3 3.75 -25.8 3.05 -25.15 2.25 -24.75 L0.05 -24.75 Q4.5 -29.1 0.1 -34.25" fill="#ad0128" fill-rule="evenodd" stroke="none"/>
    <path d="M-2.1 -24.75 Q-2.9 -25.15 -3.55 -25.8 -5.1 -27.3 -5.1 -29.45 -5.1 -31.6 -3.55 -33.1 -2.8 -33.9 -1.9 -34.25 L0.1 -34.25 Q4.5 -29.1 0.05 -24.75 L-2.1 -24.75 M-4.5 -30.4 L-4.05 -29.3 Q-3.6 -28.85 -2.95 -28.85 -2.3 -28.85 -1.85 -29.3 -1.4 -29.75 -1.4 -30.4 -1.4 -31.05 -1.85 -31.5 -2.3 -31.95 -2.95 -31.95 -3.6 -31.95 -4.05 -31.5 L-4.5 -30.4" fill="#ff1b44" fill-rule="evenodd" stroke="none"/>
    <path d="M-4.5 -30.4 L-4.05 -31.5 Q-3.6 -31.95 -2.95 -31.95 -2.3 -31.95 -1.85 -31.5 -1.4 -31.05 -1.4 -30.4 -1.4 -29.75 -1.85 -29.3 -2.3 -28.85 -2.95 -28.85 -3.6 -28.85 -4.05 -29.3 L-4.5 -30.4" fill="#fe98af" fill-rule="evenodd" stroke="none"/>
    <path d="M3.1 -7.7 Q6.0 12.85 1.5 33.4 L0.1 33.4 Q-1.25 28.6 -2.35 16.85 -3.5 5.1 -0.5 -7.7 L3.1 -7.7" fill="#000000" fill-rule="evenodd" stroke="none"/>
    <path d="M-1.35 33.4 Q-6.1 13.1 -2.55 -7.7 L-0.5 -7.7 Q-3.5 5.1 -2.35 16.85 -1.25 28.6 0.1 33.4 L-1.35 33.4" fill="#72839e" fill-rule="evenodd" stroke="none"/>
    <path d="M-2.65 36.95 Q-2.1 36.95 -1.75 37.3 -1.35 37.7 -1.35 38.25 -1.35 38.8 -1.75 39.15 -2.1 39.55 -2.65 39.55 -3.2 39.55 -3.6 39.15 -3.95 38.8 -3.95 38.25 -3.95 37.7 -3.6 37.3 -3.2 36.95 -2.65 36.95" fill="#eaeaca" fill-rule="evenodd" stroke="none"/>
    <path d="M5.9 -44.45 Q15.7 -39.4 18.2 -31.05 19.55 -18.4 10.2 -10.65 8.55 -10.25 7.4 -11.45 10.95 -13.9 14.5 -21.05 18.0 -28.25 13.85 -35.35 9.65 -42.45 3.5 -43.15 4.15 -44.0 5.9 -44.45" fill="#002300" fill-rule="evenodd" stroke="none"/>
    <path d="M-1.3 -126.7 L0.05 -126.7 1.45 -126.7 Q2.4 -127.25 1.45 -127.8 L0.05 -127.8 -1.3 -127.8 Q-2.45 -127.05 -1.3 -126.7 M-6.85 -48.05 L3.1 -48.05 Q4.35 -46.45 3.0 -45.5 L6.8 -45.5 Q7.8 -46.95 6.8 -48.05 L3.1 -48.05 M5.9 -44.45 Q15.7 -39.4 18.2 -31.05 19.55 -18.4 10.2 -10.65 8.55 -10.25 7.4 -11.45 M10.75 -10.25 Q11.35 -9.15 10.75 -7.7 L5.3 -7.7 3.1 -7.7 -0.5 -7.7 -2.55 -7.7 -10.95 -7.7 Q-11.6 -9.15 -10.95 -10.25 L5.1 -10.25 Q6.2 -8.5 5.3 -7.7 M1.5 33.4 L3.6 33.55 Q3.95 34.75 3.6 35.25 L3.3 35.25 1.1 35.45 0.7 35.5 -3.1 35.25 -3.45 35.25 Q-3.75 34.5 -3.45 33.55 L-1.35 33.4 0.1 33.4 Q1.95 33.8 1.1 35.45 M-4.65 -22.2 Q-5.15 -23.45 -4.65 -24.75 L-2.1 -24.75 0.05 -24.75 Q1.7 -22.9 0.0 -22.2 L4.65 -22.2 Q5.35 -23.65 4.65 -24.75 L2.25 -24.75 0.05 -24.75 M-1.9 -34.25 L-4.65 -34.25 Q-5.15 -35.5 -4.65 -36.8 L0.0 -36.8 Q1.25 -35.5 0.1 -34.25 L2.1 -34.25 4.65 -34.25 Q5.35 -35.7 4.65 -36.8 L0.0 -36.8 M-6.85 -45.5 Q-7.55 -46.75 -6.85 -48.05 M3.6 -40.3 Q10.5 -36.45 11.5 -31.8 12.5 -27.2 11.05 -24.45 9.55 -21.75 6.95 -19.35 L5.4 -18.05 M3.0 -45.5 L-6.85 -45.5 M0.1 -34.25 L-1.9 -34.25 M0.0 -22.2 L-4.65 -22.2 M0.1 33.4 L1.5 33.4 M5.1 -10.25 L10.75 -10.25" fill="none" stroke="#93933c" stroke-linecap="round" stroke-linejoin="round" stroke-width="0.05"/>
    <path d="M-1.3 -126.7 L-1.4 -117.8 Q-2.65 -59.8 -6.85 -48.05 M0.05 -142.8 Q-1.75 -136.65 -3.0 -130.3 L-1.3 -127.8 M1.45 -127.8 L3.05 -130.25 Q2.0 -136.55 0.05 -142.8 M1.45 -126.7 L1.55 -106.05 Q2.4 -72.75 6.8 -48.05 M6.8 -45.5 L5.9 -44.45 Q4.15 -44.0 3.5 -43.15 3.15 -42.75 3.1 -42.2 L3.1 -42.0 Q3.05 -41.25 3.6 -40.3 3.05 -38.15 4.65 -36.8 M10.2 -10.65 L10.75 -10.25 M3.1 -7.7 Q6.0 12.85 1.5 33.4 M3.3 35.25 L3.4 35.4 Q4.25 36.5 4.25 37.9 4.25 39.6 3.0 40.8 2.15 41.7 1.05 41.95 L0.1 42.05 Q-1.6 42.05 -2.85 40.8 -4.05 39.6 -4.05 37.9 -4.05 36.5 -3.2 35.4 L-3.1 35.25 M-1.35 33.4 Q-6.1 13.1 -2.55 -7.7 M-10.95 -10.25 Q-4.45 -13.5 -4.65 -22.2 M-4.65 -36.8 Q-1.35 -38.3 -6.85 -45.5 M5.15 -14.9 Q5.3 -13.65 7.4 -11.45 M5.4 -18.05 L5.15 -17.65 Q4.65 -16.7 5.15 -14.9 M4.65 -22.2 Q4.85 -19.95 5.4 -18.05" fill="none" stroke="#31616c" stroke-linecap="round" stroke-linejoin="round" stroke-width="0.05"/>
    <path d="M-2.1 -24.75 Q-2.9 -25.15 -3.55 -25.8 -5.1 -27.3 -5.1 -29.45 -5.1 -31.6 -3.55 -33.1 -2.8 -33.9 -1.9 -34.25 M2.25 -24.75 Q3.05 -25.15 3.75 -25.8 5.25 -27.3 5.25 -29.45 5.25 -31.6 3.75 -33.1 L2.1 -34.25" fill="none" stroke="#31616c" stroke-linecap="round" stroke-linejoin="round" stroke-width="0.05"/>
  </g>
</svg>
