<?xml version="1.0" encoding="UTF-8" standalone="no"?>
<svg xmlns:xlink="http://www.w3.org/1999/xlink" height="7.0px" width="12.75px" xmlns="http://www.w3.org/2000/svg">
  <g transform="matrix(1.0, 0.0, 0.0, 1.0, 3.85, 3.5)">
    <path d="M-2.45 2.1 Q-4.0 1.0 -3.85 -0.35 L-3.75 -0.85 Q-3.4 -2.0 -1.85 -2.7 0.0 -3.65 2.5 -3.45 4.05 -3.4 7.2 -1.75 L7.1 -1.2 6.9 -0.7 6.7 -0.15 6.15 0.6 Q4.8 2.1 1.65 2.3 L-2.45 2.1" fill="#343a3f" fill-rule="evenodd" stroke="none"/>
    <path d="M7.2 -1.75 L8.35 -1.1 8.9 -0.35 Q8.5 2.15 7.3 2.85 6.1 3.55 4.8 3.5 L2.65 3.4 0.6 3.3 Q-0.7 3.25 -2.35 2.15 L-2.45 2.1 1.65 2.3 Q4.8 2.1 6.15 0.6 L6.7 -0.15 6.9 -0.7 7.1 -1.2 7.2 -1.75" fill="#000000" fill-rule="evenodd" stroke="none"/>
    <path d="M7.2 -1.75 L8.35 -1.1 8.9 -0.35 M-3.75 -0.85 Q-3.4 -2.0 -1.85 -2.7 0.0 -3.65 2.5 -3.45 4.05 -3.4 7.2 -1.75 Z" fill="none" stroke="#4b4421" stroke-linecap="round" stroke-linejoin="round" stroke-width="0.05"/>
  </g>
</svg>
