<?xml version="1.0" encoding="UTF-8" standalone="no"?>
<svg xmlns:xlink="http://www.w3.org/1999/xlink" height="50.55px" width="144.9px" xmlns="http://www.w3.org/2000/svg">
  <g transform="matrix(1.0, 0.0, 0.0, 1.0, 7.15, 14.75)">
    <path d="M6.3 -7.6 L7.35 -7.65 7.75 -7.65 8.4 -7.65 13.55 -7.95 14.0 -8.05 14.25 -9.15 Q15.15 -12.7 17.95 -14.2 19.4 -14.95 20.85 -14.7 25.75 -11.1 25.35 -6.05 28.65 -5.85 31.05 -4.5 L31.15 -4.45 Q34.0 -2.8 34.0 -0.4 34.0 2.0 31.15 3.65 L31.05 3.75 30.1 4.25 31.05 4.4 Q33.55 4.6 35.5 3.65 39.3 5.45 42.25 4.95 40.4 3.55 40.4 1.7 40.4 -0.55 43.1 -2.1 45.75 -3.7 49.5 -3.7 53.25 -3.7 55.9 -2.1 57.75 -1.05 58.35 0.4 58.8 -0.2 59.75 -0.7 61.8 -1.9 64.7 -1.85 67.6 -1.9 69.6 -0.7 71.7 0.45 71.7 2.0 71.7 3.55 69.6 4.75 67.6 5.9 64.7 5.9 61.8 5.9 59.75 4.75 L58.15 3.4 Q57.5 4.55 55.9 5.5 L55.1 5.9 Q56.2 6.4 57.15 7.0 58.7 7.85 60.65 8.0 L63.7 8.15 60.75 8.55 60.1 8.7 Q56.3 9.25 52.8 10.6 50.9 11.0 49.0 10.6 L45.35 9.6 Q44.4 9.3 44.2 10.15 42.55 12.05 39.85 11.9 43.25 13.2 45.9 12.5 47.1 11.6 48.65 12.3 52.2 13.2 55.05 11.6 55.85 10.9 57.15 11.05 L60.85 10.85 Q61.35 10.55 62.25 11.15 L63.05 11.55 65.45 11.2 Q67.25 11.2 68.5 11.8 69.85 12.35 69.85 13.2 69.85 14.0 68.5 14.6 67.25 15.15 65.45 15.15 L62.35 14.6 Q61.05 14.0 61.05 13.2 L59.95 13.35 Q57.75 13.35 56.15 14.25 L56.1 14.25 56.15 14.25 Q57.7 13.7 59.1 14.55 61.45 14.9 63.45 15.6 67.6 17.05 67.6 19.15 67.6 21.2 63.45 22.6 59.3 24.1 53.5 24.1 L45.3 23.2 45.5 24.35 Q45.5 26.5 42.75 28.0 40.0 29.45 36.1 29.5 L31.05 28.75 29.4 28.0 28.8 27.65 Q28.4 28.95 27.05 30.65 L25.95 31.7 Q15.65 39.8 6.05 31.95 5.4 31.45 5.4 30.7 0.3 30.4 -3.4 25.1 -7.2 19.7 -7.15 12.0 -7.2 4.25 -3.4 -1.3 -0.5 -5.4 3.35 -6.4 4.5 -7.3 6.3 -7.6" fill="url(#gradient0)" fill-rule="evenodd" stroke="none"/>
    <path d="M136.55 10.45 L136.95 10.85 Q137.8 12.75 137.75 15.1 L137.55 16.75 Q135.75 20.35 133.45 17.75 133.3 16.5 133.9 15.6 L134.55 14.35 Q133.85 11.95 134.75 10.3 L135.4 9.7 136.55 10.45" fill="url(#gradient1)" fill-rule="evenodd" stroke="none"/>
    <path d="M101.45 16.85 Q101.05 17.5 100.5 17.5 99.9 17.5 99.45 16.85 99.0 16.25 99.05 15.4 99.0 14.6 99.45 13.95 99.9 13.35 100.5 13.35 101.05 13.35 101.45 13.95 101.9 14.6 101.95 15.4 101.9 16.25 101.45 16.85 M88.3 10.95 Q89.35 10.95 90.15 12.05 90.9 13.1 90.9 14.7 90.9 16.25 90.15 17.3 89.35 18.4 88.3 18.4 87.2 18.4 86.45 17.3 85.65 16.25 85.7 14.7 85.65 13.1 86.45 12.05 87.2 10.95 88.3 10.95" fill="#000000" fill-rule="evenodd" stroke="none"/>
  </g>
  <defs>
    <radialGradient cx="0" cy="0" gradientTransform="matrix(0.0342, 0.0, 0.0, 0.0489, 1.7, 10.6)" gradientUnits="userSpaceOnUse" id="gradient0" r="819.2" spreadMethod="pad">
      <stop offset="0.0" stop-color="#f906c9"/>
      <stop offset="0.9803921568627451" stop-color="#000000"/>
    </radialGradient>
    <radialGradient cx="0" cy="0" gradientTransform="matrix(0.1673, 0.0, 0.0, 0.1673, 0.7, 12.9)" gradientUnits="userSpaceOnUse" id="gradient1" r="819.2" spreadMethod="pad">
      <stop offset="0.0" stop-color="#f906c9"/>
      <stop offset="0.9803921568627451" stop-color="#000000"/>
    </radialGradient>
  </defs>
</svg>
