<?xml version="1.0" encoding="UTF-8" standalone="no"?>
<svg xmlns:xlink="http://www.w3.org/1999/xlink" height="81.35px" width="82.0px" xmlns="http://www.w3.org/2000/svg">
  <g transform="matrix(1.0, 0.0, 0.0, 1.0, -17.2, 20.45)">
    <path d="M66.6 18.9 L68.25 22.05 Q68.95 23.45 70.25 24.05 73.75 25.6 76.9 22.95 78.8 21.4 80.8 20.25 L69.05 18.55 66.6 18.9 M99.2 21.5 L85.0 22.55 70.6 32.3 61.95 23.0 59.7 23.05 48.1 35.0 31.65 20.3 47.6 31.4 52.95 21.65 43.8 8.75 Q36.4 13.95 28.95 19.1 L44.3 5.4 55.5 15.1 76.95 14.3 99.2 21.5" fill="url(#gradient0)" fill-rule="evenodd" stroke="none"/>
    <path d="M29.25 -8.7 Q41.2 -20.55 58.1 -20.45 74.95 -20.4 86.8 -8.45 98.65 3.5 98.55 20.4 98.45 37.3 86.5 49.15 74.55 61.0 57.65 60.9 40.8 60.85 28.95 48.9 17.1 36.95 17.2 20.05 17.3 3.15 29.25 -8.7" fill="url(#gradient1)" fill-rule="evenodd" stroke="none"/>
  </g>
  <defs>
    <radialGradient cx="0" cy="0" gradientTransform="matrix(0.081, 0.0, 0.0, 0.081, 33.0, 25.8)" gradientUnits="userSpaceOnUse" id="gradient0" r="819.2" spreadMethod="pad">
      <stop offset="0.4549019607843137" stop-color="#fffbf0"/>
      <stop offset="0.7372549019607844" stop-color="#d6d9fe"/>
      <stop offset="1.0" stop-color="#703cf9"/>
    </radialGradient>
    <radialGradient cx="0" cy="0" gradientTransform="matrix(0.0518, 0.0, 0.0, 0.0518, 58.45, 20.75)" gradientUnits="userSpaceOnUse" id="gradient1" r="819.2" spreadMethod="pad">
      <stop offset="0.011764705882352941" stop-color="#ffffff"/>
      <stop offset="1.0" stop-color="#ffffff" stop-opacity="0.0"/>
    </radialGradient>
  </defs>
</svg>
