<?xml version="1.0" encoding="UTF-8" standalone="no"?>
<svg xmlns:xlink="http://www.w3.org/1999/xlink" height="67.5px" width="132.0px" xmlns="http://www.w3.org/2000/svg">
  <g transform="matrix(1.0, 0.0, 0.0, 1.0, 12.35, 45.3)">
    <path d="M1.8 -43.85 Q2.3 -43.05 3.5 -42.35 L-5.45 -19.6 -7.0 -15.75 -8.25 -17.45 -6.85 -21.1 -6.75 -21.5 1.8 -43.85" fill="#cccccc" fill-rule="evenodd" stroke="none"/>
    <path d="M83.8 18.7 Q53.15 29.5 14.75 7.05 L-12.35 -8.1 Q-8.65 -26.5 1.8 -43.85 L-6.75 -21.5 -6.85 -21.1 -8.25 -17.45 -7.0 -15.75 -5.45 -19.6 Q35.35 7.65 83.8 18.7" fill="#3b2e2d" fill-rule="evenodd" stroke="none"/>
    <path d="M1.8 -43.85 L1.8 -43.9 Q41.4 -41.85 62.65 -35.95 L68.1 -31.15 Q36.95 -39.05 3.5 -42.35 2.3 -43.05 1.8 -43.85" fill="#ebebeb" fill-rule="evenodd" stroke="none"/>
    <path d="M119.65 -14.3 L119.4 -13.7 Q112.3 3.75 96.85 17.25 96.1 18.6 83.8 18.7 35.35 7.65 -5.45 -19.6 L3.5 -42.35 Q94.45 -9.25 118.65 -14.1 L119.65 -14.3" fill="#594444" fill-rule="evenodd" stroke="none"/>
    <path d="M1.8 -43.9 L1.8 -44.05 Q9.65 -45.8 17.85 -45.1 L36.15 -43.8 Q45.4 -43.0 54.35 -40.7 L68.95 -36.55 85.75 -30.9 95.15 -27.3 Q112.65 -20.35 119.65 -14.3 L118.65 -14.1 Q94.45 -9.25 3.5 -42.35 36.95 -39.05 68.1 -31.15 L62.65 -35.95 Q41.4 -41.85 1.8 -43.9" fill="#826564" fill-rule="evenodd" stroke="none"/>
    <path d="M96.85 17.25 Q96.1 18.6 83.8 18.7 35.35 7.65 -5.45 -19.6" fill="none" stroke="#221a1a" stroke-linecap="round" stroke-linejoin="round" stroke-width="0.05"/>
    <path d="M3.5 -42.35 Q36.95 -39.05 68.1 -31.15 L62.65 -35.95 Q41.4 -41.85 1.8 -43.9 M1.8 -43.85 L-6.75 -21.5 M-6.85 -21.1 L-8.25 -17.45 -7.0 -15.75 -5.45 -19.6 3.5 -42.35" fill="none" stroke="#999999" stroke-linecap="round" stroke-linejoin="round" stroke-width="0.05"/>
    <path d="M1.8 -43.9 L1.8 -43.85 Q2.3 -43.05 3.5 -42.35 94.45 -9.25 118.65 -14.1 L119.65 -14.3 119.4 -13.7 Q112.3 3.75 96.85 17.25 M1.8 -44.05 L1.8 -43.9 M1.8 -44.05 Q9.65 -45.8 17.85 -45.1 L36.15 -43.8 Q45.4 -43.0 54.35 -40.7 L68.95 -36.55 85.75 -30.9 95.15 -27.3 Q112.65 -20.35 119.65 -14.3 M83.8 18.7 Q53.15 29.5 14.75 7.05 L-12.35 -8.1 Q-8.65 -26.5 1.8 -43.85" fill="none" stroke="#221a1a" stroke-linecap="round" stroke-linejoin="round" stroke-width="0.05"/>
    <path d="M88.5 -1.85 Q87.25 -5.05 88.8 -7.9 90.35 -10.75 93.75 -11.5 97.15 -12.25 100.5 -10.55 103.85 -8.8 105.1 -5.65 106.4 -2.45 104.85 0.4 103.3 3.25 99.85 4.05 96.45 4.85 93.1 3.1 89.75 1.4 88.5 -1.85 M98.7 -1.5 L99.7 -1.2 100.65 -1.25 Q101.75 -1.5 102.2 -2.35 102.7 -3.2 102.3 -4.2 101.9 -5.2 100.9 -5.75 L98.85 -6.0 98.2 -5.75 97.6 -5.25 97.3 -4.9 97.2 -4.6 Q96.9 -3.9 97.2 -3.05 L97.9 -2.0 Q98.2 -1.75 98.6 -1.55 L98.7 -1.5" fill="#999999" fill-rule="evenodd" stroke="none"/>
    <path d="M97.2 -4.6 L97.3 -4.9 97.6 -5.25 98.2 -5.75 98.85 -6.0 100.9 -5.75 Q101.9 -5.2 102.3 -4.2 102.7 -3.2 102.2 -2.35 101.75 -1.5 100.65 -1.25 L99.7 -1.2 98.7 -1.5 99.4 -1.55 99.7 -1.6 Q100.2 -1.85 100.5 -2.35 100.85 -2.95 100.55 -3.7 L99.5 -4.8 99.4 -4.85 97.95 -5.05 97.2 -4.6" fill="#cccccc" fill-rule="evenodd" stroke="none"/>
    <path d="M97.2 -4.6 L97.95 -5.05 99.4 -4.85 99.5 -4.8 100.55 -3.7 Q100.85 -2.95 100.5 -2.35 100.2 -1.85 99.7 -1.6 L99.4 -1.55 98.7 -1.5 98.6 -1.55 Q98.2 -1.75 97.9 -2.0 L97.2 -3.05 Q96.9 -3.9 97.2 -4.6" fill="#333333" fill-rule="evenodd" stroke="none"/>
    <path d="M88.5 -1.85 Q89.75 1.4 93.1 3.1 96.45 4.85 99.85 4.05 103.3 3.25 104.85 0.4 106.4 -2.45 105.1 -5.65 103.85 -8.8 100.5 -10.55 97.15 -12.25 93.75 -11.5 90.35 -10.75 88.8 -7.9 87.25 -5.05 88.5 -1.85 M98.7 -1.5 L99.7 -1.2 100.65 -1.25 Q101.75 -1.5 102.2 -2.35 102.7 -3.2 102.3 -4.2 101.9 -5.2 100.9 -5.75 L98.85 -6.0 98.2 -5.75 97.6 -5.25 97.3 -4.9 97.2 -4.6 Q96.9 -3.9 97.2 -3.05 L97.9 -2.0 Q98.2 -1.75 98.6 -1.55 L98.7 -1.5" fill="none" stroke="#4b4b4b" stroke-linecap="round" stroke-linejoin="round" stroke-width="0.05"/>
  </g>
</svg>
