<?xml version="1.0" encoding="UTF-8" standalone="no"?>
<svg xmlns:xlink="http://www.w3.org/1999/xlink" height="83.6px" width="75.6px" xmlns="http://www.w3.org/2000/svg">
  <g transform="matrix(1.0, 0.0, 0.0, 1.0, 33.55, 32.5)">
    <path d="M27.45 7.6 Q27.55 1.15 31.05 0.0 L31.2 -0.05 34.75 -1.1 34.95 -1.15 35.3 -1.2 35.8 -1.15 36.1 -1.15 37.9 -0.5 38.3 -0.25 38.65 -0.05 39.8 0.9 Q42.05 3.2 42.05 6.4 42.05 9.65 39.8 11.9 37.55 14.15 34.3 14.2 L31.8 13.8 Q31.55 11.1 29.55 9.1 28.6 8.15 27.5 7.6 L27.45 7.6 27.5 7.6 Q28.6 8.15 29.55 9.1 31.55 11.1 31.8 13.8 L31.85 14.6 Q31.85 17.85 29.55 20.1 27.3 22.35 24.1 22.35 21.6 22.35 19.65 21.0 19.45 23.75 17.4 25.75 15.15 28.05 11.95 28.05 8.8 28.05 6.6 25.95 6.1 27.85 4.6 29.35 2.35 31.65 -0.9 31.65 -4.1 31.65 -6.4 29.35 -8.65 27.1 -8.65 23.9 -8.65 22.5 -8.25 21.35 L-8.15 21.0 Q-5.4 17.85 -2.25 17.2 0.9 16.5 4.5 18.3 L4.6 18.4 4.55 18.25 Q9.6 11.7 16.6 14.05 L16.6 14.1 16.65 14.05 Q18.85 6.15 27.45 7.6 M19.65 21.0 L19.7 20.3 Q19.7 17.05 17.4 14.8 L16.75 14.2 16.6 14.1 16.75 14.2 17.4 14.8 Q19.7 17.05 19.7 20.3 L19.65 21.0 M4.6 18.4 L4.7 18.5 Q6.85 20.7 6.85 23.9 L6.6 25.95 6.85 23.9 Q6.85 20.7 4.7 18.5 L4.6 18.4" fill="#3b2e2d" fill-rule="evenodd" stroke="none"/>
    <path d="M31.8 13.8 L34.3 14.2 Q37.55 14.15 39.8 11.9 42.05 9.65 42.05 6.4 42.05 3.2 39.8 0.9 L38.65 -0.05 38.3 -0.25 37.9 -0.5 36.1 -1.15 35.8 -1.15 35.3 -1.2 34.95 -1.15 34.75 -1.1 31.2 -0.05 31.05 0.0 Q27.55 1.15 27.45 7.6 L27.5 7.6 Q28.6 8.15 29.55 9.1 31.55 11.1 31.8 13.8 L31.85 14.6 Q31.85 17.85 29.55 20.1 27.3 22.35 24.1 22.35 21.6 22.35 19.65 21.0 19.45 23.75 17.4 25.75 15.15 28.05 11.95 28.05 8.8 28.05 6.6 25.95 6.1 27.85 4.6 29.35 2.35 31.65 -0.9 31.65 -4.1 31.65 -6.4 29.35 -8.65 27.1 -8.65 23.9 -8.65 22.5 -8.25 21.35 L-8.15 21.0 Q-5.4 17.85 -2.25 17.2 0.9 16.5 4.5 18.3 L4.6 18.4 4.55 18.25 Q9.6 11.7 16.6 14.05 L16.6 14.1 16.65 14.05 Q18.85 6.15 27.45 7.6 M6.6 25.95 L6.85 23.9 Q6.85 20.7 4.7 18.5 L4.6 18.4 M16.6 14.1 L16.75 14.2 17.4 14.8 Q19.7 17.05 19.7 20.3 L19.65 21.0" fill="none" stroke="#898801" stroke-linecap="round" stroke-linejoin="round" stroke-width="0.05"/>
    <path d="M-11.7 27.9 L-6.2 16.0 Q-9.2 17.5 -12.85 18.1 L-17.05 18.15 -19.75 18.6 -20.75 24.4 -18.35 21.2 -17.1 21.35 Q-15.05 21.6 -13.75 23.1 L-12.6 24.85 Q-12.0 26.0 -11.75 27.55 L-11.7 27.9" fill="#333333" fill-rule="evenodd" stroke="none"/>
    <path d="M-20.75 24.4 L-20.35 24.4 Q-17.8 24.5 -16.05 25.2 -13.2 26.35 -12.5 29.05 L-12.4 29.55 Q-12.0 28.7 -11.75 27.85 L-11.7 27.9 -11.75 27.55 Q-12.0 26.0 -12.6 24.85 L-13.75 23.1 Q-15.05 21.6 -17.1 21.35 L-18.35 21.2 -20.75 24.4" fill="#666666" fill-rule="evenodd" stroke="none"/>
    <path d="M-20.35 24.4 L-21.35 30.25 -25.4 32.6 Q-25.15 34.2 -24.15 34.85 -21.85 34.75 -18.55 33.3 L-16.05 25.2 Q-17.8 24.5 -20.35 24.4" fill="#eaeaea" fill-rule="evenodd" stroke="none"/>
    <path d="M-25.4 32.6 L-28.3 34.05 Q-35.3 38.35 -33.0 41.1 L-16.55 35.75 Q-14.3 32.5 -12.5 29.05 -13.2 26.35 -16.05 25.2 L-18.55 33.3 Q-21.85 34.75 -24.15 34.85 -25.15 34.2 -25.4 32.6" fill="#ffffff" fill-rule="evenodd" stroke="none"/>
    <path d="M-20.75 24.4 L-20.35 24.4 Q-17.8 24.5 -16.05 25.2 -13.2 26.35 -12.5 29.05 L-12.4 29.55 Q-12.0 28.7 -11.75 27.85 M-25.4 32.6 L-28.3 34.05 M-11.7 27.9 L-6.2 16.0 M-19.75 18.6 L-20.75 24.4" fill="none" stroke="#354544" stroke-linecap="round" stroke-linejoin="round" stroke-width="0.05"/>
    <path d="M-20.35 24.4 L-21.35 30.25 -25.4 32.6 M-28.3 34.05 Q-35.3 38.35 -33.0 41.1 L-16.55 35.75 Q-14.3 32.5 -12.5 29.05" fill="none" stroke="#666666" stroke-linecap="round" stroke-linejoin="round" stroke-width="0.05"/>
    <path d="M-1.9 -24.7 L15.9 -32.5 17.3 -32.5 Q20.6 -31.2 23.25 -29.55 L23.95 -29.15 12.45 -19.55 Q5.55 -12.5 -3.4 -9.85 L-3.4 -9.8 Q-13.45 -5.0 -22.9 -4.35 L-21.0 -7.85 Q-12.65 -9.75 -5.05 -12.65 -2.35 -13.55 0.35 -14.85 L0.4 -14.85 -1.9 -24.7 M17.5 -31.5 L17.3 -31.65 2.45 -24.8 4.25 -16.95 Q12.3 -21.7 19.7 -30.05 L17.5 -31.5" fill="#9e3633" fill-rule="evenodd" stroke="none"/>
    <path d="M-1.9 -24.7 L0.4 -14.85 0.35 -14.85 Q-2.35 -13.55 -5.05 -12.65 -12.65 -9.75 -21.0 -7.85 -11.7 -18.6 -1.95 -24.7 L-1.9 -24.75 -1.9 -24.7 M-22.9 -4.35 Q-13.45 -5.0 -3.4 -9.8 L-3.4 -9.85 Q5.55 -12.5 12.45 -19.55 L23.95 -29.15 29.25 -20.95 28.95 -17.6 Q32.0 -14.2 34.55 -7.45 37.9 1.4 25.4 7.45 28.3 5.15 29.7 2.0 32.55 -4.5 30.5 -10.2 29.95 -11.85 29.05 -13.15 L28.5 -13.6 28.95 -17.6 28.5 -13.6 28.1 -9.2 20.4 -3.95 14.7 11.05 14.55 11.1 9.7 12.85 9.45 12.95 10.25 12.85 Q13.75 12.5 17.3 11.4 L20.55 10.25 Q16.55 18.5 7.2 18.8 2.95 18.9 -2.4 17.25 3.0 15.55 9.45 12.95 3.0 15.55 -2.4 17.25 L-3.7 17.7 -8.45 19.05 -11.6 19.8 -14.95 20.4 -17.4 20.7 -23.0 20.5 -24.15 20.2 -24.8 19.95 -24.9 18.65 -24.1 18.7 -23.3 18.8 Q-17.5 19.05 -10.8 17.55 L-8.45 16.95 -6.1 16.3 -5.85 16.2 Q-0.95 14.55 4.35 12.1 L8.15 10.25 8.15 10.2 8.2 10.2 12.3 8.0 18.95 -5.5 26.55 -10.65 27.25 -20.95 27.05 -21.35 Q25.35 -24.1 23.55 -26.25 L8.8 -13.25 3.9 -10.45 Q0.75 -8.75 -2.1 -7.55 L-2.1 -7.5 Q-12.25 -2.8 -19.1 -2.35 L-26.5 3.1 -22.95 -4.35 -22.9 -4.35 M-25.6 15.45 L-25.6 14.5 -24.55 14.35 -23.9 14.25 -23.05 14.0 Q-21.35 13.55 -19.85 12.65 L-22.7 6.0 Q-24.5 6.8 -26.25 6.7 -26.65 6.35 -26.4 6.05 -24.1 6.1 -22.3 4.9 L-18.8 13.4 -19.1 13.55 -21.1 14.35 -23.8 15.1 -24.1 15.2 -25.6 15.45 M17.5 -31.5 L19.7 -30.05 Q12.3 -21.7 4.25 -16.95 L2.45 -24.8 17.3 -31.65 17.5 -31.5 M-19.05 10.95 L-19.55 7.2 -3.95 3.3 -19.05 10.95" fill="#eed360" fill-rule="evenodd" stroke="none"/>
    <path d="M-24.9 18.65 L-25.6 15.45 -24.1 15.2 -23.8 15.1 -21.1 14.35 -19.1 13.55 -18.8 13.4 -22.3 4.9 Q-24.1 6.1 -26.4 6.05 -27.05 5.3 -26.5 3.1 L-19.1 -2.35 Q-12.25 -2.8 -2.1 -7.5 L-2.1 -7.55 Q0.75 -8.75 3.9 -10.45 L8.8 -13.25 23.55 -26.25 Q25.35 -24.1 27.05 -21.35 L27.25 -20.95 26.55 -10.65 18.95 -5.5 12.3 8.0 8.2 10.2 8.15 10.2 8.15 10.25 4.35 12.1 Q-0.95 14.55 -5.85 16.2 L-6.1 16.3 -8.45 16.95 -10.8 17.55 Q-17.5 19.05 -23.3 18.8 L-24.1 18.7 -24.9 18.65 M5.5 -7.75 L5.5 -7.8 5.5 -7.75 14.2 -12.4 Q18.9 -13.7 18.05 -9.4 15.15 0.3 9.95 2.35 15.15 0.3 18.05 -9.4 18.9 -13.7 14.2 -12.4 L5.5 -7.75 7.05 -5.15 Q8.85 -1.75 9.95 2.35 12.75 0.45 12.95 -1.1 11.15 -4.5 7.65 -6.65 L5.5 -7.75 M-19.05 10.95 L-3.95 3.3 -19.55 7.2 -19.05 10.95" fill="#286e66" fill-rule="evenodd" stroke="none"/>
    <path d="M5.5 -7.75 L7.65 -6.65 Q11.15 -4.5 12.95 -1.1 12.75 0.45 9.95 2.35 8.85 -1.75 7.05 -5.15 L5.5 -7.75" fill="#225e54" fill-rule="evenodd" stroke="none"/>
    <path d="M25.4 7.45 L24.95 7.8 Q23.15 9.1 20.9 10.05 L20.55 10.25 17.3 11.4 Q13.75 12.5 10.25 12.85 L9.45 12.95 9.7 12.85 14.55 11.1 14.7 11.05 20.4 -3.95 28.1 -9.2 28.5 -13.6 29.05 -13.15 Q29.95 -11.85 30.5 -10.2 32.55 -4.5 29.7 2.0 28.3 5.15 25.4 7.45 M-7.8 42.55 L-7.9 42.65 -23.6 51.1 Q-27.15 47.5 -23.25 42.4 L-17.55 37.5 -14.8 26.9 Q-9.25 23.35 -4.6 23.4 -6.35 31.7 -12.0 38.95 -11.25 42.4 -7.8 42.55 M5.5 -7.75 L5.5 -7.8 5.5 -7.75" fill="#ffffff" fill-rule="evenodd" stroke="none"/>
    <path d="M7.2 18.8 L3.1 26.5 3.05 26.5 Q4.0 24.4 2.0 21.3 L-0.15 20.5 -1.8 20.0 -7.6 19.85 Q-11.65 20.5 -15.4 23.5 L-14.95 20.4 -11.6 19.8 -8.45 19.05 -3.7 17.7 -2.4 17.25 Q2.95 18.9 7.2 18.8" fill="#333333" fill-rule="evenodd" stroke="none"/>
    <path d="M-14.8 26.9 Q-16.75 25.55 -15.35 23.5 L-15.4 23.5 Q-11.65 20.5 -7.6 19.85 L-1.8 20.0 -0.15 20.5 2.0 21.3 Q4.0 24.4 3.05 26.5 -0.4 23.4 -4.6 23.4 -9.25 23.35 -14.8 26.9" fill="#666666" fill-rule="evenodd" stroke="none"/>
    <path d="M-26.35 9.4 L-26.35 9.3 -26.35 8.0 -26.25 6.75 -26.25 6.7 Q-24.5 6.8 -22.7 6.0 L-26.35 9.4" fill="#e87171" fill-rule="evenodd" stroke="none"/>
    <path d="M-25.6 14.5 L-25.65 14.4 -26.35 9.4 -22.7 6.0 -19.85 12.65 Q-21.35 13.55 -23.05 14.0 L-23.9 14.25 -24.55 14.35 -25.6 14.5" fill="#df3e3e" fill-rule="evenodd" stroke="none"/>
    <path d="M3.05 26.5 Q-1.1 35.25 -7.8 42.55 -11.25 42.4 -12.0 38.95 -6.35 31.7 -4.6 23.4 -0.4 23.4 3.05 26.5" fill="#eaeaea" fill-rule="evenodd" stroke="none"/>
    <path d="M23.95 -29.15 L23.25 -29.55 Q20.6 -31.2 17.3 -32.5 L15.9 -32.5 -1.9 -24.7 M-21.0 -7.85 L-22.9 -4.35 M23.95 -29.15 L29.25 -20.95 28.95 -17.6 Q32.0 -14.2 34.55 -7.45 37.9 1.4 25.4 7.45 L24.95 7.8 Q23.15 9.1 20.9 10.05 L20.55 10.25 Q16.55 18.5 7.2 18.8 L3.1 26.5 3.05 26.5 Q-0.4 23.4 -4.6 23.4 -9.25 23.35 -14.8 26.9 -16.75 25.55 -15.35 23.5 M-15.4 23.5 L-14.95 20.4 -17.4 20.7 -23.0 20.5 -24.15 20.2 -24.8 19.95 M5.5 -7.75 L5.5 -7.8 5.5 -7.75 7.65 -6.65 Q11.15 -4.5 12.95 -1.1 12.75 0.45 9.95 2.35 15.15 0.3 18.05 -9.4 18.9 -13.7 14.2 -12.4 L5.5 -7.75 7.05 -5.15 Q8.85 -1.75 9.95 2.35 M-2.1 -7.55 L-2.1 -7.5 M28.5 -13.6 L29.05 -13.15 Q29.95 -11.85 30.5 -10.2 32.55 -4.5 29.7 2.0 28.3 5.15 25.4 7.45 M28.5 -13.6 L28.95 -17.6 M9.45 12.95 L9.7 12.85 14.55 11.1 14.7 11.05 20.4 -3.95 28.1 -9.2 28.5 -13.6 M8.15 10.25 L8.15 10.2 M20.55 10.25 L17.3 11.4 Q13.75 12.5 10.25 12.85 L9.45 12.95 Q3.0 15.55 -2.4 17.25 2.95 18.9 7.2 18.8 M-14.95 20.4 L-11.6 19.8 -8.45 19.05 -3.7 17.7 -2.4 17.25" fill="none" stroke="#354544" stroke-linecap="round" stroke-linejoin="round" stroke-width="0.05"/>
    <path d="M-1.9 -24.75 L-1.95 -24.7" fill="none" stroke="#485b58" stroke-linecap="round" stroke-linejoin="round" stroke-width="0.05"/>
    <path d="M-24.8 19.95 L-24.9 18.65 M-25.6 15.45 L-25.6 14.5 M-26.25 6.7 Q-26.65 6.35 -26.4 6.05 M-26.5 3.1 L-22.95 -4.35 -22.9 -4.35 M-1.95 -24.7 Q-11.7 -18.6 -21.0 -7.85" fill="none" stroke="#985605" stroke-linecap="round" stroke-linejoin="round" stroke-width="0.05"/>
    <path d="M3.05 26.5 Q-1.1 35.25 -7.8 42.55 L-7.9 42.65 -23.6 51.1 Q-27.15 47.5 -23.25 42.4 L-17.55 37.5 -14.8 26.9" fill="none" stroke="#666666" stroke-linecap="round" stroke-linejoin="round" stroke-width="0.05"/>
  </g>
</svg>
