<?xml version="1.0" encoding="UTF-8" standalone="no"?>
<svg xmlns:xlink="http://www.w3.org/1999/xlink" height="93.95px" width="66.95px" xmlns="http://www.w3.org/2000/svg">
  <g transform="matrix(1.0, 0.0, 0.0, 1.0, 60.1, 3.35)">
    <path d="M-11.65 0.9 L-11.9 7.45 -40.1 21.9 -41.05 62.15 -48.5 65.4 Q-50.75 66.35 -54.0 68.65 -66.7 33.5 -53.0 15.9 L-50.5 13.95 Q-34.0 1.5 -11.5 -2.55 L-11.65 0.9" fill="#b4b071" fill-rule="evenodd" stroke="none"/>
    <path d="M-11.65 0.9 L-1.25 -3.35 Q9.45 -2.05 6.0 4.5 -10.75 20.0 -24.7 25.4 L-29.15 26.85 Q-32.15 53.1 -23.45 66.4 -14.85 79.65 -30.45 90.6 -41.1 83.9 -48.5 65.4 L-41.05 62.15 -40.1 21.9 -11.9 7.45 -11.65 0.9" fill="#3b2e2d" fill-rule="evenodd" stroke="none"/>
    <path d="M-11.65 0.9 L-11.9 7.45 -40.1 21.9 -41.05 62.15 -48.5 65.4 Q-50.75 66.35 -54.0 68.65 -66.7 33.5 -53.0 15.9 L-50.5 13.95 Q-34.0 1.5 -11.5 -2.55 L-11.65 0.9" fill="none" stroke="#28513d" stroke-linecap="round" stroke-linejoin="round" stroke-width="0.05"/>
    <path d="M-48.5 65.4 Q-41.1 83.9 -30.45 90.6 -14.85 79.65 -23.45 66.4 -32.15 53.1 -29.15 26.85 L-24.7 25.4 Q-10.75 20.0 6.0 4.5 9.45 -2.05 -1.25 -3.35 L-11.65 0.9 Z" fill="none" stroke="#482424" stroke-linecap="round" stroke-linejoin="round" stroke-width="0.05"/>
  </g>
</svg>
