<?xml version="1.0" encoding="UTF-8" standalone="no"?>
<svg xmlns:xlink="http://www.w3.org/1999/xlink" height="13.1px" width="11.5px" xmlns="http://www.w3.org/2000/svg">
  <g transform="matrix(1.0, 0.0, 0.0, 1.0, 5.75, 6.55)">
    <path d="M5.75 -6.45 Q3.8 -0.2 4.75 6.55 L3.65 6.15 2.15 6.2 0.4 6.35 Q-0.9 6.3 -1.6 5.75 -2.6 5.25 -3.5 5.2 L-4.75 5.3 -5.75 5.15 Q-4.0 -0.5 -5.4 -6.55 -0.65 -6.25 5.75 -6.45 M-1.6 5.75 L-1.15 3.45 -1.6 5.75 M-3.4 2.5 L-4.75 5.3 -3.4 2.5 M2.5 0.8 L2.15 6.2 2.5 0.8" fill="#b2b2b2" fill-rule="evenodd" stroke="none"/>
    <path d="M5.75 -6.45 Q3.8 -0.2 4.75 6.55 L3.65 6.15 2.15 6.2 0.4 6.35 Q-0.9 6.3 -1.6 5.75 -2.6 5.25 -3.5 5.2 L-4.75 5.3 -5.75 5.15 Q-4.0 -0.5 -5.4 -6.55 -0.65 -6.25 5.75 -6.45 M2.15 6.2 L2.5 0.8 M-4.75 5.3 L-3.4 2.5 M-1.15 3.45 L-1.6 5.75" fill="none" stroke="#3a5c5c" stroke-linecap="round" stroke-linejoin="round" stroke-width="0.05"/>
  </g>
</svg>
