<?xml version="1.0" encoding="UTF-8" standalone="no"?>
<svg xmlns:xlink="http://www.w3.org/1999/xlink" height="12.9px" width="11.9px" xmlns="http://www.w3.org/2000/svg">
  <g transform="matrix(1.0, 0.0, 0.0, 1.0, 6.45, 6.5)">
    <path d="M-5.35 -6.5 Q-0.8 -6.2 5.05 -6.45 L5.05 -6.4 5.05 -6.35 Q6.25 -0.35 3.8 6.25 L3.75 6.35 2.2 6.1 1.45 6.2 1.4 6.2 0.75 6.3 0.45 6.35 -0.35 6.4 -1.4 6.35 -1.55 6.35 -2.35 6.0 -2.75 5.55 -3.3 5.3 -3.65 5.2 -3.7 5.2 -3.8 5.15 -4.3 5.1 -5.05 5.15 -5.25 5.2 -5.4 5.25 -5.45 5.3 -5.5 5.3 -6.1 5.2 -6.45 5.15 Q-5.05 2.9 -4.6 0.6 L-4.4 -2.85 Q-4.6 -4.65 -5.35 -6.5 M-3.6 2.7 L-5.05 5.15 -3.6 2.7 M-2.7 3.5 L-3.3 5.3 -2.7 3.5 M2.8 1.65 L0.75 6.3 2.8 1.65" fill="#b2b2b2" fill-rule="evenodd" stroke="none"/>
    <path d="M-5.35 -6.5 Q-0.8 -6.2 5.05 -6.45 L5.05 -6.4 5.05 -6.35 Q6.25 -0.35 3.8 6.25 L3.75 6.35 2.2 6.1 1.45 6.2 1.4 6.2 0.75 6.3 0.45 6.35 -0.35 6.4 -1.4 6.35 -1.55 6.35 -2.35 6.0 -2.75 5.55 -3.3 5.3 -3.65 5.2 -3.7 5.2 -3.8 5.15 -4.3 5.1 -5.05 5.15 -5.25 5.2 -5.4 5.25 -5.45 5.3 -5.5 5.3 -6.1 5.2 -6.45 5.15 Q-5.05 2.9 -4.6 0.6 L-4.4 -2.85 Q-4.6 -4.65 -5.35 -6.5 M0.75 6.3 L2.8 1.65 M-3.3 5.3 L-2.7 3.5 M-5.05 5.15 L-3.6 2.7" fill="none" stroke="#28513d" stroke-linecap="round" stroke-linejoin="round" stroke-width="0.05"/>
  </g>
</svg>
