<?xml version="1.0" encoding="UTF-8" standalone="no"?>
<svg xmlns:xlink="http://www.w3.org/1999/xlink" height="13.05px" width="13.8px" xmlns="http://www.w3.org/2000/svg">
  <g transform="matrix(1.0, 0.0, 0.0, 1.0, 7.2, 6.5)">
    <path d="M-6.85 5.15 L-7.2 5.1 -4.5 -4.75 -5.1 -6.2 -5.3 -6.5 2.5 -6.3 5.4 -6.4 Q8.65 -0.45 3.05 5.9 L2.75 6.2 1.05 6.15 1.1 6.1 0.7 6.15 0.65 6.15 0.55 6.2 3.65 0.85 0.55 6.2 0.2 6.25 0.15 6.25 -1.7 6.55 -2.25 6.55 -2.2 6.5 -2.55 6.5 -3.1 6.2 -3.3 5.65 -3.55 5.45 -2.55 3.6 -3.55 5.45 Q-4.1 5.05 -4.75 5.05 L-4.85 5.05 -5.1 5.05 -6.05 5.25 -5.95 5.2 -6.05 5.2 -6.2 5.25 -6.85 5.15 -4.85 3.25 -6.85 5.15" fill="#b2b2b2" fill-rule="evenodd" stroke="none"/>
    <path d="M0.55 6.2 L0.65 6.15 0.7 6.15 1.1 6.1 1.05 6.15 2.75 6.2 3.05 5.9 Q8.65 -0.45 5.4 -6.4 L2.5 -6.3 -5.3 -6.5 -5.1 -6.2 -4.5 -4.75 -7.2 5.1 -6.85 5.15 -4.85 3.25 M0.55 6.2 L3.65 0.85 M-3.55 5.45 L-3.3 5.65 -3.1 6.2 -2.55 6.5 -2.2 6.5 -2.25 6.55 -1.7 6.55 0.15 6.25 0.2 6.25 0.55 6.2 M-3.55 5.45 L-2.55 3.6 M-6.85 5.15 L-6.2 5.25 -6.05 5.2 -5.95 5.2 -6.05 5.25 -5.1 5.05 -4.85 5.05 -4.75 5.05 Q-4.1 5.05 -3.55 5.45" fill="none" stroke="#28513d" stroke-linecap="round" stroke-linejoin="round" stroke-width="0.05"/>
  </g>
</svg>
