<?xml version="1.0" encoding="UTF-8" standalone="no"?>
<svg xmlns:xlink="http://www.w3.org/1999/xlink" height="13.2px" width="15.95px" xmlns="http://www.w3.org/2000/svg">
  <g transform="matrix(1.0, 0.0, 0.0, 1.0, 7.9, 6.55)">
    <path d="M5.7 -6.4 Q11.95 -0.85 1.75 6.1 L-0.1 6.15 -3.0 6.65 Q-4.25 6.8 -3.85 5.7 -4.5 4.95 -5.35 4.95 L-6.9 5.25 -7.9 5.1 Q-0.75 -0.45 -5.35 -6.55 -0.55 -6.1 5.7 -6.4 M3.3 0.75 Q4.3 2.95 -0.1 6.15 4.3 2.95 3.3 0.75 M-3.9 2.45 L-6.9 5.25 -3.9 2.45 M-3.85 5.7 L-2.05 3.4 -3.85 5.7" fill="#b2b2b2" fill-rule="evenodd" stroke="none"/>
    <path d="M5.7 -6.4 Q11.95 -0.85 1.75 6.1 L-0.1 6.15 -3.0 6.65 Q-4.25 6.8 -3.85 5.7 -4.5 4.95 -5.35 4.95 L-6.9 5.25 -7.9 5.1 Q-0.75 -0.45 -5.35 -6.55 -0.55 -6.1 5.7 -6.4 M-2.05 3.4 L-3.85 5.7 M-6.9 5.25 L-3.9 2.45 M-0.1 6.15 Q4.3 2.95 3.3 0.75" fill="none" stroke="#28513d" stroke-linecap="round" stroke-linejoin="round" stroke-width="0.05"/>
  </g>
</svg>
