<?xml version="1.0" encoding="UTF-8" standalone="no"?>
<svg xmlns:xlink="http://www.w3.org/1999/xlink" height="12.9px" width="13.6px" xmlns="http://www.w3.org/2000/svg">
  <g transform="matrix(1.0, 0.0, 0.0, 1.0, 7.15, 6.35)">
    <path d="M-4.65 -5.45 L1.25 -6.2 3.85 -6.3 4.3 -6.35 Q4.75 -6.15 5.25 -5.9 6.05 -4.05 6.35 -2.1 6.8 1.25 5.55 4.9 L5.45 5.15 4.4 5.65 3.35 6.05 3.3 6.05 3.0 6.05 1.85 6.1 1.75 6.1 1.45 6.15 1.05 6.25 0.6 6.3 -1.05 6.55 -1.2 6.55 -1.7 6.55 -1.95 6.45 Q-2.45 6.45 -2.65 6.25 L-2.95 5.6 -3.65 5.15 -3.95 5.1 -5.0 5.05 -5.45 5.15 -5.35 5.05 Q-5.6 5.05 -5.85 5.2 L-6.15 5.25 -7.0 5.1 -7.15 5.1 Q-5.45 2.6 -4.8 -0.25 L-4.6 -1.45 Q-4.4 -3.4 -4.65 -5.45 M-1.45 4.3 L-1.05 6.55 -1.45 4.3 M-4.2 3.2 L-5.0 5.05 -4.2 3.2 M0.4 1.7 Q0.45 4.35 3.35 6.05 0.45 4.35 0.4 1.7" fill="#b2b2b2" fill-rule="evenodd" stroke="none"/>
    <path d="M-4.65 -5.45 L1.25 -6.2 3.85 -6.3 4.3 -6.35 Q4.75 -6.15 5.25 -5.9 6.05 -4.05 6.35 -2.1 6.8 1.25 5.55 4.9 L5.45 5.15 4.4 5.65 3.35 6.05 3.3 6.05 3.0 6.05 1.85 6.1 1.75 6.1 1.45 6.15 1.05 6.25 0.6 6.3 -1.05 6.55 -1.2 6.55 -1.7 6.55 -1.95 6.45 Q-2.45 6.45 -2.65 6.25 L-2.95 5.6 -3.65 5.15 -3.95 5.1 -5.0 5.05 -5.45 5.15 -5.35 5.05 Q-5.6 5.05 -5.85 5.2 L-6.15 5.25 -7.0 5.1 -7.15 5.1 Q-5.45 2.6 -4.8 -0.25 L-4.6 -1.45 Q-4.4 -3.4 -4.65 -5.45 M3.35 6.05 Q0.45 4.35 0.4 1.7 M-5.0 5.05 L-4.2 3.2 M-1.05 6.55 L-1.45 4.3" fill="none" stroke="#28513d" stroke-linecap="round" stroke-linejoin="round" stroke-width="0.05"/>
  </g>
</svg>
