<?xml version="1.0" encoding="UTF-8" standalone="no"?>
<svg xmlns:xlink="http://www.w3.org/1999/xlink" height="12.85px" width="13.65px" xmlns="http://www.w3.org/2000/svg">
  <g transform="matrix(1.0, 0.0, 0.0, 1.0, 6.4, 6.4)">
    <path d="M-0.85 -6.1 L2.6 -6.3 4.75 -6.35 5.05 -6.4 4.75 -5.4 Q4.45 -3.5 4.65 -1.55 5.05 1.85 7.15 5.45 L7.25 5.6 6.0 5.85 4.9 6.05 4.25 6.05 4.0 6.05 4.0 6.1 3.85 6.15 3.8 6.15 Q3.55 6.25 3.6 6.4 L2.95 6.2 2.9 6.2 2.8 6.2 2.35 6.25 0.8 6.4 0.75 6.4 0.65 6.4 0.15 6.45 -0.4 6.35 -0.65 6.3 -0.7 6.3 -1.55 6.0 -2.0 5.55 Q-2.55 5.2 -3.15 5.15 L-3.5 5.1 -4.15 5.15 -4.1 5.05 -4.75 5.1 -5.15 5.25 -5.45 5.2 -5.6 5.2 -6.35 5.1 -6.4 5.1 -5.9 -0.05 -5.5 -2.85 -5.0 -6.0 -0.85 -6.1 M-1.05 4.15 L-0.7 6.3 -1.05 4.15 M-3.8 3.0 L-4.75 5.1 -3.8 3.0 M0.55 0.6 Q0.35 3.95 3.85 6.15 0.35 3.95 0.55 0.6" fill="#b2b2b2" fill-rule="evenodd" stroke="none"/>
    <path d="M-0.85 -6.1 L2.6 -6.3 4.75 -6.35 5.05 -6.4 4.75 -5.4 Q4.45 -3.5 4.65 -1.55 5.05 1.85 7.15 5.45 L7.25 5.6 6.0 5.85 4.9 6.05 4.25 6.05 4.0 6.05 4.0 6.1 3.85 6.15 3.8 6.15 Q3.55 6.25 3.6 6.4 L2.95 6.2 2.9 6.2 2.8 6.2 2.35 6.25 0.8 6.4 0.75 6.4 0.65 6.4 0.15 6.45 -0.4 6.35 -0.65 6.3 -0.7 6.3 -1.55 6.0 -2.0 5.55 Q-2.55 5.2 -3.15 5.15 L-3.5 5.1 -4.15 5.15 -4.1 5.05 -4.75 5.1 -5.15 5.25 -5.45 5.2 -5.6 5.2 -6.35 5.1 -6.4 5.1 -5.9 -0.05 -5.5 -2.85 -5.0 -6.0 -0.85 -6.1 M3.85 6.15 Q0.35 3.95 0.55 0.6 M-4.75 5.1 L-3.8 3.0 M-0.7 6.3 L-1.05 4.15" fill="none" stroke="#28513d" stroke-linecap="round" stroke-linejoin="round" stroke-width="0.05"/>
  </g>
</svg>
