<?xml version="1.0" encoding="UTF-8" standalone="no"?>
<svg xmlns:xlink="http://www.w3.org/1999/xlink" height="7.6px" width="15.8px" xmlns="http://www.w3.org/2000/svg">
  <g transform="matrix(1.0, 0.0, 0.0, 1.0, 8.75, 2.55)">
    <path d="M-8.35 1.95 L-8.35 1.9 Q-7.5 0.05 -4.55 -1.65 -2.8 -2.55 1.4 -2.55 L4.85 -1.65 -5.3 3.4 Q-7.8 3.95 -8.35 2.0 L-8.35 1.95" fill="#ffffff" fill-rule="evenodd" stroke="none"/>
    <path d="M-8.4 2.0 L-8.35 1.95 -8.35 2.0 -8.4 2.0" fill="#4f4f4f" fill-rule="evenodd" stroke="none"/>
    <path d="M4.85 -1.65 L4.9 -1.65 6.05 -0.7 Q7.85 1.3 6.4 4.55 L3.25 4.55 3.25 3.5 -4.75 5.05 -7.45 4.5 -7.7 4.4 -8.55 3.85 Q-9.05 3.05 -8.4 2.0 L-8.35 2.0 Q-7.8 3.95 -5.3 3.4 L4.85 -1.65" fill="#887b51" fill-rule="evenodd" stroke="none"/>
    <path d="M-8.35 1.95 L-8.35 1.9 Q-7.5 0.05 -4.55 -1.65 -2.8 -2.55 1.4 -2.55 L4.85 -1.65 4.9 -1.65 6.05 -0.7 Q7.85 1.3 6.4 4.55 L3.25 4.55 3.25 3.5 -4.75 5.05 -7.45 4.5 -7.7 4.4 -8.55 3.85 Q-9.05 3.05 -8.4 2.0 L-8.35 1.95 Z" fill="none" stroke="#4d4313" stroke-linecap="round" stroke-linejoin="round" stroke-width="0.05"/>
  </g>
</svg>
