<?xml version="1.0" encoding="UTF-8" standalone="no"?>
<svg xmlns:xlink="http://www.w3.org/1999/xlink" height="10.4px" width="10.45px" xmlns="http://www.w3.org/2000/svg">
  <g transform="matrix(1.0, 0.0, 0.0, 1.0, 7.1, 4.8)">
    <path d="M-6.35 -2.7 L-5.65 -3.3 -5.4 -3.6 -3.3 -4.55 -2.2 -4.7 -1.95 -4.75 -1.9 -4.7 Q4.0 3.25 -1.3 3.5 -3.9 4.2 -6.35 -2.7" fill="#ffffff" fill-rule="evenodd" stroke="none"/>
    <path d="M-1.9 -4.7 L-1.95 -4.75 -1.8 -4.75 -1.9 -4.7" fill="#afa529" fill-rule="evenodd" stroke="none"/>
    <path d="M-6.35 -2.7 Q-3.9 4.2 -1.3 3.5 4.0 3.25 -1.9 -4.7 L-1.8 -4.75 -0.95 -4.75 -0.9 -4.75 Q0.65 -4.65 1.1 -3.95 3.7 0.4 3.3 1.95 L2.85 3.5 Q0.9 6.8 -3.15 4.95 L-3.7 4.55 Q-4.85 3.55 -7.1 -0.65 -7.1 -1.85 -6.35 -2.7" fill="#887b51" fill-rule="evenodd" stroke="none"/>
    <path d="M-1.95 -4.75 L-2.2 -4.7 -3.3 -4.55 -5.4 -3.6 -5.65 -3.3 -6.35 -2.7 Q-7.1 -1.85 -7.1 -0.65 -4.85 3.55 -3.7 4.55 L-3.15 4.95 Q0.9 6.8 2.85 3.5 L3.3 1.95 Q3.7 0.4 1.1 -3.95 0.65 -4.65 -0.9 -4.75 L-0.95 -4.75 -1.8 -4.75 -1.95 -4.75 Z" fill="none" stroke="#4d4313" stroke-linecap="round" stroke-linejoin="round" stroke-width="0.05"/>
  </g>
</svg>
