<?xml version="1.0" encoding="UTF-8" standalone="no"?>
<svg xmlns:xlink="http://www.w3.org/1999/xlink" height="9.25px" width="15.0px" xmlns="http://www.w3.org/2000/svg">
  <g transform="matrix(1.0, 0.0, 0.0, 1.0, 8.05, 2.6)">
    <path d="M-7.5 0.9 Q-7.95 -0.65 -8.05 -2.6 -7.35 -2.0 -5.9 -1.55 L-4.05 -1.1 -3.6 -1.0 -2.75 -0.95 2.45 -0.7 3.95 -0.7 Q5.45 -0.85 6.6 -1.45 7.1 0.0 6.85 1.4 L6.25 2.95 4.2 5.15 Q2.45 6.5 0.3 6.65 L-0.35 6.65 -0.5 6.65 -1.0 6.65 -1.55 6.55 -2.35 6.4 -2.55 6.35 Q-4.4 5.8 -5.65 4.5 -6.75 3.3 -7.35 1.4 L-7.5 0.9" fill="#181c1d" fill-rule="evenodd" stroke="none"/>
    <path d="M6.85 1.4 Q7.1 0.0 6.6 -1.45 5.45 -0.85 3.95 -0.7 L2.45 -0.7 -2.75 -0.95 -3.6 -1.0 -4.05 -1.1 -5.9 -1.55 Q-7.35 -2.0 -8.05 -2.6 -7.95 -0.65 -7.5 0.9" fill="none" stroke="#3d3d3d" stroke-linecap="round" stroke-linejoin="round" stroke-width="0.05"/>
  </g>
</svg>
