<?xml version="1.0" encoding="UTF-8" standalone="no"?>
<svg xmlns:xlink="http://www.w3.org/1999/xlink" height="16.15px" width="5.75px" xmlns="http://www.w3.org/2000/svg">
  <g transform="matrix(1.0, 0.0, 0.0, 1.0, 2.65, 1.6)">
    <path d="M3.1 2.4 Q-0.45 4.2 -2.65 2.35 -2.65 0.95 -2.0 0.05 -1.05 -1.25 0.55 -1.6 2.95 -0.35 3.1 2.4" fill="#343a3f" fill-rule="evenodd" stroke="none"/>
    <path d="M3.1 2.4 L3.1 3.1 3.1 14.2 Q0.7 15.15 -0.4 13.65 -0.95 8.85 -2.1 5.3 -2.65 3.65 -2.65 2.35 -0.45 4.2 3.1 2.4" fill="#fcfcfc" fill-rule="evenodd" stroke="none"/>
    <path d="M-2.65 2.35 Q-2.65 0.95 -2.0 0.05 -1.05 -1.25 0.55 -1.6 2.95 -0.35 3.1 2.4" fill="none" stroke="#425337" stroke-linecap="round" stroke-linejoin="round" stroke-width="0.05"/>
    <path d="M-2.65 2.35 Q-2.65 3.65 -2.1 5.3 -0.95 8.85 -0.4 13.65 0.7 15.15 3.1 14.2 L3.1 3.1 3.1 2.4 Q-0.45 4.2 -2.65 2.35 Z" fill="none" stroke="#999999" stroke-linecap="round" stroke-linejoin="round" stroke-width="0.05"/>
  </g>
</svg>
