<?xml version="1.0" encoding="UTF-8" standalone="no"?>
<svg xmlns:xlink="http://www.w3.org/1999/xlink" height="15.15px" width="15.35px" xmlns="http://www.w3.org/2000/svg">
  <g transform="matrix(1.0, 0.0, 0.0, 1.0, 5.6, 6.55)">
    <path d="M-1.35 -6.5 Q4.65 -5.2 9.7 -0.35 L9.75 -0.25 8.95 1.1 8.7 1.8 8.7 1.85 8.5 2.5 8.4 2.8 8.2 3.55 7.7 4.5 7.65 4.6 7.0 5.2 6.45 5.4 Q6.15 5.55 6.0 5.8 L5.75 6.1 5.7 6.15 5.65 6.2 5.4 6.65 5.15 7.35 5.15 7.55 5.1 7.7 5.15 7.75 5.1 7.85 4.75 8.3 4.6 8.6 Q3.1 6.45 1.2 5.1 L-1.9 3.6 Q-3.65 3.0 -5.6 2.95 -3.55 -1.1 -1.45 -6.55 L-1.4 -6.55 -1.35 -6.5 M5.1 -1.25 L8.5 2.5 5.1 -1.25 M4.6 4.55 L6.0 5.8 4.6 4.55 M3.5 5.05 L5.15 7.35 3.5 5.05" fill="#ffffff" fill-rule="evenodd" stroke="none"/>
    <path d="M-1.35 -6.5 Q4.65 -5.2 9.7 -0.35 L9.75 -0.25 8.95 1.1 8.7 1.8 8.7 1.85 8.5 2.5 8.4 2.8 8.2 3.55 7.7 4.5 7.65 4.6 7.0 5.2 6.45 5.4 Q6.15 5.55 6.0 5.8 L5.75 6.1 5.7 6.15 5.65 6.2 5.4 6.65 5.15 7.35 5.15 7.55 5.1 7.7 5.15 7.75 5.1 7.85 4.75 8.3 4.6 8.6 Q3.1 6.45 1.2 5.1 L-1.9 3.6 Q-3.65 3.0 -5.6 2.95 -3.55 -1.1 -1.45 -6.55 L-1.4 -6.55 -1.35 -6.5 M5.15 7.35 L3.5 5.05 M6.0 5.8 L4.6 4.55 M8.5 2.5 L5.1 -1.25" fill="none" stroke="#999999" stroke-linecap="round" stroke-linejoin="round" stroke-width="0.05"/>
  </g>
</svg>
