<?xml version="1.0" encoding="UTF-8" standalone="no"?>
<svg xmlns:xlink="http://www.w3.org/1999/xlink" height="16.2px" width="14.85px" xmlns="http://www.w3.org/2000/svg">
  <g transform="matrix(1.0, 0.0, 0.0, 1.0, 5.6, 6.9)">
    <path d="M4.45 9.0 L4.25 9.3 -3.7 2.9 -5.25 2.9 -5.6 2.9 Q-4.0 -0.2 -2.3 -4.15 L-1.25 -6.85 Q5.5 -7.45 9.05 0.25 L9.25 0.6 Q8.5 1.9 8.5 2.15 L8.45 2.1 8.35 2.5 8.35 2.6 8.25 2.95 8.2 3.0 8.25 3.0 7.8 4.85 7.55 5.35 7.55 5.25 7.35 5.6 6.9 6.0 6.3 5.95 Q6.15 6.0 6.05 6.1 5.45 6.45 5.2 7.05 L5.1 7.15 5.05 7.35 4.85 8.3 4.85 8.2 4.8 8.3 4.8 8.45 4.45 9.0 3.5 6.4 4.45 9.0 M4.7 -2.35 L8.35 2.6 4.7 -2.35 M4.75 4.45 L6.05 6.1 4.75 4.45" fill="#ffffff" fill-rule="evenodd" stroke="none"/>
    <path d="M8.35 2.6 L8.35 2.5 8.45 2.1 8.5 2.15 Q8.5 1.9 9.25 0.6 L9.05 0.25 Q5.5 -7.45 -1.25 -6.85 L-2.3 -4.15 Q-4.0 -0.2 -5.6 2.9 L-5.25 2.9 -3.7 2.9 4.25 9.3 4.45 9.0 3.5 6.4 M6.05 6.1 Q6.15 6.0 6.3 5.95 L6.9 6.0 7.35 5.6 7.55 5.25 7.55 5.35 7.8 4.85 8.25 3.0 8.2 3.0 8.25 2.95 8.35 2.6 4.7 -2.35 M4.45 9.0 L4.8 8.45 4.8 8.3 4.85 8.2 4.85 8.3 5.05 7.35 5.1 7.15 5.2 7.05 Q5.45 6.45 6.05 6.1 L4.75 4.45" fill="none" stroke="#999999" stroke-linecap="round" stroke-linejoin="round" stroke-width="0.05"/>
  </g>
</svg>
