<?xml version="1.0" encoding="UTF-8" standalone="no"?>
<svg xmlns:xlink="http://www.w3.org/1999/xlink" height="17.85px" width="14.4px" xmlns="http://www.w3.org/2000/svg">
  <g transform="matrix(1.0, 0.0, 0.0, 1.0, 5.65, 7.9)">
    <path d="M6.15 6.45 L4.75 3.9 6.15 6.45 Q5.2 6.75 4.85 7.55 4.45 8.0 4.5 9.1 L4.0 9.95 Q1.75 1.15 -5.65 2.95 -3.35 -1.3 -1.1 -7.1 6.45 -10.65 8.75 1.5 8.15 2.2 8.05 3.2 L7.35 6.05 Q7.0 7.25 6.15 6.45 M3.15 5.2 L4.5 9.1 3.15 5.2 M4.45 -2.05 Q6.85 -2.1 8.05 3.2 6.85 -2.1 4.45 -2.05" fill="#ffffff" fill-rule="evenodd" stroke="none"/>
    <path d="M4.75 3.9 L6.15 6.45 Q7.0 7.25 7.35 6.05 L8.05 3.2 Q6.85 -2.1 4.45 -2.05 M4.5 9.1 L3.15 5.2 M6.15 6.45 Q5.2 6.75 4.85 7.55 4.45 8.0 4.5 9.1 L4.0 9.95 Q1.75 1.15 -5.65 2.95 -3.35 -1.3 -1.1 -7.1 6.45 -10.65 8.75 1.5 8.15 2.2 8.05 3.2" fill="none" stroke="#999999" stroke-linecap="round" stroke-linejoin="round" stroke-width="0.05"/>
  </g>
</svg>
