<?xml version="1.0" encoding="UTF-8" standalone="no"?>
<svg xmlns:xlink="http://www.w3.org/1999/xlink" height="15.75px" width="13.8px" xmlns="http://www.w3.org/2000/svg">
  <g transform="matrix(1.0, 0.0, 0.0, 1.0, 4.4, 6.5)">
    <path d="M-0.85 -6.5 L3.05 -5.95 Q6.3 -5.05 9.15 -2.45 L9.35 -2.25 9.4 -1.1 9.35 0.05 9.3 0.05 9.2 0.3 8.8 1.4 8.75 1.5 8.65 1.8 8.6 2.2 8.45 2.65 8.0 4.25 8.0 4.4 7.8 4.85 7.6 5.05 7.15 5.6 6.4 5.6 5.7 6.1 5.55 6.3 Q5.25 6.7 5.1 7.25 L5.0 7.7 4.95 7.55 Q4.85 7.8 4.9 8.1 L4.8 8.4 4.35 9.15 4.3 9.25 Q2.65 6.7 0.3 4.95 L-0.7 4.3 Q-2.4 3.35 -4.4 2.75 L-2.7 -2.95 -1.8 -5.35 -1.65 -5.8 -0.85 -6.5 M4.2 0.95 Q6.6 1.95 9.3 0.05 6.6 1.95 4.2 0.95 M3.7 5.8 L5.1 7.25 3.7 5.8 M5.8 3.7 L8.0 4.25 5.8 3.7" fill="#ffffff" fill-rule="evenodd" stroke="none"/>
    <path d="M-0.85 -6.5 L3.05 -5.95 Q6.3 -5.05 9.15 -2.45 L9.35 -2.25 9.4 -1.1 9.35 0.05 9.3 0.05 9.2 0.3 8.8 1.4 8.75 1.5 8.65 1.8 8.6 2.2 8.45 2.65 8.0 4.25 8.0 4.4 7.8 4.85 7.6 5.05 7.15 5.6 6.4 5.6 5.7 6.1 5.55 6.3 Q5.25 6.7 5.1 7.25 L5.0 7.7 4.95 7.55 Q4.85 7.8 4.9 8.1 L4.8 8.4 4.35 9.15 4.3 9.25 Q2.65 6.7 0.3 4.95 L-0.7 4.3 Q-2.4 3.35 -4.4 2.75 L-2.7 -2.95 -1.8 -5.35 -1.65 -5.8 -0.85 -6.5 M8.0 4.25 L5.8 3.7 M5.1 7.25 L3.7 5.8 M9.3 0.05 Q6.6 1.95 4.2 0.95" fill="none" stroke="#999999" stroke-linecap="round" stroke-linejoin="round" stroke-width="0.05"/>
  </g>
</svg>
