<?xml version="1.0" encoding="UTF-8" standalone="no"?>
<svg xmlns:xlink="http://www.w3.org/1999/xlink" height="15.05px" width="15.55px" xmlns="http://www.w3.org/2000/svg">
  <g transform="matrix(1.0, 0.0, 0.0, 1.0, 5.05, 6.5)">
    <path d="M9.6 -0.4 L9.6 -0.35 Q9.6 -0.1 9.75 -0.1 L9.3 0.45 9.3 0.5 9.25 0.55 9.1 1.0 8.65 2.5 8.6 2.55 8.6 2.6 8.45 3.1 8.1 3.55 7.95 3.75 7.95 3.85 7.35 4.5 6.75 4.7 5.9 5.6 5.75 5.9 5.5 6.5 5.4 6.45 5.25 7.05 5.2 7.45 5.05 7.75 4.95 7.9 4.6 8.5 4.6 8.55 Q2.5 7.55 0.05 6.05 L-2.35 4.6 -5.05 2.85 -3.5 -1.0 -2.25 -4.25 -1.5 -6.25 -1.4 -6.5 -0.6 -5.85 Q1.0 -4.8 2.9 -4.2 6.15 -3.25 10.3 -3.7 L10.5 -3.75 10.2 -2.5 9.95 -1.4 9.65 -0.8 9.6 -0.6 9.65 -0.55 9.6 -0.4 Q6.2 1.9 3.25 0.4 6.2 1.9 9.6 -0.4 M3.7 5.35 L5.25 7.05 3.7 5.35 M5.85 3.3 L7.95 3.85 5.85 3.3" fill="#ffffff" fill-rule="evenodd" stroke="none"/>
    <path d="M9.6 -0.4 L9.6 -0.35 Q9.6 -0.1 9.75 -0.1 L9.3 0.45 9.3 0.5 9.25 0.55 9.1 1.0 8.65 2.5 8.6 2.55 8.6 2.6 8.45 3.1 8.1 3.55 7.95 3.75 7.95 3.85 7.35 4.5 6.75 4.7 5.9 5.6 5.75 5.9 5.5 6.5 5.4 6.45 5.25 7.05 5.2 7.45 5.05 7.75 4.95 7.9 4.6 8.5 4.6 8.55 Q2.5 7.55 0.05 6.05 L-2.35 4.6 -5.05 2.85 -3.5 -1.0 -2.25 -4.25 -1.5 -6.25 -1.4 -6.5 -0.6 -5.85 Q1.0 -4.8 2.9 -4.2 6.15 -3.25 10.3 -3.7 L10.5 -3.75 10.2 -2.5 9.95 -1.4 9.65 -0.8 9.6 -0.6 9.65 -0.55 9.6 -0.4 Q6.2 1.9 3.25 0.4 M7.95 3.85 L5.85 3.3 M5.25 7.05 L3.7 5.35" fill="none" stroke="#999999" stroke-linecap="round" stroke-linejoin="round" stroke-width="0.05"/>
  </g>
</svg>
