<?xml version="1.0" encoding="UTF-8" standalone="no"?>
<svg xmlns:xlink="http://www.w3.org/1999/xlink" height="15.15px" width="17.75px" xmlns="http://www.w3.org/2000/svg">
  <g transform="matrix(1.0, 0.0, 0.0, 1.0, 5.65, 7.2)">
    <path d="M9.8 -0.65 L9.05 1.4 Q8.15 2.9 7.55 3.3 6.35 4.25 6.05 5.35 5.5 6.05 5.55 6.8 L4.9 7.85 Q-0.25 8.6 -5.65 2.95 -3.35 -1.25 -1.15 -7.2 1.7 1.6 11.6 -5.15 L12.1 -5.2 11.55 -4.65 11.1 -3.85 Q10.25 -2.65 10.1 -1.35 L9.95 -1.05 9.8 -0.65 M3.25 -0.1 Q5.55 2.05 10.1 -1.35 5.55 2.05 3.25 -0.1 M5.3 2.8 L7.55 3.3 5.3 2.8 M3.4 4.75 L5.55 6.8 3.4 4.75" fill="#ffffff" fill-rule="evenodd" stroke="none"/>
    <path d="M9.8 -0.65 L9.05 1.4 Q8.15 2.9 7.55 3.3 6.35 4.25 6.05 5.35 5.5 6.05 5.55 6.8 L4.9 7.85 Q-0.25 8.6 -5.65 2.95 -3.35 -1.25 -1.15 -7.2 1.7 1.6 11.6 -5.15 L12.1 -5.2 11.55 -4.65 11.1 -3.85 Q10.25 -2.65 10.1 -1.35 L9.95 -1.05 9.8 -0.65 M5.55 6.8 L3.4 4.75 M7.55 3.3 L5.3 2.8 M10.1 -1.35 Q5.55 2.05 3.25 -0.1" fill="none" stroke="#999999" stroke-linecap="round" stroke-linejoin="round" stroke-width="0.05"/>
  </g>
</svg>
