<?xml version="1.0" encoding="UTF-8" standalone="no"?>
<svg xmlns:xlink="http://www.w3.org/1999/xlink" height="18.05px" width="17.7px" xmlns="http://www.w3.org/2000/svg">
  <g transform="matrix(1.0, 0.0, 0.0, 1.0, 8.85, 9.05)">
    <path d="M7.0 -8.65 Q6.75 -4.25 2.65 -1.6 0.35 -5.05 0.9 -7.5 L7.0 -8.65 M-0.4 -6.9 Q-1.1 -5.1 -0.1 -2.75 -1.15 -3.0 -1.5 -1.95 -1.9 -1.0 -0.9 -0.4 -1.25 -0.85 -1.0 -1.1 0.15 -2.05 0.95 -0.9 L0.95 -0.85 1.35 -0.3 1.15 6.0 Q0.5 7.35 -0.5 7.4 -5.35 1.4 -5.3 -3.75 -2.35 -6.85 -0.4 -6.9" fill="#887b51" fill-rule="evenodd" stroke="none"/>
    <path d="M7.0 -8.65 Q8.15 -9.5 8.85 -8.5 7.65 -2.3 3.5 0.25 L3.45 5.3 Q1.75 10.25 -1.95 8.6 -6.95 4.1 -8.85 -1.3 L-8.3 -2.6 Q-7.8 -3.9 -5.3 -3.75 -5.35 1.4 -0.5 7.4 0.5 7.35 1.15 6.0 L1.35 -0.3 0.95 -0.85 0.95 -0.9 Q0.15 -2.05 -1.0 -1.1 -1.25 -0.85 -0.9 -0.4 -1.9 -1.0 -1.5 -1.95 -1.15 -3.0 -0.1 -2.75 -1.1 -5.1 -0.4 -6.9 -0.1 -8.0 0.9 -7.5 0.35 -5.05 2.65 -1.6 6.75 -4.25 7.0 -8.65" fill="#ffffff" fill-rule="evenodd" stroke="none"/>
    <path d="M-5.3 -3.75 Q-7.8 -3.9 -8.3 -2.6 L-8.85 -1.3 Q-6.95 4.1 -1.95 8.6 1.75 10.25 3.45 5.3 L3.5 0.25 Q7.65 -2.3 8.85 -8.5 8.15 -9.5 7.0 -8.65 6.75 -4.25 2.65 -1.6 0.35 -5.05 0.9 -7.5 -0.1 -8.0 -0.4 -6.9 -1.1 -5.1 -0.1 -2.75 -1.15 -3.0 -1.5 -1.95 -1.9 -1.0 -0.9 -0.4 -1.25 -0.85 -1.0 -1.1 0.15 -2.05 0.95 -0.9 L0.95 -0.85 1.35 -0.3 1.15 6.0 Q0.5 7.35 -0.5 7.4 -5.35 1.4 -5.3 -3.75 -2.35 -6.85 -0.4 -6.9 M7.0 -8.65 L0.9 -7.5" fill="none" stroke="#4d4313" stroke-linecap="round" stroke-linejoin="round" stroke-width="0.05"/>
  </g>
</svg>
