<?xml version="1.0" encoding="UTF-8" standalone="no"?>
<svg xmlns:xlink="http://www.w3.org/1999/xlink" height="25.3px" width="21.3px" xmlns="http://www.w3.org/2000/svg">
  <g transform="matrix(1.0, 0.0, 0.0, 1.0, 7.05, 19.7)">
    <path d="M-2.8 -0.9 L-2.7 -1.1 Q-1.8 -0.95 -1.6 0.45 -2.15 -0.55 -2.8 -0.9 M1.15 0.8 Q0.7 0.9 0.25 1.15 L1.0 0.5 1.15 0.8 M1.25 0.35 L2.95 0.45 3.05 0.65 1.3 0.75 1.25 0.35" fill="#503e53" fill-rule="evenodd" stroke="none"/>
    <path d="M-2.7 -1.1 Q-1.8 -0.95 -1.6 0.45 -2.15 -0.55 -2.8 -0.9 M1.0 0.5 L0.25 1.15 Q0.7 0.9 1.15 0.8 M1.25 0.35 L2.95 0.45 M3.05 0.65 L1.3 0.75" fill="none" stroke="#5b4961" stroke-linecap="round" stroke-linejoin="round" stroke-width="0.05"/>
    <path d="M6.4 -13.0 L6.5 -12.8 6.8 -12.1 7.05 -11.4 7.25 -10.9 7.4 -10.4 8.0 -8.0 8.1 -8.75 8.15 -8.95 8.35 -10.7 Q8.85 -14.5 8.35 -17.9 L8.95 -16.35 9.05 -16.0 9.2 -15.4 Q9.35 -14.05 9.65 -12.65 L9.8 -10.75 Q9.8 -9.1 9.95 -7.4 L10.0 -6.5 Q11.7 -9.85 13.95 -13.2 12.0 -8.45 10.85 -3.85 L10.75 -3.55 10.45 -2.5 13.8 -6.45 13.7 -6.3 11.85 -2.75 11.6 -2.25 11.35 -1.75 Q10.15 0.25 9.5 2.25 L9.2 3.0 Q8.65 4.2 8.25 5.6 L8.25 4.25 Q7.85 4.65 7.6 5.4 L7.6 4.75 8.25 3.75 8.25 3.25 8.35 2.6 8.35 2.55 8.1 1.55 7.9 1.35 7.5 1.35 7.4 1.35 7.2 1.5 6.9 1.6 Q6.8 1.55 6.85 1.65 L6.95 3.75 6.95 4.0 6.95 4.05 Q6.85 4.5 6.9 4.95 L6.9 5.4 Q6.1 1.9 4.85 -0.4 L4.75 -0.65 4.15 -1.5 4.15 -1.55 Q3.9 -1.7 3.8 -2.05 L3.25 -2.9 4.25 2.6 3.3 1.0 3.05 0.6 2.95 0.35 2.4 -0.5 1.9 -1.2 1.45 -1.75 1.25 -2.1 1.05 -2.4 1.2 -0.15 Q0.35 -2.2 -0.3 -4.65 L-0.5 -4.35 Q-0.45 -4.2 -0.55 -4.25 L-0.65 -4.45 -2.6 -1.05 -2.7 -0.8 Q-2.85 -0.3 -3.15 0.05 L-3.4 0.65 -3.55 1.0 -4.3 3.15 -4.8 4.95 -4.5 1.7 -3.55 -1.15 -3.75 -1.55 -3.8 -1.75 -6.25 -6.45 -3.35 -3.4 -3.85 -5.55 -4.35 -7.3 -4.9 -8.95 -5.7 -11.4 -3.75 -8.2 -3.75 -8.15 -3.7 -8.1 -3.75 -7.95 -3.0 -6.9 Q-2.95 -7.1 -3.05 -7.1 L-4.05 -15.85 -4.7 -19.0 -0.55 -18.1 Q3.45 -17.15 6.25 -12.95 L6.4 -13.0 M10.25 -4.95 Q9.95 -5.55 10.0 -6.5 9.95 -5.55 10.25 -4.95" fill="#3a3961" fill-rule="evenodd" stroke="none"/>
    <path d="M-3.75 -8.2 L-3.85 -9.05 -3.9 -10.3 Q-3.65 -14.9 -6.6 -19.7 L-3.35 -19.4 -2.55 -19.25 Q3.2 -18.1 5.75 -14.15 L6.4 -13.0 6.25 -12.95 Q3.45 -17.15 -0.55 -18.1 L-4.7 -19.0 -4.05 -15.85 -3.05 -7.1 Q-2.95 -7.1 -3.0 -6.9 L-3.75 -7.95 -3.7 -8.1 -3.75 -8.15 -3.75 -8.2 -3.7 -8.1 -3.75 -8.2 M-5.7 -11.4 L-4.9 -8.95 -4.35 -7.3 -3.85 -5.55 -3.35 -3.4 -6.25 -6.45 -3.8 -1.75 -3.75 -1.55 -3.55 -1.15 -4.5 1.7 -4.15 -1.7 -5.55 1.25 -4.45 -2.4 -7.05 -7.65 -4.2 -4.6 -4.35 -5.35 -4.6 -6.25 -6.4 -12.8 -5.7 -11.4 M-0.55 -4.25 Q-0.45 -4.2 -0.5 -4.35 L-0.3 -4.65 Q0.35 -2.2 1.2 -0.15 L1.35 1.35 Q0.2 -1.15 -0.55 -4.25" fill="#6963a1" fill-rule="evenodd" stroke="none"/>
    <path d="M-3.75 -8.2 L-3.85 -9.05 -3.9 -10.3 Q-3.65 -14.9 -6.6 -19.7 L-3.35 -19.4 -2.55 -19.25 Q3.2 -18.1 5.75 -14.15 L6.4 -13.0 6.5 -12.8 6.8 -12.1 7.05 -11.4 7.25 -10.9 7.4 -10.4 8.0 -8.0 8.1 -8.75 8.15 -8.95 8.35 -10.7 Q8.85 -14.5 8.35 -17.9 L8.95 -16.35 9.05 -16.0 9.2 -15.4 Q9.35 -14.05 9.65 -12.65 L9.8 -10.75 Q9.8 -9.1 9.95 -7.4 L10.0 -6.5 Q11.7 -9.85 13.95 -13.2 12.0 -8.45 10.85 -3.85 M10.75 -3.55 L10.45 -2.5 13.8 -6.45 14.25 -7.05 M-3.75 -7.95 L-3.7 -8.1 -3.75 -8.15 -3.75 -8.2 -5.7 -11.4 -6.4 -12.8 -4.6 -6.25 -4.35 -5.35 -4.2 -4.6 -7.05 -7.65 -4.45 -2.4 -5.55 1.25 -4.15 -1.7 -4.5 1.7 -4.8 4.95 -4.3 3.15 -3.55 1.0 -3.4 0.65 -3.15 0.05 Q-2.85 -0.3 -2.7 -0.8 L-2.6 -1.05 -0.65 -4.45 -0.55 -4.25 Q0.2 -1.15 1.35 1.35 L1.2 -0.15 1.05 -2.4 1.25 -2.1 1.45 -1.75 1.9 -1.2 2.4 -0.5 2.95 0.35 3.05 0.6 3.3 1.0 4.25 2.6 3.25 -2.9 3.8 -2.05 Q3.9 -1.7 4.15 -1.55 L4.15 -1.5 4.75 -0.65 4.85 -0.4 Q6.1 1.9 6.9 5.4 L6.9 4.95 Q6.85 4.5 6.95 4.05 L6.95 4.0 6.95 3.75 6.85 1.65 Q6.8 1.55 6.9 1.6 L7.2 1.5 7.4 1.35 7.5 1.35 7.9 1.35 8.1 1.55 8.35 2.55 8.35 2.6 8.25 3.25 8.25 3.75 7.6 4.75 7.6 5.4 Q7.85 4.65 8.25 4.25 L8.25 5.6 Q8.65 4.2 9.2 3.0 L9.5 2.25 Q10.15 0.25 11.35 -1.75 L11.6 -2.25 11.85 -2.75 13.7 -6.3 13.8 -6.45 M6.85 1.65 L6.8 1.25 6.7 0.7 5.45 -4.35 Q5.2 -4.8 5.1 -5.4 M10.0 -6.5 Q9.95 -5.55 10.25 -4.95 M-3.7 -8.1 L-3.75 -8.2 Z" fill="none" stroke="#000000" stroke-linecap="round" stroke-linejoin="round" stroke-width="0.05"/>
  </g>
</svg>
