<?xml version="1.0" encoding="UTF-8" standalone="no"?>
<svg xmlns:xlink="http://www.w3.org/1999/xlink" height="17.6px" width="23.95px" xmlns="http://www.w3.org/2000/svg">
  <g transform="matrix(1.0, 0.0, 0.0, 1.0, 18.55, -10.75)">
    <path d="M2.75 14.9 L4.6 14.55 5.1 15.0 5.35 15.35 Q5.5 15.95 5.0 16.5 L3.4 18.2 1.75 19.15 -0.2 19.6 -1.35 19.9 Q-2.05 21.45 -1.1 22.9 -0.2 24.25 0.4 25.8 L0.5 27.0 0.3 27.6 -0.3 27.8 Q-1.85 27.65 -2.25 26.3 L-2.65 24.45 -2.7 22.75 Q-3.7 23.15 -4.35 24.05 L-4.85 24.5 Q-5.5 25.05 -5.65 24.7 L-5.7 23.85 -5.4 22.7 -5.3 22.05 -6.6 22.15 -8.8 23.9 Q-10.35 25.35 -12.4 26.1 L-15.55 28.0 -17.7 28.15 -18.45 27.7 Q-18.8 26.75 -17.75 26.2 -16.3 25.3 -14.4 24.7 L-13.05 24.35 Q-12.35 24.4 -11.85 23.75 L-12.2 23.45 Q-12.8 23.15 -13.45 23.0 L-13.15 22.65 Q-11.75 21.8 -10.15 21.2 -8.95 20.7 -7.7 20.35 -7.05 20.2 -6.85 19.75 -7.0 18.7 -7.65 17.95 L-8.55 17.15 -11.05 15.95 Q-12.55 15.2 -12.0 13.8 -9.9 13.1 -8.25 14.9 L-7.25 16.1 Q-6.1 17.55 -4.6 17.85 -3.65 17.25 -3.7 16.05 L-3.5 12.8 Q-3.2 11.0 -1.55 10.75 -1.4 11.1 -1.4 11.5 L-1.65 14.05 -2.55 18.55 -2.0 18.55 -0.9 17.65 0.3 16.35 Q1.25 15.25 2.75 14.9 M-3.0 19.75 L-2.55 18.55 -3.0 19.75" fill="#000000" fill-rule="evenodd" stroke="none"/>
    <path d="M2.75 14.9 L4.6 14.55 5.1 15.0 5.35 15.35 Q5.5 15.95 5.0 16.5 L3.4 18.2 1.75 19.15 -0.2 19.6 -1.35 19.9 Q-2.05 21.45 -1.1 22.9 -0.2 24.25 0.4 25.8 L0.5 27.0 0.3 27.6 -0.3 27.8 Q-1.85 27.65 -2.25 26.3 L-2.65 24.45 -2.7 22.75 Q-3.7 23.15 -4.35 24.05 L-4.85 24.5 Q-5.5 25.05 -5.65 24.7 L-5.7 23.85 -5.4 22.7 -5.3 22.05 -6.6 22.15 -8.8 23.9 Q-10.35 25.35 -12.4 26.1 L-15.55 28.0 -17.7 28.15 -18.45 27.7 Q-18.8 26.75 -17.75 26.2 -16.3 25.3 -14.4 24.7 L-13.05 24.35 Q-12.35 24.4 -11.85 23.75 L-12.2 23.45 Q-12.8 23.15 -13.45 23.0 L-13.15 22.65 Q-11.75 21.8 -10.15 21.2 -8.95 20.7 -7.7 20.35 -7.05 20.2 -6.85 19.75 -7.0 18.7 -7.65 17.95 L-8.55 17.15 -11.05 15.95 Q-12.55 15.2 -12.0 13.8 -9.9 13.1 -8.25 14.9 L-7.25 16.1 Q-6.1 17.55 -4.6 17.85 -3.65 17.25 -3.7 16.05 L-3.5 12.8 Q-3.2 11.0 -1.55 10.75 -1.4 11.1 -1.4 11.5 L-1.65 14.05 -2.55 18.55 -2.0 18.55 -0.9 17.65 0.3 16.35 Q1.25 15.25 2.75 14.9 M-2.55 18.55 L-3.0 19.75" fill="none" stroke="#eaace8" stroke-linecap="round" stroke-linejoin="round" stroke-width="0.05"/>
  </g>
</svg>
