<?xml version="1.0" encoding="UTF-8" standalone="no"?>
<svg xmlns:xlink="http://www.w3.org/1999/xlink" height="24.15px" width="26.65px" xmlns="http://www.w3.org/2000/svg">
  <g transform="matrix(1.0, 0.0, 0.0, 1.0, 18.15, -7.65)">
    <path d="M0.85 8.65 Q0.45 9.35 -0.45 8.9 L-0.7 8.85 Q-1.15 8.0 -0.4 7.7 0.0 7.55 0.45 8.05 L0.85 8.65 M7.95 14.05 Q8.05 13.95 8.1 14.0 L8.5 14.65 8.15 15.1 7.9 15.05 7.85 14.3 7.95 14.05 M3.7 21.65 L4.8 21.65 5.8 21.35 7.15 21.1 7.65 21.0 7.95 20.65 8.45 21.95 7.35 21.9 7.05 21.95 6.7 22.15 6.2 22.5 5.05 23.35 4.25 23.2 3.45 22.95 3.1 22.8 2.9 22.75 Q1.9 22.75 1.1 22.15 L0.7 21.6 0.8 21.3 1.35 21.0 2.65 21.3 3.7 21.65 M0.7 31.15 L0.55 31.8 0.25 31.7 Q-0.05 31.65 0.0 31.35 L0.15 31.05 0.7 31.15 M-17.5 15.45 L-17.9 15.15 -18.15 14.65 -18.0 14.05 -17.6 13.7 -17.15 13.85 -16.75 14.75 Q-16.75 15.45 -17.5 15.45 M-6.25 18.15 Q-4.6 18.55 -3.3 19.45 L-2.9 19.9 -2.1 19.65 -1.35 19.55 -2.55 20.9 -2.9 21.05 -3.05 21.6 -3.1 22.1 -3.15 22.35 -3.6 22.2 -4.15 21.75 -4.45 21.6 -5.45 21.8 Q-6.55 22.6 -7.8 23.15 -8.1 20.95 -7.45 20.85 -6.5 20.55 -5.65 19.8 L-5.35 19.3 -6.45 18.3 -6.25 18.15 M-1.0 21.05 L-0.8 21.3 Q-0.5 21.65 -0.8 21.95 L-1.1 21.95 Q-1.55 21.75 -1.0 21.05" fill="#000000" fill-rule="evenodd" stroke="none"/>
    <path d="M0.85 8.65 Q0.45 9.35 -0.45 8.9 L-0.7 8.85 Q-1.15 8.0 -0.4 7.7 0.0 7.55 0.45 8.05 L0.85 8.65 M7.95 14.05 L7.85 14.3 7.9 15.05 8.15 15.1 8.5 14.65 8.1 14.0 Q8.05 13.95 7.95 14.05 M3.7 21.65 L4.8 21.65 5.8 21.35 7.15 21.1 7.65 21.0 7.95 20.65 8.45 21.95 7.35 21.9 7.05 21.95 6.7 22.15 6.2 22.5 5.05 23.35 4.25 23.2 3.45 22.95 3.1 22.8 2.9 22.75 Q1.9 22.75 1.1 22.15 L0.7 21.6 0.8 21.3 1.35 21.0 2.65 21.3 3.7 21.65 M0.7 31.15 L0.15 31.05 0.0 31.35 Q-0.05 31.65 0.25 31.7 L0.55 31.8 0.7 31.15 M-17.5 15.45 L-17.9 15.15 -18.15 14.65 -18.0 14.05 -17.6 13.7 -17.15 13.85 -16.75 14.75 Q-16.75 15.45 -17.5 15.45 M-6.25 18.15 Q-4.6 18.55 -3.3 19.45 L-2.9 19.9 -2.1 19.65 -1.35 19.55 -2.55 20.9 -2.9 21.05 -3.05 21.6 -3.1 22.1 -3.15 22.35 -3.6 22.2 -4.15 21.75 -4.45 21.6 -5.45 21.8 Q-6.55 22.6 -7.8 23.15 -8.1 20.95 -7.45 20.85 -6.5 20.55 -5.65 19.8 L-5.35 19.3 -6.45 18.3 -6.25 18.15 M-1.0 21.05 Q-1.55 21.75 -1.1 21.95 L-0.8 21.95 Q-0.5 21.65 -0.8 21.3 L-1.0 21.05" fill="none" stroke="#eaace8" stroke-linecap="round" stroke-linejoin="round" stroke-width="0.05"/>
  </g>
</svg>
