<?xml version="1.0" encoding="UTF-8" standalone="no"?>
<svg xmlns:xlink="http://www.w3.org/1999/xlink" height="18.05px" width="18.0px" xmlns="http://www.w3.org/2000/svg">
  <g transform="matrix(1.0, 0.0, 0.0, 1.0, 9.0, 9.0)">
    <path d="M-1.5 -8.35 Q-4.8 -7.75 -6.85 -5.0 -8.95 -2.15 -8.4 1.3 L-8.3 1.75 -4.0 1.1 M-1.5 -8.35 L-1.3 -8.4 Q2.15 -8.95 5.0 -6.9 7.85 -4.8 8.4 -1.35 L8.45 -0.9 8.5 -0.3 Q8.6 2.55 6.85 4.95 4.8 7.85 1.35 8.4 L1.25 8.45 Q-2.15 8.9 -5.0 6.85 -7.4 5.1 -8.15 2.35 L-8.3 1.75 M4.1 -0.2 L8.45 -0.9" fill="none" stroke="#66ff00" stroke-linecap="round" stroke-linejoin="round" stroke-width="1.0"/>
    <path d="M-1.5 -8.35 L-0.75 -3.9 M0.55 4.15 L1.25 8.45" fill="none" stroke="#66ff00" stroke-linecap="round" stroke-linejoin="round" stroke-width="1.0"/>
  </g>
</svg>
