<?xml version="1.0" encoding="UTF-8" standalone="no"?>
<svg xmlns:xlink="http://www.w3.org/1999/xlink" height="39.55px" width="199.75px" xmlns="http://www.w3.org/2000/svg">
  <g transform="matrix(1.0, 0.0, 0.0, 1.0, 152.85, 19.95)">
    <path d="M46.4 -19.95 L46.7 -19.85 46.9 -19.5 46.9 -19.45 46.8 -19.15 Q30.05 3.1 14.55 19.45 L14.5 19.45 14.15 19.6 -120.05 19.6 -120.4 19.45 -132.75 4.3 Q-141.5 -6.3 -152.7 -19.1 L-152.85 -19.45 -152.7 -19.8 -152.65 -19.8 -152.35 -19.95 46.4 -19.95" fill="#000000" fill-opacity="0.38039216" fill-rule="evenodd" stroke="none"/>
    <path d="M11.5 16.2 Q24.7 2.35 38.85 -16.05 24.7 2.35 11.5 16.2 L-114.15 16.05 11.5 16.2 M-114.25 16.05 L-114.2 16.1 -114.15 16.05 -115.2 14.8 -114.25 16.05 M-141.45 -16.25 L-140.75 -15.35 Q-132.8 -6.9 -124.45 3.2 L-115.2 14.8 -124.45 3.2 Q-132.8 -6.9 -140.75 -15.35 L-141.45 -16.25 38.85 -16.05 -141.45 -16.25 M43.4 -18.35 Q27.5 2.85 12.7 18.35 L-115.05 18.35 -126.85 3.95 Q-135.2 -6.15 -145.85 -18.35 L43.4 -18.35" fill="url(#gradient0)" fill-rule="evenodd" stroke="none"/>
    <path d="M-114.15 16.05 L-114.25 16.05" fill="none" stroke="#8f3f3f" stroke-linecap="round" stroke-linejoin="round" stroke-width="1.0"/>
    <path d="M38.85 -16.05 Q24.7 2.35 11.5 16.2 M-114.25 16.05 L-115.2 14.8 -124.45 3.2 Q-132.8 -6.9 -140.75 -15.35 L-141.45 -16.25 M-115.05 18.35 L-126.85 3.95 Q-135.2 -6.15 -145.85 -18.35" fill="none" stroke="#3a1b1b" stroke-linecap="round" stroke-linejoin="round" stroke-width="1.0"/>
    <path d="M-141.45 -16.25 L38.85 -16.05" fill="none" stroke="#1e0d0d" stroke-linecap="round" stroke-linejoin="round" stroke-width="1.0"/>
    <path d="M11.5 16.2 L-114.15 16.05" fill="none" stroke="#361818" stroke-linecap="round" stroke-linejoin="round" stroke-width="1.0"/>
    <path d="M43.4 -18.35 Q27.5 2.85 12.7 18.35" fill="none" stroke="#bd6c6c" stroke-linecap="round" stroke-linejoin="round" stroke-width="1.0"/>
    <path d="M12.7 18.35 L-115.05 18.35" fill="none" stroke="#cd9292" stroke-linecap="round" stroke-linejoin="round" stroke-width="1.0"/>
    <path d="M-145.85 -18.35 L43.4 -18.35" fill="none" stroke="#b15252" stroke-linecap="round" stroke-linejoin="round" stroke-width="1.0"/>
  </g>
  <defs>
    <linearGradient gradientTransform="matrix(0.0118, 0.0276, 0.1279, -0.0342, -32.3, -1.25)" gradientUnits="userSpaceOnUse" id="gradient0" spreadMethod="pad" x1="-819.2" x2="819.2">
      <stop offset="0.0" stop-color="#000000"/>
      <stop offset="1.0" stop-color="#6d3030"/>
    </linearGradient>
  </defs>
</svg>
