<?xml version="1.0" encoding="UTF-8" standalone="no"?>
<svg xmlns:xlink="http://www.w3.org/1999/xlink" height="17.05px" width="114.95px" xmlns="http://www.w3.org/2000/svg">
  <g transform="matrix(1.0, 0.0, 0.0, 1.0, 48.85, 6.55)">
    <path d="M61.9 7.2 L61.9 -3.55 -45.35 -3.55 -45.35 7.2 61.9 7.2 M64.6 -6.45 L64.7 -6.3 66.1 10.25 66.05 10.4 66.05 10.45 65.9 10.5 -48.65 10.1 -48.8 10.05 -48.8 10.0 -48.85 9.85 -47.4 -6.3 -47.3 -6.45 -47.3 -6.5 -47.15 -6.55 64.45 -6.55 64.6 -6.5 64.6 -6.45" fill="#050f12" fill-opacity="0.4509804" fill-rule="evenodd" stroke="none"/>
    <path d="M61.1 -5.65 L61.1 5.6 -46.6 5.6 -46.6 -5.65 61.1 -5.65" fill="url(#gradient0)" fill-rule="evenodd" stroke="none"/>
  </g>
  <defs>
    <linearGradient gradientTransform="matrix(0.0, -0.0048, 0.0059, 0.0, 6.8, 0.0)" gradientUnits="userSpaceOnUse" id="gradient0" spreadMethod="pad" x1="-819.2" x2="819.2">
      <stop offset="0.0" stop-color="#000000" stop-opacity="0.4509804"/>
      <stop offset="1.0" stop-color="#82c0d7"/>
    </linearGradient>
  </defs>
</svg>
