<?xml version="1.0" encoding="UTF-8" standalone="no"?>
<svg xmlns:xlink="http://www.w3.org/1999/xlink" height="22.55px" width="215.85px" xmlns="http://www.w3.org/2000/svg">
  <g transform="matrix(1.0, 0.0, 0.0, 1.0, 3.0, 2.85)">
    <path d="M204.4 16.2 L5.45 16.2 Q3.45 16.25 1.95 13.95 0.5 11.7 0.5 8.45 0.5 5.25 1.95 3.0 3.4 0.7 5.45 0.65 L204.4 0.65 Q206.4 0.7 207.85 3.0 209.3 5.25 209.35 8.5 209.25 11.75 207.85 14.0 L206.25 15.65 Q205.4 16.2 204.4 16.2 Z" fill="none" stroke="#172645" stroke-linecap="round" stroke-linejoin="round" stroke-width="7.0"/>
    <path d="M206.25 9.6 L206.8 7.7 206.95 9.4 Q206.9 11.3 206.25 12.8 L205.55 14.1 Q204.1 16.0 202.15 16.05 L6.4 16.05 Q4.9 16.05 3.05 14.05 2.2 13.15 2.2 9.65 2.2 8.85 2.35 8.0 2.65 10.3 3.05 10.85 4.45 12.7 6.4 12.7 L200.3 12.75 202.15 12.75 Q204.1 12.8 205.55 10.9 L206.25 9.6" fill="#ffffff" fill-opacity="0.5921569" fill-rule="evenodd" stroke="none"/>
    <path d="M209.45 15.5 Q208.05 17.95 206.0 18.0 L7.05 17.95 Q5.05 18.0 3.6 15.5 2.15 13.0 2.15 9.45 2.15 5.85 3.6 3.4 5.0 0.9 7.05 0.85 L206.0 0.8 Q208.05 0.85 209.45 3.4 210.9 5.85 210.95 9.45 210.85 13.05 209.45 15.5" fill="#000000" fill-opacity="0.44313726" fill-rule="evenodd" stroke="none"/>
  </g>
</svg>
