<?xml version="1.0" encoding="UTF-8" standalone="no"?>
<svg xmlns:xlink="http://www.w3.org/1999/xlink" height="3.75px" width="3.7px" xmlns="http://www.w3.org/2000/svg">
  <g transform="matrix(1.0, 0.0, 0.0, 1.0, 1.9, 2.05)">
    <path d="M1.8 -0.2 L1.8 -0.15 Q1.8 0.6 1.25 1.15 0.7 1.7 -0.05 1.7 -0.8 1.7 -1.35 1.15 -1.9 0.6 -1.9 -0.15 -1.9 -0.9 -1.35 -1.45 -0.8 -2.05 -0.05 -2.05 0.7 -2.05 1.25 -1.45 1.8 -0.95 1.8 -0.2" fill="url(#gradient0)" fill-rule="evenodd" stroke="none"/>
    <path d="M1.5 -0.15 L1.05 0.9 -0.05 1.35 Q-0.65 1.3 -1.1 0.9 -1.55 0.45 -1.55 -0.15 -1.55 -0.8 -1.1 -1.25 -0.65 -1.7 -0.05 -1.7 L1.05 -1.25 1.5 -0.2 1.5 -0.15" fill="url(#gradient1)" fill-rule="evenodd" stroke="none"/>
  </g>
  <defs>
    <radialGradient cx="0" cy="0" gradientTransform="matrix(0.0037, 0.0, 0.0, 0.0037, -0.05, 0.15)" gradientUnits="userSpaceOnUse" id="gradient0" r="819.2" spreadMethod="pad">
      <stop offset="0.0" stop-color="#fefe4e"/>
      <stop offset="1.0" stop-color="#ffffff"/>
    </radialGradient>
    <radialGradient cx="0" cy="0" gradientTransform="matrix(0.0029, 0.0, 0.0, 0.0029, 0.0, 0.15)" gradientUnits="userSpaceOnUse" id="gradient1" r="819.2" spreadMethod="pad">
      <stop offset="0.0" stop-color="#fefe4e"/>
      <stop offset="1.0" stop-color="#02fd1b"/>
    </radialGradient>
  </defs>
</svg>
