<?xml version="1.0" encoding="UTF-8" standalone="no"?>
<svg xmlns:xlink="http://www.w3.org/1999/xlink" height="339.15px" width="251.5px" xmlns="http://www.w3.org/2000/svg">
  <g transform="matrix(1.0, 0.0, 0.0, 1.0, 125.7, 160.85)">
    <path d="M125.45 -160.85 L125.75 -160.75 125.8 -160.45 122.85 177.8 122.7 178.15 122.5 178.3 -120.5 170.35 -120.75 170.25 -120.85 170.05 -125.7 -145.0 -125.65 -145.35 -125.35 -145.45 125.45 -160.85" fill="#000000" fill-opacity="0.43137255" fill-rule="evenodd" stroke="none"/>
    <path d="M116.25 -159.5 L112.95 166.6 -119.5 159.5 -124.1 -144.45 116.25 -159.5" fill="#062942" fill-rule="evenodd" stroke="none"/>
    <path d="M116.25 -159.5 L112.95 166.6 -119.5 159.5" fill="none" stroke="#07253a" stroke-linecap="round" stroke-linejoin="round" stroke-width="0.05"/>
    <path d="M-119.5 159.5 L-124.1 -144.45 116.25 -159.5 Z" fill="none" stroke="#1b5e76" stroke-linecap="round" stroke-linejoin="round" stroke-width="0.05"/>
    <path d="M-112.3 151.7 L-116.4 -138.0 107.3 -152.4 104.4 157.9 -112.3 151.7" fill="url(#gradient0)" fill-rule="evenodd" stroke="none"/>
    <path d="M-112.3 151.7 L-116.4 -138.0 107.3 -152.4" fill="none" stroke="#03131b" stroke-linecap="round" stroke-linejoin="round" stroke-width="0.05"/>
    <path d="M107.3 -152.4 L104.4 157.9" fill="none" stroke="#3eaad2" stroke-linecap="round" stroke-linejoin="round" stroke-width="0.05"/>
    <path d="M104.4 157.9 L-112.3 151.7 Z" fill="none" stroke="#2970a1" stroke-linecap="round" stroke-linejoin="round" stroke-width="0.05"/>
  </g>
  <defs>
    <linearGradient gradientTransform="matrix(-0.0098, -0.1321, -0.2333, 0.0287, -40.9, -65.65)" gradientUnits="userSpaceOnUse" id="gradient0" spreadMethod="pad" x1="-819.2" x2="819.2">
      <stop offset="0.0" stop-color="#093d72"/>
      <stop offset="1.0" stop-color="#55b6e1"/>
    </linearGradient>
  </defs>
</svg>
