<?xml version="1.0" encoding="UTF-8" standalone="no"?>
<svg xmlns:xlink="http://www.w3.org/1999/xlink" height="19.1px" width="30.6px" xmlns="http://www.w3.org/2000/svg">
  <g transform="matrix(1.0, 0.0, 0.0, 1.0, 14.1, 8.5)">
    <path d="M14.95 -1.1 L16.5 0.9 Q10.15 6.75 2.05 10.6 L-2.35 6.9 Q5.7 4.2 8.6 1.5 12.5 1.8 14.95 -1.1" fill="#8c996d" fill-rule="evenodd" stroke="none"/>
    <path d="M-2.35 6.9 Q-7.25 5.3 -10.65 2.65 -14.1 -0.05 -14.1 -2.25 -14.1 -3.05 -13.65 -3.65 L-6.9 -6.85 -5.9 -6.65 -5.85 -6.65 Q-2.7 -8.0 -0.9 -8.4 0.95 -8.85 4.5 -7.4 7.95 -6.0 12.35 -3.05 L14.95 -1.1 Q12.5 1.8 8.6 1.5 5.7 4.2 -2.35 6.9 M9.15 0.95 L8.6 1.5 9.15 0.95 Q4.25 -4.6 -5.85 -6.65 4.25 -4.6 9.15 0.95" fill="#8aa90c" fill-rule="evenodd" stroke="none"/>
    <path d="M-2.35 6.9 Q-7.25 5.3 -10.65 2.65 -14.1 -0.05 -14.1 -2.25 -14.1 -3.05 -13.65 -3.65 L-6.9 -6.85 -5.9 -6.65 -5.85 -6.65 Q-2.7 -8.0 -0.9 -8.4 0.95 -8.85 4.5 -7.4 7.95 -6.0 12.35 -3.05 L14.95 -1.1 M16.5 0.9 Q10.15 6.75 2.05 10.6 L-2.35 6.9 M9.15 0.95 Q4.25 -4.6 -5.85 -6.65" fill="none" stroke="#6c322b" stroke-linecap="round" stroke-linejoin="round" stroke-width="0.05"/>
    <path d="M-2.35 6.9 Q5.7 4.2 8.6 1.5 L9.15 0.95 M8.6 1.5 Q12.5 1.8 14.95 -1.1" fill="none" stroke="#544668" stroke-linecap="round" stroke-linejoin="round" stroke-width="0.05"/>
  </g>
</svg>
