<?xml version="1.0" encoding="UTF-8" standalone="no"?>
<svg xmlns:xlink="http://www.w3.org/1999/xlink" height="30.05px" width="43.55px" xmlns="http://www.w3.org/2000/svg">
  <g transform="matrix(1.0, 0.0, 0.0, 1.0, 24.8, 14.35)">
    <path d="M14.75 -5.05 L14.85 -3.4 14.8 -2.2 Q14.35 2.35 10.3 6.0 5.8 10.1 -0.6 10.6 L-6.2 10.2 -7.85 9.7 Q-9.3 9.15 -10.55 8.35 L-11.55 7.65 -12.9 6.5 -13.7 5.6 Q-14.75 4.35 -15.3 2.9 L-15.45 1.2 -15.4 0.05 Q-15.2 -1.9 -14.35 -3.65 -13.25 -6.1 -10.95 -8.2 -6.4 -12.3 0.0 -12.75 5.65 -13.2 9.85 -10.55 10.65 -10.4 11.3 -9.9 L12.1 -8.85 12.25 -8.7 12.55 -8.4 Q14.0 -6.9 14.75 -5.05" fill="#8c996d" fill-rule="evenodd" stroke="none"/>
    <path d="M-15.3 2.9 Q-14.75 4.35 -13.7 5.6 L-12.9 6.5 -11.55 7.65 -10.55 8.35 Q-9.3 9.15 -7.85 9.7 L-6.2 10.2 -0.6 10.6 Q5.8 10.1 10.3 6.0 14.35 2.35 14.8 -2.2 L14.85 -3.4 14.75 -5.05 15.4 -2.3 15.45 -1.15 Q15.45 4.15 10.9 8.25 6.4 12.35 0.0 12.85 L-5.15 12.55 -5.2 12.55 -5.6 12.45 -7.25 11.95 Q-8.7 11.4 -9.95 10.6 L-10.95 9.9 -12.3 8.75 -13.1 7.85 Q-14.9 5.65 -15.3 2.9" fill="#79835c" fill-rule="evenodd" stroke="none"/>
    <path d="M14.75 -5.05 Q14.0 -6.9 12.55 -8.4 L12.25 -8.7 12.1 -8.85 11.3 -9.9 Q10.65 -10.4 9.85 -10.55 5.65 -13.2 0.0 -12.75 -6.4 -12.3 -10.95 -8.2 -13.25 -6.1 -14.35 -3.65 -15.2 -1.9 -15.4 0.05 L-15.45 1.2 -15.3 2.9 Q-14.9 5.65 -13.1 7.85 L-12.3 8.75 -10.95 9.9 -9.95 10.6 Q-8.7 11.4 -7.25 11.95 L-5.6 12.45 -5.2 12.55 -5.15 12.55 0.0 12.85 Q6.4 12.35 10.9 8.25 15.45 4.15 15.45 -1.15 L15.4 -2.3 14.75 -5.05 M-5.2 12.55 L-5.15 12.6 -5.6 12.45" fill="none" stroke="#6c322b" stroke-linecap="round" stroke-linejoin="round" stroke-width="0.05"/>
    <path d="M-0.75 10.95 Q-1.55 12.25 -1.05 15.7 L-4.7 12.95 Q-18.75 2.9 -22.9 6.65 L-23.65 7.55 -24.8 3.95 -21.65 -5.35 -20.65 -6.55 Q-18.15 -6.35 -17.7 -7.95 L-16.35 -8.55 Q-6.85 -12.25 3.85 -1.75 2.25 0.3 4.15 2.3 0.2 8.4 -0.75 10.95" fill="#b5eb0f" fill-rule="evenodd" stroke="none"/>
    <path d="M-4.7 12.95 Q-17.55 13.85 -22.9 6.65 -18.75 2.9 -4.7 12.95" fill="#8f9878" fill-rule="evenodd" stroke="none"/>
    <path d="M2.45 7.4 L1.5 8.7 Q0.75 9.85 0.45 12.5 L-0.75 10.95 Q0.2 8.4 4.15 2.3 2.25 0.3 3.85 -1.75 -6.85 -12.25 -16.35 -8.55 L-13.65 -12.55 -13.7 -12.55 -12.4 -13.45 Q-10.1 -12.65 -9.3 -14.0 -4.65 -15.0 -0.5 -12.95 4.9 -10.4 9.45 -2.7 7.45 -1.2 8.75 1.15 4.2 5.2 2.45 7.4" fill="#b9e210" fill-rule="evenodd" stroke="none"/>
    <path d="M13.3 -10.35 Q15.05 -7.8 14.4 -3.6 12.75 -3.2 11.75 -1.85 10.7 -0.45 10.4 2.0 7.4 3.3 5.35 6.8 L2.45 7.4 Q4.2 5.2 8.75 1.15 7.45 -1.2 9.45 -2.7 4.9 -10.4 -0.5 -12.95 6.55 -13.55 12.5 -11.35 L13.3 -10.35" fill="#afd70f" fill-rule="evenodd" stroke="none"/>
    <path d="M13.3 -10.35 Q15.0 -10.55 16.65 -10.4 18.65 -9.4 18.75 -6.6 16.6 -5.65 16.25 -3.9 13.5 -2.95 11.75 -1.85 12.75 -3.2 14.4 -3.6 15.05 -7.8 13.3 -10.35" fill="#a5ca0f" fill-rule="evenodd" stroke="none"/>
    <path d="M11.75 -1.85 Q13.5 -2.95 16.25 -3.9 16.6 -5.65 18.75 -6.6 18.65 -9.4 16.65 -10.4 15.0 -10.55 13.3 -10.35 15.05 -7.8 14.4 -3.6 12.75 -3.2 11.75 -1.85 10.7 -0.45 10.4 2.0 7.4 3.3 5.35 6.8 M2.45 7.4 L1.5 8.7 Q0.75 9.85 0.45 12.5 M-16.35 -8.55 L-13.65 -12.55 M-13.7 -12.55 L-12.4 -13.45 Q-10.1 -12.65 -9.3 -14.0 -4.65 -15.0 -0.5 -12.95 6.55 -13.55 12.5 -11.35 L13.3 -10.35 M-0.5 -12.95 Q4.9 -10.4 9.45 -2.7 7.45 -1.2 8.75 1.15 4.2 5.2 2.45 7.4" fill="none" stroke="#6c322b" stroke-linecap="round" stroke-linejoin="round" stroke-width="0.05"/>
    <path d="M-0.75 10.95 Q-1.55 12.25 -1.05 15.7 M-23.65 7.55 L-24.8 3.95 -21.65 -5.35 -20.65 -6.55 Q-18.15 -6.35 -17.7 -7.95 L-16.35 -8.55 Q-6.85 -12.25 3.85 -1.75 2.25 0.3 4.15 2.3 0.2 8.4 -0.75 10.95" fill="none" stroke="#6c322b" stroke-linecap="round" stroke-linejoin="round" stroke-width="0.05"/>
    <path d="M5.35 6.8 L2.45 7.4 M0.45 12.5 L-0.75 10.95 M-1.05 15.7 L-4.7 12.95 Q-17.55 13.85 -22.9 6.65 L-23.65 7.55 M-22.9 6.65 Q-18.75 2.9 -4.7 12.95" fill="none" stroke="#544668" stroke-linecap="round" stroke-linejoin="round" stroke-width="0.05"/>
    <path d="M-5.0 6.35 Q-5.55 6.35 -5.95 5.95 -6.3 5.6 -6.3 5.05 -6.3 4.5 -5.95 4.1 -5.55 3.75 -5.0 3.75 -4.45 3.75 -4.1 4.1 -3.7 4.5 -3.7 5.05 -3.7 5.6 -4.1 5.95 -4.45 6.35 -5.0 6.35" fill="#000000" fill-rule="evenodd" stroke="none"/>
    <path d="M-5.0 6.35 Q-4.45 6.35 -4.1 5.95 -3.7 5.6 -3.7 5.05 -3.7 4.5 -4.1 4.1 -4.45 3.75 -5.0 3.75 -5.55 3.75 -5.95 4.1 -6.3 4.5 -6.3 5.05 -6.3 5.6 -5.95 5.95 -5.55 6.35 -5.0 6.35 M-4.6 8.4 Q-9.75 7.6 -10.3 4.6 -8.8 2.05 -4.75 2.2 -2.0 1.95 -0.15 4.6 -2.05 7.6 -4.6 8.4" fill="#e2652f" fill-rule="evenodd" stroke="none"/>
    <path d="M-4.6 8.4 Q-2.05 7.6 -0.15 4.6 -2.0 1.95 -4.75 2.2 -8.8 2.05 -10.3 4.6 -9.75 7.6 -4.6 8.4 Z" fill="none" stroke="#6c322b" stroke-linecap="round" stroke-linejoin="round" stroke-width="0.05"/>
    <path d="M-22.1 0.8 L-22.6 1.05 -23.15 0.8 -23.35 0.25 -23.15 -0.35 -22.6 -0.55 Q-22.3 -0.6 -22.1 -0.35 -21.85 -0.1 -21.85 0.25 L-22.1 0.8" fill="#000000" fill-rule="evenodd" stroke="none"/>
    <path d="M-22.1 0.8 L-21.85 0.25 Q-21.85 -0.1 -22.1 -0.35 -22.3 -0.6 -22.6 -0.55 L-23.15 -0.35 -23.35 0.25 -23.15 0.8 -22.6 1.05 -22.1 0.8 M-21.3 -1.65 Q-20.5 -1.65 -19.45 -1.15 -18.85 1.05 -19.65 2.25 L-23.2 2.4 -24.25 1.75 Q-24.8 -0.1 -22.8 -1.15 -22.2 -1.65 -21.3 -1.65" fill="#e2652f" fill-rule="evenodd" stroke="none"/>
    <path d="M-21.3 -1.65 Q-22.2 -1.65 -22.8 -1.15 -24.8 -0.1 -24.25 1.75 L-23.2 2.4 -19.65 2.25 Q-18.85 1.05 -19.45 -1.15 -20.5 -1.65 -21.3 -1.65 Z" fill="none" stroke="#6c322b" stroke-linecap="round" stroke-linejoin="round" stroke-width="0.05"/>
    <path d="M-12.3 -1.85 Q-11.75 -2.4 -11.0 -2.4 -10.25 -2.4 -9.75 -1.85 -9.2 -1.3 -9.2 -0.55 -9.2 0.2 -9.75 0.7 -10.25 1.25 -11.0 1.25 -11.75 1.25 -12.3 0.7 -12.8 0.2 -12.8 -0.55 -12.8 -1.3 -12.3 -1.85" fill="#e2652f" fill-rule="evenodd" stroke="none"/>
    <path d="M-12.3 -1.85 Q-11.75 -2.4 -11.0 -2.4 -10.25 -2.4 -9.75 -1.85 -9.2 -1.3 -9.2 -0.55 -9.2 0.2 -9.75 0.7 -10.25 1.25 -11.0 1.25 -11.75 1.25 -12.3 0.7 -12.8 0.2 -12.8 -0.55 -12.8 -1.3 -12.3 -1.85 Z" fill="none" stroke="#475f1b" stroke-linecap="round" stroke-linejoin="round" stroke-width="0.05"/>
    <path d="M-16.95 -3.1 L-15.7 -3.6 Q-15.0 -3.6 -14.55 -3.1 -14.05 -2.6 -14.05 -1.9 -14.05 -1.2 -14.55 -0.7 -15.0 -0.2 -15.7 -0.2 -16.4 -0.2 -16.95 -0.7 -17.4 -1.2 -17.4 -1.9 -17.4 -2.6 -16.95 -3.1" fill="#e2652f" fill-rule="evenodd" stroke="none"/>
    <path d="M-16.95 -3.1 L-15.7 -3.6 Q-15.0 -3.6 -14.55 -3.1 -14.05 -2.6 -14.05 -1.9 -14.05 -1.2 -14.55 -0.7 -15.0 -0.2 -15.7 -0.2 -16.4 -0.2 -16.95 -0.7 -17.4 -1.2 -17.4 -1.9 -17.4 -2.6 -16.95 -3.1 Z" fill="none" stroke="#475f1b" stroke-linecap="round" stroke-linejoin="round" stroke-width="0.05"/>
  </g>
</svg>
