<?xml version="1.0" encoding="UTF-8" standalone="no"?>
<svg xmlns:xlink="http://www.w3.org/1999/xlink" height="53.45px" width="111.3px" xmlns="http://www.w3.org/2000/svg">
  <g transform="matrix(1.0, 0.0, 0.0, 1.0, 35.05, 29.85)">
    <path d="M37.9 -9.2 L38.5 -10.25 Q44.2 -13.1 45.45 -8.7 L45.85 -7.45 45.85 -7.3 Q45.9 -5.8 44.85 -6.2 40.3 -4.6 37.9 -9.2 M49.25 -1.75 Q50.2 -1.75 50.85 -0.85 51.45 0.05 51.45 1.4 51.45 2.7 50.85 3.65 L50.05 4.35 50.85 4.05 49.55 4.6 49.5 4.65 49.55 4.55 49.65 4.5 49.25 4.55 Q48.35 4.55 47.7 3.65 47.05 2.7 47.05 1.4 47.05 0.05 47.7 -0.85 48.35 -1.75 49.25 -1.75 M65.5 -1.05 Q66.3 -1.1 66.9 -0.25 67.45 0.55 67.45 1.75 67.45 2.9 66.9 3.7 66.3 4.55 65.5 4.55 64.7 4.55 64.1 3.7 63.5 2.9 63.55 1.75 63.5 0.55 64.1 -0.25 64.7 -1.1 65.5 -1.05 M75.9 -4.3 Q75.55 -3.85 75.1 -3.8 L74.3 -4.3 Q73.95 -4.8 73.95 -5.45 73.95 -6.15 74.3 -6.6 L75.1 -7.1 Q75.55 -7.1 75.9 -6.6 L76.25 -5.45 Q76.25 -4.8 75.9 -4.3 M74.65 3.55 Q75.05 4.15 75.05 4.95 75.05 5.75 74.65 6.35 74.2 6.95 73.65 6.95 73.1 6.95 72.7 6.35 72.25 5.75 72.25 4.95 72.25 4.15 72.7 3.55 73.1 2.95 73.65 3.0 74.2 2.95 74.65 3.55 M42.15 8.95 Q37.6 11.4 34.75 8.45 37.75 5.25 42.5 6.35 L43.0 7.8 42.8 8.45 42.15 8.95" fill="#d6fca0" fill-rule="evenodd" stroke="none"/>
    <path d="M4.3 -29.85 Q10.25 -27.4 8.0 -19.8 14.95 -15.8 8.95 -11.0 3.55 -7.2 -2.1 -9.7 6.25 -4.5 15.55 -5.5 17.45 -5.05 18.7 -6.95 L19.3 -8.2 19.4 -8.75 19.25 -9.45 18.2 -10.65 22.9 -10.95 Q39.3 -11.7 33.9 -7.95 L27.85 -5.85 Q31.7 -6.85 31.05 -2.9 30.95 0.25 22.6 -1.55 L23.25 -2.9 Q17.0 -2.9 11.25 0.6 L14.05 1.75 Q47.7 -4.15 41.35 0.6 L39.45 1.3 36.5 1.6 34.7 2.65 37.0 3.5 Q41.35 6.05 22.0 5.8 L29.0 7.45 Q36.95 9.35 22.6 11.45 L20.2 11.2 Q21.8 13.05 21.8 15.3 21.8 18.7 18.15 21.1 14.55 23.55 9.45 23.6 4.3 23.55 0.65 21.1 -1.55 19.6 -2.4 17.8 -7.85 19.85 -13.8 19.45 L-24.25 18.25 Q-27.05 16.9 -29.3 13.65 -30.45 12.05 -31.2 10.25 -31.7 11.0 -32.3 11.0 -33.35 11.0 -34.1 8.7 -34.8 6.45 -34.85 3.4 -35.85 -4.6 -31.7 -8.0 -30.8 -10.55 -29.3 -12.75 -27.35 -15.45 -25.0 -16.75 -27.45 -22.55 -22.15 -24.65 -18.25 -22.25 -18.35 -19.4 L-18.15 -19.5 Q-11.6 -21.45 -1.35 -20.9 -1.9 -25.2 2.1 -28.7 3.15 -29.7 4.3 -29.85" fill="url(#gradient0)" fill-rule="evenodd" stroke="none"/>
  </g>
  <defs>
    <radialGradient cx="0" cy="0" gradientTransform="matrix(0.0342, 0.0, 0.0, 0.0489, -24.2, -0.85)" gradientUnits="userSpaceOnUse" id="gradient0" r="819.2" spreadMethod="pad">
      <stop offset="0.0" stop-color="#ffffff"/>
      <stop offset="0.9803921568627451" stop-color="#d6fca0"/>
    </radialGradient>
  </defs>
</svg>
