<?xml version="1.0" encoding="UTF-8" standalone="no"?>
<svg xmlns:xlink="http://www.w3.org/1999/xlink" height="50.6px" width="112.25px" xmlns="http://www.w3.org/2000/svg">
  <g transform="matrix(1.0, 0.0, 0.0, 1.0, 34.95, 28.05)">
    <path d="M-12.3 -24.4 Q-5.7 -21.6 -10.2 -15.7 -6.15 -13.05 -1.6 -14.25 L-0.9 -14.75 -0.55 -15.55 Q1.8 -19.0 6.45 -19.0 L11.1 -18.55 Q10.7 -19.3 10.55 -20.25 9.2 -27.4 14.5 -28.05 18.45 -27.3 20.25 -22.35 L20.3 -22.0 Q19.1 -17.8 17.25 -16.45 L19.75 -15.15 19.95 -14.5 Q20.35 -7.45 8.65 -9.2 7.6 -10.75 6.45 -11.4 5.3 -12.0 4.0 -11.85 1.95 -11.5 0.7 -9.2 3.35 -5.05 6.45 -4.15 9.35 -3.35 12.65 -5.45 L13.6 -6.05 13.85 -6.8 Q19.6 -1.35 25.6 -7.1 L25.05 -8.2 23.75 -9.85 23.2 -10.4 Q39.55 -16.65 39.1 -11.0 31.9 -3.25 23.0 -2.75 41.7 -2.7 37.35 0.0 36.5 2.05 33.85 2.35 36.6 2.85 38.85 4.2 L39.0 3.95 Q39.5 3.3 40.2 3.3 40.85 3.3 41.35 3.95 41.85 4.7 41.85 5.7 L41.75 6.6 Q42.95 8.2 42.95 10.1 42.95 13.5 39.1 15.8 35.25 18.2 29.85 18.2 24.4 18.2 20.55 15.8 16.7 13.5 16.7 10.1 16.7 8.25 17.8 6.75 12.55 5.05 7.75 8.85 8.9 9.0 9.85 9.45 11.15 10.15 11.15 11.15 11.15 12.15 9.85 12.8 8.5 13.55 6.6 13.55 L6.45 13.55 5.4 13.5 Q-3.2 18.75 -12.75 18.35 L-13.8 18.4 Q-14.25 18.25 -14.25 18.55 L-18.15 19.15 -18.55 19.15 -20.0 19.25 -21.45 19.1 Q-22.2 20.45 -23.75 21.95 -25.45 23.5 -26.65 21.2 -28.55 17.75 -27.9 15.45 L-28.6 14.6 Q-30.65 15.15 -33.05 11.4 -36.25 6.35 -34.0 1.25 L-33.7 1.1 -33.2 0.9 -33.05 0.95 -33.05 0.55 Q-33.1 -7.2 -29.3 -12.75 -25.55 -18.0 -20.3 -18.1 L-18.55 -18.9 -18.15 -18.9 -18.15 -19.0 -17.3 -18.7 -15.7 -18.55 Q-16.5 -21.95 -12.8 -24.15 L-12.3 -24.4" fill="url(#gradient0)" fill-rule="evenodd" stroke="none"/>
    <path d="M76.95 -2.5 L77.3 -1.4 Q77.3 -0.85 76.95 -0.4 76.65 0.05 76.25 0.1 L75.5 -0.4 Q75.2 -0.85 75.2 -1.4 75.2 -2.0 75.5 -2.5 75.85 -2.9 76.25 -2.9 76.65 -2.9 76.95 -2.5 M64.6 3.8 Q64.6 5.35 63.85 6.45 63.05 7.55 62.0 7.55 60.9 7.55 60.15 6.45 59.35 5.35 59.4 3.8 59.35 2.25 60.15 1.15 60.9 0.05 62.0 0.1 63.05 0.05 63.85 1.15 64.6 2.25 64.6 3.8 M47.8 -3.4 Q48.2 -2.8 48.2 -2.0 48.2 -1.15 47.8 -0.65 47.45 -0.1 46.9 -0.1 46.3 -0.1 45.9 -0.65 45.55 -1.15 45.55 -2.0 45.55 -2.8 45.9 -3.4 46.3 -3.9 46.9 -3.9 L47.8 -3.4 M40.75 -4.95 Q41.6 -5.0 42.2 -4.15 42.85 -3.25 42.85 -2.0 42.85 -0.75 42.2 0.1 41.6 1.0 40.75 1.0 39.9 1.0 39.25 0.1 38.65 -0.75 38.7 -2.0 38.65 -3.25 39.25 -4.15 39.9 -5.0 40.75 -4.95" fill="#d6fca0" fill-rule="evenodd" stroke="none"/>
  </g>
  <defs>
    <radialGradient cx="0" cy="0" gradientTransform="matrix(0.0342, 0.0, 0.0, 0.0489, -24.2, -0.85)" gradientUnits="userSpaceOnUse" id="gradient0" r="819.2" spreadMethod="pad">
      <stop offset="0.0" stop-color="#ffffff"/>
      <stop offset="0.9803921568627451" stop-color="#d6fca0"/>
    </radialGradient>
  </defs>
</svg>
