<?xml version="1.0" encoding="UTF-8" standalone="no"?>
<svg xmlns:xlink="http://www.w3.org/1999/xlink" height="50.9px" width="111.45px" xmlns="http://www.w3.org/2000/svg">
  <g transform="matrix(1.0, 0.0, 0.0, 1.0, 35.15, 25.4)">
    <path d="M1.7 14.75 L1.4 14.75 0.95 15.55 Q0.3 16.55 -0.6 16.55 -1.55 16.55 -2.25 15.55 L-2.55 15.0 Q-3.65 15.1 -3.8 15.35 -7.65 15.55 -11.1 17.55 L-14.25 18.4 Q-13.2 21.35 -17.05 24.9 -18.8 26.4 -20.0 24.1 -21.55 21.2 -21.45 19.1 L-21.55 19.1 -21.65 19.1 Q-26.6 21.3 -30.4 14.75 -30.45 13.7 -30.9 13.05 L-31.55 12.1 -31.65 11.4 -31.7 10.45 -31.45 9.75 -32.55 6.05 Q-33.5 5.75 -34.2 4.7 -35.15 3.4 -35.15 1.4 -35.15 -0.6 -34.2 -2.0 -33.6 -2.8 -32.85 -3.1 -32.15 -8.55 -29.3 -12.75 -26.0 -17.35 -21.55 -18.0 L-18.15 -17.9 -18.15 -17.95 -15.25 -17.2 -14.45 -17.0 -13.15 -17.85 Q-11.0 -19.05 -7.9 -19.05 -4.85 -19.05 -2.7 -17.85 -0.55 -16.7 -0.5 -15.15 -0.5 -13.95 -1.8 -12.95 2.1 -11.15 6.1 -10.7 L12.0 -10.85 12.0 -12.0 10.2 -13.0 Q18.1 -15.0 22.2 -15.15 20.3 -24.6 27.65 -25.25 30.9 -26.1 32.85 -22.75 L32.95 -22.5 Q32.85 -11.3 25.7 -11.6 L25.45 -11.25 24.75 -10.9 Q28.1 -10.2 30.8 -8.35 L32.4 -7.1 Q35.9 -5.65 39.6 -6.35 38.0 -4.0 35.5 -3.25 L35.0 -3.0 35.2 -1.15 35.2 -0.4 Q43.65 -0.35 42.6 1.75 L44.4 1.65 Q47.9 1.65 50.5 3.05 L50.9 2.25 Q51.45 1.5 52.25 1.5 53.05 1.5 53.6 2.25 L54.1 3.4 54.1 3.55 54.2 4.2 Q54.15 5.35 53.65 6.1 L53.95 7.7 Q53.95 10.15 51.1 11.9 48.35 13.7 44.4 13.75 40.45 13.7 37.65 11.9 35.0 10.25 34.85 7.9 30.45 9.45 25.95 8.25 L22.35 8.95 Q23.5 10.45 23.35 12.1 23.05 15.1 14.25 12.35 10.2 13.9 6.1 14.4 L1.75 14.65 1.7 14.75 M-2.8 14.25 L-2.85 14.25 -2.8 14.25" fill="url(#gradient0)" fill-rule="evenodd" stroke="none"/>
    <path d="M1.7 14.75 L1.75 14.65 2.6 14.75 1.7 14.75 M54.1 3.55 L54.1 3.4 54.6 3.4 54.1 3.55 M2.25 -21.85 Q4.3 -21.6 5.0 -18.85 L5.1 -18.45 Q3.35 -9.85 0.15 -17.3 -0.75 -19.3 0.6 -20.75 1.4 -21.7 2.25 -21.85 M74.65 8.95 Q74.35 8.5 74.35 7.95 74.35 7.35 74.65 6.95 74.9 6.55 75.35 6.55 75.75 6.55 76.05 6.95 L76.3 7.95 76.05 8.95 75.35 9.35 Q74.9 9.35 74.65 8.95 M45.0 -7.95 Q45.0 -9.45 45.7 -10.5 46.4 -11.5 47.45 -11.5 48.5 -11.5 49.2 -10.5 49.95 -9.45 49.95 -7.95 49.95 -6.45 49.2 -5.45 48.5 -4.4 47.45 -4.4 46.4 -4.4 45.7 -5.45 45.0 -6.45 45.0 -7.95" fill="#d6fca0" fill-rule="evenodd" stroke="none"/>
  </g>
  <defs>
    <radialGradient cx="0" cy="0" gradientTransform="matrix(0.0342, 0.0, 0.0, 0.0489, -24.2, -0.85)" gradientUnits="userSpaceOnUse" id="gradient0" r="819.2" spreadMethod="pad">
      <stop offset="0.0" stop-color="#ffffff"/>
      <stop offset="0.9803921568627451" stop-color="#d6fca0"/>
    </radialGradient>
  </defs>
</svg>
