<?xml version="1.0" encoding="UTF-8" standalone="no"?>
<svg xmlns:xlink="http://www.w3.org/1999/xlink" height="52.9px" width="97.0px" xmlns="http://www.w3.org/2000/svg">
  <g transform="matrix(1.0, 0.0, 0.0, 1.0, 33.55, 27.65)">
    <path d="M9.25 -15.4 L8.85 -17.05 Q8.4 -19.35 10.25 -20.25 L11.3 -20.7 Q14.4 -20.55 15.1 -16.8 21.2 -18.0 24.05 -17.45 28.2 -16.7 24.8 -14.9 29.1 -12.2 27.55 -11.4 L30.05 -11.75 Q31.4 -12.5 32.8 -12.55 L38.45 -12.75 Q42.4 -12.9 39.45 -10.25 L41.1 -9.35 42.55 -8.25 Q42.95 -8.3 43.2 -7.95 L43.45 -7.4 Q45.0 -5.6 45.0 -3.4 45.0 -1.65 44.0 -0.1 43.65 0.95 42.25 1.75 L41.1 2.55 Q37.25 5.05 31.8 5.05 26.35 5.05 22.5 2.55 L21.25 1.65 Q18.55 2.35 15.9 3.4 L16.1 3.5 Q17.45 2.95 19.2 3.0 21.7 2.95 23.45 4.05 25.15 5.2 25.15 6.8 25.15 8.35 23.45 9.45 21.7 10.6 19.2 10.6 L17.25 10.4 16.55 10.5 Q12.75 11.2 9.2 10.0 7.6 9.5 7.1 8.85 4.65 6.85 2.5 8.6 -1.3 11.8 -4.95 15.65 L-4.75 15.65 Q-3.35 15.6 -2.35 17.05 -1.4 18.45 -1.35 20.45 -1.4 22.4 -2.35 23.85 -3.35 25.25 -4.75 25.25 -6.15 25.25 -7.1 23.85 -8.1 22.4 -8.1 20.45 -8.1 18.65 -7.25 17.35 L-8.75 17.4 -11.7 17.7 -16.0 18.85 -18.15 19.15 -18.55 19.15 -20.0 19.25 Q-25.45 19.2 -29.3 13.65 -33.1 8.25 -33.05 0.55 L-32.85 -3.0 -32.95 -3.15 Q-33.6 -4.05 -33.55 -5.4 -33.6 -6.7 -32.95 -7.7 -32.3 -8.55 -31.5 -8.6 -30.65 -10.8 -29.3 -12.75 -25.45 -18.15 -20.0 -18.1 L-18.55 -18.05 -18.15 -17.95 -16.0 -17.35 Q-14.35 -17.1 -12.7 -16.2 L-10.15 -16.65 -6.35 -16.85 Q0.4 -13.9 7.35 -14.0 L9.2 -14.0 9.65 -14.0 9.25 -15.25 9.25 -15.4 M18.95 -5.4 Q19.8 -7.6 22.5 -9.35 24.3 -10.5 26.45 -11.15 L23.1 -10.45 Q20.25 -9.9 17.25 -12.6 16.05 -8.2 9.8 -10.4 L11.45 -8.85 Q13.95 -6.3 16.95 -5.7 L18.95 -5.4 M13.6 0.85 Q16.3 1.05 18.05 -2.0 13.6 -5.25 12.35 0.5 L13.6 0.85" fill="url(#gradient0)" fill-rule="evenodd" stroke="none"/>
    <path d="M9.25 -15.25 L9.2 -15.25 9.2 -15.4 9.25 -15.4 9.25 -15.25 M42.5 -14.9 Q39.5 -18.2 41.45 -23.25 42.75 -26.55 44.95 -27.65 52.8 -26.25 48.8 -16.65 L47.95 -15.0 48.55 -14.4 Q49.2 -13.5 49.2 -12.35 49.2 -11.2 48.55 -10.35 48.0 -9.45 47.2 -9.45 46.35 -9.45 45.75 -10.35 45.15 -11.2 45.15 -12.35 L45.25 -13.15 Q43.95 -13.25 42.5 -14.9 M58.7 -11.4 Q66.0 -6.65 62.1 4.15 59.9 10.0 55.15 8.85 51.65 8.0 53.25 3.55 54.4 0.4 57.15 -0.25 57.05 -0.75 57.25 -1.25 L57.35 -1.9 Q53.3 -8.55 58.65 -11.35 L58.7 -11.4 M49.15 -4.45 L50.0 -3.95 Q50.4 -3.4 50.4 -2.65 50.4 -1.9 50.0 -1.4 49.65 -0.85 49.15 -0.85 48.6 -0.85 48.2 -1.4 47.85 -1.9 47.9 -2.65 47.85 -3.4 48.2 -3.95 48.6 -4.45 49.15 -4.45" fill="#d6fca0" fill-rule="evenodd" stroke="none"/>
  </g>
  <defs>
    <radialGradient cx="0" cy="0" gradientTransform="matrix(0.0342, 0.0, 0.0, 0.0489, -24.2, -0.85)" gradientUnits="userSpaceOnUse" id="gradient0" r="819.2" spreadMethod="pad">
      <stop offset="0.0" stop-color="#ffffff"/>
      <stop offset="0.9803921568627451" stop-color="#d6fca0"/>
    </radialGradient>
  </defs>
</svg>
