<?xml version="1.0" encoding="UTF-8" standalone="no"?>
<svg xmlns:xlink="http://www.w3.org/1999/xlink" height="48.65px" width="110.0px" xmlns="http://www.w3.org/2000/svg">
  <g transform="matrix(1.0, 0.0, 0.0, 1.0, 33.05, 24.55)">
    <path d="M-19.75 -18.1 L-18.55 -18.05 -18.15 -17.95 Q-15.4 -17.55 -12.8 -16.4 L-11.7 -15.95 Q-9.9 -15.5 -8.5 -15.95 L-7.95 -16.4 Q-6.25 -17.85 -4.15 -18.4 -2.95 -19.0 -1.35 -18.8 L-0.2 -18.65 0.15 -18.85 Q2.6 -20.2 6.1 -20.2 9.55 -20.2 12.05 -18.85 14.5 -17.45 14.5 -15.55 14.5 -13.65 12.05 -12.35 11.05 -11.8 9.95 -11.45 L12.05 -11.1 17.05 -10.3 18.45 -10.2 Q17.65 -11.2 17.65 -12.35 17.65 -14.4 20.15 -15.9 22.65 -17.3 26.2 -17.3 29.7 -17.3 32.2 -15.9 34.75 -14.4 34.75 -12.35 34.75 -10.3 32.2 -8.85 29.7 -7.4 26.2 -7.35 L22.6 -7.8 17.35 -7.2 14.35 -6.85 Q13.45 -6.7 12.8 -5.85 L15.7 -5.35 17.3 -5.5 20.4 -5.35 24.3 -3.85 25.65 -4.75 Q28.05 -6.85 31.65 -5.6 33.35 -4.75 32.7 -2.75 32.05 -0.7 30.35 -0.55 L26.0 0.1 Q23.3 0.55 22.75 2.6 25.2 2.6 27.35 1.3 33.2 3.15 27.1 3.65 20.95 4.05 20.35 5.65 L23.1 5.8 Q25.6 5.95 27.55 6.6 L28.75 7.15 Q30.15 8.0 30.2 9.0 30.2 10.4 27.55 11.35 25.35 12.15 22.45 12.3 L23.55 13.4 Q24.75 15.15 24.75 17.55 24.75 19.9 23.55 21.6 22.35 23.3 20.7 23.35 19.0 23.3 17.8 21.6 16.65 19.9 16.65 17.55 16.65 15.15 17.8 13.4 18.35 12.65 19.0 12.25 16.55 12.0 14.7 11.35 12.05 10.4 12.05 9.05 L12.05 9.0 Q12.05 7.6 14.7 6.6 L15.3 6.4 15.05 5.95 Q14.1 3.85 12.05 4.0 L10.9 4.2 Q7.7 4.9 5.15 6.65 3.9 7.1 3.55 8.25 2.85 9.55 2.6 10.9 3.55 10.3 4.65 10.15 5.7 9.65 7.25 9.7 8.9 9.65 10.05 10.25 11.2 10.9 11.25 11.75 11.2 12.55 10.05 13.15 8.9 13.8 7.25 13.8 5.55 13.8 4.4 13.15 L3.65 12.6 Q3.05 13.15 2.6 13.95 L-0.75 18.1 -0.75 18.45 Q-0.75 20.75 -1.9 22.4 -3.05 24.05 -4.65 24.1 -6.3 24.05 -7.45 22.4 -8.6 20.75 -8.6 18.45 L-8.35 16.45 -8.5 16.55 Q-12.9 18.4 -18.15 19.15 L-18.55 19.15 -20.0 19.25 Q-25.45 19.2 -29.3 13.65 -33.1 8.25 -33.05 0.55 -33.1 -5.35 -30.9 -9.95 L-31.1 -11.0 Q-31.1 -12.1 -30.55 -12.8 -30.05 -13.55 -29.3 -13.55 L-28.75 -13.5 Q-25.05 -18.15 -20.0 -18.1 L-19.75 -18.1 M1.5 -0.4 L-0.1 -0.6 Q-0.05 0.15 0.95 1.6 1.25 1.6 1.75 1.9 4.25 2.45 5.9 0.75 5.1 1.0 4.2 0.75 2.85 0.0 1.5 -0.4" fill="url(#gradient0)" fill-rule="evenodd" stroke="none"/>
    <path d="M38.55 -14.4 Q37.05 -12.65 35.35 -14.15 33.3 -17.55 36.05 -19.7 L36.85 -20.2 Q38.75 -19.85 39.1 -17.35 L39.15 -16.95 39.1 -16.05 38.55 -14.4 M44.8 -11.75 Q46.4 -11.0 46.45 -9.95 46.4 -8.85 44.8 -8.1 L43.75 -7.7 46.3 -7.85 Q51.3 -7.85 54.75 -5.8 58.3 -3.75 58.3 -0.85 58.3 2.05 54.75 4.15 51.3 6.2 46.3 6.2 41.35 6.2 37.8 4.15 36.95 3.6 36.35 3.05 L34.25 3.4 31.65 2.9 30.6 1.75 Q30.6 1.05 31.65 0.6 32.7 0.1 34.25 0.1 L34.45 0.1 34.35 -0.85 Q34.35 -3.75 37.8 -5.8 39.7 -6.9 42.0 -7.4 L41.0 -7.35 Q38.75 -7.4 37.15 -8.1 L35.9 -9.0 35.65 -9.45 35.55 -9.95 Q35.55 -11.0 37.15 -11.75 38.75 -12.5 41.0 -12.5 43.25 -12.5 44.8 -11.75 M56.05 -16.55 Q54.35 -20.7 57.3 -23.15 58.7 -24.35 60.25 -24.55 67.4 -22.65 62.45 -15.2 58.8 -9.85 56.05 -16.55 M72.1 -15.4 Q80.0 -11.5 75.0 -2.3 74.15 -0.85 72.85 -1.5 70.1 -2.8 70.6 -6.95 67.1 -11.75 71.35 -14.95 L72.1 -15.4" fill="#d6fca0" fill-rule="evenodd" stroke="none"/>
  </g>
  <defs>
    <radialGradient cx="0" cy="0" gradientTransform="matrix(0.0342, 0.0, 0.0, 0.0489, -24.2, -0.85)" gradientUnits="userSpaceOnUse" id="gradient0" r="819.2" spreadMethod="pad">
      <stop offset="0.0" stop-color="#ffffff"/>
      <stop offset="0.9803921568627451" stop-color="#d6fca0"/>
    </radialGradient>
  </defs>
</svg>
