<?xml version="1.0" encoding="UTF-8" standalone="no"?>
<svg xmlns:xlink="http://www.w3.org/1999/xlink" height="46.25px" width="116.55px" xmlns="http://www.w3.org/2000/svg">
  <g transform="matrix(1.0, 0.0, 0.0, 1.0, 33.05, 22.65)">
    <path d="M-18.15 -19.85 L-16.65 -20.0 Q-14.75 -19.85 -12.7 -18.4 L-6.1 -13.2 Q-3.2 -10.9 0.7 -9.55 L2.95 -9.4 2.85 -10.1 Q2.85 -10.9 3.3 -11.6 L3.25 -12.15 Q3.25 -13.65 5.0 -14.75 6.05 -15.4 7.35 -15.65 L9.2 -15.8 Q11.5 -15.8 13.15 -14.9 16.7 -14.75 19.2 -13.5 22.05 -12.1 22.05 -10.1 L21.9 -9.25 22.5 -9.4 Q22.05 -10.0 22.05 -10.75 22.0 -12.35 24.1 -13.4 26.25 -14.5 29.25 -14.5 32.25 -14.5 34.35 -13.4 36.5 -12.35 36.5 -10.75 36.5 -9.2 34.35 -8.1 L34.0 -7.95 Q34.9 -7.95 35.55 -7.05 L36.1 -5.65 Q37.1 -5.45 38.15 -5.65 L36.2 -5.15 36.2 -4.8 Q36.2 -3.5 35.55 -2.55 34.9 -1.65 34.0 -1.65 33.05 -1.65 32.45 -2.55 31.8 -3.5 31.8 -4.8 L31.85 -5.55 31.65 -5.65 30.65 -6.1 Q31.4 -6.7 32.3 -6.8 L32.45 -7.05 32.9 -7.55 29.25 -7.05 Q26.25 -7.05 24.1 -8.1 L23.75 -8.3 22.55 -8.4 21.75 -8.5 21.5 -8.5 20.6 -7.55 20.9 -7.55 Q24.25 -7.55 27.35 -5.9 24.8 -6.2 23.5 -4.75 23.0 -4.35 22.85 -3.9 25.7 -4.8 29.35 -3.75 31.95 -3.2 33.7 -1.3 31.4 -2.45 28.75 -1.0 27.0 -0.3 26.2 0.85 25.8 1.0 25.45 1.3 25.1 1.3 24.95 1.45 L25.25 0.6 25.0 -0.6 Q23.8 -0.15 23.1 1.15 22.25 2.3 20.55 2.75 L23.15 3.25 24.2 3.15 Q25.5 2.45 27.15 2.5 29.3 2.45 30.9 3.65 32.45 4.85 32.45 6.55 32.45 8.15 30.9 9.35 29.3 10.55 27.15 10.6 25.15 10.55 23.7 9.6 L21.8 9.0 19.85 7.85 Q21.6 7.55 21.1 5.95 18.85 1.15 12.6 2.2 10.15 2.35 9.05 3.7 L9.3 3.7 Q11.4 3.7 12.85 5.05 14.35 6.35 14.35 8.2 14.35 10.0 12.85 11.35 11.4 12.65 9.3 12.65 L7.35 12.35 7.1 12.2 4.6 15.2 Q2.9 16.95 0.6 18.1 -1.7 19.1 -4.3 19.3 L-6.35 18.7 -13.35 18.3 -18.15 19.15 -18.55 19.15 -19.4 19.25 -20.0 19.25 Q-25.45 19.2 -29.3 13.65 -33.1 8.25 -33.05 0.55 -33.1 -7.2 -29.3 -12.75 L-27.75 -14.65 -27.95 -15.8 Q-28.0 -16.7 -27.5 -17.35 -27.05 -18.05 -26.4 -18.05 -25.8 -18.05 -25.3 -17.35 L-25.0 -16.8 -23.0 -17.65 Q-20.15 -19.25 -19.4 -19.05 L-19.2 -19.0 -18.55 -19.65 -18.15 -19.75 -18.15 -19.85" fill="url(#gradient0)" fill-rule="evenodd" stroke="none"/>
    <path d="M40.4 -13.65 Q41.5 -14.5 43.1 -14.5 44.65 -14.5 45.75 -13.65 46.8 -12.75 46.85 -11.5 46.8 -10.25 45.75 -9.45 44.65 -8.55 43.1 -8.5 41.5 -8.55 40.4 -9.45 39.3 -10.25 39.3 -11.5 39.3 -12.75 40.4 -13.65 M69.25 -22.4 L69.65 -22.15 70.0 -21.45 70.3 -20.45 70.0 -19.1 69.4 -18.2 Q68.4 -17.75 67.6 -18.55 67.0 -19.2 67.0 -20.25 L67.15 -21.25 67.25 -21.6 67.65 -22.25 68.25 -22.5 68.7 -22.65 69.25 -22.4 M78.5 -17.2 Q78.85 -18.05 79.55 -18.35 L80.25 -18.7 Q85.9 -13.3 81.8 -5.55 L81.65 -5.4 Q80.55 -5.05 79.8 -6.1 79.85 -11.0 78.55 -15.55 78.3 -16.4 78.5 -17.2 M71.15 7.35 Q66.5 8.25 65.5 2.05 57.95 2.95 59.8 -5.05 60.55 -8.35 63.15 -8.25 L65.1 -8.35 Q75.45 -7.8 73.15 4.95 72.75 7.0 71.15 7.35 M49.6 -2.8 Q48.25 -2.0 46.3 -2.0 L44.4 -2.2 44.0 -2.05 42.35 -2.15 Q41.7 -2.6 41.45 -2.45 L42.45 -3.15 Q41.6 -3.8 41.65 -4.7 41.6 -5.9 42.95 -6.7 44.35 -7.45 46.3 -7.45 48.25 -7.45 49.6 -6.7 L50.05 -6.45 50.15 -6.5 50.15 -6.35 Q51.0 -5.65 51.0 -4.7 51.0 -3.55 49.6 -2.8 M43.2 -0.25 Q44.85 -0.25 46.05 0.5 47.25 1.3 47.25 2.5 47.25 3.65 46.05 4.4 44.85 5.2 43.2 5.2 41.5 5.2 40.3 4.4 39.4 3.8 39.2 3.0 L38.65 2.6 39.15 2.45 Q39.15 1.3 40.3 0.5 41.5 -0.25 43.2 -0.25 M41.25 23.6 Q39.85 23.55 38.85 22.15 37.85 20.75 37.9 18.8 37.85 16.8 38.85 15.4 39.85 13.95 41.25 14.0 42.6 13.95 43.6 15.4 44.55 16.8 44.6 18.8 44.55 20.75 43.6 22.15 42.6 23.55 41.25 23.6" fill="#d6fca0" fill-rule="evenodd" stroke="none"/>
  </g>
  <defs>
    <radialGradient cx="0" cy="0" gradientTransform="matrix(0.0342, 0.0, 0.0, 0.0489, -24.2, -0.85)" gradientUnits="userSpaceOnUse" id="gradient0" r="819.2" spreadMethod="pad">
      <stop offset="0.0" stop-color="#ffffff"/>
      <stop offset="0.9803921568627451" stop-color="#d6fca0"/>
    </radialGradient>
  </defs>
</svg>
