<?xml version="1.0" encoding="UTF-8" standalone="no"?>
<svg xmlns:xlink="http://www.w3.org/1999/xlink" height="43.4px" width="124.4px" xmlns="http://www.w3.org/2000/svg">
  <g transform="matrix(1.0, 0.0, 0.0, 1.0, 33.05, 22.9)">
    <path d="M25.2 -10.3 Q24.55 -9.55 23.5 -8.95 21.75 -7.9 19.6 -7.55 20.3 -7.35 21.6 -7.55 23.35 -8.25 25.45 -8.1 27.6 -8.1 29.55 -6.65 30.65 -5.95 32.05 -5.9 L29.35 -5.35 Q27.3 -5.05 25.15 -5.35 22.7 -5.65 20.7 -4.75 19.2 -4.2 17.5 -4.2 L15.9 -4.05 Q17.2 -3.5 19.45 -3.0 21.45 -2.6 23.15 -3.6 24.8 -5.05 27.15 -3.75 L30.25 -3.6 Q32.35 -4.75 34.95 -2.9 L35.65 -2.5 35.4 -3.05 Q35.4 -3.5 35.9 -3.85 L35.75 -3.9 36.1 -3.95 36.25 -4.05 38.4 -4.45 40.55 -4.05 Q41.4 -3.65 41.4 -3.05 41.4 -2.5 40.55 -2.05 L38.4 -1.65 36.85 -1.85 36.75 -1.9 36.65 -1.9 Q35.2 -2.25 33.5 -1.3 31.7 -0.55 29.5 -0.1 30.4 -0.45 29.75 -0.85 28.65 -2.05 26.9 -1.85 24.1 -1.85 23.0 -0.5 24.85 -0.45 26.25 0.15 27.85 0.9 27.9 1.9 27.85 2.9 26.25 3.55 24.7 4.3 22.45 4.3 L19.25 3.8 18.5 3.65 19.3 4.2 Q20.55 4.3 21.5 4.95 22.65 5.7 22.65 6.8 22.65 7.85 21.5 8.6 20.4 9.35 18.8 9.35 17.2 9.35 16.05 8.6 L15.7 8.35 15.7 8.45 14.85 9.8 12.9 12.05 10.05 14.0 10.15 14.55 Q10.15 15.7 8.65 16.55 7.1 17.35 5.05 17.4 2.95 17.35 1.45 16.55 -0.05 15.7 -0.05 14.55 L0.2 13.65 Q-3.05 13.75 -4.7 15.95 L-7.95 19.3 Q-8.35 19.7 -9.5 20.15 L-9.65 20.3 -18.15 19.3 -18.55 19.15 -20.0 19.25 Q-25.45 19.2 -29.3 13.65 -33.1 8.25 -33.05 0.55 -33.1 -7.2 -29.3 -12.75 -26.45 -16.75 -22.75 -17.75 L-22.55 -17.85 -22.65 -18.6 Q-22.65 -19.7 -22.15 -20.45 -21.65 -21.2 -20.85 -21.2 -20.1 -21.2 -19.6 -20.45 L-19.15 -19.4 -18.9 -19.5 -18.0 -20.25 Q-16.35 -21.45 -14.05 -21.45 -11.75 -21.45 -10.1 -20.25 -8.45 -19.1 -8.45 -17.55 -8.45 -16.15 -9.75 -15.05 L-9.5 -14.95 -8.95 -14.5 Q-5.7 -12.45 -1.7 -10.7 2.1 -9.4 6.05 -8.7 8.85 -8.25 10.85 -9.2 11.95 -11.6 12.2 -16.8 L14.85 -17.6 17.35 -17.8 Q20.95 -17.8 23.5 -16.3 26.0 -14.75 26.05 -12.6 26.0 -11.35 25.2 -10.35 L25.2 -10.3 M15.3 -5.5 L14.85 -5.65 Q12.0 -6.55 9.7 -4.65 8.0 -3.6 6.05 -3.0 6.15 -2.75 7.2 -2.45 8.85 -2.15 9.8 -3.2 11.5 -5.95 14.85 -5.55 L15.3 -5.5" fill="url(#gradient0)" fill-rule="evenodd" stroke="none"/>
    <path d="M25.2 -10.35 L25.45 -10.3 25.2 -10.3 25.2 -10.35 M-0.8 -22.15 Q-0.25 -22.9 0.6 -22.9 1.4 -22.9 1.9 -22.15 2.5 -21.35 2.5 -20.2 2.5 -19.05 1.9 -18.3 1.4 -17.45 0.6 -17.45 -0.25 -17.45 -0.8 -18.3 -1.3 -19.05 -1.3 -20.2 -1.3 -21.35 -0.8 -22.15 M30.95 -14.5 Q32.75 -15.5 35.4 -15.45 38.0 -15.5 39.8 -14.5 41.6 -13.4 41.65 -12.0 41.6 -10.6 39.8 -9.6 38.0 -8.5 35.4 -8.5 32.75 -8.5 30.95 -9.6 29.15 -10.6 29.15 -12.0 29.15 -13.4 30.95 -14.5 M46.85 -12.25 Q47.4 -11.45 47.4 -10.25 47.4 -9.1 46.85 -8.25 46.25 -7.45 45.45 -7.45 44.6 -7.45 44.05 -8.25 43.6 -8.95 43.5 -9.85 L43.0 -10.15 43.5 -10.25 Q43.45 -11.45 44.05 -12.25 44.6 -13.1 45.45 -13.05 46.25 -13.1 46.85 -12.25 M81.25 -18.2 Q80.3 -17.75 79.45 -18.55 78.9 -19.2 78.85 -20.25 L79.0 -21.25 79.15 -21.6 79.5 -22.25 80.1 -22.5 80.55 -22.65 81.15 -22.4 81.6 -22.15 81.85 -21.45 82.15 -20.45 Q82.2 -19.7 81.9 -19.1 L81.25 -18.2 M90.95 -12.5 Q87.15 -11.35 86.8 -17.85 86.95 -19.05 87.75 -19.5 L88.35 -19.75 Q90.75 -18.55 91.3 -14.55 L91.35 -14.25 91.25 -13.55 90.95 -12.5 M77.65 -7.2 Q87.8 -2.4 83.75 10.6 83.25 12.3 81.8 11.75 78.35 10.4 79.55 5.55 L78.9 3.0 Q78.45 1.65 77.65 0.65 75.8 0.3 74.3 -1.15 L73.7 -1.9 73.6 -2.75 73.6 -3.95 73.65 -4.4 Q74.5 -6.55 76.25 -6.85 L77.65 -7.2 M56.3 18.1 Q56.3 17.1 56.8 16.4 57.3 15.7 58.0 15.7 58.65 15.7 59.15 16.4 59.65 17.1 59.65 18.1 59.65 19.1 59.15 19.75 58.65 20.5 58.0 20.5 57.3 20.5 56.8 19.75 56.3 19.1 56.3 18.1 M45.85 -1.55 Q44.75 -2.3 44.75 -3.4 L44.85 -4.05 44.35 -4.05 44.95 -4.25 45.85 -5.2 Q46.95 -5.95 48.5 -5.95 50.05 -5.95 51.15 -5.2 52.25 -4.5 52.25 -3.4 52.25 -2.3 51.15 -1.55 50.05 -0.85 48.5 -0.85 46.95 -0.85 45.85 -1.55 M35.3 -5.2 Q38.3 -9.9 41.3 -7.55 39.3 -5.05 36.8 -5.05 L35.3 -5.2 M44.65 -0.85 Q45.55 -0.85 46.2 0.1 46.55 0.6 46.7 1.25 L47.2 1.6 48.0 2.6 46.85 2.55 Q46.75 3.7 46.2 4.55 45.55 5.45 44.65 5.45 43.7 5.45 43.1 4.55 42.45 3.65 42.45 2.3 42.45 1.65 42.6 1.1 L42.5 1.05 42.65 0.95 43.1 0.1 Q43.7 -0.85 44.65 -0.85 M36.7 4.35 L36.6 4.35 37.05 5.95 Q37.05 7.5 35.55 8.6 34.1 9.7 32.05 9.7 29.95 9.7 28.45 8.6 27.5 7.9 27.2 7.0 L26.7 6.85 27.05 6.6 27.0 5.95 27.2 4.9 27.15 4.8 27.35 4.2 Q27.95 3.2 29.1 2.9 30.4 2.2 32.05 2.25 34.1 2.2 35.55 3.3 L36.5 4.25 36.7 4.35" fill="#d6fca0" fill-rule="evenodd" stroke="none"/>
  </g>
  <defs>
    <radialGradient cx="0" cy="0" gradientTransform="matrix(0.0342, 0.0, 0.0, 0.0489, -24.2, -0.85)" gradientUnits="userSpaceOnUse" id="gradient0" r="819.2" spreadMethod="pad">
      <stop offset="0.0" stop-color="#ffffff"/>
      <stop offset="0.9803921568627451" stop-color="#d6fca0"/>
    </radialGradient>
  </defs>
</svg>
