<?xml version="1.0" encoding="UTF-8" standalone="no"?>
<svg xmlns:xlink="http://www.w3.org/1999/xlink" height="45.25px" width="132.0px" xmlns="http://www.w3.org/2000/svg">
  <g transform="matrix(1.0, 0.0, 0.0, 1.0, 33.05, 26.0)">
    <path d="M38.15 -1.15 L38.15 -0.9 Q38.15 0.4 36.65 1.3 35.15 2.2 33.0 2.25 L30.95 2.0 30.45 2.2 Q28.4 2.3 26.45 2.9 L21.5 3.2 21.6 3.3 Q24.05 3.35 25.8 4.4 27.6 5.45 27.65 6.95 27.6 8.45 25.8 9.5 24.0 10.6 21.4 10.6 18.8 10.6 16.95 9.5 L16.9 9.45 16.85 9.6 Q14.15 13.05 8.85 13.5 8.45 11.45 7.25 10.6 4.6 8.55 3.0 10.75 L1.4 12.1 Q-1.2 13.8 -6.9 16.1 -8.8 16.5 -10.7 17.4 -14.2 18.4 -18.15 19.0 L-18.15 19.05 -18.55 19.05 -18.9 19.15 -20.0 19.25 Q-25.45 19.2 -29.3 13.65 -33.1 8.25 -33.05 0.55 -33.1 -7.2 -29.3 -12.75 -28.25 -14.25 -27.0 -15.35 -26.35 -24.45 -18.2 -26.0 -9.65 -26.0 -8.4 -17.4 L-7.05 -16.4 Q-4.8 -14.2 -1.7 -12.75 L1.4 -11.35 1.4 -11.3 -0.65 -11.15 -3.95 -10.9 -2.35 -10.15 1.4 -8.0 3.0 -7.1 Q5.0 -6.1 7.6 -5.5 12.85 -5.05 14.7 -7.95 13.7 -9.0 13.7 -10.35 13.7 -11.4 14.3 -12.3 13.65 -12.9 12.9 -13.05 L15.2 -13.25 15.9 -13.75 Q18.1 -15.15 21.25 -15.15 24.35 -15.15 26.55 -13.75 28.7 -12.35 28.75 -10.35 L28.75 -10.3 Q28.7 -8.35 26.55 -6.95 24.7 -5.8 22.25 -5.6 L21.5 -5.35 19.85 -5.2 Q17.7 -5.1 15.8 -5.8 16.3 -5.1 17.85 -4.65 16.5 -3.9 15.7 -3.2 13.95 -1.9 11.9 -1.45 8.65 -1.0 5.4 -1.45 L8.5 0.45 11.45 0.6 Q14.35 -0.45 17.5 0.0 18.65 -0.15 18.75 -1.3 18.65 -2.75 20.2 -3.0 22.75 -3.9 25.85 -3.45 27.95 -3.2 29.15 -3.9 L31.55 -3.95 33.0 -4.05 Q35.15 -4.05 36.65 -3.15 37.9 -2.4 38.1 -1.35 L38.15 -1.15" fill="url(#gradient0)" fill-rule="evenodd" stroke="none"/>
    <path d="M38.15 -1.15 L38.1 -1.35 38.15 -1.35 39.2 -1.0 38.15 -1.15 M28.75 -10.3 L28.75 -10.35 29.05 -10.4 28.75 -10.3 M1.4 -11.3 L1.4 -11.35 1.5 -11.3 1.4 -11.3 M10.4 -18.3 Q9.7 -18.3 9.2 -19.05 8.7 -19.8 8.7 -20.75 8.7 -21.75 9.2 -22.5 9.7 -23.25 10.4 -23.25 11.1 -23.25 11.65 -22.5 12.15 -21.75 12.15 -20.75 12.15 -19.8 11.65 -19.05 11.1 -18.3 10.4 -18.3 M40.15 -12.8 Q41.45 -12.15 41.45 -11.25 L41.15 -10.45 42.5 -10.3 40.9 -10.2 40.15 -9.75 Q38.8 -9.1 36.95 -9.1 35.1 -9.1 33.75 -9.75 32.4 -10.35 32.45 -11.25 L32.45 -11.3 31.65 -11.15 32.45 -11.55 Q32.65 -12.3 33.75 -12.8 35.1 -13.4 36.95 -13.4 L40.15 -12.8 M96.9 3.05 L94.1 -5.55 Q93.9 -6.4 94.6 -6.55 102.95 1.55 95.2 8.6 L94.65 8.7 94.35 7.8 Q94.15 7.1 94.45 6.55 L96.5 3.8 96.9 3.05 M58.45 -0.1 L57.75 -0.5 Q57.45 -0.9 57.45 -1.5 57.45 -2.1 57.75 -2.5 58.05 -2.9 58.45 -2.9 58.85 -2.9 59.15 -2.5 L59.45 -1.5 59.15 -0.5 Q58.85 -0.1 58.45 -0.1 M73.6 15.65 Q74.0 15.15 74.55 15.15 75.05 15.15 75.4 15.65 75.8 16.2 75.8 16.95 75.8 17.7 75.4 18.2 75.05 18.8 74.55 18.8 74.0 18.8 73.6 18.2 73.25 17.7 73.25 16.95 73.25 16.2 73.6 15.65 M47.6 -3.45 L48.0 -3.35 Q48.55 -4.1 49.3 -4.05 50.05 -4.05 50.6 -3.3 L51.05 -2.4 52.05 -2.05 Q51.55 -1.7 51.15 -1.5 L51.15 -1.4 Q51.15 -0.35 50.6 0.4 L49.85 1.1 50.05 2.4 Q50.05 3.55 49.45 4.4 48.85 5.3 48.05 5.3 47.25 5.3 46.6 4.4 46.0 3.55 46.05 2.4 46.0 1.25 46.6 0.35 L47.6 -0.4 47.45 -1.4 Q47.45 -2.35 47.85 -3.05 L47.6 -3.45 M45.85 -2.55 Q45.85 -2.0 45.0 -1.55 44.15 -1.1 43.0 -1.05 41.85 -1.1 41.0 -1.55 40.15 -2.0 40.2 -2.55 40.2 -3.1 40.9 -3.55 L40.85 -3.6 40.9 -3.55 41.0 -3.65 43.0 -4.05 45.0 -3.65 Q45.85 -3.15 45.85 -2.55 M44.0 -7.85 Q45.0 -7.4 45.0 -6.8 45.0 -6.2 44.0 -5.8 43.0 -5.3 41.65 -5.3 40.25 -5.3 39.25 -5.8 38.25 -6.2 38.3 -6.8 38.25 -7.4 39.25 -7.85 L41.65 -8.25 44.0 -7.85 M40.0 5.8 Q40.0 6.75 38.35 7.45 36.7 8.15 34.35 8.2 L30.3 7.45 Q28.7 6.75 28.7 5.8 28.7 4.8 30.3 4.05 L30.35 4.05 Q30.15 3.85 29.8 4.05 31.65 2.75 34.25 3.35 L34.45 3.4 Q36.75 3.4 38.35 4.05 40.0 4.8 40.0 5.8 M34.4 -6.8 Q35.15 -6.2 36.35 -6.2 33.9 -5.5 31.3 -6.2 L27.95 -6.5 Q30.2 -7.25 32.25 -7.4 33.35 -7.7 34.4 -6.8" fill="#d6fca0" fill-rule="evenodd" stroke="none"/>
  </g>
  <defs>
    <radialGradient cx="0" cy="0" gradientTransform="matrix(0.0342, 0.0, 0.0, 0.0489, -24.2, -0.85)" gradientUnits="userSpaceOnUse" id="gradient0" r="819.2" spreadMethod="pad">
      <stop offset="0.0" stop-color="#ffffff"/>
      <stop offset="0.9803921568627451" stop-color="#d6fca0"/>
    </radialGradient>
  </defs>
</svg>
