<?xml version="1.0" encoding="UTF-8" standalone="no"?>
<svg xmlns:xlink="http://www.w3.org/1999/xlink" height="50.55px" width="144.9px" xmlns="http://www.w3.org/2000/svg">
  <g transform="matrix(1.0, 0.0, 0.0, 1.0, 33.05, 26.2)">
    <path d="M-19.6 -19.05 L-18.55 -19.1 -18.15 -19.1 -17.5 -19.1 -12.35 -19.4 -11.9 -19.5 -11.65 -20.6 Q-10.75 -24.15 -7.95 -25.65 -6.5 -26.4 -5.05 -26.15 -0.15 -22.55 -0.55 -17.5 2.75 -17.3 5.15 -15.95 L5.25 -15.9 Q8.1 -14.25 8.1 -11.85 8.1 -9.45 5.25 -7.8 L5.15 -7.7 4.2 -7.2 5.15 -7.05 Q7.65 -6.85 9.6 -7.8 13.4 -6.0 16.35 -6.5 14.5 -7.9 14.5 -9.75 14.5 -12.0 17.2 -13.55 19.85 -15.15 23.6 -15.15 27.35 -15.15 30.0 -13.55 31.85 -12.5 32.45 -11.05 L33.85 -12.15 Q35.9 -13.35 38.8 -13.3 41.7 -13.35 43.7 -12.15 45.8 -11.0 45.8 -9.45 45.8 -7.9 43.7 -6.7 41.7 -5.55 38.8 -5.55 35.9 -5.55 33.85 -6.7 L32.25 -8.05 Q31.6 -6.9 30.0 -5.95 L29.2 -5.55 31.25 -4.45 Q32.8 -3.6 34.75 -3.45 L37.8 -3.3 34.85 -2.9 34.2 -2.75 Q30.4 -2.2 26.9 -0.85 25.0 -0.45 23.1 -0.85 L19.45 -1.85 Q18.5 -2.15 18.3 -1.3 16.65 0.6 13.95 0.45 17.35 1.75 20.0 1.05 21.2 0.15 22.75 0.85 26.3 1.75 29.15 0.15 29.95 -0.55 31.25 -0.4 L34.95 -0.6 Q35.45 -0.9 36.35 -0.3 L37.15 0.1 39.55 -0.25 Q41.35 -0.25 42.6 0.35 43.95 0.9 43.95 1.75 43.95 2.55 42.6 3.15 41.35 3.7 39.55 3.7 37.75 3.7 36.45 3.15 35.15 2.55 35.15 1.75 L34.05 1.9 Q31.85 1.9 30.2 2.8 L30.25 2.8 Q31.8 2.25 33.2 3.1 35.55 3.45 37.55 4.15 41.7 5.6 41.7 7.7 41.7 9.75 37.55 11.15 33.4 12.65 27.6 12.65 22.95 12.65 19.4 11.75 L19.6 12.9 Q19.6 15.05 16.85 16.55 14.1 18.0 10.2 18.05 L5.15 17.3 3.5 16.55 2.9 16.2 Q2.5 17.5 1.15 19.2 L0.05 20.25 Q-10.25 28.35 -19.85 20.5 -20.5 20.0 -20.5 19.25 -25.6 18.95 -29.3 13.65 -33.1 8.25 -33.05 0.55 -33.1 -7.2 -29.3 -12.75 -26.4 -16.85 -22.55 -17.85 -21.4 -18.75 -19.6 -19.05" fill="url(#gradient0)" fill-rule="evenodd" stroke="none"/>
    <path d="M110.65 -1.0 L111.05 -0.6 Q111.9 1.3 111.85 3.65 L111.65 5.3 Q109.85 8.9 107.55 6.3 107.4 5.05 108.0 4.15 L108.65 2.9 Q107.95 0.5 108.85 -1.15 109.15 -1.65 109.5 -1.75 L110.65 -1.0 M75.55 5.4 L74.6 6.05 Q74.0 6.05 73.55 5.4 73.1 4.8 73.15 3.95 73.1 3.15 73.55 2.5 74.0 1.9 74.6 1.9 75.15 1.9 75.55 2.5 76.0 3.15 76.05 3.95 76.0 4.8 75.55 5.4 M62.4 -0.5 Q63.45 -0.5 64.25 0.6 65.0 1.65 65.0 3.25 65.0 4.8 64.25 5.85 63.45 6.95 62.4 6.95 61.3 6.95 60.55 5.85 59.75 4.8 59.8 3.25 59.75 1.65 60.55 0.6 61.3 -0.5 62.4 -0.5" fill="#d6fca0" fill-rule="evenodd" stroke="none"/>
  </g>
  <defs>
    <radialGradient cx="0" cy="0" gradientTransform="matrix(0.0342, 0.0, 0.0, 0.0489, -24.2, -0.85)" gradientUnits="userSpaceOnUse" id="gradient0" r="819.2" spreadMethod="pad">
      <stop offset="0.0" stop-color="#ffffff"/>
      <stop offset="0.9803921568627451" stop-color="#d6fca0"/>
    </radialGradient>
  </defs>
</svg>
