<?xml version="1.0" encoding="UTF-8" standalone="no"?>
<svg xmlns:xlink="http://www.w3.org/1999/xlink" height="49.1px" width="539.7px" xmlns="http://www.w3.org/2000/svg">
  <g transform="matrix(1.0, 0.0, 0.0, 1.0, 269.85, 23.1)">
    <path d="M10.15 -5.3 L10.15 -5.25 Q10.1 -2.6 15.25 -0.75 20.4 1.1 27.65 1.1 34.95 1.15 40.05 -0.65 45.2 -2.45 45.2 -5.1 45.2 -5.95 44.7 -6.7 L57.95 -7.85 60.7 -10.45 63.4 -13.15 Q70.65 -20.45 80.8 -20.05 L92.35 -19.6 108.85 -4.5 111.1 -4.05 112.4 -4.55 113.55 -5.05 Q118.05 -7.15 122.7 -6.6 L147.65 -4.8 Q147.15 -3.8 147.15 -2.65 147.1 -0.75 148.55 0.85 L139.85 -0.2 113.7 -0.2 117.35 4.3 121.95 4.7 Q138.65 5.6 155.1 4.15 L158.45 4.45 Q163.15 4.5 166.45 2.4 169.4 0.6 169.75 -1.9 172.6 -2.65 175.3 -3.75 182.35 -6.45 189.4 -9.6 L189.2 -7.45 189.4 -7.15 Q189.6 -6.8 189.95 -6.6 194.65 -4.0 200.0 -4.05 208.5 -3.4 217.0 -4.05 L221.3 -4.35 269.85 -6.25 269.85 3.9 222.8 2.05 Q207.85 0.95 192.9 1.2 L166.25 2.95 167.6 5.9 167.3 6.2 166.85 6.4 165.6 6.7 162.65 6.8 158.35 6.3 156.8 7.0 155.05 7.55 Q147.7 9.4 139.95 9.55 L123.0 8.8 119.75 8.35 121.05 9.7 122.35 10.85 Q126.0 13.65 130.65 13.8 132.95 13.3 135.05 14.4 L135.55 14.9 135.55 15.05 134.15 15.45 Q127.35 15.85 121.4 12.25 118.6 10.6 116.3 8.0 L111.2 7.45 106.0 6.75 104.1 6.45 Q104.05 4.25 102.7 2.65 L113.35 3.9 111.25 -0.2 89.35 -0.2 94.55 1.05 Q93.85 1.45 93.2 2.1 92.2 3.1 91.75 4.35 L84.45 3.1 Q85.45 1.4 85.45 -0.7 85.5 -3.85 83.2 -6.1 81.9 -7.4 80.35 -7.95 L81.0 -7.9 102.55 -5.65 107.35 -4.8 Q102.8 -7.55 98.8 -10.9 95.0 -14.05 91.85 -17.7 84.15 -18.2 76.5 -16.45 70.5 -15.25 65.4 -12.1 62.9 -10.5 60.85 -8.25 68.55 -8.65 76.15 -8.2 74.05 -7.8 72.4 -6.15 70.15 -3.9 70.1 -0.7 L70.25 0.8 Q65.95 0.4 61.55 0.7 55.0 1.0 48.75 2.4 45.45 3.2 42.4 4.95 L40.25 6.0 Q32.0 9.7 23.7 13.7 18.6 16.15 13.8 19.75 L8.5 23.5 7.15 24.4 Q2.3 26.95 -2.75 25.45 -8.55 23.75 -12.8 19.45 L-15.9 17.0 -19.35 15.15 -18.9 14.45 Q-14.3 16.05 -10.2 18.7 L-3.55 23.05 Q-0.35 25.05 3.25 23.95 7.85 22.45 12.1 19.9 17.65 16.7 22.6 12.5 24.9 10.6 27.6 9.25 30.8 7.8 34.15 6.6 39.7 4.55 44.8 1.5 L42.0 2.0 Q36.65 4.0 31.35 4.6 L29.7 4.7 33.4 3.75 33.85 3.55 31.85 1.9 4.2 2.1 -0.9 4.5 6.75 4.85 13.95 5.05 Q0.55 5.15 -12.85 4.55 L-19.45 4.25 -20.45 3.1 Q-23.2 0.35 -27.1 0.3 -29.25 0.3 -31.0 1.15 L-40.3 -0.6 -44.9 -0.45 -44.05 2.0 -32.55 2.0 -33.8 3.05 -34.3 3.6 -43.7 3.2 -42.95 5.05 -42.1 6.65 Q-40.4 9.6 -37.25 11.3 L-36.45 11.7 -36.2 12.75 Q-37.8 12.45 -39.1 11.5 L-41.85 8.75 Q-43.9 6.2 -45.15 3.2 L-58.95 3.75 -68.15 4.2 Q-67.0 3.2 -66.55 2.1 L-62.2 2.4 -66.3 0.4 Q-66.5 -1.95 -69.45 -3.7 -72.6 -5.55 -77.05 -5.6 -81.5 -5.6 -84.7 -3.8 -87.9 -1.95 -87.9 0.6 -87.9 1.6 -87.4 2.55 L-95.35 1.15 Q-96.6 2.3 -98.05 3.0 L-102.35 4.65 Q-115.95 7.9 -129.9 9.0 L-107.6 1.55 -137.6 2.2 -137.2 1.15 -137.4 0.9 -137.65 0.65 Q-138.55 0.0 -139.45 -0.2 L-143.4 -0.8 -143.55 -0.85 Q-147.65 -2.45 -153.55 -2.5 -158.6 -2.5 -162.35 -1.35 L-176.35 -1.3 -179.1 -1.1 Q-179.75 -2.7 -181.05 -4.0 -183.65 -6.65 -187.35 -6.65 -191.05 -6.65 -193.7 -4.05 -195.55 -2.2 -196.1 0.25 L-202.8 0.75 -206.2 3.6 Q-201.1 6.5 -195.95 4.75 L-195.15 6.75 -209.25 5.55 -212.3 6.5 -193.9 13.85 Q-190.1 15.4 -186.9 17.55 -184.25 19.3 -181.25 20.9 L-179.25 21.1 Q-176.85 20.4 -174.6 19.25 -169.7 16.8 -165.35 13.25 -162.15 10.7 -159.3 7.75 L-158.25 7.9 -160.25 10.15 Q-165.35 15.9 -172.25 19.25 L-175.7 20.9 Q-179.5 22.7 -183.5 21.95 L-185.4 21.5 Q-187.9 20.2 -190.0 18.55 -192.6 16.55 -195.35 14.8 -196.8 13.95 -198.3 13.25 -206.45 9.7 -214.8 7.1 L-218.0 7.7 -221.3 7.95 Q-229.2 8.1 -236.75 6.2 L-237.75 5.95 Q-242.75 4.6 -248.0 4.65 L-262.55 5.3 -269.85 5.8 -269.85 -5.05 -177.45 -7.35 -149.9 -5.35 -149.25 -5.75 -148.1 -6.15 Q-142.1 -6.9 -136.25 -8.2 -130.65 -9.45 -125.6 -12.0 L-122.9 -12.85 Q-118.65 -13.95 -114.9 -16.3 -110.75 -18.8 -107.55 -22.2 L-103.4 -22.65 -99.3 -22.95 Q-89.45 -23.8 -80.25 -20.15 L-69.95 -16.25 Q-66.55 -15.0 -63.9 -12.6 L-58.7 -8.1 Q-47.45 -8.55 -36.2 -8.05 L-23.4 -7.2 Q-21.05 -6.7 -18.6 -7.15 -2.6 -9.45 13.65 -9.0 12.15 -8.3 11.3 -7.5 L1.45 -7.8 -19.05 -5.3 -6.25 -3.05 -5.45 -3.0 -4.5 -3.25 Q-1.5 -4.3 1.3 -5.95 L10.15 -5.3 M-106.65 -21.1 Q-110.25 -17.05 -114.75 -14.3 -123.7 -8.9 -133.95 -7.25 -97.5 -6.65 -61.05 -8.0 -67.2 -11.6 -72.65 -16.05 -73.55 -16.75 -74.6 -17.05 -90.2 -21.8 -106.65 -21.1 M-128.65 -6.7 Q-135.05 -7.0 -140.85 -4.75 L-108.05 -5.5 -121.4 -6.0 -128.65 -6.7 M-45.7 2.0 L-46.6 -0.4 -62.25 0.1 -56.4 2.0 -45.7 2.0 M-219.45 3.85 L-221.5 2.15 -234.6 3.15 -219.45 3.85 M-217.0 3.4 L-212.85 4.15 -205.2 0.9 -220.3 2.05 Q-218.75 3.0 -217.0 3.4" fill="url(#gradient0)" fill-rule="evenodd" stroke="none"/>
    <path d="M-143.4 -0.8 Q-139.4 0.8 -139.4 2.95 -139.4 5.15 -143.55 6.7 -147.65 8.25 -153.55 8.2 L-158.25 7.9 -159.3 7.75 -163.55 6.6 Q-167.7 5.05 -167.7 2.85 -167.7 0.65 -163.55 -0.95 L-162.35 -1.35 Q-158.6 -2.5 -153.55 -2.5 -147.65 -2.45 -143.55 -0.85 L-143.4 -0.8" fill="url(#gradient1)" fill-rule="evenodd" stroke="none"/>
    <path d="M-179.1 -1.1 Q-178.45 0.5 -178.45 2.35 -178.45 6.05 -181.1 8.6 -183.75 11.2 -187.45 11.2 -191.15 11.2 -193.75 8.55 L-195.15 6.75 -195.95 4.75 -196.3 2.25 -196.1 0.25 Q-195.55 -2.2 -193.7 -4.05 -191.05 -6.65 -187.35 -6.65 -183.65 -6.65 -181.05 -4.0 -179.75 -2.7 -179.1 -1.1" fill="url(#gradient2)" fill-rule="evenodd" stroke="none"/>
    <path d="M-68.15 4.2 L-69.5 5.05 Q-72.65 6.9 -77.1 6.85 -81.55 6.85 -84.75 5.0 -86.65 3.9 -87.4 2.55 -87.9 1.6 -87.9 0.6 -87.9 -1.95 -84.7 -3.8 -81.5 -5.6 -77.05 -5.6 -72.6 -5.55 -69.45 -3.7 -66.5 -1.95 -66.3 0.4 L-66.3 0.7 Q-66.3 1.45 -66.55 2.1 -67.0 3.2 -68.15 4.2" fill="url(#gradient3)" fill-rule="evenodd" stroke="none"/>
    <path d="M-19.35 15.15 L-20.5 16.5 Q-23.25 19.3 -27.15 19.25 -31.05 19.25 -33.85 16.45 -35.55 14.8 -36.2 12.75 L-36.45 11.7 -36.65 9.75 Q-36.6 6.25 -34.3 3.6 L-33.8 3.05 -32.55 2.0 -31.0 1.15 Q-29.25 0.3 -27.1 0.3 -23.2 0.35 -20.45 3.1 L-19.45 4.25 Q-17.65 6.65 -17.7 9.8 -17.7 12.4 -18.9 14.45 L-19.35 15.15" fill="url(#gradient4)" fill-rule="evenodd" stroke="none"/>
    <path d="M44.7 -6.7 Q45.2 -5.95 45.2 -5.1 45.2 -2.45 40.05 -0.65 34.95 1.15 27.65 1.1 20.4 1.1 15.25 -0.75 10.1 -2.6 10.15 -5.25 L10.15 -5.3 Q10.2 -6.5 11.3 -7.5 12.15 -8.3 13.65 -9.0 L15.3 -9.65 Q20.45 -11.45 27.7 -11.45 35.0 -11.4 40.1 -9.55 43.6 -8.3 44.7 -6.7" fill="url(#gradient5)" fill-rule="evenodd" stroke="none"/>
    <path d="M104.1 6.45 L104.1 6.65 Q104.1 9.3 102.2 11.1 100.35 12.95 97.65 12.95 95.0 12.95 93.15 11.1 91.35 9.25 91.35 6.6 91.35 5.4 91.75 4.35 92.2 3.1 93.2 2.1 93.85 1.45 94.55 1.05 95.95 0.25 97.7 0.25 100.4 0.25 102.25 2.1 L102.7 2.65 Q104.05 4.25 104.1 6.45" fill="url(#gradient6)" fill-rule="evenodd" stroke="none"/>
    <path d="M84.45 3.1 L83.15 4.75 Q80.9 7.0 77.75 6.95 74.6 6.95 72.35 4.7 70.65 3.0 70.25 0.8 L70.1 -0.7 Q70.15 -3.9 72.4 -6.15 74.05 -7.8 76.15 -8.2 L77.8 -8.4 80.35 -7.95 Q81.9 -7.4 83.2 -6.1 85.5 -3.85 85.45 -0.7 85.45 1.4 84.45 3.1" fill="url(#gradient7)" fill-rule="evenodd" stroke="none"/>
    <path d="M147.65 -4.8 Q148.45 -6.4 150.45 -7.65 153.8 -9.7 158.5 -9.7 163.2 -9.65 166.5 -7.6 169.85 -5.5 169.8 -2.6 L169.75 -1.9 Q169.4 0.6 166.45 2.4 163.15 4.5 158.45 4.45 L155.1 4.15 Q152.5 3.65 150.4 2.35 L148.55 0.85 Q147.1 -0.75 147.15 -2.65 147.15 -3.8 147.65 -4.8" fill="url(#gradient8)" fill-rule="evenodd" stroke="none"/>
  </g>
  <defs>
    <radialGradient cx="0" cy="0" gradientTransform="matrix(0.0342, 0.0, 0.0, 0.0489, -24.2, -0.85)" gradientUnits="userSpaceOnUse" id="gradient0" r="819.2" spreadMethod="pad">
      <stop offset="0.0" stop-color="#ffffff"/>
      <stop offset="0.9803921568627451" stop-color="#d6fca0"/>
    </radialGradient>
    <radialGradient cx="0" cy="0" gradientTransform="matrix(0.0173, 0.0, 0.0, 0.0173, -153.55, 2.85)" gradientUnits="userSpaceOnUse" id="gradient1" r="819.2" spreadMethod="pad">
      <stop offset="0.0" stop-color="#ffffff"/>
      <stop offset="0.9803921568627451" stop-color="#d6fca0"/>
    </radialGradient>
    <radialGradient cx="0" cy="0" gradientTransform="matrix(0.0109, 0.0, 0.0, 0.0109, -187.4, 2.25)" gradientUnits="userSpaceOnUse" id="gradient2" r="819.2" spreadMethod="pad">
      <stop offset="0.0" stop-color="#ffffff"/>
      <stop offset="0.9803921568627451" stop-color="#d6fca0"/>
    </radialGradient>
    <radialGradient cx="0" cy="0" gradientTransform="matrix(0.0134, 0.0, 0.0, 0.0134, -77.1, 0.6)" gradientUnits="userSpaceOnUse" id="gradient3" r="819.2" spreadMethod="pad">
      <stop offset="0.0" stop-color="#ffffff"/>
      <stop offset="0.9803921568627451" stop-color="#d6fca0"/>
    </radialGradient>
    <radialGradient cx="0" cy="0" gradientTransform="matrix(0.0117, 0.0, 0.0, 0.0117, -27.2, 9.75)" gradientUnits="userSpaceOnUse" id="gradient4" r="819.2" spreadMethod="pad">
      <stop offset="0.0" stop-color="#ffffff"/>
      <stop offset="0.9803921568627451" stop-color="#d6fca0"/>
    </radialGradient>
    <radialGradient cx="0" cy="0" gradientTransform="matrix(0.022, 0.0, 0.0, 0.022, 27.65, -5.2)" gradientUnits="userSpaceOnUse" id="gradient5" r="819.2" spreadMethod="pad">
      <stop offset="0.0" stop-color="#ffffff"/>
      <stop offset="0.9803921568627451" stop-color="#d6fca0"/>
    </radialGradient>
    <radialGradient cx="0" cy="0" gradientTransform="matrix(0.0087, 0.0, 0.0, 0.0087, 97.7, 6.6)" gradientUnits="userSpaceOnUse" id="gradient6" r="819.2" spreadMethod="pad">
      <stop offset="0.0" stop-color="#ffffff"/>
      <stop offset="0.9803921568627451" stop-color="#d6fca0"/>
    </radialGradient>
    <radialGradient cx="0" cy="0" gradientTransform="matrix(0.0103, 0.0, 0.0, 0.0103, 77.75, -0.75)" gradientUnits="userSpaceOnUse" id="gradient7" r="819.2" spreadMethod="pad">
      <stop offset="0.0" stop-color="#ffffff"/>
      <stop offset="0.9803921568627451" stop-color="#d6fca0"/>
    </radialGradient>
    <radialGradient cx="0" cy="0" gradientTransform="matrix(0.0142, 0.0, 0.0, 0.0142, 158.45, -2.65)" gradientUnits="userSpaceOnUse" id="gradient8" r="819.2" spreadMethod="pad">
      <stop offset="0.0" stop-color="#ffffff"/>
      <stop offset="0.9803921568627451" stop-color="#d6fca0"/>
    </radialGradient>
  </defs>
</svg>
