<?xml version="1.0" encoding="UTF-8" standalone="no"?>
<svg xmlns:xlink="http://www.w3.org/1999/xlink" height="39.75px" width="539.7px" xmlns="http://www.w3.org/2000/svg">
  <g transform="matrix(1.0, 0.0, 0.0, 1.0, 269.85, 22.3)">
    <path d="M49.85 -2.0 L26.35 -2.0 33.35 -0.65 48.6 0.45 48.6 0.6 Q48.6 3.2 52.75 5.05 56.9 6.9 62.75 6.9 68.65 6.95 72.75 5.1 76.9 3.3 76.9 0.7 76.9 -1.7 73.5 -3.4 L74.65 -3.4 72.3 -3.95 70.7 -4.55 72.4 -4.5 Q84.0 -3.4 95.35 -1.15 L97.8 -3.5 111.05 -6.35 Q120.35 -8.25 129.95 -9.0 L107.6 -1.55 138.1 -2.5 137.35 -1.0 Q138.1 -0.2 139.1 0.15 142.2 1.05 145.65 1.15 L147.0 1.25 160.8 2.25 Q171.85 3.15 181.85 -0.35 182.85 0.55 184.45 1.3 188.95 3.5 195.25 3.5 201.6 3.55 206.05 1.4 208.55 0.25 209.65 -1.2 L234.65 -3.1 218.4 -3.85 Q214.35 -4.0 210.45 -2.8 L210.55 -3.8 Q210.55 -4.85 210.05 -5.75 215.45 -7.55 221.15 -7.6 231.9 -7.05 242.65 -5.5 256.15 -3.85 269.85 -5.8 L269.85 5.1 177.45 7.35 149.7 5.65 Q139.65 7.9 129.3 7.85 L128.85 7.3 127.45 6.35 128.25 6.35 143.1 5.55 144.65 5.0 108.1 5.55 115.7 5.95 124.2 6.25 Q123.35 6.55 122.65 7.25 L122.3 7.65 99.6 7.15 Q104.0 10.85 109.25 12.75 117.25 15.7 125.55 14.8 L125.7 14.8 127.2 14.6 Q130.8 14.0 134.5 12.7 L135.95 11.05 137.1 11.0 136.35 14.55 Q128.15 17.75 119.3 17.4 105.25 16.45 94.4 7.15 L82.65 7.15 36.15 9.05 Q24.8 5.2 13.3 7.05 L6.5 8.05 6.85 7.35 14.45 6.3 19.05 5.3 Q12.95 2.55 7.1 2.6 6.55 0.45 4.95 -1.2 2.65 -3.55 -0.75 -3.6 -4.1 -3.6 -6.5 -1.25 -8.85 1.15 -8.85 4.5 L-8.8 5.4 -10.6 5.3 -13.55 7.75 -8.1 7.95 -7.5 9.0 -14.95 8.9 -17.5 11.05 Q-20.95 13.9 -25.3 13.15 -39.55 10.25 -54.1 13.4 -67.9 16.55 -78.15 8.15 -90.55 7.7 -102.65 5.7 -102.9 2.55 -105.2 0.25 L-98.85 0.25 -103.05 -2.55 -119.8 -4.3 Q-132.85 -5.15 -146.0 -5.05 -153.3 -5.0 -160.25 -3.35 L-162.8 -2.55 -139.85 0.25 -117.55 0.25 Q-120.15 2.85 -120.15 6.4 L-120.05 7.9 -123.4 8.5 -161.15 3.2 -160.45 2.05 -160.55 1.2 Q-175.4 2.4 -189.4 9.6 -189.1 8.7 -189.6 8.25 -196.45 2.45 -206.75 3.9 -216.4 10.3 -227.15 10.05 L-226.5 8.85 Q-220.6 8.8 -214.55 6.3 L-209.25 3.9 -226.25 4.6 Q-226.65 3.05 -227.85 1.85 -229.7 0.0 -232.4 0.0 -235.05 0.0 -236.9 1.8 -238.3 3.2 -238.65 5.1 L-240.85 5.15 -238.75 6.2 -238.75 6.3 -238.6 7.9 Q-241.1 6.85 -243.35 5.25 L-269.85 6.3 -269.85 -3.85 -222.8 -2.0 -211.25 -1.15 -211.15 -1.1 Q-208.15 0.65 -203.95 0.65 -200.65 0.7 -198.15 -0.35 -190.75 -0.35 -183.5 -1.8 -175.0 -3.5 -166.25 -2.95 L-167.45 -5.75 Q-163.8 -7.3 -159.9 -7.75 L-136.75 -9.0 -108.6 -7.1 Q-115.65 -12.0 -124.2 -13.15 -133.95 -14.3 -141.8 -20.6 -153.3 -14.8 -165.95 -12.75 -170.95 -11.95 -175.55 -10.3 -185.1 -6.85 -194.65 -2.75 L-194.3 -3.25 Q-191.8 -4.6 -189.55 -6.3 -180.55 -13.15 -169.75 -14.55 L-162.65 -15.55 Q-152.05 -15.9 -143.55 -22.3 L-135.2 -18.7 Q-131.1 -16.85 -126.8 -15.65 -114.4 -11.95 -102.8 -6.2 L-79.6 -1.65 Q-79.25 1.0 -77.25 3.0 -74.8 5.45 -71.35 5.45 -67.9 5.5 -65.45 3.05 -64.15 1.8 -63.55 0.25 L-62.25 0.25 Q-47.6 0.0 -34.05 -5.3 L-31.45 -6.45 3.15 -5.85 7.6 -8.2 17.65 -13.5 19.45 -14.95 Q29.5 -11.35 39.65 -8.35 47.55 -6.1 55.7 -4.85 54.15 -4.45 52.75 -3.85 50.85 -3.0 49.85 -2.0 M5.15 -5.85 L19.85 -3.2 51.3 -3.2 41.8 -5.5 Q31.25 -7.95 21.6 -12.6 L5.15 -5.85 M76.65 -2.85 L77.05 -1.9 84.1 -0.75 84.9 -0.75 76.65 -2.85 M-31.85 -1.85 L-25.05 -1.95 -18.2 -2.05 Q-8.45 -2.15 0.95 -4.5 L-4.15 -4.65 Q-19.1 -5.9 -33.6 -3.6 L-33.75 -3.2 -31.85 -1.85 M-17.3 8.85 L-19.15 8.45 Q-33.75 5.7 -48.6 7.05 L-75.05 8.3 Q-66.25 14.5 -55.7 12.2 -51.15 11.25 -46.45 11.2 -31.45 11.1 -17.3 8.85 M-12.4 5.2 L-23.75 4.35 -21.3 5.8 Q-18.75 7.35 -15.7 7.65 L-12.4 5.2 M-89.3 0.25 L-95.1 -1.1 -93.25 0.25 -89.3 0.25" fill="url(#gradient0)" fill-rule="evenodd" stroke="none"/>
    <path d="M210.05 -5.75 Q210.55 -4.85 210.55 -3.8 L210.45 -2.8 209.65 -1.2 Q208.55 0.25 206.05 1.4 201.6 3.55 195.25 3.5 188.95 3.5 184.45 1.3 182.85 0.55 181.85 -0.35 179.95 -1.95 180.0 -3.95 180.0 -7.0 184.5 -9.15 189.0 -11.25 195.3 -11.25 201.65 -11.2 206.1 -9.05 209.05 -7.6 210.05 -5.75" fill="url(#gradient1)" fill-rule="evenodd" stroke="none"/>
    <path d="M127.2 14.6 L125.7 14.8 125.55 14.8 Q123.85 14.75 122.6 13.45 121.3 12.15 121.3 10.35 121.35 8.8 122.3 7.65 L122.65 7.25 Q123.35 6.55 124.2 6.25 124.95 5.95 125.75 5.95 L127.45 6.35 128.85 7.3 129.3 7.85 Q130.15 8.95 130.1 10.4 130.1 12.2 128.8 13.5 128.05 14.25 127.2 14.6" fill="url(#gradient2)" fill-rule="evenodd" stroke="none"/>
    <path d="M-7.5 9.0 L-8.1 7.95 Q-8.65 6.75 -8.8 5.4 L-8.85 4.5 Q-8.85 1.15 -6.5 -1.25 -4.1 -3.6 -0.75 -3.6 2.65 -3.55 4.95 -1.2 6.55 0.45 7.1 2.6 L7.3 4.55 Q7.3 6.05 6.85 7.35 L6.5 8.05 Q5.95 9.25 4.9 10.25 2.55 12.6 -0.85 12.55 -4.2 12.55 -6.55 10.2 L-7.5 9.0" fill="url(#gradient3)" fill-rule="evenodd" stroke="none"/>
    <path d="M49.85 -2.0 Q50.85 -3.0 52.75 -3.85 54.15 -4.45 55.7 -4.85 58.9 -5.65 62.8 -5.65 67.25 -5.6 70.7 -4.55 L72.3 -3.95 72.8 -3.75 73.5 -3.4 Q76.9 -1.7 76.9 0.7 76.9 3.3 72.75 5.1 68.65 6.95 62.75 6.9 56.9 6.9 52.75 5.05 48.6 3.2 48.6 0.6 L48.6 0.45 Q48.7 -0.9 49.85 -2.0" fill="url(#gradient4)" fill-rule="evenodd" stroke="none"/>
    <path d="M-63.55 0.25 Q-64.15 1.8 -65.45 3.05 -67.9 5.5 -71.35 5.45 -74.8 5.45 -77.25 3.0 -79.25 1.0 -79.6 -1.65 L-79.7 -2.9 Q-79.65 -6.4 -77.2 -8.85 -74.75 -11.3 -71.3 -11.3 -67.85 -11.25 -65.4 -8.8 -62.9 -6.35 -62.95 -2.9 -62.95 -1.2 -63.55 0.25" fill="url(#gradient5)" fill-rule="evenodd" stroke="none"/>
    <path d="M-120.05 7.9 L-120.15 6.4 Q-120.15 2.85 -117.55 0.25 L-117.55 0.2 Q-114.95 -2.35 -111.35 -2.35 -107.75 -2.3 -105.2 0.25 -102.9 2.55 -102.65 5.7 L-102.65 6.45 Q-102.65 10.05 -105.25 12.65 -107.8 15.25 -111.4 15.2 -115.0 15.2 -117.6 12.6 -119.65 10.55 -120.05 7.9" fill="url(#gradient6)" fill-rule="evenodd" stroke="none"/>
    <path d="M-194.3 -3.25 L-194.65 -2.75 -196.75 -1.05 Q-197.4 -0.65 -198.15 -0.35 -200.65 0.7 -203.95 0.65 -208.15 0.65 -211.15 -1.1 L-211.25 -1.15 Q-214.1 -2.9 -214.05 -5.35 -214.05 -7.8 -211.1 -9.55 -208.1 -11.3 -203.9 -11.3 -199.65 -11.25 -196.7 -9.5 -193.7 -7.75 -193.75 -5.3 -193.75 -4.2 -194.3 -3.25" fill="url(#gradient7)" fill-rule="evenodd" stroke="none"/>
    <path d="M-238.6 7.9 L-238.75 6.3 -238.75 6.2 -238.65 5.1 Q-238.3 3.2 -236.9 1.8 -235.05 0.0 -232.4 0.0 -229.7 0.0 -227.85 1.85 -226.65 3.05 -226.25 4.6 L-226.05 6.4 Q-226.05 7.7 -226.5 8.85 L-227.15 10.05 -227.9 10.9 Q-229.75 12.75 -232.45 12.75 -235.1 12.75 -236.95 10.85 -238.2 9.55 -238.6 7.9" fill="url(#gradient8)" fill-rule="evenodd" stroke="none"/>
  </g>
  <defs>
    <radialGradient cx="0" cy="0" gradientTransform="matrix(0.0342, 0.0, 0.0, 0.0489, -24.2, -0.85)" gradientUnits="userSpaceOnUse" id="gradient0" r="819.2" spreadMethod="pad">
      <stop offset="0.0" stop-color="#ffffff"/>
      <stop offset="0.9803921568627451" stop-color="#d6fca0"/>
    </radialGradient>
    <radialGradient cx="0" cy="0" gradientTransform="matrix(0.0187, 0.0, 0.0, 0.0187, 195.25, -3.9)" gradientUnits="userSpaceOnUse" id="gradient1" r="819.2" spreadMethod="pad">
      <stop offset="0.0" stop-color="#ffffff"/>
      <stop offset="0.9803921568627451" stop-color="#d6fca0"/>
    </radialGradient>
    <radialGradient cx="0" cy="0" gradientTransform="matrix(0.0057, 0.0, 0.0, 0.0057, 125.7, 10.35)" gradientUnits="userSpaceOnUse" id="gradient2" r="819.2" spreadMethod="pad">
      <stop offset="0.0" stop-color="#ffffff"/>
      <stop offset="0.9803921568627451" stop-color="#d6fca0"/>
    </radialGradient>
    <radialGradient cx="0" cy="0" gradientTransform="matrix(0.0109, 0.0, 0.0, 0.0109, -0.8, 4.45)" gradientUnits="userSpaceOnUse" id="gradient3" r="819.2" spreadMethod="pad">
      <stop offset="0.0" stop-color="#ffffff"/>
      <stop offset="0.9803921568627451" stop-color="#d6fca0"/>
    </radialGradient>
    <radialGradient cx="0" cy="0" gradientTransform="matrix(0.0173, 0.0, 0.0, 0.0173, 62.75, 0.6)" gradientUnits="userSpaceOnUse" id="gradient4" r="819.2" spreadMethod="pad">
      <stop offset="0.0" stop-color="#ffffff"/>
      <stop offset="0.9803921568627451" stop-color="#d6fca0"/>
    </radialGradient>
    <radialGradient cx="0" cy="0" gradientTransform="matrix(0.0103, 0.0, 0.0, 0.0103, -71.35, -2.95)" gradientUnits="userSpaceOnUse" id="gradient5" r="819.2" spreadMethod="pad">
      <stop offset="0.0" stop-color="#ffffff"/>
      <stop offset="0.9803921568627451" stop-color="#d6fca0"/>
    </radialGradient>
    <radialGradient cx="0" cy="0" gradientTransform="matrix(0.0107, 0.0, 0.0, 0.0107, -111.4, 6.4)" gradientUnits="userSpaceOnUse" id="gradient6" r="819.2" spreadMethod="pad">
      <stop offset="0.0" stop-color="#ffffff"/>
      <stop offset="0.9803921568627451" stop-color="#d6fca0"/>
    </radialGradient>
    <radialGradient cx="0" cy="0" gradientTransform="matrix(0.0125, 0.0, 0.0, 0.0125, -203.9, -5.35)" gradientUnits="userSpaceOnUse" id="gradient7" r="819.2" spreadMethod="pad">
      <stop offset="0.0" stop-color="#ffffff"/>
      <stop offset="0.9803921568627451" stop-color="#d6fca0"/>
    </radialGradient>
    <radialGradient cx="0" cy="0" gradientTransform="matrix(0.0088, 0.0, 0.0, 0.0088, -232.4, 6.35)" gradientUnits="userSpaceOnUse" id="gradient8" r="819.2" spreadMethod="pad">
      <stop offset="0.0" stop-color="#ffffff"/>
      <stop offset="0.9803921568627451" stop-color="#d6fca0"/>
    </radialGradient>
  </defs>
</svg>
