<?xml version="1.0" encoding="UTF-8" standalone="no"?>
<svg xmlns:xlink="http://www.w3.org/1999/xlink" height="38.5px" width="574.65px" xmlns="http://www.w3.org/2000/svg">
  <g transform="matrix(1.0, 0.0, 0.0, 1.0, 275.85, 21.2)">
    <path d="M-49.5 -3.25 Q-33.7 -2.7 -17.8 -4.1 -14.55 -4.35 -11.45 -5.7 L4.0 -13.85 Q7.3 -13.75 10.5 -12.75 16.45 -10.9 20.8 -6.4 L51.2 -2.15 Q51.75 0.15 53.5 1.9 L53.65 2.05 Q50.35 0.05 45.75 0.0 40.8 0.0 37.3 2.3 35.2 3.75 34.4 5.55 L30.2 5.9 31.45 7.7 33.85 7.7 33.85 7.9 33.9 8.8 32.3 8.8 34.55 10.7 Q35.35 12.2 37.25 13.5 40.75 15.85 45.7 15.85 L49.75 15.45 51.75 15.2 52.2 14.65 54.15 13.55 Q57.65 11.25 57.65 8.0 57.7 5.5 55.65 3.55 57.55 4.6 59.9 4.6 63.65 4.6 66.3 1.95 67.55 0.7 68.25 -0.75 L87.0 0.25 89.65 -3.0 84.0 -9.1 Q77.15 -9.2 71.65 -5.25 L68.9 -3.0 69.0 -4.45 69.0 -5.4 Q78.8 -15.4 90.85 -6.0 L92.3 -4.65 Q101.8 -7.65 111.5 -8.95 110.95 -8.1 110.95 -7.1 110.95 -5.05 113.2 -3.5 L105.3 -1.95 101.15 0.25 166.75 -2.55 Q151.45 -5.65 136.15 -5.5 L136.45 -7.0 Q136.45 -8.4 135.4 -9.55 L144.9 -8.4 163.5 -5.1 Q166.5 -4.45 169.05 -2.95 225.35 -2.6 281.2 4.35 L298.8 6.3 Q259.35 4.05 220.1 5.1 219.3 5.1 218.55 5.5 L219.05 6.1 219.55 6.7 220.25 7.05 224.35 8.6 227.8 9.6 Q208.1 5.3 188.2 2.55 L187.85 2.4 Q184.95 1.25 180.8 1.2 L178.5 1.3 174.55 0.85 176.6 1.55 173.8 2.3 Q170.9 3.45 170.9 5.1 170.9 5.75 171.35 6.35 153.85 10.35 136.2 4.55 L127.7 6.25 Q104.05 10.15 80.1 7.0 L62.3 5.15 52.5 17.2 Q46.6 17.65 41.15 15.85 34.7 13.85 30.05 8.65 L5.4 6.25 0.65 9.05 -30.0 7.9 -45.35 16.7 -50.7 15.25 Q-59.3 12.9 -66.3 7.15 -89.95 7.9 -113.65 6.8 L-119.05 6.25 Q-136.0 24.45 -155.4 9.25 L-156.95 8.0 Q-156.45 7.25 -156.45 6.5 -156.4 3.95 -161.8 2.1 L-166.1 1.0 -176.6 -6.35 -199.9 -7.15 Q-193.25 -4.55 -186.15 -2.7 -177.85 -0.8 -169.4 0.55 L-174.65 0.25 Q-187.95 -2.9 -201.35 -5.4 L-203.8 -5.45 Q-202.55 -6.15 -201.55 -7.3 L-178.15 -7.4 Q-187.85 -18.0 -199.4 -12.45 L-199.5 -12.4 -199.7 -14.5 -199.9 -15.35 -194.0 -16.45 Q-193.45 -16.4 -192.9 -16.7 -182.9 -14.8 -174.8 -8.8 L-172.95 -7.35 -146.9 -6.45 -147.35 -5.1 -171.5 -6.15 -163.05 1.2 -146.0 1.7 -145.15 2.7 Q-142.7 5.2 -139.25 5.2 -135.8 5.2 -133.35 2.75 L-131.95 1.05 -128.15 0.7 -127.85 0.5 -131.1 -1.05 -130.85 -2.4 -115.05 -1.95 -113.95 -3.6 -130.9 -4.35 -131.25 -5.9 -112.85 -5.25 Q-99.35 -22.5 -78.45 -11.6 -74.9 -9.7 -73.05 -6.25 -72.9 -5.15 -71.8 -4.2 L-72.15 -4.25 -70.35 -0.6 -56.05 -0.2 -56.8 -1.15 Q-53.45 -1.5 -50.85 -2.6 -50.1 -2.9 -49.5 -3.25 M-193.2 6.3 L-244.3 5.1 Q-280.65 1.2 -275.15 -5.8 L-239.85 -3.6 -240.4 -6.25 -239.4 -6.95 -238.35 -7.4 -233.65 -7.6 Q-226.5 -7.75 -219.7 -6.5 L-215.4 -9.2 -214.55 -7.8 -216.95 -6.05 -213.75 -5.5 -214.8 -7.3 -214.15 -7.3 Q-213.45 -6.5 -212.5 -5.85 -209.6 -3.95 -206.2 -4.65 L-205.55 -4.8 -205.65 -4.75 -205.2 -3.55 Q-191.55 -0.65 -177.7 0.3 -183.45 0.55 -187.8 2.0 -193.1 3.75 -193.2 6.3 M22.15 -4.85 L24.5 -2.05 37.7 -1.85 Q36.0 -3.0 33.6 -3.55 28.0 -5.0 22.15 -4.85 M18.6 -4.95 L-2.55 -4.5 21.9 -2.1 18.6 -4.95 M-224.65 -2.65 L-223.2 -3.6 -232.35 -3.1 -224.65 -2.65 M-220.75 -3.75 L-223.0 -2.55 -196.6 -0.9 -205.0 -2.65 Q-212.75 -4.2 -220.75 -3.75 M-113.3 -1.9 L-99.75 -1.95 -112.15 -3.45 -113.3 -1.9 M-110.95 -5.1 Q-100.65 -4.5 -90.5 -2.05 L-87.45 -1.15 -77.5 -5.7 -74.1 -5.25 -79.25 -11.75 Q-93.3 -15.85 -106.4 -9.7 -109.45 -8.25 -110.95 -5.1 M-73.05 -3.4 L-75.95 -0.75 -71.85 -0.65 -73.05 -3.4 M-51.3 -0.05 Q-36.7 1.65 -22.5 -1.6 L-20.85 -2.0 -50.9 -2.0 -51.3 -0.05 M-9.3 -5.85 L16.95 -6.3 Q7.2 -16.3 -5.7 -8.0 -7.45 -6.8 -9.3 -5.85 M-118.1 4.9 L-118.3 5.2 -108.4 6.2 Q-94.9 6.65 -81.25 5.55 L-118.1 4.9 M-64.3 7.15 Q-57.55 12.25 -48.9 14.0 -47.55 14.25 -46.2 14.8 L-32.55 7.8 -64.3 7.15 M-155.7 7.15 Q-138.0 23.1 -121.85 7.05 L-120.9 5.95 -155.7 7.15 M27.6 5.6 L11.65 2.7 7.15 5.3 29.1 7.6 27.6 5.6" fill="url(#gradient0)" fill-rule="evenodd" stroke="none"/>
    <path d="M-215.4 -9.2 L-216.05 -11.15 Q-216.75 -14.55 -214.85 -17.4 -212.95 -20.3 -209.55 -21.0 -206.1 -21.7 -203.25 -19.8 -200.7 -18.15 -199.9 -15.35 L-199.7 -14.5 -199.5 -12.4 Q-199.6 -10.15 -200.9 -8.2 L-201.55 -7.3 Q-202.55 -6.15 -203.8 -5.45 -204.75 -5.3 -205.55 -4.8 L-206.2 -4.65 Q-209.6 -3.95 -212.5 -5.85 -213.45 -6.5 -214.15 -7.3 L-214.55 -7.8 -215.4 -9.2" fill="url(#gradient1)" fill-rule="evenodd" stroke="none"/>
    <path d="M-146.9 -6.45 Q-146.3 -7.95 -145.1 -9.15 -142.65 -11.55 -139.2 -11.55 -135.75 -11.55 -133.3 -9.1 -131.85 -7.65 -131.25 -5.9 L-130.9 -4.35 -130.85 -3.15 -130.85 -2.4 -131.1 -1.05 Q-131.35 0.05 -131.95 1.05 L-133.35 2.75 Q-135.8 5.2 -139.25 5.2 -142.7 5.2 -145.15 2.7 L-146.0 1.7 Q-147.6 -0.45 -147.6 -3.2 L-147.35 -5.1 -146.9 -6.45" fill="url(#gradient2)" fill-rule="evenodd" stroke="none"/>
    <path d="M-156.95 8.0 Q-158.1 9.6 -161.85 10.9 -167.25 12.75 -174.85 12.7 -182.45 12.65 -187.85 10.75 -193.25 8.9 -193.2 6.35 L-193.2 6.3 Q-193.1 3.75 -187.8 2.0 -183.45 0.55 -177.7 0.3 L-174.8 0.25 -174.65 0.25 -169.4 0.55 -166.1 1.0 -161.8 2.1 Q-156.4 3.95 -156.45 6.5 -156.45 7.25 -156.95 8.0" fill="url(#gradient3)" fill-rule="evenodd" stroke="none"/>
    <path d="M-73.05 -6.25 L-73.1 -6.7 Q-73.1 -9.05 -69.3 -10.7 -65.45 -12.35 -60.05 -12.35 -54.65 -12.3 -50.85 -10.65 -47.0 -8.95 -47.0 -6.6 -47.0 -4.7 -49.5 -3.25 -50.1 -2.9 -50.85 -2.6 -53.45 -1.5 -56.8 -1.15 L-60.1 -1.0 Q-65.5 -1.0 -69.3 -2.7 -70.9 -3.4 -71.8 -4.2 -72.9 -5.15 -73.05 -6.25" fill="url(#gradient4)" fill-rule="evenodd" stroke="none"/>
    <path d="M55.65 3.55 Q57.7 5.5 57.65 8.0 57.65 11.25 54.15 13.55 L52.2 14.65 49.75 15.45 45.7 15.85 Q40.75 15.85 37.25 13.5 35.35 12.2 34.55 10.7 34.05 9.75 33.9 8.8 L33.85 7.9 33.85 7.7 Q33.9 6.55 34.4 5.55 35.2 3.75 37.3 2.3 40.8 0.0 45.75 0.0 50.35 0.05 53.65 2.05 L55.65 3.55" fill="url(#gradient5)" fill-rule="evenodd" stroke="none"/>
    <path d="M111.5 -8.95 Q112.35 -10.4 114.7 -11.5 118.45 -13.3 123.7 -13.3 128.95 -13.25 132.7 -11.45 134.45 -10.6 135.4 -9.55 136.45 -8.4 136.45 -7.0 L136.15 -5.5 Q135.3 -3.85 132.65 -2.55 128.9 -0.7 123.65 -0.75 118.4 -0.75 114.65 -2.65 L113.2 -3.5 Q110.95 -5.05 110.95 -7.1 110.95 -8.1 111.5 -8.95" fill="url(#gradient6)" fill-rule="evenodd" stroke="none"/>
    <path d="M51.2 -2.15 Q50.9 -3.3 50.9 -4.55 50.9 -8.3 53.55 -10.95 56.2 -13.55 59.95 -13.55 63.7 -13.55 66.35 -10.9 68.7 -8.55 69.0 -5.4 L69.0 -4.45 68.9 -3.0 68.25 -0.75 Q67.55 0.7 66.3 1.95 63.65 4.6 59.9 4.6 57.55 4.6 55.65 3.55 L53.65 2.05 53.5 1.9 Q51.75 0.15 51.2 -2.15" fill="url(#gradient7)" fill-rule="evenodd" stroke="none"/>
    <path d="M188.2 2.55 Q190.75 3.65 190.75 5.2 190.75 6.85 187.85 8.0 184.95 9.15 180.8 9.1 176.7 9.1 173.8 7.9 172.05 7.2 171.35 6.35 170.9 5.75 170.9 5.1 170.9 3.45 173.8 2.3 L176.6 1.55 178.5 1.3 180.8 1.2 Q184.95 1.25 187.85 2.4 L188.2 2.55" fill="url(#gradient8)" fill-rule="evenodd" stroke="none"/>
  </g>
  <defs>
    <radialGradient cx="0" cy="0" gradientTransform="matrix(0.0342, 0.0, 0.0, 0.0489, -24.2, -0.85)" gradientUnits="userSpaceOnUse" id="gradient0" r="819.2" spreadMethod="pad">
      <stop offset="0.0" stop-color="#ffffff"/>
      <stop offset="0.9803921568627451" stop-color="#d6fca0"/>
    </radialGradient>
    <radialGradient cx="0" cy="0" gradientTransform="matrix(0.0107, 0.0, 0.0, 0.0107, -207.9, -12.85)" gradientUnits="userSpaceOnUse" id="gradient1" r="819.2" spreadMethod="pad">
      <stop offset="0.0" stop-color="#ffffff"/>
      <stop offset="0.9803921568627451" stop-color="#d6fca0"/>
    </radialGradient>
    <radialGradient cx="0" cy="0" gradientTransform="matrix(0.0103, 0.0, 0.0, 0.0103, -139.25, -3.2)" gradientUnits="userSpaceOnUse" id="gradient2" r="819.2" spreadMethod="pad">
      <stop offset="0.0" stop-color="#ffffff"/>
      <stop offset="0.9803921568627451" stop-color="#d6fca0"/>
    </radialGradient>
    <radialGradient cx="0" cy="0" gradientTransform="matrix(0.0234, 0.0, 0.0, 0.0234, -174.85, 6.45)" gradientUnits="userSpaceOnUse" id="gradient3" r="819.2" spreadMethod="pad">
      <stop offset="0.0" stop-color="#ffffff"/>
      <stop offset="0.9803921568627451" stop-color="#d6fca0"/>
    </radialGradient>
    <radialGradient cx="0" cy="0" gradientTransform="matrix(0.0168, 0.0, 0.0, 0.0168, -60.05, -6.7)" gradientUnits="userSpaceOnUse" id="gradient4" r="819.2" spreadMethod="pad">
      <stop offset="0.0" stop-color="#ffffff"/>
      <stop offset="0.9803921568627451" stop-color="#d6fca0"/>
    </radialGradient>
    <radialGradient cx="0" cy="0" gradientTransform="matrix(0.015, 0.0, 0.0, 0.015, 45.75, 7.9)" gradientUnits="userSpaceOnUse" id="gradient5" r="819.2" spreadMethod="pad">
      <stop offset="0.0" stop-color="#ffffff"/>
      <stop offset="0.9803921568627451" stop-color="#d6fca0"/>
    </radialGradient>
    <radialGradient cx="0" cy="0" gradientTransform="matrix(0.0164, 0.0, 0.0, 0.0164, 123.7, -7.05)" gradientUnits="userSpaceOnUse" id="gradient6" r="819.2" spreadMethod="pad">
      <stop offset="0.0" stop-color="#ffffff"/>
      <stop offset="0.9803921568627451" stop-color="#d6fca0"/>
    </radialGradient>
    <radialGradient cx="0" cy="0" gradientTransform="matrix(0.0112, 0.0, 0.0, 0.0112, 59.95, -4.5)" gradientUnits="userSpaceOnUse" id="gradient7" r="819.2" spreadMethod="pad">
      <stop offset="0.0" stop-color="#ffffff"/>
      <stop offset="0.9803921568627451" stop-color="#d6fca0"/>
    </radialGradient>
    <radialGradient cx="0" cy="0" gradientTransform="matrix(0.0121, 0.0, 0.0, 0.0121, 180.8, 5.15)" gradientUnits="userSpaceOnUse" id="gradient8" r="819.2" spreadMethod="pad">
      <stop offset="0.0" stop-color="#ffffff"/>
      <stop offset="0.9803921568627451" stop-color="#d6fca0"/>
    </radialGradient>
  </defs>
</svg>
