<?xml version="1.0" encoding="UTF-8" standalone="no"?>
<svg xmlns:xlink="http://www.w3.org/1999/xlink" height="36.3px" width="44.9px" xmlns="http://www.w3.org/2000/svg">
  <g transform="matrix(1.0, 0.0, 0.0, 1.0, 26.15, 21.5)">
    <path d="M14.75 -5.05 L14.85 -3.4 14.8 -2.2 Q14.35 2.35 10.3 6.0 5.8 10.1 -0.6 10.6 L-6.2 10.2 -7.0 10.0 Q-5.7 8.1 -5.25 -1.45 L-14.0 -4.4 Q-12.9 -6.4 -10.95 -8.2 -6.4 -12.3 0.0 -12.75 5.65 -13.2 9.85 -10.55 10.65 -10.4 11.3 -9.9 L12.1 -8.85 12.25 -8.7 12.55 -8.4 Q14.0 -6.9 14.75 -5.05" fill="#8c996d" fill-rule="evenodd" stroke="none"/>
    <path d="M-7.0 10.0 L-6.2 10.2 -0.6 10.6 Q5.8 10.1 10.3 6.0 14.35 2.35 14.8 -2.2 L14.85 -3.4 14.75 -5.05 15.4 -2.3 15.45 -1.15 Q15.45 4.15 10.9 8.25 6.6 12.2 0.5 12.8 L0.0 12.85 -1.25 12.9 Q-5.1 13.3 -7.95 14.65 L-8.1 14.75 -16.15 14.3 Q-13.2 14.75 -10.8 12.7 L-10.95 12.6 Q-9.5 12.2 -8.4 11.45 L-7.0 10.0 M0.5 12.8 L-1.25 12.9 0.5 12.8 M-16.85 -6.35 L-15.6 -5.5 Q-16.1 0.1 -19.2 5.7 L-19.65 4.55 Q-17.65 0.85 -16.85 -6.35 M-21.2 7.6 L-22.15 7.45 -21.0 6.45 -20.7 7.25 -21.2 7.6 M-5.2 12.55 L-5.15 12.55 -5.2 12.55" fill="#79835c" fill-rule="evenodd" stroke="none"/>
    <path d="M-10.95 12.6 L-10.8 12.7 Q-13.2 14.75 -16.15 14.3 L-17.2 14.05 -17.7 13.95 Q-20.2 13.25 -22.15 12.0 -24.45 10.55 -26.05 8.4 L-25.0 7.75 -24.5 7.55 -23.5 7.4 -22.2 7.45 -22.15 7.45 -21.2 7.6 -20.35 7.8 Q-18.7 8.25 -16.7 9.25 L-15.45 9.85 -11.85 12.0 -11.7 12.1 -10.95 12.6 M-8.1 14.75 L-7.95 14.65 -7.85 14.7 -8.1 14.75" fill="#8f9878" fill-rule="evenodd" stroke="none"/>
    <path d="M-15.45 9.85 Q-16.1 7.0 -14.55 4.45 L-11.7 12.1 -11.85 12.0 -15.45 9.85 M-19.65 4.55 L-19.2 5.7 Q-18.3 7.75 -16.7 9.25 -18.7 8.25 -20.35 7.8 L-20.7 7.25 -21.0 6.45 Q-21.7 4.35 -20.35 2.0 L-19.65 4.55 M-22.15 7.45 L-22.2 7.45 -23.5 7.4 -24.5 7.55 -25.0 7.75 Q-26.4 5.6 -26.1 1.25 -25.0 4.85 -22.2 7.45 L-22.15 7.45" fill="#ffffff" fill-rule="evenodd" stroke="none"/>
    <path d="M-7.0 10.0 L-8.4 11.45 Q-9.5 12.2 -10.95 12.6 L-11.7 12.1 -14.55 4.45 Q-16.1 7.0 -15.45 9.85 L-16.7 9.25 Q-18.3 7.75 -19.2 5.7 -16.1 0.1 -15.6 -5.5 L-14.0 -4.4 -5.25 -1.45 Q-5.7 8.1 -7.0 10.0 M-20.35 7.8 L-21.2 7.6 -20.7 7.25 -20.35 7.8" fill="#000000" fill-rule="evenodd" stroke="none"/>
    <path d="M0.5 12.8 Q6.6 12.2 10.9 8.25 15.45 4.15 15.45 -1.15 L15.4 -2.3 14.75 -5.05 Q14.0 -6.9 12.55 -8.4 L12.25 -8.7 12.1 -8.85 11.3 -9.9 Q10.65 -10.4 9.85 -10.55 5.65 -13.2 0.0 -12.75 -6.4 -12.3 -10.95 -8.2 -12.9 -6.4 -14.0 -4.4 M-1.25 12.9 L0.0 12.85 0.5 12.8" fill="none" stroke="#6c322b" stroke-linecap="round" stroke-linejoin="round" stroke-width="0.05"/>
    <path d="M-7.0 10.0 L-8.4 11.45 Q-9.5 12.2 -10.95 12.6 M-8.1 14.75 L-7.95 14.65 Q-5.1 13.3 -1.25 12.9 L0.5 12.8 M-14.0 -4.4 L-5.25 -1.45 Q-5.7 8.1 -7.0 10.0 M-16.85 -6.35 L-15.6 -5.5 -14.0 -4.4 M-15.45 9.85 Q-16.1 7.0 -14.55 4.45 L-11.7 12.1 M-19.2 5.7 Q-16.1 0.1 -15.6 -5.5 M-16.7 9.25 Q-18.7 8.25 -20.35 7.8 M-17.7 13.95 L-17.2 14.05 -16.15 14.3 M-20.7 7.25 L-21.2 7.6 M-22.2 7.45 Q-25.0 4.85 -26.1 1.25 -26.4 5.6 -25.0 7.75" fill="none" stroke="#475f1b" stroke-linecap="round" stroke-linejoin="round" stroke-width="0.05"/>
    <path d="M-16.15 14.3 L-8.1 14.75 -7.85 14.7 -7.95 14.65 M-16.7 9.25 L-15.45 9.85 -11.85 12.0 -11.7 12.1 -10.95 12.6 M-19.65 4.55 L-19.2 5.7 Q-18.3 7.75 -16.7 9.25 M-20.35 7.8 L-21.2 7.6 -22.15 7.45 -22.2 7.45 -23.5 7.4 -24.5 7.55 -25.0 7.75 -26.05 8.4 Q-24.45 10.55 -22.15 12.0 -20.2 13.25 -17.7 13.95 M-20.7 7.25 L-21.0 6.45 -22.15 7.45 -22.2 7.45 M-20.35 7.8 L-20.7 7.25 M-21.0 6.45 Q-21.7 4.35 -20.35 2.0 L-19.65 4.55 Q-17.65 0.85 -16.85 -6.35" fill="none" stroke="#475f1b" stroke-linecap="round" stroke-linejoin="round" stroke-width="0.05"/>
    <path d="M-10.9 -18.9 L-6.7 -21.3 -5.2 -21.5 Q-3.55 -19.75 -2.2 -20.65 2.4 -19.4 5.2 -15.75 L7.05 -12.75 Q8.95 -8.7 9.45 -2.7 L9.5 -2.15 8.65 -1.9 Q7.05 -1.2 7.15 1.0 1.25 2.6 -1.25 3.75 L-1.8 4.0 -2.7 4.5 Q-3.05 4.7 -3.4 5.05 L-3.95 5.6 -5.35 7.4 -5.7 5.45 -5.15 5.0 Q-4.15 4.15 -2.4 3.0 L2.55 -0.05 Q1.75 -2.7 4.1 -3.8 L2.75 -7.2 Q1.6 -9.75 0.25 -11.7 -4.2 -18.25 -10.9 -18.9" fill="#b9e210" fill-rule="evenodd" stroke="none"/>
    <path d="M7.05 -12.75 Q9.9 -12.3 12.5 -11.35 L13.3 -10.35 Q15.05 -7.8 14.4 -3.6 12.75 -3.2 11.75 -1.85 10.7 -0.45 10.4 2.0 7.4 3.3 5.35 6.8 3.85 7.05 -1.75 3.95 L-1.8 4.0 -1.25 3.75 Q1.25 2.6 7.15 1.0 7.05 -1.2 8.65 -1.9 L9.5 -2.15 9.45 -2.7 Q8.95 -8.7 7.05 -12.75" fill="#afd70f" fill-rule="evenodd" stroke="none"/>
    <path d="M13.3 -10.35 Q15.0 -10.55 16.65 -10.4 18.65 -9.4 18.75 -6.6 16.6 -5.65 16.25 -3.9 13.5 -2.95 11.75 -1.85 12.75 -3.2 14.4 -3.6 15.05 -7.8 13.3 -10.35" fill="#a5ca0f" fill-rule="evenodd" stroke="none"/>
    <path d="M-10.9 -18.9 L-6.7 -21.3 -5.2 -21.5 Q-3.55 -19.75 -2.2 -20.65 2.4 -19.4 5.2 -15.75 L7.05 -12.75 Q9.9 -12.3 12.5 -11.35 L13.3 -10.35 Q15.0 -10.55 16.65 -10.4 18.65 -9.4 18.75 -6.6 16.6 -5.65 16.25 -3.9 13.5 -2.95 11.75 -1.85 10.7 -0.45 10.4 2.0 7.4 3.3 5.35 6.8 M-1.8 4.0 L-2.7 4.5 Q-3.05 4.7 -3.4 5.05 L-3.95 5.6 -5.35 7.4 M7.05 -12.75 Q8.95 -8.7 9.45 -2.7 L9.5 -2.15 8.65 -1.9 Q7.05 -1.2 7.15 1.0 1.25 2.6 -1.25 3.75 L-1.8 4.0 M11.75 -1.85 Q12.75 -3.2 14.4 -3.6 15.05 -7.8 13.3 -10.35" fill="none" stroke="#6c322b" stroke-linecap="round" stroke-linejoin="round" stroke-width="0.05"/>
    <path d="M5.35 6.8 Q3.85 7.05 -1.75 3.95 M-5.35 7.4 L-5.7 5.45" fill="none" stroke="#544668" stroke-linecap="round" stroke-linejoin="round" stroke-width="0.05"/>
    <path d="M-23.9 -9.3 L-23.4 -9.2 -22.4 -9.2 -21.1 -9.4 Q-23.5 -6.45 -24.1 -2.75 -25.0 -7.0 -23.9 -9.3 M-15.5 -7.0 Q-17.5 -6.2 -19.15 -4.6 L-20.0 -3.75 -21.55 -1.65 Q-21.95 -4.3 -20.5 -6.0 L-19.95 -6.6 -19.4 -7.0 Q-17.7 -6.85 -15.5 -7.0 M-11.3 -1.05 L-11.2 -0.95 Q-15.9 -0.25 -16.75 3.55 -17.95 -1.05 -14.75 -3.55 L-11.3 -1.05 M-10.7 9.2 Q-13.05 5.1 -10.6 1.85 L-6.65 3.35 -6.5 3.45 Q-10.85 5.3 -10.7 9.2" fill="#ffffff" fill-rule="evenodd" stroke="none"/>
    <path d="M-21.1 -9.4 L-22.4 -9.2 -23.4 -9.2 -23.9 -9.3 M-19.4 -7.0 L-19.95 -6.6 -20.5 -6.0 Q-21.95 -4.3 -21.55 -1.65 L-20.0 -3.75 -19.15 -4.6 Q-17.5 -6.2 -15.5 -7.0 M-11.3 -1.05 L-11.2 -0.95 Q-15.9 -0.25 -16.75 3.55 -17.95 -1.05 -14.75 -3.55 L-11.3 -1.05 M-10.7 9.2 Q-13.05 5.1 -10.6 1.85 L-6.65 3.35 -6.5 3.45 Q-10.85 5.3 -10.7 9.2" fill="none" stroke="#475f1b" stroke-linecap="round" stroke-linejoin="round" stroke-width="0.05"/>
    <path d="M-23.9 -9.3 Q-25.0 -7.0 -24.1 -2.75 -23.5 -6.45 -21.1 -9.4 M-15.5 -7.0 Q-17.7 -6.85 -19.4 -7.0" fill="none" stroke="#475f1b" stroke-linecap="round" stroke-linejoin="round" stroke-width="0.05"/>
    <path d="M-17.1 -18.4 L-15.65 -19.05 Q-14.15 -18.15 -13.15 -18.45 L-12.4 -18.95 -10.9 -18.9 Q-4.2 -18.25 0.25 -11.7 1.6 -9.75 2.75 -7.2 L4.1 -3.8 Q1.75 -2.7 2.55 -0.05 L-2.4 3.0 Q-4.15 4.15 -5.15 5.0 L-5.7 5.45 -6.25 6.0 Q-7.25 7.05 -8.1 9.6 L-10.15 5.5 -12.5 1.3 Q-19.0 -9.5 -23.55 -8.25 L-24.65 -7.8 -24.05 -11.5 -17.05 -18.4 -17.1 -18.4" fill="#b5eb0f" fill-rule="evenodd" stroke="none"/>
    <path d="M-8.1 9.6 Q-7.25 7.05 -6.25 6.0 L-5.7 5.45 -5.15 5.0 Q-4.15 4.15 -2.4 3.0 L2.55 -0.05 Q1.75 -2.7 4.1 -3.8 L2.75 -7.2 Q1.6 -9.75 0.25 -11.7 -4.2 -18.25 -10.9 -18.9 L-12.4 -18.95 -13.15 -18.45 Q-14.15 -18.15 -15.65 -19.05 L-17.1 -18.4 M-17.05 -18.4 L-24.05 -11.5 -24.65 -7.8" fill="none" stroke="#6c322b" stroke-linecap="round" stroke-linejoin="round" stroke-width="0.05"/>
    <path d="M-24.65 -7.8 L-23.55 -8.25 Q-19.0 -9.5 -12.5 1.3 L-10.15 5.5 -8.1 9.6 Z" fill="none" stroke="#544668" stroke-linecap="round" stroke-linejoin="round" stroke-width="0.05"/>
    <path d="M-8.05 -2.2 L-7.3 -2.9 -6.3 -2.8 Q-5.8 -2.55 -5.65 -2.1 -5.5 -1.55 -5.7 -1.05 L-6.45 -0.45 Q-7.0 -0.25 -7.45 -0.45 L-8.1 -1.25 -8.05 -2.2" fill="#000000" fill-rule="evenodd" stroke="none"/>
    <path d="M-8.05 -2.2 L-8.1 -1.25 -7.45 -0.45 Q-7.0 -0.25 -6.45 -0.45 L-5.7 -1.05 Q-5.5 -1.55 -5.65 -2.1 -5.8 -2.55 -6.3 -2.8 L-7.3 -2.9 -8.05 -2.2 M-11.4 -4.4 Q-8.95 -6.0 -5.35 -4.05 -2.85 -3.05 -2.35 0.1 -5.4 1.95 -8.0 1.55 -12.25 -1.5 -11.4 -4.4" fill="#e2652f" fill-rule="evenodd" stroke="none"/>
    <path d="M-11.4 -4.4 Q-12.25 -1.5 -8.0 1.55 -5.4 1.95 -2.35 0.1 -2.85 -3.05 -5.35 -4.05 -8.95 -6.0 -11.4 -4.4 Z" fill="none" stroke="#6c322b" stroke-linecap="round" stroke-linejoin="round" stroke-width="0.05"/>
    <path d="M-20.25 -13.1 L-20.8 -13.1 -21.2 -13.55 -21.1 -14.15 -20.65 -14.6 -20.1 -14.5 -19.7 -14.15 -19.8 -13.5 -20.25 -13.1" fill="#000000" fill-rule="evenodd" stroke="none"/>
    <path d="M-20.25 -13.1 L-19.8 -13.5 -19.7 -14.15 -20.1 -14.5 -20.65 -14.6 -21.1 -14.15 -21.2 -13.55 -20.8 -13.1 -20.25 -13.1 M-18.45 -14.95 L-17.0 -13.65 Q-17.45 -11.45 -18.7 -10.7 -20.85 -10.95 -21.95 -12.15 L-22.6 -13.2 Q-22.25 -15.1 -20.0 -15.15 L-18.45 -14.95" fill="#e2652f" fill-rule="evenodd" stroke="none"/>
    <path d="M-18.45 -14.95 L-20.0 -15.15 Q-22.25 -15.1 -22.6 -13.2 L-21.95 -12.15 Q-20.85 -10.95 -18.7 -10.7 -17.45 -11.45 -17.0 -13.65 L-18.45 -14.95 Z" fill="none" stroke="#6c322b" stroke-linecap="round" stroke-linejoin="round" stroke-width="0.05"/>
    <path d="M-11.3 -10.1 Q-10.95 -10.8 -10.25 -11.05 L-8.85 -10.95 Q-8.15 -10.6 -7.95 -9.9 -7.7 -9.2 -8.05 -8.5 -8.4 -7.85 -9.1 -7.65 L-10.5 -7.7 Q-11.15 -8.05 -11.4 -8.8 -11.65 -9.45 -11.3 -10.1" fill="#e2652f" fill-rule="evenodd" stroke="none"/>
    <path d="M-11.3 -10.1 Q-10.95 -10.8 -10.25 -11.05 L-8.85 -10.95 Q-8.15 -10.6 -7.95 -9.9 -7.7 -9.2 -8.05 -8.5 -8.4 -7.85 -9.1 -7.65 L-10.5 -7.7 Q-11.15 -8.05 -11.4 -8.8 -11.65 -9.45 -11.3 -10.1 Z" fill="none" stroke="#475f1b" stroke-linecap="round" stroke-linejoin="round" stroke-width="0.05"/>
    <path d="M-14.9 -13.35 Q-14.6 -13.95 -13.9 -14.25 L-12.65 -14.15 Q-12.0 -13.85 -11.8 -13.2 -11.6 -12.45 -11.9 -11.85 -12.2 -11.2 -12.85 -11.05 L-14.15 -11.1 Q-14.75 -11.4 -14.95 -12.1 -15.2 -12.7 -14.9 -13.35" fill="#e2652f" fill-rule="evenodd" stroke="none"/>
    <path d="M-14.9 -13.35 Q-14.6 -13.95 -13.9 -14.25 L-12.65 -14.15 Q-12.0 -13.85 -11.8 -13.2 -11.6 -12.45 -11.9 -11.85 -12.2 -11.2 -12.85 -11.05 L-14.15 -11.1 Q-14.75 -11.4 -14.95 -12.1 -15.2 -12.7 -14.9 -13.35 Z" fill="none" stroke="#475f1b" stroke-linecap="round" stroke-linejoin="round" stroke-width="0.05"/>
  </g>
</svg>
