<?xml version="1.0" encoding="UTF-8" standalone="no"?>
<svg xmlns:xlink="http://www.w3.org/1999/xlink" height="30.05px" width="43.55px" xmlns="http://www.w3.org/2000/svg">
  <g transform="matrix(1.0, 0.0, 0.0, 1.0, 24.8, 13.35)">
    <path d="M-15.3 2.9 L-15.45 1.2 -15.4 0.05 Q-15.2 -1.9 -14.35 -3.65 -13.25 -6.1 -10.95 -8.2 -6.4 -12.3 0.0 -12.75 5.65 -13.2 9.85 -10.55 10.65 -10.4 11.3 -9.9 L12.1 -8.85 12.25 -8.7 12.55 -8.4 Q14.0 -6.9 14.75 -5.05 L14.85 -3.4 14.8 -2.2 Q14.35 2.35 10.3 6.0 5.8 10.1 -0.6 10.6 L-6.2 10.2 -7.85 9.7 Q-9.3 9.15 -10.55 8.35 L-11.55 7.65 -12.9 6.5 -13.7 5.6 Q-14.75 4.35 -15.3 2.9" fill="#8c996d" fill-rule="evenodd" stroke="none"/>
    <path d="M14.75 -5.05 L15.4 -2.3 15.45 -1.15 Q15.45 4.15 10.9 8.25 6.4 12.35 0.0 12.85 L-5.15 12.55 -5.2 12.55 -5.6 12.45 -7.25 11.95 Q-8.7 11.4 -9.95 10.6 L-10.95 9.9 -12.3 8.75 -13.1 7.85 Q-14.9 5.65 -15.3 2.9 -14.75 4.35 -13.7 5.6 L-12.9 6.5 -11.55 7.65 -10.55 8.35 Q-9.3 9.15 -7.85 9.7 L-6.2 10.2 -0.6 10.6 Q5.8 10.1 10.3 6.0 14.35 2.35 14.8 -2.2 L14.85 -3.4 14.75 -5.05" fill="#79835c" fill-rule="evenodd" stroke="none"/>
    <path d="M-15.3 2.9 L-15.45 1.2 -15.4 0.05 Q-15.2 -1.9 -14.35 -3.65 -13.25 -6.1 -10.95 -8.2 -6.4 -12.3 0.0 -12.75 5.65 -13.2 9.85 -10.55 10.65 -10.4 11.3 -9.9 L12.1 -8.85 12.25 -8.7 12.55 -8.4 Q14.0 -6.9 14.75 -5.05 L15.4 -2.3 15.45 -1.15 Q15.45 4.15 10.9 8.25 6.4 12.35 0.0 12.85 L-5.15 12.55 -5.2 12.55 -5.15 12.6 -5.6 12.45 -7.25 11.95 Q-8.7 11.4 -9.95 10.6 L-10.95 9.9 -12.3 8.75 -13.1 7.85 Q-14.9 5.65 -15.3 2.9 M-5.6 12.45 L-5.2 12.55" fill="none" stroke="#6c322b" stroke-linecap="round" stroke-linejoin="round" stroke-width="0.05"/>
    <path d="M-16.35 -7.55 Q-6.85 -11.25 3.85 -0.75 2.25 1.3 4.15 3.3 0.2 9.4 -0.75 11.95 L-1.0 12.65 Q-1.4 14.05 -1.05 16.7 L-4.7 13.95 -6.35 12.8 Q-18.05 4.8 -22.25 7.2 L-22.9 7.65 -23.65 8.55 -24.8 4.95 -21.65 -4.35 -20.65 -5.55 Q-18.15 -5.35 -17.7 -6.95 L-16.35 -7.55" fill="#b5eb0f" fill-rule="evenodd" stroke="none"/>
    <path d="M-6.35 12.8 Q-17.0 11.6 -22.25 7.2 -18.05 4.8 -6.35 12.8" fill="#8f9878" fill-rule="evenodd" stroke="none"/>
    <path d="M9.0 -2.5 L9.05 -2.35 9.45 -1.7 Q8.5 -1.0 8.3 -0.05 8.15 0.65 8.4 1.45 L8.75 2.15 3.55 7.15 2.45 8.4 1.5 9.7 Q0.75 10.85 0.45 13.5 L-0.75 11.95 Q0.2 9.4 4.15 3.3 2.25 1.3 3.85 -0.75 -6.85 -11.25 -16.35 -7.55 L-13.65 -11.55 -13.7 -11.55 -12.4 -12.45 Q-10.1 -11.65 -9.3 -13.0 -5.35 -13.85 -1.8 -12.5 L-0.5 -11.95 -0.45 -11.95 Q4.65 -9.5 9.0 -2.5" fill="#b9e210" fill-rule="evenodd" stroke="none"/>
    <path d="M9.05 -2.35 L9.0 -2.5 9.05 -2.35 9.0 -2.5 Q4.65 -9.5 -0.45 -11.95 L-0.5 -11.95 -1.8 -12.5 Q6.6 -13.55 12.5 -11.35 L13.3 -10.35 Q15.05 -7.8 14.4 -3.6 12.75 -3.2 11.75 -1.85 10.7 -0.45 10.4 2.0 7.4 3.3 5.35 6.8 L3.55 7.15 8.75 2.15 8.4 1.45 Q8.15 0.65 8.3 -0.05 8.5 -1.0 9.45 -1.7 L9.05 -2.35" fill="#afd70f" fill-rule="evenodd" stroke="none"/>
    <path d="M13.3 -10.35 Q15.0 -10.55 16.65 -10.4 18.65 -9.4 18.75 -6.6 16.6 -5.65 16.25 -3.9 13.5 -2.95 11.75 -1.85 12.75 -3.2 14.4 -3.6 15.05 -7.8 13.3 -10.35" fill="#a5ca0f" fill-rule="evenodd" stroke="none"/>
    <path d="M9.05 -2.35 L9.0 -2.5 Q4.65 -9.5 -0.45 -11.95 L-0.5 -11.95 -1.8 -12.5 Q-5.35 -13.85 -9.3 -13.0 -10.1 -11.65 -12.4 -12.45 L-13.7 -11.55 M-13.65 -11.55 L-16.35 -7.55 M0.45 13.5 Q0.75 10.85 1.5 9.7 L2.45 8.4 3.55 7.15 8.75 2.15 8.4 1.45 Q8.15 0.65 8.3 -0.05 8.5 -1.0 9.45 -1.7 L9.05 -2.35 M-1.8 -12.5 Q6.6 -13.55 12.5 -11.35 L13.3 -10.35 Q15.0 -10.55 16.65 -10.4 18.65 -9.4 18.75 -6.6 16.6 -5.65 16.25 -3.9 13.5 -2.95 11.75 -1.85 10.7 -0.45 10.4 2.0 7.4 3.3 5.35 6.8 M13.3 -10.35 Q15.05 -7.8 14.4 -3.6 12.75 -3.2 11.75 -1.85" fill="none" stroke="#6c322b" stroke-linecap="round" stroke-linejoin="round" stroke-width="0.05"/>
    <path d="M-16.35 -7.55 Q-6.85 -11.25 3.85 -0.75 2.25 1.3 4.15 3.3 0.2 9.4 -0.75 11.95 L-1.0 12.65 Q-1.4 14.05 -1.05 16.7 M-21.65 -4.35 L-20.65 -5.55 Q-18.15 -5.35 -17.7 -6.95 L-16.35 -7.55 M-23.65 8.55 L-24.8 4.95 -21.65 -4.35" fill="none" stroke="#6c322b" stroke-linecap="round" stroke-linejoin="round" stroke-width="0.05"/>
    <path d="M-0.75 11.95 L0.45 13.5 M5.35 6.8 L3.55 7.15 M-1.05 16.7 L-4.7 13.95 -6.35 12.8 Q-17.0 11.6 -22.25 7.2 L-22.9 7.65 -23.65 8.55 M-6.35 12.8 Q-18.05 4.8 -22.25 7.2" fill="none" stroke="#544668" stroke-linecap="round" stroke-linejoin="round" stroke-width="0.05"/>
    <path d="M-0.2 5.65 Q-4.85 7.55 -10.3 5.6 -4.85 7.55 -0.2 5.65 -2.1 8.6 -4.6 9.4 -9.75 8.6 -10.3 5.6 L-4.75 3.2 Q-2.0 2.95 -0.15 5.6 L-0.2 5.65" fill="#b9e210" fill-rule="evenodd" stroke="none"/>
    <path d="M-0.2 5.65 L-0.15 5.6 Q-2.0 2.95 -4.75 3.2 L-10.3 5.6 Q-9.75 8.6 -4.6 9.4 -2.1 8.6 -0.2 5.65" fill="none" stroke="#6c322b" stroke-linecap="round" stroke-linejoin="round" stroke-width="0.05"/>
    <path d="M-10.3 5.6 Q-4.85 7.55 -0.2 5.65 Z" fill="none" stroke="#475f1b" stroke-linecap="round" stroke-linejoin="round" stroke-width="0.05"/>
    <path d="M-23.9 0.7 Q-23.5 0.2 -22.8 -0.15 -22.2 -0.65 -21.3 -0.65 -20.5 -0.65 -19.7 3.3 -22.7 2.4 -23.9 0.7 -22.7 2.4 -19.7 3.3 L-23.2 3.4 -24.25 2.75 Q-24.6 1.55 -23.9 0.7" fill="#b9e210" fill-rule="evenodd" stroke="none"/>
    <path d="M-19.7 3.3 Q-20.5 -0.65 -21.3 -0.65 -22.2 -0.65 -22.8 -0.15 -23.5 0.2 -23.9 0.7 -24.6 1.55 -24.25 2.75 L-23.2 3.4 -19.7 3.3 -19.65 3.25 -19.7 3.3" fill="none" stroke="#6c322b" stroke-linecap="round" stroke-linejoin="round" stroke-width="0.05"/>
    <path d="M-23.9 0.7 Q-22.7 2.4 -19.7 3.3 Z" fill="none" stroke="#475f1b" stroke-linecap="round" stroke-linejoin="round" stroke-width="0.05"/>
    <path d="M-12.8 0.45 Q-12.8 -0.3 -12.3 -0.85 -11.75 -1.4 -11.0 -1.4 -10.25 -1.4 -9.75 -0.85 -9.2 -0.3 -9.2 0.45 -9.2 1.2 -9.75 1.7 -10.25 2.25 -11.0 2.25 -11.75 2.25 -12.3 1.7 -12.8 1.2 -12.8 0.45" fill="#e2652f" fill-rule="evenodd" stroke="none"/>
    <path d="M-12.8 0.45 Q-12.8 -0.3 -12.3 -0.85 -11.75 -1.4 -11.0 -1.4 -10.25 -1.4 -9.75 -0.85 -9.2 -0.3 -9.2 0.45 -9.2 1.2 -9.75 1.7 -10.25 2.25 -11.0 2.25 -11.75 2.25 -12.3 1.7 -12.8 1.2 -12.8 0.45 Z" fill="none" stroke="#475f1b" stroke-linecap="round" stroke-linejoin="round" stroke-width="0.05"/>
    <path d="M-17.4 -0.9 Q-17.4 -1.6 -16.95 -2.1 L-15.7 -2.6 Q-15.0 -2.6 -14.55 -2.1 -14.05 -1.6 -14.05 -0.9 -14.05 -0.2 -14.55 0.3 -15.0 0.8 -15.7 0.8 -16.4 0.8 -16.95 0.3 -17.4 -0.2 -17.4 -0.9" fill="#e2652f" fill-rule="evenodd" stroke="none"/>
    <path d="M-17.4 -0.9 Q-17.4 -1.6 -16.95 -2.1 L-15.7 -2.6 Q-15.0 -2.6 -14.55 -2.1 -14.05 -1.6 -14.05 -0.9 -14.05 -0.2 -14.55 0.3 -15.0 0.8 -15.7 0.8 -16.4 0.8 -16.95 0.3 -17.4 -0.2 -17.4 -0.9 Z" fill="none" stroke="#475f1b" stroke-linecap="round" stroke-linejoin="round" stroke-width="0.05"/>
  </g>
</svg>
