<?xml version="1.0" encoding="UTF-8" standalone="no"?>
<svg xmlns:xlink="http://www.w3.org/1999/xlink" height="7.35px" width="6.85px" xmlns="http://www.w3.org/2000/svg">
  <g transform="matrix(1.0, 0.0, 0.0, 1.0, 3.0, -0.3)">
    <path d="M-3.0 4.3 L-1.7 0.65 1.5 0.55 2.1 0.55 -0.85 4.25 -3.0 4.3 M2.45 7.1 L1.0 5.5 0.2 4.85 Q1.55 3.1 3.5 1.7 L3.85 2.4 3.85 4.85 2.45 7.1" fill="#ffdfc8" fill-rule="evenodd" stroke="none"/>
    <path d="M-0.85 4.25 L-0.65 4.25 0.2 4.85 -1.3 6.2 -3.0 4.3 -0.85 4.25 M0.2 4.85 L1.0 5.5 2.45 7.1 Q0.8 8.25 -1.0 7.1 L0.2 4.85" fill="#ffd0ae" fill-rule="evenodd" stroke="none"/>
    <path d="M-3.0 4.3 L-1.7 0.65 1.5 0.55 2.1 0.55 -0.85 4.25 -0.65 4.25 0.2 4.85 -1.3 6.2 -3.0 4.3 M2.45 7.1 L3.85 4.85 3.85 2.4 3.5 1.7 Q1.55 3.1 0.2 4.85 L-1.0 7.1 Q0.8 8.25 2.45 7.1" fill="none" stroke="#d7995e" stroke-linecap="round" stroke-linejoin="round" stroke-width="0.05"/>
  </g>
</svg>
