<?xml version="1.0" encoding="UTF-8" standalone="no"?>
<svg xmlns:xlink="http://www.w3.org/1999/xlink" height="31.1px" width="20.7px" xmlns="http://www.w3.org/2000/svg">
  <g transform="matrix(1.0, 0.0, 0.0, 1.0, 10.9, 13.15)">
    <path d="M0.45 -7.3 L-4.85 -6.95 -5.25 -7.65 -5.35 -7.8 -5.35 -7.85 -5.35 -7.9 -5.25 -8.65 -6.25 -8.0 -6.3 -8.65 -5.25 -8.75 -5.25 -8.65 -5.2 -8.75 Q-4.85 -11.05 -5.3 -12.75 -0.7 -13.6 2.4 -12.7 L2.2 -11.3 2.2 -11.05 Q2.1 -9.6 2.35 -8.25 1.7 -8.15 0.45 -7.3" fill="#ffd0ae" fill-rule="evenodd" stroke="none"/>
    <path d="M2.35 -8.25 L2.5 -7.65 2.95 -7.5 3.0 -7.45 0.45 -7.3 Q1.7 -8.15 2.35 -8.25 M-4.85 -6.95 L-6.2 -6.85 -6.25 -8.0 -5.25 -8.65 -5.35 -7.9 -5.35 -7.85 -5.35 -7.8 -5.25 -7.65 -4.85 -6.95" fill="#ffdfc8" fill-rule="evenodd" stroke="none"/>
    <path d="M-5.25 -8.75 L-5.2 -8.75 -5.25 -8.65 -5.25 -8.75" fill="#eebf5a" fill-rule="evenodd" stroke="none"/>
    <path d="M2.35 -8.25 L2.5 -7.65 2.95 -7.5 M-6.3 -8.65 L-5.25 -8.75 -5.2 -8.75 Q-4.85 -11.05 -5.3 -12.75 -0.7 -13.6 2.4 -12.7 L2.2 -11.3 2.2 -11.05 Q2.1 -9.6 2.35 -8.25 M-5.25 -8.65 L-5.2 -8.75 M-5.35 -7.8 L-5.35 -7.85 -5.35 -7.9 -5.25 -8.65" fill="none" stroke="#674743" stroke-linecap="round" stroke-linejoin="round" stroke-width="0.05"/>
    <path d="M0.0 8.9 L0.05 8.9 0.0 8.9" fill="#ffffff" fill-rule="evenodd" stroke="none"/>
    <path d="M6.25 13.8 Q7.25 14.8 6.8 16.2 3.85 17.95 -1.05 17.95 L-2.25 17.9 -4.2 17.55 Q-4.95 15.8 -4.3 14.8 L-4.1 14.85 -3.75 14.95 -1.35 15.1 -1.1 15.1 3.8 14.8 3.9 14.75 4.2 14.7 Q5.55 14.35 6.25 13.8" fill="#684942" fill-rule="evenodd" stroke="none"/>
    <path d="M-4.2 17.55 Q-6.15 17.1 -7.35 16.35 L-8.45 15.4 Q-8.9 13.75 -8.3 12.65 L-8.25 12.5 -8.1 12.3 -8.0 12.5 -7.95 12.65 -7.5 13.2 -7.3 13.4 Q-6.35 14.2 -4.3 14.8 -4.95 15.8 -4.2 17.55" fill="#956c5e" fill-rule="evenodd" stroke="none"/>
    <path d="M2.05 -9.6 L2.65 -9.75 Q4.35 -10.2 4.3 -10.7 5.4 -8.5 5.05 -6.7 L4.95 -6.65 4.9 -6.6 2.95 -5.35 3.0 -5.35 5.25 -4.45 6.75 -3.55 Q7.85 -2.65 7.7 -1.85 L7.75 -1.05 7.65 0.9 7.35 3.2 Q6.65 6.95 4.65 10.0 L5.25 13.1 Q4.85 14.2 4.2 14.7 L3.9 14.75 3.8 14.8 -1.1 15.1 -1.35 15.1 -3.75 14.95 -4.1 14.85 -4.3 14.8 Q-6.35 14.2 -7.3 13.4 L-7.5 13.2 -7.95 12.65 -8.0 12.5 -8.1 12.3 Q-8.9 11.25 -8.35 3.5 L-9.45 2.0 -9.7 1.65 Q-11.05 -0.6 -10.85 -3.0 L-10.45 -5.15 Q-10.0 -6.55 -9.0 -8.0 L-8.95 -8.1 -8.6 -8.2 -7.8 -8.4 -7.7 -8.4 -7.65 -8.45 -7.6 -8.45 -7.6 -8.5 Q-7.85 -9.25 -7.45 -9.95 -7.4 -9.45 -5.65 -9.2 L-5.15 -9.15 Q-3.6 -9.0 -1.45 -9.15 L2.05 -9.6 M1.4 -6.75 Q-7.7 -2.35 -7.6 -8.45 -7.7 -2.35 1.4 -6.75 M0.0 8.9 L0.05 8.9 0.0 8.9 M3.0 -5.35 Q-0.4 -1.2 -4.8 -1.9 -8.85 -3.55 -7.6 -8.45 L-7.65 -8.4 -7.65 -8.45 -7.65 -8.4 -7.6 -8.45 Q-8.85 -3.55 -4.8 -1.9 -0.4 -1.2 3.0 -5.35" fill="#c1a49d" fill-rule="evenodd" stroke="none"/>
    <path d="M4.9 -6.6 L5.55 -6.35 5.95 -6.1 7.3 -5.3 Q10.0 -3.9 9.75 -2.7 L9.8 -1.9 9.7 0.05 9.7 0.2 9.65 0.8 9.25 3.1 Q8.5 6.4 7.3 8.75 L7.3 12.25 6.25 13.8 Q5.55 14.35 4.2 14.7 4.85 14.2 5.25 13.1 L4.65 10.0 Q6.65 6.95 7.35 3.2 L7.65 0.9 7.75 -1.05 7.7 -1.85 Q7.85 -2.65 6.75 -3.55 L5.25 -4.45 3.0 -5.35 2.95 -5.35 4.9 -6.6" fill="#b48f87" fill-rule="evenodd" stroke="none"/>
    <path d="M4.3 -10.7 Q4.35 -10.2 2.65 -9.75 L2.05 -9.6 2.15 -11.5 2.55 -11.45 Q4.3 -11.2 4.3 -10.7 M-5.15 -9.15 L-5.65 -9.2 Q-7.4 -9.45 -7.45 -9.95 -7.45 -10.45 -5.75 -10.9 L-5.05 -11.05 -5.15 -9.15" fill="#674743" fill-rule="evenodd" stroke="none"/>
    <path d="M4.3 -10.7 Q4.35 -10.2 2.65 -9.75 L2.05 -9.6 -1.45 -9.15 Q-3.6 -9.0 -5.15 -9.15 L-5.65 -9.2 Q-7.4 -9.45 -7.45 -9.95 -7.85 -9.25 -7.6 -8.5 L-7.6 -8.45 Q-8.85 -3.55 -4.8 -1.9 -0.4 -1.2 3.0 -5.35 M2.15 -11.5 L2.55 -11.45 Q4.3 -11.2 4.3 -10.7 5.4 -8.5 5.05 -6.7 L4.95 -6.65 4.9 -6.6 2.95 -5.35 M-8.1 12.3 Q-8.9 11.25 -8.35 3.5 M-8.95 -8.1 L-8.6 -8.2 -7.8 -8.4 -7.7 -8.4 -7.65 -8.45 -7.6 -8.45 -7.65 -8.4 -7.65 -8.45 M3.9 14.75 L3.8 14.8 -1.1 15.1 -1.35 15.1 -3.75 14.95 -4.1 14.85 -4.3 14.8 Q-6.35 14.2 -7.3 13.4 L-7.5 13.2 -7.95 12.65 -8.0 12.5 -8.1 12.3 M-7.45 -9.95 Q-7.45 -10.45 -5.75 -10.9 L-5.05 -11.05" fill="none" stroke="#674743" stroke-linecap="round" stroke-linejoin="round" stroke-width="0.05"/>
    <path d="M4.9 -6.6 L5.55 -6.35 5.95 -6.1 7.3 -5.3 Q10.0 -3.9 9.75 -2.7 L9.8 -1.9 9.7 0.05 9.7 0.2 9.65 0.8 9.25 3.1 Q8.5 6.4 7.3 8.75 L7.3 12.25 6.25 13.8 Q7.25 14.8 6.8 16.2 3.85 17.95 -1.05 17.95 L-2.25 17.9 -4.2 17.55 Q-6.15 17.1 -7.35 16.35 L-8.45 15.4 Q-8.9 13.75 -8.3 12.65 L-8.25 12.5 -8.1 12.3 M-8.35 3.5 L-9.45 2.0 -9.7 1.65 Q-11.05 -0.6 -10.85 -3.0 M-9.0 -8.0 L-8.95 -8.1 M4.2 14.7 Q5.55 14.35 6.25 13.8 M4.2 14.7 L3.9 14.75" fill="none" stroke="#674743" stroke-linecap="round" stroke-linejoin="round" stroke-width="0.05"/>
    <path d="M-7.6 -8.5 L-7.6 -8.45 Q-7.7 -2.35 1.4 -6.75" fill="none" stroke="#49614b" stroke-linecap="round" stroke-linejoin="round" stroke-width="0.05"/>
  </g>
</svg>
