<?xml version="1.0" encoding="UTF-8" standalone="no"?>
<svg xmlns:xlink="http://www.w3.org/1999/xlink" height="24.95px" width="41.45px" xmlns="http://www.w3.org/2000/svg">
  <g transform="matrix(1.0, 0.0, 0.0, 1.0, 20.7, 12.45)">
    <path d="M15.05 -11.55 L15.4 -10.45 16.85 -10.4 17.85 -10.1 18.6 -9.3 18.8 -8.3 Q22.45 -3.25 19.3 2.6 L19.55 3.45 19.55 3.4 19.65 4.3 19.65 4.35 19.3 5.2 19.3 5.15 Q12.55 15.35 1.95 11.4 L1.2 10.85 0.35 11.2 0.3 11.2 -0.9 10.95 -1.75 10.05 -1.9 8.8 -1.6 7.25 -2.95 7.85 -3.7 8.0 -3.75 8.0 -4.5 7.85 -4.9 7.7 -5.65 8.2 -5.6 8.2 -6.5 8.55 -6.55 8.55 -8.25 8.7 Q-9.0 8.75 -9.55 8.35 L-14.75 9.85 -14.7 9.85 -15.8 9.9 -15.85 9.9 -16.75 9.3 -17.85 8.1 -18.55 7.95 -18.95 7.85 -19.95 7.1 -20.3 5.9 -20.25 3.65 -20.65 1.55 -20.65 1.5 Q-20.8 0.8 -20.45 0.2 L-20.45 0.15 -19.4 -0.7 -19.4 -0.75 -18.35 -1.1 -18.25 -1.15 -18.25 -1.35 -18.25 -1.4 -18.1 -2.65 -17.25 -3.55 -16.0 -3.8 -14.55 -3.6 -9.3 -5.15 -8.35 -5.2 -7.35 -5.0 -3.15 -6.25 -3.0 -7.15 -2.5 -8.15 Q-2.15 -8.6 -1.55 -8.7 L-1.55 -8.75 8.1 -11.15 8.15 -11.15 8.65 -11.2 9.8 -11.15 12.65 -12.3 12.7 -12.3 14.0 -12.35 15.05 -11.55" fill="#000000" fill-rule="evenodd" stroke="none"/>
    <path d="M1.65 -8.1 L2.15 -8.25 2.95 -7.7 3.05 -7.45 2.6 -7.15 1.7 -7.7 Q1.4 -7.95 1.65 -8.1 M8.85 -9.25 Q9.6 -9.8 10.35 -9.8 L10.4 -9.8 Q10.6 -9.65 10.4 -9.2 11.7 -10.45 13.25 -10.6 13.75 -10.65 13.75 -10.3 L13.35 -9.1 Q13.3 -8.75 13.5 -8.45 L16.7 -8.85 Q17.2 -8.75 17.1 -8.5 L17.05 -8.45 Q16.65 -7.7 17.0 -6.9 15.85 -7.55 14.3 -6.65 14.55 -5.2 15.65 -4.9 16.0 -2.0 13.55 -0.2 14.3 -1.15 13.55 -1.85 12.8 -2.15 12.2 -1.55 L12.0 -0.9 Q9.25 0.65 5.9 -0.5 2.75 -1.8 2.15 -4.25 L1.95 -3.9 0.7 -3.2 0.1 -3.3 Q-0.05 -3.6 0.2 -3.85 L1.55 -4.6 Q1.9 -4.7 2.1 -4.4 L2.15 -4.4 2.1 -4.45 Q1.85 -5.9 3.05 -7.15 3.85 -8.05 4.65 -8.35 1.45 -5.4 4.55 -2.65 6.2 -1.5 7.35 -1.45 L7.7 -1.4 Q11.5 -1.0 13.1 -3.5 14.2 -6.95 10.35 -8.85 L9.8 -9.05 9.85 -9.05 10.25 -9.05 12.2 -8.4 12.3 -8.35 12.6 -8.15 13.55 -7.45 13.95 -7.1 14.3 -6.65 13.95 -7.1 13.55 -7.45 12.6 -8.15 12.3 -8.35 12.2 -8.4 10.25 -9.05 9.85 -9.05 9.6 -9.1 8.85 -9.25 M15.65 6.5 L14.45 8.0 Q11.95 9.75 9.05 7.55 L8.75 8.0 8.35 7.45 Q7.9 6.7 7.7 5.8 7.05 3.55 7.5 1.45 7.05 3.55 7.7 5.8 7.9 6.7 8.35 7.45 L8.75 8.0 Q10.6 9.8 12.5 9.2 L11.25 9.7 Q9.45 10.2 8.1 9.15 L6.8 7.75 7.3 7.05 7.55 7.0 7.7 5.8 7.55 7.0 7.3 7.05 6.8 7.75 6.45 8.35 6.05 8.95 Q5.5 8.1 5.3 6.8 L4.85 7.45 4.55 7.45 4.2 7.85 4.55 7.45 4.85 7.45 5.3 6.8 5.25 4.8 Q5.3 3.0 6.15 1.15 L7.5 1.45 7.95 1.5 8.35 1.5 8.65 1.5 9.0 1.5 9.8 3.75 10.6 5.2 10.35 6.75 9.5 6.35 9.05 7.55 9.5 6.35 10.35 6.75 10.6 5.2 11.4 6.0 12.3 6.6 Q14.2 7.5 16.05 5.15 16.5 5.0 15.65 6.5 M9.65 10.2 L8.15 10.55 Q6.05 10.5 4.9 9.15 L4.2 7.85 3.85 8.3 3.15 9.15 3.1 9.2 3.15 9.15 3.85 8.3 4.45 9.15 Q5.3 10.2 6.8 10.65 L5.45 10.5 Q4.4 10.4 3.1 9.2 L2.9 9.45 2.8 9.15 2.75 8.95 1.9 7.8 1.7 7.8 0.35 9.4 0.3 9.15 Q-0.25 6.6 1.2 4.1 L1.35 3.8 Q2.4 2.65 2.95 2.75 L3.7 2.6 4.4 2.5 Q5.5 2.1 5.25 0.9 L6.15 1.15 Q5.3 3.0 5.25 4.8 L5.3 6.8 Q5.5 8.1 6.05 8.95 L6.45 8.35 7.3 9.15 Q8.45 10.15 9.65 10.2 M-18.65 4.85 Q-18.9 4.4 -18.45 4.1 L-17.9 3.75 -16.15 2.6 -15.75 2.65 -15.65 2.8 -15.8 3.3 -17.7 4.55 Q-18.35 5.1 -18.65 4.85 M-18.4 1.45 L-18.45 1.4 -18.5 1.25 Q-18.6 0.85 -18.05 0.75 L-16.95 0.55 -15.5 0.25 -15.0 0.35 Q-14.8 0.8 -15.3 1.0 L-18.15 1.55 Q-18.3 1.6 -18.4 1.45 M-16.0 -1.6 L-16.05 -1.75 -16.05 -1.85 Q-16.05 -2.2 -15.45 -2.05 L-14.25 -1.6 -14.0 -1.5 -13.65 -1.3 Q-13.45 -0.85 -14.0 -0.75 L-15.3 -1.25 Q-15.85 -1.4 -16.0 -1.6 M10.4 -9.2 L10.25 -9.05 10.4 -9.2 M12.6 -8.15 L13.5 -8.45 12.6 -8.15 M15.15 -4.95 L14.7 -5.35 14.15 -5.35 Q13.85 -5.2 13.85 -4.85 L13.95 -4.25 14.45 -3.85 15.0 -3.85 15.3 -4.3 15.15 -4.95 M13.3 -3.4 L13.3 -2.65 Q13.95 -1.75 14.45 -2.35 14.95 -3.0 14.3 -3.55 13.55 -4.05 13.3 -3.4 M2.75 8.95 L2.55 7.85 2.55 6.1 Q2.75 4.45 3.7 2.6 2.75 4.45 2.55 6.1 L2.55 7.85 2.75 8.95 M1.9 7.8 L2.55 7.85 1.9 7.8" fill="#c5dae0" fill-rule="evenodd" stroke="none"/>
    <path d="M2.15 -8.25 L5.3 -8.75 4.65 -8.35 Q3.85 -8.05 3.05 -7.15 1.85 -5.9 2.1 -4.45 L2.1 -4.4 Q1.9 -4.7 1.55 -4.6 L0.2 -3.85 Q-0.05 -3.6 0.1 -3.3 L0.7 -3.2 1.95 -3.9 2.15 -4.25 Q2.75 -1.8 5.9 -0.5 9.25 0.65 12.0 -0.9 11.9 -0.35 12.35 0.05 L13.3 -0.05 13.3 0.0 Q12.05 0.75 10.8 1.15 L9.0 1.5 8.65 1.5 8.35 1.5 7.95 1.5 7.5 1.45 6.15 1.15 5.25 0.9 4.1 0.3 3.65 -0.05 3.3 -0.45 Q2.9 -1.15 0.2 -2.9 L-0.4 -3.4 Q-0.95 -4.05 -1.15 -4.65 -0.95 -4.05 -0.4 -3.4 L0.2 -2.9 Q2.9 -1.15 3.3 -0.45 L3.65 -0.05 4.1 0.3 5.25 0.9 Q5.5 2.1 4.4 2.5 L3.7 2.6 2.95 2.75 Q2.4 2.65 1.35 3.8 L1.1 4.1 Q-0.2 5.5 -1.1 5.6 L-1.95 5.75 -3.4 5.95 -3.5 5.95 -3.75 5.8 -3.75 5.75 -3.75 5.65 -3.8 5.55 -3.85 5.5 -4.85 5.4 -5.65 5.75 -6.35 6.35 -6.5 6.5 -8.0 6.7 -8.35 6.35 -8.5 6.15 -9.65 6.25 Q-10.5 6.6 -10.9 7.0 -11.4 7.35 -11.95 7.4 L-14.75 7.9 -14.95 7.85 -16.2 7.3 -17.15 5.65 -17.4 5.2 -17.45 5.15 -17.4 5.0 -16.45 4.25 Q-15.35 3.65 -15.4 3.2 L-15.65 2.8 -15.75 2.65 -16.15 2.6 -17.9 3.75 Q-18.25 3.3 -17.9 2.35 L-17.7 1.9 -15.15 1.45 Q-14.75 1.3 -14.65 0.95 L-15.0 0.35 -15.5 0.25 -16.95 0.55 -15.65 -0.8 -14.2 -0.35 Q-13.6 -0.1 -13.4 -0.8 L-13.65 -1.3 -14.0 -1.5 -14.25 -1.6 -11.95 -2.6 -8.2 -3.35 Q-7.55 -2.25 -5.1 -4.15 L-2.85 -4.65 Q-2.55 -4.0 -1.15 -4.65 -1.45 -5.7 -0.8 -6.85 0.05 -7.65 1.65 -8.1 1.4 -7.95 1.7 -7.7 L2.6 -7.15 3.05 -7.45 2.95 -7.7 2.15 -8.25 M-1.95 5.75 L-3.0 3.35 -2.5 3.3 Q-1.8 3.2 -1.4 2.8 L-0.3 1.65 Q0.7 0.5 1.6 0.3 L2.1 0.25 3.65 -0.05 2.1 0.25 1.6 0.3 Q0.7 0.5 -0.3 1.65 L-1.4 2.8 Q-1.8 3.2 -2.5 3.3 L-3.0 3.35 -1.95 5.75 M-14.95 7.85 L-16.0 5.6 -12.3 5.0 Q-11.65 4.3 -10.7 3.95 L-10.4 3.85 -9.3 3.95 -9.15 4.4 -7.8 4.15 -7.55 3.95 Q-6.05 3.0 -5.35 3.25 L-4.75 3.6 -3.15 3.35 -3.0 3.35 -3.15 3.35 -4.75 3.6 -5.35 3.25 Q-6.05 3.0 -7.55 3.95 L-7.8 4.15 -9.15 4.4 -9.3 3.95 -10.4 3.85 -10.7 3.95 Q-11.65 4.3 -12.3 5.0 L-16.0 5.6 -14.95 7.85 M-1.35 -3.35 L-11.4 -1.45 -13.8 3.6 -3.7 1.7 -1.35 -3.35 M-17.4 5.2 L-16.0 5.6 -17.4 5.2" fill="#483580" fill-rule="evenodd" stroke="none"/>
    <path d="M10.65 -7.55 L10.15 -7.6 Q8.55 -8.7 8.0 -8.45 L8.9 -7.6 Q9.45 -6.9 9.2 -6.2 L8.95 -5.7 7.9 -5.15 5.4 -5.25 Q4.95 -5.6 4.85 -5.9 4.7 -6.45 5.45 -6.9 5.35 -7.45 5.55 -7.7 4.7 -7.5 4.25 -6.2 L4.05 -6.1 3.3 -5.2 Q3.6 -7.4 5.1 -8.3 6.75 -9.45 9.3 -8.9 11.75 -8.3 12.35 -6.2 11.95 -7.45 10.65 -7.55 M10.7 -5.0 L10.7 -4.6 10.3 -4.3 9.75 -4.3 Q9.45 -4.4 9.35 -4.6 9.2 -4.8 9.35 -5.0 9.45 -5.2 9.75 -5.25 L10.35 -5.25 10.7 -5.0" fill="#b7d6b5" fill-rule="evenodd" stroke="none"/>
    <path d="M5.3 -8.75 Q6.8 -9.6 8.85 -9.25 L9.6 -9.1 9.8 -9.05 10.35 -8.85 Q14.2 -6.95 13.1 -3.5 11.5 -1.0 7.7 -1.4 10.5 -1.15 12.15 -2.95 12.9 -4.05 12.5 -5.8 L12.25 -3.95 Q11.7 -3.2 11.7 -4.25 11.95 -5.4 11.65 -5.55 10.15 -6.65 9.2 -6.2 9.45 -6.9 8.9 -7.6 10.05 -7.5 11.25 -6.7 L10.65 -7.55 Q11.95 -7.45 12.35 -6.2 11.75 -8.3 9.3 -8.9 6.75 -9.45 5.1 -8.3 3.6 -7.4 3.3 -5.2 L4.05 -6.1 Q4.15 -5.1 4.55 -4.4 4.5 -5.15 4.85 -5.9 4.95 -5.6 5.4 -5.25 L7.9 -5.15 Q6.9 -3.8 9.05 -2.35 8.3 -2.4 7.75 -1.95 7.1 -2.7 6.2 -2.55 L6.15 -2.5 Q4.85 -3.0 3.95 -4.1 4.75 -2.15 7.35 -1.45 6.2 -1.5 4.55 -2.65 1.45 -5.4 4.65 -8.35 L5.3 -8.75" fill="#5c727a" fill-rule="evenodd" stroke="none"/>
    <path d="M8.9 -7.6 L8.0 -8.45 Q8.55 -8.7 10.15 -7.6 L10.65 -7.55 11.25 -6.7 Q10.05 -7.5 8.9 -7.6 M4.05 -6.1 L4.25 -6.2 Q4.7 -7.5 5.55 -7.7 5.35 -7.45 5.45 -6.9 4.7 -6.45 4.85 -5.9 4.5 -5.15 4.55 -4.4 4.15 -5.1 4.05 -6.1 M7.9 -5.15 L8.95 -5.7 9.2 -6.2 Q10.15 -6.65 11.65 -5.55 11.95 -5.4 11.7 -4.25 11.7 -3.2 12.25 -3.95 L12.5 -5.8 Q12.9 -4.05 12.15 -2.95 10.5 -1.15 7.7 -1.4 L7.35 -1.45 Q4.75 -2.15 3.95 -4.1 4.85 -3.0 6.15 -2.5 L6.2 -2.55 Q7.1 -2.7 7.75 -1.95 8.3 -2.4 9.05 -2.35 6.9 -3.8 7.9 -5.15 M10.7 -5.0 L10.35 -5.25 9.75 -5.25 Q9.45 -5.2 9.35 -5.0 9.2 -4.8 9.35 -4.6 9.45 -4.4 9.75 -4.3 L10.3 -4.3 10.7 -4.6 10.7 -5.0" fill="#4d3d67" fill-rule="evenodd" stroke="none"/>
    <path d="M17.0 -6.9 L17.85 -6.2 Q19.95 -3.3 17.35 2.3 L16.8 1.45 16.8 1.4 Q16.35 0.8 15.15 0.65 12.9 0.75 11.45 1.85 L10.8 1.15 Q12.05 0.75 13.3 0.0 L13.4 -0.1 13.55 -0.2 Q16.0 -2.0 15.65 -4.9 15.8 -6.55 14.3 -6.65 15.85 -7.55 17.0 -6.9 M-17.15 5.65 Q-17.55 6.25 -18.05 5.9 L-18.65 4.85 Q-18.35 5.1 -17.7 4.55 L-15.8 3.3 -15.65 2.8 -15.4 3.2 Q-15.35 3.65 -16.45 4.25 L-17.4 5.0 -17.45 5.15 -17.4 5.2 -17.15 5.65 M-17.9 2.35 L-18.4 1.45 Q-18.3 1.6 -18.15 1.55 L-15.3 1.0 Q-14.8 0.8 -15.0 0.35 L-14.65 0.95 Q-14.75 1.3 -15.15 1.45 L-17.7 1.9 -17.9 2.35 M-15.65 -0.8 L-16.0 -1.6 Q-15.85 -1.4 -15.3 -1.25 L-14.0 -0.75 Q-13.45 -0.85 -13.65 -1.3 L-13.4 -0.8 Q-13.6 -0.1 -14.2 -0.35 L-15.65 -0.8 M12.3 6.6 Q14.4 6.15 15.35 5.4 16.1 4.85 16.05 5.15 14.2 7.5 12.3 6.6" fill="#91b8c4" fill-rule="evenodd" stroke="none"/>
    <path d="M12.0 -0.9 L12.2 -1.55 Q12.8 -2.15 13.55 -1.85 14.3 -1.15 13.55 -0.2 L13.4 -0.1 13.3 -0.05 12.35 0.05 Q11.9 -0.35 12.0 -0.9 M15.65 -4.9 Q14.55 -5.2 14.3 -6.65 15.8 -6.55 15.65 -4.9 M15.15 -4.95 L15.3 -4.3 15.0 -3.85 14.45 -3.85 13.95 -4.25 13.85 -4.85 Q13.85 -5.2 14.15 -5.35 L14.7 -5.35 15.15 -4.95 M13.3 -3.4 Q13.55 -4.05 14.3 -3.55 14.95 -3.0 14.45 -2.35 13.95 -1.75 13.3 -2.65 L13.3 -3.4" fill="#97496a" fill-rule="evenodd" stroke="none"/>
    <path d="M16.8 5.6 L15.65 6.5 Q16.5 5.0 16.05 5.15 16.1 4.85 15.35 5.4 14.4 6.15 12.3 6.6 L11.4 6.0 10.6 5.2 9.8 3.75 Q10.45 2.55 11.45 1.85 12.9 0.75 15.15 0.65 16.35 0.8 16.8 1.4 L16.8 1.45 Q17.05 1.85 16.9 2.5 16.65 4.1 16.8 5.6 M16.9 2.5 L16.5 3.55 Q14.5 6.05 11.4 6.0 14.5 6.05 16.5 3.55 L16.9 2.5" fill="#693a4c" fill-rule="evenodd" stroke="none"/>
    <path d="M17.35 2.3 L18.0 3.4 Q17.9 4.45 16.8 5.6 16.65 4.1 16.9 2.5 17.05 1.85 16.8 1.45 L17.35 2.3" fill="#e5c6aa" fill-rule="evenodd" stroke="none"/>
    <path d="M14.45 8.0 Q13.55 8.85 12.5 9.2 10.6 9.8 8.75 8.0 L9.05 7.55 Q11.95 9.75 14.45 8.0 M11.25 9.7 L9.65 10.2 Q8.45 10.15 7.3 9.15 L6.45 8.35 6.8 7.75 8.1 9.15 Q9.45 10.2 11.25 9.7 M8.15 10.55 L6.8 10.65 Q5.3 10.2 4.45 9.15 L3.85 8.3 4.2 7.85 4.9 9.15 Q6.05 10.5 8.15 10.55" fill="#5b294e" fill-rule="evenodd" stroke="none"/>
    <path d="M-1.35 -3.35 L-3.7 1.7 -13.8 3.6 -11.4 -1.45 -1.35 -3.35" fill="#3a1464" fill-rule="evenodd" stroke="none"/>
    <path d="M5.3 -8.75 Q6.8 -9.6 8.85 -9.25 L9.6 -9.1 9.85 -9.05 10.25 -9.05 10.4 -9.2 M3.1 9.2 L2.9 9.45 2.8 9.15 2.75 8.95 2.55 7.85 1.9 7.8 1.7 7.8 0.35 9.4 0.3 9.15 Q-0.25 6.6 1.2 4.1 L1.35 3.8 M-14.75 7.9 L-14.95 7.85 -16.0 5.6 -17.4 5.2 M-2.85 -4.65 Q-2.55 -4.0 -1.15 -4.65 -0.95 -4.05 -0.4 -3.4 L0.2 -2.9 Q2.9 -1.15 3.3 -0.45 L3.65 -0.05 4.1 0.3 5.25 0.9 6.15 1.15 7.5 1.45 Q7.05 3.55 7.7 5.8 7.9 6.7 8.35 7.45 L8.75 8.0 9.05 7.55 9.5 6.35 10.35 6.75 10.6 5.2 11.4 6.0 Q14.5 6.05 16.5 3.55 L16.9 2.5 Q17.05 1.85 16.8 1.45 L16.8 1.4 M4.65 -8.35 L5.3 -8.75 M13.55 -0.2 Q16.0 -2.0 15.65 -4.9 M14.3 -6.65 L13.95 -7.1 13.55 -7.45 12.6 -8.15 12.3 -8.35 12.2 -8.4 10.25 -9.05 M9.8 -9.05 L9.6 -9.1 M13.5 -8.45 L12.6 -8.15 M13.4 -0.1 L13.3 -0.05 M13.3 0.0 L13.4 -0.1 13.55 -0.2 M10.6 5.2 L9.8 3.75 M9.0 1.5 L8.65 1.5 8.35 1.5 7.95 1.5 7.5 1.45 M10.8 1.15 Q12.05 0.75 13.3 0.0 M3.65 -0.05 L2.1 0.25 1.6 0.3 Q0.7 0.5 -0.3 1.65 L-1.4 2.8 Q-1.8 3.2 -2.5 3.3 L-3.0 3.35 -1.95 5.75 M3.7 2.6 Q2.75 4.45 2.55 6.1 L2.55 7.85 M4.2 7.85 L4.55 7.45 4.85 7.45 5.3 6.8 5.25 4.8 Q5.3 3.0 6.15 1.15 M6.8 7.75 L7.3 7.05 7.55 7.0 7.7 5.8 M6.45 8.35 L6.8 7.75 M6.45 8.35 L6.05 8.95 Q5.5 8.1 5.3 6.8 M3.85 8.3 L4.2 7.85 M3.1 9.2 L3.15 9.15 3.85 8.3 M12.3 6.6 L11.4 6.0 M9.0 1.5 L10.8 1.15 M-3.0 3.35 L-3.15 3.35 -4.75 3.6 -5.35 3.25 Q-6.05 3.0 -7.55 3.95 L-7.8 4.15 -9.15 4.4 -9.3 3.95 -10.4 3.85 -10.7 3.95 Q-11.65 4.3 -12.3 5.0 L-16.0 5.6" fill="none" stroke="#9933cc" stroke-linecap="round" stroke-linejoin="round" stroke-width="0.05"/>
    <path d="M-1.35 -3.35 L-11.4 -1.45 -13.8 3.6 -3.7 1.7 -1.35 -3.35" fill="none" stroke="#d7ebfd" stroke-linecap="round" stroke-linejoin="round" stroke-width="0.05"/>
  </g>
</svg>
