<?xml version="1.0" encoding="UTF-8" standalone="no"?>
<svg xmlns:xlink="http://www.w3.org/1999/xlink" height="16.55px" width="13.75px" xmlns="http://www.w3.org/2000/svg">
  <g transform="matrix(1.0, 0.0, 0.0, 1.0, 9.0, 10.6)">
    <path d="M-6.7 4.7 L-7.85 3.3 Q-9.25 1.4 -8.95 -0.2 L-8.6 -3.0 -8.35 -5.0 Q-7.9 -7.0 -6.45 -8.5 -4.5 -10.6 -1.7 -10.6 1.05 -10.6 2.95 -8.5 L3.5 -7.8 Q5.3 -2.75 -0.4 0.25 L0.45 3.0 Q-0.2 4.05 -1.55 4.7 -3.1 5.4 -5.5 5.7 L-6.7 4.7 M1.45 -0.3 L1.55 -0.55 2.45 -1.2 Q3.05 -1.35 3.3 -0.75 L3.45 0.45 3.4 0.8 Q3.2 0.15 2.5 -0.15 L2.1 0.4 Q1.45 0.5 1.35 0.1 L1.35 -0.1 1.4 -0.15 1.45 -0.3 M-6.8 -0.1 Q-6.5 -1.2 -6.95 -2.1 -7.9 -3.15 -8.15 -1.1 L-7.6 -0.1 -6.8 -0.1 -7.2 1.1 -6.8 -0.1 M-5.35 1.85 Q-6.95 1.8 -7.2 1.1 -7.35 1.65 -7.0 2.0 L-5.35 1.85 M-3.9 3.85 Q-5.55 4.1 -6.5 3.4 -5.55 4.1 -3.9 3.85 M-2.2 1.2 Q-2.5 -1.1 -4.2 -1.1 -4.65 -0.3 -4.7 1.05 L-2.2 1.2" fill="#fededa" fill-rule="evenodd" stroke="none"/>
    <path d="M-5.5 5.7 Q-3.1 5.4 -1.55 4.7 -0.2 4.05 0.45 3.0 L-0.4 0.25 Q5.3 -2.75 3.5 -7.8 4.35 -6.6 4.65 -5.05 L4.65 -4.8 4.75 -3.35 Q4.65 -0.95 3.35 1.0 L3.3 1.3 3.2 1.6 3.15 1.7 3.15 1.75 3.0 2.05 2.15 2.65 0.1 4.7 Q-2.45 6.5 -5.5 5.7 M2.1 0.4 L2.5 -0.15 Q3.2 0.15 3.4 0.8 L3.45 0.45 3.3 -0.75 Q3.05 -1.35 2.45 -1.2 L1.55 -0.55 1.45 -0.3 1.4 -0.15 1.35 -0.1 1.35 0.1 Q1.45 0.5 2.1 0.4 L1.95 0.9 1.95 0.95 1.95 1.05 2.5 1.55 1.95 1.05 1.95 0.95 1.95 0.9 2.1 0.4 M1.95 1.8 L1.95 1.05 1.95 1.8 M3.35 1.0 L3.4 0.8 3.35 1.0 M-7.2 1.1 Q-6.95 1.8 -5.35 1.85 L-7.0 2.0 Q-7.35 1.65 -7.2 1.1" fill="#fbc8c6" fill-rule="evenodd" stroke="none"/>
    <path d="M3.5 -7.8 L2.95 -8.5 Q1.05 -10.6 -1.7 -10.6 -4.5 -10.6 -6.45 -8.5 -7.9 -7.0 -8.35 -5.0 L-8.6 -3.0 -8.95 -0.2 Q-9.25 1.4 -7.85 3.3 L-6.7 4.7 M3.5 -7.8 Q4.35 -6.6 4.65 -5.05 L4.65 -4.8 4.75 -3.35 Q4.65 -0.95 3.35 1.0 L3.3 1.3 3.2 1.6 3.15 1.7 3.15 1.75 3.0 2.05 2.15 2.65 0.1 4.7 M2.1 0.4 L2.5 -0.15 Q3.2 0.15 3.4 0.8 L3.45 0.45 3.3 -0.75 Q3.05 -1.35 2.45 -1.2 L1.55 -0.55 1.45 -0.3 M2.1 0.4 L1.95 0.9 1.95 0.95 1.95 1.05 2.5 1.55 M3.4 0.8 L3.35 1.0 M1.95 1.05 L1.95 1.8 M-6.8 -0.1 L-7.6 -0.1 -8.15 -1.1 Q-7.9 -3.15 -6.95 -2.1 -6.5 -1.2 -6.8 -0.1 L-7.2 1.1 Q-7.35 1.65 -7.0 2.0 L-5.35 1.85 M-6.5 3.4 Q-5.55 4.1 -3.9 3.85 M-2.2 1.2 Q-2.5 -1.1 -4.2 -1.1 -4.65 -0.3 -4.7 1.05 L-2.2 1.2" fill="none" stroke="#ed8e78" stroke-linecap="round" stroke-linejoin="round" stroke-width="0.05"/>
    <path d="M-6.7 4.7 L-5.5 5.7 Q-2.45 6.5 0.1 4.7" fill="none" stroke="#ed8e78" stroke-linecap="round" stroke-linejoin="round" stroke-width="0.05"/>
  </g>
</svg>
