<?xml version="1.0" encoding="UTF-8" standalone="no"?>
<svg xmlns:xlink="http://www.w3.org/1999/xlink" height="85.3px" width="50.9px" xmlns="http://www.w3.org/2000/svg">
  <g transform="matrix(1.0, 0.0, 0.0, 1.0, 25.45, 42.65)">
    <path d="M-7.6 -16.55 L-10.15 -18.75 Q-13.95 -22.85 -13.95 -28.65 -13.95 -34.45 -10.15 -38.55 -6.35 -42.65 -1.0 -42.65 4.35 -42.65 8.15 -38.55 11.95 -34.45 11.95 -28.65 11.95 -22.85 8.15 -18.75 L7.05 -17.65 Q3.6 -14.65 -1.0 -14.65 -4.65 -14.65 -7.6 -16.55 M6.45 -12.6 L8.25 -11.1 Q10.55 -8.8 11.35 -5.85 11.75 -4.35 11.75 -2.65 11.75 0.6 10.25 3.2 9.45 4.55 8.25 5.75 4.85 9.2 0.05 9.25 L-0.05 9.25 Q-5.2 9.15 -8.6 5.75 L-10.55 3.25 Q-12.05 0.65 -12.05 -2.65 -12.05 -4.35 -11.65 -5.85 -10.9 -8.8 -8.6 -11.1 L-7.0 -12.4 Q0.55 -5.7 6.45 -12.6 M-9.1 -37.25 Q-11.2 -35.15 -11.2 -32.15 -11.2 -29.15 -9.1 -27.05 -7.0 -24.95 -4.0 -24.95 -1.0 -24.95 1.1 -27.05 3.2 -29.15 3.2 -32.15 3.2 -35.15 1.1 -37.25 -1.0 -39.35 -4.0 -39.35 -7.0 -39.35 -9.1 -37.25 M-2.05 -5.9 Q-3.1 -7.35 -4.6 -7.35 -6.1 -7.35 -7.2 -5.9 -8.25 -4.4 -8.25 -2.35 -8.25 -0.3 -7.2 1.15 -6.1 2.65 -4.6 2.65 -3.1 2.65 -2.05 1.15 -0.95 -0.3 -0.95 -2.35 -0.95 -4.4 -2.05 -5.9" fill="#63ad96" fill-rule="evenodd" stroke="none"/>
    <path d="M-9.1 -37.25 Q-7.0 -39.35 -4.0 -39.35 -1.0 -39.35 1.1 -37.25 3.2 -35.15 3.2 -32.15 3.2 -29.15 1.1 -27.05 -1.0 -24.95 -4.0 -24.95 -7.0 -24.95 -9.1 -27.05 -11.2 -29.15 -11.2 -32.15 -11.2 -35.15 -9.1 -37.25 M-2.05 -5.9 Q-0.95 -4.4 -0.95 -2.35 -0.95 -0.3 -2.05 1.15 -3.1 2.65 -4.6 2.65 -6.1 2.65 -7.2 1.15 -8.25 -0.3 -8.25 -2.35 -8.25 -4.4 -7.2 -5.9 -6.1 -7.35 -4.6 -7.35 -3.1 -7.35 -2.05 -5.9" fill="#8bc2b1" fill-rule="evenodd" stroke="none"/>
    <path d="M-7.6 -16.55 Q-4.65 -14.65 -1.0 -14.65 3.6 -14.65 7.05 -17.65 7.0 -14.95 6.45 -12.6 0.55 -5.7 -7.0 -12.4 -7.5 -14.35 -7.6 -16.55 M10.25 3.2 L20.9 7.9 Q17.6 9.6 14.25 11.25 L13.4 11.7 11.4 12.7 11.3 12.75 0.05 18.35 0.05 9.25 Q4.85 9.2 8.25 5.75 9.45 4.55 10.25 3.2" fill="#509681" fill-rule="evenodd" stroke="none"/>
    <path d="M-23.8 27.6 L-25.3 26.85 -25.3 25.6 Q-12.65 31.9 -0.05 38.25 L0.0 38.3 -0.05 39.5 -23.8 27.6 M-22.9 23.3 Q-22.05 23.2 -21.85 22.4 L-0.05 33.3 0.0 33.35 0.0 34.8 -22.9 23.3 M-21.85 9.25 Q-20.95 9.15 -20.75 7.9 L0.05 18.35 0.0 20.2 -21.85 9.25" fill="#888d95" fill-rule="evenodd" stroke="none"/>
    <path d="M-25.05 25.45 Q-23.2 25.4 -22.9 23.3 L0.0 34.8 0.0 38.05 -25.05 25.45 M-21.85 22.15 L-21.85 17.5 -21.1 17.5 -21.85 16.35 -21.35 16.35 -21.85 15.9 -21.85 9.25 0.0 20.2 0.0 25.65 -0.75 25.65 0.0 27.95 0.0 33.1 -21.8 22.15 -21.85 22.15" fill="#5ba891" fill-rule="evenodd" stroke="none"/>
    <path d="M21.9 22.1 L21.95 22.1 22.0 22.15 22.05 22.25 21.95 22.3 21.9 22.35 Q11.0 27.8 0.05 33.3 L0.0 33.35 -0.05 33.3 -21.85 22.4 -21.9 22.35 -21.95 22.3 -21.95 22.2 -21.9 22.15 -21.85 22.15 -21.8 22.15 0.0 33.1 21.85 22.1 21.9 22.1 M25.2 25.35 L25.25 25.3 25.35 25.3 25.4 25.35 25.45 25.45 25.35 25.5 25.3 25.55 0.05 38.25 0.0 38.3 -0.05 38.25 Q-12.65 31.9 -25.3 25.6 L-25.35 25.55 -25.4 25.5 -25.4 25.4 -25.35 25.35 -25.25 25.35 -25.05 25.45 0.0 38.05 25.2 25.35" fill="#565865" fill-rule="evenodd" stroke="none"/>
    <path d="M0.15 42.65 L-22.3 30.5 -23.8 27.6 -0.05 39.5 0.0 39.5 0.15 42.65" fill="#ae5331" fill-rule="evenodd" stroke="none"/>
    <path d="M20.9 7.9 Q20.85 8.95 21.9 9.2 L21.9 9.25 0.0 20.2 0.05 18.35 11.3 12.75 11.4 12.7 13.4 11.7 14.25 11.25 Q17.6 9.6 20.9 7.9 M21.9 22.35 Q22.0 23.0 23.0 23.25 L0.0 34.8 0.0 33.35 0.05 33.3 Q11.0 27.8 21.9 22.35 M25.3 25.55 L25.3 26.8 23.7 27.6 0.0 39.5 -0.05 39.5 0.0 38.3 0.05 38.25 25.3 25.55" fill="#6c7279" fill-rule="evenodd" stroke="none"/>
    <path d="M21.9 9.25 L21.9 9.2 21.9 9.25" fill="#ced0d5" fill-rule="evenodd" stroke="none"/>
    <path d="M21.9 9.25 L21.9 16.8 21.15 17.75 19.75 19.65 20.45 19.95 21.15 20.25 21.9 20.65 21.9 22.1 21.85 22.1 0.0 33.1 0.0 27.95 -0.75 25.65 0.0 25.65 0.0 20.2 21.9 9.25 M23.0 23.25 Q22.95 24.65 25.2 25.35 L0.0 38.05 0.0 34.8 23.0 23.25 M16.0 17.9 L17.2 18.5 16.0 17.9 M16.6 14.7 L16.9 16.65 16.6 14.7 16.45 13.55 16.6 14.7 18.25 12.7 16.6 14.7 M18.45 19.05 L19.75 19.65 18.45 19.05 16.9 16.65 17.2 18.5 18.45 19.05 M19.9 21.1 L20.45 19.95 19.9 21.1" fill="#417a68" fill-rule="evenodd" stroke="none"/>
    <path d="M-20.75 7.9 L-10.55 3.25 -8.6 5.75 Q-5.2 9.15 -0.05 9.25 L0.05 9.25 0.05 18.35 -20.75 7.9" fill="#a8d0c4" fill-rule="evenodd" stroke="none"/>
    <path d="M21.15 17.75 L21.15 20.25 20.45 19.95 19.75 19.65 21.15 17.75 M18.45 19.05 L17.2 18.5 16.9 16.65 18.45 19.05" fill="#9cc9b8" fill-rule="evenodd" stroke="none"/>
    <path d="M23.7 27.6 L22.0 30.8 0.15 42.65 0.0 39.5 23.7 27.6" fill="#713520" fill-rule="evenodd" stroke="none"/>
    <path d="M7.05 -17.65 L8.15 -18.75 Q11.95 -22.85 11.95 -28.65 11.95 -34.45 8.15 -38.55 4.35 -42.65 -1.0 -42.65 -6.35 -42.65 -10.15 -38.55 -13.95 -34.45 -13.95 -28.65 -13.95 -22.85 -10.15 -18.75 L-7.6 -16.55 Q-4.65 -14.65 -1.0 -14.65 3.6 -14.65 7.05 -17.65 7.0 -14.95 6.45 -12.6 L8.25 -11.1 Q10.55 -8.8 11.35 -5.85 11.75 -4.35 11.75 -2.65 11.75 0.6 10.25 3.2 L20.9 7.9 Q20.85 8.95 21.9 9.2 L21.95 9.25 21.9 9.25 21.9 16.8 M21.15 17.75 L21.15 20.25 21.9 20.65 21.9 22.1 M21.9 22.35 Q22.0 23.0 23.0 23.25 22.95 24.65 25.2 25.35 M25.3 25.55 L25.3 26.8 23.7 27.6 0.0 39.5 -0.05 39.5 -23.8 27.6 -25.3 26.85 -25.3 25.6 M-25.05 25.45 Q-23.2 25.4 -22.9 23.3 -22.05 23.2 -21.85 22.4 M-21.85 22.15 L-21.85 17.5 -21.1 17.5 -21.85 16.35 -21.35 16.35 -21.85 15.9 -21.85 9.25 Q-20.95 9.15 -20.75 7.9 L-10.55 3.25 Q-12.05 0.65 -12.05 -2.65 -12.05 -4.35 -11.65 -5.85 -10.9 -8.8 -8.6 -11.1 L-7.0 -12.4 Q-7.5 -14.35 -7.6 -16.55 M0.0 33.1 L0.0 27.95 -0.75 25.65 0.0 25.65 0.0 20.2 -21.85 9.25 M10.25 3.2 Q9.45 4.55 8.25 5.75 4.85 9.2 0.05 9.25 L0.05 18.35 11.3 12.75 11.4 12.7 13.4 11.7 M14.25 11.25 Q17.6 9.6 20.9 7.9 M21.9 9.25 L21.9 9.2 M0.05 9.25 L-0.05 9.25 Q-5.2 9.15 -8.6 5.75 L-10.55 3.25 M0.05 18.35 L0.0 20.2 21.9 9.25 M0.0 33.35 L0.0 34.8 23.0 23.25 M16.45 13.55 L16.6 14.7 18.25 12.7 M16.9 16.65 L16.6 14.7 M17.2 18.5 L16.0 17.9 M20.45 19.95 L19.75 19.65 18.45 19.05 17.2 18.5 16.9 16.65 18.45 19.05 M21.15 20.25 L20.45 19.95 M-7.0 -12.4 Q0.55 -5.7 6.45 -12.6 M-0.05 39.5 L0.0 38.3 M0.0 38.05 L0.0 34.8 -22.9 23.3 M-20.75 7.9 L0.05 18.35" fill="none" stroke="#356251" stroke-linecap="round" stroke-linejoin="round" stroke-width="0.05"/>
    <path d="M23.7 27.6 L22.0 30.8 0.15 42.65 -22.3 30.5 -23.8 27.6 M0.15 42.65 L0.0 39.5" fill="none" stroke="#db8f7d" stroke-linecap="round" stroke-linejoin="round" stroke-width="0.05"/>
    <path d="M21.9 16.8 L21.15 17.75 19.75 19.65 M13.4 11.7 L14.25 11.25 M20.45 19.95 L19.9 21.1" fill="none" stroke="#356251" stroke-linecap="round" stroke-linejoin="round" stroke-width="0.05"/>
  </g>
</svg>
