<?xml version="1.0" encoding="UTF-8" standalone="no"?>
<svg xmlns:xlink="http://www.w3.org/1999/xlink" height="31.3px" width="11.5px" xmlns="http://www.w3.org/2000/svg">
  <g transform="matrix(1.0, 0.0, 0.0, 1.0, 6.65, 31.5)">
    <path d="M1.6 -13.55 L1.1 -1.6 -0.6 -1.25 Q-1.5 -1.5 -2.15 -2.1 L-2.25 -7.2 Q-2.45 -10.85 -2.8 -14.3 L1.6 -13.55 M-3.95 -27.75 L-2.7 -29.15 Q-0.25 -29.5 1.05 -27.15 1.95 -23.85 2.15 -19.85 L2.2 -19.35 1.9 -14.3 -4.35 -15.05 -4.5 -16.0 Q-5.15 -18.3 -4.9 -21.9 -4.65 -25.0 -3.95 -27.75" fill="#ffdfc8" fill-rule="evenodd" stroke="none"/>
    <path d="M-2.8 -14.3 Q-2.45 -10.85 -2.25 -7.2 L-2.15 -2.1 Q-1.5 -1.5 -0.6 -1.25 L1.1 -1.6 1.6 -13.55 M1.9 -14.3 L2.2 -19.35 2.15 -19.85 Q1.95 -23.85 1.05 -27.15 -0.25 -29.5 -2.7 -29.15 L-3.95 -27.75 Q-4.65 -25.0 -4.9 -21.9 -5.15 -18.3 -4.5 -16.0 L-4.35 -15.05" fill="none" stroke="#d7995e" stroke-linecap="round" stroke-linejoin="round" stroke-width="0.05"/>
    <path d="M-6.45 -24.4 L-6.4 -24.35 -6.45 -24.35 -6.45 -24.4" fill="#8e8e8e" fill-rule="evenodd" stroke="none"/>
    <path d="M-4.85 -14.8 Q-6.15 -15.4 -6.65 -18.25 L-6.2 -30.3 Q-2.3 -33.65 2.8 -27.75 L4.85 -16.5 2.6 -13.5 Q-2.7 -11.15 -4.85 -14.8" fill="#414f35" fill-rule="evenodd" stroke="none"/>
    <path d="M-4.85 -14.8 Q-2.7 -11.15 2.6 -13.5 L2.7 -13.5 2.7 -6.5 2.65 -4.4 2.6 -3.25 2.55 -3.05 2.45 -2.55 2.2 -1.75 Q1.4 -0.05 -0.75 -0.2 -3.3 -0.1 -4.25 -1.75 L-4.6 -2.55 -4.75 -3.05 -4.8 -3.25 -4.8 -3.3 -4.8 -4.15 -4.8 -5.45 -4.85 -7.8 -4.85 -14.8" fill="#ffffff" fill-rule="evenodd" stroke="none"/>
    <path d="M2.6 -13.5 L4.85 -16.5 2.8 -27.75 Q-2.3 -33.65 -6.2 -30.3 L-6.65 -18.25 Q-6.15 -15.4 -4.85 -14.8" fill="none" stroke="#324824" stroke-linecap="round" stroke-linejoin="round" stroke-width="0.05"/>
    <path d="M-4.85 -14.8 Q-2.7 -11.15 2.6 -13.5" fill="none" stroke="#666666" stroke-linecap="round" stroke-linejoin="round" stroke-width="0.05"/>
    <path d="M2.6 -13.5 L2.7 -13.5 2.7 -6.5 2.65 -4.4 2.6 -3.25 2.55 -3.05 2.45 -2.55 2.2 -1.75 M-4.25 -1.75 L-4.6 -2.55 -4.75 -3.05 -4.8 -3.25 -4.8 -3.3 -4.8 -4.15 -4.8 -5.45 -4.85 -7.8 -4.85 -14.8" fill="none" stroke="#999999" stroke-linecap="round" stroke-linejoin="round" stroke-width="0.05"/>
  </g>
</svg>
