<?xml version="1.0" encoding="UTF-8" standalone="no"?>
<svg xmlns:xlink="http://www.w3.org/1999/xlink" height="15.35px" width="19.7px" xmlns="http://www.w3.org/2000/svg">
  <g transform="matrix(1.0, 0.0, 0.0, 1.0, 9.7, 2.6)">
    <path d="M-7.5 0.9 Q-7.95 -0.65 -8.05 -2.6 -7.35 -2.0 -5.9 -1.55 L-4.05 -1.1 -3.6 -1.0 -2.75 -0.95 2.45 -0.7 3.95 -0.7 Q5.45 -0.85 6.6 -1.45 7.4 0.8 6.25 2.95 L4.2 5.15 Q2.45 6.5 0.3 6.65 L-0.35 6.65 -0.5 6.65 -1.0 6.65 -1.55 6.55 -2.35 6.4 -2.55 6.35 Q-4.4 5.8 -5.65 4.5 -6.9 3.15 -7.5 0.9" fill="#f2f2f2" fill-rule="evenodd" stroke="none"/>
    <path d="M-2.55 6.35 L-2.35 6.4 -1.55 6.55 -1.0 6.65 -0.5 6.65 -0.35 6.65 0.3 6.65 Q2.45 6.5 4.2 5.15 L6.25 2.95 Q7.4 0.8 6.6 -1.45 5.45 -0.85 3.95 -0.7 L2.45 -0.7 -2.75 -0.95 -3.6 -1.0 -4.05 -1.1 -5.9 -1.55 Q-7.35 -2.0 -8.05 -2.6 -7.95 -0.65 -7.5 0.9" fill="none" stroke="#a0a0a0" stroke-linecap="round" stroke-linejoin="round" stroke-width="0.05"/>
    <path d="M3.9 -1.35 L6.6 -1.45 Q10.45 2.3 9.95 10.65 7.65 12.0 5.45 12.5 5.75 5.95 3.9 -1.35" fill="#336633" fill-rule="evenodd" stroke="none"/>
    <path d="M5.45 12.5 L2.35 12.75 -1.6 12.65 -2.5 12.6 -3.55 11.75 Q-4.1 11.1 -4.55 10.95 -4.9 10.8 -5.15 10.95 -7.5 10.65 -9.7 8.05 -9.45 1.2 -8.05 -2.6 -4.7 -1.25 3.85 -1.35 L3.9 -1.35 Q5.75 5.95 5.45 12.5 M-1.95 6.85 L-1.6 12.65 -1.95 6.85 M-3.55 11.75 L-3.55 9.35 -3.55 11.75 M-5.4 7.85 L-5.15 10.95 -5.4 7.85" fill="#54833f" fill-rule="evenodd" stroke="none"/>
    <path d="M3.9 -1.35 L6.6 -1.45 Q10.45 2.3 9.95 10.65 7.65 12.0 5.45 12.5 L2.35 12.75 -1.6 12.65 -2.5 12.6 -3.55 11.75 Q-4.1 11.1 -4.55 10.95 -4.9 10.8 -5.15 10.95 -7.5 10.65 -9.7 8.05 -9.45 1.2 -8.05 -2.6 -4.7 -1.25 3.85 -1.35 L3.9 -1.35 M-5.15 10.95 L-5.4 7.85 M-3.55 9.35 L-3.55 11.75 M-1.6 12.65 L-1.95 6.85" fill="none" stroke="#324824" stroke-linecap="round" stroke-linejoin="round" stroke-width="0.05"/>
  </g>
</svg>
