<?xml version="1.0" encoding="UTF-8" standalone="no"?>
<svg xmlns:xlink="http://www.w3.org/1999/xlink" height="31.45px" width="20.9px" xmlns="http://www.w3.org/2000/svg">
  <g transform="matrix(1.0, 0.0, 0.0, 1.0, 10.9, 13.15)">
    <path d="M2.35 -8.25 Q1.7 -8.15 0.45 -7.3 L-4.85 -6.95 -5.25 -7.65 -5.35 -7.8 -5.35 -7.85 -5.35 -7.9 -5.25 -8.65 -6.25 -8.0 -7.45 -8.45 -7.6 -8.5 -5.25 -8.75 -5.25 -8.65 -5.2 -8.75 Q-4.85 -11.05 -5.3 -12.75 -0.7 -13.6 2.4 -12.7 L2.2 -11.3 2.2 -11.05 Q2.1 -9.6 2.35 -8.25" fill="#ffd0ae" fill-rule="evenodd" stroke="none"/>
    <path d="M2.35 -8.25 L2.5 -7.65 2.95 -7.45 3.5 -7.25 4.8 -6.65 Q5.9 2.75 -7.55 0.0 -9.85 -4.75 -7.45 -8.45 L-6.25 -8.0 -5.25 -8.65 -5.35 -7.9 -5.35 -7.85 -5.35 -7.8 -5.25 -7.65 -4.85 -6.95 0.45 -7.3 Q1.7 -8.15 2.35 -8.25" fill="#ffdfc8" fill-rule="evenodd" stroke="none"/>
    <path d="M-5.2 -8.75 L-5.25 -8.65 -5.25 -8.75 -5.2 -8.75" fill="#eebf5a" fill-rule="evenodd" stroke="none"/>
    <path d="M4.8 -6.65 L3.5 -7.25 2.95 -7.45 2.5 -7.65 2.35 -8.25 Q2.1 -9.6 2.2 -11.05 L2.2 -11.3 2.4 -12.7 Q-0.7 -13.6 -5.3 -12.75 -4.85 -11.05 -5.2 -8.75 L-5.25 -8.65 -5.35 -7.9 -5.35 -7.85 -5.35 -7.8 M-5.25 -8.75 L-7.6 -8.5 M-5.2 -8.75 L-5.25 -8.75" fill="none" stroke="#674743" stroke-linecap="round" stroke-linejoin="round" stroke-width="0.05"/>
    <path d="M2.0 15.0 L3.8 14.8 3.9 14.75 4.2 14.7 Q5.55 14.35 6.25 13.8 6.9 14.45 6.95 15.3 L6.8 16.2 Q3.85 17.95 -1.05 17.95 L-1.2 17.95 -1.3 15.1 -1.1 15.1 0.5 15.1 2.0 15.0 2.0 15.65 2.0 15.0" fill="#684942" fill-rule="evenodd" stroke="none"/>
    <path d="M-5.0 16.85 L-7.35 16.35 -7.5 16.2 -8.45 15.4 Q-8.9 13.75 -8.3 12.65 L-8.25 12.5 -8.1 12.3 -8.0 12.5 -7.95 12.65 -7.5 13.2 -7.3 13.4 -6.9 13.7 -5.9 14.2 -5.1 14.5 -5.1 15.0 -5.1 14.5 -5.1 15.0 -5.0 16.85" fill="#956c5e" fill-rule="evenodd" stroke="none"/>
    <path d="M3.0 -5.35 L2.95 -5.35 3.0 -5.35" fill="#b48f87" fill-rule="evenodd" stroke="none"/>
    <path d="M6.55 6.2 L8.55 5.75 8.4 6.15 7.5 8.4 7.3 8.75 7.3 8.8 Q6.2 9.5 5.0 9.45 L5.25 9.05 6.55 6.2 M4.85 10.95 Q6.35 11.25 7.3 10.45 L7.3 12.8 6.25 13.8 Q5.55 14.35 4.2 14.7 4.85 14.2 5.25 13.1 L4.85 10.95" fill="#cccccc" fill-rule="evenodd" stroke="none"/>
    <path d="M-3.55 6.85 L-3.3 6.9 0.1 7.1 0.5 15.1 -1.1 15.1 -1.3 15.1 -1.35 14.5 -5.15 13.9 -5.15 14.05 -5.1 14.5 -5.9 14.2 -6.15 9.05 -6.15 8.75 -6.2 7.55 -6.25 7.3 -6.3 6.2 -4.6 6.7 -4.5 6.7 -4.1 6.8 -3.55 6.85 M1.6 7.0 L6.55 6.2 5.25 9.05 5.0 9.45 Q3.4 9.3 1.65 7.7 L1.6 7.0 M1.75 9.65 Q3.55 10.7 4.85 10.95 L5.25 13.1 Q4.85 14.2 4.2 14.7 L3.9 14.75 3.8 14.8 2.0 15.0 1.75 9.65 M-8.1 12.3 Q-8.7 11.75 -8.95 10.85 L-9.2 9.45 -7.05 9.5 -6.9 13.7 -7.3 13.4 -7.5 13.2 -7.95 12.65 -8.0 12.5 -8.1 12.3 M-9.2 7.85 L-9.15 7.6 -9.15 7.45 -9.05 6.85 -8.95 4.9 -7.2 5.85 -7.1 7.95 -9.2 7.85" fill="#ffffff" fill-rule="evenodd" stroke="none"/>
    <path d="M3.0 -5.3 L3.0 -5.35 3.05 -5.3 3.0 -5.3 M-5.15 14.05 L-5.1 14.5 -5.15 14.05" fill="#d2c0b7" fill-rule="evenodd" stroke="none"/>
    <path d="M0.1 7.1 L1.6 7.0 1.65 7.7 Q3.4 9.3 5.0 9.45 L4.95 9.55 4.7 9.95 4.65 10.0 4.85 10.95 Q3.55 10.7 1.75 9.65 L2.0 15.0 0.5 15.1 0.1 7.1 M1.65 7.7 L1.75 9.65 1.65 7.7 M-1.3 15.1 L-1.2 17.95 -1.2 18.3 -5.0 17.75 -5.0 16.85 -5.1 15.0 -5.1 14.5 -5.15 14.05 -5.15 13.9 -1.35 14.5 -1.3 15.1 M-9.2 9.45 L-9.2 8.9 -9.2 8.75 -9.2 8.6 -9.2 7.85 -7.1 7.95 -7.2 5.85 -6.3 6.2 -6.25 7.3 -6.2 7.55 -6.15 8.75 -6.15 9.05 -5.9 14.2 -6.9 13.7 -7.05 9.5 -9.2 9.45 M-7.05 9.5 L-7.1 7.95 -7.05 9.5" fill="#855b3f" fill-rule="evenodd" stroke="none"/>
    <path d="M5.35 -6.4 L5.4 -6.4 5.35 -6.4" fill="#52946d" fill-rule="evenodd" stroke="none"/>
    <path d="M3.0 -5.3 L2.95 -5.35 3.0 -5.35 3.0 -5.3 M-7.65 -8.45 L-7.6 -8.45 -7.65 -8.4 -7.65 -8.45" fill="#c1a49d" fill-rule="evenodd" stroke="none"/>
    <path d="M4.3 -10.7 L4.2 -10.4 3.7 -9.5 2.5 -8.15 2.45 -8.15 2.45 -8.1 2.4 -8.05 Q2.0 -8.55 2.15 -11.5 L2.55 -11.45 Q4.3 -11.2 4.3 -10.7 M-7.45 -9.95 Q-7.45 -10.45 -5.75 -10.9 L-5.05 -11.05 -5.15 -9.15 -5.2 -8.75 Q-5.2 -8.65 -6.1 -8.45 L-7.25 -8.25 -7.3 -8.65 -7.4 -9.4 -7.45 -9.9 -7.45 -9.95" fill="#2f553f" fill-rule="evenodd" stroke="none"/>
    <path d="M2.45 -8.1 L2.4 -8.05 2.45 -8.1 M-7.4 -9.4 L-7.3 -8.65 -7.25 -8.25 -7.3 -8.25 -7.3 -8.65 -7.4 -9.4" fill="#674743" fill-rule="evenodd" stroke="none"/>
    <path d="M2.5 -8.15 L3.7 -9.5 4.2 -10.4 4.3 -10.7 Q5.25 -8.8 5.1 -7.15 L5.05 -6.85 5.05 -6.7 4.95 -6.65 4.9 -6.6 2.95 -5.35 3.0 -5.3 Q-0.2 -3.25 -3.0 -2.25 -3.55 1.55 -2.75 5.2 1.6 6.65 6.95 4.95 L6.7 5.8 6.55 6.2 1.6 7.0 0.1 7.1 -3.3 6.9 -3.55 6.85 -4.25 6.15 Q-5.0 2.5 -4.65 -1.9 -5.0 2.5 -4.25 6.15 -4.3 6.7 -4.5 6.7 L-4.6 6.7 -6.3 6.2 -7.2 5.85 -8.95 4.9 -9.1 3.85 Q-7.25 5.2 -5.1 4.85 -5.75 1.45 -5.55 -0.4 -5.35 -2.25 -6.3 -3.2 -7.25 -4.15 -7.55 -5.7 -7.9 -7.3 -7.6 -8.35 L-7.6 -8.45 -7.6 -8.55 Q-7.8 -9.1 -7.6 -9.6 L-7.45 -9.95 -7.45 -9.9 -7.4 -9.4 -7.3 -8.65 -7.3 -8.25 -7.25 -8.25 Q-7.1 -7.3 -5.75 -5.05 -4.4 -2.85 -4.65 -1.9 -4.25 -3.4 -2.85 -4.15 L0.3 -6.25 1.1 -6.9 2.4 -8.05 2.45 -8.1 2.5 -8.15" fill="#ffffcc" fill-rule="evenodd" stroke="none"/>
    <path d="M6.95 4.95 Q1.6 6.65 -2.75 5.2 -3.55 1.55 -3.0 -2.25 -0.2 -3.25 3.0 -5.3 L3.05 -5.3 3.55 -5.15 4.75 -4.7 5.15 -4.55 5.25 -4.45 6.35 -3.8 6.55 -3.7 6.75 -3.55 7.7 -2.3 7.7 -1.85 7.75 -1.05 7.75 -0.75 7.65 0.9 7.6 1.4 7.45 2.65 7.45 2.75 7.35 3.2 6.95 4.95 M-9.1 3.85 Q-9.25 2.75 -9.65 1.75 L-9.7 1.6 -9.75 1.55 Q-10.4 0.45 -10.65 -0.7 -10.95 -1.85 -10.85 -3.0 L-10.45 -5.15 -10.4 -5.2 -9.2 -8.0 -8.15 -8.4 -7.6 -8.55 -7.6 -8.45 -7.6 -8.35 Q-7.9 -7.3 -7.55 -5.7 -7.25 -4.15 -6.3 -3.2 -5.35 -2.25 -5.55 -0.4 -5.75 1.45 -5.1 4.85 -7.25 5.2 -9.1 3.85 M-7.65 -8.4 L-7.6 -8.45 -7.65 -8.45 -7.65 -8.4" fill="#a28fb1" fill-rule="evenodd" stroke="none"/>
    <path d="M5.35 -6.4 L5.4 -6.4 5.35 -6.4 M2.95 -5.35 L4.9 -6.6 4.95 -6.65 5.05 -6.7 5.05 -6.85 6.25 -6.25 8.05 -4.95 8.95 -4.05 9.15 -3.75 9.75 -2.75 10.0 -1.3 9.95 -0.9 9.9 -0.15 9.05 4.05 9.0 4.2 Q8.75 4.7 6.95 4.95 L7.35 3.2 7.45 2.75 7.45 2.65 7.6 1.4 7.65 0.9 7.75 -0.75 7.75 -1.05 7.7 -1.85 7.7 -2.3 6.75 -3.55 6.55 -3.7 6.35 -3.8 5.25 -4.45 5.15 -4.55 4.75 -4.7 3.55 -5.15 3.05 -5.3 3.0 -5.35 2.95 -5.35" fill="#7d6792" fill-rule="evenodd" stroke="none"/>
    <path d="M6.55 6.2 L6.7 5.8 6.95 4.95 Q8.75 4.7 9.0 4.2 L8.55 5.75 6.55 6.2" fill="#fefd85" fill-rule="evenodd" stroke="none"/>
    <path d="M5.0 9.45 Q6.2 9.5 7.3 8.8 L7.3 10.45 Q6.35 11.25 4.85 10.95 L4.65 10.0 4.7 9.95 4.95 9.55 5.0 9.45" fill="#62402f" fill-rule="evenodd" stroke="none"/>
    <path d="M2.0 15.0 L3.8 14.8 3.9 14.75 M0.5 15.1 L2.0 15.0 M0.5 15.1 L-1.1 15.1 -1.3 15.1 M-6.9 13.7 L-5.9 14.2 -5.1 14.5 M-6.9 13.7 L-7.3 13.4 -7.5 13.2 -7.95 12.65 -8.0 12.5 -8.1 12.3" fill="none" stroke="#674743" stroke-linecap="round" stroke-linejoin="round" stroke-width="0.05"/>
    <path d="M3.9 14.75 L4.2 14.7 Q5.55 14.35 6.25 13.8 6.9 14.45 6.95 15.3 L6.8 16.2 Q3.85 17.95 -1.05 17.95 L-1.2 17.95 M-5.0 16.85 L-7.35 16.35 -7.5 16.2 -8.45 15.4 Q-8.9 13.75 -8.3 12.65 L-8.25 12.5 -8.1 12.3" fill="none" stroke="#674743" stroke-linecap="round" stroke-linejoin="round" stroke-width="0.05"/>
    <path d="M7.3 8.8 L7.3 8.75 7.5 8.4 8.4 6.15 8.55 5.75 M7.3 10.45 L7.3 8.8 M6.25 13.8 L7.3 12.8 7.3 10.45 M-8.1 12.3 Q-8.7 11.75 -8.95 10.85 L-9.2 9.45 M-9.2 8.9 L-9.2 8.75 -9.2 8.6 -9.2 7.85 -9.15 7.6 -9.15 7.45 -9.05 6.85 -8.95 4.9 M-9.7 1.6 L-9.75 1.55" fill="none" stroke="#6a4e44" stroke-linecap="round" stroke-linejoin="round" stroke-width="0.05"/>
    <path d="M-1.3 15.1 L-1.2 17.95 -1.2 18.3 -5.0 17.75 -5.0 16.85 -5.1 15.0 -5.1 14.5 -5.15 14.05 -5.15 13.9 -1.35 14.5 -1.3 15.1" fill="none" stroke="#493230" stroke-linecap="round" stroke-linejoin="round" stroke-width="0.05"/>
    <path d="M4.3 -10.7 Q4.3 -11.2 2.55 -11.45 L2.15 -11.5 M-7.45 -9.95 Q-7.45 -10.45 -5.75 -10.9 L-5.05 -11.05 M-7.65 -8.4 L-7.6 -8.45 -7.65 -8.45" fill="none" stroke="#30543c" stroke-linecap="round" stroke-linejoin="round" stroke-width="0.05"/>
    <path d="M-7.4 -9.4 L-7.3 -8.65 -7.25 -8.25" fill="none" stroke="#30543c" stroke-linecap="round" stroke-linejoin="round" stroke-width="0.05"/>
    <path d="M4.3 -10.7 L4.2 -10.4 3.7 -9.5 2.5 -8.15 2.45 -8.1 2.4 -8.05 1.1 -6.9 0.3 -6.25 -2.85 -4.15 Q-4.25 -3.4 -4.65 -1.9 -5.0 2.5 -4.25 6.15 L-3.55 6.85 -3.3 6.9 0.1 7.1 1.6 7.0 6.55 6.2 8.55 5.75 M6.95 4.95 Q1.6 6.65 -2.75 5.2 -3.55 1.55 -3.0 -2.25 -0.2 -3.25 3.0 -5.3 M2.95 -5.35 L4.9 -6.6 4.95 -6.65 5.05 -6.7 5.05 -6.85 5.1 -7.15 Q5.25 -8.8 4.3 -10.7 M6.95 4.95 Q8.75 4.7 9.0 4.2 L9.05 4.05 M1.6 7.0 L1.65 7.7 1.75 9.65 2.0 15.0 2.0 15.65 M0.1 7.1 L0.5 15.1 M-7.6 -8.55 Q-7.8 -9.1 -7.6 -9.6 L-7.45 -9.95 M-7.6 -8.55 L-7.6 -8.45 -7.6 -8.35 Q-7.9 -7.3 -7.55 -5.7 -7.25 -4.15 -6.3 -3.2 -5.35 -2.25 -5.55 -0.4 -5.75 1.45 -5.1 4.85 -7.25 5.2 -9.1 3.85 M-7.2 5.85 L-6.3 6.2 -4.6 6.7 -4.5 6.7 Q-4.3 6.7 -4.25 6.15 M-8.95 4.9 L-7.2 5.85 -7.1 7.95 -7.05 9.5 -6.9 13.7 M-5.9 14.2 L-6.15 9.05 M-6.15 8.75 L-6.2 7.55 M-6.25 7.3 L-6.3 6.2" fill="none" stroke="#42374d" stroke-linecap="round" stroke-linejoin="round" stroke-width="0.05"/>
    <path d="M9.05 4.05 L9.9 -0.15 9.95 -0.9 10.0 -1.3 9.75 -2.75 9.15 -3.75 8.95 -4.05 8.05 -4.95 6.25 -6.25 5.05 -6.85 M8.55 5.75 L9.0 4.2 M-8.95 4.9 L-9.1 3.85 Q-9.25 2.75 -9.65 1.75 L-9.7 1.6 M-9.75 1.55 Q-10.4 0.45 -10.65 -0.7 -10.95 -1.85 -10.85 -3.0 L-10.45 -5.15 -10.4 -5.2 M-9.2 -8.0 L-8.15 -8.4 -7.6 -8.55 M-7.25 -8.25 Q-7.1 -7.3 -5.75 -5.05 -4.4 -2.85 -4.65 -1.9 M-7.4 -9.4 L-7.45 -9.9 -7.45 -9.95" fill="none" stroke="#42374d" stroke-linecap="round" stroke-linejoin="round" stroke-width="0.05"/>
    <path d="M5.0 9.45 Q6.2 9.5 7.3 8.8 L7.5 8.4 M1.65 7.7 Q3.4 9.3 5.0 9.45 M4.85 10.95 Q6.35 11.25 7.3 10.45 M4.85 10.95 Q3.55 10.7 1.75 9.65 M-9.2 9.45 L-9.2 8.9 M-6.15 9.05 L-6.15 8.75 M-6.2 7.55 L-6.25 7.3 M-9.2 9.45 L-7.05 9.5 M-7.1 7.95 L-9.2 7.85" fill="none" stroke="#4e3325" stroke-linecap="round" stroke-linejoin="round" stroke-width="0.05"/>
  </g>
</svg>
