<?xml version="1.0" encoding="UTF-8" standalone="no"?>
<svg xmlns:xlink="http://www.w3.org/1999/xlink" height="6.6px" width="12.2px" xmlns="http://www.w3.org/2000/svg">
  <g transform="matrix(1.0, 0.0, 0.0, 1.0, 6.1, 3.3)">
    <path d="M-4.35 -2.35 L-5.05 -1.5 -5.2 -0.7 Q-5.2 0.5 -3.6 1.4 -2.0 2.3 0.35 2.3 2.65 2.3 4.25 1.4 L4.95 0.95 Q5.85 0.2 5.9 -0.7 L5.85 -0.95 6.1 0.0 5.95 0.85 Q5.55 1.65 4.3 2.3 2.55 3.3 0.0 3.3 -2.55 3.3 -4.35 2.3 -6.1 1.35 -6.1 0.0 -6.1 -1.05 -5.05 -1.85 L-4.35 -2.35" fill="#ffde59" fill-rule="evenodd" stroke="none"/>
    <path d="M5.85 -0.95 L5.9 -0.7 Q5.85 0.2 4.95 0.95 L4.25 1.4 Q2.65 2.3 0.35 2.3 -2.0 2.3 -3.6 1.4 -5.2 0.5 -5.2 -0.7 L-5.05 -1.5 -4.35 -2.35 Q-2.55 -3.3 0.0 -3.3 2.55 -3.3 4.3 -2.35 5.45 -1.7 5.85 -0.95" fill="#fee89e" fill-rule="evenodd" stroke="none"/>
    <path d="M-4.35 -2.35 L-5.05 -1.85 Q-6.1 -1.05 -6.1 0.0 -6.1 1.35 -4.35 2.3 -2.55 3.3 0.0 3.3 2.55 3.3 4.3 2.3 5.55 1.65 5.95 0.85 L6.1 0.0 5.85 -0.95 Q5.45 -1.7 4.3 -2.35 2.55 -3.3 0.0 -3.3 -2.55 -3.3 -4.35 -2.35 Z" fill="none" stroke="#e4b001" stroke-linecap="round" stroke-linejoin="round" stroke-width="0.05"/>
  </g>
</svg>
