<?xml version="1.0" encoding="UTF-8" standalone="no"?>
<svg xmlns:xlink="http://www.w3.org/1999/xlink" height="15.2px" width="6.1px" xmlns="http://www.w3.org/2000/svg">
  <g transform="matrix(1.0, 0.0, 0.0, 1.0, 2.35, 0.1)">
    <path d="M2.05 8.8 L1.75 14.75 Q0.65 15.7 -0.05 14.2 -0.3 11.1 -0.8 8.25 L2.05 8.8" fill="#ffdfc8" fill-rule="evenodd" stroke="none"/>
    <path d="M1.75 14.75 L2.05 8.8 M-0.8 8.25 Q-0.3 11.1 -0.05 14.2" fill="none" stroke="#d7995e" stroke-linecap="round" stroke-linejoin="round" stroke-width="0.05"/>
    <path d="M-1.75 6.05 Q1.7 7.75 2.9 6.45 L2.95 6.65 3.75 8.75 3.15 9.05 2.0 9.4 0.6 9.5 -0.7 8.8 -1.75 8.1 -2.35 7.55 -1.75 6.05 M3.15 9.05 L-1.75 8.1 3.15 9.05" fill="#ded1cb" fill-rule="evenodd" stroke="none"/>
    <path d="M-1.75 6.05 L-1.45 4.4 Q-1.5 3.0 -1.05 1.6 -0.5 -0.7 1.15 0.15 1.75 1.1 2.3 3.65 L2.3 3.7 2.9 6.45 Q1.7 7.75 -1.75 6.05" fill="#af937e" fill-rule="evenodd" stroke="none"/>
    <path d="M2.9 6.45 L2.95 6.65" fill="none" stroke="#754d4d" stroke-linecap="round" stroke-linejoin="round" stroke-width="0.05"/>
    <path d="M2.9 6.45 L2.3 3.7 2.3 3.65 Q1.75 1.1 1.15 0.15 -0.5 -0.7 -1.05 1.6 -1.5 3.0 -1.45 4.4 L-1.75 6.05 -2.35 7.55 -1.75 8.1 -0.7 8.8 0.6 9.5 2.0 9.4 3.15 9.05 3.75 8.75 2.95 6.65" fill="none" stroke="#594337" stroke-linecap="round" stroke-linejoin="round" stroke-width="0.05"/>
  </g>
</svg>
