<?xml version="1.0" encoding="UTF-8" standalone="no"?>
<svg xmlns:xlink="http://www.w3.org/1999/xlink" height="7.95px" width="14.2px" xmlns="http://www.w3.org/2000/svg">
  <g transform="matrix(1.0, 0.0, 0.0, 1.0, 3.85, 3.5)">
    <path d="M-3.75 -0.85 Q-3.4 -2.0 -1.85 -2.7 0.0 -3.65 2.5 -3.45 4.7 -3.35 6.25 -2.45 6.8 -1.85 6.85 -1.0 L6.85 -0.95 6.8 -0.6 6.8 -0.4 6.15 0.6 Q4.8 2.1 1.65 2.3 L-2.45 2.1 Q-4.0 1.0 -3.85 -0.35 L-3.75 -0.85" fill="#e6e1c4" fill-rule="evenodd" stroke="none"/>
    <path d="M-2.45 2.1 L1.65 2.3 Q4.8 2.1 6.15 0.6 L6.8 -0.4 6.8 -0.6 6.85 -0.95 6.85 -1.0 Q6.8 -1.85 6.25 -2.45 L8.05 -2.35 Q8.7 0.05 6.7 3.9 L5.45 3.7 2.65 3.4 0.6 3.3 Q-0.7 3.25 -2.35 2.15 L-2.45 2.1" fill="#dad2a9" fill-rule="evenodd" stroke="none"/>
    <path d="M9.1 -2.6 L10.0 -2.85 Q11.15 0.8 8.25 4.45 L7.5 4.1 Q9.8 1.05 9.1 -2.6" fill="#663e43" fill-rule="evenodd" stroke="none"/>
    <path d="M8.05 -2.35 L9.1 -2.6 Q9.8 1.05 7.5 4.1 L6.7 3.9 Q8.7 0.05 8.05 -2.35" fill="#fcfcfc" fill-rule="evenodd" stroke="none"/>
    <path d="M6.25 -2.45 Q4.7 -3.35 2.5 -3.45 0.0 -3.65 -1.85 -2.7 -3.4 -2.0 -3.75 -0.85 M6.25 -2.45 L8.05 -2.35 9.1 -2.6 10.0 -2.85 Q11.15 0.8 8.25 4.45 L7.5 4.1 6.7 3.9 5.45 3.7 2.65 3.4" fill="none" stroke="#4b4421" stroke-linecap="round" stroke-linejoin="round" stroke-width="0.05"/>
    <path d="M6.7 3.9 Q8.7 0.05 8.05 -2.35 M9.1 -2.6 Q9.8 1.05 7.5 4.1" fill="none" stroke="#4b4421" stroke-linecap="round" stroke-linejoin="round" stroke-width="0.05"/>
  </g>
</svg>
