<?xml version="1.0" encoding="UTF-8" standalone="no"?>
<svg xmlns:xlink="http://www.w3.org/1999/xlink" height="9.6px" width="6.1px" xmlns="http://www.w3.org/2000/svg">
  <g transform="matrix(1.0, 0.0, 0.0, 1.0, 2.85, 7.05)">
    <path d="M-2.25 -0.9 L-1.95 -2.55 Q-2.0 -3.95 -1.55 -5.35 -1.0 -7.65 0.65 -6.8 1.25 -5.85 1.8 -3.3 L1.8 -3.25 2.4 -0.5 Q1.2 0.8 -2.25 -0.9" fill="#af937e" fill-rule="evenodd" stroke="none"/>
    <path d="M2.4 -0.5 L2.45 -0.3 3.25 1.8 1.5 2.45 0.1 2.55 -1.2 1.85 -2.85 0.6 Q-2.45 0.0 -2.25 -0.9 1.2 0.8 2.4 -0.5" fill="#ded1cb" fill-rule="evenodd" stroke="none"/>
    <path d="M2.45 -0.3 L3.25 1.8 1.5 2.45 0.1 2.55 -1.2 1.85 -2.85 0.6 Q-2.45 0.0 -2.25 -0.9 L-1.95 -2.55 Q-2.0 -3.95 -1.55 -5.35 -1.0 -7.65 0.65 -6.8 1.25 -5.85 1.8 -3.3 L1.8 -3.25 2.4 -0.5" fill="none" stroke="#594337" stroke-linecap="round" stroke-linejoin="round" stroke-width="0.05"/>
    <path d="M2.4 -0.5 L2.45 -0.3 Z" fill="none" stroke="#754d4d" stroke-linecap="round" stroke-linejoin="round" stroke-width="0.05"/>
  </g>
</svg>
