<?xml version="1.0" encoding="UTF-8" standalone="no"?>
<svg xmlns:xlink="http://www.w3.org/1999/xlink" height="312.45px" width="190.85px" xmlns="http://www.w3.org/2000/svg">
  <g transform="matrix(1.0, 0.0, 0.0, 1.0, 95.6, 139.6)">
    <path d="M-88.15 -114.95 L-88.1 -115.0 -87.8 -115.2 -88.15 -115.2 -88.15 -114.95 M86.9 -115.0 L86.9 -115.2 86.65 -115.2 86.9 -115.0 M94.95 -123.1 L95.25 -122.45 95.25 171.9 94.95 172.55 Q94.65 172.85 94.3 172.85 L-94.65 172.85 -95.3 172.55 -95.6 171.9 -95.6 -122.45 -95.3 -123.1 -94.65 -123.4 94.3 -123.4 Q94.65 -123.4 94.95 -123.1" fill="url(#gradient0)" fill-rule="evenodd" stroke="none"/>
    <path d="M-83.35 159.45 L-83.35 -130.45 84.6 -130.45 84.6 159.45 -83.35 159.45" fill="url(#gradient1)" fill-rule="evenodd" stroke="none"/>
    <path d="M86.2 -132.25 L-85.0 -132.25 -85.0 160.8 86.2 160.8 86.2 -132.25 M-90.55 -138.6 L92.7 -138.6 92.7 167.15 -90.55 167.15 -90.55 -138.6" fill="url(#gradient2)" fill-rule="evenodd" stroke="none"/>
    <path d="M-85.0 160.8 L-85.0 -132.25 86.2 -132.25 M-90.55 -138.6 L92.7 -138.6" fill="none" stroke="#b14e4e" stroke-linecap="round" stroke-linejoin="round" stroke-width="2.0"/>
    <path d="M92.7 -138.6 L92.7 167.15" fill="none" stroke="#5a2929" stroke-linecap="round" stroke-linejoin="round" stroke-width="2.0"/>
    <path d="M-90.55 167.15 L-90.55 -138.6" fill="none" stroke="#813a3a" stroke-linecap="round" stroke-linejoin="round" stroke-width="2.0"/>
    <path d="M86.2 -132.25 L86.2 160.8" fill="none" stroke="#9e4747" stroke-linecap="round" stroke-linejoin="round" stroke-width="2.0"/>
    <path d="M86.2 160.8 L-85.0 160.8" fill="none" stroke="#8e4040" stroke-linecap="round" stroke-linejoin="round" stroke-width="2.0"/>
    <path d="M92.7 167.15 L-90.55 167.15" fill="none" stroke="#200f0f" stroke-linecap="round" stroke-linejoin="round" stroke-width="2.0"/>
    <path d="M-83.35 159.45 L-83.35 -130.45 84.6 -130.45 84.6 159.45" fill="none" stroke="#100707" stroke-linecap="round" stroke-linejoin="round" stroke-width="2.0"/>
    <path d="M84.6 159.45 L-83.35 159.45" fill="none" stroke="#411f1f" stroke-linecap="round" stroke-linejoin="round" stroke-width="2.0"/>
  </g>
  <defs>
    <linearGradient gradientTransform="matrix(0.0, 0.0443, -0.17, 1.0E-4, -0.7, 138.15)" gradientUnits="userSpaceOnUse" id="gradient0" spreadMethod="pad" x1="-819.2" x2="819.2">
      <stop offset="0.01568627450980392" stop-color="#060c17" stop-opacity="0.56078434"/>
      <stop offset="1.0" stop-color="#0a0b14" stop-opacity="0.34117648"/>
    </linearGradient>
    <linearGradient gradientTransform="matrix(-0.0148, -0.1248, 0.191, -0.0226, -92.7, 79.4)" gradientUnits="userSpaceOnUse" id="gradient1" spreadMethod="pad" x1="-819.2" x2="819.2">
      <stop offset="0.0" stop-color="#532626"/>
      <stop offset="1.0" stop-color="#a94949"/>
    </linearGradient>
    <linearGradient gradientTransform="matrix(-0.1269, -0.0663, 0.0866, -0.1773, 15.8, 20.4)" gradientUnits="userSpaceOnUse" id="gradient2" spreadMethod="pad" x1="-819.2" x2="819.2">
      <stop offset="0.0" stop-color="#000000"/>
      <stop offset="1.0" stop-color="#6d3030"/>
    </linearGradient>
  </defs>
</svg>
