<?xml version="1.0" encoding="UTF-8" standalone="no"?>
<svg xmlns:xlink="http://www.w3.org/1999/xlink" height="15.5px" width="12.35px" xmlns="http://www.w3.org/2000/svg">
  <g transform="matrix(1.0, 0.0, 0.0, 1.0, 7.6, 9.7)">
    <path d="M1.85 -0.4 Q2.1 -0.9 2.65 -1.0 3.2 -1.1 3.4 -0.55 L3.55 0.45 Q3.45 0.1 2.8 -0.05 L2.3 0.6 Q1.5 0.25 1.85 -0.4" fill="#fbe3ae" fill-rule="evenodd" stroke="none"/>
    <path d="M3.55 0.45 L3.4 -0.55 Q3.2 -1.1 2.65 -1.0 2.1 -0.9 1.85 -0.4 1.5 0.25 2.3 0.6 L2.8 -0.05 Q3.45 0.1 3.55 0.45 L3.55 0.55 3.5 1.1 3.55 0.55 3.55 0.45 M1.8 -8.85 L3.1 -7.75 Q4.35 -6.35 4.65 -4.55 L4.7 -4.3 4.75 -3.0 Q4.7 -1.05 3.8 0.6 L3.75 0.65 3.5 1.1 3.4 1.35 3.3 1.75 3.2 2.0 3.1 2.15 2.95 2.3 2.7 2.5 2.65 2.5 2.35 2.6 Q1.8 3.7 -0.05 4.7 -1.9 5.65 -4.35 5.8 0.3 4.05 0.0 1.6 L-0.8 -0.3 Q4.85 -5.25 1.8 -8.85 M2.65 1.85 L2.5 1.3 2.15 1.25 2.15 1.15 2.3 0.6 2.15 1.15 2.15 1.25 2.5 1.3 2.65 1.85 M-6.1 0.35 L-6.0 -0.75 -5.8 0.4 -6.1 0.35 M-6.1 1.7 L-5.45 2.2 Q-6.15 2.4 -6.1 1.7" fill="#fbcd95" fill-rule="evenodd" stroke="none"/>
    <path d="M1.8 -8.85 Q4.85 -5.25 -0.8 -0.3 L0.0 1.6 Q0.3 4.05 -4.35 5.8 L-4.45 5.8 Q-5.65 4.95 -6.85 2.25 L-7.3 -0.9 -7.45 -1.8 -7.6 -3.0 -7.45 -4.5 Q-7.0 -6.35 -5.65 -7.75 -3.8 -9.7 -1.2 -9.7 0.45 -9.7 1.8 -8.85 M-6.0 -0.75 L-6.1 -1.8 Q-7.0 -2.75 -7.25 -0.9 -6.85 0.05 -6.1 0.35 L-5.8 0.4 -6.0 -0.75 M-6.1 1.7 Q-5.8 1.2 -5.8 0.4 -5.8 1.2 -6.1 1.7 -6.15 2.4 -5.45 2.2 L-6.1 1.7 M-1.7 1.3 Q-2.0 -0.85 -3.55 -0.9 -4.0 -0.1 -4.0 1.15 L-1.7 1.3 M-3.35 4.0 Q-4.9 3.7 -5.75 3.05 -4.9 3.7 -3.35 4.0" fill="#fde0bd" fill-rule="evenodd" stroke="none"/>
    <path d="M3.55 0.45 L3.4 -0.55 Q3.2 -1.1 2.65 -1.0 2.1 -0.9 1.85 -0.4 M2.3 0.6 L2.8 -0.05 M3.55 0.45 L3.55 0.55 3.5 1.1 3.75 0.65 3.8 0.6 Q4.7 -1.05 4.75 -3.0 L4.7 -4.3 4.65 -4.55 Q4.35 -6.35 3.1 -7.75 L1.8 -8.85 Q0.45 -9.7 -1.2 -9.7 -3.8 -9.7 -5.65 -7.75 -7.0 -6.35 -7.45 -4.5 L-7.6 -3.0 -7.45 -1.8 -7.3 -0.9 -6.85 2.25 Q-5.65 4.95 -4.45 5.8 L-4.35 5.8 Q-1.9 5.65 -0.05 4.7 1.8 3.7 2.35 2.6 L2.65 2.5 2.7 2.5 2.95 2.3 3.1 2.15 3.2 2.0 3.3 1.75 3.4 1.35 3.5 1.1 M2.3 0.6 L2.15 1.15 2.15 1.25 2.5 1.3 2.65 1.85 M-6.0 -0.75 L-6.1 -1.8 Q-7.0 -2.75 -7.25 -0.9 -6.85 0.05 -6.1 0.35 L-6.0 -0.75 -5.8 0.4 Q-5.8 1.2 -6.1 1.7 -6.15 2.4 -5.45 2.2 M-1.7 1.3 Q-2.0 -0.85 -3.55 -0.9 -4.0 -0.1 -4.0 1.15 L-1.7 1.3 M-5.75 3.05 Q-4.9 3.7 -3.35 4.0" fill="none" stroke="#c28030" stroke-linecap="round" stroke-linejoin="round" stroke-width="0.05"/>
  </g>
</svg>
