<?xml version="1.0" encoding="UTF-8" standalone="no"?>
<svg xmlns:xlink="http://www.w3.org/1999/xlink" height="146.35px" width="119.4px" xmlns="http://www.w3.org/2000/svg">
  <g transform="matrix(1.0, 0.0, 0.0, 1.0, 55.5, 70.75)">
    <path d="M17.55 -20.5 L17.65 -19.15 17.8 -19.3 17.55 -20.5 M3.05 -55.9 L3.1 -55.95 Q3.25 -43.75 -0.3 -36.9 L-4.5 -31.55 -4.5 -31.6 -4.55 -31.7 -4.65 -31.6 -4.6 -31.45 -4.55 -31.55 -4.5 -31.55 Q-4.05 -26.7 -6.05 -20.7 L-5.8 -20.4 Q-4.4 -28.55 -1.95 -31.05 -0.7 -32.4 0.85 -32.25 2.3 -32.1 4.1 -30.4 L4.15 -30.35 4.15 -30.3 5.4 -25.1 5.4 -25.0 5.3 -24.95 5.25 -24.95 Q3.2 -25.25 2.25 -23.8 1.2 -22.35 1.25 -19.1 L1.25 -19.0 1.2 -18.95 2.0 -17.85 5.9 -20.6 5.95 -20.55 9.65 -17.4 10.55 -18.45 10.55 -18.55 Q10.95 -21.8 10.1 -23.35 9.3 -24.9 7.3 -24.75 L7.2 -24.8 7.15 -24.85 7.15 -24.95 9.0 -30.1 9.05 -30.15 Q12.45 -32.75 14.55 -30.75 16.25 -29.15 17.1 -24.5 16.9 -27.7 17.5 -30.4 L17.55 -30.35 17.6 -30.25 17.65 -30.4 Q16.1 -32.7 14.1 -36.2 11.35 -43.35 12.9 -55.45 14.05 -61.85 22.2 -69.05 L22.2 -69.1 22.2 -69.2 22.25 -69.25 22.35 -69.25 Q27.3 -67.4 24.25 -56.2 21.4 -42.45 26.15 -37.05 L26.2 -37.0 Q26.4 -31.35 24.15 -28.8 L24.15 -28.85 24.1 -28.95 24.05 -28.85 24.05 -28.7 24.15 -28.8 Q24.35 -23.05 21.85 -18.9 L21.85 -18.8 21.9 -18.6 21.9 -18.55 21.85 -18.45 Q21.15 -15.75 19.75 -13.1 L19.7 -13.0 19.65 -13.0 Q20.7 -9.3 20.15 -6.4 22.6 -7.45 25.15 -8.05 L25.15 -7.95 25.15 -7.9 25.3 -7.95 Q24.6 -15.45 27.0 -20.45 L26.95 -20.55 26.85 -20.5 26.85 -20.45 Q26.25 -22.05 26.55 -24.05 L26.6 -24.1 Q28.9 -25.85 36.8 -28.0 44.0 -28.8 54.35 -23.75 L54.4 -23.7 54.5 -23.7 Q59.9 -20.65 63.9 -10.15 L63.9 -10.0 63.85 -9.95 63.75 -9.95 63.7 -9.95 Q60.5 -5.75 51.7 -11.9 L51.6 -12.0 51.6 -11.85 51.65 -11.8 Q40.15 -18.65 34.05 -15.3 L34.0 -15.25 33.95 -15.25 32.5 -15.65 Q31.9 -9.95 28.7 -6.1 L28.7 -6.15 28.65 -6.25 28.65 -6.3 28.55 -6.2 28.5 -5.65 28.5 -5.6 28.6 -5.55 28.55 -5.45 28.55 -5.4 28.45 -5.2 28.45 -5.15 Q25.05 -1.6 19.55 0.5 19.9 2.8 19.7 5.0 L19.6 5.0 19.55 5.0 19.55 5.1 19.7 5.1 19.7 5.0 Q21.9 5.6 24.0 6.5 28.9 1.55 33.85 0.35 L33.9 0.35 Q34.15 -0.8 34.9 -1.95 L34.9 -2.0 34.9 -2.1 35.0 -2.15 Q37.7 -2.6 45.6 -0.65 L45.65 -0.65 Q52.35 2.15 59.45 11.7 L59.4 11.7 59.3 11.7 59.25 11.7 59.35 11.85 Q62.8 17.15 61.9 28.35 L61.95 28.35 62.0 28.45 62.05 28.5 62.0 28.55 62.0 28.6 61.9 28.6 Q57.15 31.05 51.95 21.1 L51.95 21.05 Q44.6 9.35 37.75 9.35 L37.7 9.35 35.55 7.0 35.65 6.95 35.55 6.8 Q31.15 10.2 26.7 10.5 L26.55 10.65 26.7 10.65 26.75 10.65 26.3 11.2 26.2 11.25 25.95 11.35 17.6 10.85 17.65 10.75 17.65 10.7 17.55 10.7 16.45 12.25 16.55 12.3 Q19.15 13.85 21.45 15.8 21.8 15.5 22.3 15.45 L22.35 15.45 Q26.4 16.5 29.4 18.35 30.1 17.7 31.1 17.2 L31.15 17.15 31.25 17.15 31.3 17.25 31.35 17.35 Q33.9 18.5 39.8 23.95 L39.85 24.05 39.9 24.05 39.95 23.95 39.9 23.85 Q44.55 29.75 46.55 41.75 L46.5 41.7 46.4 41.65 46.35 41.65 46.4 41.8 Q47.1 48.25 41.35 57.8 36.15 57.6 35.95 46.15 34.7 32.1 28.65 28.6 L27.95 26.25 27.9 26.25 27.8 26.2 Q23.75 23.95 21.6 20.5 16.8 19.9 11.95 16.65 L9.65 18.2 9.65 18.25 9.4 18.55 Q15.75 23.1 20.9 29.55 L20.95 29.6 Q28.7 54.3 28.4 60.5 L28.35 60.45 28.25 60.4 28.25 60.55 Q17.9 70.35 0.55 75.6 -16.05 68.45 -25.1 57.55 L-25.2 57.6 -25.3 57.55 -25.3 57.45 Q-25.0 51.65 -14.45 27.55 L-14.35 27.45 Q-7.0 20.3 -2.25 17.35 L-4.3 15.65 Q-9.6 18.4 -14.35 18.4 L-14.45 18.4 Q-17.0 21.6 -21.25 23.4 L-21.3 23.4 -21.4 23.4 -22.3 25.65 Q-28.75 28.45 -31.6 42.25 L-31.6 42.4 -31.5 42.35 -31.45 42.3 Q-33.0 53.7 -38.2 53.35 L-38.3 53.35 -38.35 53.3 Q-43.1 43.1 -41.6 36.7 -38.3 25.0 -33.0 19.65 L-32.95 19.6 Q-26.3 14.75 -23.55 14.0 L-23.5 14.0 -23.45 14.0 -21.85 15.4 Q-18.8 13.95 -14.6 13.3 L-14.5 13.3 -13.75 13.8 Q-11.2 12.05 -8.3 10.75 L-9.2 9.25 -17.6 8.85 -17.7 8.8 -17.95 8.6 -18.0 8.55 -18.3 8.1 Q-22.8 7.3 -26.75 3.45 L-29.1 5.55 -29.2 5.55 Q-36.1 4.8 -44.6 15.55 -51.05 24.9 -55.5 21.9 L-55.4 21.95 -55.35 21.9 -55.3 21.85 -55.4 21.8 Q-55.05 10.55 -51.0 5.65 L-51.05 5.55 -51.05 5.5 -51.05 5.45 -51.0 5.45 Q-42.95 -3.25 -35.85 -5.25 L-25.1 -5.6 -25.05 -5.5 -25.0 -5.45 Q-24.35 -4.2 -24.15 -2.95 -19.5 -1.2 -15.2 4.3 L-10.55 3.25 Q-10.6 1.0 -9.9 -1.2 -15.2 -3.9 -18.2 -7.85 L-18.25 -7.95 -18.25 -8.1 -18.15 -8.05 -18.2 -8.25 -18.25 -8.75 -18.3 -8.8 -18.35 -8.85 Q-21.15 -12.95 -21.05 -18.8 L-22.5 -18.5 -22.6 -18.5 Q-28.4 -22.5 -40.55 -17.05 L-40.6 -17.05 Q-45.4 -14.5 -48.4 -14.35 -51.5 -14.3 -52.85 -16.7 L-52.9 -16.75 -52.9 -16.8 -52.85 -16.85 Q-47.7 -26.85 -41.95 -29.25 L-41.85 -29.25 -41.75 -29.2 Q-31.05 -32.95 -23.95 -31.35 -16.45 -28.35 -14.35 -26.4 L-14.35 -26.25 -14.25 -26.3 -14.25 -26.35 Q-14.15 -24.4 -14.85 -22.9 -13.1 -17.65 -14.6 -10.4 -12.1 -9.45 -9.7 -8.05 -9.95 -10.95 -8.55 -14.4 L-8.6 -14.45 Q-9.8 -17.45 -10.15 -20.35 L-10.15 -20.45 -10.1 -20.7 Q-12.15 -25.15 -11.3 -30.85 L-11.3 -30.8 -11.2 -30.7 -11.2 -30.9 Q-13.1 -33.65 -12.25 -39.2 -6.9 -43.95 -8.05 -57.9 L-8.15 -57.95 -8.2 -58.0 -8.2 -58.05 Q-10.0 -69.45 -4.85 -70.75 L-4.9 -70.65 -4.8 -70.65 Q2.5 -62.55 2.95 -56.0 L2.95 -55.85 3.05 -55.9" fill="#000000" fill-opacity="0.21176471" fill-rule="evenodd" stroke="none"/>
  </g>
</svg>
