<?xml version="1.0" encoding="UTF-8" standalone="no"?>
<svg xmlns:xlink="http://www.w3.org/1999/xlink" height="28.1px" width="23.85px" xmlns="http://www.w3.org/2000/svg">
  <g transform="matrix(1.0, 0.0, 0.0, 1.0, 0.0, 14.05)">
    <path d="M5.3 -13.15 L5.3 -13.55 9.25 -10.75 14.3 -14.05 14.85 -9.9 18.3 -10.8 17.5 -8.95 14.85 -8.25 14.3 -12.4 9.25 -9.1 5.3 -11.9 5.3 -13.15 M17.95 -8.35 L22.15 -7.25 20.8 -5.95 17.3 -6.85 17.95 -8.35 M20.6 -5.4 L22.15 -4.5 21.45 -4.5 20.35 -5.15 20.6 -5.4 M20.5 -4.15 L23.85 0.7 22.7 0.7 19.3 -4.15 20.5 -4.15 M20.85 1.1 L22.0 4.05 20.65 3.35 19.8 1.1 20.85 1.1 M1.3 -1.8 L0.6 -2.15 1.35 -3.55 1.95 -2.95 1.3 -1.8 M1.1 -5.45 L0.0 -6.55 3.0 -8.0 3.9 -6.8 1.1 -5.45 M3.55 -8.25 L3.9 -8.45 2.45 -10.3 5.3 -9.35 5.3 -7.7 3.55 -8.25" fill="#936146" fill-rule="evenodd" stroke="none"/>
    <path d="M5.3 -11.9 L9.25 -9.1 14.3 -12.4 14.85 -8.25 17.5 -8.95 17.3 -8.5 17.95 -8.35 17.3 -6.85 20.8 -5.95 20.35 -5.55 20.6 -5.4 20.35 -5.15 21.45 -4.5 20.2 -4.55 20.5 -4.15 19.3 -4.15 22.7 0.7 20.65 0.7 20.85 1.1 19.8 1.1 20.65 3.35 20.05 3.0 19.9 3.45 19.6 4.4 18.6 6.25 18.4 6.55 18.25 6.85 18.05 6.8 18.15 6.5 18.3 6.05 18.3 5.85 18.4 5.5 18.4 5.45 18.4 5.3 18.4 4.6 18.3 4.15 Q18.1 3.25 16.8 3.7 L16.25 3.95 16.2 3.95 15.9 4.4 15.95 4.2 15.9 4.2 15.85 4.4 15.75 4.8 15.55 6.0 15.4 6.9 15.25 8.15 14.65 5.6 14.55 5.15 14.5 4.9 14.15 3.65 14.05 3.4 13.75 2.2 13.6 1.85 Q13.55 2.55 13.15 3.0 L13.15 3.05 13.05 3.15 Q12.65 3.55 11.95 3.75 L12.05 2.85 12.05 2.1 Q12.0 -1.1 10.3 -1.4 9.6 0.45 8.85 0.3 8.8 -1.25 7.4 -1.35 L6.1 -0.85 6.1 -2.3 Q4.05 -1.8 3.55 0.35 L2.5 0.65 3.45 0.75 3.4 1.65 3.15 1.6 Q2.4 1.3 2.05 0.1 L1.8 -1.15 1.85 -1.25 1.9 -1.45 1.3 -1.8 1.95 -2.95 1.35 -3.55 1.95 -4.6 1.1 -5.45 3.9 -6.8 3.0 -8.0 3.55 -8.25 5.3 -7.7 5.3 -9.35 5.3 -11.9" fill="#4d2a2e" fill-rule="evenodd" stroke="none"/>
    <path d="M7.35 14.05 Q6.1 13.55 5.65 13.15 L4.4 10.5 3.15 3.2 3.15 1.6 3.4 1.65 3.45 0.75 Q4.65 1.05 5.4 2.4 L4.9 0.2 3.55 0.35 Q4.05 -1.8 6.1 -2.3 L6.1 -0.85 7.4 -1.35 Q8.8 -1.25 8.85 0.3 9.6 0.45 10.3 -1.4 12.0 -1.1 12.05 2.1 L10.75 1.2 Q8.9 2.05 8.0 3.15 9.75 2.35 12.05 2.85 L11.95 3.75 Q12.65 3.55 13.05 3.15 L13.55 3.3 13.15 3.0 Q13.55 2.55 13.6 1.85 L13.75 2.2 14.05 3.4 14.15 3.65 13.55 3.85 14.2 7.0 Q10.6 12.65 7.35 14.05 M16.8 3.7 Q18.1 3.25 18.3 4.15 L18.4 4.6 18.4 5.3 18.4 5.45 18.4 5.5 17.5 4.85 17.15 5.3 16.95 5.6 Q16.15 5.7 16.0 5.2 L16.0 4.95 16.05 4.85 16.1 4.65 16.25 4.3 Q16.45 3.9 16.8 3.7 M9.5 6.8 L11.5 6.6 Q11.05 3.65 8.85 3.6 8.3 4.7 8.3 6.4 L9.4 6.75 9.5 6.8 M7.8 1.2 L7.75 1.1 7.65 1.05 7.55 1.1 6.9 1.9 6.25 0.9 6.15 0.85 6.05 0.9 5.95 1.0 6.0 1.1 6.6 2.15 5.95 2.9 5.95 3.0 5.95 3.15 6.1 3.15 6.2 3.15 6.8 2.45 7.3 3.15 7.4 3.25 7.55 3.2 7.6 3.1 7.55 3.0 7.05 2.15 7.8 1.3 7.8 1.2 M4.65 4.9 L5.4 5.35 5.1 8.1 5.4 5.35 5.45 4.95 5.45 3.8 5.25 2.35 Q4.0 1.0 3.75 3.6 L4.3 4.5 4.65 4.9 M9.9 10.85 Q6.45 10.3 4.65 9.35 6.45 10.3 9.9 10.85" fill="#d1ab86" fill-rule="evenodd" stroke="none"/>
    <path d="M19.6 4.4 L18.6 6.35 18.55 6.7 18.45 7.1 18.4 7.25 18.35 7.3 18.2 7.7 Q17.9 8.5 16.2 8.45 L12.15 12.9 Q9.7 13.95 7.35 14.05 10.6 12.65 14.2 7.0 L13.55 3.85 14.15 3.65 14.5 4.9 14.55 5.15 14.65 5.6 15.25 8.15 15.4 6.9 15.55 6.0 15.75 4.8 15.85 4.4 15.9 4.2 15.95 4.2 15.9 4.4 16.2 3.95 16.25 3.95 16.8 3.7 Q16.45 3.9 16.25 4.3 L16.1 4.65 16.05 4.85 16.0 4.95 16.0 5.2 Q16.15 5.7 16.95 5.6 L17.15 5.3 17.5 4.85 18.4 5.5 18.3 5.85 18.3 6.05 18.15 6.5 18.05 6.8 17.75 7.45 18.1 7.0 18.25 6.85 18.4 6.55 18.6 6.25 19.6 4.4 M17.55 7.0 Q17.2 6.55 16.8 6.4 L16.85 6.2 16.95 5.6 16.85 6.2 16.8 6.4 Q17.2 6.55 17.55 7.0 M18.6 6.25 L18.6 6.35 18.6 6.25 M16.8 7.35 L16.8 6.4 16.8 7.35" fill="#c89a6c" fill-rule="evenodd" stroke="none"/>
    <path d="M12.05 2.1 L12.05 2.85 Q9.75 2.35 8.0 3.15 8.9 2.05 10.75 1.2 L12.05 2.1 M13.05 3.15 L13.15 3.05 13.15 3.0 13.55 3.3 13.05 3.15 M3.45 0.75 L2.5 0.65 3.55 0.35 4.9 0.2 5.4 2.4 Q4.65 1.05 3.45 0.75" fill="#000033" fill-rule="evenodd" stroke="none"/>
    <path d="M9.5 6.8 L9.6 6.8 10.2 6.4 10.4 5.3 10.15 4.25 Q9.85 3.8 9.5 3.85 9.1 3.8 8.9 4.25 8.65 4.7 8.7 5.3 8.7 5.95 8.95 6.4 L9.4 6.75 8.3 6.4 Q8.3 4.7 8.85 3.6 11.05 3.65 11.5 6.6 L9.5 6.8 M4.5 2.9 L4.55 2.75 Q4.65 2.6 4.8 2.6 4.95 2.6 5.1 2.75 L5.15 3.05 5.15 3.25 5.1 3.3 5.1 3.35 4.8 3.5 4.55 3.35 4.45 3.05 4.5 2.9 M4.65 4.9 L4.8 4.9 5.25 4.5 5.4 3.6 5.2 2.65 Q5.0 2.25 4.7 2.25 L4.2 2.65 4.1 3.6 4.3 4.5 3.75 3.6 Q4.0 1.0 5.25 2.35 L5.45 3.8 5.45 4.95 5.4 5.35 4.65 4.9 M5.45 4.95 L5.4 5.35 5.45 4.95 M9.25 4.55 L9.35 4.4 9.65 4.3 10.0 4.4 10.1 4.75 10.1 4.95 10.0 5.1 9.65 5.2 9.35 5.1 9.15 4.75 9.25 4.55" fill="#ffffff" fill-rule="evenodd" stroke="none"/>
    <path d="M9.4 6.75 L8.95 6.4 Q8.7 5.95 8.7 5.3 8.65 4.7 8.9 4.25 9.1 3.8 9.5 3.85 9.85 3.8 10.15 4.25 L10.4 5.3 10.2 6.4 9.6 6.8 9.5 6.8 9.4 6.75 M5.15 3.25 L5.15 3.05 5.1 2.75 Q4.95 2.6 4.8 2.6 4.65 2.6 4.55 2.75 L4.5 2.9 4.4 3.0 4.3 3.55 Q4.3 3.9 4.45 4.15 L4.75 4.4 5.1 4.15 5.2 3.6 5.15 3.25 M4.3 4.5 L4.1 3.6 4.2 2.65 4.7 2.25 Q5.0 2.25 5.2 2.65 L5.4 3.6 5.25 4.5 4.8 4.9 4.65 4.9 4.3 4.5 M10.1 4.95 L10.1 4.75 10.0 4.4 9.65 4.3 9.35 4.4 9.25 4.55 9.1 4.7 9.0 5.3 9.15 5.95 9.6 6.2 9.95 5.95 10.15 5.3 10.1 4.95" fill="#0099ff" fill-rule="evenodd" stroke="none"/>
    <path d="M18.05 6.8 L18.25 6.85 18.1 7.0 17.75 7.45 18.05 6.8" fill="#432e29" fill-rule="evenodd" stroke="none"/>
    <path d="M7.8 1.2 L7.8 1.3 7.05 2.15 7.55 3.0 7.6 3.1 7.55 3.2 7.4 3.25 7.3 3.15 6.8 2.45 6.2 3.15 6.1 3.15 5.95 3.15 5.95 3.0 5.95 2.9 6.6 2.15 6.0 1.1 5.95 1.0 6.05 0.9 6.15 0.85 6.25 0.9 6.9 1.9 7.55 1.1 7.65 1.05 7.75 1.1 7.8 1.2" fill="#634527" fill-rule="evenodd" stroke="none"/>
    <path d="M4.5 2.9 L4.45 3.05 4.55 3.35 4.8 3.5 5.1 3.35 5.1 3.3 5.15 3.25 5.2 3.6 5.1 4.15 4.75 4.4 4.45 4.15 Q4.3 3.9 4.3 3.55 L4.4 3.0 4.5 2.9 M10.1 4.95 L10.15 5.3 9.95 5.95 9.6 6.2 9.15 5.95 9.0 5.3 9.1 4.7 9.25 4.55 9.15 4.75 9.35 5.1 9.65 5.2 10.0 5.1 10.1 4.95" fill="#000000" fill-rule="evenodd" stroke="none"/>
    <path d="M17.5 -8.95 L18.3 -10.8 14.85 -9.9 14.3 -14.05 9.25 -10.75 5.3 -13.55 5.3 -13.15 M17.5 -8.95 L17.3 -8.5 17.95 -8.35 22.15 -7.25 20.8 -5.95 20.35 -5.55 20.6 -5.4 22.15 -4.5 21.45 -4.5 20.2 -4.55 20.5 -4.15 23.85 0.7 22.7 0.7 20.65 0.7 20.85 1.1 22.0 4.05 20.65 3.35 20.05 3.0 19.9 3.45 19.6 4.4 18.6 6.25 18.4 6.55 18.25 6.85 18.1 7.0 17.75 7.45 18.05 6.8 18.15 6.5 18.3 6.05 18.3 5.85 18.4 5.5 18.4 5.45 18.4 5.3 M1.85 -1.25 L1.9 -1.45 1.3 -1.8 0.6 -2.15 1.35 -3.55 1.95 -4.6 1.1 -5.45 0.0 -6.55 3.0 -8.0 3.55 -8.25 3.9 -8.45 2.45 -10.3 5.3 -9.35 M15.9 4.4 L16.2 3.95 M18.3 4.15 L18.4 4.6" fill="none" stroke="#584338" stroke-linecap="round" stroke-linejoin="round" stroke-width="0.05"/>
    <path d="M19.6 4.4 L18.6 6.35 18.55 6.7 18.45 7.1 18.4 7.25 18.35 7.3 18.2 7.7 Q17.9 8.5 16.2 8.45 L12.15 12.9 Q9.7 13.95 7.35 14.05 6.1 13.55 5.65 13.15 L4.4 10.5 3.15 3.2 3.15 1.6 M16.8 3.7 Q16.45 3.9 16.25 4.3 L16.1 4.65 M16.95 5.6 L17.15 5.3 17.5 4.85 M16.95 5.6 L16.85 6.2 16.8 6.4 Q17.2 6.55 17.55 7.0 M9.5 6.8 L11.5 6.6 Q11.05 3.65 8.85 3.6 8.3 4.7 8.3 6.4 L9.4 6.75 9.5 6.8 M18.6 6.35 L18.6 6.25 M16.8 6.4 L16.8 7.35 M4.65 4.9 L5.4 5.35 5.45 4.95 5.45 3.8 5.25 2.35 Q4.0 1.0 3.75 3.6 L4.3 4.5 4.65 4.9 M5.4 5.35 L5.1 8.1 M5.45 4.95 L5.4 5.35 M4.65 9.35 Q6.45 10.3 9.9 10.85" fill="none" stroke="#916337" stroke-linecap="round" stroke-linejoin="round" stroke-width="0.05"/>
    <path d="M13.6 1.85 L13.75 2.2 14.05 3.4 14.15 3.65 14.5 4.9 14.55 5.15 14.65 5.6 15.25 8.15 15.4 6.9 15.55 6.0 15.75 4.8 15.85 4.4" fill="none" stroke="#7b5046" stroke-linecap="round" stroke-linejoin="round" stroke-width="0.05"/>
  </g>
</svg>
