<?xml version="1.0" encoding="UTF-8" standalone="no"?>
<svg xmlns:xlink="http://www.w3.org/1999/xlink" height="37.2px" width="28.25px" xmlns="http://www.w3.org/2000/svg">
  <g transform="matrix(1.0, 0.0, 0.0, 1.0, 0.0, 18.6)">
    <path d="M17.3 -10.25 L17.5 -9.95 18.05 -9.05 Q19.35 -6.75 20.2 -3.9 L20.3 -4.85 20.35 -5.1 20.4 -7.3 Q20.45 -12.2 19.25 -16.4 L20.25 -14.45 20.4 -14.0 20.75 -13.2 21.8 -9.75 22.3 -7.3 22.75 -3.05 22.85 -1.95 27.4 -10.45 24.0 1.45 23.9 1.8 23.5 3.15 28.25 -2.6 27.7 -1.65 25.3 2.8 24.95 3.5 24.65 4.05 Q23.2 6.9 22.25 9.35 L21.9 10.3 20.7 13.55 20.7 11.85 19.9 13.35 19.9 12.6 19.9 12.55 20.45 11.65 20.7 11.25 20.7 10.95 20.7 10.8 20.7 10.65 20.8 9.75 20.8 9.7 20.8 9.45 20.5 8.45 20.35 8.3 20.25 8.25 19.65 8.2 19.55 8.25 19.3 8.35 18.95 8.5 18.85 8.55 19.0 10.3 19.0 10.4 19.05 11.2 19.05 11.25 19.05 11.55 19.05 11.6 19.0 12.75 18.95 13.2 18.95 13.3 18.95 13.25 Q18.3 10.4 17.3 8.0 L16.25 5.8 16.1 5.6 15.35 4.4 14.95 3.75 14.15 2.65 15.55 9.75 14.3 7.7 14.0 7.25 13.85 7.0 13.1 5.8 12.5 4.8 11.95 4.05 11.7 3.7 11.4 3.25 11.7 6.2 9.6 0.45 9.35 0.8 9.25 0.95 9.15 0.7 Q7.8 2.7 6.75 5.0 L6.6 5.3 6.05 6.5 5.8 7.15 5.75 7.25 5.6 7.7 Q5.05 9.0 4.65 10.45 L4.0 12.75 4.4 8.65 5.5 4.8 2.15 -1.85 5.8 2.05 5.2 -0.3 5.1 -0.7 4.4 -2.95 3.7 -5.0 2.35 -8.15 5.15 -3.95 5.2 -3.8 6.15 -2.4 6.1 -2.65 Q4.9 -9.7 3.5 -13.8 L2.3 -17.85 7.6 -16.7 Q12.7 -15.7 17.2 -10.15 L17.3 -10.25 M16.3 -0.85 L16.95 0.8 Q18.15 4.15 18.7 7.3 L18.7 7.35 18.75 8.1 18.85 8.55 18.75 8.1 18.7 7.35 18.7 7.3 Q18.15 4.15 16.95 0.8 L16.3 -0.85 M23.25 0.05 Q22.85 -0.85 22.85 -1.95 22.85 -0.85 23.25 0.05" fill="#3a3961" fill-rule="evenodd" stroke="none"/>
    <path d="M17.3 -10.25 L17.2 -10.15 Q12.7 -15.7 7.6 -16.7 L2.3 -17.85 3.5 -13.8 Q4.9 -9.7 6.1 -2.65 L6.15 -2.4 5.2 -3.8 5.15 -3.95 5.15 -4.05 5.0 -5.15 4.75 -6.75 Q3.85 -12.6 0.0 -18.6 L4.05 -18.35 5.1 -18.15 Q12.15 -16.75 16.25 -11.65 L17.3 -10.25 M2.35 -8.15 L3.7 -5.0 4.4 -2.95 5.1 -0.7 5.2 -0.3 5.8 2.05 2.15 -1.85 5.5 4.8 4.4 8.65 4.85 4.15 3.05 8.05 4.4 3.25 1.1 -3.35 4.7 0.5 4.5 -0.45 4.2 -1.6 Q3.05 -6.0 1.15 -9.95 L2.35 -8.15 M9.25 0.95 L9.35 0.8 9.6 0.45 11.7 6.2 11.75 6.85 11.8 7.35 11.9 8.2 11.6 7.4 11.45 7.0 9.25 0.95" fill="#6963a1" fill-rule="evenodd" stroke="none"/>
    <path d="M17.3 8.0 Q18.3 10.4 18.95 13.25 14.8 18.25 10.0 18.6 15.3 14.7 16.8 12.35 L15.75 8.55 17.3 8.0 M18.95 13.2 L19.0 12.75 19.05 11.6 19.05 11.55 19.05 11.25 19.05 11.2 19.0 10.4 19.0 10.3 19.05 10.3 19.25 10.0 19.65 9.55 Q20.55 9.9 20.7 10.8 L20.7 10.95 20.65 11.05 20.55 11.4 20.45 11.65 19.9 12.55 19.0 13.15 18.95 13.2 M20.8 9.45 L20.65 8.8 20.35 8.3 20.5 8.45 20.8 9.45 M20.7 10.8 L20.65 11.05 20.7 10.8 M19.0 10.4 L19.05 10.3 19.0 10.4 M19.5 11.7 L19.05 11.2 19.5 11.7 M7.4 11.9 L8.3 12.55 Q7.3 12.9 7.4 11.9" fill="#ffd0ae" fill-rule="evenodd" stroke="none"/>
    <path d="M5.8 7.15 L6.05 6.5 6.6 5.3 Q7.4 5.75 8.1 6.95 7.85 5.2 6.75 5.0 7.8 2.7 9.15 0.7 L9.25 0.95 11.45 7.0 Q10.9 7.25 10.45 7.85 11.0 7.55 11.6 7.4 L11.9 8.2 11.8 7.35 14.0 7.25 14.3 7.7 15.55 9.75 14.15 2.65 14.95 3.75 15.35 4.4 16.1 5.6 16.25 5.8 17.3 8.0 15.75 8.55 16.8 12.35 Q15.3 14.7 10.0 18.6 8.1 17.2 7.5 15.85 6.9 14.5 6.75 13.6 L6.05 9.3 5.8 7.15 M11.7 6.2 L11.4 3.25 11.7 3.7 11.95 4.05 12.5 4.8 13.1 5.8 13.85 7.0 11.75 6.85 11.7 6.2 M19.0 10.3 L18.85 8.55 18.95 8.5 19.3 8.35 19.55 8.25 19.65 8.2 20.25 8.25 20.35 8.3 20.65 8.8 20.8 9.45 20.8 9.7 20.8 9.75 20.7 10.65 20.7 10.8 Q20.55 9.9 19.65 9.55 L19.25 10.0 19.05 10.3 19.0 10.3 M11.05 8.3 Q10.45 9.4 10.3 11.1 L13.5 11.3 Q13.25 8.35 11.05 8.3 M6.8 9.6 L7.5 10.05 7.65 8.5 7.6 7.05 Q6.5 5.75 6.0 8.15 L6.0 8.3 6.0 8.35 6.45 9.2 6.8 9.6 M7.4 11.9 L7.8 10.7 7.65 8.5 7.8 10.7 7.4 11.9 Q7.3 12.9 8.3 12.55 L7.4 11.9 M11.2 15.4 Q9.05 15.0 7.85 14.1 9.05 15.0 11.2 15.4" fill="#ffdfc8" fill-rule="evenodd" stroke="none"/>
    <path d="M6.6 5.3 L6.75 5.0 Q7.85 5.2 8.1 6.95 7.4 5.75 6.6 5.3 M13.85 7.0 L14.0 7.25 11.8 7.35 11.75 6.85 13.85 7.0 M11.45 7.0 L11.6 7.4 Q11.0 7.55 10.45 7.85 10.9 7.25 11.45 7.0" fill="#503e53" fill-rule="evenodd" stroke="none"/>
    <path d="M11.4 9.25 L11.5 9.1 Q11.6 8.95 11.8 9.0 L12.15 9.1 12.3 9.45 12.2 9.65 12.1 9.8 11.8 9.9 11.45 9.8 11.3 9.45 11.4 9.25 M12.35 8.95 Q12.1 8.5 11.7 8.55 11.35 8.5 11.1 8.95 10.8 9.4 10.8 10.0 10.75 10.65 11.0 11.1 11.2 11.5 11.6 11.5 11.95 11.5 12.25 11.1 L12.5 10.0 12.35 8.95 M11.05 8.3 Q13.25 8.35 13.5 11.3 L10.3 11.1 Q10.45 9.4 11.05 8.3 M6.8 7.6 L6.85 7.45 7.1 7.3 Q7.25 7.3 7.35 7.45 L7.45 7.75 7.4 7.95 7.35 8.0 7.35 8.05 7.1 8.2 6.8 8.05 6.75 7.75 6.8 7.6 M6.8 9.6 L6.9 9.6 7.4 9.2 7.65 8.3 7.5 7.35 7.05 6.95 Q6.75 6.95 6.55 7.35 6.3 7.75 6.3 8.3 L6.45 9.2 6.0 8.35 6.0 8.15 Q6.5 5.75 7.6 7.05 L7.65 8.5 7.5 10.05 6.8 9.6" fill="#ffffff" fill-rule="evenodd" stroke="none"/>
    <path d="M12.2 9.65 L12.3 9.45 12.15 9.1 11.8 9.0 Q11.6 8.95 11.5 9.1 L11.4 9.25 11.25 9.4 11.05 10.0 11.2 10.65 11.6 10.9 12.05 10.65 12.25 10.0 12.2 9.65 M12.35 8.95 L12.5 10.0 12.25 11.1 Q11.95 11.5 11.6 11.5 11.2 11.5 11.0 11.1 10.75 10.65 10.8 10.0 10.8 9.4 11.1 8.95 11.35 8.5 11.7 8.55 12.1 8.5 12.35 8.95 M7.4 7.95 L7.45 7.75 7.35 7.45 Q7.25 7.3 7.1 7.3 L6.85 7.45 6.8 7.6 6.7 7.7 Q6.55 7.95 6.55 8.25 L6.65 8.85 6.95 9.1 7.25 8.85 7.4 8.3 7.4 7.95 M6.45 9.2 L6.3 8.3 Q6.3 7.75 6.55 7.35 6.75 6.95 7.05 6.95 L7.5 7.35 7.65 8.3 7.4 9.2 6.9 9.6 6.8 9.6 6.45 9.2" fill="#0099ff" fill-rule="evenodd" stroke="none"/>
    <path d="M11.4 9.25 L11.3 9.45 11.45 9.8 11.8 9.9 12.1 9.8 12.2 9.65 12.25 10.0 12.05 10.65 11.6 10.9 11.2 10.65 11.05 10.0 11.25 9.4 11.4 9.25 M6.8 7.6 L6.75 7.75 6.8 8.05 7.1 8.2 7.35 8.05 7.35 8.0 7.4 7.95 7.4 8.3 7.25 8.85 6.95 9.1 6.65 8.85 6.55 8.25 Q6.55 7.95 6.7 7.7 L6.8 7.6" fill="#000000" fill-rule="evenodd" stroke="none"/>
    <path d="M22.85 -1.95 L22.75 -3.05 22.3 -7.3 21.8 -9.75 20.75 -13.2 20.4 -14.0 20.25 -14.45 19.25 -16.4 Q20.45 -12.2 20.4 -7.3 L20.35 -5.1 20.3 -4.85 20.2 -3.9 Q19.35 -6.75 18.05 -9.05 L17.5 -9.95 17.3 -10.25 16.25 -11.65 Q12.15 -16.75 5.1 -18.15 L4.05 -18.35 0.0 -18.6 Q3.85 -12.6 4.75 -6.75 L5.0 -5.15 5.15 -4.05 5.15 -3.95 2.35 -8.15 1.15 -9.95 Q3.05 -6.0 4.2 -1.6 L4.5 -0.45 4.7 0.5 1.1 -3.35 4.4 3.25 3.05 8.05 4.85 4.15 4.4 8.65 4.0 12.75 4.65 10.45 Q5.05 9.0 5.6 7.7 L5.75 7.25 5.8 7.15 6.05 6.5 6.6 5.3 6.75 5.0 Q7.8 2.7 9.15 0.7 L9.25 0.95 11.45 7.0 11.6 7.4 11.9 8.2 11.8 7.35 11.75 6.85 11.7 6.2 11.4 3.25 11.7 3.7 11.95 4.05 12.5 4.8 13.1 5.8 13.85 7.0 14.0 7.25 14.3 7.7 15.55 9.75 14.15 2.65 14.95 3.75 15.35 4.4 16.1 5.6 16.25 5.8 17.3 8.0 Q18.3 10.4 18.95 13.25 L18.95 13.3 18.95 13.2 19.0 12.75 19.05 11.6 19.05 11.55 19.05 11.25 19.05 11.2 19.0 10.4 19.0 10.3 18.85 8.55 18.75 8.1 18.7 7.35 18.7 7.3 Q18.15 4.15 16.95 0.8 L16.3 -0.85 M5.2 -3.8 L5.15 -3.95 M19.9 12.55 L19.9 12.6 19.9 13.35 20.7 11.85 20.7 13.55 21.9 10.3 22.25 9.35 Q23.2 6.9 24.65 4.05 L24.95 3.5 25.3 2.8 27.7 -1.65 28.25 -2.6 23.5 3.15 23.9 1.8 M24.0 1.45 L27.4 -10.45 22.85 -1.95 Q22.85 -0.85 23.25 0.05 M20.8 9.45 L20.5 8.45 20.35 8.3 20.25 8.25 19.65 8.2 19.55 8.25 19.3 8.35 18.95 8.5 18.85 8.55 M20.8 9.45 L20.8 9.7 20.8 9.75 20.7 10.65 20.7 10.8 20.7 10.95 20.7 11.25 20.45 11.65 19.9 12.55" fill="none" stroke="#2b2b48" stroke-linecap="round" stroke-linejoin="round" stroke-width="0.05"/>
    <path d="M20.35 8.3 L20.65 8.8 20.8 9.45 M19.9 12.55 L19.0 13.15 18.95 13.2 M20.7 10.95 L20.65 11.05 20.55 11.4 20.45 11.65 M20.65 11.05 L20.7 10.8 M19.65 9.55 L19.25 10.0 19.05 10.3 19.0 10.4 M11.05 8.3 Q10.45 9.4 10.3 11.1 L13.5 11.3 Q13.25 8.35 11.05 8.3 M10.0 18.6 Q14.8 18.25 18.95 13.25 M19.05 11.2 L19.5 11.7 M6.8 9.6 L7.5 10.05 7.65 8.5 7.6 7.05 Q6.5 5.75 6.0 8.15 L6.0 8.3 6.0 8.35 6.45 9.2 6.8 9.6 M5.8 7.15 L6.05 9.3 6.75 13.6 Q6.9 14.5 7.5 15.85 8.1 17.2 10.0 18.6 M7.65 8.5 L7.8 10.7 7.4 11.9 Q7.3 12.9 8.3 12.55 M7.85 14.1 Q9.05 15.0 11.2 15.4" fill="none" stroke="#d7995e" stroke-linecap="round" stroke-linejoin="round" stroke-width="0.05"/>
    <path d="M11.45 7.0 Q10.9 7.25 10.45 7.85 11.0 7.55 11.6 7.4 M11.8 7.35 L14.0 7.25 M13.85 7.0 L11.75 6.85 M6.6 5.3 Q7.4 5.75 8.1 6.95 7.85 5.2 6.75 5.0" fill="none" stroke="#5b4961" stroke-linecap="round" stroke-linejoin="round" stroke-width="0.05"/>
  </g>
</svg>
