<?xml version="1.0" encoding="UTF-8" standalone="no"?>
<svg xmlns:xlink="http://www.w3.org/1999/xlink" height="30.25px" width="29.4px" xmlns="http://www.w3.org/2000/svg">
  <g transform="matrix(1.0, 0.0, 0.0, 1.0, 12.9, 20.35)">
    <path d="M1.65 -15.4 L1.65 -15.65 Q1.6 -17.3 1.1 -18.75 L0.5 -20.25 0.8 -20.0 1.1 -19.7 1.25 -19.35 1.5 -18.7 1.65 -18.1 Q2.05 -16.5 2.0 -14.7 L1.65 -15.4 M3.4 -15.2 Q4.2 -16.9 5.75 -18.15 L7.35 -18.9 6.95 -17.75 6.0 -17.35 Q4.35 -16.05 3.55 -14.35 L3.4 -15.2 M-12.1 -7.45 L-12.9 -7.3 Q-11.7 -10.6 -8.9 -12.45 L-6.35 -12.8 -6.1 -12.15 -8.45 -11.85 Q-10.9 -10.15 -12.1 -7.45 M-9.05 -15.0 L-10.15 -15.35 Q-7.8 -16.55 -4.55 -16.15 L-2.75 -15.2 -2.4 -15.0 -2.35 -14.85 -2.3 -14.6 -4.1 -15.55 Q-6.9 -15.85 -9.05 -15.0 M-6.25 -20.05 L-6.65 -20.35 Q-3.2 -19.75 -0.1 -18.1 L0.2 -17.55 Q-2.65 -19.05 -5.8 -19.7 L-6.25 -20.05" fill="#edc4b6" fill-rule="evenodd" stroke="none"/>
    <path d="M1.65 -15.4 L2.0 -14.7 Q2.05 -16.5 1.65 -18.1 L1.5 -18.7 1.25 -19.35 1.1 -19.7 1.3 -19.5 Q2.7 -17.9 3.2 -15.8 L3.35 -15.1 3.4 -15.2 3.55 -14.35 Q4.35 -16.05 6.0 -17.35 L6.95 -17.75 5.45 -14.25 Q6.5 -15.45 8.1 -16.05 10.8 -17.3 15.0 -15.1 11.8 -14.4 8.7 -12.55 11.0 -12.35 12.85 -11.45 15.0 -9.25 16.45 -6.6 L13.05 -9.6 8.6 -10.95 8.55 -9.9 9.4 -9.25 11.8 -7.3 Q13.35 -4.25 13.5 -0.65 11.75 -5.0 9.65 -7.5 6.85 -4.25 4.0 -7.0 L3.4 -10.35 2.75 -10.7 1.75 -11.1 1.65 -11.1 1.7 -11.15 1.75 -11.2 Q2.35 -11.6 2.35 -12.15 2.35 -12.7 1.75 -13.05 1.25 -13.45 0.5 -13.45 -0.3 -13.45 -0.9 -13.05 -1.45 -12.7 -1.45 -12.15 L-1.4 -11.8 -3.1 -11.9 Q-2.5 -12.25 -2.5 -12.8 -2.5 -13.4 -3.1 -13.8 -3.65 -14.15 -4.4 -14.15 L-5.75 -13.8 -5.95 -13.65 Q-7.4 -14.5 -9.05 -15.0 -6.9 -15.85 -4.1 -15.55 L-2.3 -14.6 -2.35 -14.85 -2.4 -15.0 -2.75 -15.2 Q-2.9 -16.2 -3.55 -17.25 L-3.95 -17.8 -5.25 -19.2 -5.8 -19.7 Q-2.65 -19.05 0.2 -17.55 L1.65 -14.8 1.65 -15.4 M2.55 1.7 L2.5 2.25 2.4 3.8 2.4 3.85 2.0 7.35 1.6 9.9 1.55 9.9 1.35 7.55 1.05 4.05 1.0 3.55 0.9 1.25 0.85 0.85 Q1.65 -1.45 1.8 -4.7 L2.65 -1.55 1.8 -4.7 Q1.65 -1.45 0.85 0.85 L0.45 1.9 Q0.35 -1.8 -0.7 -5.3 -0.05 -2.3 -1.3 -0.1 -1.25 -1.8 -1.35 -3.05 L-1.35 -3.25 Q-1.5 -4.8 -1.9 -5.6 -1.7 -4.4 -2.15 -3.45 L-2.15 -3.4 -2.25 -3.25 -2.3 -3.45 Q-2.65 -5.45 -4.25 -7.45 L-5.35 -7.45 Q-5.1 -7.1 -5.6 -6.8 -6.75 -7.45 -7.5 -5.15 L-7.55 -4.7 -7.65 -2.6 -7.1 1.95 -6.6 2.8 -6.6 3.4 -6.6 3.5 -6.65 4.35 -6.9 6.75 -7.15 8.5 -7.4 6.8 -7.75 4.45 -7.85 3.3 -8.45 -3.8 -8.5 -4.0 Q-8.95 -1.7 -8.2 0.05 -9.95 -2.2 -9.85 -6.45 L-9.65 -6.8 -8.65 -8.1 -12.1 -7.45 Q-10.9 -10.15 -8.45 -11.85 L-6.1 -12.15 -5.75 -11.9 -5.55 -11.8 -5.6 -11.75 -6.0 -11.4 -7.1 -11.05 Q-7.7 -10.7 -7.7 -10.1 -7.75 -9.7 -7.45 -9.45 L-7.7 -8.9 -7.35 -9.15 -7.2 -9.1 -6.4 -8.55 -5.6 -7.8 -5.55 -7.7 Q-5.05 -8.5 -3.45 -9.2 L-2.85 -9.3 -2.15 -9.3 -1.35 -9.1 -1.1 -9.0 -0.45 -8.7 -0.15 -8.55 -0.15 -8.6 -0.15 -8.55 0.2 -8.35 Q1.4 -7.45 1.9 -6.05 L2.2 -5.1 2.35 -4.55 2.45 -4.25 2.65 -4.2 2.5 -4.15 2.65 -3.4 2.7 -3.1 2.75 -2.55 2.75 -2.2 2.75 -2.1 2.8 -1.5 2.8 -0.9 2.65 -1.55 2.6 -0.65 2.6 -0.45 2.6 0.1 2.55 1.6 2.55 1.7 M-0.2 -11.65 L-0.3 -11.65 -0.45 -11.7 -0.2 -11.65 M2.5 -4.15 L2.45 -4.25 2.5 -4.15 M-5.6 -12.5 L-5.6 -12.6 -5.55 -12.5 -5.6 -12.5 M-7.0 -9.75 L-7.0 -9.85 -6.9 -9.8 -7.0 -9.75 M-5.35 -7.45 L-5.55 -7.7 -5.35 -7.45 M-7.7 -8.9 L-8.65 -8.1 -7.7 -8.9 M-7.65 -2.6 L-7.5 0.0 Q-8.0 -1.05 -8.45 -3.8 -8.0 -1.05 -7.5 0.0 L-7.65 -2.6" fill="#c06467" fill-rule="evenodd" stroke="none"/>
    <path d="M-6.35 -12.8 Q-6.35 -13.35 -5.95 -13.65 L-5.75 -13.8 -4.4 -14.15 Q-3.65 -14.15 -3.1 -13.8 -2.5 -13.4 -2.5 -12.8 -2.5 -12.25 -3.1 -11.9 -3.65 -11.5 -4.4 -11.45 L-5.55 -11.75 -5.55 -11.8 -5.75 -11.9 -6.1 -12.15 -6.35 -12.8 M-1.4 -11.8 L-1.45 -12.15 Q-1.45 -12.7 -0.9 -13.05 -0.3 -13.45 0.5 -13.45 1.25 -13.45 1.75 -13.05 2.35 -12.7 2.35 -12.15 2.35 -11.6 1.75 -11.2 L1.7 -11.15 1.65 -11.1 Q1.2 -10.75 0.5 -10.75 -0.3 -10.8 -0.9 -11.2 L-1.3 -11.65 -1.4 -11.8 M-0.75 -11.95 L-0.75 -11.85 -0.75 -11.75 -0.7 -11.7 -0.4 -11.3 Q-0.1 -11.05 0.4 -11.05 L1.25 -11.3 1.3 -11.3 1.35 -11.4 1.65 -11.85 1.3 -12.3 0.4 -12.55 0.1 -12.5 0.05 -12.6 Q-0.1 -12.75 -0.3 -12.75 L-0.7 -12.6 -0.85 -12.15 -0.75 -11.95 M-2.85 -9.3 L-2.85 -9.45 Q-2.9 -10.0 -2.3 -10.35 L-0.95 -10.7 0.4 -10.35 Q0.95 -10.0 1.0 -9.45 0.95 -8.85 0.4 -8.45 L0.2 -8.35 -0.15 -8.55 -0.15 -8.6 0.25 -9.15 -0.15 -9.6 -1.0 -9.8 -1.3 -9.8 -1.3 -9.9 -1.65 -10.05 -2.05 -9.9 -2.2 -9.45 -2.15 -9.3 -2.85 -9.3 M-6.0 -11.4 L-5.8 -11.4 Q-5.0 -11.45 -4.45 -11.05 L-4.05 -10.7 -3.85 -10.1 Q-3.9 -9.5 -4.45 -9.15 -5.0 -8.75 -5.8 -8.7 L-6.2 -8.75 Q-6.7 -8.85 -7.1 -9.15 L-7.45 -9.45 Q-7.75 -9.7 -7.7 -10.1 -7.7 -10.7 -7.1 -11.05 L-6.0 -11.4 M-4.8 -13.2 L-4.8 -13.35 -5.15 -13.45 -5.45 -13.4 -5.55 -13.35 -5.7 -12.9 -5.7 -12.8 -5.6 -12.6 -5.6 -12.5 Q-5.6 -12.2 -5.3 -12.05 L-4.95 -11.85 -3.75 -11.9 -3.6 -12.05 -3.25 -12.5 -3.6 -13.0 -4.45 -13.25 -4.8 -13.2 M-6.2 -10.5 L-6.2 -10.6 -6.5 -10.75 -6.6 -10.75 -6.9 -10.6 -7.05 -10.15 -7.05 -10.1 -7.0 -9.85 -7.0 -9.75 -6.65 -9.3 Q-6.4 -9.1 -6.0 -9.05 L-5.85 -9.05 -4.95 -9.3 Q-4.65 -9.5 -4.65 -9.8 L-4.8 -10.15 -4.95 -10.3 -5.85 -10.55 -6.2 -10.5" fill="#74bd68" fill-rule="evenodd" stroke="none"/>
    <path d="M0.1 -12.5 L0.4 -12.55 1.3 -12.3 1.65 -11.85 1.35 -11.4 1.3 -11.3 1.25 -11.3 0.4 -11.05 Q-0.1 -11.05 -0.4 -11.3 L-0.7 -11.7 -0.75 -11.75 -0.75 -11.85 -0.75 -11.95 -0.7 -11.85 -0.45 -11.7 -0.3 -11.65 -0.2 -11.65 -0.15 -11.65 0.05 -11.85 0.25 -12.15 0.1 -12.5 M-1.3 -9.8 L-1.0 -9.8 -0.15 -9.6 0.25 -9.15 -0.15 -8.6 -0.15 -8.55 -0.45 -8.7 -1.1 -9.0 -1.35 -9.1 -1.3 -9.15 -1.15 -9.45 -1.3 -9.8 M-4.8 -13.2 L-4.45 -13.25 -3.6 -13.0 -3.25 -12.5 -3.6 -12.05 -3.75 -11.9 -4.95 -11.85 -5.3 -12.05 Q-5.6 -12.2 -5.6 -12.5 L-5.55 -12.5 Q-5.35 -12.3 -5.15 -12.3 -4.95 -12.3 -4.8 -12.5 L-4.65 -12.75 -4.65 -12.85 -4.65 -12.9 -4.8 -13.2 M-6.2 -10.5 L-5.85 -10.55 -4.95 -10.3 -4.8 -10.15 -4.65 -9.8 Q-4.65 -9.5 -4.95 -9.3 L-5.85 -9.05 -6.0 -9.05 Q-6.4 -9.1 -6.65 -9.3 L-7.0 -9.75 -6.9 -9.8 -6.5 -9.55 -6.2 -9.8 -6.05 -10.15 -6.2 -10.5" fill="#2a592f" fill-rule="evenodd" stroke="none"/>
    <path d="M16.45 -6.6 L16.5 -6.5 12.15 -8.9 9.4 -9.25 8.55 -9.9 8.6 -10.95 13.05 -9.6 16.45 -6.6 M13.5 -0.65 Q12.05 -2.8 9.45 -4.35 8.2 -4.15 3.8 0.55 L4.05 -0.6 4.0 -1.75 3.65 -2.15 3.2 -2.25 3.15 -2.25 2.75 -2.1 2.75 -2.2 2.75 -2.55 2.7 -3.1 2.65 -3.4 2.5 -4.15 2.65 -4.2 Q3.65 -4.1 4.3 -5.4 L4.0 -7.0 Q6.85 -4.25 9.65 -7.5 11.75 -5.0 13.5 -0.65" fill="#803941" fill-rule="evenodd" stroke="none"/>
    <path d="M1.65 -11.1 L1.75 -11.1 2.75 -10.7 3.4 -10.35 4.0 -7.0 4.3 -5.4 Q3.65 -4.1 2.65 -4.2 L2.45 -4.25 2.35 -4.55 2.2 -5.1 1.9 -6.05 Q1.4 -7.45 0.2 -8.35 L0.4 -8.45 Q0.95 -8.85 1.0 -9.45 0.95 -10.0 0.4 -10.35 L-0.95 -10.7 -2.3 -10.35 Q-2.9 -10.0 -2.85 -9.45 L-2.85 -9.3 -3.45 -9.2 Q-5.05 -8.5 -5.55 -7.7 L-5.6 -7.8 -6.4 -8.55 -7.2 -9.1 -7.35 -9.15 -7.7 -8.9 -7.45 -9.45 -7.1 -9.15 Q-6.7 -8.85 -6.2 -8.75 L-5.8 -8.7 Q-5.0 -8.75 -4.45 -9.15 -3.9 -9.5 -3.85 -10.1 L-4.05 -10.7 -4.45 -11.05 Q-5.0 -11.45 -5.8 -11.4 L-6.0 -11.4 -5.6 -11.75 -5.55 -11.75 -4.4 -11.45 Q-3.65 -11.5 -3.1 -11.9 L-1.4 -11.8 -1.3 -11.65 -0.9 -11.2 Q-0.3 -10.8 0.5 -10.75 1.2 -10.75 1.65 -11.1 M2.65 -7.1 L2.3 -6.75 2.4 -5.95 Q2.5 -5.55 2.75 -5.25 L3.2 -5.1 3.5 -5.45 3.45 -6.25 3.1 -6.9 2.65 -7.1" fill="#ebebeb" fill-rule="evenodd" stroke="none"/>
    <path d="M2.65 -7.1 L3.1 -6.9 3.45 -6.25 3.5 -5.45 3.2 -5.1 2.75 -5.25 Q2.5 -5.55 2.4 -5.95 L2.3 -6.75 2.65 -7.1" fill="#323969" fill-rule="evenodd" stroke="none"/>
    <path d="M-4.8 5.15 L-6.6 2.8 -7.1 1.95 -7.65 -2.6 -7.55 -4.7 -7.5 -5.15 Q-6.75 -7.45 -5.6 -6.8 -5.1 -7.1 -5.35 -7.45 L-4.25 -7.45 Q-2.65 -5.45 -2.3 -3.45 -3.25 -3.5 -4.0 -2.55 -2.55 -3.25 -1.35 -3.05 -1.25 -1.8 -1.3 -0.1 -0.05 -2.3 -0.7 -5.3 0.35 -1.8 0.45 1.9 -0.5 3.15 -2.2 4.05 -3.35 4.65 -4.8 5.15 M2.75 -2.1 L3.15 -2.25 3.2 -2.25 3.65 -2.15 4.0 -1.75 4.05 -0.6 3.8 0.55 Q3.7 -0.95 3.15 -1.2 L2.8 -0.85 2.7 -0.65 2.6 -0.65 2.65 -1.55 2.8 -0.9 2.8 -1.5 2.75 -2.1 M-2.15 -3.45 Q-1.7 -4.4 -1.9 -5.6 -1.5 -4.8 -1.35 -3.25 L-2.15 -3.45 M-7.55 -4.7 Q-6.6 -4.55 -5.85 -3.25 -6.1 -5.0 -7.55 -4.7 M-6.9 -1.2 L-6.5 -0.9 -6.35 -0.8 -6.2 -2.0 -6.3 -3.1 -6.6 -3.4 Q-7.25 -3.8 -7.5 -2.1 L-7.25 -1.6 -7.2 -1.45 -6.9 -1.2 M-6.4 0.65 L-6.1 -0.3 -6.2 -2.0 -6.1 -0.3 -6.4 0.65 Q-6.45 1.4 -5.7 1.2 L-6.4 0.65 M-3.2 0.35 L-1.65 0.2 -1.65 0.05 Q-1.8 -1.3 -2.5 -1.8 L-3.05 -2.05 -3.55 -2.1 -3.95 -0.95 -4.1 0.05 -3.85 0.15 -3.4 0.3 -3.2 0.35 M-3.55 3.15 L-5.7 2.4 -6.15 2.1 -5.7 2.4 -3.55 3.15" fill="#edd0ae" fill-rule="evenodd" stroke="none"/>
    <path d="M2.65 1.6 L2.55 1.7 2.55 1.6 2.65 1.6 M3.15 -2.25 L3.2 -2.25 3.15 -2.25 M2.7 -0.65 L2.6 -0.45 2.6 -0.65 2.7 -0.65" fill="#ffd0ae" fill-rule="evenodd" stroke="none"/>
    <path d="M3.8 0.55 Q3.6 1.65 2.65 1.6 L2.55 1.6 2.6 0.1 2.6 -0.45 2.7 -0.65 2.8 -0.85 3.15 -1.2 Q3.7 -0.95 3.8 0.55 M1.0 3.55 L-0.15 4.1 Q-2.3 5.05 -4.8 5.15 -3.35 4.65 -2.2 4.05 -0.5 3.15 0.45 1.9 L0.45 1.85 0.9 1.25 1.0 3.55 M3.05 0.55 L2.6 0.1 3.05 0.55" fill="#e8bf97" fill-rule="evenodd" stroke="none"/>
    <path d="M13.5 -0.65 L13.5 -0.6 13.5 -0.65 M-5.55 -11.75 L-5.6 -11.75 -5.55 -11.8 -5.55 -11.75 M0.85 0.85 L0.9 1.25 0.45 1.85 0.45 1.9 0.85 0.85" fill="#d0a997" fill-rule="evenodd" stroke="none"/>
    <path d="M-0.75 -11.95 L-0.85 -12.15 -0.7 -12.6 -0.3 -12.75 Q-0.1 -12.75 0.05 -12.6 L0.1 -12.5 0.25 -12.15 0.05 -11.85 -0.15 -11.65 -0.2 -11.65 -0.45 -11.7 -0.7 -11.85 -0.75 -11.95 M-2.15 -9.3 L-2.2 -9.45 -2.05 -9.9 -1.65 -10.05 -1.3 -9.9 -1.3 -9.8 -1.15 -9.45 -1.3 -9.15 -1.35 -9.1 -2.15 -9.3 M-5.6 -12.6 L-5.7 -12.8 -5.7 -12.9 -5.55 -13.35 -5.45 -13.4 -5.15 -13.45 -4.8 -13.35 -4.8 -13.2 -4.65 -12.9 -4.65 -12.85 -4.65 -12.75 -4.8 -12.5 Q-4.95 -12.3 -5.15 -12.3 -5.35 -12.3 -5.55 -12.5 L-5.6 -12.6 M-7.0 -9.85 L-7.05 -10.1 -7.05 -10.15 -6.9 -10.6 -6.6 -10.75 -6.5 -10.75 -6.2 -10.6 -6.2 -10.5 -6.05 -10.15 -6.2 -9.8 -6.5 -9.55 -6.9 -9.8 -7.0 -9.85" fill="#d1e1bf" fill-rule="evenodd" stroke="none"/>
    <path d="M-6.6 3.4 L-6.45 3.4 -6.6 3.5 -6.6 3.4 M-6.9 -1.2 L-6.8 -1.2 Q-6.6 -1.2 -6.4 -1.45 L-6.3 -2.15 -6.4 -2.9 -6.7 -3.2 -7.1 -2.9 -7.3 -2.15 -7.25 -1.6 -7.5 -2.1 Q-7.25 -3.8 -6.6 -3.4 L-6.3 -3.1 -6.2 -2.0 -6.35 -0.8 -6.5 -0.9 -6.9 -1.2 M-3.4 0.3 L-3.85 0.15 -4.1 0.05 -3.95 -0.95 -3.55 -2.1 -3.05 -2.05 -2.5 -1.8 Q-1.8 -1.3 -1.65 0.05 L-1.65 0.2 -3.2 0.35 -2.7 0.0 Q-2.5 -0.35 -2.45 -0.85 -2.45 -1.35 -2.6 -1.65 -2.8 -2.0 -3.1 -1.95 -3.4 -2.0 -3.6 -1.65 L-3.8 -0.85 -3.65 0.0 -3.4 0.3" fill="#ffffff" fill-rule="evenodd" stroke="none"/>
    <path d="M-7.25 -1.6 L-7.3 -2.15 -7.1 -2.9 -6.7 -3.2 -6.4 -2.9 -6.3 -2.15 -6.4 -1.45 Q-6.6 -1.2 -6.8 -1.2 L-6.9 -1.2 -7.2 -1.45 -7.25 -1.6 M-6.45 -2.4 L-6.5 -2.35 -6.7 -2.25 -6.9 -2.35 -6.95 -2.6 -6.9 -2.7 -7.0 -2.6 -7.1 -2.2 -7.05 -1.75 -6.8 -1.55 -6.55 -1.75 -6.4 -2.15 -6.4 -2.45 -6.45 -2.4 M-3.4 0.3 L-3.65 0.0 -3.8 -0.85 -3.6 -1.65 Q-3.4 -2.0 -3.1 -1.95 -2.8 -2.0 -2.6 -1.65 -2.45 -1.35 -2.45 -0.85 -2.5 -0.35 -2.7 0.0 L-3.2 0.35 -3.4 0.3 M-3.6 -0.85 L-3.5 -0.3 -3.2 -0.1 Q-3.0 -0.1 -2.85 -0.3 -2.7 -0.55 -2.7 -0.85 L-2.7 -1.1 -2.8 -1.0 -3.05 -0.9 Q-3.2 -0.9 -3.3 -1.0 L-3.4 -1.3 -3.35 -1.45 -3.45 -1.35 -3.6 -0.85" fill="#5aad91" fill-rule="evenodd" stroke="none"/>
    <path d="M-6.45 -2.4 L-6.4 -2.45 -6.4 -2.15 -6.55 -1.75 -6.8 -1.55 -7.05 -1.75 -7.1 -2.2 -7.0 -2.6 -6.9 -2.7 -6.95 -2.6 -6.9 -2.35 -6.7 -2.25 -6.5 -2.35 -6.45 -2.4 M-3.6 -0.85 L-3.45 -1.35 -3.35 -1.45 -3.4 -1.3 -3.3 -1.0 Q-3.2 -0.9 -3.05 -0.9 L-2.8 -1.0 -2.7 -1.1 -2.7 -0.85 Q-2.7 -0.55 -2.85 -0.3 -3.0 -0.1 -3.2 -0.1 L-3.5 -0.3 -3.6 -0.85" fill="#224437" fill-rule="evenodd" stroke="none"/>
    <path d="M-2.3 -3.45 L-2.25 -3.25 -2.15 -3.4 -2.15 -3.45 -1.35 -3.25 -1.35 -3.05 Q-2.55 -3.25 -4.0 -2.55 -3.25 -3.5 -2.3 -3.45 M-7.55 -4.7 Q-6.1 -5.0 -5.85 -3.25 -6.6 -4.55 -7.55 -4.7" fill="#7c4632" fill-rule="evenodd" stroke="none"/>
    <path d="M-6.4 0.65 L-5.7 1.2 Q-6.45 1.4 -6.4 0.65" fill="#b18b7e" fill-rule="evenodd" stroke="none"/>
    <path d="M2.4 3.8 L2.45 3.8 2.45 3.85 2.45 3.9 2.45 3.85 2.4 3.85 2.4 3.8" fill="#add2e3" fill-rule="evenodd" stroke="none"/>
    <path d="M1.1 -19.7 L0.8 -20.0 0.5 -20.25 1.1 -18.75 Q1.6 -17.3 1.65 -15.65 L1.65 -15.4 1.65 -14.8 0.2 -17.55 -0.1 -18.1 Q-3.2 -19.75 -6.65 -20.35 L-6.25 -20.05 -5.8 -19.7 -5.25 -19.2 -3.95 -17.8 -3.55 -17.25 Q-2.9 -16.2 -2.75 -15.2 L-2.4 -15.0 M1.1 -19.7 L1.3 -19.5 Q2.7 -17.9 3.2 -15.8 L3.35 -15.1 3.4 -15.2 Q4.2 -16.9 5.75 -18.15 L7.35 -18.9 6.95 -17.75 5.45 -14.25 Q6.5 -15.45 8.1 -16.05 10.8 -17.3 15.0 -15.1 11.8 -14.4 8.7 -12.55 11.0 -12.35 12.85 -11.45 15.0 -9.25 16.45 -6.6 L16.5 -6.5 12.15 -8.9 9.4 -9.25 11.8 -7.3 Q13.35 -4.25 13.5 -0.65 L13.5 -0.6 13.5 -0.65 Q12.05 -2.8 9.45 -4.35 8.2 -4.15 3.8 0.55 M2.65 1.6 L2.55 1.7 2.5 2.25 2.4 3.8 2.4 3.85 2.0 7.35 1.6 9.9 1.55 9.9 1.35 7.55 1.05 4.05 1.0 3.55 0.9 1.25 0.85 0.85 Q1.65 -1.45 1.8 -4.7 L2.65 -1.55 2.6 -0.65 2.6 -0.45 2.6 0.1 2.55 1.6 2.55 1.7 M-6.6 2.8 L-6.6 3.4 -6.6 3.5 -6.65 4.35 -6.9 6.75 -7.15 8.5 -7.4 6.8 -7.75 4.45 -7.85 3.3 -8.45 -3.8 -8.5 -4.0 Q-8.95 -1.7 -8.2 0.05 -9.95 -2.2 -9.85 -6.45 L-9.65 -6.8 -8.65 -8.1 -12.1 -7.45 -12.9 -7.3 Q-11.7 -10.6 -8.9 -12.45 L-6.35 -12.8 Q-6.35 -13.35 -5.95 -13.65 -7.4 -14.5 -9.05 -15.0 L-10.15 -15.35 Q-7.8 -16.55 -4.55 -16.15 L-2.75 -15.2 M-1.4 -11.8 L-1.45 -12.15 Q-1.45 -12.7 -0.9 -13.05 -0.3 -13.45 0.5 -13.45 1.25 -13.45 1.75 -13.05 2.35 -12.7 2.35 -12.15 2.35 -11.6 1.75 -11.2 L1.7 -11.15 1.65 -11.1 1.75 -11.1 2.75 -10.7 3.4 -10.35 4.0 -7.0 4.3 -5.4 Q3.65 -4.1 2.65 -4.2 L2.45 -4.25 2.5 -4.15 2.65 -3.4 2.7 -3.1 2.75 -2.55 2.75 -2.2 2.75 -2.1 3.15 -2.25 3.2 -2.25 M9.4 -9.25 L8.55 -9.9 M0.2 -8.35 Q1.4 -7.45 1.9 -6.05 L2.2 -5.1 2.35 -4.55 2.45 -4.25 M1.65 -11.1 Q1.2 -10.75 0.5 -10.75 -0.3 -10.8 -0.9 -11.2 L-1.3 -11.65 -1.4 -11.8 -3.1 -11.9 Q-3.65 -11.5 -4.4 -11.45 L-5.55 -11.75 -5.6 -11.75 -6.0 -11.4 -5.8 -11.4 Q-5.0 -11.45 -4.45 -11.05 L-4.05 -10.7 -3.85 -10.1 Q-3.9 -9.5 -4.45 -9.15 -5.0 -8.75 -5.8 -8.7 L-6.2 -8.75 Q-6.7 -8.85 -7.1 -9.15 L-7.45 -9.45 -7.7 -8.9 -7.35 -9.15 -7.2 -9.1 -6.4 -8.55 -5.6 -7.8 -5.55 -7.7 Q-5.05 -8.5 -3.45 -9.2 L-2.85 -9.3 -2.15 -9.3 -1.35 -9.1 -1.1 -9.0 -0.45 -8.7 -0.15 -8.55 0.2 -8.35 M2.75 -2.1 L2.8 -1.5 2.8 -0.9 2.65 -1.55 M0.45 1.9 L0.85 0.85 M-3.1 -11.9 Q-2.5 -12.25 -2.5 -12.8 -2.5 -13.4 -3.1 -13.8 -3.65 -14.15 -4.4 -14.15 L-5.75 -13.8 -5.95 -13.65 M-5.55 -11.8 L-5.55 -11.75 M-6.1 -12.15 L-5.75 -11.9 -5.55 -11.8 M-7.45 -9.45 Q-7.75 -9.7 -7.7 -10.1 -7.7 -10.7 -7.1 -11.05 L-6.0 -11.4 M-8.65 -8.1 L-7.7 -8.9 M-5.55 -7.7 L-5.35 -7.45 -4.25 -7.45 Q-2.65 -5.45 -2.3 -3.45 L-2.25 -3.25 -2.15 -3.4 -2.15 -3.45 Q-1.7 -4.4 -1.9 -5.6 -1.5 -4.8 -1.35 -3.25 L-1.35 -3.05 Q-1.25 -1.8 -1.3 -0.1 -0.05 -2.3 -0.7 -5.3 0.35 -1.8 0.45 1.9 M-5.35 -7.45 Q-5.1 -7.1 -5.6 -6.8 -6.75 -7.45 -7.5 -5.15 L-7.55 -4.7 -7.65 -2.6 -7.5 0.0 Q-8.0 -1.05 -8.45 -3.8 M-6.1 -12.15 L-6.35 -12.8" fill="none" stroke="#5f2c34" stroke-linecap="round" stroke-linejoin="round" stroke-width="0.05"/>
    <path d="M2.45 3.85 L2.4 3.85 M-2.85 -9.3 L-2.85 -9.45 Q-2.9 -10.0 -2.3 -10.35 L-0.95 -10.7 0.4 -10.35 Q0.95 -10.0 1.0 -9.45 0.95 -8.85 0.4 -8.45 L0.2 -8.35 M2.7 -0.65 L2.6 -0.45 M-5.6 -12.5 L-5.6 -12.6 M-7.0 -9.75 L-7.0 -9.85 M-7.55 -4.7 Q-6.1 -5.0 -5.85 -3.25 -6.6 -4.55 -7.55 -4.7 M-6.9 -1.2 L-6.5 -0.9 -6.35 -0.8 -6.2 -2.0 -6.3 -3.1 -6.6 -3.4 Q-7.25 -3.8 -7.5 -2.1 L-7.25 -1.6 M-2.15 -3.45 L-1.35 -3.25 M-3.2 0.35 L-1.65 0.2 -1.65 0.05 Q-1.8 -1.3 -2.5 -1.8 L-3.05 -2.05 -3.55 -2.1 -3.95 -0.95 -4.1 0.05 -3.85 0.15 -3.4 0.3 -3.2 0.35 M-1.35 -3.05 Q-2.55 -3.25 -4.0 -2.55 -3.25 -3.5 -2.3 -3.45" fill="none" stroke="#6b4a43" stroke-linecap="round" stroke-linejoin="round" stroke-width="0.05"/>
    <path d="M3.8 0.55 Q3.6 1.65 2.65 1.6 M1.0 3.55 L-0.15 4.1 Q-2.3 5.05 -4.8 5.15 L-6.6 2.8 -7.1 1.95 -7.65 -2.6 M3.2 -2.25 L3.65 -2.15 4.0 -1.75 4.05 -0.6 3.8 0.55 M3.15 -1.2 L2.8 -0.85 2.7 -0.65 M2.6 0.1 L3.05 0.55 M-6.2 -2.0 L-6.1 -0.3 -6.4 0.65 Q-6.45 1.4 -5.7 1.2 M-6.15 2.1 L-5.7 2.4 -3.55 3.15" fill="none" stroke="#ad6a27" stroke-linecap="round" stroke-linejoin="round" stroke-width="0.05"/>
  </g>
</svg>
