<?xml version="1.0" encoding="UTF-8" standalone="no"?>
<svg xmlns:xlink="http://www.w3.org/1999/xlink" height="140.65px" width="114.75px" xmlns="http://www.w3.org/2000/svg">
  <g transform="matrix(1.0, 0.0, 0.0, 1.0, 57.3, 70.35)">
    <path d="M7.35 -20.75 L7.45 -20.65 7.4 -20.65 7.35 -20.65 7.35 -20.75" fill="#000000" fill-opacity="0.21176471" fill-rule="evenodd" stroke="none"/>
    <path d="M1.7 -22.25 L1.75 -22.15 1.7 -22.15 1.7 -22.25" fill="#2c732b" fill-rule="evenodd" stroke="none"/>
    <path d="M-1.15 -56.15 Q-6.15 -60.95 -11.75 -58.15 -13.45 -69.0 -8.6 -70.25 -1.55 -62.45 -1.15 -56.15" fill="url(#gradient0)" fill-rule="evenodd" stroke="none"/>
    <path d="M-11.75 -58.15 Q-6.15 -60.95 -1.15 -56.15 -1.0 -44.45 -4.4 -37.9 -6.75 -34.75 -8.45 -32.75 -10.3 -30.6 -11.45 -29.8 -13.6 -30.4 -14.75 -32.05 -16.6 -34.7 -15.75 -40.0 -10.6 -44.6 -11.75 -58.15" fill="url(#gradient1)" fill-rule="evenodd" stroke="none"/>
    <path d="M8.4 -55.65 Q13.95 -59.8 19.2 -56.4 16.45 -43.1 21.05 -37.9 21.25 -32.5 19.1 -30.1 17.8 -28.65 15.65 -28.3 14.55 -29.25 12.95 -31.6 11.45 -33.75 9.55 -37.15 6.9 -44.05 8.4 -55.65" fill="url(#gradient2)" fill-rule="evenodd" stroke="none"/>
    <path d="M19.2 -56.4 Q13.95 -59.8 8.4 -55.65 9.55 -61.85 17.45 -68.8 22.1 -67.0 19.2 -56.4" fill="url(#gradient3)" fill-rule="evenodd" stroke="none"/>
    <path d="M-43.0 -18.9 Q-52.2 -13.9 -54.7 -18.5 -49.75 -28.05 -44.25 -30.35 -47.1 -23.8 -43.0 -18.9" fill="url(#gradient4)" fill-rule="evenodd" stroke="none"/>
    <path d="M-24.1 -20.6 L-25.65 -20.25 Q-31.25 -24.15 -43.0 -18.9 -47.1 -23.8 -44.25 -30.35 -33.85 -34.05 -27.0 -32.5 -19.8 -29.6 -17.8 -27.7 -17.7 -25.8 -18.4 -24.35 -19.8 -21.6 -24.1 -20.6" fill="url(#gradient5)" fill-rule="evenodd" stroke="none"/>
    <path d="M21.65 -25.45 Q23.85 -27.1 31.4 -29.15 38.3 -29.9 48.25 -25.05 50.3 -18.2 45.7 -13.8 34.6 -20.4 28.65 -17.15 L27.15 -17.6 Q23.0 -19.1 21.95 -22.0 21.35 -23.55 21.65 -25.45" fill="url(#gradient6)" fill-rule="evenodd" stroke="none"/>
    <path d="M45.7 -13.8 Q50.3 -18.2 48.25 -25.05 53.45 -22.15 57.3 -12.05 54.25 -7.8 45.7 -13.8" fill="url(#gradient7)" fill-rule="evenodd" stroke="none"/>
    <path d="M-29.7 0.75 L-32.05 2.85 Q-38.7 2.1 -46.95 12.5 -52.7 10.15 -52.95 2.95 -45.2 -5.35 -38.45 -7.3 L-28.15 -7.6 Q-27.5 -6.35 -27.35 -5.1 -27.0 -2.15 -29.7 0.75" fill="url(#gradient8)" fill-rule="evenodd" stroke="none"/>
    <path d="M28.55 -1.9 Q28.85 -3.15 29.65 -4.3 32.25 -4.7 39.8 -2.85 46.25 -0.15 53.05 9.0 51.95 16.15 46.0 17.8 38.95 6.5 32.3 6.5 L30.2 4.2 Q27.85 1.0 28.55 -1.9" fill="url(#gradient9)" fill-rule="evenodd" stroke="none"/>
    <path d="M-46.95 12.5 Q-53.05 21.4 -57.25 18.6 -56.85 7.7 -52.95 2.95 -52.7 10.15 -46.95 12.5" fill="url(#gradient10)" fill-rule="evenodd" stroke="none"/>
    <path d="M46.0 17.8 Q51.95 16.15 53.05 9.0 56.35 14.15 55.5 25.0 51.0 27.35 46.0 17.8" fill="url(#gradient11)" fill-rule="evenodd" stroke="none"/>
    <path d="M30.55 42.0 Q36.5 43.55 40.6 37.8 41.25 44.05 35.75 53.2 30.75 53.0 30.55 42.0" fill="url(#gradient12)" fill-rule="evenodd" stroke="none"/>
    <path d="M-34.35 38.25 Q-35.8 49.15 -40.75 48.8 -45.25 39.05 -43.85 32.95 -40.45 39.1 -34.35 38.25" fill="url(#gradient13)" fill-rule="evenodd" stroke="none"/>
    <path d="M-24.5 20.0 L-25.45 22.3 Q-31.65 25.0 -34.35 38.25 -40.45 39.1 -43.85 32.95 -40.7 21.75 -35.6 16.6 -29.2 11.9 -26.6 11.2 L-25.05 12.6 Q-22.95 15.3 -24.5 20.0" fill="url(#gradient14)" fill-rule="evenodd" stroke="none"/>
    <path d="M26.0 14.25 Q28.45 15.25 34.25 20.65 38.7 26.3 40.6 37.8 36.5 43.55 30.55 42.0 29.35 28.5 23.55 25.1 L22.85 22.75 Q21.85 17.9 24.3 15.45 L26.0 14.25" fill="url(#gradient15)" fill-rule="evenodd" stroke="none"/>
    <path d="M-9.55 -21.25 Q-11.25 -18.65 -12.15 -16.3 -13.3 -19.15 -13.65 -21.95 L-13.6 -22.2 -13.55 -22.25 -12.85 -21.0 Q-11.4 -20.4 -10.25 -21.35 L-9.95 -22.25 -9.5 -21.6 -9.55 -21.25" fill="url(#gradient16)" fill-rule="evenodd" stroke="none"/>
    <path d="M12.9 -19.95 L12.85 -20.45 13.25 -20.85 13.45 -19.95 Q14.45 -18.9 16.0 -19.3 L16.85 -20.55 16.85 -20.45 16.9 -20.2 Q16.25 -17.55 14.9 -15.0 L12.9 -19.95" fill="url(#gradient17)" fill-rule="evenodd" stroke="none"/>
    <path d="M21.95 -22.0 Q23.0 -19.1 27.15 -17.6 26.6 -12.0 23.45 -8.3 L22.9 -7.7 Q21.35 -7.5 20.45 -8.7 L20.3 -10.0 Q19.65 -17.2 21.95 -22.0" fill="url(#gradient18)" fill-rule="evenodd" stroke="none"/>
    <path d="M28.55 -1.9 Q27.85 1.0 30.2 4.2 25.95 7.45 21.65 7.75 L19.0 7.6 Q17.9 6.4 18.25 4.9 L19.1 4.05 Q23.8 -0.75 28.55 -1.9" fill="url(#gradient19)" fill-rule="evenodd" stroke="none"/>
    <path d="M24.3 15.45 Q21.85 17.9 22.85 22.75 18.9 20.6 16.85 17.2 16.1 16.0 15.65 14.65 15.9 13.55 16.65 13.0 L17.45 12.6 Q21.4 13.65 24.3 15.45" fill="url(#gradient20)" fill-rule="evenodd" stroke="none"/>
    <path d="M-17.9 15.15 Q-20.35 18.3 -24.5 20.0 -22.95 15.3 -25.05 12.6 -22.05 11.15 -18.0 10.55 -17.6 10.7 -17.25 11.05 -16.6 11.65 -16.45 12.8 L-17.9 15.15" fill="url(#gradient21)" fill-rule="evenodd" stroke="none"/>
    <path d="M-21.55 5.3 Q-25.85 4.55 -29.7 0.75 -27.0 -2.15 -27.35 -5.1 -22.8 -3.45 -18.65 1.9 L-17.9 2.85 Q-17.75 4.4 -18.95 5.45 L-21.55 5.3" fill="url(#gradient22)" fill-rule="evenodd" stroke="none"/>
    <path d="M-21.5 -10.9 Q-24.25 -14.9 -24.1 -20.6 -19.8 -21.6 -18.4 -24.35 -16.7 -19.3 -18.2 -12.25 L-18.45 -10.9 Q-19.5 -9.85 -21.0 -10.25 L-21.5 -10.9" fill="url(#gradient23)" fill-rule="evenodd" stroke="none"/>
    <path d="M-14.75 -32.05 Q-13.6 -30.4 -11.45 -29.8 -10.3 -30.6 -8.45 -32.75 -8.0 -28.05 -9.95 -22.25 L-10.25 -21.35 Q-11.4 -20.4 -12.85 -21.0 L-13.55 -22.25 Q-15.55 -26.55 -14.75 -32.05" fill="url(#gradient24)" fill-rule="evenodd" stroke="none"/>
    <path d="M12.95 -31.6 Q14.55 -29.25 15.65 -28.3 17.8 -28.65 19.1 -30.1 19.3 -24.55 16.85 -20.55 L16.0 -19.3 Q14.45 -18.9 13.45 -19.95 L13.25 -20.85 12.75 -23.8 Q12.2 -28.1 12.95 -31.6" fill="url(#gradient25)" fill-rule="evenodd" stroke="none"/>
    <path d="M-8.1 12.5 Q-13.2 15.2 -17.85 15.2 L-17.9 15.15 -16.45 12.8 Q-16.6 11.65 -17.25 11.05 -14.7 9.3 -11.8 8.05 -10.4 10.3 -8.1 12.5" fill="url(#gradient26)" fill-rule="evenodd" stroke="none"/>
    <path d="M7.5 13.5 Q10.05 11.6 11.75 9.5 L16.65 13.0 Q15.9 13.55 15.65 14.65 16.1 16.0 16.85 17.2 L16.8 17.2 Q12.2 16.65 7.5 13.5" fill="url(#gradient27)" fill-rule="evenodd" stroke="none"/>
    <path d="M-12.75 6.35 L-20.9 6.0 -21.15 5.8 -21.55 5.3 -18.95 5.45 Q-17.75 4.4 -17.9 2.85 L-18.65 1.9 Q-16.4 1.2 -14.0 0.85 -14.0 3.65 -12.75 6.35" fill="url(#gradient28)" fill-rule="evenodd" stroke="none"/>
    <path d="M12.85 7.9 Q14.45 5.35 14.8 2.55 17.0 3.15 19.1 4.05 L18.25 4.9 Q17.9 6.4 19.0 7.6 L21.65 7.75 21.15 8.3 20.9 8.4 12.85 7.9" fill="url(#gradient29)" fill-rule="evenodd" stroke="none"/>
    <path d="M-13.3 -9.95 Q-13.1 -7.7 -11.85 -5.8 L-13.0 -4.5 -13.35 -3.55 Q-18.5 -6.15 -21.4 -10.0 L-21.45 -10.25 -21.5 -10.9 -21.0 -10.25 Q-19.5 -9.85 -18.45 -10.9 L-18.2 -12.25 Q-15.7 -11.35 -13.3 -9.95" fill="url(#gradient30)" fill-rule="evenodd" stroke="none"/>
    <path d="M13.45 -4.35 Q14.9 -6.1 15.35 -8.35 L20.3 -10.0 20.45 -8.7 Q21.35 -7.5 22.9 -7.7 L23.45 -8.3 23.35 -7.65 23.25 -7.4 Q19.95 -3.95 14.65 -2.0 L14.45 -2.9 13.45 -4.35" fill="url(#gradient31)" fill-rule="evenodd" stroke="none"/>
    <path d="M-11.85 -5.8 L-3.8 -14.75 0.65 -16.25 2.25 -16.15 6.45 -14.2 13.45 -4.35 14.45 -2.9 14.65 -2.0 Q15.05 0.35 14.8 2.55 14.45 5.35 12.85 7.9 L11.75 9.5 Q10.05 11.6 7.5 13.5 L5.15 15.05 6.8 13.0 Q8.55 10.6 9.35 8.25 L9.75 6.9 Q10.35 4.2 9.75 1.55 8.6 -3.4 3.25 -8.2 2.95 -12.05 1.3 -12.55 L1.1 -12.55 Q-0.6 -12.25 -1.25 -8.45 -7.15 -4.3 -8.85 0.45 -9.75 3.0 -9.45 5.7 L-9.25 7.1 Q-8.75 9.5 -7.3 12.05 L-5.95 14.25 -5.95 14.3 -8.1 12.5 Q-10.4 10.3 -11.8 8.05 L-12.75 6.35 Q-14.0 3.65 -14.0 0.85 -14.05 -1.35 -13.35 -3.55 L-13.0 -4.5 -11.85 -5.8" fill="url(#gradient32)" fill-rule="evenodd" stroke="none"/>
    <path d="M-5.95 14.25 L-7.3 12.05 Q-8.75 9.5 -9.25 7.1 L-9.45 5.7 Q-9.75 3.0 -8.85 0.45 -7.15 -4.3 -1.25 -8.45 -0.6 -12.25 1.1 -12.55 L1.3 -12.55 Q2.95 -12.05 3.25 -8.2 8.6 -3.4 9.75 1.55 10.35 4.2 9.75 6.9 L9.35 8.25 Q8.55 10.6 6.8 13.0 L5.15 15.05 4.85 15.5 0.05 12.45 -0.3 12.45 Q-2.25 11.95 -5.95 14.25" fill="url(#gradient33)" fill-rule="evenodd" stroke="none"/>
    <path d="M6.25 -20.15 Q9.25 -18.25 11.85 -19.35 L12.9 -19.95 14.9 -15.0 Q15.95 -11.25 15.35 -8.35 14.9 -6.1 13.45 -4.35 L6.45 -14.2 3.75 -17.0 2.25 -16.15 0.65 -16.25 -0.75 -17.3 -3.8 -14.75 -11.85 -5.8 Q-13.1 -7.7 -13.3 -9.95 -13.55 -12.85 -12.15 -16.3 -11.25 -18.65 -9.55 -21.25 L-8.8 -20.7 Q-6.3 -19.05 -2.9 -20.7 L-2.1 -19.5 1.7 -22.15 1.75 -22.1 5.3 -19.05 6.25 -20.15" fill="url(#gradient34)" fill-rule="evenodd" stroke="none"/>
    <path d="M2.25 -16.15 L3.75 -17.0 6.45 -14.2 2.25 -16.15" fill="url(#gradient35)" fill-rule="evenodd" stroke="none"/>
    <path d="M-3.8 -14.75 L-0.75 -17.3 0.65 -16.25 -3.8 -14.75" fill="url(#gradient36)" fill-rule="evenodd" stroke="none"/>
    <path d="M-2.9 -20.7 Q-6.3 -19.05 -8.8 -20.7 L-9.55 -21.25 -9.5 -21.6 Q-6.75 -37.75 -0.15 -31.5 L1.05 -26.45 Q-3.0 -27.05 -2.9 -20.7" fill="url(#gradient37)" fill-rule="evenodd" stroke="none"/>
    <path d="M6.25 -20.15 Q7.05 -26.5 3.0 -26.3 L4.75 -31.25 Q11.15 -36.05 12.6 -23.85 L12.85 -20.45 12.9 -19.95 11.85 -19.35 Q9.25 -18.25 6.25 -20.15" fill="url(#gradient38)" fill-rule="evenodd" stroke="none"/>
    <path d="M-14.8 33.4 L-12.7 33.5 Q-11.8 34.3 -11.2 36.5 -10.35 39.8 -10.6 44.45 -10.9 49.05 -12.15 52.25 -13.4 55.4 -15.0 55.35 -16.65 55.25 -17.5 51.95 -18.4 48.6 -18.15 44.0 -17.85 39.35 -16.6 36.2 -15.75 34.05 -14.8 33.4" fill="url(#gradient39)" fill-rule="evenodd" stroke="none"/>
    <path d="M12.1 34.95 Q12.95 35.7 13.55 37.9 14.4 41.25 14.15 45.85 13.9 50.45 12.65 53.65 11.35 56.85 9.75 56.75 8.1 56.65 7.25 53.35 6.35 50.0 6.65 45.4 6.9 40.8 8.15 37.6 9.0 35.5 9.95 34.8 L12.1 34.95" fill="url(#gradient40)" fill-rule="evenodd" stroke="none"/>
    <path d="M0.05 12.45 L4.85 15.5 Q11.05 19.9 16.0 26.1 23.45 49.85 23.15 55.8 13.2 65.25 -3.45 70.3 -19.45 63.4 -28.2 52.85 -27.9 47.3 -17.75 24.15 -10.55 17.15 -5.95 14.3 L-5.95 14.25 Q-2.25 11.95 -0.3 12.45 L0.05 12.45 M12.1 34.95 L9.95 34.8 Q9.0 35.5 8.15 37.6 6.9 40.8 6.65 45.4 6.35 50.0 7.25 53.35 8.1 56.65 9.75 56.75 11.35 56.85 12.65 53.65 13.9 50.45 14.15 45.85 14.4 41.25 13.55 37.9 12.95 35.7 12.1 34.95 M-14.8 33.4 Q-15.75 34.05 -16.6 36.2 -17.85 39.35 -18.15 44.0 -18.4 48.6 -17.5 51.95 -16.65 55.25 -15.0 55.35 -13.4 55.4 -12.15 52.25 -10.9 49.05 -10.6 44.45 -10.35 39.8 -11.2 36.5 -11.8 34.3 -12.7 33.5 L-14.8 33.4" fill="url(#gradient41)" fill-rule="evenodd" stroke="none"/>
    <path d="M8.4 -55.65 Q6.9 -44.05 9.55 -37.15 11.45 -33.75 12.95 -31.6 14.55 -29.25 15.65 -28.3 17.8 -28.65 19.1 -30.1 21.25 -32.5 21.05 -37.9 16.45 -43.1 19.2 -56.4 M21.65 -25.45 Q21.35 -23.55 21.95 -22.0 23.0 -19.1 27.15 -17.6 L28.65 -17.15 Q34.6 -20.4 45.7 -13.8 M29.65 -4.3 Q28.85 -3.15 28.55 -1.9 27.85 1.0 30.2 4.2 L32.3 6.5 Q38.95 6.5 46.0 17.8 M26.0 14.25 L24.3 15.45 Q21.85 17.9 22.85 22.75 L23.55 25.1 Q29.35 28.5 30.55 42.0 M40.6 37.8 Q38.7 26.3 34.25 20.65 M-24.5 20.0 L-25.45 22.3 Q-31.65 25.0 -34.35 38.25 M-43.85 32.95 Q-40.7 21.75 -35.6 16.6 M-26.6 11.2 L-25.05 12.6 Q-22.95 15.3 -24.5 20.0 M-29.7 0.75 L-32.05 2.85 Q-38.7 2.1 -46.95 12.5 M-28.15 -7.6 Q-27.5 -6.35 -27.35 -5.1 -27.0 -2.15 -29.7 0.75 M-24.1 -20.6 L-25.65 -20.25 Q-31.25 -24.15 -43.0 -18.9 M-17.8 -27.7 Q-17.7 -25.8 -18.4 -24.35 -19.8 -21.6 -24.1 -20.6 M-11.75 -58.15 Q-10.6 -44.6 -15.75 -40.0 -16.6 -34.7 -14.75 -32.05 -13.6 -30.4 -11.45 -29.8 -10.3 -30.6 -8.45 -32.75 -6.75 -34.75 -4.4 -37.9 -1.0 -44.45 -1.15 -56.15" fill="none" stroke="#245320" stroke-linecap="round" stroke-linejoin="round" stroke-width="0.05"/>
    <path d="M4.85 15.5 L5.15 15.05" fill="none" stroke="#985430" stroke-linecap="round" stroke-linejoin="round" stroke-width="0.05"/>
    <path d="M13.25 -20.85 L12.85 -20.45 M16.9 -20.2 L16.85 -20.45 16.85 -20.55 M-11.85 -5.8 L-3.8 -14.75 0.65 -16.25 2.25 -16.15 6.45 -14.2 13.45 -4.35 14.45 -2.9 M5.15 15.05 L7.5 13.5 Q10.05 11.6 11.75 9.5 L12.85 7.9 Q14.45 5.35 14.8 2.55 15.05 0.35 14.65 -2.0 M-5.95 14.3 L-8.1 12.5 Q-10.4 10.3 -11.8 8.05 L-12.75 6.35 Q-14.0 3.65 -14.0 0.85 -14.05 -1.35 -13.35 -3.55 M-9.5 -21.6 L-9.95 -22.25 M-13.55 -22.25 L-13.6 -22.2 -13.65 -21.95 M-13.0 -4.5 L-11.85 -5.8" fill="none" stroke="#48943a" stroke-linecap="round" stroke-linejoin="round" stroke-width="0.05"/>
    <path d="M17.45 -68.8 Q9.55 -61.85 8.4 -55.65 M48.25 -25.05 Q53.45 -22.15 57.3 -12.05 M-54.7 -18.5 Q-49.75 -28.05 -44.25 -30.35 M-1.15 -56.15 Q-1.55 -62.45 -8.6 -70.25" fill="none" stroke="#47ba01" stroke-linecap="round" stroke-linejoin="round" stroke-width="0.05"/>
    <path d="M19.2 -56.4 Q22.1 -67.0 17.45 -68.8 M-8.6 -70.25 Q-13.45 -69.0 -11.75 -58.15" fill="none" stroke="#479b02" stroke-linecap="round" stroke-linejoin="round" stroke-width="0.05"/>
    <path d="M57.3 -12.05 Q54.25 -7.8 45.7 -13.8 M46.0 17.8 Q51.0 27.35 55.5 25.0 56.35 14.15 53.05 9.0 M-34.35 38.25 Q-35.8 49.15 -40.75 48.8 -45.25 39.05 -43.85 32.95 M-46.95 12.5 Q-53.05 21.4 -57.25 18.6 -56.85 7.7 -52.95 2.95 M-43.0 -18.9 Q-52.2 -13.9 -54.7 -18.5 M30.55 42.0 Q30.75 53.0 35.75 53.2 41.25 44.05 40.6 37.8" fill="none" stroke="#428e02" stroke-linecap="round" stroke-linejoin="round" stroke-width="0.05"/>
    <path d="M48.25 -25.05 Q38.3 -29.9 31.4 -29.15 23.85 -27.1 21.65 -25.45 M53.05 9.0 Q46.25 -0.15 39.8 -2.85 32.25 -4.7 29.65 -4.3 M34.25 20.65 Q28.45 15.25 26.0 14.25 M-35.6 16.6 Q-29.2 11.9 -26.6 11.2 M-52.95 2.95 Q-45.2 -5.35 -38.45 -7.3 L-28.15 -7.6 M-44.25 -30.35 Q-33.85 -34.05 -27.0 -32.5 -19.8 -29.6 -17.8 -27.7" fill="none" stroke="#3d702e" stroke-linecap="round" stroke-linejoin="round" stroke-width="0.05"/>
    <path d="M16.85 -20.55 L16.0 -19.3 Q14.45 -18.9 13.45 -19.95 L13.25 -20.85 12.75 -23.8 Q12.2 -28.1 12.95 -31.6 M16.85 -20.55 Q19.3 -24.55 19.1 -30.1 M14.65 -2.0 L14.45 -2.9 M23.45 -8.3 L23.35 -7.65 M20.45 -8.7 L20.3 -10.0 15.35 -8.35 M23.45 -8.3 L22.9 -7.7 M20.9 8.4 L21.15 8.3 21.65 7.75 M18.25 4.9 L19.1 4.05 Q17.0 3.15 14.8 2.55 M16.8 17.2 L16.85 17.2 M16.65 13.0 L11.75 9.5 M-17.85 15.2 L-17.9 15.15 M-18.0 10.55 Q-17.6 10.7 -17.25 11.05 -14.7 9.3 -11.8 8.05 M-20.9 6.0 L-21.15 5.8 M-18.65 1.9 Q-16.4 1.2 -14.0 0.85 M-21.45 -10.25 L-21.5 -10.9 -21.0 -10.25 M-18.2 -12.25 Q-15.7 -11.35 -13.3 -9.95 M-9.95 -22.25 L-10.25 -21.35 Q-11.4 -20.4 -12.85 -21.0 L-13.55 -22.25 Q-15.55 -26.55 -14.75 -32.05 M-13.35 -3.55 L-13.0 -4.5 M-9.95 -22.25 Q-8.0 -28.05 -8.45 -32.75 M-18.65 1.9 L-17.9 2.85" fill="none" stroke="#598158" stroke-linecap="round" stroke-linejoin="round" stroke-width="0.05"/>
    <path d="M14.9 -15.0 Q16.25 -17.55 16.9 -20.2 M23.35 -7.65 L23.25 -7.4 Q19.95 -3.95 14.65 -2.0 M27.15 -17.6 Q26.6 -12.0 23.45 -8.3 M21.65 7.75 L19.0 7.6 M21.65 7.75 Q25.95 7.45 30.2 4.2 M16.85 17.2 Q16.1 16.0 15.65 14.65 M7.5 13.5 Q12.2 16.65 16.8 17.2 M12.85 7.9 L20.9 8.4 M22.85 22.75 Q18.9 20.6 16.85 17.2 M-8.1 12.5 Q-13.2 15.2 -17.85 15.2 M-17.9 15.15 Q-20.35 18.3 -24.5 20.0 M-12.75 6.35 L-20.9 6.0 M-21.15 5.8 L-21.55 5.3 Q-25.85 4.55 -29.7 0.75 M-13.35 -3.55 Q-18.5 -6.15 -21.4 -10.0 L-21.45 -10.25 M-21.5 -10.9 Q-24.25 -14.9 -24.1 -20.6 M-13.65 -21.95 Q-13.3 -19.15 -12.15 -16.3 M-18.95 5.45 L-21.55 5.3 M-16.45 12.8 L-17.9 15.15" fill="none" stroke="#476044" stroke-linecap="round" stroke-linejoin="round" stroke-width="0.05"/>
    <path d="M21.95 -22.0 Q19.65 -17.2 20.3 -10.0 M17.45 12.6 Q21.4 13.65 24.3 15.45 M-25.05 12.6 Q-22.05 11.15 -18.0 10.55 M-27.35 -5.1 Q-22.8 -3.45 -18.65 1.9 M-18.4 -24.35 Q-16.7 -19.3 -18.2 -12.25 M28.55 -1.9 Q23.8 -0.75 19.1 4.05" fill="none" stroke="#8bac88" stroke-linecap="round" stroke-linejoin="round" stroke-width="0.05"/>
    <path d="M4.75 -31.25 L3.0 -26.3 Q7.05 -26.5 6.25 -20.15 9.25 -18.25 11.85 -19.35 L12.9 -19.95 12.85 -20.45 M-2.9 -20.7 Q-6.3 -19.05 -8.8 -20.7 L-9.55 -21.25 -9.5 -21.6 M22.9 -7.7 Q21.35 -7.5 20.45 -8.7 M19.0 7.6 Q17.9 6.4 18.25 4.9 M15.65 14.65 Q15.9 13.55 16.65 13.0 L17.45 12.6 M-0.15 -31.5 L1.05 -26.45 Q-3.0 -27.05 -2.9 -20.7 M-18.2 -12.25 L-18.45 -10.9 Q-19.5 -9.85 -21.0 -10.25 M-17.9 2.85 Q-17.75 4.4 -18.95 5.45 M-17.25 11.05 Q-16.6 11.65 -16.45 12.8" fill="none" stroke="#6d9669" stroke-linecap="round" stroke-linejoin="round" stroke-width="0.05"/>
    <path d="M12.85 -20.45 L12.6 -23.85 Q11.15 -36.05 4.75 -31.25 M-9.5 -21.6 Q-6.75 -37.75 -0.15 -31.5" fill="none" stroke="#607e5a" stroke-linecap="round" stroke-linejoin="round" stroke-width="0.05"/>
    <path d="M23.15 55.8 Q13.2 65.25 -3.45 70.3 -19.45 63.4 -28.2 52.85" fill="none" stroke="#30402d" stroke-linecap="round" stroke-linejoin="round" stroke-width="0.05"/>
    <path d="M16.0 26.1 Q23.45 49.85 23.15 55.8 M-28.2 52.85 Q-27.9 47.3 -17.75 24.15 M-5.95 14.3 L-5.95 14.25 M-0.3 12.45 L0.05 12.45" fill="none" stroke="#384a35" stroke-linecap="round" stroke-linejoin="round" stroke-width="0.05"/>
    <path d="M0.05 12.45 L4.85 15.5 Q11.05 19.9 16.0 26.1 M-17.75 24.15 Q-10.55 17.15 -5.95 14.3 M-5.95 14.25 Q-2.25 11.95 -0.3 12.45" fill="none" stroke="#315b24" stroke-linecap="round" stroke-linejoin="round" stroke-width="0.05"/>
    <path d="M1.7 -22.15 L1.7 -22.25 1.75 -22.15 1.7 -22.15" fill="url(#gradient42)" fill-rule="evenodd" stroke="none"/>
    <path d="M12.95 -20.75 L13.1 -20.9 12.9 -22.05 12.95 -20.75 M8.4 -55.65 Q9.55 -61.8 17.35 -68.7 L17.35 -68.75 17.35 -68.85 17.4 -68.9 17.5 -68.9 Q22.25 -67.1 19.35 -56.35 16.6 -43.15 21.15 -37.95 L21.2 -37.9 Q21.4 -32.5 19.25 -30.05 L19.25 -30.1 19.2 -30.2 19.1 -30.1 19.1 -29.9 19.2 -30.0 19.25 -30.05 Q19.4 -24.5 17.0 -20.5 L17.0 -20.45 17.05 -20.25 17.05 -20.15 17.0 -20.1 Q16.35 -17.5 15.0 -14.95 L14.95 -14.85 14.9 -14.85 Q15.9 -11.3 15.4 -8.5 17.75 -9.5 20.2 -10.1 L20.2 -10.0 20.2 -9.95 20.3 -10.0 Q19.65 -17.2 21.95 -22.0 L21.9 -22.1 21.85 -22.05 21.8 -22.0 Q21.2 -23.55 21.55 -25.45 L21.6 -25.55 Q23.8 -27.2 31.4 -29.25 38.3 -30.0 48.25 -25.15 L48.3 -25.15 48.4 -25.1 Q53.55 -22.2 57.45 -12.1 L57.45 -12.0 57.35 -11.9 57.25 -11.9 57.2 -11.95 Q54.15 -7.9 45.7 -13.8 L45.6 -13.85 45.6 -13.75 45.65 -13.7 Q34.6 -20.25 28.7 -17.05 L28.65 -17.0 27.25 -17.4 Q26.7 -11.9 23.6 -8.25 L23.55 -8.35 23.55 -8.4 23.45 -8.3 23.4 -7.75 23.5 -7.7 23.45 -7.6 23.45 -7.55 23.35 -7.35 23.35 -7.3 Q20.05 -3.9 14.8 -1.9 15.15 0.35 14.95 2.45 L14.85 2.45 14.8 2.45 14.8 2.55 14.95 2.55 14.95 2.45 Q17.05 3.05 19.1 3.9 23.8 -0.85 28.55 -2.0 L28.6 -2.0 Q28.85 -3.15 29.55 -4.2 L29.55 -4.25 29.55 -4.35 29.65 -4.4 Q32.25 -4.85 39.85 -2.95 46.3 -0.25 53.15 8.9 L53.1 8.9 53.0 8.9 52.95 8.9 53.05 9.0 Q56.35 14.1 55.5 24.9 L55.55 24.9 55.6 24.95 55.65 25.0 55.65 25.05 55.6 25.05 55.6 25.1 55.5 25.15 Q50.95 27.45 45.95 17.9 L45.9 17.9 Q38.9 6.65 32.3 6.65 L32.25 6.6 30.2 4.4 30.3 4.3 30.2 4.2 Q25.95 7.45 21.65 7.75 L21.5 7.9 21.65 7.9 21.75 7.9 21.25 8.4 21.2 8.45 20.95 8.55 12.9 8.05 12.95 8.0 13.0 7.95 12.85 7.9 11.8 9.4 11.85 9.4 11.95 9.5 Q14.4 10.95 16.65 12.85 16.95 12.55 17.45 12.5 L17.5 12.5 Q21.4 13.5 24.3 15.3 24.95 14.65 25.9 14.2 L25.95 14.15 26.05 14.15 26.1 14.2 26.15 14.3 Q28.6 15.4 34.25 20.65 L34.3 20.75 34.35 20.75 34.4 20.65 34.35 20.6 Q38.8 26.25 40.75 37.8 L40.7 37.7 40.6 37.7 40.55 37.7 40.6 37.8 Q41.25 44.05 35.75 53.2 30.75 53.0 30.55 42.0 29.35 28.5 23.55 25.1 L22.9 22.9 22.8 22.85 22.75 22.85 Q18.85 20.7 16.8 17.35 L16.75 17.35 Q12.15 16.75 7.5 13.65 L5.3 15.15 5.25 15.15 5.05 15.5 Q11.15 19.85 16.1 26.05 L16.15 26.1 Q23.55 49.8 23.3 55.8 L23.25 55.75 23.15 55.7 23.15 55.8 Q13.2 65.25 -3.45 70.3 -19.4 63.4 -28.1 52.95 L-28.2 53.0 -28.3 52.95 -28.3 52.85 Q-28.05 47.3 -17.85 24.1 L-17.8 24.05 Q-10.75 17.15 -6.15 14.3 L-8.1 12.65 Q-13.2 15.3 -17.8 15.35 L-17.85 15.35 Q-20.3 18.4 -24.4 20.1 L-24.45 20.15 -24.55 20.15 -25.45 22.3 Q-31.65 25.0 -34.35 38.25 L-34.35 38.4 -34.25 38.35 -34.2 38.3 Q-35.7 49.25 -40.7 48.95 L-40.8 48.95 -40.85 48.85 Q-45.4 39.05 -43.95 32.95 L-43.95 32.9 Q-40.8 21.65 -35.7 16.5 L-35.65 16.5 Q-29.25 11.8 -26.65 11.1 L-26.6 11.1 -26.5 11.1 -25.0 12.45 Q-22.05 11.05 -18.05 10.45 L-17.95 10.45 Q-17.55 10.55 -17.2 10.9 -14.75 9.2 -12.0 8.0 L-12.8 6.5 -20.9 6.15 -21.0 6.1 -21.25 5.9 -21.25 5.85 -21.6 5.45 Q-25.9 4.65 -29.7 0.95 L-31.95 2.95 -32.05 3.0 Q-38.65 2.25 -46.85 12.6 -53.05 21.6 -57.3 18.7 L-57.25 18.75 -57.15 18.7 -57.15 18.65 -57.25 18.6 Q-56.85 7.8 -53.0 3.05 L-53.05 2.95 -53.05 2.9 -53.0 2.85 Q-45.25 -5.45 -38.45 -7.4 L-28.1 -7.7 -28.05 -7.65 -28.0 -7.6 Q-27.4 -6.4 -27.2 -5.2 -22.7 -3.55 -18.6 1.75 L-14.1 0.75 Q-14.15 -1.4 -13.5 -3.5 -18.6 -6.1 -21.5 -9.9 L-21.5 -10.0 -21.55 -10.15 -21.45 -10.1 -21.4 -10.1 -21.45 -10.25 -21.5 -10.75 -21.6 -10.8 -21.6 -10.85 Q-24.35 -14.8 -24.2 -20.4 L-25.6 -20.1 -25.7 -20.15 Q-31.3 -24.0 -42.95 -18.75 L-43.0 -18.75 Q-47.6 -16.3 -50.5 -16.15 -53.5 -16.1 -54.75 -18.4 L-54.8 -18.45 -54.8 -18.5 -54.75 -18.55 Q-49.8 -28.15 -44.3 -30.45 L-44.2 -30.45 -44.1 -30.4 Q-33.8 -34.0 -27.0 -32.5 -19.8 -29.6 -17.8 -27.7 L-17.8 -27.55 -17.7 -27.6 -17.65 -27.65 Q-17.55 -25.8 -18.25 -24.35 -16.6 -19.3 -18.05 -12.35 -15.65 -11.45 -13.3 -10.1 -13.5 -12.85 -12.2 -16.2 L-12.25 -16.25 Q-13.4 -19.1 -13.75 -21.9 L-13.75 -22.0 -13.7 -22.25 Q-15.65 -26.55 -14.85 -32.0 L-14.85 -31.95 -14.75 -31.85 -14.75 -32.05 Q-16.6 -34.7 -15.75 -40.0 -10.6 -44.6 -11.75 -58.0 L-11.8 -58.05 -11.85 -58.1 -11.85 -58.15 Q-13.6 -69.1 -8.65 -70.35 L-8.7 -70.25 -8.6 -70.25 Q-1.55 -62.45 -1.15 -56.15 L-1.15 -56.0 -1.05 -56.05 -1.0 -56.1 Q-0.9 -44.4 -4.3 -37.85 L-4.3 -37.8 -8.3 -32.7 -8.3 -32.75 -8.35 -32.85 -8.45 -32.75 -8.4 -32.55 -8.35 -32.65 -8.3 -32.7 Q-7.9 -28.05 -9.8 -22.25 L-9.55 -21.95 Q-8.2 -29.8 -5.85 -32.2 -4.65 -33.5 -3.2 -33.35 -1.75 -33.2 -0.05 -31.6 L0.0 -31.5 1.2 -26.45 1.2 -26.4 1.1 -26.35 1.05 -26.3 Q-0.9 -26.6 -1.85 -25.25 -2.8 -23.85 -2.75 -20.7 L-2.8 -20.6 -2.1 -19.5 1.7 -22.15 1.75 -22.1 5.3 -19.05 6.15 -20.05 6.15 -20.1 6.15 -20.15 Q6.5 -23.3 5.75 -24.8 4.95 -26.25 3.0 -26.15 L2.95 -26.2 2.9 -26.25 2.9 -26.35 4.65 -31.3 4.7 -31.35 Q7.95 -33.85 10.0 -31.9 11.65 -30.35 12.45 -25.9 12.25 -28.95 12.85 -31.55 L12.85 -31.5 12.95 -31.4 12.95 -31.6 Q11.45 -33.75 9.55 -37.15 6.9 -44.05 8.4 -55.65" fill="url(#gradient43)" fill-rule="evenodd" stroke="none"/>
  </g>
  <defs>
    <radialGradient cx="0" cy="0" gradientTransform="matrix(0.0097, 0.0, 0.0, 0.0143, -6.2, -57.0)" gradientUnits="userSpaceOnUse" id="gradient0" r="819.2" spreadMethod="pad">
      <stop offset="0.0" stop-color="#99ff66"/>
      <stop offset="1.0" stop-color="#3fa301"/>
    </radialGradient>
    <radialGradient cx="0" cy="0" gradientTransform="matrix(0.0107, 0.0, 0.0, 0.0297, -7.2, -50.6)" gradientUnits="userSpaceOnUse" id="gradient1" r="819.2" spreadMethod="pad">
      <stop offset="0.0" stop-color="#3f9137"/>
      <stop offset="0.6666666666666666" stop-color="#296024"/>
      <stop offset="1.0" stop-color="#20401a"/>
    </radialGradient>
    <radialGradient cx="0" cy="0" gradientTransform="matrix(0.0107, 0.0, 0.0, 0.0245, 13.2, -49.0)" gradientUnits="userSpaceOnUse" id="gradient2" r="819.2" spreadMethod="pad">
      <stop offset="0.0" stop-color="#3f9137"/>
      <stop offset="0.6666666666666666" stop-color="#296024"/>
      <stop offset="1.0" stop-color="#20401a"/>
    </radialGradient>
    <radialGradient cx="0" cy="0" gradientTransform="matrix(0.0097, 0.0, 0.0, 0.0132, 14.0, -57.6)" gradientUnits="userSpaceOnUse" id="gradient3" r="819.2" spreadMethod="pad">
      <stop offset="0.0" stop-color="#99ff66"/>
      <stop offset="1.0" stop-color="#3fa301"/>
    </radialGradient>
    <radialGradient cx="0" cy="0" gradientTransform="matrix(0.0127, 0.0, 0.0, 0.0103, -42.0, -26.4)" gradientUnits="userSpaceOnUse" id="gradient4" r="819.2" spreadMethod="pad">
      <stop offset="0.0" stop-color="#99ff66"/>
      <stop offset="1.0" stop-color="#3fa301"/>
    </radialGradient>
    <radialGradient cx="0" cy="0" gradientTransform="matrix(0.0266, 0.0, 0.0, 0.0117, -32.0, -28.6)" gradientUnits="userSpaceOnUse" id="gradient5" r="819.2" spreadMethod="pad">
      <stop offset="0.0" stop-color="#3f9137"/>
      <stop offset="0.6666666666666666" stop-color="#296024"/>
      <stop offset="1.0" stop-color="#20401a"/>
    </radialGradient>
    <radialGradient cx="0" cy="0" gradientTransform="matrix(0.0231, 0.0055, -0.003, 0.0127, 41.0, -26.2)" gradientUnits="userSpaceOnUse" id="gradient6" r="819.2" spreadMethod="pad">
      <stop offset="0.0" stop-color="#3f9137"/>
      <stop offset="0.6666666666666666" stop-color="#296024"/>
      <stop offset="1.0" stop-color="#20401a"/>
    </radialGradient>
    <radialGradient cx="0" cy="0" gradientTransform="matrix(0.0114, 0.0, 0.0, 0.0114, 48.6, -21.6)" gradientUnits="userSpaceOnUse" id="gradient7" r="819.2" spreadMethod="pad">
      <stop offset="0.0" stop-color="#99ff66"/>
      <stop offset="1.0" stop-color="#3fa301"/>
    </radialGradient>
    <radialGradient cx="0" cy="0" gradientTransform="matrix(0.0272, -0.0074, 0.0036, 0.0132, -39.8, -5.8)" gradientUnits="userSpaceOnUse" id="gradient8" r="819.2" spreadMethod="pad">
      <stop offset="0.0" stop-color="#3f9137"/>
      <stop offset="0.6666666666666666" stop-color="#296024"/>
      <stop offset="1.0" stop-color="#20401a"/>
    </radialGradient>
    <radialGradient cx="0" cy="0" gradientTransform="matrix(0.0247, 0.008, -0.0038, 0.0116, 39.4, -0.8)" gradientUnits="userSpaceOnUse" id="gradient9" r="819.2" spreadMethod="pad">
      <stop offset="0.0" stop-color="#3f9137"/>
      <stop offset="0.6666666666666666" stop-color="#296024"/>
      <stop offset="1.0" stop-color="#20401a"/>
    </radialGradient>
    <radialGradient cx="0" cy="0" gradientTransform="matrix(0.0122, 0.0, 0.0, 0.0122, -50.8, 6.2)" gradientUnits="userSpaceOnUse" id="gradient10" r="819.2" spreadMethod="pad">
      <stop offset="0.0" stop-color="#99ff66"/>
      <stop offset="1.0" stop-color="#3fa301"/>
    </radialGradient>
    <radialGradient cx="0" cy="0" gradientTransform="matrix(0.0125, 0.0, 0.0, 0.0125, 50.8, 12.0)" gradientUnits="userSpaceOnUse" id="gradient11" r="819.2" spreadMethod="pad">
      <stop offset="0.0" stop-color="#99ff66"/>
      <stop offset="1.0" stop-color="#3fa301"/>
    </radialGradient>
    <radialGradient cx="0" cy="0" gradientTransform="matrix(0.0118, 0.0, 0.0, 0.0118, 39.0, 38.6)" gradientUnits="userSpaceOnUse" id="gradient12" r="819.2" spreadMethod="pad">
      <stop offset="0.0" stop-color="#99ff66"/>
      <stop offset="1.0" stop-color="#3fa301"/>
    </radialGradient>
    <radialGradient cx="0" cy="0" gradientTransform="matrix(0.0116, 0.0, 0.0, 0.0116, -39.8, 31.8)" gradientUnits="userSpaceOnUse" id="gradient13" r="819.2" spreadMethod="pad">
      <stop offset="0.0" stop-color="#99ff66"/>
      <stop offset="1.0" stop-color="#3fa301"/>
    </radialGradient>
    <radialGradient cx="0" cy="0" gradientTransform="matrix(0.0204, -0.0166, 0.0092, 0.0113, -35.4, 13.6)" gradientUnits="userSpaceOnUse" id="gradient14" r="819.2" spreadMethod="pad">
      <stop offset="0.0" stop-color="#3f9137"/>
      <stop offset="0.6666666666666666" stop-color="#296024"/>
      <stop offset="1.0" stop-color="#20401a"/>
    </radialGradient>
    <radialGradient cx="0" cy="0" gradientTransform="matrix(0.0185, 0.0224, -0.0095, 0.0078, 33.2, 18.0)" gradientUnits="userSpaceOnUse" id="gradient15" r="819.2" spreadMethod="pad">
      <stop offset="0.0" stop-color="#3f9137"/>
      <stop offset="0.6666666666666666" stop-color="#296024"/>
      <stop offset="1.0" stop-color="#20401a"/>
    </radialGradient>
    <radialGradient cx="0" cy="0" gradientTransform="matrix(0.0043, 0.0, 0.0, 0.0043, -12.4, -14.0)" gradientUnits="userSpaceOnUse" id="gradient16" r="819.2" spreadMethod="pad">
      <stop offset="0.0" stop-color="#b5ceb6"/>
      <stop offset="0.6666666666666666" stop-color="#608d5f"/>
      <stop offset="1.0" stop-color="#384e36"/>
    </radialGradient>
    <radialGradient cx="0" cy="0" gradientTransform="matrix(0.0043, 0.0, 0.0, 0.0043, 9.6, -14.6)" gradientUnits="userSpaceOnUse" id="gradient17" r="819.2" spreadMethod="pad">
      <stop offset="0.0" stop-color="#b5ceb6"/>
      <stop offset="0.6666666666666666" stop-color="#608d5f"/>
      <stop offset="1.0" stop-color="#384e36"/>
    </radialGradient>
    <radialGradient cx="0" cy="0" gradientTransform="matrix(0.0069, 0.0, 0.0, 0.0106, 21.6, -17.2)" gradientUnits="userSpaceOnUse" id="gradient18" r="819.2" spreadMethod="pad">
      <stop offset="0.0" stop-color="#c0d6c2"/>
      <stop offset="0.6666666666666666" stop-color="#82ac83"/>
      <stop offset="1.0" stop-color="#598158"/>
    </radialGradient>
    <radialGradient cx="0" cy="0" gradientTransform="matrix(0.0155, 0.0, 0.0, 0.0073, 22.6, -1.2)" gradientUnits="userSpaceOnUse" id="gradient19" r="819.2" spreadMethod="pad">
      <stop offset="0.0" stop-color="#c0d6c2"/>
      <stop offset="0.6666666666666666" stop-color="#82ac83"/>
      <stop offset="1.0" stop-color="#598158"/>
    </radialGradient>
    <radialGradient cx="0" cy="0" gradientTransform="matrix(0.0112, 0.0035, -0.0016, 0.005, 20.2, 14.0)" gradientUnits="userSpaceOnUse" id="gradient20" r="819.2" spreadMethod="pad">
      <stop offset="0.0" stop-color="#c0d6c2"/>
      <stop offset="0.6666666666666666" stop-color="#82ac83"/>
      <stop offset="1.0" stop-color="#598158"/>
    </radialGradient>
    <radialGradient cx="0" cy="0" gradientTransform="matrix(0.0123, -0.0027, 0.0011, 0.0052, -20.6, 11.0)" gradientUnits="userSpaceOnUse" id="gradient21" r="819.2" spreadMethod="pad">
      <stop offset="0.0" stop-color="#c0d6c2"/>
      <stop offset="0.6666666666666666" stop-color="#82ac83"/>
      <stop offset="1.0" stop-color="#598158"/>
    </radialGradient>
    <radialGradient cx="0" cy="0" gradientTransform="matrix(0.0114, 0.002, -0.0011, 0.0061, -21.2, -2.4)" gradientUnits="userSpaceOnUse" id="gradient22" r="819.2" spreadMethod="pad">
      <stop offset="0.0" stop-color="#c0d6c2"/>
      <stop offset="0.6666666666666666" stop-color="#82ac83"/>
      <stop offset="1.0" stop-color="#598158"/>
    </radialGradient>
    <radialGradient cx="0" cy="0" gradientTransform="matrix(0.0051, 4.0E-4, -6.0E-4, 0.0083, -18.0, -18.0)" gradientUnits="userSpaceOnUse" id="gradient23" r="819.2" spreadMethod="pad">
      <stop offset="0.0" stop-color="#c0d6c2"/>
      <stop offset="0.6666666666666666" stop-color="#82ac83"/>
      <stop offset="1.0" stop-color="#598158"/>
    </radialGradient>
    <radialGradient cx="0" cy="0" gradientTransform="matrix(0.0044, 0.0, 0.0, 0.0069, -10.2, -27.0)" gradientUnits="userSpaceOnUse" id="gradient24" r="819.2" spreadMethod="pad">
      <stop offset="0.0" stop-color="#c0d6c2"/>
      <stop offset="0.6666666666666666" stop-color="#82ac83"/>
      <stop offset="1.0" stop-color="#598158"/>
    </radialGradient>
    <radialGradient cx="0" cy="0" gradientTransform="matrix(0.0049, 0.0, 0.0, 0.0064, 15.0, -26.0)" gradientUnits="userSpaceOnUse" id="gradient25" r="819.2" spreadMethod="pad">
      <stop offset="0.0" stop-color="#c0d6c2"/>
      <stop offset="0.6666666666666666" stop-color="#82ac83"/>
      <stop offset="1.0" stop-color="#598158"/>
    </radialGradient>
    <radialGradient cx="0" cy="0" gradientTransform="matrix(0.0097, -0.0031, 0.0014, 0.0045, -16.8, 10.6)" gradientUnits="userSpaceOnUse" id="gradient26" r="819.2" spreadMethod="pad">
      <stop offset="0.0" stop-color="#b5ceb6"/>
      <stop offset="0.6666666666666666" stop-color="#608d5f"/>
      <stop offset="1.0" stop-color="#384e36"/>
    </radialGradient>
    <radialGradient cx="0" cy="0" gradientTransform="matrix(0.0111, 0.005, -0.0021, 0.0046, 17.2, 12.9)" gradientUnits="userSpaceOnUse" id="gradient27" r="819.2" spreadMethod="pad">
      <stop offset="0.0" stop-color="#b5ceb6"/>
      <stop offset="0.6666666666666666" stop-color="#608d5f"/>
      <stop offset="1.0" stop-color="#384e36"/>
    </radialGradient>
    <radialGradient cx="0" cy="0" gradientTransform="matrix(0.0114, 7.0E-4, -3.0E-4, 0.0057, -20.0, 1.1)" gradientUnits="userSpaceOnUse" id="gradient28" r="819.2" spreadMethod="pad">
      <stop offset="0.0" stop-color="#b5ceb6"/>
      <stop offset="0.6666666666666666" stop-color="#649564"/>
      <stop offset="1.0" stop-color="#384e36"/>
    </radialGradient>
    <radialGradient cx="0" cy="0" gradientTransform="matrix(0.0076, 0.0027, -0.0014, 0.0042, 18.6, 4.8)" gradientUnits="userSpaceOnUse" id="gradient29" r="819.2" spreadMethod="pad">
      <stop offset="0.0" stop-color="#b5ceb6"/>
      <stop offset="0.6666666666666666" stop-color="#649564"/>
      <stop offset="1.0" stop-color="#384e36"/>
    </radialGradient>
    <radialGradient cx="0" cy="0" gradientTransform="matrix(0.0095, 0.0037, -0.002, 0.0051, -17.9, -11.6)" gradientUnits="userSpaceOnUse" id="gradient30" r="819.2" spreadMethod="pad">
      <stop offset="0.0" stop-color="#b5ceb6"/>
      <stop offset="0.6666666666666666" stop-color="#608d5f"/>
      <stop offset="1.0" stop-color="#384e36"/>
    </radialGradient>
    <radialGradient cx="0" cy="0" gradientTransform="matrix(0.0085, -0.0019, 8.0E-4, 0.0035, 19.9, -8.0)" gradientUnits="userSpaceOnUse" id="gradient31" r="819.2" spreadMethod="pad">
      <stop offset="0.0" stop-color="#b5ceb6"/>
      <stop offset="0.6666666666666666" stop-color="#608d5f"/>
      <stop offset="1.0" stop-color="#384e36"/>
    </radialGradient>
    <radialGradient cx="0" cy="0" gradientTransform="matrix(0.0183, 0.0, 0.0, 0.0183, 1.2, -1.8)" gradientUnits="userSpaceOnUse" id="gradient32" r="819.2" spreadMethod="pad">
      <stop offset="0.0" stop-color="#dee9de"/>
      <stop offset="0.6666666666666666" stop-color="#b9d0b9"/>
      <stop offset="1.0" stop-color="#598158"/>
    </radialGradient>
    <radialGradient cx="0" cy="0" gradientTransform="matrix(0.0192, 0.0, 0.0, 0.0192, 1.4, -3.4)" gradientUnits="userSpaceOnUse" id="gradient33" r="819.2" spreadMethod="pad">
      <stop offset="0.0" stop-color="#99ff66"/>
      <stop offset="0.6196078431372549" stop-color="#3fa301"/>
      <stop offset="1.0" stop-color="#336402"/>
    </radialGradient>
    <radialGradient cx="0" cy="0" gradientTransform="matrix(0.0188, 0.0, 0.0, 0.0089, 1.2, -14.3)" gradientUnits="userSpaceOnUse" id="gradient34" r="819.2" spreadMethod="pad">
      <stop offset="0.0" stop-color="#99ff66"/>
      <stop offset="0.6196078431372549" stop-color="#3fa301"/>
      <stop offset="1.0" stop-color="#336402"/>
    </radialGradient>
    <radialGradient cx="0" cy="0" gradientTransform="matrix(0.0031, 0.0, 0.0, 0.0031, 4.35, -15.6)" gradientUnits="userSpaceOnUse" id="gradient35" r="819.2" spreadMethod="pad">
      <stop offset="0.0" stop-color="#dee9de"/>
      <stop offset="0.6666666666666666" stop-color="#b9d0b9"/>
      <stop offset="1.0" stop-color="#598158"/>
    </radialGradient>
    <radialGradient cx="0" cy="0" gradientTransform="matrix(0.0031, 0.0, 0.0, 0.0031, -1.6, -16.05)" gradientUnits="userSpaceOnUse" id="gradient36" r="819.2" spreadMethod="pad">
      <stop offset="0.0" stop-color="#dee9de"/>
      <stop offset="0.6666666666666666" stop-color="#b9d0b9"/>
      <stop offset="1.0" stop-color="#598158"/>
    </radialGradient>
    <radialGradient cx="0" cy="0" gradientTransform="matrix(-0.0018, 0.0106, -0.0059, -0.001, -4.0, -25.9)" gradientUnits="userSpaceOnUse" id="gradient37" r="819.2" spreadMethod="pad">
      <stop offset="0.0" stop-color="#dae7da"/>
      <stop offset="0.5372549019607843" stop-color="#9cbd9b"/>
      <stop offset="1.0" stop-color="#598158"/>
    </radialGradient>
    <radialGradient cx="0" cy="0" gradientTransform="matrix(0.0055, -0.0011, 0.0022, 0.0104, 8.4, -26.5)" gradientUnits="userSpaceOnUse" id="gradient38" r="819.2" spreadMethod="pad">
      <stop offset="0.0" stop-color="#dae7da"/>
      <stop offset="0.5372549019607843" stop-color="#9cbd9b"/>
      <stop offset="1.0" stop-color="#598158"/>
    </radialGradient>
    <radialGradient cx="0" cy="0" gradientTransform="matrix(0.0099, 0.0, 0.0, 0.0197, -10.8, 41.6)" gradientUnits="userSpaceOnUse" id="gradient39" r="819.2" spreadMethod="pad">
      <stop offset="0.0" stop-color="#dae7da"/>
      <stop offset="0.5372549019607843" stop-color="#9cbd9b"/>
      <stop offset="1.0" stop-color="#598158"/>
    </radialGradient>
    <radialGradient cx="0" cy="0" gradientTransform="matrix(0.0082, 0.0, 0.0, 0.0207, 6.4, 42.4)" gradientUnits="userSpaceOnUse" id="gradient40" r="819.2" spreadMethod="pad">
      <stop offset="0.0" stop-color="#dae7da"/>
      <stop offset="0.5372549019607843" stop-color="#9cbd9b"/>
      <stop offset="1.0" stop-color="#598158"/>
    </radialGradient>
    <radialGradient cx="0" cy="0" gradientTransform="matrix(0.0254, 0.0, 0.0, 0.0428, -2.4, 40.8)" gradientUnits="userSpaceOnUse" id="gradient41" r="819.2" spreadMethod="pad">
      <stop offset="0.011764705882352941" stop-color="#53ba49"/>
      <stop offset="0.5843137254901961" stop-color="#357b2f"/>
      <stop offset="1.0" stop-color="#183915"/>
    </radialGradient>
    <radialGradient cx="0" cy="0" gradientTransform="matrix(0.0683, 0.0, 0.0, 0.0975, -0.4, -2.0)" gradientUnits="userSpaceOnUse" id="gradient42" r="819.2" spreadMethod="pad">
      <stop offset="0.0" stop-color="#000000" stop-opacity="0.0"/>
      <stop offset="1.0" stop-color="#000000" stop-opacity="0.27058825"/>
    </radialGradient>
    <radialGradient cx="0" cy="0" gradientTransform="matrix(0.0683, 0.0, 0.0, 0.0975, -0.4, -2.0)" gradientUnits="userSpaceOnUse" id="gradient43" r="819.2" spreadMethod="pad">
      <stop offset="0.48627450980392156" stop-color="#000000" stop-opacity="0.0"/>
      <stop offset="1.0" stop-color="#000000" stop-opacity="0.27058825"/>
    </radialGradient>
  </defs>
</svg>
