<?xml version="1.0" encoding="UTF-8" standalone="no"?>
<svg xmlns:xlink="http://www.w3.org/1999/xlink" height="13.55px" width="14.05px" xmlns="http://www.w3.org/2000/svg">
  <g transform="matrix(1.0, 0.0, 0.0, 1.0, 7.05, 6.8)">
    <path d="M-4.9 -0.45 L-5.1 -1.65 Q-5.1 -2.85 -4.55 -3.95 -4.0 -4.95 -3.2 -5.25 -2.4 -5.6 -1.85 -5.0 -1.35 -4.45 -1.25 -3.45 L-1.25 -3.15 Q-1.25 -2.0 -1.85 -1.0 -2.4 0.1 -3.2 0.45 -4.0 0.7 -4.55 0.05 L-4.9 -0.45" fill="#ffffff" fill-rule="evenodd" stroke="none"/>
    <path d="M-4.9 -0.45 L-4.95 -0.05 Q-4.95 1.35 -3.6 2.35 -2.2 3.4 -0.25 3.4 1.7 3.4 3.05 2.35 4.4 1.35 4.45 -0.05 4.4 -1.5 3.05 -2.55 1.7 -3.5 -0.25 -3.5 L-1.25 -3.45 Q-1.35 -4.45 -1.85 -5.0 -2.4 -5.6 -3.2 -5.25 -4.0 -4.95 -4.55 -3.95 -5.1 -2.85 -5.1 -1.65 L-4.9 -0.45 M7.0 -0.05 Q6.95 2.7 4.9 4.65 2.85 6.7 -0.05 6.75 -2.95 6.7 -5.0 4.65 -6.15 3.55 -6.65 2.15 -7.05 1.1 -7.05 -0.05 -7.05 -2.85 -5.0 -4.9 -2.95 -6.85 -0.05 -6.8 2.85 -6.85 4.9 -4.9 L5.8 -3.85 Q7.0 -2.15 7.0 -0.05" fill="url(#gradient0)" fill-rule="evenodd" stroke="none"/>
    <path d="M-1.25 -3.45 L-0.25 -3.5 Q1.7 -3.5 3.05 -2.55 4.4 -1.5 4.45 -0.05 4.4 1.35 3.05 2.35 1.7 3.4 -0.25 3.4 -2.2 3.4 -3.6 2.35 -4.95 1.35 -4.95 -0.05 L-4.9 -0.45 -4.55 0.05 Q-4.0 0.7 -3.2 0.45 -2.4 0.1 -1.85 -1.0 -1.25 -2.0 -1.25 -3.15 L-1.25 -3.45" fill="url(#gradient1)" fill-rule="evenodd" stroke="none"/>
    <path d="M7.0 -0.05 Q6.95 2.7 4.9 4.65 2.85 6.7 -0.05 6.75 -2.95 6.7 -5.0 4.65 -6.15 3.55 -6.65 2.15 -7.05 1.1 -7.05 -0.05 -7.05 -2.85 -5.0 -4.9 -2.95 -6.85 -0.05 -6.8 2.85 -6.85 4.9 -4.9 L5.8 -3.85 Q7.0 -2.15 7.0 -0.05 Z" fill="none" stroke="#f7c4c4" stroke-linecap="round" stroke-linejoin="round" stroke-width="0.05"/>
  </g>
  <defs>
    <radialGradient cx="0" cy="0" gradientTransform="matrix(0.0127, 0.0, 0.0, 0.0127, -2.35, -2.25)" gradientUnits="userSpaceOnUse" id="gradient0" r="819.2" spreadMethod="pad">
      <stop offset="0.43529411764705883" stop-color="#eefc87"/>
      <stop offset="1.0" stop-color="#db7b35"/>
    </radialGradient>
    <radialGradient cx="0" cy="0" gradientTransform="matrix(0.0045, 0.0, 0.0, 0.0045, -0.4, -0.5)" gradientUnits="userSpaceOnUse" id="gradient1" r="819.2" spreadMethod="pad">
      <stop offset="0.0" stop-color="#fdfeda"/>
      <stop offset="1.0" stop-color="#ffff66"/>
    </radialGradient>
  </defs>
</svg>
