<?xml version="1.0" encoding="UTF-8" standalone="no"?>
<svg xmlns:xlink="http://www.w3.org/1999/xlink" height="13.25px" width="6.6px" xmlns="http://www.w3.org/2000/svg">
  <g transform="matrix(1.0, 0.0, 0.0, 1.0, 3.4, 11.7)">
    <path d="M-1.6 -7.05 L-0.8 -7.75 -0.1 -6.55 0.6 -7.75 1.4 -7.05 -0.1 -6.55 -1.6 -7.05" fill="#ffffff" fill-rule="evenodd" stroke="none"/>
    <path d="M2.3 -9.15 Q1.85 -8.35 1.25 -8.6 1.3 -10.25 0.1 -11.7 1.6 -11.25 2.3 -9.15 M-1.45 -8.6 Q-2.05 -8.35 -2.5 -9.15 -1.8 -11.25 -0.3 -11.7 -1.5 -10.25 -1.45 -8.6" fill="#d5d0ce" fill-rule="evenodd" stroke="none"/>
    <path d="M1.25 -8.6 Q1.85 -8.35 2.3 -9.15 1.65 -6.3 2.6 -4.55 1.6 -4.25 1.4 -7.05 L0.6 -7.75 -0.1 -6.55 -0.8 -7.75 -1.6 -7.05 Q-1.8 -4.25 -2.8 -4.55 -1.85 -6.3 -2.5 -9.15 -2.05 -8.35 -1.45 -8.6 L-1.2 -8.3 -0.1 -8.95 1.0 -8.3 1.25 -8.6 M3.1 -0.1 L0.6 1.55 -0.8 1.55 -3.3 -0.1 Q0.85 -2.45 -0.8 -5.45 -0.65 -6.55 -0.1 -6.55 0.45 -6.55 0.6 -5.45 -1.05 -2.45 3.1 -0.1" fill="#86558a" fill-rule="evenodd" stroke="none"/>
    <path d="M-2.8 -4.55 Q-1.8 -4.25 -1.6 -7.05 L-0.1 -6.55 1.4 -7.05 Q1.6 -4.25 2.6 -4.55 3.4 -2.45 3.1 -0.1 -1.05 -2.45 0.6 -5.45 0.45 -6.55 -0.1 -6.55 -0.65 -6.55 -0.8 -5.45 0.85 -2.45 -3.3 -0.1 -3.6 -2.45 -2.8 -4.55" fill="#d975be" fill-rule="evenodd" stroke="none"/>
    <path d="M3.1 -0.1 L0.6 1.55 -0.8 1.55 -3.3 -0.1" fill="none" stroke="#624268" stroke-linecap="round" stroke-linejoin="round" stroke-width="0.05"/>
    <path d="M1.25 -8.6 Q1.85 -8.35 2.3 -9.15 1.6 -11.25 0.1 -11.7 1.3 -10.25 1.25 -8.6 M-1.45 -8.6 Q-2.05 -8.35 -2.5 -9.15 -1.8 -11.25 -0.3 -11.7 -1.5 -10.25 -1.45 -8.6" fill="none" stroke="#999999" stroke-linecap="round" stroke-linejoin="round" stroke-width="0.05"/>
  </g>
</svg>
