<?xml version="1.0" encoding="UTF-8" standalone="no"?>
<svg xmlns:xlink="http://www.w3.org/1999/xlink" height="14.55px" width="6.7px" xmlns="http://www.w3.org/2000/svg">
  <g transform="matrix(1.0, 0.0, 0.0, 1.0, 3.4, 13.0)">
    <path d="M2.7 -8.3 Q2.4 -8.05 1.35 -8.6 1.4 -10.2 0.25 -11.7 L0.35 -13.0 Q2.7 -11.7 2.7 -8.3 M-1.45 -8.6 Q-2.5 -8.05 -2.8 -8.3 -2.8 -11.7 -0.4 -13.0 L-0.3 -11.7 Q-1.5 -10.25 -1.45 -8.6" fill="#d5d0ce" fill-rule="evenodd" stroke="none"/>
    <path d="M0.3 -7.5 L-0.4 -7.5 -0.8 -7.75 -1.6 -7.05 -3.4 -4.35 -2.8 -8.3 Q-2.5 -8.05 -1.45 -8.6 L-1.2 -8.3 -0.05 -9.15 1.15 -8.3 1.35 -8.6 Q2.4 -8.05 2.7 -8.3 L3.3 -4.2 1.5 -7.05 0.7 -7.75 0.3 -7.5 M-1.7 0.55 L-0.8 -5.45 Q-0.65 -6.6 -0.05 -6.55 0.55 -6.7 0.75 -5.5 L1.7 0.45 0.7 1.55 -0.8 1.55 -1.7 0.55" fill="#7d4a26" fill-rule="evenodd" stroke="none"/>
    <path d="M0.3 -7.5 L1.5 -7.05 3.3 -4.2 1.7 0.45 0.75 -5.5 Q0.55 -6.7 -0.05 -6.55 -0.65 -6.6 -0.8 -5.45 L-1.7 0.55 -3.4 -4.35 -1.6 -7.05 -0.4 -7.5 0.3 -7.5" fill="#d2da36" fill-rule="evenodd" stroke="none"/>
    <path d="M1.5 -7.05 L0.3 -7.5 0.7 -7.75 1.5 -7.05 M-0.4 -7.5 L-1.6 -7.05 -0.8 -7.75 -0.4 -7.5" fill="#ffffff" fill-rule="evenodd" stroke="none"/>
    <path d="M2.7 -8.3 Q2.4 -8.05 1.35 -8.6 1.4 -10.2 0.25 -11.7 L0.35 -13.0 Q2.7 -11.7 2.7 -8.3 M-1.45 -8.6 Q-2.5 -8.05 -2.8 -8.3 -2.8 -11.7 -0.4 -13.0 L-0.3 -11.7 Q-1.5 -10.25 -1.45 -8.6 M1.7 0.45 L0.7 1.55 -0.8 1.55 -1.7 0.55" fill="none" stroke="#985430" stroke-linecap="round" stroke-linejoin="round" stroke-width="0.05"/>
  </g>
</svg>
