<?xml version="1.0" encoding="UTF-8" standalone="no"?>
<svg xmlns:xlink="http://www.w3.org/1999/xlink" height="14.1px" width="9.7px" xmlns="http://www.w3.org/2000/svg">
  <g transform="matrix(1.0, 0.0, 0.0, 1.0, 4.8, 7.25)">
    <path d="M0.05 -7.25 Q3.0 -6.2 4.75 -4.05 L4.75 -4.0 2.25 -0.55 Q1.65 -2.5 0.05 -2.85 -1.6 -2.5 -2.2 -0.55 L-4.65 -4.05 Q-2.95 -6.2 0.05 -7.25 M4.65 0.5 L4.4 1.75 Q3.4 4.15 1.9 5.55 L0.05 6.85 Q-1.0 6.35 -1.85 5.55 -3.35 4.15 -4.35 1.75 L-4.6 0.4 -1.2 2.15 Q-1.1 0.95 0.05 0.35 1.15 0.95 1.3 2.15 L4.65 0.5" fill="#7d4a26" fill-rule="evenodd" stroke="none"/>
    <path d="M-4.65 -4.05 L-2.2 -0.55 Q-1.6 -2.5 0.05 -2.85 1.65 -2.5 2.25 -0.55 L4.75 -4.0 Q5.05 -2.0 4.65 0.5 L1.3 2.15 Q1.15 0.95 0.05 0.35 -1.1 0.95 -1.2 2.15 L-4.6 0.4 Q-5.0 -2.05 -4.65 -4.05" fill="#d2da36" fill-rule="evenodd" stroke="none"/>
    <path d="M4.75 -4.0 L4.75 -4.05 Q3.0 -6.2 0.05 -7.25 M4.75 -4.0 Q5.05 -2.0 4.65 0.5 L4.4 1.75 Q3.4 4.15 1.9 5.55 L0.05 6.85 Q-1.0 6.35 -1.85 5.55 -3.35 4.15 -4.35 1.75" fill="none" stroke="#985430" stroke-linecap="round" stroke-linejoin="round" stroke-width="0.05"/>
    <path d="M0.05 -7.25 Q-2.95 -6.2 -4.65 -4.05 -5.0 -2.05 -4.6 0.4 L-4.35 1.75" fill="none" stroke="#985430" stroke-linecap="round" stroke-linejoin="round" stroke-width="0.05"/>
  </g>
</svg>
