<?xml version="1.0" encoding="UTF-8" standalone="no"?>
<svg xmlns:xlink="http://www.w3.org/1999/xlink" height="10.5px" width="3.7px" xmlns="http://www.w3.org/2000/svg">
  <g transform="matrix(1.0, 0.0, 0.0, 1.0, 2.25, 9.9)">
    <path d="M1.05 -6.65 Q0.1 -3.25 1.3 -1.8 1.25 0.45 -0.35 0.6 L-1.9 -1.8 Q-2.55 -3.65 -1.95 -6.65 -0.35 -7.65 1.05 -6.65" fill="#2c732b" fill-rule="evenodd" stroke="none"/>
    <path d="M-1.95 -6.65 Q-1.55 -8.25 0.75 -9.9 2.0 -9.35 1.05 -6.65 -0.35 -7.65 -1.95 -6.65" fill="#99ff66" fill-rule="evenodd" stroke="none"/>
    <path d="M-1.95 -6.65 Q-1.55 -8.25 0.75 -9.9 2.0 -9.35 1.05 -6.65 0.1 -3.25 1.3 -1.8 1.25 0.45 -0.35 0.6 L-1.9 -1.8 Q-2.55 -3.65 -1.95 -6.65 Z" fill="none" stroke="#245320" stroke-linecap="round" stroke-linejoin="round" stroke-width="0.05"/>
  </g>
</svg>
