<?xml version="1.0" encoding="UTF-8" standalone="no"?>
<svg xmlns:xlink="http://www.w3.org/1999/xlink" height="13.75px" width="8.05px" xmlns="http://www.w3.org/2000/svg">
  <g transform="matrix(1.0, 0.0, 0.0, 1.0, 4.2, 11.85)">
    <path d="M-1.45 -8.6 L-3.3 -8.65 Q-2.8 -13.0 -0.85 -11.45 L-0.45 -10.15 Q-1.6 -10.25 -1.45 -8.6 M1.1 -8.6 Q1.25 -10.25 0.1 -10.15 L0.5 -11.45 Q2.45 -13.0 2.95 -8.65 L1.1 -8.6" fill="#d5d0ce" fill-rule="evenodd" stroke="none"/>
    <path d="M0.05 -7.5 L1.25 -7.05 3.35 -4.6 3.65 -4.25 Q4.55 -1.5 1.35 0.55 4.15 -2.7 0.45 -5.45 0.3 -6.45 -0.15 -6.55 L-0.2 -6.55 Q-0.65 -6.45 -0.8 -5.45 -4.5 -2.7 -1.7 0.55 -4.9 -1.5 -4.0 -4.25 L-3.7 -4.6 -1.6 -7.05 -0.4 -7.5 0.05 -7.5" fill="#c0d6c2" fill-rule="evenodd" stroke="none"/>
    <path d="M1.25 -7.05 L0.05 -7.5 0.45 -7.75 1.25 -7.05 M-0.4 -7.5 L-1.6 -7.05 -0.8 -7.75 -0.4 -7.5 M-1.7 0.55 Q-4.5 -2.7 -0.8 -5.45 -0.65 -6.45 -0.2 -6.55 L-0.15 -6.55 Q0.3 -6.45 0.45 -5.45 4.15 -2.7 1.35 0.55 0.8 1.4 -0.05 1.9 -1.15 1.4 -1.7 0.55" fill="#99ff66" fill-rule="evenodd" stroke="none"/>
    <path d="M0.05 -7.5 L-0.4 -7.5 -0.8 -7.75 -1.6 -7.05 -3.7 -4.6 Q-4.85 -6.05 -3.3 -8.65 L-1.45 -8.6 -1.2 -8.3 -0.2 -9.05 0.85 -8.3 1.1 -8.6 2.95 -8.65 Q4.5 -6.05 3.35 -4.6 L1.25 -7.05 0.45 -7.75 0.05 -7.5 M-0.15 -9.05 L-0.2 -9.05 -0.15 -9.05" fill="#2c732b" fill-rule="evenodd" stroke="none"/>
    <path d="M1.25 -7.05 L0.05 -7.5 -0.4 -7.5 -1.6 -7.05 -3.7 -4.6 -4.0 -4.25 Q-4.9 -1.5 -1.7 0.55 -4.5 -2.7 -0.8 -5.45 -0.65 -6.45 -0.2 -6.55 L-0.15 -6.55 Q0.3 -6.45 0.45 -5.45 4.15 -2.7 1.35 0.55 4.55 -1.5 3.65 -4.25 L3.35 -4.6 1.25 -7.05" fill="none" stroke="#48943a" stroke-linecap="round" stroke-linejoin="round" stroke-width="0.05"/>
    <path d="M-1.45 -8.6 L-3.3 -8.65 Q-2.8 -13.0 -0.85 -11.45 L-0.45 -10.15 Q-1.6 -10.25 -1.45 -8.6 M2.95 -8.65 Q2.45 -13.0 0.5 -11.45 L0.1 -10.15 Q1.25 -10.25 1.1 -8.6 L2.95 -8.65 M-1.7 0.55 Q-1.15 1.4 -0.05 1.9 0.8 1.4 1.35 0.55" fill="none" stroke="#985430" stroke-linecap="round" stroke-linejoin="round" stroke-width="0.05"/>
  </g>
</svg>
