<?xml version="1.0" encoding="UTF-8" standalone="no"?>
<svg xmlns:xlink="http://www.w3.org/1999/xlink" height="15.05px" width="14.3px" xmlns="http://www.w3.org/2000/svg">
  <g transform="matrix(1.0, 0.0, 0.0, 1.0, 7.15, 7.2)">
    <path d="M2.7 -0.8 L3.15 -1.55 3.75 -1.55 4.2 -0.8 4.5 1.25 4.2 3.3 Q3.9 4.15 3.45 4.15 3.0 4.15 2.7 3.3 2.4 2.45 2.4 1.25 2.4 0.05 2.7 -0.8 M-3.15 -1.55 L-2.7 -0.8 Q-2.4 0.05 -2.4 1.25 -2.4 2.45 -2.7 3.3 -3.0 4.15 -3.45 4.15 -3.9 4.15 -4.2 3.3 L-4.5 1.25 -4.2 -0.8 -3.75 -1.55 -3.15 -1.55" fill="#c0d6c2" fill-rule="evenodd" stroke="none"/>
    <path d="M2.7 -0.8 Q2.4 0.05 2.4 1.25 2.4 2.45 2.7 3.3 3.0 4.15 3.45 4.15 3.9 4.15 4.2 3.3 L4.5 1.25 4.2 -0.8 3.75 -1.55 3.15 -1.55 2.7 -0.8 M0.05 -7.2 Q2.65 -6.0 4.7 -3.9 7.15 2.15 7.15 3.7 4.55 6.3 0.0 7.85 -4.55 6.3 -7.15 3.7 -7.15 2.25 -4.7 -3.9 -1.25 -7.4 -0.05 -7.2 L0.0 -7.2 0.05 -7.2 M-3.15 -1.55 L-3.75 -1.55 -4.2 -0.8 -4.5 1.25 -4.2 3.3 Q-3.9 4.15 -3.45 4.15 -3.0 4.15 -2.7 3.3 -2.4 2.45 -2.4 1.25 -2.4 0.05 -2.7 -0.8 L-3.15 -1.55" fill="#2c732b" fill-rule="evenodd" stroke="none"/>
    <path d="M0.0 7.85 Q4.55 6.3 7.15 3.7 7.15 2.15 4.7 -3.9 2.65 -6.0 0.05 -7.2 M0.0 -7.2 L-0.05 -7.2" fill="none" stroke="#245320" stroke-linecap="round" stroke-linejoin="round" stroke-width="0.05"/>
    <path d="M0.05 -7.2 L0.0 -7.2 M-0.05 -7.2 Q-1.25 -7.4 -4.7 -3.9 -7.15 2.25 -7.15 3.7 -4.55 6.3 0.0 7.85 Z" fill="none" stroke="#245320" stroke-linecap="round" stroke-linejoin="round" stroke-width="0.05"/>
  </g>
</svg>
