<?xml version="1.0" encoding="UTF-8" standalone="no"?>
<svg xmlns:xlink="http://www.w3.org/1999/xlink" height="18.2px" width="17.5px" xmlns="http://www.w3.org/2000/svg">
  <g transform="matrix(1.0, 0.0, 0.0, 1.0, 8.75, 9.3)">
    <path d="M-2.15 -8.1 L-2.8 -3.4 Q-2.75 -2.95 0.0 -0.25 L1.45 -1.7 2.75 -3.15 2.0 -8.15 5.1 -4.8 Q8.35 0.7 7.8 3.5 5.75 7.0 0.0 8.0 -5.75 6.8 -7.75 3.5 -8.45 0.4 -5.1 -4.8 L-2.15 -8.1 M5.4 2.2 L5.05 1.45 4.5 1.0 4.3 0.9 3.35 0.9 Q2.9 1.0 2.6 1.45 L2.6 1.5 2.25 2.2 2.15 3.0 Q2.1 3.9 2.6 4.6 L2.75 4.75 Q3.15 5.2 3.8 5.2 4.45 5.2 4.9 4.75 L5.05 4.6 Q5.5 3.9 5.5 3.0 L5.4 2.2 M-2.15 2.95 L-2.3 2.15 -2.6 1.45 -2.65 1.4 Q-3.0 0.95 -3.4 0.85 L-4.35 0.85 -4.5 0.95 -5.05 1.4 -5.45 2.15 -5.55 2.95 Q-5.55 3.85 -5.05 4.5 L-4.85 4.75 Q-4.45 5.15 -3.85 5.15 -3.25 5.15 -2.75 4.7 L-2.65 4.5 Q-2.15 3.85 -2.15 2.95" fill="#89455a" fill-rule="evenodd" stroke="none"/>
    <path d="M-2.05 -8.55 Q-0.85 -9.45 -0.05 -9.3 L0.05 -9.3 1.85 -8.5 2.0 -8.15 2.75 -3.15 1.45 -1.7 0.0 -0.25 Q-2.75 -2.95 -2.8 -3.4 L-2.15 -8.1 -2.05 -8.55 M5.4 2.2 L5.5 3.0 Q5.5 3.9 5.05 4.6 L4.9 4.75 Q4.45 5.2 3.8 5.2 3.15 5.2 2.75 4.75 L2.6 4.6 Q2.1 3.9 2.15 3.0 L2.25 2.2 2.6 1.5 2.6 1.45 Q2.9 1.0 3.35 0.9 L4.3 0.9 4.5 1.0 5.05 1.45 5.4 2.2 M-2.15 2.95 Q-2.15 3.85 -2.65 4.5 L-2.75 4.7 Q-3.25 5.15 -3.85 5.15 -4.45 5.15 -4.85 4.75 L-5.05 4.5 Q-5.55 3.85 -5.55 2.95 L-5.45 2.15 -5.05 1.4 -4.5 0.95 -4.35 0.85 -3.4 0.85 Q-3.0 0.95 -2.65 1.4 L-2.6 1.45 -2.3 2.15 -2.15 2.95" fill="#f9f2f5" fill-rule="evenodd" stroke="none"/>
    <path d="M-2.05 -8.55 L-2.15 -8.1 -5.1 -4.8 Q-8.45 0.4 -7.75 3.5 -5.75 6.8 0.0 8.0 5.75 7.0 7.8 3.5 8.35 0.7 5.1 -4.8 L2.0 -8.15 1.85 -8.5 5.7 -5.3 Q9.3 0.75 8.65 3.9 6.4 7.8 0.0 8.9 -6.4 7.6 -8.65 3.9 -9.4 0.45 -5.65 -5.3 L-2.05 -8.55" fill="#381d27" fill-rule="evenodd" stroke="none"/>
    <path d="M1.85 -8.5 L0.05 -9.3 -0.05 -9.3 Q-0.85 -9.45 -2.05 -8.55 L-5.65 -5.3 Q-9.4 0.45 -8.65 3.9 -6.4 7.6 0.0 8.9 6.4 7.8 8.65 3.9 9.3 0.75 5.7 -5.3 L1.85 -8.5 M2.0 -8.15 L5.1 -4.8 M-7.75 3.5 Q-8.45 0.4 -5.1 -4.8" fill="none" stroke="#89455a" stroke-linecap="round" stroke-linejoin="round" stroke-width="0.05"/>
  </g>
</svg>
