<?xml version="1.0" encoding="UTF-8" standalone="no"?>
<svg xmlns:xlink="http://www.w3.org/1999/xlink" height="15.05px" width="14.3px" xmlns="http://www.w3.org/2000/svg">
  <g transform="matrix(1.0, 0.0, 0.0, 1.0, 7.15, 7.2)">
    <path d="M0.0 -7.2 L0.05 -7.2 Q2.65 -6.0 4.7 -3.9 7.15 2.15 7.15 3.7 4.55 6.3 0.0 7.85 -4.55 6.3 -7.15 3.7 -7.15 2.25 -4.7 -3.9 -1.25 -7.4 -0.05 -7.2 L0.0 -7.2 M2.3 -0.65 L2.7 -0.75 3.05 -1.05 3.35 -2.05 3.05 -3.0 2.6 -3.35 2.0 -3.35 1.55 -3.0 Q1.25 -2.6 1.25 -2.05 1.25 -1.5 1.55 -1.05 1.85 -0.65 2.3 -0.65 M3.15 1.5 L2.7 1.85 2.5 2.3 2.4 2.8 Q2.4 3.35 2.7 3.8 L3.45 4.2 4.2 3.8 4.5 2.8 4.45 2.3 4.2 1.85 3.75 1.5 3.15 1.5 M-2.4 2.8 L-2.45 2.3 -2.7 1.85 -3.15 1.5 -3.75 1.5 -4.2 1.85 -4.4 2.3 -4.5 2.8 -4.2 3.8 -3.45 4.2 -2.7 3.8 Q-2.4 3.35 -2.4 2.8 M-1.65 -3.1 L-2.1 -3.45 -2.7 -3.45 -3.15 -3.1 -3.15 -3.05 -3.45 -2.15 -3.15 -1.15 Q-2.95 -0.9 -2.65 -0.8 L-2.4 -0.75 Q-1.95 -0.75 -1.65 -1.15 -1.35 -1.6 -1.35 -2.15 -1.35 -2.7 -1.65 -3.1" fill="#15314a" fill-rule="evenodd" stroke="none"/>
    <path d="M3.15 1.5 L3.75 1.5 4.2 1.85 4.45 2.3 4.5 2.8 4.2 3.8 3.45 4.2 2.7 3.8 Q2.4 3.35 2.4 2.8 L2.5 2.3 2.7 1.85 3.15 1.5 M2.3 -0.65 Q1.85 -0.65 1.55 -1.05 1.25 -1.5 1.25 -2.05 1.25 -2.6 1.55 -3.0 L2.0 -3.35 2.6 -3.35 3.05 -3.0 3.35 -2.05 3.05 -1.05 2.7 -0.75 2.3 -0.65 M-1.65 -3.1 Q-1.35 -2.7 -1.35 -2.15 -1.35 -1.6 -1.65 -1.15 -1.95 -0.75 -2.4 -0.75 L-2.65 -0.8 Q-2.95 -0.9 -3.15 -1.15 L-3.45 -2.15 -3.15 -3.05 -3.15 -3.1 -2.7 -3.45 -2.1 -3.45 -1.65 -3.1 M-2.4 2.8 Q-2.4 3.35 -2.7 3.8 L-3.45 4.2 -4.2 3.8 -4.5 2.8 -4.4 2.3 -4.2 1.85 -3.75 1.5 -3.15 1.5 -2.7 1.85 -2.45 2.3 -2.4 2.8" fill="#359f87" fill-rule="evenodd" stroke="none"/>
    <path d="M0.0 -7.2 L-0.05 -7.2 M0.0 7.85 Q4.55 6.3 7.15 3.7 7.15 2.15 4.7 -3.9 2.65 -6.0 0.05 -7.2" fill="none" stroke="#245320" stroke-linecap="round" stroke-linejoin="round" stroke-width="0.05"/>
    <path d="M0.05 -7.2 L0.0 -7.2 M-0.05 -7.2 Q-1.25 -7.4 -4.7 -3.9 -7.15 2.25 -7.15 3.7 -4.55 6.3 0.0 7.85" fill="none" stroke="#245320" stroke-linecap="round" stroke-linejoin="round" stroke-width="0.05"/>
  </g>
</svg>
