<?xml version="1.0" encoding="UTF-8" standalone="no"?>
<svg xmlns:xlink="http://www.w3.org/1999/xlink" height="31.75px" width="34.8px" xmlns="http://www.w3.org/2000/svg">
  <g transform="matrix(1.0, 0.0, 0.0, 1.0, 9.55, 4.8)">
    <path d="M0.65 15.2 L-0.65 16.95 -5.85 16.25 -9.05 13.25 6.35 -4.3 9.6 -4.3 24.75 13.5 21.85 16.4 16.2 17.1 14.9 15.3 18.95 14.75 21.25 12.2 9.2 -3.2 6.6 -3.2 -5.7 12.05 -3.1 14.65 0.65 15.2 M12.1 11.8 L12.25 24.2 12.2 24.2 10.85 26.35 5.7 26.45 4.25 24.15 3.65 11.4 4.45 10.25 4.9 21.5 6.1 23.45 10.2 23.4 11.25 21.5 11.3 21.5 11.2 10.4 12.1 11.8" fill="#ffffff" fill-opacity="0.2" fill-rule="evenodd" stroke="none"/>
    <path d="M14.9 15.3 L16.2 17.1 21.85 16.4 24.75 13.5 9.6 -4.3 6.35 -4.3 -9.05 13.25 -5.85 16.25 -0.65 16.95 0.65 15.2 3.65 11.2 3.65 11.4 4.25 24.15 5.7 26.45 10.85 26.35 12.2 24.2 12.25 24.2 12.1 11.8 12.1 11.35 14.9 15.3" fill="none" stroke="#ffffff" stroke-linecap="round" stroke-linejoin="round" stroke-width="1.0"/>
    <path d="M0.65 15.2 L-3.1 14.65 -5.7 12.05 6.6 -3.2 9.2 -3.2 21.25 12.2 18.95 14.75 14.9 15.3 M12.1 11.8 L11.2 10.4 11.3 21.5 11.25 21.5 10.2 23.4 6.1 23.45 4.9 21.5 4.45 10.25 3.65 11.4" fill="none" stroke="#ffffff" stroke-linecap="round" stroke-linejoin="round" stroke-opacity="0.3019608" stroke-width="1.0"/>
  </g>
</svg>
