<?xml version="1.0" encoding="UTF-8" standalone="no"?>
<svg xmlns:xlink="http://www.w3.org/1999/xlink" height="89.0px" width="108.05px" xmlns="http://www.w3.org/2000/svg">
  <g transform="matrix(1.0, 0.0, 0.0, 1.0, 54.0, 44.5)">
    <path d="M-3.5 -42.85 L-3.5 -42.25 33.2 -38.0 39.55 -44.5 M-3.5 -42.25 L-3.3 -39.8 27.9 -32.65 33.2 -38.0 53.5 -5.7 54.05 -5.7 M19.55 -24.2 L-2.6 -30.0 -1.75 -18.2 11.9 -16.4 19.55 -24.2 27.9 -32.65 42.7 -5.3 53.5 -5.7 Q41.1 11.45 35.35 27.6 L47.2 37.85 M5.2 -9.65 L1.5 -5.9 3.0 -3.75 8.45 -4.0 5.2 -9.65 -1.25 -11.1 -0.95 -6.95 1.5 -5.9 -0.7 -3.65 3.0 -3.75 1.45 -1.8 4.95 1.25 8.45 -4.0 14.0 -4.2 8.1 -12.55 5.2 -9.65 M1.45 -1.8 L-0.7 -3.65 -0.2 -1.45 1.0 -1.1 1.45 -1.8 M14.0 -4.2 L14.15 -4.2 22.4 -4.5 11.9 -16.4 8.1 -12.55 -1.5 -14.45 -1.25 -11.1 -7.95 -9.35 -4.7 -6.8 -0.95 -6.95 -0.7 -3.65 -4.7 -6.8 -7.85 -3.35 -0.7 -3.65 -3.95 1.8 0.9 3.2 -0.2 -1.45 M22.4 -4.5 L30.9 -4.85 19.55 -24.2 M30.9 -4.85 L42.7 -5.3 Q31.8 7.0 29.05 22.2 L35.35 27.6 13.9 36.95 16.15 42.8 M-47.15 -1.85 L-33.8 -29.95 -39.85 -34.75 -53.9 -1.6 -47.15 -1.85 -35.15 -2.35 -27.25 -24.75 -33.8 -29.95 -3.3 -39.8 -2.6 -30.0 -27.25 -24.75 -14.6 -14.7 -1.75 -18.2 -1.5 -14.45 -12.1 -12.7 -7.95 -9.35 -14.75 -3.1 -7.85 -3.35 -6.8 -0.6 -0.7 -3.65 M-21.4 -2.85 L-12.1 -12.7 -14.6 -14.7 -27.65 -2.6 -21.4 -2.85 -14.75 -3.1 -13.3 2.6 -6.8 -0.6 -3.95 1.8 -7.75 8.15 3.75 10.5 0.9 3.2 4.95 1.25 11.25 6.7 14.15 -4.2 M-35.15 -2.35 L-27.65 -2.6 -25.95 8.9 -18.3 5.1 -21.4 -2.85 M-3.5 -42.25 L-39.85 -34.75 -47.9 -41.15 M-18.3 5.1 L-13.3 2.6 -7.75 8.15 -10.45 12.7 5.65 15.45 3.75 10.5 Q6.8 10.4 9.05 9.3 11.2 8.15 11.25 6.7 L16.1 10.95 Q16.15 2.8 22.4 -4.5 M-18.3 5.1 L-10.45 12.7 -16.25 22.45 9.75 26.15 5.65 15.45 16.1 10.95 23.45 17.3 30.9 -4.85 M-32.9 12.4 L-20.95 30.35 -16.25 22.45 -25.95 8.9 -32.9 12.4 -35.15 -2.35 M13.9 36.95 L-23.15 34.0 -25.85 38.65 -29.25 44.5 M13.9 36.95 L12.35 32.8 -20.95 30.35 -23.15 34.0 -41.3 16.6 -48.8 20.3 -25.85 38.65 M-54.0 22.9 L-48.8 20.3 -53.9 -1.6 M-47.15 -1.85 L-41.3 16.6 -32.9 12.4 M23.45 17.3 L29.05 22.2 12.35 32.8 9.75 26.15 23.45 17.3" fill="none" stroke="#dfffff" stroke-linecap="round" stroke-linejoin="round" stroke-width="0.05"/>
  </g>
</svg>
