<?xml version="1.0" encoding="UTF-8" standalone="no"?>
<svg xmlns:xlink="http://www.w3.org/1999/xlink" height="404.9px" width="530.7px" xmlns="http://www.w3.org/2000/svg">
  <g transform="matrix(1.0, 0.0, 0.0, 1.0, 264.15, 203.45)">
    <path d="M21.25 -104.55 Q135.25 -49.45 135.7 -49.0 137.2 -46.9 140.25 -43.6 142.75 -40.5 143.55 -36.7 144.85 -30.55 143.85 73.7 144.0 85.1 142.95 89.7 139.9 102.85 128.8 102.85 L-18.85 102.5 Q-146.85 102.25 -153.95 101.25 -161.05 100.25 -163.55 92.55 -164.3 90.2 -165.0 81.95 L-166.05 -96.25 Q-164.4 -103.9 -156.35 -108.85 -152.0 -111.55 -112.5 -111.5 L-52.75 -110.65 -13.9 -109.85 2.95 -108.15 Q17.15 -106.2 21.25 -104.55 M123.95 -53.65 L124.5 -53.2 125.15 -53.0 125.05 -53.05 123.95 -53.65 M259.25 -200.65 L266.55 201.45 -263.45 199.2 -264.15 -203.45 259.25 -200.65 M108.8 -141.5 Q47.9 -172.6 47.0 -173.75 6.85 -173.8 -72.35 -175.45 -157.7 -177.2 -191.65 -177.45 L-197.5 -175.7 Q-203.95 -173.5 -210.05 -170.45 -229.3 -160.8 -239.55 -145.55 L-239.55 -27.25 Q-239.55 32.35 -238.65 92.0 -238.6 95.0 -239.1 106.3 -239.6 117.2 -239.4 123.75 -238.85 145.3 -230.9 151.5 -221.6 158.8 -216.55 161.05 -211.9 163.1 -203.6 163.95 L-177.6 165.25 Q-158.45 165.2 -139.9 161.9 -133.8 160.8 -103.55 158.7 L-14.2 154.85 Q79.7 152.85 105.95 155.05 120.5 156.3 140.05 160.7 150.6 163.05 165.4 166.9 168.8 167.75 194.75 166.75 221.95 165.7 225.8 163.65 240.5 155.85 240.55 126.4 240.8 81.55 240.3 35.35 239.25 -57.05 235.45 -63.85 231.85 -70.25 208.95 -84.65 L190.7 -95.95 Q180.7 -102.15 176.25 -105.6 170.9 -109.75 108.8 -141.5" fill="#000000" fill-rule="evenodd" stroke="none"/>
  </g>
</svg>
