<?xml version="1.0" encoding="UTF-8" standalone="no"?>
<svg xmlns:xlink="http://www.w3.org/1999/xlink" height="17.0px" width="16.15px" xmlns="http://www.w3.org/2000/svg">
  <g transform="matrix(1.0, 0.0, 0.0, 1.0, 6.3, 8.8)">
    <path d="M3.15 -7.2 L3.15 7.15 -1.5 2.7 -1.5 -2.6 3.15 -7.2 M4.25 3.3 L4.55 3.45 8.5 7.4 8.65 7.75 8.5 8.05 8.2 8.2 7.9 8.05 3.9 4.05 3.8 3.75 3.9 3.45 4.25 3.3 M4.25 -0.6 L4.6 -0.75 9.4 -0.75 9.75 -0.6 9.85 -0.3 9.75 0.0 9.4 0.15 4.6 0.15 4.25 0.0 4.15 -0.3 4.25 -0.6 M8.2 -8.8 L8.5 -8.65 8.65 -8.35 8.5 -8.0 4.3 -3.85 4.0 -3.75 Q3.8 -3.75 3.7 -3.85 L3.55 -4.2 3.7 -4.5 7.9 -8.65 8.2 -8.8 M-2.35 -3.45 L-2.35 3.6 -6.3 3.6 -6.3 -3.45 -2.35 -3.45" fill="#ffffff" fill-rule="evenodd" stroke="none"/>
    <path d="M3.15 -7.2 L3.15 7.15 -1.5 2.7 -1.5 -2.6 3.15 -7.2 M4.25 3.3 L4.55 3.45 8.5 7.4 8.65 7.75 8.5 8.05 8.2 8.2 7.9 8.05 3.9 4.05 3.8 3.75 3.9 3.45 4.25 3.3 M4.15 -0.3 L4.25 -0.6 4.6 -0.75 9.4 -0.75 9.75 -0.6 9.85 -0.3 9.75 0.0 9.4 0.15 4.6 0.15 4.25 0.0 4.15 -0.3 M8.2 -8.8 L8.5 -8.65 8.65 -8.35 8.5 -8.0 4.3 -3.85 4.0 -3.75 Q3.8 -3.75 3.7 -3.85 L3.55 -4.2 3.7 -4.5 7.9 -8.65 8.2 -8.8 M-2.35 -3.45 L-2.35 3.6 -6.3 3.6 -6.3 -3.45 -2.35 -3.45" fill="#ffffff" fill-rule="evenodd" stroke="none"/>
  </g>
</svg>
