<?xml version="1.0" encoding="UTF-8" standalone="no"?>
<svg xmlns:xlink="http://www.w3.org/1999/xlink" height="143.65px" width="132.8px" xmlns="http://www.w3.org/2000/svg">
  <g transform="matrix(1.0, 0.0, 0.0, 1.0, 66.4, 71.85)">
    <path d="M10.6 -71.75 L12.8 -64.95 Q18.85 -47.95 19.85 -41.35 L19.85 -41.3 19.8 -41.2 Q19.5 -41.0 17.85 -35.05 L17.85 -35.0 Q19.8 -25.2 16.6 -18.8 15.6 -14.5 12.6 -10.2 L12.55 -10.15 13.15 -6.35 13.2 -6.05 Q17.75 -8.65 22.6 -9.85 L22.65 -9.75 22.75 -9.75 22.75 -9.85 22.6 -9.85 Q22.1 -17.35 24.1 -22.6 L21.45 -24.25 21.4 -24.25 21.35 -24.35 21.35 -24.4 21.4 -24.45 21.45 -24.5 21.5 -24.5 Q24.4 -25.85 34.65 -27.4 L34.7 -27.4 Q39.85 -26.45 58.9 -19.1 L64.7 -16.9 64.75 -16.85 64.75 -16.75 64.7 -16.7 64.6 -16.65 57.45 -16.45 Q39.4 -15.6 32.85 -16.6 L32.8 -16.65 32.75 -16.7 28.4 -19.8 Q28.45 -12.0 25.1 -7.0 L25.05 -6.95 24.8 -6.9 24.75 -6.85 24.75 -6.75 24.7 -6.7 Q20.7 -2.3 13.6 0.25 L13.5 0.2 12.55 3.4 Q17.9 3.9 22.65 5.75 27.8 1.15 32.85 -0.45 L31.35 -2.95 31.45 -2.95 31.5 -2.95 31.4 -3.1 Q34.55 -3.0 44.45 0.3 48.6 3.45 62.15 18.55 L62.25 18.6 66.4 23.25 60.15 20.3 60.05 20.35 59.95 20.35 Q43.55 12.85 38.1 8.95 L38.05 8.9 38.05 8.85 38.05 8.8 35.1 3.5 Q29.35 8.4 23.8 9.5 L23.7 9.65 23.6 9.65 23.4 9.75 23.35 9.8 Q17.65 11.05 10.65 9.0 L10.6 8.95 10.25 10.15 Q15.95 12.2 20.45 15.75 L20.5 15.75 20.55 15.9 Q25.0 17.35 28.35 19.4 L28.2 16.05 28.25 15.95 28.3 15.9 28.35 15.9 28.4 15.95 28.45 15.95 Q31.15 17.55 38.35 25.1 L38.4 25.2 Q40.6 30.0 45.35 49.6 L46.85 55.65 46.85 55.75 46.75 55.8 46.7 55.8 46.6 55.75 42.35 50.05 Q31.45 35.75 28.6 29.75 L28.55 29.65 28.55 29.55 28.6 25.45 Q22.5 23.05 19.1 19.25 13.8 18.95 8.25 15.75 L8.2 15.75 7.7 17.2 7.75 17.2 7.8 17.3 7.8 17.4 7.4 17.95 Q14.5 21.7 19.35 27.55 L19.4 27.6 19.4 27.65 19.4 27.9 Q20.75 36.0 19.3 46.05 L18.35 51.05 18.35 51.1 Q14.4 60.75 8.45 66.45 5.1 69.65 1.15 71.7 L1.1 71.75 1.0 71.8 0.95 71.75 0.85 71.75 0.8 71.75 Q-3.35 69.8 -6.75 66.6 -12.8 61.05 -16.95 51.45 L-18.0 46.1 -17.95 46.15 -17.9 46.2 -17.9 46.05 Q-19.6 36.3 -18.45 28.3 L-18.5 28.3 -18.5 28.25 -18.45 28.0 Q-13.55 21.75 -5.95 17.75 L-6.0 17.75 -5.95 17.75 -6.95 15.15 Q-13.1 19.1 -18.85 19.65 -22.25 23.5 -28.35 26.1 L-28.2 30.1 -28.15 30.2 -28.15 30.3 Q-30.95 36.35 -41.5 50.9 L-41.5 50.85 -41.55 50.75 -41.6 50.7 -41.65 50.85 -41.75 50.95 -41.7 50.95 -41.6 51.0 -41.55 50.95 -45.65 56.75 -45.7 56.8 -45.8 56.8 -45.85 56.7 -45.9 56.65 -44.5 50.55 Q-40.15 30.65 -38.1 25.9 L-38.05 25.85 Q-31.1 18.2 -28.4 16.5 L-28.35 16.45 -28.25 16.45 -28.15 16.5 -28.15 16.6 -28.2 20.0 Q-25.05 17.95 -20.65 16.45 L-20.5 16.15 Q-15.55 12.1 -9.0 9.85 L-9.4 8.85 Q-17.15 11.55 -23.35 10.3 L-23.4 10.3 -23.85 10.0 Q-29.45 8.95 -35.35 4.1 -38.15 9.2 -38.15 9.6 L-38.15 9.55 -38.25 9.5 -38.25 9.6 Q-43.6 13.65 -59.75 21.45 L-59.75 21.5 -59.7 21.55 -59.8 21.65 -66.2 24.75 -66.3 24.8 -66.35 24.75 -66.4 24.65 -66.35 24.6 -62.2 19.9 Q-49.0 4.4 -44.85 1.2 L-44.85 1.15 Q-35.1 -2.35 -31.85 -2.5 L-31.8 -2.5 -31.75 -2.5 -31.65 -2.45 -31.65 -2.4 -31.7 -2.3 -31.75 -2.3 -33.25 0.3 Q-28.1 1.8 -22.75 6.3 -17.5 4.1 -11.35 3.55 L-12.25 1.0 -12.3 1.0 Q-20.75 -1.4 -25.2 -6.25 L-25.25 -6.3 -25.45 -6.35 -25.5 -6.4 -25.55 -6.4 Q-29.1 -11.4 -29.2 -19.3 -33.5 -16.4 -33.6 -16.05 L-58.05 -15.3 -58.1 -15.2 -58.2 -15.15 -65.35 -15.2 -65.4 -15.25 -65.45 -15.3 -65.45 -15.4 -65.4 -15.45 -59.6 -17.85 Q-40.8 -25.55 -35.65 -26.6 L-35.6 -26.6 Q-25.25 -25.25 -22.35 -23.95 L-22.25 -23.85 -22.25 -23.75 -22.35 -23.7 -24.85 -22.0 Q-22.8 -16.85 -23.2 -9.4 -17.8 -8.25 -12.6 -5.3 L-12.1 -8.55 -12.2 -8.6 Q-16.15 -13.5 -17.35 -18.45 L-17.4 -18.55 Q-20.75 -24.9 -18.95 -34.65 L-18.95 -34.7 Q-20.7 -40.55 -20.95 -40.75 L-20.95 -40.85 -21.0 -40.9 Q-20.25 -47.55 -14.5 -64.65 L-12.35 -71.5 -12.3 -71.6 -12.2 -71.6 -12.15 -71.6 -12.1 -71.5 -11.55 -65.3 Q-9.75 -45.0 -10.2 -39.75 L-10.2 -39.7 Q-12.6 -34.5 -14.3 -31.35 -13.6 -26.85 -14.5 -21.05 L-14.25 -20.9 Q-12.45 -19.2 -10.8 -17.15 L-10.75 -17.35 -10.8 -17.4 -10.85 -17.5 Q-11.0 -31.25 -1.4 -36.5 L-1.35 -36.55 -1.3 -36.55 -1.25 -36.5 -1.2 -36.5 -1.2 -36.45 -1.2 -36.4 -0.75 -31.3 -0.75 -31.2 -0.85 -31.15 -0.95 -31.15 Q-5.55 -25.4 -5.3 -18.9 L-5.25 -18.85 -4.35 -17.75 0.15 -21.15 0.2 -21.2 0.3 -21.15 5.05 -17.85 5.75 -18.9 5.75 -18.95 Q5.85 -25.3 1.2 -31.15 L1.2 -31.2 1.55 -36.45 1.65 -36.55 1.7 -36.6 1.75 -36.6 1.8 -36.55 Q10.85 -31.65 11.4 -19.0 L13.45 -21.25 13.75 -21.4 Q12.65 -27.2 13.35 -31.75 11.5 -34.8 9.0 -39.9 8.4 -45.15 9.9 -65.45 L10.3 -71.7 10.35 -71.8 10.45 -71.85 10.55 -71.8 10.6 -71.75" fill="#000000" fill-opacity="0.21176471" fill-rule="evenodd" stroke="none"/>
  </g>
</svg>
