<?xml version="1.0" encoding="UTF-8" standalone="no"?>
<svg xmlns:xlink="http://www.w3.org/1999/xlink" height="138.0px" width="127.6px" xmlns="http://www.w3.org/2000/svg">
  <g transform="matrix(1.0, 0.0, 0.0, 1.0, 64.4, 68.65)">
    <path d="M22.2 9.35 L22.05 9.55 21.8 9.65 21.75 9.45 22.05 9.4 22.2 9.35 M19.0 15.6 L19.1 15.75 18.95 15.7 19.0 15.6 M-20.35 16.25 L-20.15 16.0 -20.15 16.2 -20.35 16.25" fill="#7d4a26" fill-rule="evenodd" stroke="none"/>
    <path d="M9.0 -62.5 L9.05 -62.6 9.45 -68.5 11.65 -62.05 9.0 -62.5" fill="url(#gradient0)" fill-rule="evenodd" stroke="none"/>
    <path d="M9.0 -62.5 L11.65 -62.05 Q17.45 -45.7 18.35 -39.35 18.05 -39.1 16.4 -33.25 L14.65 -26.75 Q13.7 -27.75 12.35 -30.15 10.6 -33.1 8.2 -38.05 7.6 -43.05 9.0 -62.5" fill="url(#gradient1)" fill-rule="evenodd" stroke="none"/>
    <path d="M12.8 -20.15 Q11.7 -25.75 12.35 -30.15 13.7 -27.75 14.65 -26.75 L16.4 -33.25 Q18.35 -23.9 15.3 -17.75 L15.2 -17.6 Q14.05 -17.1 13.2 -18.1 L12.8 -20.15" fill="url(#gradient2)" fill-rule="evenodd" stroke="none"/>
    <path d="M0.7 -29.65 L1.05 -34.7 Q9.8 -29.95 10.25 -17.55 L10.25 -16.7 9.3 -16.35 Q7.85 -16.35 5.05 -17.8 5.15 -23.95 0.7 -29.65" fill="url(#gradient3)" fill-rule="evenodd" stroke="none"/>
    <path d="M10.25 -17.55 L12.45 -19.95 12.8 -20.15 13.2 -18.1 Q14.05 -17.1 15.2 -17.6 L15.3 -17.75 Q14.35 -13.65 11.5 -9.5 L12.1 -5.3 Q16.55 -7.85 21.25 -9.0 L21.5 -7.15 Q22.1 -6.15 23.2 -6.35 L23.1 -6.2 Q19.3 -1.95 12.45 0.45 L12.75 -0.95 5.7 -11.85 2.6 -14.5 1.05 -13.55 -1.65 -13.5 -3.2 -14.45 -6.25 -11.7 -13.05 -1.25 -12.4 1.2 Q-20.4 -1.1 -24.7 -5.75 L-24.75 -5.8 Q-23.7 -5.7 -23.05 -6.65 L-23.0 -8.55 -22.9 -8.55 Q-17.65 -7.4 -12.7 -4.6 L-12.2 -8.0 Q-16.0 -12.7 -17.15 -17.5 L-17.05 -17.3 Q-15.9 -16.85 -15.05 -17.85 L-14.7 -19.8 -14.35 -19.65 -11.0 -15.9 -10.9 -16.45 Q-9.75 -15.5 -5.7 -17.7 L-4.75 -16.55 -0.35 -19.85 4.3 -16.6 5.05 -17.8 Q7.85 -16.35 9.3 -16.35 L10.25 -16.7 10.25 -17.55" fill="url(#gradient4)" fill-rule="evenodd" stroke="none"/>
    <path d="M1.05 -13.55 L2.6 -14.5 5.7 -11.85 1.05 -13.55" fill="url(#gradient5)" fill-rule="evenodd" stroke="none"/>
    <path d="M-12.4 1.2 L-13.05 -1.25 -6.25 -11.7 -1.65 -13.5 1.05 -13.55 5.7 -11.85 12.75 -0.95 12.45 0.45 11.45 3.75 9.7 8.9 9.2 10.25 7.4 15.4 6.8 17.05 2.85 -5.85 Q2.05 -10.45 -0.25 -9.85 -2.55 -10.0 -3.05 -5.55 L-6.3 17.55 -7.35 14.8 -9.2 10.0 -9.65 8.75 -11.4 3.9 -12.4 1.2" fill="url(#gradient6)" fill-rule="evenodd" stroke="none"/>
    <path d="M54.65 -15.6 Q37.3 -14.75 31.0 -15.75 L26.6 -18.85 22.75 -21.35 20.05 -23.05 Q22.8 -24.35 32.75 -25.85 37.65 -24.95 55.85 -17.85 L54.65 -15.6" fill="url(#gradient7)" fill-rule="evenodd" stroke="none"/>
    <path d="M23.2 -6.35 Q22.1 -6.15 21.5 -7.15 L21.25 -9.0 Q20.75 -16.25 22.75 -21.35 L26.6 -18.85 Q26.7 -11.3 23.45 -6.45 L23.2 -6.35" fill="url(#gradient8)" fill-rule="evenodd" stroke="none"/>
    <path d="M54.65 -15.6 L55.85 -17.85 55.95 -17.85 61.5 -15.75 54.65 -15.6" fill="url(#gradient9)" fill-rule="evenodd" stroke="none"/>
    <path d="M59.15 18.2 L59.25 18.25 63.2 22.75 57.05 19.8 59.15 18.2" fill="url(#gradient10)" fill-rule="evenodd" stroke="none"/>
    <path d="M42.85 48.0 L42.85 48.15 44.3 53.9 40.2 48.35 42.85 48.0" fill="url(#gradient11)" fill-rule="evenodd" stroke="none"/>
    <path d="M57.05 19.8 Q41.25 12.6 36.1 8.85 L33.2 3.5 31.2 0.05 29.6 -2.6 Q32.65 -2.5 42.15 0.65 46.15 3.7 59.15 18.2 L57.05 19.8" fill="url(#gradient12)" fill-rule="evenodd" stroke="none"/>
    <path d="M33.2 3.5 Q27.6 8.3 22.2 9.35 L22.05 9.4 21.75 9.45 20.1 9.65 Q19.0 8.9 19.45 7.65 L21.2 6.05 Q26.3 1.55 31.2 0.05 L33.2 3.5" fill="url(#gradient13)" fill-rule="evenodd" stroke="none"/>
    <path d="M21.8 9.65 Q16.35 10.85 9.7 8.9 L11.45 3.75 Q16.6 4.25 21.2 6.05 L19.45 7.65 Q19.0 8.9 20.1 9.65 L21.75 9.45 21.8 9.65" fill="url(#gradient14)" fill-rule="evenodd" stroke="none"/>
    <path d="M26.85 19.2 L26.65 15.75 Q29.3 17.3 36.2 24.55 38.25 29.1 42.85 48.0 L40.2 48.35 Q29.75 34.6 27.0 28.85 L27.05 24.7 26.85 19.2" fill="url(#gradient15)" fill-rule="evenodd" stroke="none"/>
    <path d="M19.1 15.75 Q23.55 17.15 26.85 19.2 L27.05 24.7 Q21.1 22.4 17.8 18.75 L16.35 16.9 Q16.4 15.6 17.7 15.35 L18.95 15.7 19.1 15.75" fill="url(#gradient16)" fill-rule="evenodd" stroke="none"/>
    <path d="M6.8 17.05 L6.3 17.7 Q3.25 16.05 -0.2 14.85 L-0.3 14.85 Q-3.5 16.05 -6.3 17.55 L-3.05 -5.55 Q-2.55 -10.0 -0.25 -9.85 2.05 -10.45 2.85 -5.85 L6.8 17.05" fill="url(#gradient17)" fill-rule="evenodd" stroke="none"/>
    <path d="M9.2 10.25 Q14.65 12.25 19.0 15.6 L18.95 15.7 17.7 15.35 Q16.4 15.6 16.35 16.9 L17.8 18.75 Q12.75 18.45 7.4 15.4 L9.2 10.25" fill="url(#gradient18)" fill-rule="evenodd" stroke="none"/>
    <path d="M6.3 17.7 Q13.25 21.3 17.95 26.95 L17.95 27.15 8.55 40.55 Q6.2 33.25 -0.1 31.9 -6.4 33.4 -8.55 40.75 L-18.25 27.45 -18.25 27.35 Q-13.55 21.35 -6.3 17.55 -3.5 16.05 -0.3 14.85 L-0.2 14.85 Q3.25 16.05 6.3 17.7" fill="url(#gradient19)" fill-rule="evenodd" stroke="none"/>
    <path d="M17.95 27.15 Q19.25 34.95 17.85 44.6 L4.95 50.95 Q4.45 46.4 0.0 44.1 -4.4 46.5 -4.7 51.1 L-17.8 44.6 Q-19.4 35.15 -18.25 27.45 L-8.55 40.75 Q-6.4 33.4 -0.1 31.9 6.2 33.25 8.55 40.55 L17.95 27.15" fill="url(#gradient20)" fill-rule="evenodd" stroke="none"/>
    <path d="M17.85 44.6 L16.9 49.4 Q13.1 58.7 7.45 64.15 4.2 67.25 0.4 69.2 L0.3 69.2 Q-3.65 67.35 -6.95 64.3 -12.8 59.0 -16.8 49.75 L-17.8 44.6 -4.7 51.1 Q-4.4 46.5 0.0 44.1 4.45 46.4 4.95 50.95 L17.85 44.6" fill="url(#gradient21)" fill-rule="evenodd" stroke="none"/>
    <path d="M-11.85 -62.3 L-14.4 -61.75 -12.35 -68.35 -11.8 -62.4 -11.85 -62.3" fill="url(#gradient22)" fill-rule="evenodd" stroke="none"/>
    <path d="M-14.4 -61.75 L-11.85 -62.3 Q-10.05 -42.85 -10.5 -37.85 L-14.45 -29.8 Q-15.8 -27.45 -16.7 -26.4 L-18.65 -33.0 Q-20.35 -38.7 -20.6 -38.9 -19.9 -45.3 -14.4 -61.75" fill="url(#gradient23)" fill-rule="evenodd" stroke="none"/>
    <path d="M-57.75 -16.6 L-56.5 -14.3 -63.4 -14.35 -57.85 -16.65 -57.75 -16.6" fill="url(#gradient24)" fill-rule="evenodd" stroke="none"/>
    <path d="M-56.5 -14.3 L-57.75 -16.6 Q-39.75 -24.05 -34.8 -25.05 -24.85 -23.75 -22.05 -22.5 L-24.65 -20.8 -28.5 -18.25 Q-32.75 -15.4 -32.85 -15.05 L-56.5 -14.3" fill="url(#gradient25)" fill-rule="evenodd" stroke="none"/>
    <path d="M-14.7 -19.8 L-15.05 -17.85 Q-15.9 -16.85 -17.05 -17.3 L-17.15 -17.5 Q-20.4 -23.6 -18.65 -33.0 L-16.7 -26.4 Q-15.8 -27.45 -14.45 -29.8 -13.75 -25.4 -14.7 -19.8" fill="url(#gradient26)" fill-rule="evenodd" stroke="none"/>
    <path d="M-5.7 -17.7 Q-9.75 -15.5 -10.9 -16.45 -11.05 -29.55 -1.85 -34.65 L-1.4 -29.65 Q-5.95 -24.05 -5.7 -17.7" fill="url(#gradient27)" fill-rule="evenodd" stroke="none"/>
    <path d="M-23.0 -8.55 L-23.05 -6.65 Q-23.7 -5.7 -24.75 -5.8 L-25.05 -5.9 Q-28.45 -10.65 -28.5 -18.25 L-24.65 -20.8 Q-22.6 -15.8 -23.0 -8.55" fill="url(#gradient28)" fill-rule="evenodd" stroke="none"/>
    <path d="M-6.25 -11.7 L-3.2 -14.45 -1.65 -13.5 -6.25 -11.7" fill="url(#gradient29)" fill-rule="evenodd" stroke="none"/>
    <path d="M-18.8 19.1 Q-22.05 22.85 -27.95 25.3 L-27.85 19.8 Q-24.7 17.7 -20.35 16.25 L-20.15 16.2 -18.8 15.75 Q-17.55 15.95 -17.4 17.25 L-18.8 19.1" fill="url(#gradient30)" fill-rule="evenodd" stroke="none"/>
    <path d="M-7.35 14.8 Q-13.25 18.65 -18.8 19.1 L-17.4 17.25 Q-17.55 15.95 -18.8 15.75 L-20.15 16.2 -20.15 16.0 Q-15.45 12.15 -9.2 10.0 L-7.35 14.8" fill="url(#gradient31)" fill-rule="evenodd" stroke="none"/>
    <path d="M-9.65 8.75 Q-17.05 11.35 -23.0 10.15 L-23.45 9.85 -21.3 10.05 Q-20.25 9.3 -20.7 8.05 L-22.4 6.55 Q-17.35 4.45 -11.4 3.9 L-9.65 8.75" fill="url(#gradient32)" fill-rule="evenodd" stroke="none"/>
    <path d="M-23.45 9.85 Q-28.9 8.85 -34.55 4.15 L-32.65 0.75 Q-27.65 2.1 -22.4 6.55 L-20.7 8.05 Q-20.25 9.3 -21.3 10.05 L-23.45 9.85" fill="url(#gradient33)" fill-rule="evenodd" stroke="none"/>
    <path d="M-34.55 4.15 L-37.35 9.6 Q-42.5 13.5 -58.1 21.05 L-60.2 19.55 Q-47.55 4.7 -43.65 1.6 -34.2 -1.8 -31.1 -1.95 L-32.65 0.75 -34.55 4.15" fill="url(#gradient34)" fill-rule="evenodd" stroke="none"/>
    <path d="M-27.95 25.3 Q-27.95 29.15 -27.75 29.4 -30.45 35.25 -40.65 49.25 L-43.2 48.95 Q-39.1 29.9 -37.1 25.3 -30.35 17.85 -27.75 16.3 L-27.85 19.8 -27.95 25.3" fill="url(#gradient35)" fill-rule="evenodd" stroke="none"/>
    <path d="M-58.1 21.05 L-64.25 24.1 -60.3 19.6 -60.2 19.55 -58.1 21.05" fill="url(#gradient36)" fill-rule="evenodd" stroke="none"/>
    <path d="M-40.65 49.25 L-44.6 54.8 -43.25 49.05 -43.2 48.95 -40.65 49.25" fill="url(#gradient37)" fill-rule="evenodd" stroke="none"/>
    <path d="M10.25 -17.55 L12.45 -19.95 12.8 -20.15 M10.25 -17.55 L10.25 -16.7 9.3 -16.35 Q7.85 -16.35 5.05 -17.8 M-5.7 -17.7 Q-9.75 -15.5 -10.9 -16.45 M-11.0 -15.9 L-14.35 -19.65 -14.7 -19.8 M-12.7 -4.6 Q-17.65 -7.4 -22.9 -8.55 L-23.0 -8.55 M-24.75 -5.8 L-24.7 -5.75 M23.1 -6.2 L23.2 -6.35 M21.25 -9.0 Q16.55 -7.85 12.1 -5.3 M22.2 9.35 L22.05 9.55 21.8 9.65 M9.2 10.25 Q14.65 12.25 19.0 15.6 L19.1 15.75 M6.8 17.05 L6.3 17.7 M17.95 26.95 L17.95 27.15 M0.4 69.2 L0.3 69.2 M-20.35 16.25 L-20.15 16.0 Q-15.45 12.15 -9.2 10.0 M-23.0 10.15 L-23.45 9.85 M-22.4 6.55 Q-17.35 4.45 -11.4 3.9 M21.2 6.05 Q16.6 4.25 11.45 3.75" fill="none" stroke="#985430" stroke-linecap="round" stroke-linejoin="round" stroke-width="0.05"/>
    <path d="M12.8 -20.15 Q11.7 -25.75 12.35 -30.15 M15.3 -17.75 L15.2 -17.6 Q14.05 -17.1 13.2 -18.1 L12.8 -20.15 M-14.7 -19.8 L-15.05 -17.85 Q-15.9 -16.85 -17.05 -17.3 L-17.15 -17.5 Q-20.4 -23.6 -18.65 -33.0 M-23.0 -8.55 L-23.05 -6.65 Q-23.7 -5.7 -24.75 -5.8 L-25.05 -5.9 Q-28.45 -10.65 -28.5 -18.25 M23.2 -6.35 Q22.1 -6.15 21.5 -7.15 L21.25 -9.0 Q20.75 -16.25 22.75 -21.35 M15.3 -17.75 Q18.35 -23.9 16.4 -33.25 M26.6 -18.85 Q26.7 -11.3 23.45 -6.45 L23.2 -6.35 M33.2 3.5 Q27.6 8.3 22.2 9.35 L22.05 9.4 21.75 9.45 20.1 9.65 Q19.0 8.9 19.45 7.65 L21.2 6.05 Q26.3 1.55 31.2 0.05 M19.1 15.75 Q23.55 17.15 26.85 19.2 M27.05 24.7 Q21.1 22.4 17.8 18.75 L16.35 16.9 Q16.4 15.6 17.7 15.35 L18.95 15.7 19.1 15.75 M-18.8 19.1 Q-22.05 22.85 -27.95 25.3 M-27.85 19.8 Q-24.7 17.7 -20.35 16.25 L-20.15 16.2 -18.8 15.75 Q-17.55 15.95 -17.4 17.25 L-18.8 19.1 M-23.45 9.85 Q-28.9 8.85 -34.55 4.15 M-32.65 0.75 Q-27.65 2.1 -22.4 6.55 L-20.7 8.05 Q-20.25 9.3 -21.3 10.05 L-23.45 9.85 M-24.65 -20.8 Q-22.6 -15.8 -23.0 -8.55 M-14.45 -29.8 Q-13.75 -25.4 -14.7 -19.8" fill="none" stroke="#a2a220" stroke-linecap="round" stroke-linejoin="round" stroke-width="0.05"/>
    <path d="M12.35 -30.15 Q10.6 -33.1 8.2 -38.05 7.6 -43.05 9.0 -62.5 M12.35 -30.15 Q13.7 -27.75 14.65 -26.75 L16.4 -33.25 Q18.05 -39.1 18.35 -39.35 17.45 -45.7 11.65 -62.05 M22.75 -21.35 L26.6 -18.85 M36.1 8.85 L33.2 3.5 31.2 0.05 29.6 -2.6 M26.85 19.2 L26.65 15.75 M36.2 24.55 Q38.25 29.1 42.85 48.0 M27.0 28.85 L27.05 24.7 26.85 19.2 M-27.95 25.3 Q-27.95 29.15 -27.75 29.4 M-43.2 48.95 Q-39.1 29.9 -37.1 25.3 M-27.75 16.3 L-27.85 19.8 -27.95 25.3 M-34.55 4.15 L-37.35 9.6 M-31.1 -1.95 L-32.65 0.75 -34.55 4.15 M-14.4 -61.75 Q-19.9 -45.3 -20.6 -38.9 -20.35 -38.7 -18.65 -33.0 L-16.7 -26.4 Q-15.8 -27.45 -14.45 -29.8 L-10.5 -37.85 Q-10.05 -42.85 -11.85 -62.3 M-28.5 -18.25 L-24.65 -20.8 -22.05 -22.5" fill="none" stroke="#7c3e27" stroke-linecap="round" stroke-linejoin="round" stroke-width="0.05"/>
    <path d="M55.85 -17.85 Q37.65 -24.95 32.75 -25.85 22.8 -24.35 20.05 -23.05 M26.65 15.75 Q29.3 17.3 36.2 24.55 M-37.1 25.3 Q-30.35 17.85 -27.75 16.3 M-60.2 19.55 Q-47.55 4.7 -43.65 1.6 -34.2 -1.8 -31.1 -1.95 M59.15 18.2 Q46.15 3.7 42.15 0.65 32.65 -2.5 29.6 -2.6 M-22.05 -22.5 Q-24.85 -23.75 -34.8 -25.05 -39.75 -24.05 -57.75 -16.6" fill="none" stroke="#a25133" stroke-linecap="round" stroke-linejoin="round" stroke-width="0.05"/>
    <path d="M5.05 -17.8 Q5.15 -23.95 0.7 -29.65 M-1.4 -29.65 Q-5.95 -24.05 -5.7 -17.7" fill="none" stroke="#646464" stroke-linecap="round" stroke-linejoin="round" stroke-width="0.05"/>
    <path d="M-17.15 -17.5 Q-16.0 -12.7 -12.2 -8.0 M-24.7 -5.75 Q-20.4 -1.1 -12.4 1.2 M12.45 0.45 Q19.3 -1.95 23.1 -6.2 M11.5 -9.5 Q14.35 -13.65 15.3 -17.75 M26.6 -18.85 L31.0 -15.75 Q37.3 -14.75 54.65 -15.6 M20.05 -23.05 L22.75 -21.35 M57.05 19.8 Q41.25 12.6 36.1 8.85 M21.8 9.65 Q16.35 10.85 9.7 8.9 M40.2 48.35 Q29.75 34.6 27.0 28.85 M17.8 18.75 Q12.75 18.45 7.4 15.4 M-7.35 14.8 Q-13.25 18.65 -18.8 19.1 M-27.75 29.4 Q-30.45 35.25 -40.65 49.25 M-9.65 8.75 Q-17.05 11.35 -23.0 10.15 M-37.35 9.6 Q-42.5 13.5 -58.1 21.05 M-56.5 -14.3 L-32.85 -15.05 Q-32.75 -15.4 -28.5 -18.25" fill="none" stroke="#562c1d" stroke-linecap="round" stroke-linejoin="round" stroke-width="0.05"/>
    <path d="M6.3 17.7 Q13.25 21.3 17.95 26.95 M17.85 44.6 L16.9 49.4 Q13.1 58.7 7.45 64.15 4.2 67.25 0.4 69.2 M0.3 69.2 Q-3.65 67.35 -6.95 64.3 -12.8 59.0 -16.8 49.75 L-17.8 44.6 M-18.25 27.45 L-18.25 27.35 Q-13.55 21.35 -6.3 17.55 -3.5 16.05 -0.3 14.85 L-0.2 14.85 Q3.25 16.05 6.3 17.7" fill="none" stroke="#57301c" stroke-linecap="round" stroke-linejoin="round" stroke-width="0.05"/>
    <path d="M17.95 27.15 Q19.25 34.95 17.85 44.6 M-17.8 44.6 Q-19.4 35.15 -18.25 27.45" fill="none" stroke="#6a6a15" stroke-linecap="round" stroke-linejoin="round" stroke-width="0.05"/>
    <path d="M1.05 -34.7 Q9.8 -29.95 10.25 -17.55 M-10.9 -16.45 Q-11.05 -29.55 -1.85 -34.65" fill="none" stroke="#767676" stroke-linecap="round" stroke-linejoin="round" stroke-width="0.05"/>
    <path d="M0.7 -29.65 L1.05 -34.7 M-1.85 -34.65 L-1.4 -29.65" fill="none" stroke="#a4a4a4" stroke-linecap="round" stroke-linejoin="round" stroke-width="0.05"/>
    <path d="M5.05 -17.8 L4.3 -16.6 -0.35 -19.85 -4.75 -16.55 -5.7 -17.7" fill="none" stroke="#ad5838" stroke-linecap="round" stroke-linejoin="round" stroke-width="0.05"/>
    <path d="M11.65 -62.05 L9.45 -68.5 9.05 -62.6 M54.65 -15.6 L61.5 -15.75 55.95 -17.85 M59.25 18.25 L63.2 22.75 57.05 19.8 M42.85 48.15 L44.3 53.9 40.2 48.35 M-40.65 49.25 L-44.6 54.8 -43.25 49.05 M-58.1 21.05 L-64.25 24.1 -60.3 19.6 M-11.8 -62.4 L-12.35 -68.35 -14.4 -61.75 M-57.85 -16.65 L-63.4 -14.35 -56.5 -14.3" fill="none" stroke="#b9b9b9" stroke-linecap="round" stroke-linejoin="round" stroke-width="0.05"/>
    <path d="M21.25 -9.0 L21.5 -7.15 Q22.1 -6.15 23.2 -6.35 L23.1 -6.2 Q19.3 -1.95 12.45 0.45 L12.75 -0.95 10.35 -4.7 12.05 -5.7 12.1 -5.3 Q16.55 -7.85 21.25 -9.0" fill="url(#gradient38)" fill-rule="evenodd" stroke="none"/>
    <path d="M-24.7 -5.8 L-24.7 -5.75 -24.75 -5.8 -24.7 -5.8 M-12.65 -4.65 L-12.7 -4.6 -12.7 -4.65 -12.65 -4.65" fill="url(#gradient39)" fill-rule="evenodd" stroke="none"/>
    <path d="M-24.7 -5.75 L-24.7 -5.8 Q-23.7 -5.75 -23.05 -6.65 L-23.0 -8.55 -22.9 -8.55 Q-17.65 -7.4 -12.7 -4.6 L-12.65 -4.65 -11.3 -3.9 -13.05 -1.25 -12.4 1.2 Q-20.4 -1.1 -24.7 -5.75" fill="url(#gradient40)" fill-rule="evenodd" stroke="none"/>
    <path d="M9.55 -68.6 L9.6 -68.55 11.75 -62.05 Q17.55 -45.7 18.5 -39.35 L18.5 -39.3 18.45 -39.25 Q18.15 -39.0 16.55 -33.3 L16.55 -33.25 Q18.45 -23.85 15.4 -17.7 14.4 -13.6 11.6 -9.4 L11.5 -9.35 12.05 -5.7 12.1 -5.4 Q16.45 -7.95 21.15 -9.1 L21.15 -9.0 21.25 -9.0 21.25 -9.1 21.15 -9.1 Q20.65 -16.25 22.6 -21.3 L20.05 -22.9 20.0 -22.9 19.95 -23.0 19.95 -23.05 19.95 -23.1 20.05 -23.15 Q22.85 -24.45 32.7 -25.95 L32.75 -25.95 Q37.75 -25.05 56.0 -18.0 L61.6 -15.9 61.6 -15.85 61.65 -15.75 61.6 -15.65 61.5 -15.65 54.65 -15.45 Q37.3 -14.6 31.0 -15.6 L30.95 -15.6 30.9 -15.65 26.75 -18.65 Q26.75 -11.2 23.55 -6.35 L23.5 -6.3 23.25 -6.25 23.2 -6.2 23.2 -6.1 23.15 -6.05 Q19.3 -1.8 12.5 0.6 L12.45 0.6 11.45 3.65 Q16.6 4.1 21.2 5.9 26.15 1.5 31.0 -0.05 L29.55 -2.5 29.6 -2.5 29.65 -2.5 29.6 -2.6 Q32.65 -2.5 42.15 0.65 46.15 3.7 59.15 18.2 L59.25 18.25 63.2 22.75 57.2 19.9 57.15 19.95 57.05 19.95 Q41.25 12.75 36.05 8.95 L36.0 8.95 36.0 8.85 33.2 3.75 Q27.65 8.45 22.25 9.5 L22.15 9.6 22.1 9.65 21.9 9.75 21.85 9.8 Q16.35 11.0 9.7 9.05 L9.65 9.0 9.25 10.15 Q14.75 12.15 19.1 15.5 L19.2 15.65 Q23.45 17.0 26.7 19.0 L26.55 15.8 26.55 15.7 26.65 15.65 26.75 15.7 Q29.4 17.2 36.3 24.5 L36.35 24.6 Q38.45 29.15 43.0 48.0 L44.45 53.9 44.45 53.95 44.4 54.0 44.3 54.05 44.25 54.0 40.15 48.45 Q29.65 34.7 26.9 28.95 L26.85 28.85 26.85 28.8 26.9 28.75 26.9 24.85 Q21.05 22.5 17.8 18.9 12.7 18.55 7.35 15.55 L6.85 16.9 6.9 16.95 6.95 17.0 6.9 17.1 6.5 17.6 Q13.35 21.2 18.0 26.85 L18.05 26.9 18.1 26.95 18.05 27.2 Q19.35 35.0 18.0 44.6 L17.05 49.4 17.05 49.45 Q13.25 58.75 7.55 64.25 4.3 67.3 0.55 69.25 L0.5 69.3 0.4 69.35 0.35 69.35 0.25 69.35 0.2 69.3 Q-3.75 67.45 -7.05 64.4 -12.9 59.05 -16.9 49.85 L-16.9 49.8 -17.9 44.65 -17.85 44.75 -17.75 44.75 -17.8 44.6 Q-19.4 35.25 -18.3 27.6 L-18.35 27.55 -18.35 27.5 -18.3 27.25 -18.3 27.3 Q-13.6 21.3 -6.35 17.45 L-7.3 14.9 Q-13.2 18.75 -18.7 19.25 -22.0 22.95 -27.8 25.45 L-27.7 29.35 -27.65 29.4 -27.65 29.5 Q-30.35 35.3 -40.5 49.3 L-40.5 49.25 -40.5 49.15 -40.55 49.15 -40.65 49.25 -40.7 49.35 -40.6 49.4 -40.5 49.35 -44.45 54.9 -44.5 54.95 -44.6 54.95 -44.65 54.85 -44.7 54.8 -43.35 49.0 Q-39.2 29.85 -37.2 25.3 L-37.15 25.2 Q-30.5 17.85 -27.85 16.2 L-27.75 16.15 -27.7 16.2 -27.65 16.25 -27.6 16.35 -27.65 19.6 Q-24.65 17.6 -20.45 16.15 L-20.25 15.9 -20.25 15.95 Q-15.5 12.0 -9.25 9.85 L-9.6 8.9 Q-17.05 11.45 -23.0 10.3 L-23.05 10.25 -23.5 10.0 Q-28.9 9.0 -34.55 4.35 L-37.25 9.6 -37.25 9.55 -37.35 9.5 -37.35 9.6 Q-42.45 13.5 -58.0 21.0 L-57.95 21.1 -58.05 21.15 -64.2 24.2 -64.25 24.2 -64.35 24.15 -64.35 24.1 -64.35 24.0 -60.35 19.5 Q-47.65 4.6 -43.7 1.5 L-43.65 1.5 Q-34.3 -1.9 -31.15 -2.05 L-31.1 -2.05 -31.05 -2.0 -31.0 -1.95 -31.0 -1.9 -31.0 -1.85 -31.05 -1.8 -32.5 0.65 Q-27.55 2.1 -22.4 6.4 -17.35 4.3 -11.45 3.8 L-12.35 1.35 -12.4 1.35 Q-20.5 -0.95 -24.8 -5.65 L-24.85 -5.7 -25.05 -5.7 -25.1 -5.75 -25.15 -5.8 Q-28.55 -10.6 -28.6 -18.15 L-32.85 -15.05 -56.4 -14.3 -56.4 -14.2 -56.5 -14.15 -63.35 -14.2 -63.45 -14.25 -63.5 -14.35 -63.45 -14.4 -63.4 -14.45 -57.85 -16.8 Q-39.75 -24.2 -34.8 -25.2 L-34.75 -25.2 Q-24.8 -23.9 -22.0 -22.6 L-21.95 -22.55 -21.95 -22.45 -22.05 -22.35 -24.45 -20.75 Q-22.45 -15.85 -22.85 -8.65 -17.7 -7.55 -12.7 -4.7 L-12.25 -7.85 -12.3 -7.9 Q-16.1 -12.6 -17.25 -17.4 L-17.25 -17.45 Q-20.5 -23.55 -18.75 -32.95 -20.45 -38.6 -20.7 -38.8 L-20.75 -38.85 -20.75 -38.9 Q-20.05 -45.3 -14.55 -61.8 L-12.45 -68.35 -12.4 -68.45 -12.3 -68.45 -12.25 -68.45 -12.2 -68.35 -11.65 -62.35 Q-9.9 -42.9 -10.4 -37.85 L-10.4 -37.8 Q-12.7 -32.75 -14.35 -29.75 -13.65 -25.45 -14.5 -19.85 L-14.3 -19.7 -14.25 -19.7 -10.95 -16.1 -10.95 -16.3 -11.0 -16.35 -11.0 -16.4 -11.0 -16.45 Q-11.15 -29.65 -1.9 -34.75 L-1.85 -34.75 -1.8 -34.75 -1.75 -34.75 -1.75 -34.7 -1.7 -34.65 -1.7 -34.6 -1.3 -29.65 -1.3 -29.6 -1.4 -29.55 -1.5 -29.55 Q-5.95 -24.05 -5.7 -17.8 L-5.6 -17.7 -4.75 -16.7 -0.4 -19.95 -0.35 -20.0 -0.25 -19.95 4.25 -16.75 4.95 -17.8 Q5.05 -23.95 0.6 -29.55 L0.55 -29.65 0.95 -34.7 1.0 -34.8 1.05 -34.8 1.1 -34.8 1.15 -34.75 Q9.85 -30.05 10.4 -17.9 L12.35 -20.0 12.4 -20.05 12.65 -20.2 Q11.6 -25.75 12.25 -30.15 10.5 -33.05 8.1 -37.95 L8.05 -38.0 Q7.5 -43.05 8.9 -62.55 L9.35 -68.5 9.35 -68.6 9.45 -68.65 9.55 -68.6" fill="url(#gradient41)" fill-rule="evenodd" stroke="none"/>
  </g>
  <defs>
    <linearGradient gradientTransform="matrix(0.0016, 1.0E-4, -1.0E-4, 0.0039, 10.4, -65.3)" gradientUnits="userSpaceOnUse" id="gradient0" spreadMethod="pad" x1="-819.2" x2="819.2">
      <stop offset="0.0" stop-color="#cccccc"/>
      <stop offset="1.0" stop-color="#666666"/>
    </linearGradient>
    <radialGradient cx="0" cy="0" gradientTransform="matrix(0.0085, 0.0011, -0.0032, 0.0246, 7.25, -45.4)" gradientUnits="userSpaceOnUse" id="gradient1" r="819.2" spreadMethod="pad">
      <stop offset="0.26666666666666666" stop-color="#9d4e31"/>
      <stop offset="1.0" stop-color="#6a3921"/>
    </radialGradient>
    <radialGradient cx="0" cy="0" gradientTransform="matrix(0.0029, 1.0E-4, -4.0E-4, 0.0099, 14.6, -25.4)" gradientUnits="userSpaceOnUse" id="gradient2" r="819.2" spreadMethod="pad">
      <stop offset="0.0" stop-color="#efeead"/>
      <stop offset="1.0" stop-color="#dbdb42"/>
    </radialGradient>
    <radialGradient cx="0" cy="0" gradientTransform="matrix(0.0065, -0.0019, 0.0035, 0.0121, 3.95, -28.1)" gradientUnits="userSpaceOnUse" id="gradient3" r="819.2" spreadMethod="pad">
      <stop offset="0.0" stop-color="#cccccc"/>
      <stop offset="0.7607843137254902" stop-color="#7e7e7e"/>
      <stop offset="1.0" stop-color="#4b4b4b"/>
    </radialGradient>
    <radialGradient cx="0" cy="0" gradientTransform="matrix(0.0183, 7.0E-4, -7.0E-4, 0.0183, -0.8, -10.65)" gradientUnits="userSpaceOnUse" id="gradient4" r="819.2" spreadMethod="pad">
      <stop offset="0.0" stop-color="#643220"/>
      <stop offset="0.4117647058823529" stop-color="#b46338"/>
      <stop offset="1.0" stop-color="#61351f"/>
    </radialGradient>
    <linearGradient gradientTransform="matrix(-2.0E-4, 0.0023, -0.0016, -1.0E-4, 3.3, -11.85)" gradientUnits="userSpaceOnUse" id="gradient5" spreadMethod="pad" x1="-819.2" x2="819.2">
      <stop offset="0.0" stop-color="#fef8e7"/>
      <stop offset="1.0" stop-color="#5c2e1d"/>
    </linearGradient>
    <radialGradient cx="0" cy="0" gradientTransform="matrix(0.0165, 6.0E-4, -6.0E-4, 0.0165, 0.7, -1.45)" gradientUnits="userSpaceOnUse" id="gradient6" r="819.2" spreadMethod="pad">
      <stop offset="0.0" stop-color="#f2f2bb"/>
      <stop offset="0.7529411764705882" stop-color="#d2da36"/>
      <stop offset="1.0" stop-color="#a7a721"/>
    </radialGradient>
    <radialGradient cx="0" cy="0" gradientTransform="matrix(0.0212, 0.0081, -0.0031, 0.0082, 34.4, -22.9)" gradientUnits="userSpaceOnUse" id="gradient7" r="819.2" spreadMethod="pad">
      <stop offset="0.07058823529411765" stop-color="#9d4e31"/>
      <stop offset="1.0" stop-color="#6a3921"/>
    </radialGradient>
    <radialGradient cx="0" cy="0" gradientTransform="matrix(0.0031, 1.0E-4, -4.0E-4, 0.0099, 22.95, -13.55)" gradientUnits="userSpaceOnUse" id="gradient8" r="819.2" spreadMethod="pad">
      <stop offset="0.0" stop-color="#efeead"/>
      <stop offset="1.0" stop-color="#dbdb42"/>
    </radialGradient>
    <linearGradient gradientTransform="matrix(0.0042, 2.0E-4, -1.0E-4, 0.0014, 58.05, -16.65)" gradientUnits="userSpaceOnUse" id="gradient9" spreadMethod="pad" x1="-819.2" x2="819.2">
      <stop offset="0.0" stop-color="#cccccc"/>
      <stop offset="1.0" stop-color="#666666"/>
    </linearGradient>
    <linearGradient gradientTransform="matrix(0.0038, 1.0E-4, -1.0E-4, 0.0027, 60.1, 20.45)" gradientUnits="userSpaceOnUse" id="gradient10" spreadMethod="pad" x1="-819.2" x2="819.2">
      <stop offset="0.0" stop-color="#cccccc"/>
      <stop offset="1.0" stop-color="#666666"/>
    </linearGradient>
    <linearGradient gradientTransform="matrix(0.0026, 1.0E-4, -1.0E-4, 0.0035, 42.3, 50.95)" gradientUnits="userSpaceOnUse" id="gradient11" spreadMethod="pad" x1="-819.2" x2="819.2">
      <stop offset="0.0" stop-color="#cccccc"/>
      <stop offset="1.0" stop-color="#666666"/>
    </linearGradient>
    <radialGradient cx="0" cy="0" gradientTransform="matrix(0.0256, 0.0107, -0.0059, 0.0141, 42.9, 4.7)" gradientUnits="userSpaceOnUse" id="gradient12" r="819.2" spreadMethod="pad">
      <stop offset="0.07058823529411765" stop-color="#9d4e31"/>
      <stop offset="1.0" stop-color="#6a3921"/>
    </radialGradient>
    <radialGradient cx="0" cy="0" gradientTransform="matrix(0.0017, 0.0025, -0.0082, 0.0055, 25.05, 4.25)" gradientUnits="userSpaceOnUse" id="gradient13" r="819.2" spreadMethod="pad">
      <stop offset="0.0" stop-color="#efeead"/>
      <stop offset="1.0" stop-color="#dbdb42"/>
    </radialGradient>
    <radialGradient cx="0" cy="0" gradientTransform="matrix(0.0107, 4.0E-4, -2.0E-4, 0.0051, 18.85, 5.6)" gradientUnits="userSpaceOnUse" id="gradient14" r="819.2" spreadMethod="pad">
      <stop offset="0.07058823529411765" stop-color="#9d4e31"/>
      <stop offset="1.0" stop-color="#5c2e1d"/>
    </radialGradient>
    <radialGradient cx="0" cy="0" gradientTransform="matrix(0.0181, 0.0094, -0.0063, 0.0122, 31.75, 22.8)" gradientUnits="userSpaceOnUse" id="gradient15" r="819.2" spreadMethod="pad">
      <stop offset="0.07058823529411765" stop-color="#9d4e31"/>
      <stop offset="1.0" stop-color="#6a3921"/>
    </radialGradient>
    <radialGradient cx="0" cy="0" gradientTransform="matrix(0.0017, -0.0028, 0.0075, 0.0045, 22.6, 19.2)" gradientUnits="userSpaceOnUse" id="gradient16" r="819.2" spreadMethod="pad">
      <stop offset="0.0" stop-color="#efeead"/>
      <stop offset="1.0" stop-color="#dbdb42"/>
    </radialGradient>
    <radialGradient cx="0" cy="0" gradientTransform="matrix(0.0071, -3.0E-4, 7.0E-4, 0.0197, -0.3, 2.95)" gradientUnits="userSpaceOnUse" id="gradient17" r="819.2" spreadMethod="pad">
      <stop offset="0.0" stop-color="#c57245"/>
      <stop offset="0.7529411764705882" stop-color="#7d4a26"/>
      <stop offset="1.0" stop-color="#57301c"/>
    </radialGradient>
    <radialGradient cx="0" cy="0" gradientTransform="matrix(0.0089, 0.0027, -0.0011, 0.0038, 15.8, 14.0)" gradientUnits="userSpaceOnUse" id="gradient18" r="819.2" spreadMethod="pad">
      <stop offset="0.07058823529411765" stop-color="#9d4e31"/>
      <stop offset="1.0" stop-color="#5c2e1d"/>
    </radialGradient>
    <radialGradient cx="0" cy="0" gradientTransform="matrix(0.021, 8.0E-4, -0.001, 0.0278, -0.4, 34.55)" gradientUnits="userSpaceOnUse" id="gradient19" r="819.2" spreadMethod="pad">
      <stop offset="0.0" stop-color="#c57245"/>
      <stop offset="0.7529411764705882" stop-color="#7d4a26"/>
      <stop offset="1.0" stop-color="#57301c"/>
    </radialGradient>
    <radialGradient cx="0" cy="0" gradientTransform="matrix(0.0212, 8.0E-4, -9.0E-4, 0.0248, -0.25, 40.8)" gradientUnits="userSpaceOnUse" id="gradient20" r="819.2" spreadMethod="pad">
      <stop offset="0.0" stop-color="#f2f2bb"/>
      <stop offset="0.7529411764705882" stop-color="#d2da36"/>
      <stop offset="1.0" stop-color="#a7a721"/>
    </radialGradient>
    <radialGradient cx="0" cy="0" gradientTransform="matrix(0.0188, 7.0E-4, -9.0E-4, 0.0251, 0.45, 44.4)" gradientUnits="userSpaceOnUse" id="gradient21" r="819.2" spreadMethod="pad">
      <stop offset="0.0" stop-color="#c57245"/>
      <stop offset="0.7529411764705882" stop-color="#7d4a26"/>
      <stop offset="1.0" stop-color="#57301c"/>
    </radialGradient>
    <linearGradient gradientTransform="matrix(0.0016, 1.0E-4, -2.0E-4, 0.0041, -13.0, -65.05)" gradientUnits="userSpaceOnUse" id="gradient22" spreadMethod="pad" x1="-819.2" x2="819.2">
      <stop offset="0.0" stop-color="#cccccc"/>
      <stop offset="1.0" stop-color="#666666"/>
    </linearGradient>
    <radialGradient cx="0" cy="0" gradientTransform="matrix(0.0078, -4.0E-4, 0.0015, 0.0274, -11.15, -44.05)" gradientUnits="userSpaceOnUse" id="gradient23" r="819.2" spreadMethod="pad">
      <stop offset="0.26666666666666666" stop-color="#9d4e31"/>
      <stop offset="1.0" stop-color="#6a3921"/>
    </radialGradient>
    <linearGradient gradientTransform="matrix(0.0042, 2.0E-4, -1.0E-4, 0.0015, -59.9, -15.45)" gradientUnits="userSpaceOnUse" id="gradient24" spreadMethod="pad" x1="-819.2" x2="819.2">
      <stop offset="0.0" stop-color="#cccccc"/>
      <stop offset="1.0" stop-color="#666666"/>
    </linearGradient>
    <radialGradient cx="0" cy="0" gradientTransform="matrix(0.0214, -0.0056, 0.0019, 0.0074, -34.45, -22.65)" gradientUnits="userSpaceOnUse" id="gradient25" r="819.2" spreadMethod="pad">
      <stop offset="0.07058823529411765" stop-color="#9d4e31"/>
      <stop offset="1.0" stop-color="#6a3921"/>
    </radialGradient>
    <radialGradient cx="0" cy="0" gradientTransform="matrix(0.0036, 1.0E-4, -4.0E-4, 0.0099, -16.75, -25.1)" gradientUnits="userSpaceOnUse" id="gradient26" r="819.2" spreadMethod="pad">
      <stop offset="0.0" stop-color="#efeead"/>
      <stop offset="1.0" stop-color="#dbdb42"/>
    </radialGradient>
    <radialGradient cx="0" cy="0" gradientTransform="matrix(0.0056, 0.0017, -0.0036, 0.0119, -4.2, -27.8)" gradientUnits="userSpaceOnUse" id="gradient27" r="819.2" spreadMethod="pad">
      <stop offset="0.0" stop-color="#cccccc"/>
      <stop offset="0.7607843137254902" stop-color="#7e7e7e"/>
      <stop offset="1.0" stop-color="#4b4b4b"/>
    </radialGradient>
    <radialGradient cx="0" cy="0" gradientTransform="matrix(0.0045, 2.0E-4, -3.0E-4, 0.0093, -24.1, -13.0)" gradientUnits="userSpaceOnUse" id="gradient28" r="819.2" spreadMethod="pad">
      <stop offset="0.0" stop-color="#efeead"/>
      <stop offset="1.0" stop-color="#dbdb42"/>
    </radialGradient>
    <linearGradient gradientTransform="matrix(2.0E-4, 0.0023, -0.0017, 2.0E-4, -4.15, -12.1)" gradientUnits="userSpaceOnUse" id="gradient29" spreadMethod="pad" x1="-819.2" x2="819.2">
      <stop offset="0.0" stop-color="#fef8e7"/>
      <stop offset="1.0" stop-color="#5c2e1d"/>
    </linearGradient>
    <radialGradient cx="0" cy="0" gradientTransform="matrix(-8.0E-4, -0.0022, 0.0082, -0.0029, -23.65, 18.7)" gradientUnits="userSpaceOnUse" id="gradient30" r="819.2" spreadMethod="pad">
      <stop offset="0.0" stop-color="#efeead"/>
      <stop offset="1.0" stop-color="#dbdb42"/>
    </radialGradient>
    <radialGradient cx="0" cy="0" gradientTransform="matrix(0.0078, -0.0034, 0.0017, 0.004, -13.45, 13.15)" gradientUnits="userSpaceOnUse" id="gradient31" r="819.2" spreadMethod="pad">
      <stop offset="0.07058823529411765" stop-color="#9d4e31"/>
      <stop offset="1.0" stop-color="#5c2e1d"/>
    </radialGradient>
    <radialGradient cx="0" cy="0" gradientTransform="matrix(0.0122, 4.0E-4, -2.0E-4, 0.0059, -17.7, 5.8)" gradientUnits="userSpaceOnUse" id="gradient32" r="819.2" spreadMethod="pad">
      <stop offset="0.07058823529411765" stop-color="#9d4e31"/>
      <stop offset="1.0" stop-color="#5c2e1d"/>
    </radialGradient>
    <radialGradient cx="0" cy="0" gradientTransform="matrix(0.0018, -0.0025, 0.008, 0.0057, -26.75, 5.2)" gradientUnits="userSpaceOnUse" id="gradient33" r="819.2" spreadMethod="pad">
      <stop offset="0.0" stop-color="#efeead"/>
      <stop offset="1.0" stop-color="#dbdb42"/>
    </radialGradient>
    <radialGradient cx="0" cy="0" gradientTransform="matrix(0.0184, -0.0093, 0.0048, 0.0094, -40.4, 2.9)" gradientUnits="userSpaceOnUse" id="gradient34" r="819.2" spreadMethod="pad">
      <stop offset="0.07058823529411765" stop-color="#9d4e31"/>
      <stop offset="1.0" stop-color="#6a3921"/>
    </radialGradient>
    <radialGradient cx="0" cy="0" gradientTransform="matrix(0.0067, 0.0074, -0.0192, 0.0175, -32.4, 23.75)" gradientUnits="userSpaceOnUse" id="gradient35" r="819.2" spreadMethod="pad">
      <stop offset="0.07058823529411765" stop-color="#9d4e31"/>
      <stop offset="1.0" stop-color="#6a3921"/>
    </radialGradient>
    <linearGradient gradientTransform="matrix(0.0037, 1.0E-4, -1.0E-4, 0.0029, -61.15, 21.85)" gradientUnits="userSpaceOnUse" id="gradient36" spreadMethod="pad" x1="-819.2" x2="819.2">
      <stop offset="0.0" stop-color="#cccccc"/>
      <stop offset="1.0" stop-color="#666666"/>
    </linearGradient>
    <linearGradient gradientTransform="matrix(0.0023, 1.0E-4, -1.0E-4, 0.0036, -42.65, 51.9)" gradientUnits="userSpaceOnUse" id="gradient37" spreadMethod="pad" x1="-819.2" x2="819.2">
      <stop offset="0.0" stop-color="#cccccc"/>
      <stop offset="1.0" stop-color="#666666"/>
    </linearGradient>
    <radialGradient cx="0" cy="0" gradientTransform="matrix(0.0123, -0.0035, 0.0013, 0.0046, 17.3, -6.75)" gradientUnits="userSpaceOnUse" id="gradient38" r="819.2" spreadMethod="pad">
      <stop offset="0.07058823529411765" stop-color="#9d4e31"/>
      <stop offset="1.0" stop-color="#5c2e1d"/>
    </radialGradient>
    <radialGradient cx="0" cy="0" gradientTransform="matrix(0.0332, 0.0012, -5.0E-4, 0.0138, -0.75, -8.9)" gradientUnits="userSpaceOnUse" id="gradient39" r="819.2" spreadMethod="pad">
      <stop offset="0.0" stop-color="#643220"/>
      <stop offset="0.4117647058823529" stop-color="#b46338"/>
      <stop offset="1.0" stop-color="#61351f"/>
    </radialGradient>
    <radialGradient cx="0" cy="0" gradientTransform="matrix(0.0131, 0.0035, -0.0017, 0.0064, -16.6, -6.35)" gradientUnits="userSpaceOnUse" id="gradient40" r="819.2" spreadMethod="pad">
      <stop offset="0.07058823529411765" stop-color="#9d4e31"/>
      <stop offset="1.0" stop-color="#5c2e1d"/>
    </radialGradient>
    <radialGradient cx="0" cy="0" gradientTransform="matrix(0.075, 0.0048, -0.0058, 0.0919, 0.05, -0.65)" gradientUnits="userSpaceOnUse" id="gradient41" r="819.2" spreadMethod="pad">
      <stop offset="0.5803921568627451" stop-color="#000000" stop-opacity="0.0"/>
      <stop offset="1.0" stop-color="#000000" stop-opacity="0.2509804"/>
    </radialGradient>
  </defs>
</svg>
