<?xml version="1.0" encoding="UTF-8" standalone="no"?>
<svg xmlns:xlink="http://www.w3.org/1999/xlink" height="422.2px" width="538.1px" xmlns="http://www.w3.org/2000/svg">
  <g transform="matrix(1.0, 0.0, 0.0, 1.0, 261.1, 219.0)">
    <path d="M89.35 -124.35 Q81.4 -131.0 79.9 -137.65 77.15 -149.65 72.0 -155.2 64.2 -163.6 46.05 -164.25 L-103.95 -163.7 Q-133.75 -163.55 -194.85 -162.4 -204.85 -162.15 -214.1 -155.35 -218.8 -151.9 -221.35 -148.45 -224.7 -139.7 -225.85 -124.1 -226.45 -98.5 -226.1 -86.35 -225.1 -65.4 -225.0 -54.0 -224.9 -44.8 -211.8 -36.35 -200.4 -31.85 -194.25 -29.0 -183.2 -23.95 -179.2 -18.7 -173.15 -10.75 -171.0 -7.1 -164.95 3.15 -163.35 13.7 -162.0 22.7 -167.45 35.55 -171.8 45.9 -178.65 55.1 -185.2 63.85 -189.75 67.85 -199.35 76.3 -212.55 79.65 -218.5 81.15 -222.2 94.3 -225.5 105.85 -226.25 123.3 -226.95 139.8 -225.1 153.95 -223.2 168.8 -219.4 173.65 -215.9 178.15 -203.5 178.45 L-189.2 177.9 Q-73.2 179.65 -31.1 179.5 37.75 179.25 47.9 172.55 57.5 166.25 62.2 152.7 66.15 141.3 67.75 120.7 L70.25 86.1 Q70.7 78.0 76.4 64.3 82.3 50.2 87.15 46.5 93.7 41.55 104.9 38.6 110.55 37.15 114.85 36.65 171.25 35.9 222.15 34.75 230.35 34.55 237.8 29.45 246.9 23.1 249.85 11.8 251.8 4.3 249.45 -96.6 248.0 -103.45 243.1 -108.75 236.15 -116.3 224.4 -117.5 217.8 -118.15 160.35 -118.45 108.85 -118.7 99.8 -118.55 96.4 -118.5 89.35 -124.35 M34.5 -65.6 Q149.2 -63.8 172.0 -63.0 186.45 -62.5 189.2 -44.15 190.1 -38.05 189.55 -31.05 189.05 -25.45 188.35 -24.0 187.45 -22.1 183.3 -18.8 179.3 -15.6 177.4 -15.0 L148.0 -13.85 106.6 -12.35 Q69.15 -8.6 45.1 4.65 37.15 9.0 31.05 14.25 27.8 17.05 24.8 20.2 6.75 37.4 -7.1 70.5 -14.15 87.35 -18.7 103.25 -20.15 106.5 -24.9 110.95 -29.9 115.6 -32.85 115.95 -35.85 116.3 -66.65 115.85 -96.25 115.4 -118.85 114.75 -124.4 114.6 -134.45 110.15 -136.05 109.25 -139.55 103.0 -142.85 97.1 -143.25 95.15 -144.3 89.8 -142.45 80.5 -140.65 71.3 -137.65 66.45 -125.4 46.55 -117.0 23.05 -112.75 11.25 -110.95 3.0 -110.7 -4.85 -115.45 -15.45 -120.7 -27.1 -128.45 -33.0 -142.75 -43.7 -153.65 -57.0 -163.15 -68.6 -165.8 -76.65 -168.05 -83.65 -168.25 -93.5 -168.7 -109.0 -161.85 -115.7 -158.95 -118.55 -151.9 -120.9 -144.8 -123.25 -136.2 -124.2 -90.05 -126.55 -62.6 -124.2 -41.75 -122.4 -30.5 -119.5 -19.5 -116.7 -12.4 -111.4 -5.25 -106.1 -2.85 -102.55 -0.3 -98.9 1.25 -91.35 3.35 -81.05 16.45 -72.9 26.85 -66.45 34.5 -65.6 M277.0 -219.0 L277.0 203.2 -261.1 203.2 -261.1 -219.0 277.0 -219.0" fill="#000000" fill-rule="evenodd" stroke="none"/>
    <path d="M-124.4 -23.2 L-124.15 -22.85 -124.4 -23.15 -124.4 -23.2" fill="#000000" fill-opacity="0.7529412" fill-rule="evenodd" stroke="none"/>
  </g>
</svg>
