<?xml version="1.0" encoding="UTF-8" standalone="no"?>
<svg xmlns:xlink="http://www.w3.org/1999/xlink" height="426.45px" width="555.15px" xmlns="http://www.w3.org/2000/svg">
  <g transform="matrix(1.0, 0.0, 0.0, 1.0, 280.75, 216.25)">
    <path d="M-167.9 -50.5 Q-169.35 -60.45 -169.0 -69.35 -167.9 -95.6 -152.1 -98.7 -139.6 -101.15 -125.35 -92.4 -115.9 -86.6 -110.9 -80.3 -88.7 -56.6 -36.1 1.95 -68.95 63.85 -93.0 99.8 -114.3 131.7 -122.05 133.7 -136.45 137.45 -147.0 132.1 -151.7 129.85 -153.35 127.0 -157.3 120.25 -151.65 107.9 -149.1 102.4 -115.45 58.8 -84.05 18.15 -76.05 8.9 -81.1 0.8 -98.95 -5.0 -109.7 -8.5 -129.45 -12.1 -136.05 -13.35 -147.75 -21.2 -161.75 -30.6 -165.65 -39.9 -166.75 -42.6 -167.9 -50.5 M274.4 -216.25 L274.4 210.2 -280.75 210.2 -280.75 -216.25 274.4 -216.25 M147.6 -180.1 L85.7 -178.15 Q77.65 -177.5 66.6 -170.5 54.9 -163.2 50.05 -155.1 46.35 -149.05 33.25 -129.1 22.65 -112.95 17.15 -102.85 L-5.85 -63.75 Q-81.7 -154.35 -85.85 -158.7 -90.05 -163.05 -97.15 -167.1 -104.0 -170.95 -109.6 -172.45 -111.25 -173.2 -174.1 -173.75 -185.15 -173.85 -213.7 -172.6 L-241.2 -171.05 Q-240.8 -71.35 -240.85 -3.1 -240.8 -2.6 -238.45 0.85 -236.0 4.4 -234.75 5.55 -226.8 13.0 -215.85 12.9 -210.85 12.85 -193.75 15.9 -176.35 19.0 -166.45 21.75 L-163.15 24.1 -159.6 26.5 Q-154.8 31.9 -154.95 41.05 -155.0 49.6 -158.9 56.7 -239.85 158.1 -242.4 161.7 -245.4 165.85 -242.2 172.65 -238.85 179.9 -231.6 180.05 -114.45 181.05 -60.05 179.05 -49.35 178.65 15.55 62.7 36.6 83.6 59.8 104.5 107.1 147.2 127.4 156.45 129.45 157.8 143.35 163.05 157.6 168.45 159.5 168.5 172.95 169.1 197.0 169.45 215.55 169.7 223.3 169.3 234.7 168.8 238.8 166.7 241.75 165.2 237.75 50.55 237.9 46.35 230.8 34.6 224.85 24.85 222.55 22.35 L195.55 -9.2 175.3 -32.25 Q167.95 -40.4 167.75 -41.2 163.25 -59.8 169.4 -74.7 175.8 -90.2 190.35 -92.7 211.55 -96.25 222.65 -100.25 226.1 -101.5 232.5 -107.95 240.5 -116.0 240.05 -122.15 L240.35 -132.15 Q240.6 -143.0 239.85 -151.5 237.55 -178.8 226.0 -179.05 168.05 -180.1 147.6 -180.1 M114.6 -123.1 L114.8 -123.1 Q121.65 -124.45 128.1 -124.55 L139.75 -124.2 158.2 -123.8 Q162.55 -123.5 161.95 -119.4 161.5 -116.2 157.75 -111.8 153.05 -106.25 147.35 -105.85 128.65 -104.45 113.9 -90.85 111.7 -88.8 108.95 -85.4 L104.55 -79.95 Q99.7 -74.35 99.7 -53.7 99.65 -43.25 116.0 -21.9 123.25 -12.45 142.0 8.5 149.5 16.85 153.45 22.45 159.3 30.9 165.05 43.4 167.9 49.6 169.2 72.45 170.25 91.0 169.8 104.05 169.6 109.8 166.9 112.15 L163.95 113.55 Q155.15 118.2 99.95 59.25 84.2 42.4 62.4 17.85 45.1 -1.65 44.6 -1.95 62.65 -43.9 89.95 -87.1 103.7 -108.9 114.6 -123.1" fill="#000000" fill-rule="evenodd" stroke="none"/>
  </g>
</svg>
