<?xml version="1.0" encoding="UTF-8" standalone="no"?>
<svg xmlns:xlink="http://www.w3.org/1999/xlink" height="143.15px" width="131.15px" xmlns="http://www.w3.org/2000/svg">
  <g transform="matrix(1.0, 0.0, 0.0, 1.0, 65.55, 71.6)">
    <path d="M8.2 -71.5 L10.25 -64.85 10.25 -64.8 Q15.3 -48.3 16.4 -41.85 L16.4 -41.9 16.25 -41.9 16.25 -41.75 Q16.1 -41.5 15.5 -35.05 L15.55 -35.05 15.6 -34.95 Q17.25 -25.7 15.1 -19.4 L15.05 -19.45 15.05 -19.55 14.95 -19.55 14.95 -19.5 15.0 -19.45 15.05 -19.3 Q13.15 -13.85 8.55 -7.8 L8.45 -7.7 Q9.0 -5.65 10.05 -3.85 L10.1 -3.85 10.1 -3.95 10.15 -4.0 Q16.0 -7.7 22.0 -9.75 21.4 -17.55 22.95 -23.1 L19.9 -24.35 19.8 -24.45 19.8 -24.55 19.9 -24.6 19.95 -24.6 Q22.65 -25.45 32.55 -26.1 L32.6 -26.1 Q37.6 -25.4 56.65 -20.25 L56.7 -20.2 62.5 -18.75 62.55 -18.7 62.6 -18.6 62.55 -18.5 62.45 -18.45 55.5 -18.45 31.65 -19.3 31.55 -19.35 Q31.35 -19.6 26.4 -21.65 26.6 -13.45 23.9 -8.05 L23.85 -8.0 23.85 -7.95 23.8 -7.9 23.75 -7.9 23.7 -7.85 23.65 -7.8 Q19.1 -3.65 11.45 -0.55 L11.4 -0.55 Q12.2 1.7 12.65 4.05 L12.75 4.05 Q17.3 4.55 21.5 5.85 27.05 0.85 32.2 -1.3 L30.25 -3.6 30.25 -3.65 30.2 -3.75 30.25 -3.8 30.35 -3.85 Q33.1 -3.3 42.25 0.55 L42.3 0.6 Q46.45 3.55 61.0 16.7 L61.0 16.75 65.55 20.8 65.6 20.9 65.6 20.95 65.55 21.0 65.45 21.0 59.25 17.75 59.2 17.75 Q43.75 9.9 38.4 6.25 L38.35 6.15 34.4 1.35 Q28.7 6.25 23.4 8.0 L23.2 8.6 23.15 8.65 23.05 8.65 22.85 8.75 13.2 8.35 13.25 12.3 13.3 12.3 Q15.9 13.5 18.35 14.95 L18.85 14.85 18.9 14.85 Q24.25 16.5 28.25 18.75 L27.5 15.25 27.5 15.2 27.5 15.15 27.55 15.1 27.6 15.1 27.65 15.1 27.7 15.1 Q29.85 16.9 36.15 24.6 L36.15 24.65 Q38.4 29.15 45.0 47.75 L47.05 53.4 47.05 53.5 47.0 53.55 46.9 53.6 46.85 53.55 46.8 53.5 42.95 47.75 43.0 47.8 43.1 47.8 43.0 47.7 Q33.1 33.4 30.1 27.65 L29.5 23.8 29.4 23.8 29.3 23.8 Q23.3 21.5 19.6 18.25 L19.55 18.25 19.45 18.3 19.25 18.3 Q15.45 17.7 11.3 15.95 L8.45 18.1 Q14.95 21.5 19.65 26.8 L19.65 26.85 19.65 27.05 Q21.3 35.1 20.15 45.25 L19.4 50.25 19.4 50.3 Q15.7 60.1 10.0 66.0 6.75 69.3 2.9 71.5 L2.85 71.5 2.75 71.55 2.7 71.55 2.6 71.55 2.55 71.55 Q-1.65 69.7 -5.15 66.65 -11.4 61.3 -15.9 51.85 L-15.9 51.8 -17.15 46.45 Q-19.2 36.7 -18.2 28.6 L-18.2 28.5 -18.2 28.45 Q-14.0 22.65 -7.55 18.65 L-10.85 16.6 -10.9 16.65 -11.0 16.65 Q-15.25 19.05 -19.1 20.0 L-19.35 20.0 -19.45 19.95 Q-22.9 23.55 -28.65 26.3 L-28.75 26.35 -28.85 26.35 -29.15 30.25 Q-31.6 36.25 -40.25 51.35 L-40.3 51.45 -40.2 51.45 -40.1 51.4 -43.5 57.45 -43.55 57.5 -43.6 57.55 -43.7 57.55 -43.75 57.5 -43.75 57.4 -42.15 51.55 -42.15 51.5 Q-37.3 32.45 -35.4 27.75 L-35.35 27.7 Q-29.85 19.55 -27.85 17.55 L-27.8 17.55 -27.75 17.5 -27.7 17.5 -27.65 17.55 -27.6 17.6 -27.6 17.65 -28.05 21.25 Q-24.3 18.65 -19.05 16.5 L-19.0 16.5 -18.55 16.55 -12.95 13.05 -12.9 13.0 -13.15 9.25 Q-18.85 10.85 -23.5 10.75 L-23.75 10.7 -23.8 10.7 -23.85 10.65 -24.15 10.1 Q-29.65 8.8 -35.75 4.4 L-39.2 9.6 -39.25 9.65 Q-44.3 13.75 -58.95 22.9 L-58.95 22.95 -64.85 26.7 -64.95 26.75 -65.05 26.7 -65.05 26.6 -65.0 26.5 -60.9 22.15 -60.9 22.1 Q-47.55 7.65 -43.65 4.35 L-43.6 4.35 Q-34.85 -0.3 -32.1 -1.1 L-31.95 -1.05 -31.9 -1.0 -31.95 -0.9 -31.95 -0.85 -33.75 1.6 Q-28.45 3.3 -22.45 7.75 -18.0 6.0 -13.0 5.05 L-12.95 5.05 -12.15 0.55 -12.45 0.65 -12.55 0.65 Q-20.8 -1.75 -25.75 -5.6 L-25.8 -5.6 -25.95 -5.75 -26.1 -5.8 -26.1 -5.85 Q-29.3 -11.0 -29.8 -19.2 L-34.75 -16.45 -34.8 -16.4 Q-41.2 -15.0 -58.5 -13.45 L-65.4 -12.85 -65.5 -12.9 -65.55 -12.95 -65.5 -13.05 -65.45 -13.1 -59.8 -15.1 -59.8 -15.15 Q-41.35 -21.95 -36.3 -23.1 L-23.6 -22.7 -23.5 -22.7 -23.45 -22.65 -23.45 -22.55 -23.5 -22.45 -26.45 -20.95 Q-24.5 -15.55 -24.4 -7.75 L-24.35 -7.7 -24.25 -7.65 -24.25 -7.55 -17.75 -5.45 -17.3 -5.3 -13.5 -3.65 -12.9 -3.35 -11.3 -2.55 -11.25 -2.55 Q-10.35 -4.4 -9.9 -6.5 L-10.4 -6.5 -10.5 -6.55 Q-16.25 -12.8 -18.6 -18.65 L-18.6 -18.75 -18.65 -18.8 Q-20.95 -24.55 -20.15 -33.15 L-20.15 -33.25 -21.6 -40.05 -21.6 -40.15 Q-21.15 -46.6 -17.5 -63.6 L-16.05 -70.4 -16.0 -70.5 -15.9 -70.5 -15.85 -70.45 -15.8 -70.4 -15.55 -64.35 Q-14.5 -44.85 -14.75 -39.7 L-14.75 -39.65 -14.75 -39.6 -16.8 -32.95 Q-15.5 -27.4 -16.3 -19.8 -12.6 -16.15 -9.45 -11.5 -9.5 -15.65 -10.85 -20.55 L-10.9 -20.7 -11.0 -20.8 -11.05 -20.9 Q-8.6 -29.65 -2.6 -31.55 L-2.55 -31.55 -2.5 -31.55 -2.4 -31.45 -2.45 -31.35 Q-6.95 -25.45 -6.45 -18.85 L-6.45 -18.75 -6.5 -18.7 -5.55 -17.65 -1.25 -20.45 3.25 -18.05 4.15 -19.2 4.1 -19.2 4.1 -19.3 Q3.9 -25.9 -1.05 -31.4 L-1.05 -31.5 -1.05 -31.55 -1.0 -31.6 -0.95 -31.65 -0.9 -31.65 Q5.15 -30.25 8.4 -21.75 L8.4 -21.65 8.35 -21.55 8.2 -21.35 Q7.45 -17.15 7.6 -13.55 10.0 -17.7 12.9 -21.1 L12.95 -21.15 12.95 -21.1 12.95 -21.0 13.05 -21.1 Q11.6 -28.6 12.45 -34.15 L9.8 -40.6 9.7 -40.6 9.65 -40.65 Q8.85 -45.7 8.2 -65.4 L7.95 -71.45 8.0 -71.5 8.05 -71.55 8.15 -71.55 8.2 -71.5" fill="#000000" fill-opacity="0.21176471" fill-rule="evenodd" stroke="none"/>
  </g>
</svg>
