<?xml version="1.0" encoding="UTF-8" standalone="no"?>
<svg xmlns:xlink="http://www.w3.org/1999/xlink" height="137.6px" width="126.1px" xmlns="http://www.w3.org/2000/svg">
  <g transform="matrix(1.0, 0.0, 0.0, 1.0, 61.6, 69.05)">
    <path d="M9.45 -63.1 L9.2 -68.95 11.15 -62.5 9.5 -63.0 9.45 -63.1 M55.7 -19.55 L55.8 -19.55 61.45 -18.1 54.75 -18.15 55.7 -19.55 M59.9 15.95 L60.0 15.95 64.35 19.85 58.4 16.75 59.9 15.95 M44.5 45.55 L44.5 45.65 46.55 51.1 42.75 45.6 44.5 45.55 M-37.25 49.1 L-40.5 54.95 -38.95 49.35 -38.95 49.25 -37.25 49.1 M-55.35 21.75 L-61.0 25.35 -57.0 21.1 -56.95 21.05 -55.35 21.75 M-54.8 -13.35 L-61.45 -12.7 -56.0 -14.65 -55.9 -14.65 -54.8 -13.35 M-15.25 -61.35 L-13.85 -67.9 -13.6 -62.1 -13.65 -62.0 -15.25 -61.35" fill="#d5d0ce" fill-rule="evenodd" stroke="none"/>
    <path d="M9.5 -63.0 L11.15 -62.5 Q16.05 -46.55 17.1 -40.4 16.9 -40.15 16.3 -33.8 L15.75 -28.15 Q14.9 -29.5 13.35 -33.05 L10.8 -39.35 Q10.1 -44.2 9.5 -63.0" fill="url(#gradient0)" fill-rule="evenodd" stroke="none"/>
    <path d="M16.3 -33.8 Q17.9 -24.9 15.75 -18.9 L15.7 -18.9 Q14.85 -18.4 14.2 -19.35 L13.95 -20.5 Q12.55 -27.7 13.35 -33.05 14.9 -29.5 15.75 -28.15 L16.3 -33.8" fill="url(#gradient1)" fill-rule="evenodd" stroke="none"/>
    <path d="M15.7 -18.9 Q13.95 -13.6 9.5 -7.8 10.05 -5.7 11.05 -3.9 16.8 -7.5 22.7 -9.5 L22.75 -8.65 Q23.3 -7.65 24.2 -8.0 L24.2 -7.95 24.05 -7.8 Q19.7 -3.8 12.35 -0.9 L11.35 -3.45 10.4 -3.3 Q8.25 -3.45 7.1 -8.05 L6.75 -9.5 6.3 -12.85 3.1 -15.4 0.6 -10.65 -2.3 -15.15 -5.25 -12.35 Q-5.45 -1.8 -9.3 -2.5 L-9.45 -2.5 -10.2 0.05 -10.6 0.25 Q-18.5 -2.05 -23.3 -5.75 L-23.45 -5.9 Q-22.55 -5.65 -22.1 -6.65 L-22.15 -7.55 -22.1 -7.55 -21.9 -7.5 -15.65 -5.5 Q-12.5 -4.3 -9.35 -2.65 -8.5 -4.5 -8.05 -6.65 L-8.55 -6.65 Q-13.8 -12.35 -16.05 -17.65 L-16.0 -17.5 Q-15.05 -17.05 -14.45 -18.1 L-14.35 -19.25 Q-10.75 -15.65 -7.65 -11.1 -7.7 -15.25 -9.05 -20.25 -7.1 -17.2 -4.9 -18.35 L-3.9 -17.2 0.2 -19.9 4.55 -17.6 5.45 -18.8 Q7.7 -17.9 9.4 -21.1 8.55 -16.75 8.7 -13.05 11.1 -17.15 13.95 -20.5 L14.2 -19.35 Q14.85 -18.4 15.7 -18.9" fill="url(#gradient2)" fill-rule="evenodd" stroke="none"/>
    <path d="M0.6 -10.65 L3.1 -15.4 6.3 -12.85 0.6 -10.65" fill="url(#gradient3)" fill-rule="evenodd" stroke="none"/>
    <path d="M5.45 -18.8 Q5.35 -25.15 0.5 -30.5 6.3 -29.15 9.4 -21.1 7.7 -17.9 5.45 -18.8" fill="url(#gradient4)" fill-rule="evenodd" stroke="none"/>
    <path d="M12.35 -0.9 Q13.15 1.35 13.6 3.75 L14.1 7.6 14.15 11.7 14.0 13.6 Q10.2 11.65 7.65 9.55 -0.95 2.5 3.5 -6.55 2.75 -10.8 0.6 -10.65 L6.3 -12.85 6.75 -9.5 7.1 -8.05 Q8.25 -3.45 10.4 -3.3 L11.35 -3.45 12.35 -0.9" fill="url(#gradient5)" fill-rule="evenodd" stroke="none"/>
    <path d="M12.25 14.95 L9.3 17.15 Q5.75 15.3 1.7 14.05 L1.6 14.05 Q-2.4 15.65 -5.7 17.75 L-9.1 15.65 -10.6 14.7 Q-7.25 12.55 -4.95 10.4 3.4 2.5 -1.9 -6.35 -1.55 -10.6 0.6 -10.65 2.75 -10.8 3.5 -6.55 -0.95 2.5 7.65 9.55 10.2 11.65 14.0 13.6 L12.25 14.95" fill="url(#gradient6)" fill-rule="evenodd" stroke="none"/>
    <path d="M23.6 -22.55 L20.55 -23.75 Q23.15 -24.55 32.7 -25.25 37.55 -24.5 55.7 -19.55 L54.75 -18.15 31.85 -18.95 26.65 -21.25 23.6 -22.55" fill="url(#gradient7)" fill-rule="evenodd" stroke="none"/>
    <path d="M22.7 -9.5 Q22.1 -17.15 23.6 -22.55 L26.65 -21.25 Q26.85 -13.25 24.25 -8.05 L24.2 -8.0 Q23.3 -7.65 22.75 -8.65 L22.7 -9.5" fill="url(#gradient8)" fill-rule="evenodd" stroke="none"/>
    <path d="M32.55 -1.45 L30.55 -3.8 Q33.2 -3.3 42.0 0.45 46.0 3.25 59.9 15.95 L58.4 16.75 Q43.5 9.15 38.4 5.65 L34.5 0.85 32.55 -1.45" fill="url(#gradient9)" fill-rule="evenodd" stroke="none"/>
    <path d="M28.75 18.0 L27.95 14.35 Q30.05 16.05 36.05 23.5 38.2 27.85 44.5 45.55 L42.75 45.6 Q33.25 31.9 30.4 26.35 L29.7 22.5 28.75 18.0" fill="url(#gradient10)" fill-rule="evenodd" stroke="none"/>
    <path d="M13.6 3.75 Q18.05 4.3 22.1 5.5 L21.2 6.35 Q20.7 7.4 21.6 7.9 L23.8 7.35 23.55 7.95 23.35 8.05 14.1 7.6 13.6 3.75" fill="url(#gradient11)" fill-rule="evenodd" stroke="none"/>
    <path d="M22.1 5.5 Q27.55 0.65 32.55 -1.45 L34.5 0.85 Q28.95 5.65 23.8 7.35 L21.6 7.9 Q20.7 7.4 21.2 6.35 L22.1 5.5" fill="url(#gradient12)" fill-rule="evenodd" stroke="none"/>
    <path d="M19.05 14.25 L19.5 14.15 Q24.85 15.75 28.75 18.0 L29.7 22.5 Q23.8 20.3 20.2 17.1 L18.35 15.3 Q18.3 14.45 19.05 14.25" fill="url(#gradient13)" fill-rule="evenodd" stroke="none"/>
    <path d="M9.3 17.15 Q15.65 20.45 20.2 25.55 L20.2 25.75 11.25 39.45 Q8.65 32.2 2.35 31.1 -3.9 32.75 -5.85 40.2 L-15.95 27.25 -15.95 27.15 Q-11.9 21.6 -5.7 17.75 -2.4 15.65 1.6 14.05 L1.7 14.05 Q5.75 15.3 9.3 17.15" fill="url(#gradient14)" fill-rule="evenodd" stroke="none"/>
    <path d="M14.15 11.7 Q16.7 12.85 19.05 14.25 18.3 14.45 18.35 15.3 L20.2 17.1 20.15 17.2 19.95 17.2 Q16.3 16.65 12.25 14.95 L14.0 13.6 14.15 11.7" fill="url(#gradient15)" fill-rule="evenodd" stroke="none"/>
    <path d="M20.2 25.75 Q21.75 33.5 20.65 43.2 L7.95 50.0 Q7.35 45.45 2.85 43.3 -1.45 45.85 -1.65 50.4 L-14.95 44.4 Q-16.85 35.0 -15.95 27.25 L-5.85 40.2 Q-3.9 32.75 2.35 31.1 8.65 32.2 11.25 39.45 L20.2 25.75" fill="url(#gradient16)" fill-rule="evenodd" stroke="none"/>
    <path d="M20.65 43.2 L19.95 48.05 Q16.45 57.45 10.95 63.1 7.85 66.3 4.05 68.4 L3.95 68.4 Q-0.05 66.65 -3.45 63.7 -9.45 58.6 -13.75 49.55 L-14.95 44.4 -1.65 50.4 Q-1.45 45.85 2.85 43.3 7.35 45.45 7.95 50.0 L20.65 43.2" fill="url(#gradient17)" fill-rule="evenodd" stroke="none"/>
    <path d="M-17.85 -32.15 L-19.25 -38.8 Q-18.75 -45.05 -15.25 -61.35 L-13.65 -62.0 Q-12.6 -43.2 -12.9 -38.3 L-14.85 -31.9 Q-16.1 -28.15 -16.85 -26.75 L-17.85 -32.15" fill="url(#gradient18)" fill-rule="evenodd" stroke="none"/>
    <path d="M-27.1 -18.9 Q-31.9 -16.4 -32.05 -16.15 -38.2 -14.8 -54.8 -13.35 L-55.9 -14.65 Q-38.25 -21.2 -33.45 -22.35 L-21.25 -21.95 -24.15 -20.45 -27.1 -18.9" fill="url(#gradient19)" fill-rule="evenodd" stroke="none"/>
    <path d="M-16.05 -17.65 L-16.3 -18.2 -16.35 -18.35 Q-18.6 -23.9 -17.85 -32.15 L-16.85 -26.75 Q-16.1 -28.15 -14.85 -31.9 -13.55 -26.6 -14.35 -19.25 L-14.45 -18.1 Q-15.05 -17.05 -16.0 -17.5 L-16.05 -17.65" fill="url(#gradient20)" fill-rule="evenodd" stroke="none"/>
    <path d="M-23.45 -5.9 L-23.55 -5.95 Q-26.6 -10.9 -27.1 -18.9 L-24.15 -20.45 Q-22.2 -15.2 -22.15 -7.55 L-22.1 -6.65 Q-22.55 -5.65 -23.45 -5.9" fill="url(#gradient21)" fill-rule="evenodd" stroke="none"/>
    <path d="M-9.05 -20.25 Q-6.7 -28.6 -1.0 -30.45 -5.4 -24.7 -4.9 -18.35 -7.1 -17.2 -9.05 -20.25" fill="url(#gradient22)" fill-rule="evenodd" stroke="none"/>
    <path d="M-10.95 12.4 L-11.2 8.55 -11.05 4.7 Q-10.8 2.35 -10.2 0.05 L-9.45 -2.5 -9.3 -2.5 Q-5.45 -1.8 -5.25 -12.35 L0.6 -10.65 Q-1.55 -10.6 -1.9 -6.35 3.4 2.5 -4.95 10.4 -7.25 12.55 -10.6 14.7 L-10.95 12.4" fill="url(#gradient23)" fill-rule="evenodd" stroke="none"/>
    <path d="M0.6 -10.65 L-5.25 -12.35 -2.3 -15.15 0.6 -10.65" fill="url(#gradient24)" fill-rule="evenodd" stroke="none"/>
    <path d="M-11.2 8.55 Q-16.65 10.1 -21.2 10.0 L-21.4 9.95 -21.7 9.35 -19.45 9.7 Q-18.6 9.15 -19.2 8.1 L-20.2 7.35 Q-15.9 5.7 -11.05 4.7 L-11.2 8.55" fill="url(#gradient25)" fill-rule="evenodd" stroke="none"/>
    <path d="M-21.7 9.35 Q-27.0 8.1 -32.95 3.8 L-31.2 1.35 Q-26.05 3.0 -20.2 7.35 L-19.2 8.1 Q-18.6 9.15 -19.45 9.7 L-21.7 9.35" fill="url(#gradient26)" fill-rule="evenodd" stroke="none"/>
    <path d="M-17.25 18.75 Q-20.6 22.25 -26.25 24.95 L-25.7 20.4 Q-22.05 17.85 -16.85 15.75 L-16.35 15.8 Q-15.65 15.95 -15.6 16.8 L-17.25 18.75" fill="url(#gradient27)" fill-rule="evenodd" stroke="none"/>
    <path d="M-9.1 15.65 Q-13.2 17.9 -16.95 18.8 L-17.15 18.85 -17.25 18.75 -15.6 16.8 Q-15.65 15.95 -16.35 15.8 -13.85 13.95 -10.95 12.4 L-10.6 14.7 -9.1 15.65" fill="url(#gradient28)" fill-rule="evenodd" stroke="none"/>
    <path d="M-32.95 3.8 Q-36.35 8.6 -36.35 8.9 -41.2 12.9 -55.35 21.75 L-56.95 21.05 Q-44.2 7.2 -40.45 4.05 -32.0 -0.45 -29.4 -1.15 L-31.2 1.35 -32.95 3.8" fill="url(#gradient29)" fill-rule="evenodd" stroke="none"/>
    <path d="M-26.25 24.95 L-26.6 28.85 Q-28.95 34.65 -37.25 49.1 L-38.95 49.25 Q-34.25 31.05 -32.45 26.5 -27.15 18.55 -25.2 16.7 L-25.7 20.4 -26.25 24.95" fill="url(#gradient30)" fill-rule="evenodd" stroke="none"/>
    <path d="M-16.3 -18.2 L-16.35 -18.35" fill="none" stroke="#a984b0" stroke-linecap="round" stroke-linejoin="round" stroke-width="0.05"/>
    <path d="M15.75 -18.9 L15.7 -18.9 M12.25 14.95 L9.3 17.15 Q15.65 20.45 20.2 25.55 L20.2 25.75 M4.05 68.4 L3.95 68.4 M-15.95 27.25 L-15.95 27.15 Q-11.9 21.6 -5.7 17.75 L-9.1 15.65 -10.6 14.7 M13.95 -20.5 L14.2 -19.35 M24.2 -8.0 Q23.3 -7.65 22.75 -8.65 L22.7 -9.5 M21.6 7.9 Q20.7 7.4 21.2 6.35 L22.1 5.5 M29.7 22.5 L28.75 18.0 M-5.7 17.75 Q-2.4 15.65 1.6 14.05 L1.7 14.05 Q5.75 15.3 9.3 17.15 M12.25 14.95 L14.0 13.6 M19.05 14.25 Q18.3 14.45 18.35 15.3 M32.55 -1.45 L34.5 0.85 M-24.15 -20.45 L-27.1 -18.9 M-22.15 -7.55 L-22.1 -6.65 Q-22.55 -5.65 -23.45 -5.9 M-14.35 -19.25 L-14.45 -18.1 M-20.2 7.35 L-19.2 8.1 M-31.2 1.35 L-32.95 3.8 M-25.7 20.4 L-26.25 24.95" fill="none" stroke="#624268" stroke-linecap="round" stroke-linejoin="round" stroke-width="0.05"/>
    <path d="M-1.0 -30.45 Q-5.4 -24.7 -4.9 -18.35 M5.45 -18.8 Q5.35 -25.15 0.5 -30.5" fill="none" stroke="#999999" stroke-linecap="round" stroke-linejoin="round" stroke-width="0.05"/>
    <path d="M9.4 -21.1 Q7.7 -17.9 5.45 -18.8 M-4.9 -18.35 Q-7.1 -17.2 -9.05 -20.25" fill="none" stroke="#616161" stroke-linecap="round" stroke-linejoin="round" stroke-width="0.05"/>
    <path d="M-9.05 -20.25 Q-6.7 -28.6 -1.0 -30.45 M0.5 -30.5 Q6.3 -29.15 9.4 -21.1" fill="none" stroke="#858585" stroke-linecap="round" stroke-linejoin="round" stroke-width="0.05"/>
    <path d="M11.15 -62.5 Q16.05 -46.55 17.1 -40.4 M-19.25 -38.8 Q-18.75 -45.05 -15.25 -61.35" fill="none" stroke="#5b3d61" stroke-linecap="round" stroke-linejoin="round" stroke-width="0.05"/>
    <path d="M17.1 -40.4 Q16.9 -40.15 16.3 -33.8 L15.75 -28.15 Q14.9 -29.5 13.35 -33.05 L10.8 -39.35 M23.6 -22.55 L20.55 -23.75 M54.75 -18.15 L31.85 -18.95 26.65 -21.25 23.6 -22.55 M32.55 -1.45 L30.55 -3.8 M58.4 16.75 Q43.5 9.15 38.4 5.65 L34.5 0.85 M28.75 18.0 L27.95 14.35 M42.75 45.6 Q33.25 31.9 30.4 26.35 L29.7 22.5 M-26.25 24.95 L-26.6 28.85 Q-28.95 34.65 -37.25 49.1 M-25.2 16.7 L-25.7 20.4 M-32.95 3.8 Q-36.35 8.6 -36.35 8.9 -41.2 12.9 -55.35 21.75 M-29.4 -1.15 L-31.2 1.35 M-27.1 -18.9 Q-31.9 -16.4 -32.05 -16.15 -38.2 -14.8 -54.8 -13.35 M-21.25 -21.95 L-24.15 -20.45 M-17.85 -32.15 L-19.25 -38.8 M-12.9 -38.3 L-14.85 -31.9 Q-16.1 -28.15 -16.85 -26.75 L-17.85 -32.15" fill="none" stroke="#543a5c" stroke-linecap="round" stroke-linejoin="round" stroke-width="0.05"/>
    <path d="M27.95 14.35 Q30.05 16.05 36.05 23.5 38.2 27.85 44.5 45.55 M-38.95 49.25 Q-34.25 31.05 -32.45 26.5 -27.15 18.55 -25.2 16.7 M-13.65 -62.0 Q-12.6 -43.2 -12.9 -38.3 M10.8 -39.35 Q10.1 -44.2 9.5 -63.0" fill="none" stroke="#704e7a" stroke-linecap="round" stroke-linejoin="round" stroke-width="0.05"/>
    <path d="M11.05 -3.9 Q16.8 -7.5 22.7 -9.5 M24.2 -8.0 L24.2 -7.95 24.05 -7.8 M-10.2 0.05 L-10.6 0.25 M-23.3 -5.75 L-23.45 -5.9 M-22.15 -7.55 L-22.1 -7.55 -21.9 -7.5 M-8.05 -6.65 L-8.55 -6.65 M-14.35 -19.25 Q-10.75 -15.65 -7.65 -11.1 M8.7 -13.05 Q11.1 -17.15 13.95 -20.5" fill="none" stroke="#775283" stroke-linecap="round" stroke-linejoin="round" stroke-width="0.05"/>
    <path d="M15.7 -18.9 Q13.95 -13.6 9.5 -7.8 M24.05 -7.8 Q19.7 -3.8 12.35 -0.9 M-10.6 0.25 Q-18.5 -2.05 -23.3 -5.75 M-8.55 -6.65 Q-13.8 -12.35 -16.05 -17.65 L-16.3 -18.2" fill="none" stroke="#61446a" stroke-linecap="round" stroke-linejoin="round" stroke-width="0.05"/>
    <path d="M23.8 7.35 L23.55 7.95 23.35 8.05 14.1 7.6 M20.2 17.1 L20.15 17.2 19.95 17.2 Q16.3 16.65 12.25 14.95 M-9.1 15.65 Q-13.2 17.9 -16.95 18.8 L-17.15 18.85 -17.25 18.75 M-11.2 8.55 Q-16.65 10.1 -21.2 10.0 L-21.4 9.95 -21.7 9.35" fill="none" stroke="#553e60" stroke-linecap="round" stroke-linejoin="round" stroke-width="0.05"/>
    <path d="M13.6 3.75 Q18.05 4.3 22.1 5.5 M14.15 11.7 Q16.7 12.85 19.05 14.25 M-16.35 15.8 Q-13.85 13.95 -10.95 12.4 M-20.2 7.35 Q-15.9 5.7 -11.05 4.7" fill="none" stroke="#684d75" stroke-linecap="round" stroke-linejoin="round" stroke-width="0.05"/>
    <path d="M20.55 -23.75 Q23.15 -24.55 32.7 -25.25 37.55 -24.5 55.7 -19.55 M30.55 -3.8 Q33.2 -3.3 42.0 0.45 46.0 3.25 59.9 15.95 M-56.95 21.05 Q-44.2 7.2 -40.45 4.05 -32.0 -0.45 -29.4 -1.15 M-55.9 -14.65 Q-38.25 -21.2 -33.45 -22.35 L-21.25 -21.95" fill="none" stroke="#735481" stroke-linecap="round" stroke-linejoin="round" stroke-width="0.05"/>
    <path d="M16.3 -33.8 Q17.9 -24.9 15.75 -18.9 M26.65 -21.25 Q26.85 -13.25 24.25 -8.05 L24.2 -8.0 M34.5 0.85 Q28.95 5.65 23.8 7.35 L21.6 7.9 M29.7 22.5 Q23.8 20.3 20.2 17.1 L18.35 15.3 M-17.25 18.75 Q-20.6 22.25 -26.25 24.95 M-21.7 9.35 Q-27.0 8.1 -32.95 3.8 M-23.45 -5.9 L-23.55 -5.95 Q-26.6 -10.9 -27.1 -18.9 M-16.35 -18.35 Q-18.6 -23.9 -17.85 -32.15 M14.2 -19.35 Q14.85 -18.4 15.7 -18.9 M-14.45 -18.1 Q-15.05 -17.05 -16.0 -17.5 L-16.05 -17.65 M-19.2 8.1 Q-18.6 9.15 -19.45 9.7 L-21.7 9.35 M-16.35 15.8 Q-15.65 15.95 -15.6 16.8 L-17.25 18.75" fill="none" stroke="#872783" stroke-linecap="round" stroke-linejoin="round" stroke-width="0.05"/>
    <path d="M22.7 -9.5 Q22.1 -17.15 23.6 -22.55 M22.1 5.5 Q27.55 0.65 32.55 -1.45 M19.05 14.25 L19.5 14.15 Q24.85 15.75 28.75 18.0 M-25.7 20.4 Q-22.05 17.85 -16.85 15.75 L-16.35 15.8 M-31.2 1.35 Q-26.05 3.0 -20.2 7.35 M-24.15 -20.45 Q-22.2 -15.2 -22.15 -7.55 M-14.85 -31.9 Q-13.55 -26.6 -14.35 -19.25 M13.95 -20.5 Q12.55 -27.7 13.35 -33.05" fill="none" stroke="#b735b0" stroke-linecap="round" stroke-linejoin="round" stroke-width="0.05"/>
    <path d="M20.65 43.2 L19.95 48.05 Q16.45 57.45 10.95 63.1 7.85 66.3 4.05 68.4 M3.95 68.4 Q-0.05 66.65 -3.45 63.7 -9.45 58.6 -13.75 49.55 L-14.95 44.4" fill="none" stroke="#2e2134" stroke-linecap="round" stroke-linejoin="round" stroke-width="0.05"/>
    <path d="M20.2 25.75 Q21.75 33.5 20.65 43.2 M-14.95 44.4 Q-16.85 35.0 -15.95 27.25" fill="none" stroke="#89327e" stroke-linecap="round" stroke-linejoin="round" stroke-width="0.05"/>
    <path d="M11.15 -62.5 L9.2 -68.95 9.45 -63.1 M55.8 -19.55 L61.45 -18.1 54.75 -18.15 M60.0 15.95 L64.35 19.85 58.4 16.75 M44.5 45.65 L46.55 51.1 42.75 45.6 M-37.25 49.1 L-40.5 54.95 -38.95 49.35 M-55.35 21.75 L-61.0 25.35 -57.0 21.1 M-54.8 -13.35 L-61.45 -12.7 -56.0 -14.65 M-15.25 -61.35 L-13.85 -67.9 -13.6 -62.1" fill="none" stroke="#f2dbf1" stroke-linecap="round" stroke-linejoin="round" stroke-width="0.05"/>
    <path d="M12.35 -0.9 L11.35 -3.45 11.25 -3.4 11.25 -4.05 Q16.9 -7.55 22.7 -9.5 L22.75 -8.65 Q23.3 -7.65 24.2 -8.0 L24.2 -7.95 24.05 -7.8 Q19.7 -3.8 12.35 -0.9" fill="url(#gradient31)" fill-rule="evenodd" stroke="none"/>
    <path d="M-22.1 -7.55 Q-15.8 -6.0 -9.4 -2.7 L-9.35 -2.5 -9.45 -2.5 -10.2 0.05 -10.6 0.25 Q-18.5 -2.05 -23.3 -5.75 L-23.45 -5.9 Q-22.55 -5.65 -22.1 -6.65 L-22.15 -7.55 -22.1 -7.55" fill="url(#gradient32)" fill-rule="evenodd" stroke="none"/>
    <path d="M9.15 -69.05 L9.25 -69.0 9.3 -68.95 11.25 -62.55 11.25 -62.5 Q16.15 -46.6 17.25 -40.4 L17.15 -40.5 17.05 -40.5 17.1 -40.4 Q16.9 -40.15 16.3 -33.9 L16.35 -33.9 16.4 -33.8 Q18.0 -24.9 15.9 -18.85 L15.9 -18.9 15.9 -19.0 15.8 -19.05 15.8 -19.0 15.85 -18.9 15.85 -18.8 Q14.05 -13.55 9.65 -7.7 L9.55 -7.65 Q10.1 -5.65 11.05 -3.9 L11.15 -3.95 11.1 -4.0 11.2 -4.1 Q16.8 -7.65 22.6 -9.6 22.0 -17.1 23.45 -22.4 L20.55 -23.65 Q20.45 -23.65 20.45 -23.7 L20.45 -23.8 20.55 -23.9 20.6 -23.9 Q23.2 -24.7 32.7 -25.35 L32.75 -25.35 Q37.55 -24.65 55.9 -19.7 L55.9 -19.65 61.45 -18.25 61.55 -18.2 61.6 -18.1 61.55 -18.0 61.45 -18.0 54.75 -18.0 31.85 -18.8 31.75 -18.85 26.8 -21.05 Q27.0 -13.15 24.4 -8.0 L24.35 -7.95 24.35 -7.9 24.3 -7.85 24.2 -7.8 24.15 -7.7 Q19.75 -3.7 12.45 -0.8 L12.4 -0.8 13.6 3.7 13.65 3.65 Q18.05 4.15 22.1 5.4 27.4 0.55 32.35 -1.5 L30.5 -3.7 30.45 -3.7 30.45 -3.8 30.5 -3.9 30.6 -3.9 30.6 -3.95 Q33.25 -3.4 42.05 0.35 L42.1 0.35 Q46.05 3.15 60.05 15.8 L60.05 15.85 64.45 19.75 64.5 19.85 64.45 19.9 64.4 19.95 64.3 19.95 58.35 16.85 58.35 16.8 Q43.45 9.25 38.3 5.75 L38.25 5.7 34.5 1.05 Q29.0 5.75 23.9 7.45 L23.7 8.0 23.65 8.05 23.6 8.1 23.4 8.15 14.1 7.75 14.15 11.55 14.25 11.6 Q16.7 12.75 19.05 14.15 L19.55 14.0 19.6 14.0 Q24.75 15.65 28.6 17.8 L27.85 14.4 27.85 14.3 27.95 14.25 28.05 14.25 28.05 14.3 Q30.15 16.0 36.15 23.4 L36.2 23.4 Q38.3 27.75 44.65 45.65 L46.65 51.1 46.65 51.2 46.6 51.25 46.5 51.25 46.45 51.2 46.4 51.15 42.7 45.7 42.75 45.7 42.85 45.7 42.75 45.6 Q33.25 31.9 30.4 26.35 L29.75 22.65 29.65 22.65 29.6 22.6 Q23.8 20.45 20.25 17.3 L20.15 17.35 19.9 17.35 Q16.3 16.75 12.3 15.1 L9.55 17.2 Q15.8 20.45 20.3 25.5 L20.3 25.55 20.35 25.75 Q21.9 33.5 20.8 43.25 L20.05 48.05 20.05 48.1 Q16.55 57.5 11.05 63.2 7.9 66.35 4.2 68.5 L4.15 68.5 4.05 68.55 4.0 68.55 3.9 68.55 3.85 68.5 Q-0.15 66.75 -3.5 63.85 -9.55 58.65 -13.85 49.6 L-13.85 49.55 -15.05 44.4 Q-17.0 35.0 -16.1 27.25 L-16.1 27.15 -16.05 27.1 Q-12.0 21.55 -5.8 17.7 L-9.0 15.7 -9.05 15.75 -9.15 15.8 Q-13.2 18.05 -16.95 18.95 L-17.15 19.0 -17.25 18.95 Q-20.6 22.4 -26.15 25.05 L-26.2 25.1 -26.3 25.1 -26.6 28.85 Q-28.95 34.65 -37.25 49.1 L-37.3 49.2 -37.2 49.25 -37.1 49.2 -40.4 54.95 -40.4 55.0 -40.45 55.1 -40.55 55.1 -40.65 55.0 -40.65 54.9 -39.1 49.3 -39.05 49.25 Q-34.4 30.95 -32.55 26.45 L-32.55 26.4 Q-27.3 18.55 -25.3 16.65 L-25.3 16.6 -25.25 16.6 -25.2 16.6 -25.1 16.65 -25.1 16.7 -25.1 16.75 -25.55 20.2 Q-21.95 17.7 -16.85 15.6 L-16.8 15.6 -16.4 15.7 -11.0 12.3 -10.95 12.25 -11.2 8.65 Q-16.65 10.2 -21.15 10.1 L-21.35 10.05 -21.45 10.05 -21.45 10.0 -21.8 9.45 Q-27.05 8.25 -32.9 4.0 L-36.25 8.95 -36.3 9.05 Q-41.15 13.0 -55.2 21.8 L-55.25 21.85 -60.9 25.45 -61.0 25.45 -61.05 25.4 -61.1 25.35 -61.05 25.25 -57.1 21.05 -57.1 21.0 Q-44.25 7.1 -40.5 3.95 -32.05 -0.55 -29.4 -1.3 L-29.3 -1.25 -29.25 -1.2 -29.25 -1.1 -29.3 -1.05 -31.0 1.3 Q-25.9 2.9 -20.15 7.25 -15.85 5.55 -11.05 4.6 L-11.0 4.6 Q-10.8 2.4 -10.25 0.25 L-10.55 0.4 -10.65 0.4 Q-18.55 -1.95 -23.3 -5.6 L-23.35 -5.65 -23.5 -5.75 -23.65 -5.8 -23.65 -5.85 Q-26.7 -10.8 -27.2 -18.7 L-31.95 -16.05 -32.05 -16.0 Q-38.15 -14.7 -54.8 -13.2 L-61.45 -12.6 -61.5 -12.6 -61.55 -12.7 -61.55 -12.8 -61.45 -12.85 -56.05 -14.75 -56.0 -14.8 Q-38.3 -21.35 -33.45 -22.45 L-21.25 -22.05 -21.15 -22.05 -21.1 -22.0 -21.1 -21.9 -21.15 -21.8 -24.0 -20.35 Q-22.1 -15.2 -22.0 -7.65 L-21.9 -7.6 -21.85 -7.5 -15.65 -5.5 -15.2 -5.3 -11.55 -3.75 -10.95 -3.5 -9.4 -2.7 -9.35 -2.65 Q-8.55 -4.45 -8.1 -6.5 L-8.55 -6.5 -8.65 -6.55 Q-14.2 -12.55 -16.4 -18.15 L-16.4 -18.25 -16.5 -18.3 Q-18.7 -23.8 -17.95 -32.1 L-17.95 -32.15 Q-19.15 -38.5 -19.3 -38.7 L-19.35 -38.8 Q-18.85 -45.05 -15.35 -61.35 L-14.0 -67.9 -13.95 -68.0 -13.85 -68.0 -13.8 -67.95 -13.75 -67.9 -13.5 -62.1 Q-12.5 -43.35 -12.75 -38.35 L-12.75 -38.25 -14.7 -31.9 Q-13.45 -26.55 -14.2 -19.3 -10.7 -15.75 -7.65 -11.3 -7.7 -15.3 -9.0 -20.0 L-9.1 -20.15 -9.15 -20.2 -9.15 -20.3 Q-6.8 -28.7 -1.05 -30.55 L-0.95 -30.55 -0.9 -30.45 -0.9 -30.35 Q-5.25 -24.7 -4.75 -18.35 L-4.75 -18.25 -4.8 -18.2 -3.9 -17.2 0.2 -19.9 4.55 -17.6 5.4 -18.7 5.35 -18.7 5.35 -18.8 Q5.2 -25.15 0.45 -30.4 L0.4 -30.5 0.4 -30.55 0.45 -30.6 0.5 -30.6 0.55 -30.6 Q6.35 -29.3 9.5 -21.15 L9.5 -21.1 9.5 -21.05 9.45 -20.95 9.35 -20.75 Q8.6 -16.7 8.7 -13.25 11.05 -17.25 13.85 -20.55 L13.85 -20.5 13.85 -20.4 13.95 -20.5 Q12.55 -27.7 13.35 -33.05 L10.85 -39.25 10.75 -39.25 10.7 -39.35 Q9.95 -44.15 9.35 -63.1 L9.05 -68.9 9.1 -68.95 9.15 -69.05" fill="url(#gradient33)" fill-rule="evenodd" stroke="none"/>
  </g>
  <defs>
    <radialGradient cx="0" cy="0" gradientTransform="matrix(0.0088, -0.0015, 0.0052, 0.03, 11.35, -45.5)" gradientUnits="userSpaceOnUse" id="gradient0" r="819.2" spreadMethod="pad">
      <stop offset="0.0" stop-color="#a57dac"/>
      <stop offset="0.29411764705882354" stop-color="#86558a"/>
      <stop offset="1.0" stop-color="#5b3d61"/>
    </radialGradient>
    <radialGradient cx="0" cy="0" gradientTransform="matrix(0.0047, -2.0E-4, 4.0E-4, 0.0095, 14.0, -25.8)" gradientUnits="userSpaceOnUse" id="gradient1" r="819.2" spreadMethod="pad">
      <stop offset="0.0" stop-color="#d975be"/>
      <stop offset="1.0" stop-color="#962c89"/>
    </radialGradient>
    <radialGradient cx="0" cy="0" gradientTransform="matrix(0.0154, -7.0E-4, 5.0E-4, 0.0123, 0.5, -11.6)" gradientUnits="userSpaceOnUse" id="gradient2" r="819.2" spreadMethod="pad">
      <stop offset="0.0" stop-color="#744b79"/>
      <stop offset="0.3137254901960784" stop-color="#936b9e"/>
      <stop offset="1.0" stop-color="#503555"/>
    </radialGradient>
    <linearGradient gradientTransform="matrix(-4.0E-4, 0.0019, -0.0028, -5.0E-4, 2.15, -11.25)" gradientUnits="userSpaceOnUse" id="gradient3" spreadMethod="pad" x1="-819.2" x2="819.2">
      <stop offset="0.0" stop-color="#ffffff"/>
      <stop offset="1.0" stop-color="#ffff99"/>
    </linearGradient>
    <radialGradient cx="0" cy="0" gradientTransform="matrix(0.0038, -0.0014, 0.0025, 0.0068, 4.45, -24.9)" gradientUnits="userSpaceOnUse" id="gradient4" r="819.2" spreadMethod="pad">
      <stop offset="0.0" stop-color="#cccccc"/>
      <stop offset="1.0" stop-color="#666666"/>
    </radialGradient>
    <radialGradient cx="0" cy="0" gradientTransform="matrix(0.018, -8.0E-4, 0.0011, 0.0262, 1.5, -4.45)" gradientUnits="userSpaceOnUse" id="gradient5" r="819.2" spreadMethod="pad">
      <stop offset="0.0" stop-color="#e39fd7"/>
      <stop offset="0.5529411764705883" stop-color="#d975be"/>
      <stop offset="1.0" stop-color="#962c89"/>
    </radialGradient>
    <radialGradient cx="0" cy="0" gradientTransform="matrix(0.0252, -0.0011, 0.0011, 0.0252, 0.8, -2.2)" gradientUnits="userSpaceOnUse" id="gradient6" r="819.2" spreadMethod="pad">
      <stop offset="0.0" stop-color="#9478a5"/>
      <stop offset="0.5529411764705883" stop-color="#705481"/>
      <stop offset="1.0" stop-color="#2e2134"/>
    </radialGradient>
    <radialGradient cx="0" cy="0" gradientTransform="matrix(0.0238, 0.0018, -6.0E-4, 0.0077, 33.1, -22.8)" gradientUnits="userSpaceOnUse" id="gradient7" r="819.2" spreadMethod="pad">
      <stop offset="0.0" stop-color="#a57dac"/>
      <stop offset="1.0" stop-color="#5b3d61"/>
    </radialGradient>
    <radialGradient cx="0" cy="0" gradientTransform="matrix(0.0037, 6.0E-4, -0.0012, 0.008, 23.75, -16.65)" gradientUnits="userSpaceOnUse" id="gradient8" r="819.2" spreadMethod="pad">
      <stop offset="0.0" stop-color="#d975be"/>
      <stop offset="1.0" stop-color="#962c89"/>
    </radialGradient>
    <radialGradient cx="0" cy="0" gradientTransform="matrix(0.0212, 0.0045, -0.0022, 0.0103, 41.15, 1.05)" gradientUnits="userSpaceOnUse" id="gradient9" r="819.2" spreadMethod="pad">
      <stop offset="0.0" stop-color="#a57dac"/>
      <stop offset="1.0" stop-color="#5b3d61"/>
    </radialGradient>
    <radialGradient cx="0" cy="0" gradientTransform="matrix(0.005, -0.0046, 0.0119, 0.0131, 34.2, 24.55)" gradientUnits="userSpaceOnUse" id="gradient10" r="819.2" spreadMethod="pad">
      <stop offset="0.0" stop-color="#8e649b"/>
      <stop offset="1.0" stop-color="#5b3d61"/>
    </radialGradient>
    <radialGradient cx="0" cy="0" gradientTransform="matrix(0.007, 0.0011, -5.0E-4, 0.0032, 18.65, 5.1)" gradientUnits="userSpaceOnUse" id="gradient11" r="819.2" spreadMethod="pad">
      <stop offset="0.0" stop-color="#8e649b"/>
      <stop offset="1.0" stop-color="#47314f"/>
    </radialGradient>
    <radialGradient cx="0" cy="0" gradientTransform="matrix(0.0095, -0.0042, 0.0018, 0.0041, 27.35, 1.25)" gradientUnits="userSpaceOnUse" id="gradient12" r="819.2" spreadMethod="pad">
      <stop offset="0.0" stop-color="#d975be"/>
      <stop offset="1.0" stop-color="#962c89"/>
    </radialGradient>
    <radialGradient cx="0" cy="0" gradientTransform="matrix(0.0063, -3.0E-4, 3.0E-4, 0.0063, 24.55, 15.4)" gradientUnits="userSpaceOnUse" id="gradient13" r="819.2" spreadMethod="pad">
      <stop offset="0.0" stop-color="#d975be"/>
      <stop offset="1.0" stop-color="#962c89"/>
    </radialGradient>
    <radialGradient cx="0" cy="0" gradientTransform="matrix(0.0215, -9.0E-4, 0.0014, 0.033, 2.55, 33.15)" gradientUnits="userSpaceOnUse" id="gradient14" r="819.2" spreadMethod="pad">
      <stop offset="0.0" stop-color="#9478a5"/>
      <stop offset="0.5529411764705883" stop-color="#705481"/>
      <stop offset="1.0" stop-color="#2e2134"/>
    </radialGradient>
    <radialGradient cx="0" cy="0" gradientTransform="matrix(0.0061, 0.0016, -6.0E-4, 0.0023, 18.15, 13.55)" gradientUnits="userSpaceOnUse" id="gradient15" r="819.2" spreadMethod="pad">
      <stop offset="0.0" stop-color="#8e649b"/>
      <stop offset="1.0" stop-color="#47314f"/>
    </radialGradient>
    <radialGradient cx="0" cy="0" gradientTransform="matrix(0.0232, -0.001, 0.0012, 0.0271, 2.0, 39.15)" gradientUnits="userSpaceOnUse" id="gradient16" r="819.2" spreadMethod="pad">
      <stop offset="0.0" stop-color="#e39fd7"/>
      <stop offset="0.5529411764705883" stop-color="#d975be"/>
      <stop offset="1.0" stop-color="#962c89"/>
    </radialGradient>
    <radialGradient cx="0" cy="0" gradientTransform="matrix(0.0202, -9.0E-4, 0.0011, 0.0256, 2.7, 45.15)" gradientUnits="userSpaceOnUse" id="gradient17" r="819.2" spreadMethod="pad">
      <stop offset="0.0" stop-color="#9478a5"/>
      <stop offset="0.5529411764705883" stop-color="#705481"/>
      <stop offset="1.0" stop-color="#2e2134"/>
    </radialGradient>
    <radialGradient cx="0" cy="0" gradientTransform="matrix(0.0078, 0.001, -0.0031, 0.0252, -14.45, -43.35)" gradientUnits="userSpaceOnUse" id="gradient18" r="819.2" spreadMethod="pad">
      <stop offset="0.0" stop-color="#a57dac"/>
      <stop offset="0.29411764705882354" stop-color="#86558a"/>
      <stop offset="1.0" stop-color="#5b3d61"/>
    </radialGradient>
    <radialGradient cx="0" cy="0" gradientTransform="matrix(0.0311, -0.0048, 0.0014, 0.009, -33.85, -21.1)" gradientUnits="userSpaceOnUse" id="gradient19" r="819.2" spreadMethod="pad">
      <stop offset="0.0" stop-color="#a57dac"/>
      <stop offset="1.0" stop-color="#5b3d61"/>
    </radialGradient>
    <radialGradient cx="0" cy="0" gradientTransform="matrix(6.0E-4, 0.0097, -0.0057, 4.0E-4, -14.6, -24.75)" gradientUnits="userSpaceOnUse" id="gradient20" r="819.2" spreadMethod="pad">
      <stop offset="0.0" stop-color="#d975be"/>
      <stop offset="1.0" stop-color="#962c89"/>
    </radialGradient>
    <radialGradient cx="0" cy="0" gradientTransform="matrix(0.0052, -2.0E-4, 4.0E-4, 0.009, -23.1, -13.4)" gradientUnits="userSpaceOnUse" id="gradient21" r="819.2" spreadMethod="pad">
      <stop offset="0.0" stop-color="#d975be"/>
      <stop offset="1.0" stop-color="#962c89"/>
    </radialGradient>
    <radialGradient cx="0" cy="0" gradientTransform="matrix(0.0039, 0.0013, -0.0027, 0.0077, -4.55, -24.45)" gradientUnits="userSpaceOnUse" id="gradient22" r="819.2" spreadMethod="pad">
      <stop offset="0.0" stop-color="#cccccc"/>
      <stop offset="1.0" stop-color="#666666"/>
    </radialGradient>
    <radialGradient cx="0" cy="0" gradientTransform="matrix(0.0166, -7.0E-4, 0.0011, 0.0238, 0.65, -1.6)" gradientUnits="userSpaceOnUse" id="gradient23" r="819.2" spreadMethod="pad">
      <stop offset="0.0" stop-color="#e39fd7"/>
      <stop offset="0.5529411764705883" stop-color="#d975be"/>
      <stop offset="1.0" stop-color="#962c89"/>
    </radialGradient>
    <linearGradient gradientTransform="matrix(5.0E-4, 0.0022, -0.0028, 6.0E-4, -2.7, -11.4)" gradientUnits="userSpaceOnUse" id="gradient24" spreadMethod="pad" x1="-819.2" x2="819.2">
      <stop offset="0.0" stop-color="#ffffff"/>
      <stop offset="1.0" stop-color="#ffff99"/>
    </linearGradient>
    <radialGradient cx="0" cy="0" gradientTransform="matrix(0.0066, -3.0E-4, 2.0E-4, 0.0048, -16.55, 5.95)" gradientUnits="userSpaceOnUse" id="gradient25" r="819.2" spreadMethod="pad">
      <stop offset="0.0" stop-color="#8e649b"/>
      <stop offset="1.0" stop-color="#47314f"/>
    </radialGradient>
    <radialGradient cx="0" cy="0" gradientTransform="matrix(0.0114, 0.0034, -0.0015, 0.005, -25.1, 4.15)" gradientUnits="userSpaceOnUse" id="gradient26" r="819.2" spreadMethod="pad">
      <stop offset="0.0" stop-color="#d975be"/>
      <stop offset="1.0" stop-color="#962c89"/>
    </radialGradient>
    <radialGradient cx="0" cy="0" gradientTransform="matrix(0.0078, -3.0E-4, 3.0E-4, 0.0078, -21.4, 15.8)" gradientUnits="userSpaceOnUse" id="gradient27" r="819.2" spreadMethod="pad">
      <stop offset="0.0" stop-color="#d975be"/>
      <stop offset="1.0" stop-color="#962c89"/>
    </radialGradient>
    <radialGradient cx="0" cy="0" gradientTransform="matrix(0.0057, -0.0033, 0.0017, 0.003, -15.4, 14.35)" gradientUnits="userSpaceOnUse" id="gradient28" r="819.2" spreadMethod="pad">
      <stop offset="0.0" stop-color="#8e649b"/>
      <stop offset="1.0" stop-color="#47314f"/>
    </radialGradient>
    <radialGradient cx="0" cy="0" gradientTransform="matrix(0.0282, -0.0112, 0.003, 0.0074, -37.9, 4.9)" gradientUnits="userSpaceOnUse" id="gradient29" r="819.2" spreadMethod="pad">
      <stop offset="0.0" stop-color="#a57dac"/>
      <stop offset="1.0" stop-color="#5b3d61"/>
    </radialGradient>
    <radialGradient cx="0" cy="0" gradientTransform="matrix(0.0138, -0.0125, 0.0053, 0.0058, -29.9, 27.95)" gradientUnits="userSpaceOnUse" id="gradient30" r="819.2" spreadMethod="pad">
      <stop offset="0.0" stop-color="#8e649b"/>
      <stop offset="1.0" stop-color="#5b3d61"/>
    </radialGradient>
    <radialGradient cx="0" cy="0" gradientTransform="matrix(0.0116, -0.0039, 0.0021, 0.0063, 16.85, -8.3)" gradientUnits="userSpaceOnUse" id="gradient31" r="819.2" spreadMethod="pad">
      <stop offset="0.0" stop-color="#a57dac"/>
      <stop offset="1.0" stop-color="#5b3d61"/>
    </radialGradient>
    <radialGradient cx="0" cy="0" gradientTransform="matrix(0.014, 0.002, -0.0011, 0.0074, -13.8, -6.2)" gradientUnits="userSpaceOnUse" id="gradient32" r="819.2" spreadMethod="pad">
      <stop offset="0.0" stop-color="#8e649b"/>
      <stop offset="1.0" stop-color="#47314f"/>
    </radialGradient>
    <radialGradient cx="0" cy="0" gradientTransform="matrix(0.0766, -0.0034, 0.0042, 0.0952, 2.15, 5.15)" gradientUnits="userSpaceOnUse" id="gradient33" r="819.2" spreadMethod="pad">
      <stop offset="0.0" stop-color="#000000" stop-opacity="0.0"/>
      <stop offset="1.0" stop-color="#000000" stop-opacity="0.23137255"/>
    </radialGradient>
  </defs>
</svg>
