<?xml version="1.0" encoding="UTF-8" standalone="no"?>
<svg xmlns:xlink="http://www.w3.org/1999/xlink" height="299.05px" width="211.25px" xmlns="http://www.w3.org/2000/svg">
  <g transform="matrix(1.0, 0.0, 0.0, 1.0, 107.95, 153.25)">
    <path d="M-104.7 -136.95 L75.0 -140.95 88.7 83.5 91.15 124.65 -77.6 145.8 -107.95 -136.8 -107.5 -137.9 Q-107.15 -138.35 -106.45 -138.4 -105.8 -138.45 -105.25 -138.0 -104.75 -137.55 -104.7 -136.95" fill="url(#gradient0)" fill-rule="evenodd" stroke="none"/>
    <path d="M-66.8 137.65 L-89.8 -151.75" fill="none" stroke="#813a3a" stroke-linecap="round" stroke-linejoin="round" stroke-width="3.0"/>
    <path d="M101.8 118.4 L-66.8 137.65" fill="none" stroke="#291212" stroke-linecap="round" stroke-linejoin="round" stroke-width="3.0"/>
    <path d="M-89.8 -151.75 L87.45 -143.8" fill="none" stroke="#b14e4e" stroke-linecap="round" stroke-linejoin="round" stroke-width="3.0"/>
    <path d="M87.45 -143.8 L101.8 118.4" fill="none" stroke="#000000" stroke-linecap="round" stroke-linejoin="round" stroke-width="3.0"/>
    <path d="M102.5 119.6 L-66.45 137.4 -89.7 -151.75 87.5 -144.55 Q95.55 2.5 100.1 78.35 L102.5 119.6" fill="url(#gradient1)" fill-rule="evenodd" stroke="none"/>
    <path d="M83.05 -137.0 L83.9 -137.15 98.65 110.8 -59.75 131.4 -81.5 -141.95 83.05 -137.0" fill="url(#gradient2)" fill-rule="evenodd" stroke="none"/>
  </g>
  <defs>
    <linearGradient gradientTransform="matrix(0.0211, 0.0777, -0.1918, 0.0402, 4.8, 64.15)" gradientUnits="userSpaceOnUse" id="gradient0" spreadMethod="pad" x1="-819.2" x2="819.2">
      <stop offset="0.01568627450980392" stop-color="#060c17" stop-opacity="0.56078434"/>
      <stop offset="1.0" stop-color="#0a0b14" stop-opacity="0.34117648"/>
    </linearGradient>
    <linearGradient gradientTransform="matrix(-0.0647, 0.0269, 0.0252, 0.2356, 14.1, -20.9)" gradientUnits="userSpaceOnUse" id="gradient1" spreadMethod="pad" x1="-819.2" x2="819.2">
      <stop offset="0.0" stop-color="#000000"/>
      <stop offset="1.0" stop-color="#47201f"/>
    </linearGradient>
    <linearGradient gradientTransform="matrix(-0.0871, 0.0333, -0.007, -0.1553, 0.9, -69.4)" gradientUnits="userSpaceOnUse" id="gradient2" spreadMethod="pad" x1="-819.2" x2="819.2">
      <stop offset="0.0" stop-color="#532626"/>
      <stop offset="1.0" stop-color="#a94949"/>
    </linearGradient>
  </defs>
</svg>
