<?xml version="1.0" encoding="UTF-8" standalone="no"?>
<svg xmlns:xlink="http://www.w3.org/1999/xlink" height="13.95px" width="18.2px" xmlns="http://www.w3.org/2000/svg">
  <g transform="matrix(1.0, 0.0, 0.0, 1.0, 9.2, 6.65)">
    <path d="M2.7 -2.4 Q2.75 -0.75 3.85 -0.75 L5.15 -0.75 Q8.4 -0.75 8.4 2.7 L8.4 3.15 Q8.4 6.7 4.6 6.7 L0.7 6.7 0.7 4.6 4.95 4.6 Q6.35 4.6 6.4 3.1 L6.4 3.0 Q6.35 1.35 5.15 1.35 L3.8 1.35 Q0.7 1.35 0.7 -2.25 L0.7 -2.7 Q0.7 -6.1 4.45 -6.05 L7.95 -6.05 7.95 -3.95 4.15 -3.95 Q2.7 -4.0 2.7 -2.4 M-6.45 -6.0 L-4.65 2.8 -2.7 -6.0 -0.6 -6.0 -3.5 6.7 -5.85 6.7 -8.6 -6.0 -6.45 -6.0" fill="none" stroke="#cee7ff" stroke-linecap="round" stroke-linejoin="round" stroke-width="1.25"/>
    <path d="M7.95 -6.05 L7.95 -3.95 4.15 -3.95 Q2.7 -4.0 2.7 -2.4 2.75 -0.75 3.85 -0.75 L5.15 -0.75 Q8.4 -0.75 8.4 2.7 L8.4 3.15 Q8.4 6.7 4.6 6.7 L0.7 6.7 0.7 4.6 4.95 4.6 Q6.35 4.6 6.4 3.1 L6.4 3.0 Q6.35 1.35 5.15 1.35 L3.8 1.35 Q0.7 1.35 0.7 -2.25 L0.7 -2.7 Q0.7 -6.1 4.45 -6.05 L7.95 -6.05 M-0.6 -6.0 L-3.5 6.7 -5.85 6.7 -8.6 -6.0 -6.45 -6.0 -4.65 2.8 -2.7 -6.0 -0.6 -6.0" fill="#000033" fill-rule="evenodd" stroke="none"/>
  </g>
</svg>
