<?xml version="1.0" encoding="UTF-8" standalone="no"?>
<svg xmlns:xlink="http://www.w3.org/1999/xlink" height="22.3px" width="22.35px" xmlns="http://www.w3.org/2000/svg">
  <g transform="matrix(1.0, 0.0, 0.0, 1.0, 11.3, 11.15)">
    <path d="M10.55 -0.05 Q10.55 4.35 7.45 7.5 4.3 10.6 -0.1 10.65 -4.55 10.6 -7.65 7.5 -10.8 4.35 -10.8 -0.05 -10.8 -4.45 -7.65 -7.55 -4.55 -10.7 -0.1 -10.65 4.3 -10.7 7.45 -7.55 10.55 -4.45 10.55 -0.05 Z" fill="none" stroke="#3627a0" stroke-linecap="round" stroke-linejoin="round" stroke-opacity="0.53333336" stroke-width="1.0"/>
    <path d="M6.55 -6.5 Q9.25 -3.8 9.25 0.05 9.25 3.85 6.55 6.55 3.85 9.2 0.05 9.25 -3.75 9.2 -6.45 6.55 -9.15 3.85 -9.15 0.05 -9.15 -3.8 -6.45 -6.5 -3.75 -9.2 0.05 -9.2 3.85 -9.2 6.55 -6.5" fill="url(#gradient0)" fill-rule="evenodd" stroke="none"/>
    <path d="M-1.5 2.45 L1.25 2.6 1.85 2.6 4.05 2.25 4.35 3.55 4.25 4.9 Q3.9 6.05 2.9 6.75 L0.8 7.0 Q-0.3 6.7 -0.85 5.65 -1.2 5.0 -1.2 4.25 L-1.5 2.45 M1.6 4.35 L1.25 2.6 1.6 4.35" fill="url(#gradient1)" fill-rule="evenodd" stroke="none"/>
    <path d="M-1.5 2.45 L1.25 2.6 1.85 2.6 4.05 2.25 6.75 1.4 M4.05 2.25 L4.35 3.55 4.25 4.9 Q3.9 6.05 2.9 6.75 L0.8 7.0 Q-0.3 6.7 -0.85 5.65 -1.2 5.0 -1.2 4.25 L-1.5 2.45 Q-6.3 1.9 -6.0 1.65 M1.25 2.6 L1.6 4.35" fill="none" stroke="#382293" stroke-linecap="round" stroke-linejoin="round" stroke-width="0.05"/>
  </g>
  <defs>
    <radialGradient cx="0" cy="0" gradientTransform="matrix(0.0131, 0.0, 0.0, 0.0131, 0.65, 1.5)" gradientUnits="userSpaceOnUse" id="gradient0" r="819.2" spreadMethod="pad">
      <stop offset="0.2549019607843137" stop-color="#d1d2f5"/>
      <stop offset="0.8666666666666667" stop-color="#8d79e1"/>
      <stop offset="0.996078431372549" stop-color="#5b30d0"/>
    </radialGradient>
    <radialGradient cx="0" cy="0" gradientTransform="matrix(0.0054, 0.0015, -0.0015, 0.0054, 2.5, 4.55)" gradientUnits="userSpaceOnUse" id="gradient1" r="819.2" spreadMethod="pad">
      <stop offset="0.42745098039215684" stop-color="#ffffff"/>
      <stop offset="0.8274509803921568" stop-color="#bcd5ed"/>
      <stop offset="1.0" stop-color="#498ccd"/>
    </radialGradient>
  </defs>
</svg>
