<?xml version="1.0" encoding="UTF-8" standalone="no"?>
<svg xmlns:xlink="http://www.w3.org/1999/xlink" height="22.3px" width="22.35px" xmlns="http://www.w3.org/2000/svg">
  <g transform="matrix(1.0, 0.0, 0.0, 1.0, 11.3, 11.15)">
    <path d="M10.55 -0.05 Q10.55 4.35 7.45 7.5 4.3 10.6 -0.1 10.65 -4.55 10.6 -7.65 7.5 -10.8 4.35 -10.8 -0.05 -10.8 -4.45 -7.65 -7.55 -4.55 -10.7 -0.1 -10.65 4.3 -10.7 7.45 -7.55 10.55 -4.45 10.55 -0.05 Z" fill="none" stroke="#25a351" stroke-linecap="round" stroke-linejoin="round" stroke-opacity="0.53333336" stroke-width="1.0"/>
    <path d="M6.55 -6.5 Q9.25 -3.8 9.25 0.05 9.25 3.85 6.55 6.55 3.85 9.2 0.05 9.25 -3.75 9.2 -6.45 6.55 -9.15 3.85 -9.15 0.05 -9.15 -3.8 -6.45 -6.5 -3.75 -9.2 0.05 -9.2 3.85 -9.2 6.55 -6.5" fill="url(#gradient0)" fill-rule="evenodd" stroke="none"/>
  </g>
  <defs>
    <radialGradient cx="0" cy="0" gradientTransform="matrix(0.0131, 0.0, 0.0, 0.0131, 0.65, 1.5)" gradientUnits="userSpaceOnUse" id="gradient0" r="819.2" spreadMethod="pad">
      <stop offset="0.2549019607843137" stop-color="#baefd7"/>
      <stop offset="0.8666666666666667" stop-color="#22c472"/>
      <stop offset="0.996078431372549" stop-color="#339b66"/>
    </radialGradient>
  </defs>
</svg>
