<?xml version="1.0" encoding="UTF-8" standalone="no"?>
<svg xmlns:xlink="http://www.w3.org/1999/xlink" height="22.3px" width="22.35px" xmlns="http://www.w3.org/2000/svg">
  <g transform="matrix(1.0, 0.0, 0.0, 1.0, 11.3, 11.15)">
    <path d="M10.55 -0.05 Q10.55 4.35 7.45 7.5 4.3 10.6 -0.1 10.65 -4.55 10.6 -7.65 7.5 -10.8 4.35 -10.8 -0.05 -10.8 -4.45 -7.65 -7.55 -4.55 -10.7 -0.1 -10.65 4.3 -10.7 7.45 -7.55 10.55 -4.45 10.55 -0.05 Z" fill="none" stroke="#ad1b1c" stroke-linecap="round" stroke-linejoin="round" stroke-opacity="0.53333336" stroke-width="1.0"/>
    <path d="M6.55 -6.5 Q9.25 -3.8 9.25 0.05 9.25 3.85 6.55 6.55 3.85 9.2 0.05 9.25 -3.75 9.2 -6.45 6.55 -9.15 3.85 -9.15 0.05 -9.15 -3.8 -6.45 -6.5 -3.75 -9.2 0.05 -9.2 3.85 -9.2 6.55 -6.5" fill="url(#gradient0)" fill-rule="evenodd" stroke="none"/>
    <path d="M5.9 5.55 L5.25 6.35 Q3.95 8.05 -0.75 7.3 -5.5 6.55 -6.95 4.1 -7.45 2.95 -7.05 1.8 L-7.0 1.6 Q-6.75 0.55 -6.1 -0.3 L-1.85 3.2 Q0.8 5.15 2.85 5.85 L3.2 5.9 Q5.25 6.15 5.9 5.55 M-2.05 5.05 Q-2.9 4.45 -3.7 4.15 L-5.05 4.15 -5.05 3.45 Q-6.1 2.75 -7.0 1.6 -6.1 2.75 -5.05 3.45 L-5.05 4.15 -3.7 4.15 Q-2.9 4.45 -2.05 5.05" fill="url(#gradient1)" fill-rule="evenodd" stroke="none"/>
    <path d="M7.5 -3.1 Q6.75 -3.6 6.35 -3.4 5.05 -1.05 2.45 0.75 L1.45 0.4 M-6.55 -3.1 L-5.45 -3.4 Q-4.15 -1.05 -1.5 0.75 L-0.5 0.4" fill="none" stroke="#4f0b0b" stroke-linecap="round" stroke-linejoin="round" stroke-width="0.5"/>
    <path d="M-7.0 1.6 Q-6.1 2.75 -5.05 3.45 L-5.05 4.15 -3.7 4.15 Q-2.9 4.45 -2.05 5.05" fill="none" stroke="#659ed5" stroke-linecap="round" stroke-linejoin="round" stroke-width="0.05"/>
    <path d="M5.9 5.55 L5.25 6.35 M-6.95 4.1 Q-7.45 2.95 -7.05 1.8 L-7.0 1.6 Q-6.75 0.55 -6.1 -0.3" fill="none" stroke="#790606" stroke-linecap="round" stroke-linejoin="round" stroke-width="0.05"/>
    <path d="M5.25 6.35 Q3.95 8.05 -0.75 7.3 -5.5 6.55 -6.95 4.1" fill="none" stroke="#ac0909" stroke-linecap="round" stroke-linejoin="round" stroke-width="0.05"/>
    <path d="M-6.1 -0.3 L-1.85 3.2 Q0.8 5.15 2.85 5.85 L3.2 5.9 Q5.25 6.15 5.9 5.55" fill="none" stroke="#450303" stroke-linecap="round" stroke-linejoin="round" stroke-width="0.05"/>
  </g>
  <defs>
    <radialGradient cx="0" cy="0" gradientTransform="matrix(0.0131, 0.0, 0.0, 0.0131, 0.65, 1.5)" gradientUnits="userSpaceOnUse" id="gradient0" r="819.2" spreadMethod="pad">
      <stop offset="0.2549019607843137" stop-color="#f5bc38"/>
      <stop offset="0.8549019607843137" stop-color="#ea6533"/>
      <stop offset="0.996078431372549" stop-color="#be0a0a"/>
    </radialGradient>
    <radialGradient cx="0" cy="0" gradientTransform="matrix(0.0093, 0.0, 0.0, 0.0093, 0.05, 3.65)" gradientUnits="userSpaceOnUse" id="gradient1" r="819.2" spreadMethod="pad">
      <stop offset="0.42745098039215684" stop-color="#ffffff"/>
      <stop offset="0.8274509803921568" stop-color="#bcd5ed"/>
      <stop offset="1.0" stop-color="#498ccd"/>
    </radialGradient>
  </defs>
</svg>
