<?xml version="1.0" encoding="UTF-8" standalone="no"?>
<svg xmlns:xlink="http://www.w3.org/1999/xlink" height="34.9px" width="118.25px" xmlns="http://www.w3.org/2000/svg">
  <g transform="matrix(1.0, 0.0, 0.0, 1.0, 50.8, 14.75)">
    <path d="M65.95 -7.85 Q65.95 -10.1 64.35 -11.7 62.75 -13.3 60.55 -13.25 L-43.9 -13.25 Q-46.1 -13.3 -47.75 -11.7 -49.35 -10.05 -49.3 -7.85" fill="none" stroke="#1a7ca2" stroke-linecap="round" stroke-linejoin="round" stroke-width="3.0"/>
    <path d="M-49.3 -7.85 L-49.3 6.95 Q-49.35 9.2 -47.75 10.8 -46.2 12.35 -43.9 12.35 L55.7 12.35 53.65 18.65 64.35 10.8 Q65.95 9.2 65.95 6.95 L65.95 -7.85 Z" fill="none" stroke="#115768" stroke-linecap="round" stroke-linejoin="round" stroke-width="3.0"/>
    <path d="M64.35 -11.7 Q65.95 -10.1 65.95 -7.85 L65.95 6.95 Q65.95 9.2 64.35 10.8 L53.65 18.65 55.7 12.35 -43.9 12.35 Q-46.2 12.35 -47.75 10.8 -49.35 9.2 -49.3 6.95 L-49.3 -7.85 Q-49.35 -10.05 -47.75 -11.7 -46.1 -13.3 -43.9 -13.25 L60.55 -13.25 Q62.75 -13.3 64.35 -11.7" fill="#ffffff" fill-rule="evenodd" stroke="none"/>
    <path d="M64.35 -11.7 Q62.75 -13.3 60.55 -13.25 L-43.9 -13.25 Q-46.1 -13.3 -47.75 -11.7 -49.35 -10.05 -49.3 -7.85 L-49.3 6.95 Q-49.35 9.2 -47.75 10.8 -46.2 12.35 -43.9 12.35 L55.7 12.35 53.65 18.65 64.35 10.8 Q65.95 9.2 65.95 6.95 L65.95 -7.85 Q65.95 -10.1 64.35 -11.7 Z" fill="none" stroke="#092b33" stroke-linecap="round" stroke-linejoin="round" stroke-opacity="0.47058824" stroke-width="1.5"/>
  </g>
</svg>
