<?xml version="1.0" encoding="UTF-8" standalone="no"?>
<svg xmlns:xlink="http://www.w3.org/1999/xlink" height="47.9px" width="149.1px" xmlns="http://www.w3.org/2000/svg">
  <g transform="matrix(1.0, 0.0, 0.0, 1.0, 81.65, 19.75)">
    <path d="M65.95 -12.15 Q65.9 -14.7 63.9 -16.5 61.85 -18.3 59.1 -18.25 L-73.3 -18.25 Q-76.1 -18.3 -78.2 -16.5 -80.25 -14.65 -80.15 -12.15" fill="none" stroke="#1a7ca2" stroke-linecap="round" stroke-linejoin="round" stroke-width="3.0"/>
    <path d="M-80.15 -12.15 L-80.15 13.5 Q-80.25 16.0 -78.2 17.8 -76.25 19.55 -73.3 19.55 L52.95 19.55 50.35 26.65 63.9 17.8 Q65.9 16.0 65.95 13.5 L65.95 -12.15 Z" fill="none" stroke="#115768" stroke-linecap="round" stroke-linejoin="round" stroke-width="3.0"/>
    <path d="M63.9 -16.5 Q65.9 -14.7 65.95 -12.15 L65.95 13.5 Q65.9 16.0 63.9 17.8 L50.35 26.65 52.95 19.55 -73.3 19.55 Q-76.25 19.55 -78.2 17.8 -80.25 16.0 -80.15 13.5 L-80.15 -12.15 Q-80.25 -14.65 -78.2 -16.5 -76.1 -18.3 -73.3 -18.25 L59.1 -18.25 Q61.85 -18.3 63.9 -16.5" fill="#ffffff" fill-rule="evenodd" stroke="none"/>
    <path d="M63.9 -16.5 Q61.85 -18.3 59.1 -18.25 L-73.3 -18.25 Q-76.1 -18.3 -78.2 -16.5 -80.25 -14.65 -80.15 -12.15 L-80.15 13.5 Q-80.25 16.0 -78.2 17.8 -76.25 19.55 -73.3 19.55 L52.95 19.55 50.35 26.65 63.9 17.8 Q65.9 16.0 65.95 13.5 L65.95 -12.15 Q65.9 -14.7 63.9 -16.5 Z" fill="none" stroke="#092b33" stroke-linecap="round" stroke-linejoin="round" stroke-opacity="0.47058824" stroke-width="1.5"/>
  </g>
</svg>
