<?xml version="1.0" encoding="UTF-8" standalone="no"?>
<svg xmlns:xlink="http://www.w3.org/1999/xlink" height="75.85px" width="135.7px" xmlns="http://www.w3.org/2000/svg">
  <g transform="matrix(1.0, 0.0, 0.0, 1.0, 70.35, 29.1)">
    <path d="M63.85 -21.25 Q63.8 -23.9 62.0 -25.75 60.15 -27.65 57.6 -27.6 L-62.6 -27.6 Q-65.2 -27.65 -67.1 -25.75 -68.95 -23.85 -68.85 -21.25" fill="none" stroke="#1a7ca2" stroke-linecap="round" stroke-linejoin="round" stroke-width="3.0"/>
    <path d="M-68.85 -21.25 L-68.85 31.4 -68.8 32.35 Q-68.6 34.4 -67.1 36.0 -65.3 37.8 -62.6 37.8 L52.05 37.8 49.65 45.25 62.0 36.0 Q63.5 34.4 63.8 32.35 L63.85 31.4 63.85 -21.25 Z" fill="none" stroke="#115768" stroke-linecap="round" stroke-linejoin="round" stroke-width="3.0"/>
    <path d="M57.6 -27.6 Q60.15 -27.65 62.0 -25.75 63.8 -23.9 63.85 -21.25 L63.85 31.4 63.8 32.35 Q63.5 34.4 62.0 36.0 L49.65 45.25 52.05 37.8 -62.6 37.8 Q-65.3 37.8 -67.1 36.0 -68.6 34.4 -68.8 32.35 L-68.85 31.4 -68.85 -21.25 Q-68.95 -23.85 -67.1 -25.75 -65.2 -27.65 -62.6 -27.6 L57.6 -27.6" fill="#ffffff" fill-rule="evenodd" stroke="none"/>
    <path d="M57.6 -27.6 L-62.6 -27.6 Q-65.2 -27.65 -67.1 -25.75 -68.95 -23.85 -68.85 -21.25 L-68.85 31.4 -68.8 32.35 Q-68.6 34.4 -67.1 36.0 -65.3 37.8 -62.6 37.8 L52.05 37.8 49.65 45.25 62.0 36.0 Q63.5 34.4 63.8 32.35 L63.85 31.4 63.85 -21.25 Q63.8 -23.9 62.0 -25.75 60.15 -27.65 57.6 -27.6 Z" fill="none" stroke="#092b33" stroke-linecap="round" stroke-linejoin="round" stroke-opacity="0.47058824" stroke-width="1.5"/>
  </g>
</svg>
