<?xml version="1.0" encoding="UTF-8" standalone="no"?>
<svg xmlns:xlink="http://www.w3.org/1999/xlink" height="19.75px" width="16.95px" xmlns="http://www.w3.org/2000/svg">
  <g transform="matrix(1.0, 0.0, 0.0, 1.0, 8.45, 8.35)">
    <path d="M0.15 9.35 Q4.2 6.9 5.9 2.95 L6.75 -4.7 Q-0.45 -8.35 -6.7 -4.7 L-5.7 2.95 Q-3.85 7.0 0.15 9.35 M0.45 11.35 L-0.05 11.35 Q-4.65 8.6 -7.1 2.95 L-8.45 -6.05 Q-0.5 -10.65 8.5 -6.05 L7.35 2.95 Q5.1 8.45 0.45 11.35" fill="#329ac0" fill-rule="evenodd" stroke="none"/>
    <path d="M0.2 8.5 Q-3.55 6.35 -5.15 2.75 L-6.05 -4.2 Q-0.3 -7.55 6.2 -4.2 L5.3 2.75 Q3.75 6.3 0.2 8.5" fill="url(#gradient0)" fill-rule="evenodd" stroke="none"/>
  </g>
  <defs>
    <radialGradient cx="0" cy="0" gradientTransform="matrix(0.0208, 0.0, 0.0, 0.0117, -1.1, -2.0)" gradientUnits="userSpaceOnUse" id="gradient0" r="819.2" spreadMethod="pad">
      <stop offset="0.0" stop-color="#dff2f4"/>
      <stop offset="1.0" stop-color="#6cb5db"/>
    </radialGradient>
  </defs>
</svg>
