<?xml version="1.0" encoding="UTF-8" standalone="no"?>
<svg xmlns:xlink="http://www.w3.org/1999/xlink" height="19.75px" width="16.95px" xmlns="http://www.w3.org/2000/svg">
  <g transform="matrix(1.0, 0.0, 0.0, 1.0, 8.45, 8.35)">
    <path d="M8.5 -6.05 L7.35 2.95 Q6.15 5.85 4.35 8.0 2.65 9.95 0.45 11.35 L-0.05 11.35 Q-2.3 10.0 -4.0 8.0 L-5.2 6.45 -7.1 2.95 -8.45 -6.05 Q-1.25 -10.2 6.8 -6.85 L8.5 -6.05 M0.15 9.35 L2.1 8.0 Q4.65 5.9 5.9 2.95 L6.75 -4.7 Q0.4 -7.9 -5.2 -5.45 L-6.7 -4.7 -5.7 2.95 -5.2 3.95 Q-3.9 6.3 -1.8 8.0 L0.15 9.35" fill="url(#gradient0)" fill-rule="evenodd" stroke="none"/>
    <path d="M0.2 8.5 L-0.6 8.0 Q-3.75 5.95 -5.15 2.75 L-5.2 2.55 -6.05 -4.2 -5.2 -4.65 Q0.2 -7.3 6.2 -4.2 L5.3 2.75 Q3.9 5.9 0.95 8.0 L0.2 8.5" fill="url(#gradient1)" fill-rule="evenodd" stroke="none"/>
  </g>
  <defs>
    <linearGradient gradientTransform="matrix(0.0103, 0.0, 0.0, 0.0121, 0.0, 1.5)" gradientUnits="userSpaceOnUse" id="gradient0" spreadMethod="pad" x1="-819.2" x2="819.2">
      <stop offset="0.0" stop-color="#ffffff" stop-opacity="0.3019608"/>
      <stop offset="1.0" stop-color="#000000" stop-opacity="0.17254902"/>
    </linearGradient>
    <linearGradient gradientTransform="matrix(0.0038, 0.0025, -0.0049, 0.0073, 2.65, 4.2)" gradientUnits="userSpaceOnUse" id="gradient1" spreadMethod="pad" x1="-819.2" x2="819.2">
      <stop offset="0.0" stop-color="#ffffff" stop-opacity="0.3019608"/>
      <stop offset="1.0" stop-color="#000000" stop-opacity="0.17254902"/>
    </linearGradient>
  </defs>
</svg>
