<?xml version="1.0" encoding="UTF-8" standalone="no"?>
<svg xmlns:xlink="http://www.w3.org/1999/xlink" height="38.35px" width="36.35px" xmlns="http://www.w3.org/2000/svg">
  <g transform="matrix(1.0, 0.0, 0.0, 1.0, 21.4, 20.65)">
    <path d="M0.4 -19.3 L1.85 -19.8 3.8 -18.3 4.85 -15.6 Q4.45 -13.4 3.55 -12.3 L2.05 -11.7 2.15 -11.7 1.7 -11.6 1.6 -11.15 1.75 -10.85 3.35 -10.75 4.8 -9.55 5.2 -9.75 8.05 -7.55 9.65 -6.9 12.1 -4.8 12.7 -4.6 14.95 -3.0 14.05 -3.0 14.85 -1.35 13.75 -2.4 14.0 -0.55 13.65 -0.9 13.3 -0.65 12.7 -2.1 12.25 -0.85 12.05 -2.5 11.45 -2.95 11.25 -3.75 Q7.65 -5.7 4.0 -7.7 L4.0 -8.1 2.9 -8.65 2.95 -3.35 3.9 0.55 3.9 1.9 4.15 1.9 3.95 6.7 4.55 9.6 4.25 13.45 4.45 15.4 5.0 17.0 4.35 17.7 3.45 17.7 2.1 16.0 2.2 11.85 1.65 8.4 1.65 6.75 1.0 2.25 1.2 2.2 1.0 0.95 -0.05 0.95 -0.3 2.2 -0.05 2.25 -0.8 6.75 -0.75 8.4 -1.3 11.85 -1.2 16.0 -2.55 17.7 -3.45 17.7 -4.1 17.0 -3.55 15.4 -3.3 13.45 -3.65 9.6 -3.1 6.7 -3.3 1.9 -2.95 1.9 -2.95 0.55 Q-3.3 0.5 -1.95 -3.25 L-2.0 -8.65 -3.1 -8.1 -3.1 -7.7 -10.4 -3.75 -10.55 -2.95 -11.1 -2.5 -11.35 -0.85 -11.75 -2.1 -12.25 -1.05 Q-13.7 -1.65 -14.0 -3.0 L-11.8 -4.6 -11.2 -4.8 -8.75 -6.9 -7.15 -7.55 -4.25 -9.75 -3.9 -9.55 -2.45 -10.75 -0.8 -10.85 -0.45 -11.15 -0.45 -11.6 -0.75 -11.7 -0.55 -11.7 -2.5 -12.25 -3.25 -13.65 -3.85 -15.3 -2.7 -18.3 -0.55 -19.8 0.4 -19.3" fill="#ffffff" fill-rule="evenodd" stroke="none"/>
    <path d="M-21.35 -20.65 L-21.3 -20.65 -19.95 -19.85 -19.95 -19.8 -15.55 -11.2 -15.6 -11.2 -13.0 -6.2 -12.85 -6.2 -12.0 -6.95 -11.6 -7.15 -11.6 -7.3 -11.35 -7.6 -10.9 -7.65 Q-10.65 -7.6 -10.55 -7.4 L-10.35 -7.05 Q-10.0 -6.6 -10.2 -6.0 L-10.7 -6.45 -11.6 -6.2 -12.3 -5.75 -12.25 -5.7 -12.2 -5.6 -12.2 -4.95 -12.25 -4.75 -12.2 -4.7 -12.0 -4.2 -11.6 -3.35 -11.05 -2.4 -10.7 -1.95 -10.5 -1.65 -10.4 -1.7 -10.35 -1.7 -10.3 -1.7 -10.3 -1.65 -10.15 -0.95 -10.15 -0.9 -10.5 -0.35 -10.55 -0.35 -11.15 -0.35 -11.2 -0.4 -11.75 -0.9 -11.75 -1.0 -11.7 -1.0 -11.6 -1.1 -11.8 -1.55 -12.0 -2.05 -12.3 -2.7 -12.65 -3.4 -13.2 -4.25 -13.2 -4.3 -13.4 -4.35 -13.95 -4.8 -14.0 -4.85 -14.7 -4.55 -15.4 -3.95 -15.35 -3.25 Q-15.9 -3.4 -16.05 -4.0 L-16.25 -4.3 -16.3 -4.75 -16.05 -5.1 -15.6 -5.15 -15.45 -5.1 -15.1 -5.3 -14.05 -5.5 -14.05 -5.55 -13.95 -5.7 -14.0 -5.7 -16.85 -10.85 -16.9 -10.8 -17.55 -11.95 -17.45 -12.0 -17.45 -12.05 -17.45 -12.1 -17.5 -12.05 -21.4 -19.0 -21.4 -19.05 -21.4 -20.6 -21.35 -20.65" fill="#ffffff" fill-rule="evenodd" stroke="none"/>
  </g>
</svg>
