<?xml version="1.0" encoding="UTF-8" standalone="no"?>
<svg xmlns:xlink="http://www.w3.org/1999/xlink" height="4.5px" width="5.85px" xmlns="http://www.w3.org/2000/svg">
  <g transform="matrix(1.0, 0.0, 0.0, 1.0, 2.9, 2.25)">
    <path d="M1.95 -1.05 L2.65 -0.55 2.95 0.6 2.65 1.75 1.95 2.25 Q1.55 2.25 1.3 1.75 1.0 1.3 1.0 0.6 1.0 -0.1 1.3 -0.55 1.55 -1.05 1.95 -1.05 M1.7 -0.3 L1.5 -0.1 1.3 0.6 1.5 1.3 1.95 1.6 2.4 1.3 2.6 0.6 2.6 0.25 2.7 -0.05 2.5 -0.4 2.15 -0.55 1.8 -0.4 1.7 -0.3 M-2.45 -1.6 L-2.55 -1.5 -2.7 -0.9 -2.55 -0.3 Q-2.45 -0.05 -2.25 -0.05 -2.05 -0.05 -1.9 -0.3 L-1.75 -0.9 -1.8 -1.2 -1.75 -1.4 -1.9 -1.75 -2.15 -1.85 -2.4 -1.75 -2.45 -1.6 M-2.7 -1.85 L-2.25 -2.25 -1.75 -1.85 -1.55 -0.9 -1.75 0.05 -2.25 0.45 -2.7 0.05 -2.9 -0.9 -2.7 -1.85" fill="#339933" fill-rule="evenodd" stroke="none"/>
    <path d="M1.7 -0.3 L1.65 -0.05 1.8 0.3 2.15 0.5 2.5 0.3 2.6 0.25 2.6 0.6 2.4 1.3 1.95 1.6 1.5 1.3 1.3 0.6 1.5 -0.1 1.7 -0.3 M-1.8 -1.2 L-1.75 -0.9 -1.9 -0.3 Q-2.05 -0.05 -2.25 -0.05 -2.45 -0.05 -2.55 -0.3 L-2.7 -0.9 -2.55 -1.5 -2.45 -1.6 -2.5 -1.4 -2.4 -1.1 Q-2.3 -1.0 -2.15 -1.0 L-1.9 -1.1 -1.8 -1.2" fill="#000000" fill-rule="evenodd" stroke="none"/>
    <path d="M2.6 0.25 L2.5 0.3 2.15 0.5 1.8 0.3 1.65 -0.05 1.7 -0.3 1.8 -0.4 2.15 -0.55 2.5 -0.4 2.7 -0.05 2.6 0.25 M-1.8 -1.2 L-1.9 -1.1 -2.15 -1.0 Q-2.3 -1.0 -2.4 -1.1 L-2.5 -1.4 -2.45 -1.6 -2.4 -1.75 -2.15 -1.85 -1.9 -1.75 -1.75 -1.4 -1.8 -1.2" fill="#ffffff" fill-rule="evenodd" stroke="none"/>
  </g>
</svg>
