<?xml version="1.0" encoding="UTF-8" standalone="no"?>
<svg xmlns:xlink="http://www.w3.org/1999/xlink" height="23.8px" width="9.35px" xmlns="http://www.w3.org/2000/svg">
  <g transform="matrix(1.0, 0.0, 0.0, 1.0, 8.15, 1.85)">
    <path d="M-5.15 -1.5 L-5.25 -1.5 -5.15 -1.55 -5.15 -1.5" fill="#89a58a" fill-rule="evenodd" stroke="none"/>
    <path d="M-5.15 -1.5 L-5.15 -1.45 -5.3 -1.5 -5.25 -1.5 -5.15 -1.5" fill="#7a98fe" fill-rule="evenodd" stroke="none"/>
    <path d="M-6.55 11.95 L-7.05 16.85 Q-7.15 19.25 -6.4 20.75 L-7.05 20.2 Q-7.65 18.95 -8.15 15.85 L-7.9 14.25 -7.5 11.85 -6.55 11.95 M-4.4 21.75 Q-5.3 20.2 -5.25 16.9 L-4.9 12.2 -0.9 12.75 -0.55 16.85 Q-0.5 19.6 -1.25 21.15 L-1.65 21.85 -4.4 21.75" fill="#d2c0b7" fill-rule="evenodd" stroke="none"/>
    <path d="M-5.3 -1.5 L-5.15 -1.45 -5.35 0.45 -6.2 0.3 Q-5.85 -0.8 -5.3 -1.5 M-4.15 0.6 L-4.0 -1.75 -2.15 -1.8 -1.95 0.95 -4.15 0.6" fill="#bda097" fill-rule="evenodd" stroke="none"/>
    <path d="M-5.15 -1.45 L-5.15 -1.5 -5.15 -1.55 -5.05 -1.55 -4.0 -1.75 -4.15 0.6 -5.35 0.45 -5.15 -1.45 M-2.15 -1.8 L-0.85 -1.5 -0.3 -1.25 0.1 0.55 0.25 1.25 -1.95 0.95 -2.15 -1.8" fill="#976c62" fill-rule="evenodd" stroke="none"/>
    <path d="M-6.55 11.95 L-4.9 12.2 -5.25 16.9 Q-5.3 20.2 -4.4 21.75 L-5.5 21.35 -5.9 21.15 -6.4 20.75 Q-7.15 19.25 -7.05 16.85 L-6.55 11.95 M-0.9 12.75 L0.95 13.05 1.0 13.65 1.2 16.85 Q0.85 19.7 0.1 21.5 L-1.4 21.85 -1.65 21.85 -1.25 21.15 Q-0.5 19.6 -0.55 16.85 L-0.9 12.75" fill="#a47c73" fill-rule="evenodd" stroke="none"/>
    <path d="M-5.25 -1.5 L-5.3 -1.5 Q-5.85 -0.8 -6.2 0.3 M-4.0 -1.75 L-5.05 -1.55 -5.15 -1.55 -5.15 -1.5 M-4.0 -1.75 L-2.15 -1.8 -0.85 -1.5 -0.3 -1.25 0.1 0.55 0.25 1.25 M-6.4 20.75 L-5.9 21.15 -5.5 21.35 -4.4 21.75 -1.65 21.85 -1.4 21.85 0.1 21.5 Q0.85 19.7 1.2 16.85 L1.0 13.65 0.95 13.05 M-7.5 11.85 L-7.9 14.25 -8.15 15.85 Q-7.65 18.95 -7.05 20.2 L-6.4 20.75" fill="none" stroke="#6a4e44" stroke-linecap="round" stroke-linejoin="round" stroke-width="0.05"/>
    <path d="M-6.75 4.0 Q-6.65 1.8 -6.2 0.3 L-5.35 0.45 -5.7 3.8 -5.7 3.85 -6.75 4.0 M-4.15 0.6 L-1.95 0.95 -1.65 4.3 Q-2.75 3.7 -4.35 3.75 L-4.15 0.6" fill="#bda097" fill-rule="evenodd" stroke="none"/>
    <path d="M0.25 1.25 L0.8 8.9 Q0.5 5.6 -1.45 4.4 L-1.65 4.3 -1.95 0.95 0.25 1.25 M-5.35 0.45 L-4.15 0.6 -4.35 3.75 -5.6 3.8 -5.7 3.8 -5.35 0.45" fill="#976c62" fill-rule="evenodd" stroke="none"/>
    <path d="M-0.9 12.75 L-4.9 12.2 -4.35 3.75 Q-2.75 3.7 -1.65 4.3 L-0.9 12.75 M-6.55 11.95 L-7.5 11.85 -7.25 10.25 Q-6.95 8.45 -6.75 4.0 L-5.7 3.85 -6.55 11.95" fill="#d2c0b7" fill-rule="evenodd" stroke="none"/>
    <path d="M0.8 8.9 L0.95 13.05 -0.9 12.75 -1.65 4.3 -1.45 4.4 Q0.5 5.6 0.8 8.9 M-4.9 12.2 L-6.55 11.95 -5.7 3.85 -5.6 3.8 -4.35 3.75 -4.9 12.2" fill="#a47c73" fill-rule="evenodd" stroke="none"/>
    <path d="M-5.6 3.8 L-5.7 3.85 -5.7 3.8 -5.6 3.8" fill="#89a58a" fill-rule="evenodd" stroke="none"/>
    <path d="M0.25 1.25 L0.8 8.9 0.95 13.05 M-7.5 11.85 L-7.25 10.25 Q-6.95 8.45 -6.75 4.0 -6.65 1.8 -6.2 0.3" fill="none" stroke="#6a4e44" stroke-linecap="round" stroke-linejoin="round" stroke-width="0.05"/>
  </g>
</svg>
