<?xml version="1.0" encoding="UTF-8" standalone="no"?>
<svg xmlns:xlink="http://www.w3.org/1999/xlink" height="19.85px" width="15.95px" xmlns="http://www.w3.org/2000/svg">
  <g transform="matrix(1.0, 0.0, 0.0, 1.0, 7.85, 10.0)">
    <path d="M0.25 4.75 L-2.0 5.15 -6.2 3.6 -7.65 1.7 -7.65 0.6 -7.2 -0.7 -1.45 1.4 Q0.05 1.7 0.25 3.55 L0.25 4.75" fill="#ffffff" fill-rule="evenodd" stroke="none"/>
    <path d="M-2.6 2.0 L-2.5 1.9 Q-2.35 1.75 -2.15 1.75 L-1.8 1.9 -1.6 2.25 -1.7 2.55 -1.8 2.6 -2.15 2.8 -2.5 2.6 -2.65 2.25 -2.6 2.0 M-6.75 0.7 L-6.7 0.55 -6.45 0.45 Q-6.3 0.45 -6.2 0.55 L-6.05 0.9 -6.1 1.1 -6.2 1.2 -6.45 1.3 -6.7 1.2 -6.8 0.9 -6.75 0.7" fill="#ffffff" fill-rule="evenodd" stroke="none"/>
    <path d="M-1.7 2.55 L-1.7 2.9 -1.9 3.6 -2.35 3.9 -2.8 3.6 -3.0 2.9 -2.8 2.2 -2.6 2.0 -2.65 2.25 -2.5 2.6 -2.15 2.8 -1.8 2.6 -1.7 2.55 M-6.75 0.7 L-6.8 0.9 -6.7 1.2 -6.45 1.3 -6.2 1.2 -6.1 1.1 -6.1 1.4 -6.2 2.0 -6.55 2.25 -6.85 2.0 -7.0 1.4 -6.85 0.8 -6.75 0.7" fill="#000000" fill-rule="evenodd" stroke="none"/>
    <path d="M-1.7 2.55 L-1.6 2.25 -1.8 1.9 -2.15 1.75 Q-2.35 1.75 -2.5 1.9 L-2.6 2.0 -2.8 2.2 -3.0 2.9 -2.8 3.6 -2.35 3.9 -1.9 3.6 -1.7 2.9 -1.7 2.55 M-1.35 2.9 Q-1.35 3.6 -1.65 4.05 -1.95 4.55 -2.35 4.55 -2.75 4.55 -3.05 4.05 L-3.3 2.9 Q-3.35 2.2 -3.05 1.75 -2.75 1.25 -2.35 1.25 -1.95 1.25 -1.65 1.75 -1.35 2.2 -1.35 2.9 M-5.85 1.4 L-6.05 2.35 -6.55 2.75 -7.0 2.35 -7.2 1.4 -7.0 0.45 -6.55 0.05 Q-6.25 0.05 -6.05 0.45 L-5.85 1.4 M-6.1 1.1 L-6.05 0.9 -6.2 0.55 Q-6.3 0.45 -6.45 0.45 L-6.7 0.55 -6.75 0.7 -6.85 0.8 -7.0 1.4 -6.85 2.0 -6.55 2.25 -6.2 2.0 -6.1 1.4 -6.1 1.1" fill="#99cc00" fill-rule="evenodd" stroke="none"/>
    <path d="M6.5 3.25 L6.4 3.35 6.45 3.2 6.5 3.25" fill="#f5dfc5" fill-rule="evenodd" stroke="none"/>
    <path d="M-5.95 1.5 L-5.85 3.0 -6.2 2.95 -5.95 1.5 M-6.35 4.65 Q-6.05 5.05 -5.55 5.3 -6.5 5.6 -6.35 4.65" fill="#efc8a0" fill-rule="evenodd" stroke="none"/>
    <path d="M-7.55 1.25 L-7.75 0.2 -7.85 -1.35 -7.5 -3.25 Q-6.8 -5.65 -4.95 -7.45 -2.4 -10.0 0.95 -10.0 3.1 -10.0 4.75 -8.9 8.35 -4.25 0.65 2.1 L1.5 4.55 Q1.7 7.7 -3.05 9.85 -6.3 7.35 -6.7 5.2 L-7.4 1.75 Q-7.0 2.6 -6.2 2.95 L-5.85 3.0 -5.95 1.5 -6.05 0.2 Q-7.05 -1.0 -7.55 1.25 M-6.35 4.65 Q-5.95 4.05 -5.85 3.0 -5.95 4.05 -6.35 4.65 -6.5 5.6 -5.55 5.3 -6.05 5.05 -6.35 4.65 M6.2 3.05 Q6.05 2.6 5.25 2.45 4.75 2.75 4.55 3.25 4.15 3.15 4.05 1.95 4.45 1.35 5.1 1.25 5.85 1.05 6.1 1.8 L6.2 3.05 M-2.85 1.35 Q-3.45 2.35 -3.6 3.95 L-0.65 4.15 Q-0.8 1.4 -2.85 1.35 M-3.0 7.65 Q-5.05 7.5 -5.6 6.7 -5.05 7.5 -3.0 7.65" fill="#ffeadf" fill-rule="evenodd" stroke="none"/>
    <path d="M4.75 -8.9 L6.3 -7.45 Q7.8 -5.7 8.05 -3.35 L8.05 -3.05 8.05 -1.35 Q7.75 1.15 6.5 3.25 L6.45 3.2 6.4 3.35 6.05 3.9 5.9 4.2 5.7 4.75 5.55 5.05 5.4 5.25 5.25 5.45 4.9 5.7 4.8 5.7 4.0 6.65 1.2 8.6 Q-1.05 9.85 -3.05 9.85 1.7 7.7 1.5 4.55 L0.65 2.1 Q8.35 -4.25 4.75 -8.9 M5.25 2.45 Q6.05 2.6 6.2 3.05 L6.1 1.8 Q5.85 1.05 5.1 1.25 4.45 1.35 4.05 1.95 4.15 3.15 4.55 3.25 4.75 2.75 5.25 2.45 M4.9 4.9 L4.75 4.2 4.3 4.1 4.3 3.95 Q4.35 3.55 4.55 3.25 4.35 3.55 4.3 3.95 L4.3 4.1 4.75 4.2 4.9 4.9 M6.05 3.9 L6.2 3.05 6.05 3.9" fill="#ffdfce" fill-rule="evenodd" stroke="none"/>
    <path d="M-7.55 1.25 L-7.75 0.2 -7.85 -1.35 -7.5 -3.25 Q-6.8 -5.65 -4.95 -7.45 -2.4 -10.0 0.95 -10.0 3.1 -10.0 4.75 -8.9 L6.3 -7.45 Q7.8 -5.7 8.05 -3.35 L8.05 -3.05 8.05 -1.35 Q7.75 1.15 6.5 3.25 L6.4 3.35 6.05 3.9 5.9 4.2 5.7 4.75 5.55 5.05 5.4 5.25 5.25 5.45 4.9 5.7 4.8 5.7 4.0 6.65 1.2 8.6 Q-1.05 9.85 -3.05 9.85 -6.3 7.35 -6.7 5.2 L-7.4 1.75 -7.55 1.35 -7.55 1.25 Q-7.05 -1.0 -6.05 0.2 L-5.95 1.5 -5.85 3.0 Q-5.95 4.05 -6.35 4.65 -6.5 5.6 -5.55 5.3 M5.25 2.45 Q4.75 2.75 4.55 3.25 4.35 3.55 4.3 3.95 L4.3 4.1 4.75 4.2 4.9 4.9 M4.05 1.95 Q4.45 1.35 5.1 1.25 5.85 1.05 6.1 1.8 L6.2 3.05 6.05 3.9 M-2.85 1.35 Q-3.45 2.35 -3.6 3.95 L-0.65 4.15 Q-0.8 1.4 -2.85 1.35 M-7.4 1.75 L-7.55 1.25 M-6.2 2.95 Q-7.0 2.6 -7.4 1.75 M-6.2 2.95 L-5.95 1.5 M-5.6 6.7 Q-5.05 7.5 -3.0 7.65" fill="none" stroke="#d7995e" stroke-linecap="round" stroke-linejoin="round" stroke-width="0.05"/>
  </g>
</svg>
