<?xml version="1.0" encoding="UTF-8" standalone="no"?>
<svg xmlns:xlink="http://www.w3.org/1999/xlink" height="23.8px" width="8.6px" xmlns="http://www.w3.org/2000/svg">
  <g transform="matrix(1.0, 0.0, 0.0, 1.0, 7.45, 1.85)">
    <path d="M-5.15 -1.55 L-5.15 -1.5 -5.25 -1.5 -5.15 -1.55 M-5.7 3.85 L-5.7 3.8 -5.6 3.8 -5.7 3.85" fill="#89a58a" fill-rule="evenodd" stroke="none"/>
    <path d="M-5.25 -1.5 L-5.15 -1.5 -5.15 -1.45 -5.3 -1.5 -5.25 -1.5" fill="#7a98fe" fill-rule="evenodd" stroke="none"/>
    <path d="M-5.15 -1.5 L-5.15 -1.55 -5.05 -1.55 -4.0 -1.75 -2.15 -1.8 -0.85 -1.5 -0.3 -1.25 0.1 0.55 0.25 1.25 0.8 8.9 Q0.5 5.6 -1.45 4.4 L-1.65 4.3 Q-2.75 3.7 -4.35 3.75 L-5.6 3.8 -5.7 3.8 -5.7 3.85 -6.75 4.0 Q-6.65 1.8 -6.2 0.3 -5.85 -0.8 -5.3 -1.5 L-5.15 -1.45 -5.15 -1.5" fill="#4a5371" fill-rule="evenodd" stroke="none"/>
    <path d="M-6.75 4.0 L-5.7 3.85 -5.6 3.8 -4.35 3.75 Q-2.75 3.7 -1.65 4.3 L-1.45 4.4 Q0.5 5.6 0.8 8.9 L0.9 9.75 1.15 12.8 1.15 14.25 Q1.1 17.2 0.4 20.2 L0.1 21.5 -1.4 21.85 -1.65 21.85 -4.4 21.75 -5.5 21.35 -5.9 21.15 -6.4 20.75 -7.05 20.2 -7.45 14.95 -7.45 13.4 -7.4 10.3 -7.4 10.25 -6.75 4.0" fill="#556280" fill-rule="evenodd" stroke="none"/>
    <path d="M-5.15 -1.5 L-5.15 -1.55 -5.05 -1.55 -4.0 -1.75 -2.15 -1.8 -0.85 -1.5 -0.3 -1.25 0.1 0.55 0.25 1.25 0.8 8.9 0.9 9.75 1.15 12.8 1.15 14.25 Q1.1 17.2 0.4 20.2 L0.1 21.5 -1.4 21.85 -1.65 21.85 -4.4 21.75 -5.5 21.35 -5.9 21.15 -6.4 20.75 -7.05 20.2 -7.45 14.95 -7.45 13.4 -7.4 10.3 -7.4 10.25 -6.75 4.0 Q-6.65 1.8 -6.2 0.3 -5.85 -0.8 -5.3 -1.5 L-5.25 -1.5" fill="none" stroke="#000033" stroke-linecap="round" stroke-linejoin="round" stroke-width="0.05"/>
  </g>
</svg>
