<?xml version="1.0" encoding="UTF-8" standalone="no"?>
<svg xmlns:xlink="http://www.w3.org/1999/xlink" height="7.25px" width="14.7px" xmlns="http://www.w3.org/2000/svg">
  <g transform="matrix(1.0, 0.0, 0.0, 1.0, 7.9, 2.55)">
    <path d="M5.45 -2.3 Q6.4 -1.85 6.55 -0.25 L6.8 2.85 Q6.45 4.8 2.85 4.7 L-1.8 4.55 -5.7 4.45 Q-8.65 3.2 -7.6 0.3 L-6.0 -0.75 Q-1.6 -3.2 5.45 -2.3 M-6.0 -0.75 Q-4.75 0.0 -6.1 2.15 -6.7 3.1 -3.5 3.7 2.5 4.05 6.8 2.85 2.5 4.05 -3.5 3.7 -6.7 3.1 -6.1 2.15 -4.75 0.0 -6.0 -0.75" fill="#64889b" fill-rule="evenodd" stroke="none"/>
    <path d="M-7.6 0.3 L-6.0 -0.75 Q-1.6 -3.2 5.45 -2.3" fill="none" stroke="#3f3872" stroke-linecap="round" stroke-linejoin="round" stroke-width="0.05"/>
    <path d="M5.45 -2.3 Q6.4 -1.85 6.55 -0.25 L6.8 2.85 Q6.45 4.8 2.85 4.7 L-1.8 4.55 -5.7 4.45 Q-8.65 3.2 -7.6 0.3 M6.8 2.85 Q2.5 4.05 -3.5 3.7 -6.7 3.1 -6.1 2.15 -4.75 0.0 -6.0 -0.75" fill="none" stroke="#3f3872" stroke-linecap="round" stroke-linejoin="round" stroke-width="0.05"/>
  </g>
</svg>
