<?xml version="1.0" encoding="UTF-8" standalone="no"?>
<svg xmlns:xlink="http://www.w3.org/1999/xlink" height="21.3px" width="6.85px" xmlns="http://www.w3.org/2000/svg">
  <g transform="matrix(1.0, 0.0, 0.0, 1.0, 5.0, 25.8)">
    <path d="M1.55 -18.2 L0.75 -5.2 -1.2 -4.95 Q-2.3 -5.15 -3.05 -5.6 -3.0 -10.8 -3.9 -15.7 -4.4 -17.45 -4.2 -20.2 -4.0 -22.55 -3.45 -24.65 L-2.4 -25.75 Q-0.45 -26.0 0.65 -24.2 1.35 -21.7 1.5 -18.65 L1.55 -18.2" fill="#ffdfc8" fill-rule="evenodd" stroke="none"/>
    <path d="M1.55 -18.2 L1.5 -18.65 Q1.35 -21.7 0.65 -24.2 -0.45 -26.0 -2.4 -25.75 L-3.45 -24.65 Q-4.0 -22.55 -4.2 -20.2 -4.4 -17.45 -3.9 -15.7 -3.0 -10.8 -3.05 -5.6 -2.3 -5.15 -1.2 -4.95 L0.75 -5.2 1.55 -18.2 Z" fill="none" stroke="#d7995e" stroke-linecap="round" stroke-linejoin="round" stroke-width="0.05"/>
    <path d="M1.35 -21.4 Q2.1 -15.2 1.75 -6.15 1.6 -4.5 -0.9 -4.5 -3.15 -4.55 -4.2 -6.15 -4.35 -13.3 -5.0 -21.55 L-4.95 -21.55 Q-4.15 -20.35 -1.6 -20.5 0.9 -20.65 1.35 -21.4" fill="#64889b" fill-rule="evenodd" stroke="none"/>
    <path d="M-4.95 -21.55 L-4.95 -21.6 Q-5.15 -22.95 -1.85 -22.75 0.25 -22.65 1.35 -21.4 0.9 -20.65 -1.6 -20.5 -4.15 -20.35 -4.95 -21.55" fill="#4e517a" fill-rule="evenodd" stroke="none"/>
    <path d="M1.75 -6.15 Q1.6 -4.5 -0.9 -4.5 -3.15 -4.55 -4.2 -6.15 -4.35 -13.3 -5.0 -21.55 L-4.95 -21.55 -4.95 -21.6 M-1.6 -20.5 Q-4.15 -20.35 -4.95 -21.55 L-5.0 -21.55" fill="none" stroke="#3f3872" stroke-linecap="round" stroke-linejoin="round" stroke-width="0.05"/>
    <path d="M1.35 -21.4 Q2.1 -15.2 1.75 -6.15 M-4.95 -21.6 Q-5.15 -22.95 -1.85 -22.75 0.25 -22.65 1.35 -21.4 0.9 -20.65 -1.6 -20.5" fill="none" stroke="#3f3872" stroke-linecap="round" stroke-linejoin="round" stroke-width="0.05"/>
  </g>
</svg>
