<?xml version="1.0" encoding="UTF-8" standalone="no"?>
<svg xmlns:xlink="http://www.w3.org/1999/xlink" height="4.45px" width="6.0px" xmlns="http://www.w3.org/2000/svg">
  <g transform="matrix(1.0, 0.0, 0.0, 1.0, 8.15, 2.65)">
    <path d="M-8.15 -1.7 L-7.8 -2.65 -3.45 -1.05 Q-2.3 -0.85 -2.15 0.6 L-2.15 1.45 -3.85 1.8 -7.05 0.6 -8.15 -0.85 -8.15 -1.7" fill="#ffffff" fill-rule="evenodd" stroke="none"/>
    <path d="M-7.75 -1.85 L-7.4 -2.15 -7.0 -1.85 -6.85 -1.15 Q-6.85 -0.7 -7.0 -0.4 L-7.4 -0.1 -7.75 -0.4 -7.9 -1.15 -7.75 -1.85 M-7.55 -1.65 L-7.65 -1.6 -7.75 -1.15 -7.65 -0.7 -7.4 -0.5 -7.15 -0.7 -7.05 -1.15 -7.05 -1.4 -7.05 -1.55 -7.1 -1.8 -7.3 -1.9 -7.5 -1.8 -7.55 -1.65 M-3.25 -0.05 L-3.2 -0.25 -3.35 -0.5 -3.6 -0.6 -3.85 -0.5 -3.9 -0.4 -4.0 -0.3 -4.15 0.2 -4.0 0.7 -3.7 0.9 -3.35 0.7 -3.25 0.2 -3.25 -0.05 M-3.2 -0.6 L-3.0 0.2 -3.2 1.05 -3.7 1.35 -4.15 1.05 -4.35 0.2 -4.15 -0.6 -3.7 -0.95 Q-3.4 -0.95 -3.2 -0.6" fill="#0099ff" fill-rule="evenodd" stroke="none"/>
    <path d="M-7.05 -1.4 L-7.05 -1.15 -7.15 -0.7 -7.4 -0.5 -7.65 -0.7 -7.75 -1.15 -7.65 -1.6 -7.55 -1.65 -7.6 -1.55 -7.5 -1.3 -7.3 -1.2 -7.1 -1.3 -7.1 -1.35 -7.05 -1.4 M-3.9 -0.4 L-3.95 -0.25 -3.85 0.05 -3.6 0.15 -3.35 0.05 -3.25 -0.05 -3.25 0.2 -3.35 0.7 -3.7 0.9 -4.0 0.7 -4.15 0.2 -4.0 -0.3 -3.9 -0.4" fill="#000000" fill-rule="evenodd" stroke="none"/>
    <path d="M-7.55 -1.65 L-7.5 -1.8 -7.3 -1.9 -7.1 -1.8 -7.05 -1.55 -7.05 -1.4 -7.1 -1.35 -7.1 -1.3 -7.3 -1.2 -7.5 -1.3 -7.6 -1.55 -7.55 -1.65 M-3.9 -0.4 L-3.85 -0.5 -3.6 -0.6 -3.35 -0.5 -3.2 -0.25 -3.25 -0.05 -3.35 0.05 -3.6 0.15 -3.85 0.05 -3.95 -0.25 -3.9 -0.4" fill="#ffffff" fill-rule="evenodd" stroke="none"/>
  </g>
</svg>
