<?xml version="1.0" encoding="UTF-8" standalone="no"?>
<svg xmlns:xlink="http://www.w3.org/1999/xlink" height="30.7px" width="17.5px" xmlns="http://www.w3.org/2000/svg">
  <g transform="matrix(1.0, 0.0, 0.0, 1.0, 10.2, 13.1)">
    <path d="M-3.85 -11.7 L-3.9 -12.15 -4.0 -12.95 -2.8 -13.05 -1.2 -13.1 -0.8 -13.1 0.35 -13.05 0.4 -13.05 0.75 -13.05 0.75 -12.45 Q0.65 -10.15 1.15 -8.15 L1.2 -8.0 1.3 -7.75 1.2 -8.0 1.6 -7.9 1.6 -7.75 1.3 -7.75 0.2 -7.65 Q-0.15 -9.45 -0.8 -10.75 -3.35 -10.95 -3.85 -11.7" fill="#ffd0ae" fill-rule="evenodd" stroke="none"/>
    <path d="M-3.85 -11.7 Q-3.35 -10.95 -0.8 -10.75 -0.15 -9.45 0.2 -7.65 L-4.35 -7.35 -4.4 -7.35 -4.35 -7.45 -4.45 -8.6 -4.05 -8.65 -4.35 -7.45 -4.05 -8.65 Q-3.8 -10.1 -3.85 -11.7" fill="#ffdfc8" fill-rule="evenodd" stroke="none"/>
    <path d="M1.2 -8.0 L1.15 -8.15 Q0.65 -10.15 0.75 -12.45 L0.75 -13.05 0.4 -13.05 0.35 -13.05 -0.8 -13.1 -1.2 -13.1 -2.8 -13.05 -4.0 -12.95 -3.9 -12.15 -3.85 -11.7 Q-3.8 -10.1 -4.05 -8.65 L-4.35 -7.45 -4.4 -7.35 M1.3 -7.75 L1.2 -8.0 1.6 -7.9 M-4.05 -8.65 L-4.45 -8.6 M-0.8 -13.1 L0.4 -13.05" fill="none" stroke="#d7995e" stroke-linecap="round" stroke-linejoin="round" stroke-width="0.05"/>
    <path d="M6.15 0.75 L5.65 2.3 4.1 5.6 Q3.55 7.15 3.85 8.65 L3.95 9.05 Q4.1 9.65 4.4 10.25 L5.25 11.45 5.65 12.2 6.15 13.35 6.2 13.4 4.3 14.25 2.65 14.75 2.75 13.55 3.0 12.2 3.0 12.1 2.7 11.45 2.6 11.25 1.65 9.5 1.45 9.2 1.3 9.0 1.2 8.85 0.5 7.95 -0.9 6.6 Q-1.8 5.95 -3.3 5.75 -4.85 5.55 -6.35 7.5 -6.45 6.5 -6.85 5.2 L-7.2 4.35 -7.4 3.55 Q-8.3 3.35 -8.95 2.7 L-9.35 2.3 Q-9.95 1.6 -10.1 0.65 -9.7 1.9 -8.6 2.5 L-7.3 2.75 -4.5 3.55 -2.6 4.2 -2.15 4.25 -2.0 4.3 -2.0 4.25 -1.8 4.3 Q1.75 5.05 2.75 3.1 3.4 1.4 2.5 -1.55 2.25 -2.25 1.2 -2.7 L0.0 -2.7 Q1.3 -4.55 2.1 -6.7 L2.5 -7.8 4.15 -6.95 Q3.35 -5.3 3.3 -3.45 3.3 -1.5 4.1 -0.6 L4.4 0.25 Q5.2 1.8 6.15 0.75 M-7.4 3.55 L-7.1 3.6 -6.9 3.65 -1.7 5.3 0.25 5.6 Q2.1 5.5 3.3 4.15 4.55 2.8 4.45 0.95 L4.4 0.25 4.45 0.95 Q4.55 2.8 3.3 4.15 2.1 5.5 0.25 5.6 L-1.7 5.3 -6.9 3.65 -7.1 3.6 -7.4 3.55" fill="#c5afa0" fill-rule="evenodd" stroke="none"/>
    <path d="M4.15 -6.95 L4.4 -6.85 5.55 -6.3 5.95 -6.05 6.9 -5.5 7.15 -5.35 7.3 -5.25 7.3 -5.2 7.2 -4.3 7.05 -3.3 6.15 0.75 Q5.2 1.8 4.4 0.25 L4.1 -0.6 Q3.3 -1.5 3.3 -3.45 3.35 -5.3 4.15 -6.95 M-9.0 -4.2 Q-8.95 -4.9 -9.05 -5.2 L-9.2 -6.3 -9.05 -7.45 -9.0 -7.7 -8.95 -8.05 -7.75 -8.35 -8.95 -4.2 -9.0 -4.2 M-5.65 -8.65 L-4.85 -8.8 -4.2 -9.65 Q-3.15 -8.45 1.1 -9.4 1.65 -8.8 1.8 -8.15 L2.5 -7.8 2.1 -6.7 Q1.3 -4.55 0.0 -2.7 L-6.75 -4.05 Q-6.7 -5.95 -5.95 -7.9 L-5.65 -8.65 M1.3 -6.8 Q1.7 -7.05 1.8 -8.15 1.7 -7.05 1.3 -6.8 M-4.5 -6.65 L-4.95 -7.25 -4.95 -7.55 -4.85 -8.8 -4.95 -7.55 -4.95 -7.25 -4.5 -6.65" fill="#af937e" fill-rule="evenodd" stroke="none"/>
    <path d="M-8.3 13.25 Q-8.0 11.35 -6.95 9.75 L-6.75 9.4 -6.7 9.35 -6.6 9.2 Q-6.3 8.5 -6.35 7.5 -4.85 5.55 -3.3 5.75 -1.8 5.95 -0.9 6.6 L0.5 7.95 1.2 8.85 1.3 9.0 1.45 9.2 1.65 9.5 2.6 11.25 2.7 11.45 3.0 12.1 3.0 12.2 2.75 13.55 2.65 14.75 2.55 14.75 Q0.8 15.0 -4.6 14.6 L-6.15 14.15 -7.85 13.45 -8.3 13.25 M-10.1 0.65 L-10.2 0.0 Q-10.3 -1.75 -9.65 -2.65 L-9.1 -3.75 -9.0 -4.1 -8.95 -4.2 -7.75 -8.35 -7.25 -8.45 -5.65 -8.65 -5.95 -7.9 Q-6.7 -5.95 -6.75 -4.05 L0.0 -2.7 1.2 -2.7 Q2.25 -2.25 2.5 -1.55 3.4 1.4 2.75 3.1 1.75 5.05 -1.8 4.3 L-2.0 4.25 -2.0 4.3 -2.15 4.25 -2.6 4.2 -4.5 3.55 -7.3 2.75 -8.6 2.5 Q-9.7 1.9 -10.1 0.65" fill="#d2c0b7" fill-rule="evenodd" stroke="none"/>
    <path d="M6.2 13.4 Q7.2 14.25 7.05 15.7 4.65 16.6 1.9 17.2 L1.95 17.0 Q2.1 15.9 2.55 14.75 L2.65 14.75 4.3 14.25 6.2 13.4" fill="#a8866f" fill-rule="evenodd" stroke="none"/>
    <path d="M1.9 17.2 L-1.05 17.6 -2.95 17.5 -4.45 17.25 -6.0 16.65 Q-7.4 16.0 -8.55 14.85 -8.8 14.15 -8.65 13.5 L-8.55 13.1 Q-8.45 13.15 -8.3 13.25 L-7.85 13.45 -6.15 14.15 -4.6 14.6 Q0.8 15.0 2.55 14.75 2.1 15.9 1.95 17.0 L1.9 17.2" fill="#c0ab98" fill-rule="evenodd" stroke="none"/>
    <path d="M-8.95 -8.05 L-7.75 -8.35 -7.25 -8.45" fill="none" stroke="#305054" stroke-linecap="round" stroke-linejoin="round" stroke-width="0.05"/>
    <path d="M-6.75 9.4 L-6.7 9.35 -6.6 9.2 Q-6.3 8.5 -6.35 7.5 -6.45 6.5 -6.85 5.2" fill="none" stroke="#685942" stroke-linecap="round" stroke-linejoin="round" stroke-width="0.05"/>
    <path d="M4.15 -6.95 L4.4 -6.85 5.55 -6.3 5.95 -6.05 6.9 -5.5 7.15 -5.35 7.3 -5.25 7.3 -5.2 7.2 -4.3 7.05 -3.3 6.15 0.75 5.65 2.3 4.1 5.6 Q3.55 7.15 3.85 8.65 L3.95 9.05 Q4.1 9.65 4.4 10.25 L5.25 11.45 5.65 12.2 6.15 13.35 6.2 13.4 Q7.2 14.25 7.05 15.7 4.65 16.6 1.9 17.2 L-1.05 17.6 -2.95 17.5 -4.45 17.25 -6.0 16.65 Q-7.4 16.0 -8.55 14.85 -8.8 14.15 -8.65 13.5 L-8.55 13.1 Q-8.45 13.15 -8.3 13.25 -8.0 11.35 -6.95 9.75 L-6.75 9.4 M-6.85 5.2 L-7.2 4.35 -7.4 3.55 Q-8.3 3.35 -8.95 2.7 L-9.35 2.3 Q-9.95 1.6 -10.1 0.65 L-10.2 0.0 Q-10.3 -1.75 -9.65 -2.65 L-9.1 -3.75 -9.0 -4.1 -9.0 -4.2 Q-8.95 -4.9 -9.05 -5.2 M-7.25 -8.45 L-5.65 -8.65 -4.85 -8.8 -4.2 -9.65 Q-3.15 -8.45 1.1 -9.4 1.65 -8.8 1.8 -8.15 L2.5 -7.8 4.15 -6.95 Q3.35 -5.3 3.3 -3.45 3.3 -1.5 4.1 -0.6 L4.4 0.25 Q5.2 1.8 6.15 0.75 M2.5 -7.8 L2.1 -6.7 Q1.3 -4.55 0.0 -2.7 L-6.75 -4.05 Q-6.7 -5.95 -5.95 -7.9 L-5.65 -8.65 M1.8 -8.15 Q1.7 -7.05 1.3 -6.8 M4.4 0.25 L4.45 0.95 Q4.55 2.8 3.3 4.15 2.1 5.5 0.25 5.6 L-1.7 5.3 -6.9 3.65 -7.1 3.6 -7.4 3.55 M2.65 14.75 L2.55 14.75 Q0.8 15.0 -4.6 14.6 L-6.15 14.15 -7.85 13.45 -8.3 13.25 M6.2 13.4 L4.3 14.25 2.65 14.75 M-4.85 -8.8 L-4.95 -7.55 -4.95 -7.25 -4.5 -6.65 M-8.95 -4.2 L-9.0 -4.1 M-7.75 -8.35 L-8.95 -4.2" fill="none" stroke="#594337" stroke-linecap="round" stroke-linejoin="round" stroke-width="0.05"/>
  </g>
</svg>
