<?xml version="1.0" encoding="UTF-8" standalone="no"?>
<svg xmlns:xlink="http://www.w3.org/1999/xlink" height="17.2px" width="8.3px" xmlns="http://www.w3.org/2000/svg">
  <g transform="matrix(1.0, 0.0, 0.0, 1.0, 4.15, 1.1)">
    <path d="M2.9 -0.65 Q4.15 -0.2 4.15 0.45 4.15 1.1 2.9 1.6 L0.0 2.0 -2.95 1.6 Q-4.15 1.1 -4.15 0.45 -4.15 -0.2 -2.95 -0.65 L0.0 -1.1 2.9 -0.65" fill="#7397ca" fill-rule="evenodd" stroke="none"/>
    <path d="M2.9 -0.65 Q4.15 -0.2 4.15 0.45 4.15 1.1 2.9 1.6 L0.0 2.0 -2.95 1.6 Q-4.15 1.1 -4.15 0.45 -4.15 -0.2 -2.95 -0.65 L0.0 -1.1 2.9 -0.65 Z" fill="none" stroke="#163d69" stroke-linecap="round" stroke-linejoin="round" stroke-width="0.05"/>
    <path d="M2.3 16.05 Q-0.15 7.15 0.05 -0.15 1.65 -0.1 3.35 0.9 1.7 7.75 2.3 16.05" fill="#ffffcc" fill-rule="evenodd" stroke="none"/>
    <path d="M2.3 16.05 L2.2 16.1 Q-2.1 9.6 -3.35 0.9 L-3.2 0.7 Q-1.65 -0.2 0.05 -0.15 -0.15 7.15 2.3 16.05" fill="#ffffec" fill-rule="evenodd" stroke="none"/>
    <path d="M0.05 -0.15 Q-1.65 -0.2 -3.2 0.7 L-3.35 0.9 Q-2.1 9.6 2.2 16.1 L2.3 16.05 Q1.7 7.75 3.35 0.9 1.65 -0.1 0.05 -0.15 Z" fill="none" stroke="#a9a801" stroke-linecap="round" stroke-linejoin="round" stroke-width="0.05"/>
  </g>
</svg>
