<?xml version="1.0" encoding="UTF-8" standalone="no"?>
<svg xmlns:xlink="http://www.w3.org/1999/xlink" height="15.45px" width="34.85px" xmlns="http://www.w3.org/2000/svg">
  <g transform="matrix(1.0, 0.0, 0.0, 1.0, 17.4, 7.7)">
    <path d="M16.55 -2.9 Q17.45 -1.6 17.45 0.0 17.45 3.2 13.75 5.45 10.4 7.5 5.75 7.7 L5.5 7.7 4.8 7.7 Q-10.2 8.25 -17.4 -1.5 -13.55 -0.25 -8.5 -2.55 -8.3 -0.4 -4.9 1.2 -1.2 2.95 4.0 2.95 9.2 2.95 12.85 1.2 16.55 -0.5 16.55 -2.9" fill="#208a45" fill-rule="evenodd" stroke="none"/>
    <path d="M-8.5 -2.55 L-6.25 -3.8 -4.15 -5.45 Q-0.45 -7.7 4.8 -7.7 10.05 -7.7 13.75 -5.45 15.65 -4.3 16.55 -2.9 16.55 -0.5 12.85 1.2 9.2 2.95 4.0 2.95 -1.2 2.95 -4.9 1.2 -8.3 -0.4 -8.5 -2.55" fill="#2ebe55" fill-rule="evenodd" stroke="none"/>
    <path d="M-8.5 -2.55 L-6.25 -3.8 -4.15 -5.45 Q-0.45 -7.7 4.8 -7.7 10.05 -7.7 13.75 -5.45 15.65 -4.3 16.55 -2.9 17.45 -1.6 17.45 0.0 17.45 3.2 13.75 5.45 10.4 7.5 5.75 7.7 L5.5 7.7 4.8 7.7 Q-10.2 8.25 -17.4 -1.5 -13.55 -0.25 -8.5 -2.55 Z" fill="none" stroke="#155722" stroke-linecap="round" stroke-linejoin="round" stroke-width="0.05"/>
  </g>
</svg>
