<?xml version="1.0" encoding="UTF-8" standalone="no"?>
<svg xmlns:xlink="http://www.w3.org/1999/xlink" height="10.6px" width="12.0px" xmlns="http://www.w3.org/2000/svg">
  <g transform="matrix(1.0, 0.0, 0.0, 1.0, 6.0, 5.3)">
    <path d="M-1.1 0.55 Q-2.7 0.45 -3.9 -0.4 -5.2 -1.3 -5.2 -2.65 L-5.2 -2.8 -4.45 -3.75 Q-3.15 -5.05 -1.45 -5.25 -1.9 -3.45 -0.95 -1.55 -1.35 -0.65 -1.1 0.55 -1.35 -0.65 -0.95 -1.55 -1.9 -3.45 -1.45 -5.25 L0.25 -5.25 Q1.55 -5.25 3.1 -3.45 L3.6 -2.9 3.6 -2.65 Q3.6 -1.3 2.3 -0.4 1.0 0.55 -0.8 0.55 L-1.1 0.55" fill="#2ebe55" fill-rule="evenodd" stroke="none"/>
    <path d="M-5.2 -2.8 L-5.2 -2.65 Q-5.2 -1.3 -3.9 -0.4 -2.7 0.45 -1.1 0.55 L-0.85 1.55 Q-1.65 2.55 -0.65 4.05 -1.7 4.45 -1.45 5.25 -1.7 4.45 -0.65 4.05 -1.65 2.55 -0.85 1.55 L-1.1 0.55 -0.8 0.55 Q1.0 0.55 2.3 -0.4 3.6 -1.3 3.6 -2.65 L3.6 -2.9 Q4.8 -1.7 5.55 -1.6 4.6 -0.9 6.0 0.45 4.6 0.3 5.3 2.0 4.4 2.4 3.05 3.75 1.5 5.3 -0.7 5.3 L-1.45 5.25 Q-3.15 5.05 -4.45 3.75 -6.0 2.2 -6.0 0.0 -6.0 -1.6 -5.2 -2.8" fill="#208a45" fill-rule="evenodd" stroke="none"/>
    <path d="M-5.2 -2.8 Q-6.0 -1.6 -6.0 0.0 -6.0 2.2 -4.45 3.75 -3.15 5.05 -1.45 5.25 -1.7 4.45 -0.65 4.05 -1.65 2.55 -0.85 1.55 L-1.1 0.55 Q-1.35 -0.65 -0.95 -1.55 -1.9 -3.45 -1.45 -5.25 -3.15 -5.05 -4.45 -3.75 L-5.2 -2.8 M-1.45 5.25 L-0.7 5.3 Q1.5 5.3 3.05 3.75 4.4 2.4 5.3 2.0 4.6 0.3 6.0 0.45 4.6 -0.9 5.55 -1.6 4.8 -1.7 3.6 -2.9 L3.1 -3.45 Q1.55 -5.25 0.25 -5.25 L-1.45 -5.25" fill="none" stroke="#155722" stroke-linecap="round" stroke-linejoin="round" stroke-width="0.05"/>
  </g>
</svg>
