<?xml version="1.0" encoding="UTF-8" standalone="no"?>
<svg xmlns:xlink="http://www.w3.org/1999/xlink" height="204.15px" width="134.0px" xmlns="http://www.w3.org/2000/svg">
  <g transform="matrix(1.0, 0.0, 0.0, 1.0, 65.15, 104.9)">
    <path d="M6.1 -76.45 L7.35 -77.05 68.85 -46.8 Q63.15 -43.95 57.45 -41.15 L57.2 -41.15 52.75 -41.2 24.15 -55.25 27.55 -59.5 20.8 -56.9 -4.75 -69.45 -4.55 -70.6 -3.8 -71.55 4.8 -75.8 -3.8 -71.55 -6.3 -70.25 -6.35 -70.25 -65.15 -99.2 -55.7 -103.9 -51.45 -104.9 -47.5 -104.05 5.65 -77.9 Q6.2 -77.85 6.1 -77.45 6.0 -76.9 4.8 -75.8 L6.1 -76.45" fill="#e7c2cb" fill-rule="evenodd" stroke="none"/>
    <path d="M55.75 -39.0 L57.2 -41.0 55.15 -36.3 55.75 -39.0" fill="#bf6457" fill-rule="evenodd" stroke="none"/>
    <path d="M52.75 -41.2 L57.2 -41.15 57.2 -41.0 55.75 -39.0 52.75 -41.2" fill="#e4bdb8" fill-rule="evenodd" stroke="none"/>
    <path d="M55.15 38.05 L44.1 30.1 54.8 30.1 54.95 30.2 Q52.65 34.1 55.15 38.05" fill="#b84769" fill-rule="evenodd" stroke="none"/>
    <path d="M55.15 29.95 L63.75 25.6 Q56.9 30.55 55.15 38.05 52.65 34.1 54.95 30.2 L55.15 29.95" fill="#762e44" fill-rule="evenodd" stroke="none"/>
    <path d="M6.1 -76.45 L4.8 -75.8 Q6.0 -76.9 6.1 -77.45 L6.1 -76.45 M-3.8 -71.55 L-4.55 -70.6 -6.35 -67.5 -6.35 -70.25 -6.3 -70.25 -3.8 -71.55 M20.8 -56.9 Q21.95 -54.45 24.15 -55.25 L22.65 -47.45 20.8 -56.9" fill="#b94a6c" fill-rule="evenodd" stroke="none"/>
    <path d="M-4.55 -70.6 L-4.75 -69.45 -6.35 -67.5 -4.55 -70.6 M20.8 -56.9 L27.55 -59.5 24.15 -55.25 Q21.95 -54.45 20.8 -56.9 M55.75 -39.0 L55.15 -36.3 52.75 -41.2 55.75 -39.0" fill="#d6969f" fill-rule="evenodd" stroke="none"/>
    <path d="M-6.35 -18.25 L-6.35 -24.85 2.9 -18.25 -6.35 -18.25" fill="url(#gradient0)" fill-rule="evenodd" stroke="none"/>
    <path d="M-4.75 -69.45 L20.8 -56.9 22.65 -47.45 24.15 -55.25 52.75 -41.2 55.15 -36.3 55.15 29.95 54.8 30.1 44.1 30.1 55.15 38.05 55.15 99.25 -6.35 69.0 -65.15 40.05 -65.15 -99.2 -6.35 -70.25 -6.35 -67.5 -4.75 -69.45 M-6.35 -18.25 L-6.35 69.0 -6.35 -18.25 2.9 -18.25 -6.35 -24.85 -6.35 -18.25 M-6.35 -67.5 L-6.35 -24.85 -6.35 -67.5" fill="url(#gradient1)" fill-rule="evenodd" stroke="none"/>
    <path d="M57.45 -41.15 Q63.15 -43.95 68.85 -46.8 L68.85 92.45 55.15 99.25 55.15 38.05 Q56.9 30.55 63.75 25.6 L55.15 29.95 55.15 -36.3 57.2 -41.0 57.45 -41.15" fill="#a56769" fill-rule="evenodd" stroke="none"/>
    <path d="M68.85 -46.8 L7.35 -77.05 6.1 -76.45 4.8 -75.8 -3.8 -71.55 M-4.75 -69.45 L20.8 -56.9 27.55 -59.5 24.15 -55.25 52.75 -41.2 57.2 -41.15 57.45 -41.15 Q63.15 -43.95 68.85 -46.8 L68.85 92.45 55.15 99.25 -6.35 69.0 -6.35 -18.25 -6.35 -24.85 -6.35 -67.5 M20.8 -56.9 Q21.95 -54.45 24.15 -55.25 L22.65 -47.45 20.8 -56.9 M57.2 -41.0 L55.75 -39.0 55.15 -36.3 57.2 -41.0 57.45 -41.15 M55.75 -39.0 L52.75 -41.2 55.15 -36.3 55.15 29.95 63.75 25.6 Q56.9 30.55 55.15 38.05 L55.15 99.25 M54.8 30.1 L44.1 30.1 55.15 38.05 Q52.65 34.1 54.95 30.2 L55.15 29.95 54.8 30.1 M-6.35 -70.25 L-65.15 -99.2 -65.15 40.05 -6.35 69.0 M-6.3 -70.25 L-6.35 -70.25 M-6.35 -24.85 L2.9 -18.25 -6.35 -18.25" fill="none" stroke="#8b7a54" stroke-linecap="round" stroke-linejoin="round" stroke-width="0.05"/>
    <path d="M-6.35 69.0 L-6.35 69.65 M-65.15 -99.2 L-55.7 -103.9 -51.45 -104.9 -47.5 -104.05 5.65 -77.9 M-6.35 -67.5 L-6.35 -70.25 -6.3 -70.25 -3.8 -71.55" fill="none" stroke="#8b7a54" stroke-linecap="round" stroke-linejoin="round" stroke-width="0.05"/>
    <path d="M-3.8 -71.55 L-4.55 -70.6 -4.75 -69.45 -6.35 -67.5 -4.55 -70.6 M5.65 -77.9 Q6.2 -77.85 6.1 -77.45 L6.1 -76.45 M6.1 -77.45 Q6.0 -76.9 4.8 -75.8" fill="none" stroke="#756646" stroke-linecap="round" stroke-linejoin="round" stroke-width="0.05"/>
  </g>
  <defs>
    <linearGradient gradientTransform="matrix(1.0, 0.0, 0.0, 1.0, 0.0, 0.0)" gradientUnits="userSpaceOnUse" id="gradient0" spreadMethod="pad" x1="-819.2" x2="819.2">
      <stop offset="0.0" stop-color="#efd7cf"/>
      <stop offset="1.0" stop-color="#bc4e70"/>
    </linearGradient>
    <linearGradient gradientTransform="matrix(0.0409, 0.0545, -0.0702, 0.0527, 2.55, -6.7)" gradientUnits="userSpaceOnUse" id="gradient1" spreadMethod="pad" x1="-819.2" x2="819.2">
      <stop offset="0.0" stop-color="#efd7cf"/>
      <stop offset="1.0" stop-color="#cd7a8d"/>
    </linearGradient>
  </defs>
</svg>
