<?xml version="1.0" encoding="UTF-8" standalone="no"?>
<svg xmlns:xlink="http://www.w3.org/1999/xlink" height="59.7px" width="82.6px" xmlns="http://www.w3.org/2000/svg">
  <g transform="matrix(1.0, 0.0, 0.0, 1.0, 41.3, 29.9)">
    <path d="M-0.15 -26.55 L-0.95 -26.4 -3.15 -26.4 Q-4.0 -26.5 -4.15 -26.8 L-4.15 -26.85 Q-4.25 -27.2 -3.45 -27.5 L-1.35 -27.95 0.55 -28.05 0.8 -28.0 Q1.75 -27.85 1.85 -27.5 L1.8 -27.25 1.1 -26.9 -0.15 -26.55 M-28.55 -3.1 L-27.9 -3.0 -26.7 -2.7 Q-25.7 -2.5 -24.8 -2.1 -23.7 -1.7 -22.65 -1.1 -20.15 0.35 -18.15 2.75 -17.25 3.85 -16.5 5.35 L-15.9 6.6 Q-15.1 8.5 -14.5 10.95 L-13.7 16.05 -13.5 19.4 -13.55 20.15 Q-13.75 25.85 -16.9 28.1 L-17.6 28.55 -18.5 29.05 -19.45 29.4 -19.8 29.5 Q-22.3 30.15 -25.3 29.4 L-27.0 28.85 Q-31.15 27.3 -34.4 23.95 L-37.15 20.55 -37.4 20.15 Q-39.45 17.1 -40.4 13.95 -41.35 10.95 -41.3 7.95 -41.35 6.1 -40.95 4.5 -40.15 0.65 -37.15 -1.5 L-36.8 -1.75 -35.45 -2.45 Q-32.5 -3.7 -28.55 -3.1 M-33.2 10.45 Q-34.4 11.65 -33.85 13.65 -33.35 15.6 -31.4 17.2 -29.45 18.75 -27.2 19.05 -25.25 19.25 -24.05 18.35 L-23.8 18.1 Q-22.65 16.9 -23.15 14.95 -23.7 12.95 -25.6 11.4 -27.55 9.8 -29.75 9.55 L-32.1 9.75 -33.2 10.45 -32.1 9.75 -29.75 9.55 Q-27.55 9.8 -25.6 11.4 -23.7 12.95 -23.15 14.95 -22.65 16.9 -23.8 18.1 L-24.05 18.35 Q-25.25 19.25 -27.2 19.05 -29.45 18.75 -31.4 17.2 -33.35 15.6 -33.85 13.65 -34.4 11.65 -33.2 10.45 M-32.45 2.65 Q-35.7 3.5 -36.75 7.45 -37.85 11.4 -36.05 16.1 -35.2 18.35 -33.9 20.15 -32.55 22.05 -30.7 23.4 -28.55 25.05 -26.45 25.4 L-23.85 25.3 Q-20.65 24.4 -19.55 20.45 L-19.5 20.15 Q-18.55 16.35 -20.25 11.85 -22.05 7.15 -25.6 4.45 -28.85 2.0 -31.8 2.5 L-32.45 2.65 -31.8 2.5 Q-28.85 2.0 -25.6 4.45 -22.05 7.15 -20.25 11.85 -18.55 16.35 -19.5 20.15 L-19.55 20.45 Q-20.65 24.4 -23.85 25.3 L-26.45 25.4 Q-28.55 25.05 -30.7 23.4 -32.55 22.05 -33.9 20.15 -35.2 18.35 -36.05 16.1 -37.85 11.4 -36.75 7.45 -35.7 3.5 -32.45 2.65 M-27.65 15.75 L-27.55 15.7 -27.75 15.8 -27.65 15.75" fill="#d0b38e" fill-rule="evenodd" stroke="none"/>
    <path d="M-4.15 -26.8 Q-4.0 -26.5 -3.15 -26.4 L-0.95 -26.4 -0.15 -26.55 Q-1.4 -22.4 -3.3 -18.3 -3.0 -17.1 -1.45 -17.25 -0.2 -15.95 -3.1 -13.0 L-4.25 -12.7 -6.0 -12.2 Q-9.2 -11.3 -13.65 -10.5 L-13.85 -10.95 Q-14.05 -12.05 -12.25 -14.05 -14.05 -12.05 -13.85 -10.95 L-28.55 -3.1 Q-32.5 -3.7 -35.45 -2.45 L-12.2 -14.55 Q-12.05 -16.25 -10.75 -17.25 -4.65 -22.05 -4.15 -26.8 M-12.15 -12.6 L-12.25 -14.05 -12.2 -14.55 -12.25 -14.05 -12.15 -12.6 M1.7 -19.3 L1.65 -19.35 1.25 -19.45 -0.3 -19.55 0.05 -20.9 15.9 -29.15 19.35 -29.8 21.25 -29.8 6.7 -22.0 1.7 -19.3 M-22.65 -1.1 Q2.4 -15.3 27.6 -27.8 L28.25 -27.55 Q30.6 -26.5 32.65 -24.9 L35.05 -22.8 36.95 -20.65 38.2 -18.95 39.6 -16.6 Q13.25 -1.75 -14.5 10.95 -15.1 8.5 -15.9 6.6 L-16.5 5.35 Q-17.25 3.85 -18.15 2.75 -20.15 0.35 -22.65 -1.1 M-0.35 -11.6 L-11.35 -6.2 -0.35 -11.6 M8.8 -24.3 L17.05 -28.6 8.8 -24.3 M27.8 -21.55 L31.85 -23.8 27.8 -21.55" fill="#836752" fill-rule="evenodd" stroke="none"/>
    <path d="M-0.15 -26.55 L1.1 -26.9 1.8 -27.25 Q1.35 -24.05 0.05 -20.9 L-0.3 -19.55 1.25 -19.45 1.65 -19.35 1.7 -19.3 1.85 -19.25 1.7 -19.3 1.8 -19.3 1.85 -19.25 1.9 -19.2 2.15 -18.85 2.15 -18.7 2.15 -18.45 Q2.55 -17.2 1.7 -16.05 L0.55 -14.95 -1.15 -13.75 Q-1.85 -13.4 -2.65 -13.15 L-3.1 -13.0 -2.65 -13.15 -3.15 -12.95 -3.1 -13.0 Q-0.2 -15.95 -1.45 -17.25 -3.0 -17.1 -3.3 -18.3 -1.4 -22.4 -0.15 -26.55 M-0.35 -18.65 L-0.3 -19.55 -0.35 -18.65 M-13.5 19.4 L-13.7 16.05 -14.5 10.95 Q13.25 -1.75 39.6 -16.6 41.1 -13.7 41.3 -11.0 L41.1 -8.2 41.0 -7.85 Q14.3 6.65 -13.5 19.4 M-2.85 6.05 L-12.75 10.9 -2.85 6.05 M27.4 -3.85 L41.3 -11.0 27.4 -3.85" fill="#735a48" fill-rule="evenodd" stroke="none"/>
    <path d="M-2.65 -13.15 Q-1.85 -13.4 -1.15 -13.75 L0.55 -14.95 1.7 -16.05 Q2.55 -17.2 2.15 -18.45 L2.15 -18.7 2.15 -18.85 1.9 -19.2 1.85 -19.25 1.8 -19.3 1.7 -19.3 6.7 -22.0 21.25 -29.8 22.5 -29.6 Q24.65 -29.15 27.6 -27.8 2.4 -15.3 -22.65 -1.1 -23.7 -1.7 -24.8 -2.1 -25.7 -2.5 -26.7 -2.7 L-27.9 -3.0 -28.55 -3.1 -13.85 -10.95 -13.65 -10.5 Q-9.2 -11.3 -6.0 -12.2 L-4.25 -12.7 -3.1 -13.0 -3.15 -12.95 -2.65 -13.15 M-9.55 -9.6 L-24.8 -2.1 -9.55 -9.6 M1.9 -19.2 L6.7 -22.0 1.9 -19.2 M15.45 -25.15 L5.9 -20.05 15.45 -25.15" fill="#8e7059" fill-rule="evenodd" stroke="none"/>
    <path d="M-16.9 28.1 Q-13.75 25.85 -13.55 20.15 L-13.5 19.4 Q14.3 6.65 41.0 -7.85 40.0 -3.6 38.35 -1.95 L38.1 -1.8 38.15 -1.75 35.3 0.6 26.3 5.95 Q18.25 10.55 5.6 17.2 2.45 18.8 -0.5 20.35 L-16.85 28.25 -16.9 28.1 M-1.9 18.75 L-6.3 20.75 -1.9 18.75 M34.0 0.3 L38.1 -1.8 34.0 0.3 M-2.55 20.15 L-14.55 26.35 -2.55 20.15 M-4.35 16.25 L16.35 5.9 -4.35 16.25 M30.8 1.5 L21.9 6.4 30.8 1.5" fill="#5c493a" fill-rule="evenodd" stroke="none"/>
    <path d="M-0.15 -26.55 L-0.95 -26.4 -3.15 -26.4 Q-4.0 -26.5 -4.15 -26.8 -4.65 -22.05 -10.75 -17.25 -12.05 -16.25 -12.2 -14.55 L-12.25 -14.05 -12.15 -12.6 M1.8 -27.25 L1.85 -27.5 Q1.75 -27.85 0.8 -28.0 L0.55 -28.05 -1.35 -27.95 -3.45 -27.5 Q-4.25 -27.2 -4.15 -26.85 L-4.15 -26.8 M1.8 -27.25 L1.1 -26.9 -0.15 -26.55 M-3.1 -13.0 L-2.65 -13.15 Q-1.85 -13.4 -1.15 -13.75 L0.55 -14.95 1.7 -16.05 M2.15 -18.45 L2.15 -18.7 2.15 -18.85 1.9 -19.2 1.85 -19.25 1.7 -19.3 1.65 -19.35 1.25 -19.45 -0.3 -19.55 -0.35 -18.65 M-28.55 -3.1 L-27.9 -3.0 -26.7 -2.7 Q-25.7 -2.5 -24.8 -2.1 L-9.55 -9.6 M-24.8 -2.1 Q-23.7 -1.7 -22.65 -1.1 -20.15 0.35 -18.15 2.75 -17.25 3.85 -16.5 5.35 L-15.9 6.6 Q-15.1 8.5 -14.5 10.95 L-13.7 16.05 -13.5 19.4 -13.55 20.15 Q-13.75 25.85 -16.9 28.1 L-17.6 28.55 -16.85 28.25 -0.5 20.35 Q2.45 18.8 5.6 17.2 18.25 10.55 26.3 5.95 L35.3 0.6 38.15 -1.75 38.35 -1.95 Q40.0 -3.6 41.0 -7.85 L41.1 -8.2 41.3 -11.0 27.4 -3.85 M27.6 -27.8 Q24.65 -29.15 22.5 -29.6 L21.25 -29.8 19.35 -29.8 15.9 -29.15 0.05 -20.9 Q1.35 -24.05 1.8 -27.25 M6.7 -22.0 L1.9 -19.2 M-13.85 -10.95 L-13.65 -10.5 M-6.0 -12.2 L-4.25 -12.7 -3.1 -13.0 M-12.25 -14.05 Q-14.05 -12.05 -13.85 -10.95 M-28.55 -3.1 Q-32.5 -3.7 -35.45 -2.45 L-36.8 -1.75 -37.15 -1.5 Q-40.15 0.65 -40.95 4.5 -41.35 6.1 -41.3 7.95 -41.35 10.95 -40.4 13.95 -39.45 17.1 -37.4 20.15 L-37.15 20.55 -34.4 23.95 Q-31.15 27.3 -27.0 28.85 L-25.3 29.4 Q-22.3 30.15 -19.8 29.5 L-19.45 29.4 -18.5 29.05 -17.6 28.55 M-0.3 -19.55 L0.05 -20.9 M-11.35 -6.2 L-0.35 -11.6 M-32.45 2.65 L-31.8 2.5 Q-28.85 2.0 -25.6 4.45 -22.05 7.15 -20.25 11.85 -18.55 16.35 -19.5 20.15 L-19.55 20.45 Q-20.65 24.4 -23.85 25.3 L-26.45 25.4 Q-28.55 25.05 -30.7 23.4 -32.55 22.05 -33.9 20.15 -35.2 18.35 -36.05 16.1 -37.85 11.4 -36.75 7.45 -35.7 3.5 -32.45 2.65 M-33.2 10.45 L-32.1 9.75 -29.75 9.55 Q-27.55 9.8 -25.6 11.4 -23.7 12.95 -23.15 14.95 -22.65 16.9 -23.8 18.1 L-24.05 18.35 Q-25.25 19.25 -27.2 19.05 -29.45 18.75 -31.4 17.2 -33.35 15.6 -33.85 13.65 -34.4 11.65 -33.2 10.45 M38.1 -1.8 L34.0 0.3 M-6.3 20.75 L-1.9 18.75 M-12.75 10.9 L-2.85 6.05 M-14.55 26.35 L-2.55 20.15 M-12.2 -14.55 L-35.45 -2.45 M39.6 -16.6 L38.2 -18.95 36.95 -20.65 35.05 -22.8 32.65 -24.9 Q30.6 -26.5 28.25 -27.55 L27.6 -27.8 M38.1 -1.8 L38.35 -1.95 M41.3 -11.0 Q41.1 -13.7 39.6 -16.6 M31.85 -23.8 L27.8 -21.55 M17.05 -28.6 L8.8 -24.3 M21.9 6.4 L30.8 1.5 M16.35 5.9 L-4.35 16.25 M5.9 -20.05 L15.45 -25.15" fill="none" stroke="#61463d" stroke-linecap="round" stroke-linejoin="round" stroke-width="0.05"/>
  </g>
</svg>
