<?xml version="1.0" encoding="UTF-8" standalone="no"?>
<svg xmlns:xlink="http://www.w3.org/1999/xlink" height="36.4px" width="57.95px" xmlns="http://www.w3.org/2000/svg">
  <g transform="matrix(1.0, 0.0, 0.0, 1.0, 22.2, 2.95)">
    <path d="M8.5 -1.65 L9.0 -1.8 12.3 -2.5 16.6 -2.9 17.05 -2.9 21.2 -2.9 21.65 -2.85 23.95 -2.6 25.55 -2.35 29.6 -1.25 32.4 0.0 Q35.35 1.65 35.7 3.9 L35.75 4.2 35.65 5.15 Q35.45 6.25 34.55 7.4 L33.45 8.5 32.8 9.05 32.35 9.35 31.5 9.95 30.05 10.75 28.45 11.5 23.95 8.5 24.8 8.3 Q27.05 7.65 28.35 6.8 L29.55 5.55 29.75 5.2 Q30.6 3.15 27.75 1.35 L27.15 1.0 Q25.2 -0.05 22.55 -0.55 L19.95 -0.95 15.3 -1.05 10.9 -0.35 10.6 -0.25 10.9 -0.35 15.3 -1.05 19.95 -0.95 22.55 -0.55 Q25.2 -0.05 27.15 1.0 L27.75 1.35 Q30.6 3.15 29.75 5.2 L29.55 5.55 28.35 6.8 Q27.05 7.65 24.8 8.3 L23.95 8.5 23.85 8.45 23.6 8.25 20.05 5.95 19.85 5.85 14.2 2.05 14.05 2.0 10.6 -0.25 10.55 -0.3 10.4 -0.4 8.5 -1.65 M19.85 5.85 Q21.4 5.3 22.45 4.45 23.25 3.8 23.45 3.15 L23.35 2.35 Q22.9 1.35 20.95 1.0 L16.65 1.25 Q15.25 1.55 14.2 2.05 15.25 1.55 16.65 1.25 L20.95 1.0 Q22.9 1.35 23.35 2.35 L23.45 3.15 Q23.25 3.8 22.45 4.45 21.4 5.3 19.85 5.85" fill="#d0b38e" fill-rule="evenodd" stroke="none"/>
    <path d="M23.85 10.6 L20.05 8.15 20.05 5.95 23.6 8.25 23.85 8.45 23.85 8.5 23.85 10.6 M14.05 4.3 L10.55 2.05 10.55 -0.25 10.6 -0.25 14.05 2.0 14.05 2.05 14.05 4.3" fill="#9c7663" fill-rule="evenodd" stroke="none"/>
    <path d="M8.5 -1.65 L10.4 -0.4 10.55 -0.3 10.55 -0.25 10.55 2.05 8.5 0.7 8.5 -1.65 M23.95 8.5 L28.45 11.5 30.05 10.75 31.5 9.95 32.35 9.35 32.8 9.05 32.65 11.85 30.05 13.0 28.7 13.7 23.85 10.6 23.85 8.5 23.95 8.5 M30.05 13.0 L30.05 10.75 30.05 13.0" fill="#8e7059" fill-rule="evenodd" stroke="none"/>
    <path d="M14.2 2.05 L14.05 2.05 14.05 2.0 14.2 2.05" fill="#bba093" fill-rule="evenodd" stroke="none"/>
    <path d="M20.05 8.15 L14.05 4.3 14.05 2.05 14.2 2.05 19.85 5.85 20.05 5.95 20.05 8.15" fill="#ab8a7e" fill-rule="evenodd" stroke="none"/>
    <path d="M32.8 9.05 L33.45 8.5 34.55 7.4 Q35.45 6.25 35.65 5.15 L35.65 9.45 Q34.0 11.15 32.65 11.85 L32.8 9.05" fill="#836752" fill-rule="evenodd" stroke="none"/>
    <path d="M35.65 5.15 L35.75 4.2 35.7 3.9 Q35.35 1.65 32.4 0.0 L29.6 -1.25 25.55 -2.35 23.95 -2.6 21.65 -2.85 21.2 -2.9 17.05 -2.9 16.6 -2.9 12.3 -2.5 9.0 -1.8 8.5 -1.65 10.4 -0.4 10.55 -0.3 10.55 -0.25 10.55 2.05 8.5 0.7 8.5 -1.65 M10.6 -0.25 L10.9 -0.35 15.3 -1.05 19.95 -0.95 22.55 -0.55 Q25.2 -0.05 27.15 1.0 L27.75 1.35 Q30.6 3.15 29.75 5.2 L29.55 5.55 28.35 6.8 Q27.05 7.65 24.8 8.3 L23.95 8.5 28.45 11.5 30.05 10.75 31.5 9.95 32.35 9.35 32.8 9.05 33.45 8.5 34.55 7.4 Q35.45 6.25 35.65 5.15 L35.65 9.45 Q34.0 11.15 32.65 11.85 L30.05 13.0 28.7 13.7 23.85 10.6 20.05 8.15 14.05 4.3 10.55 2.05 M10.6 -0.25 L10.55 -0.25 M14.05 2.05 L14.05 4.3 M14.05 2.05 L14.05 2.0 10.6 -0.25 M14.05 2.0 L14.2 2.05 Q15.25 1.55 16.65 1.25 L20.95 1.0 Q22.9 1.35 23.35 2.35 L23.45 3.15 Q23.25 3.8 22.45 4.45 21.4 5.3 19.85 5.85 L20.05 5.95 23.6 8.25 23.85 8.45 23.85 8.5 23.85 10.6 M23.95 8.5 L23.85 8.5 M32.65 11.85 L32.8 9.05 M20.05 5.95 L20.05 8.15 M30.05 10.75 L30.05 13.0 M14.2 2.05 L19.85 5.85" fill="none" stroke="#61463d" stroke-linecap="round" stroke-linejoin="round" stroke-width="0.05"/>
    <path d="M3.65 9.7 L-0.25 7.45 Q-2.3 6.3 -4.35 5.25 L-6.8 3.85 -7.05 3.65 -6.9 3.5 -6.85 3.5 -6.8 3.4 -6.45 3.1 -6.35 3.0 -6.25 2.95 -5.9 2.7 -5.65 2.9 -5.15 3.25 -3.6 4.45 3.7 9.7 3.65 9.7" fill="#836752" fill-rule="evenodd" stroke="none"/>
    <path d="M-7.05 3.65 L-6.8 3.85 -4.35 5.25 Q-2.3 6.3 -0.25 7.45 L3.65 9.7 -6.0 5.65 -6.8 5.05 Q-7.4 4.4 -7.05 3.65" fill="#d0b38e" fill-rule="evenodd" stroke="none"/>
    <path d="M-7.05 3.65 Q-7.4 4.4 -6.8 5.05 L-6.0 5.65 3.65 9.7 3.7 9.7 -3.6 4.45 -5.15 3.25 -5.65 2.9 -5.9 2.7 -6.25 2.95 -6.35 3.0 -6.45 3.1 -6.8 3.4 -6.85 3.5 -6.9 3.5 -7.05 3.65 Z" fill="none" stroke="#61463d" stroke-linecap="round" stroke-linejoin="round" stroke-width="0.05"/>
    <path d="M-5.0 3.7 L-2.1 2.95 -0.4 2.75 2.25 2.65 2.6 2.65 4.7 3.55 4.75 3.6 13.5 7.35 16.65 8.75 14.85 9.05 16.85 10.4 23.7 15.1 23.5 15.05 23.25 14.95 23.15 14.95 23.25 14.95 23.15 14.95 Q8.85 9.55 1.7 6.55 L-2.8 4.65 -4.35 4.0 -5.0 3.7" fill="#735a48" fill-rule="evenodd" stroke="none"/>
    <path d="M23.25 14.95 L23.05 14.9 11.6 11.35 -0.45 7.8 -8.35 5.3 -8.4 5.3 -7.9 5.0 -7.85 5.0 -6.7 4.4 -6.3 4.2 -6.0 4.1 -5.0 3.7 -4.35 4.0 -2.8 4.65 1.7 6.55 Q8.85 9.55 23.15 14.95 L23.25 14.95 M23.05 14.9 L23.15 14.95 23.05 14.9" fill="#836752" fill-rule="evenodd" stroke="none"/>
    <path d="M23.05 14.9 L-5.4 8.45 Q-10.0 6.95 -8.35 5.3 L-0.45 7.8 11.6 11.35 23.05 14.9" fill="#d0b38e" fill-rule="evenodd" stroke="none"/>
    <path d="M2.6 2.65 L8.95 3.3 9.1 3.35 9.15 3.4 9.2 3.4 11.7 4.15 12.3 4.35 19.25 7.15 20.45 8.1 19.75 8.25 16.65 8.75 13.5 7.35 4.75 3.6 4.7 3.55 2.6 2.65 M14.65 6.05 L19.65 8.15 19.75 8.25 19.65 8.15 14.65 6.05 M12.45 4.85 L9.15 3.4 12.45 4.85 M19.65 8.15 L20.45 8.1 19.65 8.15" fill="#5c493a" fill-rule="evenodd" stroke="none"/>
    <path d="M20.45 8.1 L19.6 10.2 16.85 10.4 14.85 9.05 16.65 8.75 19.75 8.25 20.45 8.1" fill="#ab8a7e" fill-rule="evenodd" stroke="none"/>
    <path d="M-5.0 3.7 L-2.1 2.95 -0.4 2.75 2.25 2.65 2.6 2.65 8.95 3.3 9.1 3.35 9.2 3.4 11.7 4.15 12.3 4.35 19.25 7.15 M20.45 8.1 L19.6 10.2 16.85 10.4 M23.5 15.05 L23.25 14.95 23.15 14.95 23.05 14.9 -5.4 8.45 Q-10.0 6.95 -8.35 5.3 M-8.4 5.3 L-7.9 5.0 -7.85 5.0 -6.7 4.4 -6.3 4.2 -6.0 4.1 -5.0 3.7 M19.75 8.25 L19.65 8.15 14.65 6.05 M9.15 3.4 L9.1 3.35 8.95 3.3 M9.15 3.4 L12.45 4.85 M20.45 8.1 L19.65 8.15" fill="none" stroke="#61463d" stroke-linecap="round" stroke-linejoin="round" stroke-width="0.05"/>
    <path d="M-0.6 30.2 L-1.95 30.5 -6.15 31.1 -6.2 31.1 -9.25 31.2 -10.65 31.15 -14.1 30.8 -15.1 30.65 -19.95 29.8 -16.25 27.7 -13.0 28.1 -7.3 28.15 -4.75 27.85 -7.3 28.15 -13.0 28.1 -16.25 27.7 -13.65 26.25 -10.95 24.75 -8.85 25.8 -4.75 27.85 -0.55 29.95 -0.45 30.15 -0.6 30.2 M-13.65 26.25 L-11.6 26.25 -9.95 26.05 -9.25 25.9 -8.85 25.8 -9.25 25.9 -9.95 26.05 -11.6 26.25 -13.65 26.25" fill="#d0b38e" fill-rule="evenodd" stroke="none"/>
    <path d="M-15.1 30.65 L-14.1 30.8 -10.65 31.15 -9.25 31.2 -6.2 31.1 -6.15 31.1 -1.95 30.5 -0.6 30.2 -0.6 30.55 -0.6 30.9 -0.6 31.1 -0.65 31.95 Q-5.9 33.5 -12.05 33.45 L-15.65 33.35 -15.4 32.15 -15.35 32.0 -15.25 31.45 -15.25 31.35 -15.15 30.95 -15.1 30.65" fill="#836752" fill-rule="evenodd" stroke="none"/>
    <path d="M-15.1 30.65 L-15.15 30.95 -15.25 31.35 -15.25 31.45 -15.35 32.0 -15.4 32.15 -15.65 33.35 -16.2 33.25 -19.95 32.75 -19.95 32.65 -19.95 29.8 -15.1 30.65 M-16.2 33.25 L-15.95 31.35 -16.2 33.25" fill="#735a48" fill-rule="evenodd" stroke="none"/>
    <path d="M-0.6 30.2 L-1.95 30.5 -6.15 31.1 -6.2 31.1 -9.25 31.2 -10.65 31.15 -14.1 30.8 -15.1 30.65 -15.15 30.95 -15.25 31.35 -15.25 31.45 -15.35 32.0 -15.4 32.15 -15.65 33.35 -12.05 33.45 Q-5.9 33.5 -0.65 31.95 L-0.6 31.1 -0.6 30.9 -0.6 30.55 -0.6 30.2 -0.45 30.15 -0.55 29.95 -4.75 27.85 -7.3 28.15 -13.0 28.1 -16.25 27.7 -19.95 29.8 -15.1 30.65 M-8.85 25.8 L-9.25 25.9 -9.95 26.05 -11.6 26.25 -13.65 26.25 -16.25 27.7 M-13.65 26.25 L-10.95 24.75 -8.85 25.8 -4.75 27.85 M-15.95 31.35 L-16.2 33.25 -15.65 33.35 M-16.2 33.25 L-19.95 32.75 -19.95 32.65 -19.95 29.8" fill="none" stroke="#61463d" stroke-linecap="round" stroke-linejoin="round" stroke-width="0.05"/>
    <path d="M-8.25 14.85 L-9.2 15.5 -9.9 16.05 -10.1 16.3 -10.1 16.35 -13.1 18.75 Q-13.6 18.55 -14.05 18.4 L-14.25 18.3 Q-15.75 17.55 -16.25 16.85 -16.7 16.1 -16.3 15.4 L-15.1 14.3 -14.55 14.0 Q-13.4 13.5 -11.55 13.1 -13.4 13.5 -14.55 14.0 L-15.1 14.3 -16.3 15.4 Q-16.7 16.1 -16.25 16.85 -15.75 17.55 -14.25 18.3 L-14.05 18.4 Q-13.6 18.55 -13.1 18.75 L-16.0 21.1 -16.35 21.0 -17.0 20.8 Q-20.4 19.8 -21.6 18.65 L-22.2 17.65 -22.2 16.6 -22.15 16.4 -22.05 16.2 -22.0 16.05 Q-21.3 14.85 -19.15 13.85 L-17.8 13.25 -16.95 12.95 -15.9 12.6 -15.8 12.6 -13.65 12.05 -11.55 13.1 -8.15 14.8 -8.25 14.85 M-10.1 16.3 L-10.1 16.35 -10.1 16.3" fill="#d0b38e" fill-rule="evenodd" stroke="none"/>
    <path d="M-10.1 16.35 L-10.1 16.3 -9.9 16.05 -9.2 15.5 -8.25 14.85 -8.25 17.55 -10.05 19.0 -10.1 16.35 -10.05 19.0 -13.05 21.3 -16.0 23.55 -16.0 21.1 -13.1 18.75 -10.1 16.35 M-13.05 21.3 L-13.1 18.75 -13.05 21.3" fill="#836752" fill-rule="evenodd" stroke="none"/>
    <path d="M-16.35 21.0 L-16.0 21.1 -16.45 21.45 -16.35 21.0" fill="#735a48" fill-rule="evenodd" stroke="none"/>
    <path d="M-22.2 17.65 L-21.6 18.65 Q-20.4 19.8 -17.0 20.8 L-16.35 21.0 -16.45 21.45 -16.0 21.1 -16.0 23.55 -16.0 23.65 Q-20.6 22.6 -22.15 21.7 L-21.6 18.65 -22.15 21.7 -22.2 21.65 -22.2 17.65" fill="#5c493a" fill-rule="evenodd" stroke="none"/>
    <path d="M-8.25 14.85 L-9.2 15.5 -9.9 16.05 -10.1 16.3 -10.1 16.35 -10.05 19.0 -8.25 17.55 -8.25 14.85 -8.15 14.8 -11.55 13.1 Q-13.4 13.5 -14.55 14.0 L-15.1 14.3 -16.3 15.4 Q-16.7 16.1 -16.25 16.85 -15.75 17.55 -14.25 18.3 L-14.05 18.4 Q-13.6 18.55 -13.1 18.75 L-10.1 16.35 -10.1 16.3 M-11.55 13.1 L-13.65 12.05 -15.8 12.6 -15.9 12.6 -16.95 12.95 -17.8 13.25 -19.15 13.85 Q-21.3 14.85 -22.0 16.05 L-22.05 16.2 -22.15 16.4 -22.2 16.6 -22.2 17.65 -21.6 18.65 Q-20.4 19.8 -17.0 20.8 L-16.35 21.0 -16.0 21.1 -13.1 18.75 -13.05 21.3 -10.05 19.0 M-22.15 21.7 Q-20.6 22.6 -16.0 23.65 L-16.0 23.55 -16.0 21.1 -16.45 21.45 -16.35 21.0 M-22.15 21.7 L-21.6 18.65 M-13.05 21.3 L-16.0 23.55" fill="none" stroke="#61463d" stroke-linecap="round" stroke-linejoin="round" stroke-width="0.05"/>
    <path d="M4.5 8.15 L0.05 8.2 -4.6 8.3 -7.45 8.35 -7.75 8.3 -7.7 8.1 -7.7 7.95 -7.5 7.6 -7.5 7.4 -7.4 7.25 -7.25 6.9 -6.95 7.0 -6.3 7.0 -4.4 7.3 4.55 8.2 4.5 8.15" fill="#836752" fill-rule="evenodd" stroke="none"/>
    <path d="M-7.75 8.3 L-7.45 8.35 -4.6 8.3 0.05 8.2 4.5 8.15 -5.9 9.5 -6.85 9.4 Q-7.75 9.15 -7.75 8.3" fill="#d0b38e" fill-rule="evenodd" stroke="none"/>
    <path d="M4.5 8.15 L4.55 8.2 -4.4 7.3 -6.3 7.0 -6.95 7.0 -7.25 6.9 -7.4 7.25 -7.5 7.4 -7.5 7.6 -7.7 7.95 -7.7 8.1 -7.75 8.3 Q-7.75 9.15 -6.85 9.4 L-5.9 9.5 4.5 8.15 Z" fill="none" stroke="#61463d" stroke-linecap="round" stroke-linejoin="round" stroke-width="0.05"/>
    <path d="M-3.0 10.85 L-2.8 10.85 -2.65 10.8 -2.25 10.9 -2.05 10.9 -1.95 10.9 -1.55 11.0 -1.5 11.25 -1.45 11.9 -1.15 13.8 0.25 22.7 0.3 22.65 -0.9 18.35 -2.2 13.85 -3.0 11.15 -3.0 10.85" fill="#836752" fill-rule="evenodd" stroke="none"/>
    <path d="M-3.0 10.85 L-3.0 11.15 -2.2 13.85 -0.9 18.35 0.3 22.65 -3.7 12.95 -3.85 12.0 Q-3.85 11.1 -3.0 10.85" fill="#d0b38e" fill-rule="evenodd" stroke="none"/>
    <path d="M0.3 22.65 L0.25 22.7 -1.15 13.8 -1.45 11.9 -1.5 11.25 -1.55 11.0 -1.95 10.9 -2.05 10.9 -2.25 10.9 -2.65 10.8 -2.8 10.85 -3.0 10.85 Q-3.85 11.1 -3.85 12.0 L-3.7 12.95 0.3 22.65 Z" fill="none" stroke="#61463d" stroke-linecap="round" stroke-linejoin="round" stroke-width="0.05"/>
    <path d="M-2.7 6.4 L1.6 5.1 5.95 3.55 8.7 2.65 8.95 2.65 8.95 2.6 9.0 2.85 8.95 2.85 9.0 2.95 8.95 3.4 8.95 3.6 8.95 3.7 8.9 4.1 8.6 4.15 7.95 4.25 6.05 4.6 -2.7 6.4" fill="#836752" fill-rule="evenodd" stroke="none"/>
    <path d="M8.95 2.65 L8.7 2.65 5.95 3.55 1.6 5.1 -2.7 6.4 6.8 2.0 7.8 1.85 Q8.7 1.85 8.95 2.65" fill="#d0b38e" fill-rule="evenodd" stroke="none"/>
    <path d="M-2.7 6.4 L6.05 4.6 7.95 4.25 8.6 4.15 8.9 4.1 8.95 3.7 8.95 3.6 8.95 3.4 9.0 2.95 8.95 2.85 9.0 2.85 8.95 2.6 M8.95 2.65 Q8.7 1.85 7.8 1.85 L6.8 2.0 -2.7 6.4 Z" fill="none" stroke="#61463d" stroke-linecap="round" stroke-linejoin="round" stroke-width="0.05"/>
    <path d="M12.7 6.95 L12.75 7.2 12.7 7.2 12.75 7.3 12.7 7.75 12.7 7.95 12.7 8.05 12.65 8.45 12.35 8.5 11.7 8.6 9.8 8.95 1.05 10.75 5.35 9.45 9.7 7.9 12.45 7.0 12.7 7.0 12.7 6.95" fill="#836752" fill-rule="evenodd" stroke="none"/>
    <path d="M12.7 7.0 L12.45 7.0 9.7 7.9 5.35 9.45 1.05 10.75 10.55 6.35 11.55 6.2 Q12.45 6.2 12.7 7.0" fill="#d0b38e" fill-rule="evenodd" stroke="none"/>
    <path d="M1.05 10.75 L9.8 8.95 11.7 8.6 12.35 8.5 12.65 8.45 12.7 8.05 12.7 7.95 12.7 7.75 12.75 7.3 12.7 7.2 12.75 7.2 12.7 6.95 M1.05 10.75 L10.55 6.35 11.55 6.2 Q12.45 6.2 12.7 7.0" fill="none" stroke="#61463d" stroke-linecap="round" stroke-linejoin="round" stroke-width="0.05"/>
    <path d="M3.0 23.35 L-1.4 22.6 -6.0 21.95 -8.8 21.45 -9.1 21.4 -9.0 21.2 -8.95 21.2 -8.95 21.05 -8.75 20.7 -8.65 20.55 -8.6 20.45 -8.35 20.1 -8.05 20.2 -7.45 20.4 -5.6 20.95 3.1 23.35 3.0 23.35" fill="#836752" fill-rule="evenodd" stroke="none"/>
    <path d="M-9.1 21.4 L-8.8 21.45 -6.0 21.95 -1.4 22.6 3.0 23.35 -7.45 22.9 -8.35 22.6 Q-9.2 22.25 -9.1 21.4" fill="#d0b38e" fill-rule="evenodd" stroke="none"/>
    <path d="M-9.1 21.4 Q-9.2 22.25 -8.35 22.6 L-7.45 22.9 3.0 23.35 3.1 23.35 -5.6 20.95 -7.45 20.4 -8.05 20.2 -8.35 20.1 -8.6 20.45 -8.65 20.55 -8.75 20.7 -8.95 21.05 -8.95 21.2 -9.0 21.2 -9.1 21.4 Z" fill="none" stroke="#61463d" stroke-linecap="round" stroke-linejoin="round" stroke-width="0.05"/>
    <path d="M18.55 7.95 L1.1 14.45 Q2.05 11.65 2.7 10.9 3.35 10.1 4.35 9.6 5.3 9.1 10.5 7.7 15.75 6.3 16.8 6.9 L17.3 7.15 8.2 10.15 17.3 7.15 18.55 7.95 M21.7 11.35 L22.2 11.2 23.65 13.2 19.6 14.7 19.65 14.2 Q21.7 12.45 21.7 11.35 21.7 12.45 19.65 14.2 L19.6 14.7 Q19.15 16.35 17.75 17.2 L16.95 17.7 Q10.95 21.35 9.95 25.75 9.8 25.4 9.0 25.25 L6.8 24.95 6.05 24.95 Q7.1 22.55 8.45 20.25 L10.25 17.2 Q10.1 16.0 8.55 15.9 7.5 14.45 10.8 11.95 L11.95 11.8 13.75 11.55 21.55 10.85 21.7 11.35 M19.75 12.75 L19.65 14.2 19.75 12.75 M5.15 17.55 L5.2 17.55 5.6 17.75 7.1 18.05 6.55 19.35 2.85 21.4 Q-0.1 20.85 -0.05 19.95 L0.0 19.45 5.15 17.55" fill="#836752" fill-rule="evenodd" stroke="none"/>
    <path d="M19.65 8.75 L22.2 11.2 21.7 11.35 21.55 10.85 13.75 11.55 11.95 11.8 10.8 11.95 10.8 11.9 10.3 12.0 8.75 12.4 6.85 13.4 Q6.05 13.8 5.6 14.3 4.6 15.3 4.85 16.65 L4.8 16.9 4.8 17.0 4.95 17.4 5.05 17.45 5.05 17.5 5.15 17.55 0.0 19.45 0.25 17.95 Q0.55 16.15 1.1 14.45 L18.55 7.95 19.65 8.75 17.6 9.45 19.65 8.75 M0.9 17.7 L0.25 17.95 0.9 17.7 M4.95 17.4 L0.0 19.45 4.95 17.4" fill="#8e7059" fill-rule="evenodd" stroke="none"/>
    <path d="M6.05 24.95 L6.8 24.95 9.0 25.25 Q9.8 25.4 9.95 25.75 L9.95 25.8 Q9.95 26.1 9.15 26.35 L7.0 26.55 5.1 26.35 4.85 26.3 3.9 25.65 3.9 25.6 4.0 25.4 Q4.15 25.25 4.75 25.15 L6.05 24.95" fill="#d0b38e" fill-rule="evenodd" stroke="none"/>
    <path d="M10.8 11.95 Q7.5 14.45 8.55 15.9 10.1 16.0 10.25 17.2 L8.45 20.25 Q7.1 22.55 6.05 24.95 L4.75 25.15 Q4.15 25.25 4.0 25.4 4.55 23.2 5.6 21.05 L6.55 19.35 7.1 18.05 5.6 17.75 5.2 17.55 5.15 17.55 5.05 17.45 5.15 17.55 5.05 17.5 5.05 17.45 4.95 17.4 4.8 17.0 4.8 16.9 4.85 16.65 Q4.6 15.3 5.6 14.3 6.05 13.8 6.85 13.4 L8.75 12.4 10.3 12.0 10.8 11.95 10.3 12.0 10.8 11.9 10.8 11.95 M7.25 17.15 L7.1 18.05 7.25 17.15" fill="#735a48" fill-rule="evenodd" stroke="none"/>
    <path d="M22.2 11.2 L19.65 8.75 17.6 9.45 M19.65 8.75 L18.55 7.95 1.1 14.45 Q0.55 16.15 0.25 17.95 L0.9 17.7 M22.2 11.2 L21.7 11.35 Q21.7 12.45 19.65 14.2 L19.6 14.7 23.65 13.2 22.2 11.2 M21.7 11.35 L21.55 10.85 13.75 11.55 11.95 11.8 10.8 11.95 10.8 11.9 10.3 12.0 8.75 12.4 6.85 13.4 Q6.05 13.8 5.6 14.3 4.6 15.3 4.85 16.65 L4.8 16.9 4.8 17.0 4.95 17.4 5.05 17.45 5.15 17.55 5.2 17.55 5.6 17.75 7.1 18.05 7.25 17.15 M6.05 24.95 L6.8 24.95 9.0 25.25 Q9.8 25.4 9.95 25.75 10.95 21.35 16.95 17.7 L17.75 17.2 Q19.15 16.35 19.6 14.7 M19.65 14.2 L19.75 12.75 M17.3 7.15 L8.2 10.15 M17.3 7.15 L16.8 6.9 Q15.75 6.3 10.5 7.7 5.3 9.1 4.35 9.6 3.35 10.1 2.7 10.9 2.05 11.65 1.1 14.45 M2.85 21.4 L6.55 19.35 7.1 18.05 M6.55 19.35 L5.6 21.05 Q4.55 23.2 4.0 25.4 4.15 25.25 4.75 25.15 L6.05 24.95 M0.25 17.95 L0.0 19.45 4.95 17.4 M10.3 12.0 L10.8 11.95 M4.0 25.4 L3.9 25.6 3.9 25.65 4.85 26.3 5.1 26.35 7.0 26.55 9.15 26.35 Q9.95 26.1 9.95 25.8 L9.95 25.75 M18.55 7.95 L17.3 7.15" fill="none" stroke="#61463d" stroke-linecap="round" stroke-linejoin="round" stroke-width="0.05"/>
    <path d="M2.0 11.35 L-2.45 11.4 -7.1 11.5 -9.95 11.55 -10.25 11.5 -10.2 11.3 -10.2 11.15 -10.0 10.8 -10.0 10.6 -9.9 10.45 -9.75 10.1 -9.45 10.2 -8.8 10.2 -6.9 10.5 2.05 11.4 2.0 11.35" fill="#836752" fill-rule="evenodd" stroke="none"/>
    <path d="M-10.25 11.5 L-9.95 11.55 -7.1 11.5 -2.45 11.4 2.0 11.35 -8.4 12.7 -9.35 12.6 Q-10.25 12.35 -10.25 11.5" fill="#d0b38e" fill-rule="evenodd" stroke="none"/>
    <path d="M2.0 11.35 L2.05 11.4 -6.9 10.5 -8.8 10.2 -9.45 10.2 -9.75 10.1 -9.9 10.45 -10.0 10.6 -10.0 10.8 -10.2 11.15 -10.2 11.3 -10.25 11.5 Q-10.25 12.35 -9.35 12.6 L-8.4 12.7 2.0 11.35 Z" fill="none" stroke="#61463d" stroke-linecap="round" stroke-linejoin="round" stroke-width="0.05"/>
    <path d="M-0.05 24.6 L-4.45 23.85 -9.05 23.2 -11.85 22.7 -12.15 22.65 -12.05 22.45 -12.0 22.45 -12.0 22.3 -11.8 21.95 -11.7 21.8 -11.65 21.7 -11.4 21.35 -11.1 21.45 -10.5 21.65 -8.65 22.2 0.05 24.6 -0.05 24.6" fill="#836752" fill-rule="evenodd" stroke="none"/>
    <path d="M-12.15 22.65 L-11.85 22.7 -9.05 23.2 -4.45 23.85 -0.05 24.6 -10.5 24.15 -11.4 23.85 Q-12.25 23.5 -12.15 22.65" fill="#d0b38e" fill-rule="evenodd" stroke="none"/>
    <path d="M-0.05 24.6 L0.05 24.6 -8.65 22.2 -10.5 21.65 -11.1 21.45 -11.4 21.35 -11.65 21.7 -11.7 21.8 -11.8 21.95 -12.0 22.3 -12.0 22.45 -12.05 22.45 -12.15 22.65 Q-12.25 23.5 -11.4 23.85 L-10.5 24.15 -0.05 24.6 Z" fill="none" stroke="#61463d" stroke-linecap="round" stroke-linejoin="round" stroke-width="0.05"/>
    <path d="M-2.7 26.15 L-3.9 21.85 -5.2 17.35 -6.0 14.65 -6.0 14.35 -5.8 14.35 -5.65 14.3 -5.25 14.4 -5.05 14.4 -4.95 14.4 -4.55 14.5 -4.5 14.75 -4.45 15.4 -4.15 17.3 -2.75 26.2 -2.7 26.15" fill="#836752" fill-rule="evenodd" stroke="none"/>
    <path d="M-6.0 14.35 L-6.0 14.65 -5.2 17.35 -3.9 21.85 -2.7 26.15 -6.7 16.45 -6.85 15.5 Q-6.85 14.6 -6.0 14.35" fill="#d0b38e" fill-rule="evenodd" stroke="none"/>
    <path d="M-6.0 14.35 Q-6.85 14.6 -6.85 15.5 L-6.7 16.45 -2.7 26.15 -2.75 26.2 -4.15 17.3 -4.45 15.4 -4.5 14.75 -4.55 14.5 -4.95 14.4 -5.05 14.4 -5.25 14.4 -5.65 14.3 -5.8 14.35 -6.0 14.35 Z" fill="none" stroke="#61463d" stroke-linecap="round" stroke-linejoin="round" stroke-width="0.05"/>
    <path d="M2.3 10.8 L1.65 10.85 -0.45 10.75 -0.45 10.7 -1.9 10.4 -2.55 10.15 -4.1 9.55 Q-4.35 9.4 -4.55 9.3 L-6.65 8.2 -4.6 7.35 -3.15 8.0 -0.45 8.75 0.75 8.85 -0.45 8.75 -3.15 8.0 -4.6 7.35 -3.15 6.8 -2.2 7.05 -1.35 7.1 -1.05 7.1 -0.8 7.1 -1.05 7.1 -1.35 7.1 -2.2 7.05 -3.15 6.8 -1.65 6.2 -0.8 7.1 0.75 8.85 2.4 10.7 2.4 10.85 2.3 10.8" fill="#d0b38e" fill-rule="evenodd" stroke="none"/>
    <path d="M-4.55 9.3 Q-4.35 9.4 -4.1 9.55 L-2.55 10.15 -1.9 10.4 -0.45 10.7 -0.45 10.75 1.65 10.85 2.3 10.8 2.25 11.05 2.2 11.25 2.15 11.4 2.0 11.9 -3.6 11.45 -5.25 10.9 -4.9 10.15 -4.9 10.1 -4.75 9.8 -4.75 9.75 -4.6 9.5 -4.55 9.3" fill="#836752" fill-rule="evenodd" stroke="none"/>
    <path d="M-6.65 8.2 L-4.55 9.3 -4.6 9.5 -4.75 9.75 -4.75 9.8 -4.9 10.1 -4.9 10.15 -5.25 10.9 -5.5 10.75 -7.15 10.0 -7.15 9.95 -6.65 8.2 M-5.05 9.65 L-5.5 10.75 -5.05 9.65" fill="#735a48" fill-rule="evenodd" stroke="none"/>
    <path d="M-4.55 9.3 Q-4.35 9.4 -4.1 9.55 L-2.55 10.15 -1.9 10.4 -0.45 10.7 -0.45 10.75 1.65 10.85 2.3 10.8 2.4 10.85 2.4 10.7 0.75 8.85 -0.45 8.75 -3.15 8.0 -4.6 7.35 -6.65 8.2 -4.55 9.3 -4.6 9.5 -4.75 9.75 -4.75 9.8 -4.9 10.1 -4.9 10.15 -5.25 10.9 -3.6 11.45 2.0 11.9 2.15 11.4 2.2 11.25 2.25 11.05 2.3 10.8 M-0.8 7.1 L-1.05 7.1 -1.35 7.1 -2.2 7.05 -3.15 6.8 -4.6 7.35 M0.75 8.85 L-0.8 7.1 -1.65 6.2 -3.15 6.8 M-6.65 8.2 L-7.15 9.95 -7.15 10.0 -5.5 10.75 -5.05 9.65 M-5.5 10.75 L-5.25 10.9" fill="none" stroke="#61463d" stroke-linecap="round" stroke-linejoin="round" stroke-width="0.05"/>
  </g>
</svg>
