<?xml version="1.0" encoding="UTF-8" standalone="no"?>
<svg xmlns:xlink="http://www.w3.org/1999/xlink" height="21.5px" width="37.95px" xmlns="http://www.w3.org/2000/svg">
  <g transform="matrix(1.0, 0.0, 0.0, 1.0, 36.25, 11.2)">
    <path d="M1.65 -0.5 L1.7 -0.5 Q1.4 3.85 -2.1 6.95 -5.9 10.3 -11.3 10.3 -16.7 10.3 -20.45 6.95 L-26.1 3.05 Q-30.45 0.25 -36.25 -1.1 -29.1 -2.8 -25.4 -4.75 -21.75 -6.75 -20.45 -7.85 -16.7 -11.2 -11.3 -11.2 -5.9 -11.2 -2.1 -7.85 1.4 -4.8 1.65 -0.5 M-12.05 -8.35 Q-17.05 -7.55 -21.85 -5.1 -26.65 -2.7 -28.2 -1.0 -25.95 2.4 -21.25 5.15 -16.55 7.9 -11.35 8.2 -6.15 8.5 -2.8 5.7 0.5 2.85 0.5 0.4 0.5 -2.05 -3.25 -5.6 -7.05 -9.15 -12.05 -8.35" fill="#fda6a6" fill-rule="evenodd" stroke="none"/>
    <path d="M-12.05 -8.35 Q-7.05 -9.15 -3.25 -5.6 0.5 -2.05 0.5 0.4 0.5 2.85 -2.8 5.7 -6.15 8.5 -11.35 8.2 -16.55 7.9 -21.25 5.15 -25.95 2.4 -28.2 -1.0 -26.65 -2.7 -21.85 -5.1 -17.05 -7.55 -12.05 -8.35" fill="#fdbdbd" fill-rule="evenodd" stroke="none"/>
    <path d="M1.65 -0.5 L1.7 -0.5" fill="none" stroke="#990404" stroke-linecap="round" stroke-linejoin="round" stroke-width="0.05"/>
    <path d="M1.7 -0.5 Q1.4 3.85 -2.1 6.95 -5.9 10.3 -11.3 10.3 -16.7 10.3 -20.45 6.95 L-26.1 3.05 Q-30.45 0.25 -36.25 -1.1 -29.1 -2.8 -25.4 -4.75 -21.75 -6.75 -20.45 -7.85 -16.7 -11.2 -11.3 -11.2 -5.9 -11.2 -2.1 -7.85 1.4 -4.8 1.65 -0.5 Z" fill="none" stroke="#be5f6d" stroke-linecap="round" stroke-linejoin="round" stroke-width="0.05"/>
  </g>
</svg>
