<?xml version="1.0" encoding="UTF-8" standalone="no"?>
<svg xmlns:xlink="http://www.w3.org/1999/xlink" height="10.05px" width="7.9px" xmlns="http://www.w3.org/2000/svg">
  <g transform="matrix(1.0, 0.0, 0.0, 1.0, 5.05, 4.45)">
    <path d="M-1.5 5.5 L-3.15 4.95 -3.7 4.55 Q-4.7 3.65 -5.05 -1.25 L-5.0 -1.8 -4.6 -3.8 -3.4 -4.45 Q-2.55 -4.5 0.15 -1.9 2.8 0.7 2.85 1.95 L2.7 3.6 2.1 4.5 1.9 3.7 Q1.5 2.4 0.8 2.6 L-0.75 2.95 -1.95 3.25 Q-2.25 3.35 -1.85 4.6 L-1.5 5.5 -1.85 4.6 Q-2.25 3.35 -1.95 3.25 L-0.75 2.95 0.8 2.6 Q1.5 2.4 1.9 3.7 L2.1 4.5 Q0.7 5.95 -1.5 5.5" fill="#537557" fill-rule="evenodd" stroke="none"/>
    <path d="M2.1 4.5 L2.7 3.6 2.85 1.95 Q2.8 0.7 0.15 -1.9 -2.55 -4.5 -3.4 -4.45 L-4.6 -3.8 -5.0 -1.8 -5.05 -1.25 Q-4.7 3.65 -3.7 4.55 L-3.15 4.95 -1.5 5.5 -1.85 4.6 Q-2.25 3.35 -1.95 3.25 L-0.75 2.95 0.8 2.6 Q1.5 2.4 1.9 3.7 L2.1 4.5 Q0.7 5.95 -1.5 5.5" fill="none" stroke="#374e32" stroke-linecap="round" stroke-linejoin="round" stroke-width="0.05"/>
  </g>
</svg>
