<?xml version="1.0" encoding="UTF-8" standalone="no"?>
<svg xmlns:xlink="http://www.w3.org/1999/xlink" height="34.2px" width="20.2px" xmlns="http://www.w3.org/2000/svg">
  <g transform="matrix(1.0, 0.0, 0.0, 1.0, 10.6, 17.15)">
    <path d="M-7.2 -6.6 L-7.2 -6.55 -7.2 -6.6" fill="#ffd0ae" fill-rule="evenodd" stroke="none"/>
    <path d="M5.65 4.15 L5.65 4.1 5.65 4.15" fill="#ffdfc8" fill-rule="evenodd" stroke="none"/>
    <path d="M-8.15 5.2 L-8.15 5.15 -8.15 5.2" fill="#618f5c" fill-rule="evenodd" stroke="none"/>
    <path d="M3.25 -8.9 Q4.5 -9.65 5.1 -7.95 L5.9 -6.1 5.95 -6.1 Q10.25 -5.3 9.45 1.9 L9.05 3.55 8.85 4.1 7.15 8.65 5.5 9.8 Q4.55 10.45 3.8 10.7 2.35 11.1 1.4 10.05 L1.0 9.5 Q-0.05 7.85 -1.45 6.85 4.55 8.3 5.6 4.2 L5.65 4.15 5.65 4.1 Q6.9 -2.0 2.25 -5.0 4.45 -6.2 3.25 -8.9 M-6.9 8.85 L-7.45 8.85 Q-8.1 6.85 -8.15 5.2 -7.9 6.05 -6.4 6.65 L-7.1 7.8 -6.9 8.85 M-9.7 1.65 Q-11.25 -0.5 -10.1 -4.25 -9.05 -8.05 -7.85 -8.15 L-7.85 -9.15 -7.5 -9.45 -6.7 -9.05 Q-6.05 -8.7 -5.8 -8.7 L-5.85 -8.3 -6.35 -7.9 -6.5 -7.3 -6.95 -6.9 -7.15 -6.65 -7.2 -6.6 -7.2 -6.55 Q-10.25 -0.45 -9.7 1.65 M7.45 2.2 L6.35 3.5 5.65 4.1 6.35 3.5 7.45 2.2" fill="#537557" fill-rule="evenodd" stroke="none"/>
    <path d="M3.8 10.7 Q3.95 12.5 4.95 13.1 L6.25 13.8 Q6.5 14.4 6.3 15.4 3.85 17.05 -1.05 17.05 L-2.25 17.0 Q-5.6 16.55 -7.35 15.45 L-8.45 14.5 -8.1 12.3 -7.75 12.2 Q-6.85 11.8 -6.75 10.6 L-6.9 8.85 -7.1 7.8 -6.4 6.65 Q-5.3 5.65 -3.55 5.75 -2.7 6.05 -1.7 6.65 L-1.45 6.85 Q-0.05 7.85 1.0 9.5 L1.4 10.05 Q2.35 11.1 3.8 10.7 M-5.8 -8.7 L-5.75 -8.75 Q-5.6 -10.05 -7.55 -14.55 L-8.45 -16.7 Q-5.55 -16.35 -3.4 -17.15 L-2.5 -14.9 Q-0.95 -11.3 0.85 -8.4 L0.05 -7.35 Q-0.4 -6.9 -1.2 -6.8 L-2.4 -6.8 Q-4.1 -7.05 -5.15 -7.65 L-5.85 -8.3 -5.8 -8.7 M-8.1 12.3 L-7.45 13.25 -7.3 13.4 Q-6.3 14.25 -4.1 14.85 -3.35 14.65 -3.3 11.9 L-3.3 11.75 Q-3.35 8.8 -3.55 5.75 -3.35 8.8 -3.3 11.75 L-3.3 11.9 Q-3.35 14.65 -4.1 14.85 L-3.75 14.95 -1.35 15.1 -1.1 15.1 Q4.45 15.2 6.25 13.8 4.45 15.2 -1.1 15.1 L-1.35 15.1 -3.75 14.95 -4.1 14.85 Q-6.3 14.25 -7.3 13.4 L-7.45 13.25 -8.1 12.3" fill="#3d543f" fill-rule="evenodd" stroke="none"/>
    <path d="M-8.15 5.15 L-8.2 3.65 -8.35 3.5 -9.7 1.65 Q-10.25 -0.45 -7.2 -6.55 L-7.2 -6.6 -7.15 -6.65 -6.95 -6.9 -6.5 -7.3 -6.35 -7.9 -5.85 -8.3 -5.15 -7.65 Q-4.1 -7.05 -2.4 -6.8 L-1.2 -6.8 Q-0.4 -6.9 0.05 -7.35 L0.85 -8.4 1.6 -8.4 3.25 -8.9 Q4.45 -6.2 2.25 -5.0 6.9 -2.0 5.65 4.1 L5.65 4.15 5.6 4.2 Q4.55 8.3 -1.45 6.85 L-1.7 6.65 Q-2.7 6.05 -3.55 5.75 -5.3 5.65 -6.4 6.65 -7.9 6.05 -8.15 5.2 L-8.15 5.15 M-6.75 4.4 L-4.25 4.15 Q-1.85 4.55 -0.45 5.45 -1.85 4.55 -4.25 4.15 L-6.75 4.4 -8.2 3.65 -6.75 4.4 M-0.45 5.45 Q2.55 6.25 5.6 4.2 2.55 6.25 -0.45 5.45" fill="#5a7e5f" fill-rule="evenodd" stroke="none"/>
    <path d="M3.25 -8.9 Q4.5 -9.65 5.1 -7.95 L5.9 -6.1 5.95 -6.1 Q10.25 -5.3 9.45 1.9 L9.05 3.55 8.85 4.1 7.15 8.65 5.5 9.8 Q4.55 10.45 3.8 10.7 3.95 12.5 4.95 13.1 L6.25 13.8 Q6.5 14.4 6.3 15.4 3.85 17.05 -1.05 17.05 L-2.25 17.0 Q-5.6 16.55 -7.35 15.45 L-8.45 14.5 -8.1 12.3 -7.75 12.2 Q-6.85 11.8 -6.75 10.6 L-6.9 8.85 -7.45 8.85 Q-8.1 6.85 -8.15 5.2 M-8.15 5.15 L-8.2 3.65 -8.35 3.5 -9.7 1.65 Q-11.25 -0.5 -10.1 -4.25 -9.05 -8.05 -7.85 -8.15 L-7.85 -9.15 -7.5 -9.45 -6.7 -9.05 Q-6.05 -8.7 -5.8 -8.7 M-5.75 -8.75 Q-5.6 -10.05 -7.55 -14.55 L-8.45 -16.7 Q-5.55 -16.35 -3.4 -17.15 L-2.5 -14.9 Q-0.95 -11.3 0.85 -8.4 L1.6 -8.4 3.25 -8.9 M5.65 4.1 L6.35 3.5 7.45 2.2 M-0.45 5.45 Q-1.85 4.55 -4.25 4.15 L-6.75 4.4 -8.2 3.65 M-6.4 6.65 Q-5.3 5.65 -3.55 5.75 -2.7 6.05 -1.7 6.65 L-1.45 6.85 Q-0.05 7.85 1.0 9.5 L1.4 10.05 Q2.35 11.1 3.8 10.7 M5.6 4.2 Q2.55 6.25 -0.45 5.45 M-6.9 8.85 L-7.1 7.8 -6.4 6.65 M-3.55 5.75 Q-3.35 8.8 -3.3 11.75 L-3.3 11.9 Q-3.35 14.65 -4.1 14.85 L-3.75 14.95 -1.35 15.1 -1.1 15.1 Q4.45 15.2 6.25 13.8 M-4.1 14.85 Q-6.3 14.25 -7.3 13.4 L-7.45 13.25 -8.1 12.3 M5.65 4.15 L5.65 4.1 M5.65 4.15 L5.6 4.2" fill="none" stroke="#374e32" stroke-linecap="round" stroke-linejoin="round" stroke-width="0.05"/>
  </g>
</svg>
