<?xml version="1.0" encoding="UTF-8" standalone="no"?>
<svg xmlns:xlink="http://www.w3.org/1999/xlink" height="32.45px" width="11.15px" xmlns="http://www.w3.org/2000/svg">
  <g transform="matrix(1.0, 0.0, 0.0, 1.0, 5.6, 5.9)">
    <path d="M1.85 24.2 Q3.85 25.85 5.25 25.05 3.85 25.85 1.85 24.2 L-3.8 14.9 -1.85 14.7 5.25 25.05 5.55 25.5 -2.15 26.55 -2.15 24.85 -5.2 22.75 1.85 24.2" fill="#38363d" fill-rule="evenodd" stroke="none"/>
    <path d="M-5.3 12.65 Q-6.05 9.85 -4.3 4.3 -1.6 -4.65 2.9 -5.8 7.4 -6.95 2.7 5.65 L-0.95 12.9 Q-3.9 14.85 -5.3 12.65" fill="#949694" fill-rule="evenodd" stroke="none"/>
    <path d="M-0.95 12.9 L-1.85 14.7 -3.8 14.9 Q-4.95 14.2 -5.3 12.65 -3.9 14.85 -0.95 12.9" fill="#606260" fill-rule="evenodd" stroke="none"/>
    <path d="M5.25 25.05 Q3.85 25.85 1.85 24.2 L-5.2 22.75 -2.15 24.85 -2.15 26.55 5.55 25.5 5.25 25.05 -1.85 14.7 -0.95 12.9 Q-3.9 14.85 -5.3 12.65 -4.95 14.2 -3.8 14.9 L-1.85 14.7 M-5.3 12.65 Q-6.05 9.85 -4.3 4.3 -1.6 -4.65 2.9 -5.8 7.4 -6.95 2.7 5.65 L-0.95 12.9 M-3.8 14.9 L1.85 24.2" fill="none" stroke="#32322e" stroke-linecap="round" stroke-linejoin="round" stroke-width="0.05"/>
  </g>
</svg>
