<?xml version="1.0" encoding="UTF-8" standalone="no"?>
<svg xmlns:xlink="http://www.w3.org/1999/xlink" height="29.0px" width="12.6px" xmlns="http://www.w3.org/2000/svg">
  <g transform="matrix(1.0, 0.0, 0.0, 1.0, 9.5, 1.75)">
    <path d="M0.2 -1.7 L0.2 -1.65 1.0 -1.25 Q3.45 0.75 -0.9 4.75 -4.4 7.95 -6.25 10.85 L-6.15 11.15 Q-9.0 11.8 -9.5 9.6 -9.25 6.7 -5.5 2.55 -2.1 -1.2 0.15 -1.7 L0.2 -1.7" fill="#a5a7a6" fill-rule="evenodd" stroke="none"/>
    <path d="M-9.5 9.6 Q-9.0 11.8 -6.15 11.15 -5.95 11.9 -6.25 12.8 L-7.7 12.65 Q-9.65 11.15 -9.5 9.6" fill="#737777" fill-rule="evenodd" stroke="none"/>
    <path d="M-6.25 12.8 L-6.15 12.8 -5.05 12.6 1.7 25.3 1.7 25.85 -8.3 27.25 -6.4 26.0 -7.8 25.25 -1.5 24.7 Q-0.65 25.9 1.7 25.3 -0.65 25.9 -1.5 24.7 -3.7 18.85 -7.7 12.65 L-6.25 12.8" fill="#38363d" fill-rule="evenodd" stroke="none"/>
    <path d="M-6.15 11.15 L-6.25 10.85 Q-4.4 7.95 -0.9 4.75 3.45 0.75 1.0 -1.25 L0.2 -1.65 0.2 -1.7 Q1.35 -1.95 2.2 -1.25 4.65 0.75 0.3 4.75 -3.2 7.95 -5.05 10.85 L-6.05 11.15 -6.15 11.15" fill="#949694" fill-rule="evenodd" stroke="none"/>
    <path d="M-6.15 11.15 L-6.05 11.15 -5.05 10.85 Q-4.65 11.75 -5.05 12.6 L-6.15 12.8 -6.25 12.8 Q-5.95 11.9 -6.15 11.15" fill="#606260" fill-rule="evenodd" stroke="none"/>
    <path d="M-6.15 11.15 L-6.05 11.15 -5.05 10.85 Q-3.2 7.95 0.3 4.75 4.65 0.75 2.2 -1.25 1.35 -1.95 0.2 -1.7 L0.15 -1.7 Q-2.1 -1.2 -5.5 2.55 -9.25 6.7 -9.5 9.6 -9.0 11.8 -6.15 11.15 M-6.25 12.8 L-6.15 12.8 -5.05 12.6 Q-4.65 11.75 -5.05 10.85 M-1.5 24.7 L-7.8 25.25 -6.4 26.0 -8.3 27.25 1.7 25.85 1.7 25.3 Q-0.65 25.9 -1.5 24.7 -3.7 18.85 -7.7 12.65 -9.65 11.15 -9.5 9.6 M-6.25 12.8 L-7.7 12.65 M-5.05 12.6 L1.7 25.3" fill="none" stroke="#32322e" stroke-linecap="round" stroke-linejoin="round" stroke-width="0.05"/>
  </g>
</svg>
