<?xml version="1.0" encoding="UTF-8" standalone="no"?>
<svg xmlns:xlink="http://www.w3.org/1999/xlink" height="21.8px" width="8.6px" xmlns="http://www.w3.org/2000/svg">
  <g transform="matrix(1.0, 0.0, 0.0, 1.0, 4.15, 5.7)">
    <path d="M-4.15 0.4 L-3.9 -4.1 Q-3.8 -4.85 -2.65 -5.25 L0.3 -5.7 3.2 -5.25 Q4.45 -4.8 4.45 -4.15 L4.15 0.45 Q4.15 -0.2 2.9 -0.65 L0.0 -1.1 -2.95 -0.65 Q-4.1 -0.25 -4.15 0.4" fill="#caa684" fill-rule="evenodd" stroke="none"/>
    <path d="M-4.15 0.4 Q-4.1 -0.25 -2.95 -0.65 L0.0 -1.1 2.9 -0.65 Q4.15 -0.2 4.15 0.45 4.15 1.1 2.9 1.6 L0.0 2.0 -2.95 1.6 Q-4.15 1.1 -4.15 0.45 L-4.15 0.4" fill="#a97949" fill-rule="evenodd" stroke="none"/>
    <path d="M-4.15 0.45 L-4.15 0.4" fill="none" stroke="#8a574a" stroke-linecap="round" stroke-linejoin="round" stroke-width="0.05"/>
    <path d="M4.15 0.45 L4.45 -4.15 Q4.45 -4.8 3.2 -5.25 L0.3 -5.7 -2.65 -5.25 Q-3.8 -4.85 -3.9 -4.1 L-4.15 0.4 Q-4.1 -0.25 -2.95 -0.65 L0.0 -1.1 2.9 -0.65 Q4.15 -0.2 4.15 0.45 4.15 1.1 2.9 1.6 L0.0 2.0 -2.95 1.6 Q-4.15 1.1 -4.15 0.45 Z" fill="none" stroke="#6a3f39" stroke-linecap="round" stroke-linejoin="round" stroke-width="0.05"/>
    <path d="M2.3 16.05 Q0.7 10.15 0.25 4.95 0.0 2.3 0.05 -0.15 1.65 -0.1 3.35 0.9 L2.85 3.45 Q1.8 9.25 2.3 16.05" fill="#ffffcc" fill-rule="evenodd" stroke="none"/>
    <path d="M2.3 16.05 L2.2 16.1 Q-0.7 11.75 -2.2 6.35 L-3.35 0.9 -3.2 0.7 Q-1.65 -0.2 0.05 -0.15 0.0 2.3 0.25 4.95 0.7 10.15 2.3 16.05" fill="#ffffec" fill-rule="evenodd" stroke="none"/>
    <path d="M0.05 -0.15 Q-1.65 -0.2 -3.2 0.7 L-3.35 0.9 -2.2 6.35 Q-0.7 11.75 2.2 16.1 L2.3 16.05 Q1.8 9.25 2.85 3.45 L3.35 0.9 Q1.65 -0.1 0.05 -0.15 Z" fill="none" stroke="#a9a801" stroke-linecap="round" stroke-linejoin="round" stroke-width="0.05"/>
  </g>
</svg>
