<?xml version="1.0" encoding="UTF-8" standalone="no"?>
<svg xmlns:xlink="http://www.w3.org/1999/xlink" height="28.85px" width="66.6px" xmlns="http://www.w3.org/2000/svg">
  <g transform="matrix(1.0, 0.0, 0.0, 1.0, 75.45, -153.5)">
    <path d="M-67.4 172.45 L-66.25 172.95 Q-63.85 173.8 -60.45 173.8 -57.1 173.8 -54.7 172.95 -52.3 172.1 -52.3 170.95 -52.3 169.75 -54.7 168.95 -57.1 168.1 -60.45 168.1 -63.85 168.1 -66.25 168.95 -68.65 169.75 -68.65 170.95 L-68.65 171.05 -71.75 171.25 Q-74.35 168.6 -71.2 166.75 -68.1 164.95 -75.45 163.3 L-68.45 163.0 Q-68.65 162.2 -68.45 162.2 L-67.95 162.65 Q-67.25 163.25 -66.15 163.25 -65.1 163.25 -64.35 162.65 -63.6 162.1 -63.6 161.3 -63.6 160.45 -64.35 159.9 -64.8 159.55 -65.3 159.45 -64.6 156.85 -63.55 155.3 -62.9 152.75 -58.75 153.85 L-43.95 153.9 Q-35.85 153.9 -27.0 156.3 -24.65 155.95 -20.75 157.4 L-13.5 157.05 -11.05 161.5 Q-9.35 162.85 -8.85 163.9 -11.1 164.05 -11.1 165.8 -11.1 167.25 -11.95 168.65 L-12.4 168.45 Q-14.5 167.75 -17.45 167.75 -20.45 167.75 -22.5 168.45 -24.6 169.2 -24.6 170.25 -24.6 171.25 -22.5 171.95 -20.45 172.7 -17.45 172.7 L-17.4 172.85 Q-18.9 173.55 -18.6 175.7 L-26.5 175.9 -26.45 175.4 Q-26.45 174.25 -27.95 173.45 -29.5 172.65 -31.7 172.7 -33.85 172.65 -35.4 173.45 -36.95 174.25 -36.95 175.4 -36.95 176.55 -35.4 177.35 -36.95 177.45 -38.25 182.35 -41.15 177.7 -43.95 177.7 L-44.85 177.7 -44.85 177.55 Q-44.85 176.45 -46.8 175.65 -48.2 175.05 -50.05 174.9 L-51.45 174.85 Q-54.15 174.85 -56.1 175.65 -57.2 176.1 -57.65 176.65 L-65.25 177.1 Q-64.7 175.1 -67.2 174.2 -68.15 173.85 -67.4 172.45 M-51.55 160.8 Q-53.3 159.9 -55.7 159.9 -58.1 159.9 -59.85 160.8 -61.55 161.65 -61.55 162.95 -61.55 164.2 -59.85 165.1 -58.1 165.95 -55.7 165.95 -53.3 165.95 -51.55 165.1 -49.85 164.2 -49.8 162.95 -49.85 161.65 -51.55 160.8 M-45.05 169.5 Q-49.0 168.8 -50.05 174.9 -49.0 168.8 -45.05 169.5 M-23.95 161.5 Q-23.25 161.4 -22.75 161.1 -22.0 160.65 -22.0 160.1 -22.0 159.5 -22.75 159.1 -23.45 158.65 -24.5 158.65 L-26.0 158.95 Q-24.7 159.85 -23.95 161.5 -23.55 162.35 -23.3 163.4 -20.1 163.65 -16.45 167.05 -20.1 163.65 -23.3 163.4 -23.55 162.35 -23.95 161.5 M-23.3 163.4 Q-26.95 163.1 -29.95 166.7 -26.95 163.1 -23.3 163.4 M-26.0 158.95 Q-28.1 157.4 -31.7 157.8 -28.1 157.4 -26.0 158.95" fill="url(#gradient0)" fill-rule="evenodd" stroke="none"/>
    <path d="M-51.55 160.8 Q-49.85 161.65 -49.8 162.95 -49.85 164.2 -51.55 165.1 -53.3 165.95 -55.7 165.95 -58.1 165.95 -59.85 165.1 -61.55 164.2 -61.55 162.95 -61.55 161.65 -59.85 160.8 -58.1 159.9 -55.7 159.9 -53.3 159.9 -51.55 160.8 M-68.65 170.95 Q-68.65 169.75 -66.25 168.95 -63.85 168.1 -60.45 168.1 -57.1 168.1 -54.7 168.95 -52.3 169.75 -52.3 170.95 -52.3 172.1 -54.7 172.95 -57.1 173.8 -60.45 173.8 -63.85 173.8 -66.25 172.95 L-67.4 172.45 Q-68.6 171.8 -68.65 171.05 L-68.65 170.95 M-57.65 176.65 Q-57.2 176.1 -56.1 175.65 -54.15 174.85 -51.45 174.85 L-50.05 174.9 Q-48.2 175.05 -46.8 175.65 -44.85 176.45 -44.85 177.55 L-44.85 177.7 Q-45.0 178.7 -46.8 179.4 -48.7 180.2 -51.45 180.2 -54.15 180.2 -56.1 179.4 -58.0 178.6 -58.0 177.55 -58.0 177.05 -57.65 176.65 M-11.95 168.65 Q-10.35 169.3 -10.35 170.25 -10.35 171.25 -12.4 171.95 L-17.15 172.7 -17.45 172.7 Q-20.45 172.7 -22.5 171.95 -24.6 171.25 -24.6 170.25 -24.6 169.2 -22.5 168.45 -20.45 167.75 -17.45 167.75 -14.5 167.75 -12.4 168.45 L-11.95 168.65 M-26.5 175.9 Q-26.8 176.7 -27.95 177.35 -29.5 178.15 -31.7 178.15 -33.85 178.15 -35.4 177.35 -36.95 176.55 -36.95 175.4 -36.95 174.25 -35.4 173.45 -33.85 172.65 -31.7 172.7 -29.5 172.65 -27.95 173.45 -26.45 174.25 -26.45 175.4 L-26.5 175.9 M-68.45 162.2 L-68.7 161.3 Q-68.75 160.45 -67.95 159.9 -67.25 159.35 -66.15 159.35 L-65.3 159.45 Q-64.8 159.55 -64.35 159.9 -63.6 160.45 -63.6 161.3 -63.6 162.1 -64.35 162.65 -65.1 163.25 -66.15 163.25 -67.25 163.25 -67.95 162.65 L-68.45 162.2 M-26.0 158.95 L-24.5 158.65 Q-23.45 158.65 -22.75 159.1 -22.0 159.5 -22.0 160.1 -22.0 160.65 -22.75 161.1 -23.25 161.4 -23.95 161.5 -24.7 159.85 -26.0 158.95" fill="#9c6c2a" fill-rule="evenodd" stroke="none"/>
    <path d="M-68.65 171.05 L-68.65 170.95 -68.65 171.05 M-17.45 172.7 L-17.4 172.85 -17.45 172.7" fill="#e3dcc6" fill-rule="evenodd" stroke="none"/>
    <path d="M-51.55 160.8 Q-49.85 161.65 -49.8 162.95 -49.85 164.2 -51.55 165.1 -53.3 165.95 -55.7 165.95 -58.1 165.95 -59.85 165.1 -61.55 164.2 -61.55 162.95 -61.55 161.65 -59.85 160.8 -58.1 159.9 -55.7 159.9 -53.3 159.9 -51.55 160.8 M-68.65 170.95 Q-68.65 169.75 -66.25 168.95 -63.85 168.1 -60.45 168.1 -57.1 168.1 -54.7 168.95 -52.3 169.75 -52.3 170.95 -52.3 172.1 -54.7 172.95 -57.1 173.8 -60.45 173.8 -63.85 173.8 -66.25 172.95 L-67.4 172.45 Q-68.15 173.85 -67.2 174.2 -64.7 175.1 -65.25 177.1 L-57.65 176.65 Q-57.2 176.1 -56.1 175.65 -54.15 174.85 -51.45 174.85 L-50.05 174.9 Q-49.0 168.8 -45.05 169.5 M-65.3 159.45 Q-64.6 156.85 -63.55 155.3 -62.9 152.75 -58.75 153.85 L-43.95 153.9 Q-35.85 153.9 -27.0 156.3 -24.65 155.95 -20.75 157.4 L-13.5 157.05 -11.05 161.5 Q-9.35 162.85 -8.85 163.9 -11.1 164.05 -11.1 165.8 -11.1 167.25 -11.95 168.65 -10.35 169.3 -10.35 170.25 -10.35 171.25 -12.4 171.95 L-17.15 172.7 -17.4 172.85 Q-18.9 173.55 -18.6 175.7 L-26.5 175.9 Q-26.8 176.7 -27.95 177.35 -29.5 178.15 -31.7 178.15 -33.85 178.15 -35.4 177.35 -36.95 177.45 -38.25 182.35 -41.15 177.7 -43.95 177.7 L-44.85 177.7 Q-45.0 178.7 -46.8 179.4 -48.7 180.2 -51.45 180.2 -54.15 180.2 -56.1 179.4 -58.0 178.6 -58.0 177.55 -58.0 177.05 -57.65 176.65 M-68.45 162.2 L-68.7 161.3 Q-68.75 160.45 -67.95 159.9 -67.25 159.35 -66.15 159.35 L-65.3 159.45 Q-64.8 159.55 -64.35 159.9 -63.6 160.45 -63.6 161.3 -63.6 162.1 -64.35 162.65 -65.1 163.25 -66.15 163.25 -67.25 163.25 -67.95 162.65 L-68.45 162.2 Q-68.65 162.2 -68.45 163.0 L-75.45 163.3 Q-68.1 164.95 -71.2 166.75 -74.35 168.6 -71.75 171.25 L-68.65 171.05 Q-68.6 171.8 -67.4 172.45 M-68.65 170.95 L-68.65 171.05 M-50.05 174.9 Q-48.2 175.05 -46.8 175.65 -44.85 176.45 -44.85 177.55 L-44.85 177.7 M-17.15 172.7 L-17.45 172.7 Q-20.45 172.7 -22.5 171.95 -24.6 171.25 -24.6 170.25 -24.6 169.2 -22.5 168.45 -20.45 167.75 -17.45 167.75 -14.5 167.75 -12.4 168.45 L-11.95 168.65 M-26.0 158.95 L-24.5 158.65 Q-23.45 158.65 -22.75 159.1 -22.0 159.5 -22.0 160.1 -22.0 160.65 -22.75 161.1 -23.25 161.4 -23.95 161.5 -23.55 162.35 -23.3 163.4 -20.1 163.65 -16.45 167.05 M-29.95 166.7 Q-26.95 163.1 -23.3 163.4 M-26.0 158.95 Q-24.7 159.85 -23.95 161.5 M-31.7 157.8 Q-28.1 157.4 -26.0 158.95 M-35.4 177.35 Q-36.95 176.55 -36.95 175.4 -36.95 174.25 -35.4 173.45 -33.85 172.65 -31.7 172.7 -29.5 172.65 -27.95 173.45 -26.45 174.25 -26.45 175.4 L-26.5 175.9" fill="none" stroke="#1b1b1b" stroke-linecap="round" stroke-linejoin="round" stroke-width="0.05"/>
  </g>
  <defs>
    <radialGradient cx="0" cy="0" gradientTransform="matrix(0.033, 0.0, 0.0, 0.0093, -41.3, 165.25)" gradientUnits="userSpaceOnUse" id="gradient0" r="819.2" spreadMethod="pad">
      <stop offset="0.596078431372549" stop-color="#9c6c2a"/>
      <stop offset="0.9882352941176471" stop-color="#d79b53"/>
    </radialGradient>
  </defs>
</svg>
