<?xml version="1.0" encoding="UTF-8" standalone="no"?>
<svg xmlns:xlink="http://www.w3.org/1999/xlink" height="396.5px" width="400.1px" xmlns="http://www.w3.org/2000/svg">
  <g transform="matrix(1.0, 0.0, 0.0, 1.0, 255.85, 216.1)">
    <path d="M-90.6 179.65 L-161.55 148.4 -153.65 164.85 -176.95 162.95 -209.85 149.6 -222.45 137.0 -229.5 115.75 Q-221.6 96.6 -201.3 89.8 L-198.3 88.9 -229.7 66.65 -224.5 50.2 -208.35 36.8 -175.25 26.65 -107.05 34.25 -133.85 11.3 Q-144.35 -18.4 -124.3 -41.75 -103.3 -66.3 -72.9 -57.05 -65.3 -54.6 -58.8 -49.85 L-14.65 -90.85 1.05 -35.9 -21.2 13.65 -1.45 15.95 0.5 33.45 -21.95 74.9 Q19.15 42.2 71.25 36.3 L75.6 40.7 80.0 40.7 87.25 50.85 Q79.6 87.85 44.95 104.1 55.55 102.0 62.85 110.15 65.3 112.95 66.9 116.3 L49.55 127.8 71.3 137.2 75.6 165.7 67.0 179.25 64.05 179.65 11.4 179.65 -6.55 174.65 -12.15 179.65 -13.1 180.4 -12.4 179.65 -12.05 179.2 -12.9 179.65 -33.55 179.65 -32.35 175.2 -32.85 175.15 Q-40.6 176.55 -48.7 176.65 -72.95 176.85 -94.5 165.7 L-85.95 179.65 -90.6 179.65" fill="url(#gradient0)" fill-rule="evenodd" stroke="none"/>
    <path d="M-90.6 179.65 L-227.5 177.6 -242.45 162.05 -242.65 149.25 -251.6 126.5 -255.35 121.65 Q-260.25 59.9 -215.35 18.25 -208.9 12.3 -201.1 9.0 -182.0 0.9 -172.1 -14.65 L-176.9 -25.35 -177.65 -26.3 -176.7 -25.5 -151.8 -16.8 -151.5 -17.5 Q-150.5 -31.8 -147.05 -45.6 -141.9 -66.35 -128.3 -78.75 -105.8 -82.0 -87.55 -95.4 -72.15 -106.8 -59.2 -119.15 L-39.75 -116.0 Q-19.05 -128.05 -3.55 -146.2 22.35 -176.55 28.15 -216.1 L34.65 -212.85 Q49.0 -168.15 49.2 -121.15 49.25 -105.75 45.9 -90.75 39.3 -61.1 45.4 -33.55 L48.05 -14.8 71.9 -16.95 64.25 -2.35 Q85.0 0.65 102.05 12.85 113.45 21.0 121.65 32.45 L109.0 52.7 116.0 56.25 133.6 50.95 138.4 62.0 124.8 75.55 124.8 80.85 144.25 97.15 126.55 151.15 Q129.55 154.2 131.0 157.95 131.4 158.95 130.25 160.65 L111.75 179.65 64.05 179.65 67.0 179.25 75.6 165.7 71.3 137.2 49.55 127.8 66.9 116.3 Q65.3 112.95 62.85 110.15 55.55 102.0 44.95 104.1 79.6 87.85 87.25 50.85 L80.0 40.7 75.6 40.7 71.25 36.3 Q19.15 42.2 -21.95 74.9 L0.5 33.45 -1.45 15.95 -21.2 13.65 1.05 -35.9 -14.65 -90.85 -58.8 -49.85 Q-65.3 -54.6 -72.9 -57.05 -103.3 -66.3 -124.3 -41.75 -144.35 -18.4 -133.85 11.3 L-107.05 34.25 -175.25 26.65 -208.35 36.8 -224.5 50.2 -229.7 66.65 -198.3 88.9 -201.3 89.8 Q-221.6 96.6 -229.5 115.75 L-222.45 137.0 -209.85 149.6 -176.95 162.95 -153.65 164.85 -161.55 148.4 -90.6 179.65 M11.4 179.65 L-12.15 179.65 -6.55 174.65 11.4 179.65 M-12.4 179.65 L-12.9 179.65 -12.05 179.2 -12.4 179.65 M-33.55 179.65 L-85.95 179.65 -94.5 165.7 Q-72.95 176.85 -48.7 176.65 -40.6 176.55 -32.85 175.15 L-32.35 175.2 -33.55 179.65 M-36.0 -114.25 L-35.7 -114.5 -36.3 -114.5 -36.0 -114.25" fill="#926329" fill-rule="evenodd" stroke="none"/>
  </g>
  <defs>
    <radialGradient cx="0" cy="0" gradientTransform="matrix(0.2626, 0.0, 0.0, 0.2626, -76.45, 111.7)" gradientUnits="userSpaceOnUse" id="gradient0" r="819.2" spreadMethod="pad">
      <stop offset="0.596078431372549" stop-color="#9c6c2a"/>
      <stop offset="0.9882352941176471" stop-color="#d79b53"/>
    </radialGradient>
  </defs>
</svg>
