<?xml version="1.0" encoding="UTF-8" standalone="no"?>
<svg xmlns:xlink="http://www.w3.org/1999/xlink" height="22.25px" width="12.2px" xmlns="http://www.w3.org/2000/svg">
  <g transform="matrix(1.0, 0.0, 0.0, 1.0, 4.15, 9.35)">
    <path d="M4.15 0.45 Q4.15 -0.2 2.9 -0.65 L0.0 -1.1 -2.95 -0.65 Q-4.1 -0.25 -4.15 0.4 L-4.15 -9.35 5.25 -9.35 4.15 0.45" fill="#505678" fill-rule="evenodd" stroke="none"/>
    <path d="M-4.15 0.4 Q-4.1 -0.25 -2.95 -0.65 L0.0 -1.1 2.9 -0.65 Q4.15 -0.2 4.15 0.45 4.15 1.1 2.9 1.6 L0.0 2.0 -2.95 1.6 Q-4.15 1.1 -4.15 0.45 L-4.15 0.4" fill="#666f99" fill-rule="evenodd" stroke="none"/>
    <path d="M-4.15 0.4 L-4.15 0.45" fill="none" stroke="#393f57" stroke-linecap="round" stroke-linejoin="round" stroke-width="0.05"/>
    <path d="M4.15 0.45 L5.25 -9.35 -4.15 -9.35 -4.15 0.4 M-4.15 0.45 Q-4.15 1.1 -2.95 1.6 L0.0 2.0 2.9 1.6 Q4.15 1.1 4.15 0.45" fill="none" stroke="#393f57" stroke-linecap="round" stroke-linejoin="round" stroke-width="0.05"/>
    <path d="M0.05 -0.15 Q0.0 2.3 1.15 8.0 2.3 13.65 8.05 12.1 1.85 14.6 -0.65 9.5 -3.2 4.4 -3.25 2.6 L-3.2 0.7 Q-1.65 -0.2 0.05 -0.15" fill="#ffffec" fill-rule="evenodd" stroke="none"/>
    <path d="M0.05 -0.15 Q1.65 -0.1 3.35 0.9 3.05 2.1 2.75 7.2 2.45 12.3 8.05 12.1 2.3 13.65 1.15 8.0 0.0 2.3 0.05 -0.15" fill="#ffffcc" fill-rule="evenodd" stroke="none"/>
    <path d="M8.05 12.1 Q2.45 12.3 2.75 7.2 3.05 2.1 3.35 0.9 1.65 -0.1 0.05 -0.15 -1.65 -0.2 -3.2 0.7 L-3.25 2.6 Q-3.2 4.4 -0.65 9.5 1.85 14.6 8.05 12.1 Z" fill="none" stroke="#a9a801" stroke-linecap="round" stroke-linejoin="round" stroke-width="0.05"/>
  </g>
</svg>
