<?xml version="1.0" encoding="UTF-8" standalone="no"?>
<svg xmlns:xlink="http://www.w3.org/1999/xlink" height="748.85px" width="396.9px" xmlns="http://www.w3.org/2000/svg">
  <g transform="matrix(1.0, 0.0, 0.0, 1.0, 258.65, 557.25)">
    <path d="M-96.9 -125.95 L-96.35 -126.45 Q-96.5 -126.1 -96.75 -125.85 L-96.9 -125.95" fill="url(#gradient0)" fill-rule="evenodd" stroke="none"/>
    <path d="M-115.7 191.0 L-115.45 191.6 -115.9 191.0 -115.7 191.0 M-96.35 -126.45 L-96.9 -125.95 -96.75 -126.3 -96.35 -126.45" fill="url(#gradient1)" fill-rule="evenodd" stroke="none"/>
    <path d="M-115.45 191.6 L-120.85 191.0 -115.9 191.0 -115.45 191.6" fill="url(#gradient2)" fill-rule="evenodd" stroke="none"/>
    <path d="M-128.25 190.15 Q-143.3 186.8 -130.9 170.45 -149.7 144.05 -162.85 122.05 -173.65 103.95 -180.6 88.8 L-183.35 82.65 -154.1 79.9 -152.6 64.25 Q-167.95 60.3 -181.05 51.1 -193.95 42.1 -202.9 29.25 L-204.35 -14.6 Q-178.85 -26.35 -153.35 -15.45 L-152.55 -15.35 Q-109.7 -82.9 -52.75 -146.15 L-52.75 -107.6 -48.2 -103.05 Q-56.15 -64.95 -57.55 -26.2 -58.55 2.1 -40.4 23.35 -33.55 25.2 -26.0 27.6 18.65 41.7 39.3 87.1 L43.2 87.4 50.9 88.65 Q56.85 90.05 62.1 92.85 70.75 97.45 76.85 105.2 76.85 127.3 68.05 142.95 59.2 158.55 39.95 179.65 -28.45 191.0 -106.05 191.6 L-115.7 191.0 -115.9 191.0 -120.85 191.0 -128.25 190.15" fill="url(#gradient3)" fill-rule="evenodd" stroke="none"/>
    <path d="M-128.25 190.15 L-245.75 176.9 Q-254.25 166.75 -257.2 153.95 -259.6 143.5 -258.0 132.85 L-256.75 125.75 -227.4 109.6 Q-228.9 107.55 -229.85 105.3 -257.65 39.75 -236.15 -33.45 -195.95 -84.55 -140.25 -118.35 L-140.05 -113.85 -124.45 -139.15 Q-235.4 -227.35 -175.2 -360.7 -221.85 -496.75 -111.45 -557.25 -169.85 -436.4 -52.35 -350.75 91.2 -246.15 2.55 -108.35 0.45 -86.5 3.4 -64.8 6.3 -43.1 14.05 -22.75 44.2 -18.6 69.75 -2.65 202.25 80.1 78.45 174.65 L39.95 179.65 Q59.2 158.55 68.05 142.95 76.85 127.3 76.85 105.2 70.75 97.45 62.1 92.85 56.85 90.05 50.9 88.65 L43.2 87.4 39.3 87.1 Q18.65 41.7 -26.0 27.6 -33.55 25.2 -40.4 23.35 -58.55 2.1 -57.55 -26.2 -56.15 -64.95 -48.2 -103.05 L-52.75 -107.6 -52.75 -146.15 Q-109.7 -82.9 -152.55 -15.35 L-153.35 -15.45 Q-178.85 -26.35 -204.35 -14.6 L-202.9 29.25 Q-193.95 42.1 -181.05 51.1 -167.95 60.3 -152.6 64.25 L-154.1 79.9 -183.35 82.65 -180.6 88.8 Q-173.65 103.95 -162.85 122.05 -149.7 144.05 -130.9 170.45 -143.3 186.8 -128.25 190.15 M-107.15 -170.8 L-105.55 -173.9 Q-78.0 -237.4 -134.95 -286.9 -153.55 -215.0 -107.15 -170.8 M-96.9 -125.95 L-96.75 -125.85 Q-96.5 -126.1 -96.35 -126.45 L-96.75 -126.3 -96.9 -125.95" fill="#926329" fill-rule="evenodd" stroke="none"/>
  </g>
  <defs>
    <radialGradient cx="0" cy="0" gradientTransform="matrix(0.3578, 0.0, 0.0, 0.3578, 11.0, 109.6)" gradientUnits="userSpaceOnUse" id="gradient0" r="819.2" spreadMethod="pad">
      <stop offset="0.30196078431372547" stop-color="#ffffff"/>
      <stop offset="0.4549019607843137" stop-color="#fffbf0"/>
      <stop offset="0.8784313725490196" stop-color="#ffff00"/>
    </radialGradient>
    <radialGradient cx="0" cy="0" gradientTransform="matrix(0.3476, 0.0, 0.0, 0.3476, -26.3, 140.25)" gradientUnits="userSpaceOnUse" id="gradient1" r="819.2" spreadMethod="pad">
      <stop offset="0.30196078431372547" stop-color="#ffffff"/>
      <stop offset="0.4549019607843137" stop-color="#fffbf0"/>
      <stop offset="0.8784313725490196" stop-color="#ffff00"/>
    </radialGradient>
    <radialGradient cx="0" cy="0" gradientTransform="matrix(0.7272, 0.0, 0.0, 0.7272, -132.7, -375.9)" gradientUnits="userSpaceOnUse" id="gradient2" r="819.2" spreadMethod="pad">
      <stop offset="0.0" stop-color="#f38a0c"/>
      <stop offset="0.8470588235294118" stop-color="#ffff00"/>
    </radialGradient>
    <radialGradient cx="0" cy="0" gradientTransform="matrix(0.3578, 0.0, 0.0, 0.3578, 11.0, 109.6)" gradientUnits="userSpaceOnUse" id="gradient3" r="819.2" spreadMethod="pad">
      <stop offset="0.596078431372549" stop-color="#9c6c2a"/>
      <stop offset="0.9882352941176471" stop-color="#d79b53"/>
    </radialGradient>
  </defs>
</svg>
