<?xml version="1.0" encoding="UTF-8" standalone="no"?>
<svg xmlns:xlink="http://www.w3.org/1999/xlink" height="793.9px" width="426.8px" xmlns="http://www.w3.org/2000/svg">
  <g transform="matrix(1.0, 0.0, 0.0, 1.0, 284.55, 613.7)">
    <path d="M-107.45 -40.25 Q-105.05 -45.75 -103.75 -42.35 -103.55 -41.8 -103.5 -41.1 L-107.45 -40.15 -107.45 -40.25 M-225.9 79.6 Q-234.4 46.3 -211.8 30.85 -211.35 30.5 -210.65 30.45 L-225.9 79.6" fill="url(#gradient0)" fill-rule="evenodd" stroke="none"/>
    <path d="M-5.5 -76.05 L-5.9 -76.35 Q-6.5 -76.8 -5.85 -77.05 L-5.5 -76.05" fill="url(#gradient1)" fill-rule="evenodd" stroke="none"/>
    <path d="M-118.2 -107.35 L-118.2 -107.1 -118.6 -107.35 -118.2 -107.35" fill="url(#gradient2)" fill-rule="evenodd" stroke="none"/>
    <path d="M-1.9 -76.25 L-5.5 -76.05 -5.85 -77.05 -5.8 -77.05 -2.05 -78.35 -1.9 -76.25" fill="url(#gradient3)" fill-rule="evenodd" stroke="none"/>
    <path d="M-229.1 177.35 L-225.45 179.65 -229.2 179.45 -229.1 177.35 M-162.9 51.35 L-162.75 51.2 -160.7 53.55 -162.9 51.35" fill="url(#gradient4)" fill-rule="evenodd" stroke="none"/>
    <path d="M-103.5 -41.1 L-92.0 -24.45 -78.65 -33.85 Q-74.35 -30.1 -69.3 -27.85 -56.55 -22.2 -44.75 -27.7 -73.0 -9.95 -60.35 9.3 L-59.6 10.1 Q-28.35 -17.85 12.65 -8.3 26.0 -5.3 37.55 2.0 L-53.25 68.05 -47.65 76.35 Q-0.15 59.1 48.75 71.85 L-3.5 118.5 Q50.3 106.0 93.7 137.4 98.2 140.65 99.45 145.15 96.0 156.1 86.5 163.35 74.7 172.35 59.75 172.9 L53.3 179.35 -229.1 177.35 -258.0 152.5 -235.55 149.8 -256.65 126.3 -233.05 117.0 -230.15 123.8 -193.9 139.25 Q-209.25 125.7 -217.7 107.2 -220.25 101.6 -222.05 95.8 -224.55 87.85 -225.9 79.6 L-210.65 30.45 Q-182.7 31.8 -162.9 51.35 L-160.7 53.55 -162.75 51.2 Q-203.1 3.65 -170.05 -50.7 L-129.7 -46.75 -130.65 -36.95 -136.85 -38.5 -111.95 -12.45 -107.45 -40.15 -103.5 -41.1" fill="url(#gradient5)" fill-rule="evenodd" stroke="none"/>
    <path d="M17.2 -203.2 L2.85 -175.5 -6.15 -201.95 Q-14.55 -227.0 -35.95 -242.65 -27.65 -188.35 -75.9 -162.4 -69.4 -107.1 -97.75 -66.5 -98.1 -74.5 -96.65 -82.25 -89.55 -120.1 -106.05 -149.85 -126.65 -143.55 -120.75 -120.85 -118.65 -112.7 -118.2 -107.35 L-118.6 -107.35 Q-161.45 -134.5 -162.1 -185.8 L-149.0 -221.4 -142.4 -230.6 Q-124.05 -236.9 -109.2 -249.1 -1.6 -337.4 -133.9 -412.4 L-128.35 -413.65 -122.45 -410.65 Q-78.75 -388.05 -46.0 -351.6 L-42.5 -347.75 Q13.65 -285.7 17.2 -203.2 M-200.3 -93.45 Q-161.85 -93.45 -134.65 -77.85 -107.45 -62.3 -107.45 -40.25 L-107.45 -40.15 -111.95 -12.45 -136.85 -38.5 -130.65 -36.95 -129.7 -46.75 -170.05 -50.7 Q-203.1 3.65 -162.75 51.2 L-162.9 51.35 Q-182.7 31.8 -210.65 30.45 -211.35 30.5 -211.8 30.85 -234.4 46.3 -225.9 79.6 -224.55 87.85 -222.05 95.8 -220.25 101.6 -217.7 107.2 -209.25 125.7 -193.9 139.25 L-230.15 123.8 -233.05 117.0 -256.65 126.3 -235.55 149.8 -258.0 152.5 -229.1 177.35 -229.2 179.45 -271.95 177.05 Q-280.65 168.25 -283.05 156.35 -291.35 114.8 -253.15 99.1 L-235.75 110.05 -238.3 104.45 Q-296.65 -22.8 -200.3 -93.45 M-44.75 -27.7 Q-42.05 -29.0 -39.35 -30.9 L12.75 -77.15 -1.9 -76.25 -2.05 -78.35 Q81.65 -103.4 121.1 -21.55 123.35 -16.6 125.15 -11.15 145.85 51.95 95.85 94.3 117.2 90.35 127.4 106.55 178.55 188.0 53.3 179.35 L59.75 172.9 Q74.7 172.35 86.5 163.35 96.0 156.1 99.45 145.15 98.2 140.65 93.7 137.4 50.3 106.0 -3.5 118.5 L48.75 71.85 Q-0.15 59.1 -47.65 76.35 L-53.25 68.05 37.55 2.0 Q26.0 -5.3 12.65 -8.3 -28.35 -17.85 -59.6 10.1 L-60.35 9.3 Q-73.0 -9.95 -44.75 -27.7 M-203.35 -486.45 Q-171.15 -607.95 -51.85 -613.7 L-52.55 -608.55 -56.9 -607.15 Q-106.2 -589.7 -126.3 -541.5 L-133.75 -512.1 -133.8 -511.85 Q-134.75 -504.25 -134.95 -496.5 -135.8 -460.55 -120.45 -428.2 L-160.0 -458.3 Q-168.35 -407.2 -139.65 -365.45 -97.25 -303.7 -150.45 -271.8 -148.05 -279.05 -150.1 -284.7 -185.85 -382.0 -203.35 -486.45" fill="#926329" fill-rule="evenodd" stroke="none"/>
    <path d="M17.2 -203.2 Q46.55 -165.45 47.55 -120.85 L50.65 -119.25 Q110.7 -88.6 121.1 -21.55 81.65 -103.4 -2.05 -78.35 L-5.8 -77.05 -5.85 -77.05 Q-6.5 -76.8 -5.9 -76.35 L-5.5 -76.05 -1.9 -76.25 12.75 -77.15 -39.35 -30.9 Q-42.05 -29.0 -44.75 -27.7 -56.55 -22.2 -69.3 -27.85 -74.35 -30.1 -78.65 -33.85 L-92.0 -24.45 -103.5 -41.1 Q-103.55 -41.8 -103.75 -42.35 -105.05 -45.75 -107.45 -40.25 -107.45 -62.3 -134.65 -77.85 -161.85 -93.45 -200.3 -93.45 L-201.15 -96.75 Q-215.35 -156.65 -162.1 -185.8 -161.45 -134.5 -118.6 -107.35 L-118.2 -107.1 -118.2 -107.35 Q-118.65 -112.7 -120.75 -120.85 -126.65 -143.55 -106.05 -149.85 -89.55 -120.1 -96.65 -82.25 -98.1 -74.5 -97.75 -66.5 -69.4 -107.1 -75.9 -162.4 -27.65 -188.35 -35.95 -242.65 -14.55 -227.0 -6.15 -201.95 L2.85 -175.5 17.2 -203.2 M-126.3 -541.5 L-122.15 -539.4 -118.5 -533.25 -103.6 -553.0 -94.8 -551.75 Q-90.3 -540.35 -84.4 -529.65 -43.0 -454.85 -61.35 -375.75 L-46.0 -351.6 Q-78.75 -388.05 -122.45 -410.65 L-128.35 -413.65 -133.9 -412.4 Q-1.6 -337.4 -109.2 -249.1 -124.05 -236.9 -142.4 -230.6 L-149.0 -221.4 Q-156.6 -235.25 -160.95 -250.3 -167.1 -271.4 -166.45 -293.3 -169.25 -294.9 -171.7 -296.95 -265.35 -374.3 -203.35 -486.45 -185.85 -382.0 -150.1 -284.7 -148.05 -279.05 -150.45 -271.8 -97.25 -303.7 -139.65 -365.45 -168.35 -407.2 -160.0 -458.3 L-120.45 -428.2 Q-135.8 -460.55 -134.95 -496.5 -134.75 -504.25 -133.8 -511.85 L-133.55 -512.2 -133.75 -512.1 -126.3 -541.5" fill="#d79b53" fill-rule="evenodd" stroke="none"/>
  </g>
  <defs>
    <radialGradient cx="0" cy="0" gradientTransform="matrix(0.2468, 0.0, 0.0, 0.2727, -68.1, 70.2)" gradientUnits="userSpaceOnUse" id="gradient0" r="819.2" spreadMethod="pad">
      <stop offset="0.0" stop-color="#ffc533"/>
      <stop offset="0.5333333333333333" stop-color="#fd8c3e"/>
      <stop offset="0.9882352941176471" stop-color="#bf6d2f"/>
    </radialGradient>
    <radialGradient cx="0" cy="0" gradientTransform="matrix(0.3655, 0.0, 0.0, 0.4038, 97.25, 183.9)" gradientUnits="userSpaceOnUse" id="gradient1" r="819.2" spreadMethod="pad">
      <stop offset="0.0" stop-color="#ffc533"/>
      <stop offset="0.5333333333333333" stop-color="#fd8c3e"/>
      <stop offset="0.9882352941176471" stop-color="#bf6d2f"/>
    </radialGradient>
    <radialGradient cx="0" cy="0" gradientTransform="matrix(0.2902, 0.0, 0.0, 0.3206, -42.05, -317.4)" gradientUnits="userSpaceOnUse" id="gradient2" r="819.2" spreadMethod="pad">
      <stop offset="0.0" stop-color="#f38a0c"/>
      <stop offset="0.8470588235294118" stop-color="#ffff00"/>
    </radialGradient>
    <radialGradient cx="0" cy="0" gradientTransform="matrix(0.2799, 0.0, 0.0, 0.3092, 11.05, -43.8)" gradientUnits="userSpaceOnUse" id="gradient3" r="819.2" spreadMethod="pad">
      <stop offset="0.0" stop-color="#f38a0c"/>
      <stop offset="0.8470588235294118" stop-color="#ffff00"/>
    </radialGradient>
    <radialGradient cx="0" cy="0" gradientTransform="matrix(0.2972, 0.0, 0.0, 0.3284, -194.6, -73.15)" gradientUnits="userSpaceOnUse" id="gradient4" r="819.2" spreadMethod="pad">
      <stop offset="0.0" stop-color="#f38a0c"/>
      <stop offset="0.8470588235294118" stop-color="#ffff00"/>
    </radialGradient>
    <radialGradient cx="0" cy="0" gradientTransform="matrix(0.2344, 0.0, 0.0, 0.259, -63.55, 133.1)" gradientUnits="userSpaceOnUse" id="gradient5" r="819.2" spreadMethod="pad">
      <stop offset="0.596078431372549" stop-color="#9c6c2a"/>
      <stop offset="0.9882352941176471" stop-color="#d79b53"/>
    </radialGradient>
  </defs>
</svg>
