<?xml version="1.0" encoding="UTF-8" standalone="no"?>
<svg xmlns:xlink="http://www.w3.org/1999/xlink" height="902.5px" width="455.45px" xmlns="http://www.w3.org/2000/svg">
  <g transform="matrix(1.0, 0.0, 0.0, 1.0, 299.65, 722.85)">
    <path d="M136.75 17.9 L133.95 83.0 100.2 84.15 Q128.2 56.35 136.75 17.9" fill="url(#gradient0)" fill-rule="evenodd" stroke="none"/>
    <path d="M53.8 179.55 L49.65 179.65 53.8 178.45 53.8 179.55" fill="url(#gradient1)" fill-rule="evenodd" stroke="none"/>
    <path d="M-111.35 -63.85 L-110.6 -63.5 -110.75 -63.25 -111.35 -63.85" fill="url(#gradient2)" fill-rule="evenodd" stroke="none"/>
    <path d="M-110.75 -63.25 L-111.15 -63.4 -111.35 -63.85 -110.75 -63.25" fill="#f8ff5b" fill-rule="evenodd" stroke="none"/>
    <path d="M53.9 -266.7 Q59.6 -230.2 50.05 -194.4 L48.8 -189.75 78.25 -124.5 Q28.55 -153.4 -15.15 -118.2 L-17.9 -115.8 -27.95 -56.7 Q1.7 -100.55 51.55 -96.25 57.15 -95.85 59.35 -90.3 70.35 -62.7 57.35 -34.0 L49.8 -17.2 104.0 -44.85 Q111.15 19.5 64.4 65.1 55.85 73.4 48.8 83.5 27.85 113.6 11.1 146.35 33.25 107.6 74.6 117.0 83.9 119.1 92.05 124.2 91.45 147.95 75.35 165.0 66.35 174.6 53.8 178.45 L47.1 179.05 Q-76.05 179.65 -199.2 178.45 L-245.0 178.2 Q-247.6 178.2 -250.15 176.65 -268.6 165.6 -280.2 147.25 L-242.05 174.4 Q-272.9 136.45 -266.5 88.6 -238.6 63.4 -199.9 72.55 -190.9 74.75 -181.6 72.2 -239.65 25.0 -217.35 -48.15 -214.55 -57.25 -210.35 -65.75 L-190.15 -68.05 -174.15 -46.55 Q-190.75 -88.5 -160.55 -117.45 -121.7 -115.1 -113.55 -74.4 L-111.35 -63.85 -111.15 -63.4 -110.75 -63.25 -110.6 -63.5 Q-98.25 -86.05 -112.3 -111.3 -124.1 -132.5 -143.2 -147.7 -160.8 -161.8 -182.95 -166.15 -224.6 -143.45 -233.85 -95.75 -237.2 -78.45 -239.2 -60.95 -245.65 -5.55 -228.55 47.75 -269.7 42.9 -295.85 75.15 -289.8 29.6 -249.55 9.6 L-245.45 7.8 Q-267.55 -102.65 -194.35 -185.85 -203.35 -205.85 -196.3 -226.8 -193.25 -235.85 -187.6 -243.35 L-187.75 -252.4 Q-228.65 -284.15 -225.5 -336.0 -222.95 -378.1 -188.7 -400.95 -185.3 -414.9 -188.9 -434.2 -193.1 -456.55 -191.45 -479.3 -189.85 -501.6 -184.1 -523.25 -160.25 -440.15 -198.45 -365.9 -199.25 -364.3 -200.3 -362.85 -181.85 -363.3 -169.6 -377.85 -149.9 -401.3 -160.85 -425.75 -161.05 -426.15 -161.75 -426.3 -181.3 -499.4 -141.35 -564.5 -139.9 -545.7 -132.3 -528.55 -126.55 -515.55 -116.65 -505.45 -114.45 -523.3 -123.05 -541.0 -127.4 -549.85 -128.0 -559.9 -130.45 -599.85 -90.4 -612.3 -60.15 -621.9 -30.25 -609.95 L-19.45 -605.7 -11.8 -616.95 Q15.65 -568.0 5.15 -510.3 0.75 -486.2 -6.2 -462.9 -11.7 -444.55 -12.3 -428.3 -18.75 -432.45 -25.55 -436.2 -52.65 -450.95 -82.45 -444.2 -130.4 -433.05 -127.3 -385.4 -100.1 -418.85 -60.35 -406.15 -30.75 -396.75 -22.5 -367.7 -18.1 -352.3 -23.65 -337.25 -48.05 -270.75 -117.9 -247.2 -147.75 -194.55 -103.55 -154.4 -101.95 -164.2 -92.7 -167.8 -86.55 -170.25 -81.05 -166.75 L-73.15 -129.3 Q-23.55 -189.7 4.6 -262.8 L18.55 -266.9 Q26.15 -264.55 30.25 -257.95 36.35 -248.0 38.1 -236.45 L53.9 -266.7" fill="url(#gradient3)" fill-rule="evenodd" stroke="none"/>
    <path d="M-12.3 -428.3 Q61.55 -375.6 57.5 -285.75 57.05 -275.9 53.9 -266.7 L38.1 -236.45 Q36.35 -248.0 30.25 -257.95 26.15 -264.55 18.55 -266.9 L4.6 -262.8 Q-23.55 -189.7 -73.15 -129.3 L-81.05 -166.75 Q-86.55 -170.25 -92.7 -167.8 -101.95 -164.2 -103.55 -154.4 -147.75 -194.55 -117.9 -247.2 -48.05 -270.75 -23.65 -337.25 -18.1 -352.3 -22.5 -367.7 -30.75 -396.75 -60.35 -406.15 -100.1 -418.85 -127.3 -385.4 -130.4 -433.05 -82.45 -444.2 -52.65 -450.95 -25.55 -436.2 -18.75 -432.45 -12.3 -428.3 M78.25 -124.5 Q86.7 -119.65 93.65 -113.15 150.45 -60.45 136.75 17.9 128.2 56.35 100.2 84.15 L133.95 83.0 Q147.3 87.3 151.6 100.65 167.7 150.45 122.0 174.15 118.15 176.1 114.2 176.75 L53.8 179.55 53.8 178.45 Q66.35 174.6 75.35 165.0 91.45 147.95 92.05 124.2 83.9 119.1 74.6 117.0 33.25 107.6 11.1 146.35 27.85 113.6 48.8 83.5 55.85 73.4 64.4 65.1 111.15 19.5 104.0 -44.85 L49.8 -17.2 57.35 -34.0 Q70.35 -62.7 59.35 -90.3 57.15 -95.85 51.55 -96.25 1.7 -100.55 -27.95 -56.7 L-17.9 -115.8 -15.15 -118.2 Q28.55 -153.4 78.25 -124.5 M-280.2 147.25 Q-301.75 117.35 -299.4 80.2 L-295.85 75.15 Q-269.7 42.9 -228.55 47.75 -245.65 -5.55 -239.2 -60.95 -237.2 -78.45 -233.85 -95.75 -224.6 -143.45 -182.95 -166.15 -160.8 -161.8 -143.2 -147.7 -124.1 -132.5 -112.3 -111.3 -98.25 -86.05 -110.6 -63.5 L-111.35 -63.85 -113.55 -74.4 Q-121.7 -115.1 -160.55 -117.45 -190.75 -88.5 -174.15 -46.55 L-190.15 -68.05 -210.35 -65.75 Q-214.55 -57.25 -217.35 -48.15 -239.65 25.0 -181.6 72.2 -190.9 74.75 -199.9 72.55 -238.6 63.4 -266.5 88.6 -272.9 136.45 -242.05 174.4 L-280.2 147.25 M-184.1 -523.25 Q-189.2 -542.3 -190.4 -561.95 -195.95 -651.65 -127.05 -707.75 -94.15 -734.6 -58.55 -713.7 -1.55 -680.15 -11.8 -616.95 L-19.45 -605.7 -30.25 -609.95 Q-60.15 -621.9 -90.4 -612.3 -130.45 -599.85 -128.0 -559.9 -127.4 -549.85 -123.05 -541.0 -114.45 -523.3 -116.65 -505.45 -126.55 -515.55 -132.3 -528.55 -139.9 -545.7 -141.35 -564.5 -181.3 -499.4 -161.75 -426.3 -161.05 -426.15 -160.85 -425.75 -149.9 -401.3 -169.6 -377.85 -181.85 -363.3 -200.3 -362.85 -199.25 -364.3 -198.45 -365.9 -160.25 -440.15 -184.1 -523.25" fill="#926329" fill-rule="evenodd" stroke="none"/>
  </g>
  <defs>
    <radialGradient cx="0" cy="0" gradientTransform="matrix(1.651, 0.0, 0.0, 0.6523, -114.1, 185.2)" gradientUnits="userSpaceOnUse" id="gradient0" r="819.2" spreadMethod="pad">
      <stop offset="0.0" stop-color="#ffff00"/>
      <stop offset="0.9882352941176471" stop-color="#ec0000"/>
    </radialGradient>
    <radialGradient cx="0" cy="0" gradientTransform="matrix(0.3558, 0.0, 0.0, 0.3959, 8.8, -124.15)" gradientUnits="userSpaceOnUse" id="gradient1" r="819.2" spreadMethod="pad">
      <stop offset="0.0" stop-color="#f38a0c"/>
      <stop offset="0.8470588235294118" stop-color="#ffff00"/>
    </radialGradient>
    <radialGradient cx="0" cy="0" gradientTransform="matrix(0.3403, 0.0, 0.0, 0.3787, -192.4, -129.1)" gradientUnits="userSpaceOnUse" id="gradient2" r="819.2" spreadMethod="pad">
      <stop offset="0.0" stop-color="#f38a0c"/>
      <stop offset="0.8470588235294118" stop-color="#ffff00"/>
    </radialGradient>
    <radialGradient cx="0" cy="0" gradientTransform="matrix(1.651, 0.0, 0.0, 0.6523, -114.1, 185.2)" gradientUnits="userSpaceOnUse" id="gradient3" r="819.2" spreadMethod="pad">
      <stop offset="0.596078431372549" stop-color="#9c6c2a"/>
      <stop offset="0.9882352941176471" stop-color="#d79b53"/>
    </radialGradient>
  </defs>
</svg>
