<?xml version="1.0" encoding="UTF-8" standalone="no"?>
<svg xmlns:xlink="http://www.w3.org/1999/xlink" height="955.9px" width="435.4px" xmlns="http://www.w3.org/2000/svg">
  <g transform="matrix(1.0, 0.0, 0.0, 1.0, 304.05, 735.55)">
    <path d="M-278.1 -15.15 L-272.4 -61.85 -253.45 -19.2 -278.1 -15.15" fill="url(#gradient0)" fill-rule="evenodd" stroke="none"/>
    <path d="M-204.55 -73.2 L-202.8 -73.35 -204.55 -73.2" fill="url(#gradient1)" fill-rule="evenodd" stroke="none"/>
    <path d="M91.15 -21.95 L90.15 -14.55 Q122.65 13.3 130.0 56.6 134.4 82.5 124.25 106.65 101.6 160.35 47.25 177.05 22.4 184.55 9.1 210.35 -25.2 173.4 -44.6 220.35 -87.95 178.95 -129.4 208.85 -145.05 206.1 -162.0 212.7 -179.0 219.3 -212.95 186.55 -246.95 153.75 -269.0 114.0 -276.8 99.9 -276.5 83.7 L-276.2 74.1 Q-263.4 79.2 -249.9 77.7 -234.8 75.8 -229.4 61.2 -260.15 63.1 -267.1 32.5 -268.8 25.1 -265.75 18.55 -255.2 -3.85 -227.65 3.85 -210.1 8.65 -204.4 25.85 -201.05 35.8 -197.55 35.8 -188.0 21.35 -195.0 4.05 -203.95 -18.2 -228.25 -21.1 -240.25 -41.5 -237.6 -64.8 -235.2 -85.55 -221.7 -96.4 L-204.55 -73.2 -202.8 -73.35 Q-200.75 -76.3 -203.25 -84.3 -215.5 -123.3 -187.6 -152.15 -161.75 -178.9 -135.55 -153.5 L-133.1 -159.3 -135.3 -162.6 Q-164.15 -200.35 -213.25 -190.5 -223.5 -231.05 -205.65 -269.1 L-203.15 -274.6 Q-244.75 -329.15 -214.05 -388.2 -205.6 -404.45 -192.15 -417.15 L-192.6 -428.1 Q-221.55 -465.45 -208.0 -509.45 -204.55 -520.5 -197.25 -530.1 L-179.8 -480.85 -179.75 -480.3 -179.6 -480.35 Q-176.2 -472.2 -171.55 -464.9 -167.65 -458.8 -165.5 -451.65 -161.55 -438.65 -161.75 -425.05 -162.4 -376.5 -124.35 -351.85 -171.3 -450.65 -129.75 -551.2 -118.7 -577.95 -99.7 -599.5 -71.85 -631.1 -38.15 -604.6 L-36.3 -578.4 Q-35.9 -578.0 -35.45 -578.05 -16.6 -575.8 -4.4 -589.65 -2.35 -552.65 -17.1 -518.75 L-19.3 -513.9 Q-29.85 -516.75 -41.0 -516.65 -99.75 -514.55 -112.3 -457.95 -116.0 -441.25 -118.6 -424.3 -122.95 -396.3 -106.25 -376.45 L-81.7 -417.85 -54.25 -417.85 Q-48.7 -412.85 -44.65 -406.95 -2.7 -345.3 -31.25 -275.55 -35.35 -265.5 -42.1 -257.3 -88.95 -200.75 -97.5 -129.3 L-79.95 -97.2 Q-42.1 -147.35 18.15 -123.0 78.8 -98.5 73.05 -33.25 L55.2 -25.35 Q33.35 -31.35 10.9 -33.9 -15.35 -37.15 -28.9 -17.3 L-24.45 -17.2 Q-8.4 -19.45 7.8 -19.4 59.7 -19.25 89.75 20.45 104.95 40.5 96.4 64.0 77.25 116.4 21.1 109.15 L16.4 117.3 Q45.55 136.05 79.35 127.85 116.0 119.0 119.95 82.4 125.35 32.0 88.95 -3.25 78.4 -13.45 76.4 -17.15 L91.15 -21.95" fill="url(#gradient2)" fill-rule="evenodd" stroke="none"/>
    <path d="M-19.3 -513.9 Q55.2 -487.55 72.9 -407.75 91.95 -321.95 34.1 -255.5 L23.45 -243.45 Q40.4 -218.4 32.85 -189.5 L31.8 -185.95 Q97.15 -175.8 114.15 -110.6 127.8 -58.2 91.15 -21.95 L76.4 -17.15 Q78.4 -13.45 88.95 -3.25 125.35 32.0 119.95 82.4 116.0 119.0 79.35 127.85 45.55 136.05 16.4 117.3 L21.1 109.15 Q77.25 116.4 96.4 64.0 104.95 40.5 89.75 20.45 59.7 -19.25 7.8 -19.4 -8.4 -19.45 -24.45 -17.2 L-28.9 -17.3 Q-15.35 -37.15 10.9 -33.9 33.35 -31.35 55.2 -25.35 L73.05 -33.25 Q78.8 -98.5 18.15 -123.0 -42.1 -147.35 -79.95 -97.2 L-97.5 -129.3 Q-88.95 -200.75 -42.1 -257.3 -35.35 -265.5 -31.25 -275.55 -2.7 -345.3 -44.65 -406.95 -48.7 -412.85 -54.25 -417.85 L-81.7 -417.85 -106.25 -376.45 Q-122.95 -396.3 -118.6 -424.3 -116.0 -441.25 -112.3 -457.95 -99.75 -514.55 -41.0 -516.65 -29.85 -516.75 -19.3 -513.9 M-276.2 74.1 Q-314.9 54.5 -299.85 11.5 -293.75 -5.95 -278.1 -15.15 L-253.45 -19.2 -272.4 -61.85 Q-289.0 -127.7 -244.15 -175.35 -235.45 -184.6 -223.05 -188.15 L-213.25 -190.5 Q-164.15 -200.35 -135.3 -162.6 L-133.1 -159.3 -135.55 -153.5 Q-161.75 -178.9 -187.6 -152.15 -215.5 -123.3 -203.25 -84.3 -200.75 -76.3 -202.8 -73.35 L-204.55 -73.2 -221.7 -96.4 Q-235.2 -85.55 -237.6 -64.8 -240.25 -41.5 -228.25 -21.1 -203.95 -18.2 -195.0 4.05 -188.0 21.35 -197.55 35.8 -201.05 35.8 -204.4 25.85 -210.1 8.65 -227.65 3.85 -255.2 -3.85 -265.75 18.55 -268.8 25.1 -267.1 32.5 -260.15 63.1 -229.4 61.2 -234.8 75.8 -249.9 77.7 -263.4 79.2 -276.2 74.1 M-197.25 -530.1 Q-218.9 -605.15 -191.1 -676.0 -188.35 -683.0 -183.55 -689.15 -149.6 -732.9 -97.15 -735.3 -85.0 -736.35 -73.15 -732.95 -7.85 -713.75 5.0 -645.75 10.75 -615.3 -4.4 -589.65 -16.6 -575.8 -35.45 -578.05 -35.9 -578.0 -36.3 -578.4 L-38.15 -604.6 Q-71.85 -631.1 -99.7 -599.5 -118.7 -577.95 -129.75 -551.2 -171.3 -450.65 -124.35 -351.85 -162.4 -376.5 -161.75 -425.05 -161.55 -438.65 -165.5 -451.65 -167.65 -458.8 -171.55 -464.9 -176.2 -472.2 -179.6 -480.35 L-179.8 -480.85 -197.25 -530.1" fill="#926329" fill-rule="evenodd" stroke="none"/>
  </g>
  <defs>
    <radialGradient cx="0" cy="0" gradientTransform="matrix(1.651, 0.0, 0.0, 0.617, -114.1, 185.2)" gradientUnits="userSpaceOnUse" id="gradient0" r="819.2" spreadMethod="pad">
      <stop offset="0.0" stop-color="#ffff00"/>
      <stop offset="0.9882352941176471" stop-color="#ec0000"/>
    </radialGradient>
    <radialGradient cx="0" cy="0" gradientTransform="matrix(0.2695, 0.0, 0.0, 0.2837, -227.75, -149.35)" gradientUnits="userSpaceOnUse" id="gradient1" r="819.2" spreadMethod="pad">
      <stop offset="0.0" stop-color="#f38a0c"/>
      <stop offset="0.8470588235294118" stop-color="#ffff00"/>
    </radialGradient>
    <radialGradient cx="0" cy="0" gradientTransform="matrix(1.651, 0.0, 0.0, 0.617, -114.1, 185.2)" gradientUnits="userSpaceOnUse" id="gradient2" r="819.2" spreadMethod="pad">
      <stop offset="0.596078431372549" stop-color="#9c6c2a"/>
      <stop offset="0.9882352941176471" stop-color="#d79b53"/>
    </radialGradient>
  </defs>
</svg>
