<?xml version="1.0" encoding="UTF-8" standalone="no"?>
<svg xmlns:xlink="http://www.w3.org/1999/xlink" height="939.55px" width="488.95px" xmlns="http://www.w3.org/2000/svg">
  <g transform="matrix(1.0, 0.0, 0.0, 1.0, 344.85, 759.9)">
    <path d="M-2.15 -309.35 Q-2.7 -308.35 -2.6 -306.95 -2.5 -305.5 -3.5 -308.85 L-2.15 -309.35" fill="url(#gradient0)" fill-rule="evenodd" stroke="none"/>
    <path d="M62.4 -179.2 L62.4 -179.15 61.55 -179.7 62.4 -179.2" fill="url(#gradient1)" fill-rule="evenodd" stroke="none"/>
    <path d="M-155.65 -578.9 Q-155.95 -576.55 -156.95 -576.15 L-157.6 -578.1 -157.65 -578.2 -155.65 -578.9 M-0.3 -40.95 Q-0.65 -40.05 -1.3 -39.55 L-1.65 -40.0 -0.3 -40.95 M62.4 -179.15 L61.65 -177.75 Q61.2 -178.05 61.55 -179.7 L62.4 -179.15" fill="url(#gradient2)" fill-rule="evenodd" stroke="none"/>
    <path d="M-1.75 -40.2 L-1.7 -41.05 -0.3 -40.95 -0.65 -40.75 -1.75 -40.2" fill="url(#gradient3)" fill-rule="evenodd" stroke="none"/>
    <path d="M-157.65 -578.25 L-155.65 -578.9 -157.65 -578.2 -157.65 -578.25" fill="url(#gradient4)" fill-rule="evenodd" stroke="none"/>
    <path d="M-187.8 -197.85 L-188.0 -197.4 -188.0 -197.85 -187.8 -197.85" fill="url(#gradient5)" fill-rule="evenodd" stroke="none"/>
    <path d="M-121.85 -221.9 L-120.95 -212.65 -123.9 -221.15 -121.85 -221.9" fill="url(#gradient6)" fill-rule="evenodd" stroke="none"/>
    <path d="M-1.65 -40.0 L-1.75 -40.15 -0.65 -40.75 -0.3 -40.95 -1.65 -40.0" fill="url(#gradient7)" fill-rule="evenodd" stroke="none"/>
    <path d="M-1.75 -40.15 L-1.75 -40.2 -0.65 -40.75 -1.75 -40.15" fill="url(#gradient8)" fill-rule="evenodd" stroke="none"/>
    <path d="M-155.45 -580.3 L-143.5 -591.2 Q-145.45 -595.85 -143.7 -600.5 -136.15 -620.95 -116.95 -630.95 -113.75 -632.65 -110.2 -634.0 L-102.85 -636.5 Q-52.45 -650.8 -24.6 -609.5 -24.85 -608.25 -26.1 -607.45 L-27.4 -606.55 -26.8 -606.2 Q10.3 -584.9 27.4 -544.2 41.5 -540.25 49.75 -528.75 67.25 -504.4 73.8 -475.15 92.2 -392.7 25.6 -336.25 L28.3 -332.25 Q47.25 -304.75 44.25 -271.55 16.15 -271.95 -7.2 -256.5 -13.8 -252.1 -17.3 -245.15 -44.25 -191.85 -10.4 -139.3 L-3.15 -140.0 Q-6.1 -145.65 -6.65 -151.75 -11.5 -205.5 38.0 -223.8 L39.3 -223.35 Q66.3 -210.1 61.55 -179.7 61.2 -178.05 61.65 -177.75 L62.4 -179.15 62.4 -179.2 Q73.2 -200.15 92.55 -201.95 132.0 -176.1 124.25 -128.9 122.55 -118.5 115.7 -110.7 96.25 -88.45 114.0 -68.4 L117.0 -37.7 Q91.4 -87.85 38.25 -77.6 23.75 -74.8 11.2 -66.4 5.05 -62.2 -0.65 -57.5 L-1.7 -41.05 -1.75 -40.2 -1.75 -40.15 -1.65 -40.0 -1.3 -39.55 Q-0.65 -40.05 -0.3 -40.95 16.85 -75.3 51.45 -57.65 99.75 -33.2 83.15 16.2 L78.95 29.1 Q76.1 30.3 76.2 31.2 76.75 37.25 80.55 42.85 124.6 106.8 109.05 179.65 L-344.8 177.9 Q-345.1 172.2 -342.85 167.05 -313.95 101.8 -264.3 49.8 L-268.0 7.5 -257.8 58.45 Q-248.35 11.35 -255.45 -36.15 -256.3 -41.65 -259.25 -45.65 -279.05 -72.45 -294.5 -102.05 -305.85 -123.75 -302.7 -144.0 -280.0 -158.5 -257.0 -144.2 -222.45 -122.6 -233.9 -82.8 -227.15 -86.8 -224.6 -94.15 -214.2 -124.45 -230.15 -154.45 -252.65 -196.75 -297.95 -181.0 L-279.5 -219.45 -261.4 -203.25 Q-266.1 -213.05 -263.5 -223.55 -255.45 -256.05 -222.9 -246.75 -185.5 -236.05 -188.0 -197.85 L-188.0 -197.4 -187.8 -197.85 Q-186.4 -214.4 -173.9 -225.5 -146.55 -249.85 -123.9 -221.15 L-120.95 -212.65 -121.85 -221.9 Q-125.45 -242.8 -139.4 -258.9 -183.0 -309.1 -246.25 -291.3 -288.15 -339.25 -282.8 -403.85 -281.15 -424.0 -270.85 -441.1 -237.45 -496.5 -169.9 -496.9 L-171.75 -503.2 Q-184.45 -544.7 -157.6 -578.1 L-156.95 -576.15 Q-155.95 -576.55 -155.65 -578.9 L-155.45 -580.3 M-2.15 -309.35 Q10.75 -333.2 25.1 -356.75 72.25 -434.2 21.95 -510.75 12.4 -524.35 -1.5 -533.55 -49.5 -565.4 -103.85 -546.35 -136.2 -535.0 -152.25 -504.95 -176.0 -460.5 -145.75 -422.35 -135.55 -409.5 -125.0 -412.65 L-144.1 -441.35 Q-130.35 -468.55 -104.85 -484.1 -98.6 -487.95 -91.65 -487.2 -35.4 -481.65 -16.85 -427.25 -13.65 -417.8 -14.35 -408.0 -17.55 -361.55 -5.8 -317.25 L-3.5 -308.85 Q-2.5 -305.5 -2.6 -306.95 -2.7 -308.35 -2.15 -309.35 M-133.2 -440.25 Q-133.1 -442.7 -135.0 -445.15 L-135.2 -440.5 -133.2 -440.25 M-61.95 -224.7 Q-69.25 -215.45 -75.0 -205.25 -103.6 -154.1 -64.45 -110.7 L-63.9 -117.85 Q-86.6 -166.45 -47.7 -204.4 L-38.0 -203.15 Q-37.25 -207.25 -37.25 -211.3 -37.35 -227.45 -47.9 -239.45 L-61.95 -224.7" fill="url(#gradient9)" fill-rule="evenodd" stroke="none"/>
    <path d="M-155.45 -580.3 L-155.65 -578.9 -157.65 -578.25 Q-182.55 -667.2 -121.65 -735.95 -109.65 -749.55 -94.75 -759.9 -16.7 -752.85 18.95 -682.45 46.6 -627.75 10.85 -582.45 -4.1 -595.9 -22.0 -615.0 -57.9 -653.4 -103.4 -637.95 -107.05 -636.75 -110.7 -635.15 L-116.05 -632.75 -117.55 -632.0 Q-149.4 -615.75 -155.45 -580.3 M-246.25 -291.3 Q-183.0 -309.1 -139.4 -258.9 -125.45 -242.8 -121.85 -221.9 L-123.9 -221.15 Q-146.55 -249.85 -173.9 -225.5 -186.4 -214.4 -187.8 -197.85 L-188.0 -197.85 Q-185.5 -236.05 -222.9 -246.75 -255.45 -256.05 -263.5 -223.55 -266.1 -213.05 -261.4 -203.25 L-279.5 -219.45 Q-287.7 -264.2 -248.9 -289.75 L-246.25 -291.3 M-297.95 -181.0 Q-252.65 -196.75 -230.15 -154.45 -214.2 -124.45 -224.6 -94.15 -227.15 -86.8 -233.9 -82.8 -222.45 -122.6 -257.0 -144.2 -280.0 -158.5 -302.7 -144.0 -305.85 -123.75 -294.5 -102.05 -279.05 -72.45 -259.25 -45.65 -256.3 -41.65 -255.45 -36.15 -248.35 11.35 -257.8 58.45 L-268.0 7.5 Q-283.45 -24.6 -309.15 -50.7 -343.2 -85.4 -335.85 -131.7 -330.3 -166.75 -297.95 -181.0 M78.95 29.1 L83.15 16.2 Q99.75 -33.2 51.45 -57.65 16.85 -75.3 -0.3 -40.95 L-1.7 -41.05 -0.65 -57.5 Q5.05 -62.2 11.2 -66.4 23.75 -74.8 38.25 -77.6 91.4 -87.85 117.0 -37.7 120.35 -29.7 120.6 -20.95 121.9 23.2 82.9 35.4 L78.95 29.1 M114.0 -68.4 Q96.25 -88.45 115.7 -110.7 122.55 -118.5 124.25 -128.9 132.0 -176.1 92.55 -201.95 73.2 -200.15 62.4 -179.2 L61.55 -179.7 Q66.3 -210.1 39.3 -223.35 L38.0 -223.8 Q-11.5 -205.5 -6.65 -151.75 -6.1 -145.65 -3.15 -140.0 L-10.4 -139.3 Q-44.25 -191.85 -17.3 -245.15 -13.8 -252.1 -7.2 -256.5 16.15 -271.95 44.25 -271.55 113.9 -265.75 135.95 -199.05 158.65 -130.25 117.95 -71.65 116.55 -69.65 114.0 -68.4 M-3.5 -308.85 L-5.8 -317.25 Q-17.55 -361.55 -14.35 -408.0 -13.65 -417.8 -16.85 -427.25 -35.4 -481.65 -91.65 -487.2 -98.6 -487.95 -104.85 -484.1 -130.35 -468.55 -144.1 -441.35 L-125.0 -412.65 Q-135.55 -409.5 -145.75 -422.35 -176.0 -460.5 -152.25 -504.95 -136.2 -535.0 -103.85 -546.35 -49.5 -565.4 -1.5 -533.55 12.4 -524.35 21.95 -510.75 72.25 -434.2 25.1 -356.75 10.75 -333.2 -2.15 -309.35 L-3.5 -308.85 M-61.95 -224.7 L-47.9 -239.45 Q-37.35 -227.45 -37.25 -211.3 -37.25 -207.25 -38.0 -203.15 L-47.7 -204.4 Q-86.6 -166.45 -63.9 -117.85 L-64.45 -110.7 Q-103.6 -154.1 -75.0 -205.25 -69.25 -215.45 -61.95 -224.7" fill="#926329" fill-rule="evenodd" stroke="none"/>
  </g>
  <defs>
    <radialGradient cx="0" cy="0" gradientTransform="matrix(0.259, 0.0, 0.0, 0.2689, -37.6, -520.9)" gradientUnits="userSpaceOnUse" id="gradient0" r="819.2" spreadMethod="pad">
      <stop offset="0.0" stop-color="#f38a0c"/>
      <stop offset="0.8470588235294118" stop-color="#ffff00"/>
    </radialGradient>
    <radialGradient cx="0" cy="0" gradientTransform="matrix(0.2413, 0.0, 0.0, 0.2504, 55.25, -261.55)" gradientUnits="userSpaceOnUse" id="gradient1" r="819.2" spreadMethod="pad">
      <stop offset="0.0" stop-color="#f38a0c"/>
      <stop offset="0.8470588235294118" stop-color="#ffff00"/>
    </radialGradient>
    <radialGradient cx="0" cy="0" gradientTransform="matrix(0.3655, 0.0, 0.0, 0.3794, 97.25, 188.8)" gradientUnits="userSpaceOnUse" id="gradient2" r="819.2" spreadMethod="pad">
      <stop offset="0.0" stop-color="#ffc533"/>
      <stop offset="0.5333333333333333" stop-color="#fd8c3e"/>
      <stop offset="0.9882352941176471" stop-color="#bf6d2f"/>
    </radialGradient>
    <radialGradient cx="0" cy="0" gradientTransform="matrix(0.1342, 0.0, 0.0, 0.1393, 59.65, -75.65)" gradientUnits="userSpaceOnUse" id="gradient3" r="819.2" spreadMethod="pad">
      <stop offset="0.0" stop-color="#f38a0c"/>
      <stop offset="0.8470588235294118" stop-color="#ffff00"/>
    </radialGradient>
    <radialGradient cx="0" cy="0" gradientTransform="matrix(0.1527, 0.0, 0.0, 0.1585, -83.2, -665.9)" gradientUnits="userSpaceOnUse" id="gradient4" r="819.2" spreadMethod="pad">
      <stop offset="0.0" stop-color="#ffc533"/>
      <stop offset="0.5333333333333333" stop-color="#fd8c3e"/>
      <stop offset="0.9882352941176471" stop-color="#bf6d2f"/>
    </radialGradient>
    <radialGradient cx="0" cy="0" gradientTransform="matrix(0.1417, 0.0, 0.0, 0.147, -221.1, -284.25)" gradientUnits="userSpaceOnUse" id="gradient5" r="819.2" spreadMethod="pad">
      <stop offset="0.0" stop-color="#f38a0c"/>
      <stop offset="0.8470588235294118" stop-color="#ffff00"/>
    </radialGradient>
    <radialGradient cx="0" cy="0" gradientTransform="matrix(0.12, 0.0, 0.0, 0.1246, -184.15, -232.25)" gradientUnits="userSpaceOnUse" id="gradient6" r="819.2" spreadMethod="pad">
      <stop offset="0.0" stop-color="#ffc533"/>
      <stop offset="0.5333333333333333" stop-color="#fd8c3e"/>
      <stop offset="0.9882352941176471" stop-color="#bf6d2f"/>
    </radialGradient>
    <radialGradient cx="0" cy="0" gradientTransform="matrix(0.1303, 0.0, 0.0, 0.1353, 87.9, 4.05)" gradientUnits="userSpaceOnUse" id="gradient7" r="819.2" spreadMethod="pad">
      <stop offset="0.0" stop-color="#ffc533"/>
      <stop offset="0.5333333333333333" stop-color="#fd8c3e"/>
      <stop offset="0.9882352941176471" stop-color="#bf6d2f"/>
    </radialGradient>
    <radialGradient cx="0" cy="0" gradientTransform="matrix(0.1303, 0.0, 0.0, 0.1353, 87.9, 4.05)" gradientUnits="userSpaceOnUse" id="gradient8" r="819.2" spreadMethod="pad">
      <stop offset="0.0" stop-color="#f38a0c"/>
      <stop offset="0.8470588235294118" stop-color="#ffff00"/>
    </radialGradient>
    <radialGradient cx="0" cy="0" gradientTransform="matrix(1.651, 0.0, 0.0, 0.5862, -114.1, 185.2)" gradientUnits="userSpaceOnUse" id="gradient9" r="819.2" spreadMethod="pad">
      <stop offset="0.596078431372549" stop-color="#9c6c2a"/>
      <stop offset="0.9882352941176471" stop-color="#d79b53"/>
    </radialGradient>
  </defs>
</svg>
