<?xml version="1.0" encoding="UTF-8" standalone="no"?>
<svg xmlns:xlink="http://www.w3.org/1999/xlink" height="1152.2px" width="507.4px" xmlns="http://www.w3.org/2000/svg">
  <g transform="matrix(1.0, 0.0, 0.0, 1.0, 362.6, 972.55)">
    <path d="M-308.25 -308.0 L-305.9 -309.5 -306.5 -307.5 -308.25 -308.0" fill="url(#gradient0)" fill-rule="evenodd" stroke="none"/>
    <path d="M48.65 -456.9 L50.7 -456.25 49.65 -453.7 48.65 -456.9" fill="url(#gradient1)" fill-rule="evenodd" stroke="none"/>
    <path d="M-252.4 -360.3 L-252.75 -357.8 -253.15 -360.1 -252.4 -360.3" fill="url(#gradient2)" fill-rule="evenodd" stroke="none"/>
    <path d="M-305.7 -310.2 L-305.55 -310.9 -305.0 -310.0 -305.7 -310.2" fill="url(#gradient3)" fill-rule="evenodd" stroke="none"/>
    <path d="M-121.65 -964.0 L-121.65 -964.15 Q-122.05 -965.1 -121.65 -964.0 M-305.0 -310.0 Q-297.45 -314.0 -288.05 -312.5 L-266.3 -335.0 Q-292.55 -463.9 -196.25 -544.95 L-190.85 -549.4 Q-185.1 -553.95 -177.4 -552.1 -163.0 -548.35 -150.45 -540.55 -78.35 -594.35 -136.05 -659.1 -161.65 -687.8 -195.25 -710.4 -202.55 -715.4 -206.45 -724.05 -258.95 -840.6 -174.35 -934.0 -160.15 -949.6 -140.75 -958.5 L-137.85 -972.55 -117.85 -971.5 Q-85.1 -920.0 -101.05 -856.85 -107.25 -832.25 -112.55 -807.4 -118.3 -780.2 -109.35 -788.5 -92.0 -803.7 -79.95 -773.95 -73.45 -757.85 -60.55 -745.85 -19.15 -707.05 9.0 -658.75 34.9 -614.15 27.9 -563.2 98.8 -494.45 73.85 -398.85 70.45 -385.75 61.5 -375.65 78.25 -361.2 95.6 -337.25 120.25 -303.2 107.8 -261.15 103.7 -247.25 108.4 -233.3 124.85 -184.55 142.45 -137.1 147.4 -123.7 142.0 -110.3 123.25 -64.05 71.55 -55.7 106.45 -37.3 108.1 1.65 110.45 58.45 79.15 106.45 L86.4 175.45 -282.25 179.65 Q-336.45 89.4 -290.2 -11.75 -281.65 -30.45 -275.4 -50.4 -266.15 -79.75 -261.65 -110.0 -292.3 -95.2 -320.0 -114.85 -341.75 -130.35 -351.45 -155.95 -387.25 -250.6 -308.25 -308.0 L-306.5 -307.5 Q-314.1 -281.05 -331.3 -253.5 -372.75 -187.2 -326.45 -124.5 L-335.6 -173.3 Q-338.2 -207.75 -314.2 -232.2 -279.05 -268.05 -305.0 -310.0 M-125.5 -928.3 Q-118.95 -952.4 -130.55 -958.4 -146.85 -919.2 -175.25 -885.7 -233.3 -817.25 -204.6 -736.65 -202.15 -761.85 -197.75 -787.0 -193.05 -813.55 -175.75 -834.0 -139.55 -876.75 -125.5 -928.3 M50.7 -456.25 Q63.4 -489.5 34.1 -521.55 L7.8 -457.55 Q10.15 -459.9 13.0 -461.95 25.35 -470.75 40.3 -466.0 L47.7 -459.7 48.65 -456.9 49.65 -453.7 50.7 -456.25 M50.9 -237.8 L56.65 -222.05 54.15 -201.95 75.7 -205.85 76.4 -207.1 Q89.25 -249.4 54.3 -278.2 -2.45 -319.6 -12.95 -389.55 -40.0 -290.95 50.9 -237.8 M-92.0 -771.6 Q-104.7 -763.85 -103.8 -736.95 -102.1 -686.85 -61.2 -655.8 -43.9 -642.65 -38.65 -621.4 -34.05 -602.65 -37.7 -583.9 -10.1 -638.2 -60.7 -679.8 -87.45 -701.75 -92.15 -736.1 -93.35 -744.7 -93.0 -752.55 L-92.0 -771.6 M-252.4 -360.3 Q-251.1 -368.65 -245.05 -373.8 -162.1 -444.0 -196.1 -544.85 -196.45 -502.65 -202.8 -461.15 -204.4 -450.65 -211.9 -444.15 -263.65 -399.15 -258.55 -332.4 L-253.45 -364.25 -253.15 -360.1 -252.75 -357.8 -252.4 -360.3" fill="url(#gradient4)" fill-rule="evenodd" stroke="none"/>
    <path d="M-305.9 -309.5 L-305.7 -310.2 -305.0 -310.0 Q-279.05 -268.05 -314.2 -232.2 -338.2 -207.75 -335.6 -173.3 L-326.45 -124.5 Q-372.75 -187.2 -331.3 -253.5 -314.1 -281.05 -306.5 -307.5 L-305.9 -309.5 M-125.5 -928.3 Q-139.55 -876.75 -175.75 -834.0 -193.05 -813.55 -197.75 -787.0 -202.15 -761.85 -204.6 -736.65 -233.3 -817.25 -175.25 -885.7 -146.85 -919.2 -130.55 -958.4 -118.95 -952.4 -125.5 -928.3 M50.7 -456.25 L48.65 -456.9 47.7 -459.7 40.3 -466.0 Q25.35 -470.75 13.0 -461.95 10.15 -459.9 7.8 -457.55 L34.1 -521.55 Q63.4 -489.5 50.7 -456.25 M50.9 -237.8 Q-40.0 -290.95 -12.95 -389.55 -2.45 -319.6 54.3 -278.2 89.25 -249.4 76.4 -207.1 L75.7 -205.85 54.15 -201.95 56.65 -222.05 50.9 -237.8 M-92.0 -771.6 L-93.0 -752.55 Q-93.35 -744.7 -92.15 -736.1 -87.45 -701.75 -60.7 -679.8 -10.1 -638.2 -37.7 -583.9 -34.05 -602.65 -38.65 -621.4 -43.9 -642.65 -61.2 -655.8 -102.1 -686.85 -103.8 -736.95 -104.7 -763.85 -92.0 -771.6 M-253.15 -360.1 L-253.45 -364.25 -258.55 -332.4 Q-263.65 -399.15 -211.9 -444.15 -204.4 -450.65 -202.8 -461.15 -196.45 -502.65 -196.1 -544.85 -162.1 -444.0 -245.05 -373.8 -251.1 -368.65 -252.4 -360.3 L-253.15 -360.1" fill="#926329" fill-rule="evenodd" stroke="none"/>
  </g>
  <defs>
    <radialGradient cx="0" cy="0" gradientTransform="matrix(1.651, 0.0, 0.0, 0.6411, -114.1, 185.2)" gradientUnits="userSpaceOnUse" id="gradient0" r="819.2" spreadMethod="pad">
      <stop offset="0.0" stop-color="#ffff00"/>
      <stop offset="0.9882352941176471" stop-color="#ec0000"/>
    </radialGradient>
    <radialGradient cx="0" cy="0" gradientTransform="matrix(0.0897, 0.0, 0.0, 0.0981, 30.75, -498.9)" gradientUnits="userSpaceOnUse" id="gradient1" r="819.2" spreadMethod="pad">
      <stop offset="0.0" stop-color="#f38a0c"/>
      <stop offset="0.8470588235294118" stop-color="#ffff00"/>
    </radialGradient>
    <radialGradient cx="0" cy="0" gradientTransform="matrix(0.1863, 0.0, 0.0, 0.2037, -194.6, -483.9)" gradientUnits="userSpaceOnUse" id="gradient2" r="819.2" spreadMethod="pad">
      <stop offset="0.0" stop-color="#f38a0c"/>
      <stop offset="0.8470588235294118" stop-color="#ffff00"/>
    </radialGradient>
    <radialGradient cx="0" cy="0" gradientTransform="matrix(0.1719, 0.0, 0.0, 0.188, -314.0, -275.95)" gradientUnits="userSpaceOnUse" id="gradient3" r="819.2" spreadMethod="pad">
      <stop offset="0.0" stop-color="#f38a0c"/>
      <stop offset="0.8470588235294118" stop-color="#ffff00"/>
    </radialGradient>
    <radialGradient cx="0" cy="0" gradientTransform="matrix(1.651, 0.0, 0.0, 0.6411, -114.1, 185.2)" gradientUnits="userSpaceOnUse" id="gradient4" r="819.2" spreadMethod="pad">
      <stop offset="0.596078431372549" stop-color="#9c6c2a"/>
      <stop offset="0.9882352941176471" stop-color="#d79b53"/>
    </radialGradient>
  </defs>
</svg>
