<?xml version="1.0" encoding="UTF-8" standalone="no"?>
<svg xmlns:xlink="http://www.w3.org/1999/xlink" height="1054.3px" width="635.8px" xmlns="http://www.w3.org/2000/svg">
  <g transform="matrix(1.0, 0.0, 0.0, 1.0, 454.2, 874.65)">
    <path d="M-220.8 -872.1 Q-202.75 -869.05 -188.6 -858.3 -131.85 -815.25 -64.95 -799.25 -67.3 -784.9 -79.65 -766.75 -88.55 -753.6 -102.3 -747.0 -166.75 -715.95 -235.25 -751.7 -313.35 -792.55 -284.45 -870.8 -252.7 -877.75 -220.8 -872.1 M97.55 -410.85 Q74.3 -421.25 64.45 -443.65 94.9 -457.5 111.45 -490.6 121.1 -509.85 112.95 -530.1 L67.95 -514.75 99.4 -593.65 Q144.6 -595.25 170.0 -551.35 187.25 -521.4 178.85 -487.2 166.1 -435.15 121.7 -411.45 110.05 -405.25 97.55 -410.85 M118.85 -317.65 Q144.85 -224.2 58.9 -179.2 47.1 -173.05 35.9 -181.6 -19.15 -223.5 -24.75 -295.1 -26.6 -318.65 -49.0 -319.4 -70.6 -320.5 -87.15 -305.3 L-95.9 -297.6 Q-157.85 -369.8 -237.45 -315.9 -253.85 -304.8 -268.1 -291.2 -322.4 -364.2 -257.3 -433.8 -221.9 -471.65 -178.9 -500.65 L-165.5 -498.75 Q-197.9 -544.3 -174.6 -594.55 -212.25 -655.05 -155.35 -682.05 -118.2 -699.6 -101.6 -668.55 L-50.55 -626.75 -101.6 -592.25 Q-102.95 -591.3 -102.8 -590.6 -96.75 -556.65 -92.35 -522.45 -90.75 -509.8 -99.65 -500.2 -112.4 -486.35 -104.9 -468.65 L-52.0 -384.1 Q46.5 -418.25 106.45 -340.05 114.3 -329.75 118.85 -317.65 M18.85 -355.8 Q19.1 -353.15 19.6 -350.45 L21.35 -351.45 18.85 -355.8 M-190.0 -322.2 L-166.6 -330.6 Q-134.8 -311.7 -111.85 -282.75 -90.7 -256.0 -89.4 -222.2 -88.25 -192.9 -82.7 -177.15 -30.9 -178.65 12.75 -151.8 85.15 -107.4 57.35 -31.0 L58.25 1.95 Q80.65 10.8 92.2 31.55 102.75 50.45 101.45 69.7 113.05 81.6 117.9 97.4 126.4 125.0 111.0 149.4 L134.75 179.65 -339.9 178.6 -317.45 177.2 Q-364.15 126.95 -355.45 59.7 -345.0 -21.5 -261.45 -11.3 L-255.35 -30.3 -260.7 -66.45 Q-276.35 -82.6 -296.6 -92.15 -333.7 -109.65 -367.4 -97.3 L-340.15 -47.75 Q-352.6 -53.3 -364.5 -59.85 -392.3 -75.3 -411.4 -100.4 -483.9 -195.7 -433.55 -310.15 -330.5 -344.65 -257.8 -262.5 -289.7 -276.25 -323.1 -284.4 -361.4 -293.6 -369.95 -266.7 -369.75 -263.65 -367.7 -262.4 -277.5 -206.75 -241.9 -109.05 L-228.2 -123.4 -233.45 -129.65 Q-269.1 -171.85 -263.65 -226.15 L-262.15 -226.05 Q-262.15 -265.2 -240.95 -292.9 -219.75 -320.6 -189.75 -320.6 L-190.0 -322.2 M-159.45 -779.9 L-158.5 -779.05 -158.7 -780.75 -159.45 -779.9" fill="url(#gradient0)" fill-rule="evenodd" stroke="none"/>
    <path d="M-159.45 -779.9 L-158.7 -780.75 -158.5 -779.05 -159.45 -779.9" fill="url(#gradient1)" fill-rule="evenodd" stroke="none"/>
    <path d="M-190.0 -322.2 L-189.75 -320.6 Q-190.85 -321.0 -190.9 -321.5 -190.95 -321.8 -190.0 -322.2" fill="url(#gradient2)" fill-rule="evenodd" stroke="none"/>
    <path d="M-262.15 -226.05 L-263.65 -226.15 -263.15 -227.95 Q-262.6 -227.75 -262.15 -226.05" fill="url(#gradient3)" fill-rule="evenodd" stroke="none"/>
    <path d="M18.85 -355.8 L21.35 -351.45 19.6 -350.45 Q19.1 -353.15 18.85 -355.8" fill="url(#gradient4)" fill-rule="evenodd" stroke="none"/>
  </g>
  <defs>
    <radialGradient cx="0" cy="0" gradientTransform="matrix(1.651, 0.0, 0.0, 0.5862, -114.1, 185.2)" gradientUnits="userSpaceOnUse" id="gradient0" r="819.2" spreadMethod="pad">
      <stop offset="0.596078431372549" stop-color="#9c6c2a"/>
      <stop offset="0.9882352941176471" stop-color="#d79b53"/>
    </radialGradient>
    <radialGradient cx="0" cy="0" gradientTransform="matrix(0.0498, -0.0863, 0.0863, 0.0498, -166.3, -797.15)" gradientUnits="userSpaceOnUse" id="gradient1" r="819.2" spreadMethod="pad">
      <stop offset="0.596078431372549" stop-color="#9c6c2a"/>
      <stop offset="0.9882352941176471" stop-color="#d79b53"/>
    </radialGradient>
    <radialGradient cx="0" cy="0" gradientTransform="matrix(0.2021, 0.0, 0.0, 0.3612, -97.2, 231.45)" gradientUnits="userSpaceOnUse" id="gradient2" r="819.2" spreadMethod="pad">
      <stop offset="0.596078431372549" stop-color="#9c6c2a"/>
      <stop offset="0.9882352941176471" stop-color="#d79b53"/>
    </radialGradient>
    <radialGradient cx="0" cy="0" gradientTransform="matrix(0.4365, 0.0, 0.0, 0.3021, 109.5, 490.55)" gradientUnits="userSpaceOnUse" id="gradient3" r="819.2" spreadMethod="pad">
      <stop offset="0.596078431372549" stop-color="#9c6c2a"/>
      <stop offset="0.9882352941176471" stop-color="#d79b53"/>
    </radialGradient>
    <radialGradient cx="0" cy="0" gradientTransform="matrix(0.0909, -0.0243, 0.0243, 0.0909, 55.5, -288.05)" gradientUnits="userSpaceOnUse" id="gradient4" r="819.2" spreadMethod="pad">
      <stop offset="0.596078431372549" stop-color="#9c6c2a"/>
      <stop offset="0.9882352941176471" stop-color="#d79b53"/>
    </radialGradient>
  </defs>
</svg>
