<?xml version="1.0" encoding="UTF-8" standalone="no"?>
<svg xmlns:xlink="http://www.w3.org/1999/xlink" height="1029.3px" width="724.3px" xmlns="http://www.w3.org/2000/svg">
  <g transform="matrix(1.0, 0.0, 0.0, 1.0, 498.95, 849.65)">
    <path d="M-284.45 -845.6 L-279.9 -846.45 Q-212.7 -859.6 -158.1 -818.7 L-64.95 -774.05 Q-67.3 -759.75 -79.7 -741.5 -88.55 -728.4 -102.3 -721.9 -169.75 -690.1 -239.9 -729.4 -313.4 -770.55 -284.45 -845.6 M144.7 -568.45 Q200.3 -568.95 219.7 -512.3 230.55 -480.7 220.5 -448.45 206.2 -402.4 164.35 -386.6 148.3 -380.5 133.35 -390.1 116.75 -400.75 109.75 -418.45 129.45 -430.15 148.45 -450.85 169.3 -473.55 159.2 -503.35 L113.25 -489.55 131.7 -553.7 144.7 -568.45 M23.6 -241.75 Q-3.65 -278.75 -24.45 -320.25 -33.95 -339.15 -55.0 -338.3 -80.5 -336.6 -98.9 -317.95 -141.1 -351.35 -198.15 -352.55 -237.5 -353.35 -269.2 -329.6 -281.45 -320.5 -292.5 -310.05 -368.25 -373.4 -302.85 -448.45 -272.5 -483.3 -233.6 -508.15 L-218.2 -506.35 Q-261.65 -543.55 -247.1 -596.95 -290.5 -637.5 -256.1 -672.1 -247.15 -681.1 -234.3 -684.4 -199.7 -693.25 -179.9 -666.9 L-115.7 -624.7 -164.4 -595.1 -137.85 -524.6 Q-167.2 -485.2 -122.4 -458.0 -104.65 -447.25 -91.3 -431.2 -80.5 -418.2 -72.0 -403.7 -49.9 -398.15 -18.55 -402.45 70.1 -414.25 127.7 -347.15 164.1 -304.7 147.3 -253.2 127.0 -190.15 69.35 -208.8 41.25 -217.85 23.6 -241.75 M-413.05 -268.75 L-404.75 -245.3 Q-273.3 -198.55 -282.9 -62.05 L-286.15 -65.85 Q-342.2 -127.55 -412.7 -88.95 L-385.45 -46.35 Q-411.45 -50.9 -435.05 -62.4 -457.3 -73.3 -469.8 -94.25 -523.15 -183.85 -478.85 -284.9 -388.1 -345.8 -303.1 -282.2 -363.1 -293.85 -413.05 -268.75 M5.0 -156.35 Q85.35 -113.15 57.35 -31.0 L58.25 1.95 Q79.2 10.25 90.9 29.15 103.1 48.8 101.45 69.7 110.45 79.05 115.5 90.95 128.4 121.25 111.0 149.4 L134.75 179.65 -339.9 178.6 -317.45 177.2 Q-366.15 124.75 -354.55 55.1 -341.7 -21.9 -261.45 -11.3 L-255.35 -30.35 Q-272.8 -85.15 -228.2 -123.4 L-233.45 -129.65 Q-269.1 -171.85 -263.65 -226.15 L-263.15 -227.95 Q-262.6 -227.75 -262.15 -226.05 -262.15 -265.2 -240.95 -292.9 -219.75 -320.6 -189.75 -320.6 -190.85 -321.0 -190.9 -321.5 -190.95 -321.8 -190.0 -322.2 L-166.6 -330.6 Q-134.8 -311.7 -111.85 -282.75 -90.7 -256.0 -89.4 -222.2 -88.25 -192.9 -82.7 -177.15 -35.9 -178.3 5.0 -156.35" fill="url(#gradient0)" fill-rule="evenodd" stroke="none"/>
  </g>
  <defs>
    <radialGradient cx="0" cy="0" gradientTransform="matrix(1.651, 0.0, 0.0, 0.5862, -114.1, 185.2)" gradientUnits="userSpaceOnUse" id="gradient0" r="819.2" spreadMethod="pad">
      <stop offset="0.596078431372549" stop-color="#9c6c2a"/>
      <stop offset="0.9882352941176471" stop-color="#d79b53"/>
    </radialGradient>
  </defs>
</svg>
