<?xml version="1.0" encoding="UTF-8" standalone="no"?>
<svg xmlns:xlink="http://www.w3.org/1999/xlink" height="880.5px" width="882.75px" xmlns="http://www.w3.org/2000/svg">
  <g transform="matrix(1.0, 0.0, 0.0, 1.0, 602.6, 703.55)">
    <path d="M25.95 -517.25 L49.3 -455.5 -12.15 -451.15 Q-13.85 -451.0 -14.1 -450.35 -25.2 -418.6 -37.9 -387.5 -43.1 -374.75 -55.65 -369.2 -83.6 -356.85 -78.25 -324.6 -75.9 -310.4 -82.25 -296.85 -109.4 -238.9 -154.6 -193.1 -174.5 -290.5 -274.6 -279.45 L-257.8 -262.5 -297.6 -275.75 Q-314.45 -277.5 -308.65 -304.25 -292.6 -378.5 -214.1 -396.9 -170.15 -407.3 -124.95 -410.45 L-114.6 -406.05 -103.8 -458.45 Q-108.75 -455.8 -114.4 -456.5 -145.05 -457.05 -162.8 -484.05 L-150.75 -500.65 -148.0 -498.9 Q-107.3 -473.1 -72.6 -506.6 -62.55 -575.5 1.75 -554.0 29.75 -544.55 25.95 -517.25 M149.45 -421.9 L180.35 -496.45 Q213.15 -499.05 240.6 -471.5 266.1 -445.95 261.15 -410.05 L280.15 -385.85 258.3 -394.25 250.75 -371.1 Q289.85 -316.05 246.35 -259.15 L243.1 -254.65 Q183.8 -224.45 113.55 -237.0 113.55 -193.4 82.15 -162.55 50.75 -131.75 6.3 -131.75 15.75 -71.85 70.85 -49.25 126.0 -26.6 148.1 -87.55 171.15 -150.95 113.4 -189.25 134.7 -193.2 155.15 -186.8 163.75 -184.05 170.85 -178.3 L173.45 -175.9 Q197.9 -148.9 198.6 -111.6 L134.75 -20.15 40.35 -6.9 15.45 -17.2 0.75 -2.45 Q57.7 2.1 106.65 31.1 157.7 61.3 127.65 106.9 L132.65 119.65 128.85 132.15 Q139.95 134.85 150.6 138.05 182.3 147.8 183.2 176.95 L-410.8 176.55 Q-408.9 168.25 -403.65 161.7 -360.6 108.15 -285.7 122.0 L-277.8 107.4 Q-290.9 88.1 -277.4 70.0 -259.35 45.75 -246.0 33.6 -247.65 32.4 -249.35 31.3 -302.55 -4.2 -281.1 -62.55 -313.95 -68.6 -346.0 -59.15 -388.5 -46.65 -405.35 -11.35 L-403.6 -9.45 Q-396.8 -2.35 -387.6 1.0 -367.35 8.5 -345.85 2.35 -384.0 18.7 -425.2 16.75 -553.85 10.4 -602.6 -115.1 -594.55 -132.55 -583.0 -148.05 -555.25 -185.2 -510.75 -198.8 L-493.75 -183.25 Q-500.1 -172.35 -519.75 -159.95 -541.9 -145.95 -526.95 -129.25 -522.15 -125.3 -516.4 -126.9 -378.65 -164.9 -278.65 -69.8 -247.25 -113.2 -193.9 -118.7 L-163.1 -122.9 -164.9 -144.25 -151.5 -148.4 -140.15 -114.0 -63.4 -53.95 Q-45.25 -50.75 -28.65 -57.25 20.05 -76.25 1.1 -131.9 -69.45 -132.2 -55.3 -196.6 -45.35 -242.0 -5.3 -266.65 31.3 -289.25 17.2 -323.95 L108.85 -247.6 Q150.2 -262.9 195.55 -271.65 214.8 -275.2 222.75 -293.2 230.45 -310.5 228.45 -329.55 183.15 -287.7 146.75 -343.55 145.9 -344.9 145.4 -346.45 L196.05 -394.9 Q132.8 -422.95 89.95 -375.9 L89.45 -376.55 Q94.8 -414.05 142.35 -420.5 145.95 -420.85 149.45 -421.9 M-271.05 -522.8 L-313.95 -517.65 Q-350.2 -516.2 -379.95 -536.65 -421.65 -565.3 -403.45 -611.65 -390.95 -614.75 -378.75 -611.65 -306.75 -593.35 -271.05 -522.8 M-80.3 -659.75 Q-76.85 -628.0 -86.1 -597.5 -90.2 -583.85 -101.25 -575.35 -167.1 -524.65 -243.4 -565.7 -253.3 -570.95 -258.85 -580.0 -294.05 -637.2 -260.5 -703.55 -219.3 -650.35 -165.8 -609.8 -155.0 -601.6 -142.1 -600.4 -87.85 -596.4 -80.3 -659.75 M-548.85 -436.15 Q-515.35 -509.4 -442.25 -468.85 -396.85 -443.65 -380.8 -394.25 L-418.6 -294.7 Q-382.95 -227.95 -309.1 -240.65 L-305.95 -240.3 -350.1 -210.2 Q-337.4 -179.6 -298.9 -179.3 L-294.25 -179.35 Q-379.1 -145.95 -431.1 -218.3 -484.05 -292.0 -426.8 -355.65 L-417.85 -388.7 Q-445.35 -447.8 -499.25 -427.8 -511.9 -423.1 -521.45 -413.05 -529.5 -404.65 -531.0 -393.45 L-510.4 -357.45 Q-573.15 -363.45 -552.15 -426.4 L-548.85 -436.15 M-28.55 -260.45 Q-25.6 -259.4 -28.9 -259.75 L-28.55 -260.45" fill="url(#gradient0)" fill-rule="evenodd" stroke="none"/>
  </g>
  <defs>
    <radialGradient cx="0" cy="0" gradientTransform="matrix(1.651, 0.0, 0.0, 0.5862, -114.1, 185.2)" gradientUnits="userSpaceOnUse" id="gradient0" r="819.2" spreadMethod="pad">
      <stop offset="0.596078431372549" stop-color="#9c6c2a"/>
      <stop offset="0.9882352941176471" stop-color="#d79b53"/>
    </radialGradient>
  </defs>
</svg>
