<?xml version="1.0" encoding="UTF-8" standalone="no"?>
<svg xmlns:xlink="http://www.w3.org/1999/xlink" height="800.95px" width="1051.3px" xmlns="http://www.w3.org/2000/svg">
  <g transform="matrix(1.0, 0.0, 0.0, 1.0, 671.15, 624.0)">
    <path d="M208.9 -331.25 L162.2 -342.25 230.95 -395.35 259.5 -365.55 Q343.1 -361.8 375.05 -290.05 380.9 -276.95 380.05 -262.4 L350.4 -305.5 333.6 -298.6 Q371.95 -233.8 313.35 -187.7 298.15 -175.7 280.55 -167.7 254.15 -173.75 229.9 -184.6 187.35 -203.45 146.95 -227.15 L123.65 -282.45 Q149.75 -281.7 178.5 -293.75 203.65 -304.15 208.9 -331.25 M311.3 -250.85 Q335.95 -320.75 266.5 -351.45 266.5 -300.4 244.5 -264.25 222.5 -228.15 191.4 -228.15 245.1 -182.4 293.25 -224.15 305.7 -234.95 311.3 -250.85 M-261.8 -624.0 Q-258.2 -622.25 -255.85 -619.4 -211.65 -566.75 -155.3 -527.5 -144.65 -520.1 -132.7 -522.55 -86.55 -531.7 -80.3 -584.15 -79.1 -569.65 -79.45 -555.05 -80.25 -522.7 -101.45 -499.1 -128.35 -469.15 -170.2 -468.55 -247.05 -467.4 -276.65 -531.55 L-261.8 -624.0 M148.25 -125.65 Q146.45 -123.3 144.45 -121.2 89.35 -62.05 10.2 -88.35 41.35 -45.15 93.7 -35.85 101.5 -34.55 108.85 -37.0 168.8 -56.95 148.25 -125.65 M64.8 -271.7 L64.4 -273.05 65.25 -272.7 Q140.7 -241.75 162.55 -167.65 L188.85 -127.9 160.6 -24.05 Q121.75 -8.25 81.55 -3.45 58.15 -0.45 44.7 5.25 82.45 13.8 113.9 36.15 156.65 66.5 127.65 106.9 L132.65 119.65 128.85 132.15 Q144.1 135.75 158.4 141.7 183.95 152.1 183.2 176.95 L-410.8 176.55 Q-407.55 163.25 -397.95 154.15 -352.45 110.9 -285.7 122.0 L-277.8 107.4 Q-296.6 58.55 -242.6 36.0 -246.0 33.6 -249.5 31.45 -292.65 4.55 -288.55 -42.85 -288.2 -44.15 -287.85 -44.45 -287.25 -44.1 -286.65 -42.8 -286.65 -66.7 -274.65 -83.6 -262.7 -100.55 -245.75 -100.55 L-271.5 -164.75 Q-366.5 -92.85 -458.75 -169.0 -494.9 -198.9 -494.8 -243.75 -494.75 -256.5 -489.65 -268.2 L-499.2 -299.75 Q-547.2 -335.65 -592.95 -307.7 -602.55 -301.85 -606.65 -290.75 -611.6 -277.3 -608.9 -263.95 L-564.8 -240.35 Q-636.4 -216.6 -646.6 -295.5 -654.25 -354.85 -592.9 -359.4 -521.85 -364.0 -467.6 -318.25 L-449.1 -219.2 -362.85 -196.95 Q-380.0 -201.75 -366.25 -227.0 -326.7 -299.55 -238.15 -292.4 -199.55 -289.65 -161.55 -282.2 L-152.75 -274.8 Q-142.15 -327.4 -92.1 -345.6 -75.85 -415.05 -16.6 -393.85 22.05 -379.95 11.85 -346.3 L17.9 -280.25 -42.1 -292.35 Q-56.25 -259.75 -87.1 -235.05 -98.35 -226.05 -113.0 -223.2 -128.4 -220.15 -131.8 -204.8 -144.3 -148.35 -195.5 -115.9 L-196.8 -114.9 -192.9 -115.35 -195.5 -115.9 -193.1 -116.55 -192.85 -116.55 Q-137.15 -116.5 -97.75 -88.1 -58.25 -59.65 -58.25 -19.45 -35.95 -17.9 -15.95 -26.65 29.9 -46.7 0.05 -93.7 -12.55 -102.3 -12.55 -117.3 -12.55 -189.65 53.55 -228.45 L65.75 -232.2 64.8 -271.7 M-276.65 -430.75 Q-274.45 -412.5 -304.2 -414.0 -328.1 -415.0 -351.05 -422.15 -418.9 -443.0 -404.65 -507.9 -336.6 -523.5 -293.3 -456.05 -285.15 -443.35 -276.65 -430.75 M-326.5 -191.9 L-339.25 -175.15 Q-313.0 -149.3 -272.75 -165.95 L-326.5 -191.9 M-580.45 -143.65 Q-589.75 -132.7 -599.55 -122.4 -621.3 -99.4 -601.75 -84.1 -587.2 -80.15 -573.25 -88.2 -451.65 -158.0 -336.85 -84.1 L-342.5 -83.65 Q-429.85 -78.0 -453.75 -1.7 L-397.3 -0.45 Q-431.85 25.75 -474.4 32.8 -595.6 52.55 -671.15 -50.85 -660.6 -118.1 -604.1 -155.5 L-580.45 -143.65 M-161.7 -407.1 L-150.75 -425.0 Q-105.75 -398.55 -71.4 -429.55 L-75.0 -414.35 Q-113.75 -351.6 -161.7 -407.1 M-29.2 -259.05 Q-26.65 -261.45 -28.3 -259.5 -28.6 -259.15 -29.2 -259.05" fill="url(#gradient0)" fill-rule="evenodd" stroke="none"/>
  </g>
  <defs>
    <radialGradient cx="0" cy="0" gradientTransform="matrix(1.651, 0.0, 0.0, 0.5862, -114.1, 185.2)" gradientUnits="userSpaceOnUse" id="gradient0" r="819.2" spreadMethod="pad">
      <stop offset="0.596078431372549" stop-color="#9c6c2a"/>
      <stop offset="0.9882352941176471" stop-color="#d79b53"/>
    </radialGradient>
  </defs>
</svg>
