<?xml version="1.0" encoding="UTF-8" standalone="no"?>
<svg xmlns:xlink="http://www.w3.org/1999/xlink" height="740.9px" width="1281.2px" xmlns="http://www.w3.org/2000/svg">
  <g transform="matrix(1.0, 0.0, 0.0, 1.0, 760.95, 562.3)">
    <path d="M117.45 -53.0 Q129.5 -77.35 109.25 -95.95 101.1 -103.45 91.25 -108.6 107.2 -104.05 139.9 -91.95 219.0 -62.4 281.55 -6.95 321.4 21.0 314.3 66.85 L285.15 72.45 Q163.2 99.0 116.0 -12.9 107.55 -33.0 117.45 -53.0 M28.4 -135.65 Q-41.8 -131.3 -112.0 -125.55 -196.8 -118.65 -206.75 -32.6 -155.65 -41.3 -106.25 -23.65 L-97.65 -20.95 Q-71.95 -13.85 -46.6 -5.1 6.8 13.2 -4.45 60.45 0.7 62.0 5.85 62.0 105.5 62.1 203.3 79.5 L211.05 80.55 Q280.1 86.15 313.5 135.7 L296.35 157.75 301.4 170.5 Q301.4 176.0 297.0 176.05 -96.15 179.05 -489.3 178.5 -459.55 173.6 -429.35 175.65 -379.95 177.65 -345.85 162.0 L-360.0 139.65 Q-435.9 146.25 -484.8 86.35 -487.75 82.7 -493.25 83.45 L-549.95 90.15 Q-500.0 17.6 -409.8 13.4 -411.85 31.05 -415.35 55.05 -421.8 99.75 -374.85 106.15 -355.4 108.55 -346.9 90.5 L-327.55 91.25 -331.2 112.8 -292.6 98.9 Q-305.45 94.25 -318.25 90.1 -366.9 74.45 -365.3 31.45 -364.75 30.35 -364.15 30.35 -363.25 30.35 -362.3 31.5 -359.95 35.95 -359.3 31.85 -357.55 20.5 -348.85 13.5 -291.05 -32.85 -214.15 -30.6 L-217.75 -31.6 Q-216.2 -31.35 -214.25 -31.6 L-207.1 -32.55 Q-242.55 -139.7 -349.7 -155.75 -361.3 -157.6 -373.0 -153.6 -439.1 -130.95 -503.6 -155.05 -383.4 -190.55 -258.9 -178.05 -229.6 -174.9 -201.3 -166.7 -161.2 -155.2 -118.35 -155.35 -78.3 -155.45 -41.4 -146.35 74.75 -170.8 192.55 -167.05 202.05 -166.75 211.05 -163.45 229.95 -171.5 255.75 -166.65 277.4 -162.7 298.15 -171.3 323.2 -181.65 343.3 -199.8 L312.45 -217.3 425.8 -254.8 Q412.9 -157.65 312.2 -127.8 L329.65 -110.2 350.35 -117.3 Q357.15 -97.55 377.1 -94.6 416.55 -88.85 445.4 -116.0 454.45 -131.35 453.65 -149.0 452.25 -181.2 431.55 -205.3 L443.5 -228.8 Q446.55 -229.2 447.65 -227.9 493.1 -175.2 485.1 -107.45 520.35 -67.8 520.25 -15.45 469.1 -34.7 440.9 -81.75 437.85 -80.3 434.65 -79.3 352.95 -52.85 298.85 -122.7 245.65 -95.9 191.7 -106.75 190.9 -107.0 190.2 -107.7 L197.65 -146.2 Q153.75 -129.0 103.25 -134.55 66.4 -138.3 28.4 -135.65 M-90.65 -561.05 Q-92.7 -560.25 -91.05 -562.3 L-90.65 -561.05 M-547.95 -399.35 Q-535.45 -402.5 -523.25 -399.35 -451.25 -381.05 -415.55 -310.5 -450.65 -301.9 -485.85 -309.4 -564.75 -326.25 -547.95 -399.35 M-624.45 -111.55 L-622.2 -69.45 -589.35 -54.65 -607.75 -8.95 -585.1 53.65 -569.8 53.9 -559.9 39.5 Q-559.7 53.25 -561.9 66.95 -570.75 122.3 -624.65 109.4 -755.35 77.85 -760.95 -57.45 L-741.85 -52.1 -725.45 2.35 -708.85 11.0 -708.6 10.85 Q-702.25 -41.6 -659.7 -68.3 L-642.05 -113.0 -624.45 -111.55 M-111.2 100.5 L-110.8 99.75 Q-113.25 100.3 -113.45 100.7 L-111.2 100.5 M-138.8 -213.55 Q-139.65 -204.7 -147.8 -202.5 -215.85 -183.3 -246.15 -253.95 -271.25 -347.7 -204.35 -426.4 -220.05 -376.05 -221.9 -323.4 -224.35 -252.2 -164.0 -241.6 -155.75 -248.45 -155.15 -259.5 -153.05 -298.0 -162.5 -335.6 -132.75 -277.05 -138.8 -213.55" fill="url(#gradient0)" fill-rule="evenodd" stroke="none"/>
  </g>
  <defs>
    <radialGradient cx="0" cy="0" gradientTransform="matrix(1.651, 0.0, 0.0, 0.5862, -114.1, 185.2)" gradientUnits="userSpaceOnUse" id="gradient0" r="819.2" spreadMethod="pad">
      <stop offset="0.596078431372549" stop-color="#9c6c2a"/>
      <stop offset="0.9882352941176471" stop-color="#d79b53"/>
    </radialGradient>
  </defs>
</svg>
