<?xml version="1.0" encoding="UTF-8" standalone="no"?>
<svg xmlns:xlink="http://www.w3.org/1999/xlink" height="544.95px" width="1431.4px" xmlns="http://www.w3.org/2000/svg">
  <g transform="matrix(1.0, 0.0, 0.0, 1.0, 801.9, 259.35)">
    <path d="M302.7 -47.5 L376.2 72.65 Q396.85 62.75 419.35 58.0 432.7 55.05 441.0 44.85 469.9 9.35 507.7 22.55 L388.2 108.2 392.9 128.05 Q460.05 145.9 528.8 149.35 534.95 149.7 540.8 147.2 L514.7 129.05 629.5 139.2 Q586.85 193.15 510.0 178.9 485.05 174.25 459.9 171.4 428.6 168.05 397.55 163.35 L398.05 177.15 340.6 179.65 -737.45 179.65 -675.0 -67.55 -678.1 -49.95 Q-603.5 -134.85 -494.85 -168.2 -532.15 -124.55 -574.85 -86.15 -602.9 -60.9 -633.4 -38.95 -665.6 -15.7 -679.55 -40.65 -696.05 17.0 -674.3 67.8 L-664.5 48.05 Q-674.95 46.3 -679.75 41.15 -684.6 36.0 -682.5 30.15 -680.45 24.25 -672.65 21.05 -664.85 17.85 -657.65 18.85 L-653.35 -21.75 -653.0 18.15 Q-622.4 24.8 -592.6 35.35 -579.55 40.0 -566.25 36.15 -513.85 21.1 -465.6 39.1 L-552.65 76.75 -559.9 77.65 Q-611.8 83.15 -655.25 54.8 L-677.4 178.35 -516.05 170.35 -534.4 158.3 -444.85 133.7 Q-483.85 128.2 -521.95 118.4 -540.8 113.6 -544.25 98.1 -536.2 96.5 -528.9 92.7 -451.45 52.7 -358.9 58.7 L-465.5 3.35 -399.5 -31.15 -395.05 -27.7 Q-335.9 23.85 -258.25 19.5 L-250.65 -146.25 -234.8 15.35 Q-215.4 -9.55 -211.2 -41.75 -197.15 -150.05 -200.75 -259.35 -197.0 -191.2 -173.95 -127.05 -152.2 -66.4 -93.0 -35.35 -64.0 -20.1 -63.9 -8.75 L-187.35 12.0 -225.65 48.15 -220.35 59.8 Q-163.8 65.3 -107.6 72.7 -68.85 78.0 -56.75 105.05 -57.75 106.8 -59.1 108.25 L-61.6 110.85 Q101.75 110.4 267.0 128.2 L316.3 122.95 312.25 -14.2 Q311.7 -31.8 302.7 -47.5 M199.15 90.8 Q183.25 97.1 167.1 92.05 108.45 73.75 48.2 62.2 13.3 55.6 -1.75 33.7 16.1 -2.25 53.75 4.4 L104.3 70.8 Q122.4 75.6 140.1 70.4 176.5 60.0 203.65 34.2 L213.45 53.45 225.3 71.45 Q214.8 84.65 199.15 90.8 M-792.55 10.55 Q-748.35 70.8 -767.8 144.7 -768.6 147.8 -769.8 150.8 -808.8 92.5 -800.4 27.9 -799.15 18.2 -792.55 10.55 M-746.25 282.3 Q-740.65 288.8 -746.25 282.45 L-746.25 282.3" fill="url(#gradient0)" fill-rule="evenodd" stroke="none"/>
  </g>
  <defs>
    <radialGradient cx="0" cy="0" gradientTransform="matrix(1.651, 0.0, 0.0, 0.5862, -114.1, 185.2)" gradientUnits="userSpaceOnUse" id="gradient0" r="819.2" spreadMethod="pad">
      <stop offset="0.596078431372549" stop-color="#9c6c2a"/>
      <stop offset="0.9882352941176471" stop-color="#d79b53"/>
    </radialGradient>
  </defs>
</svg>
