<?xml version="1.0" encoding="UTF-8" standalone="no"?>
<svg xmlns:xlink="http://www.w3.org/1999/xlink" height="277.7px" width="1432.6px" xmlns="http://www.w3.org/2000/svg">
  <g transform="matrix(1.0, 0.0, 0.0, 1.0, 802.75, 92.7)">
    <path d="M514.7 178.7 L629.85 184.55 534.85 185.0 514.7 178.7 M-500.05 122.8 Q-503.75 123.75 -507.05 125.4 -580.35 161.05 -655.25 127.8 L-665.9 177.85 -516.05 170.35 -534.4 158.3 -444.85 133.7 -500.05 122.8 M388.2 164.45 L392.9 178.1 436.2 184.25 259.45 179.65 -666.45 179.65 -731.1 185.0 Q-714.2 118.65 -684.05 57.35 -670.05 28.85 -678.1 55.85 -596.0 -5.3 -494.85 -25.35 -533.15 5.25 -574.9 30.95 -603.95 48.8 -633.85 64.7 -662.9 80.1 -679.55 62.25 -695.75 103.9 -674.3 136.7 L-664.5 123.15 Q-676.75 121.3 -680.8 117.55 -684.9 113.75 -681.9 109.85 -678.95 105.9 -670.75 104.1 -662.55 102.25 -657.65 103.1 L-652.95 81.95 -653.0 102.65 -649.25 103.2 Q-590.85 123.05 -530.15 113.3 L-544.15 97.9 Q-543.05 95.9 -541.25 95.5 -538.1 95.0 -536.8 93.7 -531.65 88.5 -524.3 86.3 -394.5 47.45 -258.4 56.0 L-250.65 -10.25 -244.05 57.35 -211.9 60.7 -200.85 -92.7 Q-199.4 29.5 -85.95 68.7 -47.65 82.0 -74.55 86.0 L-56.2 103.85 -57.5 106.05 -59.5 109.0 Q-38.7 114.45 -1.8 113.3 L53.75 93.15 78.5 114.85 187.25 120.2 189.55 118.5 Q204.2 107.15 212.1 122.2 L313.4 135.7 Q326.75 95.95 305.3 61.2 L302.7 57.55 376.2 140.05 504.7 104.5 388.2 164.45 M-763.6 181.4 L-778.4 181.55 Q-810.05 148.45 -800.55 109.7 -798.75 102.3 -792.55 97.4 -757.1 129.9 -762.8 177.75 -763.0 179.6 -763.6 181.4" fill="url(#gradient0)" fill-rule="evenodd" stroke="none"/>
  </g>
  <defs>
    <radialGradient cx="0" cy="0" gradientTransform="matrix(1.651, 0.0, 0.0, 0.5862, -114.1, 185.2)" gradientUnits="userSpaceOnUse" id="gradient0" r="819.2" spreadMethod="pad">
      <stop offset="0.596078431372549" stop-color="#9c6c2a"/>
      <stop offset="0.9882352941176471" stop-color="#d79b53"/>
    </radialGradient>
  </defs>
</svg>
