<?xml version="1.0" encoding="UTF-8" standalone="no"?>
<svg xmlns:xlink="http://www.w3.org/1999/xlink" height="147.7px" width="1243.15px" xmlns="http://www.w3.org/2000/svg">
  <g transform="matrix(1.0, 0.0, 0.0, 1.0, 810.7, -29.45)">
    <path d="M368.0 69.9 L432.45 170.25 376.05 177.15 Q388.3 125.05 370.25 75.25 L368.0 69.9 M-776.75 148.45 Q-774.85 170.0 -764.05 166.45 L-747.3 79.3 -749.7 160.95 -619.85 94.7 -700.4 177.15 -810.7 169.2 -769.3 35.5 Q-781.8 91.55 -776.75 148.45 M356.8 163.6 Q361.0 165.15 361.4 167.55 361.8 169.9 358.2 171.7 354.6 173.5 348.5 173.7 L335.55 177.15 -495.55 170.55 -409.85 156.35 -505.5 137.8 -394.1 116.85 Q-513.6 55.8 -642.45 79.45 -657.7 82.15 -673.7 81.7 -693.95 80.1 -713.5 75.45 -558.85 42.6 -403.3 73.15 L-376.8 95.85 -340.15 98.7 -351.4 115.0 -310.15 114.0 -312.65 113.9 -310.2 113.7 Q-211.8 110.2 -113.5 116.95 -69.9 120.15 -37.45 139.3 -38.15 140.6 -39.5 141.45 L-42.4 143.4 Q-23.0 144.7 -0.5 144.45 167.35 142.75 333.95 159.75 319.35 76.2 263.75 29.45 L321.45 49.25 347.65 162.2 Q352.6 162.05 356.8 163.6 M339.15 175.55 L335.55 176.15 337.75 176.35 339.15 175.55" fill="url(#gradient0)" fill-rule="evenodd" stroke="none"/>
  </g>
  <defs>
    <radialGradient cx="0" cy="0" gradientTransform="matrix(1.651, 0.0, 0.0, 0.5862, -114.1, 185.2)" gradientUnits="userSpaceOnUse" id="gradient0" r="819.2" spreadMethod="pad">
      <stop offset="0.596078431372549" stop-color="#9c6c2a"/>
      <stop offset="0.9882352941176471" stop-color="#d79b53"/>
    </radialGradient>
  </defs>
</svg>
