<?xml version="1.0" encoding="UTF-8" standalone="no"?>
<svg xmlns:xlink="http://www.w3.org/1999/xlink" height="92.85px" width="1548.2px" xmlns="http://www.w3.org/2000/svg">
  <g transform="matrix(1.0, 0.0, 0.0, 1.0, 1047.75, -84.3)">
    <path d="M351.7 175.6 L335.55 177.15 -501.8 173.65 -429.3 167.85 -540.45 158.3 -434.5 146.85 Q-604.45 110.15 -776.45 122.0 -824.15 125.0 -871.85 120.35 -683.25 96.3 -495.2 121.75 L-430.35 130.85 Q-406.55 134.5 -385.15 135.7 L-387.55 137.45 Q-392.8 141.25 -387.6 145.75 L-340.75 145.2 -342.25 145.05 -340.9 145.0 -32.0 158.45 Q-32.4 159.4 -33.2 159.7 L-36.15 160.7 Q-22.85 162.15 6.3 161.95 177.95 160.65 349.6 169.2 L408.3 122.75 416.75 84.3 467.0 99.3 361.45 170.35 363.9 170.9 Q375.2 174.85 351.7 175.6 M376.05 177.15 L500.45 113.0 440.45 173.7 376.05 177.15 M-701.05 173.85 L-700.9 174.7 Q-746.85 176.05 -790.7 167.7 L-905.6 123.3 -771.85 166.4 -723.1 133.45 -701.05 173.85 M-796.75 166.5 L-809.75 163.55 Q-915.0 137.95 -1016.55 97.85 -1050.25 84.55 -1047.55 85.2 L-796.75 166.5" fill="url(#gradient0)" fill-rule="evenodd" stroke="none"/>
  </g>
  <defs>
    <radialGradient cx="0" cy="0" gradientTransform="matrix(1.651, 0.0, 0.0, 0.5862, -114.1, 185.2)" gradientUnits="userSpaceOnUse" id="gradient0" r="819.2" spreadMethod="pad">
      <stop offset="0.596078431372549" stop-color="#9c6c2a"/>
      <stop offset="0.9882352941176471" stop-color="#d79b53"/>
    </radialGradient>
  </defs>
</svg>
