<?xml version="1.0" encoding="UTF-8" standalone="no"?>
<svg xmlns:xlink="http://www.w3.org/1999/xlink" height="25.45px" width="68.95px" xmlns="http://www.w3.org/2000/svg">
  <g transform="matrix(1.0, 0.0, 0.0, 1.0, 32.6, 11.25)">
    <path d="M-2.9 12.55 L-2.65 10.95 1.85 11.05 6.4 10.95 6.65 12.55 1.95 13.05 -2.9 12.55" fill="#000000" fill-rule="evenodd" stroke="none"/>
    <path d="M33.45 2.75 L31.45 3.35 30.2 3.65 33.45 2.75 M-26.45 3.65 L-27.75 3.35 -29.7 2.75 -26.45 3.65 M2.8 9.75 L2.7 8.05 5.4 9.05 2.8 9.75 M0.9 9.75 L-1.7 9.05 1.0 8.05 0.9 9.75 M1.85 -6.85 L4.65 1.5 -0.95 1.5 1.85 -6.85" fill="#f3ff04" fill-rule="evenodd" stroke="none"/>
    <path d="M-0.55 6.55 Q-0.65 6.25 -0.35 5.95 L0.4 5.3 Q0.85 5.0 1.25 5.0 L1.65 5.3 1.5 5.95 0.7 6.55 -0.15 6.85 Q-0.5 6.85 -0.55 6.55 M2.1 5.3 Q2.15 5.0 2.5 5.0 2.85 5.0 3.35 5.3 L4.1 5.95 4.25 6.55 3.85 6.85 3.0 6.55 2.25 5.95 Q2.0 5.6 2.1 5.3" fill="#d8892a" fill-rule="evenodd" stroke="none"/>
    <path d="M-31.3 -1.65 Q-28.95 -3.65 -22.9 -5.6 L-8.25 -10.0 Q-3.9 -11.25 1.6 -11.25 7.6 -11.25 11.95 -10.0 L26.6 -5.6 Q32.65 -3.65 35.05 -1.65 36.0 0.55 30.25 0.45 17.8 -0.65 10.0 2.35 L9.1 2.7 1.85 3.3 -5.4 2.7 -6.3 2.35 Q-14.1 -0.65 -26.5 0.45 -32.3 0.55 -31.3 -1.65 M1.85 -6.85 L-0.95 1.5 4.65 1.5 1.85 -6.85" fill="#9ea2c0" fill-rule="evenodd" stroke="none"/>
    <path d="M35.05 -1.65 L35.95 -0.7 Q37.4 1.25 33.45 2.75 L30.2 3.65 Q17.65 3.4 11.9 9.65 L11.75 10.0 Q10.4 11.75 8.25 13.25 L7.6 13.85 6.9 14.2 6.8 13.6 6.65 12.55 6.4 10.95 1.85 11.05 -2.65 10.95 -2.9 12.55 -3.1 13.6 -3.15 14.2 -3.9 13.85 -4.5 13.25 Q-6.7 11.75 -8.05 10.0 L-8.15 9.65 Q-13.95 3.4 -26.45 3.65 L-29.7 2.75 Q-33.7 1.25 -32.2 -0.7 L-31.3 -1.65 Q-32.3 0.55 -26.5 0.45 -14.1 -0.65 -6.3 2.35 L-5.4 2.7 1.85 3.3 9.1 2.7 10.0 2.35 Q17.8 -0.65 30.25 0.45 36.0 0.55 35.05 -1.65 M-0.55 6.55 Q-0.5 6.85 -0.15 6.85 L0.7 6.55 1.5 5.95 1.65 5.3 1.25 5.0 Q0.85 5.0 0.4 5.3 L-0.35 5.95 Q-0.65 6.25 -0.55 6.55 M2.1 5.3 Q2.0 5.6 2.25 5.95 L3.0 6.55 3.85 6.85 4.25 6.55 4.1 5.95 3.35 5.3 Q2.85 5.0 2.5 5.0 2.15 5.0 2.1 5.3 M2.8 9.75 L5.4 9.05 2.7 8.05 2.8 9.75 M0.9 9.75 L1.0 8.05 -1.7 9.05 0.9 9.75" fill="#7a7ea9" fill-rule="evenodd" stroke="none"/>
    <path d="M11.75 10.0 Q12.15 11.75 10.9 12.5 9.65 13.2 8.25 13.25 10.4 11.75 11.75 10.0 M6.8 13.6 L1.95 14.15 -3.1 13.6 -2.9 12.55 1.95 13.05 6.65 12.55 6.8 13.6 M-4.5 13.25 Q-5.95 13.2 -7.2 12.5 -8.45 11.75 -8.05 10.0 -6.7 11.75 -4.5 13.25" fill="#68719b" fill-rule="evenodd" stroke="none"/>
    <path d="M35.05 -1.65 L35.95 -0.7 Q37.4 1.25 33.45 2.75 L31.45 3.35 30.2 3.65 Q17.65 3.4 11.9 9.65 L11.75 10.0 Q12.15 11.75 10.9 12.5 9.65 13.2 8.25 13.25 L7.6 13.85 6.9 14.2 6.8 13.6 1.95 14.15 -3.1 13.6 -3.15 14.2 -3.9 13.85 -4.5 13.25 Q-5.95 13.2 -7.2 12.5 -8.45 11.75 -8.05 10.0 L-8.15 9.65 Q-13.95 3.4 -26.45 3.65 L-27.75 3.35 -29.7 2.75 Q-33.7 1.25 -32.2 -0.7 L-31.3 -1.65 Q-28.95 -3.65 -22.9 -5.6 L-8.25 -10.0 Q-3.9 -11.25 1.6 -11.25 7.6 -11.25 11.95 -10.0 L26.6 -5.6 Q32.65 -3.65 35.05 -1.65 M-2.9 12.55 L-3.1 13.6 M-4.5 13.25 Q-6.7 11.75 -8.05 10.0 M6.65 12.55 L6.4 10.95 1.85 11.05 -2.65 10.95 -2.9 12.55 1.95 13.05 6.65 12.55 6.8 13.6 M-26.45 3.65 L-29.7 2.75 M33.45 2.75 L30.2 3.65 M2.8 9.75 L5.4 9.05 2.7 8.05 2.8 9.75 M0.9 9.75 L-1.7 9.05 1.0 8.05 0.9 9.75 M11.75 10.0 Q10.4 11.75 8.25 13.25 M1.85 -6.85 L-0.95 1.5 4.65 1.5 1.85 -6.85" fill="none" stroke="#393f57" stroke-linecap="round" stroke-linejoin="round" stroke-width="0.05"/>
    <path d="M11.45 7.5 L11.95 9.15 Q10.65 9.85 6.85 7.15 6.45 4.3 9.4 4.85 10.3 5.2 11.45 7.5" fill="url(#gradient0)" fill-rule="evenodd" stroke="none"/>
    <path d="M11.45 7.5 L11.95 9.15 Q10.65 9.85 6.85 7.15 6.45 4.3 9.4 4.85 10.3 5.2 11.45 7.5 Z" fill="none" stroke="#362d18" stroke-linecap="round" stroke-linejoin="round" stroke-width="0.05"/>
    <path d="M31.6 -1.55 L33.25 -2.1 Q27.55 -4.75 24.75 -4.45 27.1 -4.2 31.6 -1.55" fill="#f3ff04" fill-rule="evenodd" stroke="none"/>
    <path d="M31.6 -1.55 Q27.1 -4.2 24.75 -4.45 27.55 -4.75 33.25 -2.1 L31.6 -1.55 Z" fill="none" stroke="#393f57" stroke-linecap="round" stroke-linejoin="round" stroke-width="0.05"/>
    <path d="M-7.75 7.5 L-8.25 9.15 Q-6.95 9.85 -3.15 7.15 -2.75 4.3 -5.7 4.85 -6.6 5.2 -7.75 7.5" fill="url(#gradient1)" fill-rule="evenodd" stroke="none"/>
    <path d="M-7.75 7.5 L-8.25 9.15 Q-6.95 9.85 -3.15 7.15 -2.75 4.3 -5.7 4.85 -6.6 5.2 -7.75 7.5 Z" fill="none" stroke="#362d18" stroke-linecap="round" stroke-linejoin="round" stroke-width="0.05"/>
    <path d="M-27.9 -1.55 L-29.55 -2.1 Q-23.85 -4.75 -21.05 -4.45 -23.4 -4.2 -27.9 -1.55" fill="#f3ff04" fill-rule="evenodd" stroke="none"/>
    <path d="M-27.9 -1.55 Q-23.4 -4.2 -21.05 -4.45 -23.85 -4.75 -29.55 -2.1 L-27.9 -1.55 Z" fill="none" stroke="#393f57" stroke-linecap="round" stroke-linejoin="round" stroke-width="0.05"/>
  </g>
  <defs>
    <radialGradient cx="0" cy="0" gradientTransform="matrix(0.0053, 0.0047, -0.0014, 0.0035, 8.7, 5.25)" gradientUnits="userSpaceOnUse" id="gradient0" r="819.2" spreadMethod="pad">
      <stop offset="0.1450980392156863" stop-color="#a35901"/>
      <stop offset="0.38823529411764707" stop-color="#ee9d3c"/>
    </radialGradient>
    <radialGradient cx="0" cy="0" gradientTransform="matrix(-0.0053, 0.0047, 0.0014, 0.0035, -5.0, 5.25)" gradientUnits="userSpaceOnUse" id="gradient1" r="819.2" spreadMethod="pad">
      <stop offset="0.1450980392156863" stop-color="#a35901"/>
      <stop offset="0.38823529411764707" stop-color="#ee9d3c"/>
    </radialGradient>
  </defs>
</svg>
