<?xml version="1.0" encoding="UTF-8" standalone="no"?>
<svg xmlns:xlink="http://www.w3.org/1999/xlink" height="57.65px" width="40.55px" xmlns="http://www.w3.org/2000/svg">
  <g transform="matrix(1.0, 0.0, 0.0, 1.0, 20.15, 28.75)">
    <path d="M18.05 -16.5 L17.0 -12.65 17.15 -12.5 Q16.85 -11.5 15.45 -11.0 L15.1 -9.35 Q14.05 -6.4 10.8 -5.35 L9.65 -5.0 9.6 -5.0 8.25 -4.8 5.25 -3.85 Q2.75 -3.25 2.1 -0.75 1.5 1.35 3.3 3.35 L4.45 4.5 Q4.45 4.15 7.55 7.55 L7.55 7.5 7.6 7.55 Q10.1 10.05 9.3 13.1 8.6 15.65 6.5 16.7 7.85 18.25 7.5 19.6 L7.5 19.65 7.45 19.7 7.45 19.8 7.45 19.85 7.4 19.9 6.2 24.55 Q5.6 26.5 1.65 26.85 -2.25 27.1 -7.2 25.6 -12.2 24.05 -15.35 21.6 -18.6 19.15 -18.05 17.2 -17.65 14.6 -16.75 12.25 L-16.75 12.15 Q-16.35 10.9 -14.65 10.4 -15.2 8.75 -14.55 6.8 -13.6 3.8 -10.3 2.85 L-8.7 2.4 -8.75 2.4 -6.95 1.85 -5.3 1.3 -4.95 1.2 -4.9 1.2 -3.7 0.25 Q-2.6 -0.85 -2.25 -1.95 -1.6 -4.7 -3.2 -6.5 L-5.25 -8.55 -6.9 -10.3 Q-9.4 -12.8 -8.7 -15.9 -8.5 -17.05 -7.9 -17.85 -9.05 -19.15 -8.75 -20.2 -8.4 -22.6 -7.55 -24.8 L-7.5 -24.9 Q-7.0 -26.65 -2.85 -26.75 1.25 -26.95 6.6 -25.3 11.85 -23.7 15.35 -21.3 18.8 -18.9 18.35 -17.1 L18.35 -17.05 18.05 -16.5 M7.25 7.55 L7.35 7.7 7.25 7.55 M14.85 -9.45 L14.75 -9.45 Q14.2 -7.45 12.15 -6.2 14.1 -7.3 14.85 -9.4 L14.85 -9.45" fill="#ffffff" fill-opacity="0.6" fill-rule="evenodd" stroke="none"/>
    <path d="M18.05 -16.5 L18.35 -17.05 18.35 -17.1 Q18.8 -18.9 15.35 -21.3 11.85 -23.7 6.6 -25.3 1.25 -26.95 -2.85 -26.75 -7.0 -26.65 -7.5 -24.9 L-7.55 -24.8 Q-8.4 -22.6 -8.75 -20.2 -9.05 -19.15 -7.9 -17.85 -8.5 -17.05 -8.7 -15.9 -9.4 -12.8 -6.9 -10.3 L-5.25 -8.55 -3.2 -6.5 Q-1.6 -4.7 -2.25 -1.95 -2.6 -0.85 -3.7 0.25 L-4.9 1.2 -4.95 1.2 -5.3 1.3 -6.95 1.85 -8.75 2.4 -8.7 2.4 -10.3 2.85 Q-13.6 3.8 -14.55 6.8 -15.2 8.75 -14.65 10.4 -16.35 10.9 -16.75 12.15 L-16.75 12.25 Q-17.65 14.6 -18.05 17.2 -18.6 19.15 -15.35 21.6 -12.2 24.05 -7.2 25.6 -2.25 27.1 1.65 26.85 5.6 26.5 6.2 24.55 L7.4 19.9 7.45 19.85 7.45 19.8 7.45 19.7 7.5 19.65 7.5 19.6 Q7.85 18.25 6.5 16.7 8.6 15.65 9.3 13.1 10.1 10.05 7.6 7.55 L7.55 7.5 7.55 7.55 Q4.45 4.15 4.45 4.5 L3.3 3.35 Q1.5 1.35 2.1 -0.75 2.75 -3.25 5.25 -3.85 L8.25 -4.8 9.6 -5.0 9.65 -5.0 10.8 -5.35 Q14.05 -6.4 15.1 -9.35 L15.45 -11.0 Q16.85 -11.5 17.15 -12.5 L17.0 -12.65 18.05 -16.5 Z" fill="none" stroke="#ffffff" stroke-linecap="round" stroke-linejoin="round" stroke-opacity="0.8509804" stroke-width="4.0"/>
  </g>
</svg>
