<?xml version="1.0" encoding="UTF-8" standalone="no"?>
<svg xmlns:xlink="http://www.w3.org/1999/xlink" height="13.45px" width="31.85px" xmlns="http://www.w3.org/2000/svg">
  <g transform="matrix(1.0, 0.0, 0.0, 1.0, 14.8, 6.25)">
    <path d="M-13.65 -1.85 Q-13.65 -3.4 -9.3 -4.4 L1.2 -5.25 Q7.3 -5.1 11.7 -3.9 16.05 -2.7 16.05 -1.15" fill="none" stroke="#632420" stroke-linecap="round" stroke-linejoin="round" stroke-width="2.0"/>
    <path d="M16.05 -1.15 L16.05 2.8 Q16.0 4.35 11.7 5.4 L1.2 6.2 Q-4.95 6.05 -9.3 4.9 -13.65 3.7 -13.65 2.15 -13.95 0.15 -13.65 -1.85 Z" fill="none" stroke="#361312" stroke-linecap="round" stroke-linejoin="round" stroke-width="2.0"/>
    <path d="M-13.65 -1.8 L-13.65 -1.85 Q-13.65 -3.4 -9.3 -4.4 L1.2 -5.25 Q7.3 -5.1 11.7 -3.9 16.05 -2.7 16.05 -1.15 L16.05 -1.1 Q16.0 -0.05 13.8 0.8 L11.7 1.4 Q7.3 2.4 1.2 2.25 -4.95 2.1 -9.3 0.9 L-11.45 0.2 Q-13.65 -0.7 -13.65 -1.8" fill="#c6adac" fill-rule="evenodd" stroke="none"/>
    <path d="M16.05 -1.1 L16.05 2.8 Q16.0 4.35 11.7 5.4 L1.2 6.2 Q-4.95 6.05 -9.3 4.9 -13.65 3.7 -13.65 2.15 L-13.65 -1.8 Q-13.65 -0.7 -11.45 0.2 L-9.3 0.9 Q-4.95 2.1 1.2 2.25 7.3 2.4 11.7 1.4 L13.8 0.8 Q16.0 -0.05 16.05 -1.1" fill="url(#gradient0)" fill-rule="evenodd" stroke="none"/>
    <path d="M-13.65 -1.8 Q-13.65 -0.7 -11.45 0.2 L-9.3 0.9 Q-4.95 2.1 1.2 2.25 7.3 2.4 11.7 1.4 L13.8 0.8 Q16.0 -0.05 16.05 -1.1" fill="none" stroke="#c19568" stroke-linecap="round" stroke-linejoin="round" stroke-width="0.05"/>
  </g>
  <defs>
    <radialGradient cx="0" cy="0" gradientTransform="matrix(0.0241, 0.0, 0.0, 0.0266, 5.75, 2.2)" gradientUnits="userSpaceOnUse" id="gradient0" r="819.2" spreadMethod="pad">
      <stop offset="0.0" stop-color="#5c1a16"/>
      <stop offset="1.0" stop-color="#c6adac"/>
    </radialGradient>
  </defs>
</svg>
