<?xml version="1.0" encoding="UTF-8" standalone="no"?>
<svg xmlns:xlink="http://www.w3.org/1999/xlink" height="40.2px" width="26.65px" xmlns="http://www.w3.org/2000/svg">
  <g transform="matrix(1.0, 0.0, 0.0, 1.0, 12.75, 20.8)">
    <path d="M7.1 -18.6 Q4.3 -19.8 0.7 -19.8 -2.65 -19.8 -5.3 -18.8 L-9.2 -17.0 Q-11.9 -15.65 -11.75 -12.55 -11.6 -9.5 -8.6 -7.7 L-3.7 -4.75 Q-1.8 -3.6 -1.75 -1.6 -1.75 0.4 -2.65 1.65 L-4.1 3.25 -8.5 6.05 Q-11.4 7.8 -11.55 10.9 -11.7 14.05 -9.25 15.75 -6.8 17.4 -4.7 17.8 L0.9 18.35 Q4.4 18.5 6.3 17.75 8.2 16.95 10.55 15.4 12.9 13.85 12.9 10.8 12.9 7.7 9.85 5.95 L4.45 2.8 Q2.15 1.45 2.15 -0.9 2.15 -3.3 4.45 -4.55 6.75 -5.8 9.65 -7.55 12.5 -9.35 12.7 -12.4 12.9 -15.5 10.5 -16.85 8.1 -18.2 7.1 -18.6 Z" fill="none" stroke="#17535b" stroke-linecap="round" stroke-linejoin="round" stroke-width="2.0"/>
    <path d="M0.7 -19.8 Q4.3 -19.8 7.1 -18.6 L9.0 -17.65 Q12.45 -15.5 12.45 -12.4 12.45 -9.35 9.0 -7.2 L4.7 -4.55 Q2.45 -3.3 2.5 -0.75 2.45 1.45 4.7 2.9 L9.0 5.55 Q12.45 7.7 12.45 10.8 12.45 13.85 9.0 16.0 L7.1 17.0 Q4.3 18.15 0.7 18.2 -2.65 18.15 -5.3 17.15 L-7.65 16.0 Q-11.1 13.85 -11.1 10.8 -11.1 7.7 -7.65 5.55 L-4.1 3.25 -2.85 1.75 Q-2.05 0.4 -2.05 -0.75 -2.1 -3.6 -4.1 -4.9 L-7.65 -7.2 Q-11.1 -9.35 -11.1 -12.4 -11.1 -15.5 -7.65 -17.65 L-5.3 -18.8 Q-2.65 -19.8 0.7 -19.8" fill="url(#gradient0)" fill-rule="evenodd" stroke="none"/>
    <path d="M5.2 -6.55 L4.1 -6.5 -0.4 -6.75 -4.9 -7.5 -6.05 -7.8 -6.7 -8.4 -4.9 -8.7 -0.4 -8.4 4.1 -7.7 Q6.0 -7.25 6.0 -6.9 L5.7 -6.65 5.2 -6.55" fill="#f1d392" fill-rule="evenodd" stroke="none"/>
    <path d="M-6.05 -7.8 L-4.9 -7.5 -0.4 -6.75 4.1 -6.5 5.2 -6.55 3.8 -5.8 Q1.15 -4.0 1.0 0.0 0.8 4.0 3.05 5.9 L6.3 8.5 Q9.1 10.45 9.35 12.1 9.6 13.7 6.95 15.0 4.3 16.35 0.55 16.4 -3.2 16.35 -5.85 15.0 -8.5 13.7 -7.8 12.05 -7.2 10.65 -4.6 8.4 -0.5 4.65 -0.5 0.3 -0.6 -4.1 -2.8 -5.55 L-6.05 -7.8" fill="url(#gradient1)" fill-rule="evenodd" stroke="none"/>
    <path d="M-6.05 -7.8 L-2.8 -5.55 Q-0.6 -4.1 -0.5 0.3 -0.5 4.65 -4.6 8.4 -7.2 10.65 -7.8 12.05 -8.5 13.7 -5.85 15.0 -3.2 16.35 0.55 16.4 4.3 16.35 6.95 15.0 9.6 13.7 9.35 12.1 9.1 10.45 6.3 8.5 L3.05 5.9 Q0.8 4.0 1.0 0.0 1.15 -4.0 3.8 -5.8 L5.2 -6.55" fill="none" stroke="#f48f15" stroke-linecap="round" stroke-linejoin="round" stroke-width="0.05"/>
    <path d="M5.2 -6.55 L5.7 -6.65 6.0 -6.9 Q6.0 -7.25 4.1 -7.7 L-0.4 -8.4 -4.9 -8.7 -6.7 -8.4 -6.05 -7.8 Z" fill="none" stroke="#f9c18a" stroke-linecap="round" stroke-linejoin="round" stroke-width="0.05"/>
  </g>
  <defs>
    <radialGradient cx="0" cy="0" gradientTransform="matrix(0.0245, 0.0, 0.0, 0.0245, 0.0, 10.15)" gradientUnits="userSpaceOnUse" id="gradient0" r="819.2" spreadMethod="pad">
      <stop offset="0.0" stop-color="#1c8493"/>
      <stop offset="1.0" stop-color="#95c5dd"/>
    </radialGradient>
    <linearGradient gradientTransform="matrix(6.0E-4, 0.0051, -0.0058, 7.0E-4, 0.6, 14.1)" gradientUnits="userSpaceOnUse" id="gradient1" spreadMethod="pad" x1="-819.2" x2="819.2">
      <stop offset="0.0" stop-color="#f48f15"/>
      <stop offset="1.0" stop-color="#9f410f"/>
    </linearGradient>
  </defs>
</svg>
