<?xml version="1.0" encoding="UTF-8" standalone="no"?>
<svg xmlns:xlink="http://www.w3.org/1999/xlink" height="139.9px" width="144.5px" xmlns="http://www.w3.org/2000/svg">
  <g transform="matrix(1.0, 0.0, 0.0, 1.0, 70.35, 68.0)">
    <path d="M4.9 -3.9 L9.6 -3.9 Q55.3 -3.3 74.15 -2.55 L74.15 5.65 9.6 5.85 4.75 5.85 Q4.75 47.7 4.25 69.95 1.8 71.4 -0.15 71.9 -3.75 58.5 -4.65 36.75 L-5.0 5.7 -30.8 5.2 -67.65 3.7 -68.65 3.4 Q-68.9 5.35 -68.9 0.5 -68.9 -0.15 -69.5 -0.95 L-70.3 -2.05 Q-70.6 -2.8 -67.65 -3.2 L-66.1 -3.35 Q-59.5 -3.85 -5.1 -3.9 -5.35 -20.95 -5.05 -35.35 -4.25 -68.0 -0.15 -68.0 4.0 -68.0 4.8 -33.35 5.15 -18.7 4.9 -3.9" fill="#ff0000" fill-rule="evenodd" stroke="none"/>
  </g>
</svg>
