<?xml version="1.0" encoding="UTF-8" standalone="no"?>
<svg xmlns:xlink="http://www.w3.org/1999/xlink" height="12.2px" width="532.95px" xmlns="http://www.w3.org/2000/svg">
  <g transform="matrix(1.0, 0.0, 0.0, 1.0, 266.45, 6.35)">
    <path d="M266.0 -6.35 L266.35 -6.15 266.5 -5.75 258.35 5.85 -253.5 5.85 -266.45 -5.75 -266.3 -6.15 -265.95 -6.35 266.0 -6.35" fill="#000000" fill-opacity="0.4509804" fill-rule="evenodd" stroke="none"/>
    <path d="M266.0 -4.3 L256.2 4.35 -251.4 4.35 -265.95 -4.3 266.0 -4.3" fill="url(#gradient0)" fill-rule="evenodd" stroke="none"/>
    <path d="M256.2 4.35 L-251.4 4.35" fill="none" stroke="#82c6ec" stroke-linecap="round" stroke-linejoin="round" stroke-width="1.0"/>
    <path d="M266.0 -4.3 L256.2 4.35 M-251.4 4.35 L-265.95 -4.3" fill="none" stroke="#128de7" stroke-linecap="round" stroke-linejoin="round" stroke-width="1.0"/>
    <path d="M-265.95 -4.3 L266.0 -4.3" fill="none" stroke="#06314f" stroke-linecap="round" stroke-linejoin="round" stroke-width="1.0"/>
    <path d="M0.9 -3.1 L1.25 -3.7 2.1 -3.7 1.55 -2.75 3.3 -2.95 6.1 -3.35 9.8 -3.55 11.9 -3.45 13.35 -3.3 14.35 -3.1 15.4 -2.8 16.05 -2.55 16.85 -2.05 17.1 -1.8 17.35 -1.35 18.1 0.4 Q18.4 0.95 17.6 1.9 L17.55 1.3 17.35 0.75 16.65 0.2 16.1 0.0 14.5 -0.25 9.9 -0.35 9.6 -0.35 5.8 0.0 4.65 1.2 4.45 1.65 Q4.35 2.4 5.2 2.95 L5.4 3.0 6.05 3.2 7.9 3.1 8.1 3.1 9.0 2.3 Q9.2 1.85 8.6 1.3 L8.3 1.3 8.1 2.1 7.9 2.2 7.65 2.2 7.2 2.3 6.95 2.3 6.5 1.9 6.4 1.6 Q6.3 1.3 6.65 1.1 6.95 0.85 7.45 0.75 L8.65 1.0 Q8.95 1.05 9.2 1.3 L9.45 1.7 9.55 2.1 Q9.55 2.55 9.0 3.0 8.2 3.65 6.95 3.8 L5.2 3.6 Q4.05 3.2 3.45 2.45 2.9 1.75 3.0 1.05 L3.4 0.7 4.0 0.05 4.2 -0.3 Q3.75 -0.45 2.4 -1.15 L2.2 -1.65 1.9 -1.95 0.75 -2.7 0.9 -3.1 M0.05 -0.65 L-0.15 -0.95 0.05 -1.2 0.4 -1.3 0.8 -1.2 0.95 -0.95 0.8 -0.65 0.4 -0.55 0.05 -0.65 M2.45 -0.25 L2.6 0.0 2.45 0.25 2.05 0.35 1.65 0.25 1.5 0.0 1.65 -0.25 2.05 -0.4 2.45 -0.25 M18.0 -2.9 L17.6 -3.7 18.25 -3.7 19.1 -2.4 21.15 -0.2 Q21.2 0.25 21.7 -1.9 L22.1 -3.7 28.75 -3.7 Q28.25 -2.6 27.9 -1.2 L29.4 0.95 30.0 1.55 Q31.25 2.35 32.65 2.2 L32.85 2.05 33.5 1.7 33.55 1.7 32.75 0.7 Q32.45 0.4 32.55 -0.15 L32.35 0.05 31.5 0.05 30.95 -0.15 Q30.4 -0.4 30.2 -0.9 L30.0 -1.9 31.1 -2.7 31.8 -2.9 32.65 -2.75 Q32.95 -2.6 33.35 -2.4 L34.65 -1.05 35.1 0.55 36.35 0.35 40.85 -0.75 41.15 -0.85 Q42.75 -1.35 44.75 -2.15 L45.5 -3.6 45.55 -3.7 47.0 -3.7 46.85 -3.45 46.45 -2.65 46.35 -2.25 48.3 -1.95 48.6 -1.45 48.95 -1.3 50.3 -0.85 50.25 -0.4 Q50.0 0.6 49.35 1.6 L48.45 2.75 47.8 3.3 46.95 3.8 46.15 3.85 Q45.05 3.9 44.4 3.4 L44.45 3.2 44.4 3.0 44.55 2.5 Q44.85 2.1 45.4 1.85 L46.0 1.7 46.5 1.85 46.9 2.2 46.6 2.55 46.3 2.85 45.7 2.6 45.45 2.4 45.2 2.95 45.75 3.3 46.4 3.2 Q47.6 3.0 48.4 2.15 L49.05 1.0 49.55 -0.6 47.9 0.05 45.3 1.2 41.8 2.35 39.75 2.8 38.3 3.0 37.25 3.05 36.2 3.05 35.5 3.0 34.6 2.7 34.3 2.55 34.2 2.45 33.7 2.8 Q32.5 3.4 30.9 3.2 29.5 3.0 28.3 2.2 L27.95 1.6 27.1 0.4 26.6 -0.1 24.3 0.6 Q23.85 0.3 23.3 0.25 L22.7 0.25 20.8 0.55 20.15 -0.05 Q18.85 -1.35 18.0 -2.9 M31.35 -2.1 L32.65 -1.15 32.7 -0.85 32.6 -0.65 32.6 -0.4 32.8 -0.95 33.05 -0.4 33.35 0.1 Q33.6 0.35 34.2 0.45 L34.25 0.5 34.2 0.0 34.35 -0.2 Q34.05 -1.15 33.4 -1.75 32.75 -2.35 31.55 -2.35 L31.35 -2.1 M43.75 -3.55 Q43.85 -3.3 43.6 -3.0 L42.95 -2.4 41.7 -2.4 41.1 -2.5 40.75 -2.85 40.55 -3.2 40.55 -3.7 41.1 -3.7 41.05 -3.5 Q40.95 -3.05 41.65 -2.7 L42.0 -2.75 41.95 -3.6 42.05 -3.7 43.65 -3.7 43.75 -3.55 M48.65 -3.45 L48.85 -3.25 48.8 -2.95 48.45 -2.75 48.0 -2.75 47.8 -2.95 47.9 -3.25 48.25 -3.45 48.65 -3.45 M49.7 -2.8 L50.05 -3.0 50.45 -3.0 50.7 -2.75 50.6 -2.45 50.25 -2.25 49.85 -2.25 49.6 -2.5 49.7 -2.8 M51.7 -3.7 L52.35 -3.7 53.35 -2.15 55.4 0.05 Q55.45 0.5 55.95 -1.65 L56.4 -3.7 63.1 -3.7 Q62.55 -2.5 62.15 -0.95 L63.65 1.2 64.25 1.8 Q65.5 2.6 66.9 2.45 L67.1 2.3 67.75 1.95 Q68.65 1.35 68.45 0.25 L68.6 0.05 Q68.3 -0.9 67.65 -1.5 67.0 -2.1 65.8 -2.1 L65.6 -1.85 66.9 -0.9 66.95 -0.6 66.85 -0.4 66.8 0.1 66.6 0.3 65.75 0.3 65.2 0.1 Q64.65 -0.15 64.45 -0.65 L64.25 -1.65 65.35 -2.45 66.05 -2.65 66.9 -2.5 67.6 -2.15 Q68.4 -1.75 68.9 -0.8 69.6 0.55 69.2 1.8 L67.95 3.05 Q66.75 3.65 65.15 3.45 63.75 3.25 62.55 2.45 L62.2 1.85 61.35 0.65 60.85 0.15 58.55 0.85 57.55 0.5 56.95 0.5 55.05 0.8 54.4 0.2 Q53.1 -1.1 52.25 -2.65 L51.7 -3.7 M52.0 -1.7 L51.6 -1.7 51.35 -1.9 51.45 -2.2 51.8 -2.4 52.2 -2.4 52.45 -2.2 52.35 -1.9 52.0 -1.7 M69.15 -3.7 L69.85 -3.7 70.6 -2.55 72.65 -0.35 Q72.7 0.1 73.2 -2.05 L73.55 -3.75 80.2 -3.75 79.4 -1.35 80.9 0.8 81.5 1.4 Q82.75 2.2 84.15 2.05 L84.35 1.9 85.0 1.55 85.45 1.2 Q85.1 0.6 85.15 0.05 L85.55 -0.3 85.75 -0.55 84.9 -1.9 84.55 -2.15 83.05 -2.5 82.9 -2.25 82.95 -2.2 83.1 -2.05 84.05 -1.35 84.2 -1.4 84.6 -1.25 84.75 -1.0 84.6 -0.75 84.2 -0.65 84.1 -0.65 84.05 -0.3 83.85 -0.1 83.0 -0.1 Q82.7 -0.15 82.45 -0.3 81.9 -0.55 81.7 -1.05 L81.5 -2.05 82.6 -2.85 83.3 -3.05 84.15 -2.9 84.05 -2.95 82.9 -3.7 82.9 -3.75 83.7 -3.75 84.05 -3.75 97.8 -3.75 98.2 -3.55 99.0 -3.05 99.25 -2.8 99.5 -2.35 100.25 -0.6 Q100.55 -0.05 99.75 0.9 L99.7 0.3 99.5 -0.25 98.8 -0.8 98.25 -1.0 96.65 -1.25 92.05 -1.35 91.75 -1.35 87.95 -1.0 86.8 0.2 86.6 0.65 Q86.5 1.4 87.35 1.95 L87.55 2.0 88.2 2.2 90.05 2.1 90.25 2.1 91.15 1.3 Q91.35 0.85 90.75 0.3 L90.45 0.3 90.25 1.1 90.05 1.2 89.8 1.2 89.35 1.3 89.1 1.3 88.65 0.9 88.55 0.6 Q88.45 0.3 88.8 0.1 L89.6 -0.25 90.8 0.0 91.35 0.3 91.6 0.7 91.7 1.1 Q91.7 1.55 91.15 2.0 90.35 2.65 89.1 2.8 L87.35 2.6 86.1 1.95 85.2 2.65 Q84.0 3.25 82.4 3.05 81.0 2.85 79.8 2.05 L79.45 1.45 78.6 0.25 78.1 -0.25 75.8 0.45 74.8 0.1 74.2 0.1 72.3 0.4 71.65 -0.2 Q70.35 -1.5 69.5 -3.05 L69.15 -3.7 M80.5 -2.95 L80.65 -3.2 81.05 -3.3 81.45 -3.2 81.6 -2.95 81.45 -2.7 81.05 -2.55 80.65 -2.7 80.5 -2.95 M86.2 -1.05 L86.35 -1.3 86.0 -1.45 86.15 -1.2 86.2 -1.05 M99.7 -3.75 L100.35 -3.75 101.3 -2.3 103.35 -0.1 103.9 -1.8 104.3 -3.75 111.0 -3.75 Q110.5 -2.6 110.1 -1.1 L111.6 1.05 112.2 1.65 Q113.45 2.45 114.85 2.3 L115.05 2.15 115.7 1.8 116.0 1.6 114.9 0.2 114.75 -0.05 114.55 0.15 113.7 0.15 113.15 -0.05 Q112.6 -0.3 112.4 -0.8 L112.2 -1.8 Q112.65 -2.3 113.3 -2.6 L114.0 -2.8 114.85 -2.65 Q115.15 -2.5 115.55 -2.3 116.35 -1.9 116.85 -0.95 L117.2 0.05 118.5 -0.15 123.0 -1.25 123.3 -1.35 126.9 -2.65 127.5 -3.75 128.9 -3.75 128.6 -3.15 128.5 -2.75 130.45 -2.45 130.75 -1.95 131.1 -1.8 132.45 -1.35 132.4 -0.9 Q132.15 0.1 131.5 1.1 L130.6 2.25 129.95 2.8 129.1 3.3 128.3 3.35 Q127.2 3.4 126.55 2.9 L126.6 2.7 126.55 2.5 126.7 2.0 127.55 1.35 128.15 1.2 128.65 1.35 129.05 1.7 128.75 2.05 128.45 2.35 127.85 2.1 127.6 1.9 127.35 2.45 127.9 2.8 128.55 2.7 Q129.75 2.5 130.55 1.65 L131.2 0.5 131.7 -1.1 Q132.0 -1.35 130.05 -0.45 L127.45 0.7 123.95 1.85 121.9 2.3 120.45 2.5 119.4 2.55 118.35 2.55 117.65 2.5 116.8 2.2 115.9 2.9 Q114.7 3.5 113.1 3.3 111.7 3.1 110.5 2.3 L110.15 1.7 109.3 0.5 108.8 0.0 106.5 0.7 105.5 0.35 104.9 0.35 103.0 0.65 102.35 0.05 Q101.05 -1.25 100.2 -2.8 L99.7 -3.75 M113.55 -2.0 L114.8 -1.05 114.95 -1.45 115.2 -0.9 115.5 -0.4 Q115.75 -0.15 116.35 -0.05 L116.45 0.0 116.55 -0.1 Q116.25 -1.05 115.6 -1.65 114.95 -2.25 113.75 -2.25 L113.55 -2.0 M124.1 -3.75 L125.9 -3.75 125.75 -3.5 125.1 -2.9 123.85 -2.9 123.25 -3.0 122.9 -3.35 122.7 -3.7 122.7 -3.75 123.2 -3.75 123.8 -3.2 124.15 -3.25 124.1 -3.75 M129.95 -3.45 L130.0 -3.75 131.0 -3.75 130.95 -3.45 130.6 -3.25 130.15 -3.25 129.95 -3.45 M135.05 -3.75 L135.1 -3.65 137.15 -1.45 Q137.2 -1.0 137.7 -3.15 L137.8 -3.75 144.3 -3.75 143.9 -2.45 145.4 -0.3 146.0 0.3 Q147.25 1.1 148.65 0.95 148.7 0.85 148.85 0.8 L149.5 0.45 Q150.4 -0.15 150.2 -1.25 L150.35 -1.45 Q150.05 -2.4 149.4 -3.0 148.75 -3.6 147.55 -3.6 L147.35 -3.35 147.5 -3.25 147.85 -3.3 148.25 -3.2 148.4 -2.95 148.25 -2.7 148.65 -2.4 148.7 -2.1 148.6 -1.9 148.55 -1.4 148.35 -1.2 147.5 -1.2 146.95 -1.4 Q146.4 -1.65 146.2 -2.15 L146.0 -3.15 146.75 -3.75 149.2 -3.75 149.35 -3.65 Q150.15 -3.25 150.65 -2.3 L151.0 -1.4 151.4 -1.25 151.55 -1.0 151.4 -0.75 151.1 -0.65 150.95 0.3 149.7 1.55 Q148.5 2.15 146.9 1.95 145.5 1.75 144.3 0.95 L143.95 0.35 143.1 -0.85 142.6 -1.35 140.3 -0.65 139.3 -1.0 138.7 -1.0 136.8 -0.7 136.15 -1.3 Q135.0 -2.4 134.25 -3.75 L135.05 -3.75 M132.85 -3.25 L132.75 -2.95 132.4 -2.75 132.0 -2.75 131.75 -3.0 131.85 -3.3 132.2 -3.5 132.6 -3.5 132.85 -3.25 M133.75 -2.2 L133.5 -2.4 133.6 -2.7 133.95 -2.9 134.35 -2.9 134.6 -2.7 134.5 -2.4 134.15 -2.2 133.75 -2.2 M149.7 -3.75 L150.5 -3.75 150.85 -3.75 164.6 -3.75 165.0 -3.55 165.8 -3.05 166.05 -2.8 166.3 -2.35 167.05 -0.6 Q167.35 -0.05 166.55 0.9 L166.5 0.3 166.3 -0.25 Q166.15 -0.55 165.6 -0.8 L165.05 -1.0 163.45 -1.25 158.85 -1.35 158.55 -1.35 154.75 -1.0 153.6 0.2 153.4 0.65 Q153.3 1.4 154.15 1.95 L154.35 2.0 155.0 2.2 156.85 2.1 157.05 2.1 157.95 1.3 Q158.15 0.85 157.55 0.3 L157.25 0.3 157.05 1.1 156.85 1.2 156.6 1.2 156.15 1.3 155.9 1.3 155.45 0.9 155.35 0.6 Q155.25 0.3 155.6 0.1 L156.4 -0.25 157.6 0.0 158.15 0.3 158.4 0.7 158.5 1.1 Q158.5 1.55 157.95 2.0 157.15 2.65 155.9 2.8 L154.15 2.6 Q153.0 2.2 152.4 1.45 151.85 0.75 151.95 0.05 L152.35 -0.3 152.95 -0.95 153.15 -1.3 Q152.7 -1.45 151.35 -2.15 L151.15 -2.65 150.85 -2.95 149.7 -3.7 149.7 -3.75 M149.0 -2.2 L149.35 -2.3 149.75 -2.2 149.9 -1.95 149.75 -1.65 149.35 -1.55 149.0 -1.65 148.8 -1.95 149.0 -2.2 M167.35 -3.75 L167.95 -3.75 168.95 -2.25 171.0 -0.05 Q171.05 0.4 171.55 -1.75 L172.0 -3.75 178.65 -3.75 177.75 -1.05 179.25 1.1 179.85 1.7 Q181.1 2.5 182.5 2.35 L182.7 2.2 183.15 1.95 182.85 1.65 181.7 0.2 181.35 0.2 180.8 0.0 Q180.25 -0.25 180.05 -0.75 L179.85 -1.75 180.95 -2.55 181.65 -2.75 182.5 -2.6 183.2 -2.25 Q184.0 -1.85 184.5 -0.9 L184.8 -0.05 185.3 -0.15 189.8 -1.25 190.1 -1.35 193.7 -2.65 194.3 -3.75 195.7 -3.75 195.4 -3.15 195.3 -2.75 197.25 -2.45 Q197.25 -2.2 197.55 -1.95 L197.9 -1.8 199.25 -1.35 199.2 -0.9 Q198.95 0.1 198.3 1.1 L197.4 2.25 196.75 2.8 195.9 3.3 195.1 3.35 Q194.0 3.4 193.35 2.9 L193.4 2.7 193.35 2.5 193.5 2.0 194.35 1.35 194.95 1.2 195.45 1.35 195.85 1.7 195.55 2.05 195.25 2.35 194.65 2.1 194.4 1.9 194.15 2.45 194.7 2.8 195.35 2.7 Q196.55 2.5 197.35 1.65 L198.0 0.5 198.5 -1.1 196.85 -0.45 194.25 0.7 190.75 1.85 188.7 2.3 187.25 2.5 186.2 2.55 185.15 2.55 184.45 2.5 184.25 2.45 183.55 2.95 Q182.35 3.55 180.75 3.35 179.35 3.15 178.15 2.35 L177.8 1.75 176.95 0.55 176.45 0.05 174.15 0.75 173.15 0.4 172.55 0.4 170.65 0.7 170.0 0.1 Q168.7 -1.2 167.85 -2.75 L167.35 -3.75 M181.2 -1.95 L182.5 -1.0 182.55 -0.7 182.45 -0.5 182.45 -0.25 183.15 -0.05 183.7 0.05 184.15 0.0 184.2 -0.05 Q183.9 -1.0 183.25 -1.6 182.6 -2.2 181.4 -2.2 L181.2 -1.95 M190.9 -3.75 L192.7 -3.75 192.55 -3.5 191.9 -2.9 190.65 -2.9 190.05 -3.0 189.7 -3.35 189.5 -3.7 189.5 -3.75 190.0 -3.75 190.6 -3.2 190.95 -3.25 190.9 -3.75 M196.75 -3.45 Q196.7 -3.6 196.8 -3.75 L197.8 -3.75 197.75 -3.45 197.4 -3.25 196.95 -3.25 196.75 -3.45 M199.0 -3.75 L199.6 -3.75 200.35 -2.65 200.4 -2.7 200.75 -2.9 201.15 -2.9 201.4 -2.7 201.3 -2.4 200.95 -2.2 200.65 -2.15 202.7 0.05 203.25 -1.65 203.7 -3.75 210.4 -3.75 209.45 -0.95 210.95 1.2 211.55 1.8 Q212.8 2.6 214.2 2.45 L214.4 2.3 215.05 1.95 Q215.95 1.35 215.75 0.25 L215.9 0.05 Q215.6 -0.9 214.95 -1.5 214.3 -2.1 213.1 -2.1 L212.9 -1.85 214.2 -0.9 214.25 -0.6 214.15 -0.4 214.1 0.1 213.9 0.3 213.05 0.3 212.5 0.1 Q211.95 -0.15 211.75 -0.65 L211.55 -1.65 Q212.0 -2.15 212.65 -2.45 L213.35 -2.65 214.2 -2.5 214.9 -2.15 Q215.7 -1.75 216.2 -0.8 216.9 0.55 216.5 1.8 L215.25 3.05 Q214.05 3.65 212.45 3.45 211.05 3.25 209.85 2.45 L209.5 1.85 208.65 0.65 208.15 0.15 205.85 0.85 Q205.4 0.55 204.85 0.5 L204.25 0.5 202.35 0.8 201.7 0.2 Q200.4 -1.1 199.55 -2.65 L199.45 -2.85 199.2 -2.75 198.8 -2.75 198.55 -3.0 198.65 -3.3 199.0 -3.5 199.1 -3.5 199.0 -3.75 M208.2 2.2 L208.2 2.65 207.85 2.85 207.3 2.75 206.95 2.35 Q206.8 2.1 206.95 1.9 207.05 1.7 207.3 1.65 L207.85 1.8 208.2 2.2 M205.85 2.7 L205.8 3.15 205.45 3.35 204.9 3.25 204.55 2.85 204.55 2.4 Q204.65 2.2 204.9 2.15 L205.45 2.3 205.85 2.7 M203.35 3.05 L203.35 3.5 202.95 3.7 202.45 3.6 202.05 3.2 202.05 2.75 Q202.2 2.55 202.45 2.5 L203.0 2.65 203.35 3.05 M175.25 2.25 Q175.1 2.0 175.25 1.8 175.35 1.6 175.6 1.55 L176.15 1.7 176.5 2.1 176.5 2.55 176.15 2.75 175.6 2.65 175.25 2.25 M174.15 2.6 L174.1 3.05 173.75 3.25 173.2 3.15 172.85 2.75 172.85 2.3 173.2 2.05 173.75 2.2 174.15 2.6 M171.65 2.95 L171.65 3.4 171.25 3.6 170.75 3.5 170.35 3.1 170.35 2.65 Q170.5 2.45 170.75 2.4 L171.3 2.55 171.65 2.95 M142.65 0.7 L142.65 1.15 142.3 1.35 141.75 1.25 141.4 0.85 Q141.25 0.6 141.4 0.4 L141.75 0.15 142.3 0.3 142.65 0.7 M139.9 0.8 L140.3 1.2 140.25 1.65 139.9 1.85 139.35 1.75 139.0 1.35 139.0 0.9 139.35 0.65 139.9 0.8 M136.9 2.1 L136.5 1.7 136.5 1.25 136.9 1.0 137.45 1.15 137.8 1.55 137.8 2.0 137.4 2.2 136.9 2.1 M108.85 2.5 L108.5 2.7 107.95 2.6 107.6 2.2 Q107.45 1.95 107.6 1.75 L107.95 1.5 108.5 1.65 108.85 2.05 108.85 2.5 M106.45 3.0 L106.1 3.2 105.55 3.1 105.2 2.7 105.2 2.25 Q105.3 2.05 105.55 2.0 L106.1 2.15 106.5 2.55 106.45 3.0 M102.7 2.6 Q102.85 2.4 103.1 2.35 L103.65 2.5 104.0 2.9 104.0 3.35 103.6 3.55 103.1 3.45 102.7 3.05 102.7 2.6 M77.8 1.4 L78.15 1.8 78.15 2.25 77.8 2.45 77.25 2.35 76.9 1.95 Q76.75 1.7 76.9 1.5 L77.25 1.25 Q77.5 1.2 77.8 1.4 M74.5 2.0 L74.85 1.75 75.4 1.9 75.8 2.3 75.75 2.75 75.4 2.95 74.85 2.85 74.5 2.45 74.5 2.0 M72.0 2.35 L72.4 2.1 72.95 2.25 73.3 2.65 73.3 3.1 72.9 3.3 72.4 3.2 72.0 2.8 72.0 2.35 M60.9 2.65 L60.55 2.85 60.0 2.75 59.65 2.35 Q59.5 2.1 59.65 1.9 L60.0 1.65 60.55 1.8 60.9 2.2 60.9 2.65 M57.25 2.4 L57.6 2.15 58.15 2.3 58.55 2.7 58.5 3.15 58.15 3.35 57.6 3.25 57.25 2.85 57.25 2.4 M56.05 3.5 L55.65 3.7 55.15 3.6 54.75 3.2 54.75 2.75 55.15 2.5 55.7 2.65 56.05 3.05 56.05 3.5 M26.3 1.55 L26.65 1.95 26.65 2.4 26.3 2.6 25.75 2.5 25.4 2.1 Q25.25 1.85 25.4 1.65 L25.75 1.4 26.3 1.55 M23.0 2.6 L23.0 2.15 Q23.1 1.95 23.35 1.9 L23.9 2.05 24.3 2.45 24.25 2.9 23.9 3.1 23.35 3.0 23.0 2.6 M20.5 2.5 L20.9 2.25 21.45 2.4 21.8 2.8 21.8 3.25 21.4 3.45 20.9 3.35 20.5 2.95 20.5 2.5 M-245.35 -3.0 L-245.75 -3.75 -245.05 -3.75 -244.25 -2.5 -242.2 -0.3 Q-242.15 0.15 -241.65 -2.0 L-241.3 -3.75 -234.65 -3.75 -235.45 -1.3 -233.95 0.85 -233.35 1.45 Q-232.1 2.25 -230.7 2.1 L-230.5 1.95 -229.85 1.6 Q-228.95 1.0 -229.15 -0.1 L-229.0 -0.3 Q-229.3 -1.25 -229.95 -1.85 -230.6 -2.45 -231.8 -2.45 L-232.0 -2.2 -230.7 -1.25 -230.65 -0.95 -230.75 -0.75 -230.8 -0.25 -231.0 -0.05 -231.85 -0.05 -232.4 -0.25 -233.15 -1.0 -233.35 -2.0 -232.25 -2.8 -231.55 -3.0 -230.7 -2.85 -230.0 -2.5 Q-229.2 -2.1 -228.7 -1.15 -228.0 0.2 -228.4 1.45 -228.8 2.25 -229.65 2.7 -230.85 3.3 -232.45 3.1 -233.85 2.9 -235.05 2.1 L-235.4 1.5 -236.25 0.3 -236.75 -0.2 -239.05 0.5 Q-239.5 0.2 -240.05 0.15 L-240.65 0.15 -242.55 0.45 -243.2 -0.15 -245.35 -3.0 M-223.45 -1.75 L-223.6 -2.0 -223.45 -2.25 -223.05 -2.35 -222.65 -2.25 -222.5 -2.0 -222.65 -1.75 -223.05 -1.6 -223.45 -1.75 M-220.7 -3.75 L-219.85 -3.75 -220.4 -2.8 -218.65 -3.0 -215.85 -3.4 -212.15 -3.6 -210.05 -3.5 -208.6 -3.35 -207.6 -3.15 -206.55 -2.85 -205.9 -2.6 -205.1 -2.1 -204.85 -1.85 -204.6 -1.4 -203.85 0.35 Q-203.55 0.9 -204.35 1.85 L-204.4 1.25 -204.6 0.7 Q-204.75 0.4 -205.3 0.15 L-205.85 -0.05 -207.45 -0.3 -212.05 -0.4 -212.35 -0.4 -216.15 -0.05 -217.3 1.15 -217.5 1.6 Q-217.6 2.35 -216.75 2.9 L-216.55 2.95 -215.9 3.15 -214.05 3.05 -213.85 3.05 -212.95 2.25 Q-212.75 1.8 -213.35 1.25 L-213.65 1.25 -213.85 2.05 -214.05 2.15 -214.3 2.15 -214.75 2.25 -215.0 2.25 -215.45 1.85 -215.55 1.55 Q-215.65 1.25 -215.3 1.05 -215.0 0.8 -214.5 0.7 L-213.3 0.95 Q-213.0 1.0 -212.75 1.25 L-212.5 1.65 -212.4 2.05 Q-212.4 2.5 -212.95 2.95 -213.75 3.6 -215.0 3.75 L-216.75 3.55 -218.5 2.4 Q-219.05 1.7 -218.95 1.0 L-218.55 0.65 -217.95 0.0 -217.75 -0.35 -219.55 -1.2 -219.75 -1.7 -220.05 -2.0 -221.2 -2.75 -221.05 -3.15 -220.7 -3.75 M-221.55 -1.35 L-221.15 -1.25 -221.0 -1.0 -221.15 -0.7 -221.55 -0.6 -221.9 -0.7 -222.1 -1.0 -221.9 -1.25 -221.55 -1.35 M-220.3 -0.3 L-219.9 -0.45 -219.5 -0.3 -219.35 -0.05 -219.5 0.2 -219.9 0.3 -220.3 0.2 -220.45 -0.05 -220.3 -0.3 M-204.45 -3.75 L-203.7 -3.75 -203.15 -2.9 -201.1 -0.7 Q-201.05 -0.25 -200.55 -2.4 L-200.25 -3.75 -193.7 -3.75 -194.35 -1.7 -192.85 0.45 -192.25 1.05 Q-191.0 1.85 -189.6 1.7 L-189.4 1.55 -188.75 1.2 -188.5 1.0 -189.2 0.15 Q-189.7 -0.35 -189.15 -1.5 L-188.9 -0.95 -188.6 -0.45 Q-188.4 -0.25 -188.0 -0.15 L-188.05 -0.5 -187.9 -0.7 Q-188.2 -1.65 -188.85 -2.25 -189.5 -2.85 -190.7 -2.85 L-190.9 -2.6 -189.6 -1.65 -189.55 -1.35 -189.65 -1.15 -189.7 -0.65 -189.9 -0.45 -190.75 -0.45 -191.3 -0.65 -192.05 -1.4 -192.25 -2.4 -191.15 -3.2 -190.45 -3.4 -189.6 -3.25 -188.9 -2.9 Q-188.1 -2.5 -187.6 -1.55 -187.2 -0.75 -187.15 0.0 L-185.6 -0.2 -181.1 -1.3 -180.8 -1.4 -177.2 -2.7 -176.65 -3.75 -175.25 -3.75 -175.5 -3.2 -175.6 -2.8 -173.65 -2.5 -173.35 -2.0 -173.0 -1.85 -171.65 -1.4 -171.7 -0.95 -172.6 1.05 -173.5 2.2 -174.15 2.75 -175.0 3.25 -175.8 3.3 Q-176.9 3.35 -177.55 2.85 L-177.5 2.65 -177.55 2.45 -177.4 1.95 -176.55 1.3 -175.95 1.15 -175.45 1.3 -175.05 1.65 -175.35 2.0 -175.65 2.3 -176.25 2.05 -176.5 1.85 -176.75 2.4 -176.2 2.75 -175.55 2.65 Q-174.35 2.45 -173.55 1.6 L-172.9 0.45 -172.4 -1.15 Q-172.1 -1.4 -174.05 -0.5 L-176.65 0.65 -180.15 1.8 -182.2 2.25 -183.65 2.45 -184.7 2.5 -185.75 2.5 -186.45 2.45 -187.35 2.15 -187.65 2.0 -187.85 1.8 -188.55 2.3 Q-189.75 2.9 -191.35 2.7 -192.75 2.5 -193.95 1.7 L-194.3 1.1 -195.15 -0.1 -195.65 -0.6 -197.95 0.1 -198.95 -0.25 -199.55 -0.25 -201.45 0.05 -202.1 -0.55 -204.25 -3.4 -204.45 -3.75 M-178.35 -3.55 L-179.0 -2.95 -180.25 -2.95 -180.85 -3.05 -181.2 -3.4 -181.4 -3.75 -180.85 -3.75 -180.3 -3.25 -179.95 -3.3 -180.0 -3.75 -178.2 -3.75 -178.35 -3.55 M-173.95 -3.3 L-174.15 -3.5 -174.1 -3.75 -173.1 -3.75 Q-173.05 -3.6 -173.15 -3.5 L-173.5 -3.3 -173.95 -3.3 M-172.25 -3.35 L-171.9 -3.55 -171.5 -3.55 -171.25 -3.3 -171.35 -3.0 -171.7 -2.8 -172.1 -2.8 -172.35 -3.05 -172.25 -3.35 M-168.55 -3.75 L-167.9 -3.75 -167.05 -2.45 -165.0 -0.25 Q-164.95 0.2 -164.45 -1.95 L-164.05 -3.75 -157.4 -3.75 -158.25 -1.25 -156.75 0.9 -156.15 1.5 Q-154.9 2.3 -153.5 2.15 L-153.3 2.0 -152.65 1.65 Q-151.75 1.05 -151.95 -0.05 L-151.8 -0.25 Q-152.1 -1.2 -152.75 -1.8 L-153.2 -2.1 -153.45 -2.05 -153.8 -2.15 -153.95 -2.35 -154.6 -2.4 -154.8 -2.15 -153.5 -1.2 -153.45 -0.9 -153.55 -0.7 -153.6 -0.2 -153.8 0.0 -154.65 0.0 -155.2 -0.2 -155.95 -0.95 -156.15 -1.95 -155.05 -2.75 -154.35 -2.95 -153.55 -2.8 -153.45 -2.8 -153.05 -2.7 -152.9 -2.5 -152.8 -2.45 -152.0 -1.85 -151.8 -1.9 -151.4 -1.75 -151.25 -1.5 -151.4 -1.25 -151.55 -1.15 -151.5 -1.1 Q-150.8 0.25 -151.2 1.5 -151.6 2.3 -152.45 2.75 -153.65 3.35 -155.25 3.15 -156.65 2.95 -157.85 2.15 L-158.2 1.55 -159.05 0.35 -159.55 -0.15 -161.85 0.55 -162.85 0.2 -163.45 0.2 -165.35 0.5 -166.0 -0.1 Q-167.3 -1.4 -168.15 -2.95 L-168.55 -3.75 M-170.5 -2.75 L-170.15 -2.95 -169.75 -2.95 -169.5 -2.75 -169.6 -2.45 -169.95 -2.25 -170.35 -2.25 -170.6 -2.45 -170.5 -2.75 M-152.45 -3.75 L-137.3 -3.75 -137.0 -3.55 -136.75 -3.3 -136.5 -2.85 -135.75 -1.1 Q-135.45 -0.55 -136.25 0.4 L-136.3 -0.2 -136.5 -0.75 -137.2 -1.3 -137.75 -1.5 -139.35 -1.75 -143.95 -1.85 -144.25 -1.85 -148.05 -1.5 -149.2 -0.3 -149.4 0.15 Q-149.5 0.9 -148.65 1.45 L-148.45 1.5 -147.8 1.7 -145.95 1.6 -145.75 1.6 -144.85 0.8 Q-144.65 0.35 -145.25 -0.2 L-145.55 -0.2 -145.75 0.6 -145.95 0.7 -146.2 0.7 -146.65 0.8 -146.9 0.8 -147.35 0.4 -147.45 0.1 -147.2 -0.4 -146.4 -0.75 -145.2 -0.5 Q-144.9 -0.45 -144.65 -0.2 L-144.4 0.2 -144.3 0.6 Q-144.3 1.05 -144.85 1.5 -145.65 2.15 -146.9 2.3 L-148.65 2.1 Q-149.8 1.7 -150.4 0.95 -150.95 0.25 -150.85 -0.45 L-150.45 -0.8 -149.85 -1.45 -149.65 -1.8 -151.45 -2.65 Q-151.4 -2.9 -151.65 -3.15 L-151.95 -3.45 -152.45 -3.75 M-155.3 -3.75 L-154.6 -3.75 -154.55 -3.7 -154.4 -3.45 Q-154.4 -3.3 -154.55 -3.2 L-154.95 -3.05 -155.35 -3.2 -155.5 -3.45 -155.35 -3.7 -155.3 -3.75 M-135.3 -3.75 L-134.55 -3.75 -134.15 -3.1 -132.1 -0.9 Q-132.05 -0.45 -131.55 -2.6 L-131.3 -3.75 -124.75 -3.75 -125.35 -1.9 -123.85 0.25 -123.25 0.85 Q-122.0 1.65 -120.6 1.5 L-120.4 1.35 -120.0 1.15 -121.1 -0.3 -121.3 -0.65 -121.75 -0.65 -122.3 -0.85 -123.05 -1.6 -123.25 -2.6 Q-122.8 -3.1 -122.15 -3.4 L-121.45 -3.6 -120.6 -3.45 -119.9 -3.1 Q-119.1 -2.7 -118.6 -1.75 L-118.2 -0.5 -117.5 -0.65 -113.0 -1.75 -112.7 -1.85 Q-111.1 -2.35 -109.1 -3.15 L-108.8 -3.75 -107.35 -3.75 -107.4 -3.65 -107.5 -3.25 -105.55 -2.95 -105.25 -2.45 -104.9 -2.3 -103.55 -1.85 -103.6 -1.4 Q-103.85 -0.4 -104.5 0.6 L-105.4 1.75 -106.05 2.3 -106.9 2.8 -107.7 2.85 Q-108.8 2.9 -109.45 2.4 L-109.4 2.2 -109.45 2.0 -109.3 1.5 -108.45 0.85 -107.85 0.7 -107.35 0.85 -106.95 1.2 -107.25 1.55 -107.55 1.85 -108.15 1.6 -108.4 1.4 -108.65 1.95 -108.1 2.3 -107.45 2.2 Q-106.25 2.0 -105.45 1.15 L-104.8 0.0 -104.3 -1.6 -105.95 -0.95 -108.55 0.2 -112.05 1.35 -114.1 1.8 -115.55 2.0 -116.6 2.05 -117.65 2.05 -118.35 2.0 -119.05 1.75 -119.55 2.1 Q-120.75 2.7 -122.35 2.5 -123.75 2.3 -124.95 1.5 L-125.3 0.9 -126.15 -0.3 -126.65 -0.8 -128.95 -0.1 -129.95 -0.45 -130.55 -0.45 -132.45 -0.15 -133.1 -0.75 -135.25 -3.6 -135.3 -3.75 M-121.9 -2.8 L-120.6 -1.85 -120.55 -1.55 -120.65 -1.35 -120.65 -1.05 -120.5 -0.9 Q-120.25 -0.65 -119.65 -0.55 L-119.1 -0.45 -119.0 -0.45 -119.05 -0.7 -118.9 -0.9 Q-119.2 -1.85 -119.85 -2.45 -120.5 -3.05 -121.7 -3.05 L-121.9 -2.8 M-112.8 -3.55 L-110.75 -3.55 -110.9 -3.4 -112.15 -3.4 -112.75 -3.5 -112.8 -3.55 M-101.65 -3.4 L-101.4 -3.2 -101.5 -2.9 -101.85 -2.7 -102.25 -2.7 -102.5 -2.9 -102.4 -3.2 -102.05 -3.4 -101.65 -3.4 M-103.25 -3.45 L-103.6 -3.25 -104.0 -3.25 -104.25 -3.5 -104.2 -3.75 -103.15 -3.75 -103.25 -3.45 M-93.85 -3.7 L-93.2 -3.7 -92.25 -2.25 -90.2 -0.05 Q-90.15 0.4 -89.65 -1.75 L-89.25 -3.7 -82.55 -3.7 -83.45 -1.05 -81.95 1.1 -81.35 1.7 Q-80.1 2.5 -78.7 2.35 L-78.5 2.2 -77.85 1.85 Q-76.95 1.25 -77.15 0.15 L-77.0 -0.05 Q-77.3 -1.0 -77.95 -1.6 -78.6 -2.2 -79.8 -2.2 L-80.0 -1.95 -78.7 -1.0 -78.65 -0.7 -78.75 -0.5 -78.8 0.0 -79.0 0.2 -79.85 0.2 -80.4 0.0 -81.15 -0.75 -81.35 -1.75 -80.25 -2.55 -79.55 -2.75 -78.7 -2.6 -78.0 -2.25 Q-77.2 -1.85 -76.7 -0.9 -76.0 0.45 -76.4 1.7 -76.8 2.5 -77.65 2.95 -78.85 3.55 -80.45 3.35 -81.85 3.15 -83.05 2.35 L-83.4 1.75 -84.25 0.55 -84.75 0.05 -87.05 0.75 -88.05 0.4 -88.65 0.4 -90.55 0.7 -91.2 0.1 Q-92.5 -1.2 -93.35 -2.75 L-93.85 -3.7 M-73.5 -3.25 L-73.35 -3.0 -73.5 -2.75 -73.9 -2.6 -74.3 -2.75 -74.45 -3.0 -74.3 -3.25 -73.9 -3.35 -73.5 -3.25 M-71.85 -2.0 L-72.0 -1.7 -72.4 -1.6 -72.75 -1.7 -72.95 -2.0 -72.75 -2.25 -72.4 -2.35 -72.0 -2.25 -71.85 -2.0 M-71.15 -1.3 L-70.75 -1.45 -70.35 -1.3 -70.2 -1.05 -70.35 -0.8 -70.75 -0.7 -71.15 -0.8 -71.3 -1.05 -71.15 -1.3 M-72.0 -3.7 L-56.9 -3.7 -56.75 -3.6 -55.95 -3.1 -55.7 -2.85 -55.45 -2.4 -54.7 -0.65 Q-54.4 -0.1 -55.2 0.85 L-55.25 0.25 -55.45 -0.3 -56.15 -0.85 -56.7 -1.05 -58.3 -1.3 -62.9 -1.4 -63.2 -1.4 -67.0 -1.05 -68.15 0.15 -68.35 0.6 Q-68.45 1.35 -67.6 1.9 L-67.4 1.95 -66.75 2.15 -64.9 2.05 -64.7 2.05 -63.8 1.25 Q-63.6 0.8 -64.2 0.25 L-64.5 0.25 -64.7 1.05 -64.9 1.15 -65.15 1.15 -65.6 1.25 -65.85 1.25 -66.3 0.85 -66.4 0.55 -66.15 0.05 -65.35 -0.3 -64.15 -0.05 Q-63.85 0.0 -63.6 0.25 L-63.35 0.65 -63.25 1.05 Q-63.25 1.5 -63.8 1.95 -64.6 2.6 -65.85 2.75 L-67.6 2.55 Q-68.75 2.15 -69.35 1.4 -69.9 0.7 -69.8 0.0 L-69.4 -0.35 -68.8 -1.0 -68.6 -1.35 -70.4 -2.2 Q-70.35 -2.45 -70.6 -2.7 L-70.9 -3.0 -72.0 -3.7 M-53.95 -3.7 L-53.3 -3.7 -52.5 -2.5 -50.45 -0.3 Q-50.4 0.15 -49.9 -2.0 L-49.55 -3.7 -42.9 -3.7 -43.7 -1.3 -42.2 0.85 -41.6 1.45 Q-40.35 2.25 -38.95 2.1 L-38.75 1.95 -38.65 1.9 -38.9 1.6 -40.05 0.15 -40.2 -0.1 -40.65 -0.25 -41.4 -1.0 -41.6 -2.0 -40.5 -2.8 -39.8 -3.0 -38.95 -2.85 -38.25 -2.5 Q-37.45 -2.1 -36.95 -1.15 L-36.6 -0.15 -36.45 -0.2 -31.95 -1.3 -31.65 -1.4 Q-30.05 -1.9 -28.05 -2.7 L-27.55 -3.7 -26.1 -3.7 -26.35 -3.2 -26.45 -2.8 -24.5 -2.5 -24.2 -2.0 -23.85 -1.85 -22.5 -1.4 -22.55 -0.95 Q-22.8 0.05 -23.45 1.05 L-24.35 2.2 -25.0 2.75 -25.85 3.25 -26.65 3.3 Q-27.75 3.35 -28.4 2.85 L-28.35 2.65 -28.4 2.45 -28.25 1.95 -27.4 1.3 -26.8 1.15 -26.3 1.3 -25.9 1.65 -26.2 2.0 -26.5 2.3 -27.1 2.05 -27.35 1.85 -27.6 2.4 -27.05 2.75 -26.4 2.65 Q-25.2 2.45 -24.4 1.6 L-23.75 0.45 -23.25 -1.15 -24.9 -0.5 -27.5 0.65 -31.0 1.8 -33.05 2.25 -34.5 2.45 -35.55 2.5 -36.6 2.5 -37.3 2.45 -37.45 2.4 -37.9 2.7 Q-39.1 3.3 -40.7 3.1 -42.1 2.9 -43.3 2.1 L-43.65 1.5 -44.5 0.3 -45.0 -0.2 -47.3 0.5 Q-47.75 0.2 -48.3 0.15 L-48.9 0.15 -50.8 0.45 -51.45 -0.15 -53.6 -3.0 -53.95 -3.7 M-40.25 -2.2 L-38.95 -1.25 -38.9 -0.95 -39.0 -0.75 -39.05 -0.25 -39.1 -0.2 -38.6 -0.1 -38.05 0.0 -37.4 -0.05 -37.4 -0.1 -37.25 -0.3 Q-37.55 -1.25 -38.2 -1.85 -38.85 -2.45 -40.05 -2.45 L-40.25 -2.2 M-32.2 -3.7 L-31.7 -3.7 -31.15 -3.25 -30.8 -3.3 -30.8 -3.7 -29.1 -3.7 -29.2 -3.55 -29.85 -2.95 -31.1 -2.95 -31.7 -3.05 -32.05 -3.4 -32.2 -3.7 M-22.1 -3.3 L-22.2 -3.0 -22.55 -2.8 -22.95 -2.8 -23.2 -3.05 -23.1 -3.35 -22.75 -3.55 -22.35 -3.55 -22.1 -3.3 M-24.8 -3.3 L-25.0 -3.5 -25.0 -3.7 -23.95 -3.7 -24.0 -3.5 -24.35 -3.3 -24.8 -3.3 M-20.6 -2.95 L-20.35 -2.75 -20.45 -2.45 Q-20.6 -2.3 -20.8 -2.25 L-21.2 -2.25 -21.45 -2.45 -21.35 -2.75 -21.0 -2.95 -20.6 -2.95 M-20.1 -2.9 L-20.5 -3.7 -19.85 -3.7 -19.0 -2.4 -16.95 -0.2 Q-16.9 0.25 -16.4 -1.9 L-16.0 -3.7 -9.35 -3.7 -10.2 -1.2 -8.7 0.95 -8.1 1.55 Q-6.85 2.35 -5.45 2.2 L-5.25 2.05 -4.6 1.7 Q-3.7 1.1 -3.9 0.0 L-3.75 -0.2 Q-4.05 -1.15 -4.7 -1.75 -5.35 -2.35 -6.55 -2.35 L-6.75 -2.1 -5.45 -1.15 -5.4 -0.85 -5.5 -0.65 -5.55 -0.15 -5.75 0.05 -6.6 0.05 -7.15 -0.15 -7.9 -0.9 -8.1 -1.9 -7.0 -2.7 -6.3 -2.9 -5.45 -2.75 -4.75 -2.4 Q-3.95 -2.0 -3.45 -1.05 -2.75 0.3 -3.15 1.55 -3.55 2.35 -4.4 2.8 -5.6 3.4 -7.2 3.2 -8.6 3.0 -9.8 2.2 L-10.15 1.6 -11.0 0.4 -11.5 -0.1 -13.8 0.6 Q-14.25 0.3 -14.8 0.25 L-15.4 0.25 -17.3 0.55 -17.95 -0.05 Q-19.25 -1.35 -20.1 -2.9 M-1.5 -1.7 L-1.65 -1.95 -1.5 -2.2 -1.1 -2.3 -0.7 -2.2 -0.55 -1.95 -0.7 -1.7 -1.1 -1.55 -1.5 -1.7 M-12.35 2.5 L-12.7 2.1 -12.7 1.65 -12.35 1.4 -11.8 1.55 -11.45 1.95 -11.45 2.4 -11.8 2.6 -12.35 2.5 M-13.8 2.45 L-13.85 2.9 -14.2 3.1 -14.75 3.0 -15.1 2.6 -15.1 2.15 Q-15.0 1.95 -14.75 1.9 L-14.2 2.05 -13.8 2.45 M-17.6 2.5 Q-17.45 2.3 -17.2 2.25 L-16.65 2.4 Q-16.4 2.55 -16.3 2.8 L-16.3 3.25 -16.7 3.45 -17.2 3.35 -17.6 2.95 -17.6 2.5 M-44.95 2.3 L-45.3 2.5 -45.85 2.4 -46.2 2.0 -46.2 1.55 -45.85 1.3 -45.3 1.45 -44.95 1.85 -44.95 2.3 M-47.7 3.0 L-48.25 2.9 -48.6 2.5 -48.6 2.05 Q-48.5 1.85 -48.25 1.8 L-47.7 1.95 -47.3 2.35 -47.35 2.8 -47.7 3.0 M-49.8 2.7 L-49.8 3.15 -50.2 3.35 -50.7 3.25 -51.1 2.85 -51.1 2.4 -50.7 2.15 Q-50.45 2.1 -50.15 2.3 L-49.8 2.7 M-85.6 2.65 L-85.95 2.25 -85.95 1.8 -85.6 1.55 -85.05 1.7 -84.7 2.1 -84.7 2.55 -85.05 2.75 -85.6 2.65 M-87.45 2.2 L-87.05 2.6 -87.1 3.05 -87.45 3.25 -88.0 3.15 -88.35 2.75 -88.35 2.3 Q-88.25 2.1 -88.0 2.05 L-87.45 2.2 M-90.85 2.65 L-90.45 2.4 -89.9 2.55 -89.55 2.95 -89.55 3.4 -89.95 3.6 -90.45 3.5 -90.85 3.1 -90.85 2.65 M-129.0 2.2 L-129.35 2.4 -129.9 2.3 -130.25 1.9 -130.25 1.45 Q-130.15 1.25 -129.9 1.2 -129.65 1.15 -129.35 1.35 L-128.95 1.75 -129.0 2.2 M-127.85 0.95 Q-127.75 0.75 -127.5 0.7 L-126.95 0.85 -126.6 1.25 -126.6 1.7 -126.95 1.9 -127.5 1.8 -127.85 1.4 -127.85 0.95 M-131.45 2.55 L-131.85 2.75 -132.35 2.65 -132.75 2.25 -132.75 1.8 Q-132.6 1.6 -132.35 1.55 -132.1 1.5 -131.8 1.7 -131.55 1.85 -131.45 2.1 L-131.45 2.55 M-159.85 1.5 L-159.5 1.9 -159.5 2.35 -159.85 2.55 -160.4 2.45 -160.75 2.05 -160.75 1.6 Q-160.65 1.4 -160.4 1.35 -160.15 1.3 -159.85 1.5 M-161.9 2.85 L-162.25 3.05 -162.8 2.95 -163.15 2.55 -163.15 2.1 -162.8 1.85 Q-162.55 1.8 -162.25 2.0 L-161.85 2.4 -161.9 2.85 M-165.65 2.45 L-165.25 2.2 -164.7 2.35 Q-164.45 2.5 -164.35 2.75 L-164.35 3.2 -164.75 3.4 -165.25 3.3 -165.65 2.9 -165.65 2.45 M-195.6 1.45 L-195.6 1.9 -195.95 2.1 -196.5 2.0 -196.85 1.6 -196.85 1.15 Q-196.75 0.95 -196.5 0.9 L-195.95 1.05 Q-195.7 1.2 -195.6 1.45 M-198.0 2.4 L-198.35 2.6 -198.9 2.5 -199.25 2.1 -199.25 1.65 Q-199.15 1.45 -198.9 1.4 L-198.35 1.55 -197.95 1.95 -198.0 2.4 M-201.35 1.75 L-200.8 1.9 Q-200.55 2.05 -200.45 2.3 L-200.45 2.75 -200.85 2.95 -201.35 2.85 -201.75 2.45 -201.75 2.0 -201.35 1.75 M-237.6 2.4 L-237.95 2.0 -237.95 1.55 -237.6 1.3 -237.05 1.45 -236.7 1.85 -236.7 2.3 -237.05 2.5 -237.6 2.4 M-239.45 1.95 L-239.05 2.35 -239.1 2.8 Q-239.2 2.95 -239.45 3.0 L-240.0 2.9 -240.35 2.5 -240.35 2.05 -240.0 1.8 -239.45 1.95 M-242.85 2.4 L-242.45 2.15 -241.9 2.3 -241.55 2.7 -241.55 3.15 -241.95 3.35 -242.45 3.25 -242.85 2.85 -242.85 2.4" fill="#0b4d84" fill-rule="evenodd" stroke="none"/>
  </g>
  <defs>
    <linearGradient gradientTransform="matrix(0.0, -0.003, 0.0053, 0.0, 0.0, 2.3)" gradientUnits="userSpaceOnUse" id="gradient0" spreadMethod="pad" x1="-819.2" x2="819.2">
      <stop offset="0.0" stop-color="#1b99dd"/>
      <stop offset="1.0" stop-color="#094277"/>
    </linearGradient>
  </defs>
</svg>
