<?xml version="1.0" encoding="UTF-8" standalone="no"?>
<svg xmlns:xlink="http://www.w3.org/1999/xlink" height="45.5px" width="190.95px" xmlns="http://www.w3.org/2000/svg">
  <g transform="matrix(1.0, 0.0, 0.0, 1.0, 139.65, 25.25)">
    <path d="M13.45 19.5 L13.4 19.5 13.05 19.65 -102.4 20.25 -127.2 -10.7 37.75 -9.9 Q19.0 13.65 13.45 19.5" fill="#000000" fill-opacity="0.38039216" fill-rule="evenodd" stroke="none"/>
    <path d="M47.9 -24.75 L50.8 -24.75 Q47.6 -20.55 32.85 -4.15 15.85 14.65 12.7 18.35 L-72.75 18.35 -101.85 18.35 -129.25 -12.05 -139.15 -23.55 -136.4 -23.55 47.9 -24.75 11.9 15.8 47.9 -24.75 M-100.95 16.05 L11.9 15.8 -100.95 16.05 -102.0 14.8 -101.05 16.05 -101.0 16.1 -100.95 16.05 M-136.4 -23.55 Q-130.65 -17.4 -126.85 -12.8 -104.3 11.85 -102.0 14.8 -104.3 11.85 -126.85 -12.8 -130.65 -17.4 -136.4 -23.55" fill="url(#gradient0)" fill-rule="evenodd" stroke="none"/>
    <path d="M47.9 -24.75 L11.9 15.8" fill="none" stroke="#3a1b1b" stroke-linecap="round" stroke-linejoin="round" stroke-width="1.0"/>
    <path d="M11.9 15.8 L-100.95 16.05" fill="none" stroke="#361818" stroke-linecap="round" stroke-linejoin="round" stroke-width="1.0"/>
    <path d="M50.8 -24.75 Q47.6 -20.55 32.85 -4.15 15.85 14.65 12.7 18.35" fill="none" stroke="#bd6c6c" stroke-linecap="round" stroke-linejoin="round" stroke-width="1.0"/>
    <path d="M12.7 18.35 L-72.75 18.35" fill="none" stroke="#cd9292" stroke-linecap="round" stroke-linejoin="round" stroke-width="1.0"/>
    <path d="M-129.25 -12.05 L-139.15 -23.55 M-101.05 16.05 L-102.0 14.8 Q-104.3 11.85 -126.85 -12.8 -130.65 -17.4 -136.4 -23.55 M-100.95 16.05 L-101.05 16.05" fill="none" stroke="#3a1b1b" stroke-linecap="round" stroke-linejoin="round" stroke-width="1.0"/>
    <path d="M-72.75 18.35 L-101.85 18.35" fill="none" stroke="#b35e5e" stroke-linecap="round" stroke-linejoin="round" stroke-width="1.0"/>
    <path d="M-101.85 18.35 L-129.25 -12.05" fill="none" stroke="#6f3535" stroke-linecap="round" stroke-linejoin="round" stroke-width="1.0"/>
    <path d="M-136.4 -23.55 L47.9 -24.75 Z" fill="none" stroke="#1d0e0e" stroke-linecap="round" stroke-linejoin="round" stroke-width="1.0"/>
  </g>
  <defs>
    <linearGradient gradientTransform="matrix(0.006, 0.0158, 0.1291, -0.029, -26.5, 6.85)" gradientUnits="userSpaceOnUse" id="gradient0" spreadMethod="pad" x1="-819.2" x2="819.2">
      <stop offset="0.0" stop-color="#000000"/>
      <stop offset="1.0" stop-color="#6d3030"/>
    </linearGradient>
  </defs>
</svg>
