<?xml version="1.0" encoding="UTF-8" standalone="no"?>
<svg xmlns:xlink="http://www.w3.org/1999/xlink" height="40.15px" width="270.0px" xmlns="http://www.w3.org/2000/svg">
  <g transform="matrix(1.0, 0.0, 0.0, 1.0, 90.55, 19.95)">
    <path d="M99.55 -19.55 L99.55 -19.65 178.95 -19.95 179.25 -19.85 179.45 -19.5 179.45 -19.45 179.35 -19.15 Q162.6 3.1 147.1 19.45 L147.05 19.45 146.7 19.6 107.2 19.8 107.2 20.0 -57.75 20.2 -70.45 4.9 Q-79.2 -5.65 -90.4 -18.5 L-90.55 -18.85 -90.4 -19.2 -90.35 -19.2 -90.05 -19.35 99.55 -19.55" fill="#000000" fill-opacity="0.38039216" fill-rule="evenodd" stroke="none"/>
    <path d="M145.15 16.2 Q150.6 10.45 156.2 3.2 L167.7 -12.05 156.2 3.2 Q150.6 10.45 145.15 16.2 L-55.8 16.05 145.15 16.2 M-55.9 16.05 L-55.85 16.1 -55.8 16.05 -56.85 14.8 -55.9 16.05 M-79.9 -12.25 L-79.2 -11.35 Q-70.2 -1.75 -66.1 3.2 L-56.85 14.8 -66.1 3.2 Q-70.2 -1.75 -79.2 -11.35 L-79.9 -12.25 167.7 -12.05 -79.9 -12.25 M146.35 18.35 L94.9 18.35 -56.7 18.35 -68.5 3.95 -84.3 -14.35 172.25 -14.35 Q161.55 0.55 146.35 18.35" fill="url(#gradient0)" fill-rule="evenodd" stroke="none"/>
    <path d="M167.7 -12.05 L156.2 3.2 Q150.6 10.45 145.15 16.2" fill="none" stroke="#3a1b1b" stroke-linecap="round" stroke-linejoin="round" stroke-width="1.0"/>
    <path d="M-79.9 -12.25 L167.7 -12.05" fill="none" stroke="#1e0d0d" stroke-linecap="round" stroke-linejoin="round" stroke-width="1.0"/>
    <path d="M145.15 16.2 L-55.8 16.05" fill="none" stroke="#361818" stroke-linecap="round" stroke-linejoin="round" stroke-width="1.0"/>
    <path d="M172.25 -14.35 Q161.55 0.55 146.35 18.35" fill="none" stroke="#bd6c6c" stroke-linecap="round" stroke-linejoin="round" stroke-width="1.0"/>
    <path d="M146.35 18.35 L94.9 18.35" fill="none" stroke="#cd9292" stroke-linecap="round" stroke-linejoin="round" stroke-width="1.0"/>
    <path d="M-84.3 -14.35 L172.25 -14.35" fill="none" stroke="#b15252" stroke-linecap="round" stroke-linejoin="round" stroke-width="1.0"/>
    <path d="M-55.9 16.05 L-56.85 14.8 -66.1 3.2 Q-70.2 -1.75 -79.2 -11.35 L-79.9 -12.25 M-68.5 3.95 L-84.3 -14.35 M-55.8 16.05 L-55.9 16.05" fill="none" stroke="#3a1b1b" stroke-linecap="round" stroke-linejoin="round" stroke-width="1.0"/>
    <path d="M94.9 18.35 L-56.7 18.35" fill="none" stroke="#b35e5e" stroke-linecap="round" stroke-linejoin="round" stroke-width="1.0"/>
    <path d="M-56.7 18.35 L-68.5 3.95" fill="none" stroke="#6f3535" stroke-linecap="round" stroke-linejoin="round" stroke-width="1.0"/>
  </g>
  <defs>
    <linearGradient gradientTransform="matrix(0.0107, 0.028, 0.1291, -0.029, 99.9, -3.05)" gradientUnits="userSpaceOnUse" id="gradient0" spreadMethod="pad" x1="-819.2" x2="819.2">
      <stop offset="0.0" stop-color="#000000"/>
      <stop offset="1.0" stop-color="#6d3030"/>
    </linearGradient>
  </defs>
</svg>
