<?xml version="1.0" encoding="UTF-8" standalone="no"?>
<svg xmlns:xlink="http://www.w3.org/1999/xlink" height="32.05px" width="91.2px" xmlns="http://www.w3.org/2000/svg">
  <g transform="matrix(1.0, 0.0, 0.0, 1.0, 54.95, 4.0)">
    <path d="M-51.65 -1.45 L-51.6 -1.5 36.25 -4.0 33.55 27.95 33.4 28.0 33.4 28.05 -53.15 26.45 -51.65 -1.45" fill="#000000" fill-opacity="0.43137255" fill-rule="evenodd" stroke="none"/>
    <path d="M33.6 -3.6 L30.8 25.45 -54.95 24.0 -53.45 -1.1 33.6 -3.6" fill="#062942" fill-rule="evenodd" stroke="none"/>
    <path d="M33.6 -3.6 L30.8 25.45 -54.95 24.0" fill="none" stroke="#07253a" stroke-linecap="round" stroke-linejoin="round" stroke-width="0.05"/>
    <path d="M-54.95 24.0 L-53.45 -1.1 33.6 -3.6 Z" fill="none" stroke="#1b5e76" stroke-linecap="round" stroke-linejoin="round" stroke-width="0.05"/>
    <path d="M32.2 -2.9 L29.55 24.65 -53.75 23.35 -52.3 -0.6 32.2 -2.9" fill="url(#gradient0)" fill-rule="evenodd" stroke="none"/>
    <path d="M29.55 24.65 L-53.75 23.35" fill="none" stroke="#75c2df" stroke-linecap="round" stroke-linejoin="round" stroke-width="0.05"/>
    <path d="M-53.75 23.35 L-52.3 -0.6 32.2 -2.9" fill="none" stroke="#03131b" stroke-linecap="round" stroke-linejoin="round" stroke-width="0.05"/>
    <path d="M32.2 -2.9 L29.55 24.65 Z" fill="none" stroke="#3eaad2" stroke-linecap="round" stroke-linejoin="round" stroke-width="0.05"/>
    <path d="M10.7 7.7 Q10.85 7.55 11.05 7.55 L11.4 7.7 11.55 8.05 11.4 8.4 11.05 8.55 10.7 8.4 10.55 8.05 10.7 7.7 M2.7 7.7 Q2.85 7.55 3.05 7.55 3.25 7.55 3.4 7.7 L3.55 8.05 3.4 8.4 3.05 8.55 2.7 8.4 2.55 8.05 Q2.55 7.85 2.7 7.7 M7.4 7.7 L7.55 8.05 7.4 8.4 7.05 8.55 6.7 8.4 6.55 8.05 Q6.55 7.85 6.7 7.7 6.85 7.55 7.05 7.55 7.25 7.55 7.4 7.7 M-5.45 8.05 L-5.3 7.7 Q-5.15 7.55 -4.95 7.55 -4.75 7.55 -4.6 7.7 -4.45 7.85 -4.45 8.05 L-4.6 8.4 -4.95 8.55 -5.3 8.4 -5.45 8.05 M-9.3 7.7 L-8.95 7.55 Q-8.75 7.55 -8.6 7.7 L-8.45 8.05 -8.6 8.4 -8.95 8.55 -9.3 8.4 -9.45 8.05 -9.3 7.7 M-1.3 7.7 Q-1.15 7.55 -0.95 7.55 -0.75 7.55 -0.6 7.7 -0.45 7.85 -0.45 8.05 L-0.6 8.4 -0.95 8.55 -1.3 8.4 -1.45 8.05 -1.3 7.7 M-17.3 7.7 Q-17.15 7.55 -16.95 7.55 -16.75 7.55 -16.6 7.7 -16.45 7.85 -16.45 8.05 L-16.6 8.4 -16.95 8.55 -17.3 8.4 -17.45 8.05 -17.3 7.7 M-12.6 7.7 Q-12.45 7.85 -12.45 8.05 L-12.6 8.4 -12.95 8.55 -13.3 8.4 -13.45 8.05 -13.3 7.7 Q-13.15 7.55 -12.95 7.55 -12.75 7.55 -12.6 7.7 M-29.3 7.7 Q-29.15 7.55 -28.95 7.55 -28.75 7.55 -28.6 7.7 -28.45 7.85 -28.45 8.05 L-28.6 8.4 -28.95 8.55 -29.3 8.4 -29.45 8.05 -29.3 7.7 M-20.6 7.7 L-20.45 8.05 -20.6 8.4 -20.95 8.55 -21.3 8.4 -21.45 8.05 -21.3 7.7 -20.95 7.55 Q-20.75 7.55 -20.6 7.7 M-24.45 8.05 L-24.6 8.4 -24.95 8.55 -25.3 8.4 -25.45 8.05 -25.3 7.7 Q-25.15 7.55 -24.95 7.55 -24.75 7.55 -24.6 7.7 -24.45 7.85 -24.45 8.05 M-33.3 7.7 L-32.95 7.55 -32.6 7.7 -32.45 8.05 -32.6 8.4 -32.95 8.55 -33.3 8.4 -33.45 8.05 -33.3 7.7" fill="#55b6e1" fill-rule="evenodd" stroke="none"/>
  </g>
  <defs>
    <linearGradient gradientTransform="matrix(-0.0016, -0.0109, -0.0498, 0.0018, -18.25, 5.85)" gradientUnits="userSpaceOnUse" id="gradient0" spreadMethod="pad" x1="-819.2" x2="819.2">
      <stop offset="0.0" stop-color="#093d72"/>
      <stop offset="1.0" stop-color="#55b6e1"/>
    </linearGradient>
  </defs>
</svg>
