<?xml version="1.0" encoding="UTF-8" standalone="no"?>
<svg xmlns:xlink="http://www.w3.org/1999/xlink" height="12.15px" width="657.65px" xmlns="http://www.w3.org/2000/svg">
  <g transform="matrix(1.0, 0.0, 0.0, 1.0, 331.55, -231.0)">
    <path d="M325.6 241.1 L325.6 243.15 -330.95 243.15 -331.4 243.0 -331.55 242.55 -330.25 241.1 325.6 241.1 M-329.2 239.9 L-321.3 231.0 323.05 231.0 325.6 232.8 325.6 234.95 320.4 232.45 -318.6 232.45 -329.2 239.9" fill="#000000" fill-opacity="0.4509804" fill-rule="evenodd" stroke="none"/>
    <path d="M-330.25 241.1 L-330.95 241.1 -329.2 239.9 -318.6 232.45 320.4 232.45 325.6 234.95 325.6 241.1 -330.25 241.1 M141.65 234.6 L141.7 234.45 Q140.85 233.9 139.5 234.0 L138.5 234.05 137.45 234.5 Q136.9 234.75 136.6 235.1 L135.5 236.25 Q134.6 237.2 134.35 238.2 L134.25 238.7 135.95 239.1 136.4 239.3 136.8 239.75 139.25 240.1 139.1 240.5 139.1 240.55 140.9 240.55 141.3 239.95 145.8 238.65 146.2 238.55 151.85 237.45 152.7 237.35 Q152.8 237.95 153.25 238.55 153.8 239.5 154.9 239.95 L155.75 240.25 156.85 240.4 157.7 240.2 159.1 239.45 158.8 238.4 157.85 237.65 157.2 237.5 156.6 237.45 156.4 237.15 154.95 235.7 155.5 235.45 155.75 235.3 Q157.45 235.15 159.05 236.0 L159.85 236.55 161.75 238.75 161.0 240.55 169.25 240.55 169.55 239.45 Q170.15 237.25 170.2 237.75 L172.8 239.9 173.3 240.55 174.25 240.55 174.15 240.4 Q173.1 238.85 171.45 237.55 L170.65 237.0 168.3 237.25 168.25 237.25 167.55 237.25 166.25 236.9 Q163.95 237.4 163.4 237.65 L162.75 237.1 161.7 235.95 161.2 235.3 Q159.7 234.5 157.95 234.3 155.95 234.1 154.45 234.7 L153.8 235.05 152.95 234.85 152.05 234.75 150.7 234.75 149.4 234.85 147.6 235.05 145.0 235.5 140.6 236.65 137.3 237.8 135.25 238.45 135.85 236.8 136.65 235.65 Q137.65 234.8 139.2 234.6 L140.0 234.5 140.7 234.9 140.4 235.45 140.05 235.25 139.3 235.0 138.95 235.25 138.6 235.65 139.05 235.95 139.7 236.1 140.45 236.0 141.5 235.3 141.75 234.85 141.65 234.6 M86.85 234.05 Q85.25 234.2 84.25 234.85 83.5 235.3 83.55 235.8 L83.65 236.2 84.0 236.6 84.65 236.85 86.2 237.15 87.2 236.8 87.55 236.25 87.35 236.0 86.85 235.6 86.5 235.55 85.95 235.65 85.65 235.65 85.4 235.75 85.15 236.6 84.75 236.55 Q84.0 236.0 84.25 235.6 L85.35 234.8 85.65 234.8 87.95 234.65 88.75 234.85 89.0 234.9 Q90.05 235.45 89.95 236.25 L89.7 236.65 88.3 237.9 83.45 238.2 83.1 238.25 77.3 238.15 75.3 237.9 74.65 237.65 73.7 237.1 73.5 236.55 73.4 235.95 Q72.35 236.9 72.75 237.5 L73.7 239.25 74.05 239.7 74.4 239.95 75.4 240.45 75.55 240.5 94.55 240.5 93.15 239.8 92.8 239.55 Q92.5 239.25 92.55 239.0 L90.3 238.2 90.55 237.85 91.3 237.15 91.8 236.85 Q91.9 236.1 91.2 235.45 90.45 234.65 89.0 234.3 L86.85 234.05 M157.35 239.6 L157.1 239.9 Q155.6 239.85 154.8 239.25 154.0 238.65 153.6 237.7 L153.8 237.55 153.75 237.3 153.85 237.3 154.55 237.35 Q155.3 237.45 155.6 237.7 L155.8 237.9 155.8 238.15 155.65 238.4 155.75 238.65 157.35 239.6 M143.35 240.35 L145.9 240.35 145.85 240.35 145.1 240.2 143.55 240.25 143.35 240.35 M131.85 240.25 L132.4 240.25 132.85 240.05 132.95 239.75 132.65 239.5 132.15 239.5 Q131.85 239.55 131.7 239.7 L131.6 240.0 131.85 240.25 M133.9 240.3 L133.8 240.55 135.1 240.55 135.15 240.3 134.85 240.1 134.35 240.1 133.9 240.3 M101.05 236.7 Q100.75 235.55 101.9 234.95 L102.75 234.6 103.0 234.45 Q104.7 234.3 106.3 235.15 L107.1 235.7 109.0 237.9 107.85 240.5 116.25 240.5 116.8 238.6 Q117.4 236.4 117.45 236.9 L120.05 239.05 121.25 240.5 122.05 240.5 121.45 239.55 Q120.35 238.0 118.7 236.7 L117.9 236.15 115.55 236.4 115.5 236.4 114.8 236.4 113.55 236.05 110.65 236.8 110.0 236.25 108.95 235.1 108.45 234.45 Q106.95 233.65 105.2 233.45 L101.7 233.85 Q100.6 234.3 100.1 235.15 99.6 236.35 100.5 237.7 101.05 238.65 102.15 239.1 L103.0 239.4 104.1 239.55 104.95 239.35 Q105.75 239.05 106.35 238.6 L106.05 237.55 Q105.75 237.05 105.1 236.8 L104.45 236.65 103.35 236.6 103.1 236.85 Q103.0 237.05 103.05 237.3 L102.9 237.55 103.0 237.8 104.6 238.75 104.35 239.05 Q102.85 239.0 102.05 238.4 101.25 237.8 100.9 236.85 L101.05 236.7 M60.5 234.55 Q60.35 234.75 60.5 235.0 L60.95 235.4 61.65 235.5 62.1 235.25 62.1 234.85 61.65 234.45 60.95 234.3 Q60.6 234.35 60.5 234.55 M117.1 234.3 L117.8 234.4 118.3 234.2 118.3 233.75 Q118.15 233.5 117.8 233.35 L117.15 233.2 Q116.8 233.25 116.65 233.45 116.5 233.65 116.65 233.9 L117.1 234.3 M112.15 234.6 L111.7 234.2 111.0 234.05 Q110.65 234.1 110.55 234.3 110.4 234.5 110.55 234.75 L111.0 235.15 111.65 235.25 Q112.0 235.2 112.15 235.0 L112.15 234.6 M113.55 233.8 Q113.4 234.0 113.55 234.25 L114.0 234.65 114.7 234.75 Q115.0 234.7 115.15 234.5 L115.15 234.1 114.7 233.7 114.05 233.55 Q113.7 233.6 113.55 233.8 M94.55 239.1 L95.05 239.2 95.55 239.1 95.75 238.8 95.55 238.55 95.05 238.45 94.55 238.55 94.35 238.8 94.55 239.1 M93.5 238.15 L93.65 237.9 93.5 237.6 93.0 237.5 92.5 237.6 92.3 237.9 92.5 238.15 93.0 238.25 93.5 238.15 M96.95 240.2 L97.5 240.1 97.65 239.8 97.5 239.55 96.95 239.45 96.45 239.55 96.3 239.8 96.45 240.1 96.95 240.2 M55.2 233.7 L51.65 234.1 51.05 234.4 50.9 234.4 50.0 234.3 48.65 234.3 47.35 234.4 45.55 234.6 42.95 235.05 38.55 236.2 35.25 237.35 33.2 238.0 33.8 236.35 34.65 235.2 Q35.65 234.35 37.15 234.15 L37.95 234.05 38.7 234.45 38.35 235.0 Q38.2 234.85 38.05 234.8 L37.25 234.55 36.95 234.8 36.55 235.2 37.0 235.5 37.65 235.65 38.4 235.55 39.5 234.85 39.7 234.4 39.6 234.15 39.65 234.0 Q38.8 233.45 37.5 233.55 L36.5 233.6 35.4 234.05 34.55 234.65 33.45 235.8 Q32.6 236.75 32.35 237.75 L32.25 238.25 33.95 238.65 34.4 238.85 34.8 239.3 37.2 239.65 37.1 240.05 36.8 240.5 38.6 240.5 39.25 239.5 43.8 238.2 44.15 238.1 49.8 237.0 50.0 237.0 50.45 237.95 Q51.0 238.9 52.1 239.35 L53.0 239.65 54.05 239.8 54.95 239.6 56.3 238.85 56.05 237.8 55.1 237.05 54.55 236.9 54.35 236.7 52.9 235.2 52.55 234.95 52.7 234.85 52.95 234.7 Q54.7 234.55 56.3 235.4 L57.05 235.95 58.95 238.15 57.95 240.5 66.3 240.5 66.75 238.85 Q67.35 236.65 67.4 237.15 L70.0 239.3 71.0 240.5 71.85 240.5 71.4 239.8 Q70.3 238.25 68.7 236.95 L67.85 236.4 65.5 236.65 65.45 236.65 64.75 236.65 63.5 236.3 60.6 237.05 59.95 236.5 58.9 235.35 58.4 234.7 Q56.9 233.9 55.2 233.7 M42.7 240.15 L43.15 240.05 43.8 240.5 44.5 240.5 44.3 240.2 43.8 239.9 43.1 239.75 41.5 239.8 Q40.95 240.05 40.65 240.35 L40.55 240.5 42.7 240.5 42.7 240.15 M1.85 236.55 L1.35 236.45 0.85 236.55 0.65 236.85 0.85 237.1 1.35 237.2 1.85 237.1 2.0 236.85 1.85 236.55 M2.9 238.05 L3.4 238.15 3.9 238.05 4.1 237.75 3.9 237.5 3.4 237.4 2.9 237.5 2.7 237.75 2.9 238.05 M5.85 238.5 L5.35 238.4 4.85 238.5 4.65 238.75 4.85 239.05 5.35 239.15 5.85 239.05 6.0 238.75 5.85 238.5 M19.95 234.75 L19.5 234.35 18.8 234.2 Q18.45 234.25 18.35 234.45 18.2 234.65 18.35 234.9 L18.8 235.3 19.45 235.4 Q19.8 235.35 19.95 235.15 L19.95 234.75 M16.25 234.6 Q14.75 233.8 13.0 233.6 L9.5 234.0 Q8.4 234.45 7.9 235.3 7.4 236.5 8.3 237.85 8.85 238.8 9.9 239.25 L10.8 239.55 11.85 239.7 12.75 239.5 14.15 238.75 13.85 237.7 Q13.55 237.2 12.9 236.95 L12.25 236.8 11.15 236.75 10.9 237.0 Q10.8 237.2 10.85 237.45 L10.7 237.7 10.8 237.95 12.4 238.9 12.15 239.2 Q10.65 239.15 9.85 238.55 9.05 237.95 8.65 237.0 L8.8 236.85 Q8.55 235.7 9.7 235.1 L10.55 234.75 10.75 234.6 Q12.5 234.45 14.1 235.3 L14.9 235.85 16.8 238.05 15.7 240.5 24.1 240.5 24.6 238.75 Q25.2 236.55 25.25 237.05 L27.85 239.2 28.9 240.5 29.75 240.5 29.2 239.7 Q28.15 238.15 26.5 236.85 L25.7 236.3 23.35 236.55 23.3 236.55 22.6 236.55 21.3 236.2 18.4 236.95 17.8 236.4 16.7 235.25 16.25 234.6 M66.65 233.7 Q66.5 233.9 66.65 234.15 L67.1 234.55 67.75 234.65 68.25 234.45 68.25 234.0 67.75 233.6 67.1 233.45 Q66.75 233.5 66.65 233.7 M63.5 234.05 Q63.35 234.25 63.5 234.5 L63.95 234.9 64.65 235.0 65.1 234.75 65.1 234.35 64.65 233.95 64.0 233.8 Q63.65 233.85 63.5 234.05 M50.85 237.1 L51.0 236.95 51.0 236.85 51.8 236.85 52.55 236.9 53.15 237.05 53.05 237.1 53.0 237.55 52.9 237.8 53.0 238.05 54.6 239.0 54.35 239.3 Q52.8 239.25 52.05 238.65 51.2 238.05 50.85 237.1 M1.25 240.5 L2.35 240.5 2.8 239.95 3.0 239.5 1.5 238.75 1.15 238.5 Q0.85 238.2 0.9 237.95 L-1.35 237.15 -1.1 236.8 -0.35 236.1 0.15 235.8 Q0.25 235.05 -0.45 234.4 -1.2 233.6 -2.65 233.25 L-4.8 233.0 Q-6.4 233.15 -7.4 233.8 -8.15 234.25 -8.1 234.75 L-8.0 235.15 -7.65 235.55 -7.0 235.8 -5.45 236.1 -4.45 235.75 Q-4.05 235.5 -4.1 235.2 L-4.25 234.95 -4.8 234.55 -5.15 234.5 -5.7 234.6 -6.0 234.6 -6.25 234.7 -6.5 235.55 -6.9 235.5 Q-7.65 234.95 -7.4 234.55 -7.15 234.1 -6.3 233.75 L-6.0 233.75 -3.7 233.6 -2.9 233.8 -2.65 233.85 Q-1.6 234.4 -1.7 235.2 L-1.95 235.6 -3.35 236.85 -8.15 237.15 -8.55 237.2 -14.35 237.1 -16.35 236.85 -17.0 236.6 -17.95 236.05 -18.15 235.5 -18.25 234.9 Q-19.25 235.85 -18.85 236.45 L-17.95 238.2 -17.6 238.65 -17.25 238.9 -16.25 239.4 -15.45 239.65 -14.1 239.9 -12.85 240.15 -11.05 240.3 -8.4 240.4 -3.75 240.2 -0.2 239.75 2.0 239.55 1.25 240.5 M250.6 234.7 Q250.25 234.75 250.15 234.95 250.0 235.15 250.15 235.4 L250.6 235.8 251.3 235.9 251.75 235.65 251.75 235.25 251.3 234.85 250.6 234.7 M256.7 234.95 L257.4 235.05 257.9 234.85 257.9 234.4 Q257.75 234.15 257.4 234.0 L256.75 233.85 Q256.4 233.9 256.3 234.1 256.15 234.3 256.3 234.55 L256.7 234.95 M253.65 234.2 Q253.3 234.25 253.15 234.45 253.0 234.65 253.15 234.9 L253.6 235.3 254.3 235.4 254.75 235.15 254.75 234.75 254.3 234.35 253.65 234.2 M308.0 234.15 L308.45 234.55 309.1 234.65 309.6 234.45 309.6 234.0 309.15 233.6 308.5 233.45 Q308.15 233.5 308.0 233.7 307.85 233.9 308.0 234.15 M305.35 234.9 L306.05 235.0 306.5 234.75 306.5 234.35 306.05 233.95 305.4 233.8 Q305.05 233.85 304.9 234.05 L304.85 234.5 305.35 234.9 M284.75 239.2 L285.25 239.1 285.4 238.8 285.25 238.55 284.75 238.45 284.25 238.55 284.05 238.8 284.25 239.1 284.75 239.2 M303.5 234.85 L303.05 234.45 302.35 234.3 Q302.0 234.35 301.9 234.55 301.75 234.75 301.9 235.0 L302.35 235.4 303.0 235.5 303.5 235.25 303.5 234.85 M299.8 234.7 Q298.3 233.9 296.55 233.7 294.55 233.5 293.05 234.1 291.95 234.55 291.45 235.4 290.95 236.6 291.85 237.95 292.4 238.9 293.5 239.35 L294.35 239.65 295.45 239.8 296.3 239.6 297.7 238.85 297.4 237.8 296.45 237.05 295.8 236.9 294.7 236.85 294.45 237.1 Q294.35 237.3 294.4 237.55 L294.25 237.8 294.35 238.05 295.95 239.0 295.7 239.3 Q294.2 239.25 293.4 238.65 292.6 238.05 292.2 237.1 L292.4 236.95 Q292.1 235.8 293.25 235.2 L294.1 234.85 294.35 234.7 Q296.05 234.55 297.65 235.4 L298.45 235.95 300.35 238.15 299.3 240.55 307.65 240.55 308.15 238.85 Q308.75 236.65 308.8 237.15 L311.4 239.3 312.45 240.55 313.3 240.55 312.75 239.8 Q311.7 238.25 310.05 236.95 L309.25 236.4 306.9 236.65 306.85 236.65 306.15 236.65 304.85 236.3 302.0 237.05 301.35 236.5 300.3 235.35 299.8 234.7 M34.15 240.3 L34.05 240.5 35.4 240.5 35.4 240.35 35.15 240.1 34.6 240.1 Q34.3 240.15 34.15 240.3 M31.85 239.85 L31.75 240.15 32.05 240.35 32.55 240.35 33.0 240.15 33.1 239.85 32.85 239.65 32.35 239.65 31.85 239.85 M29.55 239.55 L29.85 239.8 30.4 239.8 30.8 239.6 30.9 239.3 30.65 239.05 30.15 239.05 Q29.85 239.1 29.7 239.25 L29.55 239.55 M24.45 233.6 Q24.3 233.8 24.45 234.05 L24.9 234.45 25.55 234.55 26.05 234.35 26.05 233.9 Q25.9 233.65 25.6 233.5 L24.95 233.35 Q24.6 233.4 24.45 233.6 M21.35 233.95 Q21.15 234.15 21.3 234.4 L21.8 234.8 22.5 234.9 Q22.8 234.85 22.9 234.65 L22.95 234.25 22.5 233.85 21.8 233.7 Q21.45 233.75 21.35 233.95 M244.85 234.1 Q242.8 233.9 241.3 234.5 240.8 234.7 240.4 235.0 L240.15 234.85 239.8 234.7 238.65 234.4 237.8 234.3 236.4 234.3 235.15 234.4 233.3 234.6 230.75 235.05 226.3 236.2 223.0 237.35 220.95 238.0 221.55 236.35 222.4 235.2 Q223.4 234.35 224.9 234.15 L225.7 234.05 226.45 234.45 226.15 235.0 225.8 234.8 225.05 234.55 Q224.8 234.65 224.7 234.8 L224.3 235.2 224.8 235.5 225.4 235.65 226.15 235.55 227.25 234.85 227.45 234.4 227.35 234.15 227.4 234.0 Q226.55 233.45 225.25 233.55 L224.25 233.6 223.15 234.05 Q222.65 234.3 222.3 234.65 L221.2 235.8 Q220.35 236.75 220.1 237.75 L220.0 238.25 221.7 238.65 222.15 238.85 222.55 239.3 224.95 239.65 224.85 240.05 224.55 240.55 226.3 240.55 227.0 239.5 231.55 238.2 231.9 238.1 237.55 237.0 239.55 236.85 Q239.6 237.55 240.1 238.35 240.65 239.3 241.75 239.75 L242.6 240.05 243.7 240.2 244.55 240.0 245.95 239.25 245.65 238.2 Q245.4 237.7 244.75 237.45 L244.05 237.3 242.95 237.25 242.7 237.5 242.65 237.95 242.55 238.2 242.6 238.45 244.25 239.4 244.0 239.7 Q242.45 239.65 241.7 239.05 240.85 238.45 240.5 237.5 L240.65 237.35 240.6 236.95 241.35 237.25 241.75 237.75 242.0 238.3 Q242.65 237.15 242.1 236.7 L241.2 235.8 241.5 235.6 242.35 235.25 242.6 235.1 Q244.35 234.95 245.95 235.8 L246.7 236.35 248.6 238.55 247.75 240.55 256.05 240.55 256.4 239.25 Q257.0 237.05 257.05 237.55 L259.65 239.7 260.35 240.55 261.3 240.55 261.05 240.2 Q259.95 238.65 258.35 237.35 L257.5 236.8 255.15 237.05 255.1 237.05 254.4 237.05 253.15 236.7 250.25 237.45 249.6 236.9 248.55 235.75 248.05 235.1 Q246.55 234.3 244.85 234.1 M210.85 234.1 L211.3 234.5 211.95 234.6 212.45 234.4 212.45 233.95 211.95 233.55 211.3 233.4 Q210.95 233.45 210.85 233.65 210.7 233.85 210.85 234.1 M208.15 234.85 L208.85 234.95 209.3 234.7 209.35 234.3 Q209.2 234.05 208.85 233.9 L208.2 233.75 Q207.85 233.8 207.7 234.0 207.55 234.2 207.7 234.45 L208.15 234.85 M204.7 234.5 Q204.55 234.7 204.7 234.95 L205.15 235.35 205.85 235.45 206.3 235.2 206.3 234.8 205.85 234.4 205.15 234.25 204.7 234.5 M281.45 236.9 L281.25 236.6 280.75 236.5 280.25 236.6 280.05 236.9 280.25 237.15 280.75 237.25 281.25 237.15 281.45 236.9 M282.8 237.45 L282.3 237.55 282.1 237.8 282.3 238.1 282.8 238.2 283.3 238.1 283.5 237.8 283.3 237.55 282.8 237.45 M262.4 236.65 L261.45 236.1 261.25 235.55 261.15 234.95 Q260.15 235.9 260.55 236.5 L261.45 238.25 261.8 238.7 262.15 238.95 263.15 239.45 263.95 239.7 265.3 239.95 266.55 240.2 268.35 240.35 271.0 240.45 275.65 240.25 279.2 239.8 281.4 239.6 280.65 240.55 281.75 240.55 282.2 240.0 282.4 239.55 280.9 238.8 280.55 238.55 Q280.25 238.25 280.3 238.0 L278.05 237.2 278.3 236.85 279.05 236.15 279.55 235.85 Q279.65 235.1 278.95 234.45 278.2 233.65 276.75 233.3 L274.6 233.05 Q273.0 233.2 272.0 233.85 271.25 234.3 271.3 234.8 L271.4 235.2 271.75 235.6 272.45 235.85 273.95 236.15 274.95 235.8 275.3 235.25 275.15 235.0 274.6 234.6 274.25 234.55 273.7 234.65 273.4 234.65 273.15 234.75 272.9 235.6 272.5 235.55 Q271.75 235.0 272.0 234.6 L273.1 233.8 273.4 233.8 275.7 233.65 276.5 233.85 276.75 233.9 Q277.8 234.45 277.7 235.25 L277.45 235.65 276.05 236.9 271.25 237.2 270.85 237.25 265.3 237.15 265.05 237.15 263.05 236.9 262.4 236.65 M211.6 237.1 L214.2 239.25 215.25 240.55 216.1 240.55 215.6 239.75 Q214.5 238.2 212.9 236.9 L212.05 236.35 209.7 236.6 209.65 236.6 208.95 236.6 207.7 236.25 204.8 237.0 204.15 236.45 203.1 235.3 202.6 234.65 Q201.1 233.85 199.4 233.65 L195.85 234.05 Q194.75 234.5 194.3 235.35 193.75 236.55 194.65 237.9 L194.7 238.0 194.55 238.05 194.3 238.35 194.55 238.6 195.0 238.7 195.3 238.65 Q195.7 239.05 196.3 239.3 L196.4 239.35 196.6 239.55 197.1 239.65 197.25 239.65 198.25 239.75 199.15 239.55 200.5 238.8 200.25 237.75 199.3 237.0 198.65 236.85 197.5 236.8 197.25 237.05 197.2 237.5 197.1 237.75 197.2 238.0 198.8 238.95 198.55 239.25 197.75 239.2 197.55 239.0 197.1 238.9 196.75 238.9 196.25 238.6 Q195.4 238.0 195.05 237.05 L195.2 236.9 Q194.9 235.75 196.1 235.15 L196.95 234.8 197.15 234.65 Q198.9 234.5 200.5 235.35 L201.25 235.9 203.15 238.1 202.1 240.55 210.45 240.55 210.95 238.8 Q211.55 236.6 211.6 237.1 M198.5 240.0 L198.3 240.25 198.5 240.55 198.55 240.55 199.45 240.55 199.5 240.55 199.7 240.25 199.5 240.0 199.0 239.9 198.5 240.0 M179.35 238.6 L177.3 238.35 176.65 238.1 175.75 237.55 175.55 237.0 175.45 236.4 Q174.4 237.35 174.8 237.95 L175.75 239.7 176.1 240.15 176.4 240.4 176.75 240.55 195.85 240.55 195.2 240.25 194.8 240.0 Q194.5 239.7 194.55 239.45 L192.35 238.65 192.6 238.3 193.35 237.6 193.8 237.3 Q193.9 236.55 193.25 235.9 192.45 235.1 191.05 234.75 L188.85 234.5 Q187.3 234.65 186.25 235.3 185.55 235.75 185.6 236.25 L185.7 236.65 186.05 237.05 186.7 237.3 188.25 237.6 189.2 237.25 189.55 236.7 189.4 236.45 188.85 236.05 188.5 236.0 187.95 236.1 187.65 236.1 187.4 236.2 187.15 237.05 186.75 237.0 Q186.0 236.45 186.3 236.05 186.5 235.6 187.4 235.25 L187.65 235.25 189.95 235.1 190.8 235.3 191.05 235.35 Q192.1 235.9 192.0 236.7 L191.75 237.1 190.3 238.35 185.5 238.65 185.1 238.7 179.35 238.6 M171.0 235.05 L171.0 234.6 170.55 234.2 169.9 234.05 Q169.55 234.1 169.4 234.3 169.25 234.5 169.4 234.75 L169.85 235.15 170.5 235.25 171.0 235.05 M164.45 235.05 L163.75 234.9 Q163.4 234.95 163.3 235.15 163.15 235.35 163.3 235.6 L163.75 236.0 164.4 236.1 164.9 235.85 164.9 235.45 164.45 235.05 M166.8 234.4 Q166.45 234.45 166.3 234.65 L166.25 235.1 166.75 235.5 167.45 235.6 167.9 235.35 167.9 234.95 167.45 234.55 166.8 234.4 M229.3 239.8 Q228.7 240.05 228.45 240.35 L228.25 240.55 230.5 240.55 230.45 240.15 230.9 240.05 231.6 240.55 232.25 240.55 232.05 240.2 231.6 239.9 230.85 239.75 229.3 239.8 M221.9 240.3 L221.8 240.55 223.1 240.55 223.15 240.35 222.9 240.1 222.35 240.1 221.9 240.3 M219.6 239.85 L219.5 240.15 219.8 240.35 220.3 240.35 220.75 240.15 220.9 239.85 220.6 239.65 220.1 239.65 Q219.75 239.7 219.6 239.85 M218.15 239.8 L218.6 239.6 218.65 239.3 218.4 239.05 217.9 239.05 Q217.6 239.1 217.45 239.25 L217.3 239.55 217.6 239.8 218.15 239.8 M-192.3 234.0 Q-193.9 234.15 -194.9 234.8 -195.65 235.25 -195.6 235.75 L-195.5 236.15 -195.15 236.55 -194.5 236.8 -192.95 237.1 -191.95 236.75 Q-191.55 236.5 -191.6 236.2 L-191.8 235.95 -192.3 235.55 -192.65 235.5 -193.2 235.6 -193.5 235.6 -193.75 235.7 -194.0 236.55 -194.4 236.5 Q-195.15 235.95 -194.9 235.55 -194.65 235.1 -193.8 234.75 L-193.5 234.75 -191.2 234.6 -190.4 234.8 -190.15 234.85 Q-189.1 235.4 -189.2 236.2 L-189.45 236.6 -190.85 237.85 -195.7 238.15 -196.05 238.2 -201.85 238.1 -203.85 237.85 -204.5 237.6 -205.45 237.05 -205.65 236.5 -205.75 235.9 Q-206.8 236.85 -206.4 237.45 L-205.45 239.2 -205.1 239.65 -204.75 239.9 -203.75 240.4 -203.25 240.55 -186.0 240.55 -185.5 240.55 -184.55 240.55 -184.5 240.5 -186.0 239.75 -186.35 239.5 -186.6 238.95 -188.85 238.15 -188.6 237.8 -187.85 237.1 -187.35 236.8 Q-187.25 236.05 -187.95 235.4 -188.7 234.6 -190.15 234.25 L-192.3 234.0 M-183.2 235.85 Q-181.5 235.7 -179.9 236.55 -179.4 236.8 -179.1 237.1 L-177.2 239.3 -177.7 240.55 -169.55 240.55 -169.4 240.0 -168.75 238.3 -166.15 240.45 -166.05 240.55 -165.05 240.55 Q-166.05 239.2 -167.5 238.1 L-168.3 237.55 -170.65 237.8 -170.7 237.8 -171.4 237.8 -172.65 237.45 -175.55 238.2 -176.2 237.65 -177.25 236.5 -177.75 235.85 Q-179.25 235.05 -181.0 234.85 L-184.5 235.25 Q-185.6 235.7 -186.1 236.55 L-186.25 237.45 -186.65 237.55 -186.85 237.85 -186.65 238.1 -186.15 238.2 -185.7 239.1 Q-185.15 240.05 -184.05 240.5 L-183.9 240.55 -180.8 240.55 -179.85 240.0 -180.15 238.95 Q-180.45 238.45 -181.1 238.2 L-181.75 238.05 -182.85 238.0 -183.1 238.25 -183.15 238.7 -183.3 238.95 -183.2 239.2 -182.7 239.5 -182.85 239.75 -182.7 240.05 -182.2 240.15 -181.75 240.05 -181.6 240.15 -181.85 240.45 Q-183.35 240.4 -184.15 239.8 -184.95 239.2 -185.3 238.25 L-185.15 238.1 Q-185.45 236.95 -184.3 236.35 L-183.45 236.0 -183.2 235.85 M-172.65 235.2 L-172.65 235.65 -172.2 236.05 -171.5 236.15 Q-171.2 236.1 -171.05 235.9 -170.9 235.7 -171.05 235.5 L-171.5 235.1 -172.15 234.95 Q-172.5 235.0 -172.65 235.2 M-174.05 236.4 L-174.05 236.0 Q-174.2 235.75 -174.5 235.6 L-175.2 235.45 Q-175.55 235.5 -175.65 235.7 L-175.65 236.15 -175.2 236.55 -174.55 236.65 Q-174.2 236.6 -174.05 236.4 M-168.4 234.75 L-169.05 234.6 Q-169.4 234.65 -169.55 234.85 L-169.55 235.3 -169.1 235.7 -168.4 235.8 -167.9 235.6 -167.9 235.15 -168.4 234.75 M-184.1 239.15 L-183.6 239.05 -183.4 238.75 -183.6 238.5 -184.1 238.4 -184.6 238.5 -184.8 238.75 -184.6 239.05 -184.1 239.15 M-162.8 238.2 L-162.5 238.3 -161.1 238.6 -160.7 238.8 Q-160.3 239.0 -160.25 239.25 L-157.85 239.6 -158.0 240.0 -158.3 240.55 -156.55 240.55 -155.8 239.45 -151.25 238.15 -150.9 238.05 -145.25 236.95 -143.6 236.8 -143.15 237.75 Q-142.6 238.7 -141.5 239.15 L-140.65 239.45 -139.55 239.6 -138.7 239.4 -137.3 238.65 -137.6 237.6 Q-137.9 237.1 -138.55 236.85 L-139.2 236.7 -140.3 236.65 -140.5 236.85 -140.7 236.65 -142.1 235.25 -141.75 235.0 -140.9 234.65 -140.65 234.5 Q-138.95 234.35 -137.35 235.2 L-136.55 235.75 -134.65 237.95 -135.8 240.55 -127.4 240.55 -126.85 238.65 Q-126.25 236.45 -126.2 236.95 L-123.6 239.1 -122.4 240.55 -121.6 240.55 -122.2 239.6 Q-123.3 238.05 -124.95 236.75 L-125.75 236.2 -128.1 236.45 -128.15 236.45 -128.85 236.45 -130.1 236.1 -133.0 236.85 -133.65 236.3 -134.7 235.15 -135.2 234.5 Q-136.7 233.7 -138.45 233.5 L-141.95 233.9 Q-142.65 234.2 -143.1 234.6 L-144.15 234.35 -145.05 234.25 -146.4 234.25 -147.7 234.35 -149.5 234.55 -152.1 235.0 -156.5 236.15 -159.8 237.3 -161.85 237.95 -161.25 236.3 -160.45 235.15 Q-159.45 234.3 -157.9 234.1 L-157.1 234.0 -156.35 234.4 -156.7 234.95 Q-156.85 234.8 -157.05 234.75 L-157.8 234.5 -158.15 234.75 -158.5 235.15 -158.05 235.45 -157.4 235.6 -156.65 235.5 -155.6 234.8 -155.35 234.35 -155.45 234.1 -155.4 233.95 Q-156.25 233.4 -157.55 233.5 L-158.55 233.55 -159.65 234.0 -160.5 234.6 -161.6 235.75 -162.5 237.05 -162.75 237.7 -162.8 238.2 M-162.5 239.55 L-162.75 239.6 -163.2 239.8 -163.3 240.1 -163.0 240.3 -162.5 240.3 -162.05 240.1 -161.95 239.8 -162.2 239.6 -162.5 239.55 M-165.35 239.2 L-165.5 239.5 -165.2 239.75 -164.7 239.75 -164.25 239.55 -164.15 239.25 -164.45 239.0 -164.95 239.0 -165.35 239.2 M-229.15 234.25 L-230.5 234.25 -231.8 234.35 -233.6 234.55 -236.2 235.0 -240.6 236.15 -243.9 237.3 -245.95 237.95 -245.35 236.3 -244.5 235.15 Q-243.5 234.3 -242.0 234.1 L-241.2 234.0 -240.45 234.4 -240.8 234.95 -241.1 234.75 -241.9 234.5 -242.2 234.75 -242.6 235.15 -242.15 235.45 -241.5 235.6 -240.75 235.5 Q-240.05 235.2 -239.65 234.8 L-239.45 234.35 -239.55 234.1 -239.5 233.95 Q-240.35 233.4 -241.65 233.5 L-242.65 233.55 -243.75 234.0 -244.6 234.6 -245.7 235.75 Q-246.55 236.7 -246.8 237.7 L-246.9 238.2 -245.2 238.6 Q-244.95 238.65 -244.75 238.8 -244.4 239.0 -244.35 239.25 L-241.95 239.6 -242.05 240.0 -242.4 240.55 -240.65 240.55 -239.9 239.45 -235.35 238.15 -235.0 238.05 -229.35 236.95 -228.7 236.9 -228.3 237.7 Q-227.75 238.65 -226.7 239.1 L-225.8 239.4 -224.75 239.55 -223.85 239.35 -222.45 238.6 -222.75 237.55 Q-223.05 237.05 -223.7 236.8 L-224.35 236.65 -224.8 236.6 -226.25 235.15 -226.6 234.85 -226.05 234.6 -225.85 234.45 Q-224.1 234.3 -222.5 235.15 L-221.7 235.7 -219.8 237.9 -221.0 240.55 -212.6 240.55 -212.0 238.6 Q-211.4 236.4 -211.35 236.9 L-208.75 239.05 -207.5 240.55 -206.7 240.55 -207.4 239.55 Q-208.45 238.0 -210.1 236.7 L-210.9 236.15 -213.25 236.4 -213.3 236.4 -214.05 236.4 -215.3 236.05 -218.2 236.8 -218.8 236.25 -219.9 235.1 -220.35 234.45 Q-221.85 233.65 -223.6 233.45 L-227.1 233.85 -228.05 234.4 -228.25 234.35 -229.15 234.25 M-215.25 233.8 L-215.3 234.25 -214.8 234.65 -214.1 234.75 -213.7 234.5 -213.65 234.1 Q-213.8 233.85 -214.1 233.7 L-214.8 233.55 Q-215.15 233.6 -215.25 233.8 M-218.25 234.3 L-218.25 234.75 -217.8 235.15 -217.15 235.25 Q-216.8 235.2 -216.65 235.0 L-216.65 234.6 -217.1 234.2 -217.8 234.05 Q-218.15 234.1 -218.25 234.3 M-212.15 233.9 L-211.7 234.3 -211.05 234.4 -210.55 234.2 Q-210.4 233.95 -210.55 233.75 L-211.0 233.35 -211.65 233.2 Q-212.0 233.25 -212.15 233.45 L-212.15 233.9 M-226.6 236.85 L-225.75 237.1 -225.75 237.3 -225.9 237.55 -225.8 237.8 -224.2 238.75 -224.45 239.05 Q-225.95 239.0 -226.75 238.4 -227.55 237.8 -227.95 236.85 L-227.85 236.8 -227.35 236.8 -226.6 236.85 M-236.45 240.1 L-236.0 240.0 -235.25 240.55 -234.6 240.55 -234.65 240.5 -234.85 240.15 Q-235.05 239.95 -235.35 239.85 L-236.05 239.7 -237.65 239.75 -238.5 240.3 -238.65 240.55 -236.4 240.55 -236.45 240.1 M-268.6 235.05 Q-269.1 236.25 -268.2 237.6 -267.65 238.55 -266.6 239.0 L-265.7 239.3 -264.65 239.45 -263.75 239.25 Q-262.95 238.95 -262.35 238.5 L-262.65 237.45 Q-262.95 236.95 -263.6 236.7 L-264.25 236.55 -265.35 236.5 -265.6 236.75 -265.65 237.2 -265.8 237.45 -265.7 237.7 -264.1 238.65 -264.35 238.95 Q-265.85 238.9 -266.65 238.3 -267.45 237.7 -267.85 236.75 L-267.7 236.6 Q-268.0 235.45 -266.8 234.85 L-265.95 234.5 -265.75 234.35 Q-264.0 234.2 -262.4 235.05 L-261.6 235.6 -259.7 237.8 -260.95 240.55 -252.5 240.55 -251.9 238.5 Q-251.3 236.3 -251.25 236.8 L-248.65 239.0 -249.0 239.0 Q-249.3 239.05 -249.45 239.2 L-249.6 239.5 -249.3 239.75 -248.75 239.75 -248.35 239.55 -248.25 239.45 -247.35 240.55 -246.55 240.55 -246.7 240.35 -246.6 240.3 -246.15 240.1 -246.05 239.8 Q-246.1 239.65 -246.3 239.6 L-246.8 239.6 -247.15 239.7 -247.3 239.45 Q-248.35 237.9 -250.0 236.6 L-250.8 236.05 -253.2 236.3 -253.95 236.3 -255.2 235.95 -258.1 236.7 -258.7 236.15 -259.8 235.0 -260.25 234.35 Q-261.75 233.55 -263.5 233.35 -265.5 233.15 -267.0 233.75 -268.1 234.2 -268.6 235.05 M-66.6 233.35 L-66.6 233.8 -66.15 234.2 -65.5 234.3 -65.0 234.1 -65.0 233.65 -65.5 233.25 -66.15 233.1 -66.6 233.35 M-69.3 234.55 L-68.6 234.65 Q-68.3 234.6 -68.15 234.4 -68.0 234.2 -68.15 234.0 -68.25 233.75 -68.6 233.6 L-69.25 233.45 Q-69.6 233.5 -69.75 233.7 L-69.75 234.15 -69.3 234.55 M-37.15 237.45 L-37.25 237.7 -37.15 237.95 -35.55 238.9 -35.8 239.2 Q-37.35 239.15 -38.1 238.55 -38.95 237.95 -39.3 237.0 L-39.15 236.85 -39.2 236.35 -39.1 236.35 Q-38.4 236.45 -38.05 236.7 L-37.65 237.2 -37.4 237.75 -37.15 237.2 -37.15 237.45 M-31.7 234.6 Q-33.2 233.8 -34.95 233.6 L-38.5 234.0 -39.15 234.35 -39.25 234.3 Q-39.4 234.15 -39.6 234.15 L-40.75 233.85 -41.65 233.75 -43.0 233.75 -44.25 233.85 -46.1 234.05 -48.7 234.5 -53.1 235.65 -56.4 236.8 -58.45 237.45 -57.85 235.8 -57.0 234.65 Q-56.0 233.8 -54.5 233.6 L-53.7 233.5 -52.95 233.9 -53.25 234.45 Q-53.4 234.3 -53.6 234.25 L-54.35 234.0 -54.7 234.25 -55.1 234.65 -54.6 234.95 -54.0 235.1 -53.25 235.0 Q-52.55 234.7 -52.15 234.3 L-51.95 233.85 -52.05 233.6 -52.0 233.45 Q-52.85 232.9 -54.15 233.0 L-55.15 233.05 -56.25 233.5 -57.1 234.1 -58.2 235.25 Q-59.05 236.2 -59.3 237.2 L-59.4 237.7 -57.7 238.1 -57.25 238.3 -56.85 238.75 -54.45 239.1 -54.55 239.5 -55.05 240.3 -55.25 240.5 -53.4 240.5 -53.35 240.45 -52.4 238.95 -47.85 237.65 -47.5 237.55 -41.85 236.45 -40.25 236.3 -39.7 237.85 Q-39.1 238.8 -38.05 239.25 L-37.15 239.55 -36.1 239.7 -35.2 239.5 -33.8 238.75 -34.1 237.7 Q-34.4 237.2 -35.05 236.95 L-35.7 236.8 -36.8 236.75 -37.05 237.0 Q-36.95 236.4 -37.3 236.15 L-38.3 235.15 -38.25 235.1 -37.4 234.75 -37.2 234.6 Q-35.45 234.45 -33.85 235.3 L-33.05 235.85 -31.2 238.05 -32.25 240.5 -23.9 240.5 -23.35 238.75 Q-22.75 236.55 -22.7 237.05 L-20.15 239.2 -19.05 240.5 -18.2 240.5 -18.75 239.7 Q-19.8 238.15 -21.45 236.85 L-22.25 236.3 -24.65 236.55 -25.4 236.55 -26.65 236.2 -29.55 236.95 -30.15 236.4 -31.25 235.25 -31.7 234.6 M-23.5 233.6 L-23.5 234.05 -23.05 234.45 -22.4 234.55 -21.9 234.35 Q-21.75 234.1 -21.9 233.9 L-22.35 233.5 -23.05 233.35 Q-23.35 233.4 -23.5 233.6 M-25.5 233.85 L-26.15 233.7 -26.6 233.95 Q-26.8 234.15 -26.65 234.4 L-26.15 234.8 -25.5 234.9 -25.05 234.65 -25.0 234.25 -25.5 233.85 M-28.05 234.75 L-28.45 234.35 -29.15 234.2 Q-29.5 234.25 -29.65 234.45 L-29.65 234.9 -29.15 235.3 -28.5 235.4 Q-28.2 235.35 -28.05 235.15 -27.9 234.95 -28.05 234.75 M-244.55 240.05 L-245.0 240.25 -245.1 240.55 -243.85 240.55 -243.75 240.3 Q-243.8 240.1 -244.0 240.05 L-244.55 240.05 M-254.05 233.6 Q-254.4 233.4 -254.7 233.45 -255.05 233.5 -255.15 233.7 -255.35 233.9 -255.2 234.15 L-254.7 234.55 -254.05 234.65 Q-253.75 234.6 -253.6 234.4 -253.45 234.2 -253.55 234.0 L-254.05 233.6 M-258.2 234.2 L-258.2 234.65 -257.7 235.05 -257.05 235.15 Q-256.7 235.1 -256.55 234.9 L-256.55 234.5 -257.0 234.1 -257.7 233.95 Q-258.05 234.0 -258.2 234.2 M-251.6 234.2 L-250.95 234.3 -250.45 234.1 Q-250.3 233.85 -250.45 233.65 -250.6 233.4 -250.9 233.25 L-251.55 233.1 Q-251.9 233.15 -252.05 233.35 L-252.05 233.8 -251.6 234.2 M-76.95 235.05 Q-76.45 235.3 -76.2 235.6 L-74.3 237.8 -75.5 240.5 -67.05 240.5 -66.5 238.5 Q-65.9 236.3 -65.85 236.8 L-63.25 238.95 -61.95 240.5 -61.15 240.5 -61.85 239.45 Q-62.95 237.9 -64.55 236.6 L-65.4 236.05 -67.75 236.3 -67.8 236.3 -68.5 236.3 -69.75 235.95 -72.65 236.7 -73.3 236.15 -74.35 235.0 -74.85 234.35 Q-76.35 233.55 -78.05 233.35 L-81.6 233.75 Q-82.7 234.2 -83.15 235.05 -83.7 236.25 -82.8 237.6 -82.25 238.55 -81.15 239.0 L-80.25 239.3 -79.2 239.45 -78.3 239.25 Q-77.55 238.95 -76.95 238.5 -76.95 237.9 -77.2 237.45 -77.5 236.95 -78.15 236.7 L-78.85 236.55 -79.95 236.5 -80.2 236.75 -80.25 237.2 -80.35 237.45 -80.25 237.7 -78.65 238.65 -78.9 238.95 Q-80.45 238.9 -81.2 238.3 -82.05 237.7 -82.4 236.75 L-82.25 236.6 Q-82.55 235.45 -81.35 234.85 L-80.5 234.5 -80.3 234.35 Q-78.55 234.2 -76.95 235.05 M-57.05 239.55 L-57.5 239.75 -57.6 240.05 -57.3 240.3 -56.8 240.3 -56.35 240.1 -56.25 239.8 Q-56.3 239.6 -56.5 239.55 L-57.05 239.55 M-58.65 239.6 L-58.55 239.3 -58.8 239.1 -59.3 239.1 Q-59.65 239.15 -59.8 239.3 L-59.9 239.6 -59.6 239.8 -59.1 239.8 -58.65 239.6 M-51.15 240.4 L-51.05 240.5 -49.0 240.5 -48.9 240.4 -48.95 239.6 -48.5 239.5 Q-47.65 239.85 -47.75 240.35 L-47.8 240.5 -47.15 240.5 -47.15 240.0 -47.35 239.65 Q-47.55 239.45 -47.85 239.35 L-48.55 239.2 -50.1 239.25 Q-50.7 239.5 -50.95 239.8 -51.3 240.1 -51.15 240.4 M-61.0 238.5 L-61.5 238.5 -61.95 238.7 -62.1 239.0 -61.8 239.25 -61.25 239.25 -60.8 239.05 -60.75 238.75 Q-60.8 238.55 -61.0 238.5 M-72.75 234.65 L-72.3 235.05 -71.6 235.15 Q-71.3 235.1 -71.15 234.9 -71.0 234.7 -71.15 234.5 L-71.6 234.1 -72.3 233.95 Q-72.65 234.0 -72.75 234.2 L-72.75 234.65 M-109.4 234.75 L-107.1 234.6 -106.3 234.8 -106.05 234.85 Q-105.0 235.4 -105.1 236.2 L-105.35 236.6 -106.75 237.85 -111.6 238.15 -111.95 238.2 -117.75 238.1 -119.75 237.85 -120.45 237.6 -121.35 237.05 -121.55 236.5 -121.65 235.9 Q-122.7 236.85 -122.3 237.45 L-121.35 239.2 -121.0 239.65 -120.7 239.9 -119.7 240.4 -119.15 240.55 -101.9 240.55 -101.4 240.55 -100.45 240.55 -100.4 240.5 -101.9 239.75 -102.0 239.7 -100.9 239.85 -100.05 239.65 -98.65 238.9 -98.95 237.85 Q-99.25 237.35 -99.9 237.1 L-100.55 236.95 -101.65 236.9 -101.9 237.15 -101.95 237.45 -102.1 237.45 -102.55 237.55 -102.75 237.85 -102.55 238.1 -102.1 238.2 -101.85 238.2 -100.65 238.9 -100.5 239.05 -100.4 239.1 -100.65 239.35 -102.5 238.95 -102.95 238.7 Q-103.7 238.15 -104.05 237.35 L-103.75 237.1 -103.3 236.8 Q-103.2 236.2 -103.6 235.65 L-103.1 235.25 -102.25 234.9 -102.0 234.75 Q-100.3 234.6 -98.7 235.45 L-97.9 236.0 -96.0 238.2 -97.0 240.55 -88.7 240.55 -88.2 238.9 -87.55 237.2 -84.95 239.35 -84.0 240.5 -83.15 240.5 -83.6 239.85 Q-84.65 238.3 -86.3 237.0 L-87.1 236.45 -89.45 236.7 -89.5 236.7 -90.2 236.7 -91.5 236.35 -94.35 237.1 -95.0 236.55 -96.05 235.4 -96.55 234.75 Q-98.05 233.95 -99.8 233.75 L-103.3 234.15 -104.45 234.9 Q-105.1 234.45 -106.05 234.25 L-108.2 234.0 Q-109.8 234.15 -110.85 234.8 -111.55 235.25 -111.5 235.75 L-111.4 236.15 -111.05 236.55 -110.4 236.8 -108.85 237.1 -107.85 236.75 Q-107.45 236.5 -107.55 236.2 L-107.7 235.95 -108.2 235.55 -108.55 235.5 -109.15 235.6 -109.4 235.6 -109.65 235.7 -109.9 236.55 -110.35 236.5 Q-111.1 235.95 -110.8 235.55 L-109.7 234.75 -109.4 234.75 M-127.0 233.5 L-127.0 233.95 -126.55 234.35 -125.85 234.45 -125.35 234.25 -125.35 233.8 -125.85 233.4 -126.5 233.25 Q-126.85 233.3 -127.0 233.5 M-130.1 233.85 L-130.1 234.3 -129.65 234.7 -128.95 234.8 -128.5 234.55 Q-128.35 234.35 -128.5 234.15 L-128.95 233.75 -129.6 233.6 Q-129.95 233.65 -130.1 233.85 M-131.5 235.05 L-131.5 234.65 -131.95 234.25 -132.65 234.1 -133.1 234.35 -133.1 234.8 -132.65 235.2 -132.0 235.3 -131.5 235.05 M-142.75 236.9 L-142.7 236.8 -142.5 236.85 Q-141.8 236.95 -141.5 237.2 L-141.1 237.7 -140.8 238.25 -140.6 237.9 -139.05 238.8 -139.3 239.1 Q-140.8 239.05 -141.6 238.45 -142.4 237.85 -142.75 236.9 M-161.0 240.55 L-159.75 240.55 -159.65 240.3 -159.95 240.05 -160.45 240.05 -160.9 240.25 -161.0 240.55 M-152.3 240.55 L-152.35 240.1 -151.95 240.0 Q-151.35 240.25 -151.2 240.55 L-150.5 240.55 -150.55 240.5 -150.75 240.15 -151.25 239.85 -151.95 239.7 -153.55 239.75 -154.4 240.3 -154.6 240.55 -152.3 240.55 M-98.1 240.15 L-97.6 240.05 -97.4 239.75 -97.6 239.5 -98.1 239.4 -98.6 239.5 -98.8 239.75 -98.6 240.05 -98.1 240.15 M-92.85 234.9 Q-93.0 234.65 -93.3 234.5 L-94.0 234.35 Q-94.35 234.4 -94.45 234.6 L-94.45 235.05 -94.0 235.45 -93.35 235.55 Q-93.0 235.5 -92.85 235.3 L-92.85 234.9 M-87.85 233.5 Q-88.2 233.55 -88.35 233.75 L-88.35 234.2 -87.9 234.6 -87.25 234.7 -86.7 234.5 -86.7 234.05 Q-86.85 233.8 -87.2 233.65 L-87.85 233.5 M-89.85 234.8 Q-89.7 234.6 -89.85 234.4 L-90.3 234.0 -90.95 233.85 Q-91.3 233.9 -91.45 234.1 L-91.5 234.55 -91.0 234.95 -90.3 235.05 -89.85 234.8 M-104.6 237.9 L-104.5 238.0 -104.35 238.25 -104.75 238.15 -104.6 237.9" fill="url(#gradient0)" fill-rule="evenodd" stroke="none"/>
    <path d="M141.65 234.6 L141.75 234.85 141.5 235.3 140.45 236.0 139.7 236.1 139.05 235.95 138.6 235.65 138.95 235.25 139.3 235.0 140.05 235.25 140.4 235.45 140.7 234.9 140.0 234.5 139.2 234.6 Q137.65 234.8 136.65 235.65 L135.85 236.8 135.25 238.45 137.3 237.8 140.6 236.65 145.0 235.5 147.6 235.05 149.4 234.85 150.7 234.75 152.05 234.75 152.95 234.85 153.8 235.05 154.45 234.7 Q155.95 234.1 157.95 234.3 159.7 234.5 161.2 235.3 L161.7 235.95 162.75 237.1 163.4 237.65 Q163.95 237.4 166.25 236.9 L167.55 237.25 168.25 237.25 168.3 237.25 170.65 237.0 171.45 237.55 Q173.1 238.85 174.15 240.4 L174.25 240.55 173.3 240.55 172.8 239.9 170.2 237.75 Q170.15 237.25 169.55 239.45 L169.25 240.55 161.0 240.55 161.75 238.75 159.85 236.55 159.05 236.0 Q157.45 235.15 155.75 235.3 L155.5 235.45 154.95 235.7 156.4 237.15 156.6 237.45 157.2 237.5 157.85 237.65 158.8 238.4 159.1 239.45 157.7 240.2 156.85 240.4 155.75 240.25 154.9 239.95 Q153.8 239.5 153.25 238.55 152.8 237.95 152.7 237.35 L151.85 237.45 146.2 238.55 145.8 238.65 141.3 239.95 140.9 240.55 139.1 240.55 139.1 240.5 139.25 240.1 136.8 239.75 136.4 239.3 135.95 239.1 134.25 238.7 134.35 238.2 Q134.6 237.2 135.5 236.25 L136.6 235.1 Q136.9 234.75 137.45 234.5 L138.5 234.05 139.5 234.0 Q140.85 233.9 141.7 234.45 L141.65 234.6 M133.9 240.3 L134.35 240.1 134.85 240.1 135.15 240.3 135.1 240.55 133.8 240.55 133.9 240.3 M131.85 240.25 L131.6 240.0 131.7 239.7 Q131.85 239.55 132.15 239.5 L132.65 239.5 132.95 239.75 132.85 240.05 132.4 240.25 131.85 240.25 M143.35 240.35 L143.55 240.25 145.1 240.2 145.85 240.35 145.9 240.35 143.35 240.35 M157.35 239.6 L155.75 238.65 155.65 238.4 155.8 238.15 155.8 237.9 155.6 237.7 Q155.3 237.45 154.55 237.35 L153.85 237.3 153.75 237.3 153.8 237.55 153.6 237.7 Q154.0 238.65 154.8 239.25 155.6 239.85 157.1 239.9 L157.35 239.6 M86.85 234.05 L89.0 234.3 Q90.45 234.65 91.2 235.45 91.9 236.1 91.8 236.85 L91.3 237.15 90.55 237.85 90.3 238.2 92.55 239.0 Q92.5 239.25 92.8 239.55 L93.15 239.8 94.55 240.5 75.55 240.5 75.4 240.45 74.4 239.95 74.05 239.7 73.7 239.25 72.75 237.5 Q72.35 236.9 73.4 235.95 L73.5 236.55 73.7 237.1 74.65 237.65 75.3 237.9 77.3 238.15 83.1 238.25 83.45 238.2 88.3 237.9 89.7 236.65 89.95 236.25 Q90.05 235.45 89.0 234.9 L88.75 234.85 87.95 234.65 85.65 234.8 85.35 234.8 84.25 235.6 Q84.0 236.0 84.75 236.55 L85.15 236.6 85.4 235.75 85.65 235.65 85.95 235.65 86.5 235.55 86.85 235.6 87.35 236.0 87.55 236.25 87.2 236.8 86.2 237.15 84.65 236.85 84.0 236.6 83.65 236.2 83.55 235.8 Q83.5 235.3 84.25 234.85 85.25 234.2 86.85 234.05 M101.05 236.7 L100.9 236.85 Q101.25 237.8 102.05 238.4 102.85 239.0 104.35 239.05 L104.6 238.75 103.0 237.8 102.9 237.55 103.05 237.3 Q103.0 237.05 103.1 236.85 L103.35 236.6 104.45 236.65 105.1 236.8 Q105.75 237.05 106.05 237.55 L106.35 238.6 Q105.75 239.05 104.95 239.35 L104.1 239.55 103.0 239.4 102.15 239.1 Q101.05 238.65 100.5 237.7 99.6 236.35 100.1 235.15 100.6 234.3 101.7 233.85 L105.2 233.45 Q106.95 233.65 108.45 234.45 L108.95 235.1 110.0 236.25 110.65 236.8 113.55 236.05 114.8 236.4 115.5 236.4 115.55 236.4 117.9 236.15 118.7 236.7 Q120.35 238.0 121.45 239.55 L122.05 240.5 121.25 240.5 120.05 239.05 117.45 236.9 Q117.4 236.4 116.8 238.6 L116.25 240.5 107.85 240.5 109.0 237.9 107.1 235.7 106.3 235.15 Q104.7 234.3 103.0 234.45 L102.75 234.6 101.9 234.95 Q100.75 235.55 101.05 236.7 M96.95 240.2 L96.45 240.1 96.3 239.8 96.45 239.55 96.95 239.45 97.5 239.55 97.65 239.8 97.5 240.1 96.95 240.2 M93.5 238.15 L93.0 238.25 92.5 238.15 92.3 237.9 92.5 237.6 93.0 237.5 93.5 237.6 93.65 237.9 93.5 238.15 M94.55 239.1 L94.35 238.8 94.55 238.55 95.05 238.45 95.55 238.55 95.75 238.8 95.55 239.1 95.05 239.2 94.55 239.1 M113.55 233.8 Q113.7 233.6 114.05 233.55 L114.7 233.7 115.15 234.1 115.15 234.5 Q115.0 234.7 114.7 234.75 L114.0 234.65 113.55 234.25 Q113.4 234.0 113.55 233.8 M112.15 234.6 L112.15 235.0 Q112.0 235.2 111.65 235.25 L111.0 235.15 110.55 234.75 Q110.4 234.5 110.55 234.3 110.65 234.1 111.0 234.05 L111.7 234.2 112.15 234.6 M117.1 234.3 L116.65 233.9 Q116.5 233.65 116.65 233.45 116.8 233.25 117.15 233.2 L117.8 233.35 Q118.15 233.5 118.3 233.75 L118.3 234.2 117.8 234.4 117.1 234.3 M60.5 234.55 Q60.6 234.35 60.95 234.3 L61.65 234.45 62.1 234.85 62.1 235.25 61.65 235.5 60.95 235.4 60.5 235.0 Q60.35 234.75 60.5 234.55 M42.7 240.15 L42.7 240.5 40.55 240.5 40.65 240.35 Q40.95 240.05 41.5 239.8 L43.1 239.75 43.8 239.9 44.3 240.2 44.5 240.5 43.8 240.5 43.15 240.05 42.7 240.15 M55.2 233.7 Q56.9 233.9 58.4 234.7 L58.9 235.35 59.95 236.5 60.6 237.05 63.5 236.3 64.75 236.65 65.45 236.65 65.5 236.65 67.85 236.4 68.7 236.95 Q70.3 238.25 71.4 239.8 L71.85 240.5 71.0 240.5 70.0 239.3 67.4 237.15 Q67.35 236.65 66.75 238.85 L66.3 240.5 57.95 240.5 58.95 238.15 57.05 235.95 56.3 235.4 Q54.7 234.55 52.95 234.7 L52.7 234.85 52.55 234.95 52.9 235.2 54.35 236.7 54.55 236.9 55.1 237.05 56.05 237.8 56.3 238.85 54.95 239.6 54.05 239.8 53.0 239.65 52.1 239.35 Q51.0 238.9 50.45 237.95 L50.0 237.0 49.8 237.0 44.15 238.1 43.8 238.2 39.25 239.5 38.6 240.5 36.8 240.5 37.1 240.05 37.2 239.65 34.8 239.3 34.4 238.85 33.95 238.65 32.25 238.25 32.35 237.75 Q32.6 236.75 33.45 235.8 L34.55 234.65 35.4 234.05 36.5 233.6 37.5 233.55 Q38.8 233.45 39.65 234.0 L39.6 234.15 39.7 234.4 39.5 234.85 38.4 235.55 37.65 235.65 37.0 235.5 36.55 235.2 36.95 234.8 37.25 234.55 38.05 234.8 Q38.2 234.85 38.35 235.0 L38.7 234.45 37.95 234.05 37.15 234.15 Q35.65 234.35 34.65 235.2 L33.8 236.35 33.2 238.0 35.25 237.35 38.55 236.2 42.95 235.05 45.55 234.6 47.35 234.4 48.65 234.3 50.0 234.3 50.9 234.4 51.05 234.4 51.65 234.1 55.2 233.7 M50.85 237.1 Q51.2 238.05 52.05 238.65 52.8 239.25 54.35 239.3 L54.6 239.0 53.0 238.05 52.9 237.8 53.0 237.55 53.05 237.1 53.15 237.05 52.55 236.9 51.8 236.85 51.0 236.85 51.0 236.95 50.85 237.1 M63.5 234.05 Q63.65 233.85 64.0 233.8 L64.65 233.95 65.1 234.35 65.1 234.75 64.65 235.0 63.95 234.9 63.5 234.5 Q63.35 234.25 63.5 234.05 M66.65 233.7 Q66.75 233.5 67.1 233.45 L67.75 233.6 68.25 234.0 68.25 234.45 67.75 234.65 67.1 234.55 66.65 234.15 Q66.5 233.9 66.65 233.7 M16.25 234.6 L16.7 235.25 17.8 236.4 18.4 236.95 21.3 236.2 22.6 236.55 23.3 236.55 23.35 236.55 25.7 236.3 26.5 236.85 Q28.15 238.15 29.2 239.7 L29.75 240.5 28.9 240.5 27.85 239.2 25.25 237.05 Q25.2 236.55 24.6 238.75 L24.1 240.5 15.7 240.5 16.8 238.05 14.9 235.85 14.1 235.3 Q12.5 234.45 10.75 234.6 L10.55 234.75 9.7 235.1 Q8.55 235.7 8.8 236.85 L8.65 237.0 Q9.05 237.95 9.85 238.55 10.65 239.15 12.15 239.2 L12.4 238.9 10.8 237.95 10.7 237.7 10.85 237.45 Q10.8 237.2 10.9 237.0 L11.15 236.75 12.25 236.8 12.9 236.95 Q13.55 237.2 13.85 237.7 L14.15 238.75 12.75 239.5 11.85 239.7 10.8 239.55 9.9 239.25 Q8.85 238.8 8.3 237.85 7.4 236.5 7.9 235.3 8.4 234.45 9.5 234.0 L13.0 233.6 Q14.75 233.8 16.25 234.6 M19.95 234.75 L19.95 235.15 Q19.8 235.35 19.45 235.4 L18.8 235.3 18.35 234.9 Q18.2 234.65 18.35 234.45 18.45 234.25 18.8 234.2 L19.5 234.35 19.95 234.75 M5.85 238.5 L6.0 238.75 5.85 239.05 5.35 239.15 4.85 239.05 4.65 238.75 4.85 238.5 5.35 238.4 5.85 238.5 M2.9 238.05 L2.7 237.75 2.9 237.5 3.4 237.4 3.9 237.5 4.1 237.75 3.9 238.05 3.4 238.15 2.9 238.05 M1.85 236.55 L2.0 236.85 1.85 237.1 1.35 237.2 0.85 237.1 0.65 236.85 0.85 236.55 1.35 236.45 1.85 236.55 M1.25 240.5 L2.0 239.55 -0.2 239.75 -3.75 240.2 -8.4 240.4 -11.05 240.3 -12.85 240.15 -14.1 239.9 -15.45 239.65 -16.25 239.4 -17.25 238.9 -17.6 238.65 -17.95 238.2 -18.85 236.45 Q-19.25 235.85 -18.25 234.9 L-18.15 235.5 -17.95 236.05 -17.0 236.6 -16.35 236.85 -14.35 237.1 -8.55 237.2 -8.15 237.15 -3.35 236.85 -1.95 235.6 -1.7 235.2 Q-1.6 234.4 -2.65 233.85 L-2.9 233.8 -3.7 233.6 -6.0 233.75 -6.3 233.75 Q-7.15 234.1 -7.4 234.55 -7.65 234.95 -6.9 235.5 L-6.5 235.55 -6.25 234.7 -6.0 234.6 -5.7 234.6 -5.15 234.5 -4.8 234.55 -4.25 234.95 -4.1 235.2 Q-4.05 235.5 -4.45 235.75 L-5.45 236.1 -7.0 235.8 -7.65 235.55 -8.0 235.15 -8.1 234.75 Q-8.15 234.25 -7.4 233.8 -6.4 233.15 -4.8 233.0 L-2.65 233.25 Q-1.2 233.6 -0.45 234.4 0.25 235.05 0.15 235.8 L-0.35 236.1 -1.1 236.8 -1.35 237.15 0.9 237.95 Q0.85 238.2 1.15 238.5 L1.5 238.75 3.0 239.5 2.8 239.95 2.35 240.5 1.25 240.5 M21.35 233.95 Q21.45 233.75 21.8 233.7 L22.5 233.85 22.95 234.25 22.9 234.65 Q22.8 234.85 22.5 234.9 L21.8 234.8 21.3 234.4 Q21.15 234.15 21.35 233.95 M24.45 233.6 Q24.6 233.4 24.95 233.35 L25.6 233.5 Q25.9 233.65 26.05 233.9 L26.05 234.35 25.55 234.55 24.9 234.45 24.45 234.05 Q24.3 233.8 24.45 233.6 M29.55 239.55 L29.7 239.25 Q29.85 239.1 30.15 239.05 L30.65 239.05 30.9 239.3 30.8 239.6 30.4 239.8 29.85 239.8 29.55 239.55 M31.85 239.85 L32.35 239.65 32.85 239.65 33.1 239.85 33.0 240.15 32.55 240.35 32.05 240.35 31.75 240.15 31.85 239.85 M34.15 240.3 Q34.3 240.15 34.6 240.1 L35.15 240.1 35.4 240.35 35.4 240.5 34.05 240.5 34.15 240.3 M299.8 234.7 L300.3 235.35 301.35 236.5 302.0 237.05 304.85 236.3 306.15 236.65 306.85 236.65 306.9 236.65 309.25 236.4 310.05 236.95 Q311.7 238.25 312.75 239.8 L313.3 240.55 312.45 240.55 311.4 239.3 308.8 237.15 Q308.75 236.65 308.15 238.85 L307.65 240.55 299.3 240.55 300.35 238.15 298.45 235.95 297.65 235.4 Q296.05 234.55 294.35 234.7 L294.1 234.85 293.25 235.2 Q292.1 235.8 292.4 236.95 L292.2 237.1 Q292.6 238.05 293.4 238.65 294.2 239.25 295.7 239.3 L295.95 239.0 294.35 238.05 294.25 237.8 294.4 237.55 Q294.35 237.3 294.45 237.1 L294.7 236.85 295.8 236.9 296.45 237.05 297.4 237.8 297.7 238.85 296.3 239.6 295.45 239.8 294.35 239.65 293.5 239.35 Q292.4 238.9 291.85 237.95 290.95 236.6 291.45 235.4 291.95 234.55 293.05 234.1 294.55 233.5 296.55 233.7 298.3 233.9 299.8 234.7 M303.5 234.85 L303.5 235.25 303.0 235.5 302.35 235.4 301.9 235.0 Q301.75 234.75 301.9 234.55 302.0 234.35 302.35 234.3 L303.05 234.45 303.5 234.85 M284.75 239.2 L284.25 239.1 284.05 238.8 284.25 238.55 284.75 238.45 285.25 238.55 285.4 238.8 285.25 239.1 284.75 239.2 M305.35 234.9 L304.85 234.5 304.9 234.05 Q305.05 233.85 305.4 233.8 L306.05 233.95 306.5 234.35 306.5 234.75 306.05 235.0 305.35 234.9 M308.0 234.15 Q307.85 233.9 308.0 233.7 308.15 233.5 308.5 233.45 L309.15 233.6 309.6 234.0 309.6 234.45 309.1 234.65 308.45 234.55 308.0 234.15 M253.65 234.2 L254.3 234.35 254.75 234.75 254.75 235.15 254.3 235.4 253.6 235.3 253.15 234.9 Q253.0 234.65 253.15 234.45 253.3 234.25 253.65 234.2 M256.7 234.95 L256.3 234.55 Q256.15 234.3 256.3 234.1 256.4 233.9 256.75 233.85 L257.4 234.0 Q257.75 234.15 257.9 234.4 L257.9 234.85 257.4 235.05 256.7 234.95 M250.6 234.7 L251.3 234.85 251.75 235.25 251.75 235.65 251.3 235.9 250.6 235.8 250.15 235.4 Q250.0 235.15 250.15 234.95 250.25 234.75 250.6 234.7 M244.85 234.1 Q246.55 234.3 248.05 235.1 L248.55 235.75 249.6 236.9 250.25 237.45 253.15 236.7 254.4 237.05 255.1 237.05 255.15 237.05 257.5 236.8 258.35 237.35 Q259.95 238.65 261.05 240.2 L261.3 240.55 260.35 240.55 259.65 239.7 257.05 237.55 Q257.0 237.05 256.4 239.25 L256.05 240.55 247.75 240.55 248.6 238.55 246.7 236.35 245.95 235.8 Q244.35 234.95 242.6 235.1 L242.35 235.25 241.5 235.6 241.2 235.8 242.1 236.7 Q242.65 237.15 242.0 238.3 L241.75 237.75 241.35 237.25 240.6 236.95 240.65 237.35 240.5 237.5 Q240.85 238.45 241.7 239.05 242.45 239.65 244.0 239.7 L244.25 239.4 242.6 238.45 242.55 238.2 242.65 237.95 242.7 237.5 242.95 237.25 244.05 237.3 244.75 237.45 Q245.4 237.7 245.65 238.2 L245.95 239.25 244.55 240.0 243.7 240.2 242.6 240.05 241.75 239.75 Q240.65 239.3 240.1 238.35 239.6 237.55 239.55 236.85 L237.55 237.0 231.9 238.1 231.55 238.2 227.0 239.5 226.3 240.55 224.55 240.55 224.85 240.05 224.95 239.65 222.55 239.3 222.15 238.85 221.7 238.65 220.0 238.25 220.1 237.75 Q220.35 236.75 221.2 235.8 L222.3 234.65 Q222.65 234.3 223.15 234.05 L224.25 233.6 225.25 233.55 Q226.55 233.45 227.4 234.0 L227.35 234.15 227.45 234.4 227.25 234.85 226.15 235.55 225.4 235.65 224.8 235.5 224.3 235.2 224.7 234.8 Q224.8 234.65 225.05 234.55 L225.8 234.8 226.15 235.0 226.45 234.45 225.7 234.05 224.9 234.15 Q223.4 234.35 222.4 235.2 L221.55 236.35 220.95 238.0 223.0 237.35 226.3 236.2 230.75 235.05 233.3 234.6 235.15 234.4 236.4 234.3 237.8 234.3 238.65 234.4 239.8 234.7 240.15 234.85 240.4 235.0 Q240.8 234.7 241.3 234.5 242.8 233.9 244.85 234.1 M262.4 236.65 L263.05 236.9 265.05 237.15 265.3 237.15 270.85 237.25 271.25 237.2 276.05 236.9 277.45 235.65 277.7 235.25 Q277.8 234.45 276.75 233.9 L276.5 233.85 275.7 233.65 273.4 233.8 273.1 233.8 272.0 234.6 Q271.75 235.0 272.5 235.55 L272.9 235.6 273.15 234.75 273.4 234.65 273.7 234.65 274.25 234.55 274.6 234.6 275.15 235.0 275.3 235.25 274.95 235.8 273.95 236.15 272.45 235.85 271.75 235.6 271.4 235.2 271.3 234.8 Q271.25 234.3 272.0 233.85 273.0 233.2 274.6 233.05 L276.75 233.3 Q278.2 233.65 278.95 234.45 279.65 235.1 279.55 235.85 L279.05 236.15 278.3 236.85 278.05 237.2 280.3 238.0 Q280.25 238.25 280.55 238.55 L280.9 238.8 282.4 239.55 282.2 240.0 281.75 240.55 280.65 240.55 281.4 239.6 279.2 239.8 275.65 240.25 271.0 240.45 268.35 240.35 266.55 240.2 265.3 239.95 263.95 239.7 263.15 239.45 262.15 238.95 261.8 238.7 261.45 238.25 260.55 236.5 Q260.15 235.9 261.15 234.95 L261.25 235.55 261.45 236.1 262.4 236.65 M282.8 237.45 L283.3 237.55 283.5 237.8 283.3 238.1 282.8 238.2 282.3 238.1 282.1 237.8 282.3 237.55 282.8 237.45 M281.45 236.9 L281.25 237.15 280.75 237.25 280.25 237.15 280.05 236.9 280.25 236.6 280.75 236.5 281.25 236.6 281.45 236.9 M204.7 234.5 L205.15 234.25 205.85 234.4 206.3 234.8 206.3 235.2 205.85 235.45 205.15 235.35 204.7 234.95 Q204.55 234.7 204.7 234.5 M208.15 234.85 L207.7 234.45 Q207.55 234.2 207.7 234.0 207.85 233.8 208.2 233.75 L208.85 233.9 Q209.2 234.05 209.35 234.3 L209.3 234.7 208.85 234.95 208.15 234.85 M210.85 234.1 Q210.7 233.85 210.85 233.65 210.95 233.45 211.3 233.4 L211.95 233.55 212.45 233.95 212.45 234.4 211.95 234.6 211.3 234.5 210.85 234.1 M211.6 237.1 Q211.55 236.6 210.95 238.8 L210.45 240.55 202.1 240.55 203.15 238.1 201.25 235.9 200.5 235.35 Q198.9 234.5 197.15 234.65 L196.95 234.8 196.1 235.15 Q194.9 235.75 195.2 236.9 L195.05 237.05 Q195.4 238.0 196.25 238.6 L196.75 238.9 197.1 238.9 197.55 239.0 197.75 239.2 198.55 239.25 198.8 238.95 197.2 238.0 197.1 237.75 197.2 237.5 197.25 237.05 197.5 236.8 198.65 236.85 199.3 237.0 200.25 237.75 200.5 238.8 199.15 239.55 198.25 239.75 197.25 239.65 197.1 239.65 196.6 239.55 196.4 239.35 196.3 239.3 Q195.7 239.05 195.3 238.65 L195.0 238.7 194.55 238.6 194.3 238.35 194.55 238.05 194.7 238.0 194.65 237.9 Q193.75 236.55 194.3 235.35 194.75 234.5 195.85 234.05 L199.4 233.65 Q201.1 233.85 202.6 234.65 L203.1 235.3 204.15 236.45 204.8 237.0 207.7 236.25 208.95 236.6 209.65 236.6 209.7 236.6 212.05 236.35 212.9 236.9 Q214.5 238.2 215.6 239.75 L216.1 240.55 215.25 240.55 214.2 239.25 211.6 237.1 M218.15 239.8 L217.6 239.8 217.3 239.55 217.45 239.25 Q217.6 239.1 217.9 239.05 L218.4 239.05 218.65 239.3 218.6 239.6 218.15 239.8 M219.6 239.85 Q219.75 239.7 220.1 239.65 L220.6 239.65 220.9 239.85 220.75 240.15 220.3 240.35 219.8 240.35 219.5 240.15 219.6 239.85 M221.9 240.3 L222.35 240.1 222.9 240.1 223.15 240.35 223.1 240.55 221.8 240.55 221.9 240.3 M229.3 239.8 L230.85 239.75 231.6 239.9 232.05 240.2 232.25 240.55 231.6 240.55 230.9 240.05 230.45 240.15 230.5 240.55 228.25 240.55 228.45 240.35 Q228.7 240.05 229.3 239.8 M166.8 234.4 L167.45 234.55 167.9 234.95 167.9 235.35 167.45 235.6 166.75 235.5 166.25 235.1 166.3 234.65 Q166.45 234.45 166.8 234.4 M164.45 235.05 L164.9 235.45 164.9 235.85 164.4 236.1 163.75 236.0 163.3 235.6 Q163.15 235.35 163.3 235.15 163.4 234.95 163.75 234.9 L164.45 235.05 M171.0 235.05 L170.5 235.25 169.85 235.15 169.4 234.75 Q169.25 234.5 169.4 234.3 169.55 234.1 169.9 234.05 L170.55 234.2 171.0 234.6 171.0 235.05 M179.35 238.6 L185.1 238.7 185.5 238.65 190.3 238.35 191.75 237.1 192.0 236.7 Q192.1 235.9 191.05 235.35 L190.8 235.3 189.95 235.1 187.65 235.25 187.4 235.25 Q186.5 235.6 186.3 236.05 186.0 236.45 186.75 237.0 L187.15 237.05 187.4 236.2 187.65 236.1 187.95 236.1 188.5 236.0 188.85 236.05 189.4 236.45 189.55 236.7 189.2 237.25 188.25 237.6 186.7 237.3 186.05 237.05 185.7 236.65 185.6 236.25 Q185.55 235.75 186.25 235.3 187.3 234.65 188.85 234.5 L191.05 234.75 Q192.45 235.1 193.25 235.9 193.9 236.55 193.8 237.3 L193.35 237.6 192.6 238.3 192.35 238.65 194.55 239.45 Q194.5 239.7 194.8 240.0 L195.2 240.25 195.85 240.55 176.75 240.55 176.4 240.4 176.1 240.15 175.75 239.7 174.8 237.95 Q174.4 237.35 175.45 236.4 L175.55 237.0 175.75 237.55 176.65 238.1 177.3 238.35 179.35 238.6 M198.5 240.0 L199.0 239.9 199.5 240.0 199.7 240.25 199.5 240.55 199.45 240.55 198.55 240.55 198.5 240.55 198.3 240.25 198.5 240.0 M-183.2 235.85 L-183.45 236.0 -184.3 236.35 Q-185.45 236.95 -185.15 238.1 L-185.3 238.25 Q-184.95 239.2 -184.15 239.8 -183.35 240.4 -181.85 240.45 L-181.6 240.15 -181.75 240.05 -182.2 240.15 -182.7 240.05 -182.85 239.75 -182.7 239.5 -183.2 239.2 -183.3 238.95 -183.15 238.7 -183.1 238.25 -182.85 238.0 -181.75 238.05 -181.1 238.2 Q-180.45 238.45 -180.15 238.95 L-179.85 240.0 -180.8 240.55 -183.9 240.55 -184.05 240.5 Q-185.15 240.05 -185.7 239.1 L-186.15 238.2 -186.65 238.1 -186.85 237.85 -186.65 237.55 -186.25 237.45 -186.1 236.55 Q-185.6 235.7 -184.5 235.25 L-181.0 234.85 Q-179.25 235.05 -177.75 235.85 L-177.25 236.5 -176.2 237.65 -175.55 238.2 -172.65 237.45 -171.4 237.8 -170.7 237.8 -170.65 237.8 -168.3 237.55 -167.5 238.1 Q-166.05 239.2 -165.05 240.55 L-166.05 240.55 -166.15 240.45 -168.75 238.3 -169.4 240.0 -169.55 240.55 -177.7 240.55 -177.2 239.3 -179.1 237.1 Q-179.4 236.8 -179.9 236.55 -181.5 235.7 -183.2 235.85 M-192.3 234.0 L-190.15 234.25 Q-188.7 234.6 -187.95 235.4 -187.25 236.05 -187.35 236.8 L-187.85 237.1 -188.6 237.8 -188.85 238.15 -186.6 238.95 -186.35 239.5 -186.0 239.75 -184.5 240.5 -184.55 240.55 -185.5 240.55 -186.0 240.55 -203.25 240.55 -203.75 240.4 -204.75 239.9 -205.1 239.65 -205.45 239.2 -206.4 237.45 Q-206.8 236.85 -205.75 235.9 L-205.65 236.5 -205.45 237.05 -204.5 237.6 -203.85 237.85 -201.85 238.1 -196.05 238.2 -195.7 238.15 -190.85 237.85 -189.45 236.6 -189.2 236.2 Q-189.1 235.4 -190.15 234.85 L-190.4 234.8 -191.2 234.6 -193.5 234.75 -193.8 234.75 Q-194.65 235.1 -194.9 235.55 -195.15 235.95 -194.4 236.5 L-194.0 236.55 -193.75 235.7 -193.5 235.6 -193.2 235.6 -192.65 235.5 -192.3 235.55 -191.8 235.95 -191.6 236.2 Q-191.55 236.5 -191.95 236.75 L-192.95 237.1 -194.5 236.8 -195.15 236.55 -195.5 236.15 -195.6 235.75 Q-195.65 235.25 -194.9 234.8 -193.9 234.15 -192.3 234.0 M-184.1 239.15 L-184.6 239.05 -184.8 238.75 -184.6 238.5 -184.1 238.4 -183.6 238.5 -183.4 238.75 -183.6 239.05 -184.1 239.15 M-168.4 234.75 L-167.9 235.15 -167.9 235.6 -168.4 235.8 -169.1 235.7 -169.55 235.3 -169.55 234.85 Q-169.4 234.65 -169.05 234.6 L-168.4 234.75 M-174.05 236.4 Q-174.2 236.6 -174.55 236.65 L-175.2 236.55 -175.65 236.15 -175.65 235.7 Q-175.55 235.5 -175.2 235.45 L-174.5 235.6 Q-174.2 235.75 -174.05 236.0 L-174.05 236.4 M-172.65 235.2 Q-172.5 235.0 -172.15 234.95 L-171.5 235.1 -171.05 235.5 Q-170.9 235.7 -171.05 235.9 -171.2 236.1 -171.5 236.15 L-172.2 236.05 -172.65 235.65 -172.65 235.2 M-162.8 238.2 L-162.75 237.7 -162.5 237.05 -161.6 235.75 -160.5 234.6 -159.65 234.0 -158.55 233.55 -157.55 233.5 Q-156.25 233.4 -155.4 233.95 L-155.45 234.1 -155.35 234.35 -155.6 234.8 -156.65 235.5 -157.4 235.6 -158.05 235.45 -158.5 235.15 -158.15 234.75 -157.8 234.5 -157.05 234.75 Q-156.85 234.8 -156.7 234.95 L-156.35 234.4 -157.1 234.0 -157.9 234.1 Q-159.45 234.3 -160.45 235.15 L-161.25 236.3 -161.85 237.95 -159.8 237.3 -156.5 236.15 -152.1 235.0 -149.5 234.55 -147.7 234.35 -146.4 234.25 -145.05 234.25 -144.15 234.35 -143.1 234.6 Q-142.65 234.2 -141.95 233.9 L-138.45 233.5 Q-136.7 233.7 -135.2 234.5 L-134.7 235.15 -133.65 236.3 -133.0 236.85 -130.1 236.1 -128.85 236.45 -128.15 236.45 -128.1 236.45 -125.75 236.2 -124.95 236.75 Q-123.3 238.05 -122.2 239.6 L-121.6 240.55 -122.4 240.55 -123.6 239.1 -126.2 236.95 Q-126.25 236.45 -126.85 238.65 L-127.4 240.55 -135.8 240.55 -134.65 237.95 -136.55 235.75 -137.35 235.2 Q-138.95 234.35 -140.65 234.5 L-140.9 234.65 -141.75 235.0 -142.1 235.25 -140.7 236.65 -140.5 236.85 -140.3 236.65 -139.2 236.7 -138.55 236.85 Q-137.9 237.1 -137.6 237.6 L-137.3 238.65 -138.7 239.4 -139.55 239.6 -140.65 239.45 -141.5 239.15 Q-142.6 238.7 -143.15 237.75 L-143.6 236.8 -145.25 236.95 -150.9 238.05 -151.25 238.15 -155.8 239.45 -156.55 240.55 -158.3 240.55 -158.0 240.0 -157.85 239.6 -160.25 239.25 Q-160.3 239.0 -160.7 238.8 L-161.1 238.6 -162.5 238.3 -162.8 238.2 M-165.35 239.2 L-164.95 239.0 -164.45 239.0 -164.15 239.25 -164.25 239.55 -164.7 239.75 -165.2 239.75 -165.5 239.5 -165.35 239.2 M-162.5 239.55 L-162.2 239.6 -161.95 239.8 -162.05 240.1 -162.5 240.3 -163.0 240.3 -163.3 240.1 -163.2 239.8 -162.75 239.6 -162.5 239.55 M-229.15 234.25 L-228.25 234.35 -228.05 234.4 -227.1 233.85 -223.6 233.45 Q-221.85 233.65 -220.35 234.45 L-219.9 235.1 -218.8 236.25 -218.2 236.8 -215.3 236.05 -214.05 236.4 -213.3 236.4 -213.25 236.4 -210.9 236.15 -210.1 236.7 Q-208.45 238.0 -207.4 239.55 L-206.7 240.55 -207.5 240.55 -208.75 239.05 -211.35 236.9 Q-211.4 236.4 -212.0 238.6 L-212.6 240.55 -221.0 240.55 -219.8 237.9 -221.7 235.7 -222.5 235.15 Q-224.1 234.3 -225.85 234.45 L-226.05 234.6 -226.6 234.85 -226.25 235.15 -224.8 236.6 -224.35 236.65 -223.7 236.8 Q-223.05 237.05 -222.75 237.55 L-222.45 238.6 -223.85 239.35 -224.75 239.55 -225.8 239.4 -226.7 239.1 Q-227.75 238.65 -228.3 237.7 L-228.7 236.9 -229.35 236.95 -235.0 238.05 -235.35 238.15 -239.9 239.45 -240.65 240.55 -242.4 240.55 -242.05 240.0 -241.95 239.6 -244.35 239.25 Q-244.4 239.0 -244.75 238.8 -244.95 238.65 -245.2 238.6 L-246.9 238.2 -246.8 237.7 Q-246.55 236.7 -245.7 235.75 L-244.6 234.6 -243.75 234.0 -242.65 233.55 -241.65 233.5 Q-240.35 233.4 -239.5 233.95 L-239.55 234.1 -239.45 234.35 -239.65 234.8 Q-240.05 235.2 -240.75 235.5 L-241.5 235.6 -242.15 235.45 -242.6 235.15 -242.2 234.75 -241.9 234.5 -241.1 234.75 -240.8 234.95 -240.45 234.4 -241.2 234.0 -242.0 234.1 Q-243.5 234.3 -244.5 235.15 L-245.35 236.3 -245.95 237.95 -243.9 237.3 -240.6 236.15 -236.2 235.0 -233.6 234.55 -231.8 234.35 -230.5 234.25 -229.15 234.25 M-236.45 240.1 L-236.4 240.55 -238.65 240.55 -238.5 240.3 -237.65 239.75 -236.05 239.7 -235.35 239.85 Q-235.05 239.95 -234.85 240.15 L-234.65 240.5 -234.6 240.55 -235.25 240.55 -236.0 240.0 -236.45 240.1 M-226.6 236.85 L-227.35 236.8 -227.85 236.8 -227.95 236.85 Q-227.55 237.8 -226.75 238.4 -225.95 239.0 -224.45 239.05 L-224.2 238.75 -225.8 237.8 -225.9 237.55 -225.75 237.3 -225.75 237.1 -226.6 236.85 M-212.15 233.9 L-212.15 233.45 Q-212.0 233.25 -211.65 233.2 L-211.0 233.35 -210.55 233.75 Q-210.4 233.95 -210.55 234.2 L-211.05 234.4 -211.7 234.3 -212.15 233.9 M-218.25 234.3 Q-218.15 234.1 -217.8 234.05 L-217.1 234.2 -216.65 234.6 -216.65 235.0 Q-216.8 235.2 -217.15 235.25 L-217.8 235.15 -218.25 234.75 -218.25 234.3 M-215.25 233.8 Q-215.15 233.6 -214.8 233.55 L-214.1 233.7 Q-213.8 233.85 -213.65 234.1 L-213.7 234.5 -214.1 234.75 -214.8 234.65 -215.3 234.25 -215.25 233.8 M-268.6 235.05 Q-268.1 234.2 -267.0 233.75 -265.5 233.15 -263.5 233.35 -261.75 233.55 -260.25 234.35 L-259.8 235.0 -258.7 236.15 -258.1 236.7 -255.2 235.95 -253.95 236.3 -253.2 236.3 -250.8 236.05 -250.0 236.6 Q-248.35 237.9 -247.3 239.45 L-247.15 239.7 -246.8 239.6 -246.3 239.6 Q-246.1 239.65 -246.05 239.8 L-246.15 240.1 -246.6 240.3 -246.7 240.35 -246.55 240.55 -247.35 240.55 -248.25 239.45 -248.35 239.55 -248.75 239.75 -249.3 239.75 -249.6 239.5 -249.45 239.2 Q-249.3 239.05 -249.0 239.0 L-248.65 239.0 -251.25 236.8 Q-251.3 236.3 -251.9 238.5 L-252.5 240.55 -260.95 240.55 -259.7 237.8 -261.6 235.6 -262.4 235.05 Q-264.0 234.2 -265.75 234.35 L-265.95 234.5 -266.8 234.85 Q-268.0 235.45 -267.7 236.6 L-267.85 236.75 Q-267.45 237.7 -266.65 238.3 -265.85 238.9 -264.35 238.95 L-264.1 238.65 -265.7 237.7 -265.8 237.45 -265.65 237.2 -265.6 236.75 -265.35 236.5 -264.25 236.55 -263.6 236.7 Q-262.95 236.95 -262.65 237.45 L-262.35 238.5 Q-262.95 238.95 -263.75 239.25 L-264.65 239.45 -265.7 239.3 -266.6 239.0 Q-267.65 238.55 -268.2 237.6 -269.1 236.25 -268.6 235.05 M-251.6 234.2 L-252.05 233.8 -252.05 233.35 Q-251.9 233.15 -251.55 233.1 L-250.9 233.25 Q-250.6 233.4 -250.45 233.65 -250.3 233.85 -250.45 234.1 L-250.95 234.3 -251.6 234.2 M-258.2 234.2 Q-258.05 234.0 -257.7 233.95 L-257.0 234.1 -256.55 234.5 -256.55 234.9 Q-256.7 235.1 -257.05 235.15 L-257.7 235.05 -258.2 234.65 -258.2 234.2 M-254.05 233.6 L-253.55 234.0 Q-253.45 234.2 -253.6 234.4 -253.75 234.6 -254.05 234.65 L-254.7 234.55 -255.2 234.15 Q-255.35 233.9 -255.15 233.7 -255.05 233.5 -254.7 233.45 -254.4 233.4 -254.05 233.6 M-244.55 240.05 L-244.0 240.05 Q-243.8 240.1 -243.75 240.3 L-243.85 240.55 -245.1 240.55 -245.0 240.25 -244.55 240.05 M-28.05 234.75 Q-27.9 234.95 -28.05 235.15 -28.2 235.35 -28.5 235.4 L-29.15 235.3 -29.65 234.9 -29.65 234.45 Q-29.5 234.25 -29.15 234.2 L-28.45 234.35 -28.05 234.75 M-25.5 233.85 L-25.0 234.25 -25.05 234.65 -25.5 234.9 -26.15 234.8 -26.65 234.4 Q-26.8 234.15 -26.6 233.95 L-26.15 233.7 -25.5 233.85 M-23.5 233.6 Q-23.35 233.4 -23.05 233.35 L-22.35 233.5 -21.9 233.9 Q-21.75 234.1 -21.9 234.35 L-22.4 234.55 -23.05 234.45 -23.5 234.05 -23.5 233.6 M-31.7 234.6 L-31.25 235.25 -30.15 236.4 -29.55 236.95 -26.65 236.2 -25.4 236.55 -24.65 236.55 -22.25 236.3 -21.45 236.85 Q-19.8 238.15 -18.75 239.7 L-18.2 240.5 -19.05 240.5 -20.15 239.2 -22.7 237.05 Q-22.75 236.55 -23.35 238.75 L-23.9 240.5 -32.25 240.5 -31.2 238.05 -33.05 235.85 -33.85 235.3 Q-35.45 234.45 -37.2 234.6 L-37.4 234.75 -38.25 235.1 -38.3 235.15 -37.3 236.15 Q-36.95 236.4 -37.05 237.0 L-36.8 236.75 -35.7 236.8 -35.05 236.95 Q-34.4 237.2 -34.1 237.7 L-33.8 238.75 -35.2 239.5 -36.1 239.7 -37.15 239.55 -38.05 239.25 Q-39.1 238.8 -39.7 237.85 L-40.25 236.3 -41.85 236.45 -47.5 237.55 -47.85 237.65 -52.4 238.95 -53.35 240.45 -53.4 240.5 -55.25 240.5 -55.05 240.3 -54.55 239.5 -54.45 239.1 -56.85 238.75 -57.25 238.3 -57.7 238.1 -59.4 237.7 -59.3 237.2 Q-59.05 236.2 -58.2 235.25 L-57.1 234.1 -56.25 233.5 -55.15 233.05 -54.15 233.0 Q-52.85 232.9 -52.0 233.45 L-52.05 233.6 -51.95 233.85 -52.15 234.3 Q-52.55 234.7 -53.25 235.0 L-54.0 235.1 -54.6 234.95 -55.1 234.65 -54.7 234.25 -54.35 234.0 -53.6 234.25 Q-53.4 234.3 -53.25 234.45 L-52.95 233.9 -53.7 233.5 -54.5 233.6 Q-56.0 233.8 -57.0 234.65 L-57.85 235.8 -58.45 237.45 -56.4 236.8 -53.1 235.65 -48.7 234.5 -46.1 234.05 -44.25 233.85 -43.0 233.75 -41.65 233.75 -40.75 233.85 -39.6 234.15 Q-39.4 234.15 -39.25 234.3 L-39.15 234.35 -38.5 234.0 -34.95 233.6 Q-33.2 233.8 -31.7 234.6 M-37.15 237.45 L-37.15 237.2 -37.4 237.75 -37.65 237.2 -38.05 236.7 Q-38.4 236.45 -39.1 236.35 L-39.2 236.35 -39.15 236.85 -39.3 237.0 Q-38.95 237.95 -38.1 238.55 -37.35 239.15 -35.8 239.2 L-35.55 238.9 -37.15 237.95 -37.25 237.7 -37.15 237.45 M-69.3 234.55 L-69.75 234.15 -69.75 233.7 Q-69.6 233.5 -69.25 233.45 L-68.6 233.6 Q-68.25 233.75 -68.15 234.0 -68.0 234.2 -68.15 234.4 -68.3 234.6 -68.6 234.65 L-69.3 234.55 M-66.6 233.35 L-66.15 233.1 -65.5 233.25 -65.0 233.65 -65.0 234.1 -65.5 234.3 -66.15 234.2 -66.6 233.8 -66.6 233.35 M-76.95 235.05 Q-78.55 234.2 -80.3 234.35 L-80.5 234.5 -81.35 234.85 Q-82.55 235.45 -82.25 236.6 L-82.4 236.75 Q-82.05 237.7 -81.2 238.3 -80.45 238.9 -78.9 238.95 L-78.65 238.65 -80.25 237.7 -80.35 237.45 -80.25 237.2 -80.2 236.75 -79.95 236.5 -78.85 236.55 -78.15 236.7 Q-77.5 236.95 -77.2 237.45 -76.95 237.9 -76.95 238.5 -77.55 238.95 -78.3 239.25 L-79.2 239.45 -80.25 239.3 -81.15 239.0 Q-82.25 238.55 -82.8 237.6 -83.7 236.25 -83.15 235.05 -82.7 234.2 -81.6 233.75 L-78.05 233.35 Q-76.35 233.55 -74.85 234.35 L-74.35 235.0 -73.3 236.15 -72.65 236.7 -69.75 235.95 -68.5 236.3 -67.8 236.3 -67.75 236.3 -65.4 236.05 -64.55 236.6 Q-62.95 237.9 -61.85 239.45 L-61.15 240.5 -61.95 240.5 -63.25 238.95 -65.85 236.8 Q-65.9 236.3 -66.5 238.5 L-67.05 240.5 -75.5 240.5 -74.3 237.8 -76.2 235.6 Q-76.45 235.3 -76.95 235.05 M-72.75 234.65 L-72.75 234.2 Q-72.65 234.0 -72.3 233.95 L-71.6 234.1 -71.15 234.5 Q-71.0 234.7 -71.15 234.9 -71.3 235.1 -71.6 235.15 L-72.3 235.05 -72.75 234.65 M-61.0 238.5 Q-60.8 238.55 -60.75 238.75 L-60.8 239.05 -61.25 239.25 -61.8 239.25 -62.1 239.0 -61.95 238.7 -61.5 238.5 -61.0 238.5 M-51.15 240.4 Q-51.3 240.1 -50.95 239.8 -50.7 239.5 -50.1 239.25 L-48.55 239.2 -47.85 239.35 Q-47.55 239.45 -47.35 239.65 L-47.15 240.0 -47.15 240.5 -47.8 240.5 -47.75 240.35 Q-47.65 239.85 -48.5 239.5 L-48.95 239.6 -48.9 240.4 -49.0 240.5 -51.05 240.5 -51.15 240.4 M-58.65 239.6 L-59.1 239.8 -59.6 239.8 -59.9 239.6 -59.8 239.3 Q-59.65 239.15 -59.3 239.1 L-58.8 239.1 -58.55 239.3 -58.65 239.6 M-57.05 239.55 L-56.5 239.55 Q-56.3 239.6 -56.25 239.8 L-56.35 240.1 -56.8 240.3 -57.3 240.3 -57.6 240.05 -57.5 239.75 -57.05 239.55 M-109.4 234.75 L-109.7 234.75 -110.8 235.55 Q-111.1 235.95 -110.35 236.5 L-109.9 236.55 -109.65 235.7 -109.4 235.6 -109.15 235.6 -108.55 235.5 -108.2 235.55 -107.7 235.95 -107.55 236.2 Q-107.45 236.5 -107.85 236.75 L-108.85 237.1 -110.4 236.8 -111.05 236.55 -111.4 236.15 -111.5 235.75 Q-111.55 235.25 -110.85 234.8 -109.8 234.15 -108.2 234.0 L-106.05 234.25 Q-105.1 234.45 -104.45 234.9 L-103.3 234.15 -99.8 233.75 Q-98.05 233.95 -96.55 234.75 L-96.05 235.4 -95.0 236.55 -94.35 237.1 -91.5 236.35 -90.2 236.7 -89.5 236.7 -89.45 236.7 -87.1 236.45 -86.3 237.0 Q-84.65 238.3 -83.6 239.85 L-83.15 240.5 -84.0 240.5 -84.95 239.35 -87.55 237.2 -88.2 238.9 -88.7 240.55 -97.0 240.55 -96.0 238.2 -97.9 236.0 -98.7 235.45 Q-100.3 234.6 -102.0 234.75 L-102.25 234.9 -103.1 235.25 -103.6 235.65 Q-103.2 236.2 -103.3 236.8 L-103.75 237.1 -104.05 237.35 Q-103.7 238.15 -102.95 238.7 L-102.5 238.95 -100.65 239.35 -100.4 239.1 -100.5 239.05 -100.65 238.9 -101.85 238.2 -102.1 238.2 -102.55 238.1 -102.75 237.85 -102.55 237.55 -102.1 237.45 -101.95 237.45 -101.9 237.15 -101.65 236.9 -100.55 236.95 -99.9 237.1 Q-99.25 237.35 -98.95 237.85 L-98.65 238.9 -100.05 239.65 -100.9 239.85 -102.0 239.7 -101.9 239.75 -100.4 240.5 -100.45 240.55 -101.4 240.55 -101.9 240.55 -119.15 240.55 -119.7 240.4 -120.7 239.9 -121.0 239.65 -121.35 239.2 -122.3 237.45 Q-122.7 236.85 -121.65 235.9 L-121.55 236.5 -121.35 237.05 -120.45 237.6 -119.75 237.85 -117.75 238.1 -111.95 238.2 -111.6 238.15 -106.75 237.85 -105.35 236.6 -105.1 236.2 Q-105.0 235.4 -106.05 234.85 L-106.3 234.8 -107.1 234.6 -109.4 234.75 M-104.6 237.9 L-104.75 238.15 -104.35 238.25 -104.5 238.0 -104.6 237.9 M-89.85 234.8 L-90.3 235.05 -91.0 234.95 -91.5 234.55 -91.45 234.1 Q-91.3 233.9 -90.95 233.85 L-90.3 234.0 -89.85 234.4 Q-89.7 234.6 -89.85 234.8 M-87.85 233.5 L-87.2 233.65 Q-86.85 233.8 -86.7 234.05 L-86.7 234.5 -87.25 234.7 -87.9 234.6 -88.35 234.2 -88.35 233.75 Q-88.2 233.55 -87.85 233.5 M-92.85 234.9 L-92.85 235.3 Q-93.0 235.5 -93.35 235.55 L-94.0 235.45 -94.45 235.05 -94.45 234.6 Q-94.35 234.4 -94.0 234.35 L-93.3 234.5 Q-93.0 234.65 -92.85 234.9 M-98.1 240.15 L-98.6 240.05 -98.8 239.75 -98.6 239.5 -98.1 239.4 -97.6 239.5 -97.4 239.75 -97.6 240.05 -98.1 240.15 M-152.3 240.55 L-154.6 240.55 -154.4 240.3 -153.55 239.75 -151.95 239.7 -151.25 239.85 -150.75 240.15 -150.55 240.5 -150.5 240.55 -151.2 240.55 Q-151.35 240.25 -151.95 240.0 L-152.35 240.1 -152.3 240.55 M-161.0 240.55 L-160.9 240.25 -160.45 240.05 -159.95 240.05 -159.65 240.3 -159.75 240.55 -161.0 240.55 M-142.75 236.9 Q-142.4 237.85 -141.6 238.45 -140.8 239.05 -139.3 239.1 L-139.05 238.8 -140.6 237.9 -140.8 238.25 -141.1 237.7 -141.5 237.2 Q-141.8 236.95 -142.5 236.85 L-142.7 236.8 -142.75 236.9 M-131.5 235.05 L-132.0 235.3 -132.65 235.2 -133.1 234.8 -133.1 234.35 -132.65 234.1 -131.95 234.25 -131.5 234.65 -131.5 235.05 M-130.1 233.85 Q-129.95 233.65 -129.6 233.6 L-128.95 233.75 -128.5 234.15 Q-128.35 234.35 -128.5 234.55 L-128.95 234.8 -129.65 234.7 -130.1 234.3 -130.1 233.85 M-127.0 233.5 Q-126.85 233.3 -126.5 233.25 L-125.85 233.4 -125.35 233.8 -125.35 234.25 -125.85 234.45 -126.55 234.35 -127.0 233.95 -127.0 233.5" fill="#0b4d84" fill-rule="evenodd" stroke="none"/>
    <path d="M-330.95 241.1 L-329.2 239.9 -318.6 232.45 M320.4 232.45 L325.6 234.95" fill="none" stroke="#128de7" stroke-linecap="round" stroke-linejoin="round" stroke-width="1.0"/>
    <path d="M-330.25 241.1 L-330.95 241.1 M325.6 241.1 L-330.25 241.1" fill="none" stroke="#06314f" stroke-linecap="round" stroke-linejoin="round" stroke-width="1.0"/>
    <path d="M-318.6 232.45 L320.4 232.45" fill="none" stroke="#82c6ec" stroke-linecap="round" stroke-linejoin="round" stroke-width="1.0"/>
  </g>
  <defs>
    <linearGradient gradientTransform="matrix(0.0, 0.003, -0.0067, 0.0, 3.9, 234.5)" gradientUnits="userSpaceOnUse" id="gradient0" spreadMethod="pad" x1="-819.2" x2="819.2">
      <stop offset="0.0" stop-color="#1b99dd"/>
      <stop offset="1.0" stop-color="#094277"/>
    </linearGradient>
  </defs>
</svg>
