<?xml version="1.0" encoding="UTF-8" standalone="no"?>
<svg xmlns:xlink="http://www.w3.org/1999/xlink" height="31.8px" width="77.45px" xmlns="http://www.w3.org/2000/svg">
  <g transform="matrix(1.0, 0.0, 0.0, 1.0, 38.7, 15.9)">
    <path d="M-36.6 11.65 Q-36.2 11.6 -36.25 11.05 L-36.25 10.95 -35.8 10.3 -35.85 9.8 Q-36.0 8.4 -36.9 7.7 L-37.15 6.6 -37.05 5.2 Q-36.35 4.65 -36.8 3.45 L-37.2 2.7 -37.4 1.9 -36.45 2.55 -36.2 2.45 Q-36.05 2.2 -36.2 2.0 -36.5 1.2 -37.2 0.6 L-37.2 0.25 -37.6 -0.4 -37.6 -0.65 -37.6 -0.7 -37.5 -1.05 Q-37.4 -1.25 -37.6 -1.4 -37.4 -1.8 -37.7 -2.35 L-37.9 -2.6 -37.75 -2.8 -37.8 -3.2 Q-38.2 -4.1 -38.6 -4.05 L-38.7 -4.4 -38.35 -5.85 Q-37.95 -7.15 -38.1 -7.7 -37.9 -8.55 -37.1 -9.15 L-36.2 -10.35 -36.6 -10.5 Q-36.7 -10.75 -36.7 -10.55 L-36.65 -10.65 -36.8 -11.55 -37.1 -12.05 -37.05 -12.05 -37.1 -12.1 -35.05 -12.05 -35.1 -12.3 Q-34.0 -14.6 -33.5 -14.3 L-32.95 -14.2 Q-32.65 -14.2 -32.35 -14.45 -31.25 -13.5 -29.55 -12.95 -29.0 -12.15 -27.95 -12.6 L-26.95 -11.9 -25.6 -11.9 Q-24.75 -12.35 -25.3 -13.4 -25.45 -13.7 -25.3 -13.45 -25.35 -13.7 -25.2 -13.45 L-24.7 -13.4 -23.35 -12.8 -22.8 -11.85 -21.65 -11.85 -21.5 -11.9 -21.25 -11.85 Q-20.7 -11.8 -19.85 -11.4 L-19.3 -10.95 -18.5 -10.5 -17.95 -10.3 -16.8 -10.3 -16.5 -10.45 -16.3 -10.95 -16.45 -12.9 -15.5 -12.9 Q-15.5 -12.4 -14.5 -11.9 L-12.35 -11.9 Q-10.3 -12.5 -9.15 -13.1 L-6.85 -13.55 -6.35 -13.65 -6.2 -13.45 -4.15 -13.55 -3.3 -14.35 -1.05 -15.0 -0.15 -15.15 -0.05 -15.2 0.05 -15.0 Q-0.85 -13.95 0.85 -13.45 L1.5 -13.35 3.35 -13.45 4.9 -14.1 Q6.6 -13.7 7.6 -14.45 10.3 -15.05 12.35 -15.9 L13.45 -15.6 14.35 -15.7 Q15.1 -15.95 17.85 -13.75 19.5 -15.9 20.05 -15.6 L20.55 -15.45 Q20.9 -15.55 21.25 -15.75 22.15 -14.9 23.7 -14.25 24.0 -13.4 25.2 -13.9 25.65 -13.1 26.95 -13.1 28.3 -13.4 28.0 -14.8 27.95 -15.0 28.1 -14.8 L28.15 -14.8 28.6 -14.8 29.85 -14.1 Q30.05 -12.5 31.45 -13.2 L32.95 -12.8 Q33.2 -12.35 36.85 -11.45 L36.75 -11.0 36.85 -11.0 36.85 -10.85 38.75 -10.25 Q38.3 -10.3 37.95 -9.45 L37.55 -7.8 Q37.55 -6.2 37.95 -5.4 L37.95 -3.35 Q36.95 -1.95 38.05 -1.2 L38.2 0.4 38.1 1.05 38.1 1.1 38.05 1.2 Q37.05 0.4 36.6 2.15 36.2 3.6 36.7 4.4 36.0 5.5 36.55 6.05 36.4 7.7 36.9 9.0 36.6 9.2 36.55 9.65 L36.55 10.25 36.55 10.3 35.5 11.7 34.75 12.35 34.65 12.35 34.4 13.45 33.9 13.45 Q33.9 12.95 33.55 12.75 32.85 12.6 32.35 12.75 31.1 13.05 30.4 13.65 L28.9 14.0 Q27.8 13.35 27.1 14.6 L25.8 15.1 25.4 15.2 25.3 15.2 25.25 15.1 Q25.9 14.0 24.65 13.9 23.4 13.8 22.8 14.45 21.85 14.0 21.35 14.65 19.8 15.0 18.75 15.85 L18.2 15.55 17.7 15.7 Q17.2 15.7 15.85 14.3 13.1 15.7 12.4 15.75 L11.5 15.65 Q10.85 15.55 10.55 15.9 8.7 15.0 6.2 14.75 5.4 14.05 3.7 14.5 L2.35 14.05 0.6 13.95 -0.1 14.05 Q-1.7 14.25 -0.8 15.2 L-0.9 15.25 -1.0 15.25 -1.8 15.2 -4.0 14.6 -4.8 14.05 -6.75 14.0 -6.9 14.1 -7.4 14.0 -9.55 13.7 Q-10.75 13.1 -12.75 12.8 -13.75 12.65 -14.75 12.8 -15.75 13.0 -15.6 13.5 L-16.5 13.5 -16.65 12.1 -16.95 11.7 -17.2 11.5 Q-17.9 11.35 -18.4 11.5 L-18.95 11.7 Q-19.75 11.9 -20.1 12.4 L-21.3 12.7 -21.55 12.75 Q-21.65 12.65 -21.7 12.7 L-22.75 12.7 Q-23.05 12.8 -23.05 13.35 L-24.25 13.85 -24.8 13.9 -24.85 13.85 Q-24.6 12.9 -25.4 12.7 L-26.8 12.7 Q-27.35 12.8 -27.5 13.2 -28.65 12.75 -28.95 13.5 -30.4 13.8 -31.15 14.6 -31.45 14.25 -31.75 14.35 L-32.25 14.45 Q-32.75 14.4 -34.45 13.0 L-34.5 12.75 -36.4 12.75 -36.4 12.4 -36.6 11.7 -36.6 11.65" fill="url(#gradient0)" fill-rule="evenodd" stroke="none"/>
    <path d="M38.75 -10.25 L36.85 -10.85 36.85 -11.0 36.75 -11.0 36.85 -11.45 Q33.2 -12.35 32.95 -12.8 L31.45 -13.2 Q30.05 -12.5 29.85 -14.1 L28.6 -14.8 28.15 -14.8 28.1 -14.8 Q27.95 -15.0 28.0 -14.8 28.3 -13.4 26.95 -13.1 25.65 -13.1 25.2 -13.9 24.0 -13.4 23.7 -14.25 22.15 -14.9 21.25 -15.75 20.9 -15.55 20.55 -15.45 L20.05 -15.6 Q19.5 -15.9 17.85 -13.75 15.1 -15.95 14.35 -15.7 L13.45 -15.6 12.35 -15.9 Q10.3 -15.05 7.6 -14.45 6.6 -13.7 4.9 -14.1 L3.35 -13.45 1.5 -13.35 0.85 -13.45 Q-0.85 -13.95 0.05 -15.0 L-0.05 -15.2 -0.15 -15.15 -1.05 -15.0 -3.3 -14.35 -4.15 -13.55 -6.2 -13.45 -6.35 -13.65 -6.85 -13.55 -9.15 -13.1 Q-10.3 -12.5 -12.35 -11.9 L-14.5 -11.9 Q-15.5 -12.4 -15.5 -12.9 L-16.45 -12.9 -16.3 -10.95 -16.5 -10.45 -16.8 -10.3 -17.95 -10.3 -18.5 -10.5 -19.3 -10.95 -19.85 -11.4 Q-20.7 -11.8 -21.25 -11.85 L-21.5 -11.9 -21.65 -11.85 -22.8 -11.85 -23.35 -12.8 -24.7 -13.4 -25.2 -13.45 Q-25.35 -13.7 -25.3 -13.45 -25.45 -13.7 -25.3 -13.4 -24.75 -12.35 -25.6 -11.9 L-26.95 -11.9 -27.95 -12.6 Q-29.0 -12.15 -29.55 -12.95 -31.25 -13.5 -32.35 -14.45 -32.65 -14.2 -32.95 -14.2 L-33.5 -14.3 Q-34.0 -14.6 -35.1 -12.3 L-35.05 -12.05 -37.1 -12.1 -37.05 -12.05 -37.1 -12.05 -36.8 -11.55 -36.65 -10.65 -36.7 -10.55 Q-36.7 -10.75 -36.6 -10.5 L-36.2 -10.35 -37.1 -9.15 Q-37.9 -8.55 -38.1 -7.7 -37.95 -7.15 -38.35 -5.85 L-38.7 -4.4 -38.6 -4.05 Q-38.2 -4.1 -37.8 -3.2 L-37.75 -2.8 -37.9 -2.6 -37.7 -2.35 Q-37.4 -1.8 -37.6 -1.4 -37.4 -1.25 -37.5 -1.05 L-37.6 -0.7 -37.6 -0.65 -37.6 -0.4 -37.2 0.25 -37.2 0.6 Q-36.5 1.2 -36.2 2.0 -36.05 2.2 -36.2 2.45 L-36.45 2.55 -37.4 1.9 -37.2 2.7 -36.8 3.45 Q-36.35 4.65 -37.05 5.2 L-37.15 6.6 -36.9 7.7 Q-36.0 8.4 -35.85 9.8 L-35.8 10.3 -36.25 10.95 -36.25 11.05 Q-36.2 11.6 -36.6 11.65" fill="none" stroke="#072d3a" stroke-linecap="round" stroke-linejoin="round" stroke-width="0.05"/>
  </g>
  <defs>
    <linearGradient gradientTransform="matrix(0.0, 0.0184, -0.0232, 0.0016, 3.5, 1.1)" gradientUnits="userSpaceOnUse" id="gradient0" spreadMethod="pad" x1="-819.2" x2="819.2">
      <stop offset="0.0" stop-color="#031114" stop-opacity="0.7137255"/>
      <stop offset="1.0" stop-color="#083058" stop-opacity="0.68235296"/>
    </linearGradient>
  </defs>
</svg>
