<?xml version="1.0" encoding="UTF-8" standalone="no"?>
<svg xmlns:xlink="http://www.w3.org/1999/xlink" height="22.6px" width="12.7px" xmlns="http://www.w3.org/2000/svg">
  <g transform="matrix(1.0, 0.0, 0.0, 1.0, 3.7, -0.1)">
    <path d="M0.35 0.1 Q5.2 0.15 4.05 0.95 3.05 2.15 2.1 6.5 1.1 10.8 5.5 11.65 6.8 13.1 5.05 13.9 3.3 14.65 3.75 15.75 4.2 16.85 7.65 20.65 11.1 24.35 5.8 21.4 1.05 18.45 -1.1 12.9 -3.25 7.3 -3.7 0.75 -4.0 0.0 0.35 0.1" fill="#a1d109" fill-rule="evenodd" stroke="none"/>
    <path d="M0.35 0.1 Q-4.0 0.0 -3.7 0.75 -3.25 7.3 -1.1 12.9 1.05 18.45 5.8 21.4 11.1 24.35 7.65 20.65 4.2 16.85 3.75 15.75 3.3 14.65 5.05 13.9 6.8 13.1 5.5 11.65 1.1 10.8 2.1 6.5 3.05 2.15 4.05 0.95 5.2 0.15 0.35 0.1 Z" fill="none" stroke="#4f4f00" stroke-linecap="round" stroke-linejoin="round" stroke-width="0.05"/>
  </g>
</svg>
