<?xml version="1.0" encoding="UTF-8" standalone="no"?>
<svg xmlns:xlink="http://www.w3.org/1999/xlink" height="23.8px" width="11.5px" xmlns="http://www.w3.org/2000/svg">
  <g transform="matrix(1.0, 0.0, 0.0, 1.0, 7.25, -0.1)">
    <path d="M4.05 0.95 L3.65 1.35 Q-0.2 4.9 -1.75 7.7 L-2.2 8.5 Q-3.85 12.1 -0.15 12.85 0.6 14.3 -1.4 15.1 -3.45 15.85 -3.35 16.95 -3.3 18.05 -1.2 21.85 0.9 25.55 -3.3 22.6 -7.05 19.65 -7.2 14.1 L-7.05 9.7 Q-6.8 7.45 -3.7 0.75 -4.0 0.0 0.35 0.1 5.2 0.15 4.05 0.95" fill="#a1d109" fill-rule="evenodd" stroke="none"/>
    <path d="M4.05 0.95 Q5.2 0.15 0.35 0.1 -4.0 0.0 -3.7 0.75 -6.8 7.45 -7.05 9.7 L-7.2 14.1 Q-7.05 19.65 -3.3 22.6 0.9 25.55 -1.2 21.85 -3.3 18.05 -3.35 16.95 -3.45 15.85 -1.4 15.1 0.6 14.3 -0.15 12.85 -3.85 12.1 -2.2 8.5 L-1.75 7.7 Q-0.2 4.9 3.65 1.35 L4.05 0.95 Z" fill="none" stroke="#4f4f00" stroke-linecap="round" stroke-linejoin="round" stroke-width="0.05"/>
  </g>
</svg>
