<?xml version="1.0" encoding="UTF-8" standalone="no"?>
<svg xmlns:xlink="http://www.w3.org/1999/xlink" height="19.1px" width="30.6px" xmlns="http://www.w3.org/2000/svg">
  <g transform="matrix(1.0, 0.0, 0.0, 1.0, 13.95, 8.35)">
    <path d="M15.1 -0.95 L16.65 1.05 Q10.2 6.95 2.2 10.75 L-2.2 7.05 Q5.8 4.35 8.75 1.65 12.6 1.95 15.1 -0.95" fill="#8c996d" fill-rule="evenodd" stroke="none"/>
    <path d="M-5.7 -6.5 Q-2.7 -7.8 -0.75 -8.25 1.15 -8.7 4.65 -7.25 8.15 -5.8 12.5 -2.9 L14.45 -1.45 15.1 -0.95 Q12.6 1.95 8.75 1.65 L9.3 1.1 8.75 1.65 Q5.8 4.35 -2.2 7.05 -7.05 5.5 -10.5 2.8 -13.95 0.1 -13.95 -2.1 -13.95 -2.9 -13.5 -3.5 -9.5 -5.55 -6.75 -6.7 L-5.75 -6.5 -5.7 -6.5 Q4.35 -4.5 9.3 1.1 4.35 -4.5 -5.7 -6.5" fill="#8aa90c" fill-rule="evenodd" stroke="none"/>
    <path d="M-5.7 -6.5 Q-2.7 -7.8 -0.75 -8.25 1.15 -8.7 4.65 -7.25 8.15 -5.8 12.5 -2.9 L14.45 -1.45 15.1 -0.95 M16.65 1.05 Q10.2 6.95 2.2 10.75 L-2.2 7.05 Q-7.05 5.5 -10.5 2.8 -13.95 0.1 -13.95 -2.1 -13.95 -2.9 -13.5 -3.5 -9.5 -5.55 -6.75 -6.7 L-5.75 -6.5 -5.7 -6.5 Q4.35 -4.5 9.3 1.1 M-5.7 -6.5 L-5.75 -6.5" fill="none" stroke="#6c322b" stroke-linecap="round" stroke-linejoin="round" stroke-width="0.05"/>
    <path d="M9.3 1.1 L8.75 1.65 Q12.6 1.95 15.1 -0.95 M8.75 1.65 Q5.8 4.35 -2.2 7.05" fill="none" stroke="#544668" stroke-linecap="round" stroke-linejoin="round" stroke-width="0.05"/>
  </g>
</svg>
