<?xml version="1.0" encoding="UTF-8" standalone="no"?>
<svg xmlns:xlink="http://www.w3.org/1999/xlink" height="21.8px" width="22.25px" xmlns="http://www.w3.org/2000/svg">
  <g transform="matrix(1.0, 0.0, 0.0, 1.0, 9.25, 13.5)">
    <path d="M0.85 -1.75 L0.8 -1.45 -0.7 -1.55 -0.65 -1.95 0.85 -1.75 M0.55 0.3 L0.45 1.6 Q-0.25 1.95 -0.6 1.6 L-0.7 0.15 Q0.0 -0.85 0.55 0.3" fill="#c05336" fill-rule="evenodd" stroke="none"/>
    <path d="M-0.65 -1.95 L-0.7 -1.55 0.8 -1.45 0.85 -1.75 2.0 -1.75 Q10.05 -2.75 11.65 -8.1 12.6 -6.1 13.0 -3.4 L12.3 -3.15 10.6 -2.6 Q6.35 -0.75 6.3 1.4 L5.7 2.25 5.75 0.05 Q4.4 -0.75 3.6 -0.4 L2.95 1.6 2.75 2.45 Q2.3 4.25 2.65 5.15 L1.7 5.15 1.7 4.0 -2.5 4.1 -2.5 5.15 -3.7 5.15 Q-3.15 4.3 -3.2 3.15 L-3.2 1.55 -3.25 1.3 Q-3.4 -2.35 -4.85 -0.95 -6.4 1.45 -6.5 3.7 L-7.25 2.95 Q-6.7 1.9 -6.45 0.85 -6.0 -1.8 -7.8 -4.4 L-8.3 -5.05 -7.15 -7.85 Q-6.2 -3.35 -1.9 -2.25 L-0.65 -1.95 M0.55 0.3 Q0.0 -0.85 -0.7 0.15 L-0.6 1.6 Q-0.25 1.95 0.45 1.6 L0.55 0.3" fill="#9b92b5" fill-rule="evenodd" stroke="none"/>
    <path d="M2.2 -7.35 L1.8 -6.15 0.1 -6.25 0.5 -7.5 2.2 -7.35 M2.95 -9.4 Q1.65 -9.05 1.4 -9.6 2.05 -11.05 3.0 -12.45 3.95 -13.0 4.35 -12.15 L2.95 -9.4 M0.85 -1.75 L-0.65 -1.95 -0.4 -4.2 1.3 -4.15 Q1.0 -3.0 0.85 -1.75" fill="#d26936" fill-rule="evenodd" stroke="none"/>
    <path d="M2.2 -7.35 L0.5 -7.5 0.1 -6.25 1.8 -6.15 2.2 -7.35 M2.95 -9.4 L4.35 -12.15 Q3.95 -13.0 3.0 -12.45 2.05 -11.05 1.4 -9.6 1.65 -9.05 2.95 -9.4 M-0.65 -1.95 L-1.9 -2.25 Q-6.2 -3.35 -7.15 -7.85 -4.0 -13.9 3.65 -13.5 9.25 -13.0 11.65 -8.1 10.05 -2.75 2.0 -1.75 L0.85 -1.75 Q1.0 -3.0 1.3 -4.15 L-0.4 -4.2 -0.65 -1.95" fill="#aaa1c5" fill-rule="evenodd" stroke="none"/>
    <path d="M-7.8 -4.4 Q-6.0 -1.8 -6.45 0.85 -7.7 0.85 -8.55 -0.05 -10.25 -2.3 -7.8 -4.4" fill="url(#gradient0)" fill-rule="evenodd" stroke="none"/>
    <path d="M6.3 1.4 Q6.35 -0.75 10.6 -2.6 11.25 -1.75 11.45 -0.25 L11.45 0.25 11.35 0.7 Q10.75 2.8 7.35 2.6 L6.3 1.4" fill="url(#gradient1)" fill-rule="evenodd" stroke="none"/>
    <path d="M5.7 2.25 L6.3 1.4 7.35 2.6 7.35 4.1 5.0 5.15 5.7 2.25 M1.7 5.15 Q2.0 6.6 -0.3 6.4 -2.65 6.35 -2.5 5.15 L1.7 5.15" fill="#9d95b2" fill-rule="evenodd" stroke="none"/>
    <path d="M-4.85 -0.95 Q-3.4 -2.35 -3.25 1.3 -3.4 0.4 -3.75 -0.15 -4.15 -0.75 -4.85 -0.95 M2.95 1.6 L3.6 -0.4 Q4.4 -0.75 5.75 0.05 4.7 0.15 3.95 0.65 L2.95 1.6" fill="#444246" fill-rule="evenodd" stroke="none"/>
    <path d="M-3.25 1.3 L-3.2 1.55 -3.2 3.15 Q-5.15 4.7 -5.1 8.25 -6.35 1.75 -3.75 -0.15 -3.4 0.4 -3.25 1.3 M2.75 2.45 L2.95 1.6 3.95 0.65 Q5.45 4.55 2.95 8.25 3.7 5.65 2.75 2.45" fill="#c4c3c9" fill-rule="evenodd" stroke="none"/>
    <path d="M-6.5 3.7 Q-6.4 1.45 -4.85 -0.95 -4.15 -0.75 -3.75 -0.15 -6.35 1.75 -5.1 8.25 -6.6 6.05 -6.5 3.7 M5.75 0.05 L5.7 2.25 5.0 5.15 Q4.25 6.85 2.95 8.25 5.45 4.55 3.95 0.65 4.7 0.15 5.75 0.05" fill="#dedee3" fill-rule="evenodd" stroke="none"/>
    <path d="M-2.5 5.15 L-2.5 4.1 1.7 4.0 1.7 5.15 -2.5 5.15" fill="#676374" fill-rule="evenodd" stroke="none"/>
    <path d="M2.2 -7.35 L1.8 -6.15 0.1 -6.25 0.5 -7.5 2.2 -7.35 M2.95 -9.4 L4.35 -12.15 Q3.95 -13.0 3.0 -12.45 2.05 -11.05 1.4 -9.6 1.65 -9.05 2.95 -9.4 M-0.65 -1.95 L-0.4 -4.2 1.3 -4.15 Q1.0 -3.0 0.85 -1.75" fill="none" stroke="#7b351c" stroke-linecap="round" stroke-linejoin="round" stroke-width="0.05"/>
    <path d="M0.85 -1.75 L0.8 -1.45 -0.7 -1.55 -0.65 -1.95 M0.55 0.3 Q0.0 -0.85 -0.7 0.15 L-0.6 1.6 Q-0.25 1.95 0.45 1.6 L0.55 0.3" fill="none" stroke="#682d17" stroke-linecap="round" stroke-linejoin="round" stroke-width="0.05"/>
    <path d="M-7.15 -7.85 L-8.3 -5.05 -7.8 -4.4 Q-6.0 -1.8 -6.45 0.85 -6.7 1.9 -7.25 2.95 L-6.5 3.7 Q-6.4 1.45 -4.85 -0.95 -3.4 -2.35 -3.25 1.3 L-3.2 1.55 -3.2 3.15 Q-3.15 4.3 -3.7 5.15 L-2.5 5.15 -2.5 4.1 1.7 4.0 1.7 5.15 2.65 5.15 Q2.3 4.25 2.75 2.45 L2.95 1.6 3.6 -0.4 Q4.4 -0.75 5.75 0.05 L5.7 2.25 6.3 1.4 Q6.35 -0.75 10.6 -2.6 L12.3 -3.15 13.0 -3.4 Q12.6 -6.1 11.65 -8.1 9.25 -13.0 3.65 -13.5 -4.0 -13.9 -7.15 -7.85 M7.35 2.6 Q10.75 2.8 11.35 0.7 L11.45 0.25 11.45 -0.25 Q11.25 -1.75 10.6 -2.6 M12.3 -3.15 Q11.5 -1.9 11.45 -0.25 L11.45 -0.1 11.45 0.25 M6.3 1.4 L7.35 2.6 7.35 4.1 5.0 5.15 Q4.25 6.85 2.95 8.25 3.7 5.65 2.75 2.45 M3.95 0.65 L2.95 1.6 M5.7 2.25 L5.0 5.15 M3.95 0.65 Q4.7 0.15 5.75 0.05 M-6.45 0.85 Q-7.7 0.85 -8.55 -0.05 -10.25 -2.3 -7.8 -4.4 M-3.75 -0.15 Q-4.15 -0.75 -4.85 -0.95 M-5.1 8.25 L-5.1 8.3 -5.1 8.25 Q-6.6 6.05 -6.5 3.7 M-3.75 -0.15 Q-3.4 0.4 -3.25 1.3 M-2.5 5.15 Q-2.65 6.35 -0.3 6.4 2.0 6.6 1.7 5.15 L-2.5 5.15 M-3.2 3.15 Q-5.15 4.7 -5.1 8.25" fill="none" stroke="#575368" stroke-linecap="round" stroke-linejoin="round" stroke-width="0.05"/>
  </g>
  <defs>
    <radialGradient cx="0" cy="0" gradientTransform="matrix(0.0022, 0.0, 0.0, 0.0031, -8.5, -2.3)" gradientUnits="userSpaceOnUse" id="gradient0" r="819.2" spreadMethod="pad">
      <stop offset="0.13725490196078433" stop-color="#fce0be"/>
      <stop offset="0.24705882352941178" stop-color="#f7ae3b"/>
      <stop offset="1.0" stop-color="#a6691a"/>
    </radialGradient>
    <radialGradient cx="0" cy="0" gradientTransform="matrix(0.0045, -0.0012, 0.0017, 0.0063, 10.1, -1.05)" gradientUnits="userSpaceOnUse" id="gradient1" r="819.2" spreadMethod="pad">
      <stop offset="0.13725490196078433" stop-color="#fce0be"/>
      <stop offset="0.24705882352941178" stop-color="#f7ae3b"/>
      <stop offset="1.0" stop-color="#a6691a"/>
    </radialGradient>
  </defs>
</svg>
