<?xml version="1.0" encoding="UTF-8" standalone="no"?>
<svg xmlns:xlink="http://www.w3.org/1999/xlink" height="19.3px" width="13.1px" xmlns="http://www.w3.org/2000/svg">
  <g transform="matrix(1.0, 0.0, 0.0, 1.0, 6.55, 1.85)">
    <path d="M0.05 -0.3 Q-0.25 -2.0 0.65 -1.85 1.4 -2.05 1.15 -0.3 L0.05 -0.3 M1.05 1.75 L1.1 2.6 1.1 3.2 0.05 3.1 0.1 2.4 0.1 1.75 Q0.5 2.25 1.05 1.75" fill="#52482c" fill-rule="evenodd" stroke="none"/>
    <path d="M1.15 -0.3 Q1.35 0.8 1.05 1.75 0.5 2.25 0.1 1.75 -0.35 0.8 0.05 -0.3 L1.15 -0.3 M0.05 3.1 L1.1 3.2 Q1.0 4.5 0.55 5.2 0.05 4.1 0.05 3.1" fill="#ffe140" fill-rule="evenodd" stroke="none"/>
    <path d="M1.1 2.6 Q1.65 0.9 2.35 1.3 1.9 3.5 1.9 5.15 0.6 8.05 -0.85 5.05 L-0.85 5.0 Q-0.7 3.3 -1.1 1.1 -0.3 0.95 0.1 2.4 L0.05 3.1 Q0.05 4.1 0.55 5.2 1.0 4.5 1.1 3.2 L1.1 2.6 M6.4 14.0 Q6.15 15.7 4.9 14.7 L4.35 14.25 Q3.25 17.5 -0.15 17.4 -2.55 17.9 -4.8 14.7 -5.5 15.95 -6.2 15.65 L-6.55 14.8 Q-3.3 12.05 0.3 12.2 3.85 12.35 6.4 14.0 M4.35 14.25 Q3.35 13.75 1.95 14.7 0.7 15.8 -0.05 14.7 -1.1 15.95 -1.75 14.7 -2.8 13.3 -4.8 14.7 -2.8 13.3 -1.75 14.7 -1.1 15.95 -0.05 14.7 0.7 15.8 1.95 14.7 3.35 13.75 4.35 14.25" fill="#605234" fill-rule="evenodd" stroke="none"/>
    <path d="M3.5 9.5 Q4.1 8.4 4.5 8.5 6.8 9.75 6.35 12.4 4.35 13.15 3.05 11.45 L3.5 9.5" fill="url(#gradient0)" fill-rule="evenodd" stroke="none"/>
    <path d="M1.9 5.15 Q1.85 8.4 3.5 9.5 L3.05 11.45 Q4.35 13.15 6.35 12.4 6.75 13.3 6.4 14.0 3.85 12.35 0.3 12.2 -3.3 12.05 -6.55 14.8 -6.65 14.1 -6.2 13.25 -3.4 12.65 -2.8 11.0 L-3.45 10.05 Q-1.1 8.45 -0.85 5.05 0.6 8.05 1.9 5.15" fill="#85753d" fill-rule="evenodd" stroke="none"/>
    <path d="M-6.2 13.25 Q-7.05 11.05 -5.25 9.3 -4.6 8.95 -3.45 10.05 L-2.8 11.0 Q-3.4 12.65 -6.2 13.25" fill="url(#gradient1)" fill-rule="evenodd" stroke="none"/>
    <path d="M0.05 -0.3 Q-0.25 -2.0 0.65 -1.85 1.4 -2.05 1.15 -0.3 1.35 0.8 1.05 1.75 L1.1 2.6 Q1.65 0.9 2.35 1.3 1.9 3.5 1.9 5.15 1.85 8.4 3.5 9.5 4.1 8.4 4.5 8.5 6.8 9.75 6.35 12.4 6.75 13.3 6.4 14.0 6.15 15.7 4.9 14.7 L4.35 14.25 Q3.25 17.5 -0.15 17.4 -2.55 17.9 -4.8 14.7 -5.5 15.95 -6.2 15.65 L-6.55 14.8 Q-6.65 14.1 -6.2 13.25 -7.05 11.05 -5.25 9.3 -4.6 8.95 -3.45 10.05 -1.1 8.45 -0.85 5.05 L-0.85 5.0 Q-0.7 3.3 -1.1 1.1 -0.3 0.95 0.1 2.4 L0.1 1.75 Q-0.35 0.8 0.05 -0.3 L1.15 -0.3 M0.05 3.1 L1.1 3.2 1.1 2.6 M1.1 3.2 Q1.0 4.5 0.55 5.2 0.05 4.1 0.05 3.1 L0.1 2.4 M0.1 1.75 Q0.5 2.25 1.05 1.75 M-6.2 13.25 Q-3.4 12.65 -2.8 11.0 L-3.45 10.05 M-4.8 14.7 Q-2.8 13.3 -1.75 14.7 -1.1 15.95 -0.05 14.7 0.7 15.8 1.95 14.7 3.35 13.75 4.35 14.25 M6.35 12.4 Q4.35 13.15 3.05 11.45 L3.5 9.5 M-0.85 5.05 Q0.6 8.05 1.9 5.15" fill="none" stroke="#362d18" stroke-linecap="round" stroke-linejoin="round" stroke-width="0.05"/>
  </g>
  <defs>
    <radialGradient cx="0" cy="0" gradientTransform="matrix(0.004, 0.0, 0.0, 0.004, 4.45, 9.75)" gradientUnits="userSpaceOnUse" id="gradient0" r="819.2" spreadMethod="pad">
      <stop offset="0.1450980392156863" stop-color="#fff7eb"/>
      <stop offset="0.24705882352941178" stop-color="#dcd73d"/>
      <stop offset="1.0" stop-color="#5f951f"/>
    </radialGradient>
    <radialGradient cx="0" cy="0" gradientTransform="matrix(0.0041, 0.0, 0.0, 0.0041, -5.5, 10.15)" gradientUnits="userSpaceOnUse" id="gradient1" r="819.2" spreadMethod="pad">
      <stop offset="0.1450980392156863" stop-color="#fff7eb"/>
      <stop offset="0.24705882352941178" stop-color="#dcd73d"/>
      <stop offset="1.0" stop-color="#5f951f"/>
    </radialGradient>
  </defs>
</svg>
