<?xml version="1.0" encoding="UTF-8" standalone="no"?>
<svg xmlns:xlink="http://www.w3.org/1999/xlink" height="11.0px" width="12.0px" xmlns="http://www.w3.org/2000/svg">
  <g transform="matrix(1.0, 0.0, 0.0, 1.0, -0.2, 0.0)">
    <path d="M11.2 3.0 L10.2 3.0 10.2 11.0 1.2 11.0 1.2 3.0 0.2 3.0 0.2 1.0 1.2 1.0 1.2 0.0 10.2 0.0 10.2 1.0 11.2 1.0 11.2 2.0 11.2 3.0 M10.2 1.0 L1.2 1.0 1.2 2.0 10.2 2.0 10.2 1.0 M8.2 3.0 L8.2 9.0 7.2 9.0 7.2 3.0 6.2 3.0 6.2 9.0 5.2 9.0 5.2 3.0 4.2 3.0 4.2 9.0 3.2 9.0 3.2 3.0 2.2 3.0 2.2 10.0 9.2 10.0 9.2 3.0 8.2 3.0" fill="#233143" fill-rule="evenodd" stroke="none"/>
    <path d="M11.2 2.0 L12.2 2.0 12.2 3.0 11.2 3.0 11.2 2.0" fill="#333333" fill-opacity="0.0" fill-rule="evenodd" stroke="none"/>
    <path d="M8.2 3.0 L9.2 3.0 9.2 10.0 2.2 10.0 2.2 3.0 3.2 3.0 3.2 9.0 4.2 9.0 4.2 3.0 5.2 3.0 5.2 9.0 6.2 9.0 6.2 3.0 7.2 3.0 7.2 9.0 8.2 9.0 8.2 3.0" fill="url(#gradient0)" fill-rule="evenodd" stroke="none"/>
  </g>
  <defs>
    <linearGradient gradientTransform="matrix(0.0, 0.0043, -0.0043, 0.0, 5.7, 6.5)" gradientUnits="userSpaceOnUse" id="gradient0" spreadMethod="pad" x1="-819.2" x2="819.2">
      <stop offset="0.0" stop-color="#335c8e" stop-opacity="0.5019608"/>
      <stop offset="0.4196078431372549" stop-color="#4a598a" stop-opacity="0.18039216"/>
    </linearGradient>
  </defs>
</svg>
