<?xml version="1.0" encoding="UTF-8" standalone="no"?>
<svg xmlns:xlink="http://www.w3.org/1999/xlink" height="25.0px" width="26.6px" xmlns="http://www.w3.org/2000/svg">
  <g transform="matrix(1.0, 0.0, 0.0, 1.0, 12.5, 12.5)">
    <path d="M-12.5 0.0 Q-12.5 -5.15 -8.8 -8.8 -5.15 -12.5 0.0 -12.5 5.15 -12.5 8.85 -8.8 12.5 -5.15 12.5 0.0 L7.85 0.0 Q7.8 -3.25 5.5 -5.55 3.25 -7.8 0.0 -7.8 -3.25 -7.8 -5.55 -5.55 -7.8 -3.25 -7.8 0.0 L-12.5 0.0" fill="url(#gradient0)" fill-rule="evenodd" stroke="none"/>
    <path d="M-12.5 0.0 L-7.8 0.0 Q-7.8 3.25 -5.55 5.5 -3.25 7.8 0.0 7.85 3.25 7.8 5.5 5.5 7.8 3.25 7.85 0.0 L12.5 0.0 Q12.5 5.15 8.85 8.85 5.15 12.5 0.0 12.5 -5.15 12.5 -8.8 8.85 -12.5 5.15 -12.5 0.0" fill="url(#gradient1)" fill-rule="evenodd" stroke="none"/>
    <path d="M6.1 0.0 L14.1 0.0 10.1 3.9 6.1 0.0" fill="#47d51e" fill-rule="evenodd" stroke="none"/>
    <path d="M-8.75 -1.0 Q-8.7 4.0 -6.15 6.45 -3.65 8.85 0.0 8.85 3.65 8.85 6.2 6.2 8.05 4.4 8.6 2.1 L10.1 3.55 11.3 2.4 Q10.6 5.65 8.15 8.15 4.75 11.5 0.0 11.5 -4.75 11.5 -8.25 8.3 -11.7 5.05 -11.45 -1.0 L-8.75 -1.0" fill="url(#gradient2)" fill-rule="evenodd" stroke="none"/>
    <path d="M11.5 0.0 L11.7 0.55 10.1 2.15 8.55 0.65 8.85 0.0 Q8.8 -3.65 6.2 -6.25 3.65 -8.8 0.0 -8.8 -3.65 -8.8 -6.25 -6.3 L-6.3 -6.25 Q-8.45 -4.0 -8.75 -1.0 L-11.45 -1.0 Q-11.15 -5.1 -8.1 -8.1 -4.75 -11.5 0.0 -11.5 4.75 -11.5 8.15 -8.1 11.5 -4.75 11.5 0.0" fill="url(#gradient3)" fill-rule="evenodd" stroke="none"/>
  </g>
  <defs>
    <radialGradient cx="0" cy="0" gradientTransform="matrix(0.0237, 0.0191, -0.0191, 0.0237, 12.5, 0.15)" gradientUnits="userSpaceOnUse" id="gradient0" r="819.2" spreadMethod="pad">
      <stop offset="0.0784313725490196" stop-color="#47d51e"/>
      <stop offset="0.8666666666666667" stop-color="#6ce852"/>
    </radialGradient>
    <radialGradient cx="0" cy="0" gradientTransform="matrix(-0.0237, -0.0191, 0.0191, -0.0237, -12.5, -0.15)" gradientUnits="userSpaceOnUse" id="gradient1" r="819.2" spreadMethod="pad">
      <stop offset="0.0" stop-color="#6fe455"/>
      <stop offset="1.0" stop-color="#6fe455" stop-opacity="0.101960786"/>
    </radialGradient>
    <linearGradient gradientTransform="matrix(0.014, 0.0, 0.0, 0.0064, 0.0, 6.25)" gradientUnits="userSpaceOnUse" id="gradient2" spreadMethod="pad" x1="-819.2" x2="819.2">
      <stop offset="0.2980392156862745" stop-color="#aeff8c" stop-opacity="0.2"/>
      <stop offset="0.8392156862745098" stop-color="#8bfe5a" stop-opacity="0.050980393"/>
    </linearGradient>
    <linearGradient gradientTransform="matrix(0.0141, 0.0, 0.0, 0.0083, 0.1, -4.7)" gradientUnits="userSpaceOnUse" id="gradient3" spreadMethod="pad" x1="-819.2" x2="819.2">
      <stop offset="0.06666666666666667" stop-color="#aeff8c" stop-opacity="0.2"/>
      <stop offset="0.8823529411764706" stop-color="#d5ffc3" stop-opacity="0.4"/>
    </linearGradient>
  </defs>
</svg>
