<?xml version="1.0" encoding="UTF-8" standalone="no"?>
<svg xmlns:xlink="http://www.w3.org/1999/xlink" height="121.9px" width="162.0px" xmlns="http://www.w3.org/2000/svg">
  <g transform="matrix(1.0, 0.0, 0.0, 1.0, 0.0, 0.0)">
    <path d="M159.55 2.45 Q158.1 1.0 156.0 1.0 L6.0 1.0 Q3.9 1.0 2.45 2.45 1.0 3.9 1.0 6.0 L1.0 115.9 Q1.0 118.0 2.45 119.45 3.9 120.9 6.0 120.9 L156.0 120.9 Q158.1 120.9 159.55 119.45 161.0 118.0 161.0 115.9 L161.0 6.0 Q161.0 3.9 159.55 2.45 M156.0 0.0 Q158.5 0.0 160.25 1.75 162.0 3.5 162.0 6.0 L162.0 115.9 Q162.0 118.4 160.25 120.15 158.5 121.9 156.0 121.9 L6.0 121.9 Q3.5 121.9 1.75 120.15 0.0 118.4 0.0 115.9 L0.0 6.0 Q0.0 3.5 1.75 1.75 3.5 0.0 6.0 0.0 L156.0 0.0" fill="url(#gradient0)" fill-rule="evenodd" stroke="none"/>
  </g>
  <defs>
    <linearGradient gradientTransform="matrix(0.0585, 0.0795, -0.0598, 0.0441, 81.0, 60.95)" gradientUnits="userSpaceOnUse" id="gradient0" spreadMethod="pad" x1="-819.2" x2="819.2">
      <stop offset="0.45098039215686275" stop-color="#000000"/>
      <stop offset="0.5450980392156862" stop-color="#edf5f8"/>
    </linearGradient>
  </defs>
</svg>
