<?xml version="1.0" encoding="UTF-8" standalone="no"?>
<svg xmlns:xlink="http://www.w3.org/1999/xlink" height="16.25px" width="336.85px" xmlns="http://www.w3.org/2000/svg">
  <g transform="matrix(1.0, 0.0, 0.0, 1.0, -2.2, -3.3)">
    <path d="M338.25 7.4 Q338.25 8.4 337.7 9.25 337.15 10.1 336.1 10.55 337.5 10.9 338.25 11.9 339.05 12.9 339.05 14.45 339.05 16.5 337.55 17.95 336.05 19.4 333.75 19.4 331.65 19.4 330.3 18.15 328.9 16.9 328.7 14.95 L330.65 14.7 Q331.0 16.35 331.8 17.05 332.6 17.8 333.75 17.8 335.1 17.8 336.05 16.85 337.0 15.9 337.0 14.5 337.0 13.15 336.1 12.3 335.25 11.45 333.9 11.45 L332.55 11.65 332.75 9.95 333.05 9.95 Q334.3 9.95 335.3 9.3 336.3 8.7 336.3 7.35 336.3 6.25 335.55 5.6 334.85 4.9 333.7 4.9 332.55 4.9 331.8 5.6 331.05 6.3 330.85 7.7 L328.9 7.35 Q329.25 5.45 330.55 4.35 331.8 3.3 333.65 3.3 334.95 3.3 336.05 3.85 337.1 4.4 337.7 5.35 338.25 6.3 338.25 7.4 M322.3 9.85 L322.15 9.85 Q319.65 9.8 318.75 12.45 L318.75 19.45 317.4 19.45 317.4 8.7 318.75 8.7 318.75 10.6 Q319.9 8.6 322.3 8.65 L322.45 8.65 322.45 9.85 322.3 9.85 M309.85 8.6 L306.5 13.3 313.7 13.3 Q313.6 12.3 314.25 10.55 315.1 11.95 315.1 14.3 L312.85 14.3 308.75 14.3 306.5 14.3 Q306.55 16.35 307.6 17.45 308.55 18.45 310.1 18.45 312.75 18.45 313.55 16.0 L314.8 16.3 Q313.75 19.55 310.1 19.55 307.8 19.55 306.55 18.2 305.15 16.75 305.15 13.9 305.15 11.55 306.55 10.05 307.8 8.65 309.85 8.6 M295.1 8.7 L298.5 17.25 298.8 18.05 299.45 16.5 302.65 8.7 304.05 8.7 299.45 19.45 298.05 19.45 293.65 8.7 295.1 8.7 M293.35 9.85 L293.2 9.85 293.05 9.85 Q290.55 9.8 289.65 12.45 L289.65 19.45 288.3 19.45 288.3 8.7 289.65 8.7 289.65 10.6 Q290.8 8.6 293.2 8.65 L293.35 8.65 293.35 9.85 M283.75 14.3 L279.65 14.3 277.4 14.3 Q277.45 16.35 278.5 17.45 279.45 18.45 281.0 18.45 283.65 18.45 284.45 16.0 L285.7 16.3 Q284.65 19.55 281.0 19.55 278.7 19.55 277.45 18.2 276.05 16.75 276.05 13.9 276.05 11.55 277.45 10.05 278.8 8.55 281.0 8.6 286.0 8.6 286.0 14.3 L283.75 14.3 M278.55 10.75 Q277.5 11.8 277.4 13.3 L284.6 13.3 Q284.2 9.6 281.0 9.65 279.55 9.6 278.55 10.75 M263.85 5.95 Q262.7 6.6 262.7 7.8 262.7 8.8 263.3 9.3 264.05 9.9 266.1 10.15 L269.4 10.5 Q271.8 10.75 272.95 11.75 274.15 12.8 274.15 14.65 274.15 19.55 267.5 19.55 261.75 19.55 260.65 15.55 L260.6 15.0 262.3 14.5 262.35 15.15 Q263.35 18.25 267.55 18.25 272.55 18.25 272.55 14.85 272.55 12.25 269.0 11.75 L265.6 11.4 Q263.35 11.15 262.3 10.35 261.15 9.55 261.15 7.9 261.15 6.1 262.65 5.05 264.2 3.85 267.05 3.9 271.55 3.85 273.1 6.7 L273.25 7.0 271.8 7.55 271.65 7.25 Q270.25 5.2 267.0 5.25 264.95 5.2 263.85 5.95 M249.3 8.6 Q253.2 8.55 253.2 11.8 L253.2 17.4 Q253.2 18.45 253.8 18.5 L254.45 18.45 254.45 19.45 253.3 19.45 Q252.05 19.45 251.95 18.05 250.45 19.55 247.9 19.55 244.5 19.55 244.5 16.35 244.5 14.7 245.85 13.75 246.95 13.05 249.0 12.75 L251.35 12.15 Q251.85 11.9 251.85 11.4 251.85 10.6 251.25 10.2 250.6 9.65 249.3 9.7 246.85 9.65 245.85 11.7 L244.95 11.05 Q246.15 8.55 249.3 8.6 M250.85 17.7 Q251.75 16.95 251.8 15.75 L251.85 12.85 Q251.35 13.45 249.35 13.75 245.85 14.25 245.85 16.4 245.85 18.5 248.35 18.5 249.9 18.5 250.85 17.7 M242.25 5.2 L242.25 6.9 240.85 6.9 240.85 5.2 242.25 5.2 M237.75 4.05 L237.75 19.45 236.35 19.45 236.35 17.75 235.15 18.95 Q234.15 19.55 232.75 19.55 230.5 19.55 229.25 18.2 227.9 16.8 227.9 14.05 227.9 11.35 229.3 9.9 230.6 8.55 232.7 8.6 234.0 8.55 235.05 9.15 235.95 9.55 236.35 10.3 L236.35 4.05 237.75 4.05 M232.95 9.7 Q229.3 9.7 229.3 14.05 229.3 16.3 230.35 17.45 231.3 18.45 232.95 18.45 234.45 18.45 235.45 17.55 236.35 16.7 236.35 15.55 L236.35 12.45 Q236.3 11.3 235.3 10.5 234.25 9.65 232.95 9.7 M242.25 8.7 L242.25 19.45 240.85 19.45 240.85 8.7 242.25 8.7 M225.9 16.3 Q224.85 19.55 221.2 19.55 218.9 19.55 217.65 18.2 216.25 16.75 216.25 13.9 216.25 11.55 217.65 10.05 219.0 8.55 221.2 8.6 226.2 8.6 226.2 14.3 L223.95 14.3 219.85 14.3 217.6 14.3 Q217.65 16.35 218.7 17.45 219.65 18.45 221.2 18.45 223.85 18.45 224.65 16.0 L225.9 16.3 M218.75 10.75 Q217.7 11.8 217.6 13.3 L224.8 13.3 Q224.4 9.6 221.2 9.65 219.75 9.6 218.75 10.75 M212.05 7.2 L212.05 5.75 211.05 8.5 206.45 19.45 205.1 19.45 204.2 17.35 204.2 17.3 200.45 8.5 199.4 5.75 199.4 19.45 197.9 19.45 197.9 4.05 200.1 4.05 204.75 14.55 205.8 17.55 206.85 14.55 211.4 4.05 213.55 4.05 213.55 19.45 212.05 19.45 212.05 8.65 212.05 7.2 M153.8 9.9 L151.85 9.6 150.1 14.1 155.35 14.1 153.8 9.9 M143.4 17.15 L144.25 19.4 131.95 19.4 131.95 6.65 129.85 6.35 121.15 6.35 121.15 10.15 128.65 10.15 128.65 12.35 121.15 12.35 121.15 19.4 118.15 19.4 118.15 4.15 131.95 6.25 131.95 4.15 134.9 4.15 134.9 17.15 143.4 17.15 M148.1 19.4 L145.0 19.4 151.05 4.15 154.4 4.15 160.45 19.4 157.35 19.4 156.1 16.15 149.35 16.15 148.1 19.4 M152.7 6.9 L151.95 9.3 153.7 9.55 152.7 6.9 M174.75 7.25 L174.9 7.65 171.65 8.2 171.5 7.6 Q170.5 6.1 168.1 6.15 164.9 6.1 164.9 8.05 164.9 9.55 168.05 9.95 L170.5 10.25 Q174.4 10.8 175.4 12.9 L175.5 13.1 175.75 14.5 Q175.75 19.55 168.65 19.55 162.25 19.55 161.3 15.45 L161.3 14.9 164.85 14.35 164.95 15.1 Q165.65 17.4 168.9 17.4 172.6 17.4 172.6 14.9 172.6 12.85 169.4 12.4 L166.75 12.05 164.15 11.4 163.45 11.05 Q161.75 10.05 161.75 8.2 161.75 3.95 168.25 4.0 173.4 3.95 174.75 7.25 M188.85 9.95 L188.85 4.15 191.8 4.15 191.8 19.4 188.85 19.4 188.85 12.25 180.95 12.25 180.95 19.4 178.0 19.4 178.0 4.15 180.95 4.15 180.95 9.95 188.85 9.95 M193.75 4.2 Q194.8 4.15 194.8 5.25 194.8 6.3 193.75 6.3 192.7 6.3 192.7 5.25 192.7 4.15 193.75 4.2 M193.75 6.1 Q194.6 6.1 194.6 5.25 194.6 4.35 193.75 4.4 192.9 4.35 192.9 5.25 192.9 6.1 193.75 6.1 M193.55 4.8 L193.55 5.15 193.85 5.15 194.05 4.95 Q194.05 4.75 193.8 4.8 L193.55 4.8 M193.55 5.3 L193.55 5.85 193.3 5.85 193.3 4.65 193.9 4.65 Q194.3 4.6 194.3 5.0 L194.05 5.3 194.3 5.85 194.0 5.85 193.8 5.3 193.55 5.3 M110.1 10.8 L110.2 10.9 Q111.4 12.2 111.4 14.55 111.4 16.8 110.2 18.15 L110.1 18.25 Q108.85 19.45 106.8 19.45 104.6 19.45 103.4 18.25 102.15 17.0 102.15 14.55 102.15 12.2 103.4 10.9 104.7 9.6 106.8 9.6 108.9 9.6 110.1 10.8 M106.8 10.6 Q105.35 10.6 104.4 11.6 103.4 12.7 103.4 14.55 103.4 16.5 104.4 17.55 105.3 18.5 106.8 18.5 108.45 18.5 109.3 17.45 110.15 16.5 110.2 14.8 L110.2 14.45 Q110.15 12.55 109.15 11.55 108.25 10.6 106.8 10.6 M95.55 9.9 L97.2 9.9 97.2 7.25 98.45 6.65 98.45 9.9 100.5 9.9 100.5 10.95 98.45 10.95 98.45 16.7 Q98.45 18.35 99.65 18.35 L100.3 18.35 100.3 19.4 99.4 19.45 Q98.2 19.45 97.7 18.8 97.2 18.2 97.2 16.75 L97.2 10.95 95.55 10.95 95.55 9.9 M84.7 11.25 Q83.75 11.25 83.1 11.9 82.45 12.55 82.35 13.35 L87.0 13.35 Q86.85 12.3 86.25 11.8 85.65 11.25 84.7 11.25 M88.3 10.75 Q89.6 12.15 89.6 15.05 L82.35 15.05 Q82.35 16.25 83.05 17.0 83.65 17.65 84.7 17.65 86.4 17.65 86.85 15.9 L89.45 16.2 Q89.0 17.85 87.85 18.65 86.65 19.5 84.7 19.5 82.3 19.5 81.05 18.25 79.75 17.0 79.75 14.4 79.75 12.0 81.1 11.0 82.45 9.45 84.7 9.45 87.05 9.45 88.3 10.75 M73.35 11.5 Q72.45 11.5 71.9 12.15 71.4 12.65 71.4 13.4 L71.4 19.4 68.9 19.4 68.9 13.45 Q68.9 12.55 68.45 12.05 68.0 11.5 67.25 11.5 66.35 11.5 65.85 11.95 65.35 12.5 65.2 13.2 L65.2 19.4 62.6 19.4 62.6 9.55 65.2 9.55 65.2 10.8 Q65.4 10.3 66.05 9.9 66.95 9.45 68.0 9.45 69.0 9.45 69.8 9.9 70.6 10.3 70.85 10.95 71.25 10.3 71.95 9.9 72.85 9.45 74.1 9.45 75.9 9.45 76.85 10.8 77.6 11.5 77.6 13.3 L77.6 19.4 75.0 19.4 75.0 13.5 Q75.0 12.5 74.65 12.05 74.25 11.5 73.35 11.5 M59.25 10.7 Q60.6 11.95 60.6 14.45 60.6 16.9 59.25 18.2 57.9 19.5 55.5 19.5 53.05 19.5 51.75 18.2 50.45 16.95 50.45 14.45 50.45 12.0 51.75 10.7 53.05 9.45 55.5 9.45 57.95 9.45 59.25 10.7 M55.5 11.35 Q54.4 11.35 53.85 11.8 53.1 12.9 53.1 14.45 53.1 16.1 53.6 16.8 54.4 17.6 55.5 17.6 56.7 17.6 57.35 16.8 57.95 16.05 57.95 14.45 57.95 12.85 57.25 12.05 56.6 11.35 55.5 11.35 M42.75 12.05 Q42.1 12.8 42.1 14.5 42.1 16.1 42.8 17.15 43.4 17.6 44.4 17.6 45.3 17.6 45.8 17.15 46.35 16.7 46.65 15.55 L49.2 15.85 Q48.8 17.8 47.65 18.65 46.45 19.5 44.4 19.5 42.0 19.5 40.75 18.3 39.45 17.05 39.45 14.45 39.45 12.0 40.75 10.7 42.0 9.45 44.4 9.45 46.3 9.45 47.55 10.25 48.8 11.05 49.15 12.85 L46.55 13.15 Q46.3 12.2 45.75 11.75 45.25 11.35 44.4 11.35 43.3 11.35 42.75 12.05 M37.55 5.4 L37.55 19.4 34.95 19.4 34.95 5.4 37.55 5.4 M28.25 9.45 Q30.6 9.45 31.85 10.75 33.15 12.15 33.15 15.05 L25.9 15.05 Q25.9 16.25 26.6 17.0 27.2 17.65 28.25 17.65 29.95 17.65 30.4 15.9 L33.0 16.2 Q32.55 17.85 31.4 18.65 30.2 19.5 28.25 19.5 25.85 19.5 24.6 18.25 23.3 17.0 23.3 14.4 23.3 12.0 24.65 11.0 26.0 9.45 28.25 9.45 M26.65 11.9 Q26.0 12.55 25.9 13.35 L30.55 13.35 Q30.4 12.3 29.8 11.8 29.2 11.25 28.25 11.25 27.3 11.25 26.65 11.9 M12.25 10.35 L12.15 10.1 12.1 10.45 11.9 11.25 9.5 19.4 6.55 19.4 2.2 5.4 5.2 5.4 7.7 13.35 8.2 14.9 8.3 14.45 8.6 13.4 10.8 5.4 13.5 5.4 15.85 13.5 16.2 14.6 16.25 14.85 16.35 14.5 16.7 13.4 19.25 5.4 22.15 5.4 17.8 19.4 14.9 19.4 12.5 11.25 12.25 10.35" fill="#ffffff" fill-rule="evenodd" stroke="none"/>
  </g>
</svg>
