<?xml version="1.0" encoding="UTF-8" standalone="no"?>
<svg xmlns:xlink="http://www.w3.org/1999/xlink" height="15.0px" width="15.2px" xmlns="http://www.w3.org/2000/svg">
  <g transform="matrix(1.0, 0.0, 0.0, 1.0, 0.0, 0.0)">
    <path d="M0.0 15.0 L0.0 11.0 1.4 11.0 4.0 13.65 4.0 15.0 0.0 15.0" fill="#ffffcc" fill-rule="evenodd" stroke="none"/>
    <path d="M0.0 11.0 L0.0 15.0 4.0 15.0 4.0 14.0 1.0 14.0 1.0 11.0 0.0 11.0" fill="#999966" fill-rule="evenodd" stroke="none"/>
    <path d="M2.0 14.0 L1.0 14.0 1.0 13.0 0.0 13.0 0.0 15.0 2.0 15.0 2.0 14.0" fill="#343400" fill-rule="evenodd" stroke="none"/>
    <path d="M4.6 14.2 L1.05 10.7 11.65 0.05 15.2 3.6 4.6 14.2" fill="url(#gradient0)" fill-rule="evenodd" stroke="none"/>
    <path d="M3.85 13.5 L1.75 11.4 12.4 0.75 14.5 2.85 3.85 13.5" fill="url(#gradient1)" fill-rule="evenodd" stroke="none"/>
    <path d="M1.75 11.4 L12.4 0.75 13.1 1.45 2.45 12.1 1.75 11.4" fill="#ffffff" fill-rule="evenodd" stroke="none"/>
    <path d="M10.25 1.4 L13.8 4.95 13.1 5.65 9.55 2.1 10.25 1.4" fill="url(#gradient2)" fill-rule="evenodd" stroke="none"/>
    <path d="M13.05 0.0 L15.2 2.15 14.5 2.85 15.2 3.55 13.8 4.95 10.25 1.4 11.65 0.0 12.35 0.7 13.05 0.0" fill="url(#gradient3)" fill-rule="evenodd" stroke="none"/>
    <path d="M12.35 0.7 L14.5 2.85 13.1 4.25 10.95 2.1 12.35 0.7" fill="#f99b9b" fill-rule="evenodd" stroke="none"/>
    <path d="M12.35 0.7 L13.1 1.45 11.7 2.85 10.95 2.1 12.35 0.7" fill="#ffcccc" fill-rule="evenodd" stroke="none"/>
  </g>
  <defs>
    <linearGradient gradientTransform="matrix(0.0022, 0.0022, -0.0022, 0.0022, 6.0, 9.25)" gradientUnits="userSpaceOnUse" id="gradient0" spreadMethod="pad" x1="-819.2" x2="819.2">
      <stop offset="0.0" stop-color="#fcae52"/>
      <stop offset="1.0" stop-color="#cd7101"/>
    </linearGradient>
    <linearGradient gradientTransform="matrix(0.0014, 0.0013, -0.0013, 0.0013, 6.0, 9.25)" gradientUnits="userSpaceOnUse" id="gradient1" spreadMethod="pad" x1="-819.2" x2="819.2">
      <stop offset="0.0" stop-color="#fdd962"/>
      <stop offset="1.0" stop-color="#fcad2e"/>
    </linearGradient>
    <linearGradient gradientTransform="matrix(0.0022, 0.0022, -7.0E-4, 7.0E-4, 11.7, 3.55)" gradientUnits="userSpaceOnUse" id="gradient2" spreadMethod="pad" x1="-819.2" x2="819.2">
      <stop offset="0.0" stop-color="#808080"/>
      <stop offset="1.0" stop-color="#555555"/>
    </linearGradient>
    <linearGradient gradientTransform="matrix(0.0022, 0.0022, -0.0014, 0.0014, 12.75, 2.5)" gradientUnits="userSpaceOnUse" id="gradient3" spreadMethod="pad" x1="-819.2" x2="819.2">
      <stop offset="0.0" stop-color="#c16665"/>
      <stop offset="1.0" stop-color="#a94545"/>
    </linearGradient>
  </defs>
</svg>
