<?xml version="1.0" encoding="UTF-8" standalone="no"?>
<svg xmlns:xlink="http://www.w3.org/1999/xlink" height="10.9px" width="8.3px" xmlns="http://www.w3.org/2000/svg">
  <g transform="matrix(1.0, 0.0, 0.0, 1.0, 0.0, 0.0)">
    <path d="M4.2 5.2 L4.4 5.2 5.05 5.3 Q6.7 5.7 7.35 6.35 7.8 6.9 7.8 8.3 L7.8 8.35 7.7 9.85 7.7 9.95 7.2 10.4 6.7 10.4 6.7 9.05 6.2 9.05 6.2 10.4 5.15 10.4 4.9 10.4 4.3 10.4 4.05 10.4 2.3 10.4 2.3 9.05 1.85 9.05 1.85 10.4 1.55 10.4 1.4 10.4 1.3 10.4 1.15 10.4 Q0.6 10.35 0.6 9.95 L0.6 9.85 0.5 8.35 0.5 8.3 Q0.5 6.9 0.95 6.35 1.75 5.55 4.05 5.15 L4.2 5.2" fill="#99d176" fill-rule="evenodd" stroke="none"/>
    <path d="M7.7 6.05 Q8.3 6.7 8.3 8.3 L8.2 9.95 Q8.15 10.85 7.2 10.9 L5.15 10.9 4.9 10.9 4.3 10.9 4.05 10.9 1.1 10.9 Q0.15 10.85 0.15 9.95 L0.0 8.3 Q0.0 6.7 0.6 6.05 1.5 5.1 4.05 4.7 L4.3 4.75 4.3 4.7 5.15 4.85 Q7.0 5.25 7.7 6.05 M4.2 5.2 L4.05 5.15 Q1.75 5.55 0.95 6.35 0.5 6.9 0.5 8.3 L0.5 8.35 0.6 9.85 0.6 9.95 Q0.6 10.35 1.15 10.4 L1.3 10.4 1.4 10.4 1.55 10.4 1.85 10.4 1.85 9.05 2.3 9.05 2.3 10.4 4.05 10.4 4.3 10.4 4.9 10.4 5.15 10.4 6.2 10.4 6.2 9.05 6.7 9.05 6.7 10.4 7.2 10.4 7.7 9.95 7.7 9.85 7.8 8.35 7.8 8.3 Q7.8 6.9 7.35 6.35 6.7 5.7 5.05 5.3 L4.4 5.2 4.2 5.2" fill="#27560a" fill-rule="evenodd" stroke="none"/>
    <path d="M0.95 6.35 Q1.75 5.55 4.05 5.15 L4.2 5.2 4.4 5.2 5.05 5.3 Q6.7 5.7 7.35 6.35 7.65 6.75 7.75 7.5 4.3 6.15 0.55 7.5 0.65 6.75 0.95 6.35" fill="#bdf39c" fill-rule="evenodd" stroke="none"/>
    <path d="M4.2 5.2 L4.4 5.2 5.05 5.3 Q6.7 5.7 7.35 6.35 7.65 6.75 7.75 7.5 L0.55 7.5 Q0.65 6.75 0.95 6.35 1.75 5.55 4.05 5.15 L4.2 5.2" fill="url(#gradient0)" fill-rule="evenodd" stroke="none"/>
    <path d="M7.2 3.15 Q7.2 4.45 6.35 5.35 5.45 6.25 4.25 6.3 3.05 6.25 2.2 5.35 1.3 4.45 1.35 3.15 1.3 1.85 2.2 0.9 3.05 0.0 4.25 0.0 5.45 0.0 6.35 0.9 7.2 1.85 7.2 3.15 M6.7 3.15 Q6.7 2.05 5.95 1.25 5.25 0.5 4.25 0.5 3.3 0.5 2.6 1.25 1.85 2.05 1.85 3.15 1.85 4.25 2.6 5.05 3.3 5.8 4.25 5.85 5.25 5.8 5.95 5.05 6.7 4.25 6.7 3.15" fill="#666666" fill-rule="evenodd" stroke="none"/>
    <path d="M6.7 3.15 Q6.7 4.25 5.95 5.05 5.25 5.8 4.25 5.85 3.3 5.8 2.6 5.05 1.85 4.25 1.85 3.15 1.85 2.05 2.6 1.25 3.3 0.5 4.25 0.5 5.25 0.5 5.95 1.25 6.7 2.05 6.7 3.15" fill="url(#gradient1)" fill-rule="evenodd" stroke="none"/>
    <path d="M5.55 1.15 Q6.1 1.65 6.1 2.3 6.1 2.95 5.55 3.45 5.0 3.9 4.25 3.9 L2.95 3.45 Q2.35 2.95 2.4 2.3 2.35 1.65 2.95 1.15 3.45 0.7 4.25 0.7 5.0 0.7 5.55 1.15" fill="url(#gradient2)" fill-rule="evenodd" stroke="none"/>
  </g>
  <defs>
    <radialGradient cx="0" cy="0" gradientTransform="matrix(0.0036, 0.0, 0.0, 0.0046, 4.3, 4.7)" gradientUnits="userSpaceOnUse" id="gradient0" r="819.2" spreadMethod="pad">
      <stop offset="0.0" stop-color="#000000"/>
      <stop offset="0.21176470588235294" stop-color="#000000" stop-opacity="0.7607843"/>
      <stop offset="0.6509803921568628" stop-color="#858585" stop-opacity="0.5803922"/>
      <stop offset="1.0" stop-color="#ffffff" stop-opacity="0.0"/>
    </radialGradient>
    <linearGradient gradientTransform="matrix(0.0, 0.0033, -0.0033, 0.0, 4.25, 3.15)" gradientUnits="userSpaceOnUse" id="gradient1" spreadMethod="pad" x1="-819.2" x2="819.2">
      <stop offset="0.27058823529411763" stop-color="#afafaf"/>
      <stop offset="1.0" stop-color="#efefef"/>
    </linearGradient>
    <linearGradient gradientTransform="matrix(0.0, 0.002, -0.0026, 0.0, 4.25, 2.3)" gradientUnits="userSpaceOnUse" id="gradient2" spreadMethod="pad" x1="-819.2" x2="819.2">
      <stop offset="0.27058823529411763" stop-color="#ffffff"/>
      <stop offset="0.788235294117647" stop-color="#ffffff" stop-opacity="0.4509804"/>
    </linearGradient>
  </defs>
</svg>
