<?xml version="1.0" encoding="UTF-8" standalone="no"?>
<svg xmlns:xlink="http://www.w3.org/1999/xlink" height="11.0px" width="11.0px" xmlns="http://www.w3.org/2000/svg">
  <g transform="matrix(1.0, 0.0, 0.0, 1.0, 0.0, 0.0)">
    <path d="M11.0 3.0 L10.0 3.0 10.0 11.0 1.0 11.0 1.0 3.0 0.0 3.0 0.0 1.0 1.0 1.0 1.0 0.0 10.0 0.0 10.0 1.0 11.0 1.0 11.0 3.0 M8.0 3.0 L8.0 9.0 7.0 9.0 7.0 3.0 6.0 3.0 6.0 9.0 5.0 9.0 5.0 3.0 4.0 3.0 4.0 9.0 3.0 9.0 3.0 3.0 2.0 3.0 2.0 10.0 9.0 10.0 9.0 3.0 8.0 3.0 M10.0 1.0 L1.0 1.0 1.0 2.0 10.0 2.0 10.0 1.0" fill="#233143" fill-rule="evenodd" stroke="none"/>
    <path d="M8.0 3.0 L9.0 3.0 9.0 10.0 2.0 10.0 2.0 3.0 3.0 3.0 3.0 9.0 4.0 9.0 4.0 3.0 5.0 3.0 5.0 9.0 6.0 9.0 6.0 3.0 7.0 3.0 7.0 9.0 8.0 9.0 8.0 3.0" fill="url(#gradient0)" fill-rule="evenodd" stroke="none"/>
  </g>
  <defs>
    <linearGradient gradientTransform="matrix(0.0, 0.0043, -0.0043, 0.0, 5.5, 6.5)" gradientUnits="userSpaceOnUse" id="gradient0" spreadMethod="pad" x1="-819.2" x2="819.2">
      <stop offset="0.0" stop-color="#335c8e"/>
      <stop offset="0.4196078431372549" stop-color="#4a598a" stop-opacity="0.18039216"/>
    </linearGradient>
  </defs>
</svg>
