<?xml version="1.0" encoding="UTF-8" standalone="no"?>
<svg xmlns:xlink="http://www.w3.org/1999/xlink" height="20.0px" width="15.0px" xmlns="http://www.w3.org/2000/svg">
  <g transform="matrix(1.0, 0.0, 0.0, 1.0, 0.0, 0.0)">
    <path d="M0.0 6.7 L0.0 1.0 15.0 1.0 15.0 6.7 0.0 6.7" fill="url(#gradient0)" fill-rule="evenodd" stroke="none"/>
    <path d="M0.0 1.0 L0.0 0.0 15.0 0.0 15.0 1.0 0.0 1.0" fill="url(#gradient1)" fill-rule="evenodd" stroke="none"/>
    <path d="M15.0 19.0 L15.0 20.0 0.0 20.0 0.0 19.0 15.0 19.0" fill="url(#gradient2)" fill-rule="evenodd" stroke="none"/>
    <path d="M15.0 11.9 L15.0 19.0 0.0 19.0 0.0 11.9 15.0 11.9" fill="url(#gradient3)" fill-rule="evenodd" stroke="none"/>
    <path d="M0.0 11.9 L0.0 6.7 15.0 6.7 15.0 11.9 0.0 11.9" fill="url(#gradient4)" fill-rule="evenodd" stroke="none"/>
    <path d="M0.0 6.7 L0.0 1.0 15.0 1.0 15.0 6.7 0.0 6.7" fill="url(#gradient5)" fill-rule="evenodd" stroke="none"/>
    <path d="M15.0 6.7 L15.0 9.05 0.0 9.05 0.0 6.7 15.0 6.7" fill="url(#gradient6)" fill-rule="evenodd" stroke="none"/>
  </g>
  <defs>
    <linearGradient gradientTransform="matrix(0.0, 0.0122, -0.0122, 0.0, 27.95, 11.0)" gradientUnits="userSpaceOnUse" id="gradient0" spreadMethod="pad" x1="-819.2" x2="819.2">
      <stop offset="0.2901960784313726" stop-color="#a7cfe7"/>
      <stop offset="0.8274509803921568" stop-color="#9bc2dc"/>
    </linearGradient>
    <linearGradient gradientTransform="matrix(0.0, 0.0134, -0.0134, 0.0, 27.95, 11.0)" gradientUnits="userSpaceOnUse" id="gradient1" spreadMethod="pad" x1="-819.2" x2="819.2">
      <stop offset="0.6509803921568628" stop-color="#ffffff"/>
      <stop offset="0.9725490196078431" stop-color="#dcdcdc"/>
    </linearGradient>
    <linearGradient gradientTransform="matrix(0.0, 0.0135, -0.0134, 0.0, 27.95, 8.95)" gradientUnits="userSpaceOnUse" id="gradient2" spreadMethod="pad" x1="-819.2" x2="819.2">
      <stop offset="0.6509803921568628" stop-color="#ffffff"/>
      <stop offset="0.9725490196078431" stop-color="#dcdcdc"/>
    </linearGradient>
    <linearGradient gradientTransform="matrix(0.0, 0.0123, -0.0122, 0.0, 27.95, 8.95)" gradientUnits="userSpaceOnUse" id="gradient3" spreadMethod="pad" x1="-819.2" x2="819.2">
      <stop offset="0.29411764705882354" stop-color="#a7cfe7"/>
      <stop offset="0.8274509803921568" stop-color="#9bc2dc"/>
    </linearGradient>
    <linearGradient gradientTransform="matrix(0.0, 0.0123, -0.0122, 0.0, 27.95, 9.05)" gradientUnits="userSpaceOnUse" id="gradient4" spreadMethod="pad" x1="-819.2" x2="819.2">
      <stop offset="0.29411764705882354" stop-color="#a7cfe7"/>
      <stop offset="0.8274509803921568" stop-color="#9bc2dc"/>
    </linearGradient>
    <linearGradient gradientTransform="matrix(0.0, 0.0073, -0.0122, 0.0, 26.95, 6.0)" gradientUnits="userSpaceOnUse" id="gradient5" spreadMethod="pad" x1="-819.2" x2="819.2">
      <stop offset="0.08235294117647059" stop-color="#fafdfe" stop-opacity="0.3019608"/>
      <stop offset="0.8274509803921568" stop-color="#ffffff" stop-opacity="0.4509804"/>
    </linearGradient>
    <linearGradient gradientTransform="matrix(0.0, 0.0074, -0.0122, 0.0, 26.95, 4.0)" gradientUnits="userSpaceOnUse" id="gradient6" spreadMethod="pad" x1="-819.2" x2="819.2">
      <stop offset="0.08235294117647059" stop-color="#fafdfe" stop-opacity="0.3019608"/>
      <stop offset="0.8274509803921568" stop-color="#ffffff" stop-opacity="0.4509804"/>
    </linearGradient>
  </defs>
</svg>
