<?xml version="1.0" encoding="UTF-8" standalone="no"?>
<svg xmlns:xlink="http://www.w3.org/1999/xlink" height="12.5px" width="12.5px" xmlns="http://www.w3.org/2000/svg">
  <g transform="matrix(1.0, 0.0, 0.0, 1.0, 0.0, 0.0)">
    <path d="M2.65 8.5 L8.5 2.65 Q7.5 2.0 6.25 2.0 4.5 2.0 3.25 3.2 L3.2 3.25 Q2.0 4.5 2.0 6.25 2.0 7.5 2.65 8.5 M10.65 1.8 Q12.5 3.65 12.5 6.25 12.5 8.85 10.65 10.65 8.85 12.5 6.25 12.5 3.65 12.5 1.8 10.65 0.0 8.85 0.0 6.25 0.0 3.65 1.8 1.8 3.65 0.0 6.25 0.0 8.85 0.0 10.65 1.8 M9.25 9.25 Q10.5 8.0 10.5 6.25 10.5 5.0 9.9 4.05 L4.05 9.9 Q5.0 10.5 6.25 10.5 8.0 10.5 9.25 9.25" fill="#233245" fill-rule="evenodd" stroke="none"/>
  </g>
</svg>
