<?xml version="1.0" encoding="UTF-8" standalone="no"?>
<svg xmlns:xlink="http://www.w3.org/1999/xlink" height="13.3px" width="14.9px" xmlns="http://www.w3.org/2000/svg">
  <g transform="matrix(1.0, 0.0, 0.0, 1.0, -0.5, 0.0)">
    <path d="M15.4 6.55 L13.75 6.55 13.75 6.65 Q13.75 9.4 11.8 11.35 9.85 13.3 7.15 13.3 4.4 13.3 2.45 11.35 0.5 9.4 0.5 6.65 0.5 3.9 2.45 1.95 4.4 0.0 7.15 0.0 8.7 0.0 10.05 0.65 L8.8 2.85 7.15 2.55 Q5.45 2.55 4.25 3.75 3.05 4.95 3.05 6.65 3.05 8.35 4.25 9.55 5.45 10.8 7.15 10.8 8.85 10.8 10.05 9.55 11.3 8.35 11.3 6.65 L11.3 6.55 9.55 6.55 12.55 1.6 15.4 6.55" fill="#233245" fill-rule="evenodd" stroke="none"/>
  </g>
</svg>
