<?xml version="1.0" encoding="UTF-8" standalone="no"?>
<svg xmlns:xlink="http://www.w3.org/1999/xlink" height="14.0px" width="18.0px" xmlns="http://www.w3.org/2000/svg">
  <g transform="matrix(1.0, 0.0, 0.0, 1.0, 0.0, 0.0)">
    <path d="M4.0 6.0 L4.0 4.0 5.0 4.0 5.0 5.0 6.0 5.0 6.0 6.0 7.0 6.0 7.0 7.0 8.0 7.0 8.0 8.0 7.0 8.0 7.0 9.0 6.0 9.0 6.0 10.0 5.0 10.0 5.0 11.0 4.0 11.0 4.0 9.0 0.0 9.0 0.0 6.0 4.0 6.0 M12.0 0.0 L12.0 5.0 11.0 5.0 11.0 0.0 12.0 0.0 M10.0 5.0 L10.0 6.0 9.0 6.0 9.0 5.0 8.0 5.0 8.0 4.0 9.0 4.0 9.0 5.0 10.0 5.0 M14.0 5.0 L14.0 4.0 15.0 4.0 15.0 5.0 14.0 5.0 14.0 6.0 13.0 6.0 13.0 5.0 14.0 5.0 M13.0 7.0 L18.0 7.0 18.0 8.0 13.0 8.0 13.0 7.0 M14.0 9.0 L14.0 10.0 15.0 10.0 15.0 11.0 14.0 11.0 14.0 10.0 13.0 10.0 13.0 9.0 14.0 9.0 M12.0 9.0 L12.0 14.0 11.0 14.0 11.0 9.0 12.0 9.0 M10.0 9.0 L10.0 10.0 9.0 10.0 9.0 11.0 8.0 11.0 8.0 10.0 9.0 10.0 9.0 9.0 10.0 9.0" fill="#233245" fill-rule="evenodd" stroke="none"/>
  </g>
</svg>
