<?xml version="1.0" encoding="UTF-8" standalone="no"?>
<svg xmlns:xlink="http://www.w3.org/1999/xlink" height="15.0px" width="16.0px" xmlns="http://www.w3.org/2000/svg">
  <g transform="matrix(1.0, 0.0, 0.0, 1.0, 0.0, 0.0)">
    <path d="M8.0 6.0 L7.0 6.0 7.0 5.0 8.0 5.0 8.0 4.0 9.0 4.0 9.0 5.0 8.0 5.0 8.0 6.0" fill="#000000" fill-rule="evenodd" stroke="none"/>
    <path d="M8.0 12.0 L7.0 12.0 7.0 11.0 8.0 11.0 8.0 12.0" fill="#3e4e60" fill-rule="evenodd" stroke="none"/>
    <path d="M7.0 5.0 L7.0 4.0 8.0 4.0 8.0 3.0 9.0 3.0 9.0 2.0 12.0 2.0 12.0 1.0 13.0 1.0 13.0 0.0 15.0 0.0 15.0 2.0 16.0 2.0 16.0 3.0 15.0 3.0 15.0 4.0 14.0 4.0 14.0 7.0 13.0 7.0 13.0 8.0 12.0 8.0 12.0 9.0 10.0 9.0 10.0 8.0 9.0 8.0 9.0 7.0 8.0 7.0 8.0 6.0 10.0 6.0 10.0 7.0 11.0 7.0 11.0 4.0 9.0 4.0 8.0 4.0 8.0 5.0 7.0 5.0 M3.0 8.0 L4.0 8.0 4.0 7.0 6.0 7.0 6.0 8.0 7.0 8.0 7.0 9.0 8.0 9.0 8.0 10.0 9.0 10.0 9.0 12.0 8.0 12.0 8.0 13.0 7.0 13.0 7.0 14.0 4.0 14.0 4.0 15.0 0.0 15.0 0.0 14.0 1.0 14.0 1.0 12.0 2.0 12.0 2.0 9.0 3.0 9.0 3.0 8.0 M5.0 9.0 L4.0 9.0 4.0 11.0 7.0 11.0 7.0 10.0 6.0 10.0 6.0 8.0 5.0 8.0 5.0 9.0 M8.0 12.0 L8.0 11.0 7.0 11.0 7.0 12.0 8.0 12.0" fill="#233141" fill-rule="evenodd" stroke="none"/>
  </g>
</svg>
