<?xml version="1.0" encoding="UTF-8" standalone="no"?>
<svg xmlns:xlink="http://www.w3.org/1999/xlink" height="11.0px" width="18.0px" xmlns="http://www.w3.org/2000/svg">
  <g transform="matrix(1.0, 0.0, 0.0, 1.0, 0.4, 0.0)">
    <path d="M8.6 5.0 L8.6 8.0 5.6 8.0 5.6 11.0 2.6 11.0 2.6 8.0 -0.4 8.0 -0.4 5.0 2.6 5.0 2.6 2.0 5.6 2.0 5.6 5.0 8.6 5.0" fill="#233141" fill-rule="evenodd" stroke="none"/>
    <path d="M13.6 7.0 L13.6 9.0 15.6 9.0 15.6 10.0 9.6 10.0 9.6 9.0 11.6 9.0 11.6 7.0 9.6 7.0 9.6 6.0 16.6 6.0 16.6 1.0 8.6 1.0 8.6 4.0 7.6 4.0 7.6 0.0 17.6 0.0 17.6 7.0 13.6 7.0" fill="#233141" fill-rule="evenodd" stroke="none"/>
  </g>
</svg>
