<?xml version="1.0" encoding="UTF-8" standalone="no"?>
<svg xmlns:xlink="http://www.w3.org/1999/xlink" height="11.1px" width="18.0px" xmlns="http://www.w3.org/2000/svg">
  <g transform="matrix(1.0, 0.0, 0.0, 1.0, 0.4, 0.0)">
    <path d="M8.6 5.1 L8.6 8.1 5.6 8.1 5.6 11.1 2.6 11.1 2.6 8.1 -0.4 8.1 -0.4 5.1 2.6 5.1 2.6 2.05 5.6 2.05 5.6 5.1 8.6 5.1" fill="#233141" fill-rule="evenodd" stroke="none"/>
    <path d="M12.6 1.0 L8.6 1.0 8.6 2.0 12.6 2.0 12.6 1.0 13.6 1.0 13.6 2.0 17.6 2.0 17.6 10.05 7.6 10.05 7.6 9.05 16.6 9.05 16.6 3.0 8.6 3.0 8.6 4.05 7.6 4.05 7.6 1.0 8.6 1.0 8.6 0.0 12.6 0.0 12.6 1.0" fill="#233141" fill-rule="evenodd" stroke="none"/>
  </g>
</svg>
