<?xml version="1.0" encoding="UTF-8" standalone="no"?>
<svg xmlns:xlink="http://www.w3.org/1999/xlink" height="22.1px" width="28.1px" xmlns="http://www.w3.org/2000/svg">
  <g transform="matrix(1.0, 0.0, 0.0, 1.0, 0.0, -1.0)">
    <path d="M0.0 4.85 L0.0 2.65 Q0.0 2.25 0.3 1.95 L0.35 1.95 0.6 1.6 Q1.2 1.0 2.0 1.0 L10.65 1.0 Q11.45 1.0 12.05 1.6 L12.35 1.95 12.65 2.65 12.65 2.95 22.2 2.95 Q23.0 2.95 23.6 3.55 24.15 4.1 24.2 4.85 L26.25 4.85 Q26.95 4.9 27.5 5.45 28.1 6.05 28.1 6.85 L28.1 19.1 Q28.1 20.75 26.95 21.9 L26.9 21.95 Q25.75 23.1 24.1 23.1 L3.55 23.1 Q1.95 23.05 0.8 21.9 L0.15 21.05 0.0 20.55 0.0 4.95 0.0 4.85" fill="url(#gradient0)" fill-rule="evenodd" stroke="none"/>
    <path d="M0.7 19.95 L0.7 4.65 0.7 4.55 0.7 2.35 0.8 2.35 1.0 2.0 Q1.3 1.7 1.7 1.7 L10.35 1.7 Q10.75 1.7 11.05 2.0 L11.3 2.35 11.35 2.35 11.35 3.65 21.8 3.65 Q22.2 3.65 22.5 3.95 L22.8 4.65 22.8 5.55 13.45 5.55 Q13.05 5.55 12.75 5.85 12.45 6.15 12.45 6.55 L12.45 8.2 4.15 8.2 Q3.75 8.2 3.45 8.5 3.15 8.8 3.15 9.2 L3.15 19.75 2.8 20.55 1.95 20.9 1.9 20.9 Q1.4 20.9 1.05 20.55 L0.75 19.95 0.7 19.95" fill="url(#gradient1)" fill-rule="evenodd" stroke="none"/>
    <path d="M0.7 19.95 L0.75 19.95 1.05 20.55 Q1.4 20.9 1.9 20.9 L1.95 20.9 2.8 20.55 3.15 19.75 3.15 9.2 Q3.15 8.8 3.45 8.5 3.75 8.2 4.15 8.2 L12.45 8.2 12.45 6.55 Q12.45 6.15 12.75 5.85 13.05 5.55 13.45 5.55 L22.8 5.55 25.8 5.55 26.25 5.65 26.5 5.85 26.8 6.55 26.8 18.8 Q26.8 20.05 25.9 20.9 25.05 21.8 23.8 21.8 L3.25 21.8 Q2.05 21.75 1.2 20.9 L0.7 20.25 0.6 20.05 0.6 19.95 0.7 19.95" fill="url(#gradient2)" fill-rule="evenodd" stroke="none"/>
    <path d="M4.15 8.2 L12.45 8.2 12.45 6.55 Q12.45 6.15 12.75 5.85 13.05 5.55 13.45 5.55 L25.8 5.55 26.25 5.65 26.5 5.85 26.8 6.55 26.8 18.8 Q26.8 20.05 25.9 20.9 25.05 21.8 23.8 21.8 L3.25 21.8 Q2.05 21.75 1.2 20.9 L0.7 20.25 0.6 20.05 0.6 19.95 0.75 19.95 1.05 20.55 Q1.4 20.9 1.9 20.9 L1.95 20.9 2.8 20.55 3.15 19.75 3.15 9.2 Q3.15 8.8 3.45 8.5 3.75 8.2 4.15 8.2" fill="url(#gradient3)" fill-rule="evenodd" stroke="none"/>
    <path d="M13.15 8.9 L13.45 8.2 13.45 6.55 25.8 6.55 25.8 15.65 Q21.55 17.75 15.9 17.05 L4.15 16.45 4.15 9.2 12.45 9.2 13.15 8.9" fill="url(#gradient4)" fill-rule="evenodd" stroke="none"/>
  </g>
  <defs>
    <linearGradient gradientTransform="matrix(0.0, 0.0135, -0.0135, 0.0, 14.1, 12.1)" gradientUnits="userSpaceOnUse" id="gradient0" spreadMethod="pad" x1="-819.2" x2="819.2">
      <stop offset="0.03137254901960784" stop-color="#7297bc"/>
      <stop offset="1.0" stop-color="#3e7cbb"/>
    </linearGradient>
    <linearGradient gradientTransform="matrix(0.0, 0.0135, -0.0117, 0.0, 11.75, 11.3)" gradientUnits="userSpaceOnUse" id="gradient1" spreadMethod="pad" x1="-819.2" x2="819.2">
      <stop offset="0.29411764705882354" stop-color="#a7cfe7"/>
      <stop offset="0.8274509803921568" stop-color="#9bc2dc"/>
    </linearGradient>
    <linearGradient gradientTransform="matrix(0.0, 0.0099, -0.0099, 0.0, 13.7, 13.7)" gradientUnits="userSpaceOnUse" id="gradient2" spreadMethod="pad" x1="-819.2" x2="819.2">
      <stop offset="0.0" stop-color="#3a98f3"/>
      <stop offset="0.8196078431372549" stop-color="#b3e4f7"/>
      <stop offset="1.0" stop-color="#78a0e0"/>
    </linearGradient>
    <linearGradient gradientTransform="matrix(0.0, 0.0099, -0.0099, 0.0, 13.7, 13.7)" gradientUnits="userSpaceOnUse" id="gradient3" spreadMethod="pad" x1="-819.2" x2="819.2">
      <stop offset="0.29411764705882354" stop-color="#acdef0"/>
      <stop offset="0.8274509803921568" stop-color="#99c6f0"/>
    </linearGradient>
    <linearGradient gradientTransform="matrix(0.0, 0.0099, -0.0099, 0.0, 13.7, 13.7)" gradientUnits="userSpaceOnUse" id="gradient4" spreadMethod="pad" x1="-819.2" x2="819.2">
      <stop offset="0.0" stop-color="#ffffff" stop-opacity="0.8"/>
      <stop offset="0.8196078431372549" stop-color="#ffffff" stop-opacity="0.2509804"/>
      <stop offset="1.0" stop-color="#ffffff" stop-opacity="0.0"/>
    </linearGradient>
  </defs>
</svg>
