<?xml version="1.0" encoding="UTF-8" standalone="no"?>
<svg xmlns:xlink="http://www.w3.org/1999/xlink" height="25.4px" width="25.4px" xmlns="http://www.w3.org/2000/svg">
  <g transform="matrix(1.0, 0.0, 0.0, 1.0, 0.0, 0.0)">
    <path d="M24.4 12.7 Q24.4 7.85 21.0 4.45 17.55 1.0 12.7 1.0 7.85 1.0 4.45 4.45 1.0 7.85 1.0 12.7 1.0 17.55 4.45 21.0 7.85 24.4 12.7 24.4 17.55 24.4 21.0 21.0 24.4 17.55 24.4 12.7 M25.4 12.7 Q25.4 17.95 21.7 21.7 17.95 25.4 12.7 25.4 7.45 25.4 3.75 21.7 0.0 17.95 0.0 12.7 0.0 7.45 3.75 3.75 7.45 0.0 12.7 0.0 17.95 0.0 21.7 3.75 25.4 7.45 25.4 12.7" fill="url(#gradient0)" fill-rule="evenodd" stroke="none"/>
    <path d="M20.3 20.3 Q23.4 17.1 23.4 12.7 23.4 8.3 20.3 5.15 17.1 2.0 12.7 2.0 8.3 2.0 5.15 5.15 2.0 8.3 2.0 12.7 2.0 17.1 5.15 20.3 8.3 23.4 12.7 23.4 17.1 23.4 20.3 20.3 M24.4 12.7 Q24.4 17.55 21.0 21.0 17.55 24.4 12.7 24.4 7.85 24.4 4.45 21.0 1.0 17.55 1.0 12.7 1.0 7.85 4.45 4.45 7.85 1.0 12.7 1.0 17.55 1.0 21.0 4.45 24.4 7.85 24.4 12.7" fill="url(#gradient1)" fill-rule="evenodd" stroke="none"/>
    <path d="M20.3 20.3 Q17.1 23.4 12.7 23.4 8.3 23.4 5.15 20.3 2.0 17.1 2.0 12.7 2.0 8.3 5.15 5.15 8.3 2.0 12.7 2.0 17.1 2.0 20.3 5.15 23.4 8.3 23.4 12.7 23.4 17.1 20.3 20.3" fill="url(#gradient2)" fill-rule="evenodd" stroke="none"/>
    <path d="M5.85 5.85 Q8.7 3.0 12.7 3.0 16.7 3.0 19.55 5.85 22.4 8.7 22.4 12.7 22.4 16.7 19.55 19.55 16.7 22.4 12.7 22.4 8.7 22.4 5.85 19.55 3.0 16.7 3.0 12.7 3.0 8.7 5.85 5.85" fill="url(#gradient3)" fill-rule="evenodd" stroke="none"/>
    <path d="M14.75 4.6 Q15.25 5.65 14.2 7.1 13.15 8.45 11.25 9.35 9.3 10.25 7.55 10.2 5.8 10.05 5.3 9.0 4.75 7.9 5.85 6.5 6.9 5.1 8.85 4.2 10.75 3.3 12.5 3.4 14.25 3.5 14.75 4.6" fill="url(#gradient4)" fill-rule="evenodd" stroke="none"/>
    <path d="M19.4 16.55 Q20.3 16.85 20.15 17.85 20.05 18.8 18.95 19.8 17.85 20.8 16.5 21.3 L14.2 21.5 Q13.25 21.15 13.4 20.2 13.5 19.2 14.6 18.2 15.65 17.2 17.05 16.75 L19.4 16.55" fill="url(#gradient5)" fill-rule="evenodd" stroke="none"/>
    <path d="M11.6 8.55 Q10.85 9.05 10.75 10.0 L10.75 10.9 6.25 10.65 6.25 9.8 Q6.55 7.6 8.3 6.5 10.05 5.4 12.95 5.4 16.15 5.4 17.85 6.45 19.55 7.55 19.55 9.65 19.55 11.2 18.8 12.1 L16.4 13.6 Q15.55 14.1 15.25 14.45 14.85 14.85 14.8 15.35 L14.8 16.15 10.95 16.15 10.95 15.1 Q10.95 13.05 13.5 11.65 L14.9 10.55 Q15.25 10.1 15.25 9.25 15.25 8.7 14.8 8.4 14.35 8.05 13.3 8.05 12.3 8.05 11.6 8.55 M15.0 17.25 L15.0 21.1 10.85 21.1 10.85 17.25 15.0 17.25" fill="#000033" fill-opacity="0.5019608" fill-rule="evenodd" stroke="none"/>
    <path d="M12.9 7.65 Q11.9 7.65 11.2 8.15 10.45 8.65 10.35 9.6 L10.35 10.5 5.85 10.25 5.85 9.4 Q6.15 7.2 7.9 6.1 9.65 5.0 12.55 5.0 15.75 5.0 17.45 6.05 19.15 7.15 19.15 9.25 19.15 10.8 18.4 11.7 17.7 12.45 16.0 13.2 L14.85 14.05 Q14.45 14.45 14.4 14.95 L14.4 15.75 10.55 15.75 10.55 14.7 Q10.55 12.65 13.1 11.25 L14.5 10.15 Q14.85 9.7 14.85 8.85 14.85 8.3 14.4 8.0 13.95 7.65 12.9 7.65" fill="url(#gradient6)" fill-rule="evenodd" stroke="none"/>
    <path d="M14.6 16.85 L14.6 20.7 10.45 20.7 10.45 16.85 14.6 16.85" fill="#c6e6f5" fill-rule="evenodd" stroke="none"/>
  </g>
  <defs>
    <linearGradient gradientTransform="matrix(0.0, 0.0155, -0.0155, 0.0, 12.7, 12.7)" gradientUnits="userSpaceOnUse" id="gradient0" spreadMethod="pad" x1="-819.2" x2="819.2">
      <stop offset="0.03137254901960784" stop-color="#b0c5d9"/>
      <stop offset="1.0" stop-color="#3e7cbb"/>
    </linearGradient>
    <radialGradient cx="0" cy="0" gradientTransform="matrix(0.0215, 0.0, 0.0, 0.0215, 8.3, 5.8)" gradientUnits="userSpaceOnUse" id="gradient1" r="819.2" spreadMethod="pad">
      <stop offset="0.0784313725490196" stop-color="#fbfdfd"/>
      <stop offset="1.0" stop-color="#cae0f0"/>
    </radialGradient>
    <linearGradient gradientTransform="matrix(-0.005, -0.0121, 0.0121, -0.005, 12.7, 12.7)" gradientUnits="userSpaceOnUse" id="gradient2" spreadMethod="pad" x1="-819.2" x2="819.2">
      <stop offset="0.396078431372549" stop-color="#fbfdfd"/>
      <stop offset="1.0" stop-color="#1c4b64"/>
    </linearGradient>
    <radialGradient cx="0" cy="0" gradientTransform="matrix(0.0141, 0.0, 0.0, 0.0125, 13.9, 14.25)" gradientUnits="userSpaceOnUse" id="gradient3" r="819.2" spreadMethod="pad">
      <stop offset="0.0" stop-color="#63aee4"/>
      <stop offset="0.14901960784313725" stop-color="#589bbe"/>
      <stop offset="0.596078431372549" stop-color="#3c7298"/>
      <stop offset="1.0" stop-color="#264072"/>
    </radialGradient>
    <radialGradient cx="0" cy="0" gradientTransform="matrix(0.0059, -0.0027, 0.002, 0.0043, 9.45, 5.55)" gradientUnits="userSpaceOnUse" id="gradient4" r="819.2" spreadMethod="pad">
      <stop offset="0.1607843137254902" stop-color="#6cb6ff"/>
      <stop offset="1.0" stop-color="#afe3fe" stop-opacity="0.0"/>
    </radialGradient>
    <radialGradient cx="0" cy="0" gradientTransform="matrix(-0.0042, 0.0015, 5.0E-4, -0.0038, 16.65, 20.05)" gradientUnits="userSpaceOnUse" id="gradient5" r="819.2" spreadMethod="pad">
      <stop offset="0.1607843137254902" stop-color="#6cb6ff"/>
      <stop offset="1.0" stop-color="#afe3fe" stop-opacity="0.0"/>
    </radialGradient>
    <radialGradient cx="0" cy="0" gradientTransform="matrix(0.0186, -0.0068, 0.0041, 0.0112, 10.0, 5.7)" gradientUnits="userSpaceOnUse" id="gradient6" r="819.2" spreadMethod="pad">
      <stop offset="0.12156862745098039" stop-color="#ffffff"/>
      <stop offset="0.4980392156862745" stop-color="#daecf7"/>
      <stop offset="1.0" stop-color="#a3cce3"/>
    </radialGradient>
  </defs>
</svg>
