<?xml version="1.0" encoding="UTF-8" standalone="no"?>
<svg xmlns:xlink="http://www.w3.org/1999/xlink" height="24.0px" width="19.0px" xmlns="http://www.w3.org/2000/svg">
  <g transform="matrix(1.0, 0.0, 0.0, 1.0, 0.0, 0.0)">
    <path d="M14.9 2.1 Q13.3 0.5 11.0 0.5 L8.0 0.5 Q5.7 0.5 4.1 2.1 2.5 3.7 2.5 6.0 L2.5 10.0 Q2.5 12.3 4.1 13.9 5.7 15.5 8.0 15.5 L11.0 15.5 Q13.3 15.5 14.9 13.9 16.5 12.3 16.5 10.0 L16.5 6.0 Q16.5 3.7 14.9 2.1 M11.0 2.5 Q12.45 2.5 13.5 3.55 14.5 4.55 14.5 6.0 L14.5 10.0 Q14.5 11.45 13.5 12.5 12.45 13.5 11.0 13.5 L8.0 13.5 Q6.55 13.5 5.55 12.5 4.5 11.45 4.5 10.0 L4.5 6.0 Q4.5 4.55 5.55 3.55 6.55 2.5 8.0 2.5 L11.0 2.5 M11.0 0.0 Q13.5 0.0 15.25 1.75 17.0 3.5 17.0 6.0 L17.0 10.0 Q17.0 12.5 15.25 14.25 13.5 16.0 11.0 16.0 L8.0 16.0 Q5.5 16.0 3.75 14.25 2.0 12.5 2.0 10.0 L2.0 6.0 Q2.0 3.5 3.75 1.75 5.5 0.0 8.0 0.0 L11.0 0.0 M13.15 3.9 Q12.25 3.0 11.0 3.0 L8.0 3.0 Q6.75 3.0 5.9 3.9 5.0 4.75 5.0 6.0 L5.0 10.0 Q5.0 11.25 5.9 12.15 6.75 13.0 8.0 13.0 L11.0 13.0 Q12.25 13.0 13.15 12.15 14.0 11.25 14.0 10.0 L14.0 6.0 Q14.0 4.75 13.15 3.9" fill="#5c6c80" fill-rule="evenodd" stroke="none"/>
    <path d="M11.0 2.5 L8.0 2.5 Q6.55 2.5 5.55 3.55 4.5 4.55 4.5 6.0 L4.5 10.0 Q4.5 11.45 5.55 12.5 6.55 13.5 8.0 13.5 L11.0 13.5 Q12.45 13.5 13.5 12.5 14.5 11.45 14.5 10.0 L14.5 6.0 Q14.5 4.55 13.5 3.55 12.45 2.5 11.0 2.5 M14.9 2.1 Q16.5 3.7 16.5 6.0 L16.5 10.0 Q16.5 12.3 14.9 13.9 13.3 15.5 11.0 15.5 L8.0 15.5 Q5.7 15.5 4.1 13.9 2.5 12.3 2.5 10.0 L2.5 6.0 Q2.5 3.7 4.1 2.1 5.7 0.5 8.0 0.5 L11.0 0.5 Q13.3 0.5 14.9 2.1" fill="url(#gradient0)" fill-rule="evenodd" stroke="none"/>
    <path d="M18.6 23.2 L18.4 23.4 Q17.8 24.0 17.0 24.0 L2.0 24.0 Q1.2 24.0 0.6 23.4 L0.45 23.2 18.6 23.2" fill="#4f5466" fill-rule="evenodd" stroke="none"/>
    <path d="M0.45 23.2 Q0.0 22.65 0.0 22.0 L0.0 13.0 Q0.0 12.2 0.6 11.6 1.2 11.0 2.0 11.0 L17.0 11.0 Q17.8 11.0 18.4 11.6 19.0 12.2 19.0 13.0 L19.0 22.0 Q19.0 22.65 18.6 23.2 L0.45 23.2" fill="url(#gradient1)" fill-rule="evenodd" stroke="none"/>
    <path d="M2.0 12.0 L17.0 12.0 17.7 12.3 18.0 13.0 18.0 22.0 18.0 22.2 1.05 22.2 1.0 22.0 1.0 13.0 Q1.0 12.6 1.3 12.3 1.6 12.0 2.0 12.0" fill="url(#gradient2)" fill-rule="evenodd" stroke="none"/>
    <path d="M3.2 13.0 L16.2 13.0 16.2 14.0 3.2 14.0 3.2 13.0" fill="url(#gradient3)" fill-rule="evenodd" stroke="none"/>
    <path d="M3.2 17.0 L16.2 17.0 16.2 18.0 3.2 18.0 3.2 17.0" fill="url(#gradient4)" fill-rule="evenodd" stroke="none"/>
    <path d="M3.2 19.0 L16.2 19.0 16.2 20.0 3.2 20.0 3.2 19.0" fill="url(#gradient5)" fill-rule="evenodd" stroke="none"/>
    <path d="M3.2 21.0 L16.2 21.0 16.2 22.0 3.2 22.0 3.2 21.0" fill="url(#gradient6)" fill-rule="evenodd" stroke="none"/>
    <path d="M3.2 15.0 L16.2 15.0 16.2 16.0 3.2 16.0 3.2 15.0" fill="url(#gradient7)" fill-rule="evenodd" stroke="none"/>
  </g>
  <defs>
    <linearGradient gradientTransform="matrix(0.0, 0.0085, -0.0092, 0.0, 9.5, 8.0)" gradientUnits="userSpaceOnUse" id="gradient0" spreadMethod="pad" x1="-819.2" x2="819.2">
      <stop offset="0.0" stop-color="#ffffff"/>
      <stop offset="0.1843137254901961" stop-color="#57626a"/>
      <stop offset="0.5294117647058824" stop-color="#8c9cae"/>
      <stop offset="0.7450980392156863" stop-color="#acc1cc"/>
    </linearGradient>
    <linearGradient gradientTransform="matrix(0.0116, 0.0, 0.0, 0.0079, 9.5, 17.5)" gradientUnits="userSpaceOnUse" id="gradient1" spreadMethod="pad" x1="-819.2" x2="819.2">
      <stop offset="0.0" stop-color="#ccd2da"/>
      <stop offset="0.1450980392156863" stop-color="#8b97a3"/>
      <stop offset="0.34901960784313724" stop-color="#bcc1c7"/>
      <stop offset="1.0" stop-color="#2e404b"/>
    </linearGradient>
    <linearGradient gradientTransform="matrix(0.0116, 0.0, 0.0, 0.0079, 9.5, 17.5)" gradientUnits="userSpaceOnUse" id="gradient2" spreadMethod="pad" x1="-819.2" x2="819.2">
      <stop offset="0.0" stop-color="#ffffff" stop-opacity="0.0"/>
      <stop offset="0.12156862745098039" stop-color="#ffffff"/>
      <stop offset="0.5294117647058824" stop-color="#ffffff" stop-opacity="0.23137255"/>
      <stop offset="0.8117647058823529" stop-color="#ffffff" stop-opacity="0.0"/>
      <stop offset="1.0" stop-color="#ffffff" stop-opacity="0.5019608"/>
    </linearGradient>
    <linearGradient gradientTransform="matrix(0.0079, 0.0, 0.0, 6.0E-4, 9.7, 13.5)" gradientUnits="userSpaceOnUse" id="gradient3" spreadMethod="pad" x1="-819.2" x2="819.2">
      <stop offset="0.0" stop-color="#acc1cc" stop-opacity="0.0"/>
      <stop offset="0.7490196078431373" stop-color="#57626a"/>
    </linearGradient>
    <linearGradient gradientTransform="matrix(0.0079, 0.0, 0.0, 6.0E-4, 9.7, 17.5)" gradientUnits="userSpaceOnUse" id="gradient4" spreadMethod="pad" x1="-819.2" x2="819.2">
      <stop offset="0.0" stop-color="#acc1cc" stop-opacity="0.0"/>
      <stop offset="0.7490196078431373" stop-color="#57626a"/>
    </linearGradient>
    <linearGradient gradientTransform="matrix(0.0079, 0.0, 0.0, 6.0E-4, 9.7, 19.5)" gradientUnits="userSpaceOnUse" id="gradient5" spreadMethod="pad" x1="-819.2" x2="819.2">
      <stop offset="0.0" stop-color="#acc1cc" stop-opacity="0.0"/>
      <stop offset="0.7490196078431373" stop-color="#57626a"/>
    </linearGradient>
    <linearGradient gradientTransform="matrix(0.0079, 0.0, 0.0, 6.0E-4, 9.7, 21.5)" gradientUnits="userSpaceOnUse" id="gradient6" spreadMethod="pad" x1="-819.2" x2="819.2">
      <stop offset="0.0" stop-color="#acc1cc" stop-opacity="0.0"/>
      <stop offset="0.7490196078431373" stop-color="#57626a"/>
    </linearGradient>
    <linearGradient gradientTransform="matrix(0.0079, 0.0, 0.0, 6.0E-4, 9.7, 15.5)" gradientUnits="userSpaceOnUse" id="gradient7" spreadMethod="pad" x1="-819.2" x2="819.2">
      <stop offset="0.0" stop-color="#acc1cc" stop-opacity="0.0"/>
      <stop offset="0.7490196078431373" stop-color="#57626a"/>
    </linearGradient>
  </defs>
</svg>
