<?xml version="1.0" encoding="UTF-8" standalone="no"?>
<svg xmlns:xlink="http://www.w3.org/1999/xlink" height="44.2px" width="55.75px" xmlns="http://www.w3.org/2000/svg">
  <g transform="matrix(1.0, 0.0, 0.0, 1.0, 0.0, 0.0)">
    <path d="M25.85 10.25 L15.8 0.5 15.25 0.45 15.15 0.55 Q15.05 1.1 15.65 1.8 L20.65 8.85 20.65 8.8 23.45 13.6 Q24.65 15.75 25.9 17.25 L25.35 17.8 Q24.05 16.25 22.7 13.95 L22.1 12.9 19.95 9.2 14.95 2.2 Q14.2 1.3 14.35 0.55 14.5 -0.3 15.95 0.2 17.05 0.6 22.0 4.7 26.95 8.8 28.15 9.2 29.15 9.5 31.05 12.05 L30.95 12.2 Q29.15 9.85 28.3 9.55 27.05 9.2 22.0 5.0 L16.75 0.95 26.1 9.95 25.95 10.05 25.85 10.25 M27.05 18.5 L28.25 19.5 30.4 20.95 30.65 19.9 30.75 19.7 30.9 19.55 34.65 17.85 31.95 13.6 32.05 13.5 33.85 16.15 34.65 17.45 34.95 18.2 30.8 20.1 30.35 22.0 30.2 21.7 27.7 20.05 26.5 19.05 27.05 18.5" fill="url(#gradient0)" fill-rule="evenodd" stroke="none"/>
    <path d="M25.9 17.25 Q24.65 15.75 23.45 13.6 L20.65 8.8 20.65 8.85 15.65 1.8 Q15.05 1.1 15.15 0.55 L15.25 0.45 15.8 0.5 25.85 10.25 25.95 10.8 Q26.1 11.25 26.6 11.65 27.05 12.0 27.55 12.15 L28.25 12.0 Q28.5 11.75 28.3 11.25 L27.65 10.4 26.7 9.9 26.1 9.95 16.75 0.95 22.0 5.0 Q27.05 9.2 28.3 9.55 29.15 9.85 30.95 12.2 L31.95 13.6 34.65 17.85 30.9 19.55 30.75 19.7 30.65 19.9 30.4 20.95 28.25 19.5 27.05 18.5 25.9 17.25" fill="url(#gradient1)" fill-rule="evenodd" stroke="none"/>
    <path d="M22.1 12.9 L22.7 13.95 Q24.05 16.25 25.35 17.8 L22.6 20.55 22.25 20.05 19.3 16.15 13.85 10.25 Q13.05 9.5 13.2 8.9 13.2 8.25 13.9 8.5 L14.9 8.65 Q16.0 8.85 21.3 12.4 L22.1 12.9 M18.15 30.1 Q19.3 28.45 21.1 27.55 21.9 26.7 22.0 25.6 L24.95 23.25 23.7 21.9 26.5 19.05 27.7 20.05 30.2 21.7 30.35 22.0 32.95 30.2 Q34.2 33.6 38.75 38.2 43.9 43.5 48.35 44.15 43.8 43.6 38.75 39.55 34.1 35.85 32.9 33.2 L30.1 26.6 30.0 26.45 27.4 25.1 26.1 24.3 21.2 28.2 21.65 29.4 Q21.6 30.3 20.8 31.1 18.9 31.75 17.75 33.05 L17.8 33.25 Q17.75 34.5 16.65 35.5 L7.25 42.95 6.6 43.35 7.35 42.75 17.0 33.15 Q18.15 31.95 18.15 30.25 L18.15 30.1 M0.25 39.25 L0.25 39.6 Q0.25 41.3 1.4 42.45 L1.7 42.75 Q2.85 43.9 4.55 43.85 L5.15 43.85 4.5 43.9 Q2.7 43.8 1.6 42.95 L1.3 42.8 Q0.0 41.75 0.05 40.5 -0.05 39.8 0.25 39.25 M33.85 16.15 L34.2 15.85 34.2 15.2 Q34.15 14.7 34.65 14.55 L38.25 11.75 Q38.4 11.5 38.85 11.55 39.2 11.45 39.45 11.7 L40.45 12.5 40.7 13.0 40.45 13.6 37.0 16.45 36.25 16.75 35.45 16.8 34.65 17.45 33.85 16.15 M55.65 38.3 L55.75 39.55 55.6 40.55 Q55.0 42.5 54.55 42.35 54.05 41.95 53.7 39.95 53.2 37.75 51.1 35.0 48.95 32.25 44.1 30.1 37.05 26.75 35.9 26.85 L35.6 26.95 Q35.2 25.65 35.1 24.55 L35.1 23.8 35.55 24.0 35.6 24.0 37.6 24.2 Q38.9 24.3 43.7 26.8 46.3 28.05 48.05 29.2 49.85 30.8 51.0 32.6 53.2 36.05 53.6 38.8 54.0 41.55 54.55 41.9 55.05 42.25 55.5 39.6 L55.65 38.3" fill="#000000" fill-opacity="0.3019608" fill-rule="evenodd" stroke="none"/>
    <path d="M14.35 26.0 Q15.8 24.85 16.8 23.2 17.65 22.3 18.95 22.3 L20.45 22.7 21.1 23.2 21.1 23.25 21.65 23.9 Q22.0 24.55 22.0 25.4 L22.0 25.6 Q21.9 26.7 21.1 27.55 19.3 28.45 18.15 30.1 L18.1 29.7 Q19.25 28.2 21.0 27.3 L21.75 25.85 21.75 25.4 21.45 24.1 20.95 23.4 20.9 23.4 20.25 22.9 Q19.65 22.55 18.95 22.55 17.8 22.55 17.0 23.35 16.05 24.9 14.7 26.05 L14.35 26.0" fill="#d3b405" fill-rule="evenodd" stroke="none"/>
    <path d="M14.7 26.05 Q16.05 24.9 17.0 23.35 17.8 22.55 18.95 22.55 19.65 22.55 20.25 22.9 L20.9 23.4 20.95 23.4 21.45 24.1 21.75 25.4 21.75 25.85 21.0 27.3 Q19.25 28.2 18.1 29.7 17.95 28.4 17.0 27.45 L16.7 27.2 Q15.8 26.3 14.7 26.05" fill="url(#gradient2)" fill-rule="evenodd" stroke="none"/>
    <path d="M14.35 26.0 L14.7 26.05 Q15.8 26.3 16.7 27.2 L17.0 27.45 Q17.95 28.4 18.1 29.7 L18.15 30.1 18.15 30.25 Q18.15 31.95 17.0 33.15 L7.35 42.75 6.6 43.35 5.15 43.85 4.55 43.85 Q2.85 43.9 1.7 42.75 L1.4 42.45 Q0.25 41.3 0.25 39.6 L0.25 39.25 Q0.35 37.85 1.4 36.8 L11.05 27.2 Q12.2 26.0 13.85 26.0 L14.35 26.0 M11.2 31.9 L14.75 28.3 Q15.65 27.55 15.55 27.2 15.8 26.65 15.15 26.45 L14.4 26.3 14.0 26.3 13.95 26.3 Q13.35 26.3 13.05 26.6 L9.5 30.2 1.95 37.7 1.8 37.9 Q1.65 38.15 1.65 38.45 L2.05 39.3 2.1 39.3 Q2.45 39.65 2.9 39.65 L3.65 39.4 11.2 31.9" fill="url(#gradient3)" fill-rule="evenodd" stroke="none"/>
    <path d="M9.5 30.2 L13.05 26.6 Q13.35 26.3 13.95 26.3 L14.0 26.3 14.4 26.3 15.15 26.45 Q15.8 26.65 15.55 27.2 15.65 27.55 14.75 28.3 L11.2 31.9 9.5 30.2" fill="url(#gradient4)" fill-rule="evenodd" stroke="none"/>
    <path d="M9.5 30.2 L11.2 31.9 3.65 39.4 2.9 39.65 Q2.45 39.65 2.1 39.3 L2.05 39.3 1.65 38.45 Q1.65 38.15 1.8 37.9 L1.95 37.7 9.5 30.2" fill="url(#gradient5)" fill-rule="evenodd" stroke="none"/>
    <path d="M38.75 4.05 L38.75 4.1 38.5 4.15 34.75 7.75 34.5 8.2 34.45 8.65 34.5 9.1 34.5 9.15 34.6 9.8 35.15 9.85 35.2 9.85 35.75 9.8 36.1 9.75 36.05 9.8 36.5 9.55 40.0 5.8 40.15 5.4 40.15 5.3 40.05 5.25 38.95 4.15 38.9 4.05 38.75 4.05 M34.3 8.8 L34.35 8.0 Q34.35 7.6 34.7 7.3 L38.15 4.0 Q38.35 3.7 38.75 3.7 39.15 3.65 39.3 3.9 L40.3 4.9 40.5 5.45 40.25 6.05 37.0 9.6 36.3 9.95 35.5 10.05 35.45 10.05 Q34.15 10.25 34.3 8.85 L34.3 8.8" fill="url(#gradient6)" fill-rule="evenodd" stroke="none"/>
    <path d="M38.75 4.05 L38.9 4.05 38.95 4.15 40.05 5.25 40.15 5.3 40.15 5.4 40.0 5.8 36.5 9.55 36.05 9.8 36.1 9.75 35.75 9.8 35.2 9.85 35.15 9.85 34.6 9.8 34.5 9.15 34.5 9.1 34.45 8.65 34.5 8.2 34.75 7.75 38.5 4.15 38.75 4.1 38.75 4.05" fill="url(#gradient7)" fill-rule="evenodd" stroke="none"/>
    <path d="M26.1 9.95 L26.7 9.9 27.65 10.4 28.3 11.25 Q28.5 11.75 28.25 12.0 L27.55 12.15 Q27.05 12.0 26.6 11.65 26.1 11.25 25.95 10.8 L25.85 10.25 25.95 10.05 26.1 9.95" fill="url(#gradient8)" fill-rule="evenodd" stroke="none"/>
    <path d="M25.9 17.25 L27.05 18.5 26.5 19.05 23.7 21.9 21.65 23.9 21.1 23.25 21.1 23.2 20.45 22.7 22.6 20.55 25.35 17.8 25.9 17.25 M31.95 13.6 L30.95 12.2 31.05 12.05 34.3 8.8 34.3 8.85 Q34.15 10.25 35.45 10.05 L35.5 10.05 32.05 13.5 31.95 13.6" fill="url(#gradient9)" fill-rule="evenodd" stroke="none"/>
    <path d="M48.35 44.15 Q43.9 43.5 38.75 38.2 34.2 33.6 32.95 30.2 L30.35 22.0 30.8 20.1 34.95 18.2 35.2 18.4 31.55 20.05 31.15 21.55 33.75 29.65 Q34.95 32.95 39.4 37.45 44.75 42.95 49.3 43.3 L49.35 43.3 49.25 43.15 Q48.9 42.4 48.2 42.3 46.95 42.2 42.8 37.75 L42.85 37.8 Q46.85 42.05 47.95 42.2 48.95 42.35 49.4 43.35 L49.55 43.75 49.55 43.8 49.55 43.9 Q49.55 44.3 48.95 44.2 L48.35 44.15 M35.65 18.7 L35.7 18.7 37.55 18.95 Q38.9 19.3 43.55 22.2 48.2 25.05 49.95 27.2 53.5 31.55 54.75 34.25 55.65 36.25 55.65 38.3 L55.5 39.6 Q55.05 42.25 54.55 41.9 54.0 41.55 53.6 38.8 53.2 36.05 51.0 32.6 49.85 30.8 48.05 29.2 46.3 27.6 43.95 26.2 37.1 22.1 35.95 22.2 35.15 22.3 35.1 23.8 L35.1 24.55 Q35.2 25.65 35.6 26.95 L36.95 30.2 37.95 31.85 36.8 30.05 Q35.1 26.8 34.9 24.2 34.7 21.35 36.2 21.3 37.4 21.15 44.5 25.4 49.4 28.35 51.7 31.9 54.0 35.5 54.4 38.35 L54.95 40.8 55.3 39.15 Q55.7 36.6 54.6 34.05 53.35 31.4 49.9 27.15 48.15 25.0 43.6 22.2 39.05 19.4 37.75 19.05 L36.1 18.8 35.65 18.7" fill="url(#gradient10)" fill-rule="evenodd" stroke="none"/>
    <path d="M35.2 18.4 L35.65 18.7 36.1 18.8 37.75 19.05 Q39.05 19.4 43.6 22.2 48.15 25.0 49.9 27.15 53.35 31.4 54.6 34.05 55.7 36.6 55.3 39.15 L54.95 40.8 54.4 38.35 Q54.0 35.5 51.7 31.9 49.4 28.35 44.5 25.4 37.4 21.15 36.2 21.3 34.7 21.35 34.9 24.2 35.1 26.8 36.8 30.05 L37.95 31.85 42.8 37.75 Q46.95 42.2 48.2 42.3 48.9 42.4 49.25 43.15 L49.35 43.3 49.3 43.3 Q44.75 42.95 39.4 37.45 34.95 32.95 33.75 29.65 L31.15 21.55 31.55 20.05 35.2 18.4" fill="#e22533" fill-rule="evenodd" stroke="none"/>
  </g>
  <defs>
    <linearGradient gradientTransform="matrix(0.0126, 0.0, 0.0, 0.0134, 24.65, 11.0)" gradientUnits="userSpaceOnUse" id="gradient0" spreadMethod="pad" x1="-819.2" x2="819.2">
      <stop offset="0.0" stop-color="#5a626d"/>
      <stop offset="1.0" stop-color="#aaaaaa"/>
    </linearGradient>
    <linearGradient gradientTransform="matrix(0.0119, 0.0, 0.0, 0.0125, 24.9, 10.7)" gradientUnits="userSpaceOnUse" id="gradient1" spreadMethod="pad" x1="-819.2" x2="819.2">
      <stop offset="0.0" stop-color="#a0a0a0"/>
      <stop offset="1.0" stop-color="#f5f5f5"/>
    </linearGradient>
    <linearGradient gradientTransform="matrix(0.0027, 0.0027, -0.0049, 0.0049, 17.1, 27.2)" gradientUnits="userSpaceOnUse" id="gradient2" spreadMethod="pad" x1="-819.2" x2="819.2">
      <stop offset="0.0" stop-color="#fbde37"/>
      <stop offset="0.10588235294117647" stop-color="#fdecb0"/>
      <stop offset="0.5882352941176471" stop-color="#fbde37"/>
      <stop offset="0.9686274509803922" stop-color="#d3a505"/>
    </linearGradient>
    <linearGradient gradientTransform="matrix(0.0036, 0.0036, -0.0093, 0.0093, 9.15, 34.95)" gradientUnits="userSpaceOnUse" id="gradient3" spreadMethod="pad" x1="-819.2" x2="819.2">
      <stop offset="0.0" stop-color="#303a49"/>
      <stop offset="0.5882352941176471" stop-color="#06091c"/>
      <stop offset="1.0" stop-color="#030517"/>
    </linearGradient>
    <linearGradient gradientTransform="matrix(0.001, 0.001, -0.0082, 0.0082, 7.95, 33.35)" gradientUnits="userSpaceOnUse" id="gradient4" spreadMethod="pad" x1="-819.2" x2="819.2">
      <stop offset="0.0" stop-color="#ffffff" stop-opacity="0.0"/>
      <stop offset="0.25098039215686274" stop-color="#ffffff" stop-opacity="0.5019608"/>
      <stop offset="1.0" stop-color="#ffffff" stop-opacity="0.0"/>
    </linearGradient>
    <linearGradient gradientTransform="matrix(0.001, 0.001, -0.0082, 0.0082, 8.8, 32.5)" gradientUnits="userSpaceOnUse" id="gradient5" spreadMethod="pad" x1="-819.2" x2="819.2">
      <stop offset="0.0" stop-color="#ffffff" stop-opacity="0.0"/>
      <stop offset="0.25098039215686274" stop-color="#ffffff" stop-opacity="0.5019608"/>
      <stop offset="1.0" stop-color="#ffffff" stop-opacity="0.0"/>
    </linearGradient>
    <linearGradient gradientTransform="matrix(0.0014, 0.0014, -0.0033, 0.0033, 37.15, 7.15)" gradientUnits="userSpaceOnUse" id="gradient6" spreadMethod="pad" x1="-819.2" x2="819.2">
      <stop offset="0.0" stop-color="#ececec"/>
      <stop offset="0.07058823529411765" stop-color="#d0d1dd"/>
      <stop offset="1.0" stop-color="#676767"/>
    </linearGradient>
    <linearGradient gradientTransform="matrix(0.0011, 0.0011, -0.0031, 0.0031, 37.05, 7.25)" gradientUnits="userSpaceOnUse" id="gradient7" spreadMethod="pad" x1="-819.2" x2="819.2">
      <stop offset="0.0" stop-color="#ececec"/>
      <stop offset="0.07058823529411765" stop-color="#ffffff"/>
      <stop offset="1.0" stop-color="#dadada"/>
    </linearGradient>
    <radialGradient cx="0" cy="0" gradientTransform="matrix(0.0018, 0.0015, -0.0015, 0.0018, 26.7, 11.7)" gradientUnits="userSpaceOnUse" id="gradient8" r="819.2" spreadMethod="pad">
      <stop offset="0.0" stop-color="#000000"/>
      <stop offset="1.0" stop-color="#737373"/>
    </radialGradient>
    <linearGradient gradientTransform="matrix(7.0E-4, 7.0E-4, -0.011, 0.011, 28.1, 16.3)" gradientUnits="userSpaceOnUse" id="gradient9" spreadMethod="pad" x1="-819.2" x2="819.2">
      <stop offset="0.0" stop-color="#b0bbc8"/>
      <stop offset="0.1843137254901961" stop-color="#e7e7ea"/>
      <stop offset="0.615686274509804" stop-color="#d0d1dd"/>
      <stop offset="1.0" stop-color="#242731"/>
    </linearGradient>
    <linearGradient gradientTransform="matrix(0.0124, -0.0091, 0.0094, 0.0128, 42.95, 31.2)" gradientUnits="userSpaceOnUse" id="gradient10" spreadMethod="pad" x1="-819.2" x2="819.2">
      <stop offset="0.0" stop-color="#621717"/>
      <stop offset="1.0" stop-color="#710f0f"/>
    </linearGradient>
  </defs>
</svg>
