<?xml version="1.0" encoding="UTF-8" standalone="no"?>
<svg xmlns:xlink="http://www.w3.org/1999/xlink" height="41.1px" width="62.55px" xmlns="http://www.w3.org/2000/svg">
  <g transform="matrix(1.0, 0.0, 0.0, 1.0, 0.0, 0.0)">
    <path d="M45.15 23.65 L28.7 1.2 Q28.35 0.75 27.8 0.7 27.15 0.65 26.7 1.05 L26.1 1.1 Q25.8 1.25 25.75 1.7 25.15 2.0 25.05 2.6 24.85 3.15 25.15 3.6 L37.9 23.25 37.3 23.25 31.2 13.85 30.85 13.35 28.8 10.1 27.85 8.7 27.0 7.35 24.75 3.9 Q24.3 3.25 24.55 2.45 24.75 1.7 25.45 1.3 L25.5 1.3 25.55 1.25 Q27.1 0.1 27.8 0.2 L27.85 0.2 Q28.6 0.3 29.1 0.85 L29.1 0.9 30.7 3.0 31.2 3.75 32.2 5.1 34.05 7.6 34.35 8.05 37.35 12.15 45.8 23.7 45.15 23.65 M52.8 41.0 L50.45 39.1 50.4 39.05 48.3 38.65 Q47.05 38.25 46.3 37.1 L45.95 36.65 46.6 36.65 46.7 36.85 Q47.35 37.85 48.45 38.2 L50.55 38.55 50.8 38.75 Q52.9 40.9 53.4 40.55 53.8 40.25 52.5 37.55 L52.4 37.35 52.35 37.3 52.45 37.25 52.5 37.0 53.0 37.0 52.9 37.3 52.95 37.35 53.25 37.95 Q54.4 40.6 53.7 40.95 L53.25 41.1 52.8 41.0" fill="#000066" fill-rule="evenodd" stroke="none"/>
    <path d="M37.9 23.25 L25.15 3.6 Q24.85 3.15 25.05 2.6 25.15 2.0 25.75 1.7 25.8 1.25 26.1 1.1 L26.7 1.05 Q27.15 0.65 27.8 0.7 28.35 0.75 28.7 1.2 L45.15 23.65 40.6 23.4 26.55 2.8 Q26.4 2.55 26.2 2.6 L25.8 2.7 25.5 3.1 25.55 3.45 38.55 23.3 37.9 23.25 M38.15 15.2 L38.3 15.1 28.25 1.15 27.15 1.9 27.25 2.05 27.1 2.15 37.05 16.35 38.3 15.5 38.15 15.2 M50.55 38.55 L48.45 38.2 Q47.35 37.85 46.7 36.85 L46.6 36.65 47.35 36.7 47.45 36.9 Q47.7 37.25 48.1 37.4 L48.95 37.35 49.2 36.8 52.5 37.0 52.45 37.25 52.35 37.3 50.55 38.55" fill="url(#gradient0)" fill-rule="evenodd" stroke="none"/>
    <path d="M38.55 23.3 L25.55 3.45 25.5 3.1 25.8 2.7 26.2 2.6 Q26.4 2.55 26.55 2.8 L40.6 23.4 38.55 23.3 M49.2 36.8 L48.95 37.35 48.1 37.4 Q47.7 37.25 47.45 36.9 L47.35 36.7 49.2 36.8" fill="url(#gradient1)" fill-rule="evenodd" stroke="none"/>
    <path d="M37.35 12.15 L34.35 8.05 34.85 7.1 34.9 7.1 Q35.5 6.2 36.7 6.1 L37.15 6.05 Q37.85 6.0 38.5 6.45 L38.75 6.55 Q39.45 6.9 39.7 7.85 39.75 8.7 39.2 9.55 L37.35 12.15 M31.2 13.85 L37.3 23.25 36.0 23.15 32.7 18.6 29.35 22.8 25.9 22.65 26.55 21.6 31.2 13.85 M26.15 8.4 L26.2 8.35 Q26.35 7.7 27.0 7.4 L26.15 8.4 M8.55 35.95 L1.0 35.65 0.25 35.45 Q-0.1 35.1 0.05 34.85 L0.45 25.9 0.55 25.55 0.15 33.2 Q0.1 33.6 0.4 33.95 L1.1 34.25 8.95 34.7 8.85 35.05 8.55 35.95 M6.6 38.6 L8.5 39.95 Q9.8 40.7 12.6 40.65 L14.15 40.35 Q15.75 39.7 16.45 37.7 L17.25 36.0 17.8 35.15 32.35 35.9 45.95 36.65 46.3 37.1 Q47.05 38.25 48.3 38.65 L50.4 39.05 50.45 39.1 52.8 41.0 Q51.9 40.65 50.55 39.45 L50.5 39.4 48.45 39.15 48.5 39.15 Q47.15 38.8 46.55 37.95 L46.35 37.55 17.8 36.35 17.3 37.0 Q16.75 37.6 16.5 38.4 15.65 39.85 14.15 40.45 L12.6 40.7 8.35 40.15 5.8 38.7 6.6 38.6 M60.6 27.55 L61.65 27.6 Q62.0 27.55 62.35 27.85 L62.55 28.5 60.55 37.35 60.2 37.85 59.45 38.1 53.35 37.8 53.25 37.95 52.95 37.35 52.9 37.3 53.0 37.0 59.05 37.3 59.8 37.05 60.1 36.35 60.6 27.55" fill="#000000" fill-opacity="0.3019608" fill-rule="evenodd" stroke="none"/>
    <path d="M0.55 25.55 L0.7 22.35 Q0.75 21.9 1.05 21.65 1.35 21.35 1.8 21.4 L16.5 22.15 17.05 22.2 25.3 22.6 25.9 22.65 29.35 22.8 33.05 23.0 33.0 24.0 1.7 22.4 1.15 33.25 32.4 34.9 32.35 35.9 17.8 35.15 14.7 35.0 8.95 34.7 1.1 34.25 0.4 33.95 Q0.1 33.6 0.15 33.2 L0.55 25.55" fill="url(#gradient2)" fill-rule="evenodd" stroke="none"/>
    <path d="M5.65 27.85 L5.55 29.6 6.1 29.6 6.2 27.9 5.65 27.85 M5.9 22.65 L5.7 26.6 6.25 26.65 6.45 22.65 5.9 22.65 M32.4 34.9 L1.15 33.25 1.7 22.4 33.0 24.0 32.4 34.9 M15.85 28.4 L15.75 30.15 16.3 30.15 16.4 28.4 15.85 28.4 M15.9 27.15 L16.45 27.2 16.65 23.2 16.1 23.15 15.9 27.15 M27.7 23.75 L27.15 23.75 26.95 27.75 27.5 27.75 27.7 23.75 M27.4 29.0 L26.85 28.95 26.75 30.7 27.3 30.75 27.4 29.0" fill="url(#gradient3)" fill-rule="evenodd" stroke="none"/>
    <path d="M5.65 27.85 L6.2 27.9 6.1 29.6 5.55 29.6 5.65 27.85 M15.85 28.4 L16.4 28.4 16.3 30.15 15.75 30.15 15.85 28.4 M27.4 29.0 L27.3 30.75 26.75 30.7 26.85 28.95 27.4 29.0 M37.6 29.5 L37.5 31.25 36.95 31.25 37.05 29.5 37.6 29.5 M47.65 30.05 L47.55 31.8 47.0 31.75 47.1 30.0 47.65 30.05 M57.8 30.6 L57.75 32.35 57.2 32.3 57.25 30.55 57.8 30.6" fill="#fddc6f" fill-rule="evenodd" stroke="none"/>
    <path d="M5.9 22.65 L6.45 22.65 6.25 26.65 5.7 26.6 5.9 22.65 M15.9 27.15 L16.1 23.15 16.65 23.2 16.45 27.2 15.9 27.15 M37.9 24.3 L37.7 28.3 37.15 28.25 37.35 24.3 37.9 24.3 M27.7 23.75 L27.5 27.75 26.95 27.75 27.15 23.75 27.7 23.75 M47.95 24.85 L47.7 28.85 47.15 28.8 47.4 24.8 47.95 24.85 M57.55 25.35 L58.15 25.35 57.95 29.35 57.35 29.35 57.55 25.35" fill="#eca530" fill-rule="evenodd" stroke="none"/>
    <path d="M34.35 8.05 L34.05 7.6 36.1 3.6 36.15 3.6 Q36.55 2.85 36.4 2.1 36.2 1.35 35.65 1.0 L35.4 0.85 Q34.8 0.4 34.1 0.55 33.4 0.65 32.95 1.25 L32.7 1.5 31.2 3.75 30.7 3.0 32.45 1.05 Q33.05 0.2 34.0 0.05 34.95 -0.15 35.7 0.45 L35.95 0.6 Q36.65 1.0 36.9 1.95 37.1 2.9 36.55 3.85 L34.85 7.1 34.35 8.05 M27.0 7.35 L27.85 8.7 22.2 17.15 22.1 17.7 22.4 18.2 22.5 18.25 26.4 20.85 30.85 13.35 31.2 13.85 26.55 21.6 19.8 17.05 Q22.8 12.6 26.15 8.4 L27.0 7.4 27.0 7.35" fill="url(#gradient4)" fill-rule="evenodd" stroke="none"/>
    <path d="M32.2 5.1 L31.2 3.75 32.7 1.5 32.95 1.25 33.2 1.15 33.75 1.3 33.8 1.3 Q34.05 1.45 34.1 1.75 L34.0 2.35 32.2 5.1 M27.85 8.7 L28.8 10.1 23.5 18.0 23.0 18.3 22.5 18.25 22.4 18.2 22.1 17.7 22.2 17.15 27.85 8.7" fill="#f0f4e3" fill-rule="evenodd" stroke="none"/>
    <path d="M34.05 7.6 L32.2 5.1 34.0 2.35 34.1 1.75 Q34.05 1.45 33.8 1.3 L33.75 1.3 33.2 1.15 32.95 1.25 Q33.4 0.65 34.1 0.55 34.8 0.4 35.4 0.85 L35.65 1.0 Q36.2 1.35 36.4 2.1 36.55 2.85 36.15 3.6 L36.1 3.6 34.05 7.6 M28.8 10.1 L30.85 13.35 26.4 20.85 22.5 18.25 23.0 18.3 23.5 18.0 28.8 10.1" fill="url(#gradient5)" fill-rule="evenodd" stroke="none"/>
    <path d="M16.5 22.15 L19.8 17.05 26.55 21.6 25.9 22.65 25.3 22.6 25.9 21.7 19.95 17.75 17.05 22.2 16.5 22.15" fill="url(#gradient6)" fill-rule="evenodd" stroke="none"/>
    <path d="M25.3 22.6 L17.05 22.2 19.95 17.75 25.9 21.7 25.3 22.6" fill="url(#gradient7)" fill-rule="evenodd" stroke="none"/>
    <path d="M8.55 35.95 L8.85 35.05 8.95 34.7 14.7 35.0 15.95 35.5 17.25 36.0 16.45 37.7 Q15.75 39.7 14.15 40.35 14.3 39.7 13.85 39.75 L12.05 39.45 10.75 38.85 Q10.4 38.7 10.6 38.6 L10.95 38.05 Q11.0 37.7 10.7 37.7 10.05 37.8 10.1 37.35 10.4 35.95 9.2 36.65 L8.6 36.75 8.3 36.5 8.55 35.95" fill="url(#gradient8)" fill-rule="evenodd" stroke="none"/>
    <path d="M8.3 36.5 L8.6 36.75 9.2 36.65 Q10.4 35.95 10.1 37.35 10.05 37.8 10.7 37.7 11.0 37.7 10.95 38.05 L10.6 38.6 Q10.4 38.7 10.75 38.85 L12.05 39.45 13.85 39.75 Q14.3 39.7 14.15 40.35 L12.6 40.65 Q9.8 40.7 8.5 39.95 L6.6 38.6 5.85 38.05 Q7.4 38.05 8.3 36.5" fill="url(#gradient9)" fill-rule="evenodd" stroke="none"/>
    <path d="M17.25 36.0 L15.95 35.5 14.7 35.0 17.8 35.15 17.25 36.0" fill="#3a5c1e" fill-rule="evenodd" stroke="none"/>
    <path d="M27.25 2.05 L27.15 1.9 28.25 1.15 38.3 15.1 38.15 15.2 37.05 15.95 27.25 2.05" fill="url(#gradient10)" fill-rule="evenodd" stroke="none"/>
    <path d="M38.15 15.2 L38.3 15.5 37.05 16.35 27.1 2.15 27.25 2.05 37.05 15.95 38.15 15.2" fill="#000000" fill-rule="evenodd" stroke="none"/>
    <path d="M32.4 34.9 L33.0 24.0 59.7 25.4 59.1 36.3 32.4 34.9 M37.9 24.3 L37.35 24.3 37.15 28.25 37.7 28.3 37.9 24.3 M37.6 29.5 L37.05 29.5 36.95 31.25 37.5 31.25 37.6 29.5 M47.95 24.85 L47.4 24.8 47.15 28.8 47.7 28.85 47.95 24.85 M47.65 30.05 L47.1 30.0 47.0 31.75 47.55 31.8 47.65 30.05 M57.8 30.6 L57.25 30.55 57.2 32.3 57.75 32.35 57.8 30.6 M57.55 25.35 L57.35 29.35 57.95 29.35 58.15 25.35 57.55 25.35" fill="url(#gradient11)" fill-rule="evenodd" stroke="none"/>
    <path d="M45.15 23.65 L45.8 23.7 59.75 24.4 60.45 24.75 60.7 25.5 60.6 27.55 60.1 36.35 59.8 37.05 59.05 37.3 53.0 37.0 52.5 37.0 49.2 36.8 47.35 36.7 46.6 36.65 45.95 36.65 32.35 35.9 32.4 34.9 59.1 36.3 59.7 25.4 33.0 24.0 33.05 23.0 36.0 23.15 37.3 23.25 37.9 23.25 38.55 23.3 40.6 23.4 45.15 23.65" fill="url(#gradient12)" fill-rule="evenodd" stroke="none"/>
    <path d="M52.35 37.3 L52.4 37.35 52.5 37.55 Q53.8 40.25 53.4 40.55 52.9 40.9 50.8 38.75 L50.55 38.55 52.35 37.3" fill="url(#gradient13)" fill-rule="evenodd" stroke="none"/>
  </g>
  <defs>
    <linearGradient gradientTransform="matrix(0.0035, -0.0024, 0.0164, 0.024, 39.9, 20.95)" gradientUnits="userSpaceOnUse" id="gradient0" spreadMethod="pad" x1="-819.2" x2="819.2">
      <stop offset="0.0" stop-color="#2758cb"/>
      <stop offset="0.3333333333333333" stop-color="#5781dd"/>
      <stop offset="0.6274509803921569" stop-color="#2f4ae1"/>
      <stop offset="0.8313725490196079" stop-color="#2d48d9"/>
      <stop offset="1.0" stop-color="#122b7e"/>
    </linearGradient>
    <linearGradient gradientTransform="matrix(0.001, -7.0E-4, 0.0147, 0.0216, 37.9, 21.2)" gradientUnits="userSpaceOnUse" id="gradient1" spreadMethod="pad" x1="-819.2" x2="819.2">
      <stop offset="0.0" stop-color="#3261cf"/>
      <stop offset="0.3333333333333333" stop-color="#ffffff"/>
      <stop offset="1.0" stop-color="#496dde"/>
    </linearGradient>
    <linearGradient gradientTransform="matrix(-4.0E-4, 0.0079, -0.0079, -4.0E-4, 26.3, 29.1)" gradientUnits="userSpaceOnUse" id="gradient2" spreadMethod="pad" x1="-819.2" x2="819.2">
      <stop offset="0.13725490196078433" stop-color="#f0b368"/>
      <stop offset="1.0" stop-color="#c27312"/>
    </linearGradient>
    <linearGradient gradientTransform="matrix(-4.0E-4, 0.0079, -0.0079, -4.0E-4, 26.3, 29.1)" gradientUnits="userSpaceOnUse" id="gradient3" spreadMethod="pad" x1="-819.2" x2="819.2">
      <stop offset="0.13725490196078433" stop-color="#fff4bb"/>
      <stop offset="1.0" stop-color="#fdef51"/>
    </linearGradient>
    <linearGradient gradientTransform="matrix(0.0041, 0.0028, -0.0077, 0.0115, 29.45, 9.9)" gradientUnits="userSpaceOnUse" id="gradient4" spreadMethod="pad" x1="-819.2" x2="819.2">
      <stop offset="0.0" stop-color="#5e9e41"/>
      <stop offset="1.0" stop-color="#33501c"/>
    </linearGradient>
    <linearGradient gradientTransform="matrix(0.0036, 0.0024, -0.0074, 0.011, 29.45, 9.9)" gradientUnits="userSpaceOnUse" id="gradient5" spreadMethod="pad" x1="-819.2" x2="819.2">
      <stop offset="0.0" stop-color="#e7fcad" stop-opacity="0.14117648"/>
      <stop offset="0.26666666666666666" stop-color="#f9fca7" stop-opacity="0.6431373"/>
      <stop offset="0.3333333333333333" stop-color="#b7fa7e"/>
      <stop offset="0.615686274509804" stop-color="#71f720" stop-opacity="0.22352941"/>
      <stop offset="1.0" stop-color="#ffffff" stop-opacity="0.0"/>
    </linearGradient>
    <linearGradient gradientTransform="matrix(-0.0023, 0.0033, -0.0033, -0.0022, 21.35, 22.05)" gradientUnits="userSpaceOnUse" id="gradient6" spreadMethod="pad" x1="-819.2" x2="819.2">
      <stop offset="0.0" stop-color="#abb4c0"/>
      <stop offset="1.0" stop-color="#c6d1dd"/>
    </linearGradient>
    <linearGradient gradientTransform="matrix(0.0019, -0.0028, 0.0028, 0.0019, 21.35, 22.05)" gradientUnits="userSpaceOnUse" id="gradient7" spreadMethod="pad" x1="-819.2" x2="819.2">
      <stop offset="0.0" stop-color="#ced2db"/>
      <stop offset="1.0" stop-color="#ebeef3"/>
    </linearGradient>
    <linearGradient gradientTransform="matrix(0.0047, 0.0027, -0.0024, 0.0042, 12.8, 36.4)" gradientUnits="userSpaceOnUse" id="gradient8" spreadMethod="pad" x1="-819.2" x2="819.2">
      <stop offset="0.0" stop-color="#efdc70"/>
      <stop offset="0.054901960784313725" stop-color="#ffe659"/>
      <stop offset="0.4823529411764706" stop-color="#fff042"/>
      <stop offset="1.0" stop-color="#ffb60b"/>
    </linearGradient>
    <radialGradient cx="0" cy="0" gradientTransform="matrix(0.006, 0.0, 0.0, 0.006, 7.15, 39.0)" gradientUnits="userSpaceOnUse" id="gradient9" r="819.2" spreadMethod="pad">
      <stop offset="0.0" stop-color="#61d004"/>
      <stop offset="0.4823529411764706" stop-color="#34aa2b"/>
      <stop offset="1.0" stop-color="#236f15"/>
    </radialGradient>
    <linearGradient gradientTransform="matrix(0.0077, 0.0112, -0.0139, 0.0095, 35.2, 10.8)" gradientUnits="userSpaceOnUse" id="gradient10" spreadMethod="pad" x1="-819.2" x2="819.2">
      <stop offset="0.0" stop-color="#acacac"/>
      <stop offset="0.20392156862745098" stop-color="#eaeaea"/>
      <stop offset="0.5019607843137255" stop-color="#e6e6e6"/>
      <stop offset="0.803921568627451" stop-color="#acacac"/>
    </linearGradient>
    <linearGradient gradientTransform="matrix(-4.0E-4, 0.0079, -0.0079, -4.0E-4, 34.5, 29.55)" gradientUnits="userSpaceOnUse" id="gradient11" spreadMethod="pad" x1="-819.2" x2="819.2">
      <stop offset="0.13725490196078433" stop-color="#fff4bb"/>
      <stop offset="1.0" stop-color="#fdef51"/>
    </linearGradient>
    <linearGradient gradientTransform="matrix(-4.0E-4, 0.0079, -0.0079, -4.0E-4, 34.5, 29.55)" gradientUnits="userSpaceOnUse" id="gradient12" spreadMethod="pad" x1="-819.2" x2="819.2">
      <stop offset="0.13725490196078433" stop-color="#f0b368"/>
      <stop offset="1.0" stop-color="#c27312"/>
    </linearGradient>
    <linearGradient gradientTransform="matrix(0.0035, -0.0024, 0.0164, 0.024, 39.9, 20.95)" gradientUnits="userSpaceOnUse" id="gradient13" spreadMethod="pad" x1="-819.2" x2="819.2">
      <stop offset="0.0" stop-color="#212121"/>
      <stop offset="0.29411764705882354" stop-color="#2f2f2f"/>
      <stop offset="0.5372549019607843" stop-color="#eaeaea"/>
      <stop offset="1.0" stop-color="#0f0f0f"/>
    </linearGradient>
  </defs>
</svg>
