<?xml version="1.0" encoding="UTF-8" standalone="no"?>
<svg xmlns:xlink="http://www.w3.org/1999/xlink" height="33.0px" width="56.8px" xmlns="http://www.w3.org/2000/svg">
  <g transform="matrix(1.0, 0.0, 0.0, 1.0, 0.0, 0.05)">
    <path d="M1.0 8.35 L1.15 4.05 4.75 3.95 5.95 3.85 9.7 3.45 10.9 3.35 10.95 3.35 14.3 2.85 15.5 2.7 16.6 2.5 19.45 2.1 20.65 1.9 20.7 1.9 24.3 1.4 25.5 1.25 29.45 0.75 30.65 0.6 35.05 0.15 36.15 0.05 36.25 0.05 40.45 0.05 41.65 0.15 45.65 0.5 46.85 0.65 47.15 0.65 51.2 1.1 51.2 5.95 Q50.75 5.45 46.85 5.05 L45.65 4.95 45.0 4.9 41.65 4.65 40.45 4.6 36.25 4.55 35.05 4.6 34.8 4.6 30.65 4.95 29.45 5.05 25.5 5.55 24.3 5.7 21.3 6.15 20.65 6.25 19.8 6.35 19.45 6.4 17.65 6.7 15.5 7.0 14.3 7.15 10.9 7.6 9.7 7.75 5.95 8.15 4.75 8.25 1.0 8.35 M50.7 5.15 L50.7 1.55 47.35 1.2 47.35 4.6 50.7 5.15 M45.05 4.4 L45.15 4.4 45.15 0.95 42.15 0.7 42.15 4.2 45.05 4.4 M23.8 2.0 L21.15 2.35 21.15 5.65 23.8 5.25 23.8 2.0 M28.95 4.6 L28.95 1.3 26.0 1.7 26.0 5.0 28.95 4.6 M31.15 4.4 L34.55 4.1 34.55 0.7 31.15 1.05 31.15 4.4 M36.75 4.05 L39.95 4.1 39.95 0.55 36.75 0.55 36.75 4.05 M13.8 3.4 L11.4 3.75 11.4 7.05 13.8 6.7 13.8 3.4 M16.7 3.0 L16.0 3.1 16.0 6.4 17.55 6.2 18.95 6.0 18.95 2.65 16.7 3.0 M4.25 4.5 L1.65 4.55 1.5 7.85 4.25 7.8 4.25 4.5 M9.2 4.05 L6.45 4.3 6.45 7.6 9.2 7.3 9.2 4.05" fill="url(#gradient0)" fill-rule="evenodd" stroke="none"/>
    <path d="M51.2 8.15 L51.45 8.2 52.6 8.45 52.85 8.5 56.8 9.05 51.2 32.95 51.2 29.1 51.2 8.15 M47.95 32.45 L47.3 32.3 46.2 32.15 43.85 31.7 Q42.15 31.15 40.3 31.1 L36.35 30.75 35.3 30.7 32.7 30.75 30.8 30.8 29.65 30.8 25.7 30.9 24.5 30.95 20.75 31.15 19.55 31.3 15.35 31.55 14.1 31.65 12.2 31.85 0.15 32.95 11.05 31.55 12.15 31.4 13.05 31.3 13.15 31.3 13.55 31.3 13.55 31.25 14.25 31.2 16.0 31.0 16.0 31.15 19.0 30.95 19.05 30.7 19.4 30.65 21.3 30.5 21.25 30.85 23.95 30.65 24.0 30.3 24.25 30.3 26.25 30.15 26.2 30.5 29.25 30.45 29.35 30.0 29.4 30.0 31.15 29.95 31.5 29.95 31.4 30.35 32.7 30.35 34.8 30.4 34.9 30.05 35.0 30.05 36.95 30.2 36.9 30.5 40.3 30.7 Q40.35 30.6 40.4 30.75 L40.55 30.7 40.6 30.7 40.65 30.7 40.75 30.75 43.05 31.25 45.65 31.9 46.85 32.2 47.95 32.45 M53.0 8.85 L52.3 11.65 55.45 12.2 56.15 9.45 53.0 8.85 M22.35 20.9 L22.3 20.9 22.3 19.95 22.35 19.9 23.0 19.6 22.35 18.55 22.3 18.55 22.3 17.05 22.35 17.05 24.15 19.85 22.35 20.9 M22.3 15.35 L22.3 14.5 22.55 14.5 22.3 14.25 22.3 13.15 24.4 15.05 22.3 15.35 M37.05 29.7 L35.5 29.55 35.5 26.75 39.1 27.15 39.15 27.15 39.55 27.2 39.55 28.55 37.3 28.4 37.05 29.7 M31.55 29.45 L31.15 29.45 29.9 29.5 29.9 26.65 31.15 26.65 33.3 26.65 33.3 28.2 33.0 28.25 31.75 28.2 31.55 29.45 M27.7 28.3 L26.55 28.4 26.35 29.65 24.75 29.75 24.75 26.95 27.7 26.75 27.7 28.3 M21.05 28.25 L21.45 28.2 21.5 27.95 21.05 28.25 M21.35 30.0 L19.9 30.1 19.9 27.3 22.55 27.1 22.55 28.5 21.5 28.6 21.35 30.0 M50.7 30.45 L48.2 30.05 47.8 31.9 47.35 31.8 47.35 28.95 50.7 29.55 50.7 30.45 M45.15 29.45 L44.2 29.2 42.7 28.95 42.3 30.55 41.2 30.3 41.2 27.5 42.95 27.9 44.25 28.2 45.15 28.45 45.15 29.45 M19.8 26.8 L19.4 26.85 19.8 26.35 19.8 26.8 M16.05 7.95 L16.3 7.9 16.45 7.9 18.8 10.0 18.8 11.1 17.1 9.55 18.0 16.5 18.8 15.75 18.8 16.85 17.4 18.2 16.05 7.95 M17.7 28.85 L16.15 29.0 16.05 30.5 14.75 30.6 14.75 27.8 17.7 27.5 17.7 28.85 M12.55 29.2 L12.5 29.2 11.25 29.4 11.1 31.0 10.15 31.15 10.15 28.3 11.3 28.15 12.55 28.05 12.55 29.2 M5.6 31.75 L5.2 31.8 5.2 28.95 7.95 28.6 7.95 29.65 5.85 29.8 5.6 31.75 M0.55 30.45 L0.55 29.55 3.0 29.25 3.0 30.0 0.6 30.3 0.55 30.45" fill="#000000" fill-opacity="0.3019608" fill-rule="evenodd" stroke="none"/>
    <path d="M1.0 8.35 L4.75 8.25 5.95 8.15 9.7 7.75 10.9 7.6 14.3 7.15 15.5 7.0 17.65 6.7 19.45 6.4 19.8 6.35 19.8 26.35 19.4 26.85 18.2 26.95 14.25 27.35 13.05 27.5 11.25 27.7 0.1 29.1 0.05 29.1 Q0.05 23.35 0.55 15.9 L1.0 8.35 M21.3 6.15 L24.3 5.7 25.5 5.55 29.45 5.05 30.65 4.95 34.8 4.6 35.05 4.6 36.25 4.55 40.45 4.6 41.65 4.65 45.0 4.9 45.65 4.95 46.85 5.05 Q50.75 5.45 51.2 5.95 L51.2 8.15 51.2 29.1 46.85 28.35 45.65 28.05 45.6 28.05 44.35 27.75 43.05 27.45 40.4 26.85 39.2 26.65 35.0 26.2 33.8 26.15 31.15 26.15 29.4 26.2 28.2 26.25 24.25 26.45 23.05 26.55 21.35 26.7 21.3 6.15 M50.2 21.75 L50.2 6.5 46.75 6.05 45.55 5.95 44.9 5.9 41.6 5.65 40.45 5.6 40.4 5.6 36.3 5.55 36.25 5.55 35.1 5.6 35.0 5.6 34.85 5.6 30.75 5.95 29.55 6.05 27.45 6.3 26.2 6.5 25.65 6.55 24.45 6.7 22.3 7.0 22.3 13.15 22.3 14.25 22.3 14.5 22.3 15.35 22.35 17.05 22.3 17.05 22.3 18.55 22.3 19.95 22.3 20.9 22.35 20.9 22.35 25.6 23.0 25.55 24.2 25.45 28.15 25.25 29.4 25.2 31.15 25.15 33.85 25.15 35.05 25.2 39.35 25.65 40.6 25.85 41.45 26.05 42.35 26.25 43.3 26.45 44.6 26.8 45.7 27.05 45.85 27.1 45.9 27.1 47.1 27.4 47.25 27.45 48.5 27.7 49.85 27.95 50.0 28.0 50.2 28.0 50.2 22.8 50.2 21.75 M16.05 7.95 L15.6 8.0 14.45 8.15 11.0 8.6 9.8 8.75 7.7 9.0 6.05 9.15 4.8 9.25 2.15 9.35 1.95 9.35 1.65 14.4 1.55 16.0 Q1.1 22.65 1.05 28.0 L11.1 26.7 12.95 26.5 14.15 26.35 18.1 25.95 18.8 25.9 18.8 16.85 18.8 15.75 18.8 11.1 18.8 10.0 18.8 7.55 17.8 7.7 16.45 7.9 16.3 7.9 16.05 7.95" fill="#cfeafa" fill-rule="evenodd" stroke="none"/>
    <path d="M27.45 6.3 L29.55 6.05 30.75 5.95 34.85 5.6 35.0 5.6 35.1 5.6 36.25 5.55 36.3 5.55 40.4 5.6 40.45 5.6 41.6 5.65 44.9 5.9 45.55 5.95 46.75 6.05 50.2 6.5 50.2 21.75 39.65 12.2 41.45 26.05 40.6 25.85 39.35 25.65 35.05 25.2 33.85 25.15 31.15 25.15 29.4 25.2 28.15 25.25 24.2 25.45 23.0 25.55 22.35 25.6 22.35 20.9 24.15 19.85 22.35 17.05 22.3 15.35 24.4 15.05 22.3 13.15 22.3 7.0 24.45 6.7 25.65 6.55 26.2 6.5 27.75 18.4 30.3 15.95 33.45 22.05 36.15 20.5 32.6 15.0 36.45 14.5 27.45 6.3 M50.2 22.8 L50.2 28.0 50.0 28.0 46.95 23.25 50.2 22.8 M45.85 27.1 L45.7 27.05 44.6 26.8 43.3 26.45 42.35 26.25 44.4 24.3 45.85 27.1" fill="url(#gradient1)" fill-rule="evenodd" stroke="none"/>
    <path d="M50.2 21.75 L50.2 22.8 46.95 23.25 50.0 28.0 49.85 27.95 48.5 27.7 46.0 23.85 45.85 23.15 Q45.85 22.75 46.15 22.5 46.4 22.2 46.8 22.15 L48.7 21.9 41.15 15.1 42.4 24.7 43.6 23.5 44.25 23.2 44.9 23.3 45.4 23.8 47.25 27.45 47.1 27.4 45.9 27.1 45.85 27.1 44.4 24.3 42.35 26.25 41.45 26.05 39.65 12.2 50.2 21.75 M26.2 6.5 L27.45 6.3 36.45 14.5 32.6 15.0 36.15 20.5 33.45 22.05 30.3 15.95 27.75 18.4 26.2 6.5 M30.15 14.95 L30.75 15.05 31.2 15.5 33.85 20.65 34.75 20.15 31.75 15.55 31.6 14.9 31.9 14.3 Q32.1 14.05 32.5 14.0 L34.2 13.8 27.35 7.6 28.5 16.3 29.6 15.25 30.15 14.95" fill="#000000" fill-opacity="0.5019608" fill-rule="evenodd" stroke="none"/>
    <path d="M48.5 27.7 L47.25 27.45 45.4 23.8 44.9 23.3 44.25 23.2 43.6 23.5 42.4 24.7 41.15 15.1 48.7 21.9 46.8 22.15 Q46.4 22.2 46.15 22.5 45.85 22.75 45.85 23.15 L46.0 23.85 48.5 27.7 M22.3 19.95 L22.3 18.55 22.35 18.55 23.0 19.6 22.35 19.9 22.3 19.95 M22.3 14.5 L22.3 14.25 22.55 14.5 22.3 14.5 M30.15 14.95 L29.6 15.25 28.5 16.3 27.35 7.6 34.2 13.8 32.5 14.0 Q32.1 14.05 31.9 14.3 L31.6 14.9 31.75 15.55 34.75 20.15 33.85 20.65 31.2 15.5 30.75 15.05 30.15 14.95 M18.8 11.1 L18.8 15.75 18.0 16.5 17.1 9.55 18.8 11.1 M3.75 24.05 L3.4 21.45 5.45 23.3 4.95 23.35 4.75 23.45 4.65 23.65 4.7 23.85 5.6 25.2 5.35 25.35 4.55 23.8 4.4 23.7 4.25 23.65 4.05 23.75 3.75 24.05 M9.8 14.55 L13.9 18.3 12.85 18.4 Q12.65 18.45 12.5 18.6 L12.35 18.95 12.45 19.35 14.2 22.1 13.7 22.4 12.1 19.3 11.85 19.05 11.5 19.0 Q11.25 19.0 11.15 19.15 L10.5 19.8 9.8 14.55" fill="#ffffff" fill-rule="evenodd" stroke="none"/>
    <path d="M51.2 32.95 L48.0 32.45 47.95 32.45 46.85 32.2 45.65 31.9 43.05 31.25 40.75 30.75 40.65 30.7 40.6 30.7 40.55 30.7 39.15 30.45 36.95 30.2 35.0 30.05 34.9 30.05 33.8 30.0 31.5 29.95 31.15 29.95 29.4 30.0 29.35 30.0 28.2 30.05 26.25 30.15 24.25 30.3 24.0 30.3 23.05 30.35 21.3 30.5 19.4 30.65 19.05 30.7 18.2 30.75 16.0 31.0 14.25 31.2 13.55 31.25 13.15 31.3 13.05 31.3 12.15 31.4 11.25 31.5 11.05 31.55 0.15 32.95 Q-0.1 31.45 0.05 30.05 L0.05 29.1 0.1 29.1 11.25 27.7 13.05 27.5 14.25 27.35 18.2 26.95 19.4 26.85 19.8 26.8 21.35 26.7 23.05 26.55 24.25 26.45 28.2 26.25 29.4 26.2 31.15 26.15 33.8 26.15 35.0 26.2 39.2 26.65 40.4 26.85 43.05 27.45 44.35 27.75 45.6 28.05 45.65 28.05 46.85 28.35 51.2 29.1 51.2 32.95 M39.55 28.55 L39.55 27.2 39.15 27.15 39.1 27.15 35.5 26.75 35.5 29.55 37.05 29.7 39.1 29.95 39.25 29.95 39.55 30.0 39.55 28.55 M33.3 28.2 L33.3 26.65 31.15 26.65 29.9 26.65 29.9 29.5 31.15 29.45 31.55 29.45 33.3 29.45 33.3 28.2 M26.35 29.65 L27.7 29.6 27.7 28.3 27.7 26.75 24.75 26.95 24.75 29.75 26.35 29.65 M21.35 30.0 L22.55 29.9 22.55 28.5 22.55 27.1 19.9 27.3 19.9 30.1 21.35 30.0 M50.7 30.45 L50.7 29.55 47.35 28.95 47.35 31.8 47.8 31.9 50.7 32.4 50.7 30.45 M42.3 30.55 L43.2 30.8 45.15 31.3 45.15 29.45 45.15 28.45 44.25 28.2 42.95 27.9 41.2 27.5 41.2 30.3 42.3 30.55 M16.05 30.5 L17.7 30.3 17.7 28.85 17.7 27.5 14.75 27.8 14.75 30.6 16.05 30.5 M11.1 31.0 L11.2 31.0 12.55 30.85 12.55 29.2 12.55 28.05 11.3 28.15 10.15 28.3 10.15 31.15 11.1 31.0 M7.95 29.65 L7.95 28.6 5.2 28.95 5.2 31.8 5.6 31.75 7.95 31.4 7.95 29.65 M3.0 30.0 L3.0 29.25 0.55 29.55 0.55 30.45 0.6 32.4 3.0 32.05 3.0 30.0" fill="url(#gradient2)" fill-rule="evenodd" stroke="none"/>
    <path d="M19.8 6.35 L20.65 6.25 21.3 6.15 21.35 26.7 19.8 26.8 19.8 26.35 19.8 6.35" fill="#666666" fill-rule="evenodd" stroke="none"/>
    <path d="M18.8 16.85 L18.8 25.9 18.1 25.95 14.15 26.35 12.95 26.5 11.1 26.7 1.05 28.0 Q1.1 22.65 1.55 16.0 L1.65 14.4 1.95 9.35 2.15 9.35 4.8 9.25 6.05 9.15 7.7 9.0 9.8 8.75 11.0 8.6 14.45 8.15 15.6 8.0 16.05 7.95 17.4 18.2 18.8 16.85 M16.45 7.9 L17.8 7.7 18.8 7.55 18.8 10.0 16.45 7.9 M3.5 24.7 L4.3 23.95 5.25 25.8 6.05 25.3 4.95 23.65 6.15 23.5 3.0 20.65 3.5 24.7 M9.0 13.0 L10.05 21.05 11.55 19.6 13.45 23.25 15.1 22.3 12.95 19.0 15.25 18.7 9.0 13.0" fill="url(#gradient3)" fill-rule="evenodd" stroke="none"/>
    <path d="M3.75 24.05 L4.05 23.75 4.25 23.65 4.4 23.7 4.55 23.8 5.35 25.35 5.6 25.2 4.7 23.85 4.65 23.65 4.75 23.45 4.95 23.35 5.45 23.3 3.4 21.45 3.75 24.05 M3.5 24.7 L3.0 20.65 6.15 23.5 4.95 23.65 6.05 25.3 5.25 25.8 4.3 23.95 3.5 24.7 M9.8 14.55 L10.5 19.8 11.15 19.15 Q11.25 19.0 11.5 19.0 L11.85 19.05 12.1 19.3 13.7 22.4 14.2 22.1 12.45 19.35 12.35 18.95 12.5 18.6 Q12.65 18.45 12.85 18.4 L13.9 18.3 9.8 14.55 M9.0 13.0 L15.25 18.7 12.95 19.0 15.1 22.3 13.45 23.25 11.55 19.6 10.05 21.05 9.0 13.0" fill="#000000" fill-opacity="0.2" fill-rule="evenodd" stroke="none"/>
  </g>
  <defs>
    <linearGradient gradientTransform="matrix(0.0306, 0.0, 0.0, 0.0051, 26.1, 4.15)" gradientUnits="userSpaceOnUse" id="gradient0" spreadMethod="pad" x1="-819.2" x2="819.2">
      <stop offset="0.0" stop-color="#666666"/>
      <stop offset="1.0" stop-color="#333333"/>
    </linearGradient>
    <linearGradient gradientTransform="matrix(0.0, 0.017, -0.0137, 0.0, 36.2, 16.8)" gradientUnits="userSpaceOnUse" id="gradient1" spreadMethod="pad" x1="-819.2" x2="819.2">
      <stop offset="0.1607843137254902" stop-color="#96c9ea"/>
      <stop offset="0.5843137254901961" stop-color="#cfeafa"/>
    </linearGradient>
    <linearGradient gradientTransform="matrix(0.0312, 0.0, 0.0, 0.0042, 25.6, 29.5)" gradientUnits="userSpaceOnUse" id="gradient2" spreadMethod="pad" x1="-819.2" x2="819.2">
      <stop offset="0.0" stop-color="#666666"/>
      <stop offset="1.0" stop-color="#333333"/>
    </linearGradient>
    <linearGradient gradientTransform="matrix(0.0, 0.0108, -0.0125, 0.0, 9.95, 17.75)" gradientUnits="userSpaceOnUse" id="gradient3" spreadMethod="pad" x1="-819.2" x2="819.2">
      <stop offset="0.1607843137254902" stop-color="#96c9ea"/>
      <stop offset="0.5843137254901961" stop-color="#cfeafa"/>
    </linearGradient>
  </defs>
</svg>
