<?xml version="1.0" encoding="UTF-8" standalone="no"?>
<svg xmlns:xlink="http://www.w3.org/1999/xlink" height="23.1px" width="26.0px" xmlns="http://www.w3.org/2000/svg">
  <g transform="matrix(1.0, 0.0, 0.0, 1.0, 0.0, 0.0)">
    <path d="M12.1 11.4 Q11.75 11.75 11.75 12.3 L11.75 20.55 11.45 21.25 10.75 21.55 7.85 21.55 Q7.5 21.55 7.25 21.85 L7.25 21.8 7.05 22.1 18.75 22.1 18.55 21.8 17.95 21.55 15.4 21.55 Q14.95 21.55 14.7 21.25 14.4 20.95 14.4 20.55 L14.4 12.3 14.0 11.35 14.0 11.4 Q13.6 11.0 13.05 11.0 12.5 11.0 12.15 11.35 L12.1 11.4 M10.75 12.3 Q10.75 11.35 11.4 10.65 12.1 10.0 13.05 10.0 14.0 10.0 14.7 10.65 15.4 11.35 15.4 12.3 L15.4 20.55 17.95 20.55 Q18.7 20.55 19.25 21.1 19.8 21.65 19.8 22.4 L19.8 22.45 19.65 23.1 6.1 23.1 6.0 22.45 6.0 22.4 Q5.95 21.65 6.55 21.1 7.1 20.55 7.85 20.55 L10.75 20.55 10.75 12.3" fill="#666666" fill-rule="evenodd" stroke="none"/>
    <path d="M12.1 11.4 L12.15 11.35 Q12.5 11.0 13.05 11.0 13.6 11.0 14.0 11.4 L14.0 11.35 14.4 12.3 14.4 20.55 Q14.4 20.95 14.7 21.25 14.95 21.55 15.4 21.55 L17.95 21.55 18.55 21.8 18.75 22.1 7.05 22.1 7.25 21.8 7.25 21.85 Q7.5 21.55 7.85 21.55 L10.75 21.55 11.45 21.25 11.75 20.55 11.75 12.3 Q11.75 11.75 12.1 11.4" fill="url(#gradient0)" fill-rule="evenodd" stroke="none"/>
    <path d="M0.95 0.0 L25.1 0.0 25.75 0.25 26.0 0.9 26.0 17.1 25.75 17.7 25.1 18.0 0.95 18.0 Q0.55 17.95 0.3 17.7 0.0 17.45 0.0 17.1 L0.0 0.9 Q0.0 0.55 0.3 0.25 0.55 0.0 0.95 0.0 M25.1 17.1 L25.1 0.9 0.95 0.9 0.95 17.1 25.1 17.1" fill="url(#gradient1)" fill-rule="evenodd" stroke="none"/>
    <path d="M25.1 17.1 L0.95 17.1 0.95 0.9 25.1 0.9 25.1 17.1 M24.2 16.15 L24.2 1.8 1.85 1.8 1.85 16.15 24.2 16.15" fill="url(#gradient2)" fill-rule="evenodd" stroke="none"/>
    <path d="M24.2 16.15 L1.85 16.15 1.85 1.8 24.2 1.8 24.2 16.15" fill="url(#gradient3)" fill-rule="evenodd" stroke="none"/>
    <path d="M22.45 7.6 L22.1 7.8 20.05 7.8 19.7 7.6 19.6 7.1 19.7 6.6 Q19.85 6.4 20.05 6.4 L22.1 6.4 22.45 6.6 22.6 7.1 22.45 7.6 M22.55 9.85 L22.4 10.35 22.05 10.55 20.0 10.55 Q19.8 10.55 19.65 10.35 L19.55 9.85 19.65 9.35 Q19.8 9.15 20.0 9.15 L22.05 9.15 22.4 9.35 22.55 9.85" fill="#ffffff" fill-rule="evenodd" stroke="none"/>
    <path d="M20.25 13.9 L20.5 14.45 20.5 14.5 20.25 15.0 19.75 15.25 7.0 15.25 6.45 15.0 6.25 14.5 6.25 14.45 6.45 13.9 7.0 13.7 19.75 13.7 20.25 13.9" fill="#ffffff" fill-opacity="0.33333334" fill-rule="evenodd" stroke="none"/>
    <path d="M2.8 15.25 L2.8 2.75 23.25 2.75 23.25 8.6 Q12.9 6.15 2.8 15.25" fill="url(#gradient4)" fill-rule="evenodd" stroke="none"/>
  </g>
  <defs>
    <linearGradient gradientTransform="matrix(0.0, 0.0071, -0.0068, 0.0, 12.9, 16.55)" gradientUnits="userSpaceOnUse" id="gradient0" spreadMethod="pad" x1="-819.2" x2="819.2">
      <stop offset="0.611764705882353" stop-color="#6a6a6a"/>
      <stop offset="0.7725490196078432" stop-color="#dadada" stop-opacity="0.8627451"/>
    </linearGradient>
    <linearGradient gradientTransform="matrix(0.0, 0.011, -0.011, 0.0, 13.0, 9.0)" gradientUnits="userSpaceOnUse" id="gradient1" spreadMethod="pad" x1="-819.2" x2="819.2">
      <stop offset="0.0" stop-color="#afafaf"/>
      <stop offset="1.0" stop-color="#6a6a6a"/>
    </linearGradient>
    <linearGradient gradientTransform="matrix(0.0, 0.011, -0.0099, 0.0, 13.0, 9.0)" gradientUnits="userSpaceOnUse" id="gradient2" spreadMethod="pad" x1="-819.2" x2="819.2">
      <stop offset="0.0" stop-color="#ffffff"/>
      <stop offset="1.0" stop-color="#c5c5c5"/>
    </linearGradient>
    <linearGradient gradientTransform="matrix(0.0, 0.0088, -0.0088, 0.0, 13.0, 8.95)" gradientUnits="userSpaceOnUse" id="gradient3" spreadMethod="pad" x1="-819.2" x2="819.2">
      <stop offset="0.0" stop-color="#0a7ae9"/>
      <stop offset="0.07058823529411765" stop-color="#5996fb"/>
      <stop offset="0.8823529411764706" stop-color="#8ecaf4"/>
      <stop offset="1.0" stop-color="#5c98fb"/>
    </linearGradient>
    <linearGradient gradientTransform="matrix(0.0, 0.009, -0.0076, 0.0, 13.0, 9.0)" gradientUnits="userSpaceOnUse" id="gradient4" spreadMethod="pad" x1="-819.2" x2="819.2">
      <stop offset="0.0" stop-color="#ffffff" stop-opacity="0.6509804"/>
      <stop offset="0.4980392156862745" stop-color="#ffffff" stop-opacity="0.3529412"/>
      <stop offset="0.7294117647058823" stop-color="#ffffff" stop-opacity="0.0"/>
    </linearGradient>
  </defs>
</svg>
