<?xml version="1.0" encoding="UTF-8" standalone="no"?>
<svg xmlns:xlink="http://www.w3.org/1999/xlink" height="25.2px" width="26.8px" xmlns="http://www.w3.org/2000/svg">
  <g transform="matrix(1.0, 0.0, 0.0, 1.0, 0.0, 0.0)">
    <path d="M13.8 20.65 L12.8 20.65 12.8 18.7 13.8 18.7 13.8 20.65 M4.75 20.65 L3.75 20.65 3.75 18.75 4.75 18.75 4.75 20.65" fill="#333333" fill-rule="evenodd" stroke="none"/>
    <path d="M3.75 20.65 L3.75 21.55 3.2 21.55 2.85 21.5 2.65 21.5 2.5 21.5 2.45 21.5 2.4 21.5 2.3 21.5 Q1.25 21.45 1.25 20.5 L1.25 20.35 Q1.0 18.8 1.0 17.25 L1.0 17.2 Q1.05 14.35 2.0 13.2 3.65 11.45 8.3 10.65 L8.65 10.75 9.1 10.7 10.35 11.0 Q13.75 11.75 15.1 13.2 16.05 14.35 16.1 17.2 L16.1 17.25 15.85 20.35 15.85 20.5 Q15.85 21.45 14.8 21.5 L13.8 21.55 13.8 20.65 13.8 18.7 12.8 18.7 12.8 20.65 12.8 21.55 10.6 21.55 10.05 21.55 8.85 21.55 8.3 21.55 4.75 21.55 4.75 20.65 4.75 18.75 3.75 18.75 3.75 20.65" fill="url(#gradient0)" fill-rule="evenodd" stroke="none"/>
    <path d="M8.85 9.75 L8.85 9.65 10.6 10.0 Q14.4 10.9 15.85 12.5 17.05 13.85 17.1 17.2 L16.85 20.5 Q16.85 22.4 14.85 22.5 L10.6 22.55 10.05 22.55 8.85 22.55 8.3 22.55 2.25 22.5 Q0.25 22.4 0.25 20.5 L0.0 17.2 Q0.05 13.85 1.25 12.5 3.05 10.55 8.3 9.65 L8.85 9.75 M13.8 20.65 L13.8 21.55 14.8 21.5 Q15.85 21.45 15.85 20.5 L15.85 20.35 16.1 17.25 16.1 17.2 Q16.05 14.35 15.1 13.2 13.75 11.75 10.35 11.0 L9.1 10.7 8.65 10.75 8.3 10.65 Q3.65 11.45 2.0 13.2 1.05 14.35 1.0 17.2 L1.0 17.25 Q1.0 18.8 1.25 20.35 L1.25 20.5 Q1.25 21.45 2.3 21.5 L2.4 21.5 2.45 21.5 2.5 21.5 2.65 21.5 2.85 21.5 3.2 21.55 3.75 21.55 3.75 20.65 4.75 20.65 4.75 21.55 8.3 21.55 8.85 21.55 10.05 21.55 10.6 21.55 12.8 21.55 12.8 20.65 13.8 20.65" fill="url(#gradient1)" fill-rule="evenodd" stroke="none"/>
    <path d="M1.15 15.5 Q1.35 13.95 2.0 13.2 3.65 11.45 8.3 10.65 L8.65 10.75 9.1 10.7 10.35 11.0 Q13.75 11.75 15.1 13.2 15.75 13.95 16.0 15.5 L1.15 15.5" fill="url(#gradient2)" fill-rule="evenodd" stroke="none"/>
    <path d="M8.65 10.75 L9.1 10.7 10.35 11.0 Q13.75 11.75 15.1 13.2 15.75 13.95 16.0 15.5 L1.15 15.5 Q1.35 13.95 2.0 13.2 3.65 11.45 8.3 10.65 L8.65 10.75" fill="url(#gradient3)" fill-rule="evenodd" stroke="none"/>
    <path d="M13.75 6.5 Q13.75 4.15 12.25 2.5 10.8 0.95 8.8 0.95 6.75 0.95 5.35 2.5 3.8 4.15 3.8 6.5 3.8 8.8 5.35 10.5 6.75 12.0 8.8 12.05 10.8 12.0 12.25 10.5 13.75 8.8 13.75 6.5 M14.8 6.5 Q14.8 9.15 13.05 11.1 11.3 13.0 8.8 13.0 6.25 13.0 4.5 11.1 2.75 9.15 2.75 6.5 2.75 3.8 4.5 1.9 6.25 0.0 8.8 0.0 11.3 0.0 13.05 1.9 14.8 3.8 14.8 6.5" fill="url(#gradient4)" fill-rule="evenodd" stroke="none"/>
    <path d="M13.75 6.5 Q13.75 8.8 12.25 10.5 10.8 12.0 8.8 12.05 6.75 12.0 5.35 10.5 3.8 8.8 3.8 6.5 3.8 4.15 5.35 2.5 6.75 0.95 8.8 0.95 10.8 0.95 12.25 2.5 13.75 4.15 13.75 6.5" fill="url(#gradient5)" fill-rule="evenodd" stroke="none"/>
    <path d="M11.45 2.35 Q12.6 3.35 12.6 4.75 12.6 6.1 11.45 7.1 10.3 8.0 8.75 8.05 7.2 8.0 6.1 7.1 4.9 6.1 4.95 4.75 4.9 3.35 6.1 2.35 7.2 1.45 8.75 1.45 10.3 1.45 11.45 2.35" fill="url(#gradient6)" fill-rule="evenodd" stroke="none"/>
    <path d="M10.2 21.95 L9.9 22.05 Q9.2 21.95 6.3 23.2 7.55 20.3 7.5 19.65 L7.5 19.6 7.55 19.3 10.2 21.95" fill="#ffffcc" fill-rule="evenodd" stroke="none"/>
    <path d="M21.8 5.0 L22.7 4.05 Q22.95 3.8 23.4 3.8 23.8 3.8 24.1 4.05 L25.55 5.5 25.75 6.15 25.8 6.2 25.5 6.9 24.6 7.8 21.8 5.0" fill="url(#gradient7)" fill-rule="evenodd" stroke="none"/>
    <path d="M21.8 5.0 L24.6 7.8 24.15 8.25 21.35 5.45 21.8 5.0" fill="#921d1d" fill-rule="evenodd" stroke="none"/>
    <path d="M21.8 10.6 L21.3 11.1 18.5 8.3 19.0 7.8 21.8 10.6" fill="#575757" fill-rule="evenodd" stroke="none"/>
    <path d="M24.6 7.8 L25.5 6.9 25.8 6.2 25.75 6.15 25.55 5.5 24.1 4.05 Q23.8 3.8 23.4 3.8 22.95 3.8 22.7 4.05 L21.8 5.0 21.35 5.45 19.0 7.8 18.5 8.3 7.8 18.9 Q7.6 19.05 7.55 19.3 L7.5 19.6 7.5 19.65 Q7.55 20.3 6.3 23.2 9.2 21.95 9.9 22.05 L10.2 21.95 10.6 21.75 21.3 11.1 21.8 10.6 24.15 8.25 24.6 7.8 M23.4 2.8 Q24.2 2.75 24.8 3.3 L26.25 4.75 Q26.8 5.3 26.8 6.2 26.8 7.05 26.25 7.6 L11.35 22.45 10.95 22.75 9.95 23.0 Q9.1 23.0 4.4 25.2 6.5 20.45 6.5 19.6 6.5 19.0 6.75 18.6 L7.05 18.2 21.95 3.35 Q22.5 2.8 23.4 2.8" fill="url(#gradient8)" fill-rule="evenodd" stroke="none"/>
    <path d="M24.15 8.25 L21.8 10.6 19.0 7.8 21.35 5.45 24.15 8.25" fill="url(#gradient9)" fill-rule="evenodd" stroke="none"/>
    <path d="M21.3 11.1 L10.6 21.75 10.2 21.95 7.55 19.3 Q7.6 19.05 7.8 18.9 L18.5 8.3 21.3 11.1" fill="url(#gradient10)" fill-rule="evenodd" stroke="none"/>
  </g>
  <defs>
    <linearGradient gradientTransform="matrix(0.0, 0.0079, -0.0067, 0.0, 8.5, 16.1)" gradientUnits="userSpaceOnUse" id="gradient0" spreadMethod="pad" x1="-819.2" x2="819.2">
      <stop offset="0.0" stop-color="#fe9898"/>
      <stop offset="0.6784313725490196" stop-color="#d69c9c"/>
      <stop offset="1.0" stop-color="#b44b4b"/>
    </linearGradient>
    <linearGradient gradientTransform="matrix(0.0, 0.0079, -0.0079, 0.0, 8.5, 16.1)" gradientUnits="userSpaceOnUse" id="gradient1" spreadMethod="pad" x1="-819.2" x2="819.2">
      <stop offset="0.0" stop-color="#979797"/>
      <stop offset="0.2627450980392157" stop-color="#666666"/>
      <stop offset="0.9019607843137255" stop-color="#333333"/>
    </linearGradient>
    <linearGradient gradientTransform="matrix(0.0, 0.0029, -0.003, 0.0, 8.6, 13.1)" gradientUnits="userSpaceOnUse" id="gradient2" spreadMethod="pad" x1="-819.2" x2="819.2">
      <stop offset="0.2627450980392157" stop-color="#ffffff" stop-opacity="0.7411765"/>
      <stop offset="1.0" stop-color="#ffffff" stop-opacity="0.18039216"/>
    </linearGradient>
    <radialGradient cx="0" cy="0" gradientTransform="matrix(0.0074, 0.0, 0.0, 0.0095, 8.85, 9.75)" gradientUnits="userSpaceOnUse" id="gradient3" r="819.2" spreadMethod="pad">
      <stop offset="0.0" stop-color="#000000"/>
      <stop offset="0.21176470588235294" stop-color="#000000" stop-opacity="0.7607843"/>
      <stop offset="0.6509803921568628" stop-color="#858585" stop-opacity="0.5803922"/>
      <stop offset="1.0" stop-color="#ffffff" stop-opacity="0.0"/>
    </radialGradient>
    <linearGradient gradientTransform="matrix(0.0, 0.0073, -0.008, 0.0, 8.8, 6.5)" gradientUnits="userSpaceOnUse" id="gradient4" spreadMethod="pad" x1="-819.2" x2="819.2">
      <stop offset="0.0" stop-color="#f2f2f2"/>
      <stop offset="0.4117647058823529" stop-color="#797979"/>
      <stop offset="1.0" stop-color="#454545"/>
    </linearGradient>
    <linearGradient gradientTransform="matrix(0.0, 0.0068, -0.0068, 0.0, 8.8, 6.5)" gradientUnits="userSpaceOnUse" id="gradient5" spreadMethod="pad" x1="-819.2" x2="819.2">
      <stop offset="0.27058823529411763" stop-color="#afafaf"/>
      <stop offset="1.0" stop-color="#efefef"/>
    </linearGradient>
    <linearGradient gradientTransform="matrix(0.0, 0.004, -0.0053, 0.0, 8.75, 4.75)" gradientUnits="userSpaceOnUse" id="gradient6" spreadMethod="pad" x1="-819.2" x2="819.2">
      <stop offset="0.27058823529411763" stop-color="#ffffff"/>
      <stop offset="0.788235294117647" stop-color="#ffffff" stop-opacity="0.4509804"/>
    </linearGradient>
    <linearGradient gradientTransform="matrix(0.0019, 0.0019, -0.0019, 0.0019, 23.55, 6.0)" gradientUnits="userSpaceOnUse" id="gradient7" spreadMethod="pad" x1="-819.2" x2="819.2">
      <stop offset="0.13333333333333333" stop-color="#ffffff"/>
      <stop offset="0.48627450980392156" stop-color="#fe81a7"/>
      <stop offset="0.7686274509803922" stop-color="#f40f77"/>
    </linearGradient>
    <linearGradient gradientTransform="matrix(0.0025, 0.0025, -0.0097, 0.0097, 15.55, 13.95)" gradientUnits="userSpaceOnUse" id="gradient8" spreadMethod="pad" x1="-819.2" x2="819.2">
      <stop offset="0.0" stop-color="#999999"/>
      <stop offset="1.0" stop-color="#333333"/>
    </linearGradient>
    <linearGradient gradientTransform="matrix(0.0025, 0.0025, -0.0025, 0.0025, 21.25, 8.3)" gradientUnits="userSpaceOnUse" id="gradient9" spreadMethod="pad" x1="-819.2" x2="819.2">
      <stop offset="0.13333333333333333" stop-color="#ffffff"/>
      <stop offset="0.48627450980392156" stop-color="#c1c1c1"/>
      <stop offset="0.7686274509803922" stop-color="#858585"/>
    </linearGradient>
    <linearGradient gradientTransform="matrix(0.0017, 0.0017, -0.0059, 0.0059, 14.45, 15.15)" gradientUnits="userSpaceOnUse" id="gradient10" spreadMethod="pad" x1="-819.2" x2="819.2">
      <stop offset="0.13333333333333333" stop-color="#ffffff"/>
      <stop offset="0.16862745098039217" stop-color="#fade85"/>
      <stop offset="0.6941176470588235" stop-color="#fcc044"/>
      <stop offset="0.8980392156862745" stop-color="#b87403"/>
    </linearGradient>
  </defs>
</svg>
