<?xml version="1.0" encoding="UTF-8" standalone="no"?>
<svg xmlns:xlink="http://www.w3.org/1999/xlink" height="26.05px" width="27.2px" xmlns="http://www.w3.org/2000/svg">
  <g transform="matrix(1.0, 0.0, 0.0, 1.0, 12.6, 13.25)">
    <path d="M-11.95 -12.8 L-12.2 -12.15 -12.2 5.8 -11.9 6.55 -11.2 6.85 12.75 6.85 13.5 6.55 13.8 5.8 13.8 -12.15 13.5 -12.85 Q13.15 -13.2 12.75 -13.15 L-11.2 -13.15 -11.7 -13.0 Q-11.35 -13.3 -10.9 -13.25 L13.05 -13.25 Q13.65 -13.3 14.15 -12.8 14.6 -12.35 14.6 -11.75 L14.6 6.2 14.15 7.3 13.05 7.75 -10.9 7.75 Q-11.5 7.75 -11.95 7.3 L-12.4 6.2 -12.4 -11.75 -11.95 -12.8" fill="#333333" fill-opacity="0.4" fill-rule="evenodd" stroke="none"/>
    <path d="M-11.7 -13.0 L-11.2 -13.15 12.75 -13.15 Q13.15 -13.2 13.5 -12.85 L13.8 -12.15 13.8 5.8 13.5 6.55 12.75 6.85 -11.2 6.85 -11.9 6.55 -12.2 5.8 -12.2 -12.15 -11.95 -12.8 -11.9 -12.85 -11.7 -13.0" fill="url(#gradient0)" fill-rule="evenodd" stroke="none"/>
    <path d="M13.8 -9.9 L13.8 5.8 13.5 6.55 12.75 6.85 -11.2 6.85 -11.9 6.55 -12.2 5.8 -12.2 -9.9 13.8 -9.9" fill="#ffffff" fill-rule="evenodd" stroke="none"/>
    <path d="M0.3 -5.3 L2.4 -5.3 2.4 -4.3 0.3 -4.3 0.3 -5.3 M7.1 -7.95 L7.1 -6.95 -1.1 -6.95 -1.1 -7.95 7.1 -7.95 M4.3 -5.3 L11.1 -5.3 11.1 -4.3 4.3 -4.3 4.3 -5.3 M8.3 -1.65 L6.55 -1.65 6.55 -2.65 8.3 -2.65 8.3 -1.65 M10.05 0.0 L10.05 1.0 6.55 1.0 6.55 0.0 10.05 0.0 M5.35 -1.65 L-10.0 -1.65 -10.0 -2.65 5.35 -2.65 5.35 -1.65 M-1.85 -6.95 L-10.0 -6.95 -10.0 -7.95 -1.85 -7.95 -1.85 -6.95 M-10.0 -5.3 L-4.7 -5.3 -4.7 -4.3 -10.0 -4.3 -10.0 -5.3 M-10.0 0.0 L-7.85 0.0 -7.85 1.0 -10.0 1.0 -10.0 0.0 M-2.9 -5.3 L-0.5 -5.3 -0.5 -4.3 -2.9 -4.3 -2.9 -5.3 M-6.75 0.0 L-0.75 0.0 -0.75 1.0 -6.75 1.0 -6.75 0.0 M-10.0 2.65 L6.85 2.65 6.85 3.65 -10.0 3.65 -10.0 2.65 M5.35 0.0 L5.35 1.0 -0.55 1.0 -0.55 0.0 5.35 0.0" fill="#cccccc" fill-rule="evenodd" stroke="none"/>
    <path d="M-6.1 -6.05 Q-3.4 -6.1 -1.5 -4.2 0.4 -2.25 0.4 0.45 0.4 3.1 -1.5 5.0 -3.4 6.9 -6.1 6.95 -8.8 6.9 -10.7 5.0 -12.6 3.1 -12.6 0.45 -12.6 -2.25 -10.7 -4.2 -8.8 -6.1 -6.1 -6.05 M-10.0 -3.5 L-10.0 -3.45 Q-11.6 -1.85 -11.6 0.45 -11.6 2.7 -10.0 4.3 -8.4 5.9 -6.1 5.95 -3.85 5.9 -2.25 4.3 L-2.2 4.25 Q-0.6 2.65 -0.6 0.45 -0.6 -1.85 -2.2 -3.5 -3.85 -5.1 -6.1 -5.05 -8.35 -5.1 -10.0 -3.5" fill="url(#gradient1)" fill-rule="evenodd" stroke="none"/>
    <path d="M-10.0 -3.5 Q-8.35 -5.1 -6.1 -5.05 -3.85 -5.1 -2.2 -3.5 -0.6 -1.85 -0.6 0.45 -0.6 2.65 -2.2 4.25 L-2.25 4.3 Q-3.85 5.9 -6.1 5.95 -8.4 5.9 -10.0 4.3 -11.6 2.7 -11.6 0.45 -11.6 -1.85 -10.0 -3.45 L-10.0 -3.5" fill="url(#gradient2)" fill-rule="evenodd" stroke="none"/>
    <path d="M-1.05 4.8 L-0.45 5.0 4.7 10.15 4.95 10.75 4.95 10.8 4.7 11.4 4.55 11.55 3.9 11.8 3.3 11.6 -1.85 6.45 -2.1 5.85 -2.1 5.8 -1.85 5.2 -1.7 5.05 Q-1.45 4.8 -1.05 4.8" fill="url(#gradient3)" fill-rule="evenodd" stroke="none"/>
    <path d="M-1.05 4.8 Q-1.45 4.8 -1.7 5.05 L-1.85 5.2 -2.1 5.8 -2.1 5.85 -1.85 6.45 3.3 11.6 3.9 11.8 4.55 11.55 4.7 11.4 4.95 10.8 4.95 10.75 4.7 10.15 -0.45 5.0 -1.05 4.8 M0.25 4.3 L5.4 9.45 Q5.95 10.0 5.95 10.8 5.9 11.55 5.4 12.1 L5.25 12.25 Q4.7 12.8 3.9 12.8 3.1 12.8 2.6 12.3 L-2.55 7.15 Q-3.1 6.6 -3.1 5.8 -3.1 5.0 -2.55 4.5 L-2.4 4.35 Q-1.85 3.8 -1.05 3.8 -0.3 3.75 0.25 4.3" fill="url(#gradient4)" fill-rule="evenodd" stroke="none"/>
    <path d="M-9.3 -2.75 L-9.3 -2.8 -9.3 -2.75" fill="#ffffff" fill-rule="evenodd" stroke="none"/>
    <path d="M-9.3 -2.75 L-7.75 -3.6 Q-5.6 -4.55 -3.55 -3.35 L-2.9 -2.8 Q-1.55 -1.35 -1.6 0.6 L-10.6 0.45 -10.45 -0.45 Q-10.25 -1.7 -9.3 -2.75" fill="url(#gradient5)" fill-rule="evenodd" stroke="none"/>
  </g>
  <defs>
    <linearGradient gradientTransform="matrix(0.0, 0.0023, -0.0122, 0.0, 0.75, -11.7)" gradientUnits="userSpaceOnUse" id="gradient0" spreadMethod="pad" x1="-819.2" x2="819.2">
      <stop offset="0.4117647058823529" stop-color="#9bcbfb"/>
      <stop offset="1.0" stop-color="#1f5ceb"/>
    </linearGradient>
    <linearGradient gradientTransform="matrix(0.0, -0.0079, 0.0079, 0.0, -6.1, 0.45)" gradientUnits="userSpaceOnUse" id="gradient1" spreadMethod="pad" x1="-819.2" x2="819.2">
      <stop offset="0.27058823529411763" stop-color="#666666"/>
      <stop offset="0.8274509803921568" stop-color="#d1dde6"/>
      <stop offset="1.0" stop-color="#e3f1fb"/>
    </linearGradient>
    <linearGradient gradientTransform="matrix(0.0, -0.0067, 0.0067, 0.0, -6.1, 0.45)" gradientUnits="userSpaceOnUse" id="gradient2" spreadMethod="pad" x1="-819.2" x2="819.2">
      <stop offset="0.0" stop-color="#ffffff" stop-opacity="0.8"/>
      <stop offset="0.5333333333333333" stop-color="#d6f3f8" stop-opacity="0.8"/>
      <stop offset="0.8980392156862745" stop-color="#bedbf5" stop-opacity="0.8"/>
    </linearGradient>
    <linearGradient gradientTransform="matrix(-0.003, 0.003, -0.003, -0.003, 1.4, 8.3)" gradientUnits="userSpaceOnUse" id="gradient3" spreadMethod="pad" x1="-819.2" x2="819.2">
      <stop offset="0.43137254901960786" stop-color="#e6edf2"/>
      <stop offset="0.7294117647058823" stop-color="#666666"/>
    </linearGradient>
    <linearGradient gradientTransform="matrix(0.0, 0.0055, -0.0055, 0.0, 1.4, 8.3)" gradientUnits="userSpaceOnUse" id="gradient4" spreadMethod="pad" x1="-819.2" x2="819.2">
      <stop offset="0.43137254901960786" stop-color="#666666"/>
      <stop offset="0.7294117647058823" stop-color="#666666"/>
    </linearGradient>
    <radialGradient cx="0" cy="0" gradientTransform="matrix(0.0065, 0.0, 0.0, 0.0043, -5.8, -2.75)" gradientUnits="userSpaceOnUse" id="gradient5" r="819.2" spreadMethod="pad">
      <stop offset="0.14901960784313725" stop-color="#ffffff"/>
      <stop offset="1.0" stop-color="#ffffff" stop-opacity="0.16078432"/>
    </radialGradient>
  </defs>
</svg>
