<?xml version="1.0" encoding="UTF-8" standalone="no"?>
<svg xmlns:xlink="http://www.w3.org/1999/xlink" height="33.0px" width="142.9px" xmlns="http://www.w3.org/2000/svg">
  <g transform="matrix(1.0, 0.0, 0.0, 1.0, 0.0, 0.0)">
    <path d="M141.9 17.7 L141.9 27.0 Q141.9 29.1 140.45 30.55 139.0 32.0 136.9 32.0 L6.0 32.0 Q3.9 32.0 2.45 30.55 1.0 29.1 1.0 27.0 L1.0 17.7 2.0 17.7 2.0 27.0 Q2.0 28.7 3.15 29.85 4.3 31.0 6.0 31.0 L136.9 31.0 Q138.6 31.0 139.75 29.85 140.9 28.7 140.9 27.0 L140.9 17.7 141.9 17.7" fill="url(#gradient0)" fill-rule="evenodd" stroke="none"/>
    <path d="M1.0 17.7 L1.0 6.0 Q1.0 3.9 2.45 2.45 3.9 1.0 6.0 1.0 L136.9 1.0 Q139.0 1.0 140.45 2.45 141.9 3.9 141.9 6.0 L141.9 17.7 140.9 17.7 2.0 17.7 1.0 17.7" fill="url(#gradient1)" fill-rule="evenodd" stroke="none"/>
    <path d="M141.9 17.7 L141.9 6.0 Q141.9 3.9 140.45 2.45 139.0 1.0 136.9 1.0 L6.0 1.0 Q3.9 1.0 2.45 2.45 1.0 3.9 1.0 6.0 L1.0 17.7 1.0 27.0 Q1.0 29.1 2.45 30.55 3.9 32.0 6.0 32.0 L136.9 32.0 Q139.0 32.0 140.45 30.55 141.9 29.1 141.9 27.0 L141.9 17.7 M136.9 0.0 Q139.4 0.0 141.15 1.75 142.9 3.5 142.9 6.0 L142.9 27.0 Q142.9 29.5 141.15 31.25 139.4 33.0 136.9 33.0 L6.0 33.0 Q3.5 33.0 1.75 31.25 0.0 29.5 0.0 27.0 L0.0 6.0 Q0.0 3.5 1.75 1.75 3.5 0.0 6.0 0.0 L136.9 0.0" fill="url(#gradient2)" fill-rule="evenodd" stroke="none"/>
  </g>
  <defs>
    <linearGradient gradientTransform="matrix(0.0, 0.0201, -0.0201, 0.0, 71.45, 16.55)" gradientUnits="userSpaceOnUse" id="gradient0" spreadMethod="pad" x1="-819.2" x2="819.2">
      <stop offset="0.26666666666666666" stop-color="#ffffff"/>
      <stop offset="1.0" stop-color="#ffffff" stop-opacity="0.0"/>
    </linearGradient>
    <linearGradient gradientTransform="matrix(0.0, 0.0201, -0.0201, 0.0, 71.45, 16.55)" gradientUnits="userSpaceOnUse" id="gradient1" spreadMethod="pad" x1="-819.2" x2="819.2">
      <stop offset="0.08235294117647059" stop-color="#ffffff" stop-opacity="0.3019608"/>
      <stop offset="0.7686274509803922" stop-color="#ffffff" stop-opacity="0.4509804"/>
      <stop offset="1.0" stop-color="#ffffff" stop-opacity="0.0"/>
    </linearGradient>
    <linearGradient gradientTransform="matrix(0.0, 0.0201, -0.0201, 0.0, 71.45, 16.55)" gradientUnits="userSpaceOnUse" id="gradient2" spreadMethod="pad" x1="-819.2" x2="819.2">
      <stop offset="0.0" stop-color="#4a598a" stop-opacity="0.18039216"/>
      <stop offset="1.0" stop-color="#4a598a" stop-opacity="0.101960786"/>
    </linearGradient>
  </defs>
</svg>
