<?xml version="1.0" encoding="UTF-8" standalone="no"?>
<svg xmlns:xlink="http://www.w3.org/1999/xlink" height="33.0px" width="143.2px" xmlns="http://www.w3.org/2000/svg">
  <g transform="matrix(1.0, 0.0, 0.0, 1.0, 0.0, -0.05)">
    <path d="M140.65 2.5 Q139.15 1.0 137.1 1.05 L6.0 1.05 Q3.9 1.0 2.45 2.5 1.0 3.95 1.0 6.05 L1.0 27.0 Q1.0 29.1 2.45 30.6 3.9 32.05 6.0 32.05 L137.1 32.05 Q139.15 32.05 140.65 30.6 142.1 29.1 142.1 27.0 L142.1 6.05 Q142.1 3.95 140.65 2.5 M137.1 0.05 Q139.6 0.0 141.35 1.8 143.1 3.5 143.1 6.05 L143.1 27.0 Q143.1 29.5 141.35 31.3 139.6 33.05 137.1 33.05 L6.0 33.05 Q3.5 33.05 1.75 31.3 0.0 29.5 0.0 27.0 L0.0 6.05 Q0.0 3.5 1.75 1.8 3.5 0.0 6.0 0.05 L137.1 0.05" fill="url(#gradient0)" fill-rule="evenodd" stroke="none"/>
    <path d="M137.2 0.05 Q139.7 0.05 141.45 1.8 143.2 3.55 143.2 6.05 L143.2 27.0 Q143.2 29.5 141.45 31.25 139.7 33.0 137.2 33.0 L6.15 33.0 Q3.65 33.0 1.9 31.25 0.15 29.5 0.15 27.0 L0.15 6.05 Q0.15 3.55 1.9 1.8 3.65 0.05 6.15 0.05 L137.2 0.05" fill="url(#gradient1)" fill-rule="evenodd" stroke="none"/>
  </g>
  <defs>
    <linearGradient gradientTransform="matrix(-0.0044, -0.0309, 0.0199, -0.0029, 71.45, 16.5)" gradientUnits="userSpaceOnUse" id="gradient0" spreadMethod="pad" x1="-819.2" x2="819.2">
      <stop offset="0.2549019607843137" stop-color="#ffffff" stop-opacity="0.8509804"/>
      <stop offset="1.0" stop-color="#003048" stop-opacity="0.4"/>
    </linearGradient>
    <radialGradient cx="0" cy="0" gradientTransform="matrix(0.1018, 0.0, 0.0, 0.0464, 71.65, 33.0)" gradientUnits="userSpaceOnUse" id="gradient1" r="819.2" spreadMethod="pad">
      <stop offset="0.0" stop-color="#ffffff" stop-opacity="0.67058825"/>
      <stop offset="1.0" stop-color="#d5edff" stop-opacity="0.4"/>
    </radialGradient>
  </defs>
</svg>
