<?xml version="1.0" encoding="UTF-8" standalone="no"?>
<svg xmlns:xlink="http://www.w3.org/1999/xlink" height="23.0px" width="23.0px" xmlns="http://www.w3.org/2000/svg">
  <g transform="matrix(1.0, 0.0, 0.0, 1.0, 0.0, 0.0)">
    <path d="M22.0 6.0 Q22.0 3.95 20.5 2.45 19.05 1.0 17.0 1.0 L6.0 1.0 Q3.95 1.0 2.45 2.45 1.0 3.95 1.0 6.0 L1.0 17.0 Q1.0 19.05 2.45 20.5 3.95 22.0 6.0 22.0 L17.0 22.0 Q19.1 22.0 20.5 20.5 22.0 19.1 22.0 17.0 L22.0 6.0 M23.0 6.0 L23.0 17.0 Q23.0 19.5 21.25 21.25 19.5 23.0 17.0 23.0 L6.0 23.0 Q3.5 23.0 1.75 21.25 0.0 19.5 0.0 17.0 L0.0 6.0 Q0.0 3.5 1.75 1.75 3.5 0.0 6.0 0.0 L17.0 0.0 Q19.5 0.0 21.25 1.75 23.0 3.5 23.0 6.0 M21.0 17.0 Q21.0 18.7 19.8 19.8 18.7 21.0 17.0 21.0 L6.0 21.0 Q4.35 21.0 3.15 19.8 2.0 18.65 2.0 17.0 L2.0 6.0 Q2.0 4.35 3.15 3.15 4.35 2.0 6.0 2.0 L17.0 2.0 Q18.65 2.0 19.8 3.15 21.0 4.35 21.0 6.0 L21.0 17.0 M19.1 3.85 Q18.25 3.0 17.0 3.0 L6.0 3.0 Q4.75 3.0 3.85 3.85 3.0 4.75 3.0 6.0 L3.0 17.0 Q3.0 18.25 3.85 19.1 4.75 20.0 6.0 20.0 L17.0 20.0 Q18.3 20.0 19.1 19.1 20.0 18.3 20.0 17.0 L20.0 6.0 Q20.0 4.75 19.1 3.85" fill="#5ca9fe" fill-opacity="0.3529412" fill-rule="evenodd" stroke="none"/>
    <path d="M22.0 6.0 L22.0 17.0 Q22.0 19.1 20.5 20.5 19.1 22.0 17.0 22.0 L6.0 22.0 Q3.95 22.0 2.45 20.5 1.0 19.05 1.0 17.0 L1.0 6.0 Q1.0 3.95 2.45 2.45 3.95 1.0 6.0 1.0 L17.0 1.0 Q19.05 1.0 20.5 2.45 22.0 3.95 22.0 6.0 M21.0 17.0 L21.0 6.0 Q21.0 4.35 19.8 3.15 18.65 2.0 17.0 2.0 L6.0 2.0 Q4.35 2.0 3.15 3.15 2.0 4.35 2.0 6.0 L2.0 17.0 Q2.0 18.65 3.15 19.8 4.35 21.0 6.0 21.0 L17.0 21.0 Q18.7 21.0 19.8 19.8 21.0 18.7 21.0 17.0" fill="#5ca9fe" fill-rule="evenodd" stroke="none"/>
  </g>
</svg>
