<?xml version="1.0" encoding="UTF-8" standalone="no"?>
<svg xmlns:xlink="http://www.w3.org/1999/xlink" height="21.0px" width="44.0px" xmlns="http://www.w3.org/2000/svg">
  <g transform="matrix(1.0, 0.0, 0.0, 1.0, -1.0, -1.0)">
    <path d="M44.0 6.0 Q44.0 4.35 42.8 3.15 41.65 2.0 40.0 2.0 L6.0 2.0 Q4.35 2.0 3.15 3.15 2.0 4.35 2.0 6.0 L2.0 17.0 Q2.0 18.65 3.15 19.8 4.35 21.0 6.0 21.0 L40.0 21.0 Q41.7 21.0 42.8 19.8 44.0 18.7 44.0 17.0 L44.0 6.0 M45.0 6.0 L45.0 17.0 Q45.0 19.1 43.5 20.5 42.1 22.0 40.0 22.0 L6.0 22.0 Q3.95 22.0 2.45 20.5 1.0 19.05 1.0 17.0 L1.0 6.0 Q1.0 3.95 2.45 2.45 3.95 1.0 6.0 1.0 L40.0 1.0 Q42.05 1.0 43.5 2.45 45.0 3.95 45.0 6.0" fill="#5ca9fe" fill-rule="evenodd" stroke="none"/>
  </g>
</svg>
