<?xml version="1.0" encoding="UTF-8" standalone="no"?>
<svg xmlns:xlink="http://www.w3.org/1999/xlink" height="23.0px" width="46.0px" xmlns="http://www.w3.org/2000/svg">
  <g transform="matrix(1.0, 0.0, 0.0, 1.0, 0.0, 0.0)">
    <path d="M45.0 6.0 Q45.0 3.95 43.5 2.45 42.05 1.0 40.0 1.0 L6.0 1.0 Q3.95 1.0 2.45 2.45 1.0 3.95 1.0 6.0 L1.0 17.0 Q1.0 19.05 2.45 20.5 3.95 22.0 6.0 22.0 L40.0 22.0 Q42.1 22.0 43.5 20.5 45.0 19.1 45.0 17.0 L45.0 6.0 M46.0 6.0 L46.0 17.0 Q46.0 19.5 44.25 21.25 42.5 23.0 40.0 23.0 L6.0 23.0 Q3.5 23.0 1.75 21.25 0.0 19.5 0.0 17.0 L0.0 6.0 Q0.0 3.5 1.75 1.75 3.5 0.0 6.0 0.0 L40.0 0.0 Q42.5 0.0 44.25 1.75 46.0 3.5 46.0 6.0" fill="url(#gradient0)" fill-rule="evenodd" stroke="none"/>
    <path d="M44.0 6.0 L44.0 17.0 Q44.0 18.7 42.8 19.8 41.7 21.0 40.0 21.0 L6.0 21.0 Q4.35 21.0 3.15 19.8 2.0 18.65 2.0 17.0 L2.0 6.0 Q2.0 4.35 3.15 3.15 4.35 2.0 6.0 2.0 L40.0 2.0 Q41.65 2.0 42.8 3.15 44.0 4.35 44.0 6.0 M43.0 6.0 Q43.0 4.75 42.1 3.85 41.25 3.0 40.0 3.0 L6.0 3.0 Q4.75 3.0 3.85 3.85 3.0 4.75 3.0 6.0 L3.0 17.0 Q3.0 18.25 3.85 19.1 4.75 20.0 6.0 20.0 L40.0 20.0 Q41.3 20.0 42.1 19.1 43.0 18.3 43.0 17.0 L43.0 6.0" fill="url(#gradient1)" fill-rule="evenodd" stroke="none"/>
    <path d="M43.0 6.0 L43.0 17.0 Q43.0 18.3 42.1 19.1 41.3 20.0 40.0 20.0 L6.0 20.0 Q4.75 20.0 3.85 19.1 3.0 18.25 3.0 17.0 L3.0 6.0 Q3.0 4.75 3.85 3.85 4.75 3.0 6.0 3.0 L40.0 3.0 Q41.25 3.0 42.1 3.85 43.0 4.75 43.0 6.0" fill="url(#gradient2)" fill-rule="evenodd" stroke="none"/>
  </g>
  <defs>
    <linearGradient gradientTransform="matrix(0.0, -0.0134, 0.0134, 0.0, 23.0, 11.0)" gradientUnits="userSpaceOnUse" id="gradient0" spreadMethod="pad" x1="-819.2" x2="819.2">
      <stop offset="0.0" stop-color="#000000" stop-opacity="0.101960786"/>
      <stop offset="1.0" stop-color="#000000" stop-opacity="0.3529412"/>
    </linearGradient>
    <linearGradient gradientTransform="matrix(0.0, 0.011, -0.011, 0.0, 23.0, 11.0)" gradientUnits="userSpaceOnUse" id="gradient1" spreadMethod="pad" x1="-819.2" x2="819.2">
      <stop offset="0.0" stop-color="#000000" stop-opacity="0.101960786"/>
      <stop offset="1.0" stop-color="#000000" stop-opacity="0.3529412"/>
    </linearGradient>
    <linearGradient gradientTransform="matrix(0.0, 0.0098, -0.0098, 0.0, 23.0, 11.0)" gradientUnits="userSpaceOnUse" id="gradient2" spreadMethod="pad" x1="-819.2" x2="819.2">
      <stop offset="0.0" stop-color="#000000" stop-opacity="0.0"/>
      <stop offset="1.0" stop-color="#000000" stop-opacity="0.2"/>
    </linearGradient>
  </defs>
</svg>
