<?xml version="1.0" encoding="UTF-8" standalone="no"?>
<svg xmlns:xlink="http://www.w3.org/1999/xlink" height="44.0px" width="11.0px" xmlns="http://www.w3.org/2000/svg">
  <g transform="matrix(1.0, 0.0, 0.0, 1.0, 0.0, 0.0)">
    <path d="M0.0 1.1 L0.0 0.05 0.05 0.05 0.05 0.0 0.2 0.0 Q4.65 0.05 7.8 3.2 10.95 6.4 11.0 10.95 L10.95 11.75 10.95 15.2 10.95 16.75 10.95 26.2 11.0 26.95 Q10.95 31.55 7.8 34.75 L7.05 35.45 Q4.15 37.9 0.2 37.95 L0.1 37.95 0.1 38.0 0.05 38.0 0.0 38.0 0.0 37.0 0.05 37.0 0.1 37.0 0.1 36.95 0.2 36.95 Q4.2 36.9 7.1 34.05 9.95 31.1 9.95 27.0 L9.95 24.8 10.0 23.95 9.95 23.05 9.95 14.9 10.0 14.0 9.95 13.1 9.95 11.0 Q9.95 6.85 7.05 3.9 4.2 1.1 0.2 1.0 L0.1 1.0 0.1 1.1 0.0 1.1" fill="#000000" fill-opacity="0.2" fill-rule="evenodd" stroke="none"/>
    <path d="M0.0 37.0 L0.0 1.1 0.1 1.1 0.1 1.0 0.2 1.0 Q4.2 1.1 7.05 3.9 9.95 6.85 9.95 11.0 L9.95 13.1 10.0 14.0 9.95 14.9 9.95 23.05 10.0 23.95 9.95 24.8 9.95 27.0 Q9.95 31.1 7.1 34.05 4.2 36.9 0.2 36.95 L0.1 36.95 0.1 37.0 0.05 37.0 0.0 37.0" fill="#ffffff" fill-opacity="0.2" fill-rule="evenodd" stroke="none"/>
    <path d="M10.95 15.2 L11.0 16.0 10.95 16.75 10.95 15.2" fill="#cc6666" fill-rule="evenodd" stroke="none"/>
    <path d="M7.05 35.45 Q8.05 36.7 8.05 38.2 8.0 40.65 5.25 42.3 2.6 43.9 0.2 43.95 L0.1 43.95 0.1 38.0 0.1 37.95 0.2 37.95 Q4.15 37.9 7.05 35.45 M0.05 43.0 L0.05 38.0 0.1 38.0 0.1 43.0 0.05 43.0" fill="url(#gradient0)" fill-rule="evenodd" stroke="none"/>
    <path d="M0.1 43.95 L0.1 44.0 0.05 44.0 0.05 43.0 0.1 43.0 0.1 38.0 0.05 38.0 0.1 38.0 0.1 43.95" fill="url(#gradient1)" fill-rule="evenodd" stroke="none"/>
  </g>
  <defs>
    <radialGradient cx="0" cy="0" gradientTransform="matrix(-0.0097, 0.0, 0.0, 0.0082, 0.0, 36.95)" gradientUnits="userSpaceOnUse" id="gradient0" r="819.2" spreadMethod="pad">
      <stop offset="0.0" stop-color="#000000" stop-opacity="0.2"/>
      <stop offset="1.0" stop-color="#000000" stop-opacity="0.0"/>
    </radialGradient>
    <radialGradient cx="0" cy="0" gradientTransform="matrix(-0.0097, 0.0, 0.0, 0.0082, 0.05, 37.0)" gradientUnits="userSpaceOnUse" id="gradient1" r="819.2" spreadMethod="pad">
      <stop offset="0.0" stop-color="#000000" stop-opacity="0.2"/>
      <stop offset="1.0" stop-color="#000000" stop-opacity="0.0"/>
    </radialGradient>
  </defs>
</svg>
