<?xml version="1.0" encoding="UTF-8" standalone="no"?>
<svg xmlns:xlink="http://www.w3.org/1999/xlink" height="44.1px" width="11.0px" xmlns="http://www.w3.org/2000/svg">
  <g transform="matrix(1.0, 0.0, 0.0, 1.0, 0.0, 0.0)">
    <path d="M0.0 15.25 L0.0 11.8 0.0 11.0 Q0.0 6.4 3.2 3.2 6.35 0.05 10.8 0.0 L10.95 0.0 10.95 0.05 11.0 0.05 11.0 1.1 10.9 1.1 10.9 1.0 10.8 1.0 Q6.8 1.1 3.95 3.9 1.05 6.85 1.05 11.05 L1.0 11.05 1.0 13.1 1.0 14.05 1.0 14.9 1.0 23.1 1.0 24.0 1.0 24.85 1.0 27.05 Q1.0 31.2 3.9 34.15 6.75 36.95 10.8 37.05 L10.9 37.05 10.95 37.05 10.95 37.1 11.0 37.1 11.0 38.1 10.95 38.1 10.95 38.05 10.9 38.05 10.8 38.05 Q6.85 38.0 3.95 35.5 L3.2 34.85 Q0.0 31.6 0.0 27.0 L0.0 26.25 0.0 16.8 0.0 15.25" fill="#000000" fill-opacity="0.2" fill-rule="evenodd" stroke="none"/>
    <path d="M11.0 37.1 L10.95 37.1 10.95 37.05 10.9 37.05 10.8 37.05 Q6.75 36.95 3.9 34.15 1.0 31.2 1.0 27.05 L1.0 24.85 1.0 24.0 1.0 23.1 1.0 14.9 1.0 14.05 1.0 13.1 1.0 11.05 1.05 11.05 Q1.05 6.85 3.95 3.9 6.8 1.1 10.8 1.0 L10.9 1.0 10.9 1.1 11.0 1.1 11.0 37.1" fill="#ffffff" fill-opacity="0.2" fill-rule="evenodd" stroke="none"/>
    <path d="M0.0 15.25 L0.0 16.8 0.0 16.0 0.0 15.25" fill="#cc6666" fill-rule="evenodd" stroke="none"/>
    <path d="M3.95 35.5 Q6.85 38.0 10.8 38.05 L10.9 38.05 10.9 44.05 10.8 44.05 Q8.4 44.0 5.75 42.4 3.0 40.75 2.95 38.25 2.9 36.75 3.95 35.5 M10.95 43.1 L10.95 38.1 10.95 43.1" fill="url(#gradient0)" fill-rule="evenodd" stroke="none"/>
    <path d="M10.9 38.05 L10.95 38.05 10.95 38.1 10.95 43.1 10.95 44.1 10.9 44.1 10.9 44.05 10.9 38.05" fill="url(#gradient1)" fill-rule="evenodd" stroke="none"/>
  </g>
  <defs>
    <radialGradient cx="0" cy="0" gradientTransform="matrix(0.0098, 0.0, 0.0, 0.0082, 11.0, 37.05)" gradientUnits="userSpaceOnUse" id="gradient0" r="819.2" spreadMethod="pad">
      <stop offset="0.0" stop-color="#000000" stop-opacity="0.2"/>
      <stop offset="1.0" stop-color="#000000" stop-opacity="0.0"/>
    </radialGradient>
    <radialGradient cx="0" cy="0" gradientTransform="matrix(0.0098, 0.0, 0.0, 0.0082, 10.95, 37.1)" gradientUnits="userSpaceOnUse" id="gradient1" r="819.2" spreadMethod="pad">
      <stop offset="0.0" stop-color="#000000" stop-opacity="0.2"/>
      <stop offset="1.0" stop-color="#000000" stop-opacity="0.0"/>
    </radialGradient>
  </defs>
</svg>
