<?xml version="1.0" encoding="UTF-8" standalone="no"?>
<svg xmlns:xlink="http://www.w3.org/1999/xlink" height="11.0px" width="9.0px" xmlns="http://www.w3.org/2000/svg">
  <g transform="matrix(1.0, 0.0, 0.0, 1.0, 0.0, 0.0)">
    <path d="M8.0 1.0 L1.0 1.0 1.0 10.0 8.0 10.0 8.0 1.0 M0.0 1.0 Q0.0 0.6 0.3 0.3 0.6 0.0 1.0 0.0 L8.0 0.0 8.7 0.3 9.0 1.0 9.0 10.0 8.7 10.7 8.0 11.0 1.0 11.0 Q0.6 11.0 0.3 10.7 0.0 10.4 0.0 10.0 L0.0 1.0" fill="#cccccc" fill-rule="evenodd" stroke="none"/>
    <path d="M8.0 1.0 L8.0 10.0 1.0 10.0 1.0 1.0 8.0 1.0" fill="url(#gradient0)" fill-rule="evenodd" stroke="none"/>
    <path d="M5.55 2.2 L7.7 7.95 5.7 7.95 5.45 7.0 3.6 7.0 3.3 7.95 1.4 7.95 3.55 2.2 5.55 2.2 M5.05 5.65 L4.55 3.8 4.0 5.65 5.05 5.65" fill="#3f52b4" fill-rule="evenodd" stroke="none"/>
  </g>
  <defs>
    <linearGradient gradientTransform="matrix(0.0, 0.0055, -0.0055, 0.0, 4.5, 5.5)" gradientUnits="userSpaceOnUse" id="gradient0" spreadMethod="pad" x1="-819.2" x2="819.2">
      <stop offset="0.0" stop-color="#ffffff"/>
      <stop offset="1.0" stop-color="#e1e7ec"/>
    </linearGradient>
  </defs>
</svg>
