<?xml version="1.0" encoding="UTF-8" standalone="no"?>
<svg xmlns:xlink="http://www.w3.org/1999/xlink" height="6.0px" width="16.0px" xmlns="http://www.w3.org/2000/svg">
  <g transform="matrix(1.0, 0.0, 0.0, 1.0, 0.0, 0.0)">
    <path d="M9.0 1.0 L9.0 2.0 8.0 2.0 2.0 2.0 2.0 3.0 1.0 3.0 1.0 1.0 9.0 1.0 M8.0 5.0 L8.0 4.0 9.0 4.0 9.0 5.0 8.0 5.0 M9.0 4.0 L9.0 3.0 10.0 3.0 15.0 3.0 15.0 4.0 9.0 4.0" fill="#67ceef" fill-rule="evenodd" stroke="none"/>
    <path d="M7.0 3.0 L7.0 4.0 0.0 4.0 0.0 0.0 10.0 0.0 10.0 1.0 9.0 1.0 1.0 1.0 1.0 3.0 2.0 3.0 7.0 3.0 M8.0 5.0 L9.0 5.0 15.0 5.0 15.0 4.0 15.0 3.0 10.0 3.0 10.0 2.0 16.0 2.0 16.0 6.0 7.1 6.0 7.1 5.0 8.0 5.0" fill="#2881b9" fill-rule="evenodd" stroke="none"/>
    <path d="M8.0 2.0 L8.0 3.0 7.0 3.0 2.0 3.0 2.0 2.0 8.0 2.0 M9.0 5.0 L9.0 4.0 15.0 4.0 15.0 5.0 9.0 5.0" fill="#00368a" fill-rule="evenodd" stroke="none"/>
  </g>
</svg>
