<?xml version="1.0" encoding="UTF-8" standalone="no"?>
<svg xmlns:xlink="http://www.w3.org/1999/xlink" height="13.0px" width="11.0px" xmlns="http://www.w3.org/2000/svg">
  <g transform="matrix(1.0, 0.0, 0.0, 1.0, 0.0, 0.0)">
    <path d="M10.0 1.0 L9.0 1.0 8.0 1.0 8.0 0.0 10.0 0.0 10.0 1.0 M9.0 2.0 L10.0 2.0 10.0 3.0 9.0 3.0 8.0 3.0 8.0 2.0 9.0 2.0 M9.0 4.0 L10.0 4.0 10.0 5.0 9.0 5.0 8.0 5.0 8.0 4.0 9.0 4.0 M8.0 6.0 L9.0 6.0 10.0 6.0 10.0 7.0 9.0 7.0 8.0 7.0 8.0 8.0 3.0 8.0 3.0 9.0 2.0 9.0 1.0 9.0 1.0 8.0 2.0 8.0 3.0 8.0 3.0 7.0 8.0 7.0 8.0 6.0 M3.0 2.0 L3.0 3.0 2.0 3.0 1.0 3.0 1.0 2.0 2.0 2.0 3.0 2.0 M3.0 4.0 L3.0 5.0 2.0 5.0 1.0 5.0 1.0 4.0 2.0 4.0 3.0 4.0 M3.0 6.0 L3.0 7.0 2.0 7.0 1.0 7.0 1.0 6.0 2.0 6.0 3.0 6.0 M3.0 0.0 L3.0 1.0 2.0 1.0 1.0 1.0 1.0 0.0 3.0 0.0 M1.0 13.0 L1.0 12.0 2.0 12.0 3.0 12.0 3.0 13.0 1.0 13.0 M1.0 11.0 L1.0 10.0 2.0 10.0 3.0 10.0 3.0 11.0 2.0 11.0 1.0 11.0 M8.0 11.0 L8.0 10.0 9.0 10.0 10.0 10.0 10.0 11.0 9.0 11.0 8.0 11.0 M8.0 9.0 L8.0 8.0 9.0 8.0 10.0 8.0 10.0 9.0 9.0 9.0 8.0 9.0 M8.0 13.0 L8.0 12.0 9.0 12.0 10.0 12.0 10.0 13.0 8.0 13.0" fill="#333333" fill-rule="evenodd" stroke="none"/>
    <path d="M10.0 1.0 L10.0 0.0 11.0 0.0 11.0 13.0 10.0 13.0 10.0 12.0 10.0 11.0 10.0 10.0 10.0 9.0 10.0 8.0 10.0 7.0 10.0 6.0 10.0 5.0 10.0 4.0 10.0 3.0 10.0 2.0 10.0 1.0 M8.0 1.0 L9.0 1.0 9.0 2.0 8.0 2.0 8.0 1.0 M8.0 3.0 L9.0 3.0 9.0 4.0 8.0 4.0 8.0 3.0 M8.0 5.0 L9.0 5.0 9.0 6.0 8.0 6.0 8.0 5.0 M3.0 2.0 L2.0 2.0 2.0 1.0 3.0 1.0 3.0 2.0 M1.0 2.0 L1.0 3.0 1.0 4.0 1.0 5.0 1.0 6.0 1.0 7.0 1.0 8.0 1.0 9.0 1.0 10.0 1.0 11.0 1.0 12.0 1.0 13.0 0.0 13.0 0.0 0.0 1.0 0.0 1.0 1.0 1.0 2.0 M2.0 3.0 L3.0 3.0 3.0 4.0 2.0 4.0 2.0 3.0 M3.0 5.0 L3.0 6.0 2.0 6.0 2.0 5.0 3.0 5.0 M3.0 8.0 L2.0 8.0 2.0 7.0 3.0 7.0 3.0 8.0 M8.0 8.0 L8.0 7.0 9.0 7.0 9.0 8.0 8.0 8.0 M2.0 12.0 L2.0 11.0 3.0 11.0 3.0 12.0 2.0 12.0 M2.0 10.0 L2.0 9.0 3.0 9.0 3.0 10.0 2.0 10.0 M8.0 12.0 L8.0 11.0 9.0 11.0 9.0 12.0 8.0 12.0 M8.0 10.0 L8.0 9.0 9.0 9.0 9.0 10.0 8.0 10.0" fill="#666666" fill-rule="evenodd" stroke="none"/>
    <path d="M8.0 0.0 L8.0 1.0 3.0 1.0 3.0 0.0 8.0 0.0 M3.0 12.0 L8.0 12.0 8.0 13.0 3.0 13.0 3.0 12.0" fill="#999999" fill-rule="evenodd" stroke="none"/>
    <path d="M8.0 2.0 L8.0 3.0 8.0 4.0 8.0 5.0 8.0 6.0 8.0 7.0 3.0 7.0 3.0 6.0 3.0 5.0 3.0 4.0 3.0 3.0 3.0 2.0 3.0 1.0 8.0 1.0 8.0 2.0" fill="url(#gradient0)" fill-rule="evenodd" stroke="none"/>
    <path d="M3.0 9.0 L3.0 8.0 8.0 8.0 8.0 9.0 8.0 10.0 8.0 11.0 8.0 12.0 3.0 12.0 3.0 11.0 3.0 10.0 3.0 9.0" fill="url(#gradient1)" fill-rule="evenodd" stroke="none"/>
  </g>
  <defs>
    <linearGradient gradientTransform="matrix(0.0, 0.0037, -0.0037, 0.0, 5.5, 4.0)" gradientUnits="userSpaceOnUse" id="gradient0" spreadMethod="pad" x1="-819.2" x2="819.2">
      <stop offset="0.0" stop-color="#2c84c6"/>
      <stop offset="1.0" stop-color="#89d4fe"/>
    </linearGradient>
    <linearGradient gradientTransform="matrix(0.0, 0.0024, -0.0024, 0.0, 5.5, 10.0)" gradientUnits="userSpaceOnUse" id="gradient1" spreadMethod="pad" x1="-819.2" x2="819.2">
      <stop offset="0.0" stop-color="#2c84c6"/>
      <stop offset="1.0" stop-color="#89d4fe"/>
    </linearGradient>
  </defs>
</svg>
