<?xml version="1.0" encoding="UTF-8" standalone="no"?>
<svg xmlns:xlink="http://www.w3.org/1999/xlink" height="9.0px" width="9.0px" xmlns="http://www.w3.org/2000/svg">
  <g transform="matrix(1.0, 0.0, 0.0, 1.0, 0.0, 0.0)">
    <path d="M1.55 0.0 L7.4 0.0 Q9.0 0.0 9.0 1.55 L9.0 7.4 Q9.0 9.0 7.4 9.0 L1.55 9.0 Q0.0 9.0 0.0 7.4 L0.0 1.55 Q0.0 0.0 1.55 0.0" fill="#7998b5" fill-rule="evenodd" stroke="none"/>
    <path d="M1.0 1.0 L8.0 1.0 8.0 8.0 1.0 8.0 1.0 1.0" fill="url(#gradient0)" fill-rule="evenodd" stroke="none"/>
    <path d="M5.0 2.0 L5.0 7.0 4.0 7.0 4.0 2.0 5.0 2.0" fill="#000000" fill-rule="evenodd" stroke="none"/>
    <path d="M7.0 5.0 L2.0 5.0 2.0 4.0 7.0 4.0 7.0 5.0" fill="#000000" fill-rule="evenodd" stroke="none"/>
  </g>
  <defs>
    <linearGradient gradientTransform="matrix(-0.0024, -0.0031, 0.0031, -0.0024, 5.0, 6.4)" gradientUnits="userSpaceOnUse" id="gradient0" spreadMethod="pad" x1="-819.2" x2="819.2">
      <stop offset="0.0" stop-color="#c1bca9"/>
      <stop offset="0.9764705882352941" stop-color="#feffff"/>
    </linearGradient>
  </defs>
</svg>
