<?xml version="1.0" encoding="UTF-8" standalone="no"?>
<svg xmlns:xlink="http://www.w3.org/1999/xlink" height="15.0px" width="16.0px" xmlns="http://www.w3.org/2000/svg">
  <g transform="matrix(1.0, 0.0, 0.0, 1.0, 0.0, 1.0)">
    <path d="M14.0 -1.0 L14.0 0.0 13.0 0.0 13.0 1.0 12.0 1.0 12.0 2.0 9.0 2.0 9.0 3.0 8.0 3.0 8.0 4.0 7.0 4.0 7.0 5.0 8.0 5.0 8.0 6.0 9.0 6.0 9.0 7.0 10.0 7.0 10.0 8.0 11.0 8.0 11.0 7.0 12.0 7.0 12.0 6.0 13.0 6.0 13.0 3.0 14.0 3.0 14.0 2.0 15.0 2.0 15.0 1.0 16.0 1.0 16.0 2.0 15.0 2.0 15.0 3.0 14.0 3.0 14.0 6.0 13.0 6.0 13.0 7.0 12.0 7.0 12.0 8.0 11.0 8.0 11.0 9.0 10.0 9.0 10.0 10.0 9.0 10.0 9.0 11.0 8.0 11.0 8.0 12.0 7.0 12.0 7.0 13.0 4.0 13.0 4.0 14.0 3.0 14.0 3.0 13.0 4.0 13.0 4.0 12.0 7.0 12.0 7.0 11.0 8.0 11.0 8.0 10.0 9.0 10.0 9.0 9.0 8.0 9.0 8.0 8.0 7.0 8.0 7.0 7.0 6.0 7.0 6.0 6.0 5.0 6.0 5.0 7.0 4.0 7.0 4.0 8.0 3.0 8.0 3.0 7.0 4.0 7.0 4.0 6.0 5.0 6.0 5.0 5.0 6.0 5.0 6.0 4.0 7.0 4.0 7.0 3.0 8.0 3.0 8.0 2.0 9.0 2.0 9.0 1.0 12.0 1.0 12.0 0.0 13.0 0.0 13.0 -1.0 14.0 -1.0 M1.0 12.0 L1.0 11.0 2.0 11.0 2.0 8.0 3.0 8.0 3.0 11.0 2.0 11.0 2.0 12.0 1.0 12.0 M9.0 5.0 L8.0 5.0 8.0 4.0 9.0 4.0 9.0 3.0 11.0 3.0 11.0 6.0 10.0 6.0 10.0 5.0 9.0 5.0 M4.0 8.0 L5.0 8.0 5.0 7.0 6.0 7.0 6.0 8.0 6.0 9.0 7.0 9.0 7.0 10.0 4.0 10.0 4.0 8.0" fill="#ffffff" fill-rule="evenodd" stroke="none"/>
    <path d="M14.0 -1.0 L15.0 -1.0 15.0 0.0 14.0 0.0 14.0 -1.0 M3.0 14.0 L2.0 14.0 2.0 13.0 3.0 13.0 3.0 12.0 2.0 12.0 2.0 11.0 3.0 11.0 3.0 8.0 4.0 8.0 4.0 7.0 5.0 7.0 5.0 6.0 6.0 6.0 6.0 7.0 7.0 7.0 7.0 8.0 8.0 8.0 8.0 9.0 9.0 9.0 9.0 10.0 8.0 10.0 8.0 11.0 7.0 11.0 7.0 12.0 4.0 12.0 4.0 13.0 3.0 13.0 3.0 14.0 M1.0 14.0 L0.0 14.0 0.0 13.0 1.0 13.0 1.0 12.0 2.0 12.0 2.0 13.0 1.0 13.0 1.0 14.0 M14.0 0.0 L14.0 1.0 15.0 1.0 15.0 2.0 14.0 2.0 14.0 3.0 13.0 3.0 13.0 6.0 12.0 6.0 12.0 7.0 11.0 7.0 11.0 8.0 10.0 8.0 10.0 7.0 9.0 7.0 9.0 6.0 8.0 6.0 8.0 5.0 7.0 5.0 7.0 4.0 8.0 4.0 8.0 3.0 9.0 3.0 9.0 2.0 12.0 2.0 12.0 1.0 13.0 1.0 13.0 0.0 14.0 0.0 M14.0 2.0 L14.0 1.0 13.0 1.0 13.0 2.0 14.0 2.0 M11.0 6.0 L12.0 6.0 12.0 3.0 11.0 3.0 9.0 3.0 9.0 4.0 8.0 4.0 8.0 5.0 9.0 5.0 9.0 6.0 10.0 6.0 10.0 7.0 11.0 7.0 11.0 6.0 M6.0 8.0 L6.0 7.0 5.0 7.0 5.0 8.0 4.0 8.0 4.0 10.0 4.0 11.0 7.0 11.0 7.0 10.0 8.0 10.0 8.0 9.0 7.0 9.0 7.0 8.0 6.0 8.0" fill="#3e4e60" fill-rule="evenodd" stroke="none"/>
    <path d="M11.0 6.0 L11.0 7.0 10.0 7.0 10.0 6.0 9.0 6.0 9.0 5.0 10.0 5.0 10.0 6.0 11.0 6.0 M6.0 8.0 L7.0 8.0 7.0 9.0 8.0 9.0 8.0 10.0 7.0 10.0 7.0 9.0 6.0 9.0 6.0 8.0" fill="#94a8ba" fill-rule="evenodd" stroke="none"/>
    <path d="M11.0 3.0 L12.0 3.0 12.0 6.0 11.0 6.0 11.0 3.0 M7.0 10.0 L7.0 11.0 4.0 11.0 4.0 10.0 7.0 10.0" fill="#aab9c8" fill-rule="evenodd" stroke="none"/>
    <path d="M14.0 0.0 L15.0 0.0 15.0 1.0 14.0 1.0 14.0 0.0 M2.0 14.0 L1.0 14.0 1.0 13.0 2.0 13.0 2.0 14.0 M14.0 2.0 L13.0 2.0 13.0 1.0 14.0 1.0 14.0 2.0 M2.0 12.0 L3.0 12.0 3.0 13.0 2.0 13.0 2.0 12.0" fill="#51687d" fill-rule="evenodd" stroke="none"/>
  </g>
</svg>
