<?xml version="1.0" encoding="UTF-8" standalone="no"?>
<svg xmlns:xlink="http://www.w3.org/1999/xlink" height="10.6px" width="12.5px" xmlns="http://www.w3.org/2000/svg">
  <g transform="matrix(1.0, 0.0, 0.0, 1.0, 0.0, 0.0)">
    <path d="M10.6 10.6 L1.95 10.6 0.0 8.65 5.2 0.0 7.3 0.0 12.5 8.65 10.6 10.6" fill="url(#gradient0)" fill-rule="evenodd" stroke="none"/>
    <path d="M10.6 9.65 L1.95 9.65 1.0 8.65 5.8 0.95 6.75 0.95 11.55 8.65 10.6 9.65" fill="url(#gradient1)" fill-rule="evenodd" stroke="none"/>
    <path d="M5.8 7.7 L6.75 7.7 6.75 8.65 5.8 8.65 5.8 7.7 M6.75 2.9 L6.75 6.75 5.8 6.75 5.8 2.9 6.75 2.9" fill="#000000" fill-rule="evenodd" stroke="none"/>
  </g>
  <defs>
    <linearGradient gradientTransform="matrix(0.0, 0.0063, -0.0065, 0.0, 6.25, 5.3)" gradientUnits="userSpaceOnUse" id="gradient0" spreadMethod="pad" x1="-819.2" x2="819.2">
      <stop offset="0.0" stop-color="#ff9900"/>
      <stop offset="1.0" stop-color="#cc6600"/>
    </linearGradient>
    <linearGradient gradientTransform="matrix(0.0, -0.0052, 0.0053, 0.0, 6.25, 5.3)" gradientUnits="userSpaceOnUse" id="gradient1" spreadMethod="pad" x1="-819.2" x2="819.2">
      <stop offset="0.0" stop-color="#ffcc00"/>
      <stop offset="1.0" stop-color="#ffff33"/>
      <stop offset="1.0" stop-color="#cc6600"/>
    </linearGradient>
  </defs>
</svg>
