<?xml version="1.0" encoding="UTF-8" standalone="no"?>
<svg xmlns:xlink="http://www.w3.org/1999/xlink" height="14.0px" width="15.0px" xmlns="http://www.w3.org/2000/svg">
  <g transform="matrix(1.0, 0.0, 0.0, 1.0, 0.0, 0.0)">
    <path d="M1.0 1.0 L1.0 0.0 5.0 0.0 5.0 1.0 6.0 1.0 6.0 2.0 12.0 2.0 12.0 3.0 13.0 3.0 13.0 11.0 1.0 11.0 1.0 10.0 0.0 10.0 0.0 1.0 1.0 1.0 1.0 2.0 5.0 2.0 5.0 1.0 1.0 1.0 M12.0 4.0 L12.0 3.0 1.0 3.0 1.0 4.0 1.0 10.0 12.0 10.0 12.0 4.0" fill="#ae7c16" fill-rule="evenodd" stroke="none"/>
    <path d="M1.0 1.0 L5.0 1.0 5.0 2.0 1.0 2.0 1.0 1.0" fill="#fef4c2" fill-rule="evenodd" stroke="none"/>
    <path d="M1.0 4.0 L1.0 3.0 12.0 3.0 12.0 4.0 1.0 4.0" fill="#ffffff" fill-rule="evenodd" stroke="none"/>
    <path d="M12.0 4.0 L12.0 10.0 1.0 10.0 1.0 4.0 12.0 4.0" fill="#ffeb85" fill-rule="evenodd" stroke="none"/>
    <path d="M7.7 10.9 L7.5 10.8 7.4 10.6 7.5 10.4 7.7 10.3 12.6 10.3 12.8 10.4 12.9 10.6 12.8 10.8 12.6 10.9 7.7 10.9" fill="#dcf1fc" fill-rule="evenodd" stroke="none"/>
    <path d="M6.0 11.0 L6.0 6.0 14.0 6.0 14.0 11.0 6.0 11.0 M7.7 10.9 L12.6 10.9 12.8 10.8 12.9 10.6 12.8 10.4 12.6 10.3 7.7 10.3 7.5 10.4 7.4 10.6 7.5 10.8 7.7 10.9 M12.7 7.5 Q12.6 7.45 12.6 7.55 L12.55 7.75 Q12.5 7.85 12.6 7.95 L12.7 8.05 13.5 8.05 13.65 7.95 13.7 7.75 13.65 7.55 13.5 7.5 12.7 7.5 M12.55 8.8 L12.55 9.0 12.7 9.1 13.5 9.1 13.6 9.0 13.7 8.8 13.6 8.6 13.5 8.55 12.7 8.55 12.55 8.6 12.55 8.8" fill="url(#gradient0)" fill-rule="evenodd" stroke="none"/>
    <path d="M6.0 11.0 L14.0 11.0 14.0 6.0 6.0 6.0 6.0 11.0 M9.0 12.0 L5.0 12.0 5.0 5.0 15.0 5.0 15.0 12.0 11.0 12.0 10.0 12.0 9.0 12.0 M11.0 13.0 L13.0 13.0 13.0 14.0 7.0 14.0 7.0 13.0 9.0 13.0 10.0 13.0 11.0 13.0" fill="#666666" fill-rule="evenodd" stroke="none"/>
    <path d="M12.55 8.8 L12.55 8.6 12.7 8.55 13.5 8.55 13.6 8.6 13.7 8.8 13.6 9.0 13.5 9.1 12.7 9.1 12.55 9.0 12.55 8.8 M12.7 7.5 L13.5 7.5 13.65 7.55 13.7 7.75 13.65 7.95 13.5 8.05 12.7 8.05 12.6 7.95 Q12.5 7.85 12.55 7.75 L12.6 7.55 Q12.6 7.45 12.7 7.5" fill="#ffffff" fill-rule="evenodd" stroke="none"/>
    <path d="M10.0 12.0 L11.0 12.0 11.0 13.0 10.0 13.0 10.0 12.0" fill="#333333" fill-rule="evenodd" stroke="none"/>
    <path d="M9.0 12.0 L10.0 12.0 10.0 13.0 9.0 13.0 9.0 12.0" fill="#999999" fill-rule="evenodd" stroke="none"/>
    <path d="M6.05 10.9 L6.05 6.05 13.95 6.05 13.95 8.3 Q9.95 7.4 6.05 10.9" fill="url(#gradient1)" fill-rule="evenodd" stroke="none"/>
  </g>
  <defs>
    <linearGradient gradientTransform="matrix(0.0, 0.0034, -0.0034, 0.0, 10.0, 8.45)" gradientUnits="userSpaceOnUse" id="gradient0" spreadMethod="pad" x1="-819.2" x2="819.2">
      <stop offset="0.0" stop-color="#0a7ae9"/>
      <stop offset="0.07058823529411765" stop-color="#5996fb"/>
      <stop offset="0.8823529411764706" stop-color="#8ecaf4"/>
      <stop offset="1.0" stop-color="#5c98fb"/>
    </linearGradient>
    <linearGradient gradientTransform="matrix(0.0, 0.0035, -0.0029, 0.0, 10.0, 8.5)" gradientUnits="userSpaceOnUse" id="gradient1" spreadMethod="pad" x1="-819.2" x2="819.2">
      <stop offset="0.0" stop-color="#ffffff" stop-opacity="0.6509804"/>
      <stop offset="0.4980392156862745" stop-color="#ffffff" stop-opacity="0.3529412"/>
      <stop offset="0.7294117647058823" stop-color="#ffffff" stop-opacity="0.0"/>
    </linearGradient>
  </defs>
</svg>
