<?xml version="1.0" encoding="UTF-8" standalone="no"?>
<svg xmlns:xlink="http://www.w3.org/1999/xlink" height="5.0px" width="5.05px" xmlns="http://www.w3.org/2000/svg">
  <g transform="matrix(1.0, 0.0, 0.0, 1.0, 0.0, 0.0)">
    <path d="M1.05 5.0 L0.0 5.0 0.05 4.85 0.05 4.75 0.05 4.6 Q0.25 2.85 1.55 1.55 2.9 0.2 4.8 0.05 L5.05 0.0 5.05 1.05 4.8 1.1 Q3.4 1.3 2.35 2.35 1.35 3.35 1.1 4.6 L1.1 4.75 1.05 4.85 1.05 5.0" fill="#839bbf" fill-rule="evenodd" stroke="none"/>
    <path d="M5.05 1.05 L5.05 2.1 4.8 2.15 Q3.85 2.4 3.15 3.15 2.5 3.8 2.2 4.6 L2.15 4.75 2.15 4.85 2.1 5.0 1.05 5.0 1.05 4.85 1.1 4.75 1.1 4.6 Q1.35 3.35 2.35 2.35 3.4 1.3 4.8 1.1 L5.05 1.05" fill="url(#gradient0)" fill-rule="evenodd" stroke="none"/>
    <path d="M5.05 2.1 L5.05 5.0 2.1 5.0 2.15 4.85 2.15 4.75 2.2 4.6 Q2.5 3.8 3.15 3.15 3.85 2.4 4.8 2.15 L5.05 2.1" fill="#cae9f5" fill-rule="evenodd" stroke="none"/>
  </g>
  <defs>
    <linearGradient gradientTransform="matrix(0.0, 0.0137, -0.0137, 0.0, 7.0, 12.2)" gradientUnits="userSpaceOnUse" id="gradient0" spreadMethod="pad" x1="-819.2" x2="819.2">
      <stop offset="0.0" stop-color="#fcfcfc"/>
      <stop offset="0.5019607843137255" stop-color="#fcfcfc"/>
      <stop offset="0.9882352941176471" stop-color="#bec3c6"/>
    </linearGradient>
  </defs>
</svg>
