<?xml version="1.0" encoding="UTF-8" standalone="no"?>
<svg xmlns:xlink="http://www.w3.org/1999/xlink" height="5.0px" width="1.0px" xmlns="http://www.w3.org/2000/svg">
  <g transform="matrix(1.0, 0.0, 0.0, 1.0, 0.0, 0.0)">
    <path d="M1.0 2.0 L0.65 2.0 0.05 2.1 0.0 2.1 0.0 1.05 0.05 1.05 0.45 1.0 1.0 1.0 1.0 2.0" fill="url(#gradient0)" fill-rule="evenodd" stroke="none"/>
    <path d="M1.0 1.0 L0.45 1.0 0.05 1.05 0.0 1.05 0.0 0.0 0.05 0.0 0.2 0.0 1.0 0.0 1.0 1.0" fill="#839bbf" fill-rule="evenodd" stroke="none"/>
    <path d="M0.0 2.1 L0.05 2.1 0.65 2.0 1.0 2.0 1.0 5.0 0.0 5.0 0.0 2.1" fill="#cae9f5" fill-rule="evenodd" stroke="none"/>
  </g>
  <defs>
    <linearGradient gradientTransform="matrix(0.0, 0.0137, -0.011, 0.0, 1.55, 12.2)" gradientUnits="userSpaceOnUse" id="gradient0" spreadMethod="pad" x1="-819.2" x2="819.2">
      <stop offset="0.0" stop-color="#fcfcfc"/>
      <stop offset="0.5019607843137255" stop-color="#fcfcfc"/>
      <stop offset="0.9882352941176471" stop-color="#bec3c6"/>
    </linearGradient>
  </defs>
</svg>
