<?xml version="1.0" encoding="UTF-8" standalone="no"?>
<svg xmlns:xlink="http://www.w3.org/1999/xlink" height="12.8px" width="5.05px" xmlns="http://www.w3.org/2000/svg">
  <g transform="matrix(1.0, 0.0, 0.0, 1.0, 0.05, 0.0)">
    <path d="M4.0 0.0 L5.0 0.0 5.0 12.75 4.0 12.75 4.0 0.2 4.0 0.0" fill="#839bbf" fill-rule="evenodd" stroke="none"/>
    <path d="M0.0 12.75 L-0.05 12.75 -0.05 0.0 0.0 0.0 0.0 12.75" fill="url(#gradient0)" fill-rule="evenodd" stroke="none"/>
    <path d="M3.05 0.0 L4.0 0.0 4.0 0.2 4.0 12.75 3.05 12.75 3.05 0.0" fill="url(#gradient1)" fill-rule="evenodd" stroke="none"/>
    <path d="M0.0 0.0 L0.05 0.0 0.05 12.8 0.0 12.8 0.0 12.75 0.0 0.0" fill="url(#gradient2)" fill-rule="evenodd" stroke="none"/>
    <path d="M0.05 0.0 L3.05 0.0 3.05 12.75 3.05 12.8 0.05 12.8 0.05 0.0" fill="url(#gradient3)" fill-rule="evenodd" stroke="none"/>
  </g>
  <defs>
    <linearGradient gradientTransform="matrix(0.0, 0.0137, 0.0137, 0.0, -3.1, 7.8)" gradientUnits="userSpaceOnUse" id="gradient0" spreadMethod="pad" x1="-819.2" x2="819.2">
      <stop offset="0.0" stop-color="#d6e7ef"/>
      <stop offset="0.4980392156862745" stop-color="#d5e6f0"/>
      <stop offset="0.5647058823529412" stop-color="#b5d2e4"/>
      <stop offset="0.9647058823529412" stop-color="#9ac2dc"/>
    </linearGradient>
    <linearGradient gradientTransform="matrix(0.0, 0.0137, 0.0137, 0.0, -2.0, 6.8)" gradientUnits="userSpaceOnUse" id="gradient1" spreadMethod="pad" x1="-819.2" x2="819.2">
      <stop offset="0.0" stop-color="#fcfcfc"/>
      <stop offset="0.5019607843137255" stop-color="#fcfcfc"/>
      <stop offset="0.9882352941176471" stop-color="#bec3c6"/>
    </linearGradient>
    <linearGradient gradientTransform="matrix(0.0, 0.0138, -0.0165, 0.0, 2.25, 7.8)" gradientUnits="userSpaceOnUse" id="gradient2" spreadMethod="pad" x1="-819.2" x2="819.2">
      <stop offset="0.0" stop-color="#c1e7f4"/>
      <stop offset="0.4980392156862745" stop-color="#aad2ff"/>
      <stop offset="0.5647058823529412" stop-color="#9dcbf0"/>
      <stop offset="0.9647058823529412" stop-color="#71b3fd"/>
    </linearGradient>
    <linearGradient gradientTransform="matrix(0.0, 0.0138, -0.0165, 0.0, 2.25, 7.8)" gradientUnits="userSpaceOnUse" id="gradient3" spreadMethod="pad" x1="-819.2" x2="819.2">
      <stop offset="0.0" stop-color="#ccebf6"/>
      <stop offset="0.4980392156862745" stop-color="#ccebf6"/>
      <stop offset="0.5647058823529412" stop-color="#9bc8f0"/>
      <stop offset="0.9647058823529412" stop-color="#9bc8f0"/>
    </linearGradient>
  </defs>
</svg>
