<?xml version="1.0" encoding="UTF-8" standalone="no"?>
<svg xmlns:xlink="http://www.w3.org/1999/xlink" height="5.0px" width="4.95px" xmlns="http://www.w3.org/2000/svg">
  <g transform="matrix(1.0, 0.0, 0.0, 1.0, 0.05, 0.0)">
    <path d="M3.9 0.0 L4.9 0.0 Q4.8 2.0 3.35 3.45 2.4 4.4 1.25 4.75 L0.05 5.0 -0.05 5.0 -0.05 3.95 0.05 3.95 Q1.45 3.75 2.55 2.65 3.65 1.5 3.9 0.0" fill="#839bbf" fill-rule="evenodd" stroke="none"/>
    <path d="M2.8 0.0 L3.9 0.0 Q3.65 1.5 2.55 2.65 1.45 3.75 0.05 3.95 L-0.05 3.95 -0.05 2.9 0.05 2.9 Q1.0 2.6 1.75 1.85 2.55 1.05 2.8 0.0" fill="url(#gradient0)" fill-rule="evenodd" stroke="none"/>
    <path d="M-0.05 2.9 L-0.05 0.0 2.8 0.0 Q2.55 1.05 1.75 1.85 1.0 2.6 0.05 2.9 L-0.05 2.9" fill="url(#gradient1)" fill-rule="evenodd" stroke="none"/>
  </g>
  <defs>
    <linearGradient gradientTransform="matrix(0.0, 0.0137, 0.0137, 0.0, -2.1, -6.8)" gradientUnits="userSpaceOnUse" id="gradient0" spreadMethod="pad" x1="-819.2" x2="819.2">
      <stop offset="0.0" stop-color="#fcfcfc"/>
      <stop offset="0.5019607843137255" stop-color="#fcfcfc"/>
      <stop offset="0.9882352941176471" stop-color="#bec3c6"/>
    </linearGradient>
    <linearGradient gradientTransform="matrix(0.0, 0.0137, 0.0137, 0.0, -3.1, -5.8)" gradientUnits="userSpaceOnUse" id="gradient1" spreadMethod="pad" x1="-819.2" x2="819.2">
      <stop offset="0.0" stop-color="#d6e7ef"/>
      <stop offset="0.4980392156862745" stop-color="#d5e6f0"/>
      <stop offset="0.5647058823529412" stop-color="#b5d2e4"/>
      <stop offset="0.9647058823529412" stop-color="#9ac2dc"/>
    </linearGradient>
  </defs>
</svg>
