<?xml version="1.0" encoding="UTF-8" standalone="no"?>
<svg xmlns:xlink="http://www.w3.org/1999/xlink" height="5.0px" width="4.95px" xmlns="http://www.w3.org/2000/svg">
  <g transform="matrix(1.0, 0.0, 0.0, 1.0, 0.0, 0.0)">
    <path d="M4.95 2.9 L4.85 2.9 Q3.9 2.6 3.15 1.85 2.35 1.05 2.1 0.0 L4.95 0.0 4.95 2.9" fill="#71b3fd" fill-rule="evenodd" stroke="none"/>
    <path d="M2.1 0.0 Q2.35 1.05 3.15 1.85 3.9 2.6 4.85 2.9 L4.95 2.9 4.95 3.95 4.85 3.95 Q3.45 3.75 2.35 2.65 1.25 1.5 1.05 0.0 L2.1 0.0" fill="url(#gradient0)" fill-rule="evenodd" stroke="none"/>
    <path d="M1.05 0.0 Q1.25 1.5 2.35 2.65 3.45 3.75 4.85 3.95 L4.95 3.95 4.95 5.0 4.85 5.0 3.65 4.75 Q2.5 4.4 1.55 3.45 0.1 2.0 0.0 0.0 L1.05 0.0" fill="#839bbf" fill-rule="evenodd" stroke="none"/>
  </g>
  <defs>
    <linearGradient gradientTransform="matrix(0.0, 0.0137, -0.0137, 0.0, 7.0, -6.8)" gradientUnits="userSpaceOnUse" id="gradient0" spreadMethod="pad" x1="-819.2" x2="819.2">
      <stop offset="0.0" stop-color="#fcfcfc"/>
      <stop offset="0.5019607843137255" stop-color="#fcfcfc"/>
      <stop offset="0.9882352941176471" stop-color="#bec3c6"/>
    </linearGradient>
  </defs>
</svg>
