<?xml version="1.0" encoding="UTF-8" standalone="no"?>
<svg xmlns:xlink="http://www.w3.org/1999/xlink" height="5.0px" width="1.0px" xmlns="http://www.w3.org/2000/svg">
  <g transform="matrix(1.0, 0.0, 0.0, 1.0, 0.0, 0.0)">
    <path d="M0.0 2.9 L0.2 2.95 0.5 3.0 0.75 3.0 1.0 3.0 1.0 4.0 0.5 4.0 0.2 4.0 0.0 3.95 0.0 2.9" fill="url(#gradient0)" fill-rule="evenodd" stroke="none"/>
    <path d="M1.0 3.0 L0.75 3.0 0.5 3.0 0.2 2.95 0.0 2.9 0.0 0.0 1.0 0.0 1.0 3.0" fill="url(#gradient1)" fill-rule="evenodd" stroke="none"/>
    <path d="M0.0 3.95 L0.2 4.0 0.5 4.0 1.0 4.0 1.0 5.0 0.25 5.0 0.2 5.0 0.0 5.0 0.0 3.95" fill="#839bbf" fill-rule="evenodd" stroke="none"/>
  </g>
  <defs>
    <linearGradient gradientTransform="matrix(0.0, 0.0137, -0.011, 0.0, 1.6, -6.8)" gradientUnits="userSpaceOnUse" id="gradient0" spreadMethod="pad" x1="-819.2" x2="819.2">
      <stop offset="0.0" stop-color="#fcfcfc"/>
      <stop offset="0.5019607843137255" stop-color="#fcfcfc"/>
      <stop offset="0.9882352941176471" stop-color="#bec3c6"/>
    </linearGradient>
    <linearGradient gradientTransform="matrix(0.0, 0.0137, -0.011, 0.0, 2.4, -5.8)" gradientUnits="userSpaceOnUse" id="gradient1" spreadMethod="pad" x1="-819.2" x2="819.2">
      <stop offset="0.0" stop-color="#d6e7ef"/>
      <stop offset="0.4980392156862745" stop-color="#d5e6f0"/>
      <stop offset="0.5647058823529412" stop-color="#b5d2e4"/>
      <stop offset="0.9647058823529412" stop-color="#9ac2dc"/>
    </linearGradient>
  </defs>
</svg>
