<?xml version="1.0" encoding="UTF-8" standalone="no"?>
<svg xmlns:xlink="http://www.w3.org/1999/xlink" height="13.0px" width="13.0px" xmlns="http://www.w3.org/2000/svg">
  <g transform="matrix(1.0, 0.0, 0.0, 1.0, 0.0, 0.0)">
    <path d="M0.0 13.0 L0.0 0.0 13.0 0.0 13.0 13.0 0.0 13.0" fill="url(#gradient0)" fill-rule="evenodd" stroke="none"/>
    <path d="M12.05 12.0 L1.05 12.0 1.05 1.0 12.05 1.0 12.05 12.0" fill="url(#gradient1)" fill-rule="evenodd" stroke="none"/>
    <path d="M12.0 12.0 L1.0 12.0 1.0 1.0 12.0 1.0 12.0 12.0 M11.0 11.0 L11.0 2.0 2.0 2.0 2.0 11.0 11.0 11.0" fill="url(#gradient2)" fill-rule="evenodd" stroke="none"/>
    <path d="M4.0 7.0 L4.0 6.0 9.0 6.0 9.0 7.0 8.0 7.0 8.0 8.0 7.0 8.0 7.0 9.0 6.0 9.0 6.0 8.0 5.0 8.0 5.0 7.0 4.0 7.0" fill="#586d87" fill-rule="evenodd" stroke="none"/>
  </g>
  <defs>
    <linearGradient gradientTransform="matrix(-0.0079, 0.0, 0.0, 0.0079, 6.5, 6.5)" gradientUnits="userSpaceOnUse" id="gradient0" spreadMethod="pad" x1="-819.2" x2="819.2">
      <stop offset="0.0" stop-color="#ffffff" stop-opacity="0.3019608"/>
      <stop offset="1.0" stop-color="#ffffff" stop-opacity="0.101960786"/>
    </linearGradient>
    <linearGradient gradientTransform="matrix(0.0, 0.0067, -0.0067, 0.0, 6.55, 6.5)" gradientUnits="userSpaceOnUse" id="gradient1" spreadMethod="pad" x1="-819.2" x2="819.2">
      <stop offset="0.0" stop-color="#d1e2ed"/>
      <stop offset="1.0" stop-color="#a2c4db"/>
    </linearGradient>
    <linearGradient gradientTransform="matrix(0.0, 0.0067, -1.0, 0.0, 13.35, 6.5)" gradientUnits="userSpaceOnUse" id="gradient2" spreadMethod="pad" x1="-819.2" x2="819.2">
      <stop offset="0.0" stop-color="#ffffff"/>
      <stop offset="1.0" stop-color="#ffffff" stop-opacity="0.101960786"/>
    </linearGradient>
  </defs>
</svg>
