<?xml version="1.0" encoding="UTF-8" standalone="no"?>
<svg xmlns:xlink="http://www.w3.org/1999/xlink" height="5.0px" width="11.0px" xmlns="http://www.w3.org/2000/svg">
  <g transform="matrix(1.0, 0.0, 0.0, 1.0, 0.0, -1.0)">
    <path d="M0.0 6.0 L0.0 1.0 7.0 1.0 Q8.65 1.0 9.8 2.15 11.0 3.35 11.0 5.0 L11.0 6.0 0.0 6.0" fill="#414f57" fill-rule="evenodd" stroke="none"/>
    <path d="M0.0 6.0 L0.0 1.0 7.0 1.0 Q8.65 1.0 9.8 2.15 11.0 3.35 11.0 5.0 L11.0 6.0 0.0 6.0" fill="#6e85a4" fill-rule="evenodd" stroke="none"/>
    <path d="M9.1 2.85 Q9.95 3.75 10.0 5.0 L10.0 6.0 1.0 6.0 1.0 2.0 7.0 2.0 7.95 2.15 Q8.6 2.35 9.1 2.85" fill="url(#gradient0)" fill-rule="evenodd" stroke="none"/>
    <path d="M10.0 6.0 L9.0 6.0 9.0 5.0 Q9.0 4.15 8.4 3.55 7.8 3.0 7.0 3.0 L0.0 3.0 0.0 2.0 7.0 2.0 Q8.2 2.0 9.1 2.85 9.95 3.75 10.0 5.0 L10.0 6.0" fill="url(#gradient1)" fill-rule="evenodd" stroke="none"/>
    <path d="M2.0 3.0 L2.0 6.0 1.0 6.0 1.0 3.0 2.0 3.0" fill="#000000" fill-opacity="0.101960786" fill-rule="evenodd" stroke="none"/>
  </g>
  <defs>
    <linearGradient gradientTransform="matrix(0.0055, 0.0, 0.0, 0.0037, 5.5, 3.0)" gradientUnits="userSpaceOnUse" id="gradient0" spreadMethod="pad" x1="-819.2" x2="819.2">
      <stop offset="0.0" stop-color="#ffffff" stop-opacity="0.8"/>
      <stop offset="1.0" stop-color="#ffffff" stop-opacity="0.9019608"/>
    </linearGradient>
    <linearGradient gradientTransform="matrix(0.0061, 0.0, 0.0, 0.0024, 5.0, 4.0)" gradientUnits="userSpaceOnUse" id="gradient1" spreadMethod="pad" x1="-819.2" x2="819.2">
      <stop offset="0.0" stop-color="#ffffff" stop-opacity="0.6"/>
      <stop offset="1.0" stop-color="#ffffff"/>
    </linearGradient>
  </defs>
</svg>
