<?xml version="1.0" encoding="UTF-8" standalone="no"?>
<svg xmlns:xlink="http://www.w3.org/1999/xlink" height="1.0px" width="11.0px" xmlns="http://www.w3.org/2000/svg">
  <g transform="matrix(1.0, 0.0, 0.0, 1.0, 0.0, 0.0)">
    <path d="M11.0 1.0 L0.0 1.0 0.0 0.0 11.0 0.0 11.0 1.0" fill="#414f57" fill-rule="evenodd" stroke="none"/>
    <path d="M11.0 0.0 L11.0 1.0 0.0 1.0 0.0 0.0 11.0 0.0" fill="#6e85a4" fill-rule="evenodd" stroke="none"/>
    <path d="M10.0 1.0 L1.0 1.0 1.0 0.0 10.0 0.0 10.0 1.0" fill="url(#gradient0)" fill-rule="evenodd" stroke="none"/>
    <path d="M1.0 1.0 L1.0 0.0 2.0 0.0 2.0 1.0 1.0 1.0" fill="#000000" fill-opacity="0.101960786" fill-rule="evenodd" stroke="none"/>
    <path d="M9.0 0.0 L10.0 0.0 10.0 1.0 9.0 1.0 9.0 0.0" fill="#ffffff" fill-opacity="0.5019608" fill-rule="evenodd" stroke="none"/>
  </g>
  <defs>
    <linearGradient gradientTransform="matrix(0.0055, 0.0, 0.0, 6.0E-4, 5.5, 0.5)" gradientUnits="userSpaceOnUse" id="gradient0" spreadMethod="pad" x1="-819.2" x2="819.2">
      <stop offset="0.0" stop-color="#ffffff" stop-opacity="0.5019608"/>
      <stop offset="1.0" stop-color="#ffffff" stop-opacity="0.5019608"/>
    </linearGradient>
  </defs>
</svg>
