<?xml version="1.0" encoding="UTF-8" standalone="no"?>
<svg xmlns:xlink="http://www.w3.org/1999/xlink" height="13.0px" width="13.0px" xmlns="http://www.w3.org/2000/svg">
  <g transform="matrix(1.0, 0.0, 0.0, 1.0, 0.0, 0.0)">
    <path d="M11.1 1.9 Q13.0 3.8 13.0 6.5 13.0 9.15 11.1 11.1 9.15 13.0 6.5 13.0 3.8 13.0 1.9 11.1 0.0 9.15 0.0 6.5 0.0 3.8 1.9 1.9 3.8 0.0 6.5 0.0 9.15 0.0 11.1 1.9 M10.4 2.6 Q8.75 1.0 6.5 1.0 4.2 1.0 2.6 2.6 1.0 4.2 1.0 6.5 1.0 8.75 2.6 10.4 4.2 12.0 6.5 12.0 8.75 12.0 10.4 10.4 12.0 8.75 12.0 6.5 12.0 4.2 10.4 2.6" fill="#255585" fill-rule="evenodd" stroke="none"/>
    <path d="M10.4 2.6 Q12.0 4.2 12.0 6.5 12.0 8.75 10.4 10.4 8.75 12.0 6.5 12.0 4.2 12.0 2.6 10.4 1.0 8.75 1.0 6.5 1.0 4.2 2.6 2.6 4.2 1.0 6.5 1.0 8.75 1.0 10.4 2.6" fill="url(#gradient0)" fill-rule="evenodd" stroke="none"/>
  </g>
  <defs>
    <linearGradient gradientTransform="matrix(0.0038, 0.0043, -0.0043, 0.0038, 6.15, 6.45)" gradientUnits="userSpaceOnUse" id="gradient0" spreadMethod="pad" x1="-819.2" x2="819.2">
      <stop offset="0.0" stop-color="#e6e5e1"/>
      <stop offset="0.9921568627450981" stop-color="#ffffff"/>
    </linearGradient>
  </defs>
</svg>
