<?xml version="1.0" encoding="UTF-8" standalone="no"?>
<svg xmlns:xlink="http://www.w3.org/1999/xlink" height="13.0px" width="18.0px" xmlns="http://www.w3.org/2000/svg">
  <g transform="matrix(1.0, 0.0, 0.0, 1.0, 0.0, 0.0)">
    <path d="M17.0 6.0 L17.0 7.0 16.0 7.0 16.0 8.0 15.0 8.0 15.0 9.0 14.0 9.0 14.0 8.0 13.05 8.0 13.05 7.95 11.6 7.95 11.6 8.0 11.0 8.0 11.0 5.0 14.0 5.0 14.0 4.0 15.0 4.0 15.0 5.0 16.0 5.0 16.0 6.0 17.0 6.0" fill="url(#gradient0)" fill-rule="evenodd" stroke="none"/>
    <path d="M17.0 6.0 L18.0 6.0 18.0 7.0 17.0 7.0 17.0 6.0 16.0 6.0 16.0 5.0 15.0 5.0 15.0 4.0 14.0 4.0 14.0 5.0 11.0 5.0 11.0 8.0 11.6 8.0 13.05 8.0 14.0 8.0 14.0 9.0 15.0 9.0 15.0 8.0 16.0 8.0 16.0 7.0 17.0 7.0 17.0 8.0 16.0 8.0 16.0 9.0 15.0 9.0 15.0 10.0 14.0 10.0 14.0 11.0 13.0 11.0 13.0 9.0 11.0 9.0 11.0 13.0 10.0 13.0 10.0 0.0 11.0 0.0 11.0 4.0 13.0 4.0 13.0 2.0 14.0 2.0 14.0 3.0 15.0 3.0 15.0 4.0 16.0 4.0 16.0 5.0 17.0 5.0 17.0 6.0 M4.95 5.0 L4.0 5.0 4.0 4.0 3.0 4.0 3.0 5.0 2.0 5.0 2.0 6.0 1.0 6.0 1.0 7.0 2.0 7.0 2.0 8.0 3.0 8.0 3.0 9.0 4.0 9.0 4.0 8.0 7.0 8.0 7.0 5.0 6.4 5.0 4.95 5.0 M8.0 0.0 L8.0 13.0 7.0 13.0 7.0 9.0 5.0 9.0 5.0 11.0 4.0 11.0 4.0 10.0 3.0 10.0 3.0 9.0 2.0 9.0 2.0 8.0 1.0 8.0 1.0 7.0 0.0 7.0 0.0 6.0 1.0 6.0 1.0 5.0 2.0 5.0 2.0 4.0 3.0 4.0 3.0 3.0 4.0 3.0 4.0 2.0 5.0 2.0 5.0 4.0 7.0 4.0 7.0 0.0 8.0 0.0" fill="#333333" fill-rule="evenodd" stroke="none"/>
    <path d="M6.4 5.0 L7.0 5.0 7.0 8.0 4.0 8.0 4.0 9.0 3.0 9.0 3.0 8.0 2.0 8.0 2.0 7.0 1.0 7.0 1.0 6.0 2.0 6.0 2.0 5.0 3.0 5.0 3.0 4.0 4.0 4.0 4.0 5.0 4.95 5.0 4.95 5.05 6.4 5.05 6.4 5.0" fill="url(#gradient1)" fill-rule="evenodd" stroke="none"/>
  </g>
  <defs>
    <linearGradient gradientTransform="matrix(0.0049, 0.0, 0.0, 0.0037, 16.0, 7.0)" gradientUnits="userSpaceOnUse" id="gradient0" spreadMethod="pad" x1="-819.2" x2="819.2">
      <stop offset="0.0" stop-color="#ffffff"/>
      <stop offset="1.0" stop-color="#333333"/>
    </linearGradient>
    <linearGradient gradientTransform="matrix(-0.0046, 0.0, 0.0, -0.0037, 2.4, 6.6)" gradientUnits="userSpaceOnUse" id="gradient1" spreadMethod="pad" x1="-819.2" x2="819.2">
      <stop offset="0.0" stop-color="#ffffff"/>
      <stop offset="1.0" stop-color="#333333"/>
    </linearGradient>
  </defs>
</svg>
