<?xml version="1.0" encoding="UTF-8" standalone="no"?>
<svg xmlns:xlink="http://www.w3.org/1999/xlink" height="5.0px" width="5.05px" xmlns="http://www.w3.org/2000/svg">
  <g transform="matrix(1.0, 0.0, 0.0, 1.0, 0.05, 0.0)">
    <path d="M4.0 5.0 L3.95 4.85 3.95 4.75 3.9 4.6 Q3.65 3.35 2.65 2.35 1.6 1.3 0.2 1.1 L-0.05 1.05 -0.05 0.0 0.2 0.05 Q2.1 0.2 3.45 1.55 4.75 2.85 4.95 4.6 L5.0 4.75 5.0 4.85 5.0 5.0 4.0 5.0" fill="url(#gradient0)" fill-rule="evenodd" stroke="none"/>
    <path d="M2.9 5.0 L2.9 4.85 2.85 4.75 2.8 4.6 Q2.5 3.8 1.85 3.15 1.15 2.4 0.2 2.15 L-0.05 2.1 -0.05 1.05 0.2 1.1 Q1.6 1.3 2.65 2.35 3.65 3.35 3.9 4.6 L3.95 4.75 3.95 4.85 4.0 5.0 2.9 5.0" fill="url(#gradient1)" fill-rule="evenodd" stroke="none"/>
    <path d="M-0.05 2.1 L0.2 2.15 Q1.15 2.4 1.85 3.15 2.5 3.8 2.8 4.6 L2.85 4.75 2.9 4.85 2.9 5.0 -0.05 5.0 -0.05 2.1" fill="#a7cfe7" fill-opacity="0.5019608" fill-rule="evenodd" stroke="none"/>
  </g>
  <defs>
    <linearGradient gradientTransform="matrix(0.0, 0.0146, -0.0146, 0.0, 14.8, 11.9)" gradientUnits="userSpaceOnUse" id="gradient0" spreadMethod="pad" x1="-819.2" x2="819.2">
      <stop offset="0.08235294117647059" stop-color="#6e85a4" stop-opacity="0.5019608"/>
      <stop offset="0.8274509803921568" stop-color="#6e85a4" stop-opacity="0.5019608"/>
    </linearGradient>
    <linearGradient gradientTransform="matrix(0.0, 0.0134, -0.0134, 0.0, 14.8, 11.9)" gradientUnits="userSpaceOnUse" id="gradient1" spreadMethod="pad" x1="-819.2" x2="819.2">
      <stop offset="0.6509803921568628" stop-color="#ffffff" stop-opacity="0.3019608"/>
      <stop offset="0.9725490196078431" stop-color="#dcdcdc" stop-opacity="0.3019608"/>
    </linearGradient>
  </defs>
</svg>
