<?xml version="1.0" encoding="UTF-8" standalone="no"?>
<svg xmlns:xlink="http://www.w3.org/1999/xlink" height="5.0px" width="1.0px" xmlns="http://www.w3.org/2000/svg">
  <g transform="matrix(1.0, 0.0, 0.0, 1.0, 0.0, 0.0)">
    <path d="M1.0 1.0 L0.45 1.0 0.05 1.05 0.0 1.05 0.0 0.0 0.05 0.0 0.2 0.0 1.0 0.0 1.0 1.0" fill="url(#gradient0)" fill-rule="evenodd" stroke="none"/>
    <path d="M0.0 2.1 L0.05 2.1 0.65 2.0 1.0 2.0 1.0 5.0 0.0 5.0 0.0 2.1" fill="#acdef0" fill-opacity="0.7019608" fill-rule="evenodd" stroke="none"/>
    <path d="M1.0 2.0 L0.65 2.0 0.05 2.1 0.0 2.1 0.0 1.05 0.05 1.05 0.45 1.0 1.0 1.0 1.0 2.0" fill="url(#gradient1)" fill-rule="evenodd" stroke="none"/>
  </g>
  <defs>
    <linearGradient gradientTransform="matrix(0.0, 0.0146, -0.0029, 0.0, 2.7, -17.3)" gradientUnits="userSpaceOnUse" id="gradient0" spreadMethod="pad" x1="-819.2" x2="819.2">
      <stop offset="0.08235294117647059" stop-color="#6e85a4" stop-opacity="0.7019608"/>
      <stop offset="0.8274509803921568" stop-color="#6e85a4" stop-opacity="0.5529412"/>
    </linearGradient>
    <linearGradient gradientTransform="matrix(0.0, 0.0134, -0.0134, 0.0, 10.1, -8.75)" gradientUnits="userSpaceOnUse" id="gradient1" spreadMethod="pad" x1="-819.2" x2="819.2">
      <stop offset="0.6666666666666666" stop-color="#ffffff" stop-opacity="0.7019608"/>
      <stop offset="0.9294117647058824" stop-color="#ffffff"/>
    </linearGradient>
  </defs>
</svg>
