<?xml version="1.0" encoding="UTF-8" standalone="no"?>
<svg xmlns:xlink="http://www.w3.org/1999/xlink" height="5.0px" width="5.0px" xmlns="http://www.w3.org/2000/svg">
  <g transform="matrix(1.0, 0.0, 0.0, 1.0, 0.0, 0.0)">
    <path d="M2.95 0.0 L3.95 0.0 Q3.7 1.45 2.6 2.6 1.45 3.7 0.0 3.95 L0.0 2.95 Q1.05 2.65 1.9 1.9 L2.95 0.0" fill="url(#gradient0)" fill-rule="evenodd" stroke="none"/>
    <path d="M3.95 0.0 L5.0 0.0 Q4.7 1.9 3.3 3.3 1.9 4.7 0.0 5.0 L0.0 3.95 Q1.45 3.7 2.6 2.6 3.7 1.45 3.95 0.0" fill="url(#gradient1)" fill-rule="evenodd" stroke="none"/>
    <path d="M0.0 2.95 L0.0 0.0 2.95 0.0 1.9 1.9 Q1.05 2.65 0.0 2.95" fill="url(#gradient2)" fill-rule="evenodd" stroke="none"/>
  </g>
  <defs>
    <linearGradient gradientTransform="matrix(0.0, 0.0136, 0.0136, 0.0, -30.3, -7.05)" gradientUnits="userSpaceOnUse" id="gradient0" spreadMethod="pad" x1="-819.2" x2="819.2">
      <stop offset="0.6509803921568628" stop-color="#ffffff" stop-opacity="0.3019608"/>
      <stop offset="0.9725490196078431" stop-color="#dcdcdc" stop-opacity="0.3019608"/>
    </linearGradient>
    <linearGradient gradientTransform="matrix(0.0, 0.0148, 0.0148, 0.0, -30.3, -7.05)" gradientUnits="userSpaceOnUse" id="gradient1" spreadMethod="pad" x1="-819.2" x2="819.2">
      <stop offset="0.08235294117647059" stop-color="#6e85a4" stop-opacity="0.5019608"/>
      <stop offset="0.8274509803921568" stop-color="#6e85a4" stop-opacity="0.5019608"/>
    </linearGradient>
    <linearGradient gradientTransform="matrix(0.0, 0.0123, 0.0123, 0.0, -30.3, -7.05)" gradientUnits="userSpaceOnUse" id="gradient2" spreadMethod="pad" x1="-819.2" x2="819.2">
      <stop offset="0.29411764705882354" stop-color="#a7cfe7" stop-opacity="0.5019608"/>
      <stop offset="0.8274509803921568" stop-color="#9bc2dc" stop-opacity="0.5019608"/>
    </linearGradient>
  </defs>
</svg>
