<?xml version="1.0" encoding="UTF-8" standalone="no"?>
<svg xmlns:xlink="http://www.w3.org/1999/xlink" height="5.0px" width="1.0px" xmlns="http://www.w3.org/2000/svg">
  <g transform="matrix(1.0, 0.0, 0.0, 1.0, 0.0, 0.0)">
    <path d="M1.0 3.0 L0.75 3.0 0.5 3.0 0.2 2.95 0.0 2.9 0.0 0.0 1.0 0.0 1.0 3.0" fill="#99c6f0" fill-opacity="0.7019608" fill-rule="evenodd" stroke="none"/>
    <path d="M0.0 2.9 L0.2 2.95 0.5 3.0 0.75 3.0 1.0 3.0 1.0 4.0 0.5 4.0 0.2 4.0 0.0 3.95 0.0 2.9" fill="url(#gradient0)" fill-rule="evenodd" stroke="none"/>
    <path d="M0.0 3.95 L0.2 4.0 0.5 4.0 1.0 4.0 1.0 5.0 0.25 5.0 0.2 5.0 0.0 5.0 0.0 3.95" fill="url(#gradient1)" fill-rule="evenodd" stroke="none"/>
  </g>
  <defs>
    <linearGradient gradientTransform="matrix(0.0, 0.0134, -0.006, 0.0, 8.1, -19.7)" gradientUnits="userSpaceOnUse" id="gradient0" spreadMethod="pad" x1="-819.2" x2="819.2">
      <stop offset="0.6509803921568628" stop-color="#ffffff" stop-opacity="0.7019608"/>
      <stop offset="0.9725490196078431" stop-color="#dcdcdc" stop-opacity="0.7019608"/>
    </linearGradient>
    <linearGradient gradientTransform="matrix(0.0, 0.0146, -0.0065, 0.0, 8.1, -19.7)" gradientUnits="userSpaceOnUse" id="gradient1" spreadMethod="pad" x1="-819.2" x2="819.2">
      <stop offset="0.08235294117647059" stop-color="#6e85a4" stop-opacity="0.7019608"/>
      <stop offset="0.8274509803921568" stop-color="#6e85a4" stop-opacity="0.5529412"/>
    </linearGradient>
  </defs>
</svg>
