<?xml version="1.0" encoding="UTF-8" standalone="no"?>
<svg xmlns:xlink="http://www.w3.org/1999/xlink" height="19.0px" width="22.0px" xmlns="http://www.w3.org/2000/svg">
  <g transform="matrix(1.0, 0.0, 0.0, 1.0, 0.0, 0.0)">
    <path d="M21.0 13.1 L21.0 6.05 Q21.0 3.9 19.5 2.45 18.05 0.95 15.9 1.0 L5.95 1.0 Q3.9 1.0 2.5 2.45 1.0 3.9 1.0 6.05 L1.0 13.1 Q1.05 15.1 2.5 16.55 3.9 17.95 5.95 18.0 L15.9 18.0 Q18.05 18.0 19.5 16.55 20.95 15.1 21.0 13.1 M22.0 6.05 L22.0 13.8 21.95 13.8 Q21.7 15.8 20.2 17.25 18.45 19.0 15.9 19.0 L5.95 19.0 Q3.5 18.9 1.8 17.25 0.3 15.8 0.05 13.8 L0.0 13.8 0.0 6.05 Q-0.05 3.45 1.8 1.75 3.5 0.05 5.95 0.0 L15.9 0.0 Q18.45 -0.05 20.2 1.75 22.0 3.45 22.0 6.05" fill="url(#gradient0)" fill-rule="evenodd" stroke="none"/>
  </g>
  <defs>
    <linearGradient gradientTransform="matrix(-0.0084, -0.0103, 0.0091, -0.0073, 10.95, 9.5)" gradientUnits="userSpaceOnUse" id="gradient0" spreadMethod="pad" x1="-819.2" x2="819.2">
      <stop offset="0.2549019607843137" stop-color="#ffffff" stop-opacity="0.8509804"/>
      <stop offset="1.0" stop-color="#003048" stop-opacity="0.4"/>
    </linearGradient>
  </defs>
</svg>
