<?xml version="1.0" encoding="UTF-8" standalone="no"?>
<svg xmlns:xlink="http://www.w3.org/1999/xlink" height="11.0px" width="11.0px" xmlns="http://www.w3.org/2000/svg">
  <g transform="matrix(1.0, 0.0, 0.0, 1.0, 0.0, 0.0)">
    <path d="M0.0 9.2 L0.0 8.75 0.6 8.75 1.5 8.7 2.45 8.55 Q4.55 8.1 6.2 6.65 8.5 4.5 8.5 1.55 L8.5 0.0 9.0 0.0 9.0 1.55 Q9.0 4.7 6.55 6.95 4.5 8.8 1.7 9.1 L0.7 9.2 0.55 9.2 0.0 9.2" fill="#455565" fill-opacity="0.5529412" fill-rule="evenodd" stroke="none"/>
    <path d="M0.0 9.65 L0.0 9.2 0.55 9.2 0.7 9.2 1.7 9.1 Q4.5 8.8 6.55 6.95 9.0 4.7 9.0 1.55 L9.0 0.0 9.5 0.0 9.5 1.55 Q9.5 4.9 6.9 7.25 4.4 9.5 0.85 9.65 L0.55 9.65 0.0 9.65" fill="#455565" fill-opacity="0.4392157" fill-rule="evenodd" stroke="none"/>
    <path d="M10.5 0.0 L11.0 0.0 11.0 1.55 Q11.0 5.45 7.95 8.2 4.9 10.95 0.55 11.0 L0.0 11.0 0.0 10.55 0.55 10.55 Q4.65 10.5 7.6 7.9 10.5 5.25 10.5 1.55 L10.5 0.0" fill="#455565" fill-opacity="0.105882354" fill-rule="evenodd" stroke="none"/>
    <path d="M10.5 0.0 L10.5 1.55 Q10.5 5.25 7.6 7.9 4.65 10.5 0.55 10.55 L0.0 10.55 0.0 10.1 0.55 10.1 Q4.45 10.05 7.25 7.6 10.0 5.1 10.0 1.55 L10.0 0.0 10.5 0.0" fill="#455565" fill-opacity="0.21568628" fill-rule="evenodd" stroke="none"/>
    <path d="M0.0 10.1 L0.0 9.65 0.55 9.65 0.85 9.65 Q4.4 9.5 6.9 7.25 9.5 4.9 9.5 1.55 L9.5 0.0 10.0 0.0 10.0 1.55 Q10.0 5.1 7.25 7.6 4.45 10.05 0.55 10.1 L0.0 10.1" fill="#455565" fill-opacity="0.32941177" fill-rule="evenodd" stroke="none"/>
    <path d="M0.0 8.75 L0.0 8.3 0.55 8.3 1.3 8.25 2.2 8.15 3.2 7.85 Q4.65 7.35 5.85 6.3 8.0 4.3 8.0 1.55 L8.0 0.0 8.5 0.0 8.5 1.55 Q8.5 4.5 6.2 6.65 4.55 8.1 2.45 8.55 L1.5 8.7 0.6 8.75 0.0 8.75" fill="#455565" fill-opacity="0.6627451" fill-rule="evenodd" stroke="none"/>
    <path d="M0.0 8.3 L0.0 7.85 0.55 7.85 1.1 7.8 2.0 7.7 2.9 7.5 3.95 7.05 5.5 6.0 Q7.5 4.15 7.5 1.55 L7.5 0.0 8.0 0.0 8.0 1.55 Q8.0 4.3 5.85 6.3 4.65 7.35 3.2 7.85 L2.2 8.15 1.3 8.25 0.55 8.3 0.0 8.3" fill="#455565" fill-opacity="0.7764706" fill-rule="evenodd" stroke="none"/>
    <path d="M0.0 7.85 L0.0 7.4 0.55 7.4 0.95 7.4 1.75 7.3 2.65 7.1 3.6 6.7 4.65 6.05 5.15 5.65 Q7.0 3.95 7.0 1.55 L7.0 0.0 7.5 0.0 7.5 1.55 Q7.5 4.15 5.5 6.0 L3.95 7.05 2.9 7.5 2.0 7.7 1.1 7.8 0.55 7.85 0.0 7.85" fill="#455565" fill-opacity="0.8862745" fill-rule="evenodd" stroke="none"/>
    <path d="M0.0 7.4 L0.0 6.75 0.05 6.75 Q2.3 6.65 3.95 5.0 5.7 3.25 5.7 0.75 L5.7 0.0 7.0 0.0 7.0 1.55 Q7.0 3.95 5.15 5.65 L4.65 6.05 3.6 6.7 2.65 7.1 1.75 7.3 0.95 7.4 0.55 7.4 0.0 7.4" fill="#455565" fill-rule="evenodd" stroke="none"/>
  </g>
</svg>
