<?xml version="1.0" encoding="UTF-8" standalone="no"?>
<svg xmlns:xlink="http://www.w3.org/1999/xlink" height="4.0px" width="1.0px" xmlns="http://www.w3.org/2000/svg">
  <g transform="matrix(1.0, 0.0, 0.0, 1.0, 0.0, 0.0)">
    <path d="M0.0 0.85 L0.0 0.35 1.0 0.35 1.0 0.85 0.0 0.85" fill="#455565" fill-opacity="0.8862745" fill-rule="evenodd" stroke="none"/>
    <path d="M0.0 0.35 L0.0 0.0 1.0 0.0 1.0 0.35 0.0 0.35" fill="#455565" fill-rule="evenodd" stroke="none"/>
    <path d="M1.0 0.85 L1.0 1.3 0.0 1.3 0.0 0.85 1.0 0.85" fill="#455565" fill-opacity="0.7764706" fill-rule="evenodd" stroke="none"/>
    <path d="M1.0 1.3 L1.0 1.75 0.0 1.75 0.0 1.3 1.0 1.3" fill="#455565" fill-opacity="0.6627451" fill-rule="evenodd" stroke="none"/>
    <path d="M1.0 1.75 L1.0 2.2 0.0 2.2 0.0 1.75 1.0 1.75" fill="#455565" fill-opacity="0.5529412" fill-rule="evenodd" stroke="none"/>
    <path d="M1.0 2.2 L1.0 2.65 0.0 2.65 0.0 2.2 1.0 2.2" fill="#455565" fill-opacity="0.4392157" fill-rule="evenodd" stroke="none"/>
    <path d="M1.0 3.1 L1.0 3.55 0.0 3.55 0.0 3.1 1.0 3.1" fill="#455565" fill-opacity="0.21568628" fill-rule="evenodd" stroke="none"/>
    <path d="M1.0 3.55 L1.0 4.0 0.0 4.0 0.0 3.55 1.0 3.55" fill="#455565" fill-opacity="0.105882354" fill-rule="evenodd" stroke="none"/>
    <path d="M1.0 2.65 L1.0 3.1 0.0 3.1 0.0 2.65 1.0 2.65" fill="#455565" fill-opacity="0.32941177" fill-rule="evenodd" stroke="none"/>
  </g>
</svg>
