<?xml version="1.0" encoding="UTF-8" standalone="no"?>
<svg xmlns:xlink="http://www.w3.org/1999/xlink" height="9.0px" width="10.0px" xmlns="http://www.w3.org/2000/svg">
  <g transform="matrix(1.0, 0.0, 0.0, 1.0, 0.0, 0.0)">
    <path d="M0.5 0.0 L0.5 0.15 Q0.7 3.5 3.4 5.95 6.05 8.35 9.8 8.55 L9.95 8.55 10.0 8.55 10.0 9.0 9.95 9.0 9.8 9.0 Q5.85 8.8 3.05 6.25 0.2 3.7 0.0 0.15 L0.0 0.0 0.5 0.0" fill="#455565" fill-opacity="0.105882354" fill-rule="evenodd" stroke="none"/>
    <path d="M1.0 0.0 L1.0 0.15 Q1.2 3.35 3.75 5.65 6.25 7.9 9.8 8.1 L9.95 8.1 10.0 8.1 10.0 8.55 9.95 8.55 9.8 8.55 Q6.05 8.35 3.4 5.95 0.7 3.5 0.5 0.15 L0.5 0.0 1.0 0.0 M2.35 4.25 L2.4 4.25 2.4 4.2 2.35 4.2 2.35 4.25" fill="#455565" fill-opacity="0.21568628" fill-rule="evenodd" stroke="none"/>
    <path d="M10.0 8.1 L9.95 8.1 9.8 8.1 Q6.25 7.9 3.75 5.65 1.2 3.35 1.0 0.15 L1.0 0.0 1.5 0.0 1.5 0.15 Q1.7 3.15 4.1 5.3 6.45 7.45 9.8 7.65 L9.95 7.65 10.0 7.65 10.0 8.1" fill="#455565" fill-opacity="0.32941177" fill-rule="evenodd" stroke="none"/>
    <path d="M3.0 0.0 L3.05 0.0 3.05 0.05 3.05 0.1 3.05 0.15 Q3.35 2.0 4.7 3.35 L5.4 4.0 5.5 4.05 Q7.3 5.65 9.8 5.85 L9.95 5.85 10.0 5.85 10.0 6.3 9.95 6.3 9.8 6.3 Q7.1 6.1 5.15 4.35 3.2 2.6 3.0 0.15 L3.0 0.0 M2.35 4.25 L2.35 4.2 2.4 4.2 2.4 4.25 2.35 4.25" fill="#455565" fill-opacity="0.7764706" fill-rule="evenodd" stroke="none"/>
    <path d="M10.0 6.3 L10.0 6.75 9.95 6.75 9.8 6.75 Q6.85 6.55 4.75 4.7 2.65 2.8 2.5 0.15 L2.5 0.0 3.0 0.0 3.0 0.15 Q3.2 2.6 5.15 4.35 7.1 6.1 9.8 6.3 L9.95 6.3 10.0 6.3" fill="#455565" fill-opacity="0.6627451" fill-rule="evenodd" stroke="none"/>
    <path d="M10.0 7.65 L9.95 7.65 9.8 7.65 Q6.45 7.45 4.1 5.3 1.7 3.15 1.5 0.15 L1.5 0.0 2.0 0.0 2.0 0.15 Q2.2 2.95 4.45 5.0 6.65 7.0 9.8 7.2 L9.95 7.2 10.0 7.2 10.0 7.65" fill="#455565" fill-opacity="0.4392157" fill-rule="evenodd" stroke="none"/>
    <path d="M10.0 6.75 L10.0 7.2 9.95 7.2 9.8 7.2 Q6.65 7.0 4.45 5.0 2.2 2.95 2.0 0.15 L2.0 0.0 2.5 0.0 2.5 0.15 Q2.65 2.8 4.75 4.7 6.85 6.55 9.8 6.75 L9.95 6.75 10.0 6.75" fill="#455565" fill-opacity="0.5529412" fill-rule="evenodd" stroke="none"/>
    <path d="M8.1 5.05 L8.95 5.1 10.0 5.1 10.0 5.4 9.95 5.4 9.8 5.4 8.1 5.05" fill="#455565" fill-rule="evenodd" stroke="none"/>
    <path d="M5.5 4.05 Q6.65 4.85 8.1 5.05 L9.8 5.4 9.95 5.4 10.0 5.4 10.0 5.85 9.95 5.85 9.8 5.85 Q7.3 5.65 5.5 4.05" fill="#455565" fill-opacity="0.8862745" fill-rule="evenodd" stroke="none"/>
  </g>
</svg>
