<?xml version="1.0" encoding="UTF-8" standalone="no"?>
<svg xmlns:xlink="http://www.w3.org/1999/xlink" height="1.0px" width="5.3px" xmlns="http://www.w3.org/2000/svg">
  <g transform="matrix(1.0, 0.0, 0.0, 1.0, 0.0, 0.0)">
    <path d="M1.8 0.0 L2.3 0.0 2.3 1.0 1.8 1.0 1.8 0.0" fill="#455565" fill-opacity="0.7764706" fill-rule="evenodd" stroke="none"/>
    <path d="M1.3 0.0 L1.8 0.0 1.8 1.0 1.3 1.0 1.3 0.0" fill="#455565" fill-opacity="0.8862745" fill-rule="evenodd" stroke="none"/>
    <path d="M1.3 1.0 L0.0 1.0 0.0 0.0 1.3 0.0 1.3 1.0" fill="#455565" fill-rule="evenodd" stroke="none"/>
    <path d="M2.3 0.0 L2.8 0.0 2.8 1.0 2.3 1.0 2.3 0.0" fill="#455565" fill-opacity="0.6627451" fill-rule="evenodd" stroke="none"/>
    <path d="M3.8 0.0 L4.3 0.0 4.3 1.0 3.8 1.0 3.8 0.0" fill="#455565" fill-opacity="0.32941177" fill-rule="evenodd" stroke="none"/>
    <path d="M4.3 0.0 L4.8 0.0 4.8 1.0 4.3 1.0 4.3 0.0" fill="#455565" fill-opacity="0.21568628" fill-rule="evenodd" stroke="none"/>
    <path d="M2.8 0.0 L3.3 0.0 3.3 1.0 2.8 1.0 2.8 0.0" fill="#455565" fill-opacity="0.5529412" fill-rule="evenodd" stroke="none"/>
    <path d="M3.3 0.0 L3.8 0.0 3.8 1.0 3.3 1.0 3.3 0.0" fill="#455565" fill-opacity="0.4392157" fill-rule="evenodd" stroke="none"/>
    <path d="M4.8 0.0 L5.3 0.0 5.3 1.0 4.8 1.0 4.8 0.0" fill="#455565" fill-opacity="0.105882354" fill-rule="evenodd" stroke="none"/>
  </g>
</svg>
