<?xml version="1.0" encoding="UTF-8" standalone="no"?>
<svg xmlns:xlink="http://www.w3.org/1999/xlink" height="1.0px" width="3.0px" xmlns="http://www.w3.org/2000/svg">
  <g transform="matrix(1.0, 0.0, 0.0, 1.0, 0.0, 0.0)">
    <path d="M2.5 0.0 L3.0 0.0 3.0 1.0 2.5 1.0 2.5 0.0" fill="#455565" fill-opacity="0.6627451" fill-rule="evenodd" stroke="none"/>
    <path d="M2.5 1.0 L2.0 1.0 2.0 0.0 2.5 0.0 2.5 1.0" fill="#455565" fill-opacity="0.5529412" fill-rule="evenodd" stroke="none"/>
    <path d="M2.0 1.0 L1.5 1.0 1.5 0.0 2.0 0.0 2.0 1.0" fill="#455565" fill-opacity="0.4392157" fill-rule="evenodd" stroke="none"/>
    <path d="M1.5 1.0 L1.0 1.0 1.0 0.0 1.5 0.0 1.5 1.0" fill="#455565" fill-opacity="0.32941177" fill-rule="evenodd" stroke="none"/>
    <path d="M1.0 1.0 L0.5 1.0 0.5 0.0 1.0 0.0 1.0 1.0" fill="#455565" fill-opacity="0.21568628" fill-rule="evenodd" stroke="none"/>
    <path d="M0.5 1.0 L0.0 1.0 0.0 0.0 0.5 0.0 0.5 1.0" fill="#455565" fill-opacity="0.105882354" fill-rule="evenodd" stroke="none"/>
  </g>
</svg>
