<?xml version="1.0" encoding="UTF-8" standalone="no"?>
<svg xmlns:xlink="http://www.w3.org/1999/xlink" height="9.0px" width="10.1px" xmlns="http://www.w3.org/2000/svg">
  <g transform="matrix(1.0, 0.0, 0.0, 1.0, 0.0, 0.0)">
    <path d="M9.6 9.0 L9.6 8.8 9.55 8.5 9.55 8.3 Q9.15 5.3 6.7 3.1 4.55 1.15 1.75 0.65 L0.0 0.0 Q4.1 0.15 7.05 2.8 9.65 5.1 10.05 8.3 L10.05 8.5 10.1 8.8 10.1 9.0 9.6 9.0" fill="#455565" fill-opacity="0.105882354" fill-rule="evenodd" stroke="none"/>
    <path d="M9.6 9.0 L9.1 9.0 9.1 8.8 9.05 8.5 9.05 8.3 Q8.65 5.5 6.35 3.4 4.7 1.95 2.75 1.35 L1.75 0.65 Q4.55 1.15 6.7 3.1 9.15 5.3 9.55 8.3 L9.55 8.5 9.6 8.8 9.6 9.0" fill="#455565" fill-opacity="0.21568628" fill-rule="evenodd" stroke="none"/>
    <path d="M2.75 1.35 Q4.7 1.95 6.35 3.4 8.65 5.5 9.05 8.3 L9.05 8.5 9.1 8.8 9.1 9.0 8.6 9.0 8.6 8.8 8.55 8.5 8.55 8.3 Q8.15 5.65 6.0 3.75 4.85 2.7 3.45 2.1 L3.05 1.65 2.75 1.35" fill="#455565" fill-opacity="0.32941177" fill-rule="evenodd" stroke="none"/>
    <path d="M8.1 9.0 L7.6 9.0 7.6 8.8 7.55 8.5 7.55 8.3 Q7.15 6.05 5.3 4.35 4.85 3.95 4.4 3.65 L4.0 2.85 5.65 4.05 Q7.65 5.85 8.05 8.3 L8.05 8.5 8.1 8.8 8.1 9.0" fill="#455565" fill-opacity="0.5529412" fill-rule="evenodd" stroke="none"/>
    <path d="M7.1 9.0 L6.6 9.0 6.6 8.8 6.55 8.5 6.5 8.3 Q6.15 6.55 4.75 5.2 L4.65 4.45 4.95 4.7 Q6.65 6.25 7.0 8.3 L7.05 8.5 7.1 8.8 7.1 9.0" fill="#455565" fill-opacity="0.7764706" fill-rule="evenodd" stroke="none"/>
    <path d="M6.6 9.0 L6.1 9.0 6.1 8.8 6.05 8.5 6.0 8.3 Q5.7 6.95 4.8 5.9 L4.75 5.2 Q6.15 6.55 6.5 8.3 L6.55 8.5 6.6 8.8 6.6 9.0" fill="#455565" fill-opacity="0.8862745" fill-rule="evenodd" stroke="none"/>
    <path d="M7.6 9.0 L7.1 9.0 7.1 8.8 7.05 8.5 7.0 8.3 Q6.65 6.25 4.95 4.7 L4.65 4.45 4.4 3.65 Q4.85 3.95 5.3 4.35 7.15 6.05 7.55 8.3 L7.55 8.5 7.6 8.8 7.6 9.0" fill="#455565" fill-opacity="0.6627451" fill-rule="evenodd" stroke="none"/>
    <path d="M6.1 9.0 L4.8 9.0 4.8 5.9 Q5.7 6.95 6.0 8.3 L6.05 8.5 6.1 8.8 6.1 9.0" fill="#455565" fill-rule="evenodd" stroke="none"/>
    <path d="M8.6 9.0 L8.1 9.0 8.1 8.8 8.05 8.5 8.05 8.3 Q7.65 5.85 5.65 4.05 L4.0 2.85 3.45 2.1 Q4.85 2.7 6.0 3.75 8.15 5.65 8.55 8.3 L8.55 8.5 8.6 8.8 8.6 9.0" fill="#455565" fill-opacity="0.4392157" fill-rule="evenodd" stroke="none"/>
  </g>
</svg>
