<?xml version="1.0" encoding="UTF-8" standalone="no"?>
<svg xmlns:xlink="http://www.w3.org/1999/xlink" height="9.0px" width="10.0px" xmlns="http://www.w3.org/2000/svg">
  <g transform="matrix(1.0, 0.0, 0.0, 1.0, 0.0, 0.0)">
    <path d="M3.6 3.6 L3.2 4.75 Q1.7 6.5 1.55 8.8 L1.5 9.0 1.0 9.0 1.05 8.8 Q1.25 5.8 3.6 3.6" fill="#455565" fill-opacity="0.32941177" fill-rule="evenodd" stroke="none"/>
    <path d="M3.2 4.75 Q3.05 5.2 3.05 5.75 2.15 7.15 2.05 8.8 L2.0 9.0 1.5 9.0 1.55 8.8 Q1.7 6.5 3.2 4.75" fill="#455565" fill-opacity="0.4392157" fill-rule="evenodd" stroke="none"/>
    <path d="M10.0 0.0 L8.95 0.2 8.65 0.2 8.25 0.25 7.9 0.3 8.25 0.2 8.65 0.15 8.95 0.1 9.0 0.1 9.55 0.05 10.0 0.0 M0.5 9.0 L0.0 9.0 0.05 8.8 Q0.25 5.3 3.1 2.8 L5.4 1.15 5.7 1.05 5.9 0.95 6.15 0.85 6.2 0.8 6.35 0.75 6.55 0.7 6.75 0.6 6.55 0.7 6.35 0.8 6.2 0.9 6.15 0.9 5.9 1.05 5.7 1.2 5.4 1.4 4.75 1.95 4.5 2.25 3.45 3.1 Q0.75 5.45 0.55 8.8 L0.5 9.0" fill="#455565" fill-opacity="0.105882354" fill-rule="evenodd" stroke="none"/>
    <path d="M4.5 2.25 Q3.9 2.85 3.6 3.6 1.25 5.8 1.05 8.8 L1.0 9.0 0.5 9.0 0.55 8.8 Q0.75 5.45 3.45 3.1 L4.5 2.25" fill="#455565" fill-opacity="0.21568628" fill-rule="evenodd" stroke="none"/>
    <path d="M3.05 5.75 L3.0 6.2 3.0 6.85 Q2.6 7.75 2.55 8.8 L2.5 9.0 2.0 9.0 2.05 8.8 Q2.15 7.15 3.05 5.75" fill="#455565" fill-opacity="0.5529412" fill-rule="evenodd" stroke="none"/>
    <path d="M3.0 6.85 L3.0 9.0 2.5 9.0 2.55 8.8 Q2.6 7.75 3.0 6.85" fill="#455565" fill-opacity="0.6627451" fill-rule="evenodd" stroke="none"/>
  </g>
</svg>
