<?xml version="1.0" encoding="UTF-8" standalone="no"?>
<svg xmlns:xlink="http://www.w3.org/1999/xlink" height="16.0px" width="17.0px" xmlns="http://www.w3.org/2000/svg">
  <g transform="matrix(1.0, 0.0, 0.0, 1.0, 0.0, 0.0)">
    <path d="M12.05 11.0 L10.05 11.0 10.05 10.0 9.05 10.0 9.05 9.0 8.05 9.0 8.05 10.0 7.05 10.0 7.05 11.0 5.05 11.0 5.05 10.0 6.05 10.0 6.05 9.0 7.05 9.0 7.05 7.0 6.05 7.0 6.05 6.0 5.05 6.0 5.05 5.0 7.05 5.0 7.05 6.0 8.05 6.0 8.05 7.0 9.05 7.0 9.05 6.0 10.05 6.0 10.05 5.0 12.05 5.0 12.05 6.0 11.05 6.0 11.05 7.0 10.05 7.0 10.05 9.0 11.05 9.0 11.05 10.0 12.05 10.0 12.05 11.0" fill="#333333" fill-rule="evenodd" stroke="none"/>
    <path d="M17.0 0.0 L17.0 16.0 0.0 16.0 0.0 0.0 17.0 0.0" fill="#010101" fill-opacity="0.0" fill-rule="evenodd" stroke="none"/>
  </g>
</svg>
