<?xml version="1.0" encoding="UTF-8" standalone="no"?>
<svg xmlns:xlink="http://www.w3.org/1999/xlink" height="16.0px" width="17.0px" xmlns="http://www.w3.org/2000/svg">
  <g transform="matrix(1.0, 0.0, 0.0, 1.0, 0.0, 0.0)">
    <path d="M15.05 1.85 Q14.15 1.0 12.8 1.0 L4.25 1.0 Q2.9 1.0 1.95 1.85 L1.95 1.9 Q1.0 2.75 1.05 4.0 L1.05 12.0 Q1.0 13.25 1.95 14.1 2.9 15.0 4.25 15.0 L12.8 15.0 Q14.1 15.0 15.05 14.1 16.0 13.2 16.05 12.0 L16.05 4.0 Q16.0 2.75 15.05 1.85 M15.75 1.15 Q17.0 2.35 17.0 4.0 L17.0 12.0 Q17.0 13.65 15.75 14.8 14.5 16.0 12.75 16.0 L4.25 16.0 Q2.5 16.0 1.25 14.8 0.0 13.65 0.0 12.0 L0.0 4.0 Q0.0 2.35 1.25 1.15 2.5 0.0 4.25 0.0 L12.75 0.0 Q14.5 0.0 15.75 1.15" fill="#506a78" fill-rule="evenodd" stroke="none"/>
    <path d="M15.05 1.85 Q16.0 2.75 16.05 4.0 L16.05 12.0 Q16.0 13.2 15.05 14.1 14.1 15.0 12.8 15.0 L4.25 15.0 Q2.9 15.0 1.95 14.1 1.0 13.25 1.05 12.0 L1.05 4.0 Q1.0 2.75 1.95 1.9 L1.95 1.85 Q2.9 1.0 4.25 1.0 L12.8 1.0 Q14.15 1.0 15.05 1.85" fill="url(#gradient0)" fill-rule="evenodd" stroke="none"/>
  </g>
  <defs>
    <linearGradient gradientTransform="matrix(0.0, -0.0085, 0.0105, 0.0, 8.5, 8.0)" gradientUnits="userSpaceOnUse" id="gradient0" spreadMethod="pad" x1="-819.2" x2="819.2">
      <stop offset="0.0" stop-color="#91a4c4"/>
      <stop offset="0.6666666666666666" stop-color="#d3dde7"/>
    </linearGradient>
  </defs>
</svg>
