<?xml version="1.0" encoding="UTF-8" standalone="no"?>
<svg xmlns:xlink="http://www.w3.org/1999/xlink" height="14.0px" width="17.0px" xmlns="http://www.w3.org/2000/svg">
  <g transform="matrix(1.0, 0.0, 0.0, 1.0, 0.0, 0.0)">
    <path d="M8.5 0.0 Q12.0 0.0 14.5 1.75 17.0 3.5 17.0 6.0 17.0 8.5 14.5 10.25 L14.0 10.6 14.0 14.0 11.6 11.6 8.5 12.0 Q5.0 12.0 2.5 10.25 0.0 8.5 0.0 6.0 0.0 3.5 2.5 1.75 5.0 0.0 8.5 0.0 M8.5 1.0 Q5.35 1.0 3.1 2.6 1.05 4.0 1.0 6.0 1.05 8.0 3.1 9.45 5.35 11.0 8.5 11.0 L11.35 10.65 11.85 10.65 12.3 10.9 13.0 11.6 13.0 10.6 Q13.0 10.3 13.15 10.1 13.25 9.85 13.5 9.75 L13.95 9.45 Q15.95 8.0 16.0 6.0 15.95 4.0 13.95 2.6 11.65 1.0 8.5 1.0" fill="#5289b1" fill-rule="evenodd" stroke="none"/>
    <path d="M8.5 1.0 Q11.65 1.0 13.95 2.6 15.95 4.0 16.0 6.0 15.95 8.0 13.95 9.45 L13.5 9.75 Q13.25 9.85 13.15 10.1 13.0 10.3 13.0 10.6 L13.0 11.6 12.3 10.9 11.85 10.65 11.35 10.65 8.5 11.0 Q5.35 11.0 3.1 9.45 1.05 8.0 1.0 6.0 1.05 4.0 3.1 2.6 5.35 1.0 8.5 1.0" fill="url(#gradient0)" fill-rule="evenodd" stroke="none"/>
  </g>
  <defs>
    <radialGradient cx="0" cy="0" gradientTransform="matrix(0.0183, 0.0, 0.0, 0.0151, 5.0, 3.0)" gradientUnits="userSpaceOnUse" id="gradient0" r="819.2" spreadMethod="pad">
      <stop offset="0.2" stop-color="#ffffff"/>
      <stop offset="0.5647058823529412" stop-color="#c2f2fe"/>
      <stop offset="1.0" stop-color="#c4e1fd"/>
    </radialGradient>
  </defs>
</svg>
