<?xml version="1.0" encoding="UTF-8" standalone="no"?>
<svg xmlns:xlink="http://www.w3.org/1999/xlink" height="6.0px" width="7.0px" xmlns="http://www.w3.org/2000/svg">
  <g transform="matrix(1.0, 0.0, 0.0, 1.0, 0.0, 0.0)">
    <path d="M6.0 2.0 L5.0 2.0 5.0 4.0 6.0 4.0 6.0 5.0 7.0 5.0 7.0 6.0 5.0 6.0 5.0 5.0 4.0 5.0 4.0 4.0 3.0 4.0 3.0 5.0 2.0 5.0 2.0 6.0 0.0 6.0 0.0 5.0 1.0 5.0 1.0 4.0 2.0 4.0 2.0 2.0 1.0 2.0 1.0 1.0 0.0 1.0 0.0 0.0 2.0 0.0 2.0 1.0 3.0 1.0 3.0 2.0 4.0 2.0 4.0 1.0 5.0 1.0 5.0 0.0 7.0 0.0 7.0 1.0 6.0 1.0 6.0 2.0" fill="#333333" fill-rule="evenodd" stroke="none"/>
    <path d="M7.0 0.0 L7.0 6.0 0.0 6.0 0.0 0.0 7.0 0.0" fill="#010101" fill-opacity="0.0" fill-rule="evenodd" stroke="none"/>
  </g>
</svg>
