<?xml version="1.0" encoding="UTF-8" standalone="no"?>
<svg xmlns:xlink="http://www.w3.org/1999/xlink" height="11.1px" width="14.6px" xmlns="http://www.w3.org/2000/svg">
  <g transform="matrix(1.0, 0.0, 0.0, 1.0, 0.0, 0.0)">
    <path d="M12.5 3.9 L13.3 4.15 13.9 4.7 14.1 5.5 13.85 6.45 13.05 7.1 Q13.75 7.2 14.2 7.7 14.6 8.15 14.6 8.85 L14.4 9.8 13.8 10.5 12.85 10.95 11.55 11.1 8.4 11.1 8.4 3.85 11.2 3.85 12.5 3.9 M10.25 5.15 L10.25 6.7 10.55 6.7 11.3 6.7 11.8 6.6 12.1 6.3 12.2 5.9 12.1 5.5 11.8 5.25 11.3 5.15 10.4 5.15 10.25 5.15 M10.25 7.95 L10.25 9.75 10.4 9.75 11.5 9.75 12.15 9.65 12.55 9.3 12.65 8.85 12.5 8.3 Q12.4 8.1 12.05 8.05 L11.45 7.95 10.65 7.95 10.25 7.95 M3.75 1.85 L2.85 4.5 4.65 4.5 3.75 1.85 M4.85 0.0 L7.55 7.3 5.6 7.3 5.1 5.85 2.4 5.85 1.9 7.3 0.0 7.3 2.7 0.0 4.85 0.0" fill="#233143" fill-rule="evenodd" stroke="none"/>
  </g>
</svg>
