<?xml version="1.0" encoding="UTF-8" standalone="no"?>
<svg xmlns:xlink="http://www.w3.org/1999/xlink" height="11.0px" width="9.0px" xmlns="http://www.w3.org/2000/svg">
  <g transform="matrix(1.0, 0.0, 0.0, 1.0, 0.0, 0.0)">
    <path d="M1.0 1.0 L1.0 10.0 8.0 10.0 8.0 5.0 4.0 5.0 4.0 1.0 1.0 1.0 M5.0 2.0 L5.0 4.0 7.0 4.0 7.0 3.0 6.0 3.0 6.0 2.0 5.0 2.0 M7.0 2.0 L7.0 3.0 8.0 3.0 8.0 4.0 9.0 4.0 9.0 11.0 0.0 11.0 0.0 0.0 5.0 0.0 5.0 1.0 6.0 1.0 6.0 2.0 7.0 2.0" fill="#cccccc" fill-rule="evenodd" stroke="none"/>
    <path d="M1.0 1.0 L4.0 1.0 4.0 5.0 8.0 5.0 8.0 10.0 1.0 10.0 1.0 1.0" fill="url(#gradient0)" fill-rule="evenodd" stroke="none"/>
    <path d="M5.0 2.0 L6.0 2.0 6.0 3.0 7.0 3.0 7.0 4.0 5.0 4.0 5.0 2.0" fill="#ffffff" fill-rule="evenodd" stroke="none"/>
  </g>
  <defs>
    <linearGradient gradientTransform="matrix(0.0, 0.0055, -0.0055, 0.0, 4.5, 5.5)" gradientUnits="userSpaceOnUse" id="gradient0" spreadMethod="pad" x1="-819.2" x2="819.2">
      <stop offset="0.37254901960784315" stop-color="#ffffff"/>
      <stop offset="1.0" stop-color="#e1e7ec"/>
    </linearGradient>
  </defs>
</svg>
