<?xml version="1.0" encoding="UTF-8" standalone="no"?>
<svg xmlns:xlink="http://www.w3.org/1999/xlink" height="33.0px" width="40.0px" xmlns="http://www.w3.org/2000/svg">
  <g transform="matrix(1.0, 0.0, 0.0, 1.0, 0.0, 0.0)">
    <path d="M7.65 1.0 L5.95 1.0 Q3.9 1.0 2.5 2.5 1.05 3.9 1.05 6.05 L1.05 6.25 0.0 6.25 0.0 6.05 Q-0.05 3.45 1.8 1.75 3.5 0.05 5.95 0.0 L7.65 0.0 7.65 1.0" fill="url(#gradient0)" fill-rule="evenodd" stroke="none"/>
    <path d="M7.65 1.0 L7.65 0.0 32.9 0.0 34.4 0.0 34.4 1.0 32.9 1.0 7.65 1.0" fill="url(#gradient1)" fill-rule="evenodd" stroke="none"/>
    <path d="M0.0 6.25 L1.05 6.25 1.05 26.4 1.05 27.5 0.0 27.5 0.0 6.25" fill="url(#gradient2)" fill-rule="evenodd" stroke="none"/>
    <path d="M7.65 33.0 L5.95 33.0 Q3.5 32.9 1.8 31.25 0.3 29.8 0.05 27.85 L0.0 27.85 0.0 27.5 1.05 27.5 Q1.2 29.25 2.5 30.55 3.9 31.95 5.95 32.0 L7.65 32.0 7.65 33.0" fill="url(#gradient3)" fill-rule="evenodd" stroke="none"/>
    <path d="M7.65 32.0 L32.9 32.0 34.4 32.0 34.4 33.0 32.9 33.0 7.65 33.0 7.65 32.0" fill="url(#gradient4)" fill-rule="evenodd" stroke="none"/>
    <path d="M40.0 6.25 L39.0 6.25 39.0 6.05 Q38.95 3.9 37.5 2.5 36.3 1.25 34.65 1.05 L34.4 1.0 34.4 0.0 34.65 0.05 Q36.7 0.2 38.25 1.75 40.0 3.45 40.0 6.05 L40.0 6.25" fill="url(#gradient5)" fill-rule="evenodd" stroke="none"/>
    <path d="M39.0 6.25 L40.0 6.25 40.0 27.5 38.95 27.5 39.0 26.4 39.0 6.25" fill="url(#gradient6)" fill-rule="evenodd" stroke="none"/>
    <path d="M34.4 32.0 L34.65 31.95 Q36.3 31.75 37.5 30.55 38.8 29.25 38.95 27.5 L40.0 27.5 40.0 27.85 39.95 27.85 Q39.7 29.8 38.25 31.25 36.7 32.75 34.65 32.95 L34.4 33.0 34.4 32.0" fill="url(#gradient7)" fill-rule="evenodd" stroke="none"/>
  </g>
  <defs>
    <linearGradient gradientTransform="matrix(-0.0084, -0.0103, 0.0091, -0.0073, 10.95, 9.5)" gradientUnits="userSpaceOnUse" id="gradient0" spreadMethod="pad" x1="-819.2" x2="819.2">
      <stop offset="0.2549019607843137" stop-color="#ffffff" stop-opacity="0.8509804"/>
      <stop offset="1.0" stop-color="#003048" stop-opacity="0.4"/>
    </linearGradient>
    <linearGradient gradientTransform="matrix(-0.0258, -0.0103, 0.0279, -0.0073, 17.75, 9.5)" gradientUnits="userSpaceOnUse" id="gradient1" spreadMethod="pad" x1="-819.2" x2="819.2">
      <stop offset="0.2549019607843137" stop-color="#ffffff" stop-opacity="0.8509804"/>
      <stop offset="1.0" stop-color="#003048" stop-opacity="0.4"/>
    </linearGradient>
    <linearGradient gradientTransform="matrix(-0.0084, -0.0303, 0.0091, -0.0213, 10.95, 15.75)" gradientUnits="userSpaceOnUse" id="gradient2" spreadMethod="pad" x1="-819.2" x2="819.2">
      <stop offset="0.2549019607843137" stop-color="#ffffff" stop-opacity="0.8509804"/>
      <stop offset="1.0" stop-color="#003048" stop-opacity="0.4"/>
    </linearGradient>
    <linearGradient gradientTransform="matrix(-0.0084, -0.0103, 0.0091, -0.0073, 10.95, 23.5)" gradientUnits="userSpaceOnUse" id="gradient3" spreadMethod="pad" x1="-819.2" x2="819.2">
      <stop offset="0.2549019607843137" stop-color="#ffffff" stop-opacity="0.8509804"/>
      <stop offset="1.0" stop-color="#003048" stop-opacity="0.4"/>
    </linearGradient>
    <linearGradient gradientTransform="matrix(-0.0258, -0.0103, 0.0279, -0.0073, 17.75, 23.5)" gradientUnits="userSpaceOnUse" id="gradient4" spreadMethod="pad" x1="-819.2" x2="819.2">
      <stop offset="0.2549019607843137" stop-color="#ffffff" stop-opacity="0.8509804"/>
      <stop offset="1.0" stop-color="#003048" stop-opacity="0.4"/>
    </linearGradient>
    <linearGradient gradientTransform="matrix(-0.0084, -0.0103, 0.0091, -0.0073, 28.95, 9.5)" gradientUnits="userSpaceOnUse" id="gradient5" spreadMethod="pad" x1="-819.2" x2="819.2">
      <stop offset="0.2549019607843137" stop-color="#ffffff" stop-opacity="0.8509804"/>
      <stop offset="1.0" stop-color="#003048" stop-opacity="0.4"/>
    </linearGradient>
    <linearGradient gradientTransform="matrix(-0.0084, -0.0303, 0.0091, -0.0213, 28.95, 15.75)" gradientUnits="userSpaceOnUse" id="gradient6" spreadMethod="pad" x1="-819.2" x2="819.2">
      <stop offset="0.2549019607843137" stop-color="#ffffff" stop-opacity="0.8509804"/>
      <stop offset="1.0" stop-color="#003048" stop-opacity="0.4"/>
    </linearGradient>
    <linearGradient gradientTransform="matrix(-0.0084, -0.0103, 0.0091, -0.0073, 28.95, 23.5)" gradientUnits="userSpaceOnUse" id="gradient7" spreadMethod="pad" x1="-819.2" x2="819.2">
      <stop offset="0.2549019607843137" stop-color="#ffffff" stop-opacity="0.8509804"/>
      <stop offset="1.0" stop-color="#003048" stop-opacity="0.4"/>
    </linearGradient>
  </defs>
</svg>
