<?xml version="1.0" encoding="UTF-8" standalone="no"?>
<svg xmlns:xlink="http://www.w3.org/1999/xlink" height="6.65px" width="7.05px" xmlns="http://www.w3.org/2000/svg">
  <g transform="matrix(1.0, 0.0, 0.0, 1.0, 3.85, 0.45)">
    <path d="M-3.25 4.8 L-1.45 3.7 -0.55 3.8 -0.45 3.8 0.4 3.95 3.15 4.85 -0.5 6.2 -0.55 6.2 -1.05 5.55 -3.25 4.8 M-0.55 3.8 L-1.05 5.55 -0.55 3.8" fill="#ffd0ae" fill-rule="evenodd" stroke="none"/>
    <path d="M-3.25 4.8 L-3.85 1.4 Q-2.95 0.2 -1.45 -0.15 -0.4 -0.95 1.2 0.25 L3.2 3.9 3.05 4.45 3.2 4.85 3.15 4.85 0.4 3.95 -0.45 3.8 -0.55 3.8 -1.45 3.7 -3.25 4.8" fill="#ffdfc8" fill-rule="evenodd" stroke="none"/>
    <path d="M3.15 4.85 L3.2 4.85 3.05 4.45 3.2 3.9 1.2 0.25 Q-0.4 -0.95 -1.45 -0.15 -2.95 0.2 -3.85 1.4 L-3.25 4.8 -1.05 5.55 -0.55 3.8 -0.45 3.8 M3.15 4.85 L-0.5 6.2 -0.55 6.2 -1.05 5.55" fill="none" stroke="#fb8264" stroke-linecap="round" stroke-linejoin="round" stroke-width="0.05"/>
  </g>
</svg>
