<?xml version="1.0" encoding="UTF-8" standalone="no"?>
<svg xmlns:xlink="http://www.w3.org/1999/xlink" height="6.15px" width="12.75px" xmlns="http://www.w3.org/2000/svg">
  <g transform="matrix(1.0, 0.0, 0.0, 1.0, 2.8, 2.9)">
    <path d="M5.85 -2.35 L7.15 -2.1 Q7.7 -1.2 7.15 -0.1 7.05 -1.5 5.85 -2.35" fill="#f9be79" fill-rule="evenodd" stroke="none"/>
    <path d="M5.85 -2.35 Q7.05 -1.5 7.15 -0.1 7.7 -1.2 7.15 -2.1 L9.85 -1.45 Q10.4 0.95 8.35 3.25 5.0 2.35 1.6 2.45 L-2.8 -0.7 Q-0.8 -2.65 1.5 -2.85 L5.85 -2.35" fill="#fcdead" fill-rule="evenodd" stroke="none"/>
    <path d="M7.15 -2.1 L5.85 -2.35 Q7.05 -1.5 7.15 -0.1 M7.15 -2.1 L9.85 -1.45 Q10.4 0.95 8.35 3.25 5.0 2.35 1.6 2.45 M-2.8 -0.7 Q-0.8 -2.65 1.5 -2.85 L5.85 -2.35" fill="none" stroke="#975506" stroke-linecap="round" stroke-linejoin="round" stroke-width="0.05"/>
  </g>
</svg>
