<?xml version="1.0" encoding="UTF-8" standalone="no"?>
<svg xmlns:xlink="http://www.w3.org/1999/xlink" height="15.95px" width="13.3px" xmlns="http://www.w3.org/2000/svg">
  <g transform="matrix(1.0, 0.0, 0.0, 1.0, 8.55, 10.05)">
    <path d="M-7.8 -2.5 L-3.45 -0.95 Q-2.3 -0.75 -2.15 0.6 L-2.15 1.45 -3.85 1.75 -7.05 0.65 -8.15 -0.75 -8.15 -1.55 -7.8 -2.5" fill="#ffffff" fill-rule="evenodd" stroke="none"/>
    <path d="M-7.05 -1.3 L-7.05 -1.05 -7.15 -0.6 -7.45 -0.4 -7.7 -0.6 -7.8 -1.05 -7.7 -1.5 -7.6 -1.6 -7.65 -1.5 -7.55 -1.2 Q-7.5 -1.1 -7.35 -1.1 L-7.1 -1.2 -7.1 -1.25 -7.05 -1.3 M-3.25 0.0 L-3.2 0.3 -3.35 0.8 -3.7 1.0 -4.05 0.8 -4.2 0.25 -4.05 -0.25 -3.95 -0.35 -4.0 -0.2 -3.85 0.1 -3.6 0.2 -3.3 0.1 -3.25 0.0" fill="#000000" fill-rule="evenodd" stroke="none"/>
    <path d="M-7.05 -1.3 L-7.1 -1.25 -7.1 -1.2 -7.35 -1.1 Q-7.5 -1.1 -7.55 -1.2 L-7.65 -1.5 -7.6 -1.6 -7.55 -1.7 -7.35 -1.8 -7.1 -1.7 -7.05 -1.5 -7.05 -1.3 M-3.95 -0.35 L-3.85 -0.45 -3.6 -0.55 -3.3 -0.45 -3.2 -0.2 -3.25 0.0 -3.3 0.1 -3.6 0.2 -3.85 0.1 -4.0 -0.2 -3.95 -0.35" fill="#ffffff" fill-rule="evenodd" stroke="none"/>
    <path d="M-8.0 -1.05 L-7.85 -1.8 -7.45 -2.1 -7.0 -1.8 -6.85 -1.05 Q-6.85 -0.6 -7.0 -0.25 L-7.45 0.05 -7.85 -0.25 -8.0 -1.05 M-7.6 -1.6 L-7.7 -1.5 -7.8 -1.05 -7.7 -0.6 -7.45 -0.4 -7.15 -0.6 -7.05 -1.05 -7.05 -1.3 -7.05 -1.5 -7.1 -1.7 -7.35 -1.8 -7.55 -1.7 -7.6 -1.6 M-3.95 -0.35 L-4.05 -0.25 -4.2 0.25 -4.05 0.8 -3.7 1.0 -3.35 0.8 -3.2 0.3 -3.25 0.0 -3.2 -0.2 -3.3 -0.45 -3.6 -0.55 -3.85 -0.45 -3.95 -0.35 M-3.15 -0.6 L-2.95 0.3 -3.15 1.15 -3.7 1.45 Q-4.05 1.45 -4.25 1.15 L-4.45 0.3 -4.25 -0.6 Q-4.05 -0.95 -3.7 -0.9 L-3.15 -0.6" fill="#9975a8" fill-rule="evenodd" stroke="none"/>
    <path d="M-4.15 5.9 L-5.6 5.4 -6.6 4.6 Q-8.55 2.55 -8.55 -0.7 -8.55 -3.95 -8.35 -4.7 -7.9 -6.6 -6.45 -8.0 -4.5 -10.05 -1.7 -10.05 1.05 -10.05 2.95 -8.0 L3.5 -7.35 Q3.75 -3.6 0.4 -1.2 1.05 1.95 0.05 3.7 -1.05 5.6 -4.15 5.9 M1.7 -0.45 Q1.95 -0.85 2.45 -0.95 3.0 -1.05 3.2 -0.5 L3.35 0.45 3.3 0.8 Q2.9 -0.4 2.15 0.45 1.55 0.5 1.5 0.2 L1.5 0.0 1.5 -0.05 1.55 -0.15 1.65 -0.4 1.7 -0.45 M-6.75 -0.9 L-6.9 -2.05 Q-8.35 -3.2 -8.25 -1.0 -7.8 0.05 -6.85 0.4 L-6.75 -0.9 M-2.1 1.35 Q-1.9 -1.45 -4.6 -1.15 L-4.8 1.15 -2.1 1.35 M-5.2 3.8 Q-6.15 4.05 -6.75 3.4 -6.15 4.05 -5.2 3.8 M-6.75 1.7 L-6.75 1.9 Q-6.7 2.3 -6.15 2.15 L-6.55 1.9 -6.75 1.7" fill="#ffdfc8" fill-rule="evenodd" stroke="none"/>
    <path d="M-4.15 5.9 Q-1.05 5.6 0.05 3.7 1.05 1.95 0.4 -1.2 3.75 -3.6 3.5 -7.35 4.35 -6.2 4.65 -4.75 L4.65 -4.5 4.75 -3.15 Q4.65 -0.85 3.25 1.0 L3.1 1.55 3.1 1.6 2.15 2.6 1.4 3.7 Q0.3 4.8 -1.7 5.55 L-4.15 5.9 M2.15 0.45 Q2.9 -0.4 3.3 0.8 L3.35 0.45 3.2 -0.5 Q3.0 -1.05 2.45 -0.95 1.95 -0.85 1.7 -0.45 L1.65 -0.4 1.55 -0.15 1.5 -0.05 1.5 0.0 1.5 0.2 Q1.55 0.5 2.15 0.45 L2.05 0.75 2.0 1.5 Q2.5 0.85 2.5 1.6 2.5 0.85 2.0 1.5 L2.05 0.75 2.15 0.45 M3.3 0.8 L3.25 1.0 3.3 0.8 M-6.15 2.15 Q-6.7 2.3 -6.75 1.9 L-6.75 1.7 -6.55 1.9 -6.15 2.15" fill="#ffd0ae" fill-rule="evenodd" stroke="none"/>
    <path d="M3.5 -7.35 L2.95 -8.0 Q1.05 -10.05 -1.7 -10.05 -4.5 -10.05 -6.45 -8.0 -7.9 -6.6 -8.35 -4.7 -8.55 -3.95 -8.55 -0.7 -8.55 2.55 -6.6 4.6 L-5.6 5.4 -4.15 5.9 -1.7 5.55 Q0.3 4.8 1.4 3.7 L2.15 2.6 3.1 1.6 3.1 1.55 3.25 1.0 3.3 0.8 3.35 0.45 3.2 -0.5 Q3.0 -1.05 2.45 -0.95 1.95 -0.85 1.7 -0.45 M3.5 -7.35 Q4.35 -6.2 4.65 -4.75 L4.65 -4.5 4.75 -3.15 Q4.65 -0.85 3.25 1.0 M2.15 0.45 Q2.9 -0.4 3.3 0.8 M2.15 0.45 L2.05 0.75 2.0 1.5 Q2.5 0.85 2.5 1.6 M-6.75 -0.9 L-6.85 0.4 Q-7.8 0.05 -8.25 -1.0 -8.35 -3.2 -6.9 -2.05 L-6.75 -0.9 M-2.1 1.35 Q-1.9 -1.45 -4.6 -1.15 L-4.8 1.15 -2.1 1.35 M-6.75 3.4 Q-6.15 4.05 -5.2 3.8 M-6.15 2.15 Q-6.7 2.3 -6.75 1.9 L-6.75 1.7" fill="none" stroke="#fb8264" stroke-linecap="round" stroke-linejoin="round" stroke-width="0.05"/>
  </g>
</svg>
