<?xml version="1.0" encoding="UTF-8" standalone="no"?>
<svg xmlns:xlink="http://www.w3.org/1999/xlink" height="22.5px" width="23.6px" xmlns="http://www.w3.org/2000/svg">
  <g transform="matrix(1.0, 0.0, 0.0, 1.0, 6.6, 13.1)">
    <path d="M-3.5 -0.35 Q-3.15 -1.45 -1.7 -0.15 M3.35 1.95 Q2.35 -0.4 0.3 0.4" fill="none" stroke="#912213" stroke-linecap="round" stroke-linejoin="round" stroke-width="0.05"/>
    <path d="M10.2 -1.85 Q10.3 -0.3 9.95 1.05 9.45 3.55 8.45 4.25 L7.25 5.05 Q8.5 4.2 8.4 2.75 8.2 0.65 6.7 2.2 6.95 3.9 7.35 5.4 7.9 7.4 8.75 9.1 7.3 7.65 6.4 5.45 5.9 8.05 6.15 9.4 4.4 6.7 5.0 1.75 3.8 -0.95 0.85 -2.15 0.0 -1.05 0.55 0.55 -0.4 -0.3 -0.8 -2.75 -1.75 -1.05 -1.6 0.85 -2.8 -0.4 -2.25 -3.15 -6.2 -0.9 -6.6 1.4 L-6.55 0.3 Q-4.2 -4.95 0.6 -7.15 L2.3 -5.6 3.15 -6.7 Q5.4 -7.1 7.05 -6.15 6.4 -4.5 4.9 -2.7 6.4 -3.05 8.2 -5.25 9.4 -4.05 10.2 -1.85 M-5.15 7.45 Q-4.8 3.9 -3.7 0.05 -3.8 2.7 -3.4 4.6 L-5.15 7.45" fill="#ce4f0b" fill-rule="evenodd" stroke="none"/>
    <path d="M5.9 -10.35 Q7.3 -11.75 8.35 -10.35 12.05 -13.2 15.45 -6.15 16.15 -3.85 17.0 -1.95 L15.8 -2.95 Q16.0 0.35 16.95 2.55 15.5 0.9 14.65 -2.0 14.35 0.9 15.0 3.85 13.7 2.25 13.7 -0.95 13.4 2.35 12.65 4.6 12.75 2.3 12.25 0.8 11.45 1.2 10.9 3.1 10.8 1.9 9.95 1.05 10.3 -0.3 10.2 -1.85 L9.9 -3.8 9.8 -4.3 10.55 -5.15 Q9.95 -9.25 6.0 -9.2 L5.9 -10.35" fill="#bd3c0b" fill-rule="evenodd" stroke="none"/>
    <path d="M15.45 -6.15 Q12.05 -13.2 8.35 -10.35 7.3 -11.75 5.9 -10.35 L6.25 -11.8 Q11.75 -15.1 14.35 -10.05 L15.45 -6.15 M9.8 -4.3 L9.9 -3.8 10.2 -1.85 Q9.4 -4.05 8.2 -5.25 6.4 -3.05 4.9 -2.7 6.4 -4.5 7.05 -6.15 5.4 -7.1 3.15 -6.7 L2.3 -5.6 0.6 -7.15 Q-4.2 -4.95 -6.55 0.3 -6.05 -5.95 -0.7 -7.55 L-0.15 -7.45 Q2.6 -8.9 5.3 -8.25 L5.9 -8.1 7.25 -7.55 Q9.15 -6.25 9.8 -4.3" fill="#db630b" fill-rule="evenodd" stroke="none"/>
    <path d="M6.0 -9.2 Q9.95 -9.25 10.55 -5.15 L9.8 -4.3 Q9.15 -6.25 7.25 -7.55 L5.9 -8.1 5.3 -8.25 5.9 -9.2 6.0 -9.2" fill="#4f8091" fill-rule="evenodd" stroke="none"/>
    <path d="M5.9 -10.35 L6.0 -9.2 M9.8 -4.3 L9.9 -3.8 10.2 -1.85 Q10.3 -0.3 9.95 1.05 10.8 1.9 10.9 3.1 11.45 1.2 12.25 0.8 12.75 2.3 12.65 4.6 13.4 2.35 13.7 -0.95 13.7 2.25 15.0 3.85 14.35 0.9 14.65 -2.0 15.5 0.9 16.95 2.55 16.0 0.35 15.8 -2.95 L17.0 -1.95 Q16.15 -3.85 15.45 -6.15 L14.35 -10.05 Q11.75 -15.1 6.25 -11.8 L5.9 -10.35 M5.3 -8.25 L5.9 -8.1 7.25 -7.55 Q9.15 -6.25 9.8 -4.3 M-6.55 0.3 L-6.6 1.4 Q-6.2 -0.9 -2.25 -3.15 -2.8 -0.4 -1.6 0.85 -1.75 -1.05 -0.8 -2.75 -0.4 -0.3 0.55 0.55 0.0 -1.05 0.85 -2.15 3.8 -0.95 5.0 1.75 4.4 6.7 6.15 9.4 5.9 8.05 6.4 5.45 7.3 7.65 8.75 9.1 7.9 7.4 7.35 5.4 6.95 3.9 6.7 2.2 8.2 0.65 8.4 2.75 8.5 4.2 7.25 5.05 L8.45 4.25 Q9.45 3.55 9.95 1.05 M5.3 -8.25 Q2.6 -8.9 -0.15 -7.45 L-0.7 -7.55 Q-6.05 -5.95 -6.55 0.3 M-5.15 7.45 L-3.4 4.6 Q-3.8 2.7 -3.7 0.05 -4.8 3.9 -5.15 7.45" fill="none" stroke="#912213" stroke-linecap="round" stroke-linejoin="round" stroke-width="0.05"/>
    <path d="M6.0 -9.2 Q9.95 -9.25 10.55 -5.15 L9.8 -4.3 M6.0 -9.2 L5.9 -9.2 5.3 -8.25" fill="none" stroke="#2e4b52" stroke-linecap="round" stroke-linejoin="round" stroke-width="0.05"/>
  </g>
</svg>
