<?xml version="1.0" encoding="UTF-8" standalone="no"?>
<svg xmlns:xlink="http://www.w3.org/1999/xlink" height="8.55px" width="6.15px" xmlns="http://www.w3.org/2000/svg">
  <g transform="matrix(1.0, 0.0, 0.0, 1.0, 6.05, 6.8)">
    <path d="M-2.5 -5.85 Q-0.3 -5.7 -0.5 -6.75 1.05 -0.95 -1.4 0.8 -0.65 -2.8 -3.7 -3.9 L-3.55 -4.15 -2.5 -5.85" fill="#666666" fill-rule="evenodd" stroke="none"/>
    <path d="M-2.5 -5.85 L-3.55 -4.15 -3.7 -3.9 Q-4.45 -4.2 -5.8 -2.65 -5.4 -4.3 -4.05 -6.8 -4.35 -6.0 -2.5 -5.85" fill="#9d9d9d" fill-rule="evenodd" stroke="none"/>
    <path d="M-3.7 -3.9 Q-0.65 -2.8 -1.4 0.8 -2.55 1.65 -4.6 1.75 -5.55 -0.55 -3.7 -3.9" fill="#797979" fill-rule="evenodd" stroke="none"/>
    <path d="M-4.6 1.75 Q-6.55 0.6 -5.85 -2.35 L-5.8 -2.65 Q-4.45 -4.2 -3.7 -3.9 -5.55 -0.55 -4.6 1.75" fill="#b6b6b6" fill-rule="evenodd" stroke="none"/>
    <path d="M-1.4 0.8 Q1.05 -0.95 -0.5 -6.75 -0.3 -5.7 -2.5 -5.85 L-3.55 -4.15 -3.7 -3.9 Q-5.55 -0.55 -4.6 1.75 -6.55 0.6 -5.85 -2.35 L-5.8 -2.65 Q-5.4 -4.3 -4.05 -6.8 -4.35 -6.0 -2.5 -5.85 M-1.4 0.8 Q-2.55 1.65 -4.6 1.75" fill="none" stroke="#484848" stroke-linecap="round" stroke-linejoin="round" stroke-width="0.05"/>
  </g>
</svg>
