<?xml version="1.0" encoding="UTF-8" standalone="no"?>
<svg xmlns:xlink="http://www.w3.org/1999/xlink" height="30.85px" width="16.65px" xmlns="http://www.w3.org/2000/svg">
  <g transform="matrix(1.0, 0.0, 0.0, 1.0, 9.95, 13.1)">
    <path d="M-3.8 -11.8 L-3.85 -12.95 0.1 -13.1 0.25 -12.55 0.6 -9.65 -0.3 -9.25 -0.95 -10.95 -1.85 -11.15 -3.8 -11.8 M2.45 -7.9 L6.7 -5.8 6.6 -4.6 6.2 -1.4 5.5 1.2 5.2 1.25 Q4.35 0.95 4.15 0.0 L4.1 -0.2 3.1 -3.4 Q2.55 -5.75 2.45 -7.9 M2.5 8.8 L2.75 9.15 2.5 8.85 2.5 8.8" fill="#ffd0ae" fill-rule="evenodd" stroke="none"/>
    <path d="M-3.8 -11.8 L-1.85 -11.15 -0.95 -10.95 -0.3 -9.25 Q-1.55 -8.4 -2.9 -8.45 L-3.4 -8.65 -3.55 -8.95 -3.9 -9.8 -3.9 -9.85 -3.8 -11.8 M-5.05 16.4 L-5.1 16.4 -5.05 16.35 -5.05 16.4 M-8.85 -3.85 L-8.8 -3.95 -8.75 -3.95 -8.35 -5.4 -8.5 -8.4 -5.1 -9.0 -5.1 -8.95 -5.05 -8.95 -4.95 -9.0 -4.7 -9.0 -7.2 -5.75 -7.25 -5.75 -8.75 -3.95 -8.85 -3.85 M-3.95 -8.8 L-4.0 -8.8 -4.0 -8.9 -3.95 -8.8" fill="#ffdfc8" fill-rule="evenodd" stroke="none"/>
    <path d="M-5.1 -9.0 L-4.95 -9.0 -5.05 -8.95 -5.1 -8.95 -5.1 -9.0 -5.05 -8.95 -5.1 -9.0" fill="#f5dfc5" fill-rule="evenodd" stroke="none"/>
    <path d="M-3.95 -8.65 L-3.95 -8.8 -3.9 -8.6 -3.95 -8.65" fill="#d6f8f4" fill-rule="evenodd" stroke="none"/>
    <path d="M5.05 13.1 L5.8 15.4 3.9 16.1 0.0 17.05 Q1.9 16.05 3.6 14.85 4.6 14.2 5.05 13.1 M-5.05 16.35 Q-6.15 15.95 -7.1 15.1 L-7.8 14.55 -7.5 12.85 -5.8 15.5 -5.05 16.35" fill="#de8db3" fill-rule="evenodd" stroke="none"/>
    <path d="M-7.0 11.25 L-6.25 9.6 -6.1 9.35 Q-5.5 10.9 -5.3 12.5 L-5.15 13.4 -6.5 11.7 -7.0 11.25 M1.55 10.25 L2.3 12.15 0.2 14.1 0.5 13.15 1.55 10.25" fill="#666666" fill-rule="evenodd" stroke="none"/>
    <path d="M0.9 -8.5 L1.0 -8.5 0.95 -8.4 0.9 -8.5" fill="#b1f1e7" fill-rule="evenodd" stroke="none"/>
    <path d="M4.25 11.3 L4.85 12.4 5.05 13.1 Q4.6 14.2 3.6 14.85 1.9 16.05 0.0 17.05 L-0.1 16.35 Q-0.25 15.15 0.2 14.1 L2.3 12.15 4.25 11.3 M-5.0 16.4 L-5.05 16.4 -5.05 16.35 -5.8 15.5 -7.5 12.85 -7.55 12.8 -7.45 11.8 -7.0 11.25 -6.5 11.7 -5.15 13.4 Q-4.4 14.8 -4.85 16.2 L-5.0 16.4 M-4.0 -8.9 L-3.95 -9.55 -3.9 -9.8 -3.55 -8.95 -3.4 -8.65 -2.9 -8.45 Q-1.55 -8.4 -0.3 -9.25 L-0.3 -9.2 -0.1 -8.3 -0.75 -7.9 Q-2.9 -6.7 -3.9 -8.6 L-3.95 -8.8 -4.0 -8.9" fill="#60e1cd" fill-rule="evenodd" stroke="none"/>
    <path d="M-0.3 -9.25 L0.6 -9.65 0.75 -9.15 0.8 -8.8 -0.1 -8.3 -0.3 -9.2 -0.3 -9.25" fill="#27d8bc" fill-rule="evenodd" stroke="none"/>
    <path d="M5.5 1.2 L5.5 1.25 5.45 1.35 3.35 6.5 3.0 5.85 2.3 4.5 3.8 2.55 Q4.35 1.45 4.15 0.0 4.35 0.95 5.2 1.25 L5.5 1.2 M3.2 9.7 L3.35 9.9 4.25 11.3 2.3 12.15 1.55 10.25 3.2 9.7" fill="#454545" fill-rule="evenodd" stroke="none"/>
    <path d="M0.0 17.05 L-4.3 16.6 -5.0 16.4 -4.85 16.2 Q-4.4 14.8 -5.15 13.4 L-5.3 12.5 Q-5.5 10.9 -6.1 9.35 L-5.65 8.4 Q-5.5 5.85 -3.1 5.85 -2.2 5.85 -1.35 6.4 L0.2 7.5 0.2 8.05 1.55 10.25 0.5 13.15 0.2 14.1 Q-0.25 15.15 -0.1 16.35 L0.0 17.05 M-9.9 0.15 L-9.85 -1.75 Q-9.7 -2.7 -8.85 -3.85 L-8.75 -3.95 -7.25 -5.75 -7.2 -5.75 -4.7 -9.0 -4.5 -9.0 -4.0 -8.9 -4.0 -8.8 -3.95 -8.8 -3.95 -8.65 -3.9 -8.6 Q-2.9 -6.7 -0.75 -7.9 L-0.1 -8.3 0.1 -5.35 -2.55 -5.3 -0.7 -4.95 0.15 -4.75 1.35 -3.45 2.3 -1.8 Q3.15 0.5 1.9 2.5 L1.1 3.15 -2.15 3.25 Q-4.05 2.3 -6.0 1.8 L-7.1 1.65 -8.4 2.05 -9.4 0.95 -9.9 0.15 M-4.25 -7.9 L-3.95 -8.65 -4.25 -7.9 M-5.05 16.35 L-5.05 16.4 -5.05 16.35" fill="#ffe6f2" fill-rule="evenodd" stroke="none"/>
    <path d="M0.8 -8.8 L0.9 -8.5 0.95 -8.4 1.0 -8.5 2.4 -8.05 2.4 -7.9 2.45 -7.9 Q2.55 -5.75 3.1 -3.4 L4.1 -0.2 4.15 0.0 Q4.35 1.45 3.8 2.55 L2.3 4.5 3.0 5.85 3.35 6.5 2.9 7.35 2.5 8.8 2.5 8.85 2.75 9.15 3.2 9.7 1.55 10.25 0.2 8.05 0.2 7.5 -1.35 6.4 Q-2.2 5.85 -3.1 5.85 -5.5 5.85 -5.65 8.4 L-5.8 7.3 -7.35 3.2 Q-8.95 2.6 -9.55 1.05 L-9.9 0.15 -9.4 0.95 -8.4 2.05 -7.1 1.65 -6.0 1.8 Q-4.05 2.3 -2.15 3.25 L1.1 3.15 1.9 2.5 Q3.15 0.5 2.3 -1.8 L1.35 -3.45 0.15 -4.75 -0.7 -4.95 -2.55 -5.3 0.1 -5.35 -0.1 -8.3 0.8 -8.8 M1.3 -7.2 L0.95 -8.4 1.3 -7.2 M-7.35 3.2 Q-4.7 2.95 -3.45 3.75 -2.25 4.55 -0.95 5.0 0.35 5.45 2.3 4.5 0.35 5.45 -0.95 5.0 -2.25 4.55 -3.45 3.75 -4.7 2.95 -7.35 3.2" fill="#ffd9ec" fill-rule="evenodd" stroke="none"/>
    <path d="M0.6 -9.65 L0.25 -12.55 0.1 -13.1 -3.85 -12.95 -3.8 -11.8 -3.9 -9.85 M2.45 -7.9 L6.7 -5.8 M6.2 -1.4 L5.5 1.2 M3.2 9.7 L3.35 9.9 M-5.05 16.4 L-5.1 16.4 -5.05 16.35 M-8.85 -3.85 L-8.8 -3.95 M-8.75 -3.95 L-8.35 -5.4 M-8.5 -8.4 L-5.1 -9.0 -4.95 -9.0 -4.7 -9.0 -4.5 -9.0 M-5.1 -8.95 L-5.05 -8.95 -5.1 -9.0 M-5.05 -8.95 L-4.95 -9.0" fill="none" stroke="#d7995e" stroke-linecap="round" stroke-linejoin="round" stroke-width="0.05"/>
    <path d="M4.25 11.3 L4.85 12.4 5.05 13.1 Q4.6 14.2 3.6 14.85 1.9 16.05 0.0 17.05 L-0.1 16.35 Q-0.25 15.15 0.2 14.1 L0.5 13.15 1.55 10.25 M-5.0 16.4 L-5.05 16.4 -5.05 16.35 -5.8 15.5 -7.5 12.85 -7.55 12.8 -7.45 11.8 -7.0 11.25 -6.5 11.7 -5.15 13.4 Q-4.4 14.8 -4.85 16.2 L-5.0 16.4 M2.3 12.15 L4.25 11.3 M2.3 12.15 L0.2 14.1 M-6.1 9.35 Q-5.5 10.9 -5.3 12.5 L-5.15 13.4 M-7.55 12.8 L-7.5 12.85" fill="none" stroke="#1d9e8a" stroke-linecap="round" stroke-linejoin="round" stroke-width="0.05"/>
    <path d="M5.05 13.1 L5.8 15.4 M-7.8 14.55 L-7.5 12.85" fill="none" stroke="#b03573" stroke-linecap="round" stroke-linejoin="round" stroke-width="0.05"/>
    <path d="M-0.3 -9.25 L0.6 -9.65 0.75 -9.15 0.8 -8.8 0.9 -8.5 1.0 -8.5 2.4 -8.05 2.4 -7.9 M-4.5 -9.0 L-4.0 -8.9 -3.95 -9.55 -3.9 -9.8 -3.9 -9.85 M0.95 -8.4 L1.3 -7.2 M0.95 -8.4 L0.9 -8.5 M-0.3 -9.25 Q-1.55 -8.4 -2.9 -8.45 L-3.4 -8.65 -3.55 -8.95 -3.9 -9.8 M-3.95 -8.65 L-3.95 -8.8 -3.9 -8.6 Q-2.9 -6.7 -0.75 -7.9 L-0.1 -8.3 0.8 -8.8 M-4.0 -8.8 L-4.0 -8.9 -3.95 -8.8 M-0.3 -9.2 L-0.3 -9.25 M-3.95 -8.65 L-4.25 -7.9 M-7.2 -5.75 L-4.7 -9.0" fill="none" stroke="#a0a0a0" stroke-linecap="round" stroke-linejoin="round" stroke-width="0.05"/>
    <path d="M5.5 1.25 L5.45 1.35 3.35 6.5 M3.35 9.9 L4.25 11.3 M-7.0 11.25 L-6.25 9.6" fill="none" stroke="#000000" stroke-linecap="round" stroke-linejoin="round" stroke-width="0.05"/>
    <path d="M5.5 1.2 L5.5 1.25 M3.35 6.5 L2.9 7.35 M-5.8 7.3 L-7.35 3.2 Q-8.95 2.6 -9.55 1.05 L-9.9 0.15 -9.85 -1.75 Q-9.7 -2.7 -8.85 -3.85 L-8.75 -3.95 -7.25 -5.75 M2.45 -7.9 Q2.55 -5.75 3.1 -3.4 L4.1 -0.2 4.15 0.0 Q4.35 0.95 5.2 1.25 L5.5 1.2 M4.15 0.0 Q4.35 1.45 3.8 2.55 L2.3 4.5 3.0 5.85 3.35 6.5 M2.3 4.5 Q0.35 5.45 -0.95 5.0 -2.25 4.55 -3.45 3.75 -4.7 2.95 -7.35 3.2" fill="none" stroke="#fe67b3" stroke-linecap="round" stroke-linejoin="round" stroke-width="0.05"/>
    <path d="M2.9 7.35 L2.5 8.8 2.75 9.15 3.2 9.7 M-6.1 9.35 L-5.65 8.4 -5.8 7.3 M2.5 8.8 L2.5 8.85" fill="none" stroke="#fe67b3" stroke-linecap="round" stroke-linejoin="round" stroke-width="0.05"/>
    <path d="M-6.25 9.6 L-6.1 9.35" fill="none" stroke="#272727" stroke-linecap="round" stroke-linejoin="round" stroke-width="0.05"/>
    <path d="M-4.6 -4.25 L-4.65 -4.25 -4.75 -4.55 -4.6 -4.9 -4.3 -5.0 -4.05 -4.9 -4.0 -4.85 -3.95 -4.6 -4.05 -4.3 -4.3 -4.2 -4.6 -4.25" fill="#ffffff" fill-rule="evenodd" stroke="none"/>
    <path d="M-5.1 -5.05 L-4.95 -5.25 Q-4.55 -5.8 -3.9 -5.85 -3.25 -5.9 -2.75 -5.35 L-2.4 -4.7 -2.3 -4.05 Q-2.25 -3.3 -2.7 -2.7 L-2.9 -2.5 Q-3.3 -2.15 -3.8 -2.15 -4.45 -2.1 -4.9 -2.6 L-5.0 -2.75 Q-5.4 -3.2 -5.4 -3.9 -5.45 -4.55 -5.1 -5.05 M-3.95 -4.6 L-4.0 -4.85 -4.05 -4.9 -4.3 -5.0 -4.6 -4.9 -4.75 -4.55 -4.65 -4.25 -4.6 -4.25 Q-4.9 -3.9 -4.85 -3.4 -4.85 -2.95 -4.5 -2.65 -4.15 -2.35 -3.65 -2.4 -3.2 -2.45 -2.85 -2.75 -2.55 -3.1 -2.55 -3.6 -2.6 -4.1 -2.9 -4.4 -3.25 -4.7 -3.75 -4.65 L-3.95 -4.6" fill="#bb7855" fill-rule="evenodd" stroke="none"/>
    <path d="M-3.95 -4.6 L-3.75 -4.65 Q-3.25 -4.7 -2.9 -4.4 -2.6 -4.1 -2.55 -3.6 -2.55 -3.1 -2.85 -2.75 -3.2 -2.45 -3.65 -2.4 -4.15 -2.35 -4.5 -2.65 -4.85 -2.95 -4.85 -3.4 -4.9 -3.9 -4.6 -4.25 L-4.3 -4.2 -4.05 -4.3 -3.95 -4.6" fill="#7c4632" fill-rule="evenodd" stroke="none"/>
    <path d="M-3.4 15.3 L-3.5 15.25 -3.65 14.95 -3.5 14.55 -3.45 14.5 -3.2 14.4 Q-3.0 14.4 -2.9 14.55 L-2.85 14.6 -2.8 14.85 -2.8 14.9 -2.85 15.2 Q-2.95 15.35 -3.15 15.35 L-3.4 15.3" fill="#ffffff" fill-rule="evenodd" stroke="none"/>
    <path d="M-1.2 14.8 Q-1.05 15.1 -1.05 15.55 -0.95 16.4 -1.4 17.05 L-1.65 17.35 Q-2.0 17.7 -2.5 17.75 -3.2 17.8 -3.65 17.2 L-3.8 17.05 Q-4.2 16.5 -4.25 15.7 -4.3 15.0 -4.0 14.4 L-3.85 14.15 Q-3.45 13.45 -2.8 13.45 -2.1 13.4 -1.6 14.0 L-1.2 14.8 M-2.8 14.85 L-2.85 14.6 -2.9 14.55 Q-3.0 14.4 -3.2 14.4 L-3.45 14.5 -3.5 14.55 -3.65 14.95 -3.5 15.25 -3.4 15.3 Q-3.7 15.7 -3.65 16.25 -3.65 16.8 -3.25 17.15 L-2.4 17.45 Q-1.9 17.4 -1.6 17.0 -1.3 16.6 -1.3 16.05 -1.35 15.5 -1.7 15.1 -2.1 14.75 -2.55 14.8 L-2.8 14.85" fill="#bb7855" fill-rule="evenodd" stroke="none"/>
    <path d="M-2.8 14.85 L-2.55 14.8 Q-2.1 14.75 -1.7 15.1 -1.35 15.5 -1.3 16.05 -1.3 16.6 -1.6 17.0 -1.9 17.4 -2.4 17.45 L-3.25 17.15 Q-3.65 16.8 -3.65 16.25 -3.7 15.7 -3.4 15.3 L-3.15 15.35 Q-2.95 15.35 -2.85 15.2 L-2.8 14.9 -2.8 14.85" fill="#7c4632" fill-rule="evenodd" stroke="none"/>
  </g>
</svg>
