<?xml version="1.0" encoding="UTF-8" standalone="no"?>
<svg xmlns:xlink="http://www.w3.org/1999/xlink" height="26.25px" width="10.05px" xmlns="http://www.w3.org/2000/svg">
  <g transform="matrix(1.0, 0.0, 0.0, 1.0, 4.15, 1.55)">
    <path d="M4.15 0.45 Q4.15 1.1 2.9 1.6 L0.0 2.0 -2.95 1.6 Q-4.15 1.1 -4.15 0.45" fill="none" stroke="#9f9f0f" stroke-linecap="round" stroke-linejoin="round" stroke-width="0.05"/>
    <path d="M5.9 24.7 Q2.8 23.0 0.5 17.15 -1.05 13.25 -2.0 8.5 L-3.35 0.9 -3.2 0.7 Q-1.65 -0.2 0.05 -0.15 0.0 2.3 0.25 4.95 0.7 10.15 5.9 24.7" fill="#a5815f" fill-rule="evenodd" stroke="none"/>
    <path d="M5.9 24.7 Q0.7 10.15 0.25 4.95 0.0 2.3 0.05 -0.15 1.65 -0.1 3.35 0.9 L2.85 3.45 Q1.8 9.25 5.9 24.7" fill="#816347" fill-rule="evenodd" stroke="none"/>
    <path d="M0.05 -0.15 Q-1.65 -0.2 -3.2 0.7 L-3.35 0.9 -2.0 8.5 Q-1.05 13.25 0.5 17.15 2.8 23.0 5.9 24.7 1.8 9.25 2.85 3.45 L3.35 0.9 Q1.65 -0.1 0.05 -0.15" fill="none" stroke="#614736" stroke-linecap="round" stroke-linejoin="round" stroke-width="0.05"/>
    <path d="M-4.15 0.45 Q-4.2 -1.2 -2.35 -1.55" fill="none" stroke="#9f9f0f" stroke-linecap="round" stroke-linejoin="round" stroke-width="0.05"/>
  </g>
</svg>
