<?xml version="1.0" encoding="UTF-8" standalone="no"?>
<svg xmlns:xlink="http://www.w3.org/1999/xlink" height="15.3px" width="6.1px" xmlns="http://www.w3.org/2000/svg">
  <g transform="matrix(1.0, 0.0, 0.0, 1.0, 2.7, 0.75)">
    <path d="M-0.4 13.65 Q-0.75 10.55 -1.35 8.05 L-2.1 5.3 Q-2.65 3.55 -2.65 2.25 -2.65 0.9 -2.0 0.05 L-1.9 -0.05 Q-0.95 -1.25 1.4 -0.4 L1.75 0.0 1.9 0.15 3.0 1.8 3.1 3.1 2.3 14.2 Q0.7 15.15 -0.4 13.65" fill="#ffdfc8" fill-rule="evenodd" stroke="none"/>
    <path d="M2.3 14.2 L3.1 3.1 3.0 1.8 1.9 0.15 1.75 0.0 1.4 -0.4 Q-0.95 -1.25 -1.9 -0.05 L-2.0 0.05 Q-2.65 0.9 -2.65 2.25 -2.65 3.55 -2.1 5.3 L-1.35 8.05 Q-0.75 10.55 -0.4 13.65" fill="none" stroke="#d7995e" stroke-linecap="round" stroke-linejoin="round" stroke-width="0.05"/>
    <path d="M-1.3 3.55 L-0.45 3.55 3.1 2.75 3.15 2.95 Q3.45 3.35 3.4 4.55 L3.15 7.35 2.75 10.65 Q2.7 11.05 3.0 11.85 3.25 13.65 2.35 14.05 L0.1 14.1 0.05 12.75 0.0 12.1 -0.05 11.55 -0.15 10.35 -0.2 9.55 -0.35 7.8 -0.35 7.6 -0.45 6.5 Q-0.75 4.35 -1.05 3.75 -1.1 3.6 -1.3 3.55" fill="#823939" fill-rule="evenodd" stroke="none"/>
    <path d="M-1.3 3.55 Q-1.1 3.6 -1.05 3.75 -0.75 4.35 -0.45 6.5 L-0.35 7.6 -0.35 7.8 -0.2 9.55 -0.15 10.35 -0.05 11.55 0.0 12.1 0.05 12.75 0.1 14.1 -0.45 13.5 -0.75 12.6 -0.65 12.05 -0.8 11.45 -1.0 10.45 -1.1 9.65 Q-1.6 9.0 -1.65 8.15 L-1.65 8.1 -1.8 6.7 Q-2.5 5.95 -2.6 5.0 L-2.7 3.15 -2.15 3.4 -1.3 3.55" fill="#b45656" fill-rule="evenodd" stroke="none"/>
    <path d="M0.1 14.1 L2.35 14.05 Q3.25 13.65 3.0 11.85 2.7 11.05 2.75 10.65 L3.15 7.35 3.4 4.55 Q3.45 3.35 3.15 2.95 L3.1 2.75 -0.45 3.55 -1.3 3.55 -2.15 3.4 -2.7 3.15 -2.6 5.0 Q-2.5 5.95 -1.8 6.7 L-1.65 8.1 -1.65 8.15 Q-1.6 9.0 -1.1 9.65 L-1.0 10.45 -0.8 11.45 -0.65 12.05 -0.75 12.6 -0.45 13.5 0.1 14.1 Z" fill="none" stroke="#6c3131" stroke-linecap="round" stroke-linejoin="round" stroke-width="0.05"/>
  </g>
</svg>
