<?xml version="1.0" encoding="UTF-8" standalone="no"?>
<svg xmlns:xlink="http://www.w3.org/1999/xlink" height="9.85px" width="4.45px" xmlns="http://www.w3.org/2000/svg">
  <g transform="matrix(1.0, 0.0, 0.0, 1.0, 2.6, -2.3)">
    <path d="M-2.35 10.2 L-1.65 9.6 -1.8 10.15 1.35 11.15 1.35 11.4 0.25 11.95 Q-0.75 12.5 -2.35 11.55 L-2.35 10.2" fill="#ffdfc8" fill-rule="evenodd" stroke="none"/>
    <path d="M1.8 3.9 L0.0 3.3 -1.65 9.6 -2.35 10.2 -2.6 2.35 -0.25 2.45 Q0.8 2.65 1.85 3.15 L1.8 3.9" fill="#ffd0ae" fill-rule="evenodd" stroke="none"/>
    <path d="M1.8 3.9 L1.85 3.15 Q0.8 2.65 -0.25 2.45 L-2.6 2.35 -2.35 10.2 -2.35 11.55 M1.35 11.15 L1.35 11.4" fill="none" stroke="#d7995e" stroke-linecap="round" stroke-linejoin="round" stroke-width="0.05"/>
    <path d="M1.45 9.9 Q-0.55 9.0 -1.65 9.6 L0.0 3.3 1.8 3.9 1.45 9.9" fill="#ffd0ae" fill-rule="evenodd" stroke="none"/>
    <path d="M1.45 9.9 L1.35 11.15 -1.8 10.15 -1.65 9.6 Q-0.55 9.0 1.45 9.9" fill="#ffdfc8" fill-rule="evenodd" stroke="none"/>
    <path d="M1.35 11.15 L1.45 9.9 1.8 3.9" fill="none" stroke="#d7995e" stroke-linecap="round" stroke-linejoin="round" stroke-width="0.05"/>
  </g>
</svg>
