<?xml version="1.0" encoding="UTF-8" standalone="no"?>
<svg xmlns:xlink="http://www.w3.org/1999/xlink" height="16.15px" width="13.95px" xmlns="http://www.w3.org/2000/svg">
  <g transform="matrix(1.0, 0.0, 0.0, 1.0, 3.4, 9.05)">
    <path d="M-2.15 -0.85 Q-1.75 -0.5 -1.6 0.45 L-2.7 -0.85 -3.3 -1.05 -2.15 -0.85 M3.45 0.75 Q2.05 0.3 0.25 1.15 1.6 -0.5 3.45 0.75" fill="#503e53" fill-rule="evenodd" stroke="none"/>
    <path d="M-2.15 -0.85 Q-1.75 -0.5 -1.6 0.45 L-2.7 -0.85 -3.3 -1.05 -2.15 -0.85 M3.45 0.75 Q1.6 -0.5 0.25 1.15 2.05 0.3 3.45 0.75" fill="none" stroke="#5b4961" stroke-linecap="round" stroke-linejoin="round" stroke-width="0.05"/>
    <path d="M9.5 -6.9 Q10.3 -5.85 10.55 -4.25 10.3 0.5 9.2 2.6 L9.1 2.8 8.25 3.8 8.4 2.2 Q8.3 1.6 7.95 1.5 L7.7 1.45 6.95 1.65 Q6.45 1.95 6.5 2.3 L5.8 6.6 Q4.7 7.55 4.25 6.7 L5.15 6.6 Q4.35 2.35 5.9 1.6 L6.5 0.8 6.7 -0.6 Q6.95 -2.45 5.85 -3.1 4.7 -3.75 3.65 -3.65 2.6 -3.6 1.35 -3.0 -0.55 -2.0 -2.45 -2.35 L-2.55 -2.6 Q-2.6 -3.25 -1.75 -4.2 -0.9 -5.2 4.45 -4.85 9.8 -4.5 9.5 -6.9" fill="#246f8a" fill-rule="evenodd" stroke="none"/>
    <path d="M4.25 6.7 Q3.5 3.55 3.8 2.25 4.0 0.95 5.1 0.15 6.15 -0.65 5.0 -2.65 4.3 -3.75 1.35 -3.0 2.6 -3.6 3.65 -3.65 4.7 -3.75 5.85 -3.1 6.95 -2.45 6.7 -0.6 L6.5 0.8 5.9 1.6 Q4.35 2.35 5.15 6.6 L4.25 6.7 M-2.45 -2.35 Q-3.15 -2.75 -3.3 -3.35 -4.05 -8.3 1.6 -8.9 7.2 -9.55 9.5 -6.9 9.8 -4.5 4.45 -4.85 -0.9 -5.2 -1.75 -4.2 -2.6 -3.25 -2.55 -2.6 L-2.45 -2.35" fill="#309bb6" fill-rule="evenodd" stroke="none"/>
    <path d="M9.5 -6.9 Q10.3 -5.85 10.55 -4.25 10.3 0.5 9.2 2.6 L9.1 2.8 8.25 3.8 8.4 2.2 Q8.3 1.6 7.95 1.5 L7.7 1.45 6.95 1.65 Q6.45 1.95 6.5 2.3 L5.8 6.6 Q4.7 7.55 4.25 6.7 3.5 3.55 3.8 2.25 4.0 0.95 5.1 0.15 6.15 -0.65 5.0 -2.65 4.3 -3.75 1.35 -3.0 -0.55 -2.0 -2.45 -2.35 -3.15 -2.75 -3.3 -3.35 -4.05 -8.3 1.6 -8.9 7.2 -9.55 9.5 -6.9 Z" fill="none" stroke="#000066" stroke-linecap="round" stroke-linejoin="round" stroke-width="0.05"/>
  </g>
</svg>
