<?xml version="1.0" encoding="UTF-8" standalone="no"?>
<svg xmlns:xlink="http://www.w3.org/1999/xlink" height="7.5px" width="15.1px" xmlns="http://www.w3.org/2000/svg">
  <g transform="matrix(1.0, 0.0, 0.0, 1.0, 3.85, 3.5)">
    <path d="M-2.45 2.1 L-2.3 2.1 -2.35 2.15 -2.45 2.1" fill="#f2f2f2" fill-rule="evenodd" stroke="none"/>
    <path d="M-3.75 -0.85 Q-3.4 -2.0 -1.85 -2.7 0.0 -3.65 2.5 -3.45 L5.05 -3.0 5.75 -2.7 6.25 -2.45 5.75 -2.7 Q9.05 -1.7 11.05 -1.75 11.9 1.35 8.95 4.0 L4.65 3.2 5.25 3.05 6.2 2.7 6.35 2.6 Q8.05 1.75 8.2 0.4 L7.95 -0.85 7.85 -0.95 7.75 -1.15 7.6 -1.4 7.55 -1.45 6.7 -2.15 6.25 -2.45 Q6.8 -1.85 6.85 -1.0 L6.85 -0.95 6.8 -0.6 6.8 -0.4 6.15 0.6 Q4.8 2.1 1.65 2.3 L-2.3 2.1 -2.45 2.1 Q-4.0 1.0 -3.85 -0.35 L-3.75 -0.85" fill="url(#gradient0)" fill-rule="evenodd" stroke="none"/>
    <path d="M-2.3 2.1 L1.65 2.3 Q4.8 2.1 6.15 0.6 L6.8 -0.4 6.8 -0.6 6.85 -0.95 6.85 -1.0 Q6.8 -1.85 6.25 -2.45 L6.7 -2.15 7.55 -1.45 7.6 -1.4 7.75 -1.15 7.85 -0.95 7.95 -0.85 8.2 0.4 Q8.05 1.75 6.35 2.6 L6.2 2.7 5.25 3.05 4.65 3.2 1.95 3.4 1.8 3.4 Q-0.7 3.25 -2.35 2.15 L-2.3 2.1" fill="#b95ba2" fill-rule="evenodd" stroke="none"/>
    <path d="M5.75 -2.7 L5.05 -3.0 2.5 -3.45 Q0.0 -3.65 -1.85 -2.7 -3.4 -2.0 -3.75 -0.85 M6.25 -2.45 L5.75 -2.7 Q9.05 -1.7 11.05 -1.75 11.9 1.35 8.95 4.0 L4.65 3.2 1.95 3.4 M6.25 -2.45 L6.7 -2.15 7.55 -1.45 7.6 -1.4 7.75 -1.15 M6.35 2.6 L6.2 2.7 5.25 3.05 4.65 3.2" fill="none" stroke="#786d36" stroke-linecap="round" stroke-linejoin="round" stroke-width="0.05"/>
  </g>
  <defs>
    <radialGradient cx="0" cy="0" gradientTransform="matrix(1.0, 0.0, 0.0, 1.0, 0.0, 0.0)" gradientUnits="userSpaceOnUse" id="gradient0" r="819.2" spreadMethod="pad">
      <stop offset="0.11764705882352941" stop-color="#c87eb5"/>
      <stop offset="1.0" stop-color="#c87eb5" stop-opacity="0.0"/>
    </radialGradient>
  </defs>
</svg>
