<?xml version="1.0" encoding="UTF-8" standalone="no"?>
<svg xmlns:xlink="http://www.w3.org/1999/xlink" height="30.45px" width="16.8px" xmlns="http://www.w3.org/2000/svg">
  <g transform="matrix(1.0, 0.0, 0.0, 1.0, 6.6, 8.45)">
    <path d="M7.25 6.45 L7.25 7.9 Q7.6 10.05 7.25 10.35 7.75 12.6 7.25 13.3 L7.45 14.4 Q7.55 15.3 7.25 15.3 7.8 16.95 7.25 17.85 L7.25 17.9 Q7.65 20.6 6.65 22.0 4.15 19.6 5.8 17.15 5.2 14.9 5.75 14.4 L5.8 14.35 Q5.15 12.3 5.8 11.55 5.25 9.3 5.8 8.8 5.35 7.15 5.8 5.85 L6.5 5.1 7.25 6.45 M5.8 17.15 Q6.35 17.85 7.25 17.85 6.35 17.85 5.8 17.15 M7.25 15.3 Q6.45 15.1 5.85 14.4 L5.8 14.35 5.85 14.4 Q6.45 15.1 7.25 15.3 M7.25 13.3 L7.05 13.2 Q6.3 12.85 5.8 11.55 6.3 12.85 7.05 13.2 L7.25 13.3 M7.25 7.9 Q6.2 7.4 5.8 5.85 6.2 7.4 7.25 7.9 M5.8 8.8 Q6.35 10.0 7.25 10.35 6.35 10.0 5.8 8.8 M-2.95 5.75 L-2.2 6.85 -2.3 7.3 Q-1.75 7.8 -2.3 10.05 -1.65 10.8 -2.3 12.85 -1.7 13.2 -2.25 15.4 L-2.3 15.65 Q-0.65 18.1 -3.15 20.5 -4.15 19.1 -3.75 16.4 L-3.75 16.35 -4.0 15.4 -3.75 13.8 Q-4.2 13.8 -3.75 11.8 -4.25 11.1 -3.75 8.85 -4.1 8.55 -3.75 6.4 L-3.7 3.75 -2.95 5.75 -3.75 6.4 -2.95 5.75 M-2.3 12.85 Q-2.95 13.6 -3.75 13.8 -2.95 13.6 -2.3 12.85 M-3.75 16.35 Q-2.85 16.35 -2.3 15.65 -2.85 16.35 -3.75 16.35 M-3.75 8.85 Q-2.85 8.5 -2.3 7.3 -2.85 8.5 -3.75 8.85 M-3.75 11.8 L-3.55 11.7 Q-2.8 11.35 -2.3 10.05 -2.8 11.35 -3.55 11.7 L-3.75 11.8" fill="#ffcc33" fill-rule="evenodd" stroke="none"/>
    <path d="M7.25 6.45 L7.25 7.9 Q7.6 10.05 7.25 10.35 7.75 12.6 7.25 13.3 L7.45 14.4 Q7.55 15.3 7.25 15.3 7.8 16.95 7.25 17.85 L7.25 17.9 Q7.65 20.6 6.65 22.0 4.15 19.6 5.8 17.15 5.2 14.9 5.75 14.4 L5.8 14.35 Q5.15 12.3 5.8 11.55 5.25 9.3 5.8 8.8 5.35 7.15 5.8 5.85 L6.5 5.1 M7.25 10.35 Q6.35 10.0 5.8 8.8 M5.8 5.85 Q6.2 7.4 7.25 7.9 M5.8 11.55 Q6.3 12.85 7.05 13.2 L7.25 13.3 M5.8 14.35 L5.85 14.4 Q6.45 15.1 7.25 15.3 M7.25 17.85 Q6.35 17.85 5.8 17.15 M-2.95 5.75 L-2.2 6.85 -2.3 7.3 Q-1.75 7.8 -2.3 10.05 -1.65 10.8 -2.3 12.85 -1.7 13.2 -2.25 15.4 L-2.3 15.65 Q-0.65 18.1 -3.15 20.5 -4.15 19.1 -3.75 16.4 L-3.75 16.35 -4.0 15.4 -3.75 13.8 Q-4.2 13.8 -3.75 11.8 -4.25 11.1 -3.75 8.85 -4.1 8.55 -3.75 6.4 L-3.7 3.75 -2.95 5.75 -3.75 6.4 M-2.3 10.05 Q-2.8 11.35 -3.55 11.7 L-3.75 11.8 M-2.3 7.3 Q-2.85 8.5 -3.75 8.85 M-2.3 15.65 Q-2.85 16.35 -3.75 16.35 M-3.75 13.8 Q-2.95 13.6 -2.3 12.85" fill="none" stroke="#b67701" stroke-linecap="round" stroke-linejoin="round" stroke-width="0.05"/>
    <path d="M-3.5 -0.35 Q-3.15 -1.45 -1.7 -0.15 M3.35 1.95 Q2.35 -0.4 0.3 0.4" fill="none" stroke="#b67701" stroke-linecap="round" stroke-linejoin="round" stroke-width="0.05"/>
    <path d="M10.2 -1.85 Q10.3 -0.3 9.95 1.05 L9.55 2.55 Q9.1 3.8 8.45 4.25 L7.25 5.05 Q8.5 4.2 8.4 2.75 L8.4 2.55 Q8.1 0.75 6.7 2.2 L6.75 2.55 7.35 5.4 Q7.9 7.4 8.75 9.1 7.3 7.65 6.4 5.45 5.9 8.05 6.15 9.4 4.5 6.9 4.95 2.55 L5.0 1.75 Q3.8 -0.95 0.85 -2.15 0.0 -1.05 0.55 0.55 -0.4 -0.3 -0.8 -2.75 -1.75 -1.05 -1.6 0.85 -2.8 -0.4 -2.25 -3.15 -6.2 -0.9 -6.6 1.4 L-6.55 0.3 Q-4.2 -4.95 0.6 -7.15 L2.3 -5.6 3.15 -6.7 Q5.4 -7.1 7.05 -6.15 6.4 -4.5 4.9 -2.7 6.4 -3.05 8.2 -5.25 9.4 -4.05 10.2 -1.85 M-5.15 7.45 Q-4.8 3.9 -3.7 0.05 -3.8 2.7 -3.4 4.6 L-5.15 7.45" fill="#ffcc33" fill-rule="evenodd" stroke="none"/>
    <path d="M-6.55 0.3 Q-6.05 -5.95 -0.7 -7.55 L-0.15 -7.45 Q2.6 -8.9 5.3 -8.25 L5.9 -8.1 7.25 -7.55 Q9.15 -6.25 9.8 -4.3 L9.9 -3.8 10.2 -1.85 Q9.4 -4.05 8.2 -5.25 6.4 -3.05 4.9 -2.7 6.4 -4.5 7.05 -6.15 5.4 -7.1 3.15 -6.7 L2.3 -5.6 0.6 -7.15 Q-4.2 -4.95 -6.55 0.3" fill="#ffe082" fill-rule="evenodd" stroke="none"/>
    <path d="M-6.55 0.3 Q-6.05 -5.95 -0.7 -7.55 L-0.15 -7.45 Q2.6 -8.9 5.3 -8.25 L5.9 -8.1 7.25 -7.55 Q9.15 -6.25 9.8 -4.3 L9.9 -3.8 10.2 -1.85 Q10.3 -0.3 9.95 1.05 L9.55 2.55 Q9.1 3.8 8.45 4.25 L7.25 5.05 Q8.5 4.2 8.4 2.75 L8.4 2.55 Q8.1 0.75 6.7 2.2 L6.75 2.55 7.35 5.4 Q7.9 7.4 8.75 9.1 7.3 7.65 6.4 5.45 5.9 8.05 6.15 9.4 4.5 6.9 4.95 2.55 L5.0 1.75 Q3.8 -0.95 0.85 -2.15 0.0 -1.05 0.55 0.55 -0.4 -0.3 -0.8 -2.75 -1.75 -1.05 -1.6 0.85 -2.8 -0.4 -2.25 -3.15 -6.2 -0.9 -6.6 1.4 L-6.55 0.3 M-5.15 7.45 L-3.4 4.6 Q-3.8 2.7 -3.7 0.05 -4.8 3.9 -5.15 7.45" fill="none" stroke="#b67701" stroke-linecap="round" stroke-linejoin="round" stroke-width="0.05"/>
  </g>
</svg>
