<?xml version="1.0" encoding="UTF-8" standalone="no"?>
<svg xmlns:xlink="http://www.w3.org/1999/xlink" height="33.4px" width="11.8px" xmlns="http://www.w3.org/2000/svg">
  <g transform="matrix(1.0, 0.0, 0.0, 1.0, 6.7, 33.05)">
    <path d="M2.2 -19.35 L1.2 -2.35 -1.2 -2.0 Q-2.55 -2.25 -3.45 -2.85 -3.45 -7.0 -3.85 -11.05 L-4.5 -16.0 Q-5.15 -18.3 -4.9 -21.9 -4.65 -25.0 -3.95 -27.75 L-2.7 -29.15 Q-0.25 -29.5 1.05 -27.15 1.95 -23.85 2.15 -19.85 L2.2 -19.35" fill="#ffdfc8" fill-rule="evenodd" stroke="none"/>
    <path d="M2.2 -19.35 L2.15 -19.85 Q1.95 -23.85 1.05 -27.15 -0.25 -29.5 -2.7 -29.15 L-3.95 -27.75 Q-4.65 -25.0 -4.9 -21.9 -5.15 -18.3 -4.5 -16.0 L-3.85 -11.05 Q-3.45 -7.0 -3.45 -2.85 -2.55 -2.25 -1.2 -2.0 L1.2 -2.35 2.2 -19.35 Z" fill="none" stroke="#d7995e" stroke-linecap="round" stroke-linejoin="round" stroke-width="0.05"/>
    <path d="M2.7 -16.1 L1.95 -4.65 1.85 -1.9 Q1.85 -0.25 -1.15 0.35 L-1.3 0.3 Q-2.65 -0.2 -3.3 -1.05 L-4.45 -2.95 -4.45 -3.55 -4.45 -4.4 -4.45 -5.7 -4.8 -15.75 -4.75 -15.75 Q-3.65 -15.0 -1.4 -14.75 L-1.15 -14.7 -0.05 -14.95 Q1.65 -15.45 2.7 -16.1" fill="#855e54" fill-rule="evenodd" stroke="none"/>
    <path d="M-4.8 -15.8 Q-5.65 -16.4 -6.7 -17.75 L-6.65 -21.35 Q-6.7 -24.05 -6.1 -29.3 -5.6 -34.6 -1.9 -32.45 L1.95 -29.4 Q3.9 -27.55 5.1 -19.2 4.25 -16.5 3.35 -16.55 L2.7 -16.1 Q1.65 -15.45 -0.05 -14.95 L-1.15 -14.7 -1.4 -14.75 Q-3.65 -15.0 -4.75 -15.75 L-4.8 -15.8" fill="#c1a49d" fill-rule="evenodd" stroke="none"/>
    <path d="M2.7 -16.1 L1.95 -4.65 1.85 -1.9 Q1.85 -0.25 -1.15 0.35 L-1.3 0.3 Q-2.65 -0.2 -3.3 -1.05 L-4.45 -2.95 -4.45 -3.55 -4.45 -4.4 -4.45 -5.7 -4.8 -15.75 -4.8 -15.8" fill="none" stroke="#3f2c27" stroke-linecap="round" stroke-linejoin="round" stroke-width="0.05"/>
    <path d="M-4.8 -15.8 Q-5.65 -16.4 -6.7 -17.75 L-6.65 -21.35 Q-6.7 -24.05 -6.1 -29.3 -5.6 -34.6 -1.9 -32.45 L1.95 -29.4 Q3.9 -27.55 5.1 -19.2 4.25 -16.5 3.35 -16.55 L2.7 -16.1 Q1.65 -15.45 -0.05 -14.95 L-1.15 -14.7 -1.4 -14.75 Q-3.65 -15.0 -4.75 -15.75 L-4.8 -15.8" fill="none" stroke="#7d5651" stroke-linecap="round" stroke-linejoin="round" stroke-width="0.05"/>
  </g>
</svg>
