<?xml version="1.0" encoding="UTF-8" standalone="no"?>
<svg xmlns:xlink="http://www.w3.org/1999/xlink" height="25.7px" width="30.9px" xmlns="http://www.w3.org/2000/svg">
  <g transform="matrix(1.0, 0.0, 0.0, 1.0, 15.45, 12.85)">
    <path d="M-14.35 -3.7 Q-13.8 -0.85 -10.55 1.15 -6.55 3.45 -0.9 3.05 4.75 2.6 8.7 -0.35 12.7 -3.3 12.7 -7.05 L12.55 -8.4 Q15.45 -5.35 15.45 -1.15 15.45 4.15 10.9 8.25 6.4 12.35 0.0 12.8 -6.4 13.3 -10.95 9.9 -15.45 6.5 -15.45 1.2 -15.45 -1.4 -14.35 -3.7" fill="#22509d" fill-rule="evenodd" stroke="none"/>
    <path d="M12.55 -8.4 L12.7 -7.05 Q12.7 -3.3 8.7 -0.35 4.75 2.6 -0.9 3.05 -6.55 3.45 -10.55 1.15 -13.8 -0.85 -14.35 -3.7 -13.25 -6.1 -10.95 -8.2 -6.4 -12.3 0.0 -12.8 6.4 -13.25 10.9 -9.85 L12.55 -8.4" fill="#2d65c6" fill-rule="evenodd" stroke="none"/>
    <path d="M12.55 -8.4 L10.9 -9.85 Q6.4 -13.25 0.0 -12.8 -6.4 -12.3 -10.95 -8.2 -13.25 -6.1 -14.35 -3.7 -15.45 -1.4 -15.45 1.2 -15.45 6.5 -10.95 9.9 -6.4 13.3 0.0 12.8 6.4 12.35 10.9 8.25 15.45 4.15 15.45 -1.15 15.45 -5.35 12.55 -8.4 Z" fill="none" stroke="#163d69" stroke-linecap="round" stroke-linejoin="round" stroke-width="0.05"/>
  </g>
</svg>
