<?xml version="1.0" encoding="UTF-8" standalone="no"?>
<svg xmlns:xlink="http://www.w3.org/1999/xlink" height="28.5px" width="25.7px" xmlns="http://www.w3.org/2000/svg">
  <g transform="matrix(1.0, 0.0, 0.0, 1.0, 11.65, 6.45)">
    <path d="M4.3 12.05 Q7.4 11.15 8.0 6.2 L3.35 7.75 Q1.45 8.45 -0.35 9.35 1.1 12.25 4.3 12.05 M-6.7 15.35 L-9.35 17.15 -11.65 11.2 Q-7.6 9.1 -6.65 3.15 L-1.9 -6.45 -1.4 2.3 2.45 3.5 10.15 -4.95 10.2 6.3 Q11.4 10.4 14.05 12.25 9.9 16.15 7.75 21.2 L4.75 18.05 4.1 17.3 4.75 18.05 Q1.8 21.85 -1.45 22.05 -5.05 20.75 -6.7 15.35 L-5.65 14.65 -6.7 15.35 M4.1 17.3 L0.45 13.45 -1.9 16.55 -3.15 12.95 -5.65 14.65 Q-3.65 20.95 -1.6 17.3 -0.9 21.7 4.1 17.3 M-3.7 7.25 Q-4.95 6.45 -6.35 6.2 -6.25 8.55 -5.4 9.85 L-4.3 10.85 Q-2.35 10.8 -1.65 9.1 -2.6 7.95 -3.7 7.25" fill="#7697cd" fill-rule="evenodd" stroke="none"/>
    <path d="M3.35 7.75 L8.0 6.2 Q7.4 11.15 4.3 12.05 6.75 9.75 3.35 7.75 M-5.4 9.85 Q-6.25 8.55 -6.35 6.2 -4.95 6.45 -3.7 7.25 -6.2 7.45 -5.4 9.85" fill="#bf8a07" fill-rule="evenodd" stroke="none"/>
    <path d="M3.35 7.75 Q6.75 9.75 4.3 12.05 1.1 12.25 -0.35 9.35 1.45 8.45 3.35 7.75 M-5.4 9.85 Q-6.2 7.45 -3.7 7.25 -2.6 7.95 -1.65 9.1 -2.35 10.8 -4.3 10.85 L-5.4 9.85" fill="#feeb02" fill-rule="evenodd" stroke="none"/>
    <path d="M-5.65 14.65 L-3.15 12.95 -1.9 16.55 0.45 13.45 4.1 17.3 Q-0.9 21.7 -1.6 17.3 -3.65 20.95 -5.65 14.65" fill="#163d69" fill-rule="evenodd" stroke="none"/>
    <path d="M4.3 12.05 Q7.4 11.15 8.0 6.2 L3.35 7.75 Q1.45 8.45 -0.35 9.35 1.1 12.25 4.3 12.05 M4.75 18.05 L7.75 21.2 Q9.9 16.15 14.05 12.25 11.4 10.4 10.2 6.3 L10.15 -4.95 2.45 3.5 -1.4 2.3 -1.9 -6.45 -6.65 3.15 Q-7.6 9.1 -11.65 11.2 L-9.35 17.15 -6.7 15.35 -5.65 14.65 -3.15 12.95 -1.9 16.55 0.45 13.45 4.1 17.3 4.75 18.05 Q1.8 21.85 -1.45 22.05 -5.05 20.75 -6.7 15.35 M-3.7 7.25 Q-4.95 6.45 -6.35 6.2 -6.25 8.55 -5.4 9.85 L-4.3 10.85 Q-2.35 10.8 -1.65 9.1 -2.6 7.95 -3.7 7.25 M4.1 17.3 Q-0.9 21.7 -1.6 17.3 -3.65 20.95 -5.65 14.65" fill="none" stroke="#163d69" stroke-linecap="round" stroke-linejoin="round" stroke-width="0.05"/>
  </g>
</svg>
