<?xml version="1.0" encoding="UTF-8" standalone="no"?>
<svg xmlns:xlink="http://www.w3.org/1999/xlink" height="14.7px" width="10.2px" xmlns="http://www.w3.org/2000/svg">
  <g transform="matrix(1.0, 0.0, 0.0, 1.0, 6.6, 1.35)">
    <path d="M-4.95 2.1 Q-5.45 1.8 -5.45 1.35 -5.45 0.6 -4.15 -0.15 -2.8 -0.9 -0.9 -1.2 L2.25 -1.15 Q3.6 -0.8 3.6 -0.05 3.6 0.7 2.25 1.45 L1.25 1.95 -0.9 2.5 -2.6 2.65 -4.05 2.5 -4.15 2.45 -4.95 2.1" fill="#add3fc" fill-rule="evenodd" stroke="none"/>
    <path d="M-2.6 2.65 L-0.9 2.5 1.25 1.95 Q-5.5 6.15 -3.15 11.4 L-2.1 13.25 -2.05 13.3 -2.0 13.35 -2.1 13.3 Q-6.7 9.5 -4.75 5.25 -3.8 3.45 -2.6 2.65 M-2.05 13.3 L-2.1 13.3 -2.05 13.3" fill="#e90303" fill-rule="evenodd" stroke="none"/>
    <path d="M-4.95 2.1 L-4.15 2.45 -4.05 2.5 -2.6 2.65 Q-3.8 3.45 -4.75 5.25 -6.7 9.5 -2.1 13.3 -7.7 10.65 -6.35 5.45 L-5.15 2.45 -4.95 2.1" fill="#fb0202" fill-rule="evenodd" stroke="none"/>
    <path d="M1.25 1.95 L2.25 1.45 Q3.6 0.7 3.6 -0.05 3.6 -0.8 2.25 -1.15 L-0.9 -1.2 Q-2.8 -0.9 -4.15 -0.15 -5.45 0.6 -5.45 1.35 -5.45 1.8 -4.95 2.1 L-4.15 2.45 -4.05 2.5 -2.6 2.65 -0.9 2.5 1.25 1.95" fill="none" stroke="#950202" stroke-linecap="round" stroke-linejoin="round" stroke-width="0.05"/>
    <path d="M1.25 1.95 Q-5.5 6.15 -3.15 11.4 L-2.1 13.25 -2.05 13.3 -2.1 13.3 Q-7.7 10.65 -6.35 5.45 L-5.15 2.45 -4.95 2.1" fill="none" stroke="#950202" stroke-linecap="round" stroke-linejoin="round" stroke-width="0.05"/>
  </g>
</svg>
