<?xml version="1.0" encoding="UTF-8" standalone="no"?>
<svg xmlns:xlink="http://www.w3.org/1999/xlink" height="18.15px" width="14.1px" xmlns="http://www.w3.org/2000/svg">
  <g transform="matrix(1.0, 0.0, 0.0, 1.0, 3.55, 9.85)">
    <path d="M-3.55 -0.25 Q-2.7 -1.5 -1.3 -0.4 L-3.55 -0.25 M2.9 1.85 Q2.25 0.55 0.4 -0.15 2.5 -0.3 2.9 1.85" fill="#9b5e5e" fill-rule="evenodd" stroke="none"/>
    <path d="M-3.55 -0.25 Q-2.7 -1.5 -1.3 -0.4 L-3.55 -0.25 M2.9 1.85 Q2.5 -0.3 0.4 -0.15 2.25 0.55 2.9 1.85" fill="none" stroke="#4b2e2e" stroke-linecap="round" stroke-linejoin="round" stroke-width="0.05"/>
    <path d="M10.45 -0.5 L10.4 -0.95 10.25 -2.9 Q10.15 -4.5 8.6 -4.2 9.6 -6.95 5.9 -5.5 4.85 -7.95 3.2 -6.1 0.15 -7.15 -0.45 -4.4 -1.15 -5.7 -1.8 -5.35 L-2.25 -4.85 Q-2.95 -3.75 -3.2 -2.3 L-3.25 -2.25 -3.4 -2.0 -3.4 -3.6 -3.2 -5.8 -2.9 -6.75 -2.3 -7.8 Q-1.45 -9.15 -0.5 -7.35 0.1 -10.1 3.15 -9.05 4.8 -10.9 5.85 -8.45 9.55 -9.9 8.55 -7.15 10.1 -7.45 10.2 -5.85 L10.35 -3.9 10.4 -3.25 10.45 -2.85 10.55 -0.8 10.5 -0.5 10.45 -0.5" fill="#b98e8e" fill-rule="evenodd" stroke="none"/>
    <path d="M-3.2 -2.3 Q-2.95 -3.75 -2.25 -4.85 L-1.8 -5.35 Q-1.15 -5.7 -0.45 -4.4 0.15 -7.15 3.2 -6.1 4.85 -7.95 5.9 -5.5 9.6 -6.95 8.6 -4.2 10.15 -4.5 10.25 -2.9 L10.4 -0.95 10.45 -0.5 10.5 -0.5 10.45 -0.3 10.4 0.1 10.4 0.15 Q9.8 2.6 8.75 3.85 L8.55 4.0 8.1 4.35 Q8.7 2.6 8.25 1.65 7.4 0.85 6.45 2.1 5.8 4.3 6.15 6.1 L6.15 6.55 Q5.15 8.15 3.85 8.3 6.15 5.3 4.5 1.95 7.6 -4.2 -1.0 -1.6 -1.5 -2.2 -1.95 -2.45 L-3.0 -2.5 -3.2 -2.3" fill="#9b5e5e" fill-rule="evenodd" stroke="none"/>
    <path d="M-3.2 -2.3 L-3.0 -2.5 -1.95 -2.45 Q-1.5 -2.2 -1.0 -1.6 7.6 -4.2 4.5 1.95 6.15 5.3 3.85 8.3 5.15 8.15 6.15 6.55 L6.15 6.1 Q5.8 4.3 6.45 2.1 7.4 0.85 8.25 1.65 8.7 2.6 8.1 4.35 L8.55 4.0 8.75 3.85 Q9.8 2.6 10.4 0.15 L10.4 0.1 10.45 -0.3 10.5 -0.5 10.45 -0.5 M10.4 -3.25 L10.35 -3.9 10.2 -5.85 Q10.1 -7.45 8.55 -7.15 9.55 -9.9 5.85 -8.45 4.8 -10.9 3.15 -9.05 0.1 -10.1 -0.5 -7.35 -1.45 -9.15 -2.3 -7.8 L-2.9 -6.75 -3.2 -5.8 -3.4 -3.6 -3.4 -2.0 -3.25 -2.25 -3.2 -2.3" fill="none" stroke="#4b2e2e" stroke-linecap="round" stroke-linejoin="round" stroke-width="0.05"/>
    <path d="M10.5 -0.5 L10.55 -0.8 10.45 -2.85 10.4 -3.25" fill="none" stroke="#4b2e2e" stroke-linecap="round" stroke-linejoin="round" stroke-width="0.05"/>
  </g>
</svg>
