<?xml version="1.0" encoding="UTF-8" standalone="no"?>
<svg xmlns:xlink="http://www.w3.org/1999/xlink" height="35.5px" width="46.55px" xmlns="http://www.w3.org/2000/svg">
  <g transform="matrix(1.0, 0.0, 0.0, 1.0, 23.3, 19.7)">
    <path d="M7.2 -19.7 L13.85 -16.8 13.8 -16.8 5.5 -15.0 7.2 -19.7 M2.55 -7.0 L0.7 -4.4 -1.15 -6.7 2.55 -7.0 M-1.05 -17.65 L-1.05 -17.55 -7.05 -10.9 -12.4 -12.5 -9.2 -16.05 -1.05 -17.65 M-8.2 4.05 L-4.9 4.3 -14.35 6.5 -14.4 6.55 -17.65 3.35 -14.0 3.65 -10.7 3.9 -8.2 4.05" fill="#bebebe" fill-rule="evenodd" stroke="none"/>
    <path d="M11.6 -12.35 L14.25 -14.55 20.3 -11.2 8.75 -10.1 11.6 -12.35 M19.45 6.55 L17.95 8.55 7.8 7.35 11.5 -6.2 14.15 -6.75 17.2 -7.35 17.25 -7.35 19.4 -0.9 13.75 -0.9 18.75 3.75 19.45 6.55 M2.5 -9.6 L-2.95 -8.25 -0.95 -13.4 3.1 -13.8 2.55 -9.6 2.5 -9.6 M-1.15 5.7 L0.0 14.5 -0.05 14.55 -7.85 11.0 -1.15 5.7 M5.1 14.15 L5.05 14.15 6.75 8.9 6.85 8.9 10.25 10.35 10.35 10.4 5.1 14.15 M-18.6 -6.1 L-16.55 -3.4 -16.55 -3.35 -20.7 2.1 -20.9 2.1 -23.3 -4.0 -19.15 -6.1 -18.75 -6.3 -18.6 -6.1 M-12.4 -12.5 L-7.05 -10.9 -7.05 -8.05 -9.0 -6.9 -12.5 -12.4 -12.4 -12.5 M-16.45 2.45 L-9.05 -3.7 -10.7 3.9 -14.0 3.65 -16.45 2.45 M-10.1 11.45 L-10.15 11.5 -17.65 7.6 -17.65 3.35 -14.4 6.55 -14.25 6.65 -10.1 11.45" fill="#8f8f8f" fill-rule="evenodd" stroke="none"/>
    <path d="M13.8 -16.8 L11.6 -12.35 8.75 -10.1 20.3 -11.2 20.6 -2.75 20.4 -2.85 23.25 1.55 19.45 6.55 18.75 3.75 13.75 -0.9 19.4 -0.9 17.25 -7.35 17.2 -7.35 14.15 -6.75 11.25 -8.55 6.9 -3.5 2.55 -9.55 2.55 -9.6 3.1 -13.8 5.5 -15.0 13.8 -16.8 M0.7 -4.4 L2.55 -7.0 8.7 -1.1 5.8 3.35 0.6 -0.2 2.55 -2.05 0.7 -4.4 M17.25 -7.35 L17.45 -7.4 20.4 -2.85 17.45 -7.4 17.25 -7.35 M11.25 -8.55 L8.75 -10.1 11.25 -8.55 M1.45 1.2 L5.8 8.25 0.0 14.5 -1.15 5.7 1.45 1.2 M5.1 14.15 L10.35 10.4 10.35 10.35 10.25 10.35 6.85 8.9 11.2 8.35 14.15 11.1 10.1 15.8 5.1 14.15 M-20.95 -5.95 L-16.9 -7.8 -16.15 -6.1 -18.6 -6.1 -18.75 -6.3 -19.15 -6.1 -20.95 -5.95 M-16.55 -3.35 L-16.55 1.65 -20.7 2.1 -16.55 -3.35 M-7.05 -10.9 L-1.05 -17.55 -4.0 -9.8 -7.05 -8.05 -7.05 -10.9 M-9.05 -3.7 L-10.9 -5.65 -4.85 -6.65 -4.15 -1.35 -8.2 4.05 -10.7 3.9 -9.05 -3.7 M-4.9 4.3 L-10.1 11.45 -14.25 6.65 -14.35 6.5 -4.9 4.3" fill="#757575" fill-rule="evenodd" stroke="none"/>
    <path d="M-0.95 -13.4 L-0.55 -14.4 7.2 -19.7 5.5 -15.0 3.1 -13.8 -0.95 -13.4 M-1.15 -6.7 L0.7 -4.4 2.55 -2.05 0.6 -0.2 -2.15 -2.1 -1.15 -6.7 M1.45 1.2 L-1.15 5.7 -7.85 11.0 -2.65 1.2 1.45 1.2 M-20.95 -5.95 L-18.8 -10.9 -13.7 -12.05 -12.4 -6.55 -15.2 -3.75 -16.15 -6.1 -16.9 -7.8 -20.95 -5.95 M-16.45 2.45 L-15.05 -2.05 -10.95 -5.7 -10.9 -5.65 -9.05 -3.7 -16.45 2.45" fill="#a8a8a8" fill-rule="evenodd" stroke="none"/>
    <path d="M7.2 -19.7 L13.85 -16.8 13.8 -16.8 11.6 -12.35 14.25 -14.55 20.3 -11.2 20.6 -2.75 20.4 -2.85 23.25 1.55 19.45 6.55 17.95 8.55 7.8 7.35 11.5 -6.2 14.15 -6.75 11.25 -8.55 6.9 -3.5 2.55 -9.55 2.5 -9.6 -2.95 -8.25 -0.95 -13.4 -0.55 -14.4 7.2 -19.7 M2.55 -9.55 L2.55 -9.6 M2.55 -7.0 L-1.15 -6.7 -2.15 -2.1 0.6 -0.2 5.8 3.35 8.7 -1.1 2.55 -7.0 M17.25 -7.35 L17.2 -7.35 14.15 -6.75 M20.4 -2.85 L17.45 -7.4 17.25 -7.35 M11.6 -12.35 L8.75 -10.1 11.25 -8.55 M0.0 14.5 L5.8 8.25 1.45 1.2 -2.65 1.2 -7.85 11.0 -0.05 14.55 0.0 14.5 M6.85 8.9 L6.75 8.9 5.05 14.15 5.1 14.15 10.1 15.8 14.15 11.1 11.2 8.35 6.85 8.9 M10.35 10.4 L10.25 10.35 10.35 10.35 M-16.15 -6.1 L-15.2 -3.75 -12.4 -6.55 -13.7 -12.05 -18.8 -10.9 -20.95 -5.95 -19.15 -6.1 -23.3 -4.0 M-16.15 -6.1 L-18.6 -6.1 -16.55 -3.4 -16.55 -3.35 -16.55 1.65 -20.7 2.1 -20.9 2.1 M-1.05 -17.65 L-9.2 -16.05 -12.4 -12.5 -12.5 -12.4 -9.0 -6.9 -7.05 -8.05 -4.0 -9.8 -1.05 -17.55 -1.0 -17.65 -1.05 -17.65 M-18.6 -6.1 L-18.75 -6.3 -19.15 -6.1 M-10.9 -5.65 L-10.95 -5.7 -15.05 -2.05 -16.45 2.45 -14.0 3.65 -17.65 3.35 -17.65 7.6 -10.15 11.5 -10.1 11.45 -4.9 4.3 -8.2 4.05 -10.7 3.9 -14.0 3.65 M-10.9 -5.65 L-4.85 -6.65 -4.15 -1.35 -8.2 4.05 M-14.35 6.5 L-14.25 6.65" fill="none" stroke="#333333" stroke-linecap="round" stroke-linejoin="round" stroke-width="0.05"/>
    <path d="M-20.9 2.1 L-23.3 -4.0" fill="none" stroke="#333333" stroke-linecap="round" stroke-linejoin="round" stroke-width="0.05"/>
  </g>
</svg>
