<?xml version="1.0" encoding="UTF-8" standalone="no"?>
<svg xmlns:xlink="http://www.w3.org/1999/xlink" height="20.65px" width="10.2px" xmlns="http://www.w3.org/2000/svg">
  <g transform="matrix(1.0, 0.0, 0.0, 1.0, -14.85, 17.4)">
    <path d="M15.0 -15.0 Q24.45 -4.9 24.15 3.25 26.2 -6.35 17.95 -16.6 16.8 -16.35 15.7 -16.1 15.2 -15.7 15.0 -15.0" fill="#2668a8" fill-rule="evenodd" stroke="none">
      <animate attributeName="fill" dur="2s" repeatCount="indefinite" values="#2668a8;#93bce7"/>
      <animate attributeName="fill-opacity" dur="2s" repeatCount="indefinite" values="1.0;1.0"/>
      <animate attributeName="d" dur="2s" repeatCount="indefinite" values="M15.0 -15.0 Q24.45 -4.9 24.15 3.25 26.2 -6.35 17.95 -16.6 16.8 -16.35 15.7 -16.1 15.2 -15.7 15.0 -15.0;M14.85 -16.35 Q14.95 -16.3 15.05 -16.25 24.25 -9.6 24.9 -0.6 26.15 -11.45 15.5 -17.4 15.15 -16.85 14.85 -16.35"/>
    </path>
    <path d="M15.0 -15.0 Q15.2 -15.7 15.7 -16.1 16.8 -16.35 17.95 -16.6 26.2 -6.35 24.15 3.25 24.45 -4.9 15.0 -15.0 15.2 -15.7 15.7 -16.1 16.8 -16.35 17.95 -16.6 26.2 -6.35 24.15 3.25 24.45 -4.9 15.0 -15.0" fill="none" stroke="#434667" stroke-linecap="round" stroke-linejoin="round" stroke-width="0.05">
      <animate attributeName="stroke" dur="2s" repeatCount="indefinite" values="#434667;#93bce7"/>
      <animate attributeName="stroke-width" dur="2s" repeatCount="indefinite" values="0.05;0.05"/>
      <animate attributeName="fill-opacity" dur="2s" repeatCount="indefinite" values="1.0;1.0"/>
      <animate attributeName="d" dur="2s" repeatCount="indefinite" values="M15.0 -15.0 Q15.2 -15.7 15.7 -16.1 16.8 -16.35 17.95 -16.6 26.2 -6.35 24.15 3.25 24.45 -4.9 15.0 -15.0 15.2 -15.7 15.7 -16.1 16.8 -16.35 17.95 -16.6 26.2 -6.35 24.15 3.25 24.45 -4.9 15.0 -15.0;M14.85 -16.35 Q15.15 -16.85 15.5 -17.4 26.15 -11.45 24.9 -0.6 24.25 -9.6 15.05 -16.25 14.95 -16.3 14.85 -16.35 15.15 -16.85 15.5 -17.4 26.15 -11.45 24.9 -0.6 24.25 -9.6 15.05 -16.25 14.95 -16.3 14.85 -16.35"/>
    </path>
  </g>
</svg>
