<?xml version="1.0" encoding="UTF-8" standalone="no"?>
<svg xmlns:xlink="http://www.w3.org/1999/xlink" height="21.9px" width="10.75px" xmlns="http://www.w3.org/2000/svg">
  <g transform="matrix(1.0, 0.0, 0.0, 1.0, -14.7, 18.95)">
    <path d="M14.7 -17.4 L15.1 -17.2 Q24.1 -13.3 25.4 -3.35 26.2 -15.35 17.4 -18.95 L15.3 -18.4 Q15.0 -17.9 14.7 -17.4" fill="#c00101" fill-rule="evenodd" stroke="none">
      <animate attributeName="fill" dur="2s" repeatCount="indefinite" values="#c00101;#2668a9"/>
      <animate attributeName="fill-opacity" dur="2s" repeatCount="indefinite" values="1.0;1.0"/>
      <animate attributeName="d" dur="2s" repeatCount="indefinite" values="M14.7 -17.4 L15.1 -17.2 Q24.1 -13.3 25.4 -3.35 26.2 -15.35 17.4 -18.95 L15.3 -18.4 Q15.0 -17.9 14.7 -17.4;M15.0 -15.0 L15.0 -15.0 Q24.45 -4.9 24.25 2.95 26.05 -6.4 17.95 -16.6 L15.7 -16.1 Q15.2 -15.7 15.0 -15.0"/>
    </path>
    <path d="M14.7 -17.4 Q15.0 -17.9 15.3 -18.4 L17.4 -18.95 Q26.2 -15.35 25.4 -3.35 24.1 -13.3 15.1 -17.2 M14.7 -17.4 Q15.0 -17.9 15.3 -18.4 L17.4 -18.95 Q26.2 -15.35 25.4 -3.35 24.1 -13.3 15.1 -17.2 L14.7 -17.4" fill="none" stroke="#a20915" stroke-linecap="round" stroke-linejoin="round" stroke-width="0.05">
      <animate attributeName="stroke" dur="2s" repeatCount="indefinite" values="#a20915;#434668"/>
      <animate attributeName="stroke-width" dur="2s" repeatCount="indefinite" values="0.05;0.05"/>
      <animate attributeName="fill-opacity" dur="2s" repeatCount="indefinite" values="1.0;1.0"/>
      <animate attributeName="d" dur="2s" repeatCount="indefinite" values="M14.7 -17.4 Q15.0 -17.9 15.3 -18.4 L17.4 -18.95 Q26.2 -15.35 25.4 -3.35 24.1 -13.3 15.1 -17.2 M14.7 -17.4 Q15.0 -17.9 15.3 -18.4 L17.4 -18.95 Q26.2 -15.35 25.4 -3.35 24.1 -13.3 15.1 -17.2 L14.7 -17.4;M15.0 -15.0 Q15.2 -15.7 15.7 -16.1 L17.95 -16.6 Q26.05 -6.4 24.25 2.95 24.45 -4.9 15.0 -15.0 M15.0 -15.0 Q15.2 -15.7 15.7 -16.1 L17.95 -16.6 Q26.05 -6.4 24.25 2.95 24.45 -4.9 15.0 -15.0 L15.0 -15.0"/>
    </path>
  </g>
</svg>
