<?xml version="1.0" encoding="UTF-8" standalone="no"?>
<svg xmlns:xlink="http://www.w3.org/1999/xlink" height="26.95px" width="5.75px" xmlns="http://www.w3.org/2000/svg">
  <g transform="matrix(1.0, 0.0, 0.0, 1.0, 3.8, 29.2)">
    <path d="M-3.55 -18.25 L-3.65 -20.25 -3.8 -24.4 Q-3.75 -27.8 -2.55 -29.15 -0.5 -29.6 0.7 -24.9 L1.35 -20.25 1.55 -18.25 Q-0.9 -17.35 -3.55 -18.25" fill="#ac7d7d" fill-rule="evenodd" stroke="none"/>
    <path d="M1.55 -18.25 Q2.15 -16.4 1.9 -14.1 L1.9 -13.7 1.9 -13.4 1.85 -9.35 1.8 -7.9 1.6 -3.8 Q-0.4 -0.75 -2.85 -3.65 L-3.0 -6.25 -3.15 -9.35 -3.4 -14.1 -3.35 -14.1 Q-4.0 -16.5 -3.55 -18.25 -0.9 -17.35 1.55 -18.25 M-3.35 -14.1 Q-0.4 -12.2 1.9 -14.1 -0.4 -12.2 -3.35 -14.1" fill="#246f8a" fill-rule="evenodd" stroke="none"/>
    <path d="M1.55 -18.25 Q2.15 -16.4 1.9 -14.1 L1.9 -13.7 1.9 -13.4 1.85 -9.35 1.8 -7.9 1.6 -3.8 Q-0.4 -0.75 -2.85 -3.65 L-3.0 -6.25 -3.15 -9.35 -3.4 -14.1 M-3.35 -14.1 Q-4.0 -16.5 -3.55 -18.25 L-3.65 -20.25 -3.8 -24.4 Q-3.75 -27.8 -2.55 -29.15 -0.5 -29.6 0.7 -24.9 L1.35 -20.25 1.55 -18.25 Q-0.9 -17.35 -3.55 -18.25 M1.9 -14.1 Q-0.4 -12.2 -3.35 -14.1" fill="none" stroke="#2b3f6c" stroke-linecap="round" stroke-linejoin="round" stroke-width="0.05"/>
  </g>
</svg>
