<?xml version="1.0" encoding="UTF-8" standalone="no"?>
<svg xmlns:xlink="http://www.w3.org/1999/xlink" height="30.9px" width="16.7px" xmlns="http://www.w3.org/2000/svg">
  <g transform="matrix(1.0, 0.0, 0.0, 1.0, 10.0, 13.15)">
    <path d="M-0.55 -13.15 L0.1 -13.05 0.1 -13.1 0.45 -13.05 0.4 -12.55 Q0.35 -11.1 0.6 -9.65 L-0.3 -9.25 -0.95 -10.95 Q-3.4 -11.25 -3.8 -11.8 L-3.8 -12.25 -3.85 -12.95 -2.75 -13.1 -1.35 -13.15 -0.55 -13.15 M2.45 -7.9 Q2.45 -7.9 2.55 -7.85 3.65 -7.45 4.95 -6.75 L5.0 -6.75 5.35 -6.55 6.7 -5.8 6.7 -5.75 6.2 -1.4 5.5 1.2 Q4.85 1.6 4.1 -0.2 L3.85 -1.05 3.8 -1.2 Q3.1 -2.6 2.8 -4.15 2.35 -5.95 2.45 -7.9 M2.5 8.8 L2.75 9.15 2.5 8.85 2.5 8.8 M0.15 -4.75 L0.2 -4.75 0.2 -4.7 0.15 -4.75" fill="#ffd0ae" fill-rule="evenodd" stroke="none"/>
    <path d="M-3.8 -11.8 Q-3.4 -11.25 -0.95 -10.95 L-0.3 -9.25 Q-3.4 -7.65 -3.8 -9.35 L-3.9 -9.8 -3.85 -9.85 -3.9 -9.85 -3.85 -10.15 -3.8 -11.8 M-5.05 16.4 L-5.1 16.4 -5.05 16.35 -5.05 16.4 M-8.85 -3.85 L-8.8 -3.95 -8.75 -3.95 -8.35 -5.4 -8.5 -8.4 -8.5 -8.45 -6.05 -8.95 -5.1 -9.0 -5.1 -8.95 -5.05 -8.95 -4.95 -9.0 -4.9 -9.0 -4.7 -9.0 -7.2 -5.75 -7.25 -5.75 -8.0 -4.8 -8.75 -3.95 -8.85 -3.85 M-4.0 -8.9 L-3.95 -8.9 -3.95 -8.8 -4.0 -8.8 -4.0 -8.9" fill="#ffdfc8" fill-rule="evenodd" stroke="none"/>
    <path d="M-5.1 -9.0 L-4.95 -9.0 -5.05 -8.95 -5.1 -8.95 -5.1 -9.0 -5.05 -8.95 -5.1 -9.0" fill="#f5dfc5" fill-rule="evenodd" stroke="none"/>
    <path d="M-3.95 -8.8 L-3.9 -8.6 -3.95 -8.65 -3.95 -8.8" fill="#d6f8f4" fill-rule="evenodd" stroke="none"/>
    <path d="M5.05 13.1 L5.35 13.7 5.8 15.4 3.85 16.35 2.2 16.8 2.1 16.8 0.0 17.05 Q4.5 14.4 5.05 13.1 M-5.05 16.35 L-5.65 16.1 -5.95 16.0 Q-7.2 15.35 -7.8 14.55 -7.85 13.45 -7.5 12.85 -6.65 14.5 -5.05 16.35 M-3.9 -9.8 L-3.9 -9.85 -3.85 -9.85 -3.9 -9.8" fill="#de8db3" fill-rule="evenodd" stroke="none"/>
    <path d="M-7.0 11.25 L-6.25 9.6 -6.1 9.35 -5.9 9.9 Q-5.3 11.35 -5.15 13.4 -5.95 11.8 -7.0 11.25 M1.55 10.25 L1.6 10.3 2.1 11.45 2.3 12.15 Q1.3 12.8 0.9 13.3 L0.2 14.1 Q0.5 12.0 1.5 10.3 L1.55 10.25" fill="#666666" fill-rule="evenodd" stroke="none"/>
    <path d="M-9.4 -3.1 L-9.35 -3.25 -9.2 -3.3 -9.4 -3.1" fill="#ffffff" fill-rule="evenodd" stroke="none"/>
    <path d="M1.0 -8.5 L0.95 -8.4 0.9 -8.5 1.0 -8.5" fill="#b1f1e7" fill-rule="evenodd" stroke="none"/>
    <path d="M4.25 11.3 Q5.2 11.9 5.05 13.05 L5.05 13.1 Q4.5 14.4 0.0 17.05 -0.45 15.25 -0.1 14.65 L0.2 14.1 0.9 13.3 Q1.3 12.8 2.3 12.15 L3.3 11.6 4.25 11.3 M-5.0 16.4 L-5.05 16.4 -5.05 16.35 Q-6.65 14.5 -7.5 12.85 L-7.55 12.8 Q-7.7 11.55 -7.0 11.25 -5.95 11.8 -5.15 13.4 L-4.9 14.0 -4.75 15.15 Q-4.65 15.95 -5.0 16.4 M-4.0 -8.9 Q-4.3 -9.6 -3.9 -9.8 L-3.8 -9.35 Q-3.4 -7.65 -0.3 -9.25 L-0.3 -9.2 -0.1 -8.3 Q-3.5 -6.7 -3.9 -8.6 L-3.95 -8.8 -3.95 -8.9 -4.0 -8.9" fill="#60e1cd" fill-rule="evenodd" stroke="none"/>
    <path d="M-0.3 -9.25 L0.6 -9.65 Q1.05 -9.25 0.8 -8.8 L-0.1 -8.3 -0.3 -9.2 -0.3 -9.25" fill="#27d8bc" fill-rule="evenodd" stroke="none"/>
    <path d="M5.5 1.2 L5.5 1.25 5.45 1.35 3.35 6.5 2.8 5.9 Q2.4 5.4 2.3 4.5 L3.15 3.8 3.3 3.6 3.9 2.55 4.2 0.55 4.2 0.45 4.1 -0.2 Q4.85 1.6 5.5 1.2 M5.4 1.5 L5.4 1.75 5.35 1.8 5.4 1.5 M3.2 9.7 L3.35 9.9 3.55 10.15 4.25 11.3 3.3 11.6 2.3 12.15 2.1 11.45 1.6 10.3 1.55 10.25 2.25 10.05 2.4 10.0 3.2 9.7" fill="#454545" fill-rule="evenodd" stroke="none"/>
    <path d="M0.0 17.05 L-2.1 17.05 -2.3 17.05 -5.0 16.4 Q-4.65 15.95 -4.75 15.15 L-4.9 14.0 -5.15 13.4 Q-5.3 11.35 -5.9 9.9 L-6.1 9.35 -5.65 8.65 -5.6 8.45 -4.15 8.35 -5.65 8.4 -5.45 7.25 -5.45 7.2 Q-5.1 5.9 -4.0 5.65 L-3.9 5.65 -3.45 5.6 -3.1 5.55 -2.8 5.6 -2.75 5.6 Q-1.6 5.7 -0.45 6.85 L0.2 7.5 Q-0.05 7.55 0.1 7.75 L0.15 7.8 0.15 7.85 0.25 8.05 0.6 8.6 1.0 9.2 1.0 9.25 1.05 9.3 1.15 9.45 1.15 9.5 1.2 9.6 1.45 10.1 1.55 10.25 1.5 10.3 Q0.5 12.0 0.2 14.1 L-0.1 14.65 Q-0.45 15.25 0.0 17.05 M-9.9 0.15 L-9.95 -0.25 -9.95 -0.55 -9.95 -1.1 Q-9.95 -2.1 -9.6 -2.7 L-9.4 -3.1 -9.2 -3.3 -9.2 -3.35 -8.85 -3.85 -8.75 -3.95 -8.0 -4.8 -7.25 -5.75 -7.2 -5.75 -4.7 -9.0 -4.5 -9.0 -4.45 -9.0 -4.0 -8.9 -4.0 -8.8 -3.95 -8.8 -3.95 -8.65 -3.9 -8.6 Q-3.5 -6.7 -0.1 -8.3 L0.05 -7.55 0.15 -7.0 0.25 -5.45 -2.0 -5.3 -2.15 -5.3 -2.45 -5.35 Q-2.95 -5.35 -1.65 -4.85 L-0.7 -4.6 0.15 -4.75 0.2 -4.7 0.95 -4.05 0.95 -4.0 2.3 -2.1 2.3 -2.0 2.35 -1.85 2.35 -1.7 2.85 0.9 2.85 1.2 2.6 2.35 Q2.1 3.2 0.5 3.5 L-2.1 3.4 -4.0 2.4 -4.05 2.4 -4.15 2.35 -4.45 2.15 Q-5.45 1.45 -6.2 1.45 L-7.1 1.65 -8.2 1.95 -8.4 2.05 -8.45 2.05 -9.35 1.2 -9.9 0.15 M-4.25 -7.9 L-3.95 -8.6 -3.95 -8.65 -3.95 -8.6 -4.25 -7.9 M-5.05 16.35 L-5.05 16.4 -5.05 16.35" fill="#ffe6f2" fill-rule="evenodd" stroke="none"/>
    <path d="M1.0 -8.5 L2.4 -8.05 2.4 -7.9 2.45 -7.9 Q2.35 -5.95 2.8 -4.15 3.1 -2.6 3.8 -1.2 L3.85 -1.05 4.1 -0.2 4.2 0.45 4.2 0.55 3.9 2.55 3.3 3.6 3.15 3.8 2.3 4.5 Q2.4 5.4 2.8 5.9 L3.35 6.5 2.9 7.35 2.8 7.9 2.5 8.8 2.5 8.85 2.75 9.15 3.2 9.7 2.4 10.0 2.25 10.05 1.55 10.25 1.45 10.1 1.2 9.6 1.15 9.5 1.15 9.45 1.05 9.3 1.0 9.25 1.0 9.2 0.6 8.6 0.25 8.05 0.15 7.85 0.15 7.8 0.1 7.75 Q-0.05 7.55 0.2 7.5 L-0.45 6.85 Q-1.6 5.7 -2.75 5.6 L-2.8 5.6 -3.1 5.55 -3.45 5.6 -3.9 5.65 -4.0 5.65 Q-5.1 5.9 -5.45 7.2 L-5.45 7.25 -5.65 8.4 -5.8 7.3 -5.85 7.25 -5.85 7.2 -6.0 6.8 -7.05 4.25 -7.15 3.95 -7.35 3.2 Q-8.2 2.9 -8.85 2.3 L-9.1 1.95 -9.2 1.85 -9.35 1.55 -9.55 1.25 -9.9 0.15 -9.35 1.2 -8.45 2.05 -8.4 2.05 -8.2 1.95 -7.1 1.65 -6.2 1.45 Q-5.45 1.45 -4.45 2.15 L-4.15 2.35 -4.05 2.4 -4.0 2.4 -2.1 3.4 0.5 3.5 Q2.1 3.2 2.6 2.35 L2.85 1.2 2.85 0.9 2.35 -1.7 2.35 -1.85 2.3 -2.0 2.3 -2.1 0.95 -4.0 0.95 -4.05 0.2 -4.7 0.2 -4.75 0.15 -4.75 -0.7 -4.6 -1.65 -4.85 Q-2.95 -5.35 -2.45 -5.35 L-2.15 -5.3 -2.0 -5.3 0.25 -5.45 0.15 -7.0 0.05 -7.55 -0.1 -8.3 0.8 -8.8 0.9 -8.5 0.95 -8.4 1.0 -8.5 M1.3 -7.2 L1.0 -7.95 0.9 -8.25 0.95 -8.4 0.9 -8.25 1.0 -7.95 1.3 -7.2 M2.3 4.5 Q1.35 5.15 0.25 5.35 L-0.4 5.35 -1.2 5.2 -2.05 4.85 -2.95 4.15 Q-4.2 3.15 -6.15 3.25 L-6.5 3.25 -6.8 3.25 -7.1 3.25 -7.35 3.2 -7.1 3.25 -6.8 3.25 -6.5 3.25 -6.15 3.25 Q-4.2 3.15 -2.95 4.15 L-2.05 4.85 -1.2 5.2 -0.4 5.35 0.25 5.35 Q1.35 5.15 2.3 4.5" fill="#ffd9ec" fill-rule="evenodd" stroke="none"/>
    <path d="M-0.55 -13.15 L0.1 -13.05 0.1 -13.1 -0.55 -13.15 -1.35 -13.15 -2.75 -13.1 -3.85 -12.95 -3.8 -12.25 -3.8 -11.8 -3.85 -10.15 -3.9 -9.85 M0.6 -9.65 Q0.35 -11.1 0.4 -12.55 L0.45 -13.05 0.1 -13.1 M2.45 -7.9 Q2.45 -7.9 2.55 -7.85 3.65 -7.45 4.95 -6.75 L5.0 -6.75 5.35 -6.55 6.7 -5.8 M6.2 -1.4 L5.5 1.2 M3.2 9.7 L3.35 9.9 M-5.05 16.4 L-5.1 16.4 -5.05 16.35 M-8.85 -3.85 L-8.8 -3.95 M-8.75 -3.95 L-8.35 -5.4 M-8.5 -8.4 L-8.5 -8.45 -6.05 -8.95 -5.1 -9.0 -4.95 -9.0 -4.9 -9.0 -4.7 -9.0 -4.5 -9.0 M-4.95 -9.0 L-5.05 -8.95 -5.1 -8.95 M-5.1 -9.0 L-5.05 -8.95" fill="none" stroke="#d7995e" stroke-linecap="round" stroke-linejoin="round" stroke-width="0.05"/>
    <path d="M4.25 11.3 Q5.2 11.9 5.05 13.05 L5.05 13.1 Q4.5 14.4 0.0 17.05 -0.45 15.25 -0.1 14.65 L0.2 14.1 0.9 13.3 Q1.3 12.8 2.3 12.15 L3.3 11.6 4.25 11.3 M-5.0 16.4 L-5.05 16.4 -5.05 16.35 Q-6.65 14.5 -7.5 12.85 L-7.6 12.75 -7.55 12.8 Q-7.7 11.55 -7.0 11.25 -5.95 11.8 -5.15 13.4 -5.3 11.35 -5.9 9.9 L-6.1 9.35 M1.55 10.25 L1.5 10.3 Q0.5 12.0 0.2 14.1 M-5.15 13.4 L-4.9 14.0 -4.75 15.15 Q-4.65 15.95 -5.0 16.4 M-7.5 12.85 L-7.55 12.8" fill="none" stroke="#1d9e8a" stroke-linecap="round" stroke-linejoin="round" stroke-width="0.05"/>
    <path d="M5.05 13.1 L5.35 13.7 5.8 15.4 M-7.8 14.55 Q-7.85 13.45 -7.5 12.85" fill="none" stroke="#b03573" stroke-linecap="round" stroke-linejoin="round" stroke-width="0.05"/>
    <path d="M-0.3 -9.25 L0.6 -9.65 Q1.05 -9.25 0.8 -8.8 L-0.1 -8.3 Q-3.5 -6.7 -3.9 -8.6 L-3.95 -8.8 -3.95 -8.9 -4.0 -8.9 Q-4.3 -9.6 -3.9 -9.8 L-3.9 -9.85 -3.85 -9.85 -3.9 -9.8 -3.8 -9.35 Q-3.4 -7.65 -0.3 -9.25 L-0.3 -9.2 M1.0 -8.5 L2.4 -8.05 2.4 -7.9 M5.4 1.5 L5.4 1.75 M5.4 1.5 L5.45 1.35 M-4.5 -9.0 L-4.45 -9.0 -4.0 -8.9 -4.0 -8.8 M1.0 -8.5 L0.9 -8.5 0.95 -8.4 0.9 -8.25 1.0 -7.95 1.3 -7.2 M0.9 -8.5 L0.8 -8.8 M-3.95 -8.65 L-3.95 -8.6 -4.25 -7.9 M-3.95 -8.65 L-3.95 -8.8 M-4.7 -9.0 L-7.2 -5.75" fill="none" stroke="#a0a0a0" stroke-linecap="round" stroke-linejoin="round" stroke-width="0.05"/>
    <path d="M5.5 1.25 L5.55 1.2 5.4 1.5 5.35 1.8 5.4 1.75 M5.45 1.35 L3.35 6.5 M3.35 9.9 L3.55 10.15 4.25 11.3 M-7.0 11.25 L-6.25 9.6 M5.5 1.25 L5.45 1.35" fill="none" stroke="#000000" stroke-linecap="round" stroke-linejoin="round" stroke-width="0.05"/>
    <path d="M5.5 1.2 L5.5 1.25 M3.35 6.5 L2.9 7.35 M-5.85 7.2 L-6.0 6.8 -7.05 4.25 -7.15 3.95 -7.35 3.2 Q-8.2 2.9 -8.85 2.3 L-9.1 1.95 -9.2 1.85 -9.35 1.55 -9.55 1.25 -9.9 0.15 -9.95 -0.25 -9.95 -0.55 -9.95 -1.1 Q-9.95 -2.1 -9.6 -2.7 L-9.4 -3.1 -9.35 -3.25 M-9.2 -3.3 L-9.2 -3.35 -8.85 -3.85 -8.75 -3.95 -8.0 -4.8 -7.25 -5.75 M2.45 -7.9 Q2.35 -5.95 2.8 -4.15 3.1 -2.6 3.8 -1.2 L3.85 -1.05 4.1 -0.2 Q4.85 1.6 5.5 1.2 M4.1 -0.2 L4.2 0.45 4.2 0.55 3.9 2.55 3.3 3.6 3.15 3.8 2.3 4.5 Q2.4 5.4 2.8 5.9 L3.35 6.5 M-7.35 3.2 L-7.1 3.25 -6.8 3.25 -6.5 3.25 -6.15 3.25 Q-4.2 3.15 -2.95 4.15 L-2.05 4.85 -1.2 5.2 -0.4 5.35 0.25 5.35 Q1.35 5.15 2.3 4.5 M-9.4 -3.1 L-9.2 -3.3" fill="none" stroke="#fe67b3" stroke-linecap="round" stroke-linejoin="round" stroke-width="0.05"/>
    <path d="M2.9 7.35 L2.8 7.9 2.5 8.8 2.75 9.15 3.2 9.7 M-6.1 9.35 L-5.65 8.65 -5.6 8.45 M-5.65 8.4 L-5.8 7.3 M2.5 8.8 L2.5 8.85" fill="none" stroke="#fe67b3" stroke-linecap="round" stroke-linejoin="round" stroke-width="0.05"/>
    <path d="M-6.25 9.6 L-6.1 9.35" fill="none" stroke="#272727" stroke-linecap="round" stroke-linejoin="round" stroke-width="0.05"/>
    <path d="M-4.6 -4.25 L-4.65 -4.25 -4.75 -4.55 -4.6 -4.9 -4.3 -5.0 -4.05 -4.9 -4.0 -4.85 -3.95 -4.6 -4.05 -4.3 -4.3 -4.2 -4.6 -4.25" fill="#ffffff" fill-rule="evenodd" stroke="none"/>
    <path d="M-5.1 -5.05 L-4.95 -5.25 Q-4.55 -5.8 -3.9 -5.85 -3.25 -5.9 -2.75 -5.35 L-2.4 -4.7 -2.3 -4.05 Q-2.25 -3.3 -2.7 -2.7 L-2.9 -2.5 Q-3.3 -2.15 -3.8 -2.15 -4.45 -2.1 -4.9 -2.6 L-5.0 -2.75 Q-5.4 -3.2 -5.4 -3.9 -5.45 -4.55 -5.1 -5.05 M-3.95 -4.6 L-4.0 -4.85 -4.05 -4.9 -4.3 -5.0 -4.6 -4.9 -4.75 -4.55 -4.65 -4.25 -4.6 -4.25 Q-4.9 -3.9 -4.85 -3.4 -4.85 -2.95 -4.5 -2.65 -4.15 -2.35 -3.65 -2.4 -3.2 -2.45 -2.85 -2.75 -2.55 -3.1 -2.55 -3.6 -2.6 -4.1 -2.9 -4.4 -3.25 -4.7 -3.75 -4.65 L-3.95 -4.6" fill="#bb7855" fill-rule="evenodd" stroke="none"/>
    <path d="M-3.95 -4.6 L-3.75 -4.65 Q-3.25 -4.7 -2.9 -4.4 -2.6 -4.1 -2.55 -3.6 -2.55 -3.1 -2.85 -2.75 -3.2 -2.45 -3.65 -2.4 -4.15 -2.35 -4.5 -2.65 -4.85 -2.95 -4.85 -3.4 -4.9 -3.9 -4.6 -4.25 L-4.3 -4.2 -4.05 -4.3 -3.95 -4.6" fill="#7c4632" fill-rule="evenodd" stroke="none"/>
    <path d="M-3.4 15.3 L-3.5 15.25 -3.65 14.95 -3.5 14.55 -3.45 14.5 -3.2 14.4 Q-3.0 14.4 -2.9 14.55 L-2.85 14.6 -2.8 14.85 -2.8 14.9 -2.85 15.2 Q-2.95 15.35 -3.15 15.35 L-3.4 15.3" fill="#ffffff" fill-rule="evenodd" stroke="none"/>
    <path d="M-1.2 14.8 Q-1.05 15.1 -1.05 15.55 -0.95 16.4 -1.4 17.05 L-1.65 17.35 Q-2.0 17.7 -2.5 17.75 -3.2 17.8 -3.65 17.2 L-3.8 17.05 Q-4.2 16.5 -4.25 15.7 -4.3 15.0 -4.0 14.4 L-3.85 14.15 Q-3.45 13.45 -2.8 13.45 -2.1 13.4 -1.6 14.0 L-1.2 14.8 M-2.8 14.85 L-2.85 14.6 -2.9 14.55 Q-3.0 14.4 -3.2 14.4 L-3.45 14.5 -3.5 14.55 -3.65 14.95 -3.5 15.25 -3.4 15.3 Q-3.7 15.7 -3.65 16.25 -3.65 16.8 -3.25 17.15 L-2.4 17.45 Q-1.9 17.4 -1.6 17.0 -1.3 16.6 -1.3 16.05 -1.35 15.5 -1.7 15.1 -2.1 14.75 -2.55 14.8 L-2.8 14.85" fill="#bb7855" fill-rule="evenodd" stroke="none"/>
    <path d="M-2.8 14.85 L-2.55 14.8 Q-2.1 14.75 -1.7 15.1 -1.35 15.5 -1.3 16.05 -1.3 16.6 -1.6 17.0 -1.9 17.4 -2.4 17.45 L-3.25 17.15 Q-3.65 16.8 -3.65 16.25 -3.7 15.7 -3.4 15.3 L-3.15 15.35 Q-2.95 15.35 -2.85 15.2 L-2.8 14.9 -2.8 14.85" fill="#7c4632" fill-rule="evenodd" stroke="none"/>
  </g>
</svg>
