<?xml version="1.0" encoding="UTF-8" standalone="no"?>
<svg xmlns:xlink="http://www.w3.org/1999/xlink" height="5.5px" width="5.85px" xmlns="http://www.w3.org/2000/svg">
  <g transform="matrix(1.0, 0.0, 0.0, 1.0, 3.9, 0.5)">
    <path d="M-3.35 3.85 L-3.9 1.05 Q-3.15 0.05 -1.9 -0.25 -1.05 -0.9 0.3 0.1 L1.9 3.1 1.8 3.55 1.95 3.9 1.9 3.9 -0.35 3.15 -1.05 3.05 -1.15 3.0 -1.9 2.95 -3.35 3.85" fill="#eaddcd" fill-rule="evenodd" stroke="none"/>
    <path d="M-3.35 3.85 L-1.9 2.95 -1.15 3.0 -1.05 3.05 -0.35 3.15 1.9 3.9 -1.1 5.0 -1.15 5.0 -1.55 4.45 -3.35 3.85 M-1.55 4.45 L-1.15 3.0 -1.55 4.45" fill="#ccbba6" fill-rule="evenodd" stroke="none"/>
    <path d="M1.9 3.9 L1.95 3.9 1.8 3.55 1.9 3.1 0.3 0.1 Q-1.05 -0.9 -1.9 -0.25 -3.15 0.05 -3.9 1.05 L-3.35 3.85 -1.55 4.45 -1.15 5.0 -1.1 5.0 1.9 3.9 M-1.15 3.0 L-1.05 3.05 M-1.15 3.0 L-1.55 4.45" fill="none" stroke="#cc924a" stroke-linecap="round" stroke-linejoin="round" stroke-width="0.05"/>
  </g>
</svg>
