<?xml version="1.0" encoding="UTF-8" standalone="no"?>
<svg xmlns:xlink="http://www.w3.org/1999/xlink" height="16.65px" width="5.05px" xmlns="http://www.w3.org/2000/svg">
  <g transform="matrix(1.0, 0.0, 0.0, 1.0, 4.15, 21.15)">
    <path d="M0.7 -18.7 Q1.05 -13.1 0.8 -4.95 -0.95 -4.0 -3.0 -5.15 -3.75 -12.2 -4.0 -18.6 -2.75 -17.95 -1.55 -18.05 0.2 -18.1 0.7 -18.7" fill="#223543" fill-rule="evenodd" stroke="none"/>
    <path d="M0.6 -21.15 L0.7 -18.7 Q0.2 -18.1 -1.55 -18.05 -2.75 -17.95 -4.0 -18.6 L-4.15 -20.85 Q-1.15 -19.65 0.6 -21.15" fill="#e7a8b8" fill-rule="evenodd" stroke="none"/>
    <path d="M0.6 -21.15 L0.7 -18.7 Q1.05 -13.1 0.8 -4.95 M-3.0 -5.15 Q-3.75 -12.2 -4.0 -18.6 L-4.15 -20.85 M-4.0 -18.6 Q-2.75 -17.95 -1.55 -18.05 0.2 -18.1 0.7 -18.7" fill="none" stroke="#152c33" stroke-linecap="round" stroke-linejoin="round" stroke-width="0.05"/>
  </g>
</svg>
