<?xml version="1.0" encoding="UTF-8" standalone="no"?>
<svg xmlns:xlink="http://www.w3.org/1999/xlink" height="15.65px" width="14.95px" xmlns="http://www.w3.org/2000/svg">
  <g transform="matrix(1.0, 0.0, 0.0, 1.0, 7.7, 2.7)">
    <path d="M-7.4 0.5 L-7.4 0.45 -7.45 0.2 -7.35 0.45 -7.4 0.5" fill="#a8866f" fill-rule="evenodd" stroke="none"/>
    <path d="M2.75 -0.7 Q5.05 -0.65 6.45 -1.7 7.9 2.8 6.75 4.4 3.55 6.75 -0.35 6.65 L-0.5 6.65 -0.7 6.65 -1.35 6.55 -3.75 5.35 Q-6.65 3.55 -7.4 0.5 L-7.35 0.45 Q-6.25 3.4 -3.85 4.1 L-2.95 4.3 Q-2.25 6.4 -0.7 6.65 -2.25 6.4 -2.95 4.3 1.5 5.1 2.75 -0.7" fill="#9e6b6b" fill-rule="evenodd" stroke="none"/>
    <path d="M-7.45 0.2 Q-7.75 -1.15 -7.65 -2.7 -6.9 -1.55 -3.6 -1.0 L2.45 -0.7 2.75 -0.7 Q1.5 5.1 -2.95 4.3 L-3.85 4.1 Q-6.25 3.4 -7.35 0.45 L-7.45 0.2 M-3.6 -1.0 Q-3.6 2.4 -2.95 4.3 -3.6 2.4 -3.6 -1.0" fill="#ac7d7d" fill-rule="evenodd" stroke="none"/>
    <path d="M-7.45 0.2 Q-7.75 -1.15 -7.65 -2.7 -6.9 -1.55 -3.6 -1.0 L2.45 -0.7 2.75 -0.7 Q5.05 -0.65 6.45 -1.7 7.9 2.8 6.75 4.4 3.55 6.75 -0.35 6.65 L-0.5 6.65 -0.7 6.65 -1.35 6.55 -3.75 5.35 M-7.4 0.45 L-7.45 0.2 M-2.95 4.3 Q-3.6 2.4 -3.6 -1.0 M-0.7 6.65 Q-2.25 6.4 -2.95 4.3" fill="none" stroke="#603e3e" stroke-linecap="round" stroke-linejoin="round" stroke-width="0.05"/>
    <path d="M-3.55 11.1 L-4.1 10.9 -4.9 -1.35 0.6 -0.85 1.3 12.95 Q0.55 12.15 0.0 12.45 L-0.35 6.65 0.0 12.45 Q-1.3 12.7 -1.95 11.7 -2.95 10.7 -3.55 11.1 L-3.55 8.6 -3.55 11.1 M-1.95 9.0 L-1.95 11.7 -1.95 9.0" fill="#d2c0b7" fill-rule="evenodd" stroke="none"/>
    <path d="M0.0 12.45 Q0.55 12.15 1.3 12.95 L0.6 -0.85 -4.9 -1.35 -4.1 10.9 -3.55 11.1 -3.55 8.6 M-3.55 11.1 Q-2.95 10.7 -1.95 11.7 L-1.95 9.0 M0.0 12.45 L-0.35 6.65 M-1.95 11.7 Q-1.3 12.7 0.0 12.45 Z" fill="none" stroke="#594337" stroke-linecap="round" stroke-linejoin="round" stroke-width="0.05"/>
  </g>
</svg>
