<?xml version="1.0" encoding="UTF-8" standalone="no"?>
<svg xmlns:xlink="http://www.w3.org/1999/xlink" height="22.45px" width="8.75px" xmlns="http://www.w3.org/2000/svg">
  <g transform="matrix(1.0, 0.0, 0.0, 1.0, 5.7, 25.8)">
    <path d="M1.55 -18.2 L0.75 -5.2 -1.2 -4.95 Q-2.3 -5.15 -3.05 -5.6 -3.0 -10.8 -3.9 -15.7 -4.4 -17.45 -4.2 -20.2 -4.0 -22.55 -3.45 -24.65 L-2.4 -25.75 Q-0.45 -26.0 0.65 -24.2 1.35 -21.7 1.5 -18.65 L1.55 -18.2" fill="#ffdfc8" fill-rule="evenodd" stroke="none"/>
    <path d="M1.55 -18.2 L1.5 -18.65 Q1.35 -21.7 0.65 -24.2 -0.45 -26.0 -2.4 -25.75 L-3.45 -24.65 Q-4.0 -22.55 -4.2 -20.2 -4.4 -17.45 -3.9 -15.7 -3.0 -10.8 -3.05 -5.6 -2.3 -5.15 -1.2 -4.95 L0.75 -5.2 1.55 -18.2 Z" fill="none" stroke="#d7995e" stroke-linecap="round" stroke-linejoin="round" stroke-width="0.05"/>
    <path d="M2.25 -22.85 L2.4 -22.6 2.7 -19.65 Q2.0 -18.9 -0.3 -18.3 L-1.15 -18.15 -1.35 -18.15 Q-3.2 -18.35 -4.05 -18.9 -4.95 -19.5 -5.5 -20.15 L-5.45 -22.05 -5.4 -22.05 Q-4.15 -20.6 -1.45 -20.3 L-0.95 -20.3 -0.3 -20.35 Q1.7 -20.8 2.25 -22.85 M2.95 -7.2 L2.85 -5.1 Q2.85 -3.85 -1.15 -3.35 L-1.35 -3.4 Q-3.2 -3.8 -4.05 -4.45 -5.0 -5.2 -5.55 -5.9 L-5.55 -6.35 -5.6 -7.0 -5.6 -8.0 -4.05 -6.55 -3.75 -6.35 Q-2.9 -5.85 -1.35 -5.5 L-1.15 -5.5 Q2.85 -5.95 2.95 -7.2" fill="#a67e71" fill-rule="evenodd" stroke="none"/>
    <path d="M2.25 -22.85 Q1.7 -20.8 -0.3 -20.35 L-0.95 -20.3 -1.45 -20.3 Q-4.15 -20.6 -5.4 -22.05 L-5.45 -22.1 Q-5.25 -23.5 -4.5 -24.4 -3.9 -25.25 -2.85 -25.7 0.8 -26.05 2.25 -22.85" fill="#61463d" fill-rule="evenodd" stroke="none"/>
    <path d="M-5.4 -22.05 L-5.45 -22.05 -5.45 -22.1 -5.4 -22.05" fill="#8e8e8e" fill-rule="evenodd" stroke="none"/>
    <path d="M-5.5 -20.15 Q-4.95 -19.5 -4.05 -18.9 -3.2 -18.35 -1.35 -18.15 L-1.15 -18.15 -0.3 -18.3 Q2.0 -18.9 2.7 -19.65 L2.8 -18.65 Q3.2 -12.7 2.95 -7.2 2.85 -5.95 -1.15 -5.5 L-1.35 -5.5 Q-2.9 -5.85 -3.75 -6.35 L-4.05 -6.55 -5.6 -8.0 -5.55 -19.8 -5.5 -20.15" fill="#823939" fill-rule="evenodd" stroke="none"/>
    <path d="M2.7 -19.65 L2.4 -22.6 2.25 -22.85 Q1.7 -20.8 -0.3 -20.35 L-0.95 -20.3 -1.45 -20.3 Q-4.15 -20.6 -5.4 -22.05 L-5.45 -22.05 -5.5 -20.15 Q-4.95 -19.5 -4.05 -18.9 -3.2 -18.35 -1.35 -18.15 L-1.15 -18.15 -0.3 -18.3 Q2.0 -18.9 2.7 -19.65 L2.8 -18.65 Q3.2 -12.7 2.95 -7.2 L2.85 -5.1 Q2.85 -3.85 -1.15 -3.35 L-1.35 -3.4 Q-3.2 -3.8 -4.05 -4.45 -5.0 -5.2 -5.55 -5.9 L-5.55 -6.35 -5.6 -7.0 -5.6 -8.0 -5.55 -19.8 -5.5 -20.15 M-5.45 -22.1 L-5.4 -22.05 M-5.45 -22.05 L-5.45 -22.1 Q-5.25 -23.5 -4.5 -24.4 -3.9 -25.25 -2.85 -25.7 0.8 -26.05 2.25 -22.85 M-5.6 -8.0 L-4.05 -6.55 -3.75 -6.35 Q-2.9 -5.85 -1.35 -5.5 L-1.15 -5.5 Q2.85 -5.95 2.95 -7.2" fill="none" stroke="#3f2c27" stroke-linecap="round" stroke-linejoin="round" stroke-width="0.05"/>
  </g>
</svg>
