<?xml version="1.0" encoding="UTF-8" standalone="no"?>
<svg xmlns:xlink="http://www.w3.org/1999/xlink" height="97.0px" width="99.6px" xmlns="http://www.w3.org/2000/svg">
  <g transform="matrix(1.0, 0.0, 0.0, 1.0, 55.6, 32.75)">
    <path d="M-6.15 -22.55 L-5.05 -22.9 -4.55 -23.05 -4.05 -23.15 -2.8 -23.45 2.1 -24.3 2.45 -24.35 11.05 -24.8 Q11.55 -19.0 10.0 -14.05 L9.95 -14.0 9.7 -13.25 Q6.95 -5.6 -0.9 0.0 -12.1 6.8 -27.85 8.2 -27.0 -3.1 -22.25 -10.55 -16.75 -19.15 -6.15 -22.55" fill="#e6e497" fill-rule="evenodd" stroke="none"/>
    <path d="M-2.8 -23.45 Q13.9 -29.9 44.0 -32.7 43.25 -29.8 39.5 -29.4 27.85 -26.55 17.15 -20.75 13.15 -18.55 10.15 -13.95 L9.7 -13.25 9.95 -14.0 10.0 -14.05 Q11.55 -19.0 11.05 -24.8 L2.45 -24.35 2.1 -24.3 -2.8 -23.45 M-6.25 29.15 Q-9.9 45.85 -27.15 49.4 -40.25 51.25 -47.0 64.25 -41.75 48.4 -29.05 42.8 -17.75 37.85 -15.45 29.4 -15.15 28.3 -15.0 27.2 -13.2 24.0 -11.35 22.7 -9.55 21.4 -7.75 22.1 -6.65 22.5 -5.5 23.65 L-5.65 25.45 -6.25 29.15 M-32.05 24.05 Q-42.45 30.6 -43.65 39.3 -45.0 48.4 -55.6 57.25 -52.2 49.15 -48.95 36.35 -45.95 24.6 -34.8 16.6 L-34.95 15.25 Q-35.25 11.5 -33.65 7.35 -33.55 10.8 -34.5 13.7 L-34.6 15.2 -34.4 16.35 -33.95 17.15 -34.1 16.35 -34.0 15.0 Q-31.9 10.55 -33.15 6.15 L-31.8 3.6 -27.55 -3.55 Q-30.3 2.5 -28.7 10.5 L-28.7 10.55 Q-13.85 9.35 -4.25 4.5 L-3.2 6.8 Q-4.5 7.25 -5.9 7.95 -9.25 9.5 -11.45 11.1 -13.6 12.7 -13.3 13.4 -13.0 14.2 -10.45 13.65 -7.85 13.05 -4.5 11.5 L-1.7 10.1 -1.15 11.35 10.75 9.7 Q12.2 0.0 23.6 -9.3 28.2 -13.1 40.9 -18.35 L40.95 -18.3 Q37.8 -7.45 30.8 0.3 L29.55 1.3 28.4 2.75 Q25.1 5.85 21.15 8.4 L20.5 8.8 19.45 9.45 Q16.1 11.4 12.35 13.0 L11.9 13.15 Q9.6 13.25 7.85 14.65 L7.1 14.9 -0.75 17.05 Q-2.45 17.05 -3.8 17.65 L-4.9 17.85 -6.15 18.9 Q-8.85 21.05 -11.4 22.6 -17.0 25.95 -21.9 26.45 -24.8 26.7 -27.5 25.75 -21.1 25.9 -14.85 19.5 -20.5 23.95 -31.2 23.85 L-31.4 23.6 -31.65 23.3 -32.05 24.05 M-31.8 17.5 Q-31.25 18.0 -30.55 18.15 L-30.15 18.15 Q-29.15 18.15 -28.5 17.5 -27.8 16.85 -27.8 15.85 -27.8 14.85 -28.5 14.15 -28.95 13.7 -29.6 13.55 L-30.15 13.5 Q-31.1 13.5 -31.8 14.15 -32.45 14.85 -32.45 15.85 -32.45 16.85 -31.8 17.5 M-31.65 23.3 Q-34.15 20.15 -34.8 16.6 -34.15 20.15 -31.65 23.3 M-29.95 20.85 Q-27.8 21.75 -25.25 18.7 -22.7 15.65 -18.8 14.9 -23.2 12.4 -26.15 17.1 -27.95 20.0 -29.95 20.85" fill="#ebebeb" fill-rule="evenodd" stroke="none"/>
    <path d="M-4.25 4.5 Q7.3 -1.4 11.3 -10.9 16.6 -20.8 39.95 -27.4 41.55 -27.5 41.8 -25.65 L42.25 -23.15 Q42.2 -21.35 41.15 -20.55 31.3 -17.0 21.75 -11.1 11.55 -3.0 8.35 7.85 L-1.15 11.35 -1.7 10.1 Q-0.2 9.2 0.95 8.3 3.15 6.65 2.85 5.95 L-0.05 5.75 Q-1.5 6.1 -3.2 6.8 L-4.25 4.5" fill="#dc7b77" fill-rule="evenodd" stroke="none"/>
    <path d="M40.95 -18.3 Q38.35 -8.5 33.7 -0.75 L34.75 -0.8 Q37.75 -0.8 39.9 1.3 42.05 3.4 42.05 6.45 42.05 9.55 39.9 11.65 37.75 13.75 34.75 13.75 33.15 13.75 31.85 13.2 L32.0 14.8 Q32.0 17.9 29.85 20.0 27.7 22.1 24.7 22.1 21.75 22.1 19.7 20.2 L19.7 20.4 Q19.7 23.5 17.55 25.6 15.4 27.7 12.4 27.7 9.35 27.7 7.2 25.6 L6.55 24.85 Q6.35 27.55 4.4 29.5 2.25 31.6 -0.75 31.6 -3.8 31.6 -5.95 29.5 L-6.25 29.15 -5.65 25.45 -5.5 23.65 Q-6.65 22.5 -7.75 22.1 -7.25 20.45 -5.95 19.15 L-3.8 17.65 -5.95 19.15 Q-7.25 20.45 -7.75 22.1 -9.55 21.4 -11.35 22.7 -13.2 24.0 -15.0 27.2 -15.15 28.3 -15.45 29.4 L-17.35 30.45 Q-23.7 34.5 -28.75 32.5 -25.9 32.85 -21.9 26.5 L-21.9 26.45 Q-17.0 25.95 -11.4 22.6 -8.85 21.05 -6.15 18.9 L-4.9 17.85 -3.8 17.65 Q-2.45 17.05 -0.75 17.05 L7.1 14.9 7.85 14.65 Q7.5 14.9 7.2 15.25 5.25 17.2 5.1 19.9 L4.4 19.15 Q2.25 17.05 -0.75 17.05 2.25 17.05 4.4 19.15 L5.1 19.9 Q5.25 17.2 7.2 15.25 7.5 14.9 7.85 14.65 9.6 13.25 11.9 13.15 L12.4 13.15 Q15.2 13.15 17.3 14.95 15.2 13.15 12.4 13.15 L11.9 13.15 12.35 13.0 Q16.1 11.4 19.45 9.45 L20.5 8.8 21.15 8.4 Q22.7 7.55 24.7 7.55 L27.15 7.95 27.5 7.55 Q27.4 7.0 27.45 6.45 27.4 4.4 28.4 2.75 27.4 4.4 27.45 6.45 27.4 7.0 27.5 7.55 L27.6 8.1 Q28.8 8.6 29.85 9.65 31.4 11.15 31.85 13.2 31.4 11.15 29.85 9.65 28.8 8.6 27.6 8.1 L27.5 7.55 27.15 7.95 24.7 7.55 Q22.7 7.55 21.15 8.4 25.1 5.85 28.4 2.75 L29.55 1.3 30.8 0.3 Q37.8 -7.45 40.95 -18.3 M-28.35 25.45 Q-32.15 30.25 -30.75 31.5 L-30.8 31.55 Q-34.4 28.65 -32.05 24.05 L-31.65 23.3 -31.4 23.6 -31.2 23.85 -28.35 25.45 M33.7 -0.75 Q32.1 -0.55 30.8 0.3 32.1 -0.55 33.7 -0.75 M17.4 14.8 Q17.35 11.75 19.5 9.65 19.95 9.15 20.5 8.8 19.95 9.15 19.5 9.65 17.35 11.75 17.4 14.8 L17.3 14.95 17.4 15.05 17.4 14.8 M27.6 8.1 L27.15 7.95 27.6 8.1 M19.7 20.2 Q19.6 17.65 18.05 15.75 L17.55 15.25 17.4 15.05 17.55 15.25 18.05 15.75 Q19.6 17.65 19.7 20.2 M6.55 24.85 L6.55 24.3 Q6.55 23.05 6.2 22.0 5.85 20.85 5.1 19.9 5.85 20.85 6.2 22.0 6.55 23.05 6.55 24.3 L6.55 24.85" fill="#742d3b" fill-rule="evenodd" stroke="none"/>
    <path d="M-6.15 -22.55 L-5.15 -23.1 -2.95 -24.15 -1.2 -24.75 Q14.05 -30.4 25.75 -31.95 L27.45 -32.15 44.0 -32.7 Q13.9 -29.9 -2.8 -23.45 L-4.05 -23.15 -4.55 -23.05 -5.05 -22.9 -6.15 -22.55 M44.0 -32.7 L44.0 -25.35 Q44.0 -19.7 42.85 -19.15 L40.95 -18.35 40.9 -18.35 Q28.2 -13.1 23.6 -9.3 12.2 0.0 10.75 9.7 L-1.15 11.35 8.35 7.85 Q11.55 -3.0 21.75 -11.1 31.3 -17.0 41.15 -20.55 42.2 -21.35 42.25 -23.15 L41.8 -25.65 Q41.55 -27.5 39.95 -27.4 16.6 -20.8 11.3 -10.9 7.3 -1.4 -4.25 4.5 -13.85 9.35 -28.7 10.55 L-28.7 10.5 Q-30.3 2.5 -27.55 -3.55 L-27.55 -3.6 Q-26.55 -5.85 -24.9 -7.85 -23.75 -9.3 -22.25 -10.55 -27.0 -3.1 -27.85 8.2 L-28.7 10.5 -27.85 8.2 Q-12.1 6.8 -0.9 0.0 6.95 -5.6 9.7 -13.25 L10.15 -13.95 Q13.15 -18.55 17.15 -20.75 27.85 -26.55 39.5 -29.4 43.25 -29.8 44.0 -32.7 M-33.65 7.35 L-33.15 6.15 Q-31.9 10.55 -34.0 15.0 L-34.1 16.35 -33.95 17.15 -34.4 16.35 -34.6 15.2 -34.5 13.7 Q-33.55 10.8 -33.65 7.35 M-29.95 20.85 Q-27.95 20.0 -26.15 17.1 -23.2 12.4 -18.8 14.9 -22.7 15.65 -25.25 18.7 -27.8 21.75 -29.95 20.85" fill="#b1dcc5" fill-rule="evenodd" stroke="none"/>
    <path d="M-31.8 3.6 Q-32.65 -5.7 -24.9 -7.85 -26.55 -5.85 -27.55 -3.6 L-27.55 -3.55 -31.8 3.6 M-3.2 6.8 Q-1.5 6.1 -0.05 5.75 L2.85 5.95 Q3.15 6.65 0.95 8.3 -0.2 9.2 -1.7 10.1 L-4.5 11.5 Q-7.85 13.05 -10.45 13.65 -13.0 14.2 -13.3 13.4 -13.6 12.7 -11.45 11.1 -9.25 9.5 -5.9 7.95 -4.5 7.25 -3.2 6.8 M-27.5 25.75 L-28.35 25.45 -31.2 23.85 Q-20.5 23.95 -14.85 19.5 -21.1 25.9 -27.5 25.75 M-12.05 12.8 Q-6.25 9.45 -6.8 11.25 -6.25 9.45 -12.05 12.8 M-31.8 17.5 Q-32.45 16.85 -32.45 15.85 -32.45 14.85 -31.8 14.15 -31.1 13.5 -30.15 13.5 L-29.6 13.55 Q-28.95 13.7 -28.5 14.15 -27.8 14.85 -27.8 15.85 -27.8 16.85 -28.5 17.5 -29.15 18.15 -30.15 18.15 L-30.55 18.15 Q-31.25 18.0 -31.8 17.5" fill="#d28a5f" fill-rule="evenodd" stroke="none"/>
    <path d="M-21.9 26.5 Q-32.05 35.65 -28.35 25.45 L-27.5 25.75 Q-24.8 26.7 -21.9 26.45 L-21.9 26.5" fill="#e1cad7" fill-rule="evenodd" stroke="none"/>
    <path d="M40.95 -18.35 L40.95 -18.3 M-30.75 31.5 Q-30.4 31.8 -30.65 31.65 L-30.8 31.55 M-4.25 4.5 L-3.2 6.8 M-1.7 10.1 L-1.15 11.35 M-28.7 10.5 L-28.7 10.55" fill="none" stroke="#975506" stroke-linecap="round" stroke-linejoin="round" stroke-width="0.05"/>
    <path d="M-6.15 -22.55 L-5.05 -22.9 -4.55 -23.05 -4.05 -23.15 -2.8 -23.45 2.1 -24.3 2.45 -24.35 11.05 -24.8 Q11.55 -19.0 10.0 -14.05 L9.95 -14.0 9.7 -13.25 Q6.95 -5.6 -0.9 0.0 -12.1 6.8 -27.85 8.2 -27.0 -3.1 -22.25 -10.55 -16.75 -19.15 -6.15 -22.55" fill="none" stroke="#a2982d" stroke-linecap="round" stroke-linejoin="round" stroke-width="0.05"/>
    <path d="M44.0 -32.7 L27.45 -32.15 25.75 -31.95 Q14.05 -30.4 -1.2 -24.75 L-2.95 -24.15 -5.15 -23.1 -6.15 -22.55 M-2.8 -23.45 Q13.9 -29.9 44.0 -32.7 L44.0 -25.35 Q44.0 -19.7 42.85 -19.15 L40.95 -18.35 40.9 -18.35 Q28.2 -13.1 23.6 -9.3 12.2 0.0 10.75 9.7 L-1.15 11.35 8.35 7.85 Q11.55 -3.0 21.75 -11.1 31.3 -17.0 41.15 -20.55 42.2 -21.35 42.25 -23.15 L41.8 -25.65 Q41.55 -27.5 39.95 -27.4 16.6 -20.8 11.3 -10.9 7.3 -1.4 -4.25 4.5 -13.85 9.35 -28.7 10.55 L-28.7 10.5 -27.85 8.2 M-33.65 7.35 L-33.15 6.15 Q-31.9 10.55 -34.0 15.0 L-34.1 16.35 -33.95 17.15 -34.4 16.35 -34.6 15.2 -34.5 13.7 Q-33.55 10.8 -33.65 7.35 M-24.9 -7.85 Q-23.75 -9.3 -22.25 -10.55 M9.7 -13.25 L10.15 -13.95 Q13.15 -18.55 17.15 -20.75 27.85 -26.55 39.5 -29.4 43.25 -29.8 44.0 -32.7 M-24.9 -7.85 Q-26.55 -5.85 -27.55 -3.6 L-27.55 -3.55 Q-30.3 2.5 -28.7 10.5 M-29.95 20.85 Q-27.8 21.75 -25.25 18.7 -22.7 15.65 -18.8 14.9 -23.2 12.4 -26.15 17.1 -27.95 20.0 -29.95 20.85" fill="none" stroke="#42625a" stroke-linecap="round" stroke-linejoin="round" stroke-width="0.05"/>
    <path d="M-31.8 3.6 Q-32.65 -5.7 -24.9 -7.85 M-3.2 6.8 Q-1.5 6.1 -0.05 5.75 L2.85 5.95 Q3.15 6.65 0.95 8.3 -0.2 9.2 -1.7 10.1 L-4.5 11.5 Q-7.85 13.05 -10.45 13.65 -13.0 14.2 -13.3 13.4 -13.6 12.7 -11.45 11.1 -9.25 9.5 -5.9 7.95 -4.5 7.25 -3.2 6.8 M-27.5 25.75 L-28.35 25.45 -31.2 23.85 Q-20.5 23.95 -14.85 19.5 -21.1 25.9 -27.5 25.75 M-6.8 11.25 Q-6.25 9.45 -12.05 12.8 M-31.8 17.5 Q-32.45 16.85 -32.45 15.85 -32.45 14.85 -31.8 14.15 -31.1 13.5 -30.15 13.5 L-29.6 13.55 Q-28.95 13.7 -28.5 14.15 -27.8 14.85 -27.8 15.85 -27.8 16.85 -28.5 17.5 -29.15 18.15 -30.15 18.15 L-30.55 18.15 Q-31.25 18.0 -31.8 17.5 M-27.55 -3.55 L-31.8 3.6" fill="none" stroke="#7a3329" stroke-linecap="round" stroke-linejoin="round" stroke-width="0.05"/>
    <path d="M-6.25 29.15 Q-9.9 45.85 -27.15 49.4 -40.25 51.25 -47.0 64.25 -41.75 48.4 -29.05 42.8 -17.75 37.85 -15.45 29.4 M-32.05 24.05 Q-42.45 30.6 -43.65 39.3 -45.0 48.4 -55.6 57.25 -52.2 49.15 -48.95 36.35 -45.95 24.6 -34.8 16.6 L-34.95 15.25 Q-35.25 11.5 -33.65 7.35 M-33.15 6.15 L-31.8 3.6 M-34.8 16.6 Q-34.15 20.15 -31.65 23.3" fill="none" stroke="#828282" stroke-linecap="round" stroke-linejoin="round" stroke-width="0.05"/>
    <path d="M-21.9 26.5 Q-32.05 35.65 -28.35 25.45 M-21.9 26.45 Q-24.8 26.7 -27.5 25.75" fill="none" stroke="#a46087" stroke-linecap="round" stroke-linejoin="round" stroke-width="0.05"/>
    <path d="M40.95 -18.3 Q38.35 -8.5 33.7 -0.75 L34.75 -0.8 Q37.75 -0.8 39.9 1.3 42.05 3.4 42.05 6.45 42.05 9.55 39.9 11.65 37.75 13.75 34.75 13.75 33.15 13.75 31.85 13.2 L32.0 14.8 Q32.0 17.9 29.85 20.0 27.7 22.1 24.7 22.1 21.75 22.1 19.7 20.2 L19.7 20.4 Q19.7 23.5 17.55 25.6 15.4 27.7 12.4 27.7 9.35 27.7 7.2 25.6 L6.55 24.85 Q6.35 27.55 4.4 29.5 2.25 31.6 -0.75 31.6 -3.8 31.6 -5.95 29.5 L-6.25 29.15 -5.65 25.45 -5.5 23.65 Q-6.65 22.5 -7.75 22.1 -9.55 21.4 -11.35 22.7 -13.2 24.0 -15.0 27.2 -15.15 28.3 -15.45 29.4 L-17.35 30.45 Q-23.7 34.5 -28.75 32.5 -25.9 32.85 -21.9 26.5 L-21.9 26.45 Q-17.0 25.95 -11.4 22.6 -8.85 21.05 -6.15 18.9 L-4.9 17.85 -3.8 17.65 -5.95 19.15 Q-7.25 20.45 -7.75 22.1 M-28.35 25.45 Q-32.15 30.25 -30.75 31.5 M-30.8 31.55 Q-34.4 28.65 -32.05 24.05 L-31.65 23.3 -31.4 23.6 -31.2 23.85 M40.95 -18.3 Q37.8 -7.45 30.8 0.3 32.1 -0.55 33.7 -0.75 M30.8 0.3 L29.55 1.3 28.4 2.75 Q27.4 4.4 27.45 6.45 27.4 7.0 27.5 7.55 L27.6 8.1 Q28.8 8.6 29.85 9.65 31.4 11.15 31.85 13.2 M21.15 8.4 L20.5 8.8 Q19.95 9.15 19.5 9.65 17.35 11.75 17.4 14.8 L17.4 15.05 17.55 15.25 18.05 15.75 Q19.6 17.65 19.7 20.2 M21.15 8.4 Q22.7 7.55 24.7 7.55 L27.15 7.95 27.5 7.55 M27.15 7.95 L27.6 8.1 M28.4 2.75 Q25.1 5.85 21.15 8.4 M-0.75 17.05 Q2.25 17.05 4.4 19.15 L5.1 19.9 Q5.25 17.2 7.2 15.25 7.5 14.9 7.85 14.65 L7.1 14.9 -0.75 17.05 Q-2.45 17.05 -3.8 17.65 M5.1 19.9 Q5.85 20.85 6.2 22.0 6.55 23.05 6.55 24.3 L6.55 24.85 M17.3 14.95 L17.4 15.05 M17.3 14.95 Q15.2 13.15 12.4 13.15 L11.9 13.15 Q9.6 13.25 7.85 14.65 M20.5 8.8 L19.45 9.45 Q16.1 11.4 12.35 13.0 L11.9 13.15" fill="none" stroke="#451b24" stroke-linecap="round" stroke-linejoin="round" stroke-width="0.05"/>
  </g>
</svg>
