<?xml version="1.0" encoding="UTF-8" standalone="no"?>
<svg xmlns:xlink="http://www.w3.org/1999/xlink" height="75.25px" width="84.0px" xmlns="http://www.w3.org/2000/svg">
  <g transform="matrix(1.0, 0.0, 0.0, 1.0, -21.95, 4.25)">
    <path d="M47.6 -3.15 Q53.45 -5.9 66.9 -1.85 80.3 2.15 92.35 11.65 103.7 20.55 105.45 28.6 107.2 36.6 102.95 45.8 98.7 55.0 83.15 63.15 67.6 71.3 60.65 71.0 53.7 70.7 38.8 60.45 23.9 50.2 22.3 41.75 20.65 33.25 27.25 19.6 L30.1 13.85 Q31.6 10.9 33.15 8.9 34.65 6.9 38.2 3.25 41.75 -0.4 47.6 -3.15" fill="#000000" fill-rule="evenodd" stroke="none"/>
  </g>
</svg>
