<?xml version="1.0" encoding="UTF-8" standalone="no"?>
<svg xmlns:xlink="http://www.w3.org/1999/xlink" height="42.85px" width="55.45px" xmlns="http://www.w3.org/2000/svg">
  <g transform="matrix(1.0, 0.0, 0.0, 1.0, -0.3, 7.4)">
    <path d="M40.4 -2.75 L40.4 -2.6 40.75 1.5 Q40.85 3.75 40.4 5.9 L41.25 5.75 41.35 5.75 46.4 6.05 46.35 6.0 51.65 5.55 Q52.25 5.35 52.8 5.55 L52.85 5.55 Q53.4 5.7 53.8 6.2 54.2 6.65 54.25 7.25 L54.05 8.4 54.05 8.45 Q52.3 11.6 49.5 13.65 50.75 14.35 52.0 15.3 53.85 16.75 55.3 18.55 L55.35 18.55 Q55.8 19.15 55.75 19.95 55.7 20.7 55.15 21.3 54.55 21.8 53.75 21.8 L53.7 21.8 53.55 21.8 52.25 21.8 51.95 21.8 47.15 22.1 47.2 22.1 47.05 22.15 47.1 22.1 Q45.05 22.7 43.2 23.6 L43.15 23.65 Q40.1 25.0 36.95 25.45 L35.95 26.2 35.9 26.2 35.75 26.3 34.9 26.75 34.75 26.85 34.2 28.6 34.1 28.7 32.95 31.55 32.9 31.6 32.9 32.0 33.05 32.4 Q33.45 33.05 33.35 33.8 33.2 34.5 32.65 35.0 L31.3 35.45 Q26.3 35.25 23.4 31.2 L23.35 31.1 Q22.05 29.25 21.75 26.85 L20.3 26.15 Q15.95 23.65 10.9 23.8 8.2 24.2 5.8 25.35 L4.5 25.55 3.4 24.85 Q2.95 24.35 2.9 23.65 2.85 23.0 3.25 22.45 5.3 19.4 8.35 17.5 L5.9 15.05 5.85 14.95 Q4.05 13.35 1.7 12.6 0.9 12.35 0.5 11.6 0.15 10.85 0.4 10.05 0.65 9.25 1.45 8.9 4.95 7.15 8.8 6.55 L8.75 6.55 8.9 6.5 8.95 6.5 10.4 6.45 8.9 3.8 Q6.9 -0.45 7.8 -4.9 7.9 -5.7 8.6 -6.15 9.25 -6.65 10.05 -6.5 10.85 -6.4 11.35 -5.75 L13.05 -3.75 13.55 -3.4 13.65 -3.35 13.7 -3.35 16.3 -2.2 Q19.2 -1.25 21.55 0.5 L21.65 0.6 24.5 3.1 Q26.7 -0.75 30.55 -3.3 34.25 -5.75 38.4 -7.25 L39.6 -7.3 40.65 -6.7 41.1 -5.6 40.85 -4.4 Q40.35 -3.55 40.4 -2.75" fill="#000000" fill-rule="evenodd" stroke="none"/>
    <path d="M38.35 -1.9 L38.55 -0.95 Q39.3 4.1 37.25 8.75 L35.75 9.6 Q34.35 10.5 33.1 11.75 35.9 9.6 38.1 10.35 34.05 12.9 33.65 14.0 38.55 11.55 42.85 13.55 38.35 12.95 33.55 15.05 35.7 15.5 36.8 16.65 34.2 16.65 32.3 18.4 L31.35 19.35 Q32.55 23.45 43.95 19.05 48.1 17.65 53.4 19.8 48.15 19.15 42.15 21.45 38.95 23.15 36.15 23.5 34.95 24.8 33.05 25.15 L33.0 24.45 Q30.75 23.95 28.7 22.7 27.8 23.55 27.95 26.7 25.8 25.45 24.65 21.6 L24.0 23.35 Q23.65 24.4 23.6 25.4 20.9 24.85 19.1 23.45 L16.3 22.45 Q10.9 20.55 4.9 23.55 7.8 19.25 11.4 18.3 L11.75 18.7 11.75 18.75 Q29.45 25.35 21.3 15.45 L18.7 14.0 Q21.7 15.25 23.2 14.95 L24.7 16.8 23.2 14.95 Q19.55 10.6 15.35 9.15 12.55 6.55 11.1 3.9 15.75 8.35 22.5 12.45 23.95 13.7 24.4 15.3 L24.7 16.8 Q25.9 8.5 29.5 6.3 L28.45 8.35 Q27.1 13.65 28.8 14.6 32.45 12.15 34.55 8.6 38.9 5.2 38.35 -1.9 M23.3 4.65 L24.95 6.85 Q23.9 10.05 24.25 13.9 22.95 9.2 19.7 6.5 25.65 10.4 23.3 4.65 M26.95 16.85 Q26.65 12.25 28.45 8.35 26.65 12.25 26.95 16.85 M33.1 11.75 Q31.1 13.6 29.35 16.2 L28.1 18.15 Q26.95 19.15 26.15 19.0 L25.9 18.9 25.55 18.6 Q25.05 18.05 24.7 16.8 25.05 18.05 25.55 18.6 L25.9 18.9 26.15 19.0 Q26.95 19.15 28.1 18.15 L29.35 16.2 Q31.1 13.6 33.1 11.75 M25.55 18.6 L21.3 15.45 25.55 18.6 M24.65 21.6 Q25.2 20.35 26.15 19.0 L27.45 20.45 27.95 20.9 Q27.5 24.2 27.95 26.7 27.5 24.2 27.95 20.9 L27.45 20.45 26.15 19.0 Q25.2 20.35 24.65 21.6 M16.3 22.45 Q13.9 21.2 11.75 18.75 13.9 21.2 16.3 22.45 M19.1 23.45 Q21.45 23.9 24.0 23.35 21.45 23.9 19.1 23.45 M27.95 20.9 Q28.95 21.85 30.15 22.45 31.3 23.1 32.6 23.35 L32.75 23.4 33.0 24.45 32.75 23.4 32.6 23.35 Q31.3 23.1 30.15 22.45 28.95 21.85 27.95 20.9 M36.8 16.65 Q32.45 16.0 28.1 18.15 30.85 16.15 33.55 15.05 30.85 16.15 28.1 18.15 32.45 16.0 36.8 16.65 M32.75 23.4 L36.15 23.5 32.75 23.4 M29.35 16.2 Q33.6 11.8 38.1 10.35 33.6 11.8 29.35 16.2" fill="#623193" fill-rule="evenodd" stroke="none"/>
    <path d="M37.25 8.75 Q41.3 6.65 46.0 7.45 49.25 8.45 52.25 7.45 48.9 12.8 44.7 13.9 47.05 14.5 49.35 15.85 52.25 17.8 53.65 19.75 L53.75 19.8 53.65 19.8 53.4 19.8 Q48.1 17.65 43.95 19.05 32.55 23.45 31.35 19.35 L32.3 18.4 Q34.2 16.65 36.8 16.65 35.7 15.5 33.55 15.05 38.35 12.95 42.85 13.55 38.55 11.55 33.65 14.0 34.05 12.9 38.1 10.35 35.9 9.6 33.1 11.75 34.35 10.5 35.75 9.6 L37.25 8.75 M33.05 25.15 Q33.1 27.9 30.9 30.65 30.15 32.75 31.35 33.45 28.4 33.3 26.0 31.35 23.45 28.7 23.6 25.4 23.65 24.4 24.0 23.35 L24.65 21.6 Q25.8 25.45 27.95 26.7 27.8 23.55 28.7 22.7 30.75 23.95 33.0 24.45 L33.05 25.15 M11.4 18.3 L11.15 18.0 Q7.55 12.45 2.3 10.7 9.35 7.0 15.35 9.15 19.55 10.6 23.2 14.95 21.7 15.25 18.7 14.0 L21.3 15.45 Q29.45 25.35 11.75 18.75 L11.75 18.7 11.4 18.3 M11.1 3.9 Q8.8 -0.25 9.75 -4.55 10.8 -2.1 14.3 -0.65 19.7 0.55 23.3 4.65 25.65 10.4 19.7 6.5 22.95 9.2 24.25 13.9 23.9 10.05 24.95 6.85 27.55 -1.25 38.9 -5.35 L39.1 -5.4 39.05 -5.35 Q38.25 -3.9 38.3 -2.35 L38.35 -1.9 Q38.9 5.2 34.55 8.6 32.45 12.15 28.8 14.6 27.1 13.65 28.45 8.35 L29.5 6.3 Q25.9 8.5 24.7 16.8 L24.4 15.3 Q23.95 13.7 22.5 12.45 15.75 8.35 11.1 3.9 M44.7 13.9 L42.85 13.55 44.7 13.9 M44.75 8.45 Q41.1 8.05 39.3 9.45 46.65 10.6 50.35 8.65 L44.75 8.45 M24.25 13.9 L24.25 14.15 24.4 15.3 24.25 14.15 24.25 13.9 M17.95 12.35 Q15.7 10.35 12.2 9.45 8.65 8.45 3.65 10.6 11.6 9.75 17.95 12.35 M20.15 4.6 Q19.1 2.75 15.45 1.65 13.1 0.95 11.75 -0.5 14.8 3.95 20.15 4.6 M38.95 16.4 Q45.75 15.85 50.25 18.2 48.9 16.4 45.75 15.0 42.1 14.6 38.95 16.4 M37.2 -3.5 Q30.75 -2.15 27.0 6.2 34.0 0.35 37.2 -3.5 M29.85 32.4 Q26.25 30.7 24.4 25.45 23.35 30.4 29.85 32.4" fill="#8446c1" fill-rule="evenodd" stroke="none"/>
    <path d="M44.75 8.45 L50.35 8.65 Q46.65 10.6 39.3 9.45 41.1 8.05 44.75 8.45 M20.15 4.6 Q14.8 3.95 11.75 -0.5 13.1 0.95 15.45 1.65 19.1 2.75 20.15 4.6 M17.95 12.35 Q11.6 9.75 3.65 10.6 8.65 8.45 12.2 9.45 15.7 10.35 17.95 12.35 M38.95 16.4 Q42.1 14.6 45.75 15.0 48.9 16.4 50.25 18.2 45.75 15.85 38.95 16.4 M29.85 32.4 Q23.35 30.4 24.4 25.45 26.25 30.7 29.85 32.4 M37.2 -3.5 Q34.0 0.35 27.0 6.2 30.75 -2.15 37.2 -3.5" fill="#be9ede" fill-rule="evenodd" stroke="none"/>
    <path d="M38.35 -1.9 L38.55 -0.95 Q39.3 4.1 37.25 8.75 41.3 6.65 46.0 7.45 49.25 8.45 52.25 7.45 48.9 12.8 44.7 13.9 47.05 14.5 49.35 15.85 52.25 17.8 53.65 19.75 L53.75 19.8 53.65 19.8 53.4 19.8 Q48.15 19.15 42.15 21.45 38.95 23.15 36.15 23.5 34.95 24.8 33.05 25.15 33.1 27.9 30.9 30.65 30.15 32.75 31.35 33.45 28.4 33.3 26.0 31.35 23.45 28.7 23.6 25.4 20.9 24.85 19.1 23.45 L16.3 22.45 Q10.9 20.55 4.9 23.55 7.8 19.25 11.4 18.3 L11.15 18.0 Q7.55 12.45 2.3 10.7 9.35 7.0 15.35 9.15 12.55 6.55 11.1 3.9 8.8 -0.25 9.75 -4.55 10.8 -2.1 14.3 -0.65 19.7 0.55 23.3 4.65 L24.95 6.85 Q27.55 -1.25 38.9 -5.35 L39.1 -5.4 39.05 -5.35 Q38.25 -3.9 38.3 -2.35 M28.45 8.35 Q26.65 12.25 26.95 16.85 M37.25 8.75 L35.75 9.6 Q34.35 10.5 33.1 11.75 31.1 13.6 29.35 16.2 L28.1 18.15 Q32.45 16.0 36.8 16.65 M42.85 13.55 L44.7 13.9 M28.45 8.35 L29.5 6.3 M24.7 16.8 Q25.05 18.05 25.55 18.6 L25.9 18.9 26.15 19.0 Q26.95 19.15 28.1 18.15 30.85 16.15 33.55 15.05 38.35 12.95 42.85 13.55 M19.7 6.5 Q22.95 9.2 24.25 13.9 23.9 10.05 24.95 6.85 M24.4 15.3 L24.25 14.15 24.25 13.9 M24.4 15.3 L24.7 16.8 23.2 14.95 Q19.55 10.6 15.35 9.15 M18.7 14.0 L21.3 15.45 25.55 18.6 M24.65 21.6 L24.0 23.35 Q23.65 24.4 23.6 25.4 M27.95 26.7 Q27.5 24.2 27.95 20.9 L27.45 20.45 26.15 19.0 Q25.2 20.35 24.65 21.6 M33.0 24.45 L32.75 23.4 32.6 23.35 Q31.3 23.1 30.15 22.45 28.95 21.85 27.95 20.9 M24.0 23.35 Q21.45 23.9 19.1 23.45 M11.75 18.75 Q13.9 21.2 16.3 22.45 M11.4 18.3 L11.75 18.7 11.75 18.75 M33.05 25.15 L33.0 24.45 M36.15 23.5 L32.75 23.4 M38.1 10.35 Q33.6 11.8 29.35 16.2" fill="none" stroke="#9966cc" stroke-linecap="round" stroke-linejoin="round" stroke-width="0.05"/>
  </g>
</svg>
