<?xml version="1.0" encoding="UTF-8" standalone="no"?>
<svg xmlns:xlink="http://www.w3.org/1999/xlink" height="7.2px" width="8.4px" xmlns="http://www.w3.org/2000/svg">
  <g transform="matrix(1.0, 0.0, 0.0, 1.0, 4.2, 3.6)">
    <path d="M0.5 -3.25 Q-0.35 -3.3 -1.0 -2.85 -1.6 -2.4 -1.6 -1.8 -1.6 -1.2 -1.0 -0.75 -0.4 -0.35 0.5 -0.35 1.35 -0.4 2.0 -0.75 2.6 -1.15 2.6 -1.8 2.6 -2.4 2.0 -2.85 L0.5 -3.25 M0.0 -3.6 Q1.75 -3.6 2.95 -2.55 4.2 -1.45 4.2 0.1 4.2 1.65 2.95 2.65 1.7 3.6 -0.05 3.6 -1.8 3.6 -3.0 2.65 -4.2 1.65 -4.2 0.1 -4.2 -1.45 -3.0 -2.55 -1.75 -3.6 0.0 -3.6" fill="#cc0000" fill-rule="evenodd" stroke="none"/>
    <path d="M0.5 -3.25 L2.0 -2.85 Q2.6 -2.4 2.6 -1.8 2.6 -1.15 2.0 -0.75 1.35 -0.4 0.5 -0.35 -0.4 -0.35 -1.0 -0.75 -1.6 -1.2 -1.6 -1.8 -1.6 -2.4 -1.0 -2.85 -0.35 -3.3 0.5 -3.25" fill="#ff5b5b" fill-rule="evenodd" stroke="none"/>
  </g>
</svg>
