<?xml version="1.0" encoding="UTF-8" standalone="no"?>
<svg xmlns:xlink="http://www.w3.org/1999/xlink" height="42.85px" width="55.45px" xmlns="http://www.w3.org/2000/svg">
  <g transform="matrix(1.0, 0.0, 0.0, 1.0, 27.7, 21.4)">
    <path d="M12.85 -18.4 Q12.35 -17.55 12.4 -16.75 L12.4 -16.6 12.75 -12.5 Q12.85 -10.25 12.4 -8.1 L13.25 -8.25 13.35 -8.25 18.4 -7.95 18.35 -8.0 Q21.05 -7.6 23.65 -8.45 24.25 -8.65 24.8 -8.45 L24.85 -8.45 25.8 -7.8 26.25 -6.75 26.05 -5.6 26.05 -5.55 Q24.3 -2.4 21.5 -0.35 L24.0 1.3 Q25.85 2.75 27.3 4.55 L27.35 4.55 Q27.8 5.15 27.75 5.95 27.7 6.7 27.15 7.3 26.55 7.8 25.75 7.8 L25.7 7.8 25.55 7.8 24.25 7.8 23.95 7.8 19.15 8.1 19.2 8.1 19.05 8.15 19.1 8.1 Q17.05 8.7 15.2 9.6 L15.15 9.65 Q12.1 11.0 8.95 11.45 L7.95 12.2 7.9 12.2 7.75 12.3 6.9 12.75 6.75 12.85 6.2 14.6 6.1 14.7 4.95 17.55 4.9 17.6 4.9 18.0 5.05 18.4 Q5.45 19.05 5.35 19.8 5.2 20.5 4.65 21.0 L3.3 21.45 Q-1.7 21.25 -4.6 17.2 L-4.65 17.1 Q-5.95 15.25 -6.25 12.85 L-7.7 12.15 Q-12.05 9.65 -17.1 9.8 -19.8 10.2 -22.2 11.35 L-23.5 11.55 -24.6 10.85 Q-25.05 10.35 -25.1 9.65 -25.15 9.0 -24.75 8.45 -22.7 5.4 -19.65 3.5 -20.75 2.15 -22.1 1.05 L-22.15 0.95 Q-23.95 -0.65 -26.3 -1.4 -27.1 -1.65 -27.5 -2.4 -27.85 -3.15 -27.6 -3.95 -27.35 -4.75 -26.55 -5.1 -23.05 -6.85 -19.2 -7.45 L-19.25 -7.45 -19.1 -7.5 -19.05 -7.5 -17.6 -7.55 -19.1 -10.2 Q-21.1 -14.45 -20.2 -18.9 -20.1 -19.7 -19.4 -20.15 -18.75 -20.65 -17.95 -20.5 -17.15 -20.4 -16.65 -19.75 L-14.95 -17.75 -14.45 -17.4 -14.35 -17.35 -14.3 -17.35 Q-13.0 -16.7 -11.7 -16.2 -8.8 -15.25 -6.45 -13.5 L-6.35 -13.4 -3.5 -10.9 Q-1.3 -14.75 2.55 -17.3 6.25 -19.75 10.4 -21.25 L11.6 -21.3 12.65 -20.7 13.1 -19.6 12.85 -18.4" fill="#000000" fill-rule="evenodd" stroke="none"/>
    <path d="M-3.05 -7.15 Q-0.45 -15.25 10.9 -19.35 L11.1 -19.4 11.05 -19.35 Q10.25 -17.9 10.3 -16.35 L10.35 -15.9 Q10.9 -8.8 6.55 -5.4 4.45 -1.85 0.8 0.6 -0.9 -0.35 0.45 -5.65 L1.5 -7.7 Q-2.1 -5.5 -3.3 2.8 L-3.6 1.3 -3.75 0.15 -3.75 -0.1 -3.75 0.15 -3.6 1.3 Q-4.05 -0.3 -5.5 -1.55 -12.25 -5.65 -16.9 -10.1 -19.2 -14.25 -18.25 -18.55 -17.2 -16.1 -13.7 -14.65 -8.3 -13.45 -4.7 -9.35 -2.35 -3.6 -8.3 -7.5 -5.05 -4.8 -3.75 -0.1 -4.1 -3.95 -3.05 -7.15 M9.25 -5.25 Q13.3 -7.35 18.0 -6.55 21.25 -5.55 24.25 -6.55 20.9 -1.2 16.7 -0.1 19.05 0.5 21.35 1.85 24.25 3.8 25.65 5.75 L25.75 5.8 25.65 5.8 25.4 5.8 Q20.1 3.65 15.95 5.05 4.55 9.45 3.35 5.35 L4.3 4.4 Q6.2 2.65 8.8 2.65 7.7 1.5 5.55 1.05 10.35 -1.05 14.85 -0.45 10.55 -2.45 5.65 0.0 6.05 -1.1 10.1 -3.65 7.9 -4.4 5.1 -2.25 6.35 -3.5 7.75 -4.4 L9.25 -5.25 M5.05 11.15 Q5.1 13.9 2.9 16.65 2.15 18.75 3.35 19.45 0.4 19.3 -2.0 17.35 -4.55 14.7 -4.4 11.4 L-4.0 9.35 -3.35 7.6 Q-2.2 11.45 -0.05 12.7 -0.2 9.55 0.7 8.7 2.75 9.95 5.0 10.45 L5.05 11.15 M-16.6 4.3 L-16.85 4.0 Q-20.45 -1.55 -25.7 -3.3 -18.65 -7.0 -12.65 -4.85 -8.45 -3.4 -4.8 0.95 -6.3 1.25 -9.3 0.0 -8.05 0.6 -6.7 1.45 1.45 11.35 -16.25 4.75 L-16.25 4.7 -16.6 4.3 M16.7 -0.1 L14.85 -0.45 16.7 -0.1 M16.75 -5.55 Q13.1 -5.95 11.3 -4.55 18.65 -3.4 22.35 -5.35 L16.75 -5.55 M10.95 2.4 Q17.75 1.85 22.25 4.2 20.9 2.4 17.75 1.0 14.1 0.6 10.95 2.4 M-10.05 -1.65 Q-12.3 -3.65 -15.8 -4.55 -19.35 -5.55 -24.35 -3.4 -16.4 -4.25 -10.05 -1.65 M-12.55 -12.35 Q-14.9 -13.05 -16.25 -14.5 -13.2 -10.05 -7.85 -9.4 -8.9 -11.25 -12.55 -12.35 M-1.0 -7.8 Q6.0 -13.65 9.2 -17.5 2.75 -16.15 -1.0 -7.8 M-3.6 11.45 Q-4.65 16.4 1.85 18.4 -1.75 16.7 -3.6 11.45" fill="#8446c1" fill-rule="evenodd" stroke="none"/>
    <path d="M10.35 -15.9 L10.55 -14.95 Q11.3 -9.9 9.25 -5.25 L7.75 -4.4 Q6.35 -3.5 5.1 -2.25 7.9 -4.4 10.1 -3.65 6.05 -1.1 5.65 0.0 10.55 -2.45 14.85 -0.45 10.35 -1.05 5.55 1.05 7.7 1.5 8.8 2.65 6.2 2.65 4.3 4.4 L3.35 5.35 Q4.55 9.45 15.95 5.05 20.1 3.65 25.4 5.8 20.15 5.15 14.15 7.45 10.95 9.15 8.15 9.5 6.95 10.8 5.05 11.15 L5.0 10.45 Q2.75 9.95 0.7 8.7 -0.2 9.55 -0.05 12.7 -0.5 10.2 -0.05 6.9 0.95 7.85 2.15 8.45 3.3 9.1 4.6 9.35 L4.75 9.4 5.0 10.45 4.75 9.4 4.6 9.35 Q3.3 9.1 2.15 8.45 0.95 7.85 -0.05 6.9 -0.5 10.2 -0.05 12.7 -2.2 11.45 -3.35 7.6 L-4.0 9.35 -4.4 11.4 Q-7.1 10.85 -8.9 9.45 L-11.7 8.45 Q-17.1 6.55 -23.1 9.55 -20.2 5.25 -16.6 4.3 L-16.25 4.7 -16.25 4.75 Q1.45 11.35 -6.7 1.45 -8.05 0.6 -9.3 0.0 -6.3 1.25 -4.8 0.95 L-3.3 2.8 -4.8 0.95 Q-8.45 -3.4 -12.65 -4.85 -15.45 -7.45 -16.9 -10.1 -12.25 -5.65 -5.5 -1.55 -4.05 -0.3 -3.6 1.3 L-3.3 2.8 Q-2.1 -5.5 1.5 -7.7 L0.45 -5.65 Q-0.9 -0.35 0.8 0.6 4.45 -1.85 6.55 -5.4 10.9 -8.8 10.35 -15.9 M-4.7 -9.35 L-3.05 -7.15 Q-4.1 -3.95 -3.75 -0.1 -5.05 -4.8 -8.3 -7.5 -2.35 -3.6 -4.7 -9.35 M5.1 -2.25 Q3.1 -0.4 1.35 2.2 L0.1 4.15 Q-1.05 5.15 -1.85 5.0 L-2.1 4.9 -2.45 4.6 Q-2.95 4.05 -3.3 2.8 -2.95 4.05 -2.45 4.6 L-2.1 4.9 -1.85 5.0 Q-1.05 5.15 0.1 4.15 L1.35 2.2 Q3.1 -0.4 5.1 -2.25 M1.35 2.2 Q5.6 -2.2 10.1 -3.65 5.6 -2.2 1.35 2.2 M8.8 2.65 Q4.45 2.0 0.1 4.15 2.85 2.15 5.55 1.05 2.85 2.15 0.1 4.15 4.45 2.0 8.8 2.65 M4.75 9.4 L8.15 9.5 4.75 9.4 M-11.7 8.45 Q-14.1 7.2 -16.25 4.75 -14.1 7.2 -11.7 8.45 M-8.9 9.45 Q-6.55 9.9 -4.0 9.35 -6.55 9.9 -8.9 9.45 M-3.35 7.6 Q-2.8 6.35 -1.85 5.0 L-0.55 6.45 -0.05 6.9 -0.55 6.45 -1.85 5.0 Q-2.8 6.35 -3.35 7.6 M-2.45 4.6 L-6.7 1.45 -2.45 4.6 M-1.05 2.85 Q-1.35 -1.75 0.45 -5.65 -1.35 -1.75 -1.05 2.85" fill="#623193" fill-rule="evenodd" stroke="none"/>
    <path d="M16.75 -5.55 L22.35 -5.35 Q18.65 -3.4 11.3 -4.55 13.1 -5.95 16.75 -5.55 M10.95 2.4 Q14.1 0.6 17.75 1.0 20.9 2.4 22.25 4.2 17.75 1.85 10.95 2.4 M-12.55 -12.35 Q-8.9 -11.25 -7.85 -9.4 -13.2 -10.05 -16.25 -14.5 -14.9 -13.05 -12.55 -12.35 M-10.05 -1.65 Q-16.4 -4.25 -24.35 -3.4 -19.35 -5.55 -15.8 -4.55 -12.3 -3.65 -10.05 -1.65 M-3.6 11.45 Q-1.75 16.7 1.85 18.4 -4.65 16.4 -3.6 11.45 M-1.0 -7.8 Q2.75 -16.15 9.2 -17.5 6.0 -13.65 -1.0 -7.8" fill="#be9ede" fill-rule="evenodd" stroke="none"/>
    <path d="M-3.05 -7.15 Q-0.45 -15.25 10.9 -19.35 L11.1 -19.4 11.05 -19.35 Q10.25 -17.9 10.3 -16.35 M10.35 -15.9 L10.55 -14.95 Q11.3 -9.9 9.25 -5.25 13.3 -7.35 18.0 -6.55 21.25 -5.55 24.25 -6.55 20.9 -1.2 16.7 -0.1 19.05 0.5 21.35 1.85 24.25 3.8 25.65 5.75 L25.75 5.8 25.65 5.8 25.4 5.8 Q20.15 5.15 14.15 7.45 10.95 9.15 8.15 9.5 6.95 10.8 5.05 11.15 5.1 13.9 2.9 16.65 2.15 18.75 3.35 19.45 0.4 19.3 -2.0 17.35 -4.55 14.7 -4.4 11.4 -7.1 10.85 -8.9 9.45 L-11.7 8.45 Q-17.1 6.55 -23.1 9.55 -20.2 5.25 -16.6 4.3 L-16.85 4.0 Q-20.45 -1.55 -25.7 -3.3 -18.65 -7.0 -12.65 -4.85 -15.45 -7.45 -16.9 -10.1 -19.2 -14.25 -18.25 -18.55 -17.2 -16.1 -13.7 -14.65 -8.3 -13.45 -4.7 -9.35 L-3.05 -7.15 Q-4.1 -3.95 -3.75 -0.1 L-3.75 0.15 -3.6 1.3 -3.3 2.8 Q-2.95 4.05 -2.45 4.6 L-2.1 4.9 -1.85 5.0 Q-1.05 5.15 0.1 4.15 L1.35 2.2 Q3.1 -0.4 5.1 -2.25 6.35 -3.5 7.75 -4.4 L9.25 -5.25 M1.5 -7.7 L0.45 -5.65 Q-1.35 -1.75 -1.05 2.85 M14.85 -0.45 L16.7 -0.1 M5.0 10.45 L5.05 11.15 M5.0 10.45 L4.75 9.4 4.6 9.35 Q3.3 9.1 2.15 8.45 0.95 7.85 -0.05 6.9 -0.5 10.2 -0.05 12.7 M-3.35 7.6 L-4.0 9.35 -4.4 11.4 M8.15 9.5 L4.75 9.4 M5.55 1.05 Q2.85 2.15 0.1 4.15 4.45 2.0 8.8 2.65 M10.1 -3.65 Q5.6 -2.2 1.35 2.2 M14.85 -0.45 Q10.35 -1.05 5.55 1.05 M-8.3 -7.5 Q-5.05 -4.8 -3.75 -0.1 M-3.3 2.8 L-4.8 0.95 Q-8.45 -3.4 -12.65 -4.85 M-9.3 0.0 Q-8.05 0.6 -6.7 1.45 L-2.45 4.6 M-0.05 6.9 L-0.55 6.45 -1.85 5.0 Q-2.8 6.35 -3.35 7.6 M-4.0 9.35 Q-6.55 9.9 -8.9 9.45 M-16.25 4.75 Q-14.1 7.2 -11.7 8.45 M-16.6 4.3 L-16.25 4.7 -16.25 4.75" fill="none" stroke="#9966cc" stroke-linecap="round" stroke-linejoin="round" stroke-width="0.05"/>
  </g>
</svg>
