<?xml version="1.0" encoding="UTF-8" standalone="no"?>
<svg xmlns:xlink="http://www.w3.org/1999/xlink" height="121.05px" width="251.55px" xmlns="http://www.w3.org/2000/svg">
  <g transform="matrix(1.0, 0.0, 0.0, 1.0, 106.1, 3.05)">
    <path d="M-105.85 118.0 L105.85 118.0 Q70.45 110.85 78.0 91.2 67.45 102.6 61.85 101.0 45.85 92.85 47.95 62.1 30.25 47.15 38.85 0.0 30.05 23.9 26.0 26.8 22.0 35.4 19.2 25.35 9.7 32.9 2.2 20.7 2.65 36.6 -6.35 28.9 -16.9 44.7 -15.25 21.3 -36.7 80.15 -45.15 31.0 -76.1 116.1 -72.2 73.95 -88.25 109.8 -105.85 118.0" fill="url(#gradient0)" fill-rule="evenodd" stroke="none">
      <animate attributeName="d" dur="2s" repeatCount="indefinite" values="M-105.85 118.0 L105.85 118.0 Q70.45 110.85 78.0 91.2 67.45 102.6 61.85 101.0 45.85 92.85 47.95 62.1 30.25 47.15 38.85 0.0 30.05 23.9 26.0 26.8 22.0 35.4 19.2 25.35 9.7 32.9 2.2 20.7 2.65 36.6 -6.35 28.9 -16.9 44.7 -15.25 21.3 -36.7 80.15 -45.15 31.0 -76.1 116.1 -72.2 73.95 -88.25 109.8 -105.85 118.0;M-106.1 117.85 L145.45 117.9 Q71.9 111.45 144.35 79.45 70.85 104.0 104.4 75.3 51.6 95.25 86.45 59.7 47.0 54.3 71.75 15.7 52.35 33.4 47.6 36.0 41.55 43.7 47.55 6.9 33.7 11.65 26.1 -3.05 21.9 44.85 16.6 25.65 12.5 65.45 -1.25 39.7 -27.9 83.85 -11.5 39.3 -46.3 95.25 -46.5 55.05 -81.85 96.4 -106.1 117.85"/>
    </path>
    <path d="M-105.85 118.0 Q-88.25 109.8 -72.2 73.95 -76.1 116.1 -45.15 31.0 -36.7 80.15 -15.25 21.3 -16.9 44.7 -6.35 28.9 2.65 36.6 2.2 20.7 9.7 32.9 19.2 25.35 22.0 35.4 26.0 26.8 30.05 23.9 38.85 0.0 30.25 47.15 47.95 62.1 45.85 92.85 61.85 101.0 67.45 102.6 78.0 91.2 70.45 110.85 105.85 118.0 L-105.85 118.0" fill="none" stroke="#000000" stroke-linecap="round" stroke-linejoin="round" stroke-opacity="0.0" stroke-width="1.0">
      <animate attributeName="stroke" dur="2s" repeatCount="indefinite" values="#000000;#000001"/>
      <animate attributeName="stroke-width" dur="2s" repeatCount="indefinite" values="0.0;0.0"/>
      <animate attributeName="fill-opacity" dur="2s" repeatCount="indefinite" values="0.0;0.0"/>
      <animate attributeName="d" dur="2s" repeatCount="indefinite" values="M-105.85 118.0 Q-88.25 109.8 -72.2 73.95 -76.1 116.1 -45.15 31.0 -36.7 80.15 -15.25 21.3 -16.9 44.7 -6.35 28.9 2.65 36.6 2.2 20.7 9.7 32.9 19.2 25.35 22.0 35.4 26.0 26.8 30.05 23.9 38.85 0.0 30.25 47.15 47.95 62.1 45.85 92.85 61.85 101.0 67.45 102.6 78.0 91.2 70.45 110.85 105.85 118.0 L-105.85 118.0;M-106.1 117.85 Q-81.85 96.4 -46.5 55.05 -46.3 95.25 -11.5 39.3 -27.9 83.85 -1.25 39.7 12.5 65.45 16.6 25.65 21.9 44.85 26.1 -3.05 33.7 11.65 47.55 6.9 41.55 43.7 47.6 36.0 52.35 33.4 71.75 15.7 47.0 54.3 86.45 59.7 51.6 95.25 104.4 75.3 70.85 104.0 144.35 79.45 71.9 111.45 145.45 117.9 L-106.1 117.85"/>
    </path>
  </g>
  <defs>
    <linearGradient gradientTransform="matrix(0.1292, 0.0, -0.0173, 0.0646, 13.9, 64.9)" gradientUnits="userSpaceOnUse" id="gradient0" spreadMethod="pad" x1="-819.2" x2="819.2">
      <animateTransform additive="replace" attributeName="gradientTransform" dur="2s" from="1" repeatCount="indefinite" to="1" type="scale"/>
      <animateTransform additive="sum" attributeName="gradientTransform" dur="2s" from="13.9 64.9" repeatCount="indefinite" to="13.9 64.9" type="translate"/>
      <animateTransform additive="sum" attributeName="gradientTransform" dur="2s" from="0.0" repeatCount="indefinite" to="0.0" type="rotate"/>
      <animateTransform additive="sum" attributeName="gradientTransform" dur="2s" from="0.1292 0.0646" repeatCount="indefinite" to="0.1292 0.0646" type="scale"/>
      <animateTransform additive="sum" attributeName="gradientTransform" dur="2s" from="-7.6208" repeatCount="indefinite" to="-7.6208" type="skewX"/>
      <stop offset="0.0" stop-color="#d3d3d2">
        <animate attributeName="offset" dur="2s" repeatCount="indefinite" values="0.0;0.0"/>
        <animate attributeName="stop-color" dur="2s" repeatCount="indefinite" values="#d3d3d2;#d3d3d3"/>
        <animate attributeName="stop-opacity" dur="2s" repeatCount="indefinite" values="1.0;1.0"/>
      </stop>
      <stop offset="1.0" stop-color="#f3ac7b">
        <animate attributeName="offset" dur="2s" repeatCount="indefinite" values="1.0;1.0"/>
        <animate attributeName="stop-color" dur="2s" repeatCount="indefinite" values="#f3ac7b;#f3ac7c"/>
        <animate attributeName="stop-opacity" dur="2s" repeatCount="indefinite" values="1.0;1.0"/>
      </stop>
    </linearGradient>
  </defs>
</svg>
