<?xml version="1.0" encoding="UTF-8" standalone="no"?>
<svg xmlns:xlink="http://www.w3.org/1999/xlink" height="120.95px" width="253.25px" xmlns="http://www.w3.org/2000/svg">
  <g transform="matrix(1.0, 0.0, 0.0, 1.0, 107.8, 3.05)">
    <path d="M-106.1 117.85 L145.45 117.9 Q71.9 111.45 144.35 79.45 70.85 104.0 104.4 75.3 51.6 95.25 86.45 59.7 47.0 54.3 71.75 15.7 52.35 33.4 47.6 36.0 41.55 43.7 47.55 6.9 33.7 11.65 26.1 -3.05 21.9 44.85 16.6 25.65 12.5 65.45 -1.25 39.7 -27.9 83.85 -11.5 39.3 -46.3 95.25 -46.5 55.05 -81.85 96.4 -106.1 117.85" fill="url(#gradient0)" fill-rule="evenodd" stroke="none">
      <animate attributeName="d" dur="2s" repeatCount="indefinite" values="M-106.1 117.85 L145.45 117.9 Q71.9 111.45 144.35 79.45 70.85 104.0 104.4 75.3 51.6 95.25 86.45 59.7 47.0 54.3 71.75 15.7 52.35 33.4 47.6 36.0 41.55 43.7 47.55 6.9 33.7 11.65 26.1 -3.05 21.9 44.85 16.6 25.65 12.5 65.45 -1.25 39.7 -27.9 83.85 -11.5 39.3 -46.3 95.25 -46.5 55.05 -81.85 96.4 -106.1 117.85;M-107.8 117.9 L125.05 117.85 Q108.95 110.5 129.85 66.85 98.4 88.55 91.1 26.85 63.15 83.85 57.75 39.7 44.15 53.4 46.7 25.65 32.1 44.85 51.0 -3.05 36.3 11.65 24.75 6.9 13.05 43.7 10.7 36.0 7.15 33.4 -3.7 15.7 2.45 54.3 -20.65 36.85 -21.85 95.25 -31.95 61.5 -45.3 104.0 -49.7 52.4 -80.9 116.2 -107.8 117.9"/>
    </path>
    <path d="M-106.1 117.85 Q-81.85 96.4 -46.5 55.05 -46.3 95.25 -11.5 39.3 -27.9 83.85 -1.25 39.7 12.5 65.45 16.6 25.65 21.9 44.85 26.1 -3.05 33.7 11.65 47.55 6.9 41.55 43.7 47.6 36.0 52.35 33.4 71.75 15.7 47.0 54.3 86.45 59.7 51.6 95.25 104.4 75.3 70.85 104.0 144.35 79.45 71.9 111.45 145.45 117.9 L-106.1 117.85" fill="none" stroke="#000000" stroke-linecap="round" stroke-linejoin="round" stroke-opacity="0.0" stroke-width="1.0">
      <animate attributeName="stroke" dur="2s" repeatCount="indefinite" values="#000000;#000001"/>
      <animate attributeName="stroke-width" dur="2s" repeatCount="indefinite" values="0.0;0.0"/>
      <animate attributeName="fill-opacity" dur="2s" repeatCount="indefinite" values="0.0;0.0"/>
      <animate attributeName="d" dur="2s" repeatCount="indefinite" values="M-106.1 117.85 Q-81.85 96.4 -46.5 55.05 -46.3 95.25 -11.5 39.3 -27.9 83.85 -1.25 39.7 12.5 65.45 16.6 25.65 21.9 44.85 26.1 -3.05 33.7 11.65 47.55 6.9 41.55 43.7 47.6 36.0 52.35 33.4 71.75 15.7 47.0 54.3 86.45 59.7 51.6 95.25 104.4 75.3 70.85 104.0 144.35 79.45 71.9 111.45 145.45 117.9 L-106.1 117.85;M-107.8 117.9 Q-80.9 116.2 -49.7 52.4 -45.3 104.0 -31.95 61.5 -21.85 95.25 -20.65 36.85 2.45 54.3 -3.7 15.7 7.15 33.4 10.7 36.0 13.05 43.7 24.75 6.9 36.3 11.65 51.0 -3.05 32.1 44.85 46.7 25.65 44.15 53.4 57.75 39.7 63.15 83.85 91.1 26.85 98.4 88.55 129.85 66.85 108.95 110.5 125.05 117.85 L-107.8 117.9"/>
    </path>
  </g>
  <defs>
    <linearGradient gradientTransform="matrix(0.1292, 0.0, -0.0173, 0.0646, 13.9, 64.9)" gradientUnits="userSpaceOnUse" id="gradient0" spreadMethod="pad" x1="-819.2" x2="819.2">
      <animateTransform additive="replace" attributeName="gradientTransform" dur="2s" from="1" repeatCount="indefinite" to="1" type="scale"/>
      <animateTransform additive="sum" attributeName="gradientTransform" dur="2s" from="13.9 64.9" repeatCount="indefinite" to="9.35 64.9" type="translate"/>
      <animateTransform additive="sum" attributeName="gradientTransform" dur="2s" from="0.0" repeatCount="indefinite" to="0.0" type="rotate"/>
      <animateTransform additive="sum" attributeName="gradientTransform" dur="2s" from="0.1292 0.0646" repeatCount="indefinite" to="0.1292 0.0646" type="scale"/>
      <animateTransform additive="sum" attributeName="gradientTransform" dur="2s" from="-7.6208" repeatCount="indefinite" to="-20.5293" type="skewX"/>
      <stop offset="0.0" stop-color="#d3d3d2">
        <animate attributeName="offset" dur="2s" repeatCount="indefinite" values="0.0;0.0"/>
        <animate attributeName="stop-color" dur="2s" repeatCount="indefinite" values="#d3d3d2;#d3d3d3"/>
        <animate attributeName="stop-opacity" dur="2s" repeatCount="indefinite" values="1.0;1.0"/>
      </stop>
      <stop offset="1.0" stop-color="#f3ac7b">
        <animate attributeName="offset" dur="2s" repeatCount="indefinite" values="1.0;1.0"/>
        <animate attributeName="stop-color" dur="2s" repeatCount="indefinite" values="#f3ac7b;#f3ac7c"/>
        <animate attributeName="stop-opacity" dur="2s" repeatCount="indefinite" values="1.0;1.0"/>
      </stop>
    </linearGradient>
  </defs>
</svg>
