<?xml version="1.0" encoding="UTF-8" standalone="no"?>
<svg xmlns:xlink="http://www.w3.org/1999/xlink" height="121.05px" width="237.65px" xmlns="http://www.w3.org/2000/svg">
  <g transform="matrix(1.0, 0.0, 0.0, 1.0, 107.8, 3.05)">
    <path d="M-107.8 117.9 L125.05 117.85 Q108.95 110.5 129.85 66.85 98.4 88.55 91.1 26.85 63.15 83.85 57.75 39.7 44.15 53.4 46.7 25.65 32.1 44.85 51.0 -3.05 36.3 11.65 24.75 6.9 13.05 43.7 10.7 36.0 7.15 33.4 -3.7 15.7 2.45 54.3 -20.65 36.85 -21.85 95.25 -31.95 61.5 -45.3 104.0 -49.7 52.4 -80.9 116.2 -107.8 117.9" fill="url(#gradient0)" fill-rule="evenodd" stroke="none">
      <animate attributeName="d" dur="2s" repeatCount="indefinite" values="M-107.8 117.9 L125.05 117.85 Q108.95 110.5 129.85 66.85 98.4 88.55 91.1 26.85 63.15 83.85 57.75 39.7 44.15 53.4 46.7 25.65 32.1 44.85 51.0 -3.05 36.3 11.65 24.75 6.9 13.05 43.7 10.7 36.0 7.15 33.4 -3.7 15.7 2.45 54.3 -20.65 36.85 -21.85 95.25 -31.95 61.5 -45.3 104.0 -49.7 52.4 -80.9 116.2 -107.8 117.9;M-105.85 118.0 L105.85 118.0 Q91.9 109.8 91.85 73.95 76.95 116.1 84.0 31.0 53.6 80.15 58.4 21.3 49.65 44.7 46.1 28.9 33.65 36.6 41.25 20.7 28.3 32.9 22.15 25.35 14.9 35.4 14.7 26.8 11.95 23.9 13.8 0.0 1.35 47.15 -25.05 33.65 -34.6 92.85 -39.7 46.95 -60.55 102.6 -54.3 35.75 -67.3 110.85 -105.85 118.0"/>
    </path>
    <path d="M-107.8 117.9 Q-80.9 116.2 -49.7 52.4 -45.3 104.0 -31.95 61.5 -21.85 95.25 -20.65 36.85 2.45 54.3 -3.7 15.7 7.15 33.4 10.7 36.0 13.05 43.7 24.75 6.9 36.3 11.65 51.0 -3.05 32.1 44.85 46.7 25.65 44.15 53.4 57.75 39.7 63.15 83.85 91.1 26.85 98.4 88.55 129.85 66.85 108.95 110.5 125.05 117.85 L-107.8 117.9" fill="none" stroke="#000000" stroke-linecap="round" stroke-linejoin="round" stroke-opacity="0.0" stroke-width="1.0">
      <animate attributeName="stroke" dur="2s" repeatCount="indefinite" values="#000000;#000001"/>
      <animate attributeName="stroke-width" dur="2s" repeatCount="indefinite" values="0.0;0.0"/>
      <animate attributeName="fill-opacity" dur="2s" repeatCount="indefinite" values="0.0;0.0"/>
      <animate attributeName="d" dur="2s" repeatCount="indefinite" values="M-107.8 117.9 Q-80.9 116.2 -49.7 52.4 -45.3 104.0 -31.95 61.5 -21.85 95.25 -20.65 36.85 2.45 54.3 -3.7 15.7 7.15 33.4 10.7 36.0 13.05 43.7 24.75 6.9 36.3 11.65 51.0 -3.05 32.1 44.85 46.7 25.65 44.15 53.4 57.75 39.7 63.15 83.85 91.1 26.85 98.4 88.55 129.85 66.85 108.95 110.5 125.05 117.85 L-107.8 117.9;M-105.85 118.0 Q-67.3 110.85 -54.3 35.75 -60.55 102.6 -39.7 46.95 -34.6 92.85 -25.05 33.65 1.35 47.15 13.8 0.0 11.95 23.9 14.7 26.8 14.9 35.4 22.15 25.35 28.3 32.9 41.25 20.7 33.65 36.6 46.1 28.9 49.65 44.7 58.4 21.3 53.6 80.15 84.0 31.0 76.95 116.1 91.85 73.95 91.9 109.8 105.85 118.0 L-105.85 118.0"/>
    </path>
  </g>
  <defs>
    <linearGradient gradientTransform="matrix(0.1292, 0.0, -0.0484, 0.0646, 9.35, 64.9)" gradientUnits="userSpaceOnUse" id="gradient0" spreadMethod="pad" x1="-819.2" x2="819.2">
      <animateTransform additive="replace" attributeName="gradientTransform" dur="2s" from="1" repeatCount="indefinite" to="1" type="scale"/>
      <animateTransform additive="sum" attributeName="gradientTransform" dur="2s" from="9.35 64.9" repeatCount="indefinite" to="37.6 64.9" type="translate"/>
      <animateTransform additive="sum" attributeName="gradientTransform" dur="2s" from="0.0" repeatCount="indefinite" to="0.0" type="rotate"/>
      <animateTransform additive="sum" attributeName="gradientTransform" dur="2s" from="0.1292 0.0646" repeatCount="indefinite" to="0.1292 0.0646" type="scale"/>
      <animateTransform additive="sum" attributeName="gradientTransform" dur="2s" from="-20.5293" repeatCount="indefinite" to="-19.6461" type="skewX"/>
      <stop offset="0.0" stop-color="#d3d3d2">
        <animate attributeName="offset" dur="2s" repeatCount="indefinite" values="0.0;0.0"/>
        <animate attributeName="stop-color" dur="2s" repeatCount="indefinite" values="#d3d3d2;#d3d3d3"/>
        <animate attributeName="stop-opacity" dur="2s" repeatCount="indefinite" values="1.0;1.0"/>
      </stop>
      <stop offset="1.0" stop-color="#f3ac7b">
        <animate attributeName="offset" dur="2s" repeatCount="indefinite" values="1.0;1.0"/>
        <animate attributeName="stop-color" dur="2s" repeatCount="indefinite" values="#f3ac7b;#f3ac7c"/>
        <animate attributeName="stop-opacity" dur="2s" repeatCount="indefinite" values="1.0;1.0"/>
      </stop>
    </linearGradient>
  </defs>
</svg>
