<?xml version="1.0" encoding="UTF-8" standalone="no"?>
<svg xmlns:xlink="http://www.w3.org/1999/xlink" height="135.3px" width="58.75px" xmlns="http://www.w3.org/2000/svg">
  <g transform="matrix(1.0, 0.0, 0.0, 1.0, 45.35, 135.65)">
    <path d="M2.5 -114.4 L2.1 -115.25 2.5 -104.95 3.35 -105.45 3.3 -105.35 3.65 -105.1 Q1.9 -104.55 0.3 -105.1 L0.25 -105.1 0.25 -105.15 0.15 -105.15 0.25 -105.15 0.25 -105.1 0.3 -105.1 Q1.9 -104.55 3.65 -105.1 L3.55 -92.35 Q3.35 -91.75 2.95 -91.55 3.35 -91.75 3.55 -92.35 L10.7 -88.9 10.55 -86.95 10.55 -86.85 11.7 -87.2 11.25 -86.9 11.2 -86.85 11.2 -0.7 12.0 -1.05 12.0 -1.0 11.0 -0.6 10.3 -0.35 10.3 -0.5 10.3 -0.35 -45.35 -27.5 -45.35 -114.0 -45.3 -113.95 -45.25 -114.05 -45.05 -114.05 Q-44.05 -122.55 -39.05 -127.3 -33.55 -132.6 -27.65 -134.1 -32.1 -132.3 -36.35 -128.2 -41.4 -123.35 -42.4 -114.75 L-43.8 -114.25 -42.2 -114.55 -36.35 -112.0 -36.3 -117.3 -36.15 -117.3 -36.2 -117.3 -36.2 -117.35 -36.3 -117.35 -36.35 -117.4 -36.4 -117.4 -36.7 -117.5 -37.2 -117.8 -37.3 -117.85 -34.5 -128.2 -31.65 -117.85 -32.1 -117.6 -34.5 -125.65 -34.7 -117.15 -32.95 -117.25 -32.8 -117.3 -32.8 -110.6 -27.0 -107.65 -26.95 -120.5 -27.0 -120.55 -27.05 -120.55 -27.35 -120.65 -27.85 -120.95 -27.95 -121.0 -25.15 -131.35 -22.3 -121.0 -22.9 -120.7 -24.9 -129.1 -25.2 -120.35 -25.15 -120.3 -23.45 -120.45 -23.5 -106.05 -18.1 -103.15 -18.05 -119.7 -17.95 -119.7 -17.95 -119.75 -18.05 -119.75 -18.1 -119.8 -18.15 -119.8 -18.45 -119.9 -18.95 -120.2 -19.05 -120.25 -16.25 -130.6 -13.4 -120.25 -13.7 -120.1 -16.1 -128.4 -16.05 -119.55 -16.0 -119.5 -17.9 -119.7 -17.95 -119.7 -17.9 -119.7 -16.0 -119.5 -15.9 -119.5 -14.55 -119.6 -14.45 -118.2 -14.55 -118.65 -14.6 -101.45 -9.25 -98.6 -9.15 -114.6 -9.05 -114.6 -9.05 -114.65 -9.15 -114.65 -9.2 -114.7 -9.25 -114.7 -9.55 -114.8 -10.05 -115.1 -10.15 -115.15 -7.35 -125.5 -4.5 -115.15 -4.6 -115.1 -4.95 -114.9 -6.75 -122.7 -6.8 -114.6 -5.25 -114.75 -5.45 -114.65 -5.55 -114.65 -5.6 -114.6 -5.65 -114.6 -5.75 -96.9 0.1 -94.05 0.15 -105.15 0.1 -105.2 0.05 -105.2 -0.25 -105.3 -0.75 -105.6 -0.85 -105.65 1.95 -116.0 2.5 -114.4 4.8 -105.65 4.7 -105.6 4.4 -105.45 2.5 -114.4 M2.95 -91.55 L3.2 -103.95 2.3 -104.0 2.25 -92.1 2.15 -91.75 2.85 -91.55 2.95 -91.5 2.95 -91.55 M10.55 -86.95 L10.4 -86.9 10.3 -86.85 9.3 -87.35 10.3 -86.85 10.4 -86.9 10.55 -86.95 M12.5 -87.5 L12.8 -87.6 12.8 -1.35 12.2 -1.1 12.2 -1.2 12.5 -1.35 12.5 -87.5 M-45.1 -113.85 L-45.05 -114.05 -45.1 -113.85 -45.05 -113.85 -45.0 -113.9 -45.05 -113.85 -45.1 -113.85 -45.3 -113.95 -45.1 -113.85 M-44.95 -113.9 L-45.0 -113.9 -44.5 -113.6 -44.5 -27.8 -45.35 -27.5 -44.5 -27.8 -44.5 -27.5 -43.6 -28.15 -43.2 -28.5 -43.2 -112.75 -44.5 -113.6 -45.05 -113.85 -44.5 -113.6 -44.95 -113.9 -43.8 -114.25 -44.95 -113.9 M0.1 -91.8 L1.1 -91.35 0.1 -91.8 -5.75 -94.65 -7.4 -95.5 -5.75 -94.65 -6.0 -10.5 -6.65 -10.2 -6.35 -10.5 -6.25 -94.65 -7.4 -95.5 -8.25 -95.9 -9.3 -96.4 -8.25 -95.9 -7.4 -95.5 -7.4 -95.9 -7.4 -95.5 -7.5 -10.65 -7.1 -10.1 -6.65 -10.2 -6.0 -10.5 -0.2 -7.7 -0.15 -7.65 -0.2 -8.0 0.1 -91.8 M0.1 -94.05 L0.1 -92.35 Q1.4 -91.25 2.85 -91.55 1.4 -91.25 0.1 -92.35 L0.1 -94.05 M-0.1 -6.6 L-0.15 -7.65 -0.1 -6.6 -0.15 -6.45 Q1.15 -5.15 2.45 -5.4 1.15 -5.15 -0.15 -6.45 L-0.1 -6.6 M2.1 -90.85 L2.0 -6.1 2.45 -5.4 2.8 -5.55 3.0 -6.0 3.15 -90.1 2.1 -90.85 1.1 -91.3 2.1 -90.85 3.6 -90.1 2.1 -90.85 M1.1 -91.35 L1.1 -89.95 1.1 -91.3 1.1 -91.35 M3.3 -6.0 L2.8 -5.55 3.3 -6.0 9.3 -3.05 9.3 -87.35 3.6 -90.1 3.3 -6.0 M9.3 -1.95 L9.3 -3.05 9.3 -1.95 Q9.4 -0.5 10.3 -0.5 9.4 -0.5 9.3 -1.95 M-41.85 -112.25 L-44.5 -113.6 -41.85 -112.25 -42.05 -28.1 -42.85 -28.5 -43.6 -28.15 -42.85 -28.5 -42.05 -28.1 -36.35 -25.35 -36.35 -24.25 Q-35.7 -23.15 -34.9 -23.35 L-34.3 -23.65 -33.85 -24.1 -33.05 -23.7 -33.85 -24.1 -34.3 -23.65 -34.9 -23.35 Q-35.7 -23.15 -36.35 -24.25 L-36.35 -25.35 -36.35 -109.6 -41.85 -112.25 M-32.8 -107.85 L-33.8 -108.35 -35.5 -109.15 -36.35 -109.6 -35.5 -109.15 -33.8 -108.35 -32.8 -107.85 -33.05 -23.7 -27.05 -20.8 -27.05 -19.7 Q-26.45 -18.75 -25.65 -18.9 L-25.2 -19.1 -24.55 -19.6 -23.75 -19.2 -24.55 -19.6 -25.2 -19.1 -25.65 -18.9 Q-26.45 -18.75 -27.05 -19.7 L-27.05 -20.8 -27.0 -105.0 -32.8 -107.85 M-23.5 -103.3 L-26.1 -104.6 -27.0 -105.0 -26.1 -104.6 -23.5 -103.3 -23.75 -19.2 -18.3 -16.55 -18.25 -16.5 -18.1 -46.45 -16.85 -45.85 -14.9 -44.9 -15.0 -14.9 -15.25 -15.05 Q-15.65 -14.75 -16.0 -14.65 -15.65 -14.75 -15.25 -15.05 L-15.0 -14.9 -9.5 -12.25 -9.3 -96.4 -14.8 -99.1 -15.1 -99.2 -16.75 -100.0 -17.6 -100.4 -16.75 -100.0 -15.1 -99.2 -14.8 -99.1 -14.95 -59.35 -15.9 -58.55 -14.95 -59.35 -14.95 -59.3 -11.5 -57.65 -11.5 -57.6 -13.55 -56.25 -11.5 -57.6 -11.5 -45.7 -13.55 -44.3 -13.55 -56.25 -21.9 -60.2 -19.85 -61.55 -19.85 -61.6 -18.1 -60.8 -18.0 -100.6 -23.5 -103.3 M-17.6 -100.45 L-18.0 -100.6 -17.6 -100.45 -17.6 -99.25 -17.6 -100.4 -17.6 -100.45 M-26.95 -120.5 L-26.85 -120.5 -26.95 -120.5 M-25.15 -120.3 L-26.8 -120.45 -26.85 -120.45 -26.85 -120.5 -26.85 -120.45 -26.8 -120.45 -25.15 -120.3 M-25.85 -119.3 L-25.9 -105.35 -24.9 -105.7 -24.9 -119.45 -25.8 -119.35 -25.85 -119.3 M-34.3 -110.15 L-34.25 -116.55 -35.25 -116.35 -35.25 -109.9 -35.25 -109.8 -35.15 -109.9 -34.4 -110.1 -35.15 -109.9 -35.0 -110.05 -34.4 -110.1 -34.3 -110.1 -34.3 -110.15 -32.8 -110.6 -34.3 -110.15 M-32.95 -117.25 Q-34.7 -116.8 -36.15 -117.3 -34.7 -116.8 -32.95 -117.25 M-36.35 -112.0 L-36.35 -110.2 -35.25 -109.9 -36.35 -110.2 -36.35 -112.0 M-33.8 -108.35 L-33.8 -107.15 -33.8 -108.35 M-35.5 -109.15 L-35.5 -24.25 -35.0 -23.35 -34.9 -23.4 Q-34.7 -23.45 -34.4 -23.65 L-34.15 -24.1 -34.15 -108.35 -35.5 -109.15 M-23.5 -106.05 Q-23.9 -105.35 -25.05 -105.25 -26.15 -105.15 -27.0 -105.65 L-27.0 -107.65 -27.0 -105.65 Q-26.15 -105.15 -25.05 -105.25 -23.9 -105.35 -23.5 -106.05 M-24.9 -105.7 L-24.9 -105.65 -23.75 -105.75 -24.9 -105.7 M-26.1 -104.6 L-26.15 -19.7 -25.7 -18.9 -25.65 -18.9 -25.35 -19.1 -25.05 -19.6 -25.0 -103.8 -26.1 -104.6 M-5.65 -114.6 Q-7.4 -114.05 -9.0 -114.6 L-9.05 -114.6 -9.0 -114.6 Q-7.4 -114.05 -5.65 -114.6 M-6.3 -96.3 L-6.05 -113.4 -7.1 -113.25 -7.1 -96.5 -7.0 -96.3 -6.3 -96.3 -5.75 -96.9 -6.3 -96.3 -7.7 -96.2 Q-8.7 -96.4 -9.25 -97.0 L-9.25 -98.6 -9.25 -97.0 Q-8.7 -96.4 -7.7 -96.2 L-6.3 -96.3 M-15.65 -118.5 L-15.5 -118.5 -15.65 -118.6 -15.65 -118.5 -16.55 -118.2 -16.5 -100.55 -15.5 -100.9 -15.65 -118.5 M-15.9 -58.55 Q-15.65 -58.75 -15.55 -59.4 L-15.5 -99.2 -16.75 -100.0 -16.8 -58.95 Q-16.45 -58.55 -16.15 -58.45 -16.95 -58.4 -18.1 -58.95 L-18.1 -60.8 -18.1 -58.95 Q-16.95 -58.4 -16.15 -58.45 L-15.9 -58.55 M-14.6 -101.45 Q-15.0 -100.65 -16.1 -100.5 -17.2 -100.4 -18.1 -100.95 L-18.1 -103.15 -18.1 -100.95 Q-17.2 -100.4 -16.1 -100.5 -15.0 -100.65 -14.6 -101.45 M-18.45 -52.2 L-18.7 -53.5 -18.35 -54.75 -17.65 -55.35 Q-17.25 -55.35 -16.95 -54.75 -16.65 -54.1 -16.65 -53.2 -16.65 -52.3 -16.95 -51.7 L-17.15 -50.95 -17.15 -48.25 -18.05 -48.7 -18.05 -51.35 -18.45 -52.2 M-16.0 -14.65 L-15.6 -15.05 -15.6 -45.05 -16.85 -45.85 -16.85 -15.15 -16.4 -14.55 -16.0 -14.65 M-18.2 -15.4 L-18.3 -16.55 -18.2 -15.4 Q-17.15 -14.45 -16.4 -14.55 -17.15 -14.45 -18.2 -15.4 M-9.5 -12.25 L-9.35 -11.65 -8.5 -10.65 Q-7.95 -10.0 -7.1 -10.1 -7.95 -10.0 -8.5 -10.65 L-9.35 -11.65 -9.5 -12.25" fill="#666666" fill-rule="evenodd" stroke="none"/>
    <path d="M10.7 -88.9 L10.7 -89.0 Q11.1 -102.3 5.55 -112.35 -4.35 -130.0 -16.75 -133.8 L-27.65 -134.1 Q-21.1 -136.85 -14.05 -134.7 -1.65 -130.9 8.25 -113.25 14.25 -102.4 13.25 -87.75 L12.8 -87.6 12.5 -87.5 11.7 -87.2 10.55 -86.85 10.55 -86.95 10.7 -88.9" fill="#9e9e9e" fill-rule="evenodd" stroke="none"/>
    <path d="M3.65 -105.1 L3.3 -105.35 3.35 -105.45 2.5 -104.95 2.1 -115.25 2.5 -114.4 4.4 -105.45 3.85 -105.15 3.75 -105.15 3.7 -105.1 3.65 -105.1 M2.85 -91.55 L2.15 -91.75 2.25 -92.1 2.3 -104.0 3.2 -103.95 2.95 -91.55 2.85 -91.55 M-32.1 -117.6 L-32.6 -117.35 -32.7 -117.35 -32.75 -117.3 -32.8 -117.3 -32.95 -117.25 -34.7 -117.15 -34.5 -125.65 -32.1 -117.6 M-22.9 -120.7 L-23.25 -120.5 -23.35 -120.5 -23.4 -120.45 -23.45 -120.45 -25.15 -120.3 -25.2 -120.35 -24.9 -129.1 -22.9 -120.7 M-13.7 -120.1 Q-14.0 -119.9 -14.35 -119.75 L-14.45 -119.75 -14.5 -119.7 -14.55 -119.7 -16.0 -119.5 -16.05 -119.55 -16.1 -128.4 -13.7 -120.1 M-4.95 -114.9 L-5.25 -114.75 -6.8 -114.6 -6.75 -122.7 -4.95 -114.9 M11.7 -87.2 L12.5 -87.5 12.5 -1.35 12.2 -1.2 12.2 -1.1 12.2 -0.7 12.0 -1.0 12.0 -1.05 11.2 -0.7 11.2 -86.85 11.25 -86.9 11.7 -87.2 M-45.0 -113.9 L-44.95 -113.9 -44.5 -113.6 -43.2 -112.75 -43.2 -28.5 -43.6 -28.15 -44.5 -27.5 -44.5 -27.8 -44.5 -113.6 -45.0 -113.9 M2.45 -5.4 L2.0 -6.1 2.1 -90.85 3.15 -90.1 3.0 -6.0 2.8 -5.55 2.45 -5.4 M-7.4 -95.5 L-7.4 -95.9 -7.4 -95.5 -6.25 -94.65 -6.35 -10.5 -6.65 -10.2 -7.1 -10.1 -7.5 -10.65 -7.4 -95.5 M-25.85 -119.3 L-25.8 -119.35 -24.9 -119.45 -24.9 -105.7 -25.9 -105.35 -25.85 -119.3 M-35.25 -109.9 L-35.25 -116.35 -34.25 -116.55 -34.3 -110.15 -34.4 -110.1 -35.0 -110.05 -35.15 -109.9 -35.25 -109.9 M-35.5 -109.15 L-34.15 -108.35 -34.15 -24.1 -34.4 -23.65 Q-34.7 -23.45 -34.9 -23.4 L-35.0 -23.35 -35.5 -24.25 -35.5 -109.15 M-26.1 -104.6 L-25.0 -103.8 -25.05 -19.6 -25.35 -19.1 -25.65 -18.9 -25.7 -18.9 -26.15 -19.7 -26.1 -104.6 M-6.3 -96.3 L-7.0 -96.3 -7.1 -96.5 -7.1 -113.25 -6.05 -113.4 -6.3 -96.3 M-15.65 -118.5 L-15.5 -100.9 -16.5 -100.55 -16.55 -118.2 -15.65 -118.5 M-16.75 -100.0 L-15.5 -99.2 -15.55 -59.4 Q-15.65 -58.75 -15.9 -58.55 L-16.15 -58.45 Q-16.45 -58.55 -16.8 -58.95 L-16.75 -100.0 M-21.9 -60.2 L-13.55 -56.25 -13.55 -44.3 -14.9 -44.9 -16.85 -45.85 -15.6 -45.05 -15.6 -15.05 -16.0 -14.65 -16.4 -14.55 -16.85 -15.15 -16.85 -45.85 -18.1 -46.45 -21.9 -48.25 -21.9 -60.2 M-18.45 -52.2 L-18.05 -51.35 -18.05 -48.7 -17.15 -48.25 -17.15 -50.95 -16.95 -51.7 Q-16.65 -52.3 -16.65 -53.2 -16.65 -54.1 -16.95 -54.75 -17.25 -55.35 -17.65 -55.35 L-18.35 -54.75 -18.7 -53.5 -18.45 -52.2" fill="#b4b4b4" fill-rule="evenodd" stroke="none"/>
    <path d="M-14.55 -119.7 L-14.55 -119.6 -15.9 -119.5 -16.0 -119.5 -14.55 -119.7 M2.95 -91.55 L2.95 -91.5 2.85 -91.55 2.95 -91.55 M-35.15 -109.9 L-35.25 -109.8 -35.25 -109.9 -35.15 -109.9 M-34.4 -110.1 L-34.3 -110.15 -34.3 -110.1 -34.4 -110.1 M-24.9 -105.7 L-23.75 -105.75 -24.9 -105.65 -24.9 -105.7 M-15.65 -118.5 L-15.65 -118.6 -15.5 -118.5 -15.65 -118.5" fill="#999999" fill-rule="evenodd" stroke="none"/>
    <path d="M2.5 -114.4 L1.95 -116.0 -0.85 -105.65 -0.75 -105.6 -0.25 -105.3 0.05 -105.2 0.1 -105.2 0.15 -105.15 M2.5 -114.4 L4.8 -105.65 4.7 -105.6 4.4 -105.45 M3.55 -92.35 L3.65 -105.1 M-42.4 -114.75 L-43.8 -114.25 -44.95 -113.9 -45.0 -113.9 -45.05 -113.85 -45.1 -113.85 M-36.3 -117.35 L-36.35 -117.4 -36.4 -117.4 -36.7 -117.5 -37.2 -117.8 -37.3 -117.85 -34.5 -128.2 -31.65 -117.85 -32.1 -117.6 M-32.8 -117.3 L-32.8 -110.6 M-26.95 -120.5 L-27.0 -120.55 -27.05 -120.55 -27.35 -120.65 -27.85 -120.95 -27.95 -121.0 -25.15 -131.35 -22.3 -121.0 -22.9 -120.7 M-23.45 -120.45 L-23.5 -106.05 M-18.05 -119.75 L-18.1 -119.8 -18.15 -119.8 -18.45 -119.9 -18.95 -120.2 -19.05 -120.25 -16.25 -130.6 -13.4 -120.25 -13.7 -120.1 M-14.55 -119.6 L-14.45 -118.2 -14.55 -118.65 -14.6 -101.45 M-9.15 -114.65 L-9.2 -114.7 -9.25 -114.7 -9.55 -114.8 -10.05 -115.1 -10.15 -115.15 -7.35 -125.5 -4.5 -115.15 -4.6 -115.1 -4.95 -114.9 M-5.65 -114.6 L-5.75 -96.9 M10.55 -86.85 L11.7 -87.2 12.5 -87.5 12.8 -87.6 13.25 -87.75 M-0.2 -8.0 L-0.15 -7.65 -0.1 -6.6 M3.3 -6.0 L3.6 -90.1 M9.3 -1.95 Q9.4 -0.5 10.3 -0.5 M12.8 -87.6 L12.8 -1.35 M-14.95 -59.35 L-14.8 -99.1 M-18.3 -16.55 L-18.2 -15.4 M-42.05 -28.1 L-41.85 -112.25 M-6.0 -10.5 L-5.75 -94.65 M-23.75 -19.2 L-23.5 -103.3 M-33.05 -23.7 L-32.8 -107.85" fill="none" stroke="#444444" stroke-linecap="round" stroke-linejoin="round" stroke-width="0.05"/>
    <path d="M-15.0 -14.9 L-14.9 -44.9" fill="none" stroke="#555555" stroke-linecap="round" stroke-linejoin="round" stroke-width="0.05"/>
    <path d="M0.15 -105.15 L0.25 -105.15 0.25 -105.1 0.3 -105.1 Q1.9 -104.55 3.65 -105.1 L3.7 -105.1 3.75 -105.15 3.85 -105.15 4.4 -105.45 M2.95 -91.55 Q3.35 -91.75 3.55 -92.35 L10.7 -88.9 10.7 -89.0 Q11.1 -102.3 5.55 -112.35 -4.35 -130.0 -16.75 -133.8 L-27.65 -134.1 Q-32.1 -132.3 -36.35 -128.2 -41.4 -123.35 -42.4 -114.75 M-43.8 -114.25 L-42.2 -114.55 -36.35 -112.0 -36.3 -117.3 -36.3 -117.35 -36.2 -117.35 -36.2 -117.3 -36.15 -117.3 Q-34.7 -116.8 -32.95 -117.25 L-32.8 -117.3 -32.75 -117.3 -32.7 -117.35 -32.6 -117.35 -32.1 -117.6 M-32.8 -110.6 L-27.0 -107.65 -26.95 -120.5 -26.85 -120.5 -26.85 -120.45 -26.8 -120.45 -25.15 -120.3 -23.45 -120.45 -23.4 -120.45 -23.35 -120.5 -23.25 -120.5 -22.9 -120.7 M-23.5 -106.05 L-18.1 -103.15 -18.05 -119.7 -18.05 -119.75 -17.95 -119.75 -17.95 -119.7 -17.9 -119.7 -16.0 -119.5 -14.55 -119.7 -14.55 -119.6 M-13.7 -120.1 Q-14.0 -119.9 -14.35 -119.75 L-14.45 -119.75 -14.5 -119.7 -14.55 -119.7 M-14.6 -101.45 L-9.25 -98.6 -9.15 -114.6 -9.15 -114.65 -9.05 -114.65 -9.05 -114.6 -9.0 -114.6 Q-7.4 -114.05 -5.65 -114.6 L-5.6 -114.6 -5.55 -114.65 -5.45 -114.65 -5.25 -114.75 -4.95 -114.9 M-5.75 -96.9 L0.1 -94.05 0.15 -105.15 M9.3 -87.35 L10.3 -86.85 10.4 -86.9 10.55 -86.95 10.7 -88.9 M10.55 -86.95 L10.55 -86.85 M13.25 -87.75 Q14.25 -102.4 8.25 -113.25 -1.65 -130.9 -14.05 -134.7 -21.1 -136.85 -27.65 -134.1 -33.55 -132.6 -39.05 -127.3 -44.05 -122.55 -45.05 -114.05 L-45.1 -113.85 -45.3 -113.95 -45.35 -114.0 -45.35 -27.5 -44.5 -27.8 M2.95 -91.55 L2.85 -91.55 Q1.4 -91.25 0.1 -92.35 L0.1 -94.05 M1.1 -91.35 L0.1 -91.8 -0.2 -8.0 -0.2 -7.7 -0.15 -7.65 M-0.1 -6.6 L-0.15 -6.45 Q1.15 -5.15 2.45 -5.4 L2.8 -5.55 3.3 -6.0 9.3 -3.05 9.3 -1.95 M2.1 -90.85 L1.1 -91.3 1.1 -91.35 M3.6 -90.1 L2.1 -90.85 M3.6 -90.1 L9.3 -87.35 9.3 -3.05 M10.3 -0.5 L10.3 -0.35 11.0 -0.6 12.0 -1.0 M12.8 -1.35 L12.2 -1.1 M-44.5 -113.6 L-45.05 -113.85 M-45.35 -114.0 L-45.25 -114.05 -45.05 -114.05 M-44.5 -113.6 L-41.85 -112.25 -36.35 -109.6 -35.5 -109.15 -33.8 -108.35 -32.8 -107.85 -27.0 -105.0 -26.1 -104.6 -23.5 -103.3 -18.0 -100.6 -17.6 -100.45 -17.6 -100.4 -16.75 -100.0 -15.1 -99.2 -14.8 -99.1 -9.3 -96.4 -8.25 -95.9 -7.4 -95.5 -5.75 -94.65 0.1 -91.8 M-34.3 -110.15 L-32.8 -110.6 M-35.15 -109.9 L-34.4 -110.1 -34.3 -110.15 M-35.25 -109.9 L-36.35 -110.2 -36.35 -112.0 M-35.15 -109.9 L-35.25 -109.9 M-27.0 -107.65 L-27.0 -105.65 Q-26.15 -105.15 -25.05 -105.25 -23.9 -105.35 -23.5 -106.05 M-6.3 -96.3 L-5.75 -96.9 M-15.9 -58.55 L-14.95 -59.35 -14.95 -59.3 -11.5 -57.65 -11.5 -57.6 -11.5 -45.7 -13.55 -44.3 -13.55 -56.25 -11.5 -57.6 M-18.1 -103.15 L-18.1 -100.95 Q-17.2 -100.4 -16.1 -100.5 -15.0 -100.65 -14.6 -101.45 M-9.25 -98.6 L-9.25 -97.0 Q-8.7 -96.4 -7.7 -96.2 L-6.3 -96.3 M-21.9 -60.2 L-19.85 -61.55 -19.85 -61.6 -18.1 -60.8 -18.0 -100.6 M-21.9 -60.2 L-13.55 -56.25 M-16.15 -58.45 Q-16.95 -58.4 -18.1 -58.95 L-18.1 -60.8 M-15.9 -58.55 L-16.15 -58.45 M-18.45 -52.2 L-18.7 -53.5 -18.35 -54.75 -17.65 -55.35 Q-17.25 -55.35 -16.95 -54.75 -16.65 -54.1 -16.65 -53.2 -16.65 -52.3 -16.95 -51.7 L-17.15 -50.95 -17.15 -48.25 -18.05 -48.7 -18.05 -51.35 -18.45 -52.2 M-42.05 -28.1 L-42.85 -28.5 -43.6 -28.15 M-14.9 -44.9 L-16.85 -45.85 -18.1 -46.45 -18.25 -16.5 -18.3 -16.55 -23.75 -19.2 -24.55 -19.6 -25.2 -19.1 -25.65 -18.9 Q-26.45 -18.75 -27.05 -19.7 L-27.05 -20.8 -33.05 -23.7 -33.85 -24.1 -34.3 -23.65 -34.9 -23.35 Q-35.7 -23.15 -36.35 -24.25 L-36.35 -25.35 -42.05 -28.1 M-16.0 -14.65 Q-15.65 -14.75 -15.25 -15.05 L-15.0 -14.9 -9.5 -12.25 -9.3 -96.4 M-14.9 -44.9 L-13.55 -44.3 M-18.2 -15.4 Q-17.15 -14.45 -16.4 -14.55 L-16.0 -14.65 M-6.0 -10.5 L-6.65 -10.2 -7.1 -10.1 Q-7.95 -10.0 -8.5 -10.65 L-9.35 -11.65 -9.5 -12.25 M-0.2 -7.7 L-6.0 -10.5 M-18.1 -46.45 L-21.9 -48.25 -21.9 -60.2 M-27.0 -105.0 L-27.05 -20.8 M-36.35 -109.6 L-36.35 -25.35 M-45.35 -27.5 L10.3 -0.35" fill="none" stroke="#333333" stroke-linecap="round" stroke-linejoin="round" stroke-width="0.05"/>
  </g>
</svg>
