<?xml version="1.0" encoding="UTF-8" standalone="no"?>
<svg xmlns:xlink="http://www.w3.org/1999/xlink" height="77.7px" width="24.25px" xmlns="http://www.w3.org/2000/svg">
  <g transform="matrix(1.0, 0.0, 0.0, 1.0, 13.05, 2.05)">
    <path d="M-13.05 15.4 L-13.05 15.4 Q-12.95 16.95 -12.9 18.5 L-12.75 19.6 Q-12.05 25.4 -11.35 31.15 -10.75 36.6 -10.2 42.0 -10.6 26.25 -9.55 27.75 -8.85 28.8 -8.1 31.3 -6.5 36.35 -4.7 47.4 -4.0 41.65 -3.15 42.0 -2.05 42.4 -0.8 52.2 -0.5 54.7 -0.2 57.2 L0.3 51.05 Q1.75 35.1 3.25 46.9 L3.25 47.2 Q5.75 30.3 7.55 27.75 8.5 26.35 8.55 32.7 L8.45 40.1 Q10.9 21.0 11.1 16.0 L11.1 15.4 Q11.05 8.85 8.2 4.05 L7.55 3.05 Q4.65 -1.1 0.75 -1.9 L-1.0 -2.05 Q-4.05 -2.05 -6.55 -0.2 -7.95 0.85 -9.15 2.5 L-9.55 3.05 Q-10.2 4.2 -10.85 5.3 L-11.15 5.8 Q-13.1 10.0 -13.05 15.4" fill="url(#gradient0)" fill-rule="evenodd" stroke="none">
      <animate attributeName="d" dur="2s" repeatCount="indefinite" values="M-13.05 15.4 L-13.05 15.4 Q-12.95 16.95 -12.9 18.5 L-12.75 19.6 Q-12.05 25.4 -11.35 31.15 -10.75 36.6 -10.2 42.0 -10.6 26.25 -9.55 27.75 -8.85 28.8 -8.1 31.3 -6.5 36.35 -4.7 47.4 -4.0 41.65 -3.15 42.0 -2.05 42.4 -0.8 52.2 -0.5 54.7 -0.2 57.2 L0.3 51.05 Q1.75 35.1 3.25 46.9 L3.25 47.2 Q5.75 30.3 7.55 27.75 8.5 26.35 8.55 32.7 L8.45 40.1 Q10.9 21.0 11.1 16.0 L11.1 15.4 Q11.05 8.85 8.2 4.05 L7.55 3.05 Q4.65 -1.1 0.75 -1.9 L-1.0 -2.05 Q-4.05 -2.05 -6.55 -0.2 -7.95 0.85 -9.15 2.5 L-9.55 3.05 Q-10.2 4.2 -10.85 5.3 L-11.15 5.8 Q-13.1 10.0 -13.05 15.4;M-13.05 15.4 L-13.05 15.6 Q-13.1 17.7 -12.75 19.6 L-12.6 20.9 Q-12.35 24.8 -12.55 36.55 -11.55 35.15 -11.1 49.7 -10.9 56.7 -10.85 67.4 -10.85 70.1 -10.85 72.8 -8.95 53.6 -7.8 48.25 -6.75 43.15 -6.45 50.6 -2.9 32.85 -2.45 42.55 -0.5 38.55 0.05 45.5 L0.3 52.95 Q3.0 33.95 5.35 50.75 L5.35 50.55 Q5.7 37.95 7.1 67.6 7.3 71.65 7.45 75.65 L7.85 65.0 Q9.25 33.0 11.2 32.2 L11.2 31.5 Q11.15 23.45 11.1 15.4 L11.05 13.9 Q10.7 7.6 7.55 3.05 L6.0 1.15 Q2.95 -2.05 -1.0 -2.05 -3.6 -2.05 -5.8 -0.65 L-6.65 -0.1 Q-8.0 0.95 -9.15 2.5 L-9.55 3.05 Q-13.1 8.15 -13.05 15.4"/>
    </path>
    <path d="M-13.05 15.4 Q-13.1 10.0 -11.15 5.8 L-10.85 5.3 Q-10.2 4.2 -9.55 3.05 L-9.15 2.5 Q-7.95 0.85 -6.55 -0.2 -4.05 -2.05 -1.0 -2.05 L0.75 -1.9 Q4.65 -1.1 7.55 3.05 L8.2 4.05 Q11.05 8.85 11.1 15.4 L11.1 16.0 Q10.9 21.0 8.45 40.1 L8.55 32.7 Q8.5 26.35 7.55 27.75 5.75 30.3 3.25 47.2 L3.25 46.9 Q1.75 35.1 0.3 51.05 L-0.2 57.2 Q-0.5 54.7 -0.8 52.2 -2.05 42.4 -3.15 42.0 -4.0 41.65 -4.7 47.4 -6.5 36.35 -8.1 31.3 -8.85 28.8 -9.55 27.75 -10.6 26.25 -10.2 42.0 -10.75 36.6 -11.35 31.15 -12.05 25.4 -12.75 19.6 L-12.9 18.5 Q-12.95 16.95 -13.05 15.4 L-13.05 15.4" fill="none" stroke="#000000" stroke-linecap="round" stroke-linejoin="round" stroke-opacity="0.0" stroke-width="1.0">
      <animate attributeName="stroke" dur="2s" repeatCount="indefinite" values="#000000;#000001"/>
      <animate attributeName="stroke-width" dur="2s" repeatCount="indefinite" values="0.0;0.0"/>
      <animate attributeName="fill-opacity" dur="2s" repeatCount="indefinite" values="0.0;0.0"/>
      <animate attributeName="d" dur="2s" repeatCount="indefinite" values="M-13.05 15.4 Q-13.1 10.0 -11.15 5.8 L-10.85 5.3 Q-10.2 4.2 -9.55 3.05 L-9.15 2.5 Q-7.95 0.85 -6.55 -0.2 -4.05 -2.05 -1.0 -2.05 L0.75 -1.9 Q4.65 -1.1 7.55 3.05 L8.2 4.05 Q11.05 8.85 11.1 15.4 L11.1 16.0 Q10.9 21.0 8.45 40.1 L8.55 32.7 Q8.5 26.35 7.55 27.75 5.75 30.3 3.25 47.2 L3.25 46.9 Q1.75 35.1 0.3 51.05 L-0.2 57.2 Q-0.5 54.7 -0.8 52.2 -2.05 42.4 -3.15 42.0 -4.0 41.65 -4.7 47.4 -6.5 36.35 -8.1 31.3 -8.85 28.8 -9.55 27.75 -10.6 26.25 -10.2 42.0 -10.75 36.6 -11.35 31.15 -12.05 25.4 -12.75 19.6 L-12.9 18.5 Q-12.95 16.95 -13.05 15.4 L-13.05 15.4;M-13.05 15.4 Q-13.1 8.15 -9.55 3.05 L-9.15 2.5 Q-8.0 0.95 -6.65 -0.1 L-5.8 -0.65 Q-3.6 -2.05 -1.0 -2.05 2.95 -2.05 6.0 1.15 L7.55 3.05 Q10.7 7.6 11.05 13.9 L11.1 15.4 Q11.15 23.45 11.2 31.5 L11.2 32.2 Q9.25 33.0 7.85 65.0 L7.45 75.65 Q7.3 71.65 7.1 67.6 5.7 37.95 5.35 50.55 L5.35 50.75 Q3.0 33.95 0.3 52.95 L0.05 45.5 Q-0.5 38.55 -2.45 42.55 -2.9 32.85 -6.45 50.6 -6.75 43.15 -7.8 48.25 -8.95 53.6 -10.85 72.8 -10.85 70.1 -10.85 67.4 -10.9 56.7 -11.1 49.7 -11.55 35.15 -12.55 36.55 -12.35 24.8 -12.6 20.9 L-12.75 19.6 Q-13.1 17.7 -13.05 15.6 L-13.05 15.4"/>
    </path>
  </g>
  <defs>
    <radialGradient cx="0" cy="0" gradientTransform="matrix(0.0203, 0.0, 0.0, 0.0588, -0.5, 39.95)" gradientUnits="userSpaceOnUse" id="gradient0" r="819.2" spreadMethod="pad">
      <animateTransform additive="replace" attributeName="gradientTransform" dur="2s" from="1" repeatCount="indefinite" to="1" type="scale"/>
      <animateTransform additive="sum" attributeName="gradientTransform" dur="2s" from="-0.5 39.95" repeatCount="indefinite" to="-0.75 34.8" type="translate"/>
      <animateTransform additive="sum" attributeName="gradientTransform" dur="2s" from="0.0" repeatCount="indefinite" to="0.0" type="rotate"/>
      <animateTransform additive="sum" attributeName="gradientTransform" dur="2s" from="0.0203 0.0588" repeatCount="indefinite" to="0.0203 0.0588" type="scale"/>
      <animateTransform additive="sum" attributeName="gradientTransform" dur="2s" from="0.0" repeatCount="indefinite" to="0.0" type="skewX"/>
      <stop offset="0.4549019607843137" stop-color="#fffbf0">
        <animate attributeName="offset" dur="2s" repeatCount="indefinite" values="0.4549019607843137;0.4549019607843137"/>
        <animate attributeName="stop-color" dur="2s" repeatCount="indefinite" values="#fffbf0;#fffbf1"/>
        <animate attributeName="stop-opacity" dur="2s" repeatCount="indefinite" values="1.0;1.0"/>
      </stop>
      <stop offset="0.7372549019607844" stop-color="#d6d9fe">
        <animate attributeName="offset" dur="2s" repeatCount="indefinite" values="0.7372549019607844;0.7372549019607844"/>
        <animate attributeName="stop-color" dur="2s" repeatCount="indefinite" values="#d6d9fe;#d6d9ff"/>
        <animate attributeName="stop-opacity" dur="2s" repeatCount="indefinite" values="1.0;1.0"/>
      </stop>
      <stop offset="1.0" stop-color="#703cf9">
        <animate attributeName="offset" dur="2s" repeatCount="indefinite" values="1.0;1.0"/>
        <animate attributeName="stop-color" dur="2s" repeatCount="indefinite" values="#703cf9;#703cfa"/>
        <animate attributeName="stop-opacity" dur="2s" repeatCount="indefinite" values="1.0;1.0"/>
      </stop>
    </radialGradient>
  </defs>
</svg>
