<?xml version="1.0" encoding="UTF-8" standalone="no"?>
<svg xmlns:xlink="http://www.w3.org/1999/xlink" height="77.7px" width="24.25px" xmlns="http://www.w3.org/2000/svg">
  <g transform="matrix(1.0, 0.0, 0.0, 1.0, 13.05, 2.05)">
    <path d="M-13.05 15.4 L-13.05 15.4 Q-13.1 17.6 -12.75 19.6 L-12.65 20.05 Q-12.4 22.45 -12.5 30.65 -12.55 32.8 -12.55 34.9 L-12.55 36.55 Q-11.4 35.0 -11.05 53.55 -10.95 61.5 -10.85 69.4 -10.85 71.1 -10.85 72.8 -7.1 35.3 -6.45 50.6 L-5.6 46.6 Q-2.85 34.05 -2.45 42.55 0.3 36.9 0.3 52.95 2.65 36.35 4.75 47.05 L5.35 50.75 Q5.75 36.9 7.25 71.85 L7.45 75.65 Q7.6 71.65 7.75 67.65 8.35 53.35 9.0 44.8 9.25 42.2 9.5 39.6 10.3 32.6 11.2 32.2 L11.1 23.05 Q11.1 19.2 11.1 15.4 11.05 11.3 9.9 7.85 9.05 5.25 7.55 3.05 5.35 -0.1 2.6 -1.3 0.9 -2.05 -1.0 -2.05 -4.75 -2.05 -7.65 0.8 L-8.35 1.55 -9.15 2.5 -9.55 3.05 Q-13.1 8.15 -13.05 15.4" fill="url(#gradient0)" fill-rule="evenodd" stroke="none">
      <animate attributeName="d" dur="2s" repeatCount="indefinite" values="M-13.05 15.4 L-13.05 15.4 Q-13.1 17.6 -12.75 19.6 L-12.65 20.05 Q-12.4 22.45 -12.5 30.65 -12.55 32.8 -12.55 34.9 L-12.55 36.55 Q-11.4 35.0 -11.05 53.55 -10.95 61.5 -10.85 69.4 -10.85 71.1 -10.85 72.8 -7.1 35.3 -6.45 50.6 L-5.6 46.6 Q-2.85 34.05 -2.45 42.55 0.3 36.9 0.3 52.95 2.65 36.35 4.75 47.05 L5.35 50.75 Q5.75 36.9 7.25 71.85 L7.45 75.65 Q7.6 71.65 7.75 67.65 8.35 53.35 9.0 44.8 9.25 42.2 9.5 39.6 10.3 32.6 11.2 32.2 L11.1 23.05 Q11.1 19.2 11.1 15.4 11.05 11.3 9.9 7.85 9.05 5.25 7.55 3.05 5.35 -0.1 2.6 -1.3 0.9 -2.05 -1.0 -2.05 -4.75 -2.05 -7.65 0.8 L-8.35 1.55 -9.15 2.5 -9.55 3.05 Q-13.1 8.15 -13.05 15.4;M-13.05 15.4 L-13.05 15.5 Q-12.95 17.3 -12.85 19.1 L-12.75 19.6 Q-12.3 22.25 -12.35 28.95 -10.6 26.25 -9.55 27.75 L-9.45 28.9 Q-9.25 32.15 -9.2 44.4 -6.95 33.3 -4.7 47.4 -4.35 44.55 -3.95 47.15 -3.25 51.55 -2.4 71.65 L-2.3 74.95 Q-2.15 69.65 -2.05 64.35 -1.85 57.8 -1.65 51.25 -1.1 35.9 -0.4 37.1 L0.15 33.15 Q1.6 25.45 2.2 54.45 L2.4 50.85 Q2.75 43.2 3.25 47.2 5.75 30.3 7.55 27.75 8.95 25.7 10.05 29.15 10.35 26.2 10.6 23.25 L11.1 15.4 Q11.1 11.95 10.3 8.95 9.4 5.7 7.55 3.05 6.05 0.9 4.3 -0.35 1.9 -2.05 -1.0 -2.05 -2.6 -1.75 -4.2 -1.45 -6.95 -0.4 -9.15 2.5 L-9.55 3.05 -10.1 3.9 -10.5 4.6 Q-13.1 9.2 -13.05 15.4"/>
    </path>
    <path d="M-13.05 15.4 Q-13.1 8.15 -9.55 3.05 L-9.15 2.5 -8.35 1.55 -7.65 0.8 Q-4.75 -2.05 -1.0 -2.05 0.9 -2.05 2.6 -1.3 5.35 -0.1 7.55 3.05 9.05 5.25 9.9 7.85 11.05 11.3 11.1 15.4 11.1 19.2 11.1 23.05 L11.2 32.2 Q10.3 32.6 9.5 39.6 9.25 42.2 9.0 44.8 8.35 53.35 7.75 67.65 7.6 71.65 7.45 75.65 L7.25 71.85 Q5.75 36.9 5.35 50.75 L4.75 47.05 Q2.65 36.35 0.3 52.95 0.3 36.9 -2.45 42.55 -2.85 34.05 -5.6 46.6 L-6.45 50.6 Q-7.1 35.3 -10.85 72.8 -10.85 71.1 -10.85 69.4 -10.95 61.5 -11.05 53.55 -11.4 35.0 -12.55 36.55 L-12.55 34.9 Q-12.55 32.8 -12.5 30.65 -12.4 22.45 -12.65 20.05 L-12.75 19.6 Q-13.1 17.6 -13.05 15.4 L-13.05 15.4" fill="none" stroke="#000000" stroke-linecap="round" stroke-linejoin="round" stroke-opacity="0.0" stroke-width="1.0">
      <animate attributeName="stroke" dur="2s" repeatCount="indefinite" values="#000000;#000001"/>
      <animate attributeName="stroke-width" dur="2s" repeatCount="indefinite" values="0.0;0.0"/>
      <animate attributeName="fill-opacity" dur="2s" repeatCount="indefinite" values="0.0;0.0"/>
      <animate attributeName="d" dur="2s" repeatCount="indefinite" values="M-13.05 15.4 Q-13.1 8.15 -9.55 3.05 L-9.15 2.5 -8.35 1.55 -7.65 0.8 Q-4.75 -2.05 -1.0 -2.05 0.9 -2.05 2.6 -1.3 5.35 -0.1 7.55 3.05 9.05 5.25 9.9 7.85 11.05 11.3 11.1 15.4 11.1 19.2 11.1 23.05 L11.2 32.2 Q10.3 32.6 9.5 39.6 9.25 42.2 9.0 44.8 8.35 53.35 7.75 67.65 7.6 71.65 7.45 75.65 L7.25 71.85 Q5.75 36.9 5.35 50.75 L4.75 47.05 Q2.65 36.35 0.3 52.95 0.3 36.9 -2.45 42.55 -2.85 34.05 -5.6 46.6 L-6.45 50.6 Q-7.1 35.3 -10.85 72.8 -10.85 71.1 -10.85 69.4 -10.95 61.5 -11.05 53.55 -11.4 35.0 -12.55 36.55 L-12.55 34.9 Q-12.55 32.8 -12.5 30.65 -12.4 22.45 -12.65 20.05 L-12.75 19.6 Q-13.1 17.6 -13.05 15.4 L-13.05 15.4;M-13.05 15.4 Q-13.1 9.2 -10.5 4.6 L-10.1 3.9 -9.55 3.05 -9.15 2.5 Q-6.95 -0.4 -4.2 -1.45 -2.6 -1.75 -1.0 -2.05 1.9 -2.05 4.3 -0.35 6.05 0.9 7.55 3.05 9.4 5.7 10.3 8.95 11.1 11.95 11.1 15.4 L10.6 23.25 Q10.35 26.2 10.05 29.15 8.95 25.7 7.55 27.75 5.75 30.3 3.25 47.2 2.75 43.2 2.4 50.85 L2.2 54.45 Q1.6 25.45 0.15 33.15 L-0.4 37.1 Q-1.1 35.9 -1.65 51.25 -1.85 57.8 -2.05 64.35 -2.15 69.65 -2.3 74.95 L-2.4 71.65 Q-3.25 51.55 -3.95 47.15 -4.35 44.55 -4.7 47.4 -6.95 33.3 -9.2 44.4 -9.25 32.15 -9.45 28.9 L-9.55 27.75 Q-10.6 26.25 -12.35 28.95 -12.3 22.25 -12.75 19.6 L-12.85 19.1 Q-12.95 17.3 -13.05 15.5 L-13.05 15.4"/>
    </path>
  </g>
  <defs>
    <radialGradient cx="0" cy="0" gradientTransform="matrix(0.0203, 0.0, 0.0, 0.0588, -0.75, 34.8)" gradientUnits="userSpaceOnUse" id="gradient0" r="819.2" spreadMethod="pad">
      <animateTransform additive="replace" attributeName="gradientTransform" dur="2s" from="1" repeatCount="indefinite" to="1" type="scale"/>
      <animateTransform additive="sum" attributeName="gradientTransform" dur="2s" from="-0.75 34.8" repeatCount="indefinite" to="-0.5 39.95" type="translate"/>
      <animateTransform additive="sum" attributeName="gradientTransform" dur="2s" from="0.0" repeatCount="indefinite" to="0.0" type="rotate"/>
      <animateTransform additive="sum" attributeName="gradientTransform" dur="2s" from="0.0203 0.0588" repeatCount="indefinite" to="0.0203 0.0588" type="scale"/>
      <animateTransform additive="sum" attributeName="gradientTransform" dur="2s" from="0.0" repeatCount="indefinite" to="0.0" type="skewX"/>
      <stop offset="0.4549019607843137" stop-color="#fffbf0">
        <animate attributeName="offset" dur="2s" repeatCount="indefinite" values="0.4549019607843137;0.34901960784313724"/>
        <animate attributeName="stop-color" dur="2s" repeatCount="indefinite" values="#fffbf0;#ffffff"/>
        <animate attributeName="stop-opacity" dur="2s" repeatCount="indefinite" values="1.0;1.0"/>
      </stop>
      <stop offset="0.7372549019607844" stop-color="#d6d9fe">
        <animate attributeName="offset" dur="2s" repeatCount="indefinite" values="0.7372549019607844;0.4549019607843137"/>
        <animate attributeName="stop-color" dur="2s" repeatCount="indefinite" values="#d6d9fe;#fffbf1"/>
        <animate attributeName="stop-opacity" dur="2s" repeatCount="indefinite" values="1.0;1.0"/>
      </stop>
      <stop offset="1.0" stop-color="#703cf9">
        <animate attributeName="offset" dur="2s" repeatCount="indefinite" values="1.0;0.7372549019607844"/>
        <animate attributeName="stop-color" dur="2s" repeatCount="indefinite" values="#703cf9;#d6d9ff"/>
        <animate attributeName="stop-opacity" dur="2s" repeatCount="indefinite" values="1.0;1.0"/>
      </stop>
      <stop offset="1.0" stop-color="#703cf9">
        <animate attributeName="offset" dur="2s" repeatCount="indefinite" values="1.0;1.0"/>
        <animate attributeName="stop-color" dur="2s" repeatCount="indefinite" values="#703cf9;#703cfa"/>
        <animate attributeName="stop-opacity" dur="2s" repeatCount="indefinite" values="1.0;1.0"/>
      </stop>
    </radialGradient>
  </defs>
</svg>
