<?xml version="1.0" encoding="UTF-8" standalone="no"?>
<svg xmlns:xlink="http://www.w3.org/1999/xlink" height="77.0px" width="24.15px" xmlns="http://www.w3.org/2000/svg">
  <g transform="matrix(1.0, 0.0, 0.0, 1.0, 13.05, 2.05)">
    <path d="M-13.05 15.4 L-13.05 15.5 Q-13.1 17.65 -12.75 19.6 L-12.65 20.25 Q-12.3 23.05 -12.35 28.95 -10.6 26.25 -9.55 27.75 -9.3 28.15 -9.2 41.0 L-9.2 44.4 Q-7.1 34.0 -5.0 45.7 L-4.7 47.4 Q-3.85 40.45 -2.7 65.65 -2.5 70.3 -2.3 74.95 -2.1 66.65 -1.9 58.35 -1.25 35.65 -0.4 37.1 L0.25 32.8 Q1.55 26.55 2.1 50.8 2.15 52.65 2.2 54.45 2.65 42.35 3.25 47.2 L3.65 44.4 Q5.9 30.1 7.55 27.75 8.95 25.7 10.05 29.15 L10.7 22.65 Q10.9 19.0 11.1 15.4 11.05 11.2 9.85 7.75 9.0 5.2 7.55 3.05 5.3 -0.2 2.45 -1.4 L-1.0 -2.05 Q-4.85 -2.05 -7.8 0.9 L-8.4 1.55 -9.15 2.5 -9.55 3.05 Q-13.1 8.15 -13.05 15.4" fill="url(#gradient0)" fill-rule="evenodd" stroke="none">
      <animate attributeName="d" dur="2s" repeatCount="indefinite" values="M-13.05 15.4 L-13.05 15.5 Q-13.1 17.65 -12.75 19.6 L-12.65 20.25 Q-12.3 23.05 -12.35 28.95 -10.6 26.25 -9.55 27.75 -9.3 28.15 -9.2 41.0 L-9.2 44.4 Q-7.1 34.0 -5.0 45.7 L-4.7 47.4 Q-3.85 40.45 -2.7 65.65 -2.5 70.3 -2.3 74.95 -2.1 66.65 -1.9 58.35 -1.25 35.65 -0.4 37.1 L0.25 32.8 Q1.55 26.55 2.1 50.8 2.15 52.65 2.2 54.45 2.65 42.35 3.25 47.2 L3.65 44.4 Q5.9 30.1 7.55 27.75 8.95 25.7 10.05 29.15 L10.7 22.65 Q10.9 19.0 11.1 15.4 11.05 11.2 9.85 7.75 9.0 5.2 7.55 3.05 5.3 -0.2 2.45 -1.4 L-1.0 -2.05 Q-4.85 -2.05 -7.8 0.9 L-8.4 1.55 -9.15 2.5 -9.55 3.05 Q-13.1 8.15 -13.05 15.4;M-13.05 15.4 L-13.05 15.4 Q-12.95 17.2 -12.85 19.0 L-12.75 19.6 Q-12.3 23.2 -11.85 26.8 -11.65 28.4 -11.5 30.0 -10.85 36.0 -10.2 42.0 L-10.3 38.75 Q-10.5 26.4 -9.55 27.75 L-8.85 28.95 Q-6.95 33.35 -4.7 47.4 -3.55 38.3 -2.1 44.4 -1.2 48.05 -0.2 57.2 1.3 35.95 2.85 44.15 L3.25 47.2 Q5.75 30.3 7.55 27.75 8.25 26.7 8.5 29.85 8.7 32.4 8.55 37.8 L8.45 40.1 Q9.35 32.65 10.25 25.25 10.45 23.3 10.65 21.4 L11.1 15.4 Q11.1 12.05 10.3 9.15 9.4 5.8 7.55 3.05 6.1 1.0 4.4 -0.25 1.95 -2.05 -1.0 -2.05 L-4.15 -1.5 Q-6.95 -0.45 -9.15 2.5 L-9.55 3.05 -10.1 3.85 -10.5 4.5 Q-13.1 9.15 -13.05 15.4"/>
    </path>
    <path d="M-13.05 15.4 Q-13.1 8.15 -9.55 3.05 L-9.15 2.5 -8.4 1.55 -7.8 0.9 Q-4.85 -2.05 -1.0 -2.05 L2.45 -1.4 Q5.3 -0.2 7.55 3.05 9.0 5.2 9.85 7.75 11.05 11.2 11.1 15.4 10.9 19.0 10.7 22.65 L10.05 29.15 Q8.95 25.7 7.55 27.75 5.9 30.1 3.65 44.4 L3.25 47.2 Q2.65 42.35 2.2 54.45 2.15 52.65 2.1 50.8 1.55 26.55 0.25 32.8 L-0.4 37.1 Q-1.25 35.65 -1.9 58.35 -2.1 66.65 -2.3 74.95 -2.5 70.3 -2.7 65.65 -3.85 40.45 -4.7 47.4 L-5.0 45.7 Q-7.1 34.0 -9.2 44.4 L-9.2 41.0 Q-9.3 28.15 -9.55 27.75 -10.6 26.25 -12.35 28.95 -12.3 23.05 -12.65 20.25 L-12.75 19.6 Q-13.1 17.65 -13.05 15.5 L-13.05 15.4" fill="none" stroke="#000000" stroke-linecap="round" stroke-linejoin="round" stroke-opacity="0.0" stroke-width="1.0">
      <animate attributeName="stroke" dur="2s" repeatCount="indefinite" values="#000000;#000001"/>
      <animate attributeName="stroke-width" dur="2s" repeatCount="indefinite" values="0.0;0.0"/>
      <animate attributeName="fill-opacity" dur="2s" repeatCount="indefinite" values="0.0;0.0"/>
      <animate attributeName="d" dur="2s" repeatCount="indefinite" values="M-13.05 15.4 Q-13.1 8.15 -9.55 3.05 L-9.15 2.5 -8.4 1.55 -7.8 0.9 Q-4.85 -2.05 -1.0 -2.05 L2.45 -1.4 Q5.3 -0.2 7.55 3.05 9.0 5.2 9.85 7.75 11.05 11.2 11.1 15.4 10.9 19.0 10.7 22.65 L10.05 29.15 Q8.95 25.7 7.55 27.75 5.9 30.1 3.65 44.4 L3.25 47.2 Q2.65 42.35 2.2 54.45 2.15 52.65 2.1 50.8 1.55 26.55 0.25 32.8 L-0.4 37.1 Q-1.25 35.65 -1.9 58.35 -2.1 66.65 -2.3 74.95 -2.5 70.3 -2.7 65.65 -3.85 40.45 -4.7 47.4 L-5.0 45.7 Q-7.1 34.0 -9.2 44.4 L-9.2 41.0 Q-9.3 28.15 -9.55 27.75 -10.6 26.25 -12.35 28.95 -12.3 23.05 -12.65 20.25 L-12.75 19.6 Q-13.1 17.65 -13.05 15.5 L-13.05 15.4;M-13.05 15.4 Q-13.1 9.15 -10.5 4.5 L-10.1 3.85 -9.55 3.05 -9.15 2.5 Q-6.95 -0.45 -4.15 -1.5 L-1.0 -2.05 Q1.95 -2.05 4.4 -0.25 6.1 1.0 7.55 3.05 9.4 5.8 10.3 9.15 11.1 12.05 11.1 15.4 L10.65 21.4 Q10.45 23.3 10.25 25.25 9.35 32.65 8.45 40.1 L8.55 37.8 Q8.7 32.4 8.5 29.85 8.25 26.7 7.55 27.75 5.75 30.3 3.25 47.2 L2.85 44.15 Q1.3 35.95 -0.2 57.2 -1.2 48.05 -2.1 44.4 -3.55 38.3 -4.7 47.4 -6.95 33.35 -8.85 28.95 L-9.55 27.75 Q-10.5 26.4 -10.3 38.75 L-10.2 42.0 Q-10.85 36.0 -11.5 30.0 -11.65 28.4 -11.85 26.8 -12.3 23.2 -12.75 19.6 L-12.85 19.0 Q-12.95 17.2 -13.05 15.4 L-13.05 15.4"/>
    </path>
  </g>
  <defs>
    <radialGradient cx="0" cy="0" gradientTransform="matrix(0.0203, 0.0, 0.0, 0.0588, -0.5, 39.95)" gradientUnits="userSpaceOnUse" id="gradient0" r="819.2" spreadMethod="pad">
      <animateTransform additive="replace" attributeName="gradientTransform" dur="2s" from="1" repeatCount="indefinite" to="1" type="scale"/>
      <animateTransform additive="sum" attributeName="gradientTransform" dur="2s" from="-0.5 39.95" repeatCount="indefinite" to="-0.5 39.95" type="translate"/>
      <animateTransform additive="sum" attributeName="gradientTransform" dur="2s" from="0.0" repeatCount="indefinite" to="0.0" type="rotate"/>
      <animateTransform additive="sum" attributeName="gradientTransform" dur="2s" from="0.0203 0.0588" repeatCount="indefinite" to="0.0203 0.0588" type="scale"/>
      <animateTransform additive="sum" attributeName="gradientTransform" dur="2s" from="0.0" repeatCount="indefinite" to="0.0" type="skewX"/>
      <stop offset="0.34901960784313724" stop-color="#ffffff">
        <animate attributeName="offset" dur="2s" repeatCount="indefinite" values="0.34901960784313724;0.34901960784313724"/>
        <animate attributeName="stop-color" dur="2s" repeatCount="indefinite" values="#ffffff;#ffffff"/>
        <animate attributeName="stop-opacity" dur="2s" repeatCount="indefinite" values="1.0;1.0"/>
      </stop>
      <stop offset="0.4549019607843137" stop-color="#fffbf0">
        <animate attributeName="offset" dur="2s" repeatCount="indefinite" values="0.4549019607843137;0.4549019607843137"/>
        <animate attributeName="stop-color" dur="2s" repeatCount="indefinite" values="#fffbf0;#fffbf1"/>
        <animate attributeName="stop-opacity" dur="2s" repeatCount="indefinite" values="1.0;1.0"/>
      </stop>
      <stop offset="0.7372549019607844" stop-color="#d6d9fe">
        <animate attributeName="offset" dur="2s" repeatCount="indefinite" values="0.7372549019607844;0.7372549019607844"/>
        <animate attributeName="stop-color" dur="2s" repeatCount="indefinite" values="#d6d9fe;#d6d9ff"/>
        <animate attributeName="stop-opacity" dur="2s" repeatCount="indefinite" values="1.0;1.0"/>
      </stop>
      <stop offset="1.0" stop-color="#703cf9">
        <animate attributeName="offset" dur="2s" repeatCount="indefinite" values="1.0;1.0"/>
        <animate attributeName="stop-color" dur="2s" repeatCount="indefinite" values="#703cf9;#703cfa"/>
        <animate attributeName="stop-opacity" dur="2s" repeatCount="indefinite" values="1.0;1.0"/>
      </stop>
    </radialGradient>
  </defs>
</svg>
