<?xml version="1.0" encoding="UTF-8" standalone="no"?>
<svg xmlns:xlink="http://www.w3.org/1999/xlink" height="88.25px" width="80.1px" xmlns="http://www.w3.org/2000/svg">
  <g transform="matrix(1.0, 0.0, 0.0, 1.0, 75.85, 88.55)">
    <path d="M4.25 -0.3 Q3.65 -7.1 2.7 -13.25 -3.95 -57.4 -27.5 -67.8 L-30.6 -69.0 Q-56.2 -77.6 -71.4 -71.4 -73.75 -70.45 -75.85 -69.15 -51.35 -72.75 -30.35 -62.65 -27.2 -61.15 -24.15 -59.3 -7.8 -49.45 -3.1 -2.8 -0.05 -0.7 4.25 -0.3" fill="#a1d109" fill-rule="evenodd" stroke="none">
      <animate attributeName="fill" dur="2s" repeatCount="indefinite" values="#a1d109;#a1d10a"/>
      <animate attributeName="fill-opacity" dur="2s" repeatCount="indefinite" values="1.0;1.0"/>
      <animate attributeName="d" dur="2s" repeatCount="indefinite" values="M4.25 -0.3 Q3.65 -7.1 2.7 -13.25 -3.95 -57.4 -27.5 -67.8 L-30.6 -69.0 Q-56.2 -77.6 -71.4 -71.4 -73.75 -70.45 -75.85 -69.15 -51.35 -72.75 -30.35 -62.65 -27.2 -61.15 -24.15 -59.3 -7.8 -49.45 -3.1 -2.8 -0.05 -0.7 4.25 -0.3;M4.25 -0.3 Q4.6 -6.35 -0.55 -9.2 -31.2 -30.2 -17.35 -55.55 L-15.95 -58.2 Q-4.4 -81.35 -20.85 -88.55 -19.05 -87.2 -17.8 -85.5 -9.9 -74.7 -24.4 -49.3 -26.05 -46.45 -27.15 -43.7 -37.55 -18.25 -3.1 -2.8 -0.05 -0.7 4.25 -0.3"/>
    </path>
    <path d="M4.25 -0.3 Q-0.05 -0.7 -3.1 -2.8 -7.8 -49.45 -24.15 -59.3 -27.2 -61.15 -30.35 -62.65 -51.35 -72.75 -75.85 -69.15 -73.75 -70.45 -71.4 -71.4 -56.2 -77.6 -30.6 -69.0 L-27.5 -67.8 Q-3.95 -57.4 2.7 -13.25 3.65 -7.1 4.25 -0.3 -0.05 -0.7 -3.1 -2.8 -7.8 -49.45 -24.15 -59.3 -27.2 -61.15 -30.35 -62.65 -51.35 -72.75 -75.85 -69.15 -73.75 -70.45 -71.4 -71.4 -56.2 -77.6 -30.6 -69.0 L-27.5 -67.8 Q-3.95 -57.4 2.7 -13.25 3.65 -7.1 4.25 -0.3" fill="none" stroke="#475f1b" stroke-linecap="round" stroke-linejoin="round" stroke-width="0.05">
      <animate attributeName="stroke" dur="2s" repeatCount="indefinite" values="#475f1b;#475f1c"/>
      <animate attributeName="stroke-width" dur="2s" repeatCount="indefinite" values="0.05;0.05"/>
      <animate attributeName="fill-opacity" dur="2s" repeatCount="indefinite" values="1.0;1.0"/>
      <animate attributeName="d" dur="2s" repeatCount="indefinite" values="M4.25 -0.3 Q-0.05 -0.7 -3.1 -2.8 -7.8 -49.45 -24.15 -59.3 -27.2 -61.15 -30.35 -62.65 -51.35 -72.75 -75.85 -69.15 -73.75 -70.45 -71.4 -71.4 -56.2 -77.6 -30.6 -69.0 L-27.5 -67.8 Q-3.95 -57.4 2.7 -13.25 3.65 -7.1 4.25 -0.3 -0.05 -0.7 -3.1 -2.8 -7.8 -49.45 -24.15 -59.3 -27.2 -61.15 -30.35 -62.65 -51.35 -72.75 -75.85 -69.15 -73.75 -70.45 -71.4 -71.4 -56.2 -77.6 -30.6 -69.0 L-27.5 -67.8 Q-3.95 -57.4 2.7 -13.25 3.65 -7.1 4.25 -0.3;M4.25 -0.3 Q-0.05 -0.7 -3.1 -2.8 -37.55 -18.25 -27.15 -43.7 -26.05 -46.45 -24.4 -49.3 -9.9 -74.7 -17.8 -85.5 -19.05 -87.2 -20.85 -88.55 -4.4 -81.35 -15.95 -58.2 L-17.35 -55.55 Q-31.2 -30.2 -0.55 -9.2 4.6 -6.35 4.25 -0.3 -0.05 -0.7 -3.1 -2.8 -37.55 -18.25 -27.15 -43.7 -26.05 -46.45 -24.4 -49.3 -9.9 -74.7 -17.8 -85.5 -19.05 -87.2 -20.85 -88.55 -4.4 -81.35 -15.95 -58.2 L-17.35 -55.55 Q-31.2 -30.2 -0.55 -9.2 4.6 -6.35 4.25 -0.3"/>
    </path>
  </g>
</svg>
