<?xml version="1.0" encoding="UTF-8" standalone="no"?>
<svg xmlns:xlink="http://www.w3.org/1999/xlink" height="88.05px" width="51.5px" xmlns="http://www.w3.org/2000/svg">
  <g transform="matrix(1.0, 0.0, 0.0, 1.0, 47.25, 88.35)">
    <path d="M4.25 -0.3 Q4.6 -6.35 -0.55 -9.2 -9.0 -15.0 -14.05 -21.1 -27.0 -36.75 -17.35 -55.55 -3.5 -80.95 -20.55 -88.35 -9.55 -79.7 -20.45 -56.85 -22.15 -53.25 -24.4 -49.3 -41.25 -19.9 -3.1 -2.8 -0.05 -0.7 4.25 -0.3" fill="#a1d109" fill-rule="evenodd" stroke="none">
      <animate attributeName="fill" dur="2s" repeatCount="indefinite" values="#a1d109;#a1d10a"/>
      <animate attributeName="fill-opacity" dur="2s" repeatCount="indefinite" values="1.0;1.0"/>
      <animate attributeName="d" dur="2s" repeatCount="indefinite" values="M4.25 -0.3 Q4.6 -6.35 -0.55 -9.2 -9.0 -15.0 -14.05 -21.1 -27.0 -36.75 -17.35 -55.55 -3.5 -80.95 -20.55 -88.35 -9.55 -79.7 -20.45 -56.85 -22.15 -53.25 -24.4 -49.3 -41.25 -19.9 -3.1 -2.8 -0.05 -0.7 4.25 -0.3;M4.25 -0.3 Q4.45 -3.55 -0.95 -7.85 -5.55 -11.5 -14.25 -15.9 -33.1 -25.5 -40.0 -38.65 -45.6 -50.6 -40.1 -73.2 -46.05 -62.35 -47.2 -42.7 -47.45 -38.75 -45.85 -34.8 -39.35 -19.0 -3.1 -2.8 -0.05 -0.7 4.25 -0.3"/>
    </path>
    <path d="M4.25 -0.3 Q-0.05 -0.7 -3.1 -2.8 -41.25 -19.9 -24.4 -49.3 -22.15 -53.25 -20.45 -56.85 -9.55 -79.7 -20.55 -88.35 -3.5 -80.95 -17.35 -55.55 -27.0 -36.75 -14.05 -21.1 -9.0 -15.0 -0.55 -9.2 4.6 -6.35 4.25 -0.3 -0.05 -0.7 -3.1 -2.8 -41.25 -19.9 -24.4 -49.3 -22.15 -53.25 -20.45 -56.85 -9.55 -79.7 -20.55 -88.35 -3.5 -80.95 -17.35 -55.55 -27.0 -36.75 -14.05 -21.1 -9.0 -15.0 -0.55 -9.2 4.6 -6.35 4.25 -0.3" fill="none" stroke="#475f1b" stroke-linecap="round" stroke-linejoin="round" stroke-width="0.05">
      <animate attributeName="stroke" dur="2s" repeatCount="indefinite" values="#475f1b;#475f1c"/>
      <animate attributeName="stroke-width" dur="2s" repeatCount="indefinite" values="0.05;0.05"/>
      <animate attributeName="fill-opacity" dur="2s" repeatCount="indefinite" values="1.0;1.0"/>
      <animate attributeName="d" dur="2s" repeatCount="indefinite" values="M4.25 -0.3 Q-0.05 -0.7 -3.1 -2.8 -41.25 -19.9 -24.4 -49.3 -22.15 -53.25 -20.45 -56.85 -9.55 -79.7 -20.55 -88.35 -3.5 -80.95 -17.35 -55.55 -27.0 -36.75 -14.05 -21.1 -9.0 -15.0 -0.55 -9.2 4.6 -6.35 4.25 -0.3 -0.05 -0.7 -3.1 -2.8 -41.25 -19.9 -24.4 -49.3 -22.15 -53.25 -20.45 -56.85 -9.55 -79.7 -20.55 -88.35 -3.5 -80.95 -17.35 -55.55 -27.0 -36.75 -14.05 -21.1 -9.0 -15.0 -0.55 -9.2 4.6 -6.35 4.25 -0.3;M4.25 -0.3 Q-0.05 -0.7 -3.1 -2.8 -39.35 -19.0 -45.85 -34.8 -47.45 -38.75 -47.2 -42.7 -46.05 -62.35 -40.1 -73.2 -45.6 -50.6 -40.0 -38.65 -33.1 -25.5 -14.25 -15.9 -5.55 -11.5 -0.95 -7.85 4.45 -3.55 4.25 -0.3 -0.05 -0.7 -3.1 -2.8 -39.35 -19.0 -45.85 -34.8 -47.45 -38.75 -47.2 -42.7 -46.05 -62.35 -40.1 -73.2 -45.6 -50.6 -40.0 -38.65 -33.1 -25.5 -14.25 -15.9 -5.55 -11.5 -0.95 -7.85 4.45 -3.55 4.25 -0.3"/>
    </path>
  </g>
</svg>
