<?xml version="1.0" encoding="UTF-8" standalone="no"?>
<svg xmlns:xlink="http://www.w3.org/1999/xlink" height="19.4px" width="14.35px" xmlns="http://www.w3.org/2000/svg">
  <g transform="matrix(1.0, 0.0, 0.0, 1.0, 5.2, 10.25)">
    <path d="M-3.45 0.6 L-3.45 1.0 -3.55 1.2 -3.65 1.05 -3.65 1.0 -3.75 0.6 -3.75 0.55 -3.75 0.1 -3.7 -0.05 -3.6 0.1 -3.45 0.6 M1.2 0.9 L1.35 1.1 1.5 1.65 1.5 1.75 1.45 2.1 1.35 2.35 1.3 2.1 1.2 1.75 1.2 1.65 1.2 1.1 1.2 0.9" fill="#5f0000" fill-rule="evenodd" stroke="none"/>
    <path d="M-2.7 3.05 L-2.65 3.05 -2.65 3.15 -2.7 3.1 -2.7 3.05 M-2.25 0.85 L-2.2 0.85 -2.2 0.9 -2.25 0.85 M-0.8 1.15 L-0.75 1.15 -0.8 1.2 -0.8 1.15 M1.5 2.65 L1.5 2.6 1.55 2.6 1.5 2.65" fill="#ca7de1" fill-rule="evenodd" stroke="none"/>
    <path d="M1.9 0.3 L1.85 0.35 1.7 0.25 1.9 0.3" fill="#b547d6" fill-rule="evenodd" stroke="none"/>
    <path d="M-1.45 -8.65 Q0.2 -10.05 1.95 -10.2 4.55 -10.5 6.35 -8.1 8.1 -5.75 8.9 -3.0 9.7 -0.3 8.1 0.75 6.9 2.05 5.75 2.1 L3.5 6.7 0.35 9.15 -1.8 8.5 -3.8 2.45 Q-4.9 1.25 -5.2 0.25 L-4.65 0.3 -4.6 0.55 -3.85 1.35 -3.15 1.7 -3.0 1.7 -2.95 1.7 Q-3.3 2.45 -2.65 3.05 L-2.7 3.05 -2.75 3.05 -2.7 3.1 Q-2.9 3.95 -2.7 4.0 L-2.9 4.4 -3.0 4.75 -2.5 5.35 -2.0 7.2 0.35 7.7 0.5 6.7 0.85 6.5 1.0 6.4 2.0 5.95 Q2.6 4.25 3.35 3.05 L3.15 3.05 1.6 2.65 1.6 2.6 2.7 2.35 3.15 1.7 3.15 1.65 Q2.75 0.8 1.85 0.35 L1.9 0.3 Q3.1 0.5 3.45 1.6 L3.5 1.75 4.75 1.7 4.85 1.7 4.95 1.7 5.25 1.65 6.0 1.05 Q7.3 -0.2 6.6 -1.95 5.9 -3.8 4.45 -6.3 3.0 -8.8 1.0 -9.3 -0.3 -9.55 -1.45 -8.65" fill="#294876" fill-rule="evenodd" stroke="none"/>
    <path d="M0.5 6.7 L0.35 7.7 -2.0 7.2 -2.5 5.35 -2.3 5.55 -1.95 4.7 -0.75 5.05 -0.4 6.25 0.65 5.6 0.5 6.7 M-2.9 4.4 L-2.7 4.0 Q-2.9 3.95 -2.7 3.1 L-2.65 3.15 0.45 3.4 0.7 5.0 -0.1 5.6 -0.3 4.85 -2.2 4.25 -2.35 4.75 -2.9 4.4" fill="#8785b4" fill-rule="evenodd" stroke="none"/>
    <path d="M-2.5 5.35 L-3.0 4.75 -2.9 4.4 -2.35 4.75 -2.2 4.25 -0.3 4.85 -0.1 5.6 0.7 5.0 0.7 5.05 0.65 5.5 0.65 5.6 -0.4 6.25 -0.75 5.05 -1.95 4.7 -2.3 5.55 -2.5 5.35" fill="#7575a8" fill-rule="evenodd" stroke="none"/>
    <path d="M-1.45 -8.65 Q-0.3 -9.55 1.0 -9.3 3.0 -8.8 4.45 -6.3 5.9 -3.8 6.6 -1.95 7.3 -0.2 6.0 1.05 L5.25 1.65 4.95 1.7 4.85 1.7 4.75 1.7 3.5 1.75 3.45 1.6 Q3.1 0.5 1.9 0.3 L1.7 0.25 0.45 0.4 0.25 0.5 -0.75 1.15 -0.8 1.15 -2.2 0.9 -2.2 0.85 -2.25 0.85 -2.35 0.65 Q-3.15 -0.6 -3.95 -0.7 -4.5 -0.8 -4.6 -0.35 L-4.65 0.3 -5.2 0.25 -5.2 0.2 Q-5.3 -1.4 -4.5 -2.25 -5.0 -4.55 -3.7 -6.15 L-3.15 -6.9 -1.45 -8.65 M1.6 2.65 L3.15 3.05 3.35 3.05 Q2.6 4.25 2.0 5.95 L1.0 6.4 0.85 6.5 0.5 6.7 0.65 5.6 0.65 5.5 0.7 5.05 0.7 5.0 0.45 3.4 -2.65 3.15 -2.65 3.05 Q-3.3 2.45 -2.95 1.7 L-2.8 1.65 -2.65 1.5 -2.5 1.35 -0.5 1.6 Q0.3 2.5 1.3 2.6 L1.5 2.6 1.5 2.65 Q1.75 2.85 0.45 3.4 1.75 2.85 1.5 2.65 L1.55 2.6 1.6 2.65 M0.7 4.95 L0.7 5.0 0.7 4.95" fill="#39689f" fill-rule="evenodd" stroke="none"/>
    <path d="M-2.2 0.9 L-0.8 1.15 -0.8 1.2 -0.5 1.6 -2.5 1.35 -2.2 0.9" fill="#172b42" fill-rule="evenodd" stroke="none"/>
    <path d="M1.85 0.35 Q2.75 0.8 3.15 1.65 L3.15 1.7 2.7 2.35 1.6 2.6 1.55 2.6 1.5 2.6 1.3 2.6 Q0.3 2.5 -0.5 1.6 L-0.8 1.2 -0.75 1.15 0.25 0.5 0.45 0.4 1.7 0.25 1.85 0.35 M-2.95 1.7 L-3.0 1.7 -3.15 1.7 -3.85 1.35 -4.6 0.55 -4.65 0.3 -4.6 -0.35 Q-4.5 -0.8 -3.95 -0.7 -3.15 -0.6 -2.35 0.65 L-2.25 0.85 -2.2 0.9 -2.5 1.35 -2.65 1.5 -2.8 1.65 -2.95 1.7 M-3.45 0.6 L-3.6 0.1 -3.7 -0.05 -3.75 0.1 -3.75 0.55 -3.75 0.6 -3.65 1.0 -3.65 1.05 -3.55 1.2 -3.45 1.0 -3.45 0.6 M1.2 0.9 L1.2 1.1 1.2 1.65 1.2 1.75 1.3 2.1 1.35 2.35 1.45 2.1 1.5 1.75 1.5 1.65 1.35 1.1 1.2 0.9" fill="#f2c261" fill-rule="evenodd" stroke="none"/>
    <path d="M0.35 9.15 L3.5 6.7 5.75 2.1 Q6.9 2.05 8.1 0.75 9.7 -0.3 8.9 -3.0 8.1 -5.75 6.35 -8.1 4.55 -10.5 1.95 -10.2 0.2 -10.05 -1.45 -8.65 L-3.15 -6.9 -3.7 -6.15 Q-5.0 -4.55 -4.5 -2.25 -5.3 -1.4 -5.2 0.2 L-5.2 0.25 Q-4.9 1.25 -3.8 2.45 L-1.8 8.5 M3.45 1.6 Q3.1 0.5 1.9 0.3 L1.7 0.25 M-4.6 0.55 L-4.65 0.3 M-2.7 3.1 L-2.7 3.05 M0.7 5.05 L0.7 5.0 0.7 4.95 M-2.65 3.05 L-2.65 3.15 M0.45 3.4 Q1.75 2.85 1.5 2.65 L1.55 2.6" fill="none" stroke="#1d3450" stroke-linecap="round" stroke-linejoin="round" stroke-width="0.05"/>
    <path d="M-2.25 0.85 L-2.2 0.85 -2.2 0.9 M-0.8 1.15 L-0.75 1.15 M0.7 5.0 L-0.1 5.6 -0.3 4.85 -2.2 4.25 -2.35 4.75 -2.9 4.4" fill="none" stroke="#1d3450" stroke-linecap="round" stroke-linejoin="round" stroke-width="0.05"/>
    <path d="M0.8 -1.5 L-0.3 -0.45 Q0.0 -1.25 -0.35 -1.65 L0.4 -2.4 0.8 -1.5 M-2.0 -4.2 L-0.45 -4.05 0.05 -2.8 -0.7 -2.1 -2.15 -2.4 -2.45 -3.5 -2.0 -4.2 M-3.45 -2.1 L-2.75 -3.2 -2.4 -2.1 Q-2.85 -1.85 -2.55 -0.8 L-3.45 -2.1" fill="#d3d301" fill-rule="evenodd" stroke="none"/>
    <path d="M4.8 -4.95 L4.55 -4.45 3.75 -3.1 Q3.25 -2.2 3.1 -2.85 2.9 -3.5 3.0 -4.15 L3.3 -5.25 3.65 -5.7 3.7 -5.4 4.05 -5.05 4.5 -4.9 4.8 -4.95 M-3.8 -6.95 L-3.55 -6.5 -3.4 -5.65 -3.95 -4.5 Q-4.45 -3.8 -4.65 -4.4 L-4.95 -5.6 -5.05 -6.5 -4.8 -6.35 -4.3 -6.45 -3.9 -6.75 -3.8 -6.95" fill="#234061" fill-rule="evenodd" stroke="none"/>
    <path d="M3.65 -5.7 L3.75 -5.75 3.95 -5.8 4.4 -5.65 4.8 -5.3 4.8 -5.25 4.8 -4.95 4.5 -4.9 4.05 -5.05 3.7 -5.4 3.65 -5.7 M-5.05 -6.5 L-5.05 -6.6 -4.95 -6.8 -4.55 -7.05 -4.05 -7.2 -4.0 -7.15 -3.8 -6.95 -3.9 -6.75 -4.3 -6.45 -4.8 -6.35 -5.05 -6.5" fill="#39689f" fill-rule="evenodd" stroke="none"/>
    <path d="M3.65 -5.7 L3.75 -5.75 3.95 -5.8 4.4 -5.65 4.8 -5.3 4.8 -5.25 4.8 -4.95 4.55 -4.45 3.75 -3.1 Q3.25 -2.2 3.1 -2.85 2.9 -3.5 3.0 -4.15 L3.3 -5.25 3.65 -5.7 3.7 -5.4 4.05 -5.05 4.5 -4.9 4.8 -4.95 M-5.05 -6.5 L-5.05 -6.6 -4.95 -6.8 -4.55 -7.05 -4.05 -7.2 -4.0 -7.15 -3.8 -6.95 -3.55 -6.5 -3.4 -5.65 -3.95 -4.5 Q-4.45 -3.8 -4.65 -4.4 L-4.95 -5.6 -5.05 -6.5 -4.8 -6.35 -4.3 -6.45 -3.9 -6.75 -3.8 -6.95" fill="none" stroke="#1d3450" stroke-linecap="round" stroke-linejoin="round" stroke-width="0.05"/>
  </g>
</svg>
