<?xml version="1.0" encoding="UTF-8" standalone="no"?>
<svg xmlns:xlink="http://www.w3.org/1999/xlink" height="77.35px" width="74.55px" xmlns="http://www.w3.org/2000/svg">
  <g transform="matrix(1.0, 0.0, 0.0, 1.0, 37.2, 23.1)">
    <path d="M12.4 35.95 Q4.25 43.95 -7.6 44.0 -13.2 44.0 -18.0 42.1 -23.45 39.95 -27.9 35.4 -36.3 26.85 -35.6 15.45 -34.9 4.0 -27.15 -5.25 -19.65 -14.25 -8.15 -14.45 L-7.55 -14.45 Q4.3 -14.5 12.55 -5.75 20.85 3.05 20.7 15.5 20.55 27.9 12.4 35.95" fill="#8f5c49" fill-rule="evenodd" stroke="none"/>
    <path d="M26.6 -11.5 Q37.55 0.1 37.35 16.55 37.15 32.95 26.4 43.6 15.85 54.0 0.55 54.25 L-0.1 54.25 Q-15.8 54.25 -27.0 42.9 -38.1 31.6 -37.15 16.5 -36.2 1.4 -25.95 -10.85 -15.75 -23.05 -0.05 -23.1 7.25 -23.1 13.55 -20.6 20.7 -17.7 26.6 -11.5 M12.4 35.95 Q20.55 27.9 20.7 15.5 20.85 3.05 12.55 -5.75 4.3 -14.5 -7.55 -14.45 L-8.15 -14.45 Q-19.65 -14.25 -27.15 -5.25 -34.9 4.0 -35.6 15.45 -36.3 26.85 -27.9 35.4 -23.45 39.95 -18.0 42.1 -13.2 44.0 -7.6 44.0 4.25 43.95 12.4 35.95" fill="#7b5040" fill-rule="evenodd" stroke="none"/>
    <path d="M26.6 -11.5 Q37.55 0.1 37.35 16.55 37.15 32.95 26.4 43.6 15.85 54.0 0.55 54.25 L-0.1 54.25 Q-15.8 54.25 -27.0 42.9 -38.1 31.6 -37.15 16.5 -36.2 1.4 -25.95 -10.85 -15.75 -23.05 -0.05 -23.1 7.25 -23.1 13.55 -20.6 20.7 -17.7 26.6 -11.5 Z" fill="none" stroke="#3f2621" stroke-linecap="round" stroke-linejoin="round" stroke-width="0.05"/>
  </g>
</svg>
