<?xml version="1.0" encoding="UTF-8" standalone="no"?>
<svg xmlns:xlink="http://www.w3.org/1999/xlink" height="77.2px" width="74.4px" xmlns="http://www.w3.org/2000/svg">
  <g transform="matrix(1.0, 0.0, 0.0, 1.0, 36.45, 22.95)">
    <path d="M-1.6 -22.95 Q6.15 -23.1 13.95 -19.65 28.55 -13.2 34.75 2.05 40.95 17.2 35.15 31.2 29.5 44.85 15.5 51.0 L14.9 51.25 Q0.4 57.3 -14.25 51.2 -28.85 45.1 -33.85 30.85 -38.85 16.55 -34.15 1.35 -29.5 -13.9 -15.05 -20.0 -8.35 -22.85 -1.6 -22.95 M-7.15 -15.75 L-7.75 -15.75 Q-19.5 -15.55 -27.2 -6.35 -35.1 3.1 -35.8 14.8 -36.05 19.2 -35.0 23.2 L-34.25 25.65 Q-32.3 30.8 -27.95 35.2 -23.35 39.9 -17.8 42.1 -15.3 43.05 -12.65 43.55 L-10.0 43.9 -7.15 44.0 Q4.95 44.0 13.3 35.75 21.6 27.55 21.8 14.85 21.9 2.15 13.4 -6.85 4.95 -15.8 -7.15 -15.75" fill="#7b5040" fill-rule="evenodd" stroke="none"/>
    <path d="M-7.15 -15.75 Q4.95 -15.8 13.4 -6.85 21.9 2.15 21.8 14.85 21.6 27.55 13.3 35.75 4.95 44.0 -7.15 44.0 L-10.0 43.9 -12.65 43.55 Q-15.3 43.05 -17.8 42.1 -23.35 39.9 -27.95 35.2 -32.3 30.8 -34.25 25.65 L-35.0 23.2 Q-36.05 19.2 -35.8 14.8 -35.1 3.1 -27.2 -6.35 -19.5 -15.55 -7.75 -15.75 L-7.15 -15.75" fill="#8f5c49" fill-rule="evenodd" stroke="none"/>
    <path d="M-1.6 -22.95 Q6.15 -23.1 13.95 -19.65 28.55 -13.2 34.75 2.05 40.95 17.2 35.15 31.2 29.5 44.85 15.5 51.0 L14.9 51.25 Q0.4 57.3 -14.25 51.2 -28.85 45.1 -33.85 30.85 -38.85 16.55 -34.15 1.35 -29.5 -13.9 -15.05 -20.0 -8.35 -22.85 -1.6 -22.95 Z" fill="none" stroke="#3f2621" stroke-linecap="round" stroke-linejoin="round" stroke-width="0.05"/>
  </g>
</svg>
