<?xml version="1.0" encoding="UTF-8" standalone="no"?>
<svg xmlns:xlink="http://www.w3.org/1999/xlink" height="75.1px" width="77.2px" xmlns="http://www.w3.org/2000/svg">
  <g transform="matrix(1.0, 0.0, 0.0, 1.0, 38.3, 21.15)">
    <path d="M33.65 -2.75 Q41.25 9.9 37.85 24.8 L37.65 25.4 Q33.95 40.65 20.3 48.8 6.7 56.85 -7.7 52.35 -22.1 47.85 -31.5 35.1 -40.95 22.25 -37.25 7.05 -35.55 -0.05 -31.65 -5.5 -27.15 -11.8 -19.75 -16.0 -5.85 -23.85 10.05 -19.75 25.9 -15.7 33.65 -2.75 M11.0 33.4 Q18.95 25.6 19.1 13.5 19.2 1.35 11.1 -7.25 3.0 -15.8 -8.5 -15.75 L-9.1 -15.75 Q-20.3 -15.55 -27.65 -6.75 -35.15 2.25 -35.85 13.45 -36.1 17.6 -35.1 21.4 L-34.35 23.75 Q-32.5 28.7 -28.35 32.9 -24.0 37.35 -18.65 39.5 L-13.75 40.85 -12.0 41.15 -11.25 41.15 -8.5 41.3 Q3.05 41.25 11.0 33.4" fill="#7b5040" fill-rule="evenodd" stroke="none"/>
    <path d="M11.0 33.4 Q3.05 41.25 -8.5 41.3 L-11.25 41.15 -12.0 41.15 -13.75 40.85 -18.65 39.5 Q-24.0 37.35 -28.35 32.9 -32.5 28.7 -34.35 23.75 L-35.1 21.4 Q-36.1 17.6 -35.85 13.45 -35.15 2.25 -27.65 -6.75 -20.3 -15.55 -9.1 -15.75 L-8.5 -15.75 Q3.0 -15.8 11.1 -7.25 19.2 1.35 19.1 13.5 18.95 25.6 11.0 33.4" fill="#8f5c49" fill-rule="evenodd" stroke="none"/>
    <path d="M33.65 -2.75 Q41.25 9.9 37.85 24.8 L37.65 25.4 Q33.95 40.65 20.3 48.8 6.7 56.85 -7.7 52.35 -22.1 47.85 -31.5 35.1 -40.95 22.25 -37.25 7.05 -35.55 -0.05 -31.65 -5.5 -27.15 -11.8 -19.75 -16.0 -5.85 -23.85 10.05 -19.75 25.9 -15.7 33.65 -2.75 Z" fill="none" stroke="#3f2621" stroke-linecap="round" stroke-linejoin="round" stroke-width="0.05"/>
  </g>
</svg>
