<?xml version="1.0" encoding="UTF-8" standalone="no"?>
<svg xmlns:xlink="http://www.w3.org/1999/xlink" height="23.75px" width="8.85px" xmlns="http://www.w3.org/2000/svg">
  <g transform="matrix(1.0, 0.0, 0.0, 1.0, 7.5, 0.6)">
    <path d="M-0.7 19.45 L-0.7 19.55 -1.3 21.5 -1.4 21.9 -1.45 21.95 -1.8 22.55 Q-2.45 23.25 -3.55 23.1 -4.65 23.0 -5.5 22.0 -6.3 21.05 -6.45 19.8 L-6.45 18.95 Q-8.55 9.25 -6.45 4.0 L-6.05 3.95 -4.1 3.75 Q2.0 7.3 -0.7 19.45" fill="#5a7e5f" fill-rule="evenodd" stroke="none"/>
    <path d="M-6.05 3.95 L-5.4 0.15 -4.45 -0.45 Q-1.9 -1.0 -0.5 0.35 -0.5 2.0 0.65 6.45 -0.7 3.7 -4.1 3.75 L-6.05 3.95" fill="#3d543f" fill-rule="evenodd" stroke="none"/>
    <path d="M0.65 6.45 Q2.5 8.25 -0.7 19.45 2.0 7.3 -4.1 3.75 -0.7 3.7 0.65 6.45" fill="#537557" fill-rule="evenodd" stroke="none"/>
    <path d="M-6.05 3.95 L-5.4 0.15 -4.45 -0.45 Q-1.9 -1.0 -0.5 0.35 -0.5 2.0 0.65 6.45 2.5 8.25 -0.7 19.45 L-0.7 19.55 -1.3 21.5 -1.4 21.9 -1.45 21.95 -1.8 22.55 Q-2.45 23.25 -3.55 23.1 -4.65 23.0 -5.5 22.0 -6.3 21.05 -6.45 19.8 L-6.45 18.95 Q-8.55 9.25 -6.45 4.0 L-6.05 3.95 -4.1 3.75" fill="none" stroke="#374e32" stroke-linecap="round" stroke-linejoin="round" stroke-width="0.05"/>
  </g>
</svg>
