<?xml version="1.0" encoding="UTF-8" standalone="no"?>
<svg xmlns:xlink="http://www.w3.org/1999/xlink" height="30.0px" width="19.25px" xmlns="http://www.w3.org/2000/svg">
  <g transform="matrix(1.0, 0.0, 0.0, 1.0, 11.1, 2.9)">
    <path d="M-3.65 8.85 Q-6.65 8.85 -9.65 6.1 -12.45 3.55 -9.85 -1.55 -9.95 -2.4 -9.35 -2.55 L-8.9 -2.6 Q-8.05 -1.65 -5.2 -1.1 L-5.0 -1.05 Q-5.9 2.75 -5.45 5.3 -5.1 7.6 -3.65 8.85" fill="#5a7e5f" fill-rule="evenodd" stroke="none"/>
    <path d="M-5.0 -1.05 L-4.75 -1.0 -3.95 -0.95 1.25 -0.7 Q3.7 -0.6 5.5 -1.45 8.75 -1.4 8.05 3.3 7.3 8.0 3.55 8.75 L-1.8 9.35 Q-3.35 9.2 -3.65 8.85 -5.1 7.6 -5.45 5.3 -5.9 2.75 -5.0 -1.05" fill="#537557" fill-rule="evenodd" stroke="none"/>
    <path d="M-5.0 -1.05 L-4.75 -1.0 -3.95 -0.95 1.25 -0.7 Q3.7 -0.6 5.5 -1.45 8.75 -1.4 8.05 3.3 7.3 8.0 3.55 8.75 L-1.8 9.35 Q-3.35 9.2 -3.65 8.85 -6.65 8.85 -9.65 6.1 -12.45 3.55 -9.85 -1.55 -9.95 -2.4 -9.35 -2.55 L-8.9 -2.6 Q-8.05 -1.65 -5.2 -1.1 L-5.0 -1.05" fill="none" stroke="#374e32" stroke-linecap="round" stroke-linejoin="round" stroke-width="0.05"/>
    <path d="M-5.0 -1.05 Q-5.9 2.75 -5.45 5.3 -5.1 7.6 -3.65 8.85" fill="none" stroke="#374e32" stroke-linecap="round" stroke-linejoin="round" stroke-width="0.05"/>
    <path d="M-9.35 5.65 L-10.1 -2.9 Q-6.5 -0.85 3.25 -1.5 L3.5 3.55 Q3.65 6.15 2.75 8.5 -5.85 9.65 -9.35 5.65" fill="#d3d301" fill-rule="evenodd" stroke="none"/>
    <path d="M-2.95 24.15 L-3.0 19.4 -2.95 24.15 Q-4.25 22.95 -5.3 22.6 L-6.65 22.7 Q-7.5 23.05 -7.85 22.1 -7.85 14.1 -9.35 5.65 -5.85 9.65 2.75 8.5 5.4 17.0 4.5 27.1 L3.15 26.1 1.45 25.9 -0.55 25.85 Q-2.05 25.45 -2.95 24.15 M-6.65 16.05 Q-6.3 19.25 -6.65 22.7 -6.3 19.25 -6.65 16.05 M0.65 14.35 L1.45 25.9 0.65 14.35" fill="#ffff99" fill-rule="evenodd" stroke="none"/>
    <path d="M-3.0 19.4 L-2.95 24.15 Q-2.05 25.45 -0.55 25.85 L1.45 25.9 0.65 14.35 M-6.65 22.7 Q-6.3 19.25 -6.65 16.05 M-2.95 24.15 Q-4.25 22.95 -5.3 22.6 L-6.65 22.7 Q-7.5 23.05 -7.85 22.1 -7.85 14.1 -9.35 5.65 L-10.1 -2.9 Q-6.5 -0.85 3.25 -1.5 L3.5 3.55 Q3.65 6.15 2.75 8.5 5.4 17.0 4.5 27.1 L3.15 26.1 1.45 25.9" fill="none" stroke="#787801" stroke-linecap="round" stroke-linejoin="round" stroke-width="0.05"/>
  </g>
</svg>
