<?xml version="1.0" encoding="UTF-8" standalone="no"?>
<svg xmlns:xlink="http://www.w3.org/1999/xlink" height="35.9px" width="30.6px" xmlns="http://www.w3.org/2000/svg">
  <g transform="matrix(1.0, 0.0, 0.0, 1.0, 11.75, 16.85)">
    <path d="M7.15 -8.65 Q8.55 -9.4 8.9 -8.0 L8.95 -7.7 9.1 -6.8 9.3 -6.0 9.3 -5.9 Q10.7 -1.6 10.3 3.75 L10.2 4.7 10.15 5.45 9.35 6.9 Q8.25 8.65 6.8 9.8 L6.6 9.95 Q5.05 11.1 3.1 11.65 L1.85 11.75 1.75 11.7 Q1.95 11.35 -1.6 9.55 -5.2 7.75 -8.05 9.75 L-8.05 9.7 -8.1 9.75 -8.45 9.75 -8.5 9.75 -8.5 9.7 -8.55 9.65 -9.05 9.0 -10.0 7.05 Q-10.6 5.35 -10.6 3.3 L-10.6 2.95 -10.55 2.3 -10.35 3.0 -9.65 4.4 Q-8.5 6.1 -6.4 6.8 L-5.45 7.15 -1.95 7.55 -1.65 7.65 Q3.25 8.85 5.6 6.4 L5.75 6.2 6.9 4.25 7.05 3.95 7.35 3.15 7.75 0.8 Q8.0 -2.6 5.15 -4.6 7.85 -5.9 7.15 -8.65 M-10.5 1.95 L-10.5 1.6 Q-10.3 0.05 -9.1 -2.65 L-8.5 -3.85 Q-6.4 -7.75 -5.1 -7.9 L-4.85 -8.9 -4.4 -9.25 -3.9 -9.0 -3.65 -8.85 Q-3.05 -8.45 -2.75 -8.45 L-2.9 -8.05 -3.55 -7.6 -3.85 -7.0 -4.4 -6.6 -4.55 -6.45 -4.7 -6.35 -4.8 -6.3 -4.8 -6.2 Q-6.5 -5.2 -8.05 -3.15 -9.5 -1.15 -10.4 1.7 L-10.5 1.95 M6.95 4.25 L7.05 3.95 6.95 4.25 M-8.45 9.75 L-8.5 9.7 -8.45 9.75" fill="#537557" fill-rule="evenodd" stroke="none"/>
    <path d="M-10.55 2.3 L-10.5 2.1 -10.5 1.95 -10.4 1.7 Q-9.5 -1.15 -8.05 -3.15 -6.5 -5.2 -4.8 -6.2 L-4.8 -6.3 -4.7 -6.35 -4.55 -6.45 -4.4 -6.6 -3.85 -7.0 -3.55 -7.6 -2.9 -8.05 -2.3 -7.4 Q-1.3 -6.75 0.5 -6.5 L1.8 -6.5 Q2.7 -6.6 3.3 -7.05 L4.4 -8.15 5.2 -8.15 7.15 -8.65 Q7.85 -5.9 5.15 -4.6 8.0 -2.6 7.75 0.8 L7.35 3.15 7.05 3.95 6.9 4.25 5.75 6.2 5.6 6.4 Q3.25 8.85 -1.65 7.65 L-1.95 7.55 -5.45 7.15 -6.4 6.8 Q-8.5 6.1 -9.65 4.4 L-10.35 3.0 -10.55 2.3" fill="#5a7e5f" fill-rule="evenodd" stroke="none"/>
    <path d="M5.1 14.9 L4.6 16.15 Q1.35 17.05 -3.9 16.3 L-5.2 16.1 Q-8.65 15.25 -10.15 14.15 L-11.0 13.3 Q-10.7 12.45 -9.85 11.65 -9.9 12.05 -9.55 12.5 L-9.4 12.6 Q-8.6 13.4 -6.5 14.2 L-6.1 14.3 -3.55 14.75 -3.25 14.8 Q2.65 15.7 5.1 14.9 M-2.75 -8.45 L-2.25 -9.05 Q-1.8 -9.65 -0.3 -16.85 L5.65 -15.9 Q4.05 -11.55 4.4 -8.15 L3.3 -7.05 Q2.7 -6.6 1.8 -6.5 L0.5 -6.5 Q-1.3 -6.75 -2.3 -7.4 L-2.9 -8.05 -2.75 -8.45 M-8.05 9.75 L-8.1 9.75 -8.05 9.7 -8.05 9.75" fill="#3d543f" fill-rule="evenodd" stroke="none"/>
    <path d="M3.1 11.65 Q2.9 13.05 3.6 13.9 L3.9 14.2 5.1 14.9 Q2.65 15.7 -3.25 14.8 L-3.55 14.75 -6.1 14.3 -6.5 14.2 Q-8.6 13.4 -9.4 12.6 L-9.55 12.5 Q-9.9 12.05 -9.85 11.65 L-9.2 11.55 -8.4 10.15 -8.1 9.75 -8.05 9.75 Q-5.2 7.75 -1.6 9.55 1.95 11.35 1.75 11.7 L1.85 11.75 3.1 11.65" fill="#446045" fill-rule="evenodd" stroke="none"/>
    <path d="M7.15 -8.65 Q8.55 -9.4 8.9 -8.0 L8.95 -7.7 9.1 -6.8 9.3 -6.0 M10.2 4.7 L10.15 5.45 9.35 6.9 Q8.25 8.65 6.8 9.8 L6.6 9.95 Q5.05 11.1 3.1 11.65 2.9 13.05 3.6 13.9 L3.9 14.2 5.1 14.9 4.6 16.15 Q1.35 17.05 -3.9 16.3 L-5.2 16.1 Q-8.65 15.25 -10.15 14.15 L-11.0 13.3 Q-10.7 12.45 -9.85 11.65 L-9.2 11.55 -8.4 10.15 -8.1 9.75 -8.45 9.75 -8.5 9.75 M-8.5 9.7 L-8.55 9.65 -9.05 9.0 -10.0 7.05 Q-10.6 5.35 -10.6 3.3 L-10.6 2.95 -10.55 2.3 -10.5 2.1 -10.5 1.95 -10.5 1.6 Q-10.3 0.05 -9.1 -2.65 L-8.5 -3.85 Q-6.4 -7.75 -5.1 -7.9 L-4.85 -8.9 -4.4 -9.25 -3.9 -9.0 -3.65 -8.85 Q-3.05 -8.45 -2.75 -8.45 M-2.25 -9.05 Q-1.8 -9.65 -0.3 -16.85 L5.65 -15.9 Q4.05 -11.55 4.4 -8.15 L5.2 -8.15 7.15 -8.65 M3.1 11.65 L1.85 11.75 M-8.1 9.75 L-8.05 9.7 M-8.5 9.7 L-8.45 9.75 M-9.85 11.65 Q-9.9 12.05 -9.55 12.5 L-9.4 12.6 Q-8.6 13.4 -6.5 14.2 L-6.1 14.3 -3.55 14.75 -3.25 14.8 Q2.65 15.7 5.1 14.9" fill="none" stroke="#374e32" stroke-linecap="round" stroke-linejoin="round" stroke-width="0.05"/>
    <path d="M9.3 -6.0 L9.3 -5.9 Q10.7 -1.6 10.3 3.75 L10.2 4.7 M1.85 11.75 L1.75 11.7 Q1.95 11.35 -1.6 9.55 -5.2 7.75 -8.05 9.75 L-8.1 9.75" fill="none" stroke="#553e35" stroke-linecap="round" stroke-linejoin="round" stroke-width="0.05"/>
    <path d="M9.2 -8.25 Q9.05 -8.1 9.45 -8.0 9.8 -7.85 9.65 -7.4 9.45 -6.95 9.55 -6.75 9.45 -6.95 9.65 -7.4 9.8 -7.85 9.45 -8.0 9.05 -8.1 9.2 -8.25 L9.55 -8.55 9.85 -8.7 Q10.05 -9.8 10.55 -10.45 11.35 -11.55 12.95 -11.55 14.45 -11.0 15.55 -12.3 15.75 -10.6 14.45 -8.9 L14.2 -8.65 16.85 -6.65 17.4 -5.5 Q17.55 -4.4 18.05 -4.45 17.15 -4.1 15.0 -6.05 16.6 -3.7 18.85 -2.8 16.5 -1.85 13.7 -2.8 13.35 -3.0 13.05 -3.15 10.8 -4.5 10.45 -6.85 L9.7 -6.75 9.55 -6.75 7.45 -2.45 Q6.05 0.3 2.55 0.7 L0.6 -1.3 -0.15 1.05 -4.55 0.9 -5.85 -1.4 -6.5 -2.35 Q-7.35 -3.7 -7.45 -5.1 -7.5 -6.5 -7.15 -7.55 L-6.45 -9.1 Q-6.1 -9.6 -4.65 -9.75 L-4.65 -9.8 Q-4.75 -10.4 -3.5 -10.8 L-1.55 -11.2 Q-2.8 -8.05 -0.9 -7.7 L3.3 -8.05 Q4.05 -8.3 4.15 -8.9 4.2 -9.55 4.55 -9.95 L4.65 -10.1 Q8.05 -10.55 8.65 -8.75 L9.0 -8.45 9.2 -8.25 M8.6 -8.35 L8.65 -8.75 8.6 -8.35 8.15 -6.95 7.9 -6.45 7.05 -6.1 Q6.0 -5.95 5.1 -5.2 L2.9 -3.65 Q1.15 -2.8 -0.65 -2.4 L-2.75 -2.25 -4.4 -2.35 -5.5 -2.75 -5.7 -2.8 -6.2 -3.6 -5.8 -2.8 -5.8 -2.75 -5.6 -2.55 -5.55 -2.5 -3.8 -1.6 -0.65 -2.0 1.8 -2.75 4.8 -4.3 6.25 -5.35 6.25 -5.45 6.8 -5.55 7.35 -5.7 8.35 -6.55 8.6 -8.35 M9.85 -8.7 L10.3 -8.7 10.75 -8.5 14.2 -8.65 10.75 -8.5 10.95 -8.3 11.05 -7.5 11.0 -7.45 10.5 -6.9 10.45 -6.85 10.5 -6.9 11.0 -7.45 11.05 -7.5 10.95 -8.3 10.75 -8.5 10.3 -8.7 9.85 -8.7 M-4.65 -9.75 Q-5.2 -9.15 -5.2 -8.05 L-5.1 -6.7 -4.7 -6.05 Q-3.95 -5.1 -2.75 -4.75 -1.25 -4.45 0.35 -4.75 L3.35 -5.55 0.35 -4.75 Q-1.25 -4.45 -2.75 -4.75 -3.95 -5.1 -4.7 -6.05 L-5.1 -6.7 -5.2 -8.05 Q-5.2 -9.15 -4.65 -9.75" fill="#ffff99" fill-rule="evenodd" stroke="none"/>
    <path d="M8.6 -8.35 L8.35 -6.55 7.35 -5.7 6.8 -5.55 6.25 -5.45 6.25 -5.35 4.8 -4.3 1.8 -2.75 -0.65 -2.0 -3.8 -1.6 -5.55 -2.5 -5.6 -2.55 -5.8 -2.75 -5.8 -2.8 -6.2 -3.6 -5.7 -2.8 -5.5 -2.75 -4.4 -2.35 -2.75 -2.25 -0.65 -2.4 Q1.15 -2.8 2.9 -3.65 L5.1 -5.2 Q6.0 -5.95 7.05 -6.1 L7.9 -6.45 8.15 -6.95 8.6 -8.35" fill="#d3d301" fill-rule="evenodd" stroke="none"/>
    <path d="M0.15 17.35 L-3.05 17.15 -2.2 18.2 Q-2.15 18.8 -3.0 19.05 L-6.15 17.2 -8.4 17.3 Q-9.25 16.6 -8.9 16.1 L-8.55 16.0 -9.0 15.85 Q-10.4 15.45 -11.4 13.3 -12.35 11.35 -10.55 9.85 -9.45 9.65 -7.65 11.7 L-5.0 14.85 0.65 13.0 4.9 12.75 Q6.2 14.95 4.15 16.25 1.9 17.65 0.15 17.35 M-8.55 16.0 L-6.15 17.2 -8.55 16.0 M-5.0 14.85 L-3.05 17.15 -5.0 14.85" fill="#5a7e5f" fill-rule="evenodd" stroke="none"/>
    <path d="M9.55 -6.75 Q9.45 -6.95 9.65 -7.4 9.8 -7.85 9.45 -8.0 9.05 -8.1 9.2 -8.25 L9.0 -8.45 8.65 -8.75 8.6 -8.35 8.35 -6.55 7.35 -5.7 6.8 -5.55 6.25 -5.45 M6.25 -5.35 L4.8 -4.3 1.8 -2.75 -0.65 -2.0 -3.8 -1.6 M9.2 -8.25 L9.55 -8.55 9.85 -8.7 Q10.05 -9.8 10.55 -10.45 11.35 -11.55 12.95 -11.55 14.45 -11.0 15.55 -12.3 15.75 -10.6 14.45 -8.9 L14.2 -8.65 16.85 -6.65 17.4 -5.5 Q17.55 -4.4 18.05 -4.45 17.15 -4.1 15.0 -6.05 16.6 -3.7 18.85 -2.8 16.5 -1.85 13.7 -2.8 13.35 -3.0 13.05 -3.15 10.8 -4.5 10.45 -6.85 L9.7 -6.75 9.55 -6.75 7.45 -2.45 Q6.05 0.3 2.55 0.7 L0.6 -1.3 -0.15 1.05 -4.55 0.9 -5.85 -1.4 -6.5 -2.35 Q-7.35 -3.7 -7.45 -5.1 -7.5 -6.5 -7.15 -7.55 L-6.45 -9.1 Q-6.1 -9.6 -4.65 -9.75 L-4.65 -9.8 Q-4.75 -10.4 -3.5 -10.8 L-1.55 -11.2 Q-2.8 -8.05 -0.9 -7.7 L3.3 -8.05 Q4.05 -8.3 4.15 -8.9 4.2 -9.55 4.55 -9.95 L4.65 -10.1 Q8.05 -10.55 8.65 -8.75 M3.35 -5.55 L0.35 -4.75 Q-1.25 -4.45 -2.75 -4.75 -3.95 -5.1 -4.7 -6.05 L-5.1 -6.7 -5.2 -8.05 Q-5.2 -9.15 -4.65 -9.75 M14.2 -8.65 L10.75 -8.5 10.95 -8.3 11.05 -7.5 11.0 -7.45 10.5 -6.9 10.45 -6.85 M10.75 -8.5 L10.3 -8.7 9.85 -8.7" fill="none" stroke="#787801" stroke-linecap="round" stroke-linejoin="round" stroke-width="0.05"/>
    <path d="M0.15 17.35 L-3.05 17.15 -2.2 18.2 Q-2.15 18.8 -3.0 19.05 L-6.15 17.2 -8.4 17.3 Q-9.25 16.6 -8.9 16.1 L-8.55 16.0 -9.0 15.85 Q-10.4 15.45 -11.4 13.3 -12.35 11.35 -10.55 9.85 -9.45 9.65 -7.65 11.7 L-5.0 14.85 0.65 13.0 4.9 12.75 Q6.2 14.95 4.15 16.25 1.9 17.65 0.15 17.35 M-3.05 17.15 L-5.0 14.85 M-6.15 17.2 L-8.55 16.0" fill="none" stroke="#374e32" stroke-linecap="round" stroke-linejoin="round" stroke-width="0.05"/>
  </g>
</svg>
