<?xml version="1.0" encoding="UTF-8" standalone="no"?>
<svg xmlns:xlink="http://www.w3.org/1999/xlink" height="37.4px" width="28.9px" xmlns="http://www.w3.org/2000/svg">
  <g transform="matrix(1.0, 0.0, 0.0, 1.0, 0.9, 3.45)">
    <path d="M15.5 12.95 L16.4 13.15 Q17.35 13.3 18.8 14.15 18.8 13.35 19.05 13.35 L21.65 13.15 24.05 13.05 Q21.6 15.25 22.05 17.05 19.65 18.95 17.2 17.4 16.85 14.9 15.5 12.95 M23.3 17.3 Q25.65 17.9 27.5 20.1 28.65 28.1 27.1 31.5 26.1 32.45 23.95 32.5 16.0 28.9 14.8 22.85 L14.6 22.65 14.45 22.5 14.2 22.25 14.05 22.1 13.95 22.0 Q13.8 20.85 14.85 20.0 15.95 19.1 16.45 19.05 L16.8 18.3 Q19.15 20.0 23.3 17.3" fill="#beb1a7" fill-rule="evenodd" stroke="none"/>
    <path d="M15.5 12.95 L15.35 12.75 Q15.35 12.5 16.4 12.3 17.45 12.15 18.35 12.75 L19.05 12.15 Q20.0 12.15 20.7 12.55 21.25 12.25 21.65 12.3 22.75 12.5 22.75 12.75 L24.05 13.05 21.65 13.15 19.05 13.35 Q18.8 13.35 18.8 14.15 17.35 13.3 16.4 13.15 L15.5 12.95 M27.1 31.5 Q25.5 34.75 21.4 33.65 12.6 28.0 13.95 22.0 L14.05 22.1 14.2 22.25 14.45 22.5 14.6 22.65 14.8 22.85 Q16.0 28.9 23.95 32.5 26.1 32.45 27.1 31.5" fill="#a59485" fill-rule="evenodd" stroke="none"/>
    <path d="M22.05 17.05 L23.3 17.3 Q19.15 20.0 16.8 18.3 L17.2 17.4 Q19.65 18.95 22.05 17.05" fill="#685a4d" fill-rule="evenodd" stroke="none"/>
    <path d="M13.95 22.0 Q2.5 10.25 -0.9 3.9 -0.95 0.25 1.05 -3.45 4.15 7.9 16.45 19.05 15.95 19.1 14.85 20.0 13.8 20.85 13.95 22.0" fill="#9a8776" fill-rule="evenodd" stroke="none"/>
    <path d="M24.05 13.05 L22.75 12.75 Q22.75 12.5 21.65 12.3 21.25 12.25 20.7 12.55 20.0 12.15 19.05 12.15 L18.35 12.75 Q17.45 12.15 16.4 12.3 15.35 12.5 15.35 12.75 L15.5 12.95 16.4 13.15 Q17.35 13.3 18.8 14.15 18.8 13.35 19.05 13.35 L21.65 13.15 24.05 13.05 Q21.6 15.25 22.05 17.05 L23.3 17.3 Q25.65 17.9 27.5 20.1 28.65 28.1 27.1 31.5 25.5 34.75 21.4 33.65 12.6 28.0 13.95 22.0 2.5 10.25 -0.9 3.9 -0.95 0.25 1.05 -3.45 4.15 7.9 16.45 19.05 L16.8 18.3 17.2 17.4 Q16.85 14.9 15.5 12.95 M16.45 19.05 Q15.95 19.1 14.85 20.0 13.8 20.85 13.95 22.0 M23.3 17.3 Q19.15 20.0 16.8 18.3 M17.2 17.4 Q19.65 18.95 22.05 17.05" fill="none" stroke="#374e32" stroke-linecap="round" stroke-linejoin="round" stroke-width="0.05"/>
  </g>
</svg>
