<?xml version="1.0" encoding="UTF-8" standalone="no"?>
<svg xmlns:xlink="http://www.w3.org/1999/xlink" height="7.8px" width="13.6px" xmlns="http://www.w3.org/2000/svg">
  <g transform="matrix(1.0, 0.0, 0.0, 1.0, 3.75, 3.65)">
    <path d="M1.55 3.35 L-1.4 2.25 Q-4.0 1.15 -3.75 -0.85 -1.55 -4.65 3.95 -3.3 L7.65 -2.3 Q7.45 1.35 5.6 3.0 L2.0 2.9 Q1.65 3.05 1.55 3.35" fill="#536854" fill-rule="evenodd" stroke="none"/>
    <path d="M7.65 -2.3 Q8.25 -2.65 9.65 -1.9 10.45 0.35 8.3 3.8 L4.95 4.15 2.7 3.65 1.55 3.35 Q1.65 3.05 2.0 2.9 L5.6 3.0 Q7.45 1.35 7.65 -2.3" fill="#ffffff" fill-rule="evenodd" stroke="none"/>
    <path d="M-3.75 -0.85 Q-1.55 -4.65 3.95 -3.3 L7.65 -2.3" fill="none" stroke="#1c211b" stroke-linecap="round" stroke-linejoin="round" stroke-width="0.05"/>
    <path d="M7.65 -2.3 Q8.25 -2.65 9.65 -1.9 10.45 0.35 8.3 3.8 L4.95 4.15 2.7 3.65 M7.65 -2.3 Q7.45 1.35 5.6 3.0 L2.0 2.9 Q1.65 3.05 1.55 3.35" fill="none" stroke="#666666" stroke-linecap="round" stroke-linejoin="round" stroke-width="0.05"/>
  </g>
</svg>
