<?xml version="1.0" encoding="UTF-8" standalone="no"?>
<svg xmlns:xlink="http://www.w3.org/1999/xlink" height="17.0px" width="11.35px" xmlns="http://www.w3.org/2000/svg">
  <g transform="matrix(1.0, 0.0, 0.0, 1.0, 7.3, 10.35)">
    <path d="M-6.65 -2.4 L-2.95 -0.8 Q-1.95 -0.6 -1.85 0.85 L-1.85 1.7 -3.3 2.05 -6.0 0.85 -6.95 -0.6 -6.95 -1.45 -6.65 -2.4" fill="#ffffff" fill-rule="evenodd" stroke="none"/>
    <path d="M-6.0 -1.6 Q-5.85 -1.35 -5.85 -0.9 -5.85 -0.45 -6.0 -0.15 L-6.3 0.15 -6.6 -0.15 -6.75 -0.9 -6.6 -1.6 -6.3 -1.9 -6.0 -1.6 M-6.0 -1.15 L-6.0 -1.3 -6.05 -1.55 -6.25 -1.65 -6.4 -1.55 -6.45 -1.4 -6.55 -1.35 -6.6 -0.9 -6.55 -0.45 -6.3 -0.25 -6.1 -0.45 -6.0 -0.9 -6.0 -1.15 M-3.35 -0.15 L-3.4 -0.05 -3.55 0.45 -3.4 0.95 -3.15 1.15 -2.85 0.95 -2.8 0.45 -2.8 0.2 -2.75 0.0 -2.85 -0.25 -3.05 -0.35 -3.3 -0.25 -3.35 -0.15 M-2.75 -0.35 L-2.55 0.45 -2.75 1.3 Q-2.9 1.6 -3.15 1.6 L-3.55 1.3 -3.7 0.45 -3.55 -0.35 Q-3.4 -0.7 -3.15 -0.7 L-2.75 -0.35" fill="#0099ff" fill-rule="evenodd" stroke="none"/>
    <path d="M-6.0 -1.15 L-6.0 -0.9 -6.1 -0.45 -6.3 -0.25 -6.55 -0.45 -6.6 -0.9 -6.55 -1.35 -6.45 -1.4 -6.5 -1.3 -6.4 -1.05 -6.25 -0.95 -6.05 -1.05 -6.05 -1.1 -6.0 -1.15 M-2.8 0.2 L-2.8 0.45 -2.85 0.95 -3.15 1.15 -3.4 0.95 -3.55 0.45 -3.4 -0.05 -3.35 -0.15 -3.35 0.0 -3.3 0.3 -3.05 0.4 -2.85 0.3 -2.8 0.2" fill="#000000" fill-rule="evenodd" stroke="none"/>
    <path d="M-6.45 -1.4 L-6.4 -1.55 -6.25 -1.65 -6.05 -1.55 -6.0 -1.3 -6.0 -1.15 -6.05 -1.1 -6.05 -1.05 -6.25 -0.95 -6.4 -1.05 -6.5 -1.3 -6.45 -1.4 M-3.35 -0.15 L-3.3 -0.25 -3.05 -0.35 -2.85 -0.25 -2.75 0.0 -2.8 0.2 -2.85 0.3 -3.05 0.4 -3.3 0.3 -3.35 0.0 -3.35 -0.15" fill="#ffffff" fill-rule="evenodd" stroke="none"/>
    <path d="M1.25 -0.05 L1.3 -0.3 2.1 -0.95 Q2.6 -1.1 2.8 -0.5 L2.95 0.7 2.9 1.05 Q2.75 0.4 2.15 0.1 L1.9 0.45 1.8 0.65 Q1.25 0.75 1.15 0.35 L1.15 0.15 1.2 0.1 1.25 -0.05 M3.0 -7.55 Q4.55 -2.5 -0.45 -0.7 L0.35 2.25 -0.2 4.25 Q-0.8 6.35 -4.5 6.5 -5.3 6.05 -5.85 4.5 L-6.7 1.75 -7.15 -1.1 -7.3 -3.1 -7.15 -4.75 Q-6.75 -6.75 -5.5 -8.25 -3.85 -10.35 -1.45 -10.35 0.9 -10.35 2.5 -8.25 L3.0 -7.55 M-5.85 -0.75 L-5.95 -1.85 Q-6.75 -2.9 -6.95 -0.85 -6.6 0.1 -5.9 0.5 L-5.85 -0.75 Q-5.45 1.1 -5.95 1.9 -5.45 1.1 -5.85 -0.75 M-5.3 2.45 L-5.7 2.15 -5.95 1.9 -5.9 2.15 Q-5.85 2.65 -5.3 2.45 M-1.9 1.45 Q-2.15 -0.85 -3.6 -0.85 -3.95 -0.05 -4.0 1.3 L-1.9 1.45 M-3.3 4.65 Q-5.0 4.2 -5.55 3.65 -5.0 4.2 -3.3 4.65" fill="#fbdab3" fill-rule="evenodd" stroke="none"/>
    <path d="M2.9 1.05 L2.95 0.7 2.8 -0.5 Q2.6 -1.1 2.1 -0.95 L1.3 -0.3 1.25 -0.05 1.2 0.1 1.15 0.15 1.15 0.35 Q1.25 0.75 1.8 0.65 L1.9 0.45 2.15 0.1 Q2.75 0.4 2.9 1.05 L2.85 1.25 2.9 1.05 M3.0 -7.55 Q3.7 -6.35 3.95 -4.8 L3.95 -4.55 4.05 -3.1 Q3.95 -0.7 2.85 1.25 L2.8 1.55 2.75 1.85 2.7 1.95 2.7 2.0 2.55 2.3 1.85 2.9 0.2 5.5 Q-1.45 7.1 -4.5 6.5 -0.8 6.35 -0.2 4.25 L0.35 2.25 -0.45 -0.7 Q4.55 -2.5 3.0 -7.55 M1.65 2.05 L1.65 1.3 1.65 1.15 1.8 0.65 1.65 1.15 1.65 1.3 2.15 1.8 1.65 1.3 1.65 2.05" fill="#fac98f" fill-rule="evenodd" stroke="none"/>
    <path d="M-5.95 1.9 L-5.7 2.15 -5.3 2.45 Q-5.85 2.65 -5.9 2.15 L-5.95 1.9" fill="#ffd0ae" fill-rule="evenodd" stroke="none"/>
    <path d="M2.9 1.05 L2.95 0.7 2.8 -0.5 Q2.6 -1.1 2.1 -0.95 L1.3 -0.3 1.25 -0.05 M1.8 0.65 L1.9 0.45 2.15 0.1 M2.9 1.05 L2.85 1.25 Q3.95 -0.7 4.05 -3.1 L3.95 -4.55 3.95 -4.8 Q3.7 -6.35 3.0 -7.55 L2.5 -8.25 Q0.9 -10.35 -1.45 -10.35 -3.85 -10.35 -5.5 -8.25 -6.75 -6.75 -7.15 -4.75 L-7.3 -3.1 -7.15 -1.1 -6.7 1.75 -5.85 4.5 Q-5.3 6.05 -4.5 6.5 -1.45 7.1 0.2 5.5 L1.85 2.9 2.55 2.3 2.7 2.0 2.7 1.95 2.75 1.85 2.8 1.55 2.85 1.25 M-5.85 -0.75 L-5.9 0.5 Q-6.6 0.1 -6.95 -0.85 -6.75 -2.9 -5.95 -1.85 L-5.85 -0.75 Q-5.45 1.1 -5.95 1.9 L-5.9 2.15 Q-5.85 2.65 -5.3 2.45 M-1.9 1.45 Q-2.15 -0.85 -3.6 -0.85 -3.95 -0.05 -4.0 1.3 L-1.9 1.45 M-5.55 3.65 Q-5.0 4.2 -3.3 4.65 M1.8 0.65 L1.65 1.15 1.65 1.3 2.15 1.8 M1.65 1.3 L1.65 2.05" fill="none" stroke="#d7995e" stroke-linecap="round" stroke-linejoin="round" stroke-width="0.05"/>
  </g>
</svg>
