<?xml version="1.0" encoding="UTF-8" standalone="no"?>
<svg xmlns:xlink="http://www.w3.org/1999/xlink" height="15.3px" width="5.75px" xmlns="http://www.w3.org/2000/svg">
  <g transform="matrix(1.0, 0.0, 0.0, 1.0, 2.65, 0.75)">
    <path d="M-0.4 13.65 Q-0.75 10.55 -1.35 8.05 L-2.1 5.3 Q-2.65 3.55 -2.65 2.25 -2.65 0.9 -2.0 0.05 L-1.9 -0.05 Q-0.95 -1.25 1.4 -0.4 L1.75 0.0 1.9 0.15 3.0 1.8 3.1 3.1 2.3 14.2 Q0.7 15.15 -0.4 13.65" fill="#fbdab3" fill-rule="evenodd" stroke="none"/>
    <path d="M2.3 14.2 L3.1 3.1 3.0 1.8 1.9 0.15 1.75 0.0 1.4 -0.4 Q-0.95 -1.25 -1.9 -0.05 L-2.0 0.05 Q-2.65 0.9 -2.65 2.25 -2.65 3.55 -2.1 5.3 L-1.35 8.05 Q-0.75 10.55 -0.4 13.65" fill="none" stroke="#d7995e" stroke-linecap="round" stroke-linejoin="round" stroke-width="0.05"/>
  </g>
</svg>
