<?xml version="1.0" encoding="UTF-8" standalone="no"?>
<svg xmlns:xlink="http://www.w3.org/1999/xlink" height="13.45px" width="14.85px" xmlns="http://www.w3.org/2000/svg">
  <g transform="matrix(1.0, 0.0, 0.0, 1.0, 4.5, 8.9)">
    <path d="M3.6 0.95 Q2.4 0.5 0.8 1.35 2.0 -0.3 3.6 0.95 M-2.25 -0.85 Q-1.0 -1.15 -0.8 0.65 -1.45 -0.7 -2.25 -0.85" fill="#9b5e5e" fill-rule="evenodd" stroke="none"/>
    <path d="M3.6 0.95 Q2.0 -0.3 0.8 1.35 2.4 0.5 3.6 0.95 M-2.25 -0.85 Q-1.0 -1.15 -0.8 0.65 -1.45 -0.7 -2.25 -0.85" fill="none" stroke="#4b2e2e" stroke-linecap="round" stroke-linejoin="round" stroke-width="0.05"/>
    <path d="M-3.1 -5.65 Q0.05 -8.6 1.35 -7.55 3.6 -10.15 7.25 -7.7 10.85 -5.3 10.3 -1.6 9.75 2.05 9.25 2.5 L8.5 3.1 8.05 4.2 7.65 4.55 Q8.15 2.8 7.75 1.85 L6.55 1.9 6.05 2.6 Q3.3 1.75 1.25 -1.35 0.25 -0.45 0.25 1.05 -0.25 0.0 -0.25 -1.4 L-1.1 -2.25 -2.0 -2.3 -2.15 -2.15 -2.3 -1.05 Q-2.45 -0.05 -2.2 2.1 -6.3 -2.7 -3.1 -5.65" fill="#623c3c" fill-rule="evenodd" stroke="none"/>
    <path d="M-3.1 -5.65 Q-6.3 -2.7 -2.2 2.1 -2.45 -0.05 -2.3 -1.05 L-2.15 -2.15 -2.0 -2.3 -1.1 -2.25 -0.25 -1.4 Q-0.25 0.0 0.25 1.05 0.25 -0.45 1.25 -1.35 3.3 1.75 6.05 2.6 L6.55 1.9 7.75 1.85 Q8.15 2.8 7.65 4.55 L8.05 4.2 8.5 3.1 9.25 2.5 Q9.75 2.05 10.3 -1.6" fill="none" stroke="#4b2e2e" stroke-linecap="round" stroke-linejoin="round" stroke-width="0.05"/>
  </g>
</svg>
