<?xml version="1.0" encoding="UTF-8" standalone="no"?>
<svg xmlns:xlink="http://www.w3.org/1999/xlink" height="31.05px" width="17.8px" xmlns="http://www.w3.org/2000/svg">
  <g transform="matrix(1.0, 0.0, 0.0, 1.0, 10.2, 13.1)">
    <path d="M0.1 -13.05 L0.35 -13.05 0.4 -13.05 0.75 -13.05 0.75 -12.45 Q0.65 -10.15 1.15 -8.15 L1.2 -8.0 1.35 -8.0 2.55 -7.75 0.4 -1.85 0.95 -4.9 Q-0.15 -9.45 -0.8 -10.75 -3.35 -10.95 -3.85 -11.7 L-3.9 -12.15 -4.0 -12.95 -2.8 -13.05 -1.2 -13.1 -0.8 -13.1 0.1 -13.05" fill="#ffd0ae" fill-rule="evenodd" stroke="none"/>
    <path d="M0.4 -1.85 L-3.6 -1.95 Q-6.05 -2.3 -5.9 -6.7 L-5.95 -7.9 -4.05 -8.65 Q-3.8 -10.1 -3.85 -11.7 -3.35 -10.95 -0.8 -10.75 -0.15 -9.45 0.95 -4.9 L0.4 -1.85 M-4.35 -7.45 L-4.05 -8.65 -4.35 -7.45" fill="#ffdfc8" fill-rule="evenodd" stroke="none"/>
    <path d="M0.1 -13.05 L0.35 -13.05 0.4 -13.05 0.75 -13.05 0.75 -12.45 Q0.65 -10.15 1.15 -8.15 L1.2 -8.0 1.35 -8.0 2.55 -7.75 M-5.95 -7.9 L-4.05 -8.65 Q-3.8 -10.1 -3.85 -11.7 L-3.9 -12.15 -4.0 -12.95 -2.8 -13.05 -1.2 -13.1 -0.8 -13.1 0.1 -13.05 M-4.05 -8.65 L-4.35 -7.45" fill="none" stroke="#d7995e" stroke-linecap="round" stroke-linejoin="round" stroke-width="0.05"/>
    <path d="M2.5 -7.8 L2.1 -6.7 Q1.3 -4.55 0.0 -2.7 L1.2 -2.7 Q2.25 -2.25 2.5 -1.55 3.4 1.4 2.75 3.1 1.75 5.05 -1.8 4.3 L-2.0 4.25 -2.0 4.3 -2.15 4.25 -2.6 4.2 -4.5 3.55 -7.3 2.75 -8.6 2.5 Q-9.7 1.9 -10.1 0.65 L-10.2 0.0 Q-10.3 -1.75 -9.65 -2.65 L-9.1 -3.75 -9.0 -4.1 -8.95 -4.2 -9.0 -4.2 Q-8.95 -4.9 -9.05 -5.2 L-9.2 -6.3 -9.05 -7.45 -9.0 -7.7 -8.95 -8.05 -5.65 -8.65 -5.0 -8.65 Q-5.3 -9.65 -4.4 -10.5 -1.55 -9.4 0.85 -10.45 2.05 -9.05 1.8 -8.15 L2.5 -7.8 M2.25 16.2 L-7.3 14.95 -7.95 13.9 -8.3 13.25 Q-8.0 11.35 -6.95 9.75 L-6.75 9.4 -6.7 9.35 -6.6 9.2 Q-6.3 8.5 -6.35 7.5 -4.85 5.55 -3.3 5.75 -1.8 5.95 -0.9 6.6 L0.5 7.95 1.2 8.85 1.3 9.0 1.45 9.2 1.65 9.5 2.6 11.25 2.7 11.45 3.0 12.1 3.0 12.2 2.75 13.55 2.25 16.2" fill="#bebbd5" fill-rule="evenodd" stroke="none"/>
    <path d="M-10.1 0.65 Q-9.7 1.9 -8.6 2.5 L-7.3 2.75 -4.5 3.55 -2.6 4.2 -2.15 4.25 -2.0 4.3 -2.0 4.25 -1.8 4.3 Q1.75 5.05 2.75 3.1 3.4 1.4 2.5 -1.55 2.25 -2.25 1.2 -2.7 L0.0 -2.7 Q1.3 -4.55 2.1 -6.7 L2.5 -7.8 4.15 -6.95 4.4 -6.85 5.55 -6.3 5.95 -6.05 6.9 -5.5 7.15 -5.35 7.3 -5.25 7.3 -5.2 7.2 -4.3 7.05 -3.3 6.15 0.75 5.65 2.3 4.1 5.6 Q3.55 7.15 3.85 8.65 L3.95 9.05 Q4.1 9.65 4.4 10.25 L5.25 11.45 5.65 12.2 6.3 13.85 Q6.6 14.75 5.9 15.2 L4.9 15.55 2.25 16.2 2.75 13.55 3.0 12.2 3.0 12.1 2.7 11.45 2.6 11.25 1.65 9.5 1.45 9.2 1.3 9.0 1.2 8.85 0.5 7.95 -0.9 6.6 Q-1.8 5.95 -3.3 5.75 -4.85 5.55 -6.35 7.5 -6.45 6.5 -6.85 5.2 L-7.2 4.35 -7.4 3.55 Q-8.3 3.35 -8.95 2.7 L-9.35 2.3 Q-9.95 1.6 -10.1 0.65 M4.4 0.25 L4.45 0.95 Q4.55 2.8 3.3 4.15 2.1 5.5 0.25 5.6 L-1.7 5.3 -6.9 3.65 -7.1 3.6 -7.4 3.55 -7.1 3.6 -6.9 3.65 -1.7 5.3 0.25 5.6 Q2.1 5.5 3.3 4.15 4.55 2.8 4.45 0.95 L4.4 0.25" fill="#948fb8" fill-rule="evenodd" stroke="none"/>
    <path d="M2.5 -7.8 L4.15 -6.95" fill="none" stroke="#594337" stroke-linecap="round" stroke-linejoin="round" stroke-width="0.05"/>
    <path d="M4.15 -6.95 L4.4 -6.85 5.55 -6.3 5.95 -6.05 6.9 -5.5 7.15 -5.35 7.3 -5.25 7.3 -5.2 7.2 -4.3 7.05 -3.3 6.15 0.75" fill="none" stroke="#676767" stroke-linecap="round" stroke-linejoin="round" stroke-width="0.05"/>
    <path d="M-10.1 0.65 Q-9.95 1.6 -9.35 2.3 L-8.95 2.7 Q-8.3 3.35 -7.4 3.55 L-7.1 3.6 -6.9 3.65 -1.7 5.3 0.25 5.6 Q2.1 5.5 3.3 4.15 4.55 2.8 4.45 0.95 L4.4 0.25 M-8.95 -8.05 L-5.65 -8.65 -5.0 -8.65 Q-5.3 -9.65 -4.4 -10.5 -1.55 -9.4 0.85 -10.45 2.05 -9.05 1.8 -8.15 L2.5 -7.8 M6.15 0.75 L5.65 2.3 4.1 5.6 Q3.55 7.15 3.85 8.65 L3.95 9.05 Q4.1 9.65 4.4 10.25 L5.25 11.45 5.65 12.2 6.3 13.85 Q6.6 14.75 5.9 15.2 M-8.3 13.25 Q-8.0 11.35 -6.95 9.75 L-6.75 9.4 -6.7 9.35 -6.6 9.2 Q-6.3 8.5 -6.35 7.5 -6.45 6.5 -6.85 5.2 L-7.2 4.35 -7.4 3.55 M-9.0 -4.2 Q-8.95 -4.9 -9.05 -5.2 M-10.1 0.65 L-10.2 0.0 Q-10.3 -1.75 -9.65 -2.65 L-9.1 -3.75 -9.0 -4.1 -9.0 -4.2 M-8.95 -4.2 L-9.0 -4.1" fill="none" stroke="#594f79" stroke-linecap="round" stroke-linejoin="round" stroke-width="0.05"/>
    <path d="M3.45 -8.95 Q5.6 -8.15 6.75 -6.7 -1.5 -4.95 -3.25 14.95 -2.6 15.05 -3.75 14.95 L-4.1 14.85 -4.3 14.8 -5.3 14.5 Q-3.0 -5.1 3.45 -8.95" fill="#65589a" fill-rule="evenodd" stroke="none"/>
    <path d="M-2.3 15.05 L-2.15 15.05 -1.65 15.05 -1.1 15.05 3.8 14.8 3.9 14.75 4.2 14.7 Q5.55 14.35 6.25 13.8 7.25 14.8 6.8 16.2 3.85 17.95 -1.05 17.95 L-2.25 17.9 -4.2 17.55 Q-4.95 15.8 -4.3 14.8 L-4.1 14.85 -3.75 14.95 Q-2.6 15.05 -3.25 14.95 L-2.3 15.05 M-1.35 15.1 L-1.1 15.05 -1.35 15.1 -2.15 15.05 -1.35 15.1 -1.65 15.05 -1.35 15.1" fill="#684942" fill-rule="evenodd" stroke="none"/>
    <path d="M-4.2 17.55 Q-6.15 17.1 -7.35 16.35 L-8.45 15.4 Q-8.9 13.75 -8.3 12.65 L-8.25 12.5 -8.1 12.3 -8.0 12.5 -7.95 12.65 -7.5 13.2 -7.3 13.4 -6.05 14.2 -5.3 14.5 -4.3 14.8 Q-4.95 15.8 -4.2 17.55" fill="#956c5e" fill-rule="evenodd" stroke="none"/>
    <path d="M-6.05 14.2 Q-5.65 -3.2 2.2 -9.35 3.15 -9.9 3.45 -8.95 -3.0 -5.1 -5.3 14.5 L-6.05 14.2 M6.75 -6.7 Q7.65 -6.6 7.6 -5.2 0.45 -4.8 -2.3 15.05 L-3.25 14.95 Q-1.5 -4.95 6.75 -6.7" fill="#ccaf6f" fill-rule="evenodd" stroke="none"/>
    <path d="M-6.05 14.2 Q-5.65 -3.2 2.2 -9.35 3.15 -9.9 3.45 -8.95 5.6 -8.15 6.75 -6.7 7.65 -6.6 7.6 -5.2 0.45 -4.8 -2.3 15.05 L-2.15 15.05 -1.35 15.1 -1.65 15.05 M-6.05 14.2 L-5.3 14.5 M-1.1 15.05 L-1.35 15.1 M-2.3 15.05 L-3.25 14.95" fill="none" stroke="#2e3f31" stroke-linecap="round" stroke-linejoin="round" stroke-width="0.05"/>
    <path d="M6.25 13.8 Q7.25 14.8 6.8 16.2 3.85 17.95 -1.05 17.95 L-2.25 17.9 -4.2 17.55 Q-6.15 17.1 -7.35 16.35 L-8.45 15.4 Q-8.9 13.75 -8.3 12.65 L-8.25 12.5 -8.1 12.3" fill="none" stroke="#674743" stroke-linecap="round" stroke-linejoin="round" stroke-width="0.05"/>
    <path d="M-2.15 15.05 L-1.65 15.05 -1.1 15.05 3.8 14.8 3.9 14.75 4.2 14.7 Q5.55 14.35 6.25 13.8 M-8.1 12.3 L-8.0 12.5 -7.95 12.65 -7.5 13.2 -7.3 13.4 -6.05 14.2 M-3.25 14.95 Q-2.6 15.05 -3.75 14.95 L-4.1 14.85 -4.3 14.8 -5.3 14.5" fill="none" stroke="#30543c" stroke-linecap="round" stroke-linejoin="round" stroke-width="0.05"/>
  </g>
</svg>
