<?xml version="1.0" encoding="UTF-8" standalone="no"?>
<svg xmlns:xlink="http://www.w3.org/1999/xlink" height="26.95px" width="7.05px" xmlns="http://www.w3.org/2000/svg">
  <g transform="matrix(1.0, 0.0, 0.0, 1.0, 4.65, 29.2)">
    <path d="M2.3 -14.1 L2.3 -13.7 2.3 -13.4 2.3 -13.15 Q2.2 -10.85 1.7 -9.35 0.45 -5.5 -3.65 -6.25 L-3.85 -9.35 -4.1 -14.1 Q-0.5 -12.2 2.3 -14.1" fill="#867653" fill-rule="evenodd" stroke="none"/>
    <path d="M1.9 -18.25 Q2.6 -16.4 2.3 -14.1 -0.5 -12.2 -4.1 -14.1 -4.85 -16.5 -4.3 -18.25 -1.1 -17.35 1.9 -18.25" fill="#c5b9a0" fill-rule="evenodd" stroke="none"/>
    <path d="M2.3 -13.15 L2.25 -9.35 2.15 -7.9 1.9 -3.8 Q-0.5 -0.75 -3.45 -3.65 L-3.65 -6.25 Q0.45 -5.5 1.7 -9.35 2.2 -10.85 2.3 -13.15" fill="#6b5f43" fill-rule="evenodd" stroke="none"/>
    <path d="M-4.3 -18.25 L-4.4 -20.25 -4.65 -24.4 Q-4.55 -27.8 -3.1 -29.15 -0.6 -29.6 0.85 -24.9 L1.65 -20.25 1.9 -18.25 Q-1.1 -17.35 -4.3 -18.25" fill="#ffdfc8" fill-rule="evenodd" stroke="none"/>
    <path d="M1.9 -18.25 Q2.6 -16.4 2.3 -14.1 L2.3 -13.7 2.3 -13.4 2.3 -13.15 2.25 -9.35 2.15 -7.9 1.9 -3.8 Q-0.5 -0.75 -3.45 -3.65 L-3.65 -6.25 -3.85 -9.35 -4.1 -14.1 Q-4.85 -16.5 -4.3 -18.25 -1.1 -17.35 1.9 -18.25 M-4.1 -14.1 Q-0.5 -12.2 2.3 -14.1" fill="none" stroke="#4f4331" stroke-linecap="round" stroke-linejoin="round" stroke-width="0.05"/>
    <path d="M-4.3 -18.25 L-4.4 -20.25 -4.65 -24.4 Q-4.55 -27.8 -3.1 -29.15 -0.6 -29.6 0.85 -24.9 L1.65 -20.25 1.9 -18.25 Z" fill="none" stroke="#d7995e" stroke-linecap="round" stroke-linejoin="round" stroke-width="0.05"/>
  </g>
</svg>
