<?xml version="1.0" encoding="UTF-8" standalone="no"?>
<svg xmlns:xlink="http://www.w3.org/1999/xlink" height="21.0px" width="8.4px" xmlns="http://www.w3.org/2000/svg">
  <g transform="matrix(1.0, 0.0, 0.0, 1.0, 8.6, -0.7)">
    <path d="M-0.7 8.1 L-0.4 12.8 Q-1.0 10.05 -1.95 7.9 L-0.85 8.1 -0.7 8.1" fill="#ffd0ae" fill-rule="evenodd" stroke="none"/>
    <path d="M-0.4 12.8 L-0.2 20.6 Q-2.75 22.5 -4.75 21.1 -7.15 15.3 -7.95 8.1 L-6.95 7.9 -3.6 7.65 -1.95 7.9 Q-1.0 10.05 -0.4 12.8" fill="#ffdfc8" fill-rule="evenodd" stroke="none"/>
    <path d="M-7.95 8.1 L-8.0 8.1 -8.3 8.2 -8.6 5.4 -8.6 0.7 -2.1 0.7 Q-0.15 6.3 -0.2 8.2 L-0.7 8.1 -0.85 8.1 -1.95 7.9 -3.6 7.65 -6.95 7.9 -7.95 8.1" fill="#4f4354" fill-rule="evenodd" stroke="none"/>
    <path d="M-0.7 8.1 L-0.4 12.8 -0.2 20.6 M-4.75 21.1 Q-7.15 15.3 -7.95 8.1" fill="none" stroke="#d7995e" stroke-linecap="round" stroke-linejoin="round" stroke-width="0.05"/>
    <path d="M-7.95 8.1 L-8.0 8.1 -8.3 8.2 -8.6 5.4 -8.6 0.7 -2.1 0.7 Q-0.15 6.3 -0.2 8.2 L-0.7 8.1 -0.85 8.1 -1.95 7.9 -3.6 7.65 -6.95 7.9 -7.95 8.1" fill="none" stroke="#000000" stroke-linecap="round" stroke-linejoin="round" stroke-width="0.05"/>
  </g>
</svg>
