<?xml version="1.0" encoding="UTF-8" standalone="no"?>
<svg xmlns:xlink="http://www.w3.org/1999/xlink" height="28.55px" width="17.5px" xmlns="http://www.w3.org/2000/svg">
  <g transform="matrix(1.0, 0.0, 0.0, 1.0, 10.2, 13.1)">
    <path d="M0.1 -13.05 L0.35 -13.05 0.4 -13.05 0.75 -13.05 0.75 -12.45 Q0.65 -10.3 1.1 -8.35 L0.3 -7.5 -0.8 -10.75 Q-3.35 -10.95 -3.85 -11.7 L-3.9 -12.15 -4.0 -12.95 -2.8 -13.05 -1.2 -13.1 -0.8 -13.1 0.1 -13.05 M6.3 -5.8 L7.3 -5.25 7.3 -5.2 6.15 0.75 5.65 2.3 5.45 2.8 4.4 2.05 Q3.1 0.55 3.1 -3.5 4.55 -5.45 6.3 -5.75 L6.3 -5.8" fill="#ffd0ae" fill-rule="evenodd" stroke="none"/>
    <path d="M-10.2 -1.05 Q-10.25 -1.95 -9.35 -3.6 L-9.0 -4.2 -9.2 -6.3 -8.95 -8.05 -6.4 -8.5 -10.2 -1.05 M0.3 -7.5 Q-1.4 -5.65 -2.65 -3.1 L-4.45 -2.25 Q-5.7 -4.55 -5.05 -8.25 L-4.05 -8.65 Q-3.8 -10.1 -3.85 -11.7 -3.35 -10.95 -0.8 -10.75 L0.3 -7.5 M-4.35 -7.45 L-4.05 -8.65 -4.35 -7.45" fill="#ffdfc8" fill-rule="evenodd" stroke="none"/>
    <path d="M3.45 -8.95 Q4.95 -8.05 5.1 -7.25 L4.25 -6.85 3.2 -6.1 Q1.8 -4.95 0.65 -2.7 -0.7 0.0 -1.65 4.15 L-1.9 5.2 -2.15 6.5 -2.4 7.9 -4.3 7.95 -3.9 5.9 -3.6 4.4 -3.35 3.3 Q-2.05 -1.75 -0.25 -4.9 L0.6 -6.25 1.6 -7.45 2.15 -7.95 3.45 -8.95 M-3.3 15.45 L-3.4 15.4 -4.95 15.15 -4.55 9.95 -2.7 9.95 -3.3 15.45" fill="#65589a" fill-rule="evenodd" stroke="none"/>
    <path d="M1.1 -8.35 L2.2 -9.35 Q3.15 -9.9 3.45 -8.95 L2.15 -7.95 1.6 -7.45 0.6 -6.25 -0.25 -4.9 Q-2.05 -1.75 -3.35 3.3 L-3.6 4.4 -3.9 5.9 -4.3 7.95 -5.6 7.8 -5.4 6.35 -4.95 3.95 -4.75 2.9 Q-3.95 -0.5 -2.65 -3.1 -1.4 -5.65 0.3 -7.5 L1.1 -8.35 M5.1 -7.25 Q6.25 -7.45 6.3 -5.8 L6.3 -5.75 Q4.55 -5.45 3.1 -3.5 L1.95 -1.6 Q0.7 0.8 -0.3 4.6 L-0.55 5.6 -0.95 7.25 -1.05 7.8 -2.4 7.9 -2.15 6.5 -1.9 5.2 -1.65 4.15 Q-0.7 0.0 0.65 -2.7 1.8 -4.95 3.2 -6.1 L4.25 -6.85 5.1 -7.25 M-2.3 15.05 Q-2.7 15.0 -3.3 15.45 L-2.7 9.95 -1.45 9.85 -2.3 15.05 M-4.95 15.15 L-5.9 15.05 -5.75 9.8 -4.55 9.95 -4.95 15.15" fill="#874141" fill-rule="evenodd" stroke="none"/>
    <path d="M4.45 9.1 L4.75 9.7 Q6.0 11.75 6.55 14.15 L2.5 15.25 Q2.65 13.7 2.1 11.4 L1.3 9.55 4.45 9.1" fill="#4f4354" fill-rule="evenodd" stroke="none"/>
    <path d="M2.5 15.25 L-2.25 15.05 -2.3 15.05 -1.45 9.85 1.3 9.55 2.1 11.4 Q2.65 13.7 2.5 15.25 M-5.9 15.05 L-8.15 13.75 Q-7.65 11.4 -6.7 9.55 L-5.75 9.8 -5.9 15.05" fill="#5f5065" fill-rule="evenodd" stroke="none"/>
    <path d="M4.0 7.0 L4.1 6.95 Q4.9 7.9 4.7 9.05 L4.45 9.1 1.3 9.55 -1.45 9.85 -2.7 9.95 -4.55 9.95 -5.75 9.8 -6.7 9.55 -6.7 9.5 Q-7.15 8.65 -6.45 7.6 L-6.35 7.65 -5.6 7.8 -4.3 7.95 -2.4 7.9 -1.05 7.8 -0.35 7.75 4.0 7.0" fill="#725043" fill-rule="evenodd" stroke="none"/>
    <path d="M5.45 2.8 L4.1 5.6 4.0 7.0 -0.35 7.75 -0.95 7.25 -0.55 5.6 -0.3 4.6 Q1.85 4.85 2.75 3.1 2.9 0.25 1.95 -1.6 L3.1 -3.5 Q3.1 0.55 4.4 2.05 L5.45 2.8 M-6.35 7.5 Q-6.45 6.5 -6.85 5.2 L-7.2 4.35 -7.4 3.55 Q-8.3 3.35 -8.95 2.7 L-9.35 2.3 Q-9.95 1.6 -10.1 0.65 -9.3 2.55 -7.3 2.95 L-4.75 2.9 -4.95 3.95 -5.4 6.35 Q-5.95 6.7 -6.35 7.5 M-0.55 5.6 L0.25 5.6 Q2.1 5.5 3.3 4.15 4.15 3.2 4.4 2.05 4.15 3.2 3.3 4.15 2.1 5.5 0.25 5.6 L-0.55 5.6 M-7.4 3.55 L-4.95 3.95 -7.4 3.55" fill="#5b7942" fill-rule="evenodd" stroke="none"/>
    <path d="M-6.35 7.65 L-6.35 7.5 Q-5.95 6.7 -5.4 6.35 L-5.6 7.8 -6.35 7.65 M-10.1 0.65 L-10.2 0.0 -10.2 -1.05 -6.4 -8.5 -5.0 -8.65 -5.05 -8.25 Q-5.7 -4.55 -4.45 -2.25 L-2.65 -3.1 Q-3.95 -0.5 -4.75 2.9 L-7.3 2.95 Q-9.3 2.55 -10.1 0.65 M-1.05 7.8 L-0.95 7.25 -0.35 7.75 -1.05 7.8 M-0.3 4.6 Q0.7 0.8 1.95 -1.6 2.9 0.25 2.75 3.1 1.85 4.85 -0.3 4.6" fill="#7e985a" fill-rule="evenodd" stroke="none"/>
    <path d="M0.1 -13.05 L0.35 -13.05 0.4 -13.05 0.75 -13.05 0.75 -12.45 Q0.65 -10.3 1.1 -8.35 M6.3 -5.8 L7.3 -5.25 7.3 -5.2 6.15 0.75 M-10.2 -1.05 Q-10.25 -1.95 -9.35 -3.6 L-9.0 -4.2 -9.2 -6.3 M-3.85 -11.7 L-3.9 -12.15 -4.0 -12.95 -2.8 -13.05 -1.2 -13.1 -0.8 -13.1 0.1 -13.05 M-3.85 -11.7 Q-3.8 -10.1 -4.05 -8.65 L-4.35 -7.45 M-5.05 -8.25 L-4.05 -8.65 M-6.4 -8.5 L-8.95 -8.05" fill="none" stroke="#d7995e" stroke-linecap="round" stroke-linejoin="round" stroke-width="0.05"/>
    <path d="M6.15 0.75 L5.65 2.3 5.45 2.8 4.1 5.6 4.0 7.0 M4.45 9.1 L4.75 9.7 Q6.0 11.75 6.55 14.15 M-6.35 7.65 L-6.35 7.5 Q-6.45 6.5 -6.85 5.2 L-7.2 4.35 -7.4 3.55 Q-8.3 3.35 -8.95 2.7 L-9.35 2.3 Q-9.95 1.6 -10.1 0.65 L-10.2 0.0 -10.2 -1.05 -6.4 -8.5 M4.4 2.05 Q4.15 3.2 3.3 4.15 2.1 5.5 0.25 5.6 L-0.55 5.6 M5.45 2.8 L4.4 2.05 Q3.1 0.55 3.1 -3.5 M-5.05 -8.25 L-5.0 -8.65 M-2.65 -3.1 L-4.45 -2.25 Q-5.7 -4.55 -5.05 -8.25 M-4.95 3.95 L-7.4 3.55" fill="none" stroke="#854343" stroke-linecap="round" stroke-linejoin="round" stroke-width="0.05"/>
    <path d="M-5.0 -8.65 L-6.4 -8.5" fill="none" stroke="#594f79" stroke-linecap="round" stroke-linejoin="round" stroke-width="0.05"/>
    <path d="M1.1 -8.35 L2.2 -9.35 Q3.15 -9.9 3.45 -8.95 4.95 -8.05 5.1 -7.25 6.25 -7.45 6.3 -5.8 L6.3 -5.75 Q4.55 -5.45 3.1 -3.5 L1.95 -1.6 Q0.7 0.8 -0.3 4.6 L-0.55 5.6 -0.95 7.25 -1.05 7.8 M-2.25 15.05 L-2.3 15.05 -1.45 9.85 M1.1 -8.35 L0.3 -7.5 Q-1.4 -5.65 -2.65 -3.1 -3.95 -0.5 -4.75 2.9 L-4.95 3.95 -5.4 6.35 -5.6 7.8 M-4.3 7.95 L-3.9 5.9 -3.6 4.4 -3.35 3.3 Q-2.05 -1.75 -0.25 -4.9 L0.6 -6.25 1.6 -7.45 2.15 -7.95 3.45 -8.95 M5.1 -7.25 L4.25 -6.85 3.2 -6.1 Q1.8 -4.95 0.65 -2.7 -0.7 0.0 -1.65 4.15 L-1.9 5.2 -2.15 6.5 -2.4 7.9 M-4.95 15.15 L-4.55 9.95 M-2.7 9.95 L-3.3 15.45 M-5.75 9.8 L-5.9 15.05" fill="none" stroke="#2e3f31" stroke-linecap="round" stroke-linejoin="round" stroke-width="0.05"/>
    <path d="M4.0 7.0 L4.1 6.95 Q4.9 7.9 4.7 9.05 L4.45 9.1 1.3 9.55 -1.45 9.85 -2.7 9.95 -4.55 9.95 -5.75 9.8 -6.7 9.55 -6.7 9.5 Q-7.15 8.65 -6.45 7.6 L-6.35 7.65 -5.6 7.8 -4.3 7.95 -2.4 7.9 -1.05 7.8 -0.35 7.75 4.0 7.0" fill="none" stroke="#25233d" stroke-linecap="round" stroke-linejoin="round" stroke-width="0.05"/>
    <path d="M-8.15 13.75 Q-7.65 11.4 -6.7 9.55" fill="none" stroke="#25233d" stroke-linecap="round" stroke-linejoin="round" stroke-width="0.05"/>
  </g>
</svg>
