<?xml version="1.0" encoding="UTF-8" standalone="no"?>
<svg xmlns:xlink="http://www.w3.org/1999/xlink" height="23.35px" width="8.6px" xmlns="http://www.w3.org/2000/svg">
  <g transform="matrix(1.0, 0.0, 0.0, 1.0, 8.8, 1.65)">
    <path d="M-8.8 2.55 Q-8.6 -1.1 -6.3 -1.4 L-2.65 -1.65 Q-1.25 1.6 -0.4 5.35 L-1.05 5.25 -3.8 4.8 Q-4.7 3.9 -5.6 3.9 L-6.2 4.05 -7.15 5.05 -8.2 5.25 -8.5 5.35 -8.8 2.55" fill="#4f4354" fill-rule="evenodd" stroke="none"/>
    <path d="M-1.05 5.25 Q-0.6 8.4 -0.4 12.8 -1.05 9.8 -2.15 7.45 -2.95 5.65 -3.8 4.8 L-1.05 5.25 M-8.05 7.25 L-8.05 7.0 -8.15 5.6 -8.2 5.25 -7.15 5.05 -7.2 5.1 -7.5 5.65 -8.05 7.25" fill="#ffd0ae" fill-rule="evenodd" stroke="none"/>
    <path d="M-0.4 12.8 L-0.2 20.6 Q-2.75 22.5 -4.75 21.1 -7.3 14.95 -8.05 7.25 L-7.5 5.65 -7.2 5.1 -7.15 5.05 -3.8 4.8 Q-2.95 5.65 -2.15 7.45 -1.05 9.8 -0.4 12.8" fill="#ffdfc8" fill-rule="evenodd" stroke="none"/>
    <path d="M-7.15 5.05 L-6.2 4.05 -5.6 3.9 Q-4.7 3.9 -3.8 4.8 L-7.15 5.05" fill="#5f5065" fill-rule="evenodd" stroke="none"/>
    <path d="M-1.05 5.25 Q-0.6 8.4 -0.4 12.8 L-0.2 20.6 M-4.75 21.1 Q-7.3 14.95 -8.05 7.25 L-8.05 7.0 -8.15 5.6 -8.2 5.25" fill="none" stroke="#d7995e" stroke-linecap="round" stroke-linejoin="round" stroke-width="0.05"/>
    <path d="M-2.65 -1.65 Q-1.25 1.6 -0.4 5.35 M-8.5 5.35 L-8.8 2.55" fill="none" stroke="#000000" stroke-linecap="round" stroke-linejoin="round" stroke-width="0.05"/>
    <path d="M-0.4 5.35 L-1.05 5.25 -3.8 4.8 -7.15 5.05 -8.2 5.25 -8.5 5.35" fill="none" stroke="#000000" stroke-linecap="round" stroke-linejoin="round" stroke-width="0.05"/>
  </g>
</svg>
