<?xml version="1.0" encoding="UTF-8" standalone="no"?>
<svg xmlns:xlink="http://www.w3.org/1999/xlink" height="17.7px" width="22.95px" xmlns="http://www.w3.org/2000/svg">
  <g transform="matrix(1.0, 0.0, 0.0, 1.0, 6.55, 11.95)">
    <path d="M-0.05 0.35 Q2.0 -0.95 4.35 0.65 L-0.05 0.35 M-2.0 -0.4 Q-3.0 -1.05 -3.85 -0.85 L-3.85 -0.9 -2.1 -0.85 -2.0 -0.4 M12.65 -5.3 L13.4 -3.05 Q15.25 -0.3 16.35 -0.3 L14.15 -0.15 16.4 2.95 14.2 2.35 Q11.15 3.85 14.45 4.25 11.75 5.95 8.55 5.75 L8.85 5.35 Q10.4 3.1 9.9 2.0 L9.75 1.75 Q12.2 -0.3 12.65 -5.3" fill="#a4756b" fill-rule="evenodd" stroke="none"/>
    <path d="M9.75 1.75 Q9.15 0.95 8.05 2.05 L8.0 4.25 Q6.65 0.05 4.35 -1.95 2.85 -1.95 1.4 -0.8 1.3 -2.05 2.2 -3.15 0.65 -2.2 -0.05 0.35 -0.5 0.2 -0.85 -1.8 -1.45 -0.3 -1.5 0.8 L-2.0 -0.4 -2.1 -0.85 -2.25 -2.15 Q-3.55 -1.95 -3.85 -0.9 L-3.85 -0.85 -3.9 0.5 Q-5.3 -2.2 -3.95 -3.1 -5.15 -2.8 -6.55 -1.75 -6.25 -3.45 -2.0 -8.1 -2.3 -8.75 -3.8 -8.1 -2.0 -9.7 -0.4 -9.75 1.1 -11.7 3.55 -11.95 4.7 -11.9 5.0 -11.2 9.45 -13.55 12.65 -5.3 12.2 -0.3 9.75 1.75" fill="#d59e8a" fill-rule="evenodd" stroke="none"/>
    <path d="M9.75 1.75 Q9.15 0.95 8.05 2.05 L8.0 4.25 Q6.65 0.05 4.35 -1.95 2.85 -1.95 1.4 -0.8 1.3 -2.05 2.2 -3.15 0.65 -2.2 -0.05 0.35 2.0 -0.95 4.35 0.65 L-0.05 0.35 Q-0.5 0.2 -0.85 -1.8 -1.45 -0.3 -1.5 0.8 L-2.0 -0.4 Q-3.0 -1.05 -3.85 -0.85 L-3.9 0.5 Q-5.3 -2.2 -3.95 -3.1 -5.15 -2.8 -6.55 -1.75 -6.25 -3.45 -2.0 -8.1 -2.3 -8.75 -3.8 -8.1 -2.0 -9.7 -0.4 -9.75 1.1 -11.7 3.55 -11.95 4.7 -11.9 5.0 -11.2 9.45 -13.55 12.65 -5.3 L13.4 -3.05 Q15.25 -0.3 16.35 -0.3 L14.15 -0.15 16.4 2.95 14.2 2.35 Q11.15 3.85 14.45 4.25 11.75 5.95 8.55 5.75 L8.85 5.35 Q10.4 3.1 9.9 2.0 L9.75 1.75 M-2.0 -0.4 L-2.1 -0.85 -3.85 -0.9 -3.85 -0.85 M-3.85 -0.9 Q-3.55 -1.95 -2.25 -2.15 L-2.1 -0.85" fill="none" stroke="#803f2f" stroke-linecap="round" stroke-linejoin="round" stroke-width="0.05"/>
  </g>
</svg>
