<?xml version="1.0" encoding="UTF-8" standalone="no"?>
<svg xmlns:xlink="http://www.w3.org/1999/xlink" height="4.65px" width="8.15px" xmlns="http://www.w3.org/2000/svg">
  <g transform="matrix(1.0, 0.0, 0.0, 1.0, 4.2, 2.2)">
    <path d="M-3.75 1.1 L-3.95 0.9 -4.2 -0.1 Q-4.1 -1.1 -2.85 -1.7 -1.6 -2.3 0.05 -2.2 L2.1 -1.75 2.25 -1.6 2.75 -1.05 3.05 -0.55 Q3.25 0.05 2.7 0.6 L2.3 0.9 2.25 0.95 0.45 1.55 0.25 1.6 -3.3 1.4 -3.45 1.4 -3.75 1.1" fill="#ffdfc8" fill-rule="evenodd" stroke="none"/>
    <path d="M2.1 -1.75 L2.85 -1.35 3.6 -0.9 Q4.05 -0.6 3.95 0.35 3.8 1.3 2.6 1.9 L2.55 1.95 2.25 2.05 0.0 2.4 -0.05 2.4 -1.35 2.45 Q-2.45 2.2 -2.9 1.85 L-3.45 1.4 -3.3 1.4 0.25 1.6 0.45 1.55 2.25 0.95 2.3 0.9 2.7 0.6 Q3.25 0.05 3.05 -0.55 L2.75 -1.05 2.25 -1.6 2.1 -1.75" fill="#ffd0ae" fill-rule="evenodd" stroke="none"/>
    <path d="M-3.75 1.1 L-3.95 0.9 -4.2 -0.1 Q-4.1 -1.1 -2.85 -1.7 -1.6 -2.3 0.05 -2.2 L2.1 -1.75 2.85 -1.35 3.6 -0.9 M2.6 1.9 L2.55 1.95 2.25 2.05 0.0 2.4 -0.05 2.4" fill="none" stroke="#d7995e" stroke-linecap="round" stroke-linejoin="round" stroke-width="0.05"/>
  </g>
</svg>
