<?xml version="1.0" encoding="UTF-8" standalone="no"?>
<svg xmlns:xlink="http://www.w3.org/1999/xlink" height="14.65px" width="14.7px" xmlns="http://www.w3.org/2000/svg">
  <g transform="matrix(1.0, 0.0, 0.0, 1.0, 4.7, 9.6)">
    <path d="M3.45 0.75 Q2.05 0.3 0.25 1.15 1.6 -0.5 3.45 0.75 M-3.3 -1.05 Q-1.85 -1.35 -1.6 0.45 -2.4 -0.9 -3.3 -1.05" fill="#000033" fill-rule="evenodd" stroke="none"/>
    <path d="M3.45 0.75 Q1.6 -0.5 0.25 1.15 2.05 0.3 3.45 0.75 M-3.3 -1.05 Q-1.85 -1.35 -1.6 0.45 -2.4 -0.9 -3.3 -1.05" fill="none" stroke="#1f1e3c" stroke-linecap="round" stroke-linejoin="round" stroke-width="0.05"/>
    <path d="M8.1 4.0 L8.3 4.05 7.9 4.5 8.1 4.0" fill="#4d6775" fill-rule="evenodd" stroke="none"/>
    <path d="M8.25 2.5 L8.25 2.35 Q8.2 0.55 6.55 1.95 6.05 2.9 6.25 3.55 L5.95 5.05 4.65 0.1 4.1 0.8 2.4 -2.5 -0.15 0.5 -0.3 -3.0 -2.35 -1.85 -2.85 -2.7 Q-4.0 -1.9 -4.65 -0.25 -4.9 -2.85 -3.5 -6.1 -2.15 -9.3 0.65 -9.1 11.6 -11.85 9.7 1.0 9.35 2.55 8.3 4.05 L8.1 4.0 8.2 3.6 8.25 2.55 8.25 2.5" fill="#656075" fill-rule="evenodd" stroke="none"/>
    <path d="M8.25 2.5 L8.25 2.55" fill="none" stroke="#1f1e3c" stroke-linecap="round" stroke-linejoin="round" stroke-width="0.05"/>
    <path d="M8.25 2.35 L8.25 2.5 M8.25 2.55 L8.2 3.6 8.1 4.0 7.9 4.5 8.3 4.05 Q9.35 2.55 9.7 1.0 11.6 -11.85 0.65 -9.1 -2.15 -9.3 -3.5 -6.1 -4.9 -2.85 -4.65 -0.25 -4.0 -1.9 -2.85 -2.7 L-2.35 -1.85 -0.3 -3.0 -0.15 0.5 2.4 -2.5 4.1 0.8 4.65 0.1 5.95 5.05 6.25 3.55 Q6.05 2.9 6.55 1.95 8.2 0.55 8.25 2.35" fill="none" stroke="#181830" stroke-linecap="round" stroke-linejoin="round" stroke-width="0.05"/>
  </g>
</svg>
