<?xml version="1.0" encoding="UTF-8" standalone="no"?>
<svg xmlns:xlink="http://www.w3.org/1999/xlink" height="15.55px" width="19.15px" xmlns="http://www.w3.org/2000/svg">
  <g transform="matrix(1.0, 0.0, 0.0, 1.0, 5.95, 8.95)">
    <path d="M3.45 0.75 Q2.05 0.3 0.25 1.15 1.6 -0.5 3.45 0.75 M-3.3 -1.05 Q-1.85 -1.35 -1.6 0.45 -2.4 -0.9 -3.3 -1.05" fill="#a67b71" fill-rule="evenodd" stroke="none"/>
    <path d="M3.45 0.75 Q1.6 -0.5 0.25 1.15 2.05 0.3 3.45 0.75 M-3.3 -1.05 Q-1.85 -1.35 -1.6 0.45 -2.4 -0.9 -3.3 -1.05" fill="none" stroke="#1f1e3c" stroke-linecap="round" stroke-linejoin="round" stroke-width="0.05"/>
    <path d="M5.3 2.45 L4.65 0.1 4.1 0.8 2.4 -2.5 Q1.6 -0.75 -0.15 0.5 -0.8 -0.8 -0.3 -3.0 -1.15 -0.65 -2.85 -0.9 L-2.85 -2.7 Q-3.5 -1.0 -5.95 -2.35 -4.9 -2.85 -3.35 -5.65 -1.8 -8.5 0.65 -8.85 3.05 -9.2 4.8 -7.95 10.1 -9.4 10.0 -1.6 9.35 0.25 7.35 0.6 6.0 1.25 5.3 2.45" fill="#a67b71" fill-rule="evenodd" stroke="none"/>
    <path d="M10.0 -1.6 L10.0 -1.55 Q10.15 -0.8 11.15 0.15 L10.35 0.45 Q10.5 1.05 11.6 1.6 L13.2 2.15 11.6 2.6 10.45 2.6 Q11.35 5.15 10.5 5.8 9.6 6.45 10.3 6.6 L7.85 6.5 Q6.8 5.7 7.45 4.9 L8.2 3.6 8.25 2.55 8.25 2.5 8.25 2.35 Q8.2 1.15 7.45 1.4 L7.35 1.4 Q7.0 1.55 6.55 1.95 6.05 2.9 6.25 3.55 L5.95 5.05 5.3 2.45 Q6.0 1.25 7.35 0.6 9.35 0.25 10.0 -1.6" fill="#845755" fill-rule="evenodd" stroke="none"/>
    <path d="M8.25 2.55 L8.25 2.5" fill="none" stroke="#1f1e3c" stroke-linecap="round" stroke-linejoin="round" stroke-width="0.05"/>
    <path d="M5.3 2.45 L4.65 0.1 4.1 0.8 2.4 -2.5 Q1.6 -0.75 -0.15 0.5 -0.8 -0.8 -0.3 -3.0 -1.15 -0.65 -2.85 -0.9 L-2.85 -2.7 Q-3.5 -1.0 -5.95 -2.35 -4.9 -2.85 -3.35 -5.65 -1.8 -8.5 0.65 -8.85 3.05 -9.2 4.8 -7.95 10.1 -9.4 10.0 -1.6 L10.0 -1.55 Q10.15 -0.8 11.15 0.15 L10.35 0.45 Q10.5 1.05 11.6 1.6 L13.2 2.15 11.6 2.6 10.45 2.6 Q11.35 5.15 10.5 5.8 9.6 6.45 10.3 6.6 L7.85 6.5 Q6.8 5.7 7.45 4.9 L8.2 3.6 8.25 2.55 M8.25 2.5 L8.25 2.35 Q8.2 1.15 7.45 1.4 L7.35 1.4 Q7.0 1.55 6.55 1.95 6.05 2.9 6.25 3.55 L5.95 5.05 5.3 2.45" fill="none" stroke="#6f4a46" stroke-linecap="round" stroke-linejoin="round" stroke-width="0.05"/>
  </g>
</svg>
