<?xml version="1.0" encoding="UTF-8" standalone="no"?>
<svg xmlns:xlink="http://www.w3.org/1999/xlink" height="19.2px" width="14.05px" xmlns="http://www.w3.org/2000/svg">
  <g transform="matrix(1.0, 0.0, 0.0, 1.0, 3.7, 10.0)">
    <path d="M0.25 1.15 Q1.6 -0.5 3.45 0.75 2.05 0.3 0.25 1.15 M-3.3 -1.05 Q-1.85 -1.35 -1.6 0.45 -2.4 -0.9 -3.3 -1.05" fill="#9b5e5e" fill-rule="evenodd" stroke="none"/>
    <path d="M0.25 1.15 Q2.05 0.3 3.45 0.75 1.6 -0.5 0.25 1.15 M-3.3 -1.05 Q-1.85 -1.35 -1.6 0.45 -2.4 -0.9 -3.3 -1.05" fill="none" stroke="#4b2e2e" stroke-linecap="round" stroke-linejoin="round" stroke-width="0.05"/>
    <path d="M-3.4 -1.95 Q-4.05 -3.55 -3.35 -6.65 L0.65 -10.0 Q-0.2 -7.85 0.35 -7.7 3.9 -9.3 10.35 -6.3 L9.4 -5.75 Q11.0 -0.7 9.8 3.0 8.6 6.65 9.8 8.25 L8.35 7.15 Q8.2 8.75 8.85 9.15 6.35 8.65 7.2 5.15 L7.9 4.55 8.35 3.05 8.2 1.65 Q7.85 0.95 6.65 2.1 6.7 8.8 2.65 8.85 1.6 9.7 1.2 8.45 0.8 7.15 -0.15 6.6 -1.15 6.05 -1.75 6.35 -2.35 6.7 -2.0 8.4 -3.0 7.2 -3.0 6.05 -3.05 4.9 -2.25 4.9 L-0.4 5.1 Q0.65 5.3 1.4 5.9 L2.1 6.4 2.4 7.05 Q4.95 6.7 4.25 1.85 4.9 1.05 5.15 0.0 5.4 -1.05 4.3 -2.25 3.2 -3.5 2.1 -3.15 0.95 -2.85 -1.0 -1.6 L-1.65 -2.45 -2.4 -3.1 Q-2.9 -3.4 -3.4 -1.95 M2.65 8.85 L2.4 7.05 2.65 8.85" fill="#4d4333" fill-rule="evenodd" stroke="none"/>
    <path d="M-2.0 8.4 Q-2.35 6.7 -1.75 6.35 -1.15 6.05 -0.15 6.6 0.8 7.15 1.2 8.45 1.6 9.7 2.65 8.85" fill="none" stroke="#4b2e2e" stroke-linecap="round" stroke-linejoin="round" stroke-width="0.05"/>
    <path d="M6.65 2.1 Q7.85 0.95 8.2 1.65 L8.35 3.05 7.9 4.55 7.2 5.15 Q6.35 8.65 8.85 9.15 8.2 8.75 8.35 7.15 L9.8 8.25 Q8.6 6.65 9.8 3.0 11.0 -0.7 9.4 -5.75 L10.35 -6.3 Q3.9 -9.3 0.35 -7.7 -0.2 -7.85 0.65 -10.0 L-3.35 -6.65 Q-4.05 -3.55 -3.4 -1.95" fill="none" stroke="#4f4535" stroke-linecap="round" stroke-linejoin="round" stroke-width="0.05"/>
    <path d="M-3.4 -1.95 Q-2.9 -3.4 -2.4 -3.1 M-1.65 -2.45 L-1.0 -1.6 Q0.95 -2.85 2.1 -3.15 3.2 -3.5 4.3 -2.25 5.4 -1.05 5.15 0.0 4.9 1.05 4.25 1.85 4.95 6.7 2.4 7.05 L2.65 8.85 Q6.7 8.8 6.65 2.1" fill="none" stroke="#4f4535" stroke-linecap="round" stroke-linejoin="round" stroke-width="0.05"/>
  </g>
</svg>
