<?xml version="1.0" encoding="UTF-8" standalone="no"?>
<svg xmlns:xlink="http://www.w3.org/1999/xlink" height="8.7px" width="8.05px" xmlns="http://www.w3.org/2000/svg">
  <g transform="matrix(1.0, 0.0, 0.0, 1.0, 5.95, 3.2)">
    <path d="M1.0 2.45 Q0.9 0.25 0.6 -0.95 0.35 -2.15 1.25 -1.95 2.25 1.1 2.05 2.45 L1.75 3.75 Q0.45 6.5 -2.75 4.95 L-3.15 4.6 Q-4.05 3.8 -5.95 0.25 -5.6 -0.5 -4.8 1.0 L-2.7 4.05 Q-2.7 3.3 -2.2 2.85 -1.85 2.45 -1.2 2.2 L0.0 2.15 1.0 2.45" fill="#823939" fill-rule="evenodd" stroke="none"/>
    <path d="M1.25 -1.95 Q0.35 -2.15 0.6 -0.95 0.9 0.25 1.0 2.45 L0.0 2.15 -1.2 2.2 Q-1.85 2.45 -2.2 2.85 -2.7 3.3 -2.7 4.05 L-4.8 1.0 Q-5.6 -0.5 -5.95 0.25 -6.0 -1.15 -5.0 -2.0 -5.3 -1.6 -5.15 -1.2 -5.0 -0.75 -4.25 -0.6 L-4.1 -0.6 -2.45 -0.7 -2.4 -0.75 Q-1.45 -1.0 -0.95 -1.5 L-0.85 -1.5 -0.85 -1.55 Q-0.35 -2.1 -0.55 -2.55 -0.65 -3.0 -1.45 -3.15 L-1.45 -3.2 Q-0.25 -3.15 1.25 -1.95" fill="#956c5e" fill-rule="evenodd" stroke="none"/>
    <path d="M-1.45 -3.2 L-1.45 -3.15 -2.15 -3.2 -1.45 -3.2" fill="#9ecffe" fill-rule="evenodd" stroke="none"/>
    <path d="M-1.45 -3.15 Q-0.65 -3.0 -0.55 -2.55 -0.35 -2.1 -0.85 -1.55 L-0.95 -1.5 Q-1.45 -1.0 -2.4 -0.75 L-2.45 -0.7 -4.1 -0.6 -4.25 -0.6 Q-5.0 -0.75 -5.15 -1.2 -5.3 -1.6 -5.0 -2.0 L-4.8 -2.25 Q-4.25 -2.75 -3.2 -3.05 L-2.4 -3.2 -2.15 -3.2 -1.45 -3.15" fill="#000000" fill-rule="evenodd" stroke="none"/>
    <path d="M-0.85 -1.55 L-0.85 -1.5 -0.95 -1.5 -0.85 -1.55" fill="#bcdefe" fill-rule="evenodd" stroke="none"/>
    <path d="M1.0 2.45 L0.0 2.15 -1.2 2.2 Q-1.85 2.45 -2.2 2.85 -2.7 3.3 -2.7 4.05 M-5.95 0.25 Q-4.05 3.8 -3.15 4.6 L-2.75 4.95 Q0.45 6.5 1.75 3.75 L2.05 2.45 Q2.25 1.1 1.25 -1.95 -0.25 -3.15 -1.45 -3.2 L-2.15 -3.2 -2.4 -3.2 -3.2 -3.05 Q-4.25 -2.75 -4.8 -2.25 L-5.0 -2.0 Q-6.0 -1.15 -5.95 0.25 M-0.85 -1.55 L-0.85 -1.5" fill="none" stroke="#3f2c27" stroke-linecap="round" stroke-linejoin="round" stroke-width="0.05"/>
  </g>
</svg>
