<?xml version="1.0" encoding="UTF-8" standalone="no"?>
<svg xmlns:xlink="http://www.w3.org/1999/xlink" height="24.9px" width="13.4px" xmlns="http://www.w3.org/2000/svg">
  <g transform="matrix(1.0, 0.0, 0.0, 1.0, 7.25, 10.05)">
    <path d="M1.35 -6.1 L0.1 -5.35 -3.35 -5.05 -3.6 -5.65 -3.65 -5.75 -3.7 -5.85 -3.6 -6.4 -3.6 -6.5 -3.6 -6.4 Q-4.05 -6.25 -4.25 -5.9 L-4.3 -6.4 -3.6 -6.5 Q-3.35 -8.35 -3.65 -9.7 -0.65 -10.4 1.35 -9.65 L1.25 -8.55 1.25 -8.35 Q1.15 -7.2 1.35 -6.1" fill="#ffd0ae" fill-rule="evenodd" stroke="none"/>
    <path d="M0.1 -5.35 L1.35 -6.1 1.45 -5.65 Q1.55 -5.55 1.75 -5.5 L1.75 -5.45 0.1 -5.35 M-3.6 -6.4 L-3.7 -5.85 -3.65 -5.75 -3.6 -5.65 -3.35 -5.05 -4.25 -5.0 -4.25 -5.9 Q-4.05 -6.25 -3.6 -6.4" fill="#ffdfc8" fill-rule="evenodd" stroke="none"/>
    <path d="M1.75 -5.5 Q1.55 -5.55 1.45 -5.65 L1.35 -6.1 M-3.6 -6.5 L-3.6 -6.4 -3.7 -5.85 -3.65 -5.75 M-4.3 -6.4 L-3.6 -6.5" fill="none" stroke="#674743" stroke-linecap="round" stroke-linejoin="round" stroke-width="0.05"/>
    <path d="M1.35 -6.1 Q1.15 -7.2 1.25 -8.35 L1.25 -8.55 1.35 -9.65 Q-0.65 -10.4 -3.65 -9.7 -3.35 -8.35 -3.6 -6.5" fill="none" stroke="#fb8264" stroke-linecap="round" stroke-linejoin="round" stroke-width="0.05"/>
    <path d="M3.9 11.55 Q4.5 12.35 4.25 13.45 2.3 14.9 -0.85 14.85 L-1.65 14.85 -2.9 14.55 Q-3.4 13.15 -3.0 12.35 L-2.85 12.4 -2.6 12.45 -1.05 12.55 -0.9 12.55 2.3 12.35 2.35 12.3 2.55 12.25 Q3.4 12.0 3.9 11.55" fill="#823939" fill-rule="evenodd" stroke="none"/>
    <path d="M-2.9 14.55 Q-4.2 14.2 -4.95 13.55 L-5.7 12.85 Q-6.0 11.5 -5.6 10.65 L-5.55 10.5 -5.45 10.35 -5.4 10.5 -5.35 10.6 -5.1 11.05 -4.95 11.25 -3.0 12.35 Q-3.4 13.15 -2.9 14.55" fill="#ae654a" fill-rule="evenodd" stroke="none"/>
    <path d="M1.05 -6.95 L2.95 -6.25 0.9 -5.9 1.05 -6.95 M-5.0 -7.05 L-3.55 -7.25 -3.65 -5.75 -4.7 -6.5 -5.0 -7.05" fill="#3a1b1b" fill-rule="evenodd" stroke="none"/>
    <path d="M1.75 -3.75 L1.75 -3.8 1.8 -3.75 1.75 -3.75" fill="#5e7546" fill-rule="evenodd" stroke="none"/>
    <path d="M-5.45 10.35 Q-6.0 9.5 -5.6 3.3 L-5.95 2.8 -6.35 2.1 -6.5 1.85 Q-7.4 0.0 -7.25 -1.9 L-7.0 -3.6 -6.85 -4.0 -6.55 -4.85 -4.9 -5.35 -4.85 -5.35 -4.1 -4.35 Q-3.1 -3.4 1.75 -3.75 L1.8 -3.75 3.25 -3.05 4.2 -2.35 Q4.9 -1.65 4.8 -0.95 L4.85 -0.35 4.8 1.2 4.8 1.25 4.6 3.05 Q4.1 6.05 2.85 8.5 L3.25 11.0 2.55 12.25 2.35 12.3 2.3 12.35 -0.9 12.55 -1.05 12.55 -2.6 12.45 -2.85 12.4 -3.0 12.35 -4.95 11.25 -5.1 11.05 -5.35 10.6 -5.4 10.5 -5.45 10.35" fill="#817ba8" fill-rule="evenodd" stroke="none"/>
    <path d="M3.0 -4.75 L3.4 -4.55 3.65 -4.4 4.55 -3.75 Q6.3 -2.65 6.15 -1.65 L6.15 -1.0 6.1 0.55 6.1 0.65 6.05 1.05 6.05 1.15 5.85 2.95 Q5.35 5.6 4.55 7.5 L4.55 10.3 3.9 11.55 Q3.4 12.0 2.55 12.25 L3.25 11.0 2.85 8.5 Q4.1 6.05 4.6 3.05 L4.8 1.25 4.8 1.2 4.85 -0.35 4.8 -0.95 Q4.9 -1.65 4.2 -2.35 L3.25 -3.05 1.8 -3.75 1.75 -3.8 3.0 -4.75" fill="#666192" fill-rule="evenodd" stroke="none"/>
    <path d="M2.95 -6.25 L2.95 -5.9 3.05 -5.0 3.05 -4.8 3.0 -4.75 1.75 -3.8 1.75 -3.75 Q-3.1 -3.4 -4.1 -4.35 L-4.85 -5.35 -5.0 -7.05 -4.7 -6.5 -3.65 -5.75 Q-2.8 -5.25 -1.5 -5.4 L0.9 -5.9 2.95 -6.25" fill="#5f5986" fill-rule="evenodd" stroke="none"/>
    <path d="M2.35 12.3 L2.3 12.35 -0.9 12.55 -1.05 12.55 -2.6 12.45 -2.85 12.4 -3.0 12.35 -4.95 11.25 -5.1 11.05 -5.35 10.6 -5.4 10.5 -5.45 10.35" fill="none" stroke="#5a5430" stroke-linecap="round" stroke-linejoin="round" stroke-width="0.05"/>
    <path d="M3.9 11.55 Q4.5 12.35 4.25 13.45 2.3 14.9 -0.85 14.85 L-1.65 14.85 -2.9 14.55 Q-4.2 14.2 -4.95 13.55 L-5.7 12.85 Q-6.0 11.5 -5.6 10.65 L-5.55 10.5 -5.45 10.35 M2.55 12.25 Q3.4 12.0 3.9 11.55 M2.55 12.25 L2.35 12.3" fill="none" stroke="#5a5430" stroke-linecap="round" stroke-linejoin="round" stroke-width="0.05"/>
    <path d="M1.05 -6.95 L2.95 -6.25" fill="none" stroke="#421e1e" stroke-linecap="round" stroke-linejoin="round" stroke-width="0.05"/>
    <path d="M2.95 -6.25 L2.95 -5.9 3.05 -5.0 3.05 -4.8 3.0 -4.75 3.4 -4.55 3.65 -4.4 4.55 -3.75 Q6.3 -2.65 6.15 -1.65 L6.15 -1.0 6.1 0.55 6.1 0.65 6.05 1.05 6.05 1.15 5.85 2.95 Q5.35 5.6 4.55 7.5 L4.55 10.3 3.9 11.55 M-5.45 10.35 Q-6.0 9.5 -5.6 3.3 L-5.95 2.8 -6.35 2.1 -6.5 1.85 Q-7.4 0.0 -7.25 -1.9 M-6.55 -4.85 L-4.9 -5.35 -4.85 -5.35 -5.0 -7.05 -3.55 -7.25 M-3.65 -5.75 Q-2.8 -5.25 -1.5 -5.4 L0.9 -5.9 2.95 -6.25 M1.75 -3.8 L1.75 -3.75 Q-3.1 -3.4 -4.1 -4.35 L-4.85 -5.35 M1.75 -3.8 L3.0 -4.75 M-5.0 -7.05 L-4.7 -6.5 -3.65 -5.75" fill="none" stroke="#434262" stroke-linecap="round" stroke-linejoin="round" stroke-width="0.05"/>
  </g>
</svg>
