<?xml version="1.0" encoding="UTF-8" standalone="no"?>
<svg xmlns:xlink="http://www.w3.org/1999/xlink" height="14.9px" width="11.25px" xmlns="http://www.w3.org/2000/svg">
  <g transform="matrix(1.0, 0.0, 0.0, 1.0, 7.5, 9.05)">
    <path d="M-5.3 5.8 Q-6.9 3.8 -7.5 0.3 L-7.45 -1.6 -7.45 -2.95 -7.25 -4.3 Q-6.9 -6.0 -5.65 -7.25 -4.0 -9.05 -1.65 -9.05 0.7 -9.05 2.25 -7.25 L2.7 -6.65 3.05 -4.7 Q3.0 -2.6 0.75 -1.45 L-0.7 -0.9 0.1 1.6 -2.15 4.0 -5.3 5.8 M1.55 0.25 Q1.0 0.3 0.9 0.0 L0.9 -0.15 0.95 -0.25 1.0 -0.35 1.1 -0.6 Q1.35 -1.05 1.85 -1.15 2.35 -1.25 2.55 -0.75 L2.65 0.25 2.6 0.55 Q2.45 0.0 1.85 -0.25 L1.65 0.05 1.55 0.25 M-3.45 3.6 L-5.7 2.75 -3.45 3.6 M-5.45 1.7 L-6.05 1.3 -5.8 0.5 Q-5.75 -0.1 -6.0 -0.95 -5.75 -0.1 -5.8 0.5 L-6.05 1.3 -5.45 1.7" fill="#ffdfc8" fill-rule="evenodd" stroke="none"/>
    <path d="M-5.3 5.8 L-2.15 4.0 0.1 1.6 -0.7 -0.9 0.75 -1.45 Q3.0 -2.6 3.05 -4.7 L2.7 -6.65 Q3.35 -5.75 3.6 -4.7 L3.7 -4.35 3.7 -4.15 3.75 -2.95 Q3.65 -0.9 2.6 0.75 L2.55 1.0 2.45 1.25 2.4 1.35 2.4 1.4 2.3 1.65 Q1.8 2.15 0.8 2.15 L-1.5 4.7 Q-3.4 6.15 -5.3 5.8 M1.0 -0.35 L0.95 -0.25 0.9 -0.15 0.9 0.0 Q1.0 0.3 1.55 0.25 L1.65 0.05 1.85 -0.25 Q2.45 0.0 2.6 0.55 L2.65 0.25 2.55 -0.75 Q2.35 -1.25 1.85 -1.15 1.35 -1.05 1.1 -0.6 L1.0 -0.35 M1.8 1.15 L1.4 0.8 1.45 0.65 1.55 0.25 1.45 0.65 1.4 0.8 1.8 1.15 M2.6 0.55 L2.6 0.75 2.6 0.55" fill="#ffd0ae" fill-rule="evenodd" stroke="none"/>
    <path d="M2.7 -6.65 L2.25 -7.25 Q0.7 -9.05 -1.65 -9.05 -4.0 -9.05 -5.65 -7.25 -6.9 -6.0 -7.25 -4.3 L-7.45 -2.95 -7.45 -1.6 -7.5 0.3 Q-6.9 3.8 -5.3 5.8 -3.4 6.15 -1.5 4.7 L0.8 2.15 Q1.8 2.15 2.3 1.65 L2.4 1.4 2.4 1.35 2.45 1.25 2.55 1.0 2.6 0.75 2.6 0.55 2.65 0.25 2.55 -0.75 Q2.35 -1.25 1.85 -1.15 1.35 -1.05 1.1 -0.6 L1.0 -0.35 M2.7 -6.65 Q3.35 -5.75 3.6 -4.7 L3.7 -4.35 3.7 -4.15 3.75 -2.95 Q3.65 -0.9 2.6 0.75 M1.55 0.25 L1.65 0.05 1.85 -0.25 M1.55 0.25 L1.45 0.65 1.4 0.8 1.8 1.15 M-6.0 -0.95 Q-5.75 -0.1 -5.8 0.5 L-6.05 1.3 -5.45 1.7 M-5.7 2.75 L-3.45 3.6" fill="none" stroke="#d7995e" stroke-linecap="round" stroke-linejoin="round" stroke-width="0.05"/>
    <path d="M-2.7 0.25 L-2.6 0.1 -2.75 -0.15 -3.0 -0.2 -3.2 -0.15 -3.25 -0.05 -3.35 0.05 -3.5 0.5 -3.35 1.0 -3.05 1.2 -2.75 1.0 -2.65 0.5 -2.7 0.25 M-3.2 1.55 L-3.5 1.3 -3.7 0.5 -3.5 -0.25 -3.05 -0.55 Q-2.8 -0.55 -2.6 -0.25 -2.45 0.05 -2.45 0.5 L-2.6 1.3 -3.05 1.6 -3.2 1.55" fill="#0099ff" fill-rule="evenodd" stroke="none"/>
    <path d="M-3.25 -0.05 L-3.2 -0.15 -3.0 -0.2 -2.75 -0.15 -2.6 0.1 -2.7 0.25 -2.75 0.35 -3.0 0.45 -3.2 0.35 -3.35 0.1 -3.25 -0.05 M-3.05 1.6 L-2.6 1.3 -2.45 0.5 Q-2.45 0.05 -2.6 -0.25 -2.8 -0.55 -3.05 -0.55 L-3.5 -0.25 -3.7 0.5 -3.5 1.3 -3.2 1.55 -4.0 1.3 Q-3.95 0.05 -3.55 -0.7 -1.95 -0.65 -1.7 1.45 L-3.05 1.6" fill="#ffffff" fill-rule="evenodd" stroke="none"/>
    <path d="M-2.7 0.25 L-2.65 0.5 -2.75 1.0 -3.05 1.2 -3.35 1.0 -3.5 0.5 -3.35 0.05 -3.25 -0.05 -3.35 0.1 -3.2 0.35 -3.0 0.45 -2.75 0.35 -2.7 0.25" fill="#000000" fill-rule="evenodd" stroke="none"/>
    <path d="M-3.05 1.6 L-1.7 1.45 Q-1.95 -0.65 -3.55 -0.7 -3.95 0.05 -4.0 1.3 L-3.2 1.55 -3.05 1.6 Z" fill="none" stroke="#d7995e" stroke-linecap="round" stroke-linejoin="round" stroke-width="0.05"/>
    <path d="M-6.2 -0.95 L-6.2 -0.7 -6.25 -0.35 -6.5 -0.15 -6.7 -0.35 -6.8 -0.75 -6.7 -1.15 -6.65 -1.2 -6.65 -1.15 -6.6 -0.9 -6.4 -0.8 -6.25 -0.9 -6.2 -0.95" fill="#000000" fill-rule="evenodd" stroke="none"/>
    <path d="M-6.2 -0.95 L-6.25 -0.9 -6.4 -0.8 -6.6 -0.9 -6.65 -1.15 -6.65 -1.2 -6.6 -1.3 -6.4 -1.45 -6.25 -1.3 -6.2 -1.15 -6.2 -1.0 -6.2 -0.95 M-6.6 0.25 L-6.5 0.25 -6.15 -0.05 -6.0 -0.7 -6.15 -1.4 -6.5 -1.7 -6.85 -1.4 -6.95 -0.7 -6.85 -0.05 -7.2 -0.65 -7.2 -0.9 Q-6.9 -2.55 -6.1 -1.6 L-6.0 -0.6 Q-5.95 -0.05 -6.05 0.55 L-6.6 0.25" fill="#ffffff" fill-rule="evenodd" stroke="none"/>
    <path d="M-6.65 -1.2 L-6.7 -1.15 -6.8 -0.75 -6.7 -0.35 -6.5 -0.15 -6.25 -0.35 -6.2 -0.7 -6.2 -0.95 -6.2 -1.0 -6.2 -1.15 -6.25 -1.3 -6.4 -1.45 -6.6 -1.3 -6.65 -1.2 M-6.85 -0.05 L-6.95 -0.7 -6.85 -1.4 -6.5 -1.7 -6.15 -1.4 -6.0 -0.7 -6.15 -0.05 -6.5 0.25 -6.6 0.25 -6.85 -0.05" fill="#0099ff" fill-rule="evenodd" stroke="none"/>
    <path d="M-6.6 0.25 L-6.05 0.55 Q-5.95 -0.05 -6.0 -0.6 L-6.1 -1.6 Q-6.9 -2.55 -7.2 -0.9 M-7.2 -0.65 L-6.85 -0.05 -6.6 0.25 Z" fill="none" stroke="#d7995e" stroke-linecap="round" stroke-linejoin="round" stroke-width="0.05"/>
  </g>
</svg>
