<?xml version="1.0" encoding="UTF-8" standalone="no"?>
<svg xmlns:xlink="http://www.w3.org/1999/xlink" height="12.55px" width="12.65px" xmlns="http://www.w3.org/2000/svg">
  <g transform="matrix(1.0, 0.0, 0.0, 1.0, 3.55, 7.6)">
    <path d="M0.7 1.6 Q1.9 0.2 3.45 1.25 2.25 0.85 0.7 1.6 M-2.35 -0.3 Q-1.1 -0.55 -0.9 1.0 -1.55 -0.2 -2.35 -0.3" fill="#000033" fill-rule="evenodd" stroke="none"/>
    <path d="M7.6 2.75 L7.6 2.65 Q7.55 1.1 6.15 2.3 5.7 3.1 5.9 3.65 L5.65 4.95 4.5 0.7 4.05 1.3 2.6 -1.55 0.4 1.0 0.25 -1.95 -1.55 -1.0 -1.95 -1.7 Q-2.95 -1.05 -3.5 0.4 -3.75 -1.9 -2.5 -4.65 -1.35 -7.4 1.05 -7.2 10.5 -9.55 8.85 1.45 8.55 2.8 7.65 4.05 L7.3 4.5 7.55 3.7 7.6 2.8 7.6 2.75" fill="#806660" fill-rule="evenodd" stroke="none"/>
    <path d="M7.6 2.75 L7.6 2.65" fill="none" stroke="#1f1e3c" stroke-linecap="round" stroke-linejoin="round" stroke-width="0.05"/>
    <path d="M7.6 2.65 Q7.55 1.1 6.15 2.3 5.7 3.1 5.9 3.65 L5.65 4.95 4.5 0.7 4.05 1.3 2.6 -1.55 0.4 1.0 0.25 -1.95 -1.55 -1.0 -1.95 -1.7 Q-2.95 -1.05 -3.5 0.4 -3.75 -1.9 -2.5 -4.65 -1.35 -7.4 1.05 -7.2 10.5 -9.55 8.85 1.45 8.55 2.8 7.65 4.05 L7.3 4.5 7.55 3.7 7.6 2.8 7.6 2.75 Z" fill="none" stroke="#3b240e" stroke-linecap="round" stroke-linejoin="round" stroke-width="0.05"/>
  </g>
</svg>
