<?xml version="1.0" encoding="UTF-8" standalone="no"?>
<svg xmlns:xlink="http://www.w3.org/1999/xlink" height="35.0px" width="17.05px" xmlns="http://www.w3.org/2000/svg">
  <g transform="matrix(1.0, 0.0, 0.0, 1.0, 9.1, 2.05)">
    <path d="M-0.7 24.1 Q5.0 16.8 -1.7 0.4 -0.55 -0.95 1.0 -1.3 7.3 14.55 0.1 24.9 L-0.7 24.1" fill="#cccccc" fill-rule="evenodd" stroke="none"/>
    <path d="M-8.9 29.45 L-8.95 29.3 Q-9.45 27.3 -8.4 25.5 L-7.65 24.55 Q-6.9 23.8 -5.75 23.5 -3.9 23.0 -2.25 23.95 L-1.7 24.3 Q-0.5 25.15 -0.1 26.65 0.35 28.4 -0.6 30.05 -1.6 31.65 -3.4 32.15 L-6.45 31.95 -6.9 31.75 Q-8.35 30.9 -8.9 29.45 M-7.55 28.9 L-7.65 29.3 Q-7.65 29.9 -7.3 30.2 L-6.35 30.4 -5.8 30.1 -5.4 29.75 -5.4 29.7 -5.0 29.1 -4.95 28.85 -4.9 28.6 Q-4.95 28.05 -5.25 27.7 -5.65 27.35 -6.2 27.5 L-7.2 28.2 -7.45 28.55 -7.55 28.9" fill="#604273" fill-rule="evenodd" stroke="none"/>
    <path d="M1.0 -1.3 Q3.0 -1.85 5.75 -0.85 11.85 18.9 0.9 26.35 L0.95 26.65 Q1.5 28.6 0.4 30.4 -0.65 32.2 -2.7 32.75 -4.75 33.3 -6.6 32.3 L-7.2 31.9 Q-8.45 30.95 -8.9 29.45 -8.35 30.9 -6.9 31.75 L-6.45 31.95 -3.4 32.15 Q-1.6 31.65 -0.6 30.05 0.35 28.4 -0.1 26.65 -0.5 25.15 -1.7 24.3 L-2.25 23.95 Q-3.9 23.0 -5.75 23.5 -6.9 23.8 -7.65 24.55 -6.75 23.5 -5.3 23.15 L-2.9 23.05 -1.9 23.4 -1.4 23.65 -0.7 24.1 0.1 24.9 Q7.3 14.55 1.0 -1.3 M0.1 24.9 L0.9 26.35 0.1 24.9 M-4.95 28.85 L-5.0 29.1 -5.4 29.7 -5.4 29.75 -5.8 30.1 -6.35 30.4 -7.3 30.2 Q-7.65 29.9 -7.65 29.3 L-7.55 28.9 -7.45 28.55 -7.2 28.2 -6.2 27.5 Q-5.65 27.35 -5.25 27.7 -4.95 28.05 -4.9 28.6 L-4.95 28.85" fill="#392745" fill-rule="evenodd" stroke="none"/>
    <path d="M1.0 -1.3 Q3.0 -1.85 5.75 -0.85 11.85 18.9 0.9 26.35 L0.95 26.65 Q1.5 28.6 0.4 30.4 -0.65 32.2 -2.7 32.75 -4.75 33.3 -6.6 32.3 L-7.2 31.9 Q-8.45 30.95 -8.9 29.45 L-8.95 29.3 Q-9.45 27.3 -8.4 25.5 L-7.65 24.55 Q-6.75 23.5 -5.3 23.15 L-2.9 23.05 -1.9 23.4 -1.4 23.65 -0.7 24.1 Q5.0 16.8 -1.7 0.4 -0.55 -0.95 1.0 -1.3 M0.9 26.35 L0.1 24.9 -0.7 24.1" fill="none" stroke="#5a3d6d" stroke-linecap="round" stroke-linejoin="round" stroke-width="0.05"/>
    <path d="M1.0 -1.3 L0.7 -2.05" fill="none" stroke="#5a3d6d" stroke-linecap="round" stroke-linejoin="round" stroke-width="0.05"/>
    <path d="M-7.55 28.9 L-7.45 28.55 -7.2 28.2 -6.2 27.5 Q-5.65 27.35 -5.25 27.7 -4.95 28.05 -4.9 28.6 L-4.95 28.85" fill="none" stroke="#b08dc0" stroke-linecap="round" stroke-linejoin="round" stroke-width="0.05"/>
  </g>
</svg>
