<?xml version="1.0" encoding="UTF-8" standalone="no"?>
<svg xmlns:xlink="http://www.w3.org/1999/xlink" height="37.95px" width="38.25px" xmlns="http://www.w3.org/2000/svg">
  <g transform="matrix(1.0, 0.0, 0.0, 1.0, 31.15, 4.85)">
    <path d="M-3.7 0.75 Q-5.35 0.05 -5.85 -2.5 -6.4 -3.55 -4.75 -4.1 L-3.0 -4.6 0.65 -4.85 1.35 -4.8 4.75 -4.35 5.85 -4.0 Q7.6 -3.35 6.9 -2.45 6.25 0.3 4.05 0.95 L2.65 1.35 0.2 1.5 -2.25 1.3 -2.3 1.25 -3.65 0.85 -3.7 0.75 Q-3.9 0.45 -2.85 0.3 L-2.4 0.2 Q-3.5 -1.95 -3.0 -4.6 -3.5 -1.95 -2.4 0.2 L-2.85 0.3 Q-3.9 0.45 -3.7 0.75 M4.75 -4.35 Q4.4 -1.5 2.35 0.25 L3.15 0.35 Q4.25 0.55 4.05 0.95 4.25 0.55 3.15 0.35 L2.35 0.25 0.35 0.1 0.2 0.1 -2.4 0.2 0.2 0.1 0.35 0.1 2.35 0.25 Q4.4 -1.5 4.75 -4.35 M0.35 0.1 Q1.5 -1.3 1.35 -4.8 1.5 -1.3 0.35 0.1" fill="#b5eb0f" fill-rule="evenodd" stroke="none"/>
    <path d="M-3.65 0.85 L-3.7 0.75" fill="none" stroke="#8a574a" stroke-linecap="round" stroke-linejoin="round" stroke-width="0.05"/>
    <path d="M4.05 0.95 L2.65 1.35 0.2 1.5 -2.25 1.3 -2.3 1.25 -3.65 0.85" fill="none" stroke="#6a3f39" stroke-linecap="round" stroke-linejoin="round" stroke-width="0.05"/>
    <path d="M-3.7 0.75 Q-5.35 0.05 -5.85 -2.5 -6.4 -3.55 -4.75 -4.1 L-3.0 -4.6 0.65 -4.85 1.35 -4.8 4.75 -4.35 5.85 -4.0 Q7.6 -3.35 6.9 -2.45 6.25 0.3 4.05 0.95 4.25 0.55 3.15 0.35 L2.35 0.25 0.35 0.1 0.2 0.1 -2.4 0.2 Q-3.5 -1.95 -3.0 -4.6 M-3.7 0.75 Q-3.9 0.45 -2.85 0.3 L-2.4 0.2 M1.35 -4.8 Q1.5 -1.3 0.35 0.1 M2.35 0.25 Q4.4 -1.5 4.75 -4.35" fill="none" stroke="#475f1b" stroke-linecap="round" stroke-linejoin="round" stroke-width="0.05"/>
    <path d="M-20.35 27.15 L-19.35 26.15 Q-11.25 25.75 -5.7 17.4 -8.45 16.6 -9.75 17.45 -9.45 15.95 -5.2 14.3 -1.65 12.05 -2.15 7.4 -2.65 2.7 -3.6 1.65 -4.7 0.95 -0.1 0.55 4.1 0.15 3.8 0.9 4.4 19.55 1.15 27.05 -3.1 33.45 -1.25 26.95 -0.1 19.45 -7.15 24.3 -14.3 29.15 -21.15 32.85 -23.4 33.85 -22.9 31.2 L-21.7 29.35 -20.35 27.15" fill="#a1d109" fill-rule="evenodd" stroke="none"/>
    <path d="M-22.9 31.2 Q-31.75 30.45 -31.1 26.5 -28.5 30.9 -21.7 29.35 L-22.9 31.2" fill="#b1a575" fill-rule="evenodd" stroke="none"/>
    <path d="M-31.1 26.5 Q-30.7 24.0 -26.65 20.3 -33.4 30.35 -20.35 27.15 L-21.7 29.35 Q-28.5 30.9 -31.1 26.5" fill="#f0efae" fill-rule="evenodd" stroke="none"/>
    <path d="M-20.35 27.15 L-19.35 26.15 Q-11.25 25.75 -5.7 17.4 -8.45 16.6 -9.75 17.45 -9.45 15.95 -5.2 14.3 -1.65 12.05 -2.15 7.4 -2.65 2.7 -3.6 1.65 -4.7 0.95 -0.1 0.55 4.1 0.15 3.8 0.9 4.4 19.55 1.15 27.05 -3.1 33.45 -1.25 26.95 -0.1 19.45 -7.15 24.3 -14.3 29.15 -21.15 32.85 -23.4 33.85 -22.9 31.2 L-21.7 29.35 -20.35 27.15" fill="none" stroke="#4f4f00" stroke-linecap="round" stroke-linejoin="round" stroke-width="0.05"/>
    <path d="M-22.9 31.2 Q-31.75 30.45 -31.1 26.5 -30.7 24.0 -26.65 20.3 -33.4 30.35 -20.35 27.15 Z" fill="none" stroke="#475f1b" stroke-linecap="round" stroke-linejoin="round" stroke-width="0.05"/>
  </g>
</svg>
