<?xml version="1.0" encoding="UTF-8" standalone="no"?>
<svg xmlns:xlink="http://www.w3.org/1999/xlink" height="17.55px" width="20.6px" xmlns="http://www.w3.org/2000/svg">
  <g transform="matrix(1.0, 0.0, 0.0, 1.0, 3.7, -0.1)">
    <path d="M0.35 0.1 Q5.2 0.15 4.05 0.95 3.45 3.3 5.35 7.8 6.65 9.25 9.4 8.65 11.15 9.5 9.85 10.9 8.55 12.25 9.4 13.15 L14.9 16.1 Q19.5 18.15 13.5 17.5 7.95 16.65 3.8 12.4 1.25 9.75 -0.85 6.2 L-2.25 3.9 -3.7 0.75 Q-4.0 0.0 0.35 0.1" fill="#a1d109" fill-rule="evenodd" stroke="none"/>
    <path d="M0.35 0.1 Q-4.0 0.0 -3.7 0.75 L-2.25 3.9 -0.85 6.2 Q1.25 9.75 3.8 12.4 7.95 16.65 13.5 17.5 19.5 18.15 14.9 16.1 L9.4 13.15 Q8.55 12.25 9.85 10.9 11.15 9.5 9.4 8.65 6.65 9.25 5.35 7.8 3.45 3.3 4.05 0.95 5.2 0.15 0.35 0.1 Z" fill="none" stroke="#4f4f00" stroke-linecap="round" stroke-linejoin="round" stroke-width="0.05"/>
  </g>
</svg>
