<?xml version="1.0" encoding="UTF-8" standalone="no"?>
<svg xmlns:xlink="http://www.w3.org/1999/xlink" height="19.75px" width="17.55px" xmlns="http://www.w3.org/2000/svg">
  <g transform="matrix(1.0, 0.0, 0.0, 1.0, 3.7, -0.1)">
    <path d="M0.35 0.1 Q5.2 0.15 4.05 0.95 2.3 3.75 3.75 8.5 4.85 10.15 7.65 9.95 9.25 11.0 7.8 12.2 6.25 13.4 7.0 14.35 7.75 15.3 12.05 18.05 16.3 20.8 10.45 19.3 5.1 17.65 1.6 12.85 -1.15 9.1 -2.95 4.1 -3.6 2.25 -3.7 0.75 -4.0 0.0 0.35 0.1" fill="#a1d109" fill-rule="evenodd" stroke="none"/>
    <path d="M0.35 0.1 Q-4.0 0.0 -3.7 0.75 -3.6 2.25 -2.95 4.1 -1.15 9.1 1.6 12.85 5.1 17.65 10.45 19.3 16.3 20.8 12.05 18.05 7.75 15.3 7.0 14.35 6.25 13.4 7.8 12.2 9.25 11.0 7.65 9.95 4.85 10.15 3.75 8.5 2.3 3.75 4.05 0.95 5.2 0.15 0.35 0.1 Z" fill="none" stroke="#4f4f00" stroke-linecap="round" stroke-linejoin="round" stroke-width="0.05"/>
  </g>
</svg>
