<?xml version="1.0" encoding="UTF-8" standalone="no"?>
<svg xmlns:xlink="http://www.w3.org/1999/xlink" height="39.6px" width="52.55px" xmlns="http://www.w3.org/2000/svg">
  <g transform="matrix(1.0, 0.0, 0.0, 1.0, 16.25, 26.85)">
    <path d="M-11.0 -3.85 Q-10.5 -3.3 -9.85 -3.25 -5.2 -2.95 8.3 -26.85 L10.1 -22.55 12.35 -24.4 15.0 -20.65 18.05 -20.65 29.9 -13.05 29.9 -10.6 33.6 -10.6 36.3 -8.4 Q4.15 -0.95 3.35 6.8 L3.35 7.7 3.45 8.2 3.45 8.7 3.1 10.0 2.45 11.05 1.7 11.85 0.35 12.6 Q-0.85 12.95 -1.6 12.35 -2.35 11.75 -2.35 10.7 -3.15 10.8 -3.75 10.3 -4.4 9.8 -4.45 8.9 L-4.7 9.0 -6.75 8.9 Q-7.55 8.3 -7.35 6.9 L-7.25 6.45 -7.4 6.5 Q-8.75 6.9 -9.65 6.2 -10.55 5.45 -10.5 4.05 L-10.3 2.95 -10.5 2.8 -11.45 3.25 Q-12.65 3.6 -13.4 3.0 -14.15 2.4 -14.15 1.35 -14.95 1.45 -15.55 0.95 -16.3 0.35 -16.25 -0.8 -16.2 -2.0 -15.35 -3.1 -14.45 -4.25 -13.3 -4.55 L-11.6 -4.45 -11.35 -4.25 -11.0 -3.85 -11.6 -4.45 -11.0 -3.85 -10.7 -2.85 -9.85 -2.9 -9.05 -2.55 Q-8.25 -1.9 -8.35 -0.65 L-8.7 0.65 -9.35 1.7 -10.1 2.5 -10.5 2.8 -10.1 2.5 -9.35 1.7 -8.7 0.65 -8.35 -0.65 Q-8.25 -1.9 -9.05 -2.55 L-9.85 -2.9 -10.7 -2.85 -11.0 -3.85 M-8.7 0.65 Q-8.0 0.05 -7.1 -0.2 -5.75 -0.6 -4.85 0.1 -3.95 0.8 -4.05 2.25 L-4.05 2.4 -3.65 2.2 -1.55 2.3 Q-0.75 2.9 -1.0 4.35 L-1.0 4.4 Q-0.65 4.4 -0.35 4.65 L-0.2 4.75 -0.35 4.65 Q-0.65 4.4 -1.0 4.4 L-1.0 4.35 Q-0.75 2.9 -1.55 2.3 L-3.65 2.2 -4.05 2.4 -4.05 2.25 Q-3.95 0.8 -4.85 0.1 -5.75 -0.6 -7.1 -0.2 -8.0 0.05 -8.7 0.65 M-0.2 4.75 L0.45 5.1 Q1.05 5.55 1.1 6.5 L1.1 6.85 0.95 7.85 0.2 9.2 Q-0.65 10.3 -1.85 10.6 L-2.35 10.7 -1.85 10.6 Q-0.65 10.3 0.2 9.2 L0.95 7.85 1.1 6.85 1.1 6.5 Q1.05 5.55 0.45 5.1 L-0.2 4.75 M-10.1 2.5 L-10.3 2.95 -10.1 2.5 M1.1 6.5 Q2.1 6.25 2.75 6.8 L3.35 7.7 2.75 6.8 Q2.1 6.25 1.1 6.5" fill="#8aa90c" fill-rule="evenodd" stroke="none"/>
    <path d="M-11.0 -3.85 Q-10.5 -3.3 -9.85 -3.25 -5.2 -2.95 8.3 -26.85 L10.1 -22.55 12.35 -24.4 15.0 -20.65 18.05 -20.65 29.9 -13.05 29.9 -10.6 33.6 -10.6 36.3 -8.4 Q4.15 -0.95 3.35 6.8 L3.35 7.7 3.45 8.2 3.45 8.7 3.1 10.0 2.45 11.05 1.7 11.85 0.35 12.6 Q-0.85 12.95 -1.6 12.35 -2.35 11.75 -2.35 10.7 -3.15 10.8 -3.75 10.3 -4.4 9.8 -4.45 8.9 M-10.3 2.95 L-10.5 2.8 M-11.0 -3.85 L-11.6 -4.45 M-2.35 10.7 L-1.85 10.6 Q-0.65 10.3 0.2 9.2 L0.95 7.85 1.1 6.85 1.1 6.5 Q1.05 5.55 0.45 5.1 L-0.2 4.75 M3.35 7.7 L2.75 6.8 Q2.1 6.25 1.1 6.5" fill="none" stroke="#6c322b" stroke-linecap="round" stroke-linejoin="round" stroke-width="0.05"/>
    <path d="M-4.45 8.9 L-4.7 9.0 -6.75 8.9 Q-7.55 8.3 -7.35 6.9 L-7.25 6.45 -7.4 6.5 Q-8.75 6.9 -9.65 6.2 -10.55 5.45 -10.5 4.05 L-10.3 2.95 -10.1 2.5 -9.35 1.7 -8.7 0.65 -8.35 -0.65 Q-8.25 -1.9 -9.05 -2.55 L-9.85 -2.9 -10.7 -2.85 -11.0 -3.85 -11.35 -4.25 -11.6 -4.45 -13.3 -4.55 Q-14.45 -4.25 -15.35 -3.1 -16.2 -2.0 -16.25 -0.8 -16.3 0.35 -15.55 0.95 -14.95 1.45 -14.15 1.35 -14.15 2.4 -13.4 3.0 -12.65 3.6 -11.45 3.25 L-10.5 2.8 -10.1 2.5 M-0.2 4.75 L-0.35 4.65 Q-0.65 4.4 -1.0 4.4 L-1.0 4.35 Q-0.75 2.9 -1.55 2.3 L-3.65 2.2 -4.05 2.4 -4.05 2.25 Q-3.95 0.8 -4.85 0.1 -5.75 -0.6 -7.1 -0.2 -8.0 0.05 -8.7 0.65" fill="none" stroke="#6c322b" stroke-linecap="round" stroke-linejoin="round" stroke-width="0.05"/>
  </g>
</svg>
