<?xml version="1.0" encoding="UTF-8" standalone="no"?>
<svg xmlns:xlink="http://www.w3.org/1999/xlink" height="10.0px" width="27.3px" xmlns="http://www.w3.org/2000/svg">
  <g transform="matrix(1.0, 0.0, 0.0, 1.0, 0.75, 5.75)">
    <path d="M26.55 -2.55 Q22.25 0.75 12.05 -1.0 L-0.7 -1.4 Q-0.35 -3.75 1.95 -5.75 8.4 -5.85 13.55 -3.0 17.85 -0.65 26.55 -2.55" fill="#beb1d8" fill-rule="evenodd" stroke="none"/>
    <path d="M-0.7 -1.4 L12.05 -1.0 Q22.25 0.75 26.55 -2.55 23.25 4.3 0.95 4.25 -1.1 1.2 -0.7 -1.4" fill="#9782bf" fill-rule="evenodd" stroke="none"/>
    <path d="M26.55 -2.55 Q17.85 -0.65 13.55 -3.0 8.4 -5.85 1.95 -5.75 -0.35 -3.75 -0.7 -1.4 -1.1 1.2 0.95 4.25 23.25 4.3 26.55 -2.55 Z" fill="none" stroke="#544668" stroke-linecap="round" stroke-linejoin="round" stroke-width="0.05"/>
  </g>
</svg>
