<?xml version="1.0" encoding="UTF-8" standalone="no"?>
<svg xmlns:xlink="http://www.w3.org/1999/xlink" height="15.25px" width="15.55px" xmlns="http://www.w3.org/2000/svg">
  <g transform="matrix(1.0, 0.0, 0.0, 1.0, 8.05, 6.65)">
    <path d="M-4.5 -0.65 L-4.25 -1.8 -3.8 -2.75 -3.45 -1.95 Q-3.25 -1.3 -3.2 -0.3 -2.45 0.35 -1.1 -0.3 -0.95 -4.7 -8.05 -5.55 -2.3 -8.2 2.05 -4.6 3.75 -4.0 4.85 -2.85 3.95 -0.2 2.7 0.65 0.65 1.3 -0.8 3.2 L-2.1 3.25 Q-2.85 1.95 -4.0 1.55 L-4.3 1.35 -4.3 1.25 -4.45 0.45 -4.5 -0.65" fill="#ba9eb3" fill-rule="evenodd" stroke="none"/>
    <path d="M4.85 -2.85 L7.5 -1.65 Q3.75 1.5 3.25 7.95 L2.65 6.95 1.75 5.7 Q-0.2 6.2 -0.7 7.65 L-1.5 7.0 -2.2 5.95 -2.2 6.0 -2.3 6.05 -2.35 6.15 -2.9 8.0 Q-3.05 6.3 -3.65 4.95 L-4.75 3.35 -4.6 2.7 Q-5.05 1.3 -5.95 0.85 L-4.5 -0.65 -4.45 0.45 -4.3 1.25 -4.3 1.35 -4.0 1.55 Q-2.85 1.95 -2.1 3.25 L-0.8 3.2 Q0.65 1.3 2.7 0.65 3.95 -0.2 4.85 -2.85 M-3.8 -2.75 Q-5.3 -4.75 -8.05 -5.55 -0.95 -4.7 -1.1 -0.3 -2.45 0.35 -3.2 -0.3 -3.25 -1.3 -3.45 -1.95 L-3.8 -2.75" fill="#a4809a" fill-rule="evenodd" stroke="none"/>
    <path d="M2.65 6.95 L2.5 7.1 Q0.2 9.3 -1.4 8.25 L-2.35 6.15 -2.3 6.05 -2.2 6.0 -2.2 5.95 -1.5 7.0 -0.7 7.65 Q-0.2 6.2 1.75 5.7 L2.65 6.95" fill="#976c8e" fill-rule="evenodd" stroke="none"/>
    <path d="M4.85 -2.85 L7.5 -1.65 Q3.75 1.5 3.25 7.95 L2.65 6.95 1.75 5.7 Q-0.2 6.2 -0.7 7.65 L-1.5 7.0 -2.2 5.95 -2.2 6.0 -2.3 6.05 M-2.35 6.15 L-2.9 8.0 Q-3.05 6.3 -3.65 4.95 L-4.75 3.35 -4.6 2.7 Q-5.05 1.3 -5.95 0.85 L-4.5 -0.65 -4.25 -1.8 -3.8 -2.75 Q-5.3 -4.75 -8.05 -5.55 -2.3 -8.2 2.05 -4.6 3.75 -4.0 4.85 -2.85 M-3.2 -0.3 Q-3.25 -1.3 -3.45 -1.95 L-3.8 -2.75" fill="none" stroke="#544668" stroke-linecap="round" stroke-linejoin="round" stroke-width="0.05"/>
    <path d="M2.65 6.95 L2.5 7.1 Q0.2 9.3 -1.4 8.25 L-2.35 6.15 -2.3 6.05" fill="none" stroke="#544668" stroke-linecap="round" stroke-linejoin="round" stroke-width="0.05"/>
    <path d="M1.8 0.8 L1.5 0.75 Q1.3 0.75 1.2 0.9 1.1 1.1 1.15 1.3 L1.4 1.5 1.7 1.55 1.95 1.4 2.0 1.05 1.8 0.8 M1.1 0.45 Q1.6 0.3 2.05 0.75 L2.75 1.9 Q2.95 2.65 2.75 3.25 L2.05 4.0 1.05 3.7 Q0.6 3.3 0.4 2.55 0.2 1.8 0.4 1.2 0.6 0.6 1.1 0.45" fill="#7d2c7e" fill-rule="evenodd" stroke="none"/>
    <path d="M1.8 0.8 L2.0 1.05 1.95 1.4 1.7 1.55 1.4 1.5 1.15 1.3 Q1.1 1.1 1.2 0.9 1.3 0.75 1.5 0.75 L1.8 0.8" fill="#9494ef" fill-rule="evenodd" stroke="none"/>
    <path d="M-4.15 2.0 Q-3.95 1.55 -3.55 1.5 L-2.9 1.65 -2.5 2.5 -2.65 3.5 -3.2 4.0 Q-3.55 4.1 -3.85 3.8 L-4.25 2.95 -4.15 2.0 M-3.3 1.65 L-3.5 1.8 -3.6 2.05 -3.45 2.2 -3.2 2.25 -3.0 2.1 -2.95 1.9 -3.1 1.7 -3.3 1.65" fill="#7d2c7e" fill-rule="evenodd" stroke="none"/>
    <path d="M-3.3 1.65 L-3.1 1.7 -2.95 1.9 -3.0 2.1 -3.2 2.25 -3.45 2.2 -3.6 2.05 -3.5 1.8 -3.3 1.65" fill="#9494ef" fill-rule="evenodd" stroke="none"/>
  </g>
</svg>
