<?xml version="1.0" encoding="UTF-8" standalone="no"?>
<svg xmlns:xlink="http://www.w3.org/1999/xlink" height="18.8px" width="21.1px" xmlns="http://www.w3.org/2000/svg">
  <g transform="matrix(1.0, 0.0, 0.0, 1.0, 7.45, 13.75)">
    <path d="M3.45 0.75 Q2.05 0.3 0.25 1.15 1.6 -0.5 3.45 0.75 M-3.3 -1.05 Q-1.85 -1.35 -1.6 0.45 -2.4 -0.9 -3.3 -1.05" fill="#503e53" fill-rule="evenodd" stroke="none"/>
    <path d="M3.45 0.75 Q1.6 -0.5 0.25 1.15 2.05 0.3 3.45 0.75 M-3.3 -1.05 Q-1.85 -1.35 -1.6 0.45 -2.4 -0.9 -3.3 -1.05" fill="none" stroke="#5b4961" stroke-linecap="round" stroke-linejoin="round" stroke-width="0.05"/>
    <path d="M9.6 -8.05 L5.1 -7.9 Q5.05 -9.65 1.45 -11.75 L0.15 -13.75 Q5.05 -11.2 5.1 -9.15 L10.9 -9.0 9.6 -8.05 M1.95 -9.6 Q2.4 -8.35 1.65 -8.2 0.9 -8.85 -0.45 -8.9 0.0 -8.1 0.15 -7.2 0.6 -4.7 -1.0 -1.6 -0.55 -4.55 -1.45 -7.0 -1.9 -7.9 -6.3 -5.35 L-7.45 -4.7 Q-5.5 -8.15 -2.35 -8.75 -3.85 -10.2 -5.05 -10.2 -0.25 -11.1 1.65 -9.45 L1.95 -9.6 M12.7 0.4 L11.45 -2.2 11.3 -2.45 Q11.15 -2.75 11.6 -3.2 12.75 -1.1 13.1 0.7 L12.7 0.4 M12.35 -5.1 L8.8 -5.25 Q8.7 -6.1 8.85 -6.5 L8.85 -6.55 9.55 -6.75 Q10.85 -6.95 13.65 -5.9 L12.35 -5.1" fill="#a39174" fill-rule="evenodd" stroke="none"/>
    <path d="M8.85 -6.5 L8.8 -6.5 8.85 -6.55 8.85 -6.5" fill="#edf7a6" fill-rule="evenodd" stroke="none"/>
    <path d="M1.45 -11.75 Q5.05 -9.65 5.1 -7.9 L9.6 -8.05 Q8.25 -7.0 8.8 -6.55 L8.8 -6.5 8.85 -6.5 Q8.7 -6.1 8.8 -5.25 L12.35 -5.1 Q11.05 -4.2 11.3 -3.7 L11.45 -3.45 11.6 -3.2 Q11.15 -2.75 11.3 -2.45 L11.45 -2.2 12.7 0.4 11.25 -0.2 Q11.35 2.2 10.3 3.35 10.4 2.3 10.0 1.5 L9.7 1.0 Q9.35 2.55 8.3 4.05 L7.95 4.45 7.9 4.5 7.95 4.4 8.2 3.6 Q8.4 2.65 8.0 1.65 L7.05 1.55 Q6.45 1.9 6.5 1.95 L6.45 1.95 6.4 2.1 6.4 2.15 6.2 3.1 5.95 5.05 5.05 1.45 4.6 -0.05 Q6.5 -3.3 -1.0 -1.6 0.6 -4.7 0.15 -7.2 0.0 -8.1 -0.45 -8.9 0.9 -8.85 1.65 -8.2 2.4 -8.35 1.95 -9.6 2.45 -10.0 1.45 -11.75 M-6.3 -5.35 Q-1.9 -7.9 -1.45 -7.0 -0.55 -4.55 -1.0 -1.6 -2.65 -3.55 -3.5 -1.85 -3.45 -4.1 -6.3 -5.35" fill="#817354" fill-rule="evenodd" stroke="none"/>
    <path d="M1.45 -11.75 Q2.45 -10.0 1.95 -9.6 L1.65 -9.45 Q-0.25 -11.1 -5.05 -10.2 -3.85 -10.2 -2.35 -8.75 -5.5 -8.15 -7.45 -4.7 L-6.3 -5.35 Q-3.45 -4.1 -3.5 -1.85 M6.5 1.95 Q6.45 1.9 7.05 1.55 M8.0 1.65 Q8.4 2.65 8.2 3.6 L7.95 4.4 7.9 4.5 7.95 4.45 8.3 4.05 Q9.35 2.55 9.7 1.0 L10.0 1.5 Q10.4 2.3 10.3 3.35 11.35 2.2 11.25 -0.2 L12.7 0.4 13.1 0.7 Q12.75 -1.1 11.6 -3.2 L11.45 -3.45 11.3 -3.7 Q11.05 -4.2 12.35 -5.1 L13.65 -5.9 Q10.85 -6.95 9.55 -6.75 L8.85 -6.55 8.8 -6.5 8.8 -6.55 Q8.25 -7.0 9.6 -8.05 L10.9 -9.0 5.1 -9.15 Q5.05 -11.2 0.15 -13.75 L1.45 -11.75 M6.5 1.95 L6.45 2.1" fill="none" stroke="#4f4535" stroke-linecap="round" stroke-linejoin="round" stroke-width="0.05"/>
    <path d="M-1.0 -1.6 Q6.5 -3.3 4.6 -0.05 L5.05 1.45 5.95 5.05 6.2 3.1 6.4 2.15 6.4 2.1 6.45 1.95 M-1.0 -1.6 Q-2.65 -3.55 -3.5 -1.85" fill="none" stroke="#4f4535" stroke-linecap="round" stroke-linejoin="round" stroke-width="0.05"/>
  </g>
</svg>
