<?xml version="1.0" encoding="UTF-8" standalone="no"?>
<svg xmlns:xlink="http://www.w3.org/1999/xlink" height="17.95px" width="7.15px" xmlns="http://www.w3.org/2000/svg">
  <g transform="matrix(1.0, 0.0, 0.0, 1.0, 4.65, 5.65)">
    <path d="M0.5 -4.8 L0.8 -4.5 Q2.0 -3.15 2.35 -1.05 2.65 1.05 2.3 3.25 L2.35 3.25 1.6 12.3 Q-0.6 12.45 -2.65 11.65 L-2.65 10.3 -2.9 2.75 -3.1 2.55 -3.25 2.35 -3.8 1.65 Q-4.45 0.55 -4.6 -0.85 -4.8 -2.75 -3.95 -4.15 -3.15 -5.55 -1.75 -5.65 -0.55 -5.75 0.5 -4.8 M-2.6 10.3 L-2.65 10.3 -2.6 10.3" fill="#928361" fill-rule="evenodd" stroke="none"/>
    <path d="M0.5 -4.8 L0.8 -4.5 Q2.0 -3.15 2.35 -1.05 2.65 1.05 2.3 3.25 L2.35 3.25 1.6 12.3 M-2.65 11.65 L-2.65 10.3 -2.9 2.75 M-3.1 2.55 L-3.25 2.35 -3.8 1.65 M-2.65 10.3 L-2.6 10.3" fill="none" stroke="#4a4239" stroke-linecap="round" stroke-linejoin="round" stroke-width="0.05"/>
  </g>
</svg>
