<?xml version="1.0" encoding="UTF-8" standalone="no"?>
<svg xmlns:xlink="http://www.w3.org/1999/xlink" height="62.75px" width="36.65px" xmlns="http://www.w3.org/2000/svg">
  <g transform="matrix(1.0, 0.0, 0.0, 1.0, 18.6, 26.75)">
    <path d="M5.6 -24.8 L6.9 -25.15 7.45 -25.4 Q10.35 -14.65 12.25 -3.85 L17.5 26.6 Q15.25 29.6 7.75 31.55 9.2 7.9 8.3 -3.85 7.45 -13.65 5.6 -24.8" fill="#7a6b54" fill-rule="evenodd" stroke="none"/>
    <path d="M-5.1 -24.4 Q-3.15 -24.25 -0.45 -24.4 L5.05 -24.75 5.6 -24.8 Q7.45 -13.65 8.3 -3.85 9.2 7.9 7.75 31.55 L7.45 31.6 Q0.25 31.6 -5.1 30.3 -3.35 1.95 -5.1 -24.4 M-18.3 21.8 L-18.25 21.35 -16.05 -3.85 Q-15.25 -12.35 -13.8 -20.35 L-12.45 -26.75 Q-10.2 -25.7 -8.15 -25.05 L-8.1 -25.0 Q-7.85 1.2 -10.25 28.55 -15.6 26.15 -18.3 21.8" fill="#928361" fill-rule="evenodd" stroke="none"/>
    <path d="M7.45 36.0 Q-12.65 36.05 -18.6 25.7 L-18.3 21.8 Q-15.6 26.15 -10.25 28.55 -7.85 1.2 -8.1 -25.0 -6.9 -24.55 -5.1 -24.4 -3.35 1.95 -5.1 30.3 0.25 31.6 7.45 31.6 L7.75 31.55 7.45 36.0 M-5.1 30.3 Q-7.9 29.6 -10.25 28.55 -7.9 29.6 -5.1 30.3" fill="#443d35" fill-rule="evenodd" stroke="none"/>
    <path d="M17.5 26.6 L18.05 30.0 Q16.4 33.75 7.45 36.0 L7.75 31.55 Q15.25 29.6 17.5 26.6" fill="#35302b" fill-rule="evenodd" stroke="none"/>
    <path d="M7.45 -25.4 Q10.35 -14.65 12.25 -3.85 L17.5 26.6 18.05 30.0 Q16.4 33.75 7.45 36.0 -12.65 36.05 -18.6 25.7 L-18.3 21.8 M-18.25 21.35 L-16.05 -3.85 Q-15.25 -12.35 -13.8 -20.35 L-12.45 -26.75" fill="none" stroke="#4a4239" stroke-linecap="round" stroke-linejoin="round" stroke-width="0.05"/>
    <path d="M-5.1 -24.4 Q-3.35 1.95 -5.1 30.3 M-10.25 28.55 Q-7.85 1.2 -8.1 -25.0" fill="none" stroke="#333333" stroke-linecap="round" stroke-linejoin="round" stroke-width="0.05"/>
    <path d="M-18.3 21.8 L-18.25 21.35 M-5.1 30.3 Q0.25 31.6 7.45 31.6 L7.75 31.55 Q15.25 29.6 17.5 26.6 M-10.25 28.55 Q-7.9 29.6 -5.1 30.3 M-18.3 21.8 Q-15.6 26.15 -10.25 28.55" fill="none" stroke="#4a4239" stroke-linecap="round" stroke-linejoin="round" stroke-width="0.05"/>
  </g>
</svg>
