<?xml version="1.0" encoding="UTF-8" standalone="no"?>
<svg xmlns:xlink="http://www.w3.org/1999/xlink" height="74.6px" width="143.2px" xmlns="http://www.w3.org/2000/svg">
  <g transform="matrix(1.0, 0.0, 0.0, 1.0, 3.75, 41.0)">
    <path d="M29.65 -40.95 Q18.95 -32.4 10.45 -20.25 L10.45 -32.55 Q11.45 -34.7 15.45 -36.2 19.4 -37.75 20.75 -38.45 22.05 -39.2 29.6 -41.0 L29.65 -40.95" fill="#0da3c8" fill-rule="evenodd" stroke="none"/>
    <path d="M-3.3 -7.9 Q-2.6 -12.4 -0.8 -16.45 2.05 -23.05 10.45 -32.55 L10.45 -20.25 Q6.45 -14.55 4.65 -11.1 -0.8 -10.65 -3.3 -7.9" fill="#7c3f6c" fill-rule="evenodd" stroke="none"/>
    <path d="M29.65 -40.95 Q34.15 -37.35 38.1 -33.8 48.4 -24.75 54.9 -16.7 L56.7 -14.4 Q26.15 -23.5 10.45 -20.25 18.95 -32.4 29.65 -40.95" fill="#20c7f0" fill-rule="evenodd" stroke="none"/>
    <path d="M10.45 -20.25 Q26.15 -23.5 56.7 -14.4 87.8 -15.3 112.8 -24.4 115.55 -17.6 116.55 -11.7 L116.95 -8.25 Q117.2 -5.2 116.8 -4.8 114.0 -3.2 110.55 -1.55 L108.6 -0.6 102.65 1.85 Q96.15 4.25 88.8 6.0 80.85 7.9 72.0 8.95 L70.35 9.1 70.25 9.15 66.15 9.5 59.9 9.95 53.1 10.2 52.3 10.2 47.6 10.2 Q35.55 4.75 4.65 -11.1 6.45 -14.55 10.45 -20.25 M56.7 -14.4 L57.9 -12.75 Q66.75 -0.35 66.15 9.5 66.75 -0.35 57.9 -12.75 L56.7 -14.4" fill="#8d477a" fill-rule="evenodd" stroke="none"/>
    <path d="M112.8 -24.4 L93.45 -32.65 139.45 -23.25 Q127.6 -15.9 116.55 -11.7 115.55 -17.6 112.8 -24.4" fill="#873828" fill-rule="evenodd" stroke="none"/>
    <path d="M115.1 1.7 Q113.15 6.95 109.4 12.5 101.7 19.35 90.45 23.75 77.85 30.3 65.35 32.55 51.9 34.85 38.5 32.2 29.15 30.1 23.8 27.7 L22.2 26.65 Q5.75 15.9 1.9 10.1 -2.2 4.0 -3.75 -2.35 -1.95 -7.6 3.2 -7.15 L46.6 10.2 47.6 10.2 52.3 10.2 53.1 10.2 59.9 9.95 66.15 9.5 70.25 9.15 70.35 9.1 72.0 8.95 Q80.85 7.9 88.8 6.0 96.15 4.25 102.65 1.85 L108.6 -0.6 110.55 -1.55 Q114.0 -3.2 116.8 -4.8 116.3 -1.6 115.1 1.7 M88.8 6.0 Q93.95 16.2 90.45 23.75 93.95 16.2 88.8 6.0 M3.2 -7.15 Q7.85 16.8 22.2 26.65 7.85 16.8 3.2 -7.15 M46.6 10.2 Q47.15 31.1 38.5 32.2 47.15 31.1 46.6 10.2 M65.35 32.55 Q71.65 29.75 70.25 9.15 71.65 29.75 65.35 32.55" fill="#ecbe24" fill-rule="evenodd" stroke="none"/>
    <path d="M139.45 -23.25 L115.1 1.7 Q116.3 -1.6 116.8 -4.8 117.2 -5.2 116.95 -8.25 L116.55 -11.7 Q127.6 -15.9 139.45 -23.25" fill="#491d16" fill-rule="evenodd" stroke="none"/>
    <path d="M-3.75 -2.35 L-3.5 -6.7 -3.3 -7.9 Q-0.8 -10.65 4.65 -11.1 35.55 4.75 47.6 10.2 L46.6 10.2 3.2 -7.15 Q-1.95 -7.6 -3.75 -2.35" fill="#542c4d" fill-rule="evenodd" stroke="none"/>
    <path d="M56.7 -14.4 L54.9 -16.7 Q48.4 -24.75 38.1 -33.8 34.15 -37.35 29.65 -40.95 M10.45 -32.55 Q11.45 -34.7 15.45 -36.2 19.4 -37.75 20.75 -38.45 22.05 -39.2 29.6 -41.0" fill="none" stroke="#0da3c8" stroke-linecap="round" stroke-linejoin="round" stroke-width="0.05"/>
    <path d="M10.45 -20.25 Q26.15 -23.5 56.7 -14.4 L57.9 -12.75 Q66.75 -0.35 66.15 9.5 L70.25 9.15 70.35 9.1 72.0 8.95 Q80.85 7.9 88.8 6.0 96.15 4.25 102.65 1.85 L108.6 -0.6 110.55 -1.55 Q114.0 -3.2 116.8 -4.8 117.2 -5.2 116.95 -8.25 L116.55 -11.7 Q115.55 -17.6 112.8 -24.4 M-3.75 -2.35 L-3.5 -6.7 -3.3 -7.9 Q-2.6 -12.4 -0.8 -16.45 2.05 -23.05 10.45 -32.55 L10.45 -20.25 M29.6 -41.0 L29.65 -40.95 M47.6 10.2 L52.3 10.2 M53.1 10.2 L59.9 9.95 66.15 9.5 M-3.75 -2.35 Q-1.95 -7.6 3.2 -7.15 L46.6 10.2 47.6 10.2" fill="none" stroke="#603157" stroke-linecap="round" stroke-linejoin="round" stroke-width="0.05"/>
    <path d="M93.45 -32.65 L139.45 -23.25 115.1 1.7" fill="none" stroke="#3e309e" stroke-linecap="round" stroke-linejoin="round" stroke-width="0.05"/>
    <path d="M115.1 1.7 Q113.15 6.95 109.4 12.5 101.7 19.35 90.45 23.75 77.85 30.3 65.35 32.55 51.9 34.85 38.5 32.2 29.15 30.1 23.8 27.7 L22.2 26.65 Q5.75 15.9 1.9 10.1 -2.2 4.0 -3.75 -2.35 M52.3 10.2 L53.1 10.2 M90.45 23.75 Q93.95 16.2 88.8 6.0 M70.25 9.15 Q71.65 29.75 65.35 32.55 M38.5 32.2 Q47.15 31.1 46.6 10.2 M22.2 26.65 Q7.85 16.8 3.2 -7.15 M116.8 -4.8 Q116.3 -1.6 115.1 1.7" fill="none" stroke="#91680d" stroke-linecap="round" stroke-linejoin="round" stroke-width="0.05"/>
    <path d="M21.25 -13.5 L53.05 -9.35 58.85 -1.3 52.35 -7.0 21.25 -13.5 51.65 -4.95 58.85 -1.3 52.2 3.55 21.25 -13.5" fill="#990000" fill-rule="evenodd" stroke="none"/>
    <path d="M21.25 -13.5 L52.35 -7.0 58.85 -1.3 51.65 -4.95 21.25 -13.5" fill="#fba8af" fill-rule="evenodd" stroke="none"/>
    <path d="M58.85 -1.3 L53.05 -9.35 21.25 -13.5 52.2 3.55 58.85 -1.3 Z" fill="none" stroke="#ff0000" stroke-linecap="round" stroke-linejoin="round" stroke-width="0.05"/>
    <path d="M-2.3 -22.5 L3.7 -24.3 4.85 -18.65 2.15 -22.5 -2.3 -22.5 1.05 -21.7 4.85 -18.65 -1.05 -16.15 -2.3 -22.5" fill="#990000" fill-rule="evenodd" stroke="none"/>
    <path d="M-2.3 -22.5 L2.15 -22.5 4.85 -18.65 1.05 -21.7 -2.3 -22.5" fill="#fba8af" fill-rule="evenodd" stroke="none"/>
    <path d="M4.85 -18.65 L3.7 -24.3 -2.3 -22.5 -1.05 -16.15 4.85 -18.65 Z" fill="none" stroke="#ff0000" stroke-linecap="round" stroke-linejoin="round" stroke-width="0.05"/>
  </g>
</svg>
