<?xml version="1.0" encoding="UTF-8" standalone="no"?>
<svg xmlns:xlink="http://www.w3.org/1999/xlink" height="78.65px" width="15.65px" xmlns="http://www.w3.org/2000/svg">
  <g transform="matrix(1.0, 0.0, 0.0, 1.0, 3.2, 30.0)">
    <path d="M12.45 37.4 Q11.9 42.4 5.2 48.65 L-2.95 43.15 -2.95 36.95 -2.95 8.5 Q-1.85 7.9 -1.75 5.65 L1.1 17.7 -0.2 40.75 4.9 44.75 12.45 37.4" fill="#646c79" fill-rule="evenodd" stroke="none"/>
    <path d="M2.55 5.25 Q2.8 7.35 4.2 8.0 L4.2 38.65 5.3 40.5 12.45 37.4 4.9 44.75 -0.2 40.75 1.1 17.7 2.55 5.25" fill="#76818d" fill-rule="evenodd" stroke="none"/>
    <path d="M1.1 17.7 L-1.75 5.65 2.55 5.25 1.1 17.7" fill="#9ea7af" fill-rule="evenodd" stroke="none"/>
    <path d="M1.45 -23.15 L2.55 5.25 -1.75 5.65 -2.05 -22.85 1.45 -23.15" fill="#29323b" fill-rule="evenodd" stroke="none"/>
    <path d="M-2.05 -22.85 Q-4.05 -24.8 -2.55 -26.8 L-2.75 -27.25 Q-3.0 -28.1 -2.6 -28.9 -2.15 -29.7 -1.3 -30.0 L0.4 -29.85 Q1.25 -29.4 1.55 -28.5 1.75 -27.85 1.55 -27.2 -0.8 -27.9 -2.55 -26.8 M1.55 -27.25 Q3.4 -25.25 1.45 -23.15 L-2.05 -22.85 M4.2 38.65 L5.3 40.5 12.45 37.4 Q11.9 42.4 5.2 48.65 L-2.95 43.15 -2.95 36.95" fill="none" stroke="#1b1b1b" stroke-linecap="round" stroke-linejoin="round" stroke-width="0.05"/>
    <path d="M2.55 5.25 Q2.8 7.35 4.2 8.0 L4.2 38.65 M-2.95 36.95 L-2.95 8.5 Q-1.85 7.9 -1.75 5.65 L2.55 5.25" fill="none" stroke="#333333" stroke-linecap="round" stroke-linejoin="round" stroke-width="0.05"/>
    <path d="M1.45 -23.15 L2.55 5.25 M-1.75 5.65 L-2.05 -22.85 Z" fill="none" stroke="#564e47" stroke-linecap="round" stroke-linejoin="round" stroke-width="0.05"/>
    <path d="M2.25 1.6 L2.25 1.55 Q4.1 3.55 2.15 5.65 L-1.35 5.95 Q-3.35 4.0 -1.85 2.0 -0.1 0.9 2.25 1.6" fill="#646c79" fill-rule="evenodd" stroke="none"/>
    <path d="M2.25 1.6 Q-0.1 0.9 -1.85 2.0 -3.35 4.0 -1.35 5.95 L2.15 5.65 Q4.1 3.55 2.25 1.55" fill="none" stroke="#1b1b1b" stroke-linecap="round" stroke-linejoin="round" stroke-width="0.05"/>
  </g>
</svg>
