<?xml version="1.0" encoding="UTF-8" standalone="no"?>
<svg xmlns:xlink="http://www.w3.org/1999/xlink" height="14.25px" width="6.7px" xmlns="http://www.w3.org/2000/svg">
  <g transform="matrix(1.0, 0.0, 0.0, 1.0, 4.2, 0.65)">
    <path d="M2.0 6.95 L1.75 8.55 1.35 8.65 -1.75 8.5 Q-2.75 8.15 -3.15 7.1 L2.0 6.95 M1.4 13.05 L1.05 13.35 -0.35 13.6 Q-1.15 13.45 -1.55 13.05 L-1.8 12.55 Q-0.6 13.75 1.4 13.05" fill="#8a7c75" fill-rule="evenodd" stroke="none"/>
    <path d="M2.45 1.45 L2.5 1.65 2.4 3.8 2.0 6.9 2.0 6.95 -3.15 7.1 Q-5.0 4.65 -3.65 0.8 L-2.55 0.0 Q-1.35 2.55 2.45 1.45 M1.35 8.65 Q1.1 9.25 1.45 11.05 1.8 12.8 1.4 13.05 -0.6 13.75 -1.8 12.55 -2.2 12.2 -1.7 10.85 -1.2 9.45 -1.75 8.5 L1.35 8.65" fill="#b6ada8" fill-rule="evenodd" stroke="none"/>
    <path d="M-2.55 0.0 Q-0.95 -1.0 1.5 -0.4 2.25 0.15 2.45 1.45 -1.35 2.55 -2.55 0.0" fill="#363833" fill-rule="evenodd" stroke="none"/>
    <path d="M2.45 1.45 L2.5 1.65 2.4 3.8 2.0 6.9 M2.0 6.95 L1.75 8.55 M1.35 8.65 Q1.1 9.25 1.45 11.05 1.8 12.8 1.4 13.05 L1.05 13.35 -0.35 13.6 Q-1.15 13.45 -1.55 13.05 L-1.8 12.55 Q-2.2 12.2 -1.7 10.85 -1.2 9.45 -1.75 8.5 -2.75 8.15 -3.15 7.1 -5.0 4.65 -3.65 0.8 L-2.55 0.0 Q-0.95 -1.0 1.5 -0.4 2.25 0.15 2.45 1.45 -1.35 2.55 -2.55 0.0" fill="none" stroke="#301820" stroke-linecap="round" stroke-linejoin="round" stroke-width="0.05"/>
    <path d="M2.0 6.9 L2.0 6.95 -3.15 7.1 M1.75 8.55 L1.35 8.65 -1.75 8.5 M1.4 13.05 Q-0.6 13.75 -1.8 12.55" fill="none" stroke="#333333" stroke-linecap="round" stroke-linejoin="round" stroke-width="0.05"/>
  </g>
</svg>
