<?xml version="1.0" encoding="UTF-8" standalone="no"?>
<svg xmlns:xlink="http://www.w3.org/1999/xlink" height="10.45px" width="7.8px" xmlns="http://www.w3.org/2000/svg">
  <g transform="matrix(1.0, 0.0, 0.0, 1.0, 5.15, -0.8)">
    <path d="M-2.25 1.35 Q-0.6 0.5 1.55 1.0 3.25 2.4 2.3 3.25 L1.7 3.15 Q-0.8 2.9 -2.55 3.75 -3.15 2.5 -2.25 1.35 M1.65 3.75 Q2.3 4.05 2.55 4.75 2.9 8.3 1.2 11.15 -2.95 11.15 -2.55 4.45 0.35 3.15 1.65 3.75" fill="#b6ada8" fill-rule="evenodd" stroke="none"/>
    <path d="M1.2 11.15 L-2.1 11.25 Q-3.45 9.3 -4.35 6.9 -4.5 6.15 -4.0 5.55 -3.55 4.9 -2.55 4.45 -2.95 11.15 1.2 11.15 M-5.0 5.15 L-5.15 3.95 Q-3.9 2.5 -2.25 1.35 -3.15 2.5 -2.55 3.75 L-5.0 5.15" fill="#8a7c75" fill-rule="evenodd" stroke="none"/>
    <path d="M-4.0 5.55 Q-4.25 5.25 -5.0 5.15 L-2.55 3.75 -2.55 4.45 Q-3.55 4.9 -4.0 5.55" fill="#0e1a27" fill-rule="evenodd" stroke="none"/>
    <path d="M1.7 3.15 Q1.6 3.35 1.65 3.75 0.35 3.15 -2.55 4.45 L-2.55 3.75 Q-0.8 2.9 1.7 3.15" fill="#473f3d" fill-rule="evenodd" stroke="none"/>
    <path d="M-2.25 1.35 Q-0.6 0.5 1.55 1.0 3.25 2.4 2.3 3.25 L1.7 3.15 Q1.6 3.35 1.65 3.75 2.3 4.05 2.55 4.75 2.9 8.3 1.2 11.15 L-2.1 11.25 Q-3.45 9.3 -4.35 6.9 M-5.0 5.15 L-5.15 3.95 Q-3.9 2.5 -2.25 1.35" fill="none" stroke="#1d3450" stroke-linecap="round" stroke-linejoin="round" stroke-width="0.05"/>
    <path d="M-2.55 3.75 Q-0.8 2.9 1.7 3.15 M-2.55 4.45 Q0.35 3.15 1.65 3.75" fill="none" stroke="#303030" stroke-linecap="round" stroke-linejoin="round" stroke-width="0.05"/>
    <path d="M-4.35 6.9 Q-4.5 6.15 -4.0 5.55 -3.55 4.9 -2.55 4.45 M-5.0 5.15 L-2.55 3.75" fill="none" stroke="#333333" stroke-linecap="round" stroke-linejoin="round" stroke-width="0.05"/>
  </g>
</svg>
