<?xml version="1.0" encoding="UTF-8" standalone="no"?>
<svg xmlns:xlink="http://www.w3.org/1999/xlink" height="7.5px" width="20.85px" xmlns="http://www.w3.org/2000/svg">
  <g transform="matrix(1.0, 0.0, 0.0, 1.0, 11.5, 2.4)">
    <path d="M0.45 1.6 L2.25 3.25 1.5 4.05 -4.15 4.9 -11.5 5.1 -9.65 3.95 Q-9.0 3.55 -8.35 3.25 -4.5 3.75 -0.05 2.2 L0.45 1.6 M4.25 3.45 L5.95 2.8 6.0 3.05 Q8.25 3.8 9.35 4.85 4.9 4.5 4.25 3.45" fill="#8a7975" fill-rule="evenodd" stroke="none"/>
    <path d="M-0.75 0.55 Q1.0 -0.75 1.3 -2.4 L3.45 -2.1 Q3.45 -2.1 3.55 -2.05 5.2 0.1 5.95 2.8 L4.25 3.45 4.05 2.3 Q4.0 1.4 2.25 3.25 L0.45 1.6 -0.75 0.55" fill="#82726c" fill-rule="evenodd" stroke="none"/>
    <path d="M-0.75 0.55 L0.45 1.6 -0.05 2.2 Q-4.5 3.75 -8.35 3.25 L-7.4 2.8 -6.5 2.4 -2.05 1.35 -0.75 0.55" fill="#b6ada8" fill-rule="evenodd" stroke="none"/>
    <path d="M5.95 2.8 Q5.2 0.1 3.55 -2.05 3.45 -2.1 3.45 -2.1 L1.3 -2.4 Q1.0 -0.75 -0.75 0.55 L-2.05 1.35 -6.5 2.4 -7.4 2.8 -8.35 3.25 Q-9.0 3.55 -9.65 3.95 L-11.5 5.1 -4.15 4.9 1.5 4.05 2.25 3.25 Q4.0 1.4 4.05 2.3 L4.25 3.45 Q4.9 4.5 9.35 4.85 8.25 3.8 6.0 3.05 L5.95 2.8 Z" fill="none" stroke="#301820" stroke-linecap="round" stroke-linejoin="round" stroke-width="0.05"/>
  </g>
</svg>
