<?xml version="1.0" encoding="UTF-8" standalone="no"?>
<svg xmlns:xlink="http://www.w3.org/1999/xlink" height="28.5px" width="9.55px" xmlns="http://www.w3.org/2000/svg">
  <g transform="matrix(1.0, 0.0, 0.0, 1.0, 5.85, 29.2)">
    <path d="M-4.15 -27.8 Q-3.5 -28.65 -2.45 -29.15 L-2.2 -29.2 0.3 -28.85 -2.15 -24.45 -2.15 -24.25 -3.95 -27.4 -4.15 -27.8" fill="#404040" fill-rule="evenodd" stroke="none"/>
    <path d="M0.3 -28.85 L0.35 -28.85 Q1.1 -28.55 1.75 -27.95 L2.45 -27.15 3.0 -25.8 Q3.8 -23.75 3.7 -21.3 L3.7 -21.25 Q3.55 -19.25 2.9 -16.95 L2.4 -15.4 2.1 -14.7 1.9 -14.3 1.55 -13.4 0.0 -15.9 Q0.4 -7.1 -1.3 -0.7 -4.0 -1.25 -5.75 -2.75 -3.65 -4.85 -3.35 -7.35 L-2.95 -11.05 -2.95 -11.1 -3.1 -11.9 -3.05 -11.9 -2.95 -11.1 -3.05 -11.9 -3.65 -16.5 -4.15 -15.5 -4.2 -15.65 -4.25 -15.75 -4.4 -16.0 Q-6.5 -19.75 -5.6 -23.0 L-5.15 -24.55 -4.35 -27.35 -4.2 -27.75 -4.15 -27.8 -3.95 -27.4 Q-3.65 -25.35 -2.1 -22.95 -0.4 -25.3 0.3 -28.85 M-3.65 -16.5 L0.0 -15.9 -3.65 -16.5" fill="#b6ada8" fill-rule="evenodd" stroke="none"/>
    <path d="M1.55 -13.4 L1.05 -12.05 Q-0.45 -5.3 2.15 -2.05 0.6 -1.1 -1.3 -0.7 0.4 -7.1 0.0 -15.9 L1.55 -13.4 M-3.1 -11.9 L-3.3 -12.75 -3.8 -14.7 -4.15 -15.5 -3.65 -16.5 -3.05 -11.9 -3.1 -11.9 M0.3 -28.85 Q-0.4 -25.3 -2.1 -22.95 -3.65 -25.35 -3.95 -27.4 L-2.15 -24.25 -2.15 -24.45 0.3 -28.85" fill="#8a7c75" fill-rule="evenodd" stroke="none"/>
    <path d="M0.3 -28.85 L0.35 -28.85 Q1.1 -28.55 1.75 -27.95 L2.45 -27.15 3.0 -25.8 Q3.8 -23.75 3.7 -21.3 L3.7 -21.25 Q3.55 -19.25 2.9 -16.95 L2.4 -15.4 2.1 -14.7 1.9 -14.3 1.55 -13.4 1.05 -12.05 Q-0.45 -5.3 2.15 -2.05 0.6 -1.1 -1.3 -0.7 -4.0 -1.25 -5.75 -2.75 -3.65 -4.85 -3.35 -7.35 L-2.95 -11.05 -2.95 -11.1 -3.1 -11.9 -3.3 -12.75 -3.8 -14.7 -4.15 -15.5 -4.2 -15.65 -4.25 -15.75 -4.4 -16.0 Q-6.5 -19.75 -5.6 -23.0 L-5.15 -24.55 -4.35 -27.35 -4.2 -27.75 -4.15 -27.8 Q-3.5 -28.65 -2.45 -29.15 L-2.2 -29.2 0.3 -28.85" fill="none" stroke="#301820" stroke-linecap="round" stroke-linejoin="round" stroke-width="0.05"/>
    <path d="M-3.95 -27.4 L-4.15 -27.8 M-2.15 -24.25 L-3.95 -27.4 M0.3 -28.85 L-2.15 -24.45" fill="none" stroke="#303030" stroke-linecap="round" stroke-linejoin="round" stroke-width="0.05"/>
    <path d="M0.3 -28.85 Q-0.4 -25.3 -2.1 -22.95 -3.65 -25.35 -3.95 -27.4 M1.55 -13.4 L0.0 -15.9 Q0.4 -7.1 -1.3 -0.7 M-3.05 -11.9 L-3.65 -16.5 -4.15 -15.5 M-2.95 -11.1 L-3.05 -11.9 M0.0 -15.9 L-3.65 -16.5" fill="none" stroke="#1b1b1b" stroke-linecap="round" stroke-linejoin="round" stroke-width="0.05"/>
  </g>
</svg>
