<?xml version="1.0" encoding="UTF-8" standalone="no"?>
<svg xmlns:xlink="http://www.w3.org/1999/xlink" height="12.9px" width="11.7px" xmlns="http://www.w3.org/2000/svg">
  <g transform="matrix(1.0, 0.0, 0.0, 1.0, 7.2, 4.45)">
    <path d="M-4.95 -2.15 L-4.85 -1.85 -5.0 -1.8 -4.95 -2.15" fill="#275252" fill-rule="evenodd" stroke="none"/>
    <path d="M0.6 -1.4 Q2.7 2.1 3.3 6.55 2.85 7.95 0.8 6.75 -0.9 5.5 -4.2 -0.1 -2.8 -2.8 -0.45 -2.45 L0.15 -1.9 0.6 -1.4" fill="#b6ada8" fill-rule="evenodd" stroke="none"/>
    <path d="M-4.2 -0.1 L-4.7 2.15 -4.85 1.0 -4.9 0.85 -5.05 -1.25 -5.0 -1.8 -4.85 -1.85 -4.95 -2.15 -4.6 -3.8 -3.4 -4.45 Q-2.65 -4.5 -0.45 -2.45 -2.8 -2.8 -4.2 -0.1" fill="#82726c" fill-rule="evenodd" stroke="none"/>
    <path d="M0.6 -1.4 L1.1 -0.9 1.3 -0.65 2.2 0.45 2.4 0.95 2.2 0.45 1.3 -0.65 4.5 0.25 2.4 0.95 Q4.4 5.85 3.2 8.45 -0.75 7.3 -4.25 2.75 L-4.7 2.15 -4.25 2.75 -7.2 3.35 -4.85 1.0 -4.7 2.15 -4.2 -0.1 Q-0.9 5.5 0.8 6.75 2.85 7.95 3.3 6.55 2.7 2.1 0.6 -1.4" fill="#8a7975" fill-rule="evenodd" stroke="none"/>
    <path d="M1.3 -0.65 L1.1 -0.9 0.6 -1.4 0.15 -1.9 -0.45 -2.45 Q-2.65 -4.5 -3.4 -4.45 L-4.6 -3.8 -4.95 -2.15 -5.0 -1.8 -5.05 -1.25 -4.9 0.85 -4.85 1.0 -4.7 2.15 -4.25 2.75 Q-0.75 7.3 3.2 8.45 4.4 5.85 2.4 0.95 L2.2 0.45 1.3 -0.65 4.5 0.25 2.4 0.95 M-4.85 1.0 L-7.2 3.35 -4.25 2.75" fill="none" stroke="#1d3450" stroke-linecap="round" stroke-linejoin="round" stroke-width="0.05"/>
  </g>
</svg>
