<?xml version="1.0" encoding="UTF-8" standalone="no"?>
<svg xmlns:xlink="http://www.w3.org/1999/xlink" height="6.45px" width="4.8px" xmlns="http://www.w3.org/2000/svg">
  <g transform="matrix(1.0, 0.0, 0.0, 1.0, 3.8, 0.65)">
    <path d="M-3.5 1.55 L-2.9 -0.6 -0.65 -0.65 Q0.35 -0.8 1.0 1.0 L1.0 3.65 0.6 5.4 0.65 5.8 0.3 5.75 Q-0.6 5.4 -0.95 3.7 L-1.5 3.2 -1.55 3.1 -2.1 2.6 -3.5 1.55" fill="#ffdfc8" fill-rule="evenodd" stroke="none"/>
    <path d="M0.3 5.75 L-2.45 5.15 -2.5 5.15 -2.6 4.35 -3.8 2.65 -3.5 1.55 -2.1 2.6 -1.55 3.1 -1.55 3.15 -1.5 3.2 -0.95 3.7 Q-0.6 5.4 0.3 5.75 M-2.6 4.35 L-1.55 3.15 -2.6 4.35" fill="#ffd0ae" fill-rule="evenodd" stroke="none"/>
    <path d="M-1.55 3.1 L-1.5 3.2 -1.55 3.15 -1.55 3.1" fill="#eebf5a" fill-rule="evenodd" stroke="none"/>
    <path d="M1.0 3.65 L0.95 5.0 0.6 5.4 1.0 3.65" fill="#f5dfc5" fill-rule="evenodd" stroke="none"/>
    <path d="M-3.5 1.55 L-2.9 -0.6 -0.65 -0.65 Q0.35 -0.8 1.0 1.0 L1.0 3.65 0.95 5.0 0.6 5.4 0.65 5.8 0.3 5.75 -2.45 5.15 -2.5 5.15 -2.6 4.35 -3.8 2.65 -3.5 1.55 M-1.55 3.1 L-1.5 3.2 M-1.55 3.15 L-1.55 3.1 M-1.55 3.15 L-2.6 4.35" fill="none" stroke="#d7995e" stroke-linecap="round" stroke-linejoin="round" stroke-width="0.05"/>
    <path d="M-0.1 5.5 L-0.55 4.9 -0.95 3.7 -1.5 3.2 -1.55 3.1 -2.1 2.6 -3.5 1.55 -2.9 -0.6 -0.65 -0.65 Q0.35 -0.8 1.0 1.0 L0.95 5.0 0.6 5.4 0.65 5.8 0.3 5.75 -0.1 5.5" fill="#ffe6f2" fill-rule="evenodd" stroke="none"/>
    <path d="M0.3 5.75 L-0.05 5.65 -0.1 5.5 0.3 5.75" fill="#e0e0e0" fill-rule="evenodd" stroke="none"/>
    <path d="M-0.1 5.5 L-0.55 4.9 -0.95 3.7 -1.5 3.2 -1.55 3.1 -2.1 2.6 -3.5 1.55 -2.9 -0.6 -0.65 -0.65 Q0.35 -0.8 1.0 1.0 L0.95 5.0 0.6 5.4 0.65 5.8 0.3 5.75 -0.1 5.5" fill="none" stroke="#fe67b3" stroke-linecap="round" stroke-linejoin="round" stroke-width="0.05"/>
    <path d="M0.3 5.75 L-0.05 5.65" fill="none" stroke="#a0a0a0" stroke-linecap="round" stroke-linejoin="round" stroke-width="0.05"/>
  </g>
</svg>
