<?xml version="1.0" encoding="UTF-8" standalone="no"?>
<svg xmlns:xlink="http://www.w3.org/1999/xlink" height="33.5px" width="26.7px" xmlns="http://www.w3.org/2000/svg">
  <g transform="matrix(1.0, 0.0, 0.0, 1.0, 13.8, 13.25)">
    <path d="M-8.35 4.35 L-8.2 4.35 -8.4 4.4 -8.35 4.35" fill="#643342" fill-rule="evenodd" stroke="none"/>
    <path d="M2.15 -12.3 L2.15 -12.35 2.2 -12.25 2.15 -12.3 M1.75 -4.55 L1.8 -4.55 1.75 -4.5 1.75 -4.55 M-0.75 5.45 L-0.25 5.6 -0.25 5.7 -0.75 5.45 M-8.4 4.4 L-8.4 4.35 -8.35 4.35 -8.4 4.4" fill="#294876" fill-rule="evenodd" stroke="none"/>
    <path d="M-7.65 -8.25 L-7.6 -8.25 -7.6 -8.15 -7.65 -8.25" fill="#1c334a" fill-rule="evenodd" stroke="none"/>
    <path d="M8.9 -4.6 L10.95 -4.35 10.95 -4.3 12.05 -3.35 12.4 -2.9 Q13.7 -0.95 11.45 4.1 7.9 4.85 6.95 1.7 L6.9 0.45 Q6.9 -0.25 7.5 -1.1 L8.5 -3.2 8.9 -4.6 M9.15 6.5 L9.6 13.1 Q9.6 14.6 8.15 15.65 6.65 16.7 4.6 16.7 8.35 12.7 5.4 7.9 7.4 7.55 9.15 6.5 M-8.05 16.3 Q-9.95 15.65 -11.15 12.9 L-11.15 4.5 -8.95 6.05 Q-10.1 7.55 -9.65 11.4 -9.3 14.9 -8.05 16.3 M2.0 7.5 L2.35 7.85 2.45 8.0 2.0 7.5" fill="#0e1a27" fill-rule="evenodd" stroke="none"/>
    <path d="M2.15 -12.35 L2.15 -12.3 0.3 -10.4 -0.35 -9.9 -1.5 -9.15 -2.75 -8.35 -3.15 -7.85 -3.85 -5.45 -7.45 -6.05 -7.45 -7.85 -7.6 -8.15 -7.6 -8.25 -7.65 -8.25 -8.95 -10.95 -8.95 -11.05 -8.25 -11.95 Q-6.4 -12.9 -4.95 -13.1 L-3.05 -13.25 -2.5 -13.25 0.9 -12.95 2.15 -12.35" fill="#363636" fill-rule="evenodd" stroke="none"/>
    <path d="M0.3 -10.4 L2.15 -12.3 2.2 -12.25 2.9 -11.35 6.25 -5.8 Q7.95 -5.75 8.9 -4.6 L8.5 -3.2 7.5 -1.1 Q5.75 -3.4 2.65 -4.2 L2.4 -4.1 1.85 -3.85 1.05 -3.55 Q-1.65 -2.65 -3.75 -2.3 L-6.65 -2.15 Q-8.6 -2.35 -9.5 -3.4 L-10.05 -4.25 Q-11.85 -4.25 -13.8 -2.75 -13.0 -3.85 -12.5 -5.1 -11.4 -6.7 -9.9 -7.4 L-10.25 -5.45 -10.25 -4.75 -10.05 -4.25 -10.25 -4.75 -10.25 -5.45 Q-8.1 -1.35 1.75 -4.55 L1.75 -4.5 1.8 -4.55 1.85 -4.55 1.95 -5.55 Q2.45 -8.65 0.3 -10.4 M4.6 16.7 L3.55 17.3 Q0.3 19.95 -3.9 20.25 -6.45 15.05 -6.05 10.55 -5.65 6.0 -5.15 4.25 L-3.45 4.55 -0.85 5.45 -0.75 5.45 -0.25 5.7 1.1 6.6 2.0 7.5 2.45 8.0 5.4 7.9 Q8.35 12.7 4.6 16.7 M6.25 -5.8 L2.65 -4.2 6.25 -5.8 M2.5 8.0 L2.45 8.0 2.5 8.0" fill="#503832" fill-rule="evenodd" stroke="none"/>
    <path d="M-8.95 -10.95 L-7.65 -8.25 -7.6 -8.15 -7.45 -7.85 -7.45 -6.05 -3.85 -5.45 -3.15 -7.85 -2.75 -8.35 -1.5 -9.15 -0.35 -9.9 0.3 -10.4 Q2.45 -8.65 1.95 -5.55 L1.85 -4.55 1.8 -4.55 1.75 -4.55 Q-8.1 -1.35 -10.25 -5.45 L-9.9 -7.4 -8.95 -10.95 M-3.9 20.25 L-5.3 19.7 Q-6.95 18.75 -7.8 16.55 L-8.0 16.3 -8.05 16.3 Q-9.3 14.9 -9.65 11.4 -10.1 7.55 -8.95 6.05 L-8.4 4.4 -8.2 4.35 -7.75 4.25 -6.1 4.15 -5.15 4.25 Q-5.65 6.0 -6.05 10.55 -6.45 15.05 -3.9 20.25 M-13.45 -1.65 Q-13.4 -2.2 -13.8 -2.75 -11.85 -4.25 -10.05 -4.25 L-9.5 -3.4 Q-11.8 -3.35 -13.45 -1.65 M1.05 -3.55 L1.85 -3.85 2.4 -4.1 2.65 -4.2 Q5.75 -3.4 7.5 -1.1 6.9 -0.25 6.9 0.45 5.25 -1.85 1.05 -3.55" fill="#6f4e46" fill-rule="evenodd" stroke="none"/>
    <path d="M-13.1 1.6 Q-13.7 0.2 -13.45 -1.65 -11.8 -3.35 -9.5 -3.4 -8.6 -2.35 -6.65 -2.15 L-3.75 -2.3 Q-1.65 -2.65 1.05 -3.55 5.25 -1.85 6.9 0.45 L6.95 1.7 6.25 3.0 5.75 3.6 Q0.2 5.55 -6.55 2.5 -11.25 3.65 -13.1 1.6 M-6.5 2.5 L-6.55 2.5 -6.5 2.5" fill="#b6ada8" fill-rule="evenodd" stroke="none"/>
    <path d="M11.45 4.1 L10.8 5.5 10.7 5.6 9.15 6.5 Q7.4 7.55 5.4 7.9 L2.45 8.0 2.35 7.85 2.0 7.5 1.1 6.6 -0.25 5.7 -0.25 5.6 -0.75 5.45 -0.85 5.45 -3.45 4.55 -5.15 4.25 -6.1 4.15 -7.75 4.25 -8.2 4.35 -8.35 4.35 -8.4 4.35 -8.4 4.4 -8.95 6.05 -11.15 4.5 -11.8 3.45 -12.9 2.1 -13.1 1.6 Q-11.25 3.65 -6.55 2.5 0.2 5.55 5.75 3.6 L6.25 3.0 6.95 1.7 Q7.9 4.85 11.45 4.1" fill="#8a7c75" fill-rule="evenodd" stroke="none"/>
    <path d="M2.2 -12.25 L2.15 -12.35 M9.15 6.5 L9.6 13.1 Q9.6 14.6 8.15 15.65 6.65 16.7 4.6 16.7 M2.35 7.85 L2.45 8.0" fill="none" stroke="#372c4e" stroke-linecap="round" stroke-linejoin="round" stroke-width="0.05"/>
    <path d="M6.25 -5.8 Q7.95 -5.75 8.9 -4.6 M10.95 -4.35 L10.95 -4.3 12.05 -3.35 12.4 -2.9 Q13.7 -0.95 11.45 4.1 L10.8 5.5 10.7 5.6 9.15 6.5 M-8.05 16.3 Q-9.95 15.65 -11.15 12.9 L-11.15 4.5 -11.8 3.45 -12.9 2.1 -13.1 1.6 Q-13.7 0.2 -13.45 -1.65 -13.4 -2.2 -13.8 -2.75 -13.0 -3.85 -12.5 -5.1 -11.4 -6.7 -9.9 -7.4 M2.65 -4.2 L2.4 -4.1 1.85 -3.85 1.05 -3.55 M6.9 0.45 Q6.9 -0.25 7.5 -1.1 M-0.25 5.7 L1.1 6.6 2.0 7.5 2.35 7.85 M2.0 7.5 L2.45 8.0 M11.45 4.1 Q7.9 4.85 6.95 1.7 M-5.15 4.25 L-3.45 4.55 -0.85 5.45 -0.75 5.45 -0.25 5.7 M-8.2 4.35 L-7.75 4.25 -6.1 4.15 -5.15 4.25 M-8.05 16.3 L-8.0 16.3 M-8.4 4.4 L-8.2 4.35" fill="none" stroke="#372c4e" stroke-linecap="round" stroke-linejoin="round" stroke-width="0.05"/>
    <path d="M4.6 16.7 L3.55 17.3 Q0.3 19.95 -3.9 20.25 L-5.3 19.7 Q-6.95 18.75 -7.8 16.55 L-8.05 16.3 Q-9.3 14.9 -9.65 11.4 -10.1 7.55 -8.95 6.05 L-8.4 4.4" fill="none" stroke="#303030" stroke-linecap="round" stroke-linejoin="round" stroke-width="0.05"/>
    <path d="M2.15 -12.35 L0.9 -12.95 -2.5 -13.25 -3.05 -13.25 -4.95 -13.1 Q-6.4 -12.9 -8.25 -11.95 L-8.95 -11.05 -8.95 -10.95 M-7.6 -8.25 L-7.6 -8.15" fill="none" stroke="#303030" stroke-linecap="round" stroke-linejoin="round" stroke-width="0.05"/>
    <path d="M-8.95 -10.95 L-7.65 -8.25 -7.6 -8.15 -7.45 -7.85 M-3.15 -7.85 L-2.75 -8.35 -1.5 -9.15 -0.35 -9.9 0.3 -10.4 M2.2 -12.25 L2.9 -11.35 6.25 -5.8 2.65 -4.2 M-9.9 -7.4 L-8.95 -10.95 M-10.05 -4.25 L-10.25 -4.75 -10.25 -5.45 -9.9 -7.4 M-9.5 -3.4 L-10.05 -4.25 M1.05 -3.55 Q-1.65 -2.65 -3.75 -2.3 L-6.65 -2.15 Q-8.6 -2.35 -9.5 -3.4" fill="none" stroke="#301820" stroke-linecap="round" stroke-linejoin="round" stroke-width="0.05"/>
    <path d="M2.45 8.0 L5.4 7.9 Q7.4 7.55 9.15 6.5 M-8.95 6.05 L-11.15 4.5" fill="none" stroke="#301820" stroke-linecap="round" stroke-linejoin="round" stroke-width="0.05"/>
    <path d="M-7.45 -7.85 L-7.45 -6.05 -3.85 -5.45 -3.15 -7.85 M1.05 -3.55 Q5.25 -1.85 6.9 0.45 M-9.5 -3.4 Q-11.8 -3.35 -13.45 -1.65" fill="none" stroke="#000000" stroke-linecap="round" stroke-linejoin="round" stroke-width="0.05"/>
    <path d="M-6.6 -5.25 L-5.55 -5.25 -5.3 -4.4 -5.8 -3.85 -6.75 -4.0 -6.95 -4.7 -6.6 -5.25 M-6.9 -3.7 Q-7.25 -3.5 -7.05 -2.85 L-7.6 -3.65 -7.1 -4.5 -6.9 -3.7 M-5.6 -3.6 L-5.05 -4.15 -4.85 -3.55 -5.55 -2.75 Q-5.35 -3.3 -5.6 -3.6" fill="#d3d301" fill-rule="evenodd" stroke="none"/>
  </g>
</svg>
