<?xml version="1.0" encoding="UTF-8" standalone="no"?>
<svg xmlns:xlink="http://www.w3.org/1999/xlink" height="16.0px" width="17.45px" xmlns="http://www.w3.org/2000/svg">
  <g transform="matrix(1.0, 0.0, 0.0, 1.0, 8.85, 4.0)">
    <path d="M-5.85 5.3 Q-9.2 1.8 -8.8 -1.5 -9.1 -3.15 -7.95 -4.0 L-6.5 -0.3 Q-5.7 1.2 -4.8 2.15 -2.25 4.65 1.3 2.3 L4.25 -0.3 6.95 -3.7 Q7.65 -3.35 8.15 -2.3 6.35 -0.75 5.2 1.25 4.1 3.25 3.45 5.05 2.8 6.8 1.35 7.9 -0.1 8.95 -1.4 8.95 -3.2 8.95 -5.85 5.3" fill="#b6ada8" fill-rule="evenodd" stroke="none"/>
    <path d="M8.15 -2.3 Q8.9 0.25 8.45 0.2 7.45 4.15 3.35 6.8 1.75 11.95 0.9 12.0 0.0 12.05 -1.65 11.35 -3.35 10.6 -5.85 5.3 -3.2 8.95 -1.4 8.95 -0.1 8.95 1.35 7.9 2.8 6.8 3.45 5.05 4.1 3.25 5.2 1.25 6.35 -0.75 8.15 -2.3" fill="#8a7c75" fill-rule="evenodd" stroke="none"/>
    <path d="M-5.85 5.3 Q-9.2 1.8 -8.8 -1.5 -9.1 -3.15 -7.95 -4.0 L-6.5 -0.3 Q-5.7 1.2 -4.8 2.15 -2.25 4.65 1.3 2.3 L4.25 -0.3 6.95 -3.7 Q7.65 -3.35 8.15 -2.3 8.9 0.25 8.45 0.2 7.45 4.15 3.35 6.8 1.75 11.95 0.9 12.0 0.0 12.05 -1.65 11.35 -3.35 10.6 -5.85 5.3 Z" fill="none" stroke="#301820" stroke-linecap="round" stroke-linejoin="round" stroke-width="0.05"/>
    <path d="M-3.9 4.1 Q-3.7 4.5 -3.95 4.75 L-4.55 4.75 -5.55 4.25 -6.15 3.45 Q-6.35 3.05 -6.15 2.85 L-5.5 2.8 -4.5 3.2 Q-4.05 3.65 -3.9 4.1" fill="#363833" fill-rule="evenodd" stroke="none"/>
    <path d="M0.2 4.45 Q0.0 4.85 0.25 5.1 L0.85 5.1 1.85 4.6 2.45 3.8 Q2.65 3.4 2.45 3.2 L1.8 3.15 0.8 3.55 0.2 4.45" fill="#363833" fill-rule="evenodd" stroke="none"/>
  </g>
</svg>
