<?xml version="1.0" encoding="UTF-8" standalone="no"?>
<svg xmlns:xlink="http://www.w3.org/1999/xlink" height="26.95px" width="13.1px" xmlns="http://www.w3.org/2000/svg">
  <g transform="matrix(1.0, 0.0, 0.0, 1.0, 4.4, 19.2)">
    <path d="M2.3 -4.8 Q5.9 -3.75 8.1 -0.2 L8.1 -0.15 7.7 -0.05 5.8 0.55 5.6 0.55 4.35 2.5 2.6 -0.25 1.5 -4.2 2.3 -4.8 M0.85 7.75 L0.4 7.75 -0.95 5.75 Q-3.1 3.9 -3.8 1.45 L-3.3 0.5 -3.25 0.55 -3.25 0.5 Q-3.5 0.0 -3.9 -0.15 -3.25 -2.4 -1.15 -4.05 L-0.9 -0.4 -0.9 -0.3 0.5 2.4 0.75 4.1 0.85 7.75 M-3.25 0.55 L-1.85 2.3 -0.9 -0.3 -1.85 2.3 -3.25 0.55" fill="#b6ada8" fill-rule="evenodd" stroke="none"/>
    <path d="M8.05 1.5 Q7.65 3.7 3.8 5.45 L1.9 7.75 0.85 7.75 0.75 4.1 4.35 2.5 5.6 0.55 5.8 0.55 8.05 1.5" fill="#8a7c75" fill-rule="evenodd" stroke="none"/>
    <path d="M0.5 2.4 L2.6 -0.25 4.35 2.5 0.75 4.1 0.5 2.4" fill="#a89d99" fill-rule="evenodd" stroke="none"/>
    <path d="M8.1 -0.2 Q9.35 1.0 8.05 1.5 L5.8 0.55 7.7 -0.05 8.1 -0.15 8.1 -0.2 M-3.8 1.45 Q-4.9 0.5 -3.95 -0.15 L-3.9 -0.15 Q-3.5 0.0 -3.25 0.5 L-3.3 0.5 -3.8 1.45" fill="#503832" fill-rule="evenodd" stroke="none"/>
    <path d="M1.2 -5.3 L0.95 -6.15 Q1.45 -7.8 1.0 -9.95 2.1 -7.55 1.2 -5.3" fill="#877c51" fill-rule="evenodd" stroke="none"/>
    <path d="M1.0 -9.95 L2.35 -8.1 2.35 -4.85 2.3 -4.8 1.5 -4.2 1.25 -5.0 1.25 -5.05 1.2 -5.3 Q2.1 -7.55 1.0 -9.95" fill="#474636" fill-rule="evenodd" stroke="none"/>
    <path d="M1.0 -9.95 L2.35 -8.1 2.35 -4.85 2.3 -4.8 Q5.9 -3.75 8.1 -0.2 9.35 1.0 8.05 1.5 7.65 3.7 3.8 5.45 L1.9 7.75 0.85 7.75 0.4 7.75 -0.95 5.75 Q-3.1 3.9 -3.8 1.45 -4.9 0.5 -3.95 -0.15 M-3.9 -0.15 Q-3.25 -2.4 -1.15 -4.05 M0.95 -6.15 Q1.45 -7.8 1.0 -9.95 M2.3 -4.8 L1.5 -4.2 M5.8 0.55 L7.7 -0.05 8.1 -0.15 8.1 -0.2 M8.05 1.5 L5.8 0.55 5.6 0.55 4.35 2.5 2.6 -0.25 M-3.3 0.5 L-3.25 0.5 Q-3.5 0.0 -3.9 -0.15 M-0.9 -0.3 L-1.85 2.3 -3.25 0.55 -3.25 0.5 M-3.3 0.5 L-3.8 1.45" fill="none" stroke="#333333" stroke-linecap="round" stroke-linejoin="round" stroke-width="0.05"/>
    <path d="M3.3 4.55 L1.95 5.45 1.95 4.6 0.8 5.55 1.95 4.6 1.95 5.45 3.3 4.55 3.3 5.3 2.1 6.55 0.85 6.55 0.8 5.55 0.75 4.35 3.25 3.45 3.3 4.55" fill="#9b8e88" fill-rule="evenodd" stroke="none"/>
    <path d="M0.75 4.35 L0.8 5.55 0.05 4.75 0.1 5.55 -1.05 4.25 0.1 5.55 0.05 4.75 0.8 5.55 0.85 6.55 0.2 6.55 -1.0 5.1 -1.05 4.25 -1.15 3.4 0.75 4.35" fill="#cac2bf" fill-rule="evenodd" stroke="none"/>
    <path d="M0.8 5.55 L1.95 4.6 1.95 5.45 3.3 4.55 M0.8 5.55 L0.05 4.75 0.1 5.55 -1.05 4.25" fill="none" stroke="#333333" stroke-linecap="round" stroke-linejoin="round" stroke-width="0.05"/>
    <path d="M0.75 -19.2 L-0.3 -10.8 1.45 -5.5 3.1 -0.35 3.1 -0.3 0.55 2.55 -1.5 -10.45 0.75 -19.2" fill="#665c3e" fill-rule="evenodd" stroke="none"/>
    <path d="M0.55 2.55 L-1.1 -0.4 -1.1 -0.5 -1.95 -10.65 0.75 -19.2 -1.5 -10.45 0.55 2.55" fill="#877c51" fill-rule="evenodd" stroke="none"/>
    <path d="M0.75 -19.2 L-0.3 -10.8 1.45 -5.5 3.1 -0.35 3.1 -0.3 0.55 2.55 -1.1 -0.4 -1.1 -0.5 -1.95 -10.65 0.75 -19.2 Z" fill="none" stroke="#333333" stroke-linecap="round" stroke-linejoin="round" stroke-width="0.05"/>
    <path d="M4.4 1.7 L4.45 1.7 4.95 1.95 5.15 2.55 4.85 3.1 4.65 3.3 4.35 3.35 3.7 3.1 Q3.45 2.9 3.5 2.55 L3.5 2.35 3.65 2.1 3.75 1.95 3.85 1.9 4.4 1.7" fill="#65649d" fill-rule="evenodd" stroke="none"/>
    <path d="M4.4 1.7 L4.45 1.7 4.95 1.95 5.15 2.55 4.85 3.1 4.65 3.3 4.35 3.35 3.7 3.1 Q3.45 2.9 3.5 2.55 L3.5 2.35 3.65 2.1 3.75 1.95 3.85 1.9 4.4 1.7 Z" fill="none" stroke="#333333" stroke-linecap="round" stroke-linejoin="round" stroke-width="0.05"/>
    <path d="M-1.8 1.65 Q-2.1 1.7 -2.3 1.9 L-2.5 2.5 -2.2 3.05 -1.9 3.25 -1.6 3.3 Q-1.25 3.3 -1.05 3.05 -0.8 2.85 -0.85 2.5 L-0.85 2.3 -1.0 2.05 -1.1 1.9 -1.2 1.85 Q-1.45 1.65 -1.75 1.65 L-1.8 1.65" fill="#65649d" fill-rule="evenodd" stroke="none"/>
    <path d="M-1.8 1.65 Q-2.1 1.7 -2.3 1.9 L-2.5 2.5 -2.2 3.05 -1.9 3.25 -1.6 3.3 Q-1.25 3.3 -1.05 3.05 -0.8 2.85 -0.85 2.5 L-0.85 2.3 -1.0 2.05 -1.1 1.9 -1.2 1.85 Q-1.45 1.65 -1.75 1.65 L-1.8 1.65 Z" fill="none" stroke="#333333" stroke-linecap="round" stroke-linejoin="round" stroke-width="0.05"/>
  </g>
</svg>
