<?xml version="1.0" encoding="UTF-8" standalone="no"?>
<svg xmlns:xlink="http://www.w3.org/1999/xlink" height="28.85px" width="66.6px" xmlns="http://www.w3.org/2000/svg">
  <g transform="matrix(1.0, 0.0, 0.0, 1.0, 33.3, 14.4)">
    <path d="M19.4 -6.8 Q20.15 -7.25 20.15 -7.8 20.15 -8.4 19.4 -8.8 L17.65 -9.25 16.15 -8.95 Q17.45 -8.05 18.2 -6.4 L19.4 -6.8 M10.45 -10.1 Q14.05 -10.5 16.15 -8.95 14.05 -10.5 10.45 -10.1 M12.2 -1.2 Q15.2 -4.8 18.85 -4.5 L18.2 -6.4 18.85 -4.5 Q22.05 -4.25 25.7 -0.85 22.05 -4.25 18.85 -4.5 15.2 -4.8 12.2 -1.2 M-23.15 -8.45 Q-22.45 -11.05 -21.4 -12.6 -20.75 -15.15 -16.6 -14.05 L-1.8 -14.0 Q6.3 -14.0 15.15 -11.6 17.5 -11.95 21.4 -10.5 L28.65 -10.85 31.1 -6.4 Q32.8 -5.05 33.3 -4.0 31.05 -3.85 31.05 -2.1 31.05 -0.65 30.2 0.75 L29.75 0.55 Q27.65 -0.15 24.7 -0.15 21.7 -0.15 19.65 0.55 17.55 1.3 17.55 2.35 17.55 3.35 19.65 4.05 21.7 4.8 24.7 4.8 L24.75 4.95 Q23.25 5.65 23.55 7.8 L15.65 8.0 15.7 7.5 Q15.7 6.35 14.2 5.55 12.65 4.75 10.45 4.8 8.3 4.75 6.75 5.55 5.2 6.35 5.2 7.5 5.2 8.65 6.75 9.45 5.2 9.55 3.9 14.45 1.0 9.8 -1.8 9.8 L-2.7 9.8 -2.7 9.65 Q-2.7 8.55 -4.65 7.75 -6.05 7.15 -7.9 7.0 L-9.3 6.95 Q-12.0 6.95 -13.95 7.75 L-15.5 8.75 -23.1 9.2 Q-22.55 7.2 -25.05 6.3 -26.0 5.95 -25.25 4.55 L-24.1 5.05 Q-21.7 5.9 -18.3 5.9 -14.95 5.9 -12.55 5.05 -10.15 4.2 -10.15 3.05 -10.15 1.85 -12.55 1.05 -14.95 0.2 -18.3 0.2 -21.7 0.2 -24.1 1.05 -26.5 1.85 -26.5 3.05 L-26.5 3.15 -29.6 3.35 Q-32.2 0.7 -29.05 -1.15 -25.95 -2.95 -33.3 -4.6 L-26.3 -4.9 Q-26.5 -5.7 -26.3 -5.7 L-25.8 -5.25 Q-25.1 -4.65 -24.0 -4.65 -22.95 -4.65 -22.2 -5.25 -21.45 -5.8 -21.45 -6.6 -21.45 -7.45 -22.2 -8.0 L-23.15 -8.45 M-17.7 -2.8 Q-15.95 -1.95 -13.55 -1.95 -11.15 -1.95 -9.4 -2.8 -7.7 -3.7 -7.65 -4.95 -7.7 -6.25 -9.4 -7.1 -11.15 -8.0 -13.55 -8.0 -15.95 -8.0 -17.7 -7.1 -19.4 -6.25 -19.4 -4.95 -19.4 -3.7 -17.7 -2.8 M-2.9 1.6 Q-6.85 0.9 -7.9 7.0 -6.85 0.9 -2.9 1.6" fill="url(#gradient0)" fill-rule="evenodd" stroke="none"/>
    <path d="M30.2 0.75 Q31.8 1.4 31.8 2.35 31.8 3.35 29.75 4.05 L25.0 4.8 24.7 4.8 Q21.7 4.8 19.65 4.05 17.55 3.35 17.55 2.35 17.55 1.3 19.65 0.55 21.7 -0.15 24.7 -0.15 27.65 -0.15 29.75 0.55 L30.2 0.75 M15.65 8.0 Q15.35 8.8 14.2 9.45 12.65 10.25 10.45 10.25 8.3 10.25 6.75 9.45 5.2 8.65 5.2 7.5 5.2 6.35 6.75 5.55 8.3 4.75 10.45 4.8 12.65 4.75 14.2 5.55 15.7 6.35 15.7 7.5 L15.65 8.0 M-2.7 9.8 Q-2.85 10.8 -4.65 11.5 -6.55 12.3 -9.3 12.3 -12.0 12.3 -13.95 11.5 -15.85 10.7 -15.85 9.65 -15.85 9.15 -15.5 8.75 L-13.95 7.75 Q-12.0 6.95 -9.3 6.95 L-7.9 7.0 Q-6.05 7.15 -4.65 7.75 -2.7 8.55 -2.7 9.65 L-2.7 9.8 M-25.25 4.55 Q-26.45 3.9 -26.5 3.15 L-26.5 3.05 Q-26.5 1.85 -24.1 1.05 -21.7 0.2 -18.3 0.2 -14.95 0.2 -12.55 1.05 -10.15 1.85 -10.15 3.05 -10.15 4.2 -12.55 5.05 -14.95 5.9 -18.3 5.9 -21.7 5.9 -24.1 5.05 L-25.25 4.55 M-26.3 -5.7 L-26.55 -6.6 Q-26.6 -7.45 -25.8 -8.0 -25.1 -8.55 -24.0 -8.55 L-23.15 -8.45 -22.2 -8.0 Q-21.45 -7.45 -21.45 -6.6 -21.45 -5.8 -22.2 -5.25 -22.95 -4.65 -24.0 -4.65 -25.1 -4.65 -25.8 -5.25 L-26.3 -5.7 M-17.7 -2.8 Q-19.4 -3.7 -19.4 -4.95 -19.4 -6.25 -17.7 -7.1 -15.95 -8.0 -13.55 -8.0 -11.15 -8.0 -9.4 -7.1 -7.7 -6.25 -7.65 -4.95 -7.7 -3.7 -9.4 -2.8 -11.15 -1.95 -13.55 -1.95 -15.95 -1.95 -17.7 -2.8" fill="#9c6c2a" fill-rule="evenodd" stroke="none"/>
    <path d="M19.4 -6.8 L18.2 -6.4 Q17.45 -8.05 16.15 -8.95 L17.65 -9.25 19.4 -8.8 Q20.15 -8.4 20.15 -7.8 20.15 -7.25 19.4 -6.8" fill="#e3dcc6" fill-rule="evenodd" stroke="none"/>
    <path d="M19.4 -6.8 Q20.15 -7.25 20.15 -7.8 20.15 -8.4 19.4 -8.8 L17.65 -9.25 16.15 -8.95 Q17.45 -8.05 18.2 -6.4 L19.4 -6.8 M18.2 -6.4 L18.85 -4.5 Q22.05 -4.25 25.7 -0.85 M18.85 -4.5 Q15.2 -4.8 12.2 -1.2 M16.15 -8.95 Q14.05 -10.5 10.45 -10.1 M-23.15 -8.45 Q-22.45 -11.05 -21.4 -12.6 -20.75 -15.15 -16.6 -14.05 L-1.8 -14.0 Q6.3 -14.0 15.15 -11.6 17.5 -11.95 21.4 -10.5 L28.65 -10.85 31.1 -6.4 Q32.8 -5.05 33.3 -4.0 31.05 -3.85 31.05 -2.1 31.05 -0.65 30.2 0.75 31.8 1.4 31.8 2.35 31.8 3.35 29.75 4.05 L25.0 4.8 24.75 4.95 Q23.25 5.65 23.55 7.8 L15.65 8.0 Q15.35 8.8 14.2 9.45 12.65 10.25 10.45 10.25 8.3 10.25 6.75 9.45 5.2 9.55 3.9 14.45 1.0 9.8 -1.8 9.8 L-2.7 9.8 Q-2.85 10.8 -4.65 11.5 -6.55 12.3 -9.3 12.3 -12.0 12.3 -13.95 11.5 -15.85 10.7 -15.85 9.65 -15.85 9.15 -15.5 8.75 L-23.1 9.2 Q-22.55 7.2 -25.05 6.3 -26.0 5.95 -25.25 4.55 -26.45 3.9 -26.5 3.15 L-29.6 3.35 Q-32.2 0.7 -29.05 -1.15 -25.95 -2.95 -33.3 -4.6 L-26.3 -4.9 Q-26.5 -5.7 -26.3 -5.7 L-26.55 -6.6 Q-26.6 -7.45 -25.8 -8.0 -25.1 -8.55 -24.0 -8.55 L-23.15 -8.45 -22.2 -8.0 Q-21.45 -7.45 -21.45 -6.6 -21.45 -5.8 -22.2 -5.25 -22.95 -4.65 -24.0 -4.65 -25.1 -4.65 -25.8 -5.25 L-26.3 -5.7 M30.2 0.75 L29.75 0.55 Q27.65 -0.15 24.7 -0.15 21.7 -0.15 19.65 0.55 17.55 1.3 17.55 2.35 17.55 3.35 19.65 4.05 21.7 4.8 24.7 4.8 L25.0 4.8 M15.65 8.0 L15.7 7.5 Q15.7 6.35 14.2 5.55 12.65 4.75 10.45 4.8 8.3 4.75 6.75 5.55 5.2 6.35 5.2 7.5 5.2 8.65 6.75 9.45 M-17.7 -2.8 Q-19.4 -3.7 -19.4 -4.95 -19.4 -6.25 -17.7 -7.1 -15.95 -8.0 -13.55 -8.0 -11.15 -8.0 -9.4 -7.1 -7.7 -6.25 -7.65 -4.95 -7.7 -3.7 -9.4 -2.8 -11.15 -1.95 -13.55 -1.95 -15.95 -1.95 -17.7 -2.8 M-2.7 9.65 Q-2.7 8.55 -4.65 7.75 -6.05 7.15 -7.9 7.0 L-9.3 6.95 Q-12.0 6.95 -13.95 7.75 L-15.5 8.75 M-7.9 7.0 Q-6.85 0.9 -2.9 1.6 M-2.7 9.8 L-2.7 9.65 M-25.25 4.55 L-24.1 5.05 Q-21.7 5.9 -18.3 5.9 -14.95 5.9 -12.55 5.05 -10.15 4.2 -10.15 3.05 -10.15 1.85 -12.55 1.05 -14.95 0.2 -18.3 0.2 -21.7 0.2 -24.1 1.05 -26.5 1.85 -26.5 3.05 L-26.5 3.15" fill="none" stroke="#1b1b1b" stroke-linecap="round" stroke-linejoin="round" stroke-width="0.05"/>
  </g>
  <defs>
    <radialGradient cx="0" cy="0" gradientTransform="matrix(0.033, 0.0, 0.0, 0.0093, 0.85, -2.65)" gradientUnits="userSpaceOnUse" id="gradient0" r="819.2" spreadMethod="pad">
      <stop offset="0.596078431372549" stop-color="#9c6c2a"/>
      <stop offset="0.9882352941176471" stop-color="#d79b53"/>
    </radialGradient>
  </defs>
</svg>
