<?xml version="1.0" encoding="UTF-8" standalone="no"?>
<svg xmlns:xlink="http://www.w3.org/1999/xlink" height="24.85px" width="51.15px" xmlns="http://www.w3.org/2000/svg">
  <g transform="matrix(1.0, 0.0, 0.0, 1.0, 22.6, 10.65)">
    <path d="M-15.7 12.1 L-16.2 11.6 -15.45 9.75 Q-16.05 11.65 -9.7 10.95 L-10.65 12.55 Q-14.3 13.1 -15.7 12.1" fill="#000000" fill-rule="evenodd" stroke="none"/>
    <path d="M23.45 2.75 L21.05 3.35 19.55 3.65 23.45 2.75 M-7.5 1.45 L-7.5 1.5 -12.85 1.5 -12.8 1.4 Q-5.55 -7.4 2.1 -8.6 -3.1 -6.6 -7.5 1.45 M-12.4 9.75 L-11.25 8.05 -9.25 9.05 -12.4 9.75 M-15.1 8.55 L-13.05 7.75 -13.8 9.55 -15.1 8.55" fill="#f3ff04" fill-rule="evenodd" stroke="none"/>
    <path d="M-8.55 5.3 L-8.25 5.95 -8.55 6.55 Q-8.85 6.85 -9.2 6.85 L-9.8 6.55 -10.1 5.95 -9.8 5.3 Q-9.55 5.0 -9.2 5.0 -8.85 5.0 -8.55 5.3 M-13.45 5.6 L-13.4 5.05 -13.15 4.5 -12.8 4.35 -12.55 4.65 -12.6 5.25 -12.9 5.8 -13.25 5.95 -13.45 5.6" fill="#d8892a" fill-rule="evenodd" stroke="none"/>
    <path d="M-20.25 -3.0 Q-16.8 -4.95 -8.35 -7.6 5.85 -12.05 11.5 -10.0 17.15 -8.0 22.85 -5.6 27.4 -3.65 28.35 -1.65 27.65 0.55 21.95 0.45 10.35 -0.65 0.35 2.35 L-0.85 2.7 Q-10.0 3.75 -13.9 2.9 -16.45 2.3 -16.8 0.95 -20.75 -1.4 -20.25 -3.0 M-7.5 1.45 Q-3.1 -6.6 2.1 -8.6 -5.55 -7.4 -12.8 1.4 L-12.85 1.5 -7.5 1.5 -7.5 1.45" fill="#9ea2c0" fill-rule="evenodd" stroke="none"/>
    <path d="M28.35 -1.65 L28.55 -0.7 Q28.55 1.25 23.45 2.75 L19.55 3.65 Q7.15 3.4 -3.25 9.65 L-3.65 10.0 Q-6.3 11.75 -9.6 13.25 L-10.65 13.85 -11.65 14.2 -11.25 13.6 -10.65 12.55 -9.7 10.95 Q-16.05 11.65 -15.45 9.75 L-16.2 11.6 -16.75 13.2 Q-17.8 10.1 -15.6 5.95 -15.35 3.65 -18.65 2.4 -22.65 1.05 -22.6 -0.7 -22.6 -1.7 -20.25 -3.0 -20.75 -1.4 -16.8 0.95 -16.45 2.3 -13.9 2.9 -10.0 3.75 -0.85 2.7 L0.35 2.35 Q10.35 -0.65 21.95 0.45 27.65 0.55 28.35 -1.65 M-13.45 5.6 L-13.25 5.95 -12.9 5.8 -12.6 5.25 -12.55 4.65 -12.8 4.35 -13.15 4.5 -13.4 5.05 -13.45 5.6 M-8.55 5.3 Q-8.85 5.0 -9.2 5.0 -9.55 5.0 -9.8 5.3 L-10.1 5.95 -9.8 6.55 -9.2 6.85 Q-8.85 6.85 -8.55 6.55 L-8.25 5.95 -8.55 5.3 M-12.4 9.75 L-9.25 9.05 -11.25 8.05 -12.4 9.75 M-15.1 8.55 L-13.8 9.55 -13.05 7.75 -15.1 8.55" fill="#7a7ea9" fill-rule="evenodd" stroke="none"/>
    <path d="M-3.65 10.0 Q-4.55 11.75 -6.3 12.5 -8.1 13.2 -9.6 13.25 -6.3 11.75 -3.65 10.0 M-11.25 13.6 Q-15.9 13.5 -15.7 12.1 -14.3 13.1 -10.65 12.55 L-11.25 13.6" fill="#68719b" fill-rule="evenodd" stroke="none"/>
    <path d="M28.35 -1.65 L28.55 -0.7 Q28.55 1.25 23.45 2.75 L21.05 3.35 19.55 3.65 Q7.15 3.4 -3.25 9.65 L-3.65 10.0 Q-4.55 11.75 -6.3 12.5 -8.1 13.2 -9.6 13.25 L-10.65 13.85 -11.65 14.2 -11.25 13.6 Q-15.9 13.5 -15.7 12.1 L-16.2 11.6 -16.75 13.2 Q-17.8 10.1 -15.6 5.95 -15.35 3.65 -18.65 2.4 -22.65 1.05 -22.6 -0.7 -22.6 -1.7 -20.25 -3.0 -16.8 -4.95 -8.35 -7.6 5.85 -12.05 11.5 -10.0 17.15 -8.0 22.85 -5.6 27.4 -3.65 28.35 -1.65 M-7.5 1.45 Q-3.1 -6.6 2.1 -8.6 -5.55 -7.4 -12.8 1.4 L-12.85 1.5 -7.5 1.5 -7.5 1.45 M-10.65 12.55 L-9.7 10.95 Q-16.05 11.65 -15.45 9.75 L-16.2 11.6 M-12.4 9.75 L-9.25 9.05 -11.25 8.05 -12.4 9.75 M-15.1 8.55 L-13.05 7.75 -13.8 9.55 -15.1 8.55 M-11.25 13.6 L-10.65 12.55 Q-14.3 13.1 -15.7 12.1 M-3.65 10.0 Q-6.3 11.75 -9.6 13.25 M23.45 2.75 L19.55 3.65" fill="none" stroke="#393f57" stroke-linecap="round" stroke-linejoin="round" stroke-width="0.05"/>
    <path d="M-0.9 8.65 L-1.6 10.3 Q-3.4 11.0 -5.25 8.3 -3.5 5.45 -0.95 6.0 -0.3 6.35 -0.9 8.65" fill="url(#gradient0)" fill-rule="evenodd" stroke="none"/>
    <path d="M-0.9 8.65 L-1.6 10.3 Q-3.4 11.0 -5.25 8.3 -3.5 5.45 -0.95 6.0 -0.3 6.35 -0.9 8.65 Z" fill="none" stroke="#362d18" stroke-linecap="round" stroke-linejoin="round" stroke-width="0.05"/>
    <path d="M-16.85 7.0 Q-16.15 5.15 -15.7 4.95 -14.35 5.05 -14.85 7.45 -16.75 9.15 -17.25 8.25 L-16.85 7.0" fill="url(#gradient1)" fill-rule="evenodd" stroke="none"/>
    <path d="M-16.85 7.0 L-17.25 8.25 Q-16.75 9.15 -14.85 7.45 -14.35 5.05 -15.7 4.95 -16.15 5.15 -16.85 7.0 Z" fill="none" stroke="#362d18" stroke-linecap="round" stroke-linejoin="round" stroke-width="0.05"/>
    <path d="M24.85 -1.55 L26.9 -2.1 Q23.2 -4.75 20.1 -4.45 22.35 -4.2 24.85 -1.55" fill="#f3ff04" fill-rule="evenodd" stroke="none"/>
    <path d="M24.85 -1.55 Q22.35 -4.2 20.1 -4.45 23.2 -4.75 26.9 -2.1 L24.85 -1.55 Z" fill="none" stroke="#393f57" stroke-linecap="round" stroke-linejoin="round" stroke-width="0.05"/>
    <path d="M-19.3 -1.45 L-21.35 -2.0 -21.35 -2.05 Q-17.25 -4.55 -14.15 -4.2 -16.4 -4.0 -19.3 -1.45" fill="#f3ff04" fill-rule="evenodd" stroke="none"/>
    <path d="M-19.3 -1.45 Q-16.4 -4.0 -14.15 -4.2 -17.25 -4.55 -21.35 -2.05 L-21.35 -2.0 -19.3 -1.45 Z" fill="none" stroke="#393f57" stroke-linecap="round" stroke-linejoin="round" stroke-width="0.05"/>
  </g>
  <defs>
    <radialGradient cx="0" cy="0" gradientTransform="matrix(0.0018, 0.0047, -0.004, 0.0035, -1.95, 6.4)" gradientUnits="userSpaceOnUse" id="gradient0" r="819.2" spreadMethod="pad">
      <stop offset="0.1450980392156863" stop-color="#a35901"/>
      <stop offset="0.38823529411764707" stop-color="#ee9d3c"/>
    </radialGradient>
    <radialGradient cx="0" cy="0" gradientTransform="matrix(-0.0028, 0.0032, 2.0E-4, 0.0033, -15.45, 5.5)" gradientUnits="userSpaceOnUse" id="gradient1" r="819.2" spreadMethod="pad">
      <stop offset="0.1450980392156863" stop-color="#a35901"/>
      <stop offset="0.38823529411764707" stop-color="#ee9d3c"/>
    </radialGradient>
  </defs>
</svg>
