<?xml version="1.0" encoding="UTF-8" standalone="no"?>
<svg xmlns:xlink="http://www.w3.org/1999/xlink" height="58.25px" width="58.25px" xmlns="http://www.w3.org/2000/svg">
  <g transform="matrix(1.0, 0.0, 0.0, 1.0, 28.4, 29.75)">
    <path d="M29.85 -29.75 L29.85 28.5 -28.4 28.5 -28.4 -29.75 29.85 -29.75" fill="#e0e2eb" fill-opacity="0.0" fill-rule="evenodd" stroke="none"/>
    <path d="M-0.6 -8.1 L-0.2 -8.3 7.15 -12.15 8.85 -12.45 9.8 -12.45 2.65 -8.65 0.9 -7.7 0.4 -7.4 0.35 -7.4 0.3 -7.35 0.25 -7.35 0.2 -7.35 Q-1.05 -6.6 -7.45 -3.25 L-14.65 0.6 Q-16.55 0.3 -18.0 0.95 L-0.65 -8.05 -0.6 -8.1 M12.9 -11.5 L13.2 -11.35 15.35 -10.05 16.55 -9.05 18.1 -7.15 18.75 -6.0 Q8.5 -0.25 -2.15 4.9 L-7.05 7.2 -7.75 7.5 -8.7 4.75 -9.55 3.5 Q-10.5 2.3 -11.75 1.6 0.55 -5.35 12.9 -11.5 M0.25 -7.35 L0.35 -7.4 0.9 -7.7 0.35 -7.4 0.25 -7.35 M13.0 -8.4 L15.0 -9.5 13.0 -8.4 M3.7 -9.75 L7.75 -11.9 3.7 -9.75 M-0.2 -8.3 L-0.65 -8.05 -0.2 -8.3 M-0.8 -3.55 L-6.2 -0.9 -0.8 -3.55" fill="#836752" fill-rule="evenodd" stroke="none"/>
    <path d="M9.8 -12.45 L10.4 -12.35 12.9 -11.5 Q0.55 -5.35 -11.75 1.6 -12.25 1.3 -12.8 1.1 L-13.7 0.8 -14.3 0.7 -14.65 0.6 -7.45 -3.25 Q-1.05 -6.6 0.2 -7.35 L0.25 -7.35 0.3 -7.35 0.35 -7.4 0.4 -7.4 0.9 -7.7 2.65 -8.65 9.8 -12.45 M-5.3 -2.55 L-12.8 1.1 -5.3 -2.55 M6.95 -10.2 L2.25 -7.7 6.95 -10.2 M-2.15 -4.25 L-2.2 -4.2 -2.05 -4.3 -2.15 -4.25" fill="#8e7059" fill-rule="evenodd" stroke="none"/>
    <path d="M18.75 -6.0 Q19.5 -4.6 19.6 -3.25 L19.5 -1.9 19.45 -1.7 7.2 4.7 -7.25 11.65 -7.75 7.5 -7.05 7.2 -2.15 4.9 Q8.5 -0.25 18.75 -6.0 M-2.15 -4.25 L-2.05 -4.3 -2.2 -4.2 -2.15 -4.25 M12.8 0.25 L19.6 -3.25 12.8 0.25" fill="#735a48" fill-rule="evenodd" stroke="none"/>
    <path d="M-9.25 16.15 L-9.7 16.4 -10.35 16.6 -13.05 16.55 -13.9 16.3 Q-15.9 15.55 -17.5 13.9 L-18.85 12.2 -19.0 12.05 Q-20.0 10.5 -20.45 9.0 L-20.9 6.05 -20.7 4.35 Q-20.3 2.45 -18.85 1.4 L-18.0 0.95 Q-16.55 0.3 -14.65 0.6 L-14.3 0.7 -13.7 0.8 -12.8 1.1 Q-12.25 1.3 -11.75 1.6 -10.5 2.3 -9.55 3.5 L-8.7 4.75 -7.75 7.5 -7.25 11.65 -7.25 12.05 Q-7.4 14.8 -8.95 15.9 L-9.25 16.15 M-16.9 7.25 Q-17.5 7.85 -17.25 8.85 -17.0 9.8 -16.05 10.55 -15.1 11.3 -14.0 11.45 -13.0 11.6 -12.45 11.15 L-12.3 11.0 Q-11.75 10.45 -12.0 9.5 -12.25 8.5 -13.2 7.7 -14.15 6.95 -15.25 6.85 L-16.4 6.95 -16.9 7.25 -16.4 6.95 -15.25 6.85 Q-14.15 6.95 -13.2 7.7 -12.25 8.5 -12.0 9.5 -11.75 10.45 -12.3 11.0 L-12.45 11.15 Q-13.0 11.6 -14.0 11.45 -15.1 11.3 -16.05 10.55 -17.0 9.8 -17.25 8.85 -17.5 7.85 -16.9 7.25 M-16.55 3.45 Q-18.15 3.85 -18.65 5.8 -19.2 7.75 -18.3 10.05 L-17.25 12.05 -15.7 13.6 Q-14.65 14.4 -13.6 14.6 L-12.35 14.55 Q-10.75 14.1 -10.25 12.15 L-10.2 12.05 Q-9.75 10.15 -10.55 7.95 -11.45 5.65 -13.2 4.3 -14.8 3.1 -16.2 3.35 L-16.55 3.45 -16.2 3.35 Q-14.8 3.1 -13.2 4.3 -11.45 5.65 -10.55 7.95 -9.75 10.15 -10.2 12.05 L-10.25 12.15 Q-10.75 14.1 -12.35 14.55 L-13.6 14.6 Q-14.65 14.4 -15.7 13.6 L-17.25 12.05 -18.3 10.05 Q-19.2 7.75 -18.65 5.8 -18.15 3.85 -16.55 3.45" fill="#d0b38e" fill-rule="evenodd" stroke="none"/>
    <path d="M19.45 -1.7 Q18.95 0.4 18.15 1.2 L18.05 1.25 18.05 1.3 Q17.4 1.9 16.7 2.45 L16.35 2.7 16.3 2.7 -0.9 12.1 -8.9 16.0 -8.95 15.9 Q-7.4 14.8 -7.25 12.05 L-7.25 11.65 7.2 4.7 -2.75 10.1 7.2 4.7 19.45 -1.7 M-1.55 11.35 L-3.7 12.3 -1.55 11.35 M14.45 2.9 L10.1 5.3 14.45 2.9 M-1.9 12.05 L-7.75 15.05 -1.9 12.05 M16.35 2.7 L18.05 1.25 16.35 2.7" fill="#5c493a" fill-rule="evenodd" stroke="none"/>
    <path d="M-0.6 -8.1 L-0.2 -8.3 7.15 -12.15 8.85 -12.45 9.8 -12.45 10.4 -12.35 12.9 -11.5 13.2 -11.35 15.35 -10.05 16.55 -9.05 18.1 -7.15 18.75 -6.0 Q19.5 -4.6 19.6 -3.25 L19.5 -1.9 19.45 -1.7 Q18.95 0.4 18.15 1.2 L18.05 1.3 Q17.4 1.9 16.7 2.45 L16.35 2.7 16.3 2.7 -0.9 12.1 -8.9 16.0 -9.25 16.15 -9.7 16.4 -10.35 16.6 -13.05 16.55 -13.9 16.3 Q-15.9 15.55 -17.5 13.9 L-18.85 12.2 -19.0 12.05 Q-20.0 10.5 -20.45 9.0 L-20.9 6.05 -20.7 4.35 Q-20.3 2.45 -18.85 1.4 L-18.0 0.95 -0.65 -8.05 -0.2 -8.3 M2.65 -8.65 L0.9 -7.7 0.35 -7.4 0.25 -7.35 M-14.65 0.6 L-14.3 0.7 -13.7 0.8 -12.8 1.1 -5.3 -2.55 M2.25 -7.7 L6.95 -10.2 M7.75 -11.9 L3.7 -9.75 M15.0 -9.5 L13.0 -8.4 M-6.2 -0.9 L-0.8 -3.55 M-3.7 12.3 L-1.55 11.35 M-7.25 11.65 L-7.25 12.05 Q-7.4 14.8 -8.95 15.9 L-9.25 16.15 M-7.25 11.65 L-7.75 7.5 -8.7 4.75 -9.55 3.5 Q-10.5 2.3 -11.75 1.6 -12.25 1.3 -12.8 1.1 M-2.15 4.9 L-7.05 7.2 M-16.55 3.45 L-16.2 3.35 Q-14.8 3.1 -13.2 4.3 -11.45 5.65 -10.55 7.95 -9.75 10.15 -10.2 12.05 L-10.25 12.15 Q-10.75 14.1 -12.35 14.55 L-13.6 14.6 Q-14.65 14.4 -15.7 13.6 L-17.25 12.05 -18.3 10.05 Q-19.2 7.75 -18.65 5.8 -18.15 3.85 -16.55 3.45 M-16.9 7.25 L-16.4 6.95 -15.25 6.85 Q-14.15 6.95 -13.2 7.7 -12.25 8.5 -12.0 9.5 -11.75 10.45 -12.3 11.0 L-12.45 11.15 Q-13.0 11.6 -14.0 11.45 -15.1 11.3 -16.05 10.55 -17.0 9.8 -17.25 8.85 -17.5 7.85 -16.9 7.25 M-14.65 0.6 Q-16.55 0.3 -18.0 0.95 M-7.75 15.05 L-1.9 12.05 M10.1 5.3 L14.45 2.9 M18.05 1.25 L18.15 1.2 M18.05 1.25 L16.35 2.7 M7.2 4.7 L-2.75 10.1 M19.6 -3.25 L12.8 0.25" fill="none" stroke="#61463d" stroke-linecap="round" stroke-linejoin="round" stroke-width="0.05"/>
  </g>
</svg>
