<?xml version="1.0" encoding="UTF-8" standalone="no"?>
<svg xmlns:xlink="http://www.w3.org/1999/xlink" height="106.4px" width="26.95px" xmlns="http://www.w3.org/2000/svg">
  <g transform="matrix(1.0, 0.0, 0.0, 1.0, 8.5, 7.9)">
    <path d="M18.45 82.55 L18.45 82.65 18.35 82.55 18.45 82.55" fill="#ffffff" fill-rule="evenodd" stroke="none"/>
    <path d="M7.25 -7.3 L11.45 -7.9 Q12.45 27.95 18.45 82.55 L18.35 82.55 Q17.1 83.6 16.05 85.25 14.3 87.7 12.9 90.95 10.75 95.1 9.35 96.85 6.55 99.75 5.1 97.6 L1.1 93.95 Q-0.2 92.55 -1.3 91.95 -5.0 89.65 -8.5 78.5 -5.9 41.25 -3.45 -7.0 L-1.55 -6.8 -0.8 0.2 -0.45 -6.75 4.5 -6.95 8.3 9.4 Q7.6 1.15 7.25 -7.3 M8.55 10.35 L8.3 9.4 8.55 10.35 M12.4 73.25 L12.9 90.95 12.4 73.25 M5.1 97.6 L5.6 88.9 5.1 97.6 M-0.55 1.75 L-0.8 0.2 -0.55 1.75 M-1.3 81.55 L-1.3 91.95 -1.3 81.55" fill="#613636" fill-rule="evenodd" stroke="none"/>
    <path d="M-1.55 -6.8 L-0.45 -6.75 -0.8 0.2 -1.55 -6.8 M4.5 -6.95 L7.25 -7.3 Q7.6 1.15 8.3 9.4 L4.5 -6.95" fill="#512f2f" fill-rule="evenodd" stroke="none"/>
    <path d="M7.25 -7.3 L11.45 -7.9 Q12.45 27.95 18.45 82.55 L18.45 82.65 18.35 82.55 Q17.1 83.6 16.05 85.25 14.3 87.7 12.9 90.95 10.75 95.1 9.35 96.85 6.55 99.75 5.1 97.6 L1.1 93.95 Q-0.2 92.55 -1.3 91.95 -5.0 89.65 -8.5 78.5 -5.9 41.25 -3.45 -7.0 L-1.55 -6.8 -0.45 -6.75 4.5 -6.95 7.25 -7.3 M5.6 88.9 L5.1 97.6 M12.9 90.95 L12.4 73.25 M-1.3 91.95 L-1.3 81.55" fill="none" stroke="#412525" stroke-linecap="round" stroke-linejoin="round" stroke-width="0.05"/>
    <path d="M7.25 -7.3 Q7.6 1.15 8.3 9.4 L8.55 10.35 M-0.8 0.2 L-0.55 1.75 M-0.45 -6.75 L-0.8 0.2" fill="none" stroke="#412525" stroke-linecap="round" stroke-linejoin="round" stroke-width="0.05"/>
  </g>
</svg>
