<?xml version="1.0" encoding="UTF-8" standalone="no"?>
<svg xmlns:xlink="http://www.w3.org/1999/xlink" height="14.65px" width="5.25px" xmlns="http://www.w3.org/2000/svg">
  <g transform="matrix(1.0, 0.0, 0.0, 1.0, 3.15, 0.65)">
    <path d="M1.6 8.45 Q0.95 9.9 -0.85 9.85 L-1.8 6.05 -2.9 4.7 Q-3.65 3.8 -2.35 1.3 L-1.55 0.15 -1.4 0.0 Q-0.55 2.55 2.1 1.45 L2.1 1.65 2.05 3.8 1.75 6.9 1.6 8.45" fill="#7c4745" fill-rule="evenodd" stroke="none"/>
    <path d="M1.6 8.45 Q2.55 11.05 1.05 13.8 0.6 14.25 -0.2 13.55 -0.65 13.4 -0.9 11.9 -1.15 10.35 -0.85 9.85 0.95 9.9 1.6 8.45" fill="#87868a" fill-rule="evenodd" stroke="none"/>
    <path d="M2.1 1.45 Q-0.55 2.55 -1.4 0.0 -0.25 -1.0 1.4 -0.4 1.95 0.15 2.1 1.45" fill="#321d1d" fill-rule="evenodd" stroke="none"/>
    <path d="M1.05 13.8 Q2.55 11.05 1.6 8.45 0.95 9.9 -0.85 9.85 -1.15 10.35 -0.9 11.9 -0.65 13.4 -0.2 13.55 M1.6 8.45 L1.75 6.9 2.05 3.8 2.1 1.65 2.1 1.45 Q-0.55 2.55 -1.4 0.0 L-1.55 0.15 -2.35 1.3 Q-3.65 3.8 -2.9 4.7 L-1.8 6.05 -0.85 9.85 M2.1 1.45 Q1.95 0.15 1.4 -0.4 -0.25 -1.0 -1.4 0.0" fill="none" stroke="#392020" stroke-linecap="round" stroke-linejoin="round" stroke-width="0.05"/>
  </g>
</svg>
