<?xml version="1.0" encoding="UTF-8" standalone="no"?>
<svg xmlns:xlink="http://www.w3.org/1999/xlink" height="8.5px" width="8.85px" xmlns="http://www.w3.org/2000/svg">
  <g transform="matrix(1.0, 0.0, 0.0, 1.0, 2.95, 5.6)">
    <path d="M3.95 -4.0 Q4.95 -2.8 5.7 -2.65 6.1 -0.6 5.6 0.9 5.05 2.4 4.5 2.9 L4.1 1.2 Q3.2 -3.5 3.95 -4.0" fill="#321d1d" fill-rule="evenodd" stroke="none"/>
    <path d="M4.5 2.9 Q-1.0 3.05 -2.45 -0.3 1.55 1.65 4.1 1.2 L4.5 2.9" fill="#69676c" fill-rule="evenodd" stroke="none"/>
    <path d="M-2.45 -0.3 Q-3.25 -2.2 -2.8 -5.2 1.05 -6.4 3.95 -4.0 3.2 -3.5 4.1 1.2 1.55 1.65 -2.45 -0.3" fill="#87868a" fill-rule="evenodd" stroke="none"/>
    <path d="M3.95 -4.0 Q4.95 -2.8 5.7 -2.65 M4.5 2.9 Q-1.0 3.05 -2.45 -0.3 -3.25 -2.2 -2.8 -5.2 1.05 -6.4 3.95 -4.0 3.2 -3.5 4.1 1.2 L4.5 2.9" fill="none" stroke="#392020" stroke-linecap="round" stroke-linejoin="round" stroke-width="0.05"/>
  </g>
</svg>
