<?xml version="1.0" encoding="UTF-8" standalone="no"?>
<svg xmlns:xlink="http://www.w3.org/1999/xlink" height="7.5px" width="22.05px" xmlns="http://www.w3.org/2000/svg">
  <g transform="matrix(1.0, 0.0, 0.0, 1.0, 12.0, 2.4)">
    <path d="M-0.7 0.55 L2.25 3.25 1.5 4.05 -4.15 4.9 -11.5 5.1 Q-12.95 5.1 -10.2 3.15 -6.2 0.0 -0.75 0.6 L-0.75 0.55 -0.7 0.55" fill="#7c4745" fill-rule="evenodd" stroke="none"/>
    <path d="M-0.7 0.55 Q1.0 -0.75 1.3 -2.4 L3.45 -2.1 Q3.45 -2.1 3.55 -2.05 4.9 -0.25 5.65 1.9 L5.35 0.95 Q9.9 2.55 10.05 4.4 4.9 4.5 4.25 3.45 L4.05 2.3 Q4.0 1.4 2.25 3.25 L-0.7 0.55" fill="#5c3534" fill-rule="evenodd" stroke="none"/>
    <path d="M2.25 3.25 Q4.0 1.4 4.05 2.3 L4.25 3.45 Q4.9 4.5 10.05 4.4 9.9 2.55 5.35 0.95 L5.65 1.9 Q4.9 -0.25 3.55 -2.05 3.45 -2.1 3.45 -2.1 L1.3 -2.4 Q1.0 -0.75 -0.7 0.55 M2.25 3.25 L1.5 4.05 -4.15 4.9 -11.5 5.1 Q-12.95 5.1 -10.2 3.15 -6.2 0.0 -0.75 0.6 L-0.75 0.55" fill="none" stroke="#4d2d2d" stroke-linecap="round" stroke-linejoin="round" stroke-width="0.05"/>
  </g>
</svg>
