<?xml version="1.0" encoding="UTF-8" standalone="no"?>
<svg xmlns:xlink="http://www.w3.org/1999/xlink" height="28.7px" width="6.15px" xmlns="http://www.w3.org/2000/svg">
  <g transform="matrix(1.0, 0.0, 0.0, 1.0, 4.65, 29.2)">
    <path d="M0.75 -1.25 L-0.85 -0.5 Q-3.25 -1.4 -3.5 -1.6 -2.7 -2.0 -2.8 -5.1 -4.9 -9.1 -2.8 -15.3 -4.9 -21.55 -4.6 -24.55 L-4.05 -27.35 -3.95 -27.75 -2.7 -29.15 -2.5 -29.2 Q-0.65 -29.35 0.5 -27.95 L1.05 -27.15 1.45 -24.2 Q1.6 -21.9 1.0 -19.5 L-0.1 -15.15 Q2.6 -10.45 0.05 -4.85 -0.05 -2.3 0.75 -1.25 M-0.1 -15.15 L-1.8 -13.1 -2.8 -15.3 -1.8 -13.1 -0.1 -15.15" fill="#7c4745" fill-rule="evenodd" stroke="none"/>
    <path d="M0.75 -1.25 L-0.85 -0.5 Q-3.25 -1.4 -3.5 -1.6 -2.7 -2.0 -2.8 -5.1 -4.9 -9.1 -2.8 -15.3 -4.9 -21.55 -4.6 -24.55 L-4.05 -27.35 -3.95 -27.75 -2.7 -29.15 -2.5 -29.2 Q-0.65 -29.35 0.5 -27.95 L1.05 -27.15 1.45 -24.2 Q1.6 -21.9 1.0 -19.5 L-0.1 -15.15 -1.8 -13.1 -2.8 -15.3" fill="none" stroke="#4d2d2d" stroke-linecap="round" stroke-linejoin="round" stroke-width="0.05"/>
    <path d="M-0.1 -15.15 Q2.6 -10.45 0.05 -4.85 -0.05 -2.3 0.75 -1.25 Z" fill="none" stroke="#4d2d2d" stroke-linecap="round" stroke-linejoin="round" stroke-width="0.05"/>
  </g>
</svg>
