<?xml version="1.0" encoding="UTF-8" standalone="no"?>
<svg xmlns:xlink="http://www.w3.org/1999/xlink" height="23.15px" width="9.45px" xmlns="http://www.w3.org/2000/svg">
  <g transform="matrix(1.0, 0.0, 0.0, 1.0, 6.55, 0.55)">
    <path d="M-3.55 4.0 Q-5.0 3.7 -6.55 2.55 -4.6 0.25 0.5 -0.55 1.15 0.35 1.05 2.65 L1.05 2.7 0.95 2.75 -1.95 3.75 -3.25 3.95 -3.55 4.0" fill="#0e1a27" fill-rule="evenodd" stroke="none"/>
    <path d="M1.05 2.7 L1.1 2.7 2.9 1.95 2.0 7.7 Q1.0 14.4 -0.9 19.05 -2.75 23.7 -4.9 22.3 -5.45 21.4 -5.65 20.0 L-5.6 18.2 Q-5.35 17.6 -5.25 16.75 L-4.4 12.05 Q-3.6 8.25 -1.95 3.75 L0.95 2.75 1.05 2.7" fill="#7c4745" fill-rule="evenodd" stroke="none"/>
    <path d="M-5.6 18.2 L-5.5 17.35 -4.95 10.85 Q-4.6 6.55 -3.55 4.0 L-3.25 3.95 -1.95 3.75 Q-3.6 8.25 -4.4 12.05 L-5.25 16.75 Q-5.35 17.6 -5.6 18.2" fill="#5c3534" fill-rule="evenodd" stroke="none"/>
    <path d="M1.05 2.7 L1.1 2.7 2.9 1.95 2.0 7.7 Q1.0 14.4 -0.9 19.05 -2.75 23.7 -4.9 22.3 -5.45 21.4 -5.65 20.0 L-5.6 18.2 -5.5 17.35 -4.95 10.85 Q-4.6 6.55 -3.55 4.0 L-3.25 3.95 -1.95 3.75 0.95 2.75 1.05 2.7 M-6.55 2.55 Q-4.6 0.25 0.5 -0.55 1.15 0.35 1.05 2.65" fill="none" stroke="#4d2d2d" stroke-linecap="round" stroke-linejoin="round" stroke-width="0.05"/>
  </g>
</svg>
