<?xml version="1.0" encoding="UTF-8" standalone="no"?>
<svg xmlns:xlink="http://www.w3.org/1999/xlink" height="39.7px" width="32.4px" xmlns="http://www.w3.org/2000/svg">
  <g transform="matrix(1.0, 0.0, 0.0, 1.0, 16.0, 21.95)">
    <path d="M-6.85 8.85 L-6.9 8.85 -6.95 8.7 -6.85 8.85" fill="#783d4a" fill-rule="evenodd" stroke="none"/>
    <path d="M1.6 -5.3 L1.7 -5.3 1.6 -5.25 1.6 -5.3 M-6.9 8.85 L-7.0 8.8 -6.95 8.7 -6.9 8.85 M-7.5 4.4 L-7.5 4.35 -7.35 4.35 -7.5 4.4" fill="#643342" fill-rule="evenodd" stroke="none"/>
    <path d="M5.8 8.1 L5.85 8.05 5.85 8.1 5.8 8.1" fill="#294876" fill-rule="evenodd" stroke="none"/>
    <path d="M0.3 -12.9 Q2.25 -10.55 1.8 -6.6 L1.6 -5.3 1.6 -5.25 1.6 -5.2 1.4 -5.15 1.3 -5.05 0.8 -4.8 Q-0.35 -4.15 -1.4 -3.75 L-1.7 -3.65 -3.65 -3.15 -4.75 -3.1 Q-6.45 -3.2 -7.65 -4.25 -8.35 -4.9 -8.85 -5.85 L-9.15 -6.5 -9.15 -7.2 -9.15 -7.25 -8.0 -13.6 -6.85 -10.2 -6.8 -10.1 -6.45 -9.25 -5.85 -8.45 Q-4.95 -8.7 -4.2 -9.05 -3.15 -9.55 -2.45 -10.25 L-1.3 -11.25 -0.25 -12.2 0.3 -12.9 M6.3 -4.6 Q5.4 -1.25 6.3 1.7 L5.7 3.0 4.7 4.2 4.05 4.7 4.0 4.7 Q3.1 5.25 1.95 5.45 L1.35 5.55 -0.15 5.5 -0.65 5.45 -0.7 5.45 Q-2.9 4.45 -4.6 4.25 L-7.35 4.35 -7.5 4.35 -8.6 4.2 -9.75 3.75 -10.5 3.2 -11.55 2.1 -11.6 1.95 -11.65 1.75 -11.75 1.2 -11.8 0.9 -11.9 -1.1 -11.9 -1.3 -11.65 -3.05 -11.35 -4.3 -10.45 -5.95 -7.8 -3.5 -7.75 -3.45 Q-6.25 -2.05 -3.95 -2.2 L-2.95 -2.4 -1.75 -2.75 -1.05 -3.0 -0.6 -3.1 6.3 -4.6" fill="#7c4745" fill-rule="evenodd" stroke="none"/>
    <path d="M2.0 -15.4 L2.05 -15.3 2.55 -14.3 2.65 -14.1 Q3.6 -12.0 4.55 -9.1 L4.95 -7.65 3.35 -6.35 3.0 -6.15 2.8 -6.0 2.7 -5.9 1.95 -5.45 1.7 -5.3 1.6 -5.3 1.8 -6.6 Q2.25 -10.55 0.3 -12.9 L2.0 -15.4 M8.9 -5.2 L9.4 -4.95 10.9 -3.35 11.2 -2.9 Q12.4 -0.95 10.35 4.1 7.15 4.85 6.3 1.7 5.4 -1.25 6.3 -4.6 L8.9 -5.2 M2.85 8.95 L3.4 10.05 3.7 10.8 3.7 10.85 4.05 11.95 Q4.65 13.05 6.25 13.8 6.6 14.7 6.3 15.4 4.25 16.45 2.3 16.85 L0.1 17.35 -1.05 17.6 -2.45 17.75 -3.9 17.65 -4.65 17.55 Q-5.2 15.4 -3.55 15.2 L-3.15 15.2 -1.4 14.45 Q-0.5 13.9 0.7 12.95 L1.85 11.7 Q2.35 10.85 2.65 9.7 L2.85 8.95" fill="#5c3534" fill-rule="evenodd" stroke="none"/>
    <path d="M6.3 1.7 Q7.15 4.85 10.35 4.1 L9.75 5.5 7.55 7.0 7.45 7.05 5.85 8.1 5.85 8.05 5.8 8.1 2.85 8.95 2.85 8.9 2.15 7.85 1.1 6.7 1.05 6.6 -0.2 5.7 -0.65 5.45 -0.15 5.5 1.35 5.55 1.95 5.45 Q3.1 5.25 4.0 4.7 L4.05 4.7 4.7 4.2 5.7 3.0 6.3 1.7 M-7.0 8.8 Q-8.3 8.0 -8.9 5.75 L-10.6 3.45 -11.55 2.1 -10.5 3.2 -9.75 3.75 -8.6 4.2 -7.5 4.35 -7.5 4.4 -7.6 5.6 -7.05 8.3 -6.95 8.7 -7.0 8.8" fill="#492929" fill-rule="evenodd" stroke="none"/>
    <path d="M-4.65 17.55 Q-7.5 15.85 -8.4 14.5 -8.55 13.0 -8.1 12.3 -7.5 11.75 -7.2 10.9 -6.9 10.0 -6.9 8.85 L-6.85 8.85 -6.6 11.15 Q-5.85 15.25 -3.55 15.2 -5.2 15.4 -4.65 17.55" fill="#774444" fill-rule="evenodd" stroke="none"/>
    <path d="M2.0 -15.4 L0.3 -12.9 -0.25 -12.2 -1.3 -11.25 -2.45 -10.25 Q-3.15 -9.55 -4.2 -9.05 -4.95 -8.7 -5.85 -8.45 L-6.45 -9.25 -6.8 -10.1 -6.85 -10.2 -8.0 -13.6 -8.0 -13.7 -7.9 -13.95 -7.4 -14.85 -7.25 -15.0 Q-6.35 -16.0 -4.4 -16.35 L-2.7 -16.55 -2.2 -16.55 0.85 -16.15 Q1.6 -15.9 2.0 -15.4 M-9.15 -6.5 L-8.85 -5.85 Q-8.35 -4.9 -7.65 -4.25 -6.45 -3.2 -4.75 -3.1 L-3.65 -3.15 -1.7 -3.65 -1.4 -3.75 Q-0.35 -4.15 0.8 -4.8 L1.3 -5.05 1.4 -5.15 1.6 -5.2 1.7 -4.4 1.4 -4.25 0.8 -3.9 -0.6 -3.2 -1.05 -3.0 -1.75 -2.75 -2.95 -2.4 -3.95 -2.2 Q-6.25 -2.05 -7.75 -3.45 L-7.8 -3.5 -8.7 -4.7 -9.15 -5.6 -9.15 -6.5" fill="#321d1d" fill-rule="evenodd" stroke="none"/>
    <path d="M1.7 -5.3 L1.95 -5.45 2.7 -5.9 2.8 -6.0 3.0 -6.15 3.35 -6.35 4.95 -7.65 5.55 -7.05 5.6 -7.0 2.3 -4.75 2.2 -4.7 1.7 -4.4 1.6 -5.2 1.6 -5.25 1.7 -5.3" fill="#1e1111" fill-rule="evenodd" stroke="none"/>
    <path d="M-4.6 4.25 L-4.75 6.7 Q-4.85 9.75 -4.5 12.0 -4.2 13.9 -3.55 15.2 -5.85 15.25 -6.6 11.15 L-6.85 8.85 -6.95 8.7 -7.05 8.3 -7.6 5.6 -7.5 4.4 -7.35 4.35 -4.6 4.25" fill="#887b33" fill-rule="evenodd" stroke="none"/>
    <path d="M-0.65 5.45 L-0.2 5.7 1.05 6.6 1.1 6.7 2.15 7.85 2.85 8.9 2.85 8.95 2.65 9.7 Q2.35 10.85 1.85 11.7 L0.7 12.95 Q-0.5 13.9 -1.4 14.45 L-3.15 15.2 -3.55 15.2 Q-4.2 13.9 -4.5 12.0 -4.85 9.75 -4.75 6.7 L-4.6 4.25 Q-2.9 4.45 -0.7 5.45 L-0.65 5.45" fill="#645a26" fill-rule="evenodd" stroke="none"/>
    <path d="M-1.05 -3.0 L-0.6 -3.2 -0.6 -3.1 -1.05 -3.0" fill="#613636" fill-rule="evenodd" stroke="none"/>
    <path d="M4.95 -7.65 L4.55 -9.1 Q3.6 -12.0 2.65 -14.1 L2.55 -14.3 2.05 -15.3 2.0 -15.4 Q1.6 -15.9 0.85 -16.15 L-2.2 -16.55 -2.7 -16.55 -4.4 -16.35 Q-6.35 -16.0 -7.25 -15.0 L-7.4 -14.85 -7.9 -13.95 -8.0 -13.7 -8.0 -13.6 -9.15 -7.25 -9.15 -7.2 -9.15 -6.5 -9.15 -5.6 -8.7 -4.7 -7.8 -3.5 -10.45 -5.95 -10.75 -6.25 Q-11.1 -9.45 -16.0 -10.9 -10.35 -18.55 1.55 -21.95 9.9 -19.4 16.4 -9.65 11.05 -9.85 8.9 -5.2 L6.3 -4.6 -0.6 -3.1 -0.6 -3.2 0.8 -3.9 1.4 -4.25 1.7 -4.4 2.2 -4.7 2.3 -4.75 5.6 -7.0 5.55 -7.05 4.95 -7.65 M7.7 -6.1 L5.6 -7.0 7.7 -6.1" fill="#000000" fill-rule="evenodd" stroke="none"/>
    <path d="M4.95 -7.65 L4.55 -9.1 Q3.6 -12.0 2.65 -14.1 L2.55 -14.3 2.05 -15.3 2.0 -15.4 M-8.0 -13.7 L-8.0 -13.6 -9.15 -7.25 -9.15 -7.2 -9.15 -6.5 -9.15 -5.6 -8.7 -4.7 -7.8 -3.5 M1.7 -4.4 L2.2 -4.7 2.3 -4.75 5.6 -7.0 M-0.6 -3.2 L0.8 -3.9 1.4 -4.25 1.7 -4.4 M6.3 -4.6 Q5.4 -1.25 6.3 1.7 7.15 4.85 10.35 4.1 12.4 -0.95 11.2 -2.9 L10.9 -3.35 9.4 -4.95 M-0.65 5.45 L-0.2 5.7 1.05 6.6 1.1 6.7 2.15 7.85 M5.85 8.1 L7.45 7.05 7.55 7.0 9.75 5.5 10.35 4.1 M2.3 16.85 L0.1 17.35 -1.05 17.6 -2.45 17.75 -3.9 17.65 -4.65 17.55 Q-7.5 15.85 -8.4 14.5 -8.55 13.0 -8.1 12.3 -7.5 11.75 -7.2 10.9 -6.9 10.0 -6.9 8.85 L-7.0 8.8 M-8.9 5.75 L-10.6 3.45 -11.55 2.1 -11.6 1.95 -11.65 1.75 -11.75 1.2 -11.8 0.9 -11.9 -1.1 -11.9 -1.3 -11.65 -3.05 -11.35 -4.3 -10.45 -5.95 M1.85 11.7 L0.7 12.95 Q-0.5 13.9 -1.4 14.45 L-3.15 15.2 -3.55 15.2 Q-5.85 15.25 -6.6 11.15 L-6.85 8.85 -6.95 8.7 -6.9 8.85 M5.85 8.1 L5.8 8.1 M-7.75 -3.45 Q-6.25 -2.05 -3.95 -2.2 L-2.95 -2.4 -1.75 -2.75 -1.05 -3.0 -0.6 -3.2 M-0.65 5.45 L-0.7 5.45 Q-2.9 4.45 -4.6 4.25 L-7.35 4.35 -7.5 4.4 -7.6 5.6 -7.05 8.3 -6.95 8.7" fill="none" stroke="#392020" stroke-linecap="round" stroke-linejoin="round" stroke-width="0.05"/>
    <path d="M4.95 -7.65 L5.55 -7.05 M9.4 -4.95 L8.9 -5.2 M2.15 7.85 L2.85 8.9 2.85 8.95 5.8 8.1 M2.85 8.95 L3.4 10.05 3.7 10.8 3.7 10.85 4.05 11.95 Q4.65 13.05 6.25 13.8 6.6 14.7 6.3 15.4 4.25 16.45 2.3 16.85 M2.85 8.95 L2.65 9.7 Q2.35 10.85 1.85 11.7" fill="none" stroke="#392020" stroke-linecap="round" stroke-linejoin="round" stroke-width="0.05"/>
    <path d="M2.0 -15.4 L0.3 -12.9 -0.25 -12.2 -1.3 -11.25 -2.45 -10.25 Q-3.15 -9.55 -4.2 -9.05 -4.95 -8.7 -5.85 -8.45 L-6.45 -9.25 -6.8 -10.1 -6.85 -10.2 -8.0 -13.6 M5.55 -7.05 L5.6 -7.0 7.7 -6.1 M2.0 -15.4 Q1.6 -15.9 0.85 -16.15 L-2.2 -16.55 -2.7 -16.55 -4.4 -16.35 Q-6.35 -16.0 -7.25 -15.0 L-7.4 -14.85 -7.9 -13.95 -8.0 -13.7 M8.9 -5.2 L6.3 -4.6 -0.6 -3.1 -1.05 -3.0 M-10.45 -5.95 L-10.75 -6.25 Q-11.1 -9.45 -16.0 -10.9 -10.35 -18.55 1.55 -21.95 9.9 -19.4 16.4 -9.65 11.05 -9.85 8.9 -5.2 M-10.45 -5.95 L-7.8 -3.5 -7.75 -3.45" fill="none" stroke="#000000" stroke-linecap="round" stroke-linejoin="round" stroke-width="0.05"/>
    <path d="M-8.0 -6.05 L-6.25 -7.45 -6.5 -4.1 -8.0 -6.05" fill="#87868a" fill-rule="evenodd" stroke="none"/>
    <path d="M-2.8 -5.8 L-4.6 -3.85 -4.35 -7.2 -2.8 -5.8" fill="#87868a" fill-rule="evenodd" stroke="none"/>
    <path d="M-5.35 10.05 Q-8.1 7.55 -8.9 4.05 -7.65 1.75 -4.5 0.35 L-4.2 0.45 Q3.7 5.45 -5.35 10.05" fill="#7c4745" fill-rule="evenodd" stroke="none"/>
    <path d="M-5.35 10.05 Q3.7 5.45 -4.2 0.45 -0.65 1.8 1.8 5.65 -1.25 9.75 -5.35 10.05" fill="#5c3534" fill-rule="evenodd" stroke="none"/>
    <path d="M1.8 5.65 L2.15 6.25 M-4.2 0.45 L-4.5 0.35 Q-7.65 1.75 -8.9 4.05 -8.1 7.55 -5.35 10.05 -1.25 9.75 1.8 5.65 -0.65 1.8 -4.2 0.45" fill="none" stroke="#392020" stroke-linecap="round" stroke-linejoin="round" stroke-width="0.05"/>
  </g>
</svg>
