<?xml version="1.0" encoding="UTF-8" standalone="no"?>
<svg xmlns:xlink="http://www.w3.org/1999/xlink" height="9.15px" width="7.1px" xmlns="http://www.w3.org/2000/svg">
  <g transform="matrix(1.0, 0.0, 0.0, 1.0, 2.65, 1.05)">
    <path d="M-2.6 2.95 L-1.1 -0.05 Q-0.25 -1.75 1.65 -0.55 3.5 0.6 4.45 2.45 1.25 4.35 -0.35 3.7 -1.2 2.85 -2.6 2.95" fill="#7c4745" fill-rule="evenodd" stroke="none"/>
    <path d="M-2.6 2.95 Q-1.2 2.85 -0.35 3.7 -0.2 4.45 -0.4 5.6 -0.65 6.7 0.25 8.1 -3.05 6.6 -2.6 2.95" fill="#422424" fill-rule="evenodd" stroke="none"/>
    <path d="M-0.35 3.7 Q1.25 4.35 4.45 2.45 3.5 0.6 1.65 -0.55 -0.25 -1.75 -1.1 -0.05 L-2.6 2.95 Q-3.05 6.6 0.25 8.1 -0.65 6.7 -0.4 5.6 -0.2 4.45 -0.35 3.7" fill="none" stroke="#4d2d2d" stroke-linecap="round" stroke-linejoin="round" stroke-width="0.05"/>
    <path d="M-2.6 2.95 Q-1.2 2.85 -0.35 3.7 Z" fill="none" stroke="#4d2d2d" stroke-linecap="round" stroke-linejoin="round" stroke-width="0.05"/>
  </g>
</svg>
