<?xml version="1.0" encoding="UTF-8" standalone="no"?>
<svg xmlns:xlink="http://www.w3.org/1999/xlink" height="21.2px" width="29.05px" xmlns="http://www.w3.org/2000/svg">
  <g transform="matrix(1.0, 0.0, 0.0, 1.0, 13.2, 4.2)">
    <path d="M-5.45 4.65 L-7.7 0.2 -7.75 0.2 -8.15 -0.85 Q-8.6 -2.7 -7.3 -2.6 -6.45 -1.65 -3.6 -1.1 L-3.4 -1.05 -3.15 -1.0 -2.35 -0.95 2.85 -0.7 Q5.3 -0.6 7.1 -1.45 7.85 -1.15 8.4 0.0 2.9 2.1 0.9 6.65 -2.5 8.4 -5.45 4.65" fill="#774444" fill-rule="evenodd" stroke="none"/>
    <path d="M-5.45 4.65 Q-2.5 8.4 0.9 6.65 2.9 2.1 8.4 0.0 L8.8 0.95 Q7.05 1.9 6.0 2.95 4.7 4.3 3.75 5.6 L1.5 8.85 Q0.2 10.8 -1.15 10.5 -3.0 8.85 -5.05 5.3 L-5.45 4.65" fill="#5c3534" fill-rule="evenodd" stroke="none"/>
    <path d="M8.4 0.0 Q7.85 -1.15 7.1 -1.45 5.3 -0.6 2.85 -0.7 L-2.35 -0.95 -3.15 -1.0 -3.4 -1.05 -3.6 -1.1 Q-6.45 -1.65 -7.3 -2.6 -8.6 -2.7 -8.15 -0.85 L-7.75 0.2 -7.7 0.2 -5.45 4.65 -5.05 5.3 Q-3.0 8.85 -1.15 10.5 0.2 10.8 1.5 8.85 L3.75 5.6 Q4.7 4.3 6.0 2.95 7.05 1.9 8.8 0.95 L8.4 0.0 Z" fill="none" stroke="#301820" stroke-linecap="round" stroke-linejoin="round" stroke-width="0.05"/>
    <path d="M-5.25 3.0 L-3.55 4.3 -1.55 3.75 -3.35 5.3 -5.25 3.0 M-4.45 4.85 L-3.35 5.7 -2.0 5.35 -3.2 6.4 -4.45 4.85 M-6.0 1.05 L-3.8 2.7 -1.25 1.95 -3.6 4.0 -6.0 1.05" fill="#9e963a" fill-rule="evenodd" stroke="none"/>
    <path d="M-1.55 3.75 L-3.35 5.3 -5.25 3.0 M-2.0 5.35 L-3.2 6.4 -4.45 4.85 M-1.25 1.95 L-3.6 4.0 -6.0 1.05" fill="none" stroke="#392020" stroke-linecap="round" stroke-linejoin="round" stroke-width="0.05"/>
    <path d="M1.8 -0.35 Q3.15 6.0 5.2 12.35 L-1.5 17.0 -6.9 11.2 -5.4 -1.1 Q-3.25 0.3 1.8 -0.35 M-1.45 6.35 L-1.1 9.7 0.35 7.75 -1.45 6.35 M-3.35 6.3 L-4.85 7.7 -3.05 9.65 -3.35 6.3" fill="#5c3534" fill-rule="evenodd" stroke="none"/>
    <path d="M-1.45 6.35 L0.35 7.75 -1.1 9.7 -1.45 6.35 M-3.35 6.3 L-3.05 9.65 -4.85 7.7 -3.35 6.3" fill="#87868a" fill-rule="evenodd" stroke="none"/>
    <path d="M1.8 -0.35 Q3.15 6.0 5.2 12.35 L-1.5 17.0 -6.9 11.2 -5.4 -1.1 Q-3.25 0.3 1.8 -0.35 Z" fill="none" stroke="#333333" stroke-linecap="round" stroke-linejoin="round" stroke-width="0.05"/>
    <path d="M1.0 0.55 L0.95 0.45 Q0.9 0.15 1.1 -0.1 1.3 -0.3 1.6 -0.3 L2.2 -0.1 2.5 0.45 2.35 1.0 2.05 1.2 1.8 1.25 1.25 1.0 1.0 0.55 M-5.65 0.3 L-5.85 0.2 -6.1 -0.35 -6.0 -0.85 -5.5 -1.05 Q-5.15 -1.05 -4.9 -0.85 L-4.6 -0.3 Q-4.55 -0.05 -4.65 0.1 L-4.75 0.2 Q-4.95 0.4 -5.3 0.4 L-5.65 0.3" fill="#a4a3a4" fill-rule="evenodd" stroke="none"/>
    <path d="M2.05 1.2 L2.35 1.0 2.5 0.45 2.2 -0.1 1.6 -0.3 Q1.3 -0.3 1.1 -0.1 0.9 0.15 0.95 0.45 L1.0 0.55 Q-2.6 1.45 -4.65 0.1 -4.55 -0.05 -4.6 -0.3 L-4.9 -0.85 Q-5.15 -1.05 -5.5 -1.05 L-6.0 -0.85 -6.1 -0.35 -5.85 0.2 -5.65 0.3 -6.7 12.8 -9.4 14.1 -11.1 11.35 -9.25 3.8 -11.15 9.95 -12.7 11.2 -13.2 8.3 -8.35 -2.2 -7.85 -4.2 Q-7.2 -3.25 -6.2 -3.25 L-5.5 -1.8 Q-2.85 -0.85 1.5 -1.65 L2.45 -3.55 Q4.45 -3.25 6.0 -4.05 6.95 -3.2 7.6 -1.8 L15.85 10.8 14.7 13.45 11.7 12.2 6.2 0.15 Q5.8 0.2 6.2 0.6 L11.75 12.5 8.95 14.9 5.1 13.2 2.05 1.2 M-8.2 -1.2 L-8.25 -0.35 -9.25 3.8 -8.25 -0.35 -8.2 -1.2" fill="#556379" fill-rule="evenodd" stroke="none"/>
    <path d="M1.0 0.55 L0.95 0.45 Q0.9 0.15 1.1 -0.1 1.3 -0.3 1.6 -0.3 L2.2 -0.1 2.5 0.45 2.35 1.0 2.05 1.2 5.1 13.2 8.95 14.9 11.75 12.5 6.2 0.6 Q5.8 0.2 6.2 0.15 L11.7 12.2 14.7 13.45 15.85 10.8 7.6 -1.8 Q6.95 -3.2 6.0 -4.05 4.45 -3.25 2.45 -3.55 L1.5 -1.65 Q-2.85 -0.85 -5.5 -1.8 L-6.2 -3.25 Q-7.2 -3.25 -7.85 -4.2 L-8.35 -2.2 -13.2 8.3 -12.7 11.2 -11.15 9.95 -9.25 3.8 -8.25 -0.35 -8.2 -1.2 M1.0 0.55 L1.25 1.0 1.8 1.25 2.05 1.2 M-5.65 0.3 L-5.85 0.2 -6.1 -0.35 -6.0 -0.85 -5.5 -1.05 Q-5.15 -1.05 -4.9 -0.85 L-4.6 -0.3 Q-4.55 -0.05 -4.65 0.1 -2.6 1.45 1.0 0.55 M-5.65 0.3 L-5.3 0.4 Q-4.95 0.4 -4.75 0.2 L-4.65 0.1 M-9.25 3.8 L-11.1 11.35 -9.4 14.1 -6.7 12.8 -5.65 0.3" fill="none" stroke="#2d3440" stroke-linecap="round" stroke-linejoin="round" stroke-width="0.05"/>
  </g>
</svg>
