<?xml version="1.0" encoding="UTF-8" standalone="no"?>
<svg xmlns:xlink="http://www.w3.org/1999/xlink" height="16.9px" width="14.35px" xmlns="http://www.w3.org/2000/svg">
  <g transform="matrix(1.0, 0.0, 0.0, 1.0, 6.65, 4.25)">
    <path d="M-4.15 10.35 L-4.0 7.35 -1.4 4.5 Q-1.8 3.6 -2.25 3.05 -3.4 1.6 -4.8 2.0 L-6.65 6.75 -4.1 10.45 -4.15 10.35" fill="#87868a" fill-rule="evenodd" stroke="none"/>
    <path d="M-4.15 10.35 L-4.1 10.45 -6.65 6.75 -4.8 2.0 Q-3.4 1.6 -2.25 3.05 -1.8 3.6 -1.4 4.5 L-4.0 7.35 -4.15 10.35 Z" fill="none" stroke="#000000" stroke-linecap="round" stroke-linejoin="round" stroke-width="0.05"/>
    <path d="M5.6 -3.8 Q7.6 -3.3 7.7 -2.75 7.85 -1.95 7.05 -1.1 6.2 0.0 4.15 0.35 L1.75 0.55 Q2.1 0.25 4.05 -0.8 L4.1 -0.8 Q6.0 -1.85 5.6 -3.8 M-4.6 -0.6 Q-4.9 -2.65 -2.9 -2.85 L-3.2 -2.6 Q-4.65 -2.5 -4.4 -1.05 L-4.6 -0.6 M6.15 -3.05 Q6.35 -1.6 5.0 -0.75 8.5 -2.15 6.15 -3.05" fill="#547f5a" fill-rule="evenodd" stroke="none"/>
    <path d="M6.15 -3.05 Q8.5 -2.15 5.0 -0.75 6.35 -1.6 6.15 -3.05 M-3.2 -2.6 L-3.65 -2.1 -4.4 -1.05 Q-4.65 -2.5 -3.2 -2.6" fill="#97cc77" fill-rule="evenodd" stroke="none"/>
    <path d="M5.6 -3.8 Q6.0 -1.85 4.1 -0.8 L4.05 -0.8 Q2.1 0.25 1.75 0.55 L4.15 0.35 Q6.2 0.0 7.05 -1.1 L6.4 2.2 Q5.45 3.3 4.3 4.05 L2.45 5.1 2.25 5.15 0.3 9.5 -2.35 8.85 -3.35 5.15 Q-4.6 3.65 -4.7 2.9 L-4.75 0.1 -4.6 -0.6 -4.4 -1.05 -3.65 -2.1 -3.2 -2.6 -2.9 -2.85 -2.65 -3.0 Q-1.55 -3.7 0.4 -4.1 L3.9 -4.25 5.6 -3.8 M-1.1 2.3 L0.55 2.35 Q1.05 1.7 0.95 0.95 L1.75 0.55 0.95 0.95 -1.1 2.3 -1.1 2.35 -1.1 2.95 -2.6 3.8 Q-3.25 3.3 -3.85 2.85 L-3.75 2.4 -3.85 2.85 Q-3.25 3.3 -2.6 3.8 L-1.1 2.95 -1.1 2.35 -1.1 2.3 M-4.6 0.45 L-4.55 1.75 -3.75 2.4 -4.6 0.45 -4.75 0.1 -4.6 0.45 M-1.15 2.35 L-1.1 2.35 -1.15 2.35 M2.25 5.15 Q0.1 6.0 -2.6 6.0 L-3.35 5.15 -2.6 6.0 Q0.1 6.0 2.25 5.15" fill="#7c4745" fill-rule="evenodd" stroke="none"/>
    <path d="M0.95 0.95 Q1.05 1.7 0.55 2.35 L-1.1 2.3 0.95 0.95 M-3.75 2.4 L-4.55 1.75 -4.6 0.45 -3.75 2.4" fill="#8f93df" fill-rule="evenodd" stroke="none"/>
    <path d="M7.05 -1.1 Q7.85 -1.95 7.7 -2.75 7.6 -3.3 5.6 -3.8 L3.9 -4.25 0.4 -4.1 Q-1.55 -3.7 -2.65 -3.0 L-2.9 -2.85 Q-4.9 -2.65 -4.6 -0.6 L-4.75 0.1 -4.7 2.9 Q-4.6 3.65 -3.35 5.15 L-2.6 6.0 Q0.1 6.0 2.25 5.15 L0.3 9.5 -2.35 8.85 -3.35 5.15 M4.1 -0.8 L4.05 -0.8 M1.75 0.55 L4.15 0.35 Q6.2 0.0 7.05 -1.1 L6.4 2.2 Q5.45 3.3 4.3 4.05 L2.45 5.1 2.25 5.15 M-1.1 2.3 L-1.1 2.35 -1.1 2.95 -2.6 3.8 Q-3.25 3.3 -3.85 2.85 L-3.75 2.4 -4.6 0.45 -4.75 0.1 M1.75 0.55 L0.95 0.95 -1.1 2.3 M-1.1 2.35 L-1.15 2.35" fill="none" stroke="#000000" stroke-linecap="round" stroke-linejoin="round" stroke-width="0.05"/>
    <path d="M-2.9 -1.5 L-1.8 -1.35 -1.45 -0.5 -2.0 -0.05 -2.95 -0.25 -3.2 -1.0 -2.9 -1.5 M-3.15 -0.05 Q-3.45 0.15 -3.2 0.85 L-3.9 -0.05 -3.4 -0.8 -3.15 -0.05 M-1.75 0.25 L-1.2 -0.25 -0.95 0.35 -1.65 1.1 Q-1.45 0.55 -1.75 0.25" fill="#d3d301" fill-rule="evenodd" stroke="none"/>
    <path d="M0.25 12.5 L1.0 9.05 -1.1 4.95 Q-0.35 4.1 0.35 3.6 L2.6 8.95 0.25 12.5" fill="#a9a9ab" fill-rule="evenodd" stroke="none"/>
    <path d="M0.35 3.6 Q2.1 2.25 3.6 3.2 L4.3 9.2 0.2 12.65 0.25 12.5 2.6 8.95 0.35 3.6" fill="#87868a" fill-rule="evenodd" stroke="none"/>
    <path d="M0.35 3.6 Q2.1 2.25 3.6 3.2 L4.3 9.2 0.2 12.65 0.25 12.5 1.0 9.05 -1.1 4.95 Q-0.35 4.1 0.35 3.6 Z" fill="none" stroke="#000000" stroke-linecap="round" stroke-linejoin="round" stroke-width="0.05"/>
  </g>
</svg>
