<?xml version="1.0" encoding="UTF-8" standalone="no"?>
<svg xmlns:xlink="http://www.w3.org/1999/xlink" height="13.8px" width="17.45px" xmlns="http://www.w3.org/2000/svg">
  <g transform="matrix(1.0, 0.0, 0.0, 1.0, 8.2, 7.7)">
    <path d="M-8.2 6.1 Q-5.6 -2.15 -1.85 -5.15 -0.7 -6.45 2.8 -6.95 L8.05 -7.7 8.05 -7.65 Q9.85 -2.6 8.95 3.1 6.5 2.25 7.25 -1.55 8.05 -5.45 7.2 -7.05 2.25 -5.6 -1.4 -5.15 -1.3 -4.2 -7.55 5.75 L-8.2 6.1 M-1.85 -5.15 L-1.4 -5.15 -1.85 -5.15 M7.2 -7.05 L8.05 -7.7 7.2 -7.05" fill="#321d1d" fill-rule="evenodd" stroke="none"/>
    <path d="M8.95 3.1 Q6.5 2.25 7.25 -1.55 8.05 -5.45 7.2 -7.05 2.25 -5.6 -1.4 -5.15 -1.3 -4.2 -7.55 5.75 L-8.2 6.1 M8.05 -7.7 L7.2 -7.05 M-1.4 -5.15 L-1.85 -5.15" fill="none" stroke="#7c4745" stroke-linecap="round" stroke-linejoin="round" stroke-width="0.05"/>
  </g>
</svg>
