<?xml version="1.0" encoding="UTF-8" standalone="no"?>
<svg xmlns:xlink="http://www.w3.org/1999/xlink" height="15.8px" width="15.45px" xmlns="http://www.w3.org/2000/svg">
  <g transform="matrix(1.0, 0.0, 0.0, 1.0, 6.7, 4.45)">
    <path d="M-0.7 0.3 Q0.95 7.55 -1.15 11.35 L-2.8 10.75 -5.55 8.85 -5.55 4.4 -0.7 0.3" fill="#4b5f4b" fill-rule="evenodd" stroke="none"/>
    <path d="M-0.7 0.3 Q2.25 0.1 5.0 2.7 L4.6 8.7 Q2.9 10.45 1.35 11.25 L-0.45 11.35 -1.15 11.35 Q0.95 7.55 -0.7 0.3" fill="#394639" fill-rule="evenodd" stroke="none"/>
    <path d="M-1.15 11.35 L-0.45 11.35 1.35 11.25 Q2.9 10.45 4.6 8.7 L5.0 2.7 Q2.25 0.1 -0.7 0.3 L-5.55 4.4 -5.55 8.85 -2.8 10.75 -1.15 11.35 Z" fill="none" stroke="#301820" stroke-linecap="round" stroke-linejoin="round" stroke-width="0.05"/>
    <path d="M4.85 -3.25 L4.85 -2.65 4.85 -3.25 6.1 -2.3 6.4 -1.65 5.95 -1.8 6.4 -1.65 6.4 -1.6 6.5 0.1 6.4 -1.6 7.5 0.45 6.4 -1.6 Q8.55 0.1 8.75 1.85 L8.75 2.7 Q8.65 3.6 7.2 4.15 7.8 3.15 7.75 2.05 L7.75 1.15 7.5 0.45 Q8.25 0.9 8.75 1.85 8.25 0.9 7.5 0.45 L7.75 1.15 7.75 2.05 Q7.8 3.15 7.2 4.15 L6.8 4.65 6.3 4.1 Q5.95 4.15 5.75 4.35 L5.2 4.4 5.15 4.4 5.1 4.4 3.2 4.3 2.45 4.25 2.4 4.25 Q1.55 3.85 1.15 3.15 -1.1 1.35 -0.9 0.95 -0.35 0.05 0.55 -0.25 L0.85 -0.35 0.55 -0.25 -1.3 -2.0 -1.2 -2.05 -0.35 -2.4 -0.3 -2.4 5.15 -2.15 5.3 -2.1 6.05 -0.95 5.3 -2.1 5.95 -1.8 4.85 -2.65 Q1.35 -3.3 -1.55 -2.75 L-1.6 -2.7 -3.35 -3.85 -2.7 -4.15 -1.75 -4.45 3.85 -4.05 4.85 -3.25 M2.4 1.35 L0.85 -0.4 0.85 -0.35 Q-0.05 0.15 -0.5 0.95 -0.2 2.0 1.15 3.15 1.45 2.35 2.1 1.7 L2.4 1.35 5.35 1.5 2.4 1.35 M6.5 0.1 L5.35 1.5 5.65 1.85 6.3 2.95 7.15 2.35 7.45 1.9 Q7.3 0.85 6.5 0.1 7.2 0.4 7.75 1.15 7.2 0.4 6.5 0.1 M0.5 -1.4 L-0.3 -2.4 0.5 -1.4 M5.15 0.7 Q5.0 0.35 5.55 0.15 5.0 0.35 5.15 0.7 M5.65 1.85 L2.1 1.75 2.1 1.7 2.1 1.75 5.65 1.85 M2.7 0.2 L3.3 0.85 2.7 0.2 M7.15 2.35 L7.75 2.05 7.15 2.35 M6.3 2.95 Q6.0 3.85 5.2 4.4 6.0 3.85 6.3 2.95" fill="#7b5992" fill-rule="evenodd" stroke="none"/>
    <path d="M1.15 3.15 Q-0.2 2.0 -0.5 0.95 -0.05 0.15 0.85 -0.35 L0.85 -0.4 2.4 1.35 2.1 1.7 Q1.45 2.35 1.15 3.15 M5.35 1.5 L6.5 0.1 Q7.3 0.85 7.45 1.9 L7.15 2.35 6.3 2.95 5.65 1.85 5.35 1.5" fill="#d3d301" fill-rule="evenodd" stroke="none"/>
    <path d="M-2.7 -4.15 L-3.35 -3.85 -1.6 -2.7 -1.55 -2.75 Q1.35 -3.3 4.85 -2.65 L5.95 -1.8 5.3 -2.1 5.15 -2.15 -0.3 -2.4 -0.35 -2.4 -1.2 -2.05 -1.3 -2.0 Q-2.45 -1.3 -2.95 -0.4 L-1.35 0.85 -2.95 -0.4 Q-2.45 -1.3 -1.3 -2.0 L0.55 -0.25 Q-0.35 0.05 -0.9 0.95 -1.1 1.35 1.15 3.15 1.55 3.85 2.4 4.25 L2.45 4.25 2.05 4.5 0.95 4.05 0.3 3.9 -0.65 4.05 -3.0 3.6 Q-4.7 2.9 -5.6 1.45 -6.55 0.0 -6.7 -2.1 L-6.7 -2.15 -6.6 -2.25 -5.7 -3.4 Q-4.3 -4.05 -2.7 -4.15 M4.4 5.2 L3.45 5.15 3.2 4.3 5.1 4.4 4.4 5.2 M-3.35 -3.85 Q-4.9 -3.2 -5.2 -2.05 L-6.7 -2.15 -5.2 -2.05 Q-4.9 -3.2 -3.35 -3.85 M-2.95 0.2 Q-4.3 -1.5 -5.2 -2.05 -4.3 -1.5 -2.95 0.2 -2.4 2.45 -0.65 4.05 -2.4 2.45 -2.95 0.2 -4.9 0.3 -5.6 1.45 -4.9 0.3 -2.95 0.2 M-3.2 -0.55 L-1.6 -2.7 -3.2 -0.55" fill="#382f4c" fill-rule="evenodd" stroke="none"/>
    <path d="M5.85 6.4 L5.3 6.7 Q4.7 6.25 4.4 5.25 L4.4 5.2 5.1 4.4 5.15 4.4 5.2 4.4 5.2 5.0 5.65 5.3 5.85 6.4" fill="#0a0a0a" fill-rule="evenodd" stroke="none"/>
    <path d="M6.8 4.65 L6.85 4.65 Q6.45 6.1 5.85 6.4 L5.65 5.3 5.2 5.0 5.2 4.4 5.75 4.35 Q5.95 4.15 6.3 4.1 L6.8 4.65 M3.45 5.15 L2.7 5.75 2.7 6.55 Q1.75 6.0 1.2 5.3 L0.95 4.05 2.05 4.5 2.45 4.25 3.2 4.3 3.45 5.15" fill="#a9abad" fill-rule="evenodd" stroke="none"/>
    <path d="M2.7 6.55 L2.45 6.75 Q1.1 6.3 0.45 5.65 L-0.65 4.05 0.3 3.9 0.95 4.05 1.2 5.3 Q1.75 6.0 2.7 6.55" fill="#6f7375" fill-rule="evenodd" stroke="none"/>
    <path d="M4.85 -2.65 L4.85 -3.25 3.85 -4.05 -1.75 -4.45 -2.7 -4.15 -3.35 -3.85 -1.6 -2.7 -1.55 -2.75 Q1.35 -3.3 4.85 -2.65 L5.95 -1.8 6.4 -1.65 6.1 -2.3 4.85 -3.25 M0.85 -0.35 L0.55 -0.25 Q-0.35 0.05 -0.9 0.95 -1.1 1.35 1.15 3.15 -0.2 2.0 -0.5 0.95 -0.05 0.15 0.85 -0.35 L0.85 -0.4 2.4 1.35 5.35 1.5 6.5 0.1 6.4 -1.6 6.4 -1.65 M5.3 -2.1 L6.05 -0.95 M5.3 -2.1 L5.15 -2.15 -0.3 -2.4 0.5 -1.4 M5.95 -1.8 L5.3 -2.1 M7.2 4.15 Q8.65 3.6 8.75 2.7 L8.75 1.85 Q8.25 0.9 7.5 0.45 L7.75 1.15 7.75 2.05 Q7.8 3.15 7.2 4.15 L6.8 4.65 6.85 4.65 Q6.45 6.1 5.85 6.4 L5.3 6.7 Q4.7 6.25 4.4 5.25 L4.4 5.2 3.45 5.15 2.7 5.75 2.7 6.55 2.45 6.75 Q1.1 6.3 0.45 5.65 L-0.65 4.05 -3.0 3.6 Q-4.7 2.9 -5.6 1.45 -6.55 0.0 -6.7 -2.1 L-6.7 -2.15 -6.6 -2.25 -5.7 -3.4 Q-4.3 -4.05 -2.7 -4.15 M5.65 1.85 L5.35 1.5 M5.55 0.15 Q5.0 0.35 5.15 0.7 M5.65 1.85 L6.3 2.95 7.15 2.35 7.45 1.9 Q7.3 0.85 6.5 0.1 7.2 0.4 7.75 1.15 M5.2 4.4 L5.15 4.4 5.1 4.4 4.4 5.2 M5.2 4.4 L5.75 4.35 Q5.95 4.15 6.3 4.1 L6.8 4.65 M5.2 4.4 Q6.0 3.85 6.3 2.95 M7.75 2.05 L7.15 2.35 M3.3 0.85 L2.7 0.2 M2.1 1.7 L2.1 1.75 5.65 1.85 M2.4 1.35 L2.1 1.7 Q1.45 2.35 1.15 3.15 1.55 3.85 2.4 4.25 L2.45 4.25 3.2 4.3 3.45 5.15 M-0.65 4.05 L0.3 3.9 0.95 4.05 2.05 4.5 2.45 4.25 M7.5 0.45 L6.4 -1.6 Q8.55 0.1 8.75 1.85 M-6.7 -2.15 L-5.2 -2.05 Q-4.9 -3.2 -3.35 -3.85 M-1.3 -2.0 L-1.2 -2.05 -0.35 -2.4 -0.3 -2.4 M-1.3 -2.0 Q-2.45 -1.3 -2.95 -0.4 L-1.35 0.85 M-1.6 -2.7 L-3.2 -0.55 M-0.65 4.05 Q-2.4 2.45 -2.95 0.2 -4.9 0.3 -5.6 1.45 M-5.2 -2.05 Q-4.3 -1.5 -2.95 0.2" fill="none" stroke="#000000" stroke-linecap="round" stroke-linejoin="round" stroke-width="0.05"/>
    <path d="M4.6 2.25 L3.6 2.25 3.3 2.75 3.65 3.1 4.55 3.0 4.85 2.6 4.6 2.25 M3.3 3.8 Q3.2 3.4 3.45 3.25 L3.0 2.9 2.75 3.3 3.3 3.8 M4.7 3.75 L5.35 3.25 5.0 2.7 4.7 3.2 Q5.0 3.3 4.7 3.75" fill="#d3d301" fill-rule="evenodd" stroke="none"/>
  </g>
</svg>
