<?xml version="1.0" encoding="UTF-8" standalone="no"?>
<svg xmlns:xlink="http://www.w3.org/1999/xlink" height="30.95px" width="13.0px" xmlns="http://www.w3.org/2000/svg">
  <g transform="matrix(1.0, 0.0, 0.0, 1.0, 6.7, 29.2)">
    <path d="M2.35 -28.8 L-1.4 -26.55 -4.6 -24.45 Q-5.0 -24.55 -4.15 -27.75 L-4.15 -27.8 Q-3.5 -28.65 -2.45 -29.15 L-2.2 -29.2 2.35 -28.8" fill="#404040" fill-rule="evenodd" stroke="none"/>
    <path d="M-4.15 -27.75 L-4.2 -27.75 -4.15 -27.8 -4.15 -27.75" fill="#85699f" fill-rule="evenodd" stroke="none"/>
    <path d="M-3.45 -15.55 L-3.25 -24.0 2.75 -28.05 5.15 -23.7 2.6 -21.2 -3.45 -15.55" fill="#5a7058" fill-rule="evenodd" stroke="none"/>
    <path d="M2.35 -28.8 L2.75 -28.05 -3.25 -24.0 -3.45 -15.55 -4.25 -14.85 -4.65 -20.15 -6.6 -23.85 -4.2 -27.75 -4.15 -27.75 Q-5.0 -24.55 -4.6 -24.45 L-1.4 -26.55 2.35 -28.8 M1.95 -17.7 L5.6 -17.7 1.85 -16.6 1.95 -17.7 M1.85 -13.75 L4.85 -13.75 1.95 -12.65 1.05 -12.95 1.7 -13.75 1.85 -13.75" fill="#6f8b6d" fill-rule="evenodd" stroke="none"/>
    <path d="M-4.25 -14.85 L-3.45 -15.55 2.6 -21.2 1.95 -17.7 1.85 -16.6 1.85 -13.75 1.7 -13.75 1.05 -12.95 1.95 -12.65 Q2.1 -11.85 2.9 -9.8 3.65 -7.85 6.3 -5.5 L1.5 1.75 Q-0.3 0.3 -4.4 -1.95 L-6.7 -2.7 Q-4.1 -3.7 -3.0 -7.2 -2.85 -10.95 -4.25 -14.85" fill="#4a5a49" fill-rule="evenodd" stroke="none"/>
    <path d="M2.75 -28.05 L2.35 -28.8 -1.4 -26.55 -4.6 -24.45 Q-5.0 -24.55 -4.15 -27.75 L-4.15 -27.8 Q-3.5 -28.65 -2.45 -29.15 L-2.2 -29.2 2.35 -28.8 M-4.2 -27.75 L-6.6 -23.85 -4.65 -20.15 -4.25 -14.85 -3.45 -15.55 2.6 -21.2 1.95 -17.7 1.85 -16.6 1.85 -13.75 M2.75 -28.05 L5.15 -23.7 2.6 -21.2 M1.95 -12.65 Q2.1 -11.85 2.9 -9.8 3.65 -7.85 6.3 -5.5 L1.5 1.75 Q-0.3 0.3 -4.4 -1.95 L-6.7 -2.7 Q-4.1 -3.7 -3.0 -7.2 -2.85 -10.95 -4.25 -14.85 M1.7 -13.75 L1.05 -12.95 M-4.2 -27.75 L-4.15 -27.8" fill="none" stroke="#000000" stroke-linecap="round" stroke-linejoin="round" stroke-width="0.05"/>
    <path d="M1.95 -17.7 L5.6 -17.7 1.85 -16.6 M1.85 -13.75 L4.85 -13.75 1.95 -12.65 1.05 -12.95 M1.85 -13.75 L1.7 -13.75" fill="none" stroke="#000000" stroke-linecap="round" stroke-linejoin="round" stroke-width="0.05"/>
  </g>
</svg>
