<?xml version="1.0" encoding="UTF-8" standalone="no"?>
<svg xmlns:xlink="http://www.w3.org/1999/xlink" height="11.6px" width="11.7px" xmlns="http://www.w3.org/2000/svg">
  <g transform="matrix(1.0, 0.0, 0.0, 1.0, 7.2, 4.45)">
    <path d="M-0.45 -2.45 Q-2.8 -2.8 -4.2 -0.1 L-4.7 2.15 -4.25 2.75 -7.2 3.35 -4.85 1.0 -4.9 0.85 -5.05 -1.25 -5.0 -1.8 -4.95 -2.15 -4.6 -3.8 -3.4 -4.45 Q-2.65 -4.5 -0.45 -2.45 M2.4 0.95 L2.2 0.45 1.3 -0.65 4.5 0.25 2.4 0.95 M-4.7 2.15 L-4.85 1.0 -4.7 2.15" fill="#364336" fill-rule="evenodd" stroke="none"/>
    <path d="M-0.45 -2.45 L0.15 -1.9 0.6 -1.4 1.1 -0.9 1.3 -0.65 2.2 0.45 2.4 0.95 Q3.7 4.1 3.9 6.15 L2.85 6.4 1.3 3.1 -0.2 3.6 1.35 6.75 -0.25 7.15 Q-2.05 5.6 -4.25 2.75 L-4.7 2.15 -4.2 -0.1 Q-2.8 -2.8 -0.45 -2.45" fill="#4a5a49" fill-rule="evenodd" stroke="none"/>
    <path d="M1.3 -0.65 L1.1 -0.9 0.6 -1.4 0.15 -1.9 -0.45 -2.45 Q-2.65 -4.5 -3.4 -4.45 L-4.6 -3.8 -4.95 -2.15 -5.0 -1.8 -5.05 -1.25 -4.9 0.85 -4.85 1.0 -4.7 2.15 -4.25 2.75 Q-2.05 5.6 -0.25 7.15 L1.35 6.75 -0.2 3.6 1.3 3.1 2.85 6.4 3.9 6.15 Q3.7 4.1 2.4 0.95 L2.2 0.45 1.3 -0.65 4.5 0.25 2.4 0.95 M-4.2 -0.1 L-4.7 2.15 M-4.85 1.0 L-7.2 3.35 -4.25 2.75" fill="none" stroke="#000000" stroke-linecap="round" stroke-linejoin="round" stroke-width="0.05"/>
  </g>
</svg>
