<?xml version="1.0" encoding="UTF-8" standalone="no"?>
<svg xmlns:xlink="http://www.w3.org/1999/xlink" height="30.85px" width="10.3px" xmlns="http://www.w3.org/2000/svg">
  <g transform="matrix(1.0, 0.0, 0.0, 1.0, 6.6, 29.2)">
    <path d="M-4.15 -27.8 Q-3.5 -28.65 -2.45 -29.15 L-2.2 -29.2 0.3 -28.85 Q-0.9 -24.2 -2.1 -24.35 -4.0 -24.4 -4.15 -27.75 L-4.15 -27.8" fill="#404040" fill-rule="evenodd" stroke="none"/>
    <path d="M-4.2 -27.75 L-4.15 -27.8 -4.15 -27.75 -4.2 -27.75" fill="#85699f" fill-rule="evenodd" stroke="none"/>
    <path d="M-1.8 -13.1 L-1.8 -13.05 -1.85 -13.1 -1.8 -13.1" fill="#32686b" fill-rule="evenodd" stroke="none"/>
    <path d="M-4.2 -18.45 L-6.6 -23.85 -4.2 -27.75 -4.15 -27.75 Q-4.0 -24.4 -2.1 -24.35 L-1.8 -13.1 -1.85 -13.1 -4.2 -18.45" fill="#5a7058" fill-rule="evenodd" stroke="none"/>
    <path d="M0.3 -28.85 L3.7 -23.55 0.75 -17.8 -1.8 -13.1 -2.1 -24.35 Q-0.9 -24.2 0.3 -28.85" fill="#6f8b6d" fill-rule="evenodd" stroke="none"/>
    <path d="M0.75 -17.8 L0.75 -7.55 1.85 -4.4 3.1 1.65 -1.35 -2.6 -1.45 -5.45 -1.6 -8.65 -1.8 -12.5 -1.8 -13.05 -1.8 -13.1 0.75 -17.8" fill="#4a5a49" fill-rule="evenodd" stroke="none"/>
    <path d="M-1.35 -2.6 Q-2.5 -2.05 -5.75 1.25 L-5.75 -2.75 -3.55 -7.35 Q-3.35 -10.65 -4.2 -18.45 L-1.85 -13.1 -1.8 -13.05 -1.8 -12.5 -1.6 -8.65 -1.45 -5.45 -1.35 -2.6" fill="#364336" fill-rule="evenodd" stroke="none"/>
    <path d="M0.75 -17.8 L0.75 -7.55 1.85 -4.4 3.1 1.65 -1.35 -2.6 Q-2.5 -2.05 -5.75 1.25 L-5.75 -2.75 -3.55 -7.35 Q-3.35 -10.65 -4.2 -18.45 L-6.6 -23.85 -4.2 -27.75 -4.15 -27.8 Q-3.5 -28.65 -2.45 -29.15 L-2.2 -29.2 0.3 -28.85 3.7 -23.55 0.75 -17.8 -1.8 -13.1 -1.8 -13.05 -1.8 -12.5 -1.6 -8.65 -1.45 -5.45 -1.35 -2.6 M-4.15 -27.8 L-4.15 -27.75 Q-4.0 -24.4 -2.1 -24.35 -0.9 -24.2 0.3 -28.85 M-1.8 -13.05 L-1.85 -13.1 -4.2 -18.45" fill="none" stroke="#000000" stroke-linecap="round" stroke-linejoin="round" stroke-width="0.05"/>
  </g>
</svg>
