<?xml version="1.0" encoding="UTF-8" standalone="no"?>
<svg xmlns:xlink="http://www.w3.org/1999/xlink" height="23.0px" width="13.15px" xmlns="http://www.w3.org/2000/svg">
  <g transform="matrix(1.0, 0.0, 0.0, 1.0, 8.4, 0.7)">
    <path d="M-5.45 20.85 L-5.45 20.8 -5.4 20.85 -5.45 20.85" fill="#664d77" fill-rule="evenodd" stroke="none"/>
    <path d="M1.25 1.0 L1.7 0.9 Q2.05 0.9 3.95 3.4 L4.75 10.35 -1.0 19.8 -2.3 19.55 -2.5 19.55 1.9 8.8 1.25 1.0 M1.7 0.9 L2.7 9.3 -2.3 19.55 2.7 9.3 1.7 0.9" fill="#6f8b6d" fill-rule="evenodd" stroke="none"/>
    <path d="M0.25 1.3 L1.25 1.0 1.9 8.8 -2.5 19.55 -3.6 19.3 -3.65 19.35 -6.85 18.25 -5.45 5.85 -6.85 18.25 -3.65 19.35 -3.85 19.5 -5.4 20.85 -5.45 20.8 -7.5 18.05 -6.5 4.0 -6.05 3.95 -5.45 5.85 0.25 1.3" fill="#5a7058" fill-rule="evenodd" stroke="none"/>
    <path d="M-1.0 19.8 L-1.3 20.75 Q-2.3 22.05 -4.05 22.3 L-5.45 20.85 -5.4 20.85 -3.85 19.5 -3.65 19.35 -3.6 19.3 -2.5 19.55 -2.3 19.55 -1.0 19.8 M-6.05 3.95 L-8.4 3.0 -5.85 -0.7 0.25 1.3 -5.45 5.85 -6.05 3.95" fill="#2e2f2b" fill-rule="evenodd" stroke="none"/>
    <path d="M0.25 1.3 L1.25 1.0 1.7 0.9 Q2.05 0.9 3.95 3.4 L4.75 10.35 -1.0 19.8 -1.3 20.75 M-5.45 20.8 L-7.5 18.05 -6.5 4.0 -6.05 3.95 -8.4 3.0 -5.85 -0.7 0.25 1.3 -5.45 5.85 -6.05 3.95 M-3.6 19.3 L-2.5 19.55 M-5.45 20.85 L-5.4 20.85 -5.45 20.8 M-3.85 19.5 L-5.4 20.85" fill="none" stroke="#301820" stroke-linecap="round" stroke-linejoin="round" stroke-width="0.05"/>
    <path d="M-3.65 19.35 L-3.6 19.3 M-2.5 19.55 L-2.3 19.55 -1.0 19.8 M-3.65 19.35 L-3.85 19.5" fill="none" stroke="#000000" stroke-linecap="round" stroke-linejoin="round" stroke-width="0.05"/>
    <path d="M-5.45 5.85 L-6.85 18.25 -3.65 19.35 M-2.3 19.55 L2.7 9.3 1.7 0.9" fill="none" stroke="#3e483c" stroke-linecap="round" stroke-linejoin="round" stroke-width="0.05"/>
  </g>
</svg>
