<?xml version="1.0" encoding="UTF-8" standalone="no"?>
<svg xmlns:xlink="http://www.w3.org/1999/xlink" height="22.7px" width="12.9px" xmlns="http://www.w3.org/2000/svg">
  <g transform="matrix(1.0, 0.0, 0.0, 1.0, 8.4, 0.7)">
    <path d="M-6.05 3.95 L-8.4 3.0 -5.85 -0.7 0.25 1.3 -5.45 5.85 -6.05 3.95" fill="#2e2f2b" fill-rule="evenodd" stroke="none"/>
    <path d="M0.25 1.3 L-5.85 -0.7 -8.4 3.0 -6.05 3.95" fill="none" stroke="#301820" stroke-linecap="round" stroke-linejoin="round" stroke-width="0.05"/>
    <path d="M-7.05 20.3 L-6.6 7.2 -2.1 1.85 Q0.85 0.8 1.15 1.0 L1.5 1.35 -2.2 8.65 -4.6 19.25 -5.6 19.0 -6.4 18.75 -7.05 20.3 M1.15 1.0 L-3.2 8.4 -5.6 19.0 -3.2 8.4 1.15 1.0" fill="#6f8b6d" fill-rule="evenodd" stroke="none"/>
    <path d="M1.5 1.35 L4.2 4.0 4.5 10.65 -0.65 20.35 -2.3 20.95 -2.95 19.8 -4.6 19.25 -2.2 8.65 1.5 1.35" fill="#5a7058" fill-rule="evenodd" stroke="none"/>
    <path d="M-2.3 20.95 L-3.9 21.55 -5.9 22.0 Q-6.7 21.25 -7.05 20.3 L-6.4 18.75 -5.6 19.0 -4.6 19.25 -2.95 19.8 -2.3 20.95" fill="#2e2f2b" fill-rule="evenodd" stroke="none"/>
    <path d="M-5.6 19.0 L-3.2 8.4 1.15 1.0" fill="none" stroke="#3e483c" stroke-linecap="round" stroke-linejoin="round" stroke-width="0.05"/>
    <path d="M1.5 1.35 L4.2 4.0 4.5 10.65 -0.65 20.35 -2.3 20.95 -3.9 21.55 M-7.05 20.3 L-6.6 7.2 -2.1 1.85 Q0.85 0.8 1.15 1.0 L1.5 1.35 M-4.6 19.25 L-2.95 19.8 -2.3 20.95" fill="none" stroke="#301820" stroke-linecap="round" stroke-linejoin="round" stroke-width="0.05"/>
    <path d="M-7.05 20.3 L-6.4 18.75 -5.6 19.0 -4.6 19.25" fill="none" stroke="#000000" stroke-linecap="round" stroke-linejoin="round" stroke-width="0.05"/>
  </g>
</svg>
