<?xml version="1.0" encoding="UTF-8" standalone="no"?>
<svg xmlns:xlink="http://www.w3.org/1999/xlink" height="14.6px" width="9.2px" xmlns="http://www.w3.org/2000/svg">
  <g transform="matrix(1.0, 0.0, 0.0, 1.0, 4.35, 0.4)">
    <path d="M-2.95 1.35 L-2.2 -0.4 1.85 -0.25 3.05 1.6 -2.95 1.35" fill="#404040" fill-rule="evenodd" stroke="none"/>
    <path d="M3.15 1.65 L4.55 2.1 2.05 2.6 1.7 6.75 2.85 6.4 4.85 7.25 2.85 7.9 0.8 7.15 1.3 2.1 3.15 1.65 M-3.0 7.4 L-4.3 6.65 -4.3 6.6 -3.8 6.7 -3.8 2.75 -3.0 1.75 -3.0 7.4" fill="#6c5a3e" fill-rule="evenodd" stroke="none"/>
    <path d="M4.55 2.1 L4.85 2.15 4.85 7.25 2.85 6.4 1.7 6.75 2.05 2.6 4.55 2.1 M-4.3 6.6 L-4.35 2.5 -3.0 1.75 -3.8 2.75 -3.8 6.7 -4.3 6.6" fill="#7b6a46" fill-rule="evenodd" stroke="none"/>
    <path d="M-3.0 1.75 L-2.95 1.35 3.05 1.6 3.15 1.65 1.3 2.1 0.8 7.15 2.85 7.9 2.3 9.45 1.1 13.9 Q-0.2 14.7 -1.35 13.25 -0.65 9.2 -2.5 8.2 L-3.0 7.4 -3.0 1.75 M-2.5 8.2 L0.6 8.35 2.3 9.45 0.6 8.35 -2.5 8.2" fill="#4b5f4b" fill-rule="evenodd" stroke="none"/>
    <path d="M-3.0 1.75 L-2.95 1.35 -2.2 -0.4 1.85 -0.25 3.05 1.6 3.15 1.65 4.55 2.1 4.85 2.15 4.85 7.25 2.85 7.9 2.3 9.45 1.1 13.9 Q-0.2 14.7 -1.35 13.25 -0.65 9.2 -2.5 8.2 L-3.0 7.4 -4.3 6.65 -4.3 6.6 -4.35 2.5 -3.0 1.75 -3.0 7.4 M3.15 1.65 L1.3 2.1 0.8 7.15 2.85 7.9 M2.3 9.45 L0.6 8.35 -2.5 8.2 M3.05 1.6 L-2.95 1.35" fill="none" stroke="#301820" stroke-linecap="round" stroke-linejoin="round" stroke-width="0.05"/>
  </g>
</svg>
