<?xml version="1.0" encoding="UTF-8" standalone="no"?>
<svg xmlns:xlink="http://www.w3.org/1999/xlink" height="7.35px" width="6.85px" xmlns="http://www.w3.org/2000/svg">
  <g transform="matrix(1.0, 0.0, 0.0, 1.0, 3.0, -0.55)">
    <path d="M-3.0 4.3 L-0.65 4.25 0.2 4.85 0.25 4.9 1.0 5.5 3.15 7.9 -0.55 7.25 -3.0 4.3 M-0.3 5.75 Q-0.6 6.25 -0.55 7.25 -0.6 6.25 -0.3 5.75" fill="#394639" fill-rule="evenodd" stroke="none"/>
    <path d="M-3.0 4.3 L-1.7 0.65 1.5 0.55 Q2.95 0.35 3.85 2.4 L3.7 7.0 3.25 7.45 3.2 7.9 3.15 7.9 1.0 5.5 0.25 4.9 0.2 4.85 -0.65 4.25 -3.0 4.3" fill="#4b5f4b" fill-rule="evenodd" stroke="none"/>
    <path d="M3.15 7.9 L3.2 7.9 3.25 7.45 3.7 7.0 3.85 2.4 Q2.95 0.35 1.5 0.55 L-1.7 0.65 -3.0 4.3 -0.55 7.25 Q-0.6 6.25 -0.3 5.75 M3.15 7.9 L-0.55 7.25" fill="none" stroke="#301820" stroke-linecap="round" stroke-linejoin="round" stroke-width="0.05"/>
  </g>
</svg>
