<?xml version="1.0" encoding="UTF-8" standalone="no"?>
<svg xmlns:xlink="http://www.w3.org/1999/xlink" height="39.85px" width="29.35px" xmlns="http://www.w3.org/2000/svg">
  <g transform="matrix(1.0, 0.0, 0.0, 1.0, 16.9, 21.7)">
    <path d="M3.15 -14.75 L3.45 -15.5 8.95 -20.85 Q9.3 -21.2 10.25 -20.2 L10.35 -20.1 4.35 -14.65 3.9 -14.25 3.15 -14.75 M3.45 -15.5 L4.35 -14.65 3.45 -15.5" fill="#7b6a46" fill-rule="evenodd" stroke="none"/>
    <path d="M10.35 -20.1 Q10.95 -19.35 10.65 -18.75 L5.2 -13.4 4.35 -13.2 Q3.5 -13.8 3.15 -14.75 L3.9 -14.25 4.35 -14.65 5.2 -13.4 4.35 -14.65 10.35 -20.1 M4.35 -13.2 L3.9 -14.25 4.35 -13.2" fill="#6c5a3e" fill-rule="evenodd" stroke="none"/>
    <path d="M3.15 -14.75 L3.45 -15.5 8.95 -20.85 Q9.3 -21.2 10.25 -20.2 L10.35 -20.1 Q10.95 -19.35 10.65 -18.75 L5.2 -13.4 4.35 -13.2 Q3.5 -13.8 3.15 -14.75 L3.9 -14.25 4.35 -13.2 M4.35 -14.65 L3.45 -15.5 M5.2 -13.4 L4.35 -14.65" fill="none" stroke="#301820" stroke-linecap="round" stroke-linejoin="round" stroke-width="0.05"/>
    <path d="M-9.7 -15.8 L-9.95 -16.5 -15.2 -21.6 Q-15.55 -22.0 -16.45 -21.0 -17.15 -20.25 -16.8 -19.6 L-11.6 -14.55 -10.85 -14.35 Q-10.65 -15.35 -9.7 -15.8 -10.0 -14.9 -10.85 -14.35 -10.0 -14.9 -9.7 -15.8" fill="#7b6a46" fill-rule="evenodd" stroke="none"/>
    <path d="M-9.7 -15.8 L-9.95 -16.5 Q-10.95 -15.75 -11.6 -14.55 L-10.85 -14.35 Q-10.65 -15.35 -9.7 -15.8 -10.0 -14.9 -10.85 -14.35 M-9.95 -16.5 L-15.2 -21.6 Q-15.55 -22.0 -16.45 -21.0 -17.15 -20.25 -16.8 -19.6 L-11.6 -14.55" fill="none" stroke="#301820" stroke-linecap="round" stroke-linejoin="round" stroke-width="0.05"/>
    <path d="M2.5 -8.75 L1.4 -8.8 -10.2 -9.3 -11.3 -9.35 -10.4 -12.4 -10.35 -12.55 Q-10.45 -13.7 -10.2 -14.35 L-10.4 -14.5 -10.6 -14.85 -10.45 -15.15 -10.15 -15.3 -9.8 -15.15 -9.75 -15.05 -9.2 -15.35 -8.65 -16.55 -8.3 -16.55 Q-8.15 -17.5 -7.4 -17.85 L-6.6 -16.75 -2.0 -16.7 Q-1.65 -17.5 -0.65 -17.85 0.05 -17.45 0.45 -16.45 L0.95 -16.35 1.55 -15.5 -0.7 -14.4 Q1.45 -11.4 2.5 -8.75 M1.9 -14.9 L1.95 -14.95 2.8 -14.65 3.0 -14.45 3.15 -14.45 3.7 -14.25 3.85 -14.05 Q3.15 -13.6 2.5 -13.8 2.2 -13.3 1.75 -13.7 L1.7 -14.2 Q1.65 -14.8 1.9 -14.9 M3.0 -14.45 L2.7 -14.3 2.5 -14.05 2.5 -13.85 2.5 -13.8 2.5 -13.85 2.5 -14.05 2.7 -14.3 3.0 -14.45 M-0.6 -12.7 L1.4 -8.8 -0.6 -12.7 -8.9 -12.95 -0.6 -12.7 -1.45 -14.1 Q-4.9 -14.55 -8.15 -14.25 L-8.9 -12.95 Q-9.8 -11.25 -10.2 -9.3 -9.8 -11.25 -8.9 -12.95 L-8.15 -14.25 Q-4.9 -14.55 -1.45 -14.1 L-0.6 -12.7 M0.45 -16.45 L-2.0 -16.7 0.45 -16.45 M-10.2 -14.35 L-9.75 -15.05 -10.2 -14.35 M-10.35 -12.55 L-9.2 -15.35 -10.35 -12.55 M-6.6 -16.75 L-8.3 -16.55 -6.6 -16.75" fill="#7b6a46" fill-rule="evenodd" stroke="none"/>
    <path d="M1.55 -15.5 L1.9 -14.9 Q1.65 -14.8 1.7 -14.2 L1.75 -13.7 2.1 -12.9 Q2.45 -12.15 2.95 -11.7 3.45 -11.25 3.75 -11.4 L4.0 -11.6 3.75 -11.4 Q3.45 -11.25 2.95 -11.7 2.45 -12.15 2.1 -12.9 L1.75 -13.7 Q2.2 -13.3 2.5 -13.8 L2.7 -13.4 3.0 -13.25 3.25 -13.2 3.7 -13.4 4.1 -12.15 4.0 -11.6 5.65 -8.6 2.5 -8.75 Q1.45 -11.4 -0.7 -14.4 L1.55 -15.5 M3.85 -14.05 L3.95 -13.8 3.7 -13.4 3.25 -13.2 3.0 -13.25 2.7 -13.4 2.5 -13.8 Q3.15 -13.6 3.85 -14.05" fill="#6c5a3e" fill-rule="evenodd" stroke="none"/>
    <path d="M2.5 -8.75 L1.4 -8.8 -10.2 -9.3 -11.3 -9.35 -10.4 -12.4 -10.35 -12.55 Q-10.45 -13.7 -10.2 -14.35 L-10.4 -14.5 -10.6 -14.85 -10.45 -15.15 -10.15 -15.3 -9.8 -15.15 -9.75 -15.05 -9.2 -15.35 -8.65 -16.55 -8.3 -16.55 Q-8.15 -17.5 -7.4 -17.85 L-6.6 -16.75 -2.0 -16.7 Q-1.65 -17.5 -0.65 -17.85 0.05 -17.45 0.45 -16.45 L0.95 -16.35 1.55 -15.5 1.9 -14.9 1.95 -14.95 2.8 -14.65 3.0 -14.45 3.15 -14.45 3.7 -14.25 3.85 -14.05 3.95 -13.8 3.7 -13.4 4.1 -12.15 4.0 -11.6 5.65 -8.6 8.6 -8.5 M1.75 -13.7 L1.7 -14.2 Q1.65 -14.8 1.9 -14.9 M4.0 -11.6 L3.75 -11.4 Q3.45 -11.25 2.95 -11.7 2.45 -12.15 2.1 -12.9 L1.75 -13.7 M2.5 -13.8 L2.5 -13.85 2.5 -14.05 2.7 -14.3 3.0 -14.45 M2.5 -13.8 L2.7 -13.4 3.0 -13.25 3.25 -13.2 3.7 -13.4 M2.5 -8.75 L5.65 -8.6 M-8.9 -12.95 L-0.6 -12.7 -1.45 -14.1 Q-4.9 -14.55 -8.15 -14.25 L-8.9 -12.95 Q-9.8 -11.25 -10.2 -9.3 M-8.3 -16.55 L-6.6 -16.75 M-9.2 -15.35 L-10.35 -12.55 M-9.75 -15.05 L-10.2 -14.35 M-2.0 -16.7 L0.45 -16.45 M1.4 -8.8 L-0.6 -12.7" fill="none" stroke="#301820" stroke-linecap="round" stroke-linejoin="round" stroke-width="0.05"/>
    <path d="M1.35 8.2 Q-0.35 8.95 -0.95 10.25 L-5.95 10.2 -8.25 7.55 -7.6 5.25 -6.9 5.25 -0.45 5.25 1.35 8.2" fill="#6f8b6d" fill-rule="evenodd" stroke="none"/>
    <path d="M10.7 7.8 L10.75 7.85 6.75 10.65 5.4 10.15 2.7 9.25 1.8 8.9 1.35 8.2 -0.45 5.25 -6.9 5.25 -7.6 5.25 -8.35 5.2 -9.6 8.45 -9.75 8.85 -9.9 9.15 -12.8 6.35 -11.5 2.9 -12.75 1.7 -15.15 0.85 Q-15.05 -6.05 -13.25 -9.65 L-10.55 -10.1 5.45 -9.55 8.55 -8.75 9.0 -8.45 Q6.6 -6.05 7.7 1.35 L5.1 1.55 4.25 2.6 3.15 0.95 2.9 0.8 1.8 -0.1 -1.15 1.85 -7.3 1.85 -9.4 0.6 -10.15 0.9 -9.4 0.6 -7.3 1.85 -1.15 1.85 1.8 -0.1 2.9 0.8 3.15 0.95 Q2.4 -7.9 5.45 -9.55 2.4 -7.9 3.15 0.95 L4.25 2.6 6.45 6.1 10.7 7.8 M2.9 0.8 L0.0 2.5 -8.55 2.65 -10.9 1.2 -10.15 0.9 -10.9 1.2 -8.55 2.65 0.0 2.5 2.9 0.8 M-10.9 1.2 L-11.5 2.9 -10.9 1.2 M-10.15 0.9 Q-12.15 -6.9 -10.55 -10.1 -12.15 -6.9 -10.15 0.9" fill="#4b5f4b" fill-rule="evenodd" stroke="none"/>
    <path d="M5.4 10.15 Q4.1 12.5 4.1 15.45 -2.8 20.8 -6.6 15.55 -6.7 11.25 -9.75 8.85 L-9.6 8.45 -9.35 8.3 -8.3 7.6 -8.25 7.6 -8.25 7.55 -5.95 10.2 -0.95 10.25 Q-0.35 8.95 1.35 8.2 L1.8 8.9 2.7 9.25 5.4 10.15 M2.7 9.25 L0.35 11.5 -6.7 11.2 -9.35 8.3 -6.7 11.2 0.35 11.5 2.7 9.25" fill="#7b6a46" fill-rule="evenodd" stroke="none"/>
    <path d="M9.0 -8.45 Q11.85 -6.3 12.35 -2.65 12.75 0.35 11.5 6.1 L10.7 7.8 6.45 6.1 4.25 2.6 5.1 1.55 7.7 1.35 Q6.6 -6.05 9.0 -8.45 M-12.8 6.35 Q-15.3 3.8 -15.15 0.85 L-12.75 1.7 -11.5 2.9 -12.8 6.35 M11.5 6.1 Q8.7 5.45 7.7 1.35 8.7 5.45 11.5 6.1 M-8.25 7.55 L-8.25 7.6 -8.3 7.6 -9.35 8.3 -9.6 8.45 -8.35 5.2 -7.6 5.25 -8.25 7.55" fill="#394639" fill-rule="evenodd" stroke="none"/>
    <path d="M9.0 -8.45 Q11.85 -6.3 12.35 -2.65 12.75 0.35 11.5 6.1 M5.4 10.15 Q4.1 12.5 4.1 15.45 -2.8 20.8 -6.6 15.55 -6.7 11.25 -9.75 8.85 M-15.15 0.85 Q-15.05 -6.05 -13.25 -9.65 L-10.55 -10.1 5.45 -9.55 8.55 -8.75 9.0 -8.45 Q6.6 -6.05 7.7 1.35 M3.15 0.95 Q2.4 -7.9 5.45 -9.55 M-9.35 8.3 L-6.7 11.2 0.35 11.5 2.7 9.25 M1.35 8.2 Q-0.35 8.95 -0.95 10.25 L-5.95 10.2 -8.25 7.55 -8.25 7.6 -8.3 7.6 -9.35 8.3 -9.6 8.45 M-7.6 5.25 L-8.25 7.55 M-10.55 -10.1 Q-12.15 -6.9 -10.15 0.9" fill="none" stroke="#000000" stroke-linecap="round" stroke-linejoin="round" stroke-width="0.05"/>
    <path d="M11.5 6.1 L10.7 7.8 6.45 6.1 4.25 2.6 5.1 1.55 7.7 1.35 Q8.7 5.45 11.5 6.1 M10.75 7.85 L6.75 10.65 5.4 10.15 2.7 9.25 1.8 8.9 1.35 8.2 -0.45 5.25 -6.9 5.25 -7.6 5.25 -8.35 5.2 -9.6 8.45 -9.75 8.85 -9.9 9.15 -12.8 6.35 Q-15.3 3.8 -15.15 0.85 L-12.75 1.7 -11.5 2.9 -10.9 1.2 -8.55 2.65 0.0 2.5 2.9 0.8 3.15 0.95 4.25 2.6 M-10.15 0.9 L-9.4 0.6 -7.3 1.85 -1.15 1.85 1.8 -0.1 2.9 0.8 M-10.15 0.9 L-10.9 1.2 M-12.8 6.35 L-11.5 2.9" fill="none" stroke="#000000" stroke-linecap="round" stroke-linejoin="round" stroke-width="0.05"/>
  </g>
</svg>
