<?xml version="1.0" encoding="UTF-8" standalone="no"?>
<svg xmlns:xlink="http://www.w3.org/1999/xlink" height="17.85px" width="19.6px" xmlns="http://www.w3.org/2000/svg">
  <g transform="matrix(1.0, 0.0, 0.0, 1.0, 9.3, 2.25)">
    <path d="M7.85 4.9 L5.8 14.65 Q1.7 16.5 -2.85 14.8 L-5.0 7.25 -3.25 10.3 -1.4 14.15 2.6 14.1 Q3.15 8.65 7.85 4.9" fill="#2e2f2b" fill-rule="evenodd" stroke="none"/>
    <path d="M-3.25 10.3 L-3.25 10.25 -2.3 10.25 1.1 10.25 2.6 14.1 -1.4 14.15 -3.25 10.3" fill="#364336" fill-rule="evenodd" stroke="none"/>
    <path d="M-5.0 7.25 Q-6.95 4.15 -9.3 2.7 L-8.05 0.35 -7.2 -1.35 Q-0.35 -3.0 6.4 -1.65 L7.75 0.05 10.3 3.2 Q8.95 4.0 7.85 4.9 3.15 8.65 2.6 14.1 L1.1 10.25 -2.3 10.25 -3.25 10.25 -3.25 10.3 -5.0 7.25 M-8.05 0.35 L-5.7 2.25 -4.45 1.15 Q-5.1 6.3 -3.25 10.25 -5.1 6.3 -4.45 1.15 L-5.7 2.25 -8.05 0.35 M1.1 10.25 L1.3 10.25 Q-0.05 6.9 2.25 1.15 L4.0 2.35 7.75 0.05 4.0 2.35 2.25 1.15 Q-0.05 6.9 1.3 10.25 L1.1 10.25 M-4.45 1.15 L2.25 1.15 -4.45 1.15" fill="#4a5a49" fill-rule="evenodd" stroke="none"/>
    <path d="M-5.0 7.25 Q-6.95 4.15 -9.3 2.7 L-8.05 0.35 -7.2 -1.35 Q-0.35 -3.0 6.4 -1.65 L7.75 0.05 10.3 3.2 Q8.95 4.0 7.85 4.9 L5.8 14.65 Q1.7 16.5 -2.85 14.8 L-5.0 7.25 -3.25 10.3 -1.4 14.15 2.6 14.1 1.1 10.25 -2.3 10.25 -3.25 10.25 Q-5.1 6.3 -4.45 1.15 L-5.7 2.25 -8.05 0.35 M7.75 0.05 L4.0 2.35 2.25 1.15 Q-0.05 6.9 1.3 10.25 L1.1 10.25 M2.6 14.1 Q3.15 8.65 7.85 4.9 M2.25 1.15 L-4.45 1.15" fill="none" stroke="#000000" stroke-linecap="round" stroke-linejoin="round" stroke-width="0.05"/>
  </g>
</svg>
