<?xml version="1.0" encoding="UTF-8" standalone="no"?>
<svg xmlns:xlink="http://www.w3.org/1999/xlink" height="15.85px" width="16.2px" xmlns="http://www.w3.org/2000/svg">
  <g transform="matrix(1.0, 0.0, 0.0, 1.0, 7.4, 4.5)">
    <path d="M-0.7 0.3 Q0.95 7.55 -1.15 11.35 L-2.8 10.75 -5.55 8.85 -5.55 4.4 -0.7 0.3" fill="#4b5f4b" fill-rule="evenodd" stroke="none"/>
    <path d="M-0.7 0.3 Q2.25 0.1 5.0 2.7 L4.6 8.7 Q2.9 10.45 1.35 11.25 L-0.45 11.35 -1.15 11.35 Q0.95 7.55 -0.7 0.3" fill="#394639" fill-rule="evenodd" stroke="none"/>
    <path d="M-1.15 11.35 L-0.45 11.35 1.35 11.25 Q2.9 10.45 4.6 8.7 L5.0 2.7 Q2.25 0.1 -0.7 0.3 L-5.55 4.4 -5.55 8.85 -2.8 10.75 -1.15 11.35 Z" fill="none" stroke="#301820" stroke-linecap="round" stroke-linejoin="round" stroke-width="0.05"/>
    <path d="M-4.35 -0.95 L-3.75 0.65 -4.15 1.0 -5.15 1.9 -5.75 1.15 -5.85 0.65 Q-5.35 -0.35 -4.35 -0.95 M-0.95 1.1 L1.1 -0.3 Q1.75 0.4 1.9 1.3 1.25 2.25 -0.4 3.1 -0.45 2.25 -0.8 1.55 L-0.95 1.1" fill="#d3d301" fill-rule="evenodd" stroke="none"/>
    <path d="M-4.1 4.55 Q-4.8 5.5 -5.45 5.85 L-5.9 5.45 -5.3 4.4 -4.8 4.2 -4.6 3.6 -4.5 3.6 -4.1 4.55" fill="#0a0a0a" fill-rule="evenodd" stroke="none"/>
    <path d="M1.35 -0.1 L1.1 -0.3 1.35 -0.1 Q2.05 0.35 2.3 1.35 L2.3 1.4 Q2.2 1.85 -0.4 3.1 1.25 2.25 1.9 1.3 1.75 0.4 1.1 -0.3 L-0.95 1.1 -3.75 0.65 -0.95 1.1 -0.8 1.55 Q-0.45 2.25 -0.4 3.1 L-0.4 3.15 Q-1.05 3.75 -1.95 3.95 L-1.65 4.3 -0.5 4.1 -1.15 5.25 Q-1.95 5.85 -3.0 6.2 L-2.7 5.4 -3.2 4.65 -2.65 3.85 -4.5 3.6 -4.6 3.6 -4.6 3.55 Q-5.2 2.85 -5.15 1.9 L-4.15 1.0 -3.75 0.65 -4.35 -0.95 -4.0 -2.0 -2.45 -2.9 -4.0 -2.0 -4.35 -0.95 Q-5.15 -0.8 -5.9 -0.15 -5.15 -0.8 -4.35 -0.95 -5.35 -0.35 -5.85 0.65 L-5.75 1.15 -5.15 1.9 Q-5.2 2.85 -4.6 3.55 L-4.6 3.6 -5.05 3.4 -5.55 3.05 -6.2 3.5 -6.4 2.95 Q-7.6 2.1 -7.35 1.2 L-7.1 0.35 Q-6.3 -1.35 -3.65 -2.6 L-3.65 -2.65 -3.15 -3.25 -1.65 -3.95 -0.5 -4.5 4.95 -3.8 5.7 -3.3 6.25 -2.9 4.2 -2.1 4.2 -2.15 Q1.6 -3.3 -1.85 -3.35 -2.65 -3.25 -3.2 -2.75 L-2.45 -2.9 -2.3 -2.9 2.9 -2.1 2.95 -2.1 3.6 -1.55 3.7 -1.45 1.35 -0.1 M1.8 -1.25 L2.9 -2.1 1.8 -1.25 M-5.9 5.45 Q-6.4 5.0 -6.2 3.5 L-5.55 3.05 -5.05 3.4 -4.6 3.6 -4.8 4.2 -5.3 4.4 -5.9 5.45 M-5.4 -0.8 L-3.65 -2.6 -4.0 -2.0 -3.65 -2.6 -5.4 -0.8 -5.9 -0.15 -6.2 0.75 Q-6.65 1.8 -6.4 2.95 -6.65 1.8 -6.2 0.75 L-5.9 -0.15 -5.4 -0.8 Q-6.35 -0.55 -7.1 0.35 -6.35 -0.55 -5.4 -0.8 M-3.2 -2.75 L-3.65 -2.65 -3.2 -2.75 M-3.45 -0.7 Q-3.6 -0.4 -3.3 -0.05 -3.6 -0.4 -3.45 -0.7 M-1.65 -3.95 Q-1.95 -3.7 -1.85 -3.35 -1.95 -3.7 -1.65 -3.95 M-1.95 3.95 L-1.95 4.0 -2.65 3.85 -1.95 4.0 -1.95 3.95 M-1.6 0.45 Q-1.5 -0.05 -0.8 -0.1 -1.5 -0.05 -1.6 0.45 M-5.75 1.15 L-6.2 0.75 -5.75 1.15 M-4.15 1.0 L-0.8 1.55 -4.15 1.0" fill="#732424" fill-rule="evenodd" stroke="none"/>
    <path d="M1.35 -0.1 L3.7 -1.45 Q4.45 -0.5 4.65 0.45 L2.3 1.4 2.3 1.35 Q2.05 0.35 1.35 -0.1 M8.8 -0.55 Q8.4 -1.15 7.35 -0.75 7.4 -1.95 6.25 -2.9 L5.7 -3.3 Q7.15 -2.9 8.25 -2.0 L8.75 -0.65 8.8 -0.55" fill="#531a1a" fill-rule="evenodd" stroke="none"/>
    <path d="M3.7 -1.45 L3.6 -1.55 2.95 -2.1 2.9 -2.1 -2.3 -2.9 -2.45 -2.9 -3.2 -2.75 Q-2.65 -3.25 -1.85 -3.35 1.6 -3.3 4.2 -2.15 L4.2 -2.1 6.25 -2.9 Q7.4 -1.95 7.35 -0.75 8.4 -1.15 8.8 -0.55 L8.8 -0.5 Q7.9 1.55 6.55 2.75 5.2 4.0 3.4 4.4 L1.05 4.4 Q3.15 3.15 4.45 1.0 6.25 1.5 6.55 2.75 6.25 1.5 4.45 1.0 3.15 3.15 1.05 4.4 0.7 4.05 0.2 4.05 L-0.5 4.1 -1.65 4.3 -1.95 3.95 Q-1.05 3.75 -0.4 3.15 L-0.4 3.1 Q2.2 1.85 2.3 1.4 L4.65 0.45 Q4.45 -0.5 3.7 -1.45 M7.35 -0.75 Q6.45 -0.5 5.1 0.55 L4.2 -2.1 5.1 0.55 Q6.45 -0.5 7.35 -0.75 M-3.2 4.65 L-4.1 4.55 -4.5 3.6 -2.65 3.85 -3.2 4.65 M5.1 0.55 L4.45 1.0 5.1 0.55" fill="#481717" fill-rule="evenodd" stroke="none"/>
    <path d="M1.05 4.4 L-0.55 5.75 -2.8 6.45 -3.0 6.2 Q-1.95 5.85 -1.15 5.25 L-0.5 4.1 0.2 4.05 Q0.7 4.05 1.05 4.4" fill="#611f1f" fill-rule="evenodd" stroke="none"/>
    <path d="M2.9 -2.1 L1.8 -1.25 M1.1 -0.3 L1.35 -0.1 Q2.05 0.35 2.3 1.35 L2.3 1.4 4.65 0.45 Q4.45 -0.5 3.7 -1.45 L3.6 -1.55 2.95 -2.1 2.9 -2.1 -2.3 -2.9 -2.45 -2.9 -4.0 -2.0 -4.35 -0.95 -3.75 0.65 -0.95 1.1 1.1 -0.3 Q1.75 0.4 1.9 1.3 1.25 2.25 -0.4 3.1 2.2 1.85 2.3 1.4 M4.2 -2.1 L4.2 -2.15 Q1.6 -3.3 -1.85 -3.35 -2.65 -3.25 -3.2 -2.75 L-2.45 -2.9 M6.25 -2.9 Q7.4 -1.95 7.35 -0.75 8.4 -1.15 8.8 -0.55 L8.75 -0.65 8.25 -2.0 Q7.15 -2.9 5.7 -3.3 L6.25 -2.9 4.2 -2.1 5.1 0.55 Q6.45 -0.5 7.35 -0.75 M8.8 -0.55 L8.8 -0.5 Q7.9 1.55 6.55 2.75 5.2 4.0 3.4 4.4 L1.05 4.4 -0.55 5.75 -2.8 6.45 -3.0 6.2 -2.7 5.4 -3.2 4.65 -4.1 4.55 Q-4.8 5.5 -5.45 5.85 L-5.9 5.45 Q-6.4 5.0 -6.2 3.5 L-6.4 2.95 Q-7.6 2.1 -7.35 1.2 L-7.1 0.35 Q-6.3 -1.35 -3.65 -2.6 L-3.65 -2.65 -3.15 -3.25 -1.65 -3.95 -0.5 -4.5 4.95 -3.8 5.7 -3.3 M6.55 2.75 Q6.25 1.5 4.45 1.0 3.15 3.15 1.05 4.4 0.7 4.05 0.2 4.05 L-0.5 4.1 -1.65 4.3 -1.95 3.95 Q-1.05 3.75 -0.4 3.15 L-0.4 3.1 Q-0.45 2.25 -0.8 1.55 L-4.15 1.0 -3.75 0.65 M4.45 1.0 L5.1 0.55 M-6.4 2.95 Q-6.65 1.8 -6.2 0.75 L-5.9 -0.15 -5.4 -0.8 Q-6.35 -0.55 -7.1 0.35 M-1.85 -3.35 Q-1.95 -3.7 -1.65 -3.95 M-3.3 -0.05 Q-3.6 -0.4 -3.45 -0.7 M-3.65 -2.65 L-3.2 -2.75 M-4.0 -2.0 L-3.65 -2.6 -5.4 -0.8 M-4.35 -0.95 Q-5.15 -0.8 -5.9 -0.15 M-0.95 1.1 L-0.8 1.55 M-4.35 -0.95 Q-5.35 -0.35 -5.85 0.65 L-5.75 1.15 -5.15 1.9 -4.15 1.0 M-4.6 3.6 L-4.6 3.55 Q-5.2 2.85 -5.15 1.9 M-4.6 3.6 L-5.05 3.4 -5.55 3.05 -6.2 3.5 M-4.6 3.6 L-4.5 3.6 -4.1 4.55 M-2.65 3.85 L-1.95 4.0 -1.95 3.95 M-3.2 4.65 L-2.65 3.85 M-6.2 0.75 L-5.75 1.15 M-0.8 -0.1 Q-1.5 -0.05 -1.6 0.45" fill="none" stroke="#000000" stroke-linecap="round" stroke-linejoin="round" stroke-width="0.05"/>
    <path d="M-2.25 2.25 L-2.75 2.5 -3.55 2.25 -3.7 1.75 -3.35 1.5 -2.4 1.65 -2.25 2.25 M-1.95 2.85 L-2.7 3.25 Q-2.45 2.9 -2.6 2.65 L-2.1 2.4 -1.95 2.85 M-3.95 2.9 L-4.4 2.3 -3.85 1.85 -3.8 2.35 Q-4.1 2.45 -3.95 2.9" fill="#d3d301" fill-rule="evenodd" stroke="none"/>
  </g>
</svg>
