<?xml version="1.0" encoding="UTF-8" standalone="no"?>
<svg xmlns:xlink="http://www.w3.org/1999/xlink" height="13.15px" width="9.15px" xmlns="http://www.w3.org/2000/svg">
  <g transform="matrix(1.0, 0.0, 0.0, 1.0, 4.05, 7.95)">
    <path d="M3.9 -0.25 L3.95 -0.3 Q4.05 1.35 2.15 1.15 L2.2 1.05 Q2.45 -0.5 3.9 -0.3 L3.9 -0.25 M-3.3 -0.45 Q-2.35 -0.5 -1.95 1.15 -3.15 1.3 -3.3 -0.45" fill="#bbddff" fill-rule="evenodd" stroke="none"/>
    <path d="M3.95 -0.3 L3.9 -0.25 3.9 -0.3 3.95 -0.3 3.9 -0.3 Q2.45 -0.5 2.2 1.05 L2.15 1.15 -0.25 2.25 2.15 1.15 Q4.05 1.35 3.95 -0.3 M0.15 -5.9 Q3.45 -4.8 4.55 -2.95 4.75 -1.2 3.9 -0.3 4.75 -1.2 4.55 -2.95 5.75 -0.8 4.4 2.35 3.95 1.85 3.2 1.7 L2.5 1.6 2.1 1.85 Q0.9 2.4 -0.25 3.0 L-0.25 2.25 -0.35 2.2 Q-1.4 -2.8 0.15 -5.9" fill="#24322e" fill-rule="evenodd" stroke="none"/>
    <path d="M0.3 5.2 Q-1.85 3.75 -2.7 1.7 L-2.15 1.6 -1.9 1.85 Q-1.7 3.15 -0.65 4.05 L-0.25 3.35 0.3 5.2" fill="#6f8b6d" fill-rule="evenodd" stroke="none"/>
    <path d="M0.15 -5.9 Q-1.4 -2.8 -0.35 2.2 L-0.25 2.25 -0.25 3.0 -1.9 1.85 -2.15 1.6 -2.7 1.7 Q-3.1 1.95 -3.2 2.55 -4.6 -0.8 -3.65 -2.95 -2.9 -4.8 0.15 -5.9 M-3.3 -0.45 Q-3.8 -1.35 -3.65 -2.95 -3.8 -1.35 -3.3 -0.45 -3.15 1.3 -1.95 1.15 -2.35 -0.5 -3.3 -0.45 M-0.35 2.2 L-1.95 1.15 -0.35 2.2" fill="#4b5f4b" fill-rule="evenodd" stroke="none"/>
    <path d="M3.2 1.7 Q2.4 3.75 0.3 5.2 L-0.25 3.35 0.8 4.05 Q2.05 3.25 2.1 1.85 L2.5 1.6 3.2 1.7" fill="#7b6a46" fill-rule="evenodd" stroke="none"/>
    <path d="M2.1 1.85 Q2.05 3.25 0.8 4.05 L-0.25 3.35 -0.65 4.05 Q-1.7 3.15 -1.9 1.85 L-0.25 3.0 Q0.9 2.4 2.1 1.85" fill="#2d2c32" fill-rule="evenodd" stroke="none"/>
    <path d="M3.95 -0.3 L3.9 -0.3 3.9 -0.25 M4.55 -2.95 Q3.45 -4.8 0.15 -5.9 -2.9 -4.8 -3.65 -2.95 -3.8 -1.35 -3.3 -0.45 -2.35 -0.5 -1.95 1.15 L-0.35 2.2 -0.25 2.25 2.15 1.15 2.2 1.05 Q2.45 -0.5 3.9 -0.3 4.75 -1.2 4.55 -2.95 5.75 -0.8 4.4 2.35 3.95 1.85 3.2 1.7 2.4 3.75 0.3 5.2 -1.85 3.75 -2.7 1.7 -3.1 1.95 -3.2 2.55 -4.6 -0.8 -3.65 -2.95 M2.1 1.85 L2.5 1.6 3.2 1.7 M-0.25 3.35 L0.8 4.05 Q2.05 3.25 2.1 1.85 0.9 2.4 -0.25 3.0 L-1.9 1.85 Q-1.7 3.15 -0.65 4.05 L-0.25 3.35 M-1.9 1.85 L-2.15 1.6 -2.7 1.7" fill="none" stroke="#000000" stroke-linecap="round" stroke-linejoin="round" stroke-width="0.05"/>
    <path d="M-0.3 -0.4 L0.1 0.25 -0.2 0.7 -1.0 0.55 -1.25 0.0 -1.1 -0.4 -0.3 -0.4 M-1.1 1.45 L-1.65 0.85 -1.4 0.15 -1.1 0.8 Q-1.35 0.9 -1.1 1.45 M0.15 1.5 L-0.05 0.85 0.3 0.4 0.6 0.9 0.15 1.5" fill="#d3d301" fill-rule="evenodd" stroke="none"/>
    <path d="M1.6 -1.95 L1.15 -2.15 1.55 -4.1 1.9 -4.05 1.55 -4.1 2.45 -7.85 1.9 -4.05 1.6 -1.95" fill="#ff0000" fill-rule="evenodd" stroke="none"/>
    <path d="M1.15 -2.15 L1.6 -1.95 Q1.5 -1.25 1.15 -1.1 L1.15 -2.15" fill="#4b5f4b" fill-rule="evenodd" stroke="none"/>
    <path d="M1.15 -2.15 L1.6 -1.95 Q1.5 -1.25 1.15 -1.1 L1.15 -2.15 1.55 -4.1 2.45 -7.85 M1.9 -4.05 L1.55 -4.1" fill="none" stroke="#000000" stroke-linecap="round" stroke-linejoin="round" stroke-width="0.05"/>
    <path d="M-2.15 -4.45 L-1.85 -4.4 -2.15 -4.45 -2.25 -7.95 -1.85 -4.4 -1.65 -2.4 -2.15 -2.6 -2.15 -4.45" fill="#ff0000" fill-rule="evenodd" stroke="none"/>
    <path d="M-2.15 -2.6 L-1.65 -2.4 -1.65 -1.55 Q-2.05 -1.9 -2.15 -2.6" fill="#4b5f4b" fill-rule="evenodd" stroke="none"/>
    <path d="M-1.85 -4.4 L-2.15 -4.45 -2.15 -2.6 -1.65 -2.4 -1.65 -1.55 Q-2.05 -1.9 -2.15 -2.6 M-2.25 -7.95 L-2.15 -4.45" fill="none" stroke="#000000" stroke-linecap="round" stroke-linejoin="round" stroke-width="0.05"/>
  </g>
</svg>
