<?xml version="1.0" encoding="UTF-8" standalone="no"?>
<svg xmlns:xlink="http://www.w3.org/1999/xlink" height="27.4px" width="27.4px" xmlns="http://www.w3.org/2000/svg">
  <g transform="matrix(1.0, 0.0, 0.0, 1.0, 16.3, 13.65)">
    <path d="M-6.5 -0.3 Q-6.8 -0.65 -6.75 -1.1 -6.8 -1.9 -6.0 -2.65 -5.25 -3.3 -4.2 -3.5 L-2.4 -3.35 Q-1.7 -2.95 -1.6 -2.3 L-1.6 -2.1 Q-1.65 -1.35 -2.4 -0.65 -3.15 0.05 -4.2 0.3 L-6.0 0.05 -6.5 -0.3" fill="#ffffff" fill-rule="evenodd" stroke="none"/>
    <path d="M9.35 -0.05 Q9.35 1.8 6.6 3.1 3.9 4.45 0.0 4.5 -3.85 4.45 -6.6 3.1 -8.2 2.35 -8.85 1.45 -9.35 0.75 -9.35 -0.05 -9.35 -1.9 -6.6 -3.25 -3.85 -4.55 0.0 -4.55 3.9 -4.55 6.6 -3.25 L7.8 -2.55 Q9.35 -1.45 9.35 -0.05 M-6.5 -0.3 L-6.55 -0.05 Q-6.55 0.9 -4.75 1.55 -2.9 2.25 -0.3 2.25 2.3 2.25 4.1 1.55 5.95 0.9 5.95 -0.05 5.95 -1.0 4.1 -1.7 2.3 -2.35 -0.3 -2.35 L-1.6 -2.3 Q-1.7 -2.95 -2.4 -3.35 L-4.2 -3.5 Q-5.25 -3.3 -6.0 -2.65 -6.8 -1.9 -6.75 -1.1 -6.8 -0.65 -6.5 -0.3" fill="#2bff35" fill-rule="evenodd" stroke="none"/>
    <path d="M-1.6 -2.3 L-0.3 -2.35 Q2.3 -2.35 4.1 -1.7 5.95 -1.0 5.95 -0.05 5.95 0.9 4.1 1.55 2.3 2.25 -0.3 2.25 -2.9 2.25 -4.75 1.55 -6.55 0.9 -6.55 -0.05 L-6.5 -0.3 -6.0 0.05 -4.2 0.3 Q-3.15 0.05 -2.4 -0.65 -1.65 -1.35 -1.6 -2.1 L-1.6 -2.3" fill="#01b401" fill-rule="evenodd" stroke="none"/>
    <path d="M9.35 -0.05 Q9.35 1.8 6.6 3.1 3.9 4.45 0.0 4.5 -3.85 4.45 -6.6 3.1 -8.2 2.35 -8.85 1.45 -9.35 0.75 -9.35 -0.05 -9.35 -1.9 -6.6 -3.25 -3.85 -4.55 0.0 -4.55 3.9 -4.55 6.6 -3.25 L7.8 -2.55 Q9.35 -1.45 9.35 -0.05 Z" fill="none" stroke="#ceffce" stroke-linecap="round" stroke-linejoin="round" stroke-width="0.05"/>
    <path d="M-2.6 -13.65 L-0.15 -13.45 Q3.95 -12.75 7.05 -9.65 11.1 -5.6 11.1 0.05 11.1 5.7 7.05 9.7 3.05 13.75 -2.6 13.75 L-2.7 13.75 Q-8.3 13.7 -12.3 9.7 -16.3 5.7 -16.3 0.05 -16.3 -5.6 -12.3 -9.65 -8.25 -13.65 -2.6 -13.65" fill="url(#gradient0)" fill-rule="evenodd" stroke="none"/>
  </g>
  <defs>
    <radialGradient cx="0" cy="0" gradientTransform="matrix(0.0136, 0.0, 0.0, 0.0136, -3.9, -2.1)" gradientUnits="userSpaceOnUse" id="gradient0" r="819.2" spreadMethod="pad">
      <stop offset="0.0" stop-color="#ffffff"/>
      <stop offset="1.0" stop-color="#ffffff" stop-opacity="0.0"/>
    </radialGradient>
  </defs>
</svg>
