<?xml version="1.0" encoding="UTF-8" standalone="no"?>
<svg xmlns:xlink="http://www.w3.org/1999/xlink" height="58.25px" width="58.25px" xmlns="http://www.w3.org/2000/svg">
  <g transform="matrix(1.0, 0.0, 0.0, 1.0, 28.4, 29.75)">
    <path d="M29.85 -29.75 L29.85 28.5 -28.4 28.5 -28.4 -29.75 29.85 -29.75" fill="#e0e2eb" fill-opacity="0.0" fill-rule="evenodd" stroke="none"/>
    <path d="M1.05 -20.35 Q1.65 -21.6 2.4 -21.9 L1.05 -18.25 0.9 -18.5 1.05 -20.35 M1.45 -16.4 Q2.35 -17.7 3.45 -18.0 L1.2 -13.9 1.15 -13.95 1.45 -16.4 M1.6 -12.0 Q2.5 -13.3 3.6 -13.6 L1.4 -9.6 1.35 -9.85 1.6 -12.0 M2.65 -10.05 L3.45 -10.45 1.15 -6.35 1.15 -6.4 1.45 -8.85 Q2.0 -9.65 2.65 -10.05 M1.6 -4.45 Q2.5 -5.75 3.6 -6.05 L1.4 -2.1 1.35 -2.45 1.6 -4.45 M2.9 -3.0 L3.45 -3.2 1.2 0.9 1.15 0.85 1.45 -1.6 Q2.15 -2.6 2.9 -3.0 M1.6 2.75 Q2.5 1.45 3.6 1.15 L1.3 5.3 1.6 2.75 M0.25 6.6 L0.45 6.75 0.2 6.65 0.25 6.6" fill="#ffdf2f" fill-rule="evenodd" stroke="none"/>
    <path d="M2.4 -21.9 Q2.7 -20.85 2.35 -19.75 L1.75 -18.25 1.3 -17.6 1.45 -16.4 1.15 -13.95 1.2 -13.9 1.4 -13.35 1.2 -13.9 3.45 -18.0 Q3.8 -17.0 3.25 -15.9 L2.4 -14.35 1.4 -13.35 1.6 -12.0 1.35 -9.85 1.4 -9.6 3.6 -13.6 Q3.95 -12.6 3.4 -11.5 L2.65 -10.05 Q2.0 -9.65 1.45 -8.85 L1.15 -6.4 0.2 -7.75 1.15 -6.4 1.15 -6.35 3.45 -10.45 Q3.8 -9.45 3.25 -8.35 L2.4 -6.8 1.4 -5.8 1.6 -4.45 1.35 -2.45 1.4 -2.1 1.45 -1.6 1.4 -2.1 3.6 -6.05 Q3.95 -5.05 3.4 -3.95 L2.9 -3.0 Q2.15 -2.6 1.45 -1.6 L1.15 0.85 0.2 -0.55 1.15 0.85 1.2 0.9 1.4 1.45 1.2 0.9 3.45 -3.2 Q3.8 -2.2 3.25 -1.1 L2.4 0.45 1.4 1.45 1.6 2.75 1.3 5.3 3.6 1.15 Q3.95 2.15 3.4 3.25 L2.55 4.8 0.45 6.75 0.25 6.6 0.2 6.65 -1.6 5.2 -2.2 4.45 -3.1 2.65 Q-3.55 1.55 -3.65 0.25 -1.9 1.25 -1.15 2.75 L-1.0 1.55 -1.75 0.85 -2.35 0.1 -3.25 -1.7 -3.8 -4.1 -2.4 -3.1 Q-2.85 -3.75 -3.1 -4.55 -3.55 -5.65 -3.65 -6.95 -1.9 -5.95 -1.15 -4.45 L-1.0 -5.7 -1.75 -6.4 -2.35 -7.15 -3.25 -8.95 -3.8 -11.35 Q-2.05 -10.35 -1.3 -8.85 L-1.3 -9.2 -1.0 -10.65 Q-0.65 -11.75 0.05 -12.15 -0.65 -11.75 -1.0 -10.65 L-1.3 -9.2 -1.6 -9.55 -2.2 -10.3 -3.1 -12.1 Q-3.55 -13.2 -3.65 -14.5 -1.9 -13.5 -1.15 -12.0 L-1.0 -10.65 -1.15 -12.0 -1.0 -13.25 -1.75 -13.95 -2.35 -14.7 -3.25 -16.5 -3.8 -18.9 Q-2.05 -17.9 -1.3 -16.4 L-1.1 -17.8 -0.75 -18.75 0.05 -19.7 -0.75 -18.75 -1.1 -17.8 -1.25 -17.95 -1.7 -18.75 -2.4 -20.55 -2.85 -22.95 Q-1.55 -21.9 -1.0 -20.4 -0.95 -23.0 -0.1 -23.65 0.9 -22.25 1.05 -20.35 L0.9 -18.5 1.05 -18.25 1.3 -17.6 1.05 -18.25 2.4 -21.9 M0.05 -19.7 L0.9 -18.5 0.05 -19.7 M0.2 -15.3 Q-0.5 -14.95 -0.8 -13.9 L-0.85 -14.05 -1.1 -14.85 -1.3 -16.4 -1.1 -14.85 -0.85 -14.05 -0.8 -13.9 Q-0.5 -14.95 0.2 -15.3 L1.15 -13.95 0.2 -15.3 M-0.75 -18.75 L-0.8 -18.85 -1.0 -20.4 -0.8 -18.85 -0.75 -18.75 M0.05 -12.15 Q1.0 -11.15 1.35 -9.85 1.0 -11.15 0.05 -12.15 M0.2 -7.75 Q-0.5 -7.4 -0.8 -6.4 L-0.85 -6.5 -1.1 -7.3 -1.3 -8.85 -1.1 -7.3 -0.85 -6.5 -0.8 -6.4 Q-0.5 -7.4 0.2 -7.75 M1.4 -9.6 L1.45 -8.85 1.4 -9.6 M1.4 -5.8 L1.15 -6.35 1.4 -5.8 M0.05 -4.9 Q1.05 -3.85 1.35 -2.45 1.05 -3.85 0.05 -4.9 -0.7 -4.5 -1.05 -3.25 L-1.3 -1.7 -1.05 -3.25 Q-0.7 -4.5 0.05 -4.9 M-1.3 -1.6 L-1.3 -1.7 -1.4 -1.75 -1.3 -1.6 -1.1 -0.05 -0.85 0.75 -0.8 0.85 Q-0.5 -0.15 0.2 -0.55 -0.5 -0.15 -0.8 0.85 L-0.85 0.75 -1.1 -0.05 -1.3 -1.6 M-0.8 -13.9 L-1.0 -13.25 -0.8 -13.9 M-1.15 -4.45 L-1.05 -3.25 -1.15 -4.45 M-2.4 -3.1 L-1.4 -1.75 -2.4 -3.1 M-0.8 -6.4 L-1.0 -5.7 -0.8 -6.4 M0.25 6.6 L-0.7 5.1 -0.95 4.3 -1.15 2.75 -0.95 4.3 -0.7 5.1 0.25 6.6 M-1.0 1.55 L-0.8 0.85 -1.0 1.55" fill="#fffbe6" fill-rule="evenodd" stroke="none"/>
    <path d="M1.05 -20.35 Q1.65 -21.6 2.4 -21.9 M1.45 -16.4 Q2.35 -17.7 3.45 -18.0 M1.6 -12.0 Q2.5 -13.3 3.6 -13.6 M2.65 -10.05 L3.45 -10.45 M1.6 -4.45 Q2.5 -5.75 3.6 -6.05 M2.9 -3.0 L3.45 -3.2 M1.6 2.75 Q2.5 1.45 3.6 1.15 M1.45 -8.85 Q2.0 -9.65 2.65 -10.05 M1.45 -1.6 Q2.15 -2.6 2.9 -3.0 M0.25 6.6 L0.45 6.75 0.2 6.65 -1.6 5.2 -2.2 4.45 -3.1 2.65 Q-3.55 1.55 -3.65 0.25 M-1.0 1.55 L-1.75 0.85 -2.35 0.1 -3.25 -1.7 -3.8 -4.1 M-2.4 -3.1 Q-2.85 -3.75 -3.1 -4.55 -3.55 -5.65 -3.65 -6.95 M-1.0 -5.7 L-1.75 -6.4 -2.35 -7.15 -3.25 -8.95 -3.8 -11.35 M-1.1 -17.8 L-1.25 -17.95 -1.7 -18.75 -2.4 -20.55 -2.85 -22.95 M-1.0 -13.25 L-1.75 -13.95 -2.35 -14.7 -3.25 -16.5 -3.8 -18.9 M-3.65 -14.5 Q-3.55 -13.2 -3.1 -12.1 L-2.2 -10.3 -1.6 -9.55 -1.3 -9.2 M-1.4 -1.75 L-1.3 -1.7" fill="none" stroke="#896a01" stroke-linecap="round" stroke-linejoin="round" stroke-width="0.1"/>
    <path d="M2.4 -21.9 Q2.7 -20.85 2.35 -19.75 L1.75 -18.25 1.3 -17.6 1.45 -16.4 M3.45 -18.0 Q3.8 -17.0 3.25 -15.9 L2.4 -14.35 1.4 -13.35 1.6 -12.0 M3.6 -13.6 Q3.95 -12.6 3.4 -11.5 L2.65 -10.05 M3.45 -10.45 Q3.8 -9.45 3.25 -8.35 L2.4 -6.8 1.4 -5.8 1.6 -4.45 M3.6 -6.05 Q3.95 -5.05 3.4 -3.95 L2.9 -3.0 M3.45 -3.2 Q3.8 -2.2 3.25 -1.1 L2.4 0.45 1.4 1.45 1.6 2.75 M3.6 1.15 Q3.95 2.15 3.4 3.25 L2.55 4.8 0.45 6.75 M1.3 -17.6 L1.05 -18.25 0.9 -18.5 0.05 -19.7 M0.2 -15.3 L1.15 -13.95 1.2 -13.9 1.4 -13.35 M1.05 -20.35 Q0.9 -22.25 -0.1 -23.65 M1.35 -9.85 L1.4 -9.6 1.45 -8.85 M1.35 -9.85 Q1.0 -11.15 0.05 -12.15 M0.2 -7.75 L1.15 -6.4 1.15 -6.35 1.4 -5.8 M1.45 -1.6 L1.4 -2.1 1.35 -2.45 Q1.05 -3.85 0.05 -4.9 M0.2 -0.55 L1.15 0.85 1.2 0.9 1.4 1.45 M-3.65 0.25 Q-1.9 1.25 -1.15 2.75 M-3.8 -4.1 L-2.4 -3.1 -1.4 -1.75 -1.3 -1.6 M-3.65 -6.95 Q-1.9 -5.95 -1.15 -4.45 M-3.8 -11.35 Q-2.05 -10.35 -1.3 -8.85 M-2.85 -22.95 Q-1.55 -21.9 -1.0 -20.4 M-3.8 -18.9 Q-2.05 -17.9 -1.3 -16.4 M-1.15 -12.0 Q-1.9 -13.5 -3.65 -14.5" fill="none" stroke="#fed750" stroke-linecap="round" stroke-linejoin="round" stroke-width="0.1"/>
    <path d="M0.05 -19.7 L-0.75 -18.75 -1.1 -17.8 -1.3 -16.4 -1.1 -14.85 -0.85 -14.05 -0.8 -13.9 Q-0.5 -14.95 0.2 -15.3 M-0.1 -23.65 Q-0.95 -23.0 -1.0 -20.4 L-0.8 -18.85 -0.75 -18.75 M0.05 -12.15 Q-0.65 -11.75 -1.0 -10.65 L-1.3 -9.2 -1.3 -8.85 -1.1 -7.3 -0.85 -6.5 -0.8 -6.4 Q-0.5 -7.4 0.2 -7.75 M0.05 -4.9 Q-0.7 -4.5 -1.05 -3.25 L-1.3 -1.7 -1.3 -1.6 -1.1 -0.05 -0.85 0.75 -0.8 0.85 Q-0.5 -0.15 0.2 -0.55 M-1.15 2.75 L-1.0 1.55 -0.8 0.85 M-1.15 -4.45 L-1.0 -5.7 -0.8 -6.4 M-1.0 -13.25 L-0.8 -13.9 M-1.0 -10.65 L-1.15 -12.0 -1.0 -13.25 M-1.05 -3.25 L-1.15 -4.45 M-1.15 2.75 L-0.95 4.3 -0.7 5.1 0.25 6.6" fill="none" stroke="#fec912" stroke-linecap="round" stroke-linejoin="round" stroke-width="0.1"/>
    <path d="M0.45 6.75 Q1.3 15.3 -2.45 23.65" fill="none" stroke="#896a01" stroke-linecap="round" stroke-linejoin="round" stroke-width="0.05"/>
  </g>
</svg>
