<?xml version="1.0" encoding="UTF-8" standalone="no"?>
<svg xmlns:xlink="http://www.w3.org/1999/xlink" height="53.45px" width="48.6px" xmlns="http://www.w3.org/2000/svg">
  <g transform="matrix(1.0, 0.0, 0.0, 1.0, 21.2, 27.95)">
    <path d="M-4.75 -6.6 L18.1 24.75 17.0 25.5 -19.65 -24.75 -19.75 -24.8 -20.4 -25.2 Q-20.65 -25.55 -20.55 -25.95 L-21.2 -27.95 -19.45 -26.8 -19.4 -26.8 -18.75 -26.4 Q-18.5 -26.05 -18.55 -25.65 L-18.6 -25.6 -18.15 -25.0 -4.75 -6.6 M-19.45 -26.8 Q-19.8 -26.15 -20.55 -25.95 -19.8 -26.15 -19.45 -26.8 M-19.65 -24.75 L-18.95 -24.95 Q-18.65 -25.2 -18.6 -25.6 -18.65 -25.2 -18.95 -24.95 L-19.65 -24.75" fill="#bee2eb" fill-rule="evenodd" stroke="none"/>
    <path d="M-18.15 -25.0 Q-11.5 -31.4 0.65 -23.65 12.85 -15.95 18.4 -22.15 L27.4 -7.2 Q20.8 0.6 9.55 -5.55 -1.7 -11.75 -4.75 -6.6 L-18.15 -25.0" fill="#ffeec8" fill-rule="evenodd" stroke="none"/>
    <path d="M-4.75 -6.6 L18.1 24.75 17.0 25.5 M-21.2 -27.95 L-19.45 -26.8 -19.4 -26.8 -18.75 -26.4 Q-18.5 -26.05 -18.55 -25.65 L-18.6 -25.6 -18.15 -25.0 -4.75 -6.6 M-18.6 -25.6 Q-18.65 -25.2 -18.95 -24.95 L-19.65 -24.75 M-20.55 -25.95 Q-19.8 -26.15 -19.45 -26.8" fill="none" stroke="#38a5b4" stroke-linecap="round" stroke-linejoin="round" stroke-width="0.05"/>
    <path d="M17.0 25.5 L-19.65 -24.75 -19.75 -24.8 -20.4 -25.2 Q-20.65 -25.55 -20.55 -25.95 L-21.2 -27.95" fill="none" stroke="#dff2f4" stroke-linecap="round" stroke-linejoin="round" stroke-width="0.05"/>
    <path d="M-18.15 -25.0 Q-11.5 -31.4 0.65 -23.65 12.85 -15.95 18.4 -22.15 L27.4 -7.2 Q20.8 0.6 9.55 -5.55 -1.7 -11.75 -4.75 -6.6 Z" fill="none" stroke="#9c6201" stroke-linecap="round" stroke-linejoin="round" stroke-width="0.05"/>
  </g>
</svg>
