<?xml version="1.0" encoding="UTF-8" standalone="no"?>
<svg xmlns:xlink="http://www.w3.org/1999/xlink" height="49.8px" width="7.3px" xmlns="http://www.w3.org/2000/svg">
  <g transform="matrix(1.0, 0.0, 0.0, 1.0, 2.25, 14.05)">
    <path d="M3.3 35.3 Q1.1 36.65 -1.15 34.15 -0.7 23.35 -1.2 12.8 -1.6 6.55 -2.25 0.4 -1.1 -1.05 0.2 -1.6 L0.9 -1.8 1.95 -1.9 Q3.25 -1.15 4.05 0.4 L3.85 10.1 Q2.85 21.7 3.3 35.3" fill="#424242" fill-rule="evenodd" stroke="none"/>
    <path d="M2.55 -1.8 Q4.15 -1.2 5.05 0.3 L4.85 8.35 Q3.65 20.05 4.55 34.15 L3.3 35.3 Q2.85 21.7 3.85 10.1 L4.05 0.4 Q3.25 -1.15 1.95 -1.9 L2.45 -1.8 2.55 -1.8" fill="#737373" fill-rule="evenodd" stroke="none"/>
    <path d="M-0.55 -10.2 L-0.7 -10.35 Q-1.25 -10.9 -1.35 -11.8 -1.4 -12.7 -0.95 -13.35 -0.45 -14.0 0.3 -14.05 1.1 -14.1 1.65 -13.55 2.2 -12.95 2.25 -12.05 2.35 -11.3 2.05 -10.75 L1.85 -10.5 Q1.4 -9.85 0.6 -9.8 L-0.2 -9.95 -0.55 -10.2 -0.2 -9.95 0.6 -9.8 Q1.4 -9.85 1.85 -10.5 L2.05 -10.75 Q1.0 -7.15 2.55 -1.8 L2.45 -1.8 1.95 -1.9 0.9 -1.8 0.2 -1.6 -0.3 -7.2 -1.55 -6.95 -1.75 -7.9 -0.5 -9.55 -0.55 -10.2 M-0.3 -7.2 L-0.5 -9.55 -0.3 -7.2" fill="#999999" fill-rule="evenodd" stroke="none"/>
    <path d="M2.55 -1.8 Q4.15 -1.2 5.05 0.3 L4.85 8.35 Q3.65 20.05 4.55 34.15 L3.3 35.3 Q1.1 36.65 -1.15 34.15 -0.7 23.35 -1.2 12.8 -1.6 6.55 -2.25 0.4 -1.1 -1.05 0.2 -1.6" fill="none" stroke="#333333" stroke-linecap="round" stroke-linejoin="round" stroke-width="0.05"/>
    <path d="M2.05 -10.75 Q2.35 -11.3 2.25 -12.05 2.2 -12.95 1.65 -13.55 1.1 -14.1 0.3 -14.05 -0.45 -14.0 -0.95 -13.35 -1.4 -12.7 -1.35 -11.8 -1.25 -10.9 -0.7 -10.35 L-0.55 -10.2 -0.2 -9.95 0.6 -9.8 Q1.4 -9.85 1.85 -10.5 L2.05 -10.75 Q1.0 -7.15 2.55 -1.8 L2.45 -1.8 1.95 -1.9 0.9 -1.8 0.2 -1.6 -0.3 -7.2 -1.55 -6.95 -1.75 -7.9 -0.5 -9.55 -0.55 -10.2 M-0.5 -9.55 L-0.3 -7.2" fill="none" stroke="#666666" stroke-linecap="round" stroke-linejoin="round" stroke-width="0.05"/>
  </g>
</svg>
