<?xml version="1.0" encoding="UTF-8" standalone="no"?>
<svg xmlns:xlink="http://www.w3.org/1999/xlink" height="57.4px" width="60.2px" xmlns="http://www.w3.org/2000/svg">
  <g transform="matrix(1.0, 0.0, 0.0, 1.0, 27.9, 28.1)">
    <path d="M26.75 29.3 L-27.65 29.25 -27.9 -28.1 27.1 -28.05 26.75 29.3" fill="#e0e2eb" fill-opacity="0.0" fill-rule="evenodd" stroke="none"/>
    <path d="M17.4 -1.9 L17.5 -1.85 Q18.15 -1.55 18.85 -1.2 L20.25 -0.9 21.1 -1.7 21.15 -1.85 21.3 -1.7 24.3 -0.85 24.35 -0.85 Q25.55 0.95 26.9 1.6 L26.95 1.65 28.1 1.95 30.6 2.4 Q32.05 2.8 32.3 3.3 L32.25 3.4 32.15 3.4 Q26.6 3.9 21.85 5.55 22.2 6.15 21.8 6.8 21.5 7.45 20.5 7.75 20.8 9.15 20.0 10.55 L18.4 12.4 17.35 13.15 Q15.55 14.35 12.85 15.35 L10.1 16.0 8.85 16.2 8.8 16.15 7.65 16.25 4.15 16.15 -1.1 15.3 -1.15 15.2 -4.8 13.8 -4.85 13.8 -7.1 12.45 -7.05 12.35 -7.15 12.35 Q-8.7 11.1 -9.35 9.7 L-9.3 9.7 -9.2 9.7 -9.15 9.75 -9.15 9.55 -9.55 8.55 -9.65 8.55 -9.75 8.5 -9.85 6.6 Q-9.7 4.85 -8.45 3.5 -7.15 1.85 -4.6 0.9 L-2.8 0.25 1.1 -0.3 7.3 0.05 13.05 1.85 16.15 1.7 16.85 0.4 17.1 -1.85 17.15 -1.9 17.3 -1.95 17.4 -1.9" fill="url(#gradient0)" fill-rule="evenodd" stroke="none"/>
    <path d="M4.1 -3.5 L4.5 -3.45 4.5 -3.2 4.1 -3.5" fill="#d7cd64" fill-rule="evenodd" stroke="none"/>
    <path d="M-1.1 -6.35 L-4.1 -10.05 -6.2 -12.25 -6.05 -12.2 -4.6 -12.25 Q-4.0 -12.45 -3.55 -12.85 L-3.0 -12.25 Q0.3 -8.4 0.25 -6.55 L-0.95 -6.4 -1.1 -6.35" fill="url(#gradient1)" fill-rule="evenodd" stroke="none"/>
    <path d="M5.8 -5.55 L7.2 -4.3 Q7.75 -3.55 7.4 -2.75 L7.25 -2.8 7.15 -2.85 5.0 -3.4 4.8 -3.4 4.5 -3.45 4.1 -3.5 1.35 -4.4 -2.65 -4.65 Q-2.35 -5.65 -1.1 -6.35 L-0.95 -6.4 0.25 -6.55 3.65 -6.35 4.1 -6.25 5.8 -5.55" fill="url(#gradient2)" fill-rule="evenodd" stroke="none"/>
    <path d="M-3.55 -12.85 L-3.9 -14.1 -2.8 -14.55 -1.45 -14.75 2.95 -13.75 6.7 -13.3 5.9 -10.4 Q3.6 -7.25 3.65 -6.35 L0.25 -6.55 Q0.3 -8.4 -3.0 -12.25 L-3.55 -12.85" fill="url(#gradient3)" fill-rule="evenodd" stroke="none"/>
    <path d="M6.7 -13.3 Q7.25 -13.35 7.7 -13.65 L9.55 -14.55 11.4 -14.6 Q6.4 -8.0 5.8 -5.55 L4.1 -6.25 3.65 -6.35 Q3.6 -7.25 5.9 -10.4 L6.7 -13.3" fill="url(#gradient4)" fill-rule="evenodd" stroke="none"/>
    <path d="M7.4 -2.75 Q9.2 -1.5 10.25 0.3 L11.4 2.95 11.65 4.25 Q11.9 6.35 11.4 8.65 L10.55 10.6 10.0 11.4 9.95 11.45 9.4 12.05 7.35 13.65 6.1 14.3 6.0 14.35 5.9 14.35 3.45 15.15 0.0 15.45 -2.6 15.05 -2.55 15.05 0.8 14.0 Q2.8 13.45 4.6 12.55 L7.0 10.75 7.85 9.9 Q11.7 4.55 7.6 -0.85 L4.5 -3.2 4.5 -3.45 4.8 -3.4 5.0 -3.4 7.15 -2.85 7.25 -2.8 7.4 -2.75" fill="url(#gradient5)" fill-rule="evenodd" stroke="none"/>
    <path d="M-2.6 15.05 L-2.75 15.0 Q-4.8 14.45 -6.55 13.35 L-7.85 12.4 -9.75 10.6 Q-11.25 8.95 -12.05 7.0 -12.8 5.0 -12.55 2.9 L-12.25 1.45 Q-11.8 0.15 -10.9 -0.9 -9.3 -2.7 -7.45 -3.5 L-3.45 -4.55 -2.65 -4.65 1.35 -4.4 4.1 -3.5 4.5 -3.2 7.6 -0.85 Q11.7 4.55 7.85 9.9 L7.0 10.75 4.6 12.55 Q2.8 13.45 0.8 14.0 L-2.55 15.05 -2.6 15.05" fill="url(#gradient6)" fill-rule="evenodd" stroke="none"/>
    <path d="M-2.6 15.05 L-2.75 15.0 M4.8 -3.4 L5.0 -3.4 M7.15 -2.85 L7.25 -2.8" fill="none" stroke="#8c7e35" stroke-linecap="round" stroke-linejoin="round" stroke-width="0.05"/>
    <path d="M5.8 -5.55 L7.2 -4.3 Q7.75 -3.55 7.4 -2.75 9.2 -1.5 10.25 0.3 L11.4 2.95 11.65 4.25 Q11.9 6.35 11.4 8.65 L10.55 10.6 10.0 11.4 9.95 11.45 9.4 12.05 7.35 13.65 6.1 14.3 6.0 14.35 5.9 14.35 3.45 15.15 0.0 15.45 -2.6 15.05 M5.0 -3.4 L7.15 -2.85 M4.1 -3.5 L4.5 -3.45 M4.1 -3.5 L1.35 -4.4 M5.8 -5.55 L4.1 -6.25" fill="none" stroke="#4b3614" stroke-linecap="round" stroke-linejoin="round" stroke-width="0.05"/>
    <path d="M-2.75 15.0 Q-4.8 14.45 -6.55 13.35" fill="none" stroke="#724b1f" stroke-linecap="round" stroke-linejoin="round" stroke-width="0.05"/>
    <path d="M-6.55 13.35 L-7.85 12.4" fill="none" stroke="#865924" stroke-linecap="round" stroke-linejoin="round" stroke-width="0.05"/>
    <path d="M-3.55 -12.85 L-3.9 -14.1 -2.8 -14.55 -1.45 -14.75 2.95 -13.75 6.7 -13.3 Q7.25 -13.35 7.7 -13.65 L9.55 -14.55 11.4 -14.6 Q6.4 -8.0 5.8 -5.55 M-7.85 12.4 L-9.75 10.6 Q-11.25 8.95 -12.05 7.0 -12.8 5.0 -12.55 2.9 L-12.25 1.45 Q-11.8 0.15 -10.9 -0.9 -9.3 -2.7 -7.45 -3.5 L-3.45 -4.55 -2.65 -4.65 Q-2.35 -5.65 -1.1 -6.35 L-4.1 -10.05 -6.2 -12.25 -6.05 -12.2 -4.6 -12.25 Q-4.0 -12.45 -3.55 -12.85 M0.25 -6.55 L3.65 -6.35 M1.35 -4.4 L-2.65 -4.65 M0.25 -6.55 L-0.95 -6.4 -1.1 -6.35" fill="none" stroke="#856f24" stroke-linecap="round" stroke-linejoin="round" stroke-width="0.05"/>
  </g>
  <defs>
    <linearGradient gradientTransform="matrix(0.0079, -0.0116, 0.0084, 0.0048, 13.5, 7.85)" gradientUnits="userSpaceOnUse" id="gradient0" spreadMethod="pad" x1="-819.2" x2="819.2">
      <stop offset="0.0" stop-color="#000000" stop-opacity="0.4"/>
      <stop offset="1.0" stop-color="#000000" stop-opacity="0.2901961"/>
    </linearGradient>
    <linearGradient gradientTransform="matrix(-0.0031, -0.0014, -0.001, 0.0022, -1.8, -8.8)" gradientUnits="userSpaceOnUse" id="gradient1" spreadMethod="pad" x1="-819.2" x2="819.2">
      <stop offset="0.0" stop-color="#d7cd64"/>
      <stop offset="1.0" stop-color="#998828"/>
    </linearGradient>
    <linearGradient gradientTransform="matrix(0.0062, 0.0, 0.0, 0.0023, 2.45, -4.7)" gradientUnits="userSpaceOnUse" id="gradient2" spreadMethod="pad" x1="-819.2" x2="819.2">
      <stop offset="0.01568627450980392" stop-color="#a8952d"/>
      <stop offset="0.6666666666666666" stop-color="#776320"/>
      <stop offset="1.0" stop-color="#5b4617"/>
    </linearGradient>
    <linearGradient gradientTransform="matrix(-0.0026, -0.0015, 0.002, -0.0034, 2.95, -8.95)" gradientUnits="userSpaceOnUse" id="gradient3" spreadMethod="pad" x1="-819.2" x2="819.2">
      <stop offset="0.01568627450980392" stop-color="#a8952d"/>
      <stop offset="1.0" stop-color="#e8dea7"/>
    </linearGradient>
    <linearGradient gradientTransform="matrix(0.0035, 0.0, 0.0, 0.0047, 6.5, -9.4)" gradientUnits="userSpaceOnUse" id="gradient4" spreadMethod="pad" x1="-819.2" x2="819.2">
      <stop offset="0.01568627450980392" stop-color="#776320"/>
      <stop offset="1.0" stop-color="#aa8d2f"/>
    </linearGradient>
    <radialGradient cx="0" cy="0" gradientTransform="matrix(-0.0181, -0.0079, -0.0079, 0.0181, -2.3, -0.85)" gradientUnits="userSpaceOnUse" id="gradient5" r="819.2" spreadMethod="pad">
      <stop offset="0.0" stop-color="#eae0ac"/>
      <stop offset="0.2784313725490196" stop-color="#d7cd64"/>
      <stop offset="0.6666666666666666" stop-color="#998828"/>
      <stop offset="1.0" stop-color="#4b3a14"/>
    </radialGradient>
    <radialGradient cx="0" cy="0" gradientTransform="matrix(-0.0172, -0.0075, -0.0075, 0.0172, -3.2, -2.2)" gradientUnits="userSpaceOnUse" id="gradient6" r="819.2" spreadMethod="pad">
      <stop offset="0.0" stop-color="#eae0ac"/>
      <stop offset="0.5607843137254902" stop-color="#d7cd64"/>
      <stop offset="1.0" stop-color="#8a7324"/>
    </radialGradient>
  </defs>
</svg>
