<?xml version="1.0" encoding="UTF-8" standalone="no"?>
<svg xmlns:xlink="http://www.w3.org/1999/xlink" height="30.5px" width="24.65px" xmlns="http://www.w3.org/2000/svg">
  <g transform="matrix(1.0, 0.0, 0.0, 1.0, 12.3, 15.25)">
    <path d="M12.0 -14.95 L11.95 -14.85 Q7.1 -8.45 6.4 -5.95 L7.75 -4.7 Q8.3 -3.95 8.0 -3.15 9.75 -1.9 10.8 -0.1 L10.85 -0.1 12.0 2.55 12.0 2.6 12.25 3.9 Q12.5 6.0 12.0 8.35 L11.1 10.35 10.55 11.15 10.5 11.2 9.95 11.8 7.9 13.4 7.85 13.45 6.6 14.1 6.55 14.1 6.45 14.15 6.4 14.15 3.95 14.95 3.9 14.95 0.45 15.25 -2.15 14.85 -2.25 14.8 -2.3 14.8 Q-4.35 14.2 -6.1 13.15 L-6.05 13.15 -6.0 13.1 -6.0 13.05 -6.1 13.0 -7.3 12.15 -7.4 12.2 -7.45 12.15 -9.4 10.35 Q-10.9 8.65 -11.7 6.7 -12.5 4.65 -12.2 2.55 L-11.9 1.1 -11.9 1.05 -10.55 -1.3 Q-8.95 -3.15 -7.05 -3.95 L-7.0 -3.95 -3.0 -5.0 -2.3 -5.1 Q-1.95 -6.05 -0.8 -6.75 L-3.75 -10.3 -5.85 -12.5 -5.85 -12.6 -5.85 -12.7 -5.75 -12.7 -5.6 -12.65 -4.2 -12.7 Q-3.65 -12.9 -3.25 -13.25 L-3.55 -14.4 -3.55 -14.5 -3.5 -14.55 -2.4 -15.0 -2.35 -15.0 -1.0 -15.2 -0.95 -15.2 Q0.3 -14.75 3.45 -14.2 L7.15 -13.75 8.1 -14.1 9.95 -15.0 10.0 -15.0 11.9 -15.05 11.95 -15.0 12.0 -14.95" fill="url(#gradient0)" fill-rule="evenodd" stroke="none"/>
  </g>
  <defs>
    <radialGradient cx="0" cy="0" gradientTransform="matrix(0.0199, 0.0, 0.0, 0.0199, 2.2, 3.4)" gradientUnits="userSpaceOnUse" id="gradient0" r="819.2" spreadMethod="pad">
      <stop offset="0.6705882352941176" stop-color="#ffffff" stop-opacity="0.18039216"/>
      <stop offset="1.0" stop-color="#ffffff" stop-opacity="0.7921569"/>
    </radialGradient>
  </defs>
</svg>
