<?xml version="1.0" encoding="UTF-8" standalone="no"?>
<svg xmlns:xlink="http://www.w3.org/1999/xlink" height="15.15px" width="3.8px" xmlns="http://www.w3.org/2000/svg">
  <g transform="matrix(1.0, 0.0, 0.0, 1.0, 1.5, 0.05)">
    <path d="M-0.85 0.95 Q-0.25 -0.55 1.15 0.15 L1.95 2.1 Q1.6 3.4 1.0 3.95 -0.15 2.9 -0.85 0.95" fill="#cec4a4" fill-rule="evenodd" stroke="none"/>
    <path d="M1.95 2.1 L2.3 3.65 1.9 11.75 1.75 14.75 Q0.65 15.7 -0.05 14.2 L-0.35 11.3 Q-0.75 8.05 -1.45 5.1 -1.6 3.35 -1.05 1.6 L-0.85 0.95 Q-0.15 2.9 1.0 3.95 1.6 3.4 1.95 2.1 M-0.35 11.3 Q0.85 12.1 1.9 11.75 0.85 12.1 -0.35 11.3" fill="#dbd3bb" fill-rule="evenodd" stroke="none"/>
    <path d="M1.95 2.1 L2.3 3.65 1.9 11.75 1.75 14.75 Q0.65 15.7 -0.05 14.2 L-0.35 11.3 Q-0.75 8.05 -1.45 5.1 -1.6 3.35 -1.05 1.6 L-0.85 0.95 Q-0.25 -0.55 1.15 0.15 L1.95 2.1 Q1.6 3.4 1.0 3.95 -0.15 2.9 -0.85 0.95 M1.9 11.75 Q0.85 12.1 -0.35 11.3" fill="none" stroke="#70633a" stroke-linecap="round" stroke-linejoin="round" stroke-width="0.05"/>
  </g>
</svg>
