<?xml version="1.0" encoding="UTF-8" standalone="no"?>
<svg xmlns:xlink="http://www.w3.org/1999/xlink" height="4.85px" width="12.2px" xmlns="http://www.w3.org/2000/svg">
  <g transform="matrix(1.0, 0.0, 0.0, 1.0, 4.15, 2.5)">
    <path d="M4.85 -1.8 Q6.15 -2.05 7.25 -2.5 8.95 -0.35 7.1 1.85 6.45 1.7 4.8 1.85 5.4 -0.15 4.85 -1.8" fill="#a44745" fill-rule="evenodd" stroke="none"/>
    <path d="M2.35 -1.55 L4.85 -1.8 Q5.4 -0.15 4.8 1.85 L1.7 2.2 -0.45 2.35 Q-2.1 2.25 -3.15 1.55 L-3.45 1.35 Q0.35 2.0 2.15 0.95 3.9 -0.05 2.35 -1.55 M3.65 1.05 L2.15 2.05 1.7 2.2 2.15 2.05 3.65 1.05" fill="#bf935e" fill-rule="evenodd" stroke="none"/>
    <path d="M2.35 -1.55 Q3.9 -0.05 2.15 0.95 0.35 2.0 -3.45 1.35 -4.25 0.7 -4.15 -0.1 -4.1 -1.1 -2.85 -1.65 -1.65 -2.25 0.0 -2.15 L2.0 -1.7 2.35 -1.55 1.35 -0.25 2.35 -1.55" fill="#d0b384" fill-rule="evenodd" stroke="none"/>
    <path d="M4.85 -1.8 L2.35 -1.55 2.0 -1.7 0.0 -2.15 Q-1.65 -2.25 -2.85 -1.65 -4.1 -1.1 -4.15 -0.1 -4.25 0.7 -3.45 1.35 L-3.15 1.55 Q-2.1 2.25 -0.45 2.35 L1.7 2.2 2.15 2.05 3.65 1.05 M4.8 1.85 Q6.45 1.7 7.1 1.85 8.95 -0.35 7.25 -2.5 6.15 -2.05 4.85 -1.8 5.4 -0.15 4.8 1.85 L1.7 2.2" fill="none" stroke="#744636" stroke-linecap="round" stroke-linejoin="round" stroke-width="0.05"/>
  </g>
</svg>
