<?xml version="1.0" encoding="UTF-8" standalone="no"?>
<svg xmlns:xlink="http://www.w3.org/1999/xlink" height="26.95px" width="6.95px" xmlns="http://www.w3.org/2000/svg">
  <g transform="matrix(1.0, 0.0, 0.0, 1.0, 4.65, 29.2)">
    <path d="M1.65 -13.7 L2.3 -14.1 2.3 -13.7 2.3 -13.4 2.0 -10.4 1.7 -9.35 Q0.45 -5.5 -3.65 -6.25 L-3.85 -9.35 -4.1 -14.1 -3.4 -13.75 Q-0.6 -12.55 1.65 -13.7" fill="#867653" fill-rule="evenodd" stroke="none"/>
    <path d="M1.65 -13.7 L1.65 -14.4 Q2.15 -14.5 2.3 -14.1 L1.65 -13.7 M-3.55 -14.4 L-3.4 -13.75 -4.1 -14.1 -3.55 -14.4 M2.3 -13.4 L2.25 -9.35 2.15 -7.9 1.9 -3.8 Q-0.5 -0.75 -3.45 -3.65 L-3.65 -6.25 Q0.45 -5.5 1.7 -9.35 L2.0 -10.4 2.3 -13.4" fill="#6b5f43" fill-rule="evenodd" stroke="none"/>
    <path d="M1.65 -14.4 L1.65 -13.7 Q-0.6 -12.55 -3.4 -13.75 L-3.55 -14.4 -4.4 -20.25 -4.65 -24.4 Q-4.55 -27.8 -3.1 -29.15 -0.6 -29.6 0.85 -24.9 L1.65 -20.25 1.65 -14.4" fill="#dbd3bb" fill-rule="evenodd" stroke="none"/>
    <path d="M1.65 -13.7 L2.3 -14.1 Q2.15 -14.5 1.65 -14.4 M2.3 -14.1 L2.3 -13.7 2.3 -13.4 2.25 -9.35 2.15 -7.9 1.9 -3.8 Q-0.5 -0.75 -3.45 -3.65 L-3.65 -6.25 -3.85 -9.35 -4.1 -14.1 -3.55 -14.4 M-4.1 -14.1 L-3.4 -13.75" fill="none" stroke="#4f4331" stroke-linecap="round" stroke-linejoin="round" stroke-width="0.05"/>
    <path d="M1.65 -14.4 L1.65 -13.7 Q-0.6 -12.55 -3.4 -13.75 L-3.55 -14.4 -4.4 -20.25 -4.65 -24.4 Q-4.55 -27.8 -3.1 -29.15 -0.6 -29.6 0.85 -24.9 L1.65 -20.25 1.65 -14.4" fill="none" stroke="#70633a" stroke-linecap="round" stroke-linejoin="round" stroke-width="0.05"/>
  </g>
</svg>
