<?xml version="1.0" encoding="UTF-8" standalone="no"?>
<svg xmlns:xlink="http://www.w3.org/1999/xlink" height="20.4px" width="15.9px" xmlns="http://www.w3.org/2000/svg">
  <g transform="matrix(1.0, 0.0, 0.0, 1.0, 7.85, 10.0)">
    <path d="M0.25 4.75 L-2.0 5.15 -6.2 3.6 -7.65 1.7 -7.65 0.6 -7.2 -0.7 -1.45 1.4 Q0.05 1.7 0.25 3.55 L0.25 4.75" fill="#ffdfc8" fill-rule="evenodd" stroke="none"/>
    <path d="M-2.6 2.0 L-2.5 1.9 Q-2.35 1.75 -2.15 1.75 L-1.8 1.9 -1.6 2.25 -1.7 2.55 -1.8 2.6 -2.15 2.8 -2.5 2.6 -2.65 2.25 -2.6 2.0 M-6.1 1.1 L-6.2 1.2 -6.45 1.3 -6.7 1.2 -6.8 0.9 -6.75 0.7 -6.7 0.55 -6.45 0.45 Q-6.3 0.45 -6.2 0.55 L-6.05 0.9 -6.1 1.1" fill="#ffffff" fill-rule="evenodd" stroke="none"/>
    <path d="M-1.7 2.55 L-1.7 2.9 -1.9 3.6 -2.35 3.9 -2.8 3.6 -3.0 2.9 -2.8 2.2 -2.6 2.0 -2.65 2.25 -2.5 2.6 -2.15 2.8 -1.8 2.6 -1.7 2.55" fill="#000000" fill-rule="evenodd" stroke="none"/>
    <path d="M-5.85 1.4 L-6.05 2.35 -6.55 2.75 -7.0 2.35 -7.2 1.4 -7.0 0.45 -6.55 0.05 Q-6.25 0.05 -6.05 0.45 L-5.85 1.4 M-6.75 0.7 L-6.85 0.8 -7.0 1.4 -6.85 2.0 -6.55 2.25 -6.2 2.0 -6.1 1.4 -6.1 1.1 -6.05 0.9 -6.2 0.55 Q-6.3 0.45 -6.45 0.45 L-6.7 0.55 -6.75 0.7" fill="#2c7bfe" fill-rule="evenodd" stroke="none"/>
    <path d="M-1.7 2.55 L-1.6 2.25 -1.8 1.9 -2.15 1.75 Q-2.35 1.75 -2.5 1.9 L-2.6 2.0 -2.8 2.2 -3.0 2.9 -2.8 3.6 -2.35 3.9 -1.9 3.6 -1.7 2.9 -1.7 2.55 M-1.35 2.9 Q-1.35 3.6 -1.65 4.05 -1.95 4.55 -2.35 4.55 -2.75 4.55 -3.05 4.05 L-3.3 2.9 Q-3.35 2.2 -3.05 1.75 -2.75 1.25 -2.35 1.25 -1.95 1.25 -1.65 1.75 -1.35 2.2 -1.35 2.9 M-6.1 1.1 L-6.1 1.4 -6.2 2.0 -6.55 2.25 -6.85 2.0 -7.0 1.4 -6.85 0.8 -6.75 0.7 -6.8 0.9 -6.7 1.2 -6.45 1.3 -6.2 1.2 -6.1 1.1" fill="#ffdfc8" fill-rule="evenodd" stroke="none"/>
    <path d="M6.5 3.2 L6.5 3.25 6.45 3.2 6.5 3.2" fill="#ffd0ae" fill-rule="evenodd" stroke="none"/>
    <path d="M6.5 3.25 L6.4 3.35 6.45 3.2 6.5 3.25" fill="#f5dfc5" fill-rule="evenodd" stroke="none"/>
    <path d="M4.75 -8.9 L6.3 -7.45 Q7.8 -5.7 8.05 -3.35 L8.05 -3.05 8.05 -1.35 Q7.75 1.15 6.5 3.2 L6.45 3.2 6.4 3.35 6.05 3.9 6.2 3.05 6.1 1.8 Q5.85 1.05 5.1 1.25 4.45 1.35 4.05 1.95 L1.5 2.65 Q3.05 1.7 5.65 -1.4 8.25 -4.5 4.75 -8.9" fill="#4e5667" fill-rule="evenodd" stroke="none"/>
    <path d="M-7.65 1.7 L-7.75 0.2 -7.85 -1.35 -7.5 -3.25 Q-6.8 -5.65 -4.95 -7.45 -2.4 -10.0 0.95 -10.0 3.1 -10.0 4.75 -8.9 8.25 -4.5 5.65 -1.4 3.05 1.7 1.5 2.65 -0.15 3.75 -3.15 3.6 -5.05 3.95 -5.85 3.0 L-5.85 2.95 Q-6.25 1.7 -7.65 1.7 M-5.95 1.5 L-5.85 2.95 -5.95 1.5" fill="#8892a6" fill-rule="evenodd" stroke="none"/>
    <path d="M-3.3 10.4 Q-5.25 10.05 -6.35 7.9 -7.45 5.75 -7.75 2.05 L-7.7 1.35 -7.65 1.7 Q-6.25 1.7 -5.85 2.95 L-5.85 3.0 Q-5.05 3.95 -3.15 3.6 -0.15 3.75 1.5 2.65 L1.5 4.55 Q1.7 7.7 -3.3 10.4 M4.05 1.95 Q4.45 1.35 5.1 1.25 5.85 1.05 6.1 1.8 L6.2 3.05 Q6.05 2.6 5.25 2.45 4.75 2.75 4.55 3.25 4.15 3.15 4.05 1.95 M-6.4 5.15 Q-5.95 4.05 -5.85 3.0 -5.95 4.05 -6.4 5.15 L-5.35 5.95 Q-5.6 4.8 -6.4 5.15 M-3.75 7.85 Q-4.75 7.7 -5.4 7.25 -4.75 7.7 -3.75 7.85" fill="#dbd3bb" fill-rule="evenodd" stroke="none"/>
    <path d="M6.05 3.9 L5.9 4.2 5.7 4.75 5.55 5.05 5.4 5.25 5.25 5.45 4.9 5.7 4.8 5.7 4.1 6.65 1.5 8.95 Q-0.65 10.5 -3.3 10.4 1.7 7.7 1.5 4.55 L1.5 2.65 4.05 1.95 Q4.15 3.15 4.55 3.25 4.75 2.75 5.25 2.45 6.05 2.6 6.2 3.05 L6.05 3.9 M4.9 4.9 L4.75 4.2 4.3 4.1 4.3 3.95 Q4.35 3.55 4.55 3.25 4.35 3.55 4.3 3.95 L4.3 4.1 4.75 4.2 4.9 4.9 M-6.4 5.15 Q-5.6 4.8 -5.35 5.95 L-6.4 5.15" fill="#cec4a4" fill-rule="evenodd" stroke="none"/>
    <path d="M4.75 -8.9 L6.3 -7.45 Q7.8 -5.7 8.05 -3.35 L8.05 -3.05 8.05 -1.35 Q7.75 1.15 6.5 3.2 L6.5 3.25 6.4 3.35 6.05 3.9 5.9 4.2 5.7 4.75 5.55 5.05 5.4 5.25 5.25 5.45 4.9 5.7 4.8 5.7 4.1 6.65 1.5 8.95 Q-0.65 10.5 -3.3 10.4 -5.25 10.05 -6.35 7.9 -7.45 5.75 -7.75 2.05 L-7.7 1.35 -7.65 1.7 M1.5 2.65 L4.05 1.95 Q4.45 1.35 5.1 1.25 5.85 1.05 6.1 1.8 L6.2 3.05 6.05 3.9 M4.55 3.25 Q4.35 3.55 4.3 3.95 L4.3 4.1 4.75 4.2 4.9 4.9 M4.55 3.25 Q4.75 2.75 5.25 2.45 M-5.85 3.0 Q-5.95 4.05 -6.4 5.15 L-5.35 5.95 M-5.4 7.25 Q-4.75 7.7 -3.75 7.85" fill="none" stroke="#70633a" stroke-linecap="round" stroke-linejoin="round" stroke-width="0.05"/>
    <path d="M-7.65 1.7 L-7.75 0.2 -7.85 -1.35 -7.5 -3.25 Q-6.8 -5.65 -4.95 -7.45 -2.4 -10.0 0.95 -10.0 3.1 -10.0 4.75 -8.9 M-7.65 1.7 Q-6.25 1.7 -5.85 2.95 L-5.95 1.5 M1.5 2.65 Q-0.15 3.75 -3.15 3.6 -5.05 3.95 -5.85 3.0 L-5.85 2.95" fill="none" stroke="#4e5667" stroke-linecap="round" stroke-linejoin="round" stroke-width="0.05"/>
    <path d="M-1.7 3.0 L-1.65 2.8 -1.8 2.5 -2.05 2.4 -2.35 2.5 -2.4 2.6 -3.0 2.8 -3.2 3.4 -3.0 3.95 -2.4 4.2 -1.85 3.95 -1.6 3.4 -1.7 3.0 M-1.5 2.35 Q-1.1 2.75 -1.1 3.3 -1.1 3.85 -1.5 4.2 -1.85 4.6 -2.4 4.6 -2.95 4.6 -3.35 4.2 -3.7 3.85 -3.7 3.3 -3.7 2.75 -3.35 2.35 -2.95 2.0 -2.4 2.0 -1.85 2.0 -1.5 2.35" fill="#f85701" fill-rule="evenodd" stroke="none"/>
    <path d="M-2.4 2.6 L-2.45 2.8 -2.35 3.05 -2.05 3.2 -1.8 3.05 -1.7 3.0 -1.6 3.4 -1.85 3.95 -2.4 4.2 -3.0 3.95 -3.2 3.4 -3.0 2.8 -2.4 2.6" fill="#832401" fill-rule="evenodd" stroke="none"/>
    <path d="M-1.7 3.0 L-1.8 3.05 -2.05 3.2 -2.35 3.05 -2.45 2.8 -2.4 2.6 -2.35 2.5 -2.05 2.4 -1.8 2.5 -1.65 2.8 -1.7 3.0" fill="#feb498" fill-rule="evenodd" stroke="none"/>
    <path d="M-1.5 2.35 Q-1.1 2.75 -1.1 3.3 -1.1 3.85 -1.5 4.2 -1.85 4.6 -2.4 4.6 -2.95 4.6 -3.35 4.2 -3.7 3.85 -3.7 3.3 -3.7 2.75 -3.35 2.35 -2.95 2.0 -2.4 2.0 -1.85 2.0 -1.5 2.35 Z" fill="none" stroke="#ad0101" stroke-linecap="round" stroke-linejoin="round" stroke-width="0.05"/>
    <path d="M-6.2 1.55 L-6.2 1.4 -6.25 1.15 -6.4 1.05 -6.55 1.15 -6.65 1.2 -7.0 1.4 -7.1 1.85 -7.0 2.3 -6.7 2.5 -6.3 2.3 Q-6.15 2.15 -6.15 1.85 L-6.2 1.55 M-6.6 0.75 Q-6.25 0.75 -6.05 1.0 L-5.85 1.8 Q-5.85 2.2 -6.15 2.5 -6.35 2.8 -6.7 2.8 L-7.25 2.5 -7.4 1.8 -7.15 1.0 Q-6.9 0.75 -6.6 0.75" fill="#f85701" fill-rule="evenodd" stroke="none"/>
    <path d="M-6.2 1.55 L-6.15 1.85 Q-6.15 2.15 -6.3 2.3 L-6.7 2.5 -7.0 2.3 -7.1 1.85 -7.0 1.4 -6.65 1.2 -6.65 1.4 -6.6 1.6 -6.45 1.7 -6.3 1.6 -6.2 1.55" fill="#832401" fill-rule="evenodd" stroke="none"/>
    <path d="M-6.65 1.2 L-6.55 1.15 -6.4 1.05 -6.25 1.15 -6.2 1.4 -6.2 1.55 -6.3 1.6 -6.45 1.7 -6.6 1.6 -6.65 1.4 -6.65 1.2" fill="#feb498" fill-rule="evenodd" stroke="none"/>
    <path d="M-6.6 0.75 Q-6.25 0.75 -6.05 1.0 L-5.85 1.8 Q-5.85 2.2 -6.15 2.5 -6.35 2.8 -6.7 2.8 L-7.25 2.5 -7.4 1.8 -7.15 1.0 Q-6.9 0.75 -6.6 0.75 Z" fill="none" stroke="#ad0101" stroke-linecap="round" stroke-linejoin="round" stroke-width="0.05"/>
    <path d="M-5.9 1.0 Q-6.55 1.45 -7.65 1.7 -7.1 -0.55 -5.9 1.0 M-3.9 1.6 Q-0.9 0.7 -0.45 3.45 -2.4 2.8 -3.9 1.6" fill="#8892a6" fill-rule="evenodd" stroke="none"/>
    <path d="M-7.65 1.7 Q-6.55 1.45 -5.9 1.0 M-3.9 1.6 Q-2.4 2.8 -0.45 3.45" fill="none" stroke="#70633a" stroke-linecap="round" stroke-linejoin="round" stroke-width="0.05"/>
  </g>
</svg>
