<?xml version="1.0" encoding="UTF-8" standalone="no"?>
<svg xmlns:xlink="http://www.w3.org/1999/xlink" height="99.5px" width="132.15px" xmlns="http://www.w3.org/2000/svg">
  <g transform="matrix(1.0, 0.0, 0.0, 1.0, 3.75, 61.95)">
    <path d="M117.55 -5.15 L116.8 -4.95 117.55 -5.45 117.55 -5.15" fill="#ffffff" fill-rule="evenodd" stroke="none"/>
    <path d="M66.6 -61.4 Q68.15 -60.45 68.05 -57.8 L62.45 -45.8 52.35 -22.95 Q67.4 -10.5 66.15 9.5 L59.9 9.95 46.6 10.2 Q26.2 9.8 10.5 4.6 L5.05 2.55 5.2 2.2 Q11.5 -40.35 66.6 -61.4 M106.65 -54.5 Q108.35 -53.95 107.4 -52.25 L94.1 -34.1 89.05 -26.35 Q103.5 -14.45 102.65 1.85 96.15 4.25 88.8 6.0 80.85 7.9 72.0 8.95 74.85 -11.2 61.0 -20.65 60.45 -35.75 106.65 -54.5 M127.35 -24.3 L128.3 -21.85 Q128.7 -20.4 127.75 -16.65 126.85 -12.9 117.65 -5.4 L117.55 -5.45 116.8 -4.95 Q114.0 -3.2 110.55 -1.55 109.45 -12.6 104.65 -17.85 108.85 -26.1 127.35 -24.3" fill="#8e7cd8" fill-rule="evenodd" stroke="none"/>
    <path d="M117.55 -5.15 L109.4 12.5 90.45 23.75 Q93.95 16.2 88.8 6.0 96.15 4.25 102.65 1.85 L108.6 -0.6 110.55 -1.55 Q114.0 -3.2 116.8 -4.95 L117.55 -5.15" fill="#ca7928" fill-rule="evenodd" stroke="none"/>
    <path d="M62.45 -45.8 Q100.7 -56.55 106.65 -54.5 60.45 -35.75 61.0 -20.65 74.85 -11.2 72.0 8.95 L66.15 9.5 Q67.4 -10.5 52.35 -22.95 L62.45 -45.8 M94.1 -34.1 L98.0 -32.1 98.15 -32.05 98.15 -32.15 Q106.6 -33.5 121.25 -28.4 126.55 -26.25 127.35 -24.3 108.85 -26.1 104.65 -17.85 109.45 -12.6 110.55 -1.55 L108.6 -0.6 102.65 1.85 Q103.5 -14.45 89.05 -26.35 L94.1 -34.1 M-3.75 -2.35 L-3.5 -6.7 Q-2.85 -11.85 -0.8 -16.45 4.3 -28.2 18.15 -36.85 L20.75 -38.45 23.4 -39.85 Q59.95 -65.5 66.6 -61.4 11.5 -40.35 5.2 2.2 L5.05 2.55 2.05 1.2 Q-1.3 -0.5 -3.75 -2.35" fill="#6d60ce" fill-rule="evenodd" stroke="none"/>
    <path d="M38.5 32.2 L38.4 37.55 Q24.55 32.45 13.5 22.85 L5.85 16.25 Q-2.85 8.75 -3.75 -2.35 -1.3 -0.5 2.05 1.2 L5.05 2.55 10.5 4.6 Q26.2 9.8 46.6 10.2 47.15 31.1 38.5 32.2" fill="#a26120" fill-rule="evenodd" stroke="none"/>
    <path d="M90.45 23.75 L90.45 30.75 Q64.4 37.35 38.5 32.2 47.15 31.1 46.6 10.2 L59.9 9.95 66.15 9.5 72.0 8.95 Q80.85 7.9 88.8 6.0 93.95 16.2 90.45 23.75" fill="#b56c24" fill-rule="evenodd" stroke="none"/>
    <path d="M117.55 -5.15 L117.55 -5.45" fill="none" stroke="#999999" stroke-linecap="round" stroke-linejoin="round" stroke-width="0.05"/>
    <path d="M98.0 -32.1 L98.15 -32.15 M117.65 -5.4 L117.55 -5.15" fill="none" stroke="#333333" stroke-linecap="round" stroke-linejoin="round" stroke-width="0.05"/>
    <path d="M66.6 -61.4 Q68.15 -60.45 68.05 -57.8 L62.45 -45.8 Q100.7 -56.55 106.65 -54.5 108.35 -53.95 107.4 -52.25 L94.1 -34.1 98.0 -32.1 98.15 -32.05 98.15 -32.15 Q106.6 -33.5 121.25 -28.4 126.55 -26.25 127.35 -24.3 L128.3 -21.85 Q128.7 -20.4 127.75 -16.65 126.85 -12.9 117.65 -5.4 L117.55 -5.45 116.8 -4.95 Q114.0 -3.2 110.55 -1.55 L108.6 -0.6 102.65 1.85 Q103.5 -14.45 89.05 -26.35 L94.1 -34.1 M-3.75 -2.35 L-3.5 -6.7 Q-2.85 -11.85 -0.8 -16.45 4.3 -28.2 18.15 -36.85 L20.75 -38.45 23.4 -39.85 Q59.95 -65.5 66.6 -61.4 M5.05 2.55 L10.5 4.6 Q26.2 9.8 46.6 10.2 L59.9 9.95 66.15 9.5 Q67.4 -10.5 52.35 -22.95 L62.45 -45.8 M72.0 8.95 Q80.85 7.9 88.8 6.0 96.15 4.25 102.65 1.85 M72.0 8.95 L66.15 9.5 M5.05 2.55 L2.05 1.2 Q-1.3 -0.5 -3.75 -2.35" fill="none" stroke="#3e309e" stroke-linecap="round" stroke-linejoin="round" stroke-width="0.05"/>
    <path d="M117.55 -5.15 L109.4 12.5 90.45 23.75 90.45 30.75 Q64.4 37.35 38.5 32.2 L38.4 37.55 Q24.55 32.45 13.5 22.85 L5.85 16.25 Q-2.85 8.75 -3.75 -2.35 M116.8 -4.95 L117.55 -5.15 M90.45 23.75 Q93.95 16.2 88.8 6.0 M38.5 32.2 Q47.15 31.1 46.6 10.2" fill="none" stroke="#834e1b" stroke-linecap="round" stroke-linejoin="round" stroke-width="0.05"/>
  </g>
</svg>
