<?xml version="1.0" encoding="UTF-8" standalone="no"?>
<svg xmlns:xlink="http://www.w3.org/1999/xlink" height="103.7px" width="48.15px" xmlns="http://www.w3.org/2000/svg">
  <g transform="matrix(1.0, 0.0, 0.0, 1.0, 18.85, 73.7)">
    <path d="M-13.05 -20.45 L-13.05 -20.5 -13.0 -20.45 -13.05 -20.45" fill="#ffdfc8" fill-rule="evenodd" stroke="none"/>
    <path d="M-13.05 -20.4 L-13.05 -20.45 -13.0 -20.45 -13.05 -20.4" fill="#618f5c" fill-rule="evenodd" stroke="none"/>
    <path d="M-4.8 -60.6 Q-4.85 -63.55 -5.2 -67.55 L-5.65 -72.6 Q0.95 -71.8 6.8 -73.7 L7.1 -68.3 7.9 -61.65 Q8.25 -59.25 8.75 -57.05 L8.85 -56.7 4.25 -56.05 3.8 -49.0 3.8 -48.95 0.8 -49.05 Q-3.1 -49.6 -5.1 -51.05 -6.25 -51.9 -6.25 -52.55 -6.35 -53.05 -5.85 -53.45 L-5.85 -53.5 -5.8 -53.5 -5.65 -53.65 Q-5.3 -54.45 -5.05 -55.7 L-5.05 -55.9 Q-4.4 -58.25 -4.8 -60.6 M20.55 -47.35 L20.65 -47.35 Q30.95 -45.4 28.95 -28.2 L28.0 -24.25 27.6 -23.0 26.25 -19.1 22.9 -22.25 24.0 -24.05 Q25.4 -26.95 25.5 -30.95 25.65 -35.0 24.45 -37.8 23.25 -40.55 21.4 -40.5 19.55 -40.45 18.1 -37.6 16.7 -34.75 16.55 -30.75 16.45 -26.7 17.65 -23.9 18.15 -22.75 18.75 -22.05 14.65 -19.6 10.6 -19.25 L10.35 -19.95 10.6 -19.25 10.35 -19.25 10.35 -19.95 10.3 -21.85 Q10.35 -42.75 20.55 -47.3 L20.55 -47.35 M20.65 -47.35 L20.55 -47.3 20.65 -47.35 M12.9 -7.05 L12.9 -7.0 12.8 -7.0 12.9 -7.0 12.75 -6.5 12.8 -7.0 12.9 -7.05" fill="#dd9d51" fill-rule="evenodd" stroke="none"/>
    <path d="M16.7 -59.75 L17.9 -53.3 18.65 -51.7 Q20.1 -47.65 20.55 -47.35 L20.55 -47.3 Q10.35 -42.75 10.3 -21.85 L5.4 -22.35 Q2.0 -24.5 -3.7 -25.45 L-4.2 -25.55 Q-6.3 -25.85 -9.65 -24.85 -12.15 -25.8 -14.55 -28.1 -16.9 -30.35 -18.5 -32.9 -19.45 -37.15 -17.7 -42.95 -15.45 -50.75 -13.0 -51.95 L-12.45 -57.9 Q-12.35 -56.75 -8.6 -56.15 L-8.6 -53.95 -8.6 -43.5 Q-2.95 -41.0 3.8 -41.6 L3.8 -41.1 Q12.25 -45.05 18.2 -49.55 L18.5 -49.8 17.9 -53.3 18.5 -49.8 18.2 -49.55 Q12.25 -45.05 3.8 -41.1 L3.8 -41.6 3.8 -48.95 3.8 -49.0 4.25 -56.05 8.85 -56.7 8.85 -56.75 12.65 -57.4 Q16.85 -58.5 16.7 -59.75 M-12.4 6.55 L-12.5 5.45 -12.75 0.45 -12.9 -3.35 Q-13.3 -5.1 -13.0 -8.35 -12.7 -11.65 -11.75 -13.0 -11.3 -13.05 -10.55 -14.1 -9.9 -15.8 -8.8 -16.85 -6.8 -18.8 -3.75 -19.0 L-2.0 -19.0 Q0.05 -18.3 2.35 -16.85 L3.0 -16.45 Q6.35 -14.0 8.8 -10.1 9.25 -9.35 9.8 -8.75 11.1 -7.35 12.8 -7.0 L12.75 -6.5 12.45 3.0 3.85 3.25 3.25 3.25 -2.5 2.95 -3.05 2.8 -3.4 2.7 -3.05 2.8 -2.5 2.95 3.25 3.25 3.85 3.25 12.45 3.0 12.4 3.6 11.9 5.3 Q5.85 20.9 -3.65 18.25 L-3.7 18.75 -3.7 18.25 -3.7 18.15 Q-9.95 18.95 -12.4 6.55 M-5.85 -53.5 L-5.85 -53.45 -5.85 -53.5 M-13.0 -51.95 L-13.3 -48.65 -13.25 -48.45 Q-11.95 -45.2 -8.6 -43.35 L-8.6 -43.5 -8.6 -43.35 Q-11.95 -45.2 -13.25 -48.45 L-13.3 -48.65 -13.0 -51.95 M-3.4 2.7 L-4.85 0.25 Q-7.5 -6.1 -3.75 -19.0 -7.5 -6.1 -4.85 0.25 L-3.4 2.7 Q-7.1 1.7 -9.4 0.35 L-10.95 -0.75 -11.4 -1.1 Q-12.5 -2.15 -12.9 -3.35 -12.5 -2.15 -11.4 -1.1 L-10.95 -0.75 -9.4 0.35 Q-7.1 1.7 -3.4 2.7 -4.05 11.35 -3.7 18.15 -4.05 11.35 -3.4 2.7" fill="#8e7cd8" fill-rule="evenodd" stroke="none"/>
    <path d="M-5.8 -53.5 L-5.85 -53.5 -5.8 -53.5" fill="#392783" fill-rule="evenodd" stroke="none"/>
    <path d="M26.25 -19.1 L23.55 -12.1 23.0 -11.7 22.7 -9.9 Q21.1 -2.5 21.15 -0.5 21.2 0.15 21.4 0.2 21.95 1.65 21.5 4.05 23.65 13.65 20.15 19.2 16.65 24.75 11.3 24.4 6.0 24.05 6.5 22.4 L11.9 5.3 12.4 3.6 12.45 3.0 12.75 -6.5 12.9 -7.0 12.9 -7.05 10.6 -19.25 Q14.65 -19.6 18.75 -22.05 19.65 -21.05 20.75 -21.1 21.9 -21.15 22.9 -22.25 L26.25 -19.1 M21.0 -10.35 Q20.85 -12.5 20.25 -14.1 19.45 -16.4 18.1 -16.4 16.8 -16.35 15.8 -13.95 14.85 -11.55 14.75 -8.15 L14.75 -7.0 Q13.8 -6.85 12.9 -7.0 13.8 -6.85 14.75 -7.0 14.8 -4.35 15.45 -2.4 16.0 -0.95 16.7 -0.4 17.1 -0.1 17.6 -0.1 18.1 -0.1 18.6 -0.45 19.3 -1.05 19.9 -2.55 20.9 -4.95 21.0 -8.35 L21.0 -10.35 23.0 -11.7 21.0 -10.35 M21.4 0.2 Q18.65 2.35 12.45 3.0 18.65 2.35 21.4 0.2 M16.7 4.1 L16.35 4.05 16.3 4.05 Q14.95 4.15 13.9 6.5 12.85 8.9 12.8 12.2 12.75 15.55 13.7 17.85 14.6 20.2 16.0 20.15 17.4 20.05 18.45 17.65 19.45 15.25 19.55 11.95 L19.55 10.55 Q19.4 8.15 18.65 6.3 17.85 4.25 16.7 4.1" fill="#ca7928" fill-rule="evenodd" stroke="none"/>
    <path d="M18.75 -22.05 Q18.15 -22.75 17.65 -23.9 16.45 -26.7 16.55 -30.75 16.7 -34.75 18.1 -37.6 19.55 -40.45 21.4 -40.5 23.25 -40.55 24.45 -37.8 25.65 -35.0 25.5 -30.95 25.4 -26.95 24.0 -24.05 L22.9 -22.25 Q21.9 -21.15 20.75 -21.1 19.65 -21.05 18.75 -22.05 M14.75 -7.0 L14.75 -8.15 Q14.85 -11.55 15.8 -13.95 16.8 -16.35 18.1 -16.4 19.45 -16.4 20.25 -14.1 20.85 -12.5 21.0 -10.35 L21.0 -8.35 Q20.9 -4.95 19.9 -2.55 19.3 -1.05 18.6 -0.45 18.1 -0.1 17.6 -0.1 17.1 -0.1 16.7 -0.4 16.0 -0.95 15.45 -2.4 14.8 -4.35 14.75 -7.0 M16.7 4.1 Q17.85 4.25 18.65 6.3 19.4 8.15 19.55 10.55 L19.55 11.95 Q19.45 15.25 18.45 17.65 17.4 20.05 16.0 20.15 14.6 20.2 13.7 17.85 12.75 15.55 12.8 12.2 12.85 8.9 13.9 6.5 14.95 4.15 16.3 4.05 L16.35 4.05 16.7 4.1" fill="#242424" fill-rule="evenodd" stroke="none"/>
    <path d="M6.5 22.4 L4.1 30.0 -2.8 26.55 -9.7 23.05 -12.4 6.55 Q-9.95 18.95 -3.7 18.15 L-3.7 18.25 -3.7 18.75 -3.65 18.25 Q5.85 20.9 11.9 5.3 L6.5 22.4 M-11.75 -13.0 Q-12.9 -17.0 -13.05 -20.4 L-13.0 -20.45 -13.0 -20.5 -13.1 -24.0 -13.45 -24.4 -13.45 -24.45 Q-15.4 -26.6 -16.7 -28.8 -18.0 -30.65 -18.5 -32.9 -16.9 -30.35 -14.55 -28.1 -12.15 -25.8 -9.65 -24.85 -6.3 -25.85 -4.2 -25.55 L-3.7 -25.45 Q2.0 -24.5 5.4 -22.35 L10.3 -21.85 10.35 -19.95 10.35 -19.25 10.6 -19.25 12.9 -7.05 12.8 -7.0 Q11.1 -7.35 9.8 -8.75 9.25 -9.35 8.8 -10.1 6.35 -14.0 3.0 -16.45 L2.35 -16.85 Q0.05 -18.3 -2.0 -19.0 L-3.75 -19.0 -4.2 -22.95 -3.75 -19.0 Q-6.8 -18.8 -8.8 -16.85 -9.9 -15.8 -10.55 -14.1 -11.3 -13.05 -11.75 -13.0 M-5.85 -53.45 Q-6.35 -53.05 -6.25 -52.55 -6.25 -51.9 -5.1 -51.05 -3.1 -49.6 0.8 -49.05 L3.8 -48.95 3.8 -41.6 Q-2.95 -41.0 -8.6 -43.5 L-8.6 -53.95 -5.85 -53.5 -5.85 -53.45 M-4.2 -22.95 L-3.7 -22.85 Q2.0 -21.9 5.4 -19.75 L10.35 -19.25 5.4 -19.75 Q2.0 -21.9 -3.7 -22.85 L-4.2 -22.95 Q-6.3 -23.25 -9.65 -22.25 -12.15 -23.2 -13.1 -24.0 -12.15 -23.2 -9.65 -22.25 -6.3 -23.25 -4.2 -22.95 M-2.8 26.55 Q-3.45 23.0 -3.7 18.75 -3.45 23.0 -2.8 26.55" fill="#6557cc" fill-rule="evenodd" stroke="none"/>
    <path d="M7.9 -61.65 L12.4 -61.6 Q16.7 -61.0 16.7 -59.75 16.85 -58.5 12.65 -57.4 L8.85 -56.75 8.75 -57.05 Q8.25 -59.25 7.9 -61.65 M-12.45 -57.9 Q-12.45 -59.15 -8.2 -60.25 L-4.8 -60.6 Q-4.4 -58.25 -5.05 -55.9 L-5.05 -55.7 Q-5.3 -54.45 -5.65 -53.65 L-5.8 -53.5 -5.85 -53.5 -8.6 -53.95 -8.6 -56.15 Q-12.35 -56.75 -12.45 -57.9" fill="#28206a" fill-rule="evenodd" stroke="none"/>
    <path d="M7.9 -61.65 L12.4 -61.6 Q16.7 -61.0 16.7 -59.75 L17.9 -53.3 18.65 -51.7 Q20.1 -47.65 20.55 -47.35 L20.65 -47.35 M-12.4 6.55 L-12.5 5.45 -12.75 0.45 -12.9 -3.35 Q-13.3 -5.1 -13.0 -8.35 -12.7 -11.65 -11.75 -13.0 -12.9 -17.0 -13.05 -20.4 M-13.05 -20.45 L-13.05 -20.5 M-13.0 -20.45 L-13.0 -20.5 -13.1 -24.0 -13.45 -24.4 -13.45 -24.45 Q-15.4 -26.6 -16.7 -28.8 -18.0 -30.65 -18.5 -32.9 -19.45 -37.15 -17.7 -42.95 -15.45 -50.75 -13.0 -51.95 L-12.45 -57.9 Q-12.45 -59.15 -8.2 -60.25 L-4.8 -60.6 M-5.85 -53.5 L-5.85 -53.45 Q-6.35 -53.05 -6.25 -52.55 -6.25 -51.9 -5.1 -51.05 -3.1 -49.6 0.8 -49.05 L3.8 -48.95 3.8 -49.0 4.25 -56.05 8.85 -56.7 8.85 -56.75 12.65 -57.4 Q16.85 -58.5 16.7 -59.75 M17.9 -53.3 L18.5 -49.8 18.2 -49.55 Q12.25 -45.05 3.8 -41.1 L3.8 -41.6 3.8 -48.95 M-8.6 -43.5 L-8.6 -43.35 Q-11.95 -45.2 -13.25 -48.45 L-13.3 -48.65 -13.0 -51.95 M20.55 -47.35 L20.55 -47.3 Q10.35 -42.75 10.3 -21.85 L10.35 -19.95 10.35 -19.25 10.6 -19.25 M12.8 -7.0 Q11.1 -7.35 9.8 -8.75 9.25 -9.35 8.8 -10.1 6.35 -14.0 3.0 -16.45 L2.35 -16.85 Q0.05 -18.3 -2.0 -19.0 L-3.75 -19.0 Q-6.8 -18.8 -8.8 -16.85 -9.9 -15.8 -10.55 -14.1 -11.3 -13.05 -11.75 -13.0 M-3.4 2.7 L-3.05 2.8 -2.5 2.95 3.25 3.25 3.85 3.25 12.45 3.0 M12.8 -7.0 L12.9 -7.0 M10.35 -19.25 L5.4 -19.75 Q2.0 -21.9 -3.7 -22.85 L-4.2 -22.95 Q-6.3 -23.25 -9.65 -22.25 -12.15 -23.2 -13.1 -24.0 M-5.85 -53.5 L-8.6 -53.95 -8.6 -43.5 M-8.6 -56.15 Q-12.35 -56.75 -12.45 -57.9 M-12.9 -3.35 Q-12.5 -2.15 -11.4 -1.1 L-10.95 -0.75 -9.4 0.35 Q-7.1 1.7 -3.4 2.7" fill="none" stroke="#3e309e" stroke-linecap="round" stroke-linejoin="round" stroke-width="0.05"/>
    <path d="M6.5 22.4 L4.1 30.0 -2.8 26.55 -9.7 23.05 -12.4 6.55 M10.6 -19.25 L12.9 -7.05 M10.6 -19.25 L10.35 -19.95 M-3.75 -19.0 Q-7.5 -6.1 -4.85 0.25 L-3.4 2.7 Q-4.05 11.35 -3.7 18.15 L-3.7 18.25 -3.7 18.75 Q-3.45 23.0 -2.8 26.55 M12.45 3.0 L12.75 -6.5 12.8 -7.0 M-4.2 -22.95 L-3.75 -19.0 M-8.6 -53.95 L-8.6 -56.15 M11.9 5.3 L12.4 3.6 M11.9 5.3 L6.5 22.4" fill="none" stroke="#3e309e" stroke-linecap="round" stroke-linejoin="round" stroke-width="0.05"/>
    <path d="M16.7 -0.4 Q17.1 -0.1 17.6 -0.1 18.1 -0.1 18.6 -0.45 M12.4 3.6 L12.45 3.0" fill="none" stroke="#834e1b" stroke-linecap="round" stroke-linejoin="round" stroke-width="0.05"/>
    <path d="M-4.8 -60.6 Q-4.85 -63.55 -5.2 -67.55 L-5.65 -72.6 Q0.95 -71.8 6.8 -73.7 L7.1 -68.3 7.9 -61.65 Q8.25 -59.25 8.75 -57.05 L8.85 -56.7 M20.65 -47.35 Q30.95 -45.4 28.95 -28.2 L28.0 -24.25 27.6 -23.0 26.25 -19.1 23.55 -12.1 23.0 -11.7 22.7 -9.9 Q21.1 -2.5 21.15 -0.5 21.2 0.15 21.4 0.2 21.95 1.65 21.5 4.05 23.65 13.65 20.15 19.2 16.65 24.75 11.3 24.4 6.0 24.05 6.5 22.4 M-4.8 -60.6 Q-4.4 -58.25 -5.05 -55.9 L-5.05 -55.7 Q-5.3 -54.45 -5.65 -53.65 L-5.8 -53.5 -5.85 -53.5 M18.75 -22.05 Q18.15 -22.75 17.65 -23.9 16.45 -26.7 16.55 -30.75 16.7 -34.75 18.1 -37.6 19.55 -40.45 21.4 -40.5 23.25 -40.55 24.45 -37.8 25.65 -35.0 25.5 -30.95 25.4 -26.95 24.0 -24.05 L22.9 -22.25 26.25 -19.1 M20.55 -47.3 L20.65 -47.35 M14.75 -7.0 L14.75 -8.15 Q14.85 -11.55 15.8 -13.95 16.8 -16.35 18.1 -16.4 19.45 -16.4 20.25 -14.1 20.85 -12.5 21.0 -10.35 L23.0 -11.7 M18.75 -22.05 Q14.65 -19.6 10.6 -19.25 M12.9 -7.05 L12.9 -7.0 Q13.8 -6.85 14.75 -7.0 14.8 -4.35 15.45 -2.4 16.0 -0.95 16.7 -0.4 M18.6 -0.45 Q19.3 -1.05 19.9 -2.55 20.9 -4.95 21.0 -8.35 L21.0 -10.35 M12.9 -7.0 L12.75 -6.5 M22.9 -22.25 Q21.9 -21.15 20.75 -21.1 19.65 -21.05 18.75 -22.05 M12.45 3.0 Q18.65 2.35 21.4 0.2 M16.7 4.1 Q17.85 4.25 18.65 6.3 19.4 8.15 19.55 10.55 L19.55 11.95 Q19.45 15.25 18.45 17.65 17.4 20.05 16.0 20.15 14.6 20.2 13.7 17.85 12.75 15.55 12.8 12.2 12.85 8.9 13.9 6.5 14.95 4.15 16.3 4.05 L16.35 4.05 16.7 4.1" fill="none" stroke="#834e1b" stroke-linecap="round" stroke-linejoin="round" stroke-width="0.05"/>
  </g>
</svg>
