<?xml version="1.0" encoding="UTF-8" standalone="no"?>
<svg xmlns:xlink="http://www.w3.org/1999/xlink" height="43.2px" width="32.65px" xmlns="http://www.w3.org/2000/svg">
  <g transform="matrix(1.0, 0.0, 0.0, 1.0, 11.9, 15.55)">
    <path d="M-9.2 15.25 L-9.7 13.55 Q-8.7 13.45 -7.8 11.85 L-7.8 11.8 Q-6.85 10.05 -6.6 7.7 -6.35 5.25 -6.9 3.5 -7.4 2.0 -8.25 1.85 L-8.55 1.8 Q-9.45 1.8 -10.25 2.95 L-10.4 2.95 -9.7 -1.05 Q-8.6 -5.55 -6.05 -9.15 -2.75 -13.9 1.6 -15.1 -0.4 -8.45 -1.35 -2.4 L-1.45 -1.55 -1.65 -1.6 Q-2.1 -1.6 -2.5 -0.8 -2.9 -0.05 -2.95 1.05 L-3.0 1.65 -2.75 2.95 Q-2.5 3.7 -2.1 3.75 -2.8 13.1 -0.25 22.35 L-5.5 17.7 -5.5 20.55 -9.2 15.25 M-5.95 -6.85 L-6.6 -6.6 -6.9 -5.9 -6.6 -5.25 Q-6.35 -4.95 -5.95 -4.95 -5.55 -4.95 -5.25 -5.25 -4.95 -5.55 -4.95 -5.9 -4.95 -6.3 -5.25 -6.6 L-5.95 -6.85 M-3.6 14.2 L-3.55 15.45 -3.1 16.65 -2.6 17.15 Q-2.35 17.15 -2.25 16.65 L-2.25 15.45 -2.7 14.2 Q-3.0 13.7 -3.25 13.75 -3.5 13.7 -3.6 14.2" fill="#c69488" fill-rule="evenodd" stroke="none"/>
    <path d="M9.35 -4.85 L9.0 -4.2 Q8.75 -3.9 8.35 -3.9 7.95 -3.9 7.65 -4.2 L7.4 -4.85 7.65 -5.55 Q7.95 -5.85 8.35 -5.85 L9.0 -5.55 9.35 -4.85 M-5.95 -6.85 L-5.25 -6.6 Q-4.95 -6.3 -4.95 -5.9 -4.95 -5.55 -5.25 -5.25 -5.55 -4.95 -5.95 -4.95 -6.35 -4.95 -6.6 -5.25 L-6.9 -5.9 -6.6 -6.6 -5.95 -6.85" fill="#b36d5e" fill-rule="evenodd" stroke="none"/>
    <path d="M-1.45 -1.55 L-0.95 -0.8 -0.8 -0.45 -0.7 1.05 Q-0.8 2.15 -1.2 2.95 -1.6 3.75 -2.05 3.75 L-2.1 3.75 Q-2.5 3.7 -2.75 2.95 L-3.0 1.65 -2.95 1.05 Q-2.9 -0.05 -2.5 -0.8 -2.1 -1.6 -1.65 -1.6 L-1.45 -1.55 M-1.5 -0.65 L-1.55 -0.7 -1.7 -0.8 -1.8 -0.8 -2.3 -0.4 -2.55 0.7 -2.5 1.65 -2.45 1.8 -2.15 2.2 -2.05 2.25 -2.0 2.25 -1.55 1.8 -1.25 0.7 -1.25 0.4 -1.4 -0.4 -1.5 -0.65" fill="#bda48a" fill-rule="evenodd" stroke="none"/>
    <path d="M-1.5 -0.65 L-1.4 -0.4 -1.25 0.4 -1.25 0.7 -1.55 1.8 -2.0 2.25 -2.05 2.25 -2.15 2.2 -2.45 1.8 -2.5 1.65 -2.55 0.7 -2.3 -0.4 -1.8 -0.8 -1.7 -0.8 -1.55 -0.7 -1.5 -0.65" fill="#cdbaa5" fill-rule="evenodd" stroke="none"/>
    <path d="M-9.7 13.55 L-9.85 13.6 Q-10.9 13.6 -11.5 11.85 -12.05 10.1 -11.8 7.7 -11.55 5.25 -10.55 3.5 L-10.4 3.2 -10.25 3.0 -10.25 2.95 Q-9.45 1.8 -8.55 1.8 L-8.25 1.85 Q-7.4 2.0 -6.9 3.5 -6.35 5.25 -6.6 7.7 -6.85 10.05 -7.8 11.8 L-7.8 11.85 Q-8.7 13.45 -9.7 13.55" fill="#51d957" fill-rule="evenodd" stroke="none"/>
    <path d="M1.6 -15.1 L4.75 -15.55 Q11.1 -15.55 15.6 -9.15 20.05 -2.8 20.05 6.2 L19.95 8.8 7.65 20.0 6.1 16.4 -0.25 22.35 Q-2.8 13.1 -2.1 3.75 L-2.05 3.75 Q-1.6 3.75 -1.2 2.95 -0.8 2.15 -0.7 1.05 L-0.8 -0.45 -0.95 -0.8 -1.45 -1.55 -1.35 -2.4 Q-0.4 -8.45 1.6 -15.1 M2.1 27.65 Q-0.95 26.6 -3.35 23.35 L-7.1 20.0 Q-10.15 17.1 -9.2 15.25 L-5.5 20.55 -5.5 17.7 -0.25 22.35 Q1.0 26.95 2.1 27.65 M9.35 -4.85 L9.0 -5.55 8.35 -5.85 Q7.95 -5.85 7.65 -5.55 L7.4 -4.85 7.65 -4.2 Q7.95 -3.9 8.35 -3.9 8.75 -3.9 9.0 -4.2 L9.35 -4.85 M13.1 7.7 Q12.65 5.25 11.15 3.5 9.65 1.8 8.0 1.8 6.35 1.8 5.45 3.5 4.55 5.25 5.0 7.7 5.4 10.1 6.9 11.85 8.4 13.6 10.05 13.6 11.7 13.6 12.6 11.85 13.5 10.1 13.1 7.7 M0.55 14.3 Q0.4 13.7 0.1 13.75 -0.25 13.7 -0.5 14.3 -0.8 14.85 -0.9 15.75 L-0.8 17.15 Q-0.65 17.75 -0.3 17.75 -0.05 17.75 0.25 17.15 L0.65 15.75 0.55 14.3" fill="#c0887a" fill-rule="evenodd" stroke="none"/>
    <path d="M0.55 14.3 L0.65 15.75 0.25 17.15 Q-0.05 17.75 -0.3 17.75 -0.65 17.75 -0.8 17.15 L-0.9 15.75 Q-0.8 14.85 -0.5 14.3 -0.25 13.7 0.1 13.75 0.4 13.7 0.55 14.3 M-3.6 14.2 Q-3.5 13.7 -3.25 13.75 -3.0 13.7 -2.7 14.2 L-2.25 15.45 -2.25 16.65 Q-2.35 17.15 -2.6 17.15 L-3.1 16.65 -3.55 15.45 -3.6 14.2" fill="#a35950" fill-rule="evenodd" stroke="none"/>
    <path d="M19.95 8.8 Q22.45 9.7 17.3 15.2 L9.15 23.9 Q8.65 26.2 7.05 26.65 L2.1 27.65 Q1.0 26.95 -0.25 22.35 L6.1 16.4 7.65 20.0 19.95 8.8" fill="#b06459" fill-rule="evenodd" stroke="none"/>
    <path d="M1.6 -15.1 L4.75 -15.55 Q11.1 -15.55 15.6 -9.15 20.05 -2.8 20.05 6.2 L19.95 8.8 Q22.45 9.7 17.3 15.2 L9.15 23.9 Q8.65 26.2 7.05 26.65 L2.1 27.65 Q-0.95 26.6 -3.35 23.35 L-7.1 20.0 Q-10.15 17.1 -9.2 15.25 L-9.7 13.55 Q-8.7 13.45 -7.8 11.85 L-7.8 11.8 Q-6.85 10.05 -6.6 7.7 -6.35 5.25 -6.9 3.5 -7.4 2.0 -8.25 1.85 L-8.55 1.8 Q-9.45 1.8 -10.25 2.95 L-10.4 2.95 -9.7 -1.05 Q-8.6 -5.55 -6.05 -9.15 -2.75 -13.9 1.6 -15.1 M-1.45 -1.55 L-0.95 -0.8 -0.8 -0.45 -0.7 1.05 Q-0.8 2.15 -1.2 2.95 -1.6 3.75 -2.05 3.75 L-2.1 3.75 Q-2.5 3.7 -2.75 2.95 L-3.0 1.65 -2.95 1.05 Q-2.9 -0.05 -2.5 -0.8 -2.1 -1.6 -1.65 -1.6 L-1.45 -1.55 M-0.25 22.35 L6.1 16.4 7.65 20.0 19.95 8.8 M9.35 -4.85 L9.0 -4.2 Q8.75 -3.9 8.35 -3.9 7.95 -3.9 7.65 -4.2 L7.4 -4.85 7.65 -5.55 Q7.95 -5.85 8.35 -5.85 L9.0 -5.55 9.35 -4.85 M13.1 7.7 Q13.5 10.1 12.6 11.85 11.7 13.6 10.05 13.6 8.4 13.6 6.9 11.85 5.4 10.1 5.0 7.7 4.55 5.25 5.45 3.5 6.35 1.8 8.0 1.8 9.65 1.8 11.15 3.5 12.65 5.25 13.1 7.7 M-5.95 -6.85 L-5.25 -6.6 Q-4.95 -6.3 -4.95 -5.9 -4.95 -5.55 -5.25 -5.25 -5.55 -4.95 -5.95 -4.95 -6.35 -4.95 -6.6 -5.25 L-6.9 -5.9 -6.6 -6.6 -5.95 -6.85 M-0.25 22.35 L-5.5 17.7 -5.5 20.55 -9.2 15.25" fill="none" stroke="#824740" stroke-linecap="round" stroke-linejoin="round" stroke-width="0.05"/>
    <path d="M-9.7 13.55 L-9.85 13.6 Q-10.9 13.6 -11.5 11.85 -12.05 10.1 -11.8 7.7 -11.55 5.25 -10.55 3.5 L-10.4 3.2 -10.4 2.95 M-10.25 2.95 L-10.25 3.0 -10.4 3.2" fill="none" stroke="#33ff00" stroke-linecap="round" stroke-linejoin="round" stroke-width="0.05"/>
    <path d="M11.15 3.5 Q12.65 5.25 13.1 7.7 13.5 10.1 12.6 11.85 11.7 13.6 10.05 13.6 8.4 13.6 6.9 11.85 5.4 10.1 5.0 7.7 4.55 5.25 5.45 3.5 6.35 1.8 8.0 1.8 9.65 1.8 11.15 3.5" fill="#51d957" fill-rule="evenodd" stroke="none"/>
    <path d="M8.35 3.5 Q7.75 4.1 7.75 5.0 7.75 5.85 8.35 6.55 9.0 7.15 9.9 7.15 10.8 7.15 11.4 6.55 L11.95 5.6 12.65 7.7 Q13.0 9.7 12.25 11.15 11.5 12.6 10.1 12.6 8.7 12.6 7.5 11.15 6.25 9.7 5.9 7.7 5.55 5.7 6.3 4.25 7.0 2.8 8.4 2.8 L9.25 2.95 Q8.75 3.05 8.35 3.5" fill="#114811" fill-rule="evenodd" stroke="none"/>
    <path d="M-10.25 3.85 Q-9.45 2.6 -8.65 2.85 -8.35 2.9 -8.15 3.1 L-8.8 3.45 Q-9.35 3.95 -9.55 4.8 L-9.6 6.35 Q-9.35 7.05 -8.8 7.2 -8.3 7.3 -7.75 6.8 L-7.2 6.05 -7.3 8.1 Q-7.65 10.1 -8.45 11.3 -9.25 12.5 -10.05 12.3 -10.9 12.1 -11.3 10.55 -11.7 9.0 -11.35 7.05 -11.05 5.05 -10.25 3.85" fill="#114811" fill-rule="evenodd" stroke="none"/>
  </g>
</svg>
