<?xml version="1.0" encoding="UTF-8" standalone="no"?>
<svg xmlns:xlink="http://www.w3.org/1999/xlink" height="5.9px" width="24.6px" xmlns="http://www.w3.org/2000/svg">
  <g transform="matrix(1.0, 0.0, 0.0, 1.0, 1.85, 2.35)">
    <path d="M21.9 1.85 L21.3 1.4 Q21.05 0.95 21.05 0.3 21.05 -0.35 21.3 -0.8 L21.85 -1.25 21.9 -1.25 22.5 -0.8 22.75 0.3 22.5 1.4 21.9 1.85" fill="#ebc198" fill-rule="evenodd" stroke="none"/>
    <path d="M21.85 -1.25 L21.3 -0.8 Q21.05 -0.35 21.05 0.3 21.05 0.95 21.3 1.4 L21.9 1.85 3.8 3.55 3.3 3.35 2.3 2.7 Q1.5 1.85 1.55 0.6 1.5 -0.65 2.3 -1.55 2.8 -2.05 3.45 -2.25 L3.65 -2.3 3.85 -2.35 21.85 -1.25" fill="#dd9d51" fill-rule="evenodd" stroke="none"/>
    <path d="M3.45 -2.25 Q2.8 -2.05 2.3 -1.55 1.5 -0.65 1.55 0.6 1.5 1.85 2.3 2.7 L3.3 3.35 3.8 3.55 3.7 3.55 3.55 3.5 3.3 3.35 3.55 3.5 0.0 2.3 Q-1.1 1.95 -1.45 1.5 -1.85 1.0 -1.85 0.4 -1.85 -0.3 -1.45 -0.75 -1.1 -1.15 -0.65 -1.15 L3.45 -2.25" fill="#ca7928" fill-rule="evenodd" stroke="none"/>
    <path d="M21.9 1.85 L22.5 1.4 22.75 0.3 22.5 -0.8 21.9 -1.25 21.85 -1.25 3.85 -2.35 3.65 -2.3 3.45 -2.25 -0.65 -1.15 Q-1.1 -1.15 -1.45 -0.75 -1.85 -0.3 -1.85 0.4 -1.85 1.0 -1.45 1.5 -1.1 1.95 0.0 2.3 L3.55 3.5 3.7 3.55 3.8 3.55 21.9 1.85 M3.3 3.35 L3.8 3.55 M3.3 3.35 L3.55 3.5" fill="none" stroke="#834e1b" stroke-linecap="round" stroke-linejoin="round" stroke-width="0.05"/>
  </g>
</svg>
