<?xml version="1.0" encoding="UTF-8" standalone="no"?>
<svg xmlns:xlink="http://www.w3.org/1999/xlink" height="21.5px" width="37.95px" xmlns="http://www.w3.org/2000/svg">
  <g transform="matrix(1.0, 0.0, 0.0, 1.0, 18.95, 10.75)">
    <path d="M14.05 -5.15 Q17.8 -1.6 17.8 0.85 17.8 3.3 14.5 6.15 11.15 8.95 5.95 8.65 0.75 8.35 -3.95 5.6 -8.65 2.85 -10.9 -0.55 -9.35 -2.25 -4.55 -4.65 0.25 -7.1 5.25 -7.9 10.25 -8.7 14.05 -5.15" fill="#2ebe55" fill-rule="evenodd" stroke="none"/>
    <path d="M14.05 -5.15 Q10.25 -8.7 5.25 -7.9 0.25 -7.1 -4.55 -4.65 -9.35 -2.25 -10.9 -0.55 -8.65 2.85 -3.95 5.6 0.75 8.35 5.95 8.65 11.15 8.95 14.5 6.15 17.8 3.3 17.8 0.85 17.8 -1.6 14.05 -5.15 M15.2 -7.4 Q18.7 -4.35 18.95 -0.05 L19.0 -0.05 Q18.7 4.3 15.2 7.4 11.4 10.75 6.0 10.75 0.6 10.75 -3.15 7.4 L-8.8 3.5 Q-13.15 0.7 -18.95 -0.65 -11.8 -2.35 -8.1 -4.3 -4.45 -6.3 -3.15 -7.4 0.6 -10.75 6.0 -10.75 11.4 -10.75 15.2 -7.4" fill="#208a45" fill-rule="evenodd" stroke="none"/>
    <path d="M15.2 -7.4 Q18.7 -4.35 18.95 -0.05 L19.0 -0.05 Q18.7 4.3 15.2 7.4 11.4 10.75 6.0 10.75 0.6 10.75 -3.15 7.4 L-8.8 3.5 Q-13.15 0.7 -18.95 -0.65 -11.8 -2.35 -8.1 -4.3 -4.45 -6.3 -3.15 -7.4 0.6 -10.75 6.0 -10.75 11.4 -10.75 15.2 -7.4 Z" fill="none" stroke="#155722" stroke-linecap="round" stroke-linejoin="round" stroke-width="0.05"/>
  </g>
</svg>
