<?xml version="1.0" encoding="UTF-8" standalone="no"?>
<svg xmlns:xlink="http://www.w3.org/1999/xlink" height="209.2px" width="158.1px" xmlns="http://www.w3.org/2000/svg">
  <g transform="matrix(1.0, 0.0, 0.0, 1.0, 50.35, 104.45)">
    <path d="M24.7 74.05 L41.1 84.75 17.6 79.2 22.95 46.6 -1.65 29.95 28.45 38.9 24.7 74.05 M56.85 -3.75 L54.25 -9.15 48.6 -14.75 78.8 -9.5 Q65.15 46.1 69.7 62.4 L106.9 87.85 107.75 104.75 101.65 88.7 58.4 65.5 52.15 72.7 51.55 58.9 62.55 57.95 72.55 -2.9 56.85 -3.75 M32.15 -43.8 Q27.95 -46.8 5.5 -29.65 L9.55 0.4 0.55 7.2 -1.9 29.45 -4.6 14.1 -9.15 10.4 -30.05 21.05 -39.0 22.15 -29.55 28.0 -29.55 32.75 -50.35 13.45 -41.2 13.1 -36.65 14.95 -8.3 3.5 1.45 -3.75 Q7.35 -13.55 -0.6 -35.65 17.2 -40.75 27.0 -53.0 28.1 -75.1 24.15 -104.45 L27.6 -94.55 32.15 -43.8" fill="#ffffff" fill-rule="evenodd" stroke="none"/>
  </g>
</svg>
