<?xml version="1.0" encoding="UTF-8" standalone="no"?>
<svg xmlns:xlink="http://www.w3.org/1999/xlink" height="237.35px" width="144.65px" xmlns="http://www.w3.org/2000/svg">
  <g transform="matrix(1.0, 0.0, 0.0, 1.0, 49.6, 107.8)">
    <path d="M44.1 -100.55 L44.1 -63.65 37.2 -94.8 23.1 -93.95 31.5 -63.5 31.4 -62.4 Q4.45 -44.2 -12.6 -10.25 L-11.1 -5.4 Q-2.45 -2.95 5.05 2.05 L8.3 4.25 9.8 5.5 Q13.0 8.0 15.65 10.95 L19.35 15.1 20.2 16.2 21.0 17.3 21.8 18.4 24.0 21.75 Q26.85 26.3 28.7 31.3 38.8 58.2 24.7 83.25 29.4 85.7 34.85 86.05 38.4 86.2 41.95 85.1 L43.3 84.55 46.15 83.45 Q50.4 81.5 53.2 77.9 L54.3 76.4 55.15 74.8 55.85 73.1 56.45 71.3 56.55 70.4 Q56.65 67.45 56.35 64.45 L56.2 62.45 58.15 51.1 72.8 43.7 57.2 -38.7 54.75 -35.75 54.0 -23.45 52.55 -22.15 40.45 -22.1 37.65 -23.9 37.65 -29.05 Q52.2 -22.35 47.4 -39.7 L53.25 -47.15 69.85 -41.75 Q64.35 4.25 81.1 43.9 L94.45 55.5 94.55 83.35 95.05 89.7 89.55 89.85 76.75 100.55 70.45 100.45 65.85 104.1 67.1 128.1 21.2 129.55 Q12.85 108.85 -13.15 100.85 L-9.4 72.35 -2.1 77.75 -3.35 77.35 -4.35 77.8 -5.35 89.3 Q19.1 124.0 60.85 118.65 L60.65 98.4 66.05 94.45 58.9 83.4 18.8 89.7 Q22.75 81.3 23.85 72.1 L24.2 68.4 24.3 66.55 24.25 59.35 23.6 53.25 23.4 51.75 23.1 50.3 22.8 48.8 21.75 44.55 Q20.05 38.95 17.25 33.75 5.9 12.65 -15.75 2.1 L-16.15 1.2 -17.35 0.5 -28.35 -15.85 Q-29.7 12.45 -39.4 34.55 L-27.6 38.0 -24.0 53.7 -49.6 39.55 Q-35.6 13.7 -35.2 -21.7 L-21.35 -21.7 Q5.45 -39.65 25.4 -68.75 L11.35 -107.8 Q24.6 -95.85 44.1 -100.55 M88.9 56.05 Q84.4 49.75 78.1 49.75 71.8 49.75 67.35 56.05 62.85 62.35 62.85 71.3 62.85 80.25 67.35 86.55 71.8 92.85 78.1 92.85 84.4 92.85 88.9 86.55 93.35 80.25 93.35 71.3 93.35 62.35 88.9 56.05" fill="#ffffff" fill-rule="evenodd" stroke="none"/>
  </g>
</svg>
