<?xml version="1.0" encoding="UTF-8" standalone="no"?>
<svg xmlns:xlink="http://www.w3.org/1999/xlink" height="131.05px" width="103.85px" xmlns="http://www.w3.org/2000/svg">
  <g transform="matrix(1.0, 0.0, 0.0, 1.0, 33.7, 43.6)">
    <path d="M14.15 -26.8 L24.3 -43.6 33.8 -32.8 33.7 -32.95 45.6 -19.35 42.7 -20.8 Q22.9 -42.2 21.6 -22.2 L38.5 2.15 58.65 -14.9 67.8 -14.75 70.15 5.4 61.6 5.5 61.6 -0.1 64.9 -2.8 62.7 -7.55 31.85 27.75 59.45 45.4 59.75 46.3 59.65 45.65 67.15 72.8 52.15 69.8 51.8 63.45 52.7 63.5 Q70.2 54.4 28.15 35.4 7.35 59.3 -0.4 70.2 1.45 83.25 12.95 80.8 L12.95 85.7 9.3 86.75 8.75 87.45 Q-3.45 76.8 -12.4 74.2 L-14.7 72.75 -12.85 73.75 -14.9 71.3 Q10.25 57.85 32.55 9.9 26.9 -23.1 -3.05 -24.55 L-24.55 -26.0 -18.95 -16.45 -18.8 -8.9 -24.65 0.35 Q-20.4 -16.4 -33.7 -29.3 L-19.05 -39.3 14.15 -26.8" fill="#ffffff" fill-rule="evenodd" stroke="none"/>
  </g>
</svg>
