<?xml version="1.0" encoding="UTF-8" standalone="no"?>
<svg xmlns:xlink="http://www.w3.org/1999/xlink" height="154.8px" width="172.95px" xmlns="http://www.w3.org/2000/svg">
  <g transform="matrix(1.0, 0.0, 0.0, 1.0, 83.55, 56.65)">
    <path d="M9.9 -37.45 L9.5 -38.85 Q8.85 -40.9 7.5 -42.75 L7.05 -43.35 6.55 -43.95 4.4 -46.15 -16.35 -30.5 -10.0 -19.0 -20.7 -6.85 -20.7 -15.9 -16.0 -18.2 -22.75 -24.75 -58.75 -25.5 -54.05 -4.25 -72.1 31.3 Q-30.9 59.4 -37.65 24.2 L-29.1 25.7 -29.1 30.95 -31.9 31.9 Q-35.8 46.85 -23.95 53.9 L19.9 22.45 -2.45 -10.35 -2.45 -15.85 Q2.35 -17.0 5.8 -20.6 L6.45 -21.3 Q8.35 -23.45 9.35 -26.1 L9.85 -27.4 10.2 -28.8 10.45 -30.2 10.6 -31.6 Q10.75 -33.85 10.25 -36.0 L9.9 -37.45 M5.65 -56.65 Q8.25 -54.7 10.55 -52.3 17.1 -45.3 18.25 -35.7 18.5 -33.85 18.4 -31.85 L18.3 -30.3 18.25 -29.5 18.15 -28.7 18.05 -27.9 17.6 -25.95 Q17.05 -23.75 16.2 -21.8 L15.75 -20.85 13.95 -18.25 12.5 -16.75 Q10.5 -14.85 7.95 -13.55 9.1 2.9 30.65 20.25 L66.95 8.8 73.45 -10.75 69.9 -10.95 55.95 -4.15 46.05 -17.3 Q57.95 -9.25 79.8 -17.3 L73.05 14.95 Q39.0 19.55 14.4 47.65 L14.65 56.0 64.4 57.5 58.65 50.0 63.3 37.65 Q69.1 49.65 89.4 67.3 66.9 63.55 14.55 62.35 6.0 86.2 9.75 98.15 L0.35 98.15 -0.95 77.5 1.2 77.5 4.25 88.35 7.95 47.15 Q-6.3 57.2 -9.6 71.95 -43.95 47.55 -83.55 35.35 L-83.55 30.2 Q-81.2 29.4 -79.15 28.05 L-78.45 27.7 Q-71.15 21.75 -67.95 12.9 -64.15 2.45 -64.0 -8.75 L-64.05 -13.85 -64.2 -16.65 -64.3 -17.35 -64.4 -18.15 -64.6 -19.5 -64.85 -21.05 -65.75 -25.3 -66.05 -26.75 -66.85 -29.65 -67.55 -31.75 -68.9 -35.4 -24.45 -31.8 -23.2 -36.75 -2.65 -51.55 5.65 -56.65" fill="#ffffff" fill-rule="evenodd" stroke="none"/>
  </g>
</svg>
