<?xml version="1.0" encoding="UTF-8" standalone="no"?>
<svg xmlns:xlink="http://www.w3.org/1999/xlink" height="101.0px" width="187.55px" xmlns="http://www.w3.org/2000/svg">
  <g transform="matrix(1.0, 0.0, 0.0, 1.0, 93.75, 47.85)">
    <path d="M-68.95 11.85 L-68.95 5.65 -36.0 23.5 -36.0 29.75 -68.95 11.85" fill="#565d4a" fill-rule="evenodd" stroke="none"/>
    <path d="M93.8 -9.7 L84.2 18.3 -12.35 45.95 -28.0 53.15 -36.0 29.75 -36.0 23.5 -68.95 5.65 -83.7 -13.35 -47.25 3.65 -36.0 23.5 -47.25 3.65 -47.25 -26.75 Q-42.7 -12.95 -26.65 -6.6 L-6.2 2.4 -3.85 11.85 93.8 -9.7" fill="#4b4e47" fill-rule="evenodd" stroke="none"/>
    <path d="M-28.0 53.15 L-57.7 36.65 -68.95 11.85 -36.0 29.75 -28.0 53.15 M-83.7 -13.35 L-93.75 -47.85 -47.25 -26.75 -47.25 3.65 -83.7 -13.35" fill="#686f59" fill-rule="evenodd" stroke="none"/>
    <path d="M-26.65 -6.6 L51.35 -23.05 93.8 -9.7 -3.85 11.85 -6.2 2.4 -26.65 -6.6" fill="#373834" fill-rule="evenodd" stroke="none"/>
    <path d="M-26.65 -6.6 L51.35 -23.05 93.8 -9.7 84.2 18.3 -12.35 45.95 -28.0 53.15 -57.7 36.65 -68.95 11.85 -68.95 5.65 -83.7 -13.35 -93.75 -47.85 -47.25 -26.75 Q-42.7 -12.95 -26.65 -6.6 L-6.2 2.4 -3.85 11.85 93.8 -9.7 M-36.0 29.75 L-36.0 23.5 -68.95 5.65 M-36.0 29.75 L-68.95 11.85 M-28.0 53.15 L-36.0 29.75 M-36.0 23.5 L-47.25 3.65 -83.7 -13.35 M-47.25 -26.75 L-47.25 3.65" fill="none" stroke="#000000" stroke-linecap="round" stroke-linejoin="round" stroke-width="0.05"/>
    <path d="M3.5 31.3 L3.55 30.05 Q3.65 27.6 4.35 25.5 L18.0 29.85 Q18.75 33.4 20.8 32.4 20.35 33.85 20.4 35.55 L20.45 36.7 Q18.25 38.3 16.8 34.35 L3.5 31.3" fill="#686f59" fill-rule="evenodd" stroke="none"/>
    <path d="M37.55 34.5 L37.55 35.35 Q37.55 41.1 34.15 44.45 30.75 47.8 29.05 47.85 L23.95 47.6 11.5 43.65 Q6.9 42.05 4.95 38.25 L25.7 44.75 26.5 45.0 28.05 45.2 Q31.25 45.15 33.45 42.35 35.7 39.55 35.75 35.55 L35.75 35.1 37.55 34.5" fill="#4b4e47" fill-rule="evenodd" stroke="none"/>
    <path d="M4.35 25.5 Q6.6 18.5 14.95 15.55 L25.2 19.0 31.0 20.85 Q32.55 21.4 35.05 25.5 37.35 29.25 37.55 34.5 L35.75 35.1 Q35.6 31.4 33.45 28.8 31.25 25.95 28.05 25.95 24.85 25.95 22.55 28.8 21.3 30.4 20.8 32.4 18.75 33.4 18.0 29.85 L4.35 25.5 M4.95 38.25 Q3.5 35.4 3.5 31.3 L16.8 34.35 Q18.25 38.3 20.45 36.7 20.7 39.95 22.55 42.35 23.95 44.05 25.7 44.75 L4.95 38.25" fill="#565d4a" fill-rule="evenodd" stroke="none"/>
    <path d="M20.8 32.4 Q21.3 30.4 22.55 28.8 24.85 25.95 28.05 25.95 31.25 25.95 33.45 28.8 35.6 31.4 35.75 35.1 L35.75 35.55 Q35.7 39.55 33.45 42.35 31.25 45.15 28.05 45.2 L26.5 45.0 25.7 44.75 Q23.95 44.05 22.55 42.35 20.7 39.95 20.45 36.7 L20.4 35.55 Q20.35 33.85 20.8 32.4" fill="#000000" fill-rule="evenodd" stroke="none"/>
    <path d="M4.35 25.5 Q6.6 18.5 14.95 15.55 L25.2 19.0 31.0 20.85 Q32.55 21.4 35.05 25.5 37.35 29.25 37.55 34.5 L37.55 35.35 Q37.55 41.1 34.15 44.45 30.75 47.8 29.05 47.85 L23.95 47.6 11.5 43.65 Q6.9 42.05 4.95 38.25 3.5 35.4 3.5 31.3 L3.55 30.05 Q3.65 27.6 4.35 25.5 M20.8 32.4 Q21.3 30.4 22.55 28.8 24.85 25.95 28.05 25.95 31.25 25.95 33.45 28.8 35.6 31.4 35.75 35.1 L35.75 35.55 Q35.7 39.55 33.45 42.35 31.25 45.15 28.05 45.2 L26.5 45.0 M20.45 36.7 L20.4 35.55 Q20.35 33.85 20.8 32.4 M25.7 44.75 Q23.95 44.05 22.55 42.35 20.7 39.95 20.45 36.7" fill="none" stroke="#000000" stroke-linecap="round" stroke-linejoin="round" stroke-width="0.05"/>
  </g>
</svg>
