<?xml version="1.0" encoding="UTF-8" standalone="no"?>
<svg xmlns:xlink="http://www.w3.org/1999/xlink" height="154.0px" width="297.4px" xmlns="http://www.w3.org/2000/svg">
  <g transform="matrix(1.0, 0.0, 0.0, 1.0, 81.9, 100.25)">
    <path d="M-43.3 -57.5 Q0.35 -79.4 64.85 -94.1 L66.95 -94.05 64.85 -94.1 Q0.35 -79.4 -43.3 -57.5 -63.3 -55.65 -79.85 -46.25 -21.25 -82.15 64.85 -94.1 L71.3 -94.95 101.3 -98.0 115.2 -98.9 122.2 -96.55 106.25 -93.8 66.95 -94.05 106.25 -93.8 122.2 -96.55 115.2 -98.9 152.2 -100.05 Q137.6 -98.9 123.3 -96.75 137.6 -98.9 152.2 -100.05 157.35 -101.55 207.6 -91.2 L210.35 -90.65 214.0 -89.9 Q227.8 -10.3 115.7 53.75 102.7 35.6 87.4 18.95 L86.95 18.45 Q66.8 -3.35 42.6 -22.55 L41.45 -23.5 Q88.7 -43.75 115.05 -71.35 115.2 -79.8 108.7 -90.1 L106.7 -93.15 108.7 -90.1 Q115.2 -79.8 115.05 -71.35 88.7 -43.75 41.45 -23.5 22.25 -38.65 0.5 -52.15 L-2.45 -54.0 0.5 -55.55 Q50.75 -82.2 106.25 -93.05 L106.7 -93.15 106.25 -93.05 Q50.75 -82.2 0.5 -55.55 L-2.45 -54.0 -3.1 -54.4 Q-23.25 -58.9 -40.75 -57.7 L-41.15 -57.65 -43.3 -57.5 M66.95 -94.05 Q2.75 -79.5 -40.75 -57.7 2.75 -79.5 66.95 -94.05 M108.45 -94.7 L71.3 -94.95 108.45 -94.7 M106.7 -93.15 L108.4 -93.45 110.4 -90.45 Q117.35 -79.7 117.2 -70.95 92.15 -44.7 42.6 -22.55 92.15 -44.7 117.2 -70.95 117.35 -79.7 110.4 -90.45 L108.4 -93.45 106.7 -93.15 106.25 -93.8 106.7 -93.15 M123.3 -96.75 L123.0 -97.0 123.3 -96.75 124.1 -96.1 123.3 -96.75 122.2 -96.55 123.3 -96.75 M123.0 -96.3 L122.2 -96.55 123.0 -96.3 M172.7 -97.65 L143.45 -80.5 124.1 -96.1 143.45 -80.5 172.7 -97.65 M172.7 -96.9 L143.45 -79.75 123.3 -96.0 124.1 -96.1 127.65 -96.6 152.2 -99.3 127.65 -96.6 124.1 -96.1 123.3 -96.0 143.45 -79.75 172.7 -96.9 M108.4 -93.45 L108.7 -93.5 110.4 -93.85 122.2 -95.8 110.4 -93.85 108.7 -93.5 108.4 -93.45 M210.35 -90.65 Q176.7 -8.8 87.4 18.95 176.7 -8.8 210.35 -90.65 M106.25 -93.8 Q48.8 -82.55 -3.1 -54.4 48.8 -82.55 106.25 -93.8 M207.6 -91.2 Q174.0 -8.85 86.95 18.45 174.0 -8.85 207.6 -91.2" fill="#3e4366" fill-rule="evenodd" stroke="none"/>
    <path d="M-43.3 -57.5 L-41.15 -57.65 -40.75 -57.7 Q-23.25 -58.9 -3.1 -54.4 L-2.45 -54.0 0.5 -52.15 Q22.25 -38.65 41.45 -23.5 L42.6 -22.55 Q66.8 -3.35 86.95 18.45 L87.4 18.95 Q102.7 35.6 115.7 53.75 L115.65 53.75 -81.9 -45.0 Q-80.85 -45.65 -79.85 -46.25 -63.3 -55.65 -43.3 -57.5 M-3.1 -53.65 L-2.45 -54.0 -3.1 -53.65" fill="#353a55" fill-rule="evenodd" stroke="none"/>
    <path d="M-43.3 -57.5 L-41.15 -57.65 M71.3 -94.95 L108.45 -94.7 M41.45 -23.5 L42.6 -22.55 Q92.15 -44.7 117.2 -70.95 117.35 -79.7 110.4 -90.45 L108.4 -93.45 106.7 -93.15 106.25 -93.05 Q50.75 -82.2 0.5 -55.55 L-2.45 -54.0 -3.1 -54.4 Q-23.25 -58.9 -40.75 -57.7 M41.45 -23.5 Q22.25 -38.65 0.5 -52.15 L-2.45 -54.0 -3.1 -53.65 M123.0 -97.0 L123.3 -96.75 M122.2 -96.55 L123.0 -96.3 M152.2 -99.3 L127.65 -96.6 124.1 -96.1 123.3 -96.0 143.45 -79.75 172.7 -96.9 M122.2 -95.8 L110.4 -93.85 108.7 -93.5 108.4 -93.45 M214.0 -89.9 Q227.8 -10.3 115.7 53.75 L115.65 53.75 M-81.9 -45.0 Q-80.85 -45.65 -79.85 -46.25 -63.3 -55.65 -43.3 -57.5 M86.95 18.45 L87.4 18.95 Q102.7 35.6 115.7 53.75 M42.6 -22.55 Q66.8 -3.35 86.95 18.45" fill="none" stroke="#000000" stroke-linecap="round" stroke-linejoin="round" stroke-width="0.05"/>
    <path d="M-41.15 -57.65 L-40.75 -57.7 Q2.75 -79.5 66.95 -94.05 M115.65 53.75 L-81.9 -45.0 M87.4 18.95 Q176.7 -8.8 210.35 -90.65" fill="none" stroke="#000000" stroke-linecap="round" stroke-linejoin="round" stroke-width="0.05"/>
    <path d="M66.95 -94.05 L64.85 -94.1 Q0.35 -79.4 -43.3 -57.5 M66.95 -94.05 L106.25 -93.8 122.2 -96.55 115.2 -98.9 101.3 -98.0 71.3 -94.95 64.85 -94.1 Q-21.25 -82.15 -79.85 -46.25 M106.7 -93.15 L108.7 -90.1 Q115.2 -79.8 115.05 -71.35 88.7 -43.75 41.45 -23.5 M123.3 -96.75 Q137.6 -98.9 152.2 -100.05 L115.2 -98.9 M124.1 -96.1 L123.3 -96.75 122.2 -96.55 M124.1 -96.1 L143.45 -80.5 172.7 -97.65 M106.25 -93.8 L106.7 -93.15 M152.2 -100.05 Q157.35 -101.55 207.6 -91.2 L210.35 -90.65 214.0 -89.9 M86.95 18.45 Q174.0 -8.85 207.6 -91.2 M-3.1 -54.4 Q48.8 -82.55 106.25 -93.8" fill="none" stroke="#59629f" stroke-linecap="round" stroke-linejoin="round" stroke-width="0.05"/>
  </g>
</svg>
