<?xml version="1.0" encoding="UTF-8" standalone="no"?>
<svg xmlns:xlink="http://www.w3.org/1999/xlink" height="126.5px" width="377.0px" xmlns="http://www.w3.org/2000/svg">
  <g transform="matrix(1.0, 0.0, 0.0, 1.0, 1.85, 119.5)">
    <path d="M9.1 -5.35 L7.45 1.25 -1.85 7.0 1.75 -5.35 6.3 -8.7 Q13.0 -23.95 24.0 -32.75 19.4 -18.1 9.1 -5.35 L10.75 -12.0 6.3 -8.7 10.75 -12.0 9.1 -5.35" fill="#736a92" fill-rule="evenodd" stroke="none"/>
    <path d="M9.1 -5.35 L7.45 1.25 -1.85 7.0 1.75 -5.35 6.3 -8.7 Q13.0 -23.95 24.0 -32.75 M6.3 -8.7 L10.75 -12.0 9.1 -5.35" fill="none" stroke="#000000" stroke-linecap="round" stroke-linejoin="round" stroke-width="0.05"/>
    <path d="M24.0 -32.75 Q107.15 -123.1 221.15 -119.35 295.15 -113.0 375.15 -15.3 M9.1 -5.35 Q19.4 -18.1 24.0 -32.75" fill="none" stroke="#000000" stroke-linecap="round" stroke-linejoin="round" stroke-width="0.05"/>
  </g>
</svg>
