<?xml version="1.0" encoding="UTF-8" standalone="no"?>
<svg xmlns:xlink="http://www.w3.org/1999/xlink" height="15.05px" width="21.3px" xmlns="http://www.w3.org/2000/svg">
  <g transform="matrix(1.0, 0.0, 0.0, 1.0, 10.5, 2.1)">
    <path d="M2.75 -0.7 L5.25 -1.05 5.55 3.8 7.05 3.8 6.75 4.4 Q4.4 6.15 1.65 6.55 L-0.35 6.65 -0.5 6.65 -0.7 6.65 -1.35 6.55 -3.75 5.35 Q-6.5 3.6 -7.3 0.75 L-7.2 0.75 Q-6.15 3.45 -3.85 4.1 L-2.95 4.3 Q-0.15 4.8 1.4 2.7 2.3 1.45 2.75 -0.7" fill="#333333" fill-rule="evenodd" stroke="none"/>
    <path d="M-7.2 0.75 L-6.4 0.75 -6.55 -1.85 Q-5.5 -1.35 -3.6 -1.0 L1.15 -0.75 2.45 -0.7 2.75 -0.7 Q2.3 1.45 1.4 2.7 -0.15 4.8 -2.95 4.3 L-3.85 4.1 Q-6.15 3.45 -7.2 0.75" fill="#666666" fill-rule="evenodd" stroke="none"/>
    <path d="M0.6 -0.85 L5.7 -1.2 Q8.65 5.4 10.8 7.7 10.3 8.4 9.5 8.2 8.8 8.0 8.15 8.9 7.85 9.75 6.6 9.75 5.9 9.65 4.95 10.65 1.85 5.85 0.6 -0.85 M-4.9 -1.35 Q-5.05 5.3 -7.15 9.45 -7.45 8.75 -7.85 8.9 -8.65 9.0 -8.85 8.1 -9.25 7.2 -9.7 7.45 -10.3 7.65 -10.5 7.45 -9.0 4.9 -7.8 0.75 L-7.05 -2.1 -6.55 -1.95 -4.9 -1.35" fill="#de8db3" fill-rule="evenodd" stroke="none"/>
    <path d="M0.6 -0.85 Q1.85 5.85 4.95 10.65 5.9 9.65 6.6 9.75 7.85 9.75 8.15 8.9 8.8 8.0 9.5 8.2 10.3 8.4 10.8 7.7 8.65 5.4 5.7 -1.2 L0.6 -0.85 M-4.9 -1.35 Q-5.05 5.3 -7.15 9.45 -7.45 8.75 -7.85 8.9 -8.65 9.0 -8.85 8.1 -9.25 7.2 -9.7 7.45 -10.3 7.65 -10.5 7.45 -9.0 4.9 -7.8 0.75 L-7.05 -2.1 -6.55 -1.95 -4.9 -1.35" fill="none" stroke="#b03573" stroke-linecap="round" stroke-linejoin="round" stroke-width="0.05"/>
    <path d="M0.6 -0.85 L1.3 12.95 Q0.55 12.15 0.0 12.45 -1.3 12.7 -1.95 11.7 -2.95 10.7 -3.55 11.1 L-4.1 10.9 -4.9 -1.35 0.6 -0.85 M-1.95 9.0 L-1.95 11.7 -1.95 9.0" fill="#ffe6f2" fill-rule="evenodd" stroke="none"/>
    <path d="M0.6 -0.85 L1.3 12.95 Q0.55 12.15 0.0 12.45 -1.3 12.7 -1.95 11.7 -2.95 10.7 -3.55 11.1 L-4.1 10.9 -4.9 -1.35 0.6 -0.85 M-1.95 11.7 L-1.95 9.0" fill="none" stroke="#fe67b3" stroke-linecap="round" stroke-linejoin="round" stroke-width="0.05"/>
  </g>
</svg>
