<?xml version="1.0" encoding="UTF-8" standalone="no"?>
<svg xmlns:xlink="http://www.w3.org/1999/xlink" height="107.1px" width="223.6px" xmlns="http://www.w3.org/2000/svg">
  <g transform="matrix(1.0, 0.0, 0.0, 1.0, 62.45, 3.35)">
    <path d="M112.05 3.0 L107.45 10.8 74.9 12.35 66.8 9.4 1.85 14.0 -1.4 17.35 -1.45 17.4 -6.5 17.2 1.3 9.45 112.05 3.0 M157.55 21.6 L161.15 30.25 134.8 35.4 113.95 40.15 93.5 46.0 79.95 69.3 24.95 87.05 14.5 81.35 53.95 31.3 157.55 21.6 M-40.5 51.55 L-29.0 39.95 -27.25 44.2 -27.25 44.25 -36.45 53.75 -40.5 51.55 M85.4 43.65 L109.8 35.25 110.25 30.4 57.0 36.65 31.8 69.8 31.8 80.1 75.6 65.15 85.4 43.65 75.6 65.15 31.8 80.1 31.8 69.8 57.0 36.65 110.25 30.4 109.8 35.25 85.4 43.65 M126.55 28.05 L126.2 30.45 115.35 33.75 115.45 29.7 126.55 28.05 115.45 29.7 115.35 33.75 126.2 30.45 126.55 28.05" fill="#414d4b" fill-rule="evenodd" stroke="none"/>
    <path d="M107.45 10.8 L121.2 15.9 89.7 17.8 34.65 21.15 30.45 25.15 16.0 38.9 19.5 26.9 -0.4 27.7 -11.15 42.7 -4.85 58.75 -11.15 42.7 -0.4 27.7 19.5 26.9 16.0 38.9 -4.85 58.75 -27.25 44.25 -4.85 58.75 -12.95 66.45 -36.45 53.75 -27.25 44.25 -27.25 44.2 -29.0 39.95 -32.4 31.55 -19.5 16.7 -6.5 17.2 -1.45 17.4 -1.4 17.35 1.85 14.0 66.8 9.4 74.9 12.35 107.45 10.8 M1.85 14.0 L30.45 25.15 1.85 14.0 M74.9 12.35 L89.7 17.8 74.9 12.35 M-32.4 31.55 L-11.15 42.7 -32.4 31.55 M-0.4 27.7 L-19.5 16.7 -0.4 27.7 M-1.4 17.35 L19.5 26.9 -1.4 17.35" fill="#644a55" fill-rule="evenodd" stroke="none"/>
    <path d="M-62.45 40.0 L-18.8 -3.2 95.15 -3.35 112.05 3.0 1.3 9.45 -6.5 17.2 -19.5 16.7 -32.4 31.55 -29.0 39.95 -40.5 51.55 -62.45 40.0 M121.2 15.9 L139.35 14.75 157.55 21.6 53.95 31.3 14.5 81.35 -12.95 66.45 -4.85 58.75 16.0 38.9 30.45 25.15 34.65 21.15 89.7 17.8 121.2 15.9" fill="#4f756f" fill-rule="evenodd" stroke="none"/>
    <path d="M134.8 35.4 Q134.95 39.55 131.1 45.4 121.85 53.7 108.8 56.15 L107.0 61.7 88.8 79.25 31.75 103.75 -36.35 66.55 -62.45 40.0 -40.5 51.55 -36.45 53.75 -12.95 66.45 14.5 81.35 24.95 87.05 79.95 69.3 93.5 46.0 113.95 40.15 134.8 35.4 M113.95 40.15 L108.8 56.15 113.95 40.15" fill="#3f3a3d" fill-rule="evenodd" stroke="none"/>
    <path d="M-62.45 40.0 L-18.8 -3.2 95.15 -3.35 112.05 3.0 107.45 10.8 121.2 15.9 139.35 14.75 157.55 21.6 161.15 30.25 134.8 35.4 Q134.95 39.55 131.1 45.4 121.85 53.7 108.8 56.15 L107.0 61.7 88.8 79.25 31.75 103.75 -36.35 66.55 -62.45 40.0 -40.5 51.55 -29.0 39.95 -32.4 31.55 -19.5 16.7 -6.5 17.2 1.3 9.45 112.05 3.0 M126.55 28.05 L115.45 29.7 115.35 33.75 126.2 30.45 126.55 28.05 M85.4 43.65 L75.6 65.15 31.8 80.1 31.8 69.8 57.0 36.65 110.25 30.4 109.8 35.25 85.4 43.65 M89.7 17.8 L121.2 15.9 M113.95 40.15 L93.5 46.0 79.95 69.3 24.95 87.05 14.5 81.35 -12.95 66.45 -36.45 53.75 -40.5 51.55 M113.95 40.15 L134.8 35.4 M108.8 56.15 L113.95 40.15 M-6.5 17.2 L-1.45 17.4 -1.4 17.35 1.85 14.0 66.8 9.4 74.9 12.35 107.45 10.8 M16.0 38.9 L30.45 25.15 1.85 14.0 M30.45 25.15 L34.65 21.15 89.7 17.8 74.9 12.35 M16.0 38.9 L19.5 26.9 -0.4 27.7 -11.15 42.7 -4.85 58.75 16.0 38.9 M157.55 21.6 L53.95 31.3 14.5 81.35 M-29.0 39.95 L-27.25 44.2 -27.25 44.25 -4.85 58.75 -12.95 66.45 M-19.5 16.7 L-0.4 27.7 M-11.15 42.7 L-32.4 31.55 M-36.45 53.75 L-27.25 44.25 M19.5 26.9 L-1.4 17.35" fill="none" stroke="#383b3a" stroke-linecap="round" stroke-linejoin="round" stroke-width="0.05"/>
  </g>
</svg>
