<?xml version="1.0" encoding="UTF-8" standalone="no"?>
<svg xmlns:xlink="http://www.w3.org/1999/xlink" height="147.85px" width="132.45px" xmlns="http://www.w3.org/2000/svg">
  <g transform="matrix(1.0, 0.0, 0.0, 1.0, 126.35, 39.65)">
    <path d="M-82.95 -2.1 L-82.95 -13.5 -119.95 -2.1 -68.8 -34.35 -56.95 -37.45 -55.8 -31.85 -53.85 -22.55 -61.2 -17.35 -76.8 -6.4 -81.3 -14.05 -82.95 -13.5 -81.3 -14.05 -76.8 -6.4 -82.95 -2.1 M-27.7 -23.6 L-3.95 -39.65 -5.65 -31.2 -8.5 -19.95 -8.5 -19.15 -16.35 -14.05 -33.55 -2.8 -40.05 1.3 -33.2 -9.65 -64.35 2.5 -27.7 -23.6 M-55.8 -31.85 Q-57.95 -31.3 -60.1 -29.2 -61.45 -23.65 -61.2 -17.35 -61.45 -23.65 -60.1 -29.2 -57.95 -31.3 -55.8 -31.85 M-33.55 -2.8 L-31.8 -10.25 -33.2 -9.65 -31.8 -10.25 -33.55 -2.8 M-5.65 -31.2 Q-6.7 -32.15 -11.45 -26.5 L-14.05 -21.5 Q-15.75 -17.85 -16.35 -14.05 -15.75 -17.85 -14.05 -21.5 L-11.45 -26.5 Q-6.7 -32.15 -5.65 -31.2" fill="#64847f" fill-rule="evenodd" stroke="none"/>
    <path d="M-77.85 97.7 L-103.9 108.2 -105.0 106.8 -86.7 79.4 -69.85 71.7 -75.65 80.6 -66.4 81.25 -68.45 87.9 -77.85 97.7 M-123.9 105.45 L-126.25 105.45 Q-127.0 89.6 -122.6 78.65 L-105.75 55.1 -106.1 57.55 Q-106.75 62.35 -107.05 67.8 -107.35 73.35 -107.1 79.65 -122.95 95.75 -123.9 105.45 M-105.0 106.8 L-82.65 91.25 -75.65 80.6 -82.65 91.25 -105.0 106.8 M-107.05 67.8 Q-119.65 80.95 -126.25 105.45 -119.65 80.95 -107.05 67.8" fill="#b46a68" fill-rule="evenodd" stroke="none"/>
    <path d="M-39.65 66.4 L-63.5 91.95 -77.85 97.7 -68.45 87.9 -66.4 81.25 -75.65 80.6 -69.85 71.7 -47.15 61.3 -51.5 70.1 -68.45 87.9 -51.5 70.1 -47.15 61.3 -39.65 66.4 M-104.0 82.55 L-123.9 105.45 Q-122.95 95.75 -107.1 79.65 L-107.0 82.55 -104.0 82.55" fill="#765151" fill-rule="evenodd" stroke="none"/>
    <path d="M-93.6 82.55 L-104.0 82.55 -107.0 82.55 -107.1 79.65 Q-107.35 73.35 -107.05 67.8 L-92.15 68.15 -93.6 82.55 M-105.75 55.1 Q-103.8 42.3 -99.4 30.25 L-83.35 31.35 Q-87.8 43.4 -90.5 57.9 L-106.1 57.55 -105.75 55.1 M-98.9 23.9 Q-91.25 10.4 -82.95 -2.1 L-76.8 -6.4 -61.2 -17.35 -53.85 -22.55 Q-39.75 -24.5 -27.7 -23.6 L-64.35 2.5 -33.2 -9.65 -40.05 1.3 -42.8 3.05 -57.75 3.05 -83.35 23.9 -98.9 23.9" fill="#644a55" fill-rule="evenodd" stroke="none"/>
    <path d="M-99.4 30.25 L-98.9 23.9 -83.35 23.9 -83.35 31.35 -99.4 30.25" fill="#94697d" fill-rule="evenodd" stroke="none"/>
    <path d="M-90.5 57.9 Q-91.5 63.0 -92.15 68.15 L-107.05 67.8 Q-106.75 62.35 -106.1 57.55 L-90.5 57.9" fill="#403a3d" fill-rule="evenodd" stroke="none"/>
    <path d="M5.75 -9.0 L6.1 -3.65 -8.95 7.75 -8.95 18.4 -34.15 37.25 -42.8 37.25 -92.15 68.15 Q-91.5 63.0 -90.5 57.9 L-45.95 32.95 -43.85 27.85 -37.75 26.45 -21.85 16.75 -16.85 7.75 -18.15 5.0 -10.55 5.0 5.75 -9.0" fill="#333333" fill-rule="evenodd" stroke="none"/>
    <path d="M-7.65 -19.65 L-3.05 -17.9 Q0.85 -16.25 4.8 -13.9 L5.75 -9.0 -10.55 5.0 -18.15 5.0 -21.15 5.0 -40.05 18.4 -43.85 27.85 -45.95 32.95 -90.5 57.9 Q-87.8 43.4 -83.35 31.35 L-83.35 23.9 -57.75 3.05 -42.8 3.05 -40.05 1.3 -33.55 -2.8 -16.35 -14.05 -8.5 -19.15 -7.65 -19.65 M6.1 -3.65 Q6.35 13.15 -4.25 35.7 L-39.65 66.4 -47.15 61.3 -69.85 71.7 -86.7 79.4 -93.6 82.55 -92.15 68.15 -42.8 37.25 -34.15 37.25 -8.95 18.4 -8.95 7.75 6.1 -3.65 M-3.05 -17.9 L-40.45 7.75 -55.0 7.75 -83.35 31.35 -55.0 7.75 -40.45 7.75 -3.05 -17.9" fill="#3f3a3d" fill-rule="evenodd" stroke="none"/>
    <path d="M-18.15 5.0 L-16.85 7.75 -21.85 16.75 -37.75 26.45 -43.85 27.85 -40.05 18.4 -21.15 5.0 -18.15 5.0" fill="#e5b67e" fill-rule="evenodd" stroke="none"/>
    <path d="M-7.65 -19.65 L-3.05 -17.9 Q0.85 -16.25 4.8 -13.9 L5.75 -9.0 6.1 -3.65 Q6.35 13.15 -4.25 35.7 L-39.65 66.4 -63.5 91.95 -77.85 97.7 -103.9 108.2 -105.0 106.8 -86.7 79.4 -93.6 82.55 -104.0 82.55 -123.9 105.45 -126.25 105.45 Q-119.65 80.95 -107.05 67.8 L-92.15 68.15 -93.6 82.55 M-105.75 55.1 Q-103.8 42.3 -99.4 30.25 L-98.9 23.9 Q-91.25 10.4 -82.95 -2.1 L-82.95 -13.5 -119.95 -2.1 M-68.8 -34.35 L-56.95 -37.45 -55.8 -31.85 -53.85 -22.55 Q-39.75 -24.5 -27.7 -23.6 L-3.95 -39.65 -5.65 -31.2 -8.5 -19.95 -7.65 -19.65 -8.5 -19.15 -16.35 -14.05 -33.55 -2.8 -40.05 1.3 -42.8 3.05 -57.75 3.05 -83.35 23.9 -83.35 31.35 -55.0 7.75 -40.45 7.75 -3.05 -17.9 M-82.95 -13.5 L-81.3 -14.05 -76.8 -6.4 -61.2 -17.35 Q-61.45 -23.65 -60.1 -29.2 -57.95 -31.3 -55.8 -31.85 M-53.85 -22.55 L-61.2 -17.35 M-16.35 -14.05 Q-15.75 -17.85 -14.05 -21.5 L-11.45 -26.5 Q-6.7 -32.15 -5.65 -31.2 M-33.2 -9.65 L-31.8 -10.25 -33.55 -2.8 M-8.5 -19.15 L-8.5 -19.95 M-76.8 -6.4 L-82.95 -2.1 M5.75 -9.0 L-10.55 5.0 -18.15 5.0 -21.15 5.0 -40.05 18.4 -43.85 27.85 -45.95 32.95 -90.5 57.9 Q-91.5 63.0 -92.15 68.15 L-42.8 37.25 -34.15 37.25 -8.95 18.4 -8.95 7.75 6.1 -3.65 M-77.85 97.7 L-68.45 87.9 -51.5 70.1 -47.15 61.3 -39.65 66.4 M-69.85 71.7 L-75.65 80.6 M-47.15 61.3 L-69.85 71.7 -86.7 79.4 M-83.35 23.9 L-98.9 23.9 M-83.35 31.35 L-99.4 30.25 M-106.1 57.55 Q-106.75 62.35 -107.05 67.8 -107.35 73.35 -107.1 79.65 -122.95 95.75 -123.9 105.45 M-105.75 55.1 L-106.1 57.55 -90.5 57.9 Q-87.8 43.4 -83.35 31.35 M-107.1 79.65 L-107.0 82.55 -104.0 82.55 M-40.05 1.3 L-33.2 -9.65 -64.35 2.5" fill="none" stroke="#000000" stroke-linecap="round" stroke-linejoin="round" stroke-width="0.05"/>
    <path d="M-18.15 5.0 L-16.85 7.75 -21.85 16.75 -37.75 26.45 -43.85 27.85" fill="none" stroke="#000000" stroke-linecap="round" stroke-linejoin="round" stroke-width="0.05"/>
    <path d="M-126.25 105.45 Q-127.0 89.6 -122.6 78.65 L-105.75 55.1 M-75.65 80.6 L-82.65 91.25 -105.0 106.8" fill="none" stroke="#e4c9c9" stroke-linecap="round" stroke-linejoin="round" stroke-width="0.05"/>
    <path d="M-119.95 -2.1 L-68.8 -34.35 M-64.35 2.5 L-27.7 -23.6" fill="none" stroke="#87a39e" stroke-linecap="round" stroke-linejoin="round" stroke-width="0.05"/>
    <path d="M-98.15 40.7 L-92.35 40.05 -91.3 44.3 -94.55 47.7 -99.7 47.75 -100.2 43.7 -98.15 40.7 M-90.2 45.6 L-89.35 48.7 -94.0 53.55 Q-92.35 50.4 -93.45 49.0 L-90.2 45.6 M-102.25 54.1 L-104.85 50.05 -101.5 45.15 -101.0 49.15 Q-102.85 50.5 -102.25 54.1" fill="#d3d301" fill-rule="evenodd" stroke="none"/>
  </g>
</svg>
