<?xml version="1.0" encoding="UTF-8" standalone="no"?>
<svg xmlns:xlink="http://www.w3.org/1999/xlink" height="110.3px" width="59.95px" xmlns="http://www.w3.org/2000/svg">
  <g transform="matrix(1.0, 0.0, 0.0, 1.0, 30.05, 7.95)">
    <path d="M7.8 89.2 Q-0.95 89.75 -10.8 83.4 L-15.0 80.4 Q-12.0 89.65 -6.95 95.85 L3.2 99.9 Q7.6 97.85 10.2 88.95 L7.8 89.2 M11.8 88.55 L10.2 88.95 11.8 88.55 Q9.3 96.95 4.45 102.35 L-7.9 97.3 Q-14.05 87.95 -17.3 78.55 L-18.25 77.7 Q-26.15 56.85 -30.05 33.35 -27.9 12.9 -17.8 -1.7 -1.3 -2.45 12.5 -7.95 26.05 16.7 29.9 31.8 22.4 75.3 12.75 88.3 L11.8 88.55 M-15.0 80.4 L-17.3 78.55 -15.0 80.4" fill="#351a2d" fill-rule="evenodd" stroke="none"/>
    <path d="M-10.8 83.4 Q-8.7 89.95 -1.75 94.1 L3.35 94.25 2.7 97.55 Q7.05 95.55 7.8 89.2 L10.2 88.95 Q7.6 97.85 3.2 99.9 L-6.95 95.85 Q-12.0 89.65 -15.0 80.4 L-10.8 83.4" fill="#9d3535" fill-rule="evenodd" stroke="none"/>
    <path d="M7.8 89.2 Q7.05 95.55 2.7 97.55 L3.35 94.25 -1.75 94.1 Q-8.7 89.95 -10.8 83.4 -0.95 89.75 7.8 89.2" fill="#562323" fill-rule="evenodd" stroke="none"/>
    <path d="M7.8 89.2 Q-0.95 89.75 -10.8 83.4 L-15.0 80.4 -17.3 78.55 Q-14.05 87.95 -7.9 97.3 L4.45 102.35 Q9.3 96.95 11.8 88.55 L12.75 88.3 Q22.4 75.3 29.9 31.8 26.05 16.7 12.5 -7.95 -1.3 -2.45 -17.8 -1.7 -27.9 12.9 -30.05 33.35 -26.15 56.85 -18.25 77.7 L-17.3 78.55 M10.2 88.95 L7.8 89.2 M10.2 88.95 L11.8 88.55" fill="none" stroke="#000000" stroke-linecap="round" stroke-linejoin="round" stroke-width="0.05"/>
  </g>
</svg>
