<?xml version="1.0" encoding="UTF-8" standalone="no"?>
<svg xmlns:xlink="http://www.w3.org/1999/xlink" height="10.85px" width="3.3px" xmlns="http://www.w3.org/2000/svg">
  <g transform="matrix(1.0, 0.0, 0.0, 1.0, 2.25, -2.3)">
    <path d="M-0.4 11.65 L-0.8 11.55 -0.85 11.4 Q-2.45 6.8 -2.25 4.7 -2.2 3.45 -1.65 2.35 L-1.05 2.3 Q0.4 7.35 -0.4 11.65" fill="#4d6262" fill-rule="evenodd" stroke="none"/>
    <path d="M0.25 11.3 L0.65 12.05 -0.2 13.15 -1.1 12.2 -0.85 11.4 -0.8 11.55 -0.4 11.65 0.2 11.5 0.25 11.3" fill="#303d3d" fill-rule="evenodd" stroke="none"/>
    <path d="M0.25 11.3 L0.2 11.5 -0.4 11.65 Q0.4 7.35 -1.05 2.3 -0.1 2.35 0.85 3.15 1.15 4.9 1.05 7.35 0.95 9.55 0.25 11.3" fill="#2b3535" fill-rule="evenodd" stroke="none"/>
    <path d="M0.25 11.3 L0.2 11.5 -0.4 11.65 -0.8 11.55 -0.85 11.4 Q-2.45 6.8 -2.25 4.7 -2.2 3.45 -1.65 2.35 L-1.05 2.3 Q-0.1 2.35 0.85 3.15 1.15 4.9 1.05 7.35 0.95 9.55 0.25 11.3" fill="none" stroke="#000000" stroke-linecap="round" stroke-linejoin="round" stroke-width="0.05"/>
    <path d="M-0.85 11.4 L-1.1 12.2 -0.2 13.15 0.65 12.05 0.25 11.3 Z" fill="none" stroke="#000000" stroke-linecap="round" stroke-linejoin="round" stroke-width="0.05"/>
  </g>
</svg>
