<?xml version="1.0" encoding="UTF-8" standalone="no"?>
<svg xmlns:xlink="http://www.w3.org/1999/xlink" height="7.45px" width="24.15px" xmlns="http://www.w3.org/2000/svg">
  <g transform="matrix(1.0, 0.0, 0.0, 1.0, 13.6, 2.4)">
    <path d="M-0.7 0.55 Q1.0 -0.75 1.3 -2.4 L3.45 -2.1 0.45 1.6 3.45 -2.1 4.25 -1.1 Q4.55 -0.65 3.7 0.65 5.4 1.2 5.95 2.8 L6.0 3.05 Q6.35 3.0 6.65 1.95 9.4 2.65 10.55 4.45 4.9 4.5 4.25 3.45 L4.05 2.3 Q4.0 1.4 2.25 3.25 L0.45 1.6 -0.05 2.2 Q-4.5 3.75 -8.35 3.25 L-6.5 2.4 -2.05 1.35 -0.75 0.55 -0.7 0.55" fill="#354345" fill-rule="evenodd" stroke="none"/>
    <path d="M-8.35 3.25 Q-4.5 3.75 -0.05 2.2 L0.45 1.6 2.25 3.25 1.55 4.0 -3.95 4.4 -4.15 4.75 -13.6 5.05 Q-12.7 3.05 -9.75 2.15 L-8.35 3.25" fill="#4d6262" fill-rule="evenodd" stroke="none"/>
    <path d="M3.45 -2.1 L1.3 -2.4 Q1.0 -0.75 -0.7 0.55 M-0.75 0.55 L-2.05 1.35 -6.5 2.4 -8.35 3.25 -9.75 2.15 Q-12.7 3.05 -13.6 5.05 L-4.15 4.75 -3.95 4.4 1.55 4.0 2.25 3.25 Q4.0 1.4 4.05 2.3 L4.25 3.45 Q4.9 4.5 10.55 4.45 9.4 2.65 6.65 1.95 6.35 3.0 6.0 3.05 L5.95 2.8 Q5.4 1.2 3.7 0.65 4.55 -0.65 4.25 -1.1 L3.45 -2.1" fill="none" stroke="#301820" stroke-linecap="round" stroke-linejoin="round" stroke-width="0.05"/>
    <path d="M-8.35 3.25 Q-4.5 3.75 -0.05 2.2 L0.45 1.6 3.45 -2.1 Z" fill="none" stroke="#3e3f59" stroke-linecap="round" stroke-linejoin="round" stroke-width="0.05"/>
  </g>
</svg>
