<?xml version="1.0" encoding="UTF-8" standalone="no"?>
<svg xmlns:xlink="http://www.w3.org/1999/xlink" height="24.9px" width="12.45px" xmlns="http://www.w3.org/2000/svg">
  <g transform="matrix(1.0, 0.0, 0.0, 1.0, 6.75, 2.85)">
    <path d="M-2.15 22.05 L1.95 1.6 Q4.0 0.05 4.45 -1.9 L0.9 -2.6 5.7 -2.3 Q5.3 -0.05 3.4 1.85 L-0.75 19.8 -0.35 20.9 -2.15 22.05" fill="#4d6262" fill-rule="evenodd" stroke="none"/>
    <path d="M0.9 -2.6 L4.45 -1.9 Q4.0 0.05 1.95 1.6 L-2.15 22.05 Q-4.7 22.05 -5.6 21.45 -7.6 19.95 -6.15 19.1 -5.4 18.65 -4.8 16.5 -4.3 14.45 -3.9 10.8 -3.05 3.35 -3.6 0.9 -1.7 -1.6 0.9 -2.6" fill="#354345" fill-rule="evenodd" stroke="none"/>
    <path d="M0.9 -2.6 Q-1.7 -1.6 -3.6 0.9 -3.05 3.35 -3.9 10.8 -4.3 14.45 -4.8 16.5 -5.4 18.65 -6.15 19.1 -7.6 19.95 -5.6 21.45 -4.7 22.05 -2.15 22.05 L-0.35 20.9 -0.75 19.8 3.4 1.85 Q5.3 -0.05 5.7 -2.3 L0.9 -2.6 Z" fill="none" stroke="#333333" stroke-linecap="round" stroke-linejoin="round" stroke-width="0.05"/>
  </g>
</svg>
