<?xml version="1.0" encoding="UTF-8" standalone="no"?>
<svg xmlns:xlink="http://www.w3.org/1999/xlink" height="33.35px" width="26.35px" xmlns="http://www.w3.org/2000/svg">
  <g transform="matrix(1.0, 0.0, 0.0, 1.0, 13.45, 13.25)">
    <path d="M2.2 -12.25 L2.15 -12.3 2.15 -12.35 2.2 -12.25" fill="#294876" fill-rule="evenodd" stroke="none"/>
    <path d="M7.5 -1.1 L8.5 -3.2 Q8.95 -4.3 9.75 -4.35 15.0 -1.55 11.45 4.1 7.9 4.85 6.95 1.7 L6.9 0.45 Q6.9 -0.25 7.5 -1.1" fill="#0e1a27" fill-rule="evenodd" stroke="none"/>
    <path d="M2.15 -12.35 L2.15 -12.3 0.3 -10.4 Q-1.25 -8.5 -3.85 -8.2 L-4.45 -5.45 -6.75 -5.9 -8.1 -6.15 -8.1 -8.4 Q-9.0 -9.85 -8.95 -10.95 L-8.95 -11.05 -8.25 -11.95 Q-6.4 -12.9 -4.95 -13.1 L-3.05 -13.25 -2.5 -13.25 0.9 -12.95 2.15 -12.35" fill="#363636" fill-rule="evenodd" stroke="none"/>
    <path d="M5.45 7.9 L5.4 7.9 5.45 7.9" fill="#503832" fill-rule="evenodd" stroke="none"/>
    <path d="M0.3 -10.4 Q2.45 -8.65 1.95 -5.05 -4.0 -2.7 -7.15 -3.3 -9.6 -3.4 -10.05 -6.35 L-9.9 -7.4 -8.95 -10.95 Q-9.0 -9.85 -8.1 -8.4 L-8.1 -6.15 -6.75 -5.9 -4.45 -5.45 -3.85 -8.2 Q-1.25 -8.5 0.3 -10.4 M-4.5 20.05 Q-7.25 19.0 -7.8 16.15 -9.8 10.7 -10.05 5.4 -12.1 2.15 -7.95 1.0 -7.85 11.45 -4.5 20.05 M-6.75 -5.9 L-7.15 -3.3 -6.75 -5.9" fill="#6d4162" fill-rule="evenodd" stroke="none"/>
    <path d="M2.15 -12.3 L2.2 -12.25 2.9 -11.35 6.25 -5.8 2.65 -4.2 2.4 -4.1 1.85 -3.85 Q-2.25 -2.3 -6.7 -2.3 L-7.3 -2.3 -7.15 -3.3 -7.3 -2.3 -7.75 -2.35 Q-8.9 -2.65 -9.5 -3.4 L-10.05 -4.25 -10.25 -4.75 -10.05 -6.35 Q-9.6 -3.4 -7.15 -3.3 -4.0 -2.7 1.95 -5.05 2.45 -8.65 0.3 -10.4 L2.15 -12.3 M5.4 7.9 Q6.25 12.25 4.6 16.7 0.4 20.55 -4.5 20.05 -7.85 11.45 -7.95 1.0 0.65 3.15 3.3 4.5 5.95 5.8 5.45 7.9 L5.4 7.9" fill="#5b3552" fill-rule="evenodd" stroke="none"/>
    <path d="M-7.3 -2.3 L-6.7 -2.3 Q-2.25 -2.3 1.85 -3.85 L2.4 -4.1 2.65 -4.2 6.25 -5.8 7.05 -5.7 Q1.25 -1.0 -6.15 -1.35 L-6.65 1.15 -7.35 1.1 -7.95 1.0 -8.4 1.1 -8.5 1.1 -9.0 1.15 -8.5 -1.3 Q-11.2 -2.85 -11.25 -4.4 -11.3 -5.3 -10.05 -6.35 L-10.25 -4.75 -10.05 -4.25 -9.5 -3.4 Q-8.9 -2.65 -7.75 -2.35 L-7.3 -2.3 M-7.35 1.1 L-6.7 -2.3 -7.35 1.1 M-8.4 1.1 L-7.75 -2.35 -8.4 1.1" fill="#726b68" fill-rule="evenodd" stroke="none"/>
    <path d="M-6.65 1.15 Q0.25 2.0 2.7 2.8 L6.1 3.0 Q6.9 2.35 6.95 1.7 7.9 4.85 11.45 4.1 L10.8 5.5 10.7 5.6 9.15 6.5 Q7.4 7.55 5.45 7.9 5.95 5.8 3.3 4.5 0.65 3.15 -7.95 1.0 L-7.35 1.1 -6.65 1.15 M-10.05 5.4 L-11.45 4.15 Q-13.1 1.2 -13.45 -1.65 -12.55 1.35 -9.0 1.15 L-8.5 1.1 -8.4 1.1 -7.95 1.0 Q-12.1 2.15 -10.05 5.4" fill="#2b3535" fill-rule="evenodd" stroke="none"/>
    <path d="M9.75 -4.35 Q8.95 -4.3 8.5 -3.2 L7.5 -1.1 Q6.9 -0.25 6.9 0.45 L6.95 1.7 Q6.9 2.35 6.1 3.0 L2.7 2.8 Q0.25 2.0 -6.65 1.15 L-6.15 -1.35 Q1.25 -1.0 7.05 -5.7 8.35 -5.4 9.75 -4.35 M-13.45 -1.65 L-13.45 -2.7 -12.5 -5.1 Q-11.4 -6.7 -9.9 -7.4 L-10.05 -6.35 Q-11.3 -5.3 -11.25 -4.4 -11.2 -2.85 -8.5 -1.3 L-9.0 1.15 Q-12.55 1.35 -13.45 -1.65" fill="#3a4949" fill-rule="evenodd" stroke="none"/>
    <path d="M-7.15 -3.3 L-7.3 -2.3 -6.7 -2.3 Q-2.25 -2.3 1.85 -3.85 L2.4 -4.1 2.65 -4.2 6.25 -5.8 2.9 -11.35 2.2 -12.25 M9.75 -4.35 Q8.35 -5.4 7.05 -5.7 L6.25 -5.8 M6.9 0.45 Q6.9 -0.25 7.5 -1.1 M-8.95 -10.95 L-8.95 -11.05 -8.25 -11.95 Q-6.4 -12.9 -4.95 -13.1 L-3.05 -13.25 -2.5 -13.25 0.9 -12.95 2.15 -12.35 M11.45 4.1 L10.8 5.5 10.7 5.6 9.15 6.5 Q7.4 7.55 5.45 7.9 L5.4 7.9 Q6.25 12.25 4.6 16.7 0.4 20.55 -4.5 20.05 -7.25 19.0 -7.8 16.15 -9.8 10.7 -10.05 5.4 L-11.45 4.15 Q-13.1 1.2 -13.45 -1.65 L-13.45 -2.7 -12.5 -5.1 Q-11.4 -6.7 -9.9 -7.4 L-8.95 -10.95 Q-9.0 -9.85 -8.1 -8.4 L-8.1 -6.15 -6.75 -5.9 -4.45 -5.45 -3.85 -8.2 Q-1.25 -8.5 0.3 -10.4 M5.45 7.9 L5.4 7.9 M-7.95 1.0 Q0.65 3.15 3.3 4.5 5.95 5.8 5.45 7.9 M6.95 1.7 Q7.9 4.85 11.45 4.1 15.0 -1.55 9.75 -4.35 M-10.05 -6.35 L-9.9 -7.4 M-7.15 -3.3 L-6.75 -5.9 M-10.05 -6.35 L-10.25 -4.75 -10.05 -4.25 -9.5 -3.4 Q-8.9 -2.65 -7.75 -2.35 L-7.3 -2.3 M-7.95 1.0 Q-12.1 2.15 -10.05 5.4" fill="none" stroke="#000000" stroke-linecap="round" stroke-linejoin="round" stroke-width="0.05"/>
    <path d="M-7.95 1.0 Q-7.85 11.45 -4.5 20.05" fill="none" stroke="#91636c" stroke-linecap="round" stroke-linejoin="round" stroke-width="0.05"/>
    <path d="M2.2 -12.25 L2.15 -12.35 M-7.75 -2.35 L-8.4 1.1 M-6.7 -2.3 L-7.35 1.1" fill="none" stroke="#000000" stroke-linecap="round" stroke-linejoin="round" stroke-width="0.05"/>
    <path d="M3.8 8.7 Q1.4 9.75 1.3 11.4 -2.25 11.7 -6.6 10.5 -5.5 8.65 -4.2 8.05 L3.8 8.7 M-10.2 10.7 Q-10.35 9.6 -9.9 8.5 -9.45 7.4 -8.0 8.1 L-6.85 10.4 Q-7.9 11.25 -10.2 10.7" fill="#6d4162" fill-rule="evenodd" stroke="none"/>
    <path d="M3.8 8.7 Q5.3 10.9 4.3 13.3 2.6 13.4 1.3 11.4 1.4 9.75 3.8 8.7" fill="#5b3552" fill-rule="evenodd" stroke="none"/>
    <path d="M1.3 11.4 Q2.6 13.4 4.3 13.3 1.45 14.05 -4.15 12.85 L-6.6 10.5 Q-2.25 11.7 1.3 11.4 M-10.2 10.7 Q-7.9 11.25 -6.85 10.4 -7.35 11.9 -7.8 12.45 -9.15 12.55 -9.95 11.7 L-10.2 10.7" fill="#351a2d" fill-rule="evenodd" stroke="none"/>
    <path d="M4.3 13.3 Q5.3 10.9 3.8 8.7 1.4 9.75 1.3 11.4 2.6 13.4 4.3 13.3 1.45 14.05 -4.15 12.85 L-6.6 10.5 Q-5.5 8.65 -4.2 8.05 L3.8 8.7 M-6.85 10.4 L-8.0 8.1 Q-9.45 7.4 -9.9 8.5 -10.35 9.6 -10.2 10.7 L-9.95 11.7 Q-9.15 12.55 -7.8 12.45 -7.35 11.9 -6.85 10.4" fill="none" stroke="#000000" stroke-linecap="round" stroke-linejoin="round" stroke-width="0.05"/>
    <path d="M-10.2 10.7 Q-7.9 11.25 -6.85 10.4 M1.3 11.4 Q-2.25 11.7 -6.6 10.5" fill="none" stroke="#91636c" stroke-linecap="round" stroke-linejoin="round" stroke-width="0.05"/>
  </g>
</svg>
