<?xml version="1.0" encoding="UTF-8" standalone="no"?>
<svg xmlns:xlink="http://www.w3.org/1999/xlink" height="19.9px" width="22.9px" xmlns="http://www.w3.org/2000/svg">
  <g transform="matrix(1.0, 0.0, 0.0, 1.0, 9.25, 8.6)">
    <path d="M4.8 -7.8 Q6.35 -6.15 9.35 -5.5 12.45 -5.15 13.65 -4.15 10.3 0.3 6.45 1.9 4.15 2.85 1.65 2.75 L1.2 2.7 Q-0.95 2.05 -1.35 4.05 L-4.35 6.0 -4.7 6.25 Q-5.3 4.1 -4.5 2.15 -5.3 4.1 -4.7 6.25 L-5.25 5.75 -5.85 5.15 -6.5 4.6 -6.7 4.4 Q-6.5 3.65 -6.85 3.3 -7.35 2.85 -7.65 3.3 L-9.25 0.6 Q-9.1 -2.6 -7.75 -4.8 L-4.45 -5.9 Q-5.95 -3.75 -6.1 -0.5 L-4.8 1.85 -4.5 2.15 Q-2.8 -0.15 -0.3 -0.6 4.75 -3.25 4.8 -7.8" fill="#4b4645" fill-rule="evenodd" stroke="none"/>
    <path d="M6.45 1.9 L6.2 2.95 3.2 5.35 2.8 7.55 Q1.95 8.65 0.9 9.35 2.95 6.9 2.35 4.85 L1.4 5.45 Q1.85 8.45 0.4 9.65 L0.6 9.0 Q-0.7 10.6 -2.8 11.3 L-2.8 11.25 -2.8 9.95 -2.5 10.0 Q-1.6 10.0 -0.15 8.8 L0.2 6.45 -0.45 5.75 -3.5 7.3 -3.7 7.45 -4.35 6.0 -1.35 4.05 Q-0.3 4.45 0.75 4.05 L1.65 2.75 Q4.15 2.85 6.45 1.9 M-4.75 7.0 Q-5.55 7.95 -6.0 9.65 -6.85 7.3 -5.85 5.15 L-5.25 5.75 -4.75 6.95 -4.75 7.0 M-4.45 -5.9 Q-3.6 -6.95 -2.6 -7.55 -5.95 -3.65 -4.8 1.85 L-6.1 -0.5 Q-5.95 -3.75 -4.45 -5.9 M0.3 -8.55 Q2.3 -8.75 4.8 -7.8 4.75 -3.25 -0.3 -0.6 -2.8 -0.15 -4.5 2.15 -3.5 -5.2 0.3 -8.55 M0.6 9.0 Q0.85 7.85 0.75 6.5 0.45 5.7 -0.1 5.45 0.45 5.7 0.75 6.5 0.85 7.85 0.6 9.0 M3.2 4.3 L3.2 5.35 3.2 4.3" fill="#7d7d7d" fill-rule="evenodd" stroke="none"/>
    <path d="M0.9 9.35 L0.4 9.65 Q1.85 8.45 1.4 5.45 L2.35 4.85 Q2.95 6.9 0.9 9.35 M-2.8 11.25 L-4.75 7.0 -4.75 6.95 -5.25 5.75 -4.7 6.25 -4.35 6.0 -3.7 7.45 -4.55 6.55 -3.7 8.8 -3.4 9.5 -2.8 9.95 -2.8 11.25 M-6.0 9.65 Q-7.5 6.95 -6.5 4.6 L-5.85 5.15 Q-6.85 7.3 -6.0 9.65 M-2.6 -7.55 Q-1.3 -8.4 0.3 -8.55 -3.5 -5.2 -4.5 2.15 L-4.8 1.85 Q-5.95 -3.65 -2.6 -7.55" fill="#979797" fill-rule="evenodd" stroke="none"/>
    <path d="M-6.7 4.4 Q-7.65 4.9 -7.65 3.3 -7.35 2.85 -6.85 3.3 -6.5 3.65 -6.7 4.4 M-1.35 4.05 Q-0.95 2.05 1.2 2.7 L1.65 2.75 0.75 4.05 Q-0.3 4.45 -1.35 4.05" fill="#c5add3" fill-rule="evenodd" stroke="none"/>
    <path d="M-2.8 9.95 L-3.4 9.5 -3.7 8.8 -4.55 6.55 -3.7 7.45 -3.5 7.3 -0.45 5.75 0.2 6.45 -0.15 8.8 Q-1.6 10.0 -2.5 10.0 L-2.8 9.95 M-2.5 10.0 L-2.95 9.25 -2.55 9.0 -3.15 8.3 -2.8 7.8 -3.5 7.3 -2.8 7.8 -3.15 8.3 -2.55 9.0 -2.95 9.25 -2.5 10.0" fill="#b6b6b6" fill-rule="evenodd" stroke="none"/>
    <path d="M4.8 -7.8 Q6.35 -6.15 9.35 -5.5 12.45 -5.15 13.65 -4.15 10.3 0.3 6.45 1.9 L6.2 2.95 3.2 5.35 2.8 7.55 Q1.95 8.65 0.9 9.35 L0.4 9.65 0.6 9.0 Q-0.7 10.6 -2.8 11.3 L-2.8 11.25 -4.75 7.0 Q-5.55 7.95 -6.0 9.65 -7.5 6.95 -6.5 4.6 L-6.7 4.4 Q-7.65 4.9 -7.65 3.3 L-9.25 0.6 Q-9.1 -2.6 -7.75 -4.8 L-4.45 -5.9 Q-3.6 -6.95 -2.6 -7.55 -1.3 -8.4 0.3 -8.55 2.3 -8.75 4.8 -7.8 4.75 -3.25 -0.3 -0.6 -2.8 -0.15 -4.5 2.15 -5.3 4.1 -4.7 6.25 L-4.35 6.0 -1.35 4.05 Q-0.95 2.05 1.2 2.7 L1.65 2.75 Q4.15 2.85 6.45 1.9 M-1.35 4.05 Q-0.3 4.45 0.75 4.05 L1.65 2.75 M3.2 5.35 L3.2 4.3 M-0.1 5.45 Q0.45 5.7 0.75 6.5 0.85 7.85 0.6 9.0 M-4.45 -5.9 Q-5.95 -3.75 -6.1 -0.5 L-4.8 1.85 -4.5 2.15 M-5.25 5.75 L-5.85 5.15 -6.5 4.6 M-6.7 4.4 Q-6.5 3.65 -6.85 3.3 -7.35 2.85 -7.65 3.3 M-2.8 9.95 L-3.4 9.5 -3.7 8.8 -4.55 6.55 -3.7 7.45 -3.5 7.3 -2.8 7.8 -3.15 8.3 -2.55 9.0 -2.95 9.25 -2.5 10.0 Q-1.6 10.0 -0.15 8.8 L0.2 6.45 -0.45 5.75 -3.5 7.3 M-5.25 5.75 L-4.75 6.95 -4.75 7.0 M-2.5 10.0 L-2.8 9.95 M-4.7 6.25 L-5.25 5.75" fill="none" stroke="#000000" stroke-linecap="round" stroke-linejoin="round" stroke-width="0.05"/>
    <path d="M-4.45 -3.85 L-2.85 -4.05 -2.35 -2.9 -3.1 -2.05 -4.55 -2.05 -4.9 -3.05 -4.45 -3.85 M-2.75 -1.7 L-2.0 -2.6 -1.6 -1.8 -2.7 -0.5 Q-2.4 -1.4 -2.75 -1.7 M-4.95 -0.35 L-5.9 -1.45 -5.2 -2.7 -4.85 -1.65 Q-5.3 -1.3 -4.95 -0.35" fill="#d3d301" fill-rule="evenodd" stroke="none"/>
  </g>
</svg>
