<?xml version="1.0" encoding="UTF-8" standalone="no"?>
<svg xmlns:xlink="http://www.w3.org/1999/xlink" height="16.9px" width="19.05px" xmlns="http://www.w3.org/2000/svg">
  <g transform="matrix(1.0, 0.0, 0.0, 1.0, 9.35, 4.8)">
    <path d="M-3.85 1.5 L-0.65 1.6 Q3.5 -0.65 6.15 -4.8 L8.1 -2.7 Q6.35 -0.75 5.2 1.25 4.1 3.25 3.45 5.05 2.8 6.8 1.35 7.9 -0.1 8.95 -1.4 8.95 L-1.45 8.95 Q-3.8 5.45 -3.85 1.5 -3.8 5.45 -1.45 8.95 -3.0 8.9 -6.75 6.05 L-9.3 2.05 Q-9.5 -1.5 -8.1 -3.75 -7.45 -1.35 -5.8 1.4 L-3.9 1.5 -3.85 1.5" fill="#5c3550" fill-rule="evenodd" stroke="none"/>
    <path d="M8.1 -2.7 L9.7 -0.35 Q4.15 11.5 0.85 12.1 -3.65 9.95 -6.75 6.05 -3.0 8.9 -1.45 8.95 L-1.4 8.95 Q-0.1 8.95 1.35 7.9 2.8 6.8 3.45 5.05 4.1 3.25 5.2 1.25 6.35 -0.75 8.1 -2.7 M0.85 12.1 L-1.45 8.95 0.85 12.1" fill="#351a2d" fill-rule="evenodd" stroke="none"/>
    <path d="M-3.85 1.5 L-0.65 1.6 Q3.5 -0.65 6.15 -4.8 L8.1 -2.7 9.7 -0.35 Q4.15 11.5 0.85 12.1 -3.65 9.95 -6.75 6.05 L-9.3 2.05 Q-9.5 -1.5 -8.1 -3.75 -7.45 -1.35 -5.8 1.4 L-3.9 1.5" fill="none" stroke="#301820" stroke-linecap="round" stroke-linejoin="round" stroke-width="0.05"/>
    <path d="M-3.9 1.5 L-3.85 1.5 Q-3.8 5.45 -1.45 8.95 L0.85 12.1" fill="none" stroke="#91636c" stroke-linecap="round" stroke-linejoin="round" stroke-width="0.05"/>
  </g>
</svg>
