<?xml version="1.0" encoding="UTF-8" standalone="no"?>
<svg xmlns:xlink="http://www.w3.org/1999/xlink" height="42.85px" width="55.45px" xmlns="http://www.w3.org/2000/svg">
  <g transform="matrix(1.0, 0.0, 0.0, 1.0, 24.4, 20.6)">
    <path d="M-14.65 -19.7 Q-13.85 -19.6 -13.35 -18.95 L-11.65 -16.95 -11.15 -16.6 -11.05 -16.55 -11.0 -16.55 Q-9.7 -15.9 -8.4 -15.4 -5.5 -14.45 -3.15 -12.7 L-3.05 -12.6 -0.2 -10.1 Q2.0 -13.95 5.85 -16.5 9.3 -18.8 13.2 -20.3 L13.7 -20.45 14.9 -20.5 Q15.5 -20.35 15.95 -19.9 L16.4 -18.8 Q16.45 -18.2 16.15 -17.6 15.65 -16.75 15.7 -15.95 L15.7 -15.8 16.05 -11.7 Q16.15 -9.45 15.7 -7.3 L16.55 -7.45 16.65 -7.45 21.7 -7.15 21.65 -7.2 Q24.35 -6.8 26.95 -7.65 27.55 -7.85 28.1 -7.65 L28.15 -7.65 29.1 -7.0 29.55 -5.95 29.35 -4.8 29.35 -4.75 Q27.6 -1.6 24.8 0.45 L27.3 2.1 Q29.15 3.55 30.6 5.35 L30.65 5.35 Q31.1 5.95 31.05 6.75 31.0 7.5 30.45 8.1 29.85 8.6 29.05 8.6 L29.0 8.6 28.85 8.6 27.55 8.6 27.25 8.6 22.45 8.9 22.5 8.9 22.35 8.95 22.4 8.9 Q20.35 9.5 18.5 10.4 L18.45 10.45 Q15.85 11.6 13.2 12.1 L12.25 12.25 11.25 13.0 11.2 13.0 11.05 13.1 10.2 13.55 10.05 13.65 9.5 15.4 9.4 15.5 8.25 18.35 8.2 18.4 8.2 18.8 8.35 19.2 Q8.75 19.85 8.65 20.6 8.5 21.3 7.95 21.8 L6.6 22.25 Q1.6 22.05 -1.3 18.0 L-1.35 17.9 Q-2.65 16.05 -2.95 13.65 L-4.4 12.95 Q-8.75 10.45 -13.8 10.6 -16.5 11.0 -18.9 12.15 L-20.2 12.35 Q-20.85 12.2 -21.3 11.65 -21.75 11.15 -21.8 10.45 -21.85 9.8 -21.45 9.25 -19.4 6.2 -16.35 4.3 -17.45 2.95 -18.8 1.85 L-18.85 1.75 Q-20.65 0.15 -23.0 -0.6 -23.8 -0.85 -24.2 -1.6 -24.55 -2.35 -24.3 -3.15 -24.05 -3.95 -23.25 -4.3 -19.75 -6.05 -15.9 -6.65 L-15.95 -6.65 -15.8 -6.7 -15.75 -6.7 -14.3 -6.75 -15.8 -9.4 Q-17.8 -13.65 -16.9 -18.1 -16.8 -18.9 -16.1 -19.35 -15.45 -19.85 -14.65 -19.7" fill="#000000" fill-rule="evenodd" stroke="none"/>
    <path d="M12.55 -4.45 L13.2 -4.75 Q17.0 -6.5 21.3 -5.75 24.55 -4.75 27.55 -5.75 24.2 -0.4 20.0 0.7 22.35 1.3 24.65 2.65 27.55 4.6 28.95 6.55 L29.05 6.6 28.95 6.6 28.7 6.6 Q23.4 4.45 19.25 5.85 15.75 7.2 13.2 7.75 7.5 8.95 6.65 6.15 L7.6 5.2 Q9.5 3.45 12.1 3.45 11.0 2.3 8.85 1.85 11.05 0.85 13.2 0.5 L18.15 0.35 20.0 0.7 18.15 0.35 Q15.75 -0.75 13.2 -0.5 11.15 -0.3 8.95 0.8 9.3 -0.25 13.2 -2.75 L13.4 -2.85 13.2 -2.9 Q11.1 -3.5 8.4 -1.45 L11.05 -3.6 12.55 -4.45 M8.35 11.95 Q8.4 14.7 6.2 17.45 5.45 19.55 6.65 20.25 3.7 20.1 1.3 18.15 -1.25 15.5 -1.1 12.2 L-0.7 10.15 -0.05 8.4 Q1.1 12.25 3.25 13.5 3.1 10.35 4.0 9.5 6.05 10.75 8.3 11.25 L8.35 11.95 M-13.3 5.1 L-13.55 4.8 Q-17.15 -0.75 -22.4 -2.5 -15.35 -6.2 -9.35 -4.05 -5.15 -2.6 -1.5 1.75 -3.0 2.05 -6.0 0.8 L-3.4 2.25 Q4.75 12.15 -12.95 5.55 L-12.95 5.5 -13.3 5.1 M-13.6 -9.3 Q-15.9 -13.45 -14.95 -17.75 -13.9 -15.3 -10.4 -13.85 -5.0 -12.65 -1.4 -8.55 0.95 -2.8 -5.0 -6.7 -1.75 -4.0 -0.45 0.7 L-0.45 0.95 -0.3 2.1 -0.45 0.95 -0.45 0.7 Q-0.8 -3.15 0.25 -6.35 2.7 -14.1 13.2 -18.15 L14.2 -18.55 14.4 -18.6 14.35 -18.55 Q13.55 -17.1 13.6 -15.55 L13.65 -15.1 Q13.85 -12.05 13.2 -9.65 12.3 -6.5 9.85 -4.6 7.75 -1.05 4.1 1.4 2.4 0.45 3.75 -4.85 L4.8 -6.9 Q1.2 -4.7 0.0 3.6 L-0.3 2.1 Q-0.75 0.5 -2.2 -0.75 -8.95 -4.85 -13.6 -9.3 M25.65 -4.55 L20.05 -4.75 Q16.4 -5.15 14.6 -3.75 21.95 -2.6 25.65 -4.55 M21.05 1.8 Q17.4 1.4 14.25 3.2 21.05 2.65 25.55 5.0 24.2 3.2 21.05 1.8 M-6.75 -0.85 Q-9.0 -2.85 -12.5 -3.75 -16.05 -4.75 -21.05 -2.6 -13.1 -3.45 -6.75 -0.85 M-4.55 -8.6 Q-5.6 -10.45 -9.25 -11.55 -11.6 -12.25 -12.95 -13.7 -9.9 -9.25 -4.55 -8.6 M5.15 19.2 Q1.55 17.5 -0.3 12.25 -1.35 17.2 5.15 19.2 M12.5 -16.7 Q6.05 -15.35 2.3 -7.0 9.3 -12.85 12.5 -16.7" fill="#8446c1" fill-rule="evenodd" stroke="none"/>
    <path d="M13.65 -15.1 L13.85 -14.15 Q14.45 -10.05 13.2 -6.15 L12.55 -4.45 11.05 -3.6 8.4 -1.45 Q11.1 -3.5 13.2 -2.9 L13.4 -2.85 13.2 -2.75 Q9.3 -0.25 8.95 0.8 11.15 -0.3 13.2 -0.5 15.75 -0.75 18.15 0.35 L13.2 0.5 Q11.05 0.85 8.85 1.85 11.0 2.3 12.1 3.45 9.5 3.45 7.6 5.2 L6.65 6.15 Q7.5 8.95 13.2 7.75 15.75 7.2 19.25 5.85 23.4 4.45 28.7 6.6 23.45 5.95 17.45 8.25 15.2 9.4 13.2 9.95 L11.45 10.3 Q10.25 11.6 8.35 11.95 L8.3 11.25 8.05 10.2 7.9 10.15 Q6.6 9.9 5.45 9.25 L3.25 7.7 Q2.8 11.0 3.25 13.5 2.8 11.0 3.25 7.7 L5.45 9.25 Q6.6 9.9 7.9 10.15 L8.05 10.2 8.3 11.25 Q6.05 10.75 4.0 9.5 3.1 10.35 3.25 13.5 1.1 12.25 -0.05 8.4 L-0.7 10.15 -1.1 12.2 Q-3.8 11.65 -5.6 10.25 -7.05 9.95 -8.4 9.25 -13.8 7.35 -19.8 10.35 -16.9 6.05 -13.3 5.1 L-12.95 5.5 -12.95 5.55 Q4.75 12.15 -3.4 2.25 L-6.0 0.8 Q-3.0 2.05 -1.5 1.75 L0.0 3.6 -1.5 1.75 Q-5.15 -2.6 -9.35 -4.05 -12.15 -6.65 -13.6 -9.3 -8.95 -4.85 -2.2 -0.75 -0.75 0.5 -0.3 2.1 L0.0 3.6 Q1.2 -4.7 4.8 -6.9 L3.75 -4.85 Q2.4 0.45 4.1 1.4 7.75 -1.05 9.85 -4.6 12.3 -6.5 13.2 -9.65 13.85 -12.05 13.65 -15.1 M-1.4 -8.55 L0.25 -6.35 Q-0.8 -3.15 -0.45 0.7 -1.75 -4.0 -5.0 -6.7 0.95 -2.8 -1.4 -8.55 M2.25 3.65 Q1.95 -0.95 3.75 -4.85 1.95 -0.95 2.25 3.65 M12.1 3.45 Q7.75 2.8 3.4 4.95 6.15 2.95 8.85 1.85 6.15 2.95 3.4 4.95 7.75 2.8 12.1 3.45 M13.4 -2.85 L13.2 -2.8 Q8.85 -1.3 4.65 3.0 6.4 0.4 8.4 -1.45 6.4 0.4 4.65 3.0 8.85 -1.3 13.2 -2.8 L13.4 -2.85 M4.65 3.0 L3.4 4.95 Q2.25 5.95 1.45 5.8 L1.2 5.7 0.85 5.4 Q0.35 4.85 0.0 3.6 0.35 4.85 0.85 5.4 L1.2 5.7 1.45 5.8 Q2.25 5.95 3.4 4.95 L4.65 3.0 M0.85 5.4 L-3.4 2.25 0.85 5.4 M-0.05 8.4 L1.45 5.8 2.75 7.25 3.25 7.7 2.75 7.25 1.45 5.8 -0.05 8.4 M8.05 10.2 L11.45 10.3 8.05 10.2 M-8.4 9.25 Q-10.8 8.0 -12.95 5.55 -10.8 8.0 -8.4 9.25 M-5.6 10.25 Q-3.25 10.7 -0.7 10.15 -3.25 10.7 -5.6 10.25" fill="#623193" fill-rule="evenodd" stroke="none"/>
    <path d="M25.65 -4.55 Q21.95 -2.6 14.6 -3.75 16.4 -5.15 20.05 -4.75 L25.65 -4.55 M21.05 1.8 Q24.2 3.2 25.55 5.0 21.05 2.65 14.25 3.2 17.4 1.4 21.05 1.8 M-4.55 -8.6 Q-9.9 -9.25 -12.95 -13.7 -11.6 -12.25 -9.25 -11.55 -5.6 -10.45 -4.55 -8.6 M-6.75 -0.85 Q-13.1 -3.45 -21.05 -2.6 -16.05 -4.75 -12.5 -3.75 -9.0 -2.85 -6.75 -0.85 M5.15 19.2 Q-1.35 17.2 -0.3 12.25 1.55 17.5 5.15 19.2 M12.5 -16.7 Q9.3 -12.85 2.3 -7.0 6.05 -15.35 12.5 -16.7" fill="#be9ede" fill-rule="evenodd" stroke="none"/>
    <path d="M13.65 -15.1 L13.85 -14.15 Q14.45 -10.05 13.2 -6.15 L12.55 -4.45 13.2 -4.75 Q17.0 -6.5 21.3 -5.75 24.55 -4.75 27.55 -5.75 24.2 -0.4 20.0 0.7 22.35 1.3 24.65 2.65 27.55 4.6 28.95 6.55 L29.05 6.6 28.95 6.6 28.7 6.6 Q23.45 5.95 17.45 8.25 15.2 9.4 13.2 9.95 L11.45 10.3 Q10.25 11.6 8.35 11.95 8.4 14.7 6.2 17.45 5.45 19.55 6.65 20.25 3.7 20.1 1.3 18.15 -1.25 15.5 -1.1 12.2 -3.8 11.65 -5.6 10.25 -7.05 9.95 -8.4 9.25 -13.8 7.35 -19.8 10.35 -16.9 6.05 -13.3 5.1 L-13.55 4.8 Q-17.15 -0.75 -22.4 -2.5 -15.35 -6.2 -9.35 -4.05 -12.15 -6.65 -13.6 -9.3 -15.9 -13.45 -14.95 -17.75 -13.9 -15.3 -10.4 -13.85 -5.0 -12.65 -1.4 -8.55 L0.25 -6.35 Q2.7 -14.1 13.2 -18.15 L14.2 -18.55 14.4 -18.6 14.35 -18.55 Q13.55 -17.1 13.6 -15.55 M3.75 -4.85 Q1.95 -0.95 2.25 3.65 M18.15 0.35 L20.0 0.7 M18.15 0.35 L13.2 0.5 Q11.05 0.85 8.85 1.85 6.15 2.95 3.4 4.95 7.75 2.8 12.1 3.45 M12.55 -4.45 L11.05 -3.6 8.4 -1.45 Q6.4 0.4 4.65 3.0 8.85 -1.3 13.2 -2.8 L13.4 -2.85 M3.75 -4.85 L4.8 -6.9 M0.0 3.6 Q0.35 4.85 0.85 5.4 L1.2 5.7 1.45 5.8 Q2.25 5.95 3.4 4.95 L4.65 3.0 M-0.3 2.1 L-0.45 0.95 -0.45 0.7 Q-1.75 -4.0 -5.0 -6.7 M-0.3 2.1 L0.0 3.6 -1.5 1.75 Q-5.15 -2.6 -9.35 -4.05 M-6.0 0.8 L-3.4 2.25 0.85 5.4 M-0.05 8.4 L-0.7 10.15 -1.1 12.2 M8.3 11.25 L8.05 10.2 7.9 10.15 Q6.6 9.9 5.45 9.25 L3.25 7.7 Q2.8 11.0 3.25 13.5 M8.3 11.25 L8.35 11.95 M3.25 7.7 L2.75 7.25 1.45 5.8 -0.05 8.4 M11.45 10.3 L8.05 10.2 M-0.45 0.7 Q-0.8 -3.15 0.25 -6.35 M-12.95 5.55 Q-10.8 8.0 -8.4 9.25 M-13.3 5.1 L-12.95 5.5 -12.95 5.55 M-0.7 10.15 Q-3.25 10.7 -5.6 10.25" fill="none" stroke="#9966cc" stroke-linecap="round" stroke-linejoin="round" stroke-width="0.05"/>
  </g>
</svg>
