<?xml version="1.0" encoding="UTF-8" standalone="no"?>
<svg xmlns:xlink="http://www.w3.org/1999/xlink" height="42.1px" width="50.9px" xmlns="http://www.w3.org/2000/svg">
  <g transform="matrix(1.0, 0.0, 0.0, 1.0, 25.9, 20.9)">
    <path d="M-21.2 -10.35 L-0.4 -20.9 20.45 -10.4 -0.4 0.05 -21.2 -10.35" fill="#d0a997" fill-rule="evenodd" stroke="none"/>
    <path d="M21.45 -9.1 L21.45 -9.05 -0.45 1.9 -0.4 0.05 20.45 -10.4 Q20.4 -9.35 21.45 -9.1 M-18.1 -1.7 L-18.1 -0.25 -18.1 -0.15 -18.0 -0.1 -17.9 -0.15 -17.85 -0.25 -17.85 -1.7 -17.9 -1.8 -18.0 -1.8 -18.1 -1.8 -18.1 -1.7 M-16.7 -1.2 L-16.8 -1.2 -16.9 -1.2 -16.9 -1.1 -16.95 0.35 -16.95 0.45 -16.9 0.5 -16.8 0.5 -14.5 0.2 -14.45 0.15 -14.4 0.05 -14.45 -0.05 -14.55 -0.05 -16.7 0.2 -16.65 -1.1 -16.7 -1.2 M-8.45 3.0 L-8.5 3.05 -8.5 3.15 -8.45 3.2 -7.25 3.8 -7.25 5.2 -7.25 5.3 -7.15 5.35 -7.05 5.3 -7.0 5.2 -7.0 3.75 -7.05 3.7 -7.1 3.65 -8.35 3.0 -8.45 3.0 M-10.1 2.15 L-10.2 2.15 -10.2 2.25 -10.2 3.7 -10.2 3.8 -10.1 3.85 -10.0 3.8 -9.95 3.7 -9.95 2.25 -10.0 2.15 -10.1 2.15 M-8.35 5.8 L-8.4 5.8 -10.7 6.1 -10.8 6.15 -10.8 6.25 -10.75 6.3 -10.65 6.35 -8.5 6.05 -8.55 7.35 -8.55 7.45 -8.45 7.5 -8.35 7.45 -8.3 7.35 -8.25 5.9 -8.3 5.85 -8.35 5.8 M-7.35 6.45 L-7.35 7.95 -7.35 8.05 -7.25 8.1 -7.15 8.05 -7.1 7.95 -7.1 6.45 -7.15 6.35 -7.25 6.35 -7.35 6.35 -7.35 6.45 M-5.4 9.95 L-19.4 2.9 -19.3 -3.9 -5.3 3.1 -5.4 9.95 M-11.3 1.9 L-11.35 1.85 -11.4 1.8 -13.35 0.85 -13.4 0.85 -13.5 0.9 -13.5 0.95 -13.5 2.05 -13.5 2.15 -13.4 2.2 -13.3 2.15 -13.25 2.05 -13.25 1.15 -11.55 2.0 -11.55 3.05 -11.55 3.15 -11.45 3.2 -11.35 3.15 -11.3 3.05 -11.3 1.9 M-13.9 0.25 L-14.0 0.25 -14.0 0.35 -14.0 1.85 -14.0 1.95 -13.9 2.0 -13.8 1.95 -13.75 1.85 -13.75 0.35 -13.8 0.25 -13.9 0.25 M-15.0 2.5 L-15.05 2.45 -16.8 1.55 -16.85 1.55 -16.95 1.6 -16.95 1.7 -16.9 1.75 -15.2 2.6 -15.2 4.0 -15.2 4.1 -15.1 4.15 -15.0 4.1 -14.95 4.0 -14.95 2.55 -15.0 2.5 M-13.8 3.8 L-13.9 3.85 -13.9 3.9 -13.9 4.65 -13.9 4.75 -13.8 4.8 -13.7 4.75 -13.65 4.65 -13.65 4.1 -11.95 4.95 -11.95 5.65 -11.95 5.75 -11.85 5.8 -11.75 5.75 -11.7 5.65 -11.7 4.15 -11.75 4.05 -11.85 4.05 -11.95 4.05 -11.95 4.15 -11.95 4.7 -13.75 3.8 -13.8 3.8 M-17.95 0.95 L-18.05 0.95 -18.15 0.95 -18.15 1.05 -18.15 2.5 -18.15 2.55 -18.1 2.6 -16.9 3.25 -16.8 3.3 -16.75 3.25 -16.7 3.15 -16.75 3.05 -17.9 2.45 -17.9 1.05 -17.95 0.95" fill="#c69f8f" fill-rule="evenodd" stroke="none"/>
    <path d="M21.45 4.05 Q21.55 4.7 22.55 4.95 L-0.45 16.5 -0.45 15.05 -0.4 15.0 21.45 4.05 M24.85 7.25 L24.85 8.5 -0.45 21.2 -0.5 21.2 -0.45 20.0 -0.4 19.95 24.85 7.25" fill="#b38c7f" fill-rule="evenodd" stroke="none"/>
    <path d="M17.8 -5.6 L16.15 -3.6 16.45 -1.65 16.15 -3.6 16.0 -4.75 16.15 -3.6 17.8 -5.6 M21.45 -9.05 L21.45 -1.5 20.7 -0.55 19.3 1.35 20.0 1.65 19.45 2.8 20.0 1.65 20.7 1.95 21.45 2.35 21.45 3.8 21.4 3.8 -0.45 14.8 -0.45 9.65 -1.2 7.35 -0.45 7.35 -0.45 1.9 21.45 -9.05 M22.55 4.95 Q22.5 6.35 24.75 7.05 L-0.45 19.75 -0.45 16.5 22.55 4.95 M18.0 0.75 L19.3 1.35 18.0 0.75 16.45 -1.65 16.75 0.2 18.0 0.75 M15.55 -0.4 L16.75 0.2 15.55 -0.4" fill="#957066" fill-rule="evenodd" stroke="none"/>
    <path d="M-25.5 7.15 Q-23.65 7.1 -23.35 5.0 L-0.45 16.5 -0.45 19.75 -25.5 7.15 M-22.3 3.85 L-22.3 -0.8 -21.55 -0.8 -22.3 -1.95 -21.8 -1.95 -22.3 -2.4 -22.3 -9.05 -0.45 1.9 -0.45 7.35 -1.2 7.35 -0.45 9.65 -0.45 14.8 -22.25 3.85 -22.3 3.85 M-5.4 9.95 L-5.3 3.1 -19.3 -3.9 -19.4 2.9 -5.4 9.95" fill="#b18b7e" fill-rule="evenodd" stroke="none"/>
    <path d="M-22.3 -9.05 Q-21.45 -9.15 -21.2 -10.35 L-0.4 0.05 -0.45 1.9 -22.3 -9.05" fill="#be9887" fill-rule="evenodd" stroke="none"/>
    <path d="M-0.5 21.2 L-25.75 8.55 -25.75 7.3 -0.5 19.95 -0.45 20.0 -0.5 21.2 M-23.35 5.0 Q-22.5 4.9 -22.3 4.1 L-0.5 15.0 -0.45 15.05 -0.45 16.5 -23.35 5.0" fill="#c19a89" fill-rule="evenodd" stroke="none"/>
    <path d="M20.7 -0.55 L20.7 1.95 20.0 1.65 19.3 1.35 20.7 -0.55 M18.0 0.75 L16.75 0.2 16.45 -1.65 18.0 0.75" fill="#d5ad9b" fill-rule="evenodd" stroke="none"/>
    <path d="M21.45 3.8 L21.5 3.8 21.55 3.85 21.6 3.95 21.5 4.0 21.45 4.05 -0.4 15.0 -0.45 15.05 -0.5 15.0 -22.3 4.1 -22.35 4.05 -22.4 4.0 -22.4 3.9 -22.35 3.85 -22.3 3.85 -22.25 3.85 -0.45 14.8 21.4 3.8 21.45 3.8 M24.75 7.05 L24.8 7.0 24.9 7.0 24.95 7.05 25.0 7.15 24.9 7.2 24.85 7.25 -0.4 19.95 -0.45 20.0 -0.5 19.95 -25.75 7.3 -25.8 7.25 -25.85 7.2 -25.85 7.1 -25.8 7.05 -25.7 7.05 -25.5 7.15 -0.45 19.75 24.75 7.05 M-16.7 -1.2 L-16.65 -1.1 -16.7 0.2 -14.55 -0.05 -14.45 -0.05 -14.4 0.05 -14.45 0.15 -14.5 0.2 -16.8 0.5 -16.9 0.5 -16.95 0.45 -16.95 0.35 -16.9 -1.1 -16.9 -1.2 -16.8 -1.2 -16.7 -1.2 M-18.1 -1.7 L-18.1 -1.8 -18.0 -1.8 -17.9 -1.8 -17.85 -1.7 -17.85 -0.25 -17.9 -0.15 -18.0 -0.1 -18.1 -0.15 -18.1 -0.25 -18.1 -1.7 M-7.35 6.45 L-7.35 6.35 -7.25 6.35 -7.15 6.35 -7.1 6.45 -7.1 7.95 -7.15 8.05 -7.25 8.1 -7.35 8.05 -7.35 7.95 -7.35 6.45 M-8.35 5.8 L-8.3 5.85 -8.25 5.9 -8.3 7.35 -8.35 7.45 -8.45 7.5 -8.55 7.45 -8.55 7.35 -8.5 6.05 -10.65 6.35 -10.75 6.3 -10.8 6.25 -10.8 6.15 -10.7 6.1 -8.4 5.8 -8.35 5.8 M-10.1 2.15 L-10.0 2.15 -9.95 2.25 -9.95 3.7 -10.0 3.8 -10.1 3.85 -10.2 3.8 -10.2 3.7 -10.2 2.25 -10.2 2.15 -10.1 2.15 M-8.45 3.0 L-8.35 3.0 -7.1 3.65 -7.05 3.7 -7.0 3.75 -7.0 5.2 -7.05 5.3 -7.15 5.35 -7.25 5.3 -7.25 5.2 -7.25 3.8 -8.45 3.2 -8.5 3.15 -8.5 3.05 -8.45 3.0 M-17.95 0.95 L-17.9 1.05 -17.9 2.45 -16.75 3.05 -16.7 3.15 -16.75 3.25 -16.8 3.3 -16.9 3.25 -18.1 2.6 -18.15 2.55 -18.15 2.5 -18.15 1.05 -18.15 0.95 -18.05 0.95 -17.95 0.95 M-13.8 3.8 L-13.75 3.8 -11.95 4.7 -11.95 4.15 -11.95 4.05 -11.85 4.05 -11.75 4.05 -11.7 4.15 -11.7 5.65 -11.75 5.75 -11.85 5.8 -11.95 5.75 -11.95 5.65 -11.95 4.95 -13.65 4.1 -13.65 4.65 -13.7 4.75 -13.8 4.8 -13.9 4.75 -13.9 4.65 -13.9 3.9 -13.9 3.85 -13.8 3.8 M-15.0 2.5 L-14.95 2.55 -14.95 4.0 -15.0 4.1 -15.1 4.15 -15.2 4.1 -15.2 4.0 -15.2 2.6 -16.9 1.75 -16.95 1.7 -16.95 1.6 -16.85 1.55 -16.8 1.55 -15.05 2.45 -15.0 2.5 M-13.9 0.25 L-13.8 0.25 -13.75 0.35 -13.75 1.85 -13.8 1.95 -13.9 2.0 -14.0 1.95 -14.0 1.85 -14.0 0.35 -14.0 0.25 -13.9 0.25 M-11.3 1.9 L-11.3 3.05 -11.35 3.15 -11.45 3.2 -11.55 3.15 -11.55 3.05 -11.55 2.0 -13.25 1.15 -13.25 2.05 -13.3 2.15 -13.4 2.2 -13.5 2.15 -13.5 2.05 -13.5 0.95 -13.5 0.9 -13.4 0.85 -13.35 0.85 -11.4 1.8 -11.35 1.85 -11.3 1.9" fill="#7d564b" fill-rule="evenodd" stroke="none"/>
    <path d="M16.45 -1.65 L16.15 -3.6 16.0 -4.75 M16.15 -3.6 L17.8 -5.6 M21.45 -9.05 L21.5 -9.05 21.45 -9.1 21.45 -9.05 21.45 -1.5 M20.7 -0.55 L20.7 1.95 21.45 2.35 21.45 3.8 M21.45 4.05 Q21.55 4.7 22.55 4.95 22.5 6.35 24.75 7.05 M24.85 7.25 L24.85 8.5 -0.45 21.2 -0.5 21.2 -25.75 8.55 -25.75 7.3 M-25.5 7.15 Q-23.65 7.1 -23.35 5.0 -22.5 4.9 -22.3 4.1 M-22.3 3.85 L-22.3 -0.8 -21.55 -0.8 -22.3 -1.95 -21.8 -1.95 -22.3 -2.4 -22.3 -9.05 Q-21.45 -9.15 -21.2 -10.35 L-0.4 0.05 20.45 -10.4 Q20.4 -9.35 21.45 -9.1 M-0.4 -20.9 L20.45 -10.4 M-0.45 1.9 L21.45 -9.05 M20.0 1.65 L19.3 1.35 18.0 0.75 16.75 0.2 15.55 -0.4 M20.7 1.95 L20.0 1.65 M16.75 0.2 L16.45 -1.65 18.0 0.75 M-0.45 1.9 L-0.4 0.05 M-0.45 14.8 L-0.45 9.65 -1.2 7.35 -0.45 7.35 -0.45 1.9 -22.3 -9.05 M-5.4 9.95 L-19.4 2.9 -19.3 -3.9 -5.3 3.1 -5.4 9.95 M-0.45 16.5 L22.55 4.95 M-0.45 15.05 L-0.45 16.5 -23.35 5.0 M-0.45 20.0 L-0.5 21.2 M-0.45 19.75 L-0.45 16.5" fill="none" stroke="#7d564b" stroke-linecap="round" stroke-linejoin="round" stroke-width="0.05"/>
    <path d="M21.45 -1.5 L20.7 -0.55 19.3 1.35 M-21.2 -10.35 L-0.4 -20.9 M20.0 1.65 L19.45 2.8" fill="none" stroke="#7d564b" stroke-linecap="round" stroke-linejoin="round" stroke-width="0.05"/>
  </g>
</svg>
