<?xml version="1.0" encoding="UTF-8" standalone="no"?>
<svg xmlns:xlink="http://www.w3.org/1999/xlink" height="120.4px" width="42.9px" xmlns="http://www.w3.org/2000/svg">
  <g transform="matrix(1.0, 0.0, 0.0, 1.0, 21.5, 60.15)">
    <path d="M13.5 2.75 L13.5 2.65 13.55 2.65 13.5 2.75 M-10.35 -14.85 L-10.35 -14.9 -10.3 -14.85 -10.35 -14.85 M-8.1 -33.5 L-7.95 -33.45 -8.1 -33.4 -8.1 -33.5" fill="#ffffff" fill-rule="evenodd" stroke="none"/>
    <path d="M2.85 -39.8 L2.85 -39.85 2.9 -39.85 3.45 -39.8 3.4 -39.75 2.9 -39.8 2.85 -39.8 M2.35 -38.0 L2.25 -37.8 2.25 -38.0 2.35 -38.0 M2.2 -35.5 L2.3 -35.5 2.2 -35.35 2.2 -35.5" fill="#ffd0ae" fill-rule="evenodd" stroke="none"/>
    <path d="M16.1 50.75 L16.25 50.75 16.1 50.8 16.1 50.75 M-10.45 -3.5 L-10.4 -3.45 -10.4 -3.4 -10.45 -3.5" fill="#263959" fill-rule="evenodd" stroke="none"/>
    <path d="M2.05 -33.05 L2.1 -33.05 2.1 -33.0 2.05 -32.95 2.05 -33.0 2.05 -33.05 M2.05 -33.0 L2.1 -33.0 2.05 -33.0 M-7.45 -33.25 L-7.5 -33.25 -7.5 -33.3 -7.45 -33.25" fill="#add2e3" fill-rule="evenodd" stroke="none"/>
    <path d="M-0.9 -50.35 L-1.0 -50.35 -1.15 -50.4 -0.9 -50.35 M1.35 -49.85 L1.3 -49.75 1.2 -49.75 1.35 -49.85 M2.3 -42.0 L2.1 -41.95 2.1 -42.05 2.3 -42.0 M-3.25 -41.15 L-3.1 -41.15 -3.1 -41.1 -3.2 -40.95 -3.25 -41.15 M2.3 -39.05 L2.5 -39.0 2.5 -38.25 2.3 -39.05 M-6.9 -51.35 L-6.95 -51.3 -6.95 -51.45 -6.9 -51.35 M-8.55 -48.25 L-8.55 -48.4 -8.45 -48.3 -8.55 -48.25 M-8.95 -37.35 L-9.1 -37.3 -9.25 -40.2 -8.95 -37.35" fill="#c06467" fill-rule="evenodd" stroke="none"/>
    <path d="M-2.2 -47.45 L-3.1 -47.7 -3.15 -47.9 -3.0 -48.4 -2.55 -48.6 -2.2 -48.4 -2.15 -48.3 -2.0 -47.9 -2.2 -47.5 -2.2 -47.45" fill="#d0e3c0" fill-rule="evenodd" stroke="none"/>
    <path d="M-14.3 17.2 L-14.3 17.1 -14.25 17.2 -14.3 17.2 M16.25 50.75 L16.2 50.85 16.1 50.8 16.25 50.75 M-5.6 46.8 L-5.35 46.8 -5.6 46.85 -5.75 46.9 -5.75 46.85 -5.6 46.8" fill="#ebebeb" fill-rule="evenodd" stroke="none"/>
    <path d="M7.1 -57.25 L5.45 -53.25 Q6.6 -54.65 8.45 -55.3 11.45 -56.65 16.15 -54.25 12.55 -53.45 9.1 -51.4 11.65 -51.2 13.75 -50.15 16.2 -47.65 17.75 -44.7 L14.0 -48.05 8.95 -49.6 8.95 -48.45 9.85 -47.65 12.55 -45.5 Q14.35 -42.05 14.5 -38.0 L14.5 -37.95 14.45 -38.0 14.5 -38.0 Q12.5 -42.9 10.2 -45.75 7.0 -42.1 3.8 -45.2 L3.15 -48.9 2.4 -49.3 1.3 -49.75 1.35 -49.85 1.2 -49.75 Q0.65 -49.35 -0.15 -49.35 -1.05 -49.4 -1.7 -49.85 L-2.15 -50.35 -2.25 -50.55 -2.3 -50.9 Q-2.35 -51.55 -1.7 -51.95 L-0.15 -52.35 Q0.75 -52.4 1.35 -51.95 1.95 -51.55 1.95 -50.9 1.95 -50.3 1.35 -49.85 1.95 -50.3 1.95 -50.9 1.95 -51.55 1.35 -51.95 0.75 -52.4 -0.15 -52.35 L-1.7 -51.95 Q-2.35 -51.55 -2.3 -50.9 L-2.25 -50.55 -4.15 -50.65 Q-4.75 -50.15 -5.6 -50.15 L-6.9 -50.45 -7.15 -50.65 -7.5 -50.95 -7.15 -50.65 -6.9 -50.45 -6.95 -50.45 -7.4 -50.1 -7.15 -50.1 -5.7 -49.7 -5.25 -49.3 -5.05 -48.65 Q-5.05 -48.0 -5.7 -47.55 -6.3 -47.1 -7.15 -47.05 L-7.65 -47.1 -8.7 -47.55 -9.05 -47.9 Q-9.35 -48.2 -9.35 -48.65 -9.35 -49.3 -8.7 -49.7 L-7.4 -50.1 -8.7 -49.7 Q-9.35 -49.3 -9.35 -48.65 -9.35 -48.2 -9.05 -47.9 L-9.35 -47.25 -8.9 -47.5 -8.8 -47.45 -7.8 -46.85 -6.95 -46.05 -6.9 -45.95 Q-6.35 -46.8 -4.55 -47.6 L-3.9 -47.7 -3.1 -47.7 -3.9 -47.7 -3.9 -47.85 Q-3.9 -48.5 -3.25 -48.9 L-1.7 -49.3 -0.25 -48.9 Q0.4 -48.5 0.4 -47.85 0.4 -47.2 -0.25 -46.8 L-0.45 -46.65 Q0.9 -45.7 1.45 -44.1 L1.8 -43.0 1.95 -42.45 2.1 -42.05 2.1 -41.95 2.3 -41.1 2.35 -40.75 2.4 -40.15 2.45 -39.75 2.45 -39.7 2.85 -39.8 2.9 -39.8 3.4 -39.75 3.75 -39.25 3.85 -37.95 3.8 -37.55 Q3.65 -38.3 2.85 -38.6 L2.5 -38.25 2.35 -38.0 2.25 -38.0 2.25 -37.8 2.25 -37.2 2.2 -35.5 2.2 -35.35 2.3 -35.5 2.45 -35.55 2.6 -35.55 2.5 -34.85 2.45 -34.65 2.15 -34.75 2.05 -33.05 2.05 -33.0 2.05 -32.95 2.3 -31.4 Q2.35 -30.2 2.05 -29.15 L2.0 -29.15 1.6 -29.0 2.05 -33.0 1.6 -29.0 1.1 -26.0 0.8 -28.8 -1.8 -28.3 -2.2 -28.2 -2.1 -30.9 Q-3.6 -30.9 -4.7 -31.35 L-4.85 -28.6 -4.7 -31.35 Q-3.6 -30.9 -2.1 -30.9 L-2.2 -28.2 Q-3.7 -28.05 -4.85 -28.6 -3.7 -28.05 -2.2 -28.2 L-2.7 -26.9 -3.7 -22.75 -5.1 -23.1 -5.6 -23.05 -6.1 -22.95 -5.85 -24.8 -5.45 -26.65 -5.25 -27.4 -4.85 -28.6 -5.0 -28.65 -5.95 -29.25 -6.65 -29.9 -7.2 -30.7 -7.25 -30.75 -7.5 -32.5 -7.5 -33.25 -7.5 -32.5 -8.15 -32.4 -8.45 -29.65 -8.7 -27.75 -9.0 -29.6 -9.35 -32.25 -10.2 -32.1 Q-12.2 -30.1 -12.45 -28.65 L-12.65 -26.4 -12.7 -26.1 Q-12.75 -24.95 -12.4 -22.85 L-11.85 -20.3 Q-12.2 -19.75 -13.4 -20.65 L-13.65 -20.9 -13.7 -20.9 -13.75 -20.95 -14.35 -21.5 -15.0 -22.15 -16.75 -24.35 Q-19.0 -27.75 -21.5 -27.25 L-20.6 -29.0 Q-19.85 -29.2 -18.8 -28.7 -17.15 -27.95 -16.05 -26.1 L-15.2 -24.8 -13.7 -23.3 Q-13.9 -27.4 -12.8 -30.45 -12.1 -32.25 -10.95 -33.7 L-9.5 -33.6 -10.15 -41.5 -10.2 -41.75 Q-10.65 -39.2 -9.9 -37.25 -11.85 -39.75 -11.75 -44.5 L-11.55 -44.9 -10.4 -46.35 -14.3 -45.65 Q-12.9 -48.7 -10.15 -50.55 L-7.5 -50.95 -7.8 -51.65 -7.8 -51.7 -7.35 -52.6 Q-9.0 -53.55 -10.85 -54.15 -8.45 -55.1 -5.3 -54.75 L-3.25 -53.65 -3.3 -53.95 -3.35 -54.15 -3.75 -54.35 Q-3.95 -55.45 -4.65 -56.6 L-5.15 -57.3 -6.6 -58.85 -7.15 -59.35 Q-3.6 -58.65 -0.45 -57.0 L1.15 -53.9 1.15 -54.6 1.6 -53.75 Q1.65 -55.8 1.2 -57.65 L1.0 -58.3 0.7 -59.0 0.55 -59.4 0.75 -59.15 Q2.35 -57.4 2.9 -55.05 L3.05 -54.25 3.1 -54.35 3.3 -53.35 Q4.25 -55.3 6.05 -56.75 L7.1 -57.25 M6.75 -28.55 Q7.35 -29.0 7.7 -28.95 L10.4 -28.7 9.15 -27.6 Q7.15 -25.6 6.15 -22.7 L6.1 -22.55 5.7 -21.0 Q5.5 -19.45 6.2 -18.55 L6.25 -18.5 Q6.6 -18.05 7.2 -17.75 L7.8 -17.55 10.7 -17.7 Q12.25 -18.15 14.35 -19.2 L14.65 -19.35 Q17.1 -20.6 19.75 -20.9 L20.95 -20.95 Q21.45 -19.45 21.4 -17.6 L19.75 -17.6 Q17.9 -17.5 16.8 -16.9 L15.3 -16.05 15.25 -16.0 14.5 -15.65 Q12.0 -14.6 10.05 -14.3 L7.95 -14.25 Q5.9 -14.45 4.55 -15.75 L3.95 -16.4 Q3.4 -17.15 3.15 -18.0 2.75 -19.2 2.95 -20.7 3.05 -22.15 3.7 -23.8 L4.9 -26.35 5.85 -27.65 6.75 -28.55 M15.35 -12.45 Q15.65 -12.85 16.25 -11.5 L16.75 -11.85 Q18.9 -10.35 18.35 -7.75 L17.75 -7.65 18.05 -6.75 18.55 2.35 Q18.3 1.5 17.85 1.5 17.35 1.55 16.95 2.45 L16.85 2.6 Q16.55 3.35 16.4 4.3 L16.4 4.45 Q16.3 5.45 16.5 6.2 L16.55 6.45 Q16.8 7.2 17.3 7.15 17.8 7.2 18.15 6.3 L18.25 6.1 18.5 7.0 17.4 12.1 16.75 12.5 16.65 13.0 16.6 13.0 14.7 9.95 14.0 9.2 13.95 9.1 13.15 8.3 10.55 7.95 12.8 4.1 13.45 4.0 13.5 4.25 Q13.75 5.0 14.5 5.05 L14.15 3.75 15.1 5.2 15.1 5.3 14.7 5.6 Q15.3 6.25 16.1 6.25 L15.3 5.1 15.85 4.4 15.2 3.35 16.2 2.6 15.95 2.55 14.3 -8.1 15.95 2.55 15.75 2.55 13.85 1.9 13.65 1.85 13.7 2.0 13.75 2.05 13.7 2.1 13.75 2.05 14.7 3.35 14.15 3.45 14.05 3.5 13.95 3.25 13.7 2.1 13.55 2.65 13.5 2.65 Q12.95 -1.3 11.15 -6.25 10.95 -8.1 11.9 -9.0 L12.25 -8.0 14.3 -8.1 15.2 -8.65 16.0 -9.55 16.05 -9.6 16.15 -9.65 15.35 -12.45 M7.55 -6.85 L7.45 -4.5 5.8 -3.25 5.3 -2.95 4.45 -2.65 0.95 -2.15 0.3 -2.15 0.4 -4.35 4.5 -5.2 5.85 -5.7 Q6.8 -6.2 7.55 -6.85 M11.85 20.6 L12.25 21.0 Q16.4 41.6 16.45 48.1 L16.35 49.8 16.1 50.7 16.1 50.75 16.1 50.8 16.2 50.85 16.05 52.8 15.65 53.85 14.85 54.7 12.85 55.2 10.9 55.2 9.4 55.0 8.2 54.8 Q6.6 54.1 6.5 52.9 L6.85 52.25 Q6.2 51.9 6.1 51.35 L4.85 46.55 Q3.55 41.2 2.8 37.0 L2.1 31.95 Q1.4 24.7 1.6 23.3 L1.85 20.05 2.05 15.6 Q4.7 13.95 7.95 14.8 10.2 18.75 11.85 20.6 M-0.65 3.85 Q-1.6 8.2 -2.25 13.4 L-2.55 13.5 Q-5.6 14.05 -8.25 11.65 -9.4 5.5 -9.75 -1.1 L-9.75 -1.4 -9.8 -2.8 -7.9 -1.05 -7.85 1.25 Q-7.7 6.15 -6.9 9.8 -5.7 11.35 -3.75 10.95 -3.65 7.85 -2.85 4.0 L-2.75 3.5 -2.65 3.05 -1.9 0.1 -0.85 -0.35 0.35 -0.7 -0.65 3.85 M-18.0 48.1 Q-15.45 47.05 -14.45 44.7 L-14.85 44.35 -14.95 44.2 -15.15 43.95 -15.2 37.0 Q-15.2 28.75 -14.65 20.6 -14.3 19.35 -14.3 17.2 L-14.25 17.2 -13.15 18.15 -14.25 17.2 -14.3 17.1 Q-14.85 16.15 -14.85 15.1 L-14.55 13.75 -14.7 12.35 -12.7 11.85 Q-9.95 11.45 -7.55 13.25 -7.45 16.05 -5.9 18.0 L-5.05 18.95 -5.6 46.8 -5.75 46.85 -6.2 46.9 -7.4 48.6 -7.85 49.0 Q-8.75 49.8 -9.7 50.1 L-12.45 50.4 -14.75 50.25 -16.35 50.05 -17.55 49.8 Q-18.85 49.1 -18.0 48.1 M-11.35 -6.45 L-11.1 -9.05 -10.65 -8.35 -10.55 -8.25 -9.85 -7.4 -9.1 -6.8 -9.15 -4.35 Q-9.5 -4.45 -9.85 -4.65 L-10.75 -5.5 -10.85 -5.65 -11.15 -6.05 -11.35 -6.45 M-10.35 -11.1 L-10.35 -14.85 -10.3 -14.85 -9.75 -14.25 -9.1 -13.7 -8.75 -13.5 -8.45 -13.4 -8.55 -11.2 -8.55 -11.15 -8.7 -8.9 -9.45 -9.8 -9.85 -10.35 -10.3 -11.1 -10.35 -11.1 M-12.05 -15.35 Q-11.3 -14.45 -11.45 -12.75 -13.35 -7.6 -13.85 -3.5 L-13.75 -3.5 -12.4 0.1 -14.75 0.2 -15.6 0.85 -15.7 0.9 -16.45 1.55 -18.6 4.1 -18.65 4.1 -18.65 3.65 -19.15 3.25 -19.3 -1.4 -18.9 -2.2 -18.3 -13.25 -18.0 -14.15 -18.65 -14.25 Q-19.2 -16.85 -17.05 -18.35 L-16.55 -18.0 Q-15.9 -19.45 -15.6 -18.9 L-15.6 -18.85 -16.3 -15.15 -16.25 -15.1 -16.2 -15.05 -15.3 -14.15 -14.7 -13.7 Q-13.85 -13.35 -12.5 -13.7 L-12.05 -15.35 M-1.5 -50.65 L-1.5 -50.6 -1.5 -50.45 -1.45 -50.4 -1.15 -50.0 Q-0.8 -49.7 -0.25 -49.7 L0.7 -49.95 0.75 -50.0 0.85 -50.05 1.15 -50.6 0.75 -51.15 -0.25 -51.4 -0.6 -51.35 -0.6 -51.45 -1.0 -51.65 -1.45 -51.45 -1.6 -50.95 -1.5 -50.65 M-0.85 -46.9 L-0.45 -46.65 -0.85 -46.9 -0.8 -46.95 -0.4 -47.5 -0.8 -48.05 -1.8 -48.3 -2.15 -48.3 -2.2 -48.4 -2.55 -48.6 -3.0 -48.4 -3.15 -47.9 -3.1 -47.7 -2.2 -47.45 -1.95 -47.4 -1.15 -47.05 -0.85 -46.9 M-3.25 -41.15 Q-3.65 -43.4 -5.5 -45.7 L-6.65 -45.7 -6.9 -45.95 -6.65 -45.7 -5.5 -45.7 Q-3.65 -43.4 -3.25 -41.15 -4.3 -41.2 -5.2 -40.15 -3.55 -40.9 -2.2 -40.7 L-2.25 -40.95 Q-2.4 -42.7 -2.8 -43.6 -2.6 -42.25 -3.1 -41.15 -2.6 -42.25 -2.8 -43.6 -2.4 -42.7 -2.25 -40.95 L-3.1 -41.15 -3.25 -41.15 M2.3 -39.05 L1.35 -42.55 Q1.2 -38.95 0.3 -36.35 L-0.2 -35.15 Q-0.3 -39.35 -1.45 -43.25 -0.75 -39.9 -2.2 -37.4 L-2.2 -40.7 -2.2 -37.4 Q-0.75 -39.9 -1.45 -43.25 -0.3 -39.35 -0.2 -35.15 L0.3 -36.35 Q1.2 -38.95 1.35 -42.55 L2.3 -39.05 2.5 -38.25 2.5 -39.0 2.3 -39.05 2.25 -38.0 2.3 -39.05 M2.45 -39.7 L2.5 -39.0 2.45 -39.7 M2.2 -35.35 L2.15 -34.75 2.2 -35.35 M0.3 -36.35 L0.3 -35.9 0.3 -36.35 M-0.85 -32.65 L0.45 -32.75 0.45 -33.3 0.3 -35.9 -0.15 -35.2 -0.2 -35.15 Q-1.25 -33.8 -3.15 -32.75 -4.4 -32.05 -6.1 -31.5 -3.3 -31.6 -0.85 -32.65 M-7.45 -33.25 L-6.1 -31.5 -7.45 -33.25 -7.5 -33.3 -8.1 -34.15 -8.7 -35.1 -8.95 -37.35 -9.25 -40.2 -9.1 -37.3 -8.95 -37.35 -8.7 -35.1 -8.1 -34.15 -8.1 -33.5 -8.1 -33.4 -7.95 -33.45 -7.5 -33.25 -7.45 -33.25 M0.45 -32.75 L0.8 -28.8 0.45 -32.75 M3.7 -7.5 Q2.0 -6.6 0.3 -6.2 L0.7 -11.25 4.35 -11.95 3.7 -10.55 3.5 -10.1 3.5 -10.05 3.7 -7.5 M-4.0 -6.0 L-5.05 -6.2 -5.8 -6.55 -6.05 -6.7 -5.6 -12.4 Q-6.2 -13.55 -6.4 -16.05 L-6.5 -17.3 -6.5 -17.4 -6.3 -17.3 -5.45 -17.05 -5.1 -17.05 -4.4 -17.1 -4.35 -16.9 -4.3 -15.8 Q-4.1 -12.65 -3.45 -11.9 L-4.0 -6.0 M17.75 -7.65 L16.95 -9.5 16.25 -11.5 16.95 -9.5 17.75 -7.65 M4.65 22.15 L4.45 22.05 Q3.45 21.5 3.15 20.45 2.85 19.4 3.45 18.4 4.0 17.45 5.05 17.2 L7.1 17.4 Q8.05 18.0 8.35 19.05 8.6 20.1 8.1 21.05 L7.5 21.8 8.1 21.05 Q8.6 20.1 8.35 19.05 8.05 18.0 7.1 17.4 L5.05 17.2 Q4.0 17.45 3.45 18.4 2.85 19.4 3.15 20.45 3.45 21.5 4.45 22.05 L4.65 22.15 6.05 30.6 Q7.7 32.15 8.7 29.85 L7.5 21.8 6.45 22.35 4.65 22.15 M6.85 52.25 L12.35 52.4 Q14.6 51.8 16.1 50.8 14.6 51.8 12.35 52.4 L6.85 52.25 M-7.35 -52.6 L-7.15 -52.75 -5.6 -53.15 Q-4.75 -53.15 -4.15 -52.75 -3.5 -52.35 -3.5 -51.7 -3.5 -51.05 -4.15 -50.65 -3.5 -51.05 -3.5 -51.7 -3.5 -52.35 -4.15 -52.75 -4.75 -53.15 -5.6 -53.15 L-7.15 -52.75 -7.35 -52.6 M-6.95 -51.3 L-6.6 -50.8 -6.2 -50.55 -4.95 -50.65 -4.7 -50.8 -4.3 -51.35 -4.7 -51.9 -5.7 -52.15 -6.05 -52.15 -6.1 -52.25 -6.45 -52.4 -6.8 -52.3 -6.9 -52.25 -7.05 -51.75 -7.05 -51.65 -6.95 -51.45 -6.95 -51.3 M-8.55 -48.25 L-8.15 -47.7 -7.4 -47.4 -7.25 -47.4 Q-6.65 -47.4 -6.25 -47.7 -5.9 -47.95 -5.9 -48.3 L-6.05 -48.7 -6.25 -48.85 -7.25 -49.1 -7.6 -49.1 -7.65 -49.2 -8.0 -49.35 -8.1 -49.35 -8.45 -49.2 -8.6 -48.7 -8.6 -48.65 -8.55 -48.4 -8.55 -48.25 M-6.65 -45.7 Q-6.4 -45.25 -6.95 -44.95 -8.25 -45.7 -9.1 -43.1 L-9.25 -40.2 -9.1 -43.1 Q-8.25 -45.7 -6.95 -44.95 -6.4 -45.25 -6.65 -45.7 M-8.45 -38.6 L-8.0 -38.3 -7.8 -38.15 -7.65 -39.55 -7.7 -40.8 -8.1 -41.1 Q-8.8 -41.5 -9.1 -39.7 L-8.8 -39.1 -8.75 -38.9 -8.45 -38.6 M-10.15 -41.5 Q-9.65 -38.45 -9.1 -37.3 -9.65 -38.45 -10.15 -41.5 M-7.25 -40.9 Q-7.5 -42.9 -9.15 -42.6 -8.1 -42.4 -7.25 -40.9 M-7.9 -36.55 L-7.5 -37.6 -7.65 -39.55 -7.5 -37.6 -7.9 -36.55 Q-7.95 -35.7 -7.1 -36.0 L-7.9 -36.55 M-4.25 -36.9 L-2.55 -37.1 -2.55 -37.25 Q-2.75 -39.25 -4.05 -39.6 L-4.65 -39.7 Q-5.2 -38.75 -5.3 -37.25 L-5.05 -37.15 -4.5 -36.95 -4.25 -36.9 M-4.65 -33.75 Q-6.15 -34.05 -7.05 -34.6 L-7.55 -34.9 -7.05 -34.6 Q-6.15 -34.05 -4.65 -33.75 M-8.1 -33.4 L-8.15 -32.4 -8.1 -33.4 M-9.35 -32.25 L-9.5 -33.6 -9.35 -32.25 M-9.35 -47.25 L-10.4 -46.35 -9.35 -47.25 M-6.6 -22.0 L-6.05 -22.25 Q-5.7 -22.25 -5.5 -22.0 L-5.4 -21.8 -5.3 -21.35 Q-5.25 -21.05 -5.5 -20.8 L-6.05 -20.6 -6.15 -20.6 -6.6 -20.8 -6.85 -21.4 -6.8 -21.7 -6.6 -22.0 M-18.0 -14.15 L-17.25 -16.0 -16.55 -18.0 -17.25 -16.0 -18.0 -14.15 M-6.15 0.2 L-4.3 1.15 -4.4 2.85 -4.55 8.2 -6.35 7.45 -6.25 2.25 -6.15 0.2 M-6.8 -5.0 Q-5.0 -4.0 -2.65 -4.25 L-2.7 -2.25 -5.1 -0.75 -7.15 -2.6 -7.15 -5.2 -6.8 -5.0 M-16.55 -1.8 L-14.7 -13.7 -16.55 -1.8 M-11.7 18.3 L-10.75 17.8 Q-10.15 17.1 -10.15 15.95 -10.15 14.8 -10.75 13.85 -11.4 12.9 -12.25 12.75 L-12.75 12.75 Q-11.9 12.9 -11.3 13.85 -10.7 14.8 -10.7 15.95 -10.7 17.1 -11.3 17.8 L-11.8 18.2 -12.0 18.25 -12.15 18.3 -12.75 18.3 -13.15 18.15 -13.6 24.1 Q-13.45 25.25 -13.0 25.35 -12.7 25.4 -12.25 24.95 L-11.7 18.35 -11.7 18.3 M-12.75 12.75 L-12.8 12.75 -12.85 12.75 Q-13.7 12.6 -14.25 13.25 L-14.55 13.75 -14.25 13.25 Q-13.7 12.6 -12.85 12.75 L-12.8 12.75 -12.75 12.75 M-14.45 44.7 L-12.95 45.7 Q-11.2 46.65 -8.5 46.95 L-6.2 46.9 -8.5 46.95 Q-11.2 46.65 -12.95 45.7 L-14.45 44.7" fill="#d0a997" fill-rule="evenodd" stroke="none"/>
    <path d="M17.75 -44.7 L17.85 -44.55 12.95 -47.25 9.85 -47.65 8.95 -48.45 8.95 -49.6 14.0 -48.05 17.75 -44.7 M14.45 -38.0 Q12.8 -40.45 9.9 -42.2 8.4 -41.95 3.5 -36.4 L3.5 -36.5 3.45 -36.45 3.2 -36.0 3.05 -35.85 2.7 -35.6 2.65 -35.6 2.6 -35.55 2.45 -35.55 2.3 -35.5 2.2 -35.5 2.25 -37.2 2.25 -37.8 2.35 -38.0 2.5 -38.25 2.85 -38.6 Q3.65 -38.3 3.8 -37.55 L3.75 -37.35 3.9 -38.0 3.75 -37.35 3.8 -37.55 3.85 -37.95 3.75 -39.25 3.4 -39.75 3.45 -39.8 2.9 -39.85 2.85 -39.85 2.85 -39.8 2.45 -39.7 2.45 -39.75 2.4 -40.15 2.35 -40.75 2.3 -41.1 2.1 -41.95 2.3 -42.0 Q3.4 -41.85 4.1 -43.35 L3.8 -45.2 4.1 -43.35 Q3.4 -41.85 2.3 -42.0 L2.1 -42.05 1.95 -42.45 1.8 -43.0 1.45 -44.1 Q0.9 -45.7 -0.45 -46.65 L-0.25 -46.8 Q0.4 -47.2 0.4 -47.85 0.4 -48.5 -0.25 -48.9 L-1.7 -49.3 -3.25 -48.9 Q-3.9 -48.5 -3.9 -47.85 L-3.9 -47.7 -4.55 -47.6 Q-6.35 -46.8 -6.9 -45.95 L-6.95 -46.05 -7.8 -46.85 -8.8 -47.45 -8.9 -47.5 -9.35 -47.25 -9.05 -47.9 -8.7 -47.55 -7.65 -47.1 -7.15 -47.05 Q-6.3 -47.1 -5.7 -47.55 -5.05 -48.0 -5.05 -48.65 L-5.25 -49.3 -5.7 -49.7 -7.15 -50.1 -7.4 -50.1 -6.95 -50.45 -6.9 -50.45 -5.6 -50.15 Q-4.75 -50.15 -4.15 -50.65 L-2.25 -50.55 -2.15 -50.35 -1.7 -49.85 Q-1.05 -49.4 -0.15 -49.35 0.65 -49.35 1.2 -49.75 L1.3 -49.75 2.4 -49.3 3.15 -48.9 3.8 -45.2 Q7.0 -42.1 10.2 -45.75 12.5 -42.9 14.5 -38.0 L14.45 -38.0 M10.4 -28.7 Q13.6 -28.15 17.35 -25.75 L19.75 -23.35 Q20.55 -22.25 20.95 -20.95 L19.75 -20.9 Q17.1 -20.6 14.65 -19.35 L14.35 -19.2 Q12.25 -18.15 10.7 -17.7 L7.8 -17.55 7.2 -17.75 Q6.6 -18.05 6.25 -18.5 L6.2 -18.55 Q5.5 -19.45 5.7 -21.0 L6.1 -22.55 6.15 -22.7 Q7.15 -25.6 9.15 -27.6 L10.4 -28.7 M14.95 -13.9 L15.35 -12.45 16.15 -9.65 16.05 -9.6 16.0 -9.55 15.2 -8.65 14.3 -8.1 12.25 -8.0 11.9 -9.0 10.2 -13.95 Q11.45 -14.75 12.6 -14.75 L13.05 -14.75 Q14.05 -14.65 14.95 -13.9 M18.55 2.35 Q18.8 3.2 18.65 4.35 L18.25 6.1 18.15 6.3 Q17.8 7.2 17.3 7.15 16.8 7.2 16.55 6.45 L16.5 6.2 Q16.3 5.45 16.4 4.45 L16.4 4.3 Q16.55 3.35 16.85 2.6 L16.95 2.45 Q17.35 1.55 17.85 1.5 18.3 1.5 18.55 2.35 M16.6 13.0 L11.95 11.45 12.05 10.35 10.55 7.95 13.15 8.3 13.95 9.1 14.0 9.2 14.7 9.95 16.6 13.0 M13.45 4.0 Q13.35 3.35 13.5 2.75 L13.55 2.65 13.7 2.1 13.95 3.25 14.05 3.5 14.15 3.45 14.7 3.35 13.75 2.05 13.7 2.0 13.65 1.85 13.85 1.9 15.75 2.55 15.95 2.55 16.2 2.6 15.2 3.35 15.85 4.4 15.3 5.1 16.1 6.25 Q15.3 6.25 14.7 5.6 L15.1 5.3 15.1 5.2 14.15 3.75 14.5 5.05 Q13.75 5.0 13.5 4.25 L13.45 4.0 M7.9 -13.9 L7.2 -10.2 7.15 -9.3 5.35 -8.25 3.7 -7.5 3.5 -10.05 3.5 -10.1 3.7 -10.55 4.35 -11.95 0.7 -11.25 0.3 -6.2 -2.4 -5.9 -4.0 -6.0 -3.45 -11.9 Q-4.1 -12.65 -4.3 -15.8 L-4.35 -16.9 Q-2.5 -16.25 -0.95 -14.9 L3.55 -14.6 Q4.95 -13.85 4.35 -11.95 5.95 -12.5 7.35 -13.5 L7.9 -13.9 M9.0 7.75 Q10.35 12.95 11.65 16.6 L11.85 20.6 Q10.2 18.75 7.95 14.8 4.7 13.95 2.05 15.6 L1.85 20.05 1.25 18.65 0.65 11.95 -0.5 4.7 Q0.8 3.9 2.0 3.55 7.05 1.9 9.0 7.75 M-2.55 13.5 L-2.45 14.85 Q-2.9 17.65 -3.55 19.55 -4.3 19.55 -5.05 18.95 L-5.9 18.0 Q-7.45 16.05 -7.55 13.25 -9.95 11.45 -12.7 11.85 L-11.75 6.4 Q-11.35 4.3 -11.0 -0.95 L-10.05 -1.05 -9.75 -1.1 Q-9.4 5.5 -8.25 11.65 -5.6 14.05 -2.55 13.5 M-10.35 -14.9 L-10.35 -14.95 -10.4 -15.1 -10.3 -15.1 -9.75 -16.2 -9.7 -16.25 -9.65 -16.35 Q-8.6 -17.4 -6.5 -17.3 L-6.4 -16.05 Q-6.2 -13.55 -5.6 -12.4 L-6.05 -6.7 Q-7.55 -7.65 -8.7 -8.9 L-8.55 -11.15 -8.55 -11.2 -8.45 -13.4 -8.75 -13.5 -9.1 -13.7 -9.75 -14.25 -10.3 -14.85 -10.35 -14.9 M-11.35 -18.35 L-12.05 -15.35 -12.5 -13.7 Q-13.85 -13.35 -14.7 -13.7 L-15.3 -14.15 -16.2 -15.05 -16.25 -15.1 -16.3 -15.15 -15.6 -18.85 -15.6 -18.9 -15.45 -19.6 Q-14.7 -20.4 -13.8 -20.6 L-13.4 -20.65 Q-12.2 -19.75 -11.85 -20.3 L-12.4 -22.85 -11.75 -22.2 -11.7 -22.15 Q-10.25 -20.7 -8.05 -19.6 -10.25 -20.7 -11.7 -22.15 L-11.75 -22.2 -12.4 -22.85 Q-12.75 -24.95 -12.7 -26.1 L-12.65 -26.4 -12.0 -27.95 -10.8 -29.05 -9.0 -29.6 -8.7 -27.75 -8.45 -29.65 -6.65 -29.9 -5.95 -29.25 -5.0 -28.65 -4.85 -28.6 -5.25 -27.4 -5.45 -26.65 -5.85 -24.8 -6.1 -22.95 -7.2 -22.2 -7.3 -22.15 Q-9.6 -23.4 -11.6 -25.05 L-12.7 -26.1 -11.6 -25.05 Q-9.6 -23.4 -7.3 -22.15 L-7.4 -22.0 Q-8.15 -21.05 -8.1 -20.05 L-8.05 -19.6 Q-7.95 -18.7 -7.25 -18.0 L-8.4 -17.8 Q-9.55 -18.35 -9.95 -18.75 L-10.15 -18.95 -10.15 -19.0 -11.0 -19.7 -11.85 -20.2 -11.35 -18.35 M-12.4 0.1 L-14.1 2.15 -14.2 3.1 -14.3 3.1 -18.6 4.1 -16.45 1.55 -15.7 0.9 -15.6 0.85 -14.75 0.2 -12.4 0.1 M-20.6 -29.0 Q-17.75 -33.45 -10.95 -33.7 -12.1 -32.25 -12.8 -30.45 -13.9 -27.4 -13.7 -23.3 L-15.2 -24.8 -16.05 -26.1 Q-17.15 -27.95 -18.8 -28.7 -19.85 -29.2 -20.6 -29.0 M3.9 -38.0 L3.85 -37.95 3.9 -38.0 M2.75 -36.7 L2.25 -37.2 2.75 -36.7 M2.8 -45.05 Q2.55 -45.35 2.3 -45.25 2.05 -45.2 1.95 -44.8 L2.0 -43.95 2.4 -43.2 Q2.65 -42.95 2.9 -43.0 L3.25 -43.4 3.2 -44.3 2.8 -45.05 M3.65 -37.0 L3.5 -36.65 3.5 -36.5 3.65 -37.0 3.75 -37.35 3.65 -37.0 M1.6 -29.0 L2.0 -29.15 2.05 -29.1 3.05 -28.25 4.9 -26.35 3.7 -23.8 Q3.05 -22.15 2.95 -20.7 2.75 -19.2 3.15 -18.0 3.4 -17.15 3.95 -16.4 L-1.35 -16.2 Q-2.35 -16.85 -3.7 -17.35 L-3.65 -17.4 -2.95 -17.95 -2.75 -18.2 3.15 -18.0 -2.75 -18.2 Q-2.05 -19.0 -2.0 -20.05 L-2.1 -20.7 Q0.4 -20.55 2.95 -20.7 0.4 -20.55 -2.1 -20.7 -2.3 -21.65 -2.95 -22.2 L-3.7 -22.75 -2.7 -26.9 -2.2 -28.2 -1.8 -28.3 0.8 -28.8 1.1 -26.0 1.6 -29.0 M0.45 -33.3 L-0.85 -32.65 Q-3.3 -31.6 -6.1 -31.5 -4.4 -32.05 -3.15 -32.75 -1.25 -33.8 -0.2 -35.15 L-0.15 -35.2 0.3 -35.9 0.45 -33.3 M13.95 9.1 L12.05 10.35 13.95 9.1 M-8.55 -40.25 L-8.7 -39.75 -8.6 -39.25 -8.35 -39.05 -8.05 -39.25 -7.9 -39.75 -7.9 -40.05 -7.95 -40.0 -8.0 -39.95 -8.2 -39.8 -8.45 -39.95 -8.5 -40.2 -8.45 -40.3 -8.55 -40.25 M-8.8 -39.1 L-8.9 -39.75 -8.7 -40.55 -8.25 -40.9 -7.85 -40.55 -7.7 -39.75 -7.9 -38.9 -8.35 -38.6 -8.45 -38.6 -8.75 -38.9 -8.8 -39.1 M-7.9 -36.55 L-7.1 -36.0 Q-7.95 -35.7 -7.9 -36.55 M-4.4 -38.9 L-4.55 -38.75 -4.7 -38.25 -4.6 -37.65 -4.25 -37.4 -3.85 -37.65 -3.7 -38.2 -3.7 -38.5 -3.8 -38.4 -4.1 -38.3 -4.35 -38.4 -4.5 -38.7 -4.4 -38.9 M-4.5 -36.95 L-4.75 -37.3 -4.95 -38.2 -4.7 -39.15 -4.15 -39.5 Q-3.8 -39.55 -3.6 -39.15 -3.4 -38.75 -3.45 -38.2 L-3.7 -37.3 -4.25 -36.9 -4.5 -36.95 M-11.85 -20.2 L-11.85 -20.3 -11.85 -20.2 M-7.9 -1.05 L-6.15 0.2 -6.25 2.25 -6.35 7.45 -4.55 8.2 -4.4 2.85 -4.3 1.15 -4.05 1.2 Q-3.0 0.55 -1.9 0.1 L-2.65 3.05 -2.75 3.5 -2.85 4.0 Q-3.65 7.85 -3.75 10.95 -5.7 11.35 -6.9 9.8 -7.7 6.15 -7.85 1.25 L-7.9 -1.05 M-14.1 2.15 L-15.6 0.85 -14.1 2.15" fill="#b18b7e" fill-rule="evenodd" stroke="none"/>
    <path d="M-0.6 -51.35 L-0.25 -51.4 0.75 -51.15 1.15 -50.6 0.85 -50.05 0.75 -50.0 0.7 -49.95 -0.25 -49.7 Q-0.8 -49.7 -1.15 -50.0 L-1.45 -50.4 -1.5 -50.45 -1.5 -50.6 -1.5 -50.65 -1.45 -50.6 -1.15 -50.4 -1.0 -50.35 -0.9 -50.35 -0.8 -50.35 -0.6 -50.6 -0.4 -50.95 -0.6 -51.35 M2.8 -45.05 L3.2 -44.3 3.25 -43.4 2.9 -43.0 Q2.65 -42.95 2.4 -43.2 L2.0 -43.95 1.95 -44.8 Q2.05 -45.2 2.3 -45.25 2.55 -45.35 2.8 -45.05 M-0.85 -46.9 L-1.15 -47.05 -1.95 -47.4 -2.2 -47.45 -2.2 -47.5 -2.0 -47.9 -2.15 -48.3 -1.8 -48.3 -0.8 -48.05 -0.4 -47.5 -0.8 -46.95 -0.85 -46.9 M-2.25 -40.95 L-2.2 -40.7 Q-3.55 -40.9 -5.2 -40.15 -4.3 -41.2 -3.25 -41.15 L-3.2 -40.95 -3.1 -41.1 -3.1 -41.15 -2.25 -40.95 M2.0 -29.15 L2.05 -29.15 2.05 -29.1 2.0 -29.15 M-2.75 -18.2 L-2.95 -17.95 -3.65 -17.4 -3.7 -17.35 -4.4 -17.1 -5.1 -17.05 -5.45 -17.05 -6.3 -17.3 -6.5 -17.4 -7.25 -18.0 Q-7.95 -18.7 -8.05 -19.6 L-8.1 -20.05 Q-8.15 -21.05 -7.4 -22.0 L-7.3 -22.15 -7.2 -22.2 -6.1 -22.95 -5.6 -23.05 -5.1 -23.1 -3.7 -22.75 -2.95 -22.2 Q-2.3 -21.65 -2.1 -20.7 L-2.0 -20.05 Q-2.05 -19.0 -2.75 -18.2 M-6.05 -52.15 L-5.7 -52.15 -4.7 -51.9 -4.3 -51.35 -4.7 -50.8 -4.95 -50.65 -6.2 -50.55 -6.6 -50.8 -6.95 -51.3 -6.9 -51.35 -6.45 -51.1 -6.1 -51.35 -5.9 -51.6 -5.9 -51.7 -5.9 -51.75 -6.05 -52.15 M-7.6 -49.1 L-7.25 -49.1 -6.25 -48.85 -6.05 -48.7 -5.9 -48.3 Q-5.9 -47.95 -6.25 -47.7 -6.65 -47.4 -7.25 -47.4 L-7.4 -47.4 -8.15 -47.7 -8.55 -48.25 -8.45 -48.3 Q-8.25 -48.05 -8.0 -48.05 -7.8 -48.05 -7.65 -48.3 L-7.45 -48.7 -7.6 -49.1 M-8.55 -40.25 L-8.45 -40.3 -8.5 -40.2 -8.45 -39.95 -8.2 -39.8 -8.0 -39.95 -7.95 -40.0 -7.9 -40.05 -7.9 -39.75 -8.05 -39.25 -8.35 -39.05 -8.6 -39.25 -8.7 -39.75 -8.55 -40.25 M-7.25 -40.9 Q-8.1 -42.4 -9.15 -42.6 -7.5 -42.9 -7.25 -40.9 M-4.4 -38.9 L-4.5 -38.7 -4.35 -38.4 -4.1 -38.3 -3.8 -38.4 -3.7 -38.5 -3.7 -38.2 -3.85 -37.65 -4.25 -37.4 -4.6 -37.65 -4.7 -38.25 -4.55 -38.75 -4.4 -38.9 M-3.75 -17.4 L-3.7 -17.35 -3.75 -17.4 M-6.6 -22.0 L-6.8 -21.7 -6.85 -21.4 -6.6 -20.8 -6.15 -20.6 -6.05 -20.6 -5.5 -20.8 Q-5.25 -21.05 -5.3 -21.35 L-5.4 -21.8 -5.5 -22.0 Q-5.7 -22.25 -6.05 -22.25 L-6.6 -22.0" fill="#7c4632" fill-rule="evenodd" stroke="none"/>
    <path d="M3.1 -54.35 Q4.05 -56.25 5.8 -57.65 L7.6 -58.5 7.1 -57.25 6.05 -56.75 Q4.25 -55.3 3.3 -53.35 L3.1 -54.35 M-14.3 -45.65 L-15.15 -45.5 Q-13.75 -49.15 -10.65 -51.25 L-7.8 -51.65 -7.5 -50.95 -10.15 -50.55 Q-12.9 -48.7 -14.3 -45.65 M-10.85 -54.15 L-12.1 -54.5 Q-9.45 -55.85 -5.8 -55.45 L-3.75 -54.35 -3.35 -54.15 -3.3 -53.95 -3.25 -53.65 -5.3 -54.75 Q-8.45 -55.1 -10.85 -54.15 M-7.65 -59.75 L-8.15 -60.15 Q-4.25 -59.45 -0.75 -57.6 L-0.45 -57.0 Q-3.6 -58.65 -7.15 -59.35 L-7.65 -59.75 M1.15 -54.6 L1.15 -54.85 Q1.1 -56.7 0.55 -58.3 L-0.15 -60.05 0.2 -59.75 0.55 -59.4 0.7 -59.0 1.0 -58.3 1.2 -57.65 Q1.65 -55.8 1.6 -53.75 L1.15 -54.6 M-1.5 -50.65 L-1.6 -50.95 -1.45 -51.45 -1.0 -51.65 -0.6 -51.45 -0.6 -51.35 -0.4 -50.95 -0.6 -50.6 -0.8 -50.35 -0.9 -50.35 -1.15 -50.4 -1.45 -50.6 -1.5 -50.65 M-6.05 -52.15 L-5.9 -51.75 -5.9 -51.7 -5.9 -51.6 -6.1 -51.35 -6.45 -51.1 -6.9 -51.35 -6.95 -51.45 -7.05 -51.65 -7.05 -51.75 -6.9 -52.25 -6.8 -52.3 -6.45 -52.4 -6.1 -52.25 -6.05 -52.15 M-8.55 -48.4 L-8.6 -48.65 -8.6 -48.7 -8.45 -49.2 -8.1 -49.35 -8.0 -49.35 -7.65 -49.2 -7.6 -49.1 -7.45 -48.7 -7.65 -48.3 Q-7.8 -48.05 -8.0 -48.05 -8.25 -48.05 -8.45 -48.3 L-8.55 -48.4 M-8.8 -39.1 L-9.1 -39.7 Q-8.8 -41.5 -8.1 -41.1 L-7.7 -40.8 -7.65 -39.55 -7.8 -38.15 -8.0 -38.3 -8.45 -38.6 -8.35 -38.6 -7.9 -38.9 -7.7 -39.75 -7.85 -40.55 -8.25 -40.9 -8.7 -40.55 -8.9 -39.75 -8.8 -39.1 M-4.5 -36.95 L-5.05 -37.15 -5.3 -37.25 Q-5.2 -38.75 -4.65 -39.7 L-4.05 -39.6 Q-2.75 -39.25 -2.55 -37.25 L-2.55 -37.1 -4.25 -36.9 -3.7 -37.3 -3.45 -38.2 Q-3.4 -38.75 -3.6 -39.15 -3.8 -39.55 -4.15 -39.5 L-4.7 -39.15 -4.95 -38.2 -4.75 -37.3 -4.5 -36.95" fill="#e8d3cc" fill-rule="evenodd" stroke="none"/>
    <path d="M14.5 -15.65 L14.95 -13.9 Q14.05 -14.65 13.05 -14.75 L12.6 -14.75 Q11.45 -14.75 10.2 -13.95 L10.05 -14.3 Q12.0 -14.6 14.5 -15.65 M-11.35 -6.05 L-11.35 -6.45 -11.15 -6.05 -11.35 -6.05 M-15.45 -19.6 L-15.0 -22.15 -14.35 -21.5 -13.75 -20.95 -13.7 -20.9 -13.65 -20.9 -13.4 -20.65 -13.8 -20.6 Q-14.7 -20.4 -15.45 -19.6 M16.1 50.7 L16.25 50.75 16.1 50.75 16.1 50.7" fill="#703a2e" fill-rule="evenodd" stroke="none"/>
    <path d="M2.45 -34.65 L2.95 -34.45 3.9 -33.6 Q4.55 -32.25 3.8 -30.25 L5.95 -29.05 6.4 -28.75 6.75 -28.55 5.85 -27.65 4.9 -26.35 3.05 -28.25 2.05 -29.1 2.05 -29.15 Q2.35 -30.2 2.3 -31.4 L2.05 -32.95 2.1 -33.0 2.1 -33.05 2.05 -33.05 2.15 -34.75 2.45 -34.65 M7.95 -14.25 L7.9 -13.9 7.35 -13.5 Q5.95 -12.5 4.35 -11.95 4.95 -13.85 3.55 -14.6 L-0.95 -14.9 Q-2.5 -16.25 -4.35 -16.9 L-4.4 -17.1 -3.7 -17.35 Q-2.35 -16.85 -1.35 -16.2 L3.95 -16.4 4.55 -15.75 Q5.9 -14.45 7.95 -14.25 M7.15 -9.3 L7.2 -9.3 7.55 -6.85 Q6.8 -6.2 5.85 -5.7 L4.5 -5.2 0.4 -4.35 0.3 -2.15 0.95 -2.15 4.45 -2.65 5.3 -2.95 5.8 -3.25 7.45 -4.5 6.65 -1.45 6.0 -1.45 Q6.85 0.4 9.0 7.75 7.05 1.9 2.0 3.55 0.8 3.9 -0.5 4.7 L-0.65 3.85 0.35 -0.7 1.2 -0.95 2.8 -1.2 3.3 -1.25 6.0 -1.45 3.3 -1.25 2.8 -1.2 1.2 -0.95 0.35 -0.7 -0.85 -0.35 -1.9 0.1 Q-3.0 0.55 -4.05 1.2 L-4.3 1.15 -6.15 0.2 -7.9 -1.05 -9.8 -2.8 -10.4 -3.45 -9.8 -2.8 -9.75 -1.4 -9.75 -1.1 -10.05 -1.05 -11.0 -0.95 -10.65 -3.7 -11.15 -4.25 -11.35 -6.05 -11.15 -6.05 -10.85 -5.65 -10.75 -5.5 -9.85 -4.65 Q-9.5 -4.45 -9.15 -4.35 L-9.1 -6.8 -9.85 -7.4 -10.55 -8.25 -10.65 -8.35 -11.1 -9.05 -10.35 -11.1 -10.3 -11.1 -9.85 -10.35 -9.45 -9.8 -8.7 -8.9 Q-7.55 -7.65 -6.05 -6.7 L-5.8 -6.55 -5.05 -6.2 -4.0 -6.0 -2.4 -5.9 0.3 -6.2 Q2.0 -6.6 3.7 -7.5 L5.35 -8.25 7.15 -9.3 M12.25 21.0 L13.0 21.65 13.65 24.15 Q16.55 36.05 18.4 48.3 18.35 49.0 17.65 49.75 L19.0 56.35 18.05 56.75 17.9 57.3 17.7 57.8 17.65 57.85 17.45 58.25 Q16.9 59.0 14.55 59.95 L13.5 60.2 Q11.45 60.45 6.7 59.35 5.6 59.0 5.6 57.55 5.35 53.6 6.5 52.9 6.6 54.1 8.2 54.8 L9.4 55.0 10.9 55.2 12.85 55.2 14.85 54.7 15.65 53.85 16.05 52.8 16.2 50.85 16.25 50.75 16.1 50.7 16.35 49.8 16.45 48.1 Q16.4 41.6 12.25 21.0 M-3.55 19.55 L-3.05 19.45 -2.85 19.9 Q-1.95 28.75 -2.1 37.0 -2.15 41.15 -2.5 45.15 L-2.55 45.35 Q-1.95 47.95 -3.15 49.5 L-3.45 51.05 -6.6 52.35 Q-6.5 51.65 -7.25 51.7 L-8.25 52.45 -8.9 52.9 -9.0 52.9 -9.55 53.2 Q-10.8 53.8 -14.3 54.45 L-15.7 54.6 Q-18.35 54.7 -20.35 53.4 -20.9 52.15 -20.55 50.05 -19.9 48.65 -18.0 48.1 -18.85 49.1 -17.55 49.8 L-16.35 50.05 -14.75 50.25 -12.45 50.4 -9.7 50.1 Q-8.75 49.8 -7.85 49.0 L-7.4 48.6 -6.2 46.9 -5.75 46.85 -5.75 46.9 -5.6 46.85 -5.35 46.8 -5.6 46.8 -5.05 18.95 Q-4.3 19.55 -3.55 19.55 M-10.4 -15.1 L-11.05 -17.3 -11.1 -17.45 -11.35 -18.35 -11.85 -20.2 -11.0 -19.7 -10.15 -19.0 -10.15 -18.95 -9.95 -18.75 Q-9.55 -18.35 -8.4 -17.8 L-7.25 -18.0 -6.5 -17.4 -6.5 -17.3 Q-8.6 -17.4 -9.65 -16.35 L-9.7 -16.25 -9.75 -16.2 -10.3 -15.1 -10.4 -15.1 M3.8 -30.25 L3.65 -29.95 3.6 -29.9 2.55 -29.35 2.05 -29.15 2.55 -29.35 3.6 -29.9 3.65 -29.95 3.8 -30.25 M0.45 -33.3 L0.45 -32.75 -0.85 -32.65 0.45 -33.3 M-7.5 -32.5 L-7.25 -30.75 -7.2 -30.7 -6.65 -29.9 -8.45 -29.65 -8.15 -32.4 -7.5 -32.5 M4.65 22.15 L6.45 22.35 7.5 21.8 8.7 29.85 Q7.7 32.15 6.05 30.6 L4.65 22.15 M17.65 49.75 L17.4 49.95 16.25 50.75 17.4 49.95 17.65 49.75 M-12.65 -26.4 L-12.45 -28.65 Q-12.2 -30.1 -10.2 -32.1 L-9.35 -32.25 -9.0 -29.6 -10.8 -29.05 -12.0 -27.95 -12.65 -26.4 M-10.4 -3.45 L-10.45 -3.5 -10.65 -3.7 -10.45 -3.5 -10.4 -3.4 -10.4 -3.45 M-6.8 -5.0 L-7.15 -5.2 -7.15 -2.6 -5.1 -0.75 -2.7 -2.25 -2.65 -4.25 Q-5.0 -4.0 -6.8 -5.0 M-12.75 12.75 L-12.25 12.75 Q-11.4 12.9 -10.75 13.85 -10.15 14.8 -10.15 15.95 -10.15 17.1 -10.75 17.8 L-11.7 18.3 -11.8 18.3 -12.0 18.35 -12.15 18.3 -12.0 18.35 -11.8 18.3 -11.7 18.3 -11.7 18.35 -12.25 24.95 Q-12.7 25.4 -13.0 25.35 -13.45 25.25 -13.6 24.1 L-13.15 18.15 -12.75 18.3 -12.15 18.3 -12.0 18.25 -11.8 18.2 -11.3 17.8 Q-10.7 17.1 -10.7 15.95 -10.7 14.8 -11.3 13.85 -11.9 12.9 -12.75 12.75 M-2.55 45.35 Q-2.65 45.85 -3.3 46.2 L-5.2 46.75 -5.35 46.8 -5.2 46.75 -3.3 46.2 Q-2.65 45.85 -2.55 45.35" fill="#92655a" fill-rule="evenodd" stroke="none"/>
    <path d="M3.1 -54.35 Q4.05 -56.25 5.8 -57.65 L7.6 -58.5 7.1 -57.25 5.45 -53.25 Q6.6 -54.65 8.45 -55.3 11.45 -56.65 16.15 -54.25 12.55 -53.45 9.1 -51.4 11.65 -51.2 13.75 -50.15 16.2 -47.65 17.75 -44.7 L17.85 -44.55 12.95 -47.25 9.85 -47.65 12.55 -45.5 Q14.35 -42.05 14.5 -38.0 L14.5 -37.95 14.45 -38.0 Q12.8 -40.45 9.9 -42.2 8.4 -41.95 3.5 -36.4 L3.5 -36.5 3.45 -36.45 3.2 -36.0 3.05 -35.85 2.7 -35.6 2.65 -35.6 2.6 -35.55 2.5 -34.85 2.45 -34.65 2.95 -34.45 3.9 -33.6 Q4.55 -32.25 3.8 -30.25 L5.95 -29.05 6.4 -28.75 6.75 -28.55 Q7.35 -29.0 7.7 -28.95 L10.4 -28.7 Q13.6 -28.15 17.35 -25.75 L19.75 -23.35 Q20.55 -22.25 20.95 -20.95 21.45 -19.45 21.4 -17.6 L19.75 -17.6 Q17.9 -17.5 16.8 -16.9 L15.3 -16.05 15.25 -16.0 14.5 -15.65 14.95 -13.9 15.35 -12.45 Q15.65 -12.85 16.25 -11.5 L16.75 -11.85 Q18.9 -10.35 18.35 -7.75 L17.75 -7.65 18.05 -6.75 18.55 2.35 M18.25 6.1 L18.5 7.0 17.4 12.1 16.75 12.5 16.65 13.0 16.6 13.0 11.95 11.45 12.05 10.35 10.55 7.95 12.8 4.1 13.45 4.0 M13.5 2.75 L13.5 2.65 Q12.95 -1.3 11.15 -6.25 10.95 -8.1 11.9 -9.0 L10.2 -13.95 10.05 -14.3 7.95 -14.25 7.9 -13.9 7.2 -10.2 7.15 -9.3 7.2 -9.3 7.55 -6.85 7.45 -4.5 6.65 -1.45 6.0 -1.45 Q6.85 0.4 9.0 7.75 10.35 12.95 11.65 16.6 L11.85 20.6 12.25 21.0 13.0 21.65 13.65 24.15 Q16.55 36.05 18.4 48.3 18.35 49.0 17.65 49.75 L19.0 56.35 18.05 56.75 17.9 57.3 17.7 57.8 17.65 57.85 17.45 58.25 Q16.9 59.0 14.55 59.95 L13.5 60.2 Q11.45 60.45 6.7 59.35 5.6 59.0 5.6 57.55 5.35 53.6 6.5 52.9 L6.85 52.25 Q6.2 51.9 6.1 51.35 L4.85 46.55 Q3.55 41.2 2.8 37.0 L2.1 31.95 Q1.4 24.7 1.6 23.3 L1.85 20.05 1.25 18.65 0.65 11.95 -0.5 4.7 -0.65 3.85 Q-1.6 8.2 -2.25 13.4 L-2.55 13.5 -2.45 14.85 Q-2.9 17.65 -3.55 19.55 L-3.05 19.45 -2.85 19.9 Q-1.95 28.75 -2.1 37.0 -2.15 41.15 -2.5 45.15 L-2.55 45.35 Q-1.95 47.95 -3.15 49.5 L-3.45 51.05 -6.6 52.35 Q-6.5 51.65 -7.25 51.7 L-8.25 52.45 -8.9 52.9 -9.0 52.9 -9.55 53.2 Q-10.8 53.8 -14.3 54.45 L-15.7 54.6 Q-18.35 54.7 -20.35 53.4 -20.9 52.15 -20.55 50.05 -19.9 48.65 -18.0 48.1 -15.45 47.05 -14.45 44.7 L-14.85 44.35 -14.95 44.2 -15.15 43.95 -15.2 37.0 Q-15.2 28.75 -14.65 20.6 -14.3 19.35 -14.3 17.2 L-14.3 17.1 Q-14.85 16.15 -14.85 15.1 L-14.55 13.75 -14.7 12.35 -12.7 11.85 -11.75 6.4 Q-11.35 4.3 -11.0 -0.95 L-10.65 -3.7 -11.15 -4.25 -11.35 -6.05 -11.35 -6.45 -11.1 -9.05 -10.35 -11.1 -10.35 -14.85 M-10.35 -14.95 L-10.4 -15.1 -11.05 -17.3 -11.1 -17.45 -11.35 -18.35 -12.05 -15.35 Q-11.3 -14.45 -11.45 -12.75 -13.35 -7.6 -13.85 -3.5 L-13.75 -3.5 -12.4 0.1 -14.1 2.15 -14.2 3.1 -14.3 3.1 -18.6 4.1 -18.65 4.1 -18.65 3.65 -19.15 3.25 -19.3 -1.4 -18.9 -2.2 -18.3 -13.25 -18.0 -14.15 -18.65 -14.25 Q-19.2 -16.85 -17.05 -18.35 L-16.55 -18.0 Q-15.9 -19.45 -15.6 -18.9 L-15.45 -19.6 -15.0 -22.15 -16.75 -24.35 Q-19.0 -27.75 -21.5 -27.25 L-20.6 -29.0 Q-17.75 -33.45 -10.95 -33.7 L-9.5 -33.6 -10.15 -41.5 -10.2 -41.75 Q-10.65 -39.2 -9.9 -37.25 -11.85 -39.75 -11.75 -44.5 L-11.55 -44.9 -10.4 -46.35 -14.3 -45.65 -15.15 -45.5 Q-13.75 -49.15 -10.65 -51.25 L-7.8 -51.65 -7.8 -51.7 -7.35 -52.6 Q-9.0 -53.55 -10.85 -54.15 L-12.1 -54.5 Q-9.45 -55.85 -5.8 -55.45 L-3.75 -54.35 Q-3.95 -55.45 -4.65 -56.6 L-5.15 -57.3 -6.6 -58.85 -7.2 -59.35 -7.65 -59.75 -8.15 -60.15 Q-4.25 -59.45 -0.75 -57.6 L-0.45 -57.0 1.15 -53.9 1.15 -54.6 1.15 -54.85 Q1.1 -56.7 0.55 -58.3 L-0.15 -60.05 0.2 -59.75 0.55 -59.4 0.75 -59.15 Q2.35 -57.4 2.9 -55.05 L3.05 -54.25 3.1 -54.35 M1.35 -49.85 L1.2 -49.75 1.3 -49.75 2.4 -49.3 3.15 -48.9 3.8 -45.2 4.1 -43.35 Q3.4 -41.85 2.3 -42.0 L2.1 -42.05 2.1 -41.95 2.3 -41.1 2.35 -40.75 2.4 -40.15 2.45 -39.75 2.45 -39.7 2.85 -39.8 2.9 -39.8 3.4 -39.75 3.75 -39.25 3.85 -37.95 3.8 -37.55 3.75 -37.35 3.9 -38.0 M1.35 -49.85 Q1.95 -50.3 1.95 -50.9 1.95 -51.55 1.35 -51.95 0.75 -52.4 -0.15 -52.35 L-1.7 -51.95 Q-2.35 -51.55 -2.3 -50.9 L-2.25 -50.55 -2.15 -50.35 -1.7 -49.85 Q-1.05 -49.4 -0.15 -49.35 0.65 -49.35 1.2 -49.75 M8.95 -48.45 L9.85 -47.65 M2.85 -38.6 L2.5 -38.25 2.35 -38.0 2.25 -37.8 2.25 -37.2 2.75 -36.7 M2.8 -45.05 L3.2 -44.3 3.25 -43.4 2.9 -43.0 Q2.65 -42.95 2.4 -43.2 L2.0 -43.95 1.95 -44.8 Q2.05 -45.2 2.3 -45.25 2.55 -45.35 2.8 -45.05 M2.1 -42.05 L1.95 -42.45 1.8 -43.0 1.45 -44.1 Q0.9 -45.7 -0.45 -46.65 L-0.85 -46.9 -1.15 -47.05 -1.95 -47.4 -2.2 -47.45 -3.1 -47.7 -3.9 -47.7 -4.55 -47.6 Q-6.35 -46.8 -6.9 -45.95 L-6.65 -45.7 -5.5 -45.7 Q-3.65 -43.4 -3.25 -41.15 -4.3 -41.2 -5.2 -40.15 -3.55 -40.9 -2.2 -40.7 L-2.2 -37.4 Q-0.75 -39.9 -1.45 -43.25 -0.3 -39.35 -0.2 -35.15 L0.3 -36.35 Q1.2 -38.95 1.35 -42.55 L2.3 -39.05 2.25 -38.0 2.25 -37.8 M-3.1 -41.15 Q-2.6 -42.25 -2.8 -43.6 -2.4 -42.7 -2.25 -40.95 L-2.2 -40.7 M2.5 -39.0 L2.45 -39.7 M2.5 -38.25 L2.3 -39.05 M2.5 -39.0 L2.5 -38.25 M3.5 -36.5 L3.5 -36.65 3.65 -37.0 3.75 -37.35 M3.5 -36.5 L3.65 -37.0 M2.2 -35.5 L2.2 -35.35 2.3 -35.5 2.45 -35.55 2.6 -35.55 M0.3 -35.9 L0.3 -36.35 M2.15 -34.75 L2.2 -35.35 M2.45 -34.65 L2.15 -34.75 2.05 -33.05 2.05 -33.0 1.6 -29.0 2.0 -29.15 2.05 -29.15 2.55 -29.35 3.6 -29.9 3.65 -29.95 3.8 -30.25 M2.1 -33.05 L2.1 -33.0 2.05 -33.0 M4.9 -26.35 L5.85 -27.65 6.75 -28.55 M-0.85 -32.65 L0.45 -32.75 0.45 -33.3 -0.85 -32.65 Q-3.3 -31.6 -6.1 -31.5 L-7.45 -33.25 -7.5 -33.3 -8.1 -34.15 -8.7 -35.1 -8.95 -37.35 -9.25 -40.2 -9.1 -37.3 Q-9.65 -38.45 -10.15 -41.5 M-7.5 -33.25 L-7.5 -32.5 -7.25 -30.75 -7.2 -30.7 -6.65 -29.9 -5.95 -29.25 -5.0 -28.65 -4.85 -28.6 -4.7 -31.35 Q-3.6 -30.9 -2.1 -30.9 L-2.2 -28.2 -1.8 -28.3 0.8 -28.8 0.45 -32.75 M0.45 -33.3 L0.3 -35.9 M1.6 -29.0 L1.1 -26.0 0.8 -28.8 M2.25 -37.2 L2.2 -35.5 M2.95 -20.7 Q3.05 -22.15 3.7 -23.8 L4.9 -26.35 M3.95 -16.4 L4.55 -15.75 Q5.9 -14.45 7.95 -14.25 M3.95 -16.4 Q3.4 -17.15 3.15 -18.0 L-2.75 -18.2 M-1.35 -16.2 L3.95 -16.4 M3.15 -18.0 Q2.75 -19.2 2.95 -20.7 0.4 -20.55 -2.1 -20.7 M7.15 -9.3 L5.35 -8.25 3.7 -7.5 Q2.0 -6.6 0.3 -6.2 L-2.4 -5.9 -4.0 -6.0 -3.45 -11.9 Q-4.1 -12.65 -4.3 -15.8 L-4.35 -16.9 -4.4 -17.1 M-10.3 -11.1 L-10.35 -11.1 M6.0 -1.45 L3.3 -1.25 2.8 -1.2 1.2 -0.95 0.35 -0.7 -0.65 3.85 M15.35 -12.45 L16.15 -9.65 16.05 -9.6 16.0 -9.55 15.2 -8.65 14.3 -8.1 15.95 2.55 M16.25 -11.5 L16.95 -9.5 17.75 -7.65 M14.3 -8.1 L12.25 -8.0 11.9 -9.0 M10.05 -14.3 Q12.0 -14.6 14.5 -15.65 M12.05 10.35 L13.95 9.1 14.0 9.2 M7.5 21.8 L8.1 21.05 Q8.6 20.1 8.35 19.05 8.05 18.0 7.1 17.4 L5.05 17.2 Q4.0 17.45 3.45 18.4 2.85 19.4 3.15 20.45 3.45 21.5 4.45 22.05 L4.65 22.15 6.45 22.35 7.5 21.8 8.7 29.85 Q7.7 32.15 6.05 30.6 L4.65 22.15 M1.85 20.05 L2.05 15.6 Q4.7 13.95 7.95 14.8 10.2 18.75 11.85 20.6 M16.25 50.75 L17.4 49.95 17.65 49.75 M16.25 50.75 L16.2 50.85 16.05 52.8 15.65 53.85 14.85 54.7 12.85 55.2 10.9 55.2 9.4 55.0 8.2 54.8 Q6.6 54.1 6.5 52.9 M16.1 50.7 L16.1 50.75 16.1 50.8 Q14.6 51.8 12.35 52.4 L6.85 52.25 M16.25 50.75 L16.1 50.8 M-4.15 -50.65 Q-3.5 -51.05 -3.5 -51.7 -3.5 -52.35 -4.15 -52.75 -4.75 -53.15 -5.6 -53.15 L-7.15 -52.75 -7.35 -52.6 M-6.95 -51.3 L-6.95 -51.45 M-7.5 -50.95 L-7.15 -50.65 -6.9 -50.45 -5.6 -50.15 Q-4.75 -50.15 -4.15 -50.65 L-2.25 -50.55 M-7.4 -50.1 L-6.95 -50.45 -6.9 -50.45 M-9.05 -47.9 L-8.7 -47.55 -7.65 -47.1 -7.15 -47.05 Q-6.3 -47.1 -5.7 -47.55 -5.05 -48.0 -5.05 -48.65 L-5.25 -49.3 -5.7 -49.7 -7.15 -50.1 -7.4 -50.1 -8.7 -49.7 Q-9.35 -49.3 -9.35 -48.65 -9.35 -48.2 -9.05 -47.9 L-9.35 -47.25 -8.9 -47.5 -8.8 -47.45 -7.8 -46.85 -6.95 -46.05 -6.9 -45.95 M-7.8 -51.65 L-7.5 -50.95 M-3.35 -54.15 L-3.75 -54.35 M-0.45 -46.65 L-0.25 -46.8 Q0.4 -47.2 0.4 -47.85 0.4 -48.5 -0.25 -48.9 L-1.7 -49.3 -3.25 -48.9 Q-3.9 -48.5 -3.9 -47.85 L-3.9 -47.7 M-8.55 -48.25 L-8.55 -48.4 M-9.25 -40.2 L-9.1 -43.1 Q-8.25 -45.7 -6.95 -44.95 -6.4 -45.25 -6.65 -45.7 M-8.45 -38.6 L-8.0 -38.3 -7.8 -38.15 -7.65 -39.55 -7.7 -40.8 -8.1 -41.1 Q-8.8 -41.5 -9.1 -39.7 L-8.8 -39.1 M-7.25 -40.9 Q-8.1 -42.4 -9.15 -42.6 -7.5 -42.9 -7.25 -40.9 M-7.65 -39.55 L-7.5 -37.6 -7.9 -36.55 Q-7.95 -35.7 -7.1 -36.0 M-3.1 -41.15 L-3.1 -41.1 -3.2 -40.95 -3.25 -41.15 M-4.25 -36.9 L-2.55 -37.1 -2.55 -37.25 Q-2.75 -39.25 -4.05 -39.6 L-4.65 -39.7 Q-5.2 -38.75 -5.3 -37.25 L-5.05 -37.15 -4.5 -36.95 -4.25 -36.9 M-2.25 -40.95 L-3.1 -41.15 M-12.45 -28.65 L-12.65 -26.4 -12.7 -26.1 -11.6 -25.05 Q-9.6 -23.4 -7.3 -22.15 M-9.0 -29.6 L-9.35 -32.25 -10.2 -32.1 M-6.1 -22.95 L-5.85 -24.8 -5.45 -26.65 -5.25 -27.4 -4.85 -28.6 Q-3.7 -28.05 -2.2 -28.2 L-2.7 -26.9 -3.7 -22.75 M-7.55 -34.9 L-7.05 -34.6 Q-6.15 -34.05 -4.65 -33.75 M-8.1 -33.5 L-7.95 -33.45 -7.5 -33.25 -7.5 -33.3 M-9.5 -33.6 L-9.35 -32.25 M-8.15 -32.4 L-8.1 -33.4 -8.1 -33.5 -8.1 -34.15 M-8.1 -33.4 L-7.95 -33.45 M-7.5 -32.5 L-8.15 -32.4 -8.45 -29.65 -8.7 -27.75 -9.0 -29.6 M-10.4 -46.35 L-9.35 -47.25 M-6.05 -6.7 L-5.6 -12.4 Q-6.2 -13.55 -6.4 -16.05 L-6.5 -17.3 -6.5 -17.4 M-10.15 -19.0 L-10.15 -18.95 -9.95 -18.75 Q-9.55 -18.35 -8.4 -17.8 L-7.25 -18.0 M-8.05 -19.6 Q-10.25 -20.7 -11.7 -22.15 L-11.75 -22.2 -12.4 -22.85 -11.85 -20.3 -11.85 -20.2 -11.35 -18.35 M-13.4 -20.65 L-13.65 -20.9 -13.7 -20.9 -13.75 -20.95 -14.35 -21.5 -15.0 -22.15 M-11.85 -20.3 Q-12.2 -19.75 -13.4 -20.65 M-15.6 -18.9 L-15.6 -18.85 -16.3 -15.15 -16.25 -15.1 -16.2 -15.05 -15.3 -14.15 -14.7 -13.7 Q-13.85 -13.35 -12.5 -13.7 L-12.05 -15.35 M-16.55 -18.0 L-17.25 -16.0 -18.0 -14.15 M-10.45 -3.5 L-10.4 -3.45 -9.8 -2.8 -7.9 -1.05 -6.15 0.2 -4.3 1.15 -4.05 1.2 Q-3.0 0.55 -1.9 0.1 L-0.85 -0.35 0.35 -0.7 M-10.45 -3.5 L-10.65 -3.7 M-10.4 -3.4 L-10.45 -3.5 M-9.75 -1.1 L-9.75 -1.4 -9.8 -2.8 M-14.7 -13.7 L-16.55 -1.8 M-12.7 -26.1 Q-12.75 -24.95 -12.4 -22.85 M-4.3 1.15 L-4.4 2.85 -4.55 8.2 -6.35 7.45 -6.25 2.25 -6.15 0.2 M-15.6 0.85 L-14.1 2.15 M-15.7 0.9 L-15.6 0.85 M-11.7 18.3 L-10.75 17.8 Q-10.15 17.1 -10.15 15.95 -10.15 14.8 -10.75 13.85 -11.4 12.9 -12.25 12.75 L-12.75 12.75 -12.8 12.75 -12.85 12.75 Q-13.7 12.6 -14.25 13.25 L-14.55 13.75 M-12.15 18.3 L-12.0 18.35 -11.8 18.3 -11.7 18.3 -11.7 18.35 -12.25 24.95 Q-12.7 25.4 -13.0 25.35 -13.45 25.25 -13.6 24.1 L-13.15 18.15 -14.25 17.2 -14.3 17.1 M-12.15 18.3 L-12.75 18.3 -13.15 18.15 M-3.55 19.55 Q-4.3 19.55 -5.05 18.95 L-5.9 18.0 Q-7.45 16.05 -7.55 13.25 -9.95 11.45 -12.7 11.85 M-5.6 46.8 L-5.35 46.8 -5.2 46.75 -3.3 46.2 Q-2.65 45.85 -2.55 45.35 M-2.55 13.5 Q-5.6 14.05 -8.25 11.65 -9.4 5.5 -9.75 -1.1 M-6.2 46.9 L-8.5 46.95 Q-11.2 46.65 -12.95 45.7 L-14.45 44.7 M-5.75 46.85 L-6.2 46.9 -7.4 48.6 -7.85 49.0 Q-8.75 49.8 -9.7 50.1 L-12.45 50.4 -14.75 50.25 -16.35 50.05 -17.55 49.8 Q-18.85 49.1 -18.0 48.1 M-5.6 46.8 L-5.75 46.85" fill="none" stroke="#6b4a43" stroke-linecap="round" stroke-linejoin="round" stroke-width="0.05"/>
  </g>
</svg>
