<?xml version="1.0" encoding="UTF-8" standalone="no"?>
<svg xmlns:xlink="http://www.w3.org/1999/xlink" height="118.0px" width="39.4px" xmlns="http://www.w3.org/2000/svg">
  <g transform="matrix(1.0, 0.0, 0.0, 1.0, 20.4, 59.3)">
    <path d="M0.55 22.7 L0.55 22.65 0.7 22.75 0.55 22.7" fill="#2f546f" fill-rule="evenodd" stroke="none"/>
    <path d="M3.35 -47.05 L3.65 -47.05 3.35 -47.0 3.35 -47.05" fill="#ffd0ae" fill-rule="evenodd" stroke="none"/>
    <path d="M0.55 22.7 L0.5 22.7 0.5 22.65 0.55 22.7 M-2.75 18.35 L-2.75 18.4 -2.8 18.4 -2.75 18.35 M-10.25 -23.3 L-10.25 -23.35 -10.15 -23.35 -10.15 -23.3 -10.25 -23.3 M-3.65 -45.5 L-4.0 -45.4 -4.3 -45.5 -4.35 -45.6 -3.65 -45.5 M-8.8 -47.6 L-8.25 -47.2 -8.25 -47.15 -8.45 -47.2 -8.45 -47.15 -8.7 -47.35 -8.7 -47.4 -8.8 -47.55 -8.8 -47.6 M-10.1 -21.3 L-10.1 -21.25 -10.15 -21.3 -10.1 -21.3" fill="#ffffff" fill-rule="evenodd" stroke="none"/>
    <path d="M16.35 -18.85 L16.4 -18.7 16.2 -18.75 16.35 -18.85" fill="#55807c" fill-rule="evenodd" stroke="none"/>
    <path d="M-5.8 -9.3 L-6.05 -9.4 -6.0 -9.4 -5.8 -9.3" fill="#536854" fill-rule="evenodd" stroke="none"/>
    <path d="M0.5 22.65 L0.55 22.65 0.55 22.7 0.5 22.65" fill="#4f4f4f" fill-rule="evenodd" stroke="none"/>
    <path d="M-10.2 -23.2 L-10.25 -23.3 -10.15 -23.3 -10.2 -23.2" fill="#96bebe" fill-rule="evenodd" stroke="none"/>
    <path d="M-10.15 -21.3 L-10.1 -21.25 -10.15 -21.25 -10.15 -21.3" fill="#8bc087" fill-rule="evenodd" stroke="none"/>
    <path d="M-2.05 -38.2 L-2.0 -38.15 -2.05 -38.15 -2.05 -38.2" fill="#7a634d" fill-rule="evenodd" stroke="none"/>
    <path d="M3.25 -40.55 L3.65 -40.5 Q5.8 -40.05 5.7 -39.45 5.75 -38.85 3.7 -38.45 L2.9 -38.3 3.15 -40.6 3.25 -40.55 M12.85 48.15 L13.6 49.55 13.85 51.0 11.75 48.75 12.8 48.35 12.85 48.15 M2.6 51.0 Q2.6 49.35 2.9 48.05 L4.45 49.05 3.95 49.4 2.6 51.0 M-7.55 46.4 L-8.4 46.55 Q-8.05 44.9 -8.3 43.4 L-6.7 43.45 Q-6.6 44.8 -7.55 46.4 M-8.45 -39.45 Q-8.45 -39.8 -7.75 -40.05 L-6.3 -38.5 -5.75 -38.45 -5.75 -38.3 -6.35 -38.4 Q-8.45 -38.85 -8.45 -39.45 M-1.5 -47.15 L-1.5 -47.2 -1.5 -47.15 Q-2.45 -47.8 -3.75 -47.8 L-3.45 -48.3 Q-2.45 -48.2 -1.55 -47.25 L-1.5 -47.2 -1.45 -47.15 -1.5 -47.15 M-3.9 -47.8 L-5.35 -47.7 Q-4.5 -48.25 -3.8 -48.3 L-3.9 -47.8 M-3.55 -45.5 L-3.55 -45.3 -3.75 -44.65 Q-3.95 -44.45 -4.15 -44.45 -4.4 -44.45 -4.55 -44.65 L-4.65 -45.3 -4.6 -45.6 -4.35 -45.6 -4.3 -45.5 -4.0 -45.4 -3.65 -45.5 -3.55 -45.5 M-8.15 -47.1 L-8.1 -47.1 -8.15 -46.85 -8.35 -46.45 Q-8.55 -46.25 -8.65 -46.3 L-8.85 -46.35 -9.0 -46.7 -8.95 -47.65 -8.8 -47.55 -8.7 -47.4 -8.7 -47.35 -8.45 -47.15 -8.45 -47.2 -8.25 -47.15 -8.3 -47.05 -8.2 -47.1 -8.15 -47.1 M-9.2 -49.3 L-9.15 -49.5 Q-7.9 -49.75 -7.25 -48.1 -8.3 -49.15 -9.2 -49.3" fill="#7c4632" fill-rule="evenodd" stroke="none"/>
    <path d="M0.3 -57.6 L1.0 -57.0 Q2.55 -55.3 3.1 -52.1 L3.4 -48.4 3.35 -47.4 3.4 -48.4 3.1 -52.1 Q2.55 -55.3 1.0 -57.0 L0.3 -57.6 M-7.7 -57.85 L-6.1 -58.7 Q-4.1 -59.5 -1.35 -59.2 L0.3 -58.95 2.4 -59.0 Q3.45 -59.05 4.45 -57.85 5.6 -56.55 6.8 -53.0 L7.7 -50.0 7.8 -49.3 Q7.3 -48.3 6.15 -47.8 L3.35 -47.4 3.35 -47.05 3.35 -47.0 3.65 -47.05 4.25 -46.9 4.55 -46.45 4.65 -45.0 4.6 -44.55 Q4.4 -45.3 3.55 -45.7 L3.25 -45.4 2.9 -44.2 2.55 -43.4 0.95 -40.8 Q-0.1 -39.55 -2.0 -38.15 L-1.0 -39.7 0.1 -42.2 0.55 -44.0 0.7 -47.0 Q0.55 -49.05 -0.25 -51.0 0.1 -48.9 -0.05 -46.95 L-0.15 -46.7 -0.8 -45.3 -0.9 -45.15 -1.4 -44.5 -0.9 -45.15 -0.8 -45.3 -1.1 -42.1 -1.25 -41.25 -1.25 -41.15 Q-3.1 -39.95 -5.65 -38.8 L-6.3 -38.5 -7.75 -40.05 -8.45 -41.15 Q-9.2 -42.9 -9.55 -44.8 L-9.6 -45.1 -9.7 -45.75 -9.7 -45.8 Q-10.4 -47.2 -10.4 -49.25 -10.45 -45.1 -9.65 -40.5 -11.45 -44.45 -11.4 -50.0 -11.3 -55.65 -8.9 -58.1 L-7.7 -57.85 -6.1 -57.1 -7.7 -57.85 M3.25 -45.4 L3.3 -45.65 3.35 -47.0 3.3 -45.65 3.25 -45.4 M5.7 -39.45 L5.85 -38.4 Q5.8 -37.75 3.7 -37.35 L2.95 -37.2 -1.25 -36.95 -3.0 -37.0 -3.2 -33.2 0.8 -32.95 -0.2 -27.75 -3.3 -27.95 -3.45 -24.75 7.1 -24.9 7.15 -24.7 7.9 -24.55 8.85 -23.5 8.95 -23.3 9.95 -20.8 10.3 -20.75 10.35 -20.7 Q12.6 -20.25 15.6 -21.6 L16.7 -22.2 Q17.4 -21.85 17.5 -19.9 L16.35 -18.85 16.2 -18.75 Q14.45 -17.75 11.5 -17.6 L10.75 -17.55 9.55 -18.8 Q8.55 -19.95 8.4 -20.75 L8.25 -21.15 7.6 -23.25 3.05 -23.3 -5.45 -22.8 -5.45 -23.65 -5.4 -25.25 -5.45 -23.65 Q-7.85 -24.05 -9.35 -24.75 -10.1 -25.1 -10.55 -25.4 L-12.0 -26.05 -11.55 -25.2 -10.45 -23.6 -11.2 -23.6 Q-14.15 -23.5 -15.85 -24.6 L-16.65 -25.25 Q-16.9 -27.0 -16.15 -27.4 L-15.4 -27.05 -12.45 -26.3 Q-13.4 -26.95 -12.7 -27.9 -12.3 -27.5 -9.95 -26.6 L-8.6 -26.05 -5.4 -25.25 -5.05 -29.3 -1.7 -28.95 -1.2 -31.4 -4.65 -31.6 -4.4 -37.05 -6.3 -37.3 -7.15 -37.5 Q-8.45 -37.9 -8.6 -38.4 L-8.45 -39.45 Q-8.45 -38.85 -6.35 -38.4 L-5.75 -38.3 -4.35 -38.15 -1.3 -38.05 2.9 -38.3 3.7 -38.45 Q5.75 -38.85 5.7 -39.45 M18.85 -10.2 Q19.35 -9.45 18.35 -9.0 14.4 -7.8 12.05 -11.85 11.55 -13.35 12.75 -13.35 L12.85 -13.2 13.7 -11.75 13.75 -11.75 Q15.75 -9.2 18.85 -10.2 M10.75 12.6 Q11.15 12.85 10.85 14.05 L10.2 14.4 Q6.75 16.05 2.6 14.85 L1.95 14.6 0.45 -2.7 -0.45 -2.7 -3.85 -2.95 -4.45 -3.1 -7.7 -4.05 Q-8.25 -4.25 -8.15 -5.2 L-8.05 -5.15 -7.95 -8.1 Q-7.9 -9.45 -7.35 -9.7 L-7.0 -9.75 -7.35 -9.7 Q-7.9 -9.45 -7.95 -8.1 L-8.55 -8.4 Q-10.6 -9.4 -10.85 -10.6 L-10.95 -11.95 Q-10.95 -12.65 -10.45 -12.7 L-10.3 -12.3 -10.0 -11.8 -9.55 -11.3 Q-9.05 -10.8 -8.4 -10.45 L-7.35 -9.9 -7.0 -9.75 -6.05 -9.4 -5.8 -9.3 -5.05 -9.1 3.8 -8.8 4.2 -8.9 6.0 -9.35 6.7 -9.75 7.3 -9.0 7.15 -8.05 7.0 -8.0 6.1 -7.6 1.5 -6.85 0.85 -6.8 -4.95 -7.15 -6.45 -7.6 -6.55 -5.2 Q-6.75 -4.95 -5.2 -4.6 L-0.85 -4.25 -0.15 -4.25 0.3 -4.2 Q1.7 -4.05 1.85 -3.1 L1.85 -2.85 3.25 13.8 Q7.0 14.95 10.0 13.1 L10.75 12.6 M9.7 21.1 Q10.15 21.45 10.2 21.85 L10.15 21.9 9.75 22.65 9.35 22.9 8.25 23.4 8.05 23.45 5.2 23.85 1.95 23.4 1.75 23.35 0.7 22.75 0.55 22.65 0.35 22.1 Q0.35 21.6 0.9 21.2 2.25 22.45 4.15 22.65 6.45 22.85 9.55 21.5 L9.7 21.1 M-2.95 17.9 L-2.75 18.35 -2.8 18.4 -3.3 19.1 -3.7 19.25 -4.85 19.6 -5.0 19.6 -7.9 19.65 -11.1 18.9 -11.25 18.85 -12.25 18.2 -12.4 18.1 -12.55 17.55 Q-12.45 17.0 -11.65 16.7 -10.5 18.1 -8.7 18.7 -6.5 19.45 -3.25 18.75 L-2.95 17.9 M-12.8 10.0 L-13.3 9.5 Q-13.5 8.3 -13.25 8.05 L-12.3 9.1 Q-11.55 9.85 -9.95 9.7 L-8.85 -4.6 -7.7 -4.05 -8.5 10.7 -9.35 10.8 -10.3 10.85 Q-11.85 10.95 -12.55 10.25 L-12.8 10.0 M-11.8 -17.45 Q-11.1 -16.95 -11.8 -16.3 -14.9 -14.3 -18.6 -17.25 -19.65 -18.45 -18.45 -18.7 -14.85 -15.4 -11.8 -17.45 M-12.9 -3.85 Q-12.75 -3.3 -12.9 -3.1 L-13.2 -2.9 -13.2 -0.95 -15.3 -2.65 -16.25 -2.65 -16.35 -2.6 -17.25 -2.5 -19.5 -1.7 -17.1 -3.1 -16.2 -3.85 Q-15.2 -3.3 -14.4 -3.1 L-13.2 -2.9 -14.4 -3.1 Q-15.2 -3.3 -16.2 -3.85 L-17.1 -3.1 -19.5 -1.7 -19.95 -1.5 Q-20.65 -1.75 -20.2 -2.85 L-19.5 -3.1 Q-17.55 -3.9 -16.75 -5.25 -14.25 -3.95 -12.9 -3.85 M8.35 -4.4 L8.25 -4.45 8.3 -4.7 8.95 -3.95 9.7 -3.1 10.55 -2.2 11.1 -1.8 9.45 -2.0 9.7 -0.45 8.55 -0.3 8.95 1.5 Q7.95 0.85 7.55 -0.35 L8.25 -0.3 8.25 -0.4 7.95 -2.1 7.85 -2.5 7.9 -2.85 8.05 -2.8 8.15 -2.75 8.8 -2.4 8.35 -4.4 M4.5 -0.15 Q4.2 -0.95 5.0 -1.15 5.85 0.25 8.45 1.95 7.95 4.2 9.0 7.4 8.5 8.65 7.9 8.15 L7.75 7.65 6.85 4.5 6.35 3.5 6.3 3.35 5.7 2.35 3.1 1.25 4.5 -0.15 Q5.1 1.05 7.15 2.4 7.1 4.95 7.75 7.65 7.1 4.95 7.15 2.4 5.1 1.05 4.5 -0.15 M-7.95 -53.1 L-5.65 -52.4 Q-5.8 -54.15 -6.2 -54.15 L-6.25 -54.15 -6.35 -54.15 -8.0 -53.8 -9.75 -50.95 -9.9 -47.25 -9.7 -45.75 -9.4 -45.3 -9.4 -46.55 -9.15 -46.15 -8.75 -45.7 -8.1 -45.25 -7.95 -46.75 -7.95 -47.0 -8.1 -47.1 -8.15 -47.1 -8.2 -47.15 -8.25 -47.2 -8.8 -47.6 -8.95 -47.65 -9.1 -47.75 -9.3 -47.9 -9.35 -47.8 -9.3 -49.9 -7.95 -53.1 M-3.85 -53.65 L-4.0 -53.8 Q-4.7 -53.7 -5.65 -52.4 L-3.45 -52.4 -3.5 -52.55 Q-3.6 -53.3 -3.85 -53.65 M-1.5 -47.15 L-1.45 -47.15 -1.5 -47.2 -1.55 -47.25 Q-2.45 -48.2 -3.45 -48.3 L-3.75 -47.8 Q-2.45 -47.8 -1.5 -47.15 L-1.65 -44.15 -1.4 -44.5 -0.95 -47.3 -1.4 -44.5 -1.65 -44.15 -1.5 -47.15 M-3.9 -47.8 L-3.8 -48.3 Q-4.5 -48.25 -5.35 -47.7 L-3.9 -47.8 M-4.6 -45.6 L-4.9 -45.65 -5.2 -45.7 -4.7 -46.95 Q-3.2 -46.9 -2.65 -45.4 -3.2 -46.9 -4.7 -46.95 L-5.2 -45.7 -5.4 -44.25 -4.45 -43.9 -4.2 -43.85 -2.35 -44.05 -2.65 -45.4 -3.3 -45.5 -3.55 -45.5 -3.65 -45.5 -4.35 -45.6 -4.6 -45.6 M-9.3 -47.9 Q-8.9 -49.2 -8.05 -48.15 L-7.95 -47.0 -8.05 -48.15 Q-8.9 -49.2 -9.3 -47.9 M-8.2 -43.5 Q-7.85 -44.0 -7.8 -44.6 -7.7 -45.5 -7.95 -46.75 -7.7 -45.5 -7.8 -44.6 -7.85 -44.0 -8.2 -43.5 -8.25 -42.55 -7.35 -42.85 L-8.2 -43.5 M-9.2 -49.3 Q-8.3 -49.15 -7.25 -48.1 -7.9 -49.75 -9.15 -49.5 L-9.2 -49.3 M-6.55 -40.95 L-7.75 -41.35 -6.55 -40.95 M-0.9 -45.15 L-1.1 -42.1 -0.9 -45.15 M-12.45 -26.3 L-12.0 -26.05 -12.45 -26.3 M-0.15 -35.65 L-0.05 -35.35 -0.15 -35.05 Q-0.25 -34.9 -0.45 -34.9 L-0.7 -35.05 -0.85 -35.35 -0.75 -35.65 -0.45 -35.8 -0.15 -35.65 M-0.75 -27.05 L-0.6 -26.75 Q-0.6 -26.5 -0.75 -26.35 L-1.1 -26.25 -1.45 -26.35 -1.55 -26.75 -1.45 -27.05 -1.1 -27.25 Q-0.9 -27.25 -0.75 -27.05 M-4.4 -37.05 L-4.35 -38.15 -4.4 -37.05 M-4.1 -6.4 L-3.95 -6.05 Q-3.95 -5.8 -4.1 -5.65 L-4.5 -5.55 -4.8 -5.65 -4.95 -6.05 -4.85 -6.4 -4.5 -6.55 -4.1 -6.4 M-1.55 -47.25 L-3.5 -52.55 -1.55 -47.25" fill="#d0a997" fill-rule="evenodd" stroke="none"/>
    <path d="M16.4 -18.7 L17.65 -14.2 18.1 -13.85 18.35 -13.6 18.9 -10.45 18.85 -10.2 Q15.75 -9.2 13.75 -11.75 L13.7 -11.75 12.85 -13.2 13.0 -13.65 11.5 -17.6 Q14.45 -17.75 16.2 -18.75 L16.4 -18.7 M10.2 14.4 L10.4 15.5 Q10.25 18.65 9.7 21.1 L9.55 21.5 Q6.45 22.85 4.15 22.65 3.6 21.9 3.2 20.35 2.7 18.75 2.65 16.7 L2.6 14.85 Q6.75 16.05 10.2 14.4 M10.2 21.85 L11.25 33.65 12.05 45.25 12.05 45.45 Q13.15 46.7 12.85 48.15 L12.8 48.35 11.75 48.75 4.45 49.05 2.9 48.05 2.5 47.65 Q2.1 46.4 2.9 44.65 L2.9 44.6 0.55 22.7 0.7 22.75 1.75 23.35 1.95 23.4 5.2 23.85 8.05 23.45 8.25 23.4 9.35 22.9 9.75 22.65 10.15 21.9 10.2 21.85 M13.85 51.0 Q12.7 57.75 9.35 58.7 3.85 57.45 2.6 51.0 L3.95 49.4 4.45 49.05 11.75 48.75 13.85 51.0 M-2.75 18.4 L-3.25 40.05 Q-2.35 41.15 -2.6 42.35 -1.85 44.55 -3.45 47.75 L-7.65 47.8 -7.55 46.4 Q-6.6 44.8 -6.7 43.45 L-8.3 43.4 Q-11.35 43.1 -12.9 41.0 L-12.9 39.9 -12.9 41.0 Q-11.35 43.1 -8.3 43.4 -8.05 44.9 -8.4 46.55 L-8.5 46.6 -8.55 46.6 -18.6 48.4 Q-20.35 48.4 -19.95 46.05 -17.45 43.3 -12.9 39.9 -12.75 39.2 -12.2 38.25 L-12.4 18.1 -12.25 18.2 -11.25 18.85 -11.1 18.9 -7.9 19.65 -5.0 19.6 -4.85 19.6 -3.7 19.25 -3.3 19.1 -2.8 18.4 -2.75 18.4 M-11.65 16.7 L-11.8 16.5 Q-12.5 14.85 -12.95 10.95 L-12.8 10.0 -12.55 10.25 Q-11.85 10.95 -10.3 10.85 L-9.35 10.8 -9.5 12.45 -9.4 16.3 Q-9.15 17.85 -8.7 18.7 -10.5 18.1 -11.65 16.7 M-10.25 -23.35 L-10.45 -23.6 -11.55 -25.2 -12.0 -26.05 -10.55 -25.4 -10.2 -23.75 -10.15 -23.35 -10.25 -23.35 M-11.2 -23.6 L-12.5 -18.9 -11.8 -17.7 -11.8 -17.45 Q-14.85 -15.4 -18.45 -18.7 -18.2 -19.7 -17.55 -20.3 L-16.55 -20.85 -15.85 -24.6 Q-14.15 -23.5 -11.2 -23.6 M3.05 -23.3 L7.6 -23.25 8.25 -21.15 Q7.95 -19.9 7.25 -18.4 6.35 -16.35 5.0 -14.5 L5.55 -10.7 Q5.05 -9.45 4.25 -8.9 L4.2 -8.9 3.8 -8.8 3.8 -8.85 Q2.8 -13.65 2.85 -18.4 2.8 -20.4 3.05 -23.3 M2.9 44.65 L3.35 44.95 Q4.7 46.0 7.0 45.95 L12.05 45.45 7.0 45.95 Q4.7 46.0 3.35 44.95 L2.9 44.65 M-16.75 -19.7 L-16.55 -20.85 -16.75 -19.7 M-12.5 -18.9 L-12.7 -18.15 -12.5 -18.9 M-12.2 38.25 L-11.2 39.0 -10.7 39.3 Q-9.8 39.45 -9.15 39.9 L-4.1 40.15 -3.25 40.05 -4.1 40.15 -9.15 39.9 Q-9.8 39.45 -10.7 39.3 L-11.2 39.0 -12.2 38.25 M-2.6 42.35 L-2.75 42.75 -6.7 43.45 -2.75 42.75 -2.6 42.35" fill="#875f4c" fill-rule="evenodd" stroke="none"/>
    <path d="M3.35 -47.4 L6.15 -47.8 Q7.3 -48.3 7.8 -49.3 7.8 -46.85 4.35 -43.35 L4.65 -44.5 Q5.1 -46.45 4.25 -46.9 L3.65 -47.05 3.35 -47.05 3.35 -47.4 M3.25 -45.4 L3.55 -45.7 Q4.4 -45.3 4.6 -44.55 L4.55 -44.3 4.3 -43.55 4.25 -43.45 4.2 -43.4 4.05 -43.0 2.95 -42.25 2.9 -42.2 3.55 -42.0 3.25 -40.55 3.15 -40.6 2.9 -38.3 -1.3 -38.05 -4.35 -38.15 -5.75 -38.3 -5.7 -38.45 -5.75 -38.45 -6.3 -38.5 -5.65 -38.8 Q-3.1 -39.95 -1.25 -41.15 L-1.25 -41.25 -1.1 -42.1 -0.8 -45.3 -0.15 -46.7 -0.05 -46.95 Q0.1 -48.9 -0.25 -51.0 0.55 -49.05 0.7 -47.0 L0.55 -44.0 0.1 -42.2 -1.0 -39.7 -2.0 -38.15 -2.05 -38.2 -2.05 -38.15 -2.0 -38.15 Q-0.1 -39.55 0.95 -40.8 L2.55 -43.4 2.9 -44.2 3.25 -45.4 M3.45 -43.65 L2.9 -44.2 3.45 -43.65 M18.35 -9.0 L13.8 -1.35 Q14.3 -0.9 14.15 -0.05 14.0 0.9 13.15 1.9 12.5 2.85 11.45 3.25 L11.1 3.45 10.1 5.35 9.0 7.4 Q7.95 4.2 8.45 1.95 5.85 0.25 5.0 -1.15 L6.45 -2.1 6.8 -2.05 7.8 -2.1 7.85 -2.5 7.95 -2.1 8.25 -0.4 8.25 -0.3 7.55 -0.35 Q7.95 0.85 8.95 1.5 L8.55 -0.3 9.7 -0.45 9.45 -2.0 11.1 -1.8 10.55 -2.2 9.7 -3.1 8.95 -3.95 Q10.25 -6.05 10.85 -8.05 L12.05 -11.85 Q14.4 -7.8 18.35 -9.0 M0.9 21.2 L0.85 21.15 Q0.05 19.75 -0.95 15.95 L-0.45 8.75 Q-0.3 6.2 -0.5 0.85 L-0.55 0.0 -1.35 0.1 -2.1 0.1 -2.0 2.9 -1.8 12.95 Q-2.25 15.75 -2.95 17.9 L-3.25 18.75 Q-6.5 19.45 -8.7 18.7 -9.15 17.85 -9.4 16.3 L-9.5 12.45 -9.35 10.8 -8.5 10.7 -7.7 -4.05 -4.45 -3.1 -3.85 -2.95 -0.45 -2.7 0.45 -2.7 1.95 14.6 2.6 14.85 2.65 16.7 Q2.7 18.75 3.2 20.35 3.6 21.9 4.15 22.65 2.25 22.45 0.9 21.2 M-10.45 -12.7 Q-11.45 -14.15 -10.9 -16.1 L-10.2 -18.7 -10.2 -23.2 -10.15 -23.3 -10.15 -23.35 -10.2 -23.75 -10.55 -25.4 Q-10.1 -25.1 -9.35 -24.75 -7.85 -24.05 -5.45 -23.65 L-5.45 -22.8 3.05 -23.3 Q2.8 -20.4 2.85 -18.4 2.8 -13.65 3.8 -8.85 L3.8 -8.8 -5.05 -9.1 -5.8 -9.3 -6.0 -9.4 -6.05 -9.4 -7.0 -9.75 -7.35 -9.9 -8.4 -10.45 Q-9.05 -10.8 -9.55 -11.3 L-10.0 -11.8 -10.3 -12.3 -10.45 -12.7 M-11.8 -16.3 L-13.55 -6.05 -13.25 -5.65 -12.9 -3.85 Q-14.25 -3.95 -16.75 -5.25 -17.55 -3.9 -19.5 -3.1 L-20.2 -2.85 -19.0 -7.15 -19.05 -7.2 Q-17.95 -11.2 -18.25 -13.7 L-18.6 -17.25 Q-14.9 -14.3 -11.8 -16.3 M-13.2 -0.95 L-15.35 -0.2 -15.75 0.7 -15.8 0.65 -19.95 -1.5 -19.5 -1.7 -17.25 -2.5 -16.35 -2.6 -16.25 -2.65 -15.3 -2.65 -13.2 -0.95 M-9.7 -45.8 L-9.65 -40.5 Q-10.45 -45.1 -10.4 -49.25 -10.4 -47.2 -9.7 -45.8 M0.95 -40.8 L2.9 -42.2 0.95 -40.8 M8.25 -4.4 L8.35 -4.4 8.8 -2.4 8.15 -2.75 8.05 -2.8 7.9 -2.85 7.95 -3.1 7.95 -3.15 8.25 -4.4 M7.75 7.65 L7.9 8.15 3.55 5.25 3.95 4.15 3.1 1.25 5.7 2.35 6.3 3.35 6.35 3.5 6.85 4.5 7.75 7.65 M7.8 -2.1 L7.95 -2.1 7.8 -2.1 M3.95 4.15 L6.3 3.35 3.95 4.15 M-0.55 0.0 L-0.45 -2.7 -0.55 0.0 M-5.65 -52.4 L-7.95 -53.1 -9.3 -49.9 -9.35 -47.8 -9.4 -47.7 -9.4 -46.55 -9.4 -45.3 -9.7 -45.75 -9.9 -47.25 -9.75 -50.95 -8.0 -53.8 -6.35 -54.15 -6.25 -54.15 -6.2 -54.15 Q-5.8 -54.15 -5.65 -52.4 -4.7 -53.7 -4.0 -53.8 L-3.85 -53.65 Q-3.6 -53.3 -3.5 -52.55 L-3.45 -52.4 -5.65 -52.4 M-2.05 -38.2 L-1.75 -39.35 -1.25 -41.15 -1.75 -39.35 -2.05 -38.2 M-9.1 -47.75 L-8.95 -47.65 -8.8 -47.6 -8.8 -47.55 -8.95 -47.65 -9.0 -46.7 -8.85 -46.35 -8.65 -46.3 Q-8.55 -46.25 -8.35 -46.45 L-8.15 -46.85 -8.1 -47.1 -7.95 -47.0 -7.95 -46.95 -8.2 -46.05 Q-8.4 -45.7 -8.65 -45.7 L-8.75 -45.7 -9.15 -46.15 -9.25 -46.95 -9.1 -47.75 M-8.25 -47.2 L-8.2 -47.15 -8.15 -47.1 -8.2 -47.1 -8.3 -47.05 -8.25 -47.15 -8.25 -47.2 M-8.2 -43.5 L-7.35 -42.85 Q-8.25 -42.55 -8.2 -43.5 M-5.7 -38.45 Q-4.0 -38.35 -1.75 -39.35 -4.0 -38.35 -5.7 -38.45 M-0.15 -35.8 L0.15 -35.15 Q0.15 -34.7 -0.2 -34.4 -0.5 -34.1 -0.9 -34.1 -1.3 -34.1 -1.6 -34.4 L-1.9 -35.1 -1.6 -35.8 Q-1.25 -36.15 -0.85 -36.15 -0.45 -36.15 -0.15 -35.8 M-0.15 -35.65 L-0.45 -35.8 -0.75 -35.65 -0.85 -35.35 -0.7 -35.05 -0.45 -34.9 Q-0.25 -34.9 -0.15 -35.05 L-0.05 -35.35 -0.15 -35.65 M-0.7 -27.1 L-0.5 -26.75 -0.45 -26.5 Q-0.5 -26.1 -0.75 -25.85 -1.0 -25.6 -1.4 -25.6 -1.75 -25.6 -2.05 -25.9 -2.35 -26.15 -2.3 -26.5 L-2.05 -27.15 -1.4 -27.45 Q-1.0 -27.45 -0.75 -27.15 L-0.7 -27.1 M-0.75 -27.05 Q-0.9 -27.25 -1.1 -27.25 L-1.45 -27.05 -1.55 -26.75 -1.45 -26.35 -1.1 -26.25 -0.75 -26.35 Q-0.6 -26.5 -0.6 -26.75 L-0.75 -27.05 M-10.1 -21.25 L-10.1 -21.3 -10.15 -21.3 -10.15 -21.25 -10.1 -21.25 M-15.35 -0.2 L-16.25 -2.65 -15.35 -0.2 M-13.75 -4.75 L-13.55 -6.05 -13.75 -4.75 M-4.05 -6.4 L-3.85 -6.05 -3.8 -5.8 Q-3.85 -5.4 -4.15 -5.15 -4.4 -4.9 -4.75 -4.9 -5.15 -4.85 -5.45 -5.15 -5.75 -5.45 -5.7 -5.8 L-5.45 -6.45 -4.75 -6.75 -4.1 -6.5 -4.05 -6.4 M-4.1 -6.4 L-4.5 -6.55 -4.85 -6.4 -4.95 -6.05 -4.8 -5.65 -4.5 -5.55 -4.1 -5.65 Q-3.95 -5.8 -3.95 -6.05 L-4.1 -6.4 M-2.1 0.1 L-3.6 -0.05 -4.55 -0.25 -3.6 -0.05 -2.1 0.1" fill="#b18b7e" fill-rule="evenodd" stroke="none"/>
    <path d="M5.85 -38.4 L6.35 -34.6 6.2 -34.45 6.25 -34.45 8.95 -32.8 Q13.75 -32.65 15.55 -26.55 L16.7 -22.2 15.6 -21.6 Q12.6 -20.25 10.35 -20.7 L10.3 -20.75 9.95 -20.8 8.95 -23.3 8.85 -23.5 7.9 -24.55 7.15 -24.7 7.1 -24.9 -3.45 -24.75 -3.3 -27.95 -0.2 -27.75 0.8 -32.95 -3.2 -33.2 -3.0 -37.0 -1.25 -36.95 2.95 -37.2 3.7 -37.35 Q5.8 -37.75 5.85 -38.4 M10.1 5.35 L10.75 12.6 10.0 13.1 Q7.0 14.95 3.25 13.8 L1.85 -2.85 1.85 -3.1 Q1.7 -4.05 0.3 -4.2 L-0.15 -4.25 -0.85 -4.25 -5.2 -4.6 Q-6.75 -4.95 -6.55 -5.2 L-6.45 -7.6 -4.95 -7.15 0.85 -6.8 1.5 -6.85 6.1 -7.6 7.0 -8.0 7.15 -8.05 8.15 -4.35 8.25 -4.4 7.95 -3.15 7.95 -3.1 7.9 -2.85 7.85 -2.5 7.8 -2.1 6.8 -2.05 6.45 -2.1 5.0 -1.15 Q4.2 -0.95 4.5 -0.15 L3.1 1.25 3.95 4.15 3.55 5.25 7.9 8.15 Q8.5 8.65 9.0 7.4 L10.1 5.35 M-13.25 8.05 L-12.45 -3.1 -11.15 -11.85 -10.95 -11.95 -10.85 -10.6 Q-10.6 -9.4 -8.55 -8.4 L-7.95 -8.1 -8.05 -5.15 -8.15 -5.2 Q-8.25 -4.25 -7.7 -4.05 L-8.85 -4.6 -9.95 9.7 Q-11.55 9.85 -12.3 9.1 L-13.25 8.05 M-16.15 -27.4 L-15.5 -31.4 Q-14.45 -36.85 -10.25 -37.4 L-8.75 -37.65 -8.7 -37.65 -8.6 -38.4 Q-8.45 -37.9 -7.15 -37.5 L-6.3 -37.3 -4.4 -37.05 -4.65 -31.6 -1.2 -31.4 -1.7 -28.95 -5.05 -29.3 -5.4 -25.25 -8.6 -26.05 -9.95 -26.6 Q-12.3 -27.5 -12.7 -27.9 -13.4 -26.95 -12.45 -26.3 L-15.4 -27.05 -16.15 -27.4 M3.1 -32.85 L4.45 -33.45 6.2 -34.45 4.45 -33.45 3.1 -32.85 M9.55 -18.8 L9.35 -18.45 7.5 -15.35 8.05 -11.55 Q7.55 -10.25 6.7 -9.75 L6.0 -9.35 4.2 -8.9 4.25 -8.9 Q5.05 -9.45 5.55 -10.7 L5.0 -14.5 Q6.35 -16.35 7.25 -18.4 7.95 -19.9 8.25 -21.15 L8.4 -20.75 Q8.55 -19.95 9.55 -18.8 M-12.95 -31.35 Q-13.15 -29.7 -12.7 -27.9 -13.15 -29.7 -12.95 -31.35 M-0.15 -35.8 Q-0.45 -36.15 -0.85 -36.15 -1.25 -36.15 -1.6 -35.8 L-1.9 -35.1 -1.6 -34.4 Q-1.3 -34.1 -0.9 -34.1 -0.5 -34.1 -0.2 -34.4 0.15 -34.7 0.15 -35.15 L-0.15 -35.8 M-9.05 -34.9 L-9.05 -35.0 -9.05 -34.9 -8.25 -33.45 -9.05 -34.9 M-0.7 -27.1 L-0.75 -27.15 Q-1.0 -27.45 -1.4 -27.45 L-2.05 -27.15 -2.3 -26.5 Q-2.35 -26.15 -2.05 -25.9 -1.75 -25.6 -1.4 -25.6 -1.0 -25.6 -0.75 -25.85 -0.5 -26.1 -0.45 -26.5 L-0.5 -26.75 -0.7 -27.1 M-9.05 -35.0 L-8.75 -37.65 -9.05 -35.0 M-4.05 -6.4 L-4.1 -6.5 -4.75 -6.75 -5.45 -6.45 -5.7 -5.8 Q-5.75 -5.45 -5.45 -5.15 -5.15 -4.85 -4.75 -4.9 -4.4 -4.9 -4.15 -5.15 -3.85 -5.4 -3.8 -5.8 L-3.85 -6.05 -4.05 -6.4" fill="#92655a" fill-rule="evenodd" stroke="none"/>
    <path d="M-9.4 -46.55 L-9.4 -47.7 -9.35 -47.8 -9.3 -47.9 -9.1 -47.75 -9.25 -46.95 -9.15 -46.15 -9.4 -46.55 -9.35 -47.8 -9.4 -46.55 M-4.9 -45.65 L-4.95 -45.3 -4.75 -44.25 -4.45 -43.9 -5.4 -44.25 -5.2 -45.7 -4.9 -45.65 M-4.2 -43.85 Q-3.85 -43.85 -3.55 -44.25 -3.3 -44.7 -3.3 -45.3 L-3.3 -45.5 -2.65 -45.4 -2.35 -44.05 -4.2 -43.85 M-8.75 -45.7 L-8.65 -45.7 Q-8.4 -45.7 -8.2 -46.05 L-7.95 -46.95 -7.95 -47.0 -7.95 -46.75 -8.1 -45.25 -8.75 -45.7" fill="#e8d3cc" fill-rule="evenodd" stroke="none"/>
    <path d="M-4.6 -45.6 L-4.65 -45.3 -4.55 -44.65 Q-4.4 -44.45 -4.15 -44.45 -3.95 -44.45 -3.75 -44.65 L-3.55 -45.3 -3.55 -45.5 -3.3 -45.5 -3.3 -45.3 Q-3.3 -44.7 -3.55 -44.25 -3.85 -43.85 -4.2 -43.85 L-4.45 -43.9 -4.75 -44.25 -4.95 -45.3 -4.9 -45.65 -4.6 -45.6" fill="#967267" fill-rule="evenodd" stroke="none"/>
    <path d="M9.35 22.9 L9.75 22.65 10.15 21.9" fill="none" stroke="#666666" stroke-linecap="round" stroke-linejoin="round" stroke-width="0.05"/>
    <path d="M16.35 -18.85 L16.4 -18.7" fill="none" stroke="#37534d" stroke-linecap="round" stroke-linejoin="round" stroke-width="0.05"/>
    <path d="M-9.05 -35.0 L-9.05 -34.9 M-6.0 -9.4 L-6.05 -9.4" fill="none" stroke="#1c211b" stroke-linecap="round" stroke-linejoin="round" stroke-width="0.05"/>
    <path d="M0.5 22.7 L0.5 22.65 0.55 22.65 M0.5 22.65 L0.55 22.7" fill="none" stroke="#000000" stroke-linecap="round" stroke-linejoin="round" stroke-width="0.05"/>
    <path d="M-10.1 -21.3 L-10.15 -21.3 -10.15 -21.25 -10.1 -21.25" fill="none" stroke="#588780" stroke-linecap="round" stroke-linejoin="round" stroke-width="0.05"/>
    <path d="M3.25 -40.55 L3.65 -40.5 M6.35 -34.6 L6.2 -34.45 M-10.2 -23.2 L-10.25 -23.3 -10.25 -23.35 M-8.75 -37.65 L-8.7 -37.65 M3.15 -40.6 L3.25 -40.55" fill="none" stroke="#548584" stroke-linecap="round" stroke-linejoin="round" stroke-width="0.05"/>
    <path d="M-2.05 -38.2 L-2.05 -38.15" fill="none" stroke="#7a634d" stroke-linecap="round" stroke-linejoin="round" stroke-width="0.05"/>
    <path d="M-2.05 -38.15 L-2.0 -38.15" fill="none" stroke="#009900" stroke-linecap="round" stroke-linejoin="round" stroke-width="0.05"/>
    <path d="M0.55 22.7 L0.55 22.65" fill="none" stroke="#1d3643" stroke-linecap="round" stroke-linejoin="round" stroke-width="0.05"/>
    <path d="M13.85 51.0 Q12.7 57.75 9.35 58.7 M2.9 48.05 L2.5 47.65 M10.15 21.9 L10.2 21.85 M12.8 48.35 L12.85 48.15" fill="none" stroke="#714f46" stroke-linecap="round" stroke-linejoin="round" stroke-width="0.05"/>
    <path d="M-2.6 42.35 Q-1.85 44.55 -3.45 47.75" fill="none" stroke="#88655a" stroke-linecap="round" stroke-linejoin="round" stroke-width="0.05"/>
    <path d="M9.7 21.1 Q10.15 21.45 10.2 21.85 L11.25 33.65 M12.05 45.25 L12.05 45.45 Q13.15 46.7 12.85 48.15 L13.6 49.55 13.85 51.0 11.75 48.75 12.8 48.35 M2.6 51.0 Q2.6 49.35 2.9 48.05 L4.45 49.05 3.95 49.4 2.6 51.0 M2.5 47.65 Q2.1 46.4 2.9 44.65 L2.9 44.6 0.55 22.7 0.7 22.75 1.75 23.35 1.95 23.4 5.2 23.85 8.05 23.45 8.25 23.4 9.35 22.9 M0.55 22.65 L0.35 22.1 Q0.35 21.6 0.9 21.2 M-2.95 17.9 L-2.75 18.35 -2.75 18.4 -3.25 40.05 Q-2.35 41.15 -2.6 42.35 L-2.75 42.75 -6.7 43.45 -8.3 43.4 Q-8.05 44.9 -8.4 46.55 L-8.5 46.6 -8.55 46.6 -18.6 48.4 Q-20.35 48.4 -19.95 46.05 -17.45 43.3 -12.9 39.9 -12.75 39.2 -12.2 38.25 L-12.4 18.1 -12.55 17.55 Q-12.45 17.0 -11.65 16.7 M-3.45 47.75 L-7.65 47.8 -7.55 46.4 -8.4 46.55 M12.05 45.45 L7.0 45.95 Q4.7 46.0 3.35 44.95 L2.9 44.65 M11.75 48.75 L4.45 49.05 M-12.25 18.2 L-11.25 18.85 -11.1 18.9 -7.9 19.65 -5.0 19.6 -4.85 19.6 -3.7 19.25 -3.3 19.1 -2.8 18.4 -2.75 18.4 M-12.9 39.9 L-12.9 41.0 Q-11.35 43.1 -8.3 43.4 M-3.25 40.05 L-4.1 40.15 -9.15 39.9 Q-9.8 39.45 -10.7 39.3 L-11.2 39.0 -12.2 38.25 M-7.55 46.4 Q-6.6 44.8 -6.7 43.45" fill="none" stroke="#d0a997" stroke-linecap="round" stroke-linejoin="round" stroke-width="0.05"/>
    <path d="M11.25 33.65 L12.05 45.25" fill="none" stroke="#d0a997" stroke-linecap="round" stroke-linejoin="round" stroke-width="0.05"/>
    <path d="M10.2 14.4 L10.4 15.5 Q10.25 18.65 9.7 21.1 L9.55 21.5 Q6.45 22.85 4.15 22.65 3.6 21.9 3.2 20.35 2.7 18.75 2.65 16.7 L2.6 14.85 M0.9 21.2 L0.85 21.15 Q0.05 19.75 -0.95 15.95 L-0.45 8.75 Q-0.3 6.2 -0.5 0.85 L-0.55 0.0 -1.35 0.1 -2.1 0.1 -2.0 2.9 -1.8 12.95 Q-2.25 15.75 -2.95 17.9 L-3.25 18.75 Q-6.5 19.45 -8.7 18.7 -10.5 18.1 -11.65 16.7 L-11.8 16.5 Q-12.5 14.85 -12.95 10.95 L-12.8 10.0 M3.05 -23.3 Q2.8 -20.4 2.85 -18.4 2.8 -13.65 3.8 -8.85 L3.8 -8.8 M-0.45 -2.7 L-0.55 0.0 M4.15 22.65 Q2.25 22.45 0.9 21.2 M-4.55 -0.25 L-3.6 -0.05 -2.1 0.1 M-9.35 10.8 L-9.5 12.45 -9.4 16.3 Q-9.15 17.85 -8.7 18.7" fill="none" stroke="#92655a" stroke-linecap="round" stroke-linejoin="round" stroke-width="0.05"/>
    <path d="M10.75 12.6 Q11.15 12.85 10.85 14.05 L10.2 14.4 Q6.75 16.05 2.6 14.85 L1.95 14.6 0.45 -2.7 -0.45 -2.7 -3.85 -2.95 -4.45 -3.1 -7.7 -4.05 -8.5 10.7 -9.35 10.8 -10.3 10.85 Q-11.85 10.95 -12.55 10.25 L-12.8 10.0 -13.3 9.5 Q-13.5 8.3 -13.25 8.05 M-10.95 -11.95 Q-10.95 -12.65 -10.45 -12.7 L-10.3 -12.3 -10.0 -11.8 -9.55 -11.3 Q-9.05 -10.8 -8.4 -10.45 L-7.35 -9.9 -7.0 -9.75 -7.35 -9.7 Q-7.9 -9.45 -7.95 -8.1 L-8.05 -5.15 -8.15 -5.2 Q-8.25 -4.25 -7.7 -4.05 M6.7 -9.75 L7.3 -9.0 7.15 -8.05 M3.8 -8.8 L4.2 -8.9 6.0 -9.35 6.7 -9.75 M-10.85 -10.6 L-10.95 -11.95 M-6.05 -9.4 L-7.0 -9.75 M-6.05 -9.4 L-5.8 -9.3 -5.05 -9.1 3.8 -8.8" fill="none" stroke="#875f4c" stroke-linecap="round" stroke-linejoin="round" stroke-width="0.05"/>
    <path d="M3.65 -40.5 Q5.8 -40.05 5.7 -39.45 M5.85 -38.4 L6.35 -34.6 M6.2 -34.45 L6.25 -34.45 8.95 -32.8 Q13.75 -32.65 15.55 -26.55 L16.7 -22.2 M-16.15 -27.4 L-15.5 -31.4 Q-14.45 -36.85 -10.25 -37.4 M-8.45 -39.45 Q-8.45 -39.8 -7.75 -40.05 M6.2 -34.45 L4.45 -33.45 3.1 -32.85 M-12.7 -27.9 Q-13.15 -29.7 -12.95 -31.35 M-8.75 -37.65 L-9.05 -35.0" fill="none" stroke="#714f48" stroke-linecap="round" stroke-linejoin="round" stroke-width="0.05"/>
    <path d="M-10.25 -37.4 L-8.75 -37.65 M-8.7 -37.65 L-8.6 -38.4 -8.45 -39.45 M-9.05 -34.9 L-8.25 -33.45" fill="none" stroke="#75514a" stroke-linecap="round" stroke-linejoin="round" stroke-width="0.05"/>
    <path d="M5.7 -39.45 L5.85 -38.4 M16.7 -22.2 Q17.4 -21.85 17.5 -19.9 L16.35 -18.85 16.2 -18.75 Q14.45 -17.75 11.5 -17.6 L13.0 -13.65 M16.4 -18.7 L17.65 -14.2 M18.1 -13.85 L18.35 -13.6 18.9 -10.45 18.85 -10.2 Q19.35 -9.45 18.35 -9.0 L13.8 -1.35 M11.1 3.45 L10.1 5.35 10.75 12.6 M-10.45 -12.7 Q-11.45 -14.15 -10.9 -16.1 L-10.2 -18.7 -10.2 -23.2 -10.15 -23.3 -10.15 -23.35 -10.2 -23.75 -10.55 -25.4 -12.0 -26.05 -12.45 -26.3 Q-13.4 -26.95 -12.7 -27.9 M-10.25 -23.35 L-10.45 -23.6 -11.2 -23.6 -12.5 -18.9 -11.8 -17.7 -11.8 -17.45 Q-11.1 -16.95 -11.8 -16.3 L-13.55 -6.05 -13.25 -5.65 -12.9 -3.85 M-20.2 -2.85 L-19.0 -7.15 M-19.05 -7.2 Q-17.95 -11.2 -18.25 -13.7 L-18.6 -17.25 Q-19.65 -18.45 -18.45 -18.7 -18.2 -19.7 -17.55 -20.3 L-16.55 -20.85 -15.85 -24.6 -16.65 -25.25 Q-16.9 -27.0 -16.15 -27.4 L-15.4 -27.05 -12.45 -26.3 M7.15 -24.7 L7.9 -24.55 8.85 -23.5 8.95 -23.3 9.95 -20.8 10.3 -20.75 10.35 -20.7 Q12.6 -20.25 15.6 -21.6 L16.7 -22.2 M2.9 -38.3 L3.7 -38.45 Q5.75 -38.85 5.7 -39.45 M12.85 -13.2 L13.7 -11.75 M13.75 -11.75 Q15.75 -9.2 18.85 -10.2 M11.5 -17.6 L10.75 -17.55 9.55 -18.8 9.35 -18.45 7.5 -15.35 8.05 -11.55 Q7.55 -10.25 6.7 -9.75 M7.15 -8.05 L8.15 -4.35 M8.95 -3.95 Q10.25 -6.05 10.85 -8.05 L12.05 -11.85 Q11.55 -13.35 12.75 -13.35 M8.25 -21.15 L7.6 -23.25 3.05 -23.3 -5.45 -22.8 -5.45 -23.65 Q-7.85 -24.05 -9.35 -24.75 -10.1 -25.1 -10.55 -25.4 M8.25 -21.15 L8.4 -20.75 Q8.55 -19.95 9.55 -18.8 M5.0 -1.15 Q4.2 -0.95 4.5 -0.15 5.1 1.05 7.15 2.4 7.1 4.95 7.75 7.65 L7.9 8.15 Q8.5 8.65 9.0 7.4 7.95 4.2 8.45 1.95 5.85 0.25 5.0 -1.15 L6.45 -2.1 6.8 -2.05 M18.35 -9.0 Q14.4 -7.8 12.05 -11.85 M6.3 3.35 L6.35 3.5 M6.3 3.35 L3.95 4.15 3.55 5.25 7.9 8.15 M3.95 4.15 L3.1 1.25 4.5 -0.15 M9.0 7.4 L10.1 5.35 M-8.45 -39.45 Q-8.45 -38.85 -6.35 -38.4 L-5.75 -38.3 -4.35 -38.15 -1.3 -38.05 2.9 -38.3 M-10.45 -23.6 L-11.55 -25.2 -12.0 -26.05 M-4.4 -37.05 L-4.65 -31.6 -1.2 -31.4 -1.7 -28.95 -5.05 -29.3 -5.4 -25.25 -5.45 -23.65 M-4.35 -38.15 L-4.4 -37.05 M-16.55 -20.85 L-16.75 -19.7 M-15.85 -24.6 Q-14.15 -23.5 -11.2 -23.6 M-12.7 -18.15 L-12.5 -18.9 M-11.8 -17.45 Q-14.85 -15.4 -18.45 -18.7 M-11.8 -16.3 Q-14.9 -14.3 -18.6 -17.25 M-13.55 -6.05 L-13.75 -4.75" fill="none" stroke="#79544c" stroke-linecap="round" stroke-linejoin="round" stroke-width="0.05"/>
    <path d="M-12.9 -3.85 Q-12.75 -3.3 -12.9 -3.1 L-13.2 -2.9 -13.2 -0.95 -15.35 -0.2 -15.75 0.7 -15.8 0.65 -19.95 -1.5 Q-20.65 -1.75 -20.2 -2.85 L-19.5 -3.1 Q-17.55 -3.9 -16.75 -5.25 -14.25 -3.95 -12.9 -3.85 M-19.5 -1.7 L-17.1 -3.1 -16.2 -3.85 Q-15.2 -3.3 -14.4 -3.1 L-13.2 -2.9 M-19.95 -1.5 L-19.5 -1.7 M-16.35 -2.6 L-16.25 -2.65 -15.35 -0.2" fill="none" stroke="#7f584c" stroke-linecap="round" stroke-linejoin="round" stroke-width="0.05"/>
    <path d="M17.65 -14.2 L18.1 -13.85" fill="none" stroke="#9b735d" stroke-linecap="round" stroke-linejoin="round" stroke-width="0.05"/>
    <path d="M-13.25 8.05 L-12.45 -3.1 -11.15 -11.85" fill="none" stroke="#7d574e" stroke-linecap="round" stroke-linejoin="round" stroke-width="0.05"/>
    <path d="M3.35 -47.4 L3.4 -48.4 3.1 -52.1 Q2.55 -55.3 1.0 -57.0 L0.3 -57.6 M7.8 -49.3 L7.7 -50.0 6.8 -53.0 Q5.6 -56.55 4.45 -57.85 3.45 -59.05 2.4 -59.0 L0.3 -58.95 -1.35 -59.2 Q-4.1 -59.5 -6.1 -58.7 L-7.7 -57.85 -6.1 -57.1 M3.35 -47.4 L3.35 -47.05 3.65 -47.05 4.25 -46.9 4.55 -46.45 4.65 -45.0 4.6 -44.55 4.55 -44.3 4.65 -44.5 4.35 -43.35 Q7.8 -46.85 7.8 -49.3 M3.35 -47.0 L3.35 -47.05 M3.35 -47.0 L3.3 -45.65 3.25 -45.4 3.55 -45.7 M-2.0 -38.15 Q-0.1 -39.55 0.95 -40.8 L2.55 -43.4 2.9 -44.2 3.25 -45.4 M2.9 -44.2 L3.45 -43.65 M4.55 -44.3 L4.3 -43.55 4.25 -43.45 4.2 -43.4 4.05 -43.0 2.95 -42.25 2.9 -42.2 3.55 -42.0 3.25 -40.55 M-7.75 -40.05 L-8.45 -41.15 Q-9.2 -42.9 -9.55 -44.8 L-9.6 -45.1 M-9.7 -45.8 L-9.65 -40.5 Q-11.45 -44.45 -11.4 -50.0 -11.3 -55.65 -8.9 -58.1 L-7.7 -57.85 M2.9 -42.2 L0.95 -40.8 M6.8 -2.05 L7.8 -2.1 7.95 -2.1 M-5.65 -52.4 Q-5.8 -54.15 -6.2 -54.15 L-6.25 -54.15 -6.35 -54.15 -8.0 -53.8 M-3.85 -53.65 L-4.0 -53.8 Q-4.7 -53.7 -5.65 -52.4 M-1.5 -47.15 L-1.65 -44.15 -1.4 -44.5 -0.95 -47.3 M-0.8 -45.3 L-0.15 -46.7 -0.05 -46.95 Q0.1 -48.9 -0.25 -51.0 M-4.6 -45.6 L-4.9 -45.65 -5.2 -45.7 -4.7 -46.95 Q-3.2 -46.9 -2.65 -45.4 L-3.3 -45.5 -3.55 -45.5 -3.65 -45.5 -4.35 -45.6 -4.6 -45.6 M-4.45 -43.9 L-4.2 -43.85 -2.35 -44.05 -2.65 -45.4 M-1.4 -44.5 L-0.9 -45.15 -0.8 -45.3 M-1.1 -42.1 L-1.25 -41.25 -1.25 -41.15 -1.75 -39.35 -2.05 -38.2 M-8.8 -47.6 L-8.25 -47.2 -8.2 -47.15 M-7.95 -47.0 L-8.05 -48.15 Q-8.9 -49.2 -9.3 -47.9 L-9.1 -47.75 M-9.35 -47.8 L-9.3 -47.9 M-8.75 -45.7 L-8.1 -45.25 -7.95 -46.75 -7.95 -47.0 M-7.95 -46.75 Q-7.7 -45.5 -7.8 -44.6 -7.85 -44.0 -8.2 -43.5 -8.25 -42.55 -7.35 -42.85 M-4.45 -43.9 L-5.4 -44.25 -5.2 -45.7 M-9.2 -49.3 L-9.15 -49.5 Q-7.9 -49.75 -7.25 -48.1 -8.3 -49.15 -9.2 -49.3 M-9.15 -46.15 L-9.4 -46.55 M-5.75 -38.45 L-6.3 -38.5 -7.75 -40.05 M-5.75 -38.3 L-5.7 -38.45 -5.75 -38.45 M-7.75 -41.35 L-6.55 -40.95 M-1.75 -39.35 Q-4.0 -38.35 -5.7 -38.45 M-1.1 -42.1 L-0.9 -45.15 M-3.5 -52.55 L-1.55 -47.25" fill="none" stroke="#6b4a43" stroke-linecap="round" stroke-linejoin="round" stroke-width="0.05"/>
    <path d="M-7.95 -53.1 L-5.65 -52.4 -3.45 -52.4" fill="none" stroke="#7c4632" stroke-linecap="round" stroke-linejoin="round" stroke-width="0.05"/>
    <path d="M-9.6 -45.1 L-9.7 -45.75 -9.7 -45.8 M-1.5 -47.2 L-1.5 -47.15 M-9.35 -47.8 L-9.4 -46.55" fill="none" stroke="#926e64" stroke-linecap="round" stroke-linejoin="round" stroke-width="0.05"/>
  </g>
</svg>
