<?xml version="1.0" encoding="UTF-8" standalone="no"?>
<svg xmlns:xlink="http://www.w3.org/1999/xlink" height="141.2px" width="50.8px" xmlns="http://www.w3.org/2000/svg">
  <g transform="matrix(1.0, 0.0, 0.0, 1.0, 25.45, 71.1)">
    <path d="M-5.8 -14.2 L-5.85 -14.2 -5.8 -14.2" fill="#b2b2b2" fill-rule="evenodd" stroke="none"/>
    <path d="M-10.35 -10.35 L-10.6 -10.45 -10.3 -10.4 -10.35 -10.35 M6.6 -3.1 L6.55 -3.1 6.6 -3.15 6.6 -3.1" fill="#343a3f" fill-rule="evenodd" stroke="none"/>
    <path d="M6.75 -3.2 L6.6 -3.1 6.6 -3.15 6.75 -3.2" fill="#000000" fill-rule="evenodd" stroke="none"/>
    <path d="M-19.85 58.85 L-19.8 58.8 -19.85 58.9 -19.85 58.85 M4.2 -24.5 L4.3 -24.5 4.3 -24.45 4.2 -24.5 M0.65 -30.35 L0.65 -30.4 0.65 -30.35 M-11.1 -4.7 L-11.2 -3.95 -11.1 -4.7 M-3.9 -41.0 L-3.8 -41.0 -3.75 -41.0 -3.9 -41.0 M-8.5 -42.9 L-8.5 -42.85 -8.6 -42.9 -8.5 -42.9 M-12.6 -22.35 L-12.65 -22.3 -12.7 -22.45 -12.6 -22.35" fill="#ffffff" fill-rule="evenodd" stroke="none"/>
    <path d="M-19.85 58.9 L-19.9 58.95 -19.85 58.9" fill="#887b51" fill-rule="evenodd" stroke="none"/>
    <path d="M6.85 56.4 L6.85 56.3 6.9 56.35 6.85 56.4 M-19.9 58.95 L-19.85 58.85 -19.85 58.9 -19.9 58.95 M-10.8 52.55 L-10.8 52.45 -10.75 52.5 -10.8 52.55" fill="#4f4f4f" fill-rule="evenodd" stroke="none"/>
    <path d="M3.55 -39.3 L3.55 -39.35 3.6 -39.35 3.55 -39.3 M3.65 -40.8 L3.65 -40.9 3.65 -40.95 3.75 -41.0 3.7 -40.9 3.65 -40.8 M3.6 -42.05 L3.6 -42.2 3.65 -42.2 3.6 -42.05 M4.95 -44.2 L5.1 -44.05 5.4 -43.05 5.25 -43.7 4.95 -44.2 M5.3 -41.7 L5.3 -41.55 5.25 -41.45 5.3 -41.7 M-5.45 -33.85 L-5.55 -33.95 -5.55 -34.0 -5.4 -33.9 -5.45 -33.85" fill="#ffd0ae" fill-rule="evenodd" stroke="none"/>
    <path d="M-10.3 -10.4 L-9.4 -10.25 -10.3 -10.4" fill="#fefefe" fill-rule="evenodd" stroke="none"/>
    <path d="M13.55 16.65 L13.55 16.7 13.5 16.65 13.55 16.65 M15.7 6.1 L15.75 6.1 15.7 6.1 M10.75 7.4 L10.7 7.4 10.75 7.4 10.85 7.35 10.7 7.4 10.75 7.4" fill="#fcfcfc" fill-rule="evenodd" stroke="none"/>
    <path d="M-9.3 -55.15 L-9.25 -54.9 -9.4 -55.1 -9.3 -55.15" fill="#6963a1" fill-rule="evenodd" stroke="none"/>
    <path d="M1.9 -62.75 L1.95 -62.7 1.8 -62.65 1.9 -62.75 M3.45 -43.95 L3.55 -44.0 3.45 -43.95 M3.55 -39.25 L3.55 -39.2 3.55 -39.25" fill="#3a3961" fill-rule="evenodd" stroke="none"/>
    <path d="M5.7 -36.15 L6.0 -35.45 Q9.8 -39.0 14.15 -41.1 L15.9 -40.55 Q17.6 -40.15 17.6 -36.8 13.1 -36.35 8.35 -33.05 6.0 -31.45 3.65 -29.2 L3.2 -28.8 Q3.25 -27.9 4.15 -27.3 4.5 -27.05 5.0 -26.85 L5.15 -26.8 6.95 -27.0 7.2 -27.0 13.45 -27.6 14.1 -28.15 14.2 -28.2 Q15.65 -29.45 14.35 -30.75 13.95 -31.05 13.45 -30.55 14.1 -31.9 15.45 -31.6 16.8 -31.25 16.6 -29.85 18.1 -30.7 19.5 -30.95 L22.05 -30.9 Q23.45 -30.7 22.9 -29.3 21.3 -29.45 19.45 -28.7 17.5 -27.95 15.25 -26.1 17.05 -23.65 19.4 -22.45 21.8 -21.3 24.8 -21.45 25.9 -20.1 24.7 -19.05 21.75 -19.25 19.4 -20.0 17.55 -20.6 16.1 -21.5 14.45 -22.6 13.3 -24.05 L12.85 -24.65 6.2 -23.95 5.9 -24.0 4.3 -24.5 5.9 -24.0 5.9 -23.15 6.2 -14.4 7.45 -14.35 9.0 -14.8 9.3 -14.85 8.85 -13.8 6.05 -13.6 -5.8 -14.2 -5.85 -14.2 Q-8.55 -14.7 -10.9 -15.6 L-11.05 -18.9 -11.6 -19.8 -11.85 -20.3 -11.95 -20.55 -12.65 -22.3 -12.6 -22.35 -12.7 -22.45 -14.65 -24.55 -15.0 -24.95 Q-16.5 -26.75 -16.6 -28.3 L-16.6 -28.55 Q-16.65 -30.1 -15.8 -31.2 -14.95 -32.45 -14.0 -32.85 L-10.55 -33.5 -10.55 -33.55 Q-9.65 -34.8 -7.55 -35.0 L-7.45 -35.85 -7.9 -36.65 -8.65 -38.9 -9.35 -43.2 -9.5 -44.25 -9.6 -45.25 -9.6 -45.35 -9.35 -46.0 -8.8 -47.2 Q-8.0 -46.8 -7.3 -45.55 -7.55 -47.3 -8.7 -47.5 L-6.25 -51.8 -6.15 -51.55 -3.95 -45.5 -4.95 -44.65 -3.8 -45.1 -3.5 -44.3 -3.6 -45.15 -1.4 -45.25 -1.1 -44.8 0.15 -42.75 -1.25 -49.85 -0.45 -48.75 -0.05 -48.1 0.7 -46.9 0.85 -46.7 1.9 -44.5 0.35 -43.95 1.4 -40.15 Q-0.1 -37.8 -5.4 -33.9 L-5.55 -34.0 Q-6.8 -34.95 -7.45 -35.85 -7.45 -35.05 -5.95 -34.15 L-5.85 -34.1 -5.55 -33.95 -5.45 -33.85 Q-2.6 -31.75 0.8 -30.75 L0.65 -30.4 0.65 -30.35 1.2 -29.6 1.5 -30.5 1.55 -30.55 2.15 -31.35 4.1 -33.55 5.15 -34.65 6.0 -35.45 5.15 -34.65 5.7 -36.15 M17.1 -4.75 L16.95 -3.75 15.75 6.1 15.7 6.1 Q15.05 6.0 14.45 6.95 L14.35 7.15 13.55 6.95 13.0 6.75 10.7 5.5 Q10.5 1.55 9.9 -1.65 9.45 -4.0 9.65 -5.7 12.2 -2.9 17.1 -4.75 M14.75 12.7 L14.35 15.55 13.65 16.1 13.55 16.65 13.5 16.65 11.1 13.1 10.25 12.2 10.15 12.1 9.2 11.2 6.2 10.9 7.4 8.3 8.4 6.2 9.15 6.0 10.25 5.95 10.15 6.25 Q9.8 7.15 10.0 8.15 10.15 8.9 10.75 9.2 L10.95 9.3 11.15 9.4 11.25 9.9 11.35 10.05 Q11.85 10.85 12.6 11.15 L13.05 11.3 13.55 11.3 13.6 11.6 Q13.85 12.6 14.5 12.7 L14.75 12.7 M15.95 56.9 Q16.4 57.35 16.35 57.9 L16.2 58.4 14.5 59.3 Q15.85 68.4 10.35 67.25 7.2 67.25 7.9 59.2 L7.2 58.85 6.95 58.7 Q5.7 57.35 6.85 56.4 L6.9 56.35 6.85 56.3 6.85 56.05 6.85 55.3 6.8 54.15 Q6.4 44.65 3.95 37.75 L2.6 34.55 4.35 22.6 12.15 32.7 10.25 37.0 12.7 40.95 11.0 43.6 12.5 58.4 13.0 58.35 14.3 58.05 15.35 57.4 15.95 56.9 M-1.85 54.4 L-1.5 55.1 -1.75 55.85 Q-4.75 57.1 -7.35 56.5 L-16.0 60.75 Q-19.25 61.4 -19.85 58.9 L-19.8 58.8 Q-18.65 56.4 -14.75 54.25 -13.55 53.65 -11.45 53.35 L-10.8 52.55 -10.75 52.5 -10.8 52.45 -10.75 52.2 -10.65 51.5 -10.6 50.45 Q-9.75 40.05 -12.15 32.55 L-12.5 31.4 -9.45 20.45 -2.9 31.1 -5.25 34.85 -3.25 38.95 -5.25 41.2 -5.4 55.25 -4.9 55.3 -4.85 55.3 Q-3.45 55.35 -2.1 54.55 L-1.85 54.4 M3.6 -42.2 L3.45 -43.95 3.55 -44.0 3.9 -44.15 4.15 -44.25 4.25 -44.3 4.85 -44.25 4.95 -44.2 5.25 -43.7 5.4 -43.05 5.4 -42.8 5.4 -42.75 5.3 -41.85 5.3 -41.7 Q5.15 -42.6 4.25 -42.95 L3.85 -42.5 3.65 -42.2 3.6 -42.2 M2.65 -25.35 Q1.55 -26.15 1.25 -27.2 0.85 -28.25 1.2 -29.6 0.85 -28.25 1.25 -27.2 1.55 -26.15 2.65 -25.35 L1.5 -24.85 Q-1.05 -23.95 -3.7 -23.55 L-3.85 -23.55 Q-11.45 -22.9 -13.3 -25.35 L-12.6 -24.3 -12.55 -24.25 -12.5 -24.15 -12.2 -23.95 Q-10.7 -23.3 -9.0 -22.7 L-5.95 -22.9 -5.9 -22.9 -3.7 -23.0 -0.15 -23.8 Q1.45 -24.35 3.1 -25.05 L2.65 -25.35 M4.2 -24.5 L3.1 -25.05 3.25 -24.05 3.3 -23.65 Q3.6 -22.95 4.0 -23.7 L4.25 -24.3 4.3 -24.5 4.3 -24.45 4.3 -24.5 4.2 -24.5 M4.0 -23.7 L5.9 -23.15 4.0 -23.7 M0.95 -7.15 L0.85 -5.05 0.75 -3.0 0.7 -0.9 0.65 0.15 0.75 0.15 1.45 8.6 1.7 11.9 2.05 16.7 0.95 16.7 -0.05 16.7 Q-5.55 16.4 -10.6 13.8 L-13.35 12.2 -12.8 8.2 -11.8 0.8 -11.2 -3.95 -11.1 -4.7 -11.15 -5.4 Q-11.35 -7.8 -10.9 -9.45 L-10.75 -10.05 -10.65 -10.45 -10.6 -10.45 -10.35 -10.35 -9.5 -9.95 Q-5.25 -8.2 -0.4 -8.55 0.85 -8.35 0.95 -7.75 L0.95 -7.15 M1.7 11.9 L0.55 11.9 -0.55 11.9 Q-5.65 11.65 -10.5 9.35 L-12.8 8.2 -10.5 9.35 Q-5.65 11.65 -0.55 11.9 L0.55 11.9 1.7 11.9 M6.9 56.35 L7.85 57.25 8.75 57.85 Q10.2 58.55 12.5 58.4 10.2 58.55 8.75 57.85 L7.85 57.25 6.9 56.35 M7.9 59.2 Q11.05 60.75 14.5 59.3 11.05 60.75 7.9 59.2 M-3.7 -46.3 L-4.0 -49.25 -3.7 -48.8 -3.45 -48.45 -2.9 -47.7 -2.3 -46.7 -1.55 -45.5 -3.65 -45.65 -3.7 -46.3 M-3.8 -41.0 L-3.75 -41.0 -1.9 -41.2 Q-2.15 -44.15 -4.35 -44.2 -4.95 -43.1 -5.1 -41.4 L-3.95 -41.05 -3.9 -41.0 -3.75 -41.0 -3.8 -41.0 M-8.5 -42.85 L-7.9 -42.45 Q-7.75 -43.25 -7.75 -44.0 L-7.75 -44.2 -7.8 -45.45 Q-8.95 -46.75 -9.4 -44.3 L-9.4 -44.2 -9.4 -44.15 -8.95 -43.3 -8.6 -42.9 -8.5 -42.85 M-8.0 -40.6 L-7.6 -41.8 Q-7.5 -42.7 -7.75 -44.0 -7.5 -42.7 -7.6 -41.8 L-8.0 -40.6 Q-8.1 -39.6 -7.1 -39.95 L-8.0 -40.6 M-4.2 -37.1 L-5.15 -37.3 -5.2 -37.3 Q-6.65 -37.75 -7.55 -38.4 -6.65 -37.75 -5.2 -37.3 L-5.15 -37.3 -4.2 -37.1 M-10.55 -33.5 Q-11.3 -32.9 -11.4 -31.8 L-11.45 -31.2 -11.3 -29.45 Q-9.95 -27.5 -7.15 -26.9 L-5.95 -26.75 -2.2 -26.6 1.25 -27.2 -2.2 -26.6 -5.95 -26.75 -7.15 -26.9 Q-9.95 -27.5 -11.3 -29.45 L-11.45 -31.2 -11.4 -31.8 Q-11.3 -32.9 -10.55 -33.5 M-7.55 -35.0 L-7.5 -35.0 Q-8.1 -31.5 -5.95 -30.7 -5.4 -30.45 -4.7 -30.35 -2.05 -30.05 0.65 -30.4 -2.05 -30.05 -4.7 -30.35 -5.4 -30.45 -5.95 -30.7 -8.1 -31.5 -7.5 -35.0 L-7.55 -35.0 M-12.6 -22.35 L-11.7 -21.45 Q-8.9 -20.6 -5.95 -20.65 -3.15 -20.6 -0.45 -22.05 L3.25 -24.05 -0.45 -22.05 Q-3.15 -20.6 -5.95 -20.65 -8.9 -20.6 -11.7 -21.45 L-12.6 -22.35 M-4.2 -5.6 L-2.2 -2.9 -0.15 -5.3 -2.15 -8.05 -4.2 -5.6 M-2.15 -5.45 L-3.75 -5.55 -2.1 -7.55 -2.15 -5.45 M-10.75 52.5 L-10.15 53.2 -9.9 53.5 Q-8.55 55.0 -5.4 55.25 -8.55 55.0 -9.9 53.5 L-10.15 53.2 -10.75 52.5 M-11.45 53.35 Q-11.55 53.9 -10.95 54.7 -9.25 56.1 -7.35 56.5 -9.25 56.1 -10.95 54.7 -11.55 53.9 -11.45 53.35" fill="#d0a997" fill-rule="evenodd" stroke="none"/>
    <path d="M4.5 -39.95 L4.45 -39.95 3.9 -39.55 3.85 -38.0 3.85 -35.65 3.95 -34.8 4.1 -33.55 2.15 -31.35 1.55 -30.55 1.5 -30.5 1.2 -29.6 0.65 -30.35 0.65 -30.4 0.8 -30.75 Q-2.6 -31.75 -5.45 -33.85 L-5.4 -33.9 Q-0.1 -37.8 1.4 -40.15 L0.35 -43.95 1.9 -44.5 Q2.9 -42.1 3.55 -39.25 L3.55 -39.3 3.6 -39.35 3.55 -39.35 3.6 -39.75 3.65 -40.8 3.7 -40.9 3.75 -41.0 3.65 -40.95 3.65 -41.25 3.65 -41.3 3.6 -42.05 3.65 -42.2 3.85 -42.5 4.25 -42.95 Q5.15 -42.6 5.3 -41.7 L5.25 -41.45 5.3 -41.55 5.3 -41.25 5.05 -40.85 4.5 -39.95 M17.6 -36.8 Q21.8 -33.45 22.05 -30.9 L19.5 -30.95 Q18.1 -30.7 16.6 -29.85 16.8 -31.25 15.45 -31.6 14.1 -31.9 13.45 -30.55 13.95 -31.05 14.35 -30.75 15.65 -29.45 14.2 -28.2 L14.1 -28.15 13.45 -27.6 7.2 -27.0 6.95 -27.0 5.15 -26.8 5.0 -26.85 Q4.5 -27.05 4.15 -27.3 3.25 -27.9 3.2 -28.8 L3.65 -29.2 Q6.0 -31.45 8.35 -33.05 13.1 -36.35 17.6 -36.8 M22.9 -29.3 Q24.3 -24.95 24.8 -21.45 21.8 -21.3 19.4 -22.45 17.05 -23.65 15.25 -26.1 17.5 -27.95 19.45 -28.7 21.3 -29.45 22.9 -29.3 M19.4 -20.0 L19.35 -14.7 18.0 -15.0 16.1 -14.65 15.65 -14.5 14.45 -14.15 15.7 -13.75 16.0 -8.85 16.1 -8.7 Q17.2 -7.05 17.1 -4.75 12.2 -2.9 9.65 -5.7 9.8 -6.85 10.2 -7.65 L10.4 -8.0 Q10.1 -9.05 10.1 -10.9 L10.15 -13.05 10.1 -13.85 10.0 -14.8 9.3 -14.85 9.0 -14.8 7.45 -14.35 6.2 -14.4 5.9 -23.15 5.9 -24.0 6.2 -23.95 12.85 -24.65 13.3 -24.05 Q14.45 -22.6 16.1 -21.5 17.55 -20.6 19.4 -20.0 M13.5 16.65 L11.2 15.95 13.05 24.7 13.0 29.0 15.35 31.05 Q13.6 41.55 15.75 55.75 L15.85 56.1 15.95 56.9 15.35 57.4 14.3 58.05 13.0 58.35 12.5 58.4 11.0 43.6 12.7 40.95 10.25 37.0 12.15 32.7 4.35 22.6 2.6 34.55 1.3 32.1 1.65 27.8 1.15 26.25 1.1 26.1 1.0 18.0 0.95 16.7 2.05 16.7 1.7 11.9 1.45 8.6 2.3 8.25 3.2 8.0 5.35 7.75 Q6.45 7.8 7.4 8.3 L6.2 10.9 9.2 11.2 10.15 12.1 10.25 12.2 11.1 13.1 13.5 16.65 M16.35 57.9 Q17.0 58.4 17.1 59.0 17.7 64.95 16.4 66.7 L15.0 68.45 Q11.05 71.8 7.45 68.35 L7.05 67.75 Q6.25 66.2 6.0 60.5 6.45 59.5 7.2 58.85 L7.9 59.2 Q7.2 67.25 10.35 67.25 15.85 68.4 14.5 59.3 L16.2 58.4 16.35 57.9 M-1.35 38.7 Q-2.2 45.3 -1.9 53.3 L-1.85 53.6 -1.85 54.4 -2.1 54.55 Q-3.45 55.35 -4.85 55.3 L-4.9 55.3 -5.4 55.25 -5.25 41.2 -3.25 38.95 -5.25 34.85 -2.9 31.1 -9.45 20.45 -12.5 31.4 -12.85 30.5 -13.5 28.95 -10.7 15.45 -10.45 14.1 -10.65 14.1 -10.6 13.8 Q-5.55 16.4 -0.05 16.7 L0.9 23.6 Q0.8 27.3 0.2 29.75 L0.45 30.05 Q-0.75 34.0 -1.35 38.7 M-1.5 55.1 L-1.2 55.45 Q1.0 58.0 -1.05 62.15 L-5.1 62.2 -5.0 60.85 -15.4 62.8 -18.8 62.1 -19.15 62.0 -20.2 61.3 Q-20.8 60.3 -19.9 58.95 L-19.85 58.9 Q-19.25 61.4 -16.0 60.75 L-7.35 56.5 Q-4.75 57.1 -1.75 55.85 L-1.5 55.1 M-13.85 2.5 L-13.95 2.55 -14.05 2.65 -14.8 2.5 -15.2 2.8 -15.25 2.75 -18.1 -2.05 -17.4 -2.85 Q-16.3 -4.1 -17.65 -6.1 L-22.25 -11.95 Q-25.3 -15.65 -25.45 -17.65 -25.6 -18.9 -24.7 -20.2 -24.4 -20.9 -20.95 -23.9 L-18.8 -26.0 -17.85 -27.2 -16.7 -28.4 -16.6 -28.3 Q-16.5 -26.75 -15.0 -24.95 L-14.65 -24.55 -12.7 -22.45 -12.65 -22.3 -14.65 -22.1 -14.8 -22.0 -18.15 -18.9 -19.1 -17.8 Q-18.2 -16.8 -17.5 -15.45 L-14.05 -9.2 -12.85 -7.1 -12.35 -6.7 -11.15 -5.4 -11.1 -4.7 -11.2 -3.95 -11.8 0.8 -13.85 2.5 M-11.0 -43.85 L-10.55 -48.35 -12.35 -44.45 -11.0 -49.25 -14.3 -55.85 -10.7 -52.0 -10.9 -52.95 -11.2 -54.1 Q-12.35 -58.5 -14.25 -62.45 L-13.05 -60.65 -11.7 -57.5 -11.0 -55.45 -10.3 -53.2 -9.6 -50.45 -13.25 -54.35 -9.9 -47.7 -11.0 -43.85 M-10.25 -56.45 L-10.25 -56.55 -10.4 -57.65 -10.65 -59.25 Q-11.55 -65.1 -15.4 -71.1 L-11.35 -70.85 -10.3 -70.65 Q-3.25 -69.25 0.85 -64.15 L1.9 -62.75 1.8 -62.65 Q-2.7 -68.2 -7.8 -69.2 L-13.1 -70.35 Q-13.3 -70.5 -11.9 -66.3 -10.5 -62.2 -9.3 -55.15 L-9.4 -55.1 -10.2 -56.3 -10.25 -56.45 M-1.4 -45.25 L-3.6 -45.15 -3.5 -44.3 -3.8 -45.1 -4.95 -44.65 -3.95 -45.5 -6.15 -51.55 -6.05 -51.7 -5.8 -52.05 -3.7 -46.3 -3.65 -45.65 -3.6 -45.15 -3.65 -45.65 -1.55 -45.5 -1.4 -45.25 M-8.7 -47.5 Q-7.55 -47.3 -7.3 -45.55 -8.0 -46.8 -8.8 -47.2 L-8.7 -47.5 M3.65 -41.3 L3.75 -41.0 3.65 -41.3 M3.55 -39.25 L3.55 -39.2 3.55 -39.25 Q-0.6 -34.25 -5.4 -33.9 -0.6 -34.25 3.55 -39.25 M5.25 -41.45 L5.15 -41.1 5.05 -40.85 5.15 -41.1 5.25 -41.45 M3.6 -39.35 L3.9 -39.55 3.6 -39.35 M2.65 -25.35 L3.1 -25.05 4.2 -24.5 4.3 -24.45 4.3 -24.5 4.25 -24.3 4.0 -23.7 Q3.6 -22.95 3.3 -23.65 L3.25 -24.05 3.1 -25.05 Q1.45 -24.35 -0.15 -23.8 L-3.7 -23.0 -5.9 -22.9 -5.95 -22.9 -9.0 -22.7 Q-10.7 -23.3 -12.2 -23.95 L-12.5 -24.15 -12.55 -24.25 -12.6 -24.3 -13.3 -25.35 Q-11.45 -22.9 -3.85 -23.55 L-3.7 -23.55 Q-1.05 -23.95 1.5 -24.85 L2.65 -25.35 M2.15 -31.35 Q1.15 -31.45 0.8 -30.75 1.15 -31.45 2.15 -31.35 M14.45 -14.15 L13.95 -14.05 12.15 -14.15 11.65 -14.35 11.4 -14.5 11.75 -17.7 11.4 -14.5 11.65 -14.35 12.15 -14.15 13.95 -14.05 14.45 -14.15 M7.3 -18.45 L7.45 -14.35 7.3 -18.45 M-5.8 -14.2 L6.05 -13.6 8.85 -13.8 Q8.75 -12.8 8.1 -11.35 7.4 -9.75 6.95 -7.6 L6.1 -7.2 5.7 -7.05 0.95 -7.15 0.95 -7.75 Q0.85 -8.35 -0.4 -8.55 -5.25 -8.2 -9.5 -9.95 L-10.35 -10.35 -10.3 -10.4 -9.4 -10.25 -10.3 -10.4 -10.6 -10.45 -10.65 -10.45 -10.65 -10.55 -10.9 -15.6 Q-8.55 -14.7 -5.85 -14.2 L-5.8 -14.2 M13.55 6.95 L14.35 7.15 Q13.9 7.95 13.6 9.05 L13.55 9.2 Q13.4 10.35 13.55 11.25 L13.55 11.3 13.05 11.3 12.1 9.65 12.95 9.0 12.2 7.55 13.55 6.95 M11.4 -14.5 L10.0 -14.8 11.4 -14.5 M11.15 9.4 L10.8 7.75 11.85 9.7 11.9 9.85 11.35 10.05 11.25 9.9 11.15 9.4 M10.7 7.4 L10.65 7.05 10.45 5.95 10.4 5.65 10.5 5.6 11.55 7.4 10.85 7.35 10.75 7.4 10.7 7.4 M11.2 15.95 L8.2 15.05 8.1 15.05 8.1 13.75 10.15 12.1 8.1 13.75 8.1 15.05 8.2 15.05 11.2 15.95 M13.0 29.0 L12.6 28.65 2.6 16.15 1.65 27.8 2.6 16.15 12.6 28.65 13.0 29.0 M6.2 10.9 L8.1 13.75 6.2 10.9 M-3.95 -45.5 L-3.8 -45.1 -3.95 -45.5 M-3.95 -41.05 L-4.4 -41.4 -4.6 -42.5 -4.3 -43.55 Q-4.05 -44.0 -3.7 -43.95 -3.3 -44.0 -3.05 -43.55 -2.85 -43.1 -2.9 -42.5 -2.9 -41.85 -3.15 -41.4 -3.45 -41.0 -3.8 -41.0 L-3.9 -41.0 -3.95 -41.05 M-8.95 -43.3 L-9.1 -44.2 -8.85 -45.15 -8.35 -45.55 -7.9 -45.15 Q-7.75 -44.75 -7.75 -44.2 -7.8 -43.7 -8.0 -43.3 L-8.5 -42.9 -8.6 -42.9 -8.95 -43.3 M-8.0 -44.2 L-8.0 -44.55 -8.05 -44.5 -8.05 -44.45 -8.3 -44.3 -8.6 -44.45 -8.65 -44.75 -8.6 -44.9 -8.7 -44.8 -8.85 -44.25 -8.75 -43.65 -8.45 -43.4 -8.15 -43.65 Q-8.0 -43.9 -8.0 -44.2 M-8.0 -40.6 L-7.1 -39.95 Q-8.1 -39.6 -8.0 -40.6 M-3.3 -42.7 L-3.6 -42.6 -3.95 -42.7 -4.1 -43.05 -4.0 -43.25 -4.15 -43.1 -4.35 -42.5 -4.2 -41.85 Q-4.05 -41.6 -3.8 -41.6 -3.55 -41.6 -3.35 -41.85 L-3.15 -42.5 -3.2 -42.85 -3.3 -42.7 M-18.95 -25.05 L-18.8 -26.0 -18.95 -25.05 M-15.1 -2.4 L-17.4 -2.85 -15.1 -2.4 M-4.2 -5.6 L-2.15 -8.05 -0.15 -5.3 -2.2 -2.9 -4.2 -5.6 M-2.15 -5.45 L-2.15 -3.4 -0.55 -5.4 -2.1 -7.55 -3.75 -5.55 -2.15 -5.45 M0.2 29.75 L-1.95 27.35 -10.45 14.1 -1.95 27.35 0.2 29.75" fill="#b18b7e" fill-rule="evenodd" stroke="none"/>
    <path d="M3.95 -34.8 L3.85 -37.15 Q5.7 -36.8 5.7 -36.15 L5.15 -34.65 4.1 -33.55 3.95 -34.8 M15.75 6.1 Q16.3 6.3 16.5 7.3 16.75 8.35 16.45 9.7 16.25 11.05 15.65 11.9 15.2 12.65 14.75 12.7 L14.5 12.7 Q13.85 12.6 13.6 11.6 L13.55 11.3 13.55 11.25 Q13.4 10.35 13.55 9.2 L13.6 9.05 Q13.9 7.95 14.35 7.15 L14.45 6.95 Q15.05 6.0 15.7 6.1 L15.75 6.1 M-5.55 -33.95 L-5.85 -34.1 -5.95 -34.15 Q-7.45 -35.05 -7.45 -35.85 -6.8 -34.95 -5.55 -34.0 L-5.55 -33.95 M10.25 5.95 L10.4 5.65 10.45 5.95 10.65 7.05 10.7 7.4 10.8 7.75 11.15 9.4 10.95 9.3 10.75 9.2 Q10.15 8.9 10.0 8.15 9.8 7.15 10.15 6.25 L10.25 5.95" fill="#703a2e" fill-rule="evenodd" stroke="none"/>
    <path d="M-10.7 15.45 L-10.65 14.1 -10.45 14.1 -10.7 15.45" fill="#7b554d" fill-rule="evenodd" stroke="none"/>
    <path d="M-16.7 -28.4 L-16.6 -28.55 -16.6 -28.3 -16.7 -28.4 M-12.65 -22.3 L-12.7 -22.45 -12.65 -22.3" fill="#6b4a43" fill-rule="evenodd" stroke="none"/>
    <path d="M15.65 -14.5 L15.7 -13.75 14.45 -14.15 15.65 -14.5 M3.95 37.75 Q2.45 37.05 1.05 38.0 -0.25 38.55 -1.35 38.7 -0.75 34.0 0.45 30.05 L0.2 29.75 Q0.8 27.3 0.9 23.6 L-0.05 16.7 0.95 16.7 1.0 18.0 1.1 26.1 1.15 26.25 1.65 27.8 1.3 32.1 2.6 34.55 3.95 37.75 M-12.15 32.55 L-13.3 33.25 -15.4 32.3 Q-13.9 17.7 -13.85 2.65 L-13.85 2.5 -11.8 0.8 -12.8 8.2 -13.35 12.2 -10.6 13.8 -10.65 14.1 -10.7 15.45 -13.5 28.95 -12.85 30.5 -12.5 31.4 -12.15 32.55 M9.3 -14.85 L10.0 -14.8 10.1 -13.85 8.85 -13.8 10.1 -13.85 10.15 -13.05 10.1 -10.9 8.8 -8.7 6.95 -7.6 8.8 -8.7 8.7 -8.6 Q9.35 -8.15 8.85 -7.55 L8.85 -7.5 8.4 -6.95 6.7 -5.45 5.65 -5.0 Q3.35 -4.3 0.85 -5.05 3.35 -4.3 5.65 -5.0 L6.7 -5.45 8.4 -6.95 Q9.2 -5.7 8.25 -4.05 8.45 -2.95 7.85 -1.85 L7.8 -1.85 7.45 -1.55 6.95 -1.25 6.5 -1.05 6.1 -0.9 3.15 -0.45 2.7 -0.5 0.7 -0.9 0.75 -3.0 0.85 -5.05 0.95 -7.15 5.7 -7.05 6.1 -7.2 6.95 -7.6 Q7.4 -9.75 8.1 -11.35 8.75 -12.8 8.85 -13.8 L9.3 -14.85 M-10.65 -10.45 L-10.75 -10.05 -10.9 -9.45 Q-11.35 -7.8 -11.15 -5.4 L-12.35 -6.7 -12.85 -7.1 -14.05 -9.2 -14.8 -22.0 -14.65 -22.1 -12.65 -22.3 -11.95 -20.55 -11.85 -20.3 -11.6 -19.8 -11.05 -18.9 -10.9 -15.6 -10.65 -10.55 -10.65 -10.45 M1.45 8.6 L0.75 0.15 0.65 0.15 0.7 -0.9 2.7 -0.5 3.15 -0.45 6.1 -0.9 6.5 -1.05 6.95 -1.25 7.45 -1.55 7.8 -1.85 Q8.3 -0.05 7.9 1.75 L8.1 2.25 9.15 6.0 8.4 6.2 7.4 8.3 Q6.45 7.8 5.35 7.75 L3.2 8.0 2.3 8.25 1.45 8.6 M0.75 -3.0 L3.0 -2.5 5.55 -2.75 6.25 -3.0 6.3 -3.05 6.55 -3.1 6.3 -3.05 6.25 -3.0 5.55 -2.75 3.0 -2.5 0.75 -3.0 M6.75 -3.2 L8.25 -4.05 6.75 -3.2 6.6 -3.15 6.55 -3.1 6.6 -3.1 6.75 -3.2 M10.7 5.5 L13.0 6.75 13.55 6.95 12.2 7.55 12.95 9.0 12.1 9.65 13.05 11.3 12.6 11.15 Q11.85 10.85 11.35 10.05 L11.9 9.85 11.85 9.7 10.8 7.75 10.7 7.4 10.85 7.35 11.55 7.4 10.5 5.6 10.4 5.55 10.35 5.3 10.6 5.45 10.7 5.5 M1.05 38.0 L1.15 26.25 1.05 38.0 M-2.1 -7.55 L-0.55 -5.4 -2.15 -3.4 -2.15 -5.45 -2.1 -7.55 M-12.85 30.5 L-13.3 33.25 -12.85 30.5" fill="#92655a" fill-rule="evenodd" stroke="none"/>
    <path d="M-3.8 -41.0 Q-3.45 -41.0 -3.15 -41.4 -2.9 -41.85 -2.9 -42.5 -2.85 -43.1 -3.05 -43.55 -3.3 -44.0 -3.7 -43.95 -4.05 -44.0 -4.3 -43.55 L-4.6 -42.5 -4.4 -41.4 -3.95 -41.05 -5.1 -41.4 Q-4.95 -43.1 -4.35 -44.2 -2.15 -44.15 -1.9 -41.2 L-3.75 -41.0 -3.8 -41.0 M-8.5 -42.9 L-8.0 -43.3 Q-7.8 -43.7 -7.75 -44.2 -7.75 -44.75 -7.9 -45.15 L-8.35 -45.55 -8.85 -45.15 -9.1 -44.2 -8.95 -43.3 -9.4 -44.15 -9.4 -44.3 Q-8.95 -46.75 -7.8 -45.45 L-7.75 -44.2 -7.75 -44.0 Q-7.75 -43.25 -7.9 -42.45 L-8.5 -42.85 -8.5 -42.9" fill="#e8d3cc" fill-rule="evenodd" stroke="none"/>
    <path d="M1.95 -62.7 L2.1 -62.45 2.65 -61.55 3.1 -60.65 3.45 -60.0 3.7 -59.35 4.8 -56.4 4.9 -57.35 4.95 -57.6 5.0 -59.75 5.0 -59.8 Q5.05 -64.7 3.85 -68.9 L4.85 -66.95 5.0 -66.5 5.35 -65.7 6.4 -62.25 6.9 -59.8 7.35 -55.55 7.45 -54.45 12.0 -62.95 8.6 -51.05 8.5 -50.7 8.1 -49.35 12.85 -55.1 12.3 -54.15 9.9 -49.7 9.55 -49.0 9.25 -48.45 Q7.8 -45.6 6.85 -43.15 L6.5 -42.2 5.3 -38.95 5.3 -40.65 4.5 -39.15 4.5 -39.9 4.5 -39.95 5.05 -40.85 5.3 -41.25 5.3 -41.55 5.3 -41.7 5.3 -41.85 5.4 -42.75 5.4 -42.8 5.4 -43.05 5.1 -44.05 4.95 -44.2 4.85 -44.25 4.25 -44.3 4.15 -44.25 3.9 -44.15 3.55 -44.0 3.45 -43.95 3.35 -44.4 3.3 -45.15 3.3 -45.2 Q2.75 -48.4 1.55 -51.7 L1.0 -53.05 1.55 -51.7 Q2.75 -48.4 3.3 -45.2 L3.3 -45.15 3.35 -44.4 3.45 -43.95 3.6 -42.2 3.6 -42.05 3.65 -41.3 3.65 -41.25 3.65 -40.95 3.65 -40.9 3.65 -40.8 3.6 -39.75 3.55 -39.35 3.55 -39.3 3.55 -39.25 Q2.9 -42.1 1.9 -44.5 L0.85 -46.7 0.7 -46.9 -0.05 -48.1 -0.45 -48.75 -1.25 -49.85 0.15 -42.75 -1.1 -44.8 -1.4 -45.25 -1.55 -45.5 -2.3 -46.7 -2.9 -47.7 -3.45 -48.45 -3.7 -48.8 -4.0 -49.25 -3.7 -46.3 -5.8 -52.05 -6.05 -51.7 -6.15 -51.55 -6.25 -51.8 -8.7 -47.5 -8.8 -47.2 -9.35 -46.0 -9.6 -45.35 -9.65 -45.25 -9.8 -44.8 -10.75 -42.05 -11.4 -39.75 -11.0 -43.85 -9.9 -47.7 -13.25 -54.35 -9.6 -50.45 -10.3 -53.2 -11.0 -55.45 -11.7 -57.5 -13.05 -60.65 -10.25 -56.45 -10.2 -56.3 -9.4 -55.1 -9.25 -54.9 -9.3 -55.15 Q-10.5 -62.2 -11.9 -66.3 -13.3 -70.5 -13.1 -70.35 L-7.8 -69.2 Q-2.7 -68.2 1.8 -62.65 L1.95 -62.7 M7.85 -52.45 Q7.45 -53.35 7.45 -54.45 7.45 -53.35 7.85 -52.45 M-8.0 -44.2 Q-8.0 -43.9 -8.15 -43.65 L-8.45 -43.4 -8.75 -43.65 -8.85 -44.25 -8.7 -44.8 -8.6 -44.9 -8.65 -44.75 -8.6 -44.45 -8.3 -44.3 -8.05 -44.45 -8.05 -44.5 -8.0 -44.55 -8.0 -44.2 M-3.3 -42.7 L-3.2 -42.85 -3.15 -42.5 -3.35 -41.85 Q-3.55 -41.6 -3.8 -41.6 -4.05 -41.6 -4.2 -41.85 L-4.35 -42.5 -4.15 -43.1 -4.0 -43.25 -4.1 -43.05 -3.95 -42.7 -3.6 -42.6 -3.3 -42.7" fill="#7c4632" fill-rule="evenodd" stroke="none"/>
    <path d="M1.95 -62.7 L2.1 -62.45 2.65 -61.55 3.1 -60.65 3.45 -60.0 3.7 -59.35 4.8 -56.4 4.9 -57.35 4.95 -57.6 5.0 -59.75 5.0 -59.8 Q5.05 -64.7 3.85 -68.9 L4.85 -66.95 5.0 -66.5 5.35 -65.7 6.4 -62.25 6.9 -59.8 7.35 -55.55 7.45 -54.45 12.0 -62.95 8.6 -51.05 M8.5 -50.7 L8.1 -49.35 12.85 -55.1 12.3 -54.15 9.9 -49.7 9.55 -49.0 9.25 -48.45 Q7.8 -45.6 6.85 -43.15 L6.5 -42.2 5.3 -38.95 5.3 -40.65 4.5 -39.15 4.5 -39.9 4.5 -39.95 4.45 -39.95 3.9 -39.55 3.85 -38.0 3.85 -35.65 3.95 -34.8 3.85 -37.15 Q5.7 -36.8 5.7 -36.15 L6.0 -35.45 Q9.8 -39.0 14.15 -41.1 L15.9 -40.55 Q17.6 -40.15 17.6 -36.8 21.8 -33.45 22.05 -30.9 23.45 -30.7 22.9 -29.3 24.3 -24.95 24.8 -21.45 25.9 -20.1 24.7 -19.05 21.75 -19.25 19.4 -20.0 L19.35 -14.7 18.0 -15.0 16.1 -14.65 15.65 -14.5 15.7 -13.75 16.0 -8.85 16.1 -8.7 Q17.2 -7.05 17.1 -4.75 L16.95 -3.75 15.75 6.1 M14.75 12.7 L14.35 15.55 13.65 16.1 13.55 16.65 13.55 16.7 13.5 16.65 11.2 15.95 13.05 24.7 13.0 29.0 15.35 31.05 Q13.6 41.55 15.75 55.75 L15.85 56.1 15.95 56.9 Q16.4 57.35 16.35 57.9 17.0 58.4 17.1 59.0 17.7 64.95 16.4 66.7 L15.0 68.45 Q11.05 71.8 7.45 68.35 L7.05 67.75 Q6.25 66.2 6.0 60.5 6.45 59.5 7.2 58.85 L6.95 58.7 Q5.7 57.35 6.85 56.4 L6.85 56.3 6.85 56.05 6.85 55.3 6.8 54.15 Q6.4 44.65 3.95 37.75 2.45 37.05 1.05 38.0 -0.25 38.55 -1.35 38.7 -2.2 45.3 -1.9 53.3 L-1.85 53.6 -1.85 54.4 -1.5 55.1 -1.2 55.45 Q1.0 58.0 -1.05 62.15 L-5.1 62.2 -5.0 60.85 -15.4 62.8 -18.8 62.1 -19.15 62.0 -20.2 61.3 Q-20.8 60.3 -19.9 58.95 L-19.85 58.85 -19.8 58.8 Q-18.65 56.4 -14.75 54.25 -13.55 53.65 -11.45 53.35 L-10.8 52.55 -10.8 52.45 -10.75 52.2 -10.65 51.5 -10.6 50.45 Q-9.75 40.05 -12.15 32.55 L-13.3 33.25 -15.4 32.3 Q-13.9 17.7 -13.85 2.65 L-13.85 2.5 -13.95 2.55 -14.05 2.65 -14.8 2.5 -15.2 2.8 -15.25 2.75 -18.1 -2.05 -17.4 -2.85 Q-16.3 -4.1 -17.65 -6.1 L-22.25 -11.95 Q-25.3 -15.65 -25.45 -17.65 -25.6 -18.9 -24.7 -20.2 -24.4 -20.9 -20.95 -23.9 L-18.8 -26.0 -17.85 -27.2 -16.7 -28.4 -16.6 -28.55 Q-16.65 -30.1 -15.8 -31.2 -14.95 -32.45 -14.0 -32.85 L-10.55 -33.5 -10.55 -33.55 Q-9.65 -34.8 -7.55 -35.0 L-7.45 -35.85 -7.9 -36.65 -8.65 -38.9 -9.35 -43.2 -9.5 -44.25 -9.6 -45.25 -9.6 -45.35 -9.65 -45.25 -9.8 -44.8 -10.75 -42.05 -11.4 -39.75 -11.0 -43.85 -10.55 -48.35 -12.35 -44.45 -11.0 -49.25 -14.3 -55.85 -10.7 -52.0 -10.9 -52.95 -11.2 -54.1 Q-12.35 -58.5 -14.25 -62.45 L-13.05 -60.65 -10.25 -56.45 -10.25 -56.55 -10.4 -57.65 -10.65 -59.25 Q-11.55 -65.1 -15.4 -71.1 L-11.35 -70.85 -10.3 -70.65 Q-3.25 -69.25 0.85 -64.15 L1.9 -62.75 1.95 -62.7 M-10.2 -56.3 L-10.25 -56.45 M3.45 -43.95 L3.35 -44.4 3.3 -45.15 3.3 -45.2 Q2.75 -48.4 1.55 -51.7 L1.0 -53.05 M7.45 -54.45 Q7.45 -53.35 7.85 -52.45 M1.9 -44.5 L0.85 -46.7 0.7 -46.9 -0.05 -48.1 -0.45 -48.75 -1.25 -49.85 0.15 -42.75 -1.1 -44.8 -1.4 -45.25 -3.6 -45.15 -3.5 -44.3 -3.8 -45.1 -4.95 -44.65 -3.95 -45.5 -6.15 -51.55 -6.25 -51.8 -8.7 -47.5 Q-7.55 -47.3 -7.3 -45.55 -8.0 -46.8 -8.8 -47.2 L-9.35 -46.0 -9.6 -45.35 M1.9 -44.5 Q2.9 -42.1 3.55 -39.25 L3.55 -39.3 3.55 -39.35 3.6 -39.75 3.65 -40.8 3.65 -40.9 3.65 -40.95 3.65 -41.25 3.65 -41.3 3.6 -42.05 3.6 -42.2 3.45 -43.95 3.55 -44.0 3.9 -44.15 4.15 -44.25 4.25 -44.3 4.85 -44.25 4.95 -44.2 5.1 -44.05 5.4 -43.05 5.4 -42.8 5.4 -42.75 5.3 -41.85 5.3 -41.7 5.3 -41.55 5.3 -41.25 5.05 -40.85 4.5 -39.95 M3.65 -42.2 L3.85 -42.5 4.25 -42.95 M5.3 -41.7 L5.25 -41.45 5.3 -41.55 M3.65 -42.2 L3.6 -42.05 M3.75 -41.0 L3.65 -41.3 M3.75 -41.0 L3.7 -40.9 3.65 -40.8 M3.55 -39.25 L3.55 -39.2 3.55 -39.25 Q-0.6 -34.25 -5.4 -33.9 L-5.55 -34.0 Q-6.8 -34.95 -7.45 -35.85 -7.45 -35.05 -5.95 -34.15 L-5.85 -34.1 -5.55 -33.95 -5.55 -34.0 M3.6 -39.35 L3.55 -39.3 M3.9 -39.55 L3.6 -39.35 M5.05 -40.85 L5.15 -41.1 5.25 -41.45 M5.4 -43.05 L5.25 -43.7 4.95 -44.2 M6.0 -35.45 L5.15 -34.65 4.1 -33.55 2.15 -31.35 1.55 -30.55 1.5 -30.5 1.2 -29.6 Q0.85 -28.25 1.25 -27.2 1.55 -26.15 2.65 -25.35 L3.1 -25.05 4.2 -24.5 4.3 -24.5 5.9 -24.0 6.2 -23.95 12.85 -24.65 13.3 -24.05 Q14.45 -22.6 16.1 -21.5 17.55 -20.6 19.4 -20.0 M5.7 -36.15 L5.15 -34.65 M4.1 -33.55 L3.95 -34.8 M17.6 -36.8 Q13.1 -36.35 8.35 -33.05 6.0 -31.45 3.65 -29.2 L3.2 -28.8 Q3.25 -27.9 4.15 -27.3 4.5 -27.05 5.0 -26.85 L5.15 -26.8 6.95 -27.0 7.2 -27.0 13.45 -27.6 14.1 -28.15 14.2 -28.2 Q15.65 -29.45 14.35 -30.75 13.95 -31.05 13.45 -30.55 14.1 -31.9 15.45 -31.6 16.8 -31.25 16.6 -29.85 18.1 -30.7 19.5 -30.95 L22.05 -30.9 M0.65 -30.35 L0.65 -30.4 0.8 -30.75 Q-2.6 -31.75 -5.45 -33.85 L-5.55 -33.95 M0.65 -30.35 L1.2 -29.6 M0.8 -30.75 Q1.15 -31.45 2.15 -31.35 M22.9 -29.3 Q21.3 -29.45 19.45 -28.7 17.5 -27.95 15.25 -26.1 17.05 -23.65 19.4 -22.45 21.8 -21.3 24.8 -21.45 M11.75 -17.7 L11.4 -14.5 11.65 -14.35 12.15 -14.15 13.95 -14.05 14.45 -14.15 15.65 -14.5 M5.9 -23.15 L5.9 -24.0 M4.3 -24.45 L4.2 -24.5 M3.1 -25.05 L3.25 -24.05 3.3 -23.65 Q3.6 -22.95 4.0 -23.7 L4.25 -24.3 4.3 -24.5 4.3 -24.45 M9.3 -14.85 L9.0 -14.8 7.45 -14.35 6.2 -14.4 5.9 -23.15 4.0 -23.7 M10.1 -13.85 L10.0 -14.8 9.3 -14.85 M8.85 -13.8 L10.1 -13.85 10.15 -13.05 10.1 -10.9 Q10.1 -9.05 10.4 -8.0 L10.2 -7.65 Q9.8 -6.85 9.65 -5.7 12.2 -2.9 17.1 -4.75 M7.45 -14.35 L7.3 -18.45 M-5.8 -14.2 L6.05 -13.6 8.85 -13.8 M6.95 -7.6 L8.8 -8.7 10.1 -10.9 M6.95 -7.6 L6.1 -7.2 5.7 -7.05 0.95 -7.15 0.85 -5.05 Q3.35 -4.3 5.65 -5.0 L6.7 -5.45 8.4 -6.95 8.85 -7.5 8.85 -7.55 Q9.35 -8.15 8.7 -8.6 L8.8 -8.7 M0.95 -7.15 L0.95 -7.75 Q0.85 -8.35 -0.4 -8.55 -5.25 -8.2 -9.5 -9.95 L-10.35 -10.35 -10.6 -10.45 -10.65 -10.45 -10.75 -10.05 -10.9 -9.45 Q-11.35 -7.8 -11.15 -5.4 L-11.1 -4.7 -11.2 -3.95 -11.8 0.8 -12.8 8.2 -10.5 9.35 Q-5.65 11.65 -0.55 11.9 L0.55 11.9 1.7 11.9 1.45 8.6 0.75 0.15 M0.65 0.15 L0.7 -0.9 0.75 -3.0 0.85 -5.05 M6.55 -3.1 L6.3 -3.05 6.25 -3.0 5.55 -2.75 3.0 -2.5 0.75 -3.0 M0.7 -0.9 L2.7 -0.5 3.15 -0.45 6.1 -0.9 6.5 -1.05 6.95 -1.25 7.45 -1.55 7.8 -1.85 7.85 -1.85 Q8.45 -2.95 8.25 -4.05 L6.75 -3.2 6.6 -3.15 6.55 -3.1 M9.65 -5.7 Q9.45 -4.0 9.9 -1.65 10.5 1.55 10.7 5.5 M8.25 -4.05 Q9.2 -5.7 8.4 -6.95 M10.0 -14.8 L11.4 -14.5 M10.75 9.2 L10.95 9.3 M10.7 7.4 L10.75 7.4 M10.25 12.2 L10.15 12.1 8.1 13.75 8.1 15.05 8.2 15.05 11.2 15.95 M7.8 -1.85 Q8.3 -0.05 7.9 1.75 L8.1 2.25 9.15 6.0 10.25 5.95 M9.15 6.0 L8.4 6.2 7.4 8.3 6.2 10.9 8.1 13.75 M0.95 16.7 L1.0 18.0 1.1 26.1 1.15 26.25 1.65 27.8 2.6 16.15 12.6 28.65 13.0 29.0 M1.7 11.9 L2.05 16.7 0.95 16.7 -0.05 16.7 0.9 23.6 Q0.8 27.3 0.2 29.75 L0.45 30.05 Q-0.75 34.0 -1.35 38.7 M2.6 34.55 L3.95 37.75 M2.6 34.55 L1.3 32.1 1.65 27.8 M1.15 26.25 L1.05 38.0 M15.95 56.9 L15.35 57.4 14.3 58.05 13.0 58.35 12.5 58.4 Q10.2 58.55 8.75 57.85 L7.85 57.25 6.9 56.35 6.85 56.4 M16.35 57.9 L16.2 58.4 14.5 59.3 Q11.05 60.75 7.9 59.2 L7.2 58.85 M6.9 56.35 L6.85 56.3 M-3.7 -46.3 L-4.0 -49.25 -3.7 -48.8 -3.45 -48.45 -2.9 -47.7 -2.3 -46.7 -1.55 -45.5 -1.4 -45.25 M-3.6 -45.15 L-3.65 -45.65 -3.7 -46.3 M-3.8 -45.1 L-3.95 -45.5 M-3.75 -41.0 L-1.9 -41.2 Q-2.15 -44.15 -4.35 -44.2 -4.95 -43.1 -5.1 -41.4 L-3.95 -41.05 -3.9 -41.0 -3.75 -41.0 M-3.65 -45.65 L-1.55 -45.5 M-8.8 -47.2 L-8.7 -47.5 M-8.5 -42.85 L-7.9 -42.45 Q-7.75 -43.25 -7.75 -44.0 L-7.75 -44.2 -7.8 -45.45 Q-8.95 -46.75 -9.4 -44.3 L-9.4 -44.2 -9.4 -44.15 -8.95 -43.3 -8.6 -42.9 -8.5 -42.85 M-7.75 -44.0 Q-7.5 -42.7 -7.6 -41.8 L-8.0 -40.6 Q-8.1 -39.6 -7.1 -39.95 M-7.55 -38.4 Q-6.65 -37.75 -5.2 -37.3 L-5.15 -37.3 -4.2 -37.1 M1.25 -27.2 L-2.2 -26.6 -5.95 -26.75 -7.15 -26.9 Q-9.95 -27.5 -11.3 -29.45 L-11.45 -31.2 -11.4 -31.8 Q-11.3 -32.9 -10.55 -33.5 M-18.8 -26.0 L-18.95 -25.05 M-16.6 -28.3 L-16.6 -28.55 M-12.7 -22.45 L-14.65 -24.55 -15.0 -24.95 Q-16.5 -26.75 -16.6 -28.3 M0.65 -30.4 Q-2.05 -30.05 -4.7 -30.35 -5.4 -30.45 -5.95 -30.7 -8.1 -31.5 -7.5 -35.0 L-7.55 -35.0 M3.1 -25.05 Q1.45 -24.35 -0.15 -23.8 L-3.7 -23.0 -5.9 -22.9 -5.95 -22.9 -9.0 -22.7 M-5.8 -14.2 L-5.85 -14.2 Q-8.55 -14.7 -10.9 -15.6 L-10.65 -10.55 -10.65 -10.45 M3.25 -24.05 L-0.45 -22.05 Q-3.15 -20.6 -5.95 -20.65 -8.9 -20.6 -11.7 -21.45 L-12.6 -22.35 -12.7 -22.45 -12.65 -22.3 -11.95 -20.55 -11.85 -20.3 -11.6 -19.8 -11.05 -18.9 -10.9 -15.6 M-14.65 -22.1 L-14.8 -22.0 -14.05 -9.2 -12.85 -7.1 -12.35 -6.7 -11.15 -5.4 M-14.8 -22.0 L-18.15 -18.9 -19.1 -17.8 Q-18.2 -16.8 -17.5 -15.45 L-14.05 -9.2 M-10.3 -10.4 L-10.6 -10.45 M-11.1 -4.7 L-11.2 -3.95 M-17.4 -2.85 L-15.1 -2.4 M-11.8 0.8 L-13.85 2.5 M-10.6 13.8 L-13.35 12.2 -12.8 8.2 M-10.7 15.45 L-10.65 14.1 -10.6 13.8 Q-5.55 16.4 -0.05 16.7 M-10.45 14.1 L-10.7 15.45 -13.5 28.95 -12.85 30.5 -12.5 31.4 -12.15 32.55 M-5.4 55.25 L-4.9 55.3 -4.85 55.3 Q-3.45 55.35 -2.1 54.55 L-1.85 54.4 M-10.45 14.1 L-1.95 27.35 0.2 29.75 M-13.3 33.25 L-12.85 30.5 M-5.4 55.25 Q-8.55 55.0 -9.9 53.5 L-10.15 53.2 -10.75 52.5 -10.8 52.55 M-1.5 55.1 L-1.75 55.85 Q-4.75 57.1 -7.35 56.5 -9.25 56.1 -10.95 54.7 -11.55 53.9 -11.45 53.35 M-10.75 52.5 L-10.8 52.45" fill="none" stroke="#6b4a43" stroke-linecap="round" stroke-linejoin="round" stroke-width="0.05"/>
  </g>
</svg>
