<?xml version="1.0" encoding="UTF-8" standalone="no"?>
<svg xmlns:xlink="http://www.w3.org/1999/xlink" height="134.95px" width="56.7px" xmlns="http://www.w3.org/2000/svg">
  <g transform="matrix(1.0, 0.0, 0.0, 1.0, 28.35, 67.45)">
    <path d="M-11.3 -50.6 L-11.3 -50.45 -11.35 -50.45 -11.3 -50.6" fill="#000033" fill-rule="evenodd" stroke="none"/>
    <path d="M20.25 -28.0 L20.2 -27.95 20.2 -28.0 20.25 -28.0 M-23.7 -23.1 L-23.7 -23.05 -23.75 -23.1 -23.7 -23.1" fill="#262707" fill-rule="evenodd" stroke="none"/>
    <path d="M-4.7 -48.05 L-4.65 -48.2 -3.85 -47.8 -3.95 -47.6 Q-4.3 -48.1 -4.7 -48.05 M-9.8 -46.9 L-9.85 -46.85 -9.95 -46.95 -9.8 -46.9 M-9.15 -46.4 L-9.05 -46.85 -9.1 -46.4 -9.15 -46.4" fill="#ffffff" fill-rule="evenodd" stroke="none"/>
    <path d="M4.75 -44.85 L4.75 -44.8 4.3 -43.0 3.35 -42.6 3.3 -42.3 3.3 -42.0 Q3.15 -40.7 3.3 -39.4 0.75 -38.7 -1.6 -38.5 L-1.8 -38.25 Q-3.1 -37.7 -4.35 -37.4 L-4.6 -37.3 -6.5 -37.0 -7.05 -37.0 -6.5 -37.0 Q-10.65 -33.0 -10.15 -27.25 L-10.2 -27.25 -14.2 -25.7 -15.95 -25.05 -16.1 -26.3 -16.05 -29.0 -16.1 -26.3 -15.95 -25.05 -15.9 -24.8 -16.7 -23.05 -17.2 -23.35 -20.75 -23.2 -23.7 -23.1 -23.75 -23.1 -25.1 -24.7 Q-25.6 -27.9 -23.2 -31.75 L-22.0 -30.6 Q-20.85 -29.6 -17.45 -28.15 L-16.55 -27.75 -16.05 -29.0 -15.9 -30.6 -15.55 -32.9 -15.2 -34.0 -15.15 -34.05 Q-14.45 -35.95 -13.0 -37.9 L-11.25 -38.25 -9.8 -38.6 -9.55 -38.65 -9.2 -38.7 -8.85 -37.95 Q-8.35 -37.55 -7.05 -37.0 -6.55 -37.2 -6.05 -37.5 L-4.7 -38.45 Q-3.0 -39.85 -1.25 -42.2 L-1.4 -40.55 0.9 -41.6 0.95 -41.6 1.45 -41.8 -1.6 -38.5 1.45 -41.8 0.95 -41.6 0.9 -41.6 -1.4 -40.55 -1.25 -42.2 -0.55 -48.75 -0.55 -48.85 -0.5 -49.2 -0.55 -49.25 -1.9 -50.2 -4.7 -52.1 -7.35 -49.85 -7.9 -49.35 -8.1 -49.6 -9.4 -51.15 -9.65 -52.05 -10.15 -52.05 -10.75 -52.8 -11.0 -51.9 -11.05 -51.9 -11.8 -51.8 -11.6 -51.75 -12.3 -51.55 -12.95 -56.4 Q1.9 -58.15 6.65 -52.8 L4.75 -44.85 M3.45 -38.2 L3.65 -37.45 4.5 -37.1 Q4.0 -36.35 3.85 -35.1 2.75 -32.4 4.9 -28.5 L6.4 -26.1 Q7.75 -24.2 9.2 -23.4 L10.65 -22.3 10.75 -22.35 13.3 -23.85 13.6 -24.05 16.0 -25.35 20.2 -28.0 20.2 -27.95 21.55 -26.4 Q23.85 -25.15 24.75 -24.05 23.25 -23.1 22.05 -21.75 L21.8 -21.5 17.0 -21.4 Q16.2 -21.15 16.4 -20.4 L16.65 -19.8 16.7 -19.65 21.85 -17.05 Q22.35 -15.3 23.45 -13.25 L23.9 -13.4 17.8 -6.35 16.75 -6.05 16.6 -5.95 Q16.15 -6.2 15.75 -6.6 L15.3 -7.1 Q14.4 -8.05 13.4 -9.6 L13.35 -9.7 Q14.65 -13.1 14.95 -15.95 15.1 -17.35 15.55 -18.35 13.8 -19.3 12.05 -21.0 L10.75 -22.35 12.05 -21.0 Q11.0 -19.55 9.5 -18.55 L8.2 -17.85 Q7.05 -12.75 8.45 -8.8 L6.8 -7.85 5.55 -7.4 2.25 -7.1 2.0 -17.45 0.55 -18.35 -0.7 -19.15 -0.35 -7.0 -0.6 -7.0 -1.5 -7.0 -2.05 -7.55 -2.6 -7.95 Q-3.1 -8.25 -3.65 -8.35 L-5.0 -8.5 -5.25 -8.45 -5.7 -8.4 Q-6.8 -8.15 -7.65 -7.5 L-8.25 -7.55 -8.85 -7.65 -9.55 -19.9 -11.3 -18.5 -10.95 -8.3 -12.25 -8.95 -12.8 -9.35 -12.7 -10.1 Q-12.15 -15.5 -12.25 -20.6 -6.3 -23.1 -0.9 -20.05 -6.3 -23.1 -12.25 -20.6 L-14.05 -22.2 -12.25 -22.95 -8.0 -24.7 2.7 -21.05 6.35 -22.7 Q6.15 -24.25 6.4 -26.1 L3.25 -24.8 -5.45 -27.2 Q-6.4 -33.55 -1.5 -37.4 L3.45 -38.2 M11.3 0.15 Q12.75 4.75 13.85 9.6 L6.6 9.8 4.65 0.25 3.8 -3.7 5.25 -4.05 5.25 -3.5 4.5 -2.4 4.6 -2.3 8.45 2.15 4.6 -2.3 4.5 -2.4 5.25 -3.5 5.25 -4.05 5.2 -6.95 7.75 -4.95 8.1 -3.65 8.1 -3.5 8.35 -2.2 8.45 2.15 8.5 2.2 8.95 1.75 9.85 1.7 11.3 0.15 M11.65 12.1 L11.75 12.65 11.75 12.85 12.85 19.9 12.65 22.95 10.65 22.25 Q10.0 20.8 8.7 19.7 6.7 18.85 4.8 19.95 3.15 21.4 2.55 23.35 L1.15 24.05 0.85 24.25 -0.15 20.7 0.35 12.45 0.2 3.4 0.2 2.35 1.25 -2.85 2.45 2.15 Q3.4 6.65 3.9 11.3 6.85 12.7 11.65 12.1 M12.25 25.5 L12.35 26.25 Q14.9 35.15 13.35 42.25 13.55 48.55 15.1 53.0 L14.7 53.65 Q13.05 55.85 11.3 54.55 L8.45 30.1 9.05 29.8 10.35 25.6 10.6 24.75 12.0 25.05 12.2 25.1 12.25 25.5 M15.1 53.9 Q15.65 54.3 15.8 54.8 17.3 61.65 16.2 63.65 L15.0 65.6 Q11.35 69.45 7.05 65.6 L6.6 64.9 Q5.55 63.2 5.45 55.15 L6.0 56.5 Q6.4 57.35 7.45 58.2 L7.65 58.35 Q8.7 58.9 10.6 57.65 14.4 59.5 15.0 55.15 L15.1 53.9 M5.45 53.95 L5.4 53.85 Q5.25 47.4 4.35 42.45 0.8 34.3 1.5 25.85 L1.5 25.8 2.05 25.6 2.95 25.3 3.3 26.0 5.2 30.05 8.8 55.05 Q7.35 56.2 5.8 54.4 L5.45 53.95 M-3.5 11.0 L-2.85 19.0 Q-3.85 23.35 -4.75 25.0 L-4.8 25.05 Q-3.6 31.25 -5.45 36.8 -6.9 40.85 -5.7 47.1 L-5.05 47.45 Q-1.65 49.55 -2.1 54.25 L-8.15 55.65 -8.95 53.55 -21.65 58.75 Q-23.35 57.75 -23.75 55.7 L-22.55 55.45 -15.3 46.95 -15.25 47.0 -14.3 48.8 -13.2 49.95 Q-12.0 50.85 -10.3 51.0 L-5.55 50.8 Q-5.0 50.2 -5.35 48.7 -10.0 49.6 -11.9 46.75 L-12.6 45.3 Q-13.55 32.05 -12.75 25.95 L-12.5 24.6 -11.9 24.0 -5.5 24.95 -4.9 24.6 Q-4.5 24.1 -5.25 23.45 L-10.45 20.6 Q-11.65 18.4 -13.4 16.35 -14.55 15.6 -15.3 15.5 L-14.8 10.95 -14.8 10.9 -14.75 10.75 -14.7 10.15 Q-11.6 10.6 -9.25 10.1 L-9.2 10.55 -3.5 11.0 M-16.9 7.6 Q-16.1 3.3 -14.9 -0.8 L-12.95 -7.05 -12.85 -6.6 -11.3 -5.4 -10.35 -4.9 -10.25 -0.95 -9.65 7.15 -9.75 7.85 -16.9 7.6 M-21.9 -12.2 L-24.6 -16.55 -24.4 -16.45 Q-23.75 -18.0 -23.5 -19.4 L-23.45 -19.45 -17.2 -21.8 -17.1 -21.9 Q-16.15 -20.95 -16.0 -18.65 L-15.4 -15.25 -16.75 -14.15 Q-18.05 -13.2 -19.75 -12.65 L-21.9 -12.2 M1.45 -41.8 L3.35 -42.6 1.45 -41.8 M15.15 -23.75 L13.75 -23.8 13.5 -23.8 13.3 -23.85 13.5 -23.8 13.75 -23.8 15.15 -23.75 M18.45 -24.9 Q20.5 -23.5 22.05 -21.75 20.5 -23.5 18.45 -24.9 M16.65 -19.8 Q15.95 -19.25 15.55 -18.35 15.95 -19.25 16.65 -19.8 M-0.9 -20.05 Q4.95 -16.85 8.2 -17.85 4.95 -16.85 -0.9 -20.05 M8.1 -3.65 L5.25 -3.5 8.1 -3.65 M12.65 -8.0 L12.7 -7.7 12.55 -7.75 12.6 -7.85 12.65 -8.0 M11.95 -5.0 Q12.15 -3.9 12.95 -3.15 11.65 -3.9 11.55 -5.6 L11.75 -6.0 12.05 -5.7 11.95 -5.2 11.95 -5.0 M-7.6 -55.8 L-8.2 -55.85 -8.3 -55.85 -8.5 -55.8 Q-9.1 -55.7 -9.5 -55.25 -10.05 -54.7 -10.0 -53.9 L-9.95 -53.75 -9.95 -53.7 Q-9.9 -53.15 -9.5 -52.75 L-9.4 -52.65 Q-8.8 -52.15 -8.05 -52.2 -7.3 -52.25 -6.75 -52.8 -6.25 -53.4 -6.25 -54.15 L-6.3 -54.5 -6.5 -54.9 -6.9 -55.4 -7.1 -55.6 -7.6 -55.8 M-4.7 -48.05 Q-4.3 -48.1 -3.95 -47.6 L-3.85 -47.8 -4.65 -48.2 -5.4 -48.3 Q-6.0 -47.15 -6.0 -45.3 L-4.85 -44.9 -5.25 -45.3 Q-5.55 -45.8 -5.55 -46.45 L-5.35 -47.6 Q-5.1 -48.1 -4.7 -48.05 M-5.15 -47.1 L-5.25 -46.5 -5.05 -45.75 -4.6 -45.5 -4.15 -45.75 Q-4.0 -46.05 -4.0 -46.45 L-4.05 -46.85 -4.15 -46.7 Q-4.3 -46.55 -4.5 -46.55 L-4.85 -46.7 -5.05 -47.1 -4.95 -47.3 -5.1 -47.15 -5.15 -47.1 M-4.6 -44.85 Q-4.2 -44.85 -3.9 -45.3 -3.65 -45.8 -3.7 -46.45 L-3.95 -47.6 -3.7 -46.45 Q-3.65 -45.8 -3.9 -45.3 -4.2 -44.85 -4.6 -44.85 L-4.85 -44.9 -4.6 -44.85 -2.5 -45.05 Q-2.85 -47.0 -3.85 -47.8 -2.85 -47.0 -2.5 -45.05 L-4.6 -44.85 M-10.2 -48.95 L-10.3 -48.35 -10.15 -47.75 -9.8 -47.45 -9.45 -47.75 -9.35 -48.35 -9.4 -48.7 -9.4 -48.65 -9.45 -48.6 Q-9.6 -48.45 -9.75 -48.45 L-10.0 -48.6 -10.15 -48.95 -10.1 -49.05 -10.2 -48.95 M-10.3 -47.35 L-10.55 -48.35 -10.4 -49.35 -9.85 -49.75 -9.35 -49.35 Q-9.15 -48.95 -9.1 -48.35 -9.1 -47.75 -9.25 -47.35 L-9.8 -46.9 -9.95 -46.95 -10.3 -47.35 M-8.35 -2.25 L-7.85 -1.75 Q-6.55 -0.7 -4.8 -0.8 -3.1 -0.9 -1.9 -2.05 -1.35 -2.6 -1.05 -3.25 L-0.95 -3.25 -1.85 3.0 -3.35 9.65 -7.8 9.25 -8.25 1.1 -8.3 -0.35 -8.35 -2.25 M-20.75 -23.2 Q-18.85 -25.35 -17.45 -28.15 -18.85 -25.35 -20.75 -23.2 M-5.7 47.1 L-5.4 48.5 -5.35 48.7 -5.4 48.5 -5.7 47.1 M-4.8 25.05 L-4.9 24.6 -4.8 25.05" fill="#b18b7e" fill-rule="evenodd" stroke="none"/>
    <path d="M-23.45 -22.5 L-23.45 -22.45 -23.5 -22.5 -23.45 -22.5 M-23.45 -19.45 L-23.5 -19.4 -23.5 -19.45 -23.45 -19.45" fill="#365b76" fill-rule="evenodd" stroke="none"/>
    <path d="M12.65 -8.05 L12.65 -8.0 12.6 -7.85 12.65 -8.05" fill="#d1ab86" fill-rule="evenodd" stroke="none"/>
    <path d="M13.15 -2.95 L13.1 -2.95 13.15 -3.0 13.15 -2.95" fill="#e0e0e0" fill-rule="evenodd" stroke="none"/>
    <path d="M12.35 25.15 L12.25 25.5 12.2 25.1 12.35 25.15" fill="#382510" fill-rule="evenodd" stroke="none"/>
    <path d="M0.1 31.3 L0.1 31.25 0.15 31.3 0.1 31.3" fill="#8e8e8e" fill-rule="evenodd" stroke="none"/>
    <path d="M5.4 54.9 L5.45 54.8 5.45 54.9 5.4 54.9 M-15.3 46.95 L-15.25 46.95 -15.25 47.0 -15.3 46.95 M-5.15 -47.1 L-5.1 -47.15 -4.95 -47.3 -5.05 -47.1 -5.15 -47.1 M-10.15 -48.95 L-10.2 -48.95 -10.1 -49.05 -10.15 -48.95" fill="#000000" fill-rule="evenodd" stroke="none"/>
    <path d="M7.65 58.35 L7.45 58.2 7.55 58.15 7.65 58.35" fill="#bec166" fill-rule="evenodd" stroke="none"/>
    <path d="M-11.6 -51.75 L-11.8 -51.8 -11.05 -51.9 -11.6 -51.75" fill="#503e53" fill-rule="evenodd" stroke="none"/>
    <path d="M-9.5 -52.75 Q-9.9 -53.15 -9.95 -53.7 L-9.95 -53.75 -9.9 -53.75 Q-9.85 -53.2 -9.45 -52.8 L-9.5 -52.75" fill="#760a3a" fill-rule="evenodd" stroke="none"/>
    <path d="M-8.1 -49.6 L-7.9 -49.35 -7.35 -49.85 -6.75 -49.0 -6.75 -48.85 -6.8 -48.75 -6.95 -48.7 -7.05 -48.8 -7.55 -49.55 -7.7 -49.45 -8.25 -48.8 -8.35 -48.8 -8.5 -48.8 -8.55 -48.95 -8.5 -49.1 -8.1 -49.6" fill="#634527" fill-rule="evenodd" stroke="none"/>
    <path d="M-9.25 -66.5 L-9.25 -66.9 -5.15 -64.0 -5.0 -63.9 0.5 -67.45 1.05 -63.0 4.85 -63.95 3.95 -61.9 1.05 -61.2 0.5 -65.65 -5.0 -62.1 -9.25 -65.1 -9.25 -66.5 M4.5 -61.3 L9.0 -60.1 7.55 -58.7 3.75 -59.7 4.5 -61.3 M7.35 -58.1 L9.0 -57.15 8.25 -57.15 7.05 -57.8 7.35 -58.1 M7.2 -56.7 L10.85 -51.5 9.6 -51.5 5.95 -56.75 7.2 -56.7 M7.6 -51.1 L8.85 -47.85 7.4 -48.65 6.45 -51.1 7.6 -51.1 M4.5 -37.1 Q5.2 -38.4 6.75 -38.55 6.15 -37.5 5.95 -36.5 L5.9 -36.45 Q5.05 -36.75 3.85 -35.1 4.0 -36.35 4.5 -37.1 M20.8 -35.4 Q23.2 -34.95 23.1 -32.05 22.4 -30.55 21.15 -28.9 20.5 -31.05 19.6 -32.05 18.75 -33.0 17.7 -33.0 L18.65 -33.7 20.8 -35.4 M24.75 -24.05 L25.25 -24.4 Q26.85 -24.7 27.45 -23.75 28.35 -20.7 28.35 -18.1 27.4 -15.85 26.0 -14.55 26.8 -16.55 25.5 -18.2 24.35 -19.7 21.5 -20.9 L21.45 -19.8 16.4 -20.4 Q16.2 -21.15 17.0 -21.4 L21.8 -21.5 22.05 -21.75 Q23.25 -23.1 24.75 -24.05 M13.55 -2.25 L11.3 0.15 9.85 1.7 8.95 1.75 8.5 2.2 8.45 2.15 8.35 -2.2 8.1 -3.5 8.1 -3.65 7.75 -4.95 5.2 -6.95 6.8 -7.85 8.45 -8.8 10.0 -9.65 Q11.1 -9.3 12.0 -8.6 L11.4 -7.45 Q11.2 -6.7 11.75 -6.0 L11.55 -5.6 Q11.65 -3.9 12.95 -3.15 12.15 -3.9 11.95 -5.0 L12.65 -4.9 12.5 -7.4 12.55 -7.75 12.7 -7.7 13.45 -7.3 13.2 -9.5 13.05 -9.5 13.2 -9.85 13.35 -9.7 13.4 -9.6 Q14.4 -8.05 15.3 -7.1 L15.75 -6.6 14.05 -6.8 14.15 -5.1 12.95 -4.95 13.15 -3.0 13.1 -2.95 13.15 -2.95 13.65 -2.65 13.55 -2.4 13.55 -2.25 M13.85 9.6 L14.25 11.65 11.65 12.1 Q6.85 12.7 3.9 11.3 3.4 6.65 2.45 2.15 L4.65 0.25 6.6 9.8 13.85 9.6 M12.65 22.95 L12.75 23.0 Q13.05 24.4 12.65 25.25 L12.35 25.15 12.2 25.1 12.0 25.05 10.6 24.75 10.35 25.6 8.0 26.4 5.8 26.5 4.65 26.35 3.3 26.0 2.95 25.3 2.05 25.6 1.5 25.8 1.0 25.95 Q0.25 24.8 0.85 24.25 L1.15 24.05 2.55 23.35 Q3.15 21.4 4.8 19.95 6.7 18.85 8.7 19.7 10.0 20.8 10.65 22.25 L12.65 22.95 M5.45 55.15 L5.4 54.95 5.4 54.9 5.45 54.9 5.45 54.8 5.45 53.95 5.8 54.4 Q7.35 56.2 8.8 55.05 L5.2 30.05 6.3 30.35 9.8 55.7 Q8.25 56.75 6.6 55.9 6.3 56.35 7.55 58.15 L7.45 58.2 Q6.4 57.35 6.0 56.5 L5.45 55.15 M0.2 2.35 L-1.65 11.15 -3.5 11.0 -9.2 10.55 -9.25 10.1 -9.65 7.15 -9.25 10.1 Q-11.6 10.6 -14.7 10.15 L-17.3 9.7 -16.9 7.6 -9.75 7.85 -9.65 7.15 -10.25 -0.95 -10.35 -4.9 -11.3 -5.4 -12.85 -6.6 -12.95 -7.05 -14.9 -0.8 -17.85 -3.95 -18.2 -5.95 -18.0 -5.6 -16.5 -6.05 Q-15.45 -6.5 -14.55 -7.3 L-16.75 -14.15 -15.4 -15.25 -15.35 -15.25 -14.4 -10.25 Q-14.0 -10.45 -13.55 -10.6 L-12.7 -10.1 -12.8 -9.35 -12.25 -8.95 -10.95 -8.3 -11.3 -18.5 -9.55 -19.9 -8.85 -7.65 -8.25 -7.55 -7.65 -7.5 -8.0 -7.2 Q-9.2 -6.05 -9.15 -4.4 -9.1 -3.15 -8.35 -2.25 L-8.3 -0.35 -8.25 1.1 -7.8 9.25 -3.35 9.65 -1.85 3.0 -0.95 -3.25 1.4 -3.4 1.25 -2.85 0.2 2.35 M-15.25 46.95 L-15.7 45.2 -15.9 43.65 -15.8 33.8 -15.65 25.3 -14.85 26.0 Q-15.25 40.25 -14.05 46.8 L-13.2 49.95 -14.3 48.8 -15.25 47.0 -15.25 46.95 M-17.15 23.6 Q-18.35 21.75 -18.7 19.45 -17.95 17.4 -16.0 15.6 L-15.3 15.5 Q-14.55 15.6 -13.4 16.35 -11.65 18.4 -10.45 20.6 L-10.35 21.2 -10.35 21.25 -10.35 21.2 -10.45 20.6 -5.25 23.45 Q-4.5 24.1 -4.9 24.6 L-10.6 22.1 -10.35 21.25 -15.45 21.0 Q-17.5 21.5 -17.15 23.6 M-26.3 -17.8 Q-27.45 -19.05 -28.3 -21.05 -28.45 -23.2 -28.0 -25.6 -27.6 -26.3 -26.4 -25.85 L-25.1 -24.7 -23.75 -23.1 -23.7 -23.05 -23.7 -23.1 -20.75 -23.2 -17.2 -23.35 -16.7 -23.05 Q-16.55 -22.8 -16.7 -22.45 L-23.35 -21.6 -23.4 -21.65 -23.45 -22.45 -23.45 -22.5 -23.5 -22.55 -23.7 -23.05 -23.5 -22.55 -23.45 -22.5 -23.5 -22.5 -23.6 -22.45 -24.9 -21.9 Q-27.45 -20.45 -26.3 -17.8 M-23.2 -31.75 L-24.35 -33.1 Q-25.0 -35.7 -22.95 -36.45 -22.7 -35.65 -21.15 -34.7 L-20.35 -34.25 Q-22.05 -32.85 -22.0 -30.6 L-23.2 -31.75 M-11.2 -41.55 L-10.3 -41.5 -10.4 -42.0 -11.55 -48.75 -11.55 -49.55 -11.35 -50.45 -11.3 -50.45 -11.3 -50.6 -11.1 -51.4 Q-10.15 -51.1 -9.45 -50.15 L-9.2 -49.7 -9.15 -49.65 -9.15 -49.7 -9.2 -49.95 -9.4 -51.15 -8.1 -49.6 -8.5 -49.1 -8.55 -48.95 -8.5 -48.8 -8.35 -48.8 -8.25 -48.8 -7.7 -49.45 -7.55 -49.55 -7.05 -48.8 -6.95 -48.7 -6.8 -48.75 -6.75 -48.85 -6.75 -49.0 -7.35 -49.85 -4.7 -52.1 -1.9 -50.2 -1.9 -49.95 -3.35 -50.95 Q-4.95 -50.2 -5.9 -49.25 L-6.35 -48.85 -6.1 -48.95 -1.95 -49.15 -2.0 -48.2 Q-1.25 -48.4 -0.8 -48.85 L-0.55 -48.75 -1.25 -42.2 Q-3.0 -39.85 -4.7 -38.45 L-6.05 -37.5 Q-6.55 -37.2 -7.05 -37.0 -8.35 -37.55 -8.85 -37.95 L-9.2 -38.7 -9.65 -39.65 -9.85 -40.05 -13.35 -40.35 -11.2 -41.55 M-13.6 -54.15 L-14.35 -54.6 -13.5 -56.05 -12.9 -55.4 -13.6 -54.15 M-13.8 -58.15 L-14.95 -59.35 -11.75 -60.9 -10.75 -59.6 -13.8 -58.15 M-11.15 -61.2 L-10.75 -61.4 -12.35 -63.4 -9.25 -62.35 -9.25 -60.6 -11.15 -61.2 M-6.5 -37.0 L-4.6 -37.3 Q-8.95 -32.4 -8.0 -24.7 L-12.25 -22.95 Q-13.95 -23.9 -14.2 -25.7 L-10.2 -27.25 -10.15 -27.25 Q-10.65 -33.0 -6.5 -37.0 M-5.7 -8.4 L-5.25 -8.45 -5.0 -8.5 -3.65 -8.35 -5.1 -7.0 -5.6 -7.1 -5.95 -7.1 -6.5 -7.0 -5.7 -8.4 M-2.6 -7.95 L-2.05 -7.55 -1.5 -7.0 -1.2 -6.5 -3.3 -5.9 -3.45 -6.0 -3.75 -6.35 -4.35 -6.8 -2.6 -7.95 M-0.35 -7.0 L-0.7 -19.15 0.55 -18.35 0.8 -7.0 -0.35 -7.0 M21.5 -20.9 L21.5 -20.95 21.65 -21.2 21.8 -21.5 21.65 -21.2 21.5 -20.95 21.5 -20.9 M-11.0 -51.9 L-10.75 -52.8 -10.15 -52.05 -11.0 -51.9 M-0.55 -49.25 L-0.5 -49.2 -0.55 -48.85 -0.7 -49.0 -0.55 -49.25 M10.6 24.75 L11.0 23.5 10.8 22.7 10.65 22.25 10.8 22.7 11.0 23.5 10.6 24.75 M2.55 23.35 L2.4 24.0 2.45 24.1 2.95 25.3 2.45 24.1 2.4 24.0 2.55 23.35 M-8.5 -55.8 L-8.3 -55.85 -8.2 -55.85 -7.6 -55.8 -8.2 -55.15 -8.45 -55.2 -8.6 -55.2 -8.85 -55.15 -8.5 -55.8 M-7.1 -55.6 L-6.9 -55.4 -6.5 -54.9 -7.4 -54.6 -7.45 -54.7 -7.6 -54.85 -7.9 -55.05 -7.1 -55.6 M-8.45 -54.35 L-8.6 -54.05 Q-8.7 -53.9 -8.9 -53.9 L-9.2 -54.0 -9.35 -54.3 -9.2 -54.6 -9.0 -54.75 -8.95 -54.75 -8.6 -54.65 -8.45 -54.35 M-9.05 -46.85 L-9.05 -48.15 -9.05 -48.35 -9.25 -49.65 Q-10.6 -51.1 -10.9 -48.4 L-10.9 -48.3 -10.3 -47.35 -9.95 -46.95 -9.85 -46.85 -9.15 -46.4 -9.1 -46.4 -9.05 -46.85 M-9.45 -43.45 L-9.15 -46.4 -9.45 -43.45 M-4.25 -40.5 L-7.2 -41.1 -10.4 -42.0 -7.2 -41.1 -4.25 -40.5 M-10.3 -41.5 L-10.2 -40.8 -9.85 -40.05 -10.2 -40.8 -10.3 -41.5 M-14.4 -10.25 L-14.0 -8.05 -14.55 -7.3 -14.0 -8.05 -14.4 -10.25 M-12.8 -9.35 L-12.95 -7.05 -12.8 -9.35 M-8.85 -7.65 L-10.35 -8.05 -10.95 -8.3 -10.35 -8.05 -8.85 -7.65 M-5.95 -4.7 Q-6.25 -4.35 -6.7 -4.35 L-7.0 -4.4 -7.35 -4.6 -7.7 -5.2 -7.35 -5.9 -7.3 -5.95 -6.85 -6.15 -6.7 -6.15 -6.0 -5.95 -5.65 -5.35 -5.95 -4.7 M-9.15 -4.4 L-10.35 -4.9 -9.15 -4.4" fill="#d0a997" fill-rule="evenodd" stroke="none"/>
    <path d="M-9.25 -65.1 L-5.0 -62.1 0.5 -65.65 1.05 -61.2 3.95 -61.9 3.75 -61.45 4.5 -61.3 3.75 -59.7 7.55 -58.7 7.05 -58.25 7.35 -58.1 7.05 -57.8 8.25 -57.15 6.9 -57.15 7.2 -56.7 5.95 -56.75 9.6 -51.5 7.4 -51.5 7.6 -51.1 6.45 -51.1 7.4 -48.65 6.7 -49.0 6.25 -47.45 4.75 -44.85 6.65 -52.8 Q1.9 -58.15 -12.95 -56.4 L-12.3 -51.55 -11.6 -51.75 -11.05 -51.9 -11.0 -51.9 -10.15 -52.05 -9.65 -52.05 -9.4 -51.15 -9.2 -49.95 -9.15 -49.7 -9.2 -49.7 -9.45 -50.15 Q-10.15 -51.1 -11.1 -51.4 L-11.3 -50.6 -11.35 -50.45 -11.55 -49.55 -11.85 -48.25 -12.25 -51.05 -12.75 -52.1 -13.05 -53.5 -13.0 -53.6 -12.95 -53.85 -13.6 -54.15 -12.9 -55.4 -13.5 -56.05 -12.9 -57.2 -13.8 -58.15 -10.75 -59.6 -11.75 -60.9 -11.15 -61.2 -9.25 -60.6 -9.25 -62.35 -9.25 -65.1 M3.3 -39.4 L3.45 -38.25 3.45 -38.2 -1.5 -37.4 -4.35 -37.4 Q-3.1 -37.7 -1.8 -38.25 L-1.6 -38.5 Q0.75 -38.7 3.3 -39.4 M6.75 -38.55 L7.35 -38.95 Q14.7 -43.2 20.8 -35.4 L18.65 -33.7 17.7 -33.0 17.7 -32.95 14.45 -30.65 Q12.5 -29.4 11.7 -29.2 10.5 -29.1 9.1 -29.85 5.75 -32.3 5.8 -35.2 L5.9 -36.45 5.95 -36.5 Q6.15 -37.5 6.75 -38.55 M17.8 -6.35 L18.5 -6.15 Q19.05 -5.65 18.75 -4.65 18.5 -3.5 17.55 -2.45 16.65 -1.35 15.6 -0.95 L14.0 -0.9 Q13.4 -1.3 13.55 -2.25 L13.55 -2.4 13.65 -2.65 13.7 -2.8 Q14.0 -3.65 14.7 -4.5 L14.85 -4.65 16.6 -5.95 16.75 -6.05 17.8 -6.35 M-22.95 -36.45 L-22.9 -36.45 Q-19.05 -44.45 -11.8 -41.8 L-11.2 -41.55 -13.35 -40.35 Q-15.7 -38.55 -17.7 -34.85 L-18.2 -33.95 Q-19.0 -33.55 -20.35 -34.25 L-21.15 -34.7 Q-22.7 -35.65 -22.95 -36.45 M8.0 -28.35 Q10.45 -27.55 12.6 -27.3 13.0 -27.15 12.8 -26.35 L11.35 -24.45 11.1 -24.2 10.7 -23.95 10.25 -24.25 7.55 -27.9 Q7.1 -28.65 8.0 -28.35 M12.0 -8.6 L12.5 -9.1 13.05 -9.5 12.65 -8.1 12.65 -8.05 12.6 -7.85 12.55 -7.75 12.5 -7.4 12.05 -5.7 11.75 -6.0 Q11.2 -6.7 11.4 -7.45 L12.0 -8.6 M-1.9 -50.2 L-0.55 -49.25 -0.7 -49.0 -0.55 -48.85 -0.55 -48.75 -0.8 -48.85 Q-1.25 -48.4 -2.0 -48.2 L-1.95 -49.15 -6.1 -48.95 -6.35 -48.85 -5.9 -49.25 Q-4.95 -50.2 -3.35 -50.95 L-1.9 -49.95 -1.9 -50.2 M-12.25 -51.05 L-12.3 -51.55 -12.25 -51.05 M-8.85 -55.15 L-8.6 -55.2 -8.45 -55.2 -8.2 -55.15 -7.9 -55.05 -7.6 -54.85 -7.45 -54.7 -7.4 -54.6 -7.3 -54.45 -7.15 -53.9 Q-7.15 -53.35 -7.5 -52.95 -7.9 -52.55 -8.5 -52.5 -9.05 -52.45 -9.45 -52.8 -9.85 -53.2 -9.9 -53.75 -9.95 -54.3 -9.55 -54.7 L-8.85 -55.15 M-8.45 -54.35 L-8.6 -54.65 -8.95 -54.75 -9.0 -54.75 -9.2 -54.6 -9.35 -54.3 -9.2 -54.0 -8.9 -53.9 Q-8.7 -53.9 -8.6 -54.05 L-8.45 -54.35 M-9.65 -39.65 L-9.2 -38.7 -9.55 -38.65 -9.8 -38.6 -11.25 -38.25 -9.65 -39.65 M-15.2 -34.0 L-15.55 -32.9 -16.85 -30.0 Q-17.2 -29.45 -17.55 -29.8 L-19.5 -31.5 Q-19.85 -32.15 -19.45 -32.35 -17.7 -32.95 -15.65 -34.05 L-15.5 -34.1 -15.2 -34.0 M-4.35 -6.8 L-3.75 -6.35 -3.45 -6.0 -3.3 -5.9 -3.1 -5.55 -2.8 -4.4 Q-2.75 -3.8 -3.0 -3.25 L-3.6 -2.4 Q-4.5 -1.55 -5.8 -1.45 -7.05 -1.35 -7.95 -2.15 L-8.35 -2.5 Q-8.9 -3.2 -8.95 -4.1 L-8.95 -4.3 Q-8.9 -5.35 -8.1 -6.1 L-7.15 -6.75 -6.5 -7.0 -5.95 -7.1 -5.6 -7.1 -5.1 -7.0 -4.35 -6.8 M-5.95 -4.7 L-5.65 -5.35 -6.0 -5.95 -6.7 -6.15 -6.85 -6.15 -7.3 -5.95 -7.35 -5.9 -7.7 -5.2 -7.35 -4.6 -7.0 -4.4 -6.7 -4.35 Q-6.25 -4.35 -5.95 -4.7" fill="#92655a" fill-rule="evenodd" stroke="none"/>
    <path d="M21.15 -28.9 L20.25 -28.0 20.2 -28.0 16.0 -25.35 13.6 -24.05 13.3 -23.85 10.75 -22.35 10.65 -22.3 9.2 -23.4 Q7.75 -24.2 6.4 -26.1 L4.9 -28.5 Q2.75 -32.4 3.85 -35.1 5.05 -36.75 5.9 -36.45 L5.8 -35.2 Q5.75 -32.3 9.1 -29.85 10.5 -29.1 11.7 -29.2 12.5 -29.4 14.45 -30.65 L17.7 -32.95 17.7 -33.0 Q18.75 -33.0 19.6 -32.05 20.5 -31.05 21.15 -28.9 M26.0 -14.55 Q25.05 -13.75 23.9 -13.4 L23.45 -13.25 Q22.35 -15.3 21.85 -17.05 L16.7 -19.65 16.65 -19.8 16.4 -20.4 21.45 -19.8 Q21.45 -18.55 21.85 -17.05 21.45 -18.55 21.45 -19.8 L21.5 -20.9 Q24.35 -19.7 25.5 -18.2 26.8 -16.55 26.0 -14.55 M15.1 53.0 L15.15 53.15 15.1 53.9 15.0 55.15 Q14.4 59.5 10.6 57.65 8.7 58.9 7.65 58.35 L7.55 58.15 Q6.3 56.35 6.6 55.9 8.25 56.75 9.8 55.7 L6.3 30.35 5.2 30.05 3.3 26.0 4.65 26.35 5.8 26.5 8.0 26.4 10.35 25.6 9.05 29.8 8.45 30.1 11.3 54.55 Q13.05 55.85 14.7 53.65 L15.1 53.0 M-15.65 25.3 L-17.15 23.6 Q-17.5 21.5 -15.45 21.0 L-10.35 21.25 -10.6 22.1 -4.9 24.6 -5.5 24.95 -11.9 24.0 -12.5 24.6 -12.75 25.95 Q-13.55 32.05 -12.6 45.3 L-11.9 46.75 Q-10.0 49.6 -5.35 48.7 -5.0 50.2 -5.55 50.8 L-10.3 51.0 Q-12.0 50.85 -13.2 49.95 L-14.05 46.8 Q-15.25 40.25 -14.85 26.0 L-15.65 25.3 M-18.2 -5.95 L-21.95 -12.2 -21.9 -12.2 -19.75 -12.65 Q-18.05 -13.2 -16.75 -14.15 L-14.55 -7.3 Q-15.45 -6.5 -16.5 -6.05 L-18.0 -5.6 -18.2 -5.95 M-24.6 -16.55 Q-25.55 -17.0 -26.3 -17.8 -27.45 -20.45 -24.9 -21.9 L-23.6 -22.45 -23.5 -22.5 -23.45 -22.45 -23.4 -21.65 -23.35 -21.6 -16.7 -22.45 -17.1 -21.9 -17.2 -21.8 -23.45 -19.45 -23.5 -19.45 -23.5 -19.4 Q-23.75 -18.0 -24.4 -16.45 L-24.6 -16.55 M-4.6 -37.3 L-4.35 -37.4 -1.5 -37.4 Q-6.4 -33.55 -5.45 -27.2 L3.25 -24.8 6.4 -26.1 Q6.15 -24.25 6.35 -22.7 L2.7 -21.05 -8.0 -24.7 Q-8.95 -32.4 -4.6 -37.3 M8.0 -28.35 Q7.1 -28.65 7.55 -27.9 L10.25 -24.25 10.7 -23.95 11.1 -24.2 11.35 -24.45 12.8 -26.35 Q13.0 -27.15 12.6 -27.3 10.45 -27.55 8.0 -28.35 M0.55 -18.35 L2.0 -17.45 2.25 -7.1 5.55 -7.4 6.8 -7.85 5.2 -6.95 5.25 -4.05 3.8 -3.7 4.65 0.25 2.45 2.15 1.25 -2.85 1.4 -3.4 3.8 -3.7 1.4 -3.4 -0.95 -3.25 -1.05 -3.25 Q-0.75 -4.0 -0.75 -4.9 L-0.85 -5.7 -1.2 -6.5 -1.5 -7.0 -0.6 -7.0 -0.35 -7.0 0.8 -7.0 0.55 -18.35 M2.25 -7.1 L0.8 -7.0 2.25 -7.1 M15.75 -6.6 Q16.15 -6.2 16.6 -5.95 L14.85 -4.65 14.7 -4.5 Q14.0 -3.65 13.7 -2.8 L13.65 -2.65 13.15 -2.95 13.15 -3.0 12.95 -4.95 14.15 -5.1 14.05 -6.8 15.75 -6.6 M13.05 -9.5 L13.2 -9.5 13.45 -7.3 12.7 -7.7 12.65 -8.0 12.65 -8.05 12.65 -8.1 13.05 -9.5 M12.5 -7.4 L12.65 -4.9 11.95 -5.0 11.95 -5.2 12.05 -5.7 12.5 -7.4 M8.45 30.1 L6.3 30.35 8.45 30.1 M-9.85 -40.05 L-9.65 -39.65 -11.25 -38.25 -13.0 -37.9 Q-14.45 -35.95 -15.15 -34.05 L-15.2 -34.0 -15.5 -34.1 -15.65 -34.05 Q-17.7 -32.95 -19.45 -32.35 -19.85 -32.15 -19.5 -31.5 L-17.55 -29.8 Q-17.2 -29.45 -16.85 -30.0 L-15.55 -32.9 -15.9 -30.6 -16.05 -29.0 -16.55 -27.75 -17.45 -28.15 Q-20.85 -29.6 -22.0 -30.6 -22.05 -32.85 -20.35 -34.25 -19.0 -33.55 -18.2 -33.95 L-17.7 -34.85 Q-15.7 -38.55 -13.35 -40.35 L-9.85 -40.05 M-15.95 -25.05 L-14.2 -25.7 Q-13.95 -23.9 -12.25 -22.95 L-14.05 -22.2 -14.5 -22.65 Q-15.55 -23.6 -15.9 -24.8 L-15.95 -25.05 M-23.5 -19.45 L-23.35 -20.75 -23.35 -21.6 -23.35 -20.75 -23.5 -19.45 M-10.6 22.1 L-11.3 23.3 -11.9 24.0 -11.3 23.3 -10.6 22.1 M-14.85 26.0 L-14.75 26.05 -12.5 24.6 -14.75 26.05 -14.85 26.0" fill="#cb9d8d" fill-rule="evenodd" stroke="none"/>
    <path d="M-7.65 -7.5 Q-6.8 -8.15 -5.7 -8.4 L-6.5 -7.0 -7.15 -6.75 -8.1 -6.1 Q-8.9 -5.35 -8.95 -4.3 L-8.95 -4.1 Q-8.9 -3.2 -8.35 -2.5 L-7.95 -2.15 Q-7.05 -1.35 -5.8 -1.45 -4.5 -1.55 -3.6 -2.4 L-3.0 -3.25 Q-2.75 -3.8 -2.8 -4.4 L-3.1 -5.55 -3.3 -5.9 -1.2 -6.5 -0.85 -5.7 -0.75 -4.9 Q-0.75 -4.0 -1.05 -3.25 -1.35 -2.6 -1.9 -2.05 -3.1 -0.9 -4.8 -0.8 -6.55 -0.7 -7.85 -1.75 L-8.35 -2.25 Q-9.1 -3.15 -9.15 -4.4 -9.2 -6.05 -8.0 -7.2 L-7.65 -7.5 M-3.65 -8.35 Q-3.1 -8.25 -2.6 -7.95 L-4.35 -6.8 -5.1 -7.0 -3.65 -8.35 M-8.5 -55.8 L-8.85 -55.15 -9.55 -54.7 Q-9.95 -54.3 -9.9 -53.75 L-9.95 -53.75 -10.0 -53.9 Q-10.05 -54.7 -9.5 -55.25 -9.1 -55.7 -8.5 -55.8 M-8.2 -55.15 L-7.6 -55.8 -7.1 -55.6 -7.9 -55.05 -8.2 -55.15 M-6.5 -54.9 L-6.3 -54.5 -6.25 -54.15 Q-6.25 -53.4 -6.75 -52.8 -7.3 -52.25 -8.05 -52.2 -8.8 -52.15 -9.4 -52.65 L-9.5 -52.75 -9.45 -52.8 Q-9.05 -52.45 -8.5 -52.5 -7.9 -52.55 -7.5 -52.95 -7.15 -53.35 -7.15 -53.9 L-7.3 -54.45 -7.4 -54.6 -6.5 -54.9" fill="#7c4632" fill-rule="evenodd" stroke="none"/>
    <path d="M-4.65 -48.2 L-4.7 -48.05 Q-5.1 -48.1 -5.35 -47.6 L-5.55 -46.45 Q-5.55 -45.8 -5.25 -45.3 L-4.85 -44.9 -6.0 -45.3 Q-6.0 -47.15 -5.4 -48.3 L-4.65 -48.2 M-10.3 -47.35 L-10.9 -48.3 -10.9 -48.4 Q-10.6 -51.1 -9.25 -49.65 L-9.05 -48.35 -9.05 -48.15 -9.05 -46.85 -9.15 -46.4 -9.85 -46.85 -9.8 -46.9 -9.25 -47.35 Q-9.1 -47.75 -9.1 -48.35 -9.15 -48.95 -9.35 -49.35 L-9.85 -49.75 -10.4 -49.35 -10.55 -48.35 -10.3 -47.35" fill="#e8d3cc" fill-rule="evenodd" stroke="none"/>
    <path d="M-9.2 -49.7 L-9.15 -49.7 -9.15 -49.65 -9.2 -49.7 M-5.05 -47.1 L-4.85 -46.7 -4.5 -46.55 Q-4.3 -46.55 -4.15 -46.7 L-4.05 -46.85 -4.0 -46.45 Q-4.0 -46.05 -4.15 -45.75 L-4.6 -45.5 -5.05 -45.75 -5.25 -46.5 -5.15 -47.1 -5.05 -47.1 M-10.15 -48.95 L-10.0 -48.6 -9.75 -48.45 Q-9.6 -48.45 -9.45 -48.6 L-9.4 -48.65 -9.4 -48.7 -9.35 -48.35 -9.45 -47.75 -9.8 -47.45 -10.15 -47.75 -10.3 -48.35 -10.2 -48.95 -10.15 -48.95" fill="#754738" fill-rule="evenodd" stroke="none"/>
    <path d="M3.95 -61.9 L4.85 -63.95 1.05 -63.0 0.5 -67.45 -5.0 -63.9 -5.15 -64.0 -9.25 -66.9 -9.25 -66.5 M3.95 -61.9 L3.75 -61.45 4.5 -61.3 9.0 -60.1 7.55 -58.7 7.05 -58.25 7.35 -58.1 9.0 -57.15 8.25 -57.15 6.9 -57.15 7.2 -56.7 10.85 -51.5 9.6 -51.5 7.4 -51.5 7.6 -51.1 8.85 -47.85 7.4 -48.65 6.7 -49.0 6.25 -47.45 4.75 -44.85 4.75 -44.8 4.3 -43.0 3.35 -42.6 3.3 -42.3 3.3 -42.0 Q3.15 -40.7 3.3 -39.4 L3.45 -38.25 3.45 -38.2 3.65 -37.45 4.5 -37.1 Q5.2 -38.4 6.75 -38.55 L7.35 -38.95 Q14.7 -43.2 20.8 -35.4 23.2 -34.95 23.1 -32.05 22.4 -30.55 21.15 -28.9 L20.25 -28.0 20.2 -28.0 16.0 -25.35 13.6 -24.05 13.3 -23.85 13.5 -23.8 13.75 -23.8 15.15 -23.75 M20.2 -27.95 L21.55 -26.4 Q23.85 -25.15 24.75 -24.05 L25.25 -24.4 Q26.85 -24.7 27.45 -23.75 28.35 -20.7 28.35 -18.1 27.4 -15.85 26.0 -14.55 25.05 -13.75 23.9 -13.4 L17.8 -6.35 M13.55 -2.25 L11.3 0.15 Q12.75 4.75 13.85 9.6 L14.25 11.65 11.65 12.1 11.75 12.65 11.75 12.85 12.85 19.9 12.65 22.95 12.75 23.0 Q13.05 24.4 12.65 25.25 L12.35 25.15 12.25 25.5 M12.35 26.25 Q14.9 35.15 13.35 42.25 13.55 48.55 15.1 53.0 L15.15 53.15 15.1 53.9 Q15.65 54.3 15.8 54.8 17.3 61.65 16.2 63.65 L15.0 65.6 Q11.35 69.45 7.05 65.6 L6.6 64.9 Q5.55 63.2 5.45 55.15 L5.4 54.95 5.4 54.9 5.45 54.8 5.45 53.95 5.4 53.85 Q5.25 47.4 4.35 42.45 0.8 34.3 1.5 25.85 L1.5 25.8 1.0 25.95 Q0.25 24.8 0.85 24.25 L-0.15 20.7 0.35 12.45 0.2 3.4 0.2 2.35 -1.65 11.15 -3.5 11.0 -2.85 19.0 Q-3.85 23.35 -4.75 25.0 L-4.8 25.05 Q-3.6 31.25 -5.45 36.8 -6.9 40.85 -5.7 47.1 M-15.3 46.95 L-15.25 46.95 -15.7 45.2 -15.9 43.65 -15.8 33.8 -15.65 25.3 -17.15 23.6 Q-18.35 21.75 -18.7 19.45 -17.95 17.4 -16.0 15.6 L-15.3 15.5 -14.8 10.95 M-14.8 10.9 L-14.75 10.75 -14.7 10.15 -17.3 9.7 -16.9 7.6 Q-16.1 3.3 -14.9 -0.8 L-17.85 -3.95 -18.2 -5.95 -21.95 -12.2 -21.9 -12.2 -24.6 -16.55 Q-25.55 -17.0 -26.3 -17.8 -27.45 -19.05 -28.3 -21.05 -28.45 -23.2 -28.0 -25.6 -27.6 -26.3 -26.4 -25.85 L-25.1 -24.7 Q-25.6 -27.9 -23.2 -31.75 L-24.35 -33.1 Q-25.0 -35.7 -22.95 -36.45 L-22.9 -36.45 Q-19.05 -44.45 -11.8 -41.8 L-11.2 -41.55 -10.3 -41.5 -10.4 -42.0 -11.55 -48.75 -11.55 -49.55 -11.85 -48.25 -12.25 -51.05 -12.3 -51.55 -12.95 -56.4 Q1.9 -58.15 6.65 -52.8 L4.75 -44.85 M-13.05 -53.5 L-13.0 -53.6 -12.95 -53.85 -13.6 -54.15 -14.35 -54.6 -13.5 -56.05 -12.9 -57.2 -13.8 -58.15 -14.95 -59.35 -11.75 -60.9 -11.15 -61.2 -10.75 -61.4 -12.35 -63.4 -9.25 -62.35 M-1.6 -38.5 L1.45 -41.8 0.95 -41.6 0.9 -41.6 -1.4 -40.55 -1.25 -42.2 -0.55 -48.75 -0.55 -48.85 -0.5 -49.2 -0.55 -49.25 -1.9 -50.2 -4.7 -52.1 -7.35 -49.85 -7.9 -49.35 -8.1 -49.6 -9.4 -51.15 M-7.05 -37.0 L-6.5 -37.0 -4.6 -37.3 -4.35 -37.4 Q-3.1 -37.7 -1.8 -38.25 L-1.6 -38.5 Q0.75 -38.7 3.3 -39.4 M3.35 -42.6 L1.45 -41.8 M6.75 -38.55 Q6.15 -37.5 5.95 -36.5 L5.9 -36.45 5.8 -35.2 Q5.75 -32.3 9.1 -29.85 10.5 -29.1 11.7 -29.2 12.5 -29.4 14.45 -30.65 L17.7 -32.95 17.7 -33.0 18.65 -33.7 20.8 -35.4 M4.5 -37.1 Q4.0 -36.35 3.85 -35.1 2.75 -32.4 4.9 -28.5 L6.4 -26.1 Q7.75 -24.2 9.2 -23.4 L10.65 -22.3 10.75 -22.35 13.3 -23.85 M8.0 -28.35 Q10.45 -27.55 12.6 -27.3 13.0 -27.15 12.8 -26.35 L11.35 -24.45 11.1 -24.2 10.7 -23.95 10.25 -24.25 7.55 -27.9 Q7.1 -28.65 8.0 -28.35 M-1.5 -37.4 L-4.35 -37.4 M16.4 -20.4 L16.65 -19.8 16.7 -19.65 21.85 -17.05 Q21.45 -18.55 21.45 -19.8 L21.5 -20.9 21.5 -20.95 21.65 -21.2 21.8 -21.5 22.05 -21.75 Q20.5 -23.5 18.45 -24.9 M16.4 -20.4 Q16.2 -21.15 17.0 -21.4 L21.8 -21.5 M10.75 -22.35 L12.05 -21.0 Q13.8 -19.3 15.55 -18.35 15.95 -19.25 16.65 -19.8 M13.35 -9.7 Q14.65 -13.1 14.95 -15.95 15.1 -17.35 15.55 -18.35 M2.25 -7.1 L5.55 -7.4 6.8 -7.85 8.45 -8.8 Q7.05 -12.75 8.2 -17.85 L9.5 -18.55 Q11.0 -19.55 12.05 -21.0 M-0.9 -20.05 Q-6.3 -23.1 -12.25 -20.6 -12.15 -15.5 -12.7 -10.1 L-12.8 -9.35 -12.25 -8.95 -10.95 -8.3 -10.35 -8.05 -8.85 -7.65 -8.25 -7.55 -7.65 -7.5 M-1.5 -7.0 L-0.6 -7.0 -0.35 -7.0 0.8 -7.0 2.25 -7.1 M8.45 -8.8 L10.0 -9.65 Q11.1 -9.3 12.0 -8.6 M6.8 -7.85 L5.2 -6.95 5.25 -4.05 3.8 -3.7 4.65 0.25 6.6 9.8 13.85 9.6 M8.1 -3.65 L8.1 -3.5 M8.45 2.15 L8.5 2.2 8.95 1.75 9.85 1.7 11.3 0.15 M8.45 2.15 L4.6 -2.3 4.5 -2.4 5.25 -3.5 5.25 -4.05 M3.8 -3.7 L1.4 -3.4 1.25 -2.85 2.45 2.15 Q3.4 6.65 3.9 11.3 6.85 12.7 11.65 12.1 M5.25 -3.5 L8.1 -3.65 M11.55 -5.6 L11.75 -6.0 M24.75 -24.05 Q23.25 -23.1 22.05 -21.75 M21.85 -17.05 Q22.35 -15.3 23.45 -13.25 L23.9 -13.4 M-11.6 -51.75 L-11.8 -51.8 -11.05 -51.9 M-11.0 -51.9 L-10.75 -52.8 -10.15 -52.05 M0.85 24.25 L1.15 24.05 2.55 23.35 Q3.15 21.4 4.8 19.95 6.7 18.85 8.7 19.7 10.0 20.8 10.65 22.25 L12.65 22.95 M2.95 25.3 L2.45 24.1 2.4 24.0 2.55 23.35 M10.65 22.25 L10.8 22.7 11.0 23.5 10.6 24.75 12.0 25.05 12.2 25.1 12.35 25.15 M10.6 24.75 L10.35 25.6 9.05 29.8 8.45 30.1 11.3 54.55 Q13.05 55.85 14.7 53.65 L15.1 53.0 M3.3 26.0 L5.2 30.05 6.3 30.35 8.45 30.1 M3.3 26.0 L2.95 25.3 2.05 25.6 1.5 25.8 M15.1 53.9 L15.0 55.15 Q14.4 59.5 10.6 57.65 8.7 58.9 7.65 58.35 L7.45 58.2 Q6.4 57.35 6.0 56.5 L5.45 55.15 M5.45 54.8 L5.45 54.9 5.4 54.9 M5.2 30.05 L8.8 55.05 Q7.35 56.2 5.8 54.4 L5.45 53.95 M1.25 -2.85 L0.2 2.35 M-11.3 -50.6 L-11.35 -50.45 -11.55 -49.55 M-11.1 -51.4 L-11.3 -50.6 M-9.15 -49.65 L-9.2 -49.7 M-3.85 -47.8 L-4.65 -48.2 -5.4 -48.3 Q-6.0 -47.15 -6.0 -45.3 L-4.85 -44.9 -4.6 -44.85 -2.5 -45.05 Q-2.85 -47.0 -3.85 -47.8 M-9.05 -46.85 L-9.05 -48.15 -9.05 -48.35 -9.25 -49.65 Q-10.6 -51.1 -10.9 -48.4 L-10.9 -48.3 -10.3 -47.35 -9.95 -46.95 -9.85 -46.85 -9.15 -46.4 -9.05 -46.85 -9.1 -46.4 M-9.15 -46.4 L-9.45 -43.45 M-9.65 -39.65 L-9.2 -38.7 -8.85 -37.95 Q-8.35 -37.55 -7.05 -37.0 M-9.55 -38.65 L-9.2 -38.7 M-9.8 -38.6 L-9.55 -38.65 M-9.85 -40.05 L-9.65 -39.65 -11.25 -38.25 -9.8 -38.6 M-10.4 -42.0 L-7.2 -41.1 -4.25 -40.5 M-11.2 -41.55 L-13.35 -40.35 Q-15.7 -38.55 -17.7 -34.85 L-18.2 -33.95 Q-19.0 -33.55 -20.35 -34.25 L-21.15 -34.7 Q-22.7 -35.65 -22.95 -36.45 M-9.85 -40.05 L-10.2 -40.8 -10.3 -41.5 M-11.25 -38.25 L-13.0 -37.9 Q-14.45 -35.95 -15.15 -34.05 L-15.2 -34.0 -15.55 -32.9 -15.9 -30.6 -16.05 -29.0 -16.1 -26.3 -15.95 -25.05 -15.9 -24.8 -16.7 -23.05 -17.2 -23.35 -20.75 -23.2 -23.7 -23.1 M-22.0 -30.6 Q-20.85 -29.6 -17.45 -28.15 L-16.55 -27.75 -16.05 -29.0 M-15.2 -34.0 L-15.5 -34.1 -15.65 -34.05 Q-17.7 -32.95 -19.45 -32.35 -19.85 -32.15 -19.5 -31.5 L-17.55 -29.8 Q-17.2 -29.45 -16.85 -30.0 L-15.55 -32.9 M-22.0 -30.6 L-23.2 -31.75 M-23.7 -23.05 L-23.5 -22.55 -23.45 -22.5 -23.45 -22.45 -23.4 -21.65 -23.35 -21.6 -23.35 -20.75 -23.5 -19.45 -23.5 -19.4 Q-23.75 -18.0 -24.4 -16.45 L-24.6 -16.55 M-16.7 -22.45 Q-16.55 -22.8 -16.7 -23.05 M-23.75 -23.1 L-23.7 -23.05 M-25.1 -24.7 L-23.75 -23.1 M-23.45 -19.45 L-17.2 -21.8 -17.1 -21.9 -16.7 -22.45 M-14.05 -22.2 L-14.5 -22.65 Q-15.55 -23.6 -15.9 -24.8 M-12.25 -20.6 L-14.05 -22.2 M-17.1 -21.9 Q-16.15 -20.95 -16.0 -18.65 L-15.4 -15.25 -15.35 -15.25 -14.4 -10.25 Q-14.0 -10.45 -13.55 -10.6 L-12.7 -10.1 M-15.4 -15.25 L-16.75 -14.15 Q-18.05 -13.2 -19.75 -12.65 L-21.9 -12.2 M-14.55 -7.3 L-14.0 -8.05 -14.4 -10.25 M-16.9 7.6 L-9.75 7.85 -9.65 7.15 -10.25 -0.95 -10.35 -4.9 -11.3 -5.4 -12.85 -6.6 -12.95 -7.05 -14.9 -0.8 M-12.95 -7.05 L-12.8 -9.35 M-18.2 -5.95 L-18.0 -5.6 -16.5 -6.05 Q-15.45 -6.5 -14.55 -7.3 M-8.35 -2.25 L-8.3 -0.35 -8.25 1.1 -7.8 9.25 -3.35 9.65 -1.85 3.0 -0.95 -3.25 -1.05 -3.25 M-10.35 -4.9 L-9.15 -4.4 M-17.45 -28.15 Q-18.85 -25.35 -20.75 -23.2 M-9.25 10.1 L-9.2 10.55 -3.5 11.0 M-9.65 7.15 L-9.25 10.1 Q-11.6 10.6 -14.7 10.15 M-10.35 21.25 L-10.35 21.2 -10.45 20.6 Q-11.65 18.4 -13.4 16.35 -14.55 15.6 -15.3 15.5 M-4.9 24.6 L-5.5 24.95 -11.9 24.0 -12.5 24.6 -14.75 26.05 -14.85 26.0 -15.65 25.3 M-11.9 24.0 L-11.3 23.3 -10.6 22.1 -10.35 21.25 M-4.9 24.6 Q-4.5 24.1 -5.25 23.45 L-10.45 20.6 M-4.9 24.6 L-4.8 25.05 M-15.25 46.95 L-15.25 47.0 M-0.95 -3.25 L1.4 -3.4 M-1.5 -37.4 L3.45 -38.2" fill="none" stroke="#6b4a43" stroke-linecap="round" stroke-linejoin="round" stroke-width="0.05"/>
    <path d="M-5.7 47.1 L-5.05 47.45 Q-1.65 49.55 -2.1 54.25 L-8.15 55.65 -8.95 53.55 -21.65 58.75 Q-23.35 57.75 -23.75 55.7 L-22.55 55.45 -15.3 46.95 -15.25 47.0 -14.3 48.8 -13.2 49.95 Q-12.0 50.85 -10.3 51.0 L-5.55 50.8 Q-5.0 50.2 -5.35 48.7 L-5.4 48.5 -5.7 47.1 M8.2 -17.85 Q4.95 -16.85 -0.9 -20.05 M-12.5 24.6 L-12.75 25.95 Q-13.55 32.05 -12.6 45.3 L-11.9 46.75 Q-10.0 49.6 -5.35 48.7" fill="none" stroke="#703a2e" stroke-linecap="round" stroke-linejoin="round" stroke-width="0.05"/>
  </g>
</svg>
