<?xml version="1.0" encoding="UTF-8" standalone="no"?>
<svg xmlns:xlink="http://www.w3.org/1999/xlink" height="22.7px" width="30.8px" xmlns="http://www.w3.org/2000/svg">
  <g transform="matrix(1.0, 0.0, 0.0, 1.0, 5.15, 12.15)">
    <path d="M21.15 -3.25 L21.05 -3.2 21.0 -3.15 20.75 -3.05 20.7 -3.0 20.65 -3.0 20.05 -3.45 19.8 -3.6 19.75 -3.65 19.35 -3.85 19.1 -3.9 18.9 -3.95 18.8 -4.0 18.65 -4.0 18.4 -4.05 18.05 -4.0 17.75 -3.95 17.5 -3.85 17.25 -3.75 17.2 -3.7 16.85 -3.45 Q18.7 -2.85 19.75 -0.85 L19.8 -0.8 20.05 -0.25 20.15 -0.05 19.95 -0.15 19.7 -0.3 19.25 -0.55 19.0 -0.6 18.8 -0.65 18.7 -0.7 18.55 -0.7 17.65 -0.65 17.4 -0.55 17.15 -0.45 17.1 -0.4 16.75 -0.15 17.3 0.05 Q18.45 0.6 19.25 1.75 L19.65 2.45 19.95 3.05 20.25 3.8 20.25 3.95 20.4 4.35 20.45 4.6 20.55 5.0 20.2 4.75 20.0 4.65 19.65 4.6 19.5 4.6 19.15 4.25 18.45 3.7 18.35 3.7 17.85 3.5 17.65 3.5 17.5 3.5 16.95 3.55 17.1 3.65 18.2 5.0 18.3 5.15 18.8 6.1 18.85 6.55 18.8 7.0 15.1 4.95 15.05 5.0 15.1 5.1 15.15 5.2 15.2 5.4 15.2 5.45 15.3 5.65 15.4 6.15 15.4 6.2 15.4 6.4 15.25 7.75 15.25 7.8 15.05 7.5 15.0 7.45 14.45 6.8 13.4 6.1 13.3 6.05 12.65 5.85 12.6 5.95 12.5 5.85 12.4 5.8 11.6 5.45 11.5 5.45 11.4 6.1 11.45 6.7 11.5 7.0 11.75 7.9 12.0 8.45 11.9 8.35 11.85 8.25 11.6 8.0 11.35 7.75 10.75 6.8 10.5 6.4 10.25 5.75 10.15 5.55 9.75 3.45 9.75 1.2 9.75 0.45 9.95 -0.7 Q10.0 -5.5 11.4 -8.15 L11.7 -8.7 Q12.55 -10.1 13.85 -10.75 L14.4 -11.05 14.95 -11.25 16.4 -10.9 16.5 -10.9 16.8 -10.8 17.3 -10.65 17.6 -10.55 17.5 -10.45 16.45 -9.85 14.95 -8.8 14.9 -8.75 14.6 -8.4 14.4 -8.25 14.4 -8.2 14.25 -8.1 15.65 -7.8 16.15 -7.65 16.6 -7.45 17.15 -7.2 Q19.0 -6.35 20.25 -4.75 L20.85 -3.8 21.15 -3.25 M22.45 1.25 L22.35 1.2 22.4 1.15 22.45 1.25 M13.45 9.45 L13.5 9.55 13.45 9.5 13.4 9.5 13.45 9.45" fill="#fb8b1c" fill-rule="evenodd" stroke="none"/>
    <path d="M14.95 -11.25 L15.95 -11.45 16.05 -11.45 16.3 -11.45 16.5 -11.45 17.35 -11.45 18.35 -11.35 20.0 -11.0 20.1 -11.0 21.2 -10.65 18.6 -8.9 18.0 -8.35 18.0 -8.3 17.85 -8.2 19.25 -7.9 19.75 -7.75 Q20.75 -7.4 21.6 -6.85 24.65 -5.0 25.65 -0.75 L24.4 -2.1 24.2 -2.3 24.15 -2.3 23.85 -2.55 23.55 -2.75 Q23.4 -2.85 23.3 -2.9 L22.85 -3.15 22.4 -3.25 22.3 -3.3 22.15 -3.3 21.55 -3.3 21.25 -3.25 21.15 -3.25 20.85 -3.8 20.25 -4.75 Q19.0 -6.35 17.15 -7.2 L16.6 -7.45 16.15 -7.65 15.65 -7.8 14.25 -8.1 14.4 -8.2 14.4 -8.25 14.6 -8.4 14.9 -8.75 14.95 -8.8 16.45 -9.85 17.5 -10.45 17.6 -10.55 17.3 -10.65 16.8 -10.8 16.5 -10.9 16.4 -10.9 14.95 -11.25 M20.7 -3.0 L20.6 -2.95 20.35 -2.75 20.95 -2.5 21.5 -2.2 21.55 -2.15 21.6 -2.15 22.05 -1.75 Q23.9 -0.05 24.4 4.0 L23.15 2.0 23.0 1.85 22.95 1.75 22.5 1.3 22.45 1.25 22.4 1.15 22.35 1.2 21.95 0.85 21.75 0.75 21.65 0.7 21.4 0.6 21.15 0.5 20.95 0.5 20.8 0.5 20.6 0.5 20.35 0.5 20.25 0.55 20.35 0.65 20.4 0.65 21.5 2.0 21.6 2.15 22.3 3.6 Q22.9 5.3 22.75 7.5 L21.75 5.5 21.7 5.45 21.6 5.35 21.3 5.15 20.95 5.0 20.75 5.0 20.6 5.0 20.55 5.0 20.2 5.1 20.15 5.1 19.95 5.2 19.9 5.2 20.05 5.5 20.3 6.15 20.35 6.4 Q20.6 7.35 20.5 8.4 L19.2 7.65 19.15 7.65 16.7 6.3 16.8 6.5 16.85 6.6 17.0 7.05 17.05 7.25 17.1 7.55 17.1 7.6 17.1 7.8 17.1 8.0 17.1 8.2 17.0 9.0 16.95 9.1 16.85 9.45 16.15 10.55 15.9 9.4 15.8 9.15 15.75 9.0 15.75 8.95 15.4 8.15 15.25 7.8 15.25 7.75 15.4 6.4 15.4 6.2 15.4 6.15 15.3 5.65 15.2 5.45 15.2 5.4 15.15 5.2 15.1 5.1 15.05 5.0 15.1 4.95 18.8 7.0 18.85 6.55 18.8 6.1 18.3 5.15 18.2 5.0 17.1 3.65 16.95 3.55 17.5 3.5 17.65 3.5 17.85 3.5 18.35 3.7 18.45 3.7 19.15 4.25 19.5 4.6 19.65 4.6 20.0 4.65 20.2 4.75 20.55 5.0 20.45 4.6 20.4 4.35 20.25 3.95 20.25 3.8 19.95 3.05 19.65 2.45 19.25 1.75 Q18.45 0.6 17.3 0.05 L16.75 -0.15 17.1 -0.4 17.15 -0.45 17.4 -0.55 17.65 -0.65 18.55 -0.7 18.7 -0.7 18.8 -0.65 19.0 -0.6 19.25 -0.55 19.7 -0.3 19.95 -0.15 20.15 -0.05 20.05 -0.25 19.8 -0.8 19.75 -0.85 Q18.7 -2.85 16.85 -3.45 L17.2 -3.7 17.25 -3.75 17.5 -3.85 17.75 -3.95 18.05 -4.0 18.4 -4.05 18.65 -4.0 18.8 -4.0 18.9 -3.95 19.1 -3.9 19.35 -3.85 19.75 -3.65 19.8 -3.6 20.05 -3.45 20.65 -3.0 20.7 -3.0 M12.6 5.95 L12.55 6.25 12.55 6.75 12.6 6.9 12.75 7.7 13.2 8.95 13.2 9.0 13.35 9.25 13.45 9.45 13.4 9.5 13.3 9.45 13.3 9.4 13.05 9.25 12.4 8.8 12.25 8.65 12.0 8.45 11.75 7.9 11.5 7.0 11.45 6.7 11.4 6.1 11.5 5.45 11.6 5.45 12.4 5.8 12.5 5.85 12.6 5.95 M16.8 6.5 L16.75 6.5 16.8 6.5" fill="#fdb875" fill-rule="evenodd" stroke="none"/>
    <path d="M14.95 -11.25 L15.95 -11.45 16.05 -11.45 16.3 -11.45 16.5 -11.45 17.35 -11.45 18.35 -11.35 20.0 -11.0 20.1 -11.0 21.2 -10.65 18.6 -8.9 18.0 -8.35 18.0 -8.3 17.85 -8.2 19.25 -7.9 19.75 -7.75 Q20.75 -7.4 21.6 -6.85 24.65 -5.0 25.65 -0.75 L24.4 -2.1 24.2 -2.3 24.15 -2.3 23.85 -2.55 23.55 -2.75 Q23.4 -2.85 23.3 -2.9 L22.85 -3.15 22.4 -3.25 22.3 -3.3 22.15 -3.3 21.55 -3.3 21.25 -3.25 21.15 -3.25 21.05 -3.2 21.0 -3.15 20.75 -3.05 20.7 -3.0 20.6 -2.95 20.35 -2.75 20.95 -2.5 21.5 -2.2 21.55 -2.15 21.6 -2.15 22.05 -1.75 Q23.9 -0.05 24.4 4.0 L23.15 2.0 23.0 1.85 22.95 1.75 22.5 1.3 22.45 1.25 22.35 1.2 21.95 0.85 21.75 0.75 21.65 0.7 21.4 0.6 21.15 0.5 20.95 0.5 20.8 0.5 20.6 0.5 20.35 0.5 20.25 0.55 20.35 0.65 20.4 0.65 21.5 2.0 21.6 2.15 22.3 3.6 Q22.9 5.3 22.75 7.5 L21.75 5.5 21.7 5.45 21.6 5.35 21.3 5.15 20.95 5.0 20.75 5.0 20.6 5.0 20.55 5.0 20.2 5.1 20.15 5.1 19.95 5.2 19.9 5.2 20.05 5.5 20.3 6.15 20.35 6.4 Q20.6 7.35 20.5 8.4 L19.2 7.65 19.15 7.65 16.7 6.3 16.8 6.5 16.85 6.6 17.0 7.05 17.05 7.25 17.1 7.55 17.1 7.6 17.1 7.8 17.1 8.0 17.1 8.2 17.0 9.0 16.95 9.1 16.85 9.45 16.15 10.55 15.9 9.4 15.8 9.15 15.75 9.0 15.75 8.95 15.4 8.15 15.25 7.8 15.05 7.5 15.0 7.45 14.45 6.8 13.4 6.1 13.3 6.05 12.65 5.85 12.6 5.95 12.55 6.25 12.55 6.75 12.6 6.9 12.75 7.7 13.2 8.95 13.2 9.0 13.35 9.25 13.45 9.45 13.5 9.55 13.45 9.5 13.4 9.5 13.3 9.45 13.3 9.4 13.05 9.25 12.4 8.8 12.25 8.65 12.0 8.45 11.9 8.35 11.85 8.25 11.6 8.0 11.35 7.75 10.75 6.8 10.5 6.4 10.25 5.75 10.15 5.55 9.75 3.45 9.75 1.2 9.75 0.45 9.95 -0.7 Q10.0 -5.5 11.4 -8.15 L11.7 -8.7 Q12.55 -10.1 13.85 -10.75 L14.4 -11.05 14.95 -11.25 M14.4 -8.25 L14.4 -8.2 M15.25 7.75 L15.25 7.8 M20.7 -3.0 L20.65 -3.0 M22.35 1.2 L22.4 1.15 22.45 1.25 M16.75 6.5 L16.8 6.5" fill="none" stroke="#ab5703" stroke-linecap="round" stroke-linejoin="round" stroke-width="0.05"/>
    <path d="M7.6 -10.15 Q9.05 -10.1 10.4 -8.7 L10.4 -8.65 10.5 -8.6 11.15 -7.9 Q11.95 -6.75 12.4 -4.25 11.95 -1.1 10.4 -0.25 10.65 -2.15 9.35 -3.05 9.8 -1.05 8.5 -0.05 L8.35 0.05 Q8.0 -0.25 6.8 -2.55 L5.8 -4.05 Q5.7 -1.45 5.3 -1.0 4.2 -3.3 1.65 -4.45 L1.9 -2.0 Q1.5 -3.55 0.1 -4.15 -1.15 -3.8 -1.2 -2.25 -1.8 -3.4 -1.65 -4.7 L-2.25 -4.85 -3.35 -3.85 -3.65 -3.55 -3.95 -3.25 -3.8 -3.6 -3.75 -3.85 -3.65 -4.1 -3.45 -4.65 -3.4 -4.7 -3.0 -5.5 -2.25 -6.45 Q-1.6 -9.05 3.35 -9.75 L5.8 -9.4 Q6.35 -9.75 5.35 -10.1 6.95 -10.4 8.55 -9.5 L7.6 -10.15" fill="#fdb875" fill-rule="evenodd" stroke="none"/>
    <path d="M7.6 -10.15 L8.55 -9.5 Q6.95 -10.4 5.35 -10.1 6.35 -9.75 5.8 -9.4 L3.35 -9.75 Q-1.6 -9.05 -2.25 -6.45 L-3.0 -5.5 -3.4 -4.7 -3.45 -4.65 -3.65 -4.1 -3.75 -3.85 -3.8 -3.6 -3.95 -3.25 -3.65 -3.55 -3.35 -3.85 -2.25 -4.85 -1.65 -4.7 Q-1.8 -3.4 -1.2 -2.25 -1.15 -3.8 0.1 -4.15 1.5 -3.55 1.9 -2.0 L1.65 -4.45 Q4.2 -3.3 5.3 -1.0 5.7 -1.45 5.8 -4.05 L6.8 -2.55 Q8.0 -0.25 8.35 0.05 L8.5 -0.05 Q9.8 -1.05 9.35 -3.05 10.65 -2.15 10.4 -0.25 11.95 -1.1 12.4 -4.25 11.95 -6.75 11.15 -7.9 L10.5 -8.6 10.4 -8.65 10.4 -8.7 Q9.05 -10.1 7.6 -10.15 M12.75 -6.7 L12.85 -6.4 Q13.45 -3.5 11.7 0.6 L11.05 2.4 9.3 5.15 Q9.95 3.8 9.9 2.5 9.5 1.05 7.6 1.85 6.5 3.5 7.05 7.65 L6.45 6.55 Q4.1 2.25 2.95 -2.35 3.2 0.65 2.4 2.25 1.8 -0.4 -0.05 -2.25 -1.05 -0.15 -0.75 2.1 L-1.9 0.85 -2.45 -0.5 Q-3.0 -1.5 -2.95 -2.75 -4.15 -1.35 -4.1 1.8 -6.55 -4.05 -3.35 -6.75 -1.35 -9.8 5.55 -10.95 8.7 -11.15 10.6 -9.8 11.75 -9.0 12.45 -7.55 L12.75 -6.7" fill="#fb8b1c" fill-rule="evenodd" stroke="none"/>
    <path d="M12.75 -6.7 L12.45 -7.55 Q11.75 -9.0 10.6 -9.8 8.7 -11.15 5.55 -10.95 -1.35 -9.8 -3.35 -6.75 -6.55 -4.05 -4.1 1.8 -4.15 -1.35 -2.95 -2.75 -3.0 -1.5 -2.45 -0.5 L-1.9 0.85 -0.75 2.1 Q-1.05 -0.15 -0.05 -2.25 1.8 -0.4 2.4 2.25 3.2 0.65 2.95 -2.35 4.1 2.25 6.45 6.55 L7.05 7.65 Q6.5 3.5 7.6 1.85 9.5 1.05 9.9 2.5 9.95 3.8 9.3 5.15 L11.05 2.4 11.7 0.6 Q13.45 -3.5 12.85 -6.4 L12.75 -6.7 Z" fill="none" stroke="#ab5703" stroke-linecap="round" stroke-linejoin="round" stroke-width="0.05"/>
    <path d="M7.75 1.95 Q7.9 -2.45 6.25 -4.95 L5.8 -5.25 9.65 -5.25 14.5 -5.25 Q14.0 -0.05 9.35 5.2 9.95 3.7 9.85 2.85 L9.7 2.35 Q9.25 1.0 7.75 1.95 M5.25 -11.6 L5.25 -7.6 5.25 -5.55 Q0.8 -8.15 -3.35 -7.0 -3.7 -7.8 -2.6 -8.25 L-2.5 -8.3 Q-0.35 -11.0 4.55 -11.35 L5.25 -11.6 M-2.5 -8.3 Q1.15 -9.4 5.25 -7.6 1.15 -9.4 -2.5 -8.3 M9.65 -5.25 Q10.3 -2.1 9.7 2.35 10.3 -2.1 9.65 -5.25" fill="#38c03f" fill-rule="evenodd" stroke="none"/>
    <path d="M7.75 1.95 Q7.9 -2.45 6.25 -4.95 L5.8 -5.25 M14.5 -5.25 Q14.0 -0.05 9.35 5.2 M5.25 -5.55 Q0.8 -8.15 -3.35 -7.0 -3.7 -7.8 -2.6 -8.25 L-2.5 -8.3 Q-0.35 -11.0 4.55 -11.35 L5.25 -11.6 M9.7 2.35 Q10.3 -2.1 9.65 -5.25 M5.25 -7.6 Q1.15 -9.4 -2.5 -8.3" fill="none" stroke="#426123" stroke-linecap="round" stroke-linejoin="round" stroke-width="0.05"/>
    <path d="M7.9 -9.25 Q9.15 -7.65 9.65 -5.25 9.15 -7.65 7.9 -9.25 M5.25 -5.55 L5.25 -7.6 5.25 -11.6 11.65 -11.85 13.4 -12.15 Q14.85 -8.7 14.5 -5.25 L9.65 -5.25 5.8 -5.25 5.25 -5.55 M6.15 -7.2 L5.25 -7.6 6.15 -7.2" fill="#38c03f" fill-rule="evenodd" stroke="none"/>
    <path d="M9.65 -5.25 Q9.15 -7.65 7.9 -9.25 M5.25 -11.6 L11.65 -11.85 13.4 -12.15 Q14.85 -8.7 14.5 -5.25 M5.8 -5.25 L5.25 -5.55 M5.25 -7.6 L6.15 -7.2" fill="none" stroke="#426123" stroke-linecap="round" stroke-linejoin="round" stroke-width="0.05"/>
  </g>
</svg>
