<?xml version="1.0" encoding="UTF-8" standalone="no"?>
<svg xmlns:xlink="http://www.w3.org/1999/xlink" height="16.6px" width="19.35px" xmlns="http://www.w3.org/2000/svg">
  <g transform="matrix(1.0, 0.0, 0.0, 1.0, 9.3, 8.8)">
    <path d="M8.5 -7.3 Q10.0 -5.8 10.05 -3.6 L9.95 0.7 Q9.5 3.85 6.9 6.35 L6.85 6.35 Q5.7 7.25 2.55 7.8 4.5 6.25 5.3 4.5 L5.35 3.9 5.0 3.4 4.4 3.2 -4.0 3.05 Q-6.15 3.05 -7.7 1.4 L-7.75 1.4 Q-9.2 0.1 -9.3 -3.6 L-9.3 -3.65 Q-9.3 -5.85 -7.75 -7.35 L-7.75 -7.4 Q-6.25 -8.8 -4.75 -8.8 L5.5 -8.8 Q7.1 -8.7 8.45 -7.35 L8.5 -7.3" fill="#ffffff" fill-rule="evenodd" stroke="none"/>
  </g>
</svg>
