<?xml version="1.0" encoding="UTF-8" standalone="no"?>
<svg xmlns:xlink="http://www.w3.org/1999/xlink" height="26.35px" width="246.0px" xmlns="http://www.w3.org/2000/svg">
  <g transform="matrix(1.0, 0.0, 0.0, 1.0, 126.2, 13.5)">
    <path d="M98.6 -12.9 L99.1 -12.9 Q109.2 -2.65 119.8 10.05 L-125.05 10.05 -125.3 10.4 -125.65 10.55 -126.0 10.45 -126.2 10.1 -126.05 9.75 Q-117.65 -0.3 -104.95 -12.9 L-104.9 -12.95 -104.55 -13.1 -10.05 -13.2 4.4 -13.3 99.1 -13.4 98.75 -13.25 98.6 -12.9 M-105.05 -12.6 L-105.05 -12.65 -105.1 -12.55 -105.05 -12.6" fill="#000000" fill-opacity="0.4509804" fill-rule="evenodd" stroke="none"/>
    <path d="M115.85 12.3 L4.15 12.3 4.15 -10.45 -9.85 -10.45 -9.85 -10.5 95.8 -10.65 Q105.55 -0.4 115.85 12.3" fill="url(#gradient0)" fill-rule="evenodd" stroke="none"/>
    <path d="M-9.85 -10.45 L4.15 -10.45 4.15 12.3 -121.7 12.3 Q-113.6 2.3 -101.35 -10.3 L-101.3 -10.35 -9.85 -10.45" fill="url(#gradient1)" fill-rule="evenodd" stroke="none"/>
    <path d="M115.85 12.3 Q105.55 -0.4 95.8 -10.65 M-121.7 12.3 Q-113.6 2.3 -101.35 -10.3 L-101.3 -10.35" fill="none" stroke="#be6b6b" stroke-linecap="round" stroke-linejoin="round" stroke-width="1.0"/>
    <path d="M-9.85 -10.45 L4.15 -10.45 M-101.3 -10.35 L-9.85 -10.45" fill="none" stroke="#cc8c8c" stroke-linecap="round" stroke-linejoin="round" stroke-width="1.0"/>
    <path d="M95.8 -10.65 L-9.85 -10.5" fill="none" stroke="#cc8c8c" stroke-linecap="round" stroke-linejoin="round" stroke-width="1.0"/>
    <path d="M108.15 -1.0 L107.4 -1.6 Q107.15 -2.05 107.35 -2.5 107.5 -2.95 107.95 -3.1 L108.95 -3.05 Q109.45 -2.9 109.65 -2.45 109.9 -2.0 109.75 -1.55 109.55 -1.1 109.1 -0.95 L108.15 -1.0 M0.75 -6.2 L4.15 -6.25 4.15 -6.2 Q60.65 -5.9 70.05 -4.45 L72.4 -4.35 73.4 -4.15 Q73.25 -5.75 73.7 -7.55 74.45 -10.45 76.45 -12.05 77.85 -13.2 79.75 -13.45 82.25 -13.45 84.35 -11.45 85.7 -10.25 85.95 -8.5 L86.0 -7.1 85.75 -5.65 84.85 -4.55 Q83.9 -3.7 82.6 -3.15 81.45 -3.55 80.85 -4.1 80.05 -4.75 80.0 -5.75 L80.05 -6.75 80.65 -8.3 81.2 -8.5 82.1 -8.3 82.6 -8.35 83.05 -8.05 83.95 -5.35 84.55 -5.55 Q85.4 -7.65 84.75 -9.0 84.05 -10.4 82.45 -11.45 L82.05 -11.3 78.35 -11.15 77.2 -10.2 76.8 -10.0 Q75.5 -7.7 76.15 -5.15 L76.8 -3.8 77.95 -2.25 78.75 -1.9 82.0 0.05 87.5 -0.25 88.1 -0.3 92.7 -0.6 97.2 -1.2 Q98.8 -1.7 100.2 -2.65 L101.1 -3.6 Q102.0 -4.7 102.15 -5.7 L102.15 -7.7 101.95 -9.7 Q104.15 -6.7 103.85 -4.65 103.55 -2.65 103.5 1.55 L103.3 2.8 103.85 3.9 104.3 4.95 104.35 4.95 104.95 5.85 Q105.7 6.65 106.55 6.9 L107.95 11.25 109.2 11.35 111.8 11.1 113.15 10.8 Q115.2 11.45 116.8 12.85 L-123.45 12.85 Q-121.9 11.45 -119.8 10.8 L-118.5 11.1 -115.85 11.35 -114.6 11.25 Q-114.5 10.25 -113.25 6.9 -112.35 6.65 -111.6 5.85 L-111.0 4.95 -110.55 3.9 -110.0 2.8 -110.15 1.55 Q-110.25 -2.65 -110.55 -4.65 -110.85 -6.7 -108.6 -9.7 L-108.8 -7.7 -108.8 -5.7 Q-108.7 -4.7 -107.75 -3.6 L-106.85 -2.65 Q-105.45 -1.7 -103.85 -1.2 L-99.35 -0.6 -94.8 -0.3 -94.15 -0.25 -88.65 0.05 -85.4 -1.9 -84.65 -2.25 -83.45 -3.8 -82.8 -5.15 Q-82.15 -7.7 -83.45 -10.0 -83.75 -10.0 -83.85 -10.2 L-85.05 -11.15 -88.7 -11.3 -89.1 -11.45 Q-90.75 -10.4 -91.4 -9.0 -92.05 -7.65 -91.2 -5.55 L-90.6 -5.35 -89.75 -8.05 -89.3 -8.35 -88.75 -8.3 -87.85 -8.5 -87.3 -8.3 -86.7 -6.75 -86.65 -5.75 Q-86.75 -4.75 -87.5 -4.1 -88.15 -3.55 -89.3 -3.15 L-91.5 -4.55 Q-92.1 -4.95 -92.4 -5.65 -92.7 -6.3 -92.65 -7.1 L-92.6 -8.5 Q-92.35 -10.25 -91.0 -11.45 -88.95 -13.45 -86.4 -13.45 -84.55 -13.2 -83.1 -12.05 -81.1 -10.45 -80.35 -7.55 -79.95 -5.75 -80.1 -4.15 L-79.1 -4.35 -76.7 -4.45 -76.55 -4.4 Q-67.1 -5.95 -9.85 -6.2 L-9.85 -6.25 -6.25 -6.2 0.75 -6.2 M-114.0 -2.5 Q-113.8 -2.05 -114.05 -1.6 L-114.8 -1.0 -115.75 -0.95 Q-116.25 -1.1 -116.4 -1.55 -116.55 -2.0 -116.3 -2.45 L-115.6 -3.05 -114.6 -3.1 Q-114.15 -2.95 -114.0 -2.5 M-116.15 2.5 L-116.9 3.15 -117.9 3.2 -118.5 2.6 Q-118.7 2.15 -118.45 1.75 L-117.75 1.1 -116.75 1.05 Q-116.3 1.2 -116.15 1.65 -115.95 2.1 -116.15 2.5 M-118.55 5.25 Q-118.1 5.4 -117.95 5.9 -117.75 6.3 -118.0 6.75 L-118.7 7.35 -119.7 7.4 -120.35 6.85 -120.3 5.95 Q-120.05 5.5 -119.5 5.35 L-118.55 5.25 M113.6 5.95 Q113.85 6.4 113.65 6.85 L113.05 7.4 112.05 7.35 Q111.5 7.15 111.3 6.75 111.05 6.3 111.25 5.9 111.4 5.4 111.9 5.25 L112.85 5.35 113.6 5.95 M111.8 1.75 Q112.0 2.15 111.85 2.6 L111.25 3.2 110.25 3.15 109.5 2.5 Q109.25 2.1 109.45 1.65 109.6 1.2 110.1 1.05 L111.05 1.1 111.8 1.75" fill="#000000" fill-opacity="0.4509804" fill-rule="evenodd" stroke="none"/>
    <path d="M110.45 1.55 Q110.65 1.95 110.5 2.4 L109.9 3.0 108.95 2.95 108.2 2.3 Q107.95 1.9 108.15 1.45 108.3 1.0 108.75 0.85 L109.75 0.9 Q110.25 1.1 110.45 1.55 M112.25 5.7 L112.3 6.6 111.7 7.15 110.7 7.1 Q110.2 6.9 110.0 6.5 109.75 6.05 109.95 5.65 110.1 5.2 110.55 5.05 L111.5 5.1 112.25 5.7 M106.05 -2.65 Q106.2 -3.1 106.65 -3.25 L107.65 -3.2 108.35 -2.6 108.4 -1.7 107.8 -1.15 Q107.35 -1.0 106.85 -1.15 106.3 -1.4 106.1 -1.8 105.85 -2.25 106.05 -2.65 M-113.5 -1.15 Q-114.05 -1.0 -114.45 -1.15 -114.95 -1.3 -115.1 -1.7 -115.25 -2.15 -115.0 -2.6 L-114.3 -3.2 -113.35 -3.25 -112.7 -2.65 Q-112.55 -2.25 -112.75 -1.8 L-113.5 -1.15 M-115.6 2.95 L-116.6 3.0 -117.2 2.4 Q-117.35 1.95 -117.15 1.55 -116.95 1.1 -116.4 0.9 L-115.45 0.85 Q-115.0 1.0 -114.85 1.45 -114.65 1.9 -114.85 2.3 L-115.6 2.95 M-116.6 5.65 Q-116.45 6.05 -116.65 6.5 L-117.4 7.1 -118.35 7.15 -119.0 6.6 Q-119.15 6.15 -118.95 5.7 L-118.2 5.1 -117.25 5.05 Q-116.8 5.2 -116.6 5.65" fill="#1c9ee3" fill-rule="evenodd" stroke="none"/>
    <path d="M-6.25 -6.35 L-9.85 -6.3 -9.85 -6.35 -6.25 -6.35 M4.15 12.85 L4.15 -6.3 Q59.8 -6.05 69.1 -4.6 L71.45 -4.5 72.45 -4.3 Q72.3 -5.9 72.7 -7.7 73.45 -10.55 75.45 -12.15 76.85 -13.25 78.7 -13.5 81.2 -13.5 83.25 -11.55 84.6 -10.35 84.85 -8.6 L84.9 -7.25 84.65 -5.8 Q84.35 -5.1 83.75 -4.7 82.85 -3.85 81.55 -3.3 80.4 -3.7 79.8 -4.25 79.05 -4.9 78.95 -5.9 L79.0 -6.9 79.6 -8.4 80.15 -8.6 81.05 -8.4 81.55 -8.45 82.0 -8.15 82.85 -5.5 83.45 -5.7 Q84.3 -7.75 83.65 -9.1 83.0 -10.5 81.4 -11.55 L81.0 -11.4 77.35 -11.25 76.2 -10.3 75.8 -10.1 Q74.5 -7.8 75.15 -5.3 75.35 -4.6 75.8 -3.95 L76.95 -2.45 77.7 -2.1 80.95 -0.15 86.4 -0.45 87.0 -0.5 91.55 -0.8 96.0 -1.4 Q97.55 -1.85 98.95 -2.8 L99.85 -3.75 Q100.75 -4.85 100.9 -5.85 L100.9 -7.8 100.7 -9.8 Q102.9 -6.85 102.6 -4.8 102.3 -2.8 102.25 1.35 L102.05 2.6 102.6 3.65 103.05 4.75 103.1 4.75 103.7 5.6 Q104.4 6.4 105.3 6.65 L106.65 10.95 107.9 11.05 110.5 10.8 111.8 10.5 Q114.05 11.2 115.75 12.85 L4.15 12.85" fill="url(#gradient2)" fill-rule="evenodd" stroke="none"/>
    <path d="M-6.25 -6.35 L0.75 -6.35 4.15 -6.35 4.15 -6.3 4.15 12.85 -122.45 12.85 Q-120.75 11.2 -118.5 10.5 L-117.15 10.8 -114.55 11.05 -113.3 10.95 Q-113.2 9.95 -111.95 6.65 L-110.35 5.6 -109.75 4.75 -109.3 3.65 -108.75 2.6 -108.9 1.35 Q-109.0 -2.8 -109.3 -4.8 -109.6 -6.85 -107.4 -9.8 L-107.6 -7.8 -107.6 -5.85 Q-107.45 -4.85 -106.55 -3.75 -106.3 -3.25 -105.65 -2.8 -104.25 -1.85 -102.65 -1.4 L-98.25 -0.8 -93.7 -0.5 -93.1 -0.45 -87.65 -0.15 -84.4 -2.1 -83.65 -2.45 -82.5 -3.95 Q-82.05 -4.6 -81.85 -5.3 -81.2 -7.8 -82.5 -10.1 L-82.9 -10.3 -84.05 -11.25 -87.7 -11.4 -88.1 -11.55 Q-89.7 -10.5 -90.35 -9.1 -91.0 -7.75 -90.15 -5.7 L-89.55 -5.5 -88.7 -8.15 -88.25 -8.45 -87.75 -8.4 -86.85 -8.6 -86.3 -8.4 -85.7 -6.9 -85.65 -5.9 Q-85.75 -4.9 -86.5 -4.25 -87.1 -3.7 -88.25 -3.3 -89.55 -3.85 -90.45 -4.7 -91.05 -5.1 -91.35 -5.8 L-91.6 -7.25 -91.55 -8.6 Q-91.3 -10.35 -89.95 -11.55 -87.9 -13.5 -85.4 -13.5 -83.55 -13.25 -82.15 -12.15 -80.15 -10.55 -79.4 -7.7 -79.0 -5.9 -79.15 -4.3 L-78.15 -4.5 -75.8 -4.6 -75.6 -4.55 Q-66.3 -6.05 -9.85 -6.3 L-6.25 -6.35" fill="url(#gradient3)" fill-rule="evenodd" stroke="none"/>
    <path d="M-6.65 -2.75 L-9.85 -2.7 -9.85 -2.75 -6.65 -2.75 M4.15 12.85 L4.15 -2.7 Q59.15 -2.4 68.25 -1.0 L69.1 -1.1 71.45 -1.0 77.7 1.4 77.75 1.45 80.95 3.35 86.4 3.05 87.0 3.0 Q88.2 2.85 91.55 2.95 L96.0 2.6 Q97.45 2.2 98.7 1.35 L99.6 4.55 100.1 5.65 100.7 6.5 Q101.4 7.3 102.3 7.55 L103.85 12.85 4.15 12.85" fill="url(#gradient4)" fill-rule="evenodd" stroke="none"/>
    <path d="M-6.65 -2.75 L0.35 -2.75 4.15 -2.75 4.15 -2.7 4.15 12.85 -109.8 12.85 Q-109.35 10.5 -108.25 7.55 -107.4 7.3 -106.65 6.5 L-106.05 5.65 -105.6 4.55 -104.7 1.35 Q-103.45 2.2 -101.95 2.6 L-97.55 2.95 Q-94.2 2.85 -93.0 3.0 L-92.4 3.05 -86.95 3.35 -83.75 1.45 -83.7 1.4 -77.45 -1.0 -75.6 -1.05 -74.3 -1.0 -74.25 -1.0 Q-65.3 -2.45 -9.85 -2.7 L-6.65 -2.75" fill="url(#gradient5)" fill-rule="evenodd" stroke="none"/>
    <path d="M-74.3 -1.0 L-75.6 -1.05 -75.1 -1.1 -74.3 -1.0" fill="url(#gradient6)" fill-rule="evenodd" stroke="none"/>
  </g>
  <defs>
    <linearGradient gradientTransform="matrix(-0.002, -0.0132, -0.1327, 8.0E-4, -227.75, 3.05)" gradientUnits="userSpaceOnUse" id="gradient0" spreadMethod="pad" x1="-819.2" x2="819.2">
      <stop offset="0.0" stop-color="#000000"/>
      <stop offset="1.0" stop-color="#6d3030"/>
    </linearGradient>
    <linearGradient gradientTransform="matrix(-0.002, -0.0132, -0.1327, 8.0E-4, -183.95, 3.05)" gradientUnits="userSpaceOnUse" id="gradient1" spreadMethod="pad" x1="-819.2" x2="819.2">
      <stop offset="0.0" stop-color="#000000"/>
      <stop offset="1.0" stop-color="#6d3030"/>
    </linearGradient>
    <linearGradient gradientTransform="matrix(0.0, 0.0105, -0.0253, 0.0, 124.35, 2.2)" gradientUnits="userSpaceOnUse" id="gradient2" spreadMethod="pad" x1="-819.2" x2="819.2">
      <stop offset="0.0" stop-color="#1c9ee3"/>
      <stop offset="1.0" stop-color="#094176"/>
    </linearGradient>
    <linearGradient gradientTransform="matrix(0.0, 0.0105, -0.0253, 0.0, 168.15, 2.2)" gradientUnits="userSpaceOnUse" id="gradient3" spreadMethod="pad" x1="-819.2" x2="819.2">
      <stop offset="0.0" stop-color="#1c9ee3"/>
      <stop offset="1.0" stop-color="#094176"/>
    </linearGradient>
    <linearGradient gradientTransform="matrix(0.0, -0.0229, 0.0227, 0.0, -22.4, 12.4)" gradientUnits="userSpaceOnUse" id="gradient4" spreadMethod="pad" x1="-819.2" x2="819.2">
      <stop offset="0.0" stop-color="#0f64b9" stop-opacity="0.0"/>
      <stop offset="1.0" stop-color="#ddf3fb" stop-opacity="0.6901961"/>
    </linearGradient>
    <linearGradient gradientTransform="matrix(0.0, -0.0229, 0.0227, 0.0, 21.4, 12.4)" gradientUnits="userSpaceOnUse" id="gradient5" spreadMethod="pad" x1="-819.2" x2="819.2">
      <stop offset="0.0" stop-color="#0f64b9" stop-opacity="0.0"/>
      <stop offset="1.0" stop-color="#ddf3fb" stop-opacity="0.6901961"/>
    </linearGradient>
    <linearGradient gradientTransform="matrix(0.0, 0.0157, 0.0174, 0.0, -114.4, 15.6)" gradientUnits="userSpaceOnUse" id="gradient6" spreadMethod="pad" x1="-819.2" x2="819.2">
      <stop offset="0.0" stop-color="#ddf3fb" stop-opacity="0.6901961"/>
      <stop offset="1.0" stop-color="#0f64b9" stop-opacity="0.0"/>
    </linearGradient>
  </defs>
</svg>
