<?xml version="1.0" encoding="UTF-8" standalone="no"?>
<svg xmlns:xlink="http://www.w3.org/1999/xlink" height="67.05px" width="88.2px" xmlns="http://www.w3.org/2000/svg">
  <g transform="matrix(1.0, 0.0, 0.0, 1.0, 44.35, 32.95)">
    <path d="M22.8 -31.45 Q33.2 -27.6 39.15 -18.45 41.4 -15.0 42.25 -11.2 L42.65 -10.85 43.4 -6.0 43.85 -5.55 Q43.65 0.3 42.65 6.2 L42.25 6.6 42.25 7.1 41.9 7.5 41.15 11.6 41.5 12.0 41.5 12.75 42.0 13.2 Q43.25 21.2 41.3 29.15 L40.8 29.55 40.7 30.25 Q30.15 32.85 19.3 33.5 L5.95 34.05 -7.75 34.05 -29.6 33.2 -43.1 32.25 Q-46.35 20.2 -41.0 9.05 L-39.3 5.6 -38.7 5.65 -38.55 5.25 -37.95 5.25 -37.8 4.85 -37.0 4.95 -36.3 4.5 -17.25 4.5 -16.85 3.75 -17.6 -4.5 -17.25 -4.85 Q-16.35 -10.75 -14.25 -16.25 L-13.85 -16.45 -13.5 -17.95 -12.75 -18.35 -12.75 -19.1 Q-12.4 -19.3 -12.1 -19.55 L-12.0 -20.2 -11.0 -20.85 -10.85 -21.7 -6.4 -26.2 -5.4 -26.4 -4.9 -27.3 -4.15 -27.45 -3.75 -28.05 -3.05 -28.15 -2.65 -28.8 -0.55 -29.55 -0.4 -29.95 0.2 -29.9 0.35 -30.3 0.95 -30.25 1.1 -30.7 Q5.0 -32.3 8.95 -32.55 L9.35 -32.95 21.7 -31.8 22.05 -31.45 22.8 -31.45" fill="#c6b6d3" fill-rule="evenodd" stroke="none"/>
  </g>
</svg>
