<?xml version="1.0" encoding="UTF-8" standalone="no"?>
<svg xmlns:xlink="http://www.w3.org/1999/xlink" height="31.3px" width="11.5px" xmlns="http://www.w3.org/2000/svg">
  <g transform="matrix(1.0, 0.0, 0.0, 1.0, 6.65, 31.5)">
    <path d="M-6.4 -24.35 L-6.45 -24.35 -6.45 -24.4 -6.4 -24.35" fill="#8e8e8e" fill-rule="evenodd" stroke="none"/>
    <path d="M-4.85 -14.8 Q-6.15 -15.4 -6.65 -18.25 L-6.4 -24.3 -6.2 -30.3 Q-2.3 -33.65 2.8 -27.75 L4.85 -16.5 2.65 -13.55 2.6 -13.5 Q-2.7 -11.15 -4.85 -14.8" fill="#b7c6a5" fill-rule="evenodd" stroke="none"/>
    <path d="M2.6 -13.5 L2.65 -13.5 2.7 -13.5 2.7 -6.5 2.65 -4.4 2.6 -3.25 2.55 -3.05 2.45 -2.55 2.2 -1.75 Q1.4 -0.05 -0.75 -0.2 -2.55 -0.1 -3.6 -0.95 L-4.25 -1.75 -4.6 -2.55 -4.75 -3.05 -4.8 -3.25 -4.8 -3.3 -4.8 -4.15 -4.8 -5.4 -4.8 -5.45 -4.85 -7.8 -4.85 -14.8 Q-2.7 -11.15 2.6 -13.5" fill="#553817" fill-rule="evenodd" stroke="none"/>
    <path d="M-4.85 -14.8 Q-6.15 -15.4 -6.65 -18.25 L-6.4 -24.3 -6.2 -30.3 Q-2.3 -33.65 2.8 -27.75 L4.85 -16.5 2.65 -13.55 2.6 -13.5" fill="none" stroke="#324824" stroke-linecap="round" stroke-linejoin="round" stroke-width="0.05"/>
    <path d="M2.6 -13.5 Q-2.7 -11.15 -4.85 -14.8" fill="none" stroke="#666666" stroke-linecap="round" stroke-linejoin="round" stroke-width="0.05"/>
    <path d="M2.6 -13.5 L2.65 -13.5 2.7 -13.5" fill="none" stroke="#999999" stroke-linecap="round" stroke-linejoin="round" stroke-width="0.05"/>
    <path d="M2.7 -13.5 L2.7 -6.5 2.65 -4.4 2.6 -3.25 2.55 -3.05 2.45 -2.55 2.2 -1.75 M-4.25 -1.75 L-4.6 -2.55 -4.75 -3.05 -4.8 -3.25 -4.8 -3.3 -4.8 -4.15 -4.8 -5.4 -4.8 -5.45 -4.85 -7.8 -4.85 -14.8 Z" fill="none" stroke="#382310" stroke-linecap="round" stroke-linejoin="round" stroke-width="0.05"/>
  </g>
</svg>
