<?xml version="1.0" encoding="UTF-8" standalone="no"?>
<svg xmlns:xlink="http://www.w3.org/1999/xlink" height="31.65px" width="22.05px" xmlns="http://www.w3.org/2000/svg">
  <g transform="matrix(1.0, 0.0, 0.0, 1.0, 11.75, 13.15)">
    <path d="M-5.2 -8.75 Q-4.85 -11.05 -5.3 -12.75 -0.7 -13.6 2.4 -12.7 L2.2 -11.3 2.2 -11.05 Q2.1 -9.6 2.35 -8.25 1.55 -8.1 -0.15 -6.9 -3.75 -4.45 -5.25 -7.65 L-5.35 -7.8 -5.35 -7.85 -5.35 -7.9 -5.25 -8.65 -5.2 -8.75 M2.95 -7.5 L5.55 -6.35 5.9 -6.1 5.95 -6.1 6.5 -5.8 6.85 2.05 7.6 2.0 9.45 1.9 9.05 3.55 8.85 4.1 Q7.95 6.85 6.1 9.3 L6.0 9.75 Q5.55 11.9 6.2 13.6 L6.25 13.8 Q6.5 14.4 6.3 15.4 3.85 17.05 -1.05 17.05 -0.05 16.3 -1.1 15.1 L-1.35 15.1 Q0.5 13.05 -0.15 10.15 -0.55 8.55 -1.7 6.65 L-1.45 6.85 Q-0.05 7.85 1.0 9.5 L1.4 10.05 Q2.9 11.7 5.5 9.8 L6.1 9.3 5.5 9.8 Q2.9 11.7 1.4 10.05 L1.0 9.5 Q-0.05 7.85 -1.45 6.85 4.55 8.3 5.6 4.2 L5.65 4.15 5.65 4.1 Q6.9 -2.0 2.25 -5.0 4.45 -6.2 2.95 -7.5 M-7.35 15.45 L-8.45 14.5 -8.1 12.3 -7.65 10.65 -7.55 9.8 -7.45 8.85 Q-8.1 7.2 -8.15 5.15 -7.95 6.0 -6.4 6.65 -7.15 7.4 -7.45 8.85 -7.15 7.4 -6.4 6.65 -7.15 8.55 -7.3 10.6 L-7.3 13.15 -7.3 13.4 Q-8.5 14.2 -7.35 15.45 M-9.7 1.65 Q-10.85 -0.25 -10.9 -2.25 L-9.8 -2.3 Q-10.25 -0.45 -9.7 1.65 M-7.2 -6.6 L-7.3 -8.5 -7.25 -8.5 -7.0 -8.55 -6.3 -8.65 -5.25 -8.75 -5.25 -8.65 -6.35 -7.9 -6.5 -7.3 -6.95 -6.9 -7.15 -6.65 -7.2 -6.6 M7.6 2.0 L7.45 2.2 6.35 3.5 5.65 4.1 6.35 3.5 7.45 2.2 7.6 2.0 M6.25 13.8 Q4.45 15.2 -1.1 15.1 4.45 15.2 6.25 13.8 M-8.1 12.3 L-7.3 13.4 -8.1 12.3" fill="#ffd0ae" fill-rule="evenodd" stroke="none"/>
    <path d="M2.35 -8.25 L2.5 -7.65 2.95 -7.5 Q4.45 -6.2 2.25 -5.0 6.9 -2.0 5.65 4.1 L5.65 4.15 5.65 4.1 5.65 4.15 5.6 4.2 Q2.55 6.25 -0.45 5.45 -1.85 4.55 -4.25 4.15 -5.7 1.05 -4.3 -4.2 -5.7 1.05 -4.25 4.15 -1.85 4.55 -0.45 5.45 2.55 6.25 5.6 4.2 4.55 8.3 -1.45 6.85 L-1.7 6.65 Q-0.55 8.55 -0.15 10.15 0.5 13.05 -1.35 15.1 L-1.1 15.1 Q-0.05 16.3 -1.05 17.05 L-2.25 17.0 Q-5.6 16.55 -7.35 15.45 -8.5 14.2 -7.3 13.4 -6.3 14.25 -4.1 14.85 -6.3 14.25 -7.3 13.4 L-7.3 13.15 -7.3 10.6 Q-7.15 8.55 -6.4 6.65 -5.3 5.65 -3.55 5.75 L-3.95 5.2 -4.25 4.15 -6.75 4.4 -8.2 3.65 -8.35 3.5 -9.7 1.65 Q-10.25 -0.45 -9.8 -2.3 L-7.05 -2.5 -7.2 -6.6 -7.15 -6.65 -6.95 -6.9 -6.5 -7.3 -6.35 -7.9 -5.25 -8.65 -5.35 -7.9 -5.35 -7.85 -5.35 -7.8 -5.25 -7.65 Q-3.75 -4.45 -0.15 -6.9 1.55 -8.1 2.35 -8.25 M-8.15 5.15 L-8.2 3.65 -6.75 4.4 -4.25 4.15 -3.95 5.2 -3.55 5.75 Q-5.3 5.65 -6.4 6.65 -7.95 6.0 -8.15 5.15 M2.75 -6.8 L2.5 -7.65 2.75 -6.8 M-4.4 -5.4 L-6.25 -5.8 -4.4 -5.4 M-1.35 15.1 L-3.75 14.95 -4.1 14.85 Q-3.7 12.95 -3.55 10.35 L-3.55 5.75 Q-2.7 6.05 -1.7 6.65 -2.7 6.05 -3.55 5.75 L-3.55 10.35 Q-3.7 12.95 -4.1 14.85 L-3.75 14.95 -1.35 15.1 M0.45 -4.3 L-2.45 -4.95 0.45 -4.3" fill="#ffdfc8" fill-rule="evenodd" stroke="none"/>
    <path d="M-5.25 -8.75 L-5.2 -8.75 -5.25 -8.65 -5.25 -8.75" fill="#eebf5a" fill-rule="evenodd" stroke="none"/>
    <path d="M-5.2 -8.75 Q-4.85 -11.05 -5.3 -12.75 -0.7 -13.6 2.4 -12.7 L2.2 -11.3 2.2 -11.05 Q2.1 -9.6 2.35 -8.25 L2.5 -7.65 2.95 -7.5 5.55 -6.35 5.9 -6.1 5.95 -6.1 6.5 -5.8 M9.45 1.9 L9.05 3.55 8.85 4.1 Q7.95 6.85 6.1 9.3 L6.0 9.75 Q5.55 11.9 6.2 13.6 L6.25 13.8 Q6.5 14.4 6.3 15.4 3.85 17.05 -1.05 17.05 L-2.25 17.0 Q-5.6 16.55 -7.35 15.45 L-8.45 14.5 -8.1 12.3 -7.65 10.65 -7.55 9.8 -7.45 8.85 Q-8.1 7.2 -8.15 5.15 L-8.2 3.65 -8.35 3.5 -9.7 1.65 Q-10.85 -0.25 -10.9 -2.25 M-7.3 -8.5 L-7.25 -8.5 -7.0 -8.55 -6.3 -8.65 -5.25 -8.75 -5.2 -8.75 -5.25 -8.65 -5.35 -7.9 -5.35 -7.85 -5.35 -7.8 M2.5 -7.65 L2.75 -6.8 M5.65 4.1 L6.35 3.5 7.45 2.2 7.6 2.0 M-6.25 -5.8 L-4.4 -5.4 M-4.3 -4.2 Q-5.7 1.05 -4.25 4.15 -1.85 4.55 -0.45 5.45 2.55 6.25 5.6 4.2 L5.65 4.15 5.65 4.1 M-6.4 6.65 Q-5.3 5.65 -3.55 5.75 L-3.95 5.2 -4.25 4.15 -6.75 4.4 -8.2 3.65 M-7.45 8.85 Q-7.15 7.4 -6.4 6.65 M-1.35 15.1 L-1.1 15.1 Q4.45 15.2 6.25 13.8 M-1.45 6.85 L-1.7 6.65 Q-2.7 6.05 -3.55 5.75 L-3.55 10.35 Q-3.7 12.95 -4.1 14.85 L-3.75 14.95 -1.35 15.1 M-4.1 14.85 Q-6.3 14.25 -7.3 13.4 L-8.1 12.3 M-1.45 6.85 Q-0.05 7.85 1.0 9.5 L1.4 10.05 Q2.9 11.7 5.5 9.8 L6.1 9.3 M-2.45 -4.95 L0.45 -4.3" fill="none" stroke="#d7995e" stroke-linecap="round" stroke-linejoin="round" stroke-width="0.05"/>
    <path d="M4.7 -4.8 L4.5 -4.7 4.25 -4.65 3.65 -4.55 2.95 -4.45 2.45 -3.95 1.1 -2.85 1.05 -2.8 0.45 -2.45 -0.5 -1.85 -1.55 -1.4 -2.0 -1.25 -2.4 -1.1 -4.05 -0.8 -4.15 -0.8 -4.8 -0.75 -5.25 -0.95 -6.65 -1.85 -6.65 -2.1 Q-5.55 -1.4 -4.15 -1.35 L-4.0 -1.35 -2.4 -1.5 -1.8 -1.65 Q0.6 -2.5 2.15 -3.95 L3.05 -4.95 4.0 -5.1 4.1 -5.1 4.15 -5.1 4.65 -5.2 4.7 -5.2 Q5.6 -5.4 5.9 -6.7 L5.65 -5.3 5.2 -5.0 4.7 -4.8 M-7.8 -2.6 L-7.85 -2.65 -8.15 -2.85 -7.8 -2.7 -7.75 -2.65 -7.4 -2.45 -6.65 -2.1 -6.65 -1.85 -7.3 -2.25 -7.8 -2.6" fill="#5f803c" fill-rule="evenodd" stroke="none"/>
    <path d="M9.75 -2.7 L9.8 -1.9 9.45 1.85 9.35 2.65 9.25 3.1 Q8.5 6.4 7.2 9.05 L7.2 11.7 7.3 12.25 6.25 13.8 Q5.55 14.35 4.2 14.7 4.85 14.2 5.25 13.1 L4.65 10.0 5.0 9.45 Q6.7 6.6 7.35 3.2 L7.65 0.9 7.75 -1.05 7.7 -1.8 9.7 -2.8 9.75 -2.7" fill="#f9be79" fill-rule="evenodd" stroke="none"/>
    <path d="M-8.6 12.9 Q-12.5 9.2 -9.7 1.65 L-10.1 0.9 -10.4 0.25 -10.4 0.2 Q-11.1 -1.6 -10.85 -3.5 -9.25 -0.95 -5.9 0.4 L-4.4 0.9 Q0.1 1.9 7.7 -1.8 L7.75 -1.05 7.65 0.9 7.35 3.2 Q6.7 6.6 5.0 9.45 L4.65 10.0 5.25 13.1 Q4.85 14.2 4.2 14.7 L-1.05 15.1 -1.05 14.95 Q-1.15 14.05 -1.8 13.9 L-2.1 13.85 -5.8 13.15 -6.55 13.0 Q-7.1 13.15 -7.2 13.6 L-8.6 12.9 M-4.4 0.9 Q-5.8 3.8 -6.45 6.85 -7.1 9.9 -6.25 12.1 L-5.8 13.15 -6.25 12.1 Q-7.1 9.9 -6.45 6.85 -5.8 3.8 -4.4 0.9" fill="#fcdead" fill-rule="evenodd" stroke="none"/>
    <path d="M9.7 -2.8 L9.8 -2.85 9.75 -2.7 9.7 -2.8" fill="#2f3d51" fill-rule="evenodd" stroke="none"/>
    <path d="M6.25 13.8 Q7.25 14.8 6.8 16.2 3.85 17.95 -1.05 17.95 L-1.2 17.95 -1.1 17.65 -1.05 15.1 4.2 14.7 Q5.55 14.35 6.25 13.8" fill="#684942" fill-rule="evenodd" stroke="none"/>
    <path d="M-7.3 16.35 L-7.35 16.35 -8.45 15.4 Q-8.9 13.75 -8.6 12.9 L-7.2 13.6 -7.25 13.85 -7.3 16.35" fill="#956c5e" fill-rule="evenodd" stroke="none"/>
    <path d="M-1.2 17.95 Q-1.4 18.55 -1.75 18.5 L-2.2 18.45 Q-1.9 18.45 -1.7 17.95 -1.5 17.15 -1.6 15.1 -1.55 14.45 -2.1 13.85 L-1.8 13.9 Q-1.15 14.05 -1.05 14.95 L-1.05 15.1 -1.1 17.65 -1.2 17.95 M-2.7 17.25 L-6.6 16.55 -6.55 14.05 -2.6 14.8 -2.7 17.25" fill="#c5c5c5" fill-rule="evenodd" stroke="none"/>
    <path d="M-2.2 18.45 L-6.7 17.6 Q-7.3 17.35 -7.3 16.75 L-7.3 16.35 -7.25 13.85 -7.2 13.6 Q-7.1 13.15 -6.55 13.0 L-5.8 13.15 -2.1 13.85 Q-1.55 14.45 -1.6 15.1 -1.5 17.15 -1.7 17.95 -1.9 18.45 -2.2 18.45 M-2.7 17.25 L-2.6 14.8 -6.55 14.05 -6.6 16.55 -2.7 17.25" fill="#dadada" fill-rule="evenodd" stroke="none"/>
    <path d="M9.8 -2.85 L9.75 -2.7 M7.2 11.7 L7.3 12.25" fill="none" stroke="#548584" stroke-linecap="round" stroke-linejoin="round" stroke-width="0.05"/>
    <path d="M9.75 -2.7 L9.8 -1.9 9.45 1.85 9.35 2.65 9.25 3.1 Q8.5 6.4 7.2 9.05 L7.2 11.7 M7.3 12.25 L6.25 13.8 M-8.6 12.9 Q-12.5 9.2 -9.7 1.65 L-10.1 0.9 -10.4 0.25 -10.4 0.2 Q-11.1 -1.6 -10.85 -3.5 M-5.8 13.15 L-6.25 12.1 Q-7.1 9.9 -6.45 6.85 -5.8 3.8 -4.4 0.9" fill="none" stroke="#975506" stroke-linecap="round" stroke-linejoin="round" stroke-width="0.05"/>
    <path d="M6.25 13.8 Q7.25 14.8 6.8 16.2 3.85 17.95 -1.05 17.95 L-1.2 17.95 M-7.3 16.35 L-7.35 16.35 -8.45 15.4 Q-8.9 13.75 -8.6 12.9 L-7.2 13.6 M4.2 14.7 Q5.55 14.35 6.25 13.8 M-1.05 15.1 L4.2 14.7" fill="none" stroke="#3f2c27" stroke-linecap="round" stroke-linejoin="round" stroke-width="0.05"/>
    <path d="M-1.2 17.95 Q-1.4 18.55 -1.75 18.5 L-2.2 18.45 -6.7 17.6 Q-7.3 17.35 -7.3 16.75 L-7.3 16.35 -7.25 13.85 -7.2 13.6 Q-7.1 13.15 -6.55 13.0 L-5.8 13.15 -2.1 13.85 -1.8 13.9 Q-1.15 14.05 -1.05 14.95 L-1.05 15.1 -1.1 17.65 -1.2 17.95" fill="none" stroke="#666666" stroke-linecap="round" stroke-linejoin="round" stroke-width="0.05"/>
    <path d="M2.9 -9.15 L3.55 -8.75 5.9 -6.7 Q5.6 -5.4 4.7 -5.2 L4.65 -5.2 4.15 -5.1 4.1 -5.1 4.0 -5.1 3.05 -4.95 2.15 -3.95 Q0.6 -2.5 -1.8 -1.65 L-2.4 -1.5 -4.0 -1.35 -4.15 -1.35 Q-5.55 -1.4 -6.65 -2.1 L-7.4 -2.45 -7.75 -2.65 -7.8 -2.7 -8.15 -2.85 -7.85 -2.65 -7.8 -2.6 -7.3 -2.25 -6.65 -1.85 -5.25 -0.95 -4.8 -0.75 -4.15 -0.8 -4.05 -0.8 -2.4 -1.1 -2.0 -1.25 -1.55 -1.4 -0.5 -1.85 0.45 -2.45 1.05 -2.8 1.1 -2.85 2.45 -3.95 2.95 -4.45 3.65 -4.55 4.25 -4.65 4.5 -4.7 4.7 -4.8 5.2 -5.0 5.65 -5.3 5.9 -6.7 Q8.6 -5.5 10.3 -3.45 L9.7 -2.8 7.7 -1.8 Q0.1 1.9 -4.4 0.9 L-5.9 0.4 Q-9.25 -0.95 -10.85 -3.5 L-11.5 -4.45 Q-12.3 -6.0 -10.7 -7.3 L-10.45 -7.5 -9.8 -7.9 -7.6 -8.9 -6.25 -9.15 -5.7 -9.25 -5.1 -9.95 Q-5.5 -8.6 -5.05 -7.75 -4.8 -7.2 -4.15 -6.8 L-4.0 -6.7 -3.9 -6.65 0.5 -6.95 1.9 -8.05 Q2.55 -8.85 2.15 -9.4 L2.9 -9.15 2.95 -7.95 2.9 -9.15 M0.65 -4.55 L-0.75 -4.05 -3.95 -3.8 -4.1 -3.8 -4.95 -4.2 -5.8 -5.35 -5.95 -5.65 -6.0 -5.95 -6.05 -7.75 -5.7 -9.25 -6.05 -7.75 -6.0 -5.95 -5.95 -5.65 -5.8 -5.35 -4.95 -4.2 -4.1 -3.8 -3.95 -3.8 -0.75 -4.05 0.65 -4.55" fill="#8cb562" fill-rule="evenodd" stroke="none"/>
    <path d="M5.9 -6.7 L3.55 -8.75 2.9 -9.15 2.15 -9.4 Q2.55 -8.85 1.9 -8.05 L0.5 -6.95 -3.9 -6.65 -4.0 -6.7 -4.15 -6.8 Q-4.8 -7.2 -5.05 -7.75 -5.5 -8.6 -5.1 -9.95 L-5.7 -9.25 -6.05 -7.75 -6.0 -5.95 -5.95 -5.65 -5.8 -5.35 -4.95 -4.2 -4.1 -3.8 -3.95 -3.8 -0.75 -4.05 0.65 -4.55 M-4.8 -0.75 L-4.15 -0.8 -4.05 -0.8 -2.4 -1.1 -2.0 -1.25 -1.55 -1.4 -0.5 -1.85 0.45 -2.45 1.05 -2.8 1.1 -2.85 2.45 -3.95 2.95 -4.45 3.65 -4.55 4.25 -4.65 4.5 -4.7 4.7 -4.8 5.2 -5.0 5.65 -5.3 5.9 -6.7 Q8.6 -5.5 10.3 -3.45 L9.7 -2.8 7.7 -1.8 Q0.1 1.9 -4.4 0.9 L-5.9 0.4 Q-9.25 -0.95 -10.85 -3.5 L-11.5 -4.45 Q-12.3 -6.0 -10.7 -7.3 L-10.45 -7.5 -9.8 -7.9 -7.6 -8.9 -6.25 -9.15 -5.7 -9.25" fill="none" stroke="#567337" stroke-linecap="round" stroke-linejoin="round" stroke-width="0.05"/>
  </g>
</svg>
