<?xml version="1.0" encoding="UTF-8" standalone="no"?>
<svg xmlns:xlink="http://www.w3.org/1999/xlink" height="21.0px" width="81.35px" xmlns="http://www.w3.org/2000/svg">
  <g transform="matrix(1.0, 0.0, 0.0, 1.0, 40.7, 5.45)">
    <path d="M40.65 11.3 L40.35 12.45 37.7 11.95 37.7 11.25 37.7 10.55 Q39.1 11.25 40.65 11.3 M18.65 11.95 Q-17.9 11.3 -39.1 15.55 -41.05 13.05 -40.6 11.6 L-40.55 11.8 Q-40.25 12.85 -39.1 14.3 -17.9 10.05 18.65 10.7 L18.65 11.25 18.65 11.95" fill="#786850" fill-rule="evenodd" stroke="none"/>
    <path d="M37.7 9.3 L40.15 9.3 40.65 10.7 40.65 11.3 Q39.1 11.25 37.7 10.55 L37.7 9.3 M-40.6 11.6 L-40.55 11.5 Q-40.3 10.8 -39.4 10.35 -12.2 8.2 18.65 9.3 L18.65 10.7 Q-17.9 10.05 -39.1 14.3 -40.25 12.85 -40.55 11.8 L-40.6 11.6" fill="#9f8c6f" fill-rule="evenodd" stroke="none"/>
    <path d="M37.7 11.95 L37.7 12.95 18.65 12.95 18.65 11.95 18.65 11.25 37.7 11.25 37.7 11.95" fill="#7d7d86" fill-rule="evenodd" stroke="none"/>
    <path d="M37.3 8.3 L37.7 8.3 37.7 9.3 37.7 10.55 37.7 11.25 18.65 11.25 18.65 10.7 18.65 9.3 18.65 8.3 28.4 8.3 28.55 10.35 37.3 10.35 37.3 8.3" fill="#97979d" fill-rule="evenodd" stroke="none"/>
    <path d="M25.05 1.35 Q21.0 -2.15 19.85 -2.35 L24.35 -4.3 26.3 -2.4 26.1 -4.55 37.3 -5.45 37.3 -0.25 Q27.7 -0.6 25.05 1.35" fill="#cfcfd3" fill-rule="evenodd" stroke="none"/>
    <path d="M37.3 -0.25 L37.3 8.3 37.3 10.35 28.55 10.35 28.4 8.3 Q27.75 3.95 25.05 1.35 27.7 -0.6 37.3 -0.25" fill="#a09fa8" fill-rule="evenodd" stroke="none"/>
    <path d="M37.7 9.3 L40.15 9.3 40.65 10.7 40.65 11.3 40.35 12.45 37.7 11.95 M18.65 11.95 Q-17.9 11.3 -39.1 15.55 -41.05 13.05 -40.6 11.6 L-40.55 11.5 Q-40.3 10.8 -39.4 10.35 -12.2 8.2 18.65 9.3" fill="none" stroke="#453a2e" stroke-linecap="round" stroke-linejoin="round" stroke-width="0.05"/>
    <path d="M37.3 8.3 L37.7 8.3 37.7 9.3 37.7 10.55 37.7 11.25 37.7 11.95 37.7 12.95 18.65 12.95 18.65 11.95 18.65 11.25 18.65 10.7 18.65 9.3 18.65 8.3 28.4 8.3" fill="none" stroke="#666666" stroke-linecap="round" stroke-linejoin="round" stroke-width="0.05"/>
    <path d="M25.05 1.35 Q21.0 -2.15 19.85 -2.35 L24.35 -4.3 26.3 -2.4 26.1 -4.55 37.3 -5.45 37.3 -0.25 37.3 8.3 37.3 10.35 28.55 10.35 28.4 8.3 Q27.75 3.95 25.05 1.35" fill="none" stroke="#666666" stroke-linecap="round" stroke-linejoin="round" stroke-width="0.05"/>
  </g>
</svg>
