<?xml version="1.0" encoding="UTF-8" standalone="no"?>
<svg xmlns:xlink="http://www.w3.org/1999/xlink" height="35.65px" width="33.3px" xmlns="http://www.w3.org/2000/svg">
  <g transform="matrix(1.0, 0.0, 0.0, 1.0, 17.9, 26.4)">
    <path d="M9.2 9.0 Q-2.0 10.0 -9.55 7.2 -17.15 4.35 -17.9 2.65 L-16.5 -2.2 Q-14.6 -0.75 -9.15 1.3 -1.6 4.1 9.6 3.1 L9.2 9.0" fill="#a44745" fill-rule="evenodd" stroke="none"/>
    <path d="M13.9 1.95 Q14.55 4.9 15.4 6.3 14.9 7.85 9.2 9.0 L9.6 3.1 13.9 1.95" fill="#773333" fill-rule="evenodd" stroke="none"/>
    <path d="M-16.5 -2.2 L-14.95 -9.25 -11.65 -26.4 Q-9.4 -25.6 -7.35 -25.15 L2.4 -24.45 3.85 -24.6 5.8 -24.9 6.4 -25.0 Q8.25 -16.95 9.1 -9.85 9.8 -3.45 9.6 3.1 -1.6 4.1 -9.15 1.3 -14.6 -0.75 -16.5 -2.2" fill="#d0b384" fill-rule="evenodd" stroke="none"/>
    <path d="M8.25 -25.4 Q11.55 -13.65 12.7 -5.0 13.2 -0.85 13.9 1.95 L9.6 3.1 Q9.8 -3.45 9.1 -9.85 8.25 -16.95 6.4 -25.0 L7.7 -25.25 8.25 -25.4" fill="#bf935e" fill-rule="evenodd" stroke="none"/>
    <path d="M8.25 -25.4 Q11.55 -13.65 12.7 -5.0 13.2 -0.85 13.9 1.95 14.55 4.9 15.4 6.3 14.9 7.85 9.2 9.0 -2.0 10.0 -9.55 7.2 -17.15 4.35 -17.9 2.65 L-16.5 -2.2 -14.95 -9.25 -11.65 -26.4" fill="none" stroke="#744636" stroke-linecap="round" stroke-linejoin="round" stroke-width="0.05"/>
    <path d="M13.9 1.95 L9.6 3.1 Q-1.6 4.1 -9.15 1.3 -14.6 -0.75 -16.5 -2.2" fill="none" stroke="#744636" stroke-linecap="round" stroke-linejoin="round" stroke-width="0.05"/>
  </g>
</svg>
