<?xml version="1.0" encoding="UTF-8" standalone="no"?>
<svg xmlns:xlink="http://www.w3.org/1999/xlink" height="30.65px" width="17.5px" xmlns="http://www.w3.org/2000/svg">
  <g transform="matrix(1.0, 0.0, 0.0, 1.0, 10.2, 13.05)">
    <path d="M-3.85 -10.2 L-3.85 -11.7 Q-3.35 -10.95 -0.8 -10.75 -0.35 -9.9 0.45 -6.9 L-4.15 -6.8 -4.65 -7.15 -5.2 -8.2 -4.1 -8.3 -3.85 -10.15 -3.85 -10.2 M-4.1 -8.3 Q-4.15 -7.85 -4.65 -7.15 -4.15 -7.85 -4.1 -8.3" fill="#dbd3bb" fill-rule="evenodd" stroke="none"/>
    <path d="M-3.85 -11.7 L-4.0 -12.95 0.75 -13.05 0.85 -9.9 1.15 -8.15 1.2 -8.0 2.0 -8.0 0.45 -6.9 Q-0.35 -9.9 -0.8 -10.75 -3.35 -10.95 -3.85 -11.7" fill="#cec4a4" fill-rule="evenodd" stroke="none"/>
    <path d="M2.0 -8.0 L1.2 -8.0 1.15 -8.15 0.85 -9.9 Q2.8 -8.75 2.05 -8.0 L2.0 -8.0 M-5.2 -8.2 Q-5.5 -9.1 -3.85 -10.15 L-3.85 -10.2 -3.85 -10.15 -4.1 -8.3 -5.2 -8.2" fill="#956c5e" fill-rule="evenodd" stroke="none"/>
    <path d="M0.85 -9.9 L3.0 -9.1 Q3.6 -8.75 3.65 -8.0 L4.0 -7.95 Q4.75 -7.7 4.9 -6.6 L3.4 -2.2 2.6 -1.3 1.75 -0.6 Q-1.4 1.75 -3.9 0.9 -6.45 0.0 -7.55 -1.95 -8.5 -3.9 -7.7 -6.3 -7.7 -6.95 -6.75 -8.5 L-6.7 -8.6 Q-6.35 -9.4 -5.7 -9.25 -5.5 -9.7 -3.85 -10.2 L-3.85 -10.15 Q-5.5 -9.1 -5.2 -8.2 L-4.65 -7.15 -4.15 -6.8 0.45 -6.9 2.0 -8.0 2.05 -8.0 Q2.8 -8.75 0.85 -9.9 M1.9 17.2 L-1.05 17.6 -2.95 17.5 -4.45 17.25 -6.0 16.65 -8.75 15.1 Q-8.85 14.0 -8.55 13.1 -8.45 13.15 -8.3 13.25 L-6.15 14.15 -4.6 14.6 Q0.75 15.0 2.65 14.75 2.7 15.65 1.9 17.2 M0.65 -4.55 Q-4.6 -2.5 -5.8 -5.35 L-6.0 -5.95 Q-6.15 -7.7 -5.95 -8.6 L-5.7 -9.25 -5.95 -8.6 Q-6.15 -7.7 -6.0 -5.95 L-5.8 -5.35 Q-4.6 -2.5 0.65 -4.55 M3.7 -6.15 Q1.6 0.25 -4.65 -1.35 1.6 0.25 3.7 -6.15" fill="#a44745" fill-rule="evenodd" stroke="none"/>
    <path d="M6.2 13.4 Q7.2 14.25 7.05 15.7 L1.9 17.2 Q2.7 15.65 2.65 14.75 L4.3 14.25 6.2 13.4" fill="#773333" fill-rule="evenodd" stroke="none"/>
    <path d="M4.9 -6.6 L7.3 -5.25 7.3 -5.2 6.15 0.75 5.65 2.3 4.1 5.6 Q3.55 7.2 3.85 8.65 3.85 9.15 4.4 10.25 L5.25 11.45 6.15 13.35 6.2 13.4 4.3 14.25 2.65 14.75 2.75 13.55 3.0 12.2 3.0 12.1 1.2 8.85 0.5 7.95 -0.9 6.6 Q-1.7 6.0 -3.3 5.75 -4.85 5.55 -6.35 7.5 L-6.85 5.2 -7.4 3.55 Q-8.75 3.2 -9.35 2.3 -9.95 1.65 -10.1 0.65 -9.75 1.9 -8.6 2.5 L-7.3 2.75 Q-5.9 3.0 -4.5 3.55 -2.75 4.3 -1.8 4.3 1.75 5.05 2.75 3.1 3.35 1.5 2.6 -1.3 L3.4 -2.2 4.9 -6.6 M4.4 0.25 L4.45 0.95 Q4.55 2.85 3.3 4.15 2.1 5.55 0.25 5.6 L-1.7 5.3 -7.4 3.55 -1.7 5.3 0.25 5.6 Q2.1 5.55 3.3 4.15 4.55 2.85 4.45 0.95 L4.4 0.25" fill="#bf935e" fill-rule="evenodd" stroke="none"/>
    <path d="M-8.3 13.25 Q-8.0 11.3 -6.95 9.75 L-6.6 9.2 Q-6.25 8.45 -6.35 7.5 -4.85 5.55 -3.3 5.75 -1.7 6.0 -0.9 6.6 L0.5 7.95 1.2 8.85 3.0 12.1 3.0 12.2 2.75 13.55 2.65 14.75 Q0.75 15.0 -4.6 14.6 L-6.15 14.15 -8.3 13.25 M-10.1 0.65 L-10.2 0.0 Q-10.3 -1.8 -9.65 -2.65 L-9.0 -4.1 -8.95 -4.2 -8.95 -8.05 -7.75 -8.35 -6.75 -8.5 Q-7.7 -6.95 -7.7 -6.3 -8.5 -3.9 -7.55 -1.95 -6.45 0.0 -3.9 0.9 -1.4 1.75 1.75 -0.6 L2.6 -1.3 Q3.35 1.5 2.75 3.1 1.75 5.05 -1.8 4.3 -2.75 4.3 -4.5 3.55 -5.9 3.0 -7.3 2.75 L-8.6 2.5 Q-9.75 1.9 -10.1 0.65" fill="#d0b384" fill-rule="evenodd" stroke="none"/>
    <path d="M-3.85 -10.2 L-3.85 -11.7 -4.0 -12.95 0.75 -13.05 0.85 -9.9 1.15 -8.15 1.2 -8.0 2.0 -8.0 M-4.65 -7.15 Q-4.15 -7.85 -4.1 -8.3 L-5.2 -8.2 M-4.1 -8.3 L-3.85 -10.15" fill="none" stroke="#70633a" stroke-linecap="round" stroke-linejoin="round" stroke-width="0.05"/>
    <path d="M0.85 -9.9 L3.0 -9.1 Q3.6 -8.75 3.65 -8.0 L4.0 -7.95 Q4.75 -7.7 4.9 -6.6 L3.4 -2.2 2.6 -1.3 1.75 -0.6 Q-1.4 1.75 -3.9 0.9 -6.45 0.0 -7.55 -1.95 -8.5 -3.9 -7.7 -6.3 -7.7 -6.95 -6.75 -8.5 L-6.7 -8.6 Q-6.35 -9.4 -5.7 -9.25 -5.5 -9.7 -3.85 -10.2 L-3.85 -10.15 Q-5.5 -9.1 -5.2 -8.2 L-4.65 -7.15 -4.15 -6.8 0.45 -6.9 2.0 -8.0 2.05 -8.0 Q2.8 -8.75 0.85 -9.9 M-5.7 -9.25 L-5.95 -8.6 Q-6.15 -7.7 -6.0 -5.95 L-5.8 -5.35 Q-4.6 -2.5 0.65 -4.55 M-4.65 -1.35 Q1.6 0.25 3.7 -6.15" fill="none" stroke="#3f2c27" stroke-linecap="round" stroke-linejoin="round" stroke-width="0.05"/>
    <path d="M-8.95 -8.05 L-7.75 -8.35" fill="none" stroke="#305054" stroke-linecap="round" stroke-linejoin="round" stroke-width="0.05"/>
    <path d="M4.9 -6.6 L7.3 -5.25 7.3 -5.2 6.15 0.75 5.65 2.3 4.1 5.6 Q3.55 7.2 3.85 8.65 3.85 9.15 4.4 10.25 L5.25 11.45 6.15 13.35 6.2 13.4 Q7.2 14.25 7.05 15.7 L1.9 17.2 -1.05 17.6 -2.95 17.5 -4.45 17.25 -6.0 16.65 -8.75 15.1 Q-8.85 14.0 -8.55 13.1 -8.45 13.15 -8.3 13.25 -8.0 11.3 -6.95 9.75 L-6.6 9.2 Q-6.25 8.45 -6.35 7.5 L-6.85 5.2 -7.4 3.55 Q-8.75 3.2 -9.35 2.3 -9.95 1.65 -10.1 0.65 L-10.2 0.0 Q-10.3 -1.8 -9.65 -2.65 L-9.0 -4.1 -8.95 -4.2 M-7.75 -8.35 L-6.75 -8.5 M-7.4 3.55 L-1.7 5.3 0.25 5.6 Q2.1 5.55 3.3 4.15 4.55 2.85 4.45 0.95 L4.4 0.25 M2.65 14.75 L4.3 14.25 6.2 13.4 M2.65 14.75 Q0.75 15.0 -4.6 14.6 L-6.15 14.15 -8.3 13.25" fill="none" stroke="#744636" stroke-linecap="round" stroke-linejoin="round" stroke-width="0.05"/>
  </g>
</svg>
