<?xml version="1.0" encoding="UTF-8" standalone="no"?>
<svg xmlns:xlink="http://www.w3.org/1999/xlink" height="30.15px" width="22.3px" xmlns="http://www.w3.org/2000/svg">
  <g transform="matrix(1.0, 0.0, 0.0, 1.0, 6.35, 11.65)">
    <path d="M-3.95 -0.85 Q-2.4 -1.8 -1.55 -0.05 -2.85 -1.1 -3.95 -0.85 M4.35 0.65 L-0.05 0.35 Q2.0 -0.95 4.35 0.65" fill="#c7788e" fill-rule="evenodd" stroke="none"/>
    <path d="M-3.95 -0.85 Q-2.4 -1.8 -1.55 -0.05 M4.35 0.65 Q2.0 -0.95 -0.05 0.35" fill="none" stroke="#733145" stroke-linecap="round" stroke-linejoin="round" stroke-width="0.05"/>
    <path d="M6.7 12.15 Q6.55 17.65 4.35 18.5 6.15 16.75 4.2 14.1 3.7 13.4 3.3 12.0 3.4 10.05 4.35 7.7 5.65 2.2 4.2 -3.1 4.7 1.65 3.7 4.45 3.95 0.4 2.0 -2.65 0.25 -2.85 -1.0 -1.05 -1.75 -2.2 -1.75 -4.1 -2.75 -1.45 -2.55 1.7 -4.1 -0.65 -3.35 -2.8 -4.6 -1.3 -4.6 1.45 -5.3 -0.95 -4.55 -3.75 -6.0 -1.6 -5.95 2.9 -7.6 -5.2 -2.55 -7.4 0.35 -11.55 6.5 -11.65 10.1 -10.85 12.2 -6.7 10.25 -2.95 7.05 -2.6 8.9 4.95 6.15 9.25 5.95 11.25 6.65 12.05 L6.7 12.0 6.7 12.15 6.65 12.05 6.7 12.15 M1.25 -8.2 Q-1.0 -8.1 -2.55 -7.4 -1.0 -8.1 1.25 -8.2" fill="#c7788e" fill-rule="evenodd" stroke="none"/>
    <path d="M12.2 -6.7 Q13.35 -4.4 14.0 -1.0 13.85 2.7 15.95 5.95 13.55 4.3 12.7 0.7 12.15 2.75 13.4 5.8 15.4 7.45 14.9 9.15 13.95 11.2 11.85 12.9 11.75 11.05 10.25 10.05 8.9 12.85 8.2 17.9 8.25 14.85 6.7 12.15 L6.7 12.0 6.65 12.05 Q5.95 11.25 6.15 9.25 8.9 4.95 7.05 -2.6 10.25 -2.95 12.2 -6.7 M10.7 9.15 L10.25 10.05 10.7 9.15 M-0.4 10.15 Q-0.3 12.8 -1.8 13.7 -1.8 12.5 -3.45 9.8 -3.1 11.05 -4.05 12.6 -4.15 11.3 -4.65 9.9 -5.8 8.25 -5.05 7.1 -3.75 5.7 -3.8 2.95 -2.6 8.1 -0.4 10.15" fill="#bb5e78" fill-rule="evenodd" stroke="none"/>
    <path d="M12.2 -6.7 Q13.35 -4.4 14.0 -1.0 13.85 2.7 15.95 5.95 13.55 4.3 12.7 0.7 12.15 2.75 13.4 5.8 15.4 7.45 14.9 9.15 13.95 11.2 11.85 12.9 11.75 11.05 10.25 10.05 8.9 12.85 8.2 17.9 8.25 14.85 6.7 12.15 6.55 17.65 4.35 18.5 6.15 16.75 4.2 14.1 3.7 13.4 3.3 12.0 3.4 10.05 4.35 7.7 5.65 2.2 4.2 -3.1 4.7 1.65 3.7 4.45 M2.0 -2.65 Q0.25 -2.85 -1.0 -1.05 M-1.75 -4.1 Q-2.75 -1.45 -2.55 1.7 M-3.35 -2.8 Q-4.6 -1.3 -4.6 1.45 M-4.55 -3.75 Q-6.0 -1.6 -5.95 2.9 -7.6 -5.2 -2.55 -7.4 0.35 -11.55 6.5 -11.65 10.1 -10.85 12.2 -6.7 M6.65 12.05 L6.7 12.0 6.7 12.15 6.65 12.05 M10.25 10.05 L10.7 9.15 M-0.4 10.15 Q-0.3 12.8 -1.8 13.7 -1.8 12.5 -3.45 9.8 -3.1 11.05 -4.05 12.6 -4.15 11.3 -4.65 9.9 -5.8 8.25 -5.05 7.1 -3.75 5.7 -3.8 2.95 -2.6 8.1 -0.4 10.15 M-2.55 -7.4 Q-1.0 -8.1 1.25 -8.2" fill="none" stroke="#733145" stroke-linecap="round" stroke-linejoin="round" stroke-width="0.05"/>
  </g>
</svg>
