<?xml version="1.0" encoding="UTF-8" standalone="no"?>
<svg xmlns:xlink="http://www.w3.org/1999/xlink" height="8.55px" width="15.1px" xmlns="http://www.w3.org/2000/svg">
  <g transform="matrix(1.0, 0.0, 0.0, 1.0, 3.85, 4.55)">
    <path d="M-2.45 2.1 L-2.3 2.1 -2.35 2.15 -2.45 2.1" fill="#f2f2f2" fill-rule="evenodd" stroke="none"/>
    <path d="M6.95 2.25 L6.95 2.3 6.9 2.3 6.95 2.25" fill="#deddb1" fill-rule="evenodd" stroke="none"/>
    <path d="M-0.45 -4.55 L-0.4 -4.55 -0.5 -4.55 -0.45 -4.55" fill="#bec5d8" fill-rule="evenodd" stroke="none"/>
    <path d="M11.25 -0.15 L11.25 -0.1 11.05 -0.15 11.25 -0.15" fill="#a5bafe" fill-rule="evenodd" stroke="none"/>
    <path d="M-2.3 2.1 L-1.95 2.15 -0.6 2.3 1.65 2.3 Q4.15 2.15 5.55 1.15 L6.15 0.6 6.8 -0.4 6.8 -0.5 6.8 -0.6 6.85 -0.8 6.85 -0.95 6.85 -1.0 Q6.8 -1.85 6.25 -2.45 L6.7 -2.15 7.55 -1.45 7.6 -1.4 7.75 -1.15 7.85 -0.95 7.95 -0.85 8.1 -0.5 8.2 0.4 7.85 1.4 7.6 1.7 7.15 2.1 6.95 2.25 6.9 2.3 6.35 2.6 6.2 2.7 5.25 3.05 4.65 3.2 1.95 3.4 1.8 3.4 -0.5 3.0 -2.35 2.15 -2.3 2.1" fill="#7d6792" fill-rule="evenodd" stroke="none"/>
    <path d="M-3.75 -0.85 Q-3.4 -2.0 -1.85 -2.7 0.0 -3.65 2.5 -3.45 L3.35 -3.4 5.05 -3.0 5.75 -2.7 6.25 -2.45 5.75 -2.7 7.5 -2.2 9.1 -1.9 Q9.75 0.6 7.35 3.7 L4.65 3.2 5.25 3.05 6.2 2.7 6.35 2.6 6.9 2.3 6.95 2.3 6.95 2.25 7.15 2.1 7.6 1.7 7.85 1.4 8.2 0.4 8.1 -0.5 7.95 -0.85 7.85 -0.95 7.75 -1.15 7.6 -1.4 7.55 -1.45 6.7 -2.15 6.25 -2.45 Q6.8 -1.85 6.85 -1.0 L6.85 -0.95 6.85 -0.8 6.8 -0.6 6.8 -0.5 6.8 -0.4 6.15 0.6 5.55 1.15 Q4.15 2.15 1.65 2.3 L-0.6 2.3 -1.95 2.15 -2.3 2.1 -2.45 2.1 -3.2 1.45 -3.7 0.65 -3.8 0.4 -3.85 0.35 -3.8 0.35 -3.85 -0.35 -3.85 -0.45 -3.75 -0.85" fill="#a28fb1" fill-rule="evenodd" stroke="none"/>
    <path d="M9.1 -1.9 L10.7 -1.75 11.05 -1.75 11.25 -0.15 11.05 -0.15 11.25 -0.1 11.2 0.4 10.55 2.1 8.95 4.0 7.35 3.7 Q9.75 0.6 9.1 -1.9" fill="#ffffcc" fill-rule="evenodd" stroke="none"/>
    <path d="M5.75 -2.7 L5.05 -3.0 3.35 -3.4 2.5 -3.45 Q0.0 -3.65 -1.85 -2.7 -3.4 -2.0 -3.75 -0.85 M6.25 -2.45 L5.75 -2.7 7.5 -2.2 9.1 -1.9 10.7 -1.75 11.05 -1.75 11.25 -0.15 11.25 -0.1 11.2 0.4 10.55 2.1 8.95 4.0 7.35 3.7 4.65 3.2 1.95 3.4 M6.25 -2.45 L6.7 -2.15 7.55 -1.45 7.6 -1.4 7.75 -1.15 M6.2 2.7 L5.25 3.05 4.65 3.2 M9.1 -1.9 Q9.75 0.6 7.35 3.7" fill="none" stroke="#42374d" stroke-linecap="round" stroke-linejoin="round" stroke-width="0.05"/>
  </g>
</svg>
