<?xml version="1.0" encoding="UTF-8" standalone="no"?>
<svg xmlns:xlink="http://www.w3.org/1999/xlink" height="61.4px" width="33.65px" xmlns="http://www.w3.org/2000/svg">
  <g transform="matrix(1.0, 0.0, 0.0, 1.0, 18.3, 26.75)">
    <path d="M7.9 7.3 Q8.3 19.0 7.25 33.7 -8.15 37.6 -16.75 25.6 -16.85 16.2 -16.4 7.3 L7.9 7.3" fill="#a28fb1" fill-rule="evenodd" stroke="none"/>
    <path d="M7.9 7.3 L12.25 7.3 Q13.25 16.4 13.9 29.25 11.95 32.5 7.25 33.7 8.3 19.0 7.9 7.3" fill="#816c95" fill-rule="evenodd" stroke="none"/>
    <path d="M7.25 33.7 Q11.95 32.5 13.9 29.25 13.25 16.4 12.25 7.3" fill="none" stroke="#596d86" stroke-linecap="round" stroke-linejoin="round" stroke-width="0.05"/>
    <path d="M-16.4 7.3 Q-16.85 16.2 -16.75 25.6 -8.15 37.6 7.25 33.7 Z" fill="none" stroke="#596d86" stroke-linecap="round" stroke-linejoin="round" stroke-width="0.05"/>
    <path d="M-12.25 -20.05 Q-10.05 -18.8 -8.0 -18.0 -5.55 -16.85 -0.45 -16.85 L4.95 -16.75 5.5 -16.75 Q7.3 -5.7 8.15 4.0 9.15 16.75 8.15 29.55 -8.95 32.95 -18.0 20.45 -16.8 11.85 -15.75 2.2 -15.0 -6.05 -13.55 -13.8 L-12.25 -20.05" fill="#c6c7d0" fill-rule="evenodd" stroke="none"/>
    <path d="M5.5 -16.75 L6.8 -17.0 7.35 -17.2 Q10.2 -6.45 12.05 4.3 13.85 14.4 15.1 24.95 12.75 29.4 8.15 29.55 9.15 16.75 8.15 4.0 7.3 -5.7 5.5 -16.75" fill="#a8aab7" fill-rule="evenodd" stroke="none"/>
    <path d="M7.35 -17.2 Q10.2 -6.45 12.05 4.3 13.85 14.4 15.1 24.95 12.75 29.4 8.15 29.55 -8.95 32.95 -18.0 20.45 -16.8 11.85 -15.75 2.2 -15.0 -6.05 -13.55 -13.8 L-12.25 -20.05" fill="none" stroke="#cecece" stroke-linecap="round" stroke-linejoin="round" stroke-width="0.05"/>
    <path d="M5.6 -24.8 Q7.45 -13.65 8.3 -3.85 9.3 9.0 8.3 22.1 -9.1 26.9 -18.3 14.9 -17.1 6.05 -16.05 -3.85 -15.25 -12.35 -13.8 -20.35 L-12.45 -26.75 Q-10.2 -25.7 -8.15 -25.05 -5.65 -24.05 -0.45 -24.4 L5.05 -24.75 5.6 -24.8" fill="#ffffff" fill-rule="evenodd" stroke="none"/>
    <path d="M8.3 22.1 Q9.3 9.0 8.3 -3.85 7.45 -13.65 5.6 -24.8 L6.9 -25.15 7.45 -25.4 Q10.35 -14.65 12.25 -3.85 14.1 6.3 15.35 16.9 12.95 21.6 8.3 22.1" fill="#ececec" fill-rule="evenodd" stroke="none"/>
    <path d="M-12.45 -26.75 L-13.8 -20.35 Q-15.25 -12.35 -16.05 -3.85 -17.1 6.05 -18.3 14.9 -9.1 26.9 8.3 22.1 12.95 21.6 15.35 16.9 14.1 6.3 12.25 -3.85 10.35 -14.65 7.45 -25.4" fill="none" stroke="#cecece" stroke-linecap="round" stroke-linejoin="round" stroke-width="0.05"/>
    <path d="M-6.0 15.85 L-6.1 15.85 -6.1 14.35 -6.0 14.35 -6.0 14.4 -6.1 14.35 -6.0 14.4 -6.0 15.85" fill="#d26262" fill-rule="evenodd" stroke="none"/>
    <path d="M1.95 -26.15 L1.95 4.7 Q-2.45 6.1 -5.9 4.7 L-5.85 3.6 Q-9.3 2.85 -12.3 3.6 L-10.15 -26.3 1.95 -26.15 M-5.2 -25.35 L-5.85 3.6 -5.2 -25.35" fill="#ffff99" fill-rule="evenodd" stroke="none"/>
    <path d="M1.95 4.7 L1.95 16.35 Q-2.85 17.75 -6.0 15.85 L-6.0 14.4 -6.0 14.35 -6.1 14.35 Q-10.3 13.35 -13.0 13.45 L-12.3 3.6 Q-9.3 2.85 -5.85 3.6 L-5.9 4.7 -5.95 6.4 -5.9 4.7 Q-2.45 6.1 1.95 4.7 M-6.0 10.6 L-6.0 14.35 -6.0 10.6" fill="#fad37e" fill-rule="evenodd" stroke="none"/>
    <path d="M1.95 -26.15 L3.7 -26.1 3.6 20.7 Q-2.25 22.45 -6.1 20.15 L-6.1 18.35 -6.1 15.85 -6.1 18.35 Q-11.3 17.1 -14.6 17.2 L-11.85 -26.3 -10.15 -26.3 -12.3 3.6 -13.0 13.45 Q-10.3 13.35 -6.1 14.35 L-6.1 15.85 -6.0 15.85 Q-2.85 17.75 1.95 16.35 L1.95 4.7 1.95 -26.15" fill="#855b3f" fill-rule="evenodd" stroke="none"/>
    <path d="M1.95 -26.15 L1.95 4.7 1.95 16.35 Q-2.85 17.75 -6.0 15.85 L-6.0 14.4 -6.1 14.35 -6.1 15.85 -6.1 18.35 M-5.9 4.7 L-5.95 6.4 M-5.9 4.7 L-5.85 3.6 Q-9.3 2.85 -12.3 3.6 L-13.0 13.45 Q-10.3 13.35 -6.1 14.35 L-6.0 14.35 -6.0 10.6 M-6.0 14.4 L-6.0 14.35 M-5.85 3.6 L-5.2 -25.35 M-10.15 -26.3 L-12.3 3.6 M1.95 4.7 Q-2.45 6.1 -5.9 4.7" fill="none" stroke="#a36807" stroke-linecap="round" stroke-linejoin="round" stroke-width="0.05"/>
    <path d="M-6.1 18.35 L-6.1 20.15 Q-2.25 22.45 3.6 20.7 L3.7 -26.1 M-6.1 18.35 Q-11.3 17.1 -14.6 17.2 L-11.85 -26.3" fill="none" stroke="#4e3325" stroke-linecap="round" stroke-linejoin="round" stroke-width="0.05"/>
  </g>
</svg>
