<?xml version="1.0" encoding="UTF-8" standalone="no"?>
<svg xmlns:xlink="http://www.w3.org/1999/xlink" height="28.65px" width="14.3px" xmlns="http://www.w3.org/2000/svg">
  <g transform="matrix(1.0, 0.0, 0.0, 1.0, 4.15, 20.3)">
    <path d="M-2.35 -0.55 L-1.9 -0.55 -1.6 0.45 -2.35 -0.55 M3.45 0.75 Q2.05 0.3 0.25 1.15 1.6 -0.5 3.45 0.75" fill="#9b5e5e" fill-rule="evenodd" stroke="none"/>
    <path d="M-2.35 -0.55 L-1.6 0.45 -1.9 -0.55 M3.45 0.75 Q1.6 -0.5 0.25 1.15 2.05 0.3 3.45 0.75" fill="none" stroke="#4b2e2e" stroke-linecap="round" stroke-linejoin="round" stroke-width="0.05"/>
    <path d="M5.7 -0.1 L5.7 3.45 5.65 4.65 5.15 5.25 Q5.3 3.65 4.5 2.0 L5.2 0.0 5.7 -0.1 M4.5 7.35 L5.05 7.85 Q4.5 8.3 3.85 8.35 L4.5 7.35 M8.7 4.3 Q8.95 2.85 8.85 0.8 9.75 0.85 10.0 0.4 10.65 2.2 8.7 4.3 M0.7 0.65 L2.75 0.4 3.4 0.8 Q2.0 0.3 0.2 1.15 L0.7 0.65" fill="#9b5e5e" fill-rule="evenodd" stroke="none"/>
    <path d="M9.3 -18.75 L8.9 -18.2 8.55 -18.0 8.35 -17.9 7.75 -17.75 4.15 -17.3 0.5 -17.75 -0.3 -18.1 -0.8 -18.4 -0.95 -18.85 -1.0 -18.75 -1.0 -18.85 -1.0 -18.95 -0.75 -19.3 Q-0.4 -19.65 0.5 -19.9 L4.15 -20.3 7.75 -19.9 8.35 -19.7 8.8 -19.5 9.3 -18.8 9.3 -18.75" fill="#d0d1d9" fill-rule="evenodd" stroke="none"/>
    <path d="M9.3 -18.75 L9.35 -18.8 9.35 -18.75 10.05 0.15 10.0 0.4 Q9.75 0.85 8.85 0.8 8.95 2.85 8.7 4.3 L8.35 5.45 7.55 6.75 Q5.95 8.4 5.05 7.85 L4.5 7.35 4.2 6.9 Q3.95 5.9 5.15 5.25 L5.65 4.65 5.7 3.45 5.7 -0.1 5.7 -0.25 5.25 -0.25 5.05 -0.25 3.5 -0.15 0.25 -0.4 -0.1 -0.45 -1.6 -0.8 -1.65 -0.8 -2.8 -1.2 -2.85 -1.2 -3.15 -1.35 -3.45 -1.55 -3.5 -1.65 -3.65 -1.85 -3.7 -1.95 -3.75 -2.1 -3.75 -2.2 -3.75 -2.3 -3.7 -2.6 -3.7 -2.65 -0.95 -18.85 -0.8 -18.4 -0.3 -18.1 0.5 -17.75 4.15 -17.3 7.75 -17.75 8.35 -17.9 8.55 -18.0 8.9 -18.2 9.3 -18.75" fill="#c6c7d0" fill-rule="evenodd" stroke="none"/>
    <path d="M-3.75 -2.1 L-3.7 -1.95 -3.65 -1.85 -3.5 -1.65 -3.45 -1.55 -3.15 -1.35 -2.85 -1.2 -2.8 -1.2 -1.65 -0.8 -1.6 -0.8 -0.1 -0.45 0.25 -0.4 3.5 -0.15 5.05 -0.25 5.25 -0.25 5.7 -0.25 5.7 -0.1 5.2 0.0 2.75 0.4 0.7 0.65 -3.4 0.35 -3.45 0.3 -3.7 0.1 Q-4.6 -0.6 -3.75 -2.1" fill="#a8aab7" fill-rule="evenodd" stroke="none"/>
    <path d="M0.7 0.65 L0.2 1.15 Q2.0 0.3 3.4 0.8 L2.75 0.4 M4.5 7.35 L3.85 8.35 Q4.5 8.3 5.05 7.85 M5.2 0.0 L4.5 2.0 Q5.3 3.65 5.15 5.25 M8.7 4.3 Q10.65 2.2 10.0 0.4" fill="none" stroke="#4b2e2e" stroke-linecap="round" stroke-linejoin="round" stroke-width="0.05"/>
    <path d="M-3.7 0.1 L-3.45 0.3" fill="none" stroke="#912b5f" stroke-linecap="round" stroke-linejoin="round" stroke-width="0.05"/>
    <path d="M9.35 -18.75 L9.35 -18.8 9.3 -18.75 9.3 -18.8 8.8 -19.5 8.35 -19.7 7.75 -19.9 4.15 -20.3 0.5 -19.9 Q-0.4 -19.65 -0.75 -19.3 L-1.0 -18.95 -1.0 -18.85 -1.0 -18.75 -0.95 -18.85 M-3.75 -2.3 L-3.75 -2.2 -3.75 -2.1 Q-4.6 -0.6 -3.7 0.1 M5.7 -0.1 L5.7 3.45 M5.65 4.65 L5.15 5.25 Q3.95 5.9 4.2 6.9 L4.5 7.35 5.05 7.85 Q5.95 8.4 7.55 6.75 L8.35 5.45 M8.7 4.3 Q8.95 2.85 8.85 0.8 M-3.45 0.3 L-3.4 0.35 0.7 0.65 2.75 0.4 5.2 0.0 5.7 -0.1" fill="none" stroke="#7d8193" stroke-linecap="round" stroke-linejoin="round" stroke-width="0.05"/>
    <path d="M-0.95 -18.85 L-3.7 -2.65 -3.7 -2.6 -3.75 -2.3 M5.7 3.45 L5.65 4.65 M8.85 0.8 Q9.75 0.85 10.0 0.4 L10.05 0.15 9.35 -18.75" fill="none" stroke="#7d8193" stroke-linecap="round" stroke-linejoin="round" stroke-width="0.05"/>
    <path d="M8.35 5.45 L8.7 4.3" fill="none" stroke="#999999" stroke-linecap="round" stroke-linejoin="round" stroke-width="0.05"/>
    <path d="M-4.15 4.6 Q-3.35 3.7 -3.2 3.0 L-2.5 5.55 -2.35 6.6 Q-4.0 6.35 -4.15 4.6" fill="#6c7280" fill-rule="evenodd" stroke="none"/>
    <path d="M-4.15 4.6 Q-4.0 6.35 -2.35 6.6 L-2.5 5.55 -3.2 3.0 Q-3.35 3.7 -4.15 4.6 Z" fill="none" stroke="#912b5f" stroke-linecap="round" stroke-linejoin="round" stroke-width="0.05"/>
    <path d="M1.65 -4.6 L1.65 -4.55 1.55 -4.4 1.4 -4.35 1.25 -4.4 1.2 -4.4 1.1 -4.55 1.2 -4.7 1.25 -4.75 1.4 -4.75 1.55 -4.7 1.65 -4.6" fill="#ffffff" fill-rule="evenodd" stroke="none"/>
    <path d="M1.25 -4.4 L1.05 -3.95 Q1.1 -3.7 1.3 -3.55 1.5 -3.4 1.8 -3.4 2.1 -3.45 2.25 -3.6 L2.45 -4.05 2.25 -4.45 1.75 -4.6 1.65 -4.6 1.55 -4.7 1.4 -4.75 1.25 -4.75 1.2 -4.7 1.1 -4.55 1.2 -4.4 1.25 -4.4 M2.65 -4.25 L2.4 -3.6 2.25 -3.45 1.7 -3.25 Q1.35 -3.25 1.05 -3.55 L0.95 -3.6 0.75 -4.2 0.9 -4.8 1.0 -4.9 1.65 -5.2 2.35 -4.95 2.55 -4.6 2.65 -4.25" fill="#bb7855" fill-rule="evenodd" stroke="none"/>
    <path d="M1.25 -4.4 L1.4 -4.35 1.55 -4.4 1.65 -4.55 1.65 -4.6 1.75 -4.6 2.25 -4.45 2.45 -4.05 2.25 -3.6 Q2.1 -3.45 1.8 -3.4 1.5 -3.4 1.3 -3.55 1.1 -3.7 1.05 -3.95 L1.25 -4.4" fill="#7c4632" fill-rule="evenodd" stroke="none"/>
    <path d="M-3.6 -5.55 L-3.65 -5.55 -3.75 -5.7 -3.65 -5.85 -3.6 -5.9 -3.45 -5.9 -3.3 -5.85 -3.2 -5.75 -3.2 -5.7 -3.3 -5.55 -3.45 -5.5 -3.6 -5.55" fill="#ffffff" fill-rule="evenodd" stroke="none"/>
    <path d="M-3.2 -5.75 L-3.3 -5.85 -3.45 -5.9 -3.6 -5.9 -3.65 -5.85 -3.75 -5.7 -3.65 -5.55 -3.6 -5.55 -3.8 -5.1 -3.55 -4.7 -3.05 -4.55 Q-2.75 -4.6 -2.6 -4.75 L-2.4 -5.2 -2.6 -5.6 -3.1 -5.75 -3.2 -5.75 M-2.2 -5.4 L-2.45 -4.75 -2.6 -4.6 Q-2.8 -4.45 -3.15 -4.4 -3.5 -4.4 -3.8 -4.7 L-3.9 -4.75 -4.1 -5.35 -3.95 -5.95 -3.85 -6.05 -3.2 -6.35 Q-2.8 -6.4 -2.5 -6.1 L-2.3 -5.75 -2.2 -5.4" fill="#bb7855" fill-rule="evenodd" stroke="none"/>
    <path d="M-3.2 -5.75 L-3.1 -5.75 -2.6 -5.6 -2.4 -5.2 -2.6 -4.75 Q-2.75 -4.6 -3.05 -4.55 L-3.55 -4.7 -3.8 -5.1 -3.6 -5.55 -3.45 -5.5 -3.3 -5.55 -3.2 -5.7 -3.2 -5.75" fill="#7c4632" fill-rule="evenodd" stroke="none"/>
    <path d="M-2.2 -10.75 L-2.2 -10.7 -2.3 -10.55 -2.45 -10.5 -2.6 -10.55 -2.65 -10.55 -2.75 -10.7 -2.65 -10.85 -2.6 -10.9 -2.45 -10.9 -2.3 -10.85 -2.2 -10.75" fill="#ffffff" fill-rule="evenodd" stroke="none"/>
    <path d="M-2.6 -10.55 L-2.8 -10.1 -2.55 -9.7 Q-2.35 -9.55 -2.05 -9.55 -1.75 -9.6 -1.6 -9.75 L-1.4 -10.2 -1.6 -10.6 -2.1 -10.75 -2.2 -10.75 -2.3 -10.85 -2.45 -10.9 -2.6 -10.9 -2.65 -10.85 -2.75 -10.7 -2.65 -10.55 -2.6 -10.55 M-1.2 -10.4 L-1.45 -9.75 -1.6 -9.6 Q-1.8 -9.45 -2.15 -9.4 -2.5 -9.4 -2.8 -9.7 L-2.9 -9.75 -3.1 -10.35 -2.95 -10.95 -2.85 -11.05 -2.2 -11.35 Q-1.8 -11.4 -1.5 -11.1 L-1.3 -10.75 -1.2 -10.4" fill="#bb7855" fill-rule="evenodd" stroke="none"/>
    <path d="M-2.6 -10.55 L-2.45 -10.5 -2.3 -10.55 -2.2 -10.7 -2.2 -10.75 -2.1 -10.75 -1.6 -10.6 -1.4 -10.2 -1.6 -9.75 Q-1.75 -9.6 -2.05 -9.55 -2.35 -9.55 -2.55 -9.7 L-2.8 -10.1 -2.6 -10.55" fill="#7c4632" fill-rule="evenodd" stroke="none"/>
    <path d="M1.5 -9.95 L1.45 -9.95 1.35 -10.1 1.45 -10.25 1.5 -10.3 1.65 -10.3 1.8 -10.25 1.9 -10.15 1.9 -10.1 1.8 -9.95 1.65 -9.9 1.5 -9.95" fill="#ffffff" fill-rule="evenodd" stroke="none"/>
    <path d="M1.9 -10.15 L1.8 -10.25 1.65 -10.3 1.5 -10.3 1.45 -10.25 1.35 -10.1 1.45 -9.95 1.5 -9.95 1.3 -9.5 Q1.35 -9.25 1.55 -9.1 1.75 -8.95 2.05 -8.95 2.35 -9.0 2.5 -9.15 L2.7 -9.6 2.5 -10.0 2.0 -10.15 1.9 -10.15 M2.9 -9.8 L2.65 -9.15 2.5 -9.0 1.95 -8.8 Q1.6 -8.8 1.3 -9.1 L1.2 -9.15 1.0 -9.75 1.15 -10.35 1.25 -10.45 Q1.5 -10.75 1.9 -10.75 L2.6 -10.5 2.8 -10.15 2.9 -9.8" fill="#bb7855" fill-rule="evenodd" stroke="none"/>
    <path d="M1.9 -10.15 L2.0 -10.15 2.5 -10.0 2.7 -9.6 2.5 -9.15 Q2.35 -9.0 2.05 -8.95 1.75 -8.95 1.55 -9.1 1.35 -9.25 1.3 -9.5 L1.5 -9.95 1.65 -9.9 1.8 -9.95 1.9 -10.1 1.9 -10.15" fill="#7c4632" fill-rule="evenodd" stroke="none"/>
  </g>
</svg>
