<?xml version="1.0" encoding="UTF-8" standalone="no"?>
<svg xmlns:xlink="http://www.w3.org/1999/xlink" height="31.1px" width="21.15px" xmlns="http://www.w3.org/2000/svg">
  <g transform="matrix(1.0, 0.0, 0.0, 1.0, 11.35, 13.15)">
    <path d="M0.45 -7.3 L-4.85 -6.95 -5.25 -7.65 -5.35 -7.8 -5.35 -7.85 -5.35 -7.9 -5.25 -8.65 -5.2 -8.75 Q-4.85 -11.05 -5.3 -12.75 -0.7 -13.6 2.4 -12.7 L2.2 -11.3 2.2 -11.05 Q2.1 -9.6 2.35 -8.25 1.7 -8.15 0.45 -7.3 M-6.25 -8.0 L-6.3 -8.65 -5.25 -8.75 -5.25 -8.65 -6.25 -8.0" fill="#ffd0ae" fill-rule="evenodd" stroke="none"/>
    <path d="M2.95 -7.5 L3.0 -7.45 0.45 -7.3 Q1.7 -8.15 2.35 -8.25 L2.5 -7.65 2.95 -7.5 M-4.85 -6.95 L-6.2 -6.85 -6.25 -8.0 -5.25 -8.65 -5.35 -7.9 -5.35 -7.85 -5.35 -7.8 -5.25 -7.65 -4.85 -6.95" fill="#ffdfc8" fill-rule="evenodd" stroke="none"/>
    <path d="M-5.25 -8.75 L-5.2 -8.75 -5.25 -8.65 -5.25 -8.75" fill="#eebf5a" fill-rule="evenodd" stroke="none"/>
    <path d="M-6.3 -8.65 L-5.25 -8.75 -5.2 -8.75 Q-4.85 -11.05 -5.3 -12.75 -0.7 -13.6 2.4 -12.7 L2.2 -11.3 2.2 -11.05 Q2.1 -9.6 2.35 -8.25 L2.5 -7.65 2.95 -7.5 M-5.2 -8.75 L-5.25 -8.65 -5.35 -7.9 -5.35 -7.85 -5.35 -7.8" fill="none" stroke="#d7995e" stroke-linecap="round" stroke-linejoin="round" stroke-width="0.05"/>
    <path d="M4.2 14.7 Q5.55 14.35 6.25 13.8 7.25 14.8 6.8 16.2 3.85 17.95 -1.05 17.95 L-2.25 17.9 -4.2 17.55 Q-4.95 15.8 -4.3 14.8 L-4.1 14.85 -3.75 14.95 -1.35 15.1 -1.1 15.1 3.8 14.8 3.9 14.75 4.2 14.7" fill="#684942" fill-rule="evenodd" stroke="none"/>
    <path d="M-4.85 14.65 L-4.3 14.8 Q-4.95 15.8 -4.2 17.55 -6.15 17.1 -7.35 16.35 L-8.45 15.4 Q-8.9 13.75 -8.3 12.65 L-8.25 12.5 -8.1 12.3 -8.0 12.5 -7.95 12.65 -7.5 13.2 -7.3 13.4 Q-6.45 14.1 -4.85 14.65" fill="#956c5e" fill-rule="evenodd" stroke="none"/>
    <path d="M4.55 -4.9 L4.65 -5.2 4.85 -6.05 4.9 -6.6 5.55 -6.35 5.95 -6.1 7.3 -5.3 Q10.0 -3.9 9.75 -2.7 L9.8 -1.9 9.7 0.05 9.7 0.2 9.65 0.8 9.25 3.1 Q8.75 5.15 7.9 7.05 L6.7 9.15 7.3 12.25 6.25 13.8 Q5.55 14.35 4.2 14.7 4.85 14.2 5.25 13.1 L4.65 10.0 6.15 7.15 Q6.95 5.3 7.35 3.2 L7.65 0.9 7.75 -1.05 7.7 -1.85 Q7.85 -2.65 6.75 -3.55 L5.25 -4.45 4.55 -4.9" fill="#c5c5c5" fill-rule="evenodd" stroke="none"/>
    <path d="M4.9 -6.6 L4.85 -6.05 4.65 -5.2 4.55 -4.9 5.25 -4.45 6.75 -3.55 Q7.85 -2.65 7.7 -1.85 L7.75 -1.05 7.65 0.9 7.35 3.2 Q6.95 5.3 6.15 7.15 L4.65 10.0 5.25 13.1 Q4.85 14.2 4.2 14.7 L3.9 14.75 3.8 14.8 -1.1 15.1 -1.35 15.1 -3.75 14.95 -4.1 14.85 -4.3 14.8 -4.85 14.65 Q-6.45 11.6 -5.15 7.85 -6.85 -0.2 -4.05 -3.45 -6.85 -0.2 -5.15 7.85 -6.45 11.6 -4.85 14.65 -6.45 14.1 -7.3 13.4 L-7.5 13.2 -7.95 12.65 -8.0 12.5 -8.1 12.3 Q-9.0 11.15 -8.6 9.5 L-8.5 9.05 -8.4 8.7 -9.0 2.65 -9.45 2.0 -9.7 1.65 Q-11.05 -0.6 -10.85 -3.0 L-10.45 -5.15 Q-10.0 -6.55 -9.0 -8.0 L-8.95 -8.1 -8.6 -8.2 -8.2 -8.3 -7.8 -8.4 -7.7 -8.4 -7.6 -8.45 -7.6 -8.35 -7.6 -8.2 -7.8 -6.2 -7.75 -6.15 Q-7.0 -4.25 -4.5 -3.55 L-4.05 -3.45 -2.3 -3.7 Q2.1 -4.45 4.9 -6.6" fill="#eaeaea" fill-rule="evenodd" stroke="none"/>
    <path d="M3.45 -10.8 L4.05 -6.8 3.95 -6.7 Q1.5 -4.55 -2.3 -3.8 L-3.8 -3.55 -4.2 -3.65 Q-6.4 -4.35 -7.05 -6.25 L-7.05 -6.3 -6.75 -10.05 Q-6.75 -9.55 -5.2 -9.3 L-5.15 -9.3 -4.8 -9.25 Q-3.4 -9.1 -1.55 -9.25 L1.45 -9.7 2.0 -9.85 2.1 -9.85 Q3.45 -10.3 3.45 -10.8" fill="#54833f" fill-rule="evenodd" stroke="none"/>
    <path d="M2.1 -9.85 L2.15 -11.5 Q3.45 -11.25 3.45 -10.8 3.45 -10.3 2.1 -9.85 M-6.75 -10.05 Q-6.8 -10.55 -5.3 -11.0 -5.05 -11.05 -5.05 -11.15 L-5.15 -9.3 -5.2 -9.3 Q-6.75 -9.55 -6.75 -10.05" fill="#324e25" fill-rule="evenodd" stroke="none"/>
    <path d="M4.9 -6.6 L4.85 -6.05 4.65 -5.2 4.55 -4.9 M-4.05 -3.45 Q-6.85 -0.2 -5.15 7.85 -6.45 11.6 -4.85 14.65 L-4.3 14.8 -4.1 14.85 -3.75 14.95 -1.35 15.1 -1.1 15.1 3.8 14.8 3.9 14.75 M-8.95 -8.1 L-8.6 -8.2 -8.2 -8.3 -7.8 -8.4 -7.7 -8.4 -7.6 -8.45 M-8.1 12.3 Q-9.0 11.15 -8.6 9.5 L-8.5 9.05 -8.4 8.7 -9.0 2.65 M-8.1 12.3 L-8.0 12.5 -7.95 12.65 -7.5 13.2 -7.3 13.4 Q-6.45 14.1 -4.85 14.65" fill="none" stroke="#548584" stroke-linecap="round" stroke-linejoin="round" stroke-width="0.05"/>
    <path d="M6.25 13.8 L7.3 12.25 6.7 9.15 7.9 7.05 Q8.75 5.15 9.25 3.1 L9.65 0.8 9.7 0.2 9.7 0.05 9.8 -1.9 9.75 -2.7 Q10.0 -3.9 7.3 -5.3 L5.95 -6.1 5.55 -6.35 4.9 -6.6 M-9.0 -8.0 L-8.95 -8.1 M-9.0 2.65 L-9.45 2.0 -9.7 1.65 Q-11.05 -0.6 -10.85 -3.0" fill="none" stroke="#a0a0a0" stroke-linecap="round" stroke-linejoin="round" stroke-width="0.05"/>
    <path d="M4.2 14.7 Q5.55 14.35 6.25 13.8 7.25 14.8 6.8 16.2 3.85 17.95 -1.05 17.95 L-2.25 17.9 -4.2 17.55 Q-6.15 17.1 -7.35 16.35 L-8.45 15.4 Q-8.9 13.75 -8.3 12.65 L-8.25 12.5 -8.1 12.3 M3.9 14.75 L4.2 14.7" fill="none" stroke="#3f2c27" stroke-linecap="round" stroke-linejoin="round" stroke-width="0.05"/>
    <path d="M2.15 -11.5 Q3.45 -11.25 3.45 -10.8 L4.05 -6.8 3.95 -6.7 Q1.5 -4.55 -2.3 -3.8 L-3.8 -3.55 -4.2 -3.65 Q-6.4 -4.35 -7.05 -6.25 L-7.05 -6.3 -6.75 -10.05 Q-6.8 -10.55 -5.3 -11.0 -5.05 -11.05 -5.05 -11.15 M-5.15 -9.3 L-4.8 -9.25 Q-3.4 -9.1 -1.55 -9.25 L1.45 -9.7 2.0 -9.85 2.1 -9.85 Q3.45 -10.3 3.45 -10.8 M-5.15 -9.3 L-5.2 -9.3 Q-6.75 -9.55 -6.75 -10.05" fill="none" stroke="#324824" stroke-linecap="round" stroke-linejoin="round" stroke-width="0.05"/>
    <path d="M4.3 -4.1 L4.3 -4.0 2.7 -3.0 -0.7 -1.5 -3.45 -0.75 -7.0 -0.4 -9.1 -1.3 -9.3 -1.5 -9.35 -1.5 -9.85 -2.3 -9.2 -1.55 -7.7 -1.1 -5.85 -1.0 -3.45 -1.15 Q-1.4 -1.55 0.55 -2.35 1.9 -2.95 3.0 -3.85 4.0 -4.6 5.15 -4.75 5.6 -4.75 6.15 -5.05 L6.4 -5.55 6.85 -6.9 6.65 -5.15 5.55 -4.35 4.9 -4.2 4.3 -4.1" fill="#cccccc" fill-rule="evenodd" stroke="none"/>
    <path d="M6.85 -6.9 L6.85 -7.3 6.85 -6.9 6.4 -5.55 6.15 -5.05 Q5.6 -4.75 5.15 -4.75 4.0 -4.6 3.0 -3.85 1.9 -2.95 0.55 -2.35 -1.4 -1.55 -3.45 -1.15 L-5.85 -1.0 -7.7 -1.1 -9.2 -1.55 -9.85 -2.3 -9.35 -1.5 -9.3 -1.5 -9.1 -1.3 -7.0 -0.4 -3.45 -0.75 -0.7 -1.5 2.7 -3.0 4.3 -4.0 4.3 -4.1 4.9 -4.2 5.55 -4.35 6.65 -5.15 6.85 -6.9 M4.3 -8.8 Q6.1 -9.05 6.85 -7.3 L8.9 -5.7 9.7 -4.5 Q9.25 -2.3 8.15 -1.55 L6.35 -0.4 Q5.6 -0.05 4.1 -1.4 L3.35 -2.1 Q-4.45 1.95 -8.7 0.55 L-10.1 -1.1 Q-11.15 -2.4 -11.3 -3.75 -11.45 -5.1 -11.1 -6.1 L-10.35 -7.6 Q-9.95 -8.05 -8.35 -8.25 L-8.35 -8.3 Q-8.5 -9.25 -6.75 -10.05 -7.45 -6.3 -4.45 -6.05 L0.8 -6.6 Q1.7 -6.85 2.55 -7.4 L3.35 -8.0 4.3 -8.8 M1.0 -4.2 L-2.4 -3.45 Q-4.2 -3.15 -5.95 -3.45 -7.75 -3.85 -8.7 -5.3 L-8.85 -6.6 Q-8.9 -7.7 -8.35 -8.25 -8.9 -7.7 -8.85 -6.6 L-8.7 -5.3 Q-7.75 -3.85 -5.95 -3.45 -4.2 -3.15 -2.4 -3.45 L1.0 -4.2" fill="#ffffff" fill-rule="evenodd" stroke="none"/>
    <path d="M6.85 -7.3 L6.85 -6.9 6.65 -5.15 5.55 -4.35 4.9 -4.2 4.3 -4.1 M4.3 -4.0 L2.7 -3.0 -0.7 -1.5 -3.45 -0.75 -7.0 -0.4 M4.3 -8.8 Q6.1 -9.05 6.85 -7.3 L8.9 -5.7 9.7 -4.5 Q9.25 -2.3 8.15 -1.55 L6.35 -0.4 Q5.6 -0.05 4.1 -1.4 L3.35 -2.1 Q-4.45 1.95 -8.7 0.55 L-10.1 -1.1 Q-11.15 -2.4 -11.3 -3.75 -11.45 -5.1 -11.1 -6.1 L-10.35 -7.6 Q-9.95 -8.05 -8.35 -8.25 L-8.35 -8.3 Q-8.5 -9.25 -6.75 -10.05 -7.45 -6.3 -4.45 -6.05 L0.8 -6.6 Q1.7 -6.85 2.55 -7.4 L3.35 -8.0 4.3 -8.8 M-8.35 -8.25 Q-8.9 -7.7 -8.85 -6.6 L-8.7 -5.3 Q-7.75 -3.85 -5.95 -3.45 -4.2 -3.15 -2.4 -3.45 L1.0 -4.2" fill="none" stroke="#666666" stroke-linecap="round" stroke-linejoin="round" stroke-width="0.05"/>
    <path d="M1.0 -2.2 L0.9 -2.75 0.9 -3.1 Q0.85 -4.25 1.45 -5.15 L2.35 -6.0 2.75 -6.15 2.85 -6.15 3.0 -6.2 3.45 -6.15 Q4.05 -6.05 4.55 -5.45 5.25 -4.65 5.3 -3.45 5.3 -2.25 4.7 -1.35 4.1 -0.45 3.2 -0.4 L2.6 -0.4 1.6 -1.1 1.5 -1.2 1.1 -1.9 1.1 -1.95 1.0 -2.2" fill="#edd585" fill-rule="evenodd" stroke="none"/>
    <path d="M1.0 -2.2 L0.9 -2.75 0.9 -3.1 Q0.85 -4.25 1.45 -5.15 L2.35 -6.0 2.75 -6.15 2.85 -6.15 3.0 -6.2 3.45 -6.15 Q4.05 -6.05 4.55 -5.45 5.25 -4.65 5.3 -3.45 5.3 -2.25 4.7 -1.35 4.1 -0.45 3.2 -0.4 L2.6 -0.4 1.6 -1.1 1.5 -1.2 1.1 -1.9 1.0 -2.2 Z" fill="none" stroke="#796111" stroke-linecap="round" stroke-linejoin="round" stroke-width="0.05"/>
  </g>
</svg>
