<?xml version="1.0" encoding="UTF-8" standalone="no"?>
<svg xmlns:xlink="http://www.w3.org/1999/xlink" height="16.45px" width="14.35px" xmlns="http://www.w3.org/2000/svg">
  <g transform="matrix(1.0, 0.0, 0.0, 1.0, 3.05, 11.9)">
    <path d="M9.65 -0.4 L9.65 -0.3 9.65 0.2 9.6 0.3 9.6 0.35 Q9.1 2.8 8.2 4.05 L8.05 4.2 7.65 4.55 Q8.15 2.8 7.75 1.85 L6.55 1.9 Q6.3 0.05 5.0 4.3 4.55 2.45 4.5 0.3 2.35 -1.85 -0.25 -1.4 L-1.1 -2.25 -2.0 -2.3 -2.15 -2.1 Q-1.95 -3.55 -1.35 -4.65 L-0.95 -5.15 Q-0.4 -5.5 0.2 -4.2 0.75 -6.95 3.4 -5.9 4.8 -7.75 5.75 -5.3 8.95 -6.75 8.05 -4.0 9.4 -4.3 9.5 -2.7 L9.65 -0.75 9.65 -0.4 9.65 0.2 9.65 -0.4 M3.6 0.95 Q2.4 0.5 0.8 1.35 2.0 -0.3 3.6 0.95 M-2.25 -0.85 Q-1.0 -1.15 -0.8 0.65 -1.45 -0.7 -2.25 -0.85" fill="#9b5e5e" fill-rule="evenodd" stroke="none"/>
    <path d="M-2.15 -2.1 L-2.2 -2.05 -2.35 -1.8 Q-1.45 -5.4 -3.05 -7.65 -2.5 -7.9 -1.55 -7.25 L-1.6 -9.3 -0.1 -7.5 Q1.05 -8.65 1.4 -10.7 L3.35 -8.85 Q4.55 -9.85 4.6 -11.9 5.75 -10.5 5.7 -8.25 7.55 -7.75 8.7 -8.95 9.15 -7.6 8.05 -6.95 10.25 -7.05 11.3 -4.8 9.8 -4.6 9.65 -0.4 L9.65 -0.75 9.5 -2.7 Q9.4 -4.3 8.05 -4.0 8.95 -6.75 5.75 -5.3 4.8 -7.75 3.4 -5.9 0.75 -6.95 0.2 -4.2 -0.4 -5.5 -0.95 -5.15 L-1.35 -4.65 Q-1.95 -3.55 -2.15 -2.1" fill="#b98e8e" fill-rule="evenodd" stroke="none"/>
    <path d="M-2.15 -2.1 L-2.2 -2.05 -2.35 -1.8 Q-1.45 -5.4 -3.05 -7.65 -2.5 -7.9 -1.55 -7.25 L-1.6 -9.3 -0.1 -7.5 Q1.05 -8.65 1.4 -10.7 L3.35 -8.85 Q4.55 -9.85 4.6 -11.9 5.75 -10.5 5.7 -8.25 7.55 -7.75 8.7 -8.95 9.15 -7.6 8.05 -6.95 10.25 -7.05 11.3 -4.8 9.8 -4.6 9.65 -0.4 L9.65 0.2 9.6 0.3 9.6 0.35 Q9.1 2.8 8.2 4.05 L8.05 4.2 7.65 4.55 Q8.15 2.8 7.75 1.85 L6.55 1.9 Q6.3 0.05 5.0 4.3 4.55 2.45 4.5 0.3 2.35 -1.85 -0.25 -1.4 L-1.1 -2.25 -2.0 -2.3 -2.15 -2.1 M9.65 -0.3 L9.65 0.2 M3.6 0.95 Q2.0 -0.3 0.8 1.35 2.4 0.5 3.6 0.95 M-2.25 -0.85 Q-1.0 -1.15 -0.8 0.65 -1.45 -0.7 -2.25 -0.85" fill="none" stroke="#4b2e2e" stroke-linecap="round" stroke-linejoin="round" stroke-width="0.05"/>
    <path d="M9.9 -0.4 Q9.8 3.1 8.35 3.85 L7.9 3.3 Q8.0 2.4 7.75 1.85 7.3 1.45 6.85 1.65 4.0 -1.2 -2.4 -1.2 -2.65 -2.35 -2.05 -4.4 4.05 -5.7 9.9 -0.4" fill="#d5c1b5" fill-rule="evenodd" stroke="none"/>
    <path d="M9.9 -0.4 Q4.05 -5.7 -2.05 -4.4 -2.65 -2.35 -2.4 -1.2 4.0 -1.2 6.85 1.65 7.3 1.45 7.75 1.85 8.0 2.4 7.9 3.3 L8.35 3.85 Q9.8 3.1 9.9 -0.4 Z" fill="none" stroke="#0f2446" stroke-linecap="round" stroke-linejoin="round" stroke-width="0.05"/>
  </g>
</svg>
