<?xml version="1.0" encoding="UTF-8" standalone="no"?>
<svg xmlns:xlink="http://www.w3.org/1999/xlink" height="22.35px" width="9.4px" xmlns="http://www.w3.org/2000/svg">
  <g transform="matrix(1.0, 0.0, 0.0, 1.0, 8.2, 1.85)">
    <path d="M0.8 8.9 L1.2 16.85 0.75 19.4 Q-4.75 22.1 -7.85 18.15 -8.3 16.55 -8.15 15.85 L-7.25 10.25 Q-6.95 8.45 -6.75 4.0 L-4.35 3.75 Q0.35 3.7 0.8 8.9" fill="#b4adc5" fill-rule="evenodd" stroke="none"/>
    <path d="M-6.75 4.0 Q-6.6 0.15 -5.3 -1.5 L-4.0 -1.75 Q-1.9 -2.1 -0.3 -1.25 L0.1 0.55 Q0.45 2.2 0.8 8.9 0.35 3.7 -4.35 3.75 L-6.75 4.0" fill="#a49cb8" fill-rule="evenodd" stroke="none"/>
    <path d="M-6.75 4.0 Q-6.6 0.15 -5.3 -1.5 L-4.0 -1.75 Q-1.9 -2.1 -0.3 -1.25 L0.1 0.55 Q0.45 2.2 0.8 8.9 L1.2 16.85 0.75 19.4 M-7.85 18.15 Q-8.3 16.55 -8.15 15.85 L-7.25 10.25 Q-6.95 8.45 -6.75 4.0 Z" fill="none" stroke="#564e6d" stroke-linecap="round" stroke-linejoin="round" stroke-width="0.05"/>
  </g>
</svg>
