<?xml version="1.0" encoding="UTF-8" standalone="no"?>
<svg xmlns:xlink="http://www.w3.org/1999/xlink" height="31.1px" width="20.7px" xmlns="http://www.w3.org/2000/svg">
  <g transform="matrix(1.0, 0.0, 0.0, 1.0, 10.9, 13.15)">
    <path d="M-5.25 -8.65 L-6.25 -8.0 -7.6 -8.45 -5.25 -8.75 -5.25 -8.65" fill="#ffd0ae" fill-rule="evenodd" stroke="none"/>
    <path d="M-5.25 -8.75 L-5.2 -8.75 -5.25 -8.65 -5.25 -8.75" fill="#eebf5a" fill-rule="evenodd" stroke="none"/>
    <path d="M2.35 -8.25 L2.55 -7.7 Q2.7 -7.5 5.8 -6.1 6.05 -4.4 4.25 -1.9 L-7.95 -1.9 Q-8.65 -3.7 -8.75 -5.1 L-8.75 -5.55 Q-8.8 -7.4 -7.6 -8.45 L-6.25 -8.0 -5.25 -8.65 -5.35 -7.9 -5.35 -7.85 -5.35 -7.8 -5.25 -7.65 -4.85 -6.95 0.45 -7.3 Q1.7 -8.15 2.35 -8.25" fill="#fbdab3" fill-rule="evenodd" stroke="none"/>
    <path d="M2.35 -8.25 Q1.7 -8.15 0.45 -7.3 L-4.85 -6.95 -5.25 -7.65 -5.35 -7.8 -5.35 -7.85 -5.35 -7.9 -5.25 -8.65 -5.2 -8.75 Q-4.85 -11.05 -5.3 -12.75 -0.7 -13.6 2.4 -12.7 L2.2 -11.3 2.2 -11.05 Q2.1 -9.6 2.35 -8.25" fill="#fac98f" fill-rule="evenodd" stroke="none"/>
    <path d="M-7.6 -8.45 Q-8.8 -7.4 -8.75 -5.55 L-8.75 -5.1 Q-8.65 -3.7 -7.95 -1.9 L4.25 -1.9 Q6.05 -4.4 5.8 -6.1 2.7 -7.5 2.55 -7.7 L2.35 -8.25 Q2.1 -9.6 2.2 -11.05 L2.2 -11.3 2.4 -12.7 Q-0.7 -13.6 -5.3 -12.75 -4.85 -11.05 -5.2 -8.75 L-5.25 -8.75 -7.6 -8.45 M-5.35 -7.8 L-5.35 -7.85 -5.35 -7.9 -5.25 -8.65 -5.2 -8.75" fill="none" stroke="#674743" stroke-linecap="round" stroke-linejoin="round" stroke-width="0.05"/>
    <path d="M-7.65 -8.45 L-7.6 -8.45 -7.65 -8.4 -7.65 -8.45" fill="#c1a49d" fill-rule="evenodd" stroke="none"/>
    <path d="M3.8 -7.0 L4.75 -6.6 Q3.6 -6.25 3.0 -5.35 -0.25 -1.9 -4.6 -2.95 -7.35 -3.6 -7.65 -6.3 L-7.6 -8.45 -6.75 -8.6 Q-7.05 -4.85 -4.8 -4.0 -0.6 -3.35 1.15 -4.8 L3.8 -7.0 M-9.8 1.5 L-9.8 1.45 -9.8 1.5 -9.8 1.45 -9.8 1.5" fill="#fbf8f7" fill-rule="evenodd" stroke="none"/>
    <path d="M4.75 -6.6 L4.8 -6.6 6.0 -6.1 Q5.3 -5.65 4.75 -4.7 L4.4 -4.85 3.0 -5.35 Q3.6 -6.25 4.75 -6.6 M7.75 7.85 L7.7 7.9 7.65 7.85 7.75 7.85" fill="#bb9c8c" fill-rule="evenodd" stroke="none"/>
    <path d="M6.0 -6.1 L6.15 -6.0 6.6 -5.75 6.75 -5.65 6.8 -5.6 7.3 -5.3 7.6 -5.15 6.0 7.6 4.65 10.0 5.25 13.1 Q4.85 14.2 4.2 14.7 L3.9 14.75 3.8 14.8 -1.1 15.1 -1.35 15.1 -3.75 14.95 -4.1 14.85 -4.3 14.8 Q-6.35 14.2 -7.3 13.4 L-7.5 13.2 -7.95 12.65 -8.0 12.5 -8.1 12.3 Q-8.85 11.3 -8.4 4.4 L-8.35 3.5 -9.45 2.0 -9.7 1.65 -9.8 1.5 -9.8 1.45 -10.65 -0.55 Q-10.95 -1.75 -10.85 -3.0 L-10.8 -3.65 -10.7 -4.15 -10.55 -4.7 -10.45 -5.15 -10.35 -5.45 -10.05 -6.15 -10.0 -6.3 -9.15 -7.75 -9.0 -8.0 -8.95 -8.1 -8.9 -8.15 -8.6 -8.2 -8.3 -8.3 -8.2 -8.3 -7.8 -8.4 -7.7 -8.4 -7.65 -8.45 -7.65 -8.4 -7.6 -8.45 -7.65 -6.3 Q-7.35 -3.6 -4.6 -2.95 -0.25 -1.9 3.0 -5.35 L4.4 -4.85 4.75 -4.7 Q5.3 -5.65 6.0 -6.1" fill="#887ba2" fill-rule="evenodd" stroke="none"/>
    <path d="M7.6 -5.15 Q10.0 -3.85 9.75 -2.7 L9.8 -1.9 9.7 0.05 9.7 0.2 9.65 0.8 9.25 3.1 9.2 3.25 8.45 6.05 8.1 7.0 7.75 7.85 7.65 7.85 7.7 7.9 7.3 8.75 7.3 12.25 6.25 13.8 Q5.55 14.35 4.2 14.7 4.85 14.2 5.25 13.1 L4.65 10.0 6.0 7.6 7.6 -5.15" fill="#665a7e" fill-rule="evenodd" stroke="none"/>
    <path d="M6.6 -5.75 L6.75 -5.65 6.8 -5.6 7.3 -5.3 7.6 -5.15 Q10.0 -3.85 9.75 -2.7 L9.8 -1.9 9.7 0.05 9.7 0.2 9.65 0.8 9.25 3.1 9.2 3.25 8.45 6.05 8.1 7.0 7.75 7.85 7.7 7.9 7.3 8.75 7.3 12.25 6.25 13.8 M-8.1 12.3 Q-8.85 11.3 -8.4 4.4 L-8.35 3.5 -9.45 2.0 -9.7 1.65 -9.8 1.5 -9.8 1.45 -10.65 -0.55 M-8.95 -8.1 L-8.9 -8.15 -8.6 -8.2 -8.3 -8.3 -8.2 -8.3 -7.8 -8.4 -7.7 -8.4 -7.65 -8.45 -7.65 -8.4 -7.6 -8.45 M-9.8 1.45 L-9.8 1.5 -9.8 1.45" fill="none" stroke="#30543c" stroke-linecap="round" stroke-linejoin="round" stroke-width="0.05"/>
    <path d="M6.15 -6.0 L6.6 -5.75" fill="none" stroke="#d7995e" stroke-linecap="round" stroke-linejoin="round" stroke-width="0.05"/>
    <path d="M6.0 -6.1 Q5.3 -5.65 4.75 -4.7" fill="none" stroke="#30543c" stroke-linecap="round" stroke-linejoin="round" stroke-width="0.05"/>
    <path d="M-7.65 -8.45 L-7.6 -8.45" fill="none" stroke="#30543c" stroke-linecap="round" stroke-linejoin="round" stroke-width="0.05"/>
    <path d="M3.8 -7.0 L4.75 -6.6 M4.8 -6.6 L6.0 -6.1 M-7.6 -8.45 L-6.75 -8.6" fill="none" stroke="#0f2446" stroke-linecap="round" stroke-linejoin="round" stroke-width="0.05"/>
    <path d="M-6.75 -8.6 Q-7.05 -4.85 -4.8 -4.0 -0.6 -3.35 1.15 -4.8 L3.8 -7.0" fill="none" stroke="#cccccc" stroke-linecap="round" stroke-linejoin="round" stroke-width="0.05"/>
    <path d="M-1.65 15.05 L-1.1 15.05 3.8 14.8 3.9 14.75 4.2 14.7 Q5.55 14.35 6.25 13.8 7.25 14.8 6.8 16.2 3.85 17.95 -1.05 17.95 L-2.25 17.9 -4.2 17.55 Q-4.95 15.8 -4.3 14.8 L-4.1 14.85 -3.75 14.95 Q-2.6 15.05 -3.25 14.95 L-2.3 15.05 -2.15 15.05 -1.65 15.05 -1.35 15.1 -1.1 15.05 -1.35 15.1 -1.65 15.05 M-1.35 15.1 L-2.15 15.05 -1.35 15.1" fill="#684942" fill-rule="evenodd" stroke="none"/>
    <path d="M-4.2 17.55 Q-6.15 17.1 -7.35 16.35 L-8.45 15.4 Q-8.9 13.75 -8.3 12.65 L-8.25 12.5 -8.1 12.3 -8.0 12.5 -7.95 12.65 -7.5 13.2 -7.3 13.4 -6.05 14.2 -5.3 14.5 -4.3 14.8 Q-4.95 15.8 -4.2 17.55" fill="#956c5e" fill-rule="evenodd" stroke="none"/>
    <path d="M3.45 -8.95 Q5.6 -8.15 6.75 -6.7 -0.4 1.3 -3.25 14.95 -2.6 15.05 -3.75 14.95 L-4.1 14.85 -4.3 14.8 -5.3 14.5 Q-2.6 0.6 3.45 -8.95" fill="#65589a" fill-rule="evenodd" stroke="none"/>
    <path d="M6.75 -6.7 Q7.65 -6.6 7.6 -5.2 1.0 2.1 -2.3 15.05 L-3.25 14.95 Q-0.4 1.3 6.75 -6.7 M-6.05 14.2 Q-4.7 1.85 2.2 -9.35 3.15 -9.9 3.45 -8.95 -2.6 0.6 -5.3 14.5 L-6.05 14.2" fill="#ccaf6f" fill-rule="evenodd" stroke="none"/>
    <path d="M-1.65 15.05 L-1.1 15.05 3.8 14.8 3.9 14.75 4.2 14.7 Q5.55 14.35 6.25 13.8 M-8.1 12.3 L-8.0 12.5 -7.95 12.65 -7.5 13.2 -7.3 13.4 -6.05 14.2 M-2.15 15.05 L-1.65 15.05 M-4.3 14.8 L-5.3 14.5 M-3.25 14.95 Q-2.6 15.05 -3.75 14.95 L-4.1 14.85 -4.3 14.8" fill="none" stroke="#30543c" stroke-linecap="round" stroke-linejoin="round" stroke-width="0.05"/>
    <path d="M6.25 13.8 Q7.25 14.8 6.8 16.2 3.85 17.95 -1.05 17.95 L-2.25 17.9 -4.2 17.55 Q-6.15 17.1 -7.35 16.35 L-8.45 15.4 Q-8.9 13.75 -8.3 12.65 L-8.25 12.5 -8.1 12.3" fill="none" stroke="#674743" stroke-linecap="round" stroke-linejoin="round" stroke-width="0.05"/>
    <path d="M6.75 -6.7 Q7.65 -6.6 7.6 -5.2 1.0 2.1 -2.3 15.05 L-1.65 15.05 -1.35 15.1 -1.1 15.05 M-6.05 14.2 Q-4.7 1.85 2.2 -9.35 3.15 -9.9 3.45 -8.95 5.6 -8.15 6.75 -6.7 M-3.25 14.95 L-2.3 15.05 -2.15 15.05 -1.35 15.1 M-5.3 14.5 L-6.05 14.2" fill="none" stroke="#2e3f31" stroke-linecap="round" stroke-linejoin="round" stroke-width="0.05"/>
  </g>
</svg>
