<?xml version="1.0" encoding="UTF-8" standalone="no"?>
<svg xmlns:xlink="http://www.w3.org/1999/xlink" height="33.4px" width="64.9px" xmlns="http://www.w3.org/2000/svg">
  <g transform="matrix(1.0, 0.0, 0.0, 1.0, 34.95, 17.7)">
    <path d="M12.0 -9.3 L11.95 -9.35 12.0 -9.35 12.0 -9.3 M15.25 -7.9 L15.3 -7.85 15.25 -7.9 M9.15 -12.4 L9.4 -12.55 Q4.15 -14.2 -2.5 -14.1 -9.1 -14.1 -14.45 -12.4 L-15.25 -12.1 -17.4 -11.15 -17.55 -11.15 -18.75 -10.55 -21.0 -9.1 -21.05 -9.1 Q-21.4 -9.1 -21.6 -8.85 L-21.9 -8.5 -22.9 -7.6 -23.15 -7.75 Q-26.0 -5.15 -26.1 -1.95 -26.15 0.1 -25.0 1.95 L-24.6 2.45 -23.1 4.1 -22.9 4.0 -22.35 4.7 -22.3 4.75 -22.1 5.05 -21.6 5.45 -21.65 5.5 Q-21.4 6.85 -20.0 7.45 -17.4 8.55 -14.65 9.15 L-14.3 9.3 -9.65 10.45 -9.4 10.5 -8.95 10.55 -7.4 10.9 -5.65 11.0 -1.8 10.75 -1.7 10.7 -1.55 10.7 5.65 10.25 7.8 9.8 Q9.95 9.35 11.8 8.2 L12.55 7.7 Q14.55 6.55 16.05 4.95 L16.05 4.9 16.0 4.8 17.65 3.5 17.7 3.3 17.65 3.25 Q20.3 0.7 20.4 -2.35 20.5 -5.95 17.0 -8.75 L16.9 -8.7 16.75 -8.75 14.0 -10.1 11.75 -11.3 Q10.5 -11.95 9.15 -12.4 M22.9 -11.75 Q30.1 -7.3 29.95 -1.25 29.8 3.45 25.35 7.25 23.2 9.05 20.1 10.65 L17.25 12.0 Q8.5 15.6 -2.95 15.7 -16.4 15.8 -25.75 11.0 L-27.35 10.1 -30.55 7.9 -32.9 5.45 -33.4 4.75 Q-35.05 2.15 -34.95 -0.75 -34.8 -6.2 -28.7 -10.45 L-25.1 -12.6 Q-22.6 -13.9 -19.85 -14.85 -12.0 -17.6 -2.0 -17.7 7.45 -17.75 14.95 -15.35 18.05 -14.4 20.8 -12.95 L22.9 -11.75 M-20.95 3.0 L-20.9 3.05 -21.0 3.05 -20.95 3.0 M9.0 5.95 L9.0 5.9 9.05 5.9 9.0 5.95" fill="url(#gradient0)" fill-rule="evenodd" stroke="none"/>
  </g>
  <defs>
    <radialGradient cx="0" cy="0" gradientTransform="matrix(0.0385, 0.0, 0.0, 0.0218, -3.25, -1.7)" gradientUnits="userSpaceOnUse" id="gradient0" r="819.2" spreadMethod="pad">
      <stop offset="0.0" stop-color="#ffffff" stop-opacity="0.0"/>
      <stop offset="0.09411764705882353" stop-color="#ffffff"/>
      <stop offset="0.3607843137254902" stop-color="#ffffff" stop-opacity="0.0"/>
      <stop offset="0.5490196078431373" stop-color="#ffffff"/>
      <stop offset="0.7176470588235294" stop-color="#ffffff" stop-opacity="0.0"/>
      <stop offset="1.0" stop-color="#ffffff"/>
    </radialGradient>
  </defs>
</svg>
