<?xml version="1.0" encoding="UTF-8" standalone="no"?>
<svg xmlns:xlink="http://www.w3.org/1999/xlink" height="14.6px" width="42.3px" xmlns="http://www.w3.org/2000/svg">
  <g transform="matrix(1.0, 0.0, 0.0, 1.0, 21.2, 7.3)">
    <path d="M-21.2 -7.3 L21.1 -7.3 21.1 7.3 -21.2 7.3 -21.2 -7.3 M-19.4 6.0 L19.4 6.0 19.4 -6.05 -19.4 -6.05 -19.4 6.0" fill="#000000" fill-opacity="0.18039216" fill-rule="evenodd" stroke="none"/>
    <path d="M19.4 -6.05 L19.4 6.0 -19.4 6.0 -19.4 -6.05 19.4 -6.05" fill="url(#gradient0)" fill-rule="evenodd" stroke="none"/>
    <path d="M-19.4 6.0 L-19.4 -6.05 19.4 -6.05" fill="none" stroke="#000000" stroke-linecap="round" stroke-linejoin="round" stroke-width="0.05"/>
    <path d="M19.4 -6.05 L19.4 6.0 -19.4 6.0 Z" fill="none" stroke="#1b9ade" stroke-linecap="round" stroke-linejoin="round" stroke-width="0.05"/>
    <path d="M2.35 -4.25 L0.1 0.0 0.2 0.0 10.45 -2.3 Q5.75 -2.75 2.4 -4.25 L2.35 -4.25 3.3 -6.05 M10.45 -2.3 L10.5 -2.3 17.9 -4.0 Q9.25 -4.35 3.95 -6.05 M19.15 -4.25 L17.9 -4.0 Q15.5 -1.8 17.5 0.4 L19.15 0.45 M17.5 0.4 L17.45 0.4 14.65 2.2 Q12.9 3.55 12.6 4.95 L15.15 5.95 M17.45 0.4 L11.3 0.25 11.25 0.25 Q9.05 1.15 7.95 2.2 L7.3 2.9 12.6 4.95 Q4.75 4.55 -3.05 5.9 L-3.1 5.9 Q-9.75 4.25 -16.35 3.7 L-19.15 4.35 M11.25 0.25 L0.2 0.0 0.05 0.0 0.05 0.05 7.3 2.85 7.3 2.9 M11.3 0.25 Q9.05 -0.95 10.45 -2.3 M0.05 0.0 L0.1 0.0 -0.05 0.0 0.05 0.05 -2.05 4.05 Q2.0 3.05 7.3 2.85 M-10.55 -4.0 L-10.3 -4.0 -10.5 -4.1 -10.55 -4.0 Q-10.3 -2.2 -14.25 -0.35 L-14.1 -0.35 -0.05 0.0 -10.3 -4.0 Q-4.0 -3.45 2.35 -4.25 M-14.35 -5.6 L-14.3 -5.65 -14.4 -5.65 -14.35 -5.6 -10.5 -4.1 M-19.15 -0.5 L-14.25 -0.35 M-15.55 -6.05 L-14.4 -5.65 M-14.35 -5.6 Q-15.05 -2.95 -19.15 -0.8 M-2.05 4.05 L-3.05 5.9 M-16.35 3.7 Q-16.35 2.95 -16.75 2.2 -17.4 1.0 -19.15 -0.15 M-16.35 3.7 L-10.2 2.35 -10.2 2.2 Q-10.4 0.7 -14.1 -0.35 M0.05 0.05 L-10.2 2.35 Q-5.55 2.5 -2.05 4.05 M2.1 -6.05 Q-5.7 -5.05 -14.3 -5.65" fill="none" stroke="#0d559d" stroke-linecap="round" stroke-linejoin="round" stroke-width="0.05"/>
    <path d="M0.1 1.95 Q-9.55 1.4 -19.2 -0.95 L-19.05 -6.0 -19.05 -6.05 -19.15 -4.55 -19.2 -6.2 19.4 -6.2 19.4 -0.95 Q9.7 1.4 0.1 1.95 M-16.5 -2.35 L-16.5 -2.4 -16.6 -2.35 -16.5 -2.35" fill="url(#gradient1)" fill-rule="evenodd" stroke="none"/>
    <path d="M19.4 -0.95 L19.4 5.95 -19.2 5.95 -19.2 1.25 -17.45 1.5 -17.3 1.5 Q-8.6 2.45 0.1 1.95 9.7 1.4 19.4 -0.95" fill="url(#gradient2)" fill-rule="evenodd" stroke="none"/>
  </g>
  <defs>
    <radialGradient cx="0" cy="0" gradientTransform="matrix(0.0326, 0.0, 0.0, 0.0107, 1.05, 1.7)" gradientUnits="userSpaceOnUse" id="gradient0" r="819.2" spreadMethod="pad">
      <stop offset="0.0" stop-color="#1c9ee3"/>
      <stop offset="1.0" stop-color="#073265"/>
    </radialGradient>
    <linearGradient gradientTransform="matrix(0.0, -0.0052, -0.0037, 0.0, -0.2, -4.05)" gradientUnits="userSpaceOnUse" id="gradient1" spreadMethod="pad" x1="-819.2" x2="819.2">
      <stop offset="0.0" stop-color="#000000" stop-opacity="0.0"/>
      <stop offset="1.0" stop-color="#000000" stop-opacity="0.42352942"/>
    </linearGradient>
    <linearGradient gradientTransform="matrix(0.0, 0.0042, -0.0037, 0.0, 0.05, 2.5)" gradientUnits="userSpaceOnUse" id="gradient2" spreadMethod="pad" x1="-819.2" x2="819.2">
      <stop offset="0.0" stop-color="#ffffff" stop-opacity="0.0"/>
      <stop offset="1.0" stop-color="#ffffff" stop-opacity="0.42352942"/>
    </linearGradient>
  </defs>
</svg>
