<?xml version="1.0" encoding="UTF-8" standalone="no"?>
<svg xmlns:xlink="http://www.w3.org/1999/xlink" height="200.8px" width="327.85px" xmlns="http://www.w3.org/2000/svg">
  <g transform="matrix(1.0, 0.0, 0.0, 1.0, 166.4, 98.25)">
    <path d="M-107.5 -50.85 L141.5 68.55 82.6 102.55 -166.4 -16.8 -107.5 -50.85" fill="#000000" fill-opacity="0.24313726" fill-rule="evenodd" stroke="none"/>
    <path d="M132.0 40.95 L134.45 42.1 135.25 41.65 135.25 49.2 132.0 51.05 132.0 40.95 M114.6 72.7 L114.6 62.6 117.05 63.75 117.85 63.3 117.85 70.85 114.6 72.7 M-132.2 -55.7 L-129.2 -54.3 -129.2 -53.25 -129.25 -47.45 -132.25 -45.7 -132.3 -45.65 -132.3 -45.7 -132.25 -45.7 -132.3 -45.7 -132.2 -55.7 M98.65 83.95 L101.1 85.1 101.9 84.65 101.9 92.2 98.65 94.05 98.65 83.95 98.65 94.05 96.05 92.8 96.15 82.75 98.65 83.95 M-148.15 -34.35 L-145.15 -32.95 -145.2 -26.1 -148.25 -24.3 -148.15 -34.35 M121.45 73.25 L124.0 71.75 127.35 69.85 127.25 77.65 124.05 79.5 124.0 79.5 121.4 78.25 121.45 73.25 M124.0 71.75 L124.0 79.5 124.0 71.75 M143.25 66.3 L143.2 68.55 140.0 70.4 139.95 70.4 140.0 66.4 139.95 50.4 140.0 66.4 139.95 70.4 137.4 69.15 137.4 66.5 137.45 66.5 137.4 51.9 139.95 50.4 143.3 48.5 143.25 66.3 142.3 66.35 143.25 66.3" fill="#8b6a43" fill-rule="evenodd" stroke="none"/>
    <path d="M129.5 39.75 L132.0 40.95 132.0 51.05 129.4 49.8 129.5 39.75 M-111.8 -75.45 L-111.85 -69.1 -114.9 -67.3 -114.8 -77.35 -111.8 -75.95 -111.8 -75.45 M-133.4 -46.2 L-132.3 -45.7 -132.3 -45.65 -133.4 -46.2" fill="#a47d4f" fill-rule="evenodd" stroke="none"/>
    <path d="M156.65 26.15 L161.4 23.4 161.45 26.4 160.7 26.85 157.35 28.75 154.8 30.25 136.0 41.2 135.25 41.65 134.45 42.1 134.4 39.1 156.65 26.15 M126.35 55.3 L144.0 45.05 144.05 48.05 143.3 48.5 139.95 50.4 137.4 51.9 119.55 62.3 117.85 63.3 117.05 63.75 117.0 60.75 126.35 55.3 M101.9 84.65 L101.1 85.1 101.05 82.1 107.9 78.15 128.05 66.4 128.1 69.4 127.35 69.85 124.0 71.75 121.45 73.25 101.9 84.65" fill="#977348" fill-rule="evenodd" stroke="none"/>
    <path d="M-60.45 -54.3 L-38.3 -67.55 62.7 -19.0 41.05 -5.6 -60.45 -54.3 M52.85 0.05 L74.8 -13.2 77.3 -11.95 55.3 1.2 52.85 0.05 M65.65 6.2 L87.7 -7.0 156.65 26.15 134.4 39.1 65.65 6.2 M-96.8 -95.7 L-63.25 -79.55 -85.35 -66.2 -119.4 -82.55 -96.8 -95.7 M-73.45 -60.5 L-51.25 -73.8 -48.65 -72.55 -70.85 -59.25 -73.45 -60.5 M-125.5 -67.45 L-91.4 -50.85 -101.9 -44.15 -136.8 -60.9 -125.5 -67.45 M-79.5 -45.05 L-76.95 -43.8 -87.7 -37.35 -90.3 -38.6 -79.5 -45.05 M-66.65 -38.8 L34.3 10.45 24.55 16.45 -77.35 -32.4 -66.65 -38.8 M46.25 16.25 L48.7 17.45 38.85 23.35 36.45 22.15 46.25 16.25 M59.0 22.45 L126.35 55.3 117.0 60.75 49.25 28.3 59.0 22.45 M101.05 82.1 L33.55 49.8 40.4 45.7 107.9 78.15 101.05 82.1 M23.15 44.8 L20.7 43.6 27.55 39.5 30.0 40.7 23.15 44.8 M8.8 37.9 L-93.65 -11.2 -86.6 -15.4 15.55 33.7 8.8 37.9 M-104.0 -16.15 L-106.45 -17.35 -99.45 -21.6 -96.95 -20.4 -104.0 -16.15 M-118.35 -23.05 L-152.75 -39.55 -145.55 -43.75 -111.35 -27.3 -118.35 -23.05" fill="#c0a67a" fill-rule="evenodd" stroke="none"/>
    <path d="M157.05 60.25 L157.0 60.25 157.05 60.2 157.05 60.25" fill="#eded92" fill-rule="evenodd" stroke="none"/>
    <path d="M135.25 41.65 L136.0 41.2 144.0 45.05 126.35 55.3 59.0 22.45 48.7 17.45 46.25 16.25 34.3 10.45 -66.65 -38.8 -76.95 -43.8 -79.5 -45.05 -91.4 -50.85 -125.5 -67.45 -117.15 -72.3 -117.15 -68.4 -114.9 -67.3 -111.85 -69.1 -111.8 -75.45 -111.3 -75.7 129.5 39.75 129.4 49.8 132.0 51.05 135.25 49.2 135.25 41.65 M114.6 72.7 L117.85 70.85 117.85 63.3 119.55 62.3 128.05 66.4 107.9 78.15 40.4 45.7 30.0 40.7 27.55 39.5 15.55 33.7 -86.6 -15.4 -96.95 -20.4 -99.45 -21.6 -111.35 -27.3 -145.55 -43.75 -134.55 -50.15 -134.55 -46.75 -133.4 -46.2 -132.3 -45.65 -132.25 -45.7 -129.25 -47.45 -129.2 -53.25 -128.2 -53.8 112.1 61.4 112.0 71.45 114.6 72.7" fill="#b38b5e" fill-rule="evenodd" stroke="none"/>
    <path d="M154.8 30.25 L157.35 28.75 157.05 60.2 157.0 60.25 154.45 59.0 154.8 30.25" fill="#826140" fill-rule="evenodd" stroke="none"/>
    <path d="M157.35 28.75 L160.7 26.85 160.65 32.15 160.55 32.8 160.65 32.15 160.3 58.4 157.1 60.2 157.05 60.2 157.35 28.75" fill="#6d5136" fill-rule="evenodd" stroke="none"/>
    <path d="M41.05 -5.6 L62.7 -19.0 -38.3 -67.55 -60.45 -54.3 -70.85 -59.25 -48.65 -72.55 -51.25 -73.8 -73.45 -60.5 -85.35 -66.2 -63.25 -79.55 -96.8 -95.7 -92.4 -98.25 161.4 23.4 156.65 26.15 87.7 -7.0 65.65 6.2 55.3 1.2 77.3 -11.95 74.8 -13.2 52.85 0.05 41.05 -5.6 M-91.4 -50.85 L-79.5 -45.05 -90.3 -38.6 -101.9 -44.15 -91.4 -50.85 M-76.95 -43.8 L-66.65 -38.8 -77.35 -32.4 -87.7 -37.35 -76.95 -43.8 M34.3 10.45 L46.25 16.25 36.45 22.15 24.55 16.45 34.3 10.45 M48.7 17.45 L59.0 22.45 49.25 28.3 38.85 23.35 48.7 17.45 M33.55 49.8 L23.15 44.8 30.0 40.7 40.4 45.7 33.55 49.8 M20.7 43.6 L8.8 37.9 15.55 33.7 27.55 39.5 20.7 43.6 M-93.65 -11.2 L-104.0 -16.15 -96.95 -20.4 -86.6 -15.4 -93.65 -11.2 M-106.45 -17.35 L-118.35 -23.05 -111.35 -27.3 -99.45 -21.6 -106.45 -17.35" fill="#cdb598" fill-rule="evenodd" stroke="none"/>
    <path d="M41.05 -5.6 L52.85 0.05 55.3 1.2 65.65 6.2 134.4 39.1 134.45 42.1 132.0 40.95 129.5 39.75 -111.3 -75.7 -111.8 -75.95 -114.8 -77.35 -117.15 -78.5 -114.8 -77.35 -114.9 -67.3 -117.15 -68.4 -117.15 -72.3 -117.15 -78.5 -119.35 -79.55 -119.4 -82.55 -85.35 -66.2 -73.45 -60.5 -70.85 -59.25 -60.45 -54.3 41.05 -5.6 M117.05 63.75 L114.6 62.6 114.6 72.7 112.0 71.45 112.1 61.4 -128.2 -53.8 -129.2 -54.3 -132.2 -55.7 -134.55 -56.85 -132.2 -55.7 -132.3 -45.7 -133.4 -46.2 -134.55 -46.75 -134.55 -50.15 -134.55 -56.85 -136.75 -57.9 -136.8 -60.9 -101.9 -44.15 -90.3 -38.6 -87.7 -37.35 -77.35 -32.4 24.55 16.45 36.45 22.15 38.85 23.35 49.25 28.3 117.0 60.75 117.05 63.75 M114.6 62.6 L112.1 61.4 114.6 62.6 M101.1 85.1 L98.65 83.95 96.15 82.75 -145.15 -32.95 -148.15 -34.35 -150.5 -35.5 -148.15 -34.35 -148.25 -24.3 -150.5 -25.4 -150.5 -35.5 -152.7 -36.55 -152.75 -39.55 -118.35 -23.05 -106.45 -17.35 -104.0 -16.15 -93.65 -11.2 8.8 37.9 20.7 43.6 23.15 44.8 33.55 49.8 101.05 82.1 101.1 85.1" fill="#8e6a46" fill-rule="evenodd" stroke="none"/>
    <path d="M156.65 26.15 L161.4 23.4 161.45 26.4 160.7 26.85 160.65 32.15 160.3 58.4 157.1 60.2 157.05 60.25 157.0 60.25 154.45 59.0 M129.5 39.75 L132.0 40.95 134.45 42.1 134.4 39.1 156.65 26.15 M134.45 42.1 L135.25 41.65 136.0 41.2 154.8 30.25 157.35 28.75 160.7 26.85 M135.25 41.65 L135.25 49.2 132.0 51.05 129.4 49.8 129.5 39.75 -111.3 -75.7 -111.8 -75.45 -111.85 -69.1 -114.9 -67.3 -117.15 -68.4 -117.15 -72.3 -117.15 -78.5 -114.8 -77.35 -111.8 -75.95 -111.3 -75.7 M126.35 55.3 L144.0 45.05 136.0 41.2 M143.3 48.5 L144.05 48.05 144.0 45.05 M117.05 63.75 L114.6 62.6 114.6 72.7 117.85 70.85 117.85 63.3 117.05 63.75 117.0 60.75 126.35 55.3 M-136.75 -57.9 L-134.55 -56.85 -132.2 -55.7 -129.2 -54.3 -128.2 -53.8 112.1 61.4 114.6 62.6 M119.55 62.3 L117.85 63.3 M114.6 72.7 L112.0 71.45 112.1 61.4 M101.1 85.1 L98.65 83.95 98.65 94.05 101.9 92.2 101.9 84.65 101.1 85.1 101.05 82.1 107.9 78.15 128.05 66.4 128.1 69.4 127.35 69.85 124.0 71.75 121.45 73.25 121.4 78.25 124.0 79.5 124.0 71.75 M-152.7 -36.55 L-150.5 -35.5 -148.15 -34.35 -145.15 -32.95 96.15 82.75 98.65 83.95 M96.15 82.75 L96.05 92.8 98.65 94.05 M101.9 84.65 L121.45 73.25 M157.05 60.2 L157.05 60.25 M157.05 60.2 L157.35 28.75 M139.95 70.4 L140.0 70.4 143.2 68.55 143.25 66.3 143.3 48.5 139.95 50.4 140.0 66.4 139.95 70.4 137.4 69.15 M137.4 51.9 L119.55 62.3 128.05 66.4 M139.95 50.4 L137.4 51.9 M124.05 79.5 L127.25 77.65 127.35 69.85 M124.05 79.5 L124.0 79.5 M132.0 40.95 L132.0 51.05 M-111.8 -75.45 L-111.8 -75.95 M-119.35 -79.55 L-117.15 -78.5 M-114.9 -67.3 L-114.8 -77.35 M-134.55 -56.85 L-134.55 -50.15 -134.55 -46.75 -133.4 -46.2 -132.3 -45.7 -132.2 -55.7 M-128.2 -53.8 L-129.2 -53.25 -129.25 -47.45 -132.25 -45.7 -132.3 -45.65 -133.4 -46.2 M-129.2 -54.3 L-129.2 -53.25 M-132.3 -45.7 L-132.3 -45.65 M-132.25 -45.7 L-132.3 -45.7 M-150.5 -35.5 L-150.5 -25.4 -148.25 -24.3 -148.15 -34.35 M-148.25 -24.3 L-145.2 -26.1 -145.15 -32.95" fill="none" stroke="#624a2f" stroke-linecap="round" stroke-linejoin="round" stroke-width="0.05"/>
    <path d="M41.05 -5.6 L52.85 0.05 55.3 1.2 65.65 6.2 134.4 39.1 M161.4 23.4 L-92.4 -98.25 -96.8 -95.7 M-85.35 -66.2 L-73.45 -60.5 -70.85 -59.25 -60.45 -54.3 41.05 -5.6 M117.0 60.75 L49.25 28.3 38.85 23.35 36.45 22.15 24.55 16.45 -77.35 -32.4 -87.7 -37.35 -90.3 -38.6 -101.9 -44.15 -136.8 -60.9 M101.05 82.1 L33.55 49.8 23.15 44.8 20.7 43.6 8.8 37.9 -93.65 -11.2 -104.0 -16.15 -106.45 -17.35 -118.35 -23.05 -152.75 -39.55 M-119.4 -82.55 L-85.35 -66.2" fill="none" stroke="#d3bea5" stroke-linecap="round" stroke-linejoin="round" stroke-width="0.05"/>
    <path d="M-117.15 -72.3 L-125.5 -67.45 -136.8 -60.9 -136.75 -57.9 M-152.75 -39.55 L-152.7 -36.55 M-119.4 -82.55 L-119.35 -79.55 M-96.8 -95.7 L-119.4 -82.55 M-145.55 -43.75 L-152.75 -39.55 M-134.55 -50.15 L-145.55 -43.75" fill="none" stroke="#ae8655" stroke-linecap="round" stroke-linejoin="round" stroke-width="0.05"/>
    <path d="M154.45 59.0 L154.8 30.25 M137.4 69.15 L137.4 66.5 M137.45 66.5 L137.4 51.9" fill="none" stroke="#b58e62" stroke-linecap="round" stroke-linejoin="round" stroke-width="0.05"/>
  </g>
</svg>
