<?xml version="1.0" encoding="UTF-8" standalone="no"?>
<svg xmlns:xlink="http://www.w3.org/1999/xlink" height="99.3px" width="40.75px" xmlns="http://www.w3.org/2000/svg">
  <g transform="matrix(1.0, 0.0, 0.0, 1.0, 20.5, 50.25)">
    <path d="M2.05 -31.15 L2.05 -26.8 Q1.05 -27.55 -0.25 -27.5 L-2.25 -26.9 -2.25 -30.95 -0.2 -30.7 Q1.0 -30.7 2.05 -31.15 M2.05 -16.55 L2.05 30.1 0.5 30.15 0.5 43.55 Q-0.85 43.8 -2.25 43.05 L-2.25 40.3 -2.25 -16.4 Q-1.3 -15.8 -0.1 -15.85 1.1 -15.9 2.05 -16.55" fill="url(#gradient0)" fill-rule="evenodd" stroke="none"/>
    <path d="M2.05 -26.8 L2.45 -26.45 Q3.6 -25.35 3.6 -23.75 3.6 -22.7 3.15 -21.85 L2.45 -21.0 2.05 -20.6 Q1.05 -19.85 -0.25 -19.8 -1.35 -19.75 -2.25 -20.25 L-3.0 -20.85 -3.5 -21.4 Q-4.1 -22.3 -4.1 -23.5 -4.1 -25.1 -3.0 -26.3 L-2.25 -26.9 -0.25 -27.5 Q1.05 -27.55 2.05 -26.8" fill="url(#gradient1)" fill-rule="evenodd" stroke="none"/>
    <path d="M3.15 -21.85 Q3.75 -21.0 3.75 -19.8 3.75 -18.2 2.6 -17.05 L2.05 -16.55 Q1.1 -15.9 -0.1 -15.85 -1.3 -15.8 -2.25 -16.4 L-2.85 -16.9 Q-3.95 -17.95 -3.95 -19.55 -3.95 -20.55 -3.5 -21.4 L-3.0 -20.85 -2.25 -20.25 Q-1.35 -19.75 -0.25 -19.8 1.05 -19.85 2.05 -20.6 L2.45 -21.0 3.15 -21.85" fill="url(#gradient2)" fill-rule="evenodd" stroke="none"/>
    <path d="M2.05 30.1 L2.05 40.1 2.05 42.9 0.5 43.55 0.5 30.15 2.05 30.1" fill="url(#gradient3)" fill-rule="evenodd" stroke="none"/>
    <path d="M2.05 40.1 Q3.15 40.25 4.05 40.65 5.7 41.35 5.7 42.4 L5.7 42.6 Q5.55 43.5 4.05 44.25 2.55 45.0 0.5 45.1 L0.1 45.1 Q-2.2 45.2 -3.85 44.45 -5.35 43.8 -5.45 42.9 L-5.5 42.7 Q-5.5 41.65 -3.85 40.85 -3.1 40.5 -2.25 40.3 L-2.25 43.05 Q-0.85 43.8 0.5 43.55 L2.05 42.9 2.05 40.1" fill="url(#gradient4)" fill-rule="evenodd" stroke="none"/>
    <path d="M5.7 42.6 L7.1 42.95 Q10.0 43.9 10.0 45.35 10.0 46.8 7.1 47.85 4.35 48.9 0.5 49.05 L0.1 49.05 Q-4.0 49.2 -6.9 48.25 -9.8 47.35 -9.8 45.9 -9.8 44.45 -6.9 43.35 L-5.45 42.9 Q-5.35 43.8 -3.85 44.45 -2.2 45.2 0.1 45.1 L0.5 45.1 Q2.55 45.0 4.05 44.25 5.55 43.5 5.7 42.6" fill="url(#gradient5)" fill-rule="evenodd" stroke="none"/>
    <path d="M2.05 -31.15 L2.05 -26.8 M2.05 -16.55 L2.05 30.1 2.05 40.1 Q3.15 40.25 4.05 40.65 5.7 41.35 5.7 42.4 L5.7 42.6 7.1 42.95 Q10.0 43.9 10.0 45.35 10.0 46.8 7.1 47.85 4.35 48.9 0.5 49.05 M2.05 40.1 L2.05 42.9 0.5 43.55 M5.7 42.6 Q5.55 43.5 4.05 44.25 2.55 45.0 0.5 45.1" fill="none" stroke="#f9a211" stroke-linecap="round" stroke-linejoin="round" stroke-width="0.05"/>
    <path d="M2.05 -26.8 L2.45 -26.45 Q3.6 -25.35 3.6 -23.75 3.6 -22.7 3.15 -21.85 L2.45 -21.0 2.05 -20.6 Q1.05 -19.85 -0.25 -19.8 -1.35 -19.75 -2.25 -20.25 L-3.0 -20.85 -3.5 -21.4 Q-4.1 -22.3 -4.1 -23.5 -4.1 -25.1 -3.0 -26.3 L-2.25 -26.9 -2.25 -30.95 M0.5 49.05 L0.1 49.05 Q-4.0 49.2 -6.9 48.25 -9.8 47.35 -9.8 45.9 -9.8 44.45 -6.9 43.35 L-5.45 42.9 -5.5 42.7 Q-5.5 41.65 -3.85 40.85 -3.1 40.5 -2.25 40.3 L-2.25 -16.4 M0.5 43.55 Q-0.85 43.8 -2.25 43.05 L-2.25 40.3 M0.5 45.1 L0.1 45.1 Q-2.2 45.2 -3.85 44.45 -5.35 43.8 -5.45 42.9 M2.05 -26.8 Q1.05 -27.55 -0.25 -27.5 L-2.25 -26.9" fill="none" stroke="#985605" stroke-linecap="round" stroke-linejoin="round" stroke-width="0.05"/>
    <path d="M3.15 -21.85 Q3.75 -21.0 3.75 -19.8 3.75 -18.2 2.6 -17.05 L2.05 -16.55 Q1.1 -15.9 -0.1 -15.85 -1.3 -15.8 -2.25 -16.4 L-2.85 -16.9 Q-3.95 -17.95 -3.95 -19.55 -3.95 -20.55 -3.5 -21.4" fill="none" stroke="#985605" stroke-linecap="round" stroke-linejoin="round" stroke-width="0.05"/>
    <path d="M2.05 -45.75 L2.05 -34.55 Q1.0 -33.3 -0.15 -33.5 -1.3 -33.7 -2.25 -34.5 L-2.25 -46.05 -0.2 -45.55 0.3 -45.55 1.55 -45.65 2.05 -45.75" fill="url(#gradient6)" fill-rule="evenodd" stroke="none"/>
    <path d="M2.05 -34.55 Q3.2 -34.15 4.1 -33.25 L5.1 -32.0 5.45 -31.25 Q6.0 -30.15 5.9 -28.65 L5.7 -27.2 Q5.25 -25.75 4.1 -24.6 L3.95 -24.45 2.05 -23.15 Q1.0 -22.7 -0.2 -22.7 L-2.25 -22.95 Q-3.45 -23.3 -4.4 -24.2 L-4.55 -24.35 -4.75 -24.55 Q-3.9 -27.35 -6.3 -27.9 L-6.25 -28.8 -5.75 -31.15 Q-5.35 -32.15 -4.55 -33.0 -3.5 -34.05 -2.25 -34.5 -1.3 -33.7 -0.15 -33.5 1.0 -33.3 2.05 -34.55" fill="url(#gradient7)" fill-rule="evenodd" stroke="none"/>
    <path d="M-4.75 -24.55 Q-9.1 -23.9 -12.5 -25.1 -15.5 -26.2 -16.9 -28.4 L-16.4 -28.4 -15.15 -28.5 Q-14.2 -28.65 -13.45 -29.1 L-12.7 -29.65 Q-11.85 -28.95 -10.6 -28.5 L-6.3 -27.9 Q-3.9 -27.35 -4.75 -24.55" fill="url(#gradient8)" fill-rule="evenodd" stroke="none"/>
    <path d="M5.1 -32.0 Q8.3 -34.15 10.85 -37.15 L13.2 -40.3 Q14.4 -39.6 16.1 -39.6 L17.35 -39.7 14.6 -36.05 Q10.8 -31.6 5.9 -28.65 6.0 -30.15 5.45 -31.25 L5.1 -32.0" fill="url(#gradient9)" fill-rule="evenodd" stroke="none"/>
    <path d="M12.1 -42.5 L12.35 -42.9 13.2 -43.6 Q14.4 -44.3 16.1 -44.3 17.85 -44.3 19.05 -43.6 L19.9 -42.9 20.15 -42.5 19.9 -42.1 19.05 -41.4 Q18.3 -40.95 17.35 -40.8 L16.1 -40.7 Q14.4 -40.7 13.2 -41.4 12.65 -41.7 12.35 -42.1 L12.1 -42.5" fill="url(#gradient10)" fill-rule="evenodd" stroke="none"/>
    <path d="M4.35 -48.45 L4.45 -47.9 Q4.45 -47.3 4.0 -46.8 L3.25 -46.25 2.05 -45.75 1.55 -45.65 0.3 -45.55 -0.2 -45.55 -2.25 -46.05 -2.6 -46.25 Q-3.8 -46.95 -3.8 -47.9 L-3.7 -48.45 -3.45 -48.05 -2.6 -47.35 -2.25 -47.15 -0.75 -46.7 0.3 -46.65 1.55 -46.75 2.05 -46.85 3.25 -47.35 3.35 -47.4 4.1 -48.05 4.35 -48.45 M13.2 -40.3 Q12.0 -41.0 12.0 -41.95 L12.1 -42.5 12.35 -42.1 Q12.65 -41.7 13.2 -41.4 14.4 -40.7 16.1 -40.7 L17.35 -40.8 Q18.3 -40.95 19.05 -41.4 L19.9 -42.1 20.15 -42.5 20.25 -41.95 Q20.25 -41.0 19.05 -40.3 18.3 -39.85 17.35 -39.7 L16.1 -39.6 Q14.4 -39.6 13.2 -40.3 M-16.9 -28.4 Q-18.3 -28.5 -19.3 -29.1 -20.5 -29.8 -20.5 -30.75 L-20.4 -31.3 -20.15 -30.9 -19.3 -30.2 Q-18.5 -29.75 -17.45 -29.55 L-16.4 -29.5 -15.15 -29.6 Q-14.2 -29.75 -13.45 -30.2 L-13.35 -30.25 -12.6 -30.9 -12.35 -31.3 -12.25 -30.75 Q-12.25 -30.15 -12.7 -29.65 L-13.45 -29.1 Q-14.2 -28.65 -15.15 -28.5 L-16.4 -28.4 -16.9 -28.4" fill="#fefab3" fill-rule="evenodd" stroke="none"/>
    <path d="M-20.4 -31.3 L-20.15 -31.7 -19.3 -32.4 Q-18.1 -33.1 -16.4 -33.1 -14.65 -33.1 -13.45 -32.4 -12.9 -32.1 -12.6 -31.7 L-12.35 -31.3 -12.6 -30.9 -13.35 -30.25 -13.45 -30.2 Q-14.2 -29.75 -15.15 -29.6 L-16.4 -29.5 -17.45 -29.55 Q-18.5 -29.75 -19.3 -30.2 L-20.15 -30.9 -20.4 -31.3" fill="url(#gradient11)" fill-rule="evenodd" stroke="none"/>
    <path d="M-3.7 -48.45 L-3.45 -48.85 -2.6 -49.55 Q-1.4 -50.25 0.3 -50.25 2.05 -50.25 3.25 -49.55 L4.1 -48.85 4.35 -48.45 4.1 -48.05 3.35 -47.4 3.25 -47.35 2.05 -46.85 1.55 -46.75 0.3 -46.65 -0.75 -46.7 -2.25 -47.15 -2.6 -47.35 -3.45 -48.05 -3.7 -48.45" fill="url(#gradient12)" fill-rule="evenodd" stroke="none"/>
    <path d="M2.05 -45.75 L2.05 -34.55" fill="none" stroke="#f9a211" stroke-linecap="round" stroke-linejoin="round" stroke-width="0.05"/>
    <path d="M-3.7 -48.45 L-3.45 -48.85 -2.6 -49.55 Q-1.4 -50.25 0.3 -50.25 2.05 -50.25 3.25 -49.55 L4.1 -48.85 4.35 -48.45 4.45 -47.9 Q4.45 -47.3 4.0 -46.8 L3.25 -46.25 2.05 -45.75 1.55 -45.65 0.3 -45.55 -0.2 -45.55 -2.25 -46.05 -2.6 -46.25 Q-3.8 -46.95 -3.8 -47.9 L-3.7 -48.45 M2.05 -34.55 Q3.2 -34.15 4.1 -33.25 L5.1 -32.0 5.45 -31.25 Q6.0 -30.15 5.9 -28.65 L5.7 -27.2 Q5.25 -25.75 4.1 -24.6 L3.95 -24.45 2.05 -23.15 Q1.0 -22.7 -0.2 -22.7 L-2.25 -22.95 Q-3.45 -23.3 -4.4 -24.2 L-4.55 -24.35 -4.75 -24.55 Q-3.9 -27.35 -6.3 -27.9 L-6.25 -28.8 -5.75 -31.15 Q-5.35 -32.15 -4.55 -33.0 -3.5 -34.05 -2.25 -34.5 -1.3 -33.7 -0.15 -33.5 1.0 -33.3 2.05 -34.55 M13.2 -40.3 Q12.0 -41.0 12.0 -41.95 L12.1 -42.5 12.35 -42.9 13.2 -43.6 Q14.4 -44.3 16.1 -44.3 17.85 -44.3 19.05 -43.6 L19.9 -42.9 20.15 -42.5 20.25 -41.95 Q20.25 -41.0 19.05 -40.3 18.3 -39.85 17.35 -39.7 L16.1 -39.6 Q14.4 -39.6 13.2 -40.3 M-16.9 -28.4 Q-18.3 -28.5 -19.3 -29.1 -20.5 -29.8 -20.5 -30.75 L-20.4 -31.3 -20.15 -31.7 -19.3 -32.4 Q-18.1 -33.1 -16.4 -33.1 -14.65 -33.1 -13.45 -32.4 -12.9 -32.1 -12.6 -31.7 L-12.35 -31.3 -12.25 -30.75 Q-12.25 -30.15 -12.7 -29.65 L-13.45 -29.1 Q-14.2 -28.65 -15.15 -28.5 L-16.4 -28.4 -16.9 -28.4" fill="none" stroke="#985605" stroke-linecap="round" stroke-linejoin="round" stroke-width="0.05"/>
    <path d="M-2.25 -34.5 L-2.25 -46.05" fill="none" stroke="#985605" stroke-linecap="round" stroke-linejoin="round" stroke-width="0.05"/>
    <path d="M5.1 -32.0 Q8.3 -34.15 10.85 -37.15 L13.2 -40.3 M17.35 -39.7 L14.6 -36.05 Q10.8 -31.6 5.9 -28.65 M-4.75 -24.55 Q-9.1 -23.9 -12.5 -25.1 -15.5 -26.2 -16.9 -28.4 M-12.7 -29.65 Q-11.85 -28.95 -10.6 -28.5 L-6.3 -27.9" fill="none" stroke="#985605" stroke-linecap="round" stroke-linejoin="round" stroke-width="0.05"/>
  </g>
  <defs>
    <linearGradient gradientTransform="matrix(-0.002, 0.0, 0.0, -0.0611, -0.9, -6.45)" gradientUnits="userSpaceOnUse" id="gradient0" spreadMethod="pad" x1="-819.2" x2="819.2">
      <stop offset="0.0" stop-color="#ffffbb"/>
      <stop offset="0.9882352941176471" stop-color="#faa923"/>
      <stop offset="1.0" stop-color="#9c9b01"/>
    </linearGradient>
    <radialGradient cx="0" cy="0" gradientTransform="matrix(0.0049, 0.0, 0.0, 0.0049, -0.25, -23.65)" gradientUnits="userSpaceOnUse" id="gradient1" r="819.2" spreadMethod="pad">
      <stop offset="0.0" stop-color="#ffffbb"/>
      <stop offset="0.9882352941176471" stop-color="#faa923"/>
    </radialGradient>
    <radialGradient cx="0" cy="0" gradientTransform="matrix(0.0049, 0.0, 0.0, 0.0049, -0.1, -19.7)" gradientUnits="userSpaceOnUse" id="gradient2" r="819.2" spreadMethod="pad">
      <stop offset="0.0" stop-color="#ffffbb"/>
      <stop offset="0.9882352941176471" stop-color="#faa923"/>
    </radialGradient>
    <linearGradient gradientTransform="matrix(-0.002, 0.0, 0.0, -0.0611, -0.9, -6.45)" gradientUnits="userSpaceOnUse" id="gradient3" spreadMethod="pad" x1="-819.2" x2="819.2">
      <stop offset="0.0" stop-color="#ffffbb"/>
      <stop offset="0.9882352941176471" stop-color="#faa923"/>
    </linearGradient>
    <linearGradient gradientTransform="matrix(-0.0024, 7.0E-4, -9.0E-4, -0.0033, 1.9, 42.1)" gradientUnits="userSpaceOnUse" id="gradient4" spreadMethod="pad" x1="-819.2" x2="819.2">
      <stop offset="0.0" stop-color="#ffffbb"/>
      <stop offset="0.9882352941176471" stop-color="#faa923"/>
    </linearGradient>
    <linearGradient gradientTransform="matrix(-0.0042, 0.0011, -0.0013, -0.0048, 2.75, 44.9)" gradientUnits="userSpaceOnUse" id="gradient5" spreadMethod="pad" x1="-819.2" x2="819.2">
      <stop offset="0.0" stop-color="#ffffbb"/>
      <stop offset="0.9882352941176471" stop-color="#faa923"/>
    </linearGradient>
    <linearGradient gradientTransform="matrix(-0.002, 0.0, 0.0, -0.0611, -0.9, 1.55)" gradientUnits="userSpaceOnUse" id="gradient6" spreadMethod="pad" x1="-819.2" x2="819.2">
      <stop offset="0.0" stop-color="#ffffbb"/>
      <stop offset="0.9882352941176471" stop-color="#faa923"/>
      <stop offset="1.0" stop-color="#9c9b01"/>
    </linearGradient>
    <radialGradient cx="0" cy="0" gradientTransform="matrix(0.0085, 0.0, 0.0, 0.0085, -0.2, -28.8)" gradientUnits="userSpaceOnUse" id="gradient7" r="819.2" spreadMethod="pad">
      <stop offset="0.0" stop-color="#ffffbb"/>
      <stop offset="0.9882352941176471" stop-color="#faa923"/>
    </radialGradient>
    <radialGradient cx="0" cy="0" gradientTransform="matrix(0.0104, 0.0, 0.0, 0.0104, -11.3, -26.6)" gradientUnits="userSpaceOnUse" id="gradient8" r="819.2" spreadMethod="pad">
      <stop offset="0.0" stop-color="#ffffbb"/>
      <stop offset="0.9882352941176471" stop-color="#faa923"/>
    </radialGradient>
    <radialGradient cx="0" cy="0" gradientTransform="matrix(0.0153, 0.0, 0.0, 0.0153, 13.6, -38.2)" gradientUnits="userSpaceOnUse" id="gradient9" r="819.2" spreadMethod="pad">
      <stop offset="0.0" stop-color="#ffffbb"/>
      <stop offset="0.9882352941176471" stop-color="#faa923"/>
    </radialGradient>
    <radialGradient cx="0" cy="0" gradientTransform="matrix(0.0051, 0.0, 0.0, 0.0051, 16.1, -41.95)" gradientUnits="userSpaceOnUse" id="gradient10" r="819.2" spreadMethod="pad">
      <stop offset="0.0" stop-color="#ffffbb"/>
      <stop offset="0.9882352941176471" stop-color="#faa923"/>
    </radialGradient>
    <radialGradient cx="0" cy="0" gradientTransform="matrix(0.0051, 0.0, 0.0, 0.0051, -16.4, -30.75)" gradientUnits="userSpaceOnUse" id="gradient11" r="819.2" spreadMethod="pad">
      <stop offset="0.0" stop-color="#ffffbb"/>
      <stop offset="0.9882352941176471" stop-color="#faa923"/>
    </radialGradient>
    <radialGradient cx="0" cy="0" gradientTransform="matrix(0.0051, 0.0, 0.0, 0.0051, 0.3, -47.9)" gradientUnits="userSpaceOnUse" id="gradient12" r="819.2" spreadMethod="pad">
      <stop offset="0.0" stop-color="#ffffbb"/>
      <stop offset="0.9882352941176471" stop-color="#faa923"/>
    </radialGradient>
  </defs>
</svg>
