<?xml version="1.0" encoding="UTF-8" standalone="no"?>
<svg xmlns:xlink="http://www.w3.org/1999/xlink" height="39.95px" width="112.0px" xmlns="http://www.w3.org/2000/svg">
  <g transform="matrix(1.0, 0.0, 0.0, 1.0, 1.6, 3.6)">
    <path d="M3.85 0.65 Q6.35 7.95 10.05 7.9 13.35 15.15 17.45 16.1 22.7 23.05 29.15 21.9 35.0 26.1 40.0 24.1 47.0 32.15 54.55 27.2 62.5 32.0 69.9 26.15 75.5 27.75 80.8 22.3 86.25 22.7 90.9 17.2 96.05 16.05 100.75 7.8 104.15 7.4 106.9 0.05 109.5 -0.95 110.2 -3.4 L110.4 -3.4 110.4 1.35 Q110.6 5.65 106.9 7.05 104.15 14.4 100.75 14.8 96.05 23.05 90.9 24.2 86.25 29.7 80.8 29.3 75.5 34.75 69.9 33.15 62.5 39.0 54.55 34.2 47.0 39.15 40.0 31.1 35.0 33.1 29.15 28.9 22.7 30.05 17.45 23.1 13.35 22.15 10.05 14.9 6.2 14.95 3.65 7.1 -0.9 7.8 -1.6 1.6 L-1.6 -3.6 -1.15 -3.25 Q-0.1 0.4 3.2 0.15 L3.85 0.65" fill="#bddbdf" fill-rule="evenodd" stroke="none"/>
    <path d="M110.4 -3.4 L110.2 -3.4 Q109.5 -0.95 106.9 0.05 104.15 7.4 100.75 7.8 96.05 16.05 90.9 17.2 86.25 22.7 80.8 22.3 75.5 27.75 69.9 26.15 62.5 32.0 54.55 27.2 47.0 32.15 40.0 24.1 35.0 26.1 29.15 21.9 22.7 23.05 17.45 16.1 13.35 15.15 10.05 7.9 6.35 7.95 3.85 0.65 58.35 41.25 110.2 -3.4 L110.4 -3.6 110.4 -3.4 M3.2 0.15 Q-0.1 0.4 -1.15 -3.25 L3.2 0.15" fill="#62a5b5" fill-rule="evenodd" stroke="none"/>
    <path d="M3.85 0.65 L3.2 0.15 -1.15 -3.25 -1.6 -3.6 -1.6 1.6 M110.4 1.35 L110.4 -3.4 110.4 -3.6 110.2 -3.4 Q58.35 41.25 3.85 0.65" fill="none" stroke="#2d585e" stroke-linecap="round" stroke-linejoin="round" stroke-width="0.05"/>
    <path d="M-1.6 1.6 Q-0.9 7.8 3.65 7.1 6.2 14.95 10.05 14.9 13.35 22.15 17.45 23.1 22.7 30.05 29.15 28.9 35.0 33.1 40.0 31.1 47.0 39.15 54.55 34.2 62.5 39.0 69.9 33.15 75.5 34.75 80.8 29.3 86.25 29.7 90.9 24.2 96.05 23.05 100.75 14.8 104.15 14.4 106.9 7.05 110.6 5.65 110.4 1.35" fill="none" stroke="#2d585e" stroke-linecap="round" stroke-linejoin="round" stroke-width="0.05"/>
  </g>
</svg>
