<?xml version="1.0" encoding="UTF-8" standalone="no"?>
<svg xmlns:xlink="http://www.w3.org/1999/xlink" height="27.4px" width="27.4px" xmlns="http://www.w3.org/2000/svg">
  <g transform="matrix(1.0, 0.0, 0.0, 1.0, 16.3, 13.65)">
    <path d="M-7.05 0.3 L-7.05 -0.05 Q-7.05 -2.85 -5.0 -4.9 -2.95 -6.85 -0.05 -6.8 2.85 -6.85 4.9 -4.9 L5.8 -3.85 Q7.0 -2.15 7.0 -0.05 L7.0 0.3 4.4 0.3 7.0 0.3 Q6.85 2.85 4.9 4.65 2.85 6.7 -0.05 6.75 -2.95 6.7 -5.0 4.65 -6.15 3.55 -6.65 2.15 L-7.05 0.3 -4.9 0.3 -7.05 0.3 M-4.9 -0.45 L-4.95 -0.05 -4.9 0.3 Q-4.75 1.5 -3.6 2.35 -2.2 3.4 -0.25 3.4 1.7 3.4 3.05 2.35 4.25 1.5 4.4 0.3 L4.45 -0.05 Q4.4 -1.5 3.05 -2.55 1.7 -3.5 -0.25 -3.5 L-1.25 -3.45 Q-1.35 -4.45 -1.85 -5.0 -2.4 -5.6 -3.2 -5.25 -4.0 -4.95 -4.55 -3.95 -5.1 -2.85 -5.1 -1.65 L-4.9 -0.45" fill="#a0a6de" fill-rule="evenodd" stroke="none"/>
    <path d="M-4.9 -0.45 L-5.1 -1.65 Q-5.1 -2.85 -4.55 -3.95 -4.0 -4.95 -3.2 -5.25 -2.4 -5.6 -1.85 -5.0 -1.35 -4.45 -1.25 -3.45 L-1.25 -3.15 Q-1.25 -2.0 -1.85 -1.0 -2.3 -0.05 -2.95 0.3 L-4.3 0.3 -2.95 0.3 -3.2 0.45 -4.3 0.3 -4.55 0.05 -4.9 -0.45" fill="#ffffff" fill-rule="evenodd" stroke="none"/>
    <path d="M-4.9 0.3 L-4.95 -0.05 -4.9 -0.45 -4.55 0.05 -4.3 0.3 -3.2 0.45 -2.95 0.3 Q-2.3 -0.05 -1.85 -1.0 -1.25 -2.0 -1.25 -3.15 L-1.25 -3.45 -0.25 -3.5 Q1.7 -3.5 3.05 -2.55 4.4 -1.5 4.45 -0.05 L4.4 0.3 -2.95 0.3 4.4 0.3 Q4.25 1.5 3.05 2.35 1.7 3.4 -0.25 3.4 -2.2 3.4 -3.6 2.35 -4.75 1.5 -4.9 0.3 L-4.3 0.3 -4.9 0.3" fill="#5e6dc6" fill-rule="evenodd" stroke="none"/>
    <path d="M7.0 0.3 L7.0 -0.05 Q7.0 -2.15 5.8 -3.85 L4.9 -4.9 Q2.85 -6.85 -0.05 -6.8 -2.95 -6.85 -5.0 -4.9 -7.05 -2.85 -7.05 -0.05 L-7.05 0.3 -6.65 2.15 Q-6.15 3.55 -5.0 4.65 -2.95 6.7 -0.05 6.75 2.85 6.7 4.9 4.65 6.85 2.85 7.0 0.3 Z" fill="none" stroke="#c0c7e9" stroke-linecap="round" stroke-linejoin="round" stroke-width="0.05"/>
    <path d="M-2.6 -13.65 L-0.15 -13.45 Q3.95 -12.75 7.05 -9.65 11.1 -5.6 11.1 0.05 11.1 5.7 7.05 9.7 3.05 13.75 -2.6 13.75 L-2.7 13.75 Q-8.3 13.7 -12.3 9.7 -16.3 5.7 -16.3 0.05 -16.3 -5.6 -12.3 -9.65 -8.25 -13.65 -2.6 -13.65" fill="url(#gradient0)" fill-rule="evenodd" stroke="none"/>
  </g>
  <defs>
    <radialGradient cx="0" cy="0" gradientTransform="matrix(0.0136, 0.0, 0.0, 0.0136, -3.9, -2.1)" gradientUnits="userSpaceOnUse" id="gradient0" r="819.2" spreadMethod="pad">
      <stop offset="0.0" stop-color="#ffffff"/>
      <stop offset="1.0" stop-color="#ffffff" stop-opacity="0.0"/>
    </radialGradient>
  </defs>
</svg>
