<?xml version="1.0" encoding="UTF-8" standalone="no"?>
<svg xmlns:xlink="http://www.w3.org/1999/xlink" height="18.2px" width="20.3px" xmlns="http://www.w3.org/2000/svg">
  <g transform="matrix(1.0, 0.0, 0.0, 1.0, 6.4, 13.15)">
    <path d="M3.45 0.75 Q2.05 0.3 0.25 1.15 1.6 -0.5 3.45 0.75 M-3.3 -1.05 Q-1.85 -1.35 -1.6 0.45 -2.4 -0.9 -3.3 -1.05" fill="#c98636" fill-rule="evenodd" stroke="none"/>
    <path d="M3.45 0.75 Q1.6 -0.5 0.25 1.15 2.05 0.3 3.45 0.75 M-3.3 -1.05 Q-1.85 -1.35 -1.6 0.45 -2.4 -0.9 -3.3 -1.05" fill="none" stroke="#aa6c2f" stroke-linecap="round" stroke-linejoin="round" stroke-width="0.05"/>
    <path d="M-6.4 -8.5 Q-3.65 -8.55 -2.3 -7.4 -0.4 -9.55 -1.9 -12.2 1.05 -11.35 1.45 -8.95 2.6 -12.75 5.0 -13.15 4.35 -11.15 5.95 -9.4 7.05 -11.6 9.35 -12.0 7.9 -10.35 8.15 -8.35 9.8 -8.4 11.1 -9.5 11.8 -7.05 10.35 -4.45 12.6 -5.85 13.9 -4.3 12.25 -3.6 11.35 -2.15 11.85 -3.25 11.6 -3.65 L11.25 -4.05 11.1 -4.15 10.7 -3.75 Q10.3 -3.45 9.4 -3.25 L8.15 -3.4 8.15 -3.8 Q8.2 -5.35 9.9 -7.25 L8.35 -6.95 Q6.4 -6.6 5.3 -4.95 L4.7 -5.45 Q4.2 -5.85 3.6 -8.9 2.0 -7.75 0.9 -5.05 L0.8 -5.2 Q0.25 -5.9 -0.6 -6.35 L-1.9 -6.85 -1.85 -6.75 -2.9 -7.15 Q-1.55 -4.75 -2.95 -2.75 L-3.3 -2.35 -3.55 -2.55 -3.55 -2.75 -3.6 -2.95 Q-4.1 -6.5 -6.4 -8.5" fill="#d09753" fill-rule="evenodd" stroke="none"/>
    <path d="M-3.55 -2.55 L-3.3 -2.35 -2.95 -2.75 Q-1.55 -4.75 -2.9 -7.15 L-1.85 -6.75 -1.9 -6.85 -0.6 -6.35 Q0.25 -5.9 0.8 -5.2 L0.9 -5.05 Q2.0 -7.75 3.6 -8.9 4.2 -5.85 4.7 -5.45 L5.3 -4.95 Q6.4 -6.6 8.35 -6.95 L9.9 -7.25 Q8.2 -5.35 8.15 -3.8 L8.15 -3.4 9.4 -3.25 Q10.3 -3.45 10.7 -3.75 L11.1 -4.15 11.25 -4.05 11.6 -3.65 Q11.85 -3.25 11.35 -2.15 10.8 -1.4 10.5 -0.35 L10.4 0.1 10.4 0.15 Q9.6 3.35 8.0 4.45 8.7 2.65 8.25 1.65 7.4 1.0 6.5 1.95 L6.45 2.1 6.2 3.1 5.95 5.05 5.05 1.45 4.6 -0.05 Q6.5 -3.3 -1.0 -1.6 -1.5 -2.2 -1.95 -2.45 L-3.0 -2.5 -3.5 -1.85 -3.55 -2.55" fill="#c98636" fill-rule="evenodd" stroke="none"/>
    <path d="M13.9 -4.3 Q12.6 -5.85 10.35 -4.45 11.8 -7.05 11.1 -9.5 9.8 -8.4 8.15 -8.35 7.9 -10.35 9.35 -12.0 7.05 -11.6 5.95 -9.4 4.35 -11.15 5.0 -13.15 2.6 -12.75 1.45 -8.95 1.05 -11.35 -1.9 -12.2 -0.4 -9.55 -2.3 -7.4 -3.65 -8.55 -6.4 -8.5 M-3.5 -1.85 L-3.0 -2.5 -1.95 -2.45 Q-1.5 -2.2 -1.0 -1.6 6.5 -3.3 4.6 -0.05 L5.05 1.45 5.95 5.05 6.2 3.1 6.45 2.1" fill="none" stroke="#aa6c2f" stroke-linecap="round" stroke-linejoin="round" stroke-width="0.05"/>
    <path d="M-6.4 -8.5 Q-4.1 -6.5 -3.6 -2.95 L-3.55 -2.75 -3.55 -2.55 -3.5 -1.85 M11.35 -2.15 Q12.25 -3.6 13.9 -4.3 M6.45 2.1 L6.5 1.95 Q7.4 1.0 8.25 1.65 8.7 2.65 8.0 4.45 9.6 3.35 10.4 0.15 L10.4 0.1 10.5 -0.35 Q10.8 -1.4 11.35 -2.15" fill="none" stroke="#aa6c2f" stroke-linecap="round" stroke-linejoin="round" stroke-width="0.05"/>
  </g>
</svg>
