<?xml version="1.0" encoding="UTF-8" standalone="no"?>
<svg xmlns:xlink="http://www.w3.org/1999/xlink" height="16.25px" width="6.7px" xmlns="http://www.w3.org/2000/svg">
  <g transform="matrix(1.0, 0.0, 0.0, 1.0, 2.7, 1.7)">
    <path d="M-0.4 13.65 Q-0.95 8.85 -2.1 5.3 -3.25 1.75 -2.0 0.05 -1.05 -1.25 1.2 -1.7 3.1 -1.25 4.0 0.85 L3.1 3.1 2.3 14.2 Q0.7 15.15 -0.4 13.65" fill="#414f35" fill-rule="evenodd" stroke="none"/>
    <path d="M2.3 14.2 L3.1 3.1 4.0 0.85 Q3.1 -1.25 1.2 -1.7 -1.05 -1.25 -2.0 0.05 -3.25 1.75 -2.1 5.3 -0.95 8.85 -0.4 13.65" fill="none" stroke="#425337" stroke-linecap="round" stroke-linejoin="round" stroke-width="0.05"/>
    <path d="M-1.3 3.55 L-0.45 3.55 3.1 2.75 2.3 14.2 1.35 14.55 Q0.7 14.55 0.15 14.2 L0.05 12.75 0.0 12.1 -0.05 11.55 -0.15 10.35 -0.2 9.55 -0.35 7.8 -0.45 6.5 Q-0.75 4.35 -1.05 3.75 -1.1 3.6 -1.3 3.55" fill="#ffffff" fill-rule="evenodd" stroke="none"/>
    <path d="M-1.3 3.55 Q-1.1 3.6 -1.05 3.75 -0.75 4.35 -0.45 6.5 L-0.35 7.8 -0.2 9.55 -0.15 10.35 -0.05 11.55 0.0 12.1 0.05 12.75 0.15 14.2 Q-0.7 13.85 -0.75 12.85 L-1.0 9.75 -2.7 3.15 Q-2.4 3.3 -2.15 3.4 L-1.3 3.55" fill="#cccccc" fill-rule="evenodd" stroke="none"/>
    <path d="M0.15 14.2 Q0.7 14.55 1.35 14.55 L2.3 14.2 3.1 2.75 -0.45 3.55 -1.3 3.55 -2.15 3.4 Q-2.4 3.3 -2.7 3.15 L-1.0 9.75 -0.75 12.85 Q-0.7 13.85 0.15 14.2 Z" fill="none" stroke="#666666" stroke-linecap="round" stroke-linejoin="round" stroke-width="0.05"/>
  </g>
</svg>
