<?xml version="1.0" encoding="UTF-8" standalone="no"?>
<svg xmlns:xlink="http://www.w3.org/1999/xlink" height="25.65px" width="8.3px" xmlns="http://www.w3.org/2000/svg">
  <g transform="matrix(1.0, 0.0, 0.0, 1.0, 5.6, 25.85)">
    <path d="M1.8 -22.95 L2.15 -23.1 2.5 -23.7 2.5 -23.75 2.55 -23.8 2.7 -13.5 2.7 -6.5 2.65 -4.4 2.6 -3.45 2.6 -2.85 2.6 -2.4 2.2 -1.1 Q1.75 -0.1 -0.75 -0.2 -3.3 -0.1 -4.25 -1.75 L-4.6 -2.55 -4.75 -3.05 -4.8 -3.25 -5.5 -24.05 Q-5.25 -19.9 -3.95 -16.3 -2.75 -15.2 0.1 -15.15 1.55 -18.8 1.8 -22.95 M-5.45 -24.35 L-5.45 -24.3 -5.5 -24.35 -5.45 -24.35" fill="#4f4f4f" fill-rule="evenodd" stroke="none"/>
    <path d="M2.5 -23.75 L2.5 -23.7 2.15 -23.1 1.8 -22.95 1.2 -22.75 0.85 -22.7 0.7 -22.65 -1.7 -22.7 -4.35 -23.5 -4.4 -23.5 -4.5 -23.55 -5.45 -24.3 -5.45 -24.35 -5.6 -24.8 Q-5.55 -25.5 -4.3 -25.8 L-1.4 -25.85 1.4 -25.0 Q2.5 -24.4 2.5 -23.75" fill="#3d3d3d" fill-rule="evenodd" stroke="none"/>
    <path d="M1.8 -22.95 Q1.55 -18.8 0.1 -15.15 -2.75 -15.2 -3.95 -16.3 -5.25 -19.9 -5.5 -24.05 L-5.5 -24.35 -5.45 -24.3 -4.5 -23.55 -4.65 -23.6 Q-4.5 -20.2 -3.45 -17.45 -2.3 -16.8 -0.85 -16.6 0.4 -18.8 0.7 -22.65 L0.85 -22.7 1.2 -22.75 1.8 -22.95" fill="#ffffff" fill-rule="evenodd" stroke="none"/>
    <path d="M-4.5 -23.55 L-4.4 -23.5 -4.35 -23.5 -1.7 -22.7 0.7 -22.65 Q0.4 -18.8 -0.85 -16.6 -2.3 -16.8 -3.45 -17.45 -4.5 -20.2 -4.65 -23.6 L-4.5 -23.55" fill="#929292" fill-rule="evenodd" stroke="none"/>
    <path d="M2.5 -23.75 L2.5 -23.7 2.15 -23.1 1.8 -22.95 Q1.55 -18.8 0.1 -15.15 -2.75 -15.2 -3.95 -16.3 -5.25 -19.9 -5.5 -24.05 L-4.8 -3.25 -4.75 -3.05 -4.6 -2.55 -4.25 -1.75 Q-3.3 -0.1 -0.75 -0.2 1.75 -0.1 2.2 -1.1 L2.6 -2.4 2.6 -2.85 2.6 -3.45 2.65 -4.4 2.7 -6.5 2.7 -13.5 2.55 -23.8 M2.5 -23.75 Q2.5 -24.4 1.4 -25.0 L-1.4 -25.85 -4.3 -25.8 Q-5.55 -25.5 -5.6 -24.8 L-5.45 -24.35 -5.5 -24.35 -5.5 -24.05 M-5.45 -24.3 L-4.5 -23.55 -4.4 -23.5 -4.35 -23.5 -1.7 -22.7 0.7 -22.65 0.85 -22.7 1.2 -22.75 1.8 -22.95 M-5.45 -24.3 L-5.5 -24.35" fill="none" stroke="#000000" stroke-linecap="round" stroke-linejoin="round" stroke-width="0.05"/>
  </g>
</svg>
