<?xml version="1.0" encoding="UTF-8" standalone="no"?>
<svg xmlns:xlink="http://www.w3.org/1999/xlink" height="25.3px" width="22.25px" xmlns="http://www.w3.org/2000/svg">
  <g transform="matrix(1.0, 0.0, 0.0, 1.0, 8.0, 19.7)">
    <path d="M3.45 0.75 Q2.05 0.3 0.25 1.15 1.6 -0.5 3.45 0.75 M-1.6 0.45 Q-2.4 -0.9 -3.3 -1.05 -1.85 -1.35 -1.6 0.45" fill="#503e53" fill-rule="evenodd" stroke="none"/>
    <path d="M7.1 -6.45 L7.15 -6.45 7.1 -6.4 7.1 -6.45 M-3.9 -5.3 L-3.85 -5.3 -3.9 -5.25 -3.9 -5.3" fill="#4a5371" fill-rule="evenodd" stroke="none"/>
    <path d="M3.45 0.75 Q1.6 -0.5 0.25 1.15 2.05 0.3 3.45 0.75 M-1.6 0.45 Q-2.4 -0.9 -3.3 -1.05 -1.85 -1.35 -1.6 0.45" fill="none" stroke="#5b4961" stroke-linecap="round" stroke-linejoin="round" stroke-width="0.05"/>
    <path d="M5.65 -13.1 L5.8 -12.85 6.2 -12.15 7.9 -8.1 8.0 -8.85 8.0 -9.05 8.05 -10.75 Q8.1 -14.6 7.15 -17.95 L7.95 -16.4 8.1 -16.05 8.35 -15.45 9.2 -12.7 9.55 -10.8 9.95 -7.45 10.0 -6.55 13.6 -13.25 10.9 -3.9 10.8 -3.6 10.5 -2.55 14.25 -7.1 13.8 -6.35 11.9 -2.85 11.65 -2.3 11.4 -1.85 Q10.3 0.4 9.55 2.35 L9.25 3.05 8.3 5.6 8.3 4.3 7.65 5.45 7.65 4.85 8.3 3.8 8.3 3.35 8.4 2.65 8.4 2.6 8.15 1.6 7.95 1.45 7.5 1.45 7.4 1.45 7.2 1.55 6.9 1.65 6.85 1.7 7.0 3.8 7.0 4.05 7.0 4.1 6.95 5.0 6.95 5.45 Q6.2 2.15 4.8 -0.45 L4.7 -0.65 4.1 -1.55 4.1 -1.6 3.75 -2.1 3.15 -2.95 4.25 2.65 3.3 1.05 2.35 -0.5 1.85 -1.25 1.4 -1.85 1.2 -2.15 1.0 -2.45 1.2 -0.15 -0.45 -4.7 -0.65 -4.4 -0.7 -4.3 -0.8 -4.5 Q-2.2 -2.4 -3.2 0.1 L-3.45 0.7 -3.6 1.05 -4.35 3.2 -4.85 5.0 -4.55 1.8 -3.65 -1.25 -3.85 -1.65 -3.9 -1.8 -6.3 -6.5 -3.45 -3.45 -3.95 -5.6 -4.5 -7.35 -5.1 -9.0 -6.15 -11.45 -3.9 -8.15 -3.9 -8.0 -3.15 -6.95 -3.2 -7.15 Q-4.1 -12.65 -5.2 -15.9 L-6.15 -19.05 -2.0 -18.15 Q2.0 -17.4 5.55 -13.0 L5.65 -13.1 M10.3 -5.0 Q10.0 -5.7 10.0 -6.55 10.0 -5.7 10.3 -5.0 M4.85 -5.7 L5.35 -4.4 Q6.3 -1.75 6.7 0.75 L6.8 1.35 6.85 1.7 6.8 1.35 6.7 0.75 Q6.3 -1.75 5.35 -4.4 L4.85 -5.7" fill="#3a3961" fill-rule="evenodd" stroke="none"/>
    <path d="M1.2 -0.15 L1.35 1.45 -0.7 -4.3 -0.65 -4.4 -0.45 -4.7 1.2 -0.15 M-4.55 1.8 L-4.2 -1.75 -5.6 1.3 -4.5 -2.45 -7.15 -7.7 -4.3 -4.65 -4.45 -5.4 -4.7 -6.3 Q-5.6 -9.75 -7.1 -12.85 L-6.15 -11.45 -5.1 -9.0 -4.5 -7.35 -3.95 -5.6 -3.45 -3.45 -6.3 -6.5 -3.9 -1.8 -3.85 -1.65 -3.65 -1.25 -4.55 1.8 M-3.9 -8.15 L-3.95 -8.2 -4.05 -9.1 -4.25 -10.35 Q-4.95 -15.0 -8.0 -19.7 L-4.8 -19.45 -4.0 -19.3 Q1.6 -18.2 4.8 -14.2 L5.65 -13.1 5.55 -13.0 Q2.0 -17.4 -2.0 -18.15 L-6.15 -19.05 -5.2 -15.9 Q-4.1 -12.65 -3.2 -7.15 L-3.15 -6.95 -3.9 -8.0 -3.9 -8.15" fill="#6963a1" fill-rule="evenodd" stroke="none"/>
    <path d="M5.65 -13.1 L5.8 -12.85 6.2 -12.15 7.9 -8.1 8.0 -8.85 8.0 -9.05 8.05 -10.75 Q8.1 -14.6 7.15 -17.95 L7.95 -16.4 8.1 -16.05 8.35 -15.45 9.2 -12.7 9.55 -10.8 9.95 -7.45 10.0 -6.55 13.6 -13.25 10.9 -3.9 M10.8 -3.6 L10.5 -2.55 14.25 -7.1 13.8 -6.35 11.9 -2.85 11.65 -2.3 11.4 -1.85 Q10.3 0.4 9.55 2.35 L9.25 3.05 8.3 5.6 8.3 4.3 7.65 5.45 7.65 4.85 8.3 3.8 8.3 3.35 8.4 2.65 8.4 2.6 8.15 1.6 7.95 1.45 7.5 1.45 7.4 1.45 7.2 1.55 6.9 1.65 6.85 1.7 7.0 3.8 7.0 4.05 7.0 4.1 6.95 5.0 6.95 5.45 Q6.2 2.15 4.8 -0.45 L4.7 -0.65 4.1 -1.55 4.1 -1.6 3.75 -2.1 3.15 -2.95 4.25 2.65 3.3 1.05 2.35 -0.5 1.85 -1.25 1.4 -1.85 1.2 -2.15 1.0 -2.45 1.2 -0.15 1.35 1.45 -0.7 -4.3 -0.8 -4.5 Q-2.2 -2.4 -3.2 0.1 L-3.45 0.7 -3.6 1.05 -4.35 3.2 -4.85 5.0 -4.55 1.8 -4.2 -1.75 -5.6 1.3 -4.5 -2.45 -7.15 -7.7 -4.3 -4.65 -4.45 -5.4 -4.7 -6.3 Q-5.6 -9.75 -7.1 -12.85 L-6.15 -11.45 -3.9 -8.15 -3.95 -8.2 -4.05 -9.1 -4.25 -10.35 Q-4.95 -15.0 -8.0 -19.7 L-4.8 -19.45 -4.0 -19.3 Q1.6 -18.2 4.8 -14.2 L5.65 -13.1 M-3.9 -8.0 L-3.9 -8.15 M6.85 1.7 L6.8 1.35 6.7 0.75 Q6.3 -1.75 5.35 -4.4 L4.85 -5.7 M10.0 -6.55 Q10.0 -5.7 10.3 -5.0" fill="none" stroke="#000000" stroke-linecap="round" stroke-linejoin="round" stroke-width="0.05"/>
  </g>
</svg>
