<?xml version="1.0" encoding="UTF-8" standalone="no"?>
<svg xmlns:xlink="http://www.w3.org/1999/xlink" height="37.3px" width="34.65px" xmlns="http://www.w3.org/2000/svg">
  <g transform="matrix(1.0, 0.0, 0.0, 1.0, 17.3, 18.95)">
    <path d="M6.95 -18.95 L10.6 -18.95 Q13.2 1.9 14.95 8.7 16.65 15.45 17.2 15.85 17.75 16.25 16.05 16.65 14.3 17.0 10.7 15.9 7.65 4.0 6.95 -18.95" fill="#a7a7a7" fill-rule="evenodd" stroke="none"/>
    <path d="M6.95 -18.95 Q7.65 4.0 10.7 15.9 9.4 15.5 9.0 16.7 8.5 19.25 1.95 17.85 -4.6 16.4 -6.3 16.45 -8.05 16.5 -9.65 18.05 -10.3 18.7 -17.3 13.15 L-12.55 -18.95 6.95 -18.95 M1.6 8.5 Q-5.2 7.0 -4.65 -12.0 -5.2 7.0 1.6 8.5 M-7.75 -3.45 Q-10.55 10.6 -9.65 18.05 -10.55 10.6 -7.75 -3.45" fill="#bcbcbc" fill-rule="evenodd" stroke="none"/>
    <path d="M10.7 15.9 Q14.3 17.0 16.05 16.65 17.75 16.25 17.2 15.85 16.65 15.45 14.95 8.7 13.2 1.9 10.6 -18.95 L6.95 -18.95 Q7.65 4.0 10.7 15.9 9.4 15.5 9.0 16.7 8.5 19.25 1.95 17.85 -4.6 16.4 -6.3 16.45 -8.05 16.5 -9.65 18.05 -10.3 18.7 -17.3 13.15 L-12.55 -18.95 6.95 -18.95 M-9.65 18.05 Q-10.55 10.6 -7.75 -3.45 M-4.65 -12.0 Q-5.2 7.0 1.6 8.5" fill="none" stroke="#666666" stroke-linecap="round" stroke-linejoin="round" stroke-width="0.05"/>
  </g>
</svg>
