<?xml version="1.0" encoding="UTF-8" standalone="no"?>
<svg xmlns:xlink="http://www.w3.org/1999/xlink" height="37.85px" width="33.6px" xmlns="http://www.w3.org/2000/svg">
  <g transform="matrix(1.0, 0.0, 0.0, 1.0, 15.1, 18.95)">
    <path d="M10.0 16.2 Q8.1 5.5 6.95 -18.55 L6.9 -18.95 10.55 -18.95 10.75 -17.45 Q14.15 6.85 18.5 16.0 16.8 17.8 13.15 16.05 10.35 14.8 10.0 16.2" fill="#a7a7a7" fill-rule="evenodd" stroke="none"/>
    <path d="M6.9 -18.95 L6.95 -18.55 Q8.1 5.5 10.0 16.2 10.9 19.3 6.5 17.6 -0.4 14.25 -4.55 17.0 -8.7 19.75 -9.35 18.55 -10.1 17.4 -9.85 16.9 -13.35 13.25 -15.1 12.6 L-12.55 -18.95 6.9 -18.95 M-7.95 -3.45 Q-8.7 11.05 -9.85 16.9 -8.7 11.05 -7.95 -3.45 M1.6 8.55 Q-5.6 14.05 -4.65 -11.9 -5.6 14.05 1.6 8.55" fill="#bcbcbc" fill-rule="evenodd" stroke="none"/>
    <path d="M6.9 -18.95 L6.95 -18.55 Q8.1 5.5 10.0 16.2 10.35 14.8 13.15 16.05 16.8 17.8 18.5 16.0 14.15 6.85 10.75 -17.45 L10.55 -18.95 6.9 -18.95 -12.55 -18.95 -15.1 12.6 Q-13.35 13.25 -9.85 16.9 -8.7 11.05 -7.95 -3.45 M10.0 16.2 Q10.9 19.3 6.5 17.6 -0.4 14.25 -4.55 17.0 -8.7 19.75 -9.35 18.55 -10.1 17.4 -9.85 16.9 M-4.65 -11.9 Q-5.6 14.05 1.6 8.55" fill="none" stroke="#666666" stroke-linecap="round" stroke-linejoin="round" stroke-width="0.05"/>
  </g>
</svg>
