<?xml version="1.0" encoding="UTF-8" standalone="no"?>
<svg xmlns:xlink="http://www.w3.org/1999/xlink" height="9.5px" width="5.8px" xmlns="http://www.w3.org/2000/svg">
  <g transform="matrix(1.0, 0.0, 0.0, 1.0, 3.7, -2.3)">
    <path d="M1.85 5.95 Q1.45 6.9 0.55 7.7 0.45 9.35 1.35 11.4 -0.3 12.25 -1.95 11.4 L-2.05 9.2 Q-4.0 6.8 -3.65 4.7 -1.8 4.1 -0.25 6.35 0.65 3.9 1.85 5.95" fill="#ca7de1" fill-rule="evenodd" stroke="none"/>
    <path d="M-3.65 4.7 Q-3.5 3.45 -2.6 2.35 -0.35 2.05 1.85 3.15 2.35 4.65 1.85 5.95 0.65 3.9 -0.25 6.35 -1.8 4.1 -3.65 4.7" fill="#b547d6" fill-rule="evenodd" stroke="none"/>
    <path d="M-3.65 4.7 Q-3.5 3.45 -2.6 2.35 -0.35 2.05 1.85 3.15 2.35 4.65 1.85 5.95 1.45 6.9 0.55 7.7 0.45 9.35 1.35 11.4 M-1.95 11.4 L-2.05 9.2 Q-4.0 6.8 -3.65 4.7 Z" fill="none" stroke="#621d81" stroke-linecap="round" stroke-linejoin="round" stroke-width="0.05"/>
  </g>
</svg>
