<?xml version="1.0" encoding="UTF-8" standalone="no"?>
<svg xmlns:xlink="http://www.w3.org/1999/xlink" height="88.9px" width="19.05px" xmlns="http://www.w3.org/2000/svg">
  <g transform="matrix(1.0, 0.0, 0.0, 1.0, 10.4, 73.4)">
    <path d="M-10.3 -71.7 L-10.4 -71.9 -10.35 -72.15 Q-10.25 -72.45 -9.6 -72.75 L-9.45 -72.8 -7.6 -73.3 -5.7 -73.4 -5.45 -73.35 Q-4.7 -73.25 -4.5 -72.95 L-4.5 -72.8 -4.5 -72.7 Q-4.55 -72.35 -5.25 -72.0 -6.1 -71.55 -7.3 -71.35 -8.5 -71.2 -9.4 -71.35 -10.1 -71.45 -10.3 -71.7" fill="#aa8a79" fill-rule="evenodd" stroke="none"/>
    <path d="M0.4 -47.45 L0.65 -46.4 Q-3.2 -43.95 -7.45 -45.15 L-7.55 -46.3 -8.6 -55.95 -8.3 -55.9 Q-6.9 -55.55 -5.0 -55.85 -3.15 -56.15 -1.9 -56.9 L-1.7 -57.05 -1.5 -57.15 0.4 -47.45 M1.15 -43.7 L4.95 -24.0 Q3.5 -22.05 0.4 -21.3 -2.55 -20.6 -5.0 -22.45 L-7.15 -42.45 -6.85 -42.3 -2.85 -42.0 Q-1.45 -42.25 -0.4 -42.75 0.25 -43.05 0.8 -43.45 L1.05 -43.65 1.15 -43.7 M-10.3 -71.7 Q-10.1 -71.45 -9.4 -71.35 -8.5 -71.2 -7.3 -71.35 -6.1 -71.55 -5.25 -72.0 -4.55 -72.35 -4.5 -72.7 L-2.05 -60.05 -1.9 -59.2 Q-5.5 -57.4 -8.85 -58.15 L-8.95 -59.1 -10.3 -71.7" fill="#95715e" fill-rule="evenodd" stroke="none"/>
    <path d="M-8.6 -45.1 Q-8.2 -44.7 -7.45 -44.4 L-7.35 -44.4 -7.15 -44.3 -4.0 -43.9 -3.15 -44.0 Q-0.9 -44.35 0.5 -45.45 L0.75 -45.6 0.75 -45.65 0.85 -45.7 1.65 -46.65 2.15 -45.7 Q2.25 -44.65 1.15 -43.7 L1.05 -43.65 0.8 -43.45 Q0.25 -43.05 -0.4 -42.75 -1.45 -42.25 -2.85 -42.0 L-6.85 -42.3 -7.15 -42.45 Q-8.55 -43.0 -8.7 -44.1 L-8.6 -45.1 M8.2 11.55 L8.65 12.15 Q8.7 12.65 7.85 13.15 L6.8 13.65 5.75 13.9 4.45 14.0 3.45 13.85 Q2.5 13.6 2.4 13.1 2.35 12.85 2.55 12.65 L3.55 12.95 4.25 13.05 5.6 12.95 6.7 12.65 7.4 12.25 8.2 11.55 M-0.85 -59.5 L-0.45 -58.8 Q-0.35 -57.95 -1.45 -57.2 L-1.5 -57.15 -1.7 -57.05 -1.9 -56.9 Q-3.15 -56.15 -5.0 -55.85 -6.9 -55.55 -8.3 -55.9 L-8.6 -55.95 Q-10.1 -56.35 -10.25 -57.3 L-10.1 -58.05 Q-9.7 -57.65 -8.85 -57.45 L-8.75 -57.45 -8.55 -57.35 Q-7.1 -57.05 -5.25 -57.3 -3.4 -57.6 -2.1 -58.4 L-1.95 -58.5 -1.75 -58.6 -1.7 -58.65 Q-1.1 -59.05 -0.85 -59.5" fill="#b19d2e" fill-rule="evenodd" stroke="none"/>
    <path d="M0.4 -47.45 L1.65 -46.65 0.85 -45.7 0.75 -45.65 0.75 -45.6 0.5 -45.45 Q-0.9 -44.35 -3.15 -44.0 L-4.0 -43.9 -7.15 -44.3 -7.35 -44.4 -7.45 -44.4 Q-8.2 -44.7 -8.6 -45.1 L-8.45 -45.35 -7.55 -46.3 -7.45 -45.15 Q-3.2 -43.95 0.65 -46.4 L0.4 -47.45 M6.55 11.2 L7.55 11.35 8.2 11.55 7.4 12.25 6.7 12.65 5.6 12.95 4.25 13.05 3.55 12.95 2.55 12.65 3.15 12.0 Q3.55 11.75 4.1 11.6 L4.45 12.1 Q5.4 12.6 6.35 11.8 L6.55 11.2 M-2.05 -60.05 Q-1.25 -59.85 -0.85 -59.5 -1.1 -59.05 -1.7 -58.65 L-1.75 -58.6 -1.95 -58.5 -2.1 -58.4 Q-3.4 -57.6 -5.25 -57.3 -7.1 -57.05 -8.55 -57.35 L-8.75 -57.45 -8.85 -57.45 Q-9.7 -57.65 -10.1 -58.05 L-8.95 -59.1 -8.85 -58.15 Q-5.5 -57.4 -1.9 -59.2 L-2.05 -60.05" fill="#ceb842" fill-rule="evenodd" stroke="none"/>
    <path d="M4.95 -24.0 L2.2 -15.05 Q1.45 -14.3 0.3 -14.75 L-5.0 -22.45 Q-2.55 -20.6 0.4 -21.3 3.5 -22.05 4.95 -24.0" fill="#8c6a59" fill-rule="evenodd" stroke="none"/>
    <path d="M2.2 -15.05 L5.2 4.65 Q4.25 5.55 3.3 4.9 L0.3 -14.75 Q1.45 -14.3 2.2 -15.05" fill="#76594b" fill-rule="evenodd" stroke="none"/>
    <path d="M7.7 7.9 L6.55 11.2 6.35 11.8 Q5.4 12.6 4.45 12.1 L4.1 11.6 2.1 8.8 2.1 8.75 2.15 8.75 Q4.9 10.0 7.7 7.9 M6.8 13.65 L6.6 14.6 Q6.35 15.4 5.9 15.5 5.35 15.55 4.85 14.9 L4.45 14.0 5.75 13.9 6.8 13.65" fill="#916d5b" fill-rule="evenodd" stroke="none"/>
    <path d="M5.2 4.65 L7.7 7.9 Q4.9 10.0 2.15 8.75 L3.3 4.9 Q4.25 5.55 5.2 4.65" fill="#a88675" fill-rule="evenodd" stroke="none"/>
    <path d="M0.4 -47.45 L0.65 -46.4 M-7.45 -45.15 L-7.55 -46.3 -8.6 -55.95 M1.15 -43.7 L4.95 -24.0 2.2 -15.05 M7.7 7.9 L6.55 11.2 6.35 11.8 Q5.4 12.6 4.45 12.1 L4.1 11.6 2.1 8.8 2.1 8.75 2.15 8.75 Q4.9 10.0 7.7 7.9 M0.3 -14.75 L-5.0 -22.45 -7.15 -42.45 M4.95 -24.0 Q3.5 -22.05 0.4 -21.3 -2.55 -20.6 -5.0 -22.45 M-4.5 -72.7 L-4.5 -72.8 -4.5 -72.95 Q-4.7 -73.25 -5.45 -73.35 L-5.7 -73.4 -7.6 -73.3 -9.45 -72.8 -9.6 -72.75 Q-10.25 -72.45 -10.35 -72.15 L-10.4 -71.9 -10.3 -71.7 -8.95 -59.1 -8.85 -58.15 M-4.5 -72.7 L-2.05 -60.05 -1.9 -59.2 M-1.5 -57.15 L0.4 -47.45" fill="none" stroke="#553e35" stroke-linecap="round" stroke-linejoin="round" stroke-width="0.05"/>
    <path d="M1.65 -46.65 L0.4 -47.45 M0.65 -46.4 Q-3.2 -43.95 -7.45 -45.15 M-7.55 -46.3 L-8.45 -45.35 -8.6 -45.1 -8.7 -44.1 Q-8.55 -43.0 -7.15 -42.45 L-6.85 -42.3 -2.85 -42.0 Q-1.45 -42.25 -0.4 -42.75 0.25 -43.05 0.8 -43.45 L1.05 -43.65 1.15 -43.7 Q2.25 -44.65 2.15 -45.7 L1.65 -46.65 M6.55 11.2 L7.55 11.35 8.2 11.55 8.65 12.15 Q8.7 12.65 7.85 13.15 L6.8 13.65 5.75 13.9 4.45 14.0 3.45 13.85 Q2.5 13.6 2.4 13.1 2.35 12.85 2.55 12.65 L3.15 12.0 Q3.55 11.75 4.1 11.6 M-2.05 -60.05 Q-1.25 -59.85 -0.85 -59.5 L-0.45 -58.8 Q-0.35 -57.95 -1.45 -57.2 L-1.5 -57.15 -1.7 -57.05 -1.9 -56.9 Q-3.15 -56.15 -5.0 -55.85 -6.9 -55.55 -8.3 -55.9 L-8.6 -55.95 Q-10.1 -56.35 -10.25 -57.3 L-10.1 -58.05 -8.95 -59.1 M-1.9 -59.2 Q-5.5 -57.4 -8.85 -58.15" fill="none" stroke="#68561c" stroke-linecap="round" stroke-linejoin="round" stroke-width="0.05"/>
    <path d="M2.2 -15.05 L5.2 4.65 7.7 7.9 M6.8 13.65 L6.6 14.6 Q6.35 15.4 5.9 15.5 5.35 15.55 4.85 14.9 L4.45 14.0 M2.15 8.75 L3.3 4.9 0.3 -14.75 Q1.45 -14.3 2.2 -15.05 M5.2 4.65 Q4.25 5.55 3.3 4.9" fill="none" stroke="#553e35" stroke-linecap="round" stroke-linejoin="round" stroke-width="0.05"/>
  </g>
</svg>
