<?xml version="1.0" encoding="UTF-8" standalone="no"?>
<svg xmlns:xlink="http://www.w3.org/1999/xlink" height="22.3px" width="20.35px" xmlns="http://www.w3.org/2000/svg">
  <g transform="matrix(1.0, 0.0, 0.0, 1.0, 0.45, 5.6)">
    <path d="M3.4 -4.05 Q8.6 -4.05 13.75 -5.6 13.9 -4.45 13.15 -3.3 13.9 -4.45 13.75 -5.6 16.25 -1.6 19.4 1.6 19.3 7.9 19.9 13.8 L19.55 14.0 Q19.5 16.0 18.8 16.4 16.6 17.55 16.7 14.4 17.3 16.35 17.8 16.05 18.7 15.75 18.75 13.95 L18.65 10.95 Q18.6 8.0 17.65 1.75 15.55 -1.2 13.15 -3.3 L3.8 -2.65 3.4 -4.05 3.8 -2.65 Q1.85 -1.55 0.5 0.5 L-0.45 0.05 Q1.9 -1.65 3.4 -4.05 M19.55 14.0 L18.75 13.95 19.55 14.0 M17.65 1.75 Q18.55 2.85 19.4 1.6 18.55 2.85 17.65 1.75" fill="#cccccc" fill-rule="evenodd" stroke="none"/>
    <path d="M3.4 -4.05 L3.8 -2.65 13.15 -3.3 Q13.9 -4.45 13.75 -5.6 M19.9 13.8 L19.55 14.0 18.75 13.95 18.65 10.95 Q18.6 8.0 17.65 1.75 15.55 -1.2 13.15 -3.3 M16.7 14.4 Q17.3 16.35 17.8 16.05 18.7 15.75 18.75 13.95 M19.4 1.6 Q18.55 2.85 17.65 1.75 M-0.45 0.05 L0.5 0.5 Q1.85 -1.55 3.8 -2.65" fill="none" stroke="#666666" stroke-linecap="round" stroke-linejoin="round" stroke-width="0.05"/>
  </g>
</svg>
