<?xml version="1.0" encoding="UTF-8" standalone="no"?>
<svg xmlns:xlink="http://www.w3.org/1999/xlink" height="30.5px" width="46.35px" xmlns="http://www.w3.org/2000/svg">
  <g transform="matrix(1.0, 0.0, 0.0, 1.0, 78.75, 16.95)">
    <path d="M-47.2 -13.75 L-45.05 -15.4 Q-42.85 -16.95 -39.8 -16.95 -36.75 -16.95 -34.6 -15.4 -32.4 -13.85 -32.4 -11.7 -32.4 -10.8 -32.75 -10.0 L-33.15 -9.4 Q-33.7 -8.65 -34.6 -8.0 L-35.7 -7.25 -69.9 12.3 Q-69.25 11.8 -68.95 11.2 -68.65 10.6 -68.65 10.0 -68.65 8.5 -70.15 7.45 -71.65 6.35 -73.7 6.35 L-75.9 6.75 -47.2 -13.75" fill="#95715e" fill-rule="evenodd" stroke="none"/>
    <path d="M-69.9 12.3 L-70.15 12.5 Q-71.65 13.55 -73.7 13.55 -75.8 13.55 -77.3 12.5 -78.75 11.45 -78.75 10.0 -78.75 8.65 -77.6 7.7 L-77.4 7.55 -77.3 7.45 -77.1 7.35 -77.05 7.3 -75.9 6.75 -73.7 6.35 Q-71.65 6.35 -70.15 7.45 -68.65 8.5 -68.65 10.0 -68.65 10.6 -68.95 11.2 -69.25 11.8 -69.9 12.3" fill="#aa8a79" fill-rule="evenodd" stroke="none"/>
    <path d="M-47.2 -13.75 L-45.05 -15.4 Q-42.85 -16.95 -39.8 -16.95 -36.75 -16.95 -34.6 -15.4 -32.4 -13.85 -32.4 -11.7 -32.4 -10.8 -32.75 -10.0 M-33.15 -9.4 Q-33.7 -8.65 -34.6 -8.0 L-35.7 -7.25" fill="none" stroke="#553e35" stroke-linecap="round" stroke-linejoin="round" stroke-width="0.05"/>
    <path d="M-32.75 -10.0 L-33.15 -9.4 M-35.7 -7.25 L-69.9 12.3 -70.15 12.5 Q-71.65 13.55 -73.7 13.55 -75.8 13.55 -77.3 12.5 -78.75 11.45 -78.75 10.0 -78.75 8.65 -77.6 7.7 L-77.4 7.55 -77.3 7.45 -77.1 7.35 -77.05 7.3 -75.9 6.75 -47.2 -13.75 Z" fill="none" stroke="#553e35" stroke-linecap="round" stroke-linejoin="round" stroke-width="0.05"/>
    <path d="M-68.8 -0.05 Q-67.9 -0.25 -66.75 -0.05 L-66.6 -0.05 -66.3 0.0 -64.85 0.1 Q-63.6 0.2 -61.45 1.35 -59.3 2.45 -59.05 4.05 L-58.75 5.75 -58.7 5.85 Q-58.35 6.9 -58.6 7.75 L-61.5 7.5 -59.15 6.1 Q-59.45 1.15 -66.85 0.45 L-68.65 1.75 Q-69.0 0.7 -68.8 -0.05" fill="#ceb842" fill-rule="evenodd" stroke="none"/>
    <path d="M-68.8 -0.05 L-68.5 -0.65 Q-66.75 -1.7 -61.8 -0.25 -56.85 1.15 -57.05 6.15 -57.35 7.45 -58.6 7.75 -58.35 6.9 -58.7 5.85 L-58.75 5.75 -59.05 4.05 Q-59.3 2.45 -61.45 1.35 -63.6 0.2 -64.85 0.1 L-66.3 0.0 -66.6 -0.05 -66.75 -0.05 Q-67.9 -0.25 -68.8 -0.05" fill="#b19d2e" fill-rule="evenodd" stroke="none"/>
    <path d="M-61.5 7.5 L-59.15 6.1 M-66.85 0.45 L-68.65 1.75" fill="none" stroke="#553e35" stroke-linecap="round" stroke-linejoin="round" stroke-width="0.05"/>
    <path d="M-58.6 7.75 Q-57.35 7.45 -57.05 6.15 -56.85 1.15 -61.8 -0.25 -66.75 -1.7 -68.5 -0.65 L-68.8 -0.05 Q-69.0 0.7 -68.65 1.75 M-58.6 7.75 L-61.5 7.5 M-59.15 6.1 Q-59.45 1.15 -66.85 0.45" fill="none" stroke="#68561c" stroke-linecap="round" stroke-linejoin="round" stroke-width="0.05"/>
    <path d="M-61.95 -2.9 Q-62.35 -4.05 -62.1 -4.85 -61.15 -5.05 -59.9 -4.85 L-59.75 -4.85 -59.4 -4.8 -57.85 -4.7 Q-56.5 -4.6 -54.2 -3.35 -51.85 -2.15 -51.6 -0.45 L-51.25 1.4 -51.2 1.5 Q-50.85 2.65 -51.1 3.55 L-54.25 3.3 -51.7 1.8 Q-52.05 -3.55 -60.0 -4.3 L-61.95 -2.9" fill="#ceb842" fill-rule="evenodd" stroke="none"/>
    <path d="M-62.1 -4.85 L-61.8 -5.5 Q-59.9 -6.65 -54.55 -5.05 -49.2 -3.55 -49.45 1.85 -49.75 3.25 -51.1 3.55 -50.85 2.65 -51.2 1.5 L-51.25 1.4 -51.6 -0.45 Q-51.85 -2.15 -54.2 -3.35 -56.5 -4.6 -57.85 -4.7 L-59.4 -4.8 -59.75 -4.85 -59.9 -4.85 Q-61.15 -5.05 -62.1 -4.85" fill="#b19d2e" fill-rule="evenodd" stroke="none"/>
    <path d="M-54.25 3.3 L-51.7 1.8 M-60.0 -4.3 L-61.95 -2.9" fill="none" stroke="#553e35" stroke-linecap="round" stroke-linejoin="round" stroke-width="0.05"/>
    <path d="M-61.95 -2.9 Q-62.35 -4.05 -62.1 -4.85 L-61.8 -5.5 Q-59.9 -6.65 -54.55 -5.05 -49.2 -3.55 -49.45 1.85 -49.75 3.25 -51.1 3.55 L-54.25 3.3 M-51.7 1.8 Q-52.05 -3.55 -60.0 -4.3" fill="none" stroke="#68561c" stroke-linecap="round" stroke-linejoin="round" stroke-width="0.05"/>
  </g>
</svg>
