<?xml version="1.0" encoding="UTF-8" standalone="no"?>
<svg xmlns:xlink="http://www.w3.org/1999/xlink" height="6.8px" width="15.35px" xmlns="http://www.w3.org/2000/svg">
  <g transform="matrix(1.0, 0.0, 0.0, 1.0, 8.7, 2.4)">
    <path d="M-6.5 2.4 L-2.05 1.35 Q0.9 -0.2 1.3 -2.4 L3.55 -2.05 Q7.3 2.85 6.5 4.4 L3.2 4.05 2.3 3.15 Q1.9 3.3 1.5 4.05 L-5.45 4.4 Q-5.6 3.55 -6.1 2.85 L-6.5 2.4 -6.1 2.85 Q-5.6 3.55 -5.45 4.4 L-8.7 4.3 Q-8.6 3.15 -6.5 2.4" fill="#537557" fill-rule="evenodd" stroke="none"/>
    <path d="M-6.5 2.4 L-6.1 2.85 Q-5.6 3.55 -5.45 4.4" fill="none" stroke="#374e32" stroke-linecap="round" stroke-linejoin="round" stroke-width="0.05"/>
    <path d="M-5.45 4.4 L1.5 4.05 Q1.9 3.3 2.3 3.15 L3.2 4.05 6.5 4.4 Q7.3 2.85 3.55 -2.05 L1.3 -2.4 Q0.9 -0.2 -2.05 1.35 L-6.5 2.4 Q-8.6 3.15 -8.7 4.3 L-5.45 4.4" fill="none" stroke="#374e32" stroke-linecap="round" stroke-linejoin="round" stroke-width="0.05"/>
  </g>
</svg>
