<?xml version="1.0" encoding="UTF-8" standalone="no"?>
<svg xmlns:xlink="http://www.w3.org/1999/xlink" height="89.5px" width="109.05px" xmlns="http://www.w3.org/2000/svg">
  <g transform="matrix(1.0, 0.0, 0.0, 1.0, 10.15, 65.75)">
    <path d="M57.55 -65.75 Q40.95 -62.1 25.9 -55.95 -0.2 -50.6 -1.65 -15.2 L1.85 -11.1 Q0.05 -49.75 31.95 -53.6 51.2 -62.05 71.4 -65.15 80.8 -64.05 90.25 -61.05 L90.25 -55.45 Q71.95 -54.7 51.0 -50.0 50.7 -27.25 16.6 -18.35 L13.5 -5.7 18.0 -1.55 20.6 -14.55 Q53.8 -25.2 53.65 -44.0 72.55 -50.45 90.25 -51.45 L90.25 -39.4 Q87.75 -36.85 84.7 -35.05 L57.3 -41.5 Q54.5 -22.7 22.35 -11.0 22.5 -0.35 20.25 6.4 L19.6 6.3 Q19.35 11.9 13.1 9.9 4.05 6.7 -2.15 0.1 -4.5 -2.6 -5.25 -7.8 -10.65 -33.2 14.25 -53.6 35.65 -65.0 57.55 -65.75" fill="#e17976" fill-rule="evenodd" stroke="none"/>
    <path d="M57.55 -65.75 L71.4 -65.15 Q51.2 -62.05 31.95 -53.6 0.05 -49.75 1.85 -11.1 L-1.65 -15.2 Q-0.2 -50.6 25.9 -55.95 40.95 -62.1 57.55 -65.75 M90.25 -55.45 L90.25 -51.45 Q72.55 -50.45 53.65 -44.0 53.8 -25.2 20.6 -14.55 L18.0 -1.55 13.5 -5.7 16.6 -18.35 Q50.7 -27.25 51.0 -50.0 71.95 -54.7 90.25 -55.45 M-6.8 -35.35 L-6.75 -35.6 Q-4.25 -47.95 7.1 -50.0 -1.55 -41.55 -7.45 -29.95 -7.3 -32.85 -6.8 -35.35 M27.7 -7.85 Q53.65 -10.3 67.0 -29.95 53.65 -10.3 27.7 -7.85 47.6 -16.9 67.0 -29.95 57.35 -0.3 27.7 -7.85" fill="#aeddc9" fill-rule="evenodd" stroke="none"/>
    <path d="M90.25 -39.4 L90.25 -33.85 90.25 -24.4 Q85.55 -15.9 77.95 -6.55 L78.2 -1.2 Q51.5 11.35 20.25 6.4 22.5 -0.35 22.35 -11.0 54.5 -22.7 57.3 -41.5 L60.15 -37.45 87.65 -31.95 Q89.05 -32.8 90.25 -33.85 89.05 -32.8 87.65 -31.95 L60.15 -37.45 57.3 -41.5 84.7 -35.05 Q87.75 -36.85 90.25 -39.4 M-9.95 -20.05 Q-9.4 -27.2 -6.8 -35.35 -7.3 -32.85 -7.45 -29.95 -1.55 -41.55 7.1 -50.0 L11.05 -53.6 14.25 -53.6 Q-10.65 -33.2 -5.25 -7.8 -9.2 -11.05 -9.95 -20.05 M27.7 -7.85 Q57.35 -0.3 67.0 -29.95 47.6 -16.9 27.7 -7.85 M87.65 -31.95 L84.7 -35.05 87.65 -31.95" fill="#ebebeb" fill-rule="evenodd" stroke="none"/>
    <path d="M90.25 -24.4 L90.25 -9.15 Q87.4 -4.4 83.6 0.2 65.35 20.65 35.9 23.75 9.85 24.2 -7.9 -2.35 -10.8 -10.25 -9.95 -20.05 -9.2 -11.05 -5.25 -7.8 -4.5 -2.6 -2.15 0.1 4.05 6.7 13.1 9.9 19.35 11.9 19.6 6.3 L20.25 6.4 Q51.5 11.35 78.2 -1.2 L77.95 -6.55 Q85.55 -15.9 90.25 -24.4" fill="#742d3b" fill-rule="evenodd" stroke="none"/>
    <path d="M90.25 -9.15 Q87.4 -4.4 83.6 0.2 65.35 20.65 35.9 23.75 9.85 24.2 -7.9 -2.35 -10.8 -10.25 -9.95 -20.05 -9.2 -11.05 -5.25 -7.8 M20.25 6.4 Q51.5 11.35 78.2 -1.2 L77.95 -6.55 Q85.55 -15.9 90.25 -24.4" fill="none" stroke="#451b24" stroke-linecap="round" stroke-linejoin="round" stroke-width="0.05"/>
    <path d="M71.4 -65.15 L57.55 -65.75 Q40.95 -62.1 25.9 -55.95 -0.2 -50.6 -1.65 -15.2 L1.85 -11.1 Q0.05 -49.75 31.95 -53.6 51.2 -62.05 71.4 -65.15 M-6.8 -35.35 L-6.75 -35.6 Q-4.25 -47.95 7.1 -50.0 -1.55 -41.55 -7.45 -29.95 -7.3 -32.85 -6.8 -35.35 M90.25 -51.45 Q72.55 -50.45 53.65 -44.0 53.8 -25.2 20.6 -14.55 L18.0 -1.55 13.5 -5.7 16.6 -18.35 Q50.7 -27.25 51.0 -50.0 71.95 -54.7 90.25 -55.45 M67.0 -29.95 Q53.65 -10.3 27.7 -7.85 57.35 -0.3 67.0 -29.95 47.6 -16.9 27.7 -7.85" fill="none" stroke="#42625a" stroke-linecap="round" stroke-linejoin="round" stroke-width="0.05"/>
    <path d="M-9.95 -20.05 Q-9.4 -27.2 -6.8 -35.35 M7.1 -50.0 L11.05 -53.6 14.25 -53.6 M90.25 -33.85 Q89.05 -32.8 87.65 -31.95 L60.15 -37.45 57.3 -41.5 M84.7 -35.05 L87.65 -31.95" fill="none" stroke="#828282" stroke-linecap="round" stroke-linejoin="round" stroke-width="0.05"/>
    <path d="M57.3 -41.5 Q54.5 -22.7 22.35 -11.0 22.5 -0.35 20.25 6.4 L19.6 6.3 Q19.35 11.9 13.1 9.9 4.05 6.7 -2.15 0.1 -4.5 -2.6 -5.25 -7.8 -10.65 -33.2 14.25 -53.6 M57.3 -41.5 L84.7 -35.05 Q87.75 -36.85 90.25 -39.4" fill="none" stroke="#932222" stroke-linecap="round" stroke-linejoin="round" stroke-width="0.05"/>
    <path d="M71.4 -65.15 Q80.8 -64.05 90.25 -61.05 M14.25 -53.6 Q35.65 -65.0 57.55 -65.75" fill="none" stroke="#932222" stroke-linecap="round" stroke-linejoin="round" stroke-width="0.05"/>
    <path d="M90.25 -55.45 L90.25 -61.05 95.75 -59.15 96.8 -55.6 90.25 -55.45 M97.7 -51.65 L97.7 -51.6 97.65 -51.5 Q94.85 -44.15 90.25 -39.4 L90.25 -51.45 97.7 -51.65" fill="#e17976" fill-rule="evenodd" stroke="none"/>
    <path d="M90.25 -51.45 L90.25 -55.45 96.8 -55.6 97.7 -51.65 90.25 -51.45" fill="#aeddc9" fill-rule="evenodd" stroke="none"/>
    <path d="M90.25 -24.4 L90.25 -33.85 90.25 -39.4 Q94.85 -44.15 97.65 -51.5 L97.7 -51.5 Q96.45 -39.5 90.25 -33.85 96.45 -39.5 97.7 -51.5 98.4 -39.2 90.25 -24.4" fill="#ebebeb" fill-rule="evenodd" stroke="none"/>
    <path d="M97.7 -51.5 Q102.15 -29.05 90.25 -9.15 L90.25 -24.4 Q98.4 -39.2 97.7 -51.5" fill="#742d3b" fill-rule="evenodd" stroke="none"/>
    <path d="M97.7 -51.6 L97.7 -51.55 97.7 -51.5 Q102.15 -29.05 90.25 -9.15 M97.7 -51.5 Q98.4 -39.2 90.25 -24.4" fill="none" stroke="#451b24" stroke-linecap="round" stroke-linejoin="round" stroke-width="0.05"/>
    <path d="M95.75 -59.15 L96.8 -55.6 M97.7 -51.65 L97.7 -51.6 97.65 -51.5 Q94.85 -44.15 90.25 -39.4" fill="none" stroke="#932222" stroke-linecap="round" stroke-linejoin="round" stroke-width="0.05"/>
    <path d="M96.8 -55.6 L97.7 -51.65 90.25 -51.45 M96.8 -55.6 L90.25 -55.45" fill="none" stroke="#42625a" stroke-linecap="round" stroke-linejoin="round" stroke-width="0.05"/>
    <path d="M90.25 -61.05 L95.75 -59.15" fill="none" stroke="#932222" stroke-linecap="round" stroke-linejoin="round" stroke-width="0.05"/>
    <path d="M90.25 -33.85 Q96.45 -39.5 97.7 -51.5" fill="none" stroke="#828282" stroke-linecap="round" stroke-linejoin="round" stroke-width="0.05"/>
  </g>
</svg>
