<?xml version="1.0" encoding="UTF-8" standalone="no"?>
<svg xmlns:xlink="http://www.w3.org/1999/xlink" height="91.7px" width="108.0px" xmlns="http://www.w3.org/2000/svg">
  <g transform="matrix(1.0, 0.0, 0.0, 1.0, 9.85, 70.9)">
    <path d="M53.65 -65.3 L60.6 -65.4 Q60.35 -58.45 70.0 -52.75 L71.4 -51.95 Q82.4 -46.0 93.9 -46.25 L94.75 -43.45 89.7 -44.7 Q84.35 -45.6 78.6 -44.95 61.35 -43.1 40.4 -27.45 6.75 -24.7 10.4 -47.4 28.1 -62.8 53.65 -65.3" fill="#edc05b" fill-rule="evenodd" stroke="none"/>
    <path d="M95.7 -38.85 Q96.3 -35.05 96.3 -31.2 83.25 12.0 3.8 10.2 -5.75 3.25 -9.8 -6.2 -10.9 -32.55 5.1 -47.55 L6.85 -49.1 Q3.75 -19.05 40.2 -22.2 72.85 -44.7 95.7 -38.85 M3.2 -30.6 Q1.2 -33.2 1.65 -39.1 -3.0 -35.35 -0.2 -27.9 L3.2 -30.6 M11.3 -17.0 Q23.2 -9.7 27.05 -17.85 19.45 -16.9 13.9 -21.1 L11.3 -17.0 M55.55 -15.15 L58.0 -14.75 Q62.95 -14.35 68.9 -16.55 74.8 -18.8 78.3 -22.35 81.8 -25.85 80.8 -28.6 80.4 -29.65 79.45 -30.35 77.85 -31.5 74.8 -31.7 69.85 -32.05 63.95 -29.8 58.0 -27.65 54.5 -24.1 51.0 -20.6 52.05 -17.85 52.8 -15.9 55.55 -15.15" fill="#d1e2be" fill-rule="evenodd" stroke="none"/>
    <path d="M96.3 -31.2 Q96.3 -20.85 91.85 -10.35 73.55 23.1 25.5 20.65 12.4 16.45 3.8 10.2 83.25 12.0 96.3 -31.2" fill="#b67858" fill-rule="evenodd" stroke="none"/>
    <path d="M60.6 -65.4 Q62.4 -68.9 67.65 -70.25 74.05 -71.9 81.9 -69.35 89.8 -66.8 94.5 -61.5 97.2 -58.45 97.9 -55.5 93.7 -47.75 70.0 -52.75 60.35 -58.45 60.6 -65.4" fill="#a9adb0" fill-rule="evenodd" stroke="none"/>
    <path d="M94.75 -43.45 L95.7 -38.85 Q72.85 -44.7 40.2 -22.2 3.75 -19.05 6.85 -49.1 L11.9 -52.9 Q19.05 -57.6 28.5 -60.8 19.05 -57.6 11.9 -52.9 L6.85 -49.1 5.1 -47.55 Q6.45 -52.35 14.35 -57.4 21.1 -61.7 28.5 -60.8 L30.5 -61.4 Q42.85 -64.7 53.65 -65.3 28.1 -62.8 10.4 -47.4 6.75 -24.7 40.4 -27.45 61.35 -43.1 78.6 -44.95 84.35 -45.6 89.7 -44.7 L94.75 -43.45 M3.2 -30.6 L-0.2 -27.9 Q-3.0 -35.35 1.65 -39.1 1.2 -33.2 3.2 -30.6 M11.3 -17.0 L13.9 -21.1 Q19.45 -16.9 27.05 -17.85 23.2 -9.7 11.3 -17.0 M79.45 -30.35 Q74.8 -21.15 55.55 -15.15 52.8 -15.9 52.05 -17.85 51.0 -20.6 54.5 -24.1 58.0 -27.65 63.95 -29.8 69.85 -32.05 74.8 -31.7 77.85 -31.5 79.45 -30.35" fill="#ebebeb" fill-rule="evenodd" stroke="none"/>
    <path d="M79.45 -30.35 Q80.4 -29.65 80.8 -28.6 81.8 -25.85 78.3 -22.35 74.8 -18.8 68.9 -16.55 62.95 -14.35 58.0 -14.75 L55.55 -15.15 Q74.8 -21.15 79.45 -30.35" fill="#bfbec6" fill-rule="evenodd" stroke="none"/>
    <path d="M97.9 -55.5 Q98.4 -53.4 97.9 -51.35 97.05 -48.1 93.9 -46.25 82.4 -46.0 71.4 -51.95 L70.0 -52.75 Q93.7 -47.75 97.9 -55.5" fill="#6d747a" fill-rule="evenodd" stroke="none"/>
    <path d="M94.75 -43.45 L95.7 -38.85" fill="none" stroke="#000000" stroke-linecap="round" stroke-linejoin="round" stroke-width="0.05"/>
    <path d="M95.7 -38.85 Q96.3 -35.05 96.3 -31.2 M3.8 10.2 Q-5.75 3.25 -9.8 -6.2 -10.9 -32.55 5.1 -47.55 L6.85 -49.1" fill="none" stroke="#5e9346" stroke-linecap="round" stroke-linejoin="round" stroke-width="0.05"/>
    <path d="M5.1 -47.55 Q6.45 -52.35 14.35 -57.4 21.1 -61.7 28.5 -60.8 L30.5 -61.4 Q42.85 -64.7 53.65 -65.3 M28.5 -60.8 Q19.05 -57.6 11.9 -52.9 L6.85 -49.1 Q3.75 -19.05 40.2 -22.2 72.85 -44.7 95.7 -38.85 M3.2 -30.6 L-0.2 -27.9 Q-3.0 -35.35 1.65 -39.1 1.2 -33.2 3.2 -30.6 M11.3 -17.0 Q23.2 -9.7 27.05 -17.85 19.45 -16.9 13.9 -21.1 L11.3 -17.0 M55.55 -15.15 L58.0 -14.75 Q62.95 -14.35 68.9 -16.55 74.8 -18.8 78.3 -22.35 81.8 -25.85 80.8 -28.6 80.4 -29.65 79.45 -30.35 77.85 -31.5 74.8 -31.7 69.85 -32.05 63.95 -29.8 58.0 -27.65 54.5 -24.1 51.0 -20.6 52.05 -17.85 52.8 -15.9 55.55 -15.15" fill="none" stroke="#767584" stroke-linecap="round" stroke-linejoin="round" stroke-width="0.05"/>
    <path d="M96.3 -31.2 Q96.3 -20.85 91.85 -10.35 73.55 23.1 25.5 20.65 12.4 16.45 3.8 10.2" fill="none" stroke="#86503c" stroke-linecap="round" stroke-linejoin="round" stroke-width="0.05"/>
    <path d="M53.65 -65.3 L60.6 -65.4 Q60.35 -58.45 70.0 -52.75 L71.4 -51.95 Q82.4 -46.0 93.9 -46.25 L94.75 -43.45 89.7 -44.7 Q84.35 -45.6 78.6 -44.95 61.35 -43.1 40.4 -27.45 6.75 -24.7 10.4 -47.4 28.1 -62.8 53.65 -65.3" fill="none" stroke="#885a0f" stroke-linecap="round" stroke-linejoin="round" stroke-width="0.05"/>
    <path d="M60.6 -65.4 Q62.4 -68.9 67.65 -70.25 74.05 -71.9 81.9 -69.35 89.8 -66.8 94.5 -61.5 97.2 -58.45 97.9 -55.5 98.4 -53.4 97.9 -51.35 97.05 -48.1 93.9 -46.25" fill="none" stroke="#3d4043" stroke-linecap="round" stroke-linejoin="round" stroke-width="0.05"/>
  </g>
</svg>
