<?xml version="1.0" encoding="UTF-8" standalone="no"?>
<svg xmlns:xlink="http://www.w3.org/1999/xlink" height="88.3px" width="91.3px" xmlns="http://www.w3.org/2000/svg">
  <g transform="matrix(1.0, 0.0, 0.0, 1.0, 49.25, 33.1)">
    <path d="M27.45 7.6 Q27.55 1.15 31.05 0.0 L31.2 -0.05 34.75 -1.1 34.95 -1.15 35.3 -1.2 35.8 -1.15 36.1 -1.15 37.9 -0.5 38.3 -0.25 38.65 -0.05 39.8 0.9 Q42.05 3.2 42.05 6.4 42.05 9.65 39.8 11.9 37.55 14.15 34.3 14.2 L31.8 13.8 Q31.55 11.1 29.55 9.1 28.6 8.15 27.5 7.6 L27.45 7.6 27.5 7.6 Q28.6 8.15 29.55 9.1 31.55 11.1 31.8 13.8 L31.85 14.6 Q31.85 17.85 29.55 20.1 27.3 22.35 24.1 22.35 21.6 22.35 19.65 21.0 19.45 23.75 17.4 25.75 15.15 28.05 11.95 28.05 8.8 28.05 6.6 25.95 6.1 27.85 4.6 29.35 2.35 31.65 -0.9 31.65 -4.1 31.65 -6.4 29.35 -8.65 27.1 -8.65 23.9 -8.65 22.5 -8.25 21.35 L-8.15 21.0 Q-5.4 17.85 -2.25 17.2 0.9 16.5 4.5 18.3 L4.6 18.4 4.55 18.25 Q9.6 11.7 16.6 14.05 L16.6 14.1 16.65 14.05 Q18.85 6.15 27.45 7.6 M19.65 21.0 L19.7 20.3 Q19.7 17.05 17.4 14.8 L16.75 14.2 16.6 14.1 16.75 14.2 17.4 14.8 Q19.7 17.05 19.7 20.3 L19.65 21.0 M4.6 18.4 L4.7 18.5 Q6.85 20.7 6.85 23.9 L6.6 25.95 6.85 23.9 Q6.85 20.7 4.7 18.5 L4.6 18.4" fill="#3b2e2d" fill-rule="evenodd" stroke="none"/>
    <path d="M31.8 13.8 L34.3 14.2 Q37.55 14.15 39.8 11.9 42.05 9.65 42.05 6.4 42.05 3.2 39.8 0.9 L38.65 -0.05 38.3 -0.25 37.9 -0.5 36.1 -1.15 35.8 -1.15 35.3 -1.2 34.95 -1.15 34.75 -1.1 31.2 -0.05 31.05 0.0 Q27.55 1.15 27.45 7.6 L27.5 7.6 Q28.6 8.15 29.55 9.1 31.55 11.1 31.8 13.8 L31.85 14.6 Q31.85 17.85 29.55 20.1 27.3 22.35 24.1 22.35 21.6 22.35 19.65 21.0 19.45 23.75 17.4 25.75 15.15 28.05 11.95 28.05 8.8 28.05 6.6 25.95 6.1 27.85 4.6 29.35 2.35 31.65 -0.9 31.65 -4.1 31.65 -6.4 29.35 -8.65 27.1 -8.65 23.9 -8.65 22.5 -8.25 21.35 L-8.15 21.0 Q-5.4 17.85 -2.25 17.2 0.9 16.5 4.5 18.3 L4.6 18.4 4.55 18.25 Q9.6 11.7 16.6 14.05 L16.6 14.1 16.65 14.05 Q18.85 6.15 27.45 7.6 M6.6 25.95 L6.85 23.9 Q6.85 20.7 4.7 18.5 L4.6 18.4 M16.6 14.1 L16.75 14.2 17.4 14.8 Q19.7 17.05 19.7 20.3 L19.65 21.0" fill="none" stroke="#898801" stroke-linecap="round" stroke-linejoin="round" stroke-width="0.05"/>
    <path d="M25.0 9.15 L24.55 9.5 Q22.65 10.85 20.25 11.9 L19.9 12.1 16.45 13.3 Q12.7 14.45 9.05 14.85 L8.2 14.95 8.45 14.85 13.55 13.0 13.7 12.95 19.75 -2.9 27.85 -8.45 28.3 -13.1 28.85 -12.6 Q29.8 -11.25 30.4 -9.5 32.55 -3.5 29.55 3.4 28.1 6.7 25.0 9.15 M-10.05 46.2 L-10.15 46.3 -26.7 55.2 Q-30.45 51.4 -26.35 46.05 L-20.3 40.85 -17.4 29.65 Q-11.55 25.9 -6.65 25.95 -8.5 34.75 -14.45 42.4 -13.65 46.0 -10.05 46.2 M-42.0 31.3 L-42.0 34.7 Q-42.7 43.4 -46.4 42.55 L-49.25 24.45 Q-47.2 20.8 -44.85 17.45 -41.95 16.85 -39.55 18.95 L-46.0 25.2 Q-45.75 29.0 -44.75 31.25 L-42.0 31.3" fill="#ffffff" fill-rule="evenodd" stroke="none"/>
    <path d="M-29.5 8.35 L-29.6 9.7 -29.6 11.1 -29.6 11.2 -32.4 12.05 -31.5 6.95 -29.5 8.35" fill="#f2b0b0" fill-rule="evenodd" stroke="none"/>
    <path d="M-32.4 12.05 L-29.6 11.2 Q-29.5 13.45 -28.8 16.55 -30.9 14.65 -32.4 12.05" fill="#ed9696" fill-rule="evenodd" stroke="none"/>
    <path d="M-29.6 11.2 L-25.75 7.6 -22.75 14.6 Q-24.35 15.55 -26.15 16.05 L-27.0 16.3 -27.7 16.4 -28.8 16.55 Q-29.5 13.45 -29.6 11.2" fill="#df3e3e" fill-rule="evenodd" stroke="none"/>
    <path d="M-29.6 11.2 L-29.6 11.1 -29.6 9.7 -29.5 8.35 Q-27.65 8.45 -25.75 7.6 L-29.6 11.2" fill="#e87171" fill-rule="evenodd" stroke="none"/>
    <path d="M12.45 -33.1 L-1.3 -27.7 -4.75 -29.05 -2.65 -29.9 -1.85 -30.25 -0.55 -30.65 Q4.15 -32.15 12.3 -33.1 L12.45 -33.1 M-10.15 -26.5 L-3.85 -24.8 -3.8 -24.85 -1.35 -14.4 -1.45 -14.4 Q-4.3 -13.05 -7.15 -12.1 -15.15 -9.05 -24.0 -7.0 -24.5 -10.65 -24.4 -16.2 L-24.3 -16.3 Q-18.6 -20.8 -14.0 -23.95 L-13.95 -23.95 -10.15 -26.5 M-26.85 -14.3 Q-28.6 -11.05 -26.0 -3.3 -16.05 -3.95 -5.4 -9.1 L-5.4 -9.15 Q4.05 -11.95 11.35 -19.35 L23.5 -29.5 29.1 -20.85 28.75 -17.3 Q32.0 -13.7 34.7 -6.6 38.2 2.75 25.0 9.15 28.1 6.7 29.55 3.4 32.55 -3.5 30.4 -9.5 29.8 -11.25 28.85 -12.6 L28.3 -13.1 28.75 -17.3 28.3 -13.1 27.85 -8.45 19.75 -2.9 13.7 12.95 13.55 13.0 8.45 14.85 8.2 14.95 9.05 14.85 Q12.7 14.45 16.45 13.3 L19.9 12.1 Q15.65 20.8 5.8 21.1 1.3 21.2 -4.35 19.5 1.35 17.7 8.2 14.95 1.35 17.7 -4.35 19.5 L-5.7 19.95 -10.7 21.4 -14.05 22.15 -17.55 22.8 -20.15 23.1 -26.1 22.9 -27.3 22.6 Q-30.35 21.65 -31.55 19.3 -32.2 18.1 -32.35 16.55 L-30.75 18.7 -28.1 20.95 -27.25 21.0 -26.4 21.1 Q-20.25 21.4 -13.2 19.8 L-10.7 19.15 -8.25 18.45 -7.95 18.35 Q-2.8 16.65 2.8 14.05 L6.8 12.1 6.8 12.05 6.85 12.05 11.2 9.7 18.2 -4.55 26.25 -10.0 26.95 -20.85 26.75 -21.25 Q24.95 -24.2 23.05 -26.45 L7.5 -12.7 2.3 -9.75 Q-1.0 -7.95 -4.0 -6.7 L-4.0 -6.65 Q-14.75 -1.7 -21.95 -1.2 L-29.75 4.55 -28.65 -3.45 Q-30.35 -6.3 -30.2 -10.15 L-26.85 -14.3 M-35.45 3.0 L-35.05 0.25 -33.15 5.9 -33.65 10.2 -35.45 3.0 M19.0 -30.45 Q11.2 -21.65 2.7 -16.6 L0.8 -24.9 16.45 -32.15 16.7 -32.0 19.0 -30.45 M-29.65 7.65 Q-27.25 7.7 -25.35 6.45 L-21.65 15.4 -21.95 15.55 -24.05 16.4 -26.9 17.2 -27.25 17.3 -28.8 17.55 -28.85 17.6 -29.05 17.4 Q-31.85 14.75 -33.0 12.25 L-31.8 5.85 -29.65 7.65 M-25.75 7.6 Q-27.65 8.45 -29.5 8.35 L-31.5 6.95 -32.4 12.05 Q-30.9 14.65 -28.8 16.55 L-27.7 16.4 -27.0 16.3 -26.15 16.05 Q-24.35 15.55 -22.75 14.6 L-25.75 7.6 M-21.9 12.8 L-22.45 8.85 -5.95 4.75 -21.9 12.8" fill="#eed360" fill-rule="evenodd" stroke="none"/>
    <path d="M-4.0 -6.7 Q-1.0 -7.95 2.3 -9.75 L7.5 -12.7 23.05 -26.45 Q24.95 -24.2 26.75 -21.25 L26.95 -20.85 26.25 -10.0 18.2 -4.55 11.2 9.7 6.85 12.05 6.8 12.05 6.8 12.1 2.8 14.05 Q-2.8 16.65 -7.95 18.35 L-8.25 18.45 -10.7 19.15 -13.2 19.8 Q-20.25 21.4 -26.4 21.1 L-27.25 21.0 -28.1 20.95 -28.8 17.55 -27.25 17.3 -26.9 17.2 -24.05 16.4 -21.95 15.55 -21.65 15.4 -25.35 6.45 Q-27.25 7.7 -29.65 7.65 -30.35 6.85 -29.75 4.55 L-21.95 -1.2 Q-14.75 -1.7 -4.0 -6.65 L-4.0 -6.7 M5.65 -4.15 Q7.55 -0.6 8.7 3.75 11.65 1.75 11.85 0.1 10.0 -3.5 6.3 -5.75 L4.0 -6.9 5.65 -4.15 M4.0 -6.9 L4.0 -6.95 4.0 -6.9 13.2 -11.8 Q18.15 -13.2 17.25 -8.65 14.2 1.6 8.7 3.75 14.2 1.6 17.25 -8.65 18.15 -13.2 13.2 -11.8 L4.0 -6.9 M-21.9 12.8 L-5.95 4.75 -22.45 8.85 -21.9 12.8" fill="#286e66" fill-rule="evenodd" stroke="none"/>
    <path d="M-35.55 5.25 L-35.45 3.0 -33.65 10.2 -33.15 5.9 -35.05 0.25 -35.0 0.0 Q-33.8 -5.15 -30.2 -10.15 -30.35 -6.3 -28.65 -3.45 L-29.75 4.55 Q-30.35 6.85 -29.65 7.65 L-31.8 5.85 -33.0 12.25 Q-31.85 14.75 -29.05 17.4 L-28.85 17.6 -28.8 17.55 -28.1 20.95 -30.75 18.7 -32.35 16.55 Q-33.45 14.8 -34.35 12.55 -35.5 8.85 -35.55 5.25" fill="#318477" fill-rule="evenodd" stroke="none"/>
    <path d="M12.45 -33.1 L14.75 -33.05 16.45 -33.05 Q19.95 -31.65 22.75 -29.95 L23.5 -29.5 11.35 -19.35 Q4.05 -11.95 -5.4 -9.15 L-5.4 -9.1 Q-16.05 -3.95 -26.0 -3.3 -28.6 -11.05 -26.85 -14.3 L-24.4 -16.2 Q-24.5 -10.65 -24.0 -7.0 -15.15 -9.05 -7.15 -12.1 -4.3 -13.05 -1.45 -14.4 L-1.35 -14.4 -3.8 -24.85 -3.85 -24.8 -10.15 -26.5 Q-7.4 -28.15 -5.3 -28.85 L-4.75 -29.05 -1.3 -27.7 12.45 -33.1 M19.0 -30.45 L16.7 -32.0 16.45 -32.15 0.8 -24.9 2.7 -16.6 Q11.2 -21.65 19.0 -30.45" fill="#9e3633" fill-rule="evenodd" stroke="none"/>
    <path d="M-17.4 29.65 Q-19.5 28.25 -18.0 26.05 L-18.05 26.05 Q-14.1 22.9 -9.8 22.2 L-3.7 22.4 -1.95 22.9 Q-0.85 23.2 0.3 23.75 2.45 27.0 1.45 29.25 -2.2 25.95 -6.65 25.95 -11.55 25.9 -17.4 29.65 M-36.5 23.0 L-36.7 22.65 Q-38.05 20.25 -39.55 18.95 -41.95 16.85 -44.85 17.45 L-45.4 17.6 -44.1 16.15 -44.15 16.15 -43.8 16.05 Q-42.2 15.55 -40.85 15.55 L-38.65 15.75 Q-36.65 16.3 -35.35 18.1 L-34.65 19.2 -36.5 23.0" fill="#666666" fill-rule="evenodd" stroke="none"/>
    <path d="M5.8 21.1 L1.5 29.25 1.45 29.25 Q2.45 27.0 0.3 23.75 -0.85 23.2 -1.95 22.9 L-3.7 22.4 -9.8 22.2 Q-14.1 22.9 -18.05 26.05 L-17.55 22.8 -14.05 22.15 -10.7 21.4 -5.7 19.95 -4.35 19.5 Q1.3 21.2 5.8 21.1 M-31.55 19.3 L-36.5 23.0 -34.65 19.2 -35.35 18.1 Q-36.65 16.3 -38.65 15.75 L-40.85 15.55 Q-42.2 15.55 -43.8 16.05 L-44.15 16.15 -35.55 5.25 Q-35.5 8.85 -34.35 12.55 -33.45 14.8 -32.35 16.55 -32.2 18.1 -31.55 19.3" fill="#333333" fill-rule="evenodd" stroke="none"/>
    <path d="M1.45 29.25 Q-2.95 38.5 -10.05 46.2 -13.65 46.0 -14.45 42.4 -8.5 34.75 -6.65 25.95 -2.2 25.95 1.45 29.25 M-36.7 22.65 L-41.75 26.35 -42.0 31.3 -44.75 31.25 Q-45.75 29.0 -46.0 25.2 L-39.55 18.95 Q-38.05 20.25 -36.7 22.65" fill="#eaeaea" fill-rule="evenodd" stroke="none"/>
    <path d="M5.65 -4.15 L4.0 -6.9 6.3 -5.75 Q10.0 -3.5 11.85 0.1 11.65 1.75 8.7 3.75 7.55 -0.6 5.65 -4.15" fill="#225e54" fill-rule="evenodd" stroke="none"/>
    <path d="M1.45 29.25 Q-2.95 38.5 -10.05 46.2 L-10.15 46.3 -26.7 55.2 Q-30.45 51.4 -26.35 46.05 L-20.3 40.85 -17.4 29.65 M-36.7 22.65 L-41.75 26.35 -42.0 31.3 M-42.0 34.7 Q-42.7 43.4 -46.4 42.55 L-49.25 24.45 Q-47.2 20.8 -44.85 17.45" fill="none" stroke="#666666" stroke-linecap="round" stroke-linejoin="round" stroke-width="0.05"/>
    <path d="M23.5 -29.5 L22.75 -29.95 Q19.95 -31.65 16.45 -33.05 L14.75 -33.05 12.45 -33.1 12.3 -33.1 Q4.15 -32.15 -0.55 -30.65 L-1.85 -30.25 -2.65 -29.9 -4.75 -29.05 -5.3 -28.85 Q-7.4 -28.15 -10.15 -26.5 L-13.95 -23.95 M-24.4 -16.2 L-26.85 -14.3 -30.2 -10.15 Q-33.8 -5.15 -35.0 0.0 L-35.05 0.25 -35.45 3.0 -35.55 5.25 Q-35.5 8.85 -34.35 12.55 -33.45 14.8 -32.35 16.55 -32.2 18.1 -31.55 19.3 L-36.5 23.0 -36.7 22.65 Q-38.05 20.25 -39.55 18.95 -41.95 16.85 -44.85 17.45 L-45.4 17.6 -44.1 16.15 M23.5 -29.5 L29.1 -20.85 28.75 -17.3 Q32.0 -13.7 34.7 -6.6 38.2 2.75 25.0 9.15 L24.55 9.5 Q22.65 10.85 20.25 11.9 L19.9 12.1 Q15.65 20.8 5.8 21.1 L1.5 29.25 1.45 29.25 Q-2.2 25.95 -6.65 25.95 -11.55 25.9 -17.4 29.65 -19.5 28.25 -18.0 26.05 M-18.05 26.05 L-17.55 22.8 -20.15 23.1 -26.1 22.9 -27.3 22.6 Q-30.35 21.65 -31.55 19.3 M-42.0 31.3 L-42.0 34.7 M-44.15 16.15 L-35.55 5.25 M-4.0 -6.7 L-4.0 -6.65 M6.8 12.1 L6.8 12.05 M5.65 -4.15 Q7.55 -0.6 8.7 3.75 11.65 1.75 11.85 0.1 10.0 -3.5 6.3 -5.75 L4.0 -6.9 5.65 -4.15 M4.0 -6.9 L13.2 -11.8 Q18.15 -13.2 17.25 -8.65 14.2 1.6 8.7 3.75 M4.0 -6.95 L4.0 -6.9 M28.3 -13.1 L28.85 -12.6 Q29.8 -11.25 30.4 -9.5 32.55 -3.5 29.55 3.4 28.1 6.7 25.0 9.15 M28.3 -13.1 L28.75 -17.3 M8.2 14.95 L8.45 14.85 13.55 13.0 13.7 12.95 19.75 -2.9 27.85 -8.45 28.3 -13.1 M19.9 12.1 L16.45 13.3 Q12.7 14.45 9.05 14.85 L8.2 14.95 Q1.35 17.7 -4.35 19.5 1.3 21.2 5.8 21.1 M-14.0 -23.95 Q-18.6 -20.8 -24.3 -16.3 M-17.55 22.8 L-14.05 22.15 -10.7 21.4 -5.7 19.95 -4.35 19.5" fill="none" stroke="#354544" stroke-linecap="round" stroke-linejoin="round" stroke-width="0.05"/>
    <path d="M-3.85 -24.8 L-3.8 -24.85 M-24.3 -16.3 L-24.4 -16.2" fill="none" stroke="#485b58" stroke-linecap="round" stroke-linejoin="round" stroke-width="0.05"/>
  </g>
</svg>
