<?xml version="1.0" encoding="UTF-8" standalone="no"?>
<svg xmlns:xlink="http://www.w3.org/1999/xlink" height="5.5px" width="4.5px" xmlns="http://www.w3.org/2000/svg">
  <g transform="matrix(1.0, 0.0, 0.0, 1.0, 2.4, 2.05)">
    <path d="M-2.0 2.3 L-0.85 1.4 -0.3 1.45 -0.25 1.5 0.3 1.6 2.1 2.35 -0.25 3.4 -0.3 3.45 -0.65 2.9 -2.0 2.3 M-0.3 1.45 L-0.65 2.9 -0.3 1.45" fill="#ffd0ae" fill-rule="evenodd" stroke="none"/>
    <path d="M-2.0 2.3 L-2.4 -0.5 Q-1.85 -1.5 -0.85 -1.8 -0.2 -2.45 0.85 -1.45 L2.1 1.55 2.0 2.0 2.1 2.3 2.1 2.35 0.3 1.6 -0.25 1.5 -0.3 1.45 -0.85 1.4 -2.0 2.3" fill="#ffdfc8" fill-rule="evenodd" stroke="none"/>
    <path d="M2.1 2.35 L2.1 2.3 2.0 2.0 2.1 1.55 0.85 -1.45 Q-0.2 -2.45 -0.85 -1.8 -1.85 -1.5 -2.4 -0.5 L-2.0 2.3 -0.65 2.9 -0.3 1.45 -0.25 1.5 M2.1 2.35 L-0.25 3.4 -0.3 3.45 -0.65 2.9" fill="none" stroke="#fb8264" stroke-linecap="round" stroke-linejoin="round" stroke-width="0.05"/>
  </g>
</svg>
