<?xml version="1.0" encoding="UTF-8" standalone="no"?>
<svg xmlns:xlink="http://www.w3.org/1999/xlink" height="16.95px" width="8.0px" xmlns="http://www.w3.org/2000/svg">
  <g transform="matrix(1.0, 0.0, 0.0, 1.0, 3.85, -0.35)">
    <path d="M2.8 8.45 L3.5 8.65 Q4.05 8.9 4.15 9.55 L4.15 9.75 4.0 13.55 3.25 14.25 3.1 16.6 2.3 17.05 -0.15 17.3 Q-1.5 17.15 -2.5 16.6 L-3.25 16.05 -3.25 13.7 -3.85 13.0 -3.7 8.6 -3.25 8.05 -2.75 7.9 -2.75 9.5 -2.3 9.85 Q-1.3 10.4 0.05 10.65 L2.5 10.55 2.75 10.45 2.8 8.45 M-3.25 13.7 Q-2.3 14.25 0.1 14.6 L3.25 14.25 0.1 14.6 Q-2.3 14.25 -3.25 13.7" fill="#64889b" fill-rule="evenodd" stroke="none"/>
    <path d="M2.8 7.9 L2.8 8.45 2.75 10.45 2.5 10.55 0.05 10.65 Q-1.3 10.4 -2.3 9.85 L-2.75 9.5 -2.75 7.9 -2.75 6.6 Q1.3 9.15 2.8 7.9" fill="#fcdead" fill-rule="evenodd" stroke="none"/>
    <path d="M-2.75 6.6 L-2.7 1.45 Q0.5 -0.65 2.85 1.35 L2.8 7.9 Q1.3 9.15 -2.75 6.6" fill="#f9be79" fill-rule="evenodd" stroke="none"/>
    <path d="M2.8 8.45 L3.5 8.65 Q4.05 8.9 4.15 9.55 M4.0 13.55 L3.25 14.25 3.1 16.6 M-3.25 16.05 L-3.25 13.7 -3.85 13.0 M-3.7 8.6 L-3.25 8.05 -2.75 7.9 M3.25 14.25 L0.1 14.6 Q-2.3 14.25 -3.25 13.7" fill="none" stroke="#3f3872" stroke-linecap="round" stroke-linejoin="round" stroke-width="0.05"/>
    <path d="M4.15 9.55 L4.15 9.75 4.0 13.55 M-3.85 13.0 L-3.7 8.6" fill="none" stroke="#3f3872" stroke-linecap="round" stroke-linejoin="round" stroke-width="0.05"/>
    <path d="M2.8 7.9 L2.8 8.45 2.75 10.45 2.5 10.55 0.05 10.65 Q-1.3 10.4 -2.3 9.85 L-2.75 9.5 -2.75 7.9 -2.75 6.6 -2.7 1.45 Q0.5 -0.65 2.85 1.35 L2.8 7.9" fill="none" stroke="#975506" stroke-linecap="round" stroke-linejoin="round" stroke-width="0.05"/>
  </g>
</svg>
