<?xml version="1.0" encoding="UTF-8" standalone="no"?>
<svg xmlns:xlink="http://www.w3.org/1999/xlink" height="10.8px" width="4.6px" xmlns="http://www.w3.org/2000/svg">
  <g transform="matrix(1.0, 0.0, 0.0, 1.0, 1.25, 0.25)">
    <path d="M2.5 7.75 L2.15 7.8 1.9 7.55 0.85 7.25 Q0.4 7.35 0.1 7.65 L-0.35 7.55 -0.55 6.4 Q-1.1 3.4 -1.25 0.75 1.35 -0.95 1.8 0.25 2.35 4.0 2.5 7.75 M2.25 9.65 L2.55 9.75 2.55 10.35 Q1.45 10.8 0.05 10.35 L-0.05 9.65 0.05 9.6 0.35 9.85 Q0.85 10.25 1.4 10.15 1.9 10.1 2.25 9.65" fill="#29536c" fill-rule="evenodd" stroke="none"/>
    <path d="M2.15 7.8 L2.5 7.75 3.05 7.65 Q3.6 9.0 3.1 9.9 L2.55 9.75 2.25 9.65 Q2.85 8.6 2.15 7.8 M-0.35 7.55 L0.1 7.65 -0.05 7.85 -0.25 8.3 -0.3 8.9 -0.1 9.4 0.05 9.6 -0.05 9.65 -0.7 9.7 Q-1.1 8.55 -0.7 7.45 L-0.35 7.55" fill="#d2dde0" fill-rule="evenodd" stroke="none"/>
    <path d="M0.1 7.65 Q0.4 7.35 0.85 7.25 L1.9 7.55 2.15 7.8 Q2.85 8.6 2.25 9.65 1.9 10.1 1.4 10.15 0.85 10.25 0.35 9.85 L0.05 9.6 -0.1 9.4 -0.3 8.9 -0.25 8.3 -0.05 7.85 0.1 7.65" fill="#a49b50" fill-rule="evenodd" stroke="none"/>
    <path d="M2.15 7.8 L2.5 7.75 Q2.35 4.0 1.8 0.25 M-1.25 0.75 Q-1.1 3.4 -0.55 6.4 L-0.35 7.55 0.1 7.65 Q0.4 7.35 0.85 7.25 L1.9 7.55 2.15 7.8 Q2.85 8.6 2.25 9.65 L2.55 9.75 3.1 9.9 Q3.6 9.0 3.05 7.65 L2.5 7.75 M0.05 9.6 L0.35 9.85 Q0.85 10.25 1.4 10.15 1.9 10.1 2.25 9.65 M2.55 9.75 L2.55 10.35 Q1.45 10.8 0.05 10.35 L-0.05 9.65 -0.7 9.7 Q-1.1 8.55 -0.7 7.45 L-0.35 7.55 M0.05 9.6 L-0.1 9.4 -0.3 8.9 -0.25 8.3 -0.05 7.85 0.1 7.65 M-0.05 9.65 L0.05 9.6" fill="none" stroke="#152c33" stroke-linecap="round" stroke-linejoin="round" stroke-width="0.05"/>
  </g>
</svg>
