<?xml version="1.0" encoding="UTF-8" standalone="no"?>
<svg xmlns:xlink="http://www.w3.org/1999/xlink" height="7.7px" width="14.3px" xmlns="http://www.w3.org/2000/svg">
  <g transform="matrix(1.0, 0.0, 0.0, 1.0, 2.5, 3.65)">
    <path d="M-2.5 -2.45 L-1.85 -2.8 Q0.0 -3.8 2.5 -3.6 L4.8 -3.2 5.4 -2.95 6.25 -2.55 Q6.8 -1.95 6.85 -1.1 L6.85 -1.0 6.85 -0.95 6.8 -0.6 6.8 -0.4 6.15 0.6 5.25 1.35 3.05 2.15 2.05 2.25 1.15 2.3 1.0 2.3 0.95 2.3 -0.1 2.3 -1.5 2.25 -2.5 -2.45" fill="#fcdead" fill-rule="evenodd" stroke="none"/>
    <path d="M-1.5 2.25 L-0.1 2.3 0.95 2.3 1.0 2.3 1.15 2.3 2.05 2.25 3.05 2.15 5.25 1.35 6.15 0.6 6.8 -0.4 6.8 -0.6 6.85 -0.95 6.85 -1.0 6.85 -1.1 Q6.8 -1.95 6.25 -2.55 L5.4 -2.95 10.05 -2.65 11.3 -2.75 11.6 -1.9 Q12.35 1.0 10.3 4.05 7.65 3.15 4.3 3.25 L3.6 3.35 2.3 3.4 1.8 3.4 0.3 3.15 -1.45 2.8 -1.75 2.75 -1.5 2.25" fill="#f9be79" fill-rule="evenodd" stroke="none"/>
    <path d="M5.4 -2.95 L4.8 -3.2 2.5 -3.6 Q0.0 -3.8 -1.85 -2.8 L-2.5 -2.45 M6.25 -2.55 L5.4 -2.95 10.05 -2.65 11.3 -2.75 11.6 -1.9 Q12.35 1.0 10.3 4.05 7.65 3.15 4.3 3.25 L3.6 3.35 2.3 3.4 1.8 3.4 0.3 3.15" fill="none" stroke="#975506" stroke-linecap="round" stroke-linejoin="round" stroke-width="0.05"/>
  </g>
</svg>
