<?xml version="1.0" encoding="UTF-8" standalone="no"?>
<svg xmlns:xlink="http://www.w3.org/1999/xlink" height="299.75px" width="364.05px" xmlns="http://www.w3.org/2000/svg">
  <g transform="matrix(1.0, 0.0, 0.0, 1.0, 0.0, 0.0)">
    <path d="M325.7 132.0 Q289.1 173.35 279.85 224.5 L301.0 242.8 Q320.4 188.4 362.15 130.6 L325.7 132.0 276.0 39.75 247.85 68.3 286.0 133.5 325.7 132.0 M364.05 130.55 L362.15 130.6 293.7 21.8 276.0 39.75 170.85 15.75 173.2 48.75 247.85 68.3 221.95 94.55 257.4 134.6 286.0 133.5 260.95 208.1 279.85 224.5 223.45 260.35 228.8 274.25 301.0 242.8 340.85 277.35 M170.1 5.5 L170.25 7.45 293.7 21.8 315.2 0.0 M170.25 7.45 L170.85 15.75 68.15 48.95 90.15 66.45 173.2 48.75 176.05 88.45 221.95 94.55 209.25 107.45 229.1 135.65 229.65 135.65 257.4 134.6 Q236.35 159.3 236.25 186.7 L260.95 208.1 214.8 237.8 223.45 260.35 111.4 251.95 104.05 264.25 228.8 274.25 236.35 293.95 M209.25 107.45 L199.5 117.35 210.4 136.4 229.1 135.65 M209.25 107.45 L176.95 101.2 177.75 112.4 199.5 117.35 187.1 129.9 192.0 137.1 210.4 136.4 198.65 154.1 219.75 172.4 229.65 135.65 M166.15 126.9 L179.55 137.55 178.8 126.4 166.15 126.9 155.25 118.25 132.25 139.35 155.45 138.45 166.15 126.9 M181.3 145.0 L185.35 146.0 186.8 143.8 179.55 137.55 181.3 145.0 185.05 160.55 198.65 154.1 186.8 143.8 192.0 137.1 179.55 137.55 187.1 129.9 178.8 126.4 177.75 112.4 155.25 118.25 141.15 107.0 109.9 140.2 132.25 139.35 137.25 158.65 159.1 147.75 155.45 138.45 179.55 137.55 168.7 155.8 185.05 160.55 194.55 185.2 Q204.95 184.85 212.35 181.1 219.75 177.3 219.75 172.4 L236.25 186.7 200.9 201.8 214.8 237.8 127.15 225.45 111.4 251.95 71.15 191.55 42.9 205.6 104.05 264.25 94.9 280.0 83.4 299.75 M176.05 88.45 L176.95 101.2 141.15 107.0 132.75 100.3 88.8 141.0 109.9 140.2 120.4 167.05 137.25 158.65 155.9 177.3 168.7 155.8 159.1 147.75 179.55 137.55 M47.65 32.65 L0.5 144.35 23.1 143.5 68.15 48.95 47.65 32.65 20.7 11.2 M0.0 144.4 L0.5 144.35 17.6 218.2 42.9 205.6 23.1 143.5 63.6 141.95 90.15 66.45 132.75 100.3 176.05 88.45 M71.15 191.55 L94.6 179.85 88.8 141.0 63.6 141.95 71.15 191.55 M94.6 179.85 L127.15 225.45 146.75 192.65 120.4 167.05 94.6 179.85 M146.75 192.65 L155.9 177.3 194.55 185.2 200.9 201.8 146.75 192.65 M94.9 280.0 L17.6 218.2 0.0 226.95 M47.65 32.65 L170.25 7.45" fill="none" stroke="#dfffff" stroke-linecap="round" stroke-linejoin="round" stroke-width="0.05"/>
  </g>
</svg>
