<?xml version="1.0" encoding="UTF-8" standalone="no"?>
<svg xmlns:xlink="http://www.w3.org/1999/xlink" height="26.45px" width="28.55px" xmlns="http://www.w3.org/2000/svg">
  <g transform="matrix(1.0, 0.0, 0.0, 1.0, 14.25, 13.2)">
    <path d="M1.9 -1.55 L1.85 -0.9 Q0.55 -1.15 -0.2 -1.7 -1.45 -2.15 -2.3 -0.9 -3.05 0.95 -5.65 1.5 -6.0 0.65 -7.35 0.05 L-7.7 -0.05 -9.45 -0.35 -9.55 -0.35 Q-11.8 -0.35 -14.0 1.8 -13.6 -1.85 -11.85 -5.25 -9.85 -5.7 -10.95 -7.3 -11.05 -10.35 -9.0 -13.2 -6.45 -11.9 -4.05 -9.6 -4.5 -8.05 -2.25 -8.55 -0.75 -7.85 0.85 -6.35 -1.15 -5.65 -1.1 -4.55 L-0.1 -2.65 Q1.8 -2.0 2.3 -4.75 L3.1 -3.9 2.6 -3.1 1.9 -1.55 M2.2 1.2 Q1.9 2.5 -0.6 3.2 L-3.85 3.05 -3.2 2.65 Q-1.85 3.15 -1.6 2.25 L-0.1 1.8 Q0.8 2.4 1.55 1.3 L2.2 1.2 M-6.6 -0.85 L-4.05 -0.8 Q-4.4 -2.65 -5.35 -3.85 -8.15 -4.5 -9.1 -3.05 -8.75 -2.1 -8.05 -1.55 -7.45 -1.05 -6.6 -0.85" fill="#874bff" fill-rule="evenodd" stroke="none"/>
    <path d="M1.85 -0.9 L2.05 -0.2 Q2.4 0.5 3.5 0.95 L2.75 1.35 2.2 1.2 1.55 1.3 1.0 -0.65 0.45 0.9 Q-1.05 0.8 -2.0 1.85 -2.5 1.2 -2.6 0.15 -3.3 1.05 -3.2 2.65 L-3.85 3.05 Q-5.0 3.8 -5.7 4.95 L-6.9 4.4 Q-5.6 3.1 -5.55 2.15 L-5.65 1.5 Q-3.05 0.95 -2.3 -0.9 -1.45 -2.15 -0.2 -1.7 0.55 -1.15 1.85 -0.9" fill="#6736d3" fill-rule="evenodd" stroke="none"/>
    <path d="M7.0 -0.75 L7.2 -0.95 Q7.75 -1.5 8.5 -1.25 L8.25 -0.7 8.25 -0.65 7.65 0.6 7.0 -0.75 M9.7 -0.25 Q10.85 -0.55 10.85 0.4 L10.85 0.45 9.25 0.8 9.7 -0.25 M11.5 1.3 L12.0 1.0 Q12.55 1.3 12.4 1.95 L12.25 2.35 11.8 2.15 10.75 1.7 11.5 1.3 M11.95 3.2 L12.4 3.05 Q12.75 3.6 12.35 4.05 L11.85 3.8 11.1 3.5 11.95 3.2 M11.45 4.85 L10.95 5.5 10.3 4.8 11.45 4.85 M10.35 6.1 L9.85 6.5 9.25 5.65 10.35 6.1 M-10.65 7.15 L-9.05 7.85 -10.4 8.55 -10.65 7.75 -10.65 7.15 M-9.7 9.75 L-8.05 9.15 -8.6 10.65 -9.7 9.75 M-7.1 11.35 L-6.0 10.45 -5.95 11.7 -7.1 11.35 M-4.95 11.9 L-3.95 10.95 -3.55 12.05 -4.95 11.9 M-2.75 12.05 L-2.3 10.95 -1.45 11.95 -2.7 12.05 -2.75 12.05 M-0.6 11.7 L-0.2 10.7 0.65 11.2 -0.6 11.7" fill="#311944" fill-rule="evenodd" stroke="none"/>
    <path d="M2.3 -4.75 Q1.8 -2.0 -0.1 -2.65 L-1.1 -4.55 Q-1.15 -5.65 0.85 -6.35 2.05 -6.35 2.3 -4.75" fill="url(#gradient0)" fill-rule="evenodd" stroke="none"/>
    <path d="M1.55 1.3 Q0.8 2.4 -0.1 1.8 L0.45 0.9 1.0 -0.65 1.55 1.3 M-1.6 2.25 Q-1.85 3.15 -3.2 2.65 -3.3 1.05 -2.6 0.15 -2.5 1.2 -2.0 1.85 L-1.6 2.25" fill="#d7ccf3" fill-rule="evenodd" stroke="none"/>
    <path d="M-6.6 -0.85 Q-7.45 -1.05 -8.05 -1.55 -8.75 -2.1 -9.1 -3.05 -8.15 -4.5 -5.35 -3.85 -4.4 -2.65 -4.05 -0.8 L-6.6 -0.85" fill="url(#gradient1)" fill-rule="evenodd" stroke="none"/>
    <path d="M-0.1 1.8 L-1.6 2.25 -2.0 1.85 Q-1.05 0.8 0.45 0.9 L-0.1 1.8" fill="#281b37" fill-rule="evenodd" stroke="none"/>
    <path d="M1.9 -1.55 L2.05 -1.6 7.4 -1.9 8.45 -1.75 9.05 -1.65 9.9 -1.45 11.05 -0.95 11.95 -0.35 12.6 0.3 Q13.5 1.55 12.95 3.4 L12.85 3.65 Q12.1 5.4 10.0 6.55 L9.85 6.5 10.35 6.1 10.95 5.5 11.45 4.85 11.85 3.8 12.35 4.05 Q12.75 3.6 12.4 3.05 L11.95 3.2 11.8 2.15 12.25 2.35 12.4 1.95 Q12.55 1.3 12.0 1.0 L11.5 1.3 11.35 1.0 10.85 0.45 10.85 0.4 Q10.85 -0.55 9.7 -0.25 L8.85 -0.55 8.25 -0.65 8.25 -0.7 8.5 -1.25 Q7.75 -1.5 7.2 -0.95 L7.0 -0.75 6.95 -0.75 2.05 -0.2 1.85 -0.9 1.9 -1.55 M-9.45 -0.35 L-7.7 -0.05 -8.25 0.3 -8.7 0.65 Q-12.85 3.9 -12.2 8.05 -10.25 12.7 -2.6 12.3 -0.45 12.2 1.45 11.45 -0.9 13.1 -4.0 13.2 -11.6 13.6 -14.05 8.75 -15.25 3.75 -10.0 0.0 L-9.45 -0.35" fill="#945ac3" fill-rule="evenodd" stroke="none"/>
    <path d="M9.85 6.5 L10.0 6.55 Q12.1 5.4 12.85 3.65 L12.95 3.4 Q13.5 1.55 12.6 0.3 L11.95 -0.35 11.05 -0.95 9.9 -1.45 9.05 -1.65 8.45 -1.75 7.4 -1.9 2.05 -1.6 1.9 -1.55 2.6 -3.1 Q6.7 -4.05 11.05 -2.4 15.3 -0.4 14.0 3.55 L12.75 5.4 Q11.0 7.05 7.4 7.75 L8.4 7.3 9.85 6.5 M-7.7 -0.05 L-7.35 0.05 Q-6.0 0.65 -5.65 1.5 L-5.55 2.15 Q-10.4 3.95 -10.65 7.15 L-10.65 7.75 -10.4 8.55 -9.7 9.75 -8.6 10.65 -7.1 11.35 -5.95 11.7 -4.95 11.9 -3.55 12.05 -2.75 12.05 -2.7 12.05 -1.45 11.95 -0.6 11.7 0.65 11.2 2.7 9.7 2.9 10.2 2.5 10.6 1.45 11.45 Q-0.45 12.2 -2.6 12.3 -10.25 12.7 -12.2 8.05 -12.85 3.9 -8.7 0.65 L-8.25 0.3 -7.7 -0.05" fill="#bb65e4" fill-rule="evenodd" stroke="none"/>
    <path d="M1.9 -1.55 L1.85 -0.9 2.05 -0.2 6.95 -0.75 7.0 -0.75 7.2 -0.95 Q7.75 -1.5 8.5 -1.25 L8.25 -0.7 8.25 -0.65 8.85 -0.55 9.7 -0.25 Q10.85 -0.55 10.85 0.4 L10.85 0.45 11.35 1.0 11.5 1.3 12.0 1.0 Q12.55 1.3 12.4 1.95 L12.25 2.35 11.8 2.15 11.95 3.2 12.4 3.05 Q12.75 3.6 12.35 4.05 L11.85 3.8 11.45 4.85 10.95 5.5 10.35 6.1 9.85 6.5 9.25 5.65 10.35 6.1 M1.9 -1.55 L2.6 -3.1 3.1 -3.9 2.3 -4.75 Q1.8 -2.0 -0.1 -2.65 L-1.1 -4.55 Q-1.15 -5.65 0.85 -6.35 -0.75 -7.85 -2.25 -8.55 -4.5 -8.05 -4.05 -9.6 -6.45 -11.9 -9.0 -13.2 -11.05 -10.35 -10.95 -7.3 -9.85 -5.7 -11.85 -5.25 -13.6 -1.85 -14.0 1.8 -11.8 -0.35 -9.55 -0.35 L-9.45 -0.35 -7.7 -0.05 -7.35 0.05 Q-6.0 0.65 -5.65 1.5 L-5.55 2.15 Q-10.4 3.95 -10.65 7.15 L-9.05 7.85 -10.4 8.55 -9.7 9.75 -8.05 9.15 -8.6 10.65 -7.1 11.35 -6.0 10.45 -5.95 11.7 -4.95 11.9 -3.95 10.95 -3.55 12.05 -2.75 12.05 -2.3 10.95 -1.45 11.95 -0.6 11.7 -0.2 10.7 0.65 11.2 2.7 9.7 2.9 10.2 2.5 10.6 1.45 11.45 Q-0.9 13.1 -4.0 13.2 -11.6 13.6 -14.05 8.75 -15.25 3.75 -10.0 0.0 L-9.45 -0.35 M2.3 -4.75 Q2.05 -6.35 0.85 -6.35 M9.85 6.5 L8.4 7.3 7.4 7.75 Q11.0 7.05 12.75 5.4 L14.0 3.55 Q15.3 -0.4 11.05 -2.4 6.7 -4.05 2.6 -3.1 M11.5 1.3 L10.75 1.7 11.8 2.15 M11.45 4.85 L10.3 4.8 10.95 5.5 M11.95 3.2 L11.1 3.5 11.85 3.8 M2.05 -0.2 Q2.4 0.5 3.5 0.95 L2.75 1.35 2.2 1.2 Q1.9 2.5 -0.6 3.2 L-3.85 3.05 Q-5.0 3.8 -5.7 4.95 L-6.9 4.4 Q-5.6 3.1 -5.55 2.15 M2.2 1.2 L1.55 1.3 Q0.8 2.4 -0.1 1.8 L-1.6 2.25 Q-1.85 3.15 -3.2 2.65 L-3.85 3.05 M9.7 -0.25 L9.25 0.8 10.85 0.45 M8.25 -0.65 L7.65 0.6 7.0 -0.75 M0.45 0.9 L1.0 -0.65 1.55 1.3 M-6.6 -0.85 L-4.05 -0.8 Q-4.4 -2.65 -5.35 -3.85 -8.15 -4.5 -9.1 -3.05 -8.75 -2.1 -8.05 -1.55 -7.45 -1.05 -6.6 -0.85 M-1.6 2.25 L-2.0 1.85 Q-2.5 1.2 -2.6 0.15 -3.3 1.05 -3.2 2.65 M-7.1 11.35 L-5.95 11.7 M-9.7 9.75 L-8.6 10.65 M-4.95 11.9 L-3.55 12.05 M-2.75 12.05 L-2.7 12.05 -1.45 11.95 M-10.65 7.15 L-10.65 7.75 -10.4 8.55 M-2.0 1.85 Q-1.05 0.8 0.45 0.9 L-0.1 1.8 M0.65 11.2 L-0.6 11.7" fill="none" stroke="#2b0493" stroke-linecap="round" stroke-linejoin="round" stroke-width="0.05"/>
  </g>
  <defs>
    <radialGradient cx="0" cy="0" gradientTransform="matrix(0.0051, -0.0051, 0.004, 0.004, -0.55, -4.8)" gradientUnits="userSpaceOnUse" id="gradient0" r="819.2" spreadMethod="pad">
      <stop offset="0.1450980392156863" stop-color="#f0fe2a"/>
      <stop offset="0.49411764705882355" stop-color="#5c6506"/>
    </radialGradient>
    <radialGradient cx="0" cy="0" gradientTransform="matrix(0.0075, 0.0, 0.0, 0.0055, -6.1, -3.3)" gradientUnits="userSpaceOnUse" id="gradient1" r="819.2" spreadMethod="pad">
      <stop offset="0.1450980392156863" stop-color="#f0fe2a"/>
      <stop offset="0.49411764705882355" stop-color="#5c6506"/>
    </radialGradient>
  </defs>
</svg>
