<?xml version="1.0" encoding="UTF-8" standalone="no"?>
<svg xmlns:xlink="http://www.w3.org/1999/xlink" height="19.2px" width="42.45px" xmlns="http://www.w3.org/2000/svg">
  <g transform="matrix(1.0, 0.0, 0.0, 1.0, 0.5, 10.25)">
    <path d="M22.7 1.5 Q15.55 -12.1 31.4 -3.95 L31.4 -4.0 31.5 -3.9 Q36.35 1.25 41.95 8.95 29.75 -1.0 26.4 8.8 13.9 -1.5 12.1 7.4 L11.9 1.55 12.1 7.4 Q9.8 4.45 5.65 3.25 7.3 0.85 11.9 1.55 L11.9 1.5 11.9 1.4 Q13.15 -10.15 22.7 1.5 24.6 4.7 26.4 8.8 24.6 4.7 22.7 1.5" fill="#666666" fill-rule="evenodd" stroke="none"/>
    <path d="M31.4 -4.0 L31.4 -3.95 Q15.55 -12.1 22.7 1.5 16.25 -9.5 8.85 -9.9 16.25 -9.5 22.7 1.5 13.15 -10.15 11.9 1.4 L11.9 1.5 11.9 1.55 Q7.3 0.85 5.65 3.25 3.05 2.45 -0.3 2.35 L-0.5 -1.15 Q11.95 -2.0 8.85 -9.9 19.2 -11.65 31.4 -4.0 M8.85 -9.9 Q11.25 -6.9 11.9 1.5 11.25 -6.9 8.85 -9.9" fill="#555555" fill-rule="evenodd" stroke="none"/>
    <path d="M31.4 -4.0 Q19.2 -11.65 8.85 -9.9 16.25 -9.5 22.7 1.5 24.6 4.7 26.4 8.8 13.9 -1.5 12.1 7.4 L11.9 1.55 M31.4 -4.0 L31.5 -3.9 Q36.35 1.25 41.95 8.95 29.75 -1.0 26.4 8.8 M5.65 3.25 Q9.8 4.45 12.1 7.4 M11.9 1.5 Q11.25 -6.9 8.85 -9.9 M-0.3 2.35 Q3.05 2.45 5.65 3.25" fill="none" stroke="#333333" stroke-linecap="round" stroke-linejoin="round" stroke-width="0.05"/>
    <path d="M8.85 -9.9 Q11.95 -2.0 -0.5 -1.15" fill="none" stroke="#333333" stroke-linecap="round" stroke-linejoin="round" stroke-width="0.05"/>
  </g>
</svg>
