<?xml version="1.0" encoding="UTF-8" standalone="no"?>
<svg xmlns:xlink="http://www.w3.org/1999/xlink" height="19.35px" width="14.2px" xmlns="http://www.w3.org/2000/svg">
  <g transform="matrix(1.0, 0.0, 0.0, 1.0, 7.1, 9.65)">
    <path d="M2.65 0.65 L2.7 0.65 2.7 0.7 2.65 0.65" fill="#ffffff" fill-rule="evenodd" stroke="none"/>
    <path d="M7.0 -9.65 Q7.55 -4.95 4.7 -0.95 L4.75 -0.7 4.65 1.0 5.0 3.8 2.5 6.1 2.45 7.2 Q2.15 9.2 0.85 9.7 1.55 8.05 0.9 6.55 L-1.5 6.45 Q-2.15 7.2 -1.2 9.5 -2.35 8.6 -2.7 7.45 L-3.0 6.05 -3.1 5.5 -3.4 5.1 -4.75 3.35 -4.3 1.35 -4.0 1.55 Q-4.25 2.35 -3.25 4.05 L-2.1 3.25 -0.8 3.2 Q0.2 3.75 1.35 3.8 2.4 2.6 2.7 0.7 L2.7 0.65 Q4.6 -0.65 4.05 -2.1 4.55 -3.1 3.7 -3.95 L5.45 -6.95 6.95 -9.65 7.0 -9.65 M-4.5 -0.65 L-4.65 -0.85 Q-6.0 -2.6 -6.7 -5.45 L-6.7 -5.55 -7.05 -7.05 -7.1 -7.5 -1.55 -4.45 Q-2.5 -4.2 -3.1 -3.6 L-3.75 -2.85 -4.25 -1.8 -4.5 -0.65 M-6.7 -5.55 L-4.6 -2.95 Q-4.8 -2.65 -4.25 -1.8 -4.8 -2.65 -4.6 -2.95 L-6.7 -5.55" fill="#555555" fill-rule="evenodd" stroke="none"/>
    <path d="M3.0 -2.7 L3.7 -3.95 3.0 -2.7 M-4.3 1.35 L-4.3 1.25 -4.45 0.45 -4.5 -0.65 -4.25 -1.8 -3.75 -2.85 -3.1 -3.6 Q-2.5 -4.2 -1.55 -4.45 L-0.7 -4.65 -0.45 -4.7 -0.05 -4.75 6.95 -9.65 5.45 -6.95 3.7 -3.95 Q4.55 -3.1 4.05 -2.1 4.6 -0.65 2.7 0.65 L2.65 0.65 Q0.65 1.3 -0.8 3.2 L-2.1 3.25 Q-2.85 1.95 -4.0 1.55 L-4.3 1.35" fill="#666666" fill-rule="evenodd" stroke="none"/>
    <path d="M-4.0 1.55 Q-2.85 1.95 -2.1 3.25 L-3.25 4.05 Q-4.25 2.35 -4.0 1.55 M-0.8 3.2 Q0.65 1.3 2.65 0.65 L2.7 0.7 Q2.4 2.6 1.35 3.8 0.2 3.75 -0.8 3.2" fill="#ffff00" fill-rule="evenodd" stroke="none"/>
    <path d="M-4.25 -1.8 Q-4.8 -2.65 -4.6 -2.95 L-6.7 -5.55" fill="none" stroke="#333333" stroke-linecap="round" stroke-linejoin="round" stroke-width="0.05"/>
    <path d="M3.7 -3.95 L3.0 -2.7 M7.0 -9.65 Q7.55 -4.95 4.7 -0.95 L4.75 -0.7 4.65 1.0 5.0 3.8 2.5 6.1 2.45 7.2 Q2.15 9.2 0.85 9.7 1.55 8.05 0.9 6.55 L-1.5 6.45 Q-2.15 7.2 -1.2 9.5 -2.35 8.6 -2.7 7.45 L-3.0 6.05 -3.1 5.5 -3.4 5.1 -4.75 3.35 -4.3 1.35 -4.3 1.25 -4.45 0.45 -4.5 -0.65 -4.65 -0.85 Q-6.0 -2.6 -6.7 -5.45 L-6.7 -5.55 -7.05 -7.05 -7.1 -7.5 -1.55 -4.45 -0.7 -4.65 -0.45 -4.7 -0.05 -4.75 6.95 -9.65 7.0 -9.65 M3.7 -3.95 L5.45 -6.95 M4.05 -2.1 Q4.55 -3.1 3.7 -3.95 M2.7 0.7 L2.7 0.65" fill="none" stroke="#333333" stroke-linecap="round" stroke-linejoin="round" stroke-width="0.05"/>
  </g>
</svg>
