<?xml version="1.0" encoding="UTF-8" standalone="no"?>
<svg xmlns:xlink="http://www.w3.org/1999/xlink" height="15.55px" width="14.6px" xmlns="http://www.w3.org/2000/svg">
  <g transform="matrix(1.0, 0.0, 0.0, 1.0, 7.4, 2.65)">
    <path d="M3.9 -0.2 L3.8 -0.25 Q1.0 -1.25 -1.15 0.1 L-1.2 0.1 Q-0.85 -0.25 -0.75 -0.8 L-0.8 -1.45 -0.95 -1.75 -1.65 -2.25 -1.7 -2.3 Q0.6 -3.35 4.05 -1.1 4.55 -0.65 4.4 0.15 L3.9 -0.2 4.4 0.15 5.65 1.45 Q7.5 3.85 7.15 6.8 6.8 9.75 4.4 11.5 3.1 12.5 1.6 12.8 L-0.95 12.9 Q-3.5 12.5 -5.2 10.75 -3.85 11.65 -2.1 11.9 L0.0 11.95 0.45 11.85 Q1.95 11.55 3.25 10.6 5.65 8.8 6.05 5.9 6.4 2.9 4.5 0.5 L3.9 -0.2 M1.6 12.8 Q0.55 12.6 0.0 11.95 0.55 12.6 1.6 12.8" fill="#fdde75" fill-rule="evenodd" stroke="none"/>
    <path d="M-1.15 0.1 Q1.0 -1.25 3.8 -0.25 L3.9 -0.2 4.5 0.5 Q6.4 2.9 6.05 5.9 5.65 8.8 3.25 10.6 1.95 11.55 0.45 11.85 L0.0 11.95 Q-1.1 10.8 -0.7 8.3 L-5.6 7.6 Q-5.95 8.65 -5.5 10.4 -5.95 8.65 -5.6 7.6 L-0.7 8.3 Q-1.1 10.8 0.0 11.95 L-2.1 11.9 Q-3.85 11.65 -5.2 10.75 L-5.5 10.4 -5.85 10.05 Q-7.7 7.65 -7.35 4.7 -7.0 1.75 -4.6 -0.05 L-2.9 -0.95 -2.7 -0.15 -2.0 0.35 -1.3 0.15 -1.15 0.1" fill="#feea91" fill-rule="evenodd" stroke="none"/>
    <path d="M-1.65 -2.25 L-0.95 -1.75 -0.8 -1.45 -0.75 -0.8 Q-0.85 -0.25 -1.2 0.1 L-1.3 0.15 -2.0 0.35 -2.7 -0.15 -2.9 -0.95 -2.9 -1.1 -2.5 -1.95 -2.0 -2.2 -1.9 -2.25 -1.65 -2.25" fill="#feecaf" fill-rule="evenodd" stroke="none"/>
    <path d="M-1.7 -2.3 L-1.65 -2.25 -1.9 -2.25 -1.7 -2.3 M-1.2 0.1 L-1.15 0.1 -1.3 0.15 -1.2 0.1" fill="#e90303" fill-rule="evenodd" stroke="none"/>
    <path d="M-1.15 0.1 Q1.0 -1.25 3.8 -0.25 L3.9 -0.2 4.4 0.15 Q4.55 -0.65 4.05 -1.1 0.6 -3.35 -1.7 -2.3 L-1.9 -2.25 -1.65 -2.25 -0.95 -1.75 -0.8 -1.45 -0.75 -0.8 Q-0.85 -0.25 -1.2 0.1 L-1.3 0.15 -2.0 0.35 -2.7 -0.15 -2.9 -0.95 -4.6 -0.05 Q-7.0 1.75 -7.35 4.7 -7.7 7.65 -5.85 10.05 L-5.5 10.4 Q-5.95 8.65 -5.6 7.6 L-0.7 8.3 Q-1.1 10.8 0.0 11.95 0.55 12.6 1.6 12.8 3.1 12.5 4.4 11.5 6.8 9.75 7.15 6.8 7.5 3.85 5.65 1.45 L4.4 0.15 M-1.15 0.1 L-1.3 0.15 M-2.9 -0.95 L-2.9 -1.1 -2.5 -1.95 -2.0 -2.2 -1.9 -2.25 M-5.2 10.75 L-5.5 10.4 M1.6 12.8 L-0.95 12.9 Q-3.5 12.5 -5.2 10.75" fill="none" stroke="#8e6f02" stroke-linecap="round" stroke-linejoin="round" stroke-width="0.05"/>
  </g>
</svg>
