<?xml version="1.0" encoding="UTF-8" standalone="no"?>
<svg xmlns:xlink="http://www.w3.org/1999/xlink" height="25.65px" width="30.9px" xmlns="http://www.w3.org/2000/svg">
  <g transform="matrix(1.0, 0.0, 0.0, 1.0, 15.45, 12.8)">
    <path d="M-13.1 7.85 Q-14.05 6.4 -14.25 3.55 -14.55 -0.4 -13.4 -2.65 L-13.05 -3.45 Q-12.4 -4.95 -11.2 -6.3 L-9.65 -7.9 -6.6 -10.05 Q-3.6 -11.75 0.05 -12.15 L1.3 -12.25 5.55 -12.0 6.75 -11.75 Q8.4 -11.35 9.85 -10.55 10.65 -10.4 11.3 -9.9 L12.1 -8.85 9.85 -9.0 6.55 -8.75 6.4 -8.7 6.15 -8.65 Q3.75 -8.25 1.65 -7.25 -1.25 -5.95 -3.5 -3.65 L-4.0 -3.15 Q-5.5 -1.55 -6.4 0.25 L-7.0 1.65 Q-7.9 4.0 -7.7 6.6 -7.4 10.05 -5.2 12.55 L-5.6 12.45 -7.25 11.95 Q-8.7 11.4 -9.95 10.6 L-10.95 9.9 Q-11.6 9.35 -12.3 8.75 L-13.1 7.85 M9.85 -9.0 Q8.95 -11.05 6.75 -11.75 8.95 -11.05 9.85 -9.0 M-13.4 -2.65 Q-9.0 -3.2 -6.4 0.25 -9.0 -3.2 -13.4 -2.65 M0.05 -12.15 Q4.25 -11.7 6.15 -8.65 4.25 -11.7 0.05 -12.15 M-11.2 -6.3 Q-6.3 -7.15 -3.5 -3.65 -6.3 -7.15 -11.2 -6.3 M1.65 -7.25 Q-0.65 -10.65 -6.6 -10.05 -0.65 -10.65 1.65 -7.25" fill="url(#gradient0)" fill-rule="evenodd" stroke="none"/>
    <path d="M9.85 -10.55 Q8.4 -11.35 6.75 -11.75 L5.55 -12.0 1.3 -12.25 0.05 -12.15 Q-3.6 -11.75 -6.6 -10.05 L-9.65 -7.9 -11.2 -6.3 Q-12.4 -4.95 -13.05 -3.45 L-13.4 -2.65 Q-14.55 -0.4 -14.25 3.55 -14.05 6.4 -13.1 7.85 -15.45 5.0 -15.45 1.2 -15.45 -1.4 -14.35 -3.65 -13.25 -6.1 -10.95 -8.2 -6.4 -12.3 0.0 -12.75 5.65 -13.2 9.85 -10.55 M-5.2 12.55 Q-7.4 10.05 -7.7 6.6 -7.9 4.0 -7.0 1.65 L-6.4 0.25 Q-5.5 -1.55 -4.0 -3.15 L-3.5 -3.65 Q-1.25 -5.95 1.65 -7.25 3.75 -8.25 6.15 -8.65 L6.4 -8.7 6.55 -8.75 9.85 -9.0 12.1 -8.85 12.25 -8.7 12.55 -8.4 Q15.45 -5.35 15.45 -1.15 15.45 4.15 10.9 8.25 6.4 12.35 0.0 12.85 L-5.15 12.55 -5.2 12.55" fill="#8a574a" fill-rule="evenodd" stroke="none"/>
    <path d="M-13.1 7.85 Q-14.05 6.4 -14.25 3.55 -14.55 -0.4 -13.4 -2.65 L-13.05 -3.45 Q-12.4 -4.95 -11.2 -6.3 L-9.65 -7.9 -6.6 -10.05 Q-3.6 -11.75 0.05 -12.15 L1.3 -12.25 5.55 -12.0 6.75 -11.75 Q8.4 -11.35 9.85 -10.55 5.65 -13.2 0.0 -12.75 -6.4 -12.3 -10.95 -8.2 -13.25 -6.1 -14.35 -3.65 -15.45 -1.4 -15.45 1.2 -15.45 5.0 -13.1 7.85 L-12.3 8.75 Q-11.6 9.35 -10.95 9.9 L-9.95 10.6 Q-8.7 11.4 -7.25 11.95 L-5.6 12.45 -5.2 12.55 Q-7.4 10.05 -7.7 6.6 -7.9 4.0 -7.0 1.65 L-6.4 0.25 Q-9.0 -3.2 -13.4 -2.65 M6.75 -11.75 Q8.95 -11.05 9.85 -9.0 L12.1 -8.85 11.3 -9.9 Q10.65 -10.4 9.85 -10.55 M9.85 -9.0 L6.55 -8.75 6.4 -8.7 6.15 -8.65 Q3.75 -8.25 1.65 -7.25 -1.25 -5.95 -3.5 -3.65 L-4.0 -3.15 Q-5.5 -1.55 -6.4 0.25 M6.15 -8.65 Q4.25 -11.7 0.05 -12.15 M-5.2 12.55 L-5.15 12.55 0.0 12.85 Q6.4 12.35 10.9 8.25 15.45 4.15 15.45 -1.15 15.45 -5.35 12.55 -8.4 L12.25 -8.7 12.1 -8.85 M-3.5 -3.65 Q-6.3 -7.15 -11.2 -6.3 M-5.6 12.45 L-5.15 12.6 -5.2 12.55 M-6.6 -10.05 Q-0.65 -10.65 1.65 -7.25" fill="none" stroke="#6c322b" stroke-linecap="round" stroke-linejoin="round" stroke-width="0.05"/>
  </g>
  <defs>
    <linearGradient gradientTransform="matrix(0.017, -0.0072, 0.0019, 0.0045, -4.35, -6.55)" gradientUnits="userSpaceOnUse" id="gradient0" spreadMethod="pad" x1="-819.2" x2="819.2">
      <stop offset="0.0" stop-color="#f1f101"/>
      <stop offset="1.0" stop-color="#e7ad67"/>
    </linearGradient>
  </defs>
</svg>
