<?xml version="1.0" encoding="UTF-8" standalone="no"?>
<svg xmlns:xlink="http://www.w3.org/1999/xlink" height="18.55px" width="41.55px" xmlns="http://www.w3.org/2000/svg">
  <g transform="matrix(1.0, 0.0, 0.0, 1.0, 3.4, 10.35)">
    <path d="M8.05 -4.55 Q7.25 -3.5 7.65 -2.5 8.05 -1.45 9.45 -1.0 L12.45 -0.95 Q14.1 -1.35 14.9 -2.45 15.75 -3.6 15.3 -4.55 14.9 -5.65 13.5 -6.05 12.15 -6.45 10.5 -6.05 8.9 -5.65 8.05 -4.55 M19.45 -6.15 Q18.75 -5.3 19.1 -4.5 19.45 -3.65 20.65 -3.25 L23.15 -3.2 24.05 -3.5 25.2 -4.45 Q25.9 -5.35 25.55 -6.15 25.2 -7.05 24.05 -7.4 22.85 -7.7 21.5 -7.4 20.2 -7.05 19.45 -6.15 M37.55 -10.2 L35.95 -8.05 Q33.75 -5.85 28.4 -2.45 24.15 0.2 24.05 -1.85 21.1 0.95 13.2 3.4 4.05 6.2 0.85 5.05 L-2.75 3.75 -3.0 3.35 -2.05 1.75 Q1.3 -2.75 13.15 -9.15 L33.85 -9.85 35.95 -10.35 37.55 -10.2" fill="#b08dc0" fill-rule="evenodd" stroke="none"/>
    <path d="M-3.0 3.35 L-2.75 3.75 0.85 5.05 Q4.05 6.2 13.2 3.4 21.1 0.95 24.05 -1.85 24.15 0.2 28.4 -2.45 33.75 -5.85 35.95 -8.05 L37.55 -10.2 Q38.45 -9.75 37.95 -8.0 36.85 -4.5 29.55 -0.25 22.25 3.95 12.85 6.75 3.4 9.55 -2.75 6.9 -3.9 5.35 -3.0 3.35" fill="#936aac" fill-rule="evenodd" stroke="none"/>
    <path d="M8.05 -4.55 Q8.9 -5.65 10.5 -6.05 12.15 -6.45 13.5 -6.05 14.9 -5.65 15.3 -4.55 15.75 -3.6 14.9 -2.45 14.1 -1.35 12.45 -0.95 L9.45 -1.0 Q8.05 -1.45 7.65 -2.5 7.25 -3.5 8.05 -4.55 M14.65 -4.45 L14.1 -5.1 13.25 -5.2 12.45 -4.8 Q12.25 -4.35 12.35 -3.9 12.45 -3.5 12.9 -3.25 L13.75 -3.15 Q14.3 -3.25 14.55 -3.7 L14.65 -4.45 M19.45 -6.15 Q20.2 -7.05 21.5 -7.4 22.85 -7.7 24.05 -7.4 25.2 -7.05 25.55 -6.15 25.9 -5.35 25.2 -4.45 L24.05 -3.5 23.15 -3.2 20.65 -3.25 Q19.45 -3.65 19.1 -4.5 18.75 -5.3 19.45 -6.15 M24.1 -5.05 L24.15 -5.05 24.75 -5.5 24.95 -5.85 24.95 -5.9 24.95 -6.2 24.45 -6.75 23.8 -6.8 Q23.45 -6.75 23.2 -6.45 22.95 -6.1 23.05 -5.75 L23.45 -5.2 24.1 -5.05" fill="#333333" fill-rule="evenodd" stroke="none"/>
    <path d="M14.65 -4.45 L14.55 -3.7 Q14.3 -3.25 13.75 -3.15 L12.9 -3.25 Q12.45 -3.5 12.35 -3.9 12.25 -4.35 12.45 -4.8 L13.25 -5.2 14.1 -5.1 14.65 -4.45 M24.1 -5.05 L23.45 -5.2 23.05 -5.75 Q22.95 -6.1 23.2 -6.45 23.45 -6.75 23.8 -6.8 L24.45 -6.75 24.95 -6.2 24.95 -5.9 24.95 -5.85 24.75 -5.5 24.15 -5.05 24.1 -5.05" fill="#9973b0" fill-rule="evenodd" stroke="none"/>
    <path d="M8.05 -4.55 Q8.9 -5.65 10.5 -6.05 12.15 -6.45 13.5 -6.05 14.9 -5.65 15.3 -4.55 15.75 -3.6 14.9 -2.45 14.1 -1.35 12.45 -0.95 L9.45 -1.0 Q8.05 -1.45 7.65 -2.5 7.25 -3.5 8.05 -4.55 M19.45 -6.15 Q20.2 -7.05 21.5 -7.4 22.85 -7.7 24.05 -7.4 25.2 -7.05 25.55 -6.15 25.9 -5.35 25.2 -4.45 L24.05 -3.5 23.15 -3.2 20.65 -3.25 Q19.45 -3.65 19.1 -4.5 18.75 -5.3 19.45 -6.15 M-2.75 6.9 Q3.4 9.55 12.85 6.75 22.25 3.95 29.55 -0.25 36.85 -4.5 37.95 -8.0 38.45 -9.75 37.55 -10.2 L35.95 -10.35 33.85 -9.85 13.15 -9.15" fill="none" stroke="#5a3d6d" stroke-linecap="round" stroke-linejoin="round" stroke-width="0.05"/>
  </g>
</svg>
