<?xml version="1.0" encoding="UTF-8" standalone="no"?>
<svg xmlns:xlink="http://www.w3.org/1999/xlink" height="16.55px" width="30.4px" xmlns="http://www.w3.org/2000/svg">
  <g transform="matrix(1.0, 0.0, 0.0, 1.0, 13.95, 8.35)">
    <path d="M-5.7 -6.5 Q-2.7 -7.8 -0.75 -8.25 1.15 -8.7 4.65 -7.25 8.15 -5.8 12.5 -2.9 16.8 0.05 16.4 0.8 16.0 1.5 11.5 4.15 L12.2 5.55 8.35 7.4 Q7.5 7.85 6.1 8.1 2.65 8.6 -2.2 7.05 -7.05 5.5 -10.5 2.8 -13.95 0.1 -13.95 -2.1 -13.95 -2.9 -13.5 -3.5 -9.5 -5.55 -6.75 -6.7 L-5.75 -6.5 -5.7 -6.5 Q6.9 -4.0 11.5 4.15 6.9 -4.0 -5.7 -6.5 M-13.5 -3.5 L-13.0 -3.2 -13.5 -3.5" fill="#9d5e55" fill-rule="evenodd" stroke="none"/>
    <path d="M-5.7 -6.5 Q-2.7 -7.8 -0.75 -8.25 1.15 -8.7 4.65 -7.25 8.15 -5.8 12.5 -2.9 16.8 0.05 16.4 0.8 16.0 1.5 11.5 4.15 L12.2 5.55 8.35 7.4 Q7.5 7.85 6.1 8.1 2.65 8.6 -2.2 7.05 -7.05 5.5 -10.5 2.8 -13.95 0.1 -13.95 -2.1 -13.95 -2.9 -13.5 -3.5 -9.5 -5.55 -6.75 -6.7 L-5.75 -6.5 -5.7 -6.5 Q6.9 -4.0 11.5 4.15" fill="none" stroke="#6c322b" stroke-linecap="round" stroke-linejoin="round" stroke-width="0.05"/>
  </g>
</svg>
