<?xml version="1.0" encoding="UTF-8" standalone="no"?>
<svg xmlns:xlink="http://www.w3.org/1999/xlink" height="35.55px" width="42.0px" xmlns="http://www.w3.org/2000/svg">
  <g transform="matrix(1.0, 0.0, 0.0, 1.0, 24.85, -0.35)">
    <path d="M-10.5 12.55 L-10.55 12.45 Q-11.05 11.2 -11.15 9.9 -8.55 2.85 -7.55 2.2 -6.8 1.7 -0.85 0.85 2.5 -0.55 6.5 2.1 9.4 3.85 11.3 6.55 L12.05 7.6 Q13.8 10.3 13.95 11.6 L14.05 13.15 13.3 15.65 13.55 17.45 Q13.6 18.8 10.6 20.8 8.3 22.3 4.55 22.1 L4.3 22.05 2.15 17.6 Q-3.35 17.55 -7.6 12.35 L-8.85 12.35 -10.5 12.55 M-5.8 11.45 Q-3.05 14.7 1.15 14.7 1.35 16.2 2.15 17.6 1.35 16.2 1.15 14.7 -3.05 14.7 -5.8 11.45 -6.7 12.4 -7.6 12.35 -6.7 12.4 -5.8 11.45 L-4.45 9.4 -3.5 7.45 -2.85 5.55 Q-2.55 3.95 -1.9 2.6 L-0.85 0.85 -1.9 2.6 Q-2.55 3.95 -2.85 5.55 L-3.5 7.45 -4.45 9.4 -5.8 11.45 M1.85 10.1 Q1.4 11.1 1.25 12.05 -2.15 11.7 -4.45 9.4 -2.15 11.7 1.25 12.05 1.4 11.1 1.85 10.1 -1.2 9.45 -3.5 7.45 -1.2 9.45 1.85 10.1 L2.8 8.3 1.35 7.15 Q-0.05 6.1 -2.85 5.55 -0.05 6.1 1.35 7.15 L2.8 8.3 1.85 10.1 M4.7 5.15 L2.8 8.3 4.7 5.15 Q1.45 2.85 -1.9 2.6 1.45 2.85 4.7 5.15 L6.5 2.1 4.7 5.15 M1.25 12.05 Q0.95 13.4 1.15 14.7 0.95 13.4 1.25 12.05" fill="#9d5e55" fill-rule="evenodd" stroke="none"/>
    <path d="M4.3 22.05 L1.8 21.75 -1.55 20.8 Q-5.25 21.35 -6.95 18.95 -8.65 16.55 -8.4 16.05 -9.8 14.35 -10.5 12.55 L-8.85 12.35 -7.6 12.35 Q-3.35 17.55 2.15 17.6 L4.3 22.05 M-1.55 19.7 Q-5.7 20.35 -7.85 15.6 -5.7 20.35 -1.55 19.7" fill="#843320" fill-rule="evenodd" stroke="none"/>
    <path d="M-10.5 12.55 L-10.55 12.45 Q-11.05 11.2 -11.15 9.9 -8.55 2.85 -7.55 2.2 -6.8 1.7 -0.85 0.85 2.5 -0.55 6.5 2.1 9.4 3.85 11.3 6.55 L12.05 7.6 Q13.8 10.3 13.95 11.6 L14.05 13.15 13.3 15.65 13.55 17.45 Q13.6 18.8 10.6 20.8 8.3 22.3 4.55 22.1 L4.3 22.05 1.8 21.75 -1.55 20.8 Q-5.25 21.35 -6.95 18.95 -8.65 16.55 -8.4 16.05 -9.8 14.35 -10.5 12.55 M-7.6 12.35 Q-6.7 12.4 -5.8 11.45 L-4.45 9.4 -3.5 7.45 -2.85 5.55 Q-2.55 3.95 -1.9 2.6 L-0.85 0.85 M-3.5 7.45 Q-1.2 9.45 1.85 10.1 L2.8 8.3 1.35 7.15 Q-0.05 6.1 -2.85 5.55 M-1.9 2.6 Q1.45 2.85 4.7 5.15 L6.5 2.1 M2.8 8.3 L4.7 5.15 M-4.45 9.4 Q-2.15 11.7 1.25 12.05 1.4 11.1 1.85 10.1 M2.15 17.6 Q1.35 16.2 1.15 14.7 -3.05 14.7 -5.8 11.45 M4.3 22.05 L2.15 17.6 Q-3.35 17.55 -7.6 12.35 M1.15 14.7 Q0.95 13.4 1.25 12.05 M-7.85 15.6 Q-5.7 20.35 -1.55 19.7" fill="none" stroke="#6c322b" stroke-linecap="round" stroke-linejoin="round" stroke-width="0.05"/>
    <path d="M-8.85 12.35 L-7.6 12.35" fill="none" stroke="#6c322b" stroke-linecap="round" stroke-linejoin="round" stroke-width="0.05"/>
    <path d="M7.2 12.55 Q6.9 12.9 6.9 13.35 6.9 13.8 7.2 14.1 7.5 14.45 8.0 14.45 8.45 14.45 8.75 14.1 L9.05 13.35 8.75 12.55 Q8.45 12.25 8.0 12.25 7.5 12.25 7.2 12.55 M8.3 16.15 Q4.05 15.45 3.55 13.0 4.8 10.85 8.2 11.0 10.5 10.75 12.0 13.0 10.45 15.45 8.3 16.15 M-7.85 4.35 L-8.3 4.65 -8.45 5.4 -8.3 6.1 -7.85 6.45 Q-7.6 6.45 -7.4 6.1 L-7.2 5.4 -7.4 4.65 Q-7.6 4.35 -7.85 4.35 M-8.0 3.55 Q-7.5 2.95 -6.75 3.0 -6.1 3.0 -5.2 3.55 -4.7 6.45 -5.4 8.0 -7.1 9.0 -8.35 8.2 L-9.2 7.35 Q-9.65 5.0 -8.0 3.55" fill="#f9af66" fill-rule="evenodd" stroke="none"/>
    <path d="M7.2 12.55 Q7.5 12.25 8.0 12.25 8.45 12.25 8.75 12.55 L9.05 13.35 8.75 14.1 Q8.45 14.45 8.0 14.45 7.5 14.45 7.2 14.1 6.9 13.8 6.9 13.35 6.9 12.9 7.2 12.55 M-7.85 4.35 Q-7.6 4.35 -7.4 4.65 L-7.2 5.4 -7.4 6.1 Q-7.6 6.45 -7.85 6.45 L-8.3 6.1 -8.45 5.4 -8.3 4.65 -7.85 4.35" fill="#000000" fill-rule="evenodd" stroke="none"/>
    <path d="M8.3 16.15 Q10.45 15.45 12.0 13.0 10.5 10.75 8.2 11.0 4.8 10.85 3.55 13.0 4.05 15.45 8.3 16.15 M-7.85 4.35 Q-7.6 4.35 -7.4 4.65 L-7.2 5.4 -7.4 6.1 Q-7.6 6.45 -7.85 6.45 L-8.3 6.1 -8.45 5.4 -8.3 4.65 -7.85 4.35" fill="none" stroke="#6c322b" stroke-linecap="round" stroke-linejoin="round" stroke-width="0.05"/>
    <path d="M-8.0 3.55 Q-9.65 5.0 -9.2 7.35 L-8.35 8.2 Q-7.1 9.0 -5.4 8.0 -4.7 6.45 -5.2 3.55 -6.1 3.0 -6.75 3.0 -7.5 2.95 -8.0 3.55" fill="none" stroke="#6c322b" stroke-linecap="round" stroke-linejoin="round" stroke-width="0.05"/>
    <path d="M17.05 35.9 Q15.05 29.05 12.3 23.7 10.9 20.95 9.35 18.55 11.05 17.5 13.1 17.45 L13.4 17.55 Q14.7 20.55 15.6 23.6 17.35 29.8 17.15 35.9 L17.05 35.9" fill="#ffffec" fill-rule="evenodd" stroke="none"/>
    <path d="M9.35 18.55 Q10.9 20.95 12.3 23.7 15.05 29.05 17.05 35.9 13.4 28.9 8.8 23.8 L6.8 21.55 Q7.85 19.55 9.35 18.55" fill="#ffffcc" fill-rule="evenodd" stroke="none"/>
    <path d="M9.35 18.55 Q7.85 19.55 6.8 21.55 L8.8 23.8 Q13.4 28.9 17.05 35.9 L17.15 35.9 Q17.35 29.8 15.6 23.6 14.7 20.55 13.4 17.55 L13.1 17.45 Q11.05 17.5 9.35 18.55 Z" fill="none" stroke="#a9a801" stroke-linecap="round" stroke-linejoin="round" stroke-width="0.05"/>
    <path d="M-24.75 14.7 Q-17.85 13.2 -11.75 13.25 L-9.05 13.3 Q-8.3 11.55 -8.45 10.0 -8.65 8.4 -9.8 7.05 L-10.0 6.95 Q-12.85 7.75 -15.4 8.9 -20.75 11.2 -24.85 14.65 L-24.75 14.7" fill="#ffffec" fill-rule="evenodd" stroke="none"/>
    <path d="M-24.75 14.7 L-24.85 14.65 Q-20.75 11.2 -15.4 8.9 -12.85 7.75 -10.0 6.95 L-9.8 7.05 Q-8.65 8.4 -8.45 10.0 -8.3 11.55 -9.05 13.3 L-11.75 13.25 Q-17.85 13.2 -24.75 14.7 Z" fill="none" stroke="#a9a801" stroke-linecap="round" stroke-linejoin="round" stroke-width="0.05"/>
  </g>
</svg>
