<?xml version="1.0" encoding="UTF-8" standalone="no"?>
<svg xmlns:xlink="http://www.w3.org/1999/xlink" height="19.7px" width="11.15px" xmlns="http://www.w3.org/2000/svg">
  <g transform="matrix(1.0, 0.0, 0.0, 1.0, 10.3, -2.0)">
    <path d="M0.8 20.2 L0.85 20.65 Q-0.7 21.6 -2.05 21.7 -3.15 21.6 -4.05 21.15 L-5.0 19.6 -5.35 17.8 Q-2.15 20.35 0.8 20.2" fill="#f4d870" fill-rule="evenodd" stroke="none"/>
    <path d="M-9.1 10.4 L-9.7 7.7 -9.7 7.65 -10.3 4.5 Q-7.8 0.1 -2.35 3.5 -0.75 8.3 -0.05 13.45 -3.4 7.75 -9.1 10.4" fill="#5b2424" fill-rule="evenodd" stroke="none"/>
    <path d="M-5.0 19.6 Q-7.75 15.35 -9.1 10.4 -3.4 7.75 -0.05 13.45 L0.8 20.2 Q-2.15 20.35 -5.35 17.8 L-5.0 19.6" fill="#7a3430" fill-rule="evenodd" stroke="none"/>
    <path d="M0.8 20.2 L0.85 20.65 M-4.05 21.15 L-5.0 19.6 Q-7.75 15.35 -9.1 10.4 L-9.7 7.7 -9.7 7.65 -10.3 4.5 Q-7.8 0.1 -2.35 3.5 -0.75 8.3 -0.05 13.45 L0.8 20.2 Q-2.15 20.35 -5.35 17.8 L-5.0 19.6" fill="none" stroke="#272727" stroke-linecap="round" stroke-linejoin="round" stroke-width="0.05"/>
  </g>
</svg>
