<?xml version="1.0" encoding="UTF-8" standalone="no"?>
<svg xmlns:xlink="http://www.w3.org/1999/xlink" height="26.45px" width="11.6px" xmlns="http://www.w3.org/2000/svg">
  <g transform="matrix(1.0, 0.0, 0.0, 1.0, 6.4, 29.4)">
    <path d="M0.45 -25.2 L0.45 -25.15 0.5 -25.0 Q-0.3 -23.6 -1.6 -22.7 -2.8 -23.1 -4.15 -24.2 L-4.2 -24.65 -4.15 -25.3 Q-4.05 -28.15 -2.9 -29.35 -0.75 -29.85 0.45 -25.2 M0.8 -23.6 L1.05 -22.4 Q0.6 -20.15 -0.95 -18.55 -2.4 -19.85 -3.85 -22.1 L-3.95 -22.7 Q-2.6 -21.45 -1.15 -20.9 -0.1 -21.95 0.8 -23.6 M1.6 -19.05 L1.5 -14.2 -0.5 -12.1 Q-1.85 -12.95 -2.9 -14.45 L-2.95 -14.8 -3.0 -15.2 -3.15 -16.45 -3.4 -18.45 -3.4 -18.6 Q-2.2 -16.5 -0.7 -15.5 0.7 -16.8 1.6 -19.05 M1.55 -7.7 L1.5 -6.4 1.45 -6.4 Q0.5 -5.5 -0.2 -4.15 L-2.15 -5.95 -2.3 -7.6 -2.25 -7.6 -0.6 -7.45 1.55 -7.7" fill="#f4d870" fill-rule="evenodd" stroke="none"/>
    <path d="M1.5 -14.2 L3.5 -13.25 Q4.9 -12.4 5.15 -11.3 4.9 -10.5 3.5 -9.9 L1.55 -9.3 -0.6 -9.15 -2.3 -9.25 Q-3.65 -9.45 -4.7 -9.9 -6.15 -10.5 -6.35 -11.3 -6.15 -12.4 -4.7 -13.25 L-2.85 -13.95 -2.6 -11.9 Q-0.45 -10.95 1.35 -11.9 L1.5 -14.2" fill="#e7e1c7" fill-rule="evenodd" stroke="none"/>
    <path d="M5.15 -11.3 L5.2 -10.8 Q5.2 -9.45 3.5 -8.45 L1.55 -7.7 -0.6 -7.45 -2.25 -7.6 -2.3 -7.6 Q-3.65 -7.85 -4.7 -8.45 -6.45 -9.45 -6.4 -10.8 L-6.35 -11.3 Q-6.15 -10.5 -4.7 -9.9 -3.65 -9.45 -2.3 -9.25 L-0.6 -9.15 1.55 -9.3 3.5 -9.9 Q4.9 -10.5 5.15 -11.3" fill="#d2c599" fill-rule="evenodd" stroke="none"/>
    <path d="M-4.15 -24.2 Q-2.8 -23.1 -1.6 -22.7 -0.3 -23.6 0.5 -25.0 L0.55 -24.85 0.8 -23.6 Q-0.1 -21.95 -1.15 -20.9 -2.6 -21.45 -3.95 -22.7 L-4.15 -24.2 M1.05 -22.4 L1.6 -19.05 Q0.7 -16.8 -0.7 -15.5 -2.2 -16.5 -3.4 -18.6 L-3.85 -22.1 Q-2.4 -19.85 -0.95 -18.55 0.6 -20.15 1.05 -22.4 M1.5 -6.4 L1.65 -4.1 Q-0.75 -1.8 -2.7 -4.15 -2.25 -4.75 -2.15 -5.95 L-0.2 -4.15 Q0.5 -5.5 1.45 -6.4 L1.5 -6.4 M-2.85 -13.95 L-2.95 -14.8 -2.9 -14.45 Q-1.85 -12.95 -0.5 -12.1 L1.5 -14.2 1.35 -11.9 Q-0.45 -10.95 -2.6 -11.9 L-2.85 -13.95" fill="#7a3430" fill-rule="evenodd" stroke="none"/>
    <path d="M0.45 -25.2 Q-0.75 -29.85 -2.9 -29.35 -4.05 -28.15 -4.15 -25.3 L-4.2 -24.65 -4.15 -24.2 -3.95 -22.7 -3.85 -22.1 -3.4 -18.6 -3.4 -18.45 -3.15 -16.45 -3.0 -15.2 -2.95 -14.8 -2.85 -13.95 -2.6 -11.9 Q-0.45 -10.95 1.35 -11.9 L1.5 -14.2 1.6 -19.05 1.05 -22.4 0.8 -23.6 0.55 -24.85 0.5 -25.0 0.45 -25.2 M1.55 -7.7 L1.5 -6.4 1.65 -4.1 M-2.7 -4.15 Q-2.25 -4.75 -2.15 -5.95 L-2.3 -7.6 -2.25 -7.6 M-2.9 -14.45 L-2.95 -14.8" fill="none" stroke="#272727" stroke-linecap="round" stroke-linejoin="round" stroke-width="0.05"/>
    <path d="M1.5 -14.2 L3.5 -13.25 Q4.9 -12.4 5.15 -11.3 L5.2 -10.8 Q5.2 -9.45 3.5 -8.45 L1.55 -7.7 -0.6 -7.45 -2.25 -7.6 M-2.3 -7.6 Q-3.65 -7.85 -4.7 -8.45 -6.45 -9.45 -6.4 -10.8 L-6.35 -11.3 Q-6.15 -12.4 -4.7 -13.25 L-2.85 -13.95" fill="none" stroke="#b0934f" stroke-linecap="round" stroke-linejoin="round" stroke-width="0.05"/>
  </g>
</svg>
