<?xml version="1.0" encoding="UTF-8" standalone="no"?>
<svg xmlns:xlink="http://www.w3.org/1999/xlink" height="23.05px" width="8.55px" xmlns="http://www.w3.org/2000/svg">
  <g transform="matrix(1.0, 0.0, 0.0, 1.0, 7.3, 1.35)">
    <path d="M0.7 13.0 L0.4 14.7 -0.3 20.2 Q-1.85 17.5 -3.95 15.8 -4.6 18.2 -4.3 21.3 L-4.45 21.25 Q-6.95 15.4 -7.25 9.15 -2.9 8.65 0.65 13.0 L0.7 13.0" fill="#7a3430" fill-rule="evenodd" stroke="none"/>
    <path d="M-7.25 9.15 Q-7.4 5.6 -7.0 2.15 L-7.0 1.3 Q-4.3 -2.35 0.15 -0.95 L0.2 -0.9 Q2.05 5.85 0.7 13.0 L0.65 13.0 Q-2.9 8.65 -7.25 9.15" fill="#5b2424" fill-rule="evenodd" stroke="none"/>
    <path d="M-0.3 20.2 L-0.4 20.85 Q-1.75 21.6 -2.85 21.7 L-4.3 21.3 Q-4.6 18.2 -3.95 15.8 -1.85 17.5 -0.3 20.2" fill="#f4d870" fill-rule="evenodd" stroke="none"/>
    <path d="M-7.25 9.15 Q-7.4 5.6 -7.0 2.15 L-7.0 1.3 Q-4.3 -2.35 0.15 -0.95 L0.2 -0.9 Q2.05 5.85 0.7 13.0 L0.4 14.7 -0.3 20.2 -0.4 20.85 M-4.45 21.25 Q-6.95 15.4 -7.25 9.15 M0.65 13.0 L0.7 13.0 M-4.3 21.3 Q-4.6 18.2 -3.95 15.8 -1.85 17.5 -0.3 20.2" fill="none" stroke="#272727" stroke-linecap="round" stroke-linejoin="round" stroke-width="0.05"/>
  </g>
</svg>
