<?xml version="1.0" encoding="UTF-8" standalone="no"?>
<svg xmlns:xlink="http://www.w3.org/1999/xlink" height="14.35px" width="19.6px" xmlns="http://www.w3.org/2000/svg">
  <g transform="matrix(1.0, 0.0, 0.0, 1.0, 9.85, 3.8)">
    <path d="M-5.35 4.65 Q-2.4 8.4 1.0 6.65 3.0 2.1 9.55 -0.55 10.05 0.4 9.35 0.95 7.15 1.9 6.1 2.95 4.8 4.3 3.85 5.6 L1.6 8.85 Q0.3 10.8 -1.05 10.5 -2.9 8.85 -4.95 5.3 L-5.35 4.65" fill="#5b2424" fill-rule="evenodd" stroke="none"/>
    <path d="M-5.35 4.65 L-7.6 0.2 -7.65 0.2 Q-7.95 -0.5 -9.15 -1.45 -11.0 -4.1 -7.8 -3.75 -6.35 -1.65 -3.5 -1.1 L-3.3 -1.05 -3.05 -1.0 -2.25 -0.95 2.95 -0.7 Q5.4 -0.6 7.8 -2.25 8.9 -1.9 9.55 -0.55 3.0 2.1 1.0 6.65 -2.4 8.4 -5.35 4.65" fill="#7a3430" fill-rule="evenodd" stroke="none"/>
    <path d="M9.55 -0.55 Q8.9 -1.9 7.8 -2.25 5.4 -0.6 2.95 -0.7 L-2.25 -0.95 -3.05 -1.0 -3.3 -1.05 -3.5 -1.1 Q-6.35 -1.65 -7.8 -3.75 -11.0 -4.1 -9.15 -1.45 -7.95 -0.5 -7.65 0.2 L-7.6 0.2 -5.35 4.65 -4.95 5.3 Q-2.9 8.85 -1.05 10.5 0.3 10.8 1.6 8.85 L3.85 5.6 Q4.8 4.3 6.1 2.95 7.15 1.9 9.35 0.95 10.05 0.4 9.55 -0.55 Z" fill="none" stroke="#301820" stroke-linecap="round" stroke-linejoin="round" stroke-width="0.05"/>
  </g>
</svg>
