<?xml version="1.0" encoding="UTF-8" standalone="no"?>
<svg xmlns:xlink="http://www.w3.org/1999/xlink" height="94.9px" width="21.4px" xmlns="http://www.w3.org/2000/svg">
  <g transform="matrix(1.0, 0.0, 0.0, 1.0, 6.6, 16.8)">
    <path d="M-3.1 -10.05 L-2.95 -9.75 -3.2 -9.85 -3.1 -10.05" fill="#3f455d" fill-rule="evenodd" stroke="none"/>
    <path d="M9.35 -10.65 L9.6 -10.55 9.35 -10.6 9.35 -10.65" fill="#353c4f" fill-rule="evenodd" stroke="none"/>
    <path d="M9.6 -10.55 L10.15 -10.45 Q10.75 -10.45 11.2 -10.8 11.7 23.2 14.3 69.35 13.7 68.95 13.1 68.8 L10.85 68.85 10.7 68.9 8.15 69.2 Q6.15 69.05 5.05 67.85 3.4 66.8 2.05 66.65 L0.15 66.9 Q-2.5 68.55 -5.2 66.9 L-5.2 -9.05 -4.6 -8.95 -4.4 -8.95 Q2.45 26.0 7.7 7.9 L9.6 -10.55 M10.65 65.4 L10.7 68.9 10.65 65.4" fill="#e7e1c7" fill-rule="evenodd" stroke="none"/>
    <path d="M-2.95 -9.75 Q3.6 5.8 6.45 -0.35 7.8 -3.35 9.35 -10.6 L9.6 -10.55 7.7 7.9 Q2.45 26.0 -4.4 -8.95 -3.7 -9.05 -3.25 -9.8 L-3.2 -9.85 -2.95 -9.75" fill="#d2c599" fill-rule="evenodd" stroke="none"/>
    <path d="M14.3 69.35 L14.35 69.65 14.8 78.1 Q13.9 77.5 13.1 77.25 L10.85 77.3 8.15 77.65 Q6.15 77.5 5.05 76.3 3.4 75.25 2.05 75.1 L0.15 75.35 Q-2.5 77.0 -5.2 75.35 L-5.2 66.9 Q-2.5 68.55 0.15 66.9 L2.05 66.65 Q3.4 66.8 5.05 67.85 6.15 69.05 8.15 69.2 L10.7 68.9 10.85 68.85 13.1 68.8 Q13.7 68.95 14.3 69.35 M10.85 77.3 L10.7 68.9 10.85 77.3 M5.4 71.3 L5.05 76.3 5.4 71.3 M-0.1 68.95 L0.15 75.35 -0.1 68.95" fill="#efd55c" fill-rule="evenodd" stroke="none"/>
    <path d="M9.35 -10.65 Q8.95 -10.85 8.6 -11.35 8.0 -12.25 7.95 -13.6 7.9 -14.95 8.45 -15.9 9.05 -16.8 9.95 -16.8 10.85 -16.8 11.45 -15.9 12.1 -14.95 12.15 -13.6 12.2 -12.25 11.6 -11.35 L11.2 -10.8 Q10.75 -10.45 10.15 -10.45 L9.6 -10.55 9.35 -10.65 M-5.2 -9.05 L-6.0 -9.8 Q-6.6 -10.65 -6.6 -11.9 -6.65 -13.15 -6.1 -14.0 -5.55 -14.85 -4.75 -14.85 -3.9 -14.85 -3.35 -14.0 -2.75 -13.15 -2.75 -11.9 -2.7 -10.85 -3.1 -10.05 L-3.2 -9.85 -3.25 -9.8 Q-3.7 -9.05 -4.4 -8.95 L-4.6 -8.95 -5.2 -9.05" fill="#ab9373" fill-rule="evenodd" stroke="none"/>
    <path d="M11.2 -10.8 L11.6 -11.35 Q12.2 -12.25 12.15 -13.6 12.1 -14.95 11.45 -15.9 10.85 -16.8 9.95 -16.8 9.05 -16.8 8.45 -15.9 7.9 -14.95 7.95 -13.6 8.0 -12.25 8.6 -11.35 8.95 -10.85 9.35 -10.65 L9.6 -10.55 10.15 -10.45 Q10.75 -10.45 11.2 -10.8 11.7 23.2 14.3 69.35 M14.35 69.65 L14.8 78.1 Q13.9 77.5 13.1 77.25 L10.85 77.3 8.15 77.65 Q6.15 77.5 5.05 76.3 3.4 75.25 2.05 75.1 L0.15 75.35 Q-2.5 77.0 -5.2 75.35 L-5.2 66.9 -5.2 -9.05 -6.0 -9.8 Q-6.6 -10.65 -6.6 -11.9 -6.65 -13.15 -6.1 -14.0 -5.55 -14.85 -4.75 -14.85 -3.9 -14.85 -3.35 -14.0 -2.75 -13.15 -2.75 -11.9 -2.7 -10.85 -3.1 -10.05 L-2.95 -9.75 Q3.6 5.8 6.45 -0.35 7.8 -3.35 9.35 -10.6 L9.35 -10.65 M-4.4 -8.95 L-4.6 -8.95 -5.2 -9.05 M-4.4 -8.95 Q-3.7 -9.05 -3.25 -9.8 L-3.2 -9.85 -3.1 -10.05" fill="none" stroke="#301820" stroke-linecap="round" stroke-linejoin="round" stroke-width="0.05"/>
    <path d="M14.3 69.35 L14.35 69.65 M9.6 -10.55 L7.7 7.9 M10.7 68.9 L8.15 69.2 Q6.15 69.05 5.05 67.85 3.4 66.8 2.05 66.65 L0.15 66.9 Q-2.5 68.55 -5.2 66.9 M14.3 69.35 Q13.7 68.95 13.1 68.8 L10.85 68.85 10.7 68.9" fill="none" stroke="#301820" stroke-linecap="round" stroke-linejoin="round" stroke-width="0.05"/>
    <path d="M10.7 68.9 L10.85 77.3 M10.7 68.9 L10.65 65.4 M5.05 76.3 L5.4 71.3 M0.15 75.35 L-0.1 68.95" fill="none" stroke="#b59113" stroke-linecap="round" stroke-linejoin="round" stroke-width="0.05"/>
  </g>
</svg>
