<?xml version="1.0" encoding="UTF-8" standalone="no"?>
<svg xmlns:xlink="http://www.w3.org/1999/xlink" height="20.45px" width="34.15px" xmlns="http://www.w3.org/2000/svg">
  <g transform="matrix(1.0, 0.0, 0.0, 1.0, 16.0, 10.2)">
    <path d="M15.15 -1.75 Q12.25 1.35 8.85 1.35 9.1 2.1 11.0 2.85 12.85 3.55 16.85 1.5 13.85 4.25 10.0 4.35 10.45 5.15 12.55 5.8 14.4 6.3 18.15 4.7 12.2 9.75 1.75 5.85 -4.4 7.1 -9.6 6.15 -13.15 5.5 -16.0 3.6 -9.1 5.65 -8.0 3.8 -11.55 3.15 -13.95 0.85 -10.65 2.5 -7.95 2.3 -6.95 2.0 -7.0 1.0 -9.6 0.3 -11.55 -1.95 -9.1 -0.4 -7.4 -0.35 -5.7 -0.3 -4.55 -2.6 L6.1 -2.6 Q9.45 1.8 15.15 -1.75" fill="#dc7741" fill-rule="evenodd" stroke="none"/>
    <path d="M15.15 -1.75 Q12.25 1.35 8.85 1.35 9.1 2.1 11.0 2.85 12.85 3.55 16.85 1.5 13.85 4.25 10.0 4.35 10.45 5.15 12.55 5.8 14.4 6.3 18.15 4.7 12.2 9.75 1.75 5.85 -4.4 7.1 -9.6 6.15 -13.15 5.5 -16.0 3.6 -9.1 5.65 -8.0 3.8 -11.55 3.15 -13.95 0.85 -10.65 2.5 -7.95 2.3 -6.95 2.0 -7.0 1.0 -9.6 0.3 -11.55 -1.95 -9.1 -0.4 -7.4 -0.35 -5.7 -0.3 -4.55 -2.6 L6.1 -2.6 Q9.45 1.8 15.15 -1.75 Z" fill="none" stroke="#b34922" stroke-linecap="round" stroke-linejoin="round" stroke-width="0.05"/>
    <path d="M-5.2 4.2 L-6.15 4.3 -5.95 3.7 -5.95 3.65 -5.85 3.0 -5.9 2.2 Q-5.5 2.35 -5.55 2.6 L-5.55 2.7 -5.35 3.95 -5.2 4.2 M-5.55 2.7 L-5.95 3.65 -5.55 2.7" fill="#000000" fill-rule="evenodd" stroke="none"/>
    <path d="M-7.9 0.85 L-7.9 0.7 -7.85 0.7 -7.9 0.85" fill="#ffdfc8" fill-rule="evenodd" stroke="none"/>
    <path d="M-3.1 2.85 L-4.3 2.35 -0.95 2.35 -3.1 2.85 M-7.0 2.25 L-7.75 1.35 -6.1 2.05 -7.0 2.25" fill="#ffff66" fill-rule="evenodd" stroke="none"/>
    <path d="M5.95 3.95 L4.85 5.7 4.8 5.7 4.3 6.3 2.6 7.65 -1.2 8.4 Q-0.2 5.8 -1.1 5.3 -1.85 5.8 -2.8 5.75 -4.0 5.7 -4.8 4.8 L-5.2 4.2 -5.35 3.95 -5.55 2.7 -5.55 2.6 Q-5.5 2.35 -5.9 2.2 L-5.85 3.0 -5.95 3.65 -5.95 3.7 Q-6.35 4.4 -6.85 4.35 -7.25 4.35 -7.55 3.9 L-7.7 3.55 -8.0 1.7 -7.9 0.85 -7.85 0.7 -7.55 -0.15 -7.3 -0.45 -7.25 -0.5 -7.3 -1.2 -7.1 -2.4 -6.8 -3.1 -5.95 -3.85 -5.75 -3.9 Q-5.15 -3.9 -4.75 -3.15 L-4.75 -3.1 -4.55 -2.65 -4.45 -2.25 -4.35 -2.35 -3.75 -2.75 -2.2 -3.15 -1.7 -3.1 Q-0.9 -3.0 -0.25 -2.5 L-0.15 -2.4 Q0.7 -1.6 0.65 -0.4 L0.65 -0.3 Q0.55 0.6 0.0 1.25 L1.2 1.25 2.6 1.15 Q4.0 0.95 4.8 0.35 L6.05 0.5 6.25 2.1 6.15 2.9 6.0 3.8 5.95 3.95 M-6.85 6.5 L-7.35 4.9 -6.85 5.6 -6.85 6.5 M-3.1 2.85 L-0.95 2.35 -4.3 2.35 -3.1 2.85 M-7.0 2.25 L-6.1 2.05 -7.75 1.35 -7.0 2.25" fill="#333333" fill-rule="evenodd" stroke="none"/>
    <path d="M-4.45 9.95 L-4.5 9.9 Q-6.05 8.3 -6.7 6.9 L-6.85 6.5 -6.85 5.6 -7.35 4.9 -7.55 3.9 Q-7.25 4.35 -6.85 4.35 -6.35 4.4 -5.95 3.7 L-6.15 4.3 -5.2 4.2 -4.8 4.8 Q-4.0 5.7 -2.8 5.75 -1.85 5.8 -1.1 5.3 -0.2 5.8 -1.2 8.4 -2.5 10.25 -4.45 9.95 M-6.35 4.65 L-6.15 4.3 -6.35 4.65 Q-6.5 5.6 -5.55 5.3 -6.05 5.05 -6.35 4.65 M-2.6 7.35 Q-5.1 7.65 -6.2 6.7 -5.1 7.65 -2.6 7.35" fill="#ddc5cd" fill-rule="evenodd" stroke="none"/>
    <path d="M2.6 7.65 L0.4 9.05 -0.35 9.45 Q-3.1 10.75 -4.45 9.95 -2.5 10.25 -1.2 8.4 L2.6 7.65 M-6.35 4.65 Q-6.05 5.05 -5.55 5.3 -6.5 5.6 -6.35 4.65" fill="#cda5b8" fill-rule="evenodd" stroke="none"/>
    <path d="M-7.9 0.7 L-7.95 -1.7 -7.8 -3.3 Q-7.6 -4.2 -6.9 -4.75 -6.4 -7.0 -4.65 -8.45 -2.9 -9.95 -2.4 -9.25 -1.65 -10.1 -0.5 -9.85 0.2 -10.45 0.95 -10.0 2.15 -10.5 2.85 -9.75 4.45 -10.3 5.2 -8.55 L5.15 -8.45 Q6.1 -7.35 6.2 -6.05 4.35 -2.5 0.65 -0.3 4.35 -2.5 6.2 -6.05 6.4 -2.85 1.2 1.25 L0.0 1.25 Q0.55 0.6 0.65 -0.3 L0.65 -0.4 Q0.7 -1.6 -0.15 -2.4 L-0.25 -2.5 Q-0.9 -3.0 -1.7 -3.1 L-2.2 -3.15 -3.75 -2.75 -4.35 -2.35 -4.45 -2.25 -4.55 -2.65 -4.75 -3.1 -4.75 -3.15 Q-5.15 -3.9 -5.75 -3.9 L-5.95 -3.85 -6.8 -3.1 -7.1 -2.4 -7.3 -1.2 -7.25 -0.5 -7.3 -0.45 -7.55 -0.15 -7.85 0.7 -7.9 0.7 M-2.4 -9.25 Q-4.7 -7.7 -5.95 -3.85 -4.7 -7.7 -2.4 -9.25 M-0.5 -9.85 Q-3.45 -8.1 -4.75 -3.1 -3.45 -8.1 -0.5 -9.85 M-6.9 -4.75 L-7.1 -2.4 -6.9 -4.75 M2.85 -9.75 L-1.7 -3.1 2.85 -9.75 M0.95 -10.0 Q-1.9 -7.4 -3.75 -2.75 -1.9 -7.4 0.95 -10.0 M5.15 -8.45 Q3.3 -4.85 -0.25 -2.5 3.3 -4.85 5.15 -8.45" fill="#e39b66" fill-rule="evenodd" stroke="none"/>
    <path d="M5.2 -8.55 L5.25 -8.55 Q6.0 -8.35 6.3 -7.45 7.9 -6.05 7.8 -4.55 8.4 -3.5 8.1 -2.2 L8.45 -1.15 Q8.6 -0.55 8.2 0.35 L7.2 2.1 6.05 3.9 6.0 3.95 5.95 3.95 6.0 3.8 6.15 2.9 6.25 2.1 6.05 0.5 4.8 0.35 Q4.0 0.95 2.6 1.15 L1.2 1.25 Q6.4 -2.85 6.2 -6.05 6.1 -7.35 5.15 -8.45 L5.2 -8.55 M6.3 -7.45 Q6.6 -7.0 6.2 -6.05 6.6 -7.0 6.3 -7.45 M7.8 -4.55 Q6.25 -0.65 2.6 1.15 6.25 -0.65 7.8 -4.55 M8.1 -2.2 Q7.35 -0.3 6.05 0.5 7.35 -0.3 8.1 -2.2" fill="#dc7741" fill-rule="evenodd" stroke="none"/>
    <path d="M-6.15 4.3 L-6.35 4.65 M-5.95 3.65 L-5.95 3.7" fill="none" stroke="#d7995e" stroke-linecap="round" stroke-linejoin="round" stroke-width="0.05"/>
    <path d="M-7.55 3.9 L-7.7 3.55 -8.0 1.7 -7.9 0.85 -7.85 0.7 -7.55 -0.15 -7.3 -0.45 -7.25 -0.5 -7.3 -1.2 -7.1 -2.4 -6.8 -3.1 -5.95 -3.85 -5.75 -3.9 Q-5.15 -3.9 -4.75 -3.15 L-4.75 -3.1 -4.55 -2.65 -4.45 -2.25 -4.35 -2.35 -3.75 -2.75 -2.2 -3.15 -1.7 -3.1 Q-0.9 -3.0 -0.25 -2.5 L-0.15 -2.4 Q0.7 -1.6 0.65 -0.4 L0.65 -0.3 Q0.55 0.6 0.0 1.25 M-1.2 8.4 Q-0.2 5.8 -1.1 5.3 -1.85 5.8 -2.8 5.75 -4.0 5.7 -4.8 4.8 L-5.2 4.2 -6.15 4.3 M-5.95 3.65 L-5.55 2.7 -5.55 2.6 Q-5.5 2.35 -5.9 2.2 M-5.2 4.2 L-5.35 3.95 -5.55 2.7 M-5.95 3.7 Q-6.35 4.4 -6.85 4.35 -7.25 4.35 -7.55 3.9 M-6.85 6.5 L-6.85 5.6 -7.35 4.9 M2.6 7.65 L-1.2 8.4" fill="none" stroke="#000000" stroke-linecap="round" stroke-linejoin="round" stroke-width="0.05"/>
    <path d="M5.95 3.95 L4.85 5.7 4.8 5.7 4.3 6.3 2.6 7.65 0.4 9.05 -0.35 9.45 Q-3.1 10.75 -4.45 9.95 L-4.5 9.9 Q-6.05 8.3 -6.7 6.9 L-6.85 6.5 -7.35 4.9 -7.55 3.9 M-7.9 0.85 L-7.9 0.7 M-5.55 5.3 Q-6.5 5.6 -6.35 4.65 M-5.9 2.2 L-5.85 3.0 -5.95 3.65 M-5.95 3.7 L-6.15 4.3 M-6.2 6.7 Q-5.1 7.65 -2.6 7.35" fill="none" stroke="#a2627a" stroke-linecap="round" stroke-linejoin="round" stroke-width="0.05"/>
    <path d="M5.2 -8.55 L5.25 -8.55 Q6.0 -8.35 6.3 -7.45 7.9 -6.05 7.8 -4.55 8.4 -3.5 8.1 -2.2 L8.45 -1.15 Q8.6 -0.55 8.2 0.35 M-7.9 0.7 L-7.95 -1.7 -7.8 -3.3 Q-7.6 -4.2 -6.9 -4.75 -6.4 -7.0 -4.65 -8.45 -2.9 -9.95 -2.4 -9.25 -1.65 -10.1 -0.5 -9.85 0.2 -10.45 0.95 -10.0 2.15 -10.5 2.85 -9.75 4.45 -10.3 5.2 -8.55 L5.15 -8.45 Q3.3 -4.85 -0.25 -2.5 M6.2 -6.05 Q6.6 -7.0 6.3 -7.45 M0.65 -0.3 Q4.35 -2.5 6.2 -6.05 M2.6 1.15 Q6.25 -0.65 7.8 -4.55 M6.05 0.5 Q7.35 -0.3 8.1 -2.2 M-5.95 -3.85 Q-4.7 -7.7 -2.4 -9.25 M-4.75 -3.1 Q-3.45 -8.1 -0.5 -9.85 M-7.1 -2.4 L-6.9 -4.75 M-1.7 -3.1 L2.85 -9.75 M-3.75 -2.75 Q-1.9 -7.4 0.95 -10.0" fill="none" stroke="#b34922" stroke-linecap="round" stroke-linejoin="round" stroke-width="0.05"/>
  </g>
</svg>
