<?xml version="1.0" encoding="UTF-8" standalone="no"?>
<svg xmlns:xlink="http://www.w3.org/1999/xlink" height="145.0px" width="10.1px" xmlns="http://www.w3.org/2000/svg">
  <g transform="matrix(1.0, 0.0, 0.0, 1.0, 5.15, 105.9)">
    <path d="M-2.15 -68.1 Q-6.8 -92.6 4.1 -105.9 2.2 -98.1 2.1 -96.15 L2.05 -93.85 2.05 -93.3 2.0 -91.5 Q-1.4 -82.7 -0.35 -68.1 L-2.15 -68.1" fill="#1c3748" fill-rule="evenodd" stroke="none"/>
    <path d="M2.05 -93.3 L2.2 -91.85 Q2.75 -89.6 4.95 -88.0 1.9 -78.6 1.5 -68.1 L-0.35 -68.1 Q-1.4 -82.7 2.0 -91.5 L2.05 -93.3 M2.2 -91.85 Q2.0 -89.95 2.0 -91.5 2.0 -89.95 2.2 -91.85" fill="#0f1923" fill-rule="evenodd" stroke="none"/>
    <path d="M1.5 -68.1 L1.4 -65.9 2.35 -65.9 2.5 -66.1 Q2.8 -66.4 3.3 -66.4 L4.1 -66.1 4.45 -65.25 4.1 -64.45 Q3.75 -64.1 3.3 -64.1 2.8 -64.1 2.5 -64.45 L2.4 -64.5 1.1 -64.5 0.65 -63.45 0.65 -29.05 0.65 10.55 0.65 14.15 0.65 18.3 Q-0.1 19.6 -1.1 18.4 L-1.1 14.2 -1.1 10.55 -1.1 -29.2 -1.1 -63.45 -1.6 -64.5 -3.15 -64.5 -3.2 -64.45 Q-3.55 -64.1 -4.0 -64.1 -4.5 -64.1 -4.85 -64.45 -5.2 -64.8 -5.15 -65.25 -5.2 -65.75 -4.85 -66.1 L-4.0 -66.4 -3.2 -66.1 -3.05 -65.85 -2.0 -65.85 Q-2.25 -66.95 -2.15 -68.1 L-0.35 -68.1 1.5 -68.1 M2.35 -65.9 L2.15 -65.25 Q2.15 -64.85 2.4 -64.5 2.15 -64.85 2.15 -65.25 L2.35 -65.9 M-3.05 -65.85 L-2.85 -65.25 -3.15 -64.5 -2.85 -65.25 -3.05 -65.85 M-1.1 -63.45 L0.65 -63.45 -1.1 -63.45 M-1.1 -29.2 Q-0.3 -28.25 0.65 -29.05 -0.3 -28.25 -1.1 -29.2 M0.65 10.55 Q-0.7 11.0 -1.1 10.55 -0.7 11.0 0.65 10.55" fill="#cccccc" fill-rule="evenodd" stroke="none"/>
    <path d="M0.65 14.15 L1.05 14.4 Q1.4 14.55 1.85 15.55 2.25 16.55 2.25 18.25 2.15 19.95 1.85 20.7 1.5 21.4 0.85 21.65 L0.65 21.75 -0.2 21.9 -0.9 21.8 -1.1 21.75 Q-1.85 21.45 -2.3 20.55 -2.75 19.65 -2.75 18.05 -2.8 16.4 -2.3 15.45 -1.85 14.45 -1.1 14.2 L-1.1 18.4 Q-0.1 19.6 0.65 18.3 L0.65 14.15" fill="#adb56c" fill-rule="evenodd" stroke="none"/>
    <path d="M0.65 21.75 Q1.75 29.8 0.65 38.35 -0.25 40.0 -1.1 38.05 -2.35 28.9 -1.1 21.75 L-0.9 21.8 -0.2 21.9 0.65 21.75" fill="#0e171e" fill-rule="evenodd" stroke="none"/>
    <path d="M-2.15 -68.1 Q-6.8 -92.6 4.1 -105.9 2.2 -98.1 2.1 -96.15 L2.05 -93.85 2.05 -93.3 2.2 -91.85 Q2.75 -89.6 4.95 -88.0 1.9 -78.6 1.5 -68.1 M2.0 -91.5 L2.05 -93.3 M2.0 -91.5 Q2.0 -89.95 2.2 -91.85" fill="none" stroke="#0f1923" stroke-linecap="round" stroke-linejoin="round" stroke-width="0.05"/>
    <path d="M1.5 -68.1 L1.4 -65.9 2.35 -65.9 2.5 -66.1 Q2.8 -66.4 3.3 -66.4 L4.1 -66.1 4.45 -65.25 4.1 -64.45 Q3.75 -64.1 3.3 -64.1 2.8 -64.1 2.5 -64.45 L2.4 -64.5 1.1 -64.5 0.65 -63.45 0.65 -29.05 0.65 10.55 0.65 14.15 M-1.1 14.2 L-1.1 10.55 -1.1 -29.2 -1.1 -63.45 -1.6 -64.5 -3.15 -64.5 -3.2 -64.45 Q-3.55 -64.1 -4.0 -64.1 -4.5 -64.1 -4.85 -64.45 -5.2 -64.8 -5.15 -65.25 -5.2 -65.75 -4.85 -66.1 L-4.0 -66.4 -3.2 -66.1 -3.05 -65.85 -2.0 -65.85 Q-2.25 -66.95 -2.15 -68.1 L-0.35 -68.1 1.5 -68.1 M2.4 -64.5 Q2.15 -64.85 2.15 -65.25 L2.35 -65.9 M-3.15 -64.5 L-2.85 -65.25 -3.05 -65.85 M-1.1 10.55 Q-0.7 11.0 0.65 10.55 M0.65 -29.05 Q-0.3 -28.25 -1.1 -29.2 M0.65 -63.45 L-1.1 -63.45" fill="none" stroke="#666666" stroke-linecap="round" stroke-linejoin="round" stroke-width="0.05"/>
    <path d="M0.65 14.15 L1.05 14.4 Q1.4 14.55 1.85 15.55 2.25 16.55 2.25 18.25 2.15 19.95 1.85 20.7 1.5 21.4 0.85 21.65 L0.65 21.75 M-1.1 21.75 Q-1.85 21.45 -2.3 20.55 -2.75 19.65 -2.75 18.05 -2.8 16.4 -2.3 15.45 -1.85 14.45 -1.1 14.2 L-1.1 18.4 Q-0.1 19.6 0.65 18.3 L0.65 14.15" fill="none" stroke="#464725" stroke-linecap="round" stroke-linejoin="round" stroke-width="0.05"/>
    <path d="M0.65 21.75 Q1.75 29.8 0.65 38.35 -0.25 40.0 -1.1 38.05 -2.35 28.9 -1.1 21.75 L-0.9 21.8 -0.2 21.9 0.65 21.75" fill="none" stroke="#0e171e" stroke-linecap="round" stroke-linejoin="round" stroke-width="0.05"/>
  </g>
</svg>
