<?xml version="1.0" encoding="UTF-8" standalone="no"?>
<svg xmlns:xlink="http://www.w3.org/1999/xlink" height="12.25px" width="7.35px" xmlns="http://www.w3.org/2000/svg">
  <g transform="matrix(1.0, 0.0, 0.0, 1.0, 4.65, 0.75)">
    <path d="M-3.5 4.0 L-3.95 3.6 Q-4.85 2.65 -4.55 1.5 -4.25 0.55 -3.25 -0.05 -1.6 -0.9 1.35 -0.7 3.65 1.45 2.05 3.8 2.35 5.35 2.2 7.35 2.0 9.75 1.35 11.4 L-1.6 11.5 Q-4.0 6.8 -3.65 4.7 L-3.5 4.0 Q2.1 1.05 2.05 3.8 2.1 1.05 -3.5 4.0" fill="#b4c6c5" fill-rule="evenodd" stroke="none"/>
    <path d="M-3.5 4.0 L-3.95 3.6 Q-4.85 2.65 -4.55 1.5 -4.25 0.55 -3.25 -0.05 -1.6 -0.9 1.35 -0.7 3.65 1.45 2.05 3.8 2.1 1.05 -3.5 4.0" fill="none" stroke="#465457" stroke-linecap="round" stroke-linejoin="round" stroke-width="0.05"/>
    <path d="M2.05 3.8 Q2.35 5.35 2.2 7.35 2.0 9.75 1.35 11.4 L-1.6 11.5 Q-4.0 6.8 -3.65 4.7 L-3.5 4.0 Z" fill="none" stroke="#465457" stroke-linecap="round" stroke-linejoin="round" stroke-width="0.05"/>
  </g>
</svg>
