<?xml version="1.0" encoding="UTF-8" standalone="no"?>
<svg xmlns:xlink="http://www.w3.org/1999/xlink" height="23.45px" width="10.95px" xmlns="http://www.w3.org/2000/svg">
  <g transform="matrix(1.0, 0.0, 0.0, 1.0, 7.2, 1.15)">
    <path d="M-4.1 3.75 L-6.05 3.95 Q-5.35 1.45 -0.5 0.35 L-0.45 1.3 Q-1.25 3.25 -4.1 3.75" fill="#0e1a27" fill-rule="evenodd" stroke="none"/>
    <path d="M-4.1 3.75 Q-1.25 3.25 -0.45 1.3 1.2 -0.75 3.45 -1.15 4.1 0.4 3.4 5.7 2.7 10.95 -1.55 20.0 L-2.45 21.35 Q-3.25 22.1 -4.4 22.3 -5.45 21.4 -6.05 20.0 L-6.2 19.55 -6.4 18.2 -6.5 17.35 -6.75 14.7 -6.45 9.75 Q-6.15 5.95 -4.1 3.75 M-2.45 21.35 Q-1.85 18.3 -3.7 16.65 -5.65 17.65 -6.2 19.55 -5.65 17.65 -3.7 16.65 -1.85 18.3 -2.45 21.35" fill="#b4c6c5" fill-rule="evenodd" stroke="none"/>
    <path d="M-6.05 3.95 L-4.1 3.75 Q-6.15 5.95 -6.45 9.75 L-6.75 14.7 -7.1 10.85 Q-7.5 6.55 -6.45 4.0 L-6.05 3.95" fill="#6e8289" fill-rule="evenodd" stroke="none"/>
    <path d="M-6.05 3.95 L-4.1 3.75 Q-1.25 3.25 -0.45 1.3 L-0.5 0.35 Q-5.35 1.45 -6.05 3.95 L-6.45 4.0 Q-7.5 6.55 -7.1 10.85 L-6.75 14.7 -6.5 17.35 -6.4 18.2 -6.2 19.55 -6.05 20.0 Q-5.45 21.4 -4.4 22.3 -3.25 22.1 -2.45 21.35 L-1.55 20.0 Q2.7 10.95 3.4 5.7 4.1 0.4 3.45 -1.15 1.2 -0.75 -0.45 1.3" fill="none" stroke="#465457" stroke-linecap="round" stroke-linejoin="round" stroke-width="0.05"/>
    <path d="M-6.2 19.55 Q-5.65 17.65 -3.7 16.65 -1.85 18.3 -2.45 21.35" fill="none" stroke="#465457" stroke-linecap="round" stroke-linejoin="round" stroke-width="0.05"/>
  </g>
</svg>
