<?xml version="1.0" encoding="UTF-8" standalone="no"?>
<svg xmlns:xlink="http://www.w3.org/1999/xlink" height="16.7px" width="21.35px" xmlns="http://www.w3.org/2000/svg">
  <g transform="matrix(1.0, 0.0, 0.0, 1.0, 9.65, -0.25)">
    <path d="M1.35 7.8 L4.0 9.55 Q6.45 11.05 10.65 12.4 12.3 15.05 11.35 16.95 3.75 12.4 -1.25 9.15 L-4.05 10.45 -8.1 12.65 Q-10.35 10.4 -8.1 8.1 L-6.2 8.1 -5.35 7.75 -4.15 7.2 -5.6 6.15 -6.7 5.35 -8.75 4.1 Q-10.5 0.9 -8.85 0.25 L-5.35 3.05 -1.4 5.95 -0.55 5.5 2.7 3.75 Q4.85 2.5 8.4 1.2 10.5 2.45 9.3 5.35 5.75 5.45 1.35 7.8 L-1.25 9.15 1.35 7.8 M-4.15 7.2 L-1.4 5.95 -4.15 7.2" fill="#b4b071" fill-rule="evenodd" stroke="none"/>
    <path d="M1.35 7.8 L4.0 9.55 Q6.45 11.05 10.65 12.4 12.3 15.05 11.35 16.95 3.75 12.4 -1.25 9.15 L-4.05 10.45 -8.1 12.65 Q-10.35 10.4 -8.1 8.1 L-6.2 8.1 -5.35 7.75 -4.15 7.2 -5.6 6.15 -6.7 5.35 -8.75 4.1 Q-10.5 0.9 -8.85 0.25 L-5.35 3.05 -1.4 5.95 -0.55 5.5 2.7 3.75 Q4.85 2.5 8.4 1.2 10.5 2.45 9.3 5.35 5.75 5.45 1.35 7.8 L-1.25 9.15 M-1.4 5.95 L-4.15 7.2" fill="none" stroke="#674743" stroke-linecap="round" stroke-linejoin="round" stroke-width="0.05"/>
  </g>
</svg>
