<?xml version="1.0" encoding="UTF-8" standalone="no"?>
<svg xmlns:xlink="http://www.w3.org/1999/xlink" height="14.65px" width="9.75px" xmlns="http://www.w3.org/2000/svg">
  <g transform="matrix(1.0, 0.0, 0.0, 1.0, 4.75, 0.65)">
    <path d="M2.05 6.25 L2.3 1.9 2.3 1.85 5.0 7.1 2.05 6.45 2.05 6.25 M1.8 7.2 L2.3 8.05 3.3 10.55 1.2 9.8 1.25 9.6 1.25 9.5 Q1.45 8.3 1.8 7.2" fill="#404040" fill-rule="evenodd" stroke="none"/>
    <path d="M2.05 6.25 L2.3 1.9 2.3 1.85 M2.3 8.05 L3.3 10.55 1.2 9.8 1.25 9.6 1.25 9.5 Q1.45 8.3 1.8 7.2" fill="none" stroke="#301820" stroke-linecap="round" stroke-linejoin="round" stroke-width="0.05"/>
    <path d="M2.3 1.85 L5.0 7.1 2.05 6.45 2.05 6.25" fill="none" stroke="#301820" stroke-linecap="round" stroke-linejoin="round" stroke-width="0.05"/>
    <path d="M1.8 7.2 L2.3 8.05" fill="none" stroke="#303030" stroke-linecap="round" stroke-linejoin="round" stroke-width="0.05"/>
    <path d="M2.45 1.45 Q-1.35 2.55 -2.55 0.0 -0.95 -1.0 1.5 -0.4 2.25 0.15 2.45 1.45" fill="#404040" fill-rule="evenodd" stroke="none"/>
    <path d="M2.45 1.45 L2.5 1.65 2.4 3.8 2.0 6.9 1.0 13.8 Q0.35 14.25 -0.85 13.55 L-1.05 12.7 -1.35 11.55 -1.8 9.85 -2.65 7.15 Q-6.75 2.6 -2.75 0.15 L-2.55 0.0 Q-1.35 2.55 2.45 1.45" fill="#32686b" fill-rule="evenodd" stroke="none"/>
    <path d="M-2.55 0.0 L-2.75 0.15 Q-6.75 2.6 -2.65 7.15 L-1.8 9.85 -1.35 11.55 -1.05 12.7 -0.85 13.55 Q0.35 14.25 1.0 13.8 L2.0 6.9 2.4 3.8 2.5 1.65 2.45 1.45 Q-1.35 2.55 -2.55 0.0 -0.95 -1.0 1.5 -0.4 2.25 0.15 2.45 1.45" fill="none" stroke="#301820" stroke-linecap="round" stroke-linejoin="round" stroke-width="0.05"/>
  </g>
</svg>
