<?xml version="1.0" encoding="UTF-8" standalone="no"?>
<svg xmlns:xlink="http://www.w3.org/1999/xlink" height="11.1px" width="10.45px" xmlns="http://www.w3.org/2000/svg">
  <g transform="matrix(1.0, 0.0, 0.0, 1.0, 5.2, -0.25)">
    <path d="M-1.15 11.35 L-1.95 11.3 Q-5.15 7.9 -5.2 5.0 -4.1 1.8 -0.7 0.3 0.95 7.55 -1.15 11.35" fill="#664d77" fill-rule="evenodd" stroke="none"/>
    <path d="M-0.7 0.3 Q3.45 0.0 5.25 2.8 5.15 3.8 4.15 4.55 L4.05 5.55 3.95 6.2 3.2 8.45 Q2.65 9.8 1.35 11.25 L-0.45 11.35 -1.15 11.35 Q0.95 7.55 -0.7 0.3 M2.4 4.55 L4.15 4.55 2.4 4.55 M4.05 5.55 L2.8 5.55 4.05 5.55 M2.65 6.2 L3.95 6.2 2.65 6.2" fill="#85699f" fill-rule="evenodd" stroke="none"/>
    <path d="M-0.7 0.3 Q3.45 0.0 5.25 2.8 5.15 3.8 4.15 4.55 L4.05 5.55 3.95 6.2 3.2 8.45 Q2.65 9.8 1.35 11.25 L-0.45 11.35 -1.15 11.35 -1.95 11.3 Q-5.15 7.9 -5.2 5.0 -4.1 1.8 -0.7 0.3" fill="none" stroke="#1d3450" stroke-linecap="round" stroke-linejoin="round" stroke-width="0.05"/>
    <path d="M3.95 6.2 L2.65 6.2 M2.8 5.55 L4.05 5.55 M4.15 4.55 L2.4 4.55" fill="none" stroke="#303030" stroke-linecap="round" stroke-linejoin="round" stroke-width="0.05"/>
  </g>
</svg>
