<?xml version="1.0" encoding="UTF-8" standalone="no"?>
<svg xmlns:xlink="http://www.w3.org/1999/xlink" height="28.5px" width="11.75px" xmlns="http://www.w3.org/2000/svg">
  <g transform="matrix(1.0, 0.0, 0.0, 1.0, 5.85, 29.2)">
    <path d="M1.9 -14.35 L2.2 -13.6 1.9 -14.3 1.9 -14.35" fill="#6d6d9c" fill-rule="evenodd" stroke="none"/>
    <path d="M0.3 -28.85 L1.75 -27.95 2.45 -27.15 3.0 -25.8 Q3.8 -23.75 3.7 -21.3 L3.7 -21.25 Q3.55 -19.25 2.9 -16.95 L2.9 -16.75 2.4 -15.4 2.1 -14.7 1.9 -14.35 1.9 -14.3 Q1.4 -14.4 1.05 -14.65 L0.15 -15.7 -0.3 -16.8 -0.8 -19.35 -0.9 -22.2 Q-1.45 -21.95 -2.05 -20.55 L-2.05 -21.15 -2.15 -24.25 -2.15 -24.45 0.3 -28.85 M3.0 -25.8 Q1.45 -23.4 -0.9 -22.2 1.45 -23.4 3.0 -25.8" fill="#664d77" fill-rule="evenodd" stroke="none"/>
    <path d="M3.7 -21.3 L5.9 -14.9 2.9 -16.75 2.9 -16.95 Q3.55 -19.25 3.7 -21.25 L3.7 -21.3 M2.2 -13.6 L2.25 -13.35 3.3 -10.5 1.0 -11.8 1.0 -11.95 1.05 -12.05 Q1.4 -13.25 1.9 -14.3 L2.2 -13.6 M-4.15 -27.8 Q-3.5 -28.65 -2.45 -29.15 L-2.2 -29.2 0.3 -28.85 -2.15 -24.45 -2.15 -24.25 -4.15 -27.8" fill="#404040" fill-rule="evenodd" stroke="none"/>
    <path d="M-4.2 -15.65 L-4.25 -15.75 -4.4 -16.0 Q-6.5 -19.75 -5.6 -23.0 L-5.15 -24.55 -4.35 -27.35 -4.2 -27.75 -4.15 -27.8 -2.15 -24.25 -2.05 -21.15 -2.05 -20.55 Q-2.7 -21.9 -3.3 -22.35 L-3.4 -19.45 -3.6 -17.0 -3.95 -15.8 Q-4.05 -15.6 -4.2 -15.65 M-5.15 -24.55 Q-4.3 -23.2 -3.3 -22.35 -4.3 -23.2 -5.15 -24.55" fill="#85699f" fill-rule="evenodd" stroke="none"/>
    <path d="M1.0 -11.8 L0.85 -10.45 Q0.7 -9.15 0.8 -6.8 0.85 -4.45 2.15 -2.05 0.6 -1.1 -1.3 -0.7 L-1.45 -5.45 -1.6 -8.65 -1.8 -12.5 -1.85 -14.75 1.05 -14.65 -1.85 -14.75 -1.9 -15.75 -1.95 -16.9 -2.0 -19.4 -0.8 -19.35 -0.3 -16.8 0.15 -15.7 1.05 -14.65 Q1.4 -14.4 1.9 -14.3 1.4 -13.25 1.05 -12.05 L1.0 -11.95 1.0 -11.8 M-2.05 -20.55 Q-1.45 -21.95 -0.9 -22.2 L-0.8 -19.35 -2.0 -19.4 -2.05 -20.55 M-0.3 -16.8 L-1.95 -16.9 -0.3 -16.8" fill="#275252" fill-rule="evenodd" stroke="none"/>
    <path d="M-1.3 -0.7 Q-4.0 -1.25 -5.75 -2.75 -3.65 -4.85 -3.35 -7.35 L-2.95 -11.05 -3.1 -11.9 -3.3 -12.75 -3.8 -14.7 -4.2 -15.65 Q-4.05 -15.6 -3.95 -15.8 L-3.6 -17.0 -3.4 -19.45 -2.0 -19.4 -3.4 -19.45 -3.3 -22.35 Q-2.7 -21.9 -2.05 -20.55 L-2.0 -19.4 -1.95 -16.9 -1.9 -15.75 -1.85 -14.75 -1.8 -12.5 -1.6 -8.65 -1.45 -5.45 -1.3 -0.7 M-1.95 -16.9 L-3.6 -17.0 -1.95 -16.9 M-3.8 -14.7 L-1.85 -14.75 -3.8 -14.7" fill="#32686b" fill-rule="evenodd" stroke="none"/>
    <path d="M0.3 -28.85 L1.75 -27.95 2.45 -27.15 3.0 -25.8 Q3.8 -23.75 3.7 -21.3 L3.7 -21.25 Q3.55 -19.25 2.9 -16.95 M2.9 -16.75 L2.4 -15.4 2.1 -14.7 1.9 -14.35 1.9 -14.3 Q1.4 -13.25 1.05 -12.05 L1.0 -11.95 M1.0 -11.8 L0.85 -10.45 Q0.7 -9.15 0.8 -6.8 0.85 -4.45 2.15 -2.05 0.6 -1.1 -1.3 -0.7 -4.0 -1.25 -5.75 -2.75 -3.65 -4.85 -3.35 -7.35 L-2.95 -11.05 -3.1 -11.9 -3.3 -12.75 -3.8 -14.7 -4.2 -15.65 -4.25 -15.75 -4.4 -16.0 Q-6.5 -19.75 -5.6 -23.0 L-5.15 -24.55 -4.35 -27.35 -4.2 -27.75 -4.15 -27.8 Q-3.5 -28.65 -2.45 -29.15 L-2.2 -29.2 0.3 -28.85" fill="none" stroke="#301820" stroke-linecap="round" stroke-linejoin="round" stroke-width="0.05"/>
    <path d="M-2.05 -20.55 Q-1.45 -21.95 -0.9 -22.2 1.45 -23.4 3.0 -25.8 M-2.05 -20.55 Q-2.7 -21.9 -3.3 -22.35 -4.3 -23.2 -5.15 -24.55" fill="none" stroke="#3e3f59" stroke-linecap="round" stroke-linejoin="round" stroke-width="0.05"/>
    <path d="M0.3 -28.85 L-2.15 -24.45 M-0.9 -22.2 L-0.8 -19.35 -0.3 -16.8 0.15 -15.7 1.05 -14.65 Q1.4 -14.4 1.9 -14.3 M-3.4 -19.45 L-3.6 -17.0 -3.95 -15.8 Q-4.05 -15.6 -4.2 -15.65 M-3.3 -22.35 L-3.4 -19.45 M-4.15 -27.8 L-2.15 -24.25" fill="none" stroke="#303030" stroke-linecap="round" stroke-linejoin="round" stroke-width="0.05"/>
    <path d="M-2.0 -19.4 L-3.4 -19.45 M-3.6 -17.0 L-1.95 -16.9 M-1.85 -14.75 L-3.8 -14.7" fill="none" stroke="#275252" stroke-linecap="round" stroke-linejoin="round" stroke-width="0.05"/>
    <path d="M-2.0 -19.4 L-0.8 -19.35 M-1.95 -16.9 L-0.3 -16.8 M1.05 -14.65 L-1.85 -14.75" fill="none" stroke="#32686b" stroke-linecap="round" stroke-linejoin="round" stroke-width="0.05"/>
    <path d="M3.7 -21.3 L5.9 -14.9 2.9 -16.75 2.9 -16.95 M1.9 -14.35 L2.2 -13.6 2.25 -13.35 3.3 -10.5 1.0 -11.8 1.0 -11.95" fill="none" stroke="#301820" stroke-linecap="round" stroke-linejoin="round" stroke-width="0.05"/>
    <path d="M1.9 -14.3 L2.2 -13.6" fill="none" stroke="#303030" stroke-linecap="round" stroke-linejoin="round" stroke-width="0.05"/>
  </g>
</svg>
