<?xml version="1.0" encoding="UTF-8" standalone="no"?>
<svg xmlns:xlink="http://www.w3.org/1999/xlink" height="33.25px" width="26.45px" xmlns="http://www.w3.org/2000/svg">
  <g transform="matrix(1.0, 0.0, 0.0, 1.0, 13.55, 13.25)">
    <path d="M-8.2 4.35 L-8.4 4.4 -8.35 4.35 -8.2 4.35" fill="#643342" fill-rule="evenodd" stroke="none"/>
    <path d="M2.15 -12.3 L2.15 -12.35 2.2 -12.25 2.15 -12.3 M1.8 -4.55 L1.75 -4.5 1.75 -4.55 1.8 -4.55 M-0.25 5.6 L-0.25 5.7 -0.75 5.45 -0.25 5.6 M-8.4 4.4 L-8.4 4.35 -8.35 4.35 -8.4 4.4" fill="#294876" fill-rule="evenodd" stroke="none"/>
    <path d="M-7.6 -8.15 L-7.65 -8.25 -7.6 -8.25 -7.6 -8.15" fill="#1c334a" fill-rule="evenodd" stroke="none"/>
    <path d="M0.9 -12.95 Q0.3 -11.45 -1.1 -10.1 L-1.85 -9.45 -2.75 -8.35 Q-3.55 -7.85 -4.7 -7.45 L-6.55 -6.95 -7.25 -7.6 -7.6 -8.15 -7.6 -8.25 -8.25 -11.1 -8.25 -11.95 Q-6.4 -12.9 -4.95 -13.1 -5.65 -12.35 -5.95 -11.45 L-6.2 -10.55 -6.5 -7.95 -6.55 -6.95 -5.9 -7.8 -4.1 -10.05 -3.6 -10.8 Q-2.85 -12.0 -2.5 -13.25 L0.9 -12.95" fill="#783a32" fill-rule="evenodd" stroke="none"/>
    <path d="M6.95 -0.85 Q7.1 -2.5 7.75 -3.2 L8.9 -4.6 10.95 -4.35 10.95 -4.3 12.05 -3.35 12.4 -2.9 Q13.7 -0.95 11.45 4.1 7.9 4.85 6.95 1.7 L6.95 -0.85" fill="#0e1a27" fill-rule="evenodd" stroke="none"/>
    <path d="M-10.25 -5.45 L-10.25 -4.75 -10.05 -4.25 Q-11.85 -4.25 -13.25 -2.75 L-12.5 -5.1 Q-11.4 -6.7 -10.25 -6.8 L-10.25 -5.45 M2.65 -4.2 L7.55 -5.55 Q7.95 -5.75 8.9 -4.6 L7.75 -3.2 Q7.1 -2.5 6.95 -0.85 5.75 -3.4 2.65 -4.2" fill="#726790" fill-rule="evenodd" stroke="none"/>
    <path d="M-6.65 -2.15 L-3.75 -2.3 Q-4.85 1.2 -4.25 3.15 0.2 5.55 5.75 3.6 L5.15 4.2 4.45 4.7 4.4 4.7 Q3.4 5.25 2.1 5.45 L-0.25 5.6 -0.75 5.45 -0.85 5.45 -3.45 4.55 -5.15 4.25 -6.1 4.15 -7.75 4.25 -8.2 4.35 -8.35 4.35 -8.4 4.35 -9.6 4.2 -10.85 3.75 -11.75 3.2 -12.9 2.1 -13.1 1.6 Q-11.25 3.65 -6.55 2.5 L-6.55 2.45 Q-6.15 0.8 -6.65 -2.15 M-5.15 19.9 L-9.4 14.5 -9.3 12.9 -9.05 12.3 Q-8.4 11.75 -8.1 11.05 L-7.45 12.2 Q-6.5 15.25 -4.75 16.35 -5.55 16.1 -5.15 19.9" fill="#664d77" fill-rule="evenodd" stroke="none"/>
    <path d="M11.45 4.1 L10.8 5.5 10.7 5.6 9.15 6.5 6.9 13.8 Q7.3 14.7 6.95 15.4 L6.15 16.05 Q1.2 18.15 -1.5 19.95 L-1.6 20.0 -5.15 19.9 Q-5.55 16.1 -4.75 16.35 2.55 18.25 3.1 8.9 L2.35 7.85 2.0 7.5 1.1 6.6 -0.25 5.7 -0.25 5.6 2.1 5.45 Q3.4 5.25 4.4 4.7 L4.45 4.7 5.15 4.2 5.75 3.6 6.25 3.0 6.95 1.7 Q7.9 4.85 11.45 4.1 M-9.3 12.9 L-9.95 12.25 -11.2 4.35 -11.8 3.45 -12.9 2.1 -11.75 3.2 -10.85 3.75 -9.6 4.2 -8.4 4.35 -8.4 4.4 Q-9.75 7.1 -8.25 8.3 -9.05 9.3 -8.1 11.05 -8.4 11.75 -9.05 12.3 L-9.3 12.9 M6.9 13.8 Q5.1 13.05 4.45 11.95 L4.05 10.85 4.05 10.8 3.1 8.9 4.05 10.8 4.05 10.85 4.45 11.95 Q5.1 13.05 6.9 13.8" fill="#584569" fill-rule="evenodd" stroke="none"/>
    <path d="M-0.25 5.7 L1.1 6.6 2.0 7.5 1.4 8.55 Q1.35 10.5 0.45 12.5 -1.85 14.2 -4.8 13.85 L-5.0 12.25 -5.35 9.65 -5.3 6.7 -5.15 4.25 -3.45 4.55 -0.85 5.45 -0.75 5.45 -0.25 5.7 M1.4 8.55 Q0.0 10.2 -5.35 9.65 0.0 10.2 1.4 8.55" fill="#404040" fill-rule="evenodd" stroke="none"/>
    <path d="M-4.8 13.85 Q-6.3 13.45 -7.45 12.2 L-8.1 11.05 Q-9.05 9.3 -8.25 8.3 -9.75 7.1 -8.4 4.4 L-8.2 4.35 -7.75 4.25 -6.1 4.15 -5.15 4.25 -5.3 6.7 -5.35 9.65 Q-7.25 9.15 -8.25 8.3 -7.25 9.15 -5.35 9.65 L-5.0 12.25 -4.8 13.85" fill="#5a5a5a" fill-rule="evenodd" stroke="none"/>
    <path d="M2.15 -12.35 L2.15 -12.3 0.3 -10.4 -0.35 -9.9 -1.5 -9.15 -2.75 -8.35 -1.85 -9.45 -1.1 -10.1 Q0.3 -11.45 0.9 -12.95 L2.15 -12.35 M-8.95 -10.95 L-8.95 -11.05 -8.25 -11.95 -8.25 -11.1 -7.6 -8.25 -7.65 -8.25 -8.95 -10.95 M-4.95 -13.1 L-3.05 -13.25 -2.5 -13.25 Q-2.85 -12.0 -3.6 -10.8 L-4.1 -10.05 -5.9 -7.8 -6.55 -6.95 -6.5 -7.95 -6.2 -10.55 -5.95 -11.45 Q-5.65 -12.35 -4.95 -13.1" fill="#363636" fill-rule="evenodd" stroke="none"/>
    <path d="M2.0 7.5 L2.35 7.85 3.1 8.9 Q2.55 18.25 -4.75 16.35 -6.5 15.25 -7.45 12.2 -6.3 13.45 -4.8 13.85 -1.85 14.2 0.45 12.5 1.35 10.5 1.4 8.55 L2.0 7.5" fill="#120610" fill-rule="evenodd" stroke="none"/>
    <path d="M-2.75 -8.35 L-1.5 -9.15 -0.35 -9.9 0.3 -10.4 Q2.45 -8.65 1.95 -5.55 L1.85 -4.55 1.8 -4.55 1.75 -4.55 Q-8.1 -1.35 -10.25 -5.45 L-10.25 -6.8 -8.95 -10.95 -7.65 -8.25 -7.6 -8.15 -7.25 -7.6 -6.55 -6.95 -4.7 -7.45 Q-3.55 -7.85 -2.75 -8.35 M-2.25 -7.3 L-3.25 -6.65 -5.55 -5.25 Q-7.25 -4.35 -8.6 -8.1 -7.25 -4.35 -5.55 -5.25 L-3.25 -6.65 -2.25 -7.3" fill="#32686b" fill-rule="evenodd" stroke="none"/>
    <path d="M2.15 -12.3 L2.2 -12.25 Q4.45 -11.05 7.55 -5.55 L2.65 -4.2 2.4 -4.1 1.85 -3.85 Q-1.35 -2.7 -3.75 -2.3 L-6.65 -2.15 Q-9.25 -2.4 -10.05 -4.25 L-10.25 -4.75 -10.25 -5.45 Q-8.1 -1.35 1.75 -4.55 L1.75 -4.5 1.8 -4.55 1.85 -4.55 1.95 -5.55 Q2.45 -8.65 0.3 -10.4 L2.15 -12.3" fill="#275252" fill-rule="evenodd" stroke="none"/>
    <path d="M-10.05 -4.25 Q-9.25 -2.4 -6.65 -2.15 -6.15 0.8 -6.55 2.45 L-6.55 2.5 Q-11.25 3.65 -13.1 1.6 -13.9 -0.2 -13.25 -2.75 -11.85 -4.25 -10.05 -4.25 M-3.75 -2.3 Q-1.35 -2.7 1.85 -3.85 L2.4 -4.1 2.65 -4.2 Q5.75 -3.4 6.95 -0.85 L6.95 1.7 6.25 3.0 5.75 3.6 Q0.2 5.55 -4.25 3.15 -4.85 1.2 -3.75 -2.3" fill="#85699f" fill-rule="evenodd" stroke="none"/>
    <path d="M2.2 -12.25 L2.15 -12.35 M9.15 6.5 L6.9 13.8 Q7.3 14.7 6.95 15.4 L6.15 16.05 Q1.2 18.15 -1.5 19.95 M2.35 7.85 L3.1 8.9 4.05 10.8 4.05 10.85 4.45 11.95 Q5.1 13.05 6.9 13.8" fill="none" stroke="#372c4e" stroke-linecap="round" stroke-linejoin="round" stroke-width="0.05"/>
    <path d="M8.9 -4.6 Q7.95 -5.75 7.55 -5.55 M10.95 -4.35 L10.95 -4.3 12.05 -3.35 12.4 -2.9 Q13.7 -0.95 11.45 4.1 L10.8 5.5 10.7 5.6 9.15 6.5 M-1.5 19.95 L-1.6 20.0 -5.15 19.9 -9.4 14.5 -9.3 12.9 -9.95 12.25 -11.2 4.35 -11.8 3.45 -12.9 2.1 -13.1 1.6 Q-13.9 -0.2 -13.25 -2.75 L-12.5 -5.1 Q-11.4 -6.7 -10.25 -6.8 M2.65 -4.2 Q5.75 -3.4 6.95 -0.85 M6.95 1.7 Q7.9 4.85 11.45 4.1 M-0.25 5.7 L1.1 6.6 2.0 7.5 2.35 7.85 M2.0 7.5 L1.4 8.55 Q1.35 10.5 0.45 12.5 -1.85 14.2 -4.8 13.85 -6.3 13.45 -7.45 12.2 -6.5 15.25 -4.75 16.35 2.55 18.25 3.1 8.9 M-10.05 -4.25 Q-11.85 -4.25 -13.25 -2.75 M-0.75 5.45 L-0.25 5.7 M-0.75 5.45 L-0.85 5.45 -3.45 4.55 -5.15 4.25 -6.1 4.15 -7.75 4.25 -8.2 4.35 -8.4 4.4 M-9.3 12.9 L-9.05 12.3 Q-8.4 11.75 -8.1 11.05" fill="none" stroke="#372c4e" stroke-linecap="round" stroke-linejoin="round" stroke-width="0.05"/>
    <path d="M-5.35 9.65 Q0.0 10.2 1.4 8.55 M-8.4 4.4 Q-9.75 7.1 -8.25 8.3 -7.25 9.15 -5.35 9.65 M-8.1 11.05 Q-9.05 9.3 -8.25 8.3 M-7.45 12.2 L-8.1 11.05" fill="none" stroke="#303030" stroke-linecap="round" stroke-linejoin="round" stroke-width="0.05"/>
    <path d="M2.15 -12.35 L0.9 -12.95 Q0.3 -11.45 -1.1 -10.1 L-1.85 -9.45 -2.75 -8.35 M-8.95 -10.95 L-8.95 -11.05 -8.25 -11.95 Q-6.4 -12.9 -4.95 -13.1 L-3.05 -13.25 -2.5 -13.25 0.9 -12.95 M-2.5 -13.25 Q-2.85 -12.0 -3.6 -10.8 L-4.1 -10.05 -5.9 -7.8 -6.55 -6.95 -6.5 -7.95 -6.2 -10.55 -5.95 -11.45 Q-5.65 -12.35 -4.95 -13.1 M-7.6 -8.25 L-8.25 -11.1 -8.25 -11.95 M-7.6 -8.15 L-7.6 -8.25" fill="none" stroke="#303030" stroke-linecap="round" stroke-linejoin="round" stroke-width="0.05"/>
    <path d="M-2.75 -8.35 L-1.5 -9.15 -0.35 -9.9 0.3 -10.4 M-10.25 -5.45 L-10.25 -4.75 -10.05 -4.25 Q-9.25 -2.4 -6.65 -2.15 L-3.75 -2.3 Q-1.35 -2.7 1.85 -3.85 L2.4 -4.1 2.65 -4.2 7.55 -5.55 Q4.45 -11.05 2.2 -12.25 M-10.25 -6.8 L-8.95 -10.95 -7.65 -8.25 -7.6 -8.15 -7.25 -7.6 -6.55 -6.95 -4.7 -7.45 Q-3.55 -7.85 -2.75 -8.35 M-10.25 -5.45 L-10.25 -6.8 M-8.6 -8.1 Q-7.25 -4.35 -5.55 -5.25 L-3.25 -6.65 -2.25 -7.3" fill="none" stroke="#301820" stroke-linecap="round" stroke-linejoin="round" stroke-width="0.05"/>
  </g>
</svg>
