<?xml version="1.0" encoding="UTF-8" standalone="no"?>
<svg xmlns:xlink="http://www.w3.org/1999/xlink" height="19.0px" width="17.45px" xmlns="http://www.w3.org/2000/svg">
  <g transform="matrix(1.0, 0.0, 0.0, 1.0, 8.85, 4.0)">
    <path d="M1.4 15.0 L1.0 15.0 Q-2.75 13.25 -5.35 4.65 -3.2 8.95 -1.4 8.95 -0.75 13.05 1.4 15.0" fill="#32686b" fill-rule="evenodd" stroke="none"/>
    <path d="M-5.35 4.65 Q-5.1 4.55 -4.95 3.85 L-4.8 2.15 Q-2.25 4.65 1.3 2.3 1.15 3.55 1.75 5.0 L1.0 6.65 Q-0.1 8.95 -1.4 8.95 -3.2 8.95 -5.35 4.65" fill="#387675" fill-rule="evenodd" stroke="none"/>
    <path d="M3.5 5.65 Q3.9 6.4 3.35 6.8 3.75 14.5 1.4 15.0 -0.75 13.05 -1.4 8.95 -0.1 8.95 1.0 6.65 L1.75 5.0 2.95 6.25 3.5 5.65" fill="#275252" fill-rule="evenodd" stroke="none"/>
    <path d="M8.15 -2.3 Q8.9 0.25 8.45 0.2 L3.5 5.65 2.95 6.25 1.75 5.0 Q3.3 2.55 4.95 0.8 L8.15 -2.3" fill="#584569" fill-rule="evenodd" stroke="none"/>
    <path d="M1.3 2.3 L4.25 -0.3 6.95 -3.7 Q7.65 -3.35 8.15 -2.3 L4.95 0.8 Q3.3 2.55 1.75 5.0 1.15 3.55 1.3 2.3 M-4.95 3.85 Q-5.45 2.75 -7.65 0.2 L-7.9 -0.3 -8.8 -1.5 Q-9.1 -3.15 -7.95 -4.0 L-6.5 -0.3 Q-5.7 1.2 -4.8 2.15 L-4.95 3.85" fill="#85699f" fill-rule="evenodd" stroke="none"/>
    <path d="M1.3 2.3 L4.25 -0.3 6.95 -3.7 Q7.65 -3.35 8.15 -2.3 8.9 0.25 8.45 0.2 L3.5 5.65 Q3.9 6.4 3.35 6.8 3.75 14.5 1.4 15.0 L1.0 15.0 Q-2.75 13.25 -5.35 4.65 -5.1 4.55 -4.95 3.85 -5.45 2.75 -7.65 0.2 L-7.9 -0.3 -8.8 -1.5 Q-9.1 -3.15 -7.95 -4.0 L-6.5 -0.3 Q-5.7 1.2 -4.8 2.15 -2.25 4.65 1.3 2.3 1.15 3.55 1.75 5.0 L2.95 6.25 3.5 5.65 M-4.95 3.85 L-4.8 2.15" fill="none" stroke="#301820" stroke-linecap="round" stroke-linejoin="round" stroke-width="0.05"/>
  </g>
</svg>
