<?xml version="1.0" encoding="UTF-8" standalone="no"?>
<svg xmlns:xlink="http://www.w3.org/1999/xlink" height="24.8px" width="18.8px" xmlns="http://www.w3.org/2000/svg">
  <g transform="matrix(1.0, 0.0, 0.0, 1.0, 10.45, 17.2)">
    <path d="M7.15 -1.7 L8.15 -0.15 7.85 0.2 5.8 -1.7 4.45 -2.5 Q3.35 -2.35 2.65 -1.75 L2.6 -1.7 1.85 -1.15 -0.3 0.5 Q-0.85 -2.6 0.55 -6.1 L0.6 -6.1 Q1.65 -5.85 2.6 -5.4 5.3 -4.2 7.15 -1.7 M-0.2 7.6 L-2.3 5.15 -3.45 1.85 -3.55 1.7 -3.2 1.35 -2.35 2.35 -1.9 4.1 -0.65 5.2 -0.7 3.45 -0.1 4.15 0.4 3.3 0.65 6.35 -0.2 7.6" fill="#8568a5" fill-rule="evenodd" stroke="none"/>
    <path d="M2.1 7.6 L-0.2 7.6 0.65 6.35 2.1 7.6 M-5.15 0.3 L-4.9 -0.65 Q-3.9 -3.5 -1.55 -5.05 L0.5 -6.1 0.55 -6.1 Q-0.85 -2.6 -0.3 0.5 L-1.85 -0.75 -2.7 -1.95 Q-3.3 -2.5 -4.35 -1.0 L-5.15 0.3" fill="#957eab" fill-rule="evenodd" stroke="none"/>
    <path d="M6.4 4.0 L6.4 5.15 2.1 7.6 0.65 6.35 0.4 3.3 1.45 4.35 2.15 3.25 3.15 4.9 4.35 4.05 4.45 3.95 6.4 4.0 M-3.55 1.7 L-5.15 0.3 -4.35 -1.0 Q-3.8 0.6 -3.0 0.75 -1.9 0.65 -1.85 -0.75 L-0.3 0.5 0.4 2.75 Q-0.9 2.35 -1.5 1.3 L-2.4 1.25 -2.35 2.35 -3.2 1.35 -3.55 1.7" fill="#664d77" fill-rule="evenodd" stroke="none"/>
    <path d="M7.85 0.2 L7.2 1.05 6.35 1.65 6.4 4.0 4.45 3.95 4.35 4.05 4.7 1.8 4.0 2.2 Q4.15 1.5 3.85 0.85 1.85 1.15 0.4 2.75 L-0.3 0.5 1.85 -1.15 Q3.15 0.5 4.35 0.1 5.75 -0.35 5.8 -1.7 L7.85 0.2" fill="#584569" fill-rule="evenodd" stroke="none"/>
    <path d="M0.4 2.75 Q1.85 1.15 3.85 0.85 4.15 1.5 4.0 2.2 L4.7 1.8 4.35 4.05 3.15 4.9 2.15 3.25 1.45 4.35 0.4 3.3 -0.1 4.15 -0.7 3.45 -0.65 5.2 -1.9 4.1 -2.35 2.35 -2.4 1.25 -1.5 1.3 Q-0.9 2.35 0.4 2.75" fill="#120610" fill-rule="evenodd" stroke="none"/>
    <path d="M1.85 -1.15 L2.6 -1.7 2.65 -1.75 Q3.35 -2.35 4.45 -2.5 L5.8 -1.7 Q5.75 -0.35 4.35 0.1 3.15 0.5 1.85 -1.15 M-4.35 -1.0 Q-3.3 -2.5 -2.7 -1.95 L-1.85 -0.75 Q-1.9 0.65 -3.0 0.75 -3.8 0.6 -4.35 -1.0" fill="#bbddff" fill-rule="evenodd" stroke="none"/>
    <path d="M3.0 -5.8 Q4.3 -7.35 5.2 -9.55 5.4 -11.15 4.55 -12.65 L0.85 -13.1 3.8 -13.75 1.3 -16.05 -2.2 -16.05 Q-0.45 -17.1 2.55 -17.2 L2.65 -17.15 Q7.2 -14.65 8.35 -10.0 L8.35 -9.95 8.35 -9.8 Q8.45 -6.05 6.7 -2.95 5.4 -4.9 3.0 -5.8 5.4 -4.9 6.7 -2.95 L6.75 -2.9 6.8 -2.85 7.15 -1.7 Q5.3 -4.2 2.6 -5.4 L3.0 -5.8 M-4.9 -0.65 L-4.8 -2.3 Q-9.1 -5.45 -10.3 -8.0 L-10.3 -8.1 Q-10.95 -10.8 -8.6 -15.85 -6.7 -16.7 -4.1 -16.35 -6.1 -16.15 -7.15 -15.0 L-7.15 -14.9 Q-7.85 -13.25 -7.9 -11.45 L-5.95 -11.45 -7.9 -10.25 -7.85 -10.0 Q-4.6 -6.05 -2.45 -5.25 L-1.55 -5.05 Q-3.9 -3.5 -4.9 -0.65 M-4.8 -2.3 Q-3.95 -4.55 -2.45 -5.25 -3.95 -4.55 -4.8 -2.3" fill="#404040" fill-rule="evenodd" stroke="none"/>
    <path d="M7.15 -1.7 L8.15 -0.15 7.85 0.2 7.2 1.05 6.35 1.65 6.4 4.0 6.4 5.15 2.1 7.6 -0.2 7.6 -2.3 5.15 -3.45 1.85 -3.55 1.7 -5.15 0.3 -4.9 -0.65 Q-3.9 -3.5 -1.55 -5.05 L0.5 -6.1 0.55 -6.1 0.6 -6.1 Q1.65 -5.85 2.6 -5.4 5.3 -4.2 7.15 -1.7 M1.85 -1.15 L2.6 -1.7 2.65 -1.75 Q3.35 -2.35 4.45 -2.5 L5.8 -1.7 7.85 0.2 M0.4 2.75 Q1.85 1.15 3.85 0.85 4.15 1.5 4.0 2.2 L4.7 1.8 4.35 4.05 4.45 3.95 M4.35 4.05 L3.15 4.9 2.15 3.25 1.45 4.35 0.4 3.3 -0.1 4.15 -0.7 3.45 -0.65 5.2 -1.9 4.1 -2.35 2.35 -2.4 1.25 -1.5 1.3 Q-0.9 2.35 0.4 2.75 M5.8 -1.7 Q5.75 -0.35 4.35 0.1 3.15 0.5 1.85 -1.15 L-0.3 0.5 -1.85 -0.75 -2.7 -1.95 Q-3.3 -2.5 -4.35 -1.0 -3.8 0.6 -3.0 0.75 -1.9 0.65 -1.85 -0.75 M-5.15 0.3 L-4.35 -1.0" fill="none" stroke="#372c4e" stroke-linecap="round" stroke-linejoin="round" stroke-width="0.05"/>
    <path d="M3.0 -5.8 Q5.4 -4.9 6.7 -2.95 M-2.45 -5.25 Q-3.95 -4.55 -4.8 -2.3" fill="none" stroke="#929292" stroke-linecap="round" stroke-linejoin="round" stroke-width="0.05"/>
    <path d="M6.7 -2.95 Q8.45 -6.05 8.35 -9.8 L8.35 -9.95 8.35 -10.0 Q7.2 -14.65 2.65 -17.15 L2.55 -17.2 Q-0.45 -17.1 -2.2 -16.05 L1.3 -16.05 3.8 -13.75 0.85 -13.1 4.55 -12.65 Q5.4 -11.15 5.2 -9.55 4.3 -7.35 3.0 -5.8 L2.6 -5.4 M6.7 -2.95 L6.75 -2.9 6.8 -2.85 7.15 -1.7 M-4.9 -0.65 L-4.8 -2.3 Q-9.1 -5.45 -10.3 -8.0 L-10.3 -8.1 Q-10.95 -10.8 -8.6 -15.85 -6.7 -16.7 -4.1 -16.35 -6.1 -16.15 -7.15 -15.0 L-7.15 -14.9 Q-7.85 -13.25 -7.9 -11.45 L-5.95 -11.45 -7.9 -10.25 -7.85 -10.0 Q-4.6 -6.05 -2.45 -5.25 L-1.55 -5.05" fill="none" stroke="#1b1b1b" stroke-linecap="round" stroke-linejoin="round" stroke-width="0.05"/>
    <path d="M0.0 -2.35 L-0.95 -2.5 -1.15 -3.2 -0.8 -3.75 0.25 -3.75 0.5 -2.9 0.0 -2.35 M0.2 -2.1 L0.75 -2.65 0.95 -2.05 0.25 -1.25 Q0.45 -1.8 0.2 -2.1 M-1.25 -1.35 L-1.8 -2.15 -1.3 -3.0 -1.1 -2.2 Q-1.45 -2.0 -1.25 -1.35" fill="#d3d301" fill-rule="evenodd" stroke="none"/>
  </g>
</svg>
