<?xml version="1.0" encoding="UTF-8" standalone="no"?>
<svg xmlns:xlink="http://www.w3.org/1999/xlink" height="7.5px" width="20.85px" xmlns="http://www.w3.org/2000/svg">
  <g transform="matrix(1.0, 0.0, 0.0, 1.0, 11.5, 2.4)">
    <path d="M5.95 2.8 L6.0 3.05 Q8.25 3.8 9.35 4.85 4.9 4.5 4.25 3.45 L5.95 2.8 M2.25 3.25 L1.5 4.05 -4.15 4.9 -11.5 5.1 -8.35 3.25 -6.5 2.4 -2.05 1.35 -0.75 0.55 -0.7 0.55 0.45 1.6 2.25 3.25 M-8.35 3.25 Q-4.5 3.75 -0.05 2.2 L0.45 1.6 -0.05 2.2 Q-4.5 3.75 -8.35 3.25" fill="#39689f" fill-rule="evenodd" stroke="none"/>
    <path d="M-0.7 0.55 Q1.0 -0.75 1.3 -2.4 L3.45 -2.1 3.55 -2.05 Q5.2 0.1 5.95 2.8 L4.25 3.45 4.05 2.3 Q4.0 1.4 2.25 3.25 L0.45 1.6 -0.7 0.55 M3.45 -2.1 L0.45 1.6 3.45 -2.1" fill="#294876" fill-rule="evenodd" stroke="none"/>
    <path d="M-0.7 0.55 Q1.0 -0.75 1.3 -2.4 L3.45 -2.1 3.55 -2.05 Q5.2 0.1 5.95 2.8 L6.0 3.05 Q8.25 3.8 9.35 4.85 4.9 4.5 4.25 3.45 L4.05 2.3 Q4.0 1.4 2.25 3.25 L1.5 4.05 -4.15 4.9 -11.5 5.1 -8.35 3.25 -6.5 2.4 -2.05 1.35 -0.75 0.55" fill="none" stroke="#301820" stroke-linecap="round" stroke-linejoin="round" stroke-width="0.05"/>
    <path d="M0.45 1.6 L3.45 -2.1 M0.45 1.6 L-0.05 2.2 Q-4.5 3.75 -8.35 3.25" fill="none" stroke="#3e3f59" stroke-linecap="round" stroke-linejoin="round" stroke-width="0.05"/>
  </g>
</svg>
