<?xml version="1.0" encoding="UTF-8" standalone="no"?>
<svg xmlns:xlink="http://www.w3.org/1999/xlink" height="34.3px" width="23.55px" xmlns="http://www.w3.org/2000/svg">
  <g transform="matrix(1.0, 0.0, 0.0, 1.0, 11.9, 16.55)">
    <path d="M-6.85 8.85 L-6.9 8.85 -6.95 8.7 -6.85 8.85" fill="#783d4a" fill-rule="evenodd" stroke="none"/>
    <path d="M-6.9 8.85 L-7.0 8.8 -6.95 8.7 -6.9 8.85 M1.6 -5.3 L1.7 -5.3 1.6 -5.25 1.6 -5.3 M-7.5 4.35 L-7.35 4.35 -7.5 4.4 -7.5 4.35" fill="#643342" fill-rule="evenodd" stroke="none"/>
    <path d="M4.75 -7.9 Q7.0 -8.2 8.65 -7.1 10.3 -6.05 9.95 -4.35 L9.9 -4.35 8.05 -4.6 Q7.05 -4.8 6.45 -5.15 5.85 -5.45 5.6 -5.9 L5.1 -5.15 4.5 -4.55 4.45 -4.55 Q3.6 -3.8 3.55 -2.25 2.65 -3.75 2.95 -5.15 L3.15 -5.9 3.2 -6.05 3.35 -6.35 4.3 -7.65 4.75 -7.9 M4.3 -7.65 L4.75 -7.35 4.95 -7.2 5.6 -5.9 4.95 -7.2 4.75 -7.35 4.3 -7.65 M-4.6 4.25 L-4.75 6.7 Q-4.85 9.75 -4.5 12.0 -4.2 13.9 -3.55 15.2 -5.85 15.25 -6.6 11.15 L-6.85 8.85 -6.95 8.7 -7.05 8.3 -7.6 5.6 -7.5 4.4 -7.35 4.35 -4.6 4.25" fill="#8786ae" fill-rule="evenodd" stroke="none"/>
    <path d="M2.85 8.9 Q2.55 10.55 1.85 11.7 L0.7 12.95 Q-0.5 13.9 -1.4 14.45 L-3.15 15.2 -3.55 15.2 Q-4.2 13.9 -4.5 12.0 -4.85 9.75 -4.75 6.7 L-4.6 4.25 Q-2.9 4.45 -0.7 5.45 L-0.65 5.45 -0.2 5.7 1.05 6.6 1.1 6.7 2.15 7.85 2.85 8.9" fill="#72729e" fill-rule="evenodd" stroke="none"/>
    <path d="M2.0 -15.4 L2.05 -15.3 2.65 -14.1 Q3.85 -11.5 4.75 -7.9 L4.3 -7.65 3.35 -6.35 3.0 -6.15 2.8 -6.0 2.7 -5.9 1.95 -5.45 1.7 -5.3 1.6 -5.3 1.8 -6.6 Q2.25 -10.55 0.3 -12.9 L2.0 -15.4 M10.35 4.1 L9.75 5.5 9.65 5.6 5.7 3.0 6.3 1.7 Q7.15 4.85 10.35 4.1 M8.25 6.5 L7.55 7.0 7.45 7.05 4.05 4.7 4.7 4.2 8.25 6.5 M5.85 8.1 L5.8 8.1 7.55 9.55 Q5.65 10.85 3.7 10.8 L2.85 8.9 2.15 7.85 1.1 6.7 1.05 6.6 -0.2 5.7 -0.65 5.45 -0.15 5.5 1.35 5.55 1.95 5.45 5.85 8.1 M-7.0 8.8 Q-8.95 8.4 -10.0 7.15 L-8.9 5.75 -9.1 5.45 -8.6 4.2 -7.5 4.35 -7.5 4.4 -7.6 5.6 -7.05 8.3 -6.95 8.7 -7.0 8.8 M-10.05 4.15 L-10.6 3.45 -11.55 2.1 -10.5 3.2 -9.75 3.75 -10.05 4.15 M1.55 -12.65 L2.65 -14.1 1.55 -12.65 M1.6 -5.2 L1.7 -4.4 1.4 -4.25 0.8 -3.9 -0.6 -3.2 -1.75 -2.75 -2.95 -2.4 -3.95 -2.2 Q-7.1 -1.95 -8.7 -4.7 L-9.15 -5.6 -9.15 -6.5 -8.85 -5.85 Q-8.35 -4.9 -7.65 -4.25 -6.45 -3.2 -4.75 -3.1 L-3.65 -3.15 -1.7 -3.65 -1.4 -3.75 Q-0.35 -4.15 0.8 -4.8 L1.3 -5.05 1.4 -5.15 1.6 -5.2" fill="#294876" fill-rule="evenodd" stroke="none"/>
    <path d="M1.7 -5.3 L1.95 -5.45 2.7 -5.9 2.8 -6.0 3.0 -6.15 3.35 -6.35 3.2 -6.05 3.15 -5.9 2.95 -5.15 2.3 -4.75 2.2 -4.7 1.7 -4.4 1.6 -5.2 1.6 -5.25 1.7 -5.3" fill="#234061" fill-rule="evenodd" stroke="none"/>
    <path d="M-8.0 -13.6 L-8.0 -13.7 -7.9 -13.95 -7.4 -14.85 -7.4 -13.75 -6.85 -10.2 -8.0 -13.6 M-4.4 -16.35 L-2.7 -16.55 -2.2 -16.55 Q-2.5 -14.9 -3.2 -13.4 L-3.65 -12.4 -5.25 -9.5 -5.85 -8.45 -5.8 -9.7 -5.5 -13.1 -5.3 -14.25 -4.4 -16.35 M0.85 -16.15 Q1.6 -15.9 2.0 -15.4 L0.3 -12.9 -0.25 -12.2 -1.3 -11.25 -2.45 -10.25 -1.6 -11.65 -0.95 -12.5 Q0.3 -14.2 0.85 -16.15" fill="#1c334a" fill-rule="evenodd" stroke="none"/>
    <path d="M-7.4 -14.85 L-7.25 -15.0 Q-6.35 -16.0 -4.4 -16.35 L-5.3 -14.25 -5.5 -13.1 -5.8 -9.7 -5.85 -8.45 -5.25 -9.5 -3.65 -12.4 -3.2 -13.4 Q-2.5 -14.9 -2.2 -16.55 L0.85 -16.15 Q0.3 -14.2 -0.95 -12.5 L-1.6 -11.65 -2.45 -10.25 Q-3.15 -9.55 -4.2 -9.05 -4.95 -8.7 -5.85 -8.45 L-6.45 -9.25 -6.8 -10.1 -6.85 -10.2 -7.4 -13.75 -7.4 -14.85" fill="#783a32" fill-rule="evenodd" stroke="none"/>
    <path d="M-11.6 1.95 L-11.65 1.75 -11.75 1.2 -11.8 0.9 -11.9 -1.1 -11.9 -1.3 -11.65 -3.05 -11.35 -4.3 Q-10.55 -6.4 -9.15 -7.2 L-9.15 -7.25 -8.0 -13.6 -6.85 -10.2 -6.8 -10.1 -6.45 -9.25 -5.85 -8.45 Q-4.95 -8.7 -4.2 -9.05 -3.15 -9.55 -2.45 -10.25 L-1.3 -11.25 -0.25 -12.2 0.3 -12.9 Q2.25 -10.55 1.8 -6.6 L1.6 -5.3 1.6 -5.25 1.6 -5.2 1.4 -5.15 1.3 -5.05 0.8 -4.8 Q-0.35 -4.15 -1.4 -3.75 L-1.7 -3.65 -3.65 -3.15 -4.75 -3.1 Q-6.45 -3.2 -7.65 -4.25 -8.35 -4.9 -8.85 -5.85 L-9.15 -6.5 -9.15 -5.6 -8.7 -4.7 Q-7.1 -1.95 -3.95 -2.2 L-2.95 -2.4 -1.75 -2.75 -0.6 -3.2 0.8 -3.9 1.4 -4.25 1.7 -4.4 2.2 -4.7 2.3 -4.75 2.95 -5.15 Q2.65 -3.75 3.55 -2.25 3.6 -3.8 4.45 -4.55 L4.5 -4.55 5.1 -5.15 5.6 -5.9 Q5.85 -5.45 6.45 -5.15 L6.3 -4.7 Q5.4 -1.3 6.3 1.7 L5.7 3.0 2.5 0.95 4.7 4.2 4.05 4.7 4.0 4.7 -0.25 1.9 1.95 5.45 1.35 5.55 -0.15 5.5 -0.65 5.45 -0.7 5.45 Q-2.9 4.45 -4.6 4.25 L-7.35 4.35 -7.5 4.35 -8.6 4.2 -7.85 1.0 -9.75 3.75 -10.5 3.2 -9.8 0.55 -11.6 1.95 M-2.0 -8.9 L-2.85 -8.05 -4.95 -6.25 Q-6.45 -5.05 -7.7 -9.85 -6.45 -5.05 -4.95 -6.25 L-2.85 -8.05 -2.0 -8.9 M-9.15 -7.2 L-9.15 -6.5 -9.15 -7.2" fill="#39689f" fill-rule="evenodd" stroke="none"/>
    <path d="M9.9 -4.35 L9.9 -4.3 10.9 -3.35 11.2 -2.9 Q12.4 -0.95 10.35 4.1 7.15 4.85 6.3 1.7 7.55 -1.2 8.0 -4.1 L8.05 -4.6 9.9 -4.35 M9.65 5.6 L8.25 6.5 4.7 4.2 5.7 3.0 9.65 5.6 M7.45 7.05 L5.85 8.1 1.95 5.45 Q3.1 5.25 4.0 4.7 L4.05 4.7 7.45 7.05 M3.7 10.8 L3.7 10.85 4.05 11.95 Q4.65 13.05 6.25 13.8 6.6 14.7 6.3 15.4 4.25 16.45 2.3 16.85 L0.1 17.35 -1.05 17.6 -2.45 17.75 -3.9 17.65 -4.65 17.55 Q-5.2 15.4 -3.55 15.2 L-3.15 15.2 -1.4 14.45 Q-0.5 13.9 0.7 12.95 L1.85 11.7 Q2.55 10.55 2.85 8.9 L3.7 10.8 M-9.1 5.45 L-10.05 4.15 -9.75 3.75 -8.6 4.2 -9.1 5.45" fill="#0e1a27" fill-rule="evenodd" stroke="none"/>
    <path d="M-4.65 17.55 Q-7.5 15.85 -8.4 14.5 -8.55 13.0 -8.1 12.3 -7.5 11.75 -7.2 10.9 -6.9 10.0 -6.9 8.85 L-6.85 8.85 -6.6 11.15 Q-5.85 15.25 -3.55 15.2 -5.2 15.4 -4.65 17.55 M-11.55 2.1 L-11.6 1.95 -9.8 0.55 -10.5 3.2 -11.55 2.1 M6.45 -5.15 Q7.05 -4.8 8.05 -4.6 L8.0 -4.1 Q7.55 -1.2 6.3 1.7 5.4 -1.3 6.3 -4.7 L6.45 -5.15 M1.95 5.45 L-0.25 1.9 4.0 4.7 Q3.1 5.25 1.95 5.45 M4.7 4.2 L2.5 0.95 5.7 3.0 4.7 4.2 M-8.6 4.2 L-9.75 3.75 -7.85 1.0 -8.6 4.2" fill="#21415f" fill-rule="evenodd" stroke="none"/>
    <path d="M5.8 8.1 L7.55 9.55 Q5.65 10.85 3.7 10.8 L3.7 10.85 4.05 11.95 Q4.65 13.05 6.25 13.8 6.6 14.7 6.3 15.4 4.25 16.45 2.3 16.85 M2.85 8.9 Q2.55 10.55 1.85 11.7 M2.85 8.9 L2.15 7.85 M3.7 10.8 L2.85 8.9" fill="none" stroke="#1d3450" stroke-linecap="round" stroke-linejoin="round" stroke-width="0.05"/>
    <path d="M2.0 -15.4 L2.05 -15.3 2.65 -14.1 Q3.85 -11.5 4.75 -7.9 M9.9 -4.35 L9.9 -4.3 10.9 -3.35 11.2 -2.9 Q12.4 -0.95 10.35 4.1 L9.75 5.5 9.65 5.6 8.25 6.5 7.55 7.0 M7.45 7.05 L5.85 8.1 5.8 8.1 M2.3 16.85 L0.1 17.35 -1.05 17.6 -2.45 17.75 -3.9 17.65 -4.65 17.55 Q-7.5 15.85 -8.4 14.5 -8.55 13.0 -8.1 12.3 -7.5 11.75 -7.2 10.9 -6.9 10.0 -6.9 8.85 L-7.0 8.8 Q-8.95 8.4 -10.0 7.15 M-8.9 5.75 L-9.1 5.45 -10.05 4.15 -10.6 3.45 -11.55 2.1 -11.6 1.95 -11.65 1.75 -11.75 1.2 -11.8 0.9 -11.9 -1.1 -11.9 -1.3 -11.65 -3.05 -11.35 -4.3 Q-10.55 -6.4 -9.15 -7.2 L-9.15 -7.25 -8.0 -13.6 -8.0 -13.7 -7.9 -13.95 -7.4 -14.85 -7.25 -15.0 Q-6.35 -16.0 -4.4 -16.35 L-2.7 -16.55 -2.2 -16.55 0.85 -16.15 Q1.6 -15.9 2.0 -15.4 M2.65 -14.1 L1.55 -12.65 M1.7 -4.4 L2.2 -4.7 2.3 -4.75 2.95 -5.15 M-9.15 -6.5 L-9.15 -5.6 -8.7 -4.7 Q-7.1 -1.95 -3.95 -2.2 L-2.95 -2.4 -1.75 -2.75 -0.6 -3.2 0.8 -3.9 1.4 -4.25 1.7 -4.4 M6.3 1.7 Q7.15 4.85 10.35 4.1 M6.45 -5.15 L6.3 -4.7 Q5.4 -1.3 6.3 1.7 M1.85 11.7 L0.7 12.95 Q-0.5 13.9 -1.4 14.45 L-3.15 15.2 -3.55 15.2 Q-5.85 15.25 -6.6 11.15 L-6.85 8.85 -6.95 8.7 -7.05 8.3 -7.6 5.6 -7.5 4.4 -7.35 4.35 -4.6 4.25 Q-2.9 4.45 -0.7 5.45 L-0.65 5.45 -0.2 5.7 1.05 6.6 1.1 6.7 2.15 7.85 M-6.9 8.85 L-6.95 8.7 M-4.4 -16.35 L-5.3 -14.25 -5.5 -13.1 -5.8 -9.7 -5.85 -8.45 -5.25 -9.5 -3.65 -12.4 -3.2 -13.4 Q-2.5 -14.9 -2.2 -16.55 M-7.4 -14.85 L-7.4 -13.75 -6.85 -10.2 -8.0 -13.6 M-6.8 -10.1 L-6.45 -9.25 -5.85 -8.45 Q-4.95 -8.7 -4.2 -9.05 -3.15 -9.55 -2.45 -10.25 L-1.6 -11.65 -0.95 -12.5 Q0.3 -14.2 0.85 -16.15 M-7.7 -9.85 Q-6.45 -5.05 -4.95 -6.25 L-2.85 -8.05 -2.0 -8.9 M0.3 -12.9 L-0.25 -12.2 -1.3 -11.25 -2.45 -10.25 M-9.15 -6.5 L-9.15 -7.2" fill="none" stroke="#1d3450" stroke-linecap="round" stroke-linejoin="round" stroke-width="0.05"/>
    <path d="M4.75 -7.9 Q7.0 -8.2 8.65 -7.1 10.3 -6.05 9.95 -4.35 L9.9 -4.35 8.05 -4.6 Q7.05 -4.8 6.45 -5.15 5.85 -5.45 5.6 -5.9 L4.95 -7.2 4.75 -7.35 4.3 -7.65 4.75 -7.9 M3.35 -6.35 L4.3 -7.65 M4.5 -4.55 L5.1 -5.15 5.6 -5.9 M3.35 -6.35 L3.2 -6.05" fill="none" stroke="#3e3f59" stroke-linecap="round" stroke-linejoin="round" stroke-width="0.05"/>
    <path d="M7.55 7.0 L7.45 7.05" fill="none" stroke="#00ff00" stroke-linecap="round" stroke-linejoin="round" stroke-width="0.05"/>
    <path d="M3.2 -6.05 L3.15 -5.9 2.95 -5.15 Q2.65 -3.75 3.55 -2.25 3.6 -3.8 4.45 -4.55" fill="none" stroke="#3e3f59" stroke-linecap="round" stroke-linejoin="round" stroke-width="0.05"/>
  </g>
</svg>
