<?xml version="1.0" encoding="UTF-8" standalone="no"?>
<svg xmlns:xlink="http://www.w3.org/1999/xlink" height="8.0px" width="4.75px" xmlns="http://www.w3.org/2000/svg">
  <g transform="matrix(1.0, 0.0, 0.0, 1.0, 2.35, 4.0)">
    <path d="M1.15 -0.7 L1.35 -0.9 1.5 -1.05 1.6 0.0 Q1.6 1.0 1.15 1.7 0.65 2.45 0.0 2.45 -0.6 2.45 -1.1 1.7 -1.6 1.0 -1.55 -0.05 -1.6 -1.05 -1.1 -1.75 L-0.45 -2.35 -0.5 -2.25 -0.65 -1.7 -0.3 -0.9 Q0.05 -0.55 0.55 -0.55 L1.15 -0.7" fill="#000000" fill-rule="evenodd" stroke="none"/>
    <path d="M1.15 -0.7 L0.55 -0.55 Q0.05 -0.55 -0.3 -0.9 L-0.65 -1.7 -0.5 -2.25 -0.45 -2.35 -1.1 -1.75 Q-1.6 -1.05 -1.55 -0.05 -1.6 1.0 -1.1 1.7 -0.6 2.45 0.0 2.45 0.65 2.45 1.15 1.7 1.6 1.0 1.6 0.0 L1.5 -1.05 1.35 -0.9 1.15 -0.7 M1.7 -2.85 Q2.4 -1.7 2.4 0.0 2.4 1.65 1.7 2.85 1.0 4.0 0.0 4.0 -1.0 4.0 -1.65 2.85 -2.35 1.65 -2.35 0.0 -2.35 -1.7 -1.65 -2.85 -1.0 -4.0 0.0 -4.0 1.0 -4.0 1.7 -2.85" fill="#aa7d48" fill-rule="evenodd" stroke="none"/>
    <path d="M-0.5 -0.7 L-0.85 -1.6 -0.5 -2.5 0.4 -2.85 Q0.95 -2.85 1.3 -2.5 1.7 -2.1 1.7 -1.6 1.7 -1.1 1.3 -0.7 0.95 -0.35 0.4 -0.3 -0.1 -0.35 -0.5 -0.7" fill="#ffffff" fill-rule="evenodd" stroke="none"/>
  </g>
</svg>
