<?xml version="1.0" encoding="UTF-8" standalone="no"?>
<svg xmlns:xlink="http://www.w3.org/1999/xlink" height="15.9px" width="13.5px" xmlns="http://www.w3.org/2000/svg">
  <g transform="matrix(1.0, 0.0, 0.0, 1.0, 6.75, 7.95)">
    <path d="M0.35 1.65 Q0.5 0.65 0.1 -0.65 7.2 -3.6 3.9 -6.95 L5.0 -5.95 Q6.85 -3.95 6.75 -1.1 6.65 1.5 1.85 4.1 L2.25 3.65 2.45 3.25 2.6 2.3 2.35 1.1 2.6 2.3 2.45 3.25 2.25 3.65 1.85 4.1 1.5 5.65 1.45 5.65 1.5 5.7 0.5 6.35 0.2 6.55 Q-1.75 7.65 -3.95 7.95 0.55 5.65 0.15 4.5 L-0.25 3.15 Q0.25 2.5 0.35 1.65 L0.5 1.4 0.35 1.65 M2.35 1.1 L2.25 0.9 Q1.95 0.35 1.5 0.35 1.1 0.35 0.75 0.9 L0.5 1.4 Q0.8 0.95 1.55 1.0 L2.35 1.1 M1.75 3.0 Q1.55 2.7 1.25 2.75 L1.2 2.75 Q1.1 1.6 1.55 1.0 1.1 1.6 1.2 2.75 L1.25 2.75 Q1.55 2.7 1.75 3.0" fill="#ffd0ae" fill-rule="evenodd" stroke="none"/>
    <path d="M3.9 -6.95 Q7.2 -3.6 0.1 -0.65 0.5 0.65 0.35 1.65 0.25 2.5 -0.25 3.15 L0.15 4.5 Q0.55 5.65 -3.95 7.95 L-4.0 7.95 -4.65 7.1 -5.1 6.4 -5.2 6.2 -5.2 6.1 -5.2 6.0 -5.45 5.65 -5.85 4.9 -6.75 3.45 Q-6.05 3.1 -5.95 2.5 L-5.95 0.8 -6.1 -0.75 -6.1 -1.1 Q-6.0 -3.95 -4.05 -5.95 -2.1 -7.95 0.55 -7.95 2.45 -7.95 3.9 -6.95 M0.5 1.4 L0.75 0.9 Q1.1 0.35 1.5 0.35 1.95 0.35 2.25 0.9 L2.35 1.1 1.55 1.0 Q0.8 0.95 0.5 1.4 M-3.5 5.7 L-5.2 6.1 -3.5 5.7 M-4.9 0.45 L-5.0 0.4 -5.1 0.9 -5.15 2.55 -4.85 2.9 -4.3 2.85 Q-4.6 0.7 -4.9 0.45" fill="#ffdfc8" fill-rule="evenodd" stroke="none"/>
    <path d="M0.35 1.65 L0.5 1.4 0.75 0.9 Q1.1 0.35 1.5 0.35 1.95 0.35 2.25 0.9 L2.35 1.1 2.6 2.3 2.45 3.25 2.25 3.65 1.85 4.1 Q6.65 1.5 6.75 -1.1 6.85 -3.95 5.0 -5.95 L3.9 -6.95 Q2.45 -7.95 0.55 -7.95 -2.1 -7.95 -4.05 -5.95 -6.0 -3.95 -6.1 -1.1 L-6.1 -0.75 -5.95 0.8 -5.95 2.5 Q-6.05 3.1 -6.75 3.45 L-5.85 4.9 -5.45 5.65 -5.2 6.0 -5.2 6.1 -3.5 5.7 M1.55 1.0 Q1.1 1.6 1.2 2.75 L1.25 2.75 Q1.55 2.7 1.75 3.0 M1.5 5.65 L1.85 4.1 M1.5 5.7 L1.5 5.65 M-3.95 7.95 Q-1.75 7.65 0.2 6.55 L0.5 6.35 1.5 5.7 M-4.9 0.45 L-5.0 0.4 -5.1 0.9 -5.15 2.55 -4.85 2.9 -4.3 2.85 Q-4.6 0.7 -4.9 0.45 M-5.2 6.1 L-5.2 6.2 -5.1 6.4 -4.65 7.1 -4.0 7.95 -3.95 7.95" fill="none" stroke="#d7995e" stroke-linecap="round" stroke-linejoin="round" stroke-width="0.05"/>
  </g>
</svg>
