<?xml version="1.0" encoding="UTF-8" standalone="no"?>
<svg xmlns:xlink="http://www.w3.org/1999/xlink" height="18.55px" width="125.5px" xmlns="http://www.w3.org/2000/svg">
  <g transform="matrix(1.0, 0.0, 0.0, 1.0, 62.6, 9.35)">
    <path d="M7.8 -1.1 L9.2 -2.05 Q7.6 -7.1 0.5 -7.6 L-0.2 -7.6 Q-7.35 -7.1 -8.95 -2.05 L-7.5 -1.1 -13.5 -1.1 -7.5 -1.1 -6.85 -1.1 -6.15 -0.65 -3.95 -0.65 -2.7 -1.45 -2.7 1.45 -3.65 0.75 -6.0 0.75 -6.85 1.45 -7.85 1.45 -13.4 1.45 -15.9 1.45 -15.9 -1.1 -13.5 -1.1 -11.5 -2.95 -12.8 -6.2 -8.85 -5.6 Q-6.05 -9.15 -0.2 -9.35 L0.5 -9.35 Q6.3 -9.15 9.1 -5.6 L13.05 -6.2 11.8 -2.95 13.8 -1.1 7.8 -1.1 13.8 -1.1 16.25 -1.1 16.25 1.45 13.7 1.45 8.15 1.45 7.1 1.45 6.25 0.75 3.9 0.75 3.0 1.45 3.0 -1.45 4.25 -0.65 6.4 -0.65 7.1 -1.1 7.8 -1.1 M35.15 -3.4 L36.35 -4.7 37.75 -2.9 39.2 -1.1 37.1 -1.1 39.2 -1.1 39.2 1.45 37.1 1.45 37.1 -1.1 35.15 -3.4 M55.1 -1.6 L57.1 -1.5 54.85 0.45 53.1 0.5 52.6 0.35 52.55 0.35 55.1 -1.6 M-56.8 -1.5 L-54.8 -1.6 -52.3 0.35 -52.8 0.5 -54.55 0.45 -56.8 -1.5 M-38.0 -2.3 L-36.1 -4.7 -34.95 -3.35 -36.8 -1.1 -36.8 1.45 -38.95 1.45 -38.95 -1.1 -38.0 -2.3 M7.1 1.45 L7.1 -1.1 7.1 1.45 M-38.95 -1.1 L-36.8 -1.1 -38.95 -1.1 M-6.85 1.45 L-6.85 -1.1 -6.85 1.45" fill="#dda166" fill-rule="evenodd" stroke="none"/>
    <path d="M-2.7 -1.45 Q-1.65 -2.55 -0.15 -2.6 1.75 -2.6 3.0 -1.45 L3.0 1.45 Q1.95 2.4 0.25 2.45 -1.45 2.5 -2.7 1.45 L-2.7 -1.45" fill="#75bd68" fill-rule="evenodd" stroke="none"/>
    <path d="M-7.5 -1.1 L-8.95 -2.05 Q-7.35 -7.1 -0.2 -7.6 L0.5 -7.6 Q7.6 -7.1 9.2 -2.05 L7.8 -1.1 Q6.65 -4.9 0.45 -5.85 L-0.2 -5.85 Q-6.4 -4.9 -7.5 -1.1 M-7.85 1.45 Q-6.75 5.35 -0.2 6.1 L0.45 6.1 Q7.0 5.35 8.15 1.45 L9.3 2.15 Q7.15 7.0 0.5 7.55 L-0.2 7.55 Q-6.9 7.0 -9.05 2.15 L-7.85 1.45" fill="#b85042" fill-rule="evenodd" stroke="none"/>
    <path d="M16.25 -1.1 L32.35 -1.1 32.35 1.45 16.25 1.45 16.25 -1.1 M-15.9 1.45 L-32.1 1.45 -32.1 -1.1 -15.9 -1.1 -15.9 1.45" fill="#3f488a" fill-rule="evenodd" stroke="none"/>
    <path d="M32.35 -1.1 L32.95 -1.1 35.15 -3.4 37.1 -1.1 32.95 -1.1 37.1 -1.1 37.1 1.45 32.9 1.45 32.35 1.45 32.35 -1.1 M37.75 -2.9 L39.9 -4.3 Q41.9 -2.6 44.25 -2.25 L55.1 -1.6 52.55 0.35 52.6 0.35 53.1 0.5 52.8 0.6 Q47.3 2.1 39.2 1.45 L39.2 -1.1 37.75 -2.9 M57.1 -1.5 L60.15 -1.35 Q61.5 -1.05 62.9 0.25 L54.85 0.45 57.1 -1.5 M-32.1 1.45 L-32.65 1.45 -36.8 1.45 -36.8 -1.1 -34.95 -3.35 -33.1 -1.1 -32.1 -1.1 -32.1 1.45 M-62.6 0.25 Q-61.25 -1.05 -59.85 -1.35 L-56.8 -1.5 -54.55 0.45 -62.6 0.25 M-54.8 -1.6 L-44.0 -2.25 Q-41.65 -2.6 -39.95 -3.95 L-38.0 -2.3 -38.95 -1.1 -38.95 1.45 Q-47.05 2.1 -52.55 0.6 L-52.8 0.5 -52.3 0.35 -54.8 -1.6 M39.2 -1.1 Q47.95 -0.9 52.55 0.35 47.95 -0.9 39.2 -1.1 M-33.1 -1.1 L-36.8 -1.1 -33.1 -1.1 M-38.95 -1.1 Q-47.7 -0.9 -52.3 0.35 -47.7 -0.9 -38.95 -1.1" fill="#ebebeb" fill-rule="evenodd" stroke="none"/>
    <path d="M62.9 0.25 Q62.6 1.55 60.1 2.15 L57.0 2.3 54.85 0.45 62.9 0.25 M54.75 2.4 L45.4 2.9 Q42.35 3.5 40.0 4.7 L37.75 3.3 39.2 1.45 Q47.3 2.1 52.8 0.6 L54.75 2.4 M35.1 3.85 L32.9 1.45 37.1 1.45 35.1 3.85 M-32.65 1.45 L-34.8 3.85 -36.8 1.45 -32.65 1.45 M-37.45 3.3 L-39.7 4.7 Q-42.1 3.5 -45.15 2.9 L-54.5 2.4 -52.55 0.6 Q-47.05 2.1 -38.95 1.45 L-37.45 3.3 M-56.75 2.3 L-59.8 2.15 Q-62.35 1.55 -62.6 0.25 L-54.55 0.45 -56.75 2.3" fill="#d5d5d5" fill-rule="evenodd" stroke="none"/>
    <path d="M57.0 2.3 L54.75 2.4 52.8 0.6 53.1 0.5 54.85 0.45 57.0 2.3 M37.75 3.3 L36.2 5.05 35.1 3.85 37.1 1.45 39.2 1.45 37.75 3.3 M13.7 1.45 L11.55 3.05 12.6 5.7 9.2 5.15 Q5.95 8.8 0.95 9.2 L-0.7 9.2 Q-5.7 8.8 -8.9 5.15 L-12.35 5.7 -11.3 3.05 -13.4 1.45 -7.85 1.45 -9.05 2.15 Q-6.9 7.0 -0.2 7.55 L0.5 7.55 Q7.15 7.0 9.3 2.15 L8.15 1.45 13.7 1.45 M-34.8 3.85 L-35.9 5.05 -37.45 3.3 -38.95 1.45 -36.8 1.45 -34.8 3.85 M-54.5 2.4 L-56.75 2.3 -54.55 0.45 -52.8 0.5 -52.55 0.6 -54.5 2.4" fill="#d7914d" fill-rule="evenodd" stroke="none"/>
    <path d="M32.35 -1.1 L32.95 -1.1 35.15 -3.4 36.35 -4.7 37.75 -2.9 39.9 -4.3 Q41.9 -2.6 44.25 -2.25 L55.1 -1.6 57.1 -1.5 60.15 -1.35 Q61.5 -1.05 62.9 0.25 62.6 1.55 60.1 2.15 L57.0 2.3 54.75 2.4 45.4 2.9 Q42.35 3.5 40.0 4.7 L37.75 3.3 36.2 5.05 35.1 3.85 32.9 1.45 32.35 1.45 M-32.1 1.45 L-32.65 1.45 -34.8 3.85 -35.9 5.05 -37.45 3.3 -39.7 4.7 Q-42.1 3.5 -45.15 2.9 L-54.5 2.4 -56.75 2.3 -59.8 2.15 Q-62.35 1.55 -62.6 0.25 -61.25 -1.05 -59.85 -1.35 L-56.8 -1.5 -54.8 -1.6 -44.0 -2.25 Q-41.65 -2.6 -39.95 -3.95 L-38.0 -2.3 -36.1 -4.7 -34.95 -3.35 -33.1 -1.1 -32.1 -1.1 M37.1 -1.1 L39.2 -1.1 37.75 -2.9 M32.95 -1.1 L37.1 -1.1 35.15 -3.4 M53.1 0.5 L54.85 0.45 57.1 -1.5 M52.8 0.6 L54.75 2.4 M52.8 0.6 L53.1 0.5 52.6 0.35 52.55 0.35 Q47.95 -0.9 39.2 -1.1 L39.2 1.45 Q47.3 2.1 52.8 0.6 M54.85 0.45 L57.0 2.3 M62.9 0.25 L54.85 0.45 M37.75 3.3 L39.2 1.45 37.1 1.45 35.1 3.85 M37.1 1.45 L32.9 1.45 M52.55 0.35 L55.1 -1.6 M37.1 -1.1 L37.1 1.45 M-38.95 -1.1 L-38.0 -2.3 M-36.8 -1.1 L-38.95 -1.1 -38.95 1.45 -36.8 1.45 -36.8 -1.1 -34.95 -3.35 M-36.8 -1.1 L-33.1 -1.1 M-37.45 3.3 L-38.95 1.45 Q-47.05 2.1 -52.55 0.6 L-54.5 2.4 M-34.8 3.85 L-36.8 1.45 -32.65 1.45 M-54.55 0.45 L-56.75 2.3 M-52.8 0.5 L-52.55 0.6 M-52.3 0.35 L-52.8 0.5 -54.55 0.45 -62.6 0.25 M-52.3 0.35 L-54.8 -1.6 M-52.3 0.35 Q-47.7 -0.9 -38.95 -1.1 M-54.55 0.45 L-56.8 -1.5" fill="none" stroke="#767676" stroke-linecap="round" stroke-linejoin="round" stroke-width="0.05"/>
    <path d="M16.25 -1.1 L32.35 -1.1 32.35 1.45 16.25 1.45 16.25 -1.1 M-15.9 1.45 L-32.1 1.45 -32.1 -1.1 -15.9 -1.1 -15.9 1.45" fill="none" stroke="#262e53" stroke-linecap="round" stroke-linejoin="round" stroke-width="0.05"/>
    <path d="M7.8 -1.1 L9.2 -2.05 Q7.6 -7.1 0.5 -7.6 L-0.2 -7.6 Q-7.35 -7.1 -8.95 -2.05 L-7.5 -1.1 Q-6.4 -4.9 -0.2 -5.85 L0.45 -5.85 Q6.65 -4.9 7.8 -1.1 L13.8 -1.1 11.8 -2.95 13.05 -6.2 9.1 -5.6 Q6.3 -9.15 0.5 -9.35 L-0.2 -9.35 Q-6.05 -9.15 -8.85 -5.6 L-12.8 -6.2 -11.5 -2.95 -13.5 -1.1 -7.5 -1.1 -6.85 -1.1 -6.15 -0.65 -3.95 -0.65 -2.7 -1.45 M3.0 -1.45 L4.25 -0.65 6.4 -0.65 7.1 -1.1 7.8 -1.1 M13.8 -1.1 L16.25 -1.1 M16.25 1.45 L13.7 1.45 11.55 3.05 12.6 5.7 9.2 5.15 Q5.95 8.8 0.95 9.2 L-0.7 9.2 Q-5.7 8.8 -8.9 5.15 L-12.35 5.7 -11.3 3.05 -13.4 1.45 -15.9 1.45 M-15.9 -1.1 L-13.5 -1.1 M8.15 1.45 L7.1 1.45 6.25 0.75 3.9 0.75 3.0 1.45 M-2.7 1.45 L-3.65 0.75 -6.0 0.75 -6.85 1.45 -7.85 1.45 Q-6.75 5.35 -0.2 6.1 L0.45 6.1 Q7.0 5.35 8.15 1.45 L13.7 1.45 M8.15 1.45 L9.3 2.15 Q7.15 7.0 0.5 7.55 L-0.2 7.55 Q-6.9 7.0 -9.05 2.15 L-7.85 1.45 -13.4 1.45 M7.1 -1.1 L7.1 1.45 M-6.85 -1.1 L-6.85 1.45" fill="none" stroke="#895421" stroke-linecap="round" stroke-linejoin="round" stroke-width="0.05"/>
    <path d="M-2.7 -1.45 Q-1.65 -2.55 -0.15 -2.6 1.75 -2.6 3.0 -1.45 L3.0 1.45 Q1.95 2.4 0.25 2.45 -1.45 2.5 -2.7 1.45 L-2.7 -1.45" fill="none" stroke="#427133" stroke-linecap="round" stroke-linejoin="round" stroke-width="0.05"/>
  </g>
</svg>
