<?xml version="1.0" encoding="UTF-8" standalone="no"?>
<svg xmlns:xlink="http://www.w3.org/1999/xlink" height="8.0px" width="8.65px" xmlns="http://www.w3.org/2000/svg">
  <g transform="matrix(1.0, 0.0, 0.0, 1.0, 4.8, -0.4)">
    <path d="M-4.35 4.25 L-1.15 4.85 1.85 7.9 -0.9 8.4 Q0.35 7.8 -1.9 5.95 -3.0 6.05 -3.2 6.95 L-4.8 5.65 -4.35 4.25" fill="#f2f2f2" fill-rule="evenodd" stroke="none"/>
    <path d="M-4.35 4.25 L-2.65 1.2 Q-0.15 0.05 1.5 0.55 2.95 0.35 3.85 2.4 L3.85 5.6 1.85 7.9 -1.15 4.85 -4.35 4.25" fill="#ffffff" fill-rule="evenodd" stroke="none"/>
    <path d="M1.85 7.9 L3.85 5.6 3.85 2.4 Q2.95 0.35 1.5 0.55 -0.15 0.05 -2.65 1.2 L-4.35 4.25 -4.8 5.65 -3.2 6.95 Q-3.0 6.05 -1.9 5.95 0.35 7.8 -0.9 8.4 L1.85 7.9 Z" fill="none" stroke="#a0a0a0" stroke-linecap="round" stroke-linejoin="round" stroke-width="0.05"/>
  </g>
</svg>
