<?xml version="1.0" encoding="UTF-8" standalone="no"?>
<svg xmlns:xlink="http://www.w3.org/1999/xlink" height="13.4px" width="13.1px" xmlns="http://www.w3.org/2000/svg">
  <g transform="matrix(1.0, 0.0, 0.0, 1.0, 4.4, 5.15)">
    <path d="M-3.9 -2.25 Q-3.25 -3.45 -2.0 -4.2 -0.8 -4.95 0.6 -5.15 L2.3 -5.15 Q5.9 -4.5 8.1 -2.25 L7.0 -2.45 Q6.2 -2.5 5.65 -1.8 L5.6 -1.8 4.35 -0.6 2.45 -3.75 -0.1 -0.9 0.2 0.45 0.65 0.85 0.7 1.15 -1.15 0.0 -1.15 1.15 -0.9 3.7 -0.95 3.7 -0.85 4.95 0.45 7.0 1.1 6.95 1.15 6.95 1.25 8.25 0.35 8.05 -0.7 5.8 Q-2.6 3.6 -3.5 0.1 L-3.85 -1.4 Q-4.1 -2.0 -3.3 -1.85 L-3.25 -1.8 -3.25 -1.85 Q-3.5 -2.35 -3.9 -2.25 M-0.9 -2.35 L-1.85 -0.7 -3.25 -1.8 -1.85 -0.7 -0.9 -2.35" fill="#b6ada8" fill-rule="evenodd" stroke="none"/>
    <path d="M0.65 0.85 L1.0 0.4 0.65 0.85 4.35 -0.6 5.6 -1.8 5.65 -1.8 Q7.4 -2.25 8.05 -1.2 8.0 -0.1 7.05 1.35 6.05 3.9 3.8 5.6 L2.15 8.2 1.25 8.25 1.15 6.95 2.35 6.9 3.5 5.05 3.45 3.95 3.25 1.4 3.3 0.5 3.25 0.0 1.5 0.75 1.45 0.75 0.7 1.15 0.65 0.85 M3.3 0.5 L3.4 0.5 3.3 0.5" fill="#8a7c75" fill-rule="evenodd" stroke="none"/>
    <path d="M2.45 -3.75 L4.35 -0.6 0.65 0.85 1.0 0.4 0.65 0.85 0.2 0.45 -0.1 -0.9 2.45 -3.75" fill="#a89d99" fill-rule="evenodd" stroke="none"/>
    <path d="M-3.9 -2.25 Q-3.5 -2.35 -3.25 -1.85 L-3.3 -1.85 Q-4.1 -2.0 -3.85 -1.4 -4.9 -1.85 -3.95 -2.25 L-3.9 -2.25 M5.65 -1.8 Q6.2 -2.5 7.0 -2.45 L8.1 -2.25 Q9.35 -1.5 8.05 -1.2 7.4 -2.25 5.65 -1.8" fill="#503832" fill-rule="evenodd" stroke="none"/>
    <path d="M0.7 1.15 L0.7 2.35 0.1 1.35 0.1 2.3 -1.15 1.15 -1.15 0.0 0.7 1.15 M-0.95 3.7 L0.3 5.55 0.2 4.35 0.2 4.45 1.0 5.5 1.1 6.95 0.45 7.0 -0.85 4.95 -0.95 3.7" fill="#cac2bf" fill-rule="evenodd" stroke="none"/>
    <path d="M3.3 0.5 L3.25 1.4 1.95 2.3 1.95 1.2 0.7 2.35 0.7 1.15 1.45 0.75 1.5 0.75 3.25 0.0 3.3 0.5 3.2 0.55 3.3 0.5 M3.45 3.95 L3.5 5.05 2.35 6.9 1.15 6.95 1.1 6.95 1.0 5.5 2.1 4.05 2.15 5.3 3.45 3.95" fill="#9b8e88" fill-rule="evenodd" stroke="none"/>
    <path d="M3.25 1.4 L3.45 3.95 2.15 5.3 2.1 4.05 1.0 5.5 0.2 4.45 0.2 4.35 0.3 5.55 -0.95 3.7 -0.9 3.7 -1.15 1.15 0.1 2.3 0.1 1.35 0.7 2.35 1.95 1.2 1.95 2.3 3.25 1.4" fill="#363636" fill-rule="evenodd" stroke="none"/>
    <path d="M8.1 -2.25 Q5.9 -4.5 2.3 -5.15 L0.6 -5.15 Q-0.8 -4.95 -2.0 -4.2 -3.25 -3.45 -3.9 -2.25 -3.5 -2.35 -3.25 -1.85 L-3.25 -1.8 -1.85 -0.7 -0.9 -2.35 M4.35 -0.6 L2.45 -3.75 M4.35 -0.6 L5.6 -1.8 5.65 -1.8 Q6.2 -2.5 7.0 -2.45 L8.1 -2.25 Q9.35 -1.5 8.05 -1.2 8.0 -0.1 7.05 1.35 6.05 3.9 3.8 5.6 L2.15 8.2 1.25 8.25 0.35 8.05 -0.7 5.8 Q-2.6 3.6 -3.5 0.1 L-3.85 -1.4 Q-4.9 -1.85 -3.95 -2.25 M5.65 -1.8 Q7.4 -2.25 8.05 -1.2 M0.7 2.35 L1.95 1.2 1.95 2.3 3.25 1.4 M-1.15 1.15 L0.1 2.3 0.1 1.35 0.7 2.35 M-3.3 -1.85 L-3.25 -1.85 M-3.85 -1.4 Q-4.1 -2.0 -3.3 -1.85" fill="none" stroke="#333333" stroke-linecap="round" stroke-linejoin="round" stroke-width="0.05"/>
  </g>
</svg>
