<?xml version="1.0" encoding="UTF-8" standalone="no"?>
<svg xmlns:xlink="http://www.w3.org/1999/xlink" height="22.35px" width="7.75px" xmlns="http://www.w3.org/2000/svg">
  <g transform="matrix(1.0, 0.0, 0.0, 1.0, 2.6, 22.4)">
    <path d="M4.95 -0.95 L5.15 -0.55 4.9 -0.2 4.6 -0.1 4.3 -0.05 3.75 -0.2 3.5 -0.45 4.75 -1.05 4.95 -0.95" fill="#65649d" fill-rule="evenodd" stroke="none"/>
    <path d="M4.95 -0.95 L5.15 -0.55 4.9 -0.2 4.6 -0.1 4.3 -0.05 3.75 -0.2 3.5 -0.45 4.75 -1.05 4.95 -0.95 Z" fill="none" stroke="#333333" stroke-linecap="round" stroke-linejoin="round" stroke-width="0.05"/>
    <path d="M-2.25 -0.95 L-1.9 -1.1 -0.8 -0.55 -1.0 -0.2 -1.55 -0.05 -1.9 -0.1 -2.15 -0.2 -2.45 -0.6 -2.25 -0.95" fill="#65649d" fill-rule="evenodd" stroke="none"/>
    <path d="M-2.25 -0.95 L-2.45 -0.6 -2.15 -0.2 -1.9 -0.1 -1.55 -0.05 -1.0 -0.2 -0.8 -0.55 -1.9 -1.1 -2.25 -0.95 Z" fill="none" stroke="#333333" stroke-linecap="round" stroke-linejoin="round" stroke-width="0.05"/>
    <path d="M1.8 -22.4 L-0.3 -15.15 2.75 -3.95 0.1 -0.9 -1.85 -14.4 1.8 -22.4" fill="#665c3e" fill-rule="evenodd" stroke="none"/>
    <path d="M0.1 -0.9 L-1.7 -4.0 -1.7 -4.1 -2.6 -14.85 1.8 -22.4 -1.85 -14.4 0.1 -0.9" fill="#877c51" fill-rule="evenodd" stroke="none"/>
    <path d="M1.8 -22.4 L-0.3 -15.15 2.75 -3.95 0.1 -0.9 -1.7 -4.0 -1.7 -4.1 -2.6 -14.85 1.8 -22.4 Z" fill="none" stroke="#333333" stroke-linecap="round" stroke-linejoin="round" stroke-width="0.05"/>
  </g>
</svg>
