<?xml version="1.0" encoding="UTF-8" standalone="no"?>
<svg xmlns:xlink="http://www.w3.org/1999/xlink" height="14.35px" width="13.1px" xmlns="http://www.w3.org/2000/svg">
  <g transform="matrix(1.0, 0.0, 0.0, 1.0, 4.4, 5.15)">
    <path d="M-3.9 -2.25 Q-3.25 -3.45 -2.0 -4.2 -0.8 -4.95 0.6 -5.15 L2.3 -5.15 Q5.9 -4.5 8.1 -2.25 L7.0 -2.45 Q6.2 -2.5 5.65 -1.8 L5.6 -1.8 4.35 -0.6 2.45 -3.75 -0.1 -0.9 0.2 0.45 0.65 0.85 0.7 1.15 -1.15 0.0 -1.15 1.15 -1.0 2.5 -2.7 2.45 -3.5 0.1 -3.85 -1.4 Q-4.1 -2.0 -3.3 -1.85 L-3.25 -1.8 -3.25 -1.85 Q-3.5 -2.35 -3.9 -2.25 M-0.9 -2.35 L-1.85 -0.7 -3.25 -1.8 -1.85 -0.7 -0.9 -2.35 M1.1 7.8 L1.15 7.8 1.25 9.2 0.35 9.05 -2.7 2.45 -1.0 2.5 -0.9 4.25 -0.95 4.25 -0.85 5.6 0.45 7.85 1.1 7.8" fill="#b6ada8" fill-rule="evenodd" stroke="none"/>
    <path d="M2.45 -3.75 L4.35 -0.6 0.65 0.85 1.0 0.4 0.65 0.85 0.2 0.45 -0.1 -0.9 2.45 -3.75" fill="#a89d99" fill-rule="evenodd" stroke="none"/>
    <path d="M0.65 0.85 L1.0 0.4 0.65 0.85 4.35 -0.6 5.6 -1.8 5.65 -1.8 Q7.4 -2.25 8.05 -1.2 8.0 -0.1 7.05 1.35 L6.4 2.75 3.35 2.65 3.25 1.4 3.3 0.5 3.25 0.0 1.5 0.75 1.45 0.75 0.7 1.15 0.65 0.85 M3.3 0.5 L3.4 0.5 3.3 0.5 M1.15 7.8 L2.35 7.75 3.5 5.7 3.45 4.55 3.35 2.65 6.4 2.75 Q5.4 5.0 3.8 6.35 L2.15 9.2 1.25 9.2 1.15 7.8" fill="#8a7c75" fill-rule="evenodd" stroke="none"/>
    <path d="M-3.9 -2.25 Q-3.5 -2.35 -3.25 -1.85 L-3.3 -1.85 Q-4.1 -2.0 -3.85 -1.4 -4.9 -1.85 -3.95 -2.25 L-3.9 -2.25 M5.65 -1.8 Q6.2 -2.5 7.0 -2.45 L8.1 -2.25 Q9.35 -1.5 8.05 -1.2 7.4 -2.25 5.65 -1.8" fill="#503832" fill-rule="evenodd" stroke="none"/>
    <path d="M3.3 0.5 L3.25 1.4 1.95 2.3 1.95 1.2 0.7 2.35 0.7 1.15 1.45 0.75 1.5 0.75 3.25 0.0 3.3 0.5 3.2 0.55 3.3 0.5 M1.0 6.25 L2.1 4.65 2.15 6.0 3.45 4.55 3.5 5.7 2.35 7.75 1.15 7.8 1.1 7.8 1.0 6.25" fill="#9b8e88" fill-rule="evenodd" stroke="none"/>
    <path d="M0.7 2.35 L0.1 1.35 0.1 2.3 -1.15 1.15 -1.15 0.0 0.7 1.15 0.7 2.35 M1.0 6.25 L1.1 7.8 0.45 7.85 -0.85 5.6 -0.95 4.25 0.3 6.25 0.2 5.0 0.2 5.05 1.0 6.25" fill="#cac2bf" fill-rule="evenodd" stroke="none"/>
    <path d="M3.35 2.65 L-1.0 2.5 -1.15 1.15 0.1 2.3 0.1 1.35 0.7 2.35 1.95 1.2 1.95 2.3 3.25 1.4 3.35 2.65 3.45 4.55 2.15 6.0 2.1 4.65 1.0 6.25 0.2 5.05 0.2 5.0 0.3 6.25 -0.95 4.25 -0.9 4.25 -1.0 2.5 3.35 2.65" fill="#363636" fill-rule="evenodd" stroke="none"/>
    <path d="M8.1 -2.25 Q5.9 -4.5 2.3 -5.15 L0.6 -5.15 Q-0.8 -4.95 -2.0 -4.2 -3.25 -3.45 -3.9 -2.25 -3.5 -2.35 -3.25 -1.85 L-3.25 -1.8 -1.85 -0.7 -0.9 -2.35 M4.35 -0.6 L2.45 -3.75 M4.35 -0.6 L5.6 -1.8 5.65 -1.8 Q6.2 -2.5 7.0 -2.45 L8.1 -2.25 Q9.35 -1.5 8.05 -1.2 8.0 -0.1 7.05 1.35 L6.4 2.75 Q5.4 5.0 3.8 6.35 L2.15 9.2 1.25 9.2 0.35 9.05 -2.7 2.45 -3.5 0.1 -3.85 -1.4 Q-4.9 -1.85 -3.95 -2.25 M5.65 -1.8 Q7.4 -2.25 8.05 -1.2 M3.25 1.4 L1.95 2.3 1.95 1.2 0.7 2.35 0.1 1.35 0.1 2.3 -1.15 1.15 M-3.25 -1.85 L-3.3 -1.85 Q-4.1 -2.0 -3.85 -1.4" fill="none" stroke="#333333" stroke-linecap="round" stroke-linejoin="round" stroke-width="0.05"/>
  </g>
</svg>
