<?xml version="1.0" encoding="UTF-8" standalone="no"?>
<svg xmlns:xlink="http://www.w3.org/1999/xlink" height="31.65px" width="13.4px" xmlns="http://www.w3.org/2000/svg">
  <g transform="matrix(1.0, 0.0, 0.0, 1.0, 8.9, 11.25)">
    <path d="M-4.35 -5.95 Q-3.8 -7.4 -4.15 -8.85 -2.5 -11.9 0.75 -11.1 0.45 -8.95 1.95 -6.3 L2.35 -6.0 3.0 -5.45 3.75 -4.7 4.2 -3.55 4.2 -3.4 4.2 -3.3 4.4 -0.75 4.15 4.75 Q4.35 9.4 3.7 14.4 4.0 15.05 3.7 15.65 1.95 17.7 -6.45 16.85 L-6.35 15.55 Q-6.45 13.4 -6.65 12.2 -6.9 11.0 -6.3 5.45 L-7.3 3.1 Q-8.85 0.45 -5.05 -5.15 L-4.4 -5.9 -4.35 -5.95 M3.7 14.4 Q2.55 15.6 -0.9 15.95 L-6.35 15.55 -0.9 15.95 Q-1.7 10.3 -3.55 7.15 -4.6 6.75 -6.3 5.45 -4.6 6.75 -3.55 7.15 -1.7 10.3 -0.9 15.95 2.55 15.6 3.7 14.4 M-3.55 7.15 Q0.45 8.8 4.15 4.75 0.45 8.8 -3.55 7.15 M-7.3 3.1 L-6.75 3.55 Q-5.45 4.1 -2.6 2.15 0.15 0.2 1.8 0.3 3.15 0.35 3.65 -0.75 L3.85 -1.1 4.2 -3.3 3.85 -1.1 3.65 -0.75 Q3.15 0.35 1.8 0.3 0.15 0.2 -2.6 2.15 -5.45 4.1 -6.75 3.55 L-7.3 3.1" fill="#ffdfc8" fill-rule="evenodd" stroke="none"/>
    <path d="M-4.4 -5.9 L-4.35 -5.95 -4.4 -5.9" fill="#eebf5a" fill-rule="evenodd" stroke="none"/>
    <path d="M-4.35 -5.95 Q-3.8 -7.4 -4.15 -8.85 -2.5 -11.9 0.75 -11.1 0.45 -8.95 1.95 -6.3 L2.35 -6.0 3.0 -5.45 3.75 -4.7 4.2 -3.55 4.2 -3.4 4.2 -3.3 4.4 -0.75 4.15 4.75 Q4.35 9.4 3.7 14.4 4.0 15.05 3.7 15.65 1.95 17.7 -6.45 16.85 L-6.35 15.55 Q-6.45 13.4 -6.65 12.2 -6.9 11.0 -6.3 5.45 L-7.3 3.1 Q-8.85 0.45 -5.05 -5.15 L-4.4 -5.9 -4.35 -5.95 -4.4 -5.9 M4.2 -3.3 L3.85 -1.1 3.65 -0.75 Q3.15 0.35 1.8 0.3 0.15 0.2 -2.6 2.15 -5.45 4.1 -6.75 3.55 L-7.3 3.1 M-6.35 15.55 L-0.9 15.95 Q-1.7 10.3 -3.55 7.15 -4.6 6.75 -6.3 5.45 M4.15 4.75 Q0.45 8.8 -3.55 7.15 M-0.9 15.95 Q2.55 15.6 3.7 14.4" fill="none" stroke="#d7995e" stroke-linecap="round" stroke-linejoin="round" stroke-width="0.05"/>
    <path d="M0.5 -7.65 L0.85 -9.0 1.95 -8.9 Q2.75 -7.6 1.95 -6.3 L1.8 -6.2 1.95 -6.3 2.25 -6.2 3.45 -5.15 3.6 -5.0 4.2 -3.55 4.2 -3.4 4.2 -3.3 4.3 -2.55 4.4 -0.75 4.4 -0.55 4.15 4.75 4.2 9.1 Q2.0 10.3 0.15 10.95 -0.05 8.45 -2.35 7.55 L-3.55 7.15 -5.35 6.15 -5.25 5.5 -6.0 3.7 Q-4.75 3.6 -2.6 2.15 L-2.15 1.85 -2.05 1.75 -0.65 0.95 0.2 -0.75 4.3 -2.55 0.2 -0.75 Q1.4 -3.95 -1.5 -5.05 -0.45 -5.25 0.55 -5.6 0.95 -6.6 0.5 -7.65 L1.25 -8.1 0.5 -7.65 M0.55 -5.6 L1.1 -5.8 1.8 -6.2 1.1 -5.8 0.55 -5.6 M4.4 -0.55 Q1.0 1.2 -2.05 1.75 1.0 1.2 4.4 -0.55" fill="#679ab0" fill-rule="evenodd" stroke="none"/>
    <path d="M0.85 -9.0 L0.5 -7.65 Q0.95 -6.6 0.55 -5.6 -0.45 -5.25 -1.5 -5.05 L-3.85 -5.0 -1.5 -5.05 Q1.4 -3.95 0.2 -0.75 L-0.65 0.95 -2.05 1.75 -2.15 1.85 -2.6 2.15 Q-4.75 3.6 -6.0 3.7 L-6.45 2.65 -6.25 2.45 -5.9 2.0 -5.75 1.2 -5.85 0.55 -6.25 -0.1 -6.55 -0.35 Q-5.8 -2.85 -3.85 -5.0 -4.7 -5.7 -4.6 -6.55 L-5.8 -6.55 -5.6 -7.55 Q-2.25 -9.1 0.85 -9.0 M-4.45 -7.2 Q-1.5 -6.65 0.5 -7.65 -1.5 -6.65 -4.45 -7.2 M0.2 -0.75 Q-3.45 0.6 -5.85 0.55 -3.45 0.6 0.2 -0.75 M-5.35 6.15 L-3.55 7.15 -2.35 7.55 Q-0.05 8.45 0.15 10.95 -2.6 11.9 -4.65 11.6 -5.15 13.05 -4.65 15.5 L-5.95 15.25 Q-6.25 12.4 -5.35 6.15 M-5.9 2.0 L-2.05 1.75 -5.9 2.0" fill="#add2e3" fill-rule="evenodd" stroke="none"/>
    <path d="M1.95 -6.3 L1.8 -6.2 1.95 -6.3 M3.95 13.4 L3.95 13.45 3.9 13.4 3.95 13.4 M-6.3 5.45 L-7.3 3.1 -6.75 3.55 -6.0 3.7 -5.25 5.5 -5.35 6.15 -6.3 5.45" fill="#f2f2f2" fill-rule="evenodd" stroke="none"/>
    <path d="M4.2 9.1 L3.95 13.4 3.9 13.4 Q1.65 14.95 -0.7 15.45 0.3 12.75 0.15 10.95 2.0 10.3 4.2 9.1" fill="#e0e0e0" fill-rule="evenodd" stroke="none"/>
    <path d="M4.15 14.45 L4.25 16.15 Q0.05 18.2 -3.6 18.0 L-3.45 16.5 -2.45 16.5 Q0.4 16.4 3.8 14.65 L4.15 14.45 M-6.65 19.1 Q-7.4 17.95 -7.2 16.35 L-6.5 16.55 -5.0 16.45 -5.0 17.9 -6.65 19.1" fill="#576bca" fill-rule="evenodd" stroke="none"/>
    <path d="M3.95 13.45 L4.15 14.45 3.8 14.65 Q0.4 16.4 -2.45 16.5 L-3.45 16.5 -3.6 18.0 Q0.05 18.2 4.25 16.15 4.15 17.0 3.65 17.55 2.2 18.6 -0.95 18.75 -4.1 18.9 -5.25 20.4 L-6.65 19.1 -5.0 17.9 -5.0 16.45 -6.5 16.55 -7.2 16.35 -6.85 14.95 -6.8 14.95 -5.95 15.25 -4.65 15.5 Q-2.65 15.8 -0.7 15.45 1.65 14.95 3.9 13.4 L3.95 13.45" fill="#263959" fill-rule="evenodd" stroke="none"/>
    <path d="M-5.8 -6.55 L-4.6 -6.55 Q-4.7 -5.7 -3.85 -5.0 -5.8 -2.85 -6.55 -0.35 L-7.35 -0.6 -7.4 -0.6 -6.8 -2.15 -5.05 -5.15 -5.25 -5.3 Q-5.85 -5.8 -5.8 -6.55 M-6.8 14.95 Q-7.1 13.45 -7.0 12.5 L-6.3 5.45 -5.35 6.15 Q-6.25 12.4 -5.95 15.25 L-6.8 14.95 M-7.3 3.1 L-7.35 3.0 -6.45 2.65 -6.0 3.7 -6.75 3.55 -7.3 3.1 M0.15 10.95 Q0.3 12.75 -0.7 15.45 -2.65 15.8 -4.65 15.5 -5.15 13.05 -4.65 11.6 -2.6 11.9 0.15 10.95" fill="#ffffff" fill-rule="evenodd" stroke="none"/>
    <path d="M-7.35 3.0 Q-8.0 3.0 -8.45 2.45 -8.9 1.95 -8.9 1.2 -8.9 0.45 -8.45 -0.1 -8.05 -0.55 -7.4 -0.6 L-7.35 -0.6 -6.55 -0.35 -6.25 -0.1 -5.85 0.55 -5.75 1.2 -5.9 2.0 -6.25 2.45 -6.45 2.65 -7.35 3.0 M-6.75 1.0 L-6.55 0.5 -6.75 0.05 -7.3 -0.15 -7.8 0.05 -8.0 0.5 -7.8 1.0 Q-7.6 1.2 -7.3 1.2 L-6.75 1.0" fill="#b75041" fill-rule="evenodd" stroke="none"/>
    <path d="M-6.75 1.0 L-7.3 1.2 Q-7.6 1.2 -7.8 1.0 L-8.0 0.5 -7.8 0.05 -7.3 -0.15 -6.75 0.05 -6.55 0.5 -6.75 1.0" fill="#ecb985" fill-rule="evenodd" stroke="none"/>
    <path d="M0.85 -9.0 L0.5 -7.65 1.25 -8.1 M1.95 -6.3 L1.8 -6.2 1.95 -6.3 Q2.75 -7.6 1.95 -8.9 L0.85 -9.0 Q-2.25 -9.1 -5.6 -7.55 L-5.8 -6.55 Q-5.85 -5.8 -5.25 -5.3 L-5.05 -5.15 -6.8 -2.15 -7.4 -0.6 M-3.85 -5.0 L-1.5 -5.05 Q-0.45 -5.25 0.55 -5.6 0.95 -6.6 0.5 -7.65 -1.5 -6.65 -4.45 -7.2 M1.95 -6.3 L2.25 -6.2 3.45 -5.15 3.6 -5.0 4.2 -3.55 4.2 -3.4 4.2 -3.3 4.3 -2.55 4.4 -0.75 4.4 -0.55 4.15 4.75 4.2 9.1 3.95 13.4 3.95 13.45 M-6.8 14.95 Q-7.1 13.45 -7.0 12.5 L-6.3 5.45 -7.3 3.1 -7.35 3.0 M1.8 -6.2 L1.1 -5.8 0.55 -5.6 M-0.7 15.45 Q1.65 14.95 3.9 13.4 M-4.65 15.5 Q-2.65 15.8 -0.7 15.45 M-6.8 14.95 L-5.95 15.25 -4.65 15.5" fill="none" stroke="#a0a0a0" stroke-linecap="round" stroke-linejoin="round" stroke-width="0.05"/>
    <path d="M4.3 -2.55 L0.2 -0.75 Q-3.45 0.6 -5.85 0.55 M-2.05 1.75 Q1.0 1.2 4.4 -0.55 M-2.05 1.75 L-5.9 2.0" fill="none" stroke="#ffffff" stroke-linecap="round" stroke-linejoin="round" stroke-width="0.25"/>
    <path d="M3.95 13.45 L4.15 14.45 4.25 16.15 Q4.15 17.0 3.65 17.55 2.2 18.6 -0.95 18.75 -4.1 18.9 -5.25 20.4 L-6.65 19.1 Q-7.4 17.95 -7.2 16.35 L-6.85 14.95 -6.8 14.95" fill="none" stroke="#000000" stroke-linecap="round" stroke-linejoin="round" stroke-width="0.05"/>
    <path d="M-5.8 -6.55 L-4.6 -6.55 Q-4.7 -5.7 -3.85 -5.0 -5.8 -2.85 -6.55 -0.35 M-6.0 3.7 L-5.25 5.5 -5.35 6.15 Q-6.25 12.4 -5.95 15.25 M-6.0 3.7 L-6.45 2.65" fill="none" stroke="#576cc9" stroke-linecap="round" stroke-linejoin="round" stroke-width="0.25"/>
  </g>
</svg>
