<?xml version="1.0" encoding="UTF-8" standalone="no"?>
<svg xmlns:xlink="http://www.w3.org/1999/xlink" height="31.75px" width="21.6px" xmlns="http://www.w3.org/2000/svg">
  <g transform="matrix(1.0, 0.0, 0.0, 1.0, 11.25, 14.15)">
    <path d="M-5.2 -9.45 L-4.6 -12.9 Q-4.35 -14.45 -3.95 -14.1 L0.25 -14.0 2.05 -13.6 Q1.9 -10.8 2.5 -8.35 L2.95 -8.15 3.15 -8.1 5.55 -6.95 5.95 -6.7 7.3 -5.9 Q10.0 -4.45 9.75 -3.15 L9.8 -2.3 Q9.75 2.7 7.65 6.85 L6.1 9.3 Q5.5 11.75 6.2 13.6 L6.25 13.8 Q6.5 14.4 6.3 15.4 3.55 17.25 -2.25 17.0 -6.8 16.4 -8.45 14.5 L-8.1 12.3 -7.55 9.8 -7.45 8.85 -7.75 7.9 Q-8.3 5.9 -8.2 3.45 L-8.35 3.3 Q-13.15 -2.3 -8.95 -8.8 L-6.3 -9.35 -5.25 -9.45 -5.25 -9.35 -5.2 -9.45 M-8.2 3.45 L-6.9 4.2 Q-8.1 -0.25 -6.3 -4.3 L-5.65 -7.55 -6.3 -4.3 Q-8.1 -0.25 -6.9 4.2 L-8.2 3.45 M2.9 -7.05 L2.5 -8.35 2.9 -7.05 M-5.45 -8.25 L-5.25 -9.35 -5.45 -8.25 M-3.5 -7.15 Q-5.55 0.25 -3.8 5.0 L-3.55 5.65 -3.5 7.6 -3.55 5.65 -3.8 5.0 Q-5.55 0.25 -3.5 -7.15 M-3.5 7.6 L-4.55 7.7 -3.5 7.6 Q-3.45 12.05 -4.1 14.85 L-3.75 14.95 Q4.05 15.55 6.25 13.8 4.05 15.55 -3.75 14.95 L-4.1 14.85 Q-3.45 12.05 -3.5 7.6 M1.45 -6.85 L-0.75 -3.25 Q-2.75 1.5 -0.45 5.35 5.75 7.05 9.8 -2.3 5.75 7.05 -0.45 5.35 -2.75 1.5 -0.75 -3.25 L1.45 -6.85 M-8.1 12.3 Q-7.55 13.9 -4.1 14.85 -7.55 13.9 -8.1 12.3" fill="#ffdfc8" fill-rule="evenodd" stroke="none"/>
    <path d="M-5.25 -9.45 L-5.2 -9.45 -5.25 -9.35 -5.25 -9.45" fill="#eebf5a" fill-rule="evenodd" stroke="none"/>
    <path d="M-5.2 -9.45 L-4.6 -12.9 Q-4.35 -14.45 -3.95 -14.1 L0.25 -14.0 2.05 -13.6 Q1.9 -10.8 2.5 -8.35 L2.95 -8.15 3.15 -8.1 5.55 -6.95 5.95 -6.7 7.3 -5.9 Q10.0 -4.45 9.75 -3.15 L9.8 -2.3 Q9.75 2.7 7.65 6.85 L6.1 9.3 Q5.5 11.75 6.2 13.6 L6.25 13.8 Q6.5 14.4 6.3 15.4 3.55 17.25 -2.25 17.0 -6.8 16.4 -8.45 14.5 L-8.1 12.3 -7.55 9.8 -7.45 8.85 -7.75 7.9 Q-8.3 5.9 -8.2 3.45 L-8.35 3.3 Q-13.15 -2.3 -8.95 -8.8 L-6.3 -9.35 -5.25 -9.45 -5.2 -9.45 -5.25 -9.35 -5.45 -8.25 M2.5 -8.35 L2.9 -7.05 M-5.65 -7.55 L-6.3 -4.3 Q-8.1 -0.25 -6.9 4.2 L-8.2 3.45 M-3.5 7.6 L-3.55 5.65 -3.8 5.0 Q-5.55 0.25 -3.5 -7.15 M-3.5 7.6 Q-3.45 12.05 -4.1 14.85 L-3.75 14.95 Q4.05 15.55 6.25 13.8 M-4.1 14.85 Q-7.55 13.9 -8.1 12.3 M9.8 -2.3 Q5.75 7.05 -0.45 5.35 -2.75 1.5 -0.75 -3.25 L1.45 -6.85" fill="none" stroke="#d7995e" stroke-linecap="round" stroke-linejoin="round" stroke-width="0.05"/>
    <path d="M3.6 -7.9 L5.55 -6.95 5.95 -6.7 7.3 -5.9 Q9.5 -4.7 9.7 -4.05 L10.05 -3.05 10.15 -2.1 9.15 -0.7 Q1.85 1.4 -1.05 1.7 1.85 1.4 9.15 -0.7 L8.3 0.7 7.95 1.2 5.45 3.2 -0.35 4.25 5.45 3.2 Q2.75 4.85 -0.15 4.75 L-0.35 4.25 -1.05 1.7 Q-1.3 -0.35 -0.9 -2.8 -1.85 -0.45 -1.65 1.7 -4.5 1.75 -6.8 0.9 L-7.35 0.65 -6.8 0.9 Q-4.5 1.75 -1.65 1.7 L-1.0 4.3 -0.45 5.35 3.85 5.1 Q5.7 6.3 5.45 8.65 1.85 9.85 -0.8 10.05 -2.75 8.95 -3.9 7.65 -4.65 6.8 -4.85 5.4 -5.1 7.7 -6.65 8.55 -7.5 7.8 -8.0 6.75 L-8.2 3.45 -6.9 4.2 -7.1 3.25 Q-4.7 4.45 -1.0 4.3 -4.7 4.45 -7.1 3.25 L-7.35 0.65 Q-7.35 -1.9 -6.3 -4.3 L-6.25 -4.55 Q-7.55 -2.8 -7.85 0.35 -9.6 -0.8 -11.15 -3.35 -9.6 -0.8 -7.85 0.35 L-7.9 2.8 -8.0 2.7 Q-9.4 1.75 -10.25 0.2 L-10.65 -1.0 -10.95 -2.2 -11.15 -3.35 -11.15 -4.85 -11.0 -5.9 Q-10.55 -7.4 -8.95 -8.8 L-8.65 -8.9 -6.55 -9.3 Q-6.45 -8.05 -6.0 -7.75 L-6.0 -7.7 -5.9 -7.65 -5.65 -7.55 -4.35 -7.25 -5.65 -7.55 -5.9 -7.65 -6.0 -7.7 -6.0 -7.75 Q-6.45 -8.05 -6.55 -9.3 -6.7 -10.45 -5.95 -11.35 -2.7 -12.3 1.1 -11.35 2.05 -8.45 0.65 -6.95 L3.25 -7.3 3.4 -7.5 3.6 -7.9 M-0.8 -6.9 L0.65 -6.95 -0.8 -6.9 -3.5 -7.15 -4.35 -7.25 -0.8 -6.9 M-3.9 7.65 L-3.5 7.6 -3.9 7.65" fill="#add2e3" fill-rule="evenodd" stroke="none"/>
    <path d="M3.6 -7.9 L3.4 -7.5 3.25 -7.3 0.65 -6.95 Q2.05 -8.45 1.1 -11.35 L3.5 -10.65 Q4.45 -9.65 3.6 -7.9 M-7.85 0.35 Q-7.55 -2.8 -6.25 -4.55 L-6.3 -4.3 Q-7.35 -1.9 -7.35 0.65 L-7.85 0.35 -7.35 0.65 -7.1 3.25 -6.9 4.2 -8.2 3.45 -8.35 3.3 Q-9.65 1.8 -10.25 0.2 -9.4 1.75 -8.0 2.7 L-7.9 2.8 -7.85 0.35 M-1.65 1.7 Q-1.85 -0.45 -0.9 -2.8 -1.3 -0.35 -1.05 1.7 L-0.35 4.25 -0.15 4.75 Q2.75 4.85 5.45 3.2 L7.95 1.2 8.3 0.7 9.15 -0.7 10.15 -2.1 10.25 -1.0 9.15 -0.7 10.25 -1.0 Q10.2 0.25 9.75 1.85 L5.45 3.2 9.75 1.85 9.7 1.95 7.65 6.85 6.95 8.1 5.45 8.65 Q5.7 6.3 3.85 5.1 L-0.45 5.35 -1.0 4.3 -0.35 4.25 -1.0 4.3 -1.65 1.7 -1.6 1.7 -1.65 1.7 M-0.8 10.05 Q-4.7 10.35 -6.65 8.55 -5.1 7.7 -4.85 5.4 -4.65 6.8 -3.9 7.65 -2.75 8.95 -0.8 10.05 M-1.05 1.7 L-1.6 1.7 -1.05 1.7 M-7.9 2.8 L-7.1 3.25 -7.9 2.8" fill="#679ab0" fill-rule="evenodd" stroke="none"/>
    <path d="M-0.8 10.05 L-0.55 10.2 2.35 11.55 Q4.4 12.15 5.15 9.85 L5.15 9.8 5.45 8.65 6.95 8.1 6.1 9.3 6.0 9.8 Q5.75 10.9 5.85 11.9 -3.45 15.1 -7.8 11.25 L-7.65 10.65 -7.55 9.8 -7.45 8.85 -6.65 8.55 Q-4.7 10.35 -0.8 10.05" fill="#e0e0e0" fill-rule="evenodd" stroke="none"/>
    <path d="M-0.8 -6.9 L-4.35 -7.25 -3.5 -7.15 -0.8 -6.9 M5.45 8.65 L5.15 9.8 5.15 9.85 Q4.4 12.15 2.35 11.55 L-0.55 10.2 -0.8 10.05 Q1.85 9.85 5.45 8.65 M-6.65 8.55 L-7.45 8.85 -7.75 7.9 -8.0 6.75 Q-7.5 7.8 -6.65 8.55 M-8.0 2.7 L-7.9 2.8 -8.0 2.7" fill="#ffffff" fill-rule="evenodd" stroke="none"/>
    <path d="M-7.8 11.25 Q-3.45 15.1 5.85 11.9 L6.65 12.55 6.0 12.9 Q2.8 14.4 -1.8 14.65 L-1.8 16.5 Q1.2 16.55 6.4 14.45 L6.95 14.2 6.3 15.4 Q5.0 16.3 3.05 16.7 -5.0 19.3 -8.45 14.5 -9.0 13.8 -9.0 13.1 L-8.45 13.9 Q-7.15 15.45 -4.75 16.1 L-4.75 14.35 Q-6.85 13.6 -8.1 12.35 L-8.5 11.9 -7.85 11.2 -7.8 11.25" fill="#263959" fill-rule="evenodd" stroke="none"/>
    <path d="M6.65 12.55 Q7.25 13.25 6.95 14.2 L6.4 14.45 Q1.2 16.55 -1.8 16.5 L-1.8 14.65 Q2.8 14.4 6.0 12.9 L6.65 12.55 M-9.0 13.1 Q-9.0 12.5 -8.5 11.9 L-8.1 12.35 Q-6.85 13.6 -4.75 14.35 L-4.75 16.1 Q-7.15 15.45 -8.45 13.9 L-9.0 13.1" fill="#576bca" fill-rule="evenodd" stroke="none"/>
    <path d="M9.7 -4.05 Q9.5 -4.7 7.3 -5.9 L5.95 -6.7 5.55 -6.95 3.6 -7.9 3.4 -7.5 3.25 -7.3 0.65 -6.95 -0.8 -6.9 -4.35 -7.25 -5.65 -7.55 -5.9 -7.65 -6.0 -7.7 -6.0 -7.75 Q-6.45 -8.05 -6.55 -9.3 L-8.65 -8.9 -8.95 -8.8 M-11.15 -4.85 L-11.15 -3.35 -10.95 -2.2 -10.65 -1.0 -10.25 0.2 Q-9.65 1.8 -8.35 3.3 L-8.2 3.45 -8.0 6.75 -7.75 7.9 -7.45 8.85 -7.55 9.8 -7.65 10.65 -7.8 11.25 M3.6 -7.9 Q4.45 -9.65 3.5 -10.65 L1.1 -11.35 Q-2.7 -12.3 -5.95 -11.35 -6.7 -10.45 -6.55 -9.3 M5.85 11.9 Q5.75 10.9 6.0 9.8 L6.1 9.3 6.95 8.1 7.65 6.85 9.7 1.95 M-0.8 -6.9 L-3.5 -7.15 -4.35 -7.25 M-1.65 1.7 L-1.6 1.7 M-8.0 2.7 L-7.9 2.8" fill="none" stroke="#a0a0a0" stroke-linecap="round" stroke-linejoin="round" stroke-width="0.05"/>
    <path d="M-11.15 -3.35 Q-9.6 -0.8 -7.85 0.35 L-7.35 0.65 -6.8 0.9 Q-4.5 1.75 -1.65 1.7 M-1.05 1.7 Q1.85 1.4 9.15 -0.7 L10.25 -1.0 M5.45 3.2 L9.75 1.85 M-1.0 4.3 Q-4.7 4.45 -7.1 3.25 L-7.9 2.8 M-0.35 4.25 L5.45 3.2 M-0.35 4.25 L-1.0 4.3 M-1.6 1.7 L-1.05 1.7 M-8.0 2.7 Q-9.4 1.75 -10.25 0.2" fill="none" stroke="#ffffff" stroke-linecap="round" stroke-linejoin="round" stroke-width="0.25"/>
    <path d="M-7.8 11.25 Q-3.45 15.1 5.85 11.9 L6.65 12.55 Q7.25 13.25 6.95 14.2 L6.3 15.4 Q5.0 16.3 3.05 16.7 -5.0 19.3 -8.45 14.5 -9.0 13.8 -9.0 13.1 -9.0 12.5 -8.5 11.9 L-7.85 11.2 -7.8 11.25 M6.65 12.55 L6.0 12.9 Q2.8 14.4 -1.8 14.65 L-1.8 16.5 Q1.2 16.55 6.4 14.45 L6.95 14.2 M-9.0 13.1 L-8.45 13.9 Q-7.15 15.45 -4.75 16.1 L-4.75 14.35 Q-6.85 13.6 -8.1 12.35 L-8.5 11.9" fill="none" stroke="#000000" stroke-linecap="round" stroke-linejoin="round" stroke-width="0.05"/>
  </g>
</svg>
