<?xml version="1.0" encoding="UTF-8" standalone="no"?>
<svg xmlns:xlink="http://www.w3.org/1999/xlink" height="4.15px" width="8.05px" xmlns="http://www.w3.org/2000/svg">
  <g transform="matrix(1.0, 0.0, 0.0, 1.0, 0.0, 0.0)">
    <path d="M3.75 1.4 L0.0 1.4 Q0.1 0.95 0.5 0.6 1.05 0.0 1.85 0.0 2.65 0.0 3.25 0.6 L3.75 1.4 M0.5 3.3 L0.1 2.8 3.6 2.8 3.25 3.3 Q2.65 3.9 1.85 3.9 1.05 3.9 0.5 3.3" fill="#324635" fill-rule="evenodd" stroke="none"/>
    <path d="M8.05 1.65 L5.95 1.65 6.25 0.85 Q6.55 0.25 7.0 0.25 7.45 0.25 7.8 0.85 L8.05 1.65 M6.25 3.55 L6.05 3.05 8.0 3.05 7.8 3.55 Q7.45 4.15 7.0 4.15 6.55 4.15 6.25 3.55" fill="#324635" fill-rule="evenodd" stroke="none"/>
  </g>
</svg>
