<?xml version="1.0" encoding="UTF-8" standalone="no"?>
<svg xmlns:xlink="http://www.w3.org/1999/xlink" height="4.15px" width="8.2px" xmlns="http://www.w3.org/2000/svg">
  <g transform="matrix(1.0, 0.0, 0.0, 1.0, 0.1, 0.0)">
    <path d="M0.5 3.3 Q-0.1 2.75 -0.1 1.95 -0.1 1.15 0.5 0.6 1.05 0.0 1.85 0.0 2.65 0.0 3.25 0.6 3.8 1.15 3.8 1.95 3.8 2.75 3.25 3.3 2.65 3.9 1.85 3.9 1.05 3.9 0.5 3.3" fill="#324635" fill-rule="evenodd" stroke="none"/>
    <path d="M7.0 0.25 Q7.45 0.25 7.8 0.85 L8.1 2.2 7.8 3.55 Q7.45 4.15 7.0 4.15 6.55 4.15 6.25 3.55 5.9 3.0 5.9 2.2 5.9 1.4 6.25 0.85 6.55 0.25 7.0 0.25" fill="#324635" fill-rule="evenodd" stroke="none"/>
  </g>
</svg>
