<?xml version="1.0" encoding="UTF-8" standalone="no"?>
<svg xmlns:xlink="http://www.w3.org/1999/xlink" height="24.0px" width="23.15px" xmlns="http://www.w3.org/2000/svg">
  <g transform="matrix(1.0, 0.0, 0.0, 1.0, 3.75, 14.6)">
    <path d="M1.25 -0.05 Q0.35 -1.85 -1.0 -2.3 1.2 -2.2 1.25 -0.05" fill="#c06467" fill-rule="evenodd" stroke="none"/>
    <path d="M1.25 -0.05 Q0.35 -1.85 -1.0 -2.3 1.2 -2.2 1.25 -0.05 Z" fill="none" stroke="#5f2c34" stroke-linecap="round" stroke-linejoin="round" stroke-width="0.05"/>
    <path d="M-1.6 -6.5 L-1.6 -6.45 -1.55 -6.3 -1.55 -6.25 -1.35 -5.9 Q-1.15 -5.65 -0.85 -5.65 -0.55 -5.65 -0.35 -5.9 L-0.3 -5.9 -0.25 -6.0 -0.05 -6.45 -0.3 -6.95 -0.85 -7.15 -1.05 -7.15 -1.05 -7.25 -1.3 -7.4 -1.5 -7.25 -1.6 -6.8 -1.6 -6.5 M0.05 -7.65 Q0.4 -7.3 0.4 -6.75 0.4 -6.2 0.05 -5.8 L0.0 -5.75 0.0 -5.7 Q-0.35 -5.35 -0.8 -5.35 -1.3 -5.4 -1.7 -5.8 L-1.95 -6.2 -2.0 -6.4 -2.05 -6.75 Q-2.05 -7.3 -1.7 -7.65 -1.3 -8.05 -0.8 -8.05 -0.3 -8.05 0.05 -7.65" fill="#74bd68" fill-rule="evenodd" stroke="none"/>
    <path d="M-1.05 -7.15 L-0.85 -7.15 -0.3 -6.95 -0.05 -6.45 -0.25 -6.0 -0.3 -5.9 -0.35 -5.9 Q-0.55 -5.65 -0.85 -5.65 -1.15 -5.65 -1.35 -5.9 L-1.55 -6.25 -1.55 -6.3 -1.6 -6.45 -1.6 -6.5 -1.5 -6.45 -1.35 -6.25 -1.3 -6.2 -1.25 -6.2 -1.2 -6.25 -1.05 -6.45 -0.95 -6.8 -1.05 -7.15" fill="#2a592f" fill-rule="evenodd" stroke="none"/>
    <path d="M-1.6 -6.5 L-1.6 -6.8 -1.5 -7.25 -1.3 -7.4 -1.05 -7.25 -1.05 -7.15 -0.95 -6.8 -1.05 -6.45 -1.2 -6.25 -1.25 -6.2 -1.35 -6.25 -1.5 -6.45 -1.6 -6.5" fill="#d1e1bf" fill-rule="evenodd" stroke="none"/>
    <path d="M-1.25 -6.2 L-1.3 -6.2 -1.35 -6.25 -1.25 -6.2" fill="#c06467" fill-rule="evenodd" stroke="none"/>
    <path d="M0.05 -7.65 Q0.4 -7.3 0.4 -6.75 0.4 -6.2 0.05 -5.8 L0.0 -5.75 0.0 -5.7 Q-0.35 -5.35 -0.8 -5.35 -1.3 -5.4 -1.7 -5.8 L-1.95 -6.2 -2.0 -6.4 -2.05 -6.75 Q-2.05 -7.3 -1.7 -7.65 -1.3 -8.05 -0.8 -8.05 -0.3 -8.05 0.05 -7.65 Z" fill="none" stroke="#5f2c34" stroke-linecap="round" stroke-linejoin="round" stroke-width="0.05"/>
    <path d="M3.95 -13.9 L4.15 -13.55 4.4 -12.9 4.5 -12.5 4.55 -12.35 Q5.0 -10.7 4.95 -8.85 L4.55 -9.6 4.55 -9.85 4.4 -11.35 4.0 -12.95 3.4 -14.45 3.7 -14.2 3.95 -13.9 M3.1 -11.75 Q0.4 -13.15 -2.6 -13.8 L-2.85 -13.85 -3.3 -14.2 -3.75 -14.6 -3.0 -14.45 Q0.05 -13.75 2.8 -12.3 L3.1 -11.75 M9.8 -12.0 L8.9 -11.55 Q7.3 -10.25 6.45 -8.5 L6.3 -9.4 Q7.1 -11.1 8.65 -12.35 L10.3 -13.1 9.8 -12.0" fill="#edc4b6" fill-rule="evenodd" stroke="none"/>
    <path d="M3.95 -13.9 L4.2 -13.65 4.5 -13.3 Q5.7 -11.85 6.1 -10.0 L6.25 -9.35 6.3 -9.4 6.45 -8.5 Q7.3 -10.25 8.9 -11.55 L9.8 -12.0 8.35 -8.4 Q9.4 -9.65 11.0 -10.25 13.7 -11.45 17.9 -9.35 14.7 -8.6 11.6 -6.75 13.9 -6.6 15.8 -5.65 17.95 -3.45 19.35 -0.8 L15.95 -3.8 11.5 -5.15 11.45 -4.15 12.35 -3.45 14.7 -1.5 Q16.25 1.55 16.4 5.15 14.65 0.8 12.6 -1.7 10.95 -0.45 9.4 0.05 L6.6 0.85 Q5.75 0.0 5.0 1.65 L5.05 1.25 5.05 1.1 5.1 -0.4 5.1 -0.55 5.1 -0.4 5.05 1.1 5.05 1.25 5.0 1.65 5.0 1.75 4.9 3.3 4.9 3.35 4.55 6.85 4.1 9.4 4.05 9.4 3.8 7.05 3.5 3.55 3.5 3.05 3.45 2.0 4.55 -1.3 4.9 -3.0 4.95 -2.75 5.1 -1.4 5.1 -1.15 5.1 -0.95 5.1 -1.15 5.15 -1.15 5.15 -0.95 5.1 -0.95 5.1 -0.55 5.25 -0.35 5.4 0.8 5.55 -0.1 6.05 0.05 6.9 0.0 7.05 -0.1 7.6 -0.65 7.6 -0.7 7.9 -2.45 7.7 -4.4 5.15 -6.75 Q4.2 -7.35 3.1 -7.6 L2.95 -7.65 2.65 -7.75 0.65 -7.3 0.15 -9.4 -0.3 -10.8 -0.6 -11.35 -0.65 -11.4 -1.1 -12.0 -2.35 -13.4 -2.4 -13.45 -2.9 -13.85 -3.3 -14.2 -2.85 -13.85 -2.6 -13.8 Q0.4 -13.15 3.1 -11.75 L4.55 -9.0 4.55 -9.6 4.95 -8.85 Q5.0 -10.7 4.55 -12.35 L4.5 -12.5 4.4 -12.9 4.15 -13.55 3.95 -13.9 M-0.45 -6.55 L0.1 -6.75 0.5 -6.85 0.65 -6.85 Q-0.8 -6.25 -1.1 -4.95 L-0.1 -3.85 -0.35 -3.6 -0.6 -3.3 -1.75 -1.5 -2.9 0.85 -1.85 -2.9 -1.8 -3.1 Q-3.3 -1.35 -3.55 0.5 -3.95 -2.3 -1.8 -5.9 L-1.45 -6.1 -0.45 -6.55 M6.1 -0.75 L5.95 -0.95 5.9 -1.05 6.1 -0.75" fill="#c06467" fill-rule="evenodd" stroke="none"/>
    <path d="M0.65 -7.3 L2.65 -7.75 2.95 -7.65 3.1 -7.6 Q4.2 -7.35 5.15 -6.75 L7.7 -4.4 7.9 -2.45 7.6 -0.7 7.6 -0.65 7.05 -0.1 6.9 0.0 6.05 0.05 5.55 -0.1 5.65 -1.45 5.4 -3.35 4.7 -5.25 4.65 -5.35 3.75 -6.7 3.0 -7.3 2.9 -7.35 1.95 -7.2 0.75 -6.9 0.65 -6.85 0.65 -6.9 0.5 -6.85 0.1 -6.75 -0.45 -6.55 0.65 -7.3 M5.25 -0.35 L5.1 -0.55 5.1 -0.95 5.15 -0.95 5.25 -0.35 M6.1 -0.75 L6.25 -0.7 Q6.55 -0.7 6.7 -0.95 L6.85 -1.25 6.9 -1.6 6.7 -2.3 6.7 -2.35 6.55 -2.45 6.3 -2.55 5.95 -2.3 5.8 -1.6 5.9 -1.05 5.95 -0.95 6.1 -0.75" fill="#ebebeb" fill-rule="evenodd" stroke="none"/>
    <path d="M5.9 -1.05 L5.8 -1.6 5.95 -2.3 6.3 -2.55 6.55 -2.45 6.7 -2.35 6.7 -2.3 6.9 -1.6 6.85 -1.25 6.7 -0.95 Q6.55 -0.7 6.25 -0.7 L6.1 -0.75 5.9 -1.05" fill="#323969" fill-rule="evenodd" stroke="none"/>
    <path d="M6.6 0.85 L9.4 0.05 Q10.95 -0.45 12.6 -1.7 14.65 0.8 16.4 5.15 14.9 3.0 12.3 1.4 L10.7 2.4 9.2 3.6 7.0 5.6 6.3 4.15 Q6.8 4.0 7.0 2.85 7.2 1.7 6.6 0.85 M12.35 -3.45 L11.45 -4.15 11.5 -5.15 15.95 -3.8 19.35 -0.8 19.4 -0.65 15.05 -3.05 12.35 -3.45" fill="#803941" fill-rule="evenodd" stroke="none"/>
    <path d="M16.4 5.15 L16.4 5.2 16.4 5.15" fill="#d0a997" fill-rule="evenodd" stroke="none"/>
    <path d="M6.3 -9.4 L6.25 -9.35 6.1 -10.0 Q5.7 -11.85 4.5 -13.3 L4.2 -13.65 3.95 -13.9 3.7 -14.2 3.4 -14.45 4.0 -12.95 4.4 -11.35 4.55 -9.85 4.55 -9.6 4.55 -9.0 3.1 -11.75 2.8 -12.3 Q0.05 -13.75 -3.0 -14.45 L-3.75 -14.6 -3.3 -14.2 -2.9 -13.85 -2.4 -13.45 -2.35 -13.4 -1.1 -12.0 -0.65 -11.4 -0.6 -11.35 -0.3 -10.8 0.15 -9.4 0.65 -7.3 M5.1 -0.55 L5.1 -0.4 5.05 1.1 5.05 1.25 5.0 1.65 5.0 1.75 4.9 3.3 4.9 3.35 4.55 6.85 4.1 9.4 4.05 9.4 3.8 7.05 3.5 3.55 3.5 3.05 3.45 2.0 M16.4 5.15 Q16.25 1.55 14.7 -1.5 L12.35 -3.45 11.45 -4.15 M19.35 -0.8 Q17.95 -3.45 15.8 -5.65 13.9 -6.6 11.6 -6.75 14.7 -8.6 17.9 -9.35 13.7 -11.45 11.0 -10.25 9.4 -9.65 8.35 -8.4 L9.8 -12.0 10.3 -13.1 8.65 -12.35 Q7.1 -11.1 6.3 -9.4 M-0.45 -6.55 L0.1 -6.75 0.5 -6.85 0.65 -6.85 M5.9 -1.05 L5.8 -1.6 5.95 -2.3 6.3 -2.55 6.55 -2.45 6.7 -2.35 6.7 -2.3 6.9 -1.6 6.85 -1.25 6.7 -0.95 Q6.55 -0.7 6.25 -0.7 L6.1 -0.75 5.95 -0.95 5.9 -1.05 M5.1 -1.15 L5.1 -1.4 M5.1 -1.15 L5.1 -0.95 5.1 -0.55 M19.35 -0.8 L19.4 -0.65 15.05 -3.05 12.35 -3.45 M7.0 5.6 L9.2 3.6 10.7 2.4 12.3 1.4 Q14.9 3.0 16.4 5.15 L16.4 5.2 16.4 5.15 M-0.45 -6.55 L-1.45 -6.1 -1.8 -5.9 Q-3.95 -2.3 -3.55 0.5 -3.3 -1.35 -1.8 -3.1 L-1.85 -2.9 -2.9 0.85 -1.75 -1.5 -0.6 -3.3 -0.35 -3.6 -0.1 -3.85" fill="none" stroke="#5f2c34" stroke-linecap="round" stroke-linejoin="round" stroke-width="0.05"/>
    <path d="M0.65 -7.3 L2.65 -7.75 2.95 -7.65 3.1 -7.6 Q4.2 -7.35 5.15 -6.75 L7.7 -4.4 7.9 -2.45 7.6 -0.7 7.6 -0.65 7.05 -0.1 6.9 0.0 6.05 0.05 5.55 -0.1 M5.25 -0.35 L5.1 -0.55 M5.0 1.65 Q5.75 0.0 6.6 0.85 M0.5 -6.85 L0.65 -6.9 M0.65 -7.3 L-0.45 -6.55" fill="none" stroke="#6b4a43" stroke-linecap="round" stroke-linejoin="round" stroke-width="0.05"/>
    <path d="M2.65 -8.45 Q3.0 -8.1 3.0 -7.55 3.0 -7.0 2.65 -6.6 L2.6 -6.55 2.6 -6.5 Q2.25 -6.15 1.8 -6.15 1.3 -6.2 0.9 -6.6 L0.65 -7.0 0.6 -7.2 0.55 -7.55 Q0.55 -8.1 0.9 -8.45 1.3 -8.85 1.8 -8.85 2.3 -8.85 2.65 -8.45 M1.55 -7.95 L1.55 -8.05 1.3 -8.2 1.1 -8.05 1.0 -7.6 1.0 -7.3 1.0 -7.25 1.05 -7.1 1.05 -7.05 1.25 -6.7 Q1.45 -6.45 1.75 -6.45 2.05 -6.45 2.25 -6.7 L2.3 -6.7 2.35 -6.8 2.55 -7.25 2.3 -7.75 1.75 -7.95 1.55 -7.95" fill="#74bd68" fill-rule="evenodd" stroke="none"/>
    <path d="M1.55 -7.95 L1.75 -7.95 2.3 -7.75 2.55 -7.25 2.35 -6.8 2.3 -6.7 2.25 -6.7 Q2.05 -6.45 1.75 -6.45 1.45 -6.45 1.25 -6.7 L1.05 -7.05 1.05 -7.1 1.0 -7.25 1.0 -7.3 1.1 -7.25 1.25 -7.05 1.3 -7.0 1.35 -7.0 1.4 -7.05 1.55 -7.25 1.65 -7.6 1.55 -7.95" fill="#2a592f" fill-rule="evenodd" stroke="none"/>
    <path d="M1.0 -7.3 L1.0 -7.6 1.1 -8.05 1.3 -8.2 1.55 -8.05 1.55 -7.95 1.65 -7.6 1.55 -7.25 1.4 -7.05 1.35 -7.0 1.25 -7.05 1.1 -7.25 1.0 -7.3" fill="#d1e1bf" fill-rule="evenodd" stroke="none"/>
    <path d="M1.25 -7.05 L1.35 -7.0 1.3 -7.0 1.25 -7.05" fill="#c06467" fill-rule="evenodd" stroke="none"/>
    <path d="M2.65 -8.45 Q3.0 -8.1 3.0 -7.55 3.0 -7.0 2.65 -6.6 L2.6 -6.55 2.6 -6.5 Q2.25 -6.15 1.8 -6.15 1.3 -6.2 0.9 -6.6 L0.65 -7.0 0.6 -7.2 0.55 -7.55 Q0.55 -8.1 0.9 -8.45 1.3 -8.85 1.8 -8.85 2.3 -8.85 2.65 -8.45 Z" fill="none" stroke="#5f2c34" stroke-linecap="round" stroke-linejoin="round" stroke-width="0.05"/>
    <path d="M3.75 -7.55 L3.75 -7.5 3.8 -7.35 3.8 -7.3 4.0 -6.95 Q4.2 -6.7 4.5 -6.7 4.8 -6.7 5.0 -6.95 L5.05 -6.95 5.1 -7.05 5.3 -7.5 5.05 -8.0 4.5 -8.2 4.3 -8.2 4.3 -8.3 4.05 -8.45 3.85 -8.3 3.75 -7.85 3.75 -7.55 M5.4 -8.7 Q5.75 -8.35 5.75 -7.8 5.75 -7.25 5.4 -6.85 L5.35 -6.8 5.35 -6.75 Q5.0 -6.4 4.55 -6.4 4.05 -6.45 3.65 -6.85 L3.4 -7.25 3.35 -7.45 3.3 -7.8 Q3.3 -8.35 3.65 -8.7 4.05 -9.1 4.55 -9.1 5.05 -9.1 5.4 -8.7" fill="#74bd68" fill-rule="evenodd" stroke="none"/>
    <path d="M4.3 -8.2 L4.5 -8.2 5.05 -8.0 5.3 -7.5 5.1 -7.05 5.05 -6.95 5.0 -6.95 Q4.8 -6.7 4.5 -6.7 4.2 -6.7 4.0 -6.95 L3.8 -7.3 3.8 -7.35 3.75 -7.5 3.75 -7.55 3.85 -7.5 4.0 -7.3 4.05 -7.25 4.1 -7.25 4.15 -7.3 4.3 -7.5 4.4 -7.85 4.3 -8.2" fill="#2a592f" fill-rule="evenodd" stroke="none"/>
    <path d="M3.75 -7.55 L3.75 -7.85 3.85 -8.3 4.05 -8.45 4.3 -8.3 4.3 -8.2 4.4 -7.85 4.3 -7.5 4.15 -7.3 4.1 -7.25 4.0 -7.3 3.85 -7.5 3.75 -7.55" fill="#d1e1bf" fill-rule="evenodd" stroke="none"/>
    <path d="M4.1 -7.25 L4.05 -7.25 4.0 -7.3 4.1 -7.25" fill="#c06467" fill-rule="evenodd" stroke="none"/>
    <path d="M5.4 -8.7 Q5.75 -8.35 5.75 -7.8 5.75 -7.25 5.4 -6.85 L5.35 -6.8 5.35 -6.75 Q5.0 -6.4 4.55 -6.4 4.05 -6.45 3.65 -6.85 L3.4 -7.25 3.35 -7.45 3.3 -7.8 Q3.3 -8.35 3.65 -8.7 4.05 -9.1 4.55 -9.1 5.05 -9.1 5.4 -8.7 Z" fill="none" stroke="#5f2c34" stroke-linecap="round" stroke-linejoin="round" stroke-width="0.05"/>
    <path d="M0.65 -6.85 L0.75 -6.9 1.95 -7.2 2.9 -7.35 3.0 -7.3 3.75 -6.7 4.65 -5.35 4.7 -5.25 5.4 -3.35 5.65 -1.45 5.55 -0.1 5.4 0.8 4.9 -3.05 4.9 -3.0 4.55 -1.3 3.45 2.0 3.2 2.5 2.65 3.55 Q3.05 -0.15 2.5 -3.65 2.75 -0.65 1.15 1.55 L1.5 -1.4 1.5 -1.6 Q1.6 -3.2 1.35 -3.95 1.35 -2.75 0.8 -1.8 L0.75 -1.75 0.65 -1.6 0.65 -1.75 0.65 -1.8 Q0.6 -2.85 -0.1 -3.85 L-1.1 -4.95 Q-0.8 -6.25 0.65 -6.85" fill="#c06467" fill-rule="evenodd" stroke="none"/>
    <path d="M0.65 -6.85 Q-0.8 -6.25 -1.1 -4.95 L-0.1 -3.85 Q0.6 -2.85 0.65 -1.8 L0.65 -1.75 0.65 -1.6 0.75 -1.75 0.8 -1.8 Q1.35 -2.75 1.35 -3.95 1.6 -3.2 1.5 -1.6 L1.5 -1.4 1.15 1.55 Q2.75 -0.65 2.5 -3.65 3.05 -0.15 2.65 3.55 L3.2 2.5 3.45 2.0 4.55 -1.3 4.9 -3.0 4.9 -3.05 5.4 0.8 5.55 -0.1 5.65 -1.45 5.4 -3.35 4.7 -5.25 4.65 -5.35 3.75 -6.7 3.0 -7.3 2.9 -7.35 1.95 -7.2 0.75 -6.9 0.65 -6.85 Z" fill="none" stroke="#5f2c34" stroke-linecap="round" stroke-linejoin="round" stroke-width="0.05"/>
  </g>
</svg>
