<?xml version="1.0" encoding="UTF-8" standalone="no"?>
<svg xmlns:xlink="http://www.w3.org/1999/xlink" height="4.15px" width="7.5px" xmlns="http://www.w3.org/2000/svg">
  <g transform="matrix(1.0, 0.0, 0.0, 1.0, -0.35, 0.0)">
    <path d="M0.35 0.7 L0.5 0.6 Q1.05 0.0 1.85 0.0 2.65 0.0 3.25 0.6 L3.35 0.7 0.35 0.7 M0.55 3.35 L3.2 3.35 Q2.6 3.9 1.85 3.9 1.1 3.9 0.55 3.35" fill="#324635" fill-rule="evenodd" stroke="none"/>
    <path d="M7.0 0.25 Q7.45 0.25 7.8 0.85 L7.85 0.95 6.15 0.95 6.25 0.85 Q6.55 0.25 7.0 0.25 M7.75 3.6 Q7.45 4.15 7.0 4.15 6.55 4.15 6.25 3.6 L7.75 3.6" fill="#324635" fill-rule="evenodd" stroke="none"/>
  </g>
</svg>
