<?xml version="1.0" encoding="UTF-8" standalone="no"?>
<svg xmlns:xlink="http://www.w3.org/1999/xlink" height="3.9px" width="9.0px" xmlns="http://www.w3.org/2000/svg">
  <g transform="matrix(1.0, 0.0, 0.0, 1.0, 0.0, 0.0)">
    <path d="M8.5 0.6 L9.0 1.4 5.25 1.4 Q5.35 0.95 5.75 0.6 6.3 0.0 7.1 0.0 7.9 0.0 8.5 0.6 M8.5 3.3 Q7.9 3.9 7.1 3.9 6.3 3.9 5.75 3.3 L5.35 2.8 8.85 2.8 8.5 3.3" fill="#324635" fill-rule="evenodd" stroke="none"/>
    <path d="M3.25 0.6 L3.75 1.4 0.0 1.4 Q0.1 0.95 0.5 0.6 1.05 0.0 1.85 0.0 2.65 0.0 3.25 0.6 M3.25 3.3 Q2.65 3.9 1.85 3.9 1.05 3.9 0.5 3.3 L0.1 2.8 3.6 2.8 3.25 3.3" fill="#324635" fill-rule="evenodd" stroke="none"/>
  </g>
</svg>
