<?xml version="1.0" encoding="UTF-8" standalone="no"?>
<svg xmlns:xlink="http://www.w3.org/1999/xlink" height="39.55px" width="151.0px" xmlns="http://www.w3.org/2000/svg">
  <g transform="matrix(1.0, 0.0, 0.0, 1.0, 103.2, 19.95)">
    <path d="M47.3 -19.95 L47.6 -19.85 47.8 -19.5 47.8 -19.45 47.7 -19.15 Q30.95 3.1 15.45 19.45 L15.4 19.45 15.05 19.6 -70.4 19.6 -83.1 4.9 -103.05 -18.5 -103.2 -18.85 -103.05 -19.2 -103.0 -19.2 -102.7 -19.35 -32.1 -19.55 -32.1 -19.65 47.3 -19.95" fill="#000000" fill-opacity="0.38039216" fill-rule="evenodd" stroke="none"/>
    <path d="M11.5 16.2 Q16.95 10.45 22.55 3.2 L34.05 -12.05 22.55 3.2 Q16.95 10.45 11.5 16.2 L-66.95 16.05 11.5 16.2 M-67.05 16.05 L-67.0 16.1 -66.95 16.05 -68.0 14.8 -67.05 16.05 M-91.05 -12.25 L-90.35 -11.35 Q-81.15 -1.55 -77.25 3.2 L-68.0 14.8 -77.25 3.2 Q-81.15 -1.55 -90.35 -11.35 L-91.05 -12.25 34.05 -12.05 -91.05 -12.25 M38.6 -14.35 Q27.9 0.55 12.7 18.35 L-38.75 18.35 -67.85 18.35 -79.65 3.95 -95.45 -14.35 38.6 -14.35" fill="url(#gradient0)" fill-rule="evenodd" stroke="none"/>
    <path d="M34.05 -12.05 L22.55 3.2 Q16.95 10.45 11.5 16.2" fill="none" stroke="#3a1b1b" stroke-linecap="round" stroke-linejoin="round" stroke-width="1.0"/>
    <path d="M-91.05 -12.25 L34.05 -12.05" fill="none" stroke="#1e0d0d" stroke-linecap="round" stroke-linejoin="round" stroke-width="1.0"/>
    <path d="M11.5 16.2 L-66.95 16.05" fill="none" stroke="#361818" stroke-linecap="round" stroke-linejoin="round" stroke-width="1.0"/>
    <path d="M38.6 -14.35 Q27.9 0.55 12.7 18.35" fill="none" stroke="#bd6c6c" stroke-linecap="round" stroke-linejoin="round" stroke-width="1.0"/>
    <path d="M12.7 18.35 L-38.75 18.35" fill="none" stroke="#cd9292" stroke-linecap="round" stroke-linejoin="round" stroke-width="1.0"/>
    <path d="M-95.45 -14.35 L38.6 -14.35" fill="none" stroke="#b15252" stroke-linecap="round" stroke-linejoin="round" stroke-width="1.0"/>
    <path d="M-67.05 16.05 L-68.0 14.8 -77.25 3.2 Q-81.15 -1.55 -90.35 -11.35 L-91.05 -12.25 M-79.65 3.95 L-95.45 -14.35 M-66.95 16.05 L-67.05 16.05" fill="none" stroke="#3a1b1b" stroke-linecap="round" stroke-linejoin="round" stroke-width="1.0"/>
    <path d="M-38.75 18.35 L-67.85 18.35" fill="none" stroke="#b35e5e" stroke-linecap="round" stroke-linejoin="round" stroke-width="1.0"/>
    <path d="M-67.85 18.35 L-79.65 3.95" fill="none" stroke="#6f3535" stroke-linecap="round" stroke-linejoin="round" stroke-width="1.0"/>
  </g>
  <defs>
    <linearGradient gradientTransform="matrix(0.0107, 0.028, 0.1291, -0.029, -33.75, -3.05)" gradientUnits="userSpaceOnUse" id="gradient0" spreadMethod="pad" x1="-819.2" x2="819.2">
      <stop offset="0.0" stop-color="#000000"/>
      <stop offset="1.0" stop-color="#6d3030"/>
    </linearGradient>
  </defs>
</svg>
