<?xml version="1.0" encoding="UTF-8" standalone="no"?>
<svg xmlns:xlink="http://www.w3.org/1999/xlink" height="41.35px" width="144.7px" xmlns="http://www.w3.org/2000/svg">
  <g transform="matrix(1.0, 0.0, 0.0, 1.0, 56.95, 13.3)">
    <path d="M-50.85 -8.8 L-50.8 -8.85 87.75 -12.0 84.2 27.95 84.0 28.0 84.0 28.05 -52.55 26.05 -50.85 -8.8" fill="#000000" fill-opacity="0.43137255" fill-rule="evenodd" stroke="none"/>
    <path d="M84.45 -13.3 L81.15 26.6 -56.95 24.8 -55.15 -11.75 84.45 -13.3" fill="#062942" fill-rule="evenodd" stroke="none"/>
    <path d="M84.45 -13.3 L81.15 26.6 -56.95 24.8" fill="none" stroke="#07253a" stroke-linecap="round" stroke-linejoin="round" stroke-width="0.05"/>
    <path d="M-56.95 24.8 L-55.15 -11.75 84.45 -13.3 Z" fill="none" stroke="#1b5e76" stroke-linecap="round" stroke-linejoin="round" stroke-width="0.05"/>
    <path d="M82.65 -10.65 L79.65 23.8 -55.0 22.2 -53.5 -9.35 82.65 -10.65" fill="url(#gradient0)" fill-rule="evenodd" stroke="none"/>
    <path d="M79.65 23.8 L-55.0 22.2" fill="none" stroke="#75c2df" stroke-linecap="round" stroke-linejoin="round" stroke-width="0.05"/>
    <path d="M-55.0 22.2 L-53.5 -9.35 82.65 -10.65" fill="none" stroke="#03131b" stroke-linecap="round" stroke-linejoin="round" stroke-width="0.05"/>
    <path d="M82.65 -10.65 L79.65 23.8 Z" fill="none" stroke="#3eaad2" stroke-linecap="round" stroke-linejoin="round" stroke-width="0.05"/>
  </g>
  <defs>
    <linearGradient gradientTransform="matrix(-0.0029, -0.0137, -0.0802, 0.0023, 1.75, 0.3)" gradientUnits="userSpaceOnUse" id="gradient0" spreadMethod="pad" x1="-819.2" x2="819.2">
      <stop offset="0.0" stop-color="#093d72"/>
      <stop offset="1.0" stop-color="#55b6e1"/>
    </linearGradient>
  </defs>
</svg>
