<?xml version="1.0" encoding="UTF-8" standalone="no"?>
<svg xmlns:xlink="http://www.w3.org/1999/xlink" height="1.0px" width="93.0px" xmlns="http://www.w3.org/2000/svg">
  <g transform="matrix(1.0, 0.0, 0.0, 1.0, 34.2, -7.55)">
    <path d="M53.95 7.7 Q54.1 7.55 54.3 7.55 54.5 7.55 54.65 7.7 L54.8 8.05 54.65 8.4 54.3 8.55 53.95 8.4 53.8 8.05 Q53.8 7.85 53.95 7.7 M50.8 8.05 L50.65 8.4 50.3 8.55 49.95 8.4 49.8 8.05 Q49.8 7.85 49.95 7.7 50.1 7.55 50.3 7.55 50.5 7.55 50.65 7.7 L50.8 8.05 M57.95 7.7 Q58.1 7.55 58.3 7.55 L58.65 7.7 58.8 8.05 58.65 8.4 58.3 8.55 57.95 8.4 57.8 8.05 57.95 7.7 M42.65 7.7 L42.8 8.05 42.65 8.4 42.3 8.55 Q42.1 8.55 41.95 8.4 L41.8 8.05 41.95 7.7 Q42.1 7.55 42.3 7.55 L42.65 7.7 M46.65 7.7 L46.8 8.05 46.65 8.4 46.3 8.55 45.95 8.4 45.8 8.05 45.95 7.7 Q46.1 7.55 46.3 7.55 L46.65 7.7 M33.95 7.7 Q34.1 7.55 34.3 7.55 L34.65 7.7 34.8 8.05 34.65 8.4 34.3 8.55 33.95 8.4 33.8 8.05 33.95 7.7 M30.8 8.05 L30.65 8.4 30.3 8.55 29.95 8.4 29.8 8.05 29.95 7.7 Q30.1 7.55 30.3 7.55 L30.65 7.7 30.8 8.05 M37.95 7.7 Q38.1 7.55 38.3 7.55 38.5 7.55 38.65 7.7 L38.8 8.05 38.65 8.4 38.3 8.55 37.95 8.4 37.8 8.05 37.95 7.7 M21.95 7.7 L22.3 7.55 22.65 7.7 22.8 8.05 22.65 8.4 22.3 8.55 21.95 8.4 21.8 8.05 21.95 7.7 M26.65 7.7 L26.8 8.05 26.65 8.4 26.3 8.55 25.95 8.4 25.8 8.05 25.95 7.7 26.3 7.55 Q26.5 7.55 26.65 7.7 M13.95 7.7 Q14.1 7.55 14.3 7.55 L14.65 7.7 14.8 8.05 14.65 8.4 14.3 8.55 13.95 8.4 13.8 8.05 13.95 7.7 M10.8 8.05 L10.65 8.4 10.3 8.55 9.95 8.4 9.8 8.05 9.95 7.7 10.3 7.55 10.65 7.7 10.8 8.05 M17.95 7.7 Q18.1 7.55 18.3 7.55 L18.65 7.7 18.8 8.05 18.65 8.4 18.3 8.55 17.95 8.4 17.8 8.05 Q17.8 7.85 17.95 7.7 M2.65 7.7 L2.8 8.05 2.65 8.4 2.3 8.55 1.95 8.4 1.8 8.05 1.95 7.7 Q2.1 7.55 2.3 7.55 L2.65 7.7 M6.65 7.7 L6.8 8.05 6.65 8.4 6.3 8.55 5.95 8.4 5.8 8.05 Q5.8 7.85 5.95 7.7 6.1 7.55 6.3 7.55 L6.65 7.7 M-6.05 7.7 L-5.7 7.55 Q-5.5 7.55 -5.35 7.7 -5.2 7.85 -5.2 8.05 L-5.35 8.4 -5.7 8.55 -6.05 8.4 -6.2 8.05 -6.05 7.7 M-9.2 8.05 L-9.35 8.4 -9.7 8.55 -10.05 8.4 -10.2 8.05 -10.05 7.7 -9.7 7.55 -9.35 7.7 -9.2 8.05 M-2.05 7.7 L-1.7 7.55 Q-1.5 7.55 -1.35 7.7 L-1.2 8.05 -1.35 8.4 -1.7 8.55 -2.05 8.4 -2.2 8.05 -2.05 7.7 M-18.05 7.7 L-17.7 7.55 Q-17.5 7.55 -17.35 7.7 L-17.2 8.05 -17.35 8.4 -17.7 8.55 -18.05 8.4 -18.2 8.05 -18.05 7.7 M-14.05 7.7 Q-13.9 7.55 -13.7 7.55 L-13.35 7.7 -13.2 8.05 -13.35 8.4 -13.7 8.55 -14.05 8.4 -14.2 8.05 -14.05 7.7 M-26.05 7.7 Q-25.9 7.55 -25.7 7.55 -25.5 7.55 -25.35 7.7 L-25.2 8.05 -25.35 8.4 -25.7 8.55 -26.05 8.4 -26.2 8.05 -26.05 7.7 M-30.05 7.7 L-29.7 7.55 Q-29.5 7.55 -29.35 7.7 L-29.2 8.05 -29.35 8.4 Q-29.5 8.55 -29.7 8.55 L-30.05 8.4 -30.2 8.05 -30.05 7.7 M-22.05 7.7 L-21.7 7.55 Q-21.5 7.55 -21.35 7.7 L-21.2 8.05 -21.35 8.4 -21.7 8.55 -22.05 8.4 -22.2 8.05 -22.05 7.7 M-34.05 7.7 L-33.7 7.55 Q-33.5 7.55 -33.35 7.7 L-33.2 8.05 -33.35 8.4 -33.7 8.55 -34.05 8.4 -34.2 8.05 -34.05 7.7" fill="#55b6e1" fill-rule="evenodd" stroke="none"/>
  </g>
</svg>
