<?xml version="1.0" encoding="UTF-8" standalone="no"?>
<svg xmlns:xlink="http://www.w3.org/1999/xlink" height="3.9px" width="9.15px" xmlns="http://www.w3.org/2000/svg">
  <g transform="matrix(1.0, 0.0, 0.0, 1.0, 0.1, 0.0)">
    <path d="M8.5 0.6 Q9.05 1.15 9.05 1.95 9.05 2.75 8.5 3.3 7.9 3.9 7.1 3.9 6.3 3.9 5.75 3.3 5.15 2.75 5.15 1.95 5.15 1.15 5.75 0.6 6.3 0.0 7.1 0.0 7.9 0.0 8.5 0.6" fill="#324635" fill-rule="evenodd" stroke="none"/>
    <path d="M3.25 0.6 Q3.8 1.15 3.8 1.95 3.8 2.75 3.25 3.3 2.65 3.9 1.85 3.9 1.05 3.9 0.5 3.3 -0.1 2.75 -0.1 1.95 -0.1 1.15 0.5 0.6 1.05 0.0 1.85 0.0 2.65 0.0 3.25 0.6" fill="#324635" fill-rule="evenodd" stroke="none"/>
  </g>
</svg>
