<?xml version="1.0" encoding="UTF-8" standalone="no"?>
<svg xmlns:xlink="http://www.w3.org/1999/xlink" height="17.05px" width="112.95px" xmlns="http://www.w3.org/2000/svg">
  <g transform="matrix(1.0, 0.0, 0.0, 1.0, 56.8, 8.45)">
    <path d="M55.15 -8.2 L55.9 8.35 -56.55 7.95 -55.4 -8.2 55.15 -8.2 M53.6 5.55 L53.6 -5.7 -54.1 -5.7 -54.1 5.55 53.6 5.55" fill="url(#gradient0)" fill-rule="evenodd" stroke="none"/>
    <path d="M55.15 -8.2 L55.9 8.35 M-56.55 7.95 L-55.4 -8.2" fill="none" stroke="#aed9e8" stroke-linecap="round" stroke-linejoin="round" stroke-width="0.5"/>
    <path d="M53.6 -5.7 L53.6 5.55 M-54.1 5.55 L-54.1 -5.7" fill="none" stroke="#073360" stroke-linecap="round" stroke-linejoin="round" stroke-width="0.5"/>
    <path d="M-55.4 -8.2 L55.15 -8.2" fill="none" stroke="#e1f1f7" stroke-linecap="round" stroke-linejoin="round" stroke-width="0.5"/>
    <path d="M55.9 8.35 L-56.55 7.95 M-54.1 -5.7 L53.6 -5.7" fill="none" stroke="#031a30" stroke-linecap="round" stroke-linejoin="round" stroke-width="0.5"/>
    <path d="M53.6 5.55 L-54.1 5.55" fill="none" stroke="#bfe1ee" stroke-linecap="round" stroke-linejoin="round" stroke-width="0.5"/>
  </g>
  <defs>
    <linearGradient gradientTransform="matrix(0.0, -0.0085, 0.0083, 0.0, -0.8, -0.35)" gradientUnits="userSpaceOnUse" id="gradient0" spreadMethod="pad" x1="-819.2" x2="819.2">
      <stop offset="0.0" stop-color="#3483a0"/>
      <stop offset="0.2196078431372549" stop-color="#3e92c0"/>
      <stop offset="1.0" stop-color="#c7e6ed"/>
    </linearGradient>
  </defs>
</svg>
