<?xml version="1.0" encoding="UTF-8" standalone="no"?>
<svg xmlns:xlink="http://www.w3.org/1999/xlink" height="3.9px" width="8.25px" xmlns="http://www.w3.org/2000/svg">
  <g transform="matrix(1.0, 0.0, 0.0, 1.0, -0.35, 0.0)">
    <path d="M8.5 0.6 L8.6 0.7 5.6 0.7 5.75 0.6 Q6.3 0.0 7.1 0.0 7.9 0.0 8.5 0.6 M7.1 3.9 Q6.35 3.9 5.8 3.35 L8.45 3.35 Q7.85 3.9 7.1 3.9" fill="#324635" fill-rule="evenodd" stroke="none"/>
    <path d="M3.25 0.6 L3.35 0.7 0.35 0.7 0.5 0.6 Q1.05 0.0 1.85 0.0 2.65 0.0 3.25 0.6 M1.85 3.9 Q1.1 3.9 0.55 3.35 L3.2 3.35 Q2.6 3.9 1.85 3.9" fill="#324635" fill-rule="evenodd" stroke="none"/>
  </g>
</svg>
