<?xml version="1.0" encoding="UTF-8" standalone="no"?>
<svg xmlns:xlink="http://www.w3.org/1999/xlink" height="20.65px" width="20.6px" xmlns="http://www.w3.org/2000/svg">
  <g transform="matrix(1.0, 0.0, 0.0, 1.0, -0.1, -1.9)">
    <path d="M12.2 10.9 L12.05 10.55 12.85 9.5 Q13.35 8.4 13.7 6.1 L14.05 5.5 13.7 2.05 13.75 2.05 14.15 5.95 13.8 6.55 Q13.45 8.85 12.95 9.95 L12.2 10.9 M9.85 8.7 L9.7 8.8 9.75 8.0 10.1 6.85 10.15 6.5 Q10.35 7.35 9.85 8.45 L9.85 8.7 M7.8 8.1 L7.7 7.95 7.6 5.95 7.8 5.5 7.9 5.95 7.7 6.4 7.8 8.1 M6.65 5.75 L6.85 6.1 6.9 6.5 6.6 5.95 6.65 5.75 M7.7 9.5 L8.55 10.55 8.45 10.75 7.8 9.95 7.65 9.6 7.7 9.5 M1.8 10.5 Q3.1 10.25 4.5 9.45 L6.5 9.9 Q6.8 10.95 7.6 11.45 L8.25 11.65 8.4 12.0 8.25 12.05 7.7 11.9 Q6.9 11.4 6.6 10.35 L4.6 9.9 Q2.25 11.3 0.1 11.0 L1.25 10.85 1.8 10.5 M2.1 14.05 Q3.35 13.3 4.3 12.05 L6.3 12.0 Q7.0 12.6 7.85 12.9 L8.45 12.75 8.35 13.25 7.95 13.35 6.4 12.45 4.4 12.5 Q3.0 14.35 1.0 15.0 L1.95 14.25 2.1 14.05 M4.0 19.4 Q5.3 17.5 5.3 15.8 6.15 14.95 6.6 13.95 7.3 14.15 8.05 13.95 L7.55 14.5 6.7 14.4 Q6.25 15.4 5.4 16.25 5.4 18.3 3.55 20.6 L4.05 19.45 4.0 19.4 M7.1 18.9 Q7.5 20.15 8.75 20.95 9.15 21.55 10.45 22.1 L11.85 20.95 Q13.6 19.85 13.6 17.75 L13.7 17.8 Q13.85 20.2 11.95 21.4 L10.55 22.55 Q9.25 22.0 8.85 21.4 7.35 20.5 7.1 18.9 M13.0 14.45 L12.55 13.95 Q13.3 14.15 14.0 13.95 L15.3 15.8 15.3 16.2 Q14.5 15.35 14.1 14.4 L13.0 14.45 M15.45 17.1 L16.45 19.25 17.0 20.0 17.2 20.6 16.55 19.7 Q15.65 18.35 15.45 17.1 M16.55 18.0 L16.4 17.55 16.7 17.55 16.75 17.55 16.8 18.0 16.55 18.0 M12.2 13.2 Q12.0 12.95 12.1 12.75 L12.7 12.9 Q13.6 12.6 14.3 12.0 L16.25 12.05 16.45 12.3 Q17.45 13.55 18.8 14.2 L18.85 14.25 19.75 15.0 Q17.85 14.4 16.55 12.75 L16.35 12.5 14.4 12.45 12.8 13.35 12.2 13.2 M12.45 12.1 L12.2 12.0 12.35 11.65 13.0 11.45 Q13.75 10.95 14.1 9.9 L16.1 9.45 16.45 9.65 Q17.75 10.35 19.0 10.55 L19.55 10.85 20.7 11.0 Q18.7 11.3 16.55 10.1 L16.2 9.9 14.2 10.35 Q13.85 11.4 13.1 11.9 L12.45 12.1" fill="#17000a" fill-rule="evenodd" stroke="none"/>
    <path d="M13.7 2.05 L14.05 5.5 13.7 6.1 Q13.35 8.4 12.85 9.5 L12.05 10.55 12.2 10.9 12.15 11.0 12.4 11.4 12.8 11.4 13.55 10.15 14.15 9.9 13.75 9.6 Q15.05 8.9 16.55 8.95 L18.35 9.7 18.3 9.7 18.75 10.0 18.4 10.15 19.0 10.55 Q17.75 10.35 16.45 9.65 L16.1 9.45 14.1 9.9 Q13.75 10.95 13.0 11.45 L12.35 11.65 12.2 12.0 12.45 12.1 12.3 12.45 12.85 12.7 14.05 12.05 13.95 11.75 16.7 11.75 18.05 12.7 18.0 12.75 18.25 13.15 18.1 13.2 18.8 14.2 Q17.45 13.55 16.45 12.3 L16.25 12.05 14.3 12.0 Q13.6 12.6 12.7 12.9 L12.1 12.75 Q12.0 12.95 12.2 13.2 L12.2 13.25 Q12.05 13.55 12.6 13.95 13.3 13.65 14.3 13.95 L14.3 13.6 Q15.6 14.35 16.4 15.9 L16.55 16.45 16.7 17.55 16.4 17.55 16.55 18.0 16.8 18.65 16.8 18.75 16.7 19.0 17.1 20.15 17.0 20.0 16.45 19.25 15.45 17.1 15.3 16.2 15.3 15.8 14.0 13.95 Q13.3 14.15 12.55 13.95 L13.0 14.45 13.45 15.45 13.45 16.25 13.6 17.75 Q13.6 19.85 11.85 20.95 L10.45 22.1 Q9.15 21.55 8.75 20.95 7.5 20.15 7.1 18.9 6.95 17.9 7.25 16.7 L7.25 15.9 Q7.45 14.95 8.15 14.4 L7.55 14.5 8.05 13.95 Q7.3 14.15 6.6 13.95 6.15 14.95 5.3 15.8 5.3 17.5 4.0 19.4 L3.9 19.1 3.95 19.0 4.3 18.0 4.05 18.0 4.2 17.55 4.0 17.55 4.4 15.9 Q5.2 14.35 6.5 13.6 L6.5 13.95 Q7.45 13.65 8.15 13.95 8.7 13.55 8.55 13.2 L8.35 13.25 8.45 12.75 7.85 12.9 Q7.0 12.6 6.3 12.0 L4.3 12.05 Q3.35 13.3 2.1 14.05 L2.7 13.2 2.35 13.1 2.5 12.9 4.05 11.75 6.85 11.75 6.75 12.05 7.9 12.7 8.5 12.45 8.35 12.1 8.25 12.05 8.4 12.0 8.25 11.65 7.6 11.45 Q6.8 10.95 6.5 9.9 L4.5 9.45 Q3.1 10.25 1.8 10.5 L2.4 10.15 1.95 9.95 Q3.05 9.3 4.25 8.95 5.45 8.9 6.6 9.4 L6.55 9.45 7.0 9.65 6.65 9.9 7.25 10.15 8.0 11.4 8.4 11.4 8.65 11.0 8.45 10.75 8.55 10.55 7.7 9.5 7.2 7.95 6.9 6.5 6.85 6.1 6.65 5.75 7.05 1.9 7.8 5.5 7.6 5.95 7.7 7.95 7.8 8.1 8.4 8.95 8.6 10.0 8.95 10.2 9.15 9.45 9.25 9.3 Q9.25 8.65 9.5 8.05 L10.1 6.85 9.75 8.0 9.7 8.8 9.85 8.7 9.8 9.25 10.35 9.05 10.4 9.05 11.0 9.25 10.95 8.45 10.85 8.25 10.85 8.0 10.6 7.4 Q10.55 6.95 10.65 6.5 10.75 7.4 11.3 8.05 L11.35 8.25 11.4 8.85 11.5 8.95 11.5 9.3 11.65 9.45 11.85 10.2 12.15 10.0 12.3 9.4 13.0 8.4 13.05 6.4 12.95 6.15 12.95 5.95 12.9 5.8 13.7 2.05" fill="url(#gradient0)" fill-rule="evenodd" stroke="none"/>
  </g>
  <defs>
    <radialGradient cx="0" cy="0" gradientTransform="matrix(0.0069, 2.0E-4, -4.0E-4, 0.012, 10.5, 13.7)" gradientUnits="userSpaceOnUse" id="gradient0" r="819.2" spreadMethod="pad">
      <stop offset="0.0" stop-color="#783636" stop-opacity="0.17254902"/>
      <stop offset="1.0" stop-color="#281313" stop-opacity="0.6313726"/>
    </radialGradient>
  </defs>
</svg>
