<?xml version="1.0" encoding="UTF-8" standalone="no"?>
<svg xmlns:xlink="http://www.w3.org/1999/xlink" height="86.8px" width="62.95px" xmlns="http://www.w3.org/2000/svg">
  <g transform="matrix(1.0, 0.0, 0.0, 1.0, 36.1, 64.15)">
    <path d="M25.65 -58.8 L25.65 20.7 25.95 20.85 26.1 21.2 25.95 21.55 25.6 21.7 -4.3 21.25 -4.65 21.1 Q-15.4 9.2 -36.0 -19.85 L-36.1 -20.15 -36.0 -20.45 Q-22.95 -38.9 -4.65 -59.15 L-4.65 -59.2 -4.3 -59.35 25.65 -59.8 26.0 -59.65 26.15 -59.3 26.0 -58.95 25.65 -58.8" fill="#020e15" fill-opacity="0.38039216" fill-rule="evenodd" stroke="none"/>
    <path d="M26.35 -56.75 L26.35 15.9 26.3 15.9 -3.0 15.45 Q-20.9 -3.35 -33.7 -20.45 -20.9 -37.55 -3.0 -56.35 L26.35 -56.75 M26.35 15.9 L26.3 15.9 26.35 15.9" fill="url(#gradient0)" fill-rule="evenodd" stroke="none"/>
    <path d="M-3.0 15.45 Q-20.9 -3.35 -33.7 -20.45 -20.9 -37.55 -3.0 -56.35" fill="none" stroke="#be6b6b" stroke-linecap="round" stroke-linejoin="round" stroke-width="1.0"/>
    <path d="M26.3 15.9 L-3.0 15.45 M-3.0 -56.35 L26.35 -56.75" fill="none" stroke="#7b3939" stroke-linecap="round" stroke-linejoin="round" stroke-width="1.0"/>
    <path d="M26.3 15.9 L26.35 15.9" fill="none" stroke="#cf9696" stroke-linecap="round" stroke-linejoin="round" stroke-width="1.0"/>
    <path d="M11.45 -62.15 Q9.8 -61.1 9.15 -59.65 8.45 -58.3 9.35 -56.2 L9.95 -56.0 10.85 -58.7 11.3 -59.0 11.8 -58.95 12.7 -59.15 13.3 -58.95 13.9 -57.4 13.95 -56.4 Q13.8 -55.4 13.05 -54.7 12.45 -54.15 11.3 -53.75 9.95 -54.3 9.05 -55.2 8.4 -55.6 8.15 -56.3 7.85 -56.95 7.85 -57.8 L7.9 -59.15 Q8.15 -60.95 9.55 -62.15 11.65 -64.15 14.2 -64.15 16.05 -63.9 17.5 -62.8 19.55 -61.15 20.3 -58.25 20.7 -56.4 20.55 -54.75 L21.6 -54.95 24.0 -55.05 Q24.3 -55.15 24.85 -53.95 L26.0 -53.45 26.0 11.95 24.85 12.45 Q24.3 13.6 24.0 13.55 L21.6 13.45 20.55 13.25 Q20.7 14.9 20.3 16.75 19.55 19.6 17.5 21.25 16.05 22.35 14.2 22.65 11.65 22.65 9.55 20.65 8.15 19.45 7.9 17.65 L7.85 16.25 Q7.85 15.45 8.15 14.8 8.4 14.05 9.05 13.65 9.95 12.8 11.3 12.25 12.45 12.65 13.05 13.2 13.8 13.85 13.95 14.9 L13.9 15.9 13.3 17.45 12.7 17.65 11.8 17.45 11.3 17.5 10.85 17.2 9.95 14.5 9.35 14.7 Q8.45 16.75 9.15 18.15 9.8 19.6 11.45 20.65 L11.85 20.5 15.55 20.35 Q16.25 19.65 16.75 19.4 16.9 19.15 17.15 19.2 18.45 16.85 17.8 14.3 L17.15 12.9 16.0 11.4 15.2 11.0 11.9 9.05 6.35 9.35 5.75 9.4 1.1 9.7 -3.45 10.3 Q-5.05 10.75 -6.45 11.75 L-7.4 12.75 Q-8.3 13.8 -8.45 14.85 L-8.45 16.85 -8.25 18.9 Q-10.5 15.85 -10.2 13.8 -9.9 11.75 -9.8 7.55 L-9.6 6.25 -10.2 5.15 -10.65 4.05 -11.3 3.15 Q-12.05 2.35 -12.9 2.1 -14.2 -1.3 -14.3 -2.3 L-15.55 -2.35 -18.2 -2.15 -19.55 -1.85 Q-22.05 -2.6 -23.8 -4.45 -25.85 -6.6 -26.2 -9.2 -26.5 -11.1 -25.65 -12.75 -24.3 -15.0 -21.55 -15.7 L-18.1 -15.5 -16.9 -14.85 -15.75 -13.8 Q-15.3 -13.15 -15.3 -12.45 -15.1 -11.1 -15.25 -9.8 L-17.05 -8.75 -18.95 -8.9 -19.75 -9.5 -20.75 -10.85 -20.6 -11.35 -20.0 -12.1 -19.75 -12.55 -19.25 -12.75 -16.5 -12.1 -16.3 -12.7 Q-17.65 -14.55 -19.2 -14.7 -20.75 -14.9 -22.5 -14.1 L-22.65 -13.65 Q-24.55 -12.55 -24.4 -10.35 L-24.2 -8.9 Q-24.15 -8.65 -24.25 -8.45 -23.0 -6.1 -20.4 -5.3 L-18.9 -5.1 -14.05 -5.7 Q-8.65 -9.2 -8.7 -12.4 -8.8 -16.1 -11.2 -19.95 L-11.2 -21.55 Q-8.8 -25.4 -8.7 -29.1 -8.65 -32.35 -14.05 -35.8 L-18.9 -36.4 -20.4 -36.2 Q-23.0 -35.4 -24.25 -33.05 L-24.2 -32.6 -24.4 -31.15 Q-24.55 -28.95 -22.65 -27.85 L-22.5 -27.4 Q-20.75 -26.6 -19.2 -26.8 -17.65 -27.0 -16.3 -28.8 L-16.5 -29.4 -19.25 -28.75 -19.75 -28.95 -20.0 -29.4 -20.6 -30.15 -20.75 -30.65 -19.75 -32.0 -18.95 -32.6 -17.05 -32.75 -15.25 -31.7 Q-15.1 -30.4 -15.3 -29.05 -15.3 -28.4 -15.75 -27.7 L-16.9 -26.65 -18.1 -26.0 -21.55 -25.85 Q-24.3 -26.55 -25.65 -28.75 -26.5 -30.4 -26.2 -32.3 -25.85 -34.95 -23.8 -37.05 -22.05 -38.95 -19.55 -39.65 L-18.2 -39.35 -15.55 -39.15 -14.3 -39.2 Q-14.2 -40.25 -12.9 -43.65 -12.05 -43.9 -11.3 -44.65 L-10.65 -45.55 -10.2 -46.65 -9.6 -47.75 -9.8 -49.05 Q-9.9 -53.25 -10.2 -55.3 -10.5 -57.4 -8.25 -60.4 L-8.45 -58.35 -8.45 -56.35 Q-8.3 -55.3 -7.4 -54.25 L-6.45 -53.25 Q-5.05 -52.3 -3.45 -51.8 L1.1 -51.2 5.75 -50.9 6.35 -50.85 11.9 -50.55 15.2 -52.5 16.0 -52.9 17.15 -54.4 17.8 -55.8 Q18.45 -58.35 17.15 -60.7 16.9 -60.7 16.75 -60.9 16.25 -61.15 15.55 -61.85 L11.85 -62.0 11.45 -62.15 M-11.7 -20.8 L-11.7 -20.75 -11.75 -20.8 -11.7 -20.8" fill="#020e15" fill-opacity="0.38039216" fill-rule="evenodd" stroke="none"/>
    <path d="M-11.3 -20.75 L-11.3 -20.8 -11.25 -20.8 -11.3 -20.75" fill="url(#gradient1)" fill-rule="evenodd" stroke="none"/>
    <path d="M17.35 -61.95 Q19.35 -60.35 20.1 -57.5 20.5 -55.7 20.35 -54.1 L21.35 -54.3 23.7 -54.4 Q24.0 -54.45 24.55 -53.3 L25.65 -52.8 25.65 11.3 24.55 11.8 Q24.0 12.95 23.7 12.9 L21.35 12.8 20.35 12.6 Q20.5 14.2 20.1 16.0 19.35 18.85 17.35 20.45 15.95 21.55 14.1 21.8 11.6 21.8 9.55 19.85 8.2 18.65 7.95 16.9 L7.9 15.55 Q7.9 14.75 8.15 14.1 8.45 13.4 9.05 13.0 L11.25 11.6 Q12.4 12.0 13.0 12.55 13.75 13.2 13.85 14.2 L13.8 15.2 13.2 16.7 12.65 16.9 11.75 16.7 11.25 16.75 10.8 16.45 9.95 13.8 9.35 14.0 Q8.5 16.05 9.15 17.4 9.8 18.8 11.4 19.85 L11.8 19.7 15.45 19.55 16.6 18.6 Q16.75 18.4 17.0 18.4 18.3 16.1 17.65 13.6 L17.0 12.25 15.85 10.75 15.1 10.4 11.85 8.45 6.4 8.75 5.8 8.8 1.25 9.1 -3.15 9.7 Q-4.75 10.15 -6.15 11.1 L-7.05 12.1 Q-7.95 13.15 -8.1 14.15 L-8.1 16.1 -7.9 18.15 Q-10.1 15.15 -9.8 13.15 -9.5 11.1 -9.4 7.0 L-9.25 5.75 -9.8 4.65 -10.25 3.6 -10.85 2.7 Q-11.6 1.9 -12.45 1.7 -13.7 -1.65 -13.8 -2.65 L-15.05 -2.7 -17.65 -2.5 -19.0 -2.2 Q-21.4 -2.95 -23.15 -4.75 -25.15 -6.85 -25.5 -9.4 -25.75 -11.3 -24.95 -12.9 -23.65 -15.1 -20.9 -15.75 L-17.55 -15.6 -16.4 -14.95 -15.25 -13.9 Q-14.8 -13.3 -14.8 -12.6 -14.6 -11.3 -14.75 -10.0 -15.65 -9.3 -16.5 -9.0 L-18.35 -9.15 -19.15 -9.7 -20.15 -11.0 -20.0 -11.55 -19.4 -12.25 -19.2 -12.7 -18.7 -12.9 -15.95 -12.25 -15.8 -12.85 Q-17.1 -14.65 -18.6 -14.8 -20.15 -15.0 -21.85 -14.2 L-22.0 -13.8 Q-23.85 -12.7 -23.75 -10.55 L-23.55 -9.1 -23.55 -8.65 Q-22.35 -6.4 -19.8 -5.6 L-18.3 -5.4 -13.55 -6.0 Q-8.3 -9.4 -8.35 -12.55 -8.45 -16.2 -10.8 -19.95 L-10.8 -21.5 Q-8.45 -25.3 -8.35 -28.95 -8.3 -32.1 -13.55 -35.5 L-18.3 -36.05 -19.8 -35.9 Q-22.35 -35.1 -23.55 -32.8 L-23.55 -32.35 -23.75 -30.9 Q-23.85 -28.8 -22.0 -27.7 L-21.85 -27.25 Q-20.15 -26.5 -18.6 -26.65 -17.1 -26.85 -15.8 -28.6 L-15.95 -29.2 -18.7 -28.55 -19.2 -28.8 -19.4 -29.2 -20.0 -29.95 -20.15 -30.45 -19.15 -31.75 -18.35 -32.35 -16.5 -32.5 Q-15.65 -32.2 -14.75 -31.5 -14.6 -30.2 -14.8 -28.85 -14.8 -28.2 -15.25 -27.55 L-16.4 -26.55 -17.55 -25.9 -20.9 -25.7 Q-23.65 -26.4 -24.95 -28.55 -25.75 -30.2 -25.5 -32.05 -25.15 -34.65 -23.15 -36.75 -21.4 -38.55 -19.0 -39.3 L-17.65 -39.0 -15.05 -38.75 -13.8 -38.85 Q-13.7 -39.85 -12.45 -43.15 -11.6 -43.4 -10.85 -44.2 L-10.25 -45.05 -9.8 -46.15 -9.25 -47.2 -9.4 -48.45 Q-9.5 -52.6 -9.8 -54.6 -10.1 -56.65 -7.9 -59.6 L-8.1 -57.6 -8.1 -55.65 Q-7.95 -54.65 -7.05 -53.55 L-6.15 -52.6 Q-4.75 -51.65 -3.15 -51.2 L1.25 -50.6 5.8 -50.3 6.4 -50.25 11.85 -49.95 15.1 -51.9 15.85 -52.25 17.0 -53.75 17.65 -55.1 Q18.3 -57.6 17.0 -59.9 16.75 -59.9 16.6 -60.1 L15.45 -61.05 11.8 -61.2 11.4 -61.35 Q9.8 -60.3 9.15 -58.9 8.5 -57.55 9.35 -55.5 L9.95 -55.3 10.8 -57.95 11.25 -58.25 11.75 -58.2 12.65 -58.4 13.2 -58.2 13.8 -56.7 13.85 -55.7 Q13.75 -54.7 13.0 -54.05 12.4 -53.5 11.25 -53.1 L9.05 -54.5 Q8.45 -54.9 8.15 -55.6 7.9 -56.25 7.9 -57.05 L7.95 -58.4 Q8.2 -60.15 9.55 -61.35 11.6 -63.3 14.1 -63.3 15.95 -63.05 17.35 -61.95" fill="url(#gradient2)" fill-rule="evenodd" stroke="none"/>
    <path d="M-7.85 -20.8 L-7.95 -20.7 -8.0 -20.8 -7.85 -20.8" fill="url(#gradient3)" fill-rule="evenodd" stroke="none"/>
    <path d="M23.7 -50.8 L24.55 -50.7 Q24.9 -50.55 25.65 -48.7 L25.65 7.3 Q24.9 9.15 24.55 9.3 L23.7 9.4 21.35 9.3 15.1 6.9 15.05 6.85 11.85 4.95 6.4 5.25 5.8 5.3 1.25 5.35 -3.15 5.7 Q-4.65 6.1 -5.9 6.95 L-6.8 3.75 -7.25 2.7 -7.85 1.8 Q-8.6 1.0 -9.45 0.8 -10.7 -2.5 -11.1 -5.05 -5.0 -9.4 -5.05 -12.55 -5.15 -16.15 -7.45 -19.9 L-7.45 -21.45 Q-5.15 -25.25 -5.05 -28.85 -5.0 -32.0 -11.1 -36.35 -10.7 -38.9 -9.45 -42.15 -8.6 -42.4 -7.85 -43.2 L-7.25 -44.05 -6.8 -45.15 -5.9 -48.35 Q-4.65 -47.5 -3.15 -47.1 L1.25 -46.75 5.8 -46.7 6.4 -46.65 11.85 -46.35 15.05 -48.25 15.1 -48.3 21.35 -50.7 23.7 -50.8" fill="url(#gradient4)" fill-rule="evenodd" stroke="none"/>
  </g>
  <defs>
    <linearGradient gradientTransform="matrix(-0.0173, 0.0012, -0.0101, 0.1323, -9.8, 26.3)" gradientUnits="userSpaceOnUse" id="gradient0" spreadMethod="pad" x1="-819.2" x2="819.2">
      <stop offset="0.0" stop-color="#000000"/>
      <stop offset="1.0" stop-color="#6d3030"/>
    </linearGradient>
    <linearGradient gradientTransform="matrix(0.0116, -0.0105, 0.017, 0.0188, 2.75, -7.2)" gradientUnits="userSpaceOnUse" id="gradient1" spreadMethod="pad" x1="-819.2" x2="819.2">
      <stop offset="0.0" stop-color="#1c9ee3"/>
      <stop offset="1.0" stop-color="#094176"/>
    </linearGradient>
    <linearGradient gradientTransform="matrix(0.0203, 0.0055, 0.0066, -0.0244, 3.15, -35.4)" gradientUnits="userSpaceOnUse" id="gradient2" spreadMethod="pad" x1="-819.2" x2="819.2">
      <stop offset="0.0" stop-color="#1c9ee3"/>
      <stop offset="1.0" stop-color="#094176"/>
    </linearGradient>
    <linearGradient gradientTransform="matrix(0.0122, -0.0112, 0.0118, 0.0128, 1.3, -6.2)" gradientUnits="userSpaceOnUse" id="gradient3" spreadMethod="pad" x1="-819.2" x2="819.2">
      <stop offset="0.0" stop-color="#ddf3fb" stop-opacity="0.6901961"/>
      <stop offset="1.0" stop-color="#0f64b9" stop-opacity="0.0"/>
    </linearGradient>
    <radialGradient cx="0" cy="0" gradientTransform="matrix(0.0642, 0.0, 0.0, 0.0974, -6.7, -22.9)" gradientUnits="userSpaceOnUse" id="gradient4" r="819.2" spreadMethod="pad">
      <stop offset="0.0" stop-color="#ddf3fb" stop-opacity="0.6901961"/>
      <stop offset="1.0" stop-color="#0f64b9" stop-opacity="0.0"/>
    </radialGradient>
  </defs>
</svg>
