<?xml version="1.0" encoding="UTF-8" standalone="no"?>
<svg xmlns:xlink="http://www.w3.org/1999/xlink" height="38.3px" width="38.3px" xmlns="http://www.w3.org/2000/svg">
  <g transform="matrix(1.0, 0.0, 0.0, 1.0, 19.15, 21.2)">
    <path d="M4.55 -13.7 L6.2 -21.2 6.95 -13.65 6.3 -12.5 Q5.7 -8.3 4.7 -6.3 L3.2 -4.3 Q3.3 -3.85 3.7 -3.55 L4.45 -3.55 5.8 -5.8 6.95 -6.35 6.15 -6.85 Q8.6 -8.15 11.35 -8.1 L11.45 -8.1 Q13.55 -7.45 15.65 -6.25 L14.85 -5.85 16.95 -4.55 19.15 -4.35 Q15.45 -3.8 11.45 -6.0 L10.7 -6.35 Q8.85 -5.65 7.05 -5.5 6.4 -3.6 5.0 -2.6 L3.85 -2.25 3.5 -1.6 4.55 -1.1 Q5.65 -2.05 6.8 -2.4 L6.55 -2.9 11.7 -2.9 15.05 -0.45 14.25 -0.25 15.65 1.75 15.7 1.75 17.35 3.1 Q13.85 2.0 11.45 -1.1 L11.0 -1.55 Q9.15 -1.15 7.4 -1.6 6.1 -0.45 4.5 0.1 L3.35 -0.2 Q3.05 0.45 4.1 1.15 5.35 0.65 7.25 1.15 L7.25 0.5 Q9.6 1.95 11.15 4.85 L11.45 5.85 11.9 8.65 11.3 8.65 12.05 10.75 11.85 11.4 12.65 13.55 11.45 11.9 Q9.25 8.5 9.25 5.5 7.7 3.95 6.9 2.0 5.55 2.35 4.15 2.0 5.4 3.05 5.8 4.85 L5.8 6.25 Q7.15 12.3 2.9 14.95 2.05 16.15 0.3 17.1 -2.1 16.15 -2.95 14.95 -7.25 12.3 -5.85 6.25 L-5.85 4.85 Q-5.5 3.05 -4.2 2.0 -5.6 2.35 -6.9 2.0 -7.75 3.95 -9.3 5.5 -9.3 9.3 -12.7 13.55 L-11.85 11.4 -12.1 10.75 -11.35 8.65 -11.95 8.65 Q-11.85 6.9 -11.2 4.85 -9.65 1.95 -7.25 0.5 L-7.25 1.15 Q-5.45 0.65 -4.15 1.15 -3.15 0.45 -3.45 -0.2 L-4.55 0.1 Q-6.15 -0.45 -7.4 -1.6 -9.2 -1.15 -11.1 -1.55 -13.7 1.95 -17.45 3.1 L-15.7 1.75 -14.3 -0.25 -15.05 -0.45 -11.8 -2.9 -6.6 -2.9 -6.85 -2.4 Q-5.7 -2.05 -4.6 -1.1 L-3.5 -1.6 -3.85 -2.25 -5.05 -2.6 Q-6.45 -3.6 -7.05 -5.5 -8.95 -5.65 -10.8 -6.35 -15.15 -3.75 -19.15 -4.35 L-17.0 -4.55 -14.9 -5.85 -15.7 -6.25 Q-13.6 -7.45 -11.45 -8.1 -8.75 -8.15 -6.25 -6.85 L-7.0 -6.35 -5.85 -5.8 -4.5 -3.55 -3.75 -3.55 Q-3.35 -3.85 -3.3 -4.3 L-4.8 -6.3 Q-5.8 -8.3 -6.35 -12.5 L-7.0 -13.65 -6.25 -21.2 -4.6 -13.7 -5.0 -12.8 -4.85 -9.1 -3.55 -7.25 -3.3 -6.15 -2.7 -5.75 -2.35 -7.15 -2.15 -7.45 -1.7 -9.8 Q-0.7 -11.0 -0.45 -12.65 -0.1 -11.05 -1.05 -9.05 L-1.1 -7.5 Q-0.7 -7.9 -0.05 -7.9 L1.1 -7.5 1.0 -9.05 Q0.05 -11.05 0.45 -12.65 0.6 -11.0 1.6 -9.8 L2.05 -7.45 2.25 -7.15 2.7 -5.75 3.25 -6.15 3.55 -7.25 4.8 -9.1 4.95 -12.8 4.55 -13.7" fill="url(#gradient0)" fill-rule="evenodd" stroke="none"/>
  </g>
  <defs>
    <radialGradient cx="0" cy="0" gradientTransform="matrix(0.0316, 0.0, 0.0, 0.0205, 0.0, 13.85)" gradientUnits="userSpaceOnUse" id="gradient0" r="819.2" spreadMethod="pad">
      <stop offset="0.24705882352941178" stop-color="#d0e4f7" stop-opacity="0.0"/>
      <stop offset="1.0" stop-color="#ffffff"/>
    </radialGradient>
  </defs>
</svg>
