<?xml version="1.0" encoding="UTF-8" standalone="no"?>
<svg xmlns:xlink="http://www.w3.org/1999/xlink" height="13.75px" width="7.8px" xmlns="http://www.w3.org/2000/svg">
  <g transform="matrix(1.0, 0.0, 0.0, 1.0, 5.15, -0.8)">
    <path d="M1.65 4.65 Q2.3 5.05 2.55 6.0 2.9 10.65 1.2 14.35 L-2.1 14.5 -2.75 13.2 Q-3.05 10.55 -2.55 5.6 0.35 3.9 1.65 4.65 M-2.25 1.5 Q-0.6 0.4 1.55 1.05 3.25 2.9 2.3 4.0 L1.7 3.9 Q-0.8 3.55 -2.55 4.65 -3.15 3.05 -2.25 1.5" fill="#b6ada8" fill-rule="evenodd" stroke="none"/>
    <path d="M1.7 3.9 Q1.6 4.15 1.65 4.65 0.35 3.9 -2.55 5.6 L-2.55 4.65 Q-0.8 3.55 1.7 3.9" fill="#473f3d" fill-rule="evenodd" stroke="none"/>
    <path d="M-4.0 7.05 Q-4.25 6.65 -5.0 6.5 L-2.55 4.65 -2.55 5.6 Q-3.55 6.15 -4.0 7.05" fill="#0e1a27" fill-rule="evenodd" stroke="none"/>
    <path d="M-2.75 13.2 L-4.35 8.8 Q-4.5 7.8 -4.0 7.05 -3.55 6.15 -2.55 5.6 -3.05 10.55 -2.75 13.2 M-5.0 6.5 L-5.15 4.95 Q-3.9 3.05 -2.25 1.5 -3.15 3.05 -2.55 4.65 L-5.0 6.5" fill="#8a7c75" fill-rule="evenodd" stroke="none"/>
    <path d="M1.65 4.65 Q2.3 5.05 2.55 6.0 2.9 10.65 1.2 14.35 L-2.1 14.5 -2.75 13.2 -4.35 8.8 M-5.0 6.5 L-5.15 4.95 Q-3.9 3.05 -2.25 1.5 -0.6 0.4 1.55 1.05 3.25 2.9 2.3 4.0 L1.7 3.9 Q1.6 4.15 1.65 4.65" fill="none" stroke="#1d3450" stroke-linecap="round" stroke-linejoin="round" stroke-width="0.05"/>
    <path d="M-4.35 8.8 Q-4.5 7.8 -4.0 7.05 -3.55 6.15 -2.55 5.6 M-2.55 4.65 L-5.0 6.5" fill="none" stroke="#333333" stroke-linecap="round" stroke-linejoin="round" stroke-width="0.05"/>
    <path d="M1.65 4.65 Q0.35 3.9 -2.55 5.6 M1.7 3.9 Q-0.8 3.55 -2.55 4.65" fill="none" stroke="#303030" stroke-linecap="round" stroke-linejoin="round" stroke-width="0.05"/>
  </g>
</svg>
