<?xml version="1.0" encoding="UTF-8" standalone="no"?>
<svg xmlns:xlink="http://www.w3.org/1999/xlink" height="23.6px" width="10.45px" xmlns="http://www.w3.org/2000/svg">
  <g transform="matrix(1.0, 0.0, 0.0, 1.0, 7.55, 1.3)">
    <path d="M-6.05 3.95 Q-5.4 0.15 0.1 -1.3 L0.25 1.3 Q-0.6 3.25 -3.85 3.75 L-6.05 3.95" fill="#363833" fill-rule="evenodd" stroke="none"/>
    <path d="M-1.3 20.75 Q-2.3 22.05 -4.05 22.3 L-5.35 21.0 Q-3.7 19.0 -1.35 18.2 L-1.35 18.25 Q-0.7 19.2 -1.3 20.75" fill="#404040" fill-rule="evenodd" stroke="none"/>
    <path d="M-5.35 21.0 L-5.95 20.0 -6.15 16.75 -5.9 12.05 Q-5.55 8.25 -3.85 3.75 -0.6 3.25 0.25 1.3 L1.95 1.15 Q0.65 15.1 -1.35 18.2 -3.7 19.0 -5.35 21.0" fill="#b6ada8" fill-rule="evenodd" stroke="none"/>
    <path d="M1.95 1.15 Q3.4 3.65 2.6 10.1 1.75 16.5 0.35 19.35 -1.05 22.2 -1.3 20.75 -0.7 19.2 -1.35 18.25 L-1.35 18.2 Q0.65 15.1 1.95 1.15 M-5.95 20.0 Q-7.0 18.45 -7.15 17.1 L-7.5 11.15 Q-7.7 6.55 -6.5 4.0 L-6.05 3.95 -3.85 3.75 Q-5.55 8.25 -5.9 12.05 L-6.15 16.75 -5.95 20.0" fill="#8a7c75" fill-rule="evenodd" stroke="none"/>
    <path d="M1.95 1.15 Q3.4 3.65 2.6 10.1 1.75 16.5 0.35 19.35 -1.05 22.2 -1.3 20.75 -0.7 19.2 -1.35 18.25 L-1.35 18.2 Q-3.7 19.0 -5.35 21.0 L-5.95 20.0 Q-7.0 18.45 -7.15 17.1 L-7.5 11.15 Q-7.7 6.55 -6.5 4.0 L-6.05 3.95 Q-5.4 0.15 0.1 -1.3 L0.25 1.3 1.95 1.15 M-3.85 3.75 L-6.05 3.95 M-3.85 3.75 Q-0.6 3.25 0.25 1.3" fill="none" stroke="#301820" stroke-linecap="round" stroke-linejoin="round" stroke-width="0.05"/>
  </g>
</svg>
