<?xml version="1.0" encoding="UTF-8" standalone="no"?>
<svg xmlns:xlink="http://www.w3.org/1999/xlink" height="8.4px" width="8.8px" xmlns="http://www.w3.org/2000/svg">
  <g transform="matrix(1.0, 0.0, 0.0, 1.0, 4.8, -0.55)">
    <path d="M1.85 7.9 L1.0 5.5 -0.85 4.4 -0.6 3.2 Q-0.05 2.05 0.75 1.2 -0.05 2.05 -0.6 3.2 L-0.85 4.4 -1.2 5.05 Q-1.55 5.8 -3.95 6.75 L-4.8 5.65 -4.35 4.25 -2.65 1.2 Q0.3 0.15 0.75 1.2 L1.5 0.55 Q2.95 0.35 3.85 2.4 4.2 4.0 3.85 5.6 L1.85 7.9 M-0.6 3.2 Q-0.95 2.45 -1.85 2.85 -2.7 3.25 -2.85 4.55 L-3.5 5.15 -2.85 4.55 Q-2.7 3.25 -1.85 2.85 -0.95 2.45 -0.6 3.2" fill="#b6ada8" fill-rule="evenodd" stroke="none"/>
    <path d="M-0.85 4.4 L1.0 5.5 1.85 7.9 -0.3 8.95 Q0.85 6.75 -0.35 5.95 L-1.2 5.05 -0.85 4.4" fill="#8a7c75" fill-rule="evenodd" stroke="none"/>
    <path d="M1.85 7.9 L3.85 5.6 Q4.2 4.0 3.85 2.4 2.95 0.35 1.5 0.55 L0.75 1.2 Q-0.05 2.05 -0.6 3.2 L-0.85 4.4 -1.2 5.05 -0.35 5.95 Q0.85 6.75 -0.3 8.95 L1.85 7.9 M-3.5 5.15 L-2.85 4.55 Q-2.7 3.25 -1.85 2.85 -0.95 2.45 -0.6 3.2 M-1.2 5.05 Q-1.55 5.8 -3.95 6.75 L-4.8 5.65 -4.35 4.25 -2.65 1.2 Q0.3 0.15 0.75 1.2" fill="none" stroke="#333333" stroke-linecap="round" stroke-linejoin="round" stroke-width="0.05"/>
  </g>
</svg>
