<?xml version="1.0" encoding="UTF-8" standalone="no"?>
<svg xmlns:xlink="http://www.w3.org/1999/xlink" height="10.3px" width="4.45px" xmlns="http://www.w3.org/2000/svg">
  <g transform="matrix(1.0, 0.0, 0.0, 1.0, 2.6, -2.3)">
    <path d="M-2.35 5.85 L-0.1 6.0 Q0.9 6.35 1.6 7.5 L1.35 11.4 Q0.8 12.45 -0.65 12.6 -1.9 12.45 -2.35 11.55 L-2.35 5.85" fill="#3c6885" fill-rule="evenodd" stroke="none"/>
    <path d="M-2.35 5.85 L-2.6 2.35 -0.25 2.45 Q0.8 2.65 1.85 3.15 L1.6 7.5 Q0.9 6.35 -0.1 6.0 L-2.35 5.85" fill="#224156" fill-rule="evenodd" stroke="none"/>
    <path d="M1.6 7.5 L1.85 3.15 Q0.8 2.65 -0.25 2.45 L-2.6 2.35 -2.35 5.85 -2.35 11.55 Q-1.9 12.45 -0.65 12.6 0.8 12.45 1.35 11.4 L1.6 7.5 Z" fill="none" stroke="#000000" stroke-linecap="round" stroke-linejoin="round" stroke-width="0.05"/>
  </g>
</svg>
