<?xml version="1.0" encoding="UTF-8" standalone="no"?>
<svg xmlns:xlink="http://www.w3.org/1999/xlink" height="11.45px" width="11.1px" xmlns="http://www.w3.org/2000/svg">
  <g transform="matrix(1.0, 0.0, 0.0, 1.0, 7.2, 6.3)">
    <path d="M-6.85 0.0 L-6.7 -0.55 Q-6.05 -5.05 -0.8 -5.7 L0.25 -3.5 0.8 -1.95 0.7 -1.05 0.2 -0.2 -1.3 0.6 -2.85 1.0 -4.1 1.15 -5.1 1.2 Q-6.55 0.95 -6.85 0.0" fill="#ebebeb" fill-rule="evenodd" stroke="none"/>
    <path d="M-0.8 -5.7 L0.85 -6.3 1.5 -4.75 3.9 0.35 3.2 0.85 3.2 1.3 3.15 1.75 3.15 1.8 3.0 2.15 Q2.75 2.85 1.0 4.1 L0.25 4.5 -5.4 5.15 Q-6.4 5.1 -6.65 3.95 -7.65 0.8 -6.85 0.0 -6.55 0.95 -5.1 1.2 L-4.1 1.15 -2.85 1.0 -1.3 0.6 0.2 -0.2 0.7 -1.05 0.8 -1.95 0.25 -3.5 -0.8 -5.7" fill="#204057" fill-rule="evenodd" stroke="none"/>
    <path d="M-0.8 -5.7 L0.85 -6.3 1.5 -4.75 3.9 0.35 3.2 0.85 3.2 1.3 3.15 1.75 3.15 1.8 3.0 2.15 Q2.75 2.85 1.0 4.1 L0.25 4.5 -5.4 5.15 Q-6.4 5.1 -6.65 3.95 -7.65 0.8 -6.85 0.0" fill="none" stroke="#204057" stroke-linecap="round" stroke-linejoin="round" stroke-width="0.05"/>
    <path d="M-6.85 0.0 L-6.7 -0.55 Q-6.05 -5.05 -0.8 -5.7 L0.25 -3.5 0.8 -1.95 0.7 -1.05 0.2 -0.2 -1.3 0.6 -2.85 1.0 -4.1 1.15 -5.1 1.2 Q-6.55 0.95 -6.85 0.0" fill="none" stroke="#204057" stroke-linecap="round" stroke-linejoin="round" stroke-width="0.05"/>
  </g>
</svg>
