<?xml version="1.0" encoding="UTF-8" standalone="no"?>
<svg xmlns:xlink="http://www.w3.org/1999/xlink" height="31.4px" width="11.4px" xmlns="http://www.w3.org/2000/svg">
  <g transform="matrix(1.0, 0.0, 0.0, 1.0, 7.05, 31.05)">
    <path d="M2.1 -0.45 L2.05 -0.4 -1.25 0.35 Q-4.7 0.25 -5.8 -0.5 -6.3 -0.9 -6.3 -1.35 L-6.65 -5.35 -7.05 -13.3 -6.9 -17.5 Q-6.5 -23.4 -6.15 -24.5 L-5.5 -27.05 -4.7 -30.6 0.3 -30.4 Q1.6 -26.9 2.75 -25.2 L3.0 -24.8 Q3.6 -7.7 2.75 -2.45 L2.45 -1.15 2.1 -0.45 M-1.05 -24.85 L-0.45 -25.35 Q0.1 -26.05 0.05 -26.9 -0.05 -27.8 -0.75 -28.4 -1.5 -29.0 -2.45 -28.9 -3.35 -28.85 -3.9 -28.15 -4.55 -27.45 -4.45 -26.55 -4.4 -25.65 -3.6 -25.1 L-3.45 -24.95 -3.45 -18.0 Q-2.3 -16.55 -1.15 -18.2 L-1.05 -24.85" fill="#ebebeb" fill-rule="evenodd" stroke="none"/>
    <path d="M3.0 -24.8 L3.55 -24.2 3.75 -22.1 Q4.5 -12.15 4.35 -2.05 4.2 -1.5 3.5 -1.0 L3.3 -0.85 2.2 -0.4 2.1 -0.45 2.45 -1.15 2.75 -2.45 Q3.6 -7.7 3.0 -24.8 M-3.45 -24.95 Q-2.85 -24.5 -2.0 -24.55 L-1.05 -24.85 -1.15 -18.2 Q-2.3 -16.55 -3.45 -18.0 L-3.45 -24.95" fill="#204057" fill-rule="evenodd" stroke="none"/>
    <path d="M-3.45 -24.95 L-3.6 -25.1 Q-4.4 -25.65 -4.45 -26.55 -4.55 -27.45 -3.9 -28.15 -3.35 -28.85 -2.45 -28.9 -1.5 -29.0 -0.75 -28.4 -0.05 -27.8 0.05 -26.9 0.1 -26.05 -0.45 -25.35 L-1.05 -24.85 -2.0 -24.55 Q-2.85 -24.5 -3.45 -24.95" fill="#ffee99" fill-rule="evenodd" stroke="none"/>
    <path d="M2.1 -0.45 L2.05 -0.4 -1.25 0.35 Q-4.7 0.25 -5.8 -0.5 -6.3 -0.9 -6.3 -1.35 L-6.65 -5.35 -7.05 -13.3 -6.9 -17.5 Q-6.5 -23.4 -6.15 -24.5 L-5.5 -27.05 -4.7 -30.6 0.3 -30.4 Q1.6 -26.9 2.75 -25.2 L3.0 -24.8 3.55 -24.2 3.75 -22.1 Q4.5 -12.15 4.35 -2.05 4.2 -1.5 3.5 -1.0 L3.3 -0.85 2.2 -0.4" fill="none" stroke="#204057" stroke-linecap="round" stroke-linejoin="round" stroke-width="0.05"/>
    <path d="M-1.05 -24.85 L-0.45 -25.35 Q0.1 -26.05 0.05 -26.9 -0.05 -27.8 -0.75 -28.4 -1.5 -29.0 -2.45 -28.9 -3.35 -28.85 -3.9 -28.15 -4.55 -27.45 -4.45 -26.55 -4.4 -25.65 -3.6 -25.1 L-3.45 -24.95 Q-2.85 -24.5 -2.0 -24.55 L-1.05 -24.85 -1.15 -18.2 Q-2.3 -16.55 -3.45 -18.0 L-3.45 -24.95" fill="none" stroke="#6b4a43" stroke-linecap="round" stroke-linejoin="round" stroke-width="0.05"/>
  </g>
</svg>
