<?xml version="1.0" encoding="UTF-8" standalone="no"?>
<svg xmlns:xlink="http://www.w3.org/1999/xlink" height="16.4px" width="18.15px" xmlns="http://www.w3.org/2000/svg">
  <g transform="matrix(1.0, 0.0, 0.0, 1.0, 8.05, 0.45)">
    <path d="M6.55 9.75 L6.45 10.2 6.55 9.75" fill="#14f541" fill-rule="evenodd" stroke="none"/>
    <path d="M4.15 12.75 L4.15 13.35 -0.2 14.25 -3.6 13.35 -3.6 12.75 -3.25 12.9 Q-3.55 11.95 -2.95 10.6 L-0.3 10.4 -0.2 10.4 3.3 10.6 Q4.05 11.95 3.75 12.9 L4.15 12.75 M-0.2 14.25 L-0.2 13.15 -0.2 14.25" fill="#000000" fill-rule="evenodd" stroke="none"/>
    <path d="M-8.0 6.85 Q-7.7 4.15 -5.9 2.1 -4.3 0.3 -2.2 -0.15 L1.5 -0.25 Q4.8 0.05 7.25 2.1 8.55 3.2 9.25 4.5 9.25 6.75 6.6 8.3 3.95 9.85 0.2 9.9 -3.6 9.85 -6.25 8.3 L-8.0 6.85 M0.3 5.3 L0.7 5.45 1.2 5.3 1.35 4.9 1.2 4.5 Q0.95 4.35 0.7 4.35 0.45 4.35 0.3 4.5 0.05 4.65 0.1 4.9 0.05 5.15 0.3 5.3 M1.15 6.9 L1.3 6.55 1.15 6.2 0.75 6.1 0.4 6.2 Q0.2 6.35 0.25 6.55 L0.4 6.9 0.75 7.0 1.15 6.9 M0.4 7.95 Q0.15 8.15 0.2 8.4 L0.4 8.75 Q0.55 8.95 0.8 8.95 1.05 8.95 1.3 8.75 L1.45 8.4 1.3 7.95 0.8 7.8 Q0.55 7.8 0.4 7.95 M-1.4 7.95 L-1.55 8.4 -1.4 8.75 -1.05 8.95 -0.7 8.75 -0.55 8.4 Q-0.55 8.15 -0.7 7.95 -0.85 7.8 -1.05 7.8 L-1.4 7.95 M-0.7 6.9 L-0.6 6.55 -0.7 6.2 -1.0 6.1 -1.3 6.2 -1.4 6.55 -1.3 6.9 -1.0 7.0 -0.7 6.9 M-0.65 5.3 Q-0.5 5.15 -0.5 4.9 -0.5 4.65 -0.65 4.5 -0.8 4.35 -1.0 4.35 L-1.35 4.5 -1.45 4.9 -1.35 5.3 -1.0 5.45 -0.65 5.3" fill="#a26fa2" fill-rule="evenodd" stroke="none"/>
    <path d="M9.25 4.5 Q10.1 6.05 10.1 7.9 10.1 9.05 9.2 9.15 L6.55 9.75 6.45 10.2 6.35 11.15 Q6.0 13.55 5.5 13.8 3.3 14.0 1.55 15.05 L-0.2 15.9 -0.2 15.95 -0.3 15.9 -1.6 15.05 Q-2.95 14.0 -4.55 13.8 -5.0 13.55 -5.25 11.15 L-5.3 10.2 -5.35 9.75 -7.4 9.15 Q-8.1 9.05 -8.05 7.9 L-8.0 6.85 -6.25 8.3 Q-3.6 9.85 0.2 9.9 3.95 9.85 6.6 8.3 9.25 6.75 9.25 4.5 M4.15 12.75 L5.25 12.35 Q5.1 10.85 5.45 10.2 5.8 9.6 6.55 9.75 5.8 9.6 5.45 10.2 5.1 10.85 5.25 12.35 L4.15 12.75 3.75 12.9 Q4.05 11.95 3.3 10.6 L-0.2 10.4 -0.3 10.4 -2.95 10.6 Q-3.55 11.95 -3.25 12.9 L-3.6 12.75 -3.6 13.35 -0.2 14.25 4.15 13.35 4.15 12.75 M-0.2 14.25 L-0.2 14.3 -0.2 14.25 M-5.35 9.75 Q-4.85 9.95 -4.6 10.65 L-4.4 12.35 -3.6 12.75 -4.4 12.35 -4.6 10.65 Q-4.85 9.95 -5.35 9.75" fill="#5f3e60" fill-rule="evenodd" stroke="none"/>
    <path d="M0.4 7.95 Q0.55 7.8 0.8 7.8 L1.3 7.95 1.45 8.4 1.3 8.75 Q1.05 8.95 0.8 8.95 0.55 8.95 0.4 8.75 L0.2 8.4 Q0.15 8.15 0.4 7.95 M1.15 6.9 L0.75 7.0 0.4 6.9 0.25 6.55 Q0.2 6.35 0.4 6.2 L0.75 6.1 1.15 6.2 1.3 6.55 1.15 6.9 M0.3 5.3 Q0.05 5.15 0.1 4.9 0.05 4.65 0.3 4.5 0.45 4.35 0.7 4.35 0.95 4.35 1.2 4.5 L1.35 4.9 1.2 5.3 0.7 5.45 0.3 5.3 M-0.65 5.3 L-1.0 5.45 -1.35 5.3 -1.45 4.9 -1.35 4.5 -1.0 4.35 Q-0.8 4.35 -0.65 4.5 -0.5 4.65 -0.5 4.9 -0.5 5.15 -0.65 5.3 M-0.7 6.9 L-1.0 7.0 -1.3 6.9 -1.4 6.55 -1.3 6.2 -1.0 6.1 -0.7 6.2 -0.6 6.55 -0.7 6.9 M-1.4 7.95 L-1.05 7.8 Q-0.85 7.8 -0.7 7.95 -0.55 8.15 -0.55 8.4 L-0.7 8.75 -1.05 8.95 -1.4 8.75 -1.55 8.4 -1.4 7.95" fill="#ffffc3" fill-rule="evenodd" stroke="none"/>
    <path d="M-8.0 6.85 Q-7.7 4.15 -5.9 2.1 -4.3 0.3 -2.2 -0.15 L1.5 -0.25 Q4.8 0.05 7.25 2.1 8.55 3.2 9.25 4.5 10.1 6.05 10.1 7.9 10.1 9.05 9.2 9.15 L6.55 9.75 6.45 10.2 6.35 11.15 Q6.0 13.55 5.5 13.8 3.3 14.0 1.55 15.05 L-0.2 15.9 -0.2 15.95 -0.3 15.9 -1.6 15.05 Q-2.95 14.0 -4.55 13.8 -5.0 13.55 -5.25 11.15 L-5.3 10.2 -5.35 9.75 -7.4 9.15 Q-8.1 9.05 -8.05 7.9 L-8.0 6.85 M6.55 9.75 Q5.8 9.6 5.45 10.2 5.1 10.85 5.25 12.35 L4.15 12.75 4.15 13.35 -0.2 14.25 -3.6 13.35 -3.6 12.75 -4.4 12.35 -4.6 10.65 Q-4.85 9.95 -5.35 9.75 M4.15 12.75 L3.75 12.9 Q4.05 11.95 3.3 10.6 L-0.2 10.4 -0.3 10.4 -2.95 10.6 Q-3.55 11.95 -3.25 12.9 L-3.6 12.75" fill="none" stroke="#483148" stroke-linecap="round" stroke-linejoin="round" stroke-width="0.05"/>
    <path d="M-4.65 8.45 Q-5.95 8.95 -7.25 7.05 -6.0 5.0 -4.2 5.4 -3.75 5.65 -4.15 7.3 L-4.65 8.45" fill="url(#gradient0)" fill-rule="evenodd" stroke="none"/>
    <path d="M-4.65 8.45 Q-5.95 8.95 -7.25 7.05 -6.0 5.0 -4.2 5.4 -3.75 5.65 -4.15 7.3 L-4.65 8.45 Z" fill="none" stroke="#362d18" stroke-linecap="round" stroke-linejoin="round" stroke-width="0.05"/>
    <path d="M5.4 7.3 Q4.85 5.65 5.45 5.4 7.55 5.0 9.05 7.05 7.5 8.95 5.95 8.45 L5.4 7.3" fill="url(#gradient1)" fill-rule="evenodd" stroke="none"/>
    <path d="M5.4 7.3 L5.95 8.45 Q7.5 8.95 9.05 7.05 7.55 5.0 5.45 5.4 4.85 5.65 5.4 7.3 Z" fill="none" stroke="#362d18" stroke-linecap="round" stroke-linejoin="round" stroke-width="0.05"/>
  </g>
  <defs>
    <radialGradient cx="0" cy="0" gradientTransform="matrix(0.0013, 0.0033, -0.0029, 0.0025, -4.9, 5.7)" gradientUnits="userSpaceOnUse" id="gradient0" r="819.2" spreadMethod="pad">
      <stop offset="0.2627450980392157" stop-color="#ffffec"/>
      <stop offset="1.0" stop-color="#ffff00"/>
    </radialGradient>
    <radialGradient cx="0" cy="0" gradientTransform="matrix(-0.0015, 0.0033, 0.0034, 0.0025, 6.2, 5.7)" gradientUnits="userSpaceOnUse" id="gradient1" r="819.2" spreadMethod="pad">
      <stop offset="0.2627450980392157" stop-color="#ffffec"/>
      <stop offset="1.0" stop-color="#ffff00"/>
    </radialGradient>
  </defs>
</svg>
