<?xml version="1.0" encoding="UTF-8" standalone="no"?>
<svg xmlns:xlink="http://www.w3.org/1999/xlink" height="30.4px" width="12.65px" xmlns="http://www.w3.org/2000/svg">
  <g transform="matrix(1.0, 0.0, 0.0, 1.0, 6.3, 30.4)">
    <path d="M4.1 -2.65 L0.5 0.0 -0.85 0.0 -4.95 -3.25 Q0.8 -5.05 4.15 -3.65 L4.1 -2.65 M0.05 -24.4 L1.15 -24.2 1.75 -22.95 -0.6 -22.8 0.05 -24.4 M2.8 -19.7 Q0.2 -20.2 -1.7 -19.65 L-1.05 -21.65 2.15 -21.8 2.8 -19.7 M-2.05 -18.45 L3.1 -18.65 3.6 -16.1 Q0.8 -17.1 -2.65 -16.0 L-2.05 -18.45 M-3.15 -13.9 L3.9 -14.1 4.15 -11.05 -3.8 -10.85 -3.15 -13.9 M-4.2 -8.35 Q0.3 -9.6 4.25 -8.5 L4.2 -5.3 -4.7 -5.05 -4.2 -8.35" fill="#ffe140" fill-rule="evenodd" stroke="none"/>
    <path d="M1.15 -24.2 L2.45 -22.85 1.75 -22.95 1.15 -24.2 M3.15 -21.6 L3.55 -20.7 3.9 -19.5 2.8 -19.7 2.15 -21.8 3.15 -21.6 M4.25 -18.3 L5.0 -15.45 3.6 -16.1 3.1 -18.65 4.25 -18.3 M5.45 -13.25 L5.55 -12.65 5.9 -10.3 4.15 -11.05 3.9 -14.1 5.45 -13.25 M6.2 -7.8 L6.35 -4.3 4.2 -5.3 4.25 -8.5 6.2 -7.8 M4.95 -3.25 L4.1 -2.65 4.15 -3.65 4.95 -3.25 M-6.3 -4.3 L-5.9 -7.8 -4.2 -8.35 -4.7 -5.05 -6.3 -4.3 M-5.5 -10.3 L-5.1 -12.65 -4.95 -13.2 -3.15 -13.9 -3.8 -10.85 -5.5 -10.3 M-4.45 -15.35 L-3.85 -17.45 -2.05 -18.45 -2.65 -16.0 -4.45 -15.35 M-3.35 -18.95 L-2.5 -21.15 -1.05 -21.65 -1.7 -19.65 Q-2.6 -19.4 -3.35 -18.95 M-1.8 -22.5 L-0.75 -24.25 0.05 -24.4 -0.6 -22.8 -1.8 -22.5" fill="#79622c" fill-rule="evenodd" stroke="none"/>
    <path d="M1.75 -22.95 L2.15 -21.8 -1.05 -21.65 -0.6 -22.8 1.75 -22.95 M2.8 -19.7 L3.1 -18.65 -2.05 -18.45 -1.7 -19.65 Q0.2 -20.2 2.8 -19.7 M3.6 -16.1 L3.9 -14.1 -3.15 -13.9 -2.65 -16.0 Q0.8 -17.1 3.6 -16.1 M4.15 -11.05 L4.25 -8.5 Q0.3 -9.6 -4.2 -8.35 L-3.8 -10.85 4.15 -11.05 M4.15 -3.65 Q0.8 -5.05 -4.95 -3.25 L-4.7 -5.05 4.2 -5.3 4.15 -3.65" fill="#52482c" fill-rule="evenodd" stroke="none"/>
    <path d="M2.45 -22.85 L3.15 -21.6 2.15 -21.8 1.75 -22.95 2.45 -22.85 M3.9 -19.5 L4.25 -18.3 3.1 -18.65 2.8 -19.7 3.9 -19.5 M5.0 -15.45 L5.45 -13.25 3.9 -14.1 3.6 -16.1 5.0 -15.45 M5.9 -10.3 L6.2 -7.8 4.25 -8.5 4.15 -11.05 5.9 -10.3 M6.35 -4.3 L4.95 -3.25 4.15 -3.65 4.2 -5.3 6.35 -4.3 M-4.95 -3.25 L-6.3 -4.3 -4.7 -5.05 -4.95 -3.25 M-5.9 -7.8 L-5.5 -10.3 -3.8 -10.85 -4.2 -8.35 -5.9 -7.8 M-4.95 -13.2 L-4.45 -15.35 -2.65 -16.0 -3.15 -13.9 -4.95 -13.2 M-3.85 -17.45 L-3.35 -18.95 Q-2.6 -19.4 -1.7 -19.65 L-2.05 -18.45 -3.85 -17.45 M-2.5 -21.15 L-1.8 -22.5 -0.6 -22.8 -1.05 -21.65 -2.5 -21.15" fill="#272f21" fill-rule="evenodd" stroke="none"/>
    <path d="M-0.35 -25.05 L-0.05 -30.4 0.9 -27.8 1.1 -25.0 -0.35 -25.05" fill="#fdf262" fill-rule="evenodd" stroke="none"/>
    <path d="M-0.35 -25.05 L1.1 -25.0 1.2 -24.95 Q1.55 -24.65 1.15 -24.2 L0.05 -24.4 -0.75 -24.25 Q-1.0 -24.7 -0.65 -24.95 L-0.35 -25.05" fill="#6d6142" fill-rule="evenodd" stroke="none"/>
    <path d="M1.1 -25.0 L0.9 -27.8 -0.05 -30.4 -0.35 -25.05 1.1 -25.0 1.2 -24.95 Q1.55 -24.65 1.15 -24.2 L2.45 -22.85 3.15 -21.6 3.55 -20.7 3.9 -19.5 4.25 -18.3 5.0 -15.45 5.45 -13.25 5.55 -12.65 5.9 -10.3 6.2 -7.8 6.35 -4.3 4.95 -3.25 4.1 -2.65 0.5 0.0 -0.85 0.0 -4.95 -3.25 -6.3 -4.3 -5.9 -7.8 -5.5 -10.3 -5.1 -12.65 -4.95 -13.2 -4.45 -15.35 -3.85 -17.45 -3.35 -18.95 -2.5 -21.15 -1.8 -22.5 -0.75 -24.25 Q-1.0 -24.7 -0.65 -24.95 L-0.35 -25.05 M0.05 -24.4 L1.15 -24.2 M1.75 -22.95 L2.45 -22.85 M2.15 -21.8 L3.15 -21.6 M2.8 -19.7 L3.9 -19.5 M2.8 -19.7 Q0.2 -20.2 -1.7 -19.65 -2.6 -19.4 -3.35 -18.95 M-2.05 -18.45 L3.1 -18.65 4.25 -18.3 M3.6 -16.1 L5.0 -15.45 M3.6 -16.1 Q0.8 -17.1 -2.65 -16.0 L-4.45 -15.35 M-3.15 -13.9 L3.9 -14.1 5.45 -13.25 M4.15 -11.05 L-3.8 -10.85 -5.5 -10.3 M-4.2 -8.35 Q0.3 -9.6 4.25 -8.5 L6.2 -7.8 M4.15 -3.65 Q0.8 -5.05 -4.95 -3.25 M-4.7 -5.05 L-6.3 -4.3 M4.95 -3.25 L4.15 -3.65 M4.2 -5.3 L-4.7 -5.05 M-4.2 -8.35 L-5.9 -7.8 M4.2 -5.3 L6.35 -4.3 M4.15 -11.05 L5.9 -10.3 M-1.05 -21.65 L-2.5 -21.15 M-0.6 -22.8 L-1.8 -22.5 M-3.85 -17.45 L-2.05 -18.45 M-3.15 -13.9 L-4.95 -13.2 M-0.75 -24.25 L0.05 -24.4 M-0.6 -22.8 L1.75 -22.95 M2.15 -21.8 L-1.05 -21.65" fill="none" stroke="#40311a" stroke-linecap="round" stroke-linejoin="round" stroke-width="0.05"/>
  </g>
</svg>
