<?xml version="1.0" encoding="UTF-8" standalone="no"?>
<svg xmlns:xlink="http://www.w3.org/1999/xlink" height="869.95px" width="1012.55px" xmlns="http://www.w3.org/2000/svg">
  <g transform="matrix(1.0, 0.0, 0.0, 1.0, 462.15, 457.95)">
    <path d="M27.5 -39.45 Q31.55 -39.25 35.4 -38.05 38.4 -37.05 41.25 -35.55 L40.55 -33.75 38.3 -34.6 37.7 -33.15 44.55 -29.25 34.95 -23.8 33.7 -24.35 Q28.45 -26.45 22.95 -25.6 L27.5 -39.45 M-40.8 6.25 L-40.75 6.2 -37.3 8.9 Q-38.9 10.05 -40.0 11.7 -44.55 18.2 -39.9 24.85 L-40.8 28.1 Q-43.35 25.95 -44.6 22.8 -48.45 13.05 -40.8 6.25 M-34.35 -24.65 L-32.4 -24.75 -30.5 -13.15 -34.05 -6.7 -40.95 -10.35 -40.95 -11.35 Q-40.85 -19.9 -34.35 -24.65 M7.35 -30.9 L7.25 -35.65 17.9 -33.05 13.5 -28.3 7.35 -30.9 M51.9 -24.2 L52.25 -23.05 61.15 -15.85 59.9 -14.75 Q54.9 -10.35 48.55 -8.9 L48.85 -10.15 Q49.8 -15.1 46.05 -18.3 L51.9 -24.2 M46.3 -3.05 L59.45 -10.45 68.25 11.25 69.25 11.6 49.9 13.85 50.2 11.65 Q51.15 3.4 46.3 -3.05 M48.0 20.55 L69.45 14.65 Q61.55 22.8 52.6 29.55 42.15 37.3 29.5 38.5 L36.5 35.15 Q41.25 35.15 44.65 30.9 48.0 26.6 48.0 20.55 M-16.05 9.45 Q-16.8 19.45 -14.45 29.15 -13.85 31.6 -14.05 34.1 L-14.35 37.4 Q-5.95 42.0 1.3 35.35 7.85 29.3 6.0 20.15 5.1 15.5 2.3 11.75 -0.95 7.35 -5.4 4.5 5.1 6.95 7.4 18.5 9.3 28.3 3.05 35.8 -0.75 40.3 -6.35 41.05 -11.45 41.65 -15.85 38.75 L-14.45 30.35 -19.75 19.7 -16.05 9.45 M-4.9 53.75 L1.3 41.5 2.8 42.5 Q10.25 47.45 15.35 55.15 13.0 56.0 10.65 56.1 2.8 56.25 -1.95 49.55 L-4.9 53.75 M18.8 52.6 L18.15 43.85 20.95 44.6 18.8 52.6 M-3.8 -35.5 L-8.85 -28.45 -21.7 -19.6 -26.95 -27.25 -25.75 -28.25 Q-16.15 -36.5 -3.8 -35.5 M-28.8 15.8 L-28.2 16.35 Q-32.35 20.7 -32.15 26.95 -32.0 31.85 -29.0 35.6 L-18.2 33.8 -18.5 35.3 Q-21.15 47.4 -12.1 55.35 -13.9 54.9 -15.45 54.05 -24.75 48.65 -23.15 37.05 L-25.05 38.15 Q-31.7 41.7 -36.6 35.55 L-37.15 34.3 Q-38.6 22.3 -29.05 15.55 L-28.8 15.8" fill="#666666" fill-rule="evenodd" stroke="none"/>
    <path d="M44.55 -29.25 L37.7 -33.15 38.3 -34.6 40.55 -33.75 41.25 -35.55 Q38.4 -37.05 35.4 -38.05 31.55 -39.25 27.5 -39.45 L28.05 -40.55 Q34.7 -41.25 40.75 -38.2 L42.7 -37.2 44.55 -29.25 M51.9 -24.2 Q57.7 -22.75 60.5 -17.25 L61.15 -15.85 52.25 -23.05 51.9 -24.2 M69.45 14.65 Q63.1 26.75 51.95 33.65 41.45 40.1 29.5 38.5 42.15 37.3 52.6 29.55 61.55 22.8 69.45 14.65 M20.95 44.6 Q21.9 48.65 19.45 51.85 L18.8 52.6 20.95 44.6 M15.35 55.15 Q6.35 59.8 -1.0 52.85 L-1.85 52.0 -2.75 51.8 -4.9 53.75 -1.95 49.55 Q2.8 56.25 10.65 56.1 13.0 56.0 15.35 55.15 M-12.1 55.35 Q-21.5 55.3 -25.05 46.15 -25.9 44.05 -26.05 41.9 -36.05 41.65 -39.8 32.0 L-40.85 28.3 Q-48.95 25.9 -48.3 16.8 -47.75 8.95 -40.8 6.25 -48.45 13.05 -44.6 22.8 -43.35 25.95 -40.8 28.1 L-39.9 24.85 -39.0 23.45 Q-35.5 17.85 -29.95 14.7 L-29.2 15.4 -29.05 15.55 Q-38.6 22.3 -37.15 34.3 L-36.6 35.55 Q-31.7 41.7 -25.05 38.15 L-23.15 37.05 Q-24.75 48.65 -15.45 54.05 -13.9 54.9 -12.1 55.35 M-42.0 -11.35 Q-42.0 -16.85 -39.75 -20.75 -37.55 -24.65 -34.35 -24.65 -40.85 -19.9 -40.95 -11.35 L-40.95 -10.35 -42.0 -11.35 M-28.15 -28.95 Q-18.25 -38.15 -5.4 -35.85 L-3.8 -35.5 Q-16.15 -36.5 -25.75 -28.25 L-26.95 -27.25 -28.15 -28.95 M5.75 -37.2 Q12.1 -38.45 17.9 -35.3 L19.25 -34.5 17.9 -33.05 7.25 -35.65 5.75 -37.2" fill="#454545" fill-rule="evenodd" stroke="none"/>
    <path d="M22.95 -25.6 Q28.45 -26.45 33.7 -24.35 L34.95 -23.8 22.8 -16.9 21.65 -18.05 22.95 -25.6 M13.5 -28.3 L9.65 -24.25 7.35 -30.9 13.5 -28.3 M46.05 -18.3 Q49.8 -15.1 48.85 -10.15 L48.55 -8.9 40.6 -8.1 42.25 -14.45 46.05 -18.3 M46.3 -3.05 Q51.15 3.4 50.2 11.65 L49.9 13.85 36.0 11.75 35.3 9.75 36.1 7.95 Q39.3 0.35 46.3 -3.05 M48.0 20.55 Q48.0 26.6 44.65 30.9 41.25 35.15 36.5 35.15 L39.0 33.4 34.35 30.6 48.0 20.55 M-5.4 4.5 Q-0.95 7.35 2.3 11.75 5.1 15.5 6.0 20.15 7.85 29.3 1.3 35.35 -5.95 42.0 -14.35 37.4 L-14.05 34.1 Q-13.85 31.6 -14.45 29.15 -16.8 19.45 -16.05 9.45 L-15.0 8.55 Q-10.8 4.95 -5.4 4.5 M-21.7 -19.6 L-8.85 -28.45 -19.05 -17.55 -21.7 -19.6 M-34.05 -6.7 L-30.5 -13.15 -28.45 -8.6 -28.9 -7.1 -34.05 -6.7 M-29.95 14.7 Q-35.5 17.85 -39.0 23.45 L-39.9 24.85 Q-44.55 18.2 -40.0 11.7 -38.9 10.05 -37.3 8.9 L-29.95 14.7 M-28.8 15.8 L-29.05 15.55 -29.2 15.4 -28.8 15.8 M-18.2 33.8 L-29.0 35.6 Q-32.0 31.85 -32.15 26.95 -32.35 20.7 -28.2 16.35 L-19.9 24.15 -18.2 33.8" fill="#888888" fill-rule="evenodd" stroke="none"/>
    <path d="M59.45 -10.45 Q66.85 -1.6 69.0 10.15 L69.25 11.6 68.25 11.25 59.45 -10.45" fill="#424242" fill-rule="evenodd" stroke="none"/>
    <path d="M28.05 -40.55 L27.5 -39.45 22.95 -25.6 21.65 -18.05 22.8 -16.9 34.95 -23.8 44.55 -29.25 83.65 -51.0 86.2 -50.3 51.9 -24.2 46.05 -18.3 42.25 -14.45 40.6 -8.1 48.55 -8.9 Q54.9 -10.35 59.9 -14.75 L61.15 -15.85 66.75 -16.9 59.45 -10.45 46.3 -3.05 Q39.3 0.35 36.1 7.95 L35.3 9.75 36.0 11.75 49.9 13.85 69.25 11.6 77.55 11.5 77.85 13.1 69.45 14.65 48.0 20.55 34.35 30.6 39.0 33.4 36.5 35.15 29.5 38.5 25.9 43.35 27.6 48.3 20.95 44.6 18.15 43.85 18.8 52.6 21.95 67.45 20.6 68.05 15.35 55.15 Q10.25 47.45 2.8 42.5 L1.3 41.5 -4.9 53.75 -4.85 66.6 -6.7 66.45 -12.1 55.35 Q-21.15 47.4 -18.5 35.3 L-18.2 33.8 -19.9 24.15 -28.2 16.35 -28.8 15.8 -29.2 15.4 -29.95 14.7 -37.3 8.9 -40.75 6.2 -49.55 -1.0 -41.55 1.0 -41.95 -0.9 Q-42.9 -4.35 -44.65 -7.3 -46.6 -10.55 -49.25 -13.2 L-42.0 -11.35 -40.95 -10.35 -34.05 -6.7 -28.9 -7.1 -28.45 -8.6 -30.5 -13.15 -32.4 -24.75 -31.15 -34.1 -29.65 -34.45 -28.15 -28.95 -26.95 -27.25 -21.7 -19.6 -19.05 -17.55 -8.85 -28.45 -3.8 -35.5 0.25 -39.25 4.05 -39.1 5.75 -37.2 7.25 -35.65 7.35 -30.9 9.65 -24.25 13.5 -28.3 17.9 -33.05 19.25 -34.5 33.2 -47.8 28.05 -40.55 M-5.4 4.5 Q-10.8 4.95 -15.0 8.55 L-16.05 9.45 -19.75 19.7 -14.45 30.35 -15.85 38.75 Q-11.45 41.65 -6.35 41.05 -0.75 40.3 3.05 35.8 9.3 28.3 7.4 18.5 5.1 6.95 -5.4 4.5" fill="url(#gradient0)" fill-rule="evenodd" stroke="none"/>
    <path d="M-35.0 36.25 L-38.5 36.25 -38.5 32.5 -35.0 32.5 -35.0 36.25 M-24.2 -36.65 L-25.2 -39.45 -23.5 -38.45 -24.2 -36.65 M-68.15 -7.2 L-71.6 -7.2 -71.6 -10.9 -68.15 -10.9 -68.15 -7.2 M-41.5 -40.5 L-42.1 -42.6 -40.4 -41.6 -41.5 -40.5 M-33.95 -67.2 L-34.75 -69.45 -32.3 -68.45 -33.95 -67.2 M63.5 57.05 L59.6 57.05 59.6 52.9 63.5 52.9 63.5 57.05 M37.4 76.5 L37.4 72.8 40.85 72.8 40.85 76.5 37.4 76.5 M6.45 96.5 L9.95 96.5 9.95 100.2 6.45 100.2 6.45 96.5 M2.05 52.25 L5.5 52.25 5.5 56.0 2.05 56.0 2.05 52.25 M21.1 55.35 L21.1 59.45 17.3 59.45 17.3 55.35 21.1 55.35 M30.75 42.0 L34.25 42.0 34.25 45.7 30.75 45.7 30.75 42.0 M71.8 36.25 L68.3 36.25 68.3 32.5 71.8 32.5 71.8 36.25 M51.95 22.95 L55.7 22.95 55.7 27.05 51.95 27.05 51.95 22.95 M52.85 7.25 L56.35 7.25 56.35 10.95 52.85 10.95 52.85 7.25 M71.8 18.1 L68.3 18.1 68.3 14.35 71.8 14.35 71.8 18.1 M75.7 -7.75 L79.2 -7.75 79.2 -4.05 75.7 -4.05 75.7 -7.75 M43.3 -12.5 L46.75 -12.5 46.75 -8.8 43.3 -8.8 43.3 -12.5 M57.1 -18.8 L57.1 -15.1 53.6 -15.1 53.6 -18.8 57.1 -18.8 M38.85 -22.6 L38.85 -26.9 42.85 -26.9 42.85 -22.6 38.85 -22.6 M7.6 -44.95 L5.8 -44.95 5.8 -46.85 7.6 -46.85 7.6 -44.95 M33.5 -38.55 Q32.65 -38.6 32.05 -39.2 31.45 -39.85 31.5 -40.75 31.45 -41.65 32.05 -42.3 32.65 -42.95 33.5 -42.95 34.35 -42.95 34.95 -42.3 35.55 -41.65 35.55 -40.75 35.55 -39.85 34.95 -39.2 34.35 -38.6 33.5 -38.55 M5.4 -52.8 L3.6 -52.8 3.6 -54.75 5.4 -54.75 5.4 -52.8 M65.5 -58.5 L69.5 -58.5 69.5 -54.25 65.5 -54.25 65.5 -58.5 M-58.1 4.95 L-59.15 6.1 -59.8 4.0 -58.1 4.95 M-69.15 38.15 L-69.85 40.0 -70.85 37.15 -69.15 38.15 M-26.9 66.25 L-30.4 66.25 -30.4 62.55 -26.9 62.55 -26.9 66.25 M-39.05 78.15 L-35.2 78.15 -35.2 82.3 -39.05 82.3 -39.05 78.15 M-48.45 64.15 L-52.35 64.15 -52.35 60.0 -48.45 60.0 -48.45 64.15 M-49.55 47.55 L-46.05 47.55 -46.05 51.25 -49.55 51.25 -49.55 47.55" fill="#ffffff" fill-rule="evenodd" stroke="none"/>
    <path d="M18.4 -16.25 Q26.7 -15.2 34.1 -9.9 37.05 -7.8 39.4 -5.3 46.4 2.1 48.15 12.75 48.75 16.3 48.7 19.75 48.4 29.9 42.1 38.7 39.4 42.45 36.1 45.3 29.1 51.2 19.45 52.8 L10.95 53.25 Q1.65 52.55 -6.5 46.75 -12.35 42.5 -15.9 36.85 -19.4 31.2 -20.6 24.1 L-20.95 21.2 Q-21.45 15.9 -20.35 10.95 -5.75 -11.25 -0.05 -13.65 3.75 -15.25 8.1 -15.95 L8.15 -16.0 Q13.45 -16.85 18.4 -16.25" fill="url(#gradient1)" fill-rule="evenodd" stroke="none"/>
    <path d="M39.4 -5.3 Q37.05 -7.8 34.1 -9.9 26.7 -15.2 18.4 -16.25 L342.3 -457.95 432.9 -329.4 39.4 -5.3" fill="url(#gradient2)" fill-rule="evenodd" stroke="none"/>
    <path d="M8.1 -15.95 Q3.75 -15.25 -0.05 -13.65 L-89.95 -427.95 29.6 -447.75 8.1 -15.95" fill="url(#gradient3)" fill-rule="evenodd" stroke="none"/>
    <path d="M36.1 45.3 Q39.4 42.45 42.1 38.7 48.4 29.9 48.7 19.75 L550.4 209.3 469.05 308.1 427.5 314.95 36.1 45.3" fill="url(#gradient4)" fill-rule="evenodd" stroke="none"/>
    <path d="M-20.35 10.95 Q-21.45 15.9 -20.95 21.2 L-462.15 78.85 -462.15 -16.2 -20.45 11.05 -20.3 10.8 -20.35 10.95" fill="url(#gradient5)" fill-rule="evenodd" stroke="none"/>
    <path d="M-15.9 36.85 Q-12.35 42.5 -6.5 46.75 1.65 52.55 10.95 53.25 L-80.45 399.0 -158.95 412.0 -166.5 366.5 -15.9 36.85" fill="url(#gradient6)" fill-rule="evenodd" stroke="none"/>
  </g>
  <defs>
    <radialGradient cx="0" cy="0" gradientTransform="matrix(0.1311, -0.0179, 0.0192, 0.1406, 21.5, 0.0)" gradientUnits="userSpaceOnUse" id="gradient0" r="819.2" spreadMethod="pad">
      <stop offset="0.396078431372549" stop-color="#ffffff" stop-opacity="0.99215686"/>
      <stop offset="1.0" stop-color="#4053bf"/>
    </radialGradient>
    <linearGradient gradientTransform="matrix(-0.0268, 0.1239, -0.0417, -0.009, -15.25, 153.05)" gradientUnits="userSpaceOnUse" id="gradient1" spreadMethod="pad" x1="-819.2" x2="819.2">
      <stop offset="0.5058823529411764" stop-color="#ffffff"/>
      <stop offset="1.0" stop-color="#ffffff" stop-opacity="0.0"/>
    </linearGradient>
    <linearGradient gradientTransform="matrix(0.1539, -0.1421, 0.0603, 0.0653, 201.9, -229.3)" gradientUnits="userSpaceOnUse" id="gradient2" spreadMethod="pad" x1="-819.2" x2="819.2">
      <stop offset="0.0" stop-color="#ffffff"/>
      <stop offset="1.0" stop-color="#3c0cfe" stop-opacity="0.0"/>
    </linearGradient>
    <linearGradient gradientTransform="matrix(-0.0046, -0.0929, 0.0734, -0.0036, -23.1, -292.8)" gradientUnits="userSpaceOnUse" id="gradient3" spreadMethod="pad" x1="-819.2" x2="819.2">
      <stop offset="0.0" stop-color="#ffffff"/>
      <stop offset="1.0" stop-color="#3c0cfe" stop-opacity="0.0"/>
    </linearGradient>
    <linearGradient gradientTransform="matrix(0.1189, 0.0257, -0.0354, 0.1638, 188.15, 122.65)" gradientUnits="userSpaceOnUse" id="gradient4" spreadMethod="pad" x1="-819.2" x2="819.2">
      <stop offset="0.0" stop-color="#ffffff"/>
      <stop offset="1.0" stop-color="#3c0cfe" stop-opacity="0.0"/>
    </linearGradient>
    <linearGradient gradientTransform="matrix(-0.149, -0.0654, 0.0332, -0.0757, -200.5, -106.4)" gradientUnits="userSpaceOnUse" id="gradient5" spreadMethod="pad" x1="-819.2" x2="819.2">
      <stop offset="0.0" stop-color="#ffffff"/>
      <stop offset="1.0" stop-color="#3c0cfe" stop-opacity="0.0"/>
    </linearGradient>
    <linearGradient gradientTransform="matrix(-0.0382, 0.1255, -0.0536, -0.0163, -63.5, 186.2)" gradientUnits="userSpaceOnUse" id="gradient6" spreadMethod="pad" x1="-819.2" x2="819.2">
      <stop offset="0.0" stop-color="#ffffff"/>
      <stop offset="1.0" stop-color="#3c0cfe" stop-opacity="0.0"/>
    </linearGradient>
  </defs>
</svg>
