<?xml version="1.0" encoding="UTF-8" standalone="no"?>
<svg xmlns:xlink="http://www.w3.org/1999/xlink" height="143.3px" width="190.1px" xmlns="http://www.w3.org/2000/svg">
  <g transform="matrix(1.0, 0.0, 0.0, 1.0, 90.65, 64.15)">
    <path d="M29.15 -20.25 L26.25 -17.0 20.4 -29.7 23.1 -33.25 Q27.3 -38.55 32.8 -42.35 34.95 -41.1 37.2 -40.3 44.6 -37.85 51.75 -40.7 53.4 -39.05 54.6 -37.1 58.05 -31.2 57.0 -24.4 56.6 -21.9 55.45 -19.5 L49.55 -19.3 Q42.2 -18.2 37.5 -12.35 L35.8 -10.15 33.0 -11.1 34.2 -18.25 Q43.75 -16.45 47.65 -25.2 48.3 -26.75 47.9 -28.3 45.8 -35.5 38.05 -36.1 31.4 -36.45 27.1 -31.2 L29.15 -20.25 M41.55 -12.25 L43.2 -13.6 Q49.55 -18.45 56.2 -13.6 62.55 -8.9 60.0 -1.25 57.25 6.8 48.5 6.5 57.9 4.05 56.35 -5.6 56.1 -6.75 55.45 -7.6 49.95 -14.1 41.55 -12.25 M55.7 10.85 Q61.4 9.7 64.05 4.5 L64.35 3.9 Q65.2 3.45 65.6 6.7 67.4 21.0 55.7 29.55 46.7 36.1 35.75 33.9 29.5 18.25 40.75 5.9 L43.8 8.4 41.15 11.9 Q34.65 17.4 39.45 24.55 40.55 26.25 42.5 27.0 49.95 30.0 54.9 23.45 57.55 19.85 54.8 16.2 L55.7 10.85 M14.5 17.4 Q15.45 14.5 14.85 11.55 12.6 1.0 2.05 -1.05 -7.5 -2.9 -13.45 4.8 -22.6 16.7 -14.95 29.75 L-12.6 30.35 Q-9.9 31.2 -8.05 33.55 L-4.55 33.2 Q9.65 31.2 14.5 17.4 M3.3 34.65 Q12.8 34.05 16.55 25.35 L16.95 24.25 Q27.3 32.85 24.4 45.95 23.65 49.4 21.25 51.95 14.4 59.3 5.35 55.35 -4.75 50.9 -7.65 40.25 L-1.85 37.1 Q-2.5 48.15 7.35 52.55 L10.0 52.8 Q18.5 50.25 20.15 41.5 20.75 38.0 19.55 34.75 L17.2 39.75 14.6 37.0 12.65 38.0 Q12.0 40.2 9.85 40.7 7.4 41.25 5.4 40.05 L3.3 34.65 M14.95 6.85 Q18.0 21.05 9.6 32.8 -1.35 33.5 -11.0 38.65 -12.8 38.25 -14.5 37.5 -19.5 35.3 -22.05 30.6 -29.05 17.35 -22.65 3.7 L-21.65 3.05 -21.7 2.2 Q-7.0 -7.45 10.25 -4.1 13.65 0.9 14.95 6.85 M-7.95 -28.0 L-8.25 -28.5 Q-10.35 -30.8 -13.35 -31.25 -22.5 -32.65 -26.9 -24.4 L-30.1 -17.6 Q-31.8 -20.75 -31.8 -24.25 -31.85 -28.8 -29.45 -32.6 L-9.25 -38.75 -4.45 -34.9 Q-2.85 -30.65 -3.0 -26.1 -3.25 -21.0 -5.8 -16.5 L-14.95 -14.0 -11.6 -17.45 -10.8 -17.85 Q-5.15 -21.65 -7.95 -28.0 M-1.2 -6.45 L-7.8 -6.1 Q-16.55 -5.45 -21.8 1.55 L-25.2 -4.5 Q-20.55 -10.65 -13.1 -12.6 -2.5 -15.5 5.3 -7.85 L-1.2 -6.45 M-3.8 -11.45 L-4.6 -10.6 -5.65 -10.75 Q-10.9 -11.25 -15.75 -8.9 L-20.7 -5.45 -2.4 -9.5 -3.8 -11.45 M-23.25 3.7 L-24.65 3.55 -26.9 2.75 Q-28.75 3.5 -30.35 4.6 -35.55 8.0 -36.9 14.1 -40.1 28.5 -29.9 39.2 L-33.2 40.45 Q-43.3 31.85 -42.45 18.75 -41.75 7.85 -33.7 0.65 -30.95 -1.85 -27.6 -3.4 L-23.25 3.7 M-14.95 49.2 L-9.15 46.25 Q-9.85 55.8 -18.7 59.3 L-19.95 59.75 Q-20.0 61.65 -21.05 63.3 -22.2 65.1 -24.0 66.2 -35.1 63.25 -35.9 51.4 -36.15 47.35 -33.85 44.05 -32.8 42.4 -31.4 41.1 -33.75 50.6 -27.45 58.05 L-26.5 58.05 Q-17.9 57.5 -14.95 49.2" fill="#666666" fill-rule="evenodd" stroke="none"/>
    <path d="M-1.85 37.1 L-0.95 36.3 -1.65 36.95 -1.85 37.1" fill="#ffff00" fill-rule="evenodd" stroke="none"/>
    <path d="M26.25 -17.0 L23.45 -15.05 16.8 -28.1 Q22.45 -38.15 31.9 -44.7 43.8 -40.9 56.35 -41.15 62.6 -30.2 57.65 -18.6 65.9 -10.7 65.05 0.6 L67.4 1.05 Q68.6 4.0 69.1 7.15 71.4 22.1 59.7 31.4 48.1 40.65 33.75 36.0 26.55 28.4 29.85 18.3 33.05 8.2 42.35 3.0 L48.5 6.5 Q57.25 6.8 60.0 -1.25 62.55 -8.9 56.2 -13.6 49.55 -18.45 43.2 -13.6 L41.55 -12.25 39.6 -2.25 36.3 -2.9 35.6 -7.6 33.0 -8.3 33.0 -11.1 35.8 -10.15 37.5 -12.35 Q42.2 -18.2 49.55 -19.3 L55.45 -19.5 Q56.6 -21.9 57.0 -24.4 58.05 -31.2 54.6 -37.1 53.4 -39.05 51.75 -40.7 44.6 -37.85 37.2 -40.3 34.95 -41.1 32.8 -42.35 27.3 -38.55 23.1 -33.25 L20.4 -29.7 26.25 -17.0 M-1.25 -32.45 Q-0.2 -24.95 -3.7 -18.4 L-4.2 -17.5 Q5.2 -15.95 7.6 -6.7 L13.8 -4.35 Q20.65 7.95 17.6 21.7 28.15 27.4 28.8 39.35 29.0 50.4 19.55 56.05 16.25 57.95 12.5 58.45 0.45 59.8 -6.0 49.65 -6.35 51.25 -7.1 52.8 -10.55 60.1 -18.55 61.35 L-22.65 67.65 Q-29.2 67.15 -33.3 62.05 -41.6 51.7 -34.15 40.95 -43.7 34.15 -45.5 22.65 -47.75 8.4 -36.8 -0.8 L-31.1 -6.0 -27.25 -5.8 -27.6 -8.75 -29.25 -10.4 -30.7 -13.05 Q-35.3 -21.75 -30.75 -30.5 -25.2 -41.3 -12.85 -40.25 -4.45 -39.7 -1.25 -32.45 M43.8 8.4 L40.75 5.9 Q29.5 18.25 35.75 33.9 46.7 36.1 55.7 29.55 67.4 21.0 65.6 6.7 65.2 3.45 64.35 3.9 L64.05 4.5 Q61.4 9.7 55.7 10.85 L54.35 10.9 Q48.75 10.95 43.8 8.4 M3.3 34.65 L1.95 34.45 -1.65 36.95 -0.95 36.3 -1.85 37.1 -7.65 40.25 Q-4.75 50.9 5.35 55.35 14.4 59.3 21.25 51.95 23.65 49.4 24.4 45.95 27.3 32.85 16.95 24.25 L16.55 25.35 Q12.8 34.05 3.3 34.65 M14.95 6.85 Q13.65 0.9 10.25 -4.1 -7.0 -7.45 -21.7 2.2 L-21.65 3.05 -22.65 3.7 Q-29.05 17.35 -22.05 30.6 -19.5 35.3 -14.5 37.5 -12.8 38.25 -11.0 38.65 -1.35 33.5 9.6 32.8 18.0 21.05 14.95 6.85 M-30.1 -17.6 L-26.0 -10.6 -14.95 -14.0 -5.8 -16.5 Q-3.25 -21.0 -3.0 -26.1 -2.85 -30.65 -4.45 -34.9 L-9.25 -38.75 -29.45 -32.6 Q-31.85 -28.8 -31.8 -24.25 -31.8 -20.75 -30.1 -17.6 M-1.2 -6.45 L5.3 -7.85 Q-2.5 -15.5 -13.1 -12.6 -20.55 -10.65 -25.2 -4.5 L-21.8 1.55 Q-16.55 -5.45 -7.8 -6.1 L-1.2 -6.45 M-23.25 3.7 L-27.6 -3.4 Q-30.95 -1.85 -33.7 0.65 -41.75 7.85 -42.45 18.75 -43.3 31.85 -33.2 40.45 L-29.9 39.2 -30.0 40.25 -31.4 41.1 Q-32.8 42.4 -33.85 44.05 -36.15 47.35 -35.9 51.4 -35.1 63.25 -24.0 66.2 -22.2 65.1 -21.05 63.3 -20.0 61.65 -19.95 59.75 L-18.7 59.3 Q-9.85 55.8 -9.15 46.25 L-10.3 40.85 -13.3 39.9 Q-21.25 37.15 -24.2 29.35 -29.2 16.3 -23.25 3.7" fill="#454545" fill-rule="evenodd" stroke="none"/>
    <path d="M34.2 -18.25 L40.3 -34.4 39.1 -34.6 29.15 -20.25 27.1 -31.2 Q31.4 -36.45 38.05 -36.1 45.8 -35.5 47.9 -28.3 48.3 -26.75 47.65 -25.2 43.75 -16.45 34.2 -18.25 M42.35 3.0 L50.55 -2.35 50.7 -3.35 39.6 -2.25 41.55 -12.25 Q49.95 -14.1 55.45 -7.6 56.1 -6.75 56.35 -5.6 57.9 4.05 48.5 6.5 L42.35 3.0 M54.8 16.2 Q57.55 19.85 54.9 23.45 49.95 30.0 42.5 27.0 40.55 26.25 39.45 24.55 34.65 17.4 41.15 11.9 38.6 18.0 41.1 24.15 L46.9 19.5 49.05 20.8 49.85 20.45 Q53.1 19.25 54.8 16.2 M10.85 14.75 L13.4 14.6 Q12.4 4.1 2.1 2.65 -2.45 2.1 -6.15 4.9 -12.25 9.5 -12.6 17.3 -12.95 25.3 -7.45 31.2 L-6.35 31.1 -7.95 26.3 -7.45 25.4 Q-5.3 29.2 -0.95 30.35 L2.15 30.75 5.6 25.15 7.05 25.05 Q10.1 21.55 10.65 17.05 L10.85 14.75 M14.5 17.4 Q9.65 31.2 -4.55 33.2 L-8.05 33.55 Q-9.9 31.2 -12.6 30.35 L-14.95 29.75 Q-22.6 16.7 -13.45 4.8 -7.5 -2.9 2.05 -1.05 12.6 1.0 14.85 11.55 15.45 14.5 14.5 17.4 M-11.6 -17.45 Q-6.7 -21.2 -7.8 -27.25 L-7.95 -28.0 Q-5.15 -21.65 -10.8 -17.85 L-11.6 -17.45 M-8.25 -28.5 L-16.65 -23.1 -17.35 -23.7 Q-20.4 -26.35 -20.3 -30.3 -23.05 -27.15 -24.6 -23.3 -25.7 -20.5 -26.3 -17.65 L-26.9 -24.4 Q-22.5 -32.65 -13.35 -31.25 -10.35 -30.8 -8.25 -28.5 M-3.8 -11.45 L-2.4 -9.5 -20.7 -5.45 -15.75 -8.9 Q-10.9 -11.25 -5.65 -10.75 L-4.6 -10.6 -3.8 -11.45 M-29.9 39.2 Q-40.1 28.5 -36.9 14.1 -35.55 8.0 -30.35 4.6 -28.75 3.5 -26.9 2.75 L-24.65 3.55 Q-36.25 13.0 -32.2 27.7 -30.55 33.75 -26.1 38.25 L-30.0 40.25 Q-31.2 48.3 -25.85 54.4 L-24.7 55.6 -23.1 48.75 Q-21.5 49.75 -19.6 50.05 -17.15 50.55 -14.95 49.2 -17.9 57.5 -26.5 58.05 L-27.45 58.05 Q-33.75 50.6 -31.4 41.1 L-30.0 40.25 -29.9 39.2" fill="#888888" fill-rule="evenodd" stroke="none"/>
    <path d="M29.15 -20.25 L39.1 -34.6 40.3 -34.4 34.2 -18.25 33.0 -11.1 33.0 -8.3 35.6 -7.6 36.3 -2.9 39.6 -2.25 50.7 -3.35 50.55 -2.35 42.35 3.0 Q33.05 8.2 29.85 18.3 26.55 28.4 33.75 36.0 L37.8 64.45 28.8 39.35 Q28.15 27.4 17.6 21.7 20.65 7.95 13.8 -4.35 L7.6 -6.7 Q5.2 -15.95 -4.2 -17.5 L-3.7 -18.4 Q-0.2 -24.95 -1.25 -32.45 L13.65 -54.75 7.85 -29.3 27.1 -57.7 16.8 -28.1 23.45 -15.05 26.25 -17.0 29.15 -20.25" fill="url(#gradient0)" fill-rule="evenodd" stroke="none"/>
    <path d="M55.7 10.85 L54.8 16.2 Q53.1 19.25 49.85 20.45 L49.05 20.8 46.9 19.5 41.1 24.15 Q38.6 18.0 41.15 11.9 L43.8 8.4 Q48.75 10.95 54.35 10.9 L55.7 10.85" fill="url(#gradient1)" fill-rule="evenodd" stroke="none"/>
    <path d="M10.85 14.75 L10.65 17.05 Q10.1 21.55 7.05 25.05 L5.6 25.15 2.15 30.75 -0.95 30.35 Q-5.3 29.2 -7.45 25.4 L-7.95 26.3 -6.35 31.1 -7.45 31.2 Q-12.95 25.3 -12.6 17.3 -12.25 9.5 -6.15 4.9 -2.45 2.1 2.1 2.65 12.4 4.1 13.4 14.6 L10.85 14.75" fill="url(#gradient2)" fill-rule="evenodd" stroke="none"/>
    <path d="M-1.65 36.95 L1.95 34.45 3.3 34.65 5.4 40.05 Q7.4 41.25 9.85 40.7 12.0 40.2 12.65 38.0 L14.6 37.0 17.2 39.75 19.55 34.75 Q20.75 38.0 20.15 41.5 18.5 50.25 10.0 52.8 L7.35 52.55 Q-2.5 48.15 -1.85 37.1 L-1.65 36.95" fill="url(#gradient3)" fill-rule="evenodd" stroke="none"/>
    <path d="M-7.95 -28.0 L-7.8 -27.25 Q-6.7 -21.2 -11.6 -17.45 L-14.95 -14.0 -26.0 -10.6 -30.1 -17.6 -26.9 -24.4 -26.3 -17.65 Q-25.7 -20.5 -24.6 -23.3 -23.05 -27.15 -20.3 -30.3 -20.4 -26.35 -17.35 -23.7 L-16.65 -23.1 -8.25 -28.5 -7.95 -28.0" fill="url(#gradient4)" fill-rule="evenodd" stroke="none"/>
    <path d="M-24.65 3.55 L-23.25 3.7 Q-29.2 16.3 -24.2 29.35 -21.25 37.15 -13.3 39.9 L-10.3 40.85 -9.15 46.25 -14.95 49.2 Q-17.15 50.55 -19.6 50.05 -21.5 49.75 -23.1 48.75 L-24.7 55.6 -25.85 54.4 Q-31.2 48.3 -30.0 40.25 L-26.1 38.25 Q-30.55 33.75 -32.2 27.7 -36.25 13.0 -24.65 3.55" fill="url(#gradient5)" fill-rule="evenodd" stroke="none"/>
    <path d="M-36.8 -0.8 L-49.15 -10.3 -29.25 -10.4 -27.6 -8.75 -27.25 -5.8 -31.1 -6.0 -36.8 -0.8" fill="url(#gradient6)" fill-rule="evenodd" stroke="none"/>
    <path d="M-86.5 16.55 L-86.5 20.7 -90.65 20.7 -90.65 16.55 -86.5 16.55 M-21.55 79.15 L-21.55 75.1 -17.45 75.1 -17.45 79.15 -21.55 79.15 M-26.25 64.65 L-30.0 64.65 -30.0 60.95 -26.25 60.95 -26.25 64.65 M-9.5 53.65 L-9.5 49.9 -5.7 49.9 -5.7 53.65 -9.5 53.65 M-44.25 77.3 L-44.25 73.6 -40.5 73.6 -40.5 77.3 -44.25 77.3 M-56.4 65.05 Q-56.45 63.95 -55.65 63.2 -54.9 62.45 -53.85 62.45 -52.8 62.45 -52.0 63.2 -51.25 63.95 -51.25 65.05 -51.25 66.1 -52.0 66.85 -52.8 67.6 -53.85 67.6 -54.9 67.6 -55.65 66.85 -56.45 66.1 -56.4 65.05 M-55.3 39.65 L-51.55 39.65 -51.55 43.35 -55.3 43.35 -55.3 39.65 M-62.8 41.05 L-62.8 45.2 -67.0 45.2 -67.0 41.05 -62.8 41.05 M-57.9 21.4 L-53.8 21.4 -53.8 25.45 -57.9 25.45 -57.9 21.4 M-42.1 7.45 L-46.55 7.45 -46.55 3.05 -42.1 3.05 -42.1 7.45 M-22.15 12.8 L-18.35 12.8 -18.35 16.5 -22.15 16.5 -22.15 12.8 M-27.75 21.4 L-27.75 25.45 -31.8 25.45 -31.8 21.4 -27.75 21.4 M-11.85 -27.75 L-11.85 -31.45 -8.1 -31.45 -8.1 -27.75 -11.85 -27.75 M-64.75 -25.35 L-64.75 -29.1 -61.0 -29.1 -61.0 -25.35 -64.75 -25.35 M-16.55 -59.8 L-16.55 -64.15 -12.2 -64.15 -12.2 -59.8 -16.55 -59.8 M-29.25 -50.4 L-25.45 -50.4 -25.45 -46.7 -29.25 -46.7 -29.25 -50.4 M-4.55 -49.8 L-0.45 -49.8 -0.45 -45.65 -4.55 -45.65 -4.55 -49.8 M48.9 60.1 L48.9 56.3 54.25 56.3 54.25 60.1 48.9 60.1 M63.95 53.65 L63.95 49.9 67.75 49.9 67.75 53.65 63.95 53.65 M8.05 71.25 L8.05 67.1 12.2 67.1 12.2 71.25 8.05 71.25 M14.2 40.2 L14.2 36.45 17.95 36.45 17.95 40.2 14.2 40.2 M52.5 31.0 L48.35 31.0 48.35 26.8 52.5 26.8 52.5 31.0 M66.15 19.8 L70.2 19.8 70.2 23.9 66.15 23.9 66.15 19.8 M67.75 7.0 L63.95 7.0 63.95 3.3 67.75 3.3 67.75 7.0 M81.95 50.6 L86.0 50.6 86.0 54.7 81.95 54.7 81.95 50.6 M99.45 19.05 L99.45 23.1 95.35 23.1 95.35 19.05 99.45 19.05 M88.45 -2.25 L92.2 -2.25 92.2 1.5 88.45 1.5 88.45 -2.25 M94.6 -19.85 L90.8 -19.85 90.8 -23.55 94.6 -23.55 94.6 -19.85 M94.35 -41.7 L90.2 -41.7 90.2 -45.85 94.35 -45.85 94.35 -41.7 M62.2 -27.5 L62.2 -23.8 58.45 -23.8 58.45 -27.5 62.2 -27.5 M52.9 -1.65 L52.9 -5.4 56.65 -5.4 56.65 -1.65 52.9 -1.65 M46.6 -3.0 L50.35 -3.0 50.35 0.7 46.6 0.7 46.6 -3.0 M47.75 -32.2 L43.6 -32.2 43.6 -36.35 47.75 -36.35 47.75 -32.2 M27.65 -38.8 L27.65 -42.5 31.4 -42.5 31.4 -38.8 27.65 -38.8 M36.9 -7.75 L36.9 -4.05 33.15 -4.05 33.15 -7.75 36.9 -7.75" fill="#ffffff" fill-rule="evenodd" stroke="none"/>
  </g>
  <defs>
    <radialGradient cx="0" cy="0" gradientTransform="matrix(0.0785, 0.0, 0.0, 0.0785, 23.95, 6.55)" gradientUnits="userSpaceOnUse" id="gradient0" r="819.2" spreadMethod="pad">
      <stop offset="0.396078431372549" stop-color="#ffffff" stop-opacity="0.99215686"/>
      <stop offset="1.0" stop-color="#4053bf"/>
    </radialGradient>
    <radialGradient cx="0" cy="0" gradientTransform="matrix(0.0194, 0.0, 0.0, 0.0194, 43.95, 21.55)" gradientUnits="userSpaceOnUse" id="gradient1" r="819.2" spreadMethod="pad">
      <stop offset="0.396078431372549" stop-color="#ffffff" stop-opacity="0.99215686"/>
      <stop offset="1.0" stop-color="#4053bf"/>
    </radialGradient>
    <radialGradient cx="0" cy="0" gradientTransform="matrix(0.0218, 0.0, 0.0, 0.0218, 1.35, 15.65)" gradientUnits="userSpaceOnUse" id="gradient2" r="819.2" spreadMethod="pad">
      <stop offset="0.396078431372549" stop-color="#ffffff" stop-opacity="0.99215686"/>
      <stop offset="1.0" stop-color="#4053bf"/>
    </radialGradient>
    <radialGradient cx="0" cy="0" gradientTransform="matrix(0.0211, 0.0, 0.0, 0.0211, 9.05, 47.6)" gradientUnits="userSpaceOnUse" id="gradient3" r="819.2" spreadMethod="pad">
      <stop offset="0.396078431372549" stop-color="#ffffff" stop-opacity="0.99215686"/>
      <stop offset="1.0" stop-color="#4053bf"/>
    </radialGradient>
    <radialGradient cx="0" cy="0" gradientTransform="matrix(0.0178, 0.0, 0.0, 0.0178, -20.2, -20.8)" gradientUnits="userSpaceOnUse" id="gradient4" r="819.2" spreadMethod="pad">
      <stop offset="0.396078431372549" stop-color="#ffffff" stop-opacity="0.99215686"/>
      <stop offset="1.0" stop-color="#4053bf"/>
    </radialGradient>
    <radialGradient cx="0" cy="0" gradientTransform="matrix(0.0529, 0.0, 0.0, 0.0529, -17.5, 46.2)" gradientUnits="userSpaceOnUse" id="gradient5" r="819.2" spreadMethod="pad">
      <stop offset="0.396078431372549" stop-color="#ffffff" stop-opacity="0.99215686"/>
      <stop offset="1.0" stop-color="#4053bf"/>
    </radialGradient>
    <radialGradient cx="0" cy="0" gradientTransform="matrix(0.016, 0.0, 0.0, 0.016, -36.4, -7.75)" gradientUnits="userSpaceOnUse" id="gradient6" r="819.2" spreadMethod="pad">
      <stop offset="0.47843137254901963" stop-color="#ffffff" stop-opacity="0.99215686"/>
      <stop offset="0.8196078431372549" stop-color="#4053bf"/>
    </radialGradient>
  </defs>
</svg>
