<?xml version="1.0" encoding="UTF-8" standalone="no"?>
<svg xmlns:xlink="http://www.w3.org/1999/xlink" height="131.85px" width="134.25px" xmlns="http://www.w3.org/2000/svg">
  <g transform="matrix(1.0, 0.0, 0.0, 1.0, 72.75, 76.35)">
    <path d="M12.35 -50.05 L12.3 -50.0 12.25 -50.0 12.35 -50.05" fill="#999999" fill-rule="evenodd" stroke="none"/>
    <path d="M43.35 -19.1 Q53.25 -7.95 48.9 6.3 45.05 18.75 32.05 20.55 33.6 12.55 29.15 5.7 L28.1 5.9 Q33.35 18.1 25.35 28.35 21.25 33.6 15.4 30.3 7.9 26.05 6.75 17.5 L6.15 16.85 6.0 15.95 4.75 16.05 Q-2.9 23.6 -13.05 19.4 -18.0 17.35 -22.35 14.15 -36.4 3.75 -39.85 -13.45 -41.0 -19.0 -40.75 -24.65 -32.45 -11.7 -17.15 -12.0 -14.15 -12.05 -11.2 -13.0 -10.9 -5.65 -4.05 -2.95 L1.8 -2.75 Q-5.55 -4.6 -10.45 -10.1 L-9.65 -13.5 -6.2 -16.1 Q-19.65 -9.4 -32.0 -18.05 -38.25 -22.45 -40.95 -29.7 -45.1 -40.95 -39.05 -51.4 -35.6 -57.45 -29.05 -60.35 -13.6 -67.25 1.3 -59.15 5.55 -56.9 8.35 -52.8 L10.4 -48.95 12.3 -50.0 12.35 -50.05 Q20.8 -56.55 29.45 -50.7 32.4 -48.7 34.5 -45.8 41.15 -36.35 38.2 -25.2 29.5 -28.05 20.3 -28.25 9.4 -21.5 8.8 -8.65 L10.4 -8.65 Q10.45 -18.65 19.45 -22.6 32.15 -28.15 43.0 -19.45 42.05 -19.9 41.15 -20.4 L43.0 -18.75 Q33.5 -23.75 23.85 -19.4 15.55 -15.7 16.9 -6.75 L14.95 -5.25 Q12.3 -3.2 11.4 0.05 8.55 9.95 16.65 16.35 L18.9 14.9 Q25.75 9.45 24.5 0.7 32.05 3.4 38.1 -1.4 47.15 -8.55 43.35 -19.1 M7.15 -72.05 L11.05 -73.35 11.8 -75.05 14.35 -72.55 7.15 -72.05 M30.85 -46.85 L29.15 -48.9 Q27.3 -50.55 24.75 -50.5 13.55 -50.4 7.6 -40.85 13.6 -32.0 24.4 -32.9 26.05 -33.1 27.45 -33.95 34.9 -38.75 30.85 -46.85 M61.5 -25.4 L61.5 -24.95 60.45 -22.9 56.7 -27.55 58.2 -28.15 61.5 -25.4 M-5.0 -57.2 Q-21.2 -63.25 -34.25 -51.8 L-34.4 -50.4 Q-35.55 -40.25 -27.25 -34.25 -24.1 -31.85 -20.1 -31.15 -8.45 -29.15 -1.0 -38.25 4.75 -45.25 0.2 -52.9 -1.7 -56.05 -5.0 -57.2 M-63.3 -43.85 L-71.85 -44.65 -71.75 -48.6 -68.1 -50.9 -64.0 -49.45 -63.25 -48.25 -63.3 -43.85 M-26.5 2.25 Q-19.6 14.25 -5.75 13.65 -5.05 12.2 -5.05 10.65 -5.15 7.55 -6.8 4.9 L-10.55 4.9 -12.35 3.35 Q-18.45 -1.35 -26.0 -0.15 L-26.5 2.25 M-42.4 47.7 L-42.25 47.6 Q-35.3 46.2 -31.7 52.45 L-31.35 53.2 Q-38.5 55.45 -43.75 50.2 L-42.4 47.7 M-35.35 51.6 Q-34.75 51.2 -34.7 50.7 -34.75 50.2 -35.35 49.8 -35.95 49.45 -36.85 49.45 -37.75 49.45 -38.35 49.8 -39.0 50.2 -39.0 50.7 -39.0 51.2 -38.35 51.6 L-36.85 51.95 Q-35.95 51.95 -35.35 51.6" fill="#666666" fill-rule="evenodd" stroke="none"/>
    <path d="M11.15 -76.35 L13.45 -76.15 16.35 -72.3 Q13.25 -69.95 9.4 -70.3 7.05 -70.55 5.05 -71.8 L10.15 -74.5 11.15 -76.35 M12.3 -50.0 L10.4 -48.95 8.35 -52.8 Q5.55 -56.9 1.3 -59.15 -13.6 -67.25 -29.05 -60.35 -35.6 -57.45 -39.05 -51.4 -45.1 -40.95 -40.95 -29.7 -38.25 -22.45 -32.0 -18.05 -19.65 -9.4 -6.2 -16.1 L-9.65 -13.5 -10.45 -10.1 Q-5.55 -4.6 1.8 -2.75 L-4.05 -2.95 Q-10.9 -5.65 -11.2 -13.0 -14.15 -12.05 -17.15 -12.0 -32.45 -11.7 -40.75 -24.65 -41.0 -19.0 -39.85 -13.45 -36.4 3.75 -22.35 14.15 -18.0 17.35 -13.05 19.4 -2.9 23.6 4.75 16.05 L6.0 15.95 6.15 16.85 6.75 17.5 Q7.9 26.05 15.4 30.3 21.25 33.6 25.35 28.35 33.35 18.1 28.1 5.9 L29.15 5.7 Q33.6 12.55 32.05 20.55 45.05 18.75 48.9 6.3 53.25 -7.95 43.35 -19.1 L43.0 -19.45 Q32.15 -28.15 19.45 -22.6 10.45 -18.65 10.4 -8.65 L8.8 -8.65 Q9.4 -21.5 20.3 -28.25 29.5 -28.05 38.2 -25.2 41.15 -36.35 34.5 -45.8 32.4 -48.7 29.45 -50.7 20.8 -56.55 12.35 -50.05 L12.25 -50.0 12.3 -50.0 M11.0 -50.25 L10.95 -50.25 11.0 -50.25 M7.15 -72.05 L14.35 -72.55 11.8 -75.05 11.05 -73.35 7.15 -72.05 M32.2 -51.4 Q36.05 -48.65 38.0 -44.3 42.2 -34.8 39.0 -24.9 50.45 -17.8 52.25 -4.4 54.0 8.6 44.75 17.8 42.1 20.45 38.55 21.35 L31.85 21.65 Q30.4 30.6 21.65 32.8 17.2 33.8 13.3 31.25 6.55 26.8 5.45 18.7 L-2.55 23.25 Q-20.2 20.7 -31.7 7.1 -41.25 -4.2 -41.7 -18.95 L-41.85 -25.55 Q-41.85 -27.5 -42.55 -29.3 -46.25 -39.05 -42.25 -48.5 -40.35 -53.0 -36.7 -56.35 -23.85 -68.1 -6.65 -64.55 4.85 -62.2 10.45 -51.75 21.35 -59.15 32.2 -51.4 M61.5 -24.95 L60.55 -21.7 54.95 -27.7 57.45 -29.05 57.95 -28.95 58.45 -28.75 Q60.2 -28.25 61.05 -26.5 L61.5 -25.4 58.2 -28.15 56.7 -27.55 60.45 -22.9 61.5 -24.95 M-63.3 -43.85 L-63.25 -48.25 -64.0 -49.45 -68.1 -50.9 -71.75 -48.6 -71.85 -44.65 -63.3 -43.85 M-72.15 -43.7 L-72.75 -48.55 -67.6 -51.75 -61.6 -47.95 -62.7 -43.2 -72.15 -43.7 M-42.25 47.6 Q-39.95 46.45 -37.4 46.9 -30.5 48.1 -31.0 55.05 L-33.95 55.5 Q-40.6 55.65 -44.3 50.05 L-42.4 47.7 -43.75 50.2 Q-38.5 55.45 -31.35 53.2 L-31.7 52.45 Q-35.3 46.2 -42.25 47.6 M-35.35 51.6 Q-35.95 51.95 -36.85 51.95 L-38.35 51.6 Q-39.0 51.2 -39.0 50.7 -39.0 50.2 -38.35 49.8 -37.75 49.45 -36.85 49.45 -35.95 49.45 -35.35 49.8 -34.75 50.2 -34.7 50.7 -34.75 51.2 -35.35 51.6 M-36.0 51.05 Q-35.65 50.85 -35.65 50.65 -35.65 50.4 -36.0 50.2 L-36.85 50.05 -37.7 50.2 -38.1 50.65 -37.7 51.05 -36.85 51.2 -36.0 51.05" fill="#454545" fill-rule="evenodd" stroke="none"/>
    <path d="M43.35 -19.1 Q47.15 -8.55 38.1 -1.4 32.05 3.4 24.5 0.7 25.75 9.45 18.9 14.9 L16.65 16.35 Q8.55 9.95 11.4 0.05 12.3 -3.2 14.95 -5.25 L16.9 -6.75 Q15.55 -15.7 23.85 -19.4 33.5 -23.75 43.0 -18.75 L41.15 -20.4 Q42.05 -19.9 43.0 -19.45 L43.35 -19.1 M30.85 -46.85 Q34.9 -38.75 27.45 -33.95 26.05 -33.1 24.4 -32.9 13.6 -32.0 7.6 -40.85 13.55 -50.4 24.75 -50.5 27.3 -50.55 29.15 -48.9 L30.85 -46.85 M-5.0 -57.2 Q-1.7 -56.05 0.2 -52.9 4.75 -45.25 -1.0 -38.25 -8.45 -29.15 -20.1 -31.15 -24.1 -31.85 -27.25 -34.25 -35.55 -40.25 -34.4 -50.4 L-34.25 -51.8 Q-21.2 -63.25 -5.0 -57.2 M-26.5 2.25 L-26.0 -0.15 Q-18.45 -1.35 -12.35 3.35 L-10.55 4.9 -6.8 4.9 Q-5.15 7.55 -5.05 10.65 -5.05 12.2 -5.75 13.65 -19.6 14.25 -26.5 2.25" fill="#888888" fill-rule="evenodd" stroke="none"/>
  </g>
</svg>
