<?xml version="1.0" encoding="UTF-8" standalone="no"?>
<svg xmlns:xlink="http://www.w3.org/1999/xlink" height="64.55px" width="91.85px" xmlns="http://www.w3.org/2000/svg">
  <g transform="matrix(1.0, 0.0, 0.0, 1.0, 45.9, 32.25)">
    <path d="M-37.6 -30.75 L38.95 -30.75 35.9 -31.65 38.95 -30.75 -37.6 -30.75 -40.45 -31.55 35.9 -31.65 -40.45 -31.55 -37.6 -30.75 M41.2 -16.0 L-20.05 -16.0 -26.65 -20.7 41.2 -20.75 41.2 -25.55 -33.4 -25.55 -33.4 -18.8 -33.4 -16.0 -33.4 -11.15 -33.4 -5.75 -33.4 -0.9 -33.4 4.3 -33.4 9.1 -33.4 14.3 -33.4 19.1 -33.4 23.75 -33.4 27.95 32.25 27.95 41.2 27.95 41.2 23.75 41.2 19.1 41.2 14.3 41.2 9.1 41.2 4.3 41.2 -0.95 41.2 -5.75 41.2 -11.2 41.2 -16.0 41.2 -20.75 41.2 -16.0 41.2 -11.2 41.2 -5.75 41.2 -0.95 41.2 4.3 41.2 9.1 41.2 14.3 41.2 19.1 41.2 23.75 41.2 27.95 32.25 27.95 -33.4 27.95 -33.4 23.75 -33.4 19.1 -33.4 14.3 -33.4 9.1 -33.4 4.3 -33.4 -0.9 -33.4 -5.75 -33.4 -11.15 -33.4 -16.0 -33.4 -18.8 -33.4 -25.55 41.2 -25.55 41.2 -20.75 -26.65 -20.7 -20.05 -16.0 41.2 -16.0 M45.95 -29.2 L45.95 32.3 -37.0 32.3 -45.9 25.45 -45.9 -32.25 35.95 -32.25 45.95 -29.2 -37.0 -29.2 -37.0 32.3 -37.0 -29.2 45.95 -29.2 M5.8 9.1 L-33.4 9.1 5.8 9.1 -0.95 4.3 -8.3 -0.9 -15.05 -5.75 -22.7 -11.15 -29.45 -16.0 -33.4 -18.8 -29.45 -16.0 -22.7 -11.15 -15.05 -5.75 -8.3 -0.9 -0.95 4.3 5.8 9.1 13.1 14.3 19.85 19.1 26.35 23.75 32.25 27.95 26.35 23.75 19.85 19.1 13.1 14.3 5.8 9.1 M13.1 14.3 L-33.4 14.3 13.1 14.3 M19.85 19.1 L-33.4 19.1 19.85 19.1 M26.35 23.75 L-33.4 23.75 26.35 23.75 M-44.3 -1.4 L-39.4 1.55 -39.4 -5.2 -39.4 -9.35 -39.4 -14.15 -39.4 -18.3 -39.4 -22.6 -39.4 -26.75 -44.3 -29.05 -44.3 -24.9 -44.3 -20.6 -44.3 -16.45 -44.3 -11.65 -44.3 -7.5 -44.3 -1.4 -44.3 2.75 -44.3 8.15 -44.3 12.3 -44.3 16.05 -44.3 20.2 -44.3 23.45 -39.4 27.35 -39.4 23.15 -39.4 19.0 -39.4 15.15 -39.4 11.0 -39.4 5.7 -39.4 1.55 -39.4 5.7 -39.4 11.0 -39.4 15.15 -39.4 19.0 -39.4 23.15 -39.4 27.35 -44.3 23.45 -44.3 20.2 -44.3 16.05 -44.3 12.3 -44.3 8.15 -44.3 2.75 -44.3 -1.4 -44.3 -7.5 -39.4 -5.2 -44.3 -7.5 -44.3 -11.65 -44.3 -16.45 -44.3 -20.6 -44.3 -24.9 -44.3 -29.05 -39.4 -26.75 -39.4 -22.6 -39.4 -18.3 -39.4 -14.15 -39.4 -9.35 -39.4 -5.2 -39.4 1.55 -44.3 -1.4 M-44.3 12.3 L-39.4 15.15 -44.3 12.3 M-39.4 5.7 L-44.3 2.75 -39.4 5.7 M-44.3 8.15 L-39.4 11.0 -44.3 8.15 M-39.4 19.0 L-44.3 16.05 -39.4 19.0 M-44.3 20.2 L-39.4 23.15 -44.3 20.2 M-0.95 4.3 L-33.4 4.3 -0.95 4.3 M-44.3 -11.65 L-39.4 -9.35 -44.3 -11.65 M-44.3 -16.45 L-39.4 -14.15 -44.3 -16.45 M-44.3 -20.6 L-39.4 -18.3 -44.3 -20.6 M-37.0 -29.2 L-45.9 -32.25 -37.0 -29.2 M-44.3 -24.9 L-39.4 -22.6 -44.3 -24.9 M-33.4 -0.9 L-8.3 -0.9 -33.4 -0.9 M-15.05 -5.75 L-33.4 -5.75 -15.05 -5.75 M-33.4 -25.55 L-26.65 -20.7 -33.4 -25.55 M-5.8 -5.75 L-13.35 -11.15 -20.05 -16.0 -13.35 -11.15 41.2 -11.2 -13.35 -11.15 -5.8 -5.75 41.2 -5.75 -5.8 -5.75 0.95 -0.9 41.2 -0.95 0.95 -0.9 -5.8 -5.75 M-33.4 -11.15 L-22.7 -11.15 -33.4 -11.15 M-29.45 -16.0 L-33.4 -16.0 -29.45 -16.0 M0.95 -0.9 L8.25 4.3 41.2 4.3 8.25 4.3 14.95 9.1 41.2 9.1 14.95 9.1 8.25 4.3 0.95 -0.9 M41.2 27.95 L35.35 23.75 28.9 19.1 22.2 14.3 14.95 9.1 22.2 14.3 41.2 14.3 22.2 14.3 28.9 19.1 41.2 19.1 28.9 19.1 35.35 23.75 41.2 23.75 35.35 23.75 41.2 27.95" fill="#000000" fill-rule="evenodd" stroke="none"/>
    <path d="M35.9 -31.65 L38.95 -30.75 -37.6 -30.75" fill="none" stroke="#ffffff" stroke-linecap="round" stroke-linejoin="round" stroke-width="0.05"/>
    <path d="M-37.6 -30.75 L-40.45 -31.55 35.9 -31.65 M41.2 -20.75 L41.2 -16.0 41.2 -11.2 41.2 -5.75 41.2 -0.95 41.2 4.3 41.2 9.1 41.2 14.3 41.2 19.1 41.2 23.75 41.2 27.95 32.25 27.95 -33.4 27.95 -33.4 23.75 -33.4 19.1 -33.4 14.3 -33.4 9.1 -33.4 4.3 -33.4 -0.9 -33.4 -5.75 -33.4 -11.15 -33.4 -16.0 -33.4 -18.8 -33.4 -25.55 41.2 -25.55 41.2 -20.75 -26.65 -20.7 -20.05 -16.0 41.2 -16.0 M45.95 -29.2 L45.95 32.3 -37.0 32.3 -45.9 25.45 -45.9 -32.25 35.95 -32.25 45.95 -29.2 -37.0 -29.2 -37.0 32.3 M41.2 -5.75 L-5.8 -5.75 0.95 -0.9 41.2 -0.95 M-33.4 -18.8 L-29.45 -16.0 -22.7 -11.15 -15.05 -5.75 -8.3 -0.9 -0.95 4.3 5.8 9.1 13.1 14.3 19.85 19.1 26.35 23.75 32.25 27.95 M41.2 4.3 L8.25 4.3 14.95 9.1 41.2 9.1 M14.95 9.1 L22.2 14.3 41.2 14.3 M22.2 14.3 L28.9 19.1 41.2 19.1 M28.9 19.1 L35.35 23.75 41.2 23.75 M35.35 23.75 L41.2 27.95 M8.25 4.3 L0.95 -0.9 M-44.3 -7.5 L-44.3 -11.65 -44.3 -16.45 -44.3 -20.6 -44.3 -24.9 -44.3 -29.05 -39.4 -26.75 -39.4 -22.6 -39.4 -18.3 -39.4 -14.15 -39.4 -9.35 -39.4 -5.2 -39.4 1.55 -39.4 5.7 -39.4 11.0 -39.4 15.15 -39.4 19.0 -39.4 23.15 -39.4 27.35 -44.3 23.45 -44.3 20.2 -44.3 16.05 -44.3 12.3 -44.3 8.15 -44.3 2.75 -44.3 -1.4 -44.3 -7.5 -39.4 -5.2 M-33.4 -16.0 L-29.45 -16.0 M-22.7 -11.15 L-33.4 -11.15 M-20.05 -16.0 L-13.35 -11.15 41.2 -11.2 M-13.35 -11.15 L-5.8 -5.75 M-26.65 -20.7 L-33.4 -25.55 M-33.4 -5.75 L-15.05 -5.75 M-8.3 -0.9 L-33.4 -0.9 M-39.4 -22.6 L-44.3 -24.9 M-45.9 -32.25 L-37.0 -29.2 M-39.4 -18.3 L-44.3 -20.6 M-39.4 -14.15 L-44.3 -16.45 M-39.4 -9.35 L-44.3 -11.65 M-33.4 4.3 L-0.95 4.3 M-39.4 23.15 L-44.3 20.2 M-44.3 16.05 L-39.4 19.0 M-39.4 11.0 L-44.3 8.15 M-44.3 2.75 L-39.4 5.7 M-39.4 15.15 L-44.3 12.3 M-39.4 1.55 L-44.3 -1.4 M-33.4 23.75 L26.35 23.75 M-33.4 19.1 L19.85 19.1 M-33.4 14.3 L13.1 14.3 M-33.4 9.1 L5.8 9.1" fill="none" stroke="#ffffff" stroke-linecap="round" stroke-linejoin="round" stroke-width="0.05"/>
  </g>
</svg>
