<?xml version="1.0" encoding="UTF-8" standalone="no"?>
<svg xmlns:xlink="http://www.w3.org/1999/xlink" height="100.95px" width="133.0px" xmlns="http://www.w3.org/2000/svg">
  <g transform="matrix(1.0, 0.0, 0.0, 1.0, 70.3, 61.6)">
    <path d="M46.8 -54.95 L45.9 -54.35 44.55 -53.45 42.25 -51.9 37.55 -48.25 41.2 -44.6 41.05 -43.45 40.05 -38.7 30.35 -33.85 28.15 -32.7 25.45 -33.85 22.9 -35.25 18.55 -32.6 17.55 -32.25 20.7 -32.25 19.75 -31.6 18.6 -30.75 16.75 -29.2 13.35 -25.55 10.2 -20.7 9.95 -20.2 9.7 -20.7 7.2 -25.55 6.8 -28.5 5.1 -27.9 4.75 -27.75 0.1 -26.1 -2.6 -27.75 -8.5 -32.6 -9.2 -35.6 -6.45 -36.1 -2.6 -37.0 -0.9 -38.8 2.15 -42.15 2.25 -42.85 3.0 -47.55 3.4 -50.2 1.9 -52.4 -0.6 -56.05 Q-0.6 -56.7 -0.2 -57.15 0.2 -57.6 0.75 -57.6 L2.35 -58.4 3.75 -59.1 18.3 -59.1 19.2 -58.45 20.0 -57.6 20.25 -56.05 20.75 -52.4 23.25 -47.55 24.05 -46.1 25.6 -48.25 29.0 -51.9 30.85 -53.45 32.0 -54.3 32.95 -54.95 46.8 -54.95 M30.35 -33.85 L25.45 -33.85 30.35 -33.85 M20.75 -52.4 L1.9 -52.4 20.75 -52.4 M20.0 -57.6 L0.75 -57.6 20.0 -57.6 M2.35 -58.4 L19.2 -58.45 2.35 -58.4 M25.3 -25.55 L30.0 -29.2 45.95 -29.2 30.0 -29.2 32.3 -30.75 33.65 -31.65 34.55 -32.25 35.95 -32.25 45.95 -29.2 45.95 -17.7 47.05 -18.25 56.1 -18.25 60.45 -16.4 60.45 -13.45 38.65 -13.4 60.45 -13.45 60.45 -16.4 62.7 -14.85 60.45 -11.6 58.55 -8.85 58.85 -8.0 60.45 -3.3 60.6 -2.85 60.45 -2.45 60.45 -3.2 60.45 -3.3 60.45 -3.2 60.45 -2.45 58.8 2.05 58.35 3.15 45.95 5.25 45.95 11.85 56.85 15.5 58.05 16.25 56.85 18.7 55.45 21.5 44.55 21.5 37.85 16.7 56.85 16.7 56.85 18.7 56.85 16.7 37.85 16.7 44.55 21.5 55.45 21.5 53.2 26.15 52.85 26.8 52.3 27.1 46.1 29.05 45.95 29.1 45.95 32.3 -3.35 32.3 -3.9 33.75 -7.8 37.95 -27.2 39.35 -27.9 37.95 -30.1 33.75 -29.9 32.3 -37.0 32.3 -45.15 26.0 -40.55 26.6 -40.05 26.65 -39.3 26.55 -31.55 21.75 -29.45 19.1 -28.3 16.55 -27.65 11.75 -27.7 10.85 -27.8 9.95 -18.5 10.9 -18.85 12.0 -18.25 13.9 -19.85 16.45 -19.9 16.55 -21.2 19.1 -22.75 23.75 -20.55 27.95 -19.85 29.35 -10.05 31.3 -10.15 29.1 -10.8 24.3 -10.9 23.65 -8.75 24.3 -3.55 29.1 -3.3 29.6 -0.45 27.95 3.45 23.75 4.55 20.7 3.8 19.1 -1.4 14.3 -3.6 13.6 -3.85 12.7 1.5 11.3 9.1 12.2 8.8 11.25 Q8.8 7.55 5.15 4.95 1.5 2.35 -3.7 2.35 L-10.35 2.8 -9.95 -0.45 -8.8 -0.9 -8.45 -1.05 -2.25 -3.2 5.0 -5.75 5.85 -5.75 Q7.6 -5.8 8.8 -7.3 10.05 -8.9 10.05 -11.15 L10.55 -12.6 13.2 -11.15 15.9 -10.0 18.1 -11.15 20.2 -12.0 19.4 -11.15 17.1 -5.75 16.25 -0.9 16.15 0.2 18.3 4.3 19.45 6.6 39.1 5.4 39.25 4.5 37.55 2.05 35.4 -2.05 35.5 -3.15 36.35 -8.0 38.65 -13.4 39.7 -14.9 36.85 -16.0 41.2 -16.0 41.2 -20.75 41.2 -25.55 25.3 -25.55 41.2 -25.55 41.2 -20.75 41.2 -16.0 36.85 -16.0 28.1 -16.15 28.8 -20.75 28.95 -21.9 25.3 -25.55 M11.3 -30.05 L7.75 -32.6 0.2 -38.0 23.6 -38.0 0.2 -38.0 7.75 -32.6 18.55 -32.6 7.75 -32.6 11.3 -30.05 M7.2 -25.55 L13.35 -25.55 7.2 -25.55 M8.8 -29.2 L16.75 -29.2 8.8 -29.2 M15.7 -31.6 L19.75 -31.6 15.7 -31.6 M18.6 -30.75 L13.25 -30.75 18.6 -30.75 M23.8 -38.7 L40.05 -38.7 23.8 -38.7 M37.55 -48.25 L25.6 -48.25 37.55 -48.25 M32.3 -30.75 L38.95 -30.75 35.9 -31.65 33.65 -31.65 35.9 -31.65 38.95 -30.75 32.3 -30.75 M17.1 -5.75 L5.85 -5.75 17.1 -5.75 M10.05 -11.15 L13.2 -11.15 10.05 -11.15 M9.7 -20.7 L10.2 -20.7 9.7 -20.7 M18.3 4.3 L8.25 4.3 0.95 -0.9 16.25 -0.9 0.95 -0.9 8.25 4.3 18.3 4.3 M18.1 -11.15 L19.4 -11.15 18.1 -11.15 M41.2 -20.75 L28.8 -20.75 41.2 -20.75 M22.25 -42.85 L2.25 -42.85 22.25 -42.85 M3.0 -47.55 L23.25 -47.55 3.0 -47.55 M36.35 -8.0 L58.85 -8.0 36.35 -8.0 M60.45 -13.45 L60.45 -11.6 60.45 -13.45 M30.85 -53.45 L44.55 -53.45 30.85 -53.45 M42.25 -51.9 L29.0 -51.9 42.25 -51.9 M60.45 -3.2 L35.5 -3.15 60.45 -3.2 M22.45 -43.4 L41.05 -43.45 22.45 -43.4 M45.9 -54.35 L32.0 -54.3 45.9 -54.35 M41.2 4.75 L41.2 9.1 14.95 9.1 8.25 4.3 14.95 9.1 41.2 9.1 41.2 4.75 M37.55 2.05 L58.8 2.05 37.55 2.05 M56.85 16.7 L56.85 15.5 56.85 16.7 M31.6 26.15 L42.0 26.15 46.1 29.05 42.0 26.15 31.6 26.15 30.1 22.45 30.3 21.5 31.0 18.35 31.35 16.7 34.55 14.35 39.85 12.35 18.9 11.95 15.7 14.3 15.35 15.95 14.65 19.1 14.45 20.05 15.95 23.75 16.55 25.25 30.45 26.65 31.6 26.15 M51.0 26.15 L44.55 21.5 51.0 26.15 53.2 26.15 51.0 26.15 52.3 27.1 51.0 26.15 M-0.45 27.95 L32.25 27.95 30.45 26.65 32.25 27.95 -0.45 27.95 M35.5 21.5 L42.0 26.15 35.5 21.5 30.3 21.5 35.5 21.5 31.0 18.35 35.5 21.5 M3.45 23.75 L15.95 23.75 3.45 23.75 M14.65 19.1 L3.8 19.1 14.65 19.1 M15.35 15.95 L13.1 14.3 8.8 11.25 13.1 14.3 15.35 15.95 M14.95 9.1 L18.9 11.95 14.95 9.1 M34.55 14.35 L37.85 16.7 34.55 14.35 M-21.15 -38.6 L-23.85 -40.5 -30.6 -45.35 -34.55 -48.15 -34.55 -54.9 -27.8 -50.05 -21.2 -45.35 -15.6 -41.3 -21.2 -45.35 -27.8 -50.05 -34.55 -54.9 -34.55 -48.15 -30.6 -45.35 -23.85 -40.5 -21.15 -38.6 -23.7 -38.05 -28.5 -40.5 -33.4 -45.35 -34.55 -46.8 -37.9 -52.3 -37.2 -58.55 -37.55 -60.1 -37.85 -60.9 -38.1 -61.6 -17.35 -61.6 -16.9 -60.9 -16.35 -60.1 -15.3 -58.55 -12.8 -54.9 -11.3 -52.7 -11.7 -50.05 -12.45 -45.35 -12.55 -44.65 -15.6 -41.3 -17.3 -39.5 -21.15 -38.6 M-21.2 -45.35 L-12.45 -45.35 -21.2 -45.35 M-16.9 -60.9 L-37.85 -60.9 -16.9 -60.9 M-16.35 -60.1 L-37.55 -60.1 -16.35 -60.1 M-27.8 -50.05 L-11.7 -50.05 -27.8 -50.05 M-12.8 -54.9 L-34.55 -54.9 -12.8 -54.9 M-15.3 -58.55 L-37.2 -58.55 -15.3 -58.55 M-54.75 -39.95 L-54.5 -39.25 -54.2 -38.45 -53.85 -36.9 -54.8 -30.25 Q-54.8 -29.7 -55.5 -29.3 -56.2 -28.95 -57.2 -28.95 L-59.15 -31.2 -62.1 -34.6 -63.7 -36.6 -63.7 -39.95 -54.75 -39.95 M-62.1 -34.6 L-62.1 -36.75 -57.2 -34.45 -57.2 -30.3 -57.2 -28.95 -57.2 -30.3 -59.15 -31.2 -57.2 -30.3 -57.2 -34.45 -62.1 -36.75 -62.1 -34.6 M-54.8 -30.25 L-54.8 -36.9 -53.85 -36.9 -54.8 -36.9 -54.8 -30.25 M-54.2 -38.45 L-58.25 -39.25 -54.5 -39.25 -58.25 -39.25 -54.2 -38.45 M-70.3 -24.4 L-68.7 -22.4 -65.75 -19.0 -63.8 -15.25 -63.8 -13.8 -63.8 -9.65 -63.8 -4.85 -63.8 -1.1 -68.7 -3.0 -68.7 3.1 -67.75 3.65 -68.7 4.05 -70.3 4.3 -70.3 -24.4 M-68.7 -16.1 L-68.7 -11.95 -63.8 -9.65 -68.7 -11.95 -68.7 -7.15 -63.8 -4.85 -68.7 -7.15 -68.7 -11.95 -68.7 -16.1 -68.7 -20.4 -65.75 -19.0 -68.7 -20.4 -68.7 -16.1 -63.8 -13.8 -68.7 -16.1 M-68.7 -7.15 L-68.7 -3.0 -68.7 -7.15 M-68.7 -22.4 L-68.7 -20.4 -68.7 -22.4 M-60.0 -6.5 L-60.0 -12.6 -55.1 -10.3 -55.1 -3.55 -60.0 -6.5 M-51.1 -0.2 L-51.1 -0.35 -50.0 -8.55 -47.5 -7.5 -47.5 -4.05 -47.5 0.75 -42.0 0.75 -47.5 0.75 -47.5 -4.05 -47.5 -7.5 -47.5 -7.6 -47.5 -9.25 -47.5 -10.8 -47.5 -9.25 -45.7 -9.25 -43.35 -4.05 -42.0 0.75 -41.75 3.4 -53.7 3.4 -41.75 3.4 -42.4 8.2 -43.55 10.75 -43.65 10.9 -45.65 13.4 -53.4 18.2 -54.3 18.3 -59.25 17.65 -59.55 17.4 -61.25 20.55 -61.25 18.45 -61.25 13.15 -61.25 9.0 -61.25 13.15 -61.25 18.45 -61.25 20.55 -62.3 22.0 -64.7 24.35 -66.15 23.5 -66.15 19.75 -62.3 22.0 -66.15 19.75 -66.15 23.5 -64.7 24.35 -66.15 25.5 -67.75 26.55 -67.75 7.25 -66.15 7.0 -65.2 6.6 -61.25 9.0 -61.25 2.75 -59.3 1.85 -58.85 2.1 -58.05 2.5 -57.7 8.85 -57.5 8.2 -42.4 8.2 -57.5 8.2 Q-57.5 6.2 -56.5 4.8 -55.55 3.4 -54.2 3.4 L-53.7 3.4 Q-52.65 3.35 -51.85 2.35 -51.1 1.3 -51.1 -0.2 M-39.4 -5.6 L-39.25 -10.0 -39.95 -9.55 -40.95 -8.95 -40.7 -11.05 -39.95 -11.95 -39.15 -12.85 -38.75 -13.3 -39.4 -19.75 -39.4 -21.25 -37.0 -22.4 -37.0 -22.55 -36.75 -22.95 -33.4 -17.45 -33.0 -17.65 -29.3 -15.85 -28.6 -12.85 -22.7 -8.0 -20.4 -6.25 -16.9 -7.45 -17.3 -4.2 -21.2 -2.8 -21.6 -2.8 Q-22.75 -2.8 -23.6 -1.4 -24.5 0.0 -24.5 2.0 L-25.05 3.8 -34.35 2.45 -34.45 2.0 -34.9 0.0 -35.9 -0.2 -36.0 -2.8 Q-36.0 -3.8 -37.0 -4.5 -38.0 -5.2 -39.4 -5.2 L-39.4 -5.6 M-41.1 -7.8 L-39.8 -6.15 -41.2 -7.0 -41.1 -7.8 M-47.5 -10.8 L-46.8 -11.25 -45.7 -9.25 -47.5 -9.25 -47.5 -7.6 -49.25 -9.8 -47.5 -10.8 M-63.7 -39.95 L-54.8 -36.9 -63.7 -39.95 M-47.5 -4.05 L-43.35 -4.05 -47.5 -4.05 M-12.8 -30.75 L-14.5 -29.75 -15.2 -30.75 -12.8 -30.75 -15.2 -30.75 -15.75 -31.55 -16.2 -32.25 -9.8 -32.25 -11.2 -31.55 -12.8 -30.75 M-8.45 -1.05 L-8.3 -0.9 -8.8 -0.9 -8.3 -0.9 -8.45 -1.05 M-38.15 -8.0 L-22.7 -8.0 -38.15 -8.0 M-21.6 -2.8 L-36.0 -2.8 -21.6 -2.8 M-39.15 -12.85 L-28.6 -12.85 -39.15 -12.85 M-39.95 -9.55 L-39.95 -11.95 -39.95 -9.55 M-37.0 -14.95 L-37.0 -22.4 -37.0 -14.95 M-33.4 -45.35 L-30.6 -45.35 -33.4 -45.35 M-34.55 -48.15 L-34.55 -46.8 -34.55 -48.15 M-23.85 -40.5 L-28.5 -40.5 -23.85 -40.5 M-6.45 -36.1 L-1.5 -32.6 -8.5 -32.6 -1.5 -32.6 -6.45 -36.1 M-15.75 -31.55 L-11.2 -31.55 -15.75 -31.55 M-11.2 22.7 L-12.3 20.55 -5.85 21.3 -11.2 22.7 M-28.25 26.55 L-39.3 26.55 -28.25 26.55 M-37.0 28.3 L-37.0 32.3 -37.0 28.3 M-27.25 26.55 L-24.0 28.7 -27.25 26.55 M-24.25 27.95 L-20.55 27.95 -24.25 27.95 M-34.45 2.0 L-24.5 2.0 -34.45 2.0 M-28.55 23.75 L-22.75 23.75 -28.55 23.75 M-29.45 19.1 L-21.2 19.1 -29.45 19.1 M-26.4 11.75 L-27.65 11.75 -26.4 11.75 -27.7 10.85 -26.4 11.75 -19.85 16.45 -26.4 11.75 M-8.75 24.3 L-10.8 24.3 -8.75 24.3 M-15.8 32.3 L-13.55 33.4 -11.7 32.3 -15.8 32.3 M-3.9 33.75 L-30.1 33.75 -3.9 33.75 M-28.3 16.55 L-19.9 16.55 -28.3 16.55 M-7.8 37.95 L-27.9 37.95 -7.8 37.95 M-10.15 29.1 L-3.55 29.1 -10.15 29.1 M-58.85 10.0 L-58.85 2.1 -58.85 10.0 M-56.75 16.4 L-58.4 15.1 -58.4 9.7 -58.4 15.1 -56.75 16.4 M-60.0 10.75 L-60.0 17.1 -59.55 17.4 -60.0 17.1 -60.0 10.75 M-57.7 13.4 L-45.65 13.4 -57.7 13.4 M-61.25 13.15 L-66.15 10.2 -66.15 7.0 -66.15 10.2 -61.25 13.15 M-68.7 3.1 L-68.7 4.05 -68.7 3.1 M-66.15 15.6 L-66.15 10.2 -66.15 15.6 -61.25 18.45 -66.15 15.6 -66.15 19.75 -66.15 15.6 M13.1 14.3 L-1.4 14.3 13.1 14.3 M-2.25 -3.2 L0.95 -0.9 -2.25 -3.2 M-2.6 -27.75 L4.75 -27.75 -2.6 -27.75 M0.2 -38.0 L-0.9 -38.8 0.2 -38.0 M-1.5 -32.6 L5.1 -27.9 -1.5 -32.6 M-0.6 -56.05 L20.25 -56.05 -0.6 -56.05 M-8.3 -0.9 L-3.7 2.35 -8.3 -0.9 M-66.15 25.5 L-66.15 23.5 -66.15 25.5" fill="#000000" fill-rule="evenodd" stroke="none"/>
    <path d="M17.55 -32.25 L20.7 -32.25 M3.75 -59.1 L18.3 -59.1 M32.95 -54.95 L46.8 -54.95 M19.2 -58.45 L2.35 -58.4 M0.75 -57.6 L20.0 -57.6 M1.9 -52.4 L20.75 -52.4 M25.45 -33.85 L30.35 -33.85 M25.3 -25.55 L41.2 -25.55 41.2 -20.75 41.2 -16.0 36.85 -16.0 M38.65 -13.4 L60.45 -13.45 60.45 -16.4 M56.1 -18.25 L47.05 -18.25 M45.95 -17.7 L45.95 -29.2 30.0 -29.2 M34.55 -32.25 L35.95 -32.25 45.95 -29.2 M33.65 -31.65 L35.9 -31.65 38.95 -30.75 32.3 -30.75 M25.6 -48.25 L37.55 -48.25 M40.05 -38.7 L23.8 -38.7 M13.25 -30.75 L18.6 -30.75 M19.75 -31.6 L15.7 -31.6 M23.6 -38.0 L0.2 -38.0 7.75 -32.6 18.55 -32.6 M16.75 -29.2 L8.8 -29.2 M13.35 -25.55 L7.2 -25.55 M7.75 -32.6 L11.3 -30.05 M5.0 -5.75 L5.85 -5.75 17.1 -5.75 M19.4 -11.15 L18.1 -11.15 M16.25 -0.9 L0.95 -0.9 8.25 4.3 18.3 4.3 M10.2 -20.7 L9.7 -20.7 M13.2 -11.15 L10.05 -11.15 M28.8 -20.75 L41.2 -20.75 M23.25 -47.55 L3.0 -47.55 M2.25 -42.85 L22.25 -42.85 M60.45 -3.3 L60.45 -3.2 60.45 -2.45 M58.85 -8.0 L36.35 -8.0 M60.45 -11.6 L60.45 -13.45 M32.0 -54.3 L45.9 -54.35 M41.05 -43.45 L22.45 -43.4 M35.5 -3.15 L60.45 -3.2 M29.0 -51.9 L42.25 -51.9 M44.55 -53.45 L30.85 -53.45 M58.8 2.05 L37.55 2.05 M8.25 4.3 L14.95 9.1 41.2 9.1 41.2 4.75 M45.95 11.85 L45.95 5.25 M56.85 18.7 L56.85 16.7 37.85 16.7 44.55 21.5 55.45 21.5 M45.95 29.1 L45.95 32.3 -3.35 32.3 M-29.9 32.3 L-37.0 32.3 -45.15 26.0 M-40.55 26.6 L-40.05 26.65 M56.85 15.5 L56.85 16.7 M46.1 29.05 L42.0 26.15 31.6 26.15 M30.45 26.65 L32.25 27.95 -0.45 27.95 M53.2 26.15 L51.0 26.15 52.3 27.1 M44.55 21.5 L51.0 26.15 M30.3 21.5 L35.5 21.5 31.0 18.35 M37.85 16.7 L34.55 14.35 M18.9 11.95 L14.95 9.1 M8.8 11.25 L13.1 14.3 15.35 15.95 M3.8 19.1 L14.65 19.1 M15.95 23.75 L3.45 23.75 M42.0 26.15 L35.5 21.5 M-15.6 -41.3 L-21.2 -45.35 -27.8 -50.05 -34.55 -54.9 -34.55 -48.15 -30.6 -45.35 -23.85 -40.5 -21.15 -38.6 M-12.45 -45.35 L-21.2 -45.35 M-38.1 -61.6 L-17.35 -61.6 M-37.2 -58.55 L-15.3 -58.55 M-34.55 -54.9 L-12.8 -54.9 M-11.7 -50.05 L-27.8 -50.05 M-37.55 -60.1 L-16.35 -60.1 M-37.85 -60.9 L-16.9 -60.9 M-63.7 -36.6 L-63.7 -39.95 -54.75 -39.95 M-54.5 -39.25 L-58.25 -39.25 -54.2 -38.45 M-53.85 -36.9 L-54.8 -36.9 -54.8 -30.25 M-57.2 -28.95 L-57.2 -30.3 -59.15 -31.2 M-57.2 -30.3 L-57.2 -34.45 -62.1 -36.75 -62.1 -34.6 M-63.8 -15.25 L-63.8 -13.8 -63.8 -9.65 -63.8 -4.85 -63.8 -1.1 M-70.3 4.3 L-70.3 -24.4 M-65.75 -19.0 L-68.7 -20.4 -68.7 -16.1 -63.8 -13.8 M-68.7 -20.4 L-68.7 -22.4 M-63.8 -9.65 L-68.7 -11.95 -68.7 -7.15 -63.8 -4.85 M-68.7 -3.0 L-68.7 -7.15 M-68.7 -11.95 L-68.7 -16.1 M-60.0 -6.5 L-60.0 -12.6 -55.1 -10.3 -55.1 -3.55 -60.0 -6.5 M-51.1 -0.35 L-51.1 -0.2 M-53.7 3.4 L-41.75 3.4 M-42.0 0.75 L-47.5 0.75 -47.5 -4.05 -47.5 -7.5 -47.5 -7.6 -47.5 -9.25 -45.7 -9.25 M-39.4 -19.75 L-39.4 -21.25 M-37.0 -22.4 L-37.0 -22.55 M-21.2 -2.8 L-21.6 -2.8 -36.0 -2.8 M-39.4 -5.2 L-39.4 -5.6 M-47.5 -10.8 L-47.5 -9.25 M-43.35 -4.05 L-47.5 -4.05 M-54.8 -36.9 L-63.7 -39.95 M-12.8 -30.75 L-15.2 -30.75 M-16.2 -32.25 L-9.8 -32.25 M-11.2 -31.55 L-15.75 -31.55 M-8.5 -32.6 L-1.5 -32.6 -6.45 -36.1 M-28.5 -40.5 L-23.85 -40.5 M-34.55 -46.8 L-34.55 -48.15 M-30.6 -45.35 L-33.4 -45.35 M-37.0 -22.4 L-37.0 -14.95 M-39.95 -11.95 L-39.95 -9.55 M-28.6 -12.85 L-39.15 -12.85 M-22.7 -8.0 L-38.15 -8.0 M-8.8 -0.9 L-8.3 -0.9 -8.45 -1.05 M-10.8 24.3 L-8.75 24.3 M-27.7 10.85 L-26.4 11.75 -19.85 16.45 M-27.65 11.75 L-26.4 11.75 M-21.2 19.1 L-29.45 19.1 M-22.75 23.75 L-28.55 23.75 M-24.5 2.0 L-34.45 2.0 M-20.55 27.95 L-24.25 27.95 M-24.0 28.7 L-27.25 26.55 M-37.0 32.3 L-37.0 28.3 M-39.3 26.55 L-28.25 26.55 M-15.8 32.3 L-11.7 32.3 M-3.55 29.1 L-10.15 29.1 M-27.9 37.95 L-7.8 37.95 M-19.9 16.55 L-28.3 16.55 M-30.1 33.75 L-3.9 33.75 M-43.65 10.9 L-43.55 10.75 M-42.4 8.2 L-57.5 8.2 M-58.85 2.1 L-58.85 10.0 M-53.7 3.4 L-54.2 3.4 M-61.25 9.0 L-61.25 13.15 -61.25 18.45 -61.25 20.55 M-59.55 17.4 L-60.0 17.1 -60.0 10.75 M-58.4 9.7 L-58.4 15.1 -56.75 16.4 M-54.3 18.3 L-53.4 18.2 M-45.65 13.4 L-57.7 13.4 M-59.55 17.4 L-59.25 17.65 M-68.7 4.05 L-68.7 3.1 M-66.15 7.0 L-66.15 10.2 -61.25 13.15 M-62.3 22.0 L-66.15 19.75 -66.15 23.5 -64.7 24.35 M-61.25 18.45 L-66.15 15.6 -66.15 19.75 M-66.15 10.2 L-66.15 15.6 M-67.75 26.55 L-67.75 7.25 M-66.15 23.5 L-66.15 25.5 M-3.7 2.35 L-8.3 -0.9 M20.25 -56.05 L-0.6 -56.05 M5.1 -27.9 L-1.5 -32.6 M-0.9 -38.8 L0.2 -38.0 M4.75 -27.75 L-2.6 -27.75 M0.95 -0.9 L-2.25 -3.2 M-1.4 14.3 L13.1 14.3" fill="none" stroke="#ffffff" stroke-linecap="round" stroke-linejoin="round" stroke-width="0.05"/>
  </g>
</svg>
