<?xml version="1.0" encoding="UTF-8" standalone="no"?>
<svg xmlns:xlink="http://www.w3.org/1999/xlink" height="104.6px" width="171.9px" xmlns="http://www.w3.org/2000/svg">
  <g transform="matrix(1.0, 0.0, 0.0, 1.0, 86.55, 64.35)">
    <path d="M26.75 -27.15 L36.5 -27.15 36.5 -17.4 26.75 -17.4 26.75 -27.15 M18.3 -59.1 L19.95 -57.85 20.35 -55.25 19.0 -55.65 18.2 -54.4 3.3 -47.7 3.4 -50.2 -0.95 -56.6 18.3 -59.1 M44.1 -55.45 L46.8 -54.95 37.25 -48.55 41.2 -44.55 26.7 -36.0 26.7 -33.15 22.8 -35.4 23.05 -36.15 22.25 -33.9 17.55 -32.25 20.5 -32.1 9.95 -20.2 6.8 -28.5 -0.3 -26.0 -8.4 -32.2 -9.0 -35.55 -2.9 -36.9 2.15 -42.15 2.25 -42.65 2.05 -40.95 6.4 -36.8 23.15 -43.45 24.6 -46.9 21.7 -49.65 22.95 -56.3 37.85 -63.1 38.65 -64.35 40.0 -63.95 44.1 -55.45 M40.35 -40.55 L54.45 -49.1 54.0 -43.4 Q47.9 -40.3 41.8 -37.25 L40.35 -37.7 40.35 -40.55 M19.4 -11.15 L16.45 -2.35 3.9 4.8 -10.35 2.8 -10.0 -0.5 8.7 -7.05 10.55 -12.6 15.9 -10.0 18.1 -11.15 19.4 -11.15 18.1 -11.15 20.2 -12.0 19.4 -11.15 M31.75 -10.05 L31.45 -7.5 34.75 -1.1 36.0 -0.85 35.4 -2.05 36.45 -8.45 37.85 -4.95 44.45 -4.15 52.35 -11.9 51.25 -14.65 54.5 -21.1 49.85 -22.55 51.0 -30.6 43.35 -32.25 42.65 -33.05 48.2 -36.8 58.55 -34.05 60.75 -35.4 60.75 -23.9 71.2 -24.35 71.65 -21.9 58.55 -8.85 59.0 -7.6 42.2 -0.3 43.55 -0.15 43.6 1.7 40.85 2.35 39.9 12.6 41.6 15.4 40.7 16.0 49.5 17.3 49.6 18.95 47.55 20.7 32.65 17.15 27.3 22.7 25.2 22.7 24.55 17.0 29.5 9.4 28.35 9.0 28.25 7.55 38.5 4.0 37.85 2.7 24.0 9.55 19.0 7.4 18.0 3.75 24.4 4.5 19.4 -2.8 31.75 -10.05 M83.1 6.45 L71.3 8.45 83.05 -4.2 85.35 0.45 83.1 6.45 M70.7 9.1 L70.7 15.15 71.2 14.85 78.05 17.0 73.9 19.55 74.4 20.65 67.4 28.35 66.95 28.4 65.3 30.6 60.15 31.0 57.25 27.9 62.75 14.5 64.55 15.7 70.7 9.1 M8.7 17.25 L4.55 20.65 -3.6 13.6 -3.85 12.7 2.7 11.45 3.7 15.1 8.7 17.25 M38.65 5.7 L39.1 5.4 39.15 4.45 38.65 5.7 M39.85 12.35 L38.0 11.5 38.5 12.7 39.85 12.35 M41.8 31.45 L44.45 31.25 45.95 29.6 45.95 32.3 40.65 32.3 41.8 31.45 M54.8 18.4 L54.0 17.15 50.35 15.5 53.3 13.7 58.05 16.25 52.85 26.8 46.55 29.0 48.6 26.7 50.25 27.1 50.55 24.6 53.55 21.3 52.05 18.15 54.8 18.4 M1.55 28.0 L6.55 23.05 21.45 26.6 19.4 28.4 10.1 28.6 10.3 34.45 13.2 37.55 15.7 37.35 14.55 38.2 -0.9 38.2 -0.9 35.55 0.05 34.75 0.25 32.8 5.6 32.35 4.1 28.6 1.65 28.6 2.05 32.3 -3.35 32.3 -4.45 35.25 -12.3 40.25 -14.55 32.95 -13.55 33.4 -11.7 32.3 -14.9 32.3 -15.75 30.75 -10.05 31.3 -10.9 23.65 -3.3 29.6 1.4 26.6 1.55 28.0 M22.05 32.3 L25.2 29.65 25.2 32.3 24.3 32.3 24.15 33.0 22.05 32.3 M-37.9 -52.35 L-38.1 -61.6 -17.35 -61.6 -14.2 -57.0 -18.0 -57.9 -20.5 -56.65 -15.5 -54.2 -30.0 -48.8 -30.4 -44.25 -27.95 -40.15 -37.9 -52.35 M-81.65 -9.3 L-81.4 -2.55 -80.1 -6.9 -75.8 -9.3 -73.95 -15.35 -70.3 -12.7 -70.3 -24.4 -64.1 -16.95 -63.9 -0.75 -66.6 -2.05 -68.7 1.05 -68.7 2.8 -63.65 7.45 -64.75 8.85 -67.45 8.55 -63.9 19.05 -60.6 19.55 -67.75 26.55 -67.75 9.25 -68.4 10.45 -71.7 9.95 -74.65 5.35 -76.45 6.2 -86.55 -3.85 -84.85 -2.8 -84.85 -9.05 -82.9 -9.95 -81.65 -9.3 M-50.4 -56.05 L-47.9 -57.3 -44.1 -56.4 -41.2 -52.1 -41.95 -47.0 -52.45 -38.5 -54.35 -38.85 -55.7 -28.95 -63.7 -36.6 -63.7 -39.95 -58.1 -39.95 -60.3 -43.65 -59.9 -48.2 -45.4 -53.6 -50.4 -56.05 M-49.25 -9.8 L-46.8 -11.25 -42.4 7.75 -50.35 -3.55 -50.0 -8.55 -47.35 -7.4 -49.25 -9.8 M-55.85 -4.0 L-60.0 -6.5 -60.0 -12.6 -55.1 -10.3 -55.85 -4.0 M-40.7 -11.05 L-38.75 -13.3 -39.4 -19.75 -39.4 -21.25 -37.75 -21.4 -36.75 -22.95 -33.35 -17.45 -29.3 -15.85 -28.5 -12.45 -20.4 -6.25 -16.9 -7.45 -17.3 -4.2 -23.5 -1.3 -25.45 3.9 -34.35 2.8 -34.9 0.0 -35.9 -0.2 -36.85 -5.3 -37.45 -5.6 -39.4 -4.7 -39.4 -5.6 -39.05 -9.65 -40.95 -8.95 -40.7 -11.05 M-56.65 17.65 L-55.85 16.55 -52.85 18.0 -56.65 17.65 M-31.05 26.0 L-31.5 26.9 -31.95 26.0 -31.05 26.0 M-38.25 18.3 L-37.9 19.35 -41.7 26.45 -38.5 26.25 -36.2 30.8 -32.35 32.3 -37.0 32.3 -42.45 28.55 -39.5 34.8 -38.05 35.4 -49.85 38.6 -49.55 37.75 -55.85 36.25 -57.75 31.6 -47.35 19.55 -45.9 20.75 -38.25 18.3 M-18.5 10.9 L-18.85 12.0 -18.6 12.85 -26.25 15.3 -27.7 13.7 -27.8 9.95 -18.5 10.9 M-11.75 21.45 L-11.4 20.65 -5.85 21.3 -11.2 22.7 -11.75 21.45 M-12.05 -47.6 L-12.55 -44.65 -17.3 -39.5 -23.7 -38.05 -27.85 -40.05 -22.55 -39.1 -12.05 -47.6 M-14.5 -29.75 L-16.2 -32.25 -10.1 -32.05 -14.5 -29.75 M-41.2 -7.0 L-41.1 -7.8 -39.95 -6.25 -41.2 -7.0" fill="#000000" fill-rule="evenodd" stroke="none"/>
    <path d="M19.4 -11.15 L18.1 -11.15 M70.7 9.1 L70.7 15.15" fill="none" stroke="#ffffff" stroke-linecap="round" stroke-linejoin="round" stroke-width="0.05"/>
  </g>
</svg>
