<?xml version="1.0" encoding="UTF-8" standalone="no"?>
<svg xmlns:xlink="http://www.w3.org/1999/xlink" height="141.45px" width="189.9px" xmlns="http://www.w3.org/2000/svg">
  <g transform="matrix(1.0, 0.0, 0.0, 1.0, 86.55, 89.0)">
    <path d="M69.35 -54.95 L59.8 -48.55 63.75 -44.55 50.35 -36.65 51.5 -42.1 50.4 -41.55 52.9 -48.15 54.45 -49.1 54.35 -47.85 64.55 -59.8 66.65 -55.45 69.35 -54.95 M48.75 -78.75 L38.1 -63.3 39.1 -64.0 38.1 -59.1 37.05 -60.1 37.4 -62.0 35.35 -55.2 33.8 -55.5 30.7 -61.2 32.05 -64.4 30.2 -66.15 31.35 -72.0 46.1 -81.85 47.45 -81.45 48.75 -78.75 M1.35 -56.9 L2.1 -49.95 7.65 -46.85 1.3 -44.65 0.25 -45.5 -0.55 -50.65 0.9 -53.85 -0.95 -56.6 1.35 -56.9 M34.1 -53.0 L34.15 -49.4 32.7 -49.6 34.1 -53.0 M28.95 -27.15 L26.85 -17.4 27.05 -27.1 28.95 -27.15 M21.8 -33.7 L19.9 -33.05 15.6 -40.45 16.85 -40.95 16.85 -38.7 20.05 -34.45 21.8 -34.35 21.8 -33.7 M8.65 -46.55 L17.0 -50.5 18.35 -48.2 10.1 -42.75 8.65 -46.55 M19.4 -11.15 L16.45 -2.35 3.9 4.8 -10.35 2.8 -10.0 -0.5 8.7 -7.05 10.55 -12.6 15.9 -10.0 18.1 -11.15 19.4 -11.15 18.1 -11.15 20.2 -12.0 19.4 -11.15 M2.05 -40.95 L2.4 -40.65 -2.15 -32.0 -1.35 -26.8 -8.4 -32.2 -9.0 -35.55 -2.9 -36.9 2.15 -42.15 2.25 -42.65 2.05 -40.95 M8.5 -24.1 L18.0 -29.25 9.95 -20.2 8.5 -24.1 M31.55 -7.3 L21.8 0.7 19.4 -2.8 28.95 -8.4 31.55 -7.3 M36.0 -0.85 L35.8 -1.25 37.75 -5.15 38.6 -4.85 36.9 -1.4 40.6 5.4 39.9 12.6 41.6 15.4 40.7 16.0 49.5 17.3 49.6 18.95 47.55 20.7 32.65 17.15 27.3 22.7 25.2 22.7 24.55 17.0 29.5 9.4 28.35 9.0 28.3 8.3 31.65 7.05 32.05 6.25 38.5 4.0 37.85 2.7 32.5 5.35 36.0 -0.85 M74.55 -35.15 L74.55 -24.05 69.55 -24.05 64.45 -35.15 74.55 -35.15 M72.95 -41.55 L63.45 -37.3 62.9 -37.7 62.9 -40.55 75.45 -48.15 72.95 -41.55 M44.9 -31.9 L47.15 -33.05 48.55 -36.7 50.7 -36.15 49.6 -35.5 47.95 -31.25 44.9 -31.9 M44.0 -11.75 L39.25 -15.45 48.75 -15.45 44.0 -11.75 M43.75 -1.75 L41.25 -2.65 43.25 -3.8 43.85 -2.6 43.75 -1.75 M53.6 -19.25 L53.8 -18.65 53.25 -18.55 53.6 -19.25 M80.2 -18.65 L84.1 -7.0 68.6 -0.3 69.95 -0.15 70.0 1.7 67.25 2.35 67.0 5.4 63.3 -1.4 65.0 -4.85 68.2 -4.45 68.6 -4.8 70.85 -4.15 78.75 -11.9 77.65 -14.65 79.65 -18.55 80.2 -18.65 M103.35 -25.45 L90.25 -12.4 90.7 -11.15 89.4 -10.55 85.3 -22.8 86.2 -24.65 85.25 -24.95 92.45 -32.25 92.45 -27.45 102.9 -27.9 103.35 -25.45 M73.15 6.45 L73.15 8.15 71.3 8.45 73.15 6.45 M98.7 7.3 L96.45 13.3 86.5 15.0 86.5 13.3 97.9 5.7 98.7 7.3 M83.05 -4.2 L84.55 -1.15 77.85 1.4 83.05 -4.2 M63.85 7.05 L63.65 8.75 63.05 7.55 63.85 7.05 M70.7 15.15 L71.2 14.85 78.05 17.0 73.9 19.55 74.4 20.65 73.2 22.0 65.4 14.8 70.7 9.1 70.7 15.15 M63.3 14.9 L62.5 15.2 62.75 14.5 63.3 14.9 M54.0 17.15 L50.35 15.5 53.3 13.7 58.05 16.25 52.85 26.8 46.55 29.0 48.6 26.7 50.25 27.1 50.55 24.6 53.55 21.3 52.05 18.15 54.8 18.4 54.0 17.15 M40.65 32.3 L41.8 31.45 44.45 31.25 45.95 29.6 45.95 32.3 40.65 32.3 M64.5 39.55 L64.4 38.7 80.5 38.7 80.25 40.4 64.5 39.55 M38.0 11.5 L38.5 12.7 39.85 12.35 38.0 11.5 M39.1 5.4 L39.15 4.45 38.65 5.7 39.1 5.4 M20.4 7.75 L24.5 9.35 24.0 9.55 19.0 7.4 18.0 3.75 19.8 3.95 20.4 7.75 M8.7 17.25 L4.55 20.65 -3.6 13.6 -3.85 12.7 2.7 11.45 3.7 15.1 8.7 17.25 M22.05 32.3 L25.2 29.65 25.2 32.3 24.3 32.3 24.15 33.0 22.05 32.3 M12.95 28.55 L10.2 26.75 -12.3 40.25 -14.55 32.95 -13.55 33.4 -11.7 32.3 -14.9 32.3 -15.75 30.75 -10.05 31.3 -10.9 23.65 -3.3 29.6 1.4 26.6 1.55 28.0 6.55 23.05 21.45 26.6 19.4 28.4 12.95 28.55 M12.25 46.7 L13.4 46.6 12.5 44.3 18.0 41.0 20.75 42.8 17.9 42.85 18.1 48.7 21.0 51.8 22.65 51.7 21.7 52.45 12.05 52.45 12.25 46.7 M-86.55 -3.85 L-84.85 -2.8 -84.85 -9.05 -82.9 -9.95 -81.65 -9.3 -81.4 -2.55 -80.1 -6.9 -75.8 -9.3 -73.95 -15.35 -70.3 -12.7 -70.3 -24.4 -64.1 -16.95 -64.05 -12.6 -79.45 -0.75 -83.7 -1.0 -86.55 -3.85 M-1.45 -89.0 L15.75 -89.0 -1.45 -78.95 -1.45 -89.0 M-38.1 -61.6 L-35.1 -61.6 -36.6 -50.75 -37.9 -52.35 -38.1 -61.6 M-18.2 -61.6 L-17.35 -61.6 -14.55 -57.5 -17.6 -57.8 -18.2 -61.6 M-60.0 -8.05 Q-60.0 -9.75 -59.25 -10.9 -58.55 -12.1 -57.55 -12.1 -56.55 -12.1 -55.8 -10.9 -55.1 -9.75 -55.1 -8.05 -55.1 -6.35 -55.8 -5.15 -56.55 -4.0 -57.55 -4.0 -58.55 -4.0 -59.25 -5.15 -60.0 -6.35 -60.0 -8.05 M-64.0 -8.6 L-63.9 -0.75 -66.6 -2.05 -68.7 1.05 -75.0 -0.25 -64.0 -8.6 M-54.75 -35.75 L-55.7 -28.95 -63.7 -36.6 -63.7 -39.95 -54.75 -35.75 M-50.4 -56.05 L-47.9 -57.3 -44.1 -56.4 -41.2 -52.1 -41.95 -47.0 -48.65 -41.55 -60.1 -45.85 -59.9 -48.2 -45.4 -53.6 -50.4 -56.05 M-49.25 -9.8 L-46.8 -11.25 -42.4 7.75 -50.35 -3.55 -50.0 -8.55 -47.35 -7.4 -49.25 -9.8 M-40.55 -9.1 L-40.9 -9.45 -40.7 -11.05 -38.75 -13.3 -39.4 -21.25 -37.75 -21.4 -36.75 -22.95 -33.35 -17.45 -29.3 -15.85 -28.5 -12.45 -20.4 -6.25 -16.9 -7.45 -17.3 -4.2 -23.5 -1.3 -25.45 3.9 -34.35 2.8 -34.9 0.0 -35.9 -0.2 -36.85 -5.3 -37.45 -5.6 -38.85 -4.95 -39.05 -9.65 -40.55 -9.1 M-12.55 -44.65 L-17.3 -39.5 -22.85 -38.2 -12.05 -47.6 -12.55 -44.65 M-16.2 -32.25 L-10.1 -32.05 -14.5 -29.75 -16.2 -32.25 M-11.75 21.45 L-11.4 20.65 -5.85 21.3 -11.2 22.7 -11.75 21.45 M-18.85 12.0 L-18.6 12.85 -26.25 15.3 -27.7 13.7 -27.8 9.95 -18.5 10.9 -18.85 12.0 M-37.9 19.35 L-40.05 23.45 -41.75 19.45 -38.25 18.3 -37.9 19.35 M-38.05 35.4 L-49.85 38.6 -49.65 37.75 -41.65 30.2 -39.5 34.8 -38.05 35.4 M-38.75 27.45 L-39.1 26.3 -38.5 26.25 -36.2 30.8 -32.35 32.3 -37.0 32.3 -41.0 29.55 -38.75 27.45 M-63.65 7.45 L-64.75 8.85 -67.45 8.55 -65.85 13.3 -67.75 15.25 -67.75 9.25 -68.4 10.45 -71.7 9.95 -74.65 5.35 -76.45 6.2 -78.6 4.1 -65.95 5.3 -63.65 7.45" fill="#000000" fill-rule="evenodd" stroke="none"/>
    <path d="M19.4 -11.15 L18.1 -11.15 M70.7 15.15 L70.7 9.1" fill="none" stroke="#ffffff" stroke-linecap="round" stroke-linejoin="round" stroke-width="0.05"/>
  </g>
</svg>
