<?xml version="1.0" encoding="UTF-8" standalone="no"?>
<svg xmlns:xlink="http://www.w3.org/1999/xlink" height="72.2px" width="177.25px" xmlns="http://www.w3.org/2000/svg">
  <g transform="matrix(1.0, 0.0, 0.0, 1.0, 92.8, 24.95)">
    <path d="M-88.95 -24.95 L-88.95 -20.9 -90.45 -20.9 -90.45 -24.95 -88.95 -24.95 M-82.0 -14.7 Q-82.35 -15.15 -82.35 -15.75 -82.35 -16.35 -82.0 -16.8 -81.7 -17.25 -81.2 -17.25 -80.7 -17.25 -80.35 -16.8 -80.05 -16.35 -80.05 -15.75 -80.05 -15.15 -80.35 -14.7 -80.7 -14.25 -81.2 -14.25 -81.7 -14.25 -82.0 -14.7 M-90.45 -9.25 L-90.45 -10.2 -88.4 -9.75 -88.8 -8.15 -86.15 -6.95 Q-89.9 -5.15 -90.45 -9.25 M-30.9 46.4 L-34.15 43.4 -34.35 39.25 -33.25 39.6 -32.75 41.95 -31.0 42.7 -30.9 46.4 M-8.4 39.85 L-6.95 39.95 -3.9 43.65 -4.65 44.7 -8.4 40.9 -8.4 39.85 M-58.1 19.45 L-59.4 18.05 -57.55 18.5 -58.1 19.45 M-67.35 30.6 L-67.35 35.0 -69.25 35.0 -69.25 30.6 -67.35 30.6 M-64.65 46.85 Q-65.05 47.25 -65.65 47.25 -66.25 47.25 -66.65 46.85 -67.05 46.45 -67.05 45.85 -67.05 45.25 -66.65 44.85 -66.25 44.45 -65.65 44.45 -65.05 44.45 -64.65 44.85 -64.25 45.25 -64.25 45.85 -64.25 46.45 -64.65 46.85 M-43.85 44.15 L-45.05 44.4 -46.2 44.15 -46.7 43.45 Q-46.7 43.05 -46.2 42.8 L-45.05 42.5 -43.85 42.8 Q-43.4 43.05 -43.4 43.45 -43.4 43.85 -43.85 44.15 M-88.4 9.35 L-86.8 12.65 -86.95 13.45 -88.4 13.65 -89.75 7.4 -87.8 8.0 -88.4 9.35 M-88.25 17.0 L-88.0 17.45 -89.4 19.45 -86.4 22.9 -90.55 21.2 -90.55 18.05 -88.25 17.0 M-89.3 30.0 L-88.05 30.6 -92.8 32.05 -89.3 30.0 M84.1 4.35 Q83.7 4.95 83.15 4.95 82.6 4.95 82.25 4.35 81.85 3.7 81.85 2.8 81.85 1.9 82.25 1.3 82.6 0.65 83.15 0.65 83.7 0.65 84.1 1.3 84.45 1.9 84.45 2.8 L84.1 4.35 M75.85 23.95 L72.1 31.0 74.05 23.5 75.85 23.95 M52.95 17.7 L51.7 22.2 50.3 22.2 51.1 16.1 52.65 15.05 54.25 15.4 54.15 17.1 52.95 17.7 M41.0 44.45 L38.8 44.75 36.6 44.45 Q35.7 44.15 35.7 43.75 35.7 43.35 36.6 43.05 L38.8 42.75 41.0 43.05 Q41.9 43.35 41.9 43.75 L41.0 44.45 M54.65 34.55 L51.05 45.6 49.05 44.85 49.05 41.8 49.85 41.45 52.95 34.3 54.65 34.55 M8.35 42.5 L14.05 44.6 8.7 45.1 8.35 42.5" fill="#000000" fill-rule="evenodd" stroke="none"/>
  </g>
</svg>
