<?xml version="1.0" encoding="UTF-8" standalone="no"?>
<svg xmlns:xlink="http://www.w3.org/1999/xlink" height="4.65px" width="15.45px" xmlns="http://www.w3.org/2000/svg">
  <g transform="matrix(1.0, 0.0, 0.0, 1.0, 0.8, 2.3)">
    <path d="M1.4 1.3 L1.25 1.55 0.35 2.1 Q-0.2 2.05 -0.5 1.45 -0.85 0.85 -0.8 -0.05 -0.85 -1.05 -0.45 -1.65 L0.5 -2.3 1.35 -1.65 Q0.5 0.7 1.4 1.3 M14.6 0.25 Q14.8 1.05 13.75 1.35 14.2 3.2 10.4 1.6 L11.15 1.45 11.2 1.45 14.3 0.55 14.6 0.25 M11.2 1.45 L13.75 1.35 11.2 1.45" fill="#07a31b" fill-rule="evenodd" stroke="none"/>
    <path d="M1.35 -1.65 Q10.4 -2.15 14.3 -0.3 14.8 -0.1 14.6 0.25 L14.3 0.55 11.2 1.45 11.15 1.45 10.4 1.6 1.4 1.3 Q0.5 0.7 1.35 -1.65" fill="#0ae224" fill-rule="evenodd" stroke="none"/>
    <path d="M1.4 1.3 L1.25 1.55 0.35 2.1 Q-0.2 2.05 -0.5 1.45 -0.85 0.85 -0.8 -0.05 -0.85 -1.05 -0.45 -1.65 L0.5 -2.3 1.35 -1.65 Q10.4 -2.15 14.3 -0.3 M14.6 0.25 Q14.8 1.05 13.75 1.35 14.2 3.2 10.4 1.6 M11.2 1.45 L11.15 1.45" fill="none" stroke="#06910d" stroke-linecap="round" stroke-linejoin="round" stroke-width="0.05"/>
    <path d="M14.3 -0.3 Q14.8 -0.1 14.6 0.25 L14.3 0.55 11.2 1.45 M10.4 1.6 L1.4 1.3 M11.15 1.45 L10.4 1.6" fill="none" stroke="#06910d" stroke-linecap="round" stroke-linejoin="round" stroke-width="0.05"/>
    <path d="M13.75 1.35 L11.2 1.45" fill="none" stroke="#0ae224" stroke-linecap="round" stroke-linejoin="round" stroke-width="0.05"/>
  </g>
</svg>
