<?xml version="1.0" encoding="UTF-8" standalone="no"?>
<svg xmlns:xlink="http://www.w3.org/1999/xlink" height="71.4px" width="40.65px" xmlns="http://www.w3.org/2000/svg">
  <g transform="matrix(1.0, 0.0, 0.0, 1.0, 20.75, 35.35)">
    <path d="M19.4 -32.0 L19.4 -31.6 Q18.95 -30.5 13.6 -29.65 L9.55 -29.15 -0.4 -28.75 -8.6 -29.0 -10.35 -29.15 -12.7 -29.4 -14.4 -29.65 Q-19.8 -30.5 -20.2 -31.6 L-20.2 -32.0 Q-19.8 -33.15 -14.4 -33.95 L-0.4 -34.85 13.6 -33.95 Q18.95 -33.15 19.4 -32.0" fill="url(#gradient0)" fill-rule="evenodd" stroke="none"/>
    <path d="M-12.4 -12.45 Q-11.7 -13.65 -9.15 -14.3 L0.45 -14.85 Q7.5 -14.7 9.95 -13.6 12.1 -12.7 12.15 -12.2 L12.1 -12.05 11.95 -11.4 7.85 -10.7 -0.25 -9.9 -8.3 -10.45 -12.1 -11.45 -12.25 -11.85 Q-12.85 -12.1 -12.4 -12.45 L-12.25 -11.85 -12.4 -12.45" fill="#a48a4f" fill-rule="evenodd" stroke="none"/>
    <path d="M-12.1 -11.45 L-8.3 -10.45 -0.25 -9.9 7.85 -10.7 11.95 -11.4 Q10.95 -8.2 9.05 -5.5 6.35 -1.7 2.85 -0.6 0.1 0.15 0.6 1.05 -0.25 5.6 0.0 8.9 L-1.1 8.7 Q-1.0 5.65 -1.6 1.15 -0.8 0.05 -3.2 -0.65 -6.6 -1.8 -9.25 -5.5 -11.2 -8.2 -12.1 -11.45" fill="url(#gradient1)" fill-rule="evenodd" stroke="none"/>
    <path d="M16.8 -3.95 L16.9 -3.9 18.0 -3.15 Q19.05 -2.1 19.05 -0.55 19.05 0.95 18.0 2.0 L16.9 2.75 16.8 2.8 15.45 3.05 14.3 2.9 14.25 2.85 12.85 2.0 Q11.8 0.95 11.8 -0.55 11.8 -2.1 12.85 -3.15 L14.25 -4.0 14.5 -3.85 15.3 -3.55 Q15.9 -3.4 16.8 -3.95" fill="url(#gradient2)" fill-rule="evenodd" stroke="none"/>
    <path d="M0.0 8.9 Q0.15 10.7 0.6 12.15 1.85 15.65 6.6 17.35 10.05 18.0 12.75 20.55 L12.35 24.85 11.95 26.6 11.95 26.7 11.8 27.05 8.45 27.8 -0.25 28.2 -8.95 27.8 -12.25 27.15 -12.35 26.8 -12.4 26.55 -12.8 24.8 Q-13.2 22.6 -13.2 20.15 L-13.2 19.6 Q-10.0 16.6 -5.95 15.85 -3.15 15.05 -1.6 12.3 -1.2 10.85 -1.1 8.7 L0.0 8.9" fill="url(#gradient3)" fill-rule="evenodd" stroke="none"/>
    <path d="M16.8 25.65 Q19.1 26.25 19.4 27.0 L19.4 27.4 Q18.95 28.55 13.6 29.35 L9.55 29.85 -0.4 30.25 -7.05 30.1 -10.35 29.85 -12.35 29.65 -14.4 29.35 Q-19.8 28.55 -20.2 27.4 L-20.2 27.05 Q-19.95 26.25 -17.35 25.6 L-17.35 26.95 Q-15.85 27.75 -14.75 26.95 L-14.75 25.1 -14.4 25.05 -12.8 24.8 -12.4 26.55 -12.6 26.8 -12.25 27.15 -8.95 27.8 -0.25 28.2 8.45 27.8 11.8 27.05 12.05 26.8 11.95 26.6 12.35 24.85 13.6 25.05 14.25 25.15 14.25 26.95 Q15.7 27.75 16.8 26.95 L16.8 25.65" fill="url(#gradient4)" fill-rule="evenodd" stroke="none"/>
    <path d="M-17.35 2.85 L-18.75 2.0 Q-19.8 0.95 -19.8 -0.55 -19.8 -2.1 -18.75 -3.15 L-17.35 -4.0 -17.1 -3.85 -16.3 -3.55 Q-15.65 -3.4 -14.75 -3.95 L-14.7 -3.9 -13.6 -3.15 Q-12.55 -2.1 -12.55 -0.55 -12.55 0.95 -13.6 2.0 L-14.7 2.75 -14.75 2.8 -16.15 3.05 -17.3 2.9 -17.35 2.85" fill="url(#gradient5)" fill-rule="evenodd" stroke="none"/>
    <path d="M19.4 -31.6 L19.4 -26.7 19.4 -26.3 Q19.1 -25.6 16.8 -25.0 L14.25 -24.45 13.6 -24.35 12.25 -24.15 -0.4 -23.45 -8.6 -23.7 -8.6 -29.0 -0.4 -28.75 9.55 -29.15 13.6 -29.65 Q18.95 -30.5 19.4 -31.6 M-17.35 -24.9 Q-19.95 -25.55 -20.2 -26.3 L-20.2 -26.7 -20.2 -31.6 Q-19.8 -30.5 -14.4 -29.65 L-12.7 -29.4 -12.7 -24.1 -14.4 -24.35 -14.75 -24.4 -17.35 -24.9" fill="url(#gradient6)" fill-rule="evenodd" stroke="none"/>
    <path d="M19.4 27.4 L19.4 32.3 19.4 32.7 Q18.95 33.8 13.6 34.65 L-0.4 35.55 -7.05 35.35 -7.05 30.1 -0.4 30.25 9.55 29.85 13.6 29.35 Q18.95 28.55 19.4 27.4 M-12.35 34.9 L-14.4 34.65 Q-19.8 33.85 -20.2 32.7 L-20.2 32.3 -20.2 27.4 Q-19.8 28.55 -14.4 29.35 L-12.35 29.65 -12.35 34.9" fill="url(#gradient7)" fill-rule="evenodd" stroke="none"/>
    <path d="M-17.35 25.6 L-17.35 2.9 -17.3 2.9 -16.15 3.05 -14.75 2.8 -14.75 25.1 -14.75 26.95 Q-15.85 27.75 -17.35 26.95 L-17.35 25.6" fill="url(#gradient8)" fill-rule="evenodd" stroke="none"/>
    <path d="M-17.35 -4.0 L-17.35 -24.9 -14.75 -24.4 -14.75 -3.95 Q-15.65 -3.4 -16.3 -3.55 L-17.1 -3.85 -17.35 -4.0" fill="url(#gradient9)" fill-rule="evenodd" stroke="none"/>
    <path d="M16.8 -25.0 L16.8 -3.95 Q15.9 -3.4 15.3 -3.55 L14.5 -3.85 14.25 -4.0 14.25 -24.45 16.8 -25.0" fill="url(#gradient10)" fill-rule="evenodd" stroke="none"/>
    <path d="M16.8 2.8 L16.8 25.65 16.8 26.95 Q15.7 27.75 14.25 26.95 L14.25 25.15 14.25 2.9 14.3 2.9 15.45 3.05 16.8 2.8" fill="url(#gradient11)" fill-rule="evenodd" stroke="none"/>
    <path d="M-8.6 -29.0 L-8.6 -23.7 -12.45 -24.1 -12.7 -24.1 -12.7 -29.4 -10.35 -29.15 -8.6 -29.0" fill="#ffffff" fill-rule="evenodd" stroke="none"/>
    <path d="M-7.05 35.35 L-12.35 34.9 -12.35 29.65 -10.35 29.85 -7.05 30.1 -7.05 35.35" fill="#fefac9" fill-rule="evenodd" stroke="none"/>
    <path d="M19.4 -31.6 L19.4 -31.8 19.4 -32.0 19.4 -31.6 19.4 -26.7 19.4 -26.5 19.4 -26.3 19.4 -26.7 M16.8 25.65 Q19.1 26.25 19.4 27.0 L19.4 27.2 19.4 27.4 19.4 32.3 19.4 32.5 19.4 32.7 19.4 32.3 M-20.2 27.4 L-20.2 27.2 -20.2 27.05 -20.2 27.4 Q-19.8 28.55 -14.4 29.35 L-12.35 29.65 -10.35 29.85 -7.05 30.1 -0.4 30.25 9.55 29.85 13.6 29.35 Q18.95 28.55 19.4 27.4 L19.4 27.0 M-17.35 2.9 L-17.35 2.85 -17.3 2.9 -16.15 3.05 -14.75 2.8 -14.75 25.1 -14.75 26.95 M-20.2 -31.6 L-20.2 -31.8 -20.2 -32.0 Q-19.8 -33.15 -14.4 -33.95 L-0.4 -34.85 13.6 -33.95 Q18.95 -33.15 19.4 -32.0 M19.4 -31.6 Q18.95 -30.5 13.6 -29.65 L9.55 -29.15 -0.4 -28.75 -8.6 -29.0 -10.35 -29.15 -12.7 -29.4 -14.4 -29.65 Q-19.8 -30.5 -20.2 -31.6 L-20.2 -32.0 M12.15 -12.2 Q12.85 -15.1 12.85 -18.4 12.85 -21.5 12.25 -24.15 M11.95 -11.4 L12.1 -12.05 12.15 -12.2 M0.6 1.05 Q0.1 0.15 2.85 -0.6 6.35 -1.7 9.05 -5.5 10.95 -8.2 11.95 -11.4 M12.75 20.55 L12.75 20.15 Q12.7 12.55 8.95 7.25 6.25 3.5 2.85 2.4 0.95 1.65 0.6 1.05 M12.75 20.55 L12.35 24.85 11.95 26.6 11.95 26.7 11.8 27.05 12.05 26.8 11.95 26.6 M-14.75 -24.4 L-14.75 -3.95 -14.7 -3.9 -13.6 -3.15 Q-12.55 -2.1 -12.55 -0.55 -12.55 0.95 -13.6 2.0 L-14.7 2.75 -14.75 2.8 M-17.35 -4.0 L-17.1 -3.85 -16.3 -3.55 Q-15.65 -3.4 -14.75 -3.95" fill="none" stroke="#ffffb5" stroke-linecap="round" stroke-linejoin="round" stroke-width="1.0"/>
    <path d="M19.4 -26.3 Q19.1 -25.6 16.8 -25.0 L14.25 -24.45 14.25 -4.0 12.85 -3.15 Q11.8 -2.1 11.8 -0.55 11.8 0.95 12.85 2.0 L14.25 2.85 M19.4 32.7 Q18.95 33.8 13.6 34.65 L-0.4 35.55 -7.05 35.35 -12.35 34.9 -14.4 34.65 Q-19.8 33.85 -20.2 32.7 M-20.2 32.3 L-20.2 27.4 M-20.2 27.05 Q-19.95 26.25 -17.35 25.6 L-17.35 2.9 M-17.35 2.85 L-18.75 2.0 Q-19.8 0.95 -19.8 -0.55 -19.8 -2.1 -18.75 -3.15 L-17.35 -4.0 -17.35 -24.9 Q-19.95 -25.55 -20.2 -26.3 M-20.2 -26.7 L-20.2 -31.6 M-8.6 -23.7 L-0.4 -23.45 12.25 -24.15 13.6 -24.35 14.25 -24.45 M-12.4 -12.45 L-12.25 -11.85 M14.25 2.9 L14.25 25.15 13.6 25.05 12.35 24.85 M11.8 27.05 L8.45 27.8 -0.25 28.2 -8.95 27.8 -12.25 27.15 -12.6 26.8 -12.4 26.55 -12.8 24.8 -14.4 25.05 -14.75 25.1 M-14.75 26.95 Q-15.85 27.75 -17.35 26.95 L-17.35 25.6 M-12.7 -24.1 L-12.45 -24.1 -8.6 -23.7 M-12.4 -12.45 Q-13.05 -15.25 -13.05 -18.4 -13.05 -21.2 -12.5 -23.7 L-12.45 -24.1 M-12.7 -24.1 L-14.4 -24.35 -14.75 -24.4 -17.35 -24.9 M-12.1 -11.45 Q-11.2 -8.2 -9.25 -5.5 -6.6 -1.8 -3.2 -0.65 -0.8 0.05 -1.6 1.15 L-3.2 2.35 Q-6.7 3.45 -9.4 7.25 -13.05 12.35 -13.2 19.6 L-13.2 20.15 Q-13.2 22.6 -12.8 24.8" fill="none" stroke="#8a640d" stroke-linecap="round" stroke-linejoin="round" stroke-width="1.0"/>
    <path d="M16.8 -25.0 L16.8 -3.95 16.9 -3.9 18.0 -3.15 Q19.05 -2.1 19.05 -0.55 19.05 0.95 18.0 2.0 L16.9 2.75 16.8 2.8 16.8 25.65 16.8 26.95 Q15.7 27.75 14.25 26.95 L14.25 25.15 M14.25 2.85 L14.3 2.9 15.45 3.05 16.8 2.8 M14.25 -4.0 L14.5 -3.85 15.3 -3.55 Q15.9 -3.4 16.8 -3.95 M14.25 2.85 L14.25 2.9" fill="none" stroke="#ffffb5" stroke-linecap="round" stroke-linejoin="round" stroke-width="1.0"/>
  </g>
  <defs>
    <radialGradient cx="0" cy="0" gradientTransform="matrix(0.0391, 0.0, 0.0, 0.0391, 11.85, -31.7)" gradientUnits="userSpaceOnUse" id="gradient0" r="819.2" spreadMethod="pad">
      <stop offset="0.0" stop-color="#fefdc2"/>
      <stop offset="0.9607843137254902" stop-color="#9c7b0e"/>
    </radialGradient>
    <radialGradient cx="0" cy="0" gradientTransform="matrix(0.0199, 0.0, 0.0, 0.0199, -0.1, -1.3)" gradientUnits="userSpaceOnUse" id="gradient1" r="819.2" spreadMethod="pad">
      <stop offset="0.6196078431372549" stop-color="#ccbb93"/>
      <stop offset="1.0" stop-color="#a48a4f"/>
    </radialGradient>
    <radialGradient cx="0" cy="0" gradientTransform="matrix(0.0091, 0.0, 0.0, 0.0091, 14.25, -4.0)" gradientUnits="userSpaceOnUse" id="gradient2" r="819.2" spreadMethod="pad">
      <stop offset="0.3137254901960784" stop-color="#ffff99"/>
      <stop offset="1.0" stop-color="#a48a4f"/>
    </radialGradient>
    <radialGradient cx="0" cy="0" gradientTransform="matrix(0.0261, 0.0, 0.0, 0.0175, -0.8, 12.9)" gradientUnits="userSpaceOnUse" id="gradient3" r="819.2" spreadMethod="pad">
      <stop offset="0.6196078431372549" stop-color="#ccbb93"/>
      <stop offset="1.0" stop-color="#a48a4f"/>
    </radialGradient>
    <radialGradient cx="0" cy="0" gradientTransform="matrix(0.0452, 0.0, 0.0, 0.0452, 16.85, 26.95)" gradientUnits="userSpaceOnUse" id="gradient4" r="819.2" spreadMethod="pad">
      <stop offset="0.0" stop-color="#fefdc2"/>
      <stop offset="0.9607843137254902" stop-color="#9c7b0e"/>
    </radialGradient>
    <radialGradient cx="0" cy="0" gradientTransform="matrix(0.0091, 0.0, 0.0, 0.0091, -17.35, -4.0)" gradientUnits="userSpaceOnUse" id="gradient5" r="819.2" spreadMethod="pad">
      <stop offset="0.3137254901960784" stop-color="#ffff99"/>
      <stop offset="1.0" stop-color="#a48a4f"/>
    </radialGradient>
    <linearGradient gradientTransform="matrix(-0.0139, 0.0, 0.0, -0.005, -1.45, -27.5)" gradientUnits="userSpaceOnUse" id="gradient6" spreadMethod="pad" x1="-819.2" x2="819.2">
      <stop offset="0.0" stop-color="#fefac9"/>
      <stop offset="0.9607843137254902" stop-color="#d29813"/>
    </linearGradient>
    <linearGradient gradientTransform="matrix(-0.0151, -0.004, 0.0025, -0.0094, -0.3, 30.4)" gradientUnits="userSpaceOnUse" id="gradient7" spreadMethod="pad" x1="-819.2" x2="819.2">
      <stop offset="0.0" stop-color="#fefac9"/>
      <stop offset="0.9607843137254902" stop-color="#d29813"/>
    </linearGradient>
    <linearGradient gradientTransform="matrix(0.0, 0.0126, -0.0016, 0.0, -16.05, 17.2)" gradientUnits="userSpaceOnUse" id="gradient8" spreadMethod="pad" x1="-819.2" x2="819.2">
      <stop offset="0.0" stop-color="#fefac9"/>
      <stop offset="0.9607843137254902" stop-color="#d29813"/>
    </linearGradient>
    <linearGradient gradientTransform="matrix(-0.0071, -0.0041, 8.0E-4, -0.0014, -14.6, -13.75)" gradientUnits="userSpaceOnUse" id="gradient9" spreadMethod="pad" x1="-819.2" x2="819.2">
      <stop offset="0.0" stop-color="#fefac9"/>
      <stop offset="0.9607843137254902" stop-color="#d29813"/>
    </linearGradient>
    <linearGradient gradientTransform="matrix(-0.0051, -0.0038, 9.0E-4, -0.0013, 15.7, -12.25)" gradientUnits="userSpaceOnUse" id="gradient10" spreadMethod="pad" x1="-819.2" x2="819.2">
      <stop offset="0.0" stop-color="#fefac9"/>
      <stop offset="0.9607843137254902" stop-color="#d29813"/>
    </linearGradient>
    <linearGradient gradientTransform="matrix(0.0, 0.0102, -0.0016, 0.0, 15.55, 16.75)" gradientUnits="userSpaceOnUse" id="gradient11" spreadMethod="pad" x1="-819.2" x2="819.2">
      <stop offset="0.0" stop-color="#fefac9"/>
      <stop offset="0.9607843137254902" stop-color="#d29813"/>
    </linearGradient>
  </defs>
</svg>
