<?xml version="1.0" encoding="UTF-8" standalone="no"?>
<svg xmlns:xlink="http://www.w3.org/1999/xlink" height="75.4px" width="44.65px" xmlns="http://www.w3.org/2000/svg">
  <g transform="matrix(1.0, 0.0, 0.0, 1.0, 22.75, 37.35)">
    <path d="M-11.45 5.8 L-11.4 5.8 -11.45 5.8" fill="#acaebf" fill-rule="evenodd" stroke="none"/>
    <path d="M-11.45 5.8 Q-9.0 2.4 -6.05 0.85 -8.5 -0.55 -10.55 -3.1 -10.05 -1.95 -10.05 -0.55 -10.05 2.0 -11.8 3.8 L-11.9 3.85 -12.25 4.15 -12.25 7.05 -11.4 5.8 -11.45 5.8 M9.3 -0.55 L9.5 -2.0 Q7.7 -0.15 5.7 0.9 8.6 2.45 11.0 5.8 L11.75 6.95 11.75 4.35 11.1 3.8 Q9.3 2.0 9.3 -0.55 M21.9 -31.8 L21.9 -26.5 21.9 -25.95 21.85 -25.7 21.7 -25.25 Q21.45 -24.05 19.3 -23.15 L19.3 -5.35 19.8 -4.9 Q21.55 -3.15 21.55 -0.55 21.55 2.0 19.8 3.8 L19.7 3.85 19.3 4.2 19.3 23.85 Q21.5 24.75 21.75 26.05 L21.8 26.25 21.85 26.5 21.9 27.2 21.9 27.3 21.9 32.4 21.9 32.5 21.85 33.2 21.75 33.65 Q21.4 35.95 14.0 37.15 L-0.4 38.05 -14.75 37.15 Q-22.35 36.0 -22.55 33.55 L-22.7 32.5 -22.7 32.3 -22.7 27.8 -22.7 27.65 -22.65 26.6 -22.55 26.3 Q-22.5 24.8 -19.85 23.8 L-19.85 4.35 -20.5 3.8 Q-22.3 2.0 -22.3 -0.55 -22.3 -3.15 -20.5 -4.9 L-19.85 -5.5 -19.85 -23.05 Q-22.5 -24.05 -22.55 -25.5 L-22.7 -26.5 -22.7 -26.7 -22.7 -31.15 -22.75 -31.8 -22.6 -32.75 -22.55 -32.9 Q-22.2 -35.35 -14.75 -36.4 L-0.4 -37.35 14.0 -36.4 Q21.3 -35.35 21.7 -32.95 L21.75 -32.95 21.9 -32.35 21.9 -31.8 M-3.5 -0.45 L-3.6 -0.35 -3.5 -0.4 -3.5 -0.45" fill="url(#gradient0)" fill-rule="evenodd" stroke="none"/>
  </g>
  <defs>
    <radialGradient cx="0" cy="0" gradientTransform="matrix(1.0, 0.0, 0.0, 1.0, 0.0, 0.0)" gradientUnits="userSpaceOnUse" id="gradient0" r="819.2" spreadMethod="pad">
      <stop offset="0.0" stop-color="#b7c1c8"/>
      <stop offset="0.9607843137254902" stop-color="#8a8f9f"/>
    </radialGradient>
  </defs>
</svg>
