<?xml version="1.0" encoding="UTF-8" standalone="no"?>
<svg xmlns:xlink="http://www.w3.org/1999/xlink" height="91.45px" width="283.05px" xmlns="http://www.w3.org/2000/svg">
  <g transform="matrix(1.0, 0.0, 0.0, 1.0, -1.6, 22.05)">
    <path d="M257.1 15.95 Q251.9 14.8 248.75 21.6 L246.5 27.8 Q239.2 24.4 234.2 17.9 231.05 13.8 229.55 9.45 L229.75 8.75 Q232.7 -2.35 242.6 -8.05 252.5 -13.8 263.6 -10.8 274.65 -7.85 280.4 2.05 286.1 12.0 283.15 23.05 L282.6 24.85 279.65 26.75 Q270.4 32.15 259.6 31.2 261.0 25.0 261.2 17.85 259.0 16.35 257.1 15.95 M253.15 -7.65 Q249.2 -6.7 248.75 -4.4 248.3 -2.1 251.6 0.2 254.95 2.55 260.1 3.55 L264.65 4.1 269.25 3.65 Q273.25 2.75 273.7 0.45 274.15 -1.85 270.8 -4.2 267.5 -6.55 262.3 -7.55 257.15 -8.55 253.15 -7.65" fill="#efefef" fill-rule="evenodd" stroke="none"/>
    <path d="M253.15 -7.65 Q257.15 -8.55 262.3 -7.55 267.5 -6.55 270.8 -4.2 274.15 -1.85 273.7 0.45 273.25 2.75 269.25 3.65 L264.65 4.1 260.1 3.55 Q254.95 2.55 251.6 0.2 248.3 -2.1 248.75 -4.4 249.2 -6.7 253.15 -7.65" fill="#ffffff" fill-rule="evenodd" stroke="none"/>
    <path d="M246.5 27.8 Q243.75 33.85 239.55 37.9 L239.15 37.6 Q235.2 34.45 232.5 29.7 226.95 20.1 229.55 9.45 231.05 13.8 234.2 17.9 239.2 24.4 246.5 27.8 M282.6 24.85 Q279.35 34.6 270.25 39.85 263.05 44.0 255.25 43.6 L255.15 43.55 Q258.1 37.95 259.6 31.2 270.4 32.15 279.65 26.75 L282.6 24.85" fill="#cbcbcb" fill-rule="evenodd" stroke="none"/>
    <path d="M2.1 -6.15 Q47.2 -6.9 79.5 -4.1 145.6 1.6 158.15 22.15 162.4 29.15 188.3 46.2 214.15 63.2 241.55 49.55 L242.45 48.75 Q247.85 43.6 257.1 15.95 259.0 16.35 261.2 17.85 261.0 25.0 259.6 31.2 258.1 37.95 255.15 43.55 L255.1 43.55 254.15 45.3 Q243.55 63.0 217.05 67.45 190.9 72.1 172.55 61.9 154.2 51.65 139.3 38.1 124.4 24.5 85.05 20.05 48.05 15.85 6.95 18.95 2.35 7.9 2.1 -6.15" fill="#7c3f3f" fill-rule="evenodd" stroke="none"/>
    <path d="M2.1 -6.15 Q2.0 -13.3 3.0 -21.25 52.5 -22.35 87.25 -19.35 153.35 -13.65 165.9 6.9 170.15 13.9 174.85 19.75 193.1 42.35 217.1 46.2 229.95 46.05 238.05 39.3 L239.55 37.9 Q243.75 33.85 246.5 27.8 L248.75 21.6 Q251.9 14.8 257.1 15.95 247.85 43.6 242.45 48.75 L241.55 49.55 Q214.15 63.2 188.3 46.2 162.4 29.15 158.15 22.15 145.6 1.6 79.5 -4.1 47.2 -6.9 2.1 -6.15" fill="#984e4e" fill-rule="evenodd" stroke="none"/>
    <path d="M229.55 9.45 L229.75 8.75 Q232.7 -2.35 242.6 -8.05 252.5 -13.8 263.6 -10.8 274.65 -7.85 280.4 2.05 286.1 12.0 283.15 23.05 L282.6 24.85 Q279.35 34.6 270.25 39.85 263.05 44.0 255.25 43.6 L255.1 43.55 M229.55 9.45 Q226.95 20.1 232.5 29.7 235.2 34.45 239.15 37.6 L239.55 37.9" fill="none" stroke="#666666" stroke-linecap="round" stroke-linejoin="round" stroke-width="1.0"/>
    <path d="M3.0 -21.25 Q2.0 -13.3 2.1 -6.15 2.35 7.9 6.95 18.95" fill="none" stroke="#472525" stroke-linecap="round" stroke-linejoin="round" stroke-width="1.0"/>
    <path d="M257.1 15.95 Q251.9 14.8 248.75 21.6 L246.5 27.8 Q243.75 33.85 239.55 37.9 L238.05 39.3 Q229.95 46.05 217.1 46.2 193.1 42.35 174.85 19.75 170.15 13.9 165.9 6.9 153.35 -13.65 87.25 -19.35 52.5 -22.35 3.0 -21.25 M255.1 43.55 L254.15 45.3 Q243.55 63.0 217.05 67.45 190.9 72.1 172.55 61.9 154.2 51.65 139.3 38.1 124.4 24.5 85.05 20.05 48.05 15.85 6.95 18.95 M259.6 31.2 Q261.0 25.0 261.2 17.85 259.0 16.35 257.1 15.95 M255.1 43.55 L255.15 43.55 Q258.1 37.95 259.6 31.2" fill="none" stroke="#472525" stroke-linecap="round" stroke-linejoin="round" stroke-width="1.0"/>
  </g>
</svg>
