<?xml version="1.0" encoding="UTF-8" standalone="no"?>
<svg xmlns:xlink="http://www.w3.org/1999/xlink" height="127.05px" width="260.1px" xmlns="http://www.w3.org/2000/svg">
  <g transform="matrix(1.0, 0.0, 0.0, 1.0, 119.25, 68.75)">
    <path d="M47.95 -11.15 Q47.5 -8.25 47.35 -5.55 46.85 2.8 49.1 8.85 50.35 12.25 52.45 14.95 L55.3 18.0 -46.25 9.85 -51.05 9.45 Q-53.9 1.25 -46.8 -13.55 L-41.9 -13.4 47.95 -11.15" fill="#a5861d" fill-rule="evenodd" stroke="none"/>
    <path d="M55.3 18.0 L52.45 14.95 Q50.35 12.25 49.1 8.85 46.85 2.8 47.35 -5.55 47.5 -8.25 47.95 -11.15 48.75 -16.2 50.35 -21.95 48.55 -44.25 2.85 -45.95 -36.8 -47.45 -44.8 -20.0 -47.5 -18.15 -49.65 -14.45 -55.85 -36.8 -25.55 -55.25 24.0 -67.35 56.95 -47.55 82.1 -12.0 71.9 24.0 61.9 24.0 55.3 18.0" fill="#7c3f3f" fill-rule="evenodd" stroke="none"/>
    <path d="M-49.65 -14.45 Q-47.5 -18.15 -44.8 -20.0 -42.75 -17.05 -41.9 -13.4 L-46.8 -13.55 Q-53.9 1.25 -51.05 9.45 L-46.25 9.85 Q-48.0 12.8 -50.2 14.45 -54.75 11.05 -55.55 3.65 L-55.3 2.4 -53.35 -5.6 Q-51.8 -10.9 -49.65 -14.45" fill="#442222" fill-rule="evenodd" stroke="none"/>
    <path d="M71.9 24.0 Q82.1 -12.0 56.95 -47.55 24.0 -67.35 -25.55 -55.25 -55.85 -36.8 -49.65 -14.45 -51.8 -10.9 -53.35 -5.6 L-55.3 2.4 -55.55 3.65 Q-54.75 11.05 -50.2 14.45 -56.5 18.0 -60.85 15.4 -64.25 11.95 -63.6 1.9 L-62.75 -5.6 Q-61.85 -11.4 -60.05 -18.6 -46.5 -61.85 -4.55 -67.4 65.35 -74.85 81.45 -16.65 L79.2 23.25 71.9 24.0" fill="#984e4e" fill-rule="evenodd" stroke="none"/>
    <path d="M47.95 -11.15 Q47.5 -8.25 47.35 -5.55 46.85 2.8 49.1 8.85 50.35 12.25 52.45 14.95 L55.3 18.0 Q61.9 24.0 71.9 24.0 L79.2 23.25 81.45 -16.65 Q65.35 -74.85 -4.55 -67.4 -46.5 -61.85 -60.05 -18.6 -61.85 -11.4 -62.75 -5.6 L-63.6 1.9 Q-64.25 11.95 -60.85 15.4 -56.5 18.0 -50.2 14.45 -48.0 12.8 -46.25 9.85 L55.3 18.0 M-44.8 -20.0 Q-36.8 -47.45 2.85 -45.95 48.55 -44.25 50.35 -21.95 48.75 -16.2 47.95 -11.15 L-41.9 -13.4 -46.8 -13.55 Q-53.9 1.25 -51.05 9.45 L-46.25 9.85 M-41.9 -13.4 Q-42.75 -17.05 -44.8 -20.0" fill="none" stroke="#472525" stroke-linecap="round" stroke-linejoin="round" stroke-width="1.0"/>
    <path d="M73.6 14.5 Q77.2 22.25 83.65 30.85 L86.0 33.85 85.3 35.3 Q79.75 46.05 69.15 57.8 L69.15 57.7 Q75.3 34.85 73.6 14.5 M103.9 53.3 Q105.25 -3.2 76.8 -22.6 L81.9 -21.2 81.95 -21.2 Q111.45 -27.95 128.9 -0.8 135.45 9.35 140.35 24.4 L140.3 24.4 140.35 24.4 Q126.25 -10.85 84.65 -20.15 103.75 -12.2 106.85 12.8 L107.25 16.8 Q108.3 32.15 103.9 53.3 M84.65 -20.15 L82.45 -21.0 81.9 -21.2 82.45 -21.0 81.95 -21.2 82.45 -21.0 84.65 -20.15" fill="#efefef" fill-rule="evenodd" stroke="none"/>
    <path d="M73.45 -19.2 L73.65 -19.5 Q74.55 -20.95 76.8 -22.6 105.25 -3.2 103.9 53.3 93.35 43.1 86.0 33.85 L83.65 30.85 Q77.2 22.25 73.6 14.5 64.45 -5.05 73.45 -19.2 64.45 -5.05 73.6 14.5 75.3 34.85 69.15 57.7 43.2 -9.95 73.35 -19.4 L73.45 -19.2 M140.3 24.4 Q121.75 21.45 108.5 17.2 L107.25 16.8 106.85 12.8 Q103.75 -12.2 84.65 -20.15 126.25 -10.85 140.35 24.4 L140.3 24.4" fill="#ffffff" fill-rule="evenodd" stroke="none"/>
    <path d="M76.8 -22.6 Q74.55 -20.95 73.65 -19.5 L73.45 -19.2 Q64.45 -5.05 73.6 14.5 77.2 22.25 83.65 30.85 L86.0 33.85 Q93.35 43.1 103.9 53.3 108.3 32.15 107.25 16.8 L106.85 12.8 Q103.75 -12.2 84.65 -20.15 L82.45 -21.0 81.95 -21.2 Q111.45 -27.95 128.9 -0.8 135.45 9.35 140.35 24.4 L140.3 24.4 Q121.75 21.45 108.5 17.2 L107.25 16.8 M76.8 -22.6 L81.9 -21.2 81.95 -21.2 M73.65 -19.5 L73.35 -19.4 Q43.2 -9.95 69.15 57.7 L69.15 57.8 Q79.75 46.05 85.3 35.3 L86.0 33.85 M81.9 -21.2 L82.45 -21.0" fill="none" stroke="#666666" stroke-linecap="round" stroke-linejoin="round" stroke-width="1.0"/>
    <path d="M-92.35 -1.8 L-92.0 -5.05 Q-89.3 -25.3 -73.95 -31.95 -107.2 -23.95 -118.75 4.7 -114.75 -7.5 -109.4 -15.8 -95.25 -37.95 -71.8 -32.8 L-71.75 -32.8 -67.7 -34.0 Q-90.55 -18.0 -90.1 27.7 -93.4 10.6 -92.35 -1.8 M-73.95 -31.95 L-72.2 -32.65 -72.1 -32.7 -71.75 -32.8 -72.1 -32.7 -72.2 -32.65 -73.95 -31.95 M-72.1 -32.7 L-71.8 -32.8 -72.1 -32.7 M-65.55 -4.05 Q-67.15 12.45 -62.45 30.85 L-62.5 30.9 Q-70.8 21.55 -75.1 12.9 L-75.65 11.75 -73.75 9.3 Q-68.5 2.25 -65.55 -4.05" fill="#efefef" fill-rule="evenodd" stroke="none"/>
    <path d="M-73.95 -31.95 Q-89.3 -25.3 -92.0 -5.05 L-92.35 -1.8 -93.35 -1.45 Q-104.0 2.1 -118.75 4.7 -107.2 -23.95 -73.95 -31.95 M-90.1 27.7 Q-90.55 -18.0 -67.7 -34.0 -65.95 -32.7 -65.2 -31.55 L-65.05 -31.25 -64.95 -31.45 Q-41.1 -24.15 -62.45 30.85 -67.15 12.45 -65.55 -4.05 -58.05 -19.95 -65.05 -31.25 -58.05 -19.95 -65.55 -4.05 -68.5 2.25 -73.75 9.3 L-75.65 11.75 Q-81.6 19.3 -90.1 27.7" fill="#ffffff" fill-rule="evenodd" stroke="none"/>
    <path d="M-92.35 -1.8 L-92.0 -5.05 Q-89.3 -25.3 -73.95 -31.95 L-72.2 -32.65 -72.1 -32.7 -71.75 -32.8 -71.8 -32.8 -72.1 -32.7 M-118.75 4.7 Q-104.0 2.1 -93.35 -1.45 L-92.35 -1.8 Q-93.4 10.6 -90.1 27.7 -81.6 19.3 -75.65 11.75 L-73.75 9.3 Q-68.5 2.25 -65.55 -4.05 -58.05 -19.95 -65.05 -31.25 L-65.2 -31.55 Q-65.95 -32.7 -67.7 -34.0 L-71.75 -32.8 M-62.45 30.85 Q-41.1 -24.15 -64.95 -31.45 L-65.2 -31.55 M-71.8 -32.8 Q-95.25 -37.95 -109.4 -15.8 -114.75 -7.5 -118.75 4.7 M-62.45 30.85 L-62.5 30.9 Q-70.8 21.55 -75.1 12.9 L-75.65 11.75" fill="none" stroke="#666666" stroke-linecap="round" stroke-linejoin="round" stroke-width="1.0"/>
  </g>
</svg>
