<?xml version="1.0" encoding="UTF-8" standalone="no"?>
<svg xmlns:xlink="http://www.w3.org/1999/xlink" height="583.2px" width="199.5px" xmlns="http://www.w3.org/2000/svg">
  <g transform="matrix(1.0, 0.0, 0.0, 1.0, 106.15, 288.65)">
    <path d="M11.95 -278.95 L15.8 -272.55 Q21.9 -254.3 30.9 -239.2 39.7 -217.75 18.7 -202.9 31.3 -117.5 27.55 -89.8 19.55 -90.35 2.8 -87.1 -7.3 -85.2 -20.65 -78.75 -29.95 -74.3 -40.85 -67.65 -58.2 -55.6 -62.7 -46.95 -77.8 -34.5 -88.75 -36.45 L-84.95 -50.4 Q-94.75 -39.55 -105.65 -37.3 -85.75 -60.55 -69.3 -87.35 -52.25 -115.25 -38.95 -147.05 -32.5 -162.5 -26.0 -181.9 -31.6 -185.1 -37.8 -202.5 -39.65 -213.85 -44.9 -234.05 -43.9 -237.35 -41.9 -239.8 L-36.4 -242.65 Q-34.0 -246.85 -32.35 -251.75 -28.05 -254.95 -23.25 -255.05 L-18.0 -265.45 -8.05 -269.2 -3.85 -272.4 -2.7 -273.3 -1.2 -274.4 5.55 -279.3 11.95 -278.95 M-22.0 -190.5 Q-23.05 -189.3 -26.0 -181.9 -23.05 -189.3 -22.0 -190.5" fill="#ffffff" fill-rule="evenodd" stroke="none"/>
    <path d="M43.0 -74.75 L45.15 -62.3 92.85 294.05 -93.6 270.05 -45.1 -34.05 -43.6 -46.45 -42.25 -57.05 Q-30.2 -63.7 -17.75 -67.95 11.4 -77.9 43.0 -74.75" fill="#6f6068" fill-rule="evenodd" stroke="none"/>
    <path d="M27.55 -89.8 L34.0 -88.75 Q40.15 -87.45 41.65 -82.7 L43.0 -74.75 Q11.4 -77.9 -17.75 -67.95 -30.2 -63.7 -42.25 -57.05 L-40.85 -67.65 Q-29.95 -74.3 -20.65 -78.75 -7.3 -85.2 2.8 -87.1 19.55 -90.35 27.55 -89.8" fill="#5b4f56" fill-rule="evenodd" stroke="none"/>
    <path d="M-40.85 -67.65 L-42.25 -57.05 -43.6 -46.45 Q-62.55 -43.2 -62.7 -46.95 -58.2 -55.6 -40.85 -67.65" fill="#8e8e8e" fill-rule="evenodd" stroke="none"/>
    <path d="M-43.6 -46.45 L-45.1 -34.05 Q-67.15 -31.15 -88.75 -36.45 -77.8 -34.5 -62.7 -46.95 -62.55 -43.2 -43.6 -46.45" fill="#cecece" fill-rule="evenodd" stroke="none"/>
    <path d="M18.7 -202.9 Q39.7 -217.75 30.9 -239.2 21.9 -254.3 15.8 -272.55 L11.95 -278.95 14.6 -278.65 11.95 -278.95 5.55 -279.3 -1.2 -274.4 -2.7 -273.3 -3.85 -272.4 -8.05 -269.2 -18.0 -265.45 -23.25 -255.05 Q-25.6 -268.75 -7.1 -274.2 -4.4 -285.4 2.0 -287.1 10.5 -289.7 16.25 -285.75 L31.85 -261.1 29.7 -253.75 Q34.75 -243.3 41.6 -233.95 48.85 -228.5 51.9 -231.7 L59.1 -236.55 Q59.3 -212.8 55.0 -205.5 49.45 -196.0 41.3 -194.2 36.85 -195.75 32.3 -195.3 27.55 -194.9 22.75 -192.4 22.6 -198.45 18.7 -202.9 22.6 -198.45 22.75 -192.4 L45.9 -75.35 46.75 -71.2 46.75 -70.85 Q47.0 -66.55 45.15 -62.3 L43.0 -74.75 41.65 -82.7 Q40.15 -87.45 34.0 -88.75 L27.55 -89.8 Q31.3 -117.5 18.7 -202.9 M49.15 -224.6 Q45.1 -229.15 41.6 -233.95 45.1 -229.15 49.15 -224.6 M-7.1 -274.2 L-7.35 -272.95 -8.05 -269.2 -7.35 -272.95 -7.1 -274.2" fill="#dadada" fill-rule="evenodd" stroke="none"/>
    <path d="M18.7 -202.9 Q22.6 -198.45 22.75 -192.4 27.55 -194.9 32.3 -195.3 36.85 -195.75 41.3 -194.2 49.45 -196.0 55.0 -205.5 59.3 -212.8 59.1 -236.55 L51.9 -231.7 Q48.85 -228.5 41.6 -233.95 45.1 -229.15 49.15 -224.6 M11.95 -278.95 L14.6 -278.65 M-1.2 -274.4 L5.55 -279.3 11.95 -278.95 M-23.25 -255.05 Q-25.6 -268.75 -7.1 -274.2 -4.4 -285.4 2.0 -287.1 10.5 -289.7 16.25 -285.75 L31.85 -261.1 29.7 -253.75 Q34.75 -243.3 41.6 -233.95 M46.75 -70.85 L46.75 -71.2 45.9 -75.35 22.75 -192.4 M-8.05 -269.2 L-7.35 -272.95 -7.1 -274.2 M-88.75 -36.45 L-84.95 -50.4 Q-94.75 -39.55 -105.65 -37.3 -85.75 -60.55 -69.3 -87.35 -52.25 -115.25 -38.95 -147.05 -32.5 -162.5 -26.0 -181.9 -31.6 -185.1 -37.8 -202.5 -39.65 -213.85 -44.9 -234.05 -43.9 -237.35 -41.9 -239.8 L-36.4 -242.65 Q-34.0 -246.85 -32.35 -251.75 -28.05 -254.95 -23.25 -255.05 L-18.0 -265.45 -8.05 -269.2 M-26.0 -181.9 Q-23.05 -189.3 -22.0 -190.5 M-88.75 -36.45 Q-67.15 -31.15 -45.1 -34.05" fill="none" stroke="#808080" stroke-linecap="round" stroke-linejoin="round" stroke-width="1.0"/>
    <path d="M43.0 -74.75 L45.15 -62.3 92.85 294.05 -93.6 270.05 -45.1 -34.05 -43.6 -46.45 -42.25 -57.05 -40.85 -67.65 M45.9 -75.35 L46.15 -74.55 46.75 -71.2" fill="none" stroke="#000000" stroke-linecap="round" stroke-linejoin="round" stroke-width="1.0"/>
    <path d="M45.15 -62.3 Q47.0 -66.55 46.75 -70.85" fill="none" stroke="#808080" stroke-linecap="round" stroke-linejoin="round" stroke-width="1.0"/>
    <path d="M41.65 -82.7 L43.0 -74.75" fill="none" stroke="#363636" stroke-linecap="round" stroke-linejoin="round" stroke-width="1.0"/>
    <path d="M27.55 -89.8 L34.0 -88.75 Q40.15 -87.45 41.65 -82.7 M27.55 -89.8 Q19.55 -90.35 2.8 -87.1 -7.3 -85.2 -20.65 -78.75 -29.95 -74.3 -40.85 -67.65 -58.2 -55.6 -62.7 -46.95" fill="none" stroke="#363636" stroke-linecap="round" stroke-linejoin="round" stroke-width="1.0"/>
  </g>
</svg>
