<?xml version="1.0" encoding="UTF-8" standalone="no"?>
<svg xmlns:xlink="http://www.w3.org/1999/xlink" height="303.15px" width="130.1px" xmlns="http://www.w3.org/2000/svg">
  <g transform="matrix(1.0, 0.0, 0.0, 1.0, 65.05, -15.1)">
    <path d="M-16.05 87.55 L-11.05 23.8 -10.8 22.1 -10.8 22.05 Q-9.85 18.5 -6.45 16.75 -3.0 14.95 1.0 16.0 4.95 17.05 7.05 20.3 L7.4 20.9 8.6 33.85 13.4 89.8 Q12.7 88.55 11.6 87.4 9.0 84.65 6.5 82.95 2.65 80.3 -1.0 80.2 L-1.35 80.2 -2.95 80.25 Q-8.9 80.7 -13.3 84.45 -14.95 85.9 -16.05 87.55" fill="#dcb73a" fill-rule="evenodd" stroke="none"/>
    <path d="M13.4 89.8 Q14.9 95.0 14.1 98.1 13.45 99.75 12.2 101.35 L11.6 94.7 Q7.7 84.75 -2.1 84.3 -10.15 83.6 -14.1 93.55 L-14.75 103.55 Q-16.2 101.95 -17.05 100.15 -17.75 93.15 -16.05 87.55 -14.95 85.9 -13.3 84.45 -8.9 80.7 -2.95 80.25 L-1.35 80.2 -1.0 80.2 Q2.65 80.3 6.5 82.95 9.0 84.65 11.6 87.4 12.7 88.55 13.4 89.8" fill="#675412" fill-rule="evenodd" stroke="none"/>
    <path d="M12.2 101.35 L19.55 206.4 22.3 245.25 25.3 288.05 Q24.2 279.55 17.8 273.2 10.15 265.55 -0.65 265.55 -11.55 265.55 -19.2 273.2 -26.0 279.95 -26.75 289.15 L-24.15 248.65 -21.5 208.15 -21.5 208.05 -14.75 103.55 -14.1 93.55 Q-10.15 83.6 -2.1 84.3 7.7 84.75 11.6 94.7 L12.2 101.35 M-0.95 186.3 L-7.95 257.8 Q-1.5 248.95 5.9 257.8 L-0.95 186.3" fill="#a5861d" fill-rule="evenodd" stroke="none"/>
    <path d="M-26.8 289.8 Q-40.75 301.55 -57.15 301.95 L-24.15 248.65 -26.75 289.15 -26.8 289.8" fill="#e6ba73" fill-rule="evenodd" stroke="none"/>
    <path d="M25.5 291.65 Q24.5 303.45 17.8 310.1 10.15 317.75 -0.65 317.75 -11.55 317.75 -19.2 310.1 -26.85 302.45 -26.85 291.65 L-26.8 289.8 -26.75 289.15 Q-26.0 279.95 -19.2 273.2 -11.55 265.55 -0.65 265.55 10.15 265.55 17.8 273.2 24.2 279.55 25.3 288.05 L25.5 291.65 M16.45 292.95 Q16.45 285.8 11.35 280.7 6.3 275.65 -0.85 275.65 -8.0 275.65 -13.1 280.7 -18.15 285.8 -18.15 292.95 -18.15 300.1 -13.1 305.15 -8.0 310.25 -0.85 310.25 6.3 310.25 11.35 305.15 16.45 300.1 16.45 292.95 16.45 300.1 11.35 305.15 6.3 310.25 -0.85 310.25 -8.0 310.25 -13.1 305.15 -18.15 300.1 -18.15 292.95 -18.15 285.8 -13.1 280.7 -8.0 275.65 -0.85 275.65 6.3 275.65 11.35 280.7 16.45 285.8 16.45 292.95" fill="#523d0e" fill-rule="evenodd" stroke="none"/>
    <path d="M-57.15 301.95 Q-82.4 263.75 -21.5 208.15 L-24.15 248.65 -57.15 301.95 M-0.7 237.55 L-7.95 257.8 -0.95 186.3 -0.7 237.55" fill="#d0d0d0" fill-rule="evenodd" stroke="none"/>
    <path d="M57.15 303.75 Q39.2 302.35 25.5 291.65 L25.3 288.05 22.3 245.25 57.15 303.75 M-7.95 257.8 L-0.7 237.55 5.9 257.8 Q-1.5 248.95 -7.95 257.8" fill="#deaf45" fill-rule="evenodd" stroke="none"/>
    <path d="M19.55 206.4 Q82.85 270.65 57.15 303.75 L22.3 245.25 19.55 206.4 M-0.7 237.55 L-0.95 186.3 5.9 257.8 -0.7 237.55" fill="#b9b9b9" fill-rule="evenodd" stroke="none"/>
    <path d="M16.45 292.95 Q16.45 300.1 11.35 305.15 6.3 310.25 -0.85 310.25 -8.0 310.25 -13.1 305.15 -18.15 300.1 -18.15 292.95 -18.15 285.8 -13.1 280.7 -8.0 275.65 -0.85 275.65 6.3 275.65 11.35 280.7 16.45 285.8 16.45 292.95" fill="none" stroke="#472525" stroke-linecap="round" stroke-linejoin="round" stroke-width="1.0"/>
    <path d="M-16.05 87.55 L-11.05 23.8 -10.8 22.1 -10.8 22.05 Q-9.85 18.5 -6.45 16.75 -3.0 14.95 1.0 16.0 4.95 17.05 7.05 20.3 L7.4 20.9 8.6 33.85" fill="none" stroke="#6b5114" stroke-linecap="round" stroke-linejoin="round" stroke-width="1.0"/>
    <path d="M8.6 33.85 L13.4 89.8 Q14.9 95.0 14.1 98.1 13.45 99.75 12.2 101.35 L19.55 206.4 22.3 245.25 25.3 288.05 Q24.2 279.55 17.8 273.2 10.15 265.55 -0.65 265.55 -11.55 265.55 -19.2 273.2 -26.0 279.95 -26.75 289.15 L-24.15 248.65 -21.5 208.15 -21.5 208.05 -14.75 103.55 Q-16.2 101.95 -17.05 100.15 -17.75 93.15 -16.05 87.55 M-14.75 103.55 L-14.1 93.55 Q-10.15 83.6 -2.1 84.3 7.7 84.75 11.6 94.7 L12.2 101.35" fill="none" stroke="#553c11" stroke-linecap="round" stroke-linejoin="round" stroke-width="1.0"/>
    <path d="M19.55 206.4 Q82.85 270.65 57.15 303.75 39.2 302.35 25.5 291.65 24.5 303.45 17.8 310.1 10.15 317.75 -0.65 317.75 -11.55 317.75 -19.2 310.1 -26.85 302.45 -26.85 291.65 L-26.8 289.8 Q-40.75 301.55 -57.15 301.95 -82.4 263.75 -21.5 208.15 L-21.5 208.05 M25.3 288.05 L25.5 291.65 M-26.75 289.15 L-26.8 289.8 M-0.95 186.3 L-7.95 257.8 Q-1.5 248.95 5.9 257.8 L-0.95 186.3" fill="none" stroke="#333333" stroke-linecap="round" stroke-linejoin="round" stroke-width="1.0"/>
  </g>
</svg>
