<?xml version="1.0" encoding="UTF-8" standalone="no"?>
<svg xmlns:xlink="http://www.w3.org/1999/xlink" height="19.05px" width="19.0px" xmlns="http://www.w3.org/2000/svg">
  <g transform="matrix(1.0, 0.0, 0.0, 1.0, 9.5, 9.5)">
    <path d="M4.1 -0.2 L8.45 -0.9 8.4 -1.35 Q7.85 -4.8 5.0 -6.9 2.15 -8.95 -1.3 -8.4 L-1.5 -8.35 -0.75 -3.9 M8.45 -0.9 L8.5 -0.3 Q8.6 2.55 6.85 4.95 4.8 7.85 1.35 8.4 L1.25 8.45 Q-2.15 8.9 -5.0 6.85 -7.4 5.1 -8.15 2.35 L-8.3 1.75 -8.4 1.3 Q-8.95 -2.15 -6.85 -5.0 -4.8 -7.75 -1.5 -8.35 M1.25 8.45 L0.55 4.15 M-8.3 1.75 L-4.0 1.1" fill="none" stroke="#ffffff" stroke-linecap="round" stroke-linejoin="round" stroke-width="2.0"/>
  </g>
</svg>
