<?xml version="1.0" encoding="UTF-8" standalone="no"?>
<svg xmlns:xlink="http://www.w3.org/1999/xlink" height="30.45px" width="89.95px" xmlns="http://www.w3.org/2000/svg">
  <g transform="matrix(1.0, 0.0, 0.0, 1.0, 53.45, 2.55)">
    <path d="M34.95 26.85 L-51.3 27.9 -51.3 27.85 -51.4 27.85 -53.45 -2.55 34.35 -0.35 35.0 26.8 34.95 26.85" fill="#000000" fill-opacity="0.43137255" fill-rule="evenodd" stroke="none"/>
    <path d="M-51.6 -2.0 L36.0 0.15 36.5 25.85 -49.45 26.8 -51.6 -2.0" fill="#062942" fill-rule="evenodd" stroke="none"/>
    <path d="M-51.6 -2.0 L-49.45 26.8 36.5 25.85" fill="none" stroke="#07253a" stroke-linecap="round" stroke-linejoin="round" stroke-width="0.05"/>
    <path d="M36.5 25.85 L36.0 0.15 -51.6 -2.0 Z" fill="none" stroke="#1b5e76" stroke-linecap="round" stroke-linejoin="round" stroke-width="0.05"/>
    <path d="M-50.3 -1.35 L34.7 0.65 35.35 25.25 -48.25 26.0 -50.3 -1.35" fill="url(#gradient0)" fill-rule="evenodd" stroke="none"/>
    <path d="M-48.25 26.0 L35.35 25.25" fill="none" stroke="#75c2df" stroke-linecap="round" stroke-linejoin="round" stroke-width="0.05"/>
    <path d="M-50.3 -1.35 L-48.25 26.0" fill="none" stroke="#3eaad2" stroke-linecap="round" stroke-linejoin="round" stroke-width="0.05"/>
    <path d="M35.35 25.25 L34.7 0.65 -50.3 -1.35" fill="none" stroke="#03131b" stroke-linecap="round" stroke-linejoin="round" stroke-width="0.05"/>
    <path d="M15.0 9.0 L15.35 9.15 15.5 9.5 15.35 9.85 15.0 10.0 Q14.8 10.0 14.65 9.85 L14.5 9.5 14.65 9.15 Q14.8 9.0 15.0 9.0 M11.0 9.0 Q11.2 9.0 11.35 9.15 L11.5 9.5 11.35 9.85 11.0 10.0 10.65 9.85 10.5 9.5 10.65 9.15 Q10.8 9.0 11.0 9.0 M3.35 9.15 L3.5 9.5 3.35 9.85 3.0 10.0 2.65 9.85 2.5 9.5 2.65 9.15 Q2.8 9.0 3.0 9.0 L3.35 9.15 M6.65 9.15 Q6.8 9.0 7.0 9.0 L7.35 9.15 7.5 9.5 7.35 9.85 7.0 10.0 6.65 9.85 6.5 9.5 6.65 9.15 M-9.0 9.0 Q-8.8 9.0 -8.65 9.15 -8.5 9.3 -8.5 9.5 L-8.65 9.85 -9.0 10.0 -9.35 9.85 -9.5 9.5 -9.35 9.15 Q-9.2 9.0 -9.0 9.0 M-5.5 9.5 L-5.35 9.15 Q-5.2 9.0 -5.0 9.0 -4.8 9.0 -4.65 9.15 -4.5 9.3 -4.5 9.5 L-4.65 9.85 -5.0 10.0 -5.35 9.85 -5.5 9.5 M-0.65 9.15 L-0.5 9.5 -0.65 9.85 -1.0 10.0 -1.35 9.85 -1.5 9.5 -1.35 9.15 -1.0 9.0 Q-0.8 9.0 -0.65 9.15 M-17.35 9.15 L-17.0 9.0 Q-16.8 9.0 -16.65 9.15 L-16.5 9.5 -16.65 9.85 -17.0 10.0 -17.35 9.85 -17.5 9.5 -17.35 9.15 M-13.35 9.15 L-13.0 9.0 -12.65 9.15 -12.5 9.5 -12.65 9.85 -13.0 10.0 -13.35 9.85 -13.5 9.5 -13.35 9.15 M-29.0 9.0 Q-28.8 9.0 -28.65 9.15 L-28.5 9.5 -28.65 9.85 -29.0 10.0 -29.35 9.85 -29.5 9.5 -29.35 9.15 -29.0 9.0 M-25.5 9.5 L-25.35 9.15 -25.0 9.0 -24.65 9.15 -24.5 9.5 -24.65 9.85 -25.0 10.0 -25.35 9.85 -25.5 9.5 M-20.65 9.15 Q-20.5 9.3 -20.5 9.5 L-20.65 9.85 -21.0 10.0 -21.35 9.85 -21.5 9.5 -21.35 9.15 -21.0 9.0 Q-20.8 9.0 -20.65 9.15" fill="#55b6e1" fill-rule="evenodd" stroke="none"/>
  </g>
  <defs>
    <linearGradient gradientTransform="matrix(0.002, -0.011, 0.0497, 0.0018, 0.6, 7.1)" gradientUnits="userSpaceOnUse" id="gradient0" spreadMethod="pad" x1="-819.2" x2="819.2">
      <stop offset="0.0" stop-color="#093d72"/>
      <stop offset="1.0" stop-color="#55b6e1"/>
    </linearGradient>
  </defs>
</svg>
