<?xml version="1.0" encoding="UTF-8" standalone="no"?>
<svg xmlns:xlink="http://www.w3.org/1999/xlink" height="824.0px" width="957.65px" xmlns="http://www.w3.org/2000/svg">
  <g transform="matrix(1.0, 0.0, 0.0, 1.0, 416.9, 305.95)">
    <path d="M-11.5 70.0 Q-11.7 56.3 -19.2 44.75 -26.8 33.15 -39.3 27.6 -51.7 22.15 -65.15 23.25 L-41.55 14.45 -48.55 8.95 -33.3 7.65 Q-40.0 -4.5 -50.95 -12.95 L-58.0 -17.9 Q-38.75 -9.8 -18.05 -12.6 -11.95 -26.9 -12.6 -42.45 -12.8 -46.1 -13.15 -49.6 -9.3 -34.15 0.05 -21.25 L7.9 -20.5 45.05 -50.75 25.6 -11.95 Q38.05 -14.85 48.6 -21.95 L77.45 -41.2 37.75 5.85 42.25 11.35 85.9 14.45 41.45 25.85 Q47.3 37.1 56.25 46.05 41.25 36.75 23.75 39.85 L20.65 40.5 33.15 67.45 -1.3 41.15 -5.65 43.35 -11.3 70.05 -11.5 70.0" fill="url(#gradient0)" fill-rule="evenodd" stroke="none"/>
    <path d="M-11.3 70.05 L-11.5 70.95 -11.5 70.0 -11.3 70.05" fill="url(#gradient1)" fill-rule="evenodd" stroke="none"/>
    <path d="M-4.25 58.65 L-4.25 56.65 -1.55 56.65 -1.55 58.65 -4.25 58.65 M-8.2 66.1 L-8.2 68.0 -10.15 68.0 -10.15 66.1 -8.2 66.1 M-48.5 9.95 L-46.55 9.95 -46.55 12.45 -48.5 12.45 -48.5 9.95 M-48.1 20.6 L-48.1 23.1 -50.05 23.1 -50.05 20.6 -48.1 20.6 M-18.15 35.85 Q-18.5 35.4 -18.5 34.75 -18.5 34.1 -18.15 33.65 -17.8 33.2 -17.25 33.2 -16.8 33.2 -16.4 33.65 -16.05 34.1 -16.05 34.75 -16.05 35.4 -16.4 35.85 -16.8 36.25 -17.25 36.3 -17.8 36.25 -18.15 35.85 M-39.55 43.4 L-39.9 42.5 Q-39.9 41.95 -39.55 41.55 -39.2 41.15 -38.65 41.2 -38.1 41.15 -37.7 41.55 -37.35 41.95 -37.35 42.5 -37.35 43.0 -37.7 43.4 -38.1 43.8 -38.65 43.8 -39.2 43.8 -39.55 43.4 M-17.05 -34.1 L-17.05 -36.85 -14.2 -36.85 -14.2 -34.1 -17.05 -34.1 M-29.15 -12.85 L-29.15 -15.4 -26.55 -15.4 -26.55 -12.85 -29.15 -12.85 M-47.9 -13.9 L-47.9 -16.4 -45.35 -16.4 -45.35 -13.9 -47.9 -13.9 M58.55 49.85 L60.45 49.85 60.45 52.35 58.55 52.35 58.55 49.85 M17.45 65.3 L17.45 67.2 15.5 67.2 15.5 65.3 17.45 65.3 M37.6 49.25 L39.65 49.25 39.65 52.65 37.6 52.65 37.6 49.25 M65.1 14.3 L65.1 16.4 62.95 16.4 62.95 14.3 65.1 14.3 M70.25 19.05 L70.25 21.15 68.05 21.15 68.05 19.05 70.25 19.05 M69.95 -4.25 L68.0 -4.25 68.0 -6.15 69.95 -6.15 69.95 -4.25 M54.6 -1.1 L56.5 -1.1 56.5 1.4 54.6 1.4 54.6 -1.1 M55.75 -25.1 L58.45 -25.1 58.45 -23.1 55.75 -23.1 55.75 -25.1 M45.5 -27.0 L45.5 -29.5 47.45 -29.5 47.45 -27.0 45.5 -27.0 M58.05 -40.1 L58.05 -38.1 55.4 -38.1 55.4 -40.1 58.05 -40.1 M11.85 -46.15 L11.85 -43.9 9.65 -43.9 9.65 -46.15 11.85 -46.15 M11.45 -30.5 L11.45 -28.0 8.9 -28.0 8.9 -30.5 11.45 -30.5 M35.6 -42.8 L33.65 -42.8 33.65 -45.3 35.6 -45.3 35.6 -42.8 M40.0 -30.35 L40.0 -32.2 41.9 -32.2 41.9 -30.35 40.0 -30.35" fill="#ffffff" fill-rule="evenodd" stroke="none"/>
    <path d="M-5.15 -22.3 Q6.9 -26.05 18.8 -20.9 21.9 -19.55 24.55 -17.8 29.8 -14.3 33.4 -9.2 35.75 -5.8 37.4 -1.7 39.35 3.3 39.85 8.3 40.55 16.7 36.95 25.0 35.5 28.35 33.55 31.2 27.8 39.6 17.75 43.55 14.35 44.9 11.0 45.55 1.0 47.45 -8.95 43.15 -13.2 41.3 -16.65 38.65 -23.9 33.05 -27.55 23.95 -29.2 19.85 -29.75 15.75 -31.1 6.45 -27.1 -2.75 -24.2 -9.4 -19.4 -14.0 -14.6 -18.7 -7.9 -21.35 L-5.15 -22.3" fill="url(#gradient2)" fill-rule="evenodd" stroke="none"/>
    <path d="M-19.4 -14.0 Q-24.2 -9.4 -27.1 -2.75 -31.1 6.45 -29.75 15.75 L-387.55 -0.65 -416.9 -74.75 -373.9 -91.75 -19.4 -14.0" fill="url(#gradient3)" fill-rule="evenodd" stroke="none"/>
    <path d="M-16.65 38.65 Q-13.2 41.3 -8.95 43.15 1.0 47.45 11.0 45.55 L-78.35 491.25 -182.35 518.05 -197.85 478.8 -16.65 38.65" fill="url(#gradient4)" fill-rule="evenodd" stroke="none"/>
    <path d="M33.55 31.2 Q35.5 28.35 36.95 25.0 40.55 16.7 39.85 8.3 L540.75 231.95 378.55 296.15 33.55 31.2" fill="url(#gradient5)" fill-rule="evenodd" stroke="none"/>
    <path d="M37.4 -1.7 Q35.75 -5.8 33.4 -9.2 L419.95 -184.85 464.6 -72.0 37.4 -1.7" fill="url(#gradient6)" fill-rule="evenodd" stroke="none"/>
    <path d="M24.55 -17.8 Q21.9 -19.55 18.8 -20.9 6.9 -26.05 -5.15 -22.3 L16.9 -246.35 167.5 -305.95 24.55 -17.8" fill="url(#gradient7)" fill-rule="evenodd" stroke="none"/>
  </g>
  <defs>
    <radialGradient cx="0" cy="0" gradientTransform="matrix(0.1174, 0.0, 0.0, 0.1174, 7.5, 9.6)" gradientUnits="userSpaceOnUse" id="gradient0" r="819.2" spreadMethod="pad">
      <stop offset="0.396078431372549" stop-color="#ffffff" stop-opacity="0.99215686"/>
      <stop offset="1.0" stop-color="#4053bf"/>
    </radialGradient>
    <radialGradient cx="0" cy="0" gradientTransform="matrix(0.1098, 0.0, 0.0, 0.1098, 2.4, 8.45)" gradientUnits="userSpaceOnUse" id="gradient1" r="819.2" spreadMethod="pad">
      <stop offset="0.396078431372549" stop-color="#ffffff" stop-opacity="0.99215686"/>
      <stop offset="1.0" stop-color="#4053bf"/>
    </radialGradient>
    <linearGradient gradientTransform="matrix(-0.127, 0.0, 0.0, -0.0428, -133.05, 11.15)" gradientUnits="userSpaceOnUse" id="gradient2" spreadMethod="pad" x1="-819.2" x2="819.2">
      <stop offset="0.5058823529411764" stop-color="#ffffff"/>
      <stop offset="1.0" stop-color="#ffffff" stop-opacity="0.0"/>
    </linearGradient>
    <linearGradient gradientTransform="matrix(-0.131, -0.0109, 0.0047, -0.0559, -175.65, -29.1)" gradientUnits="userSpaceOnUse" id="gradient3" spreadMethod="pad" x1="-819.2" x2="819.2">
      <stop offset="0.0" stop-color="#ffffff"/>
      <stop offset="1.0" stop-color="#3c0cfe" stop-opacity="0.0"/>
    </linearGradient>
    <linearGradient gradientTransform="matrix(0.0, 0.1219, -0.1679, 0.0, -60.3, 203.85)" gradientUnits="userSpaceOnUse" id="gradient4" spreadMethod="pad" x1="-819.2" x2="819.2">
      <stop offset="0.0" stop-color="#ffffff"/>
      <stop offset="1.0" stop-color="#3c0cfe" stop-opacity="0.0"/>
    </linearGradient>
    <linearGradient gradientTransform="matrix(0.1717, 0.1206, -0.0511, 0.0728, 287.2, 142.9)" gradientUnits="userSpaceOnUse" id="gradient5" spreadMethod="pad" x1="-819.2" x2="819.2">
      <stop offset="0.0" stop-color="#ffffff"/>
      <stop offset="1.0" stop-color="#3c0cfe" stop-opacity="0.0"/>
    </linearGradient>
    <linearGradient gradientTransform="matrix(0.09, -0.0241, 0.0191, 0.0711, 301.85, -90.8)" gradientUnits="userSpaceOnUse" id="gradient6" spreadMethod="pad" x1="-819.2" x2="819.2">
      <stop offset="0.0" stop-color="#ffffff"/>
      <stop offset="1.0" stop-color="#3c0cfe" stop-opacity="0.0"/>
    </linearGradient>
    <linearGradient gradientTransform="matrix(0.0325, -0.1597, 0.0811, 0.0165, 81.75, -225.05)" gradientUnits="userSpaceOnUse" id="gradient7" spreadMethod="pad" x1="-819.2" x2="819.2">
      <stop offset="0.0" stop-color="#ffffff"/>
      <stop offset="1.0" stop-color="#3c0cfe" stop-opacity="0.0"/>
    </linearGradient>
  </defs>
</svg>
