<?xml version="1.0" encoding="UTF-8" standalone="no"?>
<svg xmlns:xlink="http://www.w3.org/1999/xlink" height="433.5px" width="1070.25px" xmlns="http://www.w3.org/2000/svg">
  <g transform="matrix(1.0, 0.0, 0.0, 1.0, 572.6, 252.55)">
    <path d="M22.05 -41.1 Q37.25 -42.15 49.15 -33.2 L50.6 -32.05 44.1 -23.75 28.2 -33.4 22.05 -41.1 M57.3 -29.35 L59.75 -29.25 Q67.75 -24.1 67.9 -14.8 L67.9 -13.65 59.4 -9.7 54.95 -16.7 57.3 -29.35 M67.65 4.35 L67.7 4.35 Q77.1 11.8 72.35 22.45 70.85 25.85 67.7 28.15 L66.6 24.6 Q72.3 17.35 66.75 10.3 65.35 8.55 63.4 7.3 L67.65 4.35 M8.2 -36.05 L0.65 -33.25 -4.85 -38.4 8.35 -41.25 8.2 -36.05 M53.2 14.5 Q64.95 21.9 63.2 34.9 63.05 35.65 62.5 36.3 56.45 43.0 48.25 39.1 L45.95 37.9 Q47.9 50.55 36.4 56.45 34.45 57.4 32.25 57.85 43.45 49.2 40.2 36.05 L39.75 34.35 53.1 36.35 Q56.8 32.25 57.0 26.9 57.25 20.15 52.1 15.4 L53.2 14.5 M37.1 7.9 L41.7 19.05 35.15 30.6 36.85 39.8 Q31.4 42.95 25.15 42.25 18.2 41.45 13.55 36.6 5.8 28.4 8.15 17.75 10.95 5.15 24.0 2.5 18.45 5.55 14.45 10.4 11.0 14.5 9.85 19.55 7.55 29.5 15.7 36.1 24.6 43.3 35.0 38.3 L34.65 34.7 Q34.4 31.95 35.1 29.35 38.0 18.75 37.1 7.9 M-1.65 57.65 Q4.6 49.25 13.8 43.85 L15.7 42.75 23.35 56.1 19.7 51.5 Q13.8 58.85 4.15 58.65 1.2 58.55 -1.65 57.65 M-58.25 -19.7 L-47.25 -27.5 -46.85 -28.75 -39.65 -22.35 Q-44.3 -18.9 -43.1 -13.45 L-42.7 -12.1 Q-50.6 -13.7 -56.75 -18.5 L-58.25 -19.7 M-16.7 -45.35 L-11.05 -30.3 Q-17.9 -31.2 -24.35 -28.95 L-25.9 -28.35 -37.75 -34.3 -29.3 -38.5 -30.0 -40.1 -32.8 -39.15 -33.7 -41.1 Q-30.2 -42.75 -26.5 -43.85 -21.7 -45.15 -16.7 -45.35 M-56.2 -13.8 L-39.95 -5.75 Q-45.95 1.3 -44.75 10.3 L-44.35 12.65 -68.25 10.2 -67.05 9.8 -56.2 -13.8 M-42.05 19.95 Q-42.05 26.5 -37.9 31.2 -33.7 35.85 -27.8 35.9 L-19.15 39.5 Q-34.8 38.2 -47.7 29.75 -58.8 22.4 -68.5 13.55 L-42.05 19.95 M-8.6 46.15 L-5.15 45.35 -5.95 54.85 -8.6 46.15" fill="#666666" fill-rule="evenodd" stroke="none"/>
    <path d="M22.05 -41.1 L23.95 -41.45 Q39.85 -43.95 52.1 -33.95 L50.6 -32.05 49.15 -33.2 Q37.25 -42.15 22.05 -41.1 M59.75 -29.25 Q63.65 -29.25 66.45 -25.0 69.2 -20.75 69.2 -14.75 L67.9 -13.65 67.9 -14.8 Q67.75 -24.1 59.75 -29.25 M67.7 4.35 Q76.3 7.35 77.0 15.85 77.8 25.8 67.75 28.4 67.35 30.5 66.5 32.45 61.85 42.95 49.5 43.2 49.25 45.55 48.25 47.85 43.8 57.8 32.25 57.85 34.45 57.4 36.4 56.45 47.9 50.55 45.95 37.9 L48.25 39.1 Q56.45 43.0 62.5 36.3 63.05 35.65 63.2 34.9 64.95 21.9 53.2 14.5 L54.25 13.6 Q61.1 17.05 65.5 23.1 L66.6 24.6 67.7 28.15 Q70.85 25.85 72.35 22.45 77.1 11.8 67.7 4.35 M23.35 56.1 L20.7 53.95 19.55 54.2 18.5 55.15 Q9.4 62.7 -1.65 57.65 1.2 58.55 4.15 58.65 13.8 58.85 19.7 51.5 L23.35 56.1 M-5.95 54.85 L-6.75 54.05 Q-9.75 50.55 -8.6 46.15 L-5.95 54.85 M-19.15 39.5 Q-34.0 41.3 -46.9 34.25 -60.7 26.7 -68.5 13.55 -58.8 22.4 -47.7 29.75 -34.8 38.2 -19.15 39.5 M-58.25 -19.7 L-57.45 -21.2 Q-54.0 -27.2 -46.85 -28.75 L-47.25 -27.5 -58.25 -19.7 M-37.75 -34.3 L-35.45 -42.9 -33.05 -44.0 Q-25.6 -47.3 -17.35 -46.55 L-16.7 -45.35 Q-21.7 -45.15 -26.5 -43.85 -30.2 -42.75 -33.7 -41.1 L-32.8 -39.15 -30.0 -40.1 -29.3 -38.5 -37.75 -34.3 M-6.5 -39.95 L-4.8 -40.85 Q2.3 -44.3 10.15 -42.9 L8.35 -41.25 -4.85 -38.4 -6.5 -39.95" fill="#454545" fill-rule="evenodd" stroke="none"/>
    <path d="M28.2 -33.4 L44.1 -23.75 40.85 -21.5 28.2 -33.4 M0.65 -33.25 L8.2 -36.05 5.35 -28.8 0.65 -33.25 M54.95 -16.7 L59.4 -9.7 53.0 -10.15 52.45 -11.8 54.95 -16.7 M66.6 24.6 L65.5 23.1 Q61.1 17.05 54.25 13.6 L63.4 7.3 Q65.35 8.55 66.75 10.3 72.3 17.35 66.6 24.6 M39.75 34.35 L41.85 23.85 52.1 15.4 Q57.25 20.15 57.0 26.9 56.8 32.25 53.1 36.35 L39.75 34.35 M24.0 2.5 Q30.6 2.95 35.8 6.9 L37.1 7.9 Q38.0 18.75 35.1 29.35 34.4 31.95 34.65 34.7 L35.0 38.3 Q24.6 43.3 15.7 36.1 7.55 29.5 9.85 19.55 11.0 14.5 14.45 10.4 18.45 5.55 24.0 2.5 M-42.7 -12.1 L-43.1 -13.45 Q-44.3 -18.9 -39.65 -22.35 L-34.9 -18.15 -32.9 -11.25 -42.7 -12.1 M-11.05 -30.3 L-9.45 -22.05 -10.85 -20.85 -25.9 -28.35 -24.35 -28.95 Q-17.9 -31.2 -11.05 -30.3 M-39.95 -5.75 Q-31.35 -2.05 -27.3 6.25 L-26.35 8.25 -27.15 10.35 -44.35 12.65 -44.75 10.3 Q-45.95 1.3 -39.95 -5.75 M-27.8 35.9 Q-33.7 35.85 -37.9 31.2 -42.05 26.5 -42.05 19.95 L-25.15 30.9 -30.9 33.95 -27.8 35.9" fill="#888888" fill-rule="evenodd" stroke="none"/>
    <path d="M-68.25 10.2 L-67.95 8.65 Q-65.35 -4.15 -56.2 -13.8 L-67.05 9.8 -68.25 10.2" fill="#424242" fill-rule="evenodd" stroke="none"/>
    <path d="M50.6 -32.05 L52.1 -33.95 53.9 -39.95 55.8 -39.5 57.3 -29.35 54.95 -16.7 52.45 -11.8 53.0 -10.15 59.4 -9.7 67.9 -13.65 69.2 -14.75 78.15 -16.8 Q74.85 -13.9 72.5 -10.35 70.25 -7.15 69.15 -3.4 L68.6 -1.35 78.5 -3.5 67.65 4.35 63.4 7.3 54.25 13.6 53.2 14.5 52.1 15.4 41.85 23.85 39.75 34.35 40.2 36.05 Q43.45 49.2 32.25 57.85 L25.55 69.9 23.3 70.1 23.35 56.1 15.7 42.75 13.8 43.85 Q4.6 49.25 -1.65 57.65 L-8.2 71.7 -9.85 71.05 -5.95 54.85 -5.15 45.35 -8.6 46.15 -16.8 50.15 -14.7 44.75 -19.15 39.5 -27.8 35.9 -30.9 33.95 -25.15 30.9 -42.05 19.95 -68.5 13.55 -78.9 11.85 -78.55 10.1 -68.25 10.2 -44.35 12.65 -27.15 10.35 -26.35 8.25 -27.3 6.25 Q-31.35 -2.05 -39.95 -5.75 L-56.2 -13.8 -65.2 -20.85 -58.25 -19.7 -56.75 -18.5 Q-50.6 -13.7 -42.7 -12.1 L-32.9 -11.25 -34.9 -18.15 -39.65 -22.35 -46.85 -28.75 -89.2 -57.2 -86.05 -57.95 -37.75 -34.3 -25.9 -28.35 -10.85 -20.85 -9.45 -22.05 -11.05 -30.3 -16.7 -45.35 -17.35 -46.55 -23.75 -54.45 -6.5 -39.95 -4.85 -38.4 0.65 -33.25 5.35 -28.8 8.2 -36.05 8.35 -41.25 10.15 -42.9 12.3 -45.0 17.0 -45.15 22.05 -41.1 28.2 -33.4 40.85 -21.5 44.1 -23.75 50.6 -32.05 M37.1 7.9 L35.8 6.9 Q30.6 2.95 24.0 2.5 10.95 5.15 8.15 17.75 5.8 28.4 13.55 36.6 18.2 41.45 25.15 42.25 31.4 42.95 36.85 39.8 L35.15 30.6 41.7 19.05 37.1 7.9" fill="url(#gradient0)" fill-rule="evenodd" stroke="none"/>
    <path d="M10.6 -62.0 L12.85 -62.0 12.85 -59.9 10.6 -59.9 10.6 -62.0 M7.9 -53.4 L10.1 -53.4 10.1 -51.35 7.9 -51.35 7.9 -53.4 M105.8 -14.3 L105.8 -10.25 101.5 -10.25 101.5 -14.3 105.8 -14.3 M81.95 67.45 L77.15 67.45 77.15 62.9 81.95 62.9 81.95 67.45 M64.9 33.0 L64.9 37.05 60.55 37.05 60.55 33.0 64.9 33.0 M78.5 49.35 L78.5 53.4 74.2 53.4 74.2 49.35 78.5 49.35 M10.5 54.5 L14.8 54.5 14.8 58.55 10.5 58.55 10.5 54.5 M50.55 65.65 L54.85 65.65 54.85 69.7 50.55 69.7 50.55 65.65 M65.6 87.2 L60.8 87.2 60.8 82.7 65.6 82.7 65.6 87.2 M9.35 102.65 L9.35 106.7 5.0 106.7 5.0 102.65 9.35 102.65 M-63.65 -61.5 L-68.6 -61.5 -68.6 -66.1 -63.65 -66.1 -63.65 -61.5 M-80.55 -6.8 L-80.55 -10.85 -76.2 -10.85 -76.2 -6.8 -80.55 -6.8 M-48.9 -22.9 L-48.9 -18.85 -53.25 -18.85 -53.25 -22.9 -48.9 -22.9 M-40.5 -16.0 L-36.15 -16.0 -36.15 -11.95 -40.5 -11.95 -40.5 -16.0 M-26.6 -46.8 Q-26.65 -47.75 -25.9 -48.45 -25.15 -49.2 -24.1 -49.15 -23.1 -49.2 -22.35 -48.45 -21.6 -47.75 -21.6 -46.8 -21.6 -45.85 -22.35 -45.1 -23.1 -44.4 -24.1 -44.4 -25.15 -44.4 -25.9 -45.1 -26.65 -45.85 -26.6 -46.8 M-30.7 -27.05 L-35.65 -27.05 -35.65 -31.7 -30.7 -31.7 -30.7 -27.05 M-20.7 47.35 L-25.0 47.35 -25.0 43.3 -20.7 43.3 -20.7 47.35 M-52.35 5.45 L-48.0 5.45 -48.0 9.55 -52.35 9.55 -52.35 5.45 M-46.85 22.6 L-46.85 27.0 -51.55 27.0 -51.55 22.6 -46.85 22.6 M-67.15 13.2 L-67.15 17.3 -71.45 17.3 -71.45 13.2 -67.15 13.2 M-67.15 37.05 L-71.45 37.05 -71.45 33.0 -67.15 33.0 -67.15 37.05 M-56.4 55.15 L-56.4 59.7 -61.2 59.7 -61.2 55.15 -56.4 55.15 M-33.25 80.9 L-33.25 76.85 -28.9 76.85 -28.9 80.9 -33.25 80.9 M-8.75 62.3 L-8.75 57.85 -4.05 57.85 -4.05 62.3 -8.75 62.3" fill="#ffffff" fill-rule="evenodd" stroke="none"/>
    <path d="M18.35 -12.3 L190.3 -232.85 314.55 -252.55 326.85 -243.95 49.65 -19.75 41.3 -18.6 Q30.3 -16.6 18.35 -12.3" fill="url(#gradient1)" fill-rule="evenodd" stroke="none"/>
    <path d="M49.65 -19.75 Q27.6 2.45 46.85 -2.7 L15.0 10.65 Q6.95 13.1 -0.6 14.5 L-6.85 15.45 Q-1.85 9.65 -21.15 13.0 -20.45 8.75 -14.95 4.45 -12.8 2.7 -10.1 1.0 -2.15 -4.15 10.2 -9.15 L18.35 -12.3 Q30.3 -16.6 41.3 -18.6 L49.65 -19.75" fill="url(#gradient2)" fill-rule="evenodd" stroke="none"/>
    <path d="M-21.15 13.0 L-572.6 110.8 -430.75 30.6 -10.1 1.0 Q-12.8 2.7 -14.95 4.45 -20.45 8.75 -21.15 13.0" fill="url(#gradient3)" fill-rule="evenodd" stroke="none"/>
    <path d="M20.45 17.5 L-78.1 180.95 -216.75 171.0 -6.85 15.45 -0.6 14.5 Q6.95 13.1 15.0 10.65 L0.75 16.6 Q0.4 18.15 -1.05 19.95 L21.65 12.05 19.05 13.5 Q14.05 15.95 7.25 18.0 L20.45 17.5" fill="url(#gradient4)" fill-rule="evenodd" stroke="none"/>
    <path d="M38.45 6.2 L457.9 -27.9 477.3 -7.25 421.3 3.05 20.45 17.5 7.25 18.0 Q14.05 15.95 19.05 13.5 L21.65 12.05 38.45 6.2" fill="url(#gradient5)" fill-rule="evenodd" stroke="none"/>
    <path d="M46.85 -2.7 L497.65 -191.9 488.0 -149.95 38.45 6.2 21.65 12.05 -1.05 19.95 Q0.4 18.15 0.75 16.6 L15.0 10.65 46.85 -2.7" fill="url(#gradient6)" fill-rule="evenodd" stroke="none"/>
  </g>
  <defs>
    <radialGradient cx="0" cy="0" gradientTransform="matrix(-0.1703, -0.0699, -0.0458, 0.1116, 0.7, 4.2)" gradientUnits="userSpaceOnUse" id="gradient0" r="819.2" spreadMethod="pad">
      <stop offset="0.396078431372549" stop-color="#ffffff" stop-opacity="0.99215686"/>
      <stop offset="1.0" stop-color="#4053bf"/>
    </radialGradient>
    <linearGradient gradientTransform="matrix(0.0182, -0.044, 0.1961, -0.0604, 125.15, -95.15)" gradientUnits="userSpaceOnUse" id="gradient1" spreadMethod="pad" x1="-819.2" x2="819.2">
      <stop offset="0.0" stop-color="#ffffff"/>
      <stop offset="1.0" stop-color="#3c0cfe" stop-opacity="0.0"/>
    </linearGradient>
    <linearGradient gradientTransform="matrix(0.1483, -0.0457, -0.0064, 0.0154, 181.45, -51.65)" gradientUnits="userSpaceOnUse" id="gradient2" spreadMethod="pad" x1="-819.2" x2="819.2">
      <stop offset="0.5058823529411764" stop-color="#ffffff"/>
      <stop offset="1.0" stop-color="#ffffff" stop-opacity="0.0"/>
    </linearGradient>
    <linearGradient gradientTransform="matrix(-0.1826, 0.0182, 0.0706, -0.0447, -289.75, 51.85)" gradientUnits="userSpaceOnUse" id="gradient3" spreadMethod="pad" x1="-819.2" x2="819.2">
      <stop offset="0.0" stop-color="#ffffff"/>
      <stop offset="1.0" stop-color="#3c0cfe" stop-opacity="0.0"/>
    </linearGradient>
    <linearGradient gradientTransform="matrix(-0.0618, 0.0694, -0.0923, 0.0232, -104.6, 110.9)" gradientUnits="userSpaceOnUse" id="gradient4" spreadMethod="pad" x1="-819.2" x2="819.2">
      <stop offset="0.0" stop-color="#ffffff"/>
      <stop offset="1.0" stop-color="#3c0cfe" stop-opacity="0.0"/>
    </linearGradient>
    <linearGradient gradientTransform="matrix(0.1569, -0.0113, -0.0179, 0.0186, 194.0, 5.2)" gradientUnits="userSpaceOnUse" id="gradient5" spreadMethod="pad" x1="-819.2" x2="819.2">
      <stop offset="0.0" stop-color="#ffffff"/>
      <stop offset="1.0" stop-color="#3c0cfe" stop-opacity="0.0"/>
    </linearGradient>
    <linearGradient gradientTransform="matrix(0.1079, -0.0423, -0.0039, -0.0217, 324.25, -104.8)" gradientUnits="userSpaceOnUse" id="gradient6" spreadMethod="pad" x1="-819.2" x2="819.2">
      <stop offset="0.0" stop-color="#ffffff"/>
      <stop offset="1.0" stop-color="#3c0cfe" stop-opacity="0.0"/>
    </linearGradient>
  </defs>
</svg>
