<?xml version="1.0" encoding="UTF-8" standalone="no"?>
<svg xmlns:xlink="http://www.w3.org/1999/xlink" height="192.95px" width="212.0px" xmlns="http://www.w3.org/2000/svg">
  <g transform="matrix(1.0, 0.0, 0.0, 1.0, 109.15, 95.0)">
    <path d="M41.15 -65.75 L49.6 -54.35 51.05 -53.9 43.25 -47.0 Q39.4 -51.8 33.1 -50.85 L31.5 -50.55 Q33.7 -58.35 39.6 -64.25 L41.15 -65.75 M46.4 50.15 L46.2 52.55 Q39.75 60.35 28.95 60.1 L27.65 60.0 23.5 51.35 31.9 47.25 46.4 50.15 M6.75 59.0 L6.75 59.05 Q-2.4 68.1 -14.5 62.9 -18.4 61.25 -20.9 58.0 L-16.75 57.05 Q-8.65 63.05 -0.15 57.8 1.95 56.5 3.55 54.65 L6.75 59.0 M6.9 -77.05 L7.3 -75.8 34.2 -63.9 23.95 -48.05 Q16.1 -54.35 5.6 -53.55 L2.85 -53.25 6.9 -77.05 M57.0 -44.6 L61.5 -36.0 63.35 -36.6 62.45 -39.45 64.75 -40.25 Q66.4 -36.7 67.5 -32.9 68.8 -28.1 68.8 -23.1 L51.05 -18.1 Q52.4 -24.9 50.1 -31.45 L49.55 -33.0 57.0 -44.6 M53.85 -6.3 L60.15 -11.55 62.75 1.75 56.75 1.4 53.85 -6.3 M61.85 15.4 Q62.3 30.65 51.3 42.15 L49.95 43.55 40.6 36.7 52.65 21.25 61.85 15.4 M11.15 15.45 Q7.85 9.8 2.45 5.55 -2.15 1.95 -7.95 0.6 -19.4 -2.15 -27.45 5.7 -36.3 14.3 -31.05 24.9 L-26.8 24.7 Q-23.65 24.55 -20.6 25.4 -8.5 28.75 4.2 28.3 L-9.0 32.4 -22.1 25.35 -32.85 26.7 Q-36.25 21.1 -35.1 14.85 -33.85 7.95 -27.9 3.5 -18.05 -3.85 -5.75 -1.0 8.65 2.35 11.15 15.45 M-51.05 12.45 L-45.6 9.05 Q-53.8 2.8 -53.05 -6.8 -52.85 -9.8 -51.6 -12.6 -42.2 -6.0 -36.4 3.45 L-35.2 5.4 -51.05 12.45 M-5.75 -51.25 Q-13.45 -51.6 -19.05 -47.6 -24.7 -43.65 -25.0 -37.75 L-29.65 -29.25 Q-27.35 -44.85 -16.85 -57.35 -7.8 -68.1 3.0 -77.4 L-5.75 -51.25 M-37.9 -19.05 L-37.15 -15.55 -48.15 -16.75 -37.9 -19.05 M-4.3 44.1 Q-13.5 55.5 -28.5 53.2 -29.4 53.05 -30.05 52.45 -37.65 46.1 -32.65 38.1 L-31.1 35.8 Q-45.95 37.2 -52.15 25.5 -53.2 23.5 -53.55 21.3 -44.15 32.8 -28.65 30.15 L-26.7 29.8 -29.65 43.05 Q-25.15 46.9 -18.9 47.35 -11.1 47.9 -5.3 43.0 L-4.3 44.1" fill="#666666" fill-rule="evenodd" stroke="none"/>
    <path d="M41.15 -65.75 L42.85 -64.85 Q49.55 -61.15 51.05 -53.9 L49.6 -54.35 41.15 -65.75 M57.0 -44.6 L66.9 -41.9 68.05 -39.5 Q71.45 -31.9 70.2 -23.65 L68.8 -23.1 Q68.8 -28.1 67.5 -32.9 66.4 -36.7 64.75 -40.25 L62.45 -39.45 63.35 -36.6 61.5 -36.0 57.0 -44.6 M62.05 -13.15 L63.0 -11.4 Q66.55 -4.15 64.6 3.65 L62.75 1.75 60.15 -11.55 62.05 -13.15 M61.85 15.4 L62.2 17.35 Q64.25 33.3 52.05 45.15 L49.95 43.55 51.3 42.15 Q62.3 30.65 61.85 15.4 M46.2 52.55 Q46.0 56.5 40.9 59.1 35.8 61.65 28.9 61.4 L27.65 60.0 28.95 60.1 Q39.75 60.35 46.2 52.55 M6.75 59.05 Q2.8 67.5 -7.1 67.8 -18.7 68.15 -21.2 58.05 -23.65 57.5 -25.85 56.6 -37.8 51.5 -37.45 39.15 -40.2 38.8 -42.8 37.7 -54.15 32.85 -53.55 21.3 -53.2 23.5 -52.15 25.5 -45.95 37.2 -31.1 35.8 L-32.65 38.1 Q-37.65 46.1 -30.05 52.45 -29.4 53.05 -28.5 53.2 -13.5 55.5 -4.3 44.1 L-3.3 45.2 Q-7.65 51.9 -14.95 56.0 L-16.75 57.05 -20.9 58.0 Q-18.4 61.25 -14.5 62.9 -2.4 68.1 6.75 59.05 M-51.05 12.45 L-48.5 9.9 -48.7 8.75 -49.75 7.65 Q-58.1 -1.75 -51.6 -12.6 -52.85 -9.8 -53.05 -6.8 -53.8 2.8 -45.6 9.05 L-51.05 12.45 M-48.15 -16.75 L-47.15 -17.5 Q-43.0 -20.4 -37.9 -19.05 L-48.15 -16.75 M-29.65 -29.25 Q-30.95 -44.15 -22.1 -56.75 -12.65 -70.2 3.0 -77.4 -7.8 -68.1 -16.85 -57.35 -27.35 -44.85 -29.65 -29.25" fill="#454545" fill-rule="evenodd" stroke="none"/>
    <path d="M6.9 -77.05 L8.7 -76.65 Q23.4 -73.5 34.2 -63.9 L7.3 -75.8 6.9 -77.05" fill="#424242" fill-rule="evenodd" stroke="none"/>
    <path d="M31.5 -50.55 L33.1 -50.85 Q39.4 -51.8 43.25 -47.0 L38.1 -42.45 30.0 -40.75 31.5 -50.55 M23.95 -48.05 Q19.2 -39.6 9.4 -35.95 L7.05 -35.05 4.6 -36.0 2.85 -53.25 5.6 -53.55 Q16.1 -54.35 23.95 -48.05 M49.55 -33.0 L50.1 -31.45 Q52.4 -24.9 51.05 -18.1 L41.35 -16.85 40.0 -18.35 49.55 -33.0 M56.75 1.4 L48.4 -1.75 53.85 -6.3 56.75 1.4 M52.65 21.25 L40.6 36.7 38.15 33.35 52.65 21.25 M11.15 15.45 Q10.25 22.05 5.4 27.05 L4.2 28.3 Q-8.5 28.75 -20.6 25.4 -23.65 24.55 -26.8 24.7 L-31.05 24.9 Q-36.3 14.3 -27.45 5.7 -19.4 -2.15 -7.95 0.6 -2.15 1.95 2.45 5.55 7.85 9.8 11.15 15.45 M23.5 51.35 L24.35 45.0 26.25 44.5 31.9 47.25 23.5 51.35 M-25.0 -37.75 Q-24.7 -43.65 -19.05 -47.6 -13.45 -51.6 -5.75 -51.25 L-19.3 -34.9 -22.55 -40.75 -25.0 -37.75 M-5.3 43.0 Q-11.1 47.9 -18.9 47.35 -25.15 46.9 -29.65 43.05 L-26.7 29.8 -14.6 32.4 -5.3 43.0 M-3.3 45.2 L3.55 54.65 Q1.95 56.5 -0.15 57.8 -8.65 63.05 -16.75 57.05 L-14.95 56.0 Q-7.65 51.9 -3.3 45.2" fill="#888888" fill-rule="evenodd" stroke="none"/>
    <path d="M51.05 -53.9 L86.25 -95.0 86.95 -91.8 57.0 -44.6 49.55 -33.0 40.0 -18.35 41.35 -16.85 51.05 -18.1 68.8 -23.1 70.2 -23.65 79.75 -29.7 62.05 -13.15 60.15 -11.55 53.85 -6.3 48.4 -1.75 56.75 1.4 62.75 1.75 64.6 3.65 66.9 5.85 66.85 10.55 61.85 15.4 52.65 21.25 38.15 33.35 40.6 36.7 49.95 43.55 52.05 45.15 58.9 47.2 58.3 49.05 46.4 50.15 31.9 47.25 26.25 44.5 24.35 45.0 23.5 51.35 27.65 60.0 28.9 61.4 30.75 70.45 Q27.55 67.0 23.6 64.45 19.95 62.1 15.7 60.85 L13.3 60.2 15.35 70.2 6.75 59.0 3.55 54.65 -3.3 45.2 -4.3 44.1 -5.3 43.0 -14.6 32.4 -26.7 29.8 -28.65 30.15 Q-44.15 32.8 -53.55 21.3 L-67.25 14.1 -67.35 11.8 -51.05 12.45 -35.2 5.4 -36.4 3.45 Q-42.2 -6.0 -51.6 -12.6 L-67.6 -19.7 -66.75 -21.35 -48.15 -16.75 -37.15 -15.55 -37.9 -19.05 -42.15 -27.4 -36.0 -25.05 -29.65 -29.25 -25.0 -37.75 -22.55 -40.75 -19.3 -34.9 -5.75 -51.25 3.0 -77.4 5.55 -87.75 7.5 -87.3 6.9 -77.05 2.85 -53.25 4.6 -36.0 7.05 -35.05 9.4 -35.95 Q19.2 -39.6 23.95 -48.05 L34.2 -63.9 42.8 -72.6 41.15 -65.75 39.6 -64.25 Q33.7 -58.35 31.5 -50.55 L30.0 -40.75 38.1 -42.45 43.25 -47.0 51.05 -53.9 M4.2 28.3 L5.4 27.05 Q10.25 22.05 11.15 15.45 8.65 2.35 -5.75 -1.0 -18.05 -3.85 -27.9 3.5 -33.85 7.95 -35.1 14.85 -36.25 21.1 -32.85 26.7 L-22.1 25.35 -9.0 32.4 4.2 28.3" fill="url(#gradient0)" fill-rule="evenodd" stroke="none"/>
    <path d="M44.4 -56.25 L39.65 -56.45 39.9 -60.75 44.6 -60.6 44.4 -56.25 M27.3 -88.55 L32.0 -88.4 31.75 -84.05 27.1 -84.25 27.3 -88.55 M3.35 -76.05 L-1.4 -76.2 -1.15 -80.5 3.6 -80.35 3.35 -76.05 M11.6 -60.95 L11.35 -56.6 6.65 -56.75 6.9 -61.1 11.6 -60.95 M35.95 -48.15 L35.7 -43.8 31.0 -44.0 31.25 -48.35 35.95 -48.15 M72.85 -32.1 Q73.65 -31.35 73.6 -30.3 73.55 -29.3 72.7 -28.55 71.8 -27.85 70.7 -27.9 69.55 -27.95 68.8 -28.7 68.0 -29.5 68.1 -30.5 68.1 -31.55 69.0 -32.25 69.8 -33.0 70.95 -32.95 72.1 -32.9 72.85 -32.1 M53.9 -42.6 L53.65 -37.7 48.25 -37.9 48.5 -42.8 53.9 -42.6 M89.95 -69.3 L90.2 -74.2 95.55 -74.0 95.3 -69.1 89.95 -69.3 M84.2 7.1 L84.3 4.85 86.75 4.95 86.65 7.15 84.2 7.1 M102.85 55.2 L100.05 54.15 101.7 52.1 102.85 55.2 M65.5 41.95 L61.95 40.6 64.35 39.8 65.5 41.95 M76.75 4.05 L74.4 3.95 74.5 1.75 76.9 1.85 76.75 4.05 M8.35 82.6 L5.75 81.7 7.25 80.45 8.35 82.6 M26.45 97.95 L21.8 97.75 22.0 93.45 26.7 93.65 26.45 97.95 M68.45 63.0 L65.8 62.1 67.25 60.85 68.45 63.0 M-104.45 -3.6 L-109.15 -3.75 -108.9 -8.1 -104.2 -7.9 -104.45 -3.6 M-19.65 -76.9 L-24.35 -77.1 -24.1 -81.4 -19.4 -81.2 -19.65 -76.9 M-8.6 -56.2 L-13.75 -56.4 -13.5 -61.05 -8.35 -60.9 -8.6 -56.2 M-45.7 -71.95 L-45.95 -67.15 -51.2 -67.35 -50.95 -72.15 -45.7 -71.95 M-77.05 -45.15 L-72.3 -44.95 -72.5 -40.6 -77.25 -40.8 -77.05 -45.15 M-51.5 -19.7 L-51.75 -15.0 -56.9 -15.2 -56.65 -19.9 -51.5 -19.7 M-48.55 -0.3 L-48.8 4.0 -53.5 3.8 -53.25 -0.5 -48.55 -0.3 M-38.7 -31.15 L-38.5 -35.45 -33.75 -35.3 -34.0 -31.0 -38.7 -31.15 M-63.85 43.5 L-68.55 43.3 -68.3 39.0 -63.6 39.2 -63.85 43.5 M-50.75 67.7 L-50.55 63.35 -45.85 63.55 -46.05 67.85 -50.75 67.7 M-62.0 70.7 L-67.3 70.5 -67.05 65.7 -61.75 65.9 -62.0 70.7 M-35.4 92.5 L-34.3 94.65 -37.8 93.3 -35.4 92.5 M-30.85 50.45 L-26.15 50.6 -26.4 54.95 -31.1 54.8 -30.85 50.45 M-83.9 48.7 L-84.1 53.5 -89.4 53.3 -89.15 48.5 -83.9 48.7" fill="#ffffff" fill-rule="evenodd" stroke="none"/>
  </g>
  <defs>
    <radialGradient cx="0" cy="0" gradientTransform="matrix(0.0659, -0.1575, -0.1609, -0.0649, 17.35, -13.15)" gradientUnits="userSpaceOnUse" id="gradient0" r="819.2" spreadMethod="pad">
      <stop offset="0.396078431372549" stop-color="#ffffff" stop-opacity="0.99215686"/>
      <stop offset="1.0" stop-color="#4053bf"/>
    </radialGradient>
  </defs>
</svg>
