<?xml version="1.0" encoding="UTF-8" standalone="no"?>
<svg xmlns:xlink="http://www.w3.org/1999/xlink" height="172.95px" width="187.8px" xmlns="http://www.w3.org/2000/svg">
  <g transform="matrix(1.0, 0.0, 0.0, 1.0, 86.9, 69.55)">
    <path d="M-36.0 48.6 L-35.7 46.65 Q-34.3 38.85 -28.75 33.0 L-24.85 31.5 -23.7 33.1 Q-18.55 40.15 -10.1 42.0 L-16.25 45.8 -17.8 40.95 -20.6 41.9 -27.65 38.3 -29.95 41.0 Q-31.4 42.8 -31.95 45.05 -32.65 48.1 -31.7 51.15 -33.0 53.6 -33.2 56.3 -33.95 64.5 -26.9 68.6 -25.95 69.2 -24.95 68.85 -15.95 65.8 -9.1 58.75 L-11.5 51.85 -8.6 48.3 -5.8 53.7 Q-5.0 65.95 -16.0 71.25 -19.1 72.75 -22.35 72.3 -33.4 70.7 -36.25 59.85 L-36.0 48.6 M0.55 -29.8 L0.0 -28.5 Q-3.95 -18.25 1.5 -8.6 L0.25 -8.7 6.15 0.15 Q-6.9 -3.3 -19.25 2.0 L-20.9 2.75 Q-27.05 -3.35 -30.45 -11.15 -31.45 -13.45 -30.7 -15.8 -29.5 -19.5 -26.15 -22.05 -25.2 -22.8 -24.5 -23.9 -23.4 -25.6 -22.95 -27.45 L-24.15 -29.65 Q-16.55 -37.4 -5.75 -37.0 L-1.3 -36.3 -2.55 -36.0 Q-12.55 -33.35 -18.05 -24.55 -26.6 -18.0 -22.9 -7.9 -21.35 -3.7 -17.0 -2.75 -8.95 -0.85 -4.9 -7.95 -0.2 -16.25 -6.4 -23.55 L-3.05 -28.6 0.55 -29.8 M11.25 -4.8 Q0.3 -9.25 0.35 -21.1 0.35 -33.1 9.15 -40.65 11.7 -42.8 14.95 -43.7 28.5 -47.2 40.1 -39.35 50.0 -32.6 48.95 -20.55 48.65 -17.4 46.95 -14.75 L26.25 -10.35 26.25 -12.8 Q34.4 -13.1 38.95 -19.85 L39.55 -20.8 Q35.95 -33.55 22.9 -36.1 18.15 -37.1 14.45 -33.95 6.85 -27.6 9.25 -18.0 10.7 -12.35 16.45 -12.25 L11.25 -4.8 M30.0 -2.5 L13.95 1.8 Q23.55 -6.65 35.75 -10.35 47.85 -14.1 60.55 -12.65 L56.9 -14.65 Q62.25 -14.55 65.95 -10.8 69.25 -7.45 69.9 -2.95 70.55 1.5 68.15 5.4 69.1 11.4 67.25 17.3 65.8 21.8 62.1 24.65 59.2 26.8 55.6 27.55 54.7 30.3 53.05 32.6 51.05 35.25 48.15 36.75 44.0 38.85 39.7 37.1 L38.8 36.7 38.8 32.2 53.6 27.7 62.0 11.6 Q66.15 3.8 67.2 -5.0 L64.45 -7.2 Q60.55 -10.25 55.75 -10.3 41.95 -9.45 30.0 -2.5 M24.4 23.3 L27.05 24.35 Q36.3 35.6 31.85 49.4 28.3 60.45 17.45 63.55 7.8 66.25 2.1 58.35 0.95 56.75 0.6 54.85 -0.9 47.65 -3.6 40.7 L-4.45 40.35 Q4.4 36.15 11.95 30.0 15.65 27.05 20.0 25.15 L24.4 23.3 M-2.65 36.5 Q0.55 33.9 1.75 29.95 L2.0 29.1 Q4.8 27.75 4.7 24.4 L4.65 19.9 Q4.75 12.3 0.95 5.95 -0.05 4.3 -1.9 3.7 -11.3 0.8 -17.05 9.0 -25.15 20.55 -19.6 33.75 -12.5 38.8 -3.9 37.3 -10.85 41.55 -17.25 36.05 -25.85 28.75 -23.9 17.4 L-23.1 13.7 Q-26.8 22.1 -24.95 31.3 -32.3 33.35 -35.45 40.4 L-40.45 35.4 Q-37.9 19.5 -49.8 8.7 L-42.75 1.55 -42.6 -3.05 Q-38.85 -7.2 -33.5 -8.7 -23.6 -1.35 -22.2 11.0 -14.95 -0.1 -1.65 1.1 8.65 2.1 12.25 11.8 15.1 19.25 11.0 26.1 L11.0 27.35 -2.65 36.5 M16.05 31.85 L16.0 31.85 15.95 31.9 4.0 38.55 Q-0.5 46.5 3.35 54.7 7.25 63.05 16.3 60.7 20.85 59.5 23.65 55.85 30.85 46.55 25.55 36.35 22.35 30.15 16.05 31.85 M-36.15 -2.05 L-42.2 6.55 Q-39.05 15.6 -37.8 24.95 L-37.05 31.25 -33.95 31.85 Q-31.75 29.2 -30.4 26.1 -25.8 15.0 -30.6 4.15 -32.05 0.9 -34.3 -1.9 L-36.15 -2.05" fill="#666666" fill-rule="evenodd" stroke="none"/>
    <path d="M-34.05 -14.75 Q-30.2 -22.15 -23.95 -27.7 L-24.95 -28.55 Q-23.25 -31.9 -20.25 -34.2 -10.55 -41.8 1.05 -37.0 8.55 -44.55 19.0 -45.8 34.85 -47.8 45.15 -35.65 53.2 -26.3 48.45 -14.95 60.05 -18.1 68.1 -9.3 74.9 -1.9 69.65 6.65 L69.7 8.0 Q69.8 22.4 56.85 28.75 56.0 30.7 54.55 32.3 46.6 40.95 35.25 37.7 35.65 41.15 35.25 44.6 33.7 56.35 23.45 62.7 13.1 69.1 2.5 62.9 -1.0 58.35 -2.05 52.65 L-2.4 50.85 -3.35 52.0 -4.55 52.35 -5.75 64.2 Q-7.05 67.1 -9.45 69.35 -15.6 75.05 -23.95 73.2 -34.8 70.9 -36.25 59.85 -33.4 70.7 -22.35 72.3 -19.1 72.75 -16.0 71.25 -5.0 65.95 -5.8 53.7 -2.2 48.15 -5.25 42.2 L-5.95 41.0 -10.1 42.0 Q-18.55 40.15 -23.7 33.1 L-24.85 31.5 -28.75 33.0 Q-34.3 38.85 -35.7 46.65 L-36.0 48.6 -35.55 41.55 Q-42.3 37.2 -41.7 29.2 -40.8 16.95 -50.95 9.85 -49.25 3.85 -44.05 0.45 L-43.75 -1.45 Q-43.1 -5.05 -40.65 -7.8 L-33.75 -9.3 -34.05 -14.75 M0.55 -29.8 L0.35 -35.65 -1.3 -36.3 -5.75 -37.0 Q-16.55 -37.4 -24.15 -29.65 L-22.95 -27.45 Q-23.4 -25.6 -24.5 -23.9 -25.2 -22.8 -26.15 -22.05 -29.5 -19.5 -30.7 -15.8 -31.45 -13.45 -30.45 -11.15 -27.05 -3.35 -20.9 2.75 L-19.25 2.0 Q-6.9 -3.3 6.15 0.15 L11.15 5.2 13.55 -2.0 12.45 -2.2 Q5.85 -3.6 1.5 -8.6 -3.95 -18.25 0.0 -28.5 L0.55 -29.8 M26.25 -10.35 L46.95 -14.75 Q48.65 -17.4 48.95 -20.55 50.0 -32.6 40.1 -39.35 28.5 -47.2 14.95 -43.7 11.7 -42.8 9.15 -40.65 0.35 -33.1 0.35 -21.1 0.3 -9.25 11.25 -4.8 L15.0 -3.15 26.25 -10.35 M13.95 1.8 L12.25 7.0 Q17.5 15.5 14.0 24.8 L15.45 24.2 Q19.8 22.45 24.4 23.3 L20.0 25.15 Q15.65 27.05 11.95 30.0 4.4 36.15 -4.45 40.35 L-3.6 40.7 Q-0.9 47.65 0.6 54.85 0.95 56.75 2.1 58.35 7.8 66.25 17.45 63.55 28.3 60.45 31.85 49.4 36.3 35.6 27.05 24.35 L29.85 26.45 Q34.1 30.55 34.85 36.55 L38.8 36.7 39.7 37.1 Q44.0 38.85 48.15 36.75 51.05 35.25 53.05 32.6 54.7 30.3 55.6 27.55 59.2 26.8 62.1 24.65 65.8 21.8 67.25 17.3 69.1 11.4 68.15 5.4 70.55 1.5 69.9 -2.95 69.25 -7.45 65.95 -10.8 62.25 -14.55 56.9 -14.65 L60.55 -12.65 Q47.85 -14.1 35.75 -10.35 23.55 -6.65 13.95 1.8 M-3.9 37.3 L-2.65 36.5 11.0 27.35 11.0 26.1 Q15.1 19.25 12.25 11.8 8.65 2.1 -1.65 1.1 -14.95 -0.1 -22.2 11.0 -23.6 -1.35 -33.5 -8.7 -38.85 -7.2 -42.6 -3.05 L-42.75 1.55 -49.8 8.7 Q-37.9 19.5 -40.45 35.4 L-35.45 40.4 Q-32.3 33.35 -24.95 31.3 -26.8 22.1 -23.1 13.7 L-23.9 17.4 Q-25.85 28.75 -17.25 36.05 -10.85 41.55 -3.9 37.3" fill="#454545" fill-rule="evenodd" stroke="none"/>
    <path d="M-18.05 -24.55 Q-20.6 -21.75 -21.0 -18.0 -21.3 -15.1 -20.3 -12.25 L-16.85 -10.55 Q-11.55 -8.2 -5.85 -9.4 -9.1 -11.0 -10.8 -14.25 -11.95 -16.35 -12.5 -18.65 L-8.2 -19.2 -6.4 -23.55 Q-0.2 -16.25 -4.9 -7.95 -8.95 -0.85 -17.0 -2.75 -21.35 -3.7 -22.9 -7.9 -26.6 -18.0 -18.05 -24.55 M16.45 -12.25 Q10.7 -12.35 9.25 -18.0 6.85 -27.6 14.45 -33.95 18.15 -37.1 22.9 -36.1 35.95 -33.55 39.55 -20.8 L38.95 -19.85 Q34.4 -13.1 26.25 -12.8 L26.25 -16.0 23.2 -15.4 24.75 -30.8 16.45 -12.25 M51.95 -8.1 L30.0 -2.5 Q41.95 -9.45 55.75 -10.3 60.55 -10.25 64.45 -7.2 L67.2 -5.0 Q66.15 3.8 62.0 11.6 L53.6 27.7 38.8 32.2 41.95 23.85 44.4 23.25 38.35 20.1 38.65 17.2 54.05 24.6 37.35 6.75 42.6 5.4 Q44.45 -3.25 52.05 -7.75 L53.4 -8.5 51.95 -8.1 M51.85 -3.55 Q58.85 2.1 58.35 11.1 L58.3 12.25 Q67.05 4.35 62.9 -6.65 L51.85 -3.55 M-3.9 37.3 Q-12.5 38.8 -19.6 33.75 -25.15 20.55 -17.05 9.0 -11.3 0.8 -1.9 3.7 -0.05 4.3 0.95 5.95 4.75 12.3 4.65 19.9 L4.7 24.4 Q4.8 27.75 2.0 29.1 L1.75 29.95 Q0.55 33.9 -2.65 36.5 L-3.9 37.3 M15.95 31.9 L15.95 34.4 Q11.55 40.3 4.55 42.5 L4.55 43.75 Q9.55 50.85 11.05 59.45 L12.1 59.85 Q15.5 57.65 17.6 54.1 24.15 43.0 17.2 32.1 L16.05 31.85 Q22.35 30.15 25.55 36.35 30.85 46.55 23.65 55.85 20.85 59.5 16.3 60.7 7.25 63.05 3.35 54.7 -0.5 46.5 4.0 38.55 L15.95 31.9 M-36.15 -2.05 L-34.3 -1.9 Q-32.05 0.9 -30.6 4.15 -25.8 15.0 -30.4 26.1 -31.75 29.2 -33.95 31.85 L-37.05 31.25 -37.8 24.95 Q-39.05 15.6 -42.2 6.55 L-36.15 -2.05 M-14.45 7.0 Q-21.4 17.65 -14.55 28.2 L-14.2 28.75 Q-12.45 31.15 -9.85 32.75 L-13.75 28.35 -11.35 25.5 -5.2 26.1 -10.25 20.3 Q-5.9 16.45 -0.2 15.85 -1.35 10.3 -6.85 8.85 L-14.45 7.0 M-31.7 51.15 Q-29.35 55.0 -25.1 56.45 L-23.45 56.95 -23.45 53.15 Q-21.45 58.5 -16.0 60.45 L-11.5 51.85 -9.1 58.75 Q-15.95 65.8 -24.95 68.85 -25.95 69.2 -26.9 68.6 -33.95 64.5 -33.2 56.3 -33.0 53.6 -31.7 51.15" fill="#888888" fill-rule="evenodd" stroke="none"/>
    <path d="M-1.3 -36.3 L0.35 -35.65 0.55 -29.8 -3.05 -28.6 -6.4 -23.55 -8.2 -19.2 -12.5 -18.65 Q-11.95 -16.35 -10.8 -14.25 -9.1 -11.0 -5.85 -9.4 -11.55 -8.2 -16.85 -10.55 L-20.3 -12.25 Q-21.3 -15.1 -21.0 -18.0 -20.6 -21.75 -18.05 -24.55 -12.55 -33.35 -2.55 -36.0 L-1.3 -36.3" fill="url(#gradient0)" fill-rule="evenodd" stroke="none"/>
    <path d="M1.5 -8.6 Q5.85 -3.6 12.45 -2.2 L13.55 -2.0 11.15 5.2 6.15 0.15 0.25 -8.7 1.5 -8.6" fill="url(#gradient1)" fill-rule="evenodd" stroke="none"/>
    <path d="M26.25 -10.35 L15.0 -3.15 11.25 -4.8 16.45 -12.25 24.75 -30.8 23.2 -15.4 26.25 -16.0 26.25 -12.8 26.25 -10.35" fill="url(#gradient2)" fill-rule="evenodd" stroke="none"/>
    <path d="M52.05 -7.75 L51.95 -8.1 53.4 -8.5 52.05 -7.75" fill="url(#gradient3)" fill-rule="evenodd" stroke="none"/>
    <path d="M51.95 -8.1 L52.05 -7.75 Q44.45 -3.25 42.6 5.4 L37.35 6.75 54.05 24.6 38.65 17.2 38.35 20.1 44.4 23.25 41.95 23.85 38.8 32.2 38.8 36.7 34.85 36.55 Q34.1 30.55 29.85 26.45 L27.05 24.35 24.4 23.3 Q19.8 22.45 15.45 24.2 L14.0 24.8 Q17.5 15.5 12.25 7.0 L13.95 1.8 30.0 -2.5 51.95 -8.1" fill="url(#gradient4)" fill-rule="evenodd" stroke="none"/>
    <path d="M51.85 -3.55 L62.9 -6.65 Q67.05 4.35 58.3 12.25 L58.35 11.1 Q58.85 2.1 51.85 -3.55" fill="url(#gradient5)" fill-rule="evenodd" stroke="none"/>
    <path d="M15.95 31.9 L16.0 31.85 16.05 31.85 17.2 32.1 Q24.15 43.0 17.6 54.1 15.5 57.65 12.1 59.85 L11.05 59.45 Q9.55 50.85 4.55 43.75 L4.55 42.5 Q11.55 40.3 15.95 34.4 L15.95 31.9" fill="url(#gradient6)" fill-rule="evenodd" stroke="none"/>
    <path d="M53.75 70.55 Q49.2 70.9 45.95 67.0 40.35 60.25 40.25 51.2 L40.05 44.65 42.65 44.6 49.7 50.95 Q50.55 58.6 52.1 66.2 52.55 68.4 53.75 70.55" fill="url(#gradient7)" fill-rule="evenodd" stroke="none"/>
    <path d="M-34.05 -14.75 L-33.75 -9.3 -40.65 -7.8 -47.35 -11.0 -47.35 -12.0 -45.5 -11.75 Q-39.25 -11.35 -34.05 -14.75" fill="url(#gradient8)" fill-rule="evenodd" stroke="none"/>
    <path d="M-14.45 7.0 L-6.85 8.85 Q-1.35 10.3 -0.2 15.85 -5.9 16.45 -10.25 20.3 L-5.2 26.1 -11.35 25.5 -13.75 28.35 -9.85 32.75 Q-12.45 31.15 -14.2 28.75 L-14.55 28.2 Q-21.4 17.65 -14.45 7.0" fill="url(#gradient9)" fill-rule="evenodd" stroke="none"/>
    <path d="M-10.1 42.0 L-5.95 41.0 -5.25 42.2 Q-2.2 48.15 -5.8 53.7 L-8.6 48.3 -11.5 51.85 -16.0 60.45 Q-21.45 58.5 -23.45 53.15 L-23.45 56.95 -25.1 56.45 Q-29.35 55.0 -31.7 51.15 -32.65 48.1 -31.95 45.05 -31.4 42.8 -29.95 41.0 L-27.65 38.3 -20.6 41.9 -17.8 40.95 -16.25 45.8 -10.1 42.0" fill="url(#gradient10)" fill-rule="evenodd" stroke="none"/>
    <path d="M-5.75 64.2 L-4.55 52.35 -3.35 52.0 -2.4 50.85 -2.05 52.65 Q-1.0 58.35 2.5 62.9 L-0.05 71.15 -4.25 63.9 -5.75 64.2" fill="url(#gradient11)" fill-rule="evenodd" stroke="none"/>
    <path d="M-86.9 3.85 L-86.9 0.15 -83.15 0.15 -83.15 3.85 -86.9 3.85 M-24.7 94.05 L-20.6 94.05 -20.6 98.1 -24.7 98.1 -24.7 94.05 M-46.0 89.45 L-46.0 85.35 -41.95 85.35 -41.95 89.45 -46.0 89.45 M-81.0 62.4 L-81.0 66.5 -85.15 66.5 -85.15 62.4 -81.0 62.4 M-48.2 61.75 L-44.45 61.75 -44.45 65.45 -48.2 65.45 -48.2 61.75 M-59.65 35.7 L-63.85 35.7 -63.85 31.55 -59.65 31.55 -59.65 35.7 M-62.4 49.1 L-58.65 49.1 -58.65 52.85 -62.4 52.85 -62.4 49.1 M-37.2 22.95 L-37.2 27.05 -41.3 27.05 -41.3 22.95 -37.2 22.95 M-21.5 30.7 L-25.3 30.7 -25.3 27.0 -21.5 27.0 -21.5 30.7 M-14.4 0.15 L-14.4 3.85 -18.15 3.85 -18.15 0.15 -14.4 0.15 M-44.1 -0.8 L-39.9 -0.8 -39.9 3.35 -44.1 3.35 -44.1 -0.8 M-61.05 -17.8 L-65.5 -17.8 -65.5 -22.2 -61.05 -22.2 -61.05 -17.8 M-54.9 -37.6 Q-54.95 -38.7 -54.15 -39.45 -53.4 -40.25 -52.3 -40.25 -51.2 -40.25 -50.45 -39.45 -49.7 -38.7 -49.65 -37.6 -49.7 -36.5 -50.45 -35.75 -51.2 -34.95 -52.3 -34.95 -53.4 -34.95 -54.15 -35.75 -54.95 -36.5 -54.9 -37.6 M-17.4 -51.45 L-17.4 -55.15 -13.65 -55.15 -13.65 -51.45 -17.4 -51.45 M13.4 103.4 L13.4 99.65 17.2 99.65 17.2 103.4 13.4 103.4 M63.2 54.4 L63.2 50.7 66.95 50.7 66.95 54.4 63.2 54.4 M64.15 84.7 L64.15 80.55 68.3 80.55 68.3 84.7 64.15 84.7 M22.7 87.6 L18.95 87.6 18.95 83.85 22.7 83.85 22.7 87.6 M61.75 41.05 L65.9 41.05 65.9 45.15 61.75 45.15 61.75 41.05 M75.8 0.15 L79.6 0.15 79.6 3.85 75.8 3.85 75.8 0.15 M63.55 3.9 L63.55 8.1 59.4 8.1 59.4 3.9 63.55 3.9 M85.1 27.8 L85.1 31.5 81.35 31.5 81.35 27.8 85.1 27.8 M92.4 48.3 L96.2 48.3 96.2 52.05 92.4 52.05 92.4 48.3 M100.9 6.25 L97.15 6.25 97.15 2.5 100.9 2.5 100.9 6.25 M80.4 -16.7 L76.6 -16.7 76.6 -20.4 80.4 -20.4 80.4 -16.7 M57.65 -18.25 L57.65 -21.95 61.4 -21.95 61.4 -18.25 57.65 -18.25 M50.7 -43.45 L54.85 -43.45 54.85 -39.35 50.7 -39.35 50.7 -43.45 M77.4 -40.4 L77.4 -44.1 81.15 -44.1 81.15 -40.4 77.4 -40.4 M39.5 -22.2 L39.5 -25.9 43.2 -25.9 43.2 -22.2 39.5 -22.2 M29.95 -18.9 L29.95 -14.85 25.85 -14.85 25.85 -18.9 29.95 -18.9 M17.75 -38.75 L17.75 -34.55 13.6 -34.55 13.6 -38.75 17.75 -38.75 M23.05 -65.4 L23.05 -69.55 27.2 -69.55 27.2 -65.4 23.05 -65.4" fill="#ffffff" fill-rule="evenodd" stroke="none"/>
  </g>
  <defs>
    <radialGradient cx="0" cy="0" gradientTransform="matrix(0.0379, 0.0, 0.0, 0.0379, -17.45, -10.2)" gradientUnits="userSpaceOnUse" id="gradient0" r="819.2" spreadMethod="pad">
      <stop offset="0.396078431372549" stop-color="#ffffff" stop-opacity="0.99215686"/>
      <stop offset="1.0" stop-color="#4053bf"/>
    </radialGradient>
    <radialGradient cx="0" cy="0" gradientTransform="matrix(0.022, 0.0, 0.0, 0.022, 13.6, 3.45)" gradientUnits="userSpaceOnUse" id="gradient1" r="819.2" spreadMethod="pad">
      <stop offset="0.396078431372549" stop-color="#ffffff" stop-opacity="0.99215686"/>
      <stop offset="1.0" stop-color="#4053bf"/>
    </radialGradient>
    <radialGradient cx="0" cy="0" gradientTransform="matrix(0.0303, 0.0, 0.0, 0.0303, 13.55, -8.85)" gradientUnits="userSpaceOnUse" id="gradient2" r="819.2" spreadMethod="pad">
      <stop offset="0.396078431372549" stop-color="#ffffff" stop-opacity="0.99215686"/>
      <stop offset="1.0" stop-color="#4053bf"/>
    </radialGradient>
    <radialGradient cx="0" cy="0" gradientTransform="matrix(0.0468, 0.0, 0.0, 0.0468, 19.45, 9.3)" gradientUnits="userSpaceOnUse" id="gradient3" r="819.2" spreadMethod="pad">
      <stop offset="0.30196078431372547" stop-color="#ffffff"/>
      <stop offset="0.4549019607843137" stop-color="#fffbf0"/>
      <stop offset="0.7372549019607844" stop-color="#ffc533"/>
      <stop offset="0.8784313725490196" stop-color="#fd8c3e"/>
      <stop offset="0.9882352941176471" stop-color="#bf6d2f"/>
    </radialGradient>
    <radialGradient cx="0" cy="0" gradientTransform="matrix(0.0468, 0.0, 0.0, 0.0468, 19.45, 9.3)" gradientUnits="userSpaceOnUse" id="gradient4" r="819.2" spreadMethod="pad">
      <stop offset="0.396078431372549" stop-color="#ffffff" stop-opacity="0.99215686"/>
      <stop offset="1.0" stop-color="#4053bf"/>
    </radialGradient>
    <radialGradient cx="0" cy="0" gradientTransform="matrix(0.018, 0.0, 0.0, 0.018, 53.75, -1.3)" gradientUnits="userSpaceOnUse" id="gradient5" r="819.2" spreadMethod="pad">
      <stop offset="0.396078431372549" stop-color="#ffffff" stop-opacity="0.99215686"/>
      <stop offset="1.0" stop-color="#4053bf"/>
    </radialGradient>
    <radialGradient cx="0" cy="0" gradientTransform="matrix(0.0244, 0.0, 0.0, 0.0244, 13.2, 39.85)" gradientUnits="userSpaceOnUse" id="gradient6" r="819.2" spreadMethod="pad">
      <stop offset="0.396078431372549" stop-color="#ffffff" stop-opacity="0.99215686"/>
      <stop offset="1.0" stop-color="#4053bf"/>
    </radialGradient>
    <radialGradient cx="0" cy="0" gradientTransform="matrix(0.0212, 0.0, 0.0, 0.0212, 48.05, 60.05)" gradientUnits="userSpaceOnUse" id="gradient7" r="819.2" spreadMethod="pad">
      <stop offset="0.396078431372549" stop-color="#ffffff" stop-opacity="0.99215686"/>
      <stop offset="1.0" stop-color="#4053bf"/>
    </radialGradient>
    <radialGradient cx="0" cy="0" gradientTransform="matrix(0.0122, 0.0, 0.0, 0.0122, -40.7, -7.8)" gradientUnits="userSpaceOnUse" id="gradient8" r="819.2" spreadMethod="pad">
      <stop offset="0.396078431372549" stop-color="#ffffff" stop-opacity="0.99215686"/>
      <stop offset="1.0" stop-color="#4053bf"/>
    </radialGradient>
    <radialGradient cx="0" cy="0" gradientTransform="matrix(0.0291, 0.0, 0.0, 0.0291, -4.8, 9.5)" gradientUnits="userSpaceOnUse" id="gradient9" r="819.2" spreadMethod="pad">
      <stop offset="0.396078431372549" stop-color="#ffffff" stop-opacity="0.99215686"/>
      <stop offset="1.0" stop-color="#4053bf"/>
    </radialGradient>
    <radialGradient cx="0" cy="0" gradientTransform="matrix(0.0224, 0.0, 0.0, 0.0224, -17.5, 46.2)" gradientUnits="userSpaceOnUse" id="gradient10" r="819.2" spreadMethod="pad">
      <stop offset="0.396078431372549" stop-color="#ffffff" stop-opacity="0.99215686"/>
      <stop offset="1.0" stop-color="#4053bf"/>
    </radialGradient>
    <radialGradient cx="0" cy="0" gradientTransform="matrix(0.0167, 0.0, 0.0, 0.0167, -2.15, 57.6)" gradientUnits="userSpaceOnUse" id="gradient11" r="819.2" spreadMethod="pad">
      <stop offset="0.396078431372549" stop-color="#ffffff" stop-opacity="0.99215686"/>
      <stop offset="1.0" stop-color="#4053bf"/>
    </radialGradient>
  </defs>
</svg>
