<?xml version="1.0" encoding="UTF-8" standalone="no"?>
<svg xmlns:xlink="http://www.w3.org/1999/xlink" height="204.9px" width="194.2px" xmlns="http://www.w3.org/2000/svg">
  <g transform="matrix(1.0, 0.0, 0.0, 1.0, 80.5, 100.5)">
    <path d="M25.45 -34.3 L31.95 -32.75 33.95 -28.15 31.95 -27.4 Q27.0 -25.35 22.85 -21.9 17.35 -17.35 13.85 -11.15 L6.15 -24.45 Q13.9 -29.15 22.0 -33.3 23.5 -34.15 25.3 -34.3 L14.45 -26.05 14.95 -23.55 16.1 -22.85 18.45 -23.5 Q25.3 -26.0 28.0 -32.8 L25.45 -34.3 M-4.0 -28.75 L-3.05 -28.45 -1.8 -27.85 Q3.05 -25.65 5.95 -21.15 3.3 -22.0 0.6 -22.15 -14.45 -23.7 -22.95 -11.05 L-21.35 -13.5 Q-14.75 -23.5 -4.0 -28.75 M16.6 -13.7 Q22.95 -21.7 32.35 -25.75 L35.05 -26.85 Q38.1 -25.1 40.2 -22.15 41.4 -20.4 42.1 -18.35 L42.9 -17.75 53.05 -18.85 Q57.85 -11.85 55.4 -3.4 54.85 -1.65 54.8 0.2 54.55 11.3 49.9 20.95 49.15 22.5 47.65 23.35 46.0 24.2 44.15 24.5 44.2 27.65 42.6 30.5 41.7 32.0 40.4 33.15 39.4 33.95 38.15 33.85 L33.45 24.1 Q37.5 34.75 33.5 45.5 29.8 55.4 19.8 58.9 11.1 61.85 3.3 57.0 -5.0 51.9 -5.05 42.2 -5.1 39.2 -4.2 36.4 -7.8 42.65 -6.45 49.7 -5.85 52.9 -4.25 55.7 -16.7 61.65 -27.45 52.75 -35.75 45.85 -38.0 35.2 L-31.55 25.55 -26.0 24.4 -22.55 28.95 -20.5 29.05 Q-29.4 19.75 -29.45 6.95 L-29.4 3.55 -27.15 11.0 Q-26.8 15.95 -23.25 19.45 -17.75 24.8 -10.15 23.1 1.1 20.6 1.6 9.2 L3.15 7.3 9.55 20.9 Q6.8 23.95 3.65 26.5 -2.55 31.3 -9.95 33.8 L-1.6 31.6 0.05 40.15 Q-0.25 41.7 -0.15 43.2 0.05 47.25 3.4 49.7 12.1 56.0 21.45 50.7 30.1 45.9 29.75 36.05 29.4 26.05 22.85 18.55 L14.1 20.1 13.35 15.5 Q21.0 9.75 29.0 14.85 L30.05 15.55 Q27.25 9.85 20.8 9.5 L21.75 -1.05 25.15 5.8 Q31.55 7.65 36.35 12.3 38.9 14.8 41.95 16.3 47.2 2.95 49.5 -11.4 47.9 -12.35 45.95 -12.65 42.3 -13.3 38.65 -12.5 L31.95 -18.4 27.75 -17.35 26.45 -15.7 16.6 -13.7 M-32.0 19.5 Q-31.45 19.5 -31.05 18.4 -30.65 17.3 -30.65 15.75 -30.65 14.2 -31.05 13.1 -31.45 11.95 -32.0 12.0 -32.55 11.95 -32.9 13.1 -33.3 14.2 -33.3 15.75 -33.3 17.3 -32.9 18.4 -32.55 19.5 -32.0 19.5 M-31.8 24.45 L-32.35 23.2 Q-36.55 12.85 -30.65 3.2 -31.25 13.65 -26.8 23.0 L-31.8 24.45 M-29.8 32.15 L-31.25 37.8 Q-25.1 49.8 -11.7 50.9 L-11.2 50.15 Q-7.05 43.25 -13.35 38.2 L-28.3 31.3 -29.8 32.15 M-10.25 33.75 L-19.9 29.8 -18.8 30.6 Q-15.0 33.5 -10.25 33.75" fill="#666666" fill-rule="evenodd" stroke="none"/>
    <path d="M25.3 -34.3 Q23.5 -34.15 22.0 -33.3 13.9 -29.15 6.15 -24.45 L13.85 -11.15 Q17.35 -17.35 22.85 -21.9 27.0 -25.35 31.95 -27.4 L33.95 -28.15 31.95 -32.75 25.45 -34.3 25.3 -34.3 M-3.05 -28.45 L4.8 -25.8 24.25 -36.35 25.5 -36.15 26.7 -35.9 Q33.05 -34.0 35.25 -27.9 L36.45 -27.4 37.5 -26.8 Q42.0 -24.15 43.35 -19.2 L54.3 -20.1 54.65 -19.75 Q55.45 -18.9 55.7 -17.8 58.75 -3.05 55.9 12.05 55.1 16.4 52.8 20.2 50.45 23.95 46.6 26.3 L46.5 27.05 46.3 27.75 Q44.95 33.15 39.6 35.0 L36.3 35.45 36.6 36.8 Q37.25 40.0 36.8 43.25 34.75 56.8 21.65 61.15 10.65 64.8 0.65 59.05 L-3.75 56.0 -4.5 56.5 Q-7.15 58.15 -10.1 58.55 -20.05 60.2 -27.9 53.75 -37.0 46.25 -39.25 34.65 L-32.6 25.25 -33.3 23.65 Q-35.05 19.7 -34.75 15.35 -34.1 6.9 -30.9 -0.95 -24.8 -16.0 -11.3 -24.85 -7.85 -27.2 -4.0 -28.75 -14.75 -23.5 -21.35 -13.5 L-22.95 -11.05 -29.4 3.55 -29.45 6.95 Q-29.4 19.75 -20.5 29.05 L-22.55 28.95 -26.0 24.4 -31.55 25.55 -38.0 35.2 Q-35.75 45.85 -27.45 52.75 -16.7 61.65 -4.25 55.7 -5.85 52.9 -6.45 49.7 -7.8 42.65 -4.2 36.4 -5.1 39.2 -5.05 42.2 -5.0 51.9 3.3 57.0 11.1 61.85 19.8 58.9 29.8 55.4 33.5 45.5 37.5 34.75 33.45 24.1 L38.15 33.85 Q39.4 33.95 40.4 33.15 41.7 32.0 42.6 30.5 44.2 27.65 44.15 24.5 46.0 24.2 47.65 23.35 49.15 22.5 49.9 20.95 54.55 11.3 54.8 0.2 54.85 -1.65 55.4 -3.4 57.85 -11.85 53.05 -18.85 L42.9 -17.75 42.1 -18.35 Q41.4 -20.4 40.2 -22.15 38.1 -25.1 35.05 -26.85 L32.35 -25.75 Q22.95 -21.7 16.6 -13.7 L11.3 8.05 12.05 1.1 Q13.3 -11.2 5.95 -21.15 3.05 -25.65 -1.8 -27.85 L-3.05 -28.45 M20.8 9.5 Q27.25 9.85 30.05 15.55 L29.0 14.85 Q21.0 9.75 13.35 15.5 10.1 26.5 -0.3 31.0 L-1.6 31.6 -9.95 33.8 Q-2.55 31.3 3.65 26.5 6.8 23.95 9.55 20.9 12.45 16.5 11.8 11.2 L11.6 9.75 12.9 13.05 20.8 9.5 M-31.8 24.45 L-26.8 23.0 Q-31.25 13.65 -30.65 3.2 -36.55 12.85 -32.35 23.2 L-31.8 24.45 M-10.25 33.75 Q-15.0 33.5 -18.8 30.6 L-19.9 29.8 -10.25 33.75" fill="#454545" fill-rule="evenodd" stroke="none"/>
    <path d="M25.45 -34.3 L28.0 -32.8 Q25.3 -26.0 18.45 -23.5 L16.1 -22.85 14.95 -23.55 14.45 -26.05 25.3 -34.3 25.45 -34.3 M21.75 -1.05 Q23.95 -3.9 26.85 -5.85 33.65 -10.55 42.0 -9.15 L40.25 -10.45 Q34.0 -14.9 26.45 -15.7 L27.75 -17.35 31.95 -18.4 38.65 -12.5 Q42.3 -13.3 45.95 -12.65 47.9 -12.35 49.5 -11.4 47.2 2.95 41.95 16.3 38.9 14.8 36.35 12.3 31.55 7.65 25.15 5.8 L21.75 -1.05 M14.1 20.1 L22.85 18.55 Q29.4 26.05 29.75 36.05 30.1 45.9 21.45 50.7 12.1 56.0 3.4 49.7 0.05 47.25 -0.15 43.2 -0.25 41.7 0.05 40.15 4.05 46.75 11.65 45.2 L12.5 45.05 Q8.5 34.1 14.75 24.35 L14.1 20.1 M1.6 9.2 Q1.1 20.6 -10.15 23.1 -17.75 24.8 -23.25 19.45 -26.8 15.95 -27.15 11.0 -22.45 17.1 -14.8 17.95 L-13.1 18.05 -15.45 14.65 Q-11.15 18.0 -5.7 17.0 L-3.2 16.5 1.6 9.2 M-32.0 19.5 Q-32.55 19.5 -32.9 18.4 -33.3 17.3 -33.3 15.75 -33.3 14.2 -32.9 13.1 -32.55 11.95 -32.0 12.0 -31.45 11.95 -31.05 13.1 -30.65 14.2 -30.65 15.75 -30.65 17.3 -31.05 18.4 -31.45 19.5 -32.0 19.5 M-29.8 32.15 L-28.3 31.3 -13.35 38.2 Q-7.05 43.25 -11.2 50.15 L-11.7 50.9 Q-25.1 49.8 -31.25 37.8 L-29.8 32.15" fill="#888888" fill-rule="evenodd" stroke="none"/>
    <path d="M5.95 -21.15 Q13.3 -11.2 12.05 1.1 L11.3 8.05 16.6 -13.7 26.45 -15.7 Q34.0 -14.9 40.25 -10.45 L42.0 -9.15 Q33.65 -10.55 26.85 -5.85 23.95 -3.9 21.75 -1.05 L20.8 9.5 12.9 13.05 11.6 9.75 11.8 11.2 Q12.45 16.5 9.55 20.9 L3.15 7.3 1.6 9.2 -3.2 16.5 -5.7 17.0 Q-11.15 18.0 -15.45 14.65 L-13.1 18.05 -14.8 17.95 Q-22.45 17.1 -27.15 11.0 L-29.4 3.55 -22.95 -11.05 Q-14.45 -23.7 0.6 -22.15 3.3 -22.0 5.95 -21.15" fill="url(#gradient0)" fill-rule="evenodd" stroke="none"/>
    <path d="M13.35 15.5 L14.1 20.1 14.75 24.35 Q8.5 34.1 12.5 45.05 L11.65 45.2 Q4.05 46.75 0.05 40.15 L-1.6 31.6 -0.3 31.0 Q10.1 26.5 13.35 15.5" fill="url(#gradient1)" fill-rule="evenodd" stroke="none"/>
    <path d="M51.65 60.45 L50.15 67.8 55.0 72.9 Q52.5 72.1 50.75 70.1 46.1 64.7 43.45 58.0 L46.15 57.95 Q47.9 58.15 49.4 59.05 L51.65 60.45" fill="url(#gradient2)" fill-rule="evenodd" stroke="none"/>
    <path d="M-26.3 51.6 L-23.7 51.6 -23.7 54.95 -26.3 54.95 -26.3 51.6 M-12.7 91.65 L-12.7 94.95 -15.25 94.95 -15.25 91.65 -12.7 91.65 M-55.3 66.45 L-55.3 68.95 -57.9 68.95 -57.9 66.45 -55.3 66.45 M-80.5 49.05 L-77.95 49.05 -77.95 51.6 -80.5 51.6 -80.5 49.05 M-74.2 3.2 L-71.6 3.2 -71.6 6.55 -74.2 6.55 -74.2 3.2 M-43.15 15.5 L-43.15 12.15 -40.55 12.15 -40.55 15.5 -43.15 15.5 M-18.3 33.4 L-15.3 33.4 -15.3 36.45 -18.3 36.45 -18.3 33.4 M-38.4 28.45 L-38.4 25.9 -35.8 25.9 -35.8 28.45 -38.4 28.45 M-13.55 -41.45 L-13.55 -44.25 -10.7 -44.25 -10.7 -41.45 -13.55 -41.45 M-40.45 -9.25 L-37.4 -9.25 -37.4 -6.2 -40.45 -6.2 -40.45 -9.25 M-59.0 -25.25 L-59.0 -21.9 -61.55 -21.9 -61.55 -25.25 -59.0 -25.25 M-70.55 -40.65 Q-71.3 -40.7 -71.75 -41.2 -72.25 -41.7 -72.25 -42.4 -72.25 -43.15 -71.75 -43.65 -71.3 -44.15 -70.55 -44.15 -69.85 -44.15 -69.35 -43.65 -68.85 -43.15 -68.85 -42.4 -68.85 -41.7 -69.35 -41.2 -69.85 -40.7 -70.55 -40.65 M-65.25 -62.15 L-65.25 -64.7 -62.65 -64.7 -62.65 -62.15 -65.25 -62.15 M-31.75 -57.4 L-31.75 -54.55 -34.6 -54.55 -34.6 -57.4 -31.75 -57.4 M-8.4 -86.35 L-8.4 -88.9 -5.8 -88.9 -5.8 -86.35 -8.4 -86.35 M-29.45 -100.5 L-26.85 -100.5 -26.85 -97.95 -29.45 -97.95 -29.45 -100.5 M27.0 104.4 L27.0 101.6 29.85 101.6 29.85 104.4 27.0 104.4 M65.1 88.95 L65.1 91.75 62.25 91.75 62.25 88.95 65.1 88.95 M14.4 56.4 Q14.9 56.9 14.9 57.65 14.9 58.35 14.4 58.85 13.9 59.35 13.2 59.4 12.45 59.35 11.95 58.85 11.45 58.35 11.45 57.65 11.45 56.9 11.95 56.4 12.45 55.9 13.2 55.9 13.9 55.9 14.4 56.4 M33.05 66.0 L30.2 66.0 30.2 63.2 33.05 63.2 33.05 66.0 M24.25 27.9 L24.25 25.35 26.85 25.35 26.85 27.9 24.25 27.9 M32.2 41.55 L32.2 39.05 34.75 39.05 34.75 41.55 32.2 41.55 M14.95 36.9 Q15.45 37.4 15.45 38.15 15.45 38.85 14.95 39.4 14.4 39.9 13.7 39.9 13.0 39.9 12.5 39.4 11.95 38.85 11.95 38.15 11.95 37.4 12.5 36.9 13.0 36.4 13.7 36.4 14.4 36.4 14.95 36.9 M32.1 8.15 L29.5 8.15 29.5 4.75 32.1 4.75 32.1 8.15 M67.05 46.85 L69.9 46.85 69.9 49.65 67.05 49.65 67.05 46.85 M103.75 65.8 L103.75 63.3 106.35 63.3 106.35 65.8 103.75 65.8 M90.6 77.9 L90.6 75.4 93.2 75.4 93.2 77.9 90.6 77.9 M111.15 33.7 L111.15 31.15 113.7 31.15 113.7 33.7 111.15 33.7 M83.25 31.05 L83.25 28.55 85.85 28.55 85.85 31.05 83.25 31.05 M113.7 -1.05 L111.15 -1.05 111.15 -3.6 113.7 -3.6 113.7 -1.05 M90.55 -5.05 L87.95 -5.05 87.95 -8.4 90.55 -8.4 90.55 -5.05 M98.6 -14.6 L98.6 -17.4 101.45 -17.4 101.45 -14.6 98.6 -14.6 M84.05 -35.65 L81.25 -35.65 81.25 -38.45 84.05 -38.45 84.05 -35.65 M61.45 -45.3 L61.45 -42.5 58.6 -42.5 58.6 -45.3 61.45 -45.3 M64.85 -25.7 L67.4 -25.7 67.4 -23.2 64.85 -23.2 64.85 -25.7 M26.9 -27.2 L26.9 -30.55 29.5 -30.55 29.5 -27.2 26.9 -27.2 M39.55 0.0 L39.55 -2.55 42.15 -2.55 42.15 0.0 39.55 0.0 M21.65 -50.55 L21.65 -53.1 24.2 -53.1 24.2 -50.55 21.65 -50.55 M47.4 -74.65 L47.4 -78.45 50.0 -78.45 50.0 -74.65 47.4 -74.65" fill="#ffffff" fill-rule="evenodd" stroke="none"/>
  </g>
  <defs>
    <radialGradient cx="0" cy="0" gradientTransform="matrix(0.0479, 0.0, 0.0, 0.0479, 7.5, 9.6)" gradientUnits="userSpaceOnUse" id="gradient0" r="819.2" spreadMethod="pad">
      <stop offset="0.396078431372549" stop-color="#ffffff" stop-opacity="0.99215686"/>
      <stop offset="1.0" stop-color="#4053bf"/>
    </radialGradient>
    <radialGradient cx="0" cy="0" gradientTransform="matrix(0.0252, 0.0, 0.0, 0.0252, 13.35, 27.65)" gradientUnits="userSpaceOnUse" id="gradient1" r="819.2" spreadMethod="pad">
      <stop offset="0.396078431372549" stop-color="#ffffff" stop-opacity="0.99215686"/>
      <stop offset="1.0" stop-color="#4053bf"/>
    </radialGradient>
    <radialGradient cx="0" cy="0" gradientTransform="matrix(0.0224, 0.0, 0.0, 0.0224, 44.0, 58.25)" gradientUnits="userSpaceOnUse" id="gradient2" r="819.2" spreadMethod="pad">
      <stop offset="0.396078431372549" stop-color="#ffffff" stop-opacity="0.99215686"/>
      <stop offset="1.0" stop-color="#4053bf"/>
    </radialGradient>
  </defs>
</svg>
