<?xml version="1.0" encoding="UTF-8" standalone="no"?>
<svg xmlns:xlink="http://www.w3.org/1999/xlink" height="133.3px" width="132.65px" xmlns="http://www.w3.org/2000/svg">
  <g transform="matrix(1.0, 0.0, 0.0, 1.0, 64.2, 58.9)">
    <path d="M17.75 -22.9 L18.3 -21.35 Q22.15 -29.6 31.2 -29.75 37.5 -29.85 40.6 -24.6 42.8 -20.8 46.7 -18.35 50.1 -16.25 51.95 -12.6 56.75 -2.9 52.3 7.1 50.75 10.55 48.15 13.35 49.85 0.05 38.35 -6.7 36.4 -7.8 34.4 -8.4 28.7 -0.95 33.1 6.85 L34.0 8.45 Q37.85 15.65 38.4 23.85 L38.5 26.2 35.8 25.2 Q40.6 32.2 38.95 40.55 36.8 51.2 26.9 55.4 23.4 56.85 19.65 56.55 14.25 60.7 7.75 58.9 -1.5 56.45 -2.65 46.95 -4.65 30.85 8.0 20.85 11.4 18.15 15.65 18.0 L20.85 18.4 20.85 17.0 16.8 14.45 Q11.6 7.95 3.35 6.8 L2.25 6.7 Q10.35 0.2 10.3 -10.15 L10.25 -11.5 Q14.55 -7.45 16.15 -1.8 L16.5 -0.4 15.0 2.45 Q21.2 0.15 22.0 -6.95 22.85 -14.3 18.55 -20.35 21.2 -11.3 17.8 -2.55 19.15 -15.95 10.15 -25.75 L8.95 -27.0 Q6.6 -39.65 -5.95 -42.35 -8.55 -42.85 -10.95 -41.85 -22.15 -37.35 -26.25 -25.9 -30.8 -13.2 -27.45 -0.1 -25.85 6.25 -21.55 11.1 -19.05 13.85 -15.35 14.1 -15.65 20.6 -12.85 26.5 L-12.15 27.95 -3.1 30.8 Q-17.7 32.55 -27.55 21.6 -30.8 17.95 -32.3 13.4 -36.25 1.65 -33.7 -10.5 -36.35 -24.75 -29.05 -37.05 -27.35 -39.9 -24.75 -42.1 -16.1 -49.4 -4.75 -48.55 L-4.15 -48.55 Q3.75 -48.35 8.6 -41.75 L11.45 -37.6 Q15.7 -31.2 17.45 -23.7 L17.75 -22.9 M28.7 -27.7 L27.45 -27.95 Q24.35 -25.65 22.6 -22.15 L22.0 -21.0 21.5 -19.7 22.8 -17.95 Q29.9 -17.7 36.65 -15.45 39.25 -14.6 41.7 -13.15 44.7 -11.3 48.2 -11.35 L48.25 -15.1 36.65 -20.5 34.15 -26.5 30.6 -28.8 28.7 -27.7 M5.9 36.05 Q4.85 42.55 9.2 47.5 13.45 52.3 19.9 51.1 30.35 49.1 32.55 38.85 34.95 27.35 24.8 22.2 22.5 21.1 20.0 21.6 7.85 23.9 5.9 36.05 M-38.7 19.2 Q-36.95 17.15 -34.55 15.95 -27.55 28.55 -13.35 31.3 -19.25 43.4 -11.25 54.2 L-10.2 55.6 Q-26.2 52.15 -35.95 39.25 -41.35 32.0 -40.5 23.3 -40.3 20.95 -38.7 19.2 M-8.3 34.95 L-9.05 34.0 -10.8 36.75 Q-13.15 41.05 -10.85 45.45 L-8.2 41.45 Q-6.0 38.15 -8.3 34.95 M-30.4 25.2 Q-30.35 25.55 -30.45 25.6 L-30.75 25.45 -31.3 25.1 Q-35.55 22.35 -38.5 26.85 -34.55 36.9 -23.7 37.85 -22.8 29.25 -30.4 25.2 M-15.55 39.3 L-12.05 31.5 -3.4 31.7 -6.05 49.95 -3.1 55.35 -6.75 53.85 -7.85 53.25 Q-14.95 49.0 -15.45 40.7 L-15.55 39.3" fill="#666666" fill-rule="evenodd" stroke="none"/>
    <path d="M17.75 -22.9 Q22.0 -33.05 33.0 -33.0 34.4 -33.0 35.45 -32.1 L40.55 -27.65 Q44.75 -23.6 49.1 -19.7 56.55 -13.05 56.3 -3.0 55.9 10.75 44.0 17.35 47.05 12.4 46.35 6.5 45.0 -3.9 35.25 -6.5 L34.35 -5.35 Q30.8 0.25 33.1 6.85 28.7 -0.95 34.4 -8.4 36.4 -7.8 38.35 -6.7 49.85 0.05 48.15 13.35 50.75 10.55 52.3 7.1 56.75 -2.9 51.95 -12.6 50.1 -16.25 46.7 -18.35 42.8 -20.8 40.6 -24.6 37.5 -29.85 31.2 -29.75 22.15 -29.6 18.3 -21.35 L17.75 -22.9 M34.0 8.45 Q40.15 17.0 41.6 27.35 42.45 33.6 41.25 39.75 38.9 51.25 28.55 57.35 19.35 62.75 8.95 61.25 2.75 60.35 -2.5 56.7 -9.55 57.7 -16.25 55.25 -25.4 51.95 -33.05 45.85 -40.5 39.8 -42.9 30.45 -44.8 23.05 -41.85 16.05 L-35.2 14.3 -35.7 11.15 Q-37.3 0.15 -33.7 -10.5 L-34.7 -13.9 Q-38.2 -28.05 -28.95 -39.45 -19.6 -50.95 -4.75 -48.55 -16.1 -49.4 -24.75 -42.1 -27.35 -39.9 -29.05 -37.05 -36.35 -24.75 -33.7 -10.5 -36.25 1.65 -32.3 13.4 -30.8 17.95 -27.55 21.6 -17.7 32.55 -3.1 30.8 -3.1 24.05 2.7 19.25 8.55 14.45 16.8 14.45 L20.85 17.0 20.85 18.4 15.65 18.0 Q11.4 18.15 8.0 20.85 -4.65 30.85 -2.65 46.95 -1.5 56.45 7.75 58.9 14.25 60.7 19.65 56.55 23.4 56.85 26.9 55.4 36.8 51.2 38.95 40.55 40.6 32.2 35.8 25.2 L38.5 26.2 38.4 23.85 Q37.85 15.65 34.0 8.45 M-4.15 -48.55 L0.75 -49.0 Q3.45 -48.8 5.5 -46.95 15.85 -37.75 17.45 -23.7 15.7 -31.2 11.45 -37.6 L8.6 -41.75 Q3.75 -48.35 -4.15 -48.55 M17.8 -2.55 Q21.2 -11.3 18.55 -20.35 22.85 -14.3 22.0 -6.95 21.2 0.15 15.0 2.45 L16.5 -0.4 17.8 -2.55 M-38.7 19.2 Q-40.3 20.95 -40.5 23.3 -41.35 32.0 -35.95 39.25 -26.2 52.15 -10.2 55.6 L-11.25 54.2 Q-19.25 43.4 -13.35 31.3 -27.55 28.55 -34.55 15.95 -36.95 17.15 -38.7 19.2 M-15.55 39.3 L-15.45 40.7 Q-14.95 49.0 -7.85 53.25 L-6.75 53.85 -3.1 55.35 -6.05 49.95 -3.4 31.7 -12.05 31.5 -15.55 39.3" fill="#454545" fill-rule="evenodd" stroke="none"/>
    <path d="M28.7 -27.7 L30.6 -28.8 34.15 -26.5 36.65 -20.5 48.25 -15.1 48.2 -11.35 Q44.7 -11.3 41.7 -13.15 39.25 -14.6 36.65 -15.45 29.9 -17.7 22.8 -17.95 L21.5 -19.7 22.0 -21.0 22.6 -22.15 Q24.35 -25.65 27.45 -27.95 L28.7 -27.7 M10.25 -11.5 L10.3 -10.15 Q10.35 0.2 2.25 6.7 -7.95 5.25 -14.5 13.1 L-15.35 14.1 Q-19.05 13.85 -21.55 11.1 -25.85 6.25 -27.45 -0.1 -30.8 -13.2 -26.25 -25.9 -22.15 -37.35 -10.95 -41.85 -8.55 -42.85 -5.95 -42.35 6.6 -39.65 8.95 -27.0 4.8 -30.65 -0.45 -32.25 L-2.0 -32.7 Q-13.2 -25.05 -15.0 -11.8 -15.8 -5.9 -13.2 -0.5 L-8.95 -15.3 -4.65 -5.8 -3.3 -5.55 -3.7 -11.45 Q0.95 -14.6 6.35 -13.25 8.4 -12.75 10.25 -11.5 M5.9 36.05 Q7.85 23.9 20.0 21.6 22.5 21.1 24.8 22.2 34.95 27.35 32.55 38.85 30.35 49.1 19.9 51.1 13.45 52.3 9.2 47.5 4.85 42.55 5.9 36.05 M-30.4 25.2 Q-22.8 29.25 -23.7 37.85 -34.55 36.9 -38.5 26.85 -35.55 22.35 -31.3 25.1 L-30.75 25.45 -30.45 25.6 Q-30.35 25.55 -30.4 25.2 M-8.3 34.95 Q-6.0 38.15 -8.2 41.45 L-10.85 45.45 Q-13.15 41.05 -10.8 36.75 L-9.05 34.0 -8.3 34.95" fill="#888888" fill-rule="evenodd" stroke="none"/>
    <path d="M8.95 -27.0 L10.15 -25.75 Q19.15 -15.95 17.8 -2.55 L16.5 -0.4 16.15 -1.8 Q14.55 -7.45 10.25 -11.5 8.4 -12.75 6.35 -13.25 0.95 -14.6 -3.7 -11.45 L-3.3 -5.55 -4.65 -5.8 -8.95 -15.3 -13.2 -0.5 Q-15.8 -5.9 -15.0 -11.8 -13.2 -25.05 -2.0 -32.7 L-0.45 -32.25 Q4.8 -30.65 8.95 -27.0" fill="url(#gradient0)" fill-rule="evenodd" stroke="none"/>
    <path d="M2.25 6.7 L3.35 6.8 Q11.6 7.95 16.8 14.45 8.55 14.45 2.7 19.25 -3.1 24.05 -3.1 30.8 L-12.15 27.95 -12.85 26.5 Q-15.65 20.6 -15.35 14.1 L-14.5 13.1 Q-7.95 5.25 2.25 6.7" fill="url(#gradient1)" fill-rule="evenodd" stroke="none"/>
    <path d="M-47.9 23.35 L-47.9 20.0 -45.3 20.0 -45.3 23.35 -47.9 23.35 M-64.2 34.25 L-61.6 34.25 -61.6 37.6 -64.2 37.6 -64.2 34.25 M-9.4 48.0 L-6.85 48.0 -6.85 50.55 -9.4 50.55 -9.4 48.0 M-22.1 38.95 L-24.7 38.95 -24.7 36.4 -22.1 36.4 -22.1 38.95 M-34.75 30.65 L-34.75 33.15 -37.35 33.15 -37.35 30.65 -34.75 30.65 M-37.2 13.15 L-34.4 13.15 -34.4 15.95 -37.2 15.95 -37.2 13.15 M-20.0 -4.35 Q-19.45 -4.9 -18.65 -4.85 -17.9 -4.9 -17.35 -4.35 -16.8 -3.8 -16.8 -3.0 -16.8 -2.25 -17.35 -1.7 -17.9 -1.2 -18.65 -1.2 -19.45 -1.2 -20.0 -1.7 -20.55 -2.25 -20.5 -3.0 -20.55 -3.8 -20.0 -4.35 M-8.25 -22.1 L-5.4 -22.1 -5.4 -19.3 -8.25 -19.3 -8.25 -22.1 M-24.7 -24.65 L-22.1 -24.65 -22.1 -22.1 -24.7 -22.1 -24.7 -24.65 M-31.05 -29.95 Q-30.35 -29.95 -29.8 -29.4 -29.3 -28.9 -29.3 -28.15 -29.3 -27.45 -29.8 -26.95 -30.35 -26.45 -31.05 -26.4 -31.8 -26.45 -32.3 -26.95 -32.85 -27.45 -32.8 -28.15 -32.85 -28.9 -32.3 -29.4 -31.8 -29.95 -31.05 -29.95 M-60.95 -4.2 L-58.05 -4.2 -58.05 -1.4 -60.95 -1.4 -60.95 -4.2 M-47.05 -54.85 Q-46.45 -54.3 -46.45 -53.45 -46.45 -52.65 -47.05 -52.05 -47.65 -51.5 -48.45 -51.5 -49.3 -51.5 -49.85 -52.05 -50.45 -52.65 -50.45 -53.45 -50.45 -54.3 -49.85 -54.85 -49.3 -55.45 -48.45 -55.45 -47.65 -55.45 -47.05 -54.85 M-23.65 -56.35 L-23.65 -58.9 -21.05 -58.9 -21.05 -56.35 -23.65 -56.35 M-12.05 -51.6 L-9.5 -51.6 -9.5 -48.25 -12.05 -48.25 -12.05 -51.6 M68.45 56.55 L68.45 59.6 65.4 59.6 65.4 56.55 68.45 56.55 M32.3 74.4 L32.3 71.6 35.15 71.6 35.15 74.4 32.3 74.4 M5.95 22.1 L8.8 22.1 8.8 24.9 5.95 24.9 5.95 22.1 M15.1 10.0 L15.1 12.8 12.25 12.8 12.25 10.0 15.1 10.0 M29.5 12.75 L29.5 15.25 26.9 15.25 26.9 12.75 29.5 12.75 M43.85 -32.5 L43.85 -35.3 46.7 -35.3 46.7 -32.5 43.85 -32.5 M53.75 -24.55 L53.75 -27.9 56.3 -27.9 56.3 -24.55 53.75 -24.55 M28.5 -26.35 L28.5 -28.85 31.05 -28.85 31.05 -26.35 28.5 -26.35" fill="#ffffff" fill-rule="evenodd" stroke="none"/>
  </g>
  <defs>
    <radialGradient cx="0" cy="0" gradientTransform="matrix(0.0461, 0.0, 0.0, 0.0461, 1.5, 5.85)" gradientUnits="userSpaceOnUse" id="gradient0" r="819.2" spreadMethod="pad">
      <stop offset="0.396078431372549" stop-color="#ffffff" stop-opacity="0.99215686"/>
      <stop offset="1.0" stop-color="#4053bf"/>
    </radialGradient>
    <radialGradient cx="0" cy="0" gradientTransform="matrix(0.0368, 0.0, 0.0, 0.0368, 3.4, -4.5)" gradientUnits="userSpaceOnUse" id="gradient1" r="819.2" spreadMethod="pad">
      <stop offset="0.396078431372549" stop-color="#ffffff" stop-opacity="0.99215686"/>
      <stop offset="1.0" stop-color="#4053bf"/>
    </radialGradient>
  </defs>
</svg>
