<?xml version="1.0" encoding="UTF-8" standalone="no"?>
<svg xmlns:xlink="http://www.w3.org/1999/xlink" height="164.4px" width="156.3px" xmlns="http://www.w3.org/2000/svg">
  <g transform="matrix(1.0, 0.0, 0.0, 1.0, 71.55, 69.55)">
    <path d="M7.2 -48.3 L7.95 -48.15 9.15 -47.9 10.35 -47.65 Q21.25 -45.25 31.6 -39.2 L29.6 -42.0 32.1 -47.35 37.35 -47.65 Q53.0 -28.4 51.2 -3.6 L48.55 -7.5 46.85 -7.55 Q49.95 -2.1 51.45 4.05 54.45 16.55 50.65 29.0 49.3 33.3 47.45 37.5 42.95 47.7 32.25 49.7 30.6 55.85 25.0 58.9 15.35 64.05 8.15 56.0 L3.7 59.6 Q-0.1 58.55 -3.7 56.8 -18.95 49.05 -23.9 32.55 L-23.15 33.3 Q-19.45 36.55 -14.4 36.95 -12.25 43.9 -6.95 48.9 L-2.75 52.6 Q0.6 55.35 3.65 52.75 L-0.5 49.6 -4.7 37.1 -1.2 40.5 0.35 40.45 -2.05 35.6 -0.8 35.25 Q-0.3 34.85 -0.3 34.3 3.95 46.55 16.25 50.2 24.75 52.7 30.5 46.0 L31.95 43.45 Q37.9 23.75 36.95 3.05 38.35 0.85 39.25 -1.5 42.0 -9.2 38.55 -16.5 32.7 -28.85 20.6 -35.0 7.9 -41.45 -6.25 -39.9 -20.1 -38.65 -30.5 -29.55 -41.5 -19.9 -42.3 -5.4 -43.1 8.4 -33.6 18.4 L-32.2 23.2 Q-45.8 18.45 -49.4 4.4 -54.3 -14.75 -42.65 -30.95 -36.35 -39.7 -26.85 -44.85 -21.85 -47.65 -16.3 -48.45 -4.2 -50.3 7.2 -48.3 M-25.5 31.15 Q-25.5 33.7 -24.9 36.25 -23.85 41.15 -21.2 45.45 -36.6 46.55 -45.2 33.7 -50.7 25.35 -48.5 15.6 L-45.1 18.0 Q-38.75 22.8 -31.45 24.65 L-25.5 31.15 M-38.95 37.2 Q-33.95 40.9 -29.0 37.6 L-29.7 30.45 Q-31.3 28.85 -33.4 27.95 -38.35 25.85 -42.75 28.85 L-43.0 32.35 Q-41.55 35.2 -38.95 37.2" fill="#666666" fill-rule="evenodd" stroke="none"/>
    <path d="M10.35 -47.65 L27.95 -44.2 30.2 -49.1 Q39.85 -49.25 45.15 -41.2 L46.0 -39.7 Q55.5 -18.1 54.65 5.8 54.25 15.0 52.8 24.15 51.2 34.1 46.75 43.15 44.85 46.95 41.25 48.9 37.85 50.7 34.1 50.9 31.75 59.35 23.5 62.65 L22.8 62.85 Q13.75 65.55 8.35 58.0 L5.0 60.9 Q-8.7 59.65 -17.45 49.25 L-18.45 47.9 -19.5 46.5 Q-35.25 48.05 -45.2 35.8 L-46.0 34.65 Q-52.15 25.45 -49.0 14.85 -56.25 -2.0 -49.5 -19.6 L-47.0 -25.7 -46.2 -27.2 Q-40.15 -38.45 -29.5 -45.5 -17.9 -53.1 -4.25 -50.5 L7.2 -48.3 Q-4.2 -50.3 -16.3 -48.45 -21.85 -47.65 -26.85 -44.85 -36.35 -39.7 -42.65 -30.95 -54.3 -14.75 -49.4 4.4 -45.8 18.45 -32.2 23.2 L-31.45 24.65 Q-38.75 22.8 -45.1 18.0 L-48.5 15.6 Q-50.7 25.35 -45.2 33.7 -36.6 46.55 -21.2 45.45 -23.85 41.15 -24.9 36.25 -25.5 33.7 -25.5 31.15 -19.3 35.55 -11.65 36.3 L-9.8 36.35 -14.4 36.95 Q-19.45 36.55 -23.15 33.3 L-23.9 32.55 Q-18.95 49.05 -3.7 56.8 -0.1 58.55 3.7 59.6 L8.15 56.0 Q15.35 64.05 25.0 58.9 30.6 55.85 32.25 49.7 42.95 47.7 47.45 37.5 49.3 33.3 50.65 29.0 54.45 16.55 51.45 4.05 49.95 -2.1 46.85 -7.55 L48.55 -7.5 51.2 -3.6 Q53.0 -28.4 37.35 -47.65 L32.1 -47.35 29.6 -42.0 31.6 -39.2 Q21.25 -45.25 10.35 -47.65 M-2.05 35.6 L0.35 40.45 -1.2 40.5 -4.7 37.1 -4.55 35.95 -2.05 35.6" fill="#454545" fill-rule="evenodd" stroke="none"/>
    <path d="M-14.4 36.95 L-9.8 36.35 -4.55 35.95 -4.7 37.1 -0.5 49.6 3.65 52.75 Q0.6 55.35 -2.75 52.6 L-6.95 48.9 Q-12.25 43.9 -14.4 36.95 M-0.3 34.3 Q-12.7 32.1 -16.55 19.95 -20.45 7.9 -10.8 -0.5 -9.6 -1.55 -8.0 -2.1 1.0 -5.7 10.35 -3.0 L10.25 -4.25 6.0 -7.9 10.65 -9.9 10.5 -11.95 1.85 -14.3 Q7.45 -17.6 13.9 -17.9 20.15 -13.15 17.95 -5.75 L16.75 -1.15 16.6 -0.35 Q18.3 0.05 19.6 -1.2 22.45 -3.95 25.95 -5.9 L23.25 2.4 24.8 2.65 Q32.15 -4.4 26.75 -13.1 21.85 -20.95 12.6 -20.55 4.65 -20.2 -0.85 -14.6 -19.25 -13.4 -29.15 2.2 -32.85 7.95 -33.4 14.85 L-33.6 18.4 Q-43.1 8.4 -42.3 -5.4 -41.5 -19.9 -30.5 -29.55 -20.1 -38.65 -6.25 -39.9 7.9 -41.45 20.6 -35.0 32.7 -28.85 38.55 -16.5 42.0 -9.2 39.25 -1.5 38.35 0.85 36.95 3.05 37.9 23.75 31.95 43.45 L30.5 46.0 Q24.75 52.7 16.25 50.2 3.95 46.55 -0.3 34.3 M-38.95 37.2 Q-41.55 35.2 -43.0 32.35 L-42.75 28.85 Q-38.35 25.85 -33.4 27.95 -31.3 28.85 -29.7 30.45 L-29.0 37.6 Q-33.95 40.9 -38.95 37.2" fill="#888888" fill-rule="evenodd" stroke="none"/>
    <path d="M-9.8 36.35 L-11.65 36.3 Q-19.3 35.55 -25.5 31.15 L-31.45 24.65 -32.2 23.2 -33.6 18.4 -33.4 14.85 Q-32.85 7.95 -29.15 2.2 -19.25 -13.4 -0.85 -14.6 4.65 -20.2 12.6 -20.55 21.85 -20.95 26.75 -13.1 32.15 -4.4 24.8 2.65 L23.25 2.4 25.95 -5.9 Q22.45 -3.95 19.6 -1.2 18.3 0.05 16.6 -0.35 L16.75 -1.15 17.95 -5.75 Q20.15 -13.15 13.9 -17.9 7.45 -17.6 1.85 -14.3 L10.5 -11.95 10.65 -9.9 6.0 -7.9 10.25 -4.25 10.35 -3.0 Q1.0 -5.7 -8.0 -2.1 -9.6 -1.55 -10.8 -0.5 -20.45 7.9 -16.55 19.95 -12.7 32.1 -0.3 34.3 -0.3 34.85 -0.8 35.25 L-2.05 35.6 -4.55 35.95 -9.8 36.35" fill="url(#gradient0)" fill-rule="evenodd" stroke="none"/>
    <path d="M-30.5 76.35 L-30.5 73.8 -27.9 73.8 -27.9 76.35 -30.5 76.35 M-71.55 62.65 L-71.55 60.15 -69.0 60.15 -69.0 62.65 -71.55 62.65 M-48.9 27.9 L-48.9 25.35 -46.35 25.35 -46.35 27.9 -48.9 27.9 M-39.4 -15.5 L-39.4 -18.5 -36.45 -18.5 -36.45 -15.5 -39.4 -15.5 M-19.5 -33.15 L-19.5 -29.75 -22.1 -29.75 -22.1 -33.15 -19.5 -33.15 M-50.55 -50.45 L-50.55 -53.1 -46.95 -53.1 -46.95 -50.45 -50.55 -50.45 M21.2 54.4 L21.2 51.6 24.05 51.6 24.05 54.4 21.2 54.4 M5.9 94.85 L5.9 91.8 8.95 91.8 8.95 94.85 5.9 94.85 M15.95 15.95 L15.95 13.15 18.8 13.15 18.8 15.95 15.95 15.95 M1.1 23.15 L1.1 20.6 3.7 20.6 3.7 23.15 1.1 23.15 M71.15 29.5 L73.75 29.5 73.75 32.85 71.15 32.85 71.15 29.5 M82.2 -2.65 L82.2 -5.2 84.75 -5.2 84.75 -2.65 82.2 -2.65 M22.0 -66.6 L19.05 -66.6 19.05 -69.55 22.0 -69.55 22.0 -66.6" fill="#ffffff" fill-rule="evenodd" stroke="none"/>
  </g>
  <defs>
    <radialGradient cx="0" cy="0" gradientTransform="matrix(0.0442, 0.0, 0.0, 0.0442, -0.8, 1.95)" gradientUnits="userSpaceOnUse" id="gradient0" r="819.2" spreadMethod="pad">
      <stop offset="0.396078431372549" stop-color="#ffffff" stop-opacity="0.99215686"/>
      <stop offset="1.0" stop-color="#4053bf"/>
    </radialGradient>
  </defs>
</svg>
