<?xml version="1.0" encoding="UTF-8" standalone="no"?>
<svg xmlns:xlink="http://www.w3.org/1999/xlink" height="172.7px" width="167.3px" xmlns="http://www.w3.org/2000/svg">
  <g transform="matrix(1.0, 0.0, 0.0, 1.0, 84.1, 81.6)">
    <path d="M8.55 -55.0 L4.4 -59.25 Q-5.6 -60.95 -15.55 -59.2 -36.95 -55.45 -49.95 -38.35 -55.5 -31.1 -57.45 -22.05 -58.95 -15.1 -56.95 -8.25 -54.15 1.5 -44.9 4.65 L-40.1 -0.4 Q-39.85 -6.8 -37.85 -12.85 -35.5 -20.1 -30.55 -25.95 -21.75 -36.45 -9.15 -42.05 -6.25 -43.35 -3.2 -44.3 5.3 -46.8 8.55 -55.0 M36.4 -56.35 Q38.85 -55.25 40.9 -53.3 44.3 -50.1 44.5 -45.35 44.8 -37.35 45.55 -29.25 46.65 -17.55 46.9 -5.85 47.0 -0.8 45.05 3.95 43.2 2.2 42.15 -0.05 40.3 -3.85 40.75 -8.05 39.3 -8.75 37.7 -8.9 34.0 -9.25 30.95 -7.1 L30.7 -3.65 32.05 -3.55 32.3 -5.4 35.05 -7.55 39.85 -6.35 Q39.75 3.55 44.3 12.4 L45.7 12.45 Q47.5 8.05 48.5 3.35 50.85 -8.0 48.15 -19.15 53.15 -14.75 56.75 -9.2 63.1 0.55 63.9 12.2 64.15 16.2 63.2 20.1 61.25 28.25 53.95 32.4 L51.8 45.2 50.2 46.75 48.6 48.2 45.95 50.05 Q41.55 52.45 36.6 52.95 L35.95 56.0 35.6 56.95 34.45 59.75 Q32.2 63.8 28.55 66.6 9.3 66.25 -9.2 60.95 -12.45 60.05 -15.45 58.65 -25.8 53.85 -29.05 42.8 -24.65 45.5 -19.65 46.4 -13.2 47.7 -6.85 45.8 -2.4 44.4 1.15 41.35 6.4 36.8 7.2 30.0 6.3 33.1 4.55 35.75 1.4 40.4 -3.75 42.75 -10.2 45.6 -17.2 44.4 -22.15 43.6 -26.25 40.9 -33.85 35.8 -35.35 26.75 L-35.4 27.8 -35.45 28.8 -35.0 32.7 Q-34.0 37.55 -30.7 41.35 -35.75 41.8 -40.65 40.6 -47.0 38.95 -52.0 34.65 -55.9 31.3 -58.1 26.7 -62.1 18.35 -59.6 9.55 L-58.35 9.1 -51.65 14.7 -54.45 11.8 Q-61.25 4.6 -63.0 -5.15 -65.45 -18.7 -60.4 -31.6 -56.15 -42.5 -47.65 -50.5 -40.15 -57.5 -30.5 -60.95 -20.45 -64.5 -9.8 -64.8 6.95 -65.25 22.65 -59.2 L11.75 -50.2 18.4 -53.55 Q25.7 -57.1 33.65 -57.25 L36.4 -56.35 M-2.2 -28.05 Q-5.15 -24.9 -9.35 -23.9 L-12.35 -22.85 Q-26.0 -17.0 -31.9 -3.3 -34.0 1.55 -34.5 6.8 L-34.7 10.1 Q-34.7 22.6 -25.85 31.2 -18.35 38.4 -8.45 35.95 -6.45 35.45 -4.85 34.25 4.85 26.6 16.9 25.7 L20.65 20.95 Q29.7 7.25 27.8 -9.2 L37.2 -24.25 41.4 -13.2 42.8 -12.15 Q44.6 -18.6 44.15 -25.15 43.35 -36.6 34.25 -42.95 32.9 -43.85 31.45 -44.2 17.4 -47.35 7.15 -36.85 L1.6 -38.55 Q-2.4 -36.05 -6.35 -33.5 -12.1 -31.95 -17.35 -29.2 -22.5 -26.5 -27.15 -22.8 -33.15 -18.2 -33.5 -10.85 L-30.35 -15.65 Q-22.2 -27.25 -8.8 -31.65 L-10.3 -30.7 -2.2 -28.05 M45.15 20.65 L32.6 19.3 19.55 41.2 17.7 43.75 Q12.65 49.9 4.9 52.1 -4.35 54.6 -13.45 51.8 L-15.85 54.45 -12.7 56.35 -9.5 58.0 Q-1.35 61.85 7.65 62.35 21.15 63.1 31.35 54.25 36.5 49.8 42.15 45.85 46.0 43.05 49.05 39.35 57.35 29.15 58.45 16.05 L58.55 14.5 56.55 11.9 45.15 20.65 M-40.35 30.2 Q-47.8 26.2 -51.55 18.8 L-52.6 19.05 -54.75 21.7 Q-52.0 30.25 -43.85 33.9 L-41.7 34.75 -39.55 32.6 -40.35 30.2" fill="#666666" fill-rule="evenodd" stroke="none"/>
    <path d="M36.4 -56.35 L46.4 -52.25 Q45.8 -43.25 46.85 -34.2 47.6 -27.35 50.45 -21.3 51.5 -18.95 54.15 -18.45 57.85 -13.6 60.55 -8.0 68.25 8.25 63.0 25.25 61.25 31.0 55.95 33.9 56.0 37.0 55.05 40.0 51.0 52.35 38.05 54.05 37.75 57.25 36.25 60.2 32.9 66.55 25.95 67.15 16.15 68.15 6.55 65.8 3.2 64.95 -0.25 64.8 L-8.95 63.4 Q-22.95 60.65 -28.35 47.75 -29.5 44.9 -29.95 42.05 L-38.25 42.4 Q-54.25 39.4 -59.9 23.95 -63.05 15.45 -60.4 6.7 -62.45 3.5 -63.6 -0.1 -68.5 -14.8 -63.3 -29.55 -55.4 -51.85 -33.95 -61.8 -19.05 -68.65 -2.7 -67.0 10.1 -65.55 22.35 -61.1 L33.65 -57.25 Q25.7 -57.1 18.4 -53.55 L11.75 -50.2 22.65 -59.2 Q6.95 -65.25 -9.8 -64.8 -20.45 -64.5 -30.5 -60.95 -40.15 -57.5 -47.65 -50.5 -56.15 -42.5 -60.4 -31.6 -65.45 -18.7 -63.0 -5.15 -61.25 4.6 -54.45 11.8 L-51.65 14.7 -58.35 9.1 -59.6 9.55 Q-62.1 18.35 -58.1 26.7 -55.9 31.3 -52.0 34.65 -47.0 38.95 -40.65 40.6 -35.75 41.8 -30.7 41.35 -34.0 37.55 -35.0 32.7 L-35.45 28.8 -35.4 27.8 -35.35 26.75 Q-33.85 35.8 -26.25 40.9 -22.15 43.6 -17.2 44.4 -10.2 45.6 -3.75 42.75 1.4 40.4 4.55 35.75 6.3 33.1 7.2 30.0 6.4 36.8 1.15 41.35 -2.4 44.4 -6.85 45.8 -13.2 47.7 -19.65 46.4 -24.65 45.5 -29.05 42.8 -25.8 53.85 -15.45 58.65 -12.45 60.05 -9.2 60.95 9.3 66.25 28.55 66.6 32.2 63.8 34.45 59.75 L35.6 56.95 35.95 56.0 36.6 52.95 Q41.55 52.45 45.95 50.05 L48.6 48.2 50.2 46.75 51.8 45.2 53.95 32.4 Q61.25 28.25 63.2 20.1 64.15 16.2 63.9 12.2 63.1 0.55 56.75 -9.2 53.15 -14.75 48.15 -19.15 50.85 -8.0 48.5 3.35 47.5 8.05 45.7 12.45 L44.3 12.4 Q39.75 3.55 39.85 -6.35 L35.05 -7.55 32.3 -5.4 32.05 -3.55 30.7 -3.65 30.95 -7.1 Q34.0 -9.25 37.7 -8.9 39.3 -8.75 40.75 -8.05 40.3 -3.85 42.15 -0.05 43.2 2.2 45.05 3.95 47.0 -0.8 46.9 -5.85 46.65 -17.55 45.55 -29.25 44.8 -37.35 44.5 -45.35 44.3 -50.1 40.9 -53.3 38.85 -55.25 36.4 -56.35 M-8.8 -31.65 Q-22.2 -27.25 -30.35 -15.65 L-33.5 -10.85 Q-33.15 -18.2 -27.15 -22.8 -22.5 -26.5 -17.35 -29.2 -12.1 -31.95 -6.35 -33.5 L-8.8 -31.65" fill="#454545" fill-rule="evenodd" stroke="none"/>
    <path d="M8.55 -55.0 Q5.3 -46.8 -3.2 -44.3 -6.25 -43.35 -9.15 -42.05 -21.75 -36.45 -30.55 -25.95 -35.5 -20.1 -37.85 -12.85 -39.85 -6.8 -40.1 -0.4 L-44.9 4.65 Q-54.15 1.5 -56.95 -8.25 -58.95 -15.1 -57.45 -22.05 -55.5 -31.1 -49.95 -38.35 -36.95 -55.45 -15.55 -59.2 -5.6 -60.95 4.4 -59.25 L8.55 -55.0 M7.15 -36.85 Q17.4 -47.35 31.45 -44.2 32.9 -43.85 34.25 -42.95 43.35 -36.6 44.15 -25.15 44.6 -18.6 42.8 -12.15 L41.4 -13.2 37.2 -24.25 27.8 -9.2 Q29.7 7.25 20.65 20.95 L16.9 25.7 Q4.85 26.6 -4.85 34.25 -6.45 35.45 -8.45 35.95 -18.35 38.4 -25.85 31.2 -34.7 22.6 -34.7 10.1 L-34.5 6.8 Q-34.0 1.55 -31.9 -3.3 -26.0 -17.0 -12.35 -22.85 L-9.35 -23.9 Q-5.15 -24.9 -2.2 -28.05 11.2 -23.2 17.15 -10.15 19.3 -5.5 19.8 -0.35 25.1 -14.7 16.7 -27.6 12.95 -33.35 7.15 -36.85 M45.15 20.65 L56.55 11.9 58.55 14.5 58.45 16.05 Q57.35 29.15 49.05 39.35 46.0 43.05 42.15 45.85 36.5 49.8 31.35 54.25 21.15 63.1 7.65 62.35 -1.35 61.85 -9.5 58.0 L-12.7 56.35 -15.85 54.45 -13.45 51.8 Q-4.35 54.6 4.9 52.1 12.65 49.9 17.7 43.75 L19.55 41.2 32.6 19.3 45.15 20.65 M6.9 22.8 L3.05 22.75 Q-14.85 20.7 -23.55 4.85 L-19.05 -8.25 Q-26.75 -7.75 -29.25 -0.55 -30.1 1.9 -29.75 4.45 -27.9 19.3 -14.15 25.2 -2.9 29.95 6.9 22.8 M-40.35 30.2 L-39.55 32.6 -41.7 34.75 -43.85 33.9 Q-52.0 30.25 -54.75 21.7 L-52.6 19.05 -51.55 18.8 Q-47.8 26.2 -40.35 30.2" fill="#888888" fill-rule="evenodd" stroke="none"/>
    <path d="M7.15 -36.85 Q12.95 -33.35 16.7 -27.6 25.1 -14.7 19.8 -0.35 19.3 -5.5 17.15 -10.15 11.2 -23.2 -2.2 -28.05 L-10.3 -30.7 -8.8 -31.65 -6.35 -33.5 Q-2.4 -36.05 1.6 -38.55 L7.15 -36.85" fill="url(#gradient0)" fill-rule="evenodd" stroke="none"/>
    <path d="M6.9 22.8 Q-2.9 29.95 -14.15 25.2 -27.9 19.3 -29.75 4.45 -30.1 1.9 -29.25 -0.55 -26.75 -7.75 -19.05 -8.25 L-23.55 4.85 Q-14.85 20.7 3.05 22.75 L6.9 22.8" fill="url(#gradient1)" fill-rule="evenodd" stroke="none"/>
    <path d="M-13.65 91.1 L-13.65 88.55 -11.05 88.55 -11.05 91.1 -13.65 91.1 M-70.0 54.25 L-67.4 54.25 -67.4 57.6 -70.0 57.6 -70.0 54.25 M-23.7 -9.4 L-23.7 -6.85 -26.3 -6.85 -26.3 -9.4 -23.7 -9.4 M-37.9 -56.35 L-37.9 -53.0 -40.5 -53.0 -40.5 -56.35 -37.9 -56.35 M-81.25 -81.6 L-81.25 -78.8 -84.1 -78.8 -84.1 -81.6 -81.25 -81.6 M27.95 52.65 L27.95 50.1 30.55 50.1 30.55 52.65 27.95 52.65 M19.35 15.25 L19.35 18.05 16.5 18.05 16.5 15.25 19.35 15.25 M83.2 4.3 L83.2 6.8 80.6 6.8 80.6 4.3 83.2 4.3 M11.15 -38.15 L11.15 -41.15 14.15 -41.15 14.15 -38.15 11.15 -38.15 M55.35 -75.85 L55.35 -78.4 57.95 -78.4 57.95 -75.85 55.35 -75.85" fill="#ffffff" fill-rule="evenodd" stroke="none"/>
  </g>
  <defs>
    <radialGradient cx="0" cy="0" gradientTransform="matrix(0.0344, 0.0, 0.0, 0.0344, 14.65, -17.65)" gradientUnits="userSpaceOnUse" id="gradient0" r="819.2" spreadMethod="pad">
      <stop offset="0.396078431372549" stop-color="#ffffff" stop-opacity="0.99215686"/>
      <stop offset="1.0" stop-color="#4053bf"/>
    </radialGradient>
    <radialGradient cx="0" cy="0" gradientTransform="matrix(0.0349, 0.0, 0.0, 0.0349, -11.0, 15.65)" gradientUnits="userSpaceOnUse" id="gradient1" r="819.2" spreadMethod="pad">
      <stop offset="0.396078431372549" stop-color="#ffffff" stop-opacity="0.99215686"/>
      <stop offset="1.0" stop-color="#4053bf"/>
    </radialGradient>
  </defs>
</svg>
