<?xml version="1.0" encoding="UTF-8" standalone="no"?>
<svg xmlns:xlink="http://www.w3.org/1999/xlink" height="191.65px" width="168.5px" xmlns="http://www.w3.org/2000/svg">
  <g transform="matrix(1.0, 0.0, 0.0, 1.0, 96.85, 102.15)">
    <path d="M11.3 -49.9 L10.95 -49.25 Q-3.7 -44.55 -16.6 -35.95 -22.05 -32.3 -27.05 -27.95 -37.2 -18.8 -44.15 -7.0 -50.7 4.0 -55.1 16.1 -59.9 29.05 -56.05 42.2 -55.55 44.1 -54.05 45.5 L-52.05 47.25 Q-49.55 45.9 -47.65 43.85 -45.1 41.0 -43.6 37.55 -41.8 33.2 -42.2 28.4 L-29.95 20.9 Q-29.35 25.45 -26.95 29.4 -24.9 32.8 -21.7 35.2 -15.35 39.85 -7.6 38.1 15.95 32.45 30.65 12.9 35.1 7.0 37.6 0.1 40.4 -7.55 37.5 -15.05 36.9 -16.6 36.6 -18.25 L37.65 -19.3 41.65 -19.3 43.8 -16.9 44.85 -18.5 44.85 -19.55 45.65 -20.65 Q45.55 -29.05 42.2 -36.7 40.05 -41.55 36.5 -45.55 30.75 -52.05 22.15 -52.65 16.3 -52.8 11.3 -49.9 M-61.7 24.35 Q-60.65 11.95 -55.35 0.7 L-56.2 0.35 -60.7 7.15 Q-64.25 2.45 -66.9 -2.85 -71.55 -12.3 -72.35 -22.75 -72.85 -29.7 -71.45 -36.5 -70.0 -43.3 -66.15 -49.1 -58.45 -60.8 -45.45 -66.45 -27.9 -74.25 -8.7 -72.4 5.9 -70.85 19.05 -64.3 16.35 -63.2 13.85 -61.75 5.5 -56.95 -0.35 -49.25 L2.25 -49.25 Q7.15 -54.4 13.5 -57.7 24.6 -63.6 37.1 -61.85 L39.25 -57.8 39.45 -57.35 Q47.85 -40.5 49.4 -21.85 L49.7 -26.65 Q61.4 -23.0 66.8 -11.7 72.95 1.25 68.9 15.1 L64.75 28.25 Q60.4 40.75 54.7 52.7 53.75 54.65 52.15 56.15 45.6 62.0 36.75 59.5 30.6 69.85 18.75 72.65 12.8 73.95 6.8 73.4 -1.8 73.35 -9.15 69.05 -21.55 61.8 -23.35 47.8 L-23.3 47.7 Q-17.95 46.9 -13.05 49.2 -11.8 49.75 -10.35 49.95 1.9 51.75 7.5 40.55 L6.75 39.95 Q2.0 45.75 -5.15 47.4 -17.1 50.05 -27.2 43.35 -36.05 37.5 -34.0 27.3 L-34.3 28.45 Q-37.0 37.7 -30.95 45.15 L-42.55 49.35 Q-43.4 51.8 -44.9 53.85 -47.1 56.6 -50.4 57.8 L-51.35 57.05 Q-58.5 51.2 -60.55 42.2 L-61.7 24.35 M37.5 -16.9 L43.35 -9.7 42.5 -8.65 42.05 -1.3 43.25 -1.6 44.7 -10.0 38.95 -17.4 37.5 -16.9 M47.55 -9.25 Q48.0 -8.95 48.5 -8.6 L49.05 -16.7 47.55 -9.25 M60.8 -8.9 Q59.4 -11.9 57.4 -14.5 L46.85 11.15 Q42.8 20.65 36.65 29.15 28.65 40.1 16.8 46.8 5.3 53.15 -7.8 54.65 L-13.2 55.0 -12.65 59.8 Q-10.35 61.0 -7.75 61.9 2.6 65.4 13.3 63.05 29.1 59.65 42.95 51.15 49.45 47.2 53.65 40.65 59.6 31.3 61.7 20.3 63.6 10.1 62.95 -0.35 62.7 -4.85 60.8 -8.9 M-5.1 -66.1 Q-16.75 -69.9 -28.65 -66.65 -53.25 -60.05 -63.4 -36.75 -65.05 -33.0 -66.05 -29.05 -67.85 -21.8 -66.7 -14.35 -66.05 -10.0 -64.4 -5.85 -58.65 -4.85 -55.35 -9.75 L-40.15 -32.95 Q-33.4 -43.45 -22.55 -49.7 -13.75 -54.8 -4.15 -58.65 L-0.4 -64.05 -5.1 -66.1" fill="#666666" fill-rule="evenodd" stroke="none"/>
    <path d="M-61.7 24.35 L-61.5 9.25 Q-66.1 3.0 -69.05 -4.2 -74.0 -16.45 -73.65 -29.55 -73.3 -42.25 -66.25 -52.7 -58.7 -64.05 -45.8 -69.1 -33.65 -73.9 -20.6 -74.05 -6.15 -74.25 7.85 -70.25 14.65 -68.3 21.65 -66.75 30.0 -64.8 38.5 -63.35 L39.25 -57.8 37.1 -61.85 Q24.6 -63.6 13.5 -57.7 7.15 -54.4 2.25 -49.25 L-0.35 -49.25 Q5.5 -56.95 13.85 -61.75 16.35 -63.2 19.05 -64.3 5.9 -70.85 -8.7 -72.4 -27.9 -74.25 -45.45 -66.45 -58.45 -60.8 -66.15 -49.1 -70.0 -43.3 -71.45 -36.5 -72.85 -29.7 -72.35 -22.75 -71.55 -12.3 -66.9 -2.85 -64.25 2.45 -60.7 7.15 L-56.2 0.35 -55.35 0.7 Q-60.65 11.95 -61.7 24.35 M39.45 -57.35 Q49.1 -46.6 49.55 -32.2 L49.6 -28.1 Q60.3 -24.9 66.25 -15.6 74.05 -3.6 70.6 10.3 69.95 12.75 68.9 15.1 72.95 1.25 66.8 -11.7 61.4 -23.0 49.7 -26.65 L49.4 -21.85 Q47.85 -40.5 39.45 -57.35 M64.75 28.25 Q61.5 41.6 55.35 53.9 51.8 61.0 44.45 62.3 L41.4 62.1 38.95 60.9 38.25 60.95 Q34.1 68.35 26.45 72.05 17.3 76.5 7.1 75.0 0.5 74.1 -5.9 72.35 -12.0 70.6 -16.5 66.45 -24.7 58.9 -23.35 47.8 -21.55 61.8 -9.15 69.05 -1.8 73.35 6.8 73.4 12.8 73.95 18.75 72.65 30.6 69.85 36.75 59.5 45.6 62.0 52.15 56.15 53.75 54.65 54.7 52.7 60.4 40.75 64.75 28.25 M-23.3 47.7 L-29.05 46.15 -49.1 59.6 -49.65 59.45 -50.15 59.25 Q-60.85 54.1 -60.55 42.2 -58.5 51.2 -51.35 57.05 L-50.4 57.8 Q-47.1 56.6 -44.9 53.85 -43.4 51.8 -42.55 49.35 L-30.95 45.15 Q-37.0 37.7 -34.3 28.45 L-34.0 27.3 Q-36.05 37.5 -27.2 43.35 -17.1 50.05 -5.15 47.4 2.0 45.75 6.75 39.95 L7.5 40.55 Q1.9 51.75 -10.35 49.95 -11.8 49.75 -13.05 49.2 -17.95 46.9 -23.3 47.7 M37.5 -16.9 L38.95 -17.4 44.7 -10.0 43.25 -1.6 42.05 -1.3 42.5 -8.65 43.35 -9.7 37.5 -16.9 M47.55 -9.25 L49.05 -16.7 48.5 -8.6 Q48.0 -8.95 47.55 -9.25" fill="#454545" fill-rule="evenodd" stroke="none"/>
    <path d="M11.3 -49.9 Q16.3 -52.8 22.15 -52.65 30.75 -52.05 36.5 -45.55 40.05 -41.55 42.2 -36.7 45.55 -29.05 45.65 -20.65 L44.85 -19.55 44.85 -18.5 43.8 -16.9 41.65 -19.3 37.65 -19.3 36.6 -18.25 Q36.9 -16.6 37.5 -15.05 40.4 -7.55 37.6 0.1 35.1 7.0 30.65 12.9 15.95 32.45 -7.6 38.1 -15.35 39.85 -21.7 35.2 -24.9 32.8 -26.95 29.4 -29.35 25.45 -29.95 20.9 L-42.2 28.4 Q-41.8 33.2 -43.6 37.55 -45.1 41.0 -47.65 43.85 -49.55 45.9 -52.05 47.25 L-54.05 45.5 Q-55.55 44.1 -56.05 42.2 -59.9 29.05 -55.1 16.1 -50.7 4.0 -44.15 -7.0 -37.2 -18.8 -27.05 -27.95 -22.05 -32.3 -16.6 -35.95 -3.7 -44.55 10.95 -49.25 L11.3 -49.9 M60.8 -8.9 Q62.7 -4.85 62.95 -0.35 63.6 10.1 61.7 20.3 59.6 31.3 53.65 40.65 49.45 47.2 42.95 51.15 29.1 59.65 13.3 63.05 2.6 65.4 -7.75 61.9 -10.35 61.0 -12.65 59.8 L-13.2 55.0 -7.8 54.65 Q5.3 53.15 16.8 46.8 28.65 40.1 36.65 29.15 42.8 20.65 46.85 11.15 L57.4 -14.5 Q59.4 -11.9 60.8 -8.9 M-5.1 -66.1 L-0.4 -64.05 -4.15 -58.65 Q-13.75 -54.8 -22.55 -49.7 -33.4 -43.45 -40.15 -32.95 L-55.35 -9.75 Q-58.65 -4.85 -64.4 -5.85 -66.05 -10.0 -66.7 -14.35 -67.85 -21.8 -66.05 -29.05 -65.05 -33.0 -63.4 -36.75 -53.25 -60.05 -28.65 -66.65 -16.75 -69.9 -5.1 -66.1" fill="#888888" fill-rule="evenodd" stroke="none"/>
    <path d="M-16.25 89.5 L-16.25 86.95 -13.7 86.95 -13.7 89.5 -16.25 89.5 M-63.7 65.9 L-63.7 68.45 -66.3 68.45 -66.3 65.9 -63.7 65.9 M-59.35 -26.15 L-59.35 -28.95 -56.5 -28.95 -56.5 -26.15 -59.35 -26.15 M-38.45 -74.25 L-38.45 -70.9 -41.05 -70.9 -41.05 -74.25 -38.45 -74.25 M-96.85 -7.15 L-96.85 -10.5 -94.25 -10.5 -94.25 -7.15 -96.85 -7.15 M-56.7 -99.35 L-56.7 -102.15 -53.85 -102.15 -53.85 -99.35 -56.7 -99.35 M34.6 64.75 L34.6 67.55 31.75 67.55 31.75 64.75 34.6 64.75 M14.8 13.15 L14.8 10.6 17.4 10.6 17.4 13.15 14.8 13.15 M58.0 14.85 L60.55 14.85 60.55 17.35 58.0 17.35 58.0 14.85 M20.6 -62.15 L20.6 -64.7 23.2 -64.7 23.2 -62.15 20.6 -62.15" fill="#ffffff" fill-rule="evenodd" stroke="none"/>
  </g>
</svg>
