<?xml version="1.0" encoding="UTF-8" standalone="no"?>
<svg xmlns:xlink="http://www.w3.org/1999/xlink" height="140.1px" width="143.8px" xmlns="http://www.w3.org/2000/svg">
  <g transform="matrix(1.0, 0.0, 0.0, 1.0, 75.2, 69.0)">
    <path d="M12.1 -67.7 Q14.35 -67.35 14.65 -65.15 14.8 -64.1 14.35 -63.2 L14.15 -62.8 9.75 -63.0 9.2 -65.45 Q9.15 -66.4 10.05 -67.05 10.9 -67.7 12.1 -67.7 M-60.8 -47.55 Q-56.25 -54.9 -49.0 -59.8 -40.8 -65.35 -30.9 -66.6 -7.8 -69.25 9.4 -53.5 L7.15 -51.0 Q-2.1 -42.9 -13.1 -48.2 L-9.05 -40.6 Q-15.85 -31.75 -26.95 -30.55 L-23.65 -25.15 -34.2 -21.85 Q-35.7 -22.85 -37.3 -23.55 -41.45 -25.25 -45.75 -23.85 -57.7 -20.05 -59.6 -7.6 -58.35 -14.3 -53.1 -18.6 -44.65 -25.6 -35.35 -20.7 L-31.35 -21.0 -35.35 -13.25 -30.25 -9.1 Q-32.55 -1.4 -28.55 5.5 -23.7 6.2 -19.9 3.1 -20.15 9.55 -16.25 14.65 -14.4 17.1 -11.7 18.45 -4.75 22.05 1.0 16.85 L2.8 26.55 4.9 27.15 -1.3 33.15 -0.2 39.9 6.2 39.55 Q-4.5 48.55 -17.95 47.85 -1.4 49.2 11.0 37.2 L10.9 36.4 6.2 37.6 8.4 32.0 12.45 31.2 Q19.7 18.9 19.5 4.65 21.0 9.95 25.65 13.0 28.6 11.5 30.8 9.1 L31.65 8.15 30.1 9.55 29.1 10.2 26.95 11.5 Q24.0 9.1 21.95 5.9 L21.25 4.55 19.9 1.8 18.7 2.05 18.45 5.75 Q17.55 15.65 13.5 24.8 L11.05 29.65 7.0 30.45 4.8 38.2 0.15 37.65 1.45 33.55 3.45 32.15 Q5.05 30.7 5.8 28.8 L6.15 27.65 6.45 26.3 3.95 25.35 1.95 14.1 0.85 14.25 Q-1.05 17.35 -4.55 17.8 -7.35 17.9 -9.8 16.65 -11.15 15.95 -12.3 15.05 L-13.7 13.8 Q-17.8 9.8 -18.2 4.0 -18.35 1.95 -18.05 -0.1 L-19.4 0.2 Q-21.3 2.85 -24.35 4.1 L-25.6 4.4 -28.2 5.0 Q-30.0 0.55 -29.1 -4.15 -28.75 -6.0 -28.0 -7.7 L-24.3 -15.45 -29.45 -10.5 -34.1 -14.45 -29.85 -21.0 -20.7 -24.7 -24.55 -29.0 -7.7 -39.15 -1.9 -34.05 5.4 -35.8 Q8.15 -31.9 12.1 -29.3 L13.65 -28.4 17.0 -26.8 18.85 -8.3 21.5 -8.0 24.75 -11.55 25.0 -10.7 25.25 -9.85 25.6 -9.1 26.4 -7.75 Q28.5 -4.7 32.05 -3.9 L32.95 -3.75 34.95 -3.5 35.05 -2.25 35.05 0.2 Q34.85 2.75 33.85 4.95 38.7 -3.45 34.75 -13.4 40.7 -9.6 47.7 -8.85 59.25 -7.5 64.65 2.95 66.75 7.0 66.1 11.55 63.9 26.9 49.3 32.0 L49.5 15.25 43.25 6.85 41.75 6.75 41.75 8.0 Q46.2 14.25 47.5 21.8 50.3 38.3 39.6 50.85 30.45 61.5 16.5 59.1 11.45 68.95 0.35 68.7 -3.5 68.55 -6.85 66.85 -15.5 62.4 -19.8 53.4 -20.75 53.25 -21.3 52.65 -23.65 50.15 -25.05 46.8 L-25.65 46.65 Q-43.8 43.55 -53.85 28.25 -64.45 12.15 -59.7 -6.6 L-63.6 -11.15 Q-56.15 -28.4 -61.15 -46.55 L-61.2 -46.85 -60.8 -47.55 M26.15 -51.9 Q22.9 -52.5 20.35 -50.6 13.25 -45.4 17.0 -37.5 L36.85 -21.2 39.8 -22.5 Q42.15 -32.4 38.3 -41.85 34.9 -50.25 26.15 -51.9 M29.55 -54.85 Q41.7 -48.45 45.6 -35.05 49.1 -22.8 45.45 -10.65 39.35 -10.9 35.15 -15.3 33.4 -17.1 32.3 -19.25 L35.15 -6.25 31.65 -5.15 Q27.55 -8.6 26.35 -13.8 L26.1 -15.1 24.8 -14.85 20.55 -10.1 18.45 -28.25 5.35 -36.95 -0.1 -35.95 -9.4 -44.45 Q-2.1 -42.2 5.0 -45.05 11.4 -56.55 24.45 -56.25 27.1 -56.15 29.55 -54.85 M56.4 -23.75 Q62.7 -23.1 66.3 -18.0 L67.1 -16.75 65.65 -15.3 Q62.35 -14.4 59.25 -15.8 55.4 -17.6 54.0 -21.7 L56.0 -23.7 56.4 -23.75 M-11.1 -60.9 Q-24.65 -65.7 -37.75 -60.05 -47.65 -55.7 -51.25 -45.8 -52.4 -42.6 -51.5 -39.45 -49.1 -30.95 -40.45 -31.9 -39.05 -32.15 -38.05 -33.0 -31.55 -38.65 -24.25 -43.45 -21.45 -45.3 -18.35 -46.3 -10.5 -48.85 -4.65 -54.45 L-6.2 -58.85 -11.1 -60.9 M28.05 15.3 L24.1 17.85 Q24.35 22.05 23.35 26.2 22.2 30.9 19.4 34.8 14.45 41.75 8.1 47.45 4.85 50.25 2.2 53.6 -0.4 56.85 1.95 60.55 L10.75 59.75 Q23.75 57.15 33.45 48.0 43.55 38.4 41.9 24.7 41.55 21.75 40.05 19.25 35.75 12.2 28.05 15.3 M61.55 18.8 Q65.1 14.95 63.8 9.9 61.3 0.2 51.25 -1.2 L48.85 0.75 51.3 2.95 Q56.65 10.1 57.65 19.3 L61.55 18.8 M-71.8 -43.5 Q-65.25 -39.8 -67.65 -32.35 -68.7 -29.15 -71.25 -27.15 L-72.0 -27.35 Q-76.65 -34.3 -73.75 -42.05 L-71.8 -43.5 M-44.9 -10.0 Q-47.2 -7.4 -48.75 -4.45 -55.55 8.4 -49.4 21.7 -43.05 35.35 -28.6 39.35 -24.45 40.5 -20.2 40.4 -10.75 40.15 -7.15 31.7 L-12.55 27.05 -28.95 13.25 Q-33.55 9.4 -35.85 3.9 -36.65 2.0 -37.05 0.15 -38.5 -6.85 -44.9 -10.0 M-28.3 63.05 L-31.05 60.55 Q-41.7 61.95 -44.45 51.55 L-35.95 51.15 Q-30.0 51.55 -28.3 57.55 -27.55 60.25 -28.3 63.05" fill="#666666" fill-rule="evenodd" stroke="none"/>
    <path d="M9.2 -65.45 L9.75 -63.0 14.15 -62.8 14.35 -63.2 Q14.8 -64.1 14.65 -65.15 14.35 -67.35 12.1 -67.7 L15.95 -67.6 16.35 -62.0 14.2 -61.25 12.65 -60.85 Q10.25 -60.9 8.8 -62.8 L9.2 -65.45 M-25.05 46.8 Q-23.65 50.15 -21.3 52.65 -20.75 53.25 -19.8 53.4 -15.5 62.4 -6.85 66.85 -3.5 68.55 0.35 68.7 11.45 68.95 16.5 59.1 30.45 61.5 39.6 50.85 50.3 38.3 47.5 21.8 46.2 14.25 41.75 8.0 L41.75 6.75 43.25 6.85 49.5 15.25 49.3 32.0 Q63.9 26.9 66.1 11.55 66.75 7.0 64.65 2.95 59.25 -7.5 47.7 -8.85 40.7 -9.6 34.75 -13.4 38.7 -3.45 33.85 4.95 34.85 2.75 35.05 0.2 L35.05 -2.25 34.95 -3.5 32.95 -3.75 32.05 -3.9 Q28.5 -4.7 26.4 -7.75 L25.6 -9.1 25.25 -9.85 25.0 -10.7 24.75 -11.55 21.5 -8.0 18.85 -8.3 17.0 -26.8 13.65 -28.4 12.1 -29.3 Q8.15 -31.9 5.4 -35.8 L-1.9 -34.05 -7.7 -39.15 -24.55 -29.0 -20.7 -24.7 -29.85 -21.0 -34.1 -14.45 -29.45 -10.5 -24.3 -15.45 -28.0 -7.7 Q-28.75 -6.0 -29.1 -4.15 -30.0 0.55 -28.2 5.0 L-25.6 4.4 -24.35 4.1 Q-21.3 2.85 -19.4 0.2 L-18.05 -0.1 Q-18.35 1.95 -18.2 4.0 -17.8 9.8 -13.7 13.8 L-12.3 15.05 Q-11.15 15.95 -9.8 16.65 -7.35 17.9 -4.55 17.8 -1.05 17.35 0.85 14.25 L1.95 14.1 3.95 25.35 6.45 26.3 6.15 27.65 5.8 28.8 Q5.05 30.7 3.45 32.15 L1.45 33.55 0.15 37.65 4.8 38.2 7.0 30.45 11.05 29.65 13.5 24.8 Q17.55 15.65 18.45 5.75 L18.7 2.05 19.9 1.8 21.25 4.55 21.95 5.9 Q24.0 9.1 26.95 11.5 L29.1 10.2 30.1 9.55 31.65 8.15 30.8 9.1 Q28.6 11.5 25.65 13.0 21.0 9.95 19.5 4.65 19.7 18.9 12.45 31.2 L8.4 32.0 6.2 37.6 10.9 36.4 11.0 37.2 Q-1.4 49.2 -17.95 47.85 -4.5 48.55 6.2 39.55 L-0.2 39.9 -1.3 33.15 4.9 27.15 2.8 26.55 1.0 16.85 Q-4.75 22.05 -11.7 18.45 -14.4 17.1 -16.25 14.65 -20.15 9.55 -19.9 3.1 -23.7 6.2 -28.55 5.5 -32.55 -1.4 -30.25 -9.1 L-35.35 -13.25 -31.35 -21.0 -35.35 -20.7 Q-44.65 -25.6 -53.1 -18.6 -58.35 -14.3 -59.6 -7.6 -57.7 -20.05 -45.75 -23.85 -41.45 -25.25 -37.3 -23.55 -35.7 -22.85 -34.2 -21.85 L-23.65 -25.15 -26.95 -30.55 Q-15.85 -31.75 -9.05 -40.6 L-13.1 -48.2 Q-2.1 -42.9 7.15 -51.0 L9.4 -53.5 Q-7.8 -69.25 -30.9 -66.6 -40.8 -65.35 -49.0 -59.8 -56.25 -54.9 -60.8 -47.55 -57.15 -58.15 -46.9 -63.8 -40.0 -67.7 -32.15 -68.6 -21.45 -69.9 -11.05 -66.9 1.2 -63.3 10.3 -54.35 20.35 -61.55 31.85 -56.4 41.7 -52.0 45.5 -41.9 49.25 -31.95 48.55 -21.2 48.15 -15.85 46.55 -10.75 56.15 -12.1 62.65 -4.75 69.45 2.95 68.5 13.35 67.85 20.85 63.05 26.55 59.25 31.1 53.45 32.15 L49.25 32.55 Q49.4 42.9 43.15 51.15 36.45 60.0 25.6 61.3 21.75 61.55 18.05 60.65 15.4 67.1 8.9 69.65 0.05 73.15 -8.4 68.15 -15.3 64.0 -19.95 57.3 L-22.25 54.1 Q-24.6 50.85 -25.05 46.8 M-61.15 -46.55 Q-56.15 -28.4 -63.6 -11.15 L-59.7 -6.6 Q-64.45 12.15 -53.85 28.25 -43.8 43.55 -25.65 46.65 -39.15 45.7 -49.1 36.5 -59.55 26.85 -62.25 12.9 -64.05 3.7 -61.8 -5.35 L-64.9 -9.65 Q-62.0 -24.6 -62.25 -39.9 -62.25 -42.15 -61.75 -44.3 L-61.15 -46.55 M56.0 -23.7 L54.0 -21.7 Q55.4 -17.6 59.25 -15.8 62.35 -14.4 65.65 -15.3 L67.1 -16.75 66.3 -18.0 Q62.7 -23.1 56.4 -23.75 L59.4 -23.4 Q66.2 -22.05 67.8 -15.0 L64.85 -14.2 Q55.8 -13.9 53.0 -22.9 L56.0 -23.7 M29.55 -54.85 Q27.1 -56.15 24.45 -56.25 11.4 -56.55 5.0 -45.05 -2.1 -42.2 -9.4 -44.45 L-0.1 -35.95 5.35 -36.95 18.45 -28.25 20.55 -10.1 24.8 -14.85 26.1 -15.1 26.35 -13.8 Q27.55 -8.6 31.65 -5.15 L35.15 -6.25 32.3 -19.25 Q33.4 -17.1 35.15 -15.3 39.35 -10.9 45.45 -10.65 49.1 -22.8 45.6 -35.05 41.7 -48.45 29.55 -54.85 M-71.8 -43.5 L-73.75 -42.05 Q-76.65 -34.3 -72.0 -27.35 L-71.25 -27.15 Q-68.7 -29.15 -67.65 -32.35 -65.25 -39.8 -71.8 -43.5 M-73.4 -44.55 L-72.5 -44.3 Q-66.05 -42.25 -66.0 -35.4 L-66.05 -34.5 Q-66.5 -28.2 -72.5 -26.2 -77.4 -35.15 -73.4 -44.55 M-41.85 59.3 Q-46.25 55.75 -45.45 50.2 -37.25 47.75 -29.0 50.45 L-28.05 51.85 Q-24.6 57.55 -27.15 63.8 L-29.25 64.05 Q-30.85 63.1 -32.6 62.4 -34.4 61.6 -36.25 61.5 -39.4 61.2 -41.85 59.3 M-28.3 63.05 Q-27.55 60.25 -28.3 57.55 -30.0 51.55 -35.95 51.15 L-44.45 51.55 Q-41.7 61.95 -31.05 60.55 L-28.3 63.05" fill="#454545" fill-rule="evenodd" stroke="none"/>
    <path d="M26.15 -51.9 Q34.9 -50.25 38.3 -41.85 42.15 -32.4 39.8 -22.5 L36.85 -21.2 17.0 -37.5 Q13.25 -45.4 20.35 -50.6 22.9 -52.5 26.15 -51.9 M61.55 18.8 L57.65 19.3 Q56.65 10.1 51.3 2.95 L48.85 0.75 51.25 -1.2 Q61.3 0.2 63.8 9.9 65.1 14.95 61.55 18.8 M28.05 15.3 Q35.75 12.2 40.05 19.25 41.55 21.75 41.9 24.7 43.55 38.4 33.45 48.0 23.75 57.15 10.75 59.75 L1.95 60.55 Q-0.4 56.85 2.2 53.6 4.85 50.25 8.1 47.45 14.45 41.75 19.4 34.8 22.2 30.9 23.35 26.2 24.35 22.05 24.1 17.85 L28.05 15.3 M-11.1 -60.9 L-6.2 -58.85 -4.65 -54.45 Q-10.5 -48.85 -18.35 -46.3 -21.45 -45.3 -24.25 -43.45 -31.55 -38.65 -38.05 -33.0 -39.05 -32.15 -40.45 -31.9 -49.1 -30.95 -51.5 -39.45 -52.4 -42.6 -51.25 -45.8 -47.65 -55.7 -37.75 -60.05 -24.65 -65.7 -11.1 -60.9 M-44.9 -10.0 Q-38.5 -6.85 -37.05 0.15 -36.65 2.0 -35.85 3.9 -33.55 9.4 -28.95 13.25 L-12.55 27.05 -7.15 31.7 Q-10.75 40.15 -20.2 40.4 -24.45 40.5 -28.6 39.35 -43.05 35.35 -49.4 21.7 -55.55 8.4 -48.75 -4.45 -47.2 -7.4 -44.9 -10.0" fill="#888888" fill-rule="evenodd" stroke="none"/>
  </g>
</svg>
