<?xml version="1.0" encoding="UTF-8" standalone="no"?>
<svg xmlns:xlink="http://www.w3.org/1999/xlink" height="196.05px" width="158.4px" xmlns="http://www.w3.org/2000/svg">
  <g transform="matrix(1.0, 0.0, 0.0, 1.0, 82.6, 88.95)">
    <path d="M-7.35 107.1 L-7.35 103.75 -4.75 103.75 -4.75 107.1 -7.35 107.1 M-62.05 62.2 L-59.5 62.2 -59.5 64.75 -62.05 64.75 -62.05 62.2 M-47.35 -2.65 L-44.8 -2.65 -44.8 0.7 -47.35 0.7 -47.35 -2.65 M-27.35 -85.6 L-27.35 -88.95 -24.75 -88.95 -24.75 -85.6 -27.35 -85.6 M-82.6 -40.55 L-82.6 -43.1 -80.05 -43.1 -80.05 -40.55 -82.6 -40.55 M48.5 58.45 L48.5 55.9 51.1 55.9 51.1 58.45 48.5 58.45 M73.25 -20.05 L73.25 -22.55 75.8 -22.55 75.8 -20.05 73.25 -20.05 M10.05 -3.15 L10.05 -5.7 12.65 -5.7 12.65 -3.15 10.05 -3.15" fill="#ffffff" fill-rule="evenodd" stroke="none"/>
  </g>
</svg>
