<?xml version="1.0" encoding="UTF-8" standalone="no"?>
<svg xmlns:xlink="http://www.w3.org/1999/xlink" height="131.55px" width="141.7px" xmlns="http://www.w3.org/2000/svg">
  <g transform="matrix(1.0, 0.0, 0.0, 1.0, 75.95, 70.65)">
    <path d="M-55.45 -0.85 L-55.3 -1.55 -55.25 -0.8 -55.45 -0.85" fill="#ff0000" fill-rule="evenodd" stroke="none"/>
    <path d="M10.05 -70.6 L14.15 -68.0 Q13.0 -66.25 11.05 -65.55 8.6 -64.85 6.45 -66.1 L10.0 -70.6 10.05 -70.65 10.05 -70.6 M5.3 -53.75 L5.65 -53.65 Q14.25 -52.7 22.1 -49.1 36.5 -42.5 42.65 -28.15 48.6 -14.15 58.6 -2.4 60.15 -0.55 61.3 1.5 63.8 6.2 63.0 11.45 61.7 19.45 54.5 22.9 L53.7 25.2 Q51.95 30.15 48.35 34.0 42.4 40.15 34.0 41.45 L33.1 43.35 Q31.05 47.4 27.25 49.85 18.6 55.3 8.4 55.6 L7.9 56.25 Q5.55 59.15 1.8 59.45 -1.5 59.35 -4.4 57.75 -9.4 54.95 -10.75 49.4 -18.25 45.3 -25.1 40.15 -35.4 32.45 -44.05 23.05 -53.45 12.9 -55.25 -0.8 L-55.3 -1.55 -55.35 -2.35 Q-59.6 -13.9 -58.85 -26.15 -58.8 -27.15 -58.2 -28.1 -52.1 -38.3 -50.8 -50.1 L-50.75 -50.35 Q-48.25 -52.6 -45.45 -54.3 -34.0 -61.45 -20.5 -60.15 -7.1 -59.15 5.3 -53.75 M30.75 -26.5 Q30.15 -30.3 28.35 -33.35 20.85 -45.6 6.55 -46.35 L-3.2 -47.35 Q-8.85 -47.85 -13.95 -49.8 -21.95 -52.85 -30.1 -50.6 -36.4 -48.95 -40.05 -43.75 -46.65 -34.35 -47.1 -22.85 -47.5 -12.9 -43.35 -3.9 -33.8 17.0 -17.85 33.8 L-14.15 33.55 Q-8.25 32.1 -6.25 26.25 -3.5 18.15 -5.9 9.85 -10.3 -5.6 -23.55 -14.8 L-23.55 -21.2 Q-21.45 -22.8 -19.4 -24.5 L-13.55 -29.7 Q-9.35 -33.7 -8.15 -39.1 2.8 -37.35 13.2 -33.05 17.25 -31.35 21.0 -29.05 25.55 -26.3 30.75 -26.5 M38.7 -9.3 L41.65 -7.35 43.3 -7.45 Q36.35 -14.35 27.15 -11.8 22.25 -10.45 18.1 -7.4 10.4 -1.95 5.4 6.15 0.3 -6.8 -11.65 -13.85 -15.0 -15.85 -18.6 -17.15 -5.25 -10.6 1.25 2.7 6.05 12.55 5.2 23.5 4.65 31.0 1.1 37.65 L1.8 38.2 Q9.25 27.2 6.8 13.95 L5.6 8.6 Q14.2 -3.75 28.55 -7.8 33.5 -9.15 38.7 -9.3 M24.5 -16.0 L25.3 -16.7 Q21.9 -21.8 16.65 -24.95 2.15 -33.85 -13.55 -27.25 L-14.35 -21.25 Q-8.35 -28.4 1.0 -28.4 16.0 -28.5 24.5 -16.0 M52.55 -22.5 L54.7 -24.25 Q59.2 -24.25 62.85 -21.6 L64.8 -20.05 62.3 -16.5 Q58.05 -16.45 54.95 -19.4 53.45 -20.8 52.55 -22.5 M47.35 22.4 Q54.05 16.95 52.3 8.85 51.5 5.3 48.45 3.5 43.8 0.9 38.3 1.85 25.85 4.05 23.4 16.45 L21.55 28.75 Q19.85 30.05 18.5 31.75 14.6 36.85 15.3 43.25 L18.2 45.4 Q32.55 40.95 37.65 26.75 43.05 25.85 47.35 22.4 M-69.05 -42.6 L-67.2 -40.9 Q-66.85 -36.5 -69.35 -33.1 L-69.75 -32.65 -70.3 -32.0 -74.95 -33.75 -74.85 -40.45 -72.65 -43.35 -69.05 -42.6 M-41.1 55.65 L-42.8 54.45 -43.35 52.0 -39.4 48.15 -30.5 51.4 Q-29.75 55.4 -32.9 58.05 L-33.85 58.75 -41.1 55.65" fill="#666666" fill-rule="evenodd" stroke="none"/>
    <path d="M10.05 -70.6 L15.85 -69.95 15.45 -65.6 Q10.45 -62.2 5.3 -65.05 L5.65 -66.15 Q6.8 -69.35 10.0 -70.6 L6.45 -66.1 Q8.6 -64.85 11.05 -65.55 13.0 -66.25 14.15 -68.0 L10.05 -70.6 M5.65 -53.65 Q19.6 -53.75 31.0 -45.6 42.2 -37.5 46.0 -24.25 46.5 -22.6 47.4 -21.0 52.8 -11.1 60.3 -2.45 62.45 0.05 63.6 3.1 67.5 13.2 60.1 20.85 58.4 22.65 56.0 23.7 54.15 30.95 48.75 36.05 42.8 41.6 34.8 42.6 30.25 52.15 20.35 55.55 14.75 57.4 8.95 56.6 5.7 60.3 0.8 60.85 -5.65 61.4 -10.35 57.05 L-11.5 50.1 Q-32.5 40.75 -46.65 22.95 -53.9 13.85 -55.15 2.45 L-55.45 -0.85 -55.25 -0.8 Q-53.45 12.9 -44.05 23.05 -35.4 32.45 -25.1 40.15 -18.25 45.3 -10.75 49.4 -9.4 54.95 -4.4 57.75 -1.5 59.35 1.8 59.45 5.55 59.15 7.9 56.25 L8.4 55.6 Q18.6 55.3 27.25 49.85 31.05 47.4 33.1 43.35 L34.0 41.45 Q42.4 40.15 48.35 34.0 51.95 30.15 53.7 25.2 L54.5 22.9 Q61.7 19.45 63.0 11.45 63.8 6.2 61.3 1.5 60.15 -0.55 58.6 -2.4 48.6 -14.15 42.65 -28.15 36.5 -42.5 22.1 -49.1 14.25 -52.7 5.65 -53.65 M-55.35 -2.35 Q-62.3 -14.25 -59.55 -27.8 -57.15 -39.7 -50.8 -50.1 -52.1 -38.3 -58.2 -28.1 -58.8 -27.15 -58.85 -26.15 -59.6 -13.9 -55.35 -2.35 M-50.75 -50.35 Q-42.45 -61.75 -28.4 -63.25 -18.85 -64.2 -9.75 -61.15 -1.7 -58.55 5.3 -53.75 -7.1 -59.15 -20.5 -60.15 -34.0 -61.45 -45.45 -54.3 -48.25 -52.6 -50.75 -50.35 M38.7 -9.3 Q33.5 -9.15 28.55 -7.8 14.2 -3.75 5.6 8.6 L6.8 13.95 Q9.25 27.2 1.8 38.2 L1.1 37.65 Q4.65 31.0 5.2 23.5 6.05 12.55 1.25 2.7 -5.25 -10.6 -18.6 -17.15 -15.0 -15.85 -11.65 -13.85 0.3 -6.8 5.4 6.15 10.4 -1.95 18.1 -7.4 22.25 -10.45 27.15 -11.8 36.35 -14.35 43.3 -7.45 L41.65 -7.35 38.7 -9.3 M24.5 -16.0 Q16.0 -28.5 1.0 -28.4 -8.35 -28.4 -14.35 -21.25 L-13.55 -27.25 Q2.15 -33.85 16.65 -24.95 21.9 -21.8 25.3 -16.7 L24.5 -16.0 M52.55 -22.5 Q53.45 -20.8 54.95 -19.4 58.05 -16.45 62.3 -16.5 L64.8 -20.05 62.85 -21.6 Q59.2 -24.25 54.7 -24.25 L52.55 -22.5 M55.5 -16.9 Q51.6 -18.5 51.65 -21.85 53.55 -25.0 57.15 -25.05 64.45 -25.15 65.75 -18.25 L64.1 -15.45 Q59.6 -15.15 55.5 -16.9 M-69.05 -42.6 L-72.65 -43.35 -74.85 -40.45 -74.95 -33.75 -70.3 -32.0 -69.75 -32.65 -69.35 -33.1 Q-66.85 -36.5 -67.2 -40.9 L-69.05 -42.6 M-65.85 -41.05 L-65.9 -38.3 Q-66.05 -33.85 -69.2 -30.85 L-75.9 -32.65 -75.95 -41.2 -71.4 -45.25 -65.95 -42.5 -65.85 -41.05 M-42.8 54.45 L-44.5 53.3 -43.35 52.0 -42.8 54.45 M-39.4 48.15 Q-34.25 46.2 -30.05 49.55 L-29.55 50.0 Q-28.3 54.95 -32.25 58.35 -33.45 59.35 -34.9 60.05 L-41.1 55.65 -33.85 58.75 -32.9 58.05 Q-29.75 55.4 -30.5 51.4 L-39.4 48.15" fill="#454545" fill-rule="evenodd" stroke="none"/>
    <path d="M30.75 -26.5 Q25.55 -26.3 21.0 -29.05 17.25 -31.35 13.2 -33.05 2.8 -37.35 -8.15 -39.1 -9.35 -33.7 -13.55 -29.7 L-19.4 -24.5 Q-21.45 -22.8 -23.55 -21.2 L-23.55 -14.8 Q-10.3 -5.6 -5.9 9.85 -3.5 18.15 -6.25 26.25 -8.25 32.1 -14.15 33.55 L-17.85 33.8 Q-33.8 17.0 -43.35 -3.9 -47.5 -12.9 -47.1 -22.85 -46.65 -34.35 -40.05 -43.75 -36.4 -48.95 -30.1 -50.6 -21.95 -52.85 -13.95 -49.8 -8.85 -47.85 -3.2 -47.35 L6.55 -46.35 Q20.85 -45.6 28.35 -33.35 30.15 -30.3 30.75 -26.5 M47.35 22.4 Q43.05 25.85 37.65 26.75 32.55 40.95 18.2 45.4 L15.3 43.25 Q14.6 36.85 18.5 31.75 19.85 30.05 21.55 28.75 L23.4 16.45 Q25.85 4.05 38.3 1.85 43.8 0.9 48.45 3.5 51.5 5.3 52.3 8.85 54.05 16.95 47.35 22.4" fill="#888888" fill-rule="evenodd" stroke="none"/>
  </g>
</svg>
