<?xml version="1.0" encoding="UTF-8" standalone="no"?>
<svg xmlns:xlink="http://www.w3.org/1999/xlink" height="129.05px" width="135.5px" xmlns="http://www.w3.org/2000/svg">
  <g transform="matrix(1.0, 0.0, 0.0, 1.0, 74.55, 73.2)">
    <path d="M14.0 -68.7 Q8.2 -64.95 1.9 -67.85 L1.8 -70.8 Q8.2 -74.3 13.4 -69.3 L14.0 -68.7 M20.2 -54.85 Q25.6 -52.95 30.8 -50.4 35.6 -48.15 38.15 -43.45 42.3 -35.7 40.0 -27.2 L34.6 -28.9 33.7 -27.2 35.05 -26.5 Q39.45 -24.2 42.4 -20.25 47.25 -13.65 46.7 -5.45 39.3 -15.65 29.65 -23.65 L6.35 -9.35 Q5.3 -11.3 3.55 -12.8 -0.25 -16.25 -5.3 -16.9 L-6.3 -4.15 -8.25 -6.25 Q-7.95 -9.95 -8.85 -13.6 -10.95 -21.65 -18.15 -25.8 L-17.15 -22.6 Q-16.8 -21.05 -16.95 -19.55 -17.65 -13.8 -22.25 -10.3 L-24.15 -23.25 -25.7 -23.45 Q-26.5 -22.1 -27.55 -21.1 -29.15 -19.65 -31.25 -18.9 -32.65 -18.4 -34.1 -18.3 -38.75 -17.95 -42.35 -20.9 L-39.3 -23.0 Q-42.15 -22.9 -44.8 -24.05 -47.25 -25.2 -48.9 -27.4 -52.95 -32.7 -52.0 -39.25 -44.95 -41.3 -38.75 -45.2 -35.0 -47.6 -31.5 -50.25 -19.5 -59.45 -4.3 -60.05 L-2.0 -52.5 8.2 -52.1 Q15.25 -51.25 20.05 -46.8 L20.55 -45.85 Q24.05 -38.3 19.55 -31.15 16.85 -26.9 12.8 -23.95 6.05 -19.1 -2.2 -19.3 L3.6 -18.95 Q14.55 -20.25 20.25 -29.95 22.55 -33.9 23.25 -38.45 24.6 -47.2 20.2 -54.85 M11.55 -35.1 Q12.15 -36.55 12.2 -38.15 12.3 -43.15 8.05 -45.95 4.7 -48.2 0.75 -49.1 -9.0 -51.2 -18.75 -48.9 -32.9 -45.65 -39.55 -32.9 L-34.25 -29.15 -30.5 -30.05 Q-17.35 -32.65 -4.35 -29.3 5.5 -26.8 11.55 -35.1 M32.4 -33.2 L33.0 -33.75 Q37.4 -38.15 34.1 -43.45 L32.1 -46.75 Q28.45 -39.95 32.4 -33.2 M7.7 -6.2 L9.65 -7.85 Q18.95 -15.45 30.1 -20.05 33.5 -17.9 36.5 -15.15 48.9 -3.7 48.85 13.25 48.8 18.25 47.0 23.05 44.35 30.05 38.75 35.0 35.15 38.1 30.65 39.6 L29.8 27.95 29.15 27.65 Q30.5 37.15 23.65 43.85 21.05 46.4 17.55 47.55 12.45 49.2 7.55 46.9 3.7 45.1 1.3 41.65 5.5 37.0 8.05 31.3 11.4 23.6 11.45 15.15 11.15 21.65 8.7 27.6 4.4 37.9 -6.5 40.6 -9.8 41.4 -13.1 40.55 -32.5 35.75 -44.85 19.8 -49.9 13.25 -53.05 5.55 -56.8 -3.4 -54.45 -12.7 -52.95 -18.65 -47.9 -22.1 L-47.0 -21.35 Q-44.35 -19.1 -41.35 -17.55 -35.0 -14.2 -28.6 -16.95 -25.75 -18.25 -25.3 -21.45 L-22.75 -8.8 Q-19.55 -9.15 -17.65 -11.75 -15.9 -14.2 -15.7 -17.0 -15.5 -20.35 -17.0 -23.4 L-15.8 -22.3 Q-11.9 -18.9 -10.1 -13.95 -8.5 -9.45 -9.15 -4.65 L-5.65 -2.5 -4.35 -15.5 Q0.45 -12.8 4.05 -8.7 7.95 -4.35 9.9 1.35 L7.7 -6.2 M51.05 -22.55 L51.95 -23.8 Q56.7 -23.9 58.7 -19.55 L57.95 -19.35 Q53.4 -18.35 51.05 -22.55 M41.15 13.8 Q42.7 10.4 41.55 6.8 37.7 -4.6 25.7 -4.15 22.25 5.5 27.65 14.15 30.25 18.3 34.95 18.1 39.35 17.7 41.15 13.8 M-65.75 -39.3 L-66.1 -38.4 Q-68.35 -35.1 -72.0 -33.65 L-72.8 -33.35 Q-75.4 -42.1 -68.4 -47.65 -65.4 -44.05 -65.75 -39.3 M-41.4 -9.85 Q-49.15 -2.55 -43.95 7.25 -37.1 20.05 -23.4 24.6 -17.25 26.6 -10.9 25.05 -2.5 23.15 -2.0 14.8 -1.95 12.9 -3.2 11.5 -11.75 2.1 -23.2 -3.55 -31.9 -7.9 -41.4 -9.85 M-41.25 54.3 L-42.25 51.3 -38.3 49.85 Q-34.4 48.55 -32.8 52.25 L-41.25 54.3" fill="#666666" fill-rule="evenodd" stroke="none"/>
    <path d="M14.65 -70.15 L14.4 -66.0 10.0 -66.55 Q8.6 -65.95 7.05 -65.85 3.95 -65.8 1.25 -67.35 L1.3 -72.2 2.9 -72.65 Q9.35 -74.45 14.65 -70.15 M14.0 -68.7 L13.4 -69.3 Q8.2 -74.3 1.8 -70.8 L1.9 -67.85 Q8.2 -64.95 14.0 -68.7 M20.2 -54.85 Q24.6 -47.2 23.25 -38.45 22.55 -33.9 20.25 -29.95 14.55 -20.25 3.6 -18.95 L-2.2 -19.3 Q6.05 -19.1 12.8 -23.95 16.85 -26.9 19.55 -31.15 24.05 -38.3 20.55 -45.85 L20.05 -46.8 Q15.25 -51.25 8.2 -52.1 L-2.0 -52.5 -4.3 -60.05 Q-19.5 -59.45 -31.5 -50.25 -35.0 -47.6 -38.75 -45.2 -44.95 -41.3 -52.0 -39.25 -52.95 -32.7 -48.9 -27.4 -47.25 -25.2 -44.8 -24.05 -42.15 -22.9 -39.3 -23.0 L-42.35 -20.9 Q-38.75 -17.95 -34.1 -18.3 -32.65 -18.4 -31.25 -18.9 -29.15 -19.65 -27.55 -21.1 -26.5 -22.1 -25.7 -23.45 L-24.15 -23.25 -22.25 -10.3 Q-17.65 -13.8 -16.95 -19.55 -16.8 -21.05 -17.15 -22.6 L-18.15 -25.8 Q-10.95 -21.65 -8.85 -13.6 -7.95 -9.95 -8.25 -6.25 L-6.3 -4.15 -5.3 -16.9 Q-0.25 -16.25 3.55 -12.8 5.3 -11.3 6.35 -9.35 L29.65 -23.65 Q39.3 -15.65 46.7 -5.45 47.25 -13.65 42.4 -20.25 39.45 -24.2 35.05 -26.5 L33.7 -27.2 34.6 -28.9 40.0 -27.2 Q42.3 -35.7 38.15 -43.45 35.6 -48.15 30.8 -50.4 25.6 -52.95 20.2 -54.85 M7.7 -6.2 L9.9 1.35 Q7.95 -4.35 4.05 -8.7 0.45 -12.8 -4.35 -15.5 L-5.65 -2.5 -9.15 -4.65 Q-8.5 -9.45 -10.1 -13.95 -11.9 -18.9 -15.8 -22.3 L-17.0 -23.4 Q-15.5 -20.35 -15.7 -17.0 -15.9 -14.2 -17.65 -11.75 -19.55 -9.15 -22.75 -8.8 L-25.3 -21.45 Q-25.75 -18.25 -28.6 -16.95 -35.0 -14.2 -41.35 -17.55 -44.35 -19.1 -47.0 -21.35 L-47.9 -22.1 Q-52.95 -18.65 -54.45 -12.7 -56.8 -3.4 -53.05 5.55 -49.9 13.25 -44.85 19.8 -32.5 35.75 -13.1 40.55 -9.8 41.4 -6.5 40.6 4.4 37.9 8.7 27.6 11.15 21.65 11.45 15.15 11.4 23.6 8.05 31.3 5.5 37.0 1.3 41.65 3.7 45.1 7.55 46.9 12.45 49.2 17.55 47.55 21.05 46.4 23.65 43.85 30.5 37.15 29.15 27.65 L29.8 27.95 30.65 39.6 Q35.15 38.1 38.75 35.0 44.35 30.05 47.0 23.05 48.8 18.25 48.85 13.25 48.9 -3.7 36.5 -15.15 33.5 -17.9 30.1 -20.05 18.95 -15.45 9.65 -7.85 L7.7 -6.2 M50.25 -23.95 Q57.5 -25.5 60.6 -18.9 L60.95 -18.05 Q54.45 -16.8 51.1 -22.4 50.6 -23.2 50.25 -23.95 M51.05 -22.55 Q53.4 -18.35 57.95 -19.35 L58.7 -19.55 Q56.7 -23.9 51.95 -23.8 L51.05 -22.55 M47.3 -4.15 Q54.55 10.8 48.15 26.0 42.95 38.3 30.0 41.45 23.05 50.7 11.4 49.15 4.25 48.25 -0.65 42.9 -15.5 46.6 -28.3 37.65 -37.75 31.1 -44.65 22.0 -55.8 7.4 -56.7 -10.7 -56.8 -12.6 -56.15 -14.3 -54.0 -19.95 -48.65 -22.9 -55.2 -30.3 -55.05 -40.2 -40.95 -43.6 -29.85 -53.15 -28.25 -54.6 -26.3 -55.6 -15.4 -61.45 -2.95 -61.05 L-0.8 -53.7 Q8.45 -56.3 18.0 -56.2 32.55 -55.65 39.7 -42.9 44.15 -34.95 41.2 -26.3 50.75 -17.0 47.3 -4.15 M-65.75 -39.3 Q-65.4 -44.05 -68.4 -47.65 -75.4 -42.1 -72.8 -33.35 L-72.0 -33.65 Q-68.35 -35.1 -66.1 -38.4 -66.6 -36.8 -67.6 -35.5 -69.9 -32.6 -73.05 -32.8 -74.35 -34.15 -74.5 -36.1 -75.2 -43.9 -69.35 -49.15 L-67.55 -49.0 -66.85 -47.8 Q-64.4 -43.8 -65.75 -39.3 M-36.95 47.55 Q-34.5 47.5 -32.75 48.75 -31.05 49.95 -31.0 51.7 -31.05 53.4 -32.75 54.65 -34.5 55.85 -36.95 55.85 -39.4 55.85 -41.15 54.65 -42.9 53.4 -42.85 51.7 -42.9 49.95 -41.15 48.75 -39.4 47.5 -36.95 47.55 M-41.25 54.3 L-32.8 52.25 Q-34.4 48.55 -38.3 49.85 L-42.25 51.3 -41.25 54.3" fill="#454545" fill-rule="evenodd" stroke="none"/>
    <path d="M32.4 -33.2 Q28.45 -39.95 32.1 -46.75 L34.1 -43.45 Q37.4 -38.15 33.0 -33.75 L32.4 -33.2 M11.55 -35.1 Q5.5 -26.8 -4.35 -29.3 -17.35 -32.65 -30.5 -30.05 L-34.25 -29.15 -39.55 -32.9 Q-32.9 -45.65 -18.75 -48.9 -9.0 -51.2 0.75 -49.1 4.7 -48.2 8.05 -45.95 12.3 -43.15 12.2 -38.15 12.15 -36.55 11.55 -35.1 M41.15 13.8 Q39.35 17.7 34.95 18.1 30.25 18.3 27.65 14.15 22.25 5.5 25.7 -4.15 37.7 -4.6 41.55 6.8 42.7 10.4 41.15 13.8 M-41.4 -9.85 Q-31.9 -7.9 -23.2 -3.55 -11.75 2.1 -3.2 11.5 -1.95 12.9 -2.0 14.8 -2.5 23.15 -10.9 25.05 -17.25 26.6 -23.4 24.6 -37.1 20.05 -43.95 7.25 -49.15 -2.55 -41.4 -9.85" fill="#888888" fill-rule="evenodd" stroke="none"/>
  </g>
</svg>
