<?xml version="1.0" encoding="UTF-8" standalone="no"?>
<svg xmlns:xlink="http://www.w3.org/1999/xlink" height="128.55px" width="138.0px" xmlns="http://www.w3.org/2000/svg">
  <g transform="matrix(1.0, 0.0, 0.0, 1.0, 76.05, 75.25)">
    <path d="M15.95 -73.35 L15.15 -70.3 Q11.7 -67.7 7.95 -69.7 6.75 -70.4 6.6 -71.7 7.65 -72.45 8.8 -73.0 12.25 -74.7 15.95 -73.35 M33.85 -34.95 L34.15 -28.1 27.2 -29.15 Q18.65 -40.2 5.45 -45.0 -7.3 -49.5 -20.25 -45.75 -30.9 -42.65 -34.35 -32.0 -38.05 -20.45 -32.05 -9.8 -25.1 2.45 -11.25 5.55 -2.5 7.4 6.25 5.45 L6.5 7.6 Q12.75 13.85 21.55 12.15 27.45 11.0 30.75 6.0 32.15 3.85 32.6 1.45 37.55 0.2 39.35 -4.65 41.25 -10.0 38.2 -14.7 33.3 -22.3 25.0 -19.2 20.7 -17.65 17.45 -14.55 13.3 -10.65 10.85 -5.3 7.1 -4.9 4.1 -7.1 1.9 -8.75 0.4 -11.05 L8.9 -9.75 Q13.7 -23.75 28.35 -24.85 35.85 -25.65 41.95 -21.25 53.55 -12.95 53.55 1.45 53.6 15.9 42.25 24.5 39.75 26.35 36.6 27.0 L31.25 27.35 Q32.8 20.3 29.0 14.25 32.95 28.3 23.05 38.75 20.9 41.0 17.85 41.25 14.2 41.5 11.05 39.45 4.35 35.1 2.55 27.3 -13.0 31.6 -26.15 22.0 -40.8 11.3 -45.6 -6.2 -50.35 -23.55 -40.85 -38.65 -34.65 -48.5 -23.7 -52.15 -4.2 -58.7 14.8 -50.9 L10.45 -45.5 Q22.15 -49.6 30.6 -40.85 32.0 -39.4 33.0 -37.6 L33.85 -34.95 M52.9 -26.65 L58.75 -28.3 60.1 -21.65 58.65 -21.25 52.9 -25.5 52.9 -26.65 M-74.45 -43.0 Q-72.6 -49.0 -66.55 -50.65 -64.9 -44.9 -69.75 -41.5 L-70.6 -40.95 -74.45 -43.0 M-37.2 53.3 L-43.0 49.95 Q-38.55 45.95 -32.75 47.55 L-35.35 52.25 -37.2 53.3" fill="#666666" fill-rule="evenodd" stroke="none"/>
    <path d="M17.05 -74.6 L16.6 -69.8 Q12.3 -67.1 7.5 -68.7 5.85 -69.15 4.4 -70.05 6.75 -73.95 11.05 -74.95 L17.05 -74.6 M15.95 -73.35 Q12.25 -74.7 8.8 -73.0 7.65 -72.45 6.6 -71.7 6.75 -70.4 7.95 -69.7 11.7 -67.7 15.15 -70.3 L15.95 -73.35 M33.85 -34.95 L35.4 -28.6 Q41.5 -25.8 46.1 -20.65 52.9 -13.0 54.35 -2.85 55.75 7.4 50.7 16.4 44.1 28.05 30.75 29.2 30.15 32.4 28.35 35.15 25.45 39.5 20.65 41.7 18.05 42.8 15.25 42.35 4.1 40.75 1.7 29.5 -9.1 31.45 -19.25 27.3 -31.9 22.05 -39.5 10.8 -47.05 -0.45 -48.05 -13.9 -49.05 -27.45 -42.7 -39.45 -36.2 -51.85 -22.7 -55.8 -10.15 -59.45 2.7 -57.1 9.8 -55.9 16.45 -53.15 27.8 -48.4 33.0 -37.6 32.0 -39.4 30.6 -40.85 22.15 -49.6 10.45 -45.5 L14.8 -50.9 Q-4.2 -58.7 -23.7 -52.15 -34.65 -48.5 -40.85 -38.65 -50.35 -23.55 -45.6 -6.2 -40.8 11.3 -26.15 22.0 -13.0 31.6 2.55 27.3 4.35 35.1 11.05 39.45 14.2 41.5 17.85 41.25 20.9 41.0 23.05 38.75 32.95 28.3 29.0 14.25 32.8 20.3 31.25 27.35 L36.6 27.0 Q39.75 26.35 42.25 24.5 53.6 15.9 53.55 1.45 53.55 -12.95 41.95 -21.25 35.85 -25.65 28.35 -24.85 13.7 -23.75 8.9 -9.75 8.9 -17.8 14.25 -23.45 19.6 -29.15 27.2 -29.15 L34.15 -28.1 33.85 -34.95 M58.85 -30.35 L59.75 -29.35 Q63.15 -25.1 61.3 -19.95 L57.3 -19.9 51.65 -23.95 51.6 -28.05 58.85 -30.35 M52.9 -26.65 L52.9 -25.5 58.65 -21.25 60.1 -21.65 58.75 -28.3 52.9 -26.65 M-66.8 -43.0 Q-71.15 -37.95 -76.05 -42.3 -74.35 -50.3 -66.3 -51.9 -63.3 -47.2 -66.8 -43.0 M-74.45 -43.0 L-70.6 -40.95 -69.75 -41.5 Q-64.9 -44.9 -66.55 -50.65 -72.6 -49.0 -74.45 -43.0 M-37.2 53.3 L-44.4 51.35 -44.2 48.55 Q-42.3 47.4 -40.0 46.75 -36.45 45.65 -32.7 46.05 L-31.4 50.0 -35.35 52.25 -32.75 47.55 Q-38.55 45.95 -43.0 49.95 L-37.2 53.3" fill="#454545" fill-rule="evenodd" stroke="none"/>
    <path d="M27.2 -29.15 Q19.6 -29.15 14.25 -23.45 8.9 -17.8 8.9 -9.75 L0.4 -11.05 Q1.9 -8.75 4.1 -7.1 7.1 -4.9 10.85 -5.3 13.3 -10.65 17.45 -14.55 20.7 -17.65 25.0 -19.2 33.3 -22.3 38.2 -14.7 41.25 -10.0 39.35 -4.65 37.55 0.2 32.6 1.45 32.15 3.85 30.75 6.0 27.45 11.0 21.55 12.15 12.75 13.85 6.5 7.6 L6.25 5.45 Q-2.5 7.4 -11.25 5.55 -25.1 2.45 -32.05 -9.8 -38.05 -20.45 -34.35 -32.0 -30.9 -42.65 -20.25 -45.75 -7.3 -49.5 5.45 -45.0 18.65 -40.2 27.2 -29.15" fill="#888888" fill-rule="evenodd" stroke="none"/>
  </g>
</svg>
