<?xml version="1.0" encoding="UTF-8" standalone="no"?>
<svg xmlns:xlink="http://www.w3.org/1999/xlink" height="131.2px" width="133.5px" xmlns="http://www.w3.org/2000/svg">
  <g transform="matrix(1.0, 0.0, 0.0, 1.0, 71.35, 78.4)">
    <path d="M14.75 -74.75 L12.8 -74.35 Q11.65 -74.4 10.85 -74.75 10.05 -75.1 10.05 -75.65 10.05 -76.2 10.85 -76.55 11.65 -76.95 12.8 -76.95 L14.75 -76.55 Q15.55 -76.2 15.55 -75.65 15.55 -75.1 14.75 -74.75 M11.4 -58.5 Q25.55 -59.3 34.6 -48.35 43.95 -37.0 40.95 -22.45 40.15 -18.75 38.3 -15.35 L41.9 -19.8 Q49.4 -6.7 41.25 5.75 36.8 12.55 28.8 12.45 33.8 2.15 28.95 -8.3 L28.4 -9.35 28.55 -10.15 Q30.55 -12.05 31.1 -14.65 31.85 -18.65 30.5 -22.5 L28.95 -22.8 Q30.5 -14.55 25.95 -7.55 L25.0 -6.2 17.55 -4.4 Q20.6 -3.05 23.7 -4.5 25.7 -5.45 27.6 -5.45 32.15 7.85 21.85 17.0 15.85 22.35 9.2 18.45 3.35 15.05 3.05 8.35 L-2.5 6.45 -1.5 8.15 Q-11.8 9.2 -19.9 2.9 L-21.7 1.35 -17.35 1.9 Q-31.7 -0.7 -37.1 -14.15 -38.1 -16.6 -38.45 -19.2 -35.2 -9.75 -25.5 -9.6 L-24.05 -9.7 Q-35.8 -14.95 -39.4 -27.3 -42.6 -38.0 -36.5 -47.3 -30.55 -56.45 -19.6 -58.4 -9.4 -60.15 0.25 -56.1 L-2.25 -49.15 -0.6 -49.45 Q2.2 -55.0 8.05 -57.35 L11.4 -58.5 M34.5 -41.7 Q30.65 -47.55 24.0 -49.5 11.2 -53.15 2.1 -43.5 L1.25 -42.2 -4.5 -43.85 Q-6.85 -50.8 -13.85 -52.35 -23.2 -54.55 -29.3 -47.15 -35.1 -40.2 -31.45 -31.85 -26.0 -19.25 -13.3 -13.9 -0.6 -8.6 12.25 -13.7 13.9 -14.4 15.35 -15.5 22.55 -21.2 30.25 -26.3 L33.3 -28.75 Q39.2 -34.55 34.5 -41.7 M57.8 -27.05 L58.85 -30.0 61.0 -26.95 59.8 -25.9 57.8 -27.05 M25.95 1.2 L24.65 1.15 Q13.65 1.15 11.55 12.05 L15.05 17.15 Q26.3 13.1 25.95 1.2 M-38.05 52.15 L-41.55 49.65 -40.4 47.65 -39.5 47.5 -33.0 51.05 -36.3 52.35 -38.05 52.15 M-67.35 -50.9 Q-65.9 -50.9 -64.85 -50.2 -63.8 -49.5 -63.8 -48.45 -63.8 -47.45 -64.85 -46.75 -65.9 -46.05 -67.35 -46.0 -68.85 -46.05 -69.85 -46.75 -70.9 -47.45 -70.9 -48.45 -70.9 -49.5 -69.85 -50.2 -68.85 -50.9 -67.35 -50.9" fill="#666666" fill-rule="evenodd" stroke="none"/>
    <path d="M14.75 -74.75 Q15.55 -75.1 15.55 -75.65 15.55 -76.2 14.75 -76.55 L12.8 -76.95 Q11.65 -76.95 10.85 -76.55 10.05 -76.2 10.05 -75.65 10.05 -75.1 10.85 -74.75 11.65 -74.4 12.8 -74.35 L14.75 -74.75 M1.8 -57.85 L3.4 -58.6 Q15.7 -63.95 27.3 -57.2 33.15 -53.85 37.2 -48.35 45.5 -36.9 42.8 -23.05 44.0 -22.15 44.85 -20.85 46.1 -19.0 46.3 -16.75 46.5 -14.75 45.65 -13.0 47.15 -9.25 47.1 -5.15 47.0 3.3 41.15 9.45 35.35 15.5 26.9 15.5 L25.15 17.75 Q19.9 23.25 12.45 21.6 3.45 19.45 1.9 10.1 L0.55 9.2 Q-3.55 9.95 -7.6 9.35 -18.65 8.0 -27.7 1.1 -36.9 -5.85 -39.05 -17.4 -39.75 -21.35 -40.95 -25.1 -44.0 -34.8 -40.6 -44.1 -36.85 -54.35 -26.5 -58.0 -12.3 -63.0 1.8 -57.85 M10.25 -77.65 Q11.4 -78.4 13.1 -78.4 14.8 -78.4 16.0 -77.65 17.15 -76.85 17.15 -75.75 17.15 -74.7 16.0 -73.9 14.8 -73.15 13.1 -73.15 11.4 -73.15 10.25 -73.9 9.05 -74.7 9.05 -75.75 9.05 -76.85 10.25 -77.65 M11.4 -58.5 L8.05 -57.35 Q2.2 -55.0 -0.6 -49.45 L-2.25 -49.15 0.25 -56.1 Q-9.4 -60.15 -19.6 -58.4 -30.55 -56.45 -36.5 -47.3 -42.6 -38.0 -39.4 -27.3 -35.8 -14.95 -24.05 -9.7 L-25.5 -9.6 Q-35.2 -9.75 -38.45 -19.2 -38.1 -16.6 -37.1 -14.15 -31.7 -0.7 -17.35 1.9 L-21.7 1.35 -19.9 2.9 Q-11.8 9.2 -1.5 8.15 L-2.5 6.45 3.05 8.35 Q3.35 15.05 9.2 18.45 15.85 22.35 21.85 17.0 32.15 7.85 27.6 -5.45 25.7 -5.45 23.7 -4.5 20.6 -3.05 17.55 -4.4 L25.0 -6.2 25.95 -7.55 Q30.5 -14.55 28.95 -22.8 L30.5 -22.5 Q31.85 -18.65 31.1 -14.65 30.55 -12.05 28.55 -10.15 L28.4 -9.35 28.95 -8.3 Q33.8 2.15 28.8 12.45 36.8 12.55 41.25 5.75 49.4 -6.7 41.9 -19.8 L38.3 -15.35 Q40.15 -18.75 40.95 -22.45 43.95 -37.0 34.6 -48.35 25.55 -59.3 11.4 -58.5 M61.3 -30.6 Q62.15 -29.55 62.15 -28.1 62.15 -26.65 61.3 -25.6 60.45 -24.6 59.3 -24.6 58.1 -24.6 57.25 -25.6 56.4 -26.65 56.45 -28.1 56.4 -29.55 57.25 -30.6 58.1 -31.65 59.3 -31.6 60.45 -31.65 61.3 -30.6 M57.8 -27.05 L59.8 -25.9 61.0 -26.95 58.85 -30.0 57.8 -27.05 M-67.2 -51.5 Q-65.45 -51.5 -64.25 -50.55 -63.05 -49.6 -63.0 -48.25 -63.05 -46.9 -64.25 -45.95 -65.45 -45.0 -67.2 -45.0 -68.95 -45.0 -70.15 -45.95 -71.35 -46.9 -71.35 -48.25 -71.35 -49.6 -70.15 -50.55 -68.95 -51.5 -67.2 -51.5 M-67.35 -50.9 Q-68.85 -50.9 -69.85 -50.2 -70.9 -49.5 -70.9 -48.45 -70.9 -47.45 -69.85 -46.75 -68.85 -46.05 -67.35 -46.0 -65.9 -46.05 -64.85 -46.75 -63.8 -47.45 -63.8 -48.45 -63.8 -49.5 -64.85 -50.2 -65.9 -50.9 -67.35 -50.9 M-36.3 52.35 L-33.0 51.05 -39.5 47.5 -40.4 47.65 -41.55 49.65 -38.05 52.15 -42.35 51.65 -42.5 48.15 -41.0 46.2 -31.8 49.9 -32.3 52.8 -36.3 52.35" fill="#454545" fill-rule="evenodd" stroke="none"/>
    <path d="M34.5 -41.7 Q39.2 -34.55 33.3 -28.75 L30.25 -26.3 Q22.55 -21.2 15.35 -15.5 13.9 -14.4 12.25 -13.7 -0.6 -8.6 -13.3 -13.9 -26.0 -19.25 -31.45 -31.85 -35.1 -40.2 -29.3 -47.15 -23.2 -54.55 -13.85 -52.35 -6.85 -50.8 -4.5 -43.85 L1.25 -42.2 2.1 -43.5 Q11.2 -53.15 24.0 -49.5 30.65 -47.55 34.5 -41.7 M25.95 1.2 Q26.3 13.1 15.05 17.15 L11.55 12.05 Q13.65 1.15 24.65 1.15 L25.95 1.2" fill="#888888" fill-rule="evenodd" stroke="none"/>
  </g>
</svg>
