<?xml version="1.0" encoding="UTF-8" standalone="no"?>
<svg xmlns:xlink="http://www.w3.org/1999/xlink" height="128.8px" width="130.8px" xmlns="http://www.w3.org/2000/svg">
  <g transform="matrix(1.0, 0.0, 0.0, 1.0, 70.25, 77.45)">
    <path d="M13.5 -75.4 L12.7 -75.6 Q12.35 -75.85 12.35 -76.1 12.35 -76.45 12.7 -76.65 L13.5 -76.85 14.35 -76.65 14.65 -76.1 14.35 -75.6 13.5 -75.4 M7.95 -53.25 L4.35 -50.15 Q15.75 -54.4 27.05 -49.85 37.7 -45.55 39.6 -34.1 40.8 -26.65 35.55 -21.2 L40.65 -22.25 Q43.55 -16.35 40.4 -10.45 37.5 -5.15 31.5 -4.5 L30.7 -5.4 29.65 -5.65 30.15 -4.1 Q32.3 3.95 26.35 10.05 20.65 15.9 12.7 13.85 1.45 11.0 -0.25 -0.5 L-2.25 -1.15 Q-15.75 -5.9 -22.9 -18.15 -28.8 -28.2 -26.25 -39.5 -24.05 -49.45 -14.9 -53.75 -3.4 -59.25 7.95 -53.25 M36.7 -33.95 L36.15 -36.3 Q32.85 -48.95 19.95 -50.9 L18.2 -48.05 33.65 -33.15 36.7 -33.95 M22.35 -38.05 L21.1 -37.75 Q29.15 -31.75 29.65 -21.8 30.05 -12.95 24.15 -6.65 14.0 4.15 -0.05 -0.4 10.4 5.0 20.4 -0.7 28.45 -5.3 30.5 -14.15 33.9 -28.7 22.35 -38.05 M21.35 -16.9 Q21.9 -18.4 21.8 -19.9 20.85 -32.65 10.65 -40.85 5.05 -45.4 -1.95 -46.65 -10.8 -48.3 -16.0 -41.4 -19.45 -36.75 -18.8 -30.85 -17.6 -19.8 -8.45 -13.25 3.5 -4.65 16.55 -10.8 19.85 -13.15 21.35 -16.9 M59.4 -28.1 Q59.05 -27.65 58.6 -27.65 L57.8 -28.1 Q57.5 -28.55 57.5 -29.1 57.5 -29.7 57.8 -30.15 L58.6 -30.6 Q59.05 -30.6 59.4 -30.15 L59.7 -29.1 59.4 -28.1 M23.2 5.85 L20.25 9.45 23.6 10.65 26.2 7.6 25.95 5.2 23.2 5.85 M-66.8 -49.95 L-67.95 -47.9 -67.95 -47.85 -69.05 -47.6 -69.15 -49.6 -66.8 -49.95 M-33.45 -25.95 L-32.9 -26.85 Q-30.85 -30.65 -32.9 -34.5 L-33.45 -25.95 M-29.1 -17.35 Q-33.05 -19.6 -34.4 -23.9 -38.35 -36.65 -28.2 -45.75 -31.3 -30.4 -25.65 -15.85 -27.5 -16.4 -29.1 -17.35 M-35.25 50.8 L-40.65 48.3 -33.45 48.85 -33.5 51.35 -35.25 50.8" fill="#666666" fill-rule="evenodd" stroke="none"/>
    <path d="M11.55 -75.95 Q11.55 -76.55 12.15 -77.0 L13.6 -77.45 Q14.45 -77.45 15.05 -77.0 L15.65 -75.95 Q15.6 -75.4 15.05 -74.95 14.45 -74.5 13.6 -74.5 12.75 -74.5 12.15 -74.95 11.55 -75.4 11.55 -75.95 M13.5 -75.4 L14.35 -75.6 14.65 -76.1 14.35 -76.65 13.5 -76.85 12.7 -76.65 Q12.35 -76.45 12.35 -76.1 12.35 -75.85 12.7 -75.6 L13.5 -75.4 M7.95 -53.25 Q-3.4 -59.25 -14.9 -53.75 -24.05 -49.45 -26.25 -39.5 -28.8 -28.2 -22.9 -18.15 -15.75 -5.9 -2.25 -1.15 L-0.25 -0.5 Q1.45 11.0 12.7 13.85 20.65 15.9 26.35 10.05 32.3 3.95 30.15 -4.1 L29.65 -5.65 30.7 -5.4 31.5 -4.5 Q37.5 -5.15 40.4 -10.45 43.55 -16.35 40.65 -22.25 L35.55 -21.2 Q40.8 -26.65 39.6 -34.1 37.7 -45.55 27.05 -49.85 15.75 -54.4 4.35 -50.15 L7.95 -53.25 M22.35 -38.05 Q33.9 -28.7 30.5 -14.15 28.45 -5.3 20.4 -0.7 10.4 5.0 -0.05 -0.4 14.0 4.15 24.15 -6.65 30.05 -12.95 29.65 -21.8 29.15 -31.75 21.1 -37.75 L22.35 -38.05 M31.9 -2.55 Q34.1 8.75 23.95 14.0 15.75 18.2 7.9 13.4 4.05 11.0 1.35 7.35 -0.9 4.3 -3.7 1.95 -10.6 -4.0 -18.6 -8.3 -19.45 -8.75 -20.15 -9.35 -22.95 -11.9 -25.0 -15.25 -36.45 -18.05 -36.95 -29.85 -37.2 -35.25 -34.5 -40.0 -29.45 -49.0 -20.2 -53.7 -5.7 -61.05 9.0 -53.9 23.2 -57.65 34.5 -48.35 40.75 -43.15 42.1 -34.9 43.7 -24.55 42.8 -14.25 42.05 -5.85 34.45 -3.05 L31.9 -2.55 M58.55 -31.8 Q59.35 -31.85 59.95 -31.1 60.55 -30.4 60.55 -29.35 60.55 -28.35 59.95 -27.65 59.35 -26.95 58.55 -26.9 57.7 -26.95 57.1 -27.65 56.5 -28.35 56.5 -29.35 56.5 -30.4 57.1 -31.1 57.7 -31.85 58.55 -31.8 M59.4 -28.1 L59.7 -29.1 59.4 -30.15 Q59.05 -30.6 58.6 -30.6 L57.8 -30.15 Q57.5 -29.7 57.5 -29.1 57.5 -28.55 57.8 -28.1 L58.6 -27.65 Q59.05 -27.65 59.4 -28.1 M-66.8 -49.95 L-69.15 -49.6 -69.05 -47.6 -67.95 -47.85 -67.95 -47.9 -66.8 -49.95 M-68.1 -50.9 Q-67.25 -50.9 -66.65 -50.25 -66.05 -49.65 -66.0 -48.8 -66.05 -47.95 -66.65 -47.3 -67.25 -46.7 -68.1 -46.7 -69.0 -46.7 -69.6 -47.3 -70.25 -47.95 -70.25 -48.8 -70.25 -49.65 -69.6 -50.25 -69.0 -50.9 -68.1 -50.9 M-29.1 -17.35 Q-27.5 -16.4 -25.65 -15.85 -31.3 -30.4 -28.2 -45.75 -38.35 -36.65 -34.4 -23.9 -33.05 -19.6 -29.1 -17.35 M-35.25 50.8 L-41.55 48.9 -41.0 47.3 -34.25 47.75 -32.6 49.75 -33.5 51.35 -33.45 48.85 -40.65 48.3 -35.25 50.8" fill="#454545" fill-rule="evenodd" stroke="none"/>
    <path d="M36.7 -33.95 L33.65 -33.15 18.2 -48.05 19.95 -50.9 Q32.85 -48.95 36.15 -36.3 L36.7 -33.95 M21.35 -16.9 Q19.85 -13.15 16.55 -10.8 3.5 -4.65 -8.45 -13.25 -17.6 -19.8 -18.8 -30.85 -19.45 -36.75 -16.0 -41.4 -10.8 -48.3 -1.95 -46.65 5.05 -45.4 10.65 -40.85 20.85 -32.65 21.8 -19.9 21.9 -18.4 21.35 -16.9 M23.2 5.85 L25.95 5.2 26.2 7.6 23.6 10.65 20.25 9.45 23.2 5.85 M-33.45 -25.95 L-32.9 -34.5 Q-30.85 -30.65 -32.9 -26.85 L-33.45 -25.95" fill="#888888" fill-rule="evenodd" stroke="none"/>
  </g>
</svg>
