<?xml version="1.0" encoding="UTF-8" standalone="no"?>
<svg xmlns:xlink="http://www.w3.org/1999/xlink" height="71.4px" width="68.7px" xmlns="http://www.w3.org/2000/svg">
  <g transform="matrix(1.0, 0.0, 0.0, 1.0, 29.25, 61.7)">
    <path d="M-9.25 -54.7 L-9.7 -44.9 -8.3 -45.5 Q-8.15 -47.85 -7.45 -50.1 -5.3 -56.7 0.45 -60.65 12.9 -59.3 24.7 -54.95 30.7 -52.8 34.0 -47.45 40.1 -37.6 36.4 -26.55 L35.55 -27.35 33.65 -27.45 33.6 -26.0 37.05 -20.95 Q36.8 -16.3 33.0 -13.55 28.2 -10.1 22.65 -12.35 L21.95 -11.85 27.5 -9.15 Q29.2 -1.85 24.3 3.8 20.0 8.65 13.55 7.75 9.8 7.15 6.9 4.6 -1.8 -2.95 -1.25 -14.85 -3.7 -15.15 -5.9 -16.4 -10.1 -18.9 -12.75 -23.0 L-24.0 -23.2 Q-28.75 -28.85 -26.6 -35.95 -22.45 -49.5 -9.3 -54.8 L-9.25 -54.7 M-16.95 -46.5 Q-18.6 -44.3 -19.2 -41.5 -21.2 -32.65 -13.6 -27.85 -12.0 -29.45 -11.2 -31.45 -7.85 -40.05 -14.8 -46.5 L-16.95 -46.5 M27.4 -31.05 L28.9 -31.05 Q34.0 -40.7 27.0 -49.3 24.05 -52.9 19.6 -54.2 7.55 -57.75 0.4 -47.55 L-0.7 -44.65 Q-4.15 -32.0 5.4 -22.95 2.6 -13.5 6.95 -4.8 L8.35 -1.95 Q10.5 2.6 14.9 0.75 15.85 0.4 16.3 -0.55 19.85 -8.15 12.9 -13.2 L15.0 -13.7 16.7 -18.1 26.2 -16.65 26.75 -17.65 Q30.15 -24.2 27.4 -31.05" fill="#666666" fill-rule="evenodd" stroke="none"/>
    <path d="M29.15 -54.5 Q40.95 -45.8 39.2 -31.4 38.8 -28.15 37.35 -25.25 39.85 -20.1 37.15 -15.0 34.85 -10.6 30.05 -9.35 L29.25 -9.25 Q30.6 -1.65 25.75 4.3 19.55 11.8 10.35 8.9 5.2 7.3 2.05 2.9 -3.15 -4.4 -2.2 -13.35 -8.3 -15.6 -12.65 -20.4 L-13.9 -21.8 -25.4 -21.8 Q-31.7 -29.35 -27.75 -38.6 -22.45 -51.05 -10.2 -57.5 -3.4 -61.2 4.35 -61.6 18.15 -62.6 29.15 -54.5 M-9.3 -54.8 Q-22.45 -49.5 -26.6 -35.95 -28.75 -28.85 -24.0 -23.2 L-12.75 -23.0 Q-10.1 -18.9 -5.9 -16.4 -3.7 -15.15 -1.25 -14.85 -1.8 -2.95 6.9 4.6 9.8 7.15 13.55 7.75 20.0 8.65 24.3 3.8 29.2 -1.85 27.5 -9.15 L21.95 -11.85 22.65 -12.35 Q28.2 -10.1 33.0 -13.55 36.8 -16.3 37.05 -20.95 L33.6 -26.0 33.65 -27.45 35.55 -27.35 36.4 -26.55 Q40.1 -37.6 34.0 -47.45 30.7 -52.8 24.7 -54.95 12.9 -59.3 0.45 -60.65 -5.3 -56.7 -7.45 -50.1 -8.15 -47.85 -8.3 -45.5 L-9.7 -44.9 -9.25 -54.7 -9.25 -54.75 -9.3 -54.8" fill="#454545" fill-rule="evenodd" stroke="none"/>
    <path d="M27.4 -31.05 Q30.15 -24.2 26.75 -17.65 L26.2 -16.65 16.7 -18.1 15.0 -13.7 12.9 -13.2 Q19.85 -8.15 16.3 -0.55 15.85 0.4 14.9 0.75 10.5 2.6 8.35 -1.95 L6.95 -4.8 Q2.6 -13.5 5.4 -22.95 -4.15 -32.0 -0.7 -44.65 L0.4 -47.55 Q7.55 -57.75 19.6 -54.2 24.05 -52.9 27.0 -49.3 34.0 -40.7 28.9 -31.05 L27.4 -31.05 M-16.95 -46.5 L-14.8 -46.5 Q-7.85 -40.05 -11.2 -31.45 -12.0 -29.45 -13.6 -27.85 -21.2 -32.65 -19.2 -41.5 -18.6 -44.3 -16.95 -46.5" fill="#888888" fill-rule="evenodd" stroke="none"/>
  </g>
</svg>
