<?xml version="1.0" encoding="UTF-8" standalone="no"?>
<svg xmlns:xlink="http://www.w3.org/1999/xlink" height="59.6px" width="52.35px" xmlns="http://www.w3.org/2000/svg">
  <g transform="matrix(1.0, 0.0, 0.0, 1.0, 13.2, 61.15)">
    <path d="M7.8 -58.8 Q-1.5 -52.25 1.4 -41.0 3.7 -32.0 12.35 -28.05 20.0 -24.5 27.15 -29.15 28.2 -29.85 28.65 -30.95 32.9 -43.05 23.7 -52.5 17.75 -58.6 9.1 -59.2 L6.25 -60.1 Q19.6 -60.4 28.15 -50.35 33.55 -44.0 34.05 -35.6 34.55 -26.7 27.35 -21.15 18.9 -14.7 9.1 -19.15 -4.0 -25.1 -6.05 -39.45 -7.2 -47.15 -3.1 -53.75 -0.55 -57.9 4.3 -58.65 L7.8 -58.8 M36.5 -38.15 Q40.5 -27.5 32.6 -19.3 L31.05 -20.0 Q36.95 -27.55 36.55 -37.0 L36.5 -38.15 M10.15 -4.7 L7.15 -16.5 13.05 -12.6 10.15 -4.7 M21.25 -11.4 L15.6 -13.3 Q20.25 -12.75 24.5 -15.0 25.9 -15.75 27.1 -16.8 25.85 -13.0 22.15 -11.7 L21.25 -11.4 M-7.9 -52.15 L-7.25 -35.75 -9.7 -35.8 Q-14.5 -43.25 -9.4 -50.35 L-7.9 -52.15" fill="#666666" fill-rule="evenodd" stroke="none"/>
    <path d="M9.1 -59.2 L13.75 -56.1 7.8 -58.8 4.3 -58.65 Q-0.55 -57.9 -3.1 -53.75 -7.2 -47.15 -6.05 -39.45 -4.0 -25.1 9.1 -19.15 18.9 -14.7 27.35 -21.15 34.55 -26.7 34.05 -35.6 33.55 -44.0 28.15 -50.35 19.6 -60.4 6.25 -60.1 L9.1 -59.2 M36.4 -40.1 L37.25 -39.85 Q38.4 -37.5 38.85 -34.85 40.4 -24.8 33.45 -17.95 L29.85 -18.75 24.6 -10.5 23.9 -10.25 Q21.25 -9.55 18.6 -10.25 15.95 -10.9 14.05 -12.8 L14.15 -12.15 Q14.6 -9.05 13.4 -6.1 12.3 -3.4 10.0 -1.55 5.8 -8.6 6.7 -16.75 L4.7 -18.35 Q-3.35 -25.1 -7.6 -34.75 -9.2 -35.1 -10.45 -36.0 -13.5 -38.2 -13.15 -41.95 -12.15 -54.2 -0.4 -59.1 9.15 -63.0 18.8 -59.4 32.6 -54.2 36.4 -40.1 M-7.9 -52.15 L-9.4 -50.35 Q-14.5 -43.25 -9.7 -35.8 L-7.25 -35.75 -7.9 -52.15 M21.25 -11.4 L22.15 -11.7 Q25.85 -13.0 27.1 -16.8 25.9 -15.75 24.5 -15.0 20.25 -12.75 15.6 -13.3 L21.25 -11.4 M10.15 -4.7 L13.05 -12.6 7.15 -16.5 10.15 -4.7 M36.5 -38.15 L36.55 -37.0 Q36.95 -27.55 31.05 -20.0 L32.6 -19.3 Q40.5 -27.5 36.5 -38.15" fill="#454545" fill-rule="evenodd" stroke="none"/>
    <path d="M9.1 -59.2 Q17.75 -58.6 23.7 -52.5 32.9 -43.05 28.65 -30.95 28.2 -29.85 27.15 -29.15 20.0 -24.5 12.35 -28.05 3.7 -32.0 1.4 -41.0 -1.5 -52.25 7.8 -58.8 L13.75 -56.1 9.1 -59.2" fill="#888888" fill-rule="evenodd" stroke="none"/>
  </g>
</svg>
