<?xml version="1.0" encoding="UTF-8" standalone="no"?>
<svg xmlns:xlink="http://www.w3.org/1999/xlink" height="35.1px" width="33.85px" xmlns="http://www.w3.org/2000/svg">
  <g transform="matrix(1.0, 0.0, 0.0, 1.0, 5.75, 60.1)">
    <path d="M16.6 -52.85 Q8.15 -58.2 0.1 -52.05 L0.1 -51.15 Q0.05 -44.0 5.8 -39.65 13.0 -34.65 19.1 -40.65 21.05 -42.65 20.95 -45.4 20.75 -50.3 16.6 -52.85 M17.6 -27.55 Q11.2 -23.8 5.6 -28.95 13.05 -26.45 20.15 -29.9 19.15 -28.45 17.6 -27.55 M3.95 -59.1 Q14.6 -60.75 21.8 -52.95 25.35 -49.05 25.2 -43.95 24.9 -35.3 17.05 -32.1 7.75 -28.4 0.55 -35.1 -5.55 -40.8 -3.7 -48.65 -1.65 -57.7 7.45 -58.25 L3.95 -59.1" fill="#666666" fill-rule="evenodd" stroke="none"/>
    <path d="M26.1 -51.45 Q31.45 -39.45 22.6 -29.7 17.2 -23.75 9.95 -25.3 8.9 -25.5 8.1 -26.1 3.35 -29.75 -0.9 -33.85 -3.7 -36.55 -4.9 -40.15 -7.15 -47.05 -3.4 -53.1 0.65 -59.65 8.35 -60.05 19.7 -60.9 26.1 -51.45 M3.95 -59.1 L7.45 -58.25 Q-1.65 -57.7 -3.7 -48.65 -5.55 -40.8 0.55 -35.1 7.75 -28.4 17.05 -32.1 24.9 -35.3 25.2 -43.95 25.35 -49.05 21.8 -52.95 14.6 -60.75 3.95 -59.1 M17.6 -27.55 Q19.15 -28.45 20.15 -29.9 13.05 -26.45 5.6 -28.95 11.2 -23.8 17.6 -27.55" fill="#454545" fill-rule="evenodd" stroke="none"/>
    <path d="M16.6 -52.85 Q20.75 -50.3 20.95 -45.4 21.05 -42.65 19.1 -40.65 13.0 -34.65 5.8 -39.65 0.05 -44.0 0.1 -51.15 L0.1 -52.05 Q8.15 -58.2 16.6 -52.85" fill="#888888" fill-rule="evenodd" stroke="none"/>
  </g>
</svg>
