<?xml version="1.0" encoding="UTF-8" standalone="no"?>
<svg xmlns:xlink="http://www.w3.org/1999/xlink" height="28.4px" width="29.8px" xmlns="http://www.w3.org/2000/svg">
  <g transform="matrix(1.0, 0.0, 0.0, 1.0, 5.65, 62.9)">
    <path d="M6.6 -56.0 L9.0 -58.35 8.1 -59.0 4.8 -58.5 Q12.3 -61.7 19.9 -58.35 22.0 -55.0 22.4 -51.2 23.25 -42.05 15.75 -37.05 14.1 -36.05 12.25 -35.95 1.7 -36.75 -0.45 -47.25 -1.9 -48.5 -2.35 -50.25 L-2.35 -51.15 Q-0.9 -56.3 4.6 -58.4 L0.1 -53.4 1.2 -50.55 6.35 -55.7 3.65 -51.2 4.75 -51.0 6.1 -53.3 6.2 -51.6 Q8.0 -49.4 10.7 -48.2 L16.65 -48.05 Q17.6 -51.7 14.55 -53.55 L13.9 -53.9 12.85 -55.6 6.6 -56.0 M17.7 -56.05 Q18.5 -54.5 18.6 -52.8 18.85 -45.65 11.85 -44.55 L5.7 -45.7 4.45 -44.7 Q11.5 -38.45 20.1 -42.2 22.95 -48.9 20.6 -55.75 L17.7 -56.05" fill="#666666" fill-rule="evenodd" stroke="none"/>
    <path d="M4.8 -58.5 L4.6 -58.4 Q-0.9 -56.3 -2.35 -51.15 L-2.35 -50.25 Q-1.9 -48.5 -0.45 -47.25 1.7 -36.75 12.25 -35.95 14.1 -36.05 15.75 -37.05 23.25 -42.05 22.4 -51.2 22.0 -55.0 19.9 -58.35 12.3 -61.7 4.8 -58.5 M6.35 -55.7 L6.6 -56.0 12.85 -55.6 13.9 -53.9 14.55 -53.55 Q17.6 -51.7 16.65 -48.05 L10.7 -48.2 Q8.0 -49.4 6.2 -51.6 L6.1 -53.3 4.75 -51.0 3.65 -51.2 6.35 -55.7 M6.75 -53.95 L6.7 -52.7 Q9.85 -48.15 15.2 -49.4 L16.6 -49.85 Q13.35 -54.6 7.5 -54.7 L6.75 -53.95 M20.75 -59.8 Q27.7 -49.2 20.4 -38.95 19.15 -37.2 17.3 -36.2 9.3 -31.9 3.1 -38.6 0.05 -41.95 -2.1 -45.95 -4.3 -50.0 -5.65 -54.3 L6.1 -62.9 20.75 -59.8" fill="#454545" fill-rule="evenodd" stroke="none"/>
    <path d="M4.8 -58.5 L8.1 -59.0 9.0 -58.35 6.6 -56.0 6.35 -55.7 1.2 -50.55 0.1 -53.4 4.6 -58.4 4.8 -58.5 M17.7 -56.05 L20.6 -55.75 Q22.95 -48.9 20.1 -42.2 11.5 -38.45 4.45 -44.7 L5.7 -45.7 11.85 -44.55 Q18.85 -45.65 18.6 -52.8 18.5 -54.5 17.7 -56.05" fill="#888888" fill-rule="evenodd" stroke="none"/>
  </g>
</svg>
