<?xml version="1.0" encoding="UTF-8" standalone="no"?>
<svg xmlns:xlink="http://www.w3.org/1999/xlink" height="23.45px" width="27.15px" xmlns="http://www.w3.org/2000/svg">
  <g transform="matrix(1.0, 0.0, 0.0, 1.0, 0.55, 62.6)">
    <path d="M20.55 -51.25 L20.45 -52.45 Q20.15 -54.4 18.6 -55.55 11.55 -60.7 3.95 -55.75 5.95 -48.65 11.55 -43.8 L12.25 -43.8 Q19.2 -44.15 20.55 -51.0 L20.55 -51.25 M0.65 -58.6 Q10.5 -63.2 19.85 -57.95 22.3 -56.55 23.55 -54.2 L24.1 -53.0 Q26.5 -46.45 20.8 -42.6 15.15 -38.9 9.25 -41.75 -0.7 -46.6 0.1 -57.7 L0.65 -58.6 M23.55 -54.2 L23.05 -49.95 18.5 -43.4 19.95 -44.1 Q23.6 -46.3 24.0 -50.4 24.15 -52.4 23.55 -54.2" fill="#666666" fill-rule="evenodd" stroke="none"/>
    <path d="M20.55 -51.0 Q19.2 -44.15 12.25 -43.8 L11.55 -43.8 Q5.95 -48.65 3.95 -55.75 11.55 -60.7 18.6 -55.55 20.15 -54.4 20.45 -52.45 L20.55 -51.25 Q16.55 -59.35 8.2 -56.35 6.45 -55.65 5.35 -54.15 L13.65 -45.45 Q18.65 -46.35 20.55 -51.0 M23.55 -54.2 Q22.3 -56.55 19.85 -57.95 10.5 -63.2 0.65 -58.6 10.05 -65.95 20.3 -59.85 24.75 -57.25 26.15 -52.2 28.1 -45.1 21.8 -41.4 14.45 -37.05 7.15 -41.15 -2.85 -46.75 0.1 -57.7 -0.7 -46.6 9.25 -41.75 15.15 -38.9 20.8 -42.6 26.5 -46.45 24.1 -53.0 L23.55 -54.2" fill="#454545" fill-rule="evenodd" stroke="none"/>
    <path d="M23.55 -54.2 Q24.15 -52.4 24.0 -50.4 23.6 -46.3 19.95 -44.1 L18.5 -43.4 23.05 -49.95 23.55 -54.2" fill="#888888" fill-rule="evenodd" stroke="none"/>
  </g>
</svg>
