<?xml version="1.0" encoding="UTF-8" standalone="no"?>
<svg xmlns:xlink="http://www.w3.org/1999/xlink" height="23.0px" width="29.25px" xmlns="http://www.w3.org/2000/svg">
  <g transform="matrix(1.0, 0.0, 0.0, 1.0, 0.7, 64.15)">
    <path d="M25.75 -52.6 L25.25 -52.6 26.75 -54.8 22.75 -61.6 18.1 -63.75 Q26.7 -61.85 27.4 -53.1 L25.75 -52.6 M0.8 -54.75 L0.8 -54.35 1.4 -51.65 3.4 -52.2 2.75 -50.25 11.45 -43.15 Q9.15 -43.75 7.25 -45.0 1.05 -49.1 -0.25 -56.4 L2.35 -57.75 2.9 -57.95 0.8 -54.75 M20.95 -46.05 L21.05 -46.15 Q17.95 -40.75 11.55 -43.1 16.9 -42.6 20.95 -46.05" fill="#666666" fill-rule="evenodd" stroke="none"/>
    <path d="M25.25 -52.6 L24.0 -52.65 25.45 -54.2 22.65 -60.05 10.15 -63.15 Q12.6 -64.1 15.2 -64.15 24.55 -64.3 27.8 -55.85 28.4 -54.3 28.55 -52.6 L25.75 -52.6 27.4 -53.1 Q26.7 -61.85 18.1 -63.75 L22.75 -61.6 26.75 -54.8 25.25 -52.6 M2.9 -57.95 L5.0 -58.7 0.8 -54.75 2.9 -57.95 M0.8 -54.35 L2.45 -52.35 4.35 -53.5 4.05 -51.05 Q6.35 -47.7 10.05 -46.35 16.25 -44.05 22.25 -47.3 22.25 -44.6 20.15 -42.9 17.2 -40.6 13.5 -41.35 1.05 -44.0 -0.7 -56.55 L2.35 -57.75 -0.25 -56.4 Q1.05 -49.1 7.25 -45.0 9.15 -43.75 11.45 -43.15 L2.75 -50.25 3.4 -52.2 1.4 -51.65 0.8 -54.35 M20.95 -46.05 Q16.9 -42.6 11.55 -43.1 17.95 -40.75 21.05 -46.15 L20.95 -46.05" fill="#454545" fill-rule="evenodd" stroke="none"/>
  </g>
</svg>
