<?xml version="1.0" encoding="UTF-8" standalone="no"?>
<svg xmlns:xlink="http://www.w3.org/1999/xlink" height="21.1px" width="29.05px" xmlns="http://www.w3.org/2000/svg">
  <g transform="matrix(1.0, 0.0, 0.0, 1.0, 0.45, 65.65)">
    <path d="M18.15 -64.25 L20.15 -64.75 Q23.45 -64.8 25.65 -62.35 L26.25 -61.65 18.15 -64.25 M0.05 -54.85 L0.2 -54.5 0.05 -54.85" fill="#666666" fill-rule="evenodd" stroke="none"/>
    <path d="M20.15 -64.75 L23.9 -65.65 Q25.85 -64.15 27.15 -62.0 28.2 -60.35 28.6 -58.45 L28.5 -58.05 27.45 -57.85 Q21.5 -64.0 13.0 -62.95 L18.15 -64.25 26.25 -61.65 25.65 -62.35 Q23.45 -64.8 20.15 -64.75 M0.05 -54.85 L-0.45 -56.25 3.7 -57.75 4.75 -55.3 Q9.1 -46.15 19.25 -46.6 L17.1 -44.65 14.35 -44.55 Q5.2 -45.25 1.2 -52.5 L0.2 -54.5 0.05 -54.85" fill="#454545" fill-rule="evenodd" stroke="none"/>
  </g>
</svg>
