<?xml version="1.0" encoding="UTF-8" standalone="no"?>
<svg xmlns:xlink="http://www.w3.org/1999/xlink" height="39.25px" width="39.2px" xmlns="http://www.w3.org/2000/svg">
  <g transform="matrix(1.0, 0.0, 0.0, 1.0, 0.55, 37.9)">
    <path d="M36.85 -27.95 Q44.15 -23.0 21.7 -16.8 15.25 -13.7 19.45 -8.45 20.95 -6.3 26.55 -7.3 32.1 -8.35 33.3 -4.1 34.45 0.15 19.65 -4.25 4.8 -8.7 1.6 0.55 -0.15 2.15 -0.55 0.55 3.35 -39.65 9.9 -37.8 10.95 -37.85 11.85 -35.25 12.75 -31.9 17.95 -31.6 30.7 -31.95 36.85 -27.95" fill="#fdd3ca" fill-opacity="0.7137255" fill-rule="evenodd" stroke="none"/>
    <path d="M-0.55 0.55 Q-0.15 2.15 1.6 0.55 4.8 -8.7 19.65 -4.25 34.45 0.15 33.3 -4.1 32.1 -8.35 26.55 -7.3 20.95 -6.3 19.45 -8.45 15.25 -13.7 21.7 -16.8 44.15 -23.0 36.85 -27.95" fill="none" stroke="#d66b6b" stroke-linecap="round" stroke-linejoin="round" stroke-width="0.05"/>
    <path d="M36.85 -27.95 Q30.7 -31.95 17.95 -31.6 12.75 -31.9 11.85 -35.25 10.95 -37.85 9.9 -37.8 3.35 -39.65 -0.55 0.55 Z" fill="none" stroke="#d66b6b" stroke-linecap="round" stroke-linejoin="round" stroke-width="0.05"/>
  </g>
</svg>
