<?xml version="1.0" encoding="UTF-8" standalone="no"?>
<svg xmlns:xlink="http://www.w3.org/1999/xlink" height="121.8px" width="56.8px" xmlns="http://www.w3.org/2000/svg">
  <g transform="matrix(1.0, 0.0, 0.0, 1.0, 0.0, 0.0)">
    <path d="M5.1 6.45 L5.1 6.1 5.15 6.3 5.2 6.1 5.2 6.5 7.55 15.0 7.5 15.0 7.45 15.05 6.95 15.35 6.65 15.45 6.6 15.45 6.55 15.5 6.4 15.5 6.4 15.55 6.55 15.55 6.6 32.0 12.05 29.2 12.0 14.8 13.75 14.95 13.8 14.9 13.5 6.15 11.45 14.55 10.85 14.25 13.75 3.9 16.6 14.2 16.5 14.3 15.95 14.55 15.7 14.7 15.65 14.7 15.6 14.7 15.5 14.75 15.6 14.75 15.6 27.6 21.5 24.65 21.5 17.95 21.65 18.0 23.45 18.1 23.25 9.6 20.8 17.65 20.35 17.4 23.25 7.05 26.05 17.35 25.95 17.45 25.45 17.7 25.2 17.85 25.15 17.85 25.1 17.85 25.0 17.9 24.95 17.9 24.9 17.95 25.1 17.95 25.1 23.25 30.6 20.55 30.55 19.05 30.5 19.05 30.45 19.0 30.35 19.0 30.0 18.8 31.95 19.0 32.05 19.05 32.1 18.75 32.0 10.4 29.95 18.8 29.35 18.5 31.85 8.5 33.5 14.4 Q35.0 10.85 37.65 8.3 43.15 3.0 49.05 1.5 44.6 3.35 40.35 7.4 35.3 12.25 34.3 20.9 L33.8 21.05 34.15 21.2 34.2 21.25 33.4 21.65 34.2 21.25 34.25 21.25 34.25 107.75 5.1 121.8 5.1 120.75 Q4.05 120.7 3.8 120.2 L3.8 89.95 6.6 88.8 6.75 118.75 6.8 118.75 12.35 116.1 13.15 115.7 13.8 116.2 14.25 116.4 Q15.0 116.55 15.7 115.6 L15.7 114.45 15.7 115.6 Q15.0 116.55 14.25 116.4 L13.8 116.2 13.15 115.7 12.35 116.1 12.05 31.9 6.45 34.6 6.1 34.8 6.45 34.6 6.6 74.45 6.6 76.3 5.15 76.85 Q4.4 77.05 3.8 76.05 L3.8 35.1 1.45 34.5 3.8 33.45 3.8 15.55 3.9 15.55 3.9 15.5 3.8 15.5 3.75 15.45 3.7 15.45 3.4 15.35 2.9 15.05 2.8 15.0 5.1 6.45 M1.85 90.65 L0.0 89.3 0.0 77.7 3.8 76.05 Q4.4 77.05 5.15 76.85 L6.6 76.3 6.6 74.45 8.35 73.65 8.4 73.7 10.45 75.05 1.85 79.05 1.85 90.65 M15.5 14.75 L15.45 14.75 15.4 14.8 13.75 14.95 15.4 14.8 15.45 14.75 15.5 14.75 M13.5 29.55 L14.5 29.9 14.45 15.95 14.4 15.9 13.5 15.8 13.5 29.55 12.3 29.5 13.5 29.6 13.5 29.55 M3.9 15.55 L3.95 15.55 5.0 15.7 5.1 15.7 5.2 15.7 5.3 15.7 6.35 15.55 6.4 15.55 6.35 15.55 5.3 15.7 5.2 15.7 5.1 15.7 5.0 15.7 3.95 15.55 3.9 15.55 M6.1 34.8 L6.05 34.8 6.1 34.8 M6.6 32.0 L6.6 34.3 3.8 34.15 3.8 33.45 3.8 34.15 6.6 34.3 6.6 32.0 M14.7 30.65 L12.05 31.9 14.7 30.65 13.6 31.45 13.65 115.7 13.95 116.2 14.25 116.35 14.3 116.4 14.75 115.6 14.75 30.65 14.7 30.65 M15.6 30.2 L14.75 30.65 15.6 30.2 15.7 114.45 21.75 111.55 22.55 111.15 23.05 111.6 Q23.35 111.85 23.65 111.9 24.45 112.1 25.1 111.05 L25.1 109.9 25.1 111.05 Q24.45 112.1 23.65 111.9 23.35 111.85 23.05 111.6 L22.55 111.15 21.75 111.55 21.5 27.4 15.6 30.2 M22.5 26.9 L21.5 27.4 22.5 26.9 22.55 28.05 22.55 26.9 22.5 26.9 M25.1 25.65 L24.25 26.1 22.55 26.9 24.25 26.1 25.1 25.65 25.1 109.9 30.9 107.15 31.7 106.75 32.5 107.1 31.7 106.75 30.9 107.15 30.7 22.95 25.1 25.65 M33.4 21.65 L30.7 22.95 33.4 21.65 33.95 21.3 33.4 21.65 32.1 22.45 32.1 106.75 32.5 107.1 33.4 107.75 33.4 107.45 34.25 107.75 33.4 107.45 33.4 21.65 M6.05 34.8 L4.9 35.4 3.8 35.1 4.9 35.4 6.05 34.8 M12.05 29.2 Q12.45 29.9 13.65 30.0 14.75 30.1 15.6 29.6 L15.6 27.6 15.6 29.6 Q14.75 30.1 13.65 30.0 12.45 29.9 12.05 29.2 M30.6 20.55 L30.75 20.75 31.65 21.5 31.6 21.8 31.65 21.5 30.75 20.75 30.6 20.55 M31.65 21.5 Q31.75 20.3 32.0 19.25 L32.05 19.05 32.0 19.25 Q31.75 20.3 31.65 21.5 M33.8 21.05 L33.4 21.2 Q32.75 21.75 32.1 21.65 L31.6 21.8 32.1 21.65 Q32.75 21.75 33.4 21.2 L33.8 21.05 M32.0 19.25 L30.55 19.05 32.0 19.25 M32.1 18.75 Q32.6 16.4 33.5 14.4 32.6 16.4 32.1 18.75 M24.9 17.95 Q23.45 18.45 21.65 18.0 23.45 18.45 24.9 17.95 M24.0 25.35 L24.0 18.9 23.0 18.7 23.05 25.1 23.05 25.15 23.15 25.15 23.9 25.35 23.15 25.15 23.75 25.2 23.9 25.35 24.0 25.45 24.0 25.35 25.1 25.05 25.1 23.25 25.1 25.05 24.0 25.35 M21.5 24.65 L23.05 25.1 21.5 24.65 M22.9 26.9 L22.9 111.15 23.15 111.6 23.65 111.9 23.75 111.9 24.25 111.05 24.25 26.1 22.9 26.9 M5.3 80.75 L5.4 80.5 Q5.7 79.9 6.1 79.9 L6.85 80.5 7.2 81.75 6.95 83.05 6.55 83.9 6.55 86.55 5.6 87.0 5.6 84.3 5.4 83.55 5.3 83.35 5.1 82.2 5.3 80.75 M0.0 77.7 L1.85 79.05 0.0 77.7 M6.7 119.85 L6.8 118.75 6.7 119.85 Q5.9 120.55 5.3 120.7 L5.1 120.75 5.3 120.7 Q5.9 120.55 6.7 119.85" fill="#666666" fill-rule="evenodd" stroke="none"/>
    <path d="M12.0 14.8 L11.95 14.8 11.9 14.75 11.8 14.75 11.45 14.55 13.5 6.15 13.8 14.9 13.75 14.95 12.0 14.8 M21.5 17.95 L21.45 17.95 21.4 17.9 21.3 17.9 20.8 17.65 23.25 9.6 23.45 18.1 21.65 18.0 21.5 17.95 M30.0 18.8 L29.95 18.8 32.0 10.4 32.1 18.75 32.05 19.05 31.95 19.0 30.0 18.8 M3.8 89.95 L1.85 90.65 1.85 79.05 10.45 75.05 10.45 87.0 6.6 88.8 3.8 89.95 M13.5 29.55 L13.5 15.8 14.4 15.9 14.45 15.95 14.5 29.9 13.5 29.55 M14.7 30.65 L14.75 30.65 14.75 115.6 14.3 116.4 14.25 116.35 13.95 116.2 13.65 115.7 13.6 31.45 14.7 30.65 M33.4 21.65 L33.95 21.3 33.4 21.65 33.4 107.45 33.4 107.75 32.5 107.1 32.1 106.75 32.1 22.45 33.4 21.65 M23.05 25.1 L23.0 18.7 24.0 18.9 24.0 25.35 23.9 25.35 23.75 25.2 23.15 25.15 23.05 25.1 M22.9 26.9 L24.25 26.1 24.25 111.05 23.75 111.9 23.65 111.9 23.15 111.6 22.9 111.15 22.9 26.9 M5.3 80.75 L5.1 82.2 5.3 83.35 5.4 83.55 5.6 84.3 5.6 87.0 6.55 86.55 6.55 83.9 6.95 83.05 7.2 81.75 6.85 80.5 6.1 79.9 Q5.7 79.9 5.4 80.5 L5.3 80.75" fill="#b4b4b4" fill-rule="evenodd" stroke="none"/>
    <path d="M13.5 29.55 L13.5 29.6 12.3 29.5 13.5 29.55 M24.0 25.35 L24.0 25.45 23.9 25.35 24.0 25.35 M23.15 25.15 L23.05 25.15 23.05 25.1 23.15 25.15" fill="#999999" fill-rule="evenodd" stroke="none"/>
    <path d="M49.05 1.5 Q52.35 0.15 55.8 0.0 L56.8 0.0 56.8 1.1 55.8 1.0 49.05 1.5" fill="#9e9e9e" fill-rule="evenodd" stroke="none"/>
    <path d="M6.55 15.5 L6.55 15.55 6.6 32.0 12.05 29.2 Q12.45 29.9 13.65 30.0 14.75 30.1 15.6 29.6 L15.6 27.6 21.5 24.65 23.05 25.1 23.15 25.15 23.9 25.35 24.0 25.35 25.1 25.05 25.1 23.25 30.6 20.55 30.75 20.75 31.65 21.5 31.6 21.8 M12.0 14.8 L11.95 14.8 11.9 14.75 11.8 14.75 11.45 14.55 M15.6 14.7 L15.6 14.75 15.6 27.6 M21.5 17.95 L21.45 17.95 21.4 17.9 21.3 17.9 20.8 17.65 M25.1 17.85 L25.1 17.95 25.1 23.25 M30.55 19.05 L30.5 19.05 30.45 19.0 30.35 19.0 30.0 18.8 29.95 18.8 M33.5 14.4 Q35.0 10.85 37.65 8.3 43.15 3.0 49.05 1.5 52.35 0.15 55.8 0.0 L56.8 0.0 M56.8 1.1 L55.8 1.0 49.05 1.5 Q44.6 3.35 40.35 7.4 35.3 12.25 34.3 20.9 M33.8 21.05 L34.15 21.2 34.25 21.25 34.25 107.75 5.1 121.8 M3.8 33.45 L3.8 15.55 3.8 15.5 3.9 15.5 3.9 15.55 3.95 15.55 5.0 15.7 5.1 15.7 5.2 15.7 5.3 15.7 6.35 15.55 6.4 15.55 6.4 15.5 6.55 15.5 M12.0 14.8 L13.75 14.95 15.4 14.8 15.45 14.75 15.5 14.75 15.6 14.7 M3.8 33.45 L3.8 34.15 6.6 34.3 6.6 32.0 M6.05 34.8 L6.1 34.8 M6.45 34.6 L12.05 31.9 14.7 30.65 M14.75 30.65 L15.6 30.2 21.5 27.4 22.5 26.9 22.55 26.9 24.25 26.1 25.1 25.65 30.7 22.95 33.4 21.65 34.2 21.25 34.25 21.25 M32.05 19.05 L32.1 18.75 Q32.6 16.4 33.5 14.4 M32.05 19.05 L32.0 19.25 Q31.75 20.3 31.65 21.5 M30.55 19.05 L32.0 19.25 M25.1 17.85 L25.0 17.9 24.95 17.9 24.9 17.95 Q23.45 18.45 21.65 18.0 L21.5 17.95 M8.35 73.65 L6.6 74.45 M8.35 73.65 L8.4 73.65 8.4 73.7 10.45 75.05 M30.9 107.15 L25.1 109.9 25.1 111.05 Q24.45 112.1 23.65 111.9 23.35 111.85 23.05 111.6 L22.55 111.15 21.75 111.55 15.7 114.45 15.7 115.6 Q15.0 116.55 14.25 116.4 L13.8 116.2 13.15 115.7 12.35 116.1 6.8 118.75 6.75 118.75 6.6 88.8 M6.7 119.85 Q5.9 120.55 5.3 120.7 L5.1 120.75 M32.5 107.1 L31.7 106.75 30.9 107.15 M33.4 107.45 L34.25 107.75 M25.1 25.65 L25.1 109.9 M15.6 30.2 L15.7 114.45" fill="none" stroke="#333333" stroke-linecap="round" stroke-linejoin="round" stroke-width="0.05"/>
    <path d="M5.2 6.5 L7.55 15.0 7.5 15.0 7.45 15.05 6.95 15.35 6.65 15.45 6.6 15.45 6.55 15.5 M12.05 29.2 L12.0 14.8 M11.45 14.55 L10.85 14.25 13.75 3.9 16.6 14.2 16.5 14.3 15.95 14.55 15.7 14.7 15.65 14.7 15.6 14.7 M21.5 24.65 L21.5 17.95 M20.8 17.65 L20.35 17.4 23.25 7.05 26.05 17.35 25.95 17.45 25.45 17.7 25.2 17.85 25.15 17.85 25.1 17.85 M30.6 20.55 L30.55 19.05 M29.95 18.8 L29.35 18.5 31.85 8.5 33.5 14.4 M34.3 20.9 L33.8 21.05 33.4 21.2 Q32.75 21.75 32.1 21.65 L31.6 21.8 M5.1 120.75 Q4.05 120.7 3.8 120.2 L3.8 89.95 1.85 90.65 0.0 89.3 0.0 77.7 1.85 79.05 1.85 90.65 M3.8 76.05 L3.8 35.1 1.45 34.5 3.8 33.45 M3.8 15.5 L3.75 15.45 3.7 15.45 3.4 15.35 2.9 15.05 2.8 15.0 5.1 6.45 M6.1 34.8 L6.45 34.6 6.6 74.45 6.6 76.3 5.15 76.85 Q4.4 77.05 3.8 76.05 M3.8 35.1 L4.9 35.4 6.05 34.8 M5.3 80.75 L5.1 82.2 5.3 83.35 5.4 83.55 5.6 84.3 5.6 87.0 6.55 86.55 6.55 83.9 6.95 83.05 7.2 81.75 6.85 80.5 6.1 79.9 Q5.7 79.9 5.4 80.5 L5.3 80.75 M6.6 88.8 L10.45 87.0 10.45 75.05 1.85 79.05 M6.8 118.75 L6.7 119.85 M30.9 107.15 L30.7 22.95 M3.8 89.95 L6.6 88.8 M21.75 111.55 L21.5 27.4 M12.35 116.1 L12.05 31.9" fill="none" stroke="#444444" stroke-linecap="round" stroke-linejoin="round" stroke-width="0.05"/>
  </g>
</svg>
