<?xml version="1.0" encoding="UTF-8" standalone="no"?>
<svg xmlns:xlink="http://www.w3.org/1999/xlink" height="175.05px" width="87.5px" xmlns="http://www.w3.org/2000/svg">
  <g transform="matrix(1.0, 0.0, 0.0, 1.0, 43.75, 87.5)">
    <path d="M-10.25 -56.2 Q-10.75 -59.25 -18.5 -59.35 -26.3 -59.45 -32.65 -66.35 -39.3 -75.25 -30.8 -81.8 -33.05 -76.1 -28.15 -73.7 -28.8 -74.7 -28.6 -76.1 -28.45 -77.5 -29.0 -77.9 -27.0 -78.0 -25.45 -75.4 -23.8 -72.3 -20.5 -72.05 L-19.8 -72.0 Q-24.35 -75.7 -21.8 -83.5 -20.05 -76.8 -14.8 -73.0 -16.2 -78.2 -10.6 -84.85 -10.5 -76.9 -6.3 -73.05 -5.25 -76.4 -2.05 -79.45 1.75 -83.15 1.5 -87.5 5.8 -84.95 3.75 -74.65 5.15 -77.85 5.6 -80.65 L6.2 -83.95 Q6.65 -82.25 7.5 -81.15 L7.6 -84.75 Q8.1 -82.85 9.55 -81.65 12.6 -78.95 14.25 -76.3 17.7 -79.2 20.05 -83.2 20.5 -77.8 17.4 -72.05 19.85 -72.8 22.0 -73.85 24.45 -76.6 24.55 -79.8 25.55 -78.1 25.3 -75.75 29.45 -78.6 31.95 -82.8 31.0 -76.7 29.15 -72.3 33.4 -73.45 42.35 -80.25 39.7 -73.45 30.55 -68.05 33.65 -68.0 43.75 -74.4 L40.9 -69.85 Q29.9 -51.8 17.05 -55.3 10.6 -57.1 4.1 -55.25 L4.0 -55.35 3.65 -55.6 3.6 -55.6 2.95 -55.75 2.5 -55.7 2.35 -55.65 1.85 -55.35 1.4 -54.85 1.15 -54.85 0.85 -54.85 0.2 -54.5 0.1 -54.45 0.0 -54.3 -0.35 -54.35 -0.65 -54.3 -0.9 -54.25 -1.3 -54.0 -1.4 -53.95 -1.7 -53.55 -1.7 -53.6 Q-2.15 -54.0 -2.75 -54.0 L-3.05 -53.95 Q-3.45 -53.9 -3.7 -53.65 L-3.8 -53.6 -4.15 -53.05 -4.2 -53.1 Q-4.2 -53.7 -4.6 -54.15 L-5.1 -54.45 -5.2 -54.45 -5.65 -54.55 -5.95 -54.5 -6.6 -54.2 -6.7 -54.9 -6.95 -54.8 -7.1 -54.95 -8.0 -55.2 -8.25 -55.2 -8.6 -55.85 Q-9.05 -56.3 -9.65 -56.3 L-10.25 -56.2 M1.95 -57.3 L2.45 -57.6 6.1 -59.05 Q10.25 -59.95 13.3 -63.3 10.25 -59.95 6.1 -59.05 L2.45 -57.6 1.95 -57.3 M0.7 -64.75 Q4.25 -68.25 5.55 -73.75 4.25 -68.25 0.7 -64.75 M15.25 -72.3 L15.35 -71.2 17.4 -72.05 15.35 -71.2 15.15 -68.3 Q14.5 -65.25 12.1 -63.25 14.5 -65.25 15.15 -68.3 L15.35 -71.2 15.25 -72.3 15.15 -73.1 15.25 -72.3 Q17.55 -75.6 18.8 -78.8 17.55 -75.6 15.25 -72.3 M12.1 -76.6 L11.8 -77.5 12.1 -76.6 M15.05 -73.75 L14.6 -75.7 14.25 -76.3 14.6 -75.7 15.05 -73.75 M8.2 -79.65 L7.5 -81.15 8.2 -79.65 M-9.5 -58.05 L-8.15 -57.1 -7.55 -56.35 -7.5 -56.3 Q-7.1 -55.65 -7.1 -54.95 -7.1 -55.65 -7.5 -56.3 L-7.55 -56.35 -8.15 -57.1 -9.5 -58.05 M22.0 -73.85 L25.3 -75.75 22.0 -73.85 M-0.7 -58.55 Q1.1 -60.45 6.9 -62.7 12.95 -65.9 11.15 -74.4 12.95 -65.9 6.9 -62.7 1.1 -60.45 -0.7 -58.55 M15.35 -64.35 Q23.0 -66.5 28.5 -75.45 23.0 -66.5 15.35 -64.35 M34.4 -67.15 L33.3 -65.9 34.4 -67.15 M30.55 -68.05 L27.1 -66.5 30.55 -68.05 M34.45 -72.95 Q32.95 -71.55 31.1 -70.5 32.95 -71.55 34.45 -72.95 M22.8 -58.8 L21.15 -58.4 22.8 -58.8 M32.45 -64.95 Q28.3 -60.7 23.8 -59.1 28.3 -60.7 32.45 -64.95 M11.15 -60.15 L15.1 -60.95 Q23.25 -63.0 27.3 -68.9 L29.15 -72.3 27.3 -68.9 Q23.25 -63.0 15.1 -60.95 L11.15 -60.15 M3.8 -57.65 Q2.35 -56.6 1.85 -55.35 2.35 -56.6 3.8 -57.65 M4.9 -38.25 Q3.75 -36.2 3.55 -33.8 3.35 -31.25 4.3 -30.0 L4.4 -29.75 4.55 -29.3 4.6 -28.85 4.65 -28.45 4.8 -28.45 Q5.65 -26.95 6.9 -28.1 L6.45 -27.05 6.05 -26.05 5.2 -24.3 3.75 -21.85 Q2.85 -19.9 3.15 -17.9 L3.25 -17.4 3.5 -16.3 Q1.5 -12.4 -3.1 -7.7 L-3.05 -8.85 -3.0 -11.65 -2.95 -11.7 -2.65 -11.85 -2.35 -12.05 Q-1.9 -12.55 -1.9 -13.25 -1.9 -13.95 -2.35 -14.4 L-2.75 -14.7 -2.7 -16.25 -2.6 -16.35 -1.95 -16.7 Q-1.5 -17.2 -1.5 -17.9 -1.5 -18.6 -1.95 -19.05 L-2.1 -19.2 Q0.05 -22.65 0.1 -26.1 L0.1 -26.3 Q0.45 -26.8 0.45 -27.45 0.45 -28.2 -0.1 -28.75 -0.65 -29.3 -1.4 -29.3 -2.2 -29.3 -2.7 -28.75 -3.25 -28.2 -3.2 -27.45 L-3.2 -27.3 -3.2 -27.25 Q-8.2 -26.5 -11.15 -29.2 L-11.05 -29.8 Q-11.05 -30.6 -11.6 -31.15 -12.15 -31.65 -12.9 -31.65 -13.65 -31.65 -14.15 -31.15 L-14.2 -31.15 Q-14.25 -32.8 -13.55 -33.7 -12.85 -34.6 -12.6 -35.25 L-12.5 -35.7 -12.4 -35.8 -12.4 -35.85 -10.4 -41.15 -10.15 -41.2 Q-10.55 -39.9 -10.5 -38.4 -10.35 -35.0 -7.7 -30.7 L-4.35 -31.75 Q2.35 -34.2 4.9 -38.25 M1.15 -22.65 L2.85 -23.8 3.3 -24.3 Q4.6 -25.85 4.65 -27.9 L4.65 -28.45 4.65 -27.9 Q4.6 -25.85 3.3 -24.3 L2.85 -23.8 1.15 -22.65 M-19.8 -72.0 L-18.65 -71.15 -19.8 -72.0 M-13.95 -72.45 L-14.8 -73.0 -13.95 -72.45 M-6.85 -68.2 Q-6.85 -64.6 -5.6 -62.75 -6.85 -64.6 -6.85 -68.2 -8.2 -69.9 -11.35 -71.0 -8.2 -69.9 -6.85 -68.2 L-6.65 -71.65 -6.3 -73.05 -6.65 -71.65 -6.85 -68.2 M-28.15 -73.7 L-26.9 -73.2 Q-24.4 -72.3 -20.5 -72.05 -24.4 -72.3 -26.9 -73.2 L-28.15 -73.7 M-12.3 -73.45 Q-13.3 -76.0 -12.3 -79.4 -13.3 -76.0 -12.3 -73.45 M-30.15 -70.3 Q-34.6 -72.25 -33.15 -77.15 -34.6 -72.25 -30.15 -70.3 M-13.95 -65.4 Q-19.15 -68.15 -24.95 -69.85 -19.15 -68.15 -13.95 -65.4 M-26.0 -66.2 Q-19.0 -62.9 -14.2 -62.55 -9.4 -62.25 -8.2 -61.55 -9.4 -62.25 -14.2 -62.55 -19.0 -62.9 -26.0 -66.2 M-1.55 -59.35 Q-3.75 -57.15 -3.05 -53.95 -5.0 -60.5 -0.5 -67.1 2.2 -71.1 3.75 -74.65 2.2 -71.1 -0.5 -67.1 -5.0 -60.5 -3.05 -53.95 -3.75 -57.15 -1.55 -59.35 M-6.75 -60.05 Q-5.35 -58.95 -4.75 -57.15 -5.35 -58.95 -6.75 -60.05 M-9.55 -20.2 Q-10.75 -22.7 -11.0 -25.15 L-10.75 -25.2 Q-9.7 -23.95 -8.15 -23.1 L-3.85 -23.25 -3.6 -23.35 -2.85 -23.75 Q-2.95 -21.5 -3.8 -19.4 L-4.35 -19.05 Q-4.85 -18.6 -4.85 -17.9 L-4.85 -17.8 -4.85 -17.6 -4.35 -16.7 -4.2 -16.6 -4.6 -14.5 -4.7 -14.4 Q-5.2 -13.95 -5.2 -13.25 L-5.2 -13.15 -5.2 -13.0 -5.0 -12.35 -4.7 -12.05 -5.15 -7.85 -6.0 -8.0 -10.3 -6.1 -10.85 -6.85 -10.75 -10.0 -10.65 -12.6 -10.5 -12.7 Q-10.2 -12.8 -9.95 -13.0 -9.5 -13.5 -9.5 -14.15 -9.5 -14.8 -9.95 -15.25 L-10.35 -15.55 -9.9 -17.3 -9.85 -17.4 Q-9.55 -17.5 -9.3 -17.75 -8.85 -18.2 -8.85 -18.85 -8.85 -19.5 -9.3 -19.95 L-9.55 -20.2 M-3.4 -71.0 Q-2.65 -74.7 0.4 -78.35 -2.65 -74.7 -3.4 -71.0" fill="#abafb4" fill-rule="evenodd" stroke="none"/>
    <path d="M4.1 -55.25 L4.4 -54.65 4.35 -54.4 4.4 -54.3 4.15 -53.45 4.1 -53.35 4.0 -53.25 3.4 -52.9 3.05 -50.0 2.45 -48.1 1.7 -46.65 1.65 -46.6 1.65 -46.65 2.2 -48.9 2.2 -49.75 2.2 -49.9 Q1.85 -51.15 0.6 -50.7 L0.35 -50.6 0.15 -50.5 Q-0.8 -48.65 -0.35 -44.0 L-0.45 -43.95 -0.5 -44.0 Q-1.4 -45.6 -1.35 -48.5 -1.15 -49.8 -1.25 -51.7 -0.85 -51.4 -0.35 -51.4 0.25 -51.4 0.7 -51.85 L0.8 -51.95 1.1 -52.9 Q1.1 -53.5 0.7 -53.95 L0.0 -54.3 0.7 -53.95 Q1.1 -53.5 1.1 -52.9 L0.8 -51.95 1.15 -51.9 Q1.75 -51.95 2.2 -52.35 L2.3 -52.45 2.4 -52.65 2.55 -52.9 2.6 -53.4 Q2.6 -54.0 2.2 -54.45 L1.85 -54.7 1.7 -54.8 1.4 -54.85 1.7 -54.8 1.85 -54.7 2.2 -54.45 Q2.6 -54.0 2.6 -53.4 L2.55 -52.9 2.9 -52.85 3.4 -52.9 2.9 -52.85 2.55 -52.9 2.4 -52.65 2.3 -52.45 2.2 -52.35 Q1.75 -51.95 1.15 -51.9 L0.8 -51.95 0.7 -51.85 Q0.25 -51.4 -0.35 -51.4 -0.85 -51.4 -1.25 -51.7 L-1.4 -51.85 -1.45 -51.85 -1.3 -52.55 Q-1.3 -53.15 -1.7 -53.55 -1.3 -53.15 -1.3 -52.55 L-1.45 -51.85 -1.7 -51.5 -1.8 -51.4 -2.5 -51.1 -2.75 -51.05 Q-3.4 -51.05 -3.8 -51.5 L-4.1 -51.9 -4.15 -52.05 -4.25 -52.5 -4.25 -52.55 -4.2 -52.8 -4.15 -53.05 -3.8 -53.6 -3.7 -53.65 Q-3.45 -53.9 -3.05 -53.95 L-2.75 -54.0 Q-2.15 -54.0 -1.7 -53.6 L-1.7 -53.55 -1.4 -53.95 -1.3 -54.0 -0.9 -54.25 -0.65 -54.3 -0.35 -54.35 0.0 -54.3 0.1 -54.45 0.2 -54.5 0.85 -54.85 1.15 -54.85 1.4 -54.85 1.85 -55.35 2.35 -55.65 2.5 -55.7 2.95 -55.75 3.6 -55.6 3.65 -55.6 4.0 -55.35 4.1 -55.25 M0.5 -42.7 Q1.4 -42.0 0.6 -41.45 1.7 -40.7 0.85 -40.25 -3.5 -39.05 -6.0 -41.15 L-4.15 -41.65 -2.1 -42.65 0.5 -42.7 M4.9 -38.25 L7.5 -36.8 8.45 -36.2 8.7 -36.0 8.9 -35.75 8.9 -35.7 8.95 -35.7 Q10.35 -34.75 11.25 -32.9 L12.0 -30.35 11.95 -30.15 12.0 -30.15 11.95 -29.25 12.0 -29.2 11.95 -28.5 16.05 -13.25 Q15.35 -12.05 11.5 -10.05 L11.5 -10.0 Q9.5 -12.4 6.45 -11.0 L12.2 -15.25 7.7 -27.5 7.65 -27.5 6.95 -28.2 6.9 -28.1 Q5.65 -26.95 4.8 -28.45 L4.6 -28.85 4.55 -29.3 4.4 -29.75 4.3 -30.0 Q3.35 -31.25 3.55 -33.8 3.75 -36.2 4.9 -38.25 M6.3 23.55 Q6.05 27.3 6.3 30.6 6.6 34.95 8.75 38.35 10.8 42.55 12.95 45.3 16.25 49.6 19.65 50.4 19.6 51.6 20.8 51.95 L20.85 52.0 20.8 52.0 8.9 57.95 8.5 56.0 10.8 54.85 Q15.25 52.6 19.65 50.4 15.25 52.6 10.8 54.85 L8.5 56.0 5.1 53.55 Q1.9 51.1 1.55 49.8 L1.55 49.25 1.55 43.15 Q1.9 46.2 2.65 48.4 3.85 51.8 5.95 53.15 7.6 54.15 9.8 53.95 L11.25 50.85 9.7 50.95 8.25 50.8 Q6.95 50.55 7.0 49.8 7.35 49.25 6.15 48.15 L5.75 46.7 Q4.9 43.0 4.55 35.45 L6.3 30.6 4.55 35.45 4.25 22.2 4.0 10.85 Q6.8 6.65 8.5 1.6 6.8 6.65 4.0 10.85 L3.5 -5.9 Q6.6 -5.1 8.55 -1.35 L8.5 1.6 8.15 7.85 8.1 8.35 7.55 12.65 7.25 15.15 7.1 16.45 6.85 18.45 6.85 18.5 6.65 20.2 6.65 20.15 6.65 20.25 Q6.4 21.95 6.3 23.55 M-29.3 50.4 L-22.05 46.8 Q-19.4 44.3 -17.7 40.85 L-16.35 37.5 Q-15.0 33.05 -14.9 27.35 L-15.55 21.25 Q-16.0 15.45 -15.95 10.1 L-15.65 2.6 -15.65 2.45 -15.15 -2.6 -15.0 -3.45 -14.75 -5.25 -14.05 -9.1 -13.15 -12.9 -13.1 -12.9 -13.1 -13.0 -13.1 -13.6 -13.0 -13.75 -12.6 -14.55 -12.55 -14.65 -12.3 -15.05 -12.25 -15.1 -12.15 -15.25 -11.7 -15.6 -11.05 -15.7 -10.8 -15.7 -10.35 -15.55 -9.95 -15.25 Q-9.5 -14.8 -9.5 -14.15 -9.5 -13.5 -9.95 -13.0 -10.2 -12.8 -10.5 -12.7 L-10.6 -12.65 -10.65 -12.6 -10.7 -12.6 -11.05 -12.55 -11.75 -12.7 -12.15 -13.0 -12.25 -13.1 -12.3 -13.05 -12.75 -10.1 -12.75 -9.8 -12.95 -8.2 -13.9 -0.25 -14.4 -2.85 -14.75 -5.25 -14.4 -2.85 -13.9 -0.25 -14.05 1.35 -14.2 2.85 -14.3 4.0 -14.45 5.75 Q-15.45 7.85 -15.95 10.1 -15.45 7.85 -14.45 5.75 L-15.05 14.25 -12.55 15.1 -10.75 15.75 -10.85 11.65 -10.85 10.95 -11.0 -0.1 -11.0 -0.6 -10.95 -1.5 -10.9 -5.85 -10.3 -6.1 -6.0 -8.0 -5.15 -7.85 -3.1 -7.55 -3.1 -7.7 Q1.5 -12.4 3.5 -16.3 L3.75 -15.75 4.0 -15.3 4.75 -14.15 4.85 -13.9 4.85 -13.85 5.1 -13.35 5.1 -13.3 5.2 -13.1 5.45 -12.45 5.45 -12.35 5.6 -11.95 5.6 -11.9 5.75 -11.5 6.05 -10.85 5.05 -10.25 3.2 -9.3 1.6 -8.5 0.0 -7.75 Q-0.35 -7.45 2.55 -6.1 L1.55 -5.75 1.5 -5.75 -0.75 -4.95 -3.05 -4.15 -0.75 -4.95 -0.85 -1.35 -1.3 17.1 -1.85 28.1 -2.55 41.1 Q-3.0 47.65 -2.85 50.85 L-2.8 51.2 Q-2.65 52.7 -1.3 54.75 L-0.05 56.45 2.35 59.15 2.75 60.95 -4.9 64.85 -4.85 62.7 -29.3 50.4 M-34.45 -14.9 L-39.3 -12.95 -43.75 -15.7 -38.0 -16.65 -36.35 -17.9 -37.55 -20.1 -33.85 -19.5 -31.6 -17.55 -34.45 -14.9 M-29.35 -18.3 L-28.3 -18.65 -28.6 -15.85 -29.9 -15.65 Q-30.0 -17.3 -29.35 -18.3 M-24.05 -20.05 L-19.1 -21.7 -16.0 -32.75 -16.3 -34.25 Q-16.4 -35.25 -15.9 -36.65 L-15.65 -37.3 -14.3 -39.45 -13.6 -40.1 -13.25 -40.35 -13.05 -40.45 -11.1 -41.05 -10.9 -41.05 -10.4 -41.15 -12.4 -35.85 -12.5 -35.7 -12.6 -35.25 Q-12.85 -34.6 -13.55 -33.7 -14.25 -32.8 -14.2 -31.15 L-14.2 -31.1 -14.15 -31.15 Q-13.65 -31.65 -12.9 -31.65 -12.15 -31.65 -11.6 -31.15 -11.05 -30.6 -11.05 -29.8 L-11.15 -29.2 -11.6 -28.5 Q-11.95 -28.15 -12.4 -28.05 L-12.9 -28.0 -13.05 -28.0 -13.75 -28.2 -13.6 -27.45 -13.6 -27.4 -16.55 -17.7 -22.2 -16.85 -24.05 -16.55 -24.1 -16.55 -24.05 -20.05 M-10.15 -53.4 L-10.6 -53.7 -10.6 -53.75 -10.7 -53.8 Q-11.15 -54.25 -11.1 -54.85 -11.15 -55.45 -10.7 -55.85 L-10.25 -56.2 -9.65 -56.3 Q-9.05 -56.3 -8.6 -55.85 L-8.25 -55.2 -8.0 -55.2 -7.1 -54.95 -6.95 -54.8 -6.7 -54.9 -6.6 -54.2 -5.95 -54.5 -5.65 -54.55 -5.2 -54.45 -5.1 -54.45 -4.6 -54.15 Q-4.2 -53.7 -4.2 -53.1 L-4.25 -52.8 Q-4.3 -52.35 -4.6 -52.05 -5.05 -51.6 -5.65 -51.6 -6.3 -51.6 -6.7 -52.05 L-7.0 -52.45 -7.05 -52.55 -7.05 -52.6 -7.15 -53.1 -6.7 -54.15 -6.6 -54.2 -6.7 -54.15 -7.15 -53.1 -7.05 -52.6 -7.05 -52.55 -7.25 -52.5 -7.75 -52.3 -8.0 -52.3 Q-8.65 -52.3 -9.05 -52.7 L-9.35 -53.1 -9.45 -53.35 -9.5 -53.75 Q-9.5 -54.4 -9.05 -54.8 L-8.3 -55.2 -8.25 -55.2 -8.3 -55.2 -9.05 -54.8 Q-9.5 -54.4 -9.5 -53.75 L-9.45 -53.35 -9.65 -53.35 -10.15 -53.4 M1.7 -46.65 L1.65 -46.65 1.7 -46.65 M4.95 -34.05 L4.85 -34.15 4.85 -34.1 4.95 -34.05 M5.85 -29.75 L6.95 -28.2 5.85 -29.75 M-3.2 -27.25 L-3.2 -27.3 -3.2 -27.45 Q-3.25 -28.2 -2.7 -28.75 -2.2 -29.3 -1.4 -29.3 -0.65 -29.3 -0.1 -28.75 0.45 -28.2 0.45 -27.45 0.45 -26.8 0.1 -26.3 L-0.1 -26.1 -0.75 -25.7 -1.0 -25.65 -1.4 -25.6 -2.2 -25.8 -2.7 -26.1 Q-3.15 -26.55 -3.2 -27.1 L-3.2 -27.25 M-2.1 -19.2 L-1.95 -19.05 Q-1.5 -18.6 -1.5 -17.9 -1.5 -17.2 -1.95 -16.7 L-2.6 -16.35 -2.7 -16.25 -2.7 -16.3 -2.8 -16.25 -3.15 -16.2 -3.9 -16.4 -4.2 -16.6 -4.35 -16.7 -4.85 -17.6 -4.85 -17.8 -4.85 -17.9 Q-4.85 -18.6 -4.35 -19.05 L-3.8 -19.4 -3.15 -19.55 Q-2.6 -19.55 -2.1 -19.2 M-2.75 -14.7 L-2.35 -14.4 Q-1.9 -13.95 -1.9 -13.25 -1.9 -12.55 -2.35 -12.05 L-2.65 -11.85 -2.95 -11.7 -3.0 -11.65 -3.0 -11.7 -2.95 -11.7 -3.0 -11.7 -3.15 -11.65 -3.55 -11.6 -4.25 -11.75 -4.3 -11.75 -4.7 -12.05 -5.0 -12.35 -5.2 -13.0 -5.2 -13.15 -5.2 -13.25 Q-5.2 -13.95 -4.7 -14.4 L-4.6 -14.5 -4.2 -14.75 -3.55 -14.9 -2.75 -14.7 M3.2 -9.3 L4.85 -13.85 3.2 -9.3 M-9.05 -4.65 L-9.95 -5.25 Q-3.4 -7.15 2.55 -6.1 -3.4 -7.15 -9.95 -5.25 L-9.05 -4.65 -7.8 -3.5 -11.0 -0.1 -7.8 -3.5 Q-7.7 -3.6 -7.55 -3.65 L-9.05 -4.65 M-5.5 -3.3 L-6.45 -3.0 -7.55 -3.65 -6.45 -3.0 -5.5 -3.3 -5.95 4.0 -6.1 6.4 -6.35 15.9 -1.95 17.3 Q-2.7 9.1 -2.85 2.05 L-2.95 -0.35 -3.05 -4.15 -5.5 -3.3 M7.25 15.15 Q6.1 19.9 4.25 22.2 6.1 19.9 7.25 15.15 M6.9 45.55 L5.75 46.7 6.9 45.55 M8.15 43.25 Q8.9 41.2 8.75 38.35 8.9 41.2 8.15 43.25 M2.65 48.4 L1.55 49.25 2.65 48.4 M11.95 48.5 Q12.8 47.05 12.95 45.3 12.8 47.05 11.95 48.5 M5.95 53.15 L5.1 53.55 5.95 53.15 M11.25 49.5 L9.7 50.95 11.25 49.5 M-6.95 -54.8 L-6.6 -54.2 -6.95 -54.8 M-7.05 -52.6 L-7.25 -52.5 -7.05 -52.6 M-9.3 -51.9 L-9.2 -52.05 -9.0 -52.15 -8.8 -52.05 -8.65 -51.65 -8.7 -51.45 -8.8 -51.3 -9.0 -51.15 -9.2 -51.3 -9.35 -51.65 -9.3 -51.9 M-9.5 -49.95 L-10.0 -51.1 -10.0 -51.3 Q-9.75 -52.4 -9.2 -52.6 L-9.5 -52.15 -9.7 -51.05 -9.5 -49.95 M-9.1 -49.45 L-8.7 -49.8 -8.8 -49.25 -9.1 -49.45 M-4.6 -50.6 Q-3.9 -49.45 -3.8 -47.85 -4.35 -47.55 -4.95 -47.6 L-4.65 -47.95 -4.45 -49.3 -4.5 -50.05 -4.55 -50.35 -4.6 -50.45 -4.65 -50.65 -4.6 -50.6 -4.6 -50.45 -4.6 -50.6 M-5.85 -47.8 Q-6.15 -47.9 -6.45 -48.1 L-6.1 -50.2 -6.2 -49.3 -5.95 -47.95 -5.85 -47.8 M-4.75 -49.75 L-4.85 -49.65 -5.15 -49.45 -5.45 -49.65 -5.6 -50.1 -5.55 -50.4 -5.45 -50.5 -5.15 -50.65 -4.85 -50.5 -4.65 -50.1 -4.75 -49.75 M0.6 -41.45 L-4.15 -41.65 0.6 -41.45 M-13.75 -28.2 L-13.8 -28.2 -14.2 -28.5 -14.35 -28.7 Q-14.75 -29.2 -14.7 -29.8 -14.7 -30.55 -14.2 -31.1 -14.7 -30.55 -14.7 -29.8 -14.75 -29.2 -14.35 -28.7 L-14.2 -28.5 -13.8 -28.2 -13.75 -28.2 M-11.15 -20.25 L-10.4 -20.45 -10.15 -20.45 -10.1 -20.45 -9.55 -20.2 -9.3 -19.95 Q-8.85 -19.5 -8.85 -18.85 -8.85 -18.2 -9.3 -17.75 -9.55 -17.5 -9.85 -17.4 L-10.05 -17.35 -10.4 -17.3 -11.1 -17.45 -11.55 -17.75 -12.0 -18.6 -12.0 -18.75 -12.0 -18.85 Q-12.0 -19.5 -11.55 -19.95 L-11.15 -20.25 M-11.0 -25.15 L-11.0 -25.25 -10.75 -25.2 -11.0 -25.15 M-11.05 -25.5 L-11.05 -25.55 -11.0 -25.5 -11.05 -25.5 M-2.6 -16.35 L-2.7 -16.3 -2.6 -16.35 M-12.6 -14.55 L-12.65 -14.15 -12.65 -14.0 -12.65 -13.85 -12.4 -13.3 -12.65 -13.85 -12.65 -14.0 -12.65 -14.15 -12.6 -14.55 M-13.1 -12.9 Q-13.15 -11.5 -12.75 -10.1 -13.15 -11.5 -13.1 -12.9 M-12.4 -13.3 L-12.25 -13.1 -12.4 -13.3 M-10.6 -12.65 L-10.65 -12.6 -10.6 -12.65 M-9.95 -5.25 L-10.0 -5.25 Q-6.65 -6.55 -5.15 -7.85 -6.65 -6.55 -10.0 -5.25 L-9.95 -5.25 M-10.0 -5.25 L-10.9 -5.85 -10.0 -5.25 M-6.1 6.4 L-10.85 11.65 -6.1 6.4 M-6.9 22.3 L-5.85 21.15 -6.9 22.3 M-5.05 20.4 L-3.2 18.8 -1.3 17.1 -3.2 18.8 -5.05 20.4 M-15.55 21.25 Q-14.4 18.2 -12.55 15.1 -14.4 18.2 -15.55 21.25 M-1.85 28.1 Q-5.8 32.2 -9.05 36.9 -12.85 42.3 -18.25 45.15 -12.85 42.3 -9.05 36.9 -5.8 32.2 -1.85 28.1 M-18.3 67.5 L-18.3 68.35 -18.3 69.25 -18.3 68.35 -20.6 67.2 -20.6 68.05 -20.6 67.2 -18.3 68.35 -18.3 67.5 M-12.9 70.2 L-12.9 71.95 -12.9 70.2 M-16.95 69.9 L-14.25 69.55 -14.3 71.25 -14.25 69.55 -16.95 69.9 M-17.85 66.15 L-17.85 64.85 -20.15 63.7 -20.15 65.05 -20.15 63.7 -17.85 64.85 -17.85 66.15 M-16.25 66.95 L-16.25 65.25 -16.25 66.95 M-14.25 66.25 L-12.8 67.0 -12.8 68.7 -12.8 67.0 -14.25 66.25 M-17.4 54.8 L-15.4 54.9 -17.4 54.8 M-7.25 53.3 Q-5.05 52.45 -2.8 51.2 -5.05 52.45 -7.25 53.3 M-1.85 57.1 L-0.05 56.45 -1.85 57.1 M-8.45 58.4 L-2.95 57.45 -8.45 58.4 M-19.25 45.65 L-22.05 46.8 -19.25 45.65 M-9.65 25.55 Q-13.5 30.65 -16.35 37.5 -13.5 30.65 -9.65 25.55 M-4.5 43.0 L-2.55 41.1 -4.5 43.0 M-21.45 62.65 L-24.15 63.0 -24.2 63.0 -24.1 61.3 -24.2 63.0 -24.15 63.0 -21.45 62.65 M-24.15 64.55 L-22.15 65.6 -22.15 67.3 -22.15 65.6 -24.15 64.55 M-20.7 64.75 L-20.7 63.0 -20.7 64.75 M-24.15 66.3 L-25.6 65.55 -25.6 63.8 -25.6 65.55 -24.15 66.3 M-20.8 50.05 L-23.0 49.6 -20.8 50.05 M-14.1 54.85 L-8.55 53.8 -14.1 54.85 M-27.1 58.05 L-10.6 66.25 -10.7 74.3 -27.15 66.0 -27.1 58.05 M-25.5 62.35 L-25.5 60.6 -25.5 62.35 M-6.5 44.65 Q-13.4 50.2 -19.55 50.15 -13.4 50.2 -6.5 44.65 M-2.85 2.05 L-0.85 -1.35 -2.85 2.05 M-3.1 -7.55 L0.0 -7.75 -3.1 -7.55 M2.35 59.15 L-4.85 62.7 2.35 59.15" fill="#ced0d5" fill-rule="evenodd" stroke="none"/>
    <path d="M4.4 -54.65 L4.4 -54.6 4.35 -54.4 4.4 -54.65" fill="#fdffc1" fill-rule="evenodd" stroke="none"/>
    <path d="M1.65 -46.6 L1.45 -46.35 1.15 -46.1 1.1 -46.05 0.6 -45.15 0.55 -45.05 0.6 -45.05 Q0.2 -44.05 0.5 -42.7 L-2.1 -42.65 -0.4 -43.9 -2.1 -42.65 -4.15 -41.65 -6.0 -41.15 -6.85 -41.0 -7.2 -41.4 Q-9.05 -43.7 -10.0 -46.0 L-10.15 -50.3 -10.15 -50.5 -10.15 -51.1 -10.15 -51.15 -10.15 -51.3 -10.15 -52.45 -10.15 -52.55 -10.15 -53.4 -9.65 -53.35 -9.45 -53.35 -9.35 -53.1 -9.05 -52.7 Q-8.65 -52.3 -8.0 -52.3 L-7.75 -52.3 -7.25 -52.5 -7.05 -52.55 -7.0 -52.45 -6.7 -52.05 Q-6.3 -51.6 -5.65 -51.6 -5.05 -51.6 -4.6 -52.05 -4.3 -52.35 -4.25 -52.8 L-4.2 -52.8 -4.25 -52.55 -4.25 -52.5 -4.15 -52.05 -4.1 -51.9 -3.8 -51.5 Q-3.4 -51.05 -2.75 -51.05 L-2.5 -51.1 -1.8 -51.4 -1.7 -51.5 -1.45 -51.85 -1.4 -51.85 -1.25 -51.7 Q-1.15 -49.8 -1.35 -48.5 -1.4 -45.6 -0.5 -44.0 L-0.45 -43.95 -0.4 -43.9 -0.35 -43.75 -0.35 -43.95 -0.25 -44.0 0.55 -45.05 -0.25 -44.0 -0.35 -44.0 Q-0.8 -48.65 0.15 -50.5 L0.35 -50.6 0.6 -50.7 Q1.85 -51.15 2.2 -49.9 L2.2 -49.45 2.2 -48.9 1.65 -46.65 1.65 -46.6 M0.85 -40.25 Q1.9 -38.3 4.9 -38.25 2.35 -34.2 -4.35 -31.75 L-7.7 -30.7 Q-10.35 -35.0 -10.5 -38.4 -10.55 -39.9 -10.15 -41.2 L-9.75 -41.25 -9.35 -41.3 -9.05 -41.3 -8.5 -41.35 -8.4 -41.35 -7.2 -41.4 -6.85 -41.0 -6.0 -41.15 Q-3.5 -39.05 0.85 -40.25 M11.5 -10.0 Q13.55 -6.8 13.25 2.6 12.9 12.05 9.4 19.7 8.2 22.3 6.3 23.55 6.4 21.95 6.65 20.25 L6.7 20.2 Q10.45 14.4 10.35 3.7 10.45 14.4 6.7 20.2 L6.65 20.2 6.85 18.5 6.85 18.45 7.1 16.45 7.25 15.15 7.55 12.65 8.1 8.35 8.15 7.85 8.5 1.6 8.55 -1.35 Q6.6 -5.1 3.5 -5.9 L2.55 -6.1 3.5 -5.9 4.0 10.85 4.25 22.2 4.55 35.45 Q4.9 43.0 5.75 46.7 L6.15 48.15 Q7.35 49.25 7.0 49.8 6.95 50.55 8.25 50.8 L9.7 50.95 11.25 50.85 9.8 53.95 Q7.6 54.15 5.95 53.15 3.85 51.8 2.65 48.4 1.9 46.2 1.55 43.15 L1.55 42.2 1.55 -5.75 1.55 42.2 1.55 43.15 1.55 49.25 1.55 49.8 Q1.9 51.1 5.1 53.55 L8.5 56.0 8.9 57.95 9.55 62.95 2.9 66.25 2.75 60.95 2.35 59.15 -0.05 56.45 -1.3 54.75 Q-2.65 52.7 -2.8 51.2 L-2.85 50.85 Q-3.0 47.65 -2.55 41.1 L-1.85 28.1 -1.3 17.1 -0.85 -1.35 -0.75 -4.95 1.5 -5.75 1.55 -5.75 2.55 -6.1 Q-0.35 -7.45 0.0 -7.75 L1.6 -8.5 3.2 -9.3 5.05 -10.25 6.05 -10.85 6.45 -11.0 Q9.5 -12.4 11.5 -10.0 M19.95 61.95 L19.95 64.9 19.15 64.55 18.3 64.15 19.95 61.95 M-15.8 2.4 Q-20.3 -2.6 -24.05 -8.6 L-24.05 45.65 Q-25.6 44.25 -27.1 43.25 L-27.6 42.9 -27.6 45.8 -33.35 43.7 Q-32.75 3.05 -31.95 -15.4 L-31.6 -17.55 -29.35 -18.3 Q-30.0 -17.3 -29.9 -15.65 L-29.05 3.05 -29.4 18.2 -29.05 3.05 -28.6 -15.85 -28.3 -18.65 -24.05 -20.05 -24.1 -16.55 -24.05 -16.55 -22.2 -16.85 Q-19.2 -8.35 -15.0 -3.45 L-15.15 -2.6 -15.65 2.45 -15.8 2.4 Q-20.6 -4.4 -24.05 -13.05 L-24.05 -16.55 -24.05 -13.05 Q-20.6 -4.4 -15.8 2.4 M1.45 -49.85 L0.85 -48.9 0.65 -48.1 0.65 -47.9 1.05 -47.85 1.2 -47.0 1.05 -47.85 0.65 -47.9 0.65 -48.1 0.85 -48.9 1.45 -49.85 M0.1 -26.1 Q0.05 -22.65 -2.1 -19.2 -2.6 -19.55 -3.15 -19.55 L-3.8 -19.4 Q-2.95 -21.5 -2.85 -23.75 L-3.6 -23.35 -3.85 -23.25 -8.15 -23.1 Q-9.7 -23.95 -10.75 -25.2 L-11.0 -25.5 -11.05 -25.55 -11.05 -25.5 -11.05 -25.35 -11.0 -25.3 -11.0 -25.25 -11.0 -25.15 Q-10.75 -22.7 -9.55 -20.2 L-10.1 -20.45 -10.15 -20.45 -10.4 -20.45 -11.15 -20.25 Q-12.8 -23.45 -13.6 -27.4 L-13.6 -27.45 -13.75 -28.2 -13.05 -28.0 -12.9 -28.0 -12.4 -28.05 Q-11.95 -28.15 -11.6 -28.5 L-11.15 -29.2 Q-8.2 -26.5 -3.2 -27.25 L-3.2 -27.1 Q-3.15 -26.55 -2.7 -26.1 L-2.2 -25.8 -1.4 -25.6 -1.0 -25.65 -0.9 -25.55 Q-1.8 -24.4 -2.85 -23.75 -1.8 -24.4 -0.9 -25.55 L-0.75 -25.7 -0.1 -26.1 0.1 -26.1 M-2.7 -16.25 L-2.75 -14.7 -3.55 -14.9 -4.2 -14.75 -4.6 -14.5 -4.2 -16.6 -3.9 -16.4 -3.15 -16.2 -2.8 -16.25 -2.7 -16.25 M-3.0 -11.65 L-3.05 -8.85 -3.1 -7.7 -3.1 -7.55 -5.15 -7.85 -4.7 -12.05 -4.3 -11.75 -4.25 -11.75 -3.55 -11.6 -3.15 -11.65 -3.0 -11.65 M10.35 3.45 Q10.15 -5.0 7.05 -7.75 4.7 -9.8 1.6 -8.5 4.7 -9.8 7.05 -7.75 10.15 -5.0 10.35 3.45 L10.3 3.5 Q9.75 1.0 8.55 -1.35 9.75 1.0 10.3 3.5 L10.35 3.7 10.35 3.45 M-5.5 -3.3 L-3.05 -4.15 -2.95 -0.35 -2.85 2.05 Q-2.7 9.1 -1.95 17.3 L-6.35 15.9 -6.1 6.4 -5.95 4.0 -5.5 -3.3 M8.0 56.3 L8.5 56.0 8.0 56.3 M5.95 51.5 L7.0 49.8 5.95 51.5 M7.25 56.65 L3.65 58.5 7.25 56.65 M16.75 63.45 L15.3 62.85 14.95 60.65 16.75 63.45 M-8.75 -52.35 L-9.15 -52.6 -9.2 -52.6 Q-9.75 -52.4 -10.0 -51.3 L-10.0 -51.1 -9.5 -49.95 -9.5 -49.9 -9.15 -49.45 -9.1 -49.45 -8.8 -49.25 -8.7 -49.8 -8.6 -50.45 -8.5 -50.4 -8.55 -50.95 -8.55 -51.65 -8.55 -52.05 -8.55 -52.1 -8.7 -52.35 -8.75 -52.35 M-8.2 -46.5 Q-9.05 -46.2 -8.95 -47.3 L-8.55 -48.4 -8.45 -49.2 -8.5 -50.4 -8.45 -49.2 -8.55 -48.4 -8.95 -47.3 Q-9.05 -46.2 -8.2 -46.5 M-5.75 -51.15 L-5.75 -51.1 -5.95 -50.65 -6.1 -50.2 -6.45 -48.1 Q-6.15 -47.9 -5.85 -47.8 L-4.95 -47.6 Q-4.35 -47.55 -3.8 -47.85 -3.9 -49.45 -4.6 -50.6 L-4.65 -50.65 Q-5.05 -51.05 -5.65 -51.1 L-5.65 -51.15 -5.75 -51.15 M-6.3 -44.0 L-8.65 -45.2 -6.3 -44.0 M-12.4 -28.05 L-11.7 -26.5 -11.05 -25.55 -11.7 -26.5 -12.4 -28.05 M-4.4 -31.9 L-4.45 -31.8 -4.4 -31.85 -4.4 -31.9 M-5.45 -33.85 Q-7.0 -32.6 -7.7 -30.7 -7.0 -32.6 -5.45 -33.85 M-24.05 -8.6 L-24.05 -13.05 -24.05 -8.6 M-9.9 -17.3 L-10.35 -15.55 -10.8 -15.7 -11.05 -15.7 -11.7 -15.6 -11.1 -17.45 -10.4 -17.3 -10.05 -17.35 -9.9 -17.3 M-10.65 -12.6 L-10.75 -10.0 -10.85 -6.85 -10.9 -6.3 -10.9 -5.85 -10.95 -1.5 -11.0 -0.6 -11.0 -0.1 -10.85 10.95 -10.85 11.65 -10.75 15.75 -12.55 15.1 -15.05 14.25 -14.45 5.75 -14.3 4.0 -14.2 2.85 -14.05 1.35 -13.9 -0.25 -12.95 -8.2 -12.75 -9.8 -12.75 -10.1 -12.3 -13.05 -12.15 -13.0 -11.75 -12.7 -11.05 -12.55 -10.7 -12.6 -10.65 -12.6 M-29.9 39.45 L-29.95 41.65 Q-28.8 42.15 -27.6 42.9 -28.8 42.15 -29.95 41.65 L-29.9 39.45 M-29.85 37.8 L-29.8 35.1 -29.85 37.8 M-29.55 22.85 L-29.5 20.85 -29.55 22.85 M-25.85 11.55 L-25.85 7.5 -25.85 11.55 M-25.85 15.6 L-25.85 14.05 -25.85 15.6 M-0.3 45.25 L-0.25 46.1 -0.3 45.25 M-25.85 6.45 L-25.85 -9.95 -25.85 6.45 M-0.15 47.05 Q0.25 50.25 1.25 50.75 0.25 50.25 -0.15 47.05" fill="#e6e7e8" fill-rule="evenodd" stroke="none"/>
    <path d="M2.2 -49.9 L2.2 -49.75 2.2 -48.9 2.2 -49.45 2.2 -49.9" fill="#fdd85b" fill-rule="evenodd" stroke="none"/>
    <path d="M0.6 -45.15 L0.6 -45.05 0.55 -45.05 0.6 -45.15 M4.95 -34.05 L4.85 -34.1 4.85 -34.15 4.95 -34.05 M-9.3 -51.9 L-9.35 -51.65 -9.2 -51.3 -9.0 -51.15 -8.8 -51.3 -8.7 -51.45 -8.7 -51.05 -8.8 -50.4 Q-8.9 -50.1 -9.1 -50.1 L-9.35 -50.4 -9.5 -51.1 -9.35 -51.75 -9.3 -51.9 M-5.55 -50.4 L-5.6 -50.1 -5.45 -49.65 -5.15 -49.45 -4.85 -49.65 -4.75 -49.75 -4.7 -49.3 -4.9 -48.5 Q-5.1 -48.15 -5.3 -48.15 L-5.7 -48.5 -5.9 -49.35 -5.7 -50.15 -5.55 -50.4 M-11.05 -25.35 L-11.05 -25.5 -11.0 -25.5 -11.05 -25.45 -11.05 -25.35" fill="#737688" fill-rule="evenodd" stroke="none"/>
    <path d="M8.9 -35.75 L8.9 -35.7 8.9 -35.75 M-12.4 -35.8 L-12.5 -35.7 -12.4 -35.85 -12.4 -35.8" fill="#af937e" fill-rule="evenodd" stroke="none"/>
    <path d="M12.0 -30.35 L12.0 -30.15 11.95 -30.15 12.0 -30.35" fill="#9e7865" fill-rule="evenodd" stroke="none"/>
    <path d="M5.75 -11.5 L5.6 -11.9 5.75 -11.6 5.75 -11.5 M-10.6 -12.65 L-10.5 -12.7 -10.55 -12.7 -10.6 -12.65" fill="#858898" fill-rule="evenodd" stroke="none"/>
    <path d="M-9.2 -52.6 L-9.15 -52.6 -8.75 -52.35 -8.65 -52.15 -8.55 -52.05 -8.55 -51.65 -8.55 -50.95 -8.5 -50.4 -8.6 -50.45 -8.7 -49.8 -9.1 -49.45 -9.15 -49.45 -9.5 -49.9 -9.5 -49.95 -9.7 -51.05 -9.5 -52.15 -9.2 -52.6 M-8.7 -51.45 L-8.65 -51.65 -8.8 -52.05 -9.0 -52.15 -9.2 -52.05 -9.3 -51.9 -9.35 -51.75 -9.5 -51.1 -9.35 -50.4 -9.1 -50.1 Q-8.9 -50.1 -8.8 -50.4 L-8.7 -51.05 -8.7 -51.45 M-8.55 -50.95 L-8.6 -50.45 -8.55 -50.95 M-5.75 -51.1 L-5.75 -51.15 -5.65 -51.15 -5.65 -51.1 Q-5.05 -51.05 -4.65 -50.65 L-4.6 -50.45 -4.55 -50.35 -4.55 -50.3 -4.5 -50.05 -4.45 -49.3 -4.65 -47.95 -4.95 -47.6 -5.85 -47.8 -5.95 -47.95 -6.2 -49.3 -6.1 -50.2 -5.95 -50.65 -5.65 -51.1 -5.75 -51.1 M-4.75 -49.75 L-4.65 -50.1 -4.85 -50.5 -5.15 -50.65 -5.45 -50.5 -5.55 -50.4 -5.7 -50.15 -5.9 -49.35 -5.7 -48.5 -5.3 -48.15 Q-5.1 -48.15 -4.9 -48.5 L-4.7 -49.3 -4.75 -49.75" fill="#9193a2" fill-rule="evenodd" stroke="none"/>
    <path d="M-11.1 -41.05 L-10.15 -41.2 -10.4 -41.15 -10.9 -41.05 -11.1 -41.05 M-8.7 -52.35 L-8.55 -52.1 -8.55 -52.05 -8.7 -52.35" fill="#ffdfc8" fill-rule="evenodd" stroke="none"/>
    <path d="M-8.75 -52.35 L-8.7 -52.35 -8.55 -52.05 -8.65 -52.15 -8.75 -52.35 M-9.15 -49.45 L-9.1 -49.45 -9.15 -49.45 M-4.65 -50.65 L-4.6 -50.6 -4.65 -50.65 M-5.95 -50.65 L-5.75 -51.1 -5.65 -51.1 -5.95 -50.65" fill="#ffffff" fill-rule="evenodd" stroke="none"/>
    <path d="M20.85 67.2 Q20.8 68.05 22.1 68.4 L-4.9 82.0 -4.95 82.0 -4.9 80.15 20.85 67.2 M24.8 70.95 L24.8 72.6 -4.95 87.55 -5.0 87.5 -4.95 85.9 24.8 70.95 M-4.4 -31.9 L-4.4 -31.85 -4.45 -31.8 -4.4 -31.9" fill="#afb1ba" fill-rule="evenodd" stroke="none"/>
    <path d="M-10.5 -12.7 L-10.65 -12.6 -10.6 -12.65 -10.55 -12.7 -10.5 -12.7" fill="#bec1c5" fill-rule="evenodd" stroke="none"/>
    <path d="M-34.65 71.0 Q-32.2 71.1 -31.85 68.5 L-4.95 82.0 -4.95 85.9 -34.65 71.0 M-30.55 67.25 L-30.6 61.65 -29.7 61.65 -30.6 60.3 -30.0 60.3 -30.6 59.8 -30.55 51.95 -4.9 64.85 -4.9 71.2 -5.8 71.2 -4.9 73.95 -4.9 80.15 -30.55 67.25 M-27.1 58.05 L-27.15 66.0 -10.7 74.3 -10.6 66.25 -27.1 58.05" fill="#acaeb9" fill-rule="evenodd" stroke="none"/>
    <path d="M20.85 52.0 L20.85 60.8 19.95 61.95 18.3 64.15 19.15 64.55 18.5 65.9 19.15 64.55 19.95 64.9 20.85 65.35 20.85 67.2 -4.9 80.15 -4.9 73.95 -5.8 71.2 -4.9 71.2 -4.9 64.85 2.75 60.95 2.9 66.25 9.55 62.95 8.9 57.95 20.8 52.0 20.85 52.0 M22.1 68.4 Q22.0 70.15 24.8 70.95 L-4.95 85.9 -4.95 82.0 -4.9 82.0 22.1 68.4 M16.5 56.0 L14.6 58.4 14.95 60.65 14.6 58.4 14.4 57.05 14.6 58.4 16.5 56.0 M15.3 62.85 L16.75 63.45 18.3 64.15 16.75 63.45 14.95 60.65 15.3 62.85 13.9 62.15 15.3 62.85" fill="#7e8292" fill-rule="evenodd" stroke="none"/>
    <path d="M-30.55 51.95 Q-29.55 51.9 -29.3 50.4 L-4.85 62.7 -4.9 64.85 -30.55 51.95" fill="#c1c4c8" fill-rule="evenodd" stroke="none"/>
    <path d="M-5.0 87.5 L-34.65 72.65 -34.65 71.0 -4.95 85.9 -5.0 87.5 M-31.85 68.5 Q-30.75 68.35 -30.55 67.25 L-4.9 80.15 -4.95 82.0 -31.85 68.5" fill="#c5c7cb" fill-rule="evenodd" stroke="none"/>
    <path d="M-10.25 -56.2 Q-10.75 -59.25 -18.5 -59.35 -26.3 -59.45 -32.65 -66.35 -39.3 -75.25 -30.8 -81.8 -33.05 -76.1 -28.15 -73.7 -28.8 -74.7 -28.6 -76.1 -28.45 -77.5 -29.0 -77.9 -27.0 -78.0 -25.45 -75.4 -23.8 -72.3 -20.5 -72.05 L-19.8 -72.0 Q-24.35 -75.7 -21.8 -83.5 -20.05 -76.8 -14.8 -73.0 -16.2 -78.2 -10.6 -84.85 -10.5 -76.9 -6.3 -73.05 -5.25 -76.4 -2.05 -79.45 1.75 -83.15 1.5 -87.5 5.8 -84.95 3.75 -74.65 5.15 -77.85 5.6 -80.65 L6.2 -83.95 Q6.65 -82.25 7.5 -81.15 L7.6 -84.75 Q8.1 -82.85 9.55 -81.65 12.6 -78.95 14.25 -76.3 17.7 -79.2 20.05 -83.2 20.5 -77.8 17.4 -72.05 19.85 -72.8 22.0 -73.85 24.45 -76.6 24.55 -79.8 25.55 -78.1 25.3 -75.75 29.45 -78.6 31.95 -82.8 31.0 -76.7 29.15 -72.3 33.4 -73.45 42.35 -80.25 39.7 -73.45 30.55 -68.05 33.65 -68.0 43.75 -74.4 L40.9 -69.85 Q29.9 -51.8 17.05 -55.3 10.6 -57.1 4.1 -55.25 L4.4 -54.65 4.4 -54.6 4.4 -54.3 4.15 -53.45 4.1 -53.35 4.0 -53.25 3.4 -52.9 3.05 -50.0 2.45 -48.1 1.7 -46.65 1.65 -46.6 1.45 -46.35 1.15 -46.1 1.1 -46.05 0.6 -45.15 0.6 -45.05 Q0.2 -44.05 0.5 -42.7 1.4 -42.0 0.6 -41.45 1.7 -40.7 0.85 -40.25 1.9 -38.3 4.9 -38.25 L7.5 -36.8 8.45 -36.2 8.7 -36.0 8.9 -35.75 8.95 -35.7 Q10.35 -34.75 11.25 -32.9 L12.0 -30.35 12.0 -30.15 11.95 -29.25 12.0 -29.2 11.95 -28.5 16.05 -13.25 Q15.35 -12.05 11.5 -10.05 L11.5 -10.0 Q13.55 -6.8 13.25 2.6 12.9 12.05 9.4 19.7 8.2 22.3 6.3 23.55 6.05 27.3 6.3 30.6 6.6 34.95 8.75 38.35 10.8 42.55 12.95 45.3 16.25 49.6 19.65 50.4 19.6 51.6 20.8 51.95 L20.85 51.95 20.85 52.0 20.85 60.8 M19.95 61.95 L19.95 64.9 20.85 65.35 20.85 67.2 Q20.8 68.05 22.1 68.4 22.0 70.15 24.8 70.95 L24.85 70.95 24.8 70.95 24.8 72.6 -4.95 87.55 -5.0 87.5 -34.65 72.65 -34.65 71.0 Q-32.2 71.1 -31.85 68.5 -30.75 68.35 -30.55 67.25 L-30.6 61.65 -29.7 61.65 -30.6 60.3 -30.0 60.3 -30.6 59.8 -30.55 51.95 Q-29.55 51.9 -29.3 50.4 L-22.05 46.8 Q-19.4 44.3 -17.7 40.85 L-16.35 37.5 Q-15.0 33.05 -14.9 27.35 L-15.55 21.25 Q-16.0 15.45 -15.95 10.1 L-15.65 2.6 -15.8 2.4 Q-20.3 -2.6 -24.05 -8.6 L-24.05 45.65 Q-25.6 44.25 -27.1 43.25 L-27.6 42.9 -27.6 45.8 -33.35 43.7 Q-32.75 3.05 -31.95 -15.4 L-34.45 -14.9 -39.3 -12.95 -43.75 -15.7 -38.0 -16.65 -36.35 -17.9 -37.55 -20.1 -33.85 -19.5 -31.6 -17.55 -29.35 -18.3 -28.3 -18.65 -24.05 -20.05 -19.1 -21.7 -16.0 -32.75 -16.3 -34.25 Q-16.4 -35.25 -15.9 -36.65 L-15.65 -37.3 -14.3 -39.45 -13.6 -40.1 -13.25 -40.35 -13.05 -40.45 -11.1 -41.05 -10.15 -41.2 -9.75 -41.25 -9.35 -41.3 -9.05 -41.3 -8.5 -41.35 -8.4 -41.35 -7.2 -41.4 Q-9.05 -43.7 -10.0 -46.0 L-10.15 -50.3 -10.15 -50.5 -10.15 -51.1 -10.15 -51.15 -10.15 -51.3 -10.15 -52.45 -10.15 -52.55 -10.15 -53.4 -10.6 -53.7 -10.7 -53.8 Q-11.15 -54.25 -11.1 -54.85 -11.15 -55.45 -10.7 -55.85 L-10.25 -56.2 -9.65 -56.3 Q-9.05 -56.3 -8.6 -55.85 L-8.25 -55.2 M-7.1 -54.95 Q-7.1 -55.65 -7.5 -56.3 L-7.55 -56.35 -8.15 -57.1 -9.5 -58.05 M7.5 -81.15 L8.2 -79.65 M14.25 -76.3 L14.6 -75.7 15.05 -73.75 M11.8 -77.5 L12.1 -76.6 M17.4 -72.05 L15.35 -71.2 15.15 -68.3 Q14.5 -65.25 12.1 -63.25 M15.15 -73.1 L15.25 -72.3 Q17.55 -75.6 18.8 -78.8 M15.35 -71.2 L15.25 -72.3 M5.55 -73.75 Q4.25 -68.25 0.7 -64.75 M13.3 -63.3 Q10.25 -59.95 6.1 -59.05 L2.45 -57.6 1.95 -57.3 M4.1 -55.25 L4.0 -55.35 3.65 -55.6 3.6 -55.6 2.95 -55.75 2.5 -55.7 2.35 -55.65 1.85 -55.35 1.4 -54.85 M2.55 -52.9 L2.9 -52.85 3.4 -52.9 M-1.25 -51.7 Q-1.15 -49.8 -1.35 -48.5 -1.4 -45.6 -0.5 -44.0 L-0.45 -43.95 -0.4 -43.9 -2.1 -42.65 0.5 -42.7 M-0.35 -44.0 Q-0.8 -48.65 0.15 -50.5 L0.35 -50.6 0.6 -50.7 Q1.85 -51.15 2.2 -49.9 L2.2 -49.75 2.2 -48.9 1.65 -46.65 1.7 -46.65 M1.85 -55.35 Q2.35 -56.6 3.8 -57.65 M29.15 -72.3 L27.3 -68.9 Q23.25 -63.0 15.1 -60.95 L11.15 -60.15 M23.8 -59.1 Q28.3 -60.7 32.45 -64.95 M21.15 -58.4 L22.8 -58.8 M31.1 -70.5 Q32.95 -71.55 34.45 -72.95 M27.1 -66.5 L30.55 -68.05 M33.3 -65.9 L34.4 -67.15 M28.5 -75.45 Q23.0 -66.5 15.35 -64.35 M11.15 -74.4 Q12.95 -65.9 6.9 -62.7 1.1 -60.45 -0.7 -58.55 M25.3 -75.75 L22.0 -73.85 M2.2 -48.9 L2.2 -49.45 2.2 -49.9 M1.2 -47.0 L1.05 -47.85 0.65 -47.9 0.65 -48.1 0.85 -48.9 1.45 -49.85 M0.55 -45.05 L-0.25 -44.0 -0.35 -43.95 -0.35 -43.75 -0.4 -43.9 M0.6 -45.15 L0.55 -45.05 M8.95 -35.7 L8.9 -35.75 8.9 -35.7 8.95 -35.7 M8.9 -35.7 L8.9 -35.75 M4.6 -28.85 L4.55 -29.3 4.4 -29.75 4.3 -30.0 Q3.35 -31.25 3.55 -33.8 3.75 -36.2 4.9 -38.25 2.35 -34.2 -4.35 -31.75 L-7.7 -30.7 Q-10.35 -35.0 -10.5 -38.4 -10.55 -39.9 -10.15 -41.2 L-10.4 -41.15 -12.4 -35.85 -12.4 -35.8 -12.5 -35.7 -12.6 -35.25 Q-12.85 -34.6 -13.55 -33.7 -14.25 -32.8 -14.2 -31.15 L-14.15 -31.15 Q-13.65 -31.65 -12.9 -31.65 -12.15 -31.65 -11.6 -31.15 -11.05 -30.6 -11.05 -29.8 L-11.15 -29.2 Q-8.2 -26.5 -3.2 -27.25 L-3.2 -27.1 Q-3.15 -26.55 -2.7 -26.1 L-2.2 -25.8 -1.4 -25.6 -1.0 -25.65 -0.75 -25.7 -0.1 -26.1 0.1 -26.3 0.1 -26.1 Q0.05 -22.65 -2.1 -19.2 L-1.95 -19.05 Q-1.5 -18.6 -1.5 -17.9 -1.5 -17.2 -1.95 -16.7 L-2.6 -16.35 -2.7 -16.3 -2.8 -16.25 -3.15 -16.2 -3.9 -16.4 -4.2 -16.6 -4.35 -16.7 -4.85 -17.6 -4.85 -17.8 -4.85 -17.9 Q-4.85 -18.6 -4.35 -19.05 L-3.8 -19.4 -3.15 -19.55 Q-2.6 -19.55 -2.1 -19.2 M4.65 -28.45 L4.65 -27.9 Q4.6 -25.85 3.3 -24.3 L2.85 -23.8 1.15 -22.65 M4.65 -28.45 L4.6 -28.85 4.8 -28.45 Q5.65 -26.95 6.9 -28.1 L6.95 -28.2 5.85 -29.75 M-3.2 -27.25 L-3.2 -27.3 -3.2 -27.45 Q-3.25 -28.2 -2.7 -28.75 -2.2 -29.3 -1.4 -29.3 -0.65 -29.3 -0.1 -28.75 0.45 -28.2 0.45 -27.45 0.45 -26.8 0.1 -26.3 M-2.7 -16.25 L-2.75 -14.7 -2.35 -14.4 Q-1.9 -13.95 -1.9 -13.25 -1.9 -12.55 -2.35 -12.05 L-2.65 -11.85 -2.95 -11.7 -3.0 -11.7 -3.0 -11.65 -3.05 -8.85 -3.1 -7.7 Q1.5 -12.4 3.5 -16.3 L3.25 -17.4 3.15 -17.9 Q2.85 -19.9 3.75 -21.85 L5.2 -24.3 6.05 -26.05 6.45 -27.05 6.9 -28.1 M6.95 -28.2 L7.65 -27.5 7.7 -27.5 12.2 -15.25 6.45 -11.0 Q9.5 -12.4 11.5 -10.0 M4.85 -13.85 L4.85 -13.9 4.75 -14.15 4.0 -15.3 3.75 -15.75 3.5 -16.3 M5.6 -11.9 L5.6 -11.95 5.45 -12.35 5.45 -12.45 5.2 -13.1 5.1 -13.3 5.1 -13.35 4.85 -13.85 3.2 -9.3 5.05 -10.25 6.05 -10.85 5.75 -11.5 5.6 -11.9 5.75 -11.6 5.75 -11.5 M6.45 -11.0 L6.05 -10.85 M3.2 -9.3 L1.6 -8.5 Q4.7 -9.8 7.05 -7.75 10.15 -5.0 10.35 3.45 L10.35 3.7 Q10.45 14.4 6.7 20.2 L6.65 20.25 Q6.4 21.95 6.3 23.55 M1.6 -8.5 L0.0 -7.75 Q-0.35 -7.45 2.55 -6.1 L3.5 -5.9 Q6.6 -5.1 8.55 -1.35 9.75 1.0 10.3 3.5 L10.35 3.7 M-0.75 -4.95 L1.5 -5.75 1.55 -5.75 2.55 -6.1 Q-3.4 -7.15 -9.95 -5.25 L-9.05 -4.65 -7.55 -3.65 -6.45 -3.0 -5.5 -3.3 -3.05 -4.15 -0.75 -4.95 -0.85 -1.35 -1.3 17.1 -1.85 28.1 -2.55 41.1 Q-3.0 47.65 -2.85 50.85 L-2.8 51.2 Q-2.65 52.7 -1.3 54.75 L-0.05 56.45 2.35 59.15 2.75 60.95 2.9 66.25 9.55 62.95 8.9 57.95 8.5 56.0 8.0 56.3 M8.55 -1.35 L8.5 1.6 8.15 7.85 8.1 8.35 7.55 12.65 7.25 15.15 7.1 16.45 6.85 18.45 6.85 18.5 6.65 20.2 6.65 20.25 6.65 20.15 6.65 20.25 M8.5 1.6 Q6.8 6.65 4.0 10.85 L4.25 22.2 Q6.1 19.9 7.25 15.15 M6.3 30.6 L4.55 35.45 Q4.9 43.0 5.75 46.7 L6.9 45.55 M1.55 -5.75 L1.55 42.2 1.55 43.15 Q1.9 46.2 2.65 48.4 3.85 51.8 5.95 53.15 7.6 54.15 9.8 53.95 L11.25 50.85 9.7 50.95 8.25 50.8 Q6.95 50.55 7.0 49.8 L5.95 51.5 M1.55 43.15 L1.55 49.25 2.65 48.4 M8.75 38.35 Q8.9 41.2 8.15 43.25 M5.75 46.7 L6.15 48.15 Q7.35 49.25 7.0 49.8 M12.95 45.3 Q12.8 47.05 11.95 48.5 M4.55 35.45 L4.25 22.2 M20.85 52.0 L20.8 51.95 M8.9 57.95 L20.8 52.0 20.85 52.0 M24.8 70.95 L-4.95 85.9 -5.0 87.5 M10.8 54.85 Q15.25 52.6 19.65 50.4 M10.8 54.85 L8.5 56.0 5.1 53.55 Q1.9 51.1 1.55 49.8 L1.55 49.25 M14.95 60.65 L14.6 58.4 14.4 57.05 M14.6 58.4 L16.5 56.0 M5.1 53.55 L5.95 53.15 M3.65 58.5 L7.25 56.65 M16.75 63.45 L15.3 62.85 13.9 62.15 M19.15 64.55 L18.3 64.15 16.75 63.45 14.95 60.65 15.3 62.85 M19.95 64.9 L19.15 64.55 M9.7 50.95 L11.25 49.5 M3.5 -5.9 L4.0 10.85 M-20.5 -72.05 Q-24.4 -72.3 -26.9 -73.2 L-28.15 -73.7 M-11.35 -71.0 Q-8.2 -69.9 -6.85 -68.2 L-6.65 -71.65 -6.3 -73.05 M-5.6 -62.75 Q-6.85 -64.6 -6.85 -68.2 M-14.8 -73.0 L-13.95 -72.45 M-18.65 -71.15 L-19.8 -72.0 M-10.6 -53.75 L-10.6 -53.7 M-5.1 -54.45 L-5.2 -54.45 M-6.7 -54.9 L-6.6 -54.2 M-10.15 -53.4 L-9.65 -53.35 -9.45 -53.35 M-9.2 -52.6 L-9.15 -52.6 -8.75 -52.35 M-8.7 -52.35 L-8.55 -52.1 -8.55 -52.05 -8.55 -51.65 -8.55 -50.95 -8.5 -50.4 -8.45 -49.2 -8.55 -48.4 -8.95 -47.3 Q-9.05 -46.2 -8.2 -46.5 M-8.55 -52.05 L-8.7 -52.35 M-8.55 -52.1 L-8.55 -52.05 M-9.2 -52.6 Q-9.75 -52.4 -10.0 -51.3 L-10.0 -51.1 -9.5 -49.95 -9.5 -49.9 -9.15 -49.45 -9.1 -49.45 -8.8 -49.25 -8.7 -49.8 -8.6 -50.45 -8.55 -50.95 M-8.5 -50.4 L-8.6 -50.45 M-5.75 -51.1 L-5.75 -51.15 M-5.65 -51.1 Q-5.05 -51.05 -4.65 -50.65 L-4.6 -50.6 Q-3.9 -49.45 -3.8 -47.85 -4.35 -47.55 -4.95 -47.6 L-5.85 -47.8 Q-6.15 -47.9 -6.45 -48.1 L-6.1 -50.2 -5.95 -50.65 -5.75 -51.1 -5.65 -51.1 M-3.05 -53.95 L-2.75 -54.0 Q-2.15 -54.0 -1.7 -53.6 L-1.7 -53.55 Q-1.3 -53.15 -1.3 -52.55 L-1.45 -51.85 -1.7 -51.5 -1.8 -51.4 -2.5 -51.1 -2.75 -51.05 Q-3.4 -51.05 -3.8 -51.5 L-4.1 -51.9 -4.15 -52.05 -4.25 -52.5 -4.25 -52.55 -4.2 -52.8 -4.15 -53.05 -3.8 -53.6 -3.7 -53.65 Q-3.45 -53.9 -3.05 -53.95 -3.75 -57.15 -1.55 -59.35 M-4.65 -50.65 L-4.6 -50.6 -4.6 -50.45 M-4.75 -57.15 Q-5.35 -58.95 -6.75 -60.05 M3.75 -74.65 Q2.2 -71.1 -0.5 -67.1 -5.0 -60.5 -3.05 -53.95 M-8.2 -61.55 Q-9.4 -62.25 -14.2 -62.55 -19.0 -62.9 -26.0 -66.2 M-24.95 -69.85 Q-19.15 -68.15 -13.95 -65.4 M-33.15 -77.15 Q-34.6 -72.25 -30.15 -70.3 M-12.3 -79.4 Q-13.3 -76.0 -12.3 -73.45 M-0.35 -43.95 L-0.35 -44.0 M-8.65 -45.2 L-6.3 -44.0 M-6.0 -41.15 L-6.85 -41.0 -7.2 -41.4 M-2.1 -42.65 L-4.15 -41.65 0.6 -41.45 M-6.0 -41.15 L-4.15 -41.65 M-12.4 -35.85 L-12.4 -35.8 M-14.2 -31.1 L-14.2 -31.15 M-14.2 -31.1 Q-14.7 -30.55 -14.7 -29.8 -14.75 -29.2 -14.35 -28.7 L-14.2 -28.5 -13.8 -28.2 -13.75 -28.2 -13.05 -28.0 -12.9 -28.0 -12.4 -28.05 Q-11.95 -28.15 -11.6 -28.5 L-11.15 -29.2 M-13.75 -28.2 L-13.6 -27.45 -13.6 -27.4 Q-12.8 -23.45 -11.15 -20.25 L-10.4 -20.45 -10.15 -20.45 -10.1 -20.45 -9.55 -20.2 Q-10.75 -22.7 -11.0 -25.15 L-11.0 -25.25 -11.0 -25.3 -11.05 -25.35 -11.05 -25.5 -11.0 -25.5 -10.75 -25.2 Q-9.7 -23.95 -8.15 -23.1 L-3.85 -23.25 -3.6 -23.35 -2.85 -23.75 Q-1.8 -24.4 -0.9 -25.55 L-0.75 -25.7 M-11.05 -25.55 L-11.7 -26.5 -12.4 -28.05 M-11.05 -25.55 L-11.0 -25.5 M-11.0 -25.3 L-11.05 -25.45 -11.0 -25.25 -10.75 -25.2 M-7.7 -30.7 Q-7.0 -32.6 -5.45 -33.85 M-29.9 -15.65 Q-30.0 -17.3 -29.35 -18.3 M-29.9 -15.65 L-28.6 -15.85 -28.3 -18.65 M-24.05 -20.05 L-24.1 -16.55 -24.05 -16.55 -22.2 -16.85 -16.55 -17.7 -13.6 -27.4 M-24.05 -16.55 L-24.05 -13.05 Q-20.6 -4.4 -15.8 2.4 M-15.65 2.45 L-15.15 -2.6 -15.0 -3.45 Q-19.2 -8.35 -22.2 -16.85 M-31.6 -17.55 L-31.95 -15.4 M-31.6 -17.55 L-34.45 -14.9 M-24.05 -13.05 L-24.05 -8.6 M-3.8 -19.4 Q-2.95 -21.5 -2.85 -23.75 M-9.55 -20.2 L-9.3 -19.95 Q-8.85 -19.5 -8.85 -18.85 -8.85 -18.2 -9.3 -17.75 -9.55 -17.5 -9.85 -17.4 L-9.9 -17.3 -10.35 -15.55 -9.95 -15.25 Q-9.5 -14.8 -9.5 -14.15 -9.5 -13.5 -9.95 -13.0 -10.2 -12.8 -10.5 -12.7 L-10.55 -12.7 -10.6 -12.65 -10.65 -12.6 -10.7 -12.6 -11.05 -12.55 -11.75 -12.7 -12.15 -13.0 -12.25 -13.1 M-10.85 -6.85 L-10.3 -6.1 -6.0 -8.0 -5.15 -7.85 -4.7 -12.05 -5.0 -12.35 -5.2 -13.0 -5.2 -13.15 -5.2 -13.25 Q-5.2 -13.95 -4.7 -14.4 L-4.6 -14.5 -4.2 -16.6 -3.9 -16.4 M-9.85 -17.4 L-10.05 -17.35 -10.4 -17.3 -11.1 -17.45 -11.7 -15.6 -11.05 -15.7 -10.8 -15.7 -10.35 -15.55 M-2.7 -16.25 L-2.7 -16.3 M-2.75 -14.7 L-3.55 -14.9 -4.2 -14.75 -4.6 -14.5 M-11.1 -17.45 L-11.55 -17.75 -12.0 -18.6 -12.0 -18.75 -12.0 -18.85 Q-12.0 -19.5 -11.55 -19.95 L-11.15 -20.25 M-11.1 -17.45 L-12.25 -15.1 -12.15 -15.25 -11.7 -15.6 M-13.1 -13.0 L-13.1 -13.6 -13.0 -13.75 -12.6 -14.55 -12.55 -14.65 -12.3 -15.05 -12.25 -15.1 M-13.1 -12.9 L-13.1 -13.0 -13.15 -12.9 -14.05 -9.1 -14.75 -5.25 -14.4 -2.85 -13.9 -0.25 M-12.75 -10.1 Q-13.15 -11.5 -13.1 -12.9 M-12.4 -13.3 L-12.65 -13.85 -12.65 -14.0 -12.65 -14.15 -12.6 -14.55 M-10.9 -5.85 L-10.3 -6.1 M-14.75 -5.25 L-15.0 -3.45 M-11.0 -0.1 L-7.8 -3.5 -9.05 -4.65 M-3.15 -11.65 L-3.55 -11.6 -4.25 -11.75 -4.3 -11.75 -4.7 -12.05 M-3.0 -11.7 L-3.15 -11.65 M-3.1 -7.55 L-3.1 -7.7 M-3.1 -7.55 L-5.15 -7.85 Q-6.65 -6.55 -10.0 -5.25 L-9.95 -5.25 M-7.8 -3.5 Q-7.7 -3.6 -7.55 -3.65 M-5.5 -3.3 L-5.95 4.0 -6.1 6.4 -6.35 15.9 -1.95 17.3 Q-2.7 9.1 -2.85 2.05 L-2.95 -0.35 -3.05 -4.15 M-10.9 -5.85 L-10.0 -5.25 M-15.65 2.45 L-15.65 2.6 M-10.85 11.65 L-6.1 6.4 M-15.95 10.1 Q-15.45 7.85 -14.45 5.75 M-15.05 14.25 L-12.55 15.1 -10.75 15.75 M-12.55 15.1 Q-14.4 18.2 -15.55 21.25 M-1.3 17.1 L-3.2 18.8 -5.05 20.4 M-5.85 21.15 L-6.9 22.3 M-29.05 3.05 L-29.4 18.2 M-25.85 14.05 L-25.85 15.6 M-25.85 7.5 L-25.85 11.55 M-29.5 20.85 L-29.55 22.85 M-29.8 35.1 L-29.85 37.8 M-27.6 42.9 Q-28.8 42.15 -29.95 41.65 L-29.9 39.45 M-18.25 45.15 Q-12.85 42.3 -9.05 36.9 -5.8 32.2 -1.85 28.1 M-0.25 46.1 L-0.3 45.25 M-2.55 41.1 L-4.5 43.0 M-16.35 37.5 Q-13.5 30.65 -9.65 25.55 M-22.05 46.8 L-19.25 45.65 M-2.95 57.45 L-8.45 58.4 M-0.05 56.45 L-1.85 57.1 M-2.8 51.2 Q-5.05 52.45 -7.25 53.3 M-15.4 54.9 L-17.4 54.8 M-12.8 68.7 L-12.8 67.0 -14.25 66.25 M-16.25 65.25 L-16.25 66.95 M-20.15 65.05 L-20.15 63.7 -17.85 64.85 -17.85 66.15 M-18.3 69.25 L-18.3 68.35 -20.6 67.2 -20.6 68.05 M-14.3 71.25 L-14.25 69.55 -16.95 69.9 M-12.9 71.95 L-12.9 70.2 M-18.3 68.35 L-18.3 67.5 M-4.9 64.85 L-4.85 62.7 -29.3 50.4 M-4.9 80.15 L-4.9 73.95 -5.8 71.2 -4.9 71.2 -4.9 64.85 -30.55 51.95 M-8.55 53.8 L-14.1 54.85 M-23.0 49.6 L-20.8 50.05 M-25.6 63.8 L-25.6 65.55 -24.15 66.3 M-20.7 63.0 L-20.7 64.75 M-22.15 67.3 L-22.15 65.6 -24.15 64.55 M-24.1 61.3 L-24.2 63.0 -24.15 63.0 -21.45 62.65 M-27.1 58.05 L-10.6 66.25 -10.7 74.3 -27.15 66.0 -27.1 58.05 M-25.5 60.6 L-25.5 62.35 M-4.95 82.0 L-4.9 82.0 22.1 68.4 M-4.95 82.0 L-4.95 85.9 -34.65 71.0 M-4.9 80.15 L-4.95 82.0 -31.85 68.5 M-30.55 67.25 L-4.9 80.15 20.85 67.2 M-19.55 50.15 Q-13.4 50.2 -6.5 44.65 M-25.85 -9.95 L-25.85 6.45 M-0.85 -1.35 L-2.85 2.05 M-29.05 3.05 L-29.9 -15.65 M-28.6 -15.85 L-29.05 3.05 M1.25 50.75 Q0.25 50.25 -0.15 47.05 M0.4 -78.35 Q-2.65 -74.7 -3.4 -71.0 M2.75 60.95 L-4.9 64.85 M-4.85 62.7 L2.35 59.15 M0.0 -7.75 L-3.1 -7.55 M0.85 -40.25 Q-3.5 -39.05 -6.0 -41.15" fill="none" stroke="#565865" stroke-linecap="round" stroke-linejoin="round" stroke-width="0.05"/>
    <path d="M20.85 60.8 L19.95 61.95 18.3 64.15 M-8.25 -55.2 L-8.0 -55.2 -7.1 -54.95 -6.95 -54.8 -6.6 -54.2 -6.7 -54.15 -7.15 -53.1 -7.05 -52.6 -7.05 -52.55 -7.0 -52.45 -6.7 -52.05 Q-6.3 -51.6 -5.65 -51.6 -5.05 -51.6 -4.6 -52.05 -4.3 -52.35 -4.25 -52.8 L-4.2 -53.1 Q-4.2 -53.7 -4.6 -54.15 L-5.1 -54.45 M1.4 -54.85 L1.7 -54.8 1.85 -54.7 2.2 -54.45 Q2.6 -54.0 2.6 -53.4 L2.55 -52.9 2.4 -52.65 2.3 -52.45 2.2 -52.35 Q1.75 -51.95 1.15 -51.9 L0.8 -51.95 0.7 -51.85 Q0.25 -51.4 -0.35 -51.4 -0.85 -51.4 -1.25 -51.7 L-1.4 -51.85 -1.45 -51.85 M-1.7 -53.55 L-1.4 -53.95 -1.3 -54.0 -0.9 -54.25 -0.65 -54.3 -0.35 -54.35 0.0 -54.3 0.1 -54.45 0.2 -54.5 0.85 -54.85 1.15 -54.85 1.4 -54.85 M0.0 -54.3 L0.7 -53.95 Q1.1 -53.5 1.1 -52.9 L0.8 -51.95 M19.15 64.55 L18.5 65.9 M-5.2 -54.45 L-5.65 -54.55 -5.95 -54.5 -6.6 -54.2 M-8.25 -55.2 L-8.3 -55.2 -9.05 -54.8 Q-9.5 -54.4 -9.5 -53.75 L-9.45 -53.35 -9.35 -53.1 -9.05 -52.7 Q-8.65 -52.3 -8.0 -52.3 L-7.75 -52.3 -7.25 -52.5 -7.05 -52.6 M-10.65 -12.6 L-10.75 -10.0 -10.85 -6.85 -10.9 -6.3 -10.9 -5.85 -10.95 -1.5 -11.0 -0.6 -11.0 -0.1 -10.85 10.95 -10.85 11.65 -10.75 15.75 M-13.9 -0.25 L-12.95 -8.2 -12.75 -9.8 -12.75 -10.1 -12.3 -13.05 -12.25 -13.1 -12.4 -13.3 M-10.6 -12.65 L-10.5 -12.7 M-14.45 5.75 L-14.3 4.0 -14.2 2.85 -14.05 1.35 -13.9 -0.25 M-14.45 5.75 L-15.05 14.25" fill="none" stroke="#565865" stroke-linecap="round" stroke-linejoin="round" stroke-width="0.05"/>
  </g>
</svg>
