<?xml version="1.0" encoding="UTF-8" standalone="no"?>
<svg xmlns:xlink="http://www.w3.org/1999/xlink" height="11.8px" width="11.85px" xmlns="http://www.w3.org/2000/svg">
  <g transform="matrix(1.0, 0.0, 0.0, 1.0, 5.9, 5.9)">
    <path d="M4.2 -4.15 Q5.9 -2.45 5.95 0.0 5.9 2.45 4.2 4.2 2.45 5.9 0.0 5.9 -2.45 5.9 -4.15 4.2 -5.9 2.45 -5.9 0.0 -5.9 -2.45 -4.15 -4.15 -2.45 -5.9 0.0 -5.9 2.45 -5.9 4.2 -4.15" fill="#555555" fill-rule="evenodd" stroke="none"/>
    <path d="M4.2 -4.15 Q5.9 -2.45 5.95 0.0 5.9 2.45 4.2 4.2 2.45 5.9 0.0 5.9 -2.45 5.9 -4.15 4.2 -5.9 2.45 -5.9 0.0 -5.9 -2.45 -4.15 -4.15 -2.45 -5.9 0.0 -5.9 2.45 -5.9 4.2 -4.15 Z" fill="none" stroke="#333333" stroke-linecap="round" stroke-linejoin="round" stroke-width="0.05"/>
  </g>
</svg>
