<?xml version="1.0" encoding="UTF-8" standalone="no"?>
<svg xmlns:xlink="http://www.w3.org/1999/xlink" height="135.3px" width="58.75px" xmlns="http://www.w3.org/2000/svg">
  <g transform="matrix(1.0, 0.0, 0.0, 1.0, 29.35, 103.65)">
    <path d="M-2.25 -88.1 L-2.55 -88.25 0.3 -98.6 3.1 -88.25 3.0 -88.2 2.5 -87.9 2.2 -87.8 2.15 -87.8 2.1 -87.75 2.0 -87.75 2.0 -87.7 1.95 -87.7 0.05 -87.5 1.95 -87.7 2.0 -87.7 2.1 -87.7 2.15 -71.15 7.55 -74.05 7.5 -88.45 9.2 -88.3 9.25 -88.35 8.95 -97.1 6.95 -88.7 6.35 -89.0 9.2 -99.35 12.0 -89.0 11.9 -88.95 11.4 -88.65 11.15 -88.55 11.1 -88.55 11.05 -88.5 11.05 -75.65 16.85 -78.6 16.85 -85.3 17.0 -85.25 18.75 -85.15 18.55 -93.65 16.15 -85.6 15.7 -85.85 18.55 -96.2 21.35 -85.85 21.25 -85.8 20.75 -85.5 20.5 -85.4 20.45 -85.4 20.4 -85.35 20.3 -85.35 20.25 -85.3 20.2 -85.3 Q18.75 -84.8 17.0 -85.25 18.75 -84.8 20.2 -85.3 L20.4 -85.3 20.4 -80.0 26.25 -82.55 27.85 -82.25 26.45 -82.75 Q25.45 -91.35 20.4 -96.2 16.15 -100.3 11.7 -102.1 17.6 -100.6 23.1 -95.3 28.1 -90.55 29.15 -82.05 L29.3 -82.05 29.35 -81.95 29.4 -82.0 29.4 4.5 28.6 4.2 29.4 4.5 Q1.6 18.1 -26.25 31.65 L-26.25 31.5 -26.25 31.65 -26.9 31.4 -26.95 31.4 -27.95 31.0 -27.9 30.95 -27.15 31.3 -27.15 -54.85 -27.2 -54.9 -27.6 -55.2 -26.5 -54.85 -26.5 -54.95 -26.6 -56.9 -19.5 -60.35 -19.55 -73.1 -19.25 -73.35 -19.3 -73.45 -18.45 -72.95 -18.05 -83.25 -18.45 -82.4 -17.9 -84.0 -15.1 -73.65 -15.2 -73.6 -15.7 -73.3 -16.0 -73.2 -16.05 -73.2 -16.1 -73.15 -16.05 -62.05 -10.2 -64.9 -10.25 -82.6 -10.3 -82.6 -10.35 -82.65 -10.45 -82.65 -10.65 -82.75 -9.15 -82.6 -9.2 -90.7 -10.95 -82.9 -11.3 -83.1 -11.45 -83.15 -8.6 -93.5 -5.8 -83.15 -5.9 -83.1 -6.4 -82.8 -6.7 -82.7 -6.75 -82.7 -6.8 -82.65 -6.9 -82.65 -6.9 -82.6 -6.8 -82.6 -6.7 -66.6 -1.35 -69.45 -1.4 -86.65 -1.5 -86.2 -1.4 -87.6 -0.05 -87.5 0.05 -87.5 0.1 -87.55 0.15 -96.4 -2.25 -88.1 M-20.35 -73.45 L-20.6 -73.6 -20.75 -73.65 -18.45 -82.4 -20.35 -73.45 M8.95 -73.7 L9.95 -73.35 9.9 -87.3 9.85 -87.35 8.95 -87.45 8.95 -73.7 7.8 -73.75 8.95 -73.65 8.95 -73.7 M10.95 -88.5 L11.05 -88.5 10.95 -88.5 10.9 -88.45 10.85 -88.45 9.2 -88.3 10.85 -88.45 10.9 -88.45 10.95 -88.5 M-28.75 -55.6 L-28.45 -55.5 -28.45 30.65 -28.15 30.8 -28.15 30.9 -28.75 30.65 -28.75 -55.6 M29.35 -81.95 L29.15 -81.85 29.15 -82.05 29.15 -81.85 29.35 -81.95 M29.15 -81.85 L29.05 -81.9 29.15 -81.85 28.6 -81.6 29.15 -81.85 M28.6 4.2 L28.6 -81.6 29.05 -81.9 28.55 -81.6 27.3 -80.75 27.3 3.5 27.7 3.85 28.6 4.5 28.6 4.2 M29.05 -81.9 L27.85 -82.25 29.05 -81.9 M25.9 -80.25 L28.55 -81.6 25.9 -80.25 20.4 -77.6 20.4 6.65 26.1 3.9 25.9 -80.25 M19.3 -77.9 Q19.8 -77.9 20.4 -78.2 L20.4 -80.0 20.4 -78.2 Q19.8 -77.9 19.3 -77.9 L19.3 -84.35 18.3 -84.55 18.35 -78.15 18.35 -78.1 18.45 -78.1 19.2 -77.9 18.45 -78.1 19.05 -78.05 19.2 -77.9 19.3 -77.8 19.3 -77.9 M27.7 3.85 L26.9 3.5 26.1 3.9 26.9 3.5 27.7 3.85 M16.85 -78.6 L18.35 -78.15 16.85 -78.6 M7.55 -74.05 Q7.95 -73.35 9.1 -73.25 10.2 -73.15 11.05 -73.65 L11.05 -75.65 11.05 -73.65 Q10.2 -73.15 9.1 -73.25 7.95 -73.35 7.55 -74.05 M17.9 -76.35 L17.85 -76.35 16.85 -75.85 17.85 -76.35 17.9 -75.15 17.9 -76.35 19.55 -77.15 20.4 -77.6 19.55 -77.15 17.9 -76.35 M18.2 -76.35 L18.25 7.9 18.5 8.35 19.0 8.6 19.05 8.65 19.55 7.75 19.55 -77.15 18.2 -76.35 M17.1 8.3 L16.85 -75.85 11.05 -73.0 11.15 11.2 17.1 8.3 17.9 7.9 18.4 8.35 18.95 8.65 Q19.75 8.85 20.4 7.75 L20.4 6.65 20.4 7.75 Q19.75 8.85 18.95 8.65 L18.4 8.35 17.9 7.9 17.1 8.3 M0.8 -68.0 L1.65 -68.4 0.8 -68.0 -0.8 -67.2 -0.85 -67.2 -1.1 -67.1 -0.85 -67.2 -0.8 -67.2 0.8 -68.0 -0.45 -67.2 -0.4 -27.4 -0.05 -26.55 0.25 -26.45 0.85 -26.95 0.8 -68.0 M-1.35 -69.45 Q-0.95 -68.65 0.15 -68.5 1.25 -68.4 2.15 -68.95 L2.15 -71.15 2.15 -68.95 Q1.25 -68.4 0.15 -68.5 -0.95 -68.65 -1.35 -69.45 M2.15 -28.8 L2.15 -26.95 Q1.0 -26.4 0.25 -26.45 1.0 -26.4 2.15 -26.95 L2.15 -28.8 3.9 -29.6 3.95 -29.55 5.95 -28.2 -2.35 -24.25 -2.35 -12.3 -4.4 -13.7 -4.4 -25.6 -4.4 -25.65 -1.0 -27.3 -1.0 -27.35 -1.1 -67.1 -6.65 -64.4 -6.45 19.75 -0.95 17.1 -0.7 16.95 Q-0.3 17.25 0.05 17.35 -0.3 17.25 -0.7 16.95 L-0.95 17.1 -1.05 -12.9 0.9 -13.85 2.15 -14.45 2.3 15.5 2.35 15.45 7.85 12.8 7.55 -71.3 2.05 -68.6 2.15 -28.8 M1.7 -68.45 L2.05 -68.6 1.7 -68.45 1.65 -68.4 1.7 -67.25 1.7 -68.45 M10.15 -72.6 L9.1 -71.8 9.15 12.4 9.4 12.9 9.75 13.1 9.8 13.1 10.2 12.3 10.2 -72.6 10.15 -72.6 7.55 -71.3 10.15 -72.6 M10.2 -72.6 L11.05 -73.0 10.2 -72.6 M11.15 11.2 L11.15 12.3 Q10.5 13.25 9.7 13.1 L9.25 12.9 8.65 12.4 7.85 12.8 8.65 12.4 9.25 12.9 9.7 13.1 Q10.5 13.25 11.15 12.3 L11.15 11.2 M2.75 -21.5 L2.55 -20.2 2.1 -19.35 2.1 -16.7 1.2 -16.25 1.2 -18.95 1.0 -19.7 Q0.7 -20.3 0.7 -21.2 0.7 -22.1 1.0 -22.75 1.3 -23.35 1.7 -23.35 L2.4 -22.75 2.75 -21.5 M0.6 -86.2 L-0.3 -86.5 -0.45 -68.9 0.55 -68.55 0.6 -86.2 M0.05 17.35 L0.45 17.45 0.95 16.85 0.9 -13.85 -0.35 -13.05 -0.3 16.95 0.05 17.35 M-8.85 21.9 Q-8.0 22.0 -7.45 21.35 -6.55 20.65 -6.6 20.35 L-6.45 19.75 -6.6 20.35 Q-6.55 20.65 -7.45 21.35 -8.0 22.0 -8.85 21.9 L-8.4 21.35 -8.5 -63.5 -8.5 -63.9 -8.55 -63.5 -9.7 -62.65 -9.6 21.5 -9.25 21.8 -8.85 21.9 M-9.95 21.5 L-9.25 21.8 -9.95 21.5 -10.15 -62.65 -10.2 -62.65 -16.05 -59.8 -15.75 24.0 -15.75 24.35 -15.75 24.3 -9.95 21.5 M-15.8 25.4 L-15.75 24.35 -15.8 25.4 -15.8 25.55 Q-17.1 26.85 -18.35 26.6 -17.1 26.85 -15.8 25.55 L-15.8 25.4 M-18.75 26.45 L-18.35 26.6 -17.9 25.9 -18.05 -58.85 -17.05 -59.3 -18.05 -58.85 -19.05 -58.1 -18.95 26.0 -18.75 26.45 -19.25 26.0 -18.75 26.45 M-25.25 28.95 L-19.25 26.0 -19.55 -58.1 Q-22.4 -56.75 -25.25 -55.35 L-25.25 28.95 -25.25 30.05 -25.25 28.95 M-26.25 31.5 Q-25.35 31.5 -25.25 30.05 -25.35 31.5 -26.25 31.5 M0.45 17.45 Q1.2 17.55 2.25 16.6 1.2 17.55 0.45 17.45 M2.25 16.6 L2.35 15.45 2.25 16.6 M-0.3 -86.5 L-0.3 -86.6 -0.4 -86.5 -0.3 -86.5 M-10.25 -82.6 Q-8.55 -82.05 -6.95 -82.6 L-6.9 -82.6 -6.95 -82.6 Q-8.55 -82.05 -10.25 -82.6 M-9.9 -81.4 L-9.65 -64.3 -8.95 -64.3 -8.85 -64.5 -8.85 -81.25 -9.9 -81.4 M-18.75 -59.55 Q-17.35 -59.25 -16.05 -60.35 L-16.05 -62.05 -16.05 -60.35 Q-17.35 -59.25 -18.75 -59.55 L-18.1 -59.75 -18.2 -60.1 -18.25 -72.0 -19.15 -71.95 -18.9 -59.55 -18.9 -59.5 -18.75 -59.55 M-16.1 -73.15 L-16.2 -73.15 -16.2 -73.1 -16.25 -73.1 Q-17.85 -72.55 -19.55 -73.1 -17.85 -72.55 -16.25 -73.1 L-16.2 -73.1 -16.2 -73.15 -16.1 -73.15 M-19.5 -60.35 L-18.9 -59.55 -19.5 -60.35 M-8.5 -63.5 L-7.7 -63.9 -7.65 -63.9 -6.65 -64.4 -7.65 -63.9 -7.7 -63.9 -8.5 -63.5 M-10.2 -64.9 L-9.65 -64.3 -8.25 -64.2 Q-7.25 -64.4 -6.7 -65.0 L-6.7 -66.6 -6.7 -65.0 Q-7.25 -64.4 -8.25 -64.2 L-9.65 -64.3 -10.2 -64.9 M-10.15 -62.65 L-8.55 -63.5 -10.15 -62.65 M-26.5 -54.95 L-26.35 -54.9 -26.25 -54.85 -25.25 -55.35 -26.25 -54.85 -26.35 -54.9 -26.5 -54.95 M-17.0 -59.35 L-16.05 -59.8 -17.0 -59.35 -17.05 -59.3 -17.05 -57.95 -17.0 -59.35 M-19.55 -58.1 L-18.05 -58.85 -19.55 -58.1 M-1.0 -27.35 L-0.05 -26.55 -1.0 -27.35 M-4.4 -25.6 L-2.35 -24.25 -4.4 -25.6" fill="#666666" fill-rule="evenodd" stroke="none"/>
    <path d="M-2.25 -88.1 L0.15 -96.4 0.1 -87.55 0.05 -87.5 -1.4 -87.7 -1.45 -87.7 -1.5 -87.75 -1.6 -87.75 -2.25 -88.1 M7.5 -88.45 L7.45 -88.45 7.4 -88.5 7.3 -88.5 6.95 -88.7 8.95 -97.1 9.25 -88.35 9.2 -88.3 7.5 -88.45 M16.85 -85.3 L16.8 -85.3 16.75 -85.35 16.65 -85.35 16.15 -85.6 18.55 -93.65 18.75 -85.15 17.0 -85.25 16.85 -85.3 M-19.55 -73.1 L-19.6 -73.1 -19.65 -73.15 -19.75 -73.15 -20.35 -73.45 -18.45 -82.4 -18.05 -83.25 -18.45 -72.95 -19.3 -73.45 -19.25 -73.35 -19.55 -73.1 M-10.65 -82.75 L-10.95 -82.9 -9.2 -90.7 -9.15 -82.6 -10.65 -82.75 M8.95 -73.7 L8.95 -87.45 9.85 -87.35 9.9 -87.3 9.95 -73.35 8.95 -73.7 M-28.45 -55.5 L-27.6 -55.2 -27.2 -54.9 -27.15 -54.85 -27.15 31.3 -27.9 30.95 -27.95 31.0 -28.15 31.3 -28.15 30.9 -28.15 30.8 -28.45 30.65 -28.45 -55.5 M29.05 -81.9 L28.6 -81.6 28.6 4.2 28.6 4.5 27.7 3.85 27.3 3.5 27.3 -80.75 28.55 -81.6 29.05 -81.9 M18.35 -78.15 L18.3 -84.55 19.3 -84.35 19.3 -77.9 19.2 -77.9 19.05 -78.05 18.45 -78.1 18.35 -78.15 M18.2 -76.35 L19.55 -77.15 19.55 7.75 19.05 8.65 19.0 8.6 18.5 8.35 18.25 7.9 18.2 -76.35 M0.8 -68.0 L0.85 -26.95 0.25 -26.45 -0.05 -26.55 -0.4 -27.4 -0.45 -67.2 0.8 -68.0 M10.15 -72.6 L10.2 -72.6 10.2 12.3 9.8 13.1 9.75 13.1 9.4 12.9 9.15 12.4 9.1 -71.8 10.15 -72.6 M6.0 -28.2 L6.0 -16.25 2.15 -14.45 0.9 -13.85 -1.05 -12.9 -2.35 -12.3 -2.35 -24.25 5.95 -28.2 6.0 -28.2 M2.75 -21.5 L2.4 -22.75 1.7 -23.35 Q1.3 -23.35 1.0 -22.75 0.7 -22.1 0.7 -21.2 0.7 -20.3 1.0 -19.7 L1.2 -18.95 1.2 -16.25 2.1 -16.7 2.1 -19.35 2.55 -20.2 2.75 -21.5 M0.6 -86.2 L0.55 -68.55 -0.45 -68.9 -0.3 -86.5 0.6 -86.2 M0.45 17.45 L0.05 17.35 -0.3 16.95 -0.35 -13.05 0.9 -13.85 0.95 16.85 0.45 17.45 M-8.85 21.9 L-9.25 21.8 -9.6 21.5 -9.7 -62.65 -8.55 -63.5 -8.5 -63.9 -8.5 -63.5 -8.4 21.35 -8.85 21.9 M-18.35 26.6 L-18.75 26.45 -18.95 26.0 -19.05 -58.1 -18.05 -58.85 -17.9 25.9 -18.35 26.6 M-9.9 -81.4 L-8.85 -81.25 -8.85 -64.5 -8.95 -64.3 -9.65 -64.3 -9.9 -81.4 M-18.9 -59.55 L-19.15 -71.95 -18.25 -72.0 -18.2 -60.1 -18.1 -59.75 -18.75 -59.55 -18.9 -59.55" fill="#b4b4b4" fill-rule="evenodd" stroke="none"/>
    <path d="M11.7 -102.1 L0.8 -101.8 Q-11.6 -98.0 -21.45 -80.35 -27.05 -70.3 -26.6 -57.0 L-26.6 -56.9 -26.5 -54.95 -26.5 -54.85 -27.6 -55.2 -28.45 -55.5 -28.75 -55.6 -29.2 -55.75 Q-30.2 -70.4 -24.15 -81.25 -14.3 -98.9 -1.9 -102.7 5.15 -104.85 11.7 -102.1" fill="#9e9e9e" fill-rule="evenodd" stroke="none"/>
    <path d="M-1.4 -87.6 L-1.4 -87.7 0.05 -87.5 -0.05 -87.5 -1.4 -87.6 M8.95 -73.7 L8.95 -73.65 7.8 -73.75 8.95 -73.7 M19.3 -77.9 L19.3 -77.8 19.2 -77.9 19.3 -77.9 M18.45 -78.1 L18.35 -78.1 18.35 -78.15 18.45 -78.1 M-0.3 -86.5 L-0.4 -86.5 -0.3 -86.6 -0.3 -86.5 M-18.75 -59.55 L-18.9 -59.5 -18.9 -59.55 -18.75 -59.55" fill="#999999" fill-rule="evenodd" stroke="none"/>
    <path d="M2.1 -87.75 L2.15 -87.8 2.2 -87.8 2.5 -87.9 3.0 -88.2 3.1 -88.25 0.3 -98.6 -2.55 -88.25 -2.25 -88.1 M7.55 -74.05 L7.5 -88.45 M6.95 -88.7 L6.35 -89.0 9.2 -99.35 12.0 -89.0 11.9 -88.95 11.4 -88.65 11.15 -88.55 11.1 -88.55 11.05 -88.5 M16.85 -78.6 L16.85 -85.3 M16.15 -85.6 L15.7 -85.85 18.55 -96.2 21.35 -85.85 21.25 -85.8 20.75 -85.5 20.5 -85.4 20.45 -85.4 20.4 -85.35 M27.85 -82.25 L26.45 -82.75 M-19.5 -60.35 L-19.55 -73.1 M-20.35 -73.45 L-20.6 -73.6 -20.75 -73.65 -18.45 -82.4 -17.9 -84.0 -15.1 -73.65 -15.2 -73.6 -15.7 -73.3 -16.0 -73.2 -16.05 -73.2 -16.1 -73.15 M-10.2 -64.9 L-10.25 -82.6 M-10.95 -82.9 L-11.3 -83.1 -11.45 -83.15 -8.6 -93.5 -5.8 -83.15 -5.9 -83.1 -6.4 -82.8 -6.7 -82.7 -6.75 -82.7 -6.8 -82.65 M-1.35 -69.45 L-1.4 -86.65 -1.5 -86.2 -1.4 -87.6 M-29.2 -55.75 L-28.75 -55.6 -28.45 -55.5 -27.6 -55.2 -26.5 -54.85 M29.05 -81.9 L29.15 -81.85 M27.85 -82.25 L29.05 -81.9 M25.9 -80.25 L26.1 3.9 M16.85 -75.85 L17.1 8.3 M7.55 -71.3 L7.85 12.8 M-15.75 24.35 L-15.8 25.4 M-25.25 30.05 Q-25.35 31.5 -26.25 31.5 M2.35 15.45 L2.25 16.6 M-10.15 -62.65 L-9.95 21.5 M-19.55 -58.1 L-19.25 26.0 M-1.0 -27.35 L-1.1 -67.1 M-15.75 24.35 L-15.75 24.0 M-28.75 30.65 L-28.75 -55.6" fill="none" stroke="#444444" stroke-linecap="round" stroke-linejoin="round" stroke-width="0.05"/>
    <path d="M0.05 -87.5 L1.95 -87.7 2.0 -87.7 2.0 -87.75 2.1 -87.75 2.1 -87.7 2.15 -71.15 7.55 -74.05 Q7.95 -73.35 9.1 -73.25 10.2 -73.15 11.05 -73.65 L11.05 -75.65 16.85 -78.6 18.35 -78.15 18.45 -78.1 19.2 -77.9 19.3 -77.9 Q19.8 -77.9 20.4 -78.2 L20.4 -80.0 26.25 -82.55 27.85 -82.25 M7.5 -88.45 L7.45 -88.45 7.4 -88.5 7.3 -88.5 6.95 -88.7 M11.05 -88.5 L11.05 -75.65 M16.85 -85.3 L16.8 -85.3 16.75 -85.35 16.65 -85.35 16.15 -85.6 M20.4 -85.35 L20.4 -85.3 20.4 -80.0 M26.45 -82.75 Q25.45 -91.35 20.4 -96.2 16.15 -100.3 11.7 -102.1 L0.8 -101.8 Q-11.6 -98.0 -21.45 -80.35 -27.05 -70.3 -26.6 -57.0 L-26.6 -56.9 -19.5 -60.35 -18.9 -59.55 -18.75 -59.55 Q-17.35 -59.25 -16.05 -60.35 L-16.05 -62.05 -10.2 -64.9 -9.65 -64.3 -8.25 -64.2 Q-7.25 -64.4 -6.7 -65.0 L-6.7 -66.6 -1.35 -69.45 Q-0.95 -68.65 0.15 -68.5 1.25 -68.4 2.15 -68.95 L2.15 -71.15 M-19.55 -73.1 L-19.6 -73.1 -19.65 -73.15 -19.75 -73.15 -20.35 -73.45 M-16.1 -73.15 L-16.05 -62.05 M-10.25 -82.6 L-10.3 -82.6 -10.35 -82.65 -10.45 -82.65 -10.65 -82.75 -10.95 -82.9 M-6.8 -82.65 L-6.8 -82.6 -6.7 -66.6 M-1.4 -87.6 L-1.4 -87.7 -1.45 -87.7 -1.5 -87.75 -1.6 -87.75 -2.25 -88.1 M9.2 -88.3 L7.5 -88.45 M11.05 -88.5 L10.95 -88.5 10.9 -88.45 10.85 -88.45 9.2 -88.3 M17.0 -85.25 Q18.75 -84.8 20.2 -85.3 L20.25 -85.3 20.3 -85.35 20.4 -85.35 M16.85 -85.3 L17.0 -85.25 M29.15 -82.05 Q28.1 -90.55 23.1 -95.3 17.6 -100.6 11.7 -102.1 5.15 -104.85 -1.9 -102.7 -14.3 -98.9 -24.15 -81.25 -30.2 -70.4 -29.2 -55.75 M-26.5 -54.85 L-26.5 -54.95 -26.6 -56.9 M29.35 -81.95 L29.4 -82.0 29.3 -82.05 29.15 -82.05 29.15 -81.85 29.35 -81.95 M28.6 -81.6 L29.15 -81.85 M28.6 4.2 L29.4 4.5 29.4 -82.0 M28.55 -81.6 L25.9 -80.25 20.4 -77.6 20.4 6.65 26.1 3.9 26.9 3.5 27.7 3.85 M17.85 -76.35 L17.9 -76.35 19.55 -77.15 20.4 -77.6 M17.85 -76.35 L16.85 -75.85 11.05 -73.0 11.15 11.2 17.1 8.3 17.9 7.9 18.4 8.35 18.95 8.65 Q19.75 8.85 20.4 7.75 L20.4 6.65 M1.65 -68.4 L0.8 -68.0 -0.8 -67.2 -0.85 -67.2 -1.1 -67.1 -6.65 -64.4 -6.45 19.75 -6.6 20.35 Q-6.55 20.65 -7.45 21.35 -8.0 22.0 -8.85 21.9 L-9.25 21.8 -9.95 21.5 -15.75 24.3 -15.75 24.35 M0.25 -26.45 Q1.0 -26.4 2.15 -26.95 L2.15 -28.8 2.05 -68.6 1.7 -68.45 1.65 -68.4 M7.55 -71.3 L2.05 -68.6 M10.15 -72.6 L7.55 -71.3 M7.85 12.8 L8.65 12.4 9.25 12.9 9.7 13.1 Q10.5 13.25 11.15 12.3 L11.15 11.2 M11.05 -73.0 L10.2 -72.6 M3.9 -29.6 L2.15 -28.8 M3.9 -29.6 L3.95 -29.6 3.95 -29.55 5.95 -28.2 6.0 -28.2 6.0 -16.25 2.15 -14.45 2.3 15.5 2.35 15.45 7.85 12.8 M5.95 -28.2 L-2.35 -24.25 -2.35 -12.3 -1.05 -12.9 0.9 -13.85 2.15 -14.45 M2.75 -21.5 L2.4 -22.75 1.7 -23.35 Q1.3 -23.35 1.0 -22.75 0.7 -22.1 0.7 -21.2 0.7 -20.3 1.0 -19.7 L1.2 -18.95 1.2 -16.25 2.1 -16.7 2.1 -19.35 2.55 -20.2 2.75 -21.5 M0.45 17.45 L0.05 17.35 Q-0.3 17.25 -0.7 16.95 L-0.95 17.1 -6.45 19.75 M-15.8 25.4 L-15.8 25.55 Q-17.1 26.85 -18.35 26.6 L-18.75 26.45 -19.25 26.0 -25.25 28.95 -25.25 30.05 M-26.25 31.5 L-26.25 31.65 Q1.6 18.1 29.4 4.5 M2.25 16.6 Q1.2 17.55 0.45 17.45 M0.05 -87.5 L-1.4 -87.7 M-6.9 -82.6 L-6.95 -82.6 Q-8.55 -82.05 -10.25 -82.6 M-6.9 -82.6 L-6.9 -82.65 -6.8 -82.65 M-19.55 -73.1 Q-17.85 -72.55 -16.25 -73.1 L-16.2 -73.1 -16.2 -73.15 -16.1 -73.15 M-10.15 -62.65 L-10.2 -62.65 -16.05 -59.8 -15.75 24.0 -15.75 24.3 M-0.05 -26.55 L0.25 -26.45 M-6.65 -64.4 L-7.65 -63.9 -7.7 -63.9 -8.5 -63.5 M-8.55 -63.5 L-10.15 -62.65 M-25.25 -55.35 L-26.25 -54.85 -26.35 -54.9 -26.5 -54.95 M-27.95 31.0 L-26.95 31.4 M-26.9 31.4 L-26.25 31.65 M-16.05 -59.8 L-17.0 -59.35 -17.05 -59.3 -18.05 -58.85 -19.55 -58.1 Q-22.4 -56.75 -25.25 -55.35 L-25.25 28.95 M-2.35 -12.3 L-4.4 -13.7 -4.4 -25.6 -4.4 -25.65 -1.0 -27.3 -1.0 -27.35 -0.05 -26.55 M-2.35 -24.25 L-4.4 -25.6 M-28.15 30.9 L-28.75 30.65" fill="none" stroke="#333333" stroke-linecap="round" stroke-linejoin="round" stroke-width="0.05"/>
    <path d="M-1.05 -12.9 L-0.95 17.1" fill="none" stroke="#555555" stroke-linecap="round" stroke-linejoin="round" stroke-width="0.05"/>
  </g>
</svg>
