<?xml version="1.0" encoding="UTF-8" standalone="no"?>
<svg xmlns:xlink="http://www.w3.org/1999/xlink" height="146.15px" width="90.1px" xmlns="http://www.w3.org/2000/svg">
  <g transform="matrix(1.0, 0.0, 0.0, 1.0, 45.05, 109.45)">
    <path d="M20.0 -91.6 L19.95 -91.6 19.9 -91.6 19.6 -91.75 19.1 -92.0 19.0 -92.1 21.85 -102.4 24.75 -92.05 24.3 -91.8 21.85 -99.85 21.65 -91.35 23.4 -91.45 Q21.6 -91.0 20.15 -91.5 21.6 -91.0 23.4 -91.45 L23.55 -91.5 23.55 -84.8 29.45 -81.85 29.5 -94.7 29.6 -94.7 29.65 -94.65 31.35 -94.5 29.65 -94.65 29.6 -94.7 29.5 -94.75 29.45 -94.75 29.4 -94.75 29.1 -94.9 28.6 -95.15 28.5 -95.25 31.35 -105.55 34.25 -95.2 33.6 -94.9 31.6 -103.3 31.3 -94.55 31.35 -94.5 33.05 -94.65 33.0 -80.25 38.45 -77.45 38.55 -93.9 38.65 -93.9 38.7 -93.9 39.75 -93.75 39.85 -93.75 39.95 -93.75 40.05 -93.75 41.1 -93.9 41.15 -93.9 41.1 -93.9 40.05 -93.75 39.95 -93.75 39.85 -93.75 39.75 -93.75 38.7 -93.9 38.65 -93.9 38.65 -93.95 38.55 -93.95 38.5 -94.0 38.45 -94.0 38.15 -94.1 37.65 -94.4 37.55 -94.45 39.85 -102.95 39.85 -103.35 39.9 -103.15 39.95 -103.35 39.95 -103.0 42.3 -94.45 42.25 -94.45 42.2 -94.4 41.7 -94.1 41.4 -94.0 41.35 -94.0 41.3 -93.95 41.15 -93.95 41.15 -93.9 41.3 -93.9 41.3 -76.0 43.6 -74.95 41.3 -74.35 41.25 -33.4 45.05 -31.75 45.05 -20.15 43.2 -18.8 43.2 -30.4 34.65 -34.4 36.7 -35.75 36.7 -35.8 38.5 -35.0 38.6 -74.85 33.0 -77.55 30.35 -78.8 29.45 -79.25 30.35 -78.8 33.0 -77.55 32.75 6.65 31.9 6.25 31.3 6.75 30.85 6.95 Q30.05 7.1 29.4 6.15 L29.4 5.0 29.4 6.15 Q30.05 7.1 30.85 6.95 L31.3 6.75 31.9 6.25 32.75 6.65 38.3 9.3 38.35 9.3 38.5 -20.65 41.3 -19.5 41.25 10.75 Q41.0 11.25 39.95 11.3 L39.95 12.35 10.85 -1.7 10.85 -88.2 10.9 -88.2 10.95 -88.25 11.3 -88.4 10.75 -88.55 Q9.75 -97.2 4.7 -102.05 0.45 -106.1 -4.0 -107.95 1.9 -106.45 7.4 -101.15 10.05 -98.6 11.6 -95.05 L13.2 -100.95 15.7 -90.95 15.15 -90.65 13.05 -99.05 12.95 -90.7 13.05 -90.4 13.1 -90.45 15.1 -90.65 14.75 -90.45 14.65 -90.45 14.6 -90.4 14.55 -90.4 14.5 -88.9 19.95 -86.2 20.0 -91.5 20.15 -91.5 20.1 -91.55 20.0 -91.6 M-41.8 -72.2 L-39.8 -64.1 -40.35 -63.8 -42.05 -70.55 -41.8 -72.2 M-40.4 -63.8 L-40.75 -63.6 -40.85 -63.6 -40.9 -63.55 -40.95 -63.55 -41.0 -62.05 -35.55 -59.15 -35.5 -64.65 -35.35 -64.65 -35.4 -64.65 -35.4 -64.7 -35.5 -64.7 -35.55 -64.75 -35.6 -64.75 -35.9 -64.85 -36.4 -65.15 -36.5 -65.2 -33.65 -75.55 -30.75 -65.2 -31.2 -64.95 -33.65 -73.0 -33.85 -64.5 -32.1 -64.6 -31.95 -64.65 -31.95 -57.95 -26.05 -54.6 -26.0 -67.85 -26.05 -67.9 -26.1 -67.9 -26.4 -68.0 -26.9 -68.3 -27.0 -68.35 -24.15 -78.7 -21.25 -68.35 -21.9 -68.05 -23.9 -76.45 -24.2 -67.7 -24.15 -67.65 -22.45 -67.8 -22.5 -53.4 -16.65 -50.45 -18.95 -48.95 -22.5 -50.65 -22.75 33.5 -18.9 35.3 -20.65 36.7 -44.65 25.2 -44.65 -61.35 -44.6 -61.3 -43.85 -60.95 -44.6 -61.3 -44.55 -61.4 -44.5 -61.4 -42.2 -60.65 -42.2 -61.0 -42.3 -62.8 -42.35 -63.35 -42.35 -63.6 -40.4 -63.8 M-45.0 -64.1 L-45.05 -64.1 -45.0 -64.2 -45.0 -64.1 M14.55 -90.4 L13.05 -90.2 13.05 -90.4 13.05 -90.2 14.55 -90.4 M14.5 -88.9 L14.35 -88.7 13.45 -87.95 13.05 -90.2 13.45 -87.95 14.35 -88.7 14.5 -88.9 M11.65 -87.8 L10.9 -88.2 11.65 -87.8 11.65 -2.0 11.65 -1.7 12.6 -2.35 13.0 -2.7 13.0 -87.0 11.7 -87.8 11.1 -88.15 11.65 -87.8 M14.4 -86.5 L11.7 -87.8 14.4 -86.5 14.2 -2.3 13.35 -2.7 12.6 -2.35 13.35 -2.7 14.2 -2.3 19.95 0.45 19.95 -83.8 14.4 -86.5 M23.55 -82.05 L22.55 -82.55 20.85 -83.35 19.95 -83.8 20.85 -83.35 22.55 -82.55 23.55 -82.05 23.3 2.1 22.5 1.7 22.0 2.15 21.45 2.45 Q20.6 2.65 19.95 1.6 L19.95 0.45 19.95 1.6 Q20.6 2.65 21.45 2.45 L22.0 2.15 22.5 1.7 23.3 2.1 29.4 5.0 29.45 -79.25 23.55 -82.05 M41.3 -74.35 L40.15 -74.05 39.0 -74.65 38.6 -74.85 39.0 -74.65 40.15 -74.05 41.3 -74.35 M11.3 -88.4 L11.7 -88.25 Q12.3 -87.7 13.0 -87.8 L13.45 -87.65 13.0 -87.8 Q12.3 -87.7 11.7 -88.25 L11.3 -88.4 M13.45 -87.65 L13.45 -87.95 13.45 -87.65 M12.95 -90.7 Q12.45 -93.05 11.6 -95.05 12.45 -93.05 12.95 -90.7 M22.05 -84.35 L22.1 -90.75 21.1 -90.55 21.1 -84.1 21.1 -84.0 21.2 -84.1 21.35 -84.25 21.95 -84.3 22.05 -84.3 22.05 -84.35 23.55 -84.8 22.05 -84.35 M30.7 -93.55 L30.65 -93.5 30.6 -79.55 31.6 -79.9 Q31.45 -86.75 31.6 -93.65 L30.7 -93.55 M38.45 -77.45 L38.5 -75.15 41.3 -75.3 41.3 -76.0 41.3 -75.3 38.5 -75.15 38.45 -77.45 M31.6 -79.85 L32.75 -79.95 31.6 -79.9 31.6 -79.85 M29.45 -81.85 L29.45 -79.85 Q30.3 -79.35 31.45 -79.45 32.6 -79.55 33.0 -80.25 32.6 -79.55 31.45 -79.45 30.3 -79.35 29.45 -79.85 L29.45 -81.85 M21.2 -84.1 L21.95 -84.3 21.2 -84.1 M20.85 -83.35 L20.85 1.6 Q21.05 2.3 21.35 2.45 L21.4 2.45 21.9 2.15 22.15 1.7 22.2 -82.55 20.85 -83.35 M22.55 -82.55 L22.55 -81.4 22.55 -82.55 M30.35 -78.8 L30.3 6.15 30.75 6.95 30.8 6.9 31.15 6.75 31.4 6.25 31.45 -78.0 30.35 -78.8 M21.1 -84.1 L19.95 -84.4 19.95 -86.2 19.95 -84.4 21.1 -84.1 M41.25 -33.4 Q40.65 -32.4 39.9 -32.6 L38.5 -33.15 38.5 -35.0 38.5 -33.15 39.9 -32.6 Q40.65 -32.4 41.25 -33.4 M45.05 -31.75 L43.2 -30.4 45.05 -31.75 M39.65 -28.95 L39.75 -28.7 39.95 -27.25 39.75 -26.1 39.65 -25.9 39.45 -25.15 39.45 -22.45 38.55 -22.9 38.55 -25.55 Q38.35 -25.7 38.1 -26.4 37.85 -27.1 37.9 -27.7 37.9 -28.3 38.25 -28.95 38.55 -29.55 38.95 -29.55 L39.65 -28.95 M10.85 -1.7 L11.65 -2.0 10.85 -1.7 M38.4 10.4 L38.3 9.3 38.4 10.4 Q39.15 11.1 39.75 11.25 L39.95 11.3 39.75 11.25 Q39.15 11.1 38.4 10.4 M-33.45 -57.5 L-33.4 -63.9 -34.4 -63.7 -34.4 -57.25 -34.4 -57.15 -34.3 -57.25 -33.55 -57.45 -34.3 -57.25 -34.15 -57.4 -33.55 -57.45 -33.45 -57.45 -33.45 -57.5 -31.95 -57.95 -33.45 -57.5 M-35.35 -64.65 Q-33.9 -64.15 -32.1 -64.6 -33.9 -64.15 -35.35 -64.65 M-25.9 -67.85 L-25.9 -67.8 -25.85 -67.8 -24.15 -67.65 -25.85 -67.8 -25.9 -67.8 -25.9 -67.85 -26.0 -67.85 -25.9 -67.85 M-24.85 -66.65 L-24.9 -52.7 -23.9 -53.05 -23.9 -66.8 -24.8 -66.7 -24.85 -66.65 M-23.9 -53.05 L-23.9 -53.0 -22.75 -53.1 -23.9 -53.05 M-25.15 -51.95 L-22.5 -50.65 -25.15 -51.95 -25.2 33.0 -24.75 33.8 -24.7 33.75 -24.35 33.6 -24.1 33.1 -24.05 -51.15 -25.15 -51.95 -26.05 -52.35 -25.15 -51.95 M-26.1 31.85 L-26.05 -52.35 -31.95 -55.2 -32.2 28.95 -33.0 28.55 -33.5 29.0 -34.05 29.3 Q-34.9 29.5 -35.55 28.45 L-35.55 27.35 -35.55 28.45 Q-34.9 29.5 -34.05 29.3 L-33.5 29.0 -33.0 28.55 -32.2 28.95 -26.1 31.85 -26.1 33.0 Q-25.45 33.95 -24.65 33.8 L-24.2 33.6 -23.6 33.1 -22.75 33.5 -23.6 33.1 -24.2 33.6 -24.65 33.8 Q-25.45 33.95 -26.1 33.0 L-26.1 31.85 M-22.5 -53.4 Q-22.9 -52.7 -24.05 -52.6 -25.2 -52.5 -26.05 -53.0 L-26.05 -54.6 -26.05 -53.0 Q-25.2 -52.5 -24.05 -52.6 -22.9 -52.7 -22.5 -53.4 M-35.55 -59.15 L-35.55 -57.55 Q-34.95 -57.25 -34.4 -57.25 -34.95 -57.25 -35.55 -57.55 L-35.55 -59.15 M-32.95 -55.7 L-32.95 -54.5 -32.95 -55.7 -34.65 -56.5 -34.65 28.45 -34.15 29.3 -34.1 29.3 -33.6 29.0 -33.35 28.55 -33.3 -55.7 -34.65 -56.5 -32.95 -55.7 -31.95 -55.2 -32.95 -55.7 M-35.55 -56.95 L-34.65 -56.5 -35.55 -56.95 -41.1 -59.6 -41.3 24.6 -35.55 27.35 -35.55 -56.95 M-43.85 -60.95 L-43.85 24.85 -43.85 24.9 -42.9 24.5 -42.5 24.2 -42.5 -60.1 -43.8 -60.95 -44.4 -61.3 -43.85 -60.95 M-42.35 -63.35 L-40.95 -63.55 -42.35 -63.35 M-42.2 -61.0 L-41.15 -61.85 -41.0 -62.05 -41.15 -61.85 -42.2 -61.0 M-43.8 -60.95 L-41.1 -59.6 -43.8 -60.95 M-44.65 25.2 L-43.85 24.85 -44.65 25.2 M-42.9 24.5 L-42.15 24.2 -41.3 24.6 -42.15 24.2 -42.9 24.5" fill="#666666" fill-rule="evenodd" stroke="none"/>
    <path d="M23.4 -91.45 L21.65 -91.35 21.85 -99.85 24.3 -91.8 23.75 -91.55 23.65 -91.55 23.6 -91.5 23.55 -91.5 23.4 -91.45 M33.6 -94.9 L33.25 -94.7 33.15 -94.7 33.1 -94.65 33.05 -94.65 31.35 -94.5 31.3 -94.55 31.6 -103.3 33.6 -94.9 M43.2 -18.8 L41.3 -19.5 38.5 -20.65 34.6 -22.45 34.6 -34.4 34.65 -34.4 43.2 -30.4 43.2 -18.8 M-40.35 -63.8 L-40.4 -63.8 -42.35 -63.6 Q-42.4 -67.2 -42.05 -70.55 L-40.35 -63.8 M-31.2 -64.95 L-31.75 -64.7 -31.85 -64.7 -31.9 -64.65 -31.95 -64.65 -32.1 -64.6 -33.85 -64.5 -33.65 -73.0 -31.2 -64.95 M-21.9 -68.05 L-22.25 -67.85 -22.35 -67.85 -22.4 -67.8 -22.45 -67.8 -24.15 -67.65 -24.2 -67.7 -23.9 -76.45 -21.9 -68.05 M15.15 -90.65 L15.1 -90.65 13.1 -90.45 13.05 -90.4 12.95 -90.7 13.05 -99.05 15.15 -90.65 M11.65 -87.8 L11.1 -88.15 11.7 -87.8 13.0 -87.0 13.0 -2.7 12.6 -2.35 11.65 -1.7 11.65 -2.0 11.65 -87.8 M21.1 -84.1 L21.1 -90.55 22.1 -90.75 22.05 -84.35 21.95 -84.3 21.35 -84.25 21.2 -84.1 21.1 -84.1 M30.7 -93.55 L31.6 -93.65 Q31.45 -86.75 31.6 -79.9 L30.6 -79.55 30.65 -93.5 30.7 -93.55 M20.85 -83.35 L22.2 -82.55 22.15 1.7 21.9 2.15 21.4 2.45 21.35 2.45 Q21.05 2.3 20.85 1.6 L20.85 -83.35 M30.35 -78.8 L31.45 -78.0 31.4 6.25 31.15 6.75 30.8 6.9 30.75 6.95 30.3 6.15 30.35 -78.8 M39.65 -28.95 L38.95 -29.55 Q38.55 -29.55 38.25 -28.95 37.9 -28.3 37.9 -27.7 37.85 -27.1 38.1 -26.4 38.35 -25.7 38.55 -25.55 L38.55 -22.9 39.45 -22.45 39.45 -25.15 39.65 -25.9 39.75 -26.1 39.95 -27.25 39.75 -28.7 39.65 -28.95 M-34.4 -57.25 L-34.4 -63.7 -33.4 -63.9 -33.45 -57.5 -33.55 -57.45 -34.15 -57.4 -34.3 -57.25 -34.4 -57.25 M-24.85 -66.65 L-24.8 -66.7 -23.9 -66.8 -23.9 -53.05 -24.9 -52.7 -24.85 -66.65 M-25.15 -51.95 L-24.05 -51.15 -24.1 33.1 -24.35 33.6 -24.7 33.75 -24.75 33.8 -25.2 33.0 -25.15 -51.95 M-34.65 -56.5 L-33.3 -55.7 -33.35 28.55 -33.6 29.0 -34.1 29.3 -34.15 29.3 -34.65 28.45 -34.65 -56.5 M-43.85 -60.95 L-44.4 -61.3 -43.8 -60.95 -42.5 -60.1 -42.5 24.2 -42.9 24.5 -43.85 24.9 -43.85 24.85 -43.85 -60.95" fill="#b4b4b4" fill-rule="evenodd" stroke="none"/>
    <path d="M31.6 -79.85 L31.6 -79.9 32.75 -79.95 31.6 -79.85 M21.95 -84.3 L22.05 -84.35 22.05 -84.3 21.95 -84.3 M21.1 -84.1 L21.2 -84.1 21.1 -84.0 21.1 -84.1 M-23.9 -53.05 L-22.75 -53.1 -23.9 -53.0 -23.9 -53.05 M-33.55 -57.45 L-33.45 -57.5 -33.45 -57.45 -33.55 -57.45 M-34.3 -57.25 L-34.4 -57.15 -34.4 -57.25 -34.3 -57.25" fill="#999999" fill-rule="evenodd" stroke="none"/>
    <path d="M-4.0 -107.95 L-14.9 -107.6 Q-27.3 -103.85 -37.15 -86.2 -40.7 -79.85 -41.8 -72.2 L-42.05 -70.55 Q-42.4 -67.2 -42.35 -63.6 L-42.35 -63.35 -42.3 -62.8 -42.2 -61.0 -42.2 -60.65 -44.5 -61.4 -44.9 -61.55 -45.0 -64.1 -45.0 -64.2 Q-45.35 -77.2 -39.85 -87.1 -30.0 -104.75 -17.6 -108.5 -10.55 -110.65 -4.0 -107.95" fill="#9e9e9e" fill-rule="evenodd" stroke="none"/>
    <path d="M24.3 -91.8 L24.75 -92.05 21.85 -102.4 19.0 -92.1 19.1 -92.0 19.6 -91.75 19.9 -91.6 19.95 -91.6 20.0 -91.6 M23.55 -91.5 L23.55 -84.8 M29.5 -94.75 L29.45 -94.75 29.4 -94.75 29.1 -94.9 28.6 -95.15 28.5 -95.25 31.35 -105.55 34.25 -95.2 33.6 -94.9 M33.05 -94.65 L33.0 -80.25 M38.55 -93.95 L38.5 -94.0 38.45 -94.0 38.15 -94.1 37.65 -94.4 37.55 -94.45 39.85 -102.95 M39.95 -103.0 L42.3 -94.45 42.25 -94.45 42.2 -94.4 41.7 -94.1 41.4 -94.0 41.35 -94.0 41.3 -93.95 M41.3 -76.0 L43.6 -74.95 41.3 -74.35 41.25 -33.4 Q40.65 -32.4 39.9 -32.6 L38.5 -33.15 38.5 -35.0 38.6 -74.85 39.0 -74.65 40.15 -74.05 41.3 -74.35 M45.05 -31.75 L45.05 -20.15 43.2 -18.8 41.3 -19.5 41.25 10.75 Q41.0 11.25 39.95 11.3 M11.3 -88.4 L10.75 -88.55 M-41.8 -72.2 L-39.8 -64.1 -40.35 -63.8 M-40.95 -63.55 L-41.0 -62.05 M-35.5 -64.7 L-35.55 -64.75 -35.6 -64.75 -35.9 -64.85 -36.4 -65.15 -36.5 -65.2 -33.65 -75.55 -30.75 -65.2 -31.2 -64.95 M-31.95 -64.65 L-31.95 -57.95 M-26.0 -67.85 L-26.05 -67.9 -26.1 -67.9 -26.4 -68.0 -26.9 -68.3 -27.0 -68.35 -24.15 -78.7 -21.25 -68.35 -21.9 -68.05 M-22.45 -67.8 L-22.5 -53.4 M-16.65 -50.45 L-18.95 -48.95 M-22.5 -50.65 L-22.75 33.5 M-18.9 35.3 L-20.65 36.7 M-44.5 -61.4 L-44.9 -61.55 M-45.0 -64.1 L-45.05 -64.1 -45.0 -64.2 M11.6 -95.05 L13.2 -100.95 15.7 -90.95 15.15 -90.65 M14.55 -90.4 L14.5 -88.9 M13.45 -87.65 L13.0 -87.8 Q12.3 -87.7 11.7 -88.25 L11.3 -88.4 M14.2 -2.3 L14.4 -86.5 M34.65 -34.4 L43.2 -30.4 45.05 -31.75 M34.6 -34.4 L34.65 -34.4 M34.6 -34.4 L34.6 -22.45 38.5 -20.65 41.3 -19.5 M39.65 -28.95 L39.75 -28.7 39.95 -27.25 39.75 -26.1 39.65 -25.9 39.45 -25.15 39.45 -22.45 38.55 -22.9 38.55 -25.55 Q38.35 -25.7 38.1 -26.4 37.85 -27.1 37.9 -27.7 37.9 -28.3 38.25 -28.95 38.55 -29.55 38.95 -29.55 L39.65 -28.95 M23.3 2.1 L23.55 -82.05 M38.3 9.3 L38.4 10.4 M32.75 6.65 L33.0 -77.55 M43.2 -18.8 L43.2 -30.4 M-32.2 28.95 L-31.95 -55.2 M-44.5 -61.4 L-42.2 -60.65 M-41.1 -59.6 L-41.3 24.6" fill="none" stroke="#444444" stroke-linecap="round" stroke-linejoin="round" stroke-width="0.05"/>
    <path d="M20.0 -91.6 L20.1 -91.55 20.15 -91.5 Q21.6 -91.0 23.4 -91.45 L23.55 -91.5 23.6 -91.5 23.65 -91.55 23.75 -91.55 24.3 -91.8 M23.55 -84.8 L29.45 -81.85 29.5 -94.7 29.5 -94.75 29.6 -94.7 29.65 -94.65 31.35 -94.5 33.05 -94.65 33.1 -94.65 33.15 -94.7 33.25 -94.7 33.6 -94.9 M33.0 -80.25 L38.45 -77.45 38.55 -93.9 38.55 -93.95 38.65 -93.95 38.65 -93.9 38.7 -93.9 39.75 -93.75 39.85 -93.75 39.95 -93.75 40.05 -93.75 41.1 -93.9 41.15 -93.9 41.15 -93.95 41.3 -93.95 41.3 -93.9 41.3 -76.0 41.3 -75.3 38.5 -75.15 38.45 -77.45 M39.95 12.35 L10.85 -1.7 10.85 -88.2 10.95 -88.25 11.3 -88.4 M10.75 -88.55 Q9.75 -97.2 4.7 -102.05 0.45 -106.1 -4.0 -107.95 L-14.9 -107.6 Q-27.3 -103.85 -37.15 -86.2 -40.7 -79.85 -41.8 -72.2 L-42.05 -70.55 Q-42.4 -67.2 -42.35 -63.6 L-42.35 -63.35 -42.3 -62.8 -42.2 -61.0 -42.2 -60.65 M-40.35 -63.8 L-40.4 -63.8 -40.75 -63.6 -40.85 -63.6 -40.9 -63.55 -40.95 -63.55 -42.35 -63.35 M-41.0 -62.05 L-35.55 -59.15 -35.5 -64.65 -35.5 -64.7 -35.4 -64.7 -35.4 -64.65 -35.35 -64.65 Q-33.9 -64.15 -32.1 -64.6 L-31.95 -64.65 -31.9 -64.65 -31.85 -64.7 -31.75 -64.7 -31.2 -64.95 M-31.95 -57.95 L-26.05 -54.6 -26.0 -67.85 -25.9 -67.85 -25.9 -67.8 -25.85 -67.8 -24.15 -67.65 -22.45 -67.8 -22.4 -67.8 -22.35 -67.85 -22.25 -67.85 -21.9 -68.05 M-22.5 -53.4 L-16.65 -50.45 M-18.95 -48.95 L-22.5 -50.65 -25.15 -51.95 -26.05 -52.35 -26.1 31.85 -26.1 33.0 Q-25.45 33.95 -24.65 33.8 L-24.2 33.6 -23.6 33.1 -22.75 33.5 -18.9 35.3 M-20.65 36.7 L-44.65 25.2 -44.65 -61.35 -44.55 -61.4 -44.5 -61.4 M-44.9 -61.55 L-45.0 -64.1 -45.0 -64.2 Q-45.35 -77.2 -39.85 -87.1 -30.0 -104.75 -17.6 -108.5 -10.55 -110.65 -4.0 -107.95 1.9 -106.45 7.4 -101.15 10.05 -98.6 11.6 -95.05 12.45 -93.05 12.95 -90.7 L13.05 -90.4 13.05 -90.2 14.55 -90.4 14.6 -90.4 14.65 -90.45 14.75 -90.45 15.1 -90.65 15.15 -90.65 M14.5 -88.9 L19.95 -86.2 20.0 -91.5 20.0 -91.6 M13.05 -90.2 L13.45 -87.95 14.35 -88.7 14.5 -88.9 M10.9 -88.2 L11.65 -87.8 M11.7 -87.8 L14.4 -86.5 19.95 -83.8 20.85 -83.35 22.55 -82.55 23.55 -82.05 29.45 -79.25 30.35 -78.8 33.0 -77.55 38.6 -74.85 M10.85 -88.2 L10.9 -88.2 M13.45 -87.95 L13.45 -87.65 M12.6 -2.35 L13.35 -2.7 14.2 -2.3 19.95 0.45 19.95 -83.8 M22.05 -84.35 L23.55 -84.8 M33.0 -80.25 Q32.6 -79.55 31.45 -79.45 30.3 -79.35 29.45 -79.85 L29.45 -81.85 M22.05 -84.35 L21.95 -84.3 21.2 -84.1 21.1 -84.1 19.95 -84.4 19.95 -86.2 M36.7 -35.75 L36.7 -35.8 38.5 -35.0 M36.7 -35.75 L34.65 -34.4 34.6 -34.4 M23.3 2.1 L22.5 1.7 22.0 2.15 21.45 2.45 Q20.6 2.65 19.95 1.6 L19.95 0.45 M11.65 -2.0 L10.85 -1.7 M32.75 6.65 L31.9 6.25 31.3 6.75 30.85 6.95 Q30.05 7.1 29.4 6.15 L29.4 5.0 23.3 2.1 M38.5 -20.65 L38.35 9.3 38.3 9.3 32.75 6.65 M38.4 10.4 Q39.15 11.1 39.75 11.25 L39.95 11.3 M29.45 -79.25 L29.4 5.0 M-33.45 -57.5 L-31.95 -57.95 M-26.05 -54.6 L-26.05 -53.0 Q-25.2 -52.5 -24.05 -52.6 -22.9 -52.7 -22.5 -53.4 M-33.55 -57.45 L-33.45 -57.5 M-33.55 -57.45 L-34.3 -57.25 -34.4 -57.25 Q-34.95 -57.25 -35.55 -57.55 L-35.55 -59.15 M-32.95 -55.7 L-34.65 -56.5 -35.55 -56.95 -35.55 27.35 -35.55 28.45 Q-34.9 29.5 -34.05 29.3 L-33.5 29.0 -33.0 28.55 -32.2 28.95 -26.1 31.85 M-31.95 -55.2 L-32.95 -55.7 M-26.05 -52.35 L-31.95 -55.2 M-43.85 -60.95 L-44.6 -61.3 -44.65 -61.35 M-41.0 -62.05 L-41.15 -61.85 -42.2 -61.0 M-41.1 -59.6 L-43.8 -60.95 M-35.55 -56.95 L-41.1 -59.6 M-41.3 24.6 L-35.55 27.35 M-41.3 24.6 L-42.15 24.2 -42.9 24.5 M-43.85 24.85 L-44.65 25.2" fill="none" stroke="#333333" stroke-linecap="round" stroke-linejoin="round" stroke-width="0.05"/>
  </g>
</svg>
