<?xml version="1.0" encoding="UTF-8" standalone="no"?>
<svg xmlns:xlink="http://www.w3.org/1999/xlink" height="73.2px" width="133.85px" xmlns="http://www.w3.org/2000/svg">
  <g transform="matrix(1.0, 0.0, 0.0, 1.0, 66.9, 36.6)">
    <path d="M42.6 -36.6 L43.65 -36.4 65.45 -27.2 Q66.25 -26.85 66.65 -26.1 67.05 -25.4 66.95 -24.55 L66.35 -20.15 65.9 -19.05 65.05 -18.25 65.0 -18.25 44.8 -7.6 43.65 -7.35 43.4 -7.35 42.7 -6.75 42.65 -6.7 Q2.3 14.7 -38.1 36.15 L-38.2 36.2 Q-38.65 36.5 -39.15 36.6 L-39.65 36.6 -40.65 36.35 -65.2 24.55 -66.15 23.7 -66.6 22.5 -66.6 22.45 -66.9 18.05 Q-66.95 17.3 -66.55 16.65 -66.2 15.95 -65.5 15.65 L-39.5 2.9 -38.4 2.65 -34.9 2.65 -34.85 2.0 -34.85 1.9 Q-34.85 1.05 -34.35 0.45 L-33.8 -0.1 Q-33.35 -0.5 -32.75 -0.55 L41.6 -36.35 42.6 -36.6" fill="#000000" fill-rule="evenodd" stroke="none"/>
    <path d="M9.4 -12.55 Q8.2 -11.05 7.2 -9.05 7.05 -7.75 8.9 -7.85 L10.4 -8.2 Q11.75 -8.6 13.35 -9.35 16.85 -10.95 21.45 -14.1 L23.6 -15.6 Q24.4 -16.2 24.4 -17.0 L24.4 -17.4 Q24.1 -18.95 23.45 -19.05 L21.0 -19.15 Q19.2 -19.2 16.35 -18.2 13.45 -17.2 12.4 -16.05 L11.1 -14.65 11.15 -14.55 10.9 -14.3 10.5 -13.9 9.4 -12.55 M25.5 -21.3 L26.8 -21.3 Q29.05 -21.25 29.55 -19.1 L29.55 -18.55 Q29.55 -17.55 28.55 -16.7 L28.25 -16.35 Q27.5 -15.9 26.15 -15.2 L24.0 -13.85 23.9 -13.85 23.65 -13.65 23.15 -13.4 21.9 -12.7 Q17.6 -10.25 14.0 -8.6 10.2 -6.9 7.15 -6.05 L4.75 -5.55 Q1.8 -5.4 2.0 -7.25 L4.55 -11.1 Q7.15 -14.45 10.55 -15.9 13.3 -18.2 17.35 -19.3 L24.75 -21.1 25.2 -21.25 25.5 -21.3 24.75 -21.1 25.5 -21.3" fill="#a76627" fill-rule="evenodd" stroke="none"/>
    <path d="M12.4 -16.05 Q13.45 -17.2 16.35 -18.2 19.2 -19.2 21.0 -19.15 L23.45 -19.05 Q24.1 -18.95 24.4 -17.4 L24.4 -17.0 Q24.4 -16.2 23.6 -15.6 L21.45 -14.1 Q16.85 -10.95 13.35 -9.35 11.75 -8.6 10.4 -8.2 L8.9 -7.85 Q7.05 -7.75 7.2 -9.05 8.2 -11.05 9.4 -12.55 L10.5 -13.9 10.9 -14.3 11.15 -14.55 11.1 -14.65 12.4 -16.05 M20.8 -14.6 L21.7 -15.1 Q22.4 -15.45 22.35 -17.05 22.25 -18.7 19.85 -18.15 17.4 -17.7 14.85 -16.5 12.25 -15.3 12.95 -13.8 L13.75 -12.4 14.1 -12.15 14.15 -12.15 Q15.7 -11.6 20.8 -14.6 M26.8 -21.3 L25.5 -21.3 25.2 -21.25 24.75 -21.1 17.35 -19.3 Q13.3 -18.2 10.55 -15.9 7.15 -14.45 4.55 -11.1 L2.0 -7.25 Q1.8 -5.4 4.75 -5.55 L7.15 -6.05 Q10.2 -6.9 14.0 -8.6 17.6 -10.25 21.9 -12.7 L23.15 -13.4 23.65 -13.65 23.9 -13.85 24.0 -13.85 26.15 -15.2 Q27.5 -15.9 28.25 -16.35 L28.55 -16.7 Q29.55 -17.55 29.55 -18.55 L29.55 -19.1 Q29.05 -21.25 26.8 -21.3 M23.25 -21.7 L42.4 -30.8 23.25 -21.7 M38.7 -26.65 L41.0 -27.7 38.7 -26.65 M43.4 -31.25 L43.95 -31.5 43.4 -31.25 M-64.45 17.9 L-38.45 5.15 -32.35 5.15 -28.1 5.15 -32.3 2.0 42.65 -34.1 49.1 -31.4 64.45 -24.9 42.0 -13.35 36.0 -14.85 37.25 -10.95 -39.2 29.7 -44.05 27.4 -64.45 17.9 M42.05 -28.2 L49.1 -31.4 42.05 -28.2 M-9.75 6.75 L-24.35 14.15 -9.75 6.75 M-12.8 1.25 L-12.2 0.95 -12.8 1.25 M-10.6 0.05 L-4.7 -3.1 -10.6 0.05 M-2.2 2.85 L-2.75 3.15 -2.2 2.85 M-4.15 3.85 L-7.3 5.45 -4.15 3.85 M-9.25 -3.85 L-7.25 -4.9 -9.25 -3.85 M-5.25 -5.95 L4.55 -11.1 -5.25 -5.95 M-35.75 23.15 L-44.05 27.4 -35.75 23.15 M-32.3 21.4 L-33.8 22.15 -32.3 21.4 M-25.85 14.9 L-40.15 22.15 -25.85 14.9" fill="#ae6b2b" fill-rule="evenodd" stroke="none"/>
    <path d="M13.75 -12.4 L12.95 -13.8 Q12.25 -15.3 14.85 -16.5 17.4 -17.7 19.85 -18.15 22.25 -18.7 22.35 -17.05 22.4 -15.45 21.7 -15.1 L20.8 -14.6 19.55 -14.8 Q17.7 -14.7 15.6 -13.6 L14.8 -13.15 13.75 -12.4 M14.15 -12.15 L14.1 -12.15 14.15 -12.15" fill="#402000" fill-rule="evenodd" stroke="none"/>
    <path d="M64.45 -24.9 L63.8 -20.5 43.6 -9.85 41.45 -11.35 41.45 -8.95 -39.45 34.0 -39.2 29.7 37.25 -10.95 36.0 -14.85 42.0 -13.35 64.45 -24.9 M-32.35 5.15 L-32.3 2.0 -28.1 5.15 -32.35 5.15 M41.45 -11.35 L36.0 -14.85 41.45 -11.35" fill="#69411b" fill-rule="evenodd" stroke="none"/>
    <path d="M-39.45 34.0 L-39.6 34.1 -64.15 22.3 -64.45 17.9 -44.05 27.4 -39.2 29.7 -39.45 34.0" fill="#472c12" fill-rule="evenodd" stroke="none"/>
    <path d="M12.4 -16.05 Q13.45 -17.2 16.35 -18.2 19.2 -19.2 21.0 -19.15 L23.45 -19.05 Q24.1 -18.95 24.4 -17.4 L24.4 -17.0 Q24.4 -16.2 23.6 -15.6 L21.45 -14.1 Q16.85 -10.95 13.35 -9.35 11.75 -8.6 10.4 -8.2 L8.9 -7.85 Q7.05 -7.75 7.2 -9.05 8.2 -11.05 9.4 -12.55 M10.5 -13.9 L10.9 -14.3 11.15 -14.55 M25.5 -21.3 L24.75 -21.1 17.35 -19.3 Q13.3 -18.2 10.55 -15.9 M4.55 -11.1 L2.0 -7.25 Q1.8 -5.4 4.75 -5.55 L7.15 -6.05 Q10.2 -6.9 14.0 -8.6 17.6 -10.25 21.9 -12.7 L23.15 -13.4 M24.0 -13.85 L26.15 -15.2 M28.55 -16.7 Q29.55 -17.55 29.55 -18.55 L29.55 -19.1 Q29.05 -21.25 26.8 -21.3 M43.95 -31.5 L43.4 -31.25 M41.0 -27.7 L38.7 -26.65 M42.4 -30.8 L23.25 -21.7 M64.45 -24.9 L63.8 -20.5 43.6 -9.85 43.65 -9.85 43.45 -9.8 43.6 -9.85 41.45 -11.35 41.45 -8.95 -39.45 34.0 -39.6 34.1 -64.15 22.3 -64.45 17.9 -38.45 5.15 -32.35 5.15 -32.3 2.0 42.65 -34.1 49.1 -31.4 64.45 -24.9 42.0 -13.35 36.0 -14.85 41.45 -11.35 M49.1 -31.4 L42.05 -28.2 M-39.2 29.7 L37.25 -10.95 36.0 -14.85 M4.55 -11.1 L-5.25 -5.95 M-7.25 -4.9 L-9.25 -3.85 M-7.3 5.45 L-4.15 3.85 M-2.75 3.15 L-2.2 2.85 M-4.7 -3.1 L-10.6 0.05 M-12.2 0.95 L-12.8 1.25 M-24.35 14.15 L-9.75 6.75 M-64.45 17.9 L-44.05 27.4 -35.75 23.15 M-39.2 29.7 L-44.05 27.4 M-33.8 22.15 L-32.3 21.4 M-39.45 34.0 L-39.2 29.7 M-32.3 2.0 L-28.1 5.15 -32.35 5.15 M-40.15 22.15 L-25.85 14.9" fill="none" stroke="#663300" stroke-linecap="round" stroke-linejoin="round" stroke-width="0.05"/>
  </g>
</svg>
