<?xml version="1.0" encoding="UTF-8" standalone="no"?>
<svg xmlns:xlink="http://www.w3.org/1999/xlink" height="14.85px" width="6.3px" xmlns="http://www.w3.org/2000/svg">
  <g transform="matrix(1.0, 0.0, 0.0, 1.0, 2.9, 0.75)">
    <path d="M-2.3 4.6 L-2.65 2.25 Q-2.65 0.9 -2.0 0.05 -1.05 -1.25 1.4 -0.4 L1.9 0.15 3.0 1.8 3.1 3.1 3.05 3.9 -1.6 6.05 -2.3 4.6" fill="#f2ccb0" fill-rule="evenodd" stroke="none"/>
    <path d="M3.05 3.9 L3.1 3.1 3.0 1.8 1.9 0.15 1.4 -0.4 Q-1.05 -1.25 -2.0 0.05 -2.65 0.9 -2.65 2.25 L-2.3 4.6" fill="none" stroke="#d7995e" stroke-linecap="round" stroke-linejoin="round" stroke-width="0.05"/>
    <path d="M2.85 14.0 L0.1 14.1 -0.45 13.5 Q-1.75 7.6 -1.0 3.8 L-1.0 3.55 -0.45 3.55 3.1 2.75 3.15 2.95 Q3.45 3.35 3.4 4.55 L3.35 7.95 2.85 14.0" fill="#43446b" fill-rule="evenodd" stroke="none"/>
    <path d="M-1.0 3.55 L-1.0 3.8 Q-1.75 7.6 -0.45 13.5 -1.55 10.95 -2.65 4.8 -3.1 3.8 -2.7 3.15 L-1.3 3.55 -1.0 3.55" fill="#2f2e4b" fill-rule="evenodd" stroke="none"/>
    <path d="M2.85 14.0 L3.35 7.95 3.4 4.55 Q3.45 3.35 3.15 2.95 L3.1 2.75 -0.45 3.55 -1.0 3.55 -1.3 3.55 -2.7 3.15 Q-3.1 3.8 -2.65 4.8 -1.55 10.95 -0.45 13.5" fill="none" stroke="#a2a5c4" stroke-linecap="round" stroke-linejoin="round" stroke-width="0.05"/>
  </g>
</svg>
