<?xml version="1.0" encoding="UTF-8" standalone="no"?>
<svg xmlns:xlink="http://www.w3.org/1999/xlink" height="19.05px" width="14.0px" xmlns="http://www.w3.org/2000/svg">
  <g transform="matrix(1.0, 0.0, 0.0, 1.0, 3.45, 10.65)">
    <path d="M10.5 -0.5 L10.45 -0.3 10.4 0.1 10.4 0.15 Q9.8 2.6 8.75 3.85 L8.55 4.0 8.1 4.35 Q8.7 2.6 8.25 1.65 7.4 0.85 6.45 2.1 5.8 4.3 6.15 6.1 L6.15 6.55 Q4.1 9.15 2.3 8.05 L-1.9 5.5 -2.6 5.95 -2.55 6.75 Q-4.05 5.9 -3.0 4.25 L-2.0 4.85 -1.35 4.95 Q1.7 4.3 2.7 6.15 6.0 5.05 4.5 1.95 7.6 -4.2 -1.0 -1.6 -1.5 -2.2 -1.95 -2.45 L-3.0 -2.5 -3.2 -2.3 Q-2.95 -3.75 -2.25 -4.85 L-1.8 -5.35 Q-1.65 -5.45 -1.6 -6.15 L-0.45 -4.4 Q0.0 -6.35 1.5 -7.0 2.3 -6.4 3.2 -6.1 4.05 -7.05 4.8 -7.4 L5.9 -5.5 7.85 -6.35 Q9.25 -6.0 8.6 -4.2 L9.75 -4.5 Q10.2 -3.8 10.25 -2.9 L10.4 -0.95 10.45 -0.5 10.5 -0.5 M0.25 1.15 Q1.6 -0.5 3.45 0.75 2.05 0.3 0.25 1.15 M-3.3 -1.05 Q-1.85 -1.35 -1.6 0.45 -2.4 -0.9 -3.3 -1.05" fill="#9b5e5e" fill-rule="evenodd" stroke="none"/>
    <path d="M-3.2 -2.3 L-3.25 -2.25 -3.4 -2.0 -3.4 -3.6 -3.2 -5.8 -2.9 -6.75 -2.7 -7.35 Q-1.95 -8.35 -2.15 -8.6 -1.1 -8.45 -0.5 -7.35 -0.1 -9.2 1.55 -10.65 2.15 -9.4 3.15 -9.05 4.0 -10.0 5.5 -10.6 5.35 -9.6 5.85 -8.45 L9.05 -9.6 8.55 -7.15 Q9.35 -7.3 10.2 -7.95 L10.2 -5.85 10.35 -3.9 10.4 -3.25 10.45 -2.85 10.55 -0.8 10.5 -0.5 10.45 -0.5 10.4 -0.95 10.25 -2.9 Q10.2 -3.8 9.75 -4.5 L8.6 -4.2 Q9.25 -6.0 7.85 -6.35 L5.9 -5.5 4.8 -7.4 Q4.05 -7.05 3.2 -6.1 2.3 -6.4 1.5 -7.0 0.0 -6.35 -0.45 -4.4 L-1.6 -6.15 Q-1.65 -5.45 -1.8 -5.35 L-2.25 -4.85 Q-2.95 -3.75 -3.2 -2.3" fill="#b98e8e" fill-rule="evenodd" stroke="none"/>
    <path d="M-3.2 -2.3 L-3.25 -2.25 -3.4 -2.0 -3.4 -3.6 -3.2 -5.8 -2.9 -6.75 -2.7 -7.35 Q-1.95 -8.35 -2.15 -8.6 -1.1 -8.45 -0.5 -7.35 -0.1 -9.2 1.55 -10.65 2.15 -9.4 3.15 -9.05 4.0 -10.0 5.5 -10.6 5.35 -9.6 5.85 -8.45 L9.05 -9.6 8.55 -7.15 Q9.35 -7.3 10.2 -7.95 L10.2 -5.85 10.35 -3.9 10.4 -3.25 M10.5 -0.5 L10.45 -0.3 10.4 0.1 10.4 0.15 Q9.8 2.6 8.75 3.85 L8.55 4.0 8.1 4.35 Q8.7 2.6 8.25 1.65 7.4 0.85 6.45 2.1 5.8 4.3 6.15 6.1 L6.15 6.55 Q4.1 9.15 2.3 8.05 L-1.9 5.5 -2.6 5.95 -2.55 6.75 Q-4.05 5.9 -3.0 4.25 M2.7 6.15 Q6.0 5.05 4.5 1.95 7.6 -4.2 -1.0 -1.6 -1.5 -2.2 -1.95 -2.45 L-3.0 -2.5 -3.2 -2.3 M10.45 -0.5 L10.5 -0.5 M0.25 1.15 Q2.05 0.3 3.45 0.75 1.6 -0.5 0.25 1.15 M-3.3 -1.05 Q-1.85 -1.35 -1.6 0.45 -2.4 -0.9 -3.3 -1.05" fill="none" stroke="#4b2e2e" stroke-linecap="round" stroke-linejoin="round" stroke-width="0.05"/>
    <path d="M10.4 -3.25 L10.45 -2.85 10.55 -0.8 10.5 -0.5" fill="none" stroke="#4b2e2e" stroke-linecap="round" stroke-linejoin="round" stroke-width="0.05"/>
  </g>
</svg>
