<?xml version="1.0" encoding="UTF-8" standalone="no"?>
<svg xmlns:xlink="http://www.w3.org/1999/xlink" height="37.9px" width="34.75px" xmlns="http://www.w3.org/2000/svg">
  <g transform="matrix(1.0, 0.0, 0.0, 1.0, 15.2, 18.95)">
    <path d="M10.55 17.0 Q8.1 5.5 6.95 -18.55 L6.9 -18.95 10.55 -18.95 13.2 -7.25 Q15.95 4.35 19.55 15.35 17.0 18.6 14.05 17.2 11.0 15.75 10.55 17.0" fill="#a7a7a7" fill-rule="evenodd" stroke="none"/>
    <path d="M6.9 -18.95 L6.95 -18.55 Q8.1 5.5 10.55 17.0 10.1 18.4 6.5 17.6 -0.25 16.85 -3.9 18.2 -7.6 19.55 -8.4 18.4 -9.25 17.25 -8.9 17.25 -13.8 13.9 -15.2 13.4 -12.2 -2.8 -12.55 -18.95 L6.9 -18.95 M-7.35 -3.35 Q-8.7 11.05 -8.9 17.25 -8.7 11.05 -7.35 -3.35 M2.85 8.45 Q-3.45 11.2 -4.3 -11.95 -3.45 11.2 2.85 8.45" fill="#bcbcbc" fill-rule="evenodd" stroke="none"/>
    <path d="M6.9 -18.95 L6.95 -18.55 Q8.1 5.5 10.55 17.0 11.0 15.75 14.05 17.2 17.0 18.6 19.55 15.35 15.95 4.35 13.2 -7.25 L10.55 -18.95 6.9 -18.95 -12.55 -18.95 Q-12.2 -2.8 -15.2 13.4 -13.8 13.9 -8.9 17.25 -8.7 11.05 -7.35 -3.35 M10.55 17.0 Q10.1 18.4 6.5 17.6 -0.25 16.85 -3.9 18.2 -7.6 19.55 -8.4 18.4 -9.25 17.25 -8.9 17.25 M-4.3 -11.95 Q-3.45 11.2 2.85 8.45" fill="none" stroke="#666666" stroke-linecap="round" stroke-linejoin="round" stroke-width="0.05"/>
  </g>
</svg>
