<?xml version="1.0" encoding="UTF-8" standalone="no"?>
<svg xmlns:xlink="http://www.w3.org/1999/xlink" height="40.75px" width="47.95px" xmlns="http://www.w3.org/2000/svg">
  <g transform="matrix(1.0, 0.0, 0.0, 1.0, 23.95, 20.35)">
    <path d="M7.5 -16.95 Q8.8 -14.55 9.3 -11.85 9.85 -8.9 9.45 -6.0 9.15 -3.65 7.5 -2.25 -7.4 0.5 -9.0 -6.5 L-9.1 -7.7 -9.1 -11.25 Q-9.05 -12.45 -8.25 -13.85 L-7.95 -14.35 Q-7.05 -14.5 -6.7 -15.7 L-5.25 -16.1 Q-2.3 -14.85 -0.6 -17.0 L1.6 -17.2 Q3.5 -15.8 5.85 -17.15 L7.5 -16.95" fill="#888888" fill-rule="evenodd" stroke="none"/>
    <path d="M-7.95 -14.35 L-8.25 -13.85 Q-9.05 -12.45 -9.1 -11.25 L-9.1 -7.7 -9.0 -6.5 -13.7 -10.1 -13.9 -10.25 -13.95 -10.3 -14.55 -10.4 Q-16.65 -10.2 -17.9 -8.7 -24.1 1.75 -22.05 9.05 L-23.65 5.95 Q-25.35 -3.9 -18.0 -10.7 -14.85 -12.55 -11.75 -13.85 L-9.6 -14.7 Q-8.65 -14.25 -7.95 -14.35" fill="#777777" fill-rule="evenodd" stroke="none"/>
    <path d="M8.1 -16.9 Q9.05 -19.7 10.35 -18.9 11.65 -18.1 10.75 -16.35 8.8 -15.9 8.1 -16.9 M5.85 -17.15 Q3.5 -15.8 1.6 -17.2 1.8 -19.75 3.55 -20.25 5.2 -20.95 5.85 -17.15 M-0.6 -17.0 Q-2.3 -14.85 -5.25 -16.1 -3.35 -23.6 -0.6 -17.0 M-6.7 -15.7 Q-7.05 -14.5 -7.95 -14.35 -8.65 -14.25 -9.6 -14.7 -10.15 -19.2 -6.7 -15.7" fill="#3c3e3c" fill-rule="evenodd" stroke="none"/>
    <path d="M14.85 -10.0 L15.05 -10.55 Q15.65 -11.85 18.05 -11.1 23.35 -5.7 21.65 10.85 L17.45 18.2 18.3 12.1 Q19.0 3.45 16.9 -2.85 14.5 -7.95 14.85 -10.0 M-22.05 9.05 Q-24.1 1.75 -17.9 -8.7 -16.65 -10.2 -14.55 -10.4 L-13.95 -10.3 -13.9 -10.25 -13.7 -10.1 Q-13.1 -9.4 -14.3 -6.95 -15.55 -4.05 -16.25 -1.05 -17.5 4.35 -16.75 10.15 L-16.7 10.45 Q-16.1 15.3 -14.1 20.4 -18.8 14.8 -22.05 9.05" fill="#3c3d37" fill-rule="evenodd" stroke="none"/>
    <path d="M10.75 -16.35 Q13.95 -15.55 16.95 -13.95 L17.75 -13.55 Q24.2 -9.4 24.0 6.4 L21.65 10.85 Q23.35 -5.7 18.05 -11.1 15.65 -11.85 15.05 -10.55 L14.85 -10.0 Q12.9 -3.55 10.35 -2.85 11.45 -4.15 12.05 -6.1 12.6 -8.05 12.4 -10.9 12.15 -13.75 10.75 -16.35" fill="#616161" fill-rule="evenodd" stroke="none"/>
    <path d="M10.75 -16.35 Q12.15 -13.75 12.4 -10.9 12.6 -8.05 12.05 -6.1 11.45 -4.15 10.35 -2.85 L7.5 -2.25 Q9.15 -3.65 9.45 -6.0 9.85 -8.9 9.3 -11.85 8.8 -14.55 7.5 -16.95 L8.1 -16.9 Q8.8 -15.9 10.75 -16.35" fill="#767676" fill-rule="evenodd" stroke="none"/>
    <path d="M21.65 10.85 L24.0 6.4 Q24.2 -9.4 17.75 -13.55 L16.95 -13.95 Q13.95 -15.55 10.75 -16.35 12.15 -13.75 12.4 -10.9 12.6 -8.05 12.05 -6.1 11.45 -4.15 10.35 -2.85 L7.5 -2.25 Q-7.4 0.5 -9.0 -6.5 L-9.1 -7.7 -9.1 -11.25 Q-9.05 -12.45 -8.25 -13.85 L-7.95 -14.35 Q-7.05 -14.5 -6.7 -15.7 -10.15 -19.2 -9.6 -14.7 L-11.75 -13.85 Q-14.85 -12.55 -18.0 -10.7 -25.35 -3.9 -23.65 5.95 L-22.05 9.05 Q-24.1 1.75 -17.9 -8.7 -16.65 -10.2 -14.55 -10.4 L-13.95 -10.3 -13.9 -10.25 -13.7 -10.1 M14.85 -10.0 L15.05 -10.55 Q15.65 -11.85 18.05 -11.1 23.35 -5.7 21.65 10.85 M8.1 -16.9 Q9.05 -19.7 10.35 -18.9 11.65 -18.1 10.75 -16.35 8.8 -15.9 8.1 -16.9 L7.5 -16.95 5.85 -17.15 Q3.5 -15.8 1.6 -17.2 L-0.6 -17.0 Q-2.3 -14.85 -5.25 -16.1 L-6.7 -15.7 M5.85 -17.15 Q5.2 -20.95 3.55 -20.25 1.8 -19.75 1.6 -17.2 M-9.6 -14.7 Q-8.65 -14.25 -7.95 -14.35 M-0.6 -17.0 Q-3.35 -23.6 -5.25 -16.1" fill="none" stroke="#32322e" stroke-linecap="round" stroke-linejoin="round" stroke-width="0.05"/>
  </g>
</svg>
