<?xml version="1.0" encoding="UTF-8" standalone="no"?>
<svg xmlns:xlink="http://www.w3.org/1999/xlink" height="52.95px" width="16.2px" xmlns="http://www.w3.org/2000/svg">
  <g transform="matrix(1.0, 0.0, 0.0, 1.0, 8.05, 45.7)">
    <path d="M4.65 -45.7 L8.15 -45.7 Q1.7 -41.6 1.8 -33.45 4.1 -33.15 5.05 -31.35 0.9 -31.75 1.7 -29.4 5.85 -29.35 7.0 -27.55 L7.0 -24.05 Q2.85 -27.55 -0.3 -22.95 -1.85 -19.3 -1.75 -15.05 L-1.65 -13.05 Q-1.35 -9.5 0.0 -5.4 2.0 -1.05 4.75 -1.1 6.05 3.85 3.1 6.8 -1.7 0.05 -3.25 -4.65 L-4.15 -7.75 Q-6.0 -15.1 -5.6 -23.5 -2.1 -23.55 -4.6 -27.15 L-3.1 -28.95 Q-3.05 -40.75 4.65 -45.7" fill="#fcff1a" fill-rule="evenodd" stroke="none"/>
    <path d="M3.1 6.8 Q1.15 8.05 -0.5 5.8 -3.8 0.9 -5.65 -4.65 L-6.55 -7.75 Q-8.4 -15.1 -8.0 -23.5 -4.5 -23.55 -7.0 -27.15 L-5.5 -28.95 Q-5.45 -40.75 2.25 -45.7 L4.65 -45.7 Q-3.05 -40.75 -3.1 -28.95 L-4.6 -27.15 Q-2.1 -23.55 -5.6 -23.5 -6.0 -15.1 -4.15 -7.75 L-3.25 -4.65 Q-1.7 0.05 3.1 6.8" fill="#ebeb01" fill-rule="evenodd" stroke="none"/>
    <path d="M3.1 6.8 Q1.15 8.05 -0.5 5.8 -3.8 0.9 -5.65 -4.65 L-6.55 -7.75 Q-8.4 -15.1 -8.0 -23.5 -4.5 -23.55 -7.0 -27.15 L-5.5 -28.95 Q-5.45 -40.75 2.25 -45.7 L4.65 -45.7 8.15 -45.7 Q1.7 -41.6 1.8 -33.45 4.1 -33.15 5.05 -31.35 0.9 -31.75 1.7 -29.4 5.85 -29.35 7.0 -27.55 L7.0 -24.05 Q2.85 -27.55 -0.3 -22.95 -1.85 -19.3 -1.75 -15.05 L-1.65 -13.05 Q-1.35 -9.5 0.0 -5.4 2.0 -1.05 4.75 -1.1 6.05 3.85 3.1 6.8 Z" fill="none" stroke="#744e10" stroke-linecap="round" stroke-linejoin="round" stroke-width="0.05"/>
  </g>
</svg>
