<?xml version="1.0" encoding="UTF-8" standalone="no"?>
<svg xmlns:xlink="http://www.w3.org/1999/xlink" height="31.6px" width="11.05px" xmlns="http://www.w3.org/2000/svg">
  <g transform="matrix(1.0, 0.0, 0.0, 1.0, 5.5, 0.7)">
    <path d="M-3.15 15.0 Q-2.45 15.05 -1.85 14.7 L5.25 25.05 5.55 25.5 1.35 29.9 0.7 30.9 0.7 28.8 -1.75 28.8 2.75 25.0 5.25 25.05 2.75 25.0 -3.8 14.9 -3.15 15.0" fill="#38363d" fill-rule="evenodd" stroke="none"/>
    <path d="M1.25 -0.65 L1.85 -0.2 Q3.2 1.2 1.65 5.35 L-2.5 13.7 -2.65 13.75 Q-4.35 14.15 -5.3 12.65 -6.05 9.85 -4.3 4.3 -3.6 0.4 -1.2 -0.45 L0.9 -0.7 1.25 -0.65" fill="#a5a7a6" fill-rule="evenodd" stroke="none"/>
    <path d="M-5.3 12.65 Q-4.35 14.15 -2.65 13.75 L-2.5 13.7 -3.15 15.0 -3.8 14.9 Q-4.95 14.2 -5.3 12.65" fill="#737777" fill-rule="evenodd" stroke="none"/>
    <path d="M-2.5 13.7 L-0.95 12.9 -1.85 14.7 Q-2.45 15.05 -3.15 15.0 L-2.5 13.7" fill="#606260" fill-rule="evenodd" stroke="none"/>
    <path d="M-2.5 13.7 L1.65 5.35 Q3.2 1.2 1.85 -0.2 L1.25 -0.65 1.9 -0.5 Q4.7 0.35 2.7 5.65 L-0.95 12.9 -2.5 13.7" fill="#949694" fill-rule="evenodd" stroke="none"/>
    <path d="M-2.5 13.7 L-0.95 12.9 2.7 5.65 Q4.7 0.35 1.9 -0.5 L1.25 -0.65 0.9 -0.7 -1.2 -0.45 Q-3.6 0.4 -4.3 4.3 -6.05 9.85 -5.3 12.65 -4.35 14.15 -2.65 13.75 L-2.5 13.7 M-3.15 15.0 Q-2.45 15.05 -1.85 14.7 L-0.95 12.9 M2.75 25.0 L-1.75 28.8 0.7 28.8 0.7 30.9 1.35 29.9 5.55 25.5 5.25 25.05 2.75 25.0 -3.8 14.9 Q-4.95 14.2 -5.3 12.65 M-3.8 14.9 L-3.15 15.0 M-1.85 14.7 L5.25 25.05" fill="none" stroke="#32322e" stroke-linecap="round" stroke-linejoin="round" stroke-width="0.05"/>
  </g>
</svg>
