<?xml version="1.0" encoding="UTF-8" standalone="no"?>
<svg xmlns:xlink="http://www.w3.org/1999/xlink" height="16.35px" width="44.65px" xmlns="http://www.w3.org/2000/svg">
  <g transform="matrix(1.0, 0.0, 0.0, 1.0, 22.65, 7.7)">
    <path d="M15.25 -3.95 Q17.05 -4.35 19.05 -5.1 22.7 -0.7 21.8 3.35 18.95 2.05 16.15 1.3 L13.1 0.65 10.35 0.35 10.1 0.35 9.7 0.3 12.1 -0.9 Q15.9 -1.8 15.25 -3.95 M-11.65 4.7 L-14.35 2.9 Q-15.85 1.0 -14.45 -0.45 -11.9 -4.2 -7.55 -6.0 -6.2 -1.1 -3.25 0.9 L-6.9 0.85 -10.75 1.2 Q-14.8 2.0 -11.65 4.7" fill="#4e10b1" fill-rule="evenodd" stroke="none"/>
    <path d="M-7.55 -6.0 Q-3.5 -7.7 2.05 -7.7 L7.8 -3.95 Q11.25 -3.15 15.25 -3.95 15.9 -1.8 12.1 -0.9 L9.7 0.3 8.8 0.3 7.2 0.3 5.6 0.45 2.95 0.85 1.35 1.2 -0.35 1.1 -2.85 0.95 -3.25 0.9 Q-6.2 -1.1 -7.55 -6.0" fill="#8448ff" fill-rule="evenodd" stroke="none"/>
    <path d="M21.8 3.35 Q21.4 5.2 20.1 7.0 L17.85 6.15 15.4 5.45 13.65 5.1 12.05 4.9 10.0 4.75 8.45 4.8 8.4 4.8 7.2 5.75 5.9 6.75 3.45 8.65 -3.25 7.5 -7.75 6.3 -11.65 4.7 Q-14.8 2.0 -10.75 1.2 L-6.9 0.85 Q-9.45 5.5 -3.25 7.5 -9.45 5.5 -6.9 0.85 L-3.25 0.9 -2.85 0.95 -3.0 1.1 -3.1 1.2 Q-2.1 1.9 -1.1 2.4 1.05 3.45 3.15 3.5 4.0 5.15 7.2 5.75 4.0 5.15 3.15 3.5 L5.55 3.15 7.1 2.5 Q7.95 4.1 10.0 4.75 7.95 4.1 7.1 2.5 L8.8 1.45 10.1 0.35 10.35 0.35 13.1 0.65 16.15 1.3 Q18.95 2.05 21.8 3.35 M17.85 6.15 Q13.8 3.15 16.15 1.3 13.8 3.15 17.85 6.15 M13.1 0.65 Q12.15 3.2 15.4 5.45 12.15 3.2 13.1 0.65 M10.35 0.35 Q10.0 3.2 13.65 5.1 10.0 3.2 10.35 0.35 M12.05 4.9 Q9.3 3.6 8.8 1.45 9.3 3.6 12.05 4.9 M8.4 4.8 Q6.15 4.4 5.55 3.15 6.15 4.4 8.4 4.8 M5.9 6.75 Q-1.85 5.35 -1.1 2.4 -1.85 5.35 5.9 6.75 M-7.75 6.3 Q-11.75 4.4 -10.75 1.2 -11.75 4.4 -7.75 6.3 M-3.1 1.2 Q-7.25 6.2 3.45 8.65 -7.25 6.2 -3.1 1.2" fill="#945ac3" fill-rule="evenodd" stroke="none"/>
    <path d="M-15.75 2.7 L-17.1 4.05 -17.25 2.5 Q-16.3 1.6 -15.75 2.7 M-18.6 2.3 L-19.5 3.65 -19.65 2.2 -18.6 2.3 M-19.6 0.95 L-19.6 -0.4 -18.55 0.7 Q-19.05 1.3 -19.6 0.95 M-17.3 0.35 L-17.15 -1.3 -15.95 -0.05 Q-16.55 1.0 -17.3 0.35 M-2.85 0.95 L-0.35 1.1 1.35 1.2 2.95 0.85 5.6 0.45 7.2 0.3 8.8 0.3 9.7 0.3 10.1 0.35 8.8 1.45 8.8 0.3 8.8 1.45 7.1 2.5 7.2 0.3 7.1 2.5 5.55 3.15 Q5.25 2.6 5.3 1.85 5.3 1.2 5.6 0.45 5.3 1.2 5.3 1.85 5.25 2.6 5.55 3.15 L3.15 3.5 2.8 2.3 Q2.75 1.6 2.95 0.85 2.75 1.6 2.8 2.3 L3.15 3.5 Q1.05 3.45 -1.1 2.4 -2.1 1.9 -3.1 1.2 L-3.0 1.1 -2.85 0.95 M-0.35 1.1 L-0.95 2.0 -1.1 2.4 -0.95 2.0 -0.35 1.1" fill="#bb65e4" fill-rule="evenodd" stroke="none"/>
    <path d="M-14.35 2.9 L-15.75 2.7 Q-16.3 1.6 -17.25 2.5 L-18.6 2.3 -19.65 2.2 -22.65 1.8 -19.6 0.95 Q-19.05 1.3 -18.55 0.7 L-17.3 0.35 Q-16.55 1.0 -15.95 -0.05 L-14.45 -0.45 Q-15.85 1.0 -14.35 2.9" fill="#241843" fill-rule="evenodd" stroke="none"/>
    <path d="M-7.55 -6.0 Q-3.5 -7.7 2.05 -7.7 L7.8 -3.95 Q11.25 -3.15 15.25 -3.95 17.05 -4.35 19.05 -5.1 22.7 -0.7 21.8 3.35 21.4 5.2 20.1 7.0 L17.85 6.15 15.4 5.45 13.65 5.1 12.05 4.9 10.0 4.75 8.45 4.8 8.4 4.8 7.2 5.75 5.9 6.75 3.45 8.65 -3.25 7.5 -7.75 6.3 -11.65 4.7 -14.35 2.9 -15.75 2.7 -17.1 4.05 -17.25 2.5 -18.6 2.3 -19.5 3.65 -19.65 2.2 -22.65 1.8 -19.6 0.95 -19.6 -0.4 -18.55 0.7 -17.3 0.35 -17.15 -1.3 -15.95 -0.05 -14.45 -0.45 Q-11.9 -4.2 -7.55 -6.0 M-3.25 0.9 L-2.85 0.95 -0.35 1.1 1.35 1.2 2.95 0.85 5.6 0.45 7.2 0.3 8.8 0.3 9.7 0.3 10.1 0.35 10.35 0.35 13.1 0.65 16.15 1.3 Q18.95 2.05 21.8 3.35 M16.15 1.3 Q13.8 3.15 17.85 6.15 M13.65 5.1 Q10.0 3.2 10.35 0.35 M15.4 5.45 Q12.15 3.2 13.1 0.65 M8.8 0.3 L8.8 1.45 Q9.3 3.6 12.05 4.9 M5.55 3.15 Q5.25 2.6 5.3 1.85 5.3 1.2 5.6 0.45 M7.1 2.5 L7.2 0.3 M7.1 2.5 Q7.95 4.1 10.0 4.75 M5.55 3.15 Q6.15 4.4 8.4 4.8 M3.15 3.5 L2.8 2.3 Q2.75 1.6 2.95 0.85 M7.2 5.75 Q4.0 5.15 3.15 3.5 M-1.1 2.4 Q-1.85 5.35 5.9 6.75 M-3.1 1.2 L-3.0 1.1 -2.85 0.95 M-1.1 2.4 L-0.95 2.0 -0.35 1.1 M-3.25 7.5 Q-9.45 5.5 -6.9 0.85 L-10.75 1.2 Q-11.75 4.4 -7.75 6.3 M-6.9 0.85 L-3.25 0.9 M-11.65 4.7 Q-14.8 2.0 -10.75 1.2 M-15.75 2.7 Q-16.3 1.6 -17.25 2.5 M-18.6 2.3 L-19.65 2.2 M-19.6 0.95 Q-19.05 1.3 -18.55 0.7 M-17.3 0.35 Q-16.55 1.0 -15.95 -0.05 M-14.45 -0.45 Q-15.85 1.0 -14.35 2.9 M3.45 8.65 Q-7.25 6.2 -3.1 1.2" fill="none" stroke="#2b0493" stroke-linecap="round" stroke-linejoin="round" stroke-width="0.05"/>
  </g>
</svg>
