<?xml version="1.0" encoding="UTF-8" standalone="no"?>
<svg xmlns:xlink="http://www.w3.org/1999/xlink" height="27.9px" width="16.75px" xmlns="http://www.w3.org/2000/svg">
  <g transform="matrix(1.0, 0.0, 0.0, 1.0, 10.05, 10.85)">
    <path d="M0.6 -7.7 L0.8 -6.9 0.9 -6.65 2.4 -6.05 Q2.5 -3.65 2.8 -2.6 3.0 -1.65 3.85 0.3 L4.1 1.1 Q4.85 2.75 5.5 2.4 L2.6 9.05 3.6 10.55 Q5.25 12.95 5.8 15.55 L3.4 14.6 2.75 13.05 1.25 10.15 1.05 9.55 Q0.0 7.1 -2.8 6.45 L-3.4 6.45 Q-5.25 6.95 -5.6 9.0 L-5.85 7.95 -7.15 4.9 -7.35 4.2 Q-9.4 3.45 -9.9 1.4 -8.85 3.1 -7.85 3.1 -6.15 1.85 -4.05 3.45 1.7 5.4 2.85 2.0 2.45 -0.6 0.95 -2.45 -0.25 -3.4 -0.7 -3.0 L-2.15 -3.65 0.25 -3.8 -0.1 -6.45 -0.3 -7.3 0.6 -7.7 M1.3 -5.45 L0.9 -6.65 1.3 -5.45 M-7.35 4.2 Q-5.65 3.45 -2.6 5.35 -1.15 6.15 0.25 6.2 1.85 6.2 3.0 4.7 4.1 3.2 4.1 1.1 4.1 3.2 3.0 4.7 1.85 6.2 0.25 6.2 -1.15 6.15 -2.6 5.35 -5.65 3.45 -7.35 4.2 M0.8 -6.9 L-0.1 -6.45 0.8 -6.9" fill="#1c3748" fill-rule="evenodd" stroke="none"/>
    <path d="M5.8 15.55 L2.1 16.85 -2.1 17.05 -4.35 16.65 Q-7.15 15.4 -7.55 15.0 L-7.45 13.8 Q-7.15 11.2 -5.6 9.05 L-5.6 9.0 Q-5.25 6.95 -3.4 6.45 L-2.8 6.45 Q0.0 7.1 1.05 9.55 L1.25 10.15 2.75 13.05 3.4 14.6 5.8 15.55 M-9.9 1.4 Q-10.3 0.4 -9.75 -0.9 L-8.7 -2.65 -8.65 -2.65 -4.7 -7.1 -4.0 -7.0 -4.0 -7.6 Q-2.95 -6.35 -0.3 -7.3 L-0.1 -6.45 0.25 -3.8 -2.15 -3.65 -0.7 -3.0 Q-0.25 -3.4 0.95 -2.45 2.45 -0.6 2.85 2.0 1.7 5.4 -4.05 3.45 -6.15 1.85 -7.85 3.1 -8.85 3.1 -9.9 1.4 M-4.65 -1.85 L-3.05 -5.8 -3.0 -5.8 Q-1.3 -5.5 -0.1 -6.45 -1.3 -5.5 -3.0 -5.8 L-3.05 -5.8 -4.65 -1.85 M-3.05 -5.8 Q-4.0 -6.1 -4.0 -7.0 -4.0 -6.1 -3.05 -5.8" fill="#24485b" fill-rule="evenodd" stroke="none"/>
    <path d="M-3.8 -9.7 L-3.85 -10.75 0.45 -10.85 0.6 -7.7 -0.3 -7.3 -0.95 -8.9 -2.9 -9.25 -3.8 -9.7 M2.4 -6.05 Q4.95 -5.3 6.7 -4.1 6.3 0.65 5.5 2.4 4.85 2.75 4.1 1.1 L3.85 0.3 Q3.0 -1.65 2.8 -2.6 2.5 -3.65 2.4 -6.05" fill="#ffdfce" fill-rule="evenodd" stroke="none"/>
    <path d="M-8.7 -2.65 L-8.35 -3.75 -8.5 -6.55 -8.5 -6.6 -4.7 -7.1 -8.65 -2.65 -8.7 -2.65 M-4.0 -7.6 Q-3.75 -8.05 -3.8 -9.7 L-2.9 -9.25 -0.95 -8.9 -0.3 -7.3 Q-2.95 -6.35 -4.0 -7.6" fill="#ffeadf" fill-rule="evenodd" stroke="none"/>
    <path d="M-3.8 -9.7 L-3.85 -10.75 0.45 -10.85 0.6 -7.7 M-4.0 -7.6 Q-3.75 -8.05 -3.8 -9.7" fill="none" stroke="#d7995e" stroke-linecap="round" stroke-linejoin="round" stroke-width="0.05"/>
    <path d="M0.6 -7.7 L0.8 -6.9 0.9 -6.65 2.4 -6.05 Q2.5 -3.65 2.8 -2.6 3.0 -1.65 3.85 0.3 L4.1 1.1 Q4.85 2.75 5.5 2.4 L2.6 9.05 3.6 10.55 Q5.25 12.95 5.8 15.55 M-7.55 15.0 L-7.45 13.8 Q-7.15 11.2 -5.6 9.05 L-5.6 9.0 -5.85 7.95 -7.15 4.9 -7.35 4.2 Q-9.4 3.45 -9.9 1.4 -10.3 0.4 -9.75 -0.9 L-8.7 -2.65 -8.65 -2.65 -4.7 -7.1 -4.0 -7.0 -4.0 -7.6 Q-2.95 -6.35 -0.3 -7.3 L0.6 -7.7 M0.9 -6.65 L1.3 -5.45 M4.1 1.1 Q4.1 3.2 3.0 4.7 1.85 6.2 0.25 6.2 -1.15 6.15 -2.6 5.35 -5.65 3.45 -7.35 4.2 M-0.1 -6.45 Q-1.3 -5.5 -3.0 -5.8 L-3.05 -5.8 -4.65 -1.85 M-0.1 -6.45 L0.8 -6.9 M-4.0 -7.0 Q-4.0 -6.1 -3.05 -5.8" fill="none" stroke="#346c81" stroke-linecap="round" stroke-linejoin="round" stroke-width="0.05"/>
    <path d="M2.4 -6.05 Q4.95 -5.3 6.7 -4.1 6.3 0.65 5.5 2.4 M-8.7 -2.65 L-8.35 -3.75 M-8.5 -6.55 L-8.5 -6.6 -4.7 -7.1" fill="none" stroke="#fda893" stroke-linecap="round" stroke-linejoin="round" stroke-width="0.05"/>
    <path d="M-6.95 -2.45 L-4.7 -3.55 -6.2 -2.4 -4.95 -0.5 -5.45 1.55 -5.55 -0.2 -6.95 -2.45 M-4.5 -1.0 L-5.65 -2.35 -3.85 -3.75 -2.7 -2.35 -4.5 -1.0 M-2.15 -2.4 L-3.1 -3.55 -1.35 -2.45 -3.8 -0.2 -4.8 1.55 -4.3 -0.5 -2.15 -2.4" fill="#adb56c" fill-rule="evenodd" stroke="none"/>
    <path d="M5.85 15.4 Q6.45 15.5 6.25 16.3 -0.7 15.6 -7.05 11.4 -7.55 10.65 -6.65 10.4 -0.8 13.8 5.85 15.4" fill="#9b96cc" fill-rule="evenodd" stroke="none"/>
    <path d="M5.85 15.4 Q-0.8 13.8 -6.65 10.4 -7.55 10.65 -7.05 11.4 -0.7 15.6 6.25 16.3 6.45 15.5 5.85 15.4 Z" fill="none" stroke="#346c81" stroke-linecap="round" stroke-linejoin="round" stroke-width="0.05"/>
    <path d="M3.7 10.5 Q4.15 9.7 3.3 9.5 -1.95 13.2 -7.95 15.15 -8.5 15.25 -8.3 16.05 -2.0 15.0 3.7 10.5" fill="#9b96cc" fill-rule="evenodd" stroke="none"/>
    <path d="M3.7 10.5 Q-2.0 15.0 -8.3 16.05 -8.5 15.25 -7.95 15.15 -1.95 13.2 3.3 9.5 4.15 9.7 3.7 10.5 Z" fill="none" stroke="#346c81" stroke-linecap="round" stroke-linejoin="round" stroke-width="0.05"/>
  </g>
</svg>
