<?xml version="1.0" encoding="UTF-8" standalone="no"?>
<svg xmlns:xlink="http://www.w3.org/1999/xlink" height="19.0px" width="22.7px" xmlns="http://www.w3.org/2000/svg">
  <g transform="matrix(1.0, 0.0, 0.0, 1.0, 8.1, 11.8)">
    <path d="M0.4 1.15 Q1.95 -0.5 4.0 0.75 2.45 0.3 0.4 1.15 M-1.65 0.45 Q-2.5 -0.9 -3.55 -1.05 -1.95 -1.35 -1.65 0.45" fill="#503e53" fill-rule="evenodd" stroke="none"/>
    <path d="M13.35 -4.15 L13.75 -2.7 14.45 0.6 14.5 0.7 14.6 1.5 14.05 0.95 13.4 0.25 13.4 1.5 10.35 3.5 9.9 3.8 10.1 2.9 10.1 2.4 Q10.1 0.55 8.3 1.35 L7.85 1.55 Q7.8 3.25 6.8 5.2 L5.45 7.2 Q6.4 5.0 6.3 2.6 L5.85 -0.1 Q5.5 -2.1 3.8 -3.55 L4.45 -1.5 Q4.75 0.8 4.5 2.5 3.05 1.2 2.25 -0.55 L1.4 -2.3 Q2.15 0.9 1.75 3.3 L0.7 -0.3 -0.35 -2.6 0.0 -0.6 -0.8 -2.3 -0.4 0.2 -0.3 3.05 -0.4 3.65 -2.3 -4.85 Q-4.1 -2.15 -4.35 2.1 L-5.25 0.35 -5.5 -1.2 -5.55 -1.85 -5.5 -2.9 -5.25 -4.2 -5.3 -4.2 -6.15 -2.65 -5.9 -4.2 -5.9 -4.3 -5.85 -4.3 Q-1.95 -12.9 4.6 -9.95 10.6 -11.55 13.35 -4.15" fill="#5b3859" fill-rule="evenodd" stroke="none"/>
    <path d="M-8.1 -0.3 Q-5.75 -8.75 -2.0 -10.95 -0.4 -11.95 1.4 -11.8 2.8 -11.75 4.2 -11.1 L4.65 -11.2 6.55 -11.35 Q11.1 -11.1 13.35 -4.15 10.6 -11.55 4.6 -9.95 -1.95 -12.9 -5.85 -4.3 L-5.9 -4.3 -8.1 -0.3 M1.75 3.3 L1.55 4.05 1.5 4.1 1.4 4.35 0.65 1.15 0.0 -0.6 -0.35 -2.6 0.7 -0.3 1.75 3.3 M-4.35 2.1 L-4.4 3.2 -4.4 3.3 Q-6.55 0.95 -6.15 -2.65 L-5.3 -4.2 -5.25 -4.2 -5.5 -2.9 -5.55 -1.85 -5.5 -1.2 -5.25 0.35 -4.35 2.1" fill="#ad8da2" fill-rule="evenodd" stroke="none"/>
    <path d="M-8.1 -0.3 Q-5.75 -8.75 -2.0 -10.95 -0.4 -11.95 1.4 -11.8 2.8 -11.75 4.2 -11.1 L4.65 -11.2 6.55 -11.35 Q11.1 -11.1 13.35 -4.15 M14.05 0.95 L13.4 0.25 13.4 1.5 M10.35 3.5 L9.9 3.8 M7.85 1.55 Q7.8 3.25 6.8 5.2 L5.45 7.2 M-4.4 3.2 L-4.4 3.3 Q-6.55 0.95 -6.15 -2.65 L-5.9 -4.2 -5.9 -4.3" fill="none" stroke="#342134" stroke-linecap="round" stroke-linejoin="round" stroke-width="0.05"/>
  </g>
</svg>
