<?xml version="1.0" encoding="UTF-8" standalone="no"?>
<svg xmlns:xlink="http://www.w3.org/1999/xlink" height="23.45px" width="10.95px" xmlns="http://www.w3.org/2000/svg">
  <g transform="matrix(1.0, 0.0, 0.0, 1.0, 7.2, 1.15)">
    <path d="M-4.1 3.75 Q-1.25 3.25 -0.45 1.3 1.2 -0.75 3.45 -1.15 4.1 0.4 3.4 5.7 2.7 10.95 -1.55 20.0 -2.45 21.95 -4.4 22.3 -5.45 21.4 -6.05 20.0 L-6.4 18.2 Q-6.15 17.6 -6.2 16.75 L-5.95 12.05 Q-5.6 8.25 -4.1 3.75" fill="#39689f" fill-rule="evenodd" stroke="none"/>
    <path d="M-4.1 3.75 Q-5.6 8.25 -5.95 12.05 L-6.2 16.75 Q-6.15 17.6 -6.4 18.2 L-6.5 17.35 -7.1 10.85 Q-7.5 6.55 -6.45 4.0 L-6.05 3.95 -4.1 3.75" fill="#21415f" fill-rule="evenodd" stroke="none"/>
    <path d="M-0.45 1.3 Q-1.25 3.25 -4.1 3.75 L-6.05 3.95 Q-5.35 1.45 -0.5 0.35 L-0.45 1.3" fill="#0e1a27" fill-rule="evenodd" stroke="none"/>
    <path d="M-0.45 1.3 Q-1.25 3.25 -4.1 3.75 L-6.05 3.95 Q-5.35 1.45 -0.5 0.35 L-0.45 1.3 Q1.2 -0.75 3.45 -1.15 4.1 0.4 3.4 5.7 2.7 10.95 -1.55 20.0 -2.45 21.95 -4.4 22.3 -5.45 21.4 -6.05 20.0 L-6.4 18.2 -6.5 17.35 -7.1 10.85 Q-7.5 6.55 -6.45 4.0 L-6.05 3.95" fill="none" stroke="#301820" stroke-linecap="round" stroke-linejoin="round" stroke-width="0.05"/>
  </g>
</svg>
