<?xml version="1.0" encoding="UTF-8" standalone="no"?>
<svg xmlns:xlink="http://www.w3.org/1999/xlink" height="5.75px" width="12.65px" xmlns="http://www.w3.org/2000/svg">
  <g transform="matrix(1.0, 0.0, 0.0, 1.0, 4.15, 3.0)">
    <path d="M6.55 -2.2 L6.5 -2.45 Q7.05 -3.6 8.3 -2.25 8.75 -1.7 8.05 -0.65 L7.7 -0.2 7.95 0.45 Q8.05 1.4 7.25 2.75 6.1 2.85 5.6 1.8 7.15 0.0 6.55 -2.2" fill="#ffffff" fill-rule="evenodd" stroke="none"/>
    <path d="M2.2 2.15 L1.7 2.2 2.15 2.05 2.2 2.15" fill="#e7e7e7" fill-rule="evenodd" stroke="none"/>
    <path d="M-3.45 1.35 Q-4.25 0.7 -4.15 -0.1 -4.1 -1.1 -2.85 -1.65 -1.65 -2.25 0.0 -2.15 L2.95 -1.6 2.9 -0.7 3.0 -0.3 Q3.05 0.2 2.5 0.65 L2.5 0.7 2.15 0.95 Q0.35 2.0 -3.45 1.35" fill="#d26262" fill-rule="evenodd" stroke="none"/>
    <path d="M5.6 1.8 L2.2 2.15 2.15 2.05 1.7 2.2 1.15 2.3 -0.45 2.35 Q-2.1 2.25 -3.15 1.55 L-3.45 1.35 Q0.35 2.0 2.15 0.95 L2.5 0.7 2.5 0.65 Q3.05 0.2 3.0 -0.3 L2.9 -0.7 2.95 -1.6 6.55 -2.2 Q7.15 0.0 5.6 1.8 M3.65 1.05 Q3.35 1.65 2.15 2.05 3.35 1.65 3.65 1.05" fill="#c84242" fill-rule="evenodd" stroke="none"/>
    <path d="M5.6 1.8 L2.2 2.15 1.7 2.2 1.15 2.3 -0.45 2.35 Q-2.1 2.25 -3.15 1.55 L-3.45 1.35 Q-4.25 0.7 -4.15 -0.1 -4.1 -1.1 -2.85 -1.65 -1.65 -2.25 0.0 -2.15 L2.95 -1.6 6.55 -2.2 M2.15 2.05 L1.7 2.2 M2.15 2.05 Q3.35 1.65 3.65 1.05" fill="none" stroke="#581b1b" stroke-linecap="round" stroke-linejoin="round" stroke-width="0.05"/>
    <path d="M6.55 -2.2 L6.5 -2.45 Q7.05 -3.6 8.3 -2.25 8.75 -1.7 8.05 -0.65 L7.7 -0.2 7.95 0.45 Q8.05 1.4 7.25 2.75 6.1 2.85 5.6 1.8 7.15 0.0 6.55 -2.2" fill="none" stroke="#cecece" stroke-linecap="round" stroke-linejoin="round" stroke-width="0.05"/>
  </g>
</svg>
