<?xml version="1.0" encoding="UTF-8" standalone="no"?>
<svg xmlns:xlink="http://www.w3.org/1999/xlink" height="31.85px" width="21.0px" xmlns="http://www.w3.org/2000/svg">
  <g transform="matrix(1.0, 0.0, 0.0, 1.0, 10.9, 13.15)">
    <path d="M6.25 13.8 Q7.25 14.8 6.8 16.2 3.85 17.95 -1.05 17.95 L-2.25 17.9 -4.2 17.55 Q-4.95 15.8 -4.3 14.8 -0.6 15.45 4.25 14.8 5.55 14.35 6.25 13.8" fill="#684942" fill-rule="evenodd" stroke="none"/>
    <path d="M-4.2 17.55 Q-6.15 17.1 -7.35 16.35 L-8.45 15.4 Q-8.65 14.6 -8.45 13.35 -6.9 14.65 -4.3 14.8 -4.95 15.8 -4.2 17.55" fill="#956c5e" fill-rule="evenodd" stroke="none"/>
    <path d="M-6.8 -8.5 L-6.8 -8.55 -6.65 -8.55 -6.8 -8.5" fill="#ffdfc8" fill-rule="evenodd" stroke="none"/>
    <path d="M-5.2 -8.75 L-5.25 -8.65 -5.25 -8.75 -5.2 -8.75" fill="#eebf5a" fill-rule="evenodd" stroke="none"/>
    <path d="M-8.45 13.35 Q-8.1 9.05 -8.25 4.95 L-9.05 4.1 Q-10.3 2.7 -10.65 0.85 -11.0 -1.0 -10.85 -3.0 L-10.45 -5.15 Q-10.0 -6.55 -9.0 -8.0 L-6.8 -8.5 Q-8.15 -7.2 -7.8 -6.2 L-7.75 -6.15 Q-7.0 -4.25 -4.5 -3.55 L-4.05 -3.45 -2.3 -3.7 Q1.0 -4.3 3.4 -5.6 L5.5 -4.35 5.8 -4.15 Q3.85 1.4 4.9 4.55 L3.2 5.2 Q3.45 10.4 4.25 14.8 -0.6 15.45 -4.3 14.8 -6.9 14.65 -8.45 13.35 M-0.4 5.35 Q-3.25 3.45 -6.45 4.5 -3.25 3.45 -0.4 5.35" fill="#553817" fill-rule="evenodd" stroke="none"/>
    <path d="M4.9 -6.6 L6.9 -5.85 5.8 -4.15 5.5 -4.35 3.4 -5.6 4.9 -6.6 M6.85 6.45 L5.95 7.0 Q5.2 10.85 6.25 13.8 5.55 14.35 4.25 14.8 3.45 10.4 3.2 5.2 L4.9 4.55 6.85 6.45" fill="#382510" fill-rule="evenodd" stroke="none"/>
    <path d="M-5.35 -7.9 L-5.35 -7.85 -5.35 -7.8 -5.25 -7.65 -4.85 -6.95 2.35 -8.25 2.5 -7.65 4.9 -6.6 3.4 -5.6 Q1.0 -4.3 -2.3 -3.7 L-4.05 -3.45 -4.5 -3.55 Q-7.0 -4.25 -7.75 -6.15 L-7.8 -6.2 Q-8.15 -7.2 -6.8 -8.5 L-6.65 -8.55 -5.7 -8.7 -5.35 -7.9" fill="#d1ab86" fill-rule="evenodd" stroke="none"/>
    <path d="M-5.2 -8.75 Q-4.85 -11.05 -5.3 -12.75 -0.7 -13.6 2.4 -12.7 L2.2 -11.3 2.2 -11.05 Q2.1 -9.6 2.35 -8.25 L-4.85 -6.95 -5.25 -7.65 -5.35 -7.8 -5.35 -7.85 -5.35 -7.9 -5.25 -8.65 -5.35 -7.9 -5.7 -8.7 -5.25 -8.75 -5.25 -8.65 -5.2 -8.75 M6.9 -5.85 L9.9 -4.55 Q10.85 3.5 6.85 6.45 L4.9 4.55 Q3.85 1.4 5.8 -4.15 L6.9 -5.85" fill="#c89a6c" fill-rule="evenodd" stroke="none"/>
    <path d="M6.25 13.8 Q7.25 14.8 6.8 16.2 3.85 17.95 -1.05 17.95 L-2.25 17.9 -4.2 17.55 Q-6.15 17.1 -7.35 16.35 L-8.45 15.4 Q-8.65 14.6 -8.45 13.35 M4.25 14.8 Q5.55 14.35 6.25 13.8 M4.25 14.8 Q-0.6 15.45 -4.3 14.8" fill="none" stroke="#3f2c27" stroke-linecap="round" stroke-linejoin="round" stroke-width="0.05"/>
    <path d="M-8.45 13.35 Q-8.1 9.05 -8.25 4.95 L-9.05 4.1 Q-10.3 2.7 -10.65 0.85 -11.0 -1.0 -10.85 -3.0 L-10.45 -5.15 Q-10.0 -6.55 -9.0 -8.0 L-6.8 -8.5 -6.8 -8.55 M5.8 -4.15 L6.9 -5.85 M4.9 -6.6 L3.4 -5.6 Q1.0 -4.3 -2.3 -3.7 L-4.05 -3.45 -4.5 -3.55 Q-7.0 -4.25 -7.75 -6.15 L-7.8 -6.2 Q-8.15 -7.2 -6.8 -8.5 L-6.65 -8.55 M4.9 4.55 L6.85 6.45 M5.8 -4.15 Q3.85 1.4 4.9 4.55 M-6.45 4.5 Q-3.25 3.45 -0.4 5.35 M-4.3 14.8 Q-6.9 14.65 -8.45 13.35" fill="none" stroke="#382510" stroke-linecap="round" stroke-linejoin="round" stroke-width="0.05"/>
    <path d="M2.35 -8.25 Q2.1 -9.6 2.2 -11.05 L2.2 -11.3 2.4 -12.7 Q-0.7 -13.6 -5.3 -12.75 -4.85 -11.05 -5.2 -8.75 L-5.25 -8.65 -5.35 -7.9 -5.35 -7.85 -5.35 -7.8 M2.35 -8.25 L2.5 -7.65 4.9 -6.6 M-6.65 -8.55 L-5.7 -8.7 -5.25 -8.75 -5.2 -8.75" fill="none" stroke="#916337" stroke-linecap="round" stroke-linejoin="round" stroke-width="0.05"/>
    <path d="M4.9 -6.6 L6.9 -5.85 9.9 -4.55 Q10.85 3.5 6.85 6.45 L5.95 7.0 Q5.2 10.85 6.25 13.8 Z" fill="none" stroke="#916337" stroke-linecap="round" stroke-linejoin="round" stroke-width="0.05"/>
    <path d="M-0.2 14.45 L0.05 15.05 0.1 15.65 Q0.15 16.85 -0.65 17.75 -1.45 18.65 -2.65 18.7 -3.85 18.8 -4.75 18.0 -5.65 17.2 -5.7 16.0 -5.75 14.8 -4.95 13.9 -4.3 13.25 -3.35 13.05 L-3.9 14.1 Q-4.55 14.25 -5.0 14.75 -5.6 15.4 -5.55 16.25 -5.5 17.1 -4.85 17.7 -4.2 18.3 -3.35 18.2 -2.45 18.15 -1.85 17.5 -1.25 16.85 -1.3 16.0 L-1.5 15.15 -1.65 14.9 -0.2 14.45 M-1.95 13.05 L-1.2 13.35 -2.4 14.25 -2.95 14.05 -1.95 13.05" fill="#760a3a" fill-rule="evenodd" stroke="none"/>
    <path d="M-0.2 14.45 L-1.65 14.9 -1.75 14.8 -2.0 14.55 -2.4 14.25 -1.2 13.35 -0.85 13.65 -0.2 14.45 M-3.9 14.1 L-3.35 13.05 -3.05 13.0 -2.9 12.95 -1.95 13.05 -2.95 14.05 -3.25 14.0 -3.55 14.0 -3.9 14.1 M-4.05 14.7 L-3.55 14.85 -3.3 15.3 -3.5 15.8 -4.0 16.05 -4.45 15.85 -4.7 15.4 -4.5 14.9 -4.15 14.7 -4.05 14.7" fill="#ef2672" fill-rule="evenodd" stroke="none"/>
    <path d="M-1.65 14.9 L-1.5 15.15 -1.3 16.0 Q-1.25 16.85 -1.85 17.5 -2.45 18.15 -3.35 18.2 -4.2 18.3 -4.85 17.7 -5.5 17.1 -5.55 16.25 -5.6 15.4 -5.0 14.75 -4.55 14.25 -3.9 14.1 L-3.55 14.0 -3.25 14.0 -2.95 14.05 -2.4 14.25 -2.0 14.55 -1.75 14.8 -1.65 14.9 M-4.05 14.7 L-4.15 14.7 -4.5 14.9 -4.7 15.4 -4.45 15.85 -4.0 16.05 -3.5 15.8 -3.3 15.3 -3.55 14.85 -4.05 14.7" fill="#580730" fill-rule="evenodd" stroke="none"/>
    <path d="M-3.4 -4.4 L-3.4 -4.35 -3.45 -4.4 -3.4 -4.4 M-4.7 -4.3 Q-5.35 -2.85 -5.2 -1.4 L-6.9 -1.7 Q-6.65 -3.4 -5.8 -4.3 L-4.7 -4.3 M-8.45 -2.25 L-8.9 -2.5 -10.15 -3.6 Q-9.0 -5.0 -7.3 -5.75 -7.25 -5.15 -6.7 -4.7 -7.85 -3.8 -8.45 -2.25" fill="#ede78f" fill-rule="evenodd" stroke="none"/>
    <path d="M4.75 -3.55 Q4.25 -5.25 1.45 -5.85 2.9 -6.7 3.45 -7.45 6.0 -7.25 7.05 -5.8 6.4 -4.6 4.75 -3.55 M-10.1 -6.45 L-8.9 -8.05 Q-7.35 -9.05 -5.8 -8.7 L-6.85 -7.4 -7.0 -7.1 Q-8.4 -7.4 -10.1 -6.45" fill="#4c570b" fill-rule="evenodd" stroke="none"/>
    <path d="M4.75 -3.55 L3.5 -2.85 Q0.95 -1.6 -2.5 -1.4 L-2.95 -1.35 -3.65 -1.35 -5.2 -1.4 Q-5.35 -2.85 -4.7 -4.3 L-3.45 -4.4 -3.4 -4.35 -3.4 -4.4 -2.55 -4.5 Q-0.5 -4.85 1.0 -5.65 L1.45 -5.85 Q4.25 -5.25 4.75 -3.55 M-6.9 -1.7 Q-7.75 -1.9 -8.45 -2.25 -7.85 -3.8 -6.7 -4.7 L-6.6 -4.6 Q-6.35 -4.4 -5.8 -4.3 -6.65 -3.4 -6.9 -1.7 M-10.15 -3.6 Q-10.8 -4.6 -10.35 -5.9 L-10.3 -6.05 -10.25 -6.25 -10.1 -6.45 Q-8.4 -7.4 -7.0 -7.1 -7.4 -6.35 -7.3 -5.75 -9.0 -5.0 -10.15 -3.6" fill="#bea410" fill-rule="evenodd" stroke="none"/>
    <path d="M-5.2 -1.4 L-3.65 -1.35 -2.95 -1.35 -2.5 -1.4 Q0.95 -1.6 3.5 -2.85 L4.75 -3.55 Q6.4 -4.6 7.05 -5.8 6.0 -7.25 3.45 -7.45 2.9 -6.7 1.45 -5.85 L1.0 -5.65 Q-0.5 -4.85 -2.55 -4.5 L-3.4 -4.4 -3.45 -4.4 -4.7 -4.3 -5.8 -4.3 Q-6.35 -4.4 -6.6 -4.6 L-6.7 -4.7 Q-7.25 -5.15 -7.3 -5.75 -7.4 -6.35 -7.0 -7.1 L-6.85 -7.4 -5.8 -8.7 Q-7.35 -9.05 -8.9 -8.05 L-10.1 -6.45 Q-8.4 -7.4 -7.0 -7.1 M-5.2 -1.4 L-6.9 -1.7 Q-7.75 -1.9 -8.45 -2.25 L-8.9 -2.5 -10.15 -3.6 Q-10.8 -4.6 -10.35 -5.9 L-10.3 -6.05 -10.25 -6.25 -10.1 -6.45" fill="none" stroke="#916337" stroke-linecap="round" stroke-linejoin="round" stroke-width="0.05"/>
  </g>
</svg>
