<?xml version="1.0" encoding="UTF-8" standalone="no"?>
<svg xmlns:xlink="http://www.w3.org/1999/xlink" height="4.5px" width="8.1px" xmlns="http://www.w3.org/2000/svg">
  <g transform="matrix(1.0, 0.0, 0.0, 1.0, 4.15, 2.15)">
    <path d="M-3.45 1.35 Q-4.25 0.7 -4.15 -0.1 -4.1 -1.1 -2.85 -1.65 -1.65 -2.25 0.0 -2.15 L2.0 -1.7 2.85 -0.75 3.0 -0.3 Q3.05 0.2 2.5 0.65 L2.5 0.7 2.15 0.95 Q0.35 2.0 -3.45 1.35" fill="#bebbd5" fill-rule="evenodd" stroke="none"/>
    <path d="M2.0 -1.7 L2.75 -1.3 3.15 -1.0 3.7 -0.5 Q4.05 -0.2 3.95 0.3 L3.65 1.05 3.25 1.45 2.15 2.05 -0.45 2.35 Q-2.1 2.25 -3.15 1.55 L-3.45 1.35 Q0.35 2.0 2.15 0.95 L2.5 0.7 2.5 0.65 Q3.05 0.2 3.0 -0.3 L2.85 -0.75 2.0 -1.7" fill="#948fb8" fill-rule="evenodd" stroke="none"/>
    <path d="M-3.45 1.35 Q-4.25 0.7 -4.15 -0.1 -4.1 -1.1 -2.85 -1.65 -1.65 -2.25 0.0 -2.15 L2.0 -1.7 2.75 -1.3 3.15 -1.0 M3.65 1.05 L3.25 1.45 2.15 2.05 -0.45 2.35 Q-2.1 2.25 -3.15 1.55 L-3.45 1.35 Z" fill="none" stroke="#676767" stroke-linecap="round" stroke-linejoin="round" stroke-width="0.05"/>
  </g>
</svg>
