<?xml version="1.0" encoding="UTF-8" standalone="no"?>
<svg xmlns:xlink="http://www.w3.org/1999/xlink" height="35.65px" width="32.95px" xmlns="http://www.w3.org/2000/svg">
  <g transform="matrix(1.0, 0.0, 0.0, 1.0, 16.8, 26.4)">
    <path d="M6.4 -25.0 L7.7 -25.25 8.25 -25.4 Q11.15 -17.65 13.05 -9.85 14.9 -2.55 16.15 5.15 14.9 7.85 9.2 9.0 10.1 -0.6 9.1 -9.85 8.25 -16.95 6.4 -25.0" fill="#c79ec2" fill-rule="evenodd" stroke="none"/>
    <path d="M-11.65 -26.4 Q-9.4 -25.6 -7.35 -25.15 L2.4 -24.45 3.85 -24.6 5.8 -24.9 6.4 -25.0 Q8.25 -16.95 9.1 -9.85 10.1 -0.6 9.2 9.0 -2.0 10.0 -9.55 7.2 -17.15 4.35 -16.8 0.15 L-15.25 -9.85 Q-14.45 -16.0 -13.0 -21.75 L-11.65 -26.4" fill="#cfafcc" fill-rule="evenodd" stroke="none"/>
    <path d="M8.25 -25.4 Q11.15 -17.65 13.05 -9.85 14.9 -2.55 16.15 5.15 14.9 7.85 9.2 9.0 -2.0 10.0 -9.55 7.2 -17.15 4.35 -16.8 0.15 L-15.25 -9.85 Q-14.45 -16.0 -13.0 -21.75 L-11.65 -26.4" fill="none" stroke="#594f79" stroke-linecap="round" stroke-linejoin="round" stroke-width="0.05"/>
    <path d="M-7.15 -25.5 L-5.05 -24.8 -8.9 -3.0 -10.15 -3.05 Q-11.05 -3.4 -11.35 -4.45 -11.9 -5.45 -12.45 -5.7 L-13.1 -5.8 Q-11.25 -15.35 -7.15 -25.5 M-10.35 -8.3 L-11.35 -4.45 -10.35 -8.3" fill="#65589a" fill-rule="evenodd" stroke="none"/>
    <path d="M-7.15 -25.5 Q-11.25 -15.35 -13.1 -5.8 L-13.35 -5.7 -14.0 -6.2 Q-12.9 -15.9 -8.45 -25.95 L-7.15 -25.5 M-8.9 -3.0 L-5.05 -24.8 -3.7 -24.65 -7.3 -2.0 -7.9 -2.8 Q-8.4 -3.2 -8.9 -3.0" fill="#ccaf6f" fill-rule="evenodd" stroke="none"/>
    <path d="M-5.05 -24.8 L-7.15 -25.5 -8.45 -25.95 Q-12.9 -15.9 -14.0 -6.2 L-13.35 -5.7 -13.1 -5.8 -12.45 -5.7 Q-11.9 -5.45 -11.35 -4.45 L-10.35 -8.3 M-11.35 -4.45 Q-11.05 -3.4 -10.15 -3.05 L-8.9 -3.0 Q-8.4 -3.2 -7.9 -2.8 L-7.3 -2.0 -3.7 -24.65 -5.05 -24.8 Z" fill="none" stroke="#30543c" stroke-linecap="round" stroke-linejoin="round" stroke-width="0.05"/>
  </g>
</svg>
