<?xml version="1.0" encoding="UTF-8" standalone="no"?>
<svg xmlns:xlink="http://www.w3.org/1999/xlink" height="101.75px" width="60.95px" xmlns="http://www.w3.org/2000/svg">
  <g transform="matrix(1.0, 0.0, 0.0, 1.0, 54.1, 3.35)">
    <path d="M-8.2 1.25 L-8.45 8.3 -31.4 24.0 -32.2 67.6 -38.25 71.1 Q-40.1 72.1 -50.65 80.9 -57.05 38.6 -51.65 25.05 -28.2 2.2 -8.1 -2.5 L-8.2 1.25" fill="#385f5e" fill-rule="evenodd" stroke="none"/>
    <path d="M-38.25 71.1 L-32.2 67.6 -31.4 24.0 -8.45 8.3 -8.2 1.25 0.25 -3.35 Q8.95 -1.95 6.15 5.15 -9.7 24.65 -22.5 29.35 -24.9 57.8 -16.85 74.15 -8.85 90.45 -23.55 98.4 -32.2 91.1 -38.25 71.1" fill="#171b24" fill-rule="evenodd" stroke="none"/>
    <path d="M-8.2 1.25 L-8.45 8.3 -31.4 24.0 -32.2 67.6 -38.25 71.1 Q-40.1 72.1 -50.65 80.9 -57.05 38.6 -51.65 25.05 -28.2 2.2 -8.1 -2.5 L-8.2 1.25" fill="none" stroke="#28513d" stroke-linecap="round" stroke-linejoin="round" stroke-width="0.05"/>
    <path d="M-38.25 71.1 Q-32.2 91.1 -23.55 98.4 -8.85 90.45 -16.85 74.15 -24.9 57.8 -22.5 29.35 -9.7 24.65 6.15 5.15 8.95 -1.95 0.25 -3.35 L-8.2 1.25 Z" fill="none" stroke="#482424" stroke-linecap="round" stroke-linejoin="round" stroke-width="0.05"/>
  </g>
</svg>
