<?xml version="1.0" encoding="UTF-8" standalone="no"?>
<svg xmlns:xlink="http://www.w3.org/1999/xlink" height="143.4px" width="172.25px" xmlns="http://www.w3.org/2000/svg">
  <g transform="matrix(1.0, 0.0, 0.0, 1.0, 8.0, 92.55)">
    <path d="M71.6 -54.5 L71.6 -54.4 71.5 -54.45 70.55 -53.45 70.0 -53.0 Q68.8 -52.0 67.25 -51.4 62.0 -49.2 57.1 -52.05 52.2 -55.0 50.45 -61.2 49.8 -63.4 49.7 -65.55 L50.1 -67.4 51.85 -72.65 Q52.7 -75.0 53.9 -77.35 57.5 -84.85 63.5 -92.3 67.35 -83.45 69.5 -76.3 73.85 -61.9 71.6 -54.5" fill="#498c6b" fill-rule="evenodd" stroke="none"/>
    <path d="M63.8 -92.55 Q70.25 -84.75 73.9 -75.1 L75.85 -69.2 76.1 -68.4 Q76.45 -63.95 74.75 -59.7 L74.75 -59.65 Q73.55 -56.6 71.6 -54.5 73.85 -61.9 69.5 -76.3 67.35 -83.45 63.5 -92.3 L63.8 -92.55" fill="#275842" fill-rule="evenodd" stroke="none"/>
    <path d="M63.8 -92.55 Q70.25 -84.75 73.9 -75.1 L75.85 -69.2 M49.7 -65.55 L50.1 -67.4 51.85 -72.65 Q52.7 -75.0 53.9 -77.35 57.5 -84.85 63.5 -92.3" fill="none" stroke="#213836" stroke-linecap="round" stroke-linejoin="round" stroke-width="0.05"/>
    <path d="M-7.6 -27.25 Q-5.65 -35.1 0.2 -42.85 2.95 -46.55 6.6 -50.2 L7.65 -52.1 8.05 -52.75 13.4 -61.05 14.15 -61.55 Q20.8 -65.7 29.35 -68.5 41.75 -72.5 54.85 -72.35 67.6 -72.25 81.15 -68.25 L86.8 -66.45 Q95.8 -63.3 103.55 -58.95 93.95 -62.0 81.35 -64.55 40.3 -72.9 21.0 -58.35 15.5 -54.2 11.75 -48.15 10.55 -46.1 9.5 -43.9 7.0 -42.9 4.5 -40.4 L4.1 -39.95 2.95 -38.6 Q-1.35 -33.2 -3.15 -24.7 -4.65 -17.65 -3.75 -11.25 -3.4 -8.65 -2.65 -6.1 L-1.6 -3.4 -3.8 -1.5 Q-5.3 -5.1 -6.3 -8.65 -8.85 -18.05 -7.6 -27.25 M114.35 44.0 Q94.75 48.85 63.9 38.9 33.0 28.9 15.0 3.05 L17.5 0.9 18.45 -0.15 19.15 -0.95 Q23.45 -6.4 25.2 -14.85 26.55 -21.05 26.0 -26.75 25.75 -29.65 24.95 -32.4 L24.7 -33.4 24.5 -34.15 26.75 -35.9 Q29.9 -38.3 33.25 -40.25 61.65 -57.05 104.95 -43.05 129.4 -36.05 140.6 -17.65 L142.0 -13.5 Q130.65 -30.0 107.9 -36.45 63.65 -50.75 33.7 -32.2 34.05 -13.6 21.7 4.0 39.25 26.65 67.75 35.85 98.6 45.8 120.5 40.75 L114.35 44.0" fill="#990000" fill-rule="evenodd" stroke="none"/>
    <path d="M13.4 -61.05 L8.4 -57.3 5.35 -54.4 Q-0.9 -60.85 -5.6 -67.45 5.25 -65.2 14.15 -61.55 L13.4 -61.05 M52.65 4.0 L51.6 2.6 Q50.1 0.3 49.75 -2.3 48.95 -7.8 53.4 -11.45 57.9 -15.15 65.15 -14.75 68.25 -14.6 71.15 -13.75 L71.15 -13.8 Q71.25 -13.75 71.45 -13.65 71.95 -13.4 72.55 -13.1 L73.1 -12.75 Q82.1 -6.65 86.85 -0.45 79.5 9.85 67.6 11.45 L65.55 11.65 65.85 11.55 66.0 11.5 Q76.05 8.1 79.25 0.05 L52.65 4.0" fill="#498c6b" fill-rule="evenodd" stroke="none"/>
    <path d="M5.35 -54.4 Q1.45 -50.5 -1.3 -45.8 -6.4 -56.6 -6.65 -67.65 L-5.6 -67.45 Q-0.9 -60.85 5.35 -54.4 M65.85 11.55 L65.75 11.5 Q62.4 10.9 59.55 9.4 57.8 8.5 56.25 7.3 L53.1 4.6 53.0 4.45 52.65 4.0 79.25 0.05 Q76.05 8.1 66.0 11.5 L65.85 11.55" fill="#275842" fill-rule="evenodd" stroke="none"/>
    <path d="M13.4 -61.05 L8.05 -52.75 7.65 -52.1 6.6 -50.2 Q2.95 -46.55 0.2 -42.85 -5.65 -35.1 -7.6 -27.25 -7.05 -31.95 -5.5 -36.65 L-5.35 -36.95 Q-3.75 -41.65 -1.3 -45.8 1.45 -50.5 5.35 -54.4 L8.4 -57.3 13.4 -61.05 M71.15 -13.8 Q67.25 -15.55 62.9 -15.75 55.65 -16.1 51.15 -12.3 46.75 -8.5 47.55 -2.75 48.15 1.15 50.85 4.4 L51.0 4.5 54.1 7.4 Q57.25 9.9 61.05 11.05 L63.7 11.75 65.55 11.65 67.6 11.45 Q79.5 9.85 86.85 -0.45 82.1 -6.65 73.1 -12.75 L72.55 -13.1 Q71.95 -13.4 71.45 -13.65 71.25 -13.75 71.15 -13.8 M142.0 -13.5 L142.9 -9.85 Q144.8 -0.55 143.0 8.65 L142.75 10.1 142.65 10.4 Q140.2 30.45 120.5 40.75 98.6 45.8 67.75 35.85 39.25 26.65 21.7 4.0 34.05 -13.6 33.7 -32.2 63.65 -50.75 107.9 -36.45 130.65 -30.0 142.0 -13.5" fill="#385f5e" fill-rule="evenodd" stroke="none"/>
    <path d="M-3.8 -1.5 L-1.6 -3.4 -2.65 -6.1 Q-3.4 -8.65 -3.75 -11.25 -4.65 -17.65 -3.15 -24.7 -1.35 -33.2 2.95 -38.6 L4.1 -39.95 4.5 -40.4 Q7.0 -42.9 9.5 -43.9 10.55 -46.1 11.75 -48.15 15.5 -54.2 21.0 -58.35 40.3 -72.9 81.35 -64.55 93.95 -62.0 103.55 -58.95 121.95 -48.65 133.2 -31.85 L133.5 -31.3 Q138.05 -24.45 140.6 -17.65 129.4 -36.05 104.95 -43.05 61.65 -57.05 33.25 -40.25 29.9 -38.3 26.75 -35.9 L24.5 -34.15 24.7 -33.4 24.95 -32.4 Q25.75 -29.65 26.0 -26.75 26.55 -21.05 25.2 -14.85 23.45 -6.4 19.15 -0.95 L18.45 -0.15 17.5 0.9 15.0 3.05 Q33.0 28.9 63.9 38.9 94.75 48.85 114.35 44.0 L106.55 47.0 Q79.6 55.65 49.2 44.9 19.3 34.4 3.4 11.4 L2.65 10.35 Q-1.3 4.4 -3.8 -1.5" fill="#0f0f12" fill-rule="evenodd" stroke="none"/>
    <path d="M50.85 4.4 Q48.15 1.15 47.55 -2.75 46.75 -8.5 51.15 -12.3 55.65 -16.1 62.9 -15.75 67.25 -15.55 71.15 -13.8 L71.15 -13.75 Q68.25 -14.6 65.15 -14.75 57.9 -15.15 53.4 -11.45 48.95 -7.8 49.75 -2.3 50.1 0.3 51.6 2.6 L52.65 4.0 51.4 4.2 50.85 4.4" fill="#ffffff" fill-rule="evenodd" stroke="none"/>
    <path d="M50.85 4.4 L51.4 4.2 52.65 4.0 53.0 4.45 53.1 4.6 56.25 7.3 Q57.8 8.5 59.55 9.4 62.4 10.9 65.75 11.5 L65.85 11.55 65.55 11.65 63.7 11.75 61.05 11.05 Q57.25 9.9 54.1 7.4 L51.0 4.5 50.85 4.4" fill="#cbcbcb" fill-rule="evenodd" stroke="none"/>
    <path d="M-7.6 -27.25 Q-5.65 -35.1 0.2 -42.85 2.95 -46.55 6.6 -50.2 L7.65 -52.1 8.05 -52.75 13.4 -61.05 8.4 -57.3 5.35 -54.4 Q1.45 -50.5 -1.3 -45.8 -3.75 -41.65 -5.35 -36.95 L-5.5 -36.65 Q-7.05 -31.95 -7.6 -27.25 -8.85 -18.05 -6.3 -8.65 -5.3 -5.1 -3.8 -1.5 L-1.6 -3.4 -2.65 -6.1 Q-3.4 -8.65 -3.75 -11.25 -4.65 -17.65 -3.15 -24.7 -1.35 -33.2 2.95 -38.6 L4.1 -39.95 4.5 -40.4 Q7.0 -42.9 9.5 -43.9 10.55 -46.1 11.75 -48.15 15.5 -54.2 21.0 -58.35 40.3 -72.9 81.35 -64.55 93.95 -62.0 103.55 -58.95 95.8 -63.3 86.8 -66.45 L81.15 -68.25 Q67.6 -72.25 54.85 -72.35 41.75 -72.5 29.35 -68.5 20.8 -65.7 14.15 -61.55 L13.4 -61.05 M114.35 44.0 Q94.75 48.85 63.9 38.9 33.0 28.9 15.0 3.05 L17.5 0.9 18.45 -0.15 19.15 -0.95 Q23.45 -6.4 25.2 -14.85 26.55 -21.05 26.0 -26.75 25.75 -29.65 24.95 -32.4 L24.7 -33.4 24.5 -34.15 26.75 -35.9 Q29.9 -38.3 33.25 -40.25 61.65 -57.05 104.95 -43.05 129.4 -36.05 140.6 -17.65 138.05 -24.45 133.5 -31.3 L133.2 -31.85 Q121.95 -48.65 103.55 -58.95 M142.0 -13.5 L142.9 -9.85 Q144.8 -0.55 143.0 8.65 L142.75 10.1 142.65 10.4 Q140.2 30.45 120.5 40.75 L114.35 44.0 106.55 47.0 Q79.6 55.65 49.2 44.9 19.3 34.4 3.4 11.4 L2.65 10.35 Q-1.3 4.4 -3.8 -1.5 M140.6 -17.65 L142.0 -13.5 Q130.65 -30.0 107.9 -36.45 63.65 -50.75 33.7 -32.2 34.05 -13.6 21.7 4.0 39.25 26.65 67.75 35.85 98.6 45.8 120.5 40.75" fill="none" stroke="#6b1e01" stroke-linecap="round" stroke-linejoin="round" stroke-width="0.05"/>
    <path d="M-5.6 -67.45 L-6.65 -67.65 Q-6.4 -56.6 -1.3 -45.8 M-5.6 -67.45 Q5.25 -65.2 14.15 -61.55" fill="none" stroke="#213836" stroke-linecap="round" stroke-linejoin="round" stroke-width="0.05"/>
    <path d="M71.15 -13.8 Q67.25 -15.55 62.9 -15.75 55.65 -16.1 51.15 -12.3 46.75 -8.5 47.55 -2.75 48.15 1.15 50.85 4.4 L51.0 4.5 54.1 7.4 Q57.25 9.9 61.05 11.05 L63.7 11.75 65.55 11.65 67.6 11.45 Q79.5 9.85 86.85 -0.45 82.1 -6.65 73.1 -12.75 L72.55 -13.1 Q71.95 -13.4 71.45 -13.65 71.25 -13.75 71.15 -13.8" fill="none" stroke="#213836" stroke-linecap="round" stroke-linejoin="round" stroke-width="0.05"/>
    <path d="M164.1 0.85 L163.8 0.55 164.15 0.85 164.1 0.85" fill="#fae9b4" fill-rule="evenodd" stroke="none"/>
    <path d="M163.8 0.55 L164.15 0.8 164.25 0.8 164.15 0.85 163.8 0.55" fill="#fefbed" fill-rule="evenodd" stroke="none"/>
    <path d="M163.8 0.55 L164.15 0.8" fill="none" stroke="#993300" stroke-linecap="round" stroke-linejoin="round" stroke-width="0.05"/>
    <path d="M164.15 0.8 L164.25 0.8 164.15 0.85 164.1 0.85" fill="none" stroke="#213836" stroke-linecap="round" stroke-linejoin="round" stroke-width="0.05"/>
    <path d="M121.7 11.1 L121.75 11.0 120.5 10.15 119.95 9.65 Q118.55 8.45 117.65 6.9 114.3 1.85 116.8 -3.25 119.35 -8.35 126.2 -10.5 L131.1 -11.5 133.25 -11.25 139.5 -9.8 145.2 -8.05 Q154.35 -4.9 163.8 0.55 154.3 5.0 146.4 7.65 130.7 12.9 121.85 11.1 L121.7 11.1" fill="#498c6b" fill-rule="evenodd" stroke="none"/>
    <path d="M117.7 9.75 Q116.35 8.45 115.45 7.0 112.0 1.75 114.15 -3.4 116.35 -8.55 122.85 -10.55 126.75 -11.8 131.1 -11.5 L126.2 -10.5 Q119.35 -8.35 116.8 -3.25 114.3 1.85 117.65 6.9 118.55 8.45 119.95 9.65 L120.5 10.15 121.75 11.0 121.7 11.1 117.7 9.75" fill="#ffffff" fill-rule="evenodd" stroke="none"/>
    <path d="M163.8 0.55 L164.1 0.85 Q156.25 7.8 145.8 12.1 L139.35 14.4 138.5 14.65 Q133.45 15.4 128.25 13.95 L128.2 13.95 Q124.5 12.95 121.85 11.1 130.7 12.9 146.4 7.65 154.3 5.0 163.8 0.55" fill="#275842" fill-rule="evenodd" stroke="none"/>
    <path d="M117.7 9.75 L121.7 11.1 121.85 11.1 Q124.5 12.95 128.2 13.95 L128.25 13.95 Q133.45 15.4 138.5 14.65 L136.6 15.25 Q132.95 15.8 129.35 15.15 L125.95 14.35 Q120.9 12.75 117.7 9.75" fill="#cbcbcb" fill-rule="evenodd" stroke="none"/>
    <path d="M131.1 -11.5 Q126.75 -11.8 122.85 -10.55 116.35 -8.55 114.15 -3.4 112.0 1.75 115.45 7.0 116.35 8.45 117.7 9.75 120.9 12.75 125.95 14.35 L129.35 15.15 Q132.95 15.8 136.6 15.25 L138.5 14.65 M131.1 -11.5 L133.25 -11.25 139.5 -9.8 145.2 -8.05 Q154.35 -4.9 163.8 0.55 M164.1 0.85 Q156.25 7.8 145.8 12.1 L139.35 14.4" fill="none" stroke="#213836" stroke-linecap="round" stroke-linejoin="round" stroke-width="0.05"/>
  </g>
</svg>
