<?xml version="1.0" encoding="UTF-8" standalone="no"?>
<svg xmlns:xlink="http://www.w3.org/1999/xlink" height="91.4px" width="118.35px" xmlns="http://www.w3.org/2000/svg">
  <g transform="matrix(1.0, 0.0, 0.0, 1.0, 61.8, 46.1)">
    <path d="M31.4 10.25 Q31.5 3.85 35.0 3.3 L35.15 3.25 38.7 2.8 38.9 2.8 39.25 2.8 39.75 2.95 40.05 3.0 41.85 3.95 42.6 4.55 43.75 5.7 Q46.0 8.35 46.0 11.55 46.0 14.8 43.75 16.7 41.5 18.55 38.25 18.05 L35.75 17.2 Q35.5 14.45 33.5 12.1 32.55 11.0 31.4 10.25 32.55 11.0 33.5 12.1 35.5 14.45 35.75 17.2 L35.8 18.0 Q35.8 21.25 33.5 23.1 31.25 25.0 28.05 24.45 25.55 24.0 23.6 22.3 23.4 25.05 21.35 26.7 19.1 28.6 15.9 28.05 12.75 27.5 10.55 25.05 10.05 26.85 8.55 28.1 6.3 30.0 3.05 29.45 -0.15 28.9 -2.45 26.2 -4.7 23.55 -4.7 20.35 -4.7 18.8 -4.2 17.55 -1.45 14.85 1.7 14.75 4.85 14.6 8.45 17.0 L8.55 17.15 8.5 17.0 Q13.55 11.3 20.55 14.85 L20.55 14.9 20.6 14.85 Q22.8 7.35 31.4 10.25 M8.55 17.15 Q10.8 19.8 10.8 23.05 L10.55 25.05 10.8 23.05 Q10.8 19.8 8.55 17.15 M23.6 22.3 L23.65 21.65 Q23.65 18.4 21.35 15.75 L20.55 14.9 21.35 15.75 Q23.65 18.4 23.65 21.65 L23.6 22.3" fill="#171b24" fill-rule="evenodd" stroke="none"/>
    <path d="M35.75 17.2 L38.25 18.05 Q41.5 18.55 43.75 16.7 46.0 14.8 46.0 11.55 46.0 8.35 43.75 5.7 L42.6 4.55 41.85 3.95 40.05 3.0 39.75 2.95 39.25 2.8 38.9 2.8 38.7 2.8 35.15 3.25 35.0 3.3 Q31.5 3.85 31.4 10.25 32.55 11.0 33.5 12.1 35.5 14.45 35.75 17.2 L35.8 18.0 Q35.8 21.25 33.5 23.1 31.25 25.0 28.05 24.45 25.55 24.0 23.6 22.3 23.4 25.05 21.35 26.7 19.1 28.6 15.9 28.05 12.75 27.5 10.55 25.05 10.05 26.85 8.55 28.1 6.3 30.0 3.05 29.45 -0.15 28.9 -2.45 26.2 -4.7 23.55 -4.7 20.35 -4.7 18.8 -4.2 17.55 -1.45 14.85 1.7 14.75 4.85 14.6 8.45 17.0 L8.55 17.15 8.5 17.0 Q13.55 11.3 20.55 14.85 L20.55 14.9 20.6 14.85 Q22.8 7.35 31.4 10.25 M20.55 14.9 L21.35 15.75 Q23.65 18.4 23.65 21.65 L23.6 22.3 M10.55 25.05 L10.8 23.05 Q10.8 19.8 8.55 17.15" fill="none" stroke="#213836" stroke-linecap="round" stroke-linejoin="round" stroke-width="0.05"/>
    <path d="M-0.95 17.35 L-0.9 17.55 -0.1 17.3 Q-10.25 33.2 -26.3 42.15 L-44.3 45.3 Q-48.15 42.55 -48.95 35.75 L-36.15 31.4 -32.35 25.15 -32.3 24.95 -28.6 18.4 Q-26.45 17.5 -24.45 17.15 L-22.55 17.0 -21.25 17.0 -19.9 16.75 -19.7 16.7 -0.95 17.35" fill="#ffffff" fill-rule="evenodd" stroke="none"/>
    <path d="M-0.95 17.35 L-0.9 17.55 -0.1 17.3 Q-10.25 33.2 -26.3 42.15 L-44.3 45.3 Q-48.15 42.55 -48.95 35.75 L-36.15 31.4 -32.35 25.15 -32.3 24.95 -28.6 18.4 Q-26.45 17.5 -24.45 17.15 L-22.55 17.0 -21.25 17.0 -19.9 16.75 -19.7 16.7 -0.95 17.35 Z" fill="none" stroke="#666666" stroke-linecap="round" stroke-linejoin="round" stroke-width="0.05"/>
    <path d="M-38.55 14.3 L-38.55 15.3 -44.85 14.8 -53.65 27.8 Q-61.0 29.0 -61.8 24.2 L-52.7 3.5 Q-42.05 -2.4 -30.95 -6.1 L-34.85 4.4 -38.55 14.3" fill="#ffffff" fill-rule="evenodd" stroke="none"/>
    <path d="M-38.55 14.3 L-38.55 15.3 -44.85 14.8 -53.65 27.8 Q-61.0 29.0 -61.8 24.2 L-52.7 3.5 Q-42.05 -2.4 -30.95 -6.1 L-34.85 4.4 -38.55 14.3 Z" fill="none" stroke="#666666" stroke-linecap="round" stroke-linejoin="round" stroke-width="0.05"/>
    <path d="M-5.75 12.25 Q-1.1 6.75 -2.7 -7.9 13.3 -11.15 29.25 -18.7 L37.45 -16.6 Q46.45 -17.4 52.0 -22.2 53.0 -18.25 53.7 -11.65 27.05 16.05 -0.05 10.75 L-5.75 12.25 M47.05 -31.8 Q28.6 -17.35 -3.5 -11.4 -11.75 -23.35 -25.1 -23.9 -17.5 -31.25 -6.85 -37.05 -0.95 -40.25 5.9 -43.0 L6.65 -43.3 7.25 -43.4 Q35.9 -47.7 47.05 -31.8" fill="#498c6b" fill-rule="evenodd" stroke="none"/>
    <path d="M52.0 -22.2 Q46.45 -17.4 37.45 -16.6 L29.25 -18.7 Q13.3 -11.15 -2.7 -7.9 -1.1 6.75 -5.75 12.25 -24.1 16.55 -31.1 11.3 L-37.05 13.85 -37.05 8.9 Q-42.5 7.55 -41.65 3.6 L-41.55 3.15 Q-40.4 -0.95 -38.7 -4.75 -38.25 2.55 -35.25 9.0 -27.5 5.65 -20.15 0.15 L-7.65 -6.5 -11.75 -18.15 -13.85 -18.15 -9.95 -7.25 -20.35 -1.45 Q-21.45 -10.05 -24.8 -17.4 -32.1 -13.5 -37.9 -6.45 -33.25 -16.05 -25.1 -23.9 -11.75 -23.35 -3.5 -11.4 28.6 -17.35 47.05 -31.8 L48.45 -29.65 48.5 -29.4 48.55 -29.4 56.55 -26.2 52.0 -22.2 M7.25 -43.4 L6.65 -43.3 5.9 -43.0 Q-0.95 -40.25 -6.85 -37.05 L-6.15 -38.8 Q-0.2 -44.6 7.25 -46.1 L7.25 -43.4 M-9.4 5.85 L-23.55 5.35 -27.4 8.4 -11.6 9.4 -11.5 9.4 -9.4 5.85 M-16.85 0.0 L-21.0 3.3 -7.85 3.3 -5.85 0.0 -16.85 0.0" fill="#ebebeb" fill-rule="evenodd" stroke="none"/>
    <path d="M-41.65 3.6 Q-42.5 7.55 -37.05 8.9 L-37.05 13.85 -31.1 11.3 Q-24.1 16.55 -5.75 12.25 L-0.05 10.75 Q27.05 16.05 53.7 -11.65 54.1 -7.85 54.1 -3.65 L24.85 16.95 5.4 16.95 Q2.85 20.0 -6.45 18.65 -8.8 19.9 -14.9 20.7 -21.05 21.5 -27.7 20.7 -34.35 19.9 -38.45 17.8 -42.6 15.7 -43.85 12.9 L-41.65 3.6" fill="#385f5e" fill-rule="evenodd" stroke="none"/>
    <path d="M-26.55 -10.15 L-26.55 -10.25 -26.55 -10.3 Q-26.6 -10.8 -26.9 -11.05 L-29.0 -11.0 Q-30.5 -10.3 -31.9 -8.75 -33.3 -7.2 -33.85 -5.7 L-34.1 -4.65 -34.75 -4.15 Q-34.95 -1.35 -33.75 3.2 L-23.9 -1.55 -26.55 -10.15 M-25.3 -14.3 Q-22.9 -8.25 -22.15 -1.05 -27.65 3.75 -34.45 6.2 -36.15 1.2 -36.35 -5.6 -31.85 -11.0 -25.3 -14.3" fill="#c8c58e" fill-rule="evenodd" stroke="none"/>
    <path d="M-34.1 -4.65 L-33.85 -5.7 Q-33.3 -7.2 -31.9 -8.75 -30.5 -10.3 -29.0 -11.0 L-26.9 -11.05 Q-26.6 -10.8 -26.55 -10.3 L-26.55 -10.25 -26.55 -10.15 Q-26.55 -9.65 -27.5 -8.45 L-29.25 -6.3 -30.9 -4.3 -33.45 0.25 -34.15 -2.65 -34.1 -4.65" fill="#ffffff" fill-rule="evenodd" stroke="none"/>
    <path d="M-37.9 -6.45 Q-32.1 -13.5 -24.8 -17.4 -21.45 -10.05 -20.35 -1.45 L-9.95 -7.25 -13.85 -18.15 -11.75 -18.15 -7.65 -6.5 -20.15 0.15 Q-27.5 5.65 -35.25 9.0 -38.25 2.55 -38.7 -4.75 L-37.9 -6.45 M-25.3 -14.3 Q-31.85 -11.0 -36.35 -5.6 -36.15 1.2 -34.45 6.2 -27.65 3.75 -22.15 -1.05 -22.9 -8.25 -25.3 -14.3 M-16.85 0.0 L-5.85 0.0 -7.85 3.3 -21.0 3.3 -16.85 0.0 M-9.4 5.85 L-11.5 9.4 -11.6 9.4 -27.4 8.4 -23.55 5.35 -9.4 5.85" fill="#7f3840" fill-rule="evenodd" stroke="none"/>
    <path d="M-34.1 -4.65 L-34.15 -2.65 -33.45 0.25 -30.9 -4.3 -29.25 -6.3 -27.5 -8.45 Q-26.55 -9.65 -26.55 -10.15 L-23.9 -1.55 -33.75 3.2 Q-34.95 -1.35 -34.75 -4.15 L-34.1 -4.65" fill="#605c41" fill-rule="evenodd" stroke="none"/>
    <path d="M52.0 -22.2 L56.55 -26.2 48.55 -29.4 48.5 -29.4 48.45 -29.65 47.05 -31.8 Q35.9 -47.7 7.25 -43.4 L7.25 -46.1 Q-0.2 -44.6 -6.15 -38.8 L-6.85 -37.05 Q-17.5 -31.25 -25.1 -23.9 -33.25 -16.05 -37.9 -6.45 -32.1 -13.5 -24.8 -17.4 -21.45 -10.05 -20.35 -1.45 L-9.95 -7.25 -13.85 -18.15 -11.75 -18.15 -7.65 -6.5 -20.15 0.15 Q-27.5 5.65 -35.25 9.0 -38.25 2.55 -38.7 -4.75 -40.4 -0.95 -41.55 3.15 L-41.65 3.6 Q-42.5 7.55 -37.05 8.9 L-37.05 13.85 -31.1 11.3 Q-24.1 16.55 -5.75 12.25 L-0.05 10.75 Q27.05 16.05 53.7 -11.65 53.0 -18.25 52.0 -22.2 M-3.5 -11.4 Q-11.75 -23.35 -25.1 -23.9 M-6.85 -37.05 Q-0.95 -40.25 5.9 -43.0 L6.65 -43.3 7.25 -43.4 M48.55 -29.4 L48.55 -29.45 48.5 -29.4 M48.55 -29.45 L48.45 -29.65 M53.7 -11.65 Q54.1 -7.85 54.1 -3.65 M-43.85 12.9 L-41.65 3.6 M-37.9 -6.45 L-38.7 -4.75" fill="none" stroke="#213838" stroke-linecap="round" stroke-linejoin="round" stroke-width="0.05"/>
    <path d="M54.1 -3.65 L24.85 16.95 5.4 16.95 Q2.85 20.0 -6.45 18.65 -8.8 19.9 -14.9 20.7 -21.05 21.5 -27.7 20.7 -34.35 19.9 -38.45 17.8 -42.6 15.7 -43.85 12.9" fill="none" stroke="#990000" stroke-linecap="round" stroke-linejoin="round" stroke-width="1.0"/>
    <path d="M47.05 -31.8 Q28.6 -17.35 -3.5 -11.4" fill="none" stroke="#888888" stroke-linecap="round" stroke-linejoin="round" stroke-width="0.05"/>
  </g>
</svg>
