<?xml version="1.0" encoding="UTF-8" standalone="no"?>
<svg xmlns:xlink="http://www.w3.org/1999/xlink" height="8.55px" width="15.1px" xmlns="http://www.w3.org/2000/svg">
  <g transform="matrix(1.0, 0.0, 0.0, 1.0, 3.85, 4.55)">
    <path d="M11.25 -0.15 L11.25 -0.1 11.2 -0.1 11.25 -0.15" fill="#a5bafe" fill-rule="evenodd" stroke="none"/>
    <path d="M-3.75 -0.85 Q-3.4 -2.0 -1.85 -2.7 0.0 -3.65 2.5 -3.45 L3.35 -3.4 5.05 -3.0 6.25 -2.45 Q7.2 -1.25 6.8 0.1 L6.05 1.0 Q4.65 2.15 2.45 2.45 L-2.3 2.1 -2.35 2.15 -2.5 2.1 -2.45 2.1 -3.2 1.45 -3.7 0.65 -3.85 -0.35 -3.85 -0.45 -3.75 -0.85" fill="#706a99" fill-rule="evenodd" stroke="none"/>
    <path d="M7.55 -1.45 L6.7 -2.15 6.25 -2.45 6.7 -2.15 7.55 -1.45 M-2.35 2.15 L-2.3 2.1 2.45 2.45 Q4.65 2.15 6.05 1.0 L6.8 0.1 Q7.2 -1.25 6.25 -2.45 9.35 -1.75 10.7 -1.75 L11.05 -1.75 11.25 -0.15 11.2 -0.1 11.25 -0.1 11.2 0.4 10.55 2.1 8.95 4.0 4.65 3.2 1.95 3.4 1.8 3.4 -0.5 3.0 -2.35 2.15 M6.2 2.7 L5.25 3.05 4.65 3.2 5.25 3.05 6.2 2.7" fill="#534f73" fill-rule="evenodd" stroke="none"/>
    <path d="M6.25 -2.45 L6.7 -2.15 7.55 -1.45 M6.25 -2.45 L5.05 -3.0 3.35 -3.4 2.5 -3.45 Q0.0 -3.65 -1.85 -2.7 -3.4 -2.0 -3.75 -0.85 M6.25 -2.45 Q9.35 -1.75 10.7 -1.75 L11.05 -1.75 11.25 -0.15 11.25 -0.1 11.2 0.4 10.55 2.1 8.95 4.0 4.65 3.2 1.95 3.4 M4.65 3.2 L5.25 3.05 6.2 2.7" fill="none" stroke="#42415c" stroke-linecap="round" stroke-linejoin="round" stroke-width="0.05"/>
  </g>
</svg>
