<?xml version="1.0" encoding="UTF-8" standalone="no"?>
<svg xmlns:xlink="http://www.w3.org/1999/xlink" height="46.1px" width="25.55px" xmlns="http://www.w3.org/2000/svg">
  <g transform="matrix(1.0, 0.0, 0.0, 1.0, 13.75, 13.15)">
    <path d="M-5.2 -8.75 L-5.25 -8.65 -5.25 -8.75 -5.2 -8.75" fill="#eebf5a" fill-rule="evenodd" stroke="none"/>
    <path d="M-5.25 -8.65 L-5.35 -7.9 -5.35 -7.85 -5.35 -7.8 -4.35 -7.3 Q-3.45 -6.9 0.45 -7.3 2.1 -7.8 2.35 -8.25 L2.5 -7.65 2.95 -7.45 3.5 -7.25 6.6 -5.65 Q5.95 1.95 -5.1 0.4 L-5.45 0.4 -5.55 0.35 -5.6 0.35 -5.85 0.3 -6.35 0.25 -7.0 0.1 -7.55 0.0 Q-9.85 -4.75 -8.25 -8.4 L-7.6 -8.5 -6.0 -8.65 -5.25 -8.75 -5.25 -8.65" fill="#ffdfc8" fill-rule="evenodd" stroke="none"/>
    <path d="M-5.2 -8.75 Q-4.85 -11.05 -5.3 -12.75 -0.7 -13.6 2.4 -12.7 L2.2 -11.3 2.2 -11.05 Q2.1 -9.6 2.35 -8.25 2.1 -7.8 0.45 -7.3 -3.45 -6.9 -4.35 -7.3 L-5.35 -7.8 -5.35 -7.85 -5.35 -7.9 -5.25 -8.65 -5.2 -8.75" fill="#ffd0ae" fill-rule="evenodd" stroke="none"/>
    <path d="M-8.25 -8.4 L-7.6 -8.5" fill="none" stroke="#674743" stroke-linecap="round" stroke-linejoin="round" stroke-width="0.05"/>
    <path d="M2.35 -8.25 Q2.1 -9.6 2.2 -11.05 L2.2 -11.3 2.4 -12.7 Q-0.7 -13.6 -5.3 -12.75 -4.85 -11.05 -5.2 -8.75 L-5.25 -8.65 -5.35 -7.9 -5.35 -7.85 -5.35 -7.8 M2.35 -8.25 L2.5 -7.65 2.95 -7.45 3.5 -7.25 6.6 -5.65 M-7.6 -8.5 L-6.0 -8.65 -5.25 -8.75 -5.2 -8.75" fill="none" stroke="#d7995e" stroke-linecap="round" stroke-linejoin="round" stroke-width="0.05"/>
    <path d="M1.6 -5.35 L1.55 -5.35 1.6 -5.4 1.6 -5.35" fill="#b48f87" fill-rule="evenodd" stroke="none"/>
    <path d="M7.8 -5.15 Q11.1 -1.5 8.65 5.95 10.75 25.1 11.8 30.2 L8.95 30.9 7.15 27.6 6.1 31.85 2.8 32.35 Q3.15 27.45 2.95 21.65 6.5 16.1 3.4 5.75 7.3 2.9 7.65 -2.6 L6.2 -3.9 7.8 -5.15" fill="#534f73" fill-rule="evenodd" stroke="none"/>
    <path d="M2.8 32.35 Q-6.05 34.0 -12.5 31.1 L-12.5 21.7 Q-15.7 15.35 -10.8 4.2 -12.3 1.85 -11.1 -2.3 -10.0 -6.5 -9.2 -8.0 -9.15 -4.1 -6.85 -1.8 L-6.15 -1.2 -6.0 -1.1 -5.8 -1.1 -5.7 -1.1 -5.55 -1.1 -5.4 -1.1 Q1.8 -1.0 6.2 -3.9 L7.65 -2.6 Q7.3 2.9 3.4 5.75 6.5 16.1 2.95 21.65 3.15 27.45 2.8 32.35" fill="#706a99" fill-rule="evenodd" stroke="none"/>
    <path d="M-8.25 -8.4 Q-8.0 -4.3 -5.4 -2.55 -0.45 -2.4 4.85 -4.55 L4.95 -4.6 5.15 -4.55 5.25 -4.45 6.2 -3.9 Q1.8 -1.0 -5.4 -1.1 L-5.55 -1.1 -5.7 -1.1 -5.8 -1.1 -6.0 -1.1 -6.15 -1.2 -6.85 -1.8 Q-9.15 -4.1 -9.2 -8.0 L-8.25 -8.4" fill="#b8b6cd" fill-rule="evenodd" stroke="none"/>
    <path d="M4.95 -4.6 L6.6 -5.65 7.8 -5.15 6.2 -3.9 5.25 -4.45 5.15 -4.55 4.95 -4.6" fill="#8f8baf" fill-rule="evenodd" stroke="none"/>
    <path d="M-9.2 -8.0 L-8.25 -8.4" fill="none" stroke="#6a4e44" stroke-linecap="round" stroke-linejoin="round" stroke-width="0.05"/>
    <path d="M6.6 -5.65 L7.8 -5.15 Q11.1 -1.5 8.65 5.95 10.75 25.1 11.8 30.2 L8.95 30.9 7.15 27.6 6.1 31.85 2.8 32.35 Q-6.05 34.0 -12.5 31.1 L-12.5 21.7 Q-15.7 15.35 -10.8 4.2 -12.3 1.85 -11.1 -2.3" fill="none" stroke="#42415c" stroke-linecap="round" stroke-linejoin="round" stroke-width="0.05"/>
    <path d="M-8.25 -8.4 Q-8.0 -4.3 -5.4 -2.55 -0.45 -2.4 4.85 -4.55 L4.95 -4.6 6.6 -5.65" fill="none" stroke="#42415c" stroke-linecap="round" stroke-linejoin="round" stroke-width="0.05"/>
  </g>
</svg>
