<?xml version="1.0" encoding="UTF-8" standalone="no"?>
<svg xmlns:xlink="http://www.w3.org/1999/xlink" height="31.75px" width="29.3px" xmlns="http://www.w3.org/2000/svg">
  <g transform="matrix(1.0, 0.0, 0.0, 1.0, 14.65, 31.8)">
    <path d="M4.4 -31.8 L3.0 -30.95 1.1 -31.15 1.75 -31.75 4.4 -31.8 M0.8 -28.95 L-0.8 -29.0 -0.1 -29.9 Q1.05 -30.25 1.4 -29.65 L0.8 -28.95 M-0.25 -27.65 L-1.75 -24.7 Q-3.1 -24.15 -3.3 -24.9 L-1.7 -27.8 Q-0.55 -28.45 -0.25 -27.65 M-2.9 -21.25 Q-3.9 -20.6 -4.55 -21.25 L-4.1 -22.85 Q-2.95 -23.2 -2.5 -22.65 L-2.9 -21.25 M-3.25 -19.45 L-3.7 -16.25 Q-4.6 -15.75 -5.25 -16.25 L-4.9 -19.45 Q-3.9 -20.5 -3.25 -19.45" fill="#d26936" fill-rule="evenodd" stroke="none"/>
    <path d="M1.75 -31.75 L1.1 -31.15 3.0 -30.95 4.4 -31.8 Q10.05 -30.65 12.6 -23.75 10.85 -13.9 4.35 -10.0 0.45 -7.65 -4.85 -8.4 -10.3 -9.05 -11.4 -19.15 L-11.4 -19.2 Q-7.25 -29.1 1.75 -31.75 M0.8 -28.95 L1.4 -29.65 Q1.05 -30.25 -0.1 -29.9 L-0.8 -29.0 0.8 -28.95 M-0.25 -27.65 Q-0.55 -28.45 -1.7 -27.8 L-3.3 -24.9 Q-3.1 -24.15 -1.75 -24.7 L-0.25 -27.65 M-2.9 -21.25 L-2.5 -22.65 Q-2.95 -23.2 -4.1 -22.85 L-4.55 -21.25 Q-3.9 -20.6 -2.9 -21.25 M-3.25 -19.45 Q-3.9 -20.5 -4.9 -19.45 L-5.25 -16.25 Q-4.6 -15.75 -3.7 -16.25 L-3.25 -19.45" fill="#928ca5" fill-rule="evenodd" stroke="none"/>
    <path d="M-11.4 -19.15 Q-10.3 -9.05 -4.85 -8.4 0.45 -7.65 4.35 -10.0 10.85 -13.9 12.6 -23.75 14.6 -18.45 14.65 -9.65 15.2 -2.35 -3.1 -0.05 -15.15 -1.5 -14.65 -5.2 -13.85 -13.4 -11.4 -19.15" fill="#858095" fill-rule="evenodd" stroke="none"/>
    <path d="M1.75 -31.75 L1.1 -31.15 3.0 -30.95 4.4 -31.8 M0.8 -28.95 L-0.8 -29.0 -0.1 -29.9 Q1.05 -30.25 1.4 -29.65 L0.8 -28.95 M-0.25 -27.65 L-1.75 -24.7 Q-3.1 -24.15 -3.3 -24.9 L-1.7 -27.8 Q-0.55 -28.45 -0.25 -27.65 M-2.9 -21.25 L-2.5 -22.65 Q-2.95 -23.2 -4.1 -22.85 L-4.55 -21.25 Q-3.9 -20.6 -2.9 -21.25 M-3.25 -19.45 L-3.7 -16.25 Q-4.6 -15.75 -5.25 -16.25 L-4.9 -19.45 Q-3.9 -20.5 -3.25 -19.45" fill="none" stroke="#7b351c" stroke-linecap="round" stroke-linejoin="round" stroke-width="0.05"/>
    <path d="M4.4 -31.8 L1.75 -31.75 Q-7.25 -29.1 -11.4 -19.2 L-11.4 -19.15 Q-13.85 -13.4 -14.65 -5.2 -15.15 -1.5 -3.1 -0.05 15.2 -2.35 14.65 -9.65 14.6 -18.45 12.6 -23.75 10.05 -30.65 4.4 -31.8" fill="none" stroke="#575368" stroke-linecap="round" stroke-linejoin="round" stroke-width="0.05"/>
  </g>
</svg>
