<?xml version="1.0" encoding="UTF-8" standalone="no"?>
<svg xmlns:xlink="http://www.w3.org/1999/xlink" height="63.25px" width="16.35px" xmlns="http://www.w3.org/2000/svg">
  <g transform="matrix(1.0, 0.0, 0.0, 1.0, 3.55, 61.65)">
    <path d="M0.85 1.6 L0.85 -47.4 Q-0.5 -51.75 0.2 -55.35 0.85 -59.0 2.1 -60.15 L3.9 -61.65 4.85 -61.65 5.05 -61.65 Q8.45 -61.3 10.7 -58.65 13.0 -56.0 12.8 -52.6 12.65 -49.55 10.6 -47.45 7.35 -22.25 0.85 1.6" fill="#ecbe24" fill-rule="evenodd" stroke="none"/>
    <path d="M0.85 1.6 Q-0.7 -14.9 -0.25 -48.15 -1.8 -50.8 -1.65 -54.2 -1.55 -57.6 0.15 -59.8 1.1 -61.0 2.2 -61.4 L3.8 -61.65 3.9 -61.65 2.1 -60.15 Q0.85 -59.0 0.2 -55.35 -0.5 -51.75 0.85 -47.4 L0.85 1.6" fill="#f7dea6" fill-rule="evenodd" stroke="none"/>
    <path d="M2.2 -61.4 Q1.1 -61.0 0.15 -59.8 -1.55 -57.6 -1.65 -54.2 -1.8 -50.8 -0.25 -48.15 -0.7 -14.9 0.85 1.6 -0.8 -7.85 -1.05 -25.75 L-1.35 -48.05 -1.45 -48.15 Q-3.75 -50.8 -3.55 -54.2 -3.4 -57.6 -0.85 -59.8 0.55 -61.0 2.2 -61.4" fill="#fae9cd" fill-rule="evenodd" stroke="none"/>
    <path d="M3.9 -61.65 L3.8 -61.65 2.2 -61.4 Q0.55 -61.0 -0.85 -59.8 -3.4 -57.6 -3.55 -54.2 -3.75 -50.8 -1.45 -48.15 L-1.35 -48.05 -1.05 -25.75 Q-0.8 -7.85 0.85 1.6 7.35 -22.25 10.6 -47.45 12.65 -49.55 12.8 -52.6 13.0 -56.0 10.7 -58.65 8.45 -61.3 5.05 -61.65 L4.85 -61.65 3.9 -61.65 Z" fill="none" stroke="#91680d" stroke-linecap="round" stroke-linejoin="round" stroke-width="0.05"/>
  </g>
</svg>
