<?xml version="1.0" encoding="UTF-8" standalone="no"?>
<svg xmlns:xlink="http://www.w3.org/1999/xlink" height="51.5px" width="107.8px" xmlns="http://www.w3.org/2000/svg">
  <g transform="matrix(1.0, 0.0, 0.0, 1.0, 53.9, 25.7)">
    <path d="M35.95 11.8 L36.05 11.6 36.45 10.9 Q39.7 4.4 40.0 -3.8 40.2 -10.7 38.15 -15.65 L38.1 -15.8 38.15 -15.65 Q40.2 -10.7 40.0 -3.8 39.7 4.4 36.45 10.9 L36.05 11.6 35.95 11.8 -18.45 15.4 -18.35 15.25 Q-15.35 9.0 -15.05 1.1 -14.85 -5.9 -16.9 -10.9 L-17.0 -11.0 -16.9 -10.9 Q-14.85 -5.9 -15.05 1.1 -15.35 9.0 -18.35 15.25 L-18.45 15.4 -31.35 16.25 Q-28.3 10.0 -28.05 2.1 -27.85 -4.9 -29.9 -9.9 L-17.0 -11.0 38.1 -15.8 52.05 -17.05 Q54.1 -12.1 53.9 -5.15 53.6 3.5 49.95 10.25 L49.6 10.9 35.95 11.8 M36.3 -19.2 L-19.3 -15.15 -19.45 -15.15 Q-21.35 -17.5 -23.7 -18.1 -21.35 -17.5 -19.45 -15.15 L-32.4 -14.2 Q-34.65 -17.6 -39.3 -17.0 L-39.1 -17.05 -39.45 -17.0 Q-30.65 -21.1 -23.7 -18.1 L30.9 -22.95 Q36.3 -27.65 45.3 -24.25 L45.15 -24.25 Q48.1 -23.65 50.4 -20.25 L50.4 -20.2 36.3 -19.2 35.65 -20.0 Q33.55 -22.6 30.9 -22.95 33.55 -22.6 35.65 -20.0 L36.3 -19.2 M50.5 -20.0 L50.4 -20.2 50.9 -19.4 50.5 -20.0" fill="#807a96" fill-rule="evenodd" stroke="none"/>
    <path d="M52.05 -17.05 L38.1 -15.8 37.7 -16.65 36.5 -18.85 36.3 -19.2 36.5 -18.85 37.7 -16.65 38.1 -15.8 -17.0 -11.0 -18.05 -13.15 -19.3 -15.15 -18.05 -13.15 -17.0 -11.0 -29.9 -9.9 -31.0 -12.2 -32.25 -14.05 -32.4 -14.2 -19.45 -15.15 -19.3 -15.15 36.3 -19.2 50.4 -20.2 50.5 -20.0 50.65 -19.75 52.0 -17.15 52.05 -17.05" fill="#ceccd7" fill-rule="evenodd" stroke="none"/>
    <path d="M-38.2 -10.55 L-38.6 -11.0 Q-40.05 -12.55 -41.75 -12.9 L-43.75 -12.95 Q-44.9 -12.8 -46.0 -12.15 -43.0 -16.3 -39.3 -17.0 -34.65 -17.6 -32.4 -14.2 L-32.25 -14.05 -38.2 -10.55 M-37.25 13.95 Q-34.9 8.9 -34.7 2.65 -34.55 -3.2 -36.3 -7.35 L-29.9 -9.9 Q-27.85 -4.9 -28.05 2.1 -28.3 10.0 -31.35 16.25 L-37.25 13.95" fill="#a4a0b4" fill-rule="evenodd" stroke="none"/>
    <path d="M-36.3 -7.35 L-36.5 -7.75 -37.15 -9.0 -38.2 -10.55 -32.25 -14.05 -31.0 -12.2 -29.9 -9.9 -36.3 -7.35" fill="#ededf1" fill-rule="evenodd" stroke="none"/>
    <path d="M35.95 11.8 L49.6 10.9 Q46.1 17.0 40.45 19.8 34.8 22.55 29.25 18.7 L29.2 18.65 -25.7 23.5 Q-21.95 21.95 -19.0 16.5 L-18.45 15.4 -19.0 16.5 Q-21.95 21.95 -25.7 23.5 L-26.25 23.55 Q-30.75 26.25 -37.65 25.7 L-41.95 25.05 -40.45 25.0 -39.2 24.65 Q-35.15 23.3 -31.95 17.45 L-31.35 16.25 -18.45 15.4 35.95 11.8 35.7 12.25 Q33.6 15.85 31.15 17.6 L29.2 18.65 31.15 17.6 Q33.6 15.85 35.7 12.25 L35.95 11.8" fill="#66647b" fill-rule="evenodd" stroke="none"/>
    <path d="M-48.2 20.85 Q-46.65 21.6 -44.85 21.35 L-43.85 21.1 Q-40.5 20.0 -37.9 15.2 L-37.7 14.85 -37.25 13.95 -31.35 16.25 -31.95 17.45 Q-35.15 23.3 -39.2 24.65 L-40.45 25.0 -41.95 25.05 -43.7 24.75 -43.9 24.65 Q-46.3 23.75 -48.2 20.85" fill="#78758e" fill-rule="evenodd" stroke="none"/>
    <path d="M-46.0 -12.15 Q-44.9 -12.8 -43.75 -12.95 L-41.75 -12.9 Q-40.05 -12.55 -38.6 -11.0 L-38.2 -10.55 -37.15 -9.0 -36.5 -7.75 -36.3 -7.35 Q-34.55 -3.2 -34.7 2.65 -34.9 8.9 -37.25 13.95 L-37.7 14.85 -37.9 15.2 Q-40.5 20.0 -43.85 21.1 L-44.85 21.35 Q-46.65 21.6 -48.2 20.85 L-49.35 20.05 Q-50.5 19.1 -51.45 17.4 -54.15 12.8 -53.9 5.7 -53.65 -1.35 -50.7 -6.85 -48.8 -10.35 -46.5 -11.85 L-46.0 -12.15" fill="url(#gradient0)" fill-rule="evenodd" stroke="none"/>
    <path d="M49.6 10.9 L49.95 10.25 Q53.6 3.5 53.9 -5.15 54.1 -12.1 52.05 -17.05 L52.0 -17.15 50.65 -19.75 50.5 -20.0 50.9 -19.4 50.4 -20.2 50.4 -20.25 Q48.1 -23.65 45.15 -24.25 L45.3 -24.25 M38.1 -15.8 L37.7 -16.65 36.5 -18.85 36.3 -19.2 M50.4 -20.2 L50.5 -20.0 M29.2 18.65 L31.15 17.6 Q33.6 15.85 35.7 12.25 L35.95 11.8 M-25.7 23.5 L29.2 18.65 29.25 18.7 Q34.8 22.55 40.45 19.8 46.1 17.0 49.6 10.9 M-38.2 -10.55 L-38.6 -11.0 Q-40.05 -12.55 -41.75 -12.9 L-43.75 -12.95 Q-44.9 -12.8 -46.0 -12.15 L-46.5 -11.85 Q-48.8 -10.35 -50.7 -6.85 -53.65 -1.35 -53.9 5.7 -54.15 12.8 -51.45 17.4 -50.5 19.1 -49.35 20.05 L-48.2 20.85 Q-46.65 21.6 -44.85 21.35 L-43.85 21.1 Q-40.5 20.0 -37.9 15.2 L-37.7 14.85 -37.25 13.95 Q-34.9 8.9 -34.7 2.65 -34.55 -3.2 -36.3 -7.35 L-36.5 -7.75 -37.15 -9.0 -38.2 -10.55 M-32.25 -14.05 L-32.4 -14.2 M-39.3 -17.0 Q-43.0 -16.3 -46.0 -12.15 M-39.3 -17.0 L-39.45 -17.0 -39.1 -17.05 -39.3 -17.0 M-32.25 -14.05 L-31.0 -12.2 -29.9 -9.9 M-31.35 16.25 L-31.95 17.45 Q-35.15 23.3 -39.2 24.65 L-40.45 25.0 -41.95 25.05 -37.65 25.7 Q-30.75 26.25 -26.25 23.55 M-41.95 25.05 L-43.7 24.75 -43.9 24.65 Q-46.3 23.75 -48.2 20.85" fill="none" stroke="#4f4d5e" stroke-linecap="round" stroke-linejoin="round" stroke-width="0.05"/>
    <path d="M-19.3 -15.15 L-18.05 -13.15 -17.0 -11.0 M45.3 -24.25 Q36.3 -27.65 30.9 -22.95 L-23.7 -18.1 Q-30.65 -21.1 -39.45 -17.0 M-18.45 15.4 L-19.0 16.5 Q-21.95 21.95 -25.7 23.5 L-26.25 23.55" fill="none" stroke="#4f4d5e" stroke-linecap="round" stroke-linejoin="round" stroke-width="0.05"/>
    <path d="M-23.7 -18.1 Q-21.35 -17.5 -19.45 -15.15 M-17.0 -11.0 L-16.9 -10.9 Q-14.85 -5.9 -15.05 1.1 -15.35 9.0 -18.35 15.25 L-18.45 15.4" fill="none" stroke="#ceccd7" stroke-linecap="round" stroke-linejoin="round" stroke-width="0.05"/>
    <path d="M38.1 -15.8 L38.15 -15.65 Q40.2 -10.7 40.0 -3.8 39.7 4.4 36.45 10.9 L36.05 11.6 35.95 11.8 M30.9 -22.95 Q33.55 -22.6 35.65 -20.0 L36.3 -19.2 M-32.4 -14.2 Q-34.65 -17.6 -39.3 -17.0 M-29.9 -9.9 Q-27.85 -4.9 -28.05 2.1 -28.3 10.0 -31.35 16.25" fill="none" stroke="#ceccd7" stroke-linecap="round" stroke-linejoin="round" stroke-width="0.05"/>
  </g>
  <defs>
    <radialGradient cx="0" cy="0" gradientTransform="matrix(0.0218, 0.0024, -0.0032, 0.0296, -37.55, 6.8)" gradientUnits="userSpaceOnUse" id="gradient0" r="819.2" spreadMethod="pad">
      <stop offset="0.0" stop-color="#000000"/>
      <stop offset="1.0" stop-color="#999999"/>
    </radialGradient>
  </defs>
</svg>
