<?xml version="1.0" encoding="UTF-8" standalone="no"?>
<svg xmlns:xlink="http://www.w3.org/1999/xlink" height="6.15px" width="12.35px" xmlns="http://www.w3.org/2000/svg">
  <g transform="matrix(1.0, 0.0, 0.0, 1.0, 4.2, 2.2)">
    <path d="M4.1 3.1 Q5.75 0.65 5.25 -1.45 L7.75 -1.4 Q9.05 0.35 6.2 3.95 L4.1 3.1" fill="#a44745" fill-rule="evenodd" stroke="none"/>
    <path d="M2.3 -1.65 L2.25 -1.6 2.1 -1.75 2.3 -1.65 M-3.3 1.4 L-3.4 1.45 -3.45 1.4 -3.3 1.4 M2.1 -1.8 L2.1 -1.75 1.85 -1.85 2.1 -1.8" fill="#a76a4b" fill-rule="evenodd" stroke="none"/>
    <path d="M2.1 -1.75 L2.25 -1.6 2.75 -1.05 3.05 -0.55 Q3.25 0.05 2.7 0.6 L2.3 0.9 2.25 0.95 0.45 1.55 0.25 1.6 -2.35 1.55 -2.75 1.5 -3.3 1.4 -3.45 1.4 -3.75 1.1 -3.95 0.9 -4.2 -0.1 -4.15 -0.4 -3.55 -1.3 -2.85 -1.7 Q-1.6 -2.3 0.05 -2.2 L1.85 -1.85 2.1 -1.75" fill="#d0b384" fill-rule="evenodd" stroke="none"/>
    <path d="M2.25 -1.6 L2.3 -1.65 2.1 -1.75 2.1 -1.8 5.25 -1.45 Q5.75 0.65 4.1 3.1 2.45 2.45 0.0 2.4 L-1.35 2.45 Q-2.45 2.2 -2.9 1.85 L-2.95 1.8 -3.05 1.75 -3.4 1.45 -3.3 1.4 -2.75 1.5 -2.35 1.55 0.25 1.6 0.45 1.55 2.25 0.95 2.3 0.9 2.7 0.6 Q3.25 0.05 3.05 -0.55 L2.75 -1.05 2.25 -1.6 M3.6 -0.9 L2.85 -1.35 2.3 -1.65 2.85 -1.35 3.6 -0.9" fill="#bf935e" fill-rule="evenodd" stroke="none"/>
    <path d="M2.3 -1.65 L2.1 -1.75 1.85 -1.85 0.05 -2.2 Q-1.6 -2.3 -2.85 -1.7 L-3.55 -1.3 -4.15 -0.4 M0.0 2.4 Q2.45 2.45 4.1 3.1 5.75 0.65 5.25 -1.45 L2.1 -1.8 1.85 -1.85 M2.3 -1.65 L2.85 -1.35 3.6 -0.9 M5.25 -1.45 L7.75 -1.4 Q9.05 0.35 6.2 3.95 L4.1 3.1" fill="none" stroke="#744636" stroke-linecap="round" stroke-linejoin="round" stroke-width="0.05"/>
  </g>
</svg>
