<?xml version="1.0" encoding="UTF-8" standalone="no"?>
<svg xmlns:xlink="http://www.w3.org/1999/xlink" height="45.6px" width="22.25px" xmlns="http://www.w3.org/2000/svg">
  <g transform="matrix(1.0, 0.0, 0.0, 1.0, 11.1, 22.8)">
    <path d="M2.65 -21.1 L3.5 -20.65 2.75 -20.3 2.2 -20.1 -0.05 -19.85 -2.6 -20.2 -2.95 -20.3 -3.75 -20.75 -3.05 -21.1 -2.45 -21.3 -0.15 -21.5 2.35 -21.2 2.65 -21.1 M-8.25 -0.95 L-8.5 0.0 -8.65 -0.45 -8.25 -0.95" fill="#00ccff" fill-opacity="0.22352941" fill-rule="evenodd" stroke="none"/>
    <path d="M2.65 -21.1 L2.35 -21.2 -0.15 -21.5 -2.45 -21.3 -3.05 -21.1 -3.75 -20.75 -2.95 -20.3 -2.6 -20.2 -0.05 -19.85 2.2 -20.1 2.75 -20.3 3.5 -20.65 2.65 -21.1 M3.95 -21.3 L3.85 -20.0 Q3.75 -19.45 2.65 -19.05 L2.45 -18.95 Q1.9 -18.1 2.6 -15.65 L2.85 -14.75 2.95 -14.4 Q2.95 -13.95 2.1 -13.6 L0.05 -13.25 -1.95 -13.6 Q-2.85 -13.95 -2.85 -14.4 L-2.8 -14.6 Q-2.65 -14.95 -1.95 -15.2 L0.05 -15.55 2.1 -15.2 2.85 -14.75 2.1 -15.2 0.05 -15.55 -1.95 -15.2 Q-2.65 -14.95 -2.8 -14.6 L-2.6 -15.6 0.0 -15.9 2.6 -15.65 0.0 -15.9 -2.6 -15.6 Q-2.25 -18.3 -2.7 -18.95 L-3.05 -19.05 -4.15 -19.8 -4.2 -20.05 -4.2 -20.1 Q-4.4 -21.3 -4.05 -21.6 L-2.95 -22.35 -0.05 -22.8 2.75 -22.35 Q3.95 -21.95 3.95 -21.3 L3.5 -20.65 3.95 -21.3 M-2.7 -18.95 L-0.15 -18.6 2.45 -18.95 -0.15 -18.6 -2.7 -18.95 M-4.05 -21.6 L-4.1 -21.3 -3.75 -20.75 -4.1 -21.3 -4.05 -21.6" fill="#00ccff" fill-opacity="0.39215687" fill-rule="evenodd" stroke="none"/>
    <path d="M8.5 0.05 L8.3 -0.6 8.5 -0.2 8.5 0.05" fill="#828a44" fill-rule="evenodd" stroke="none"/>
    <path d="M-2.8 -14.6 L-2.85 -14.4 Q-2.85 -13.95 -1.95 -13.6 L0.05 -13.25 2.1 -13.6 Q2.95 -13.95 2.95 -14.4 L2.85 -14.75 2.6 -15.65 Q5.55 -15.0 5.2 -12.3 L8.3 -0.6 8.5 0.05 10.85 9.0 11.15 11.7 11.15 12.1 11.1 12.35 Q10.9 16.55 7.9 19.55 4.6 22.8 0.0 22.8 -4.6 22.8 -7.85 19.55 -10.85 16.55 -11.1 12.4 L-11.1 12.2 -11.1 12.1 -11.1 11.7 -10.8 9.0 -8.5 0.0 -8.25 -0.95 -5.2 -13.0 Q-5.55 -14.95 -2.6 -15.6 L-2.8 -14.6" fill="url(#gradient0)" fill-rule="evenodd" stroke="none"/>
    <path d="M2.65 -21.1 L2.35 -21.2 -0.15 -21.5 -2.45 -21.3 -3.05 -21.1 -3.75 -20.75 -2.95 -20.3 -2.6 -20.2 -0.05 -19.85 2.2 -20.1 2.75 -20.3 3.5 -20.65 2.65 -21.1 M2.45 -18.95 L2.65 -19.05 Q3.75 -19.45 3.85 -20.0 L3.95 -21.3 3.5 -20.65 M-2.6 -15.6 Q-2.25 -18.3 -2.7 -18.95 L-3.05 -19.05 -4.15 -19.8 -4.2 -20.05 -4.2 -20.1 Q-4.4 -21.3 -4.05 -21.6 L-2.95 -22.35 -0.05 -22.8 2.75 -22.35 Q3.95 -21.95 3.95 -21.3 M-2.8 -14.6 L-2.85 -14.4 Q-2.85 -13.95 -1.95 -13.6 L0.05 -13.25 2.1 -13.6 Q2.95 -13.95 2.95 -14.4 L2.85 -14.75 2.1 -15.2 0.05 -15.55 -1.95 -15.2 Q-2.65 -14.95 -2.8 -14.6 L-2.6 -15.6 Q-5.55 -14.95 -5.2 -13.0 L-8.25 -0.95 -8.5 0.0 -10.8 9.0 -11.1 11.7 -11.1 12.1 -11.1 12.2 -11.1 12.4 Q-10.85 16.55 -7.85 19.55 -4.6 22.8 0.0 22.8 4.6 22.8 7.9 19.55 10.9 16.55 11.1 12.35 L11.15 12.1 11.15 11.7 10.85 9.0 8.5 0.05 8.3 -0.6 5.2 -12.3 Q5.55 -15.0 2.6 -15.65 L2.85 -14.75 M2.6 -15.65 L0.0 -15.9 -2.6 -15.6 M2.6 -15.65 Q1.9 -18.1 2.45 -18.95 L-0.15 -18.6 -2.7 -18.95 M11.15 12.1 L11.15 12.2 11.1 12.35 M-3.75 -20.75 L-4.1 -21.3 -4.05 -21.6" fill="none" stroke="#00ccff" stroke-linecap="round" stroke-linejoin="round" stroke-width="0.05"/>
  </g>
  <defs>
    <radialGradient cx="0" cy="0" gradientTransform="matrix(5.0E-4, 0.0249, -0.0228, 4.0E-4, 0.6, 12.25)" gradientUnits="userSpaceOnUse" id="gradient0" r="819.2" spreadMethod="pad">
      <stop offset="0.0" stop-color="#3085a5" stop-opacity="0.47058824"/>
      <stop offset="1.0" stop-color="#7ecee2" stop-opacity="0.47058824"/>
    </radialGradient>
  </defs>
</svg>
