<?xml version="1.0" encoding="UTF-8" standalone="no"?>
<svg xmlns:xlink="http://www.w3.org/1999/xlink" height="21.55px" width="55.85px" xmlns="http://www.w3.org/2000/svg">
  <g transform="matrix(1.0, 0.0, 0.0, 1.0, 3.9, 12.2)">
    <path d="M45.75 -7.7 L50.65 -4.95 48.3 -0.2 43.25 -3.2 43.25 -6.4 45.75 -7.7 43.25 -6.4 43.25 -3.2 7.3 9.35 -3.9 3.55 Q-3.25 -0.3 -2.3 -2.55 L5.9 3.15 43.1 -9.05 45.75 -7.7" fill="#374028" fill-rule="evenodd" stroke="none"/>
    <path d="M45.75 -7.7 L49.5 -9.75 45.75 -7.7 43.1 -9.05 5.9 3.15 -2.3 -2.55 Q-1.6 -4.2 -0.75 -5.05 L7.3 0.1 43.2 -12.2 47.55 -10.5 47.8 -10.4 49.5 -9.75 51.95 -7.6 50.65 -4.95 45.75 -7.7" fill="#565d4a" fill-rule="evenodd" stroke="none"/>
    <path d="M49.5 -9.75 L45.75 -7.7 43.25 -6.4 43.25 -3.2 48.3 -0.2 50.65 -4.95 51.95 -7.6 49.5 -9.75 47.8 -10.4 M47.55 -10.5 L43.2 -12.2 7.3 0.1 -0.75 -5.05 Q-1.6 -4.2 -2.3 -2.55 -3.25 -0.3 -3.9 3.55 L7.3 9.35 43.25 -3.2" fill="none" stroke="#000000" stroke-linecap="round" stroke-linejoin="round" stroke-width="0.05"/>
    <path d="M47.8 -10.4 L47.55 -10.5" fill="none" stroke="#000000" stroke-linecap="round" stroke-linejoin="round" stroke-width="0.05"/>
  </g>
</svg>
