<?xml version="1.0" encoding="UTF-8" standalone="no"?>
<svg xmlns:xlink="http://www.w3.org/1999/xlink" height="109.45px" width="23.45px" xmlns="http://www.w3.org/2000/svg">
  <g transform="matrix(1.0, 0.0, 0.0, 1.0, 12.4, 105.45)">
    <path d="M-2.4 4.0 L-2.4 -18.9 -4.3 -22.55 -3.1 -31.1 Q0.1 -29.75 3.35 -28.35 L-2.4 4.0 M-4.65 -46.05 L-10.5 -48.55 -5.45 -54.05 Q0.1 -51.45 -4.65 -46.05 M-6.45 -63.8 L-12.4 -66.35 -7.2 -71.0 Q-2.6 -68.0 -6.45 -63.8" fill="#682776" fill-rule="evenodd" stroke="none"/>
    <path d="M-10.7 -101.3 L-6.75 -104.65 1.9 -105.45 -2.35 -102.25 -10.7 -101.15 -10.7 -101.3" fill="#374028" fill-rule="evenodd" stroke="none"/>
    <path d="M-3.1 -31.1 L-4.65 -46.05 Q0.1 -51.45 -5.45 -54.05 L-6.45 -63.8 Q-2.6 -68.0 -7.2 -71.0 L-9.85 -97.45 Q-11.95 -99.3 -10.8 -101.15 L-10.7 -101.15 -2.35 -102.25 -1.55 -98.45 -1.55 -98.4 Q2.8 -88.9 4.1 -77.5 L1.3 -70.85 3.35 -28.35 Q0.1 -29.75 -3.1 -31.1 M-9.85 -97.45 L-1.55 -98.4 -9.85 -97.45" fill="#42453e" fill-rule="evenodd" stroke="none"/>
    <path d="M1.9 -105.45 Q2.85 -104.15 2.75 -101.95 L11.05 -84.2 7.3 -75.45 6.25 -42.95 9.1 -39.5 8.3 -29.65 3.35 -28.35 1.3 -70.85 4.1 -77.5 Q2.8 -88.9 -1.55 -98.4 L-1.55 -98.45 -2.35 -102.25 1.9 -105.45 M2.75 -101.95 L-1.55 -98.45 2.75 -101.95" fill="#565d4a" fill-rule="evenodd" stroke="none"/>
    <path d="M8.3 -29.65 L7.0 -13.35 Q4.15 -3.05 -2.4 4.0 L3.35 -28.35 8.3 -29.65" fill="#7d4988" fill-rule="evenodd" stroke="none"/>
    <path d="M1.9 -105.45 Q2.85 -104.15 2.75 -101.95 L11.05 -84.2 7.3 -75.45 6.25 -42.95 9.1 -39.5 8.3 -29.65 7.0 -13.35 Q4.15 -3.05 -2.4 4.0 L-2.4 -18.9 -4.3 -22.55 -3.1 -31.1 -4.65 -46.05 -10.5 -48.55 -5.45 -54.05 -6.45 -63.8 -12.4 -66.35 -7.2 -71.0 -9.85 -97.45 Q-11.95 -99.3 -10.8 -101.15 L-10.7 -101.3 -6.75 -104.65 1.9 -105.45 -2.35 -102.25 -1.55 -98.45 2.75 -101.95 M-1.55 -98.45 L-1.55 -98.4 Q2.8 -88.9 4.1 -77.5 L1.3 -70.85 3.35 -28.35 8.3 -29.65 M-10.7 -101.15 L-2.35 -102.25 M-10.8 -101.15 L-10.7 -101.15 M-7.2 -71.0 Q-2.6 -68.0 -6.45 -63.8 M-1.55 -98.4 L-9.85 -97.45 M-5.45 -54.05 Q0.1 -51.45 -4.65 -46.05 M3.35 -28.35 L-2.4 4.0 M3.35 -28.35 Q0.1 -29.75 -3.1 -31.1" fill="none" stroke="#000000" stroke-linecap="round" stroke-linejoin="round" stroke-width="0.05"/>
  </g>
</svg>
