<?xml version="1.0" encoding="UTF-8" standalone="no"?>
<svg xmlns:xlink="http://www.w3.org/1999/xlink" height="129.4px" width="32.7px" xmlns="http://www.w3.org/2000/svg">
  <g transform="matrix(1.0, 0.0, 0.0, 1.0, 15.65, 4.55)">
    <path d="M-14.1 32.4 L-15.65 28.65 -6.55 9.25 -6.5 9.15 Q-3.65 5.5 0.3 4.9 1.35 9.4 1.55 14.05 L1.3 20.55 1.55 14.05 Q1.35 9.4 0.3 4.9 -3.65 5.5 -6.5 9.15 L-5.8 0.05 Q-1.45 -6.25 2.75 -3.9 L7.65 -0.7 8.5 4.8 14.7 7.05 Q18.2 16.15 16.45 28.85 L7.05 25.15 Q1.65 23.55 1.3 20.55 -5.35 28.3 -14.1 32.4 M13.15 33.75 L15.55 48.6 14.95 48.3 Q10.65 46.1 6.0 45.55 L5.9 30.85 13.15 33.75 M-10.45 56.6 L-8.95 38.15 -8.75 38.1 Q-2.75 35.45 1.6 29.1 L3.25 29.8 4.45 30.3 4.9 45.4 4.2 45.4 3.5 45.35 Q-4.9 48.9 -10.45 56.6 M8.5 4.8 L4.2 3.15 8.5 4.8 M0.3 4.9 L2.85 3.7 0.3 4.9 M2.85 3.7 Q5.2 13.45 4.4 21.4 L5.85 21.8 Q6.3 12.9 4.2 3.15 L2.85 3.7 2.75 -3.9 2.85 3.7 M3.5 45.35 L3.25 29.8 3.5 45.35" fill="#565d4a" fill-rule="evenodd" stroke="none"/>
    <path d="M4.2 3.15 Q6.3 12.9 5.85 21.8 L4.4 21.4 Q5.2 13.45 2.85 3.7 L4.2 3.15 M4.45 30.3 L5.9 30.85 6.0 45.55 4.9 45.4 4.45 30.3" fill="#717b5e" fill-rule="evenodd" stroke="none"/>
    <path d="M-14.1 32.4 Q-5.35 28.3 1.3 20.55 1.65 23.55 7.05 25.15 L16.45 28.85 13.15 33.75 5.9 30.85 4.45 30.3 3.25 29.8 1.6 29.1 Q-2.75 35.45 -8.75 38.1 L-8.95 38.15 -12.5 36.2 -14.1 32.4 M0.75 24.4 L1.3 20.55 0.75 24.4 Q-4.4 33.25 -12.5 36.2 -4.4 33.25 0.75 24.4" fill="#42443d" fill-rule="evenodd" stroke="none"/>
    <path d="M15.55 48.6 L12.2 51.7 Q8.25 48.1 3.25 48.15 -2.95 52.3 -6.3 58.4 L-10.45 56.6 Q-4.9 48.9 3.5 45.35 L4.2 45.4 4.9 45.4 6.0 45.55 Q10.65 46.1 14.95 48.3 L15.55 48.6" fill="#42453e" fill-rule="evenodd" stroke="none"/>
    <path d="M-4.8 89.75 L-4.65 77.0 -6.95 71.4 Q-7.45 65.9 -6.65 60.7 L-6.3 58.4 Q-2.95 52.3 3.25 48.15 2.1 51.55 2.1 52.3 L2.5 72.85 -4.8 89.75" fill="#5b4061" fill-rule="evenodd" stroke="none"/>
    <path d="M12.2 51.7 L10.75 73.6 5.4 84.65 4.05 93.45 Q1.3 109.45 -3.45 124.85 -4.8 108.45 -4.8 91.1 L-4.8 89.75 2.5 72.85 2.1 52.3 Q2.1 51.55 3.25 48.15 8.25 48.1 12.2 51.7 M4.05 72.45 L-0.55 83.7 -1.75 110.25 1.3 83.35 6.25 71.4 4.65 52.5 4.05 72.45" fill="#7d4988" fill-rule="evenodd" stroke="none"/>
    <path d="M4.05 72.45 L4.65 52.5 6.25 71.4 1.3 83.35 -1.75 110.25 -0.55 83.7 4.05 72.45" fill="#ab6bb9" fill-rule="evenodd" stroke="none"/>
    <path d="M-6.5 9.15 L-6.55 9.25 -15.65 28.65 -14.1 32.4 -12.5 36.2 -8.95 38.15 -8.75 38.1 Q-2.75 35.45 1.6 29.1 L3.25 29.8 4.45 30.3 5.9 30.85 13.15 33.75 15.55 48.6 12.2 51.7 M1.3 20.55 L1.55 14.05 Q1.35 9.4 0.3 4.9 -3.65 5.5 -6.5 9.15 L-5.8 0.05 Q-1.45 -6.25 2.75 -3.9 L7.65 -0.7 8.5 4.8 M16.45 28.85 L13.15 33.75 M-6.3 58.4 L-10.45 56.6 -8.95 38.15 M2.85 3.7 L2.75 -3.9 M6.0 45.55 Q10.65 46.1 14.95 48.3 L15.55 48.6 M4.9 45.4 L6.0 45.55 M4.9 45.4 L4.2 45.4 3.5 45.35 Q-4.9 48.9 -10.45 56.6 M1.3 20.55 L0.75 24.4 M3.25 29.8 L3.5 45.35" fill="none" stroke="#000000" stroke-linecap="round" stroke-linejoin="round" stroke-width="0.05"/>
    <path d="M-14.1 32.4 Q-5.35 28.3 1.3 20.55 1.65 23.55 7.05 25.15 L16.45 28.85 Q18.2 16.15 14.7 7.05 L8.5 4.8 4.2 3.15 2.85 3.7 0.3 4.9 M12.2 51.7 L10.75 73.6 5.4 84.65 4.05 93.45 Q1.3 109.45 -3.45 124.85 -4.8 108.45 -4.8 91.1 L-4.8 89.75 -4.65 77.0 -6.95 71.4 Q-7.45 65.9 -6.65 60.7 L-6.3 58.4 Q-2.95 52.3 3.25 48.15 8.25 48.1 12.2 51.7 M0.75 24.4 Q-4.4 33.25 -12.5 36.2" fill="none" stroke="#000000" stroke-linecap="round" stroke-linejoin="round" stroke-width="0.05"/>
  </g>
</svg>
