<?xml version="1.0" encoding="UTF-8" standalone="no"?>
<svg xmlns:xlink="http://www.w3.org/1999/xlink" height="65.2px" width="84.15px" xmlns="http://www.w3.org/2000/svg">
  <g transform="matrix(1.0, 0.0, 0.0, 1.0, 44.9, 31.0)">
    <path d="M-25.2 -13.95 L-19.45 -14.05 -17.3 -7.9 -33.05 -0.3 -35.1 -7.85 -28.5 -13.95 -25.2 -13.95 M-36.6 -5.0 L-34.7 0.15 -36.85 1.6 -37.35 6.95 -39.0 -1.35 -36.6 -5.0 M-24.05 1.4 L-26.05 0.15 -16.8 -4.45 -20.35 1.25 -28.2 7.3 -24.05 1.4" fill="#76cace" fill-rule="evenodd" stroke="none"/>
    <path d="M39.25 -13.45 Q27.0 -10.65 15.2 -6.3 0.45 -1.1 -13.7 6.5 -22.4 11.0 -30.95 16.55 L-31.0 16.55 -30.95 16.55 -26.05 17.85 -26.0 17.85 -26.05 17.8 -25.95 17.8 -9.5 8.9 1.3 7.95 -1.05 10.7 -3.15 12.05 -13.4 18.6 Q-19.35 19.1 -25.95 17.8 -19.35 19.1 -13.4 18.6 L-26.2 26.75 -31.0 16.55 -33.7 18.25 -33.85 18.35 Q-35.4 19.35 -40.4 23.35 L-38.55 13.25 Q-37.4 7.5 -33.05 -0.3 -37.4 7.5 -38.55 13.25 L-40.4 23.35 -42.55 15.3 -42.75 9.5 Q-42.0 -3.1 -37.0 -11.6 -16.0 -31.3 -1.45 -30.8 18.45 -32.8 39.25 -13.45 M-25.2 -13.95 Q-16.6 -24.4 -1.45 -30.8 -16.6 -24.4 -25.2 -13.95 L-28.5 -13.95 -35.1 -7.85 -33.05 -0.3 -17.3 -7.9 -19.45 -14.05 -25.2 -13.95 M-36.6 -5.0 L-39.0 -1.35 -37.35 6.95 -36.85 1.6 -34.7 0.15 -36.6 -5.0 M-24.05 1.4 L-28.2 7.3 -20.35 1.25 -16.8 -4.45 -26.05 0.15 -24.05 1.4" fill="#736a92" fill-rule="evenodd" stroke="none"/>
    <path d="M-13.7 6.5 Q0.45 -1.1 15.2 -6.3 L5.3 3.35 -13.65 6.5 -13.7 6.5" fill="#d28f87" fill-rule="evenodd" stroke="none"/>
    <path d="M15.2 -6.3 Q27.0 -10.65 39.25 -13.45 L10.95 19.2 Q-3.9 27.2 -22.65 34.2 -2.7 20.45 9.6 2.6 L15.2 -6.3 M-42.75 9.5 L-42.55 15.3 -43.55 29.65 Q-45.4 22.05 -44.75 16.5 -44.45 12.4 -42.75 9.5" fill="#828687" fill-rule="evenodd" stroke="none"/>
    <path d="M-33.7 18.25 L-31.0 16.55 -26.2 26.75 -30.5 21.9 -33.7 18.25 M-30.95 16.55 Q-22.4 11.0 -13.7 6.5 L-13.65 6.5 5.3 3.35 1.3 7.95 -9.5 8.9 -25.95 17.8 -26.05 17.8 -26.05 17.85 -30.95 16.55" fill="#544e66" fill-rule="evenodd" stroke="none"/>
    <path d="M-40.4 23.35 Q-35.4 19.35 -33.85 18.35 L-33.7 18.25 -30.5 21.9 -43.55 29.65 -42.55 15.3 -40.4 23.35 M15.2 -6.3 L9.6 2.6 Q-2.7 20.45 -22.65 34.2 -8.55 22.35 -3.15 12.05 L-1.05 10.7 1.3 7.95 5.3 3.35 15.2 -6.3 M-33.85 18.35 L-43.55 29.65 -33.85 18.35" fill="#585a5b" fill-rule="evenodd" stroke="none"/>
    <path d="M15.2 -6.3 Q27.0 -10.65 39.25 -13.45 18.45 -32.8 -1.45 -30.8 -16.6 -24.4 -25.2 -13.95 L-19.45 -14.05 -17.3 -7.9 -33.05 -0.3 Q-37.4 7.5 -38.55 13.25 L-40.4 23.35 Q-35.4 19.35 -33.85 18.35 L-33.7 18.25 -31.0 16.55 -30.95 16.55 Q-22.4 11.0 -13.7 6.5 0.45 -1.1 15.2 -6.3 L9.6 2.6 Q-2.7 20.45 -22.65 34.2 -3.9 27.2 10.95 19.2 L39.25 -13.45 M5.3 3.35 L1.3 7.95 -1.05 10.7 -3.15 12.05 Q-8.55 22.35 -22.65 34.2 M15.2 -6.3 L5.3 3.35 -13.65 6.5 -13.7 6.5 M-33.05 -0.3 L-35.1 -7.85 -28.5 -13.95 -25.2 -13.95 M-36.6 -5.0 L-34.7 0.15 -36.85 1.6 -37.35 6.95 -39.0 -1.35 -36.6 -5.0 M-1.45 -30.8 Q-16.0 -31.3 -37.0 -11.6 -42.0 -3.1 -42.75 9.5 L-42.55 15.3 -40.4 23.35 M-13.4 18.6 L-3.15 12.05 M-24.05 1.4 L-28.2 7.3 -20.35 1.25 -16.8 -4.45 -26.05 0.15 -24.05 1.4 M-30.5 21.9 L-33.7 18.25 M-26.05 17.85 L-26.0 17.85 -26.05 17.8 -25.95 17.8 Q-19.35 19.1 -13.4 18.6 L-26.2 26.75 -30.5 21.9 M-26.05 17.85 L-30.95 16.55 M-42.55 15.3 L-43.55 29.65 Q-45.4 22.05 -44.75 16.5 -44.45 12.4 -42.75 9.5" fill="none" stroke="#000000" stroke-linecap="round" stroke-linejoin="round" stroke-width="0.05"/>
    <path d="M-26.2 26.75 L-31.0 16.55" fill="none" stroke="#9893ae" stroke-linecap="round" stroke-linejoin="round" stroke-width="0.05"/>
    <path d="M-43.55 29.65 L-33.85 18.35" fill="none" stroke="#000000" stroke-linecap="round" stroke-linejoin="round" stroke-width="0.05"/>
  </g>
</svg>
