<?xml version="1.0" encoding="UTF-8" standalone="no"?>
<svg xmlns:xlink="http://www.w3.org/1999/xlink" height="44.2px" width="73.8px" xmlns="http://www.w3.org/2000/svg">
  <g transform="matrix(1.0, 0.0, 0.0, 1.0, 37.05, 18.05)">
    <path d="M10.0 -18.05 L8.7 -16.55 8.65 -16.5 7.55 -17.85 10.0 -18.05 M11.9 -6.6 L13.55 -6.25 13.55 -6.15 12.05 -5.9 11.9 -6.6 M22.3 -14.4 L21.35 -12.95 20.7 -12.7 20.8 -13.35 22.3 -14.4 M31.8 -4.4 L33.85 -2.5 31.7 -2.35 31.65 -2.35 31.8 -4.4 M34.85 8.45 L35.3 6.4 36.75 8.0 35.5 9.85 34.85 8.45 M24.9 8.95 L23.95 10.4 23.3 10.6 23.4 10.0 24.9 8.95 M10.75 6.25 L12.05 8.05 10.65 9.75 10.15 7.65 10.75 6.25 M14.1 19.6 L16.25 19.1 15.65 20.55 15.55 20.55 14.1 19.6 M0.25 24.35 L1.8 20.95 1.5 24.45 0.55 25.5 0.25 24.35 M-25.35 -5.9 L-23.2 -5.8 -25.25 -3.85 -25.45 -5.9 -25.35 -5.9 M-6.4 -16.65 L-6.5 -16.05 -8.0 -15.05 -7.05 -16.45 -6.4 -16.65 M-12.25 -1.25 L-11.8 -3.4 -10.35 -1.7 -11.6 0.15 -12.25 -1.25 M-5.4 4.75 L-6.3 6.2 -7.0 6.4 -6.9 5.8 -5.4 4.75 M-10.3 14.25 L-10.55 15.0 -11.2 14.1 -10.55 13.25 -10.3 14.25 M-17.95 5.9 L-17.5 3.8 -16.1 5.45 -17.3 7.3 -17.95 5.9 M-22.2 20.3 L-19.95 22.45 -22.25 22.5 -22.35 22.55 -22.2 20.3 M-35.5 13.7 L-35.4 14.3 -36.1 14.15 -37.0 12.7 -35.5 13.7" fill="#757575" fill-rule="evenodd" stroke="none"/>
    <path d="M10.0 -18.05 L10.05 -18.05 9.4 -15.8 8.1 -15.7 8.65 -16.5 8.7 -16.55 10.0 -18.05 M20.7 -12.7 L20.25 -12.6 19.85 -13.9 19.9 -13.9 20.8 -13.35 20.7 -12.7 M33.85 -2.5 L33.85 -2.45 31.7 -1.25 30.6 -2.25 31.65 -2.35 31.7 -2.35 33.85 -2.5 M33.2 7.0 L35.3 6.4 34.85 8.45 33.2 7.0 M23.3 10.6 L22.85 10.75 22.45 9.45 22.5 9.4 23.4 10.0 23.3 10.6 M10.65 9.75 L8.6 9.25 10.15 7.65 10.65 9.75 M14.1 19.6 L15.55 20.55 15.6 20.6 16.3 21.15 15.15 21.35 14.05 19.65 14.1 19.6 M-2.0 24.3 L0.25 24.35 0.55 25.5 -0.1 26.15 -2.0 24.35 -2.0 24.3 M-26.5 -6.0 L-25.4 -7.0 -23.2 -5.85 -23.2 -5.8 -25.35 -5.9 -25.4 -5.9 -26.5 -6.0 M-6.5 -16.05 L-6.4 -16.65 -5.9 -16.75 -5.5 -15.5 -5.55 -15.45 -6.5 -16.05 M-13.9 -2.75 L-11.8 -3.4 -12.25 -1.25 -13.9 -2.75 M-7.0 6.4 L-7.45 6.5 -7.85 5.2 -7.8 5.2 -6.9 5.8 -7.0 6.4 M-9.5 13.5 L-10.3 14.25 -10.55 13.25 -9.5 13.5 M-17.5 3.8 L-17.95 5.9 -19.6 4.4 -17.5 3.8 M-19.95 22.45 L-22.25 23.75 -23.55 22.7 -22.35 22.55 -22.3 22.55 -22.25 22.5 -19.95 22.45 M-35.4 14.3 L-35.5 13.7 -34.6 13.1 -34.9 14.4 -35.4 14.3" fill="#8f8f8f" fill-rule="evenodd" stroke="none"/>
    <path d="M8.65 -16.5 L8.1 -15.7 7.55 -17.85 8.65 -16.5 M19.9 -13.9 L20.7 -14.45 22.3 -14.4 20.8 -13.35 19.9 -13.9 M30.6 -2.25 L31.8 -4.4 31.65 -2.35 30.6 -2.25 M22.5 9.4 L23.25 8.85 24.9 8.95 23.4 10.0 22.5 9.4 M15.65 20.55 L16.25 19.1 16.3 21.15 15.6 20.6 15.65 20.55 M1.8 20.95 L0.25 24.35 -2.0 24.3 -1.15 22.5 1.8 20.95 M-26.5 -6.0 L-25.4 -5.9 -25.45 -5.9 -25.25 -3.85 -26.5 -6.0 M-6.5 -16.05 L-5.55 -15.45 -6.35 -14.9 -8.0 -15.0 -8.0 -15.05 -6.5 -16.05 M-7.8 5.2 L-7.05 4.65 -5.4 4.75 -6.9 5.8 -7.8 5.2 M-23.55 22.7 L-22.2 20.3 -22.35 22.55 -23.55 22.7 M-35.5 13.7 L-37.0 12.7 -37.05 12.7 -35.4 12.55 -34.6 13.1 -35.5 13.7" fill="#bebebe" fill-rule="evenodd" stroke="none"/>
    <path d="M13.55 -6.15 L13.55 -5.9 12.45 -4.4 10.35 -4.45 10.4 -6.85 11.75 -7.65 11.9 -6.6 12.05 -5.9 13.55 -6.15 M33.2 7.0 L34.85 8.45 35.5 9.85 34.25 9.8 33.2 7.0 M8.6 9.25 L9.55 6.4 10.75 6.25 10.15 7.65 8.6 9.25 M-13.9 -2.75 L-12.25 -1.25 -11.6 0.15 -12.85 0.05 -13.9 -2.75 M-9.5 13.5 L-9.9 14.9 -10.55 15.0 -10.3 14.25 -9.5 13.5 M-19.6 4.4 L-17.95 5.9 -17.3 7.3 -18.5 7.25 -19.6 4.4" fill="#a8a8a8" fill-rule="evenodd" stroke="none"/>
    <path d="M8.1 -15.7 L9.4 -15.8 10.05 -18.05 10.0 -18.05 7.55 -17.85 8.1 -15.7 M13.55 -5.9 L12.45 -4.4 10.35 -4.45 10.4 -6.85 11.75 -7.65 11.9 -6.6 13.55 -6.25 M20.7 -12.7 L20.25 -12.6 19.85 -13.9 19.9 -13.9 20.7 -14.45 22.3 -14.4 21.35 -12.95 20.7 -12.7 M30.6 -2.25 L31.8 -4.4 33.85 -2.5 33.85 -2.45 31.7 -1.25 30.6 -2.25 M35.3 6.4 L33.2 7.0 34.25 9.8 35.5 9.85 36.75 8.0 35.3 6.4 M24.9 8.95 L23.95 10.4 23.3 10.6 22.85 10.75 22.45 9.45 22.5 9.4 23.25 8.85 24.9 8.95 M10.75 6.25 L12.05 8.05 10.65 9.75 8.6 9.25 9.55 6.4 10.75 6.25 M16.25 19.1 L14.1 19.6 14.05 19.65 15.15 21.35 16.3 21.15 16.25 19.1 M15.6 20.6 L15.65 20.55 M1.8 20.95 L-1.15 22.5 -2.0 24.3 -2.0 24.35 -0.1 26.15 0.55 25.5 1.5 24.45 1.8 20.95 M-23.2 -5.8 L-23.2 -5.85 -25.4 -7.0 -26.5 -6.0 -25.25 -3.85 -23.2 -5.8 M-25.4 -5.9 L-25.45 -5.9 M-5.55 -15.45 L-5.5 -15.5 -5.9 -16.75 -6.4 -16.65 -7.05 -16.45 -8.0 -15.05 M-5.55 -15.45 L-6.35 -14.9 -8.0 -15.0 M-11.8 -3.4 L-13.9 -2.75 -12.85 0.05 -11.6 0.15 -10.35 -1.7 -11.8 -3.4 M-7.8 5.2 L-7.05 4.65 -5.4 4.75 -6.3 6.2 -7.0 6.4 -7.45 6.5 -7.85 5.2 -7.8 5.2 M-10.55 15.0 L-9.9 14.9 -9.5 13.5 -10.55 13.25 -11.2 14.1 -10.55 15.0 M-19.95 22.45 L-22.25 23.75 -23.55 22.7 -22.2 20.3 -19.95 22.45 M-22.3 22.55 L-22.35 22.55 M-37.0 12.7 L-36.1 14.15 -35.4 14.3 -34.9 14.4 -34.6 13.1 -35.4 12.55 -37.05 12.7" fill="none" stroke="#333333" stroke-linecap="round" stroke-linejoin="round" stroke-width="0.05"/>
    <path d="M-17.5 3.8 L-19.6 4.4 -18.5 7.25 -17.3 7.3 -16.1 5.45 -17.5 3.8" fill="none" stroke="#333333" stroke-linecap="round" stroke-linejoin="round" stroke-width="0.05"/>
  </g>
</svg>
