<?xml version="1.0" encoding="UTF-8" standalone="no"?>
<svg xmlns:xlink="http://www.w3.org/1999/xlink" height="6.95px" width="12.15px" xmlns="http://www.w3.org/2000/svg">
  <g transform="matrix(1.0, 0.0, 0.0, 1.0, 6.1, 1.35)">
    <path d="M-2.15 0.5 L0.75 -1.35 Q0.4 -0.75 1.1 -0.4 L-0.6 0.5 Q-1.5 0.15 -2.15 0.5" fill="#9d9d9d" fill-rule="evenodd" stroke="none"/>
    <path d="M1.1 -0.4 Q3.8 0.2 4.95 -1.15 L6.05 3.8 Q5.8 5.4 3.35 4.7 L3.35 3.3 2.1 4.25 Q1.95 1.55 -0.6 0.5 L1.1 -0.4 M4.85 1.8 L3.35 3.3 4.85 1.8" fill="#666666" fill-rule="evenodd" stroke="none"/>
    <path d="M-5.9 5.15 Q-7.05 3.85 -2.15 0.5 -1.5 0.15 -0.6 0.5 -5.35 3.15 -5.9 5.15" fill="#b6b6b6" fill-rule="evenodd" stroke="none"/>
    <path d="M2.1 4.25 Q-1.3 6.3 -5.75 5.2 L-5.9 5.15 Q-5.35 3.15 -0.6 0.5 1.95 1.55 2.1 4.25" fill="#797979" fill-rule="evenodd" stroke="none"/>
    <path d="M-2.15 0.5 L0.75 -1.35 Q0.4 -0.75 1.1 -0.4 3.8 0.2 4.95 -1.15 L6.05 3.8 Q5.8 5.4 3.35 4.7 L3.35 3.3 2.1 4.25 Q-1.3 6.3 -5.75 5.2 L-5.9 5.15 Q-7.05 3.85 -2.15 0.5 M-0.6 0.5 L1.1 -0.4 M3.35 3.3 L4.85 1.8 M-0.6 0.5 Q-5.35 3.15 -5.9 5.15" fill="none" stroke="#484848" stroke-linecap="round" stroke-linejoin="round" stroke-width="0.05"/>
  </g>
</svg>
