<?xml version="1.0" encoding="UTF-8" standalone="no"?>
<svg xmlns:xlink="http://www.w3.org/1999/xlink" height="6.9px" width="12.3px" xmlns="http://www.w3.org/2000/svg">
  <g transform="matrix(1.0, 0.0, 0.0, 1.0, 6.5, 1.3)">
    <path d="M-6.3 2.4 Q-6.5 1.7 -4.55 1.45 -1.9 0.5 0.45 -1.3 0.15 0.0 3.35 -0.25 0.7 2.6 -2.45 3.25 -5.35 3.5 -6.3 2.4" fill="#ffffff" fill-rule="evenodd" stroke="none"/>
    <path d="M3.35 -0.25 Q3.95 -0.3 5.0 -1.0 5.95 1.5 5.8 4.45 4.7 5.25 3.45 4.7 L3.35 3.3 Q0.55 5.55 -2.45 5.6 -5.45 5.65 -6.1 4.75 -6.8 3.8 -6.3 2.4 -5.35 3.5 -2.45 3.25 0.7 2.6 3.35 -0.25 M4.25 2.45 L3.35 3.3 4.25 2.45" fill="#263959" fill-rule="evenodd" stroke="none"/>
    <path d="M-6.3 2.4 Q-6.5 1.7 -4.55 1.45 -1.9 0.5 0.45 -1.3 0.15 0.0 3.35 -0.25 3.95 -0.3 5.0 -1.0 5.95 1.5 5.8 4.45 4.7 5.25 3.45 4.7 L3.35 3.3 Q0.55 5.55 -2.45 5.6 -5.45 5.65 -6.1 4.75 -6.8 3.8 -6.3 2.4 M3.35 3.3 L4.25 2.45" fill="none" stroke="#a0a0a0" stroke-linecap="round" stroke-linejoin="round" stroke-width="0.05"/>
  </g>
</svg>
