<?xml version="1.0" encoding="UTF-8" standalone="no"?>
<svg xmlns:xlink="http://www.w3.org/1999/xlink" height="62.95px" width="66.45px" xmlns="http://www.w3.org/2000/svg">
  <g transform="matrix(1.0, 0.0, 0.0, 1.0, 33.3, 31.35)">
    <path d="M-27.5 26.1 L27.4 26.1 27.4 -25.9 -27.5 -25.9 -27.5 26.1 M33.15 31.6 L-33.3 31.6 -33.3 -31.35 33.15 -31.35 33.15 31.6" fill="#000000" fill-opacity="0.18039216" fill-rule="evenodd" stroke="none"/>
    <path d="M27.4 -25.9 L27.4 26.1 -27.5 26.1 -27.5 -25.9 27.4 -25.9" fill="url(#gradient0)" fill-rule="evenodd" stroke="none"/>
    <path d="M27.4 -25.9 L27.4 26.1 -27.5 26.1" fill="none" stroke="#b96464" stroke-linecap="round" stroke-linejoin="round" stroke-width="0.05"/>
    <path d="M-27.5 26.1 L-27.5 -25.9 27.4 -25.9 Z" fill="none" stroke="#361818" stroke-linecap="round" stroke-linejoin="round" stroke-width="0.05"/>
    <path d="M27.1 -18.05 L25.35 -16.85 Q21.9 -7.35 24.75 2.1 L27.1 2.3 M25.35 -16.85 L14.85 -9.65 14.8 -9.65 Q12.8 -3.8 15.95 1.45 L24.7 2.1 24.75 2.1 M25.35 -16.85 Q13.05 -18.35 5.55 -25.9 M4.65 -25.9 L3.3 -18.0 3.35 -18.0 Q8.15 -11.45 14.85 -9.65 M14.8 -9.65 L0.25 0.3 15.9 1.45 15.95 1.45 M0.1 0.25 L0.05 0.4 0.25 0.3 0.1 0.25 3.3 -18.0 Q-5.65 -14.6 -14.6 -17.0 L-0.1 0.25 0.1 0.25 M-0.1 0.25 L0.05 0.45 0.05 0.4 M0.05 0.45 L10.3 12.65 10.35 12.7 Q11.75 6.5 15.9 1.45 M24.7 2.1 Q18.55 11.9 17.85 21.65 L17.85 21.7 21.45 26.0 M10.35 12.7 L17.85 21.65 Q6.75 19.9 -4.35 25.8 L-4.4 25.8 Q-13.8 18.7 -23.2 16.3 L-27.15 19.0 M-20.4 -23.95 L-20.35 -23.85 -20.3 -23.95 -20.4 -23.95 -22.05 -25.9 M-27.15 -1.8 L-20.2 -1.25 Q-14.6 -9.15 -15.0 -17.0 L-14.9 -17.35 -20.35 -23.85 Q-21.3 -12.35 -27.15 -3.15 M-27.15 -0.45 Q-23.05 7.65 -23.2 16.3 L-14.5 10.35 -14.45 10.35 Q-14.45 3.6 -20.0 -1.25 L-20.2 -1.25 M-15.0 -17.0 L-14.6 -17.0 -14.9 -17.35 M-4.35 25.8 L-2.95 17.65 Q-7.85 11.1 -14.45 10.35 L0.05 0.45 -2.95 17.65 Q2.8 13.4 10.3 12.65 M-0.1 0.25 L-20.0 -1.25 M2.95 -25.9 Q-8.1 -21.45 -20.3 -23.95" fill="none" stroke="#733333" stroke-linecap="round" stroke-linejoin="round" stroke-width="0.05"/>
    <path d="M0.1 8.75 Q-13.55 6.4 -27.2 -3.8 L-27.0 -25.6 -27.05 -25.85 -27.15 -19.45 -27.2 -26.35 27.4 -26.35 27.4 -3.8 Q13.75 6.4 0.1 8.75 M-23.4 -9.75 L-23.4 -10.05 -23.5 -9.75 -23.4 -9.75" fill="url(#gradient1)" fill-rule="evenodd" stroke="none"/>
    <path d="M27.4 -3.8 L27.4 26.0 -27.2 26.0 -27.2 5.6 -25.3 6.3 -25.05 6.5 -24.75 6.6 -24.5 6.6 Q-12.2 10.85 0.1 8.75 13.75 6.4 27.4 -3.8 M8.55 23.05 L8.65 23.05 8.55 23.0 8.55 23.05 M-26.7 18.7 L-26.65 18.6 -26.7 18.6 -26.7 18.7" fill="url(#gradient2)" fill-rule="evenodd" stroke="none"/>
  </g>
  <defs>
    <radialGradient cx="0" cy="0" gradientTransform="matrix(0.0461, 0.0, 0.0, 0.0461, 1.45, 7.6)" gradientUnits="userSpaceOnUse" id="gradient0" r="819.2" spreadMethod="pad">
      <stop offset="0.0" stop-color="#ae5151"/>
      <stop offset="0.5215686274509804" stop-color="#713232"/>
      <stop offset="1.0" stop-color="#181012"/>
    </radialGradient>
    <linearGradient gradientTransform="matrix(0.0, -0.0223, -0.0052, 0.0, -0.3, -17.0)" gradientUnits="userSpaceOnUse" id="gradient1" spreadMethod="pad" x1="-819.2" x2="819.2">
      <stop offset="0.0" stop-color="#000000" stop-opacity="0.0"/>
      <stop offset="1.0" stop-color="#000000" stop-opacity="0.42352942"/>
    </linearGradient>
    <linearGradient gradientTransform="matrix(0.0, 0.0181, -0.0052, 0.0, 0.1, 11.15)" gradientUnits="userSpaceOnUse" id="gradient2" spreadMethod="pad" x1="-819.2" x2="819.2">
      <stop offset="0.0" stop-color="#ffffff" stop-opacity="0.0"/>
      <stop offset="1.0" stop-color="#ffffff" stop-opacity="0.42352942"/>
    </linearGradient>
  </defs>
</svg>
