<?xml version="1.0" encoding="UTF-8" standalone="no"?>
<svg xmlns:xlink="http://www.w3.org/1999/xlink" height="44.75px" width="40.45px" xmlns="http://www.w3.org/2000/svg">
  <g transform="matrix(1.0, 0.0, 0.0, 1.0, 20.8, 23.0)">
    <path d="M16.3 -14.05 Q19.65 -10.1 19.65 -4.5 19.65 0.25 16.45 5.1 9.95 14.9 1.2 21.75 -9.1 13.5 -15.95 4.3 L-16.0 4.2 -16.05 4.15 -16.4 3.7 Q-18.75 0.15 -18.7 -4.55 -18.7 -10.1 -15.4 -14.05 -12.1 -17.95 -7.35 -17.95 -2.8 -17.95 0.45 -14.35 3.7 -17.95 8.25 -17.95 13.0 -17.95 16.3 -14.05 M16.45 5.1 Q16.8 4.4 16.3 5.0 L16.45 5.1" fill="#000000" fill-opacity="0.33333334" fill-rule="evenodd" stroke="none"/>
    <path d="M14.4 -17.75 Q17.6 -13.95 17.6 -8.55 17.6 -4.0 14.5 0.65 8.3 10.05 -0.1 16.65 -10.05 8.75 -16.75 -0.25 L-17.05 -0.7 Q-19.3 -4.05 -19.3 -8.6 -19.3 -13.95 -16.1 -17.75 -12.9 -21.5 -8.35 -21.5 -4.0 -21.5 -0.85 -18.0 2.25 -21.5 6.65 -21.5 11.2 -21.5 14.4 -17.75 Z" fill="none" stroke="#764f27" stroke-linecap="round" stroke-linejoin="round" stroke-width="3.0"/>
    <path d="M-0.2 13.6 Q6.8 8.1 12.0 0.25 14.55 -3.6 14.55 -7.4 14.55 -11.9 11.9 -15.05 9.25 -18.2 5.45 -18.15 1.8 -18.15 -0.8 -15.25 -2.75 -17.1 -5.45 -17.65 -8.1 -18.05 -10.55 -16.6 -12.85 -15.35 -14.1 -12.95 -15.3 -10.7 -15.65 -8.2 -16.05 -5.2 -14.9 -2.45 -13.95 -0.25 -12.4 1.55 -7.75 7.6 -0.2 13.6 M14.4 -17.75 Q17.6 -13.95 17.6 -8.55 17.6 -4.0 14.5 0.65 8.3 10.05 -0.1 16.65 -10.05 8.75 -16.6 -0.1 L-16.75 -0.25 -17.05 -0.7 Q-19.3 -4.05 -19.3 -8.6 -19.3 -13.95 -16.1 -17.75 -12.9 -21.5 -8.35 -21.5 -4.0 -21.5 -0.85 -18.0 2.25 -21.5 6.65 -21.5 11.2 -21.5 14.4 -17.75 M14.5 0.65 Q14.85 0.0 14.4 0.55 L14.5 0.65" fill="url(#gradient0)" fill-rule="evenodd" stroke="none"/>
    <path d="M-0.8 -15.25 Q1.8 -18.15 5.45 -18.15 9.25 -18.2 11.9 -15.05 14.55 -11.9 14.55 -7.4 14.55 -3.6 12.0 0.25 6.8 8.1 -0.2 13.6 -7.75 7.6 -12.4 1.55 -13.95 -0.25 -14.9 -2.45 -16.05 -5.2 -15.65 -8.2 -15.3 -10.7 -14.1 -12.95 -12.85 -15.35 -10.55 -16.6 -8.1 -18.05 -5.45 -17.65 -2.75 -17.1 -0.8 -15.25" fill="url(#gradient1)" fill-rule="evenodd" stroke="none"/>
    <path d="M-0.8 -15.25 Q1.8 -18.15 5.45 -18.15 9.25 -18.2 11.9 -15.05 14.55 -11.9 14.55 -7.4 14.55 -3.6 12.0 0.25 6.8 8.1 -0.2 13.6" fill="none" stroke="#dfcd6d" stroke-linecap="round" stroke-linejoin="round" stroke-width="0.05"/>
    <path d="M-0.2 13.6 Q-7.75 7.6 -12.4 1.55 -13.95 -0.25 -14.9 -2.45 -16.05 -5.2 -15.65 -8.2 -15.3 -10.7 -14.1 -12.95 -12.85 -15.35 -10.55 -16.6 -8.1 -18.05 -5.45 -17.65 -2.75 -17.1 -0.8 -15.25 Z" fill="none" stroke="#74540c" stroke-linecap="round" stroke-linejoin="round" stroke-width="0.05"/>
  </g>
  <defs>
    <radialGradient cx="0" cy="0" gradientTransform="matrix(0.0449, 0.0, 0.0, 0.0531, -14.6, -20.65)" gradientUnits="userSpaceOnUse" id="gradient0" r="819.2" spreadMethod="pad">
      <stop offset="0.0" stop-color="#ffffff"/>
      <stop offset="0.796078431372549" stop-color="#cdb118"/>
      <stop offset="1.0" stop-color="#9c660e"/>
    </radialGradient>
    <radialGradient cx="0" cy="0" gradientTransform="matrix(0.0276, 0.0, 0.0, 0.0327, -6.85, -8.55)" gradientUnits="userSpaceOnUse" id="gradient1" r="819.2" spreadMethod="pad">
      <stop offset="0.0" stop-color="#e8090c"/>
      <stop offset="1.0" stop-color="#5a1212"/>
    </radialGradient>
  </defs>
</svg>
