<?xml version="1.0" encoding="UTF-8" standalone="no"?>
<svg xmlns:xlink="http://www.w3.org/1999/xlink" height="7.3px" width="12.05px" xmlns="http://www.w3.org/2000/svg">
  <g transform="matrix(1.0, 0.0, 0.0, 1.0, 6.3, 1.2)">
    <path d="M-6.0 5.2 Q-6.8 3.5 -5.5 2.2 L-4.5 1.4 -1.85 0.1 Q-0.05 -0.8 0.6 -1.2 0.45 -1.0 0.75 -0.65 -1.4 0.75 -4.4 1.95 -5.5 2.75 -4.95 3.25 -5.9 4.05 -6.0 5.2" fill="#ebdae9" fill-rule="evenodd" stroke="none"/>
    <path d="M3.8 -0.55 L4.95 -1.15 Q6.05 1.75 5.65 2.05 5.1 3.3 4.8 4.8 4.1 5.25 3.3 4.8 L3.35 3.3 Q1.3 5.1 -1.35 5.85 -4.05 6.55 -6.0 5.2 -5.9 4.05 -4.95 3.25 L-2.7 3.8 Q1.65 2.35 3.8 -0.55" fill="#ffffff" fill-rule="evenodd" stroke="none"/>
    <path d="M0.75 -0.65 L1.1 -0.4 Q-2.25 1.8 -3.7 2.45 L-4.35 2.8 -4.95 3.25 Q-5.5 2.75 -4.4 1.95 -1.4 0.75 0.75 -0.65" fill="#000000" fill-rule="evenodd" stroke="none"/>
    <path d="M1.1 -0.4 L1.85 -0.25 3.8 -0.55 Q1.65 2.35 -2.7 3.8 L-4.95 3.25 -4.35 2.8 -3.7 2.45 Q-2.25 1.8 1.1 -0.4" fill="#5a5a5a" fill-rule="evenodd" stroke="none"/>
    <path d="M-6.0 5.2 Q-6.8 3.5 -5.5 2.2 L-4.5 1.4 -1.85 0.1 Q-0.05 -0.8 0.6 -1.2 0.45 -1.0 0.75 -0.65 L1.1 -0.4 1.85 -0.25 3.8 -0.55 4.95 -1.15 Q6.05 1.75 5.65 2.05 5.1 3.3 4.8 4.8 4.1 5.25 3.3 4.8 L3.35 3.3 Q1.3 5.1 -1.35 5.85 -4.05 6.55 -6.0 5.2 Z" fill="none" stroke="#a0a0a0" stroke-linecap="round" stroke-linejoin="round" stroke-width="0.05"/>
  </g>
</svg>
