<?xml version="1.0" encoding="UTF-8" standalone="no"?>
<svg xmlns:xlink="http://www.w3.org/1999/xlink" height="29.9px" width="29.9px" xmlns="http://www.w3.org/2000/svg">
  <g transform="matrix(1.0, 0.0, 0.0, 1.0, 14.95, 14.95)">
    <path d="M9.15 -9.15 Q12.95 -5.35 12.95 0.0 12.95 5.35 9.15 9.15 5.35 12.95 0.0 12.95 -5.35 12.95 -9.15 9.15 -12.95 5.35 -12.95 0.0 -12.95 -5.35 -9.15 -9.15 -5.35 -12.95 0.0 -12.95 5.35 -12.95 9.15 -9.15" fill="url(#gradient0)" fill-rule="evenodd" stroke="none"/>
    <path d="M9.15 -9.15 Q12.95 -5.35 12.95 0.0 12.95 5.35 9.15 9.15 5.35 12.95 0.0 12.95 -5.35 12.95 -9.15 9.15 -12.95 5.35 -12.95 0.0 -12.95 -5.35 -9.15 -9.15 -5.35 -12.95 0.0 -12.95 5.35 -12.95 9.15 -9.15 Z" fill="none" stroke="#937070" stroke-linecap="round" stroke-linejoin="round" stroke-width="4.0"/>
  </g>
  <defs>
    <radialGradient cx="0" cy="0" gradientTransform="matrix(0.0291, 0.0, 0.0, 0.0291, 8.85, 5.45)" gradientUnits="userSpaceOnUse" id="gradient0" r="819.2" spreadMethod="pad">
      <stop offset="0.0" stop-color="#934242"/>
      <stop offset="1.0" stop-color="#2a1212"/>
    </radialGradient>
  </defs>
</svg>
