<?xml version="1.0" encoding="UTF-8" standalone="no"?>
<svg xmlns:xlink="http://www.w3.org/1999/xlink" height="40.7px" width="331.75px" xmlns="http://www.w3.org/2000/svg">
  <g transform="matrix(1.0, 0.0, 0.0, 1.0, 209.85, 18.85)">
    <path d="M121.7 -17.6 L121.9 -17.25 121.9 -17.2 121.8 -16.9 Q105.15 5.25 89.55 21.7 L89.5 21.7 89.15 21.85 -177.05 21.85 -177.4 21.7 -189.75 6.55 -209.7 -16.85 -209.85 -17.2 -209.7 -17.55 -209.65 -17.55 -209.35 -17.7 121.4 -17.7 121.7 -17.6" fill="#000000" fill-opacity="0.38039216" fill-rule="evenodd" stroke="none"/>
    <path d="M112.85 -16.05 Q98.55 2.45 85.5 16.2 L-174.15 16.05 -175.2 14.8 -184.45 3.2 Q-192.25 -6.3 -200.75 -15.35 L-201.45 -16.25 112.85 -16.05" fill="url(#gradient0)" fill-rule="evenodd" stroke="none"/>
    <path d="M85.5 16.2 Q98.55 2.45 112.85 -16.05 L-201.45 -16.25 -200.75 -15.35 Q-192.25 -6.3 -184.45 3.2 L-175.2 14.8 -174.25 16.05 -174.2 16.1 -174.15 16.05 85.5 16.2 M117.4 -18.35 Q101.75 2.5 86.7 18.35 L-175.05 18.35 -186.85 3.95 -205.85 -18.35 117.4 -18.35" fill="url(#gradient1)" fill-rule="evenodd" stroke="none"/>
    <path d="M-201.45 -16.25 L112.85 -16.05" fill="none" stroke="#1e0d0d" stroke-linecap="round" stroke-linejoin="round" stroke-width="1.0"/>
    <path d="M-205.85 -18.35 L117.4 -18.35" fill="none" stroke="#b15252" stroke-linecap="round" stroke-linejoin="round" stroke-width="1.0"/>
    <path d="M85.5 16.2 L-174.15 16.05" fill="none" stroke="#0b2431" stroke-linecap="round" stroke-linejoin="round" stroke-width="1.0"/>
    <path d="M112.85 -16.05 Q98.55 2.45 85.5 16.2 M-174.25 16.05 L-175.2 14.8 -184.45 3.2 Q-192.25 -6.3 -200.75 -15.35 L-201.45 -16.25 M-174.15 16.05 L-174.25 16.05" fill="none" stroke="#103345" stroke-linecap="round" stroke-linejoin="round" stroke-width="1.0"/>
    <path d="M117.4 -18.35 Q101.75 2.5 86.7 18.35" fill="none" stroke="#2882b0" stroke-linecap="round" stroke-linejoin="round" stroke-width="1.0"/>
    <path d="M-175.05 18.35 L-186.85 3.95 -205.85 -18.35" fill="none" stroke="#2882b0" stroke-linecap="round" stroke-linejoin="round" stroke-width="1.0"/>
    <path d="M86.7 18.35 L-175.05 18.35" fill="none" stroke="#6ab6dd" stroke-linecap="round" stroke-linejoin="round" stroke-width="1.0"/>
  </g>
  <defs>
    <radialGradient cx="0" cy="0" gradientTransform="matrix(0.2066, 0.0, 0.0, 0.0672, -45.85, 25.25)" gradientUnits="userSpaceOnUse" id="gradient0" r="819.2" spreadMethod="pad">
      <stop offset="0.0" stop-color="#55b6e1"/>
      <stop offset="1.0" stop-color="#093d72"/>
    </radialGradient>
    <linearGradient gradientTransform="matrix(0.0, -0.022, 0.0224, 0.0, -49.65, 10.85)" gradientUnits="userSpaceOnUse" id="gradient1" spreadMethod="pad" x1="-819.2" x2="819.2">
      <stop offset="0.0" stop-color="#2194be"/>
      <stop offset="1.0" stop-color="#07345f"/>
    </linearGradient>
  </defs>
</svg>
