<?xml version="1.0" encoding="UTF-8" standalone="no"?>
<svg xmlns:xlink="http://www.w3.org/1999/xlink" height="41.15px" width="331.75px" xmlns="http://www.w3.org/2000/svg">
  <g transform="matrix(1.0, 0.0, 0.0, 1.0, 209.85, 18.85)">
    <path d="M121.7 -17.15 L121.9 -16.8 121.9 -16.75 121.8 -16.45 Q105.15 5.7 89.55 22.15 L89.5 22.15 89.15 22.3 -177.05 22.3 -177.4 22.15 -189.75 7.0 -209.7 -16.4 -209.85 -16.75 -209.7 -17.1 -209.65 -17.1 -209.35 -17.25 121.4 -17.25 121.7 -17.15" fill="#000000" fill-opacity="0.38039216" fill-rule="evenodd" stroke="none"/>
    <path d="M85.5 16.2 Q98.55 2.45 112.85 -16.05 L-201.45 -16.25 -200.75 -15.35 Q-192.25 -6.3 -184.45 3.2 L-175.2 14.8 -174.25 16.05 -174.2 16.1 -174.15 16.05 85.5 16.2 M117.4 -18.35 Q101.75 2.5 86.7 18.35 L-175.05 18.35 -186.85 3.95 -205.85 -18.35 117.4 -18.35" fill="url(#gradient0)" fill-rule="evenodd" stroke="none"/>
    <path d="M112.85 -16.05 Q98.55 2.45 85.5 16.2 L-174.15 16.05 -175.2 14.8 -184.45 3.2 Q-192.25 -6.3 -200.75 -15.35 L-201.45 -16.25 112.85 -16.05" fill="url(#gradient1)" fill-rule="evenodd" stroke="none"/>
    <path d="M112.85 -16.05 Q98.55 2.45 85.5 16.2 M-174.25 16.05 L-175.2 14.8 -184.45 3.2 Q-192.25 -6.3 -200.75 -15.35 L-201.45 -16.25 M-175.05 18.35 L-186.85 3.95 -205.85 -18.35 M-174.15 16.05 L-174.25 16.05" fill="none" stroke="#3a1b1b" stroke-linecap="round" stroke-linejoin="round" stroke-width="1.0"/>
    <path d="M-201.45 -16.25 L112.85 -16.05" fill="none" stroke="#1e0d0d" stroke-linecap="round" stroke-linejoin="round" stroke-width="1.0"/>
    <path d="M85.5 16.2 L-174.15 16.05" fill="none" stroke="#361818" stroke-linecap="round" stroke-linejoin="round" stroke-width="1.0"/>
    <path d="M117.4 -18.35 Q101.75 2.5 86.7 18.35" fill="none" stroke="#bd6c6c" stroke-linecap="round" stroke-linejoin="round" stroke-width="1.0"/>
    <path d="M86.7 18.35 L-175.05 18.35" fill="none" stroke="#cd9292" stroke-linecap="round" stroke-linejoin="round" stroke-width="1.0"/>
    <path d="M-205.85 -18.35 L117.4 -18.35" fill="none" stroke="#b15252" stroke-linecap="round" stroke-linejoin="round" stroke-width="1.0"/>
  </g>
  <defs>
    <linearGradient gradientTransform="matrix(0.0032, 0.0203, 0.1323, -0.0016, -32.05, 7.15)" gradientUnits="userSpaceOnUse" id="gradient0" spreadMethod="pad" x1="-819.2" x2="819.2">
      <stop offset="0.0" stop-color="#000000"/>
      <stop offset="1.0" stop-color="#6d3030"/>
    </linearGradient>
    <radialGradient cx="0" cy="0" gradientTransform="matrix(0.2066, 0.0, 0.0, 0.0672, -46.85, 16.0)" gradientUnits="userSpaceOnUse" id="gradient1" r="819.2" spreadMethod="pad">
      <stop offset="0.0" stop-color="#b15858"/>
      <stop offset="1.0" stop-color="#2a1212"/>
    </radialGradient>
  </defs>
</svg>
