<?xml version="1.0" encoding="UTF-8" standalone="no"?>
<svg xmlns:xlink="http://www.w3.org/1999/xlink" height="7.3px" width="12.05px" xmlns="http://www.w3.org/2000/svg">
  <g transform="matrix(1.0, 0.0, 0.0, 1.0, 6.3, 1.2)">
    <path d="M-6.0 5.2 Q-6.8 3.5 -5.5 2.2 L-4.5 1.4 -1.85 0.1 Q-0.05 -0.8 0.6 -1.2 0.4 -0.85 1.1 -0.4 -2.25 1.8 -3.7 2.45 L-4.35 2.8 Q-5.9 3.7 -6.0 5.2" fill="#5ca8a4" fill-rule="evenodd" stroke="none"/>
    <path d="M1.1 -0.4 L1.85 -0.25 Q3.8 -0.25 4.95 -1.15 6.05 1.75 5.65 2.05 5.1 3.3 4.8 4.8 4.1 5.25 3.3 4.8 L3.35 3.3 Q1.3 5.1 -1.35 5.85 -4.05 6.55 -6.0 5.2 -5.9 3.7 -4.35 2.8 L-3.7 2.45 Q-2.25 1.8 1.1 -0.4" fill="#488681" fill-rule="evenodd" stroke="none"/>
    <path d="M-6.0 5.2 Q-6.8 3.5 -5.5 2.2 L-4.5 1.4 -1.85 0.1 Q-0.05 -0.8 0.6 -1.2 0.4 -0.85 1.1 -0.4 L1.85 -0.25 Q3.8 -0.25 4.95 -1.15 6.05 1.75 5.65 2.05 5.1 3.3 4.8 4.8 4.1 5.25 3.3 4.8 L3.35 3.3 Q1.3 5.1 -1.35 5.85 -4.05 6.55 -6.0 5.2 Z" fill="none" stroke="#000000" stroke-linecap="round" stroke-linejoin="round" stroke-width="0.05"/>
  </g>
</svg>
