<?xml version="1.0" encoding="UTF-8" standalone="no"?>
<svg xmlns:xlink="http://www.w3.org/1999/xlink" height="23.55px" width="62.75px" xmlns="http://www.w3.org/2000/svg">
  <g transform="matrix(1.0, 0.0, 0.0, 1.0, 3.3, 1.5)">
    <path d="M3.2 -1.0 L52.95 -1.0 Q58.95 -1.05 58.95 5.0 L58.95 15.5 Q58.95 21.5 52.95 21.55 L3.2 21.55 Q-2.85 21.5 -2.8 15.5 L-2.8 5.0 Q-2.85 -1.05 3.2 -1.0" fill="#ffcc33" fill-rule="evenodd" stroke="none"/>
    <path d="M3.2 -1.0 Q-2.85 -1.05 -2.8 5.0 L-2.8 15.5 Q-2.85 21.5 3.2 21.55 L52.95 21.55 Q58.95 21.5 58.95 15.5 L58.95 5.0 Q58.95 -1.05 52.95 -1.0 L3.2 -1.0 Z" fill="none" stroke="#ffffff" stroke-linecap="round" stroke-linejoin="round" stroke-width="1.0"/>
  </g>
</svg>
