<?xml version="1.0" encoding="UTF-8" standalone="no"?>
<svg xmlns:xlink="http://www.w3.org/1999/xlink" height="19.45px" width="51.55px" xmlns="http://www.w3.org/2000/svg">
  <g transform="matrix(1.0, 0.0, 0.0, 1.0, -2.3, -0.55)">
    <path d="M7.7 1.05 L48.45 1.05 Q53.35 1.0 53.35 5.95 L53.35 14.55 Q53.35 19.45 48.45 19.5 L7.7 19.5 Q2.75 19.45 2.8 14.55 L2.8 5.95 Q2.75 1.0 7.7 1.05" fill="#ffcc33" fill-rule="evenodd" stroke="none"/>
    <path d="M7.7 1.05 Q2.75 1.0 2.8 5.95 L2.8 14.55 Q2.75 19.45 7.7 19.5 L48.45 19.5 Q53.35 19.45 53.35 14.55 L53.35 5.95 Q53.35 1.0 48.45 1.05 L7.7 1.05 Z" fill="none" stroke="#ffffff" stroke-linecap="round" stroke-linejoin="round" stroke-width="1.0"/>
  </g>
</svg>
