<?xml version="1.0" encoding="UTF-8" standalone="no"?>
<svg xmlns:xlink="http://www.w3.org/1999/xlink" height="69.1px" width="106.45px" xmlns="http://www.w3.org/2000/svg">
  <g transform="matrix(1.0, 0.0, 0.0, 1.0, 53.25, 34.95)">
    <path d="M42.75 -4.95 L42.7 -6.6 42.0 -6.2 42.75 -4.95 M22.2 -16.85 L23.45 -14.95 24.15 -15.25 24.35 -16.3 22.85 -17.9 22.75 -21.0 22.2 -16.85 M31.2 -18.9 L30.95 -19.55 30.35 -19.4 30.1 -20.2 25.45 -21.85 24.8 -21.6 24.95 -19.05 26.0 -21.2 28.45 -15.95 29.85 -15.45 32.65 -18.8 31.2 -18.9 M10.0 -7.55 L10.0 -5.65 10.85 -5.65 10.85 -7.55 10.0 -7.55 M25.0 -31.2 L24.5 -30.2 26.0 -30.65 25.0 -31.2 M22.45 -29.25 L22.3 -29.35 22.1 -29.25 22.0 -29.0 22.1 -28.75 22.3 -28.65 22.45 -28.75 22.55 -29.0 22.45 -29.25 M29.2 -32.7 L29.6 -32.05 29.35 -30.6 30.0 -30.05 29.95 -28.6 28.6 -28.35 28.2 -27.0 26.65 -27.4 27.95 -26.3 25.1 -27.75 25.3 -26.2 25.65 -25.9 26.55 -22.0 30.05 -20.45 31.15 -20.9 31.4 -20.55 32.25 -20.6 32.75 -19.95 33.45 -19.75 43.95 -31.2 44.55 -30.7 33.3 -14.25 39.75 -11.5 39.25 -10.2 Q43.4 -10.2 46.85 -7.75 49.65 -5.8 50.55 -2.5 L46.9 -3.9 48.5 6.6 45.35 2.35 45.4 0.05 43.4 -3.65 42.0 -4.1 43.35 6.45 41.15 3.0 41.2 0.9 39.35 -2.1 40.2 6.9 39.85 6.9 39.35 6.15 Q36.85 2.15 35.7 -2.45 L31.95 1.9 28.45 1.7 27.4 6.85 25.55 1.85 23.35 1.35 19.55 3.75 18.85 6.2 18.15 4.05 14.7 4.55 13.95 3.4 17.7 1.9 17.65 1.1 12.2 1.55 11.65 2.65 12.2 3.6 11.5 4.1 10.6 3.85 8.7 5.95 9.25 2.9 8.45 2.2 9.25 0.3 9.15 -0.6 9.55 -1.1 7.45 -8.15 6.45 -8.1 Q6.2 -6.5 5.45 -4.95 4.1 -2.4 1.85 -0.6 L1.65 2.1 -1.75 6.5 1.2 -4.6 -2.55 -3.3 2.15 -9.0 0.7 -9.75 -7.2 -1.95 -7.35 1.1 -12.75 6.2 -10.6 1.05 -11.0 1.2 -9.6 -2.9 -11.0 -1.7 -9.4 -5.45 Q-4.3 -15.55 6.55 -19.1 L1.85 -13.9 13.15 -10.15 13.7 -10.55 14.95 -10.2 16.0 -12.4 16.8 -12.7 17.2 -12.65 18.6 -13.8 18.4 -24.4 14.25 -25.95 13.1 -25.65 12.7 -26.05 12.15 -25.85 5.85 -29.15 18.45 -24.85 18.55 -28.7 19.1 -29.1 20.1 -28.5 20.65 -24.95 21.4 -24.6 22.6 -25.55 22.2 -26.75 21.45 -27.15 21.05 -27.1 21.65 -30.2 21.45 -30.55 21.25 -30.05 20.65 -30.8 20.55 -31.4 20.1 -31.5 21.2 -32.35 20.1 -32.65 21.35 -33.25 22.0 -33.1 21.35 -34.2 22.95 -33.5 23.2 -34.55 23.3 -33.5 24.2 -34.95 23.6 -33.5 25.55 -34.0 24.8 -33.15 25.3 -33.15 26.2 -32.5 25.15 -32.25 26.35 -31.8 29.2 -32.7 M45.8 10.65 L45.25 10.4 38.2 10.4 38.2 12.7 47.4 12.7 47.1 12.0 46.45 11.2 45.8 10.65 M49.2 9.0 L50.55 9.95 51.55 11.0 52.8 12.8 53.2 14.1 50.0 14.1 50.85 15.0 51.2 15.4 52.2 16.9 52.95 18.4 53.2 19.7 48.7 19.7 47.4 16.7 46.95 16.2 46.45 15.6 46.0 15.15 45.4 14.95 38.2 14.95 38.2 19.7 34.5 19.7 34.5 7.9 45.85 7.9 47.6 8.25 Q48.45 8.55 49.2 9.0 M52.7 29.5 L52.9 30.5 52.85 31.0 52.65 31.75 51.95 32.9 50.95 33.75 49.65 34.1 27.65 34.1 26.3 31.15 25.85 30.6 25.35 30.0 24.9 29.55 24.35 29.35 17.15 29.35 17.15 34.1 13.45 34.1 13.45 22.35 24.8 22.35 26.5 22.7 28.1 23.4 Q28.85 23.8 29.45 24.4 L30.5 25.4 31.7 27.2 32.1 28.5 28.9 28.5 29.8 29.45 30.1 29.85 31.1 31.3 31.3 31.6 47.35 31.6 47.7 31.15 47.8 30.95 47.9 30.5 47.7 29.8 47.45 29.35 34.05 29.35 Q34.05 28.0 34.5 26.75 34.95 25.45 35.8 24.5 36.65 23.5 37.8 22.95 38.95 22.35 40.4 22.35 L53.1 22.35 53.1 24.85 40.4 24.85 39.35 25.95 39.15 26.35 39.1 26.65 39.25 27.05 39.25 27.1 50.55 27.1 Q51.0 27.1 51.5 27.45 L52.2 28.35 52.7 29.5 M32.35 10.4 L21.8 10.4 21.25 10.65 Q20.95 10.75 20.6 11.2 L20.0 11.9 19.7 12.7 31.0 12.7 31.0 14.95 21.6 14.95 Q21.1 14.95 20.6 15.6 20.1 16.25 19.85 17.2 L32.75 17.2 32.75 19.7 13.85 19.7 14.1 18.4 Q14.3 17.65 14.8 16.9 L15.85 15.45 16.15 15.0 17.05 14.1 13.85 14.1 Q13.9 13.5 14.25 12.8 L15.45 11.0 16.45 9.95 Q17.05 9.4 17.8 9.0 18.6 8.55 19.45 8.25 L21.2 7.9 32.35 7.9 32.35 10.4 M9.05 19.75 L-5.7 19.75 -5.7 7.95 12.3 7.95 12.3 17.4 11.85 18.2 10.95 18.95 9.9 19.5 9.05 19.75 M7.95 16.4 L8.5 15.5 8.5 10.7 -2.15 10.7 -2.15 17.0 6.9 17.0 7.95 16.4 M11.25 22.35 L11.25 24.85 0.7 24.85 0.2 25.05 Q-0.1 25.15 -0.5 25.6 L-1.1 26.35 -1.35 27.1 9.9 27.1 9.9 29.35 0.55 29.35 Q0.05 29.35 -0.45 30.0 -0.95 30.65 -1.25 31.6 L11.7 31.6 11.7 34.1 -7.25 34.1 -7.0 32.8 -6.3 31.35 -5.25 29.85 -4.9 29.45 -4.05 28.5 -7.25 28.5 -6.85 27.2 -5.6 25.4 -4.6 24.4 Q-4.05 23.8 -3.25 23.4 L-1.6 22.7 0.1 22.35 11.25 22.35 M17.15 27.1 L26.3 27.1 26.0 26.4 25.35 25.6 24.7 25.05 24.15 24.85 17.15 24.85 17.15 27.1 M-17.6 9.0 L-16.2 9.95 -15.15 11.0 -13.95 12.8 -13.6 14.1 -13.6 14.95 -28.55 14.95 -28.55 19.7 -32.3 19.7 -32.3 7.9 -20.9 7.9 -19.2 8.25 Q-18.35 8.55 -17.6 9.0 M-19.7 11.8 L-20.3 11.15 -21.0 10.65 -21.55 10.4 -28.55 10.4 -28.55 12.7 -19.3 12.7 -19.7 11.8 M-7.75 19.7 L-11.55 19.7 -11.55 7.9 -7.75 7.9 -7.75 19.7 M-35.45 10.4 L-46.5 10.4 -47.55 11.55 -47.75 11.9 -47.8 12.25 -47.65 12.65 -47.65 12.7 -36.35 12.7 Q-35.85 12.7 -35.4 13.05 L-34.65 13.95 -34.2 15.1 -34.0 16.1 -34.05 16.6 -34.25 17.35 -34.95 18.5 -35.95 19.35 -37.2 19.7 -53.15 19.7 -53.15 17.2 -39.5 17.2 -39.15 16.7 -39.1 16.5 -39.0 16.1 -39.15 15.4 -39.45 14.95 -52.8 14.95 Q-52.85 13.6 -52.4 12.35 -51.95 11.05 -51.1 10.05 -50.25 9.1 -49.1 8.5 -47.95 7.9 -46.5 7.9 L-35.45 7.9 -35.45 10.4 M-38.6 23.4 L-37.25 24.4 -36.2 25.4 -35.0 27.2 -34.55 28.5 -37.8 28.5 -36.9 29.45 -36.6 29.85 -35.55 31.3 -34.85 32.8 Q-34.55 33.5 -34.55 34.1 L-39.05 34.1 -40.35 31.15 -40.85 30.6 -41.3 30.0 -41.8 29.55 -42.35 29.35 -49.55 29.35 -49.55 34.1 -53.25 34.1 -53.25 22.35 -41.9 22.35 -40.15 22.7 Q-39.35 22.95 -38.6 23.4 M-28.85 22.35 L-28.85 34.1 -32.65 34.1 -32.65 22.35 -28.85 22.35 M-23.25 26.0 L-23.2 26.0 -23.2 31.4 -14.15 31.4 Q-13.5 31.2 -13.15 30.85 L-12.6 29.9 -12.6 25.1 -12.6 25.05 -23.25 25.05 -23.25 26.0 M-9.25 32.65 L-10.15 33.35 -11.15 33.95 -12.05 34.15 -26.8 34.15 -26.8 22.4 -8.8 22.4 -8.8 31.8 -9.25 32.65 M-42.0 25.05 L-42.55 24.85 -49.55 24.85 -49.55 27.1 -40.35 27.1 -40.7 26.4 -41.3 25.6 -42.0 25.05" fill="#ffffff" fill-rule="evenodd" stroke="none"/>
  </g>
</svg>
