<?xml version="1.0" encoding="UTF-8" standalone="no"?>
<svg xmlns:xlink="http://www.w3.org/1999/xlink" height="45.05px" width="38.2px" xmlns="http://www.w3.org/2000/svg">
  <g transform="matrix(1.0, 0.0, 0.0, 1.0, 19.1, 22.8)">
    <path d="M18.6 -17.45 L18.6 -17.15 15.65 12.9 Q15.55 14.65 14.5 16.2 13.45 17.6 11.6 18.85 7.1 21.7 0.6 21.75 -6.0 21.7 -10.45 18.85 -13.85 16.6 -14.4 13.8 L-14.5 12.9 -17.9 -11.4 -18.6 -17.45 -18.35 -18.2 Q-17.35 -19.8 -12.85 -20.9 -7.5 -22.3 0.0 -22.3 7.45 -22.3 12.9 -20.9 17.55 -19.7 18.45 -18.05 L18.6 -17.45 Z" fill="none" stroke="#387190" stroke-linecap="round" stroke-linejoin="round" stroke-width="1.0"/>
    <path d="M-12.7 -7.8 L-12.65 -7.65 -12.65 -7.6 -12.7 -7.8" fill="#e2edf8" fill-rule="evenodd" stroke="none"/>
    <path d="M18.45 -18.05 L18.6 -17.45 18.6 -17.15 17.6 -7.05 Q17.6 -8.6 17.05 -9.7 16.4 -10.95 15.45 -11.0 14.5 -11.1 13.8 -10.05 13.15 -9.05 13.0 -7.65 L13.0 -7.6 12.95 -7.25 12.65 0.65 Q12.35 8.45 11.3 16.15 8.25 18.0 4.3 18.6 L3.75 -5.1 Q3.6 -6.55 2.6 -7.6 1.5 -8.75 0.15 -8.7 -1.25 -8.7 -2.2 -7.5 -3.05 -6.5 -3.1 -5.05 L-3.1 -4.7 -3.1 -4.45 -3.5 18.55 Q-7.35 17.9 -10.25 16.0 L-10.75 15.7 Q-12.55 3.95 -12.65 -7.4 L-12.65 -7.6 -12.65 -7.65 -12.7 -7.8 -12.7 -7.85 -12.7 -8.0 Q-12.9 -9.45 -13.5 -10.4 -14.25 -11.5 -15.15 -11.4 -16.15 -11.3 -16.75 -10.1 -17.4 -8.85 -17.3 -7.15 L-17.3 -6.9 -17.9 -11.4 -18.6 -17.45 -18.35 -18.2 -17.95 -17.2 Q-17.0 -15.5 -13.35 -14.1 -7.95 -12.0 0.0 -12.0 7.9 -12.0 13.35 -14.1 17.1 -15.55 18.05 -17.4 L18.45 -18.05" fill="url(#gradient0)" fill-rule="evenodd" stroke="none"/>
    <path d="M18.45 -18.05 L18.05 -17.4 Q17.1 -15.55 13.35 -14.1 7.9 -12.0 0.0 -12.0 -7.95 -12.0 -13.35 -14.1 -17.0 -15.5 -17.95 -17.2 L-18.35 -18.2 Q-17.35 -19.8 -12.85 -20.9 -7.5 -22.3 0.0 -22.3 7.45 -22.3 12.9 -20.9 17.55 -19.7 18.45 -18.05" fill="url(#gradient1)" fill-rule="evenodd" stroke="none"/>
    <path d="M-3.5 18.55 L-3.1 -4.45 -3.1 -4.7 -3.1 -5.05 Q-3.05 -6.5 -2.2 -7.5 -1.25 -8.7 0.15 -8.7 1.5 -8.75 2.6 -7.6 3.6 -6.55 3.75 -5.1 L4.3 18.6 3.6 18.7 0.6 18.85 -1.7 18.75 -3.5 18.55" fill="url(#gradient2)" fill-rule="evenodd" stroke="none"/>
    <path d="M-17.3 -6.9 L-17.3 -7.15 Q-17.4 -8.85 -16.75 -10.1 -16.15 -11.3 -15.15 -11.4 -14.25 -11.5 -13.5 -10.4 -12.9 -9.45 -12.7 -8.0 L-12.7 -7.85 -12.7 -7.8 -12.65 -7.6 -12.65 -7.4 Q-12.55 3.95 -10.75 15.7 L-12.55 14.45 Q-14.05 13.15 -14.3 12.15 -14.75 10.7 -14.5 12.9 L-17.3 -6.9" fill="url(#gradient3)" fill-rule="evenodd" stroke="none"/>
    <path d="M-10.75 15.7 L-10.25 16.0 Q-7.35 17.9 -3.5 18.55 L-1.7 18.75 0.6 18.85 3.6 18.7 4.3 18.6 Q8.25 18.0 11.3 16.15 L11.45 16.0 Q13.15 14.9 14.25 13.55 15.55 11.9 15.95 10.0 L15.65 12.9 Q15.55 14.65 14.5 16.2 13.45 17.6 11.6 18.85 7.1 21.7 0.6 21.75 -6.0 21.7 -10.45 18.85 -13.85 16.6 -14.4 13.8 L-14.5 12.9 Q-14.75 10.7 -14.3 12.15 -14.05 13.15 -12.55 14.45 L-10.75 15.7" fill="url(#gradient4)" fill-rule="evenodd" stroke="none"/>
    <path d="M11.3 16.15 Q12.35 8.45 12.65 0.65 L12.95 -7.25 13.0 -7.6 13.0 -7.65 Q13.15 -9.05 13.8 -10.05 14.5 -11.1 15.45 -11.0 16.4 -10.95 17.05 -9.7 17.6 -8.6 17.6 -7.05 L15.95 10.0 Q15.55 11.9 14.25 13.55 13.15 14.9 11.45 16.0 L11.3 16.15" fill="url(#gradient5)" fill-rule="evenodd" stroke="none"/>
    <path d="M18.05 -17.4 Q17.1 -15.55 13.35 -14.1 7.9 -12.0 0.0 -12.0 -7.95 -12.0 -13.35 -14.1 -17.0 -15.5 -17.95 -17.2" fill="none" stroke="#0d677d" stroke-linecap="round" stroke-linejoin="round" stroke-width="0.05"/>
    <path d="M-10.75 15.7 L-10.25 16.0 Q-7.35 17.9 -3.5 18.55 L-1.7 18.75 0.6 18.85 3.6 18.7 4.3 18.6 Q8.25 18.0 11.3 16.15 L11.45 16.0 Q13.15 14.9 14.25 13.55 M-10.75 15.7 L-12.55 14.45" fill="none" stroke="#2384be" stroke-linecap="round" stroke-linejoin="round" stroke-width="0.05"/>
  </g>
  <defs>
    <linearGradient gradientTransform="matrix(0.0203, 2.0E-4, 3.0E-4, 0.0223, -0.3, -4.3)" gradientUnits="userSpaceOnUse" id="gradient0" spreadMethod="pad" x1="-819.2" x2="819.2">
      <stop offset="0.0" stop-color="#72cced"/>
      <stop offset="0.12941176470588237" stop-color="#cfeef9"/>
      <stop offset="0.20392156862745098" stop-color="#72cced"/>
      <stop offset="0.28627450980392155" stop-color="#56b7e1"/>
      <stop offset="0.42745098039215684" stop-color="#2689c2"/>
      <stop offset="0.6509803921568628" stop-color="#0e5b96"/>
      <stop offset="1.0" stop-color="#094464"/>
    </linearGradient>
    <radialGradient cx="0" cy="0" gradientTransform="matrix(0.0219, 0.0, 0.0, 0.0229, -6.15, -19.75)" gradientUnits="userSpaceOnUse" id="gradient1" r="819.2" spreadMethod="pad">
      <stop offset="0.0" stop-color="#0c558a"/>
      <stop offset="1.0" stop-color="#02131c"/>
    </radialGradient>
    <linearGradient gradientTransform="matrix(0.0, -0.022, 0.015, 0.0, 1.05, 9.5)" gradientUnits="userSpaceOnUse" id="gradient2" spreadMethod="pad" x1="-819.2" x2="819.2">
      <stop offset="0.23529411764705882" stop-color="#4bacda"/>
      <stop offset="0.7686274509803922" stop-color="#094464"/>
    </linearGradient>
    <linearGradient gradientTransform="matrix(-0.0059, -0.0219, 0.0207, -0.0064, -8.9, 3.4)" gradientUnits="userSpaceOnUse" id="gradient3" spreadMethod="pad" x1="-819.2" x2="819.2">
      <stop offset="0.18823529411764706" stop-color="#16afe9"/>
      <stop offset="0.7686274509803922" stop-color="#0e7196"/>
    </linearGradient>
    <linearGradient gradientTransform="matrix(0.0186, 0.0052, -0.0056, 0.0216, -1.45, 3.75)" gradientUnits="userSpaceOnUse" id="gradient4" spreadMethod="pad" x1="-819.2" x2="819.2">
      <stop offset="0.0" stop-color="#5fbee5"/>
      <stop offset="0.26666666666666666" stop-color="#1b74ae"/>
      <stop offset="0.796078431372549" stop-color="#09476b"/>
      <stop offset="1.0" stop-color="#073852"/>
    </linearGradient>
    <linearGradient gradientTransform="matrix(0.0, -0.0166, 0.0215, 0.0, 27.3, 7.6)" gradientUnits="userSpaceOnUse" id="gradient5" spreadMethod="pad" x1="-819.2" x2="819.2">
      <stop offset="0.18823529411764706" stop-color="#1285c2"/>
      <stop offset="0.7686274509803922" stop-color="#052936"/>
    </linearGradient>
  </defs>
</svg>
