<?xml version="1.0" encoding="UTF-8" standalone="no"?>
<svg xmlns:xlink="http://www.w3.org/1999/xlink" height="16.0px" width="16.0px" xmlns="http://www.w3.org/2000/svg">
  <g transform="matrix(1.0, 0.0, 0.0, 1.0, 8.0, 8.0)">
    <path d="M-5.6 5.7 Q-7.0 3.75 -7.0 1.25 -7.0 -1.95 -4.7 -4.2 -2.45 -6.5 0.75 -6.5 3.95 -6.5 6.25 -4.2 7.15 -3.3 7.7 -2.2 L8.0 0.0 Q8.0 3.3 5.65 5.65 3.3 8.0 0.0 8.0 -3.3 8.0 -5.6 5.7" fill="url(#gradient0)" fill-rule="evenodd" stroke="none"/>
    <path d="M-5.6 5.7 L-5.65 5.65 Q-8.0 3.3 -8.0 0.0 -8.0 -3.3 -5.65 -5.65 -3.3 -8.0 0.0 -8.0 3.3 -8.0 5.65 -5.65 7.15 -4.15 7.7 -2.2 7.15 -3.3 6.25 -4.2 3.95 -6.5 0.75 -6.5 -2.45 -6.5 -4.7 -4.2 -7.0 -1.95 -7.0 1.25 -7.0 3.75 -5.6 5.7" fill="#6f220f" fill-rule="evenodd" stroke="none"/>
  </g>
  <defs>
    <radialGradient cx="0" cy="0" gradientTransform="matrix(0.0157, 0.0, 0.0, 0.0157, -1.05, -1.3)" gradientUnits="userSpaceOnUse" id="gradient0" r="819.2" spreadMethod="pad">
      <stop offset="0.0" stop-color="#fb5228"/>
      <stop offset="1.0" stop-color="#691c0a"/>
    </radialGradient>
  </defs>
</svg>
