<?xml version="1.0" encoding="UTF-8" standalone="no"?>
<svg xmlns:xlink="http://www.w3.org/1999/xlink" height="16.0px" width="16.0px" xmlns="http://www.w3.org/2000/svg">
  <g transform="matrix(1.0, 0.0, 0.0, 1.0, 8.0, 8.0)">
    <path d="M0.0 8.0 Q-2.85 7.85 -4.85 5.85 -7.05 3.65 -7.05 0.6 -7.05 -2.45 -4.85 -4.6 -2.7 -6.8 0.35 -6.8 3.4 -6.8 5.6 -4.6 7.75 -2.45 7.75 0.6 L8.0 0.65 Q7.85 2.55 6.9 4.1 L5.65 5.65 Q3.45 7.85 0.35 8.0 L0.2 8.0 0.0 8.0" fill="url(#gradient0)" fill-rule="evenodd" stroke="none"/>
    <path d="M8.0 0.65 L7.75 0.6 Q7.75 -2.45 5.6 -4.6 3.4 -6.8 0.35 -6.8 -2.7 -6.8 -4.85 -4.6 -7.05 -2.45 -7.05 0.6 -7.05 3.65 -4.85 5.85 -2.85 7.85 0.0 8.0 -3.3 8.0 -5.65 5.65 -8.0 3.3 -8.0 0.0 -8.0 -3.3 -5.65 -5.65 -3.3 -8.0 0.0 -8.0 3.3 -8.0 5.65 -5.65 8.0 -3.3 8.0 0.0 L8.0 0.65" fill="#895612" fill-rule="evenodd" stroke="none"/>
  </g>
  <defs>
    <radialGradient cx="0" cy="0" gradientTransform="matrix(0.0145, 0.0, 0.0, 0.0145, -0.75, -1.55)" gradientUnits="userSpaceOnUse" id="gradient0" r="819.2" spreadMethod="pad">
      <stop offset="0.0" stop-color="#f1e238"/>
      <stop offset="0.7843137254901961" stop-color="#db6a17"/>
    </radialGradient>
  </defs>
</svg>
