<?xml version="1.0" encoding="UTF-8" standalone="no"?>
<svg xmlns:xlink="http://www.w3.org/1999/xlink" height="16.0px" width="16.0px" xmlns="http://www.w3.org/2000/svg">
  <g transform="matrix(1.0, 0.0, 0.0, 1.0, 8.0, 8.0)">
    <path d="M-2.15 7.75 Q-3.45 7.2 -4.55 6.1 -6.8 3.85 -6.75 0.75 -6.8 -2.35 -4.55 -4.55 -2.35 -6.8 0.75 -6.75 3.85 -6.8 6.1 -4.55 7.2 -3.45 7.75 -2.15 L8.0 0.0 Q8.0 3.3 5.65 5.65 3.3 8.0 0.0 8.0 L-2.15 7.75" fill="url(#gradient0)" fill-rule="evenodd" stroke="none"/>
    <path d="M-2.15 7.75 Q-4.1 7.2 -5.65 5.65 -8.0 3.3 -8.0 0.0 -8.0 -3.3 -5.65 -5.65 -3.3 -8.0 0.0 -8.0 3.3 -8.0 5.65 -5.65 7.2 -4.1 7.75 -2.15 7.2 -3.45 6.1 -4.55 3.85 -6.8 0.75 -6.75 -2.35 -6.8 -4.55 -4.55 -6.8 -2.35 -6.75 0.75 -6.8 3.85 -4.55 6.1 -3.45 7.2 -2.15 7.75" fill="#9d9e85" fill-rule="evenodd" stroke="none"/>
  </g>
  <defs>
    <radialGradient cx="0" cy="0" gradientTransform="matrix(0.0134, 0.0, 0.0, 0.0134, -1.8, -2.05)" gradientUnits="userSpaceOnUse" id="gradient0" r="819.2" spreadMethod="pad">
      <stop offset="0.3686274509803922" stop-color="#e3e3e3"/>
      <stop offset="1.0" stop-color="#b3b49d"/>
    </radialGradient>
  </defs>
</svg>
