<?xml version="1.0" encoding="UTF-8" standalone="no"?>
<svg xmlns:xlink="http://www.w3.org/1999/xlink" height="16.0px" width="16.0px" xmlns="http://www.w3.org/2000/svg">
  <g transform="matrix(1.0, 0.0, 0.0, 1.0, 8.0, 8.0)">
    <path d="M-4.7 6.45 L-4.6 6.25 Q-6.8 4.05 -6.8 0.95 -6.8 -2.15 -4.6 -4.35 -2.4 -6.55 0.7 -6.55 3.8 -6.55 6.0 -4.35 7.45 -2.95 7.95 -1.1 L8.0 0.0 Q8.0 3.3 5.65 5.65 3.3 8.0 0.0 8.0 -1.8 8.0 -3.3 7.3 L-4.7 6.45" fill="url(#gradient0)" fill-rule="evenodd" stroke="none"/>
    <path d="M-4.7 6.45 L-5.65 5.65 Q-8.0 3.3 -8.0 0.0 -8.0 -3.3 -5.65 -5.65 -3.3 -8.0 0.0 -8.0 3.3 -8.0 5.65 -5.65 7.6 -3.7 7.95 -1.1 7.45 -2.95 6.0 -4.35 3.8 -6.55 0.7 -6.55 -2.4 -6.55 -4.6 -4.35 -6.8 -2.15 -6.8 0.95 -6.8 4.05 -4.6 6.25 L-4.7 6.45" fill="#3c6609" fill-rule="evenodd" stroke="none"/>
  </g>
  <defs>
    <radialGradient cx="0" cy="0" gradientTransform="matrix(0.0163, 0.0, 0.0, 0.0163, -2.05, -2.85)" gradientUnits="userSpaceOnUse" id="gradient0" r="819.2" spreadMethod="pad">
      <stop offset="0.0" stop-color="#afd80e"/>
      <stop offset="1.0" stop-color="#33740c"/>
    </radialGradient>
  </defs>
</svg>
