<?xml version="1.0" encoding="UTF-8" standalone="no"?>
<svg xmlns:xlink="http://www.w3.org/1999/xlink" height="25.9px" width="6.55px" xmlns="http://www.w3.org/2000/svg">
  <g transform="matrix(1.0, 0.0, 0.0, 1.0, 3.3, 12.95)">
    <path d="M1.95 -8.8 Q3.5 -1.85 3.2 -0.1 2.9 1.65 2.8 5.15 2.7 8.6 3.0 12.5 0.2 13.4 -1.1 12.45 L-1.2 9.05 Q-1.35 6.55 -3.3 -8.15 -3.2 -11.55 -1.75 -12.9 0.75 -13.35 1.95 -8.8" fill="#fde0bd" fill-rule="evenodd" stroke="none"/>
    <path d="M1.95 -8.8 Q0.75 -13.35 -1.75 -12.9 -3.2 -11.55 -3.3 -8.15 -1.35 6.55 -1.2 9.05 L-1.1 12.45 Q0.2 13.4 3.0 12.5 2.7 8.6 2.8 5.15 2.9 1.65 3.2 -0.1 3.5 -1.85 1.95 -8.8 Z" fill="none" stroke="#c28030" stroke-linecap="round" stroke-linejoin="round" stroke-width="0.05"/>
  </g>
</svg>
