<?xml version="1.0" encoding="UTF-8" standalone="no"?>
<svg xmlns:xlink="http://www.w3.org/1999/xlink" height="111.6px" width="105.1px" xmlns="http://www.w3.org/2000/svg">
  <g transform="matrix(1.0, 0.0, 0.0, 1.0, 0.0, 0.0)">
    <path d="M50.95 14.1 L51.2 13.95 Q59.5 11.05 68.95 10.1 L67.25 13.15 77.0 12.45 84.55 8.15 Q74.0 18.55 56.05 20.7 L52.85 21.15 Q48.65 27.75 43.1 32.45 45.5 40.05 43.1 46.45 L40.2 50.2 40.6 53.1 45.2 52.2 Q46.55 46.8 49.4 43.05 L47.5 41.95 64.1 30.0 80.35 30.05 78.3 32.65 87.45 35.75 87.6 35.65 96.15 36.2 Q82.4 40.8 67.4 36.4 L65.0 35.9 Q59.85 41.45 53.15 44.05 51.75 50.85 47.8 56.35 L43.4 58.0 Q44.05 60.85 49.05 60.65 51.95 56.0 59.1 53.4 L57.6 51.3 Q68.55 50.4 80.15 56.15 L83.4 58.65 Q88.05 62.55 91.45 66.65 L89.5 68.05 96.8 73.05 97.6 75.65 105.1 80.7 97.4 78.05 Q82.6 72.4 75.5 62.65 67.0 61.2 59.85 56.75 56.4 61.05 51.0 63.15 57.65 63.7 63.05 68.45 L66.35 73.0 Q84.75 89.4 77.1 107.8 L76.8 111.6 35.6 111.6 Q31.7 106.95 28.75 100.1 L25.5 95.55 Q22.65 88.9 24.25 82.45 20.65 86.85 15.55 88.75 17.4 96.95 16.05 105.55 17.95 108.2 19.45 111.3 L19.6 111.6 Q12.55 111.1 8.65 108.45 L8.45 107.85 Q6.65 95.0 11.05 84.85 L12.55 86.95 Q17.25 81.05 22.5 79.8 24.2 75.2 21.65 73.7 L18.8 77.25 Q12.4 79.2 5.6 78.35 3.1 81.3 0.0 83.6 L0.0 76.25 5.25 72.45 5.7 74.55 Q10.15 73.05 15.75 73.5 L18.15 69.3 15.55 68.0 10.95 69.65 Q5.35 69.85 0.0 66.65 L0.0 61.4 0.8 61.3 10.45 65.35 12.9 63.6 Q13.5 61.8 12.7 60.2 L3.15 57.35 0.0 55.45 0.0 49.6 5.0 51.35 8.2 54.25 11.15 54.2 9.0 48.85 9.1 47.45 Q6.45 43.55 4.95 38.85 5.5 32.7 2.35 26.75 7.3 31.15 8.8 39.8 L12.25 44.8 Q12.6 42.65 14.6 41.1 L14.7 41.0 Q16.95 39.5 19.25 39.75 L15.45 35.05 Q7.75 30.85 5.2 24.7 9.75 29.7 15.65 31.15 19.6 34.05 22.5 37.8 L23.85 38.15 28.45 41.7 29.35 39.0 27.7 34.95 27.45 26.0 19.35 13.75 16.05 11.8 10.95 0.0 18.25 0.0 23.9 6.35 24.35 11.65 Q32.2 26.55 33.75 35.3 L33.55 45.15 Q34.8 46.4 36.7 46.4 L39.15 44.65 38.35 34.2 40.7 29.9 37.05 30.1 Q41.95 20.25 50.95 14.1" fill="#000000" fill-rule="evenodd" stroke="none"/>
  </g>
</svg>
