<?xml version="1.0" encoding="UTF-8" standalone="no"?>
<svg xmlns:xlink="http://www.w3.org/1999/xlink" height="57.3px" width="63.6px" xmlns="http://www.w3.org/2000/svg">
  <g transform="matrix(1.0, 0.0, 0.0, 1.0, 31.8, 28.65)">
    <path d="M24.95 -0.05 L9.4 22.4 -9.4 22.4 -24.95 -0.05 -9.45 -22.5 9.45 -22.5 24.95 -0.05 M30.8 0.05 L11.6 -27.65 -11.65 -27.65 -30.8 0.05 -11.7 27.65 11.65 27.65 30.8 0.05" fill="none" stroke="#680b4f" stroke-linecap="round" stroke-linejoin="round" stroke-opacity="0.28235295" stroke-width="2.0"/>
    <path d="M30.8 0.05 L11.65 27.65 -11.7 27.65 -30.8 0.05 -11.65 -27.65 11.6 -27.65 30.8 0.05 M24.95 -0.05 L9.45 -22.5 -9.45 -22.5 -24.95 -0.05 -9.4 22.4 9.4 22.4 24.95 -0.05" fill="url(#gradient0)" fill-rule="evenodd" stroke="none"/>
  </g>
  <defs>
    <linearGradient gradientTransform="matrix(-0.0144, -0.0347, 0.0311, -0.0129, 0.0, 0.0)" gradientUnits="userSpaceOnUse" id="gradient0" spreadMethod="pad" x1="-819.2" x2="819.2">
      <stop offset="0.0" stop-color="#d195dd"/>
      <stop offset="1.0" stop-color="#ffffff"/>
    </linearGradient>
  </defs>
</svg>
