<?xml version="1.0" encoding="UTF-8" standalone="no"?>
<svg xmlns:xlink="http://www.w3.org/1999/xlink" height="45.5px" width="49.3px" xmlns="http://www.w3.org/2000/svg">
  <g transform="matrix(1.0, 0.0, 0.0, 1.0, 0.0, 0.0)">
    <path d="M34.0 0.0 L49.3 22.75 33.95 45.5 15.35 45.5 0.0 22.75 1.2 20.9 15.15 41.05 32.25 41.05 46.3 20.85 32.25 0.55 15.2 0.55 10.2 7.7 15.35 0.0 34.0 0.0" fill="#000000" fill-opacity="0.28235295" fill-rule="evenodd" stroke="none"/>
    <path d="M16.8 4.35 L30.65 4.35 42.0 20.75 30.6 37.2 16.85 37.2 5.45 20.75 16.8 4.35" fill="url(#gradient0)" fill-rule="evenodd" stroke="none"/>
    <path d="M1.2 20.85 L1.15 20.8 3.2 17.85 5.25 14.9 10.2 7.65 15.2 0.5 32.25 0.5 46.3 20.8 32.25 41.0 15.15 41.0 1.2 20.85 M30.65 4.3 L16.8 4.3 5.45 20.7 16.85 37.15 30.6 37.15 42.0 20.7 30.65 4.3" fill="#062b46" fill-rule="evenodd" stroke="none"/>
    <path d="M1.2 20.85 L1.15 20.8" fill="none" stroke="#5c3265" stroke-linecap="round" stroke-linejoin="round" stroke-width="0.05"/>
    <path d="M1.15 20.8 L3.2 17.85 5.25 14.9 10.2 7.65 15.2 0.5 32.25 0.5 M42.0 20.7 L30.6 37.15 16.85 37.15" fill="none" stroke="#3e88d2" stroke-linecap="round" stroke-linejoin="round" stroke-width="0.05"/>
    <path d="M46.3 20.8 L32.25 41.0 15.15 41.0 M5.45 20.7 L16.8 4.3 30.65 4.3" fill="none" stroke="#0c2236" stroke-linecap="round" stroke-linejoin="round" stroke-width="0.05"/>
    <path d="M32.25 0.5 L46.3 20.8 M30.65 4.3 L42.0 20.7 M16.85 37.15 L5.45 20.7" fill="none" stroke="#1c4d7b" stroke-linecap="round" stroke-linejoin="round" stroke-width="0.05"/>
    <path d="M15.15 41.0 L1.2 20.85 Z" fill="none" stroke="#1b4876" stroke-linecap="round" stroke-linejoin="round" stroke-width="0.05"/>
  </g>
  <defs>
    <radialGradient cx="0" cy="0" gradientTransform="matrix(-0.0216, -0.0181, -0.0107, 0.0268, 19.9, 17.4)" gradientUnits="userSpaceOnUse" id="gradient0" r="819.2" spreadMethod="pad">
      <stop offset="0.0" stop-color="#afd80e"/>
      <stop offset="1.0" stop-color="#33740c"/>
    </radialGradient>
  </defs>
</svg>
