<?xml version="1.0" encoding="UTF-8" standalone="no"?>
<svg xmlns:xlink="http://www.w3.org/1999/xlink" height="45.5px" width="49.3px" xmlns="http://www.w3.org/2000/svg">
  <g transform="matrix(1.0, 0.0, 0.0, 1.0, 0.0, 0.0)">
    <path d="M10.2 7.7 L15.35 0.0 34.0 0.0 49.3 22.75 33.95 45.5 15.35 45.5 0.0 22.75 1.2 20.9 15.15 41.05 32.25 41.05 46.3 20.85 32.25 0.55 15.2 0.55 10.2 7.7" fill="#000000" fill-opacity="0.28235295" fill-rule="evenodd" stroke="none"/>
    <path d="M1.2 20.9 L1.15 20.85 3.2 17.9 5.25 14.95 10.2 7.7 15.2 0.55 32.25 0.55 46.3 20.85 32.25 41.05 15.15 41.05 1.2 20.9 M30.65 4.35 L16.8 4.35 5.45 20.75 16.85 37.2 30.6 37.2 42.0 20.75 30.65 4.35" fill="#331a35" fill-rule="evenodd" stroke="none"/>
    <path d="M5.45 20.75 L16.8 4.35 30.65 4.35 42.0 20.75 30.6 37.2 16.85 37.2 5.45 20.75" fill="url(#gradient0)" fill-rule="evenodd" stroke="none"/>
    <path d="M46.3 20.85 L32.25 41.05 15.15 41.05 M5.45 20.75 L16.8 4.35 30.65 4.35" fill="none" stroke="#3a1b3a" stroke-linecap="round" stroke-linejoin="round" stroke-width="0.05"/>
    <path d="M1.2 20.9 L1.15 20.85 M32.25 0.55 L46.3 20.85 M15.15 41.05 L1.2 20.9" fill="none" stroke="#5c3265" stroke-linecap="round" stroke-linejoin="round" stroke-width="0.05"/>
    <path d="M1.15 20.85 L3.2 17.9 5.25 14.95 10.2 7.7 15.2 0.55 32.25 0.55 M42.0 20.75 L30.6 37.2 16.85 37.2" fill="none" stroke="#9650a3" stroke-linecap="round" stroke-linejoin="round" stroke-width="0.05"/>
    <path d="M30.65 4.35 L42.0 20.75 M16.85 37.2 L5.45 20.75" fill="none" stroke="#7c3870" stroke-linecap="round" stroke-linejoin="round" stroke-width="0.05"/>
  </g>
  <defs>
    <radialGradient cx="0" cy="0" gradientTransform="matrix(-0.0216, -0.0181, -0.0107, 0.0268, 19.9, 17.4)" gradientUnits="userSpaceOnUse" id="gradient0" r="819.2" spreadMethod="pad">
      <stop offset="0.0" stop-color="#afd80e"/>
      <stop offset="1.0" stop-color="#33740c"/>
    </radialGradient>
  </defs>
</svg>
