<?xml version="1.0" encoding="UTF-8" standalone="no"?>
<svg xmlns:xlink="http://www.w3.org/1999/xlink" height="81.9px" width="58.0px" xmlns="http://www.w3.org/2000/svg">
  <g transform="matrix(1.0, 0.0, 0.0, 1.0, 29.0, 40.95)">
    <path d="M19.1 -40.95 Q27.15 -41.15 28.7 -36.0 L29.0 -34.4 29.0 32.7 Q29.1 34.55 28.7 36.0 27.15 41.15 19.1 40.95 L-19.05 40.95 Q-27.15 41.15 -28.65 36.05 -29.05 34.6 -28.95 32.7 L-29.0 -33.7 -28.65 -36.0 Q-27.2 -40.9 -19.85 -40.95 L19.1 -40.95 M17.75 -38.9 L4.7 -38.9 4.7 -38.85 -18.45 -38.9 Q-25.2 -38.8 -26.5 -34.2 -26.9 -32.85 -26.8 -31.05 L-26.85 30.35 Q-26.8 33.25 -26.55 34.25 -26.2 35.45 -25.45 36.35 L-25.4 36.4 -25.3 36.5 -23.95 37.65 Q-22.5 38.55 -20.2 38.85 L-18.5 38.95 -13.5 38.95 -13.5 38.9 18.55 38.9 Q25.25 38.8 26.6 34.2 26.85 33.25 26.9 30.35 L26.9 -31.0 26.85 -32.7 26.6 -34.2 Q25.2 -39.1 17.75 -38.9" fill="#ffffff" fill-rule="evenodd" stroke="none"/>
  </g>
</svg>
