<?xml version="1.0" encoding="UTF-8" standalone="no"?>
<svg xmlns:xlink="http://www.w3.org/1999/xlink" height="26.95px" width="9.0px" xmlns="http://www.w3.org/2000/svg">
  <g transform="matrix(1.0, 0.0, 0.0, 1.0, 4.5, 13.6)">
    <path d="M1.4 -0.85 L1.55 -0.6 1.8 -0.2 1.85 -0.1 Q2.35 0.55 3.0 0.55 L3.15 0.55 3.15 1.0 3.2 1.9 3.2 2.2 Q3.15 4.65 2.6 6.25 1.35 10.1 -2.75 9.35 L-2.95 6.25 -3.35 -0.55 -3.35 -0.8 -3.4 -1.2 -3.15 -0.65 -2.75 -0.2 Q-2.1 0.55 -1.25 0.6 -0.4 0.55 0.15 -0.1 L0.2 -0.15 0.5 -0.55 0.6 -0.75 1.4 -0.85" fill="#8db7c0" fill-rule="evenodd" stroke="none"/>
    <path d="M2.8 -4.2 L2.9 -4.2 Q3.4 -4.15 3.85 -3.55 L4.0 -3.3 4.4 -1.95 4.35 -1.3 4.2 -0.55 4.05 -0.45 3.15 0.2 Q2.65 0.2 2.3 -0.15 L2.05 -0.4 1.95 -0.6 1.8 -0.95 1.6 -1.95 Q1.5 -2.4 1.55 -2.75 L1.8 -3.45 1.85 -3.55 Q2.2 -4.2 2.8 -4.2 M1.35 -3.35 L1.2 -2.7 1.2 -1.95 1.4 -0.85 0.6 -0.75 0.7 -1.95 0.55 -2.7 0.35 -3.2 1.35 -3.35 M3.3 -3.2 Q3.1 -3.2 3.05 -3.05 L3.05 -3.0 3.0 -2.9 3.0 -2.7 3.05 -2.55 3.1 -2.35 Q3.2 -2.25 3.4 -2.25 L3.65 -2.35 3.75 -2.65 3.55 -3.05 3.55 -3.15 3.3 -3.2 M0.2 -1.9 L0.05 -0.75 -0.05 -0.6 -0.15 -0.4 -0.45 -0.1 -1.45 0.25 Q-2.2 0.2 -2.75 -0.45 L-2.95 -0.55 -3.3 -1.3 -3.4 -1.65 -3.45 -2.0 -3.45 -2.5 -3.15 -3.35 -3.0 -3.6 -2.85 -3.75 Q-2.4 -4.25 -1.75 -4.2 -1.0 -4.2 -0.4 -3.55 L-0.1 -3.15 0.1 -2.7 0.2 -1.9 M-3.4 -1.2 L-3.35 -0.8 -3.85 -1.25 -4.0 -1.4 -4.3 -2.05 -4.45 -2.7 -4.2 -4.1 -4.1 -4.4 -3.55 -5.05 -3.55 -4.5 -2.95 -3.85 -3.0 -3.8 -3.3 -3.35 -3.45 -2.9 -3.55 -2.05 -3.55 -1.95 -3.4 -1.35 -3.4 -1.25 -3.4 -1.2 M-2.2 -3.25 L-2.5 -3.2 -2.55 -3.1 -2.7 -2.7 -2.55 -2.4 -2.2 -2.3 Q-1.95 -2.25 -1.85 -2.4 L-1.75 -2.7 -1.85 -3.0 -1.9 -3.05 Q-2.0 -3.25 -2.2 -3.25 M-3.5 -4.15 L-3.7 -4.05 -3.75 -3.95 -3.85 -3.55 -3.75 -3.25 -3.45 -3.2 -3.5 -4.15 -3.55 -4.5 -3.5 -4.15 M-3.45 -3.2 L-3.45 -2.9 -3.45 -3.2" fill="#d7ebfd" fill-rule="evenodd" stroke="none"/>
    <path d="M2.8 -4.2 Q2.2 -4.2 1.85 -3.55 L1.8 -3.45 1.55 -2.75 Q1.5 -2.4 1.6 -1.95 L1.8 -0.95 1.95 -0.6 2.05 -0.4 2.3 -0.15 Q2.65 0.2 3.15 0.2 L4.05 -0.45 4.2 -0.55 4.35 -1.3 4.4 -1.95 4.0 -3.3 3.85 -3.55 Q3.4 -4.15 2.9 -4.2 L2.8 -4.2 M2.85 -4.5 L3.85 -3.75 4.1 -3.3 4.45 -2.0 4.5 -1.9 4.45 -1.35 4.45 -1.25 4.35 -0.65 4.1 -0.2 Q3.7 0.45 3.15 0.55 L3.0 0.55 Q2.35 0.55 1.85 -0.1 L1.8 -0.2 1.55 -0.6 1.4 -0.85 1.2 -1.95 1.2 -2.7 1.35 -3.35 1.55 -3.75 Q1.95 -4.55 2.65 -4.5 L2.85 -4.5 M3.2 2.2 L3.15 6.25 3.05 7.7 2.8 11.8 Q0.4 14.85 -2.55 11.95 L-2.75 9.35 Q1.35 10.1 2.6 6.25 3.15 4.65 3.2 2.2 M-3.35 -0.55 L-3.85 -1.0 -4.15 -1.45 -4.35 -2.0 -4.4 -2.1 -4.5 -2.7 -4.5 -2.75 -4.3 -4.1 -4.1 -4.6 -3.55 -5.3 -3.55 -5.05 -4.1 -4.4 -4.2 -4.1 -4.45 -2.7 -4.3 -2.05 -4.0 -1.4 -3.85 -1.25 -3.35 -0.8 -3.35 -0.55 M0.35 -3.2 L0.55 -2.7 0.7 -1.95 0.6 -0.75 0.5 -0.55 0.2 -0.15 0.15 -0.1 Q-0.4 0.55 -1.25 0.6 -2.1 0.55 -2.75 -0.2 L-3.15 -0.65 -3.4 -1.2 -3.4 -1.25 -3.4 -1.35 -3.55 -1.95 -3.55 -2.05 -3.45 -2.9 -3.3 -3.35 -3.0 -3.8 -2.95 -3.85 Q-2.4 -4.55 -1.6 -4.55 -0.7 -4.55 0.0 -3.75 L0.35 -3.2 M0.2 -1.9 L0.1 -2.7 -0.1 -3.15 -0.4 -3.55 Q-1.0 -4.2 -1.75 -4.2 -2.4 -4.25 -2.85 -3.75 L-3.0 -3.6 -3.15 -3.35 -3.45 -2.5 -3.45 -2.0 -3.4 -1.65 -3.3 -1.3 -2.95 -0.55 -2.75 -0.45 Q-2.2 0.2 -1.45 0.25 L-0.45 -0.1 -0.15 -0.4 -0.05 -0.6 0.05 -0.75 0.2 -1.9" fill="#59929f" fill-rule="evenodd" stroke="none"/>
    <path d="M3.3 -3.2 L3.55 -3.15 3.55 -3.05 3.75 -2.65 3.65 -2.35 3.4 -2.25 Q3.2 -2.25 3.1 -2.35 L3.05 -2.55 3.0 -2.7 3.0 -2.9 3.05 -3.0 3.05 -3.05 Q3.1 -3.2 3.3 -3.2 M-2.2 -3.25 Q-2.0 -3.25 -1.9 -3.05 L-1.85 -3.0 -1.75 -2.7 -1.85 -2.4 Q-1.95 -2.25 -2.2 -2.3 L-2.55 -2.4 -2.7 -2.7 -2.55 -3.1 -2.5 -3.2 -2.2 -3.25 M-3.45 -3.2 L-3.75 -3.25 -3.85 -3.55 -3.75 -3.95 -3.7 -4.05 -3.5 -4.15 -3.45 -3.2" fill="#ffffff" fill-rule="evenodd" stroke="none"/>
    <path d="M2.85 -4.5 L2.65 -4.5 Q1.95 -4.55 1.55 -3.75 L1.35 -3.35 0.35 -3.2 0.0 -3.75 Q-0.7 -4.55 -1.6 -4.55 -2.4 -4.55 -2.95 -3.85 L-3.55 -4.5 -3.55 -5.05 -3.55 -5.3 -3.75 -8.8 Q-3.65 -12.2 -2.2 -13.55 0.3 -14.0 1.75 -9.3 2.5 -6.85 2.85 -4.5" fill="#c0ab98" fill-rule="evenodd" stroke="none"/>
    <path d="M0.35 -3.2 L1.35 -3.35 M-3.55 -4.5 L-2.95 -3.85 M-3.45 -3.2 L-3.5 -4.15 -3.55 -4.5 M-3.45 -2.9 L-3.45 -3.2" fill="none" stroke="#44534d" stroke-linecap="round" stroke-linejoin="round" stroke-width="0.05"/>
    <path d="M3.15 0.55 L3.15 1.0 3.2 1.9 3.2 2.2 3.15 6.25 3.05 7.7 2.8 11.8 Q0.4 14.85 -2.55 11.95 L-2.75 9.35 -2.95 6.25 -3.35 -0.55 -3.35 -0.8 -3.4 -1.2 M0.6 -0.75 L1.4 -0.85" fill="none" stroke="#305054" stroke-linecap="round" stroke-linejoin="round" stroke-width="0.05"/>
    <path d="M3.15 0.55 Q3.7 0.45 4.1 -0.2 L4.35 -0.65 4.45 -1.25 4.45 -1.35 4.5 -1.9 4.45 -2.0 4.1 -3.3 3.85 -3.75 2.85 -4.5 2.65 -4.5 Q1.95 -4.55 1.55 -3.75 L1.35 -3.35 1.2 -2.7 1.2 -1.95 1.4 -0.85 1.55 -0.6 1.8 -0.2 1.85 -0.1 Q2.35 0.55 3.0 0.55 L3.15 0.55 M-3.35 -0.55 L-3.85 -1.0 -4.15 -1.45 -4.35 -2.0 -4.4 -2.1 -4.5 -2.7 -4.5 -2.75 -4.3 -4.1 -4.1 -4.6 -3.55 -5.3 M0.35 -3.2 L0.55 -2.7 0.7 -1.95 0.6 -0.75 0.5 -0.55 0.2 -0.15 0.15 -0.1 Q-0.4 0.55 -1.25 0.6 -2.1 0.55 -2.75 -0.2 L-3.15 -0.65 -3.4 -1.2 -3.4 -1.25 -3.4 -1.35 -3.55 -1.95 -3.55 -2.05 -3.45 -2.9 -3.3 -3.35 -3.0 -3.8 -2.95 -3.85 Q-2.4 -4.55 -1.6 -4.55 -0.7 -4.55 0.0 -3.75 L0.35 -3.2" fill="none" stroke="#b03573" stroke-linecap="round" stroke-linejoin="round" stroke-width="0.05"/>
    <path d="M-3.55 -5.3 L-3.75 -8.8 Q-3.65 -12.2 -2.2 -13.55 0.3 -14.0 1.75 -9.3 2.5 -6.85 2.85 -4.5 M-3.55 -5.3 L-3.55 -5.05 -3.55 -4.5" fill="none" stroke="#8a6b55" stroke-linecap="round" stroke-linejoin="round" stroke-width="0.05"/>
  </g>
</svg>
