<?xml version="1.0" encoding="UTF-8" standalone="no"?>
<svg xmlns:xlink="http://www.w3.org/1999/xlink" height="27.2px" width="8.75px" xmlns="http://www.w3.org/2000/svg">
  <g transform="matrix(1.0, 0.0, 0.0, 1.0, 4.4, 13.6)">
    <path d="M-3.8 6.5 Q4.55 11.15 3.05 -3.9 3.7 -1.0 3.95 1.65 4.4 6.7 4.35 12.4 4.4 13.75 0.95 13.6 -1.95 13.15 -4.4 11.0 -4.05 9.4 -3.85 7.35 L-3.8 6.5" fill="#cccccc" fill-rule="evenodd" stroke="none"/>
    <path d="M-3.8 6.5 Q-3.3 0.65 -3.75 -8.8 -3.65 -12.2 -2.2 -13.55 0.3 -14.0 1.5 -9.45 L3.05 -3.9 Q4.55 11.15 -3.8 6.5" fill="#ffffff" fill-rule="evenodd" stroke="none"/>
    <path d="M3.05 -3.9 L1.5 -9.45 Q0.3 -14.0 -2.2 -13.55 -3.65 -12.2 -3.75 -8.8 -3.3 0.65 -3.8 6.5 L-3.85 7.35 Q-4.05 9.4 -4.4 11.0 -1.95 13.15 0.95 13.6 4.4 13.75 4.35 12.4 4.4 6.7 3.95 1.65 3.7 -1.0 3.05 -3.9 Z" fill="none" stroke="#666666" stroke-linecap="round" stroke-linejoin="round" stroke-width="0.05"/>
  </g>
</svg>
