<?xml version="1.0" encoding="UTF-8" standalone="no"?>
<svg xmlns:xlink="http://www.w3.org/1999/xlink" height="26.5px" width="8.4px" xmlns="http://www.w3.org/2000/svg">
  <g transform="matrix(1.0, 0.0, 0.0, 1.0, 5.1, 13.95)">
    <path d="M2.85 9.7 Q3.7 10.6 3.0 11.45 2.25 12.3 -0.45 12.55 -3.15 12.75 -3.0 9.65 -2.85 6.55 -3.65 2.2 -6.1 -7.75 -4.45 -11.3 -2.8 -14.85 -1.0 -13.65 0.8 -12.55 2.1 -8.35 3.35 -4.35 2.95 0.4 2.15 9.0 2.85 9.7" fill="#ffffff" fill-rule="evenodd" stroke="none"/>
    <path d="M2.85 9.7 Q2.15 9.0 2.95 0.4 3.35 -4.35 2.1 -8.35 0.8 -12.55 -1.0 -13.65 -2.8 -14.85 -4.45 -11.3 -6.1 -7.75 -3.65 2.2 -2.85 6.55 -3.0 9.65 -3.15 12.75 -0.45 12.55 2.25 12.3 3.0 11.45 3.7 10.6 2.85 9.7 Z" fill="none" stroke="#a0a0a0" stroke-linecap="round" stroke-linejoin="round" stroke-width="0.05"/>
  </g>
</svg>
