<?xml version="1.0" encoding="UTF-8" standalone="no"?>
<svg xmlns:xlink="http://www.w3.org/1999/xlink" height="26.65px" width="9.55px" xmlns="http://www.w3.org/2000/svg">
  <g transform="matrix(1.0, 0.0, 0.0, 1.0, 4.65, 13.95)">
    <path d="M-3.3 -5.3 L-3.8 -9.1 Q-3.7 -12.55 -2.25 -13.9 0.3 -14.4 1.5 -9.75 L2.1 -7.15 2.5 -5.05 2.55 -4.45 1.15 -3.95 -1.5 -4.15 -1.55 -4.15 -2.45 -4.35 Q-2.95 -4.5 -3.3 -5.3 M-1.5 -4.15 L-1.55 -4.2 -1.5 -4.15" fill="#3c4147" fill-rule="evenodd" stroke="none"/>
    <path d="M-1.55 -4.15 L-1.5 -4.15 -1.55 -4.15" fill="#b6b6b6" fill-rule="evenodd" stroke="none"/>
    <path d="M-1.55 -4.15 L-1.5 -4.15 -1.55 -4.2 -1.5 -4.15 -1.55 -4.15" fill="#ffdfc8" fill-rule="evenodd" stroke="none"/>
    <path d="M-3.3 -5.3 Q-2.95 -4.5 -2.45 -4.35 L-1.55 -4.15 -1.5 -4.15 1.15 -3.95 2.55 -4.45 2.5 -5.05 Q3.3 -4.6 3.95 -3.75 L4.9 -2.45 4.6 -1.35 4.05 -0.7 Q3.7 -0.35 3.05 -0.1 L-2.3 -0.3 -2.1 11.8 -2.6 10.55 -2.9 7.15 -2.95 -0.75 -3.75 -1.5 -4.3 -2.35 -4.65 -3.25 Q-4.4 -4.6 -3.3 -5.3 M-2.3 -0.3 L-2.95 -0.75 -2.3 -0.3" fill="#2c5841" fill-rule="evenodd" stroke="none"/>
    <path d="M3.05 -0.1 L3.1 0.65 3.35 7.15 Q3.45 11.15 2.6 11.8 1.55 12.55 0.65 12.7 L-0.95 12.5 -1.95 11.9 -2.1 11.8 -2.3 -0.3 3.05 -0.1" fill="#45916e" fill-rule="evenodd" stroke="none"/>
    <path d="M2.5 -5.05 L2.1 -7.15 1.5 -9.75 Q0.3 -14.4 -2.25 -13.9 -3.7 -12.55 -3.8 -9.1 L-3.3 -5.3 Q-2.95 -4.5 -2.45 -4.35 L-1.55 -4.15 -1.5 -4.15 1.15 -3.95 2.55 -4.45 2.5 -5.05 Q3.3 -4.6 3.95 -3.75 L4.9 -2.45 4.6 -1.35 4.05 -0.7 Q3.7 -0.35 3.05 -0.1 L3.1 0.65 3.35 7.15 Q3.45 11.15 2.6 11.8 1.55 12.55 0.65 12.7 L-0.95 12.5 -1.95 11.9 -2.1 11.8 -2.6 10.55 -2.9 7.15 -2.95 -0.75 -3.75 -1.5 -4.3 -2.35 -4.65 -3.25 Q-4.4 -4.6 -3.3 -5.3 M-1.5 -4.15 L-1.55 -4.15 M-2.95 -0.75 L-2.3 -0.3 3.05 -0.1" fill="none" stroke="#48664c" stroke-linecap="round" stroke-linejoin="round" stroke-width="0.05"/>
  </g>
</svg>
