<?xml version="1.0" encoding="UTF-8" standalone="no"?>
<svg xmlns:xlink="http://www.w3.org/1999/xlink" height="240.0px" width="170.05px" xmlns="http://www.w3.org/2000/svg">
  <g transform="matrix(1.0, 0.0, 0.0, 1.0, 0.15, 0.0)">
    <path d="M162.7 19.75 Q158.6 5.5 136.85 6.05 L98.6 6.05 30.75 6.0 Q10.95 6.2 7.1 19.75 5.95 23.8 6.2 29.0 L6.15 191.45 6.2 208.9 Q6.25 217.45 7.05 220.3 8.1 223.9 10.25 226.55 L10.3 226.65 10.6 227.0 Q12.3 228.9 14.6 230.35 18.95 232.95 25.6 233.75 L30.55 234.05 45.3 234.05 45.3 234.0 139.25 234.0 Q158.85 233.7 162.7 220.25 163.5 217.4 163.6 208.85 L163.7 29.1 163.5 24.1 162.7 19.75 M168.9 14.45 Q169.55 16.65 169.8 19.25 L169.85 215.75 Q170.15 221.25 168.9 225.5 164.45 240.55 140.75 239.95 L45.3 240.0 29.0 240.0 Q5.3 240.6 0.85 225.55 -0.4 221.3 -0.1 215.8 L-0.05 191.45 -0.1 21.3 Q0.0 17.55 0.9 14.45 5.1 0.2 26.6 0.0 L140.75 0.0 Q164.45 -0.6 168.9 14.45" fill="#ffffff" fill-rule="evenodd" stroke="none"/>
    <path d="M162.7 19.75 L163.5 24.1 163.7 29.1 163.6 208.85 Q163.5 217.4 162.7 220.25 158.85 233.7 139.25 234.0 L45.3 234.0 45.3 234.05 30.55 234.05 25.6 233.75 Q18.95 232.95 14.6 230.35 12.3 228.9 10.6 227.0 L10.3 226.65 10.25 226.55 Q8.1 223.9 7.05 220.3 6.25 217.45 6.2 208.9 L6.15 191.45 6.2 29.0 Q5.95 23.8 7.1 19.75 10.95 6.2 30.75 6.0 L98.6 6.05 136.85 6.05 Q158.6 5.5 162.7 19.75" fill="url(#gradient0)" fill-rule="evenodd" stroke="none"/>
  </g>
  <defs>
    <linearGradient gradientTransform="matrix(0.0027, -0.1917, 0.1392, 0.002, 73.15, 113.9)" gradientUnits="userSpaceOnUse" id="gradient0" spreadMethod="pad" x1="-819.2" x2="819.2">
      <stop offset="0.12941176470588237" stop-color="#1f344e"/>
      <stop offset="0.8" stop-color="#849ffb"/>
    </linearGradient>
  </defs>
</svg>
