<?xml version="1.0" encoding="UTF-8" standalone="no"?>
<svg xmlns:xlink="http://www.w3.org/1999/xlink" height="26.45px" width="7.15px" xmlns="http://www.w3.org/2000/svg">
  <g transform="matrix(1.0, 0.0, 0.0, 1.0, 4.0, 13.6)">
    <path d="M-3.75 -11.05 Q-3.3 -13.45 -1.7 -13.6 -0.65 -13.7 0.1 -12.75 L1.6 -10.25 Q3.15 -5.85 3.15 -2.25 L3.05 -1.0 Q2.65 -0.1 2.65 7.25 L2.65 12.35 -0.7 12.7 -1.0 7.25 Q-1.4 2.45 -2.1 -2.25 -2.8 -6.7 -3.75 -11.05" fill="#454b3f" fill-rule="evenodd" stroke="none"/>
    <path d="M-0.7 12.7 L-1.5 12.35 -1.95 7.25 -3.0 -2.25 -4.0 -8.6 -3.75 -11.05 Q-2.8 -6.7 -2.1 -2.25 -1.4 2.45 -1.0 7.25 L-0.7 12.7" fill="#877b51" fill-rule="evenodd" stroke="none"/>
    <path d="M-3.75 -11.05 Q-3.3 -13.45 -1.7 -13.6 -0.65 -13.7 0.1 -12.75 L1.6 -10.25 Q3.15 -5.85 3.15 -2.25 L3.05 -1.0 Q2.65 -0.1 2.65 7.25 L2.65 12.35 M-1.5 12.35 L-1.95 7.25 -3.0 -2.25 -4.0 -8.6 -3.75 -11.05 Z" fill="none" stroke="#000000" stroke-linecap="round" stroke-linejoin="round" stroke-width="0.05"/>
  </g>
</svg>
