<?xml version="1.0" encoding="UTF-8" standalone="no"?>
<svg xmlns:xlink="http://www.w3.org/1999/xlink" height="30.6px" width="30.6px" xmlns="http://www.w3.org/2000/svg">
  <g transform="matrix(1.0, 0.0, 0.0, 1.0, 3.7, 3.7)">
    <path d="M3.6 3.6 Q6.9 0.3 11.6 0.3 16.3 0.3 19.6 3.6 22.9 6.9 22.9 11.6 22.9 16.3 19.6 19.6 16.3 22.9 11.6 22.9 6.9 22.9 3.6 19.6 0.3 16.3 0.3 11.6 0.3 6.9 3.6 3.6" fill="#ffffff" fill-rule="evenodd" stroke="none"/>
    <path d="M22.45 22.45 Q17.95 26.9 11.6 26.9 5.25 26.9 0.8 22.45 -3.7 17.95 -3.7 11.6 -3.7 5.25 0.8 0.8 5.25 -3.7 11.6 -3.7 17.95 -3.7 22.45 0.8 26.9 5.25 26.9 11.6 26.9 17.95 22.45 22.45 M24.9 11.6 Q24.9 6.1 21.05 2.2 L21.0 2.2 Q17.1 -1.7 11.6 -1.7 6.1 -1.7 2.2 2.2 -1.7 6.1 -1.7 11.6 -1.7 17.1 2.2 21.0 L2.2 21.05 Q6.1 24.9 11.6 24.9 17.1 24.9 21.0 21.05 L21.05 21.0 Q24.9 17.1 24.9 11.6" fill="#ffffff" fill-opacity="0.32941177" fill-rule="evenodd" stroke="none"/>
    <path d="M24.9 11.6 Q24.9 17.1 21.05 21.0 L21.0 21.05 Q17.1 24.9 11.6 24.9 6.1 24.9 2.2 21.05 L2.2 21.0 Q-1.7 17.1 -1.7 11.6 -1.7 6.1 2.2 2.2 6.1 -1.7 11.6 -1.7 17.1 -1.7 21.0 2.2 L21.05 2.2 Q24.9 6.1 24.9 11.6 M3.6 3.6 Q0.3 6.9 0.3 11.6 0.3 16.3 3.6 19.6 6.9 22.9 11.6 22.9 16.3 22.9 19.6 19.6 22.9 16.3 22.9 11.6 22.9 6.9 19.6 3.6 16.3 0.3 11.6 0.3 6.9 0.3 3.6 3.6" fill="#ffffff" fill-opacity="0.6627451" fill-rule="evenodd" stroke="none"/>
  </g>
</svg>
