<?xml version="1.0" encoding="UTF-8" standalone="no"?>
<svg xmlns:xlink="http://www.w3.org/1999/xlink" height="38.25px" width="38.25px" xmlns="http://www.w3.org/2000/svg">
  <g transform="matrix(1.0, 0.0, 0.0, 1.0, 7.5, 7.5)">
    <path d="M25.75 11.65 Q25.75 17.5 21.65 21.65 17.5 25.75 11.65 25.75 5.75 25.75 1.65 21.65 -2.5 17.5 -2.5 11.65 -2.5 5.75 1.65 1.65 5.75 -2.5 11.65 -2.5 17.5 -2.5 21.65 1.65 25.75 5.75 25.75 11.65" fill="#481717" fill-rule="evenodd" stroke="none"/>
    <path d="M23.4 -0.1 L23.4 -0.15 Q18.5 -5.0 11.65 -5.0 4.75 -5.0 -0.1 -0.15 L-0.15 -0.1 Q-5.0 4.75 -5.0 11.65 -5.0 18.5 -0.15 23.4 L-0.1 23.4 Q4.75 28.25 11.65 28.25 18.5 28.25 23.4 23.4 28.25 18.5 28.25 11.65 28.25 4.75 23.4 -0.1 M25.15 -1.9 Q30.75 3.7 30.75 11.65 30.75 19.55 25.15 25.15 19.55 30.75 11.65 30.75 3.7 30.75 -1.9 25.15 -7.5 19.55 -7.5 11.65 -7.5 3.7 -1.9 -1.9 3.7 -7.5 11.65 -7.5 19.55 -7.5 25.15 -1.9" fill="#481717" fill-opacity="0.32941177" fill-rule="evenodd" stroke="none"/>
    <path d="M23.4 -0.1 Q28.25 4.75 28.25 11.65 28.25 18.5 23.4 23.4 18.5 28.25 11.65 28.25 4.75 28.25 -0.1 23.4 L-0.15 23.4 Q-5.0 18.5 -5.0 11.65 -5.0 4.75 -0.15 -0.1 L-0.1 -0.15 Q4.75 -5.0 11.65 -5.0 18.5 -5.0 23.4 -0.15 L23.4 -0.1 M25.75 11.65 Q25.75 5.75 21.65 1.65 17.5 -2.5 11.65 -2.5 5.75 -2.5 1.65 1.65 -2.5 5.75 -2.5 11.65 -2.5 17.5 1.65 21.65 5.75 25.75 11.65 25.75 17.5 25.75 21.65 21.65 25.75 17.5 25.75 11.65" fill="#481717" fill-opacity="0.6627451" fill-rule="evenodd" stroke="none"/>
  </g>
</svg>
