<?xml version="1.0" encoding="UTF-8" standalone="no"?>
<svg xmlns:xlink="http://www.w3.org/1999/xlink" height="17.3px" width="13.0px" xmlns="http://www.w3.org/2000/svg">
  <g transform="matrix(1.0, 0.0, 0.0, 1.0, 6.3, 6.95)">
    <path d="M6.1 -0.55 L2.35 2.4 2.35 3.45 Q2.35 4.2 1.7 4.7 L0.2 5.15 Q-0.6 5.15 -1.25 4.7 -1.95 4.2 -1.95 3.45 L-1.95 1.7 Q-1.95 0.95 -1.35 0.45 L2.35 -2.5 2.35 -3.5 -4.15 -3.5 Q-4.95 -3.5 -5.6 -4.0 -6.3 -4.5 -6.3 -5.25 -6.3 -6.05 -5.6 -6.5 L-4.15 -6.95 4.55 -6.95 Q5.35 -6.95 6.05 -6.5 6.7 -6.05 6.7 -5.25 L6.7 -1.75 Q6.7 -1.05 6.1 -0.55 M0.2 10.35 Q-0.6 10.35 -1.25 9.9 -1.95 9.4 -1.95 8.65 -1.95 7.85 -1.25 7.35 -0.6 6.9 0.2 6.9 1.05 6.9 1.65 7.35 2.35 7.85 2.35 8.65 2.35 9.4 1.7 9.9 L0.2 10.35" fill="#481717" fill-rule="evenodd" stroke="none"/>
  </g>
</svg>
