<?xml version="1.0" encoding="UTF-8" standalone="no"?>
<svg xmlns:xlink="http://www.w3.org/1999/xlink" height="17.3px" width="13.0px" xmlns="http://www.w3.org/2000/svg">
  <g transform="matrix(1.0, 0.0, 0.0, 1.0, -1.75, -2.2)">
    <path d="M14.75 7.4 Q14.75 8.1 14.15 8.6 L10.4 11.55 10.4 12.6 Q10.4 13.35 9.75 13.85 L8.25 14.3 6.8 13.85 Q6.1 13.35 6.1 12.6 L6.1 10.85 Q6.1 10.1 6.7 9.6 L10.4 6.65 10.4 5.65 3.9 5.65 Q3.1 5.65 2.45 5.15 1.75 4.65 1.75 3.9 1.75 3.1 2.45 2.65 3.1 2.2 3.9 2.2 L12.6 2.2 Q13.4 2.2 14.1 2.65 14.75 3.1 14.75 3.9 L14.75 7.4 M9.7 16.5 Q10.4 17.0 10.4 17.8 10.4 18.55 9.75 19.05 L8.25 19.5 6.8 19.05 Q6.1 18.55 6.1 17.8 6.1 17.0 6.8 16.5 7.45 16.05 8.25 16.05 9.1 16.05 9.7 16.5" fill="#ffffff" fill-rule="evenodd" stroke="none"/>
  </g>
</svg>
