<?xml version="1.0" encoding="UTF-8" standalone="no"?>
<svg xmlns:xlink="http://www.w3.org/1999/xlink" height="30.4px" width="30.25px" xmlns="http://www.w3.org/2000/svg">
  <g transform="matrix(1.0, 0.0, 0.0, 1.0, 15.2, 15.0)">
    <path d="M-7.5 6.15 L12.25 -14.25 15.05 -15.0 14.25 -12.2 -6.1 7.45 Q-6.2 6.95 -6.55 6.6 -6.95 6.2 -7.5 6.15" fill="url(#gradient0)" fill-rule="evenodd" stroke="none"/>
    <path d="M-6.1 7.45 L-6.0 7.9 Q-5.05 8.25 -4.25 8.9 L-3.7 9.45 -3.45 9.4 Q-3.0 9.4 -2.7 9.75 -2.4 10.05 -2.4 10.5 -2.4 10.9 -2.7 11.25 L-3.2 11.75 Q-3.85 12.7 -4.95 12.65 L-4.45 11.4 Q-4.75 10.6 -5.35 10.0 -5.8 9.45 -6.45 9.05 L-6.55 9.15 Q-7.1 9.65 -7.8 9.65 L-8.25 9.65 Q-8.75 9.5 -9.1 9.15 L-9.55 8.4 -9.6 7.9 Q-9.65 7.25 -9.25 6.8 L-9.1 6.6 -9.0 6.55 -9.95 5.4 Q-10.6 4.75 -11.4 4.45 L-12.6 4.95 Q-12.65 3.85 -11.7 3.25 L-11.2 2.7 -10.45 2.4 Q-10.0 2.4 -9.7 2.75 -9.4 3.0 -9.4 3.45 L-9.45 3.75 -8.9 4.3 -7.8 6.1 -7.5 6.15 Q-6.95 6.2 -6.55 6.6 -6.2 6.95 -6.1 7.45" fill="url(#gradient1)" fill-rule="evenodd" stroke="none"/>
    <path d="M-8.25 9.65 L-9.65 10.85 -10.2 9.2 -9.55 8.4 -9.1 9.15 Q-8.75 9.5 -8.25 9.65" fill="url(#gradient2)" fill-rule="evenodd" stroke="none"/>
    <path d="M-9.65 10.85 L-10.7 11.9 -11.45 10.55 -10.2 9.2 -9.65 10.85" fill="url(#gradient3)" fill-rule="evenodd" stroke="none"/>
    <path d="M-10.7 11.9 L-11.6 12.85 -12.9 11.9 -11.45 10.55 -10.7 11.9" fill="url(#gradient4)" fill-rule="evenodd" stroke="none"/>
    <path d="M-11.6 12.85 L-12.2 13.7 -13.75 12.6 -12.9 11.9 -11.6 12.85" fill="url(#gradient5)" fill-rule="evenodd" stroke="none"/>
    <path d="M-12.9 14.5 L-12.65 14.75 -13.85 15.4 -14.95 15.1 -15.2 14.0 -14.6 12.8 -14.35 13.05 -12.9 14.5" fill="url(#gradient6)" fill-rule="evenodd" stroke="none"/>
    <path d="M-12.2 13.7 L-12.9 14.5 -14.35 13.05 -13.75 12.6 -12.2 13.7" fill="url(#gradient7)" fill-rule="evenodd" stroke="none"/>
    <path d="M-8.25 9.65 L-9.65 10.85 -10.7 11.9 -11.6 12.85 -12.2 13.7 -12.9 14.5 -12.65 14.75 -13.85 15.4 -14.95 15.1 -15.2 14.0 -14.6 12.8 -14.35 13.05 -13.75 12.6 -12.9 11.9 -11.45 10.55 -10.2 9.2 -9.55 8.4" fill="none" stroke="#996715" stroke-linecap="round" stroke-linejoin="round" stroke-width="0.05"/>
    <path d="M-7.5 6.15 L12.25 -14.25 15.05 -15.0 14.25 -12.2 -6.1 7.45" fill="none" stroke="#a6bbc2" stroke-linecap="round" stroke-linejoin="round" stroke-width="0.05"/>
  </g>
  <defs>
    <linearGradient gradientTransform="matrix(0.0128, 0.0, 1.0E-4, 0.0188, 3.6, -1.35)" gradientUnits="userSpaceOnUse" id="gradient0" spreadMethod="pad" x1="-819.2" x2="819.2">
      <stop offset="0.0" stop-color="#ffffff"/>
      <stop offset="0.1450980392156863" stop-color="#f3fdfe"/>
      <stop offset="0.4549019607843137" stop-color="#41626d"/>
      <stop offset="1.0" stop-color="#e0edf3"/>
    </linearGradient>
    <linearGradient gradientTransform="matrix(0.0012, 0.0044, -0.0024, 6.0E-4, -7.95, 7.65)" gradientUnits="userSpaceOnUse" id="gradient1" spreadMethod="pad" x1="-819.2" x2="819.2">
      <stop offset="0.20392156862745098" stop-color="#f1f187"/>
      <stop offset="0.4549019607843137" stop-color="#c4c415"/>
      <stop offset="0.7058823529411765" stop-color="#7c7b0e"/>
      <stop offset="1.0" stop-color="#c4c415"/>
    </linearGradient>
    <linearGradient gradientTransform="matrix(1.0E-4, 1.0E-4, -8.0E-4, 8.0E-4, -9.4, 9.75)" gradientUnits="userSpaceOnUse" id="gradient2" spreadMethod="pad" x1="-819.2" x2="819.2">
      <stop offset="0.08235294117647059" stop-color="#ce9717"/>
      <stop offset="0.7686274509803922" stop-color="#974b24"/>
    </linearGradient>
    <linearGradient gradientTransform="matrix(2.0E-4, 3.0E-4, -9.0E-4, 6.0E-4, -10.5, 10.45)" gradientUnits="userSpaceOnUse" id="gradient3" spreadMethod="pad" x1="-819.2" x2="819.2">
      <stop offset="0.08235294117647059" stop-color="#ce9717"/>
      <stop offset="0.7686274509803922" stop-color="#974b24"/>
    </linearGradient>
    <linearGradient gradientTransform="matrix(1.0E-4, 4.0E-4, -0.0012, 3.0E-4, -11.85, 11.6)" gradientUnits="userSpaceOnUse" id="gradient4" spreadMethod="pad" x1="-819.2" x2="819.2">
      <stop offset="0.08235294117647059" stop-color="#ce9717"/>
      <stop offset="0.7686274509803922" stop-color="#974b24"/>
    </linearGradient>
    <linearGradient gradientTransform="matrix(5.0E-4, 1.0E-4, -3.0E-4, 9.0E-4, -12.5, 12.8)" gradientUnits="userSpaceOnUse" id="gradient5" spreadMethod="pad" x1="-819.2" x2="819.2">
      <stop offset="0.08235294117647059" stop-color="#ce9717"/>
      <stop offset="0.7686274509803922" stop-color="#974b24"/>
    </linearGradient>
    <linearGradient gradientTransform="matrix(-4.0E-4, 0.0013, -0.0015, -4.0E-4, -14.1, 14.65)" gradientUnits="userSpaceOnUse" id="gradient6" spreadMethod="pad" x1="-819.2" x2="819.2">
      <stop offset="0.20392156862745098" stop-color="#f1f187"/>
      <stop offset="0.4549019607843137" stop-color="#c4c415"/>
      <stop offset="0.7058823529411765" stop-color="#7c7b0e"/>
      <stop offset="1.0" stop-color="#c4c415"/>
    </linearGradient>
    <linearGradient gradientTransform="matrix(2.0E-4, 6.0E-4, -0.0011, 3.0E-4, -13.2, 13.9)" gradientUnits="userSpaceOnUse" id="gradient7" spreadMethod="pad" x1="-819.2" x2="819.2">
      <stop offset="0.08235294117647059" stop-color="#ce9717"/>
      <stop offset="0.7686274509803922" stop-color="#974b24"/>
    </linearGradient>
  </defs>
</svg>
