<?xml version="1.0" encoding="UTF-8" standalone="no"?>
<svg xmlns:xlink="http://www.w3.org/1999/xlink" height="4.3px" width="4.3px" xmlns="http://www.w3.org/2000/svg">
  <g transform="matrix(1.0, 0.0, 0.0, 1.0, 2.15, 1.4)">
    <path d="M0.0 -1.4 Q0.9 -1.45 1.55 -0.8 2.15 -0.15 2.15 0.75 2.15 1.65 1.55 2.3 0.9 2.9 0.0 2.9 -0.9 2.9 -1.55 2.3 -2.2 1.65 -2.15 0.75 -2.2 -0.15 -1.55 -0.8 -0.9 -1.45 0.0 -1.4" fill="url(#gradient0)" fill-rule="evenodd" stroke="none"/>
    <path d="M0.0 -1.2 Q0.8 -1.2 1.4 -0.6 1.95 -0.05 1.95 0.75 1.95 1.55 1.4 2.15 0.8 2.7 0.0 2.7 L-1.1 2.35 Q0.1 1.9 0.15 0.7 0.15 -0.55 -0.65 -1.1 L0.0 -1.2" fill="url(#gradient1)" fill-rule="evenodd" stroke="none"/>
    <path d="M-1.65 -0.2 L-0.8 -0.55 -0.15 -0.35 Q-0.9 -0.1 -0.9 0.7 -0.9 1.45 -0.4 1.8 L-0.8 1.85 -1.65 1.5 -2.0 0.65 Q-2.05 0.15 -1.65 -0.2" fill="url(#gradient2)" fill-rule="evenodd" stroke="none"/>
  </g>
  <defs>
    <radialGradient cx="0" cy="0" gradientTransform="matrix(0.0, 0.0029, 0.0031, 0.0, -0.35, 0.6)" gradientUnits="userSpaceOnUse" id="gradient0" r="819.2" spreadMethod="pad">
      <stop offset="0.2823529411764706" stop-color="#e2fafc"/>
      <stop offset="0.4549019607843137" stop-color="#bcf0f8"/>
      <stop offset="0.6352941176470588" stop-color="#16cfe9"/>
      <stop offset="0.7058823529411765" stop-color="#4f9ae6"/>
      <stop offset="0.9176470588235294" stop-color="#1b94a0"/>
      <stop offset="1.0" stop-color="#094040"/>
    </radialGradient>
    <linearGradient gradientTransform="matrix(-0.0011, -1.0E-4, -2.0E-4, 0.0018, 0.4, 0.85)" gradientUnits="userSpaceOnUse" id="gradient1" spreadMethod="pad" x1="-819.2" x2="819.2">
      <stop offset="0.0" stop-color="#000000" stop-opacity="0.0"/>
      <stop offset="1.0" stop-color="#409bf4" stop-opacity="0.3019608"/>
    </linearGradient>
    <linearGradient gradientTransform="matrix(7.0E-4, 1.0E-4, 1.0E-4, -0.0011, -1.1, 0.6)" gradientUnits="userSpaceOnUse" id="gradient2" spreadMethod="pad" x1="-819.2" x2="819.2">
      <stop offset="0.0" stop-color="#000000" stop-opacity="0.0"/>
      <stop offset="1.0" stop-color="#529cf5" stop-opacity="0.3019608"/>
    </linearGradient>
  </defs>
</svg>
