<?xml version="1.0" encoding="UTF-8" standalone="no"?>
<svg xmlns:xlink="http://www.w3.org/1999/xlink" height="32.2px" width="31.0px" xmlns="http://www.w3.org/2000/svg">
  <g transform="matrix(1.0, 0.0, 0.0, 1.0, 15.5, 16.1)">
    <path d="M1.95 -7.15 Q6.7 -9.4 10.3 -11.35 -0.95 1.75 15.5 0.2 12.65 0.55 8.3 2.5 11.25 6.25 14.5 8.3 5.5 4.5 5.9 8.45 6.25 12.35 7.15 14.15 1.15 7.35 -0.05 11.25 -1.3 15.15 -1.9 16.1 -1.65 12.75 -2.3 11.25 -3.0 9.75 -3.6 10.0 -6.85 13.55 -9.05 15.3 -5.0 7.15 -7.2 6.3 L-13.35 6.55 Q-8.5 4.9 -9.35 1.35 -10.2 -2.25 -15.5 -2.15 L-9.1 -2.95 Q-6.65 -3.35 -7.75 -6.1 -8.35 -8.1 -9.8 -9.5 L-10.9 -10.55 Q0.05 -1.9 1.2 -16.1 L1.95 -7.15" fill="url(#gradient0)" fill-rule="evenodd" stroke="none"/>
  </g>
  <defs>
    <radialGradient cx="0" cy="0" gradientTransform="matrix(0.0182, 5.0E-4, -3.0E-4, 0.0154, -0.25, -1.1)" gradientUnits="userSpaceOnUse" id="gradient0" r="819.2" spreadMethod="pad">
      <stop offset="0.0" stop-color="#c46911"/>
      <stop offset="0.7215686274509804" stop-color="#f1ce0e"/>
      <stop offset="1.0" stop-color="#d8f40b"/>
    </radialGradient>
  </defs>
</svg>
