<?xml version="1.0" encoding="UTF-8" standalone="no"?>
<svg xmlns:xlink="http://www.w3.org/1999/xlink" height="8.55px" width="8.95px" xmlns="http://www.w3.org/2000/svg">
  <g transform="matrix(1.0, 0.0, 0.0, 1.0, 8.0, 6.75)">
    <path d="M-7.9 -1.4 Q-7.35 -3.7 -4.45 -6.75 -2.5 -4.45 0.45 -6.75 0.1 -1.9 -0.65 -1.05 -1.15 -0.5 -3.65 -0.5 -6.45 -0.5 -7.9 -1.4" fill="#ffffff" fill-rule="evenodd" stroke="none"/>
    <path d="M0.45 -6.75 L0.95 -5.1 Q1.05 0.7 -0.3 1.5 L-3.55 1.8 Q-6.45 1.7 -7.3 0.9 -8.2 0.0 -7.9 -1.4 -6.45 -0.5 -3.65 -0.5 -1.15 -0.5 -0.65 -1.05 0.1 -1.9 0.45 -6.75" fill="#994848" fill-rule="evenodd" stroke="none"/>
    <path d="M0.45 -6.75 L0.95 -5.1 Q1.05 0.7 -0.3 1.5 L-3.55 1.8 Q-6.45 1.7 -7.3 0.9 -8.2 0.0 -7.9 -1.4 -7.35 -3.7 -4.45 -6.75 -2.5 -4.45 0.45 -6.75 Z" fill="none" stroke="#a0a0a0" stroke-linecap="round" stroke-linejoin="round" stroke-width="0.05"/>
  </g>
</svg>
