<?xml version="1.0" encoding="UTF-8" standalone="no"?>
<svg xmlns:xlink="http://www.w3.org/1999/xlink" height="19.15px" width="93.6px" xmlns="http://www.w3.org/2000/svg">
  <g transform="matrix(1.0, 0.0, 0.0, 1.0, 50.35, 13.05)">
    <path d="M35.2 -10.8 L35.2 3.15 M-42.45 3.15 L-42.45 -10.8" fill="none" stroke="#062942" stroke-linecap="round" stroke-linejoin="round" stroke-width="0.05"/>
    <path d="M-49.35 -11.65 L42.75 -12.4" fill="none" stroke="#55b8ec" stroke-linecap="round" stroke-linejoin="round" stroke-width="1.0"/>
    <path d="M39.95 5.1 L-46.75 5.1" fill="none" stroke="#1e0d0d" stroke-linecap="round" stroke-linejoin="round" stroke-width="2.0"/>
    <path d="M-46.75 5.1 L-49.35 -11.65" fill="none" stroke="#462020" stroke-linecap="round" stroke-linejoin="round" stroke-width="2.0"/>
    <path d="M42.75 -12.4 L39.95 5.1" fill="none" stroke="#c57c7c" stroke-linecap="round" stroke-linejoin="round" stroke-width="1.0"/>
    <path d="M-49.35 -12.35 L42.75 -13.05 39.95 4.45 -46.75 4.45 -49.35 -12.35 M33.3 -10.85 L-40.65 -10.95 -38.25 3.35 30.85 3.35 33.3 -10.85" fill="url(#gradient0)" fill-rule="evenodd" stroke="none"/>
    <path d="M40.95 -1.45 Q25.85 -3.85 14.55 -2.65 L-8.15 -0.6 -28.45 0.75 Q-39.35 1.35 -47.25 1.1 L-49.35 -13.0 42.85 -13.05 40.95 -1.45" fill="url(#gradient1)" fill-rule="evenodd" stroke="none"/>
  </g>
  <defs>
    <linearGradient gradientTransform="matrix(-1.0E-4, 0.0093, -0.0562, -5.0E-4, -3.5, -2.85)" gradientUnits="userSpaceOnUse" id="gradient0" spreadMethod="pad" x1="-819.2" x2="819.2">
      <stop offset="0.0" stop-color="#532626"/>
      <stop offset="1.0" stop-color="#a94949"/>
    </linearGradient>
    <linearGradient gradientTransform="matrix(-2.0E-4, -0.0082, -0.0474, 2.0E-4, -5.6, -3.85)" gradientUnits="userSpaceOnUse" id="gradient1" spreadMethod="pad" x1="-819.2" x2="819.2">
      <stop offset="0.0" stop-color="#fbdedd" stop-opacity="0.0"/>
      <stop offset="1.0" stop-color="#ffffff"/>
    </linearGradient>
  </defs>
</svg>
