<?xml version="1.0" encoding="UTF-8" standalone="no"?>
<svg xmlns:xlink="http://www.w3.org/1999/xlink" height="45.5px" width="45.5px" xmlns="http://www.w3.org/2000/svg">
  <g transform="matrix(1.0, 0.0, 0.0, 1.0, 22.75, 22.75)">
    <path d="M16.05 -16.1 Q22.75 -9.4 22.75 0.0 22.75 9.4 16.05 16.05 9.4 22.75 0.0 22.75 -9.4 22.75 -16.1 16.05 -22.75 9.4 -22.75 0.0 -22.75 -9.4 -16.1 -16.1 -9.4 -22.75 0.0 -22.75 9.4 -22.75 16.05 -16.1 M9.65 -9.65 Q5.65 -13.65 0.0 -13.65 -5.65 -13.65 -9.65 -9.65 -13.65 -5.65 -13.65 0.0 -13.65 5.65 -9.65 9.65 -5.65 13.65 0.0 13.65 5.65 13.65 9.65 9.65 13.65 5.65 13.65 0.0 13.65 -5.65 9.65 -9.65" fill="#ffffff" fill-opacity="0.4" fill-rule="evenodd" stroke="none"/>
  </g>
</svg>
