<?xml version="1.0" encoding="UTF-8" standalone="no"?>
<svg xmlns:xlink="http://www.w3.org/1999/xlink" height="65.25px" width="65.3px" xmlns="http://www.w3.org/2000/svg">
  <g transform="matrix(1.0, 0.0, 0.0, 1.0, 32.6, 32.9)">
    <path d="M25.55 -0.25 Q25.55 10.3 18.05 17.85 10.6 25.35 0.0 25.35 -10.6 25.35 -18.05 17.85 -25.55 10.3 -25.55 -0.25 -25.55 -10.85 -18.05 -18.3 -10.6 -25.8 0.0 -25.8 10.6 -25.8 18.05 -18.3 25.55 -10.85 25.55 -0.25 M22.75 -23.05 Q13.35 -32.45 0.0 -32.4 -13.3 -32.45 -22.75 -23.05 -32.15 -13.6 -32.1 -0.3 -32.15 13.0 -22.75 22.45 -13.3 31.85 0.0 31.85 13.35 31.85 22.75 22.45 32.2 13.0 32.2 -0.3 32.2 -13.6 22.75 -23.05" fill="none" stroke="#680b4f" stroke-linecap="round" stroke-linejoin="round" stroke-opacity="0.28235295" stroke-width="1.0"/>
    <path d="M22.55 -22.8 Q31.85 -13.45 31.85 -0.3 31.85 12.85 22.55 22.2 13.2 31.55 0.0 31.55 -13.15 31.55 -22.5 22.2 -31.8 12.85 -31.8 -0.3 -31.8 -13.45 -22.5 -22.8 -13.15 -32.1 0.0 -32.1 13.2 -32.1 22.55 -22.8 M25.85 -0.25 Q25.8 -10.95 18.2 -18.5 10.7 -26.05 0.0 -26.05 -10.7 -26.05 -18.25 -18.5 -25.85 -10.95 -25.85 -0.25 -25.85 10.4 -18.25 18.0 -10.7 25.6 0.0 25.6 10.7 25.6 18.2 18.0 25.8 10.4 25.85 -0.25" fill="url(#gradient0)" fill-rule="evenodd" stroke="none"/>
  </g>
  <defs>
    <linearGradient gradientTransform="matrix(-0.0191, -0.0331, 0.0331, -0.0191, -5.25, -5.85)" gradientUnits="userSpaceOnUse" id="gradient0" spreadMethod="pad" x1="-819.2" x2="819.2">
      <stop offset="0.0" stop-color="#d195dd"/>
      <stop offset="1.0" stop-color="#ffffff"/>
    </linearGradient>
  </defs>
</svg>
