<?xml version="1.0" encoding="UTF-8" standalone="no"?>
<svg xmlns:xlink="http://www.w3.org/1999/xlink" height="75.45px" width="73.8px" xmlns="http://www.w3.org/2000/svg">
  <g transform="matrix(1.0, 0.0, 0.0, 1.0, 35.8, 36.05)">
    <path d="M27.6 -21.35 Q38.0 -10.95 38.0 3.85 38.0 18.55 27.6 29.0 17.15 39.4 2.45 39.4 -12.35 39.4 -22.75 29.0 -33.15 18.55 -33.1 3.85 -33.15 -10.95 -22.75 -21.35 -12.35 -31.75 2.45 -31.75 17.15 -31.75 27.6 -21.35" fill="#000000" fill-opacity="0.28235295" fill-rule="evenodd" stroke="none"/>
    <path d="M27.25 -0.65 Q27.25 10.75 19.2 18.8 11.1 26.85 -0.3 26.9 -11.7 26.85 -19.75 18.8 -27.8 10.75 -27.8 -0.65 -27.8 -12.1 -19.75 -20.15 -11.7 -28.2 -0.3 -28.2 11.1 -28.2 19.2 -20.15 27.25 -12.1 27.25 -0.65" fill="url(#gradient0)" fill-rule="evenodd" stroke="none"/>
    <path d="M35.3 -0.5 Q35.3 14.25 24.9 24.65 14.45 35.05 -0.25 35.1 -15.05 35.05 -25.45 24.65 -35.85 14.25 -35.8 -0.5 -35.85 -15.25 -25.45 -25.65 -15.05 -36.1 -0.25 -36.05 14.45 -36.1 24.9 -25.65 35.3 -15.25 35.3 -0.5 M27.25 -0.65 Q27.25 -12.1 19.2 -20.15 11.1 -28.2 -0.3 -28.2 -11.7 -28.2 -19.75 -20.15 -27.8 -12.1 -27.8 -0.65 -27.8 10.75 -19.75 18.8 -11.7 26.85 -0.3 26.9 11.1 26.85 19.2 18.8 27.25 10.75 27.25 -0.65" fill="url(#gradient1)" fill-rule="evenodd" stroke="none"/>
    <path d="M27.25 -0.65 Q27.25 10.75 19.2 18.8 11.1 26.85 -0.3 26.9 -11.7 26.85 -19.75 18.8 -27.8 10.75 -27.8 -0.65 -27.8 -12.1 -19.75 -20.15 -11.7 -28.2 -0.3 -28.2 11.1 -28.2 19.2 -20.15 27.25 -12.1 27.25 -0.65" fill="none" stroke="#10759a" stroke-linecap="round" stroke-linejoin="round" stroke-width="0.05"/>
    <path d="M35.3 -0.5 Q35.3 14.25 24.9 24.65 14.45 35.05 -0.25 35.1 -15.05 35.05 -25.45 24.65 -35.85 14.25 -35.8 -0.5 -35.85 -15.25 -25.45 -25.65 -15.05 -36.1 -0.25 -36.05 14.45 -36.1 24.9 -25.65 35.3 -15.25 35.3 -0.5" fill="none" stroke="#062e3c" stroke-linecap="round" stroke-linejoin="round" stroke-width="0.05"/>
  </g>
  <defs>
    <radialGradient cx="0" cy="0" gradientTransform="matrix(0.0634, 0.0, 0.0, 0.0634, -13.15, -10.4)" gradientUnits="userSpaceOnUse" id="gradient0" r="819.2" spreadMethod="pad">
      <stop offset="0.0" stop-color="#fb5228"/>
      <stop offset="1.0" stop-color="#691c0a"/>
    </radialGradient>
    <linearGradient gradientTransform="matrix(0.0307, 0.0307, -0.0307, 0.0307, -0.35, -0.55)" gradientUnits="userSpaceOnUse" id="gradient1" spreadMethod="pad" x1="-819.2" x2="819.2">
      <stop offset="0.0" stop-color="#176f99"/>
      <stop offset="0.23137254901960785" stop-color="#07345f"/>
      <stop offset="1.0" stop-color="#041e37"/>
    </linearGradient>
  </defs>
</svg>
