<?xml version="1.0" encoding="UTF-8" standalone="no"?>
<svg xmlns:xlink="http://www.w3.org/1999/xlink" height="8.55px" width="7.2px" xmlns="http://www.w3.org/2000/svg">
  <g transform="matrix(1.0, 0.0, 0.0, 1.0, 6.55, 6.8)">
    <path d="M-4.05 -6.1 Q-5.25 -4.35 -5.85 -1.75 L-5.35 -1.15 Q-5.75 0.5 -4.9 1.75 -7.1 0.6 -6.35 -2.35 L-6.25 -2.65 Q-5.75 -4.3 -4.3 -6.8 -4.5 -6.3 -4.05 -6.1" fill="#ebdae9" fill-rule="evenodd" stroke="none"/>
    <path d="M-4.9 1.75 Q-5.75 0.5 -5.35 -1.15 L-2.35 -1.25 Q-0.8 -4.45 -1.3 -5.95 0.1 -6.05 0.2 -6.7 1.3 -2.05 -0.35 -0.1 -2.05 1.85 -4.9 1.75" fill="#ffffff" fill-rule="evenodd" stroke="none"/>
    <path d="M-5.35 -1.15 L-5.85 -1.75 Q-5.25 -4.35 -4.05 -6.1 L-3.45 -6.0 -5.1 -2.05 -5.35 -1.15" fill="#732724" fill-rule="evenodd" stroke="none"/>
    <path d="M-5.35 -1.15 L-5.1 -2.05 -3.45 -6.0 -1.3 -5.95 Q-0.8 -4.45 -2.35 -1.25 L-5.35 -1.15" fill="#8f392d" fill-rule="evenodd" stroke="none"/>
    <path d="M-3.45 -6.0 L-4.05 -6.1 Q-4.5 -6.3 -4.3 -6.8 -5.75 -4.3 -6.25 -2.65 L-6.35 -2.35 Q-7.1 0.6 -4.9 1.75 -2.05 1.85 -0.35 -0.1 1.3 -2.05 0.2 -6.7 0.1 -6.05 -1.3 -5.95 L-3.45 -6.0 Z" fill="none" stroke="#000000" stroke-linecap="round" stroke-linejoin="round" stroke-width="0.05"/>
  </g>
</svg>
