<?xml version="1.0" encoding="UTF-8" standalone="no"?>
<svg xmlns:xlink="http://www.w3.org/1999/xlink" height="9.85px" width="37.15px" xmlns="http://www.w3.org/2000/svg">
  <g transform="matrix(1.0, 0.0, 0.0, 1.0, 18.6, 4.9)">
    <path d="M3.15 -1.15 L-0.95 2.35 Q-3.45 4.25 -5.45 4.25 L-7.0 4.1 -7.8 3.65 -9.5 1.05 Q-9.6 0.9 -10.0 0.8 L-10.35 -0.2 Q-10.7 -0.95 -11.55 -1.45 -12.75 -2.0 -13.95 -2.0 L-14.85 -1.75 -15.7 -0.9 -17.35 2.4 Q-17.35 2.85 -16.65 3.5 L-15.7 4.1 Q-15.05 4.1 -14.1 3.5 L-12.65 2.15 -12.6 1.55 Q-12.6 0.1 -13.95 0.1 -14.9 0.1 -14.9 0.95 -14.9 1.45 -14.15 2.5 L-14.35 2.6 -14.7 2.7 Q-15.1 2.7 -15.5 2.1 L-15.9 1.05 Q-15.9 0.25 -15.25 -0.3 -14.75 -0.75 -14.05 -0.75 -13.0 -0.75 -12.4 -0.05 -11.75 0.65 -11.75 1.6 -11.75 3.2 -13.6 4.2 -14.95 4.95 -16.05 4.95 -17.25 4.95 -18.0 3.65 -18.6 2.55 -18.6 1.45 -18.6 0.1 -17.25 -1.6 -15.9 -3.3 -14.5 -3.3 L-11.7 -3.0 Q-10.6 -2.55 -9.1 -0.95 L-8.6 0.45 -7.3 2.1 -6.25 2.9 -6.0 3.3 -5.6 3.5 -5.15 3.5 -4.7 3.3 Q-3.4 3.25 -1.5 1.75 L1.5 -1.0 1.55 -1.4 4.95 -3.5 Q6.85 -4.55 8.3 -4.7 L13.35 -4.9 16.0 -4.5 Q17.8 -4.05 18.05 -3.25 L18.3 -2.8 18.55 -2.25 Q18.55 -1.7 18.0 -0.95 17.5 -0.2 17.1 -0.2 L16.15 -0.2 14.7 -0.9 12.5 -2.1 10.05 -2.7 7.4 -3.05 Q5.6 -3.05 3.15 -1.15 M2.85 0.8 Q2.85 0.35 3.15 0.05 L3.9 -0.25 4.65 0.05 5.0 0.8 4.65 1.6 3.9 1.9 Q3.45 1.9 3.15 1.6 2.85 1.25 2.85 0.8 M-5.0 -0.45 L-5.3 -1.25 -5.0 -2.0 -4.25 -2.3 Q-3.8 -2.3 -3.5 -2.0 L-3.15 -1.25 -3.5 -0.45 Q-3.8 -0.15 -4.25 -0.15 -4.7 -0.15 -5.0 -0.45" fill="#11060c" fill-rule="evenodd" stroke="none"/>
  </g>
</svg>
