<?xml version="1.0" encoding="UTF-8" standalone="no"?>
<svg xmlns:xlink="http://www.w3.org/1999/xlink" height="8.55px" width="7.2px" xmlns="http://www.w3.org/2000/svg">
  <g transform="matrix(1.0, 0.0, 0.0, 1.0, 6.55, 6.8)">
    <path d="M-3.45 -6.0 L-5.1 -2.05 Q-6.0 0.2 -4.9 1.75 -7.1 0.6 -6.35 -2.35 L-6.25 -2.65 Q-5.75 -4.3 -4.3 -6.8 -4.6 -6.0 -3.45 -6.0" fill="#618ea3" fill-rule="evenodd" stroke="none"/>
    <path d="M-4.9 1.75 Q-6.0 0.2 -5.1 -2.05 L-3.45 -6.0 Q0.0 -5.7 0.2 -6.7 1.3 -2.05 -0.35 -0.1 -2.05 1.85 -4.9 1.75" fill="#224156" fill-rule="evenodd" stroke="none"/>
    <path d="M-3.45 -6.0 Q-4.6 -6.0 -4.3 -6.8 -5.75 -4.3 -6.25 -2.65 L-6.35 -2.35 Q-7.1 0.6 -4.9 1.75 -2.05 1.85 -0.35 -0.1 1.3 -2.05 0.2 -6.7 0.0 -5.7 -3.45 -6.0 Z" fill="none" stroke="#000000" stroke-linecap="round" stroke-linejoin="round" stroke-width="0.05"/>
  </g>
</svg>
