<?xml version="1.0" encoding="UTF-8" standalone="no"?>
<svg xmlns:xlink="http://www.w3.org/1999/xlink" height="40.0px" width="86.0px" xmlns="http://www.w3.org/2000/svg">
  <g transform="matrix(1.0, 0.0, 0.0, 1.0, 42.55, 63.7)">
    <path d="M37.55 -51.25 L37.55 -51.75 Q37.55 -54.25 35.8 -55.95 34.05 -57.75 31.55 -57.75 29.05 -57.75 27.35 -55.95 25.55 -54.25 25.55 -51.75 25.55 -49.25 27.35 -47.5 29.05 -45.75 31.55 -45.75 L31.7 -45.75 31.85 -45.75 Q34.15 -45.85 35.8 -47.5 L36.75 -48.7 Q37.45 -49.85 37.55 -51.25 M24.35 -63.7 L38.6 -63.7 Q43.45 -63.7 43.45 -59.45 L43.45 -43.95 Q43.45 -39.7 38.6 -39.7 L24.35 -39.7 Q19.45 -39.7 19.45 -43.95 L19.45 -59.45 Q19.45 -63.7 24.35 -63.7" fill="url(#gradient0)" fill-rule="evenodd" stroke="none"/>
    <path d="M31.55 -45.75 Q29.05 -45.75 27.35 -47.5 25.55 -49.25 25.55 -51.75 25.55 -54.25 27.35 -55.95 29.05 -57.75 31.55 -57.75 34.05 -57.75 35.8 -55.95 37.55 -54.25 37.55 -51.75 L37.55 -51.25 37.4 -51.3 Q37.35 -53.6 35.75 -55.2 34.1 -56.85 31.85 -56.85 29.55 -56.85 27.9 -55.2 26.3 -53.6 26.3 -51.3 26.3 -49.0 27.9 -47.35 29.45 -45.85 31.55 -45.75" fill="#895612" fill-rule="evenodd" stroke="none"/>
    <path d="M31.55 -45.75 Q29.45 -45.85 27.9 -47.35 26.3 -49.0 26.3 -51.3 26.3 -53.6 27.9 -55.2 29.55 -56.85 31.85 -56.85 34.1 -56.85 35.75 -55.2 37.35 -53.6 37.4 -51.3 L37.55 -51.25 Q37.45 -49.85 36.75 -48.7 L35.8 -47.5 Q34.15 -45.85 31.85 -45.75 L31.7 -45.75 31.55 -45.75" fill="url(#gradient1)" fill-rule="evenodd" stroke="none"/>
    <path d="M7.6 -55.7 Q12.45 -55.7 12.45 -51.45 L12.45 -35.95 Q12.45 -31.7 7.6 -31.7 L-6.65 -31.7 Q-11.55 -31.7 -11.55 -35.95 L-11.55 -51.45 Q-11.55 -55.7 -6.65 -55.7 L7.6 -55.7 M-3.1 -38.85 L-2.0 -38.2 Q-0.9 -37.7 0.45 -37.7 2.95 -37.7 4.7 -39.45 6.45 -41.2 6.45 -43.7 L6.4 -44.55 Q6.15 -46.5 4.7 -47.9 2.95 -49.7 0.45 -49.7 -2.05 -49.7 -3.75 -47.9 -5.55 -46.2 -5.55 -43.7 -5.55 -41.2 -3.75 -39.45 L-3.1 -38.85" fill="url(#gradient2)" fill-rule="evenodd" stroke="none"/>
    <path d="M6.4 -44.55 L6.45 -43.7 Q6.45 -41.2 4.7 -39.45 2.95 -37.7 0.45 -37.7 -0.9 -37.7 -2.0 -38.2 L-3.1 -38.85 -3.0 -39.0 Q-4.65 -40.65 -4.65 -42.95 -4.65 -45.3 -3.0 -46.95 -1.35 -48.6 1.0 -48.6 3.3 -48.6 4.95 -46.95 6.0 -45.9 6.4 -44.55" fill="url(#gradient3)" fill-rule="evenodd" stroke="none"/>
    <path d="M6.4 -44.55 Q6.0 -45.9 4.95 -46.95 3.3 -48.6 1.0 -48.6 -1.35 -48.6 -3.0 -46.95 -4.65 -45.3 -4.65 -42.95 -4.65 -40.65 -3.0 -39.0 L-3.1 -38.85 -3.75 -39.45 Q-5.55 -41.2 -5.55 -43.7 -5.55 -46.2 -3.75 -47.9 -2.05 -49.7 0.45 -49.7 2.95 -49.7 4.7 -47.9 6.15 -46.5 6.4 -44.55" fill="#3c6609" fill-rule="evenodd" stroke="none"/>
    <path d="M-42.55 -27.95 L-42.55 -43.45 Q-42.55 -47.7 -37.65 -47.7 L-23.4 -47.7 Q-18.55 -47.7 -18.55 -43.45 L-18.55 -27.95 Q-18.55 -23.7 -23.4 -23.7 L-37.65 -23.7 Q-42.55 -23.7 -42.55 -27.95 M-24.7 -37.2 Q-25.1 -38.75 -26.3 -39.9 -28.05 -41.7 -30.55 -41.7 -33.05 -41.7 -34.75 -39.9 -36.55 -38.2 -36.55 -35.7 -36.55 -33.2 -34.75 -31.45 L-34.2 -30.95 -33.75 -30.6 Q-32.35 -29.7 -30.55 -29.7 -28.05 -29.7 -26.3 -31.45 -24.8 -32.95 -24.55 -34.95 L-24.55 -35.7 -24.7 -37.2" fill="url(#gradient4)" fill-rule="evenodd" stroke="none"/>
    <path d="M-24.7 -37.2 L-25.0 -37.15 Q-25.4 -38.15 -26.2 -38.95 -27.85 -40.6 -30.2 -40.6 -32.55 -40.6 -34.15 -38.95 -35.8 -37.3 -35.8 -34.95 -35.8 -32.65 -34.15 -31.0 L-34.2 -30.95 -34.75 -31.45 Q-36.55 -33.2 -36.55 -35.7 -36.55 -38.2 -34.75 -39.9 -33.05 -41.7 -30.55 -41.7 -28.05 -41.7 -26.3 -39.9 -25.1 -38.75 -24.7 -37.2" fill="#073d72" fill-rule="evenodd" stroke="none"/>
    <path d="M-34.2 -30.95 L-34.15 -31.0 Q-35.8 -32.65 -35.8 -34.95 -35.8 -37.3 -34.15 -38.95 -32.55 -40.6 -30.2 -40.6 -27.85 -40.6 -26.2 -38.95 -25.4 -38.15 -25.0 -37.15 L-24.7 -37.2 -24.55 -35.7 -24.55 -34.95 Q-24.8 -32.95 -26.3 -31.45 -28.05 -29.7 -30.55 -29.7 -32.35 -29.7 -33.75 -30.6 L-34.2 -30.95" fill="url(#gradient5)" fill-rule="evenodd" stroke="none"/>
  </g>
  <defs>
    <radialGradient cx="0" cy="0" gradientTransform="matrix(0.0235, 0.0, 0.0, 0.0235, 31.45, -51.7)" gradientUnits="userSpaceOnUse" id="gradient0" r="819.2" spreadMethod="pad">
      <stop offset="0.0" stop-color="#ffffff"/>
      <stop offset="0.3176470588235294" stop-color="#ffffff"/>
      <stop offset="0.5019607843137255" stop-color="#e3e3e3"/>
      <stop offset="0.9921568627450981" stop-color="#757641"/>
    </radialGradient>
    <radialGradient cx="0" cy="0" gradientTransform="matrix(0.0109, 0.0, 0.0, 0.0109, 31.0, -52.9)" gradientUnits="userSpaceOnUse" id="gradient1" r="819.2" spreadMethod="pad">
      <stop offset="0.0" stop-color="#f1e238"/>
      <stop offset="0.7843137254901961" stop-color="#db6a17"/>
    </radialGradient>
    <radialGradient cx="0" cy="0" gradientTransform="matrix(0.0235, 0.0, 0.0, 0.0235, 0.45, -43.7)" gradientUnits="userSpaceOnUse" id="gradient2" r="819.2" spreadMethod="pad">
      <stop offset="0.0" stop-color="#ffffff"/>
      <stop offset="0.3176470588235294" stop-color="#ffffff"/>
      <stop offset="0.5019607843137255" stop-color="#e3e3e3"/>
      <stop offset="0.9921568627450981" stop-color="#757641"/>
    </radialGradient>
    <radialGradient cx="0" cy="0" gradientTransform="matrix(0.0122, 0.0, 0.0, 0.0122, -1.1, -45.85)" gradientUnits="userSpaceOnUse" id="gradient3" r="819.2" spreadMethod="pad">
      <stop offset="0.0" stop-color="#afd80e"/>
      <stop offset="1.0" stop-color="#33740c"/>
    </radialGradient>
    <radialGradient cx="0" cy="0" gradientTransform="matrix(0.0235, 0.0, 0.0, 0.0235, -30.55, -35.7)" gradientUnits="userSpaceOnUse" id="gradient4" r="819.2" spreadMethod="pad">
      <stop offset="0.0" stop-color="#ffffff"/>
      <stop offset="0.3176470588235294" stop-color="#ffffff"/>
      <stop offset="0.5019607843137255" stop-color="#e3e3e3"/>
      <stop offset="0.9921568627450981" stop-color="#757641"/>
    </radialGradient>
    <radialGradient cx="0" cy="0" gradientTransform="matrix(0.0146, 0.0, 0.0, 0.0146, -31.35, -36.85)" gradientUnits="userSpaceOnUse" id="gradient5" r="819.2" spreadMethod="pad">
      <stop offset="0.0" stop-color="#0b87a9"/>
      <stop offset="1.0" stop-color="#0b2db4"/>
    </radialGradient>
  </defs>
</svg>
