<?xml version="1.0" encoding="UTF-8" standalone="no"?>
<svg xmlns:xlink="http://www.w3.org/1999/xlink" height="50.0px" width="50.0px" xmlns="http://www.w3.org/2000/svg">
  <g transform="matrix(1.0, 0.0, 0.0, 1.0, 0.0, 0.0)">
    <path d="M50.0 0.0 L50.0 50.0 0.0 50.0 0.0 0.0 50.0 0.0 M15.4 15.95 L15.4 33.55 34.4 33.55 34.4 15.95 15.4 15.95 M11.2 34.85 L11.2 42.35 39.15 42.35 39.15 34.85 11.2 34.85 M10.4 34.8 L6.45 34.8 6.45 42.45 10.4 42.45 10.4 34.8 M5.85 32.2 L5.85 33.8 9.9 33.8 9.9 32.2 5.85 32.2 M14.6 31.65 L14.6 29.15 10.3 29.15 10.3 31.65 14.6 31.65" fill="#000000" fill-opacity="0.33333334" fill-rule="evenodd" stroke="none"/>
  </g>
</svg>
