<?xml version="1.0" encoding="UTF-8" standalone="no"?>
<svg xmlns:xlink="http://www.w3.org/1999/xlink" height="22.7px" width="8.3px" xmlns="http://www.w3.org/2000/svg">
  <g transform="matrix(1.0, 0.0, 0.0, 1.0, 4.25, 10.9)">
    <path d="M-4.25 -7.1 Q-4.5 -10.9 1.5 -10.9 L1.7 -10.8 Q2.45 -10.25 2.95 -6.3 L2.95 -6.25 Q3.55 -2.6 3.85 2.9 3.2 -0.1 2.1 -2.45 0.45 -6.05 -1.35 -6.0 L-1.95 -5.85 -2.95 -4.8 -3.25 -4.25 -3.8 -2.65 -3.9 -4.3 -4.15 -6.3 -4.25 -7.1" fill="#707070" fill-rule="evenodd" stroke="none"/>
    <path d="M3.85 2.9 L4.05 10.7 Q1.5 12.6 -0.5 11.2 -3.05 5.05 -3.8 -2.65 L-3.25 -4.25 -2.95 -4.8 -1.95 -5.85 -1.35 -6.0 Q0.45 -6.05 2.1 -2.45 3.2 -0.1 3.85 2.9" fill="#999999" fill-rule="evenodd" stroke="none"/>
    <path d="M1.7 -10.8 Q2.45 -10.25 2.95 -6.3 L2.95 -6.25 Q3.55 -2.6 3.85 2.9 L4.05 10.7 M-0.5 11.2 Q-3.05 5.05 -3.8 -2.65 L-3.9 -4.3 -4.15 -6.3 -4.25 -7.1" fill="none" stroke="#555555" stroke-linecap="round" stroke-linejoin="round" stroke-width="0.05"/>
  </g>
</svg>
