<?xml version="1.0" encoding="UTF-8" standalone="no"?>
<svg xmlns:xlink="http://www.w3.org/1999/xlink" height="17.1px" width="458.8px" xmlns="http://www.w3.org/2000/svg">
  <g transform="matrix(1.0, 0.0, 0.0, 1.0, -26.6, -2.0)">
    <path d="M484.9 18.6 L27.1 18.6 Q36.5 16.0 36.5 10.55 36.5 8.35 33.9 5.95 31.2 3.45 27.55 2.5 L484.9 2.5 484.9 18.6 M30.55 18.3 L483.7 18.25 483.7 2.85 483.7 18.25 30.55 18.3 M483.7 2.85 L30.45 2.85 483.7 2.85" fill="#006699" fill-rule="evenodd" stroke="none"/>
    <path d="M484.9 18.6 L27.1 18.6 Q36.5 16.0 36.5 10.55 36.5 8.35 33.9 5.95 31.2 3.45 27.55 2.5 L484.9 2.5 484.9 18.6" fill="none" stroke="#000033" stroke-linecap="round" stroke-linejoin="round" stroke-width="1.0"/>
    <path d="M483.7 2.85 L483.7 18.25 30.55 18.3 M30.45 2.85 L483.7 2.85" fill="none" stroke="#0091d7" stroke-linecap="round" stroke-linejoin="round" stroke-width="0.5"/>
  </g>
</svg>
