<?xml version="1.0" encoding="UTF-8" standalone="no"?>
<svg xmlns:xlink="http://www.w3.org/1999/xlink" height="24.05px" width="11.65px" xmlns="http://www.w3.org/2000/svg">
  <g transform="matrix(1.0, 0.0, 0.0, 1.0, 7.6, 12.35)">
    <path d="M-3.05 -4.6 L-2.2 -3.5 -2.15 -3.45 -0.25 -1.3 0.2 -0.75 0.15 -0.55 Q-1.05 2.15 -2.9 3.3 -1.05 2.15 0.15 -0.55 L0.2 -0.75 -0.25 -1.3 -2.15 -3.45 -2.2 -3.5 -3.05 -4.6 -2.95 -4.8 -1.95 -5.85 -1.35 -6.0 -0.3 -5.7 Q0.95 -5.0 2.1 -2.45 3.2 -0.1 3.85 2.9 L4.0 6.85 4.05 10.7 Q-0.2 12.8 -0.65 10.55 L-1.55 8.2 -2.9 3.3 -3.95 3.8 Q-4.5 3.1 -4.55 2.2 L-3.25 1.4 -2.15 -0.1 -3.75 -2.4 -4.1 -2.85 -5.75 -6.0 Q-7.0 -8.95 -7.35 -11.35 L-7.35 -11.4 -7.35 -11.5 -6.9 -12.2 -6.85 -12.15 -6.9 -12.2 -6.9 -12.35 -6.85 -12.15 -6.8 -12.2 -6.8 -12.1 -6.85 -12.15 Q-6.75 -11.05 -6.3 -9.9 L-6.0 -9.2 -5.6 -8.45 Q-5.0 -7.3 -4.0 -5.9 L-3.05 -4.6" fill="#ffffff" fill-rule="evenodd" stroke="none"/>
    <path d="M-4.0 -5.9 Q-5.0 -7.3 -5.6 -8.45 L-6.0 -9.2 -6.3 -9.9 Q-6.75 -11.05 -6.85 -12.15 L-6.8 -12.1 -6.8 -12.2 -6.15 -12.3 -5.9 -12.25 Q-4.55 -12.0 -3.1 -11.05 L-3.15 -10.95 Q-4.0 -9.5 -4.05 -7.6 L-4.0 -5.9" fill="#000000" fill-rule="evenodd" stroke="none"/>
    <path d="M-3.05 -4.6 L-4.0 -5.9 -4.05 -7.6 Q-4.0 -9.5 -3.15 -10.95 L-3.0 -11.0 -2.55 -11.15 Q-0.25 -11.95 1.55 -11.15 3.3 -7.5 3.85 2.9 3.2 -0.1 2.1 -2.45 0.95 -5.0 -0.3 -5.7 L-1.35 -6.0 -1.95 -5.85 -2.95 -4.8 -3.05 -4.6" fill="#e0e0e0" fill-rule="evenodd" stroke="none"/>
    <path d="M-7.35 -11.4 L-7.35 -11.35 -7.4 -11.35 -7.35 -11.4" fill="#de8db3" fill-rule="evenodd" stroke="none"/>
    <path d="M-7.35 -11.35 Q-7.0 -8.95 -5.75 -6.0 L-4.1 -2.85 -3.75 -2.4 -2.15 -0.1 -3.25 1.4 -4.55 2.2 Q-8.35 -6.45 -7.4 -11.35 L-7.35 -11.35" fill="#b78cf2" fill-rule="evenodd" stroke="none"/>
    <path d="M-2.9 3.3 L-1.55 8.2 -0.65 10.55 M4.05 10.7 L4.0 6.85 3.85 2.9 Q3.3 -7.5 1.55 -11.15 -0.25 -11.95 -2.55 -11.15 L-3.0 -11.0 -3.15 -10.95 Q-4.0 -9.5 -4.05 -7.6 L-4.0 -5.9" fill="none" stroke="#a0a0a0" stroke-linecap="round" stroke-linejoin="round" stroke-width="0.05"/>
    <path d="M-7.4 -11.35 L-7.35 -11.35 M-7.4 -11.35 Q-8.35 -6.45 -4.55 2.2" fill="none" stroke="#42129c" stroke-linecap="round" stroke-linejoin="round" stroke-width="0.05"/>
    <path d="M-2.9 3.3 Q-1.05 2.15 0.15 -0.55 L0.2 -0.75 -0.25 -1.3 -2.15 -3.45 -2.2 -3.5 -3.05 -4.6 -4.0 -5.9 Q-5.0 -7.3 -5.6 -8.45 L-6.0 -9.2 -6.3 -9.9 Q-6.75 -11.05 -6.85 -12.15 L-6.9 -12.2 -7.35 -11.5 -7.35 -11.4 -7.35 -11.35 M-4.55 2.2 Q-4.5 3.1 -3.95 3.8 L-2.9 3.3 M-3.0 -11.0 L-3.1 -11.05 Q-4.55 -12.0 -5.9 -12.25 L-6.15 -12.3 -6.8 -12.2 -6.8 -12.1 -6.85 -12.15 -6.8 -12.2 M-7.35 -11.4 L-7.4 -11.35" fill="none" stroke="#42129c" stroke-linecap="round" stroke-linejoin="round" stroke-width="0.05"/>
  </g>
</svg>
