<?xml version="1.0" encoding="UTF-8" standalone="no"?>
<svg xmlns:xlink="http://www.w3.org/1999/xlink" height="24.15px" width="10.8px" xmlns="http://www.w3.org/2000/svg">
  <g transform="matrix(1.0, 0.0, 0.0, 1.0, 6.75, 11.9)">
    <path d="M3.85 2.9 L4.05 10.7 Q0.1 13.4 -0.65 10.55 -2.7 5.9 -3.5 -0.3 L-3.8 -2.65 -3.25 -4.25 -2.95 -4.8 -1.95 -5.85 -1.35 -6.0 Q-0.7 -6.0 -0.1 -5.55 1.05 -4.75 2.1 -2.45 3.2 -0.1 3.85 2.9" fill="#3c4147" fill-rule="evenodd" stroke="none"/>
    <path d="M3.85 2.9 Q3.2 -0.1 2.1 -2.45 1.05 -4.75 -0.1 -5.55 -0.7 -6.0 -1.35 -6.0 L-1.95 -5.85 -2.95 -4.8 -3.25 -4.25 -3.8 -2.65 -3.9 -4.2 -4.05 -7.6 Q-4.0 -9.5 -3.15 -10.95 L-2.55 -11.15 -1.55 -11.45 Q0.15 -11.8 1.55 -11.15 3.3 -7.5 3.85 2.9" fill="#1e2225" fill-rule="evenodd" stroke="none"/>
    <path d="M4.05 10.7 L3.85 2.9 Q3.3 -7.5 1.55 -11.15 0.15 -11.8 -1.55 -11.45 L-2.55 -11.15 -3.15 -10.95 Q-4.0 -9.5 -4.05 -7.6 L-3.9 -4.2 -3.8 -2.65 -3.5 -0.3 Q-2.7 5.9 -0.65 10.55" fill="none" stroke="#666666" stroke-linecap="round" stroke-linejoin="round" stroke-width="0.05"/>
    <path d="M-6.55 -10.65 L-6.5 -11.15 -6.2 -11.25 -5.25 -11.6 -4.85 -11.75 -4.5 -11.8 Q-3.85 -11.9 -3.05 -11.4 L-2.85 -11.25 -2.8 -4.25 -3.05 -4.6 -4.0 -5.9 Q-5.0 -7.3 -5.6 -8.45 L-6.0 -9.2 -6.25 -9.85 -6.3 -9.9 -6.55 -10.65" fill="#303547" fill-rule="evenodd" stroke="none"/>
    <path d="M-6.55 -10.65 L-6.3 -9.9 -6.25 -9.85 -6.0 -9.2 -5.6 -8.45 Q-5.0 -7.3 -4.0 -5.9 L-3.05 -4.6 -2.8 -4.25 -2.2 -3.5 -2.15 -3.45 -1.3 -2.45 -1.3 -0.85 -1.35 0.1 Q-1.75 7.55 -3.65 12.15 L-4.2 10.1 -5.2 5.8 Q-4.15 6.4 -3.8 7.7 -3.25 3.7 -2.95 -0.45 L-2.9 -1.55 Q-4.95 -4.0 -6.65 -7.05 L-6.6 -9.65 -6.6 -9.7 -6.55 -10.65" fill="#45916e" fill-rule="evenodd" stroke="none"/>
    <path d="M-5.2 5.8 Q-5.9 2.6 -6.2 -0.4 L-6.65 -7.05 Q-4.95 -4.0 -2.9 -1.55 L-2.95 -0.45 Q-3.25 3.7 -3.8 7.7 -4.15 6.4 -5.2 5.8" fill="#a7dcc1" fill-rule="evenodd" stroke="none"/>
    <path d="M-2.8 -4.25 L-2.85 -11.25 -3.05 -11.4 Q-3.85 -11.9 -4.5 -11.8 L-4.85 -11.75 -5.25 -11.6 -6.2 -11.25 -6.5 -11.15 -6.55 -10.65 -6.3 -9.9 -6.25 -9.85 -6.0 -9.2 -5.6 -8.45 Q-5.0 -7.3 -4.0 -5.9 L-3.05 -4.6 -2.8 -4.25 -2.2 -3.5 -2.15 -3.45 -1.3 -2.45 -1.3 -0.85 -1.35 0.1 Q-1.75 7.55 -3.65 12.15 L-4.2 10.1 -5.2 5.8 Q-5.9 2.6 -6.2 -0.4 L-6.65 -7.05 -6.6 -9.65 -6.6 -9.7 -6.55 -10.65" fill="none" stroke="#2e813e" stroke-linecap="round" stroke-linejoin="round" stroke-width="0.25"/>
  </g>
</svg>
