<?xml version="1.0" encoding="UTF-8" standalone="no"?>
<svg xmlns:xlink="http://www.w3.org/1999/xlink" height="23.55px" width="8.1px" xmlns="http://www.w3.org/2000/svg">
  <g transform="matrix(1.0, 0.0, 0.0, 1.0, 4.05, 11.55)">
    <path d="M3.85 2.9 L4.05 10.7 Q0.1 13.4 -0.65 10.55 -2.7 5.9 -3.5 -0.3 L-3.8 -2.65 -3.25 -4.25 -2.95 -4.8 -1.95 -5.85 -1.35 -6.0 Q-0.7 -6.0 -0.1 -5.55 1.05 -4.75 2.1 -2.45 3.2 -0.1 3.85 2.9" fill="#3c4147" fill-rule="evenodd" stroke="none"/>
    <path d="M3.85 2.9 Q3.2 -0.1 2.1 -2.45 1.05 -4.75 -0.1 -5.55 -0.7 -6.0 -1.35 -6.0 L-1.95 -5.85 -2.95 -4.8 -3.25 -4.25 -3.8 -2.65 -3.9 -4.2 -4.05 -7.6 Q-4.0 -9.5 -3.15 -10.95 L-2.55 -11.15 -1.55 -11.45 Q0.15 -11.8 1.55 -11.15 3.3 -7.5 3.85 2.9" fill="#1e2225" fill-rule="evenodd" stroke="none"/>
    <path d="M4.05 10.7 L3.85 2.9 Q3.3 -7.5 1.55 -11.15 0.15 -11.8 -1.55 -11.45 L-2.55 -11.15 -3.15 -10.95 Q-4.0 -9.5 -4.05 -7.6 L-3.9 -4.2 -3.8 -2.65 -3.5 -0.3 Q-2.7 5.9 -0.65 10.55" fill="none" stroke="#a0a0a0" stroke-linecap="round" stroke-linejoin="round" stroke-width="0.05"/>
  </g>
</svg>
