<?xml version="1.0" encoding="UTF-8" standalone="no"?>
<svg xmlns:xlink="http://www.w3.org/1999/xlink" height="9.35px" width="14.95px" xmlns="http://www.w3.org/2000/svg">
  <g transform="matrix(1.0, 0.0, 0.0, 1.0, 7.7, 2.7)">
    <path d="M-7.45 0.2 Q-7.75 -1.15 -7.65 -2.7 -6.9 -1.55 -3.6 -1.0 L2.45 -0.7 2.75 -0.7 Q1.5 5.1 -2.95 4.3 L-3.85 4.1 Q-6.25 3.4 -7.35 0.45 L-7.45 0.2" fill="#ffffff" fill-rule="evenodd" stroke="none"/>
    <path d="M2.75 -0.7 Q5.05 -0.65 6.45 -1.7 7.9 2.8 6.75 4.4 3.55 6.75 -0.35 6.65 L-0.5 6.65 -0.7 6.65 -1.35 6.55 -3.75 5.35 Q-6.65 3.55 -7.4 0.45 L-7.45 0.2 -7.35 0.45 Q-6.25 3.4 -3.85 4.1 L-2.95 4.3 Q1.5 5.1 2.75 -0.7" fill="#e0e0e0" fill-rule="evenodd" stroke="none"/>
    <path d="M2.75 -0.7 Q5.05 -0.65 6.45 -1.7 7.9 2.8 6.75 4.4 3.55 6.75 -0.35 6.65 L-0.5 6.65 -0.7 6.65 -1.35 6.55 -3.75 5.35 M-7.4 0.45 L-7.45 0.2 Q-7.75 -1.15 -7.65 -2.7 -6.9 -1.55 -3.6 -1.0 L2.45 -0.7 2.75 -0.7 Z" fill="none" stroke="#a0a0a0" stroke-linecap="round" stroke-linejoin="round" stroke-width="0.05"/>
  </g>
</svg>
