<?xml version="1.0" encoding="UTF-8" standalone="no"?>
<svg xmlns:xlink="http://www.w3.org/1999/xlink" height="14.3px" width="6.2px" xmlns="http://www.w3.org/2000/svg">
  <g transform="matrix(1.0, 0.0, 0.0, 1.0, 4.9, 1.35)">
    <path d="M0.6 -0.85 L1.3 12.95 Q0.55 12.15 0.0 12.45 -1.3 12.7 -1.95 11.7 -2.95 10.7 -3.55 11.1 L-4.1 10.9 -4.9 -1.35 0.6 -0.85 M-3.7 9.2 L-3.55 11.1 -3.7 9.2 M-1.95 9.0 L-1.95 11.7 -1.95 9.0 M-0.35 6.65 L0.0 12.45 -0.35 6.65" fill="#de8db3" fill-rule="evenodd" stroke="none"/>
    <path d="M0.6 -0.85 L1.3 12.95 Q0.55 12.15 0.0 12.45 -1.3 12.7 -1.95 11.7 -2.95 10.7 -3.55 11.1 L-4.1 10.9 -4.9 -1.35 0.6 -0.85 M0.0 12.45 L-0.35 6.65 M-1.95 11.7 L-1.95 9.0 M-3.55 11.1 L-3.7 9.2" fill="none" stroke="#b03573" stroke-linecap="round" stroke-linejoin="round" stroke-width="0.05"/>
  </g>
</svg>
