<?xml version="1.0" encoding="UTF-8" standalone="no"?>
<svg xmlns:xlink="http://www.w3.org/1999/xlink" height="30.2px" width="17.25px" xmlns="http://www.w3.org/2000/svg">
  <g transform="matrix(1.0, 0.0, 0.0, 1.0, 8.5, 15.05)">
    <path d="M-3.85 -10.55 L-3.65 -10.55 -3.8 -10.55 -3.85 -10.55 -3.8 -10.55 -3.85 -10.55" fill="#f5dfc5" fill-rule="evenodd" stroke="none"/>
    <path d="M4.25 14.85 L4.15 14.85 -0.8 15.1 Q-5.35 14.5 -7.0 12.6 -7.05 11.5 -6.7 10.85 -5.8 8.15 -4.1 5.95 -3.85 3.7 -1.3 3.9 1.6 4.2 4.15 9.5 L4.45 10.15 Q3.85 12.55 4.25 14.85 M-8.4 -1.3 L-8.5 -1.95 Q-8.6 -3.7 -8.0 -4.6 L-7.6 -5.35 -7.25 -6.85 -7.5 -10.0 -4.85 -10.55 -3.85 -10.55 -3.8 -10.55 -3.65 -10.55 -2.6 -10.6 Q-2.35 -12.05 -2.4 -13.65 -1.9 -12.9 0.65 -12.7 1.75 -10.45 1.9 -6.9 L-0.45 -6.7 -1.0 -6.85 -0.45 -6.7 Q0.55 -6.2 -1.2 -5.85 L1.85 -6.15 Q3.4 -4.85 3.95 -3.5 4.85 -0.55 4.2 1.15 3.2 3.1 -0.35 2.35 L-0.95 2.25 Q-1.95 1.85 -2.65 0.8 L-2.65 0.75 -3.0 -0.4 -3.05 -0.9 -3.75 -1.15 Q-4.85 0.55 -6.45 0.6 L-6.85 0.55 -7.05 0.55 Q-8.05 -0.05 -8.4 -1.3 M-2.95 -7.3 L-4.8 -7.7 -2.95 -7.3 M-2.95 -9.45 Q-2.75 -9.7 -2.6 -10.6 -2.75 -9.7 -2.95 -9.45 M-1.6 10.9 L-1.55 10.45 -1.65 9.95 -1.85 9.75 -1.95 10.0 -2.0 10.5 -1.9 10.95 -1.75 11.1 -1.6 10.9" fill="#ffdfc8" fill-rule="evenodd" stroke="none"/>
    <path d="M0.65 -15.05 L1.8 -15.0 1.85 -15.0 2.2 -15.0 2.2 -14.4 Q2.1 -12.1 2.6 -10.1 L2.65 -9.95 4.4 -9.4 7.0 -8.25 7.4 -8.0 8.75 -7.2 8.05 -2.8 Q6.75 2.6 3.85 6.1 6.5 8.85 7.1 10.25 L7.8 11.75 8.3 13.45 6.1 14.4 4.25 14.85 Q3.85 12.55 4.45 10.15 L4.15 9.5 Q1.6 4.2 -1.3 3.9 -3.85 3.7 -4.1 5.95 -5.6 3.1 -5.95 1.6 L-7.0 1.05 -7.4 0.75 -7.75 0.35 Q-8.25 -0.35 -8.4 -1.3 -8.05 -0.05 -7.05 0.55 L-6.85 0.55 -6.45 0.6 Q-4.85 0.55 -3.75 -1.15 L-3.05 -0.9 -3.0 -0.4 -2.65 0.75 -2.65 0.8 Q-1.95 1.85 -0.95 2.25 L-0.35 2.35 Q3.2 3.1 4.2 1.15 4.85 -0.55 3.95 -3.5 3.4 -4.85 1.85 -6.15 L1.9 -6.2 1.8 -6.2 -0.45 -6.7 1.8 -6.2 1.9 -6.2 1.85 -6.15 -1.2 -5.85 Q0.55 -6.2 -0.45 -6.7 L1.9 -6.9 Q1.75 -10.45 0.65 -12.7 -1.9 -12.9 -2.4 -13.65 L-2.45 -14.1 -2.55 -14.9 -1.35 -15.0 0.25 -15.05 0.65 -15.05 M3.05 -8.75 L2.65 -9.95 3.05 -8.75 M5.4 -2.85 Q5.85 -2.0 5.9 -1.0 6.0 0.85 4.75 2.2 3.55 3.55 1.7 3.65 -0.15 3.75 -1.5 2.6 L-2.1 1.9 -2.65 0.8 -2.1 1.9 -1.5 2.6 Q-0.15 3.75 1.7 3.65 3.55 3.55 4.75 2.2 6.0 0.85 5.9 -1.0 5.85 -2.0 5.4 -2.85 M-5.95 1.6 L-5.65 1.65 -4.85 1.7 Q-3.55 1.6 -2.65 0.75 -3.55 1.6 -4.85 1.7 L-5.65 1.65 -5.95 1.6 M-1.6 10.9 L-1.75 11.1 -1.9 10.95 -2.0 10.5 -1.95 10.0 -1.85 9.75 -1.65 9.95 -1.55 10.45 -1.6 10.9" fill="#ffd0ae" fill-rule="evenodd" stroke="none"/>
    <path d="M1.85 -15.0 L0.65 -15.05 1.8 -15.0 1.85 -15.0 2.2 -15.0 2.2 -14.4 Q2.1 -12.1 2.6 -10.1 L2.65 -9.95 4.4 -9.4 7.0 -8.25 7.4 -8.0 8.75 -7.2 M8.05 -2.8 Q6.75 2.6 3.85 6.1 6.5 8.85 7.1 10.25 L7.8 11.75 8.3 13.45 6.1 14.4 4.25 14.85 M4.15 14.85 L-0.8 15.1 Q-5.35 14.5 -7.0 12.6 -7.05 11.5 -6.7 10.85 -5.8 8.15 -4.1 5.95 -5.6 3.1 -5.95 1.6 L-7.0 1.05 -7.4 0.75 -7.75 0.35 Q-8.25 -0.35 -8.4 -1.3 L-8.5 -1.95 Q-8.6 -3.7 -8.0 -4.6 L-7.6 -5.35 -7.25 -6.85 M-7.5 -10.0 L-4.85 -10.55 -3.85 -10.55 -3.65 -10.55 -2.6 -10.6 Q-2.35 -12.05 -2.4 -13.65 L-2.45 -14.1 -2.55 -14.9 -1.35 -15.0 0.25 -15.05 0.65 -15.05 M2.65 -9.95 L3.05 -8.75 M-0.45 -6.7 L1.8 -6.2 1.9 -6.2 1.85 -6.15 M-2.65 0.8 L-2.1 1.9 -1.5 2.6 Q-0.15 3.75 1.7 3.65 3.55 3.55 4.75 2.2 6.0 0.85 5.9 -1.0 5.85 -2.0 5.4 -2.85 M-0.45 -6.7 L-1.0 -6.85 M-3.8 -10.55 L-3.85 -10.55 M-3.8 -10.55 L-3.65 -10.55 M-2.6 -10.6 Q-2.75 -9.7 -2.95 -9.45 M-4.8 -7.7 L-2.95 -7.3 M-2.65 0.75 L-3.0 -0.4 -3.05 -0.9 M-2.65 0.8 L-2.65 0.75 Q-3.55 1.6 -4.85 1.7 L-5.65 1.65 -5.95 1.6 M-1.6 10.9 L-1.75 11.1 -1.9 10.95 -2.0 10.5 -1.95 10.0 -1.85 9.75 -1.65 9.95 -1.55 10.45 -1.6 10.9" fill="none" stroke="#d7995e" stroke-linecap="round" stroke-linejoin="round" stroke-width="0.05"/>
  </g>
</svg>
