<?xml version="1.0" encoding="UTF-8" standalone="no"?>
<svg xmlns:xlink="http://www.w3.org/1999/xlink" height="25.75px" width="17.5px" xmlns="http://www.w3.org/2000/svg">
  <g transform="matrix(1.0, 0.0, 0.0, 1.0, 8.75, 10.6)">
    <path d="M3.15 -6.6 L3.3 -6.7 Q6.0 -8.0 4.4 -9.4 L7.0 -8.25 7.4 -8.0 7.45 -7.95 8.75 -7.2 Q8.7 -4.8 8.25 -3.1 L7.3 -0.25 Q6.65 0.15 5.85 -1.65 L5.5 -2.7 3.05 -6.55 3.15 -6.6 M-8.2 -4.6 Q-7.55 -5.55 -7.55 -6.75 L-7.55 -6.85 Q-8.1 -9.25 -7.75 -10.0 L-5.35 -10.55 -3.85 -10.55 -3.8 -10.55 Q-4.6 -10.3 -4.9 -9.8 -5.2 -8.9 -4.95 -8.15 L-8.2 -4.6" fill="#8e3939" fill-rule="evenodd" stroke="none"/>
    <path d="M7.3 -0.25 Q6.05 3.45 3.85 6.1 6.5 8.85 7.1 10.25 L7.8 11.75 8.3 13.45 6.1 14.4 4.25 14.85 Q3.85 12.55 4.45 10.15 L4.15 9.5 Q1.6 4.2 -1.3 3.9 -3.85 3.7 -4.1 5.95 -5.6 3.1 -5.95 1.6 -6.85 1.4 -7.5 0.75 L-7.9 0.35 Q-8.5 -0.35 -8.65 -1.3 -8.25 -0.05 -7.15 0.55 L-5.75 0.15 Q-4.45 -0.25 -3.05 0.6 L-0.6 1.8 2.05 1.9 Q3.75 1.65 4.2 0.8 4.85 -0.55 3.95 -3.5 3.4 -4.85 1.85 -6.15 L1.9 -6.2 3.05 -6.6 3.15 -6.6 3.05 -6.55 5.5 -2.7 5.85 -1.65 Q6.65 0.15 7.3 -0.25 M3.05 -6.6 L3.05 -6.55 3.05 -6.6 M-5.95 1.6 L-5.65 1.65 -5.1 1.7 -4.85 1.7 -4.75 1.7 Q-2.75 1.65 -1.65 2.4 L-1.5 2.6 Q-0.15 3.75 1.7 3.65 3.55 3.55 4.75 2.2 6.0 0.85 5.9 -1.0 L5.85 -1.65 5.9 -1.0 Q6.0 0.85 4.75 2.2 3.55 3.55 1.7 3.65 -0.15 3.75 -1.5 2.6 L-1.65 2.4 Q-2.75 1.65 -4.75 1.7 L-4.85 1.7 -5.1 1.7 -5.65 1.65 -5.95 1.6" fill="#e0e0e0" fill-rule="evenodd" stroke="none"/>
    <path d="M4.25 14.85 L4.15 14.85 -0.8 15.1 Q-5.35 14.5 -7.0 12.6 -7.05 11.5 -6.7 10.85 -5.8 8.15 -4.1 5.95 -3.85 3.7 -1.3 3.9 1.6 4.2 4.15 9.5 L4.45 10.15 Q3.85 12.55 4.25 14.85 M-8.65 -1.3 L-8.75 -1.95 Q-8.85 -3.6 -8.3 -4.5 L-8.2 -4.6 -8.3 -4.5 -8.2 -4.6 -4.95 -8.15 -4.8 -7.7 Q-4.3 -6.75 -2.85 -6.1 L-2.25 -6.0 -1.2 -5.85 1.85 -6.15 Q3.4 -4.85 3.95 -3.5 4.85 -0.55 4.2 0.8 3.75 1.65 2.05 1.9 L-0.6 1.8 -3.05 0.6 Q-4.45 -0.25 -5.75 0.15 L-7.15 0.55 Q-8.25 -0.05 -8.65 -1.3" fill="#ffffff" fill-rule="evenodd" stroke="none"/>
    <path d="M1.85 -6.15 L1.9 -6.2 1.85 -6.15" fill="#ffd0ae" fill-rule="evenodd" stroke="none"/>
    <path d="M-3.85 -10.55 L-3.65 -10.55 -3.8 -10.55 -3.85 -10.55 -3.8 -10.55 -3.85 -10.55" fill="#f5dfc5" fill-rule="evenodd" stroke="none"/>
    <path d="M3.15 -6.6 L3.3 -6.7 Q6.0 -8.0 4.4 -9.4 L7.0 -8.25 7.4 -8.0 7.45 -7.95 8.75 -7.2 M8.25 -3.1 L7.3 -0.25 M-8.2 -4.6 Q-7.55 -5.55 -7.55 -6.75 M-7.75 -10.0 L-5.35 -10.55 -3.85 -10.55 -3.65 -10.55 -3.8 -10.55 Q-4.6 -10.3 -4.9 -9.8 -5.2 -8.9 -4.95 -8.15 L-4.8 -7.7 Q-4.3 -6.75 -2.85 -6.1 L-2.25 -6.0 -1.2 -5.85 1.85 -6.15 1.9 -6.2 3.05 -6.6 3.15 -6.6 M-3.8 -10.55 L-3.85 -10.55" fill="none" stroke="#6b2c2c" stroke-linecap="round" stroke-linejoin="round" stroke-width="0.05"/>
    <path d="M7.3 -0.25 Q6.05 3.45 3.85 6.1 6.5 8.85 7.1 10.25 L7.8 11.75 8.3 13.45 6.1 14.4 4.25 14.85 M4.15 14.85 L-0.8 15.1 Q-5.35 14.5 -7.0 12.6 -7.05 11.5 -6.7 10.85 -5.8 8.15 -4.1 5.95 -5.6 3.1 -5.95 1.6 -6.85 1.4 -7.5 0.75 L-7.9 0.35 Q-8.5 -0.35 -8.65 -1.3 L-8.75 -1.95 Q-8.85 -3.6 -8.3 -4.5 L-8.2 -4.6 -8.3 -4.5 M5.5 -2.7 L5.85 -1.65 Q6.65 0.15 7.3 -0.25 M3.05 -6.55 L3.05 -6.6 M5.85 -1.65 L5.9 -1.0 Q6.0 0.85 4.75 2.2 3.55 3.55 1.7 3.65 -0.15 3.75 -1.5 2.6 L-1.65 2.4 Q-2.75 1.65 -4.75 1.7 L-4.85 1.7 -5.1 1.7 -5.65 1.65 -5.95 1.6" fill="none" stroke="#a0a0a0" stroke-linecap="round" stroke-linejoin="round" stroke-width="0.05"/>
  </g>
</svg>
