<?xml version="1.0" encoding="UTF-8" standalone="no"?>
<svg xmlns:xlink="http://www.w3.org/1999/xlink" height="26.85px" width="17.5px" xmlns="http://www.w3.org/2000/svg">
  <g transform="matrix(1.0, 0.0, 0.0, 1.0, 8.75, 10.5)">
    <path d="M0.65 13.1 L0.05 12.05 Q-0.6 11.35 -1.5 11.4 -2.35 11.45 -2.9 12.2 L-3.15 12.65 -4.7 12.2 -6.4 11.5 -6.85 11.3 -6.7 10.85 -5.7 8.5 -5.15 7.55 -4.1 5.95 -4.05 5.75 -3.8 4.95 Q-3.2 3.75 -1.3 3.9 -0.35 4.0 0.55 4.65 L1.95 6.0 2.75 7.05 3.1 7.55 4.05 9.3 4.15 9.5 4.45 10.15 4.45 10.25 Q4.25 10.95 4.2 11.6 L4.1 12.8 4.0 12.8 0.65 13.1 M-8.65 -1.3 L-8.75 -1.95 Q-8.85 -3.7 -8.2 -4.6 -7.6 -5.5 -7.55 -6.15 -7.5 -6.85 -7.6 -7.15 L-7.75 -8.25 -7.6 -9.4 -7.5 -9.95 -6.5 -8.0 -5.85 -7.0 -2.7 -3.35 Q0.35 -3.95 3.15 -4.85 L3.95 -3.5 Q4.85 -0.55 4.2 1.15 3.2 3.1 -0.35 2.35 L-0.55 2.3 -0.55 2.35 -0.7 2.3 -1.15 2.25 -3.05 1.6 -5.85 0.8 -7.15 0.55 Q-8.25 -0.05 -8.65 -1.3" fill="#8db7c0" fill-rule="evenodd" stroke="none"/>
    <path d="M8.75 -7.15 Q8.3 -2.95 7.1 0.35 L5.15 4.35 3.85 6.1 4.65 6.9 6.7 9.5 7.1 10.25 7.6 11.4 7.65 11.45 5.75 12.3 4.1 12.8 4.2 11.6 Q4.25 10.95 4.45 10.25 L4.45 10.15 4.15 9.5 4.05 9.3 3.1 7.55 2.75 7.05 1.95 6.0 0.55 4.65 Q-0.35 4.0 -1.3 3.9 -3.2 3.75 -3.8 4.95 L-4.05 5.75 -4.1 5.95 -4.15 5.8 -4.6 5.0 -5.95 1.6 Q-6.85 1.4 -7.5 0.75 L-7.9 0.35 Q-8.5 -0.35 -8.65 -1.3 -8.25 -0.05 -7.15 0.55 L-5.85 0.8 -3.05 1.6 -1.15 2.25 -0.7 2.3 -0.55 2.35 -0.55 2.3 -0.35 2.35 Q3.2 3.1 4.2 1.15 4.85 -0.55 3.95 -3.5 L3.15 -4.85 4.8 -5.4 8.75 -7.15 M5.4 -2.85 Q5.85 -2.0 5.9 -1.0 6.0 0.85 4.75 2.2 3.55 3.55 1.7 3.65 L-0.25 3.35 -5.45 1.7 -5.65 1.65 -5.95 1.6 -5.65 1.65 -5.45 1.7 -0.25 3.35 1.7 3.65 Q3.55 3.55 4.75 2.2 6.0 0.85 5.9 -1.0 5.85 -2.0 5.4 -2.85" fill="#59929f" fill-rule="evenodd" stroke="none"/>
    <path d="M5.6 -8.9 L5.85 -8.8 7.0 -8.25 7.4 -8.0 8.75 -7.2 8.75 -7.15 4.8 -5.4 Q4.8 -7.25 5.6 -8.9 M3.35 15.25 L0.3 15.65 0.3 15.55 0.55 15.15 0.75 13.8 0.65 13.1 4.0 12.8 Q3.55 13.95 3.4 15.05 L3.35 15.25 M-3.15 12.65 Q-3.45 13.25 -3.4 14.0 L-3.4 14.05 -3.25 14.65 -3.25 14.7 -3.0 15.3 -4.55 14.7 Q-5.95 14.05 -7.1 12.9 -7.35 12.2 -7.2 11.55 L-7.1 11.15 -6.85 11.3 -6.4 11.5 -4.7 12.2 -3.15 12.65 M-7.5 -9.95 L-7.5 -10.0 -6.65 -10.2 -5.25 -10.5 Q-5.85 -8.9 -5.85 -7.0 L-6.5 -8.0 -7.5 -9.95" fill="#d7ebfd" fill-rule="evenodd" stroke="none"/>
    <path d="M0.3 15.65 L0.25 15.65 0.3 15.55 0.3 15.65" fill="#de8db3" fill-rule="evenodd" stroke="none"/>
    <path d="M7.65 11.45 Q8.65 12.3 8.5 13.75 L3.35 15.25 3.4 15.05 Q3.55 13.95 4.0 12.8 L4.1 12.8 5.75 12.3 7.65 11.45" fill="#aedbfb" fill-rule="evenodd" stroke="none"/>
    <path d="M5.6 -8.9 L5.85 -8.8 7.0 -8.25 7.4 -8.0 8.75 -7.2 8.75 -7.15 Q8.3 -2.95 7.1 0.35 L5.15 4.35 3.85 6.1 4.65 6.9 6.7 9.5 7.1 10.25 7.6 11.4 7.65 11.45 M-6.85 11.3 L-6.7 10.85 -5.7 8.5 -5.15 7.55 -4.1 5.95 -4.15 5.8 -4.6 5.0 -5.95 1.6 Q-6.85 1.4 -7.5 0.75 L-7.9 0.35 Q-8.5 -0.35 -8.65 -1.3 L-8.75 -1.95 Q-8.85 -3.7 -8.2 -4.6 -7.6 -5.5 -7.55 -6.15 -7.5 -6.85 -7.6 -7.15 M-7.5 -10.0 L-6.65 -10.2 -5.25 -10.5 M-2.7 -3.35 Q0.35 -3.95 3.15 -4.85 L4.8 -5.4 8.75 -7.15 M-5.95 1.6 L-5.65 1.65 -5.45 1.7 -0.25 3.35 1.7 3.65 Q3.55 3.55 4.75 2.2 6.0 0.85 5.9 -1.0 5.85 -2.0 5.4 -2.85" fill="none" stroke="#305054" stroke-linecap="round" stroke-linejoin="round" stroke-width="0.05"/>
    <path d="M-5.25 -10.5 Q-5.85 -8.9 -5.85 -7.0 L-2.7 -3.35 M4.8 -5.4 Q4.8 -7.25 5.6 -8.9 M-7.5 -9.95 L-6.5 -8.0 -5.85 -7.0" fill="none" stroke="#305054" stroke-linecap="round" stroke-linejoin="round" stroke-width="0.05"/>
    <path d="M7.65 11.45 Q8.65 12.3 8.5 13.75 L3.35 15.25 0.3 15.65 0.25 15.65 M-3.0 15.3 L-4.55 14.7 Q-5.95 14.05 -7.1 12.9 -7.35 12.2 -7.2 11.55 L-7.1 11.15 -6.85 11.3 -6.4 11.5 -4.7 12.2 -3.15 12.65 M4.1 12.8 L5.75 12.3 7.65 11.45 M4.0 12.8 L0.65 13.1 M4.0 12.8 L4.1 12.8" fill="none" stroke="#b03573" stroke-linecap="round" stroke-linejoin="round" stroke-width="0.05"/>
    <path d="M0.75 13.8 L0.55 15.15 0.3 15.55 0.25 15.65 Q-0.3 16.3 -1.15 16.35 -2.0 16.4 -2.65 15.7 L-3.0 15.3 -3.25 14.7 -3.25 14.65 -3.4 14.05 -3.4 14.0 Q-3.45 13.25 -3.15 12.65 L-2.9 12.2 Q-2.35 11.45 -1.5 11.4 -0.6 11.35 0.05 12.05 L0.65 13.1 0.75 13.8 M0.05 15.15 L0.3 13.85 0.15 13.1 Q0.0 12.65 -0.3 12.3 -0.9 11.7 -1.65 11.75 -2.4 11.75 -2.85 12.45 L-3.0 12.7 Q-3.35 13.3 -3.3 14.0 L-3.15 14.65 -2.8 15.35 -2.65 15.5 Q-2.1 16.1 -1.35 16.05 -0.75 16.0 -0.35 15.65 L-0.1 15.35 0.05 15.15" fill="#59929f" fill-rule="evenodd" stroke="none"/>
    <path d="M0.05 15.15 L-0.1 15.35 -0.35 15.65 Q-0.75 16.0 -1.35 16.05 -2.1 16.1 -2.65 15.5 L-2.8 15.35 -3.15 14.65 -3.3 14.0 Q-3.35 13.3 -3.0 12.7 L-2.85 12.45 Q-2.4 11.75 -1.65 11.75 -0.9 11.7 -0.3 12.3 0.0 12.65 0.15 13.1 L0.3 13.85 0.05 15.15 M-2.45 13.55 L-2.05 13.65 Q-1.85 13.65 -1.75 13.5 L-1.65 13.2 -1.75 12.9 -1.8 12.85 Q-1.9 12.7 -2.1 12.7 L-2.4 12.8 -2.45 12.85 -2.6 13.25 -2.45 13.55" fill="#e7cd78" fill-rule="evenodd" stroke="none"/>
    <path d="M-2.45 13.55 L-2.6 13.25 -2.45 12.85 -2.4 12.8 -2.1 12.7 Q-1.9 12.7 -1.8 12.85 L-1.75 12.9 -1.65 13.2 -1.75 13.5 Q-1.85 13.65 -2.05 13.65 L-2.45 13.55" fill="#ffffff" fill-rule="evenodd" stroke="none"/>
    <path d="M0.75 13.8 L0.55 15.15 0.3 15.55 0.25 15.65 Q-0.3 16.3 -1.15 16.35 -2.0 16.4 -2.65 15.7 L-3.0 15.3 -3.25 14.7 -3.25 14.65 -3.4 14.05 -3.4 14.0 Q-3.45 13.25 -3.15 12.65 L-2.9 12.2 Q-2.35 11.45 -1.5 11.4 -0.6 11.35 0.05 12.05 L0.65 13.1 0.75 13.8 Z" fill="none" stroke="#b03573" stroke-linecap="round" stroke-linejoin="round" stroke-width="0.05"/>
    <path d="M-4.3 -2.55 L-4.1 -2.8 Q-3.8 -3.3 -3.25 -3.3 -2.7 -3.35 -2.3 -2.9 L-1.95 -2.3 -1.9 -1.85 -2.0 -1.0 -2.15 -0.75 -2.2 -0.7 Q-2.55 -0.3 -3.05 -0.25 -3.55 -0.25 -3.95 -0.65 L-4.2 -0.95 -4.35 -1.3 -4.35 -1.35 -4.45 -1.7 -4.45 -1.75 -4.3 -2.55 M-4.2 -2.55 L-4.4 -1.7 -4.3 -1.3 -4.05 -0.9 -3.95 -0.8 Q-3.65 -0.45 -3.15 -0.45 L-2.55 -0.7 -2.4 -0.9 -2.3 -1.0 -2.15 -1.8 -2.25 -2.3 -2.55 -2.75 Q-2.9 -3.15 -3.35 -3.1 -3.85 -3.1 -4.1 -2.7 L-4.2 -2.55" fill="#59929f" fill-rule="evenodd" stroke="none"/>
    <path d="M-3.45 -2.4 L-3.4 -2.4 -3.35 -2.2 -3.4 -2.0 -3.6 -1.95 -3.85 -2.0 -3.95 -2.15 -3.85 -2.4 -3.8 -2.45 -3.65 -2.5 -3.45 -2.4" fill="#ffffff" fill-rule="evenodd" stroke="none"/>
    <path d="M-3.45 -2.4 L-3.65 -2.5 -3.8 -2.45 -3.85 -2.4 -3.95 -2.15 -3.85 -2.0 -3.6 -1.95 -3.4 -2.0 -3.35 -2.2 -3.4 -2.4 -3.45 -2.4 M-4.2 -2.55 L-4.1 -2.7 Q-3.85 -3.1 -3.35 -3.1 -2.9 -3.15 -2.55 -2.75 L-2.25 -2.3 -2.15 -1.8 -2.3 -1.0 -2.4 -0.9 -2.55 -0.7 -3.15 -0.45 Q-3.65 -0.45 -3.95 -0.8 L-4.05 -0.9 -4.3 -1.3 -4.4 -1.7 -4.2 -2.55" fill="#d7ebfd" fill-rule="evenodd" stroke="none"/>
    <path d="M-4.3 -2.55 L-4.1 -2.8 Q-3.8 -3.3 -3.25 -3.3 -2.7 -3.35 -2.3 -2.9 L-1.95 -2.3 -1.9 -1.85 -2.0 -1.0 -2.15 -0.75 -2.2 -0.7 Q-2.55 -0.3 -3.05 -0.25 -3.55 -0.25 -3.95 -0.65 L-4.2 -0.95 -4.35 -1.3 -4.35 -1.35 -4.45 -1.7 -4.45 -1.75 -4.3 -2.55 Z" fill="none" stroke="#b03573" stroke-linecap="round" stroke-linejoin="round" stroke-width="0.05"/>
  </g>
</svg>
