<?xml version="1.0" encoding="UTF-8" standalone="no"?>
<svg xmlns:xlink="http://www.w3.org/1999/xlink" height="27.5px" width="17.5px" xmlns="http://www.w3.org/2000/svg">
  <g transform="matrix(1.0, 0.0, 0.0, 1.0, 8.75, 11.85)">
    <path d="M-2.7 -10.7 L-2.7 -9.95 -2.7 -10.7 M4.1 -9.55 L4.15 -9.55 4.1 -9.55" fill="#8db7c0" fill-rule="evenodd" stroke="none"/>
    <path d="M0.3 15.65 L0.25 15.65 0.3 15.55 0.3 15.65" fill="#de8db3" fill-rule="evenodd" stroke="none"/>
    <path d="M-4.7 -10.6 L-3.75 -10.7 -2.5 -11.65 -2.7 -10.7 -2.7 -9.95 -2.7 -9.3 -2.7 -3.45 -2.7 -3.35 1.5 -5.85 1.4 -6.35 1.5 -6.45 1.3 -7.6 1.25 -7.7 3.1 -6.95 3.05 -6.95 3.35 -5.75 Q0.6 -3.25 -3.5 -1.2 L-3.5 -1.25 Q-4.5 -4.8 -4.65 -8.25 L-3.2 -8.65 -2.7 -9.3 -4.7 -8.75 -4.95 -8.7 -5.5 -8.55 -4.7 -9.5 -3.75 -10.7 -4.7 -9.5 -4.7 -10.6 M-2.6 -3.45 L1.15 -8.25 1.2 -8.3 2.65 -10.2 Q2.25 -10.35 2.35 -11.85 L4.1 -9.55 4.8 -7.25 4.95 -6.7 4.5 -6.9 1.15 -8.25 1.25 -7.7 1.3 -7.6 1.5 -6.45 1.4 -6.35 -2.6 -3.45 M-3.65 -7.55 L-3.75 -7.9 -3.75 -7.95 -3.2 -8.65 -3.75 -7.95 -3.75 -7.9 -3.65 -7.55 -3.8 -7.35 -3.0 -3.9 -2.75 -3.4 -2.7 -3.45 -3.65 -7.55" fill="#ffffff" fill-rule="evenodd" stroke="none"/>
    <path d="M-4.1 5.95 L-4.15 5.8 -4.05 5.8 -4.1 5.95 M-2.7 -3.35 L-2.65 -3.4 -2.6 -3.45 1.4 -6.35 1.5 -5.85 -2.7 -3.35 M4.15 -9.55 L5.85 -8.8 5.95 -8.75 5.1 -7.6 4.8 -7.25 4.1 -9.55 4.15 -9.55 M4.5 -6.9 L3.35 -5.75 3.05 -6.95 3.1 -6.95 1.25 -7.7 1.15 -8.25 4.5 -6.9 M-3.0 2.45 L-3.0 2.5 -3.05 2.5 -3.0 2.45 M-4.7 -8.75 L-2.7 -9.3 -3.2 -8.65 -4.65 -8.25 -4.7 -8.75 M-3.65 -7.55 L-2.7 -3.45 -2.75 -3.4 -3.0 -3.9 -3.8 -7.35 -3.65 -7.55" fill="#d1d1d1" fill-rule="evenodd" stroke="none"/>
    <path d="M3.35 15.25 L0.3 15.65 0.3 15.55 0.25 15.65 -1.05 15.55 -2.5 15.3 -4.35 14.75 -7.1 12.9 Q-7.35 12.2 -7.2 11.55 L-7.1 11.15 -6.85 11.3 -6.7 10.85 -5.7 8.5 -5.15 7.55 -4.8 7.0 -4.1 5.95 -4.05 5.8 -4.05 5.75 -3.8 4.95 Q-3.45 4.25 -2.65 4.0 L-1.3 3.9 Q-0.35 4.0 0.55 4.65 L1.95 6.0 2.4 6.5 2.75 7.05 3.1 7.55 4.05 9.3 4.15 9.5 4.45 10.15 4.45 10.25 Q4.25 10.95 4.2 11.6 L4.1 12.8 4.0 12.8 Q3.55 13.95 3.4 15.05 L3.35 15.25 M-8.65 -1.3 L-8.75 -1.95 Q-8.85 -3.7 -8.2 -4.6 -7.6 -5.5 -7.55 -6.15 -7.5 -6.85 -7.6 -7.15 L-7.75 -8.25 -7.6 -9.4 -7.5 -9.8 -7.5 -9.95 -7.5 -10.0 -5.8 -10.4 -4.7 -10.6 -4.7 -9.5 -5.5 -8.55 -4.95 -8.7 -5.55 -8.0 -4.65 -8.25 Q-4.5 -4.8 -3.5 -1.25 L-3.5 -1.2 Q0.6 -3.25 3.35 -5.75 L3.95 -3.5 4.45 -0.95 Q4.55 0.25 4.2 1.15 3.2 3.1 -0.35 2.35 L-0.55 2.3 -0.55 2.35 -0.7 2.3 -1.15 2.25 -3.05 1.6 -3.9 1.3 -3.75 -0.45 -3.5 -1.2 -3.75 -0.45 -3.9 1.3 -5.85 0.8 -7.15 0.55 Q-8.25 -0.05 -8.65 -1.3 M4.0 12.8 Q2.6 13.0 -2.65 12.7 -2.05 8.5 -2.65 4.0 -2.05 8.5 -2.65 12.7 2.6 13.0 4.0 12.8 M-6.85 11.3 L-6.4 11.5 -4.7 12.2 -3.15 12.65 -2.65 12.7 -3.15 12.65 -4.7 12.2 -6.4 11.5 -6.85 11.3 M-2.5 15.3 Q-3.3 14.45 -2.65 12.7 -3.3 14.45 -2.5 15.3" fill="#e89a71" fill-rule="evenodd" stroke="none"/>
    <path d="M5.95 -8.75 L6.2 -8.65 7.0 -8.25 7.4 -8.0 8.1 -7.6 8.75 -7.2 8.75 -7.15 8.35 -4.3 7.6 -1.15 7.1 0.35 5.15 4.35 3.85 6.1 4.15 6.4 4.65 6.9 6.7 9.5 7.1 10.25 7.6 11.4 7.65 11.45 Q8.65 12.3 8.5 13.75 L3.35 15.25 3.4 15.05 Q3.55 13.95 4.0 12.8 L4.1 12.8 4.2 11.6 Q4.25 10.95 4.45 10.25 L4.45 10.15 4.15 9.5 4.05 9.3 3.1 7.55 2.75 7.05 2.4 6.5 1.95 6.0 0.55 4.65 Q-0.35 4.0 -1.3 3.9 L-2.65 4.0 Q-3.45 4.25 -3.8 4.95 L-4.05 5.75 -4.05 5.8 -4.15 5.8 -4.6 5.0 -5.95 1.6 Q-6.85 1.4 -7.5 0.75 L-7.9 0.35 Q-8.5 -0.35 -8.65 -1.3 -8.25 -0.05 -7.15 0.55 L-5.85 0.8 -3.9 1.3 -3.05 1.6 -1.15 2.25 -0.7 2.3 -0.55 2.35 -0.55 2.3 -0.35 2.35 Q3.2 3.1 4.2 1.15 4.55 0.25 4.45 -0.95 L3.95 -3.5 3.35 -5.75 4.5 -6.9 4.95 -6.7 4.8 -7.25 5.1 -7.6 5.95 -8.75 M-3.0 2.45 Q-3.75 2.05 -3.9 1.3 -3.75 2.05 -3.0 2.45 L-3.05 2.5 -3.0 2.5 -3.0 2.45 M5.4 -2.85 Q5.85 -2.05 5.9 -1.05 L5.9 -1.0 Q6.0 0.85 4.75 2.2 3.55 3.55 1.7 3.65 L-0.25 3.35 -3.0 2.5 -0.25 3.35 1.7 3.65 Q3.55 3.55 4.75 2.2 6.0 0.85 5.9 -1.0 L5.9 -1.05 Q5.85 -2.05 5.4 -2.85 M7.65 11.45 L5.75 12.3 4.1 12.8 5.75 12.3 7.65 11.45 M-4.95 -8.7 L-4.7 -8.75 -4.65 -8.25 -5.55 -8.0 -4.95 -8.7 M-5.95 1.6 L-5.65 1.65 -5.45 1.7 -3.05 2.5 -5.45 1.7 -5.65 1.65 -5.95 1.6 M-3.0 2.5 L-2.65 4.0 -3.0 2.5" fill="#de7238" fill-rule="evenodd" stroke="none"/>
    <path d="M-4.1 5.95 L-4.15 5.8" fill="none" stroke="#305054" stroke-linecap="round" stroke-linejoin="round" stroke-width="0.05"/>
    <path d="M-4.7 -10.6 L-3.75 -10.7 -2.5 -11.65 M2.35 -11.85 L4.1 -9.55 4.15 -9.55 5.85 -8.8 5.95 -8.75 M4.8 -7.25 L4.95 -6.7 M4.1 -9.55 L4.8 -7.25 M-4.7 -9.5 L-3.75 -10.7 M-4.7 -9.5 L-5.5 -8.55 M-4.65 -8.25 L-4.7 -8.75" fill="none" stroke="#666666" stroke-linecap="round" stroke-linejoin="round" stroke-width="0.05"/>
    <path d="M-2.5 -11.65 L-2.7 -10.7 -2.7 -9.95 -2.7 -9.3 -2.7 -3.45 -2.7 -3.35 -2.65 -3.4 -2.6 -3.45 1.15 -8.25 1.2 -8.3 2.65 -10.2 Q2.25 -10.35 2.35 -11.85 M4.95 -6.7 L4.5 -6.9 1.15 -8.25 1.25 -7.7 1.3 -7.6 1.5 -6.45 1.4 -6.35 -2.6 -3.45 M-5.5 -8.55 L-4.95 -8.7 -4.7 -8.75 -2.7 -9.3 -3.2 -8.65 -3.75 -7.95 -3.75 -7.9 -3.65 -7.55 -2.7 -3.45 M-2.7 -10.7 L-2.7 -9.95" fill="none" stroke="#666666" stroke-linecap="round" stroke-linejoin="round" stroke-width="0.05"/>
    <path d="M5.95 -8.75 L6.2 -8.65 7.0 -8.25 7.4 -8.0 8.1 -7.6 8.75 -7.2 8.75 -7.15 8.35 -4.3 7.6 -1.15 7.1 0.35 5.15 4.35 3.85 6.1 4.15 6.4 4.65 6.9 6.7 9.5 7.1 10.25 7.6 11.4 7.65 11.45 M-6.85 11.3 L-6.7 10.85 -5.7 8.5 -5.15 7.55 -4.8 7.0 -4.1 5.95 M-4.15 5.8 L-4.6 5.0 -5.95 1.6 Q-6.85 1.4 -7.5 0.75 L-7.9 0.35 Q-8.5 -0.35 -8.65 -1.3 L-8.75 -1.95 Q-8.85 -3.7 -8.2 -4.6 -7.6 -5.5 -7.55 -6.15 -7.5 -6.85 -7.6 -7.15 L-7.75 -8.25 -7.6 -9.4 -7.5 -9.8 -7.5 -9.95 -7.5 -10.0 -5.8 -10.4 -4.7 -10.6 -4.7 -9.5 M-3.0 2.5 L-0.25 3.35 1.7 3.65 Q3.55 3.55 4.75 2.2 6.0 0.85 5.9 -1.0 L5.9 -1.05 Q5.85 -2.05 5.4 -2.85 M-3.5 -1.25 Q-4.5 -4.8 -4.65 -8.25 M-3.0 2.5 L-3.05 2.5 -5.45 1.7 -5.65 1.65 -5.95 1.6 M-2.65 12.7 Q-3.3 14.45 -2.5 15.3" fill="none" stroke="#9b3d1a" stroke-linecap="round" stroke-linejoin="round" stroke-width="0.05"/>
    <path d="M7.65 11.45 Q8.65 12.3 8.5 13.75 L3.35 15.25 0.3 15.65 0.25 15.65 -1.05 15.55 -2.5 15.3 -4.35 14.75 -7.1 12.9 Q-7.35 12.2 -7.2 11.55 L-7.1 11.15 -6.85 11.3 -6.4 11.5 -4.7 12.2 -3.15 12.65 -2.65 12.7 Q2.6 13.0 4.0 12.8 L4.1 12.8 5.75 12.3 7.65 11.45 M5.95 -8.75 L5.1 -7.6 4.8 -7.25 M4.5 -6.9 L3.35 -5.75 Q0.6 -3.25 -3.5 -1.2 L-3.75 -0.45 -3.9 1.3 Q-3.75 2.05 -3.0 2.45 L-3.0 2.5 -2.65 4.0 Q-2.05 8.5 -2.65 12.7 M-3.5 -1.2 L-3.5 -1.25" fill="none" stroke="#9b3d1a" stroke-linecap="round" stroke-linejoin="round" stroke-width="0.05"/>
  </g>
</svg>
