<?xml version="1.0" encoding="UTF-8" standalone="no"?>
<svg xmlns:xlink="http://www.w3.org/1999/xlink" height="26.8px" width="17.5px" xmlns="http://www.w3.org/2000/svg">
  <g transform="matrix(1.0, 0.0, 0.0, 1.0, 8.75, 11.15)">
    <path d="M-3.0 2.45 L-3.0 2.5 -3.05 2.5 -3.0 2.45" fill="#d1d1d1" fill-rule="evenodd" stroke="none"/>
    <path d="M0.3 15.65 L0.25 15.65 0.3 15.55 0.3 15.65" fill="#de8db3" fill-rule="evenodd" stroke="none"/>
    <path d="M5.95 -8.7 L5.95 -8.75 6.2 -8.65 6.55 -8.45 7.0 -8.25 7.4 -8.0 8.1 -7.6 8.75 -7.2 8.75 -7.15 8.35 -4.3 7.6 -1.15 7.1 0.35 5.15 4.35 3.85 6.1 4.15 6.4 4.65 6.9 6.7 9.5 7.1 10.25 7.6 11.4 7.65 11.45 5.75 12.3 4.95 12.5 4.1 12.8 4.2 11.6 Q4.25 10.95 4.45 10.25 L4.45 10.15 4.15 9.5 4.05 9.3 3.1 7.55 2.75 7.05 2.4 6.5 1.95 6.0 0.55 4.65 Q-0.35 4.0 -1.3 3.9 L-2.65 4.0 Q-3.45 4.25 -3.8 4.95 L-4.1 5.95 -4.15 5.8 -4.6 5.0 -5.95 1.6 Q-6.85 1.4 -7.5 0.75 L-7.9 0.35 Q-8.5 -0.35 -8.65 -1.3 -8.25 -0.05 -7.15 0.55 L-5.85 0.8 -3.9 1.3 -3.05 1.6 -1.15 2.25 -0.7 2.3 -0.55 2.35 -0.55 2.3 -0.35 2.35 Q3.2 3.1 4.2 1.15 4.55 0.25 4.45 -0.95 L4.4 -1.65 4.1 -3.6 2.25 -8.0 2.4 -7.85 2.25 -8.05 3.75 -9.75 5.95 -8.7 M5.4 -2.85 L5.8 -1.75 5.9 -1.05 5.9 -1.0 Q6.0 0.85 4.75 2.2 3.55 3.55 1.7 3.65 L-0.25 3.35 -3.0 2.5 -0.25 3.35 1.7 3.65 Q3.55 3.55 4.75 2.2 6.0 0.85 5.9 -1.0 L5.9 -1.05 5.8 -1.75 5.4 -2.85 M-3.05 2.5 L-3.0 2.5 -3.0 2.45 -3.05 2.5 -5.45 1.7 -5.65 1.65 -5.95 1.6 -5.65 1.65 -5.45 1.7 -3.05 2.5 M-4.15 5.8 L-4.1 5.95 -4.15 5.8" fill="#333333" fill-rule="evenodd" stroke="none"/>
    <path d="M-6.85 11.3 L-6.7 10.85 -5.7 8.5 -5.15 7.55 -4.8 7.0 -4.1 5.95 -3.8 4.95 Q-3.45 4.25 -2.65 4.0 L-1.3 3.9 Q-0.35 4.0 0.55 4.65 L1.95 6.0 2.4 6.5 2.75 7.05 3.1 7.55 4.05 9.3 4.15 9.5 4.45 10.15 4.45 10.25 Q4.25 10.95 4.2 11.6 L4.1 12.8 4.0 12.8 1.5 12.9 -2.65 12.7 -3.15 12.65 -4.7 12.2 -5.15 12.05 -6.4 11.5 -6.85 11.3 M-8.65 -1.3 L-8.75 -1.95 Q-8.85 -3.7 -8.2 -4.6 -7.6 -5.5 -7.55 -6.15 -7.5 -6.85 -7.6 -7.1 L-7.6 -7.15 -7.75 -8.25 -7.6 -9.4 -7.5 -9.8 -7.5 -9.95 -7.5 -10.0 -7.25 -10.05 -5.8 -10.4 -5.65 -10.45 -4.7 -10.6 -3.75 -10.7 -3.45 -10.7 Q-3.9 -9.3 -3.8 -8.4 -3.7 -6.95 -2.25 -6.65 L-2.1 -6.6 Q-0.6 -6.35 1.75 -7.7 L2.25 -8.05 2.4 -7.85 2.25 -8.0 4.1 -3.6 4.4 -1.65 4.45 -0.95 Q4.55 0.25 4.2 1.15 3.2 3.1 -0.35 2.35 L-0.55 2.3 -0.55 2.35 -0.7 2.3 -1.15 2.25 -3.05 1.6 -3.9 1.3 -5.85 0.8 -7.15 0.55 Q-8.25 -0.05 -8.65 -1.3" fill="#5e5e5e" fill-rule="evenodd" stroke="none"/>
    <path d="M3.35 15.25 L1.7 15.55 0.3 15.65 0.3 15.55 0.25 15.65 -1.05 15.55 -2.5 15.3 -4.35 14.75 -5.35 14.25 -7.1 12.9 Q-7.35 12.2 -7.2 11.55 L-7.1 11.15 -6.85 11.3 -6.4 11.5 -5.15 12.05 -4.7 12.2 -3.15 12.65 -2.65 12.7 Q-3.3 14.45 -2.5 15.3 -3.3 14.45 -2.65 12.7 L1.5 12.9 4.0 12.8 Q3.55 13.95 3.4 15.05 L3.35 15.25 M-3.45 -10.7 Q-3.0 -11.3 -2.5 -11.1 L-2.65 -9.1 Q-2.4 -8.15 -1.7 -7.95 -0.8 -7.65 0.9 -8.65 L1.55 -9.05 Q2.05 -8.75 2.25 -8.05 L1.75 -7.7 Q-0.6 -6.35 -2.1 -6.6 L-2.25 -6.65 Q-3.7 -6.95 -3.8 -8.4 -3.9 -9.3 -3.45 -10.7 M0.9 -8.65 Q1.5 -8.5 1.75 -7.7 1.5 -8.5 0.9 -8.65 M1.7 15.55 Q1.3 14.1 1.5 12.9 1.3 14.1 1.7 15.55 M-1.7 -7.95 Q-2.4 -7.35 -2.1 -6.6 -2.4 -7.35 -1.7 -7.95 M-3.8 -8.4 Q-3.6 -9.1 -2.65 -9.1 -3.6 -9.1 -3.8 -8.4 M-5.35 14.25 Q-5.9 13.0 -5.15 12.05 -5.9 13.0 -5.35 14.25" fill="#737373" fill-rule="evenodd" stroke="none"/>
    <path d="M7.65 11.45 Q8.65 12.3 8.5 13.75 L5.15 14.85 3.35 15.25 3.4 15.05 Q3.55 13.95 4.0 12.8 L4.1 12.8 4.95 12.5 5.75 12.3 7.65 11.45 M1.55 -9.05 Q2.4 -9.65 2.55 -10.55 3.3 -10.7 3.75 -9.75 L2.25 -8.05 Q2.05 -8.75 1.55 -9.05 M5.15 14.85 Q5.65 13.65 4.95 12.5 5.65 13.65 5.15 14.85" fill="#555555" fill-rule="evenodd" stroke="none"/>
    <path d="M5.95 -8.75 L6.2 -8.65 6.55 -8.45 7.0 -8.25 7.4 -8.0 8.1 -7.6 8.75 -7.2 8.75 -7.15 8.35 -4.3 7.6 -1.15 7.1 0.35 5.15 4.35 3.85 6.1 4.15 6.4 4.65 6.9 6.7 9.5 7.1 10.25 7.6 11.4 7.65 11.45 Q8.65 12.3 8.5 13.75 L5.15 14.85 3.35 15.25 1.7 15.55 0.3 15.65 0.25 15.65 -1.05 15.55 -2.5 15.3 -4.35 14.75 -5.35 14.25 -7.1 12.9 Q-7.35 12.2 -7.2 11.55 L-7.1 11.15 -6.85 11.3 -6.7 10.85 -5.7 8.5 -5.15 7.55 -4.8 7.0 -4.1 5.95 M-4.15 5.8 L-4.6 5.0 -5.95 1.6 Q-6.85 1.4 -7.5 0.75 L-7.9 0.35 Q-8.5 -0.35 -8.65 -1.3 L-8.75 -1.95 Q-8.85 -3.7 -8.2 -4.6 -7.6 -5.5 -7.55 -6.15 -7.5 -6.85 -7.6 -7.1 L-7.6 -7.15 M-7.5 -10.0 L-7.25 -10.05 -5.8 -10.4 -5.65 -10.45 -4.7 -10.6 M-2.5 -11.1 L-2.65 -9.1 Q-2.4 -8.15 -1.7 -7.95 -0.8 -7.65 0.9 -8.65 L1.55 -9.05 Q2.4 -9.65 2.55 -10.55 M2.25 -8.05 L1.75 -7.7 Q-0.6 -6.35 -2.1 -6.6 L-2.25 -6.65 Q-3.7 -6.95 -3.8 -8.4 -3.9 -9.3 -3.45 -10.7 M1.75 -7.7 Q1.5 -8.5 0.9 -8.65 M2.25 -8.05 L3.75 -9.75 M-3.0 2.5 L-0.25 3.35 1.7 3.65 Q3.55 3.55 4.75 2.2 6.0 0.85 5.9 -1.0 L5.9 -1.05 5.8 -1.75 5.4 -2.85 M7.65 11.45 L5.75 12.3 4.95 12.5 Q5.65 13.65 5.15 14.85 M4.1 12.8 L4.0 12.8 1.5 12.9 Q1.3 14.1 1.7 15.55 M4.95 12.5 L4.1 12.8 M-2.65 -9.1 Q-3.6 -9.1 -3.8 -8.4 M-2.1 -6.6 Q-2.4 -7.35 -1.7 -7.95 M-3.05 2.5 L-3.0 2.5 -3.0 2.45 M-3.05 2.5 L-5.45 1.7 -5.65 1.65 -5.95 1.6 M-5.15 12.05 L-6.4 11.5 -6.85 11.3 M-2.65 12.7 L-3.15 12.65 -4.7 12.2 -5.15 12.05 Q-5.9 13.0 -5.35 14.25 M-2.5 15.3 Q-3.3 14.45 -2.65 12.7 L1.5 12.9" fill="none" stroke="#000000" stroke-linecap="round" stroke-linejoin="round" stroke-width="0.05"/>
    <path d="M-4.7 -10.6 L-3.75 -10.7 -3.45 -10.7 Q-3.0 -11.3 -2.5 -11.1 M2.55 -10.55 Q3.3 -10.7 3.75 -9.75 L5.95 -8.7 M-4.1 5.95 L-4.15 5.8" fill="none" stroke="#000000" stroke-linecap="round" stroke-linejoin="round" stroke-width="0.05"/>
  </g>
</svg>
