<?xml version="1.0" encoding="UTF-8" standalone="no"?>
<svg xmlns:xlink="http://www.w3.org/1999/xlink" height="27.85px" width="17.25px" xmlns="http://www.w3.org/2000/svg">
  <g transform="matrix(1.0, 0.0, 0.0, 1.0, 8.75, 11.5)">
    <path d="M2.55 -10.35 L2.6 -10.1 4.25 -9.6 4.3 -9.45 Q4.2 -7.35 4.55 -5.5 4.85 -3.95 5.55 -2.6 L5.85 -1.65 Q6.65 0.15 7.3 -0.25 L7.1 0.3 6.65 1.45 6.05 2.7 4.85 4.8 4.8 4.8 4.65 5.1 3.85 6.1 4.55 6.85 4.6 6.9 4.35 6.95 3.6 7.15 2.9 7.3 2.9 7.25 1.05 5.05 Q-0.1 4.05 -1.3 3.9 L-2.0 3.9 -2.4 3.95 -2.5 4.0 Q-3.65 4.25 -3.95 5.35 L-4.1 5.95 -4.4 5.4 -5.6 2.7 -5.75 2.35 -5.95 1.6 Q-6.85 1.4 -7.5 0.75 L-7.8 0.45 -7.9 0.35 -8.1 0.15 -8.2 0.0 -8.3 -0.2 -8.65 -1.3 Q-8.25 -0.05 -7.15 0.55 L-6.8 0.5 -5.75 0.15 Q-4.45 -0.25 -3.05 0.6 L-2.6 0.85 -0.6 1.8 2.05 1.9 Q3.75 1.65 4.2 0.8 L4.5 -0.55 4.05 -3.1 4.05 -3.2 4.0 -3.4 3.95 -3.5 2.65 -5.4 2.6 -5.45 1.85 -6.15 0.9 -5.95 Q-1.6 -6.8 -1.0 -6.8 L-0.55 -6.75 -0.45 -6.7 1.9 -6.9 1.55 -9.9 2.55 -10.35 M1.85 -6.15 L1.9 -6.2 1.85 -6.15 M3.05 -8.75 L2.8 -9.5 2.65 -9.95 2.6 -10.1 2.65 -9.95 2.8 -9.5 3.05 -8.75 M-5.95 1.6 L-5.65 1.65 -5.4 1.7 -5.1 1.7 -4.85 1.7 -4.75 1.7 Q-2.75 1.65 -1.5 2.6 L-0.55 3.2 0.3 3.55 1.1 3.65 1.2 3.65 1.7 3.65 Q3.55 3.55 4.75 2.2 L4.9 2.05 Q5.95 0.75 5.9 -0.9 L5.9 -1.0 5.85 -1.65 5.9 -1.0 5.9 -0.9 Q5.95 0.75 4.9 2.05 L4.75 2.2 Q3.55 3.55 1.7 3.65 L1.2 3.65 1.1 3.65 0.3 3.55 -0.55 3.2 -1.5 2.6 Q-2.75 1.65 -4.75 1.7 L-4.85 1.7 -5.1 1.7 -5.4 1.7 -5.65 1.65 -5.95 1.6" fill="#e0e0e0" fill-rule="evenodd" stroke="none"/>
    <path d="M0.3 15.65 L0.25 15.65 0.3 15.55 0.3 15.65" fill="#de8db3" fill-rule="evenodd" stroke="none"/>
    <path d="M-4.4 6.4 L-4.3 6.25 -4.1 5.95 -3.95 5.35 Q-3.65 4.25 -2.5 4.0 L-2.4 3.95 -2.0 3.9 -1.3 3.9 Q-0.1 4.05 1.05 5.05 L2.9 7.25 2.9 7.3 2.7 7.35 Q-1.5 8.05 -4.4 6.4 M-8.65 -1.3 L-8.7 -1.7 -8.75 -1.95 Q-8.85 -3.25 -8.5 -4.1 L-8.3 -4.5 -8.2 -4.6 -8.1 -4.7 -6.85 -6.2 -6.05 -7.2 -3.45 -10.55 -3.4 -10.55 -2.95 -10.55 -2.6 -10.45 -2.65 -10.4 -2.6 -10.4 Q-2.6 -7.85 1.55 -9.9 L1.9 -6.9 -0.45 -6.7 -0.55 -6.75 -1.0 -6.8 Q-1.6 -6.8 0.9 -5.95 L1.85 -6.15 2.6 -5.45 2.65 -5.4 3.95 -3.5 4.0 -3.4 4.05 -3.2 4.05 -3.1 4.5 -0.55 4.2 0.8 Q3.75 1.65 2.05 1.9 L-0.6 1.8 -2.6 0.85 -3.05 0.6 Q-4.45 -0.25 -5.75 0.15 L-6.8 0.5 -7.15 0.55 Q-8.25 -0.05 -8.65 -1.3 M0.25 15.65 Q-0.3 16.3 -1.15 16.35 -2.0 16.4 -2.65 15.7 L-3.0 15.3 -3.4 14.0 Q-3.45 13.25 -3.15 12.65 L-2.9 12.2 Q-2.35 11.45 -1.5 11.4 -0.6 11.35 0.05 12.05 L0.65 13.1 0.75 13.8 Q0.85 14.8 0.3 15.55 L0.25 15.65 M0.3 13.85 L0.15 13.1 Q0.0 12.65 -0.3 12.3 -0.9 11.7 -1.65 11.75 -2.4 11.75 -2.85 12.45 L-3.0 12.7 Q-3.35 13.3 -3.3 14.0 -3.25 14.8 -2.8 15.35 L-2.65 15.5 Q-2.1 16.1 -1.35 16.05 -0.75 16.0 -0.35 15.65 L-0.1 15.35 Q0.4 14.7 0.3 13.85 M-2.95 -9.45 L-2.75 -9.9 -2.65 -10.4 -2.75 -9.9 -2.95 -9.45 M-8.3 -4.5 L-8.1 -4.7 -8.3 -4.5 M-1.65 13.2 L-1.75 13.5 Q-1.85 13.65 -2.05 13.65 L-2.45 13.55 -2.6 13.25 -2.45 12.85 -2.4 12.8 -2.1 12.7 Q-1.9 12.7 -1.8 12.85 L-1.75 12.9 -1.65 13.2" fill="#ffffff" fill-rule="evenodd" stroke="none"/>
    <path d="M7.1 0.3 L6.75 1.25 6.65 1.45 7.1 0.3 M1.85 -6.15 L1.9 -6.2 1.85 -6.15" fill="#ffd0ae" fill-rule="evenodd" stroke="none"/>
    <path d="M-2.6 -10.45 L-2.6 -10.4 -2.65 -10.4 -2.6 -10.45" fill="#ffdfc8" fill-rule="evenodd" stroke="none"/>
    <path d="M3.5 8.3 L-2.0 8.5 Q-3.65 8.15 -5.0 7.25 L-4.4 6.45 -4.4 6.4 Q-1.5 8.05 2.7 7.35 L2.9 7.3 3.15 7.65 3.45 8.15 3.5 8.3 M-2.55 -10.9 L-2.55 -11.0 -2.5 -11.15 -2.45 -11.5 Q-2.35 -8.9 1.35 -10.85 L1.55 -9.9 Q-2.6 -7.85 -2.6 -10.4 L-2.6 -10.45 -2.55 -10.9 M3.35 15.25 L0.3 15.65 0.3 15.55 Q0.85 14.8 0.75 13.8 L0.65 13.1 4.0 12.8 Q3.5 14.05 3.35 15.25 M-3.0 15.3 L-4.55 14.7 Q-5.95 14.05 -7.1 12.9 -7.35 12.2 -7.2 11.55 L-7.1 11.15 -6.4 11.5 -4.7 12.2 -3.15 12.65 Q-3.45 13.25 -3.4 14.0 L-3.0 15.3" fill="#b6e7c2" fill-rule="evenodd" stroke="none"/>
    <path d="M4.6 6.9 L5.4 7.75 4.35 8.1 3.5 8.3 3.45 8.15 3.15 7.65 2.9 7.3 3.6 7.15 4.35 6.95 4.6 6.9 M1.35 -10.85 L2.35 -11.25 2.55 -10.35 1.55 -9.9 1.35 -10.85 M4.0 12.8 L5.75 12.3 7.65 11.45 Q8.65 12.3 8.5 13.75 L3.35 15.25 Q3.5 14.05 4.0 12.8" fill="#6cce87" fill-rule="evenodd" stroke="none"/>
    <path d="M0.3 13.85 Q0.4 14.7 -0.1 15.35 L-0.35 15.65 Q-0.75 16.0 -1.35 16.05 -2.1 16.1 -2.65 15.5 L-2.8 15.35 Q-3.25 14.8 -3.3 14.0 -3.35 13.3 -3.0 12.7 L-2.85 12.45 Q-2.4 11.75 -1.65 11.75 -0.9 11.7 -0.3 12.3 0.0 12.65 0.15 13.1 L0.3 13.85 M-1.65 13.2 L-1.75 12.9 -1.8 12.85 Q-1.9 12.7 -2.1 12.7 L-2.4 12.8 -2.45 12.85 -2.6 13.25 -2.45 13.55 -2.05 13.65 Q-1.85 13.65 -1.75 13.5 L-1.65 13.2" fill="#7adc72" fill-rule="evenodd" stroke="none"/>
    <path d="M2.55 -10.35 L2.6 -10.1 4.25 -9.6 4.3 -9.45 Q4.2 -7.35 4.55 -5.5 4.85 -3.95 5.55 -2.6 L5.85 -1.65 Q6.65 0.15 7.3 -0.25 L7.1 0.3 6.75 1.25 6.65 1.45 6.05 2.7 4.85 4.8 M4.8 4.8 L4.65 5.1 3.85 6.1 4.55 6.85 4.6 6.9 5.4 7.75 M3.5 8.3 L-2.0 8.5 Q-3.65 8.15 -5.0 7.25 L-4.4 6.45 M-4.4 6.4 L-4.3 6.25 -4.1 5.95 -4.4 5.4 -5.6 2.7 -5.75 2.35 -5.95 1.6 Q-6.85 1.4 -7.5 0.75 L-7.8 0.45 -7.9 0.35 -8.1 0.15 -8.2 0.0 -8.3 -0.2 -8.65 -1.3 -8.7 -1.7 -8.75 -1.95 Q-8.85 -3.25 -8.5 -4.1 L-8.3 -4.5 -8.2 -4.6 M-8.1 -4.7 L-6.85 -6.2 -6.05 -7.2 -3.45 -10.55 M-3.4 -10.55 L-2.95 -10.55 -2.6 -10.45 -2.55 -10.9 -2.55 -11.0 -2.5 -11.15 -2.45 -11.5 Q-2.35 -8.9 1.35 -10.85 L2.35 -11.25 2.55 -10.35 M2.6 -10.1 L2.65 -9.95 2.8 -9.5 3.05 -8.75 M5.85 -1.65 L5.9 -1.0 5.9 -0.9 Q5.95 0.75 4.9 2.05 L4.75 2.2 Q3.55 3.55 1.7 3.65 L1.2 3.65 1.1 3.65 0.3 3.55 -0.55 3.2 -1.5 2.6 Q-2.75 1.65 -4.75 1.7 L-4.85 1.7 -5.1 1.7 -5.4 1.7 -5.65 1.65 -5.95 1.6 M7.1 0.3 L6.65 1.45 M-2.6 -10.45 L-2.6 -10.4 M-2.65 -10.4 L-2.75 -9.9 -2.95 -9.45 M-2.65 -10.4 L-2.6 -10.45 M-8.1 -4.7 L-8.3 -4.5" fill="none" stroke="#a0a0a0" stroke-linecap="round" stroke-linejoin="round" stroke-width="0.05"/>
    <path d="M0.3 15.65 L0.25 15.65 Q-0.3 16.3 -1.15 16.35 -2.0 16.4 -2.65 15.7 L-3.0 15.3 M-3.15 12.65 L-2.9 12.2 Q-2.35 11.45 -1.5 11.4 -0.6 11.35 0.05 12.05 L0.65 13.1 M0.3 15.55 L0.25 15.65" fill="none" stroke="#b03573" stroke-linecap="round" stroke-linejoin="round" stroke-width="0.05"/>
    <path d="M4.0 12.8 L5.75 12.3 7.65 11.45 Q8.65 12.3 8.5 13.75 L3.35 15.25 0.3 15.65 0.3 15.55 Q0.85 14.8 0.75 13.8 L0.65 13.1 4.0 12.8 M-3.0 15.3 L-4.55 14.7 Q-5.95 14.05 -7.1 12.9 -7.35 12.2 -7.2 11.55 L-7.1 11.15 -6.4 11.5 -4.7 12.2 -3.15 12.65 Q-3.45 13.25 -3.4 14.0 L-3.0 15.3" fill="none" stroke="#37a84e" stroke-linecap="round" stroke-linejoin="round" stroke-width="0.05"/>
  </g>
</svg>
