<?xml version="1.0" encoding="UTF-8" standalone="no"?>
<svg xmlns:xlink="http://www.w3.org/1999/xlink" height="30.5px" width="17.1px" xmlns="http://www.w3.org/2000/svg">
  <g transform="matrix(1.0, 0.0, 0.0, 1.0, 8.65, 13.65)">
    <path d="M5.0 -4.4 L4.95 -4.45 5.0 -4.4" fill="#aed3e3" fill-rule="evenodd" stroke="none"/>
    <path d="M-1.4 -11.65 L-2.35 -11.8 Q-3.4 -12.05 -3.4 -12.35 -3.35 -12.7 -2.3 -12.9 L0.25 -13.05 2.85 -12.8 3.2 -12.7 Q3.9 -12.45 3.9 -12.2 3.85 -11.85 2.75 -11.65 L2.3 -11.6 2.15 -11.55 0.2 -11.55 0.05 -11.55 -1.4 -11.65 M6.5 9.0 Q7.2 9.3 7.05 10.3 L4.85 11.55 0.95 12.85 Q0.35 13.3 1.05 13.85 4.3 13.35 5.55 12.7 L7.65 11.8 Q8.5 12.2 8.45 12.9 8.35 14.1 5.45 14.65 L2.6 15.05 Q-0.3 15.5 -2.15 16.85 -3.25 15.65 -5.0 14.6 -6.75 13.5 -7.0 12.55 -7.25 11.5 -6.8 11.3 -6.3 12.5 -5.05 13.25 -3.9 13.55 -4.45 12.35 -5.8 11.5 -6.55 10.15 -6.65 9.45 -5.95 8.95 L-5.3 9.95 -2.9 11.9 -2.5 12.2 -1.95 12.6 -1.0 12.1 3.7 10.35 5.3 9.8 6.5 9.0 M-0.55 14.45 L-0.5 13.25 -3.4 13.1 -3.55 14.2 -2.15 15.35 -0.55 14.45" fill="#263959" fill-rule="evenodd" stroke="none"/>
    <path d="M-7.45 -5.6 Q-5.95 -4.65 -4.15 -4.1 L-4.2 -4.0 -4.2 -3.95 -4.2 -3.4 -4.15 -3.25 Q-4.05 -2.65 -3.5 -2.4 L-2.7 -2.25 -2.45 -2.35 -2.25 -2.45 Q-1.85 -2.7 -1.6 -3.2 L-1.45 -3.55 3.85 -3.75 3.95 -3.55 4.2 -3.0 4.5 -2.3 -2.45 -2.0 -2.4 0.85 -3.4 0.7 -3.8 0.65 Q-3.95 -0.8 -3.75 -2.25 -6.2 -2.9 -8.2 -4.35 L-7.75 -5.2 -7.45 -5.6 M-2.85 -5.45 Q-2.4 -7.45 -1.4 -9.55 L-1.4 -11.65 0.05 -11.55 0.05 -9.4 Q-1.0 -7.5 -1.6 -4.95 L-2.1 -5.35 -2.85 -5.45 M-3.05 -4.9 L-3.0 -4.9 -2.75 -4.85 -2.6 -4.65 -2.6 -4.6 -2.65 -4.35 -2.8 -4.2 -3.05 -4.2 -3.3 -4.45 -3.3 -4.7 -3.05 -4.9 M-3.0 4.3 L-2.85 4.25 -1.95 4.15 -1.75 4.15 -0.65 6.45 Q-1.45 10.4 -1.0 12.1 L-1.95 12.6 -2.5 12.2 -2.9 11.9 Q-3.1 9.0 -2.15 6.45 L-3.0 4.3" fill="#ffffff" fill-rule="evenodd" stroke="none"/>
    <path d="M4.5 -2.3 L4.2 -3.0 3.95 -3.55 3.85 -3.75 5.25 -4.0 5.25 -3.9 5.3 -3.9 6.05 -2.7 4.5 -2.3 M-2.4 0.85 L-2.4 0.95 -2.4 1.15 -2.35 1.55 -1.75 4.15 -1.95 4.15 -2.85 4.25 -3.0 4.3 -3.65 1.6 -3.8 0.65 -3.4 0.7 -2.4 0.85 -2.4 0.95 -2.4 0.85 M-3.1 1.25 L-3.65 1.6 -3.1 1.25" fill="#d1d1d1" fill-rule="evenodd" stroke="none"/>
    <path d="M5.25 -4.0 L5.3 -3.9 5.25 -3.9 5.25 -4.0" fill="#ffff00" fill-rule="evenodd" stroke="none"/>
    <path d="M7.05 10.3 Q8.0 10.6 7.65 11.8 L5.55 12.7 Q4.3 13.35 1.05 13.85 0.35 13.3 0.95 12.85 L4.85 11.55 7.05 10.3 M-6.8 11.3 L-6.55 10.15 Q-5.8 11.5 -4.45 12.35 -3.9 13.55 -5.05 13.25 -6.3 12.5 -6.8 11.3 M-0.55 14.45 L-2.15 15.35 -3.55 14.2 -3.4 13.1 -0.5 13.25 -0.55 14.45" fill="#576bca" fill-rule="evenodd" stroke="none"/>
    <path d="M3.2 -12.7 L2.85 -12.8 0.25 -13.05 -2.3 -12.9 Q-3.35 -12.7 -3.4 -12.35 -3.4 -12.05 -2.35 -11.8 L-1.4 -11.65 -1.4 -9.55 Q-2.4 -7.45 -2.85 -5.45 L-3.15 -5.35 -3.35 -5.25 -3.35 -5.2 -4.05 -4.5 -4.05 -4.45 -4.15 -4.1 Q-5.95 -4.65 -7.45 -5.6 L-7.0 -6.1 -6.6 -6.45 -5.7 -7.15 Q-3.45 -8.7 -3.9 -10.25 L-4.0 -10.55 -4.0 -12.95 Q-0.35 -14.35 3.9 -12.95 L3.2 -12.7 M0.05 -11.55 L0.2 -11.55 2.15 -11.55 1.9 -7.05 Q1.15 -6.45 -0.15 -5.95 L2.1 -6.1 3.25 -4.7 3.55 -4.25 3.85 -3.75 -1.45 -3.55 -1.4 -3.75 -1.4 -4.45 -1.6 -4.95 Q-1.0 -7.5 0.05 -9.4 L0.05 -11.55 M4.5 -2.3 L4.8 -1.4 Q4.2 2.7 0.8 2.1 L-0.45 1.75 -0.45 1.8 Q-0.9 1.45 -1.35 1.25 L-2.4 0.85 -2.45 -2.0 4.5 -2.3 M-5.95 8.95 Q-5.75 7.85 -4.25 6.1 L-4.2 6.05 -4.2 6.0 -4.1 5.35 -3.65 4.7 -3.0 4.3 -2.15 6.45 Q-3.1 9.0 -2.9 11.9 L-5.3 9.95 -5.95 8.95 M-7.4 0.8 L-8.05 -0.15 Q-8.95 -1.75 -8.45 -3.7 L-8.35 -4.0 -8.2 -4.35 Q-6.2 -2.9 -3.75 -2.25 -3.95 -0.8 -3.8 0.65 L-4.55 0.75 -4.6 0.8 -5.75 0.95 -7.4 0.8 M-1.75 4.15 L-1.25 4.15 -0.8 4.25 0.25 4.85 Q1.0 5.45 1.95 6.6 2.55 7.3 3.7 10.35 L-1.0 12.1 Q-1.45 10.4 -0.65 6.45 L-1.75 4.15" fill="#42ac81" fill-rule="evenodd" stroke="none"/>
    <path d="M3.2 -12.7 L3.9 -12.95 4.55 -12.75 4.05 -9.6 Q3.2 -7.3 4.95 -4.45 L5.0 -4.4 5.25 -4.0 3.85 -3.75 3.55 -4.25 3.25 -4.7 2.1 -6.1 -0.15 -5.95 Q1.15 -6.45 1.9 -7.05 L2.15 -11.55 2.3 -11.6 2.75 -11.65 Q3.85 -11.85 3.9 -12.2 3.9 -12.45 3.2 -12.7 M-2.4 0.85 L-1.35 1.25 Q-0.9 1.45 -0.45 1.8 L-0.45 1.75 0.8 2.1 Q4.2 2.7 4.8 -1.4 L4.5 -2.3 6.05 -2.7 6.45 -1.8 6.7 -1.2 6.9 -0.25 6.9 0.65 6.85 0.85 Q6.15 3.55 3.95 6.15 L6.5 9.0 5.3 9.8 3.7 10.35 Q2.55 7.3 1.95 6.6 1.0 5.45 0.25 4.85 L-0.8 4.25 -1.25 4.15 -1.75 4.15 -2.35 1.55 -2.4 1.15 -2.4 0.95 -2.4 0.85 M5.9 -0.8 Q5.4 3.25 2.4 3.7 L0.25 3.65 -0.8 3.3 -1.85 2.25 -2.25 1.5 -2.4 1.15 -2.25 1.5 -1.85 2.25 -0.8 3.3 0.25 3.65 2.4 3.7 Q5.4 3.25 5.9 -0.8 M-4.2 6.0 Q-5.35 4.1 -5.9 1.6 -6.75 1.45 -7.4 0.8 L-5.75 0.95 -4.6 0.8 -4.55 0.75 -3.8 0.65 -3.65 1.6 -4.1 1.7 -5.05 1.75 -5.9 1.6 -5.05 1.75 -4.1 1.7 -3.65 1.6 -3.0 4.3 -3.65 4.7 -4.1 5.35 -4.2 6.0" fill="#45916e" fill-rule="evenodd" stroke="none"/>
    <path d="M-4.15 -4.1 L-4.05 -4.45 -4.05 -4.5 -3.35 -5.2 -3.35 -5.25 -3.15 -5.35 -2.85 -5.45 -2.1 -5.35 -1.6 -4.95 -1.4 -4.45 -1.4 -3.75 -1.45 -3.55 -1.6 -3.2 Q-1.85 -2.7 -2.25 -2.45 L-2.45 -2.35 -2.7 -2.25 -3.5 -2.4 Q-4.05 -2.65 -4.15 -3.25 L-4.2 -3.4 -4.2 -3.95 -4.2 -4.0 -4.15 -4.1 M-3.05 -4.9 L-3.3 -4.7 -3.3 -4.45 -3.05 -4.2 -2.8 -4.2 -2.65 -4.35 -2.6 -4.6 -2.6 -4.65 -2.75 -4.85 -3.0 -4.9 -3.05 -4.9" fill="#8bd7fe" fill-rule="evenodd" stroke="none"/>
    <path d="M6.5 9.0 Q7.2 9.3 7.05 10.3 8.0 10.6 7.65 11.8 8.5 12.2 8.45 12.9 8.35 14.1 5.45 14.65 L2.6 15.05 Q-0.3 15.5 -2.15 16.85 -3.25 15.65 -5.0 14.6 -6.75 13.5 -7.0 12.55 -7.25 11.5 -6.8 11.3 L-6.55 10.15 Q-6.65 9.45 -5.95 8.95 L-5.3 9.95 -2.9 11.9 -2.5 12.2 -1.95 12.6 -1.0 12.1 3.7 10.35 5.3 9.8 6.5 9.0" fill="none" stroke="#000000" stroke-linecap="round" stroke-linejoin="round" stroke-width="0.05"/>
    <path d="M-7.45 -5.6 Q-5.95 -4.65 -4.15 -4.1 M-2.85 -5.45 Q-2.4 -7.45 -1.4 -9.55 L-1.4 -11.65 M0.05 -11.55 L0.05 -9.4 Q-1.0 -7.5 -1.6 -4.95 M-1.45 -3.55 L3.85 -3.75 5.25 -4.0 M-2.4 0.95 L-2.4 1.15 -2.35 1.55 -1.75 4.15 -0.65 6.45 Q-1.45 10.4 -1.0 12.1 M4.5 -2.3 L6.05 -2.7 M-8.2 -4.35 Q-6.2 -2.9 -3.75 -2.25 -3.95 -0.8 -3.8 0.65 L-3.65 1.6 -3.0 4.3 -2.15 6.45 Q-3.1 9.0 -2.9 11.9 M-2.4 0.85 L-2.45 -2.0 4.5 -2.3" fill="none" stroke="#2e813e" stroke-linecap="round" stroke-linejoin="round" stroke-width="0.25"/>
    <path d="M-1.4 -11.65 L-2.35 -11.8 Q-3.4 -12.05 -3.4 -12.35 -3.35 -12.7 -2.3 -12.9 L0.25 -13.05 2.85 -12.8 3.2 -12.7 Q3.9 -12.45 3.9 -12.2 3.85 -11.85 2.75 -11.65 L2.3 -11.6 2.15 -11.55 0.2 -11.55 0.05 -11.55 -1.4 -11.65 M3.9 -12.95 Q-0.35 -14.35 -4.0 -12.95 L-4.0 -10.55 -3.9 -10.25 M4.05 -9.6 L4.55 -12.75 3.9 -12.95 M-2.4 0.85 L-2.4 0.95 -2.4 0.85 M-2.4 1.15 L-2.25 1.5 -1.85 2.25 -0.8 3.3 0.25 3.65 2.4 3.7 Q5.4 3.25 5.9 -0.8 M6.9 0.65 L6.85 0.85 Q6.15 3.55 3.95 6.15 L6.5 9.0 M-5.95 8.95 Q-5.75 7.85 -4.25 6.1 L-4.2 6.05 -4.2 6.0 Q-5.35 4.1 -5.9 1.6 -6.75 1.45 -7.4 0.8 L-8.05 -0.15 Q-8.95 -1.75 -8.45 -3.7 L-8.35 -4.0 -8.2 -4.35 -7.75 -5.2 -7.45 -5.6 M-3.65 1.6 L-4.1 1.7 -5.05 1.75 -5.9 1.6 M-3.65 1.6 L-3.1 1.25" fill="none" stroke="#2e813e" stroke-linecap="round" stroke-linejoin="round" stroke-width="0.05"/>
  </g>
</svg>
