<?xml version="1.0" encoding="UTF-8" standalone="no"?>
<svg xmlns:xlink="http://www.w3.org/1999/xlink" height="32.5px" width="17.5px" xmlns="http://www.w3.org/2000/svg">
  <g transform="matrix(1.0, 0.0, 0.0, 1.0, 8.75, 13.2)">
    <path d="M-3.85 -10.55 L-3.8 -10.55 -3.85 -10.55" fill="#f5dfc5" fill-rule="evenodd" stroke="none"/>
    <path d="M4.25 14.85 L4.15 14.85 1.0 15.15 Q1.45 13.25 1.95 12.1 2.8 9.9 1.55 10.15 -1.15 12.05 -3.8 9.85 -4.75 9.35 -4.15 12.55 L-3.7 14.5 Q-5.8 13.85 -7.1 12.65 -7.0 11.4 -6.7 10.85 -5.8 8.15 -4.1 5.95 -3.85 3.7 -1.3 3.9 1.6 4.2 4.15 9.5 L4.45 10.15 Q3.85 12.55 4.25 14.85 M-8.65 -1.3 L-8.75 -1.95 Q-8.85 -3.6 -8.3 -4.5 L-8.2 -4.6 -6.05 -6.9 -5.55 -5.6 Q-4.3 -2.65 -3.0 -1.95 -1.75 -1.25 2.4 -4.8 L2.8 -5.25 3.95 -3.5 Q4.85 -0.55 4.2 0.8 3.75 1.65 2.05 1.9 L-0.6 1.8 -3.05 0.6 Q-4.45 -0.25 -5.75 0.15 L-7.15 0.55 Q-8.25 -0.05 -8.65 -1.3 M-3.2 -6.75 L-3.05 -7.2 -2.65 -7.35 -2.25 -7.25 -2.05 -6.85 -2.2 -6.45 -2.55 -6.2 -3.0 -6.4 -3.2 -6.75 M-8.3 -4.5 L-8.2 -4.6 -8.3 -4.5 M-2.2 14.85 L-2.65 14.65 -2.85 14.3 -2.7 13.85 Q-2.5 13.65 -2.3 13.7 L-1.9 13.8 -1.7 14.2 Q-1.7 14.4 -1.85 14.6 L-2.2 14.85" fill="#ffffff" fill-rule="evenodd" stroke="none"/>
    <path d="M-3.3 -7.4 Q-2.9 -7.85 -2.3 -7.9 -1.7 -7.95 -1.25 -7.55 -0.75 -7.1 -0.7 -6.5 L-0.8 -5.85 -1.1 -5.45 Q-1.5 -5.0 -2.1 -4.95 -2.7 -4.9 -3.15 -5.3 -3.6 -5.7 -3.65 -6.3 L-3.65 -6.55 -3.3 -7.4 M-3.2 -6.75 L-3.0 -6.4 -2.55 -6.2 -2.2 -6.45 -2.05 -6.85 -2.25 -7.25 -2.65 -7.35 -3.05 -7.2 -3.2 -6.75 M-2.2 14.85 L-1.85 14.6 Q-1.7 14.4 -1.7 14.2 L-1.9 13.8 -2.3 13.7 Q-2.5 13.65 -2.7 13.85 L-2.85 14.3 -2.65 14.65 -2.2 14.85 M-0.55 14.45 L-0.65 15.1 -0.85 15.4 Q-1.2 15.85 -1.8 15.9 -2.35 15.95 -2.75 15.55 -3.15 15.2 -3.2 14.65 -3.2 14.1 -2.85 13.65 -2.5 13.25 -1.95 13.2 -1.35 13.15 -0.95 13.5 -0.55 13.9 -0.55 14.45" fill="#8bd7fe" fill-rule="evenodd" stroke="none"/>
    <path d="M7.3 -0.25 Q6.05 3.45 3.85 6.1 6.5 8.85 7.1 10.25 L7.8 11.75 8.3 13.45 6.1 14.4 4.25 14.85 Q3.85 12.55 4.45 10.15 L4.15 9.5 Q1.6 4.2 -1.3 3.9 -3.85 3.7 -4.1 5.95 -5.6 3.1 -5.95 1.6 -6.85 1.4 -7.5 0.75 L-7.9 0.35 Q-8.5 -0.35 -8.65 -1.3 -8.25 -0.05 -7.15 0.55 L-5.75 0.15 Q-4.45 -0.25 -3.05 0.6 L-0.6 1.8 2.05 1.9 Q3.75 1.65 4.2 0.8 4.85 -0.55 3.95 -3.5 L2.8 -5.25 3.45 -5.9 5.5 -2.7 5.85 -1.65 Q6.65 0.15 7.3 -0.25 M-5.95 1.6 L-5.65 1.65 -5.1 1.7 -4.85 1.7 -4.75 1.7 Q-2.75 1.65 -1.65 2.4 L-1.5 2.6 Q-0.15 3.75 1.7 3.65 3.55 3.55 4.75 2.2 6.0 0.85 5.9 -1.0 L5.85 -1.65 5.9 -1.0 Q6.0 0.85 4.75 2.2 3.55 3.55 1.7 3.65 -0.15 3.75 -1.5 2.6 L-1.65 2.4 Q-2.75 1.65 -4.75 1.7 L-4.85 1.7 -5.1 1.7 -5.65 1.65 -5.95 1.6" fill="#e0e0e0" fill-rule="evenodd" stroke="none"/>
    <path d="M4.2 -10.05 Q6.95 -9.55 6.5 -8.5 L6.45 -8.4 Q5.25 -7.75 3.45 -5.9 L2.8 -5.25 2.4 -4.8 Q-1.75 -1.25 -3.0 -1.95 -4.3 -2.65 -5.55 -5.6 L-6.05 -6.9 Q-6.75 -8.85 -6.5 -9.65 L-5.65 -10.55 -5.35 -10.65 -4.05 -10.85 -4.0 -10.55 -3.95 -10.5 -3.15 -9.4 Q-2.2 -8.65 -0.1 -8.55 1.95 -8.5 3.2 -9.25 L4.2 -10.05 M1.0 15.15 L0.25 18.65 Q-0.65 20.2 -2.1 18.0 -3.1 16.45 -3.7 14.5 L-4.15 12.55 Q-4.75 9.35 -3.8 9.85 -1.15 12.05 1.55 10.15 2.8 9.9 1.95 12.1 1.45 13.25 1.0 15.15 M-3.3 -7.4 L-3.65 -6.55 -3.65 -6.3 Q-3.6 -5.7 -3.15 -5.3 -2.7 -4.9 -2.1 -4.95 -1.5 -5.0 -1.1 -5.45 L-0.8 -5.85 -0.7 -6.5 Q-0.75 -7.1 -1.25 -7.55 -1.7 -7.95 -2.3 -7.9 -2.9 -7.85 -3.3 -7.4 M-0.55 14.45 Q-0.55 13.9 -0.95 13.5 -1.35 13.15 -1.95 13.2 -2.5 13.25 -2.85 13.65 -3.2 14.1 -3.2 14.65 -3.15 15.2 -2.75 15.55 -2.35 15.95 -1.8 15.9 -1.2 15.85 -0.85 15.4 L-0.65 15.1 -0.55 14.45" fill="#5ca8a4" fill-rule="evenodd" stroke="none"/>
    <path d="M-4.05 -10.85 L-4.05 -11.05 Q-4.05 -11.95 -2.85 -12.6 -1.55 -13.2 0.2 -13.2 1.95 -13.15 3.2 -12.5 L4.1 -11.85 Q4.45 -11.4 4.45 -10.7 L4.2 -10.05 3.2 -9.25 Q1.95 -8.5 -0.1 -8.55 -2.2 -8.65 -3.15 -9.4 L-3.95 -10.5 -4.0 -10.55 -4.05 -10.85 M6.5 -8.5 L7.0 -8.25 7.4 -8.0 7.45 -7.95 8.75 -7.2 Q8.7 -4.8 8.25 -3.1 L7.3 -0.25 Q6.65 0.15 5.85 -1.65 L5.5 -2.7 3.45 -5.9 Q5.25 -7.75 6.45 -8.4 L6.5 -8.5 M-8.2 -4.6 Q-7.55 -5.55 -7.55 -6.75 L-7.55 -6.85 Q-8.1 -9.25 -7.75 -10.0 L-5.65 -10.55 -6.5 -9.65 Q-6.75 -8.85 -6.05 -6.9 L-8.2 -4.6 M2.95 -11.8 Q2.75 -11.35 1.85 -10.75 L-0.85 -10.55 Q-2.65 -10.9 -2.3 -12.0 -2.65 -10.9 -0.85 -10.55 L1.85 -10.75 Q2.75 -11.35 2.95 -11.8 M-3.85 -10.55 L-3.8 -10.55 -3.85 -10.55" fill="#488681" fill-rule="evenodd" stroke="none"/>
    <path d="M-4.05 -10.85 L-4.05 -11.05 Q-4.05 -11.95 -2.85 -12.6 -1.55 -13.2 0.2 -13.2 1.95 -13.15 3.2 -12.5 L4.1 -11.85 Q4.45 -11.4 4.45 -10.7 L4.2 -10.05 3.2 -9.25 Q1.95 -8.5 -0.1 -8.55 -2.2 -8.65 -3.15 -9.4 L-3.95 -10.5 -4.0 -10.55 -4.05 -10.85 M7.3 -0.25 Q6.05 3.45 3.85 6.1 6.5 8.85 7.1 10.25 L7.8 11.75 8.3 13.45 M-7.1 12.65 Q-7.0 11.4 -6.7 10.85 -5.8 8.15 -4.1 5.95 -5.6 3.1 -5.95 1.6 -6.85 1.4 -7.5 0.75 L-7.9 0.35 Q-8.5 -0.35 -8.65 -1.3 M-8.2 -4.6 Q-7.55 -5.55 -7.55 -6.75 L-7.55 -6.85 Q-8.1 -9.25 -7.75 -10.0 L-5.65 -10.55 M-2.3 -12.0 Q-2.65 -10.9 -0.85 -10.55 L1.85 -10.75 Q2.75 -11.35 2.95 -11.8 M5.85 -1.65 L5.9 -1.0 Q6.0 0.85 4.75 2.2 3.55 3.55 1.7 3.65 -0.15 3.75 -1.5 2.6 L-1.65 2.4 Q-2.75 1.65 -4.75 1.7 L-4.85 1.7 -5.1 1.7 -5.65 1.65 -5.95 1.6" fill="none" stroke="#000000" stroke-linecap="round" stroke-linejoin="round" stroke-width="0.05"/>
    <path d="M4.2 -10.05 Q6.95 -9.55 6.5 -8.5 L7.0 -8.25 7.4 -8.0 7.45 -7.95 8.75 -7.2 M8.25 -3.1 L7.3 -0.25 Q6.65 0.15 5.85 -1.65 L5.5 -2.7 3.45 -5.9 Q5.25 -7.75 6.45 -8.4 L6.5 -8.5 M1.0 15.15 L0.25 18.65 Q-0.65 20.2 -2.1 18.0 -3.1 16.45 -3.7 14.5 L-4.15 12.55 Q-4.75 9.35 -3.8 9.85 -1.15 12.05 1.55 10.15 2.8 9.9 1.95 12.1 1.45 13.25 1.0 15.15 M-8.65 -1.3 L-8.75 -1.95 Q-8.85 -3.6 -8.3 -4.5 L-8.2 -4.6 -8.3 -4.5 M-5.65 -10.55 L-5.4 -10.65 -5.35 -10.65 -4.05 -10.85 M-6.05 -6.9 L-5.55 -5.6 Q-4.3 -2.65 -3.0 -1.95 -1.75 -1.25 2.4 -4.8 L2.8 -5.25 3.45 -5.9 M-5.65 -10.55 L-6.5 -9.65 Q-6.75 -8.85 -6.05 -6.9 M-5.65 -10.55 L-5.35 -10.65" fill="none" stroke="#2e813e" stroke-linecap="round" stroke-linejoin="round" stroke-width="0.05"/>
  </g>
</svg>
