<?xml version="1.0" encoding="UTF-8" standalone="no"?>
<svg xmlns:xlink="http://www.w3.org/1999/xlink" height="29.65px" width="17.3px" xmlns="http://www.w3.org/2000/svg">
  <g transform="matrix(1.0, 0.0, 0.0, 1.0, 8.55, 13.8)">
    <path d="M7.55 -1.1 L7.55 -1.0 7.4 1.1 Q7.0 2.7 5.2 4.3 3.85 5.45 2.25 5.6 L1.2 5.55 Q-0.55 4.25 -2.5 3.5 L-5.25 3.7 Q-7.25 3.0 -6.9 1.1 L-5.8 1.7 Q-4.45 2.05 -2.65 0.75 -1.25 3.95 1.6 3.7 L2.1 3.6 Q4.5 3.2 5.35 1.55 5.9 0.4 5.8 -0.9 L5.4 -2.65 Q4.65 -5.8 0.4 -4.55 -0.9 -4.25 -2.7 -2.6 -4.35 -6.15 -7.4 -5.35 L-7.9 -4.6 Q-8.6 -6.65 -7.35 -7.3 L-7.15 -7.4 -5.25 -7.35 Q-5.5 -9.4 -5.25 -10.45 -4.9 -12.05 -3.35 -11.3 L-3.2 -9.5 -3.25 -9.4 -3.25 -9.35 Q-3.85 -8.55 -3.6 -6.5 -2.8 -5.8 -2.15 -4.65 -0.6 -6.3 1.1 -6.7 1.2 -8.0 1.65 -9.0 L2.2 -9.95 Q2.8 -10.7 3.5 -10.9 L5.05 -10.85 Q6.45 -10.3 6.2 -8.65 L4.55 -8.8 Q3.7 -8.6 2.9 -6.75 7.55 -6.5 7.55 -1.1" fill="#877b51" fill-rule="evenodd" stroke="none"/>
    <path d="M6.55 9.3 Q8.05 9.85 7.75 11.85 3.35 13.9 1.0 13.8 L1.05 12.75 Q1.0 11.85 0.55 11.2 3.3 11.1 6.55 9.3 M-6.9 11.55 Q-7.45 10.25 -6.1 9.35 -5.0 10.5 -3.65 11.0 -4.35 11.9 -4.3 13.1 L-4.25 13.35 Q-5.7 12.7 -6.9 11.55 M-6.9 1.1 Q-8.6 -0.4 -8.55 -2.2 -8.55 -3.55 -7.9 -4.6 L-7.4 -5.35 Q-4.35 -6.15 -2.7 -2.6 -0.9 -4.25 0.4 -4.55 4.65 -5.8 5.4 -2.65 L5.8 -0.9 Q5.9 0.4 5.35 1.55 4.5 3.2 2.1 3.6 L1.6 3.7 Q-1.25 3.95 -2.65 0.75 -4.45 2.05 -5.8 1.7 L-6.9 1.1 M-3.25 -9.35 L-3.25 -9.4 -3.2 -9.35 -3.25 -9.35 M-3.05 -0.85 L-2.65 0.75 -3.05 -0.85" fill="#454b3f" fill-rule="evenodd" stroke="none"/>
    <path d="M-0.4 15.6 L-1.45 15.85 Q-2.55 15.95 -3.4 15.15 L-3.45 15.1 -3.85 14.55 -4.25 13.35 -4.3 13.1 Q-4.35 11.9 -3.65 11.0 L-2.85 10.3 -1.85 10.0 -0.95 10.1 -0.45 10.35 Q-0.15 10.5 0.1 10.75 L0.55 11.2 Q1.0 11.85 1.05 12.75 L1.0 13.8 0.4 14.9 0.1 15.25 -0.4 15.6 M-2.05 11.15 Q-2.75 11.2 -3.25 11.75 -3.7 12.3 -3.65 13.0 -3.6 13.75 -3.05 14.25 -2.5 14.75 -1.8 14.7 -1.05 14.65 -0.55 14.05 -0.05 13.5 -0.1 12.75 -0.15 12.05 -0.75 11.55 -1.3 11.1 -2.05 11.15 -1.3 11.1 -0.75 11.55 -0.15 12.05 -0.1 12.75 -0.05 13.5 -0.55 14.05 -1.05 14.65 -1.8 14.7 -2.5 14.75 -3.05 14.25 -3.6 13.75 -3.65 13.0 -3.7 12.3 -3.25 11.75 -2.75 11.2 -2.05 11.15" fill="#803941" fill-rule="evenodd" stroke="none"/>
    <path d="M6.2 -8.65 Q7.6 -8.1 8.75 -7.1 8.4 -3.85 7.55 -1.1 7.55 -6.5 2.9 -6.75 3.7 -8.6 4.55 -8.8 L6.2 -8.65 M5.2 4.3 L3.85 6.15 5.05 7.35 5.75 8.15 Q2.5 10.25 -0.45 10.35 L-0.95 10.1 -1.15 9.5 -0.95 10.1 -1.85 10.0 -2.85 10.3 Q-4.45 9.9 -5.65 8.45 -5.2 7.25 -4.15 6.0 L-5.25 3.7 -2.5 3.5 Q-0.55 4.25 1.2 5.55 L2.25 5.6 Q3.85 5.45 5.2 4.3 M-7.35 -7.3 Q-7.8 -8.85 -7.1 -10.1 L-5.25 -10.45 Q-5.5 -9.4 -5.25 -7.35 L-7.15 -7.4 -7.35 -7.3 M1.65 -9.0 Q1.2 -8.0 1.1 -6.7 -0.6 -6.3 -2.15 -4.65 -2.8 -5.8 -3.6 -6.5 -3.85 -8.55 -3.25 -9.35 L-3.2 -9.35 Q-0.7 -8.35 1.65 -9.0" fill="#2f3032" fill-rule="evenodd" stroke="none"/>
    <path d="M5.75 8.15 Q6.85 8.15 6.55 9.3 3.3 11.1 0.55 11.2 L0.1 10.75 Q-0.15 10.5 -0.45 10.35 2.5 10.25 5.75 8.15 M7.75 11.85 Q8.9 12.35 8.3 13.45 L7.85 13.65 Q3.2 15.6 -0.4 15.6 L0.1 15.25 0.4 14.9 1.0 13.8 Q3.35 13.9 7.75 11.85 M-3.45 15.1 Q-5.45 14.45 -6.95 13.0 -7.55 12.2 -6.9 11.55 -5.7 12.7 -4.25 13.35 L-3.85 14.55 -3.45 15.1 M-6.1 9.35 Q-6.4 8.5 -5.65 8.45 -4.45 9.9 -2.85 10.3 L-3.65 11.0 Q-5.0 10.5 -6.1 9.35 M-3.35 -11.3 L-3.45 -12.8 Q0.1 -14.8 3.35 -12.8 L3.5 -10.9 Q2.8 -10.7 2.2 -9.95 L1.65 -9.0 Q-0.7 -8.35 -3.2 -9.35 L-3.2 -9.5 -3.35 -11.3 M2.55 -12.6 L-2.75 -12.3 2.55 -12.6" fill="#ffffff" fill-rule="evenodd" stroke="none"/>
    <path d="M6.2 -8.65 Q7.6 -8.1 8.75 -7.1 M7.55 -1.0 L7.4 1.1 Q7.0 2.7 5.2 4.3 M7.85 13.65 Q3.2 15.6 -0.4 15.6 L-1.45 15.85 Q-2.55 15.95 -3.4 15.15 L-3.45 15.1 Q-5.45 14.45 -6.95 13.0 M-5.25 3.7 Q-7.25 3.0 -6.9 1.1 M-7.9 -4.6 Q-8.6 -6.65 -7.35 -7.3 -7.8 -8.85 -7.1 -10.1 L-5.25 -10.45 M-3.35 -11.3 L-3.45 -12.8 M3.35 -12.8 L3.5 -10.9 M5.05 -10.85 Q6.45 -10.3 6.2 -8.65 M-3.2 -9.5 L-3.35 -11.3 M-0.45 10.35 Q-0.15 10.5 0.1 10.75 L0.55 11.2 Q1.0 11.85 1.05 12.75 L1.0 13.8 0.4 14.9 0.1 15.25 -0.4 15.6 M7.85 13.65 L8.3 13.45 M-3.2 -9.5 L-3.2 -9.35 Q-0.7 -8.35 1.65 -9.0 M-0.95 10.1 L-0.45 10.35 M-2.05 11.15 Q-1.3 11.1 -0.75 11.55 -0.15 12.05 -0.1 12.75 -0.05 13.5 -0.55 14.05 -1.05 14.65 -1.8 14.7 -2.5 14.75 -3.05 14.25 -3.6 13.75 -3.65 13.0 -3.7 12.3 -3.25 11.75 -2.75 11.2 -2.05 11.15 M-2.85 10.3 L-1.85 10.0 -0.95 10.1 M-3.65 11.0 L-2.85 10.3 M-3.65 11.0 Q-4.35 11.9 -4.3 13.1 L-4.25 13.35 -3.85 14.55 -3.45 15.1" fill="none" stroke="#000000" stroke-linecap="round" stroke-linejoin="round" stroke-width="0.05"/>
    <path d="M8.75 -7.1 Q8.4 -3.85 7.55 -1.1 M5.2 4.3 L3.85 6.15 5.05 7.35 5.75 8.15 Q6.85 8.15 6.55 9.3 8.05 9.85 7.75 11.85 8.9 12.35 8.3 13.45 L7.85 13.65 M-6.95 13.0 Q-7.55 12.2 -6.9 11.55 -7.45 10.25 -6.1 9.35 -6.4 8.5 -5.65 8.45 -5.2 7.25 -4.15 6.0 L-5.25 3.7 M-6.9 1.1 Q-8.6 -0.4 -8.55 -2.2 -8.55 -3.55 -7.9 -4.6 L-7.4 -5.35 M-5.25 -10.45 Q-4.9 -12.05 -3.35 -11.3 M-3.45 -12.8 Q0.1 -14.8 3.35 -12.8 M3.5 -10.9 L5.05 -10.85 M1.65 -9.0 L2.2 -9.95 Q2.8 -10.7 3.5 -10.9 M-3.25 -9.35 L-3.25 -9.4 -3.2 -9.5 M-2.65 0.75 L-3.05 -0.85 M-2.75 -12.3 L2.55 -12.6" fill="none" stroke="#000000" stroke-linecap="round" stroke-linejoin="round" stroke-width="0.05"/>
    <path d="M-0.95 10.1 L-1.15 9.5" fill="none" stroke="#a0a0a0" stroke-linecap="round" stroke-linejoin="round" stroke-width="0.05"/>
  </g>
</svg>
