<?xml version="1.0" encoding="UTF-8" standalone="no"?>
<svg xmlns:xlink="http://www.w3.org/1999/xlink" height="32.45px" width="17.5px" xmlns="http://www.w3.org/2000/svg">
  <g transform="matrix(1.0, 0.0, 0.0, 1.0, 8.75, 14.45)">
    <path d="M2.0 1.9 L1.45 3.65 1.4 5.35 Q0.1 4.05 -1.3 3.9 -3.45 3.7 -4.05 5.1 L-5.6 1.65 -4.75 1.7 Q-2.8 1.65 -1.65 2.4 L-1.5 2.6 Q-0.2 3.65 1.45 3.65 -0.2 3.65 -1.5 2.6 L-1.65 2.4 Q-2.8 1.65 -4.75 1.7 L-5.6 1.65 -5.65 1.65 -6.55 0.4 -5.75 0.15 Q-4.45 -0.2 -3.05 0.6 L-0.6 1.8 2.0 1.9" fill="#e0e0e0" fill-rule="evenodd" stroke="none"/>
    <path d="M1.8 -3.5 Q0.0 -2.75 -2.4 -2.85 -4.65 -3.35 -5.6 -5.15 L-3.85 -7.45 Q-3.05 -6.4 -1.8 -5.9 L-1.75 -5.9 1.4 -6.05 1.8 -3.5 M-6.2 -4.1 Q-5.3 -2.55 -2.95 -1.8 -0.4 -1.05 1.95 -2.35 L2.0 1.9 -0.6 1.8 -3.05 0.6 Q-4.45 -0.2 -5.75 0.15 L-6.55 0.4 Q-7.55 -1.55 -6.2 -4.1 M-4.05 5.1 Q-3.45 3.7 -1.3 3.9 0.1 4.05 1.4 5.35 L1.55 6.5 Q3.5 8.95 4.2 11.55 L4.2 11.6 1.4 12.45 1.1 12.15 Q0.15 11.2 -1.25 11.3 -2.3 11.35 -3.2 12.25 L-5.8 11.9 Q-4.8 7.65 -3.7 5.9 L-4.05 5.1" fill="#ffffff" fill-rule="evenodd" stroke="none"/>
    <path d="M1.85 -9.2 L2.45 -9.5 3.15 -9.3 3.45 -8.65 Q3.5 -8.3 3.2 -8.05 2.95 -7.75 2.55 -7.75 2.2 -7.7 1.95 -7.95 1.7 -8.2 1.65 -8.6 L1.85 -9.2 M3.45 -4.45 L3.8 -3.85 1.95 -2.35 Q-0.4 -1.05 -2.95 -1.8 -5.3 -2.55 -6.2 -4.1 -6.75 -5.0 -6.8 -6.1 -6.9 -7.95 -6.0 -10.5 -6.35 -8.4 -6.1 -6.85 -6.05 -6.0 -5.6 -5.15 -4.65 -3.35 -2.4 -2.85 0.0 -2.75 1.8 -3.5 L3.45 -4.45 M-4.2 -9.8 L-4.1 -10.2 -3.75 -10.35 -3.35 -10.25 -3.15 -9.9 Q-3.15 -9.65 -3.3 -9.5 -3.4 -9.3 -3.65 -9.3 -3.85 -9.3 -4.05 -9.45 L-4.2 -9.8 M-0.6 -7.9 Q-0.6 -7.45 -0.9 -7.15 -1.2 -6.8 -1.65 -6.8 -2.05 -6.75 -2.4 -7.05 L-2.75 -7.75 -2.5 -8.5 -1.8 -8.85 -1.0 -8.6 Q-0.65 -8.3 -0.6 -7.9" fill="#fffca8" fill-rule="evenodd" stroke="none"/>
    <path d="M3.45 -4.45 Q5.4 -5.9 6.8 -8.35 5.75 -6.2 4.35 -4.45 L3.8 -3.85 3.45 -4.45" fill="#b8a434" fill-rule="evenodd" stroke="none"/>
    <path d="M3.05 -10.85 Q4.2 -9.4 5.15 -9.1 L4.95 -8.7 Q3.8 -6.9 1.9 -6.2 L1.85 -6.15 1.4 -6.05 -1.75 -5.9 -1.8 -5.9 Q-3.05 -6.4 -3.85 -7.45 L-4.5 -8.65 -4.5 -8.7 -4.8 -10.0 Q-4.05 -10.3 -3.25 -11.4 L-3.05 -11.25 -1.85 -10.45 Q0.45 -9.25 3.05 -10.85 M1.85 -9.2 L1.65 -8.6 Q1.7 -8.2 1.95 -7.95 2.2 -7.7 2.55 -7.75 2.95 -7.75 3.2 -8.05 3.5 -8.3 3.45 -8.65 L3.15 -9.3 2.45 -9.5 1.85 -9.2 M-0.6 -7.9 Q-0.65 -8.3 -1.0 -8.6 L-1.8 -8.85 -2.5 -8.5 -2.75 -7.75 -2.4 -7.05 Q-2.05 -6.75 -1.65 -6.8 -1.2 -6.8 -0.9 -7.15 -0.6 -7.45 -0.6 -7.9 M-4.2 -9.8 L-4.05 -9.45 Q-3.85 -9.3 -3.65 -9.3 -3.4 -9.3 -3.3 -9.5 -3.15 -9.65 -3.15 -9.9 L-3.35 -10.25 -3.75 -10.35 -4.1 -10.2 -4.2 -9.8" fill="#224156" fill-rule="evenodd" stroke="none"/>
    <path d="M-1.65 -14.35 Q-0.5 -14.55 0.75 -14.35 3.3 -13.95 3.5 -12.9 L3.05 -10.85 Q0.45 -9.25 -1.85 -10.45 -2.6 -11.7 -2.15 -12.65 L-1.65 -12.45 Q-2.2 -13.3 -1.65 -14.35 M5.15 -9.1 L6.8 -8.35 8.75 -7.2 Q8.65 -4.7 8.25 -3.1 L7.3 -0.25 Q6.0 3.5 3.85 6.1 6.5 8.85 7.1 10.25 L5.0 11.3 4.15 9.5 Q2.85 6.8 1.4 5.35 L1.45 3.65 2.0 1.9 2.05 1.9 Q3.7 1.7 4.2 0.8 4.85 -0.55 3.95 -3.5 L3.8 -3.85 4.35 -4.45 Q5.75 -6.2 6.8 -8.35 5.4 -5.9 3.45 -4.45 L1.85 -6.15 1.9 -6.2 Q3.8 -6.9 4.95 -8.7 L5.15 -9.1 M-4.1 5.95 L-5.95 1.6 Q-6.9 1.35 -7.5 0.75 L-7.9 0.35 Q-8.5 -0.3 -8.65 -1.3 -8.3 -0.05 -7.15 0.55 L-6.55 0.4 -5.65 1.65 -5.6 1.65 -4.05 5.1 -4.1 5.95 M2.3 -13.05 Q0.2 -11.85 -1.65 -12.45 0.2 -11.85 2.3 -13.05 M5.5 -2.7 L5.85 -1.65 5.9 -1.0 Q6.0 0.9 4.75 2.2 3.55 3.6 1.7 3.65 L1.45 3.65 1.7 3.65 Q3.55 3.6 4.75 2.2 6.0 0.9 5.9 -1.0 L5.85 -1.65 5.5 -2.7 M-5.95 1.6 L-5.65 1.65 -5.95 1.6" fill="#809b96" fill-rule="evenodd" stroke="none"/>
    <path d="M-4.85 -10.55 Q-4.35 -10.7 -3.6 -11.75 L-3.25 -11.4 Q-4.05 -10.3 -4.8 -10.0 L-4.85 -10.55" fill="#618ea3" fill-rule="evenodd" stroke="none"/>
    <path d="M-6.9 11.25 L-6.2 9.6 Q-5.4 7.65 -4.1 5.95 L-4.05 5.1 -3.7 5.9 Q-4.8 7.65 -5.8 11.9 L-6.35 11.65 -6.9 11.25 M-8.65 -1.3 L-8.75 -1.95 Q-8.8 -3.6 -8.3 -4.5 L-8.2 -4.6 Q-7.55 -5.55 -7.55 -6.75 L-7.55 -6.85 Q-8.1 -9.3 -7.75 -10.0 L-6.0 -10.5 -4.85 -10.55 -4.8 -10.0 -4.5 -8.7 -4.5 -8.65 -3.85 -7.45 -5.6 -5.15 Q-6.05 -6.0 -6.1 -6.85 -6.35 -8.4 -6.0 -10.5 -6.9 -7.95 -6.8 -6.1 -6.75 -5.0 -6.2 -4.1 -7.55 -1.55 -6.55 0.4 L-7.15 0.55 Q-8.3 -0.05 -8.65 -1.3 M-3.6 -11.75 L-3.7 -13.55 Q-2.75 -14.15 -1.65 -14.35 -2.2 -13.3 -1.65 -12.45 L-2.15 -12.65 -2.95 -13.15 -2.15 -12.65 Q-2.6 -11.7 -1.85 -10.45 L-3.05 -11.25 -3.25 -11.4 -3.6 -11.75 M1.85 -6.15 L3.45 -4.45 1.8 -3.5 1.4 -6.05 1.85 -6.15 M3.8 -3.85 L3.95 -3.5 Q4.85 -0.55 4.2 0.8 3.7 1.7 2.05 1.9 L2.0 1.9 1.95 -2.35 3.8 -3.85 M4.2 11.6 L4.2 11.55 Q3.5 8.95 1.55 6.5 L1.4 5.35 Q2.85 6.8 4.15 9.5 L5.0 11.3 4.2 11.6" fill="#b6cac8" fill-rule="evenodd" stroke="none"/>
    <path d="M7.1 10.25 Q8.35 11.95 8.35 13.85 L5.0 15.15 4.95 13.85 4.2 11.6 5.0 11.3 7.1 10.25" fill="#000000" fill-rule="evenodd" stroke="none"/>
    <path d="M5.0 15.15 L2.05 15.85 2.2 15.1 2.2 14.45 Q2.1 13.25 1.4 12.45 L4.2 11.6 4.95 13.85 5.0 15.15 M-4.0 15.75 Q-6.0 15.3 -6.85 14.55 -7.15 12.0 -6.9 11.25 L-6.35 11.65 -5.8 11.9 -3.2 12.25 -3.4 12.45 Q-4.05 13.25 -4.15 14.35 L-4.2 14.85 -4.0 15.75 M-2.85 13.35 Q-2.3 12.75 -1.45 12.7 -0.6 12.65 0.05 13.2 0.7 13.75 0.75 14.6 L0.75 15.15 0.3 16.05 0.25 16.1 Q-0.3 16.75 -1.15 16.8 -2.0 16.85 -2.65 16.25 L-2.95 15.95 -3.35 14.85 -3.35 14.6 Q-3.3 13.9 -2.85 13.35" fill="#2f3f4a" fill-rule="evenodd" stroke="none"/>
    <path d="M2.05 15.85 L1.4 16.85 Q0.55 17.95 -0.8 18.0 -2.15 18.1 -3.1 17.15 -3.8 16.55 -4.0 15.75 L-4.2 14.85 -4.15 14.35 Q-4.05 13.25 -3.4 12.45 L-3.2 12.25 Q-2.3 11.35 -1.25 11.3 0.15 11.2 1.1 12.15 L1.4 12.45 Q2.1 13.25 2.2 14.45 L2.2 15.1 2.05 15.85 M-2.85 13.35 Q-3.3 13.9 -3.35 14.6 L-3.35 14.85 -2.95 15.95 -2.65 16.25 Q-2.0 16.85 -1.15 16.8 -0.3 16.75 0.25 16.1 L0.3 16.05 0.75 15.15 0.75 14.6 Q0.7 13.75 0.05 13.2 -0.6 12.65 -1.45 12.7 -2.3 12.75 -2.85 13.35" fill="#8f8b96" fill-rule="evenodd" stroke="none"/>
    <path d="M-1.65 -14.35 Q-0.5 -14.55 0.75 -14.35 3.3 -13.95 3.5 -12.9 L3.05 -10.85 Q4.2 -9.4 5.15 -9.1 L6.8 -8.35 8.75 -7.2 M7.1 10.25 Q8.35 11.95 8.35 13.85 L5.0 15.15 2.05 15.85 1.4 16.85 Q0.55 17.95 -0.8 18.0 -2.15 18.1 -3.1 17.15 -3.8 16.55 -4.0 15.75 -6.0 15.3 -6.85 14.55 -7.15 12.0 -6.9 11.25 M-5.95 1.6 Q-6.9 1.35 -7.5 0.75 L-7.9 0.35 Q-8.5 -0.3 -8.65 -1.3 L-8.75 -1.95 Q-8.8 -3.6 -8.3 -4.5 L-8.2 -4.6 Q-7.55 -5.55 -7.55 -6.75 M-7.75 -10.0 L-6.0 -10.5 -4.85 -10.55 -4.8 -10.0 -4.5 -8.7 -4.5 -8.65 -3.85 -7.45 Q-3.05 -6.4 -1.8 -5.9 L-1.75 -5.9 1.4 -6.05 1.85 -6.15 1.9 -6.2 Q3.8 -6.9 4.95 -8.7 L5.15 -9.1 M-3.6 -11.75 L-3.7 -13.55 Q-2.75 -14.15 -1.65 -14.35 M-1.65 -12.45 Q0.2 -11.85 2.3 -13.05 M1.45 3.65 L1.7 3.65 Q3.55 3.6 4.75 2.2 6.0 0.9 5.9 -1.0 L5.85 -1.65 5.5 -2.7 M-2.15 -12.65 L-2.95 -13.15 M-2.15 -12.65 L-1.65 -12.45 M-3.25 -11.4 L-3.05 -11.25 -1.85 -10.45 Q0.45 -9.25 3.05 -10.85 M-3.6 -11.75 L-3.25 -11.4 M-5.8 11.9 L-3.2 12.25 Q-2.3 11.35 -1.25 11.3 0.15 11.2 1.1 12.15 L1.4 12.45 4.2 11.6 4.2 11.55 M1.45 3.65 Q-0.2 3.65 -1.5 2.6 L-1.65 2.4 Q-2.8 1.65 -4.75 1.7 L-5.6 1.65 -5.65 1.65 -5.95 1.6 M-3.2 12.25 L-3.4 12.45 Q-4.05 13.25 -4.15 14.35 L-4.2 14.85 -4.0 15.75 M-2.85 13.35 Q-2.3 12.75 -1.45 12.7 -0.6 12.65 0.05 13.2 0.7 13.75 0.75 14.6 L0.75 15.15 0.3 16.05 0.25 16.1 Q-0.3 16.75 -1.15 16.8 -2.0 16.85 -2.65 16.25 L-2.95 15.95 -3.35 14.85 -3.35 14.6 Q-3.3 13.9 -2.85 13.35 M5.0 11.3 L4.2 11.6 M7.1 10.25 L5.0 11.3 M1.4 12.45 Q2.1 13.25 2.2 14.45 L2.2 15.1 2.05 15.85" fill="none" stroke="#000000" stroke-linecap="round" stroke-linejoin="round" stroke-width="0.05"/>
    <path d="M2.0 1.9 L1.45 3.65 1.4 5.35 1.55 6.5 Q3.5 8.95 4.2 11.55 M-3.85 -7.45 L-5.6 -5.15 M1.4 -6.05 L1.8 -3.5 M-4.05 5.1 L-3.7 5.9 Q-4.8 7.65 -5.8 11.9 M-5.6 1.65 L-4.05 5.1 M-6.55 0.4 L-5.65 1.65 M-6.55 0.4 Q-7.55 -1.55 -6.2 -4.1 M1.95 -2.35 L2.0 1.9" fill="none" stroke="#999999" stroke-linecap="round" stroke-linejoin="round" stroke-width="0.05"/>
    <path d="M6.8 -8.35 Q5.75 -6.2 4.35 -4.45 L3.8 -3.85 1.95 -2.35 Q-0.4 -1.05 -2.95 -1.8 -5.3 -2.55 -6.2 -4.1 -6.75 -5.0 -6.8 -6.1 -6.9 -7.95 -6.0 -10.5" fill="none" stroke="#c0b101" stroke-linecap="round" stroke-linejoin="round" stroke-width="0.05"/>
    <path d="M8.25 -3.1 L7.3 -0.25 Q6.0 3.5 3.85 6.1 6.5 8.85 7.1 10.25 M-6.9 11.25 L-6.2 9.6 Q-5.4 7.65 -4.1 5.95 L-5.95 1.6" fill="none" stroke="#666666" stroke-linecap="round" stroke-linejoin="round" stroke-width="0.05"/>
  </g>
</svg>
