<?xml version="1.0" encoding="UTF-8" standalone="no"?>
<svg xmlns:xlink="http://www.w3.org/1999/xlink" height="23.55px" width="8.1px" xmlns="http://www.w3.org/2000/svg">
  <g transform="matrix(1.0, 0.0, 0.0, 1.0, 4.05, 11.55)">
    <path d="M3.85 2.9 L4.05 10.7 Q0.1 13.4 -0.65 10.55 -3.05 5.05 -3.8 -2.65 L-3.25 -4.25 -2.95 -4.8 -1.95 -5.85 -1.35 -6.0 Q0.45 -6.05 2.1 -2.45 3.2 -0.1 3.85 2.9" fill="#9caccf" fill-rule="evenodd" stroke="none"/>
    <path d="M3.85 2.9 Q3.2 -0.1 2.1 -2.45 0.45 -6.05 -1.35 -6.0 L-1.95 -5.85 -2.95 -4.8 -3.25 -4.25 -3.8 -2.65 -3.9 -4.2 -4.05 -7.6 Q-4.0 -9.5 -3.15 -10.95 L-2.55 -11.15 Q-0.25 -11.95 1.55 -11.15 3.3 -7.5 3.85 2.9" fill="#7892bc" fill-rule="evenodd" stroke="none"/>
    <path d="M4.05 10.7 L3.85 2.9 Q3.3 -7.5 1.55 -11.15 M-3.8 -2.65 Q-3.05 5.05 -0.65 10.55 M-3.15 -10.95 Q-4.0 -9.5 -4.05 -7.6 L-3.9 -4.2 -3.8 -2.65" fill="none" stroke="#364b6d" stroke-linecap="round" stroke-linejoin="round" stroke-width="0.05"/>
  </g>
</svg>
