<?xml version="1.0" encoding="UTF-8" standalone="no"?>
<svg xmlns:xlink="http://www.w3.org/1999/xlink" height="27.85px" width="11.35px" xmlns="http://www.w3.org/2000/svg">
  <g transform="matrix(1.0, 0.0, 0.0, 1.0, 4.05, 15.85)">
    <path d="M3.85 2.9 L4.05 10.7 Q0.1 13.4 -0.65 10.55 -3.05 5.05 -3.8 -2.65 L-3.25 -4.25 -2.95 -4.8 -1.95 -5.85 -1.35 -6.0 Q0.45 -6.05 2.1 -2.45 3.2 -0.1 3.85 2.9" fill="#3c4147" fill-rule="evenodd" stroke="none"/>
    <path d="M3.85 2.9 Q3.2 -0.1 2.1 -2.45 0.45 -6.05 -1.35 -6.0 L-1.95 -5.85 -2.95 -4.8 -3.25 -4.25 -3.8 -2.65 -3.9 -4.2 -4.05 -7.6 Q-4.0 -9.5 -3.15 -10.95 L-2.55 -11.15 Q-0.25 -11.95 1.55 -11.15 3.3 -7.5 3.85 2.9" fill="#1e2225" fill-rule="evenodd" stroke="none"/>
    <path d="M4.05 10.7 L3.85 2.9 Q3.3 -7.5 1.55 -11.15 -0.25 -11.95 -2.55 -11.15 L-3.15 -10.95 Q-4.0 -9.5 -4.05 -7.6 L-3.9 -4.2 -3.8 -2.65 Q-3.05 5.05 -0.65 10.55" fill="none" stroke="#a0a0a0" stroke-linecap="round" stroke-linejoin="round" stroke-width="0.05"/>
    <path d="M6.45 5.7 L5.05 9.8 Q1.45 5.0 -0.7 -1.15 L-1.65 -4.0 -2.6 -7.65 Q-2.1 -9.7 -1.4 -11.2 -0.3 -13.85 1.3 -15.05 2.1 -15.65 3.0 -15.85 L3.7 -14.6 4.05 -14.0 Q1.4 -12.85 -0.55 -7.5 0.55 -3.15 2.1 0.65 L4.2 5.1 Q4.8 3.0 6.2 1.35 6.8 3.3 6.45 5.7" fill="#b4dacc" fill-rule="evenodd" stroke="none"/>
    <path d="M4.05 -14.0 L5.45 -10.75 Q8.55 -2.4 6.45 5.7 6.8 3.3 6.2 1.35 4.8 3.0 4.2 5.1 L2.1 0.65 Q0.55 -3.15 -0.55 -7.5 1.4 -12.85 4.05 -14.0" fill="#313647" fill-rule="evenodd" stroke="none"/>
    <path d="M6.45 5.7 L5.05 9.8 Q1.45 5.0 -0.7 -1.15 L-1.65 -4.0 -2.6 -7.65 Q-2.1 -9.7 -1.4 -11.2 -0.3 -13.85 1.3 -15.05 2.1 -15.65 3.0 -15.85 L3.7 -14.6 4.05 -14.0 Q1.4 -12.85 -0.55 -7.5 0.55 -3.15 2.1 0.65 L4.2 5.1 Q4.8 3.0 6.2 1.35 6.8 3.3 6.45 5.7 Z" fill="none" stroke="#a0a0a0" stroke-linecap="round" stroke-linejoin="round" stroke-width="0.05"/>
  </g>
</svg>
