<?xml version="1.0" encoding="UTF-8" standalone="no"?>
<svg xmlns:xlink="http://www.w3.org/1999/xlink" height="5.3px" width="10.55px" xmlns="http://www.w3.org/2000/svg">
  <g transform="matrix(1.0, 0.0, 0.0, 1.0, 4.35, 2.3)">
    <path d="M-2.4 -2.05 L-0.2 -2.3 1.6 -2.15 6.05 -1.65 Q6.65 0.9 4.85 3.0 3.6 2.25 1.7 2.2 L1.45 2.3 0.1 2.6 -0.85 2.6 -0.9 2.6 Q-2.4 2.45 -3.4 1.7 -4.45 0.85 -4.35 -0.2 -4.25 -0.85 -3.7 -1.3 L-3.0 -1.8 -2.4 -2.05" fill="#8e3939" fill-rule="evenodd" stroke="none"/>
    <path d="M-2.4 -2.05 L-0.2 -2.3 1.6 -2.15 6.05 -1.65 Q6.65 0.9 4.85 3.0 3.6 2.25 1.7 2.2 L1.45 2.3 0.1 2.6" fill="none" stroke="#6b2c2c" stroke-linecap="round" stroke-linejoin="round" stroke-width="0.05"/>
  </g>
</svg>
