<?xml version="1.0" encoding="UTF-8" standalone="no"?>
<svg xmlns:xlink="http://www.w3.org/1999/xlink" height="4.75px" width="8.15px" xmlns="http://www.w3.org/2000/svg">
  <g transform="matrix(1.0, 0.0, 0.0, 1.0, 4.05, 2.25)">
    <path d="M2.25 -1.8 L3.0 -1.4 3.75 -0.95 Q4.2 -0.65 4.1 0.3 3.95 1.25 2.75 1.85 L2.7 1.9 2.4 2.0 0.15 2.35 0.1 2.35 -1.2 2.4 Q-2.3 2.15 -2.75 1.8 L-3.3 1.35 0.4 1.55 0.6 1.5 2.4 0.9 2.45 0.85 2.85 0.55 Q3.4 0.0 3.2 -0.6 L2.9 -1.1 2.25 -1.8" fill="#d1d1d1" fill-rule="evenodd" stroke="none"/>
    <path d="M-3.3 1.35 L-3.6 1.05 -3.8 0.85 -4.05 -0.15 Q-3.95 -1.15 -2.7 -1.75 -1.45 -2.35 0.2 -2.25 L2.25 -1.8 2.9 -1.1 3.2 -0.6 Q3.4 0.0 2.85 0.55 L2.45 0.85 2.4 0.9 0.6 1.5 0.4 1.55 -3.3 1.35" fill="#ffffff" fill-rule="evenodd" stroke="none"/>
    <path d="M-3.3 1.35 L-3.6 1.05 -3.8 0.85 -4.05 -0.15 Q-3.95 -1.15 -2.7 -1.75 -1.45 -2.35 0.2 -2.25 L2.25 -1.8 3.0 -1.4 3.75 -0.95 M2.75 1.85 L2.7 1.9 2.4 2.0 0.15 2.35 0.1 2.35 -1.2 2.4 Q-2.3 2.15 -2.75 1.8 L-3.3 1.35 Z" fill="none" stroke="#666666" stroke-linecap="round" stroke-linejoin="round" stroke-width="0.05"/>
  </g>
</svg>
