<?xml version="1.0" encoding="UTF-8" standalone="no"?>
<svg xmlns:xlink="http://www.w3.org/1999/xlink" height="7.45px" width="13.9px" xmlns="http://www.w3.org/2000/svg">
  <g transform="matrix(1.0, 0.0, 0.0, 1.0, 7.35, 3.65)">
    <path d="M-5.6 -2.9 L-6.05 -2.4 -7.35 -2.2 -5.6 -2.9 M5.2 -1.7 Q5.1 -2.4 4.0 -3.05 5.45 -2.6 6.55 -1.25 L5.2 -1.7" fill="#e0e0e0" fill-rule="evenodd" stroke="none"/>
    <path d="M6.55 -1.25 Q4.75 1.85 1.55 3.8 -7.05 1.45 -7.35 -2.2 L-6.05 -2.4 Q-6.05 0.5 1.5 2.1 4.9 -0.25 5.2 -1.7 L6.55 -1.25" fill="#ffffff" fill-rule="evenodd" stroke="none"/>
    <path d="M-6.05 -2.4 Q-0.15 -3.35 5.2 -1.7 4.9 -0.25 1.5 2.1 -6.05 0.5 -6.05 -2.4" fill="#b6e7c2" fill-rule="evenodd" stroke="none"/>
    <path d="M-5.6 -2.9 Q-3.4 -3.65 -0.75 -3.65 L3.0 -3.3 4.0 -3.05 Q5.1 -2.4 5.2 -1.7 -0.15 -3.35 -6.05 -2.4 L-5.6 -2.9" fill="#6cce87" fill-rule="evenodd" stroke="none"/>
    <path d="M4.0 -3.05 L3.0 -3.3 -0.75 -3.65 Q-3.4 -3.65 -5.6 -2.9 L-7.35 -2.2 Q-7.05 1.45 1.55 3.8 4.75 1.85 6.55 -1.25 5.45 -2.6 4.0 -3.05 Z" fill="none" stroke="#37a84e" stroke-linecap="round" stroke-linejoin="round" stroke-width="0.05"/>
  </g>
</svg>
