<?xml version="1.0" encoding="UTF-8" standalone="no"?>
<svg xmlns:xlink="http://www.w3.org/1999/xlink" height="13.15px" width="11.7px" xmlns="http://www.w3.org/2000/svg">
  <g transform="matrix(1.0, 0.0, 0.0, 1.0, 7.35, 8.75)">
    <path d="M-5.35 -2.0 Q-3.65 1.5 -1.05 2.25 1.15 1.05 1.6 -0.05 1.05 -3.25 1.2 -6.4 L1.15 -7.15 0.55 -7.05 0.4 -7.6 Q1.5 -8.7 2.6 -8.65 L3.7 -7.6 Q3.4 -4.6 4.25 0.3 2.3 3.1 -0.7 4.15 -3.7 5.15 -7.15 -0.75 -7.45 -1.65 -6.85 -2.55 L-5.55 -3.5 -4.7 -3.35 -5.2 -2.7 -5.35 -2.0" fill="#ffffff" fill-rule="evenodd" stroke="none"/>
    <path d="M1.2 -6.4 Q1.05 -3.25 1.6 -0.05 1.15 1.05 -1.05 2.25 -3.65 1.5 -5.35 -2.0 -2.5 -5.65 1.2 -6.4" fill="#3c6f64" fill-rule="evenodd" stroke="none"/>
    <path d="M-5.35 -2.0 L-5.2 -2.7 -4.7 -3.35 Q-3.3 -5.05 -1.7 -6.0 L-1.0 -6.4 0.55 -7.05 1.15 -7.15 1.2 -6.4 Q-2.5 -5.65 -5.35 -2.0" fill="#42ac81" fill-rule="evenodd" stroke="none"/>
    <path d="M1.2 -6.4 Q1.05 -3.25 1.6 -0.05 1.15 1.05 -1.05 2.25 -3.65 1.5 -5.35 -2.0 L-5.2 -2.7 -4.7 -3.35 M0.55 -7.05 L1.15 -7.15 1.2 -6.4" fill="none" stroke="#a0a0a0" stroke-linecap="round" stroke-linejoin="round" stroke-width="0.05"/>
    <path d="M-4.7 -3.35 L-5.55 -3.5 -6.85 -2.55 Q-7.45 -1.65 -7.15 -0.75 -3.7 5.15 -0.7 4.15 2.3 3.1 4.25 0.3 3.4 -4.6 3.7 -7.6 L2.6 -8.65 Q1.5 -8.7 0.4 -7.6 L0.55 -7.05 -1.0 -6.4 -1.7 -6.0 Q-3.3 -5.05 -4.7 -3.35" fill="none" stroke="#2e813e" stroke-linecap="round" stroke-linejoin="round" stroke-width="0.25"/>
  </g>
</svg>
