<?xml version="1.0" encoding="UTF-8" standalone="no"?>
<svg xmlns:xlink="http://www.w3.org/1999/xlink" height="6.6px" width="20.2px" xmlns="http://www.w3.org/2000/svg">
  <g transform="matrix(1.0, 0.0, 0.0, 1.0, 8.85, 4.45)">
    <path d="M-8.35 -1.0 L-6.3 -2.7 -5.45 -3.2 -4.9 -3.5 -3.55 -4.15 -2.65 -4.4 -1.95 -4.45 Q-0.35 -4.35 5.7 -2.3 L7.4 -1.7 7.3 -1.1 Q9.5 -0.4 9.35 0.25 9.25 0.6 6.85 0.85 L2.95 0.8 Q1.75 -0.15 -0.7 -1.05 -2.45 -0.9 -4.8 0.95 -8.75 0.45 -8.35 -1.0" fill="#9d9d9d" fill-rule="evenodd" stroke="none"/>
    <path d="M-8.35 -1.0 Q-8.75 0.45 -4.8 0.95 -2.45 -0.9 -0.7 -1.05 1.75 -0.15 2.95 0.8 L6.85 0.85 Q9.25 0.6 9.35 0.25 9.5 -0.4 7.3 -1.1 L7.4 -1.7 Q11.65 -0.15 11.3 0.4 11.4 1.4 10.6 1.6 L1.75 2.15 -6.85 1.65 Q-8.65 1.25 -8.85 0.2 -8.95 -0.3 -8.35 -1.0" fill="#000000" fill-rule="evenodd" stroke="none"/>
    <path d="M7.4 -1.7 L5.7 -2.3 Q-0.35 -4.35 -1.95 -4.45 L-2.65 -4.4 -3.55 -4.15 -4.9 -3.5 -5.45 -3.2 -6.3 -2.7 -8.35 -1.0 Q-8.95 -0.3 -8.85 0.2 -8.65 1.25 -6.85 1.65 L1.75 2.15 10.6 1.6 Q11.4 1.4 11.3 0.4 11.65 -0.15 7.4 -1.7 Z" fill="none" stroke="#999999" stroke-linecap="round" stroke-linejoin="round" stroke-width="0.05"/>
  </g>
</svg>
