<?xml version="1.0" encoding="UTF-8" standalone="no"?>
<svg xmlns:xlink="http://www.w3.org/1999/xlink" height="10.25px" width="19.1px" xmlns="http://www.w3.org/2000/svg">
  <g transform="matrix(1.0, 0.0, 0.0, 1.0, 9.85, 4.95)">
    <path d="M8.25 -1.55 L9.25 0.25 Q2.9 0.45 1.9 3.9 L0.25 5.3 Q-7.35 4.0 -9.45 -0.3 -10.35 -2.15 -9.15 -3.4 -7.8 -4.75 -4.25 -4.8 -8.2 -4.3 -7.8 -1.95 -7.4 0.35 -3.3 2.15 L-1.7 -0.15 Q-2.95 -1.9 -4.0 0.25 -4.9 -1.55 -3.55 -2.65 -2.2 -3.7 -1.15 -1.0 0.4 -3.5 0.5 -4.85 L1.95 -4.65 Q1.6 -2.15 -2.15 2.65 L-0.15 3.35 Q1.7 -1.5 8.25 -1.55 M-2.9 -4.9 L-0.7 -4.95 0.05 -4.9 Q-1.7 -3.8 -2.9 -4.9" fill="#ffffff" fill-rule="evenodd" stroke="none"/>
    <path d="M1.95 -4.65 Q6.35 -3.9 8.25 -1.55 1.7 -1.5 -0.15 3.35 L-2.15 2.65 Q1.6 -2.15 1.95 -4.65 M-4.25 -4.8 L-2.9 -4.9 Q-1.7 -3.8 0.05 -4.9 L0.5 -4.85 Q0.4 -3.5 -1.15 -1.0 -2.2 -3.7 -3.55 -2.65 -4.9 -1.55 -4.0 0.25 -2.95 -1.9 -1.7 -0.15 L-3.3 2.15 Q-7.4 0.35 -7.8 -1.95 -8.2 -4.3 -4.25 -4.8" fill="#000000" fill-rule="evenodd" stroke="none"/>
    <path d="M1.95 -4.65 Q6.35 -3.9 8.25 -1.55 L9.25 0.25 Q2.9 0.45 1.9 3.9 L0.25 5.3 Q-7.35 4.0 -9.45 -0.3 -10.35 -2.15 -9.15 -3.4 -7.8 -4.75 -4.25 -4.8 L-2.9 -4.9 -0.7 -4.95 0.05 -4.9 0.5 -4.85 1.95 -4.65 Q1.6 -2.15 -2.15 2.65 L-0.15 3.35 Q1.7 -1.5 8.25 -1.55 M0.5 -4.85 Q0.4 -3.5 -1.15 -1.0 -2.2 -3.7 -3.55 -2.65 -4.9 -1.55 -4.0 0.25 -2.95 -1.9 -1.7 -0.15 L-3.3 2.15 Q-7.4 0.35 -7.8 -1.95 -8.2 -4.3 -4.25 -4.8 M0.05 -4.9 Q-1.7 -3.8 -2.9 -4.9" fill="none" stroke="#999999" stroke-linecap="round" stroke-linejoin="round" stroke-width="0.05"/>
  </g>
</svg>
