<?xml version="1.0" encoding="UTF-8" standalone="no"?>
<svg xmlns:xlink="http://www.w3.org/1999/xlink" height="12.15px" width="14.6px" xmlns="http://www.w3.org/2000/svg">
  <g transform="matrix(1.0, 0.0, 0.0, 1.0, 7.4, 7.65)">
    <path d="M3.15 -6.85 Q3.2 -7.35 3.65 -7.65 L5.8 -7.25 6.4 -6.5 Q7.65 -4.65 6.95 -1.25 6.15 2.15 2.05 4.5 -2.8 4.45 -7.05 0.1 -7.6 -0.45 -7.3 -2.15 -7.0 -3.9 -6.25 -4.8 L-4.95 -5.95 Q-4.45 -6.2 -4.35 -5.7 -5.8 -4.35 -6.05 -2.85 -6.4 -1.3 -2.55 0.9 1.85 -0.4 3.75 -1.9 4.65 -4.95 3.75 -6.55 L3.15 -6.85 M2.25 2.05 L4.5 -0.5 Q2.2 1.15 -1.0 1.75 L1.5 2.5 2.25 2.05" fill="#ffffff" fill-rule="evenodd" stroke="none"/>
    <path d="M2.25 2.05 L1.5 2.5 -1.0 1.75 Q2.2 1.15 4.5 -0.5 L2.25 2.05" fill="#294163" fill-rule="evenodd" stroke="none"/>
    <path d="M3.15 -6.85 L3.75 -6.55 Q4.65 -4.95 3.75 -1.9 1.85 -0.4 -2.55 0.9 -6.4 -1.3 -6.05 -2.85 -5.8 -4.35 -4.35 -5.7 -1.45 -7.95 3.15 -6.85" fill="#45916e" fill-rule="evenodd" stroke="none"/>
    <path d="M-4.35 -5.7 Q-4.45 -6.2 -4.95 -5.95 L-6.25 -4.8 Q-7.0 -3.9 -7.3 -2.15 -7.6 -0.45 -7.05 0.1 -2.8 4.45 2.05 4.5 6.15 2.15 6.95 -1.25 7.65 -4.65 6.4 -6.5 L5.8 -7.25 3.65 -7.65 Q3.2 -7.35 3.15 -6.85 -1.45 -7.95 -4.35 -5.7 Z" fill="none" stroke="#2e813e" stroke-linecap="round" stroke-linejoin="round" stroke-width="0.05"/>
  </g>
</svg>
