<?xml version="1.0" encoding="UTF-8" standalone="no"?>
<svg xmlns:xlink="http://www.w3.org/1999/xlink" height="13.45px" width="10.9px" xmlns="http://www.w3.org/2000/svg">
  <g transform="matrix(1.0, 0.0, 0.0, 1.0, 6.4, 7.9)">
    <path d="M-2.55 4.55 L-3.2 5.25 Q-4.0 0.25 -6.4 -1.55 L-6.15 -2.45 Q-3.2 0.65 -2.55 4.55 M3.5 3.3 Q1.85 4.7 -0.35 5.55 -0.55 4.35 -1.0 3.4 L-0.35 3.05 Q0.0 3.65 0.2 4.75 L3.5 3.3" fill="#618ea3" fill-rule="evenodd" stroke="none"/>
    <path d="M-6.15 -2.45 Q-5.2 -5.5 -2.1 -7.55 -1.05 -7.05 -0.45 -5.7 0.85 -7.45 2.9 -7.9 5.75 -5.1 3.5 3.3 L0.2 4.75 Q0.0 3.65 -0.35 3.05 L-1.0 3.4 Q-1.85 3.85 -2.55 4.55 -3.2 0.65 -6.15 -2.45 M-1.0 1.15 Q-1.1 0.75 -1.5 0.55 L-2.3 0.45 Q-2.75 0.6 -3.0 0.95 L-3.1 1.75 -2.65 2.35 -1.8 2.45 -1.3 2.2 Q-0.9 1.8 -1.0 1.15 M-0.35 3.05 L-0.15 3.0 0.05 2.9 -0.15 3.0 -0.35 3.05 M0.3 1.35 L0.15 2.8 0.15 2.85 0.05 2.9 0.3 3.1 1.2 3.25 Q1.65 3.15 1.9 2.75 L2.0 1.95 1.55 1.3 0.65 1.2 0.3 1.35 Q0.55 -3.4 -0.45 -5.7 0.55 -3.4 0.3 1.35" fill="#224156" fill-rule="evenodd" stroke="none"/>
    <path d="M-1.0 1.15 Q-0.9 1.8 -1.3 2.2 L-1.8 2.45 -2.65 2.35 -3.1 1.75 -3.0 0.95 Q-2.75 0.6 -2.3 0.45 L-1.5 0.55 Q-1.1 0.75 -1.0 1.15 M0.05 2.9 L0.15 2.85 0.15 2.8 0.3 1.35 0.65 1.2 1.55 1.3 2.0 1.95 1.9 2.75 Q1.65 3.15 1.2 3.25 L0.3 3.1 0.05 2.9" fill="#fffca8" fill-rule="evenodd" stroke="none"/>
    <path d="M-2.55 4.55 L-3.2 5.25 Q-4.0 0.25 -6.4 -1.55 L-6.15 -2.45 Q-5.2 -5.5 -2.1 -7.55 -1.05 -7.05 -0.45 -5.7 0.85 -7.45 2.9 -7.9 5.75 -5.1 3.5 3.3 1.85 4.7 -0.35 5.55 -0.55 4.35 -1.0 3.4 -1.85 3.85 -2.55 4.55 M0.05 2.9 L-0.15 3.0 -0.35 3.05 -1.0 3.4 M0.3 1.35 L0.15 2.8 0.15 2.85 0.05 2.9 M0.3 1.35 Q0.55 -3.4 -0.45 -5.7" fill="none" stroke="#000000" stroke-linecap="round" stroke-linejoin="round" stroke-width="0.05"/>
  </g>
</svg>
