<?xml version="1.0" encoding="UTF-8" standalone="no"?>
<svg xmlns:xlink="http://www.w3.org/1999/xlink" height="25.8px" width="23.2px" xmlns="http://www.w3.org/2000/svg">
  <g transform="matrix(1.0, 0.0, 0.0, 1.0, 8.9, 14.65)">
    <path d="M-8.9 -9.05 Q-5.6 -7.4 -0.65 -8.9 L2.75 -10.25 2.75 -10.3 Q2.5 -12.65 0.45 -14.45 2.7 -14.0 4.65 -12.3 L4.7 -12.35 Q4.95 -12.15 5.95 -11.9 8.45 -13.1 9.7 -13.25 12.05 -12.55 12.65 -11.75 8.95 -11.55 9.35 -10.2 11.75 -10.35 13.4 -9.05 12.0 -9.0 11.25 -7.8 14.7 -3.5 14.25 -1.35 11.8 3.6 9.55 5.0 10.55 2.05 9.45 1.35 8.95 1.05 8.5 1.35 L7.7 4.8 Q6.95 0.4 6.0 0.25 L5.8 2.1 Q5.05 -0.9 3.5 -1.7 L3.35 -1.95 3.6 -0.1 Q2.15 -3.55 0.6 -3.05 -0.15 -2.3 -0.55 -0.85 -1.8 -1.75 -0.75 -6.6 -1.85 -5.25 -2.0 -3.2 L-2.0 -3.35 Q-3.85 1.7 -4.3 7.9 -5.1 6.35 -5.85 -2.65 L-5.75 -3.05 -6.5 -2.15 Q-6.45 -4.2 -4.65 -5.65 -4.8 -5.6 -4.75 -7.25 -7.2 -7.05 -8.9 -9.05" fill="#413445" fill-rule="evenodd" stroke="none"/>
    <path d="M0.45 -14.45 Q2.5 -12.65 2.75 -10.3 L2.75 -10.25 -0.65 -8.9 Q-5.6 -7.4 -8.9 -9.05 -5.2 -9.1 -2.65 -10.75 L-0.6 -12.05 Q-0.45 -13.35 -2.9 -14.5 -1.15 -14.8 0.45 -14.45 M-4.75 -7.25 Q-4.8 -5.6 -4.65 -5.65 -6.45 -4.2 -6.5 -2.15 -7.55 -0.6 -7.9 1.65 -8.45 -3.65 -4.75 -7.25 M-5.85 -2.65 Q-5.1 6.35 -4.3 7.9 L-4.15 11.15 Q-7.05 4.65 -5.85 -2.65 M-2.0 -3.2 Q-1.85 -5.25 -0.75 -6.6 -1.8 -1.75 -0.55 -0.85 -0.95 -0.1 -0.9 1.4 -2.05 -0.3 -2.0 -3.2 M0.6 -3.05 Q2.15 -3.55 3.6 -0.1 3.55 1.2 2.95 2.6 2.7 -0.8 0.6 -3.05 M3.5 -1.7 Q5.05 -0.9 5.8 2.1 L5.4 3.45 5.0 1.85 3.5 -1.7 M6.0 0.25 Q6.95 0.4 7.7 4.8 L6.75 6.85 Q7.1 3.15 6.0 0.25 M9.7 -13.25 Q8.45 -13.1 5.95 -11.9 4.95 -12.15 4.7 -12.35 6.55 -13.7 9.7 -13.25" fill="#68536f" fill-rule="evenodd" stroke="none"/>
  </g>
</svg>
