<?xml version="1.0" encoding="UTF-8" standalone="no"?>
<svg xmlns:xlink="http://www.w3.org/1999/xlink" height="13.6px" width="14.35px" xmlns="http://www.w3.org/2000/svg">
  <g transform="matrix(1.0, 0.0, 0.0, 1.0, 6.1, 8.4)">
    <path d="M-2.15 -8.4 L-2.15 -8.35 Q-2.9 -7.75 -2.8 -6.35 -1.5 -7.35 0.65 -7.4 0.25 -6.1 0.6 -5.4 L5.3 -5.6 Q8.2 -4.65 8.25 -2.1 5.5 0.8 7.5 5.2 4.2 3.4 3.9 -1.15 2.5 -0.25 4.15 4.0 -0.1 0.2 -1.1 -3.35 -2.0 -1.45 -1.1 0.65 -3.25 -1.05 -3.65 -3.75 L-3.8 -4.05 Q-4.65 -3.15 -5.35 -1.65 L-5.95 -0.15 -6.1 -2.5 -6.05 -2.85 -5.9 -4.15 Q-5.2 -7.2 -2.25 -8.35 L-2.2 -8.35 -2.15 -8.4" fill="#f4d9de" fill-rule="evenodd" stroke="none"/>
    <path d="M7.5 5.2 Q4.2 3.4 3.9 -1.15 M4.15 4.0 Q-0.1 0.2 -1.1 -3.35 M-1.1 0.65 Q-3.25 -1.05 -3.65 -3.75 L-3.8 -4.05 M-5.95 -0.15 L-6.1 -2.5 -6.05 -2.85 -5.9 -4.15 Q-5.2 -7.2 -2.25 -8.35 L-2.2 -8.35 -2.15 -8.4" fill="none" stroke="#d35a6d" stroke-linecap="round" stroke-linejoin="round" stroke-width="0.05"/>
  </g>
</svg>
