<?xml version="1.0" encoding="UTF-8" standalone="no"?>
<svg xmlns:xlink="http://www.w3.org/1999/xlink" height="32.15px" width="21.05px" xmlns="http://www.w3.org/2000/svg">
  <g transform="matrix(1.0, 0.0, 0.0, 1.0, -3.75, 22.6)">
    <path d="M10.6 -14.4 Q8.05 -19.25 14.7 -22.55 24.55 -23.5 24.8 -10.15 24.1 -13.3 22.1 -14.35 19.0 -11.0 22.1 -6.5 25.6 3.45 20.5 7.45 22.3 0.65 18.9 -4.05 19.1 0.4 17.35 3.85 15.95 6.5 16.3 9.55 14.15 6.1 14.9 1.8 L14.9 1.6 Q16.5 -3.05 13.95 -9.0 L12.85 -11.3 13.15 -11.75 Q12.55 -14.35 10.6 -14.4" fill="#ffffcc" fill-rule="evenodd" stroke="none"/>
    <path d="M3.75 -0.65 L3.8 -0.65 3.75 -0.65" fill="#ffffbb" fill-rule="evenodd" stroke="none"/>
    <path d="M9.5 -12.7 L10.55 -14.4 10.6 -14.4 Q12.55 -14.35 13.15 -11.75 L12.85 -11.3 12.35 -10.45 12.3 -10.4 11.2 -8.65 10.5 -7.55 9.0 -9.05 Q8.15 -9.6 7.65 -9.75 L8.3 -10.85 8.4 -10.95 9.5 -12.7 M9.65 -11.25 L9.65 -10.95 9.85 -10.6 9.9 -10.5 10.55 -10.2 10.7 -10.2 11.2 -10.35 11.4 -10.5 11.6 -10.75 11.75 -11.25 11.4 -12.0 10.7 -12.3 9.9 -12.0 9.65 -11.35 9.65 -11.25" fill="#7d768d" fill-rule="evenodd" stroke="none"/>
    <path d="M12.3 -10.4 Q12.65 -10.1 12.65 -9.65 L12.5 -9.15 12.3 -8.9 12.1 -8.7 12.05 -8.7 11.6 -8.6 11.2 -8.65 12.3 -10.4 M8.4 -10.95 L8.2 -11.05 8.1 -11.15 8.0 -11.4 7.95 -11.55 7.95 -11.8 Q7.9 -12.25 8.2 -12.55 L9.0 -12.85 9.5 -12.7 8.4 -10.95 M9.65 -11.25 L9.65 -11.35 9.9 -12.0 10.7 -12.3 11.4 -12.0 11.75 -11.25 11.6 -10.75 11.4 -10.5 11.2 -10.35 10.7 -10.2 10.55 -10.2 9.9 -10.5 9.85 -10.6 9.65 -10.95 9.65 -11.25" fill="#f0b3c6" fill-rule="evenodd" stroke="none"/>
    <path d="M10.6 -14.4 Q8.05 -19.25 14.7 -22.55 24.55 -23.5 24.8 -10.15 24.1 -13.3 22.1 -14.35 19.0 -11.0 22.1 -6.5 25.6 3.45 20.5 7.45 22.3 0.65 18.9 -4.05 19.1 0.4 17.35 3.85 15.95 6.5 16.3 9.55 14.15 6.1 14.9 1.8 L14.9 1.6 Q16.5 -3.05 13.95 -9.0 L12.85 -11.3" fill="none" stroke="#ffcc66" stroke-linecap="round" stroke-linejoin="round" stroke-width="0.05"/>
  </g>
</svg>
