<?xml version="1.0" encoding="UTF-8" standalone="no"?>
<svg xmlns:xlink="http://www.w3.org/1999/xlink" height="21.0px" width="19.05px" xmlns="http://www.w3.org/2000/svg">
  <g transform="matrix(1.0, 0.0, 0.0, 1.0, 6.55, 10.5)">
    <path d="M2.2 -10.35 L3.8 -10.5 Q5.55 -10.5 7.65 -9.75 8.15 -9.6 9.0 -9.05 L10.5 -7.55 Q13.4 -4.05 12.05 0.4 L12.05 0.45 11.8 1.15 11.7 1.4 10.7 3.4 9.4 4.8 9.55 4.4 9.95 3.15 9.95 3.1 9.95 2.1 9.7 1.65 9.45 1.45 8.8 1.35 8.1 1.5 7.9 1.6 8.0 3.3 8.0 3.85 Q7.9 6.7 6.95 10.5 6.85 3.5 3.8 -0.65 L3.75 -0.65 Q4.4 1.3 3.75 2.8 L3.0 0.35 2.6 -0.55 1.95 -1.65 1.65 -2.05 1.4 -2.35 1.1 -2.65 1.05 -2.7 0.75 -3.0 0.6 -2.85 0.3 -2.4 Q-0.55 -1.2 -0.75 0.5 L-0.85 1.75 -1.4 -0.7 -1.4 -1.45 -1.3 -2.4 -1.1 -3.1 -0.65 -4.05 -1.7 -3.0 -2.35 -2.25 -2.4 -2.15 -2.8 -1.65 -3.35 -0.75 -4.05 0.65 -4.15 1.0 -4.45 2.1 -4.5 2.15 -4.55 2.4 -4.6 0.45 Q-4.5 -2.0 -3.25 -4.2 L-3.5 -3.95 -4.35 -2.95 Q-6.65 0.2 -6.05 4.85 -7.75 -1.7 -3.65 -5.65 -1.85 -8.75 0.7 -9.85 L2.15 -10.3 2.2 -10.3 2.2 -10.35 M7.0 -1.5 L7.8 0.75 7.9 1.6 7.8 0.75 7.0 -1.5" fill="#ffffcc" fill-rule="evenodd" stroke="none"/>
    <path d="M7.9 1.6 L8.1 1.5 8.8 1.35 9.45 1.45 9.7 1.65 9.95 2.1 9.95 3.1 9.95 3.15 9.55 4.4 9.4 4.8 10.7 3.4 11.7 1.4 11.8 1.15 12.05 0.45 12.05 0.4 Q13.4 -4.05 10.5 -7.55 L9.0 -9.05 Q8.15 -9.6 7.65 -9.75 5.55 -10.5 3.8 -10.5 L2.2 -10.35 M2.15 -10.3 L0.7 -9.85 Q-1.85 -8.75 -3.65 -5.65 -7.75 -1.7 -6.05 4.85 -6.65 0.2 -4.35 -2.95 L-3.5 -3.95 -3.25 -4.2 Q-4.5 -2.0 -4.6 0.45 L-4.55 2.4 -4.5 2.15 -4.45 2.1 -4.15 1.0 -4.05 0.65 -3.35 -0.75 -2.8 -1.65 -2.4 -2.15 -2.35 -2.25 -1.7 -3.0 -0.65 -4.05 -1.1 -3.1 -1.3 -2.4 -1.4 -1.45 -1.4 -0.7 -0.85 1.75 -0.75 0.5 Q-0.55 -1.2 0.3 -2.4 L0.6 -2.85 0.75 -3.0 1.05 -2.7 1.1 -2.65 1.4 -2.35 1.65 -2.05 1.95 -1.65 2.6 -0.55 3.0 0.35 3.75 2.8 Q4.4 1.3 3.75 -0.65 L3.8 -0.65 Q6.85 3.5 6.95 10.5 7.9 6.7 8.0 3.85 L8.0 3.3 7.9 1.6 7.8 0.75 7.0 -1.5" fill="none" stroke="#ffcc66" stroke-linecap="round" stroke-linejoin="round" stroke-width="0.05"/>
  </g>
</svg>
