<?xml version="1.0" encoding="UTF-8" standalone="no"?>
<svg xmlns:xlink="http://www.w3.org/1999/xlink" height="25.6px" width="13.6px" xmlns="http://www.w3.org/2000/svg">
  <g transform="matrix(1.0, 0.0, 0.0, 1.0, 6.8, 10.15)">
    <path d="M-0.85 -1.05 L-0.75 -1.0 -0.75 -0.8 -0.85 -0.8 -0.85 -1.05" fill="#ffd0ae" fill-rule="evenodd" stroke="none"/>
    <path d="M-2.85 -6.95 L-2.8 -7.0 -2.0 -8.1 -1.95 -8.1 -0.2 -8.05 -0.15 -8.05 Q2.5 -8.25 3.0 -10.15 L3.05 -9.95 Q5.65 -7.8 5.2 -2.95 4.55 1.1 0.1 -0.95 -0.85 -1.7 -2.85 -6.95" fill="#8e3939" fill-rule="evenodd" stroke="none"/>
    <path d="M-2.85 -6.95 Q-0.85 -1.7 0.1 -0.95 4.55 1.1 5.2 -2.95 4.85 0.65 2.85 5.7 L5.05 8.9 Q3.9 14.75 -4.0 13.35 L-4.05 12.6 -3.75 9.4 -3.2 5.85 -3.25 5.7 -3.35 5.3 Q-0.55 2.75 -0.75 -0.8 L-0.75 -1.0 -0.85 -1.05 -0.9 -1.55 Q-2.3 1.25 -4.2 1.0 -6.0 0.65 -6.75 -1.35 -6.65 -2.45 -6.05 -3.25 L-4.35 -5.15 -3.15 -6.45 -2.85 -6.95" fill="#ffffff" fill-rule="evenodd" stroke="none"/>
    <path d="M5.05 8.9 Q6.2 11.0 6.8 13.25 3.75 16.55 -3.7 14.85 -4.15 13.95 -4.0 13.45 L-4.0 13.35 Q3.9 14.75 5.05 8.9 M-3.35 5.3 L-3.8 1.95 Q-5.05 1.95 -5.95 1.05 L-6.2 0.8 -6.3 0.65 Q-6.7 0.05 -6.75 -0.75 L-6.8 -1.0 -6.75 -1.35 Q-6.0 0.65 -4.2 1.0 -2.3 1.25 -0.9 -1.55 L-0.85 -1.05 -0.85 -0.8 -0.75 -0.8 Q-0.55 2.75 -3.35 5.3 M-3.8 1.95 Q-2.55 1.95 -1.7 1.05 -0.95 0.3 -0.85 -0.8 -0.95 0.3 -1.7 1.05 -2.55 1.95 -3.8 1.95" fill="#e0e0e0" fill-rule="evenodd" stroke="none"/>
    <path d="M-1.95 -8.1 L-2.0 -8.1" fill="none" stroke="#d7995e" stroke-linecap="round" stroke-linejoin="round" stroke-width="0.05"/>
    <path d="M5.2 -2.95 Q5.65 -7.8 3.05 -9.95 L3.0 -10.15 Q2.5 -8.25 -0.15 -8.05 L-0.2 -8.05 -1.95 -8.1 -2.0 -8.1 -2.8 -7.0 -2.85 -6.95 Q-0.85 -1.7 0.1 -0.95 4.55 1.1 5.2 -2.95" fill="none" stroke="#6b2c2c" stroke-linecap="round" stroke-linejoin="round" stroke-width="0.05"/>
    <path d="M5.2 -2.95 Q4.85 0.65 2.85 5.7 L5.05 8.9 Q6.2 11.0 6.8 13.25 3.75 16.55 -3.7 14.85 -4.15 13.95 -4.0 13.45 L-4.0 13.35 -4.05 12.6 -3.75 9.4 -3.2 5.85 -3.25 5.7 -3.35 5.3 -3.8 1.95 Q-5.05 1.95 -5.95 1.05 L-6.2 0.8 -6.3 0.65 Q-6.7 0.05 -6.75 -0.75 L-6.8 -1.0 -6.75 -1.35 Q-6.65 -2.45 -6.05 -3.25 L-4.35 -5.15 -3.15 -6.45 -2.85 -6.95 M-0.9 -1.55 L-0.85 -1.05 -0.85 -0.8 Q-0.95 0.3 -1.7 1.05 -2.55 1.95 -3.8 1.95" fill="none" stroke="#a0a0a0" stroke-linecap="round" stroke-linejoin="round" stroke-width="0.05"/>
  </g>
</svg>
