<?xml version="1.0" encoding="UTF-8" standalone="no"?>
<svg xmlns:xlink="http://www.w3.org/1999/xlink" height="25.5px" width="13.6px" xmlns="http://www.w3.org/2000/svg">
  <g transform="matrix(1.0, 0.0, 0.0, 1.0, 6.8, 8.9)">
    <path d="M-0.15 -8.05 L-0.2 -8.05 -0.15 -8.05" fill="#ffd0ae" fill-rule="evenodd" stroke="none"/>
    <path d="M-0.85 -0.8 L-0.85 -1.05 -0.75 -1.0 -0.75 -0.8 -0.85 -0.8" fill="#ca8c60" fill-rule="evenodd" stroke="none"/>
    <path d="M-2.45 -5.7 L0.55 -8.35 4.15 -8.8 4.8 -7.7 Q3.3 -8.25 -0.1 -7.2 L-2.45 -5.7" fill="#d7ebfd" fill-rule="evenodd" stroke="none"/>
    <path d="M4.8 -7.7 Q5.5 -5.95 5.2 -2.95 1.45 5.6 -0.1 -7.2 3.3 -8.25 4.8 -7.7 M5.05 8.9 L6.4 11.85 Q4.55 13.2 0.9 13.8 4.45 11.75 5.05 8.9 M-3.35 5.3 L-3.8 1.95 Q-5.05 1.95 -5.95 1.05 L-6.2 0.8 -6.3 0.65 Q-6.7 0.05 -6.75 -0.75 L-6.8 -1.0 -6.75 -1.35 Q-6.0 0.65 -4.2 1.0 -2.3 1.25 -0.9 -1.55 L-0.85 -1.05 -0.85 -0.8 -0.75 -0.8 Q-0.55 2.75 -3.35 5.3 M-3.8 1.95 Q-2.55 1.95 -1.7 1.05 -0.95 0.3 -0.85 -0.8 -0.95 0.3 -1.7 1.05 -2.55 1.95 -3.8 1.95" fill="#59929f" fill-rule="evenodd" stroke="none"/>
    <path d="M5.2 -2.95 Q4.85 0.65 2.85 5.7 L5.05 8.9 Q4.45 11.75 0.9 13.8 L-4.0 13.35 -4.05 12.6 -3.75 9.4 -3.2 5.85 -3.25 5.7 -3.35 5.3 Q-0.55 2.75 -0.75 -0.8 L-0.75 -1.0 -0.85 -1.05 -0.9 -1.55 Q-2.3 1.25 -4.2 1.0 -6.0 0.65 -6.75 -1.35 -6.65 -2.45 -6.05 -3.25 L-5.65 -3.75 -2.45 -5.7 -0.1 -7.2 Q1.45 5.6 5.2 -2.95" fill="#8db7c0" fill-rule="evenodd" stroke="none"/>
    <path d="M6.4 11.85 L6.8 13.25 Q3.75 16.55 -3.7 14.85 -4.15 13.95 -4.0 13.45 L-4.0 13.35 0.9 13.8 Q4.55 13.2 6.4 11.85" fill="#aedbfb" fill-rule="evenodd" stroke="none"/>
    <path d="M4.8 -7.7 Q5.5 -5.95 5.2 -2.95 4.85 0.65 2.85 5.7 L5.05 8.9 6.4 11.85 6.8 13.25 Q3.75 16.55 -3.7 14.85 -4.15 13.95 -4.0 13.45 L-4.0 13.35 -4.05 12.6 -3.75 9.4 -3.2 5.85 -3.25 5.7 -3.35 5.3 -3.8 1.95 Q-5.05 1.95 -5.95 1.05 L-6.2 0.8 -6.3 0.65 Q-6.7 0.05 -6.75 -0.75 L-6.8 -1.0 -6.75 -1.35 Q-6.65 -2.45 -6.05 -3.25 L-5.65 -3.75 -2.45 -5.7 0.55 -8.35 4.15 -8.8 4.8 -7.7 Q3.3 -8.25 -0.1 -7.2 L-2.45 -5.7 M-0.85 -1.05 L-0.85 -0.8 Q-0.95 0.3 -1.7 1.05 -2.55 1.95 -3.8 1.95 M-0.85 -1.05 L-0.9 -1.55" fill="none" stroke="#305054" stroke-linecap="round" stroke-linejoin="round" stroke-width="0.05"/>
    <path d="M-4.25 16.3 L-4.15 16.3 -3.75 15.9 -3.65 15.6 -3.6 15.4 -3.5 14.1 -3.55 13.35 -3.75 12.55 Q-3.95 11.95 -4.3 12.0 L-4.35 12.0 -4.2 11.65 Q-3.85 11.6 -3.6 12.3 -3.4 12.75 -3.35 13.35 L-3.3 14.05 -3.4 15.4 -3.5 15.8 -3.5 15.9 Q-3.75 16.55 -4.05 16.6 L-4.25 16.3" fill="#59929f" fill-rule="evenodd" stroke="none"/>
    <path d="M-4.3 16.3 L-4.7 15.75 -4.75 15.6 -4.85 15.3 -4.9 14.9 -4.95 14.25 -4.85 12.95 -4.85 12.9 -4.75 12.7 -4.35 12.0 -4.3 12.0 Q-3.95 11.95 -3.75 12.55 L-3.55 13.35 -3.5 14.1 -3.6 15.4 -3.65 15.6 -3.75 15.9 -4.15 16.3 -4.25 16.3 -4.3 16.25 -4.3 16.3 M-4.3 13.15 L-4.35 13.1 -4.45 12.95 -4.6 13.05 -4.6 13.1 -4.65 13.5 -4.6 13.8 -4.45 13.9 -4.3 13.75 -4.3 13.45 -4.3 13.15" fill="#e7cd78" fill-rule="evenodd" stroke="none"/>
    <path d="M-4.3 13.15 L-4.3 13.45 -4.3 13.75 -4.45 13.9 -4.6 13.8 -4.65 13.5 -4.6 13.1 -4.6 13.05 -4.45 12.95 -4.35 13.1 -4.3 13.15" fill="#ffffff" fill-rule="evenodd" stroke="none"/>
    <path d="M-4.3 16.3 L-4.3 16.25 -4.25 16.3 -4.05 16.6 Q-3.75 16.55 -3.5 15.9 L-3.5 15.8 -3.4 15.4 -3.3 14.05 -3.35 13.35 Q-3.4 12.75 -3.6 12.3 -3.85 11.6 -4.2 11.65 L-4.35 12.0" fill="none" stroke="#b03573" stroke-linecap="round" stroke-linejoin="round" stroke-width="0.05"/>
    <path d="M-5.4 -3.95 Q-5.0 -4.05 -5.1 -3.55 L-5.3 -3.0 -5.45 -2.55 -5.95 -1.85 -6.1 -1.7 -6.2 -1.65 Q-6.5 -1.35 -6.7 -1.4 L-6.75 -1.75 -6.65 -1.65 -6.3 -1.7 -6.15 -1.85 -6.05 -1.9 -5.6 -2.6 -5.4 -3.05 -5.25 -3.5 Q-5.25 -3.9 -5.4 -3.95" fill="#59929f" fill-rule="evenodd" stroke="none"/>
    <path d="M-5.8 -3.35 L-5.85 -3.2 -6.0 -3.05 -6.05 -3.05 -6.15 -3.15 -6.1 -3.25 -5.95 -3.45 -5.9 -3.5 -5.85 -3.5 -5.8 -3.35" fill="#ffffff" fill-rule="evenodd" stroke="none"/>
    <path d="M-6.75 -1.75 L-6.8 -2.1 -6.8 -2.2 -6.7 -2.6 -6.5 -2.95 -6.0 -3.7 -5.9 -3.8 Q-5.6 -4.1 -5.45 -4.0 L-5.4 -4.0 -5.4 -3.95 Q-5.25 -3.9 -5.25 -3.5 L-5.4 -3.05 -5.6 -2.6 -6.05 -1.9 -6.15 -1.85 -6.3 -1.7 -6.65 -1.65 -6.75 -1.75 M-5.8 -3.35 L-5.85 -3.5 -5.9 -3.5 -5.95 -3.45 -6.1 -3.25 -6.15 -3.15 -6.05 -3.05 -6.0 -3.05 -5.85 -3.2 -5.8 -3.35" fill="#d7ebfd" fill-rule="evenodd" stroke="none"/>
    <path d="M-5.45 -4.0 L-5.4 -4.0 -5.4 -3.95 Q-5.0 -4.05 -5.1 -3.55 L-5.3 -3.0 -5.45 -2.55 -5.95 -1.85 -6.1 -1.7 -6.2 -1.65 Q-6.5 -1.35 -6.7 -1.4 L-6.75 -1.75" fill="none" stroke="#b03573" stroke-linecap="round" stroke-linejoin="round" stroke-width="0.05"/>
  </g>
</svg>
