<?xml version="1.0" encoding="UTF-8" standalone="no"?>
<svg xmlns:xlink="http://www.w3.org/1999/xlink" height="26.95px" width="13.6px" xmlns="http://www.w3.org/2000/svg">
  <g transform="matrix(1.0, 0.0, 0.0, 1.0, 6.8, 11.5)">
    <path d="M-1.35 -5.75 L-1.15 -5.9 -1.15 -5.85 -1.35 -5.75" fill="#a56c5f" fill-rule="evenodd" stroke="none"/>
    <path d="M3.75 -9.25 L2.65 -6.15 0.55 -7.0 -0.9 -7.6 -1.15 -5.9 -1.35 -5.75 -5.35 -4.1 -4.35 -5.15 -3.15 -6.45 -3.0 -6.6 0.45 -9.45 2.6 -11.5 Q3.55 -10.95 3.75 -9.25" fill="#ffffff" fill-rule="evenodd" stroke="none"/>
    <path d="M3.75 -9.25 Q5.6 -7.1 5.2 -2.95 1.55 5.4 0.0 -6.6 L0.55 -7.0 2.65 -6.15 3.75 -9.25 M5.05 8.9 L6.35 11.8 6.8 13.25 Q3.75 16.55 -3.7 14.85 -4.15 13.95 -4.0 13.45 L-4.0 13.35 -1.25 13.65 0.4 13.5 Q4.25 12.85 5.05 8.9 M-3.35 5.3 L-3.8 1.95 Q-5.05 1.95 -5.95 1.05 L-6.2 0.8 -6.3 0.65 Q-6.7 0.05 -6.75 -0.75 L-6.8 -1.0 -6.75 -1.35 Q-6.0 0.65 -4.2 1.0 -2.3 1.25 -0.9 -1.55 L-0.85 -1.05 -0.75 -1.0 Q-0.45 2.65 -3.35 5.3 M-0.85 -1.05 L-0.85 -0.8 Q-0.95 0.3 -1.7 1.05 -2.55 1.95 -3.8 1.95 -2.55 1.95 -1.7 1.05 -0.95 0.3 -0.85 -0.8 L-0.85 -1.05 M6.35 11.8 Q4.15 13.4 0.4 13.5 4.15 13.4 6.35 11.8" fill="#de7238" fill-rule="evenodd" stroke="none"/>
    <path d="M0.0 -6.6 Q1.55 5.4 5.2 -2.95 4.85 0.65 2.85 5.7 L5.05 8.9 Q4.25 12.85 0.4 13.5 L-1.25 13.65 -4.0 13.35 -4.05 12.6 -3.75 9.4 -3.2 5.85 -3.25 5.7 -3.35 5.3 Q-0.45 2.65 -0.75 -1.0 L-0.85 -1.05 -0.9 -1.55 Q-2.3 1.25 -4.2 1.0 -6.0 0.65 -6.75 -1.35 -6.7 -2.3 -6.2 -3.05 -3.2 -4.65 -1.35 -5.75 L-1.15 -5.85 -1.15 -5.9 0.0 -6.6" fill="#e89a71" fill-rule="evenodd" stroke="none"/>
    <path d="M0.55 -7.0 L0.0 -6.6 -1.15 -5.9 -0.9 -7.6 0.55 -7.0 M-6.2 -3.05 L-6.05 -3.25 -5.35 -4.1 -1.35 -5.75 Q-3.2 -4.65 -6.2 -3.05" fill="#d1d1d1" fill-rule="evenodd" stroke="none"/>
    <path d="M0.55 -7.0 L0.0 -6.6" fill="none" stroke="#305054" stroke-linecap="round" stroke-linejoin="round" stroke-width="0.05"/>
    <path d="M5.2 -2.95 Q5.6 -7.1 3.75 -9.25 M5.2 -2.95 Q4.85 0.65 2.85 5.7 L5.05 8.9 6.35 11.8 6.8 13.25 Q3.75 16.55 -3.7 14.85 -4.15 13.95 -4.0 13.45 L-4.0 13.35 -4.05 12.6 -3.75 9.4 -3.2 5.85 -3.25 5.7 -3.35 5.3 -3.8 1.95 Q-5.05 1.95 -5.95 1.05 L-6.2 0.8 -6.3 0.65 Q-6.7 0.05 -6.75 -0.75 L-6.8 -1.0 -6.75 -1.35 Q-6.7 -2.3 -6.2 -3.05 -3.2 -4.65 -1.35 -5.75 L-1.15 -5.85 -1.15 -5.9 0.0 -6.6 M0.4 13.5 Q4.15 13.4 6.35 11.8 M-3.8 1.95 Q-2.55 1.95 -1.7 1.05 -0.95 0.3 -0.85 -0.8 L-0.85 -1.05 -0.9 -1.55 M0.4 13.5 L-1.25 13.65 -4.0 13.35" fill="none" stroke="#9b3d1a" stroke-linecap="round" stroke-linejoin="round" stroke-width="0.05"/>
    <path d="M3.75 -9.25 L2.65 -6.15 0.55 -7.0 -0.9 -7.6 -1.15 -5.9 -1.35 -5.75 -5.35 -4.1 -4.35 -5.15 -3.15 -6.45 -3.0 -6.6 0.45 -9.45 2.6 -11.5 Q3.55 -10.95 3.75 -9.25 M-6.2 -3.05 L-6.05 -3.25 -5.35 -4.1" fill="none" stroke="#666666" stroke-linecap="round" stroke-linejoin="round" stroke-width="0.05"/>
  </g>
</svg>
