<?xml version="1.0" encoding="UTF-8" standalone="no"?>
<svg xmlns:xlink="http://www.w3.org/1999/xlink" height="26.0px" width="13.6px" xmlns="http://www.w3.org/2000/svg">
  <g transform="matrix(1.0, 0.0, 0.0, 1.0, 6.8, 10.55)">
    <path d="M-0.45 -7.7 L-0.45 -7.75 -0.45 -7.7" fill="#de7238" fill-rule="evenodd" stroke="none"/>
    <path d="M-0.35 -7.75 L0.8 -7.8 Q1.95 -7.9 2.7 -8.3 L3.75 -9.25 Q5.6 -7.1 5.2 -2.95 2.05 4.2 0.5 -3.55 L0.0 -6.6 -0.45 -7.7 -0.45 -7.75 -0.35 -7.75 M5.05 8.9 L6.35 11.8 Q5.5 12.4 4.45 12.8 L1.45 13.45 0.4 13.5 Q4.25 12.85 5.05 8.9 M-3.35 5.3 L-3.8 1.95 Q-5.05 1.95 -5.95 1.05 L-6.2 0.8 -6.3 0.65 Q-6.7 0.05 -6.75 -0.75 L-6.8 -1.0 -6.75 -1.35 Q-6.0 0.65 -4.2 1.0 -2.3 1.25 -0.9 -1.55 L-0.85 -1.05 -0.85 -0.8 Q-0.95 0.3 -1.7 1.05 -2.55 1.95 -3.8 1.95 -2.55 1.95 -1.7 1.05 -0.95 0.3 -0.85 -0.8 L-0.85 -1.05 -0.75 -1.0 Q-0.45 2.65 -3.35 5.3" fill="#333333" fill-rule="evenodd" stroke="none"/>
    <path d="M5.2 -2.95 Q4.85 0.65 2.85 5.7 L5.05 8.9 Q4.25 12.85 0.4 13.5 L-1.25 13.65 -1.4 13.65 -4.0 13.35 -4.05 12.6 -3.75 9.4 -3.2 5.85 -3.25 5.7 -3.35 5.3 Q-0.45 2.65 -0.75 -1.0 L-0.85 -1.05 -0.9 -1.55 Q-2.3 1.25 -4.2 1.0 -6.0 0.65 -6.75 -1.35 -6.7 -2.3 -6.2 -3.05 L-6.05 -3.25 -5.35 -4.1 -4.35 -5.15 -3.9 -5.6 -2.25 -7.9 -0.45 -7.75 -0.45 -7.7 0.0 -6.6 0.5 -3.55 Q2.05 4.2 5.2 -2.95" fill="#5e5e5e" fill-rule="evenodd" stroke="none"/>
    <path d="M0.0 -9.45 Q0.9 -8.05 -0.35 -7.75 L-0.45 -7.75 -2.25 -7.9 Q-2.15 -8.7 -1.35 -9.4 L0.0 -9.45" fill="#737373" fill-rule="evenodd" stroke="none"/>
    <path d="M2.0 -10.0 Q3.25 -9.4 2.7 -8.3 3.25 -9.4 2.0 -10.0 L2.85 -10.55 Q3.5 -10.2 3.75 -9.25 L2.7 -8.3 Q1.95 -7.9 0.8 -7.8 L-0.35 -7.75 Q0.9 -8.05 0.0 -9.45 1.15 -9.6 2.0 -10.0 M6.35 11.8 Q6.85 12.0 6.8 13.25 L4.95 14.65 Q3.55 15.3 1.65 15.4 L-1.15 15.3 -3.7 14.85 Q-4.35 13.95 -4.2 13.7 L-4.0 13.35 -1.4 13.65 -1.25 13.65 0.4 13.5 1.45 13.45 4.45 12.8 Q5.5 12.4 6.35 11.8 M1.65 15.4 Q2.25 14.45 1.45 13.45 2.25 14.45 1.65 15.4 M4.95 14.65 Q5.15 13.05 4.45 12.8 5.15 13.05 4.95 14.65 M-1.4 13.65 Q-1.85 14.55 -1.15 15.3 -1.85 14.55 -1.4 13.65" fill="#555555" fill-rule="evenodd" stroke="none"/>
    <path d="M2.7 -8.3 Q3.25 -9.4 2.0 -10.0 1.15 -9.6 0.0 -9.45 0.9 -8.05 -0.35 -7.75 L0.8 -7.8 Q1.95 -7.9 2.7 -8.3 L3.75 -9.25 Q3.5 -10.2 2.85 -10.55 L2.0 -10.0 M-6.2 -3.05 L-6.05 -3.25 -5.35 -4.1 -4.35 -5.15 -3.9 -5.6 -2.25 -7.9 Q-2.15 -8.7 -1.35 -9.4 L0.0 -9.45 M4.45 12.8 Q5.15 13.05 4.95 14.65 M1.45 13.45 Q2.25 14.45 1.65 15.4 M-0.45 -7.75 L-2.25 -7.9 M-0.35 -7.75 L-0.45 -7.75 M-1.15 15.3 Q-1.85 14.55 -1.4 13.65" fill="none" stroke="#000000" stroke-linecap="round" stroke-linejoin="round" stroke-width="0.05"/>
    <path d="M3.75 -9.25 Q5.6 -7.1 5.2 -2.95 4.85 0.65 2.85 5.7 L5.05 8.9 6.35 11.8 Q6.85 12.0 6.8 13.25 L4.95 14.65 Q3.55 15.3 1.65 15.4 L-1.15 15.3 -3.7 14.85 Q-4.35 13.95 -4.2 13.7 L-4.0 13.35 -4.05 12.6 -3.75 9.4 -3.2 5.85 -3.25 5.7 -3.35 5.3 -3.8 1.95 Q-5.05 1.95 -5.95 1.05 L-6.2 0.8 -6.3 0.65 Q-6.7 0.05 -6.75 -0.75 L-6.8 -1.0 -6.75 -1.35 Q-6.7 -2.3 -6.2 -3.05 M0.4 13.5 L1.45 13.45 4.45 12.8 Q5.5 12.4 6.35 11.8 M-0.85 -1.05 L-0.9 -1.55 M-3.8 1.95 Q-2.55 1.95 -1.7 1.05 -0.95 0.3 -0.85 -0.8 L-0.85 -1.05 M-4.0 13.35 L-1.4 13.65 -1.25 13.65 0.4 13.5" fill="none" stroke="#000000" stroke-linecap="round" stroke-linejoin="round" stroke-width="0.05"/>
  </g>
</svg>
