<?xml version="1.0" encoding="UTF-8" standalone="no"?>
<svg xmlns:xlink="http://www.w3.org/1999/xlink" height="29.0px" width="13.6px" xmlns="http://www.w3.org/2000/svg">
  <g transform="matrix(1.0, 0.0, 0.0, 1.0, 6.8, 11.85)">
    <path d="M-0.2 -8.05 Q-2.15 0.95 3.25 -0.55 4.85 -0.7 5.2 -2.95 4.85 0.65 2.85 5.7 L3.7 6.8 Q0.7 8.35 -3.55 7.85 L-3.2 5.85 -3.25 5.7 -3.35 5.3 Q-0.55 2.75 -0.75 -0.8 L-0.75 -1.0 -0.85 -1.05 -0.9 -1.55 Q-2.3 1.25 -4.2 1.0 -6.0 0.65 -6.75 -1.35 -6.65 -2.45 -6.05 -3.25 L-4.35 -5.15 -3.15 -6.45 -2.8 -7.0 -2.0 -8.1 -1.9 -8.35 Q-1.5 -8.45 -1.25 -9.1 L0.45 -9.3 -0.2 -8.05 M-3.35 13.45 L-3.25 13.9 -3.2 14.6 Q-3.1 15.2 -3.15 15.75 L-3.25 16.35 -3.25 16.45 Q-3.5 17.1 -3.85 17.15 L-4.1 16.8 -3.95 16.85 -3.55 16.45 -3.45 16.15 -3.35 15.75 -3.35 14.65 -3.45 13.9 -3.6 13.4 -3.7 13.1 Q-4.0 12.5 -4.35 12.55 L-4.4 12.55 -4.3 12.2 Q-3.9 12.15 -3.6 12.85 L-3.35 13.45 M-2.0 -8.1 L-1.95 -8.1 -2.0 -8.1 M-4.6 13.6 L-4.5 13.5 -4.35 13.65 -4.3 13.7 -4.25 14.0 -4.25 14.3 -4.4 14.45 -4.6 14.35 -4.65 14.05 -4.65 13.65 -4.6 13.6" fill="#ffffff" fill-rule="evenodd" stroke="none"/>
    <path d="M-3.35 5.3 L-3.8 1.95 Q-5.05 1.95 -5.95 1.05 L-6.2 0.8 -6.3 0.65 Q-6.7 0.05 -6.75 -0.75 L-6.8 -1.0 -6.75 -1.35 Q-6.0 0.65 -4.2 1.0 -2.3 1.25 -0.9 -1.55 L-0.85 -1.05 -0.85 -0.8 -0.75 -0.8 Q-0.55 2.75 -3.35 5.3 M1.55 -9.65 L-0.2 -8.05 0.45 -9.3 1.55 -9.65 M-3.8 1.95 Q-2.55 1.95 -1.7 1.05 -0.95 0.3 -0.85 -0.8 -0.95 0.3 -1.7 1.05 -2.55 1.95 -3.8 1.95" fill="#e0e0e0" fill-rule="evenodd" stroke="none"/>
    <path d="M-1.05 -10.2 L-1.0 -10.7 -0.35 -10.4 -1.05 -10.2" fill="#fde0bd" fill-rule="evenodd" stroke="none"/>
    <path d="M-0.75 -0.8 L-0.85 -0.8 -0.85 -1.05 -0.75 -1.0 -0.75 -0.8" fill="#fbcd95" fill-rule="evenodd" stroke="none"/>
    <path d="M-0.35 -10.4 Q1.3 -10.95 2.5 -11.85 L2.9 -10.45 2.9 -10.4 2.05 -9.85 1.55 -9.65 0.45 -9.3 Q0.45 -9.95 -0.35 -10.4 M-3.35 13.45 L1.3 13.55 Q4.8 13.15 6.3 11.6 6.9 12.35 6.8 13.25 3.85 16.45 -3.15 15.75 -3.1 15.2 -3.2 14.6 L-3.25 13.9 -3.35 13.45 M-4.1 16.8 L-4.55 16.3 -4.65 16.15 -4.95 14.8 -4.9 13.5 -4.85 13.25 Q-4.7 12.65 -4.4 12.55 L-4.35 12.55 Q-4.0 12.5 -3.7 13.1 L-3.6 13.4 -3.45 13.9 -3.35 14.65 -3.35 15.75 -3.45 16.15 -3.55 16.45 -3.95 16.85 -4.1 16.8 M-4.6 13.6 L-4.65 13.65 -4.65 14.05 -4.6 14.35 -4.4 14.45 -4.25 14.3 -4.25 14.0 -4.3 13.7 -4.35 13.65 -4.5 13.5 -4.6 13.6" fill="#000000" fill-rule="evenodd" stroke="none"/>
    <path d="M3.7 6.8 L3.8 6.95 4.2 7.55 Q0.8 9.3 -3.7 9.0 L-3.55 7.85 Q0.7 8.35 3.7 6.8 M-1.25 -9.1 L-1.05 -10.2 -0.35 -10.4 Q0.45 -9.95 0.45 -9.3 L-1.25 -9.1" fill="#575757" fill-rule="evenodd" stroke="none"/>
    <path d="M-0.2 -8.05 Q-2.15 0.95 3.25 -0.55 4.85 -0.7 5.2 -2.95 4.85 0.65 2.85 5.7 L3.7 6.8 3.8 6.95 M4.2 7.55 Q0.8 9.3 -3.7 9.0 M-3.55 7.85 L-3.2 5.85 -3.25 5.7 -3.35 5.3 -3.8 1.95 Q-5.05 1.95 -5.95 1.05 L-6.2 0.8 -6.3 0.65 Q-6.7 0.05 -6.75 -0.75 L-6.8 -1.0 -6.75 -1.35 Q-6.65 -2.45 -6.05 -3.25 L-4.35 -5.15 -3.15 -6.45 -2.8 -7.0 -2.0 -8.1 -1.9 -8.35 Q-1.5 -8.45 -1.25 -9.1 L-1.05 -10.2 -1.0 -10.7 M-0.35 -10.4 Q1.3 -10.95 2.5 -11.85 L2.9 -10.45 2.9 -10.4 2.05 -9.85 1.55 -9.65 -0.2 -8.05 M0.45 -9.3 L-1.25 -9.1 M0.45 -9.3 L1.55 -9.65 M-1.05 -10.2 L-0.35 -10.4 M-2.0 -8.1 L-1.95 -8.1 -2.0 -8.1 M-0.85 -0.8 Q-0.95 0.3 -1.7 1.05 -2.55 1.95 -3.8 1.95 M-0.85 -1.05 L-0.9 -1.55 M3.7 6.8 Q0.7 8.35 -3.55 7.85" fill="none" stroke="#a0a0a0" stroke-linecap="round" stroke-linejoin="round" stroke-width="0.05"/>
    <path d="M3.8 6.95 L4.2 7.55 M-3.7 9.0 L-3.55 7.85 M-0.85 -1.05 L-0.85 -0.8" fill="none" stroke="#c28030" stroke-linecap="round" stroke-linejoin="round" stroke-width="0.05"/>
    <path d="M-3.15 15.75 L-3.25 16.35 -3.25 16.45 Q-3.5 17.1 -3.85 17.15 L-4.1 16.8 M-4.4 12.55 L-4.3 12.2 Q-3.9 12.15 -3.6 12.85 L-3.35 13.45" fill="none" stroke="#b03573" stroke-linecap="round" stroke-linejoin="round" stroke-width="0.05"/>
    <path d="M-3.15 15.75 Q3.85 16.45 6.8 13.25 6.9 12.35 6.3 11.6 4.8 13.15 1.3 13.55 L-3.35 13.45 -3.25 13.9 -3.2 14.6 Q-3.1 15.2 -3.15 15.75" fill="none" stroke="#000000" stroke-linecap="round" stroke-linejoin="round" stroke-width="0.05"/>
  </g>
</svg>
