<?xml version="1.0" encoding="UTF-8" standalone="no"?>
<svg xmlns:xlink="http://www.w3.org/1999/xlink" height="28.4px" width="13.7px" xmlns="http://www.w3.org/2000/svg">
  <g transform="matrix(1.0, 0.0, 0.0, 1.0, 6.8, 12.35)">
    <path d="M5.65 10.05 L6.15 10.9 Q4.65 12.1 -0.2 12.65 -0.95 13.45 -0.2 14.25 5.95 12.85 6.7 12.25 L6.9 13.2 Q5.1 15.4 0.65 15.55 L-3.7 16.05 -4.15 15.55 Q-3.55 15.0 -2.25 14.75 -2.55 13.8 -2.25 12.7 L-4.0 13.2 Q-4.35 12.45 -4.0 11.65 L-2.95 11.65 Q2.1 11.95 5.65 10.05" fill="#263959" fill-rule="evenodd" stroke="none"/>
    <path d="M6.15 10.9 Q6.6 11.5 6.7 12.25 5.95 12.85 -0.2 14.25 -0.95 13.45 -0.2 12.65 4.65 12.1 6.15 10.9 M-4.15 15.55 Q-4.55 13.65 -4.0 13.2 L-2.25 12.7 Q-2.55 13.8 -2.25 14.75 -3.55 15.0 -4.15 15.55" fill="#576bca" fill-rule="evenodd" stroke="none"/>
    <path d="M-0.7 -3.5 L-0.5 -2.1 Q-3.0 -4.45 -5.65 -3.65 L-5.1 -4.25 -4.85 -4.2 Q-4.45 -4.2 -4.1 -4.5 L-3.4 -5.3 -3.25 -6.15 -3.25 -6.2 -2.8 -6.9 -2.0 -8.0 -1.95 -8.05 -1.9 -8.25 Q-1.45 -8.35 -1.25 -9.0 L-1.25 -9.1 -1.25 -9.15 -1.35 -10.8 -0.5 -11.25 -0.5 -9.05 Q-2.0 -6.55 -3.6 -4.65 -1.9 -4.55 -0.7 -3.5 M-4.0 11.65 Q-3.9 8.7 -3.2 5.95 L-3.35 5.4 -2.6 4.65 -2.3 5.95 Q-3.0 9.1 -2.95 11.65 L-4.0 11.65 M-3.65 -6.45 L-3.55 -6.35 -3.6 -6.1 -3.75 -5.85 -4.0 -5.8 -4.05 -5.9 -4.0 -6.1 -3.85 -6.35 -3.65 -6.45" fill="#ffffff" fill-rule="evenodd" stroke="none"/>
    <path d="M-3.85 -6.45 L-3.65 -6.5 -3.65 -6.45 -3.85 -6.35 -3.85 -6.45" fill="#e84343" fill-rule="evenodd" stroke="none"/>
    <path d="M-1.25 -9.1 L-1.25 -9.15 -1.25 -9.1" fill="#b78cf2" fill-rule="evenodd" stroke="none"/>
    <path d="M-3.35 5.4 L-3.8 2.05 -2.85 1.9 -2.6 4.65 -3.35 5.4" fill="#d1d1d1" fill-rule="evenodd" stroke="none"/>
    <path d="M-0.1 -8.05 L-0.15 -8.0 -0.2 -7.95 Q-0.8 -5.35 -0.7 -3.5 -1.9 -4.55 -3.6 -4.65 -2.0 -6.55 -0.5 -9.05 L-0.5 -11.25 0.6 -11.75 0.45 -9.2 -0.1 -8.05 M-0.5 -2.1 Q0.2 0.4 3.25 -0.45 4.85 -0.6 5.2 -2.85 4.8 0.95 2.85 5.8 4.05 7.1 5.65 10.05 2.1 11.95 -2.95 11.65 -3.0 9.1 -2.3 5.95 L-2.6 4.65 Q-0.55 2.3 -0.75 -0.7 L-0.85 -0.7 -0.85 -0.95 -0.9 -1.45 Q-2.3 1.35 -4.2 1.1 -6.0 0.7 -6.75 -1.25 -6.7 -2.3 -6.05 -3.15 L-5.65 -3.65 Q-3.0 -4.45 -0.5 -2.1" fill="#42ac81" fill-rule="evenodd" stroke="none"/>
    <path d="M2.9 -10.45 L2.9 -10.4 2.9 -10.3 2.15 -10.2 0.85 -9.15 -0.1 -8.05 0.45 -9.2 0.6 -11.75 Q2.55 -12.6 2.9 -12.25 L2.9 -10.45 M-3.8 2.05 Q-5.05 2.05 -5.95 1.15 L-6.2 0.9 -6.3 0.75 Q-6.7 0.15 -6.75 -0.65 L-6.8 -0.9 -6.75 -1.25 Q-6.0 0.7 -4.2 1.1 -2.3 1.35 -0.9 -1.45 L-0.85 -0.95 -0.85 -0.7 -0.75 -0.7 Q-0.55 2.3 -2.6 4.65 L-2.85 1.9 -3.8 2.05 M-2.85 1.9 Q-2.25 1.7 -1.7 1.15 -0.9 0.35 -0.85 -0.7 -0.9 0.35 -1.7 1.15 -2.25 1.7 -2.85 1.9" fill="#45916e" fill-rule="evenodd" stroke="none"/>
    <path d="M-5.1 -4.25 L-5.25 -4.55 -5.05 -5.4 -4.35 -6.2 -3.85 -6.45 -3.85 -6.35 -4.0 -6.1 -4.05 -5.9 -4.0 -5.8 -3.75 -5.85 -3.6 -6.1 -3.55 -6.35 -3.65 -6.45 -3.65 -6.5 -3.6 -6.5 -3.25 -6.2 -3.25 -6.15 -3.4 -5.3 -4.1 -4.5 Q-4.45 -4.2 -4.85 -4.2 L-5.1 -4.25" fill="#8bd7fe" fill-rule="evenodd" stroke="none"/>
    <path d="M2.9 -10.45 L2.9 -10.4 2.9 -10.3 M-1.25 -9.0 L-1.25 -9.1 -1.25 -9.15" fill="none" stroke="#a0a0a0" stroke-linecap="round" stroke-linejoin="round" stroke-width="0.05"/>
    <path d="M2.9 -10.4 L2.9 -10.45 2.9 -12.25 Q2.55 -12.6 0.6 -11.75 M2.9 -10.3 L2.15 -10.2 0.85 -9.15 -0.1 -8.05 -0.15 -8.0 M-0.2 -7.95 Q-0.8 -5.35 -0.7 -3.5 L-0.5 -2.1 Q0.2 0.4 3.25 -0.45 4.85 -0.6 5.2 -2.85 4.8 0.95 2.85 5.8 4.05 7.1 5.65 10.05 L6.15 10.9 Q6.6 11.5 6.7 12.25 L6.9 13.2 Q5.1 15.4 0.65 15.55 L-3.7 16.05 -4.15 15.55 Q-4.55 13.65 -4.0 13.2 -4.35 12.45 -4.0 11.65 M-1.25 -9.1 L-1.25 -9.15" fill="none" stroke="#b03573" stroke-linecap="round" stroke-linejoin="round" stroke-width="0.05"/>
    <path d="M-0.15 -8.0 L-0.2 -7.95 M-0.5 -11.25 L0.6 -11.75 M-0.9 -1.45 L-0.85 -0.95 M6.7 12.25 Q5.95 12.85 -0.2 14.25 -0.95 13.45 -0.2 12.65 4.65 12.1 6.15 10.9 M-4.0 13.2 L-2.25 12.7 Q-2.55 13.8 -2.25 14.75 -3.55 15.0 -4.15 15.55" fill="none" stroke="#576bc9" stroke-linecap="round" stroke-linejoin="round" stroke-width="0.05"/>
    <path d="M-4.0 11.65 Q-3.9 8.7 -3.2 5.95 L-3.35 5.4 -3.8 2.05 M-5.65 -3.65 L-5.1 -4.25 M-3.25 -6.2 L-2.8 -6.9 -2.0 -8.0 -1.95 -8.05 -1.9 -8.25 Q-1.45 -8.35 -1.25 -9.0 M-1.25 -9.15 L-1.35 -10.8 -0.5 -11.25 -0.5 -9.05 Q-2.0 -6.55 -3.6 -4.65 -1.9 -4.55 -0.7 -3.5 M-2.6 4.65 L-2.3 5.95 Q-3.0 9.1 -2.95 11.65 M-2.85 1.9 L-2.6 4.65 M-0.5 -2.1 Q-3.0 -4.45 -5.65 -3.65" fill="none" stroke="#2e813e" stroke-linecap="round" stroke-linejoin="round" stroke-width="0.25"/>
    <path d="M-3.8 2.05 Q-5.05 2.05 -5.95 1.15 L-6.2 0.9 -6.3 0.75 Q-6.7 0.15 -6.75 -0.65 L-6.8 -0.9 -6.75 -1.25 Q-6.7 -2.3 -6.05 -3.15 L-5.65 -3.65 M-0.85 -0.95 L-0.85 -0.7 Q-0.9 0.35 -1.7 1.15 -2.25 1.7 -2.85 1.9 L-3.8 2.05" fill="none" stroke="#2e813e" stroke-linecap="round" stroke-linejoin="round" stroke-width="0.05"/>
  </g>
</svg>
