<?xml version="1.0" encoding="UTF-8" standalone="no"?>
<svg xmlns:xlink="http://www.w3.org/1999/xlink" height="28.15px" width="13.65px" xmlns="http://www.w3.org/2000/svg">
  <g transform="matrix(1.0, 0.0, 0.0, 1.0, 6.85, 11.25)">
    <path d="M-4.1 13.5 L-4.2 13.5 Q-4.6 13.5 -4.8 13.2 L-5.1 12.55 -4.8 11.9 Q-4.55 11.6 -4.15 11.6 -3.7 11.55 -3.45 11.85 -3.2 12.15 -3.2 12.55 L-3.35 13.0 -3.45 13.2 Q-3.75 13.45 -4.1 13.5 M-4.8 -6.05 L-4.8 -6.1 -5.1 -6.75 -4.8 -7.4 Q-4.55 -7.7 -4.15 -7.7 L-3.45 -7.5 -3.45 -7.45 -3.2 -6.75 -3.35 -6.3 -3.45 -6.1 Q-3.75 -5.85 -4.2 -5.8 -4.55 -5.8 -4.8 -6.05 M-4.0 -7.0 L-4.15 -7.3 -4.4 -7.4 -4.7 -7.3 -4.8 -7.0 -4.7 -6.7 -4.4 -6.55 -4.3 -6.6 -4.15 -6.7 -4.0 -6.9 -4.0 -7.0 M-4.4 11.9 L-4.7 12.0 -4.8 12.3 -4.7 12.6 -4.4 12.75 -4.15 12.6 -4.0 12.3 -4.15 12.0 -4.4 11.9" fill="#ff9933" fill-rule="evenodd" stroke="none"/>
    <path d="M5.2 -2.95 Q4.85 0.65 2.85 5.7 L5.05 8.9 Q4.3 12.75 0.6 13.5 -0.9 13.75 -2.8 13.55 L-2.8 13.5 -2.5 12.15 -1.85 9.4 -1.7 8.75 Q-1.7 8.6 -1.85 8.6 L-2.2 8.6 -2.65 8.75 -3.25 9.0 -3.9 9.4 -3.2 5.85 -3.25 5.7 -3.35 5.3 Q-1.7 3.8 -1.0 0.0 L-0.85 -0.8 -0.9 -1.55 Q-2.3 1.25 -4.2 1.0 -6.0 0.65 -6.75 -1.35 -6.65 -2.45 -6.05 -3.25 -4.85 -2.8 -2.65 -4.05 L-1.85 -4.5 Q-0.6 -1.5 0.1 -0.95 L0.6 -0.7 Q4.6 0.9 5.2 -2.95 M-4.0 -7.0 L-4.0 -6.9 -4.15 -6.7 -4.3 -6.6 -4.4 -6.55 -4.7 -6.7 -4.8 -7.0 -4.7 -7.3 -4.4 -7.4 -4.15 -7.3 -4.0 -7.0 M-4.4 11.9 L-4.15 12.0 -4.0 12.3 -4.15 12.6 -4.4 12.75 -4.7 12.6 -4.8 12.3 -4.7 12.0 -4.4 11.9" fill="#ffffff" fill-rule="evenodd" stroke="none"/>
    <path d="M-2.65 -8.3 L-2.25 -7.85 Q-1.95 -7.6 -1.45 -7.5 L-1.1 -7.4 0.6 -7.45 1.4 -7.65 Q2.75 -8.05 3.45 -8.85 L3.75 -9.25 Q4.05 -9.75 3.9 -10.2 L3.85 -10.35 3.75 -10.5 Q5.45 -9.75 4.9 -8.55 L4.55 -8.0 Q3.8 -7.1 1.95 -6.3 L0.6 -5.75 -1.85 -4.5 -2.65 -4.05 Q-4.85 -2.8 -6.05 -3.25 -6.95 -3.6 -4.8 -6.05 -4.55 -5.8 -4.2 -5.8 -3.75 -5.85 -3.45 -6.1 L-3.35 -6.3 -3.2 -6.75 -3.45 -7.45 -3.45 -7.5 -2.65 -8.3 M-3.15 15.0 L-3.45 16.3 Q-3.65 17.55 -3.85 16.15 L-4.1 13.5 Q-3.75 13.45 -3.45 13.2 L-3.35 13.0 -3.2 12.55 Q-3.2 12.15 -3.45 11.85 -3.7 11.55 -4.15 11.6 L-3.9 9.4 -3.25 9.0 -2.65 8.75 -2.2 8.6 -1.85 8.6 Q-1.7 8.6 -1.7 8.75 L-1.85 9.4 -2.5 12.15 -2.8 13.5 -2.8 13.55 -3.15 14.9 -3.15 15.0" fill="#5a5a5a" fill-rule="evenodd" stroke="none"/>
    <path d="M-2.65 -8.3 Q-2.95 -9.0 -2.25 -9.75 -1.55 -10.55 -0.2 -10.95 L0.6 -11.15 2.3 -11.2 3.3 -10.85 3.75 -10.5 3.85 -10.35 3.9 -10.2 Q4.05 -9.75 3.75 -9.25 L3.45 -8.85 Q2.75 -8.05 1.4 -7.65 L0.6 -7.45 -1.1 -7.4 -1.45 -7.5 Q-1.95 -7.6 -2.25 -7.85 L-2.65 -8.3 M4.55 -8.0 Q5.5 -6.0 5.2 -2.95 4.6 0.9 0.6 -0.7 L0.1 -0.95 Q-0.6 -1.5 -1.85 -4.5 L0.6 -5.75 1.95 -6.3 Q3.8 -7.1 4.55 -8.0 M-1.7 -9.2 L0.6 -9.25 Q1.6 -9.55 2.3 -10.3 1.6 -9.55 0.6 -9.25 L-1.7 -9.2" fill="#000000" fill-rule="evenodd" stroke="none"/>
    <path d="M5.05 8.9 Q6.2 11.0 6.8 13.25 6.1 15.0 2.6 15.4 L-3.15 15.0 -3.15 14.9 -2.8 13.55 Q-0.9 13.75 0.6 13.5 4.3 12.75 5.05 8.9 M-3.35 5.3 L-3.8 1.95 Q-5.05 1.95 -5.95 1.05 L-6.3 0.65 Q-7.1 -0.65 -6.75 -1.35 -6.0 0.65 -4.2 1.0 -2.3 1.25 -0.9 -1.55 L-0.85 -0.8 -1.0 0.0 Q-1.7 3.8 -3.35 5.3 M-3.8 1.95 Q-2.55 1.95 -1.7 1.05 L-1.0 0.0 -1.7 1.05 Q-2.55 1.95 -3.8 1.95" fill="#e0e0e0" fill-rule="evenodd" stroke="none"/>
    <path d="M3.75 -10.5 L3.3 -10.85 2.3 -11.2 0.6 -11.15 -0.2 -10.95 Q-1.55 -10.55 -2.25 -9.75 -2.95 -9.0 -2.65 -8.3 M-3.15 15.0 L-3.45 16.3 Q-3.65 17.55 -3.85 16.15 L-4.1 13.5 M-2.8 13.55 L-3.15 14.9 -3.15 15.0" fill="none" stroke="#a0a0a0" stroke-linecap="round" stroke-linejoin="round" stroke-width="0.05"/>
    <path d="M4.55 -8.0 Q5.5 -6.0 5.2 -2.95 4.85 0.65 2.85 5.7 L5.05 8.9 Q6.2 11.0 6.8 13.25 M-3.9 9.4 L-3.2 5.85 -3.25 5.7 -3.35 5.3 -3.8 1.95 Q-5.05 1.95 -5.95 1.05 L-6.3 0.65 Q-7.1 -0.65 -6.75 -1.35 -6.65 -2.45 -6.05 -3.25 M-1.85 -4.5 Q-0.6 -1.5 0.1 -0.95 L0.6 -0.7 Q4.6 0.9 5.2 -2.95 M-0.9 -1.55 L-0.85 -0.8 -1.0 0.0 -1.7 1.05 Q-2.55 1.95 -3.8 1.95" fill="none" stroke="#000000" stroke-linecap="round" stroke-linejoin="round" stroke-width="0.05"/>
    <path d="M-2.65 -8.3 L-2.25 -7.85 Q-1.95 -7.6 -1.45 -7.5 L-1.1 -7.4 0.6 -7.45 1.4 -7.65 Q2.75 -8.05 3.45 -8.85 L3.75 -9.25 Q4.05 -9.75 3.9 -10.2 L3.85 -10.35 3.75 -10.5 Q5.45 -9.75 4.9 -8.55 L4.55 -8.0 Q3.8 -7.1 1.95 -6.3 L0.6 -5.75 -1.85 -4.5 -2.65 -4.05 Q-4.85 -2.8 -6.05 -3.25 -6.95 -3.6 -4.8 -6.05 M-4.15 11.6 L-3.9 9.4 -3.25 9.0 -2.65 8.75 -2.2 8.6 -1.85 8.6 Q-1.7 8.6 -1.7 8.75 L-1.85 9.4 -2.5 12.15 -2.8 13.5 -2.8 13.55 M-3.45 -7.5 L-2.65 -8.3 M2.3 -10.3 Q1.6 -9.55 0.6 -9.25 L-1.7 -9.2" fill="none" stroke="#999999" stroke-linecap="round" stroke-linejoin="round" stroke-width="0.05"/>
  </g>
</svg>
