<?xml version="1.0" encoding="UTF-8" standalone="no"?>
<svg xmlns:xlink="http://www.w3.org/1999/xlink" height="29.6px" width="13.6px" xmlns="http://www.w3.org/2000/svg">
  <g transform="matrix(1.0, 0.0, 0.0, 1.0, 6.8, 12.75)">
    <path d="M-2.15 4.05 Q1.9 4.35 3.75 3.3 L2.85 5.7 4.8 8.5 Q1.2 7.75 -3.75 9.2 L-3.2 5.85 -3.25 5.7 -3.35 5.3 -2.2 4.05 -2.15 4.05 -2.2 4.05 -2.15 4.05 M-4.45 10.35 L-4.5 9.4 -4.45 9.4 -4.45 10.35 M3.95 11.55 L3.1 11.65 Q0.65 11.85 -3.45 11.65 L-3.5 11.25 -3.85 10.5 -0.2 9.7 Q1.9 9.25 4.6 9.6 L4.9 9.65 3.95 11.55 M-3.3 12.9 L1.7 13.2 -3.2 13.5 -3.3 12.9" fill="#ffffff" fill-rule="evenodd" stroke="none"/>
    <path d="M5.45 9.7 L6.05 11.0 3.95 11.55 4.9 9.65 5.45 9.7 M6.45 12.1 L6.8 13.25 Q4.05 16.7 -2.65 15.15 L-3.2 13.5 1.7 13.2 1.8 13.2 Q5.2 13.1 6.45 12.1 M-3.35 5.3 L-3.8 1.95 -2.85 4.0 -2.2 4.05 -3.35 5.3" fill="#e0e0e0" fill-rule="evenodd" stroke="none"/>
    <path d="M-3.3 14.95 L-3.25 16.85 -3.6 15.85 -3.6 13.05 -4.45 10.55 -4.45 10.35 -4.45 9.4 -3.35 13.0 -3.3 14.95" fill="#e3e496" fill-rule="evenodd" stroke="none"/>
    <path d="M-4.15 9.8 L-3.75 9.2 Q1.2 7.75 4.8 8.5 L5.0 9.2 4.6 9.6 Q1.9 9.25 -0.2 9.7 L-3.85 10.5 -4.15 9.8 M3.1 11.65 L3.55 12.0 Q3.65 12.45 1.8 13.2 L1.7 13.2 -3.3 12.9 -3.45 11.65 Q0.65 11.85 3.1 11.65" fill="#877b51" fill-rule="evenodd" stroke="none"/>
    <path d="M4.8 8.5 Q5.8 8.85 5.45 9.7 L4.9 9.65 4.6 9.6 5.0 9.2 4.8 8.5 M6.05 11.0 L6.05 10.95 Q6.85 11.2 6.45 12.1 5.2 13.1 1.8 13.2 3.65 12.45 3.55 12.0 L3.1 11.65 3.95 11.55 6.05 11.0" fill="#7a652a" fill-rule="evenodd" stroke="none"/>
    <path d="M-6.75 -1.35 Q-6.0 0.65 -4.2 1.0 -2.3 1.25 -0.9 -1.55 L-0.85 -1.05 -0.85 -0.8 Q-0.6 1.9 -2.15 4.05 L-2.2 4.05 -2.85 4.0 -3.8 1.95 Q-5.05 1.95 -5.95 1.05 L-6.2 0.8 -6.3 0.65 Q-6.7 0.05 -6.75 -0.75 L-6.8 -1.0 -6.75 -1.35 M-2.65 15.15 L-3.3 14.95 -3.35 13.0 -4.45 9.4 -4.5 9.4 -4.5 9.0 -4.15 9.8 -3.85 10.5 -3.5 11.25 -3.45 11.65 -3.3 12.9 -3.2 13.5 -2.65 15.15 M-0.85 -0.8 Q-0.95 0.3 -1.7 1.05 -2.55 1.95 -3.8 1.95 -2.55 1.95 -1.7 1.05 -0.95 0.3 -0.85 -0.8" fill="#b86c63" fill-rule="evenodd" stroke="none"/>
    <path d="M-3.6 15.85 L-4.35 13.1 -4.45 10.55 -3.6 13.05 -3.6 15.85" fill="#96609c" fill-rule="evenodd" stroke="none"/>
    <path d="M2.1 -9.85 L3.65 -9.95 2.1 -9.85 M-1.6 -8.65 Q-0.95 -9.85 -2.15 -10.5 -0.45 -12.5 3.4 -12.75 2.95 -11.05 3.65 -9.95 4.85 -9.35 5.2 -8.45 5.5 -7.65 4.85 -7.3 L4.8 -7.4 4.85 -7.3 Q5.45 -5.5 5.2 -2.95 4.95 -0.25 3.75 3.3 1.9 4.35 -2.15 4.05 -0.6 1.9 -0.85 -0.8 L-0.85 -1.05 -0.9 -1.55 Q-2.3 1.25 -4.2 1.0 -6.0 0.65 -6.75 -1.35 -6.65 -2.45 -6.05 -3.25 L-5.3 -4.15 -5.65 -4.25 Q-6.0 -4.3 -6.0 -4.7 -6.0 -5.1 -5.2 -5.2 -4.45 -5.3 -3.6 -6.75 -2.95 -7.9 -1.6 -8.65 0.0 -9.65 1.0 -9.7 0.0 -9.65 -1.6 -8.65 M-5.3 -4.15 Q-4.1 -4.0 -2.8 -5.85 L-2.55 -6.2 Q-1.55 -7.45 -0.1 -8.05 L1.0 -8.45 1.85 -8.6 Q4.0 -8.95 4.8 -7.4 4.0 -8.95 1.85 -8.6 L1.0 -8.45 -0.1 -8.05 Q-1.55 -7.45 -2.55 -6.2 L-2.8 -5.85 Q-4.1 -4.0 -5.3 -4.15" fill="#e39391" fill-rule="evenodd" stroke="none"/>
    <path d="M-4.45 10.55 L-4.45 10.35 -4.5 9.4 -4.5 9.0 -4.15 9.8 -3.85 10.5 -3.5 11.25 -3.45 11.65 -3.3 12.9 -3.2 13.5 -2.65 15.15" fill="none" stroke="#a0a0a0" stroke-linecap="round" stroke-linejoin="round" stroke-width="0.05"/>
    <path d="M-2.2 4.05 L-2.15 4.05" fill="none" stroke="#99ff00" stroke-linecap="round" stroke-linejoin="round" stroke-width="0.05"/>
    <path d="M3.75 3.3 L2.85 5.7 4.8 8.5 Q5.8 8.85 5.45 9.7 L4.9 9.65 4.6 9.6 M6.05 11.0 L6.05 10.95 Q6.85 11.2 6.45 12.1 M-4.15 9.8 L-3.75 9.2 -3.2 5.85 -3.25 5.7 -3.35 5.3 -3.8 1.95" fill="none" stroke="#000000" stroke-linecap="round" stroke-linejoin="round" stroke-width="0.05"/>
    <path d="M3.65 -9.95 L2.1 -9.85 M4.8 -7.4 L4.85 -7.3 Q5.5 -7.65 5.2 -8.45 4.85 -9.35 3.65 -9.95 2.95 -11.05 3.4 -12.75 -0.45 -12.5 -2.15 -10.5 -0.95 -9.85 -1.6 -8.65 0.0 -9.65 1.0 -9.7 M3.75 3.3 Q4.95 -0.25 5.2 -2.95 5.45 -5.5 4.85 -7.3 L4.8 -7.4 Q4.0 -8.95 1.85 -8.6 L1.0 -8.45 -0.1 -8.05 Q-1.55 -7.45 -2.55 -6.2 L-2.8 -5.85 Q-4.1 -4.0 -5.3 -4.15 L-6.05 -3.25 Q-6.65 -2.45 -6.75 -1.35 L-6.8 -1.0 -6.75 -0.75 Q-6.7 0.05 -6.3 0.65 L-6.2 0.8 -5.95 1.05 Q-5.05 1.95 -3.8 1.95 -2.55 1.95 -1.7 1.05 -0.95 0.3 -0.85 -0.8 L-0.85 -1.05 -0.9 -1.55 M-2.15 4.05 Q1.9 4.35 3.75 3.3 M5.45 9.7 L6.05 11.0 M6.45 12.1 L6.8 13.25 M-5.3 -4.15 L-5.65 -4.25 Q-6.0 -4.3 -6.0 -4.7 -6.0 -5.1 -5.2 -5.2 -4.45 -5.3 -3.6 -6.75 -2.95 -7.9 -1.6 -8.65 M-2.2 4.05 L-2.85 4.0 -3.8 1.95" fill="none" stroke="#000000" stroke-linecap="round" stroke-linejoin="round" stroke-width="0.05"/>
  </g>
</svg>
