<?xml version="1.0" encoding="UTF-8" standalone="no"?>
<svg xmlns:xlink="http://www.w3.org/1999/xlink" height="29.95px" width="13.6px" xmlns="http://www.w3.org/2000/svg">
  <g transform="matrix(1.0, 0.0, 0.0, 1.0, 6.8, 13.05)">
    <path d="M2.8 -11.0 L3.25 -10.05 3.7 -9.3 3.75 -9.25 3.8 -9.2 3.25 -8.7 0.85 -7.15 Q-0.45 -6.55 -1.75 -6.4 L-2.55 -6.4 -2.0 -7.3 -1.45 -7.6 -1.1 -8.05 -1.1 -8.25 -1.25 -8.65 -0.85 -9.45 Q0.6 -9.4 2.3 -10.6 L2.8 -11.0 M0.55 -8.75 L0.75 -8.25 0.8 -8.2 Q0.95 -8.05 1.2 -8.05 L1.7 -8.25 1.9 -8.65 1.9 -8.75 1.7 -9.2 1.2 -9.4 Q0.95 -9.4 0.75 -9.2 L0.55 -8.75" fill="#224156" fill-rule="evenodd" stroke="none"/>
    <path d="M0.1 -5.55 L0.0 -5.5 0.1 -5.55" fill="#b8a434" fill-rule="evenodd" stroke="none"/>
    <path d="M5.7 10.2 L6.8 13.25 4.4 14.85 Q1.3 16.35 -2.5 15.85 L-2.3 15.15 -2.2 14.0 -2.2 13.6 Q2.25 13.9 4.05 11.4 L5.7 10.2" fill="#000000" fill-rule="evenodd" stroke="none"/>
    <path d="M-3.15 -6.45 L-2.85 -6.95 -2.6 -7.35 -2.2 -7.3 -2.0 -7.3 -2.55 -6.4 -2.65 -6.4 -3.15 -6.45 M-1.6 -9.0 L-1.35 -9.5 -0.85 -9.45 -1.25 -8.65 -1.45 -8.9 -1.6 -9.0" fill="#618ea3" fill-rule="evenodd" stroke="none"/>
    <path d="M-4.0 11.2 L-3.75 9.4 -3.2 5.85 -3.25 5.7 -3.35 5.3 -2.45 4.4 -2.1 5.7 Q-2.7 8.7 -2.8 11.7 -3.2 11.1 -3.65 11.1 L-4.0 11.2 M-6.75 -1.35 Q-6.7 -2.25 -6.25 -2.95 L-4.7 -2.85 -4.45 -2.85 Q-4.8 -1.2 -4.5 -0.1 L-4.5 0.0 -3.95 1.05 -4.2 1.0 Q-6.0 0.65 -6.75 -1.35 M-5.2 -4.3 L-4.35 -5.15 -3.15 -6.45 -2.65 -6.4 -2.55 -6.4 -1.75 -6.4 Q-2.65 -5.05 -4.0 -4.05 -4.7 -4.0 -5.2 -4.3" fill="#ffffff" fill-rule="evenodd" stroke="none"/>
    <path d="M-3.35 5.3 L-3.8 1.95 Q-5.05 1.95 -5.95 1.05 L-6.2 0.8 -6.3 0.65 Q-6.7 0.05 -6.75 -0.75 L-6.8 -1.0 -6.75 -1.35 Q-6.0 0.65 -4.2 1.0 L-3.95 1.05 -2.8 1.8 -2.45 4.4 -3.35 5.3 M-3.8 1.95 L-2.8 1.8 -3.8 1.95" fill="#e0e0e0" fill-rule="evenodd" stroke="none"/>
    <path d="M-2.3 12.9 Q1.35 12.9 4.05 11.4 2.25 13.9 -2.2 13.6 L-2.3 12.9 M-4.05 12.4 L-3.75 12.85 Q-3.6 13.35 -3.6 14.05 L-3.75 15.2 -4.05 15.7 -4.15 15.7 -4.5 15.2 -4.6 14.05 -4.5 12.85 -4.15 12.35 -4.05 12.4" fill="#2f3f4a" fill-rule="evenodd" stroke="none"/>
    <path d="M-2.5 15.85 L-2.6 16.05 Q-3.05 16.9 -3.65 16.9 -4.3 16.9 -4.7 16.05 -5.15 15.2 -5.15 14.0 -5.15 12.85 -4.7 12.0 -4.4 11.35 -4.0 11.2 L-3.65 11.1 Q-3.2 11.1 -2.8 11.7 L-2.6 12.0 -2.3 12.9 -2.2 13.6 -2.2 14.0 -2.3 15.15 -2.5 15.85 M-6.25 -2.95 L-6.05 -3.25 -5.2 -4.3 Q-4.7 -4.0 -4.0 -4.05 -3.15 -4.05 -1.9 -4.55 L0.0 -5.5 Q0.25 -5.2 0.0 -4.75 L-1.55 -3.8 Q-3.0 -3.1 -4.25 -2.9 L-4.45 -2.85 -4.7 -2.85 -6.25 -2.95 M-2.6 -7.35 L-1.6 -9.0 -1.45 -8.9 -1.25 -8.65 -1.1 -8.25 -1.1 -8.05 -1.45 -7.6 -2.0 -7.3 -2.2 -7.3 -2.6 -7.35 M0.55 -8.75 L0.75 -9.2 Q0.95 -9.4 1.2 -9.4 L1.7 -9.2 1.9 -8.75 1.9 -8.65 1.7 -8.25 1.2 -8.05 Q0.95 -8.05 0.8 -8.2 L0.75 -8.25 0.55 -8.75 M-2.0 -8.1 L-1.95 -8.1 -2.0 -8.1 M-4.05 12.4 L-4.15 12.35 -4.5 12.85 -4.6 14.05 -4.5 15.2 -4.15 15.7 -4.05 15.7 -3.75 15.2 -3.6 14.05 Q-3.6 13.35 -3.75 12.85 L-4.05 12.4" fill="#8bd7fe" fill-rule="evenodd" stroke="none"/>
    <path d="M4.5 0.8 L2.85 5.7 5.05 8.9 Q4.75 10.35 4.05 11.4 1.35 12.9 -2.3 12.9 L-2.6 12.0 -2.8 11.7 Q-2.7 8.7 -2.1 5.7 L-2.45 4.4 Q-0.6 2.15 -0.85 -0.8 L-0.85 -1.05 -0.9 -1.55 Q-2.2 1.1 -3.95 1.05 L-4.5 0.0 -4.5 -0.1 Q-4.8 -1.2 -4.45 -2.85 L-4.25 -2.9 Q-3.0 -3.1 -1.55 -3.8 L0.0 -4.75 Q0.85 0.7 4.5 0.8 M-1.35 -9.5 Q-1.1 -10.8 -1.4 -11.95 0.05 -11.85 1.8 -12.6 1.85 -11.35 2.3 -10.65 L2.3 -10.6 Q0.6 -9.4 -0.85 -9.45 L-1.35 -9.5 M0.85 -7.15 L0.1 -5.55 0.0 -5.5 -1.9 -4.55 Q-3.15 -4.05 -4.0 -4.05 -2.65 -5.05 -1.75 -6.4 -0.45 -6.55 0.85 -7.15" fill="#42ac81" fill-rule="evenodd" stroke="none"/>
    <path d="M1.8 -12.6 L2.7 -13.05 2.8 -11.0 2.3 -10.6 2.3 -10.65 Q1.85 -11.35 1.8 -12.6 M3.8 -9.2 L4.35 -8.4 Q5.5 -6.35 5.2 -2.95 5.05 -1.25 4.5 0.8 0.85 0.7 0.0 -4.75 2.05 -6.15 4.35 -8.4 L0.1 -5.55 0.85 -7.15 3.25 -8.7 3.8 -9.2 M5.05 8.9 L5.7 10.2 4.05 11.4 Q4.75 10.35 5.05 8.9 M-3.95 1.05 Q-2.2 1.1 -0.9 -1.55 L-0.85 -1.05 -0.85 -0.8 Q-0.6 2.15 -2.45 4.4 L-2.8 1.8 -3.95 1.05 M-0.85 -0.8 Q-0.95 0.3 -1.7 1.05 L-2.8 1.8 -1.7 1.05 Q-0.95 0.3 -0.85 -0.8" fill="#45916e" fill-rule="evenodd" stroke="none"/>
    <path d="M0.1 -5.55 L4.35 -8.4 Q2.05 -6.15 0.0 -4.75 0.25 -5.2 0.0 -5.5 L0.1 -5.55" fill="#24a1e0" fill-rule="evenodd" stroke="none"/>
    <path d="M2.3 -10.6 L2.8 -11.0 M3.8 -9.2 L3.25 -8.7 0.85 -7.15 Q-0.45 -6.55 -1.75 -6.4 L-2.55 -6.4 -2.65 -6.4 -3.15 -6.45 M-0.85 -9.45 L-1.35 -9.5 M-0.85 -9.45 Q0.6 -9.4 2.3 -10.6" fill="none" stroke="#000000" stroke-linecap="round" stroke-linejoin="round" stroke-width="0.05"/>
    <path d="M2.3 -10.65 L2.3 -10.6" fill="none" stroke="#00cc66" stroke-linecap="round" stroke-linejoin="round" stroke-width="0.05"/>
    <path d="M3.8 -9.2 L4.35 -8.4 Q5.5 -6.35 5.2 -2.95" fill="none" stroke="#6b2c2c" stroke-linecap="round" stroke-linejoin="round" stroke-width="0.05"/>
    <path d="M5.2 -2.95 Q5.05 -1.25 4.5 0.8 M5.05 8.9 L5.7 10.2 6.8 13.25 4.4 14.85 Q1.3 16.35 -2.5 15.85 M-4.0 11.2 L-3.75 9.4 -3.2 5.85 -3.25 5.7 -3.35 5.3 -3.8 1.95 M-2.3 12.9 Q1.35 12.9 4.05 11.4 L5.7 10.2" fill="none" stroke="#666666" stroke-linecap="round" stroke-linejoin="round" stroke-width="0.05"/>
    <path d="M-4.45 -2.85 Q-4.8 -1.2 -4.5 -0.1 L-4.5 0.0 -3.95 1.05 -2.8 1.8 -2.45 4.4 -2.1 5.7 Q-2.7 8.7 -2.8 11.7 M-1.75 -6.4 Q-2.65 -5.05 -4.0 -4.05" fill="none" stroke="#999999" stroke-linecap="round" stroke-linejoin="round" stroke-width="0.05"/>
    <path d="M-2.5 15.85 L-2.6 16.05 Q-3.05 16.9 -3.65 16.9 -4.3 16.9 -4.7 16.05 -5.15 15.2 -5.15 14.0 -5.15 12.85 -4.7 12.0 -4.4 11.35 -4.0 11.2 L-3.65 11.1 Q-3.2 11.1 -2.8 11.7 L-2.6 12.0 -2.3 12.9 -2.2 13.6 -2.2 14.0 -2.3 15.15 -2.5 15.85 M-4.05 12.4 L-4.15 12.35 -4.5 12.85 -4.6 14.05 -4.5 15.2 -4.15 15.7 -4.05 15.7 -3.75 15.2 -3.6 14.05 Q-3.6 13.35 -3.75 12.85 L-4.05 12.4" fill="none" stroke="#000000" stroke-linecap="round" stroke-linejoin="round" stroke-width="0.05"/>
    <path d="M4.35 -8.4 Q2.05 -6.15 0.0 -4.75 L-1.55 -3.8 Q-3.0 -3.1 -4.25 -2.9 L-4.45 -2.85 -4.7 -2.85 -6.25 -2.95" fill="none" stroke="#029ad2" stroke-linecap="round" stroke-linejoin="round" stroke-width="0.05"/>
    <path d="M1.8 -12.6 L2.7 -13.05 2.8 -11.0 3.25 -10.05 3.7 -9.3 3.75 -9.25 3.8 -9.2 M4.5 0.8 L2.85 5.7 5.05 8.9 M-3.8 1.95 Q-5.05 1.95 -5.95 1.05 L-6.2 0.8 -6.3 0.65 Q-6.7 0.05 -6.75 -0.75 L-6.8 -1.0 -6.75 -1.35 Q-6.7 -2.25 -6.25 -2.95 L-6.05 -3.25 -5.2 -4.3 -4.35 -5.15 -3.15 -6.45 -2.85 -6.95 -2.6 -7.35 -1.6 -9.0 -1.35 -9.5 Q-1.1 -10.8 -1.4 -11.95 0.05 -11.85 1.8 -12.6 M-0.9 -1.55 L-0.85 -1.05 -0.85 -0.8 Q-0.95 0.3 -1.7 1.05 L-2.8 1.8 -3.8 1.95" fill="none" stroke="#666666" stroke-linecap="round" stroke-linejoin="round" stroke-width="0.05"/>
  </g>
</svg>
