<?xml version="1.0" encoding="UTF-8" standalone="no"?>
<svg xmlns:xlink="http://www.w3.org/1999/xlink" height="12.25px" width="15.1px" xmlns="http://www.w3.org/2000/svg">
  <g transform="matrix(1.0, 0.0, 0.0, 1.0, 7.95, 5.95)">
    <path d="M-2.1 -5.9 L-0.9 -5.75 Q2.5 -5.05 6.2 -1.0 7.8 2.7 6.65 4.2 4.75 6.7 0.15 6.2 L-0.05 6.1 Q-3.55 4.85 -3.7 -2.5 -2.7 -3.35 -2.25 -5.3 L-2.1 -5.9 -2.25 -5.3 Q-2.7 -3.35 -3.7 -2.5 -3.55 4.85 -0.05 6.1 L-0.1 6.15 Q-9.3 5.2 -7.75 -2.05 L-7.3 -3.3 Q-6.95 -4.45 -5.55 -5.15 -4.1 -5.9 -2.55 -5.9 L-2.15 -5.9 -2.1 -5.9" fill="#707070" fill-rule="evenodd" stroke="none"/>
    <path d="M-0.1 6.15 L0.15 6.2" fill="none" stroke="#68413c" stroke-linecap="round" stroke-linejoin="round" stroke-width="0.05"/>
    <path d="M-0.05 6.1 L0.15 6.2 Q4.75 6.7 6.65 4.2 7.8 2.7 6.2 -1.0 2.5 -5.05 -0.9 -5.75 L-2.1 -5.9 -2.25 -5.3 Q-2.7 -3.35 -3.7 -2.5 -3.55 4.85 -0.05 6.1 L-0.1 6.15 Q-9.3 5.2 -7.75 -2.05 L-7.3 -3.3 Q-6.95 -4.45 -5.55 -5.15 -4.1 -5.9 -2.55 -5.9 L-2.15 -5.9 -2.1 -5.9" fill="none" stroke="#555555" stroke-linecap="round" stroke-linejoin="round" stroke-width="0.05"/>
  </g>
</svg>
