<?xml version="1.0" encoding="UTF-8" standalone="no"?>
<svg xmlns:xlink="http://www.w3.org/1999/xlink" height="18.6px" width="15.1px" xmlns="http://www.w3.org/2000/svg">
  <g transform="matrix(1.0, 0.0, 0.0, 1.0, 7.95, 5.95)">
    <path d="M-2.1 -5.9 L-0.9 -5.75 Q2.5 -5.05 6.2 -1.0 7.8 2.7 6.65 4.2 4.75 6.7 0.15 6.2 L-0.05 6.1 Q-3.55 4.85 -3.7 -2.5 -2.7 -3.35 -2.25 -5.3 L-2.1 -5.9 -2.25 -5.3 Q-2.7 -3.35 -3.7 -2.5 -3.55 4.85 -0.05 6.1 L-0.1 6.15 Q-9.3 5.2 -7.75 -2.05 L-7.3 -3.3 Q-6.95 -4.45 -5.55 -5.15 -4.1 -5.9 -2.55 -5.9 L-2.15 -5.9 -2.1 -5.9" fill="#e0e0e0" fill-rule="evenodd" stroke="none"/>
    <path d="M-0.05 6.1 L0.15 6.2 Q4.75 6.7 6.65 4.2 7.8 2.7 6.2 -1.0 2.5 -5.05 -0.9 -5.75 L-2.1 -5.9 -2.25 -5.3 Q-2.7 -3.35 -3.7 -2.5 -3.55 4.85 -0.05 6.1 L-0.1 6.15 Q-9.3 5.2 -7.75 -2.05 L-7.3 -3.3 Q-6.95 -4.45 -5.55 -5.15 -4.1 -5.9 -2.55 -5.9 L-2.15 -5.9 -2.1 -5.9" fill="none" stroke="#a0a0a0" stroke-linecap="round" stroke-linejoin="round" stroke-width="0.05"/>
    <path d="M-0.1 6.15 L0.15 6.2" fill="none" stroke="#93600b" stroke-linecap="round" stroke-linejoin="round" stroke-width="0.05"/>
    <path d="M-0.65 -1.15 L1.4 12.65 Q0.6 11.85 0.05 12.15 -1.25 12.4 -1.95 11.4 -3.05 10.4 -3.65 10.8 L-4.2 10.6 -6.2 -1.65 -0.65 -1.15 M-0.85 6.35 L0.05 12.15 -0.85 6.35 M-4.2 7.7 L-3.65 10.8 -4.2 7.7 M-2.25 8.7 L-1.95 11.4 -2.25 8.7" fill="#797979" fill-rule="evenodd" stroke="none"/>
    <path d="M-0.65 -1.15 L1.4 12.65 Q0.6 11.85 0.05 12.15 -1.25 12.4 -1.95 11.4 -3.05 10.4 -3.65 10.8 L-4.2 10.6 -6.2 -1.65 -0.65 -1.15 M-1.95 11.4 L-2.25 8.7 M-3.65 10.8 L-4.2 7.7 M0.05 12.15 L-0.85 6.35" fill="none" stroke="#4f4f4f" stroke-linecap="round" stroke-linejoin="round" stroke-width="0.05"/>
  </g>
</svg>
