<?xml version="1.0" encoding="UTF-8" standalone="no"?>
<svg xmlns:xlink="http://www.w3.org/1999/xlink" height="30.2px" width="16.5px" xmlns="http://www.w3.org/2000/svg">
  <g transform="matrix(1.0, 0.0, 0.0, 1.0, 8.25, 15.1)">
    <path d="M3.9 -9.45 L4.2 -9.35 4.15 -9.25 3.9 -9.45 M-4.35 -10.6 L-4.15 -10.6 -4.3 -10.6 -4.35 -10.6" fill="#fbd0c6" fill-rule="evenodd" stroke="none"/>
    <path d="M-4.35 -10.55 L-4.35 -10.6 -4.3 -10.6 -4.35 -10.55" fill="#f5dfc5" fill-rule="evenodd" stroke="none"/>
    <path d="M1.35 -15.05 L1.7 -15.05 Q1.55 -13.1 1.85 -11.35 -1.8 -10.05 -2.95 -11.8 -2.85 -13.3 -3.05 -14.95 L-1.85 -15.05 -0.25 -15.1 0.15 -15.1 1.3 -15.05 1.35 -15.05 M3.95 6.4 Q6.05 8.9 6.6 10.2 L7.3 11.7 7.4 13.5 Q4.5 15.3 -1.3 15.05 L-3.55 14.65 -1.35 12.15 0.9 9.7 3.95 6.4 M-3.65 14.6 Q-6.35 13.9 -7.5 12.55 -7.55 11.45 -7.2 10.8 -6.5 8.7 -5.35 6.95 L-5.2 9.2 -4.5 11.6 -3.65 14.6 M-5.95 -2.55 Q-4.65 -3.7 -4.0 -5.5 -2.45 -6.65 -1.35 -5.25 L-1.1 -4.9 Q-0.1 -2.65 1.4 -1.2 -2.45 -4.3 -5.95 -2.55" fill="#ffd0ae" fill-rule="evenodd" stroke="none"/>
    <path d="M1.85 -11.35 L2.1 -10.15 2.15 -10.0 3.9 -9.45 4.15 -9.25 4.2 -9.35 6.5 -8.3 6.9 -8.05 8.25 -7.25 Q7.35 1.2 3.65 6.05 L3.95 6.4 0.9 9.7 -1.35 12.15 -3.55 14.65 -3.65 14.6 -4.5 11.6 -5.2 9.2 -5.35 6.95 -4.6 5.9 Q-6.1 3.05 -6.45 1.55 L-7.8 -5.15 -7.85 -5.45 Q-8.55 -9.6 -8.0 -10.05 L-7.6 -10.15 -7.3 -10.25 -5.35 -10.6 -4.65 -10.6 -4.35 -10.6 -4.35 -10.55 -4.65 -10.6 -4.35 -10.55 -4.3 -10.6 -4.15 -10.6 -3.1 -10.65 -2.95 -11.8 Q-1.8 -10.05 1.85 -11.35 M2.7 -0.15 Q2.0 -0.6 1.4 -1.2 2.0 -0.6 2.7 -0.15 M-5.95 -2.55 L-6.4 -2.2 -5.95 -2.55 Q-2.45 -4.3 1.4 -1.2 -0.1 -2.65 -1.1 -4.9 L-1.35 -5.25 Q-2.45 -6.65 -4.0 -5.5 -4.65 -3.7 -5.95 -2.55 M-3.5 11.65 Q-3.05 10.45 -2.75 6.5 L-2.75 -2.05 -2.75 6.5 Q-3.05 10.45 -3.5 11.65" fill="#ffdfc8" fill-rule="evenodd" stroke="none"/>
    <path d="M0.15 -15.1 L1.35 -15.05 1.7 -15.05 Q1.55 -13.1 1.85 -11.35 L2.1 -10.15 2.15 -10.0 3.9 -9.45 4.2 -9.35 6.5 -8.3 6.9 -8.05 8.25 -7.25 Q7.35 1.2 3.65 6.05 L3.95 6.4 Q6.05 8.9 6.6 10.2 L7.3 11.7 7.4 13.5 Q4.5 15.3 -1.3 15.05 L-3.55 14.65 -3.65 14.6 Q-6.35 13.9 -7.5 12.55 -7.55 11.45 -7.2 10.8 -6.5 8.7 -5.35 6.95 L-4.6 5.9 Q-6.1 3.05 -6.45 1.55 L-7.8 -5.15 M-7.6 -10.15 L-7.3 -10.25 -5.35 -10.6 -4.65 -10.6 -4.35 -10.6 -4.15 -10.6 -3.1 -10.65 -2.95 -11.8 Q-2.85 -13.3 -3.05 -14.95 L-1.85 -15.05 -0.25 -15.1 0.15 -15.1 M4.15 -9.25 L3.9 -9.45 M1.4 -1.2 Q2.0 -0.6 2.7 -0.15 M0.9 9.7 L-1.35 12.15 M-4.65 -10.6 L-4.35 -10.55 -4.3 -10.6 -4.15 -10.6 M-6.4 -2.2 L-5.95 -2.55 Q-4.65 -3.7 -4.0 -5.5 M-1.1 -4.9 Q-0.1 -2.65 1.4 -1.2 M-4.5 11.6 L-5.2 9.2 M-2.75 -2.05 L-2.75 6.5 Q-3.05 10.45 -3.5 11.65" fill="none" stroke="#d7995e" stroke-linecap="round" stroke-linejoin="round" stroke-width="0.05"/>
  </g>
</svg>
