<?xml version="1.0" encoding="UTF-8" standalone="no"?>
<svg xmlns:xlink="http://www.w3.org/1999/xlink" height="25.75px" width="16.9px" xmlns="http://www.w3.org/2000/svg">
  <g transform="matrix(1.0, 0.0, 0.0, 1.0, 8.65, 10.65)">
    <path d="M-4.35 -10.6 L-4.15 -10.6 -4.3 -10.6 -4.35 -10.6 M4.15 -9.25 L3.9 -9.45 4.2 -9.35 4.15 -9.25" fill="#fbd0c6" fill-rule="evenodd" stroke="none"/>
    <path d="M-4.3 -10.6 L-4.35 -10.55 -4.35 -10.6 -4.3 -10.6" fill="#f5dfc5" fill-rule="evenodd" stroke="none"/>
    <path d="M-1.25 -5.1 L-1.35 -5.25 -1.25 -5.25 -1.25 -5.1" fill="#ffdfc8" fill-rule="evenodd" stroke="none"/>
    <path d="M4.2 -9.35 L6.5 -8.3 6.9 -8.05 8.25 -7.25 Q8.1 -3.45 6.95 -0.6 L6.95 -0.55 6.9 -0.5 Q6.05 2.05 2.7 -0.15 2.0 -0.6 1.4 -1.2 -0.1 -2.65 -1.1 -4.9 L-1.25 -5.1 -1.25 -5.25 -1.25 -9.05 4.15 -9.25 4.2 -9.35 M-7.35 -2.6 L-8.15 -5.5 -8.25 -5.9 Q-9.05 -9.3 -8.3 -9.9 L-8.0 -10.05 -7.9 -10.1 -5.35 -10.6 -4.35 -10.6 -4.35 -10.55 -4.65 -10.5 Q-3.95 -9.85 -3.0 -9.5 L-3.95 -5.55 -4.0 -5.5 Q-4.65 -3.7 -5.95 -2.55 L-6.25 -2.25 Q-7.05 -1.8 -7.35 -2.6" fill="#8e3939" fill-rule="evenodd" stroke="none"/>
    <path d="M6.9 -0.5 Q5.7 3.35 3.65 6.05 L3.95 6.4 Q8.5 12.15 -3.55 14.65 L-3.65 14.6 Q-7.25 11.15 -6.15 8.35 L-5.35 6.95 -4.6 5.9 Q-6.1 3.05 -6.45 1.55 L-7.35 -2.6 Q-7.05 -1.8 -6.25 -2.25 L-5.95 -2.55 Q-2.45 -4.3 1.4 -1.2 2.0 -0.6 2.7 -0.15 6.05 2.05 6.9 -0.5 M-3.0 -9.5 L-2.4 -9.3 -1.25 -9.05 -1.25 -5.25 -1.35 -5.25 Q-2.4 -6.65 -3.95 -5.55 L-3.0 -9.5 M-3.5 11.65 Q-3.05 10.45 -2.75 6.5 L-2.75 -2.05 -2.75 6.5 Q-3.05 10.45 -3.5 11.65" fill="#ffffff" fill-rule="evenodd" stroke="none"/>
    <path d="M3.95 6.4 Q6.05 8.9 6.6 10.2 L7.3 11.7 7.4 13.5 Q4.5 15.3 -1.3 15.05 L-3.55 14.65 Q8.5 12.15 3.95 6.4 M-3.65 14.6 Q-6.35 13.9 -7.5 12.55 -7.55 11.45 -7.2 10.8 -6.5 8.7 -5.35 6.95 L-6.15 8.35 Q-7.25 11.15 -3.65 14.6 M1.4 -1.2 Q-2.45 -4.3 -5.95 -2.55 -4.65 -3.7 -4.0 -5.5 L-3.95 -5.55 Q-2.4 -6.65 -1.35 -5.25 L-1.25 -5.1 -1.1 -4.9 Q-0.1 -2.65 1.4 -1.2" fill="#e0e0e0" fill-rule="evenodd" stroke="none"/>
    <path d="M6.95 -0.6 L6.95 -0.55 6.9 -0.5 Q5.7 3.35 3.65 6.05 L3.95 6.4 Q6.05 8.9 6.6 10.2 L7.3 11.7 7.4 13.5 Q4.5 15.3 -1.3 15.05 L-3.55 14.65 M-3.65 14.6 Q-6.35 13.9 -7.5 12.55 -7.55 11.45 -7.2 10.8 -6.5 8.7 -5.35 6.95 L-4.6 5.9 Q-6.1 3.05 -6.45 1.55 L-7.35 -2.6 Q-7.05 -1.8 -6.25 -2.25 L-5.95 -2.55 Q-4.65 -3.7 -4.0 -5.5 M6.9 -0.5 Q6.05 2.05 2.7 -0.15 2.0 -0.6 1.4 -1.2 -0.1 -2.65 -1.1 -4.9 M-1.25 -5.1 L-1.25 -5.25 -1.25 -9.05 M-3.0 -9.5 L-3.95 -5.55" fill="none" stroke="#a0a0a0" stroke-linecap="round" stroke-linejoin="round" stroke-width="0.05"/>
    <path d="M4.2 -9.35 L6.5 -8.3 6.9 -8.05 8.25 -7.25 M-7.35 -2.6 L-8.15 -5.5 -8.25 -5.9 M-8.3 -9.9 L-8.0 -10.05 -7.9 -10.1 -5.35 -10.6 -4.35 -10.6 M-4.35 -10.55 L-4.65 -10.5 Q-3.95 -9.85 -3.0 -9.5 L-2.4 -9.3 -1.25 -9.05 4.15 -9.25" fill="none" stroke="#6b2c2c" stroke-linecap="round" stroke-linejoin="round" stroke-width="0.05"/>
    <path d="M-2.75 -2.05 L-2.75 6.5 Q-3.05 10.45 -3.5 11.65" fill="none" stroke="#e0e0e0" stroke-linecap="round" stroke-linejoin="round" stroke-width="0.05"/>
  </g>
</svg>
