<?xml version="1.0" encoding="UTF-8" standalone="no"?>
<svg xmlns:xlink="http://www.w3.org/1999/xlink" height="26.4px" width="16.5px" xmlns="http://www.w3.org/2000/svg">
  <g transform="matrix(1.0, 0.0, 0.0, 1.0, 8.25, 10.6)">
    <path d="M7.35 12.45 L7.35 12.55 7.3 12.45 7.35 12.45" fill="#ca8c60" fill-rule="evenodd" stroke="none"/>
    <path d="M4.25 -7.1 Q4.2 -8.5 5.0 -9.0 L6.5 -8.3 6.9 -8.05 8.25 -7.25 4.25 -7.1 M-8.15 -9.8 L-8.0 -10.05 -5.35 -10.6 -5.15 -10.6 Q-5.9 -10.5 -5.85 -8.6 -7.15 -9.15 -8.15 -9.8" fill="#d7ebfd" fill-rule="evenodd" stroke="none"/>
    <path d="M7.35 12.55 Q7.95 13.5 7.5 14.7 -0.6 16.95 -5.55 14.65 L-7.8 13.25 -7.55 11.25 -7.4 11.35 -6.05 12.25 -5.55 12.45 -5.0 12.7 -4.1 12.95 -4.15 12.9 -4.1 12.95 -2.35 13.3 Q1.55 13.8 7.3 12.45 L7.35 12.55" fill="#aedbfb" fill-rule="evenodd" stroke="none"/>
    <path d="M5.55 8.45 L6.6 10.2 7.3 11.7 7.35 12.45 7.3 12.45 Q1.55 13.8 -2.35 13.3 6.8 11.85 5.55 8.45 M-7.4 11.35 L-7.2 10.8 -6.65 9.35 Q-7.3 10.95 -4.15 12.9 L-4.1 12.95 -5.0 12.7 -5.55 12.45 -6.05 12.25 -7.4 11.35 M-5.95 -2.55 Q-4.65 -3.7 -4.0 -5.5 -2.45 -6.65 -1.35 -5.25 L-1.1 -4.9 Q-0.1 -2.65 1.4 -1.2 -2.45 -4.3 -5.95 -2.55" fill="#59929f" fill-rule="evenodd" stroke="none"/>
    <path d="M4.25 -7.1 L8.25 -7.25 Q7.35 1.2 3.65 6.05 L3.95 6.4 5.35 8.15 5.55 8.45 Q6.8 11.85 -2.35 13.3 L-4.1 12.95 -4.15 12.9 Q-7.3 10.95 -6.65 9.35 L-6.4 8.9 -5.35 6.95 -4.6 5.9 Q-6.1 3.05 -6.45 1.55 -8.7 -8.25 -8.15 -9.8 -7.15 -9.15 -5.85 -8.6 -2.05 -7.1 4.25 -7.1 M2.7 -0.15 Q2.0 -0.6 1.4 -1.2 2.0 -0.6 2.7 -0.15 M-5.95 -2.55 L-6.4 -2.2 -5.95 -2.55 Q-2.45 -4.3 1.4 -1.2 -0.1 -2.65 -1.1 -4.9 L-1.35 -5.25 Q-2.45 -6.65 -4.0 -5.5 -4.65 -3.7 -5.95 -2.55 M-4.5 11.6 L-5.2 9.2 -4.5 11.6 M-3.5 11.65 Q-3.2 10.85 -2.95 8.65 L-2.75 6.5 -2.75 -2.05 -2.75 6.5 -2.95 8.65 Q-3.2 10.85 -3.5 11.65 M0.9 9.7 L-1.35 12.15 0.9 9.7" fill="#8db7c0" fill-rule="evenodd" stroke="none"/>
    <path d="M8.25 -7.25 L6.9 -8.05 6.5 -8.3 5.0 -9.0 Q4.2 -8.5 4.25 -7.1 L8.25 -7.25 Q7.35 1.2 3.65 6.05 L3.95 6.4 5.35 8.15 5.55 8.45 6.6 10.2 7.3 11.7 7.35 12.45 7.35 12.55 Q7.95 13.5 7.5 14.7 -0.6 16.95 -5.55 14.65 L-7.8 13.25 -7.55 11.25 -7.4 11.35 -7.2 10.8 -6.65 9.35 -6.4 8.9 -5.35 6.95 -4.6 5.9 Q-6.1 3.05 -6.45 1.55 -8.7 -8.25 -8.15 -9.8 L-8.0 -10.05 -5.35 -10.6 -5.15 -10.6 Q-5.9 -10.5 -5.85 -8.6 -2.05 -7.1 4.25 -7.1 M7.3 12.45 L7.35 12.55 M-5.85 -8.6 Q-7.15 -9.15 -8.15 -9.8 M-7.4 11.35 L-6.05 12.25 -5.55 12.45 -5.0 12.7 -4.1 12.95 -2.35 13.3 Q1.55 13.8 7.3 12.45 M-4.15 12.9 L-4.1 12.95" fill="none" stroke="#305054" stroke-linecap="round" stroke-linejoin="round" stroke-width="0.05"/>
    <path d="M1.4 -1.2 Q2.0 -0.6 2.7 -0.15 M-6.4 -2.2 L-5.95 -2.55 Q-4.65 -3.7 -4.0 -5.5 M-1.1 -4.9 Q-0.1 -2.65 1.4 -1.2 M-2.75 -2.05 L-2.75 6.5 -2.95 8.65 Q-3.2 10.85 -3.5 11.65 M-5.2 9.2 L-4.5 11.6 M-1.35 12.15 L0.9 9.7" fill="none" stroke="#59929f" stroke-linecap="round" stroke-linejoin="round" stroke-width="0.05"/>
  </g>
</svg>
