<?xml version="1.0" encoding="UTF-8" standalone="no"?>
<svg xmlns:xlink="http://www.w3.org/1999/xlink" height="26.9px" width="16.5px" xmlns="http://www.w3.org/2000/svg">
  <g transform="matrix(1.0, 0.0, 0.0, 1.0, 8.25, 11.8)">
    <path d="M-4.3 -10.55 L-4.35 -10.55 -4.35 -10.6 -4.3 -10.55" fill="#f5dfc5" fill-rule="evenodd" stroke="none"/>
    <path d="M-4.3 -10.6 L-4.3 -10.55 -4.35 -10.6 -4.3 -10.6" fill="#a56c5f" fill-rule="evenodd" stroke="none"/>
    <path d="M4.2 -9.35 L1.8 -8.9 -2.35 -9.05 Q-4.3 -9.6 -4.3 -10.55 L-4.3 -10.6 -2.95 -11.8 Q-1.45 -10.55 1.85 -11.35 L4.2 -9.35" fill="#ffffff" fill-rule="evenodd" stroke="none"/>
    <path d="M5.5 -8.75 L6.5 -8.3 6.9 -8.05 7.25 -7.85 7.45 -7.75 8.25 -7.25 8.25 -7.2 8.25 -6.9 8.2 -6.55 7.7 -3.5 7.65 -3.3 7.55 -2.85 Q6.35 2.55 3.65 6.05 L3.95 6.4 4.6 7.2 Q7.3 10.85 3.0 12.9 L2.75 13.05 -1.0 13.1 -3.25 12.7 -5.55 11.85 -6.05 11.6 -5.55 11.85 -3.25 12.7 -1.0 13.1 2.75 13.05 Q0.45 14.05 -3.55 14.65 L-3.65 14.6 Q-5.3 13.2 -5.95 11.8 L-6.05 11.6 Q-6.75 9.85 -6.0 8.1 L-5.35 6.95 -4.6 5.9 Q-6.1 3.05 -6.45 1.55 L-7.65 -4.25 -7.85 -5.15 -7.9 -5.65 -7.95 -5.8 -8.0 -6.25 Q-8.5 -9.65 -8.0 -10.05 L-7.65 -10.15 -7.4 -10.2 -7.2 -10.25 -7.05 -10.3 -5.35 -10.6 -5.25 -10.6 Q-4.8 -8.95 -1.65 -8.2 L5.5 -8.75 M2.7 -0.15 Q2.0 -0.6 1.4 -1.2 2.0 -0.6 2.7 -0.15 M-5.95 -2.55 L-6.4 -2.2 -5.95 -2.55 Q-2.45 -4.3 1.4 -1.2 -0.1 -2.65 -1.1 -4.9 L-1.35 -5.25 Q-2.45 -6.65 -4.0 -5.5 -4.65 -3.7 -5.95 -2.55 M-3.5 11.65 Q-3.05 10.45 -2.75 6.5 L-2.75 -2.05 -2.75 6.5 Q-3.05 10.45 -3.5 11.65" fill="#e89a71" fill-rule="evenodd" stroke="none"/>
    <path d="M-5.35 6.95 L-6.0 8.1 Q-6.75 9.85 -6.05 11.6 L-6.85 10.95 -7.15 10.65 Q-6.45 8.65 -5.35 6.95 M2.75 13.05 L3.0 12.9 Q7.3 10.85 4.6 7.2 6.15 9.1 6.6 10.2 L7.2 11.55 7.3 11.7 7.3 11.8 Q5.75 12.65 3.4 12.95 L2.75 13.05 3.4 12.95 Q5.75 12.65 7.3 11.8 L7.4 13.5 Q4.5 15.3 -1.3 15.05 L-3.55 14.65 Q0.45 14.05 2.75 13.05 M-3.65 14.6 Q-6.35 13.9 -7.5 12.55 -7.55 11.55 -7.25 10.9 L-7.2 10.8 -7.15 10.65 -6.85 10.95 -6.05 11.6 -5.95 11.8 Q-5.3 13.2 -3.65 14.6 M-5.95 -2.55 Q-4.65 -3.7 -4.0 -5.5 -2.45 -6.65 -1.35 -5.25 L-1.1 -4.9 Q-0.1 -2.65 1.4 -1.2 -2.45 -4.3 -5.95 -2.55" fill="#de7238" fill-rule="evenodd" stroke="none"/>
    <path d="M5.5 -8.75 L-1.65 -8.2 Q-4.8 -8.95 -5.25 -10.6 L-4.35 -10.6 -4.35 -10.55 -4.3 -10.55 Q-4.3 -9.6 -2.35 -9.05 L1.8 -8.9 4.2 -9.35 5.5 -8.75" fill="#d1d1d1" fill-rule="evenodd" stroke="none"/>
    <path d="M8.25 -7.25 L7.45 -7.75 7.25 -7.85 6.9 -8.05 6.5 -8.3 5.5 -8.75 -1.65 -8.2 Q-4.8 -8.95 -5.25 -10.6 L-5.35 -10.6 -7.05 -10.3 -7.2 -10.25 -7.4 -10.2 -7.65 -10.15 -8.0 -10.05 M-7.95 -5.8 L-7.9 -5.65 -7.85 -5.15 -7.65 -4.25 -6.45 1.55 Q-6.1 3.05 -4.6 5.9 L-5.35 6.95 Q-6.45 8.65 -7.15 10.65 L-7.2 10.8 -7.25 10.9 Q-7.55 11.55 -7.5 12.55 -6.35 13.9 -3.65 14.6 L-3.55 14.65 -1.3 15.05 Q4.5 15.3 7.4 13.5 L7.3 11.8 7.3 11.7 7.2 11.55 6.6 10.2 Q6.15 9.1 4.6 7.2 L3.95 6.4 3.65 6.05 Q6.35 2.55 7.55 -2.85 L7.65 -3.3 M-6.05 11.6 L-5.55 11.85 -3.25 12.7 -1.0 13.1 2.75 13.05 3.4 12.95 Q5.75 12.65 7.3 11.8 M4.2 -9.35 L5.5 -8.75 M4.2 -9.35 L1.8 -8.9 -2.35 -9.05 Q-4.3 -9.6 -4.3 -10.55 L-4.35 -10.55 -4.35 -10.6 -5.25 -10.6 M4.2 -9.35 L1.85 -11.35 Q-1.45 -10.55 -2.95 -11.8 L-4.3 -10.6 -4.3 -10.55 -4.35 -10.6 -4.3 -10.6 M-6.05 11.6 L-6.85 10.95 -7.15 10.65" fill="none" stroke="#9b3d1a" stroke-linecap="round" stroke-linejoin="round" stroke-width="0.05"/>
    <path d="M1.4 -1.2 Q2.0 -0.6 2.7 -0.15 M-6.4 -2.2 L-5.95 -2.55 Q-4.65 -3.7 -4.0 -5.5 M-1.1 -4.9 Q-0.1 -2.65 1.4 -1.2 M-2.75 -2.05 L-2.75 6.5 Q-3.05 10.45 -3.5 11.65" fill="none" stroke="#de7238" stroke-linecap="round" stroke-linejoin="round" stroke-width="0.05"/>
  </g>
</svg>
