<?xml version="1.0" encoding="UTF-8" standalone="no"?>
<svg xmlns:xlink="http://www.w3.org/1999/xlink" height="28.15px" width="15.5px" xmlns="http://www.w3.org/2000/svg">
  <g transform="matrix(1.0, 0.0, 0.0, 1.0, 7.8, 12.35)">
    <path d="M2.1 -10.2 L2.1 -10.15 2.15 -10.0 3.9 -9.45 4.15 -9.25 Q3.1 -9.6 2.35 -9.0 L-2.4 -9.3 -4.65 -10.5 -4.35 -10.55 -4.3 -10.6 -4.15 -10.6 -3.1 -10.65 -3.05 -10.95 Q-2.3 -9.25 2.1 -10.2 M3.95 6.4 L4.65 7.25 2.95 8.05 2.35 8.2 3.95 6.4 M-4.0 -5.5 Q-2.45 -6.65 -1.35 -5.25 L-1.1 -4.9 Q-0.1 -2.65 1.4 -1.2 -2.45 -4.3 -5.95 -2.55 -4.65 -3.7 -4.0 -5.5" fill="#e0e0e0" fill-rule="evenodd" stroke="none"/>
    <path d="M2.35 -9.0 Q1.05 -3.85 1.55 -1.05 2.05 1.6 4.1 2.15 6.3 1.0 7.3 -1.75 L6.45 0.9 6.4 1.0 Q5.3 3.85 3.65 6.05 L3.95 6.4 2.35 8.2 Q-0.95 8.75 -2.9 8.2 -4.45 7.75 -5.1 6.6 L-4.6 5.9 Q-6.0 3.25 -6.4 1.8 L-6.45 1.55 -6.75 -0.35 -6.65 -4.7 Q-6.5 -8.1 -4.65 -10.5 L-2.4 -9.3 2.35 -9.0 M-4.0 -5.5 Q-4.65 -3.7 -5.95 -2.55 -2.45 -4.3 1.4 -1.2 -0.1 -2.65 -1.1 -4.9 L-1.35 -5.25 Q-2.45 -6.65 -4.0 -5.5" fill="#ffffff" fill-rule="evenodd" stroke="none"/>
    <path d="M-4.35 -10.55 L-4.35 -10.6 -4.3 -10.6 -4.35 -10.55" fill="#f5dfc5" fill-rule="evenodd" stroke="none"/>
    <path d="M-4.35 -10.6 L-4.15 -10.6 -4.3 -10.6 -4.35 -10.6" fill="#fbd0c6" fill-rule="evenodd" stroke="none"/>
    <path d="M-2.95 -11.8 L-2.9 -12.35 Q-2.3 -11.3 1.8 -11.75 L1.85 -11.35 Q-1.8 -10.05 -2.95 -11.8 M4.65 7.25 L5.5 8.4 2.95 9.6 0.7 9.95 2.35 8.2 2.95 8.05 4.65 7.25 M7.5 14.7 Q-0.6 16.95 -5.55 14.65 L-7.8 13.25 -7.55 11.25 -7.4 11.35 -6.05 12.25 -5.55 12.45 -5.0 12.7 -4.1 12.95 -2.35 13.3 Q1.55 13.8 7.3 12.45 L7.35 12.55 Q7.95 13.5 7.5 14.7" fill="#000000" fill-rule="evenodd" stroke="none"/>
    <path d="M1.85 -11.35 L2.1 -10.2 Q-2.3 -9.25 -3.05 -10.95 L-2.95 -11.8 Q-1.8 -10.05 1.85 -11.35 M0.7 9.95 L-2.1 9.95 -3.05 9.7 -3.7 9.45 Q-4.85 8.85 -5.2 8.25 L-5.6 7.45 -5.4 7.0 -5.1 6.6 Q-4.45 7.75 -2.9 8.2 -0.95 8.75 2.35 8.2 L0.7 9.95" fill="#575757" fill-rule="evenodd" stroke="none"/>
    <path d="M-2.95 -11.8 L-2.9 -12.35 Q-2.3 -11.3 1.8 -11.75 L1.85 -11.35 2.1 -10.2 2.1 -10.15 2.15 -10.0 3.9 -9.45 4.15 -9.25 Q3.1 -9.6 2.35 -9.0 1.05 -3.85 1.55 -1.05 2.05 1.6 4.1 2.15 6.3 1.0 7.3 -1.75 L6.45 0.9 M6.4 1.0 Q5.3 3.85 3.65 6.05 L3.95 6.4 4.65 7.25 5.5 8.4 2.95 9.6 0.7 9.95 -2.1 9.95 -3.05 9.7 -3.7 9.45 Q-4.85 8.85 -5.2 8.25 L-5.6 7.45 -5.4 7.0 -5.1 6.6 -4.6 5.9 Q-6.0 3.25 -6.4 1.8 L-6.45 1.55 -6.75 -0.35 -6.65 -4.7 Q-6.5 -8.1 -4.65 -10.5 L-4.35 -10.55 -4.3 -10.6 -4.15 -10.6 -3.1 -10.65 -3.05 -10.95 -2.95 -11.8 M-4.35 -10.6 L-4.15 -10.6 M4.65 7.25 L2.95 8.05 2.35 8.2 Q-0.95 8.75 -2.9 8.2 -4.45 7.75 -5.1 6.6 M2.1 -10.2 Q-2.3 -9.25 -3.05 -10.95" fill="none" stroke="#a0a0a0" stroke-linecap="round" stroke-linejoin="round" stroke-width="0.05"/>
    <path d="M7.5 14.7 Q-0.6 16.95 -5.55 14.65 L-7.8 13.25 -7.55 11.25 -7.4 11.35 -6.05 12.25 -5.55 12.45 -5.0 12.7 -4.1 12.95 -2.35 13.3 Q1.55 13.8 7.3 12.45 L7.35 12.55 Q7.95 13.5 7.5 14.7" fill="none" stroke="#000000" stroke-linecap="round" stroke-linejoin="round" stroke-width="0.05"/>
  </g>
</svg>
