<?xml version="1.0" encoding="UTF-8" standalone="no"?>
<svg xmlns:xlink="http://www.w3.org/1999/xlink" height="28.0px" width="15.4px" xmlns="http://www.w3.org/2000/svg">
  <g transform="matrix(1.0, 0.0, 0.0, 1.0, 7.8, 12.75)">
    <path d="M1.7 -6.0 L1.5 -4.35 -0.95 -4.55 -1.1 -4.9 -1.35 -5.25 -1.6 -5.55 Q-2.35 -6.25 -3.2 -5.95 L-4.0 -5.5 -4.35 -4.65 -6.65 -4.6 -6.65 -4.7 -6.45 -6.45 -3.15 -6.4 Q-3.0 -7.95 -2.5 -9.3 L-2.05 -9.15 -1.1 -8.95 -1.55 -6.3 1.7 -6.0 M-3.25 -3.15 L-1.6 -2.9 -1.35 0.2 Q-1.05 5.35 -1.25 8.5 L-1.65 11.05 -3.15 10.9 -2.75 8.55 Q-2.35 4.75 -2.9 -0.1 L-3.25 -3.15" fill="#ffffff" fill-rule="evenodd" stroke="none"/>
    <path d="M-4.35 -10.55 L-4.35 -10.6 -4.3 -10.6 -4.35 -10.55" fill="#f5dfc5" fill-rule="evenodd" stroke="none"/>
    <path d="M-4.35 -10.6 L-4.15 -10.6 -4.3 -10.6 -4.35 -10.6" fill="#fbd0c6" fill-rule="evenodd" stroke="none"/>
    <path d="M2.35 -9.0 L1.7 -6.0 -1.55 -6.3 -1.1 -8.95 Q0.25 -8.8 2.35 -9.0 M1.5 -4.35 Q1.3 -2.45 1.55 -1.05 L2.05 0.5 Q2.75 1.8 4.1 2.15 6.3 1.0 7.3 -1.75 L6.45 0.9 6.4 1.0 Q5.3 3.85 3.65 6.05 3.15 10.15 0.9 10.85 L0.85 10.85 -1.65 11.05 -1.25 8.5 Q-1.05 5.35 -1.35 0.2 L-1.6 -2.9 Q-0.15 -2.45 1.4 -1.2 0.05 -2.55 -0.95 -4.55 L1.5 -4.35 M-4.6 5.9 Q-6.0 3.25 -6.4 1.8 L-6.45 1.55 -6.75 -0.35 -6.65 -4.6 -4.35 -4.65 Q-4.95 -3.4 -5.95 -2.55 -4.6 -3.2 -3.25 -3.15 L-2.9 -0.1 Q-2.35 4.75 -2.75 8.55 L-3.15 10.9 -4.6 10.4 Q-4.25 9.85 -4.25 9.05 L-4.6 5.9 M-6.45 -6.45 Q-6.0 -8.75 -4.65 -10.5 -3.7 -9.75 -2.5 -9.3 -3.0 -7.95 -3.15 -6.4 L-6.45 -6.45" fill="#aed3e3" fill-rule="evenodd" stroke="none"/>
    <path d="M3.65 6.05 Q6.35 9.0 6.55 10.2 L5.75 10.35 0.9 10.85 Q3.15 10.15 3.65 6.05 M-6.8 9.4 Q-6.15 7.65 -4.6 5.9 L-4.25 9.05 Q-4.25 9.85 -4.6 10.4 -6.55 9.95 -6.8 9.4 M-4.65 -10.5 L-4.35 -10.55 -4.3 -10.6 -4.15 -10.6 -3.1 -10.65 -3.45 -12.45 -2.6 -12.65 -2.2 -10.15 -2.5 -9.3 Q-3.7 -9.75 -4.65 -10.5 M-0.8 -12.7 L2.45 -11.95 2.0 -10.15 3.9 -9.45 4.15 -9.25 Q3.1 -9.6 2.35 -9.0 0.25 -8.8 -1.1 -8.95 L-0.8 -9.9 -0.8 -12.7 M-1.6 -2.9 L-1.65 -4.6 -0.95 -4.55 Q0.05 -2.55 1.4 -1.2 -0.15 -2.45 -1.6 -2.9 M-4.35 -4.65 L-3.3 -4.65 -3.25 -3.15 Q-4.6 -3.2 -5.95 -2.55 -4.95 -3.4 -4.35 -4.65" fill="#88c4e3" fill-rule="evenodd" stroke="none"/>
    <path d="M-2.6 -12.65 L-0.8 -12.7 -0.8 -9.9 -1.1 -8.95 -2.05 -9.15 -2.5 -9.3 -2.2 -10.15 -2.6 -12.65 M-0.95 -4.55 L-1.65 -4.6 -1.6 -2.9 -3.25 -3.15 -3.3 -4.65 -4.35 -4.65 -4.0 -5.5 -3.2 -5.95 Q-2.35 -6.25 -1.6 -5.55 L-1.35 -5.25 -1.1 -4.9 -0.95 -4.55" fill="#d1d1d1" fill-rule="evenodd" stroke="none"/>
    <path d="M6.55 10.2 Q7.1 10.45 7.0 10.95 L5.25 11.45 1.3 11.9 1.45 13.55 5.4 13.0 Q6.75 12.7 7.35 12.1 7.8 12.3 7.5 13.3 7.2 14.3 3.25 14.95 -0.75 15.6 -4.0 14.8 -7.25 13.95 -7.6 13.3 -7.95 12.7 -7.7 12.35 L-7.45 11.75 Q-7.2 12.35 -6.1 13.05 L-5.7 11.45 -6.9 10.15 -6.8 9.4 Q-6.55 9.95 -4.6 10.4 L-3.15 10.9 -1.65 11.05 0.85 10.85 0.9 10.85 5.75 10.35 6.55 10.2 M-0.9 13.8 L-0.9 11.9 -3.95 11.6 -4.55 13.35 -0.9 13.8" fill="#263959" fill-rule="evenodd" stroke="none"/>
    <path d="M7.0 10.95 Q7.35 11.15 7.35 12.1 6.75 12.7 5.4 13.0 L1.45 13.55 1.3 11.9 5.25 11.45 7.0 10.95 M-7.45 11.75 Q-7.55 10.95 -6.9 10.15 L-5.7 11.45 -6.1 13.05 Q-7.2 12.35 -7.45 11.75 M-4.55 13.35 L-3.95 11.6 -0.9 11.9 -0.9 13.8 -4.55 13.35" fill="#576bca" fill-rule="evenodd" stroke="none"/>
    <path d="M-4.65 -10.5 L-4.35 -10.55 -4.3 -10.6 -4.15 -10.6 -4.35 -10.6" fill="none" stroke="#a0a0a0" stroke-linecap="round" stroke-linejoin="round" stroke-width="0.05"/>
    <path d="M2.35 -9.0 L1.7 -6.0 1.5 -4.35 Q1.3 -2.45 1.55 -1.05 L2.05 0.5 Q2.75 1.8 4.1 2.15 6.3 1.0 7.3 -1.75 L6.45 0.9 M6.4 1.0 Q5.3 3.85 3.65 6.05 6.35 9.0 6.55 10.2 M-4.6 5.9 Q-6.0 3.25 -6.4 1.8 L-6.45 1.55 -6.75 -0.35 -6.65 -4.6 -6.65 -4.7 -6.45 -6.45 Q-6.0 -8.75 -4.65 -10.5 M-4.15 -10.6 L-3.1 -10.65 -3.45 -12.45 -3.45 -12.5 -3.45 -12.45 -2.6 -12.65 -0.8 -12.7 2.45 -11.95 2.0 -10.15 3.9 -9.45 4.15 -9.25 Q3.1 -9.6 2.35 -9.0" fill="none" stroke="#b03573" stroke-linecap="round" stroke-linejoin="round" stroke-width="0.05"/>
    <path d="M7.5 13.3 Q7.2 14.3 3.25 14.95 -0.75 15.6 -4.0 14.8 -7.25 13.95 -7.6 13.3 -7.95 12.7 -7.7 12.35 M-6.8 9.4 Q-6.15 7.65 -4.6 5.9 M1.45 13.55 L5.4 13.0 Q6.75 12.7 7.35 12.1 M-0.9 13.8 L-4.55 13.35 M-7.45 11.75 Q-7.2 12.35 -6.1 13.05" fill="none" stroke="#576bc9" stroke-linecap="round" stroke-linejoin="round" stroke-width="0.05"/>
    <path d="M6.55 10.2 Q7.1 10.45 7.0 10.95 7.35 11.15 7.35 12.1 7.8 12.3 7.5 13.3 M-7.7 12.35 L-7.45 11.75 Q-7.55 10.95 -6.9 10.15 L-6.8 9.4 Q-6.55 9.95 -4.6 10.4 L-3.15 10.9 -1.65 11.05 -1.25 8.5 Q-1.05 5.35 -1.35 0.2 L-1.6 -2.9 -1.65 -4.6 -0.95 -4.55 1.5 -4.35 M-1.1 -8.95 L-1.55 -6.3 1.7 -6.0 M-1.65 11.05 L0.85 10.85 0.9 10.85 5.75 10.35 6.55 10.2 M7.0 10.95 L5.25 11.45 1.3 11.9 1.45 13.55 M-2.6 -12.65 L-2.2 -10.15 -2.5 -9.3 Q-3.0 -7.95 -3.15 -6.4 L-6.45 -6.45 M-1.1 -8.95 L-0.8 -9.9 -0.8 -12.7 M-4.35 -4.65 L-3.3 -4.65 -3.25 -3.15 -2.9 -0.1 Q-2.35 4.75 -2.75 8.55 L-3.15 10.9 M-4.35 -4.65 L-6.65 -4.6 M-6.1 13.05 L-5.7 11.45 -6.9 10.15 M-4.55 13.35 L-3.95 11.6 -0.9 11.9 -0.9 13.8" fill="none" stroke="#576bc9" stroke-linecap="round" stroke-linejoin="round" stroke-width="0.05"/>
  </g>
</svg>
