<?xml version="1.0" encoding="UTF-8" standalone="no"?>
<svg xmlns:xlink="http://www.w3.org/1999/xlink" height="30.95px" width="16.9px" xmlns="http://www.w3.org/2000/svg">
  <g transform="matrix(1.0, 0.0, 0.0, 1.0, 8.65, 13.55)">
    <path d="M5.25 3.6 L3.65 6.05 3.95 6.4 Q4.85 7.55 5.1 8.6 1.4 9.55 -2.3 11.2 L-3.0 9.4 -3.0 9.35 -3.05 9.35 -3.9 11.2 Q-5.35 10.05 -5.75 7.65 L-5.35 6.95 -4.6 5.9 -6.15 2.55 Q-4.4 3.35 -2.75 3.8 L-2.75 6.5 -3.0 9.35 -2.75 6.5 -2.75 3.8 Q1.7 4.95 5.25 3.6 M-1.8 12.4 Q1.65 11.1 5.05 10.2 4.25 12.45 -0.55 13.9 L-1.7 14.0 -1.5 13.6 -1.8 12.4 M-6.35 10.3 Q-5.7 11.15 -4.3 11.95 L-4.25 12.0 -4.8 13.05 -4.7 13.45 -4.75 13.45 -4.85 13.35 Q-6.15 11.7 -6.35 10.3" fill="#ffffff" fill-rule="evenodd" stroke="none"/>
    <path d="M3.95 6.4 L5.55 8.45 5.1 8.6 Q4.85 7.55 3.95 6.4 M6.45 9.85 L6.6 10.2 7.3 11.7 Q3.65 13.55 -0.55 13.9 4.25 12.45 5.05 10.2 L6.45 9.85 M-7.3 11.05 L-7.2 10.8 -6.75 9.65 -6.35 10.3 Q-6.15 11.7 -4.85 13.35 -6.05 12.65 -7.2 10.95 L-7.3 11.05 M-5.8 7.7 L-5.35 6.95 -5.75 7.65 -5.8 7.7" fill="#e0e0e0" fill-rule="evenodd" stroke="none"/>
    <path d="M5.55 8.45 Q7.0 8.7 6.45 9.85 L5.05 10.2 Q5.3 9.45 5.1 8.6 L5.55 8.45 M7.3 11.7 Q8.6 12.65 7.45 13.5 L7.1 13.85 4.2 14.85 -2.35 15.1 -1.9 14.35 -1.7 14.0 -0.55 13.9 Q3.65 13.55 7.3 11.7 M-4.45 14.5 Q-6.4 14.05 -7.5 12.95 -8.05 11.7 -7.3 11.05 L-7.2 10.95 Q-6.05 12.65 -4.85 13.35 L-4.75 13.45 -4.45 14.4 -4.45 14.5 M-6.75 9.65 Q-7.2 8.5 -5.8 7.7 L-5.75 7.65 -6.15 8.35 Q-6.5 9.3 -6.35 10.3 L-6.75 9.65" fill="#7a652a" fill-rule="evenodd" stroke="none"/>
    <path d="M-4.3 11.95 L-3.9 11.2 -4.25 12.0 -4.3 11.95 M-4.75 13.45 L-4.7 13.45 -4.45 14.4 -4.75 13.45 M-3.0 9.4 L-3.05 9.35 -3.0 9.35 -3.0 9.4 M-1.7 14.0 L-1.9 14.35 -2.35 15.1 -1.7 14.0" fill="#3c4147" fill-rule="evenodd" stroke="none"/>
    <path d="M5.1 8.6 Q5.3 9.45 5.05 10.2 1.65 11.1 -1.8 12.4 L-2.3 11.2 Q1.4 9.55 5.1 8.6 M-6.35 10.3 Q-6.5 9.3 -6.15 8.35 L-5.75 7.65 Q-5.35 10.05 -3.9 11.2 L-4.3 11.95 Q-5.7 11.15 -6.35 10.3" fill="#877b51" fill-rule="evenodd" stroke="none"/>
    <path d="M-2.35 15.1 L-3.7 17.4 -4.45 14.5 -4.45 14.4 -4.7 13.45 -4.8 13.05 -4.25 12.0 -3.9 11.2 -3.05 9.35 -3.0 9.4 -2.3 11.2 -1.8 12.4 -1.5 13.6 -1.7 14.0 -2.35 15.1 M-4.45 12.9 L-3.8 15.75 -2.5 13.4 -3.3 10.35 -4.45 12.9" fill="#e3e496" fill-rule="evenodd" stroke="none"/>
    <path d="M-5.25 -10.6 L-4.7 -11.0 -4.7 -9.85 Q-4.6 -6.65 -2.85 -4.7 L-3.95 -5.55 Q-5.25 -7.1 -5.25 -10.6 M-0.8 -13.4 Q0.1 -13.2 0.9 -12.7 3.6 -11.05 2.95 -10.6 2.3 -10.1 2.35 -9.85 1.7 -10.25 -1.05 -9.9 0.2 -12.9 -0.8 -13.4 M4.4 -9.55 L4.7 -9.15 Q2.05 -8.4 0.0 -5.5 1.25 -9.0 4.4 -9.55 M5.65 -9.05 L5.7 -8.7 Q3.75 -7.7 1.15 -4.7 L-0.35 -3.4 Q-1.1 -3.0 -1.8 -2.95 -1.1 -3.0 -0.35 -3.4 0.45 -2.15 1.4 -1.2 -0.25 -2.55 -1.8 -2.95 -2.35 -2.8 -2.9 -3.15 L-3.85 -3.7 -2.9 -3.15 Q-4.45 -3.3 -5.95 -2.55 -5.1 -3.3 -4.5 -4.35 L-3.9 -3.75 -3.85 -3.7 -1.95 -3.5 Q-0.6 -3.7 1.65 -6.2 3.9 -8.7 5.65 -9.05" fill="#b86c63" fill-rule="evenodd" stroke="none"/>
    <path d="M-4.2 -10.7 L-4.1 -10.7 -4.05 -10.65 -4.0 -10.6 -4.0 -10.55 -4.0 -10.1 Q-3.85 -9.35 -2.5 -8.85 L-2.45 -8.8 -2.4 -8.7 -2.5 -8.65 -2.6 -8.6 Q-4.15 -9.15 -4.25 -10.05 L-4.2 -10.7 M3.05 -9.7 L3.35 -9.75 3.45 -9.75 3.5 -9.65 3.45 -9.55 3.4 -9.5 1.7 -8.85 Q0.45 -8.1 -0.85 -6.55 L-0.9 -6.55 -3.55 -6.65 -3.55 -6.75 -3.5 -6.85 -3.4 -6.85 -3.35 -6.8 -1.05 -6.7 Q0.25 -8.3 1.55 -9.05 L3.05 -9.7" fill="#000000" fill-rule="evenodd" stroke="none"/>
    <path d="M5.7 -8.7 L6.5 -8.3 6.9 -8.05 8.25 -7.25 Q8.1 -3.45 6.95 -0.6 L6.95 -0.55 6.9 -0.5 5.25 3.6 Q1.7 4.95 -2.75 3.8 -4.4 3.35 -6.15 2.55 L-6.45 1.55 -7.35 -2.6 -8.15 -5.5 -8.25 -5.9 Q-9.05 -9.3 -8.3 -9.9 L-8.0 -10.05 -7.9 -10.1 -6.05 -10.5 -5.25 -10.6 Q-5.25 -7.1 -3.95 -5.55 L-2.85 -4.7 Q-4.6 -6.65 -4.7 -9.85 L-4.7 -11.0 -4.2 -10.7 -4.25 -10.05 Q-4.15 -9.15 -2.6 -8.6 L-2.5 -8.65 -2.4 -8.7 -2.45 -8.8 -2.5 -8.85 Q-3.85 -9.35 -4.0 -10.1 L-4.0 -10.55 -4.0 -10.6 -3.35 -10.55 Q-3.25 -11.3 -3.95 -13.0 -3.75 -13.6 -2.1 -13.55 L-0.8 -13.4 Q0.2 -12.9 -1.05 -9.9 1.7 -10.25 2.35 -9.85 L3.05 -9.7 1.55 -9.05 Q0.25 -8.3 -1.05 -6.7 L-3.35 -6.8 -3.4 -6.85 -3.5 -6.85 -3.55 -6.75 -3.55 -6.65 -0.9 -6.55 -0.85 -6.55 Q0.45 -8.1 1.7 -8.85 L3.4 -9.5 3.45 -9.55 3.5 -9.65 4.4 -9.55 Q1.25 -9.0 0.0 -5.5 2.05 -8.4 4.7 -9.15 L5.65 -9.05 Q3.9 -8.7 1.65 -6.2 -0.6 -3.7 -1.95 -3.5 L-3.85 -3.7 -3.9 -3.75 -4.5 -4.35 Q-5.1 -3.3 -5.95 -2.55 -4.45 -3.3 -2.9 -3.15 -2.35 -2.8 -1.8 -2.95 -0.25 -2.55 1.4 -1.2 0.45 -2.15 -0.35 -3.4 L1.15 -4.7 Q3.75 -7.7 5.7 -8.7 M6.9 -0.5 Q6.05 2.05 2.7 -0.15 2.0 -0.6 1.4 -1.2 2.0 -0.6 2.7 -0.15 6.05 2.05 6.9 -0.5 M-7.35 -2.6 Q-7.05 -1.8 -6.25 -2.25 L-5.95 -2.55 -6.25 -2.25 Q-7.05 -1.8 -7.35 -2.6 M-4.5 -4.35 Q-6.3 -6.4 -6.05 -10.5 -6.3 -6.4 -4.5 -4.35 M-2.75 -2.05 L-2.75 3.8 -2.75 -2.05" fill="#e39391" fill-rule="evenodd" stroke="none"/>
    <path d="M-4.45 12.9 L-3.3 10.35 -2.5 13.4 -3.8 15.75 -4.45 12.9" fill="#96609c" fill-rule="evenodd" stroke="none"/>
    <path d="M-5.8 7.7 L-5.75 7.65 M-3.0 9.4 L-3.0 9.35 -2.75 6.5 -2.75 3.8" fill="none" stroke="#a0a0a0" stroke-linecap="round" stroke-linejoin="round" stroke-width="0.05"/>
    <path d="M5.25 3.6 L3.65 6.05 3.95 6.4 5.55 8.45 Q7.0 8.7 6.45 9.85 L6.6 10.2 7.3 11.7 Q8.6 12.65 7.45 13.5 M-7.5 12.95 Q-8.05 11.7 -7.3 11.05 L-7.2 10.8 -6.75 9.65 Q-7.2 8.5 -5.8 7.7 L-5.35 6.95 -4.6 5.9 -6.15 2.55" fill="none" stroke="#000000" stroke-linecap="round" stroke-linejoin="round" stroke-width="0.05"/>
    <path d="M5.7 -8.7 L6.5 -8.3 6.9 -8.05 8.25 -7.25 Q8.1 -3.45 6.95 -0.6 L6.95 -0.55 6.9 -0.5 5.25 3.6 Q1.7 4.95 -2.75 3.8 -4.4 3.35 -6.15 2.55 L-6.45 1.55 -7.35 -2.6 -8.15 -5.5 -8.25 -5.9 Q-9.05 -9.3 -8.3 -9.9 L-8.0 -10.05 -7.9 -10.1 -6.05 -10.5 -5.25 -10.6 -4.7 -11.0 -4.2 -10.7 M-4.0 -10.6 L-3.35 -10.55 Q-3.25 -11.3 -3.95 -13.0 -3.75 -13.6 -2.1 -13.55 L-0.8 -13.4 Q0.1 -13.2 0.9 -12.7 3.6 -11.05 2.95 -10.6 2.3 -10.1 2.35 -9.85 L3.05 -9.7 M3.5 -9.65 L4.4 -9.55 4.7 -9.15 5.65 -9.05 5.7 -8.7 Q3.75 -7.7 1.15 -4.7 L-0.35 -3.4 Q-1.1 -3.0 -1.8 -2.95 -2.35 -2.8 -2.9 -3.15 L-3.85 -3.7 -3.9 -3.75 -4.5 -4.35 Q-6.3 -6.4 -6.05 -10.5 M1.4 -1.2 Q2.0 -0.6 2.7 -0.15 6.05 2.05 6.9 -0.5 M0.0 -5.5 Q2.05 -8.4 4.7 -9.15 M-4.0 -10.6 L-4.0 -10.55 M-5.95 -2.55 L-6.25 -2.25 Q-7.05 -1.8 -7.35 -2.6 M-5.25 -10.6 Q-5.25 -7.1 -3.95 -5.55 L-2.85 -4.7 M-1.05 -9.9 Q1.7 -10.25 2.35 -9.85 M-2.75 3.8 L-2.75 -2.05" fill="none" stroke="#000000" stroke-linecap="round" stroke-linejoin="round" stroke-width="0.05"/>
  </g>
</svg>
