<?xml version="1.0" encoding="UTF-8" standalone="no"?>
<svg xmlns:xlink="http://www.w3.org/1999/xlink" height="28.7px" width="16.9px" xmlns="http://www.w3.org/2000/svg">
  <g transform="matrix(1.0, 0.0, 0.0, 1.0, 8.65, 13.45)">
    <path d="M-4.3 -10.6 L-4.35 -10.6 -4.15 -10.6 -4.3 -10.6" fill="#fbd0c6" fill-rule="evenodd" stroke="none"/>
    <path d="M-4.35 -10.6 L-4.3 -10.6 -4.35 -10.55 -4.35 -10.6" fill="#f5dfc5" fill-rule="evenodd" stroke="none"/>
    <path d="M-1.25 -5.15 L-1.3 -5.15 -1.25 -5.15 -1.25 -5.1 -1.3 -5.15 -1.3 -5.2 -1.25 -5.15" fill="#ffdfc8" fill-rule="evenodd" stroke="none"/>
    <path d="M5.85 8.85 Q6.65 9.2 6.5 9.95 0.85 11.8 -3.25 10.8 -5.1 10.35 -6.65 9.35 -6.85 8.3 -6.15 8.35 L-3.05 9.55 Q1.1 10.55 5.85 8.85 M7.35 12.25 Q8.0 12.9 7.4 13.5 4.85 14.95 2.8 15.15 L-0.9 15.25 -3.35 15.0 -5.1 14.3 -6.8 13.5 -7.7 12.65 Q-7.95 12.2 -7.45 11.6 -2.05 16.0 7.35 12.25 M-3.35 -11.55 L-3.35 -12.7 Q-1.55 -14.6 2.95 -11.75 L2.95 -10.6 Q2.0 -10.5 1.5 -9.1 L0.4 -8.9 -2.25 -9.25 -2.35 -9.3 -3.35 -10.4 -3.35 -11.55 M-1.3 -5.2 L-1.3 -5.15 -1.35 -5.15 -1.3 -5.2" fill="#ffffff" fill-rule="evenodd" stroke="none"/>
    <path d="M-6.15 8.35 L-5.35 6.95 -6.15 8.35" fill="#e0e0e0" fill-rule="evenodd" stroke="none"/>
    <path d="M7.8 -3.35 Q8.2 -1.95 7.2 -1.2 2.4 -4.25 -1.05 -5.1 L-1.25 -5.15 -1.3 -5.2 -1.35 -5.15 -4.05 -5.45 Q-6.3 -5.35 -7.7 -3.85 -8.65 -4.3 -8.15 -5.4 -7.35 -6.65 -5.9 -7.1 -6.3 -9.4 -5.85 -10.5 -5.35 -12.05 -3.35 -11.55 L-3.35 -10.4 -3.85 -9.9 Q-4.5 -9.1 -4.4 -7.35 -2.25 -7.5 0.9 -6.4 1.05 -7.95 1.45 -8.95 L1.5 -9.1 Q2.0 -10.5 2.95 -10.6 L3.0 -10.6 Q4.6 -11.05 4.8 -9.15 L4.65 -9.15 Q3.95 -9.0 2.85 -5.7 5.1 -4.8 7.8 -3.35 M5.7 2.6 L5.8 3.3 Q5.85 3.85 4.85 4.25 0.7 0.35 -2.2 0.1 L-2.75 0.05 Q-5.25 0.05 -6.3 2.2 -6.85 1.7 -6.65 0.75 L-6.65 0.7 Q-6.05 -1.95 -2.75 -1.7 L-2.15 -1.65 Q2.15 -0.85 5.7 2.6 M-4.3 -10.6 L-4.15 -10.6 -4.35 -10.6 -4.35 -10.55 -4.3 -10.6" fill="#877b51" fill-rule="evenodd" stroke="none"/>
    <path d="M4.65 -9.15 Q5.55 -8.75 6.5 -8.3 L6.9 -8.05 8.25 -7.25 7.8 -3.35 Q5.1 -4.8 2.85 -5.7 3.95 -9.0 4.65 -9.15 M4.85 4.25 L3.65 6.05 3.95 6.4 5.85 8.85 Q1.1 10.55 -3.05 9.55 L-6.15 8.35 -5.35 6.95 -4.6 5.9 -5.8 3.4 -6.3 2.2 Q-5.25 0.05 -2.75 0.05 L-2.2 0.1 Q0.7 0.35 4.85 4.25 M-8.15 -5.4 L-8.15 -5.5 -8.25 -5.9 Q-9.05 -9.3 -8.3 -9.9 L-8.0 -10.05 -7.9 -10.1 -5.85 -10.5 Q-6.3 -9.4 -5.9 -7.1 -7.35 -6.65 -8.15 -5.4 M-2.25 -9.25 L0.4 -8.9 1.5 -9.1 1.45 -8.95 Q1.05 -7.95 0.9 -6.4 -2.25 -7.5 -4.4 -7.35 -4.5 -9.1 -3.85 -9.9 L-3.35 -10.4 -2.35 -9.3 -2.4 -9.3 -2.25 -9.25 M-3.05 9.55 L-2.75 6.5 -2.75 0.05 -2.75 6.5 -3.05 9.55" fill="#2f3032" fill-rule="evenodd" stroke="none"/>
    <path d="M7.2 -1.2 L6.95 -0.6 6.95 -0.55 6.9 -0.5 5.7 2.6 Q2.15 -0.85 -2.15 -1.65 L-2.75 -1.7 Q-6.05 -1.95 -6.65 0.7 L-7.35 -2.6 -7.7 -3.85 Q-6.3 -5.35 -4.05 -5.45 L-1.35 -5.15 -1.3 -5.15 -1.25 -5.1 -1.25 -5.15 -1.05 -5.1 Q2.4 -4.25 7.2 -1.2 M6.5 9.95 L7.05 10.4 Q7.55 10.85 7.35 12.25 -2.05 16.0 -7.45 11.6 -7.7 11.4 -7.5 10.6 -7.3 9.75 -6.65 9.35 -5.1 10.35 -3.25 10.8 0.85 11.8 6.5 9.95" fill="#454b3f" fill-rule="evenodd" stroke="none"/>
    <path d="M4.65 -9.15 Q5.55 -8.75 6.5 -8.3 L6.9 -8.05 8.25 -7.25 M7.8 -3.35 Q8.2 -1.95 7.2 -1.2 L6.95 -0.6 6.95 -0.55 6.9 -0.5 5.7 2.6 5.8 3.3 Q5.85 3.85 4.85 4.25 L3.65 6.05 3.95 6.4 5.85 8.85 Q6.65 9.2 6.5 9.95 L7.05 10.4 Q7.55 10.85 7.35 12.25 8.0 12.9 7.4 13.5 4.85 14.95 2.8 15.15 L-0.9 15.25 -3.35 15.0 M-5.1 14.3 L-6.8 13.5 -7.7 12.65 Q-7.95 12.2 -7.45 11.6 -7.7 11.4 -7.5 10.6 -7.3 9.75 -6.65 9.35 -6.85 8.3 -6.15 8.35 L-5.35 6.95 -4.6 5.9 -5.8 3.4 -6.3 2.2 Q-6.85 1.7 -6.65 0.75 L-6.65 0.7 -7.35 -2.6 -7.7 -3.85 Q-8.65 -4.3 -8.15 -5.4 L-8.15 -5.5 -8.25 -5.9 M-8.3 -9.9 L-8.0 -10.05 -7.9 -10.1 -5.85 -10.5 Q-5.35 -12.05 -3.35 -11.55 L-3.35 -12.7 Q-1.55 -14.6 2.95 -11.75 L2.95 -10.6 3.0 -10.6 Q4.6 -11.05 4.8 -9.15 L4.65 -9.15 Q3.95 -9.0 2.85 -5.7 5.1 -4.8 7.8 -3.35 M1.5 -9.1 L0.4 -8.9 -2.25 -9.25 -2.35 -9.3 -3.35 -10.4 -3.85 -9.9 Q-4.5 -9.1 -4.4 -7.35 -2.25 -7.5 0.9 -6.4 1.05 -7.95 1.45 -8.95 L1.5 -9.1 Q2.0 -10.5 2.95 -10.6 M-3.35 -10.4 L-3.35 -11.55 M-5.85 -10.5 Q-6.3 -9.4 -5.9 -7.1 -7.35 -6.65 -8.15 -5.4 M-1.3 -5.15 L-1.25 -5.15 -1.05 -5.1 Q2.4 -4.25 7.2 -1.2 M-1.3 -5.15 L-1.35 -5.15 -4.05 -5.45 Q-6.3 -5.35 -7.7 -3.85 M5.7 2.6 Q2.15 -0.85 -2.15 -1.65 L-2.75 -1.7 Q-6.05 -1.95 -6.65 0.7 M-6.3 2.2 Q-5.25 0.05 -2.75 0.05 L-2.2 0.1 Q0.7 0.35 4.85 4.25 M-3.05 9.55 Q1.1 10.55 5.85 8.85 M-3.05 9.55 L-6.15 8.35 M-6.65 9.35 Q-5.1 10.35 -3.25 10.8 0.85 11.8 6.5 9.95 M-7.45 11.6 Q-2.05 16.0 7.35 12.25" fill="none" stroke="#6b2c2c" stroke-linecap="round" stroke-linejoin="round" stroke-width="0.05"/>
    <path d="M-2.75 0.05 L-2.75 6.5 -3.05 9.55" fill="none" stroke="#616974" stroke-linecap="round" stroke-linejoin="round" stroke-width="0.05"/>
  </g>
</svg>
