<?xml version="1.0" encoding="UTF-8" standalone="no"?>
<svg xmlns:xlink="http://www.w3.org/1999/xlink" height="6.7px" width="4.8px" xmlns="http://www.w3.org/2000/svg">
  <g transform="matrix(1.0, 0.0, 0.0, 1.0, 2.4, 3.3)">
    <path d="M-2.1 -0.85 L-1.5 -3.0 0.75 -3.05 Q1.75 -3.2 2.4 -1.4 L2.4 1.25 2.0 3.0 2.05 3.4 1.7 3.35 Q0.8 3.0 0.45 1.3 L-0.1 0.8 -0.15 0.7 -0.7 0.2 -2.1 -0.85" fill="#ffdfc8" fill-rule="evenodd" stroke="none"/>
    <path d="M1.7 3.35 L-1.05 2.75 -1.1 2.75 -1.2 1.95 -2.4 0.25 -2.1 -0.85 -0.7 0.2 -0.15 0.7 -0.15 0.75 -0.1 0.8 0.45 1.3 Q0.8 3.0 1.7 3.35 M-1.2 1.95 L-0.15 0.75 -1.2 1.95" fill="#ffd0ae" fill-rule="evenodd" stroke="none"/>
    <path d="M-0.15 0.7 L-0.1 0.8 -0.15 0.75 -0.15 0.7" fill="#eebf5a" fill-rule="evenodd" stroke="none"/>
    <path d="M2.4 1.25 L2.35 2.6 2.0 3.0 2.4 1.25" fill="#f5dfc5" fill-rule="evenodd" stroke="none"/>
    <path d="M-2.1 -0.85 L-1.5 -3.0 0.75 -3.05 Q1.75 -3.2 2.4 -1.4 L2.4 1.25 2.35 2.6 2.0 3.0 2.05 3.4 1.7 3.35 -1.05 2.75 -1.1 2.75 -1.2 1.95 -2.4 0.25 -2.1 -0.85 M-0.15 0.7 L-0.1 0.8 M-0.15 0.75 L-1.2 1.95 M-0.15 0.7 L-0.15 0.75" fill="none" stroke="#d7995e" stroke-linecap="round" stroke-linejoin="round" stroke-width="0.05"/>
  </g>
</svg>
