<?xml version="1.0" encoding="UTF-8" standalone="no"?>
<svg xmlns:xlink="http://www.w3.org/1999/xlink" height="30.45px" width="16.9px" xmlns="http://www.w3.org/2000/svg">
  <g transform="matrix(1.0, 0.0, 0.0, 1.0, 8.65, 14.7)">
    <path d="M2.45 -10.95 Q3.0 -9.65 3.9 -9.45 2.2 -7.75 -0.2 -7.2 L-1.25 -7.05 Q-2.6 -7.0 -3.4 -7.75 L-3.65 -8.0 Q-4.45 -9.0 -4.45 -9.9 L-3.5 -10.15 -3.35 -10.15 -3.0 -10.35 -2.85 -10.65 -2.9 -10.85 -2.7 -11.65 Q-0.45 -11.85 2.45 -10.95 M1.7 -10.4 L1.2 -10.15 1.0 -9.6 1.2 -9.1 1.35 -9.0 1.7 -8.95 2.1 -9.05 2.2 -9.2 2.45 -9.7 2.2 -10.2 1.7 -10.4 M-0.85 -10.25 Q-1.2 -10.55 -1.7 -10.5 -2.2 -10.45 -2.55 -10.1 L-2.85 -9.45 -2.9 -9.25 Q-2.9 -8.75 -2.55 -8.45 -2.2 -8.1 -1.7 -8.15 L-1.25 -8.25 -0.85 -8.6 -0.6 -8.95 -0.5 -9.45 Q-0.5 -9.95 -0.85 -10.25" fill="#224156" fill-rule="evenodd" stroke="none"/>
    <path d="M-6.15 8.35 L-5.35 6.95 -6.15 8.35 M-1.0 -4.8 L-0.95 -4.7 -1.0 -4.7 -1.15 -5.0 -1.0 -4.8 M-0.2 -3.2 L1.0 -1.65 1.0 -1.5 Q-2.15 -3.85 -5.1 -2.9 L-5.05 -3.45 -4.6 -4.2 Q-3.95 -3.5 -2.9 -3.2 -1.5 -2.85 -0.2 -3.2 M3.3 12.55 L2.5 12.7 3.2 12.25 3.3 12.55 M-3.95 -5.55 Q-2.4 -6.6 -1.35 -5.25 L-1.0 -4.7 -2.95 -4.9 -3.95 -5.55" fill="#e0e0e0" fill-rule="evenodd" stroke="none"/>
    <path d="M-1.25 -7.05 L-1.0 -4.8 -1.15 -5.0 -1.0 -4.7 -1.35 -5.25 Q-2.4 -6.6 -3.95 -5.55 L-3.95 -5.6 -3.4 -7.75 Q-2.6 -7.0 -1.25 -7.05 M1.0 -1.5 Q1.45 3.55 0.05 6.65 2.1 8.8 3.2 12.25 L2.5 12.7 Q-3.0 13.4 -5.8 11.85 -5.3 8.75 -3.35 6.35 -5.2 3.65 -5.1 -2.9 -2.15 -3.85 1.0 -1.5 M-3.5 11.65 Q-3.05 10.45 -2.75 6.5 L-2.75 -2.05 -2.75 6.5 Q-3.05 10.45 -3.5 11.65" fill="#ffffff" fill-rule="evenodd" stroke="none"/>
    <path d="M7.3 11.7 Q7.95 13.25 7.6 14.6 -4.45 17.4 -8.0 13.5 -8.1 12.25 -7.2 10.8 L-5.8 11.85 -3.65 14.6 -3.55 14.65 Q0.3 13.8 2.5 12.7 L3.3 12.55 7.3 11.7" fill="#000000" fill-rule="evenodd" stroke="none"/>
    <path d="M-4.25 -10.6 Q-3.35 -10.9 -3.2 -11.6 L-2.7 -11.65 -2.9 -10.85 -3.1 -10.95 -3.4 -10.7 -3.6 -10.45 -3.6 -10.2 -3.5 -10.15 -4.45 -9.9 -4.35 -10.6 -4.3 -10.6 -4.25 -10.6" fill="#618ea3" fill-rule="evenodd" stroke="none"/>
    <path d="M-4.35 -10.6 L-4.3 -10.6 -4.35 -10.6" fill="#f5dfc5" fill-rule="evenodd" stroke="none"/>
    <path d="M-4.35 -10.6 L-4.25 -10.6 -4.3 -10.6 -4.35 -10.6" fill="#fbd0c6" fill-rule="evenodd" stroke="none"/>
    <path d="M2.5 12.7 Q0.3 13.8 -3.55 14.65 L-3.65 14.6 -5.8 11.85 Q-3.0 13.4 2.5 12.7" fill="#2f3f4a" fill-rule="evenodd" stroke="none"/>
    <path d="M6.9 -0.5 Q5.7 3.35 3.65 6.05 L3.95 6.4 Q6.8 9.95 3.2 12.25 2.1 8.8 0.05 6.65 1.45 3.55 1.0 -1.5 L1.0 -1.65 1.4 -1.2 Q2.0 -0.6 2.7 -0.15 6.05 2.05 6.9 -0.5 M-5.35 6.95 L-4.6 5.9 Q-6.1 3.05 -6.45 1.55 L-7.35 -2.6 -8.15 -5.5 -8.25 -5.9 Q-9.05 -9.3 -8.3 -9.9 L-8.0 -10.05 -7.9 -10.1 -5.65 -10.55 -5.35 -10.6 -4.35 -10.6 -4.45 -9.9 Q-4.45 -9.0 -3.65 -8.0 L-3.4 -7.75 -3.95 -5.6 Q-5.5 -7.0 -5.65 -10.45 -6.15 -6.65 -5.0 -4.75 L-4.6 -4.2 -5.05 -3.45 -5.95 -2.55 -5.1 -2.9 Q-5.2 3.65 -3.35 6.35 -5.3 8.75 -5.8 11.85 -6.8 10.0 -6.15 8.35 L-5.35 6.95 M-3.2 -11.6 Q-2.95 -12.7 -3.7 -13.6 L-2.6 -14.25 Q-1.85 -12.85 -2.7 -11.65 L-3.2 -11.6 M-5.95 -2.55 L-6.25 -2.25 Q-7.05 -1.8 -7.35 -2.6 -7.05 -1.8 -6.25 -2.25 L-5.95 -2.55" fill="#42ac81" fill-rule="evenodd" stroke="none"/>
    <path d="M3.9 -9.45 L5.3 -8.85 6.5 -8.3 6.9 -8.05 8.25 -7.25 Q8.1 -3.45 6.95 -0.6 L6.95 -0.55 6.9 -0.5 Q6.05 2.05 2.7 -0.15 2.0 -0.6 1.4 -1.2 L1.0 -1.65 -0.2 -3.2 0.75 -3.6 Q3.25 -4.85 5.3 -8.85 1.8 -5.1 -0.95 -4.7 L-1.0 -4.8 -1.25 -7.05 -0.2 -7.2 Q2.2 -7.75 3.9 -9.45 M3.95 6.4 Q6.05 8.9 6.6 10.2 L7.3 11.7 3.3 12.55 3.2 12.25 Q6.8 9.95 3.95 6.4 M-7.2 10.8 L-6.15 8.35 Q-6.8 10.0 -5.8 11.85 L-7.2 10.8 M-2.6 -14.25 Q0.05 -15.55 2.95 -13.05 2.25 -12.35 2.45 -10.95 -0.45 -11.85 -2.7 -11.65 -1.85 -12.85 -2.6 -14.25 M-5.05 -3.45 L-5.1 -2.9 -5.95 -2.55 -5.05 -3.45" fill="#45916e" fill-rule="evenodd" stroke="none"/>
    <path d="M1.7 -10.4 L2.2 -10.2 2.45 -9.7 2.2 -9.2 2.1 -9.05 1.7 -8.95 1.35 -9.0 1.2 -9.1 1.0 -9.6 1.2 -10.15 1.7 -10.4 M-0.85 -10.25 Q-0.5 -9.95 -0.5 -9.45 L-0.6 -8.95 -0.85 -8.6 -1.25 -8.25 -1.7 -8.15 Q-2.2 -8.1 -2.55 -8.45 -2.9 -8.75 -2.9 -9.25 L-2.85 -9.45 -2.55 -10.1 Q-2.2 -10.45 -1.7 -10.5 -1.2 -10.55 -0.85 -10.25 M-3.5 -10.15 L-3.6 -10.2 -3.6 -10.45 -3.4 -10.7 -3.1 -10.95 -2.9 -10.85 -2.85 -10.65 -3.0 -10.35 -3.35 -10.15 -3.5 -10.15 M-1.0 -4.7 L-0.95 -4.7 Q-0.05 -4.45 -0.2 -3.2 -1.5 -2.85 -2.9 -3.2 -3.95 -3.5 -4.6 -4.2 L-5.0 -4.75 Q-6.15 -6.65 -5.65 -10.45 -5.5 -7.0 -3.95 -5.6 L-3.95 -5.55 -2.95 -4.9 -1.0 -4.7" fill="#8bd7fe" fill-rule="evenodd" stroke="none"/>
    <path d="M-0.95 -4.7 Q1.8 -5.1 5.3 -8.85 3.25 -4.85 0.75 -3.6 L-0.2 -3.2 Q-0.05 -4.45 -0.95 -4.7" fill="#24a1e0" fill-rule="evenodd" stroke="none"/>
    <path d="M-7.35 -2.6 L-8.15 -5.5 -8.25 -5.9" fill="none" stroke="#6b2c2c" stroke-linecap="round" stroke-linejoin="round" stroke-width="0.05"/>
    <path d="M7.3 11.7 Q7.95 13.25 7.6 14.6 -4.45 17.4 -8.0 13.5 -8.1 12.25 -7.2 10.8 L-5.8 11.85 Q-3.0 13.4 2.5 12.7 L3.3 12.55 3.2 12.25 M3.9 -9.45 Q2.2 -7.75 -0.2 -7.2 L-1.25 -7.05 Q-2.6 -7.0 -3.4 -7.75 L-3.65 -8.0 Q-4.45 -9.0 -4.45 -9.9 L-4.35 -10.6 -4.3 -10.6 -4.25 -10.6 M3.3 12.55 L7.3 11.7 M-2.7 -11.65 L-3.2 -11.6 M-2.7 -11.65 Q-0.45 -11.85 2.45 -10.95" fill="none" stroke="#000000" stroke-linecap="round" stroke-linejoin="round" stroke-width="0.05"/>
    <path d="M6.9 -0.5 Q5.7 3.35 3.65 6.05 L3.95 6.4 Q6.05 8.9 6.6 10.2 L7.3 11.7 M-0.2 -3.2 L1.0 -1.65 1.4 -1.2 Q2.0 -0.6 2.7 -0.15 6.05 2.05 6.9 -0.5 M-1.0 -4.7 L-0.95 -4.7" fill="none" stroke="#a0a0a0" stroke-linecap="round" stroke-linejoin="round" stroke-width="0.05"/>
    <path d="M1.0 -1.65 L1.0 -1.5 Q1.45 3.55 0.05 6.65 2.1 8.8 3.2 12.25 M-5.1 -2.9 L-5.05 -3.45 M-5.1 -2.9 Q-5.2 3.65 -3.35 6.35 -5.3 8.75 -5.8 11.85" fill="none" stroke="#999999" stroke-linecap="round" stroke-linejoin="round" stroke-width="0.05"/>
    <path d="M-2.75 -2.05 L-2.75 6.5 Q-3.05 10.45 -3.5 11.65" fill="none" stroke="#e0e0e0" stroke-linecap="round" stroke-linejoin="round" stroke-width="0.05"/>
    <path d="M5.3 -8.85 Q3.25 -4.85 0.75 -3.6 L-0.2 -3.2 Q-1.5 -2.85 -2.9 -3.2 -3.95 -3.5 -4.6 -4.2 L-5.0 -4.75 Q-6.15 -6.65 -5.65 -10.45" fill="none" stroke="#029ad2" stroke-linecap="round" stroke-linejoin="round" stroke-width="0.05"/>
    <path d="M3.9 -9.45 L5.3 -8.85 6.5 -8.3 6.9 -8.05 8.25 -7.25 M-7.2 10.8 L-6.15 8.35 -5.35 6.95 -4.6 5.9 Q-6.1 3.05 -6.45 1.55 L-7.35 -2.6 Q-7.05 -1.8 -6.25 -2.25 L-5.95 -2.55 M-8.25 -5.9 Q-9.05 -9.3 -8.3 -9.9 L-8.0 -10.05 -7.9 -10.1 -5.65 -10.55 -5.35 -10.6 -4.35 -10.6 M-4.25 -10.6 Q-3.35 -10.9 -3.2 -11.6 -2.95 -12.7 -3.7 -13.6 L-2.6 -14.25 Q0.05 -15.55 2.95 -13.05 2.25 -12.35 2.45 -10.95 3.0 -9.65 3.9 -9.45" fill="none" stroke="#666666" stroke-linecap="round" stroke-linejoin="round" stroke-width="0.05"/>
  </g>
</svg>
