<?xml version="1.0" encoding="UTF-8" standalone="no"?>
<svg xmlns:xlink="http://www.w3.org/1999/xlink" height="13.45px" width="11.95px" xmlns="http://www.w3.org/2000/svg">
  <g transform="matrix(1.0, 0.0, 0.0, 1.0, 6.0, 5.65)">
    <path d="M-1.35 -5.55 L0.05 -5.65 0.8 -5.65 Q2.8 -5.5 4.25 -4.55 L5.6 -3.3 4.2 -3.3 5.6 -3.3 5.85 -2.25 5.85 -2.0 5.95 -0.55 5.9 0.4 5.9 0.6 5.85 1.1 5.9 2.1 5.9 2.25 5.95 3.05 5.4 4.95 Q4.75 6.5 3.7 7.4 L3.25 7.7 Q3.0 7.35 3.1 5.75 L3.15 5.0 3.05 4.1 Q3.05 3.05 2.4 2.7 L2.4 2.45 Q2.35 2.4 2.25 2.55 L2.2 2.6 2.0 3.05 1.45 2.5 1.6 2.25 Q1.95 1.65 2.5 1.65 L2.75 1.7 2.8 1.7 Q1.15 0.75 1.9 -3.2 L1.9 -3.3 Q2.55 -5.35 -0.05 -5.5 L-1.35 -5.55 M3.15 1.9 L2.8 1.7 3.15 1.9 3.4 2.15 3.45 2.0 3.15 1.9" fill="#a56c5f" fill-rule="evenodd" stroke="none"/>
    <path d="M3.25 7.7 Q2.35 8.05 1.55 7.15 -4.15 6.1 -5.55 2.3 L-6.0 -0.55 -6.0 -1.0 -5.85 -2.2 -5.55 -3.3 -4.2 -4.55 Q-3.2 -5.2 -1.95 -5.45 L-1.35 -5.55 -0.05 -5.5 Q2.55 -5.35 1.9 -3.3 L1.9 -3.2 Q1.15 0.75 2.8 1.7 L2.75 1.7 2.5 1.65 Q1.95 1.65 1.6 2.25 L1.45 2.5 2.0 3.05 2.2 2.6 2.25 2.55 Q2.35 2.4 2.4 2.45 L2.4 2.7 2.2 2.6 2.4 2.7 Q3.05 3.05 3.05 4.1 L3.15 5.0 3.1 5.75 Q2.3 6.3 1.8 5.5 1.25 4.6 1.25 3.7 1.2 3.0 1.45 2.5 1.2 3.0 1.25 3.7 1.25 4.6 1.8 5.5 2.3 6.3 3.1 5.75 3.0 7.35 3.25 7.7 M3.15 1.9 L3.45 2.0 3.4 2.15 3.15 1.9 M2.05 5.05 L2.55 5.15 Q2.15 4.65 3.05 4.1 2.15 4.65 2.55 5.15 L2.05 5.05 M2.05 3.95 L2.0 3.05 2.05 3.95" fill="#784d43" fill-rule="evenodd" stroke="none"/>
    <path d="M-1.35 -5.55 L0.05 -5.65 0.8 -5.65 Q2.8 -5.5 4.25 -4.55 L5.6 -3.3 5.85 -2.25 5.85 -2.0 5.95 -0.55 5.9 0.4 5.9 0.6 5.85 1.1 5.9 2.1 5.9 2.25 5.95 3.05 5.4 4.95 Q4.75 6.5 3.7 7.4 L3.25 7.7 Q2.35 8.05 1.55 7.15 -4.15 6.1 -5.55 2.3 L-6.0 -0.55 -6.0 -1.0 -5.85 -2.2 -5.55 -3.3 -4.2 -4.55 Q-3.2 -5.2 -1.95 -5.45 L-1.35 -5.55 M2.8 1.7 L3.15 1.9 3.4 2.15 M1.45 2.5 L1.6 2.25 Q1.95 1.65 2.5 1.65 L2.75 1.7 2.8 1.7 M1.45 2.5 Q1.2 3.0 1.25 3.7 1.25 4.6 1.8 5.5 2.3 6.3 3.1 5.75 M3.15 5.0 L3.05 4.1 Q2.15 4.65 2.55 5.15 L2.05 5.05 M2.2 2.6 L2.4 2.7 Q3.05 3.05 3.05 4.1 M2.4 2.45 Q2.35 2.4 2.25 2.55 L2.2 2.6 2.0 3.05 2.05 3.95" fill="none" stroke="#68413c" stroke-linecap="round" stroke-linejoin="round" stroke-width="0.05"/>
  </g>
</svg>
