<?xml version="1.0" encoding="UTF-8" standalone="no"?>
<svg xmlns:xlink="http://www.w3.org/1999/xlink" height="22.1px" width="17.5px" xmlns="http://www.w3.org/2000/svg">
  <g transform="matrix(1.0, 0.0, 0.0, 1.0, 6.05, 8.5)">
    <path d="M11.45 -4.15 L10.5 -3.3 Q9.2 -2.3 7.7 -2.3 L7.35 -0.9 Q8.65 0.2 8.4 1.95 L7.95 1.2 7.95 1.55 6.8 5.75 6.7 6.15 6.65 6.35 6.55 6.6 Q5.6 9.95 5.05 10.8 L5.25 6.6 5.25 6.35 5.25 6.15 5.25 5.9 5.1 3.65 4.5 3.45 Q3.95 3.3 3.55 4.1 3.15 4.85 3.35 5.8 3.5 6.75 3.3 6.95 L2.15 7.45 Q-0.6 8.5 -1.8 7.4 L-1.85 7.35 -2.1 7.05 -2.2 7.0 -2.95 5.95 -2.85 6.6 Q-4.85 4.75 -6.05 1.25 -6.25 -0.25 -4.05 -2.95 -4.45 -3.85 -5.25 -3.95 -4.25 -4.75 -2.85 -4.45 -2.6 -5.35 -4.7 -5.75 -4.3 -6.25 -2.95 -6.55 -2.25 -6.4 -0.85 -5.4 -0.25 -5.5 -0.1 -5.65 L-0.1 -5.6 0.0 -5.8 Q0.2 -6.15 1.15 -6.65 L2.25 -7.25 Q3.3 -7.9 4.4 -8.2 L3.55 -7.4 Q2.25 -6.0 1.85 -4.45 L1.85 -4.4 4.55 -3.5 5.85 -3.2 Q8.4 -2.85 10.6 -3.75 L11.45 -4.15" fill="#413445" fill-rule="evenodd" stroke="none"/>
    <path d="M4.4 -8.2 L7.2 -8.45 Q6.35 -8.0 5.85 -7.55 4.95 -6.85 4.95 -6.2 L6.25 -5.35 6.5 -5.2 Q8.1 -4.1 10.65 -4.15 L11.45 -4.15 10.6 -3.75 Q8.4 -2.85 5.85 -3.2 L4.55 -3.5 1.85 -4.4 1.85 -4.45 Q2.25 -6.0 3.55 -7.4 L4.4 -8.2 M7.7 -2.3 Q9.6 -0.25 9.4 2.85 L9.05 5.15 9.0 5.05 Q9.05 3.2 8.4 1.95 8.65 0.2 7.35 -0.9 L7.7 -2.3 M7.95 1.55 L7.5 5.7 7.4 6.15 7.35 6.35 7.3 6.6 Q6.45 10.15 4.45 13.6 L5.05 10.8 Q5.6 9.95 6.55 6.6 L6.65 6.35 6.7 6.15 6.8 5.75 7.95 1.55 M-1.8 7.4 L-2.2 7.0 -2.1 7.05 -1.85 7.35 -1.8 7.4 M-2.95 -6.55 Q-1.15 -6.7 -0.1 -5.65 -0.25 -5.5 -0.85 -5.4 -2.25 -6.4 -2.95 -6.55" fill="#68536f" fill-rule="evenodd" stroke="none"/>
  </g>
</svg>
