<?xml version="1.0" encoding="UTF-8" standalone="no"?>
<svg xmlns:xlink="http://www.w3.org/1999/xlink" height="34.5px" width="41.55px" xmlns="http://www.w3.org/2000/svg">
  <g transform="matrix(1.0, 0.0, 0.0, 1.0, 31.25, 11.95)">
    <path d="M0.2 -5.8 L0.15 -5.9 0.45 -5.95 0.2 -5.8 M-1.45 0.4 L-1.4 0.35 -1.6 0.95 -1.45 0.4 M2.35 3.9 L2.4 3.9 2.4 3.95 2.35 3.9" fill="#68536f" fill-rule="evenodd" stroke="none"/>
    <path d="M0.15 -5.6 L-0.45 -5.35 0.1 -5.7 0.15 -5.6" fill="#433748" fill-rule="evenodd" stroke="none"/>
    <path d="M0.15 -5.9 L0.2 -5.8 0.1 -5.7 -0.45 -5.35 0.15 -5.6 2.65 -5.85 Q1.65 -5.5 2.25 -5.2 L5.6 -4.4 6.3 -4.45 6.3 -4.5 6.4 -4.45 6.55 -4.4 6.55 -4.3 6.7 -4.35 7.05 -4.45 7.5 -4.55 7.95 -4.6 8.15 -4.6 8.2 -4.6 8.7 -4.2 9.1 -3.75 9.05 -3.6 9.2 -3.3 9.45 -2.8 9.85 -0.85 9.65 -0.3 9.2 -1.25 8.75 -1.85 Q8.35 -2.3 7.95 -2.05 8.2 -0.75 7.95 0.4 L7.55 -0.6 6.65 -1.65 6.55 -2.2 6.4 -2.3 Q5.35 -0.25 4.65 2.5 3.3 0.3 3.2 -1.45 L2.9 -0.85 Q2.5 0.2 2.55 1.6 L2.4 3.9 2.35 3.9 2.35 3.85 Q-1.7 2.15 -1.4 0.35 L-1.45 0.4 Q-1.45 -0.35 -2.05 -1.45 -3.15 -3.5 -3.0 -3.85 L-2.45 -4.45 -2.4 -4.55 Q-1.45 -5.5 -0.45 -5.8 L0.15 -5.9" fill="#ab7872" fill-rule="evenodd" stroke="none"/>
    <path d="M-5.1 0.7 L-4.75 -2.7 -4.7 -2.75 -4.45 -3.45 Q-3.75 -4.85 -2.6 -5.6 -1.7 -6.2 -0.45 -6.45 L0.15 -6.6 2.45 -6.65 4.35 -5.95 Q6.05 -5.3 7.1 -5.2 L8.5 -4.9 Q8.85 -4.75 9.2 -4.4 L9.35 -4.2 Q10.45 -2.8 10.3 -0.3 10.05 3.25 9.45 4.55 9.9 0.9 8.95 -0.45 9.3 3.5 8.15 4.75 8.1 2.45 7.15 0.35 L6.85 2.45 6.9 5.35 Q6.6 9.0 6.1 10.5 L5.3 4.55 Q4.85 2.7 3.75 3.95 3.35 4.9 3.5 5.9 L3.55 7.1 2.9 7.15 2.7 7.1 2.6 7.1 2.7 7.15 Q-0.15 10.1 -2.1 6.45 -5.4 3.95 -5.1 0.7 M0.15 -5.9 L-0.45 -5.8 Q-1.45 -5.5 -2.4 -4.55 L-2.45 -4.45 -3.0 -3.85 Q-3.15 -3.5 -2.05 -1.45 -1.45 -0.35 -1.45 0.4 L-1.6 0.95 -1.4 0.35 Q-1.7 2.15 2.35 3.85 L2.35 3.9 2.4 3.95 2.4 3.9 2.55 1.6 Q2.5 0.2 2.9 -0.85 L3.2 -1.45 Q3.3 0.3 4.65 2.5 5.35 -0.25 6.4 -2.3 L6.55 -2.2 6.65 -1.65 7.55 -0.6 7.95 0.4 Q8.2 -0.75 7.95 -2.05 8.35 -2.3 8.75 -1.85 L9.2 -1.25 9.65 -0.3 9.85 -0.85 9.45 -2.8 9.2 -3.3 9.05 -3.6 9.1 -3.75 8.7 -4.2 8.2 -4.6 8.15 -4.6 7.95 -4.6 7.5 -4.55 7.05 -4.45 6.7 -4.35 6.55 -4.3 6.55 -4.4 6.4 -4.45 6.3 -4.5 6.3 -4.45 5.6 -4.4 2.25 -5.2 Q1.65 -5.5 2.65 -5.85 L0.15 -5.6 0.1 -5.7 0.2 -5.8 0.45 -5.95 0.15 -5.9" fill="#86554f" fill-rule="evenodd" stroke="none"/>
    <path d="M-2.1 6.45 Q-5.4 3.95 -5.1 0.7" fill="none" stroke="#68536f" stroke-linecap="round" stroke-linejoin="round" stroke-width="0.05"/>
    <path d="M-5.85 -3.1 Q-5.45 -3.1 -5.2 -2.65 -5.0 -2.15 -4.95 -1.45 -5.0 -0.75 -5.2 -0.3 L-5.7 0.2 -6.0 0.2 -6.45 -0.3 -6.7 -1.45 -6.45 -2.65 -5.85 -3.1" fill="#67258f" fill-rule="evenodd" stroke="none"/>
    <path d="M-6.0 0.2 L-5.7 0.2 -5.2 -0.3 Q-5.0 -0.75 -4.95 -1.45 -5.0 -2.15 -5.2 -2.65 -5.45 -3.1 -5.85 -3.1 L-3.85 -3.1 Q-3.5 -3.1 -3.25 -2.65 -3.0 -2.15 -3.0 -1.45 -3.0 -0.75 -3.25 -0.3 L-3.85 0.2 -4.65 0.2 -5.7 0.2 -5.85 0.2 -6.0 0.2" fill="#9933cc" fill-rule="evenodd" stroke="none"/>
    <path d="M-16.05 -8.8 Q-18.15 -10.7 -20.95 -11.55 -14.65 -10.4 -13.25 -8.45 L-16.05 -8.8 M-5.35 -1.95 Q-8.1 10.65 -13.1 17.1 L-13.1 11.85 Q-15.2 15.55 -16.65 17.55 L-16.7 17.55 -16.7 17.65 -18.5 20.95 -19.15 22.55 -19.2 20.95 Q-19.2 14.1 -15.75 8.7 L-15.6 8.5 Q-18.85 9.4 -21.3 11.6 L-21.5 11.8 Q-23.75 13.8 -25.35 16.85 -24.4 8.75 -22.05 5.45 -23.25 5.6 -24.85 6.4 -21.7 1.35 -16.0 0.0 -20.05 4.35 -21.0 9.15 -18.3 5.9 -11.3 2.35 -10.85 1.7 -5.35 -1.95 M-25.55 6.8 L-26.1 7.1 Q-28.35 8.45 -31.25 10.95 -27.95 -1.4 -19.9 -3.7 -22.85 -5.45 -28.8 -5.2 -21.85 -7.5 -17.1 -4.2 -25.05 -1.25 -25.55 6.8" fill="#86554f" fill-rule="evenodd" stroke="none"/>
    <path d="M-28.8 -5.2 Q-26.15 -7.25 -22.85 -8.1 -19.75 -9.0 -16.05 -8.8 L-13.25 -8.45 Q-14.65 -10.4 -20.95 -11.55 L-20.95 -11.65 Q-13.9 -13.65 -5.35 -1.95 -10.85 1.7 -11.3 2.35 -18.3 5.9 -21.0 9.15 -20.05 4.35 -16.0 0.0 -21.7 1.35 -24.85 6.4 L-25.55 6.8 Q-25.05 -1.25 -17.1 -4.2 -21.85 -7.5 -28.8 -5.2" fill="#ab7872" fill-rule="evenodd" stroke="none"/>
    <path d="M3.75 -5.95 L6.85 -5.8 Q8.45 -3.35 4.95 0.8 L4.85 0.95 Q4.0 1.75 4.35 0.9 L4.45 0.75 Q6.75 -3.5 3.75 -5.95" fill="#9933cc" fill-rule="evenodd" stroke="none"/>
  </g>
</svg>
