<?xml version="1.0" encoding="UTF-8" standalone="no"?>
<svg xmlns:xlink="http://www.w3.org/1999/xlink" height="13.85px" width="20.65px" xmlns="http://www.w3.org/2000/svg">
  <g transform="matrix(1.0, 0.0, 0.0, 1.0, 8.6, 5.5)">
    <path d="M5.55 3.7 L5.4 3.95 5.45 4.05 5.05 3.85 Q3.85 3.35 3.5 4.55 L3.5 4.6 Q2.85 6.4 4.2 7.75 2.25 8.75 0.05 8.1 L-3.2 7.0 -4.8 6.2 Q-5.35 5.85 -5.5 5.8 -3.85 5.85 -3.4 5.3 L-3.3 5.1 -3.4 5.15 Q-5.8 5.35 -7.1 3.65 -4.45 3.5 -4.5 2.4 -7.35 1.9 -8.6 -0.4 -5.25 -0.55 -4.5 -1.95 L-4.55 -1.95 -4.1 -2.45 -3.4 -3.05 -0.7 -4.5 Q1.6 -5.55 3.35 -5.15 L5.9 -4.4 6.8 -3.3 Q8.05 -1.0 5.4 3.25 L5.05 3.85 5.35 3.65 5.5 3.45 5.55 3.7" fill="#e29299" fill-rule="evenodd" stroke="none"/>
    <path d="M8.7 -3.7 Q10.2 -2.55 11.1 -0.4 L11.5 0.8 11.6 1.15 12.05 3.35 11.25 1.95 9.6 -0.35 9.55 -0.05 Q9.9 2.55 8.75 4.15 8.95 2.15 7.85 0.35 7.95 3.7 5.8 7.35 5.9 4.95 5.55 3.7 L5.5 3.45 Q9.15 -1.15 8.7 -3.7" fill="#f4d9de" fill-rule="evenodd" stroke="none"/>
    <path d="M5.9 -4.4 L5.4 -4.8 Q6.5 -5.7 7.25 -5.4 L8.0 -5.05 8.7 -3.7 Q9.15 -1.15 5.5 3.45 L5.35 3.65 5.05 3.85 5.4 3.25 Q8.05 -1.0 6.8 -3.3 L5.9 -4.4" fill="#792b2b" fill-rule="evenodd" stroke="none"/>
    <path d="M8.7 -3.7 Q10.2 -2.55 11.1 -0.4 L11.5 0.8 11.6 1.15 12.05 3.35 M9.6 -0.35 L9.55 -0.05 Q9.9 2.55 8.75 4.15 M7.85 0.35 Q7.95 3.7 5.8 7.35" fill="none" stroke="#d35a6d" stroke-linecap="round" stroke-linejoin="round" stroke-width="0.05"/>
  </g>
</svg>
