<?xml version="1.0" encoding="UTF-8" standalone="no"?>
<svg xmlns:xlink="http://www.w3.org/1999/xlink" height="31.9px" width="26.3px" xmlns="http://www.w3.org/2000/svg">
  <g transform="matrix(1.0, 0.0, 0.0, 1.0, 16.95, 10.95)">
    <path d="M5.6 4.25 Q5.25 3.15 3.95 3.6 2.9 4.75 3.35 6.1 3.8 7.4 4.2 7.7 L1.85 8.5 -0.4 7.8 Q-5.65 5.6 -4.1 -1.75 1.8 -7.6 7.8 -2.05 L8.35 -1.1 8.55 -0.8 8.65 -0.6 Q9.25 1.15 9.35 3.05 L9.35 4.75 9.3 4.75 9.25 4.7 9.0 3.6 8.9 3.25 8.35 1.85 7.85 0.95 7.85 0.9 Q8.35 2.85 7.85 4.35 L7.25 1.9 7.2 1.75 7.25 3.1 7.25 3.7 7.25 4.25 6.7 9.25 6.35 10.9 6.3 9.25 Q6.15 6.5 5.6 4.25 L4.45 1.0 5.6 4.25" fill="#ffffcc" fill-rule="evenodd" stroke="none"/>
    <path d="M9.35 4.75 L9.35 3.05 Q9.25 1.15 8.65 -0.6 L8.55 -0.8 8.35 -1.1 7.8 -2.05 Q1.8 -7.6 -4.1 -1.75 -5.65 5.6 -0.4 7.8 L1.85 8.5 4.2 7.7 Q3.8 7.4 3.35 6.1 2.9 4.75 3.95 3.6 5.25 3.15 5.6 4.25 L4.45 1.0 M5.6 4.25 Q6.15 6.5 6.3 9.25 L6.35 10.9 6.7 9.25 7.25 4.25 7.25 3.7 7.25 3.1 7.2 1.75 7.25 1.9 7.85 4.35 Q8.35 2.85 7.85 0.9 L7.85 0.95 8.35 1.85 8.9 3.25 9.0 3.6 9.25 4.7 9.3 4.75 9.3 5.0 9.35 4.75 Z" fill="none" stroke="#ffcc66" stroke-linecap="round" stroke-linejoin="round" stroke-width="0.05"/>
    <path d="M-3.7 -0.05 L-2.35 0.75 -2.3 0.7 Q-0.8 -0.1 -1.2 -2.25 L-2.25 -2.85 -3.65 -3.65 -4.55 -4.2 Q-4.75 -3.2 -5.2 -2.45 L-6.0 -1.45 -5.1 -0.85 -3.7 -0.05 M-2.45 -1.35 L-2.9 -0.85 -3.6 -0.7 -4.0 -1.1 -4.05 -1.15 -4.1 -1.4 -4.1 -1.7 -4.05 -1.75 -3.65 -2.3 -3.55 -2.3 -3.1 -2.45 -2.9 -2.45 -2.7 -2.35 -2.45 -2.05 Q-2.25 -1.7 -2.45 -1.35" fill="#7d768d" fill-rule="evenodd" stroke="none"/>
    <path d="M-2.25 -2.85 L-2.25 -3.5 -2.55 -3.8 -2.7 -3.95 -2.95 -3.95 -3.0 -3.95 -3.4 -3.85 -3.65 -3.65 -2.25 -2.85 M-5.1 -0.85 L-5.2 -0.7 -5.25 -0.6 -5.25 -0.4 -5.2 -0.25 -5.2 -0.05 -4.7 0.35 -4.05 0.25 -3.7 -0.05 -5.1 -0.85 M-2.45 -1.35 Q-2.25 -1.7 -2.45 -2.05 L-2.7 -2.35 -2.9 -2.45 -3.1 -2.45 -3.55 -2.3 -3.65 -2.3 -4.05 -1.75 -4.1 -1.7 -4.1 -1.4 -4.05 -1.15 -4.0 -1.1 -3.6 -0.7 -2.9 -0.85 -2.45 -1.35" fill="#f0b3c6" fill-rule="evenodd" stroke="none"/>
    <path d="M-7.9 -10.85 Q-16.75 -12.1 -16.95 1.25 -16.35 -1.9 -14.6 -2.95 -11.8 0.4 -14.6 4.9 -17.65 14.85 -13.15 18.85 -14.7 12.05 -11.75 7.35 -11.95 11.8 -10.4 15.25 -9.15 17.9 -9.45 20.95 -7.55 17.5 -8.2 13.2 L-8.2 13.0 Q-9.6 8.35 -7.4 2.4 L-6.8 1.2 Q-4.0 -2.45 -4.2 -6.9 L-4.7 -8.75 Q-5.2 -10.15 -7.9 -10.85" fill="#ffffcc" fill-rule="evenodd" stroke="none"/>
    <path d="M-7.9 -10.85 Q-16.75 -12.1 -16.95 1.25 -16.35 -1.9 -14.6 -2.95 -11.8 0.4 -14.6 4.9 -17.65 14.85 -13.15 18.85 -14.7 12.05 -11.75 7.35 -11.95 11.8 -10.4 15.25 -9.15 17.9 -9.45 20.95 -7.55 17.5 -8.2 13.2 L-8.2 13.0 Q-9.6 8.35 -7.4 2.4 L-6.8 1.2 Q-4.0 -2.45 -4.2 -6.9 L-4.7 -8.75 Q-5.2 -10.15 -7.9 -10.85 Z" fill="none" stroke="#ffcc66" stroke-linecap="round" stroke-linejoin="round" stroke-width="0.05"/>
  </g>
</svg>
