<?xml version="1.0" encoding="UTF-8" standalone="no"?>
<svg xmlns:xlink="http://www.w3.org/1999/xlink" height="15.95px" width="11.4px" xmlns="http://www.w3.org/2000/svg">
  <g transform="matrix(1.0, 0.0, 0.0, 1.0, 5.7, 8.0)">
    <path d="M-4.85 1.0 L-4.85 0.95 -4.85 1.0" fill="#ffdfc8" fill-rule="evenodd" stroke="none"/>
    <path d="M4.7 2.75 L4.65 3.15 4.0 4.75 4.6 3.15 4.7 2.75 M4.9 0.85 L4.95 0.85 4.9 0.85" fill="#f5dfc5" fill-rule="evenodd" stroke="none"/>
    <path d="M-5.15 -0.2 L-5.05 -1.25 Q-5.0 -2.0 -3.65 -3.35 -2.35 -4.75 -0.1 -4.6 2.15 -4.45 3.55 -3.15 5.0 -1.85 5.0 0.0 L5.0 0.45 4.9 0.85 4.9 1.0 4.8 1.35 4.8 1.5 4.65 2.55 4.7 2.75 4.65 2.55 4.8 1.5 4.8 1.35 4.9 1.0 4.9 0.85 4.95 0.85 5.5 1.0 Q5.3 2.9 4.7 2.75 L4.6 3.15 4.0 4.75 Q2.65 6.9 0.55 7.8 L-0.35 7.85 Q-2.4 6.85 -3.75 4.95 L-3.9 4.7 -4.55 3.0 -4.55 2.9 -4.6 2.7 Q-5.25 2.85 -5.4 1.2 L-4.85 1.0 -4.85 0.95 -5.15 -0.2 M-4.85 0.95 Q-4.85 0.75 -4.8 0.95 L-4.7 1.25 -4.7 1.4 -4.65 1.65 Q-4.4 2.75 -4.6 2.7 -4.4 2.75 -4.65 1.65 L-4.7 1.4 -4.7 1.25 -4.8 0.95 Q-4.85 0.75 -4.85 0.95" fill="#784d43" fill-rule="evenodd" stroke="none"/>
    <path d="M-5.35 -0.7 L-5.45 -1.9 Q-5.45 -4.5 -3.65 -6.35 -2.1 -7.9 0.05 -8.0 2.1 -7.9 3.65 -6.35 5.5 -4.5 5.5 -1.9 L5.4 -0.7 5.2 -0.25 5.0 0.45 5.2 -0.25 5.4 -0.7 Q5.95 -0.85 5.5 0.8 L5.5 1.0 4.95 0.85 4.9 0.85 5.0 0.45 5.0 0.0 Q5.0 -1.85 3.55 -3.15 2.15 -4.45 -0.1 -4.6 -2.35 -4.75 -3.65 -3.35 -5.0 -2.0 -5.05 -1.25 L-5.15 -0.2 -5.35 -0.7 -5.15 -0.2 -4.85 0.95 -4.85 1.0 -5.4 1.2 -5.45 0.8 Q-5.95 -0.85 -5.35 -0.7" fill="#a56c5f" fill-rule="evenodd" stroke="none"/>
    <path d="M5.4 -0.7 L5.5 -1.9 Q5.5 -4.5 3.65 -6.35 2.1 -7.9 0.05 -8.0 -2.1 -7.9 -3.65 -6.35 -5.45 -4.5 -5.45 -1.9 L-5.35 -0.7 -5.15 -0.2 -4.85 0.95 -4.85 1.0 M5.0 0.45 L5.2 -0.25 5.4 -0.7 Q5.95 -0.85 5.5 0.8 L5.5 1.0 Q5.3 2.9 4.7 2.75 L4.6 3.15 4.0 4.75 Q2.65 6.9 0.55 7.8 L-0.35 7.85 Q-2.4 6.85 -3.75 4.95 L-3.9 4.7 -4.55 3.0 -4.55 2.9 -4.6 2.7 Q-5.25 2.85 -5.4 1.2 L-5.45 0.8 Q-5.95 -0.85 -5.35 -0.7 M4.9 0.85 L4.9 1.0 4.8 1.35 4.8 1.5 4.65 2.55 4.7 2.75 M5.0 0.45 L4.9 0.85 M-4.6 2.7 Q-4.4 2.75 -4.65 1.65 L-4.7 1.4 -4.7 1.25 -4.8 0.95 Q-4.85 0.75 -4.85 0.95" fill="none" stroke="#68413c" stroke-linecap="round" stroke-linejoin="round" stroke-width="0.05"/>
  </g>
</svg>
