<?xml version="1.0" encoding="UTF-8" standalone="no"?>
<svg xmlns:xlink="http://www.w3.org/1999/xlink" height="16.4px" width="17.5px" xmlns="http://www.w3.org/2000/svg">
  <g transform="matrix(1.0, 0.0, 0.0, 1.0, 6.75, 8.5)">
    <path d="M5.1 -6.55 Q6.45 -6.25 6.85 -5.75 L5.55 -5.35 Q4.85 -5.0 5.05 -4.45 6.4 -4.75 7.4 -3.95 6.65 -3.85 6.3 -3.1 8.2 -3.05 9.9 -3.75 L10.75 -4.15 9.8 -3.3 Q8.5 -2.3 7.0 -2.3 L6.95 -2.0 Q8.35 0.0 8.2 1.25 L7.85 2.2 7.1 3.85 7.1 3.95 Q6.2 5.75 3.55 7.6 L-2.35 7.45 Q-5.55 4.65 -6.75 1.25 -6.95 -0.25 -4.75 -2.95 -5.15 -3.85 -5.95 -3.95 -4.95 -4.75 -3.55 -4.45 -3.3 -5.35 -5.4 -5.75 -5.0 -6.25 -3.65 -6.55 -2.95 -6.4 -1.55 -5.4 L-0.8 -5.65 -0.8 -5.6 -0.7 -5.8 -0.65 -5.85 -0.6 -5.95 -0.55 -6.0 0.45 -6.65 1.55 -7.25 Q2.6 -7.9 3.7 -8.2 L2.85 -7.4 Q1.55 -6.0 1.15 -4.45 L1.15 -4.4 Q2.5 -6.15 5.0 -6.45 L5.1 -6.55" fill="#413445" fill-rule="evenodd" stroke="none"/>
    <path d="M3.7 -8.2 L6.5 -8.45 Q5.65 -8.0 5.15 -7.55 L4.3 -6.55 5.1 -6.55 5.0 -6.45 Q2.5 -6.15 1.15 -4.4 L1.15 -4.45 Q1.55 -6.0 2.85 -7.4 L3.7 -8.2 M5.55 -5.35 L5.8 -5.2 Q7.4 -4.1 9.95 -4.15 L10.75 -4.15 9.9 -3.75 Q8.2 -3.05 6.3 -3.1 6.65 -3.85 7.4 -3.95 6.4 -4.75 5.05 -4.45 4.85 -5.0 5.55 -5.35 M7.0 -2.3 Q8.9 -0.25 8.7 2.85 L8.35 5.15 8.3 5.05 Q8.35 3.4 7.85 2.2 L8.2 1.25 Q8.35 0.0 6.95 -2.0 L7.0 -2.3 M-3.65 -6.55 Q-1.85 -6.7 -0.8 -5.65 L-1.55 -5.4 Q-2.95 -6.4 -3.65 -6.55" fill="#68536f" fill-rule="evenodd" stroke="none"/>
  </g>
</svg>
