<?xml version="1.0" encoding="UTF-8" standalone="no"?>
<svg xmlns:xlink="http://www.w3.org/1999/xlink" height="31.1px" width="29.8px" xmlns="http://www.w3.org/2000/svg">
  <g transform="matrix(1.0, 0.0, 0.0, 1.0, 12.05, 6.5)">
    <path d="M1.0 -5.7 L0.95 -5.6 0.75 -5.75 1.0 -5.7" fill="#68536f" fill-rule="evenodd" stroke="none"/>
    <path d="M-1.6 1.15 L-1.55 1.2 -1.6 1.15 M-4.7 -2.55 L-4.75 -2.5 -4.7 -2.55" fill="#433748" fill-rule="evenodd" stroke="none"/>
    <path d="M5.9 -2.5 L5.7 -2.65 5.6 -2.8 Q3.75 -4.95 1.85 -5.6 L1.65 -5.65 0.75 -5.85 -0.6 -5.85 -0.65 -5.9 -0.75 -5.85 Q-2.65 -5.35 -4.45 -3.15 L-4.5 -3.05 -4.7 -2.55 Q-5.1 -2.5 -4.75 -3.3 L-3.7 -4.7 Q-2.75 -6.05 -1.3 -6.5 L2.1 -6.5 Q3.8 -5.95 5.0 -4.25 L6.15 -2.25 Q6.1 -1.9 5.9 -2.5" fill="#9933cc" fill-rule="evenodd" stroke="none"/>
    <path d="M-1.6 1.15 L-1.55 3.75 Q-0.85 5.0 0.35 5.4 1.55 5.75 2.95 3.7 2.7 1.4 2.8 0.7 L3.45 -1.2 Q4.3 -3.3 4.15 -3.65 L3.65 -4.25 3.55 -4.35 Q2.7 -5.15 1.85 -5.5 L1.6 -5.6 1.2 -5.65 1.0 -5.7 0.75 -5.75 0.95 -5.6 1.6 -5.15 1.0 -5.4 0.6 -5.55 0.25 -5.6 -0.05 -5.65 -0.6 -5.7 -0.65 -5.7 -0.65 -5.5 -2.4 -4.35 -2.45 -4.25 -3.0 -3.65 Q-3.15 -3.3 -2.45 -1.9 -1.8 -0.55 -1.6 1.15 M-4.7 -2.55 L-4.5 -3.05 -4.45 -3.15 Q-2.65 -5.35 -0.75 -5.85 L-0.65 -5.9 -0.6 -5.85 0.75 -5.85 1.65 -5.65 1.85 -5.6 Q3.75 -4.95 5.6 -2.8 L5.7 -2.65 5.9 -2.5 6.25 0.9 Q6.55 4.15 3.25 6.65 2.05 8.85 0.6 8.65 -0.9 8.85 -2.1 6.65 -5.4 4.15 -5.1 0.9 L-4.75 -2.5 -4.7 -2.55" fill="#86554f" fill-rule="evenodd" stroke="none"/>
    <path d="M1.0 -5.7 L1.2 -5.65 1.6 -5.6 1.85 -5.5 Q2.7 -5.15 3.55 -4.35 L3.65 -4.25 4.15 -3.65 Q4.3 -3.3 3.45 -1.2 L2.8 0.7 Q2.7 1.4 2.95 3.7 1.55 5.75 0.35 5.4 -0.85 5.0 -1.55 3.75 L-1.6 1.15 Q-1.8 -0.55 -2.45 -1.9 -3.15 -3.3 -3.0 -3.65 L-2.45 -4.25 -2.4 -4.35 -0.65 -5.5 -0.65 -5.7 -0.6 -5.7 -0.05 -5.65 0.25 -5.6 0.6 -5.55 1.0 -5.4 1.6 -5.15 0.95 -5.6 1.0 -5.7 M-1.6 1.15 L-1.55 1.2 -1.6 1.15" fill="#ab7872" fill-rule="evenodd" stroke="none"/>
    <path d="M-5.1 0.9 Q-5.4 4.15 -2.1 6.65 M3.25 6.65 Q6.55 4.15 6.25 0.9" fill="none" stroke="#68536f" stroke-linecap="round" stroke-linejoin="round" stroke-width="0.05"/>
    <path d="M2.3 -3.3 Q2.3 -2.9 1.85 -2.65 L0.65 -2.4 -0.5 -2.65 -1.0 -3.15 -1.0 -3.45 -0.5 -3.9 0.65 -4.15 1.85 -3.9 2.3 -3.3" fill="#67258f" fill-rule="evenodd" stroke="none"/>
    <path d="M-1.0 -3.45 L-1.0 -3.15 -0.5 -2.65 0.65 -2.4 1.85 -2.65 Q2.3 -2.9 2.3 -3.3 L2.3 -1.3 Q2.3 -0.95 1.85 -0.7 L0.65 -0.45 -0.5 -0.7 Q-1.0 -0.95 -1.0 -1.3 L-1.0 -2.1 -1.0 -3.15 -1.0 -3.3 -1.0 -3.45" fill="#9933cc" fill-rule="evenodd" stroke="none"/>
    <path d="M0.75 -3.8 Q2.3 2.4 2.7 2.9 3.8 10.55 5.75 13.8 1.95 12.2 -0.65 7.5 -1.1 13.5 2.35 17.45 L2.45 18.2 Q-4.25 16.7 -4.55 8.1 -8.7 12.6 -8.7 20.1 -9.7 17.1 -9.5 13.6 -9.4 10.25 -8.2 6.5 L-8.2 6.45 Q-7.95 5.2 -7.1 3.6 -9.2 4.8 -11.95 11.25 L-12.05 11.2 Q-11.75 4.15 -0.9 -2.8 -0.45 -3.75 0.75 -3.8" fill="#ab7872" fill-rule="evenodd" stroke="none"/>
    <path d="M0.75 -3.8 Q1.8 -3.95 2.55 -2.8 11.1 1.15 14.8 6.55 L10.3 5.9 Q12.85 8.5 14.2 10.3 L14.15 10.35 14.2 10.35 14.25 10.35 16.6 12.6 17.75 13.45 16.4 13.3 Q10.5 12.5 6.85 8.3 L6.7 8.1 Q6.6 11.55 7.8 14.4 L7.9 14.6 Q9.0 17.15 11.15 19.2 4.5 17.25 2.35 14.4 2.1 15.65 2.35 17.45 -1.1 13.5 -0.65 7.5 1.95 12.2 5.75 13.8 3.8 10.55 2.7 2.9 2.3 2.4 0.75 -3.8 M2.45 18.2 L2.6 18.8 Q3.1 21.3 4.45 24.6 -5.25 19.7 -4.9 11.05 -7.25 13.9 -8.7 20.1 -8.7 12.6 -4.55 8.1 -4.25 16.7 2.45 18.2 M-8.2 6.5 Q-10.4 8.4 -11.95 11.25 -9.2 4.8 -7.1 3.6 -7.95 5.2 -8.2 6.45 L-8.2 6.5" fill="#86554f" fill-rule="evenodd" stroke="none"/>
  </g>
</svg>
