<?xml version="1.0" encoding="UTF-8" standalone="no"?>
<svg xmlns:xlink="http://www.w3.org/1999/xlink" height="15.05px" width="21.35px" xmlns="http://www.w3.org/2000/svg">
  <g transform="matrix(1.0, 0.0, 0.0, 1.0, 9.95, 5.5)">
    <path d="M7.55 2.55 Q6.2 -4.3 -2.55 -3.8 L-2.55 -3.85 Q-1.9 -5.15 -0.45 -5.3 L1.15 -5.5 Q7.8 -5.0 7.8 2.25 L7.55 2.55" fill="#792b2b" fill-rule="evenodd" stroke="none"/>
    <path d="M-6.05 2.65 Q-4.7 -4.2 4.05 -3.7 L4.05 -3.75 Q3.4 -5.05 1.95 -5.2 L0.35 -5.4 Q-6.3 -4.9 -6.3 2.35 L-6.05 2.65" fill="#792b2b" fill-rule="evenodd" stroke="none"/>
    <path d="M-9.65 0.8 L-8.9 0.7 -7.8 0.55 Q-6.7 0.25 -6.15 -0.3 L-5.85 -0.7 -5.9 -0.7 -5.5 -1.3 -5.0 -2.2 -4.4 -2.85 -3.25 -3.75 Q-2.55 -4.25 -1.4 -4.35 L0.85 -4.2 2.5 -4.25 4.15 -3.95 4.9 -3.6 6.5 -2.2 7.0 -1.3 7.35 -0.7 Q7.6 -0.2 8.25 0.15 L9.5 0.55 10.1 0.7 10.9 0.8 Q9.65 2.8 6.95 3.3 6.9 3.85 7.8 4.15 L8.5 4.4 8.65 4.45 9.4 4.6 Q8.4 5.7 6.7 5.85 L6.6 5.85 6.35 5.85 6.0 5.85 5.85 5.85 5.75 5.85 5.8 5.95 5.85 6.0 6.4 6.35 6.75 6.45 6.95 6.5 7.55 6.65 7.2 6.8 5.35 7.5 5.0 7.6 4.85 7.6 4.5 7.6 4.15 7.6 2.5 8.3 Q2.1 8.4 0.65 9.55 L-0.5 8.6 -3.15 7.6 -3.5 7.6 -4.1 7.5 -5.4 7.05 -5.95 6.8 -6.25 6.65 -5.65 6.55 -5.25 6.45 -4.75 6.15 -4.7 6.1 -4.6 6.0 -4.55 5.95 -4.5 5.85 -4.7 5.85 -5.15 5.85 -6.65 5.6 -8.1 4.6 -7.4 4.5 -6.9 4.4 -6.0 3.9 -5.65 3.4 -5.65 3.3 -7.1 2.9 Q-8.75 2.2 -9.65 0.8" fill="#e29299" fill-rule="evenodd" stroke="none"/>
    <path d="M-9.65 0.8 Q-8.75 2.2 -7.1 2.9 L-5.65 3.3 -5.65 3.4 -6.0 3.9 -5.85 3.45 -6.25 3.4 -7.7 2.9 Q-9.15 2.2 -9.95 0.8 L-9.65 0.8 M-8.1 4.6 L-6.65 5.6 -5.15 5.85 -4.7 5.85 -4.5 5.85 -4.55 5.95 -4.6 6.0 -4.7 6.1 -4.65 5.95 -4.75 6.0 -5.2 6.0 -6.0 5.95 -6.6 5.85 -7.25 5.6 -8.45 4.65 -8.1 4.6 M-6.25 6.65 L-5.95 6.8 -5.4 7.05 -4.1 7.5 -3.5 7.6 -3.15 7.6 -4.3 7.65 -4.5 7.6 -6.0 7.05 -6.15 7.0 -6.85 6.65 -6.25 6.65 M4.15 7.6 L4.5 7.6 4.85 7.6 5.0 7.6 5.35 7.5 7.2 6.8 7.55 6.65 8.1 6.65 8.35 6.65 7.6 7.0 5.9 7.6 5.75 7.65 4.4 7.7 4.15 7.6 M6.4 6.35 L5.85 6.0 5.8 5.95 5.75 5.85 5.85 5.85 6.0 5.85 6.35 5.85 6.6 5.85 6.7 5.85 Q8.4 5.7 9.4 4.6 L9.9 4.65 9.65 4.95 8.1 5.85 7.25 6.0 6.5 6.0 6.2 6.0 6.15 5.95 6.2 6.15 6.4 6.35 M7.8 4.15 Q6.9 3.85 6.95 3.3 9.65 2.8 10.9 0.8 L11.4 0.8 10.45 2.0 Q9.35 3.05 7.55 3.45 L7.35 3.45 Q7.3 3.85 7.8 4.15" fill="#f4d9de" fill-rule="evenodd" stroke="none"/>
  </g>
</svg>
