<?xml version="1.0" encoding="UTF-8" standalone="no"?>
<svg xmlns:xlink="http://www.w3.org/1999/xlink" height="31.9px" width="12.95px" xmlns="http://www.w3.org/2000/svg">
  <g transform="matrix(1.0, 0.0, 0.0, 1.0, 5.95, 8.6)">
    <path d="M6.65 -1.9 Q8.2 5.45 2.95 7.65 L0.7 8.35 -1.55 7.65 Q-6.8 5.45 -5.25 -1.9 -3.55 -5.65 -1.05 -6.5 L0.7 -6.75 Q4.4 -6.95 6.65 -1.9" fill="#ffffcc" fill-rule="evenodd" stroke="none"/>
    <path d="M6.65 -1.9 Q8.2 5.45 2.95 7.65 L0.7 8.35 -1.55 7.65 Q-6.8 5.45 -5.25 -1.9 -3.55 -5.65 -1.05 -6.5 L0.7 -6.75 Q4.4 -6.95 6.65 -1.9 Z" fill="none" stroke="#ffcc66" stroke-linecap="round" stroke-linejoin="round" stroke-width="0.05"/>
    <path d="M1.8 -4.9 L1.8 -3.35 1.75 -3.35 -1.4 -3.4 -1.4 -4.6 -1.4 -6.2 -1.4 -7.3 0.45 -7.25 1.75 -7.6 1.8 -6.5 1.8 -4.9 M0.0 -4.25 Q0.4 -4.2 0.7 -4.5 L1.15 -5.05 1.05 -5.6 1.0 -5.65 0.8 -5.8 0.55 -5.9 0.45 -5.9 -0.15 -5.7 -0.25 -5.65 -0.6 -5.25 -0.7 -5.1 -0.7 -4.8 -0.6 -4.45 Q-0.35 -4.2 0.0 -4.25" fill="#7d768d" fill-rule="evenodd" stroke="none"/>
    <path d="M-1.4 -4.6 L-2.0 -4.85 -2.05 -5.25 -2.05 -5.45 -2.0 -5.7 -1.7 -6.05 -1.4 -6.2 -1.4 -4.6 M1.8 -6.5 L2.0 -6.5 2.05 -6.55 2.25 -6.45 2.35 -6.45 2.5 -6.3 2.65 -5.7 2.2 -5.1 1.8 -4.9 1.8 -6.5 M0.0 -4.25 Q-0.35 -4.2 -0.6 -4.45 L-0.7 -4.8 -0.7 -5.1 -0.6 -5.25 -0.25 -5.65 -0.15 -5.7 0.45 -5.9 0.55 -5.9 0.8 -5.8 1.0 -5.65 1.05 -5.6 1.15 -5.05 0.7 -4.5 Q0.4 -4.2 0.0 -4.25" fill="#f0b3c6" fill-rule="evenodd" stroke="none"/>
    <path d="M3.1 -8.5 Q-5.75 -9.75 -5.95 3.6 -5.35 0.45 -3.6 -0.6 -0.8 2.75 -3.6 7.25 -6.65 17.2 -2.15 21.2 -3.7 14.4 -0.75 9.7 -0.95 14.15 0.6 17.6 1.85 20.25 1.55 23.3 3.45 19.85 2.8 15.55 L2.8 15.35 Q1.4 10.7 3.6 4.75 L4.2 3.55 Q7.0 -0.1 6.8 -4.55 L6.3 -6.4 Q5.8 -7.8 3.1 -8.5" fill="#ffffcc" fill-rule="evenodd" stroke="none"/>
    <path d="M3.1 -8.5 Q-5.75 -9.75 -5.95 3.6 -5.35 0.45 -3.6 -0.6 -0.8 2.75 -3.6 7.25 -6.65 17.2 -2.15 21.2 -3.7 14.4 -0.75 9.7 -0.95 14.15 0.6 17.6 1.85 20.25 1.55 23.3 3.45 19.85 2.8 15.55 L2.8 15.35 Q1.4 10.7 3.6 4.75 L4.2 3.55 Q7.0 -0.1 6.8 -4.55 L6.3 -6.4 Q5.8 -7.8 3.1 -8.5 Z" fill="none" stroke="#ffcc66" stroke-linecap="round" stroke-linejoin="round" stroke-width="0.05"/>
  </g>
</svg>
