<?xml version="1.0" encoding="UTF-8" standalone="no"?>
<svg xmlns:xlink="http://www.w3.org/1999/xlink" height="9.05px" width="16.15px" xmlns="http://www.w3.org/2000/svg">
  <g transform="matrix(1.0, 0.0, 0.0, 1.0, 8.65, 2.05)">
    <path d="M-8.35 2.2 L-8.65 0.6 Q-8.65 -0.85 -7.95 -2.05 L-0.45 -2.05 6.85 -2.05 Q7.5 -0.85 7.5 0.6 L7.3 2.15 7.25 2.25 7.2 2.45 6.9 3.15 Q6.3 4.2 5.15 5.1 L3.2 6.3 2.95 6.4 2.65 6.5 2.6 6.55 2.5 6.55 2.0 6.7 1.9 6.7 1.75 6.75 -0.4 7.0 -0.5 7.0 -3.15 6.7 Q-4.85 6.2 -6.25 5.1 -7.85 3.85 -8.35 2.2 M-0.4 7.0 L-0.45 -2.05 -0.4 7.0" fill="#7892bc" fill-rule="evenodd" stroke="none"/>
    <path d="M-8.35 2.2 L-8.65 0.6 Q-8.65 -0.85 -7.95 -2.05 L-0.45 -2.05 6.85 -2.05 Q7.5 -0.85 7.5 0.6 L7.3 2.15 M1.75 6.75 L-0.4 7.0 -0.5 7.0 -3.15 6.7 M-0.45 -2.05 L-0.4 7.0" fill="none" stroke="#364b6d" stroke-linecap="round" stroke-linejoin="round" stroke-width="0.05"/>
  </g>
</svg>
