<?xml version="1.0" encoding="UTF-8" standalone="no"?>
<svg xmlns:xlink="http://www.w3.org/1999/xlink" height="13.6px" width="16.15px" xmlns="http://www.w3.org/2000/svg">
  <g transform="matrix(1.0, 0.0, 0.0, 1.0, 8.65, 2.1)">
    <path d="M-8.35 2.2 L-8.65 0.6 Q-8.65 -0.85 -7.95 -2.05 L-0.45 -2.05 6.85 -2.05 Q7.5 -0.85 7.5 0.6 L7.3 2.15 7.25 2.25 7.2 2.45 6.9 3.15 Q6.3 4.2 5.15 5.1 L3.55 6.15 2.95 6.4 2.65 6.5 2.6 6.55 2.5 6.55 2.0 6.7 1.85 6.75 1.75 6.75 -0.4 7.0 -0.5 7.0 -3.15 6.7 Q-4.85 6.2 -6.25 5.1 -7.85 3.85 -8.35 2.2 M-0.4 7.0 L-0.45 -2.05 -0.4 7.0" fill="#a8866f" fill-rule="evenodd" stroke="none"/>
    <path d="M-8.35 2.2 L-8.65 0.6 Q-8.65 -0.85 -7.95 -2.05 L-0.45 -2.05 6.85 -2.05 Q7.5 -0.85 7.5 0.6 L7.3 2.15 M1.75 6.75 L-0.4 7.0 -0.5 7.0 -3.15 6.7 M-0.45 -2.05 L-0.4 7.0" fill="none" stroke="#8a6b55" stroke-linecap="round" stroke-linejoin="round" stroke-width="0.05"/>
    <path d="M0.55 5.45 L0.45 11.15 0.55 5.45 M-3.5 4.85 L-3.45 -2.1 2.1 -2.05 1.8 11.5 Q1.1 10.8 0.45 11.15 -0.9 11.5 -1.45 10.6 -2.4 9.7 -3.05 10.15 L-3.55 10.0 -3.55 7.35 -3.35 7.1 Q-2.85 6.3 -3.25 5.4 L-3.5 4.85 -3.25 5.4 Q-2.85 6.3 -3.35 7.1 L-3.55 7.35 -3.5 4.85 M-2.85 7.65 L-3.05 10.15 -2.85 7.65 M-1.25 7.9 L-1.45 10.6 -1.25 7.9" fill="#8db7c0" fill-rule="evenodd" stroke="none"/>
    <path d="M0.45 11.15 L0.55 5.45 M0.45 11.15 Q1.1 10.8 1.8 11.5 L2.1 -2.05 -3.45 -2.1 -3.5 4.85 -3.55 7.35 -3.55 10.0 -3.05 10.15 -2.85 7.65 M-3.05 10.15 Q-2.4 9.7 -1.45 10.6 L-1.25 7.9 M-1.45 10.6 Q-0.9 11.5 0.45 11.15 Z" fill="none" stroke="#8a6b55" stroke-linecap="round" stroke-linejoin="round" stroke-width="0.05"/>
  </g>
</svg>
