<?xml version="1.0" encoding="UTF-8" standalone="no"?>
<svg xmlns:xlink="http://www.w3.org/1999/xlink" height="9.05px" width="16.15px" xmlns="http://www.w3.org/2000/svg">
  <g transform="matrix(1.0, 0.0, 0.0, 1.0, 8.65, 2.05)">
    <path d="M7.3 2.15 L7.25 2.25 7.2 2.45 6.9 3.15 Q6.3 4.2 5.15 5.1 L3.55 6.15 2.95 6.4 2.65 6.5 2.6 6.55 2.5 6.55 2.0 6.7 1.85 6.75 1.75 6.75 -0.4 7.0 -0.45 -2.05 -0.4 7.0 -0.5 7.0 -3.05 6.7 -3.15 6.7 Q-4.85 6.2 -6.25 5.1 L-6.35 5.0 -7.9 3.25 -8.35 2.35 -8.35 2.25 -8.4 2.2 -8.65 0.6 Q-8.65 -0.85 -7.95 -2.05 L-6.4 -2.05 -0.45 -2.05 6.85 -2.05 Q7.5 -0.85 7.5 0.6 L7.3 2.15 M-6.35 5.0 L-6.4 -2.05 -6.35 5.0" fill="#e0e0e0" fill-rule="evenodd" stroke="none"/>
    <path d="M7.3 2.15 L7.5 0.6 Q7.5 -0.85 6.85 -2.05 L-0.45 -2.05 -0.4 7.0 1.75 6.75 M-6.4 -2.05 L-0.45 -2.05 M-8.35 2.25 L-8.4 2.2 -8.65 0.6 Q-8.65 -0.85 -7.95 -2.05 L-6.4 -2.05 M-3.15 6.7 L-3.05 6.7 -0.5 7.0 -0.4 7.0" fill="none" stroke="#a0a0a0" stroke-linecap="round" stroke-linejoin="round" stroke-width="0.05"/>
  </g>
</svg>
