<?xml version="1.0" encoding="UTF-8" standalone="no"?>
<svg xmlns:xlink="http://www.w3.org/1999/xlink" height="13.65px" width="5.55px" xmlns="http://www.w3.org/2000/svg">
  <g transform="matrix(1.0, 0.0, 0.0, 1.0, 3.0, 2.05)">
    <path d="M-2.4 10.2 L-2.9 10.05 -3.0 -2.05 2.55 -2.0 2.45 11.6 Q1.75 10.9 1.15 11.2 L1.15 5.5 1.15 11.2 Q-0.2 11.6 -0.75 10.65 -1.75 9.75 -2.4 10.2 L-2.45 7.1 -2.4 10.2 M-0.65 8.0 L-0.75 10.65 -0.65 8.0" fill="#b78cf2" fill-rule="evenodd" stroke="none"/>
    <path d="M1.15 11.2 Q1.75 10.9 2.45 11.6 L2.55 -2.0 -3.0 -2.05 -2.9 10.05 -2.4 10.2 -2.45 7.1 M1.15 5.5 L1.15 11.2 Q-0.2 11.6 -0.75 10.65 -1.75 9.75 -2.4 10.2 M-0.75 10.65 L-0.65 8.0" fill="none" stroke="#42129c" stroke-linecap="round" stroke-linejoin="round" stroke-width="0.05"/>
  </g>
</svg>
