<?xml version="1.0" encoding="UTF-8" standalone="no"?>
<svg xmlns:xlink="http://www.w3.org/1999/xlink" height="24.15px" width="16.4px" xmlns="http://www.w3.org/2000/svg">
  <g transform="matrix(1.0, 0.0, 0.0, 1.0, 8.2, 10.05)">
    <path d="M4.7 6.9 L4.65 6.9 4.75 6.8 4.7 6.9 M-2.95 -10.0 L-3.0 -10.0 -2.95 -10.0 M-4.7 6.8 L-4.65 6.85 -4.7 6.8" fill="#f5dfc5" fill-rule="evenodd" stroke="none"/>
    <path d="M2.05 -9.25 L3.0 -10.0 3.0 -9.95 3.0 -10.0 4.55 -9.8 5.0 -9.7 8.2 -8.55 Q8.25 -5.85 7.0 -3.95 L6.65 -0.8 Q4.6 -2.15 2.95 -4.6 L1.9 -6.35 2.05 -9.25 M-8.2 -8.85 L-6.2 -9.55 -4.45 -9.85 -3.0 -10.0 -3.0 -9.95 -2.95 -10.0 -1.6 -9.1 Q-1.45 -8.75 -1.45 -8.05 L-1.45 -7.55 -1.45 -6.4 -2.65 -4.35 Q-4.0 -2.5 -6.7 -1.65 L-7.0 -3.95 Q-8.3 -5.9 -8.2 -8.85" fill="#8e3939" fill-rule="evenodd" stroke="none"/>
    <path d="M2.05 -9.25 L1.9 -6.35 Q0.15 -8.25 -1.45 -6.4 L-1.45 -7.55 -1.45 -8.05 Q-1.45 -8.75 -1.6 -9.1 L2.05 -9.25 M2.95 -4.6 Q4.6 -2.15 6.65 -0.8 L6.5 0.6 6.5 0.65 6.45 0.75 5.65 4.2 4.75 6.8 4.65 6.9 4.7 6.9 4.65 6.9 Q7.95 12.55 0.4 14.05 L0.0 14.1 -0.05 14.1 Q-7.5 11.7 -4.75 6.95 L-4.65 6.85 -4.7 6.8 -4.7 6.75 -5.6 4.15 -6.45 0.75 -6.45 0.6 -6.7 -1.65 Q-4.0 -2.5 -2.65 -4.35 -1.4 0.45 0.05 1.45 1.75 -0.65 2.3 -2.2 L2.95 -4.6 M0.15 11.8 L0.05 1.45 0.15 11.8" fill="#ffffff" fill-rule="evenodd" stroke="none"/>
    <path d="M1.9 -6.35 L2.95 -4.6 2.3 -2.2 Q1.75 -0.65 0.05 1.45 -1.4 0.45 -2.65 -4.35 L-1.45 -6.4 Q0.15 -8.25 1.9 -6.35 M6.65 -0.8 L7.0 -3.95 7.4 -2.3 Q7.45 -0.65 6.5 0.6 L6.65 -0.8 M0.4 14.05 Q7.95 12.55 4.65 6.9 L4.7 6.9 5.95 8.4 7.85 11.75 7.95 12.85 1.75 13.9 0.4 14.05 M-7.0 -3.95 L-6.7 -1.65 -6.45 0.6 Q-7.45 -0.65 -7.35 -2.35 L-7.0 -3.95 M-4.75 6.95 Q-7.5 11.7 -0.05 14.1 L-1.75 13.9 -7.95 12.8 -7.65 11.85 -6.55 9.45 Q-5.85 7.95 -4.75 6.95" fill="#e0e0e0" fill-rule="evenodd" stroke="none"/>
    <path d="M8.2 -8.55 L5.0 -9.7 4.55 -9.8 3.0 -10.0 3.0 -9.95 3.0 -10.0 2.05 -9.25 1.9 -6.35 2.95 -4.6 Q4.6 -2.15 6.65 -0.8 M3.0 -10.0 L3.05 -10.05 3.0 -10.05 3.0 -10.0 M-2.95 -10.05 L-3.0 -10.05 -2.95 -10.0 -2.95 -10.05 M-2.95 -10.0 L-3.0 -9.95 -3.0 -10.0 -4.45 -9.85 -6.2 -9.55 -8.2 -8.85 M-6.7 -1.65 Q-4.0 -2.5 -2.65 -4.35 L-1.45 -6.4 -1.45 -7.55 -1.45 -8.05 Q-1.45 -8.75 -1.6 -9.1 L-2.95 -10.0 M2.05 -9.25 L-1.6 -9.1" fill="none" stroke="#6b2c2c" stroke-linecap="round" stroke-linejoin="round" stroke-width="0.05"/>
    <path d="M6.5 0.6 Q7.45 -0.65 7.4 -2.3 L7.0 -3.95 M4.75 6.8 L5.65 4.2 6.45 0.75 6.5 0.65 6.5 0.6 M4.7 6.9 L4.75 6.8 4.65 6.9 M0.4 14.05 L1.75 13.9 7.95 12.85 7.85 11.75 5.95 8.4 4.7 6.9 M-0.05 14.1 L0.0 14.1 0.4 14.05 M-7.0 -3.95 L-7.35 -2.35 Q-7.45 -0.65 -6.45 0.6 L-6.45 0.75 -5.6 4.15 -4.7 6.75 -4.7 6.8 -4.65 6.85 -4.75 6.95 Q-5.85 7.95 -6.55 9.45 L-7.65 11.85 -7.95 12.8 -1.75 13.9 -0.05 14.1 M-4.7 6.8 L-4.65 6.85" fill="none" stroke="#a0a0a0" stroke-linecap="round" stroke-linejoin="round" stroke-width="0.05"/>
    <path d="M0.05 1.45 L0.15 11.8" fill="none" stroke="#e0e0e0" stroke-linecap="round" stroke-linejoin="round" stroke-width="0.05"/>
    <path d="M-2.95 -10.0 L-3.0 -10.0 -2.95 -10.0" fill="none" stroke="#6b2c2c" stroke-linecap="round" stroke-linejoin="round" stroke-width="0.05"/>
  </g>
</svg>
