<?xml version="1.0" encoding="UTF-8" standalone="no"?>
<svg xmlns:xlink="http://www.w3.org/1999/xlink" height="25.6px" width="16.8px" xmlns="http://www.w3.org/2000/svg">
  <g transform="matrix(1.0, 0.0, 0.0, 1.0, 8.35, 9.7)">
    <path d="M4.75 6.8 L4.7 6.9 4.65 6.9 4.75 6.8 M-4.65 6.85 L-4.7 6.75 -4.65 6.85" fill="#f5dfc5" fill-rule="evenodd" stroke="none"/>
    <path d="M-8.2 -8.85 L-5.0 -9.7 -5.0 -8.25 -8.2 -8.85 M5.05 -8.1 L5.05 -9.6 Q6.5 -9.2 8.15 -8.45 L5.05 -8.1" fill="#d7ebfd" fill-rule="evenodd" stroke="none"/>
    <path d="M7.0 -3.95 L6.5 0.6 6.5 0.65 6.45 0.75 5.65 4.2 4.75 6.8 4.65 6.9 4.7 6.9 Q7.9 11.3 2.2 13.45 L1.4 13.45 -0.05 13.4 -1.8 13.3 -1.85 13.3 -4.15 12.9 Q-8.15 11.0 -4.65 6.85 L-4.7 6.75 -5.6 4.15 -6.45 0.75 -6.45 0.6 -7.0 -3.95 Q-8.2 -6.25 -8.2 -8.85 L-5.0 -8.25 Q-0.45 -7.65 5.05 -8.1 L8.15 -8.45 Q8.35 -5.7 7.0 -3.95 M0.05 1.45 Q2.05 0.8 3.65 -1.85 1.9 -3.35 1.9 -6.35 0.15 -8.25 -1.45 -6.4 -1.25 -3.85 -2.65 -2.25 -1.4 0.45 0.05 1.45 L0.15 11.8 0.05 1.45" fill="#8db7c0" fill-rule="evenodd" stroke="none"/>
    <path d="M7.0 -3.95 L7.4 -2.3 Q7.45 -0.65 6.5 0.6 L7.0 -3.95 M4.7 6.9 L5.95 8.4 7.85 11.75 7.95 12.15 2.45 13.45 2.2 13.45 Q7.9 11.3 4.7 6.9 M-7.75 12.15 L-7.65 11.85 -6.55 9.45 Q-5.85 7.9 -4.65 6.85 -8.15 11.0 -4.15 12.9 L-7.75 12.15 M-6.45 0.6 Q-7.45 -0.65 -7.35 -2.35 L-7.0 -3.95 -6.45 0.6 M0.05 1.45 Q-1.4 0.45 -2.65 -2.25 -1.25 -3.85 -1.45 -6.4 0.15 -8.25 1.9 -6.35 1.9 -3.35 3.65 -1.85 2.05 0.8 0.05 1.45" fill="#59929f" fill-rule="evenodd" stroke="none"/>
    <path d="M7.95 12.15 Q8.6 13.3 8.4 13.85 8.15 14.35 3.7 15.5 L1.4 15.85 -1.8 15.65 Q-4.7 15.2 -8.3 13.85 -8.45 12.85 -7.95 12.1 L-7.75 12.15 -4.15 12.9 -1.85 13.3 -1.8 13.3 -0.05 13.4 1.4 13.45 2.2 13.45 2.45 13.45 7.95 12.15" fill="#aedbfb" fill-rule="evenodd" stroke="none"/>
    <path d="M-5.0 -9.7 L-5.0 -8.25 Q-0.45 -7.65 5.05 -8.1 L5.05 -9.6 M5.05 -8.1 L8.15 -8.45 M-8.2 -8.85 L-5.0 -8.25" fill="none" stroke="#305054" stroke-linecap="round" stroke-linejoin="round" stroke-width="0.05"/>
    <path d="M6.5 0.6 Q7.45 -0.65 7.4 -2.3 L7.0 -3.95 M6.5 0.6 L6.5 0.65 6.45 0.75 5.65 4.2 4.75 6.8 4.7 6.9 5.95 8.4 7.85 11.75 7.95 12.15 Q8.6 13.3 8.4 13.85 8.15 14.35 3.7 15.5 L1.4 15.85 -1.8 15.65 Q-4.7 15.2 -8.3 13.85 -8.45 12.85 -7.95 12.1 L-7.75 12.15 -7.65 11.85 -6.55 9.45 Q-5.85 7.9 -4.65 6.85 L-4.7 6.75 -5.6 4.15 -6.45 0.75 -6.45 0.6 Q-7.45 -0.65 -7.35 -2.35 L-7.0 -3.95 M-8.2 -8.85 L-5.0 -9.7 M5.05 -9.6 Q6.5 -9.2 8.15 -8.45 M-4.7 6.75 L-4.65 6.85 M-4.15 12.9 L-1.85 13.3 -1.8 13.3 -0.05 13.4 1.4 13.45 2.2 13.45 2.45 13.45 7.95 12.15 M4.65 6.9 L4.75 6.8 M-7.75 12.15 L-4.15 12.9" fill="none" stroke="#305054" stroke-linecap="round" stroke-linejoin="round" stroke-width="0.05"/>
    <path d="M0.05 1.45 L0.15 11.8" fill="none" stroke="#59929f" stroke-linecap="round" stroke-linejoin="round" stroke-width="0.05"/>
  </g>
</svg>
