<?xml version="1.0" encoding="UTF-8" standalone="no"?>
<svg xmlns:xlink="http://www.w3.org/1999/xlink" height="27.2px" width="16.9px" xmlns="http://www.w3.org/2000/svg">
  <g transform="matrix(1.0, 0.0, 0.0, 1.0, 8.3, 11.1)">
    <path d="M-4.7 6.75 L-4.65 6.85 -4.7 6.75 M4.7 6.9 L4.65 6.9 4.75 6.8 4.7 6.9" fill="#f5dfc5" fill-rule="evenodd" stroke="none"/>
    <path d="M4.3 -9.8 Q3.35 -9.15 2.05 -8.8 L-0.7 -8.75 Q-2.1 -9.0 -3.7 -9.9 L-3.8 -9.9 -2.3 -11.05 1.9 -10.85 2.6 -11.1 4.3 -9.8" fill="#ffffff" fill-rule="evenodd" stroke="none"/>
    <path d="M-7.0 -3.95 L-6.45 0.6 Q-7.45 -0.65 -7.35 -2.35 L-7.0 -3.95 M-4.65 6.85 Q-9.95 12.45 -0.15 14.05 L-1.75 13.9 -7.95 12.8 -7.65 11.85 -6.55 9.45 Q-5.85 7.9 -4.65 6.85 M1.75 13.9 Q10.0 12.9 4.7 6.9 L5.95 8.4 7.85 11.75 7.95 12.85 1.75 13.9 M6.5 0.6 L7.0 -3.95 7.4 -2.3 Q7.45 -0.65 6.5 0.6 M0.05 1.45 Q-1.4 0.45 -2.65 -2.25 -1.25 -3.85 -1.45 -6.4 0.15 -8.25 1.9 -6.35 1.9 -3.35 3.65 -1.85 2.05 0.8 0.05 1.45" fill="#de7238" fill-rule="evenodd" stroke="none"/>
    <path d="M5.2 -9.55 L8.15 -8.45 Q8.4 -5.65 7.0 -3.95 L6.5 0.6 6.5 0.65 6.45 0.75 5.65 4.2 4.75 6.8 4.65 6.9 4.7 6.9 Q10.0 12.9 1.75 13.9 L0.45 14.05 0.4 14.05 0.45 14.05 0.4 14.05 0.35 14.05 -0.15 14.05 0.35 14.05 0.0 14.1 -0.05 14.1 -0.15 14.05 Q-9.95 12.45 -4.65 6.85 L-4.7 6.75 -5.6 4.15 -6.45 0.75 -6.45 0.6 -7.0 -3.95 Q-8.7 -6.5 -8.2 -8.85 L-4.6 -9.75 -4.4 -9.8 Q-3.55 -8.4 0.35 -8.1 3.5 -7.85 5.2 -9.55 M0.05 1.45 Q2.05 0.8 3.65 -1.85 1.9 -3.35 1.9 -6.35 0.15 -8.25 -1.45 -6.4 -1.25 -3.85 -2.65 -2.25 -1.4 0.45 0.05 1.45 L0.15 11.8 0.05 1.45" fill="#e89a71" fill-rule="evenodd" stroke="none"/>
    <path d="M5.2 -9.55 Q3.5 -7.85 0.35 -8.1 -3.55 -8.4 -4.4 -9.8 L-3.8 -9.9 -3.7 -9.9 Q-2.1 -9.0 -0.7 -8.75 L2.05 -8.8 Q3.35 -9.15 4.3 -9.8 L4.85 -9.65 5.2 -9.55" fill="#d1d1d1" fill-rule="evenodd" stroke="none"/>
    <path d="M8.15 -8.45 L5.2 -9.55 4.85 -9.65 4.3 -9.8 Q3.35 -9.15 2.05 -8.8 L-0.7 -8.75 Q-2.1 -9.0 -3.7 -9.9 L-3.8 -9.9 -4.4 -9.8 -4.6 -9.75 -8.2 -8.85 M-6.45 0.6 L-6.45 0.75 -5.6 4.15 -4.7 6.75 -4.65 6.85 -4.7 6.75 M-0.15 14.05 L0.35 14.05 0.4 14.05 0.45 14.05 1.75 13.9 7.95 12.85 7.85 11.75 5.95 8.4 4.7 6.9 4.75 6.8 5.65 4.2 6.45 0.75 6.5 0.65 6.5 0.6 Q7.45 -0.65 7.4 -2.3 L7.0 -3.95 M4.65 6.9 L4.75 6.8 M4.3 -9.8 L2.6 -11.1 1.9 -10.85 -2.3 -11.05 -3.8 -9.9 M0.0 14.1 L-0.05 14.1 -0.15 14.05 -1.75 13.9 -7.95 12.8 -7.65 11.85 -6.55 9.45 Q-5.85 7.9 -4.65 6.85 M-7.0 -3.95 L-7.35 -2.35 Q-7.45 -0.65 -6.45 0.6" fill="none" stroke="#9b3d1a" stroke-linecap="round" stroke-linejoin="round" stroke-width="0.05"/>
    <path d="M5.2 -9.55 Q3.5 -7.85 0.35 -8.1 -3.55 -8.4 -4.4 -9.8" fill="none" stroke="#666666" stroke-linecap="round" stroke-linejoin="round" stroke-width="0.05"/>
    <path d="M0.05 1.45 L0.15 11.8" fill="none" stroke="#de7238" stroke-linecap="round" stroke-linejoin="round" stroke-width="0.05"/>
    <path d="M8.3 12.1 Q8.9 13.35 8.3 14.55 1.95 17.05 -4.0 15.55 L-6.55 14.75 -6.75 14.7 -7.65 14.3 -8.15 14.05 Q-8.45 12.7 -8.1 11.95 L-6.8 12.35 -6.55 12.45 -5.5 12.75 -4.05 13.1 -1.7 13.55 -0.1 13.75 0.5 13.75 1.8 13.55 8.3 12.1" fill="#e89a71" fill-rule="evenodd" stroke="none"/>
    <path d="M-8.1 11.95 L-6.8 12.35 -6.55 12.45 -5.5 12.75 -4.05 13.1 -1.7 13.55 -0.1 13.75 0.5 13.75 1.8 13.55 8.3 12.1" fill="none" stroke="#9b3d1a" stroke-linecap="round" stroke-linejoin="round" stroke-width="0.05"/>
    <path d="M8.3 12.1 Q8.9 13.35 8.3 14.55 1.95 17.05 -4.0 15.55 L-6.55 14.75 -6.75 14.7 -7.65 14.3 -8.15 14.05 Q-8.45 12.7 -8.1 11.95 Z" fill="none" stroke="#9b3d1a" stroke-linecap="round" stroke-linejoin="round" stroke-width="0.05"/>
  </g>
</svg>
