<?xml version="1.0" encoding="UTF-8" standalone="no"?>
<svg xmlns:xlink="http://www.w3.org/1999/xlink" height="26.15px" width="16.6px" xmlns="http://www.w3.org/2000/svg">
  <g transform="matrix(1.0, 0.0, 0.0, 1.0, 8.35, 10.35)">
    <path d="M0.6 13.5 L1.0 12.35 0.6 13.5" fill="#784d43" fill-rule="evenodd" stroke="none"/>
    <path d="M-4.7 6.75 L-4.65 6.85 -4.7 6.75 M4.7 6.9 L4.65 6.9 4.75 6.8 4.7 6.9" fill="#f5dfc5" fill-rule="evenodd" stroke="none"/>
    <path d="M3.2 -10.0 L2.5 -8.9 Q1.7 -8.05 0.1 -7.9 L0.05 -7.9 Q-1.25 -8.0 -2.05 -8.5 L-2.95 -9.5 -3.2 -10.0 -3.05 -10.1 -2.6 -10.35 -2.3 -10.2 -2.2 -10.0 -1.55 -9.45 Q-0.7 -8.9 0.1 -8.9 0.95 -8.9 1.8 -9.6 L2.2 -10.0 Q2.85 -10.5 3.2 -10.0 M-0.4 13.55 L-0.3 13.55 -0.05 13.6 0.0 13.6 0.15 13.6 0.4 13.55 0.6 13.5 1.75 13.35 2.8 13.25 3.2 13.75 Q3.55 14.5 3.2 15.5 L-1.75 15.7 -3.55 15.4 -4.55 15.15 -5.7 14.8 -7.95 13.75 Q-8.7 12.55 -7.95 11.85 L-7.7 11.95 -5.7 12.5 -4.6 12.8 -1.75 13.35 -0.4 13.55 M0.1 -7.9 L0.1 -8.9 0.1 -7.9 M2.5 -8.9 Q2.45 -9.35 1.8 -9.6 2.45 -9.35 2.5 -8.9 M7.95 12.05 Q8.55 12.9 7.95 13.8 L7.6 14.0 6.15 14.65 3.2 15.5 Q3.55 14.5 3.2 13.75 L2.8 13.25 6.15 12.45 7.6 12.05 7.9 11.95 7.95 12.05 M6.15 14.65 L6.4 13.15 6.15 12.45 6.4 13.15 6.15 14.65 M-2.95 -10.0 L-3.0 -10.0 -2.95 -10.0 M-1.55 -9.45 Q-2.1 -9.2 -2.05 -8.5 -2.1 -9.2 -1.55 -9.45 M-5.7 14.8 Q-6.1 14.0 -5.95 13.2 L-5.7 12.5 -5.95 13.2 Q-6.1 14.0 -5.7 14.8 M-1.75 15.7 L-1.85 13.9 -1.75 13.35 -1.85 13.9 -1.75 15.7" fill="#737373" fill-rule="evenodd" stroke="none"/>
    <path d="M3.2 -10.0 L7.45 -8.75 8.15 -8.45 7.55 -5.2 Q7.15 -3.75 7.0 -3.95 L6.5 0.6 6.5 0.65 6.45 0.75 5.65 4.2 4.75 6.8 4.65 6.9 4.7 6.9 Q8.5 11.45 0.6 13.5 L0.4 13.55 0.15 13.6 0.0 13.6 -0.05 13.6 -0.3 13.55 -0.4 13.55 Q-3.15 13.05 -4.6 12.2 -7.65 10.4 -4.65 6.85 L-4.7 6.75 -5.6 4.15 -6.45 0.75 -6.45 0.6 -7.0 -3.95 Q-8.2 -6.4 -8.2 -8.85 L-4.75 -9.75 -3.4 -9.95 -3.2 -10.0 -2.95 -9.5 -2.05 -8.5 Q-1.25 -8.0 0.05 -7.9 L0.1 -7.9 Q1.7 -8.05 2.5 -8.9 L3.2 -10.0 M0.6 13.5 L1.0 12.35 0.6 13.5 M0.05 1.45 Q2.05 0.8 3.25 -1.65 1.9 -3.35 1.9 -6.35 0.15 -8.25 -1.45 -6.4 -1.25 -3.85 -2.65 -2.25 -1.4 0.45 0.05 1.45 L0.15 11.8 0.05 1.45" fill="#5e5e5e" fill-rule="evenodd" stroke="none"/>
    <path d="M-7.0 -3.95 L-6.45 0.6 Q-7.45 -0.65 -7.35 -2.35 L-7.0 -3.95 M-4.65 6.85 Q-7.65 10.4 -4.6 12.2 -3.15 13.05 -0.4 13.55 L-1.75 13.35 -4.6 12.8 -5.7 12.5 -7.7 11.95 -7.65 11.85 -6.55 9.45 Q-5.85 7.9 -4.65 6.85 M0.6 13.5 Q8.5 11.45 4.7 6.9 L5.95 8.4 7.85 11.75 7.95 12.05 7.9 11.95 7.6 12.05 6.15 12.45 2.8 13.25 1.75 13.35 0.6 13.5 M6.5 0.6 L7.0 -3.95 7.4 -2.3 Q7.45 -0.65 6.5 0.6 M0.05 1.45 Q-1.4 0.45 -2.65 -2.25 -1.25 -3.85 -1.45 -6.4 0.15 -8.25 1.9 -6.35 1.9 -3.35 3.25 -1.65 2.05 0.8 0.05 1.45" fill="#333333" fill-rule="evenodd" stroke="none"/>
    <path d="M8.15 -8.45 L7.45 -8.75 3.2 -10.0 Q2.85 -10.5 2.2 -10.0 L1.8 -9.6 Q0.95 -8.9 0.1 -8.9 -0.7 -8.9 -1.55 -9.45 L-2.2 -10.0 -2.3 -10.2 -2.6 -10.35 -3.05 -10.1 -3.2 -10.0 -3.4 -9.95 -4.75 -9.75 -8.2 -8.85 M-6.45 0.6 L-6.45 0.75 -5.6 4.15 -4.7 6.75 -4.65 6.85 -4.7 6.75 M-0.4 13.55 L-0.3 13.55 -0.05 13.6 0.0 13.6 M0.15 13.6 L0.4 13.55 0.6 13.5 1.75 13.35 2.8 13.25 3.2 13.75 Q3.55 14.5 3.2 15.5 M4.65 6.9 L4.75 6.8 5.65 4.2 6.45 0.75 6.5 0.65 6.5 0.6 Q7.45 -0.65 7.4 -2.3 L7.0 -3.95 M4.75 6.8 L4.7 6.9 5.95 8.4 7.85 11.75 7.95 12.05 Q8.55 12.9 7.95 13.8 M-7.95 13.75 Q-8.7 12.55 -7.95 11.85 L-7.7 11.95 -7.65 11.85 -6.55 9.45 Q-5.85 7.9 -4.65 6.85 M7.95 12.05 L7.9 11.95 7.6 12.05 6.15 12.45 6.4 13.15 6.15 14.65 M6.15 12.45 L2.8 13.25 M-7.0 -3.95 L-7.35 -2.35 Q-7.45 -0.65 -6.45 0.6 M-7.7 11.95 L-5.7 12.5 -4.6 12.8 -1.75 13.35 -0.4 13.55 M-1.75 13.35 L-1.85 13.9 -1.75 15.7 M-5.7 12.5 L-5.95 13.2 Q-6.1 14.0 -5.7 14.8" fill="none" stroke="#000000" stroke-linecap="round" stroke-linejoin="round" stroke-width="0.05"/>
    <path d="M3.2 -10.0 L2.5 -8.9 Q1.7 -8.05 0.1 -7.9 L0.05 -7.9 Q-1.25 -8.0 -2.05 -8.5 L-2.95 -9.5 -3.2 -10.0 M1.8 -9.6 Q2.45 -9.35 2.5 -8.9 M0.1 -8.9 L0.1 -7.9 M7.95 13.8 L7.6 14.0 6.15 14.65 3.2 15.5 -1.75 15.7 -3.55 15.4 -4.55 15.15 -5.7 14.8 -7.95 13.75 M-2.05 -8.5 Q-2.1 -9.2 -1.55 -9.45" fill="none" stroke="#000000" stroke-linecap="round" stroke-linejoin="round" stroke-width="0.05"/>
    <path d="M0.05 1.45 L0.15 11.8" fill="none" stroke="#333333" stroke-linecap="round" stroke-linejoin="round" stroke-width="0.05"/>
  </g>
</svg>
