<?xml version="1.0" encoding="UTF-8" standalone="no"?>
<svg xmlns:xlink="http://www.w3.org/1999/xlink" height="26.25px" width="16.7px" xmlns="http://www.w3.org/2000/svg">
  <g transform="matrix(1.0, 0.0, 0.0, 1.0, 8.2, 11.55)">
    <path d="M4.75 6.8 L4.7 6.9 4.65 6.9 4.75 6.8 M-4.65 6.85 L-4.7 6.75 -4.65 6.85" fill="#f5dfc5" fill-rule="evenodd" stroke="none"/>
    <path d="M-5.4 7.65 L-4.65 6.85 -5.3 7.7 -5.4 7.65" fill="#fbcd95" fill-rule="evenodd" stroke="none"/>
    <path d="M6.0 9.4 Q2.95 10.25 0.15 10.2 -3.05 10.2 -6.0 9.05 L-5.3 7.7 0.1 8.4 5.3 7.85 6.0 9.4 M-2.2 -10.05 L-2.1 -10.2 -1.8 -11.15 Q0.4 -11.95 1.8 -11.1 L2.2 -10.0 -2.2 -10.05 M4.25 12.25 Q4.05 12.35 4.2 13.6 L4.35 14.35 4.35 14.4 Q0.9 14.95 -2.7 14.55 L-3.7 14.45 -3.8 13.7 -3.8 13.65 Q-4.0 12.2 -4.2 12.1 -0.15 12.45 4.25 12.25" fill="#de8db3" fill-rule="evenodd" stroke="none"/>
    <path d="M3.65 -1.85 Q1.9 -3.35 1.9 -6.35 0.15 -8.25 -1.45 -6.4 -1.25 -3.85 -2.65 -2.25 -1.4 0.45 0.05 1.45 2.05 0.8 3.65 -1.85 M7.0 -3.95 L6.5 0.6 6.5 0.65 6.45 0.75 5.65 4.2 4.75 6.8 4.65 6.9 4.7 6.9 5.3 7.85 0.1 8.4 -5.3 7.7 -4.65 6.85 -4.7 6.75 -5.6 4.15 -6.45 0.75 -6.45 0.6 -7.0 -3.95 Q-5.35 5.35 -4.25 -9.85 L-2.2 -10.05 2.2 -10.0 2.8 -9.95 4.0 -9.85 Q5.85 4.75 7.0 -3.95" fill="#ffffff" fill-rule="evenodd" stroke="none"/>
    <path d="M3.65 -1.85 Q2.05 0.8 0.05 1.45 -1.4 0.45 -2.65 -2.25 -1.25 -3.85 -1.45 -6.4 0.15 -8.25 1.9 -6.35 1.9 -3.35 3.65 -1.85 M7.0 -3.95 L7.4 -2.3 Q7.45 -0.65 6.5 0.6 L7.0 -3.95 M4.7 6.9 L5.55 7.8 5.3 7.85 4.7 6.9 M-6.45 0.6 Q-7.45 -0.65 -7.35 -2.35 L-7.0 -3.95 -6.45 0.6" fill="#e0e0e0" fill-rule="evenodd" stroke="none"/>
    <path d="M5.55 7.8 L5.95 8.4 6.45 9.25 6.0 9.4 5.3 7.85 5.55 7.8 M-6.0 9.05 L-6.3 8.95 -5.4 7.65 -5.3 7.7 -6.0 9.05 M4.25 12.25 L7.75 11.3 7.9 11.3 Q8.4 12.0 8.5 13.3 6.6 14.25 4.35 14.4 L4.35 14.35 4.2 13.6 Q4.05 12.35 4.25 12.25 M-3.7 14.45 L-5.0 14.2 -8.2 13.3 Q-8.1 11.75 -7.55 11.3 L-4.2 12.1 Q-4.0 12.2 -3.8 13.65 L-3.8 13.7 -3.7 14.45" fill="#d16395" fill-rule="evenodd" stroke="none"/>
    <path d="M6.5 0.6 Q7.45 -0.65 7.4 -2.3 L7.0 -3.95 Q7.8 -5.95 8.15 -8.45 M6.5 0.6 L6.5 0.65 6.45 0.75 5.65 4.2 4.75 6.8 4.7 6.9 5.55 7.8 5.95 8.4 6.45 9.25 6.0 9.4 Q2.95 10.25 0.15 10.2 -3.05 10.2 -6.0 9.05 L-6.3 8.95 -5.4 7.65 -4.65 6.85 -4.7 6.75 -5.6 4.15 -6.45 0.75 -6.45 0.6 Q-7.45 -0.65 -7.35 -2.35 L-7.0 -3.95 -8.2 -8.85 M2.2 -10.0 L1.8 -11.1 Q0.4 -11.95 -1.8 -11.15 L-2.1 -10.2 -2.2 -10.05 2.2 -10.0 2.8 -9.95 4.0 -9.85 Q5.85 4.75 7.0 -3.95 M4.65 6.9 L4.75 6.8 M5.3 7.85 L5.55 7.8 M-5.3 7.7 L0.1 8.4 5.3 7.85 M-2.2 -10.05 L-4.25 -9.85 Q-5.35 5.35 -7.0 -3.95 M-5.3 7.7 L-5.4 7.65 M-4.7 6.75 L-4.65 6.85" fill="none" stroke="#a0a0a0" stroke-linecap="round" stroke-linejoin="round" stroke-width="0.05"/>
    <path d="M4.35 14.4 Q6.6 14.25 8.5 13.3 8.4 12.0 7.9 11.3 L7.75 11.3 4.25 12.25 Q-0.15 12.45 -4.2 12.1 L-7.55 11.3 Q-8.1 11.75 -8.2 13.3 L-5.0 14.2 -3.7 14.45 -2.7 14.55 Q0.9 14.95 4.35 14.4 L4.35 14.35" fill="none" stroke="#b03573" stroke-linecap="round" stroke-linejoin="round" stroke-width="0.05"/>
  </g>
</svg>
