<?xml version="1.0" encoding="UTF-8" standalone="no"?>
<svg xmlns:xlink="http://www.w3.org/1999/xlink" height="25.1px" width="16.35px" xmlns="http://www.w3.org/2000/svg">
  <g transform="matrix(1.0, 0.0, 0.0, 1.0, 8.2, 12.35)">
    <path d="M4.4 -6.8 L4.7 -5.0 1.95 -5.4 1.9 -6.35 Q1.3 -7.0 0.7 -7.2 0.15 -7.4 -0.35 -7.2 -0.9 -7.0 -1.45 -6.4 L-1.4 -5.45 -4.7 -5.0 -4.5 -6.85 -1.55 -7.15 Q-1.05 -8.35 -1.05 -10.05 L-1.6 -12.25 1.4 -12.3 0.75 -10.05 0.75 -10.0 Q0.7 -8.45 1.15 -7.2 L4.4 -6.8 M1.0 1.05 L0.75 6.6 Q0.7 8.25 1.35 9.25 L-1.4 9.25 Q-0.7 8.5 -0.85 6.6 L-1.15 0.3 0.05 1.45 1.0 1.05" fill="#ffffff" fill-rule="evenodd" stroke="none"/>
    <path d="M-1.4 -5.45 L-1.45 -6.4 Q-0.9 -7.0 -0.35 -7.2 0.15 -7.4 0.7 -7.2 1.3 -7.0 1.9 -6.35 L1.95 -5.4 1.25 -5.45 1.0 1.05 0.05 1.45 -1.15 0.3 -1.4 -5.45" fill="#e0e0e0" fill-rule="evenodd" stroke="none"/>
    <path d="M3.75 11.6 L3.4 10.25 6.8 9.85 7.4 10.9 3.75 11.6 M1.9 10.3 L2.15 11.75 Q0.2 11.9 -1.75 11.7 L-1.45 10.25 1.9 10.3 M-7.15 10.7 L-6.6 9.65 -3.05 10.15 -3.4 11.5 -7.15 10.7" fill="#576bca" fill-rule="evenodd" stroke="none"/>
    <path d="M1.35 9.25 L4.45 9.1 6.25 8.85 6.8 9.85 3.4 10.25 3.75 11.6 7.4 10.9 7.9 11.75 Q0.3 13.85 -7.55 11.6 L-7.15 10.7 -3.4 11.5 -3.05 10.15 -6.6 9.65 -6.2 8.7 -4.1 9.0 -1.4 9.25 1.35 9.25 M2.15 11.75 L1.9 10.3 -1.45 10.25 -1.75 11.7 Q0.2 11.9 2.15 11.75" fill="#263959" fill-rule="evenodd" stroke="none"/>
    <path d="M1.4 -12.3 L3.55 -11.85 2.8 -9.95 4.0 -9.85 4.4 -6.8 1.15 -7.2 Q0.7 -8.45 0.75 -10.0 L0.75 -10.05 1.4 -12.3 M4.7 -5.0 Q6.05 3.05 7.0 -3.95 L6.5 0.6 6.5 0.65 6.45 0.75 5.65 4.2 4.75 6.8 4.75 6.85 Q5.1 8.5 4.45 9.1 L1.35 9.25 Q0.7 8.25 0.75 6.6 L1.0 1.05 Q2.45 0.15 3.65 -1.85 2.15 -3.1 1.95 -5.4 L4.7 -5.0 M-1.6 -12.25 L-1.05 -10.05 Q-1.05 -8.35 -1.55 -7.15 L-4.5 -6.85 -4.25 -9.85 -2.8 -10.0 -3.3 -11.85 -1.6 -12.25 M-4.7 -5.0 L-1.4 -5.45 Q-1.5 -3.55 -2.65 -2.25 -1.95 -0.7 -1.15 0.3 L-0.85 6.6 Q-0.7 8.5 -1.4 9.25 L-4.1 9.0 Q-4.9 8.25 -4.7 6.75 L-5.6 4.15 -6.45 0.75 -6.45 0.6 -7.0 -3.95 Q-5.65 3.6 -4.7 -5.0 M2.15 -9.95 L2.8 -9.95 2.15 -9.95 M-2.2 -10.05 L-2.8 -10.0 -2.2 -10.05" fill="#aed3e3" fill-rule="evenodd" stroke="none"/>
    <path d="M1.95 -5.4 Q2.15 -3.1 3.65 -1.85 2.45 0.15 1.0 1.05 L1.25 -5.45 1.95 -5.4 M4.45 9.1 Q5.1 8.5 4.75 6.85 L5.55 7.8 6.25 8.85 4.45 9.1 M6.5 0.6 L7.0 -3.95 7.4 -2.3 Q7.45 -0.65 6.5 0.6 M-6.2 8.7 L-4.7 6.75 Q-4.9 8.25 -4.1 9.0 L-6.2 8.7 M-6.45 0.6 Q-7.45 -0.65 -7.35 -2.35 L-7.0 -3.95 -6.45 0.6 M-1.4 -5.45 L-1.15 0.3 Q-1.95 -0.7 -2.65 -2.25 -1.5 -3.55 -1.4 -5.45" fill="#88c4e3" fill-rule="evenodd" stroke="none"/>
    <path d="M4.4 -6.8 L4.7 -5.0 Q6.05 3.05 7.0 -3.95 7.8 -5.95 8.15 -8.45 M-4.5 -6.85 L-4.7 -5.0 Q-5.65 3.6 -7.0 -3.95 L-8.2 -8.85 M7.4 10.9 L6.8 9.85 6.25 8.85 M7.4 10.9 L7.9 11.75 M-7.55 11.6 L-7.15 10.7 -6.6 9.65 -6.2 8.7" fill="none" stroke="#a0a0a0" stroke-linecap="round" stroke-linejoin="round" stroke-width="0.05"/>
    <path d="M4.4 -6.8 L1.15 -7.2 Q0.7 -8.45 0.75 -10.0 L0.75 -10.05 1.4 -12.3 M-1.6 -12.25 L-1.05 -10.05 Q-1.05 -8.35 -1.55 -7.15 L-4.5 -6.85 M-4.7 -5.0 L-1.4 -5.45 -1.15 0.3 -0.85 6.6 Q-0.7 8.5 -1.4 9.25 M1.95 -5.4 L4.7 -5.0 M2.8 -9.95 L2.15 -9.95 M1.0 1.05 L0.75 6.6 Q0.7 8.25 1.35 9.25 M1.0 1.05 L1.25 -5.45 1.95 -5.4 M7.9 11.75 Q0.3 13.85 -7.55 11.6" fill="none" stroke="#576bc9" stroke-linecap="round" stroke-linejoin="round" stroke-width="0.05"/>
    <path d="M1.35 9.25 L4.45 9.1 6.25 8.85 M-1.4 9.25 L1.35 9.25 M3.75 11.6 L7.4 10.9 M6.8 9.85 L3.4 10.25 M2.15 11.75 Q0.2 11.9 -1.75 11.7 M-1.45 10.25 L1.9 10.3 M-1.4 9.25 L-4.1 9.0 -6.2 8.7 M-3.05 10.15 L-6.6 9.65 M-7.15 10.7 L-3.4 11.5" fill="none" stroke="#576bc9" stroke-linecap="round" stroke-linejoin="round" stroke-width="0.05"/>
    <path d="M1.4 -12.3 L3.55 -11.85 2.8 -9.95 4.0 -9.85 4.4 -6.8 M1.4 -12.3 L-1.6 -12.25 -3.3 -11.85 -2.8 -10.0 -2.2 -10.05 M4.75 6.85 L4.75 6.8 5.65 4.2 6.45 0.75 6.5 0.65 6.5 0.6 Q7.45 -0.65 7.4 -2.3 L7.0 -3.95 M3.4 10.25 L3.75 11.6 M1.9 10.3 L2.15 11.75 M-1.75 11.7 L-1.45 10.25 M-6.2 8.7 L-4.7 6.75 -5.6 4.15 -6.45 0.75 -6.45 0.6 Q-7.45 -0.65 -7.35 -2.35 L-7.0 -3.95 M4.75 6.85 L5.55 7.8 6.25 8.85 M-4.5 -6.85 L-4.25 -9.85 -2.8 -10.0 M-3.4 11.5 L-3.05 10.15" fill="none" stroke="#b03573" stroke-linecap="round" stroke-linejoin="round" stroke-width="0.05"/>
  </g>
</svg>
