<?xml version="1.0" encoding="UTF-8" standalone="no"?>
<svg xmlns:xlink="http://www.w3.org/1999/xlink" height="26.15px" width="16.6px" xmlns="http://www.w3.org/2000/svg">
  <g transform="matrix(1.0, 0.0, 0.0, 1.0, 8.3, 12.05)">
    <path d="M-6.7 -1.7 L-6.65 -1.65 -6.7 -1.65 -6.7 -1.7" fill="#3c4147" fill-rule="evenodd" stroke="none"/>
    <path d="M7.0 -3.95 L7.05 -3.85 7.0 -3.85 7.0 -3.95 M4.65 6.9 L4.7 6.9 4.65 6.95 4.65 6.9 M-6.45 0.55 L-6.45 0.6 -6.45 0.55" fill="#8f6078" fill-rule="evenodd" stroke="none"/>
    <path d="M4.75 6.8 L4.7 6.9 4.65 6.9 4.75 6.8" fill="#f5dfc5" fill-rule="evenodd" stroke="none"/>
    <path d="M5.2 -9.65 L7.35 -8.95 8.2 -8.55 Q8.25 -6.4 7.4 -4.6 L7.0 -3.95 7.0 -3.85 6.65 -0.8 Q5.0 -1.85 3.65 -3.65 L2.95 -4.6 1.9 -6.35 2.05 -8.55 3.7 -8.85 Q5.15 -9.2 5.2 -9.65 M-7.0 -3.9 L-7.0 -3.95 -7.85 -5.85 -8.2 -8.85 -7.9 -9.0 -6.2 -9.55 -5.1 -9.8 Q-5.1 -9.2 -3.6 -8.85 L-1.45 -8.5 -1.45 -6.4 -2.65 -4.35 -3.0 -3.9 -3.2 -3.7 Q-4.5 -2.35 -6.65 -1.65 L-6.7 -1.7 -7.0 -3.9 M-3.55 -10.7 Q-3.45 -11.15 -2.55 -11.55 L0.1 -11.95 2.75 -11.55 Q3.8 -11.1 3.85 -10.6 L3.7 -10.65 0.05 -11.05 -3.55 -10.7" fill="#b86c63" fill-rule="evenodd" stroke="none"/>
    <path d="M3.85 -10.6 Q5.2 -10.2 5.2 -9.75 L5.2 -9.65 Q5.15 -9.2 3.7 -8.85 L2.05 -8.55 0.05 -8.45 -1.45 -8.5 -3.6 -8.85 Q-5.1 -9.2 -5.1 -9.8 -5.1 -10.3 -3.6 -10.7 L-3.55 -10.7 0.05 -11.05 3.7 -10.65 3.85 -10.6" fill="#e39391" fill-rule="evenodd" stroke="none"/>
    <path d="M6.5 0.6 L6.5 0.65 6.45 0.75 5.65 4.2 4.75 6.8 4.65 6.9 4.65 6.95 Q7.95 12.55 0.4 14.05 L0.2 14.05 0.0 14.1 -0.05 14.1 Q-7.55 11.7 -4.75 6.95 L-4.65 6.85 -4.7 6.8 -4.7 6.75 -5.6 4.15 -6.45 0.75 -6.45 0.6 -6.45 0.55 -6.7 -1.65 -6.65 -1.65 Q-4.5 -2.35 -3.2 -3.7 L-3.0 -3.9 -2.65 -4.35 -2.45 -3.7 Q-1.35 0.45 0.05 1.45 1.8 -0.65 2.3 -2.2 L2.95 -4.6 3.65 -3.65 Q5.0 -1.85 6.65 -0.8 L6.5 0.6 M2.05 -8.55 L1.9 -6.35 Q0.15 -8.3 -1.45 -6.4 L-1.45 -8.5 0.05 -8.45 2.05 -8.55 M0.05 1.45 L0.2 14.05 0.05 1.45" fill="#ffffff" fill-rule="evenodd" stroke="none"/>
    <path d="M7.05 -3.85 L7.15 -3.65 7.4 -2.3 Q7.5 -0.65 6.5 0.6 L6.65 -0.8 7.0 -3.85 7.05 -3.85 M4.7 6.9 L5.95 8.4 7.85 11.75 7.95 12.85 Q5.2 13.85 3.0 13.9 L0.4 14.05 Q7.95 12.55 4.65 6.95 L4.7 6.9 M-0.05 14.1 L-3.0 13.9 Q-5.5 13.75 -7.95 12.8 L-7.65 11.85 -6.55 9.45 Q-5.85 7.9 -4.75 6.95 -7.55 11.7 -0.05 14.1 M-6.45 0.6 Q-7.4 -0.65 -7.35 -2.35 L-7.1 -3.7 -7.0 -3.9 -6.7 -1.7 -6.7 -1.65 -6.45 0.55 -6.45 0.6 M1.9 -6.35 L2.95 -4.6 2.3 -2.2 Q1.8 -0.65 0.05 1.45 -1.35 0.45 -2.45 -3.7 L-2.65 -4.35 -1.45 -6.4 Q0.15 -8.3 1.9 -6.35" fill="#e0e0e0" fill-rule="evenodd" stroke="none"/>
    <path d="M7.0 -3.95 L7.05 -3.85 7.15 -3.65 7.4 -2.3 Q7.5 -0.65 6.5 0.6 L6.5 0.65 6.45 0.75 5.65 4.2 4.75 6.8 M4.7 6.9 L5.95 8.4 7.85 11.75 7.95 12.85 M-7.95 12.8 L-7.65 11.85 -6.55 9.45 Q-5.85 7.9 -4.75 6.95 M-4.7 6.8 L-4.7 6.75 -5.6 4.15 -6.45 0.75 -6.45 0.6 Q-7.4 -0.65 -7.35 -2.35 L-7.1 -3.7 -7.0 -3.9 -7.0 -3.95 M0.2 14.05 L0.05 1.45" fill="none" stroke="#000000" stroke-linecap="round" stroke-linejoin="round" stroke-width="0.05"/>
    <path d="M2.05 -8.55 L1.9 -6.35 2.95 -4.6 3.65 -3.65 Q5.0 -1.85 6.65 -0.8 M-1.45 -6.4 L-1.45 -8.5 M-6.7 -1.65 L-6.65 -1.65 Q-4.5 -2.35 -3.2 -3.7 L-3.0 -3.9 -2.65 -4.35 -1.45 -6.4" fill="none" stroke="#6b2c2c" stroke-linecap="round" stroke-linejoin="round" stroke-width="0.05"/>
    <path d="M4.75 6.8 L4.7 6.9 M0.4 14.05 L0.2 14.05 0.0 14.1 -0.05 14.1 M-4.75 6.95 L-4.65 6.85 -4.7 6.8 M4.75 6.8 L4.65 6.9" fill="none" stroke="#a0a0a0" stroke-linecap="round" stroke-linejoin="round" stroke-width="0.05"/>
    <path d="M3.85 -10.6 Q5.2 -10.2 5.2 -9.75 L5.2 -9.65 7.35 -8.95 8.2 -8.55 Q8.25 -6.4 7.4 -4.6 L7.0 -3.95 M-7.0 -3.95 L-7.85 -5.85 -8.2 -8.85 -7.9 -9.0 -6.2 -9.55 -5.1 -9.8 Q-5.1 -10.3 -3.6 -10.7 L-3.55 -10.7 Q-3.45 -11.15 -2.55 -11.55 L0.1 -11.95 2.75 -11.55 Q3.8 -11.1 3.85 -10.6 L3.7 -10.65 0.05 -11.05 -3.55 -10.7 M2.05 -8.55 L3.7 -8.85 Q5.15 -9.2 5.2 -9.65 M-1.45 -8.5 L0.05 -8.45 2.05 -8.55 M-1.45 -8.5 L-3.6 -8.85 Q-5.1 -9.2 -5.1 -9.8" fill="none" stroke="#000000" stroke-linecap="round" stroke-linejoin="round" stroke-width="0.25"/>
  </g>
</svg>
