<?xml version="1.0" encoding="UTF-8" standalone="no"?>
<svg xmlns:xlink="http://www.w3.org/1999/xlink" height="27.4px" width="16.4px" xmlns="http://www.w3.org/2000/svg">
  <g transform="matrix(1.0, 0.0, 0.0, 1.0, 8.2, 12.9)">
    <path d="M-2.95 -10.0 Q-3.45 -11.95 -2.95 -12.4 -2.45 -12.85 0.0 -12.9 2.45 -12.95 3.0 -12.3 3.55 -11.7 3.0 -10.05 L3.0 -10.0 3.0 -9.95 2.95 -9.9 3.0 -9.95 3.0 -9.9 2.95 -9.9 Q-0.2 -9.1 -2.95 -10.0 M3.1 -10.0 L3.0 -9.95 3.0 -10.0 3.1 -10.0 M4.85 -9.75 L4.8 -9.65 4.8 -9.75 4.85 -9.75 M5.3 7.5 Q6.0 7.8 5.95 8.4 3.2 9.45 0.15 9.45 -2.8 9.45 -6.05 8.5 -6.0 7.85 -5.3 7.5 L0.15 8.2 5.3 7.5 M7.4 10.95 Q8.35 11.7 7.95 12.85 -0.2 16.15 -7.95 12.8 -8.15 11.6 -7.25 10.95 -0.05 13.55 7.4 10.95" fill="#ffffff" fill-rule="evenodd" stroke="none"/>
    <path d="M-2.95 -10.0 L-3.0 -10.0 -2.95 -10.0" fill="#f5dfc5" fill-rule="evenodd" stroke="none"/>
    <path d="M-2.95 -10.0 Q-0.2 -9.1 2.95 -9.9 L3.0 -9.9 Q3.25 -8.1 2.6 -6.7 0.1 -7.1 -2.3 -6.8 -3.15 -8.2 -3.0 -9.95 L-3.05 -10.0 -3.0 -10.0 -3.0 -9.95 -2.95 -10.0 M4.8 -9.65 L4.85 -9.75 8.2 -8.55 Q8.25 -6.7 7.7 -5.25 L4.1 -6.4 Q5.35 -8.0 4.8 -9.65 M-4.65 -9.85 Q-4.95 -8.15 -3.95 -6.5 L-7.65 -5.25 Q-8.25 -6.8 -8.2 -8.85 -6.5 -9.65 -4.65 -9.85 M5.95 3.1 L5.65 4.2 4.7 6.9 5.3 7.5 0.15 8.2 -5.3 7.5 -4.65 6.85 -4.7 6.8 -5.6 4.15 -5.9 3.1 Q0.0 -1.95 5.95 3.1 M0.15 5.3 L0.15 8.2 0.15 5.3" fill="#2f3032" fill-rule="evenodd" stroke="none"/>
    <path d="M3.0 -9.9 L3.0 -9.95 3.1 -10.0 Q4.25 -11.25 4.8 -9.75 L4.8 -9.65 Q5.35 -8.0 4.1 -6.4 L7.7 -5.25 7.0 -3.95 Q-0.3 -6.7 -7.0 -3.95 L-7.65 -5.25 -3.95 -6.5 Q-4.95 -8.15 -4.65 -9.85 L-4.65 -9.9 Q-4.3 -11.6 -3.05 -10.0 L-3.0 -9.95 Q-3.15 -8.2 -2.3 -6.8 0.1 -7.1 2.6 -6.7 3.25 -8.1 3.0 -9.9 M6.3 1.55 L5.95 3.1 Q0.0 -1.95 -5.9 3.1 L-6.3 1.5 Q0.2 -3.25 6.3 1.55" fill="#ff9933" fill-rule="evenodd" stroke="none"/>
    <path d="M-7.0 -3.95 Q-0.3 -6.7 7.0 -3.95 L7.4 -2.3 Q7.45 -0.65 6.5 0.6 L6.5 0.65 6.3 1.55 Q0.2 -3.25 -6.3 1.5 L-6.45 0.6 Q-7.45 -0.65 -7.35 -2.35 L-7.0 -3.95" fill="#c76401" fill-rule="evenodd" stroke="none"/>
    <path d="M5.95 8.4 Q7.35 9.3 7.4 10.95 -0.05 13.55 -7.25 10.95 -7.5 9.4 -6.05 8.5 -2.8 9.45 0.15 9.45 3.2 9.45 5.95 8.4" fill="#000000" fill-rule="evenodd" stroke="none"/>
    <path d="M3.0 -10.05 L3.0 -10.0 3.05 -10.05 3.0 -10.05 Q3.55 -11.7 3.0 -12.3 2.45 -12.95 0.0 -12.9 -2.45 -12.85 -2.95 -12.4 -3.45 -11.95 -2.95 -10.0 -0.2 -9.1 2.95 -9.9 L3.0 -9.95 3.0 -10.0 3.0 -10.05 M3.0 -9.9 L3.0 -9.95 3.1 -10.0 3.0 -10.0 3.0 -9.95 M4.85 -9.75 L4.8 -9.75 4.8 -9.65 Q5.35 -8.0 4.1 -6.4 L7.7 -5.25 Q8.25 -6.7 8.2 -8.55 L4.85 -9.75 M3.1 -10.0 Q4.25 -11.25 4.8 -9.75 M3.0 -9.9 Q3.25 -8.1 2.6 -6.7 0.1 -7.1 -2.3 -6.8 -3.15 -8.2 -3.0 -9.95 L-3.05 -10.0 Q-4.3 -11.6 -4.65 -9.9 L-4.65 -9.85 Q-4.95 -8.15 -3.95 -6.5 L-7.65 -5.25 -7.0 -3.95 Q-0.3 -6.7 7.0 -3.95 L7.7 -5.25 M6.3 1.55 L6.5 0.65 6.5 0.6 Q7.45 -0.65 7.4 -2.3 L7.0 -3.95 M6.3 1.55 L5.95 3.1 5.65 4.2 4.7 6.9 5.3 7.5 Q6.0 7.8 5.95 8.4 7.35 9.3 7.4 10.95 8.35 11.7 7.95 12.85 -0.2 16.15 -7.95 12.8 -8.15 11.6 -7.25 10.95 -7.5 9.4 -6.05 8.5 -6.0 7.85 -5.3 7.5 L-4.65 6.85 -4.7 6.8 -5.6 4.15 -5.9 3.1 -6.3 1.5 -6.45 0.6 Q-7.45 -0.65 -7.35 -2.35 L-7.0 -3.95 M5.3 7.5 L0.15 8.2 -5.3 7.5 M5.95 8.4 Q3.2 9.45 0.15 9.45 -2.8 9.45 -6.05 8.5 M-2.95 -10.0 L-3.0 -9.95 -3.0 -10.0 -3.05 -10.0 M-2.95 -10.0 L-3.0 -10.05 -2.95 -10.05 -2.95 -10.0 -3.0 -10.0 -2.95 -10.0 M-4.65 -9.85 Q-6.5 -9.65 -8.2 -8.85 -8.25 -6.8 -7.65 -5.25 M5.95 3.1 Q0.0 -1.95 -5.9 3.1 M-6.3 1.5 Q0.2 -3.25 6.3 1.55 M-7.25 10.95 Q-0.05 13.55 7.4 10.95" fill="none" stroke="#000000" stroke-linecap="round" stroke-linejoin="round" stroke-width="0.05"/>
    <path d="M0.15 8.2 L0.15 5.3" fill="none" stroke="#999999" stroke-linecap="round" stroke-linejoin="round" stroke-width="0.05"/>
  </g>
</svg>
