<?xml version="1.0" encoding="UTF-8" standalone="no"?>
<svg xmlns:xlink="http://www.w3.org/1999/xlink" height="31.1px" width="16.75px" xmlns="http://www.w3.org/2000/svg">
  <g transform="matrix(1.0, 0.0, 0.0, 1.0, 8.35, 14.4)">
    <path d="M6.25 -9.35 L6.25 -9.4 6.25 -9.35 M1.85 -7.2 L1.95 -6.95 2.45 -5.4 1.9 -6.35 1.2 -6.95 1.85 -7.2 M-1.35 -7.25 L-0.75 -7.0 -1.45 -6.4 -1.85 -5.65 -1.45 -7.05 -1.35 -7.25" fill="#b6cac8" fill-rule="evenodd" stroke="none"/>
    <path d="M2.7 -3.8 L2.8 -3.8 2.7 -3.75 2.7 -3.8 M4.65 6.95 L4.65 6.9 4.7 6.9 4.65 6.95" fill="#809b96" fill-rule="evenodd" stroke="none"/>
    <path d="M4.8 -9.75 Q3.35 -7.9 1.95 -7.25 L1.85 -7.2 1.2 -6.95 -0.75 -7.0 -1.35 -7.25 -1.45 -7.3 Q-2.85 -8.05 -4.25 -9.85 L-4.15 -9.9 -2.5 -11.1 Q0.25 -12.25 2.65 -11.1 L4.8 -9.8 4.8 -9.75 M2.8 -9.55 L3.0 -9.95 3.0 -10.0 2.8 -10.4 2.4 -10.55 2.0 -10.4 1.85 -9.95 Q1.85 -9.7 2.0 -9.55 L2.3 -9.35 2.4 -9.35 2.8 -9.55 M0.85 -10.45 L0.1 -10.75 -0.7 -10.45 -1.0 -9.65 -0.7 -8.9 -0.65 -8.85 Q-0.35 -8.55 0.1 -8.55 0.55 -8.55 0.85 -8.9 1.2 -9.2 1.2 -9.65 L0.85 -10.45 M-2.05 -10.4 L-2.45 -10.55 -2.85 -10.4 -3.0 -10.0 -3.0 -9.95 -2.85 -9.55 Q-2.65 -9.35 -2.45 -9.35 L-2.2 -9.4 -2.05 -9.55 -1.85 -9.95 -2.05 -10.4" fill="#224156" fill-rule="evenodd" stroke="none"/>
    <path d="M2.45 -5.4 L2.7 -3.8 2.7 -3.75 Q1.6 -3.15 0.25 -3.15 -1.15 -3.15 -2.2 -3.7 L-1.85 -5.65 -1.45 -6.4 -0.75 -7.0 1.2 -6.95 1.9 -6.35 2.45 -5.4 M-2.0 -2.15 Q-1.1 -1.75 0.1 -1.7 L2.15 -1.9 Q1.55 -0.45 0.05 1.45 -1.0 0.7 -2.0 -2.15 M8.0 12.25 L8.0 12.3 7.95 12.25 8.0 12.25 M-7.8 12.3 L-7.8 12.25 -7.8 12.3" fill="#e0e0e0" fill-rule="evenodd" stroke="none"/>
    <path d="M-2.0 -2.15 Q-1.0 0.7 0.05 1.45 1.55 -0.45 2.15 -1.9 L2.7 -2.1 Q3.45 0.5 3.55 3.05 3.65 5.55 3.4 7.05 5.1 10.75 4.8 12.95 L3.15 13.2 Q0.8 13.45 -3.25 13.1 L-4.35 13.0 -4.5 12.85 Q-4.85 11.5 -4.5 9.95 L-3.5 6.9 -3.55 3.15 Q-3.45 1.1 -2.5 -2.4 L-2.0 -2.15 M0.15 11.8 L0.05 1.45 0.15 11.8" fill="#ffffff" fill-rule="evenodd" stroke="none"/>
    <path d="M4.75 6.8 L4.7 6.9 4.65 6.9 4.75 6.8 M-4.65 6.85 L-4.7 6.8 -4.65 6.85" fill="#f5dfc5" fill-rule="evenodd" stroke="none"/>
    <path d="M8.0 12.3 Q8.7 13.7 8.1 15.35 5.4 16.3 2.7 16.6 5.15 15.65 4.8 12.95 5.8 12.9 7.95 12.25 L8.0 12.3 M-2.8 16.55 Q-5.0 16.35 -7.95 15.3 -8.85 13.95 -7.8 12.3 L-7.8 12.25 -4.35 13.0 Q-4.55 14.9 -2.8 16.55" fill="#000000" fill-rule="evenodd" stroke="none"/>
    <path d="M2.7 16.6 Q0.3 16.85 -2.8 16.55 -4.55 14.9 -4.35 13.0 L-3.25 13.1 Q0.8 13.45 3.15 13.2 L4.8 12.95 Q5.15 15.65 2.7 16.6" fill="#2f3f4a" fill-rule="evenodd" stroke="none"/>
    <path d="M-4.15 -9.9 L-4.25 -9.85 -4.25 -9.9 -4.15 -9.9" fill="#8e3939" fill-rule="evenodd" stroke="none"/>
    <path d="M3.55 -4.4 Q5.25 -5.95 6.25 -9.35 5.95 -4.95 4.1 -3.05 4.3 -3.7 3.55 -4.4" fill="#24a1e0" fill-rule="evenodd" stroke="none"/>
    <path d="M2.8 -3.8 L3.25 -4.15 3.55 -4.4 Q4.3 -3.7 4.1 -3.05 3.5 -2.45 2.7 -2.1 L2.15 -1.9 0.1 -1.7 Q-1.1 -1.75 -2.0 -2.15 L-2.5 -2.4 -3.65 -3.25 Q-5.55 -5.25 -5.6 -9.65 -4.95 -5.6 -2.85 -4.1 L-2.5 -3.85 -2.2 -3.7 Q-1.15 -3.15 0.25 -3.15 1.6 -3.15 2.7 -3.75 L2.8 -3.8 M2.8 -9.55 L2.4 -9.35 2.3 -9.35 2.0 -9.55 Q1.85 -9.7 1.85 -9.95 L2.0 -10.4 2.4 -10.55 2.8 -10.4 3.0 -10.0 3.0 -9.95 2.8 -9.55 M0.85 -10.45 L1.2 -9.65 Q1.2 -9.2 0.85 -8.9 0.55 -8.55 0.1 -8.55 -0.35 -8.55 -0.65 -8.85 L-0.7 -8.9 -1.0 -9.65 -0.7 -10.45 0.1 -10.75 0.85 -10.45 M-2.05 -10.4 L-1.85 -9.95 -2.05 -9.55 -2.2 -9.4 -2.45 -9.35 Q-2.65 -9.35 -2.85 -9.55 L-3.0 -9.95 -3.0 -10.0 -2.85 -10.4 -2.45 -10.55 -2.05 -10.4" fill="#8bd7fe" fill-rule="evenodd" stroke="none"/>
    <path d="M4.1 -3.05 Q5.3 -1.7 6.65 -0.8 L6.5 0.6 6.5 0.65 6.45 0.75 5.65 4.2 4.75 6.8 4.65 6.9 4.7 6.9 4.65 6.9 4.65 6.95 Q7.1 11.1 4.8 12.95 5.1 10.75 3.4 7.05 3.65 5.55 3.55 3.05 3.45 0.5 2.7 -2.1 3.5 -2.45 4.1 -3.05 M-4.25 -9.85 Q-2.85 -8.05 -1.45 -7.3 L-1.35 -7.25 -1.45 -7.05 -1.85 -5.65 -2.2 -3.7 -2.5 -3.85 -2.85 -4.1 Q-4.95 -5.6 -5.6 -9.65 -5.55 -5.25 -3.65 -3.25 L-2.5 -2.4 Q-3.45 1.1 -3.55 3.15 L-3.5 6.9 -4.5 9.95 Q-4.85 11.5 -4.5 12.85 -6.7 10.35 -4.75 6.95 L-4.65 6.85 -4.7 6.8 -4.7 6.75 -5.6 4.15 -6.45 0.75 -6.45 0.6 -6.7 -1.65 -7.0 -3.95 Q-8.3 -5.9 -8.2 -8.85 L-6.2 -9.55 -5.6 -9.7 -5.55 -9.7 -4.45 -9.85 -4.25 -9.9 -4.25 -9.85 M-3.65 -3.25 Q-4.85 -2.2 -6.7 -1.65 -4.85 -2.2 -3.65 -3.25" fill="#42ac81" fill-rule="evenodd" stroke="none"/>
    <path d="M4.8 -9.75 L5.0 -9.7 6.25 -9.35 Q5.25 -5.95 3.55 -4.4 L3.25 -4.15 2.8 -3.8 2.7 -3.8 2.45 -5.4 1.95 -6.95 1.85 -7.2 1.95 -7.25 Q3.35 -7.9 4.8 -9.75 M6.25 -9.35 L8.2 -8.55 Q8.25 -5.85 7.0 -3.95 L7.4 -2.3 Q7.45 -0.65 6.5 0.6 L6.65 -0.8 Q5.3 -1.7 4.1 -3.05 5.95 -4.95 6.25 -9.35 M2.65 -11.1 Q0.25 -12.25 -2.5 -11.1 -2.95 -11.7 -3.05 -13.3 0.1 -15.55 3.3 -13.25 3.15 -11.7 2.65 -11.1 M4.7 6.9 L5.95 8.4 7.85 11.75 8.0 12.25 7.95 12.25 Q5.8 12.9 4.8 12.95 7.1 11.1 4.65 6.95 L4.7 6.9 M-7.8 12.25 L-7.65 11.85 -6.55 9.45 Q-5.85 7.95 -4.75 6.95 -6.7 10.35 -4.5 12.85 L-4.35 13.0 -7.8 12.25 M-6.45 0.6 Q-7.45 -0.65 -7.35 -2.35 L-7.0 -3.95 -6.7 -1.65 -6.45 0.6" fill="#45916e" fill-rule="evenodd" stroke="none"/>
    <path d="M6.25 -9.35 L6.25 -9.4 6.25 -9.35 M4.8 -9.75 Q3.35 -7.9 1.95 -7.25 L1.85 -7.2 1.2 -6.95 -0.75 -7.0 -1.35 -7.25 -1.45 -7.3 Q-2.85 -8.05 -4.25 -9.85 L-4.15 -9.9 -2.5 -11.1 Q0.25 -12.25 2.65 -11.1 L4.8 -9.8 4.8 -9.75 M2.8 -9.55 L2.4 -9.35 2.3 -9.35 2.0 -9.55 Q1.85 -9.7 1.85 -9.95 L2.0 -10.4 2.4 -10.55 2.8 -10.4 3.0 -10.0 3.0 -9.95 2.8 -9.55 M0.85 -10.45 L1.2 -9.65 Q1.2 -9.2 0.85 -8.9 0.55 -8.55 0.1 -8.55 -0.35 -8.55 -0.65 -8.85 L-0.7 -8.9 -1.0 -9.65 -0.7 -10.45 0.1 -10.75 0.85 -10.45 M4.75 6.8 L4.7 6.9 M8.0 12.25 L8.0 12.3 Q8.7 13.7 8.1 15.35 5.4 16.3 2.7 16.6 0.3 16.85 -2.8 16.55 -5.0 16.35 -7.95 15.3 -8.85 13.95 -7.8 12.3 L-7.8 12.25 -4.35 13.0 -3.25 13.1 Q0.8 13.45 3.15 13.2 L4.8 12.95 Q5.8 12.9 7.95 12.25 L8.0 12.3 M-4.75 6.95 L-4.65 6.85 -4.7 6.8 M-4.25 -9.9 L-4.15 -9.9 M4.65 6.9 L4.75 6.8 M-2.05 -10.4 L-1.85 -9.95 -2.05 -9.55 -2.2 -9.4 -2.45 -9.35 Q-2.65 -9.35 -2.85 -9.55 L-3.0 -9.95 -3.0 -10.0 -2.85 -10.4 -2.45 -10.55 -2.05 -10.4 M-7.8 12.25 L-7.8 12.3" fill="none" stroke="#000000" stroke-linecap="round" stroke-linejoin="round" stroke-width="0.05"/>
    <path d="M1.85 -7.2 L1.95 -6.95 2.45 -5.4 2.7 -3.8 2.7 -3.75 M4.8 12.95 Q5.1 10.75 3.4 7.05 3.65 5.55 3.55 3.05 3.45 0.5 2.7 -2.1 M0.05 1.45 L0.15 11.8 M-1.85 -5.65 L-1.45 -7.05 -1.35 -7.25 M-2.2 -3.7 L-1.85 -5.65 M-4.35 13.0 L-4.5 12.85 Q-4.85 11.5 -4.5 9.95 L-3.5 6.9 -3.55 3.15 Q-3.45 1.1 -2.5 -2.4" fill="none" stroke="#999999" stroke-linecap="round" stroke-linejoin="round" stroke-width="0.05"/>
    <path d="M4.1 -3.05 Q5.3 -1.7 6.65 -0.8 M6.5 0.6 Q7.45 -0.65 7.4 -2.3 L7.0 -3.95 M6.5 0.6 L6.5 0.65 6.45 0.75 5.65 4.2 4.75 6.8 M-6.7 -1.65 Q-4.85 -2.2 -3.65 -3.25 M-4.7 6.8 L-4.65 6.85" fill="none" stroke="#666666" stroke-linecap="round" stroke-linejoin="round" stroke-width="0.05"/>
    <path d="M6.25 -9.35 Q5.95 -4.95 4.1 -3.05 3.5 -2.45 2.7 -2.1 L2.15 -1.9 0.1 -1.7 Q-1.1 -1.75 -2.0 -2.15 L-2.5 -2.4 -3.65 -3.25 Q-5.55 -5.25 -5.6 -9.65" fill="none" stroke="#029ad2" stroke-linecap="round" stroke-linejoin="round" stroke-width="0.05"/>
    <path d="M6.25 -9.35 L5.0 -9.7 4.8 -9.75 M8.2 -8.55 L6.25 -9.35 M2.65 -11.1 Q3.15 -11.7 3.3 -13.25 0.1 -15.55 -3.05 -13.3 -2.95 -11.7 -2.5 -11.1 M4.7 6.9 L5.95 8.4 7.85 11.75 8.0 12.25 M-7.8 12.25 L-7.65 11.85 -6.55 9.45 Q-5.85 7.95 -4.75 6.95 M-4.7 6.8 L-4.7 6.75 -5.6 4.15 -6.45 0.75 -6.45 0.6 Q-7.45 -0.65 -7.35 -2.35 L-7.0 -3.95 M-8.2 -8.85 L-6.2 -9.55 -5.6 -9.7 -5.55 -9.7 -4.45 -9.85 -4.25 -9.9" fill="none" stroke="#666666" stroke-linecap="round" stroke-linejoin="round" stroke-width="0.05"/>
  </g>
</svg>
