<?xml version="1.0" encoding="UTF-8" standalone="no"?>
<svg xmlns:xlink="http://www.w3.org/1999/xlink" height="26.65px" width="16.4px" xmlns="http://www.w3.org/2000/svg">
  <g transform="matrix(1.0, 0.0, 0.0, 1.0, 8.2, 13.1)">
    <path d="M-6.45 0.7 L-6.4 0.75 -6.45 0.8 -6.45 0.7 M6.4 0.8 L6.5 0.7 6.45 0.8 6.4 0.8 M-1.6 -13.1 L-1.6 -12.9 -1.65 -13.1 -1.6 -13.1" fill="#f5dfc5" fill-rule="evenodd" stroke="none"/>
    <path d="M2.85 -7.0 L7.0 -4.0 7.0 -3.95 7.25 -3.35 Q6.8 1.4 2.75 0.5 L2.35 0.4 Q0.3 -0.6 -2.6 0.5 -8.05 1.45 -7.0 -3.95 L-7.0 -4.0 -7.0 -4.05 -3.45 -7.7 Q-2.35 -6.15 0.1 -5.75 1.7 -6.2 2.85 -7.0 M4.6 6.3 L4.55 6.35 4.65 6.45 Q5.3 7.8 5.35 9.5 L5.2 10.25 Q3.75 11.75 4.1 13.1 L1.7 13.35 0.0 13.55 -1.7 13.35 -3.45 13.15 Q-3.9 11.2 -5.1 9.95 -4.8 5.6 -2.65 3.95 -0.2 2.0 2.0 3.45 3.75 4.6 4.6 6.3" fill="#ffffff" fill-rule="evenodd" stroke="none"/>
    <path d="M7.25 -3.35 L7.4 -2.3 Q7.45 -0.6 6.5 0.7 L6.4 0.8 5.8 3.15 5.7 3.55 4.6 6.3 Q3.75 4.6 2.0 3.45 -0.2 2.0 -2.65 3.95 -4.8 5.6 -5.1 9.95 -3.9 11.2 -3.45 13.15 L-7.35 12.35 -7.0 11.05 Q-6.25 7.85 -4.55 6.3 L-5.65 3.5 -5.8 3.1 -6.4 0.75 -6.45 0.7 Q-7.45 -0.6 -7.35 -2.3 L-7.0 -3.95 Q-8.05 1.45 -2.6 0.5 0.3 -0.6 2.35 0.4 L2.75 0.5 Q6.8 1.4 7.25 -3.35 M6.4 0.8 Q5.4 2.05 3.85 2.15 L2.5 2.0 1.9 1.75 1.85 1.7 Q-0.05 0.6 -1.75 1.65 L-1.8 1.7 -3.8 2.15 Q-5.4 2.05 -6.4 0.75 -5.4 2.05 -3.8 2.15 L-1.8 1.7 -1.75 1.65 Q-0.05 0.6 1.85 1.7 L1.9 1.75 2.5 2.0 3.85 2.15 Q5.4 2.05 6.4 0.8 M4.65 6.45 L5.45 7.25 Q6.3 8.15 7.35 11.05 L7.75 12.2 7.75 12.3 4.1 13.1 Q3.75 11.75 5.2 10.25 L5.35 9.5 Q5.3 7.8 4.65 6.45" fill="#e0e0e0" fill-rule="evenodd" stroke="none"/>
    <path d="M2.85 -7.0 Q3.65 -7.55 4.25 -8.3 L5.2 -9.95 8.2 -9.0 Q8.0 -5.6 7.0 -4.0 L2.85 -7.0 M-3.45 -7.7 L-7.0 -4.05 -7.0 -4.0 Q-8.1 -6.35 -8.2 -9.2 L-4.4 -10.15 -3.8 -8.3 -3.45 -7.7" fill="#8e3939" fill-rule="evenodd" stroke="none"/>
    <path d="M6.5 0.7 Q7.45 -0.6 7.4 -2.3 L7.25 -3.35 7.0 -3.95 7.0 -4.0 M-7.0 -3.95 L-7.35 -2.3 Q-7.45 -0.6 -6.45 0.7 L-6.4 0.75 Q-5.4 2.05 -3.8 2.15 L-1.8 1.7 -1.75 1.65 Q-0.05 0.6 1.85 1.7 L1.9 1.75 2.5 2.0 3.85 2.15 Q5.4 2.05 6.4 0.8 L6.5 0.7 6.45 0.8 M6.4 0.8 L5.8 3.15 5.7 3.55 4.6 6.3 4.55 6.35 4.65 6.45 5.45 7.25 Q6.3 8.15 7.35 11.05 L7.75 12.2 7.75 12.3 4.1 13.1 1.7 13.35 0.0 13.55 -1.7 13.35 -3.45 13.15 -7.35 12.35 -7.0 11.05 Q-6.25 7.85 -4.55 6.3 L-5.65 3.5 -5.8 3.1 -6.4 0.75 M-6.45 0.8 L-6.45 0.7 M-1.6 -12.9 L-1.65 -13.1 -1.6 -13.1" fill="none" stroke="#a0a0a0" stroke-linecap="round" stroke-linejoin="round" stroke-width="0.05"/>
    <path d="M8.2 -9.0 L5.2 -9.95 4.25 -8.3 Q3.65 -7.55 2.85 -7.0 1.7 -6.2 0.1 -5.75 -2.35 -6.15 -3.45 -7.7 L-3.8 -8.3 -4.4 -10.15 -8.2 -9.2 M-7.0 -4.05 L-7.0 -4.0" fill="none" stroke="#6b2c2c" stroke-linecap="round" stroke-linejoin="round" stroke-width="0.05"/>
  </g>
</svg>
