<?xml version="1.0" encoding="UTF-8" standalone="no"?>
<svg xmlns:xlink="http://www.w3.org/1999/xlink" height="25.95px" width="16.4px" xmlns="http://www.w3.org/2000/svg">
  <g transform="matrix(1.0, 0.0, 0.0, 1.0, 8.2, 9.85)">
    <path d="M-6.45 0.7 L-6.4 0.75 -6.45 0.8 -6.45 0.7 M6.4 0.8 L6.5 0.7 6.45 0.8 6.4 0.8" fill="#f5dfc5" fill-rule="evenodd" stroke="none"/>
    <path d="M7.4 11.25 L7.4 11.3 7.35 11.3 7.4 11.25 M-7.1 11.4 L-7.05 11.25 -7.0 11.3 -7.1 11.4 M-3.75 12.1 L-3.8 12.1 -3.75 12.1" fill="#ca8c60" fill-rule="evenodd" stroke="none"/>
    <path d="M7.4 11.3 L7.5 11.3 Q8.0 12.0 8.05 13.3 6.3 14.25 4.15 14.4 L4.15 14.35 4.0 13.15 Q3.95 12.35 4.05 12.25 L7.35 11.3 7.4 11.3 M-3.4 14.45 L-4.6 14.2 -7.6 13.3 Q-7.5 11.95 -7.1 11.4 L-7.0 11.3 -3.85 12.1 -3.55 13.1 -3.45 13.7 -3.4 14.45" fill="#aedbfb" fill-rule="evenodd" stroke="none"/>
    <path d="M4.15 14.4 L2.8 14.6 3.0 13.25 2.75 12.3 4.05 12.25 Q3.95 12.35 4.0 13.15 L4.15 14.35 4.15 14.4 M-1.7 14.65 L-2.45 14.55 -3.4 14.45 -3.45 13.7 -3.55 13.1 -3.85 12.1 -3.8 12.1 -3.75 12.1 -1.75 12.25 Q-2.05 12.9 -1.95 13.7 L-1.7 14.65 M8.2 -9.0 L5.95 -7.3 5.8 -9.8 8.2 -9.0 M-5.75 -7.2 L-8.15 -9.15 -8.2 -9.2 -5.9 -9.85 -5.75 -7.2" fill="#d7ebfd" fill-rule="evenodd" stroke="none"/>
    <path d="M0.85 16.1 L0.75 16.1 0.8 16.0 0.85 16.1 M0.15 13.7 L-0.1 13.9 -0.15 13.9 -0.55 13.7 -0.6 13.65 -0.7 13.25 -0.55 12.85 -0.55 12.8 -0.25 12.7 Q-0.05 12.65 0.05 12.8 L0.25 13.2 0.15 13.7" fill="#ffffff" fill-rule="evenodd" stroke="none"/>
    <path d="M0.8 16.0 L-0.55 15.65 -0.8 15.45 -1.4 14.65 -1.6 13.9 Q-1.7 12.95 -1.2 12.3 L-1.15 12.2 -0.4 11.6 0.35 11.4 Q1.2 11.3 1.9 11.9 L2.2 12.2 2.25 12.3 2.65 13.5 2.55 14.6 2.2 15.15 2.05 15.35 Q1.55 15.9 0.8 16.0 M0.15 13.7 L0.25 13.2 0.05 12.8 Q-0.05 12.65 -0.25 12.7 L-0.55 12.8 -0.55 12.85 -0.7 13.25 -0.6 13.65 -0.55 13.7 -0.15 13.9 -0.1 13.9 0.15 13.7" fill="#e7cd78" fill-rule="evenodd" stroke="none"/>
    <path d="M7.25 -3.35 L7.4 -2.3 Q7.45 -0.6 6.5 0.7 L6.4 0.8 5.8 3.15 5.7 3.55 4.6 6.3 Q3.75 4.6 2.0 3.45 -0.2 2.0 -2.65 3.95 -4.8 5.6 -5.1 9.95 -4.25 10.85 -3.75 12.1 L-3.8 12.1 -3.85 12.1 -7.0 11.3 -7.05 11.25 -7.0 11.05 Q-6.25 7.85 -4.55 6.3 L-5.65 3.5 -5.8 3.1 -6.4 0.75 -6.45 0.7 Q-7.45 -0.6 -7.35 -2.3 L-7.0 -3.95 Q-8.05 1.45 -2.6 0.5 L1.45 0.35 4.3 0.8 Q6.2 1.15 7.25 -3.35 M6.4 0.8 Q5.4 2.05 3.85 2.15 L3.25 2.15 2.85 2.1 Q0.05 1.5 -2.75 2.05 L-3.8 2.15 Q-5.4 2.05 -6.4 0.75 -5.4 2.05 -3.8 2.15 L-2.75 2.05 Q0.05 1.5 2.85 2.1 L3.25 2.15 3.85 2.15 Q5.4 2.05 6.4 0.8 M4.65 6.45 L5.45 7.25 Q6.3 8.15 7.35 11.05 L7.4 11.25 7.35 11.3 4.05 12.25 Q4.2 11.3 5.2 10.25 L5.35 9.5 Q5.3 7.8 4.65 6.45 M2.8 14.6 L2.45 15.15 2.05 15.6 Q1.55 16.0 0.85 16.1 L0.8 16.0 Q1.55 15.9 2.05 15.35 L2.2 15.15 2.55 14.6 2.65 13.5 2.25 12.3 2.2 12.2 1.9 11.9 Q1.2 11.3 0.35 11.4 L-0.4 11.6 -1.15 12.2 -1.2 12.3 Q-1.7 12.95 -1.6 13.9 L-1.4 14.65 -0.8 15.45 -0.55 15.65 0.8 16.0 0.75 16.1 -0.6 15.8 -1.05 15.5 -1.7 14.65 -1.95 13.7 Q-2.05 12.9 -1.75 12.25 L-1.4 11.7 -0.4 11.0 0.3 10.8 Q1.25 10.65 2.05 11.4 L2.15 11.45 2.75 12.3 3.0 13.25 2.8 14.6" fill="#59929f" fill-rule="evenodd" stroke="none"/>
    <path d="M7.25 -3.35 Q6.2 1.15 4.3 0.8 L1.45 0.35 -2.6 0.5 Q-8.05 1.45 -7.0 -3.95 L-7.0 -4.0 -7.05 -4.25 Q-8.05 -6.05 -8.15 -9.15 L-5.75 -7.2 -0.15 -2.75 5.95 -7.3 8.2 -9.0 Q8.05 -6.0 7.0 -3.95 L7.25 -3.35 M4.6 6.3 L4.55 6.35 4.65 6.45 Q5.3 7.8 5.35 9.5 L5.2 10.25 Q4.2 11.3 4.05 12.25 L2.75 12.3 2.15 11.45 2.05 11.4 Q1.25 10.65 0.3 10.8 L-0.4 11.0 -1.4 11.7 -1.75 12.25 -3.75 12.1 Q-4.25 10.85 -5.1 9.95 -4.8 5.6 -2.65 3.95 -0.2 2.0 2.0 3.45 3.75 4.6 4.6 6.3" fill="#8db7c0" fill-rule="evenodd" stroke="none"/>
    <path d="M6.5 0.7 Q7.45 -0.6 7.4 -2.3 L7.25 -3.35 7.0 -3.95 M-7.0 -3.95 L-7.35 -2.3 Q-7.45 -0.6 -6.45 0.7 L-6.4 0.75 Q-5.4 2.05 -3.8 2.15 L-2.75 2.05 Q0.05 1.5 2.85 2.1 L3.25 2.15 3.85 2.15 Q5.4 2.05 6.4 0.8 L6.5 0.7 6.45 0.8 M6.4 0.8 L5.8 3.15 5.7 3.55 4.6 6.3 4.55 6.35 4.65 6.45 5.45 7.25 Q6.3 8.15 7.35 11.05 L7.4 11.25 7.4 11.3 7.5 11.3 Q8.0 12.0 8.05 13.3 6.3 14.25 4.15 14.4 L2.8 14.6 2.45 15.15 2.05 15.6 Q1.55 16.0 0.85 16.1 L0.75 16.1 -0.6 15.8 -1.05 15.5 -1.7 14.65 -2.45 14.55 -3.4 14.45 -4.6 14.2 -7.6 13.3 Q-7.5 11.95 -7.1 11.4 L-7.05 11.25 -7.0 11.05 Q-6.25 7.85 -4.55 6.3 L-5.65 3.5 -5.8 3.1 -6.4 0.75 M-6.45 0.8 L-6.45 0.7 M8.2 -9.0 L5.95 -7.3 -0.15 -2.75 -5.75 -7.2 -8.15 -9.15 -8.2 -9.2 -5.9 -9.85 -5.75 -7.2 M-7.05 -4.25 L-7.0 -4.0 M8.2 -9.0 L5.8 -9.8 5.95 -7.3 M-1.75 12.25 L-1.4 11.7 -0.4 11.0 0.3 10.8 Q1.25 10.65 2.05 11.4 L2.15 11.45 2.75 12.3 4.05 12.25 7.35 11.3 7.4 11.3 M4.15 14.35 L4.15 14.4 M-3.75 12.1 L-1.75 12.25 Q-2.05 12.9 -1.95 13.7 L-1.7 14.65 M2.8 14.6 L3.0 13.25 2.75 12.3 M-7.1 11.4 L-7.0 11.3 -3.85 12.1 -3.8 12.1 -3.75 12.1" fill="none" stroke="#305054" stroke-linecap="round" stroke-linejoin="round" stroke-width="0.05"/>
    <path d="M-0.65 -0.6 Q-0.35 -0.3 0.0 -0.25 L0.3 -0.3 0.6 -0.5 0.7 -0.6 0.95 -1.35 0.75 -1.95 0.6 -2.1 0.55 -2.25 -0.1 -2.5 -0.45 -2.45 -0.8 -2.2 -1.05 -1.5 -0.75 -0.7 -0.65 -0.6 M-0.65 -0.5 L-0.85 -0.7 -1.2 -1.6 Q-1.25 -2.15 -0.9 -2.45 L-0.45 -2.75 -0.1 -2.75 0.55 -2.55 0.75 -2.35 0.75 -2.3 1.1 -1.45 0.8 -0.6 0.55 -0.35 0.3 -0.25 0.25 -0.25 0.0 -0.2 -0.05 -0.2 Q-0.4 -0.3 -0.65 -0.5" fill="#59929f" fill-rule="evenodd" stroke="none"/>
    <path d="M-0.55 -1.3 L-0.55 -1.35 -0.4 -1.4 -0.25 -1.3 -0.2 -1.1 -0.25 -0.85 -0.35 -0.75 -0.55 -0.9 -0.55 -0.95 -0.6 -1.1 -0.55 -1.3" fill="#ffffff" fill-rule="evenodd" stroke="none"/>
    <path d="M-0.55 -1.3 L-0.6 -1.1 -0.55 -0.95 -0.55 -0.9 -0.35 -0.75 -0.25 -0.85 -0.2 -1.1 -0.25 -1.3 -0.4 -1.4 -0.55 -1.35 -0.55 -1.3 M-0.65 -0.6 L-0.75 -0.7 -1.05 -1.5 -0.8 -2.2 -0.45 -2.45 -0.1 -2.5 0.55 -2.25 0.6 -2.1 0.75 -1.95 0.95 -1.35 0.7 -0.6 0.6 -0.5 0.3 -0.3 0.0 -0.25 Q-0.35 -0.3 -0.65 -0.6" fill="#d7ebfd" fill-rule="evenodd" stroke="none"/>
    <path d="M-0.65 -0.5 L-0.85 -0.7 -1.2 -1.6 Q-1.25 -2.15 -0.9 -2.45 L-0.45 -2.75 -0.1 -2.75 0.55 -2.55 0.75 -2.35 0.75 -2.3 1.1 -1.45 0.8 -0.6 0.55 -0.35 0.3 -0.25 0.25 -0.25 0.0 -0.2 -0.05 -0.2 Q-0.4 -0.3 -0.65 -0.5 Z" fill="none" stroke="#b03573" stroke-linecap="round" stroke-linejoin="round" stroke-width="0.05"/>
  </g>
</svg>
