<?xml version="1.0" encoding="UTF-8" standalone="no"?>
<svg xmlns:xlink="http://www.w3.org/1999/xlink" height="27.5px" width="16.6px" xmlns="http://www.w3.org/2000/svg">
  <g transform="matrix(1.0, 0.0, 0.0, 1.0, 8.2, 11.8)">
    <path d="M1.8 -11.55 L1.8 -11.6 1.8 -11.55 M6.4 0.8 L6.5 0.7 6.45 0.8 6.4 0.8 M-6.4 0.75 L-6.45 0.8 -6.45 0.7 -6.4 0.75" fill="#f5dfc5" fill-rule="evenodd" stroke="none"/>
    <path d="M1.7 -8.85 L2.15 -8.85 2.2 -8.85 2.9 -8.85 2.2 -8.85 2.15 -8.85 1.7 -8.85" fill="#a56c5f" fill-rule="evenodd" stroke="none"/>
    <path d="M5.55 -8.05 L5.4 -8.15 Q5.15 -8.25 5.0 -8.3 L4.8 -8.35 4.1 -8.55 4.0 -8.55 2.9 -8.85 2.2 -8.85 2.15 -8.85 1.7 -8.85 2.1 -10.0 2.1 -10.05 2.2 -10.4 2.1 -10.65 1.8 -11.55 2.85 -11.3 1.8 -11.55 1.85 -11.55 2.85 -11.3 3.85 -10.6 4.15 -10.2 4.5 -10.15 4.6 -10.1 4.15 -10.2 5.4 -8.55 5.6 -8.3 5.85 -7.95 5.55 -8.05 M1.7 -8.85 L2.1 -8.3 2.15 -8.25 2.8 -7.35 2.65 -7.15 2.8 -7.35 2.15 -8.25 2.1 -8.3 2.25 -8.3 2.7 -8.3 2.7 -8.25 3.15 -8.25 3.8 -8.1 3.75 -7.95 3.65 -7.8 Q2.15 -4.45 0.05 -1.2 -2.3 -4.5 -3.8 -7.8 L-3.85 -7.85 -3.85 -7.9 -3.8 -7.95 -2.5 -8.2 -2.3 -8.25 -2.95 -7.65 -2.65 -7.25 -2.95 -7.65 -2.3 -8.25 -1.7 -8.9 -2.45 -8.9 -4.15 -8.5 -4.2 -8.5 -4.3 -8.45 -4.55 -8.4 -4.7 -8.35 -4.8 -8.35 -5.6 -8.15 -5.45 -8.35 -5.4 -8.45 -4.05 -10.15 -4.05 -10.2 -4.0 -10.2 -3.55 -10.8 -3.15 -11.05 -2.6 -11.45 -1.75 -11.8 -1.8 -11.6 -1.95 -11.05 -2.0 -10.85 -2.1 -10.55 -2.2 -10.4 -1.7 -8.9 -0.05 -3.4 -2.65 -7.25 -2.85 -7.1 -0.1 -2.6 2.9 -6.8 2.65 -7.15 -0.05 -3.4 1.7 -8.85 M-4.05 -10.15 L-4.0 -10.2 -4.05 -10.15" fill="#ffffff" fill-rule="evenodd" stroke="none"/>
    <path d="M4.0 -8.55 L3.9 -8.3 3.8 -8.1 3.15 -8.25 2.7 -8.25 2.7 -8.3 2.25 -8.3 2.1 -8.3 1.7 -8.85 2.15 -8.85 2.2 -8.85 2.9 -8.85 4.0 -8.55 M-0.05 -3.4 L2.65 -7.15 2.9 -6.8 -0.1 -2.6 -2.85 -7.1 -2.65 -7.25 -0.05 -3.4 M-2.3 -8.25 L-2.5 -8.2 -3.8 -7.95 -3.85 -7.9 -4.05 -8.35 -4.15 -8.5 -2.45 -8.9 -1.7 -8.9 -2.3 -8.25" fill="#d1d1d1" fill-rule="evenodd" stroke="none"/>
    <path d="M4.0 -8.55 L4.1 -8.55 4.8 -8.35 5.0 -8.3 Q5.15 -8.25 5.4 -8.15 L5.55 -8.05 6.1 -7.35 5.25 -7.7 5.05 -7.75 4.35 -7.95 3.8 -8.1 3.9 -8.3 4.0 -8.55 M5.6 -8.3 L5.4 -8.55 5.75 -8.3 5.6 -8.3 M0.05 -0.05 L0.65 -0.05 Q1.55 0.0 2.35 0.4 L2.75 0.5 Q6.8 1.4 7.25 -3.35 L7.4 -2.3 Q7.45 -0.6 6.5 0.7 L6.4 0.8 5.8 3.15 5.7 3.55 4.6 6.3 Q3.75 4.6 2.0 3.45 1.1 2.85 0.15 2.85 L0.1 1.85 2.55 2.05 3.3 2.15 3.85 2.15 Q5.4 2.05 6.4 0.8 5.4 2.05 3.85 2.15 L3.3 2.15 2.55 2.05 0.1 1.85 0.15 2.85 Q-1.25 2.8 -2.65 3.95 -4.8 5.6 -5.1 9.95 -3.9 11.2 -3.45 13.15 L-7.35 12.35 -7.0 11.05 Q-6.25 7.85 -4.55 6.3 L-5.65 3.5 -5.8 3.1 -6.4 0.75 Q-5.4 2.05 -3.8 2.15 L-3.15 2.15 -2.65 2.05 0.1 1.85 0.05 -0.05 0.1 1.85 -2.65 2.05 -3.15 2.15 -3.8 2.15 Q-5.4 2.05 -6.4 0.75 L-6.45 0.7 Q-7.45 -0.6 -7.35 -2.3 L-7.0 -3.95 Q-8.05 1.45 -2.6 0.5 -1.15 -0.05 0.05 -0.05 M4.65 6.45 L5.45 7.25 Q6.3 8.15 7.35 11.05 L7.75 12.2 7.75 12.25 7.75 12.3 Q8.8 13.6 8.2 14.3 6.85 15.15 4.1 15.35 L4.1 13.1 Q3.75 11.75 5.2 10.25 L5.35 9.5 Q5.3 7.8 4.65 6.45 M-3.45 15.3 Q-6.15 14.8 -7.5 14.1 -8.35 13.3 -7.35 12.35 L-3.45 13.15 -3.45 15.3 M7.75 12.3 L4.1 13.1 7.75 12.3 M-5.4 -8.45 L-5.45 -8.35 -5.5 -8.35 -5.4 -8.45 M-4.8 -8.35 L-4.7 -8.35 -4.55 -8.4 -4.3 -8.45 -4.2 -8.5 -4.15 -8.5 -4.05 -8.35 -3.85 -7.9 -3.9 -7.9 -3.95 -7.9 -4.05 -7.85 -4.55 -7.75 -5.35 -7.55 -4.75 -8.35 -4.8 -8.35" fill="#de7238" fill-rule="evenodd" stroke="none"/>
    <path d="M3.8 -8.1 L4.35 -7.95 5.05 -7.75 5.25 -7.7 6.1 -7.35 5.55 -8.05 5.85 -7.95 5.6 -8.3 5.75 -8.3 5.4 -8.55 4.15 -10.2 4.6 -10.1 8.2 -9.0 Q7.85 -6.3 7.0 -3.95 L7.25 -3.35 Q6.8 1.4 2.75 0.5 L2.35 0.4 Q1.55 0.0 0.65 -0.05 L0.05 -0.05 0.05 -1.2 0.05 -0.05 Q-1.15 -0.05 -2.6 0.5 -8.05 1.45 -7.0 -3.95 L-7.0 -4.0 -7.05 -4.25 Q-8.0 -6.75 -8.2 -9.2 L-4.75 -10.1 -4.05 -10.2 -4.05 -10.15 -5.4 -8.45 -5.5 -8.35 -5.45 -8.35 -5.6 -8.15 -4.8 -8.35 -4.75 -8.35 -5.35 -7.55 -4.55 -7.75 -4.05 -7.85 -3.95 -7.9 -3.9 -7.9 -3.85 -7.9 -3.85 -7.85 -3.8 -7.8 Q-2.3 -4.5 0.05 -1.2 2.15 -4.45 3.65 -7.8 L3.75 -7.95 3.8 -8.1 M0.15 2.85 Q1.1 2.85 2.0 3.45 3.75 4.6 4.6 6.3 L4.55 6.35 4.65 6.45 Q5.3 7.8 5.35 9.5 L5.2 10.25 Q3.75 11.75 4.1 13.1 L4.1 15.35 0.5 15.7 -3.45 15.3 -3.45 13.15 -1.4 13.4 0.4 13.5 0.15 2.85 0.4 13.5 -1.4 13.4 -3.45 13.15 Q-3.9 11.2 -5.1 9.95 -4.8 5.6 -2.65 3.95 -1.25 2.8 0.15 2.85 M0.5 15.7 L0.4 13.5 2.05 13.4 4.1 13.1 2.05 13.4 0.4 13.5 0.5 15.7" fill="#e89a71" fill-rule="evenodd" stroke="none"/>
    <path d="M4.0 -8.55 L3.9 -8.3 3.8 -8.1 3.75 -7.95 3.65 -7.8 Q2.15 -4.45 0.05 -1.2 -2.3 -4.5 -3.8 -7.8 M-7.0 -4.0 L-7.05 -4.25 M-8.2 -9.2 L-4.75 -10.1 M-3.85 -7.9 L-4.05 -8.35 -4.15 -8.5" fill="none" stroke="#68413c" stroke-linecap="round" stroke-linejoin="round" stroke-width="0.05"/>
    <path d="M4.6 -10.1 L4.15 -10.2 M0.05 -1.2 L0.05 -0.05 0.1 1.85 0.15 2.85 0.4 13.5 0.5 15.7 -3.45 15.3 Q-6.15 14.8 -7.5 14.1 -8.35 13.3 -7.35 12.35 L-7.0 11.05 Q-6.25 7.85 -4.55 6.3 L-5.65 3.5 -5.8 3.1 -6.4 0.75 Q-5.4 2.05 -3.8 2.15 L-3.15 2.15 -2.65 2.05 0.1 1.85 2.55 2.05 3.3 2.15 3.85 2.15 Q5.4 2.05 6.4 0.8 L6.5 0.7 Q7.45 -0.6 7.4 -2.3 L7.25 -3.35 7.0 -3.95 M8.2 -9.0 L4.6 -10.1 M-3.85 -7.9 L-3.85 -7.85 -3.8 -7.8 M6.45 0.8 L6.5 0.7 M4.6 6.3 L5.7 3.55 5.8 3.15 6.4 0.8 M4.6 6.3 L4.55 6.35 4.65 6.45 5.45 7.25 Q6.3 8.15 7.35 11.05 L7.75 12.2 7.75 12.25 7.75 12.3 Q8.8 13.6 8.2 14.3 6.85 15.15 4.1 15.35 L0.5 15.7 M-6.45 0.8 L-6.45 0.7 Q-7.45 -0.6 -7.35 -2.3 L-7.0 -3.95 M-4.75 -10.1 L-4.05 -10.2 -4.0 -10.2 M-3.15 -11.05 L-2.6 -11.45 M4.1 13.1 L7.75 12.3 M4.1 13.1 L2.05 13.4 0.4 13.5 -1.4 13.4 -3.45 13.15 -7.35 12.35 M-6.45 0.7 L-6.4 0.75" fill="none" stroke="#9b3d1a" stroke-linecap="round" stroke-linejoin="round" stroke-width="0.05"/>
    <path d="M5.55 -8.05 L5.4 -8.15 Q5.15 -8.25 5.0 -8.3 L4.8 -8.35 4.1 -8.55 4.0 -8.55 2.9 -8.85 2.2 -8.85 2.15 -8.85 1.7 -8.85 -0.05 -3.4 2.65 -7.15 2.8 -7.35 2.15 -8.25 2.1 -8.3 1.7 -8.85 2.1 -10.0 2.1 -10.05 2.2 -10.4 2.1 -10.65 1.8 -11.55 2.85 -11.3 3.85 -10.6 4.15 -10.2 5.4 -8.55 5.6 -8.3 5.85 -7.95 5.55 -8.05 M-2.65 -7.25 L-2.95 -7.65 -2.3 -8.25 -1.7 -8.9 -0.05 -3.4 -2.65 -7.25 M-4.0 -10.2 L-3.55 -10.8 -3.15 -11.05 -2.6 -11.45 -1.75 -11.8 -1.8 -11.6 -1.95 -11.05 -2.0 -10.85 -2.1 -10.55 -2.2 -10.4 -1.7 -8.9 -2.45 -8.9 -4.15 -8.5 -4.2 -8.5 -4.3 -8.45 -4.55 -8.4 -4.7 -8.35 -4.8 -8.35 -5.6 -8.15 -5.45 -8.35 -5.4 -8.45 -4.05 -10.15 -4.0 -10.2" fill="none" stroke="#666666" stroke-linecap="round" stroke-linejoin="round" stroke-width="0.05"/>
  </g>
</svg>
