<?xml version="1.0" encoding="UTF-8" standalone="no"?>
<svg xmlns:xlink="http://www.w3.org/1999/xlink" height="26.35px" width="16.6px" xmlns="http://www.w3.org/2000/svg">
  <g transform="matrix(1.0, 0.0, 0.0, 1.0, 8.2, 10.65)">
    <path d="M6.5 0.7 L6.45 0.8 6.4 0.8 6.5 0.7 M-6.4 0.75 L-6.45 0.8 -6.45 0.7 -6.4 0.75" fill="#f5dfc5" fill-rule="evenodd" stroke="none"/>
    <path d="M-2.45 -8.4 L-2.45 -8.45 -2.45 -8.4 M-2.15 -10.4 L-2.2 -10.4 -2.15 -10.4" fill="#a56c5f" fill-rule="evenodd" stroke="none"/>
    <path d="M-7.05 -4.25 L-7.1 -4.0 Q-7.95 1.45 -2.6 0.5 0.3 -0.6 2.35 0.4 L2.75 0.5 Q6.8 1.4 7.25 -3.75 L7.4 -2.3 Q7.45 -0.6 6.5 0.7 L6.4 0.8 5.8 3.15 5.7 3.55 4.6 6.3 Q3.75 4.6 2.0 3.45 -0.2 2.0 -2.65 3.95 -4.8 5.6 -5.1 9.95 -3.9 11.2 -3.45 13.15 L-4.7 12.9 -7.35 12.35 -7.0 11.05 Q-6.25 7.85 -4.55 6.3 L-5.65 3.5 -5.8 3.1 -6.4 0.75 Q-5.4 2.05 -3.8 2.15 L-1.8 1.7 -1.75 1.65 Q-0.05 0.6 1.85 1.7 L1.9 1.75 2.5 2.0 3.85 2.15 Q5.4 2.05 6.4 0.8 5.4 2.05 3.85 2.15 L2.5 2.0 1.9 1.75 1.85 1.7 Q-0.05 0.6 -1.75 1.65 L-1.8 1.7 -3.8 2.15 Q-5.4 2.05 -6.4 0.75 L-6.45 0.7 Q-7.45 -0.6 -7.35 -2.3 L-7.05 -4.25 M4.65 6.45 L5.45 7.25 Q6.3 8.15 7.35 11.05 L7.75 12.2 7.75 12.3 5.55 12.8 4.1 13.1 Q3.75 11.75 5.2 10.25 L5.35 9.5 Q5.3 7.8 4.65 6.45" fill="#333333" fill-rule="evenodd" stroke="none"/>
    <path d="M-2.45 -8.4 Q-1.75 -7.7 0.0 -7.4 1.8 -7.7 2.5 -8.45 L3.05 -9.2 3.2 -9.7 3.35 -10.4 Q5.25 -10.1 8.2 -9.0 L7.9 -5.95 7.25 -3.75 Q6.8 1.4 2.75 0.5 L2.35 0.4 Q0.3 -0.6 -2.6 0.5 -7.95 1.45 -7.1 -4.0 L-7.05 -4.25 Q-7.9 -6.65 -8.2 -9.2 L-3.25 -10.4 -3.15 -9.9 -2.95 -9.25 -2.45 -8.45 -2.45 -8.4 M4.6 6.3 L4.55 6.35 4.65 6.45 Q5.3 7.8 5.35 9.5 L5.2 10.25 Q3.75 11.75 4.1 13.1 L2.3 13.4 2.05 13.4 0.4 13.5 -1.4 13.4 -1.7 13.35 -3.45 13.15 Q-3.9 11.2 -5.1 9.95 -4.8 5.6 -2.65 3.95 -0.2 2.0 2.0 3.45 3.75 4.6 4.6 6.3" fill="#5e5e5e" fill-rule="evenodd" stroke="none"/>
    <path d="M7.75 12.3 Q8.8 13.6 8.2 14.3 7.25 14.9 5.7 15.15 L4.1 15.35 4.1 13.1 5.55 12.8 7.75 12.3 M-3.45 15.3 L-4.7 15.05 -7.5 14.1 Q-8.35 13.3 -7.35 12.35 L-4.7 12.9 -3.45 13.15 -3.45 15.3 M5.7 15.15 Q6.0 13.95 5.55 12.8 6.0 13.95 5.7 15.15 M-4.7 12.9 Q-5.8 13.95 -4.7 15.05 -5.8 13.95 -4.7 12.9" fill="#555555" fill-rule="evenodd" stroke="none"/>
    <path d="M3.35 -10.4 L3.2 -9.7 3.05 -9.2 2.5 -8.45 Q1.8 -7.7 0.0 -7.4 -1.75 -7.7 -2.45 -8.4 L-2.45 -8.45 -1.5 -9.4 -2.45 -8.45 -2.95 -9.25 -3.15 -9.9 -3.25 -10.4 Q-2.4 -10.75 -2.2 -10.4 L-2.15 -10.4 Q-2.05 -9.75 -1.5 -9.4 L0.0 -8.85 Q0.95 -9.0 1.5 -9.5 L2.2 -10.4 Q2.85 -10.85 3.35 -10.4 M0.0 -7.4 L0.0 -8.85 0.0 -7.4 M2.5 -8.45 L1.5 -9.5 2.5 -8.45 M4.1 15.35 L2.4 15.6 0.5 15.7 -1.55 15.65 -3.45 15.3 -3.45 13.15 -1.7 13.35 -1.4 13.4 0.4 13.5 2.05 13.4 2.3 13.4 4.1 13.1 4.1 15.35 M2.3 13.4 Q2.8 14.5 2.4 15.6 2.8 14.5 2.3 13.4 M-1.55 15.65 Q-1.95 14.5 -1.7 13.35 -1.95 14.5 -1.55 15.65" fill="#737373" fill-rule="evenodd" stroke="none"/>
    <path d="M3.35 -10.4 L3.2 -9.7 3.05 -9.2 2.5 -8.45 Q1.8 -7.7 0.0 -7.4 -1.75 -7.7 -2.45 -8.4 L-2.45 -8.45 -2.95 -9.25 -3.15 -9.9 -3.25 -10.4 -8.2 -9.2 M-7.05 -4.25 L-7.1 -4.0 M8.2 -9.0 Q5.25 -10.1 3.35 -10.4 2.85 -10.85 2.2 -10.4 L1.5 -9.5 2.5 -8.45 M0.0 -8.85 L0.0 -7.4 M-2.15 -10.4 Q-2.05 -9.75 -1.5 -9.4 L0.0 -8.85 Q0.95 -9.0 1.5 -9.5 M7.25 -3.75 L7.4 -2.3 Q7.45 -0.6 6.5 0.7 L6.45 0.8 M6.4 0.8 L5.8 3.15 5.7 3.55 4.6 6.3 4.55 6.35 4.65 6.45 5.45 7.25 Q6.3 8.15 7.35 11.05 L7.75 12.2 7.75 12.3 Q8.8 13.6 8.2 14.3 7.25 14.9 5.7 15.15 L4.1 15.35 2.4 15.6 0.5 15.7 -1.55 15.65 -3.45 15.3 -4.7 15.05 -7.5 14.1 Q-8.35 13.3 -7.35 12.35 L-7.0 11.05 Q-6.25 7.85 -4.55 6.3 L-5.65 3.5 -5.8 3.1 -6.4 0.75 -6.45 0.7 Q-7.45 -0.6 -7.35 -2.3 L-7.05 -4.25 M-6.45 0.8 L-6.45 0.7 M6.5 0.7 L6.4 0.8 Q5.4 2.05 3.85 2.15 L2.5 2.0 1.9 1.75 1.85 1.7 Q-0.05 0.6 -1.75 1.65 L-1.8 1.7 -3.8 2.15 Q-5.4 2.05 -6.4 0.75 M4.1 13.1 L5.55 12.8 7.75 12.3 M-3.45 13.15 L-1.7 13.35 -1.4 13.4 0.4 13.5 2.05 13.4 2.3 13.4 4.1 13.1 M5.55 12.8 Q6.0 13.95 5.7 15.15 M2.4 15.6 Q2.8 14.5 2.3 13.4 M-2.2 -10.4 Q-2.4 -10.75 -3.25 -10.4 M-2.2 -10.4 L-2.15 -10.4 M-2.45 -8.4 L-2.45 -8.45 -1.5 -9.4 M-7.35 12.35 L-4.7 12.9 -3.45 13.15 M-1.7 13.35 Q-1.95 14.5 -1.55 15.65 M-4.7 15.05 Q-5.8 13.95 -4.7 12.9" fill="none" stroke="#000000" stroke-linecap="round" stroke-linejoin="round" stroke-width="0.05"/>
  </g>
</svg>
