<?xml version="1.0" encoding="UTF-8" standalone="no"?>
<svg xmlns:xlink="http://www.w3.org/1999/xlink" height="27.75px" width="15.65px" xmlns="http://www.w3.org/2000/svg">
  <g transform="matrix(1.0, 0.0, 0.0, 1.0, 7.6, 11.65)">
    <path d="M3.0 -10.35 L3.0 -10.4 3.0 -10.35 M-2.95 -10.4 L-2.95 -10.35 -3.0 -10.4 -2.95 -10.4 M1.8 -11.55 L1.8 -11.6 1.8 -11.55 M6.5 0.7 L6.45 0.8 6.4 0.8 6.5 0.7 M-6.4 0.75 L-6.45 0.8 -6.45 0.7 -6.4 0.75" fill="#f5dfc5" fill-rule="evenodd" stroke="none"/>
    <path d="M2.1 -10.65 L1.05 -10.25 1.8 -11.55 2.1 -10.65 M-1.05 -10.35 L-2.05 -10.7 -1.8 -11.6 -1.05 -10.35 M5.35 9.25 Q0.25 10.7 -5.0 9.25 L-4.85 8.05 Q0.2 9.45 5.2 8.1 L5.35 9.25" fill="#de8db3" fill-rule="evenodd" stroke="none"/>
    <path d="M1.8 -11.55 L1.05 -10.25 -1.05 -10.35 -1.8 -11.6 -1.75 -11.65 1.8 -11.55 M5.9 7.85 L6.15 8.0 6.45 8.9 5.35 9.25 5.2 8.1 5.9 7.85 M-5.0 9.25 L-6.3 8.85 -5.9 7.95 -5.75 7.8 -4.85 8.05 -5.0 9.25" fill="#d16395" fill-rule="evenodd" stroke="none"/>
    <path d="M3.0 -10.4 L3.0 -10.35 3.0 -10.4 3.2 -10.35 Q3.3 -9.55 2.95 -8.9 L0.95 -8.3 2.75 -8.15 Q4.1 -8.85 5.3 -6.9 L7.0 -3.95 7.25 -3.35 Q6.8 1.4 2.75 0.5 L2.35 0.4 Q0.3 -0.6 -2.6 0.5 -8.05 1.45 -7.0 -3.95 L-3.45 -10.3 -3.0 -10.4 -3.0 -10.35 -2.95 -10.35 -2.95 -10.4 -2.95 -10.45 -2.2 -10.4 -2.05 -10.7 -1.05 -10.35 Q0.0 -9.0 1.05 -10.25 L2.1 -10.65 2.2 -10.4 3.0 -10.45 3.0 -10.4 M4.6 6.3 L4.55 6.35 4.65 6.45 5.2 8.1 Q0.2 9.45 -4.85 8.05 -4.3 5.2 -2.65 3.95 -0.2 2.0 2.0 3.45 3.75 4.6 4.6 6.3" fill="#ffffff" fill-rule="evenodd" stroke="none"/>
    <path d="M1.05 -10.25 Q0.0 -9.0 -1.05 -10.35 L1.05 -10.25 M-7.0 -3.95 Q-8.05 1.45 -2.6 0.5 0.3 -0.6 2.35 0.4 L2.75 0.5 Q6.8 1.4 7.25 -3.35 L7.4 -2.3 Q7.45 -0.6 6.5 0.7 L6.4 0.8 5.8 3.15 5.7 3.55 4.6 6.3 Q3.75 4.6 2.0 3.45 -0.2 2.0 -2.65 3.95 -4.3 5.2 -4.85 8.05 L-5.75 7.8 Q-5.25 6.9 -4.55 6.3 L-5.65 3.5 -5.8 3.1 -6.4 0.75 Q-5.4 2.05 -3.8 2.15 L-1.8 1.7 -1.75 1.65 Q-0.05 0.6 1.85 1.7 L1.9 1.75 2.5 2.0 3.85 2.15 Q5.4 2.05 6.4 0.8 5.4 2.05 3.85 2.15 L2.5 2.0 1.9 1.75 1.85 1.7 Q-0.05 0.6 -1.75 1.65 L-1.8 1.7 -3.8 2.15 Q-5.4 2.05 -6.4 0.75 L-6.45 0.7 Q-7.45 -0.6 -7.35 -2.3 L-7.0 -3.95 M5.3 -6.9 Q4.1 -8.85 2.75 -8.15 L0.95 -8.3 2.95 -8.9 Q3.3 -9.55 3.2 -10.35 L3.3 -10.35 5.3 -6.9 M4.65 6.45 L5.45 7.25 5.9 7.85 5.2 8.1 4.65 6.45" fill="#e0e0e0" fill-rule="evenodd" stroke="none"/>
    <path d="M3.0 -10.35 L3.0 -10.4 3.0 -10.45 2.2 -10.4 2.1 -10.65 1.05 -10.25 -1.05 -10.35 -2.05 -10.7 -2.2 -10.4 -2.95 -10.45 -2.95 -10.4 -2.95 -10.35 -3.0 -10.4 -3.45 -10.3 -7.0 -3.95 -7.35 -2.3 Q-7.45 -0.6 -6.45 0.7 L-6.45 0.8 M-3.0 -10.35 L-3.0 -10.4 -2.95 -10.4 M7.25 -3.35 L7.0 -3.95 5.3 -6.9 3.3 -10.35 3.2 -10.35 3.0 -10.4 3.0 -10.35 3.0 -10.4 M1.8 -11.55 L2.1 -10.65 M-1.8 -11.6 L-2.05 -10.7 M7.25 -3.35 L7.4 -2.3 Q7.45 -0.6 6.5 0.7 L6.45 0.8 M6.4 0.8 L5.8 3.15 5.7 3.55 4.6 6.3 4.55 6.35 4.65 6.45 5.45 7.25 5.9 7.85 6.15 8.0 6.45 8.9 5.35 9.25 Q0.25 10.7 -5.0 9.25 L-6.3 8.85 -5.9 7.95 -5.75 7.8 Q-5.25 6.9 -4.55 6.3 L-5.65 3.5 -5.8 3.1 -6.4 0.75 -6.45 0.7 M6.5 0.7 L6.4 0.8 Q5.4 2.05 3.85 2.15 L2.5 2.0 1.9 1.75 1.85 1.7 Q-0.05 0.6 -1.75 1.65 L-1.8 1.7 -3.8 2.15 Q-5.4 2.05 -6.4 0.75 M5.9 7.85 L5.2 8.1 Q0.2 9.45 -4.85 8.05 L-5.75 7.8 M-1.8 -11.6 L-1.75 -11.65 1.8 -11.55" fill="none" stroke="#a0a0a0" stroke-linecap="round" stroke-linejoin="round" stroke-width="0.05"/>
    <path d="M4.05 12.25 L7.35 11.3 7.5 11.3 Q8.0 12.0 8.05 13.3 6.3 14.25 4.15 14.4 L4.15 14.35 Q3.85 12.4 4.05 12.25 M-3.4 14.45 L-4.6 14.2 -7.6 13.3 Q-7.5 11.75 -7.0 11.3 L-3.85 12.1 Q-3.65 12.2 -3.45 13.7 L-3.4 14.45" fill="#d16395" fill-rule="evenodd" stroke="none"/>
    <path d="M4.05 12.25 Q3.85 12.4 4.15 14.35 L4.15 14.4 Q0.95 14.95 -2.45 14.55 L-3.4 14.45 -3.45 13.7 Q-3.65 12.2 -3.85 12.1 -0.05 12.45 4.05 12.25" fill="#de8db3" fill-rule="evenodd" stroke="none"/>
    <path d="M4.15 14.4 Q6.3 14.25 8.05 13.3 8.0 12.0 7.5 11.3 L7.35 11.3 4.05 12.25 Q-0.05 12.45 -3.85 12.1 L-7.0 11.3 Q-7.5 11.75 -7.6 13.3 L-4.6 14.2 -3.4 14.45 -2.45 14.55 Q0.95 14.95 4.15 14.4 L4.15 14.35" fill="none" stroke="#b03573" stroke-linecap="round" stroke-linejoin="round" stroke-width="0.05"/>
    <path d="M1.9 11.9 Q1.2 11.3 0.35 11.4 L-0.4 11.6 -1.15 12.2 Q-1.7 12.9 -1.6 13.9 -1.5 14.85 -0.8 15.45 L-0.55 15.65 0.8 16.0 Q1.55 15.9 2.05 15.35 L2.2 15.15 Q2.75 14.4 2.65 13.5 2.6 12.75 2.2 12.2 L1.9 11.9 M2.15 11.45 Q2.85 12.15 3.0 13.25 3.1 14.3 2.45 15.15 L2.05 15.6 Q1.5 16.0 0.8 16.1 L-0.6 15.8 -1.05 15.5 Q-1.85 14.75 -1.95 13.7 -2.05 12.55 -1.4 11.7 L-0.4 11.0 0.3 10.8 Q1.25 10.65 2.05 11.4 L2.15 11.45 M0.25 13.2 L0.15 13.7 -0.1 13.9 -0.15 13.9 -0.55 13.7 -0.6 13.65 -0.7 13.25 -0.55 12.85 -0.55 12.8 -0.25 12.7 Q-0.05 12.65 0.05 12.8 L0.25 13.2" fill="#ffffff" fill-rule="evenodd" stroke="none"/>
    <path d="M1.9 11.9 L2.2 12.2 Q2.6 12.75 2.65 13.5 2.75 14.4 2.2 15.15 L2.05 15.35 Q1.55 15.9 0.8 16.0 L-0.55 15.65 -0.8 15.45 Q-1.5 14.85 -1.6 13.9 -1.7 12.9 -1.15 12.2 L-0.4 11.6 0.35 11.4 Q1.2 11.3 1.9 11.9 M0.25 13.2 L0.05 12.8 Q-0.05 12.65 -0.25 12.7 L-0.55 12.8 -0.55 12.85 -0.7 13.25 -0.6 13.65 -0.55 13.7 -0.15 13.9 -0.1 13.9 0.15 13.7 0.25 13.2" fill="#8bd7fe" fill-rule="evenodd" stroke="none"/>
    <path d="M2.15 11.45 Q2.85 12.15 3.0 13.25 3.1 14.3 2.45 15.15 L2.05 15.6 Q1.5 16.0 0.8 16.1 L-0.6 15.8 -1.05 15.5 Q-1.85 14.75 -1.95 13.7 -2.05 12.55 -1.4 11.7 L-0.4 11.0 0.3 10.8 Q1.25 10.65 2.05 11.4 L2.15 11.45 Z" fill="none" stroke="#b03573" stroke-linecap="round" stroke-linejoin="round" stroke-width="0.05"/>
  </g>
</svg>
