<?xml version="1.0" encoding="UTF-8" standalone="no"?>
<svg xmlns:xlink="http://www.w3.org/1999/xlink" height="30.75px" width="15.15px" xmlns="http://www.w3.org/2000/svg">
  <g transform="matrix(1.0, 0.0, 0.0, 1.0, 7.4, 13.25)">
    <path d="M-1.1 -12.35 L-1.8 -12.4 -2.55 -12.6 -1.85 -12.8 -0.1 -12.9 1.65 -12.8 2.4 -12.6 1.65 -12.4 0.6 -12.35 -1.1 -12.35 M-6.35 8.85 L-5.15 9.1 Q-1.4 11.35 -0.8 12.3 L0.5 12.35 1.2 12.3 Q2.1 11.2 5.3 9.55 L6.6 9.3 7.05 10.35 5.85 10.7 Q3.15 11.9 2.8 12.5 L3.2 13.35 Q4.1 12.2 7.4 11.25 L7.75 12.3 Q4.4 13.95 3.3 14.95 L0.45 17.5 -3.9 14.2 Q-5.05 13.25 -7.4 12.35 L-7.1 10.95 -7.05 10.9 -5.45 11.45 Q-4.0 12.05 -3.2 12.95 L-2.9 12.05 Q-3.35 11.2 -4.85 10.6 L-6.8 9.9 -6.4 9.0 -6.35 8.85 M-0.1 15.05 L0.25 15.4 0.4 15.3 0.7 15.05 1.85 14.25 1.85 13.35 -1.7 13.15 -1.65 14.15 -0.1 15.05" fill="#263959" fill-rule="evenodd" stroke="none"/>
    <path d="M-7.0 -4.0 L-7.0 -3.95 -7.0 -4.0" fill="#88c4e3" fill-rule="evenodd" stroke="none"/>
    <path d="M1.8 -11.6 L1.8 -11.55 1.8 -11.6 M6.4 0.75 L6.5 0.65 6.45 0.75 6.4 0.75 M-3.0 -10.45 L-2.95 -10.45 -2.95 -10.4 -3.0 -10.45 M-6.45 0.65 L-6.4 0.7 -6.45 0.75 -6.45 0.65" fill="#f5dfc5" fill-rule="evenodd" stroke="none"/>
    <path d="M0.6 -12.35 Q0.35 -10.6 0.65 -7.05 L-0.25 -7.2 -0.7 -7.15 Q-0.5 -10.15 -1.1 -12.35 L0.6 -12.35 M1.45 -5.65 L6.5 -4.85 6.7 -4.5 7.0 -4.0 7.2 -3.45 1.15 -4.6 1.35 -4.95 1.45 -5.65 M0.55 -4.15 L0.8 -0.1 -0.7 -0.05 -0.5 -4.25 0.25 -4.05 0.55 -4.15 M-1.25 -5.75 L-1.25 -5.4 -1.15 -4.95 -1.0 -4.7 -6.85 -4.25 -6.2 -5.4 -1.25 -5.75 M0.0 -5.8 L0.0 -5.65 -0.05 -5.4 Q-0.15 -5.3 -0.3 -5.25 L-0.5 -5.3 -0.65 -5.4 -0.65 -5.45 -0.75 -5.7 -0.75 -5.75 -0.75 -5.9 -0.65 -6.05 -0.65 -6.15 -0.4 -6.2 -0.15 -6.15 0.0 -5.8 M1.2 12.3 L0.5 12.35 -0.8 12.3 -0.7 2.85 0.9 2.9 1.2 12.3" fill="#ffffff" fill-rule="evenodd" stroke="none"/>
    <path d="M-0.7 -0.05 L0.8 -0.1 0.85 1.2 -0.7 1.1 0.85 1.2 0.9 2.9 -0.7 2.85 -0.7 1.1 -0.7 -0.05" fill="#d1d1d1" fill-rule="evenodd" stroke="none"/>
    <path d="M-3.2 12.95 Q-4.0 12.05 -5.45 11.45 L-7.05 10.9 Q-7.15 10.15 -6.8 9.9 L-4.85 10.6 Q-3.35 11.2 -2.9 12.05 L-3.2 12.95 M7.4 11.25 Q4.1 12.2 3.2 13.35 L2.8 12.5 Q3.15 11.9 5.85 10.7 L7.05 10.35 Q7.6 10.9 7.4 11.25 M-0.1 15.05 L-1.65 14.15 -1.7 13.15 1.85 13.35 1.85 14.25 0.7 15.05 0.4 15.3 0.25 15.4 -0.1 15.05" fill="#576bca" fill-rule="evenodd" stroke="none"/>
    <path d="M0.65 -7.05 L0.95 -6.65 1.15 -6.5 1.4 -5.95 1.45 -5.65 1.35 -4.95 1.15 -4.6 1.05 -4.5 0.55 -4.15 0.25 -4.05 -0.5 -4.25 -0.6 -4.3 -1.0 -4.7 -1.15 -4.95 -1.25 -5.4 -1.25 -5.75 -1.25 -6.0 -1.0 -6.45 -0.95 -6.5 -0.7 -7.1 -0.7 -7.15 -0.25 -7.2 0.65 -7.05 M0.0 -5.8 L-0.15 -6.15 -0.4 -6.2 -0.65 -6.15 -0.65 -6.05 -0.75 -5.9 -0.75 -5.75 -0.75 -5.7 -0.65 -5.45 -0.65 -5.4 -0.5 -5.3 -0.3 -5.25 Q-0.15 -5.3 -0.05 -5.4 L0.0 -5.65 0.0 -5.8" fill="#8bd7fe" fill-rule="evenodd" stroke="none"/>
    <path d="M0.6 -12.35 L1.65 -12.4 2.4 -12.6 1.65 -12.8 -0.1 -12.9 -1.85 -12.8 -2.55 -12.6 -1.8 -12.4 -1.1 -12.35 Q-0.5 -10.15 -0.7 -7.15 L-0.7 -7.1 -0.95 -6.5 -1.0 -6.45 -1.25 -6.0 -1.25 -5.75 -6.2 -5.4 -3.45 -10.35 -3.0 -10.45 -3.0 -10.4 -2.95 -10.4 -2.95 -10.45 -2.95 -10.5 -2.5 -10.45 -2.9 -12.85 Q0.15 -13.7 2.7 -12.8 L2.55 -10.45 3.0 -10.5 3.0 -10.45 3.2 -10.4 Q3.3 -9.55 2.95 -8.95 L0.95 -8.35 2.75 -8.2 Q4.1 -8.9 5.3 -6.95 L6.5 -4.85 1.45 -5.65 1.4 -5.95 1.15 -6.5 0.95 -6.65 0.65 -7.05 Q0.35 -10.6 0.6 -12.35 M3.0 -10.4 L3.0 -10.45 3.0 -10.4 3.0 -10.35 3.0 -10.4 M1.8 -11.6 L1.8 -11.55 1.8 -11.6 M1.15 -4.6 L7.2 -3.45 7.25 -3.4 Q6.8 1.35 2.75 0.45 L2.35 0.35 0.8 -0.1 0.55 -4.15 1.05 -4.5 1.15 -4.6 M-0.5 -4.25 L-0.7 -0.05 -2.6 0.45 Q-8.05 1.4 -7.0 -3.95 L-7.0 -4.0 -6.85 -4.25 -1.0 -4.7 -0.6 -4.3 -0.5 -4.25 M0.9 2.9 L2.0 3.4 Q3.8 4.55 4.6 6.25 L4.55 6.3 4.65 6.4 5.3 9.55 Q2.1 11.2 1.2 12.3 L0.9 2.9 M-5.15 9.1 Q-4.45 5.3 -2.65 3.9 -1.45 3.0 -0.7 2.85 L-0.8 12.3 Q-1.4 11.35 -5.15 9.1" fill="#42ac81" fill-rule="evenodd" stroke="none"/>
    <path d="M5.3 -6.95 Q4.1 -8.9 2.75 -8.2 L0.95 -8.35 2.95 -8.95 Q3.3 -9.55 3.2 -10.4 L3.3 -10.4 5.3 -6.95 M0.8 -0.1 L2.35 0.35 2.75 0.45 Q6.8 1.35 7.25 -3.4 L7.4 -2.35 Q7.5 -0.6 6.5 0.65 L6.4 0.75 Q5.45 2.05 3.85 2.1 L2.5 1.95 1.9 1.7 1.85 1.65 0.85 1.2 1.85 1.65 1.9 1.7 2.5 1.95 3.85 2.1 Q5.45 2.05 6.4 0.75 L5.8 3.1 5.7 3.5 4.6 6.25 Q3.8 4.55 2.0 3.4 L0.9 2.9 0.85 1.2 0.8 -0.1 M-7.0 -3.95 Q-8.05 1.4 -2.6 0.45 L-0.7 -0.05 -0.7 1.1 -1.75 1.6 -1.8 1.65 -3.8 2.1 Q-5.4 2.05 -6.4 0.7 -5.4 2.05 -3.8 2.1 L-1.8 1.65 -1.75 1.6 -0.7 1.1 -0.7 2.85 Q-1.45 3.0 -2.65 3.9 -4.45 5.3 -5.15 9.1 L-6.35 8.85 Q-5.55 6.85 -4.55 6.25 L-5.65 3.45 -5.8 3.05 -6.4 0.7 -6.45 0.65 Q-7.4 -0.6 -7.35 -2.35 -7.35 -3.25 -7.0 -3.95 M6.6 9.3 L5.3 9.55 4.65 6.4 5.45 7.2 6.6 9.3" fill="#45916e" fill-rule="evenodd" stroke="none"/>
    <path d="M3.2 -10.4 L3.0 -10.45 M3.0 -10.4 L3.0 -10.35 M3.3 -10.4 L3.2 -10.4 M7.2 -3.45 L7.0 -4.0 6.7 -4.5 M7.25 -3.4 L7.2 -3.45 M6.5 0.65 Q7.5 -0.6 7.4 -2.35 L7.25 -3.4 M-3.45 -10.35 L-3.0 -10.45 -3.0 -10.4 -2.95 -10.4 -2.95 -10.45 M-7.0 -4.0 L-7.0 -3.95 M-0.7 1.1 L0.85 1.2 M-7.0 -4.0 L-6.85 -4.25 M-6.35 8.85 L-5.15 9.1 Q-1.4 11.35 -0.8 12.3 L0.5 12.35 1.2 12.3 Q2.1 11.2 5.3 9.55 L6.6 9.3 7.05 10.35 Q7.6 10.9 7.4 11.25 4.1 12.2 3.2 13.35 L2.8 12.5 M-3.2 12.95 L-2.9 12.05 M-6.8 9.9 Q-7.15 10.15 -7.05 10.9 L-7.1 10.95 -7.4 12.35 Q-5.05 13.25 -3.9 14.2 L0.45 17.5 3.3 14.95 Q4.4 13.95 7.75 12.3 L7.4 11.25 M-6.8 9.9 L-6.4 9.0 -6.35 8.85" fill="none" stroke="#b03573" stroke-linecap="round" stroke-linejoin="round" stroke-width="0.05"/>
    <path d="M3.0 -10.45 L3.0 -10.4 3.0 -10.35 M6.4 0.75 L6.5 0.65 6.45 0.75 M-3.0 -10.45 L-2.95 -10.45 M-3.0 -10.45 L-2.95 -10.4 M-6.45 0.65 L-6.4 0.7 M-6.45 0.75 L-6.45 0.65 M4.6 6.25 L4.55 6.3 4.65 6.4" fill="none" stroke="#a0a0a0" stroke-linecap="round" stroke-linejoin="round" stroke-width="0.05"/>
    <path d="M6.7 -4.5 L6.5 -4.85" fill="none" stroke="#576bc9" stroke-linecap="round" stroke-linejoin="round" stroke-width="0.05"/>
    <path d="M-2.95 -10.45 L-2.95 -10.5 -2.5 -10.45 -2.9 -12.85 Q0.15 -13.7 2.7 -12.8 L2.55 -10.45 3.0 -10.5 3.0 -10.45 M0.85 1.2 L1.85 1.65 1.9 1.7 2.5 1.95 3.85 2.1 Q5.45 2.05 6.4 0.75 L5.8 3.1 5.7 3.5 4.6 6.25 M-6.45 0.65 Q-7.4 -0.6 -7.35 -2.35 -7.35 -3.25 -7.0 -3.95 M-6.85 -4.25 L-6.2 -5.4 M-0.7 1.1 L-1.75 1.6 -1.8 1.65 -3.8 2.1 Q-5.4 2.05 -6.4 0.7 L-5.8 3.05 -5.65 3.45 -4.55 6.25 Q-5.55 6.85 -6.35 8.85 M4.65 6.4 L5.45 7.2 6.6 9.3" fill="none" stroke="#2e813e" stroke-linecap="round" stroke-linejoin="round" stroke-width="0.05"/>
    <path d="M0.6 -12.35 Q0.35 -10.6 0.65 -7.05 M1.45 -5.65 L6.5 -4.85 M1.15 -4.6 L7.2 -3.45 M0.55 -4.15 L0.8 -0.1 0.85 1.2 0.9 2.9 1.2 12.3 M-0.5 -4.25 L-0.7 -0.05 -0.7 1.1 -0.7 2.85 -0.8 12.3 M-0.7 -7.15 Q-0.5 -10.15 -1.1 -12.35 M-1.25 -5.75 L-6.2 -5.4 M-6.85 -4.25 L-1.0 -4.7" fill="none" stroke="#2e813e" stroke-linecap="round" stroke-linejoin="round" stroke-width="0.25"/>
  </g>
</svg>
