<?xml version="1.0" encoding="UTF-8" standalone="no"?>
<svg xmlns:xlink="http://www.w3.org/1999/xlink" height="32.35px" width="16.4px" xmlns="http://www.w3.org/2000/svg">
  <g transform="matrix(1.0, 0.0, 0.0, 1.0, 8.2, 13.1)">
    <path d="M6.5 0.7 L6.45 0.8 6.4 0.8 6.5 0.7 M-6.4 0.75 L-6.45 0.8 -6.45 0.7 -6.4 0.75 M-1.6 -13.1 L-1.6 -12.9 -1.65 -13.1 -1.6 -13.1" fill="#f5dfc5" fill-rule="evenodd" stroke="none"/>
    <path d="M4.45 -5.85 Q5.7 -4.95 7.0 -4.0 L7.0 -3.95 7.25 -3.35 Q6.8 1.4 2.75 0.5 L2.35 0.4 Q0.3 -0.6 -2.6 0.5 -8.05 1.45 -7.0 -3.95 L-7.0 -4.0 -7.0 -4.05 -4.35 -6.8 -3.5 -5.55 Q-0.9 -2.05 0.05 -2.0 1.0 -1.95 3.9 -5.25 L4.45 -5.85 M0.4 -7.6 L0.2 -7.25 -0.2 -7.05 -0.6 -7.25 -0.8 -7.6 -0.65 -8.0 -0.25 -8.15 0.15 -8.0 0.4 -7.6 M4.6 6.3 L4.55 6.35 4.65 6.45 Q5.3 7.8 5.35 9.5 L5.2 10.25 Q4.6 11.8 4.7 13.2 L3.1 13.4 3.6 10.45 3.6 9.7 Q3.45 9.25 3.0 9.2 L2.6 9.25 0.2 9.55 -2.4 9.25 -2.5 9.2 -2.95 9.35 -3.15 9.6 -3.15 10.65 -2.45 13.5 -4.15 13.35 Q-4.85 10.2 -5.1 9.95 -4.8 5.6 -2.65 3.95 -0.2 2.0 2.0 3.45 3.75 4.6 4.6 6.3 M0.75 13.1 L0.55 13.45 Q0.4 13.65 0.15 13.65 -0.05 13.65 -0.25 13.45 L-0.45 13.1 -0.3 12.7 Q-0.1 12.55 0.1 12.55 L0.5 12.7 0.75 13.1" fill="#ffffff" fill-rule="evenodd" stroke="none"/>
    <path d="M7.25 -3.35 L7.4 -2.3 Q7.45 -0.6 6.5 0.7 L6.4 0.8 5.8 3.15 5.7 3.55 4.6 6.3 Q3.75 4.6 2.0 3.45 -0.2 2.0 -2.65 3.95 -4.8 5.6 -5.1 9.95 -4.85 10.2 -4.15 13.35 L-7.4 12.45 -7.0 11.05 Q-6.25 7.85 -4.55 6.3 L-5.65 3.5 -5.8 3.1 -6.4 0.75 Q-5.4 2.05 -3.8 2.15 L-1.8 1.7 -1.75 1.65 Q-0.05 0.6 1.85 1.7 L1.9 1.75 2.5 2.0 3.85 2.15 Q5.4 2.05 6.4 0.8 5.4 2.05 3.85 2.15 L2.5 2.0 1.9 1.75 1.85 1.7 Q-0.05 0.6 -1.75 1.65 L-1.8 1.7 -3.8 2.15 Q-5.4 2.05 -6.4 0.75 L-6.45 0.7 Q-7.45 -0.6 -7.35 -2.3 L-7.0 -3.95 Q-8.05 1.45 -2.6 0.5 0.3 -0.6 2.35 0.4 L2.75 0.5 Q6.8 1.4 7.25 -3.35 M4.65 6.45 L5.45 7.25 Q6.3 8.15 7.35 11.05 L7.75 12.3 7.75 12.4 4.7 13.2 Q4.6 11.8 5.2 10.25 L5.35 9.5 Q5.3 7.8 4.65 6.45" fill="#e0e0e0" fill-rule="evenodd" stroke="none"/>
    <path d="M6.3 -9.65 L6.3 -9.6 Q6.75 -8.65 4.45 -5.85 L3.9 -5.25 Q1.0 -1.95 0.05 -2.0 -0.9 -2.05 -3.5 -5.55 L-4.35 -6.8 Q-5.9 -9.05 -5.75 -9.85 L-5.7 -10.0 Q-5.5 -10.65 -3.15 -10.8 L-2.25 -10.0 Q-1.25 -9.5 0.15 -9.5 1.6 -9.5 2.55 -10.0 L3.35 -10.65 Q5.9 -10.35 6.3 -9.65 M0.9 -8.1 Q0.55 -8.45 0.0 -8.45 -0.5 -8.45 -0.85 -8.1 L-1.2 -7.2 Q-1.15 -6.65 -0.75 -6.3 -0.35 -5.95 0.15 -5.95 0.7 -5.95 1.0 -6.3 1.35 -6.65 1.35 -7.2 L0.9 -8.1 M3.1 13.4 Q2.5 16.2 1.4 18.7 L1.35 18.8 1.35 18.75 1.3 18.95 1.25 19.0 Q0.85 19.55 0.35 19.0 L-0.05 18.5 -0.05 18.55 Q-1.6 16.35 -2.45 13.5 L-3.15 10.65 -3.15 9.6 -2.95 9.35 -2.5 9.2 -2.4 9.25 0.2 9.55 2.6 9.25 3.0 9.2 Q3.45 9.25 3.6 9.7 L3.6 10.45 3.1 13.4 M1.8 13.5 Q1.8 13.05 1.3 12.55 0.9 12.15 0.35 12.15 -0.2 12.15 -0.6 12.55 -1.0 13.05 -1.0 13.5 L-0.95 13.65 -0.5 14.5 0.5 14.95 Q1.05 14.95 1.5 14.5 1.85 14.1 1.8 13.55 L1.8 13.5" fill="#5ca8a4" fill-rule="evenodd" stroke="none"/>
    <path d="M6.3 -9.65 L8.2 -9.0 Q8.0 -5.6 7.0 -4.0 5.7 -4.95 4.45 -5.85 6.75 -8.65 6.3 -9.6 L6.3 -9.65 M3.35 -10.65 L2.55 -10.0 Q1.6 -9.5 0.15 -9.5 -1.25 -9.5 -2.25 -10.0 L-3.15 -10.8 -3.3 -11.25 Q-3.35 -11.95 -2.4 -12.45 -1.45 -12.95 -0.05 -12.95 1.4 -12.95 2.4 -12.45 3.45 -11.95 3.5 -11.2 L3.35 -10.65 M-5.75 -9.85 Q-5.9 -9.05 -4.35 -6.8 L-7.0 -4.05 -7.0 -4.0 Q-8.1 -6.35 -8.2 -9.2 L-5.75 -9.85 M-2.4 -11.75 Q-2.3 -11.4 -1.65 -11.2 L0.1 -10.9 1.75 -11.2 2.45 -11.75 1.75 -11.2 0.1 -10.9 -1.65 -11.2 Q-2.3 -11.4 -2.4 -11.75" fill="#488681" fill-rule="evenodd" stroke="none"/>
    <path d="M0.4 -7.6 L0.15 -8.0 -0.25 -8.15 -0.65 -8.0 -0.8 -7.6 -0.6 -7.25 -0.2 -7.05 0.2 -7.25 0.4 -7.6 M0.9 -8.1 L1.35 -7.2 Q1.35 -6.65 1.0 -6.3 0.7 -5.95 0.15 -5.95 -0.35 -5.95 -0.75 -6.3 -1.15 -6.65 -1.2 -7.2 L-0.85 -8.1 Q-0.5 -8.45 0.0 -8.45 0.55 -8.45 0.9 -8.1 M1.8 13.55 Q1.85 14.1 1.5 14.5 1.05 14.95 0.5 14.95 L-0.5 14.5 -0.95 13.65 -1.0 13.5 Q-1.0 13.05 -0.6 12.55 -0.2 12.15 0.35 12.15 0.9 12.15 1.3 12.55 1.8 13.05 1.8 13.5 L1.8 13.55 M0.75 13.1 L0.5 12.7 0.1 12.55 Q-0.1 12.55 -0.3 12.7 L-0.45 13.1 -0.25 13.45 Q-0.05 13.65 0.15 13.65 0.4 13.65 0.55 13.45 L0.75 13.1" fill="#8bd7fe" fill-rule="evenodd" stroke="none"/>
    <path d="M-7.0 -4.05 L-7.0 -4.0" fill="none" stroke="#6b2c2c" stroke-linecap="round" stroke-linejoin="round" stroke-width="0.05"/>
    <path d="M-1.6 -12.9 L-1.65 -13.1 -1.6 -13.1" fill="none" stroke="#a0a0a0" stroke-linecap="round" stroke-linejoin="round" stroke-width="0.05"/>
    <path d="M7.0 -4.0 L7.0 -3.95 7.25 -3.35 7.4 -2.3 Q7.45 -0.6 6.5 0.7 L6.45 0.8 M6.4 0.8 L5.8 3.15 5.7 3.55 4.6 6.3 4.55 6.35 4.65 6.45 5.45 7.25 Q6.3 8.15 7.35 11.05 L7.75 12.3 M-7.4 12.45 L-7.0 11.05 Q-6.25 7.85 -4.55 6.3 L-5.65 3.5 -5.8 3.1 -6.4 0.75 -6.45 0.7 Q-7.45 -0.6 -7.35 -2.3 L-7.0 -3.95 M-6.45 0.8 L-6.45 0.7 M6.5 0.7 L6.4 0.8" fill="none" stroke="#000000" stroke-linecap="round" stroke-linejoin="round" stroke-width="0.05"/>
    <path d="M8.2 -9.0 L6.3 -9.65 M3.35 -10.65 L2.55 -10.0 Q1.6 -9.5 0.15 -9.5 -1.25 -9.5 -2.25 -10.0 L-3.15 -10.8 -3.3 -11.25 Q-3.35 -11.95 -2.4 -12.45 -1.45 -12.95 -0.05 -12.95 1.4 -12.95 2.4 -12.45 3.45 -11.95 3.5 -11.2 L3.35 -10.65 M2.45 -11.75 L1.75 -11.2 0.1 -10.9 -1.65 -11.2 Q-2.3 -11.4 -2.4 -11.75 M-8.2 -9.2 L-5.75 -9.85 M6.4 0.8 Q5.4 2.05 3.85 2.15 L2.5 2.0 1.9 1.75 1.85 1.7 Q-0.05 0.6 -1.75 1.65 L-1.8 1.7 -3.8 2.15 Q-5.4 2.05 -6.4 0.75" fill="none" stroke="#000000" stroke-linecap="round" stroke-linejoin="round" stroke-width="0.05"/>
    <path d="M6.3 -9.65 L6.3 -9.6 Q6.75 -8.65 4.45 -5.85 L3.9 -5.25 Q1.0 -1.95 0.05 -2.0 -0.9 -2.05 -3.5 -5.55 L-4.35 -6.8 Q-5.9 -9.05 -5.75 -9.85 L-5.7 -10.0 Q-5.5 -10.65 -3.15 -10.8 M3.35 -10.65 Q5.9 -10.35 6.3 -9.65 M3.1 13.4 Q2.5 16.2 1.4 18.7 L1.35 18.8 1.35 18.75 1.3 18.95 1.25 19.0 Q0.85 19.55 0.35 19.0 L-0.05 18.5 -0.05 18.55 Q-1.6 16.35 -2.45 13.5 L-3.15 10.65 -3.15 9.6 -2.95 9.35 -2.5 9.2 -2.4 9.25 0.2 9.55 2.6 9.25 3.0 9.2 Q3.45 9.25 3.6 9.7 L3.6 10.45 3.1 13.4 M1.8 13.5 L1.8 13.55" fill="none" stroke="#2e813e" stroke-linecap="round" stroke-linejoin="round" stroke-width="0.05"/>
  </g>
</svg>
