<?xml version="1.0" encoding="UTF-8" standalone="no"?>
<svg xmlns:xlink="http://www.w3.org/1999/xlink" height="32.75px" width="16.4px" xmlns="http://www.w3.org/2000/svg">
  <g transform="matrix(1.0, 0.0, 0.0, 1.0, 8.2, 14.0)">
    <path d="M6.5 0.7 L6.45 0.8 6.4 0.8 6.5 0.7 M-6.45 0.8 L-6.45 0.7 -6.4 0.75 -6.45 0.8" fill="#f5dfc5" fill-rule="evenodd" stroke="none"/>
    <path d="M6.7 -9.5 L8.2 -9.0 Q8.0 -5.6 7.0 -4.0 L7.0 -3.95 7.25 -3.35 Q6.8 1.4 2.75 0.5 L2.35 0.4 Q0.3 -0.6 -2.6 0.5 -8.05 1.45 -7.0 -3.95 L-7.0 -4.0 Q-8.1 -6.35 -8.2 -9.2 L-6.85 -9.6 Q-6.6 -10.55 -5.65 -9.9 L-4.4 -10.15 Q-4.0 -11.0 -2.9 -10.25 L-2.9 -10.2 -2.85 -10.1 Q0.6 -7.15 2.3 -8.5 L2.35 -8.55 2.3 -8.65 Q3.15 -9.15 3.05 -10.35 4.5 -10.9 5.2 -9.95 5.75 -10.45 6.0 -9.75 6.35 -10.1 6.55 -9.95 L6.5 -9.6 Q5.95 -6.3 4.5 -5.25 L0.95 -2.9 Q-1.1 -1.65 -1.9 -2.25 L-1.45 -1.85 Q-0.75 -1.15 -0.1 -1.15 0.55 -1.15 1.75 -1.95 L4.45 -3.45 Q5.95 -3.6 6.7 -9.45 L6.7 -9.5 M2.3 13.3 L2.4 14.75 -1.85 14.75 -1.9 13.35 -2.3 13.3 -1.9 13.3 -1.9 12.45 -1.9 11.85 -1.4 11.15 -0.05 9.0 1.45 11.2 2.0 11.95 2.15 12.5 2.3 13.3 M-3.25 -12.55 L-3.45 -13.5 Q0.05 -14.5 3.55 -13.5 L3.3 -11.9 Q1.45 -10.0 -3.25 -12.55 M-6.85 -9.6 Q-6.9 -8.25 -6.25 -6.25 -5.55 -4.2 -3.1 -3.1 L-1.95 -2.3 -1.9 -2.25 -1.95 -2.3 -3.1 -3.1 Q-5.55 -4.2 -6.25 -6.25 -6.9 -8.25 -6.85 -9.6 M6.0 -9.75 L6.0 -9.7 Q4.65 -5.7 2.35 -5.1 4.65 -5.7 6.0 -9.7 L6.0 -9.75 M-4.3 -8.15 Q-2.6 -5.95 1.0 -4.25 L1.1 -4.25 1.2 -4.35 1.2 -4.45 1.1 -4.5 Q-2.9 -6.35 -4.5 -8.9 L-4.55 -8.95 -4.65 -8.95 -5.0 -10.0 -5.65 -9.9 Q-5.4 -6.7 -1.25 -3.4 -0.05 -3.2 -1.0 -4.1 -3.2 -5.85 -4.3 -8.15 M-4.4 -10.15 L-5.0 -10.0 -4.4 -10.15 M3.4 -7.3 Q4.7 -8.05 5.2 -9.95 4.7 -8.05 3.4 -7.3 M3.1 4.3 L0.65 4.2 0.25 2.85 Q1.15 2.9 2.0 3.45 L3.1 4.3 M-0.35 2.9 L-0.8 4.2 -3.0 4.3 -2.65 3.95 Q-1.5 3.0 -0.35 2.9 M-1.9 13.3 L-1.9 13.35 -1.9 13.3 M2.85 -13.1 Q0.05 -11.45 -2.7 -13.1 0.05 -11.45 2.85 -13.1" fill="#ffffff" fill-rule="evenodd" stroke="none"/>
    <path d="M7.25 -3.35 L7.4 -2.3 Q7.45 -0.6 6.5 0.7 L6.4 0.8 6.45 0.8 6.1 3.6 5.6 3.8 3.1 4.3 2.0 3.45 Q1.15 2.9 0.25 2.85 L-0.05 1.95 -0.35 2.9 Q-1.5 3.0 -2.65 3.95 L-3.0 4.3 -5.55 3.8 -6.05 3.65 -6.45 0.8 -6.4 0.75 Q-5.4 2.05 -3.8 2.15 L-1.8 1.7 -1.75 1.65 Q-0.05 0.6 1.85 1.7 L1.9 1.75 2.5 2.0 3.85 2.15 Q5.4 2.05 6.4 0.8 5.4 2.05 3.85 2.15 L2.5 2.0 1.9 1.75 1.85 1.7 Q-0.05 0.6 -1.75 1.65 L-1.8 1.7 -3.8 2.15 Q-5.4 2.05 -6.4 0.75 L-6.45 0.7 Q-7.45 -0.6 -7.35 -2.3 L-7.0 -3.95 Q-8.05 1.45 -2.6 0.5 0.3 -0.6 2.35 0.4 L2.75 0.5 Q6.8 1.4 7.25 -3.35 M-7.35 12.35 L-7.35 12.3 -7.35 12.35 M-2.8 -10.3 L-3.25 -12.55 Q1.45 -10.0 3.3 -11.9 L3.05 -10.35 Q3.15 -9.15 2.3 -8.65 L2.25 -8.7 2.15 -8.7 Q0.6 -7.55 -2.7 -10.3 L-2.8 -10.3 M6.55 -9.95 L6.7 -9.5 6.7 -9.45 Q5.95 -3.6 4.45 -3.45 L1.75 -1.95 Q0.55 -1.15 -0.1 -1.15 -0.75 -1.15 -1.45 -1.85 L-1.9 -2.25 Q-1.1 -1.65 0.95 -2.9 L4.5 -5.25 Q5.95 -6.3 6.5 -9.6 L6.55 -9.95 M-4.3 -8.15 Q-3.2 -5.85 -1.0 -4.1 -0.05 -3.2 -1.25 -3.4 -5.4 -6.7 -5.65 -9.9 L-5.0 -10.0 -4.65 -8.95 -4.7 -8.85 -4.7 -8.75 -4.3 -8.15" fill="#e0e0e0" fill-rule="evenodd" stroke="none"/>
    <path d="M-2.9 -10.25 L-2.8 -10.3 -2.7 -10.3 Q0.6 -7.55 2.15 -8.7 L2.25 -8.7 2.3 -8.65 2.35 -8.55 2.3 -8.5 Q0.6 -7.15 -2.85 -10.1 L-2.9 -10.2 -2.9 -10.25 M-4.65 -8.95 L-4.55 -8.95 -4.5 -8.9 Q-2.9 -6.35 1.1 -4.5 L1.2 -4.45 1.2 -4.35 1.1 -4.25 1.0 -4.25 Q-2.6 -5.95 -4.3 -8.15 L-4.7 -8.75 -4.7 -8.85 -4.65 -8.95" fill="#a0a0a0" fill-rule="evenodd" stroke="none"/>
    <path d="M4.2 13.3 L3.9 13.3 2.3 13.3 2.15 12.5 4.1 12.1 4.15 12.1 Q4.45 12.6 4.35 13.05 L4.2 13.3 M-2.3 13.3 L-3.35 13.25 Q-3.45 13.15 -3.5 13.15 -3.95 12.7 -3.8 12.05 L-1.9 12.45 -1.9 13.3 -2.3 13.3 M-4.9 8.45 L-3.5 9.9 Q-2.45 10.9 -1.4 11.15 L-1.9 11.85 Q-3.15 11.6 -4.5 10.7 L-5.1 10.25 Q-5.4 9.45 -4.95 8.5 L-4.9 8.45 M1.45 11.2 Q2.55 11.0 3.65 10.0 L5.05 8.5 5.35 9.5 5.35 9.55 5.2 10.75 4.75 11.0 4.5 11.15 Q3.35 11.75 2.0 11.95 L1.45 11.2" fill="#877b51" fill-rule="evenodd" stroke="none"/>
    <path d="M5.75 7.65 Q6.95 7.9 6.75 9.4 L6.7 9.45 5.2 10.75 5.35 9.55 5.35 9.5 5.05 8.5 5.2 8.3 5.7 7.65 5.75 7.65 M7.2 10.65 Q7.95 11.45 7.75 12.3 6.65 12.95 5.05 13.2 L4.2 13.3 4.35 13.05 Q4.45 12.6 4.15 12.1 L4.9 11.9 5.15 11.8 Q6.25 11.4 7.2 10.65 M-3.35 13.25 L-3.8 13.2 -4.95 13.1 Q-6.55 12.85 -7.35 12.35 L-7.35 12.3 Q-7.8 11.35 -6.9 10.55 -6.15 11.3 -5.05 11.7 L-4.75 11.8 -3.8 12.05 Q-3.95 12.7 -3.5 13.15 -3.45 13.15 -3.35 13.25 M-6.4 9.1 Q-6.85 7.75 -5.6 7.55 L-4.9 8.4 -4.9 8.45 -4.95 8.5 Q-5.4 9.45 -5.1 10.25 L-6.4 9.1" fill="#7a652a" fill-rule="evenodd" stroke="none"/>
    <path d="M4.6 6.3 L4.55 6.35 4.65 6.45 5.2 8.3 5.05 8.5 3.65 10.0 Q2.55 11.0 1.45 11.2 L-0.05 9.0 -1.4 11.15 Q-2.45 10.9 -3.5 9.9 L-4.9 8.45 -4.9 8.4 -4.25 6.15 Q-3.8 5.0 -3.0 4.3 L-0.8 4.2 -0.35 2.9 -0.05 1.95 0.25 2.85 0.65 4.2 3.1 4.3 4.5 6.15 4.6 6.3 M2.0 11.95 Q3.35 11.75 4.5 11.15 L4.1 12.1 2.15 12.5 2.0 11.95 M-3.8 12.05 Q-4.1 11.3 -4.5 10.7 -3.15 11.6 -1.9 11.85 L-1.9 12.45 -3.8 12.05" fill="#3c4147" fill-rule="evenodd" stroke="none"/>
    <path d="M5.6 3.8 L4.65 6.15 4.6 6.3 4.5 6.15 3.1 4.3 5.6 3.8 M4.65 6.45 L5.45 7.25 5.75 7.65 5.7 7.65 5.2 8.3 4.65 6.45 M6.7 9.45 L7.2 10.65 Q6.25 11.4 5.15 11.8 L4.9 11.9 4.15 12.1 4.1 12.1 4.5 11.15 4.75 11.0 5.2 10.75 6.7 9.45 M-6.9 10.55 L-6.4 9.1 -5.1 10.25 -4.5 10.7 Q-4.1 11.3 -3.8 12.05 L-4.75 11.8 -5.05 11.7 Q-6.15 11.3 -6.9 10.55 M-5.6 7.55 L-4.55 6.3 -4.6 6.15 -5.55 3.8 -3.0 4.3 Q-3.8 5.0 -4.25 6.15 L-4.9 8.4 -5.6 7.55" fill="#1e2225" fill-rule="evenodd" stroke="none"/>
    <path d="M6.7 -9.5 L8.2 -9.0 M7.0 -4.0 L7.0 -3.95 7.25 -3.35 7.4 -2.3 Q7.45 -0.6 6.5 0.7 L6.45 0.8 6.1 3.6 5.6 3.8 4.65 6.15 4.6 6.3 4.55 6.35 4.65 6.45 5.45 7.25 5.75 7.65 M6.7 9.45 L7.2 10.65 M2.3 13.3 L2.4 14.75 M-1.85 14.75 L-1.9 13.35 -2.3 13.3 M-7.35 12.35 L-7.35 12.3 M-6.9 10.55 L-6.4 9.1 M-5.6 7.55 L-4.55 6.3 -4.6 6.15 -5.55 3.8 -6.05 3.65 -6.45 0.8 -6.45 0.7 Q-7.45 -0.6 -7.35 -2.3 L-7.0 -3.95 M-8.2 -9.2 L-6.85 -9.6 Q-6.6 -10.55 -5.65 -9.9 L-4.4 -10.15 Q-4.0 -11.0 -2.9 -10.25 M-2.8 -10.3 L-3.25 -12.55 -3.45 -13.5 Q0.05 -14.5 3.55 -13.5 L3.3 -11.9 3.05 -10.35 Q4.5 -10.9 5.2 -9.95 5.75 -10.45 6.0 -9.75 6.35 -10.1 6.55 -9.95 L6.7 -9.5 6.7 -9.45 Q5.95 -3.6 4.45 -3.45 L1.75 -1.95 Q0.55 -1.15 -0.1 -1.15 -0.75 -1.15 -1.45 -1.85 L-1.9 -2.25 -1.95 -2.3 -3.1 -3.1 Q-5.55 -4.2 -6.25 -6.25 -6.9 -8.25 -6.85 -9.6 M-5.65 -9.9 L-5.0 -10.0 -4.4 -10.15 M6.5 0.7 L6.4 0.8 Q5.4 2.05 3.85 2.15 L2.5 2.0 1.9 1.75 1.85 1.7 Q-0.05 0.6 -1.75 1.65 L-1.8 1.7 -3.8 2.15 Q-5.4 2.05 -6.4 0.75 L-6.45 0.7 M3.1 4.3 L0.65 4.2 0.25 2.85 -0.05 1.95 -0.35 2.9 -0.8 4.2 -3.0 4.3 M-1.4 11.15 L-0.05 9.0 1.45 11.2 2.0 11.95 2.15 12.5 2.3 13.3 M3.1 4.3 L5.6 3.8 M-1.9 12.45 L-1.9 11.85 -1.4 11.15 M-1.9 13.35 L-1.9 13.3 -1.9 12.45 M-2.7 -13.1 Q0.05 -11.45 2.85 -13.1" fill="none" stroke="#a0a0a0" stroke-linecap="round" stroke-linejoin="round" stroke-width="0.05"/>
    <path d="M2.35 -5.1 Q4.65 -5.7 6.0 -9.7 L6.0 -9.75 M-1.25 -3.4 Q-5.4 -6.7 -5.65 -9.9 M5.2 -9.95 Q4.7 -8.05 3.4 -7.3" fill="none" stroke="#a0a0a0" stroke-linecap="round" stroke-linejoin="round" stroke-width="0.15000000000000002"/>
    <path d="M-3.0 4.3 L-5.55 3.8" fill="none" stroke="#a0a0a0" stroke-linecap="round" stroke-linejoin="round" stroke-width="0.15000000000000002"/>
    <path d="M5.75 7.65 Q6.95 7.9 6.75 9.4 L6.7 9.45 5.2 10.75 4.75 11.0 4.5 11.15 Q3.35 11.75 2.0 11.95 M7.2 10.65 Q7.95 11.45 7.75 12.3 6.65 12.95 5.05 13.2 L4.2 13.3 3.9 13.3 2.3 13.3 M-2.3 13.3 L-3.35 13.25 -3.8 13.2 -4.95 13.1 Q-6.55 12.85 -7.35 12.35 L-7.35 12.3 Q-7.8 11.35 -6.9 10.55 -6.15 11.3 -5.05 11.7 L-4.75 11.8 -3.8 12.05 -1.9 12.45 M-6.4 9.1 Q-6.85 7.75 -5.6 7.55 L-4.9 8.4 -4.9 8.45 -3.5 9.9 Q-2.45 10.9 -1.4 11.15 M1.45 11.2 Q2.55 11.0 3.65 10.0 L5.05 8.5 5.2 8.3 5.7 7.65 5.75 7.65 M4.15 12.1 L4.1 12.1 2.15 12.5 M7.2 10.65 Q6.25 11.4 5.15 11.8 L4.9 11.9 4.15 12.1 M-6.4 9.1 L-5.1 10.25 -4.5 10.7 Q-3.15 11.6 -1.9 11.85 M-1.9 13.3 L-2.3 13.3" fill="none" stroke="#000000" stroke-linecap="round" stroke-linejoin="round" stroke-width="0.05"/>
    <path d="M1.95 14.5 L0.35 18.75 -1.6 14.55 0.0 10.15 1.95 14.5 M0.3 17.75 L1.35 14.55 0.05 11.35 -1.0 14.6 0.3 17.75" fill="#e3e496" fill-rule="evenodd" stroke="none"/>
    <path d="M0.3 17.75 L-1.0 14.6 0.05 11.35 1.35 14.55 0.3 17.75" fill="#98343a" fill-rule="evenodd" stroke="none"/>
  </g>
</svg>
