<?xml version="1.0" encoding="UTF-8" standalone="no"?>
<svg xmlns:xlink="http://www.w3.org/1999/xlink" height="27.95px" width="17.05px" xmlns="http://www.w3.org/2000/svg">
  <g transform="matrix(1.0, 0.0, 0.0, 1.0, 8.45, 13.6)">
    <path d="M2.75 -10.35 L2.75 -7.55 Q1.1 -7.35 -0.2 -5.85 -1.0 -6.9 -2.35 -7.55 L-2.75 -10.3 Q0.0 -9.05 2.75 -10.35 M-4.95 -9.95 Q-4.7 -8.4 -4.2 -7.8 -5.45 -7.7 -6.75 -6.9 L-7.45 -6.4 -8.25 -9.1 Q-6.6 -9.8 -4.95 -9.95 M-5.9 2.6 Q-5.0 3.25 -4.3 3.35 L-3.0 3.15 Q-2.1 2.45 0.05 2.35 2.45 2.5 3.4 3.45 L4.9 3.5 5.85 3.2 Q5.3 5.25 4.5 6.3 5.5 6.95 6.15 8.2 L1.8 8.75 Q0.95 8.1 -0.15 8.1 -1.25 8.1 -2.0 8.75 L-6.05 8.15 Q-5.4 6.9 -4.5 6.2 -5.5 4.85 -5.9 2.6 M7.45 -5.95 Q6.35 -6.95 4.75 -7.35 5.4 -8.55 5.0 -10.1 6.85 -9.8 8.3 -8.9 L7.45 -5.95" fill="#2f3032" fill-rule="evenodd" stroke="none"/>
    <path d="M-2.75 -10.3 L-2.9 -13.15 Q-0.8 -14.05 2.6 -13.15 L2.75 -10.35 Q0.0 -9.05 -2.75 -10.3 M2.8 9.9 L2.1 9.0 1.8 8.75 6.15 8.2 Q6.95 8.3 6.6 9.15 L2.8 9.9 M-2.0 8.75 L-2.3 9.0 -2.85 9.9 -6.45 9.15 Q-6.9 8.55 -6.05 8.15 L-2.0 8.75 M-2.85 12.25 L-2.05 13.45 -1.8 13.65 Q-4.55 13.4 -7.35 12.45 -7.6 11.85 -7.1 11.3 L-2.85 12.25 M2.15 13.7 L2.4 13.45 3.1 12.25 7.5 11.25 Q8.2 11.55 7.85 12.45 5.05 13.45 2.15 13.7 M1.95 -12.65 Q-0.1 -11.9 -2.2 -12.65 -0.1 -11.9 1.95 -12.65" fill="#ffffff" fill-rule="evenodd" stroke="none"/>
    <path d="M2.75 -7.55 L2.75 -10.35 Q4.0 -12.15 5.0 -10.1 5.4 -8.55 4.75 -7.35 6.35 -6.95 7.45 -5.95 L7.8 -5.6 Q9.2 -4.05 8.2 -0.25 7.45 2.4 5.85 3.2 L4.9 3.5 3.4 3.45 Q2.45 2.5 0.05 2.35 -2.1 2.45 -3.0 3.15 L-4.3 3.35 Q-5.0 3.25 -5.9 2.6 -7.25 1.65 -7.95 -0.35 -9.2 -4.75 -7.45 -6.4 L-6.75 -6.9 Q-5.45 -7.7 -4.2 -7.8 -4.7 -8.4 -4.95 -9.95 -3.9 -12.1 -2.75 -10.3 L-2.35 -7.55 Q-1.0 -6.9 -0.2 -5.85 1.1 -7.35 2.75 -7.55 M4.85 -5.45 Q2.0 -6.5 0.0 -4.1 -1.95 -6.0 -3.5 -5.9 -5.05 -5.85 -6.1 -5.05 -7.2 -4.25 -7.35 -3.0 -7.5 -1.75 -6.95 -0.3 -6.45 1.15 -4.8 1.8 L-1.55 1.7 1.4 1.55 Q3.75 2.85 5.8 1.55 7.1 0.75 7.5 -2.2 7.7 -4.45 4.85 -5.45" fill="#ff9933" fill-rule="evenodd" stroke="none"/>
    <path d="M4.85 -5.45 Q7.7 -4.45 7.5 -2.2 7.1 0.75 5.8 1.55 3.75 2.85 1.4 1.55 L-1.55 1.7 -4.8 1.8 Q-6.45 1.15 -6.95 -0.3 -7.5 -1.75 -7.35 -3.0 -7.2 -4.25 -6.1 -5.05 -5.05 -5.85 -3.5 -5.9 -1.95 -6.0 0.0 -4.1 2.0 -6.5 4.85 -5.45" fill="#c76401" fill-rule="evenodd" stroke="none"/>
    <path d="M1.8 11.25 Q1.75 10.55 1.3 10.05 L1.2 9.95 Q0.65 9.45 -0.1 9.45 -0.8 9.45 -1.3 9.95 L-1.35 10.05 Q-1.8 10.55 -1.75 11.2 -1.7 11.9 -1.2 12.4 L-1.15 12.45 Q-0.6 13.0 0.1 13.0 0.85 13.0 1.35 12.45 L1.45 12.4 Q1.85 11.9 1.8 11.25 1.85 11.9 1.45 12.4 L1.35 12.45 Q0.85 13.0 0.1 13.0 -0.6 13.0 -1.15 12.45 L-1.2 12.4 Q-1.7 11.9 -1.75 11.2 -1.8 10.55 -1.35 10.05 L-1.3 9.95 Q-0.8 9.45 -0.1 9.45 0.65 9.45 1.2 9.95 L1.3 10.05 Q1.75 10.55 1.8 11.25 M2.8 9.9 L3.2 11.25 3.1 12.25 2.4 13.45 2.15 13.7 Q1.35 14.35 0.25 14.35 -0.9 14.35 -1.8 13.65 L-2.05 13.45 -2.85 12.25 -3.1 11.25 Q-3.15 10.5 -2.85 9.9 L-2.3 9.0 -2.0 8.75 Q-1.25 8.1 -0.15 8.1 0.95 8.1 1.8 8.75 L2.1 9.0 2.8 9.9" fill="#ff7f5a" fill-rule="evenodd" stroke="none"/>
    <path d="M3.1 12.25 L3.2 11.25 2.8 9.9 6.6 9.15 Q8.0 10.0 7.5 11.25 L3.1 12.25 M-2.85 9.9 Q-3.15 10.5 -3.1 11.25 L-2.85 12.25 -7.1 11.3 Q-7.7 9.95 -6.45 9.15 L-2.85 9.9" fill="#000000" fill-rule="evenodd" stroke="none"/>
    <path d="M2.75 -7.55 Q1.1 -7.35 -0.2 -5.85 -1.0 -6.9 -2.35 -7.55 M-2.75 -10.3 Q-3.9 -12.1 -4.95 -9.95 -6.6 -9.8 -8.25 -9.1 L-7.45 -6.4 Q-9.2 -4.75 -7.95 -0.35 -7.25 1.65 -5.9 2.6 -5.5 4.85 -4.5 6.2 -5.4 6.9 -6.05 8.15 -6.9 8.55 -6.45 9.15 -7.7 9.95 -7.1 11.3 -7.6 11.85 -7.35 12.45 -4.55 13.4 -1.8 13.65 -0.9 14.35 0.25 14.35 1.35 14.35 2.15 13.7 L2.4 13.45 3.1 12.25 3.2 11.25 2.8 9.9 2.1 9.0 1.8 8.75 Q0.95 8.1 -0.15 8.1 -1.25 8.1 -2.0 8.75 L-2.3 9.0 -2.85 9.9 Q-3.15 10.5 -3.1 11.25 L-2.85 12.25 -2.05 13.45 -1.8 13.65 M-4.2 -7.8 Q-5.45 -7.7 -6.75 -6.9 L-7.45 -6.4 M-3.0 3.15 Q-2.1 2.45 0.05 2.35 2.45 2.5 3.4 3.45 M5.85 3.2 Q7.45 2.4 8.2 -0.25 9.2 -4.05 7.8 -5.6 L7.45 -5.95 Q6.35 -6.95 4.75 -7.35 M5.0 -10.1 Q4.0 -12.15 2.75 -10.35 L2.6 -13.15 Q-0.8 -14.05 -2.9 -13.15 L-2.75 -10.3 Q0.0 -9.05 2.75 -10.35 M5.0 -10.1 Q6.85 -9.8 8.3 -8.9 L7.45 -5.95 M1.8 11.25 Q1.85 11.9 1.45 12.4 L1.35 12.45 Q0.85 13.0 0.1 13.0 -0.6 13.0 -1.15 12.45 L-1.2 12.4 Q-1.7 11.9 -1.75 11.2 -1.8 10.55 -1.35 10.05 L-1.3 9.95 Q-0.8 9.45 -0.1 9.45 0.65 9.45 1.2 9.95 L1.3 10.05 Q1.75 10.55 1.8 11.25 M7.5 11.25 Q8.0 10.0 6.6 9.15 6.95 8.3 6.15 8.2 5.5 6.95 4.5 6.3 5.3 5.25 5.85 3.2 M7.5 11.25 Q8.2 11.55 7.85 12.45 5.05 13.45 2.15 13.7 M-2.2 -12.65 Q-0.1 -11.9 1.95 -12.65" fill="none" stroke="#000000" stroke-linecap="round" stroke-linejoin="round" stroke-width="0.05"/>
  </g>
</svg>
