<?xml version="1.0" encoding="UTF-8" standalone="no"?>
<svg xmlns:xlink="http://www.w3.org/1999/xlink" height="31.0px" width="16.4px" xmlns="http://www.w3.org/2000/svg">
  <g transform="matrix(1.0, 0.0, 0.0, 1.0, 8.2, 14.2)">
    <path d="M-7.0 10.9 L-6.95 10.85 -7.0 10.9" fill="#809b96" fill-rule="evenodd" stroke="none"/>
    <path d="M3.35 -11.4 Q4.25 -10.35 5.25 -10.0 L5.75 -9.85 5.75 -9.8 5.25 -10.0 5.75 -9.8 Q5.3 -7.45 3.85 -6.3 3.1 -5.8 2.1 -5.55 L0.15 -5.4 Q-1.35 -5.45 -2.4 -6.0 L-4.05 -7.1 Q-5.1 -8.3 -5.3 -9.95 L-5.0 -10.05 -4.45 -10.3 Q-3.75 -10.75 -3.0 -11.6 L-1.8 -10.85 2.2 -10.65 3.35 -11.4 M1.3 -6.8 Q1.7 -7.2 1.65 -7.75 1.6 -8.3 1.15 -8.75 0.75 -9.15 0.15 -9.15 -0.4 -9.15 -0.8 -8.75 -1.2 -8.35 -1.15 -7.8 -1.1 -7.25 -0.65 -6.8 -0.2 -6.35 0.35 -6.35 0.95 -6.35 1.3 -6.8 M4.15 -9.45 L3.55 -9.7 Q3.2 -9.7 2.95 -9.45 L2.7 -8.8 3.0 -8.2 Q3.3 -7.95 3.65 -7.95 L4.0 -8.0 4.3 -8.25 4.45 -8.55 4.45 -8.8 4.15 -9.45 M-3.05 -10.1 L-3.65 -9.85 -3.9 -9.2 -3.6 -8.6 -2.95 -8.35 Q-2.6 -8.35 -2.4 -8.6 L-2.15 -9.2 -2.45 -9.85 -3.05 -10.1" fill="#224156" fill-rule="evenodd" stroke="none"/>
    <path d="M-2.4 -6.0 Q-1.35 -5.45 0.15 -5.4 L2.1 -5.55 3.4 -4.0 Q1.55 -2.7 0.1 -2.75 -1.5 -2.8 -3.6 -4.65 L-2.4 -6.0 M-4.25 -3.7 L-4.15 -3.6 Q-2.1 -1.05 0.15 -0.95 2.2 -0.85 4.15 -2.85 5.2 -1.0 4.65 0.55 L2.75 0.5 2.35 0.4 Q0.25 -0.6 -2.6 0.5 L-4.55 0.65 Q-5.5 -1.5 -4.25 -3.7 M-3.4 4.7 L-2.65 3.95 Q-0.2 2.0 2.0 3.45 L3.55 4.8 3.1 6.2 4.8 9.15 5.2 10.2 5.2 10.25 4.3 11.5 2.9 11.75 2.25 11.0 Q1.2 10.05 -0.2 9.95 -1.6 9.95 -2.6 10.95 L-3.15 11.75 -3.95 11.65 -4.6 10.55 -4.2 9.1 -2.8 6.2 -3.4 4.7" fill="#ffffff" fill-rule="evenodd" stroke="none"/>
    <path d="M-5.3 -10.0 L-5.0 -10.05 -5.3 -9.95 -5.3 -10.0" fill="#8e3939" fill-rule="evenodd" stroke="none"/>
    <path d="M-4.55 0.65 L-2.6 0.5 Q0.25 -0.6 2.35 0.4 L2.75 0.5 4.65 0.55 3.5 2.15 2.5 2.0 1.9 1.75 1.85 1.7 Q0.0 0.6 -1.75 1.65 L-1.8 1.7 -3.6 2.15 -1.8 1.7 -1.75 1.65 Q0.0 0.6 1.85 1.7 L1.9 1.75 2.5 2.0 3.5 2.15 Q3.8 3.45 3.55 4.8 L2.0 3.45 Q-0.2 2.0 -2.65 3.95 L-3.4 4.7 Q-3.75 3.55 -3.6 2.15 L-4.55 0.65 M-4.6 10.55 L-3.95 11.65 -4.75 11.5 -4.6 10.55 M4.3 11.5 L5.2 10.25 5.2 10.2 5.45 11.25 4.3 11.5" fill="#e0e0e0" fill-rule="evenodd" stroke="none"/>
    <path d="M7.25 10.75 Q8.55 12.8 8.1 14.5 L5.8 15.1 Q6.1 13.05 5.45 11.25 L7.25 10.75 M-5.7 14.95 L-7.6 14.45 Q-8.1 12.4 -7.05 11.0 L-7.0 11.05 -7.0 10.9 -6.95 10.85 -4.75 11.5 Q-5.7 12.85 -5.7 14.95" fill="#000000" fill-rule="evenodd" stroke="none"/>
    <path d="M5.8 15.1 L2.85 15.55 Q3.55 14.6 3.45 13.4 L3.45 13.2 2.9 11.75 4.3 11.5 5.45 11.25 Q6.1 13.05 5.8 15.1 M-2.6 15.5 L-5.2 15.05 -5.7 14.95 Q-5.7 12.85 -4.75 11.5 L-3.95 11.65 -3.15 11.75 -3.45 13.15 -3.45 13.35 Q-3.4 14.5 -2.6 15.5 M-1.3 11.95 Q-0.85 11.45 -0.1 11.45 0.6 11.5 1.15 11.9 L1.3 12.05 Q1.85 12.55 1.95 13.35 L1.95 13.4 Q2.0 14.2 1.45 14.75 0.95 15.3 0.15 15.25 -0.65 15.25 -1.25 14.7 -1.8 14.15 -1.85 13.35 -1.9 12.55 -1.4 12.0 L-1.3 11.95" fill="#2f3f4a" fill-rule="evenodd" stroke="none"/>
    <path d="M2.85 15.55 L2.55 15.85 Q1.55 16.85 0.2 16.8 -1.15 16.8 -2.3 15.8 L-2.6 15.5 Q-3.4 14.5 -3.45 13.35 L-3.45 13.15 -3.15 11.75 -2.6 10.95 Q-1.6 9.95 -0.2 9.95 1.2 10.05 2.25 11.0 L2.9 11.75 3.45 13.2 3.45 13.4 Q3.55 14.6 2.85 15.55 M4.15 -9.45 L4.45 -8.8 4.45 -8.55 4.3 -8.25 4.0 -8.0 3.65 -7.95 Q3.3 -7.95 3.0 -8.2 L2.7 -8.8 2.95 -9.45 Q3.2 -9.7 3.55 -9.7 L4.15 -9.45 M1.3 -6.8 Q0.95 -6.35 0.35 -6.35 -0.2 -6.35 -0.65 -6.8 -1.1 -7.25 -1.15 -7.8 -1.2 -8.35 -0.8 -8.75 -0.4 -9.15 0.15 -9.15 0.75 -9.15 1.15 -8.75 1.6 -8.3 1.65 -7.75 1.7 -7.2 1.3 -6.8 M-3.6 -4.65 Q-1.5 -2.8 0.1 -2.75 1.55 -2.7 3.4 -4.0 L3.7 -4.25 5.0 -5.45 Q5.5 -5.6 5.65 -4.95 L4.35 -3.05 4.15 -2.85 Q2.2 -0.85 0.15 -0.95 -2.1 -1.05 -4.15 -3.6 L-4.25 -3.7 -5.45 -5.65 Q-5.5 -6.25 -5.0 -6.1 L-3.65 -4.7 -3.6 -4.65 M-3.05 -10.1 L-2.45 -9.85 -2.15 -9.2 -2.4 -8.6 Q-2.6 -8.35 -2.95 -8.35 L-3.6 -8.6 -3.9 -9.2 -3.65 -9.85 -3.05 -10.1 M-1.3 11.95 L-1.4 12.0 Q-1.9 12.55 -1.85 13.35 -1.8 14.15 -1.25 14.7 -0.65 15.25 0.15 15.25 0.95 15.3 1.45 14.75 2.0 14.2 1.95 13.4 L1.95 13.35 Q1.85 12.55 1.3 12.05 L1.15 11.9 Q0.6 11.5 -0.1 11.45 -0.85 11.45 -1.3 11.95" fill="#8bd7fe" fill-rule="evenodd" stroke="none"/>
    <path d="M5.65 -4.95 Q5.5 -5.6 5.0 -5.45 6.4 -7.05 7.0 -9.45 6.55 -6.8 5.65 -4.95 M-5.0 -6.1 Q-5.5 -6.25 -5.45 -5.65 -6.35 -7.5 -6.5 -9.7 -6.25 -7.8 -5.0 -6.1" fill="#24a1e0" fill-rule="evenodd" stroke="none"/>
    <path d="M-2.05 -12.95 L-1.35 -12.75 1.65 -12.7 2.25 -12.85 Q2.95 -11.75 2.2 -10.65 L-1.8 -10.85 Q-2.75 -12.15 -2.05 -12.95 M7.0 -4.0 L7.0 -3.95 7.25 -3.35 Q6.9 0.2 4.65 0.55 5.2 -1.0 4.15 -2.85 L4.35 -3.05 5.65 -4.95 Q6.65 -4.8 7.0 -4.0 M4.6 6.3 L4.55 6.35 4.65 6.45 Q5.25 7.8 5.3 9.15 L5.35 9.5 5.2 10.2 4.8 9.15 3.1 6.2 3.55 4.8 4.6 6.3 M-7.0 -3.95 L-7.0 -4.0 -7.0 -4.05 Q-6.55 -5.15 -5.45 -5.65 L-4.25 -3.7 Q-5.5 -1.5 -4.55 0.65 -7.85 0.35 -7.0 -3.95 M-2.4 -6.0 L-3.6 -4.65 -3.65 -4.7 -5.0 -6.1 Q-4.7 -7.05 -4.05 -7.1 L-2.4 -6.0 M3.4 -4.0 L2.1 -5.55 Q3.1 -5.8 3.85 -6.3 4.6 -6.15 5.0 -5.45 L3.7 -4.25 3.4 -4.0 M-3.4 4.7 L-2.8 6.2 -4.2 9.1 -4.6 10.55 -5.1 9.95 -5.0 9.1 Q-4.7 6.25 -3.4 4.7" fill="#42ac81" fill-rule="evenodd" stroke="none"/>
    <path d="M2.25 -12.85 L1.65 -12.7 -1.35 -12.75 -2.05 -12.95 Q-2.75 -12.15 -1.8 -10.85 L-3.0 -11.6 -3.35 -13.65 -1.9 -14.0 Q0.15 -14.35 2.0 -14.0 L3.7 -13.4 3.35 -11.4 2.2 -10.65 Q2.95 -11.75 2.25 -12.85 L2.85 -13.0 2.25 -12.85 M5.75 -9.8 L7.0 -9.45 8.2 -9.0 Q7.95 -5.55 7.0 -4.0 6.65 -4.8 5.65 -4.95 6.55 -6.8 7.0 -9.45 6.4 -7.05 5.0 -5.45 4.6 -6.15 3.85 -6.3 5.3 -7.45 5.75 -9.8 M7.25 -3.35 L7.4 -2.3 Q7.5 -0.55 6.5 0.7 L6.4 0.8 5.8 3.15 4.6 6.3 3.55 4.8 Q3.8 3.45 3.5 2.15 L4.65 0.55 Q6.9 0.2 7.25 -3.35 M4.65 6.45 L5.45 7.25 6.6 9.15 7.25 10.75 5.45 11.25 5.2 10.2 5.35 9.5 5.3 9.15 Q5.25 7.8 4.65 6.45 M-6.95 10.85 Q-6.2 7.85 -4.55 6.3 L-5.65 3.5 -5.8 3.1 -6.4 0.75 -6.45 0.7 Q-7.4 -0.55 -7.35 -2.3 L-7.0 -3.95 Q-7.85 0.35 -4.55 0.65 L-3.6 2.15 -3.8 2.15 Q-5.4 2.1 -6.4 0.75 -5.4 2.1 -3.8 2.15 L-3.6 2.15 Q-3.75 3.55 -3.4 4.7 -4.7 6.25 -5.0 9.1 L-5.1 9.95 -4.6 10.55 -4.75 11.5 -6.95 10.85 M-7.0 -4.0 Q-8.1 -6.3 -8.2 -9.2 L-6.5 -9.7 -5.3 -10.0 -5.3 -9.95 Q-5.1 -8.3 -4.05 -7.1 -4.7 -7.05 -5.0 -6.1 -6.25 -7.8 -6.5 -9.7 -6.35 -7.5 -5.45 -5.65 -6.55 -5.15 -7.0 -4.05 L-7.0 -4.0 M-2.7 -13.15 L-2.05 -12.95 -2.7 -13.15 M6.4 0.8 Q5.45 2.1 3.85 2.15 L3.5 2.15 3.85 2.15 Q5.45 2.1 6.4 0.8" fill="#45916e" fill-rule="evenodd" stroke="none"/>
    <path d="M3.35 -11.4 Q4.25 -10.35 5.25 -10.0 L5.75 -9.85 5.75 -9.8 Q5.3 -7.45 3.85 -6.3 3.1 -5.8 2.1 -5.55 M7.25 10.75 Q8.55 12.8 8.1 14.5 L5.8 15.1 2.85 15.55 2.55 15.85 Q1.55 16.85 0.2 16.8 -1.15 16.8 -2.3 15.8 L-2.6 15.5 -5.2 15.05 -5.7 14.95 -7.6 14.45 Q-8.1 12.4 -7.05 11.0 L-7.0 11.05 -7.0 10.9 -6.95 10.85 -4.75 11.5 Q-5.7 12.85 -5.7 14.95 M-4.45 -10.3 Q-3.75 -10.75 -3.0 -11.6 L-1.8 -10.85 2.2 -10.65 3.35 -11.4 M-5.3 -9.95 L-5.0 -10.05 M-2.4 -6.0 L-4.05 -7.1 Q-5.1 -8.3 -5.3 -9.95 M-3.95 11.65 L-3.15 11.75 -2.6 10.95 Q-1.6 9.95 -0.2 9.95 1.2 10.05 2.25 11.0 L2.9 11.75 4.3 11.5 5.45 11.25 Q6.1 13.05 5.8 15.1 M-3.95 11.65 L-4.75 11.5 M-1.3 11.95 Q-0.85 11.45 -0.1 11.45 0.6 11.5 1.15 11.9 L1.3 12.05 Q1.85 12.55 1.95 13.35 L1.95 13.4 Q2.0 14.2 1.45 14.75 0.95 15.3 0.15 15.25 -0.65 15.25 -1.25 14.7 -1.8 14.15 -1.85 13.35 -1.9 12.55 -1.4 12.0 L-1.3 11.95 M-3.15 11.75 L-3.45 13.15 -3.45 13.35 Q-3.4 14.5 -2.6 15.5 M2.9 11.75 L3.45 13.2 3.45 13.4 Q3.55 14.6 2.85 15.55" fill="none" stroke="#000000" stroke-linecap="round" stroke-linejoin="round" stroke-width="0.05"/>
    <path d="M-5.3 -10.0 L-5.0 -10.05 -4.45 -10.3 M5.75 -9.8 L5.25 -10.0" fill="none" stroke="#6b2c2c" stroke-linecap="round" stroke-linejoin="round" stroke-width="0.05"/>
    <path d="M6.4 0.8 L5.8 3.15 4.6 6.3 M-4.55 6.3 L-5.65 3.5 -5.8 3.1 -6.4 0.75 M2.1 -5.55 L0.15 -5.4 Q-1.35 -5.45 -2.4 -6.0 L-3.6 -4.65 M3.4 -4.0 L2.1 -5.55 M4.15 -2.85 Q5.2 -1.0 4.65 0.55 L3.5 2.15 Q3.8 3.45 3.55 4.8 L3.1 6.2 4.8 9.15 5.2 10.2 5.45 11.25 M-4.25 -3.7 Q-5.5 -1.5 -4.55 0.65 L-3.6 2.15 Q-3.75 3.55 -3.4 4.7 L-2.8 6.2 -4.2 9.1 -4.6 10.55 -4.75 11.5" fill="none" stroke="#999999" stroke-linecap="round" stroke-linejoin="round" stroke-width="0.05"/>
    <path d="M7.0 -4.0 L7.0 -3.95 7.25 -3.35 M4.6 6.3 L4.55 6.35 4.65 6.45 5.45 7.25 6.6 9.15 7.25 10.75 M-7.0 10.9 L-6.95 10.85 Q-6.2 7.85 -4.55 6.3" fill="none" stroke="#a0a0a0" stroke-linecap="round" stroke-linejoin="round" stroke-width="0.05"/>
    <path d="M-7.05 11.0 L-7.0 10.9 M5.45 11.25 L7.25 10.75" fill="none" stroke="#666666" stroke-linecap="round" stroke-linejoin="round" stroke-width="0.05"/>
    <path d="M4.15 -2.85 L4.35 -3.05 5.65 -4.95 Q6.55 -6.8 7.0 -9.45 M-4.25 -3.7 L-4.15 -3.6 Q-2.1 -1.05 0.15 -0.95 2.2 -0.85 4.15 -2.85 M-5.45 -5.65 L-4.25 -3.7 M-6.5 -9.7 Q-6.35 -7.5 -5.45 -5.65" fill="none" stroke="#029ad2" stroke-linecap="round" stroke-linejoin="round" stroke-width="0.05"/>
    <path d="M-2.05 -12.95 L-1.35 -12.75 1.65 -12.7 2.25 -12.85 2.85 -13.0 M-3.0 -11.6 L-3.35 -13.65 -1.9 -14.0 Q0.15 -14.35 2.0 -14.0 L3.7 -13.4 3.35 -11.4 M5.75 -9.8 L7.0 -9.45 8.2 -9.0 M7.25 -3.35 L7.4 -2.3 Q7.5 -0.55 6.5 0.7 L6.4 0.8 Q5.45 2.1 3.85 2.15 L3.5 2.15 2.5 2.0 1.9 1.75 1.85 1.7 Q0.0 0.6 -1.75 1.65 L-1.8 1.7 -3.6 2.15 -3.8 2.15 Q-5.4 2.1 -6.4 0.75 L-6.45 0.7 Q-7.4 -0.55 -7.35 -2.3 L-7.0 -3.95 M-8.2 -9.2 L-6.5 -9.7 -5.3 -10.0 M-2.05 -12.95 L-2.7 -13.15 M-7.0 -4.05 L-7.0 -4.0" fill="none" stroke="#666666" stroke-linecap="round" stroke-linejoin="round" stroke-width="0.05"/>
  </g>
</svg>
