<?xml version="1.0" encoding="UTF-8" standalone="no"?>
<svg xmlns:xlink="http://www.w3.org/1999/xlink" height="2.3px" width="7.2px" xmlns="http://www.w3.org/2000/svg">
  <g transform="matrix(1.0, 0.0, 0.0, 1.0, 3.6, 1.15)">
    <path d="M2.65 -0.45 L2.75 -0.15 Q2.85 -0.05 3.0 -0.05 L3.25 -0.15 3.4 -0.45 3.25 -0.7 3.0 -0.8 2.75 -0.7 2.65 -0.45 M3.4 -0.8 L3.6 0.0 3.4 0.85 2.9 1.15 2.45 0.85 2.25 0.0 2.45 -0.8 2.9 -1.15 3.4 -0.8 M-3.2 -0.45 L-3.1 -0.15 -2.85 -0.05 -2.6 -0.15 -2.45 -0.45 -2.6 -0.7 -2.85 -0.8 -3.1 -0.7 -3.2 -0.45 M-2.95 -1.15 L-2.45 -0.8 -2.25 0.0 -2.45 0.85 -2.95 1.15 -3.4 0.85 -3.6 0.0 -3.4 -0.8 -2.95 -1.15" fill="#000000" fill-rule="evenodd" stroke="none"/>
    <path d="M2.65 -0.45 L2.75 -0.7 3.0 -0.8 3.25 -0.7 3.4 -0.45 3.25 -0.15 3.0 -0.05 Q2.85 -0.05 2.75 -0.15 L2.65 -0.45 M-3.2 -0.45 L-3.1 -0.7 -2.85 -0.8 -2.6 -0.7 -2.45 -0.45 -2.6 -0.15 -2.85 -0.05 -3.1 -0.15 -3.2 -0.45" fill="#ffffff" fill-rule="evenodd" stroke="none"/>
  </g>
</svg>
