<?xml version="1.0" encoding="UTF-8" standalone="no"?>
<svg xmlns:xlink="http://www.w3.org/1999/xlink" height="16.15px" width="11.4px" xmlns="http://www.w3.org/2000/svg">
  <g transform="matrix(1.0, 0.0, 0.0, 1.0, 5.7, 8.1)">
    <path d="M4.7 2.75 L4.65 3.2 4.45 3.75 4.45 3.85 4.0 4.8 4.4 3.85 4.7 2.75" fill="#f5dfc5" fill-rule="evenodd" stroke="none"/>
    <path d="M-5.35 -0.75 L-5.1 0.2 -5.1 0.25 -3.7 4.35 Q-2.75 6.15 0.05 8.05 L-0.35 7.9 Q-2.4 6.9 -3.75 5.0 L-3.9 4.7 -4.55 2.9 -4.6 2.7 -5.1 0.3 -5.1 0.25 -5.1 0.3 -4.6 2.7 Q-5.3 2.9 -5.45 0.8 -5.95 -0.9 -5.35 -0.75 M0.1 8.05 Q2.4 6.45 3.65 4.6 L5.1 0.35 5.1 0.25 5.4 -0.75 Q5.95 -0.9 5.5 0.8 5.3 2.95 4.7 2.75 L4.4 3.85 4.0 4.8 3.6 5.35 Q2.35 7.1 0.55 7.9 L0.1 8.05 M-0.45 4.7 L0.45 4.75 Q0.35 5.05 0.0 5.0 L-0.45 4.7 M5.1 0.35 L4.7 2.75 5.1 0.35" fill="#784d43" fill-rule="evenodd" stroke="none"/>
    <path d="M-5.35 -0.75 L-5.45 -1.95 Q-5.45 -4.6 -3.65 -6.45 -2.1 -8.05 0.05 -8.1 2.1 -8.05 3.65 -6.45 5.5 -4.6 5.5 -1.95 L5.4 -0.75 5.1 0.25 5.1 0.35 3.65 4.6 Q2.4 6.45 0.1 8.05 L0.05 8.05 Q-2.75 6.15 -3.7 4.35 L-5.1 0.25 -5.1 0.2 -5.35 -0.75 M1.65 2.95 L4.0 2.7 Q3.75 0.15 2.1 0.65 1.7 1.6 1.65 2.95 M-1.8 5.5 Q-1.15 5.95 0.05 6.0 1.2 5.95 1.85 5.5 1.2 5.95 0.05 6.0 -1.15 5.95 -1.8 5.5 M-0.45 4.7 L0.0 5.0 Q0.35 5.05 0.45 4.75 L-0.45 4.7 Q-0.05 3.7 -0.45 1.7 -0.05 3.7 -0.45 4.7 M-1.65 2.95 Q-1.7 1.6 -2.1 0.65 -3.75 0.15 -3.95 2.7 L-1.65 2.95" fill="#a56c5f" fill-rule="evenodd" stroke="none"/>
    <path d="M5.4 -0.75 L5.5 -1.95 Q5.5 -4.6 3.65 -6.45 2.1 -8.05 0.05 -8.1 -2.1 -8.05 -3.65 -6.45 -5.45 -4.6 -5.45 -1.95 L-5.35 -0.75 -5.1 0.2 -5.1 0.25 -5.1 0.3 -4.6 2.7 -4.55 2.9 -3.9 4.7 -3.75 5.0 Q-2.4 6.9 -0.35 7.9 L0.05 8.05 0.1 8.05 0.55 7.9 Q2.35 7.1 3.6 5.35 L4.0 4.8 4.4 3.85 4.7 2.75 5.1 0.35 5.1 0.25 5.4 -0.75 Q5.95 -0.9 5.5 0.8 5.3 2.95 4.7 2.75 M1.65 2.95 L4.0 2.7 Q3.75 0.15 2.1 0.65 1.7 1.6 1.65 2.95 M1.85 5.5 Q1.2 5.95 0.05 6.0 -1.15 5.95 -1.8 5.5 M-0.45 4.7 Q-0.05 3.7 -0.45 1.7 M-1.65 2.95 L-3.95 2.7 Q-3.75 0.15 -2.1 0.65 -1.7 1.6 -1.65 2.95 M-5.35 -0.75 Q-5.95 -0.9 -5.45 0.8 -5.3 2.9 -4.6 2.7" fill="none" stroke="#68413c" stroke-linecap="round" stroke-linejoin="round" stroke-width="0.05"/>
  </g>
</svg>
