<?xml version="1.0" encoding="UTF-8" standalone="no"?>
<svg xmlns:xlink="http://www.w3.org/1999/xlink" height="21.95px" width="18.6px" xmlns="http://www.w3.org/2000/svg">
  <g transform="matrix(1.0, 0.0, 0.0, 1.0, 10.55, 13.05)">
    <path d="M4.5 -11.45 Q5.9 -11.0 6.35 -10.45 4.15 -10.3 4.5 -9.35 5.9 -9.5 7.0 -8.6 6.15 -8.55 5.8 -7.75 8.15 -4.8 8.05 -3.3 6.95 0.1 4.95 1.75 L5.3 -1.45 Q4.75 -1.55 4.65 0.9 3.85 -2.1 3.3 -2.2 L3.3 -0.95 2.3 -2.4 1.5 -2.2 1.45 -2.05 1.25 -2.25 1.75 -0.7 Q-0.05 -3.6 -1.3 -3.2 -1.85 -2.55 -1.95 -1.3 -3.2 -2.1 -3.05 -6.2 -3.8 -5.05 -3.6 -3.3 L-3.6 -3.45 -3.75 -2.75 -4.1 1.25 -3.9 6.15 Q-4.55 5.2 -5.7 1.25 L-6.9 -2.85 -6.9 -3.2 -7.35 -2.45 Q-7.65 -4.15 -6.3 -5.4 L-6.65 -6.75 Q-8.2 -6.65 -9.55 -7.5 L-10.55 -8.3 -9.65 -7.95 -4.7 -7.8 -3.35 -8.2 -0.55 -9.3 -0.55 -9.35 Q-1.0 -10.9 -2.35 -12.15 L-3.2 -12.9 -1.0 -12.15 1.5 -10.85 1.55 -10.8 1.6 -10.85 Q1.75 -10.7 2.35 -10.55 3.75 -11.35 4.5 -11.45" fill="#413445" fill-rule="evenodd" stroke="none"/>
    <path d="M4.5 -11.45 Q3.75 -11.35 2.35 -10.55 1.75 -10.7 1.6 -10.85 2.6 -11.8 4.5 -11.45 M-3.2 -12.9 L-2.35 -12.15 Q-1.0 -10.9 -0.55 -9.35 L-0.55 -9.3 -3.35 -8.2 -4.7 -7.8 -9.65 -7.95 -10.55 -8.3 -9.7 -8.35 Q-7.05 -8.5 -5.35 -9.75 L-5.1 -9.9 -3.75 -10.85 Q-3.8 -11.55 -4.7 -12.15 -5.25 -12.55 -6.15 -12.9 -4.65 -13.2 -3.2 -12.9 M-6.65 -6.75 L-6.3 -5.4 Q-7.65 -4.15 -7.35 -2.45 -8.05 -1.1 -8.0 0.75 L-8.0 0.8 -8.4 -1.45 Q-8.6 -4.55 -6.65 -6.75 M-6.9 -2.85 L-5.7 1.25 Q-4.55 5.2 -3.9 6.15 L-3.25 8.9 Q-5.6 5.2 -6.45 1.25 L-6.9 -2.85 M-3.6 -3.3 Q-3.8 -5.05 -3.05 -6.2 -3.2 -2.1 -1.95 -1.3 -2.2 -0.7 -1.9 0.6 -3.2 -0.85 -3.6 -3.3 M-1.3 -3.2 Q-0.05 -3.6 1.75 -0.7 1.95 0.45 1.6 1.6 0.9 -1.3 -1.3 -3.2 M1.45 -2.05 L1.5 -2.2 2.3 -2.4 3.3 -0.95 3.2 -0.05 1.45 -2.05 M3.3 -2.2 Q3.85 -2.1 4.65 0.9 L4.25 2.3 Q4.15 -0.25 3.3 -2.2" fill="#68536f" fill-rule="evenodd" stroke="none"/>
  </g>
</svg>
