<?xml version="1.0" encoding="UTF-8" standalone="no"?>
<svg xmlns:xlink="http://www.w3.org/1999/xlink" height="26.65px" width="28.0px" xmlns="http://www.w3.org/2000/svg">
  <g transform="matrix(1.0, 0.0, 0.0, 1.0, 14.45, 21.6)">
    <path d="M-6.75 -4.85 L-6.85 -4.85 -6.85 -4.9 -6.75 -4.85" fill="#68536f" fill-rule="evenodd" stroke="none"/>
    <path d="M8.65 -5.0 L8.7 -4.85 8.65 -5.0 8.55 -5.15 8.6 -5.15 8.65 -5.0 M-5.7 -3.8 L-5.55 -3.95 -5.65 -3.75 -5.7 -3.7 -5.75 -3.75 -5.7 -3.8 M-9.7 -4.8 L-9.85 -4.55 -9.95 -4.35 -9.85 -4.55 -9.8 -4.85 -9.7 -4.8 M4.65 -12.95 L4.75 -12.95 4.8 -12.75 4.7 -12.85 4.65 -12.95 M5.8 -9.05 L5.7 -9.5 5.7 -9.45 5.8 -9.05 M-5.8 -12.8 L-5.85 -12.7 -5.8 -12.8" fill="#433748" fill-rule="evenodd" stroke="none"/>
    <path d="M-8.3 -21.25 L-8.3 -21.4 -6.7 -21.55 Q-3.45 -21.65 -0.45 -18.45 2.5 -21.65 5.8 -21.55 L7.4 -21.4 7.4 -21.25 Q2.45 -20.0 1.35 -17.9 L3.55 -18.25 3.55 -18.3 Q6.4 -18.55 8.85 -17.6 11.45 -16.65 13.55 -14.4 8.2 -16.85 4.55 -13.5 L4.55 -13.05 4.65 -12.95 4.7 -12.85 4.8 -12.75 4.75 -12.95 4.65 -13.15 Q10.6 -9.95 11.0 -1.45 L8.65 -5.0 8.6 -5.15 Q7.75 -7.7 6.6 -9.0 L5.85 -10.25 6.05 -9.6 6.35 -6.85 Q6.35 -6.3 5.45 -6.4 4.65 -6.45 4.5 -5.55 4.65 -11.15 -1.0 -10.7 -6.05 -12.2 -5.7 -3.8 L-5.75 -3.75 -6.7 -3.8 -6.75 -4.85 -6.85 -4.9 -6.8 -5.0 -6.9 -5.2 Q-7.45 -7.05 -6.95 -9.65 L-6.9 -10.0 -7.4 -9.2 Q-8.7 -7.95 -9.75 -4.9 L-9.8 -4.85 -9.85 -4.55 -12.0 -1.45 Q-11.55 -9.8 -5.7 -13.05 L-5.55 -13.55 Q-9.25 -16.8 -14.45 -14.4 -12.4 -16.65 -9.85 -17.6 -7.35 -18.55 -4.45 -18.3 L-4.4 -18.25 -2.25 -17.9 Q-3.35 -20.0 -8.3 -21.25 M5.8 -9.05 L5.7 -9.45 5.7 -9.5 5.8 -9.05 M-5.8 -12.8 L-5.85 -12.7 -5.8 -12.8" fill="#ab7872" fill-rule="evenodd" stroke="none"/>
    <path d="M7.4 -21.25 Q5.15 -20.35 3.55 -18.3 L3.55 -18.25 1.35 -17.9 Q2.45 -20.0 7.4 -21.25 M13.55 -14.4 Q8.85 -14.75 6.55 -12.75 14.1 -10.35 13.25 5.05 13.0 1.7 12.1 0.2 L11.0 -1.45 Q10.6 -9.95 4.65 -13.15 L4.75 -12.95 4.65 -12.95 4.55 -13.05 4.55 -13.5 Q8.2 -16.85 13.55 -14.4 M8.55 -5.15 L7.55 -6.3 6.85 -6.45 Q8.4 -3.5 9.1 3.9 7.95 1.1 6.5 -0.7 L5.4 -2.4 Q4.65 -3.5 4.5 -4.4 L4.45 -4.75 4.5 -5.55 Q4.65 -6.45 5.45 -6.4 6.35 -6.3 6.35 -6.85 L6.05 -9.6 5.85 -10.25 6.6 -9.0 Q7.75 -7.7 8.6 -5.15 L8.55 -5.15 M-5.7 -3.7 L-7.4 -0.85 -7.55 -0.7 Q-9.05 1.1 -10.1 3.9 -9.5 -3.5 -7.9 -6.45 L-8.3 -6.4 -9.7 -4.8 -9.8 -4.85 -9.75 -4.9 Q-8.7 -7.95 -7.4 -9.2 L-6.9 -10.0 -6.95 -9.65 Q-7.45 -7.05 -6.9 -5.2 L-6.8 -5.0 -6.85 -4.9 -6.85 -4.85 -6.75 -4.85 -6.7 -3.8 -5.75 -3.75 -5.7 -3.7 M-12.0 -1.45 L-12.5 -0.7 Q-12.95 -0.1 -13.6 4.1 -14.95 -9.9 -7.5 -12.75 -9.85 -14.75 -14.45 -14.4 -9.25 -16.8 -5.55 -13.55 L-5.7 -13.05 Q-11.55 -9.8 -12.0 -1.45 M-4.45 -18.3 Q-6.1 -20.35 -8.3 -21.25 -3.35 -20.0 -2.25 -17.9 L-4.4 -18.25 -4.4 -18.3 -4.45 -18.3" fill="#86554f" fill-rule="evenodd" stroke="none"/>
    <path d="M5.65 -4.25 L5.7 -3.3 5.55 -3.3 5.65 -4.25 M-5.15 -10.4 L-5.2 -10.35 -5.2 -10.4 -5.15 -10.4 M-4.75 -11.0 L-4.8 -10.95 -4.75 -11.0" fill="#433748" fill-rule="evenodd" stroke="none"/>
    <path d="M4.05 -10.35 L4.15 -10.25 4.2 -10.2 4.3 -10.1 5.05 -8.75 5.25 -8.0 5.4 -7.45 5.7 -5.15 5.65 -4.25 5.55 -3.3 5.2 -6.9 5.2 -7.0 5.1 -7.35 5.1 -7.4 4.9 -7.7 4.6 -8.05 4.0 -8.6 3.55 -8.95 Q1.75 -10.15 -1.35 -10.15 L-2.75 -10.1 -4.7 -8.65 -4.8 -8.55 Q-6.3 -6.95 -6.2 -4.6 L-6.15 -3.8 -6.15 -3.4 -6.15 -3.5 -6.2 -3.6 -6.25 -3.8 Q-6.75 -5.35 -6.35 -7.5 L-6.3 -7.8 -6.15 -8.45 Q-5.95 -9.4 -5.35 -10.05 L-5.3 -10.05 -5.1 -10.25 Q-3.75 -11.6 -0.6 -11.6 2.6 -11.65 4.05 -10.35" fill="#9933cc" fill-rule="evenodd" stroke="none"/>
    <path d="M-6.1 -2.6 L-6.15 -3.5 -6.15 -3.4 -6.05 -2.7 -6.1 -2.65 -6.1 -2.6 M-1.6 -4.75 L-1.55 -4.8 -1.55 -4.65 -1.6 -4.75 M4.8 -4.9 L4.95 -4.95 4.95 -4.6 4.8 -4.9 M5.45 -2.15 L5.5 -2.4 5.55 -2.05 5.45 -2.15" fill="#68536f" fill-rule="evenodd" stroke="none"/>
    <path d="M-1.6 -4.75 L-1.65 -4.8 -1.85 -5.4 Q-2.1 -6.15 -2.0 -7.05 -3.15 -7.25 -4.25 -6.4 L-5.7 -4.9 -5.55 -5.3 -5.35 -6.05 -4.75 -7.35 -4.5 -7.8 -3.9 -8.55 -2.85 -9.45 Q-0.25 -9.85 2.7 -8.8 L3.15 -8.65 3.35 -8.45 Q4.8 -7.1 4.95 -4.95 L4.8 -4.9 Q3.65 -6.8 1.3 -7.4 L1.55 -5.0 0.85 -6.2 Q0.4 -6.65 -0.25 -6.8 L-0.75 -6.5 Q-1.5 -5.95 -1.55 -4.8 L-1.6 -4.75" fill="#ab7872" fill-rule="evenodd" stroke="none"/>
    <path d="M5.7 -3.3 L5.7 -2.05 5.55 -0.3 5.45 -0.45 5.1 -0.75 4.25 1.05 4.4 -1.35 Q4.35 -2.65 3.95 -3.65 3.5 -4.8 2.6 -5.55 L2.65 -4.3 2.5 -2.45 2.45 -2.1 2.05 -0.85 Q1.4 -3.4 -0.4 -4.85 -1.45 -2.6 -1.1 -0.4 -2.5 -1.05 -3.0 -3.25 L-3.2 -4.5 -3.25 -5.8 -4.1 -5.2 Q-4.8 -4.6 -5.1 -3.6 -5.4 -2.65 -5.35 -1.4 L-5.25 0.1 -5.8 -1.1 -5.85 -1.05 -5.95 -1.0 -6.1 -2.6 -6.1 -2.65 -6.05 -2.7 -6.15 -3.4 -6.15 -3.8 -6.2 -4.6 Q-6.3 -6.95 -4.8 -8.55 L-4.7 -8.65 -2.75 -10.1 -1.35 -10.15 Q1.75 -10.15 3.55 -8.95 L4.0 -8.6 4.6 -8.05 4.9 -7.7 5.1 -7.4 5.2 -7.0 5.2 -6.9 5.55 -3.3 5.7 -3.3 M-5.3 -10.05 L-5.3 -10.15 -5.15 -10.4 -5.2 -10.4 -4.75 -11.0 Q-3.2 -13.2 -0.05 -13.1 2.75 -12.7 3.9 -10.9 L4.05 -10.7 4.05 -10.35 Q2.6 -11.65 -0.6 -11.6 -3.75 -11.6 -5.1 -10.25 L-5.3 -10.05 M4.95 -4.95 Q4.8 -7.1 3.35 -8.45 L3.15 -8.65 2.7 -8.8 Q-0.25 -9.85 -2.85 -9.45 L-3.9 -8.55 -4.5 -7.8 -4.75 -7.35 -5.35 -6.05 -5.55 -5.3 -5.7 -4.9 -4.25 -6.4 Q-3.15 -7.25 -2.0 -7.05 -2.1 -6.15 -1.85 -5.4 L-1.65 -4.8 -1.6 -4.75 -1.55 -4.65 -1.55 -4.8 Q-1.5 -5.95 -0.75 -6.5 L-0.25 -6.8 Q0.4 -6.65 0.85 -6.2 L1.55 -5.0 1.3 -7.4 Q3.65 -6.8 4.8 -4.9 L4.95 -4.6 4.95 -4.95 M5.45 -2.15 L5.55 -2.05 5.5 -2.4 5.45 -2.15" fill="#86554f" fill-rule="evenodd" stroke="none"/>
  </g>
</svg>
