<?xml version="1.0" encoding="UTF-8" standalone="no"?>
<svg xmlns:xlink="http://www.w3.org/1999/xlink" height="15.5px" width="21.4px" xmlns="http://www.w3.org/2000/svg">
  <g transform="matrix(1.0, 0.0, 0.0, 1.0, 11.2, 10.3)">
    <path d="M-5.8 -1.25 L-6.05 -0.85 -8.4 -1.75 Q-9.15 -2.1 -9.7 -2.55 L-10.5 -3.3 -10.7 -3.5 -11.2 -4.2 -10.7 -4.25 -10.5 -4.25 -9.7 -4.35 -8.35 -4.55 Q-7.25 -4.85 -6.65 -5.3 -6.5 -8.05 -4.75 -9.25 -3.0 -10.5 -0.45 -10.25 2.1 -10.0 3.75 -9.0 5.4 -8.05 5.6 -5.3 6.15 -4.6 7.6 -4.2 L9.75 -3.9 10.2 -3.85 9.75 -3.2 Q8.9 -2.15 7.6 -1.55 L6.05 -1.05 Q5.45 -0.6 5.55 -0.2 L5.55 -0.15 5.6 -0.15 5.65 -0.1 5.75 -0.05 Q6.5 0.45 8.15 0.55 6.75 2.7 4.15 2.45 4.35 2.1 4.65 2.0 L5.1 -0.05 5.1 -0.2 5.15 -0.2 5.0 -1.6 5.0 -1.65 Q4.8 -8.1 0.65 -6.35 -6.4 -9.35 -5.8 -1.25 M-4.7 4.9 L-7.25 3.45 Q-5.4 3.5 -4.8 2.85 L-3.5 5.1 -4.7 4.9 M4.1 2.95 Q4.75 3.5 6.4 3.45 L3.85 4.9 2.85 5.2 4.1 2.95 M-5.0 2.0 L-4.9 2.55 Q-7.6 2.75 -9.0 0.55 L-6.9 0.15 -6.9 0.2 -6.9 0.15 -6.05 -0.85 -5.4 1.95 -5.0 2.0" fill="#e29299" fill-rule="evenodd" stroke="none"/>
    <path d="M-3.4 -7.5 L-3.4 -7.55 -3.4 -7.5 -3.45 -7.5 -3.5 -7.5 Q-4.75 -7.3 -5.5 -6.7 -5.65 -8.15 -3.4 -8.6 0.5 -9.6 3.5 -8.0 4.7 -7.3 4.7 -6.1 2.7 -8.55 -3.4 -7.5" fill="#792b2b" fill-rule="evenodd" stroke="none"/>
    <path d="M5.55 -0.15 Q3.75 -3.0 5.35 -4.8 0.4 -6.9 -0.85 -6.1 -2.8 -6.95 -4.0 -5.7 -4.1 -6.75 -3.4 -7.5 2.7 -8.55 4.7 -6.1 L4.9 -5.8 5.35 -4.8 Q4.65 -3.3 5.55 -0.15" fill="#e29299" fill-rule="evenodd" stroke="none"/>
    <path d="M-3.4 -7.55 L-3.4 -7.5 -3.4 -7.55 M-5.5 -6.7 Q-4.75 -7.3 -3.5 -7.5 L-3.45 -7.5 -3.4 -7.5 Q-4.1 -6.75 -4.0 -5.7 -2.8 -6.95 -0.85 -6.1 0.4 -6.9 5.35 -4.8 3.75 -3.0 5.55 -0.15 2.5 -0.45 2.25 -3.9 0.9 -2.75 2.45 0.05 -1.5 -1.55 -2.4 -3.95 -3.25 -2.15 -2.4 -0.8 -4.45 -1.4 -4.8 -3.4 L-4.95 -3.6 Q-5.75 -2.6 -6.35 -1.2 L-6.9 0.2 -7.2 -1.2 -7.35 -2.25 -6.95 -4.5 Q-6.5 -6.1 -5.5 -6.7" fill="#f4d9de" fill-rule="evenodd" stroke="none"/>
    <path d="M-3.4 -7.5 Q2.7 -8.55 4.7 -6.1 4.7 -7.3 3.5 -8.0 0.5 -9.6 -3.4 -8.6 -5.65 -8.15 -5.5 -6.7 M5.35 -4.8 L4.9 -5.8 4.7 -6.1" fill="none" stroke="#792b2b" stroke-linecap="round" stroke-linejoin="round" stroke-width="0.05"/>
    <path d="M-3.4 -7.55 L-3.4 -7.5 -3.45 -7.5 -3.5 -7.5 Q-4.75 -7.3 -5.5 -6.7 -6.5 -6.1 -6.95 -4.5 L-7.35 -2.25 -7.2 -1.2 -6.9 0.2 M-4.95 -3.6 L-4.8 -3.4 Q-4.45 -1.4 -2.4 -0.8 M-2.4 -3.95 Q-1.5 -1.55 2.45 0.05 M2.25 -3.9 Q2.5 -0.45 5.55 -0.15" fill="none" stroke="#d35a6d" stroke-linecap="round" stroke-linejoin="round" stroke-width="0.05"/>
  </g>
</svg>
