<?xml version="1.0" encoding="UTF-8" standalone="no"?>
<svg xmlns:xlink="http://www.w3.org/1999/xlink" height="9.6px" width="6.1px" xmlns="http://www.w3.org/2000/svg">
  <g transform="matrix(1.0, 0.0, 0.0, 1.0, 2.85, 7.05)">
    <path d="M0.65 -6.8 Q1.25 -5.85 1.8 -3.3 L1.8 -3.25 Q2.2 -0.4 3.25 1.8 L1.5 2.45 0.1 2.55 -1.2 1.85 -2.85 0.6 Q-2.2 -0.45 -1.95 -2.55 -2.0 -3.95 -1.55 -5.35 -1.0 -7.65 0.65 -6.8" fill="#8db7c0" fill-rule="evenodd" stroke="none"/>
    <path d="M0.65 -6.8 Q-1.0 -7.65 -1.55 -5.35 -2.0 -3.95 -1.95 -2.55 -2.2 -0.45 -2.85 0.6 L-1.2 1.85 0.1 2.55 1.5 2.45 3.25 1.8 Q2.2 -0.4 1.8 -3.25 L1.8 -3.3 Q1.25 -5.85 0.65 -6.8 Z" fill="none" stroke="#305054" stroke-linecap="round" stroke-linejoin="round" stroke-width="0.05"/>
  </g>
</svg>
