<?xml version="1.0" encoding="UTF-8" standalone="no"?>
<svg xmlns:xlink="http://www.w3.org/1999/xlink" height="12.25px" width="4.25px" xmlns="http://www.w3.org/2000/svg">
  <g transform="matrix(1.0, 0.0, 0.0, 1.0, 2.0, 7.05)">
    <path d="M-1.3 1.2 L-1.95 -1.85 Q-2.1 -3.6 -1.55 -5.35 -1.0 -7.65 0.65 -6.8 1.25 -5.85 1.8 -3.3 L1.55 1.8 1.5 2.45 1.15 2.7 0.3 2.85 -0.3 2.7 -0.85 2.3 -1.1 2.0 -1.2 1.75 -1.3 1.2" fill="#5e5e5e" fill-rule="evenodd" stroke="none"/>
    <path d="M-1.3 1.2 L-1.2 1.75 -1.1 2.0 -0.85 2.3 -0.3 2.7 0.3 2.85 1.15 2.7 1.5 2.45 1.55 1.8 2.1 1.95 2.2 2.45 Q2.4 3.5 2.05 4.7 L1.5 5.0 1.4 5.05 0.85 5.2 0.45 5.2 0.0 5.15 -0.15 5.15 -0.75 4.9 -1.3 4.4 Q-2.05 3.3 -1.8 1.8 L-1.3 1.2 M-0.3 2.7 Q-0.95 4.25 -0.3 5.0 L-0.15 5.15 -0.3 5.0 Q-0.95 4.25 -0.3 2.7 M1.15 2.7 Q1.8 3.35 1.5 5.0 1.8 3.35 1.15 2.7 M1.5 2.45 L2.2 2.45 1.5 2.45" fill="#737373" fill-rule="evenodd" stroke="none"/>
    <path d="M1.55 1.8 L1.8 -3.3 Q1.25 -5.85 0.65 -6.8 -1.0 -7.65 -1.55 -5.35 -2.1 -3.6 -1.95 -1.85 L-1.3 1.2 -1.2 1.75 -1.1 2.0 -0.85 2.3 -0.3 2.7 0.3 2.85 1.15 2.7 1.5 2.45 1.55 1.8 2.1 1.95 2.2 2.45 Q2.4 3.5 2.05 4.7 L1.5 5.0 1.4 5.05 0.85 5.2 0.45 5.2 0.0 5.15 -0.15 5.15 -0.75 4.9 -1.3 4.4 Q-2.05 3.3 -1.8 1.8 L-1.3 1.2 M2.2 2.45 L1.5 2.45 M1.5 5.0 Q1.8 3.35 1.15 2.7 M-0.15 5.15 L-0.3 5.0 Q-0.95 4.25 -0.3 2.7" fill="none" stroke="#000000" stroke-linecap="round" stroke-linejoin="round" stroke-width="0.05"/>
  </g>
</svg>
