<?xml version="1.0" encoding="UTF-8" standalone="no"?>
<svg xmlns:xlink="http://www.w3.org/1999/xlink" height="9.95px" width="6.8px" xmlns="http://www.w3.org/2000/svg">
  <g transform="matrix(1.0, 0.0, 0.0, 1.0, 3.4, 1.45)">
    <path d="M1.7 -1.3 L2.5 -1.05 Q3.4 -0.65 3.4 -0.25 L3.35 -0.1 2.3 0.45 1.6 0.65 1.7 -1.3 M-3.25 -0.3 L-3.35 -0.45 -3.35 -0.65 Q-3.3 -1.05 -2.25 -1.35 L-1.85 -1.45 -1.45 0.5 -2.45 0.2 -3.25 -0.3" fill="#000000" fill-rule="evenodd" stroke="none"/>
    <path d="M3.35 -0.1 Q2.65 3.5 1.55 7.1 L1.15 8.3 0.8 8.45 Q-0.05 8.65 -0.45 8.05 L-0.7 7.45 -0.75 7.35 -0.75 7.3 -0.85 6.6 Q-1.5 2.65 -3.25 -0.3 L-2.45 0.2 -1.45 0.5 -0.05 0.7 1.6 0.65 2.3 0.45 3.35 -0.1" fill="#ffffff" fill-rule="evenodd" stroke="none"/>
    <path d="M1.7 -1.3 L2.5 -1.05 Q3.4 -0.65 3.4 -0.25 L3.35 -0.1 Q2.65 3.5 1.55 7.1 L1.15 8.3 M-0.75 7.35 L-0.75 7.3 -0.85 6.6 Q-1.5 2.65 -3.25 -0.3 L-3.35 -0.45 -3.35 -0.65 Q-3.3 -1.05 -2.25 -1.35 L-1.85 -1.45 M-1.45 0.5 L-0.05 0.7 1.6 0.65 2.3 0.45 3.35 -0.1 M-3.25 -0.3 L-2.45 0.2 -1.45 0.5" fill="none" stroke="#a0a0a0" stroke-linecap="round" stroke-linejoin="round" stroke-width="0.05"/>
  </g>
</svg>
