<?xml version="1.0" encoding="UTF-8" standalone="no"?>
<svg xmlns:xlink="http://www.w3.org/1999/xlink" height="4.5px" width="7.9px" xmlns="http://www.w3.org/2000/svg">
  <g transform="matrix(1.0, 0.0, 0.0, 1.0, 3.95, 2.2)">
    <path d="M2.2 -1.75 L2.95 -1.35 Q4.05 -0.65 3.95 0.35 3.85 1.25 2.65 1.85 L-0.25 2.3 Q-1.9 2.2 -2.95 1.5 L-3.25 1.3 Q0.55 1.95 2.35 0.9 4.1 -0.2 2.2 -1.75" fill="#ffd0ae" fill-rule="evenodd" stroke="none"/>
    <path d="M-3.25 1.3 Q-4.05 0.65 -3.95 -0.15 -3.9 -1.15 -2.65 -1.7 -1.45 -2.3 0.2 -2.2 L2.2 -1.75 Q4.1 -0.2 2.35 0.9 0.55 1.95 -3.25 1.3" fill="#ffdfc8" fill-rule="evenodd" stroke="none"/>
    <path d="M2.2 -1.75 L2.95 -1.35 Q4.05 -0.65 3.95 0.35 3.85 1.25 2.65 1.85 L-0.25 2.3 Q-1.9 2.2 -2.95 1.5 L-3.25 1.3 Q-4.05 0.65 -3.95 -0.15 -3.9 -1.15 -2.65 -1.7 -1.45 -2.3 0.2 -2.2 L2.2 -1.75 Z" fill="none" stroke="#d7995e" stroke-linecap="round" stroke-linejoin="round" stroke-width="0.05"/>
  </g>
</svg>
