<?xml version="1.0" encoding="UTF-8" standalone="no"?>
<svg xmlns:xlink="http://www.w3.org/1999/xlink" height="4.5px" width="7.9px" xmlns="http://www.w3.org/2000/svg">
  <g transform="matrix(1.0, 0.0, 0.0, 1.0, 4.0, 2.2)">
    <path d="M-3.3 1.3 Q-4.1 0.65 -4.0 -0.15 -3.95 -1.15 -2.7 -1.7 -1.5 -2.3 0.15 -2.2 L2.15 -1.75 Q4.05 -0.2 2.3 0.9 0.5 1.95 -3.3 1.3" fill="#d5a480" fill-rule="evenodd" stroke="none"/>
    <path d="M2.15 -1.75 L2.9 -1.35 Q4.0 -0.65 3.9 0.35 3.8 1.25 2.6 1.85 L-0.3 2.3 Q-1.95 2.2 -3.0 1.5 L-3.3 1.3 Q0.5 1.95 2.3 0.9 4.05 -0.2 2.15 -1.75" fill="#ca8c60" fill-rule="evenodd" stroke="none"/>
    <path d="M-3.3 1.3 Q-4.1 0.65 -4.0 -0.15 -3.95 -1.15 -2.7 -1.7 -1.5 -2.3 0.15 -2.2 L2.15 -1.75 2.9 -1.35 Q4.0 -0.65 3.9 0.35 3.8 1.25 2.6 1.85 L-0.3 2.3 Q-1.95 2.2 -3.0 1.5 L-3.3 1.3 Z" fill="none" stroke="#714a1c" stroke-linecap="round" stroke-linejoin="round" stroke-width="0.05"/>
  </g>
</svg>
