<?xml version="1.0" encoding="UTF-8" standalone="no"?>
<svg xmlns:xlink="http://www.w3.org/1999/xlink" height="25.6px" width="10.75px" xmlns="http://www.w3.org/2000/svg">
  <g transform="matrix(1.0, 0.0, 0.0, 1.0, 5.35, 12.8)">
    <path d="M3.0 -9.45 L3.0 -9.4 3.0 -9.45 M-2.95 -9.45 L-2.95 -9.4 -3.0 -9.45 -2.95 -9.45" fill="#eebf5a" fill-rule="evenodd" stroke="none"/>
    <path d="M5.25 -9.0 L5.25 -8.3 0.95 -7.8 5.25 -8.3 5.3 0.65 5.35 4.95 Q4.45 4.85 3.4 4.1 L3.15 3.9 Q1.4 2.6 0.0 2.5 -1.4 2.6 -3.15 3.9 L-3.4 4.05 Q-4.4 4.8 -5.25 4.9 -4.4 4.8 -3.4 4.05 L-3.15 3.9 Q-1.4 2.6 0.0 2.5 1.4 2.6 3.15 3.9 L3.4 4.1 Q4.45 4.85 5.35 4.95 L5.4 10.3 5.4 12.1 0.2 12.8 0.0 12.8 -1.75 12.6 -5.15 11.95 -5.2 10.4 -5.25 4.9 -5.3 0.6 -2.05 0.85 0.0 0.3 0.0 0.25 2.1 0.85 5.3 0.65 2.1 0.85 0.0 0.25 0.0 0.3 -2.05 0.85 -5.3 0.6 -5.35 -8.4 -5.35 -9.25 -3.0 -9.45 -2.95 -9.4 -2.95 -9.45 -2.9 -9.75 Q-0.15 -7.45 2.75 -9.6 L2.9 -9.75 2.95 -9.7 3.0 -9.45 5.25 -9.0 M3.0 -9.45 L3.0 -9.4 3.0 -9.45 M-0.95 -7.75 L-5.35 -8.4 -0.95 -7.75 M-5.2 10.4 L-2.95 10.8 0.0 11.0 0.2 11.0 5.4 10.3 0.2 11.0 0.0 11.0 -2.95 10.8 -5.2 10.4 M0.0 -7.05 L0.0 0.25 0.0 -7.05" fill="#ffdfc8" fill-rule="evenodd" stroke="none"/>
    <path d="M2.9 -9.75 L2.75 -9.6 Q-0.15 -7.45 -2.9 -9.75 -2.65 -11.0 -2.85 -12.8 L2.85 -12.8 Q2.7 -11.4 2.85 -10.35 L2.9 -9.75" fill="#ffd0ae" fill-rule="evenodd" stroke="none"/>
    <path d="M-2.95 -9.45 L-3.0 -9.45" fill="none" stroke="#003399" stroke-linecap="round" stroke-linejoin="round" stroke-width="0.05"/>
    <path d="M5.25 -9.0 L3.0 -9.45 3.0 -9.4 3.0 -9.45 2.95 -9.7 2.9 -9.75 2.85 -10.35 Q2.7 -11.4 2.85 -12.8 L-2.85 -12.8 Q-2.65 -11.0 -2.9 -9.75 L-2.95 -9.45 -2.95 -9.4 -3.0 -9.45 -5.35 -9.25 M-5.35 -8.4 L-0.95 -7.75 M5.25 -8.3 L0.95 -7.8 M5.3 0.65 L2.1 0.85 0.0 0.25 0.0 0.3 -2.05 0.85 -5.3 0.6 M-5.25 4.9 Q-4.4 4.8 -3.4 4.05 L-3.15 3.9 Q-1.4 2.6 0.0 2.5 1.4 2.6 3.15 3.9 L3.4 4.1 Q4.45 4.85 5.35 4.95 M5.4 12.1 L0.2 12.8 0.0 12.8 -1.75 12.6 -5.15 11.95 M5.4 10.3 L0.2 11.0 0.0 11.0 -2.95 10.8 -5.2 10.4 M0.0 0.25 L0.0 -7.05" fill="none" stroke="#d7995e" stroke-linecap="round" stroke-linejoin="round" stroke-width="0.05"/>
  </g>
</svg>
