<?xml version="1.0" encoding="UTF-8" standalone="no"?>
<svg xmlns:xlink="http://www.w3.org/1999/xlink" height="22.25px" width="18.95px" xmlns="http://www.w3.org/2000/svg">
  <g transform="matrix(1.0, 0.0, 0.0, 1.0, 9.4, 9.45)">
    <path d="M3.0 -9.45 L3.0 -9.4 3.0 -9.45 M-2.95 -9.4 L-3.0 -9.45 -2.95 -9.45 -2.95 -9.4" fill="#eebf5a" fill-rule="evenodd" stroke="none"/>
    <path d="M5.55 12.1 L0.2 12.8 0.0 12.8 -1.75 12.6 -6.15 11.9 Q-6.45 10.75 -5.05 10.4 L-5.15 10.4 Q-6.9 8.6 -5.85 4.85 L-5.9 4.85 Q-7.7 1.4 -4.2 1.55 L0.0 0.9 5.3 1.7 Q7.15 3.35 5.3 4.95 L5.25 4.95 Q6.45 9.3 4.45 10.55 L4.8 10.45 Q6.05 11.45 5.55 12.1 M-4.35 -8.25 Q-3.65 -6.65 -0.4 -6.45 L-0.05 -6.45 0.0 -6.45 0.35 -6.45 Q3.35 -6.65 4.45 -8.35 10.8 -4.65 6.85 -0.05 L6.25 0.3 Q4.15 1.15 2.1 0.85 L0.0 0.25 0.0 0.3 -2.05 0.85 -5.9 0.4 Q-11.2 -5.75 -4.35 -8.25" fill="#ffffff" fill-rule="evenodd" stroke="none"/>
    <path d="M8.9 -8.7 L9.3 -6.95 Q9.65 -5.25 9.5 -4.35 L9.15 -2.6 8.65 -1.55 7.45 3.1 7.4 3.2 7.45 3.05 Q7.3 6.55 7.8 9.6 8.4 10.55 7.95 11.55 L5.55 12.1 Q6.05 11.45 4.8 10.45 L4.45 10.55 Q6.45 9.3 5.25 4.95 L5.3 4.95 Q7.15 3.35 5.3 1.7 L0.0 0.9 -4.2 1.55 Q-7.7 1.4 -5.9 4.85 L-5.85 4.85 Q-6.9 8.6 -5.15 10.4 L-5.05 10.4 Q-6.45 10.75 -6.15 11.9 L-7.95 11.5 Q-8.4 10.5 -7.7 9.5 -6.9 6.95 -7.3 3.5 L-8.55 -1.5 Q-8.95 -1.9 -9.15 -3.6 L-9.15 -3.65 -9.35 -4.5 -9.3 -6.9 -9.1 -8.5 -7.8 -8.9 -4.5 -9.4 -4.45 -8.55 -4.35 -8.25 Q-11.2 -5.75 -5.9 0.4 L-2.05 0.85 0.0 0.3 0.0 0.25 2.1 0.85 Q4.15 1.15 6.25 0.3 L6.85 -0.05 Q10.8 -4.65 4.45 -8.35 L4.65 -8.75 4.85 -9.35 8.9 -8.7" fill="#f2f2f2" fill-rule="evenodd" stroke="none"/>
    <path d="M9.15 -2.6 L8.65 -1.55 7.45 3.1 7.45 3.05 Q7.3 6.55 7.8 9.6 8.4 10.55 7.95 11.55 L5.55 12.1 0.2 12.8 0.0 12.8 -1.75 12.6 -6.15 11.9 -7.95 11.5 Q-8.4 10.5 -7.7 9.5 -6.9 6.95 -7.3 3.5 L-8.55 -1.5 Q-8.95 -1.9 -9.15 -3.6 L-9.15 -3.65 M-9.1 -8.5 L-7.8 -8.9 -4.5 -9.4 -4.45 -8.55 -4.35 -8.25 Q-3.65 -6.65 -0.4 -6.45 L-0.05 -6.45 0.0 -6.45 0.35 -6.45 Q3.35 -6.65 4.45 -8.35 L4.65 -8.75 4.85 -9.35 8.9 -8.7" fill="none" stroke="#a0a0a0" stroke-linecap="round" stroke-linejoin="round" stroke-width="0.05"/>
  </g>
</svg>
