<?xml version="1.0" encoding="UTF-8" standalone="no"?>
<svg xmlns:xlink="http://www.w3.org/1999/xlink" height="27.1px" width="18.6px" xmlns="http://www.w3.org/2000/svg">
  <g transform="matrix(1.0, 0.0, 0.0, 1.0, 9.25, 12.1)">
    <path d="M3.0 -8.8 L3.7 -8.75 5.95 -8.45 6.25 -8.4 7.55 -8.1 Q7.9 -4.75 7.7 -2.95 7.55 -1.7 6.9 -0.75 L5.45 0.45 4.5 0.95 3.4 1.2 4.75 1.7 4.8 1.7 6.35 1.3 6.25 2.55 6.05 3.55 4.95 4.6 5.8 4.4 6.15 4.2 Q6.7 8.1 5.9 10.15 L1.65 10.95 1.35 10.95 0.2 11.0 0.0 11.0 -1.45 10.95 -2.95 10.8 -5.75 10.2 -6.1 10.1 Q-6.8 8.7 -6.55 4.9 L-6.5 4.25 -6.45 3.55 -6.4 3.25 -6.35 2.5 -6.45 1.35 -3.9 1.5 -3.4 1.15 -3.6 0.9 -5.75 0.45 -6.25 0.25 -6.45 0.15 -6.95 -0.65 Q-7.65 -1.6 -7.8 -2.95 -8.0 -4.7 -7.65 -8.05 L-4.45 -8.6 -4.15 -8.65 -3.85 -8.65 -3.25 -8.7 -2.95 -8.7 Q-2.95 -8.0 -2.05 -7.5 -1.2 -7.05 0.0 -7.05 1.25 -7.05 2.15 -7.55 3.0 -8.1 3.0 -8.8 M-7.7 1.5 L-7.65 1.45 -7.7 1.8 -7.7 1.5" fill="#8bc087" fill-rule="evenodd" stroke="none"/>
    <path d="M5.9 10.15 L7.3 9.7 Q8.4 10.55 7.95 11.55 5.3 13.35 3.05 13.6 L-1.4 13.7 -5.45 12.85 Q-7.35 12.15 -7.95 11.5 -8.4 10.5 -7.3 9.65 L-6.1 10.1 -5.75 10.2 -2.95 10.8 -1.45 10.95 0.0 11.0 0.2 11.0 1.35 10.95 1.65 10.95 5.9 10.15" fill="#b18378" fill-rule="evenodd" stroke="none"/>
    <path d="M8.9 -8.7 L9.0 -8.7 9.05 -8.35 9.05 -8.3 9.35 -6.35 9.35 -4.75 9.15 -3.0 Q8.95 -1.8 7.85 -0.75 L7.85 0.25 7.8 0.9 7.8 1.05 7.5 2.95 7.7 4.15 7.75 4.7 7.75 4.9 Q8.05 8.0 7.3 9.7 L5.9 10.15 Q6.7 8.1 6.15 4.2 L5.8 4.4 4.95 4.6 6.05 3.55 6.25 2.55 6.35 1.3 4.8 1.7 4.75 1.7 3.4 1.2 4.5 0.95 5.45 0.45 6.9 -0.75 Q7.55 -1.7 7.7 -2.95 7.9 -4.75 7.55 -8.1 L6.25 -8.4 5.95 -8.45 3.7 -8.75 3.0 -8.8 3.0 -9.45 3.7 -9.4 4.2 -9.4 4.5 -9.35 4.65 -9.35 8.9 -8.7 M-6.1 10.1 L-7.3 9.65 Q-8.25 8.35 -7.9 3.8 L-7.7 1.8 -7.65 1.45 -7.7 1.5 -7.8 0.8 -7.8 -0.8 Q-8.95 -1.9 -9.1 -2.95 L-9.25 -5.1 -9.15 -7.4 -9.0 -8.75 -8.95 -8.75 -4.3 -9.4 -3.85 -9.45 -3.0 -9.45 -2.95 -8.7 -3.25 -8.7 -3.85 -8.65 -4.15 -8.65 -4.45 -8.6 -7.65 -8.05 Q-8.0 -4.7 -7.8 -2.95 -7.65 -1.6 -6.95 -0.65 L-6.45 0.15 -6.25 0.25 -5.75 0.45 -3.6 0.9 -3.4 1.15 -3.9 1.5 -6.45 1.35 -6.35 2.5 -6.4 3.25 -6.45 3.55 -6.5 4.25 -6.55 4.9 Q-6.8 8.7 -6.1 10.1" fill="#5a9e54" fill-rule="evenodd" stroke="none"/>
    <path d="M5.9 10.15 L7.3 9.7 Q8.4 10.55 7.95 11.55 5.3 13.35 3.05 13.6 L-1.4 13.7 -5.45 12.85 Q-7.35 12.15 -7.95 11.5 -8.4 10.5 -7.3 9.65 L-6.1 10.1 -5.75 10.2 -2.95 10.8 -1.45 10.95 0.0 11.0 0.2 11.0 1.35 10.95 1.65 10.95 5.9 10.15" fill="none" stroke="#7b5046" stroke-linecap="round" stroke-linejoin="round" stroke-width="0.05"/>
    <path d="M8.9 -8.7 L4.65 -9.35 4.5 -9.35 4.2 -9.4 3.7 -9.4 3.0 -9.45 3.0 -8.8 Q3.0 -8.1 2.15 -7.55 1.25 -7.05 0.0 -7.05 -1.2 -7.05 -2.05 -7.5 -2.95 -8.0 -2.95 -8.7 L-3.0 -9.45 -3.85 -9.45 -4.3 -9.4 -8.95 -8.75 M7.3 9.7 Q8.05 8.0 7.75 4.9 L7.75 4.7 7.7 4.15 7.5 2.95 7.8 1.05 7.8 0.9 7.85 0.25 7.85 -0.75 Q8.95 -1.8 9.15 -3.0 L9.35 -4.75 M-9.25 -5.1 L-9.1 -2.95 Q-8.95 -1.9 -7.8 -0.8 L-7.8 0.8 -7.7 1.5 -7.7 1.8 -7.9 3.8 Q-8.25 8.35 -7.3 9.65 M-7.65 1.45 L-7.7 1.8" fill="none" stroke="#666666" stroke-linecap="round" stroke-linejoin="round" stroke-width="0.05"/>
    <path d="M-1.1 10.3 L-0.55 10.05 Q0.35 9.75 1.1 10.3 L1.25 10.3 Q1.95 10.85 2.15 11.85 2.45 12.85 2.0 13.75 L1.7 14.2 0.65 14.9 -0.6 14.85 -1.05 14.65 Q-1.85 14.1 -2.1 13.1 -2.35 12.0 -1.9 11.15 -1.6 10.65 -1.1 10.3 M-1.0 10.9 L-1.6 11.5 Q-2.0 12.35 -1.75 13.2 -1.55 14.1 -0.85 14.55 L-0.6 14.65 0.65 14.8 1.7 13.95 1.8 13.8 Q2.2 13.05 1.95 12.15 L1.4 11.05 1.05 10.8 Q0.35 10.3 -0.4 10.55 -0.8 10.65 -1.0 10.9 M-0.75 13.2 L-0.75 13.15 -0.45 12.95 Q-0.3 12.95 -0.2 13.05 0.0 13.15 0.05 13.4 L0.05 13.85 -0.2 14.1 -0.6 13.95 -0.8 13.6 -0.75 13.2" fill="#ffffff" fill-rule="evenodd" stroke="none"/>
    <path d="M-1.0 10.9 Q-0.8 10.65 -0.4 10.55 0.35 10.3 1.05 10.8 L1.4 11.05 1.95 12.15 Q2.2 13.05 1.8 13.8 L1.7 13.95 0.65 14.8 -0.6 14.65 -0.85 14.55 Q-1.55 14.1 -1.75 13.2 -2.0 12.35 -1.6 11.5 L-1.0 10.9 M-0.75 13.2 L-0.8 13.6 -0.6 13.95 -0.2 14.1 0.05 13.85 0.05 13.4 Q0.0 13.15 -0.2 13.05 -0.3 12.95 -0.45 12.95 L-0.75 13.15 -0.75 13.2" fill="#8bd7fe" fill-rule="evenodd" stroke="none"/>
    <path d="M-1.1 10.3 L-0.55 10.05 Q0.35 9.75 1.1 10.3 L1.25 10.3 Q1.95 10.85 2.15 11.85 2.45 12.85 2.0 13.75 L1.7 14.2 0.65 14.9 -0.6 14.85 -1.05 14.65 Q-1.85 14.1 -2.1 13.1 -2.35 12.0 -1.9 11.15 -1.6 10.65 -1.1 10.3 Z" fill="none" stroke="#a0a0a0" stroke-linecap="round" stroke-linejoin="round" stroke-width="0.05"/>
    <path d="M-4.5 -11.2 Q-4.1 -11.85 -2.75 -12.1 -2.7 -9.9 -0.25 -9.85 2.15 -9.85 2.7 -11.7 L3.35 -11.35 Q3.95 -11.05 4.15 -10.25 L4.5 -10.2 Q5.25 -10.0 5.6 -8.85 L5.65 -8.3 5.6 -7.45 5.6 -7.15 5.45 -6.05 5.2 -5.0 4.95 -4.3 4.75 -4.0 4.55 -3.7 3.7 -2.85 Q1.15 -0.55 -2.4 -1.5 L-3.65 -2.35 -4.45 -3.1 -5.2 -3.95 -5.4 -4.2 Q-6.65 -6.15 -6.35 -8.55 L-6.35 -8.8 -5.95 -10.25 -4.5 -11.2 Q-5.3 -10.65 -4.65 -8.2 L-4.55 -7.9 -4.35 -7.6 Q-2.65 -4.75 1.95 -6.8 -2.65 -4.75 -4.35 -7.6 L-4.55 -7.9 -4.65 -8.2 Q-5.3 -10.65 -4.5 -11.2 M4.35 -8.2 L4.4 -8.85 4.4 -9.5 4.2 -8.25 4.1 -7.95 4.1 -7.9 4.05 -7.85 Q3.25 -5.15 0.15 -3.9 L-0.4 -3.75 Q-3.35 -3.2 -4.85 -4.7 -4.2 -3.7 -3.0 -3.2 L-2.5 -3.0 -0.3 -3.35 Q-0.15 -3.45 0.05 -3.5 L0.45 -3.65 Q1.0 -3.9 1.35 -4.1 L2.15 -4.7 2.65 -5.05 2.7 -5.1 Q3.75 -6.0 4.1 -7.15 L4.2 -7.5 4.25 -7.85 4.35 -8.2" fill="#e2cfcb" fill-rule="evenodd" stroke="none"/>
    <path d="M4.35 -8.2 L4.2 -8.25 4.35 -8.2 4.25 -7.85 4.2 -7.5 4.1 -7.15 Q3.75 -6.0 2.7 -5.1 L2.65 -5.05 2.15 -4.7 1.35 -4.1 Q1.0 -3.9 0.45 -3.65 L0.05 -3.5 Q-0.15 -3.45 -0.3 -3.35 L-2.5 -3.0 -3.0 -3.2 Q-4.2 -3.7 -4.85 -4.7 -3.35 -3.2 -0.4 -3.75 L0.15 -3.9 Q3.25 -5.15 4.05 -7.85 L4.1 -7.9 4.1 -7.95 4.2 -8.25 4.4 -9.5 4.4 -8.85 4.35 -8.2" fill="#b18378" fill-rule="evenodd" stroke="none"/>
    <path d="M-4.5 -11.2 L-5.95 -10.25 -6.35 -8.8 -6.35 -8.55 Q-6.65 -6.15 -5.4 -4.2 L-5.2 -3.95 -4.45 -3.1 -3.65 -2.35 -2.4 -1.5 Q1.15 -0.55 3.7 -2.85 L4.55 -3.7 4.75 -4.0 4.95 -4.3 5.2 -5.0 5.45 -6.05 5.6 -7.15 5.6 -7.45 5.65 -8.3 5.6 -8.85 Q5.25 -10.0 4.5 -10.2 L4.15 -10.25 Q3.95 -11.05 3.35 -11.35 L2.7 -11.7 Q2.15 -9.85 -0.25 -9.85 -2.7 -9.9 -2.75 -12.1 -4.1 -11.85 -4.5 -11.2 -5.3 -10.65 -4.65 -8.2 L-4.55 -7.9 -4.35 -7.6 Q-2.65 -4.75 1.95 -6.8 M4.35 -8.2 L4.4 -8.85 4.4 -9.5 M-2.5 -3.0 L-0.3 -3.35 Q-0.15 -3.45 0.05 -3.5 L0.45 -3.65 Q1.0 -3.9 1.35 -4.1 L2.15 -4.7 2.65 -5.05 2.7 -5.1 Q3.75 -6.0 4.1 -7.15 L4.2 -7.5 4.25 -7.85 4.35 -8.2" fill="none" stroke="#7b5046" stroke-linecap="round" stroke-linejoin="round" stroke-width="0.05"/>
    <path d="M4.2 -8.25 L4.35 -8.2" fill="none" stroke="#666666" stroke-linecap="round" stroke-linejoin="round" stroke-width="0.05"/>
  </g>
</svg>
