<?xml version="1.0" encoding="UTF-8" standalone="no"?>
<svg xmlns:xlink="http://www.w3.org/1999/xlink" height="24.0px" width="18.75px" xmlns="http://www.w3.org/2000/svg">
  <g transform="matrix(1.0, 0.0, 0.0, 1.0, 9.35, 9.9)">
    <path d="M4.0 -9.4 L4.0 -9.45 Q4.45 -10.15 5.1 -9.75 L5.75 -9.25 9.0 -8.7 Q9.5 -7.65 9.35 -6.9 L9.35 -4.8 9.15 -3.55 9.05 -2.9 8.8 -2.1 8.75 -1.45 Q7.8 1.85 6.1 3.9 L5.6 4.45 5.55 4.5 2.35 4.9 2.35 0.85 2.3 -5.75 Q2.55 -7.3 3.3 -7.75 L3.7 -8.15 4.0 -9.4 M-9.1 -2.9 L-9.3 -4.9 Q-9.45 -6.5 -9.2 -7.45 L-9.1 -8.6 -5.55 -9.3 -5.15 -9.7 Q-4.7 -10.05 -4.1 -9.45 L-3.95 -8.55 -3.5 -8.05 Q-2.85 -7.7 -2.55 -5.85 L-2.5 0.9 -2.5 5.05 -5.55 4.5 -5.55 4.45 -5.6 4.45 -6.1 3.9 Q-8.15 1.45 -9.1 -2.85 L-9.0 -2.9 -9.1 -2.9" fill="#5e5e5e" fill-rule="evenodd" stroke="none"/>
    <path d="M8.75 -1.45 L8.1 4.5 8.3 6.5 Q8.45 9.4 8.1 11.75 L7.95 12.55 3.5 13.6 Q3.05 14.5 2.45 13.8 L2.45 13.3 2.35 4.9 5.55 4.5 5.6 4.45 6.1 3.9 Q7.8 1.85 8.75 -1.45 M-2.45 13.3 L-2.45 13.75 Q-2.85 14.25 -3.3 13.6 L-7.95 12.5 Q-8.4 12.0 -8.05 11.05 -8.75 9.4 -8.8 6.45 L-8.75 4.05 Q-9.1 1.3 -9.1 -2.9 L-9.0 -2.9 -9.1 -2.85 Q-8.15 1.45 -6.1 3.9 L-5.6 4.45 -5.55 4.45 -5.55 4.5 -2.5 5.05 -2.45 13.3" fill="#333333" fill-rule="evenodd" stroke="none"/>
    <path d="M2.45 13.3 Q0.2 14.05 -2.45 13.3 L-2.5 5.05 -2.5 0.9 Q-0.55 0.0 2.35 0.85 L2.35 4.9 2.45 13.3" fill="#f2f2f2" fill-rule="evenodd" stroke="none"/>
    <path d="M-2.55 -5.85 Q-0.25 -4.65 2.3 -5.75 L2.35 0.85 Q-0.55 0.0 -2.5 0.9 L-2.55 -5.85" fill="#ffffff" fill-rule="evenodd" stroke="none"/>
    <path d="M4.0 -9.4 L4.0 -9.45 Q4.45 -10.15 5.1 -9.75 L5.75 -9.25 9.0 -8.7 M9.35 -4.8 L9.15 -3.55 9.05 -2.9 8.8 -2.1 8.75 -1.45 8.1 4.5 8.3 6.5 Q8.45 9.4 8.1 11.75 L7.95 12.55 3.5 13.6 Q3.05 14.5 2.45 13.8 L2.45 13.3 2.35 4.9 2.35 0.85 2.3 -5.75 Q2.55 -7.3 3.3 -7.75 L3.7 -8.15 4.0 -9.4 M-2.45 13.3 L-2.45 13.75 Q-2.85 14.25 -3.3 13.6 L-7.95 12.5 Q-8.4 12.0 -8.05 11.05 -8.75 9.4 -8.8 6.45 L-8.75 4.05 Q-9.1 1.3 -9.1 -2.9 L-9.3 -4.9 M-9.1 -8.6 L-5.55 -9.3 -5.15 -9.7 Q-4.7 -10.05 -4.1 -9.45 L-3.95 -8.55 -3.5 -8.05 Q-2.85 -7.7 -2.55 -5.85 L-2.5 0.9 -2.5 5.05 -2.45 13.3" fill="none" stroke="#000000" stroke-linecap="round" stroke-linejoin="round" stroke-width="0.05"/>
    <path d="M2.45 13.3 Q0.2 14.05 -2.45 13.3 M-2.55 -5.85 Q-0.25 -4.65 2.3 -5.75" fill="none" stroke="#999999" stroke-linecap="round" stroke-linejoin="round" stroke-width="0.05"/>
  </g>
</svg>
