<?xml version="1.0" encoding="UTF-8" standalone="no"?>
<svg xmlns:xlink="http://www.w3.org/1999/xlink" height="23.85px" width="18.55px" xmlns="http://www.w3.org/2000/svg">
  <g transform="matrix(1.0, 0.0, 0.0, 1.0, 9.3, 9.6)">
    <path d="M5.75 -9.25 L8.8 -8.75 8.9 -8.7 9.15 -7.4 Q9.35 -6.15 9.2 -4.5 L9.2 -4.45 9.15 -3.55 Q8.95 -1.85 8.35 -0.7 7.9 -0.2 7.45 0.05 L5.6 0.75 2.1 0.85 0.0 0.25 0.0 0.3 -2.6 0.95 -5.65 0.7 -7.45 -0.15 -8.25 -0.85 Q-8.95 -1.9 -9.15 -3.65 L-9.25 -4.55 -9.3 -5.7 -9.15 -7.65 -8.9 -8.8 -5.55 -9.3 Q-5.55 -7.7 -3.95 -6.6 -2.4 -5.5 -0.25 -5.45 L-0.05 -5.45 0.0 -5.45 0.15 -5.45 0.35 -5.45 Q2.5 -5.55 4.05 -6.6 5.7 -7.7 5.75 -9.25 M0.0 0.25 L0.0 -5.45 0.0 0.25" fill="#ffffff" fill-rule="evenodd" stroke="none"/>
    <path d="M8.35 -0.7 Q7.9 2.8 6.85 4.35 L6.7 4.55 Q5.3 5.55 3.4 4.1 1.5 2.6 0.0 2.5 -1.5 2.6 -3.4 4.05 -5.3 5.5 -6.7 4.5 L-6.85 4.3 Q-7.9 2.75 -8.25 -0.85 L-7.45 -0.15 -5.65 0.7 -2.6 0.95 0.0 0.3 0.0 0.25 2.1 0.85 5.6 0.75 7.45 0.05 Q7.9 -0.2 8.35 -0.7" fill="#e0e0e0" fill-rule="evenodd" stroke="none"/>
    <path d="M0.0 14.25 L-2.85 14.0 Q-4.7 13.65 -8.0 12.35 -8.4 10.5 -7.3 9.65 L-6.7 4.5 Q-5.3 5.5 -3.4 4.05 -1.5 2.6 0.0 2.5 L0.0 11.0 0.0 14.25 M-5.55 -9.3 L-5.55 -9.4 -4.1 -9.45 -4.1 -9.35 Q-4.05 -8.45 -2.9 -7.75 -1.75 -7.1 -0.05 -7.1 L-0.05 -5.45 -0.25 -5.45 Q-2.4 -5.5 -3.95 -6.6 -5.55 -7.7 -5.55 -9.3 M-7.3 9.65 Q-4.8 10.65 -2.95 10.8 L0.0 11.0 -2.95 10.8 Q-4.8 10.65 -7.3 9.65" fill="#5a5a5a" fill-rule="evenodd" stroke="none"/>
    <path d="M-0.05 -7.1 Q1.65 -7.1 2.8 -7.75 4.0 -8.45 4.0 -9.4 L4.0 -9.45 5.75 -9.4 5.75 -9.25 Q5.7 -7.7 4.05 -6.6 2.5 -5.55 0.35 -5.45 L0.15 -5.45 0.0 -5.45 -0.05 -5.45 -0.05 -7.1 M6.7 4.55 L7.3 9.7 Q8.4 10.55 8.0 12.6 L2.75 13.95 2.55 14.0 1.45 14.2 0.0 14.25 0.0 11.0 0.0 2.5 Q1.5 2.6 3.4 4.1 5.3 5.55 6.7 4.55 M7.3 9.7 Q3.9 10.95 0.2 11.0 L0.0 11.0 0.2 11.0 Q3.9 10.95 7.3 9.7" fill="#000000" fill-rule="evenodd" stroke="none"/>
    <path d="M5.75 -9.25 L8.8 -8.75 8.9 -8.7 M9.2 -4.5 L9.2 -4.45 9.15 -3.55 Q8.95 -1.85 8.35 -0.7 7.9 2.8 6.85 4.35 L6.7 4.55 M-6.7 4.5 L-6.85 4.3 Q-7.9 2.75 -8.25 -0.85 -8.95 -1.9 -9.15 -3.65 L-9.25 -4.55 -9.3 -5.7 M-8.9 -8.8 L-5.55 -9.3 M0.0 0.25 L0.0 0.3 M0.0 -5.45 L0.0 0.25" fill="none" stroke="#a0a0a0" stroke-linecap="round" stroke-linejoin="round" stroke-width="0.05"/>
    <path d="M-0.05 -7.1 Q1.65 -7.1 2.8 -7.75 4.0 -8.45 4.0 -9.4 L4.0 -9.45 5.75 -9.4 5.75 -9.25 Q5.7 -7.7 4.05 -6.6 2.5 -5.55 0.35 -5.45 L0.15 -5.45 0.0 -5.45 -0.05 -5.45 -0.25 -5.45 Q-2.4 -5.5 -3.95 -6.6 -5.55 -7.7 -5.55 -9.3 L-5.55 -9.4 -4.1 -9.45 -4.1 -9.35 Q-4.05 -8.45 -2.9 -7.75 -1.75 -7.1 -0.05 -7.1 M6.7 4.55 L7.3 9.7 Q8.4 10.55 8.0 12.6 L2.75 13.95 2.55 14.0 1.45 14.2 0.0 14.25 -2.85 14.0 Q-4.7 13.65 -8.0 12.35 -8.4 10.5 -7.3 9.65 L-6.7 4.5 Q-5.3 5.5 -3.4 4.05 -1.5 2.6 0.0 2.5 1.5 2.6 3.4 4.1 5.3 5.55 6.7 4.55 M0.0 11.0 L-2.95 10.8 Q-4.8 10.65 -7.3 9.65 M0.0 11.0 L0.2 11.0 Q3.9 10.95 7.3 9.7" fill="none" stroke="#333333" stroke-linecap="round" stroke-linejoin="round" stroke-width="0.05"/>
    <path d="M1.35 -0.05 Q1.9 0.55 2.0 1.4 2.0 2.25 1.4 2.85 L1.05 3.2 -0.05 3.5 -1.25 3.15 -1.65 2.85 Q-2.3 2.25 -2.3 1.4 -2.4 0.5 -1.75 -0.1 -1.4 -0.5 -0.85 -0.6 L-0.25 -0.7 Q0.6 -0.75 1.3 -0.1 L1.35 -0.05 M1.1 3.0 L1.2 2.85 Q1.7 2.3 1.7 1.6 L1.35 0.55 1.1 0.3 Q0.55 -0.25 -0.2 -0.25 L-0.85 -0.15 -1.55 0.3 Q-2.1 0.8 -2.05 1.6 -2.0 2.35 -1.45 2.85 L-1.2 3.0 Q-0.7 3.4 -0.05 3.4 L1.1 3.0 M-0.35 2.1 L-0.45 2.5 -0.7 2.65 -1.05 2.45 -1.1 2.4 -1.2 2.1 -1.05 1.8 -1.0 1.75 -0.75 1.7 -0.5 1.8 -0.35 2.1" fill="#ffffff" fill-rule="evenodd" stroke="none"/>
    <path d="M1.1 3.0 L-0.05 3.4 Q-0.7 3.4 -1.2 3.0 L-1.45 2.85 Q-2.0 2.35 -2.05 1.6 -2.1 0.8 -1.55 0.3 L-0.85 -0.15 -0.2 -0.25 Q0.55 -0.25 1.1 0.3 L1.35 0.55 1.7 1.6 Q1.7 2.3 1.2 2.85 L1.1 3.0 M-0.35 2.1 L-0.5 1.8 -0.75 1.7 -1.0 1.75 -1.05 1.8 -1.2 2.1 -1.1 2.4 -1.05 2.45 -0.7 2.65 -0.45 2.5 -0.35 2.1" fill="#000000" fill-rule="evenodd" stroke="none"/>
    <path d="M1.35 -0.05 Q1.9 0.55 2.0 1.4 2.0 2.25 1.4 2.85 L1.05 3.2 -0.05 3.5 -1.25 3.15 -1.65 2.85 Q-2.3 2.25 -2.3 1.4 -2.4 0.5 -1.75 -0.1 -1.4 -0.5 -0.85 -0.6 L-0.25 -0.7 Q0.6 -0.75 1.3 -0.1 L1.35 -0.05 Z" fill="none" stroke="#a0a0a0" stroke-linecap="round" stroke-linejoin="round" stroke-width="0.05"/>
  </g>
</svg>
