<?xml version="1.0" encoding="UTF-8" standalone="no"?>
<svg xmlns:xlink="http://www.w3.org/1999/xlink" height="31.8px" width="18.95px" xmlns="http://www.w3.org/2000/svg">
  <g transform="matrix(1.0, 0.0, 0.0, 1.0, 9.4, 12.05)">
    <path d="M3.0 -9.4 L3.0 -9.45 3.0 -9.4 M-2.95 -9.4 L-3.0 -9.45 -2.95 -9.45 -2.95 -9.4" fill="#eebf5a" fill-rule="evenodd" stroke="none"/>
    <path d="M-3.0 -0.3 L-3.0 -0.4 -3.0 -0.3" fill="#add2e3" fill-rule="evenodd" stroke="none"/>
    <path d="M-0.75 -8.6 L-0.75 -9.95 1.0 -9.95 1.0 -8.55 1.0 -3.1 0.0 -3.25 -0.75 -3.15 -0.75 -8.6 1.0 -8.55 -0.75 -8.6 M-0.95 2.25 L0.05 2.4 1.0 2.25 1.0 11.0 -0.95 11.0 -0.95 2.25 M0.35 -1.5 Q0.35 -1.1 0.0 -0.8 -0.35 -0.5 -0.8 -0.45 L-1.6 -0.8 Q-1.95 -1.1 -1.9 -1.55 -1.95 -2.0 -1.6 -2.25 L-0.8 -2.55 Q-0.35 -2.55 0.0 -2.25 0.35 -2.0 0.35 -1.5 M5.05 10.65 L2.55 10.9 2.55 6.7 5.6 6.4 Q6.1 9.5 4.45 10.55 L4.8 10.45 5.05 10.65 M-2.85 10.9 L-5.55 10.6 -5.05 10.4 -5.15 10.4 Q-6.5 9.0 -6.2 6.45 L-2.85 6.7 -2.85 10.9" fill="#ffffff" fill-rule="evenodd" stroke="none"/>
    <path d="M8.1 10.2 Q8.55 10.7 8.65 11.6 L3.25 12.95 Q3.7 14.3 3.25 15.65 L8.25 14.45 7.55 16.25 Q1.45 17.0 -0.15 19.75 -3.1 16.7 -7.8 16.05 L-8.3 14.2 -3.2 15.5 Q-3.45 14.2 -3.2 12.75 L-8.4 11.55 -8.05 10.15 -5.55 10.6 -2.85 10.9 -0.95 11.0 1.0 11.0 2.55 10.9 5.05 10.65 8.05 10.15 8.1 10.2 M2.25 15.2 L2.25 12.95 -2.15 12.9 -2.15 15.25 0.05 16.65 2.25 15.2" fill="#263959" fill-rule="evenodd" stroke="none"/>
    <path d="M7.45 5.8 Q7.5 7.8 7.8 9.6 L8.1 10.15 8.05 10.15 5.05 10.65 4.8 10.45 4.45 10.55 Q6.1 9.5 5.6 6.4 L7.45 5.8 M-8.05 10.15 L-7.7 9.5 Q-7.25 8.0 -7.15 6.2 L-6.2 6.45 Q-6.5 9.0 -5.15 10.4 L-5.05 10.4 -5.55 10.6 -8.05 10.15" fill="#e0e0e0" fill-rule="evenodd" stroke="none"/>
    <path d="M8.1 10.15 L8.1 10.2 8.05 10.15 8.1 10.15" fill="#f2f2f2" fill-rule="evenodd" stroke="none"/>
    <path d="M8.65 11.6 Q8.75 12.75 8.25 14.45 L3.25 15.65 Q3.7 14.3 3.25 12.95 L8.65 11.6 M-8.3 14.2 Q-8.6 12.75 -8.4 11.55 L-3.2 12.75 Q-3.45 14.2 -3.2 15.5 L-8.3 14.2 M2.25 15.2 L0.05 16.65 -2.15 15.25 -2.15 12.9 2.25 12.95 2.25 15.2" fill="#576bca" fill-rule="evenodd" stroke="none"/>
    <path d="M-4.05 -9.45 L-4.05 -10.95 -3.5 -11.2 Q-0.05 -12.8 3.3 -11.35 L2.75 -10.65 2.75 -8.8 Q8.55 -5.95 8.35 -3.2 8.3 -2.2 7.7 -1.15 L6.85 -0.05 6.25 0.3 Q4.5 1.05 2.75 0.95 L3.1 -0.2 Q3.05 -1.25 2.65 -1.85 L2.15 -2.45 1.0 -3.1 1.0 -8.55 1.0 -9.95 -0.75 -9.95 -0.75 -8.6 -0.75 -3.15 Q-1.55 -3.0 -2.15 -2.45 L-2.5 -2.0 Q-2.95 -1.4 -3.0 -0.4 L-2.6 0.9 -5.9 0.4 -6.85 -0.85 Q-7.9 -2.35 -8.15 -3.55 -8.75 -6.65 -4.05 -9.45 -2.35 -8.8 -0.75 -8.6 -2.35 -8.8 -4.05 -9.45 M2.75 -8.8 L1.0 -8.55 2.75 -8.8 M-2.35 1.3 L-2.1 1.55 -0.95 2.25 -0.95 11.0 -2.85 10.9 -2.85 6.7 -6.2 6.45 -5.85 4.85 -5.9 4.85 Q-7.7 1.4 -4.2 1.55 L-2.35 1.3 M1.0 2.25 L2.2 1.55 2.5 1.3 5.3 1.7 Q7.15 3.35 5.3 4.95 L5.25 4.95 5.6 6.4 2.55 6.7 2.55 10.9 1.0 11.0 1.0 2.25 M3.1 -0.2 L7.7 -1.15 3.1 -0.2 M2.65 -1.85 Q5.6 -2.1 8.35 -3.2 5.6 -2.1 2.65 -1.85 M-2.95 -9.4 L-2.95 -9.45 -3.0 -9.45 -2.95 -9.4 M-2.5 -2.0 Q-5.35 -2.3 -8.15 -3.55 -5.35 -2.3 -2.5 -2.0 M-3.0 -0.3 L-6.85 -0.85 -3.0 -0.3 -3.0 -0.4 -3.0 -0.3 M-3.5 -11.2 Q-0.3 -10.05 2.75 -10.65 -0.3 -10.05 -3.5 -11.2" fill="#42ac81" fill-rule="evenodd" stroke="none"/>
    <path d="M3.3 -11.35 L4.25 -10.9 4.25 -9.3 8.9 -8.7 9.3 -6.95 Q9.65 -5.25 9.5 -4.35 L9.35 -3.6 9.15 -2.6 8.65 -1.55 7.45 3.1 7.4 3.2 7.45 3.05 7.45 5.8 5.6 6.4 5.25 4.95 5.3 4.95 Q7.15 3.35 5.3 1.7 L2.5 1.3 2.75 0.95 Q4.5 1.05 6.25 0.3 L6.85 -0.05 7.7 -1.15 Q8.3 -2.2 8.35 -3.2 8.55 -5.95 2.75 -8.8 L2.75 -10.65 3.3 -11.35 M-7.15 6.2 L-7.3 3.5 -8.55 -1.5 Q-8.95 -1.9 -9.15 -3.6 L-9.15 -3.65 -9.3 -4.1 -9.35 -4.5 -9.3 -6.9 -9.1 -8.5 -7.8 -8.9 -4.05 -9.45 Q-8.75 -6.65 -8.15 -3.55 -7.9 -2.35 -6.85 -0.85 -7.75 -1.1 -8.55 -1.5 -7.75 -1.1 -6.85 -0.85 L-5.9 0.4 -2.6 0.9 -2.35 1.3 -4.2 1.55 Q-7.7 1.4 -5.9 4.85 L-5.85 4.85 -6.2 6.45 -7.15 6.2 M4.25 -9.3 L2.75 -8.8 4.25 -9.3 M3.0 -9.4 L3.0 -9.45 3.0 -9.4 M9.35 -3.6 L8.35 -3.2 9.35 -3.6 M8.65 -1.55 L7.7 -1.15 8.65 -1.55 M-8.15 -3.55 L-9.3 -4.1 -8.15 -3.55" fill="#45916e" fill-rule="evenodd" stroke="none"/>
    <path d="M-0.75 -3.15 L0.0 -3.25 1.0 -3.1 2.15 -2.45 2.65 -1.85 Q3.05 -1.25 3.1 -0.2 L2.75 0.95 2.5 1.3 2.2 1.55 1.0 2.25 0.05 2.4 -0.95 2.25 -2.1 1.55 -2.35 1.3 -2.6 0.9 -3.0 -0.4 Q-2.95 -1.4 -2.5 -2.0 L-2.15 -2.45 Q-1.55 -3.0 -0.75 -3.15 M0.35 -1.5 Q0.35 -2.0 0.0 -2.25 -0.35 -2.55 -0.8 -2.55 L-1.6 -2.25 Q-1.95 -2.0 -1.9 -1.55 -1.95 -1.1 -1.6 -0.8 L-0.8 -0.45 Q-0.35 -0.5 0.0 -0.8 0.35 -1.1 0.35 -1.5" fill="#8bd7fe" fill-rule="evenodd" stroke="none"/>
    <path d="M7.45 3.1 L7.45 3.05 M8.1 10.15 L8.1 10.2 8.05 10.15 5.05 10.65 2.55 10.9 1.0 11.0 -0.95 11.0 -2.85 10.9 -5.55 10.6 -8.05 10.15 M-3.0 -0.4 L-3.0 -0.3" fill="none" stroke="#a0a0a0" stroke-linecap="round" stroke-linejoin="round" stroke-width="0.05"/>
    <path d="M8.35 -3.2 L9.35 -3.6 M7.7 -1.15 L8.65 -1.55 M7.7 -1.15 L3.1 -0.2 M8.35 -3.2 Q5.6 -2.1 2.65 -1.85 M-8.15 -3.55 Q-5.35 -2.3 -2.5 -2.0 M-6.85 -0.85 Q-7.75 -1.1 -8.55 -1.5 M-6.85 -0.85 L-3.0 -0.3 M-9.3 -4.1 L-8.15 -3.55" fill="none" stroke="#ffffff" stroke-linecap="round" stroke-linejoin="round" stroke-width="0.25"/>
    <path d="M8.1 10.2 Q8.55 10.7 8.65 11.6 8.75 12.75 8.25 14.45 L7.55 16.25 Q1.45 17.0 -0.15 19.75 -3.1 16.7 -7.8 16.05 L-8.3 14.2 Q-8.6 12.75 -8.4 11.55 L-8.05 10.15" fill="none" stroke="#000000" stroke-linecap="round" stroke-linejoin="round" stroke-width="0.05"/>
    <path d="M-0.75 -8.6 L-0.75 -9.95 1.0 -9.95 1.0 -8.55 1.0 -3.1 M-0.75 -8.6 L-0.75 -3.15 M1.0 2.25 L1.0 11.0 M-0.95 2.25 L-0.95 11.0" fill="none" stroke="#2e813e" stroke-linecap="round" stroke-linejoin="round" stroke-width="0.25"/>
    <path d="M3.3 -11.35 L4.25 -10.9 4.25 -9.3 8.9 -8.7 9.3 -6.95 Q9.65 -5.25 9.5 -4.35 L9.35 -3.6 9.15 -2.6 8.65 -1.55 7.45 3.1 M7.45 3.05 L7.45 5.8 Q7.5 7.8 7.8 9.6 L8.1 10.15 M-8.05 10.15 L-7.7 9.5 Q-7.25 8.0 -7.15 6.2 L-7.3 3.5 -8.55 -1.5 Q-8.95 -1.9 -9.15 -3.6 L-9.15 -3.65 M-9.3 -4.1 L-9.35 -4.5 -9.3 -6.9 -9.1 -8.5 -7.8 -8.9 -4.05 -9.45 -4.05 -10.95 -3.5 -11.2 Q-0.05 -12.8 3.3 -11.35 M2.75 -8.8 L4.25 -9.3 M3.0 -9.4 L3.0 -9.45 3.0 -9.4 M1.0 -8.55 L2.75 -8.8 M1.0 -8.55 L-0.75 -8.6 Q-2.35 -8.8 -4.05 -9.45 M2.75 -10.65 Q-0.3 -10.05 -3.5 -11.2" fill="none" stroke="#2e813e" stroke-linecap="round" stroke-linejoin="round" stroke-width="0.05"/>
  </g>
</svg>
