<?xml version="1.0" encoding="UTF-8" standalone="no"?>
<svg xmlns:xlink="http://www.w3.org/1999/xlink" height="29.0px" width="18.95px" xmlns="http://www.w3.org/2000/svg">
  <g transform="matrix(1.0, 0.0, 0.0, 1.0, 9.4, 11.3)">
    <path d="M7.65 -5.6 Q8.0 -7.1 7.8 -8.95 L8.9 -8.7 9.3 -6.95 Q9.65 -5.25 9.5 -4.35 L9.15 -2.6 8.65 -1.55 7.45 3.1 7.4 3.2 7.45 3.05 7.45 6.0 5.75 4.55 Q6.9 3.1 5.3 1.7 L0.0 0.9 -4.2 1.55 Q-7.6 1.4 -6.0 4.65 L-7.15 5.7 -7.3 3.5 -8.55 -1.5 Q-8.95 -1.9 -9.15 -3.6 L-9.15 -3.65 -9.35 -4.5 -9.3 -6.9 -9.1 -8.5 -7.8 -8.9 -7.5 -9.0 Q-7.85 -7.4 -7.65 -6.05 -9.35 -3.6 -5.9 0.4 L-2.05 0.85 0.0 0.3 0.0 0.25 2.1 0.85 Q4.15 1.15 6.25 0.3 L6.85 -0.05 Q9.4 -3.0 7.65 -5.6" fill="#1e2225" fill-rule="evenodd" stroke="none"/>
    <path d="M5.75 4.55 L5.45 4.85 5.75 4.55 Q6.05 7.9 5.4 9.45 -0.2 9.95 -5.85 9.3 -6.6 7.6 -6.0 4.7 L-6.0 4.65 Q-0.35 -0.1 5.75 4.55 M-0.65 -3.35 L-1.2 -3.6 -1.4 -4.1 -1.2 -4.6 -0.65 -4.8 -0.15 -4.6 0.1 -4.05 -0.15 -3.6 Q-0.35 -3.35 -0.65 -3.35 M-1.15 12.15 L-1.4 11.6 -1.2 11.05 -0.65 10.85 -0.05 11.05 0.2 11.6 -0.05 12.15 -0.6 12.35 -1.15 12.15" fill="#ffffff" fill-rule="evenodd" stroke="none"/>
    <path d="M3.0 -9.4 L3.0 -9.45 3.0 -9.4 M-2.95 -9.4 L-3.0 -9.45 -2.95 -9.45 -2.95 -9.4" fill="#eebf5a" fill-rule="evenodd" stroke="none"/>
    <path d="M7.65 -5.6 Q9.4 -3.0 6.85 -0.05 L6.25 0.3 Q4.15 1.15 2.1 0.85 L0.0 0.25 0.0 0.3 -2.05 0.85 -5.9 0.4 Q-9.35 -3.6 -7.65 -6.05 -7.3 -3.7 -5.25 -2.05 -2.8 -0.05 0.0 0.0 2.8 0.05 5.05 -1.55 7.1 -3.05 7.65 -5.6 M5.75 4.55 Q-0.35 -0.1 -6.0 4.65 -7.6 1.4 -4.2 1.55 L0.0 0.9 5.3 1.7 Q6.9 3.1 5.75 4.55" fill="#3c4147" fill-rule="evenodd" stroke="none"/>
    <path d="M5.75 4.55 L5.45 4.85 5.75 4.55" fill="#90607a" fill-rule="evenodd" stroke="none"/>
    <path d="M6.05 -9.25 L6.15 -8.7 Q6.2 -8.1 5.6 -7.6 6.95 -6.65 7.65 -5.6 7.1 -3.05 5.05 -1.55 2.8 0.05 0.0 0.0 -2.8 -0.05 -5.25 -2.05 -7.3 -3.7 -7.65 -6.05 -7.0 -7.0 -5.6 -7.7 L-6.15 -8.75 -6.0 -9.25 Q-5.65 -10.0 -4.35 -10.55 -2.55 -11.3 0.0 -11.3 2.55 -11.3 4.35 -10.55 L6.05 -9.25 M5.6 -7.6 L4.4 -6.95 Q2.6 -6.2 0.05 -6.2 -2.5 -6.2 -4.3 -6.95 -5.15 -7.3 -5.6 -7.7 -5.15 -7.3 -4.3 -6.95 -2.5 -6.2 0.05 -6.2 2.6 -6.2 4.4 -6.95 L5.6 -7.6 M5.35 13.0 L2.6 13.15 2.55 13.65 Q2.15 16.55 0.0 17.7 -2.5 16.35 -2.85 13.65 L-2.9 13.15 -2.9 13.05 -4.65 12.95 -5.55 12.85 Q-6.6 11.15 -5.85 9.3 -0.2 9.95 5.4 9.45 6.05 11.2 5.35 13.0 M3.0 -9.4 L3.0 -9.45 3.0 -9.4 M1.6 -1.85 Q2.25 -2.45 2.25 -3.35 2.25 -4.25 1.55 -4.9 0.9 -5.5 -0.1 -5.5 -1.05 -5.5 -1.75 -4.9 -2.4 -4.25 -2.4 -3.35 -2.4 -2.45 -1.7 -1.85 -1.0 -1.2 -0.05 -1.2 0.95 -1.2 1.6 -1.85 M1.25 10.95 L1.15 10.85 Q0.6 10.45 -0.1 10.45 -0.85 10.45 -1.4 10.9 L-1.45 10.95 Q-1.95 11.5 -1.95 12.2 L-1.9 12.6 -1.65 13.15 -1.4 13.45 Q-0.85 14.0 -0.05 14.0 0.75 14.0 1.3 13.45 L1.8 12.65 1.85 12.25 Q1.85 11.5 1.25 10.95 M-2.95 -9.4 L-2.95 -9.45 -3.0 -9.45 -2.95 -9.4 M4.55 -9.2 Q0.25 -7.4 -5.1 -9.35 0.25 -7.4 4.55 -9.2" fill="#5a5a5a" fill-rule="evenodd" stroke="none"/>
    <path d="M5.6 -7.6 Q6.2 -8.1 6.15 -8.7 L6.05 -9.25 7.8 -8.95 Q8.0 -7.1 7.65 -5.6 6.95 -6.65 5.6 -7.6 M-6.0 -9.25 L-6.15 -8.75 -5.6 -7.7 Q-7.0 -7.0 -7.65 -6.05 -7.85 -7.4 -7.5 -9.0 L-6.0 -9.25 M7.75 9.15 L7.8 9.15 Q9.1 10.35 7.75 12.45 L5.35 13.0 Q6.05 11.2 5.4 9.45 L7.75 9.15 M-5.55 12.85 L-7.5 12.35 Q-9.15 10.15 -7.7 9.05 L-7.55 9.1 -5.85 9.3 Q-6.6 11.15 -5.55 12.85" fill="#000000" fill-rule="evenodd" stroke="none"/>
    <path d="M1.6 -1.85 Q0.95 -1.2 -0.05 -1.2 -1.0 -1.2 -1.7 -1.85 -2.4 -2.45 -2.4 -3.35 -2.4 -4.25 -1.75 -4.9 -1.05 -5.5 -0.1 -5.5 0.9 -5.5 1.55 -4.9 2.25 -4.25 2.25 -3.35 2.25 -2.45 1.6 -1.85 M1.25 10.95 Q1.85 11.5 1.85 12.25 L1.8 12.65 1.3 13.45 Q0.75 14.0 -0.05 14.0 -0.85 14.0 -1.4 13.45 L-1.65 13.15 -1.9 12.6 -1.95 12.2 Q-1.95 11.5 -1.45 10.95 L-1.4 10.9 Q-0.85 10.45 -0.1 10.45 0.6 10.45 1.15 10.85 L1.25 10.95 M-0.65 -3.35 Q-0.35 -3.35 -0.15 -3.6 L0.1 -4.05 -0.15 -4.6 -0.65 -4.8 -1.2 -4.6 -1.4 -4.1 -1.2 -3.6 -0.65 -3.35 M-1.15 12.15 L-0.6 12.35 -0.05 12.15 0.2 11.6 -0.05 11.05 -0.65 10.85 -1.2 11.05 -1.4 11.6 -1.15 12.15" fill="#ff9933" fill-rule="evenodd" stroke="none"/>
    <path d="M7.45 6.0 L7.75 9.15 5.4 9.45 Q6.05 7.9 5.75 4.55 L7.45 6.0 M-7.55 9.1 Q-7.15 7.55 -7.15 5.7 L-6.0 4.65 -6.0 4.7 Q-6.6 7.6 -5.85 9.3 L-7.55 9.1" fill="#e0e0e0" fill-rule="evenodd" stroke="none"/>
    <path d="M7.8 -8.95 L8.9 -8.7 M9.15 -2.6 L8.65 -1.55 7.45 3.1 7.45 3.05 7.45 6.0 7.75 9.15 5.4 9.45 Q-0.2 9.95 -5.85 9.3 L-7.55 9.1 Q-7.15 7.55 -7.15 5.7 L-6.0 4.65 Q-0.35 -0.1 5.75 4.55 L7.45 6.0 M-9.1 -8.5 L-7.8 -8.9 -7.5 -9.0" fill="none" stroke="#000000" stroke-linecap="round" stroke-linejoin="round" stroke-width="0.05"/>
    <path d="M6.05 -9.25 L6.15 -8.7 Q6.2 -8.1 5.6 -7.6 L4.4 -6.95 Q2.6 -6.2 0.05 -6.2 -2.5 -6.2 -4.3 -6.95 -5.15 -7.3 -5.6 -7.7 L-6.15 -8.75 -6.0 -9.25 Q-5.65 -10.0 -4.35 -10.55 -2.55 -11.3 0.0 -11.3 2.55 -11.3 4.35 -10.55 L6.05 -9.25 7.8 -8.95 Q8.0 -7.1 7.65 -5.6 7.1 -3.05 5.05 -1.55 2.8 0.05 0.0 0.0 -2.8 -0.05 -5.25 -2.05 -7.3 -3.7 -7.65 -6.05 -7.85 -7.4 -7.5 -9.0 L-6.0 -9.25 M7.75 9.15 L7.8 9.15 Q9.1 10.35 7.75 12.45 L5.35 13.0 2.6 13.15 2.55 13.65 Q2.15 16.55 0.0 17.7 -2.5 16.35 -2.85 13.65 L-2.9 13.15 -2.9 13.05 -4.65 12.95 -5.55 12.85 -7.5 12.35 Q-9.15 10.15 -7.7 9.05 L-7.55 9.1 M-7.15 5.7 L-7.3 3.5 -8.55 -1.5 Q-8.95 -1.9 -9.15 -3.6 L-9.15 -3.65 -9.35 -4.5 -9.3 -6.9 -9.1 -8.5 M3.0 -9.4 L3.0 -9.45 3.0 -9.4 M-2.95 -9.4 L-3.0 -9.45 -2.95 -9.45 -2.95 -9.4 M-5.1 -9.35 Q0.25 -7.4 4.55 -9.2" fill="none" stroke="#999999" stroke-linecap="round" stroke-linejoin="round" stroke-width="0.05"/>
  </g>
</svg>
