<?xml version="1.0" encoding="UTF-8" standalone="no"?>
<svg xmlns:xlink="http://www.w3.org/1999/xlink" height="29.2px" width="18.95px" xmlns="http://www.w3.org/2000/svg">
  <g transform="matrix(1.0, 0.0, 0.0, 1.0, 9.4, 12.55)">
    <path d="M-6.1 5.85 L5.55 6.2 Q6.0 8.55 5.2 9.8 L2.15 10.25 1.75 9.45 Q1.05 8.25 0.0 8.25 -1.0 8.25 -1.75 9.45 L-2.05 10.1 -5.85 9.4 Q-6.5 8.0 -6.1 5.85" fill="#ffffff" fill-rule="evenodd" stroke="none"/>
    <path d="M4.9 -9.35 L4.85 -9.35 4.9 -9.35 M-7.7 -8.9 L-7.65 -8.95 -7.7 -8.9 M2.2 0.9 L2.1 0.9 2.1 0.85 2.2 0.9" fill="#f2f2f2" fill-rule="evenodd" stroke="none"/>
    <path d="M2.45 13.75 L1.8 15.4 Q1.1 16.65 0.05 16.65 -0.95 16.65 -1.7 15.4 L-2.3 13.7 -2.45 12.55 -2.45 12.45 Q-2.45 11.15 -2.05 10.1 L-1.75 9.45 Q-1.0 8.25 0.0 8.25 1.05 8.25 1.75 9.45 L2.15 10.25 2.55 12.45 2.55 12.55 2.45 13.75 M1.55 12.65 L0.05 9.15 -1.45 12.6 -1.4 12.65 0.1 15.85 1.55 12.7 1.55 12.65" fill="#e3e396" fill-rule="evenodd" stroke="none"/>
    <path d="M7.7 9.0 L7.8 8.95 Q9.05 10.55 7.95 12.25 L5.7 13.1 Q6.5 10.8 5.2 9.8 L7.7 9.0 M-5.95 12.9 L-7.95 12.2 Q-9.05 10.45 -7.7 8.85 L-7.5 8.9 -5.85 9.4 Q-6.9 10.65 -5.95 12.9" fill="#474534" fill-rule="evenodd" stroke="none"/>
    <path d="M5.7 13.1 L2.45 13.75 2.55 12.55 2.55 12.45 2.15 10.25 5.2 9.8 Q6.5 10.8 5.7 13.1 M-2.3 13.7 L-5.95 12.9 Q-6.9 10.65 -5.85 9.4 L-2.05 10.1 Q-2.45 11.15 -2.45 12.45 L-2.45 12.55 -2.3 13.7" fill="#877b51" fill-rule="evenodd" stroke="none"/>
    <path d="M6.35 -9.2 L6.2 -7.15 Q5.65 -4.05 3.15 -2.15 6.85 -2.55 7.1 -9.55 7.6 -9.55 8.0 -8.95 L8.0 -8.9 8.0 -8.25 7.65 -5.6 Q7.1 -2.75 5.8 -1.15 7.6 -2.6 8.35 -3.9 8.6 -2.05 6.85 -0.05 L6.25 0.3 Q4.25 1.15 2.2 0.9 4.45 0.55 5.8 -1.15 -2.65 2.35 -7.25 -6.55 -6.0 -1.3 -2.65 0.25 L-1.3 0.7 -2.05 0.85 -5.9 0.4 Q-8.6 -2.75 -8.15 -4.9 L-8.15 -5.0 -8.15 -5.15 Q-8.1 -6.3 -7.25 -6.55 L-7.55 -8.0 -7.7 -8.9 -7.65 -8.95 Q-7.1 -10.55 -5.55 -9.35 L-4.0 -9.4 Q-1.6 -7.15 1.8 -8.05 -2.05 -8.3 -4.0 -10.6 L-4.0 -11.8 Q-0.15 -13.3 3.85 -11.8 3.8 -10.55 4.3 -9.85 3.1 -6.6 -0.2 -5.4 L1.95 -5.85 2.25 -5.95 Q4.1 -6.7 4.65 -8.25 L4.85 -9.35 4.9 -9.35 Q5.85 -10.2 6.35 -9.2 M2.45 -8.3 L1.8 -8.05 2.45 -8.3 M0.0 0.9 L5.3 1.7 Q7.15 3.35 5.55 6.2 L-6.1 5.85 Q-7.65 1.4 -4.2 1.55 L0.0 0.9 M8.35 -3.9 Q7.6 -2.6 5.8 -1.15 7.1 -2.75 7.65 -5.6 8.55 -5.4 8.35 -3.9 M-2.65 0.25 Q-8.05 -1.05 -8.15 -4.9 -8.05 -1.05 -2.65 0.25 M-5.35 -7.85 Q-3.85 -3.4 -0.2 -2.95 -2.7 -4.35 -5.35 -7.85 M2.85 -11.2 Q-0.2 -10.5 -3.05 -11.2 -0.2 -10.5 2.85 -11.2" fill="#e39391" fill-rule="evenodd" stroke="none"/>
    <path d="M3.15 -2.15 Q5.65 -4.05 6.2 -7.15 L6.35 -9.2 7.1 -9.55 Q6.85 -2.55 3.15 -2.15 M4.85 -9.35 L4.65 -8.25 Q4.1 -6.7 2.25 -5.95 L1.95 -5.85 -0.2 -5.4 Q3.1 -6.6 4.3 -9.85 L4.85 -9.35 M-4.0 -10.6 Q-2.05 -8.3 1.8 -8.05 -1.6 -7.15 -4.0 -9.4 L-4.0 -10.6 M8.0 -8.9 L8.9 -8.7 9.3 -6.95 Q9.65 -5.25 9.5 -4.35 L9.15 -2.6 8.65 -1.55 7.45 3.1 7.4 3.2 7.45 3.05 7.45 5.6 5.55 6.2 Q7.15 3.35 5.3 1.7 L0.0 0.9 2.1 0.9 0.0 0.9 -1.3 0.7 0.0 0.9 -4.2 1.55 Q-7.65 1.4 -6.1 5.85 L-7.15 5.45 -7.3 3.5 -8.55 -1.5 Q-8.95 -1.9 -9.15 -3.6 L-9.15 -3.65 -9.35 -4.5 -9.3 -6.9 -9.1 -8.5 -7.8 -8.9 -7.7 -8.9 -7.55 -8.0 -7.25 -6.55 Q-8.1 -6.3 -8.15 -5.15 L-8.15 -5.0 -8.15 -4.9 Q-8.6 -2.75 -5.9 0.4 L-2.05 0.85 -1.3 0.7 -2.65 0.25 Q-6.0 -1.3 -7.25 -6.55 -2.65 2.35 5.8 -1.15 4.45 0.55 2.2 0.9 4.25 1.15 6.25 0.3 L6.85 -0.05 Q8.6 -2.05 8.35 -3.9 9.6 -6.2 8.0 -8.25 9.6 -6.2 8.35 -3.9 8.55 -5.4 7.65 -5.6 L8.0 -8.25 8.0 -8.9 M2.1 0.9 L2.2 0.9 2.1 0.85 2.1 0.9 M-8.15 -5.15 Q-8.15 -6.45 -7.55 -8.0 -8.15 -6.45 -8.15 -5.15 M-0.2 -2.95 Q-3.85 -3.4 -5.35 -7.85 -2.7 -4.35 -0.2 -2.95" fill="#b86c63" fill-rule="evenodd" stroke="none"/>
    <path d="M7.45 5.6 L7.7 9.0 5.2 9.8 Q6.0 8.55 5.55 6.2 L7.45 5.6 M-7.5 8.9 Q-7.15 7.35 -7.15 5.45 L-6.1 5.85 Q-6.5 8.0 -5.85 9.4 L-7.5 8.9" fill="#e0e0e0" fill-rule="evenodd" stroke="none"/>
    <path d="M1.55 12.65 L1.55 12.7 0.1 15.85 -1.4 12.65 -1.45 12.6 0.05 9.15 1.55 12.65" fill="#96609c" fill-rule="evenodd" stroke="none"/>
    <path d="M7.45 3.1 L7.45 3.05 M7.45 5.6 L7.7 9.0 7.8 8.95 Q9.05 10.55 7.95 12.25 L5.7 13.1 2.45 13.75 1.8 15.4 Q1.1 16.65 0.05 16.65 -0.95 16.65 -1.7 15.4 L-2.3 13.7 -5.95 12.9 -7.95 12.2 Q-9.05 10.45 -7.7 8.85 L-7.5 8.9 Q-7.15 7.35 -7.15 5.45 M-7.7 -8.9 L-7.65 -8.95 M4.9 -9.35 L4.85 -9.35 M2.15 10.25 L1.75 9.45 Q1.05 8.25 0.0 8.25 -1.0 8.25 -1.75 9.45 L-2.05 10.1" fill="none" stroke="#000000" stroke-linecap="round" stroke-linejoin="round" stroke-width="0.05"/>
    <path d="M6.35 -9.2 Q5.85 -10.2 4.9 -9.35 L4.85 -9.35 4.65 -8.25 Q4.1 -6.7 2.25 -5.95 L1.95 -5.85 -0.2 -5.4 M4.3 -9.85 Q3.8 -10.55 3.85 -11.8 -0.15 -13.3 -4.0 -11.8 L-4.0 -10.6 -4.0 -9.4 -5.55 -9.35 Q-7.1 -10.55 -7.65 -8.95 L-7.7 -8.9 -7.55 -8.0 -7.25 -6.55 Q-6.0 -1.3 -2.65 0.25 L-1.3 0.7 0.0 0.9 2.1 0.9 2.2 0.9 Q4.45 0.55 5.8 -1.15 7.6 -2.6 8.35 -3.9 9.6 -6.2 8.0 -8.25 L8.0 -8.9 8.9 -8.7 9.3 -6.95 Q9.65 -5.25 9.5 -4.35 L9.15 -2.6 8.65 -1.55 7.45 3.1 7.4 3.2 7.45 3.05 7.45 5.6 5.55 6.2 -6.1 5.85 -7.15 5.45 -7.3 3.5 -8.55 -1.5 Q-8.95 -1.9 -9.15 -3.6 L-9.15 -3.65 -9.35 -4.5 -9.3 -6.9 -9.1 -8.5 -7.8 -8.9 -7.7 -8.9 M1.8 -8.05 L2.45 -8.3 M6.35 -9.2 L7.1 -9.55 Q7.6 -9.55 8.0 -8.95 L8.0 -8.9 M4.85 -9.35 L4.3 -9.85 M7.65 -5.6 Q7.1 -2.75 5.8 -1.15 M7.65 -5.6 L8.0 -8.25 M7.1 -9.55 Q6.85 -2.55 3.15 -2.15 M-8.15 -5.15 L-8.15 -5.0 -8.15 -4.9 Q-8.05 -1.05 -2.65 0.25 M-7.55 -8.0 Q-8.15 -6.45 -8.15 -5.15 M-5.35 -7.85 Q-3.85 -3.4 -0.2 -2.95 M-3.05 -11.2 Q-0.2 -10.5 2.85 -11.2 M1.8 -8.05 Q-1.6 -7.15 -4.0 -9.4" fill="none" stroke="#000000" stroke-linecap="round" stroke-linejoin="round" stroke-width="0.05"/>
  </g>
</svg>
