<?xml version="1.0" encoding="UTF-8" standalone="no"?>
<svg xmlns:xlink="http://www.w3.org/1999/xlink" height="28.2px" width="19.15px" xmlns="http://www.w3.org/2000/svg">
  <g transform="matrix(1.0, 0.0, 0.0, 1.0, 9.5, 12.55)">
    <path d="M8.15 0.55 L8.1 0.65 8.1 0.55 8.15 0.55" fill="#191718" fill-rule="evenodd" stroke="none"/>
    <path d="M3.0 -9.45 L3.0 -9.4 3.0 -9.45 M-3.0 -9.45 L-2.95 -9.45 -2.95 -9.4 -3.0 -9.45" fill="#eebf5a" fill-rule="evenodd" stroke="none"/>
    <path d="M8.1 0.65 L7.65 2.45 7.6 2.4 8.1 0.55 8.1 0.65 M7.6 9.15 L7.6 9.2 Q9.95 11.85 7.7 13.9 L5.5 14.55 5.5 14.5 Q7.1 12.15 5.7 9.55 L7.55 9.15 7.6 9.15 M-6.25 14.35 L-7.55 13.9 Q-9.6 11.5 -7.3 9.2 L-7.3 9.15 -6.2 9.4 Q-7.2 11.5 -6.25 14.3 L-6.25 14.35 M7.6 9.2 L7.55 9.15 7.6 9.2" fill="#f2f2f2" fill-rule="evenodd" stroke="none"/>
    <path d="M5.5 14.55 L1.9 15.1 2.35 14.75 3.05 13.85 3.25 12.6 Q3.25 11.35 2.3 10.45 L1.85 10.1 1.75 10.05 5.7 9.55 Q7.1 12.15 5.5 14.5 L5.5 14.55 M-1.8 15.15 L-6.25 14.35 -6.25 14.3 Q-7.2 11.5 -6.2 9.4 L-1.8 10.05 -2.0 10.15 -2.35 10.4 Q-3.3 11.3 -3.3 12.55 L-2.95 13.8 -2.3 14.7 -1.8 15.15" fill="#ffffff" fill-rule="evenodd" stroke="none"/>
    <path d="M-6.0 0.3 Q-3.7 -0.1 -1.4 -1.5 L-1.4 -11.25 1.05 -11.25 1.05 -1.45 Q3.25 0.0 6.0 0.4 L2.1 0.85 Q-0.05 0.55 -2.05 0.85 L-5.9 0.4 -6.0 0.3" fill="#96609c" fill-rule="evenodd" stroke="none"/>
    <path d="M-7.6 2.6 L-8.15 0.45 -6.0 0.3 -5.9 0.4 -2.05 0.85 Q-0.05 0.55 2.1 0.85 L6.0 0.4 8.1 0.55 7.6 2.4 6.05 2.65 Q3.0 2.9 0.6 1.25 L-0.85 1.25 Q-4.0 2.9 -6.5 2.75 L-7.6 2.6" fill="#564759" fill-rule="evenodd" stroke="none"/>
    <path d="M-3.05 -12.35 Q0.0 -12.6 3.05 -12.3 3.6 -10.8 3.0 -9.45 L3.9 -9.45 Q9.5 -3.1 6.85 -0.05 L6.25 0.3 6.0 0.4 Q3.25 0.0 1.05 -1.45 L1.05 -11.25 -1.4 -11.25 -1.4 -1.5 Q-3.7 -0.1 -6.0 0.3 -9.45 -3.75 -3.95 -9.45 L-3.0 -9.45 Q-3.5 -10.9 -3.05 -12.35 M3.0 -9.45 L3.0 -9.4 3.0 -9.45 M6.05 2.65 Q6.4 3.4 5.7 9.55 L1.75 10.05 Q0.95 9.55 -0.05 9.55 -1.1 9.55 -1.8 10.05 L-6.2 9.4 Q-6.7 4.9 -6.5 2.75 -4.0 2.9 -0.85 1.25 L0.6 1.25 Q3.0 2.9 6.05 2.65 M-3.0 -9.45 L-2.95 -9.4 -2.95 -9.45 -3.0 -9.45" fill="#e39391" fill-rule="evenodd" stroke="none"/>
    <path d="M3.05 -12.3 L3.9 -12.25 Q4.6 -10.65 3.9 -9.45 L8.9 -8.7 9.3 -6.95 Q9.65 -5.25 9.5 -4.35 L9.15 -2.6 8.65 -1.55 8.15 0.55 8.1 0.55 6.0 0.4 6.25 0.3 6.85 -0.05 Q9.5 -3.1 3.9 -9.45 L3.0 -9.45 Q3.6 -10.8 3.05 -12.3 M7.65 2.45 L7.6 2.5 7.45 3.1 7.4 3.2 7.45 3.05 Q7.35 6.6 7.6 9.15 L7.55 9.15 5.7 9.55 Q6.4 3.4 6.05 2.65 L7.6 2.4 7.65 2.45 M-7.3 9.15 Q-7.15 5.05 -7.3 3.5 L-7.6 2.6 -6.5 2.75 Q-6.7 4.9 -6.2 9.4 L-7.3 9.15 M-8.15 0.45 L-8.55 -1.5 Q-8.95 -1.9 -9.15 -3.6 L-9.15 -3.65 -9.35 -4.5 -9.3 -6.9 -9.1 -8.5 -7.8 -8.9 -3.95 -9.45 Q-4.65 -10.85 -3.95 -12.3 L-3.05 -12.35 Q-3.5 -10.9 -3.0 -9.45 L-3.95 -9.45 Q-9.45 -3.75 -6.0 0.3 L-8.15 0.45" fill="#b86c63" fill-rule="evenodd" stroke="none"/>
    <path d="M1.9 15.1 Q1.05 15.65 0.0 15.65 -1.0 15.65 -1.8 15.15 L-2.3 14.7 -2.95 13.8 -3.3 12.55 Q-3.3 11.3 -2.35 10.4 L-2.0 10.15 -1.8 10.05 Q-1.1 9.55 -0.05 9.55 0.95 9.55 1.75 10.05 L1.85 10.1 2.3 10.45 Q3.25 11.35 3.25 12.6 L3.05 13.85 2.35 14.75 1.9 15.1 M1.3 11.2 L0.85 10.9 -0.05 10.7 -0.9 10.9 -1.45 11.2 Q-2.0 11.75 -2.0 12.45 -1.9 13.25 -1.4 13.75 L-1.05 14.0 0.0 14.3 0.9 14.1 1.35 13.75 Q1.9 13.2 1.9 12.5 1.8 11.7 1.3 11.2 1.8 11.7 1.9 12.5 1.9 13.2 1.35 13.75 L0.9 14.1 0.0 14.3 -1.05 14.0 -1.4 13.75 Q-1.9 13.25 -2.0 12.45 -2.0 11.75 -1.45 11.2 L-0.9 10.9 -0.05 10.7 0.85 10.9 1.3 11.2" fill="#935b5b" fill-rule="evenodd" stroke="none"/>
    <path d="M8.15 0.55 L8.1 0.65 M7.45 3.1 L7.45 3.05 M7.6 9.15 L7.6 9.2 Q9.95 11.85 7.7 13.9 L5.5 14.55 1.9 15.1 Q1.05 15.65 0.0 15.65 -1.0 15.65 -1.8 15.15 L-6.25 14.35 -7.55 13.9 Q-9.6 11.5 -7.3 9.2 L-7.3 9.15 -6.2 9.4 -1.8 10.05 Q-1.1 9.55 -0.05 9.55 0.95 9.55 1.75 10.05 L5.7 9.55 7.55 9.15 7.6 9.2 M8.1 0.55 L7.6 2.4 M1.3 11.2 Q1.8 11.7 1.9 12.5 1.9 13.2 1.35 13.75 L0.9 14.1 0.0 14.3 -1.05 14.0 -1.4 13.75 Q-1.9 13.25 -2.0 12.45 -2.0 11.75 -1.45 11.2 L-0.9 10.9 -0.05 10.7 0.85 10.9 1.3 11.2 M1.75 10.05 L1.85 10.1 2.3 10.45 Q3.25 11.35 3.25 12.6 L3.05 13.85 2.35 14.75 1.9 15.1 M-1.8 10.05 L-2.0 10.15 -2.35 10.4 Q-3.3 11.3 -3.3 12.55 L-2.95 13.8 -2.3 14.7 -1.8 15.15" fill="none" stroke="#000000" stroke-linecap="round" stroke-linejoin="round" stroke-width="0.05"/>
    <path d="M3.05 -12.3 L3.9 -12.25 Q4.6 -10.65 3.9 -9.45 L8.9 -8.7 9.3 -6.95 Q9.65 -5.25 9.5 -4.35 L9.15 -2.6 8.65 -1.55 8.15 0.55 M8.1 0.65 L7.65 2.45 7.6 2.5 7.45 3.1 M7.45 3.05 Q7.35 6.6 7.6 9.15 M-7.3 9.15 Q-7.15 5.05 -7.3 3.5 L-7.6 2.6 -8.15 0.45 -8.55 -1.5 Q-8.95 -1.9 -9.15 -3.6 L-9.15 -3.65 -9.35 -4.5 -9.3 -6.9 -9.1 -8.5 -7.8 -8.9 -3.95 -9.45 Q-4.65 -10.85 -3.95 -12.3 L-3.05 -12.35 Q0.0 -12.6 3.05 -12.3 M3.0 -9.45 L3.9 -9.45 M-3.0 -9.45 L-3.95 -9.45" fill="none" stroke="#000000" stroke-linecap="round" stroke-linejoin="round" stroke-width="0.25"/>
  </g>
</svg>
