<?xml version="1.0" encoding="UTF-8" standalone="no"?>
<svg xmlns:xlink="http://www.w3.org/1999/xlink" height="31.15px" width="18.95px" xmlns="http://www.w3.org/2000/svg">
  <g transform="matrix(1.0, 0.0, 0.0, 1.0, 9.4, 14.4)">
    <path d="M3.0 -9.45 L3.0 -9.4 3.0 -9.45 M-3.0 -9.45 L-2.95 -9.45 -2.95 -9.4 -3.0 -9.45" fill="#eebf5a" fill-rule="evenodd" stroke="none"/>
    <path d="M3.0 -9.45 L3.0 -9.4 3.0 -9.45 M3.55 -9.95 L3.75 -10.8 3.5 -11.75 2.95 -12.1 2.45 -11.75 Q2.3 -11.35 2.3 -10.85 L2.5 -9.95 Q2.7 -9.55 3.0 -9.55 3.35 -9.55 3.55 -9.95 M-2.2 -8.4 L-4.0 -8.85 Q-4.9 -10.8 -4.65 -13.15 0.0 -14.0 4.65 -13.1 4.85 -10.65 3.95 -8.8 L1.7 -8.35 Q-0.3 -8.1 -2.2 -8.4 M-3.25 -12.1 L-3.75 -11.75 -3.9 -10.85 -3.7 -9.95 -3.2 -9.55 Q-2.85 -9.55 -2.65 -9.95 L-2.45 -10.8 -2.7 -11.75 Q-2.9 -12.1 -3.25 -12.1 M-3.0 -9.45 L-2.95 -9.4 -2.95 -9.45 -3.0 -9.45" fill="#224156" fill-rule="evenodd" stroke="none"/>
    <path d="M1.7 -8.35 L2.2 -6.75 Q2.6 -4.9 2.6 -2.8 -0.2 -1.45 -2.9 -2.85 -3.05 -5.05 -2.65 -6.85 L-2.2 -8.4 Q-0.3 -8.1 1.7 -8.35 M2.6 -0.85 L2.6 0.9 2.1 0.85 0.0 0.25 0.0 0.3 -2.05 0.85 -2.85 0.95 -2.9 -0.95 Q-0.2 0.95 2.6 -0.85 M-2.85 1.35 L0.0 0.9 2.6 1.3 Q2.4 9.3 1.8 11.9 L-1.75 11.85 Q-2.55 9.9 -2.85 1.35" fill="#ffffff" fill-rule="evenodd" stroke="none"/>
    <path d="M3.65 12.7 L6.1 12.0 Q6.95 13.95 6.1 15.4 L3.65 16.0 3.65 12.7 M2.5 16.05 L-2.35 15.9 -2.35 12.7 -0.5 12.75 0.95 12.75 2.5 12.75 2.5 16.05 M-3.5 15.85 Q-4.8 15.65 -6.15 15.0 -7.2 13.2 -6.2 11.6 L-5.0 12.1 -3.55 12.5 -3.5 15.85" fill="#2f3f4a" fill-rule="evenodd" stroke="none"/>
    <path d="M6.1 12.0 L8.15 10.8 Q9.0 12.3 8.15 14.4 L6.1 15.4 Q6.95 13.95 6.1 12.0 M-6.15 15.0 L-8.1 13.85 Q-8.65 12.1 -8.1 10.35 L-6.2 11.6 Q-7.2 13.2 -6.15 15.0" fill="#000000" fill-rule="evenodd" stroke="none"/>
    <path d="M7.2 -6.25 Q9.7 -3.4 6.85 -0.05 L6.25 0.3 Q4.4 1.05 2.6 0.9 L2.6 -0.85 Q4.85 -2.35 7.2 -6.25 M2.6 1.3 L5.3 1.7 Q7.15 3.35 5.3 4.95 L5.25 4.95 Q6.05 7.85 6.1 12.0 L3.65 12.7 3.65 11.9 1.8 11.9 Q2.4 9.3 2.6 1.3 M5.55 -9.3 Q6.65 -7.95 6.95 -6.5 4.75 -3.85 2.6 -2.8 2.6 -4.9 2.2 -6.75 L1.7 -8.35 3.95 -8.8 Q4.85 -10.65 4.65 -13.1 0.0 -14.0 -4.65 -13.15 -4.9 -10.8 -4.0 -8.85 L-2.2 -8.4 -2.65 -6.85 Q-3.05 -5.05 -2.9 -2.85 -5.0 -3.95 -7.05 -6.7 -6.7 -8.1 -5.2 -9.35 L-5.9 -13.6 Q0.6 -15.3 6.35 -13.35 L5.55 -9.3 M-7.25 -6.5 Q-5.15 -2.55 -2.9 -0.95 L-2.85 0.95 Q-4.4 0.95 -5.9 0.4 -9.7 -4.0 -7.25 -6.5 M-6.2 11.6 Q-6.55 7.35 -5.85 4.85 L-5.9 4.85 Q-7.7 1.4 -4.2 1.55 L-2.85 1.35 Q-2.55 9.9 -1.75 11.85 L-3.55 11.8 -3.55 12.5 -5.0 12.1 -6.2 11.6" fill="#b6cac8" fill-rule="evenodd" stroke="none"/>
    <path d="M8.35 -8.4 L7.2 -6.25 Q4.85 -2.35 2.6 -0.85 -0.2 0.95 -2.9 -0.95 -5.15 -2.55 -7.25 -6.5 L-8.25 -8.45 -7.05 -6.7 Q-5.0 -3.95 -2.9 -2.85 -0.2 -1.45 2.6 -2.8 4.75 -3.85 6.95 -6.5 L8.35 -8.4 M3.55 -9.95 Q3.35 -9.55 3.0 -9.55 2.7 -9.55 2.5 -9.95 L2.3 -10.85 Q2.3 -11.35 2.45 -11.75 L2.95 -12.1 3.5 -11.75 3.75 -10.8 3.55 -9.95 M-3.25 -12.1 Q-2.9 -12.1 -2.7 -11.75 L-2.45 -10.8 -2.65 -9.95 Q-2.85 -9.55 -3.2 -9.55 L-3.7 -9.95 -3.9 -10.85 -3.75 -11.75 -3.25 -12.1" fill="#fffca8" fill-rule="evenodd" stroke="none"/>
    <path d="M7.2 -6.25 L8.35 -8.4 6.95 -6.5 Q6.65 -7.95 5.55 -9.3 L8.9 -8.7 9.3 -6.95 Q9.65 -5.25 9.5 -4.35 L9.15 -2.6 8.65 -1.55 7.45 3.1 7.4 3.2 7.45 3.05 Q7.3 6.55 7.8 9.6 L8.15 10.8 6.1 12.0 Q6.05 7.85 5.25 4.95 L5.3 4.95 Q7.15 3.35 5.3 1.7 L2.6 1.3 2.6 0.9 Q4.4 1.05 6.25 0.3 L6.85 -0.05 Q9.7 -3.4 7.2 -6.25 M-2.85 0.95 L-2.85 1.35 -4.2 1.55 Q-7.7 1.4 -5.9 4.85 L-5.85 4.85 Q-6.55 7.35 -6.2 11.6 L-8.1 10.35 Q-8.3 9.7 -7.6 8.2 -6.95 6.7 -7.3 3.5 L-8.55 -1.5 Q-8.95 -1.9 -9.15 -3.6 L-9.15 -3.65 -9.35 -4.5 -9.3 -6.9 -9.1 -8.5 -7.8 -8.9 -5.2 -9.35 Q-6.7 -8.1 -7.05 -6.7 L-8.25 -8.45 -7.25 -6.5 Q-9.7 -4.0 -5.9 0.4 -4.4 0.95 -2.85 0.95" fill="#809b96" fill-rule="evenodd" stroke="none"/>
    <path d="M1.8 11.9 L3.65 11.9 3.65 12.7 3.65 16.0 3.65 16.75 -3.5 16.55 -3.5 15.85 -3.55 12.5 -3.55 11.8 -1.75 11.85 1.8 11.9 M2.5 16.05 L2.5 12.75 0.95 12.75 -0.5 12.75 -2.35 12.7 -2.35 15.9 2.5 16.05" fill="#8f8b96" fill-rule="evenodd" stroke="none"/>
    <path d="M2.6 0.9 L2.6 1.3 0.0 0.9 -2.85 1.35 -2.85 0.95 -2.05 0.85 0.0 0.3 0.0 0.25 2.1 0.85 2.6 0.9" fill="#f2f2f2" fill-rule="evenodd" stroke="none"/>
    <path d="M6.1 12.0 L8.15 10.8 7.8 9.6 Q7.3 6.55 7.45 3.05 L7.45 3.1 8.65 -1.55 9.15 -2.6 M8.9 -8.7 L5.55 -9.3 6.35 -13.35 Q0.6 -15.3 -5.9 -13.6 L-5.2 -9.35 -7.8 -8.9 -9.1 -8.5 -9.3 -6.9 -9.35 -4.5 -9.15 -3.65 -9.15 -3.6 Q-8.95 -1.9 -8.55 -1.5 L-7.3 3.5 Q-6.95 6.7 -7.6 8.2 -8.3 9.7 -8.1 10.35 L-6.2 11.6 -5.0 12.1 -3.55 12.5 -3.55 11.8 -1.75 11.85 1.8 11.9 3.65 11.9 3.65 12.7 6.1 12.0 M-2.2 -8.4 L-4.0 -8.85 Q-4.9 -10.8 -4.65 -13.15 0.0 -14.0 4.65 -13.1 4.85 -10.65 3.95 -8.8 L1.7 -8.35 Q-0.3 -8.1 -2.2 -8.4 M6.1 15.4 L8.15 14.4 Q9.0 12.3 8.15 10.8 M2.5 16.05 L-2.35 15.9 -2.35 12.7 -0.5 12.75 0.95 12.75 2.5 12.75 2.5 16.05 M6.1 15.4 L3.65 16.0 3.65 16.75 -3.5 16.55 -3.5 15.85 Q-4.8 15.65 -6.15 15.0 L-8.1 13.85 Q-8.65 12.1 -8.1 10.35 M3.65 16.0 L3.65 12.7 M-3.55 12.5 L-3.5 15.85" fill="none" stroke="#666666" stroke-linecap="round" stroke-linejoin="round" stroke-width="0.05"/>
    <path d="M2.6 0.9 L2.6 1.3 Q2.4 9.3 1.8 11.9 M1.7 -8.35 L2.2 -6.75 Q2.6 -4.9 2.6 -2.8 M-2.2 -8.4 L-2.65 -6.85 Q-3.05 -5.05 -2.9 -2.85 M-2.85 0.95 L-2.85 1.35 Q-2.55 9.9 -1.75 11.85 M-2.85 0.95 L-2.9 -0.95" fill="none" stroke="#999999" stroke-linecap="round" stroke-linejoin="round" stroke-width="0.05"/>
    <path d="M8.35 -8.4 L7.2 -6.25 Q9.7 -3.4 6.85 -0.05 L6.25 0.3 Q4.4 1.05 2.6 0.9 L2.6 -0.85 Q4.85 -2.35 7.2 -6.25 M-7.25 -6.5 L-8.25 -8.45 M-2.9 -0.95 Q-5.15 -2.55 -7.25 -6.5 M-2.9 -0.95 Q-0.2 0.95 2.6 -0.85" fill="none" stroke="#c0b101" stroke-linecap="round" stroke-linejoin="round" stroke-width="0.05"/>
  </g>
</svg>
