<?xml version="1.0" encoding="UTF-8" standalone="no"?>
<svg xmlns:xlink="http://www.w3.org/1999/xlink" height="4.5px" width="8.1px" xmlns="http://www.w3.org/2000/svg">
  <g transform="matrix(1.0, 0.0, 0.0, 1.0, 4.0, 2.2)">
    <path d="M-3.3 1.3 Q-4.1 0.65 -4.0 -0.15 -3.95 -1.15 -2.7 -1.7 -1.5 -2.3 0.15 -2.2 L2.15 -1.75 3.0 -0.8 3.15 -0.35 Q3.2 0.15 2.65 0.6 L2.65 0.65 2.3 0.9 Q0.5 1.95 -3.3 1.3" fill="#ffffff" fill-rule="evenodd" stroke="none"/>
    <path d="M3.3 -1.05 L3.85 -0.55 Q4.2 -0.25 4.1 0.25 L3.75 1.0 3.45 1.25 2.6 1.85 -0.3 2.3 Q-1.95 2.2 -3.0 1.5 L-3.3 1.3 Q0.5 1.95 2.3 0.9 L2.65 0.65 2.65 0.6 Q3.2 0.15 3.15 -0.35 L3.0 -0.8 2.15 -1.75 2.9 -1.35 3.3 -1.05" fill="#d1d1d1" fill-rule="evenodd" stroke="none"/>
    <path d="M3.75 1.0 L3.45 1.25 2.6 1.85 -0.3 2.3 Q-1.95 2.2 -3.0 1.5 L-3.3 1.3 Q-4.1 0.65 -4.0 -0.15 -3.95 -1.15 -2.7 -1.7 -1.5 -2.3 0.15 -2.2 L2.15 -1.75 2.9 -1.35 3.3 -1.05" fill="none" stroke="#666666" stroke-linecap="round" stroke-linejoin="round" stroke-width="0.05"/>
  </g>
</svg>
