<?xml version="1.0" encoding="UTF-8" standalone="no"?>
<svg xmlns:xlink="http://www.w3.org/1999/xlink" height="8.65px" width="11.95px" xmlns="http://www.w3.org/2000/svg">
  <g transform="matrix(1.0, 0.0, 0.0, 1.0, 6.65, 3.9)">
    <path d="M3.25 -1.15 L2.95 -1.35 2.2 -1.75 0.2 -2.2 Q-1.45 -2.3 -2.65 -1.7 -3.9 -1.15 -3.95 -0.15 -4.05 0.35 -3.65 0.85 L-4.35 0.85 -4.95 0.8 -6.5 0.3 -6.4 0.25 -6.45 0.25 -5.8 -0.35 -5.6 -0.55 Q-2.6 -2.6 2.25 -3.9 2.6 -2.15 3.25 -1.15" fill="#000000" fill-rule="evenodd" stroke="none"/>
    <path d="M-6.45 0.25 L-6.4 0.25 -6.5 0.3 -4.95 0.8 -4.35 0.85 -3.65 0.85 1.8 0.2 3.15 -0.1 3.6 -0.2 3.7 -0.3 4.05 -0.35 5.3 -0.6 5.3 -0.45 Q5.35 2.25 3.25 4.7 L2.0 4.55 Q3.1 3.3 3.3 1.6 L0.25 2.0 -2.75 2.05 Q-5.2 1.75 -6.6 1.0 L-6.65 1.0 -6.65 0.95 -6.5 0.3 -6.6 0.2 -6.5 0.3 -6.45 0.25" fill="#ffffff" fill-rule="evenodd" stroke="none"/>
    <path d="M-6.65 1.05 L-6.65 1.0 -6.6 1.0 -6.65 1.05" fill="#de8db3" fill-rule="evenodd" stroke="none"/>
    <path d="M2.0 4.55 Q-5.45 3.9 -6.65 1.05 L-6.6 1.0 Q-5.2 1.75 -2.75 2.05 L0.25 2.0 3.3 1.6 Q3.1 3.3 2.0 4.55" fill="#575757" fill-rule="evenodd" stroke="none"/>
    <path d="M3.25 -1.15 Q2.6 -2.15 2.25 -3.9 -2.6 -2.6 -5.6 -0.55 L-5.8 -0.35 -6.45 0.25 -6.4 0.25 -6.5 0.3 -4.95 0.8 -4.35 0.85 -3.65 0.85 1.8 0.2 3.15 -0.1 3.6 -0.2 3.7 -0.3 4.05 -0.35 5.3 -0.6 5.3 -0.45 Q5.35 2.25 3.25 4.7 L2.0 4.55 Q-5.45 3.9 -6.65 1.05 L-6.65 1.0 -6.65 0.95 -6.5 0.3 -6.45 0.25 M-6.6 1.0 L-6.65 1.0" fill="none" stroke="#000000" stroke-linecap="round" stroke-linejoin="round" stroke-width="0.05"/>
  </g>
</svg>
