<?xml version="1.0" encoding="UTF-8" standalone="no"?>
<svg xmlns:xlink="http://www.w3.org/1999/xlink" height="11.9px" width="12.3px" xmlns="http://www.w3.org/2000/svg">
  <g transform="matrix(1.0, 0.0, 0.0, 1.0, 8.35, 4.35)">
    <path d="M-8.3 -2.15 Q-7.7 -0.9 -6.25 -0.25 -4.8 0.4 -4.0 0.2 L-1.05 -1.3 Q0.65 -2.05 2.0 -1.8 3.3 -1.6 3.7 0.25 4.1 2.05 3.8 4.15 1.05 6.45 0.45 7.3 -0.15 8.15 -2.9 5.85 L-3.1 4.95 -2.35 5.45 -1.4 6.0 -1.05 6.25 Q0.55 4.35 2.0 3.4 2.35 1.25 1.55 0.2 0.45 -0.15 -3.55 2.25 -4.45 2.35 -5.25 1.85 L-6.45 1.25 Q-7.4 0.75 -7.95 -0.25 -8.5 -1.05 -8.3 -2.15" fill="#ffffff" fill-rule="evenodd" stroke="none"/>
    <path d="M-1.05 -1.3 L-4.0 0.2 Q-4.8 0.4 -6.25 -0.25 -7.7 -0.9 -8.3 -2.15 -7.65 -2.8 -5.65 -3.75 -3.8 -4.65 -2.35 -4.25 -0.9 -3.9 -1.05 -1.3 M-5.25 1.85 Q-4.45 2.35 -3.55 2.25 0.45 -0.15 1.55 0.2 2.35 1.25 2.0 3.4 0.55 4.35 -1.05 6.25 L-1.4 6.0 -2.25 5.4 Q-4.25 3.75 -5.25 1.85" fill="#263959" fill-rule="evenodd" stroke="none"/>
    <path d="M-6.45 1.25 L-5.25 1.85 Q-4.25 3.75 -2.25 5.4 L-2.35 5.45 -3.1 4.95 Q-5.7 3.1 -6.45 1.25" fill="#3c6885" fill-rule="evenodd" stroke="none"/>
    <path d="M-1.05 6.25 L-1.4 6.0 -2.25 5.4" fill="none" stroke="#000000" stroke-linecap="round" stroke-linejoin="round" stroke-width="0.05"/>
    <path d="M-8.3 -2.15 Q-8.5 -1.05 -7.95 -0.25 -7.4 0.75 -6.45 1.25 -5.7 3.1 -3.1 4.95 L-2.9 5.85 Q-0.15 8.15 0.45 7.3 1.05 6.45 3.8 4.15 4.1 2.05 3.7 0.25 3.3 -1.6 2.0 -1.8 0.65 -2.05 -1.05 -1.3" fill="none" stroke="#a0a0a0" stroke-linecap="round" stroke-linejoin="round" stroke-width="0.05"/>
  </g>
</svg>
