<?xml version="1.0" encoding="UTF-8" standalone="no"?>
<svg xmlns:xlink="http://www.w3.org/1999/xlink" height="7.8px" width="18.75px" xmlns="http://www.w3.org/2000/svg">
  <g transform="matrix(1.0, 0.0, 0.0, 1.0, 7.35, 2.9)">
    <path d="M11.15 2.65 L11.15 2.6 11.25 2.6 11.15 2.65" fill="#b4dacd" fill-rule="evenodd" stroke="none"/>
    <path d="M11.15 2.6 Q-5.5 2.45 -6.15 0.2 -6.85 -2.15 -6.35 -2.25 -6.15 -2.35 -5.9 -2.8 -3.9 -3.05 3.75 -0.75 12.05 1.65 11.25 2.6 L11.15 2.6" fill="#303646" fill-rule="evenodd" stroke="none"/>
    <path d="M-6.5 1.55 Q-5.2 2.55 -2.05 3.1 L-1.25 4.25 3.25 3.55 8.55 3.55 3.1 4.35 Q-3.85 5.15 -4.75 4.45 -5.6 3.8 -6.5 1.55" fill="#a7dcc1" fill-rule="evenodd" stroke="none"/>
    <path d="M-6.5 1.55 L-6.8 0.75 -7.15 -0.55 Q-7.5 -2.35 -6.35 -2.75 L-5.9 -2.8 Q-6.15 -2.35 -6.35 -2.25 -6.85 -2.15 -6.15 0.2 -5.5 2.45 11.15 2.6 L11.15 2.65 Q10.55 3.1 8.55 3.55 L3.25 3.55 -1.25 4.25 -2.05 3.1 Q-5.2 2.55 -6.5 1.55" fill="#45916e" fill-rule="evenodd" stroke="none"/>
    <path d="M11.25 2.6 L11.15 2.65" fill="none" stroke="#a0a0a0" stroke-linecap="round" stroke-linejoin="round" stroke-width="0.05"/>
    <path d="M-5.9 -2.8 L-6.35 -2.75 Q-7.5 -2.35 -7.15 -0.55 L-6.8 0.75 -6.5 1.55 Q-5.6 3.8 -4.75 4.45 -3.85 5.15 3.1 4.35 L8.55 3.55 Q10.55 3.1 11.15 2.65 M-5.9 -2.8 Q-3.9 -3.05 3.75 -0.75 12.05 1.65 11.25 2.6 Z" fill="none" stroke="#2e813e" stroke-linecap="round" stroke-linejoin="round" stroke-width="0.25"/>
  </g>
</svg>
