<?xml version="1.0" encoding="UTF-8" standalone="no"?>
<svg xmlns:xlink="http://www.w3.org/1999/xlink" height="11.05px" width="13.2px" xmlns="http://www.w3.org/2000/svg">
  <g transform="matrix(1.0, 0.0, 0.0, 1.0, 7.8, 4.6)">
    <path d="M-6.95 1.4 Q-7.95 -0.05 -7.65 -1.55 L-6.95 -1.95 Q-6.95 -0.2 -5.6 0.65 L-1.05 0.85 1.35 0.45 5.3 -0.45 Q5.35 2.6 2.6 5.85 L-0.4 6.35 -1.15 6.0 0.15 5.8 Q0.65 5.7 1.15 4.9 -0.25 4.5 -1.45 2.6 L-6.25 2.3 -6.95 1.4 M0.0 2.35 L0.65 3.25 1.7 4.0 Q2.4 2.85 2.4 1.85 L0.0 2.35" fill="#ffffff" fill-rule="evenodd" stroke="none"/>
    <path d="M1.35 0.45 L-1.05 0.85 -5.6 0.65 Q-6.95 -0.2 -6.95 -1.95 -3.5 -3.95 2.05 -4.5 1.1 -2.5 1.35 0.45" fill="#2f2e33" fill-rule="evenodd" stroke="none"/>
    <path d="M0.0 2.35 L2.4 1.85 Q2.4 2.85 1.7 4.0 L0.65 3.25 0.0 2.35" fill="#294163" fill-rule="evenodd" stroke="none"/>
    <path d="M-6.95 1.4 L-6.25 2.3 -1.45 2.6 Q-0.25 4.5 1.15 4.9 0.65 5.7 0.15 5.8 L-1.15 6.0 Q-6.8 6.45 -6.95 1.4" fill="#45916e" fill-rule="evenodd" stroke="none"/>
    <path d="M-6.95 -1.95 L-7.65 -1.55 Q-7.95 -0.05 -6.95 1.4 -6.8 6.45 -1.15 6.0 L-0.4 6.35 2.6 5.85 Q5.35 2.6 5.3 -0.45 L1.35 0.45 -1.05 0.85 -5.6 0.65 Q-6.95 -0.2 -6.95 -1.95 -3.5 -3.95 2.05 -4.5 1.1 -2.5 1.35 0.45" fill="none" stroke="#2e813e" stroke-linecap="round" stroke-linejoin="round" stroke-width="0.25"/>
  </g>
</svg>
