<?xml version="1.0" encoding="UTF-8" standalone="no"?>
<svg xmlns:xlink="http://www.w3.org/1999/xlink" height="6.85px" width="12.2px" xmlns="http://www.w3.org/2000/svg">
  <g transform="matrix(1.0, 0.0, 0.0, 1.0, 6.1, 1.45)">
    <path d="M5.15 0.4 L6.1 4.45 Q5.95 5.4 4.7 5.4 L3.85 1.15 3.95 1.1 5.15 0.4" fill="#6ba4ab" fill-rule="evenodd" stroke="none"/>
    <path d="M4.7 5.4 L2.65 4.95 2.65 3.75 Q0.25 5.85 -3.55 5.15 -4.35 3.55 0.2 1.4 L0.45 1.3 3.85 1.15 4.7 5.4 M2.35 2.3 Q2.6 2.1 2.65 3.75 2.6 2.1 2.35 2.3" fill="#59929f" fill-rule="evenodd" stroke="none"/>
    <path d="M-3.55 5.15 L-5.7 4.55 -5.85 4.45 Q-7.3 2.7 -0.9 -1.45 1.2 0.25 4.7 -1.45 L5.15 0.4 3.95 1.1 3.85 1.15 0.45 1.3 0.2 1.4 Q-4.35 3.55 -3.55 5.15" fill="#8db7c0" fill-rule="evenodd" stroke="none"/>
    <path d="M-3.55 5.15 L-5.7 4.55 -5.85 4.45 Q-7.3 2.7 -0.9 -1.45 1.2 0.25 4.7 -1.45 L5.15 0.4 6.1 4.45 Q5.95 5.4 4.7 5.4 L2.65 4.95 2.65 3.75 Q0.25 5.85 -3.55 5.15 M2.65 3.75 Q2.6 2.1 2.35 2.3" fill="none" stroke="#305054" stroke-linecap="round" stroke-linejoin="round" stroke-width="0.05"/>
  </g>
</svg>
