<?xml version="1.0" encoding="UTF-8" standalone="no"?>
<svg xmlns:xlink="http://www.w3.org/1999/xlink" height="14.15px" width="10.6px" xmlns="http://www.w3.org/2000/svg">
  <g transform="matrix(1.0, 0.0, 0.0, 1.0, 5.7, 5.95)">
    <path d="M-1.5 -5.95 Q0.65 -5.95 2.5 -4.15 4.35 -2.25 4.8 0.35 5.2 3.0 3.95 4.8 2.7 6.65 0.7 7.7 L-3.05 7.6 Q-4.8 6.45 -5.5 2.1 -6.15 -2.25 -4.9 -4.15 -3.65 -5.95 -1.5 -5.95" fill="#707070" fill-rule="evenodd" stroke="none"/>
    <path d="M-1.5 -5.95 Q0.65 -5.95 2.5 -4.15 4.35 -2.25 4.8 0.35 5.2 3.0 3.95 4.8 2.7 6.65 0.7 7.7 L-3.05 7.6 Q-4.8 6.45 -5.5 2.1 -6.15 -2.25 -4.9 -4.15 -3.65 -5.95 -1.5 -5.95 Z" fill="none" stroke="#555555" stroke-linecap="round" stroke-linejoin="round" stroke-width="0.05"/>
  </g>
</svg>
