<?xml version="1.0" encoding="UTF-8" standalone="no"?>
<svg xmlns:xlink="http://www.w3.org/1999/xlink" height="17.25px" width="11.2px" xmlns="http://www.w3.org/2000/svg">
  <g transform="matrix(1.0, 0.0, 0.0, 1.0, 6.3, 5.95)">
    <path d="M-1.5 -5.95 Q0.65 -5.95 2.5 -4.15 4.35 -2.25 4.8 0.35 5.2 3.0 3.95 4.8 2.7 6.65 0.7 7.7 L-3.05 7.6 Q-4.8 6.45 -5.5 2.1 -6.15 -2.25 -4.9 -4.15 -3.65 -5.95 -1.5 -5.95" fill="#8a4343" fill-rule="evenodd" stroke="none"/>
    <path d="M-1.5 -5.95 Q0.65 -5.95 2.5 -4.15 4.35 -2.25 4.8 0.35 5.2 3.0 3.95 4.8 2.7 6.65 0.7 7.7 L-3.05 7.6 Q-4.8 6.45 -5.5 2.1 -6.15 -2.25 -4.9 -4.15 -3.65 -5.95 -1.5 -5.95 Z" fill="none" stroke="#8a4343" stroke-linecap="round" stroke-linejoin="round" stroke-width="0.05"/>
    <path d="M-5.0 -3.05 L-4.45 -3.2 Q-3.75 7.1 -5.8 11.3 L-5.9 9.8 Q-4.5 5.95 -5.0 -3.05 M-6.2 4.8 Q-6.3 1.2 -6.0 -2.7 L-5.6 -2.85 Q-5.9 1.45 -5.5 4.8 L-6.2 4.8" fill="#ffffff" fill-rule="evenodd" stroke="none"/>
    <path d="M-5.9 9.8 L-6.2 4.8 -5.5 4.8 Q-5.9 1.45 -5.6 -2.85 L-5.0 -3.05 Q-4.5 5.95 -5.9 9.8" fill="#d66f64" fill-rule="evenodd" stroke="none"/>
    <path d="M-5.6 -2.85 L-5.0 -3.05" fill="none" stroke="#42129c" stroke-linecap="round" stroke-linejoin="round" stroke-width="0.05"/>
    <path d="M-5.6 -2.85 Q-5.9 1.45 -5.5 4.8 L-6.2 4.8" fill="none" stroke="#8a4343" stroke-linecap="round" stroke-linejoin="round" stroke-width="0.25"/>
    <path d="M-5.0 -3.05 L-4.45 -3.2 Q-3.75 7.1 -5.8 11.3 L-5.9 9.8 -6.2 4.8 Q-6.3 1.2 -6.0 -2.7 L-5.6 -2.85 Z" fill="none" stroke="#000000" stroke-linecap="round" stroke-linejoin="round" stroke-width="0.05"/>
  </g>
</svg>
