<?xml version="1.0" encoding="UTF-8" standalone="no"?>
<svg xmlns:xlink="http://www.w3.org/1999/xlink" height="11.85px" width="12.55px" xmlns="http://www.w3.org/2000/svg">
  <g transform="matrix(1.0, 0.0, 0.0, 1.0, 7.2, 2.8)">
    <path d="M1.7 -0.95 Q2.55 -1.8 2.4 -2.35 3.7 -0.8 5.35 -0.45 4.25 1.9 2.85 3.75 -0.6 7.0 -4.1 8.25 -4.75 7.3 -4.9 6.1 -2.8 5.1 -1.2 3.8 0.5 2.45 1.65 0.8 0.5 2.45 -1.2 3.8 -3.5 5.0 -6.3 6.0 -7.0 4.2 -6.05 1.55 -4.35 1.1 -1.8 -1.1 L0.0 -2.8 Q0.95 -1.35 1.7 -0.95 L2.55 -0.85 2.25 -0.2 2.55 -0.85 1.7 -0.95 M1.65 0.8 L1.65 1.0 2.1 1.55 2.9 1.55 3.45 1.1 3.55 0.35 3.05 -0.2 2.3 -0.25 2.25 -0.2 1.65 0.8 M0.45 0.75 Q0.7 0.4 0.55 0.0 L0.05 -0.55 -0.7 -0.6 -1.3 -0.1 -1.4 0.65 -0.9 1.2 -0.15 1.25 0.45 0.75" fill="#224156" fill-rule="evenodd" stroke="none"/>
    <path d="M-6.75 1.65 Q-7.35 0.6 -2.45 -2.7 -2.5 -1.3 -1.8 -1.1 -4.35 1.1 -6.05 1.55 L-6.75 1.65" fill="#000000" fill-rule="evenodd" stroke="none"/>
    <path d="M-1.2 3.8 Q-2.8 5.1 -4.9 6.1 -4.75 7.3 -4.1 8.25 -0.6 7.0 2.85 3.75 -0.1 7.55 -4.5 9.05 -5.25 7.95 -5.6 6.45 L-6.75 6.9 Q-7.6 3.95 -6.75 1.65 L-6.05 1.55 Q-7.0 4.2 -6.3 6.0 -3.5 5.0 -1.2 3.8 M-5.6 6.45 L-4.9 6.1 -5.6 6.45" fill="#618ea3" fill-rule="evenodd" stroke="none"/>
    <path d="M2.25 -0.2 L2.3 -0.25 3.05 -0.2 3.55 0.35 3.45 1.1 2.9 1.55 2.1 1.55 1.65 1.0 1.65 0.8 2.25 -0.2 M0.45 0.75 L-0.15 1.25 -0.9 1.2 -1.4 0.65 -1.3 -0.1 -0.7 -0.6 0.05 -0.55 0.55 0.0 Q0.7 0.4 0.45 0.75" fill="#96609c" fill-rule="evenodd" stroke="none"/>
    <path d="M2.85 3.75 Q4.25 1.9 5.35 -0.45 3.7 -0.8 2.4 -2.35 2.55 -1.8 1.7 -0.95 L2.55 -0.85 2.25 -0.2 1.65 0.8 Q0.5 2.45 -1.2 3.8 -2.8 5.1 -4.9 6.1 L-5.6 6.45 -6.75 6.9 Q-7.6 3.95 -6.75 1.65 -7.35 0.6 -2.45 -2.7 -2.5 -1.3 -1.8 -1.1 L0.0 -2.8 Q0.95 -1.35 1.7 -0.95 M2.85 3.75 Q-0.1 7.55 -4.5 9.05 -5.25 7.95 -5.6 6.45 M-6.75 1.65 L-6.05 1.55 Q-4.35 1.1 -1.8 -1.1" fill="none" stroke="#000000" stroke-linecap="round" stroke-linejoin="round" stroke-width="0.05"/>
  </g>
</svg>
