<?xml version="1.0" encoding="UTF-8" standalone="no"?>
<svg xmlns:xlink="http://www.w3.org/1999/xlink" height="16.0px" width="12.5px" xmlns="http://www.w3.org/2000/svg">
  <g transform="matrix(1.0, 0.0, 0.0, 1.0, 7.6, 5.95)">
    <path d="M-1.5 -5.95 Q0.65 -5.95 2.5 -4.15 4.35 -2.25 4.8 0.35 5.2 3.0 3.95 4.8 2.7 6.65 0.7 7.7 L-3.05 7.6 Q-4.8 6.45 -5.5 2.1 -6.15 -2.25 -4.9 -4.15 -3.65 -5.95 -1.5 -5.95" fill="#302f34" fill-rule="evenodd" stroke="none"/>
    <path d="M-1.5 -5.95 Q0.65 -5.95 2.5 -4.15 4.35 -2.25 4.8 0.35 5.2 3.0 3.95 4.8 2.7 6.65 0.7 7.7 L-3.05 7.6 Q-4.8 6.45 -5.5 2.1 -6.15 -2.25 -4.9 -4.15 -3.65 -5.95 -1.5 -5.95 Z" fill="none" stroke="#000000" stroke-linecap="round" stroke-linejoin="round" stroke-width="0.05"/>
    <path d="M-5.05 -2.55 L-4.5 -3.05 -4.5 -2.8 -4.75 4.3 Q-5.1 10.1 -5.8 10.05 -6.9 9.75 -7.35 2.5 L-7.6 -2.75 -7.6 -2.85 -7.4 -2.65 -7.15 -2.4 -6.8 3.65 Q-6.5 7.15 -5.95 7.3 -5.6 7.35 -5.35 4.6 L-5.05 -2.55" fill="#877b51" fill-rule="evenodd" stroke="none"/>
    <path d="M-6.5 -2.1 L-6.3 -2.1 Q-5.55 -2.1 -5.05 -2.55 L-5.35 4.6 Q-5.6 7.35 -5.95 7.3 -6.5 7.15 -6.8 3.65 L-7.15 -2.4 -6.5 -2.1 -6.3 4.05 -6.5 -2.1" fill="#454b3f" fill-rule="evenodd" stroke="none"/>
    <path d="M-6.5 -2.1 L-6.3 4.05" fill="none" stroke="#000000" stroke-linecap="round" stroke-linejoin="round" stroke-width="0.05"/>
  </g>
</svg>
