<?xml version="1.0" encoding="UTF-8" standalone="no"?>
<svg xmlns:xlink="http://www.w3.org/1999/xlink" height="214.7px" width="58.95px" xmlns="http://www.w3.org/2000/svg">
  <g transform="matrix(1.0, 0.0, 0.0, 1.0, 11.25, 205.75)">
    <path d="M1.35 -200.75 L3.35 -196.35 21.45 -199.15 24.05 -205.4 Q33.5 -207.2 41.5 -199.6 L26.5 -181.55 24.7 -148.05 13.5 -143.3 10.45 -81.85 16.2 -84.25 18.85 -63.75 15.1 -50.75 0.4 -84.05 -3.9 -43.4 Q-10.05 -46.95 -7.7 -58.4 L-10.25 -68.5 -1.2 -90.95 2.15 -165.7 -11.25 -152.2 -8.65 -185.95 1.35 -200.75" fill="#644a55" fill-rule="evenodd" stroke="none"/>
    <path d="M-10.25 -68.5 L-5.9 -135.35 -11.25 -152.2 2.15 -165.7 -1.2 -90.95 -10.25 -68.5 M-5.9 -135.35 L-5.05 -147.8 -5.9 -135.35" fill="#946a7e" fill-rule="evenodd" stroke="none"/>
    <path d="M41.5 -199.6 L47.7 -162.15 28.1 -129.35 26.2 -88.85 22.2 -62.8 Q28.9 -52.95 19.05 -41.75 L15.1 -50.75 18.85 -63.75 16.2 -84.25 10.45 -81.85 13.5 -143.3 24.7 -148.05 26.5 -181.55 41.5 -199.6" fill="#3f3a3d" fill-rule="evenodd" stroke="none"/>
    <path d="M19.05 -41.75 L2.7 8.95 0.4 -84.05 15.1 -50.75 19.05 -41.75" fill="#b46a68" fill-rule="evenodd" stroke="none"/>
    <path d="M2.7 8.95 L-3.9 -43.4 0.4 -84.05 2.7 8.95" fill="#e39795" fill-rule="evenodd" stroke="none"/>
    <path d="M1.35 -200.75 L3.35 -196.35 21.45 -199.15 24.05 -205.4 Q33.5 -207.2 41.5 -199.6 L47.7 -162.15 28.1 -129.35 26.2 -88.85 22.2 -62.8 Q28.9 -52.95 19.05 -41.75" fill="none" stroke="#000000" stroke-linecap="round" stroke-linejoin="round" stroke-width="0.05"/>
    <path d="M19.05 -41.75 L2.7 8.95 -3.9 -43.4 Q-10.05 -46.95 -7.7 -58.4 L-10.25 -68.5 -5.9 -135.35 -11.25 -152.2 -8.65 -185.95 1.35 -200.75 M15.1 -50.75 L19.05 -41.75 M15.1 -50.75 L0.4 -84.05 -3.9 -43.4 M-5.05 -147.8 L-5.9 -135.35" fill="none" stroke="#000000" stroke-linecap="round" stroke-linejoin="round" stroke-width="0.05"/>
    <path d="M0.4 -84.05 L2.7 8.95" fill="none" stroke="#eebfbf" stroke-linecap="round" stroke-linejoin="round" stroke-width="0.05"/>
  </g>
</svg>
