<?xml version="1.0" encoding="UTF-8" standalone="no"?>
<svg xmlns:xlink="http://www.w3.org/1999/xlink" height="22.7px" width="7.45px" xmlns="http://www.w3.org/2000/svg">
  <g transform="matrix(1.0, 0.0, 0.0, 1.0, 7.35, 1.0)">
    <path d="M-2.0 -0.9 L-1.9 -0.85 Q-1.25 -0.2 -0.85 3.6 L-0.85 3.65 -0.6 5.2 -0.5 6.25 -0.45 6.85 -0.35 8.15 -0.3 8.3 -1.15 8.65 -1.3 8.3 -1.4 8.1 -1.65 7.45 -1.85 6.9 -2.05 6.5 -2.85 5.2 -2.9 5.1 Q-3.8 3.85 -4.75 3.9 L-5.35 4.05 -6.1 4.9 -7.0 7.1 -7.1 6.5 Q-7.55 3.1 -7.25 1.3 L-6.55 0.25 Q-5.45 -0.8 -3.1 -0.95 L-2.15 -1.0 -2.0 -0.9 M-0.1 11.45 L-0.05 12.8 -0.35 11.45 -0.1 11.45" fill="#333333" fill-rule="evenodd" stroke="none"/>
    <path d="M-0.05 12.8 L0.1 20.6 Q-2.25 22.5 -4.05 21.1 -5.75 16.65 -6.55 11.35 -3.55 13.45 -0.35 11.45 L-0.05 12.8 M-6.9 8.5 L-6.95 8.1 -6.95 7.85 -7.0 7.25 -7.0 7.1 -6.1 4.9 -5.35 4.05 -4.75 3.9 Q-3.8 3.85 -2.9 5.1 L-2.85 5.2 -2.05 6.5 -1.85 6.9 -1.65 7.45 -1.4 8.1 -1.3 8.3 -1.15 8.65 -6.9 8.5" fill="#666666" fill-rule="evenodd" stroke="none"/>
    <path d="M-0.3 8.3 L-0.2 9.55 -0.1 11.45 -0.35 11.45 -1.0 9.2 -1.15 8.65 -0.3 8.3" fill="#fec4a5" fill-rule="evenodd" stroke="none"/>
    <path d="M-6.55 11.35 L-6.85 9.2 -6.9 8.5 -1.15 8.65 -1.0 9.2 -0.35 11.45 Q-3.55 13.45 -6.55 11.35" fill="#ffdfc8" fill-rule="evenodd" stroke="none"/>
    <path d="M-2.0 -0.9 L-1.9 -0.85 Q-1.25 -0.2 -0.85 3.6 L-0.85 3.65 -0.6 5.2 -0.5 6.25 -0.45 6.85 -0.35 8.15 -0.3 8.3 M-0.1 11.45 L-0.05 12.8 0.1 20.6 M-4.05 21.1 Q-5.75 16.65 -6.55 11.35 M-6.9 8.5 L-6.95 8.1 -6.95 7.85 -7.0 7.25 M-7.0 7.1 L-7.1 6.5 Q-7.55 3.1 -7.25 1.3 M-1.15 8.65 L-6.9 8.5" fill="none" stroke="#272727" stroke-linecap="round" stroke-linejoin="round" stroke-width="0.05"/>
    <path d="M-7.0 7.25 L-7.0 7.1" fill="none" stroke="#272727" stroke-linecap="round" stroke-linejoin="round" stroke-width="0.05"/>
    <path d="M-0.3 8.3 L-0.2 9.55 -0.1 11.45 M-6.55 11.35 L-6.85 9.2 -6.9 8.5" fill="none" stroke="#d7995e" stroke-linecap="round" stroke-linejoin="round" stroke-width="0.05"/>
    <path d="M-0.3 8.3 L-1.15 8.65" fill="none" stroke="#a0a0a0" stroke-linecap="round" stroke-linejoin="round" stroke-width="0.05"/>
  </g>
</svg>
