<?xml version="1.0" encoding="UTF-8" standalone="no"?>
<svg xmlns:xlink="http://www.w3.org/1999/xlink" height="109.65px" width="67.15px" xmlns="http://www.w3.org/2000/svg">
  <g transform="matrix(1.0, 0.0, 0.0, 1.0, 61.35, 96.35)">
    <path d="M-59.25 -18.8 L-52.95 -22.75 -50.95 -26.95 -48.25 -11.25 -52.45 -3.6 -59.25 -18.8 M-42.5 -44.95 L-49.5 -63.6 -42.85 -91.7 -27.75 -96.35 Q-16.75 -94.55 -9.7 -86.85 10.45 -64.95 3.1 -49.75 7.7 -68.6 -21.4 -85.5 L-32.7 -81.05 -42.5 -44.95 M-27.75 -96.35 L-21.4 -85.5 -27.75 -96.35" fill="#644a55" fill-rule="evenodd" stroke="none"/>
    <path d="M3.1 -49.75 Q2.1 -47.75 0.7 -45.85 -12.5 -27.75 -22.95 -8.5 L-24.75 -5.15 -24.45 -5.1 -24.45 4.0 -38.35 13.2 Q-43.95 12.75 -47.6 10.35 L-55.15 3.55 Q-62.75 -8.25 -61.05 -17.7 L-59.25 -18.8 -52.45 -3.6 -48.25 -11.25 -50.95 -26.95 -42.5 -44.95 -32.7 -81.05 -21.4 -85.5 Q7.7 -68.6 3.1 -49.75" fill="#3f3a3d" fill-rule="evenodd" stroke="none"/>
    <path d="M-22.95 -8.5 L-5.4 -12.05 Q2.0 -12.65 5.3 -7.05 -12.4 -0.05 -21.05 -0.95 L-24.45 -5.1 -24.75 -5.15 -22.95 -8.5" fill="#4f756f" fill-rule="evenodd" stroke="none"/>
    <path d="M5.3 -7.05 Q7.3 -0.5 1.2 3.0 -24.55 14.25 -38.35 13.2 L-24.45 4.0 -24.45 -5.1 -21.05 -0.95 Q-12.4 -0.05 5.3 -7.05" fill="#38524b" fill-rule="evenodd" stroke="none"/>
    <path d="M-24.45 -5.1 L-24.45 4.0 -38.35 13.2" fill="none" stroke="#000000" stroke-linecap="round" stroke-linejoin="round" stroke-width="0.05"/>
    <path d="M3.1 -49.75 Q2.1 -47.75 0.7 -45.85 -12.5 -27.75 -22.95 -8.5 L-5.4 -12.05 Q2.0 -12.65 5.3 -7.05 7.3 -0.5 1.2 3.0 -24.55 14.25 -38.35 13.2 -43.95 12.75 -47.6 10.35 L-55.15 3.55 Q-62.75 -8.25 -61.05 -17.7 L-59.25 -18.8 -52.95 -22.75 -50.95 -26.95 -42.5 -44.95 -49.5 -63.6 -42.85 -91.7 -27.75 -96.35 Q-16.75 -94.55 -9.7 -86.85 10.45 -64.95 3.1 -49.75 7.7 -68.6 -21.4 -85.5 L-32.7 -81.05 -42.5 -44.95 M-21.4 -85.5 L-27.75 -96.35 M-22.95 -8.5 L-24.75 -5.15 -24.45 -5.1 Z" fill="none" stroke="#000000" stroke-linecap="round" stroke-linejoin="round" stroke-width="0.05"/>
  </g>
</svg>
