<?xml version="1.0" encoding="UTF-8" standalone="no"?>
<svg xmlns:xlink="http://www.w3.org/1999/xlink" height="218.65px" width="207.65px" xmlns="http://www.w3.org/2000/svg">
  <g transform="matrix(1.0, 0.0, 0.0, 1.0, 196.9, 189.55)">
    <path d="M-158.05 -38.4 L-179.3 -54.5 -182.1 -61.85 -168.9 -62.05 -168.8 -61.9 -168.8 -62.05 -159.3 -62.05 Q-159.0 -47.85 -158.0 -38.4 L-168.8 -61.9 -158.0 -38.4 -158.05 -38.4 M-45.75 -98.0 L-61.5 -66.0 -77.15 -51.7 -88.3 -63.05 -77.15 -51.7 -92.75 -37.45 -111.1 -37.45 -122.65 -49.6 -126.85 -54.05 -134.45 -62.05 -88.3 -63.05 -118.55 -93.85 -118.55 -130.55 -106.1 -151.2 -80.75 -131.95 -67.9 -122.15 -45.75 -98.0 M-178.5 -163.8 L-122.65 -163.8 -114.4 -157.5 -123.7 -129.3 Q-123.5 -124.3 -128.9 -124.9 L-185.7 -124.9 -178.5 -163.8 M-112.05 -168.85 L-115.85 -171.15 -109.05 -176.65 -90.65 -176.8 -100.25 -168.85 -112.05 -168.85 M-193.05 -100.25 L-188.1 -120.5 -124.5 -120.5 -124.5 -101.7 Q-132.25 -92.8 -144.5 -91.45 -158.6 -87.0 -175.7 -90.1 -188.2 -93.8 -193.05 -100.25 M-70.45 -115.6 L-76.7 -106.7 -96.75 -78.45 -82.05 -65.0 -75.7 -59.1 -61.5 -66.0 -75.7 -59.1 -82.05 -65.0 -64.55 -70.25 -51.75 -96.2 -70.45 -115.6 -92.15 -131.4 -80.75 -131.95 -92.15 -131.4 -70.45 -115.6" fill="#333333" fill-rule="evenodd" stroke="none"/>
    <path d="M-153.3 -19.7 Q-156.0 -18.85 -158.0 -38.35 L-158.0 -38.4 Q-159.0 -47.85 -159.3 -62.05 L-155.3 -62.05 -134.45 -62.05 -126.85 -54.05 -122.65 -49.6 -122.65 -25.95 -125.4 -19.75 -125.4 -19.7 -153.3 -19.7 M-185.15 -163.8 L-158.65 -171.95 -153.5 -171.95 Q-138.1 -174.95 -117.8 -189.55 L-83.15 -189.55 -54.8 -158.8 -53.25 -154.15 -79.35 -180.0 -95.85 -165.4 -102.55 -162.75 -97.15 -159.15 -93.2 -156.35 Q-86.75 -151.75 -81.4 -147.35 -69.5 -137.6 -62.95 -128.95 -54.5 -117.85 -51.3 -109.55 L-67.9 -122.15 -80.75 -131.95 -106.1 -151.2 -114.4 -157.5 -122.65 -163.8 -178.5 -163.8 -185.15 -163.8 M-112.05 -168.85 Q-107.1 -165.8 -102.55 -162.75 -107.1 -165.8 -112.05 -168.85 L-100.25 -168.85 -90.65 -176.8 -83.35 -182.85 -85.4 -186.2 -115.25 -186.2 -117.75 -186.2 Q-121.55 -179.0 -118.7 -171.95 L-117.2 -171.95 -115.85 -171.15 -112.05 -168.85 M-153.5 -171.95 L-118.7 -171.95 -153.5 -171.95 M-155.3 -62.05 Q-155.45 -39.3 -151.3 -24.1 L-126.9 -24.1 -126.85 -54.05 -126.9 -24.1 -151.3 -24.1 Q-155.45 -39.3 -155.3 -62.05" fill="#4f756f" fill-rule="evenodd" stroke="none"/>
    <path d="M-60.15 29.1 L-112.1 29.1 -127.3 21.1 -136.45 -7.5 -127.3 -0.9 -102.5 -0.9 -95.8 -4.85 -94.1 -3.5 -81.9 21.6 -60.15 29.1 M-182.1 -61.85 L-196.9 -100.9 -185.15 -163.8 -178.5 -163.8 -185.7 -124.9 -128.9 -124.9 Q-123.5 -124.3 -123.7 -129.3 L-114.4 -157.5 -106.1 -151.2 -118.55 -130.55 -118.55 -93.85 -88.3 -63.05 -134.45 -62.05 -155.3 -62.05 -159.3 -62.05 -168.8 -62.05 -168.9 -62.05 -182.1 -61.85 M-50.65 -49.0 L-25.2 -58.35 10.75 -56.6 -50.65 -38.15 -50.65 -49.0 M-193.05 -100.25 Q-188.2 -93.8 -175.7 -90.1 -158.6 -87.0 -144.5 -91.45 -132.25 -92.8 -124.5 -101.7 L-124.5 -120.5 -188.1 -120.5 -193.05 -100.25 M-144.5 -91.45 L-134.45 -62.05 -144.5 -91.45 M-168.9 -62.05 L-175.7 -90.1 -168.9 -62.05 M-63.9 -94.55 L-51.75 -96.2 -64.55 -70.25 -82.05 -65.0 -63.9 -94.55 M-81.9 21.6 L-127.3 21.1 -81.9 21.6" fill="#644a55" fill-rule="evenodd" stroke="none"/>
    <path d="M-53.25 -154.15 Q-48.7 -138.7 -51.4 -121.15 L-43.15 -103.35 -51.3 -109.55 Q-54.5 -117.85 -62.95 -128.95 L-62.15 -137.5 Q-70.85 -148.55 -81.1 -156.3 L-88.85 -161.55 -91.7 -163.2 -95.85 -165.4 -79.35 -180.0 -53.25 -154.15" fill="#586361" fill-rule="evenodd" stroke="none"/>
    <path d="M-62.95 -128.95 Q-69.5 -137.6 -81.4 -147.35 -79.85 -149.05 -79.5 -150.55 -79.0 -153.15 -81.1 -156.3 -70.85 -148.55 -62.15 -137.5 L-62.95 -128.95 M-117.75 -186.2 L-115.25 -186.2 -107.3 -181.05 -109.8 -181.05 -117.75 -186.2" fill="#765151" fill-rule="evenodd" stroke="none"/>
    <path d="M-76.7 -106.7 L-70.45 -115.6 -51.75 -96.2 -63.9 -94.55 -76.7 -106.7" fill="#533e47" fill-rule="evenodd" stroke="none"/>
    <path d="M-136.45 -7.5 L-153.3 -19.7 -125.4 -19.7 -125.3 -19.7 -102.5 -0.9 -125.3 -19.7 -125.4 -19.75 -122.65 -25.95 -122.65 -49.6 -111.1 -37.45 -92.75 -37.45 -77.15 -51.7 -61.5 -66.0 -50.65 -49.0 -50.65 -38.15 -71.0 -38.85 -94.1 -3.5 -95.8 -4.85 -102.5 -0.9 -127.3 -0.9 -136.45 -7.5 M-43.15 -103.35 L-45.75 -98.0 -67.9 -122.15 -51.3 -109.55 -43.15 -103.35 M-115.85 -171.15 L-117.2 -171.95 -118.7 -171.95 Q-121.55 -179.0 -117.75 -186.2 L-109.8 -181.05 -107.3 -181.05 -115.25 -186.2 -85.4 -186.2 -83.35 -182.85 -90.65 -176.8 -109.05 -176.65 -115.85 -171.15 M-95.8 -4.85 L-122.65 -25.95 -95.8 -4.85" fill="#414d4b" fill-rule="evenodd" stroke="none"/>
    <path d="M-81.4 -147.35 Q-86.75 -151.75 -93.2 -156.35 L-90.65 -159.05 -88.85 -161.55 -81.1 -156.3 Q-79.0 -153.15 -79.5 -150.55 -79.85 -149.05 -81.4 -147.35 M-97.15 -159.15 L-102.55 -162.75 -95.85 -165.4 -91.7 -163.2 -97.15 -159.15" fill="#b46a68" fill-rule="evenodd" stroke="none"/>
    <path d="M-93.2 -156.35 L-97.15 -159.15 -91.7 -163.2 -88.85 -161.55 -90.65 -159.05 -93.2 -156.35" fill="#d2a6a6" fill-rule="evenodd" stroke="none"/>
    <path d="M-82.05 -65.0 L-96.75 -78.45 -76.7 -106.7 -63.9 -94.55 -82.05 -65.0" fill="#000000" fill-rule="evenodd" stroke="none"/>
    <path d="M10.75 -56.6 L10.75 -35.05 -60.15 29.1 -81.9 21.6 -94.1 -3.5 -71.0 -38.85 -50.65 -38.15 10.75 -56.6" fill="#3f3a3d" fill-rule="evenodd" stroke="none"/>
    <path d="M10.75 -56.6 L10.75 -35.05 -60.15 29.1 -112.1 29.1 -127.3 21.1 -136.45 -7.5 -153.3 -19.7 Q-156.0 -18.85 -158.0 -38.35 L-158.05 -38.4 -179.3 -54.5 -182.1 -61.85 -196.9 -100.9 -185.15 -163.8 -158.65 -171.95 -153.5 -171.95 Q-138.1 -174.95 -117.8 -189.55 L-83.15 -189.55 -54.8 -158.8 -53.25 -154.15 Q-48.7 -138.7 -51.4 -121.15 L-43.15 -103.35 -45.75 -98.0 -61.5 -66.0 -50.65 -49.0 -50.65 -38.15 -71.0 -38.85 -94.1 -3.5 -81.9 21.6 -60.15 29.1 M10.75 -56.6 L-50.65 -38.15 M-122.65 -163.8 L-114.4 -157.5 -106.1 -151.2 -80.75 -131.95 -67.9 -122.15 -51.3 -109.55 Q-54.5 -117.85 -62.95 -128.95 -69.5 -137.6 -81.4 -147.35 -86.75 -151.75 -93.2 -156.35 L-97.15 -159.15 -102.55 -162.75 Q-107.1 -165.8 -112.05 -168.85 L-115.85 -171.15 -117.2 -171.95 -118.7 -171.95 -153.5 -171.95 M-193.05 -100.25 Q-188.2 -93.8 -175.7 -90.1 -158.6 -87.0 -144.5 -91.45 -132.25 -92.8 -124.5 -101.7 L-124.5 -120.5 -188.1 -120.5 -193.05 -100.25 M-178.5 -163.8 L-185.7 -124.9 -128.9 -124.9 Q-123.5 -124.3 -123.7 -129.3 L-114.4 -157.5 M-168.8 -62.05 L-159.3 -62.05 -155.3 -62.05 -134.45 -62.05 -144.5 -91.45 M-168.8 -61.9 L-158.0 -38.4 Q-159.0 -47.85 -159.3 -62.05 M-168.9 -62.05 L-168.8 -61.9 M-175.7 -90.1 L-168.9 -62.05 M-76.7 -106.7 L-70.45 -115.6 -92.15 -131.4 -80.75 -131.95 M-51.3 -109.55 L-43.15 -103.35 M-81.1 -156.3 Q-70.85 -148.55 -62.15 -137.5 L-62.95 -128.95 M-115.25 -186.2 L-85.4 -186.2 -83.35 -182.85 -90.65 -176.8 -100.25 -168.85 -112.05 -168.85 M-117.75 -186.2 L-115.25 -186.2 M-88.85 -161.55 L-91.7 -163.2 -95.85 -165.4 -102.55 -162.75 M-81.1 -156.3 L-88.85 -161.55 M-90.65 -176.8 L-109.05 -176.65 -115.85 -171.15 M-106.1 -151.2 L-118.55 -130.55 -118.55 -93.85 -88.3 -63.05 -77.15 -51.7 -61.5 -66.0 -75.7 -59.1 -82.05 -65.0 -96.75 -78.45 -76.7 -106.7 -63.9 -94.55 -51.75 -96.2 -70.45 -115.6 M-134.45 -62.05 L-126.85 -54.05 -122.65 -49.6 -111.1 -37.45 -92.75 -37.45 -77.15 -51.7 M-158.0 -38.4 L-158.0 -38.35 -158.0 -38.4 M-125.3 -19.7 L-125.4 -19.7 -153.3 -19.7 M-136.45 -7.5 L-127.3 -0.9 -102.5 -0.9 -125.3 -19.7 M-126.85 -54.05 L-126.9 -24.1 -151.3 -24.1 Q-155.45 -39.3 -155.3 -62.05 M-122.65 -25.95 L-122.65 -49.6 M-95.8 -4.85 L-94.1 -3.5 M-95.8 -4.85 L-102.5 -0.9 M-122.65 -25.95 L-95.8 -4.85 M-82.05 -65.0 L-64.55 -70.25 -51.75 -96.2 M-63.9 -94.55 L-82.05 -65.0 M-67.9 -122.15 L-45.75 -98.0 M-127.3 21.1 L-81.9 21.6" fill="none" stroke="#383b3a" stroke-linecap="round" stroke-linejoin="round" stroke-width="0.05"/>
    <path d="M-185.15 -163.8 L-178.5 -163.8 -122.65 -163.8" fill="none" stroke="#383b3a" stroke-linecap="round" stroke-linejoin="round" stroke-width="0.05"/>
  </g>
</svg>
