<?xml version="1.0" encoding="UTF-8" standalone="no"?>
<svg xmlns:xlink="http://www.w3.org/1999/xlink" height="18.05px" width="7.95px" xmlns="http://www.w3.org/2000/svg">
  <g transform="matrix(1.0, 0.0, 0.0, 1.0, 4.35, 0.95)">
    <path d="M-3.15 3.55 Q-3.05 0.6 -1.95 -0.65 L-0.85 -0.85 Q0.95 -1.15 2.3 -0.45 L2.65 0.9 Q2.95 2.15 3.25 7.3 2.85 3.3 -1.15 3.35 L-3.15 3.55 M-0.85 -0.85 L-1.15 3.35 -0.85 -0.85" fill="#4b5232" fill-rule="evenodd" stroke="none"/>
    <path d="M3.25 7.3 Q3.3 10.8 3.6 13.35 L2.65 16.9 -1.2 17.1 Q-2.55 16.8 -3.45 15.9 -3.95 14.95 -4.35 12.6 L-3.6 8.35 -3.15 3.55 -1.15 3.35 -1.9 13.4 Q-1.95 15.95 -1.2 17.1 -1.95 15.95 -1.9 13.4 L-1.15 3.35 Q2.85 3.3 3.25 7.3" fill="#738f56" fill-rule="evenodd" stroke="none"/>
    <path d="M-3.15 3.55 Q-3.05 0.6 -1.95 -0.65 L-0.85 -0.85 Q0.95 -1.15 2.3 -0.45 L2.65 0.9 Q2.95 2.15 3.25 7.3 3.3 10.8 3.6 13.35 L2.65 16.9 -1.2 17.1 Q-2.55 16.8 -3.45 15.9 -3.95 14.95 -4.35 12.6 L-3.6 8.35 -3.15 3.55 M-1.15 3.35 L-0.85 -0.85 M-1.2 17.1 Q-1.95 15.95 -1.9 13.4 L-1.15 3.35" fill="none" stroke="#49614b" stroke-linecap="round" stroke-linejoin="round" stroke-width="0.05"/>
  </g>
</svg>
