<?xml version="1.0" encoding="UTF-8" standalone="no"?>
<svg xmlns:xlink="http://www.w3.org/1999/xlink" height="6.7px" width="14.4px" xmlns="http://www.w3.org/2000/svg">
  <g transform="matrix(1.0, 0.0, 0.0, 1.0, 2.7, 2.75)">
    <path d="M5.15 -0.5 Q4.0 -0.55 1.55 -1.65 L1.05 -2.35 11.0 -0.5 5.15 -0.5" fill="#699b98" fill-rule="evenodd" stroke="none"/>
    <path d="M1.05 -2.35 L1.55 -1.65 Q4.0 -0.55 5.15 -0.5 L11.0 -0.5 Q12.75 1.75 10.05 3.95 6.45 2.3 1.35 1.35 L1.3 0.8 -0.95 0.1 -1.35 -1.8 -0.4 -2.75 1.05 -2.35 M1.25 0.0 L1.3 0.8 1.25 0.0" fill="#b1d1d0" fill-rule="evenodd" stroke="none"/>
    <path d="M-1.35 -1.8 L-0.95 0.1 -2.7 -0.35 -1.35 -1.8" fill="#29536c" fill-rule="evenodd" stroke="none"/>
    <path d="M1.05 -2.35 L1.55 -1.65 Q4.0 -0.55 5.15 -0.5 M11.0 -0.5 L1.05 -2.35 -0.4 -2.75 -1.35 -1.8 -0.95 0.1 M1.3 0.8 L1.25 0.0 M1.3 0.8 L1.35 1.35 Q6.45 2.3 10.05 3.95 M-1.35 -1.8 L-2.7 -0.35" fill="none" stroke="#152c33" stroke-linecap="round" stroke-linejoin="round" stroke-width="0.05"/>
  </g>
</svg>
