<?xml version="1.0" encoding="UTF-8" standalone="no"?>
<svg xmlns:xlink="http://www.w3.org/1999/xlink" height="38.9px" width="17.6px" xmlns="http://www.w3.org/2000/svg">
  <g transform="matrix(1.0, 0.0, 0.0, 1.0, 0.3, 36.7)">
    <path d="M11.95 -20.55 Q14.6 -30.9 10.0 -36.7 13.1 -34.9 15.25 -30.8 20.0 -19.3 13.8 -8.7 10.2 -2.65 -0.3 2.2 L-0.3 1.65 Q6.05 -4.9 11.6 -19.25 L11.95 -20.55" fill="#675427" fill-rule="evenodd" stroke="none"/>
    <path d="M3.7 -9.45 Q7.0 -18.0 7.85 -28.1 7.9 -29.45 9.15 -28.4 L9.45 -28.15 10.2 -21.25 6.75 -12.05 3.7 -9.45" fill="#675427" fill-opacity="0.37254903" fill-rule="evenodd" stroke="none"/>
    <path d="M9.45 -28.15 Q11.8 -26.0 11.95 -20.55 L11.6 -19.25 Q6.05 -4.9 -0.3 1.65 L-0.3 -1.35 Q2.0 -5.2 3.7 -9.45 L6.75 -12.05 10.2 -21.25 9.45 -28.15" fill="#675427" fill-opacity="0.5529412" fill-rule="evenodd" stroke="none"/>
    <path d="M3.7 -9.45 Q7.0 -18.0 7.85 -28.1 7.9 -29.45 9.15 -28.4 L9.45 -28.15 Q11.8 -26.0 11.95 -20.55 14.6 -30.9 10.0 -36.7 13.1 -34.9 15.25 -30.8 20.0 -19.3 13.8 -8.7 10.2 -2.65 -0.3 2.2 L-0.3 1.65 -0.3 -1.35 Q2.0 -5.2 3.7 -9.45 M-0.3 1.65 Q6.05 -4.9 11.6 -19.25 L11.95 -20.55" fill="none" stroke="#40311a" stroke-linecap="round" stroke-linejoin="round" stroke-width="0.05"/>
  </g>
</svg>
