<?xml version="1.0" encoding="UTF-8" standalone="no"?>
<svg xmlns:xlink="http://www.w3.org/1999/xlink" height="21.05px" width="26.35px" xmlns="http://www.w3.org/2000/svg">
  <g transform="matrix(1.0, 0.0, 0.0, 1.0, 12.3, -1.05)">
    <path d="M0.2 15.2 L-3.55 17.55 -2.2 13.6 Q-0.85 14.3 0.2 15.2 M-3.55 12.95 L-5.5 16.25 -5.5 12.35 Q-4.55 12.5 -3.55 12.95" fill="#ffffff" fill-rule="evenodd" stroke="none"/>
    <path d="M0.25 12.05 L0.05 12.5 Q-0.15 12.7 -0.4 12.7 L-0.85 12.5 -1.05 12.05 -0.85 11.6 -0.4 11.4 Q-0.15 11.4 0.05 11.6 L0.25 12.05 M2.05 12.85 L2.25 13.3 2.05 13.7 Q1.9 13.9 1.65 13.9 1.4 13.9 1.2 13.7 L1.05 13.3 Q1.05 13.05 1.2 12.85 1.4 12.7 1.65 12.7 1.9 12.7 2.05 12.85 M-5.75 10.05 L-5.55 9.55 -5.05 9.35 -4.55 9.55 -4.35 10.05 -4.55 10.55 Q-4.75 10.75 -5.05 10.75 L-5.55 10.55 -5.75 10.05 M-2.55 10.4 L-2.1 10.6 -1.9 11.05 -2.1 11.5 Q-2.3 11.7 -2.55 11.7 L-3.0 11.5 -3.2 11.05 -3.0 10.6 -2.55 10.4" fill="#e7b461" fill-rule="evenodd" stroke="none"/>
    <path d="M0.2 15.2 L1.25 16.2 2.15 17.6 Q2.45 18.3 2.15 18.9 1.8 19.45 0.8 19.4 L-0.6 19.2 Q-1.0 19.1 -1.65 19.9 -5.8 20.55 -7.95 15.8 -7.35 15.45 -7.55 14.65 L-8.05 13.25 Q-8.35 12.6 -7.6 12.35 L-6.4 12.25 -5.5 12.35 -5.5 16.25 -3.55 12.95 Q-3.0 13.15 -2.35 13.5 L-2.2 13.6 -3.55 17.55 0.2 15.2" fill="#5b2b24" fill-rule="evenodd" stroke="none"/>
    <path d="M9.35 17.0 Q9.0 17.4 8.45 17.4 7.9 17.4 7.5 17.0 7.15 16.65 7.15 16.1 7.15 15.55 7.5 15.15 7.9 14.8 8.45 14.8 9.0 14.8 9.35 15.15 9.75 15.55 9.75 16.1 9.75 16.65 9.35 17.0 M-10.05 7.4 L-10.55 7.8 -11.1 7.4 -11.3 6.55 -11.1 5.65 -10.55 5.3 Q-10.25 5.3 -10.05 5.65 -9.8 6.05 -9.8 6.55 L-10.05 7.4" fill="#000000" fill-rule="evenodd" stroke="none"/>
    <path d="M-9.25 3.65 L-7.55 2.2 Q-6.5 1.5 -5.3 1.05 -5.15 2.55 -4.25 3.9 L-3.05 5.35 Q-0.8 7.65 2.5 8.25 L6.45 8.1 8.1 7.3 Q9.45 6.4 10.0 5.15 L10.15 5.3 12.05 7.6 Q13.8 10.3 13.95 11.6 L14.05 13.15 13.3 15.65 13.55 17.45 Q13.6 18.8 10.6 20.8 8.3 22.3 4.55 22.1 L4.3 22.05 3.5 20.2 2.15 17.6 1.25 16.2 0.2 15.2 Q-0.85 14.3 -2.2 13.6 L-2.35 13.5 Q-3.0 13.15 -3.55 12.95 -4.55 12.5 -5.5 12.35 L-6.4 12.25 -7.6 12.35 -8.85 12.35 -10.5 12.55 -10.55 12.45 Q-11.05 11.2 -11.15 9.9 -9.65 10.85 -7.6 9.65 -6.8 7.8 -7.4 4.35 -8.45 3.65 -9.25 3.65 M0.25 12.05 L0.05 11.6 Q-0.15 11.4 -0.4 11.4 L-0.85 11.6 -1.05 12.05 -0.85 12.5 -0.4 12.7 Q-0.15 12.7 0.05 12.5 L0.25 12.05 M2.05 12.85 Q1.9 12.7 1.65 12.7 1.4 12.7 1.2 12.85 1.05 13.05 1.05 13.3 L1.2 13.7 Q1.4 13.9 1.65 13.9 1.9 13.9 2.05 13.7 L2.25 13.3 2.05 12.85 M3.15 15.65 Q3.7 18.65 8.85 19.45 11.4 18.65 13.3 15.65 11.45 13.0 8.7 13.25 4.65 13.1 3.15 15.65 M-5.75 10.05 L-5.55 10.55 -5.05 10.75 Q-4.75 10.75 -4.55 10.55 L-4.35 10.05 -4.55 9.55 -5.05 9.35 -5.55 9.55 -5.75 10.05 M-2.55 10.4 L-3.0 10.6 -3.2 11.05 -3.0 11.5 -2.55 11.7 Q-2.3 11.7 -2.1 11.5 L-1.9 11.05 -2.1 10.6 -2.55 10.4" fill="#9d5e55" fill-rule="evenodd" stroke="none"/>
    <path d="M-1.55 20.8 Q-5.25 21.35 -6.95 18.95 -8.65 16.55 -8.4 16.05 L-7.95 15.8 Q-5.8 20.55 -1.65 19.9 -2.15 20.2 -1.55 20.8" fill="#865048" fill-rule="evenodd" stroke="none"/>
    <path d="M4.3 22.05 L1.8 21.75 -1.55 20.8 Q-2.15 20.2 -1.65 19.9 -1.0 19.1 -0.6 19.2 L0.8 19.4 Q1.8 19.45 2.15 18.9 2.45 18.3 2.15 17.6 L3.5 20.2 4.3 22.05 M-8.4 16.05 Q-9.8 14.35 -10.5 12.55 L-8.85 12.35 -7.6 12.35 Q-8.35 12.6 -8.05 13.25 L-7.55 14.65 Q-7.35 15.45 -7.95 15.8 L-8.4 16.05" fill="#91564f" fill-rule="evenodd" stroke="none"/>
    <path d="M-11.15 9.9 L-12.2 8.9 Q-12.75 6.05 -10.75 4.35 -10.15 3.6 -9.25 3.65 -8.45 3.65 -7.4 4.35 -6.8 7.8 -7.6 9.65 -9.65 10.85 -11.15 9.9 M9.35 17.0 Q9.75 16.65 9.75 16.1 9.75 15.55 9.35 15.15 9.0 14.8 8.45 14.8 7.9 14.8 7.5 15.15 7.15 15.55 7.15 16.1 7.15 16.65 7.5 17.0 7.9 17.4 8.45 17.4 9.0 17.4 9.35 17.0 M3.15 15.65 Q4.65 13.1 8.7 13.25 11.45 13.0 13.3 15.65 11.4 18.65 8.85 19.45 3.7 18.65 3.15 15.65 M-10.05 7.4 L-9.8 6.55 Q-9.8 6.05 -10.05 5.65 -10.25 5.3 -10.55 5.3 L-11.1 5.65 -11.3 6.55 -11.1 7.4 -10.55 7.8 -10.05 7.4" fill="#f9af66" fill-rule="evenodd" stroke="none"/>
    <path d="M-9.25 3.65 L-7.55 2.2 Q-6.5 1.5 -5.3 1.05 -5.15 2.55 -4.25 3.9 L-3.05 5.35 Q-0.8 7.65 2.5 8.25 L6.45 8.1 8.1 7.3 Q9.45 6.4 10.0 5.15 L10.15 5.3 12.05 7.6 Q13.8 10.3 13.95 11.6 L14.05 13.15 13.3 15.65 13.55 17.45 Q13.6 18.8 10.6 20.8 8.3 22.3 4.55 22.1 M4.3 22.05 L1.8 21.75 -1.55 20.8 Q-5.25 21.35 -6.95 18.95 -8.65 16.55 -8.4 16.05 -9.8 14.35 -10.5 12.55 L-10.55 12.45 Q-11.05 11.2 -11.15 9.9 L-12.2 8.9 Q-12.75 6.05 -10.75 4.35 -10.15 3.6 -9.25 3.65 -8.45 3.65 -7.4 4.35 -6.8 7.8 -7.6 9.65 -9.65 10.85 -11.15 9.9 M2.15 17.6 L1.25 16.2 0.2 15.2 Q-0.85 14.3 -2.2 13.6 L-2.35 13.5 Q-3.0 13.15 -3.55 12.95 -4.55 12.5 -5.5 12.35 L-6.4 12.25 -7.6 12.35 Q-8.35 12.6 -8.05 13.25 L-7.55 14.65 M-0.6 19.2 L0.8 19.4 Q1.8 19.45 2.15 18.9 2.45 18.3 2.15 17.6" fill="none" stroke="#6c322b" stroke-linecap="round" stroke-linejoin="round" stroke-width="0.05"/>
    <path d="M-7.55 14.65 Q-7.35 15.45 -7.95 15.8 -5.8 20.55 -1.65 19.9 -1.0 19.1 -0.6 19.2 M2.15 17.6 L3.5 20.2 M3.15 15.65 Q3.7 18.65 8.85 19.45 11.4 18.65 13.3 15.65 11.45 13.0 8.7 13.25 4.65 13.1 3.15 15.65 M-8.85 12.35 L-7.6 12.35 M-10.05 7.4 L-10.55 7.8 -11.1 7.4 -11.3 6.55 -11.1 5.65 -10.55 5.3 Q-10.25 5.3 -10.05 5.65 -9.8 6.05 -9.8 6.55 L-10.05 7.4 M-7.95 15.8 L-8.4 16.05 M-1.55 20.8 Q-2.15 20.2 -1.65 19.9" fill="none" stroke="#6c322b" stroke-linecap="round" stroke-linejoin="round" stroke-width="0.05"/>
  </g>
</svg>
