<?xml version="1.0" encoding="UTF-8" standalone="no"?>
<svg xmlns:xlink="http://www.w3.org/1999/xlink" height="8.5px" width="6.15px" xmlns="http://www.w3.org/2000/svg">
  <g transform="matrix(1.0, 0.0, 0.0, 1.0, 5.85, 6.75)">
    <path d="M-4.05 -6.7 Q-4.25 -6.0 -2.5 -5.85 -0.4 -5.7 -0.45 -6.65 L-0.25 -5.65 -0.2 -5.05 -0.2 -5.0 0.3 -1.6 -0.4 -1.6 Q-0.05 -3.85 -0.2 -5.0 -0.05 -3.85 -0.4 -1.6 -2.8 -5.45 -5.1 -3.55 L-4.05 -6.7" fill="#24485b" fill-rule="evenodd" stroke="none"/>
    <path d="M-0.4 -1.6 Q-0.7 -0.35 -1.4 0.8 -2.55 1.65 -4.6 1.75 -5.95 1.15 -5.85 -0.05 L-5.1 -3.55 Q-2.8 -5.45 -0.4 -1.6" fill="#25353a" fill-rule="evenodd" stroke="none"/>
    <path d="M-4.05 -6.75 L-4.05 -6.7 Q-4.25 -6.0 -2.5 -5.85 -0.4 -5.7 -0.45 -6.65 L-0.25 -5.65 -0.2 -5.05 -0.2 -5.0 0.3 -1.6 -0.4 -1.6 Q-0.7 -0.35 -1.4 0.8 -2.55 1.65 -4.6 1.75 -5.95 1.15 -5.85 -0.05 L-5.1 -3.55 -4.05 -6.7 M-0.4 -1.6 Q-0.05 -3.85 -0.2 -5.0 M-5.1 -3.55 Q-2.8 -5.45 -0.4 -1.6" fill="none" stroke="#346c81" stroke-linecap="round" stroke-linejoin="round" stroke-width="0.05"/>
  </g>
</svg>
