<?xml version="1.0" encoding="UTF-8" standalone="no"?>
<svg xmlns:xlink="http://www.w3.org/1999/xlink" height="90.55px" width="20.0px" xmlns="http://www.w3.org/2000/svg">
  <g transform="matrix(1.0, 0.0, 0.0, 1.0, 5.2, 7.9)">
    <path d="M6.6 -7.1 L11.15 -7.9 Q11.7 29.8 14.8 82.65 13.9 82.05 13.1 81.8 L10.85 81.85 8.15 82.2 Q6.15 82.05 5.05 80.85 3.4 79.8 2.05 79.65 L0.15 79.9 Q-2.5 81.55 -5.2 79.9 L-5.2 -6.7 -3.15 -6.55 -1.95 2.15 -1.95 -6.5 3.6 -6.75 7.7 12.45 6.6 -7.1 M7.95 13.55 L7.7 12.45 7.95 13.55 M10.65 69.95 L10.85 81.85 10.65 69.95 M5.05 80.85 L5.4 75.85 5.05 80.85 M-1.7 4.05 L-1.95 2.15 -1.7 4.05 M-0.1 73.5 L0.15 79.9 -0.1 73.5" fill="#3f455d" fill-rule="evenodd" stroke="none"/>
    <path d="M-3.15 -6.55 L-1.95 -6.5 -1.95 2.15 -3.15 -6.55 M3.6 -6.75 L6.6 -7.1 7.7 12.45 3.6 -6.75" fill="#353c4f" fill-rule="evenodd" stroke="none"/>
    <path d="M6.6 -7.1 L11.15 -7.9 Q11.7 29.8 14.8 82.65 13.9 82.05 13.1 81.8 L10.85 81.85 8.15 82.2 Q6.15 82.05 5.05 80.85 3.4 79.8 2.05 79.65 L0.15 79.9 Q-2.5 81.55 -5.2 79.9 L-5.2 -6.7 -3.15 -6.55 -1.95 -6.5 3.6 -6.75 6.6 -7.1 M5.4 75.85 L5.05 80.85 M10.85 81.85 L10.65 69.95 M0.15 79.9 L-0.1 73.5" fill="none" stroke="#301820" stroke-linecap="round" stroke-linejoin="round" stroke-width="0.05"/>
    <path d="M6.6 -7.1 L7.7 12.45 7.95 13.55 M-1.95 2.15 L-1.7 4.05 M-1.95 -6.5 L-1.95 2.15" fill="none" stroke="#301820" stroke-linecap="round" stroke-linejoin="round" stroke-width="0.05"/>
  </g>
</svg>
