<?xml version="1.0" encoding="UTF-8" standalone="no"?>
<svg xmlns:xlink="http://www.w3.org/1999/xlink" height="14.65px" width="5.25px" xmlns="http://www.w3.org/2000/svg">
  <g transform="matrix(1.0, 0.0, 0.0, 1.0, 3.15, 0.65)">
    <path d="M1.4 10.5 L1.2 12.3 1.05 13.8 Q0.6 14.25 -0.2 13.55 L-0.35 12.7 -0.55 11.55 -0.85 9.85 -1.8 6.05 -2.9 4.7 Q-3.65 3.8 -2.35 1.3 L-1.55 0.15 -1.4 0.0 Q-0.55 2.55 2.1 1.45 L2.1 1.65 2.05 3.8 1.75 6.9 1.45 10.3 1.4 10.5 M-0.35 12.7 Q0.5 13.05 1.2 12.3 0.5 13.05 -0.35 12.7" fill="#b4c6c5" fill-rule="evenodd" stroke="none"/>
    <path d="M-1.4 0.0 Q-0.25 -1.0 1.4 -0.4 1.95 0.15 2.1 1.45 -0.55 2.55 -1.4 0.0" fill="#6e8289" fill-rule="evenodd" stroke="none"/>
    <path d="M1.4 10.5 L1.2 12.3 1.05 13.8 M-0.2 13.55 L-0.35 12.7 -0.55 11.55 -0.85 9.85 -1.8 6.05 -2.9 4.7 Q-3.65 3.8 -2.35 1.3 L-1.55 0.15 M-1.4 0.0 Q-0.25 -1.0 1.4 -0.4 1.95 0.15 2.1 1.45 M2.1 1.65 L2.05 3.8 1.75 6.9 1.45 10.3" fill="none" stroke="#465457" stroke-linecap="round" stroke-linejoin="round" stroke-width="0.05"/>
    <path d="M-1.55 0.15 L-1.4 0.0 Q-0.55 2.55 2.1 1.45 L2.1 1.65 M1.45 10.3 L1.4 10.5 M1.2 12.3 Q0.5 13.05 -0.35 12.7" fill="none" stroke="#465457" stroke-linecap="round" stroke-linejoin="round" stroke-width="0.05"/>
  </g>
</svg>
