<?xml version="1.0" encoding="UTF-8" standalone="no"?>
<svg xmlns:xlink="http://www.w3.org/1999/xlink" height="28.7px" width="8.95px" xmlns="http://www.w3.org/2000/svg">
  <g transform="matrix(1.0, 0.0, 0.0, 1.0, 5.05, 29.2)">
    <path d="M-2.2 -21.7 L-2.2 -21.6 -2.3 -21.65 -2.2 -21.7" fill="#8786ae" fill-rule="evenodd" stroke="none"/>
    <path d="M-2.35 -24.95 L-2.2 -21.7 -2.3 -21.65 -2.2 -21.6 -2.0 -16.35 -1.8 -12.5 -1.55 -8.65 -1.35 -5.45 -1.15 -2.9 -3.65 -4.2 Q-2.95 -5.7 -2.85 -7.35 L-2.65 -11.05 -2.75 -11.9 -2.9 -12.75 Q-3.25 -14.75 -3.8 -16.0 L-4.1 -16.7 Q-5.45 -20.05 -4.9 -23.0 L-4.6 -24.55 -4.05 -27.35 -3.95 -27.75 -2.7 -29.15 -2.5 -29.2 -2.35 -24.95 Q-3.65 -25.7 -4.05 -27.35 -3.65 -25.7 -2.35 -24.95 M-4.6 -24.55 Q-3.55 -22.4 -2.3 -21.65 -3.55 -22.4 -4.6 -24.55" fill="#b4c6c5" fill-rule="evenodd" stroke="none"/>
    <path d="M0.5 -27.95 L1.05 -27.15 1.5 -25.8 Q0.1 -22.8 -2.2 -21.7 0.1 -22.8 1.5 -25.8 2.15 -23.6 2.15 -21.55 L2.15 -21.25 2.2 -21.3 3.9 -14.9 1.6 -16.75 1.4 -15.85 1.3 -15.4 0.95 -14.35 2.05 -10.5 0.3 -11.8 0.25 -10.45 0.25 -10.2 0.3 -6.8 Q0.35 -5.15 0.9 -3.5 L-1.1 -2.8 -1.15 -2.9 -1.35 -5.45 -1.55 -8.65 -1.8 -12.5 -2.0 -16.35 -2.2 -21.6 -2.2 -21.7 -2.35 -24.95 Q-0.65 -26.0 0.5 -27.95 -0.65 -26.0 -2.35 -24.95 L-2.5 -29.2 Q-0.65 -29.35 0.5 -27.95 M1.65 -16.95 L1.7 -17.2 2.15 -21.25 1.7 -17.2 1.65 -16.95 1.6 -16.75 1.65 -16.95 M0.95 -14.35 L0.35 -12.05 0.35 -11.95 0.35 -12.05 0.95 -14.35 M0.35 -11.95 L0.3 -11.8 0.35 -11.95" fill="#6e8289" fill-rule="evenodd" stroke="none"/>
    <path d="M0.9 -3.5 L1.4 -2.05 -0.85 -0.5 -1.1 -2.8 0.9 -3.5" fill="#5d5e42" fill-rule="evenodd" stroke="none"/>
    <path d="M-0.85 -0.5 Q-3.25 -1.4 -3.5 -1.6 L-4.55 -2.75 -3.65 -4.2 -1.15 -2.9 -1.1 -2.8 -0.85 -0.5" fill="#7e7e5a" fill-rule="evenodd" stroke="none"/>
    <path d="M1.5 -25.8 L1.05 -27.15 0.5 -27.95 Q-0.65 -29.35 -2.5 -29.2 L-2.7 -29.15 -3.95 -27.75 -4.05 -27.35 -4.6 -24.55 -4.9 -23.0 Q-5.45 -20.05 -4.1 -16.7 L-3.8 -16.0 Q-3.25 -14.75 -2.9 -12.75 L-2.75 -11.9 -2.65 -11.05 -2.85 -7.35 Q-2.95 -5.7 -3.65 -4.2 M1.5 -25.8 Q2.15 -23.6 2.15 -21.55 L2.15 -21.25 1.7 -17.2 1.65 -16.95 M1.6 -16.75 L1.4 -15.85 1.3 -15.4 0.95 -14.35 0.35 -12.05 0.35 -11.95 M0.3 -11.8 L0.25 -10.45 0.25 -10.2 0.3 -6.8 Q0.35 -5.15 0.9 -3.5" fill="none" stroke="#465457" stroke-linecap="round" stroke-linejoin="round" stroke-width="0.05"/>
    <path d="M0.5 -27.95 Q-0.65 -26.0 -2.35 -24.95 -3.65 -25.7 -4.05 -27.35 M-2.2 -21.7 Q0.1 -22.8 1.5 -25.8 M2.15 -21.55 L2.2 -21.3 3.9 -14.9 1.6 -16.75 1.65 -16.95 M0.95 -14.35 L2.05 -10.5 0.3 -11.8 0.35 -11.95 M-2.3 -21.65 Q-3.55 -22.4 -4.6 -24.55 M-2.3 -21.65 L-2.2 -21.6" fill="none" stroke="#465457" stroke-linecap="round" stroke-linejoin="round" stroke-width="0.05"/>
    <path d="M0.9 -3.5 L1.4 -2.05 -0.85 -0.5 Q-3.25 -1.4 -3.5 -1.6 L-4.55 -2.75 -3.65 -4.2" fill="none" stroke="#636247" stroke-linecap="round" stroke-linejoin="round" stroke-width="0.05"/>
  </g>
</svg>
