<?xml version="1.0" encoding="UTF-8" standalone="no"?>
<svg xmlns:xlink="http://www.w3.org/1999/xlink" height="14.7px" width="22.2px" xmlns="http://www.w3.org/2000/svg">
  <g transform="matrix(1.0, 0.0, 0.0, 1.0, 4.1, 8.15)">
    <path d="M7.55 2.1 L7.45 2.2 7.45 2.05 7.55 2.1" fill="#ffd0ae" fill-rule="evenodd" stroke="none"/>
    <path d="M-1.4 2.8 L-1.35 2.85 -0.75 3.25 Q-1.4 3.45 -1.4 2.8" fill="#a3bcb6" fill-rule="evenodd" stroke="none"/>
    <path d="M-2.9 -0.9 L-2.95 -1.75 -2.85 -2.95 Q-2.5 -4.65 -1.3 -5.95 0.3 -7.8 2.7 -7.8 5.1 -7.8 6.8 -5.95 L7.3 -5.35 Q8.1 -3.25 7.4 -1.8 L7.35 -1.7 Q3.85 0.05 -0.05 -0.1 L-0.8 0.45 -1.5 -0.45 -1.8 0.15 -1.95 -0.45 -2.9 -0.9 M-0.25 6.2 L-0.85 4.95 -1.2 4.25 -2.15 2.35 -1.2 1.4 -1.2 2.0 -1.4 2.8 Q-1.4 3.45 -0.75 3.25 L-1.35 2.85 Q-0.8 2.35 -0.65 1.2 0.35 2.2 0.7 3.2 L4.75 3.35 Q1.6 6.35 -0.25 6.2 M5.75 1.1 L5.85 0.85 Q6.1 0.4 6.6 0.3 7.1 0.2 7.35 0.7 L7.5 1.75 7.45 2.05 Q7.3 1.5 6.7 1.25 L6.45 1.55 6.35 1.7 Q5.8 1.8 5.7 1.45 L5.7 1.3 5.7 1.25 5.75 1.1 M0.6 4.55 L-0.45 4.35 0.6 4.55" fill="#dbe6e2" fill-rule="evenodd" stroke="none"/>
    <path d="M7.35 -1.7 L7.4 -1.8 Q8.1 -3.25 7.3 -5.35 8.1 -4.3 8.35 -2.95 L8.4 -2.75 8.5 -1.5 Q8.5 0.45 7.55 2.1 L7.45 2.05 7.5 1.75 7.35 0.7 Q7.1 0.2 6.6 0.3 6.1 0.4 5.85 0.85 L5.75 1.1 5.7 1.25 5.7 1.3 5.7 1.45 Q5.8 1.8 6.35 1.7 L6.45 1.55 6.7 1.25 Q7.3 1.5 7.45 2.05 L7.45 2.2 Q7.45 2.75 7.1 3.15 6.75 3.55 6.25 3.55 L6.05 3.5 5.95 3.4 5.45 2.95 Q1.45 7.6 -0.25 6.2 1.6 6.35 4.75 3.35 L4.9 3.2 4.95 3.1 4.05 0.55 Q6.5 -0.25 7.35 -1.7 M6.25 2.3 L6.25 2.15 6.35 1.7 6.25 2.15 6.25 2.3 6.7 2.8 6.25 2.3 6.25 3.0 6.25 2.3" fill="#c6d7d2" fill-rule="evenodd" stroke="none"/>
    <path d="M-2.9 -0.9 L-1.95 -0.45 -1.8 0.15 -1.5 -0.45 -0.8 0.45 -0.05 -0.1 Q3.85 0.05 7.35 -1.7 6.5 -0.25 4.05 0.55 L4.95 3.1 4.9 3.2 4.75 3.35 0.7 3.2 Q0.35 2.2 -0.65 1.2 -0.8 2.35 -1.35 2.85 L-1.4 2.8 -1.2 2.0 -1.2 1.4 -2.15 2.35 -2.45 1.45 -2.55 0.95 -2.2 1.35 -1.75 1.55 -1.4 1.45 -1.5 0.95 -1.9 0.7 -2.25 0.45 Q-2.45 0.3 -2.55 0.55 L-2.6 0.7 -2.85 -0.4 -2.9 -0.9 M2.55 1.55 L2.95 1.15 2.5 0.8 1.7 0.7 0.85 0.95 0.15 1.45 Q0.3 1.65 0.7 1.75 L1.6 1.85 2.55 1.55" fill="#893238" fill-rule="evenodd" stroke="none"/>
    <path d="M-2.55 0.95 L-2.6 0.7 -2.55 0.55 Q-2.45 0.3 -2.25 0.45 L-1.9 0.7 -1.5 0.95 -1.4 1.45 -1.75 1.55 -2.2 1.35 -2.55 0.95 M2.55 1.55 L1.6 1.85 0.7 1.75 Q0.3 1.65 0.15 1.45 L0.85 0.95 1.7 0.7 2.5 0.8 2.95 1.15 2.55 1.55" fill="#c1b742" fill-rule="evenodd" stroke="none"/>
    <path d="M7.3 -5.35 L6.8 -5.95 Q5.1 -7.8 2.7 -7.8 0.3 -7.8 -1.3 -5.95 -2.5 -4.65 -2.85 -2.95 L-2.95 -1.75 -2.9 -0.9 M7.35 -1.7 L7.4 -1.8 M7.3 -5.35 Q8.1 -4.3 8.35 -2.95 L8.4 -2.75 8.5 -1.5 Q8.5 0.45 7.55 2.1 L7.45 2.2 Q7.45 2.75 7.1 3.15 6.75 3.55 6.25 3.55 L6.05 3.5 5.95 3.4 5.45 2.95 Q1.45 7.6 -0.25 6.2 L-0.85 4.95 -1.2 4.25 -2.15 2.35 M-2.55 0.95 L-2.6 0.7 M7.45 2.05 L7.5 1.75 7.35 0.7 Q7.1 0.2 6.6 0.3 6.1 0.4 5.85 0.85 L5.75 1.1 M6.35 1.7 L6.45 1.55 6.7 1.25 M6.7 2.8 L6.25 2.3 6.25 3.0 M6.35 1.7 L6.25 2.15 6.25 2.3 M7.45 2.05 L7.45 2.2 M-0.75 3.25 Q-1.4 3.45 -1.4 2.8 M-0.45 4.35 L0.6 4.55" fill="none" stroke="#86a89b" stroke-linecap="round" stroke-linejoin="round" stroke-width="0.05"/>
    <path d="M-0.35 -1.65 L-0.7 -1.3 -1.4 -1.45 -1.55 -2.0 -1.35 -2.3 -0.6 -2.25 -0.35 -1.65 M-1.6 -0.7 L-2.0 -1.3 -1.7 -1.85 -1.5 -1.3 Q-1.8 -1.15 -1.6 -0.7 M-0.55 -1.1 L-0.15 -1.45 0.0 -1.0 -0.5 -0.5 Q-0.4 -0.9 -0.55 -1.1" fill="#d3d301" fill-rule="evenodd" stroke="none"/>
    <path d="M6.9 -7.4 L8.5 -7.8 Q10.15 -7.9 11.4 -7.0 12.7 -6.05 13.4 -4.75 14.1 -3.4 14.25 -1.8 14.35 -0.9 14.6 -0.1 15.2 1.35 16.55 2.1 17.15 2.5 18.1 2.5 16.5 2.55 15.1 1.9 13.85 1.25 13.15 -0.05 11.35 -6.65 8.1 -7.35 L6.9 -7.4" fill="#dcdeeb" fill-rule="evenodd" stroke="none"/>
    <path d="M6.9 -7.4 L8.1 -7.35 Q11.35 -6.65 13.15 -0.05 13.85 1.25 15.1 1.9 16.5 2.55 18.1 2.5 13.9 3.8 12.1 -0.15 10.9 -2.9 9.0 -4.7 6.25 -5.9 6.9 -7.4" fill="#b6bdd3" fill-rule="evenodd" stroke="none"/>
    <path d="M18.1 2.5 Q17.15 2.5 16.55 2.1 15.2 1.35 14.6 -0.1 14.35 -0.9 14.25 -1.8 14.1 -3.4 13.4 -4.75 12.7 -6.05 11.4 -7.0 10.15 -7.9 8.5 -7.8 L6.9 -7.4 Q6.25 -5.9 9.0 -4.7 10.9 -2.9 12.1 -0.15 13.9 3.8 18.1 2.5 Z" fill="none" stroke="#7583ae" stroke-linecap="round" stroke-linejoin="round" stroke-width="0.05"/>
    <path d="M-2.25 4.85 Q-3.75 2.15 -4.05 -1.8 -4.3 -5.7 -2.8 -7.4 L-1.95 -7.2 Q-1.45 -7.6 -0.85 -7.8 L2.45 -8.15 3.6 -8.0 5.1 -8.05 Q5.8 -8.1 6.8 -7.15 L7.95 -5.6 8.55 -4.6 9.35 -2.6 9.4 -2.2 9.4 -1.25 Q8.85 0.15 6.4 0.05 L6.35 -1.05 5.95 -3.2 4.95 -5.65 4.2 -6.65 3.7 -7.1 4.2 -6.65 4.95 -5.65 5.95 -3.2 6.35 -1.05 6.4 0.05 6.45 0.3 6.45 1.25 Q6.1 4.3 3.25 6.5 5.9 2.25 3.7 -2.45 4.1 -0.95 4.1 0.35 L3.6 1.55 3.1 2.3 Q3.8 0.65 2.1 -3.45 1.75 -4.6 0.75 -4.7 0.15 -4.7 -0.2 -3.4 -0.5 -5.05 -1.05 -4.65 -1.35 -4.5 -1.65 -3.3 L-1.7 -3.25 Q-2.95 -1.9 -2.3 1.65 L-2.6 1.2 Q-3.1 0.3 -3.25 -1.0 -3.0 1.75 -2.25 4.85 M-3.3 -3.95 L-3.35 -1.95 -3.3 -1.2 -3.25 -1.0 -3.3 -1.2 -3.35 -1.95 -3.3 -3.95 M-1.75 -4.25 L-1.7 -3.25 -1.75 -4.25 M-0.75 -6.7 L-1.95 -7.2 -0.75 -6.7 M4.95 -5.65 L7.95 -5.6 4.95 -5.65 M9.35 -2.6 Q8.65 -1.0 6.35 -1.05 8.65 -1.0 9.35 -2.6" fill="#dcdeeb" fill-rule="evenodd" stroke="none"/>
    <path d="M9.4 -1.25 Q9.6 0.5 7.35 2.9 8.0 0.15 6.45 0.3 L6.4 0.05 Q8.85 0.15 9.4 -1.25 M3.2 6.5 Q3.75 4.3 3.6 1.55 L4.1 0.35 Q4.1 -0.95 3.7 -2.45 5.9 2.25 3.25 6.5 L3.2 6.5 M2.1 -3.45 L-0.2 -3.4 -1.65 -3.3 Q-1.35 -4.5 -1.05 -4.65 -0.5 -5.05 -0.2 -3.4 0.15 -4.7 0.75 -4.7 1.75 -4.6 2.1 -3.45 M-2.6 1.2 L-2.25 4.85 Q-3.0 1.75 -3.25 -1.0 -3.1 0.3 -2.6 1.2" fill="#b6bdd3" fill-rule="evenodd" stroke="none"/>
    <path d="M-2.25 4.85 Q-3.75 2.15 -4.05 -1.8 -4.3 -5.7 -2.8 -7.4 L-1.95 -7.2 Q-1.45 -7.6 -0.85 -7.8 L2.45 -8.15 3.6 -8.0 5.1 -8.05 Q5.8 -8.1 6.8 -7.15 L7.95 -5.6 8.55 -4.6 9.35 -2.6 9.4 -2.2 9.4 -1.25 Q9.6 0.5 7.35 2.9 8.0 0.15 6.45 0.3 L6.45 1.25 Q6.1 4.3 3.25 6.5 L3.2 6.5 M3.6 1.55 L3.1 2.3 Q3.8 0.65 2.1 -3.45 M-2.3 1.65 L-2.6 1.2 Q-3.1 0.3 -3.25 -1.0 L-3.3 -1.2 -3.35 -1.95 -3.3 -3.95 M6.4 0.05 L6.35 -1.05 5.95 -3.2 4.95 -5.65 4.2 -6.65 3.7 -7.1 M0.75 -4.7 Q0.15 -4.7 -0.2 -3.4 -0.5 -5.05 -1.05 -4.65 M6.35 -1.05 Q8.65 -1.0 9.35 -2.6 M7.95 -5.6 L4.95 -5.65 M-1.95 -7.2 L-0.75 -6.7 M-1.7 -3.25 L-1.75 -4.25 M6.4 0.05 L6.45 0.3 M3.7 -2.45 Q4.1 -0.95 4.1 0.35 L3.6 1.55" fill="none" stroke="#7583ae" stroke-linecap="round" stroke-linejoin="round" stroke-width="0.05"/>
    <path d="M3.25 6.5 L3.2 6.55 3.2 6.5 M2.1 -3.45 L-0.2 -3.4 -1.65 -3.3" fill="none" stroke="#7583ae" stroke-linecap="round" stroke-linejoin="round" stroke-width="0.05"/>
  </g>
</svg>
