<?xml version="1.0" encoding="UTF-8" standalone="no"?>
<svg xmlns:xlink="http://www.w3.org/1999/xlink" height="31.4px" width="49.5px" xmlns="http://www.w3.org/2000/svg">
  <g transform="matrix(1.0, 0.0, 0.0, 1.0, 27.05, 12.75)">
    <path d="M20.85 0.8 Q20.35 3.35 20.95 5.75 L-0.2 16.15 0.7 10.6 20.85 0.8" fill="#ffffff" fill-rule="evenodd" stroke="none"/>
    <path d="M-25.65 -3.55 L-1.75 -12.0 21.7 0.4 20.85 0.8 0.7 10.6 -25.65 -3.35 -25.65 -3.55" fill="url(#gradient0)" fill-rule="evenodd" stroke="none"/>
    <path d="M20.95 5.75 L21.65 5.65 Q21.7 6.9 21.4 7.05 10.4 12.45 -0.55 17.9 L-26.3 1.9 -25.65 -3.35 0.7 10.6 -0.2 16.15 20.95 5.75" fill="url(#gradient1)" fill-rule="evenodd" stroke="none"/>
    <path d="M-25.65 -3.35 L-25.65 -3.55" fill="none" stroke="#795a40" stroke-linecap="round" stroke-linejoin="round" stroke-width="1.0"/>
    <path d="M0.7 10.6 L20.85 0.8 M0.7 10.6 L-0.2 16.15 20.95 5.75" fill="none" stroke="#795a40" stroke-linecap="round" stroke-linejoin="round" stroke-width="0.5"/>
    <path d="M-25.65 -3.55 L-1.75 -12.0 21.7 0.4 20.85 0.8 M20.95 5.75 L21.65 5.65 Q21.7 6.9 21.4 7.05 10.4 12.45 -0.55 17.9 L-26.3 1.9 -25.65 -3.35 Z" fill="none" stroke="#333333" stroke-linecap="round" stroke-linejoin="round" stroke-width="1.5"/>
  </g>
  <defs>
    <linearGradient gradientTransform="matrix(0.0198, 0.0296, -0.0114, 0.0076, -2.05, -0.8)" gradientUnits="userSpaceOnUse" id="gradient0" spreadMethod="pad" x1="-819.2" x2="819.2">
      <stop offset="0.0" stop-color="#d89f7f"/>
      <stop offset="1.0" stop-color="#894b2c"/>
    </linearGradient>
    <linearGradient gradientTransform="matrix(-0.0265, -0.0095, 0.0044, -0.0122, -5.75, 6.5)" gradientUnits="userSpaceOnUse" id="gradient1" spreadMethod="pad" x1="-819.2" x2="819.2">
      <stop offset="0.0" stop-color="#d89f7f"/>
      <stop offset="1.0" stop-color="#894b2c"/>
    </linearGradient>
  </defs>
</svg>
