<?xml version="1.0" encoding="UTF-8" standalone="no"?>
<svg xmlns:xlink="http://www.w3.org/1999/xlink" height="10.35px" width="10.5px" xmlns="http://www.w3.org/2000/svg">
  <g transform="matrix(1.0, 0.0, 0.0, 1.0, 7.1, 4.75)">
    <path d="M-0.95 -4.7 L-1.8 -4.75 -0.95 -4.75 -0.95 -4.7" fill="#9ecffe" fill-rule="evenodd" stroke="none"/>
    <path d="M-0.9 -4.75 L-0.95 -4.7 -0.95 -4.75 -0.9 -4.75" fill="#e2cfcb" fill-rule="evenodd" stroke="none"/>
    <path d="M-0.9 -4.75 Q0.65 -4.65 2.5 -3.25 3.7 0.4 3.3 1.95 L2.85 3.5 Q0.9 6.8 -3.15 4.95 L-3.7 4.55 Q-4.85 3.55 -7.1 -0.65 -7.1 -2.3 -5.65 -3.3 L-5.4 -3.6 -3.3 -4.55 -2.2 -4.7 -1.8 -4.75 -0.95 -4.7 -0.9 -4.75 M-3.05 3.85 Q-3.0 3.0 -2.35 2.4 -1.85 1.95 -0.95 1.7 L0.65 1.6 1.9 1.95 0.65 1.6 -0.95 1.7 Q-1.85 1.95 -2.35 2.4 -3.0 3.0 -3.05 3.85" fill="#553817" fill-rule="evenodd" stroke="none"/>
    <path d="M-1.8 -4.75 L-2.2 -4.7 -3.3 -4.55 -5.4 -3.6 -5.65 -3.3 Q-7.1 -2.3 -7.1 -0.65 -4.85 3.55 -3.7 4.55 L-3.15 4.95 Q0.9 6.8 2.85 3.5 L3.3 1.95 Q3.7 0.4 2.5 -3.25 0.65 -4.65 -0.9 -4.75 L-0.95 -4.75 -1.8 -4.75 M1.9 1.95 L0.65 1.6 -0.95 1.7 Q-1.85 1.95 -2.35 2.4 -3.0 3.0 -3.05 3.85" fill="none" stroke="#382310" stroke-linecap="round" stroke-linejoin="round" stroke-width="0.05"/>
  </g>
</svg>
