<?xml version="1.0" encoding="UTF-8" standalone="no"?>
<svg xmlns:xlink="http://www.w3.org/1999/xlink" height="17.6px" width="13.25px" xmlns="http://www.w3.org/2000/svg">
  <g transform="matrix(1.0, 0.0, 0.0, 1.0, 8.5, 10.6)">
    <path d="M-7.75 -2.65 L-3.25 -1.05 Q-2.1 -0.85 -1.85 0.6 L-1.8 1.45 -3.45 1.8 -6.75 0.6 -7.95 -0.85 -8.0 -1.7 -7.75 -2.65" fill="#ffffff" fill-rule="evenodd" stroke="none"/>
    <path d="M-7.65 -1.85 L-7.3 -2.15 -6.9 -1.85 -6.7 -1.15 -6.8 -0.4 -7.15 -0.1 -7.55 -0.4 -7.75 -1.15 -7.65 -1.85 M-6.9 -1.4 L-6.9 -1.55 -7.0 -1.8 -7.2 -1.9 -7.4 -1.8 -7.45 -1.65 -7.5 -1.6 -7.55 -1.15 -7.45 -0.7 -7.2 -0.5 -6.95 -0.7 -6.85 -1.15 -6.9 -1.4 M-3.0 -0.05 L-3.0 -0.25 -3.1 -0.5 -3.4 -0.6 -3.6 -0.5 -3.7 -0.4 -3.8 -0.3 -3.85 0.2 -3.7 0.7 -3.35 0.9 -3.05 0.7 -2.95 0.2 -3.0 -0.05 M-3.0 -0.6 Q-2.8 -0.3 -2.75 0.2 L-2.85 1.05 -3.35 1.35 Q-3.65 1.35 -3.85 1.05 L-4.1 0.2 -3.95 -0.6 -3.5 -0.95 -3.0 -0.6" fill="#0099ff" fill-rule="evenodd" stroke="none"/>
    <path d="M-7.45 -1.65 L-7.4 -1.8 -7.2 -1.9 -7.0 -1.8 -6.9 -1.55 -6.9 -1.4 -6.95 -1.35 -6.95 -1.3 -7.15 -1.2 -7.35 -1.3 -7.45 -1.55 -7.45 -1.65 M-3.7 -0.4 L-3.6 -0.5 -3.4 -0.6 -3.1 -0.5 -3.0 -0.25 -3.0 -0.05 -3.1 0.05 -3.35 0.15 -3.6 0.05 -3.75 -0.25 -3.7 -0.4" fill="#ffffff" fill-rule="evenodd" stroke="none"/>
    <path d="M-7.45 -1.65 L-7.45 -1.55 -7.35 -1.3 -7.15 -1.2 -6.95 -1.3 -6.95 -1.35 -6.9 -1.4 -6.85 -1.15 -6.95 -0.7 -7.2 -0.5 -7.45 -0.7 -7.55 -1.15 -7.5 -1.6 -7.45 -1.65 M-3.7 -0.4 L-3.75 -0.25 -3.6 0.05 -3.35 0.15 -3.1 0.05 -3.0 -0.05 -2.95 0.2 -3.05 0.7 -3.35 0.9 -3.7 0.7 -3.85 0.2 -3.8 -0.3 -3.7 -0.4" fill="#000000" fill-rule="evenodd" stroke="none"/>
    <path d="M-4.85 7.0 L-6.2 6.3 -7.25 4.25 -8.5 -1.45 -8.5 -5.0 Q-8.2 -7.0 -6.85 -8.5 -5.0 -10.6 -2.2 -10.6 0.55 -10.6 2.55 -8.5 L3.15 -7.8 Q5.35 -2.75 -0.35 -0.95 L0.25 1.5 Q-2.3 5.9 -4.85 7.0 M2.35 0.4 Q1.75 0.5 1.6 0.1 L1.6 -0.1 1.65 -0.15 1.65 -0.3 1.75 -0.55 Q2.0 -1.1 2.6 -1.2 3.2 -1.35 3.5 -0.75 L3.7 0.45 3.7 0.8 Q3.5 0.15 2.75 -0.15 L2.5 0.2 2.35 0.4 M-6.2 -3.25 L-6.3 -3.25 -6.35 -3.15 -6.35 -3.05 -5.8 -2.25 -6.3 -1.7 -6.3 -1.6 -6.3 -1.5 -6.2 -1.45 -6.1 -1.5 -5.65 -2.0 -5.25 -1.45 -5.15 -1.4 -5.05 -1.45 -5.0 -1.5 -5.05 -1.6 -5.5 -2.25 -4.95 -2.9 -4.9 -3.0 -4.95 -3.1 -5.05 -3.1 -5.15 -3.05 -5.6 -2.45 -6.15 -3.2 -6.2 -3.25 M-6.65 0.25 L-6.6 -0.05 -6.65 -1.0 -6.85 -2.1 Q-7.9 -3.15 -8.0 -1.1 -7.5 -0.15 -6.65 0.25 L-6.8 2.35 -6.65 0.25 M-2.95 4.5 Q-5.65 4.1 -7.1 3.35 -5.65 4.1 -2.95 4.5 M-1.85 1.2 Q-2.3 -1.1 -4.05 -1.1 -4.45 -0.3 -4.35 1.05 L-1.85 1.2" fill="#d1ab86" fill-rule="evenodd" stroke="none"/>
    <path d="M-4.85 7.0 Q-2.3 5.9 0.25 1.5 L-0.35 -0.95 Q5.35 -2.75 3.15 -7.8 4.15 -6.6 4.5 -5.05 L4.55 -4.8 4.75 -3.35 Q4.85 -0.95 3.7 1.0 L3.65 1.3 3.55 1.6 3.55 1.7 3.5 1.75 3.4 2.05 Q3.2 2.7 1.85 2.65 L-1.15 6.1 Q-3.0 6.9 -4.85 7.0 M1.65 -0.3 L1.65 -0.15 1.6 -0.1 1.6 0.1 Q1.75 0.5 2.35 0.4 L2.3 0.9 2.25 1.05 2.3 0.9 2.35 0.4 2.5 0.2 2.75 -0.15 Q3.5 0.15 3.7 0.8 L3.7 0.45 3.5 -0.75 Q3.2 -1.35 2.6 -1.2 2.0 -1.1 1.75 -0.55 L1.65 -0.3 M2.3 1.8 L2.25 1.05 2.85 1.55 2.25 1.05 2.3 1.8 M3.7 1.0 L3.7 0.8 3.7 1.0" fill="#c89a6c" fill-rule="evenodd" stroke="none"/>
    <path d="M-6.2 -3.25 L-6.15 -3.2 -5.6 -2.45 -5.15 -3.05 -5.05 -3.1 -4.95 -3.1 -4.9 -3.0 -4.95 -2.9 -5.5 -2.25 -5.05 -1.6 -5.0 -1.5 -5.05 -1.45 -5.15 -1.4 -5.25 -1.45 -5.65 -2.0 -6.1 -1.5 -6.2 -1.45 -6.3 -1.5 -6.3 -1.6 -6.3 -1.7 -5.8 -2.25 -6.35 -3.05 -6.35 -3.15 -6.3 -3.25 -6.2 -3.25" fill="#634527" fill-rule="evenodd" stroke="none"/>
    <path d="M3.15 -7.8 L2.55 -8.5 Q0.55 -10.6 -2.2 -10.6 -5.0 -10.6 -6.85 -8.5 -8.2 -7.0 -8.5 -5.0 L-8.5 -1.45 -7.25 4.25 -6.2 6.3 -4.85 7.0 Q-3.0 6.9 -1.15 6.1 L1.85 2.65 Q3.2 2.7 3.4 2.05 L3.5 1.75 3.55 1.7 3.55 1.6 3.65 1.3 3.7 1.0 Q4.85 -0.95 4.75 -3.35 L4.55 -4.8 4.5 -5.05 Q4.15 -6.6 3.15 -7.8 M1.65 -0.3 L1.75 -0.55 Q2.0 -1.1 2.6 -1.2 3.2 -1.35 3.5 -0.75 L3.7 0.45 3.7 0.8 3.7 1.0 M2.85 1.55 L2.25 1.05 2.3 1.8 M2.35 0.4 L2.3 0.9 2.25 1.05 M2.75 -0.15 L2.5 0.2 2.35 0.4 M-6.65 0.25 Q-7.5 -0.15 -8.0 -1.1 -7.9 -3.15 -6.85 -2.1 L-6.65 -1.0 -6.6 -0.05 -6.65 0.25 -6.8 2.35 M-7.1 3.35 Q-5.65 4.1 -2.95 4.5 M-1.85 1.2 Q-2.3 -1.1 -4.05 -1.1 -4.45 -0.3 -4.35 1.05 L-1.85 1.2" fill="none" stroke="#916337" stroke-linecap="round" stroke-linejoin="round" stroke-width="0.05"/>
  </g>
</svg>
