<?xml version="1.0" encoding="UTF-8" standalone="no"?>
<svg xmlns:xlink="http://www.w3.org/1999/xlink" height="32.15px" width="20.9px" xmlns="http://www.w3.org/2000/svg">
  <g transform="matrix(1.0, 0.0, 0.0, 1.0, 10.9, 13.15)">
    <path d="M-5.2 -8.75 Q-4.85 -11.05 -5.3 -12.75 -0.7 -13.6 2.4 -12.7 L2.2 -11.3 2.2 -11.05 Q2.1 -9.6 2.35 -8.25 1.7 -8.15 0.45 -7.3 L-4.85 -6.95 -5.25 -7.65 -5.35 -7.8 -5.35 -7.85 -5.35 -7.9 -5.25 -8.65 -5.2 -8.75 M-7.45 -8.45 L-7.6 -8.5 -5.25 -8.75 -5.25 -8.65 -6.25 -8.0 -7.45 -8.45" fill="#ffd0ae" fill-rule="evenodd" stroke="none"/>
    <path d="M-5.25 -8.65 L-5.35 -7.9 -5.35 -7.85 -5.35 -7.8 -5.25 -7.65 -4.85 -6.95 0.45 -7.3 Q1.7 -8.15 2.35 -8.25 L2.5 -7.65 2.95 -7.45 3.5 -7.25 4.8 -6.65 Q5.9 2.75 -7.55 0.0 -9.85 -4.75 -7.45 -8.45 L-6.25 -8.0 -5.25 -8.65" fill="#ffdfc8" fill-rule="evenodd" stroke="none"/>
    <path d="M-5.2 -8.75 L-5.25 -8.65 -5.25 -8.75 -5.2 -8.75" fill="#eebf5a" fill-rule="evenodd" stroke="none"/>
    <path d="M2.35 -8.25 Q2.1 -9.6 2.2 -11.05 L2.2 -11.3 2.4 -12.7 Q-0.7 -13.6 -5.3 -12.75 -4.85 -11.05 -5.2 -8.75 L-5.25 -8.65 -5.35 -7.9 -5.35 -7.85 -5.35 -7.8 M2.35 -8.25 L2.5 -7.65 2.95 -7.45 3.5 -7.25 4.8 -6.65 M-7.6 -8.5 L-5.25 -8.75 -5.2 -8.75" fill="none" stroke="#674743" stroke-linecap="round" stroke-linejoin="round" stroke-width="0.05"/>
    <path d="M3.0 -5.3 L3.0 -5.35 3.05 -5.3 3.0 -5.3" fill="#d2c0b7" fill-rule="evenodd" stroke="none"/>
    <path d="M4.3 -10.7 L4.2 -10.4 3.7 -9.5 2.5 -8.15 2.45 -8.15 2.45 -8.1 2.4 -8.05 Q2.0 -8.55 2.15 -11.5 L2.55 -11.45 Q4.3 -11.2 4.3 -10.7 M-7.45 -9.95 Q-7.45 -10.45 -5.75 -10.9 L-5.05 -11.05 -5.15 -9.15 -5.2 -8.75 Q-5.2 -8.65 -6.1 -8.45 L-7.25 -8.25 -7.3 -8.65 -7.4 -9.4 -7.45 -9.9 -7.45 -9.95" fill="#2f553f" fill-rule="evenodd" stroke="none"/>
    <path d="M-7.3 -8.65 L-7.25 -8.25 -7.3 -8.25 -7.3 -8.65" fill="#674743" fill-rule="evenodd" stroke="none"/>
    <path d="M5.1 -4.55 L5.15 -4.6 5.15 -4.55 5.1 -4.55" fill="#64574a" fill-rule="evenodd" stroke="none"/>
    <path d="M2.5 -8.15 L3.7 -9.5 4.2 -10.4 4.3 -10.7 Q5.25 -8.8 5.1 -7.15 L5.05 -6.85 6.45 -6.65 7.65 -5.3 5.15 -4.6 5.1 -4.55 Q2.0 -2.8 -3.35 -2.0 L-4.65 -1.85 -4.65 -1.9 Q-4.25 -3.4 -2.85 -4.15 L0.3 -6.25 1.1 -6.9 2.4 -8.05 2.45 -8.1 2.5 -8.15 M3.0 -5.3 Q0.45 -3.65 -4.65 -1.85 0.45 -3.65 3.0 -5.3 L3.05 -5.3 3.0 -5.35 3.0 -5.3 M-8.65 -8.25 L-7.7 -9.1 -7.6 -9.6 -7.45 -9.95 -7.45 -9.9 -7.4 -9.4 -7.3 -8.65 -7.3 -8.25 -7.25 -8.25 Q-7.1 -7.3 -5.75 -5.05 -4.4 -2.9 -4.65 -1.9 L-5.45 -2.75 -5.6 -2.85 Q-7.25 -4.15 -8.25 -6.8 L-8.6 -7.85 -8.65 -8.25 M-7.5 -7.1 Q-7.95 -8.65 -7.7 -9.1 -7.95 -8.65 -7.5 -7.1" fill="#f2d9c8" fill-rule="evenodd" stroke="none"/>
    <path d="M5.9 16.0 Q1.8 19.65 -2.4 18.85 -3.75 8.6 -3.35 -2.0 2.0 -2.8 5.1 -4.55 L5.15 -4.55 5.25 -4.45 6.35 -3.8 6.55 -3.7 6.75 -3.55 7.7 -2.3 7.7 -1.85 7.75 -1.05 7.75 -0.75 7.65 0.9 7.6 1.4 7.45 2.65 7.45 2.75 7.35 3.2 6.95 4.95 6.7 5.8 6.55 6.2 5.25 9.05 5.0 9.45 4.95 9.55 4.7 9.95 5.9 15.95 5.9 16.0 M-4.7 18.1 Q-6.5 17.25 -8.35 15.6 -9.5 10.8 -8.95 4.9 L-9.1 3.85 Q-9.25 2.75 -9.65 1.75 L-9.7 1.6 -9.75 1.55 Q-10.4 0.45 -10.65 -0.7 -10.95 -1.85 -10.85 -3.0 L-10.45 -5.15 -10.4 -5.2 -9.2 -8.0 Q-8.95 -8.15 -8.65 -8.25 L-8.6 -7.85 -8.25 -6.8 Q-7.25 -4.15 -5.6 -2.85 L-5.45 -2.75 Q-6.1 5.2 -4.7 18.1" fill="#928361" fill-rule="evenodd" stroke="none"/>
    <path d="M-4.65 -1.9 L-4.65 -1.85 -3.35 -2.0 Q-3.75 8.6 -2.4 18.85 L-4.7 18.1 Q-6.1 5.2 -5.45 -2.75 L-4.65 -1.9" fill="#443d35" fill-rule="evenodd" stroke="none"/>
    <path d="M7.65 -5.3 L8.05 -4.95 8.95 -4.05 9.15 -3.75 9.75 -2.75 10.0 -1.3 9.95 -0.9 9.9 -0.15 9.05 4.05 9.0 4.2 8.55 5.75 8.4 6.15 7.5 8.4 7.3 8.75 7.3 8.8 7.3 12.8 7.45 15.55 5.9 16.0 5.9 15.95 4.7 9.95 4.95 9.55 5.0 9.45 5.25 9.05 6.55 6.2 6.7 5.8 6.95 4.95 7.35 3.2 7.45 2.75 7.45 2.65 7.6 1.4 7.65 0.9 7.75 -0.75 7.75 -1.05 7.7 -1.85 7.7 -2.3 6.75 -3.55 6.55 -3.7 6.35 -3.8 5.25 -4.45 5.15 -4.55 5.15 -4.6 7.65 -5.3" fill="#7a6b54" fill-rule="evenodd" stroke="none"/>
    <path d="M8.55 5.75 L8.4 6.15 7.5 8.4 7.3 8.75 7.3 8.8 7.3 12.8 M-8.35 15.6 Q-9.5 10.8 -8.95 4.9 M-9.7 1.6 L-9.75 1.55" fill="none" stroke="#6a4e44" stroke-linecap="round" stroke-linejoin="round" stroke-width="0.05"/>
    <path d="M2.15 -11.5 L2.55 -11.45 Q4.3 -11.2 4.3 -10.7 M-7.45 -9.95 Q-7.45 -10.45 -5.75 -10.9 L-5.05 -11.05" fill="none" stroke="#30543c" stroke-linecap="round" stroke-linejoin="round" stroke-width="0.05"/>
    <path d="M-7.25 -8.25 L-7.3 -8.65 -7.4 -9.4" fill="none" stroke="#30543c" stroke-linecap="round" stroke-linejoin="round" stroke-width="0.05"/>
    <path d="M4.3 -10.7 L4.2 -10.4 3.7 -9.5 2.5 -8.15 2.45 -8.1 2.4 -8.05 1.1 -6.9 0.3 -6.25 -2.85 -4.15 Q-4.25 -3.4 -4.65 -1.9 L-4.65 -1.85 Q0.45 -3.65 3.0 -5.3 M4.3 -10.7 Q5.25 -8.8 5.1 -7.15 L5.05 -6.85 M9.05 4.05 L9.0 4.2 M-8.65 -8.25 L-7.7 -9.1 -7.6 -9.6 -7.45 -9.95 M-5.45 -2.75 L-5.6 -2.85 Q-7.25 -4.15 -8.25 -6.8 L-8.6 -7.85 -8.65 -8.25 M-7.7 -9.1 Q-7.95 -8.65 -7.5 -7.1 M-4.65 -1.9 L-5.45 -2.75" fill="none" stroke="#42374d" stroke-linecap="round" stroke-linejoin="round" stroke-width="0.05"/>
    <path d="M5.05 -6.85 L6.45 -6.65 7.65 -5.3 8.05 -4.95 8.95 -4.05 9.15 -3.75 9.75 -2.75 10.0 -1.3 9.95 -0.9 9.9 -0.15 9.05 4.05 M9.0 4.2 L8.55 5.75 M-8.95 4.9 L-9.1 3.85 Q-9.25 2.75 -9.65 1.75 L-9.7 1.6 M-9.75 1.55 Q-10.4 0.45 -10.65 -0.7 -10.95 -1.85 -10.85 -3.0 L-10.45 -5.15 -10.4 -5.2 M-9.2 -8.0 Q-8.95 -8.15 -8.65 -8.25 M-7.25 -8.25 Q-7.1 -7.3 -5.75 -5.05 -4.4 -2.9 -4.65 -1.9 M-7.4 -9.4 L-7.45 -9.9 -7.45 -9.95" fill="none" stroke="#42374d" stroke-linecap="round" stroke-linejoin="round" stroke-width="0.05"/>
    <path d="M7.5 8.4 L7.3 8.8" fill="none" stroke="#4e3325" stroke-linecap="round" stroke-linejoin="round" stroke-width="0.05"/>
    <path d="M7.3 12.8 L7.45 15.55" fill="none" stroke="#4a4239" stroke-linecap="round" stroke-linejoin="round" stroke-width="0.05"/>
    <path d="M5.1 -4.55 L5.15 -4.6 7.65 -5.3 M5.1 -4.55 Q2.0 -2.8 -3.35 -2.0 L-4.65 -1.85" fill="none" stroke="#000000" stroke-linecap="round" stroke-linejoin="round" stroke-width="0.05"/>
    <path d="M-3.35 -2.0 Q-3.75 8.6 -2.4 18.85 M-5.45 -2.75 Q-6.1 5.2 -4.7 18.1" fill="none" stroke="#333333" stroke-linecap="round" stroke-linejoin="round" stroke-width="0.05"/>
    <path d="M-5.6 -0.35 L-5.75 -0.3 -6.4 0.15 Q-6.8 0.65 -6.9 1.3 -6.95 2.0 -6.65 2.4 L-6.3 2.8 -6.0 2.85 Q-5.6 2.8 -5.3 2.35 L-4.8 1.15 Q-4.75 0.5 -4.95 0.05 -5.2 -0.4 -5.6 -0.35 M-1.3 -0.55 Q-0.35 0.25 -1.15 1.55 L-3.55 3.0 -6.2 4.2 -7.95 1.5 -8.55 -0.1 Q-8.95 -1.55 -7.85 -1.7 L-6.6 -1.1 Q-5.2 -0.6 -3.65 -0.45 L-1.3 -0.55 M-3.55 3.0 L-2.9 1.2 -3.65 -0.45 -2.9 1.2 -3.55 3.0 M-6.6 -1.1 L-7.55 0.0 -7.95 1.5 -7.55 0.0 -6.6 -1.1" fill="#828282" fill-rule="evenodd" stroke="none"/>
    <path d="M-5.6 -0.35 Q-5.2 -0.4 -4.95 0.05 -4.75 0.5 -4.8 1.15 L-5.3 2.35 Q-5.6 2.8 -6.0 2.85 L-6.3 2.8 -6.65 2.4 Q-6.95 2.0 -6.9 1.3 -6.8 0.65 -6.4 0.15 L-5.75 -0.3 -5.6 -0.35 M-5.45 0.9 L-5.55 0.3 -5.75 0.1 -5.9 0.05 Q-6.1 0.05 -6.35 0.35 -6.6 0.6 -6.65 1.0 L-6.5 1.65 -6.15 1.9 -6.05 1.85 -5.7 1.6 -5.45 0.9" fill="#858bd3" fill-rule="evenodd" stroke="none"/>
    <path d="M-5.45 0.9 L-5.7 1.6 -6.05 1.85 -6.15 1.9 -6.5 1.65 -6.65 1.0 Q-6.6 0.6 -6.35 0.35 -6.1 0.05 -5.9 0.05 L-5.75 0.1 -5.55 0.3 -5.45 0.9" fill="#333a8e" fill-rule="evenodd" stroke="none"/>
    <path d="M-1.3 -0.55 Q-0.35 0.25 -1.15 1.55 L-3.55 3.0 -6.2 4.2 -7.95 1.5 -8.55 -0.1 Q-8.95 -1.55 -7.85 -1.7 L-6.6 -1.1 Q-5.2 -0.6 -3.65 -0.45 L-1.3 -0.55 M-3.65 -0.45 L-2.9 1.2 -3.55 3.0 M-7.95 1.5 L-7.55 0.0 -6.6 -1.1" fill="none" stroke="#333333" stroke-linecap="round" stroke-linejoin="round" stroke-width="0.05"/>
  </g>
</svg>
