<?xml version="1.0" encoding="UTF-8" standalone="no"?>
<svg xmlns:xlink="http://www.w3.org/1999/xlink" height="21.1px" width="18.65px" xmlns="http://www.w3.org/2000/svg">
  <g transform="matrix(1.0, 0.0, 0.0, 1.0, 10.7, 11.7)">
    <path d="M-8.15 -1.7 L-7.8 -2.65 -3.45 -1.05 Q-2.3 -0.85 -2.15 0.6 L-2.15 1.45 -3.85 1.8 -7.05 0.6 -8.15 -0.85 -8.15 -1.7" fill="#ffffff" fill-rule="evenodd" stroke="none"/>
    <path d="M-7.75 -1.85 L-7.4 -2.15 -7.0 -1.85 -6.85 -1.15 Q-6.85 -0.7 -7.0 -0.4 L-7.4 -0.1 -7.75 -0.4 -7.9 -1.15 -7.75 -1.85 M-7.55 -1.65 L-7.65 -1.6 -7.75 -1.15 -7.65 -0.7 -7.4 -0.5 -7.15 -0.7 -7.05 -1.15 -7.05 -1.4 -7.05 -1.55 -7.1 -1.8 -7.3 -1.9 -7.5 -1.8 -7.55 -1.65 M-3.25 -0.05 L-3.2 -0.25 -3.35 -0.5 -3.6 -0.6 -3.85 -0.5 -3.9 -0.4 -4.0 -0.3 -4.15 0.2 -4.0 0.7 -3.7 0.9 -3.35 0.7 -3.25 0.2 -3.25 -0.05 M-3.2 -0.6 L-3.0 0.2 -3.2 1.05 -3.7 1.35 -4.15 1.05 -4.35 0.2 -4.15 -0.6 Q-3.9 -0.75 -3.7 -0.95 -3.4 -0.95 -3.2 -0.6" fill="#0099ff" fill-rule="evenodd" stroke="none"/>
    <path d="M-7.05 -1.4 L-7.05 -1.15 -7.15 -0.7 -7.4 -0.5 -7.65 -0.7 -7.75 -1.15 -7.65 -1.6 -7.55 -1.65 -7.6 -1.55 -7.5 -1.3 -7.3 -1.2 -7.1 -1.3 -7.1 -1.35 -7.05 -1.4 M-3.9 -0.4 L-3.95 -0.25 -3.85 0.05 -3.6 0.15 -3.35 0.05 -3.25 -0.05 -3.25 0.2 -3.35 0.7 -3.7 0.9 -4.0 0.7 -4.15 0.2 -4.0 -0.3 -3.9 -0.4" fill="#000000" fill-rule="evenodd" stroke="none"/>
    <path d="M-7.55 -1.65 L-7.5 -1.8 -7.3 -1.9 -7.1 -1.8 -7.05 -1.55 -7.05 -1.4 -7.1 -1.35 -7.1 -1.3 -7.3 -1.2 -7.5 -1.3 -7.6 -1.55 -7.55 -1.65 M-3.9 -0.4 L-3.85 -0.5 -3.6 -0.6 -3.35 -0.5 -3.2 -0.25 -3.25 -0.05 -3.35 0.05 -3.6 0.15 -3.85 0.05 -3.95 -0.25 -3.9 -0.4" fill="#ffffff" fill-rule="evenodd" stroke="none"/>
    <path d="M1.35 0.1 Q2.05 -1.15 2.45 -1.2 3.05 -1.35 3.3 -0.75 L3.4 0.8 Q3.2 -0.6 2.1 0.4 1.45 0.5 1.35 0.1 M3.5 -7.8 Q5.3 -2.75 -1.1 -0.2 L-1.1 1.85 Q-1.1 3.15 -2.8 3.55 -3.1 6.35 -4.1 8.05 -5.8 8.4 -6.4 6.85 L-7.1 3.45 Q-7.3 2.65 -7.9 1.95 -8.5 1.25 -8.45 -1.15 L-8.35 -1.8 Q-8.25 -2.95 -8.4 -3.6 L-8.35 -5.0 Q-7.9 -7.0 -6.45 -8.5 -4.5 -10.6 -1.7 -10.6 1.05 -10.6 2.95 -8.5 L3.5 -7.8 M-8.15 -1.1 Q-7.75 -0.15 -6.9 0.25 L-6.85 -1.0 -6.85 -1.15 -7.95 -2.0 -8.15 -1.1 M-4.55 -0.2 L-4.2 -1.1 Q-2.85 -1.1 -2.4 0.35 -2.85 -1.1 -4.2 -1.1 L-4.55 -0.2 -4.7 1.05 -2.2 1.2 -2.4 0.35 -4.55 -0.2 M-6.85 -1.15 L-6.95 -2.1 Q-7.65 -2.85 -7.95 -2.0 -7.65 -2.85 -6.95 -2.1 L-6.85 -1.15 M-4.45 5.5 L-5.45 5.0 -6.15 4.9 -5.45 5.0 -4.45 5.5 M-6.95 2.75 Q-6.9 3.5 -6.2 3.4 L-6.95 2.75 Q-6.4 0.85 -6.85 -1.0 -6.4 0.85 -6.95 2.75" fill="#ffdfc8" fill-rule="evenodd" stroke="none"/>
    <path d="M3.4 0.8 L3.3 -0.75 Q3.05 -1.35 2.45 -1.2 2.05 -1.15 1.35 0.1 1.45 0.5 2.1 0.4 L1.95 1.05 2.5 1.55 1.95 1.05 2.1 0.4 Q3.2 -0.6 3.4 0.8 L3.35 1.0 3.4 0.8 M3.5 -7.8 Q4.35 -6.6 4.65 -5.05 L4.65 -4.8 4.75 -3.35 Q4.65 -0.95 3.35 1.0 3.0 2.25 2.15 2.65 L1.2 2.55 -0.2 5.25 Q-1.95 6.95 -4.1 8.05 -3.1 6.35 -2.8 3.55 -1.1 3.15 -1.1 1.85 L-1.1 -0.2 Q5.3 -2.75 3.5 -7.8 M-6.2 3.4 Q-6.9 3.5 -6.95 2.75 L-6.2 3.4 M1.95 1.8 L1.95 1.05 1.95 1.8" fill="#ffd0ae" fill-rule="evenodd" stroke="none"/>
    <path d="M1.35 0.1 Q2.05 -1.15 2.45 -1.2 3.05 -1.35 3.3 -0.75 L3.4 0.8 3.35 1.0 Q4.65 -0.95 4.75 -3.35 L4.65 -4.8 4.65 -5.05 Q4.35 -6.6 3.5 -7.8 L2.95 -8.5 Q1.05 -10.6 -1.7 -10.6 -4.5 -10.6 -6.45 -8.5 -7.9 -7.0 -8.35 -5.0 L-8.4 -3.6 Q-8.25 -2.95 -8.35 -1.8 L-8.45 -1.15 Q-8.5 1.25 -7.9 1.95 -7.3 2.65 -7.1 3.45 L-6.4 6.85 Q-5.8 8.4 -4.1 8.05 -1.95 6.95 -0.2 5.25 L1.2 2.55 2.15 2.65 Q3.0 2.25 3.35 1.0 M-8.15 -1.1 Q-7.75 -0.15 -6.9 0.25 L-6.85 -1.0 -6.85 -1.15 -7.95 -2.0 -8.15 -1.1 M-7.95 -2.0 Q-7.65 -2.85 -6.95 -2.1 L-6.85 -1.15 M-2.4 0.35 Q-2.85 -1.1 -4.2 -1.1 L-4.55 -0.2 -2.4 0.35 -2.2 1.2 -4.7 1.05 -4.55 -0.2 M-6.15 4.9 L-5.45 5.0 -4.45 5.5 M-6.95 2.75 Q-6.9 3.5 -6.2 3.4 M-6.95 2.75 Q-6.4 0.85 -6.85 -1.0 M2.1 0.4 L1.95 1.05 2.5 1.55 M1.95 1.05 L1.95 1.8" fill="none" stroke="#d7995e" stroke-linecap="round" stroke-linejoin="round" stroke-width="0.05"/>
    <path d="M-7.0 -3.65 L-6.6 -2.8 -8.2 -3.25 -7.9 -3.75 -7.0 -3.65 M-3.9 -2.85 L-2.15 -2.25 -1.2 -1.35 -4.85 -2.35 -3.9 -2.85" fill="#333333" fill-rule="evenodd" stroke="none"/>
    <path d="M-7.0 -3.65 L-6.6 -2.8 -8.2 -3.25 -7.9 -3.75 -7.0 -3.65 M-3.9 -2.85 L-4.85 -2.35 -1.2 -1.35 -2.15 -2.25 -3.9 -2.85" fill="none" stroke="#666666" stroke-linecap="round" stroke-linejoin="round" stroke-width="0.05"/>
    <path d="M-9.6 -3.45 L-10.55 -5.1 -10.7 -5.7 -8.8 -6.8 Q-7.5 -8.9 -5.55 -10.15 -4.55 -10.8 -3.35 -11.3 -1.05 -12.1 1.2 -11.25 2.35 -10.85 3.3 -10.05 L5.3 -8.25 Q6.6 -7.0 7.45 -5.35 7.7 -4.9 7.95 0.65 7.2 1.75 6.6 -0.4 6.05 -1.25 5.85 -0.65 5.4 0.45 5.3 0.9 L5.7 3.45 Q5.9 5.25 5.05 7.15 4.65 7.1 3.9 7.6 1.9 8.85 -0.3 9.4 0.0 7.2 0.9 5.15 1.65 3.35 1.05 1.5 L0.7 0.7 -0.25 -1.0 -1.5 -2.7 -1.8 -3.05 -2.0 -3.25 -3.0 -4.25 -3.95 -5.05 -5.4 -6.1 -5.5 -6.1 -7.2 -5.7 -7.5 -5.55 -7.65 -5.5 -8.35 -5.1 -8.4 -5.0 -8.35 -5.1 -8.35 -5.0 -8.4 -5.0 -8.9 -4.2 -9.05 -4.0 -9.6 -3.45 M-0.6 -4.85 L-3.3 -6.85 Q-5.1 -8.3 -7.35 -7.4 L-8.8 -6.8 -7.35 -7.4 Q-5.1 -8.3 -3.3 -6.85 L-0.6 -4.85 M-6.85 -6.7 L-5.4 -6.1 -6.85 -6.7 M4.95 2.6 L5.3 0.9 4.95 2.6" fill="#f2d9c8" fill-rule="evenodd" stroke="none"/>
    <path d="M-8.4 -3.75 L-8.4 -3.6 -8.3 -2.05 -8.35 -1.8 -8.45 -1.15 Q-8.5 1.25 -7.9 1.95 -7.3 2.65 -7.1 3.45 -7.4 5.15 -8.05 5.4 -8.1 1.3 -9.05 -2.85 L-9.6 -3.45 -9.05 -4.0 -8.9 -4.2 -8.4 -5.0 -8.35 -5.0 -8.4 -3.75" fill="#e0c8b6" fill-rule="evenodd" stroke="none"/>
    <path d="M1.05 1.5 L0.0 3.15 Q0.4 0.9 -0.25 -1.0 L0.7 0.7 1.05 1.5 M-1.5 -2.7 L-2.05 -2.65 -2.0 -3.25 -1.8 -3.05 -1.5 -2.7 M-3.0 -4.25 L-3.55 -3.3 Q-4.45 -4.5 -3.95 -5.05 L-3.0 -4.25 M-5.5 -6.1 Q-6.85 -5.15 -6.25 -3.25 -7.7 -4.95 -7.2 -5.7 L-5.5 -6.1 M-7.5 -5.55 Q-8.2 -4.85 -8.4 -3.75 L-8.35 -5.0 -8.35 -5.1 -7.65 -5.5 -7.5 -5.55" fill="#333333" fill-rule="evenodd" stroke="none"/>
    <path d="M-9.6 -3.45 L-10.55 -5.1 -10.7 -5.7 -8.8 -6.8 Q-7.5 -8.9 -5.55 -10.15 -4.55 -10.8 -3.35 -11.3 -1.05 -12.1 1.2 -11.25 2.35 -10.85 3.3 -10.05 L5.3 -8.25 Q6.6 -7.0 7.45 -5.35 7.7 -4.9 7.95 0.65 7.2 1.75 6.6 -0.4 6.05 -1.25 5.85 -0.65 5.4 0.45 5.3 0.9 L5.7 3.45 Q5.9 5.25 5.05 7.15 M-8.05 5.4 Q-8.1 1.3 -9.05 -2.85 L-9.6 -3.45 M-8.4 -5.0 L-8.35 -5.1" fill="none" stroke="#584338" stroke-linecap="round" stroke-linejoin="round" stroke-width="0.05"/>
    <path d="M-0.3 9.4 Q0.0 7.2 0.9 5.15 1.65 3.35 1.05 1.5 L0.7 0.7 -0.25 -1.0 -1.5 -2.7 -1.8 -3.05 -2.0 -3.25 -3.0 -4.25 -3.95 -5.05 -5.4 -6.1 -5.5 -6.1 -7.2 -5.7 -7.5 -5.55 -7.65 -5.5 -8.35 -5.1 M-8.9 -4.2 L-8.4 -5.0 M-8.8 -6.8 L-7.35 -7.4 Q-5.1 -8.3 -3.3 -6.85 L-0.6 -4.85 M-5.4 -6.1 L-6.85 -6.7 M5.3 0.9 L4.95 2.6" fill="none" stroke="#ab8558" stroke-linecap="round" stroke-linejoin="round" stroke-width="0.05"/>
  </g>
</svg>
