<?xml version="1.0" encoding="UTF-8" standalone="no"?>
<svg xmlns:xlink="http://www.w3.org/1999/xlink" height="27.0px" width="7.35px" xmlns="http://www.w3.org/2000/svg">
  <g transform="matrix(1.0, 0.0, 0.0, 1.0, 5.25, 29.25)">
    <path d="M1.3 -18.0 L1.25 -18.25 Q-1.5 -17.35 -4.35 -18.25 L-4.4 -18.1 Q-5.15 -19.35 -5.15 -20.25 L-5.25 -24.4 Q-5.05 -27.8 -3.3 -29.15 -0.25 -29.65 0.9 -27.15 2.05 -24.65 2.1 -22.0 2.15 -19.35 1.3 -18.0" fill="#bba09d" fill-rule="evenodd" stroke="none"/>
    <path d="M1.3 -18.0 Q1.8 -16.25 1.55 -14.1 L1.5 -14.1 Q-1.05 -12.2 -4.3 -14.1 -1.05 -12.2 1.5 -14.1 L1.5 -13.7 1.5 -13.4 1.5 -12.9 Q1.35 -10.8 0.85 -9.35 -0.4 -5.5 -4.05 -6.25 L-4.15 -9.35 -4.3 -14.1 Q-4.9 -16.4 -4.4 -18.1 L-4.35 -18.25 Q-1.5 -17.35 1.25 -18.25 L1.3 -18.0" fill="#956c5e" fill-rule="evenodd" stroke="none"/>
    <path d="M1.5 -12.9 L1.35 -9.35 1.25 -7.9 0.9 -3.8 Q-1.35 -0.75 -3.95 -3.65 L-4.05 -6.25 Q-0.4 -5.5 0.85 -9.35 1.35 -10.8 1.5 -12.9" fill="#823939" fill-rule="evenodd" stroke="none"/>
    <path d="M1.5 -14.1 L1.55 -14.1 Q1.8 -16.25 1.3 -18.0 L1.25 -18.25 Q-1.5 -17.35 -4.35 -18.25 L-4.4 -18.1 Q-4.9 -16.4 -4.3 -14.1 -1.05 -12.2 1.5 -14.1 L1.5 -13.7 1.5 -13.4 1.5 -12.9 1.35 -9.35 1.25 -7.9 0.9 -3.8 Q-1.35 -0.75 -3.95 -3.65 L-4.05 -6.25 -4.15 -9.35 -4.3 -14.1" fill="none" stroke="#4f4331" stroke-linecap="round" stroke-linejoin="round" stroke-width="0.05"/>
    <path d="M1.3 -18.0 Q2.15 -19.35 2.1 -22.0 2.05 -24.65 0.9 -27.15 -0.25 -29.65 -3.3 -29.15 -5.05 -27.8 -5.25 -24.4 L-5.15 -20.25 Q-5.15 -19.35 -4.4 -18.1" fill="none" stroke="#603e3e" stroke-linecap="round" stroke-linejoin="round" stroke-width="0.05"/>
  </g>
</svg>
