<?xml version="1.0" encoding="UTF-8" standalone="no"?>
<svg xmlns:xlink="http://www.w3.org/1999/xlink" height="17.75px" width="8.3px" xmlns="http://www.w3.org/2000/svg">
  <g transform="matrix(1.0, 0.0, 0.0, 1.0, 4.7, 0.65)">
    <path d="M-4.1 14.95 Q-3.95 14.95 -4.7 12.4 -4.5 6.35 -2.85 1.2 -2.55 0.0 -1.95 -0.65 L2.3 -0.45 2.65 0.9 Q2.95 2.15 3.25 7.3 3.3 10.8 3.6 13.35 L2.65 16.9 -1.2 17.1 Q-2.55 16.8 -4.1 14.95" fill="#bba09d" fill-rule="evenodd" stroke="none"/>
    <path d="M-4.1 14.95 Q-3.95 14.95 -4.7 12.4 -4.5 6.35 -2.85 1.2 M-1.95 -0.65 L2.3 -0.45 2.65 0.9 Q2.95 2.15 3.25 7.3 3.3 10.8 3.6 13.35 L2.65 16.9" fill="none" stroke="#49614b" stroke-linecap="round" stroke-linejoin="round" stroke-width="0.05"/>
  </g>
</svg>
