<?xml version="1.0" encoding="UTF-8" standalone="no"?>
<svg xmlns:xlink="http://www.w3.org/1999/xlink" height="67.35px" width="22.95px" xmlns="http://www.w3.org/2000/svg">
  <g transform="matrix(1.0, 0.0, 0.0, 1.0, 10.85, 4.9)">
    <path d="M2.7 -0.8 Q5.0 -0.35 6.2 0.85 7.0 1.7 7.85 3.8 9.0 4.35 9.7 5.35 12.0 8.65 12.1 15.95 9.85 17.05 7.3 16.05 6.2 19.65 5.55 23.3 L4.2 31.15 2.85 32.75 4.95 12.6 Q6.55 14.85 11.1 14.55 8.75 6.15 5.1 3.95 5.8 2.0 2.7 -0.8" fill="#3c2f99" fill-rule="evenodd" stroke="none"/>
    <path d="M-2.3 0.1 Q-0.45 -1.1 2.0 -0.9 L2.7 -0.8 Q5.8 2.0 5.1 3.95 8.75 6.15 11.1 14.55 6.55 14.85 4.95 12.6 L2.85 32.75 Q-0.15 34.65 -1.25 40.4 L-1.35 41.0 Q-2.95 53.4 -1.55 62.45 -4.8 61.7 -3.95 31.9 L-4.95 5.7 -4.95 5.5 -5.0 5.3 -5.0 5.25 -5.0 5.05 -5.0 4.45 -4.9 3.7 Q-4.55 1.7 -2.8 0.4 L-2.3 0.1" fill="#8253c4" fill-rule="evenodd" stroke="none"/>
    <path d="M4.2 31.15 L5.8 38.35 3.7 47.35 Q-0.3 55.95 -1.55 62.45 -2.95 53.4 -1.35 41.0 L-1.25 40.4 Q-0.15 34.65 2.85 32.75 L4.2 31.15" fill="#cd5050" fill-rule="evenodd" stroke="none"/>
    <path d="M-7.05 -3.9 L-7.1 -3.35 -6.75 -2.85 -6.2 -2.8 -5.75 -3.15 Q-5.55 -3.4 -5.65 -3.75 L-6.05 -4.2 -6.6 -4.25 -7.05 -3.9 M-5.85 0.2 L-6.0 0.25 Q-7.0 0.55 -7.95 -0.05 -8.9 -0.6 -9.2 -1.6 -9.5 -2.65 -9.0 -3.6 -8.45 -4.5 -7.45 -4.8 -6.45 -5.05 -5.55 -4.5 -4.6 -3.9 -4.3 -2.9 -4.1 -2.15 -4.25 -1.45 L-4.5 -0.95 Q-4.95 -0.1 -5.85 0.2 -4.95 -0.1 -4.5 -0.95 L-4.25 -1.45 -2.3 0.1 -2.8 0.4 Q-4.55 1.7 -4.9 3.7 L-5.85 0.2" fill="#999999" fill-rule="evenodd" stroke="none"/>
    <path d="M-7.05 -3.9 L-6.6 -4.25 -6.05 -4.2 -5.65 -3.75 Q-5.55 -3.4 -5.75 -3.15 L-6.2 -2.8 -6.75 -2.85 -7.1 -3.35 -7.05 -3.9" fill="#424242" fill-rule="evenodd" stroke="none"/>
    <path d="M-2.3 0.1 Q-0.45 -1.1 2.0 -0.9 L2.7 -0.8 Q5.0 -0.35 6.2 0.85 7.0 1.7 7.85 3.8 9.0 4.35 9.7 5.35 12.0 8.65 12.1 15.95 9.85 17.05 7.3 16.05 6.2 19.65 5.55 23.3 M4.2 31.15 L5.8 38.35 3.7 47.35 Q-0.3 55.95 -1.55 62.45 -4.8 61.7 -3.95 31.9 L-4.95 5.7 -4.95 5.5 -5.0 5.3 -5.0 5.25 -5.0 5.05 -5.0 4.45 -4.9 3.7 Q-4.55 1.7 -2.8 0.4 L-2.3 0.1 M2.85 32.75 Q-0.15 34.65 -1.25 40.4 L-1.35 41.0 Q-2.95 53.4 -1.55 62.45 M2.85 32.75 L4.2 31.15" fill="none" stroke="#333333" stroke-linecap="round" stroke-linejoin="round" stroke-width="0.05"/>
    <path d="M5.55 23.3 L4.2 31.15" fill="none" stroke="#834e1b" stroke-linecap="round" stroke-linejoin="round" stroke-width="0.05"/>
    <path d="M-4.95 5.5 Q-7.45 4.65 -8.1 2.6 -8.9 0.3 -10.85 0.6 M-4.25 -1.45 Q-4.1 -2.15 -4.3 -2.9 -4.6 -3.9 -5.55 -4.5 -6.45 -5.05 -7.45 -4.8 -8.45 -4.5 -9.0 -3.6 -9.5 -2.65 -9.2 -1.6 -8.9 -0.6 -7.95 -0.05 -7.0 0.55 -6.0 0.25 L-5.85 0.2 Q-4.95 -0.1 -4.5 -0.95 L-4.25 -1.45 -2.3 0.1 M-5.85 0.2 L-4.9 3.7" fill="none" stroke="#666666" stroke-linecap="round" stroke-linejoin="round" stroke-width="0.05"/>
  </g>
</svg>
