<?xml version="1.0" encoding="UTF-8" standalone="no"?>
<svg xmlns:xlink="http://www.w3.org/1999/xlink" height="153.75px" width="87.45px" xmlns="http://www.w3.org/2000/svg">
  <g transform="matrix(1.0, 0.0, 0.0, 1.0, 43.75, 76.9)">
    <path d="M6.3 -62.45 L6.65 -61.05 6.8 -57.6 Q6.8 -54.0 5.55 -52.15 6.8 -54.0 6.8 -57.6 L6.65 -61.05 6.3 -62.45 Q10.45 -66.3 10.55 -74.25 16.15 -67.6 14.75 -62.4 L13.95 -61.85 14.75 -62.4 Q20.0 -66.2 21.8 -72.9 24.3 -65.1 19.8 -61.4 L20.45 -61.45 Q23.75 -61.7 25.4 -64.8 26.95 -67.4 28.95 -67.3 28.4 -66.9 28.6 -65.5 28.75 -64.1 28.1 -63.1 L26.9 -62.6 Q24.35 -61.7 20.45 -61.45 24.35 -61.7 26.9 -62.6 L28.1 -63.1 Q33.0 -65.5 30.75 -71.2 39.25 -64.65 32.6 -55.75 26.25 -48.85 18.5 -48.75 10.7 -48.65 10.2 -45.6 L9.6 -45.7 Q9.0 -45.7 8.55 -45.25 8.35 -45.1 8.25 -44.6 L8.0 -44.6 7.05 -44.35 6.95 -44.2 6.65 -44.3 6.6 -43.6 5.95 -43.9 5.65 -43.95 5.15 -43.85 5.05 -43.85 4.6 -43.55 Q4.15 -43.1 4.2 -42.5 L4.1 -42.45 3.8 -43.0 3.7 -43.05 3.05 -43.35 3.0 -43.35 Q4.95 -49.9 0.45 -56.5 -2.25 -60.5 -3.8 -64.05 -2.25 -60.5 0.45 -56.5 4.95 -49.9 3.0 -43.35 L2.75 -43.4 Q2.1 -43.4 1.7 -43.0 L1.65 -42.95 1.4 -43.35 1.3 -43.4 0.9 -43.65 0.65 -43.7 0.35 -43.75 0.0 -43.7 -0.15 -43.85 -0.25 -43.9 -0.9 -44.25 -1.2 -44.25 -1.4 -44.25 -1.9 -44.75 -2.4 -45.05 -2.55 -45.1 -3.0 -45.15 -3.65 -45.0 -4.0 -44.75 -4.1 -44.65 Q-10.65 -46.5 -17.1 -44.7 -29.95 -41.2 -40.95 -59.25 L-43.75 -63.8 Q-33.7 -57.4 -30.6 -57.45 -39.75 -62.85 -42.35 -69.65 -33.45 -62.85 -29.2 -61.7 -31.05 -66.1 -31.95 -72.2 -29.5 -68.0 -25.35 -65.15 -25.6 -67.5 -24.6 -69.2 -24.5 -66.0 -22.05 -63.25 -19.9 -62.2 -17.45 -61.45 -20.55 -67.2 -20.1 -72.6 -17.75 -68.6 -14.25 -65.7 -12.65 -68.35 -9.6 -71.05 -8.15 -72.25 -7.65 -74.15 L-7.55 -70.55 Q-6.7 -71.65 -6.2 -73.35 L-5.6 -70.05 Q-5.2 -67.25 -3.8 -64.05 -5.85 -74.35 -1.5 -76.9 -1.8 -72.55 2.05 -68.85 5.2 -65.8 6.3 -62.45 M12.25 -62.85 Q13.25 -65.4 12.25 -68.8 13.25 -65.4 12.25 -62.85 M9.5 -47.45 Q8.65 -47.0 8.15 -46.5 L7.5 -45.75 7.45 -45.7 Q7.05 -45.05 7.05 -44.35 7.05 -45.05 7.45 -45.7 L7.5 -45.75 8.15 -46.5 Q8.65 -47.0 9.5 -47.45 M18.6 -60.55 L19.8 -61.4 18.6 -60.55 M10.1 -30.6 L10.15 -30.6 10.4 -30.55 12.35 -25.25 12.4 -25.2 12.45 -25.1 12.6 -24.65 Q12.8 -24.0 13.5 -23.1 14.2 -22.2 14.15 -20.55 13.6 -21.05 12.85 -21.05 12.1 -21.05 11.55 -20.55 11.0 -20.0 11.0 -19.2 L11.1 -18.6 Q8.15 -15.9 3.2 -16.65 L3.2 -16.7 3.2 -16.85 Q3.2 -17.6 2.7 -18.15 2.15 -18.7 1.35 -18.7 0.6 -18.7 0.05 -18.15 -0.5 -17.6 -0.5 -16.85 -0.5 -16.2 -0.1 -15.7 L-0.1 -15.5 Q-0.1 -12.05 2.1 -8.6 L1.95 -8.45 Q1.45 -8.0 1.5 -7.3 1.45 -6.6 1.95 -6.1 2.2 -5.85 2.6 -5.75 L2.65 -5.65 2.7 -4.1 2.35 -3.8 Q1.85 -3.35 1.85 -2.65 1.85 -1.95 2.35 -1.45 L2.65 -1.25 Q2.75 -1.15 2.95 -1.1 L3.0 -1.05 3.05 1.75 3.05 2.9 Q-1.55 -1.8 -3.55 -5.7 L-3.25 -6.8 -3.15 -7.3 Q-2.9 -9.3 -3.8 -11.25 L-5.25 -13.7 -6.1 -15.45 -6.5 -16.45 -6.9 -17.5 Q-5.7 -16.35 -4.85 -17.85 L-4.65 -17.85 -4.65 -18.25 -4.55 -18.7 -4.45 -19.15 -4.35 -19.4 Q-3.4 -20.65 -3.55 -23.2 -3.8 -25.6 -4.95 -27.65 -2.4 -23.6 4.35 -21.15 L7.65 -20.1 Q10.3 -24.4 10.45 -27.8 10.5 -29.3 10.1 -30.6 M11.35 -60.4 Q8.15 -59.3 6.8 -57.6 8.15 -59.3 11.35 -60.4 M25.95 -55.6 Q18.95 -52.3 14.15 -51.95 9.35 -51.65 8.15 -50.95 9.35 -51.65 14.15 -51.95 18.95 -52.3 25.95 -55.6 M6.7 -49.45 Q5.3 -48.35 4.7 -46.55 5.3 -48.35 6.7 -49.45 M-1.15 -12.05 Q-2.1 -12.45 -2.85 -13.2 L-3.35 -13.7 Q-4.65 -15.25 -4.65 -17.3 L-4.65 -17.85 -4.65 -17.3 Q-4.65 -15.25 -3.35 -13.7 L-2.85 -13.2 Q-2.1 -12.45 -1.15 -12.05 M3.75 -8.8 Q2.9 -10.9 2.8 -13.15 L3.6 -12.75 3.85 -12.65 8.1 -12.5 Q9.65 -13.35 10.75 -14.6 L10.95 -14.55 Q10.7 -12.1 9.5 -9.6 L9.25 -9.35 Q8.8 -8.9 8.85 -8.25 8.8 -7.6 9.25 -7.15 L9.85 -6.8 9.85 -6.7 10.35 -4.95 9.9 -4.65 Q9.45 -4.2 9.45 -3.55 9.45 -2.9 9.9 -2.4 10.15 -2.2 10.5 -2.1 L10.6 -2.0 10.7 0.6 10.85 3.75 10.3 4.5 5.95 2.6 5.1 2.75 4.65 -1.45 4.7 -1.45 4.95 -1.75 5.2 -2.4 5.2 -2.55 5.2 -2.65 Q5.15 -3.35 4.7 -3.8 L4.6 -3.9 4.2 -6.0 4.3 -6.1 4.8 -7.0 4.8 -7.2 4.8 -7.3 Q4.8 -8.0 4.3 -8.45 L3.75 -8.8 M13.95 -54.8 Q19.1 -57.55 24.95 -59.25 19.1 -57.55 13.95 -54.8 M30.15 -59.7 Q34.55 -61.65 33.1 -66.55 34.55 -61.65 30.15 -59.7 M-11.15 -49.55 L-15.15 -50.35 Q-23.3 -52.4 -27.35 -58.3 L-29.2 -61.7 -27.35 -58.3 Q-23.3 -52.4 -15.15 -50.35 L-11.15 -49.55 M-15.4 -60.6 Q-15.45 -59.05 -15.15 -57.7 -14.55 -54.65 -12.15 -52.65 -14.55 -54.65 -15.15 -57.7 -15.45 -59.05 -15.4 -60.6 L-17.45 -61.45 -15.4 -60.6 -15.3 -61.7 Q-17.6 -65.0 -18.8 -68.2 -17.6 -65.0 -15.3 -61.7 L-15.4 -60.6 M-15.2 -62.5 L-15.3 -61.7 -15.2 -62.5 M-15.1 -63.15 L-14.65 -65.1 -14.25 -65.7 -14.65 -65.1 -15.1 -63.15 M-12.1 -66.0 L-11.85 -66.9 -12.1 -66.0 M-8.25 -69.05 L-7.55 -70.55 -8.25 -69.05 M-25.35 -65.15 Q-23.8 -64.1 -22.05 -63.25 -23.8 -64.1 -25.35 -65.15 M-2.0 -46.7 L-2.5 -47.0 Q-4.0 -47.85 -6.1 -48.45 -10.3 -49.35 -13.3 -52.7 -10.3 -49.35 -6.1 -48.45 -4.0 -47.85 -2.5 -47.0 L-2.0 -46.7 M-3.8 -47.05 Q-2.4 -46.0 -1.9 -44.75 -2.4 -46.0 -3.8 -47.05 M-27.15 -55.9 L-30.6 -57.45 -27.15 -55.9 M-34.4 -56.55 L-33.35 -55.3 -34.4 -56.55 M-22.8 -48.2 L-21.15 -47.8 -22.8 -48.2 M-32.5 -54.35 Q-28.35 -50.1 -23.8 -48.5 -28.35 -50.1 -32.5 -54.35 M1.55 -48.75 Q3.7 -46.55 3.0 -43.35 3.7 -46.55 1.55 -48.75 M0.7 -47.95 Q-1.15 -49.85 -6.9 -52.1 -13.0 -55.3 -11.2 -63.8 -13.0 -55.3 -6.9 -52.1 -1.15 -49.85 0.7 -47.95 M3.4 -60.4 Q2.6 -64.1 -0.45 -67.75 2.6 -64.1 3.4 -60.4 M-15.4 -53.75 Q-23.05 -55.9 -28.5 -64.85 -23.05 -55.9 -15.4 -53.75 M-34.45 -62.35 Q-33.0 -60.95 -31.15 -59.9 -33.0 -60.95 -34.45 -62.35 M-0.7 -54.15 Q-4.3 -57.65 -5.55 -63.15 -4.3 -57.65 -0.7 -54.15" fill="#abafb4" fill-rule="evenodd" stroke="none"/>
    <path d="M3.0 -43.35 L3.05 -43.35 3.7 -43.05 3.8 -43.0 4.1 -42.45 4.2 -42.2 4.2 -41.95 4.2 -41.9 4.15 -41.45 4.1 -41.3 3.8 -40.9 Q3.35 -40.45 2.75 -40.45 L2.45 -40.5 Q2.05 -40.55 1.75 -40.8 L1.7 -40.9 1.4 -41.25 1.25 -41.1 Q1.1 -39.2 1.3 -37.9 1.35 -35.0 0.5 -33.4 L0.45 -33.35 0.35 -33.4 Q0.75 -38.05 -0.2 -39.9 L-0.4 -40.0 -0.6 -40.1 Q-1.9 -40.55 -2.2 -39.3 L-2.25 -39.15 -2.25 -38.3 Q-2.15 -37.2 -1.7 -36.05 L-1.7 -36.0 -1.7 -36.05 -2.5 -37.5 -3.05 -39.4 -3.4 -42.3 -4.0 -42.65 -4.1 -42.75 -4.2 -42.85 -4.45 -43.7 -4.35 -43.8 -4.4 -44.05 -4.1 -44.65 -4.0 -44.75 -3.65 -45.0 -3.0 -45.15 -2.55 -45.1 -2.4 -45.05 -1.9 -44.75 -1.4 -44.25 -1.2 -44.25 -0.9 -44.25 -0.25 -43.9 -0.15 -43.85 0.0 -43.7 0.35 -43.75 0.65 -43.7 0.9 -43.65 1.3 -43.4 1.4 -43.35 1.65 -42.95 1.7 -43.0 Q2.1 -43.4 2.75 -43.4 L3.0 -43.35 M4.2 -42.5 Q4.15 -43.1 4.6 -43.55 L5.05 -43.85 5.15 -43.85 5.65 -43.95 5.95 -43.9 6.6 -43.6 6.65 -44.3 6.95 -44.2 7.05 -44.35 8.0 -44.6 8.25 -44.6 Q8.35 -45.1 8.55 -45.25 9.0 -45.7 9.6 -45.7 L10.2 -45.6 10.65 -45.25 Q11.1 -44.85 11.1 -44.25 11.1 -43.65 10.65 -43.2 L10.55 -43.15 10.55 -43.1 10.1 -42.8 9.6 -42.75 9.4 -42.75 9.35 -42.5 9.05 -42.1 Q8.6 -41.7 8.0 -41.7 L7.75 -41.7 7.2 -41.9 7.0 -41.95 7.0 -41.85 6.7 -41.45 Q6.25 -41.0 5.65 -41.0 5.0 -41.0 4.6 -41.45 4.25 -41.75 4.2 -42.2 L4.2 -42.5 M11.05 -30.45 L13.0 -29.85 13.2 -29.75 13.55 -29.5 14.3 -28.85 Q15.05 -28.0 15.6 -26.7 L15.85 -26.05 Q16.35 -24.65 16.3 -23.65 L15.95 -22.15 19.1 -11.1 24.05 -9.45 24.05 -5.95 22.2 -6.25 16.55 -7.1 13.55 -16.8 13.55 -16.85 13.75 -17.6 13.8 -17.6 14.15 -17.9 14.35 -18.1 Q14.7 -18.6 14.7 -19.2 14.65 -19.95 14.2 -20.5 14.65 -19.95 14.7 -19.2 14.7 -18.6 14.35 -18.1 L14.15 -17.9 13.8 -17.6 13.75 -17.6 13.0 -17.4 12.85 -17.4 12.4 -17.45 Q11.9 -17.55 11.6 -17.9 L11.55 -17.9 11.1 -18.6 11.0 -19.2 Q11.0 -20.0 11.55 -20.55 12.1 -21.05 12.85 -21.05 13.6 -21.05 14.15 -20.55 14.2 -22.2 13.5 -23.1 12.8 -24.0 12.6 -24.65 L12.45 -25.1 12.4 -25.25 12.35 -25.25 10.4 -30.55 10.85 -30.45 11.05 -30.45 M28.25 -8.05 L29.35 -7.7 Q29.95 -6.7 29.9 -5.05 L28.55 -5.25 28.25 -8.05 M31.6 -6.95 L33.8 -8.9 37.55 -9.5 36.3 -7.3 37.95 -6.05 43.7 -5.1 39.3 -2.35 34.45 -4.3 31.6 -6.95 M15.65 13.2 L15.95 20.7 15.5 31.85 14.9 37.95 Q14.95 43.65 16.35 48.1 L17.65 51.45 Q19.35 54.9 22.05 57.4 L29.3 61.0 4.8 73.3 -2.35 69.75 0.05 67.05 1.25 65.35 Q2.6 63.3 2.8 61.8 L2.8 61.45 Q2.95 58.25 2.5 51.7 L1.85 38.7 Q5.75 42.8 9.05 47.5 12.8 52.9 18.25 55.75 12.8 52.9 9.05 47.5 5.75 42.8 1.85 38.7 L1.3 27.7 0.8 9.25 2.8 12.65 0.8 9.25 0.7 5.65 3.05 6.45 0.7 5.65 -1.55 4.85 -2.6 4.5 Q0.3 3.15 -0.05 2.85 L3.05 3.05 -0.05 2.85 -1.65 2.1 -3.25 1.3 -5.1 0.35 -6.1 -0.25 -5.8 -0.9 -5.65 -1.3 -5.65 -1.35 -5.5 -1.75 -5.45 -1.85 -5.2 -2.5 -5.1 -2.7 -5.1 -2.75 -4.9 -3.25 -4.85 -3.3 -4.75 -3.55 -4.05 -4.7 -3.75 -5.15 -3.55 -5.7 Q-1.55 -1.8 3.05 2.9 L3.05 3.05 3.1 3.05 5.1 2.75 5.95 2.6 10.3 4.5 10.85 4.75 10.9 4.75 10.95 9.1 10.95 10.0 10.95 10.5 7.75 7.1 10.95 10.5 10.85 21.55 10.8 22.25 6.1 17.0 10.8 22.25 10.7 26.35 12.55 25.7 15.0 24.85 14.45 16.35 14.3 14.6 14.15 13.45 14.05 11.95 13.9 10.35 12.95 2.4 12.75 0.8 12.7 0.5 12.25 -2.45 12.25 -2.5 12.4 -2.7 12.6 -3.25 12.6 -3.4 12.6 -3.55 12.55 -3.95 12.6 -3.55 12.6 -3.4 12.6 -3.25 12.4 -2.7 12.25 -2.5 12.15 -2.4 11.75 -2.1 11.7 -2.1 11.05 -1.95 11.0 -1.95 10.65 -2.0 10.6 -2.0 10.55 -2.05 10.5 -2.1 Q10.15 -2.2 9.9 -2.4 9.45 -2.9 9.45 -3.55 9.45 -4.2 9.9 -4.65 L10.35 -4.95 10.75 -5.1 11.0 -5.1 11.65 -5.0 12.15 -4.65 12.25 -4.5 12.3 -4.45 12.5 -4.05 12.55 -3.95 13.0 -3.15 13.05 -3.0 13.1 -2.4 13.1 -2.3 Q13.1 -0.9 12.7 0.5 13.1 -0.9 13.1 -2.3 L14.0 1.5 14.7 5.35 14.95 7.15 15.1 8.0 15.6 13.05 15.65 13.2 M-8.5 66.6 L-10.8 65.45 -10.85 65.45 -19.7 61.0 Q-16.3 60.2 -13.0 55.9 -10.85 53.15 -8.75 48.95 -6.65 45.55 -6.35 41.2 -6.1 37.9 -6.35 34.15 L-6.65 30.85 -6.65 30.75 -6.7 30.8 -6.9 29.1 -6.9 29.05 -7.1 27.05 -7.25 25.75 -7.55 23.25 -8.1 18.95 -8.15 18.45 Q-8.6 15.2 -8.55 12.2 L-8.55 9.25 Q-6.65 5.5 -3.55 4.7 L-4.0 21.45 Q-6.85 17.25 -8.55 12.2 -6.85 17.25 -4.0 21.45 L-4.3 32.8 -4.6 46.05 Q-4.95 53.6 -5.75 57.3 L-6.15 58.75 Q-7.4 59.85 -7.05 60.4 L-7.0 60.4 Q-7.0 61.15 -8.25 61.4 L-9.75 61.55 -11.25 61.45 -9.85 64.55 Q-7.65 64.75 -6.0 63.75 -3.9 62.4 -2.7 59.0 -1.95 56.8 -1.55 53.75 L-1.55 59.85 -1.55 60.4 Q-1.95 61.7 -5.15 64.15 L-8.5 66.6 M-11.5 0.6 L-11.5 0.55 Q-15.4 -1.45 -16.05 -2.65 L-11.95 -17.9 -12.0 -18.6 -12.0 -18.65 -12.05 -19.55 -11.95 -19.55 -12.0 -19.75 Q-11.9 -21.0 -11.25 -22.3 -10.4 -24.15 -8.95 -25.1 L-8.9 -25.15 -8.95 -25.15 -8.75 -25.4 -8.45 -25.6 -7.55 -26.2 -4.95 -27.65 Q-3.8 -25.6 -3.55 -23.2 -3.4 -20.65 -4.35 -19.4 L-4.45 -19.15 -4.55 -18.7 -4.65 -18.25 -4.85 -17.85 Q-5.7 -16.35 -6.9 -17.5 L-6.95 -17.6 -7.7 -16.9 -7.75 -16.9 -12.25 -4.65 -6.45 -0.4 Q-9.55 -1.8 -11.5 0.6 M-0.85 -29.65 Q-1.75 -30.1 -0.6 -30.85 -1.45 -31.4 -0.5 -32.1 L2.05 -32.05 Q3.05 -31.5 4.15 -31.05 L5.95 -30.55 Q3.45 -28.45 -0.85 -29.65 M9.4 -42.75 L9.45 -43.15 Q9.45 -43.8 9.05 -44.2 L8.3 -44.6 8.25 -44.6 8.3 -44.6 9.05 -44.2 Q9.45 -43.8 9.45 -43.15 L9.4 -42.75 M8.7 -39.2 L9.05 -38.85 9.1 -38.85 8.75 -38.65 8.7 -39.2 M9.5 -39.35 L9.65 -40.45 9.5 -41.55 9.2 -42.0 Q9.7 -41.8 9.95 -40.7 L10.0 -40.5 9.5 -39.35 M7.0 -41.95 L7.05 -42.0 7.1 -42.5 Q7.1 -43.1 6.7 -43.55 L6.6 -43.6 6.95 -44.2 6.6 -43.6 6.7 -43.55 Q7.1 -43.1 7.1 -42.5 L7.05 -42.0 7.2 -41.9 7.05 -42.0 7.0 -41.95 M8.7 -40.85 L8.65 -41.05 8.75 -41.45 8.95 -41.55 9.2 -41.45 9.25 -41.3 9.3 -41.05 9.2 -40.7 8.95 -40.55 8.75 -40.7 8.7 -40.85 M6.1 -39.6 L6.45 -37.5 5.8 -37.2 5.9 -37.35 6.15 -38.7 6.1 -39.6 M4.9 -37.0 L3.8 -37.25 Q3.85 -38.85 4.6 -40.0 L4.65 -40.05 4.55 -39.85 4.5 -39.75 4.45 -39.45 4.4 -38.7 Q4.4 -37.95 4.65 -37.35 L4.9 -37.0 M4.55 -39.85 L4.6 -40.0 4.55 -39.85 M4.7 -39.15 L4.65 -39.5 4.8 -39.9 5.1 -40.05 5.45 -39.9 5.5 -39.8 5.6 -39.5 5.45 -39.05 5.1 -38.85 4.8 -39.05 4.7 -39.15 M14.2 -20.5 L14.15 -20.55 14.2 -20.5 M3.75 -8.8 L4.3 -8.45 Q4.8 -8.0 4.8 -7.3 L4.8 -7.2 4.8 -7.0 4.3 -6.1 4.2 -6.0 3.9 -5.8 3.85 -5.8 3.15 -5.6 2.75 -5.65 2.65 -5.7 2.6 -5.75 2.65 -5.7 2.65 -5.65 2.6 -5.75 Q2.2 -5.85 1.95 -6.1 1.45 -6.6 1.5 -7.3 1.45 -8.0 1.95 -8.45 L2.1 -8.6 Q2.55 -8.95 3.15 -8.95 L3.75 -8.8 M4.6 -3.9 L4.7 -3.8 Q5.15 -3.35 5.2 -2.65 L5.2 -2.55 5.2 -2.4 4.95 -1.75 4.7 -1.45 4.65 -1.45 4.25 -1.15 3.55 -1.0 3.1 -1.05 3.0 -1.1 2.95 -1.1 3.0 -1.1 3.0 -1.05 2.95 -1.1 Q2.75 -1.15 2.65 -1.25 L2.35 -1.45 Q1.85 -1.95 1.85 -2.65 1.85 -3.35 2.35 -3.8 L2.7 -4.1 3.55 -4.3 4.2 -4.15 4.6 -3.9 M9.85 -6.8 L9.25 -7.15 Q8.8 -7.6 8.85 -8.25 8.8 -8.9 9.25 -9.35 L9.5 -9.6 10.1 -9.85 10.15 -9.85 10.4 -9.85 11.1 -9.65 11.5 -9.35 Q11.95 -8.9 11.95 -8.25 L11.95 -8.15 11.95 -8.0 11.5 -7.15 11.1 -6.85 11.05 -6.85 10.4 -6.7 10.05 -6.75 9.85 -6.8 M10.95 -14.55 L10.75 -14.6 10.95 -14.65 10.95 -14.55 M11.0 -14.9 L11.0 -14.95 11.05 -14.9 11.0 -14.9 M10.6 -2.0 L10.55 -2.05 10.6 -2.0 M14.7 5.35 L14.4 7.75 13.9 10.35 14.4 7.75 14.7 5.35 M9.0 5.95 L9.95 5.35 10.85 4.75 9.95 5.35 9.0 5.95 7.55 6.95 7.75 7.1 9.0 5.95 M5.5 7.3 L6.45 7.6 7.55 6.95 6.45 7.6 5.5 7.3 3.05 6.45 2.9 10.25 2.8 12.65 Q2.65 19.7 1.95 27.9 L6.35 26.5 6.1 17.0 5.95 14.6 5.5 7.3 M5.1 2.75 Q6.6 4.05 9.95 5.35 6.6 4.05 5.1 2.75 M9.95 5.35 Q3.35 3.45 -2.6 4.5 3.35 3.45 9.95 5.35 M15.95 20.7 Q15.4 18.45 14.45 16.35 15.4 18.45 15.95 20.7 M15.5 31.85 Q14.35 28.8 12.55 25.7 14.35 28.8 15.5 31.85 M8.2 37.55 L8.15 37.55 8.2 37.55 M6.9 32.9 L5.8 31.75 6.9 32.9 M5.05 31.0 L3.15 29.4 1.3 27.7 3.15 29.4 5.05 31.0 M20.75 60.65 L23.0 60.2 20.75 60.65 M19.25 56.25 L22.05 57.4 19.25 56.25 M9.6 36.15 Q13.45 41.25 16.35 48.1 13.45 41.25 9.6 36.15 M17.4 65.4 L15.35 65.5 17.4 65.4 M14.05 65.45 L8.5 64.4 14.05 65.45 M6.45 55.25 Q13.35 60.8 19.5 60.75 13.35 60.8 6.45 55.25 M4.5 53.6 L2.5 51.7 4.5 53.6 M1.2 -41.1 Q0.8 -40.8 0.35 -40.8 -0.3 -40.8 -0.7 -41.25 L-0.8 -41.35 Q-1.15 -41.75 -1.1 -42.3 -1.15 -42.9 -0.7 -43.35 L0.0 -43.7 -0.7 -43.35 Q-1.15 -42.9 -1.1 -42.3 -1.15 -41.75 -0.8 -41.35 L-0.7 -41.25 Q-0.3 -40.8 0.35 -40.8 0.8 -40.8 1.2 -41.1 L1.25 -41.1 1.2 -41.1 M-0.8 -41.35 L-1.2 -41.3 Q-1.8 -41.35 -2.25 -41.75 L-2.3 -41.85 -2.45 -42.05 -2.55 -42.3 -2.65 -42.8 Q-2.65 -43.4 -2.25 -43.85 L-1.85 -44.1 -1.7 -44.2 -1.4 -44.25 -1.7 -44.2 -1.85 -44.1 -2.25 -43.85 Q-2.65 -43.4 -2.65 -42.8 L-2.55 -42.3 -2.45 -42.05 -2.3 -41.85 -2.25 -41.75 Q-1.8 -41.35 -1.2 -41.3 L-0.8 -41.35 M1.4 -41.25 L1.3 -41.95 Q1.25 -42.55 1.65 -42.95 1.25 -42.55 1.3 -41.95 L1.4 -41.25 M-2.55 -42.3 L-2.95 -42.25 -3.4 -42.3 -2.95 -42.25 -2.55 -42.3 M-5.0 -23.45 L-4.9 -23.5 -4.9 -23.55 -5.0 -23.45 M-0.1 -15.7 Q-0.5 -16.2 -0.5 -16.85 -0.5 -17.6 0.05 -18.15 0.6 -18.7 1.35 -18.7 2.15 -18.7 2.7 -18.15 3.2 -17.6 3.2 -16.85 L3.2 -16.7 3.2 -16.65 3.2 -16.5 2.7 -15.5 2.2 -15.2 2.15 -15.2 1.35 -15.0 0.95 -15.05 0.75 -15.1 Q0.35 -15.25 0.05 -15.5 L-0.1 -15.7 M-5.9 -19.15 L-6.95 -17.6 -5.9 -19.15 M-3.25 1.3 L-4.9 -3.25 -3.25 1.3 M-7.25 25.75 Q-6.15 30.5 -4.3 32.8 -6.15 30.5 -7.25 25.75 M-12.0 59.1 Q-12.85 57.65 -13.0 55.9 -12.85 57.65 -12.0 59.1 M-4.6 46.05 L-6.35 41.2 -4.6 46.05 M-11.3 60.1 L-9.75 61.55 -11.3 60.1 M-2.7 59.0 L-1.55 59.85 -2.7 59.0 M-8.2 53.85 Q-8.95 51.8 -8.75 48.95 -8.95 51.8 -8.2 53.85 M-6.95 56.15 L-5.75 57.3 -6.95 56.15 M7.2 63.9 Q5.0 63.05 2.8 61.8 5.0 63.05 7.2 63.9 M-6.0 63.75 L-5.15 64.15 -6.0 63.75 M1.8 67.7 L0.05 67.05 1.8 67.7 M8.4 69.0 L2.9 68.05 8.4 69.0 M4.15 -31.05 L-0.6 -30.85 4.15 -31.05" fill="#ced0d5" fill-rule="evenodd" stroke="none"/>
    <path d="M10.1 -42.8 L10.15 -41.95 10.15 -41.85 10.1 -40.7 10.1 -40.55 10.1 -40.5 10.15 -39.9 10.15 -39.7 10.0 -35.4 Q9.0 -33.1 7.15 -30.8 L8.35 -30.75 8.45 -30.75 9.0 -30.7 9.3 -30.7 9.7 -30.65 10.1 -30.6 Q10.5 -29.3 10.45 -27.8 10.3 -24.4 7.65 -20.1 L4.35 -21.15 Q-2.4 -23.6 -4.95 -27.65 -1.95 -27.7 -0.85 -29.65 3.45 -28.45 5.95 -30.55 L4.15 -31.05 Q3.05 -31.5 2.05 -32.05 L0.4 -33.3 2.05 -32.05 -0.5 -32.1 Q-0.25 -33.45 -0.6 -34.45 L-0.55 -34.45 -0.6 -34.55 -1.1 -35.45 -1.2 -35.5 -1.5 -35.75 -1.7 -36.0 -1.7 -36.05 Q-2.15 -37.2 -2.25 -38.3 L-2.2 -38.85 -2.2 -39.3 Q-1.9 -40.55 -0.6 -40.1 L-0.4 -40.0 -0.2 -39.9 Q0.75 -38.05 0.35 -33.4 L0.25 -33.4 -0.55 -34.45 0.25 -33.4 0.3 -33.35 0.35 -33.35 0.3 -33.15 0.4 -33.3 0.45 -33.35 0.5 -33.4 Q1.35 -35.0 1.3 -37.9 1.1 -39.2 1.25 -41.1 L1.4 -41.25 1.7 -40.9 1.75 -40.8 Q2.05 -40.55 2.45 -40.5 L2.75 -40.45 Q3.35 -40.45 3.8 -40.9 L4.1 -41.3 4.15 -41.45 4.2 -41.9 4.2 -41.95 4.2 -42.2 Q4.25 -41.75 4.6 -41.45 5.0 -41.0 5.65 -41.0 6.25 -41.0 6.7 -41.45 L7.0 -41.85 7.0 -41.95 7.2 -41.9 7.75 -41.7 8.0 -41.7 Q8.6 -41.7 9.05 -42.1 L9.35 -42.5 9.4 -42.75 9.6 -42.75 10.1 -42.8 M24.05 -9.45 L28.25 -8.05 28.55 -5.25 29.05 13.65 29.9 -5.05 Q29.95 -6.7 29.35 -7.7 L31.6 -6.95 31.95 -4.8 Q32.7 13.65 33.3 54.3 L27.6 56.4 27.6 53.5 27.1 53.85 Q25.55 54.85 24.05 56.25 L24.05 2.0 Q20.25 8.0 15.8 13.0 L15.6 13.05 15.1 8.0 14.95 7.15 Q19.15 2.25 22.2 -6.25 L24.05 -5.95 24.05 -9.45 M-2.35 69.75 L-2.8 71.55 -2.9 76.85 -9.6 73.55 -8.9 68.55 -8.5 66.6 -5.15 64.15 Q-1.95 61.7 -1.55 60.4 L-1.55 59.85 -1.55 53.75 -1.55 52.8 -1.55 4.85 -1.55 52.8 -1.55 53.75 Q-1.95 56.8 -2.7 59.0 -3.9 62.4 -6.0 63.75 -7.65 64.75 -9.85 64.55 L-11.25 61.45 -9.75 61.55 -8.25 61.4 Q-7.0 61.15 -7.0 60.4 L-7.05 60.4 Q-7.4 59.85 -6.15 58.75 L-5.75 57.3 Q-4.95 53.6 -4.6 46.05 L-4.3 32.8 -4.0 21.45 -3.55 4.7 Q-6.65 5.5 -8.55 9.25 L-8.55 12.2 Q-8.6 15.2 -8.15 18.45 L-8.1 18.95 -7.55 23.25 -7.25 25.75 -7.1 27.05 -6.9 29.05 -6.9 29.1 -6.7 30.8 -6.7 30.85 -6.65 30.85 -6.35 34.15 Q-8.25 32.9 -9.45 30.3 -12.95 22.65 -13.25 13.2 -13.6 3.8 -11.5 0.6 -9.55 -1.8 -6.45 -0.4 L-6.1 -0.25 -5.1 0.35 -3.25 1.3 -1.65 2.1 -0.05 2.85 Q0.3 3.15 -2.6 4.5 L-1.55 4.85 0.7 5.65 0.8 9.25 1.3 27.7 1.85 38.7 2.5 51.7 Q2.95 58.25 2.8 61.45 L2.8 61.8 Q2.6 63.3 1.25 65.35 L0.05 67.05 -2.35 69.75 M7.15 -30.8 L6.85 -30.4 5.95 -30.55 6.85 -30.4 7.15 -30.8 M9.2 -42.0 L9.1 -42.0 8.7 -41.75 8.5 -41.5 8.5 -41.45 8.55 -41.45 8.55 -41.05 8.55 -40.35 8.5 -39.8 8.55 -39.85 8.7 -39.2 8.75 -38.65 9.1 -38.85 9.45 -39.3 9.5 -39.35 10.0 -40.5 9.95 -40.7 Q9.7 -41.8 9.2 -42.0 M5.75 -40.5 L5.75 -40.55 5.6 -40.55 5.6 -40.5 Q5.0 -40.45 4.65 -40.05 L4.6 -40.0 Q3.85 -38.85 3.8 -37.25 L4.9 -37.0 5.8 -37.2 6.45 -37.5 6.1 -39.6 5.9 -40.05 5.75 -40.5 M8.15 -35.9 Q9.0 -35.6 8.9 -36.7 8.65 -37.15 8.55 -37.8 L8.45 -38.6 8.5 -39.8 8.45 -38.6 8.55 -37.8 Q8.65 -37.15 8.9 -36.7 9.0 -35.6 8.15 -35.9 M13.75 -17.6 L13.55 -16.85 13.55 -16.8 Q12.75 -12.85 11.1 -9.65 L10.4 -9.85 10.15 -9.85 10.1 -9.85 9.5 -9.6 Q10.7 -12.1 10.95 -14.55 L10.95 -14.65 11.0 -14.7 11.0 -14.75 11.05 -14.9 11.0 -14.95 11.0 -14.9 10.95 -14.9 10.75 -14.6 Q9.65 -13.35 8.1 -12.5 L3.85 -12.65 3.6 -12.75 2.8 -13.15 Q2.9 -10.9 3.75 -8.8 L3.15 -8.95 Q2.55 -8.95 2.1 -8.6 -0.1 -12.05 -0.1 -15.5 L0.05 -15.5 Q0.35 -15.25 0.75 -15.1 L0.85 -14.95 0.95 -15.05 1.35 -15.0 2.15 -15.2 2.2 -15.2 2.7 -15.5 3.2 -16.5 3.2 -16.65 Q8.15 -15.9 11.1 -18.6 L11.55 -17.9 11.6 -17.9 Q11.9 -17.55 12.4 -17.45 L12.85 -17.4 13.0 -17.4 13.75 -17.6 M6.3 -33.4 L8.6 -34.6 6.3 -33.4 M4.35 -21.3 L4.4 -21.25 4.45 -21.2 4.35 -21.3 M5.4 -23.25 Q6.95 -22.0 7.65 -20.1 6.95 -22.0 5.4 -23.25 M4.2 -6.0 L4.6 -3.9 4.2 -4.15 3.55 -4.3 2.7 -4.1 2.65 -5.65 2.75 -5.65 3.15 -5.6 3.85 -5.8 3.9 -5.8 4.2 -6.0 M4.65 -1.45 L5.1 2.75 3.1 3.05 3.05 2.9 3.05 1.75 3.0 -1.05 3.1 -1.05 3.55 -1.0 4.25 -1.15 4.65 -1.45 M10.85 3.75 L10.7 0.6 10.6 -2.0 10.65 -2.0 11.0 -1.95 11.05 -1.95 11.7 -2.1 11.75 -2.1 12.15 -2.4 12.25 -2.45 12.7 0.5 12.75 0.8 12.95 2.4 13.9 10.35 14.05 11.95 14.15 13.45 14.3 14.6 14.45 16.35 15.0 24.85 12.55 25.7 10.7 26.35 10.8 22.25 10.85 21.55 10.95 10.5 10.95 10.0 10.95 9.1 10.9 4.75 10.85 4.3 10.85 3.75 M10.35 -4.95 L9.85 -6.7 10.05 -6.75 10.4 -6.7 11.05 -6.85 11.65 -5.0 11.0 -5.1 10.75 -5.1 10.35 -4.95 M12.4 -17.45 L11.65 -15.9 11.0 -14.95 11.65 -15.9 12.4 -17.45 M24.05 2.0 L24.05 -2.45 24.05 -5.95 24.05 -2.45 24.05 2.0 M29.4 28.8 L29.05 13.65 29.4 28.8 M5.5 7.3 L5.95 14.6 6.1 17.0 6.35 26.5 1.95 27.9 Q2.65 19.7 2.8 12.65 L2.9 10.25 3.05 6.45 5.5 7.3 M15.8 13.0 Q20.55 6.2 24.05 -2.45 20.55 6.2 15.8 13.0 M25.8 17.05 L25.8 0.65 25.8 17.05 M29.5 33.45 L29.45 31.45 29.5 33.45 M25.8 22.15 L25.8 18.1 25.8 22.15 M25.8 26.2 L25.8 24.65 25.8 26.2 M29.85 48.4 L29.8 45.7 29.85 48.4 M29.9 50.05 L29.95 52.25 Q28.75 52.75 27.6 53.5 28.75 52.75 29.95 52.25 L29.9 50.05 M-1.5 -39.25 L-0.9 -38.3 -0.7 -37.5 -0.7 -37.3 -1.05 -37.25 -1.2 -36.4 -1.05 -37.25 -0.7 -37.3 -0.7 -37.5 -0.9 -38.3 -1.5 -39.25 M0.85 -14.95 Q1.75 -13.8 2.8 -13.15 1.75 -13.8 0.85 -14.95 M-5.95 62.1 L-7.0 60.4 -5.95 62.1 M-3.55 4.7 L-2.6 4.5 -3.55 4.7 M-8.0 66.9 L-8.5 66.6 -8.0 66.9 M-1.65 2.1 Q-4.75 0.8 -7.1 2.85 -10.2 5.6 -10.4 14.05 -10.2 5.6 -7.1 2.85 -4.75 0.8 -1.65 2.1 M-10.4 14.05 L-10.4 14.3 -10.35 14.1 -10.4 14.05 M-10.35 14.1 Q-9.8 11.6 -8.55 9.25 -9.8 11.6 -10.35 14.1 M-10.4 14.3 Q-10.5 25.0 -6.7 30.8 -10.5 25.0 -10.4 14.3 M0.25 55.85 L0.2 56.7 0.25 55.85 M0.1 57.65 Q-0.3 60.85 -1.25 61.35 -0.3 60.85 0.1 57.65 M-7.3 67.25 L-3.65 69.1 -7.3 67.25" fill="#e6e7e8" fill-rule="evenodd" stroke="none"/>
    <path d="M8.7 -41.75 L9.1 -42.0 9.2 -42.0 9.5 -41.55 9.65 -40.45 9.5 -39.35 9.45 -39.3 9.1 -38.85 9.05 -38.85 8.7 -39.2 8.55 -39.85 8.55 -40.35 8.55 -39.85 8.5 -39.8 8.55 -40.35 8.55 -41.05 8.55 -41.45 8.6 -41.55 8.7 -41.75 M8.7 -40.85 L8.65 -40.45 8.75 -39.8 Q8.85 -39.5 9.05 -39.5 L9.35 -39.8 9.45 -40.5 9.35 -41.15 9.25 -41.3 9.2 -41.45 8.95 -41.55 8.75 -41.45 8.65 -41.05 8.7 -40.85 M5.75 -40.55 L5.75 -40.5 5.6 -40.5 5.6 -40.55 5.75 -40.55 M5.9 -40.05 L6.1 -39.6 6.15 -38.7 5.9 -37.35 5.8 -37.2 4.9 -37.0 4.65 -37.35 Q4.4 -37.95 4.4 -38.7 L4.45 -39.45 4.5 -39.7 4.5 -39.75 4.55 -39.85 4.65 -40.05 Q5.0 -40.45 5.6 -40.5 L5.9 -40.05 M5.5 -39.8 L5.45 -39.9 5.1 -40.05 4.8 -39.9 4.65 -39.5 4.7 -39.15 4.7 -38.7 4.9 -37.9 Q5.05 -37.55 5.3 -37.55 L5.7 -37.9 5.85 -38.75 5.7 -39.55 5.5 -39.8" fill="#9193a2" fill-rule="evenodd" stroke="none"/>
    <path d="M10.15 -30.6 L11.05 -30.45 10.85 -30.45 10.4 -30.55 10.15 -30.6 M8.7 -41.75 L8.55 -41.45 8.5 -41.5 8.7 -41.75" fill="#ffdfc8" fill-rule="evenodd" stroke="none"/>
    <path d="M8.7 -41.75 L8.6 -41.55 8.55 -41.45 8.7 -41.75 M9.05 -38.85 L9.1 -38.85 9.05 -38.85 M5.6 -40.5 L5.75 -40.5 5.9 -40.05 5.6 -40.5 M4.6 -40.0 L4.65 -40.05 4.6 -40.0" fill="#ffffff" fill-rule="evenodd" stroke="none"/>
    <path d="M-0.6 -34.45 L-0.6 -34.55 -0.55 -34.45 -0.6 -34.45 M9.25 -41.3 L9.35 -41.15 9.45 -40.5 9.35 -39.8 9.05 -39.5 Q8.85 -39.5 8.75 -39.8 L8.65 -40.45 8.7 -40.85 8.75 -40.7 8.95 -40.55 9.2 -40.7 9.3 -41.05 9.25 -41.3 M4.7 -39.15 L4.8 -39.05 5.1 -38.85 5.45 -39.05 5.6 -39.5 5.5 -39.8 5.7 -39.55 5.85 -38.75 5.7 -37.9 5.3 -37.55 Q5.05 -37.55 4.9 -37.9 L4.7 -38.7 4.7 -39.15 M11.0 -14.9 L11.05 -14.9 11.0 -14.75 11.0 -14.85 11.0 -14.9 M-5.0 -23.45 L-4.9 -23.55 -4.9 -23.5 -5.0 -23.45" fill="#737688" fill-rule="evenodd" stroke="none"/>
    <path d="M12.4 -25.25 L12.45 -25.1 12.4 -25.2 12.4 -25.25 M-8.95 -25.15 L-8.9 -25.15 -8.95 -25.1 -8.95 -25.15" fill="#af937e" fill-rule="evenodd" stroke="none"/>
    <path d="M4.35 -21.3 L4.45 -21.2 4.4 -21.25 4.35 -21.3 M8.2 37.55 L8.15 37.55 8.2 37.55" fill="#afb1ba" fill-rule="evenodd" stroke="none"/>
    <path d="M10.55 -2.05 L10.5 -2.1 10.55 -2.05 M-5.8 -0.9 L-5.75 -1.0 -5.65 -1.3 -5.8 -0.9" fill="#858898" fill-rule="evenodd" stroke="none"/>
    <path d="M10.6 -2.0 L10.5 -2.1 10.55 -2.05 10.6 -2.0" fill="#bec1c5" fill-rule="evenodd" stroke="none"/>
    <path d="M-4.4 -44.0 L-4.4 -44.05 -4.35 -43.8 -4.4 -44.0" fill="#fdffc1" fill-rule="evenodd" stroke="none"/>
    <path d="M-2.25 -38.3 L-2.25 -39.15 -2.2 -39.3 -2.2 -38.85 -2.25 -38.3" fill="#fdd85b" fill-rule="evenodd" stroke="none"/>
    <path d="M-12.05 -19.55 L-12.0 -19.75 -11.95 -19.55 -12.05 -19.55" fill="#9e7865" fill-rule="evenodd" stroke="none"/>
    <path d="M12.25 -68.8 Q13.25 -65.4 12.25 -62.85 M5.55 -52.15 Q6.8 -54.0 6.8 -57.6 L6.65 -61.05 6.3 -62.45 Q5.2 -65.8 2.05 -68.85 -1.8 -72.55 -1.5 -76.9 -5.85 -74.35 -3.8 -64.05 -2.25 -60.5 0.45 -56.5 4.95 -49.9 3.0 -43.35 L3.05 -43.35 3.7 -43.05 3.8 -43.0 4.1 -42.45 4.2 -42.2 4.2 -41.95 4.2 -41.9 4.15 -41.45 4.1 -41.3 3.8 -40.9 Q3.35 -40.45 2.75 -40.45 L2.45 -40.5 Q2.05 -40.55 1.75 -40.8 L1.7 -40.9 1.4 -41.25 1.25 -41.1 Q1.1 -39.2 1.3 -37.9 1.35 -35.0 0.5 -33.4 L0.45 -33.35 0.4 -33.3 2.05 -32.05 Q3.05 -31.5 4.15 -31.05 L5.95 -30.55 6.85 -30.4 7.15 -30.8 8.35 -30.75 8.45 -30.75 9.0 -30.7 9.3 -30.7 9.7 -30.65 10.1 -30.6 10.15 -30.6 11.05 -30.45 13.0 -29.85 13.2 -29.75 13.55 -29.5 14.3 -28.85 Q15.05 -28.0 15.6 -26.7 L15.85 -26.05 Q16.35 -24.65 16.3 -23.65 L15.95 -22.15 19.1 -11.1 24.05 -9.45 28.25 -8.05 29.35 -7.7 31.6 -6.95 33.8 -8.9 37.55 -9.5 36.3 -7.3 37.95 -6.05 43.7 -5.1 39.3 -2.35 34.45 -4.3 31.95 -4.8 Q32.7 13.65 33.3 54.3 L27.6 56.4 27.6 53.5 27.1 53.85 Q25.55 54.85 24.05 56.25 L24.05 2.0 Q20.25 8.0 15.8 13.0 L15.65 13.2 15.95 20.7 15.5 31.85 14.9 37.95 Q14.95 43.65 16.35 48.1 L17.65 51.45 Q19.35 54.9 22.05 57.4 L29.3 61.0 M4.2 -42.5 Q4.15 -43.1 4.6 -43.55 L5.05 -43.85 5.15 -43.85 5.65 -43.95 5.95 -43.9 6.6 -43.6 6.65 -44.3 M6.95 -44.2 L7.05 -44.35 Q7.05 -45.05 7.45 -45.7 L7.5 -45.75 8.15 -46.5 Q8.65 -47.0 9.5 -47.45 M20.45 -61.45 L19.8 -61.4 18.6 -60.55 M14.75 -62.4 L13.95 -61.85 M14.75 -62.4 Q16.15 -67.6 10.55 -74.25 10.45 -66.3 6.3 -62.45 M19.8 -61.4 Q24.3 -65.1 21.8 -72.9 20.0 -66.2 14.75 -62.4 M28.1 -63.1 Q28.75 -64.1 28.6 -65.5 28.4 -66.9 28.95 -67.3 26.95 -67.4 25.4 -64.8 23.75 -61.7 20.45 -61.45 24.35 -61.7 26.9 -62.6 L28.1 -63.1 Q33.0 -65.5 30.75 -71.2 39.25 -64.65 32.6 -55.75 26.25 -48.85 18.5 -48.75 10.7 -48.65 10.2 -45.6 L10.65 -45.25 Q11.1 -44.85 11.1 -44.25 11.1 -43.65 10.65 -43.2 L10.55 -43.1 10.1 -42.8 10.15 -41.95 10.15 -41.85 10.1 -40.7 10.1 -40.55 10.1 -40.5 10.15 -39.9 10.15 -39.7 10.0 -35.4 Q9.0 -33.1 7.15 -30.8 M-2.35 69.75 L-2.8 71.55 -2.9 76.85 -9.6 73.55 -8.9 68.55 M-10.8 65.45 L-10.85 65.45 M-19.7 61.0 Q-16.3 60.2 -13.0 55.9 -10.85 53.15 -8.75 48.95 -6.65 45.55 -6.35 41.2 -6.1 37.9 -6.35 34.15 -8.25 32.9 -9.45 30.3 -12.95 22.65 -13.25 13.2 -13.6 3.8 -11.5 0.6 L-11.5 0.55 Q-15.4 -1.45 -16.05 -2.65 L-11.95 -17.9 -12.0 -18.6 -12.0 -18.65 -12.05 -19.55 -12.0 -19.75 Q-11.9 -21.0 -11.25 -22.3 -10.4 -24.15 -8.95 -25.1 L-8.95 -25.15 -8.75 -25.4 -8.45 -25.6 -7.55 -26.2 -4.95 -27.65 Q-1.95 -27.7 -0.85 -29.65 -1.75 -30.1 -0.6 -30.85 -1.45 -31.4 -0.5 -32.1 -0.25 -33.45 -0.6 -34.45 L-0.6 -34.55 -1.1 -35.45 -1.2 -35.5 -1.5 -35.75 -1.7 -36.0 -1.7 -36.05 -2.5 -37.5 -3.05 -39.4 -3.4 -42.3 -4.0 -42.65 -4.1 -42.75 -4.2 -42.85 -4.45 -43.7 -4.4 -44.0 -4.4 -44.05 -4.1 -44.65 Q-10.65 -46.5 -17.1 -44.7 -29.95 -41.2 -40.95 -59.25 L-43.75 -63.8 Q-33.7 -57.4 -30.6 -57.45 -39.75 -62.85 -42.35 -69.65 -33.45 -62.85 -29.2 -61.7 -31.05 -66.1 -31.95 -72.2 -29.5 -68.0 -25.35 -65.15 -25.6 -67.5 -24.6 -69.2 -24.5 -66.0 -22.05 -63.25 -19.9 -62.2 -17.45 -61.45 -20.55 -67.2 -20.1 -72.6 -17.75 -68.6 -14.25 -65.7 -12.65 -68.35 -9.6 -71.05 -8.15 -72.25 -7.65 -74.15 L-7.55 -70.55 Q-6.7 -71.65 -6.2 -73.35 L-5.6 -70.05 Q-5.2 -67.25 -3.8 -64.05 M6.8 -57.6 Q8.15 -59.3 11.35 -60.4 M10.2 -45.6 L9.6 -45.7 Q9.0 -45.7 8.55 -45.25 8.35 -45.1 8.25 -44.6 L8.3 -44.6 9.05 -44.2 Q9.45 -43.8 9.45 -43.15 L9.4 -42.75 9.6 -42.75 10.1 -42.8 M9.4 -42.75 L9.35 -42.5 9.05 -42.1 Q8.6 -41.7 8.0 -41.7 L7.75 -41.7 7.2 -41.9 7.05 -42.0 7.0 -41.95 7.0 -41.85 6.7 -41.45 Q6.25 -41.0 5.65 -41.0 5.0 -41.0 4.6 -41.45 4.25 -41.75 4.2 -42.2 L4.2 -42.5 M9.2 -42.0 L9.1 -42.0 8.7 -41.75 8.55 -41.45 8.5 -41.5 8.5 -41.45 M8.55 -41.45 L8.55 -41.05 8.55 -40.35 8.55 -39.85 8.7 -39.2 8.75 -38.65 9.1 -38.85 9.45 -39.3 9.5 -39.35 10.0 -40.5 9.95 -40.7 Q9.7 -41.8 9.2 -42.0 M10.55 -43.1 L10.55 -43.15 M7.05 -44.35 L8.0 -44.6 8.25 -44.6 M6.6 -43.6 L6.95 -44.2 M6.6 -43.6 L6.7 -43.55 Q7.1 -43.1 7.1 -42.5 L7.05 -42.0 M8.7 -41.75 L8.5 -41.5 M8.55 -40.35 L8.5 -39.8 8.55 -39.85 M5.75 -40.5 L5.75 -40.55 M5.6 -40.5 L5.75 -40.5 5.9 -40.05 6.1 -39.6 6.45 -37.5 5.8 -37.2 4.9 -37.0 3.8 -37.25 Q3.85 -38.85 4.6 -40.0 L4.65 -40.05 Q5.0 -40.45 5.6 -40.5 M4.6 -40.0 L4.65 -40.05 M4.6 -40.0 L4.55 -39.85 M8.5 -39.8 L8.45 -38.6 8.55 -37.8 Q8.65 -37.15 8.9 -36.7 9.0 -35.6 8.15 -35.9 M4.7 -46.55 Q5.3 -48.35 6.7 -49.45 M8.15 -50.95 Q9.35 -51.65 14.15 -51.95 18.95 -52.3 25.95 -55.6 M10.4 -30.55 L10.15 -30.6 M10.4 -30.55 L12.35 -25.25 12.4 -25.2 12.45 -25.1 12.6 -24.65 Q12.8 -24.0 13.5 -23.1 14.2 -22.2 14.15 -20.55 L14.2 -20.5 Q14.65 -19.95 14.7 -19.2 14.7 -18.6 14.35 -18.1 L14.15 -17.9 13.8 -17.6 13.75 -17.6 13.55 -16.85 13.55 -16.8 16.55 -7.1 22.2 -6.25 24.05 -5.95 24.05 -9.45 M8.6 -34.6 L6.3 -33.4 M12.4 -25.25 L12.4 -25.2 M10.1 -30.6 Q10.5 -29.3 10.45 -27.8 10.3 -24.4 7.65 -20.1 L4.35 -21.15 Q-2.4 -23.6 -4.95 -27.65 -3.8 -25.6 -3.55 -23.2 -3.4 -20.65 -4.35 -19.4 L-4.45 -19.15 -4.55 -18.7 -4.65 -18.25 -4.65 -17.85 -4.65 -17.3 Q-4.65 -15.25 -3.35 -13.7 L-2.85 -13.2 Q-2.1 -12.45 -1.15 -12.05 M14.15 -20.55 Q13.6 -21.05 12.85 -21.05 12.1 -21.05 11.55 -20.55 11.0 -20.0 11.0 -19.2 L11.1 -18.6 11.55 -17.9 11.6 -17.9 Q11.9 -17.55 12.4 -17.45 L12.85 -17.4 13.0 -17.4 13.75 -17.6 M7.65 -20.1 Q6.95 -22.0 5.4 -23.25 M10.75 -14.6 Q9.65 -13.35 8.1 -12.5 L3.85 -12.65 3.6 -12.75 2.8 -13.15 Q2.9 -10.9 3.75 -8.8 L4.3 -8.45 Q4.8 -8.0 4.8 -7.3 L4.8 -7.2 4.8 -7.0 4.3 -6.1 4.2 -6.0 4.6 -3.9 4.7 -3.8 Q5.15 -3.35 5.2 -2.65 L5.2 -2.55 5.2 -2.4 4.95 -1.75 4.7 -1.45 4.65 -1.45 5.1 2.75 5.95 2.6 10.3 4.5 10.85 3.75 10.7 0.6 10.6 -2.0 10.65 -2.0 11.0 -1.95 11.05 -1.95 11.7 -2.1 11.75 -2.1 12.15 -2.4 12.25 -2.5 12.25 -2.45 12.7 0.5 Q13.1 -0.9 13.1 -2.3 L13.1 -2.4 13.05 -3.0 13.0 -3.15 12.55 -3.95 12.5 -4.05 12.3 -4.45 12.25 -4.5 12.15 -4.65 11.65 -5.0 11.05 -6.85 11.1 -6.85 11.5 -7.15 11.95 -8.0 11.95 -8.15 11.95 -8.25 Q11.95 -8.9 11.5 -9.35 L11.1 -9.65 10.4 -9.85 10.15 -9.85 10.1 -9.85 9.5 -9.6 Q10.7 -12.1 10.95 -14.55 L10.95 -14.65 11.0 -14.85 11.0 -14.7 10.95 -14.65 10.75 -14.6 10.95 -14.9 11.0 -14.9 11.0 -14.95 11.65 -15.9 12.4 -17.45 M10.5 -2.1 Q10.15 -2.2 9.9 -2.4 9.45 -2.9 9.45 -3.55 9.45 -4.2 9.9 -4.65 L10.35 -4.95 9.85 -6.7 9.85 -6.8 9.25 -7.15 Q8.8 -7.6 8.85 -8.25 8.8 -8.9 9.25 -9.35 L9.5 -9.6 M11.0 -14.9 L11.05 -14.9 11.0 -14.75 11.0 -14.7 M24.95 -59.25 Q19.1 -57.55 13.95 -54.8 M29.9 -5.05 Q29.95 -6.7 29.35 -7.7 M28.25 -8.05 L28.55 -5.25 29.9 -5.05 29.05 13.65 29.4 28.8 M24.05 -5.95 L24.05 -2.45 24.05 2.0 M31.95 -4.8 L31.6 -6.95 34.45 -4.3 M28.55 -5.25 L29.05 13.65 M11.05 -6.85 L10.4 -6.7 10.05 -6.75 9.85 -6.8 M10.35 -4.95 L10.75 -5.1 11.0 -5.1 11.65 -5.0 M4.2 -6.0 L3.9 -5.8 3.85 -5.8 3.15 -5.6 2.75 -5.65 2.65 -5.7 2.6 -5.75 Q2.2 -5.85 1.95 -6.1 1.45 -6.6 1.5 -7.3 1.45 -8.0 1.95 -8.45 L2.1 -8.6 Q2.55 -8.95 3.15 -8.95 L3.75 -8.8 M2.65 -5.65 L2.7 -4.1 3.55 -4.3 4.2 -4.15 4.6 -3.9 M3.9 -5.8 L4.2 -6.0 M3.1 -1.05 L3.55 -1.0 4.25 -1.15 4.65 -1.45 M12.55 -3.95 L12.6 -3.55 12.6 -3.4 12.6 -3.25 12.4 -2.7 12.25 -2.5 M10.55 -2.05 L10.5 -2.1 10.55 -2.05 10.6 -2.0 M13.1 -2.4 L13.1 -2.3 14.0 1.5 14.7 5.35 14.95 7.15 Q19.15 2.25 22.2 -6.25 M12.7 0.5 L12.75 0.8 12.95 2.4 13.9 10.35 14.4 7.75 14.7 5.35 M12.25 -4.5 L11.1 -6.85 M10.3 4.5 L10.85 4.75 10.9 4.75 10.85 4.3 10.85 3.75 M10.85 4.75 L9.95 5.35 9.0 5.95 7.75 7.1 10.95 10.5 10.95 10.0 10.95 9.1 10.9 4.75 M7.75 7.1 L7.55 6.95 6.45 7.6 5.5 7.3 5.95 14.6 6.1 17.0 10.8 22.25 10.85 21.55 10.95 10.5 M9.0 5.95 L7.55 6.95 M9.95 5.35 Q6.6 4.05 5.1 2.75 L3.1 3.05 3.05 3.05 -0.05 2.85 Q0.3 3.15 -2.6 4.5 3.35 3.45 9.95 5.35 M13.9 10.35 L14.05 11.95 14.15 13.45 14.3 14.6 14.45 16.35 Q15.4 18.45 15.95 20.7 M15.6 13.05 L15.65 13.2 M15.6 13.05 L15.1 8.0 14.95 7.15 M14.45 16.35 L15.0 24.85 12.55 25.7 Q14.35 28.8 15.5 31.85 M5.8 31.75 L6.9 32.9 M12.55 25.7 L10.7 26.35 10.8 22.25 M6.1 17.0 L6.35 26.5 1.95 27.9 Q2.65 19.7 2.8 12.65 L0.8 9.25 1.3 27.7 3.15 29.4 5.05 31.0 M25.8 24.65 L25.8 26.2 M25.8 18.1 L25.8 22.15 M29.45 31.45 L29.5 33.45 M25.8 0.65 L25.8 17.05 M24.05 -2.45 Q20.55 6.2 15.8 13.0 M13.55 -16.8 Q12.75 -12.85 11.1 -9.65 M33.1 -66.55 Q34.55 -61.65 30.15 -59.7 M27.6 53.5 Q28.75 52.75 29.95 52.25 L29.9 50.05 M29.8 45.7 L29.85 48.4 M22.05 57.4 L19.25 56.25 M23.0 60.2 L20.75 60.65 M18.25 55.75 Q12.8 52.9 9.05 47.5 5.75 42.8 1.85 38.7 L2.5 51.7 4.5 53.6 M19.5 60.75 Q13.35 60.8 6.45 55.25 M8.5 64.4 L14.05 65.45 M15.35 65.5 L17.4 65.4 M16.35 48.1 Q13.45 41.25 9.6 36.15 M-22.05 -63.25 Q-23.8 -64.1 -25.35 -65.15 M-17.45 -61.45 L-15.4 -60.6 -15.3 -61.7 Q-17.6 -65.0 -18.8 -68.2 M-7.55 -70.55 L-8.25 -69.05 M-11.85 -66.9 L-12.1 -66.0 M-14.25 -65.7 L-14.65 -65.1 -15.1 -63.15 M-15.3 -61.7 L-15.2 -62.5 M-12.15 -52.65 Q-14.55 -54.65 -15.15 -57.7 -15.45 -59.05 -15.4 -60.6 M-29.2 -61.7 L-27.35 -58.3 Q-23.3 -52.4 -15.15 -50.35 L-11.15 -49.55 M1.65 -42.95 L1.4 -43.35 1.3 -43.4 0.9 -43.65 0.65 -43.7 0.35 -43.75 0.0 -43.7 -0.7 -43.35 Q-1.15 -42.9 -1.1 -42.3 -1.15 -41.75 -0.8 -41.35 L-0.7 -41.25 Q-0.3 -40.8 0.35 -40.8 0.8 -40.8 1.2 -41.1 L1.25 -41.1 M0.0 -43.7 L-0.15 -43.85 -0.25 -43.9 -0.9 -44.25 -1.2 -44.25 -1.4 -44.25 -1.7 -44.2 -1.85 -44.1 -2.25 -43.85 Q-2.65 -43.4 -2.65 -42.8 L-2.55 -42.3 -2.45 -42.05 -2.3 -41.85 -2.25 -41.75 Q-1.8 -41.35 -1.2 -41.3 L-0.8 -41.35 M3.0 -43.35 L2.75 -43.4 Q2.1 -43.4 1.7 -43.0 L1.65 -42.95 Q1.25 -42.55 1.3 -41.95 L1.4 -41.25 M-13.3 -52.7 Q-10.3 -49.35 -6.1 -48.45 -4.0 -47.85 -2.5 -47.0 L-2.0 -46.7 M-4.1 -44.65 L-4.0 -44.75 -3.65 -45.0 -3.0 -45.15 -2.55 -45.1 -2.4 -45.05 -1.9 -44.75 Q-2.4 -46.0 -3.8 -47.05 M-1.9 -44.75 L-1.4 -44.25 M-3.4 -42.3 L-2.95 -42.25 -2.55 -42.3 M-2.2 -39.3 L-2.25 -39.15 -2.25 -38.3 -2.2 -38.85 -2.2 -39.3 Q-1.9 -40.55 -0.6 -40.1 L-0.4 -40.0 -0.2 -39.9 Q0.75 -38.05 0.35 -33.4 L0.35 -33.35 0.3 -33.15 0.4 -33.3 M-1.7 -36.05 Q-2.15 -37.2 -2.25 -38.3 M-1.2 -36.4 L-1.05 -37.25 -0.7 -37.3 -0.7 -37.5 -0.9 -38.3 -1.5 -39.25 M-11.2 -63.8 Q-13.0 -55.3 -6.9 -52.1 -1.15 -49.85 0.7 -47.95 M3.0 -43.35 Q3.7 -46.55 1.55 -48.75 M-23.8 -48.5 Q-28.35 -50.1 -32.5 -54.35 M-21.15 -47.8 L-22.8 -48.2 M-33.35 -55.3 L-34.4 -56.55 M-30.6 -57.45 L-27.15 -55.9 M-0.6 -34.55 L-0.55 -34.45 0.25 -33.4 0.3 -33.35 0.35 -33.35 M-0.5 -32.1 L2.05 -32.05 M-8.95 -25.1 L-8.95 -25.15 -8.95 -25.1 -8.9 -25.15 M-6.9 -17.5 L-6.95 -17.6 -7.7 -16.9 -7.75 -16.9 -12.25 -4.65 -6.45 -0.4 -6.1 -0.25 -5.8 -0.9 -5.75 -1.0 -5.65 -1.3 -5.65 -1.35 -5.5 -1.75 -5.45 -1.85 -5.2 -2.5 -5.1 -2.7 -5.1 -2.75 -4.9 -3.25 -4.85 -3.3 -4.75 -3.55 -4.05 -4.7 -3.75 -5.15 -3.55 -5.7 -3.25 -6.8 -3.15 -7.3 Q-2.9 -9.3 -3.8 -11.25 L-5.25 -13.7 -6.1 -15.45 -6.5 -16.45 -6.9 -17.5 Q-5.7 -16.35 -4.85 -17.85 L-4.65 -18.25 M3.2 -16.65 L3.2 -16.7 3.2 -16.85 Q3.2 -17.6 2.7 -18.15 2.15 -18.7 1.35 -18.7 0.6 -18.7 0.05 -18.15 -0.5 -17.6 -0.5 -16.85 -0.5 -16.2 -0.1 -15.7 L0.05 -15.5 Q0.35 -15.25 0.75 -15.1 L0.95 -15.05 1.35 -15.0 2.15 -15.2 2.2 -15.2 2.7 -15.5 3.2 -16.5 3.2 -16.65 Q8.15 -15.9 11.1 -18.6 M0.75 -15.1 L0.85 -14.95 Q1.75 -13.8 2.8 -13.15 M-0.1 -15.7 L-0.1 -15.5 Q-0.1 -12.05 2.1 -8.6 M-6.95 -17.6 L-5.9 -19.15 M2.65 -5.65 L2.65 -5.7 M-1.65 2.1 L-3.25 1.3 -5.1 0.35 -6.1 -0.25 M-5.8 -0.9 L-5.65 -1.3 M-4.9 -3.25 L-3.25 1.3 M2.7 -4.1 L2.35 -3.8 Q1.85 -3.35 1.85 -2.65 1.85 -1.95 2.35 -1.45 L2.65 -1.25 Q2.75 -1.15 2.95 -1.1 L3.0 -1.1 3.1 -1.05 M3.0 -1.05 L3.05 1.75 3.05 2.9 Q-1.55 -1.8 -3.55 -5.7 M3.0 -1.05 L3.0 -1.1 M-4.0 21.45 L-3.55 4.7 Q-6.65 5.5 -8.55 9.25 L-8.55 12.2 Q-6.85 17.25 -4.0 21.45 L-4.3 32.8 -4.6 46.05 Q-4.95 53.6 -5.75 57.3 L-6.15 58.75 Q-7.4 59.85 -7.05 60.4 L-7.0 60.4 -5.95 62.1 M3.05 3.05 L3.05 2.9 M3.05 6.45 L0.7 5.65 0.8 9.25 M-1.55 4.85 L-2.6 4.5 -3.55 4.7 M0.7 5.65 L-1.55 4.85 -1.55 52.8 -1.55 53.75 -1.55 59.85 -1.55 60.4 Q-1.95 61.7 -5.15 64.15 L-8.5 66.6 -8.0 66.9 M2.8 12.65 L2.9 10.25 3.05 6.45 5.5 7.3 M-1.65 2.1 L-0.05 2.85 M-10.4 14.05 Q-10.2 5.6 -7.1 2.85 -4.75 0.8 -1.65 2.1 M-11.5 0.6 Q-9.55 -1.8 -6.45 -0.4 M-10.4 14.05 L-10.4 14.3 -10.35 14.1 Q-9.8 11.6 -8.55 9.25 M-6.7 30.8 L-6.9 29.1 -6.9 29.05 -7.1 27.05 -7.25 25.75 -7.55 23.25 -8.1 18.95 -8.15 18.45 Q-8.6 15.2 -8.55 12.2 M-6.7 30.85 L-6.7 30.8 -6.7 30.85 -6.65 30.75 -6.65 30.85 -6.35 34.15 M-4.3 32.8 Q-6.15 30.5 -7.25 25.75 M-6.7 30.8 Q-10.5 25.0 -10.4 14.3 M-5.55 -63.15 Q-4.3 -57.65 -0.7 -54.15 M-31.15 -59.9 Q-33.0 -60.95 -34.45 -62.35 M-28.5 -64.85 Q-23.05 -55.9 -15.4 -53.75 M-0.45 -67.75 Q2.6 -64.1 3.4 -60.4 M-6.35 41.2 L-4.6 46.05 M-13.0 55.9 Q-12.85 57.65 -12.0 59.1 M-7.0 60.4 Q-7.0 61.15 -8.25 61.4 L-9.75 61.55 -11.25 61.45 -9.85 64.55 Q-7.65 64.75 -6.0 63.75 -3.9 62.4 -2.7 59.0 -1.95 56.8 -1.55 53.75 M-9.75 61.55 L-11.3 60.1 M0.2 56.7 L0.25 55.85 M-1.55 59.85 L-2.7 59.0 M-1.25 61.35 Q-0.3 60.85 0.1 57.65 M2.5 51.7 Q2.95 58.25 2.8 61.45 L2.8 61.8 Q5.0 63.05 7.2 63.9 M-5.75 57.3 L-6.95 56.15 M-8.75 48.95 Q-8.95 51.8 -8.2 53.85 M0.05 67.05 L-2.35 69.75 M2.8 61.8 Q2.6 63.3 1.25 65.35 L0.05 67.05 1.8 67.7 M-5.15 64.15 L-6.0 63.75 M-3.65 69.1 L-7.3 67.25 M1.3 27.7 L1.85 38.7 M2.9 68.05 L8.4 69.0 M-0.85 -29.65 Q3.45 -28.45 5.95 -30.55 M-0.6 -30.85 L4.15 -31.05" fill="none" stroke="#565865" stroke-linecap="round" stroke-linejoin="round" stroke-width="0.05"/>
  </g>
</svg>
