<?xml version="1.0" encoding="UTF-8" standalone="no"?>
<svg xmlns:xlink="http://www.w3.org/1999/xlink" height="82.7px" width="33.95px" xmlns="http://www.w3.org/2000/svg">
  <g transform="matrix(1.0, 0.0, 0.0, 1.0, 17.0, 41.35)">
    <path d="M3.8 -39.15 L3.95 -39.15 6.8 -36.95 6.9 -36.9 6.8 -36.9 6.75 -36.9 3.8 -39.15 M-12.15 41.15 L-12.3 41.25 -15.6 38.9 -16.9 32.9 -15.0 29.4 -13.45 24.0 -8.65 18.45 -5.45 20.9 -10.15 26.3 -11.7 31.7 -13.6 35.2 -12.3 41.2 -12.15 41.15 M-4.35 24.2 L-4.0 24.05 -4.0 24.1 -0.8 26.35 -3.85 26.05 -4.35 24.2 M-7.8 -24.35 L-7.7 -34.0 -9.05 -41.25 -2.9 -40.25 0.0 -38.0 -5.75 -38.95 -4.3 -31.85 -4.5 -22.05 -4.5 -21.65 -7.8 -24.35" fill="#413f41" fill-rule="evenodd" stroke="none"/>
    <path d="M-2.9 -40.25 L3.8 -39.15 6.75 -36.9 0.4 -37.95 0.0 -38.0 -2.9 -40.25 M-4.0 24.1 L-3.85 24.05 -3.65 -0.1 -5.25 -12.75 -7.75 -20.2 -7.8 -24.35 -4.5 -21.65 -4.45 -17.9 -1.95 -10.45 -0.35 2.2 -0.55 26.35 -0.7 26.4 -0.7 26.35 -0.8 26.35 -4.0 24.1" fill="#726d6d" fill-rule="evenodd" stroke="none"/>
    <path d="M7.1 -36.85 L7.25 -36.85 14.65 -3.65 16.85 26.75 9.0 30.65 7.1 -36.85 M0.15 35.05 L-12.15 41.15 -12.3 41.2 -13.6 35.2 -11.7 31.7 -10.15 26.3 -5.45 20.9 -5.35 20.75 -4.35 24.2 -3.85 26.05 -0.8 26.35 -0.7 26.35 -0.7 26.4 0.15 35.05 M0.0 -38.0 L0.4 -37.95 0.05 -20.45 -4.5 -22.05 -4.3 -31.85 -5.75 -38.95 0.0 -38.0" fill="#8a8286" fill-rule="evenodd" stroke="none"/>
    <path d="M6.9 -36.9 L7.1 -36.85 9.0 30.65 0.15 35.05 -0.7 26.4 -0.55 26.35 -0.35 2.2 -1.95 -10.45 -4.45 -17.9 -4.5 -21.65 -4.5 -22.05 0.05 -20.45 0.4 -37.95 6.75 -36.9 6.8 -36.9 6.9 -36.9" fill="#c7c3c4" fill-rule="evenodd" stroke="none"/>
    <path d="M-2.9 -40.25 L3.8 -39.15" fill="none" stroke="#000000" stroke-linecap="round" stroke-linejoin="round" stroke-width="0.25"/>
    <path d="M3.8 -39.15 L3.95 -39.15 6.8 -36.95 6.9 -36.9 M7.1 -36.85 L7.25 -36.85 14.65 -3.65 16.85 26.75 9.0 30.65 0.15 35.05 -12.15 41.15 -12.3 41.25 -15.6 38.9 -16.9 32.9 -15.0 29.4 -13.45 24.0 -8.65 18.45 -5.45 20.9 -5.35 20.75 -4.35 24.2 M-4.0 24.1 L-3.85 24.05 -3.65 -0.1 -5.25 -12.75 -7.75 -20.2 -7.8 -24.35 -7.7 -34.0 -9.05 -41.25 -2.9 -40.25 Z" fill="none" stroke="#000000" stroke-linecap="round" stroke-linejoin="round" stroke-width="0.25"/>
  </g>
</svg>
