<?xml version="1.0" encoding="UTF-8" standalone="no"?>
<svg xmlns:xlink="http://www.w3.org/1999/xlink" height="68.0px" width="56.0px" xmlns="http://www.w3.org/2000/svg">
  <g transform="matrix(1.0, 0.0, 0.0, 1.0, 27.35, 34.0)">
    <path d="M-4.7 31.85 L-21.15 12.2 -26.05 -1.95 -27.25 -12.0 -23.65 -9.85 -22.6 -1.6 -17.95 11.5 0.05 32.7 -4.7 31.85 M-23.55 -9.85 L-23.55 -9.8 -23.55 -9.85 M-10.2 2.4 L-6.9 2.6 7.0 -10.1 10.85 -20.1 11.95 -28.0 15.1 -30.8 19.8 -29.65 16.85 -27.0 15.75 -19.1 11.9 -9.1 -2.0 3.6 -8.7 3.15 -10.2 2.4" fill="#413f41" fill-rule="evenodd" stroke="none"/>
    <path d="M26.9 -25.5 L27.05 -25.05 28.55 -12.9 28.45 11.25 25.15 11.05 25.05 11.05 24.75 10.0 23.5 6.0 23.65 6.1 23.5 5.9 19.65 10.45 18.7 11.35 17.25 16.35 12.5 13.2 24.7 -18.0 24.45 -24.65 26.9 -25.5 M11.95 28.45 L6.2 31.3 10.15 23.9 11.95 28.45 M-23.65 -9.85 L-23.65 -9.9 -23.55 -9.85 -23.55 -9.8 -19.65 -7.55 -17.5 -1.35 -10.2 2.4 -8.7 3.15 -2.0 3.6 11.9 -9.1 15.75 -19.1 16.85 -27.0 19.8 -29.65 20.0 -29.8 18.3 -16.0 8.5 11.4 2.3 8.4 -8.1 9.0 -4.7 15.0 5.1 20.4 0.2 32.85 0.05 32.7 -17.95 11.5 -22.6 -1.6 -23.65 -9.85 M23.65 6.1 L24.75 10.0 25.15 11.05 24.75 10.0 23.65 6.1" fill="#8a8286" fill-rule="evenodd" stroke="none"/>
    <path d="M0.95 33.7 L-3.8 32.9 -4.7 31.85 0.05 32.7 0.2 32.85 0.95 33.7 M15.1 -30.8 L18.5 -33.85 19.45 -33.9 24.35 -32.95 24.35 -32.9 23.4 -32.85 20.0 -29.8 19.8 -29.65 15.1 -30.8" fill="#726d6d" fill-rule="evenodd" stroke="none"/>
    <path d="M17.25 16.35 L17.0 17.1 15.3 20.2 16.4 26.15 11.95 28.45 10.15 23.9 6.2 31.3 1.1 33.9 0.95 33.7 0.2 32.85 5.1 20.4 -4.7 15.0 -8.1 9.0 2.3 8.4 8.5 11.4 18.3 -16.0 20.0 -29.8 23.4 -32.85 24.35 -32.9 26.9 -25.5 24.45 -24.65 24.7 -18.0 12.5 13.2 17.25 16.35" fill="#c7c3c4" fill-rule="evenodd" stroke="none"/>
    <path d="M26.9 -25.5 L27.05 -25.05 28.55 -12.9 28.45 11.25 25.15 11.05 25.15 11.15 25.15 11.05 24.75 10.0 23.65 6.1 23.5 5.9 19.65 10.45 18.7 11.35 17.25 16.35 17.0 17.1 15.3 20.2 16.4 26.15 11.95 28.45 6.2 31.3 1.1 33.9 0.95 33.7 -3.8 32.9 -4.7 31.85 -21.15 12.2 -26.05 -1.95 -27.25 -12.0 -23.65 -9.85 M-23.55 -9.8 L-19.65 -7.55 -17.5 -1.35 -10.2 2.4 -6.9 2.6 7.0 -10.1 10.85 -20.1 11.95 -28.0 15.1 -30.8 18.5 -33.85 19.45 -33.9 24.35 -32.95 24.35 -32.9 26.9 -25.5 Z" fill="none" stroke="#000000" stroke-linecap="round" stroke-linejoin="round" stroke-width="0.25"/>
  </g>
</svg>
