<?xml version="1.0" encoding="UTF-8" standalone="no"?>
<svg xmlns:xlink="http://www.w3.org/1999/xlink" height="62.5px" width="51.95px" xmlns="http://www.w3.org/2000/svg">
  <g transform="matrix(1.0, 0.0, 0.0, 1.0, 26.0, 31.25)">
    <path d="M14.1 -30.35 L17.45 -28.15 17.4 -28.15 13.95 -28.6 13.6 -28.65 10.65 -30.8 14.1 -30.35 M-22.45 8.85 L-22.6 9.0 -22.05 17.5 -22.0 17.5 -22.05 17.55 -25.3 15.3 -25.35 15.3 -25.9 6.8 -25.75 6.6 -22.45 8.85 M0.75 -16.8 L3.95 -14.55 0.45 -12.0 -2.9 -14.15 0.75 -16.8 M-20.35 -1.9 L-20.3 -2.0 -21.7 -7.35 -18.0 -15.85 -14.7 -13.55 -18.4 -5.15 -17.0 0.2 -17.05 0.25 -20.35 -1.9" fill="#413f41" fill-rule="evenodd" stroke="none"/>
    <path d="M17.4 -28.15 L20.9 -12.55 15.3 -5.95 13.9 -9.75 9.5 -4.95 0.9 11.85 -8.9 19.65 -22.0 17.5 -22.05 17.5 -22.6 9.0 -22.45 8.85 -22.45 8.8 -17.3 13.65 -6.5 8.85 -3.7 12.85 1.9 6.05 7.3 -7.15 9.9 -14.55 13.95 -28.6 17.4 -28.15 M3.95 -14.55 L4.05 -14.6 1.1 -1.15 -4.1 9.65 -5.1 7.05 0.9 -4.75 0.4 -11.95 0.45 -12.0 3.95 -14.55 M-10.15 -10.9 L-9.1 -4.65 -11.7 3.05 -17.05 0.3 -17.05 0.25 -17.0 0.2 -18.4 -5.15 -14.7 -13.55 -14.7 -13.65 -14.0 -13.1 -11.45 -11.05 -10.15 -10.9" fill="#8a8286" fill-rule="evenodd" stroke="none"/>
    <path d="M-22.45 8.8 L-22.45 8.85 -25.75 6.6 -20.35 -1.9 -17.05 0.25 -17.05 0.3 -22.45 8.8 M13.6 -28.65 L11.15 -28.95 8.0 -17.45 4.05 -14.6 3.95 -14.55 0.75 -16.8 4.7 -19.65 7.85 -31.15 10.65 -30.8 13.6 -28.65 M0.4 -11.95 L-2.25 -10.05 -10.15 -10.9 -11.45 -11.05 -14.0 -13.1 -5.55 -12.25 -2.9 -14.15 0.45 -12.0 0.4 -11.95" fill="#6a6666" fill-rule="evenodd" stroke="none"/>
    <path d="M17.45 -28.15 L24.2 -27.35 24.2 -27.3 25.75 -20.25 25.85 -10.1 Q23.35 -11.3 20.9 -12.55 L17.4 -28.15 17.45 -28.15 M13.6 -28.65 L13.95 -28.6 9.9 -14.55 7.3 -7.15 1.9 6.05 -3.7 12.85 -6.5 8.85 -17.3 13.65 -22.45 8.8 -17.05 0.3 -11.7 3.05 -9.1 -4.65 -10.15 -10.9 -2.25 -10.05 0.4 -11.95 0.9 -4.75 -5.1 7.05 -4.1 9.65 1.1 -1.15 4.05 -14.6 8.0 -17.45 11.15 -28.95 13.6 -28.65" fill="#c7c3c4" fill-rule="evenodd" stroke="none"/>
    <path d="M24.2 -27.3 L24.2 -27.35 17.45 -28.15 14.1 -30.35 20.9 -29.55 24.2 -27.35 24.2 -27.3" fill="#726d6d" fill-rule="evenodd" stroke="none"/>
    <path d="M20.9 -12.55 Q23.35 -11.3 25.85 -10.1 L25.85 -5.45 18.4 0.7 17.9 7.2 13.25 18.05 Q6.5 24.9 -0.5 31.15 L-7.0 30.75 -15.65 26.55 -16.0 26.35 -18.1 20.3 -22.05 17.6 -22.05 17.55 -22.0 17.5 -8.9 19.65 0.9 11.85 9.5 -4.95 13.9 -9.75 15.3 -5.95 20.9 -12.55" fill="#b1a59a" fill-rule="evenodd" stroke="none"/>
    <path d="M24.2 -27.3 L24.2 -27.35 20.9 -29.55 14.1 -30.35 10.65 -30.8 7.85 -31.15 4.7 -19.65 0.75 -16.8 -2.9 -14.15 -5.55 -12.25 -14.0 -13.1 -14.7 -13.65 -14.7 -13.55 -18.0 -15.85 -21.7 -7.35 -20.3 -2.0 -20.35 -1.9 -25.75 6.6 -25.9 6.8 -25.35 15.3 -25.3 15.3 -25.35 15.4 -18.2 20.25 -16.1 26.35 -15.65 26.55 -7.0 30.75 -0.5 31.15 Q6.5 24.9 13.25 18.05 L17.9 7.2 18.4 0.7 25.85 -5.45 25.85 -10.1 25.75 -20.25 24.2 -27.3 Z" fill="none" stroke="#000000" stroke-linecap="round" stroke-linejoin="round" stroke-width="0.25"/>
  </g>
</svg>
