<?xml version="1.0" encoding="UTF-8" standalone="no"?>
<svg xmlns:xlink="http://www.w3.org/1999/xlink" height="45.75px" width="46.7px" xmlns="http://www.w3.org/2000/svg">
  <g transform="matrix(1.0, 0.0, 0.0, 1.0, 23.35, 22.85)">
    <path d="M-5.45 -15.0 L-1.7 -12.65 -4.4 -8.75 -6.0 -13.75 -10.5 -13.25 -10.65 -13.25 -14.25 -15.6 -9.75 -16.1 -6.25 -13.85 -5.45 -15.0" fill="#413f41" fill-rule="evenodd" stroke="none"/>
    <path d="M5.5 -19.2 L4.0 -20.95 -1.7 -12.65 -5.45 -15.0 0.0 -22.75 4.2 -20.9 5.5 -19.2" fill="#726d6d" fill-rule="evenodd" stroke="none"/>
    <path d="M-1.7 -12.65 L8.75 8.9 -9.8 18.25 -10.5 -13.25 -6.0 -13.75 -4.4 -8.75 -1.7 -12.65" fill="#8a8286" fill-rule="evenodd" stroke="none"/>
    <path d="M-18.45 22.6 L-18.5 22.8 -22.35 20.3 -23.25 -14.5 -19.95 -17.9 -16.2 -15.5 -19.5 -12.15 -18.6 22.65 -18.45 22.6" fill="#5f5a56" fill-rule="evenodd" stroke="none"/>
    <path d="M-18.45 22.6 L-18.6 22.65 -19.5 -12.15 -16.2 -15.5 -16.2 -15.55 -16.05 -15.4 -14.7 -14.05 -14.45 20.6 -18.45 22.6" fill="#8d8781" fill-rule="evenodd" stroke="none"/>
    <path d="M-14.25 -15.6 L-10.65 -13.25 -13.6 -12.95 -14.7 -14.05 -16.05 -15.4 -14.25 -15.6" fill="#5b4f48" fill-rule="evenodd" stroke="none"/>
    <path d="M-10.65 -13.25 L-10.5 -13.25 -9.8 18.25 -14.45 20.6 -14.7 -14.05 -13.6 -12.95 -10.65 -13.25" fill="#b1a59a" fill-rule="evenodd" stroke="none"/>
    <path d="M-1.7 -12.65 L4.0 -20.95 5.5 -19.2 23.25 1.6 8.75 8.9 -1.7 -12.65" fill="#c7c3c4" fill-rule="evenodd" stroke="none"/>
    <path d="M5.5 -19.2 L4.2 -20.9 0.0 -22.75 -5.45 -15.0 -6.25 -13.85 -9.75 -16.1 -14.25 -15.6 -16.05 -15.4 M8.75 8.9 L23.25 1.6 5.5 -19.2 M-16.2 -15.5 L-19.95 -17.9 -23.25 -14.5 -22.35 20.3 -18.5 22.8 -18.45 22.6 -14.45 20.6 -9.8 18.25 8.75 8.9" fill="none" stroke="#000000" stroke-linecap="round" stroke-linejoin="round" stroke-width="0.25"/>
  </g>
</svg>
