<?xml version="1.0" encoding="UTF-8" standalone="no"?>
<svg xmlns:xlink="http://www.w3.org/1999/xlink" height="68.85px" width="29.95px" xmlns="http://www.w3.org/2000/svg">
  <g transform="matrix(1.0, 0.0, 0.0, 1.0, 15.0, 34.4)">
    <path d="M11.65 -31.9 L11.9 -31.7 14.85 -29.15 11.55 -20.95 12.9 -15.1 7.25 -6.85 8.3 9.4 13.55 22.15 7.9 30.4 4.45 14.65 4.05 -12.15 10.25 -30.55 11.65 -31.9" fill="#c7c3c4" fill-rule="evenodd" stroke="none"/>
    <path d="M11.65 -31.9 L11.9 -31.75 11.9 -31.7 11.65 -31.9 10.25 -30.55 10.1 -30.4 6.45 -32.95 7.85 -34.3 11.65 -31.9" fill="#726d6d" fill-rule="evenodd" stroke="none"/>
    <path d="M7.9 30.4 L5.2 34.35 3.55 29.35 -0.9 29.7 -1.35 5.85 -0.8 -19.35 -0.55 -19.7 10.1 -30.4 10.25 -30.55 4.05 -12.15 4.45 14.65 7.9 30.4" fill="#8a8286" fill-rule="evenodd" stroke="none"/>
    <path d="M-4.6 -21.75 L-4.35 -22.1 6.45 -32.95 10.1 -30.4 -0.55 -19.7 -0.8 -19.35 -0.9 -19.2 -4.6 -21.75" fill="#413f41" fill-rule="evenodd" stroke="none"/>
    <path d="M-0.9 29.7 L-4.05 30.05 -5.2 29.0 -6.05 -12.6 -0.9 -19.2 -0.8 -19.35 -1.35 5.85 -0.9 29.7" fill="#b1a59a" fill-rule="evenodd" stroke="none"/>
    <path d="M-9.85 -15.0 L-4.6 -21.75 -0.9 -19.2 -6.05 -12.6 -6.1 -12.5 -6.1 -12.6 -9.85 -15.0" fill="#5b4f48" fill-rule="evenodd" stroke="none"/>
    <path d="M-5.2 29.0 L-6.65 27.55 -9.95 30.85 -9.95 30.75 -11.1 -6.1 -6.1 -12.5 -6.05 -12.6 -5.2 29.0" fill="#8d8781" fill-rule="evenodd" stroke="none"/>
    <path d="M-9.95 30.75 L-13.65 28.4 -14.9 -8.5 -9.85 -15.0 -6.1 -12.6 -6.1 -12.5 -11.1 -6.1 -9.95 30.75" fill="#5f5a56" fill-rule="evenodd" stroke="none"/>
    <path d="M11.9 -31.7 L14.85 -29.15 11.55 -20.95 12.9 -15.1 7.25 -6.85 8.3 9.4 13.55 22.15 7.9 30.4 5.2 34.35 3.55 29.35 -0.9 29.7 -4.05 30.05 -5.2 29.0 -6.65 27.55 -9.95 30.85 -9.95 30.75 -13.65 28.4 -14.9 -8.5 -9.85 -15.0 -4.6 -21.75 -4.35 -22.1 6.45 -32.95 7.85 -34.3 11.65 -31.9" fill="none" stroke="#000000" stroke-linecap="round" stroke-linejoin="round" stroke-width="0.25"/>
  </g>
</svg>
