<?xml version="1.0" encoding="UTF-8" standalone="no"?>
<svg xmlns:xlink="http://www.w3.org/1999/xlink" height="111.85px" width="91.95px" xmlns="http://www.w3.org/2000/svg">
  <g transform="matrix(1.0, 0.0, 0.0, 1.0, 45.95, 55.9)">
    <path d="M9.6 -55.55 L13.05 -55.1 16.4 -52.9 16.35 -52.9 12.9 -53.35 12.55 -53.4 9.6 -55.55 M20.2 -54.05 L20.1 -54.45 26.25 -53.45 29.15 -51.2 23.4 -52.15 24.85 -45.05 24.75 -40.15 24.7 -45.0 23.15 -52.05 23.15 -52.1 20.2 -54.05 M32.95 -52.35 L33.1 -52.35 35.95 -50.15 36.05 -50.1 35.95 -50.1 35.9 -50.1 32.95 -52.35 M17.0 27.95 L16.85 28.05 16.55 27.85 16.65 27.75 15.8 23.1 16.85 28.0 17.0 27.95 M-35.65 -31.25 L-35.4 -31.6 -24.6 -42.45 -20.95 -39.9 -31.6 -29.2 -31.85 -28.85 -31.95 -28.7 -35.65 -31.25 M-3.95 -38.9 L-0.3 -41.55 2.9 -39.3 -0.6 -36.75 -3.95 -38.9 M-23.6 -15.75 L-23.65 -15.75 -23.1 -7.25 -23.05 -7.25 -23.1 -7.2 -23.2 -7.25 -23.75 -15.8 -23.6 -15.75 M-18.05 -24.65 L-18.2 -24.7 -18.85 -27.65 -18.05 -24.65 M17.5 17.95 L17.6 17.6 17.7 17.7 17.45 18.5 15.6 21.95 15.55 21.8 17.25 18.7 17.5 17.95" fill="#413f41" fill-rule="evenodd" stroke="none"/>
    <path d="M13.05 -55.1 L19.85 -54.3 20.2 -54.05 23.15 -52.1 23.15 -52.05 23.15 -52.1 16.4 -52.9 13.05 -55.1 M26.25 -53.45 L32.95 -52.35 35.9 -50.1 29.55 -51.15 29.15 -51.2 26.25 -53.45 M1.2 35.3 L0.8 35.25 Q0.9 35.15 1.05 35.1 L1.2 35.3 M-24.6 -42.45 L-23.2 -43.8 -19.4 -41.4 -19.15 -41.25 -19.15 -41.2 -19.4 -41.4 -20.8 -40.05 -20.95 -39.9 -24.6 -42.45 M-16.0 13.95 L-17.5 12.2 -17.6 12.4 -17.75 12.05 -17.3 12.25 -16.0 13.95 M24.8 -30.75 L24.8 -30.8 25.1 -29.9 24.8 -30.75" fill="#726d6d" fill-rule="evenodd" stroke="none"/>
    <path d="M36.25 -50.05 L36.4 -50.05 43.8 -16.85 46.0 13.55 38.15 17.45 36.25 -50.05 M29.3 21.85 L17.0 27.95 16.85 28.0 15.8 23.1 15.6 21.95 17.45 18.5 17.7 17.7 17.6 17.6 17.5 17.95 12.75 14.8 24.95 -16.4 24.7 -23.05 27.15 -23.9 27.3 -23.45 28.8 -11.3 28.7 12.85 28.6 13.45 28.6 13.15 28.45 13.2 28.45 13.3 29.3 21.85 M12.2 30.05 L6.45 32.9 10.4 25.5 12.2 30.05 M-12.75 42.05 L-31.3 51.4 -32.0 20.2 -31.95 20.2 -32.4 -3.65 -31.85 -28.85 -31.6 -29.2 -20.95 -39.9 -20.8 -40.05 -27.0 -21.65 -26.6 5.15 -23.2 20.5 -23.2 20.55 -23.15 20.9 -23.05 20.8 -12.75 42.05 M-16.25 -38.6 L-16.2 -38.55 -15.75 -38.4 -15.05 -37.85 -12.5 -35.8 -11.2 -35.65 -10.15 -29.4 -12.75 -21.7 -17.5 -24.15 -18.05 -24.65 -18.85 -27.65 -19.6 -30.6 -19.5 -30.45 -16.25 -38.6 M2.9 -39.3 L3.0 -39.35 0.05 -25.9 -5.15 -15.1 -6.15 -17.7 -0.15 -29.5 -0.65 -36.7 -0.6 -36.75 2.9 -39.3 M12.9 -53.35 L16.35 -52.9 19.85 -37.3 14.25 -30.7 12.85 -34.5 8.45 -29.7 -0.15 -12.9 -9.95 -5.1 -23.05 -7.25 -23.1 -7.25 -23.65 -15.75 -23.6 -15.75 -23.15 -15.65 -18.35 -11.1 -7.55 -15.9 -4.75 -11.9 0.85 -18.7 6.25 -31.9 8.85 -39.3 12.9 -53.35 M29.15 -51.2 L29.55 -51.15 29.2 -33.65 24.8 -35.2 24.75 -40.15 24.85 -45.05 23.4 -52.15 29.15 -51.2 M20.0 -26.25 L18.55 -14.4 8.75 13.0 2.55 10.0 -7.85 10.6 -4.45 16.6 5.35 22.0 0.8 33.65 -16.0 13.95 -17.3 12.25 -17.75 12.05 -22.05 0.3 -23.15 -6.45 -23.2 -7.25 -23.1 -7.2 -23.1 -7.15 -19.15 -4.45 -17.05 1.6 -8.05 6.0 -1.55 6.4 Q5.45 0.15 12.2 -6.7 L16.85 -17.55 17.35 -24.05 20.0 -26.25 M28.3 13.15 L28.35 13.15 28.1 13.1 28.3 13.15" fill="#8a8286" fill-rule="evenodd" stroke="none"/>
    <path d="M36.05 -50.1 L36.25 -50.05 38.15 17.45 29.3 21.85 28.45 13.3 28.45 13.2 28.6 13.15 28.6 13.45 28.7 12.85 28.8 -11.3 27.3 -23.45 27.15 -23.9 24.7 -23.05 24.95 -16.4 12.75 14.8 17.5 17.95 17.25 18.7 15.55 21.8 15.6 21.95 15.8 23.1 16.65 27.75 16.55 27.85 12.2 30.05 10.4 25.5 6.45 32.9 1.35 35.5 1.2 35.3 1.05 35.1 Q0.9 35.15 0.8 35.25 L-12.75 42.05 -23.05 20.8 -23.15 20.9 -23.2 20.55 -23.2 20.5 -26.6 5.15 -27.0 -21.65 -20.8 -40.05 -19.4 -41.4 -19.15 -41.2 -16.2 -38.65 -16.2 -38.6 -16.25 -38.6 -19.5 -30.45 -19.6 -30.6 -18.85 -27.65 -18.2 -24.7 -18.05 -24.65 -17.5 -24.15 -12.75 -21.7 -10.15 -29.4 -11.2 -35.65 -3.3 -34.8 -0.65 -36.7 -0.15 -29.5 -6.15 -17.7 -5.15 -15.1 0.05 -25.9 3.0 -39.35 6.95 -42.2 10.1 -53.7 12.55 -53.4 12.9 -53.35 8.85 -39.3 6.25 -31.9 0.85 -18.7 -4.75 -11.9 -7.55 -15.9 -18.35 -11.1 -23.15 -15.65 -23.6 -15.75 -23.75 -15.8 -23.2 -7.25 -23.15 -6.45 -22.05 0.3 -17.75 12.05 -17.6 12.4 -17.5 12.2 -16.0 13.95 0.8 33.65 5.35 22.0 -4.45 16.6 -7.85 10.6 2.55 10.0 8.75 13.0 18.55 -14.4 20.0 -26.25 24.8 -30.2 24.8 -30.75 25.1 -29.9 24.8 -30.8 24.8 -34.85 19.85 -37.3 16.35 -52.9 16.4 -52.9 23.15 -52.1 23.15 -52.05 24.7 -45.0 24.75 -40.15 24.8 -35.2 29.2 -33.65 29.55 -51.15 35.9 -50.1 35.95 -50.1 36.05 -50.1" fill="#c7c3c4" fill-rule="evenodd" stroke="none"/>
    <path d="M-0.3 -41.55 L3.65 -44.4 6.8 -55.9 9.6 -55.55 12.55 -53.4 10.1 -53.7 6.95 -42.2 3.0 -39.35 2.9 -39.3 -0.3 -41.55 M-15.05 -37.85 L-6.6 -37.0 -3.95 -38.9 -0.6 -36.75 -0.65 -36.7 -3.3 -34.8 -11.2 -35.65 -12.5 -35.8 -15.05 -37.85" fill="#6a6666" fill-rule="evenodd" stroke="none"/>
    <path d="M-31.3 51.4 L-35.95 53.75 -36.2 19.55 -36.25 19.5 -37.1 -22.1 -31.95 -28.7 -31.85 -28.85 -32.4 -3.65 -31.95 20.2 -32.0 20.2 -31.3 51.4 M-23.05 -7.25 L-9.95 -5.1 -0.15 -12.9 8.45 -29.7 12.85 -34.5 14.25 -30.7 19.85 -37.3 24.8 -34.85 24.8 -30.8 24.8 -30.75 24.8 -30.2 20.0 -26.25 17.35 -24.05 16.85 -17.55 12.2 -6.7 Q5.45 0.15 -1.55 6.4 L-8.05 6.0 -17.05 1.6 -19.15 -4.45 -23.1 -7.15 -23.1 -7.2 -23.05 -7.25" fill="#b1a59a" fill-rule="evenodd" stroke="none"/>
    <path d="M-39.95 55.75 L-40.0 55.95 -43.85 53.45 -44.75 18.65 -44.7 18.6 -45.95 -18.0 -40.9 -24.5 -37.15 -22.1 -37.15 -22.0 -42.15 -15.6 -40.1 55.8 -39.95 55.75" fill="#5f5a56" fill-rule="evenodd" stroke="none"/>
    <path d="M-40.9 -24.5 L-35.65 -31.25 -31.95 -28.7 -37.1 -22.1 -37.15 -22.0 -37.15 -22.1 -40.9 -24.5" fill="#5b4f48" fill-rule="evenodd" stroke="none"/>
    <path d="M-35.95 53.75 L-39.95 55.75 -40.1 55.8 -42.15 -15.6 -37.15 -22.0 -37.1 -22.1 -36.25 19.5 -36.2 19.55 -35.95 53.75" fill="#8d8781" fill-rule="evenodd" stroke="none"/>
  </g>
</svg>
