<?xml version="1.0" encoding="UTF-8" standalone="no"?>
<svg xmlns:xlink="http://www.w3.org/1999/xlink" height="66.8px" width="78.75px" xmlns="http://www.w3.org/2000/svg">
  <g transform="matrix(1.0, 0.0, 0.0, 1.0, 33.65, 55.9)">
    <path d="M15.5 -55.1 L22.25 -54.3 22.25 -54.25 35.0 -52.3 35.05 -52.3 35.15 -52.3 35.35 -52.25 35.5 -52.25 42.9 -19.05 45.1 10.9 -33.65 -29.9 -32.5 -31.4 -20.3 -43.6 -20.05 -43.45 -20.05 -43.4 -17.1 -40.85 -17.1 -40.8 -17.15 -40.8 -17.1 -40.75 -16.65 -40.6 -13.4 -38.0 -4.2 -37.0 -1.55 -38.9 -1.5 -38.95 6.05 -44.4 9.2 -55.9 15.45 -55.1 15.5 -55.1" fill="url(#gradient0)" fill-rule="evenodd" stroke="none"/>
  </g>
  <defs>
    <radialGradient cx="0" cy="0" gradientTransform="matrix(0.0694, 0.0, 0.0, 0.0694, 19.6, 8.0)" gradientUnits="userSpaceOnUse" id="gradient0" r="819.2" spreadMethod="pad">
      <stop offset="0.0" stop-color="#71513d" stop-opacity="0.7137255"/>
      <stop offset="1.0" stop-color="#231812"/>
    </radialGradient>
  </defs>
</svg>
