<?xml version="1.0" encoding="UTF-8" standalone="no"?>
<svg xmlns:xlink="http://www.w3.org/1999/xlink" height="135.3px" width="58.75px" xmlns="http://www.w3.org/2000/svg">
  <g transform="matrix(1.0, 0.0, 0.0, 1.0, 29.35, 67.65)">
    <path d="M26.7 -20.9 L26.7 -21.0 Q27.1 -34.3 21.55 -44.35 11.65 -62.0 -0.75 -65.8 L-11.65 -66.1 Q-5.1 -68.85 1.95 -66.7 14.35 -62.9 24.25 -45.25 30.25 -34.4 29.25 -19.75 L28.8 -19.6 28.5 -19.5 27.7 -19.2 26.55 -18.85 26.55 -18.95 26.7 -20.9" fill="#9e9e9e" fill-rule="evenodd" stroke="none"/>
    <path d="M26.7 -20.9 L26.55 -18.95 26.55 -18.85 27.7 -19.2 27.25 -18.9 27.2 -18.85 27.2 67.3 28.0 66.95 28.0 67.0 27.0 67.4 26.3 67.65 26.3 67.5 26.3 67.65 -29.35 40.5 -29.35 -46.0 -29.3 -45.95 -29.1 -45.85 -29.05 -46.05 -29.1 -45.85 -29.05 -45.85 -29.0 -45.9 -29.05 -45.85 -29.1 -45.85 -29.3 -45.95 -29.25 -46.05 -29.05 -46.05 Q-28.05 -54.55 -23.05 -59.3 -17.55 -64.6 -11.65 -66.1 -16.1 -64.3 -20.35 -60.2 -25.4 -55.35 -26.4 -46.75 L-27.8 -46.25 -26.2 -46.55 -20.35 -44.0 -20.35 -42.2 Q-19.75 -41.9 -19.25 -41.9 -19.75 -41.9 -20.35 -42.2 L-20.35 -44.0 -20.3 -49.3 -20.15 -49.3 -20.2 -49.3 -20.2 -49.35 -20.3 -49.35 -20.35 -49.4 -20.4 -49.4 -20.7 -49.5 -21.2 -49.8 -21.3 -49.85 -18.5 -60.2 -15.65 -49.85 -16.1 -49.6 -18.5 -57.65 -18.7 -49.15 -16.95 -49.25 -16.8 -49.3 -16.8 -42.6 -11.0 -39.65 -10.95 -52.5 -10.85 -52.5 -10.85 -52.45 -10.8 -52.45 -9.15 -52.3 -10.8 -52.45 -10.85 -52.45 -10.85 -52.5 -10.95 -52.5 -11.0 -52.55 -11.05 -52.55 -11.35 -52.65 -11.85 -52.95 -11.95 -53.0 -9.15 -63.35 -6.3 -53.0 -6.9 -52.7 -8.9 -61.1 -9.2 -52.35 -9.15 -52.3 -7.45 -52.45 -7.5 -38.05 Q-7.9 -37.35 -9.05 -37.25 -10.15 -37.15 -11.0 -37.65 -10.15 -37.15 -9.05 -37.25 -7.9 -37.35 -7.5 -38.05 L-2.1 -35.15 -2.05 -51.7 -1.95 -51.7 -1.95 -51.75 -2.05 -51.75 -2.1 -51.8 -2.15 -51.8 -2.45 -51.9 -2.95 -52.2 -3.05 -52.25 -0.25 -62.6 2.6 -52.25 2.3 -52.1 -0.1 -60.4 -0.05 -51.55 0.0 -51.5 0.1 -51.5 1.45 -51.6 1.55 -50.2 1.45 -50.65 1.4 -33.45 6.75 -30.6 6.85 -46.6 6.95 -46.6 6.95 -46.65 6.85 -46.65 6.8 -46.7 6.75 -46.7 6.45 -46.8 5.95 -47.1 5.85 -47.15 8.65 -57.5 11.5 -47.15 11.4 -47.1 11.05 -46.9 9.25 -54.7 9.2 -46.6 10.75 -46.75 10.55 -46.65 10.45 -46.65 10.4 -46.6 10.35 -46.6 10.25 -28.9 16.1 -26.05 16.15 -37.15 16.1 -37.2 16.05 -37.2 15.75 -37.3 15.25 -37.6 15.15 -37.65 17.95 -48.0 18.5 -46.4 20.8 -37.65 20.7 -37.6 20.4 -37.45 18.5 -46.4 18.1 -47.25 18.5 -36.95 19.35 -37.45 19.3 -37.35 19.65 -37.1 19.55 -24.35 26.7 -20.9 M28.5 -19.5 L28.8 -19.6 28.8 66.65 28.2 66.9 28.2 66.8 28.5 66.65 28.5 -19.5 M26.55 -18.95 L26.4 -18.9 26.3 -18.85 26.4 -18.9 26.55 -18.95 M26.3 -18.85 L25.3 -19.35 26.3 -18.85 M10.35 -46.6 Q8.6 -46.05 7.0 -46.6 L6.95 -46.6 7.0 -46.6 Q8.6 -46.05 10.35 -46.6 M9.7 -28.3 L9.95 -45.4 8.9 -45.25 8.9 -28.5 9.0 -28.3 9.7 -28.3 10.25 -28.9 9.7 -28.3 8.3 -28.2 Q7.3 -28.4 6.75 -29.0 7.3 -28.4 8.3 -28.2 L9.7 -28.3 M-11.0 -37.65 L-11.0 -39.65 -11.0 -37.65 M0.0 -51.5 L-1.9 -51.7 -1.95 -51.7 -1.9 -51.7 0.0 -51.5 M0.35 -50.5 L-0.55 -50.2 -0.5 -32.55 0.5 -32.9 0.35 -50.5 0.5 -50.5 0.35 -50.6 0.35 -50.5 M-9.85 -51.3 L-9.9 -37.35 -8.9 -37.7 -8.9 -51.45 -9.8 -51.35 -9.85 -51.3 M-18.3 -42.15 L-18.25 -48.55 -19.25 -48.35 -19.25 -41.9 -19.25 -41.8 -19.15 -41.9 -19.0 -42.05 -18.4 -42.1 -19.15 -41.9 -18.4 -42.1 -18.3 -42.1 -18.3 -42.15 -16.8 -42.6 -18.3 -42.15 M-28.95 -45.9 L-27.8 -46.25 -28.95 -45.9 -29.0 -45.9 -28.5 -45.6 -28.95 -45.9 M-25.85 -44.25 L-28.5 -45.6 -25.85 -44.25 -26.05 39.9 -26.85 39.5 -26.05 39.9 -20.35 42.65 -20.35 43.75 -20.35 42.65 -20.35 -41.6 -25.85 -44.25 M-16.8 -39.85 L-17.8 -40.35 -19.5 -41.15 -20.35 -41.6 -19.5 -41.15 -17.8 -40.35 -16.8 -39.85 -17.05 44.3 -11.05 47.2 -11.05 48.3 -11.05 47.2 -11.0 -37.0 -16.8 -39.85 M-7.5 -35.3 L-10.1 -36.6 -11.0 -37.0 -10.1 -36.6 -7.5 -35.3 -7.75 48.8 -8.55 48.4 -9.2 48.9 -9.65 49.1 Q-10.45 49.25 -11.05 48.3 -10.45 49.25 -9.65 49.1 L-9.2 48.9 -8.55 48.4 -7.75 48.8 -2.3 51.45 -2.25 51.5 -2.1 21.55 -0.85 22.15 1.1 23.1 1.0 53.1 0.75 52.95 1.0 53.1 6.5 55.75 6.65 56.35 Q6.6 56.65 7.5 57.35 6.6 56.65 6.65 56.35 L6.5 55.75 6.7 -28.4 1.2 -31.1 0.9 -31.2 -0.75 -32.0 -1.6 -32.4 -0.75 -32.0 0.9 -31.2 1.2 -31.1 1.05 8.65 0.1 9.45 1.05 8.65 1.05 8.7 4.5 10.35 4.5 10.4 2.45 11.75 4.5 10.4 4.5 22.3 2.45 23.7 2.45 11.75 -5.9 7.8 -3.85 6.45 -3.85 6.4 -2.1 7.2 -2.0 -32.6 -7.5 -35.3 M-1.6 -32.45 L-2.0 -32.6 -1.6 -32.45 -1.6 -31.25 -1.6 -32.4 -1.6 -32.45 M8.6 -27.5 L7.75 -27.9 6.7 -28.4 7.75 -27.9 8.6 -27.5 8.6 -27.9 8.6 -27.5 10.25 -26.65 8.6 -27.5 8.5 57.35 Q8.65 57.8 8.9 57.9 L9.35 57.8 9.65 57.5 9.75 -26.65 8.6 -27.5 M16.1 -23.8 L10.25 -26.65 10.0 57.5 9.35 57.8 10.0 57.5 15.8 60.3 15.85 60.35 15.8 60.0 16.1 -23.8 17.1 -23.35 16.1 -23.8 M17.1 -23.3 L17.1 -23.35 17.1 -21.95 17.1 -23.3 18.1 -22.85 19.6 -22.1 18.1 -22.85 17.1 -23.3 M25.3 64.95 L25.3 -19.35 19.6 -22.1 19.3 62.0 18.8 62.45 19.3 62.0 25.3 64.95 25.3 66.05 25.3 64.95 M26.3 67.5 Q25.4 67.5 25.3 66.05 25.4 67.5 26.3 67.5 M-17.8 -40.35 L-17.8 -39.15 -17.8 -40.35 M-19.5 -41.15 L-19.5 43.75 -19.0 44.65 -18.9 44.6 -18.4 44.35 -18.15 43.9 -18.15 -40.35 -19.5 -41.15 M-8.9 -37.7 L-8.9 -37.65 -7.75 -37.75 -8.9 -37.7 M0.1 9.45 L0.45 8.6 0.5 -31.2 -0.75 -32.0 -0.8 9.05 -0.15 9.55 Q-0.95 9.6 -2.1 9.05 L-2.1 7.2 -2.1 9.05 Q-0.95 9.6 -0.15 9.55 L0.1 9.45 M-2.1 -32.95 L-2.1 -35.15 -2.1 -32.95 Q-1.2 -32.4 -0.1 -32.5 1.0 -32.65 1.4 -33.45 1.0 -32.65 -0.1 -32.5 -1.2 -32.4 -2.1 -32.95 M-10.1 -36.6 L-10.15 48.3 -9.7 49.1 -9.65 49.1 -9.35 48.9 -9.05 48.4 -9.0 -35.8 -10.1 -36.6 M19.65 -37.1 Q17.9 -36.55 16.3 -37.1 L16.25 -37.1 16.25 -37.15 16.15 -37.15 16.25 -37.15 16.25 -37.1 16.3 -37.1 Q17.9 -36.55 19.65 -37.1 M18.95 -23.55 L19.2 -35.95 18.3 -36.0 18.25 -24.1 18.15 -23.75 18.85 -23.55 18.95 -23.5 18.95 -23.55 Q19.35 -23.75 19.55 -24.35 19.35 -23.75 18.95 -23.55 M6.75 -29.0 L6.75 -30.6 6.75 -29.0 M16.1 -24.35 Q17.4 -23.25 18.85 -23.55 17.4 -23.25 16.1 -24.35 L16.1 -26.05 16.1 -24.35 M18.8 62.45 L19.0 62.0 19.15 -22.1 18.1 -22.85 18.0 61.9 18.45 62.6 Q17.15 62.85 15.85 61.55 L15.9 61.4 15.85 60.35 15.9 61.4 15.85 61.55 Q17.15 62.85 18.45 62.6 L18.8 62.45 M-16.95 -49.25 Q-18.7 -48.8 -20.15 -49.3 -18.7 -48.8 -16.95 -49.25 M-28.5 40.2 L-29.35 40.5 -28.5 40.2 -28.5 40.5 -27.6 39.85 -27.2 39.5 -27.2 -44.75 -28.5 -45.6 -28.5 40.2 M-29.05 -45.85 L-28.5 -45.6 -29.05 -45.85 M-26.85 39.5 L-27.6 39.85 -26.85 39.5 M-2.05 16.65 L-2.45 15.8 -2.7 14.5 -2.35 13.25 -1.65 12.65 Q-1.25 12.65 -0.95 13.25 -0.65 13.9 -0.65 14.8 -0.65 15.7 -0.95 16.3 L-1.15 17.05 -1.15 19.75 -2.05 19.3 -2.05 16.65 M0.0 53.35 L0.4 52.95 0.4 22.95 -0.85 22.15 -0.85 52.85 -0.4 53.45 0.0 53.35 0.75 52.95 0.0 53.35 M7.5 57.35 Q8.05 58.0 8.9 57.9 8.05 58.0 7.5 57.35 M-17.85 43.9 L-17.05 44.3 -17.85 43.9 -18.3 44.35 -18.9 44.65 Q-19.7 44.85 -20.35 43.75 -19.7 44.85 -18.9 44.65 L-18.3 44.35 -17.85 43.9 M-2.2 52.6 L-2.3 51.45 -2.2 52.6 Q-1.15 53.55 -0.4 53.45 -1.15 53.55 -2.2 52.6" fill="#666666" fill-rule="evenodd" stroke="none"/>
    <path d="M27.7 -19.2 L28.5 -19.5 28.5 66.65 28.2 66.8 28.2 66.9 28.2 67.3 28.0 67.0 28.0 66.95 27.2 67.3 27.2 -18.85 27.25 -18.9 27.7 -19.2 M2.3 -52.1 L1.65 -51.75 1.55 -51.75 1.5 -51.7 1.45 -51.7 0.0 -51.5 -0.05 -51.55 -0.1 -60.4 2.3 -52.1 M11.05 -46.9 L10.75 -46.75 9.2 -46.6 9.25 -54.7 11.05 -46.9 M20.4 -37.45 L19.85 -37.15 19.75 -37.15 19.7 -37.1 19.65 -37.1 19.3 -37.35 19.35 -37.45 18.5 -36.95 18.1 -47.25 18.5 -46.4 20.4 -37.45 M9.7 -28.3 L9.0 -28.3 8.9 -28.5 8.9 -45.25 9.95 -45.4 9.7 -28.3 M-7.45 -52.45 L-9.15 -52.3 -9.2 -52.35 -8.9 -61.1 -6.9 -52.7 -7.25 -52.5 -7.35 -52.5 -7.4 -52.45 -7.45 -52.45 M0.35 -50.5 L0.5 -32.9 -0.5 -32.55 -0.55 -50.2 0.35 -50.5 M-9.85 -51.3 L-9.8 -51.35 -8.9 -51.45 -8.9 -37.7 -9.9 -37.35 -9.85 -51.3 M-16.1 -49.6 L-16.6 -49.35 -16.7 -49.35 -16.75 -49.3 -16.8 -49.3 -16.95 -49.25 -18.7 -49.15 -18.5 -57.65 -16.1 -49.6 M-19.25 -41.9 L-19.25 -48.35 -18.25 -48.55 -18.3 -42.15 -18.4 -42.1 -19.0 -42.05 -19.15 -41.9 -19.25 -41.9 M-28.95 -45.9 L-28.5 -45.6 -29.0 -45.9 -28.95 -45.9 M8.6 -27.5 L8.6 -27.9 8.6 -27.5 9.75 -26.65 9.65 57.5 9.35 57.8 8.9 57.9 Q8.65 57.8 8.5 57.35 L8.6 -27.5 M-19.5 -41.15 L-18.15 -40.35 -18.15 43.9 -18.4 44.35 -18.9 44.6 -19.0 44.65 -19.5 43.75 -19.5 -41.15 M-0.75 -32.0 L0.5 -31.2 0.45 8.6 0.1 9.45 -0.15 9.55 -0.8 9.05 -0.75 -32.0 M-10.1 -36.6 L-9.0 -35.8 -9.05 48.4 -9.35 48.9 -9.65 49.1 -9.7 49.1 -10.15 48.3 -10.1 -36.6 M18.85 -23.55 L18.15 -23.75 18.25 -24.1 18.3 -36.0 19.2 -35.95 18.95 -23.55 18.85 -23.55 M18.1 -22.85 L19.15 -22.1 19.0 62.0 18.8 62.45 18.45 62.6 18.0 61.9 18.1 -22.85 M-28.5 40.2 L-28.5 -45.6 -27.2 -44.75 -27.2 39.5 -27.6 39.85 -28.5 40.5 -28.5 40.2 M-5.9 7.8 L2.45 11.75 2.45 23.7 1.1 23.1 -0.85 22.15 -2.1 21.55 -5.9 19.75 -5.9 7.8 M-1.15 17.05 L-0.95 16.3 Q-0.65 15.7 -0.65 14.8 -0.65 13.9 -0.95 13.25 -1.25 12.65 -1.65 12.65 L-2.35 13.25 -2.7 14.5 -2.45 15.8 -2.05 16.65 -2.05 19.3 -1.15 19.75 -1.15 17.05 M-0.85 22.15 L0.4 22.95 0.4 52.95 0.0 53.35 -0.4 53.45 -0.85 52.85 -0.85 22.15" fill="#b4b4b4" fill-rule="evenodd" stroke="none"/>
    <path d="M1.45 -51.7 L1.45 -51.6 0.1 -51.5 0.0 -51.5 1.45 -51.7 M0.35 -50.5 L0.35 -50.6 0.5 -50.5 0.35 -50.5 M-18.4 -42.1 L-18.3 -42.15 -18.3 -42.1 -18.4 -42.1 M-19.15 -41.9 L-19.25 -41.8 -19.25 -41.9 -19.15 -41.9 M-8.9 -37.7 L-7.75 -37.75 -8.9 -37.65 -8.9 -37.7 M18.85 -23.55 L18.95 -23.55 18.95 -23.5 18.85 -23.55" fill="#999999" fill-rule="evenodd" stroke="none"/>
    <path d="M29.25 -19.75 Q30.25 -34.4 24.25 -45.25 14.35 -62.9 1.95 -66.7 -5.1 -68.85 -11.65 -66.1 L-0.75 -65.8 Q11.65 -62.0 21.55 -44.35 27.1 -34.3 26.7 -21.0 L26.7 -20.9 26.55 -18.95 26.55 -18.85 M26.3 -18.85 L26.4 -18.9 26.55 -18.95 M9.7 -28.3 L10.25 -28.9 M-11.0 -37.65 Q-10.15 -37.15 -9.05 -37.25 -7.9 -37.35 -7.5 -38.05 M-16.1 -49.6 L-16.6 -49.35 -16.7 -49.35 -16.75 -49.3 -16.8 -49.3 -16.95 -49.25 Q-18.7 -48.8 -20.15 -49.3 L-20.2 -49.3 -20.2 -49.35 -20.3 -49.35 -20.3 -49.3 -20.35 -44.0 -20.35 -42.2 Q-19.75 -41.9 -19.25 -41.9 L-19.15 -41.9 -18.4 -42.1 -18.3 -42.15 -16.8 -42.6 M-26.2 -46.55 L-27.8 -46.25 M26.3 67.65 L27.0 67.4 28.0 67.0 M0.1 9.45 L1.05 8.65 M-2.1 -32.95 Q-1.2 -32.4 -0.1 -32.5 1.0 -32.65 1.4 -33.45 M18.95 -23.55 Q19.35 -23.75 19.55 -24.35 M6.75 -29.0 Q7.3 -28.4 8.3 -28.2 L9.7 -28.3 M18.85 -23.55 L18.95 -23.55 M18.85 -23.55 Q17.4 -23.25 16.1 -24.35 M18.8 62.45 L19.3 62.0 M-29.05 -46.05 L-29.1 -45.85 M-29.35 40.5 L-28.5 40.2 M-29.05 -46.05 L-29.25 -46.05 -29.35 -46.0 M-27.6 39.85 L-26.85 39.5 M-26.4 -46.75 Q-25.4 -55.35 -20.35 -60.2 -16.1 -64.3 -11.65 -66.1 -17.55 -64.6 -23.05 -59.3 -28.05 -54.55 -29.05 -46.05 M2.45 11.75 L4.5 10.4 M2.45 23.7 L4.5 22.3 M-5.9 7.8 L-3.85 6.45 M0.1 9.45 L-0.15 9.55 M-1.15 17.05 L-1.15 19.75 -2.05 19.3 -2.05 16.65 M0.0 53.35 L0.75 52.95 M8.9 57.9 L9.35 57.8 10.0 57.5 M8.9 57.9 Q8.05 58.0 7.5 57.35 M18.45 62.6 Q17.15 62.85 15.85 61.55 L15.9 61.4 M-8.55 48.4 L-9.2 48.9 -9.65 49.1 Q-10.45 49.25 -11.05 48.3 M-17.85 43.9 L-18.3 44.35 -18.9 44.65 Q-19.7 44.85 -20.35 43.75 M-2.2 52.6 Q-1.15 53.55 -0.4 53.45 L0.0 53.35 M18.45 62.6 L18.8 62.45 M28.8 66.65 L28.2 66.9" fill="none" stroke="#333333" stroke-linecap="round" stroke-linejoin="round" stroke-width="0.05"/>
    <path d="M26.55 -18.85 L27.7 -19.2 28.5 -19.5 28.8 -19.6 29.25 -19.75 M-27.8 -46.25 L-28.95 -45.9 -29.0 -45.9 -29.05 -45.85 -29.1 -45.85 M-27.8 -46.25 L-26.4 -46.75" fill="none" stroke="#444444" stroke-linecap="round" stroke-linejoin="round" stroke-width="0.05"/>
    <path d="M25.3 -19.35 L26.3 -18.85 M2.3 -52.1 L1.65 -51.75 1.55 -51.75 1.5 -51.7 1.45 -51.7 1.45 -51.6 M1.4 -33.45 L6.75 -30.6 6.85 -46.6 6.85 -46.65 6.95 -46.65 6.95 -46.6 7.0 -46.6 Q8.6 -46.05 10.35 -46.6 L10.4 -46.6 10.45 -46.65 10.55 -46.65 10.75 -46.75 11.05 -46.9 M10.25 -28.9 L16.1 -26.05 16.15 -37.15 16.25 -37.15 16.25 -37.1 16.3 -37.1 Q17.9 -36.55 19.65 -37.1 L19.7 -37.1 19.75 -37.15 19.85 -37.15 20.4 -37.45 M19.55 -24.35 L26.7 -20.9 M-9.15 -52.3 L-7.45 -52.45 -7.4 -52.45 -7.35 -52.5 -7.25 -52.5 -6.9 -52.7 M-9.15 -52.3 L-10.8 -52.45 -10.85 -52.45 -10.85 -52.5 -10.95 -52.5 -11.0 -39.65 -11.0 -37.65 M-1.95 -51.7 L-1.95 -51.75 -2.05 -51.75 -2.05 -51.7 -2.1 -35.15 -7.5 -38.05 M-1.95 -51.7 L-1.9 -51.7 0.0 -51.5 1.45 -51.7 M-16.8 -42.6 L-11.0 -39.65 M-20.35 -44.0 L-26.2 -46.55 M-28.5 -45.6 L-25.85 -44.25 -20.35 -41.6 -19.5 -41.15 -17.8 -40.35 -16.8 -39.85 -11.0 -37.0 -10.1 -36.6 -7.5 -35.3 -2.0 -32.6 -1.6 -32.45 -1.6 -32.4 -0.75 -32.0 0.9 -31.2 1.2 -31.1 6.7 -28.4 7.75 -27.9 8.6 -27.5 10.25 -26.65 16.1 -23.8 17.1 -23.35 17.1 -23.3 18.1 -22.85 19.6 -22.1 25.3 -19.35 25.3 64.95 25.3 66.05 M26.3 67.5 L26.3 67.65 -29.35 40.5 -29.35 -46.0 -29.3 -45.95 -29.1 -45.85 M-2.1 -35.15 L-2.1 -32.95 M6.75 -30.6 L6.75 -29.0 M16.1 -24.35 L16.1 -26.05 M-28.5 -45.6 L-29.05 -45.85 M-26.85 39.5 L-26.05 39.9 -20.35 42.65 -20.35 43.75 M4.5 10.4 L4.5 10.35 1.05 8.7 1.05 8.65 M-5.9 7.8 L2.45 11.75 2.45 23.7 1.1 23.1 -0.85 22.15 -2.1 21.55 -2.25 51.5 -2.3 51.45 -7.75 48.8 -8.55 48.4 M4.5 22.3 L4.5 10.4 M-5.9 7.8 L-5.9 19.75 -2.1 21.55 M-3.85 6.45 L-3.85 6.4 -2.1 7.2 -2.0 -32.6 M-0.15 9.55 Q-0.95 9.6 -2.1 9.05 L-2.1 7.2 M-2.05 16.65 L-2.45 15.8 -2.7 14.5 -2.35 13.25 -1.65 12.65 Q-1.25 12.65 -0.95 13.25 -0.65 13.9 -0.65 14.8 -0.65 15.7 -0.95 16.3 L-1.15 17.05 M0.75 52.95 L1.0 53.1 6.5 55.75 6.7 -28.4 M7.5 57.35 Q6.6 56.65 6.65 56.35 L6.5 55.75 M15.8 60.0 L15.8 60.3 15.85 60.35 M15.8 60.0 L16.1 -23.8 M15.8 60.3 L10.0 57.5 M-11.05 48.3 L-11.05 47.2 -17.05 44.3 -17.85 43.9 M-20.35 -41.6 L-20.35 42.65 M-11.05 47.2 L-11.0 -37.0 M25.3 64.95 L19.3 62.0" fill="none" stroke="#333333" stroke-linecap="round" stroke-linejoin="round" stroke-width="0.05"/>
    <path d="M-2.05 -51.75 L-2.1 -51.8 -2.15 -51.8 -2.45 -51.9 -2.95 -52.2 -3.05 -52.25 -0.25 -62.6 2.6 -52.25 2.3 -52.1 M1.45 -51.6 L1.55 -50.2 1.45 -50.65 1.4 -33.45 M6.85 -46.65 L6.8 -46.7 6.75 -46.7 6.45 -46.8 5.95 -47.1 5.85 -47.15 8.65 -57.5 11.5 -47.15 11.4 -47.1 11.05 -46.9 M10.35 -46.6 L10.25 -28.9 M16.15 -37.15 L16.1 -37.2 16.05 -37.2 15.75 -37.3 15.25 -37.6 15.15 -37.65 17.95 -48.0 18.5 -46.4 20.8 -37.65 20.7 -37.6 20.4 -37.45 M19.65 -37.1 L19.55 -24.35 M-7.5 -38.05 L-7.45 -52.45 M-6.9 -52.7 L-6.3 -53.0 -9.15 -63.35 -11.95 -53.0 -11.85 -52.95 -11.35 -52.65 -11.05 -52.55 -11.0 -52.55 -10.95 -52.5 M-20.3 -49.35 L-20.35 -49.4 -20.4 -49.4 -20.7 -49.5 -21.2 -49.8 -21.3 -49.85 -18.5 -60.2 -15.65 -49.85 -16.1 -49.6 M-16.8 -49.3 L-16.8 -42.6 M25.3 66.05 Q25.4 67.5 26.3 67.5 M1.05 8.65 L1.2 -31.1 M19.3 62.0 L19.6 -22.1 M-26.05 39.9 L-25.85 -44.25 M10.0 57.5 L10.25 -26.65 M15.85 60.35 L15.8 60.0 M15.9 61.4 L15.85 60.35 M-2.3 51.45 L-2.2 52.6 M-7.75 48.8 L-7.5 -35.3 M-17.05 44.3 L-16.8 -39.85 M28.8 -19.6 L28.8 66.65" fill="none" stroke="#444444" stroke-linecap="round" stroke-linejoin="round" stroke-width="0.05"/>
    <path d="M1.0 53.1 L1.1 23.1" fill="none" stroke="#555555" stroke-linecap="round" stroke-linejoin="round" stroke-width="0.05"/>
  </g>
</svg>
