<?xml version="1.0" encoding="UTF-8" standalone="no"?>
<svg xmlns:xlink="http://www.w3.org/1999/xlink" height="32.2px" width="21.15px" xmlns="http://www.w3.org/2000/svg">
  <g transform="matrix(1.0, 0.0, 0.0, 1.0, 11.35, 13.15)">
    <path d="M0.8 -2.75 L-3.7 -1.8 -5.25 -7.65 -5.35 -7.8 -5.35 -7.85 -5.35 -7.9 -5.25 -8.65 -6.25 -8.0 -6.3 -8.65 -5.25 -8.75 -5.25 -8.65 -5.2 -8.75 Q-4.85 -11.05 -5.3 -12.75 -0.7 -13.6 2.4 -12.7 L2.2 -11.3 2.2 -11.05 Q2.1 -9.6 2.35 -8.25 1.7 -8.15 0.8 -2.75" fill="#ffd0ae" fill-rule="evenodd" stroke="none"/>
    <path d="M2.35 -8.25 L2.5 -7.65 2.95 -7.5 3.0 -7.45 0.8 -2.75 Q1.7 -8.15 2.35 -8.25 M-3.7 -1.8 L-6.2 -6.85 -6.25 -8.0 -5.25 -8.65 -5.35 -7.9 -5.35 -7.85 -5.35 -7.8 -5.25 -7.65 -3.7 -1.8" fill="#ffdfc8" fill-rule="evenodd" stroke="none"/>
    <path d="M-5.25 -8.75 L-5.2 -8.75 -5.25 -8.65 -5.25 -8.75" fill="#eebf5a" fill-rule="evenodd" stroke="none"/>
    <path d="M2.35 -8.25 L2.5 -7.65 2.95 -7.5 M-6.3 -8.65 L-5.25 -8.75 -5.2 -8.75 Q-4.85 -11.05 -5.3 -12.75 -0.7 -13.6 2.4 -12.7 L2.2 -11.3 2.2 -11.05 Q2.1 -9.6 2.35 -8.25 M-5.25 -8.65 L-5.2 -8.75 M-5.35 -7.8 L-5.35 -7.85 -5.35 -7.9 -5.25 -8.65" fill="none" stroke="#d7995e" stroke-linecap="round" stroke-linejoin="round" stroke-width="0.05"/>
    <path d="M4.9 -6.6 L4.85 -6.05 4.65 -5.2 4.55 -4.9 5.25 -4.45 6.75 -3.55 Q7.85 -2.65 7.7 -1.85 L7.75 -1.05 7.65 0.9 7.35 3.2 Q6.95 5.3 6.15 7.15 L4.65 10.0 5.25 13.1 Q4.85 14.2 4.2 14.7 L3.9 14.75 3.8 14.8 3.1 14.9 Q1.95 13.25 0.1 13.25 -1.7 13.1 -3.3 14.15 L-4.05 14.9 -4.1 14.85 -4.3 14.8 -4.85 14.65 Q-6.45 11.6 -5.15 7.85 -6.85 -0.2 -4.05 -3.45 -6.85 -0.2 -5.15 7.85 -6.45 11.6 -4.85 14.65 L-6.55 13.95 -6.6 13.65 Q-6.8 12.95 -7.4 12.35 L-7.6 12.15 -8.15 12.25 Q-8.95 11.05 -8.6 9.5 L-8.5 9.05 -8.4 8.7 -9.0 2.65 -9.45 2.0 -9.7 1.65 Q-11.05 -0.6 -10.85 -3.0 L-10.45 -5.15 Q-10.0 -6.55 -9.0 -8.0 L-8.95 -8.1 -8.6 -8.2 -8.2 -8.3 -7.8 -8.4 -7.7 -8.4 -7.6 -8.45 -7.6 -8.35 -7.6 -8.2 -7.8 -6.2 -7.75 -6.15 Q-7.0 -4.25 -4.5 -3.55 L-4.05 -3.45 -2.3 -3.7 Q2.1 -4.45 4.9 -6.6 M2.75 14.95 L2.75 14.9 2.65 14.6 3.05 14.9 2.75 14.95" fill="#e6e1c4" fill-rule="evenodd" stroke="none"/>
    <path d="M4.55 -4.9 L4.65 -5.2 4.85 -6.05 4.9 -6.6 5.55 -6.35 5.95 -6.1 7.3 -5.3 Q10.0 -3.9 9.75 -2.7 L9.8 -1.9 9.7 0.05 9.7 0.2 9.65 0.8 9.25 3.1 Q8.75 5.15 7.9 7.05 L6.7 9.15 7.3 12.25 6.25 13.8 Q5.55 14.35 4.2 14.7 4.85 14.2 5.25 13.1 L4.65 10.0 6.15 7.15 Q6.95 5.3 7.35 3.2 L7.65 0.9 7.75 -1.05 7.7 -1.85 Q7.85 -2.65 6.75 -3.55 L5.25 -4.45 4.55 -4.9" fill="#dad2a9" fill-rule="evenodd" stroke="none"/>
    <path d="M3.45 -10.8 Q4.7 -8.8 4.05 -6.8 L3.95 -6.7 Q1.5 -4.55 -2.3 -3.8 L-3.8 -3.55 -4.2 -3.65 Q-6.4 -4.35 -7.05 -6.25 L-7.05 -6.3 -6.75 -9.9 Q-6.75 -9.25 -5.25 -8.65 -3.25 -7.7 -2.7 -7.6 -2.15 -7.55 -0.65 -6.75 L1.25 -6.7 1.75 -7.7 2.25 -8.8 Q3.45 -10.3 3.45 -10.8" fill="#ffffff" fill-rule="evenodd" stroke="none"/>
    <path d="M2.25 -8.8 L2.15 -11.5 Q3.45 -11.25 3.45 -10.8 3.45 -10.3 2.25 -8.8 M-6.75 -9.9 L-6.75 -10.05 Q-6.8 -10.55 -5.3 -11.0 -5.05 -11.05 -5.05 -11.15 L-5.25 -8.65 Q-6.75 -9.25 -6.75 -9.9" fill="#666666" fill-rule="evenodd" stroke="none"/>
    <path d="M4.9 -6.6 L4.85 -6.05 4.65 -5.2 4.55 -4.9 M-4.05 -3.45 Q-6.85 -0.2 -5.15 7.85 -6.45 11.6 -4.85 14.65 M-8.95 -8.1 L-8.6 -8.2 -8.2 -8.3 -7.8 -8.4 -7.7 -8.4 -7.6 -8.45 M-8.15 12.25 Q-8.95 11.05 -8.6 9.5 L-8.5 9.05 -8.4 8.7 -9.0 2.65" fill="none" stroke="#4b4421" stroke-linecap="round" stroke-linejoin="round" stroke-width="0.05"/>
    <path d="M6.25 13.8 L7.3 12.25 6.7 9.15 7.9 7.05 Q8.75 5.15 9.25 3.1 L9.65 0.8 9.7 0.2 9.7 0.05 9.8 -1.9 9.75 -2.7 Q10.0 -3.9 7.3 -5.3 L5.95 -6.1 5.55 -6.35 4.9 -6.6 M-9.0 -8.0 L-8.95 -8.1 M-9.0 2.65 L-9.45 2.0 -9.7 1.65 Q-11.05 -0.6 -10.85 -3.0" fill="none" stroke="#4b4421" stroke-linecap="round" stroke-linejoin="round" stroke-width="0.05"/>
    <path d="M2.25 -8.8 L2.15 -11.5 Q3.45 -11.25 3.45 -10.8 4.7 -8.8 4.05 -6.8 L3.95 -6.7 Q1.5 -4.55 -2.3 -3.8 L-3.8 -3.55 -4.2 -3.65 Q-6.4 -4.35 -7.05 -6.25 L-7.05 -6.3 -6.75 -9.9 -6.75 -10.05 M-5.05 -11.15 L-5.25 -8.65 Q-3.25 -7.7 -2.7 -7.6 -2.15 -7.55 -0.65 -6.75 L1.25 -6.7 1.75 -7.7 2.25 -8.8 Q3.45 -10.3 3.45 -10.8 M-5.25 -8.65 Q-6.75 -9.25 -6.75 -9.9" fill="none" stroke="#999999" stroke-linecap="round" stroke-linejoin="round" stroke-width="0.05"/>
    <path d="M-6.75 -10.05 Q-6.8 -10.55 -5.3 -11.0 -5.05 -11.05 -5.05 -11.15" fill="none" stroke="#999999" stroke-linecap="round" stroke-linejoin="round" stroke-width="0.05"/>
    <path d="M7.55 15.5 Q9.0 16.35 4.8 18.0 1.9 19.15 -0.8 19.05 L-1.6 19.0 -3.15 18.7 -4.7 17.65 -5.2 16.9 -4.7 17.65 -3.15 18.7 -6.6 18.25 Q-8.35 17.8 -8.75 17.15 -9.0 16.7 -8.65 16.1 L-8.65 16.05 Q-7.7 17.0 -6.7 17.15 L-5.2 16.9 Q-5.6 15.95 -4.7 14.75 L-3.55 13.55 -4.7 14.75 Q-5.5 13.8 -6.7 13.4 L-8.85 13.05 -9.05 12.55 Q-9.2 12.1 -8.9 11.85 -8.0 10.75 -3.55 13.55 -1.55 12.0 3.9 11.35 9.35 10.7 7.9 12.1 L3.75 12.65 0.75 13.3 Q-1.45 14.05 -3.2 15.7 L-3.85 15.5 -4.45 15.8 -4.55 15.85 -4.8 16.55 -4.7 16.95 -4.5 17.2 -3.8 17.4 -3.75 17.4 -3.25 17.25 1.85 17.45 Q4.65 17.0 7.55 15.5" fill="#ffffff" fill-rule="evenodd" stroke="none"/>
    <path d="M7.55 15.5 Q4.65 17.0 1.85 17.45 L-3.25 17.25 -3.1 17.1 Q-2.85 16.8 -2.85 16.4 -2.85 16.0 -3.15 15.75 L-3.2 15.7 Q-1.45 14.05 0.75 13.3 L3.75 12.65 7.9 12.1 Q7.0 13.8 7.55 15.5" fill="url(#gradient0)" fill-rule="evenodd" stroke="none"/>
    <path d="M-4.7 14.75 Q-5.6 15.95 -5.2 16.9 L-6.7 17.15 Q-7.7 17.0 -8.65 16.05 -9.3 14.3 -8.85 13.05 L-6.7 13.4 Q-5.5 13.8 -4.7 14.75" fill="url(#gradient1)" fill-rule="evenodd" stroke="none"/>
    <path d="M-3.25 17.25 L-3.75 17.4 -3.8 17.4 -4.5 17.2 -4.7 16.95 -4.8 16.55 -4.55 15.85 -4.45 15.8 -3.85 15.5 -3.2 15.7 -3.15 15.75 Q-2.85 16.0 -2.85 16.4 -2.85 16.8 -3.1 17.1 L-3.25 17.25" fill="#beb16b" fill-rule="evenodd" stroke="none"/>
    <path d="M-3.15 18.7 L-1.6 19.0 -0.8 19.05 Q1.9 19.15 4.8 18.0 9.0 16.35 7.55 15.5 4.65 17.0 1.85 17.45 M-3.25 17.25 L-3.75 17.4 -3.8 17.4 -4.5 17.2 -4.7 16.95 -4.8 16.55 -4.55 15.85 -4.45 15.8 -3.85 15.5 -3.2 15.7 -3.15 15.75 Q-2.85 16.0 -2.85 16.4 -2.85 16.8 -3.1 17.1 L-3.25 17.25 M0.75 13.3 L3.75 12.65 7.9 12.1 Q9.35 10.7 3.9 11.35 -1.55 12.0 -3.55 13.55 L-4.7 14.75 Q-5.6 15.95 -5.2 16.9 L-4.7 17.65 -3.15 18.7 -6.6 18.25 Q-8.35 17.8 -8.75 17.15 -9.0 16.7 -8.65 16.1 L-8.65 16.05 Q-9.3 14.3 -8.85 13.05 L-9.05 12.55 Q-9.2 12.1 -8.9 11.85 -8.0 10.75 -3.55 13.55 M7.55 15.5 Q7.0 13.8 7.9 12.1 M-6.7 13.4 Q-5.5 13.8 -4.7 14.75 M-5.2 16.9 L-6.7 17.15" fill="none" stroke="#999999" stroke-linecap="round" stroke-linejoin="round" stroke-width="0.05"/>
    <path d="M-2.85 -3.4 L-2.15 10.45 -2.7 9.95 -3.45 9.85 -4.35 9.8 -5.4 8.95 Q-5.95 8.3 -6.4 8.15 -6.75 8.0 -7.0 8.15 L-7.55 7.85 -8.45 -4.65 Q-6.05 -3.8 -2.85 -3.4 M-7.25 5.05 L-7.0 8.15 -7.25 5.05 M-3.8 4.05 L-3.45 9.85 -3.8 4.05 M-5.4 6.55 L-5.4 8.95 -5.4 6.55" fill="#ffffff" fill-rule="evenodd" stroke="none"/>
    <path d="M-2.85 -3.4 L-2.15 10.45 -2.7 9.95 -3.45 9.85 -4.35 9.8 -5.4 8.95 Q-5.95 8.3 -6.4 8.15 -6.75 8.0 -7.0 8.15 L-7.55 7.85 -8.45 -4.65 Q-6.05 -3.8 -2.85 -3.4 M-5.4 8.95 L-5.4 6.55 M-3.45 9.85 L-3.8 4.05 M-7.0 8.15 L-7.25 5.05" fill="none" stroke="#548584" stroke-linecap="round" stroke-linejoin="round" stroke-width="0.05"/>
    <path d="M6.85 -6.9 L6.65 -5.15 5.55 -4.35 4.9 -4.2 4.3 -4.1 4.3 -4.0 2.7 -3.0 -0.7 -1.5 -3.45 -0.75 -7.0 -0.4 -9.1 -1.3 -9.3 -1.5 -9.35 -1.5 -9.85 -2.3 -9.2 -1.55 -7.7 -1.1 -5.85 -1.0 -3.45 -1.15 Q-1.4 -1.55 0.55 -2.35 1.9 -2.95 3.0 -3.85 4.0 -4.6 5.15 -4.75 5.6 -4.75 6.15 -5.05 L6.4 -5.55 6.85 -6.9" fill="#cccccc" fill-rule="evenodd" stroke="none"/>
    <path d="M6.85 -6.9 L6.85 -7.3 6.85 -6.9 6.4 -5.55 6.15 -5.05 Q5.6 -4.75 5.15 -4.75 4.0 -4.6 3.0 -3.85 1.9 -2.95 0.55 -2.35 -1.4 -1.55 -3.45 -1.15 L-5.85 -1.0 -7.7 -1.1 -9.2 -1.55 -9.85 -2.3 -9.35 -1.5 -9.3 -1.5 -9.1 -1.3 -7.0 -0.4 -3.45 -0.75 -0.7 -1.5 2.7 -3.0 4.3 -4.0 4.3 -4.1 4.9 -4.2 5.55 -4.35 6.65 -5.15 6.85 -6.9 M4.3 -8.8 Q6.1 -9.05 6.85 -7.3 L8.9 -5.7 9.7 -4.5 Q9.25 -2.3 8.15 -1.55 L4.5 -1.25 Q1.75 -1.6 2.3 -2.0 L-0.85 -0.2 Q-4.5 1.95 -8.7 0.55 L-10.1 -1.1 Q-11.15 -2.4 -11.3 -3.75 -11.45 -5.1 -11.1 -6.1 L-10.35 -7.6 Q-9.95 -8.05 -8.35 -8.25 L-8.35 -8.3 Q-8.5 -9.25 -6.75 -10.05 -7.45 -6.3 -4.45 -6.05 L0.8 -6.6 Q1.7 -6.85 2.55 -7.4 L3.35 -8.0 4.3 -8.8 M1.0 -4.2 L-2.4 -3.45 Q-4.2 -3.15 -5.95 -3.45 -7.75 -3.85 -8.7 -5.3 L-8.85 -6.6 Q-8.9 -7.7 -8.35 -8.25 -8.9 -7.7 -8.85 -6.6 L-8.7 -5.3 Q-7.75 -3.85 -5.95 -3.45 -4.2 -3.15 -2.4 -3.45 L1.0 -4.2" fill="#ffffff" fill-rule="evenodd" stroke="none"/>
    <path d="M6.85 -7.3 L6.85 -6.9 6.65 -5.15 5.55 -4.35 4.9 -4.2 4.3 -4.1 M4.3 -4.0 L2.7 -3.0 -0.7 -1.5 -3.45 -0.75 -7.0 -0.4 M4.3 -8.8 Q6.1 -9.05 6.85 -7.3 L8.9 -5.7 9.7 -4.5 Q9.25 -2.3 8.15 -1.55 L4.5 -1.25 Q1.75 -1.6 2.3 -2.0 L-0.85 -0.2 Q-4.5 1.95 -8.7 0.55 L-10.1 -1.1 Q-11.15 -2.4 -11.3 -3.75 -11.45 -5.1 -11.1 -6.1 L-10.35 -7.6 Q-9.95 -8.05 -8.35 -8.25 L-8.35 -8.3 Q-8.5 -9.25 -6.75 -10.05 -7.45 -6.3 -4.45 -6.05 L0.8 -6.6 Q1.7 -6.85 2.55 -7.4 L3.35 -8.0 4.3 -8.8 M-8.35 -8.25 Q-8.9 -7.7 -8.85 -6.6 L-8.7 -5.3 Q-7.75 -3.85 -5.95 -3.45 -4.2 -3.15 -2.4 -3.45 L1.0 -4.2" fill="none" stroke="#999999" stroke-linecap="round" stroke-linejoin="round" stroke-width="0.05"/>
    <path d="M2.7 -2.1 Q2.35 -0.9 2.0 -1.55 1.5 -4.45 -0.3 -6.3 -0.1 -7.2 1.0 -7.1 2.8 -5.35 2.7 -2.1" fill="#803e35" fill-rule="evenodd" stroke="none"/>
    <path d="M2.7 -2.1 Q2.8 -5.35 1.0 -7.1 -0.1 -7.2 -0.3 -6.3 1.5 -4.45 2.0 -1.55 2.35 -0.9 2.7 -2.1 Z" fill="none" stroke="#4b4421" stroke-linecap="round" stroke-linejoin="round" stroke-width="0.05"/>
  </g>
  <defs>
    <linearGradient gradientTransform="matrix(0.0044, -5.0E-4, 3.0E-4, 0.0029, 1.8, 15.1)" gradientUnits="userSpaceOnUse" id="gradient0" spreadMethod="pad" x1="-819.2" x2="819.2">
      <stop offset="0.0" stop-color="#dedede"/>
      <stop offset="1.0" stop-color="#ffffff"/>
    </linearGradient>
    <linearGradient gradientTransform="matrix(0.0014, 4.0E-4, -6.0E-4, 0.0022, -8.9, 14.9)" gradientUnits="userSpaceOnUse" id="gradient1" spreadMethod="pad" x1="-819.2" x2="819.2">
      <stop offset="0.0" stop-color="#dedede"/>
      <stop offset="1.0" stop-color="#ffffff"/>
    </linearGradient>
  </defs>
</svg>
