<?xml version="1.0" encoding="UTF-8" standalone="no"?>
<svg xmlns:xlink="http://www.w3.org/1999/xlink" height="29.1px" width="20.9px" xmlns="http://www.w3.org/2000/svg">
  <g transform="matrix(1.0, 0.0, 0.0, 1.0, 10.15, 15.35)">
    <path d="M-4.85 7.2 L-4.85 7.15 -4.8 7.15 -4.85 7.2 M-6.65 -0.9 L-6.6 -0.85 -6.8 -0.65 -6.85 -0.7 -6.65 -0.9" fill="#618f5c" fill-rule="evenodd" stroke="none"/>
    <path d="M-8.95 4.4 L-8.7 4.5 Q-8.2 4.75 -7.85 5.65 -7.55 6.5 -7.6 7.45 L-7.75 8.25 -8.1 8.9 Q-8.4 9.3 -8.75 9.3 L-9.05 9.2 Q-9.6 8.95 -9.9 8.1 L-10.15 6.95 -10.15 6.25 -10.1 6.25 -10.15 6.25 -10.05 5.65 -9.8 5.0 -9.65 4.8 Q-9.35 4.4 -8.95 4.4 M-2.2 10.6 L-2.85 10.6 Q-3.8 10.4 -4.4 9.4 L-4.85 8.05 -4.85 7.2 -4.8 7.15 -4.85 7.15 -4.7 6.4 -4.2 5.5 -3.95 5.25 Q-3.2 4.5 -2.25 4.7 -1.35 4.9 -0.75 5.95 L-0.4 6.7 -0.25 7.9 -0.3 8.1 -0.5 9.1 -0.75 9.5 -1.15 10.05 Q-1.65 10.5 -2.2 10.6 M-10.1 6.25 L-9.95 7.3 -9.5 7.95 -9.1 7.95 -8.95 7.85 -8.65 7.0 -8.65 6.95 -8.65 6.8 -8.8 5.9 -8.8 5.85 -9.3 5.25 Q-9.6 5.1 -9.8 5.45 L-10.1 6.25 M-4.8 7.15 L-4.55 8.45 -3.65 9.15 Q-3.15 9.25 -2.65 8.85 -2.25 8.4 -2.15 7.75 L-2.15 7.55 Q-2.15 6.95 -2.45 6.45 L-3.35 5.75 -4.25 6.05 Q-4.75 6.45 -4.8 7.15" fill="#993333" fill-rule="evenodd" stroke="none"/>
    <path d="M-10.1 6.25 L-9.8 5.45 Q-9.6 5.1 -9.3 5.25 L-8.8 5.85 -8.8 5.9 -8.65 6.8 -8.65 6.95 -8.65 7.0 -8.95 7.85 -9.1 7.95 -9.5 7.95 -9.95 7.3 -10.1 6.25 M-4.8 7.15 Q-4.75 6.45 -4.25 6.05 L-3.35 5.75 -2.45 6.45 Q-2.15 6.95 -2.15 7.55 L-2.15 7.75 Q-2.25 8.4 -2.65 8.85 -3.15 9.25 -3.65 9.15 L-4.55 8.45 -4.8 7.15" fill="#ff0000" fill-rule="evenodd" stroke="none"/>
    <path d="M10.55 -10.3 L10.45 -9.95 Q8.35 -13.45 5.9 -14.25 3.95 -12.9 2.4 -11.4 6.2 -11.45 9.2 -5.7 6.2 -11.45 2.4 -11.4 3.95 -12.9 5.9 -14.25 8.35 -13.45 10.45 -9.95 L10.1 -8.45 9.2 -5.7 7.75 -2.35 6.7 -0.55 Q5.55 -2.7 4.25 -4.1 1.65 -6.8 -1.75 -6.6 -0.1 -9.15 2.4 -11.4 L1.05 -11.5 -0.4 -11.1 1.05 -11.5 2.4 -11.4 Q-0.1 -9.15 -1.75 -6.6 1.65 -6.8 4.25 -4.1 5.55 -2.7 6.7 -0.55 L6.3 0.0 4.1 2.2 3.5 2.65 Q3.15 4.2 2.05 5.25 L2.05 5.3 -0.4 6.7 -0.75 5.95 Q-1.35 4.9 -2.25 4.7 -3.2 4.5 -3.95 5.25 L-4.2 5.5 -4.7 6.4 -4.85 7.15 -4.85 7.2 -4.85 8.05 -4.4 9.4 Q-3.8 10.4 -2.85 10.6 L-2.2 10.6 -3.8 10.9 -3.8 10.85 Q-3.85 10.4 -4.55 10.05 L-6.15 9.5 -7.8 9.4 -8.45 9.7 -8.75 9.3 Q-8.4 9.3 -8.1 8.9 L-7.75 8.25 -7.6 7.45 Q-7.55 6.5 -7.85 5.65 -8.2 4.75 -8.7 4.5 L-8.95 4.4 -8.75 2.8 -8.2 1.25 -7.6 0.95 -8.2 1.25 -7.25 -0.25 -6.85 -0.7 -6.8 -0.65 -7.1 -0.25 -7.3 0.15 -7.6 0.95 Q-7.75 1.8 -7.5 2.4 L-7.45 2.5 -7.45 2.4 -7.15 0.25 -6.55 -0.8 Q-6.15 -1.25 -5.6 -1.2 -5.1 -1.25 -4.85 -0.8 -4.6 -0.4 -4.7 0.25 L-4.8 0.6 -5.25 3.4 -5.05 3.3 -4.35 2.75 Q-3.65 2.1 -3.4 1.1 -0.2 1.5 2.05 5.25 -0.2 1.5 -3.4 1.1 L-3.4 0.95 Q-3.15 -0.1 -3.6 -0.85 -4.05 -1.6 -4.95 -1.55 L-5.25 -1.55 -6.05 -1.25 -6.6 -0.85 -6.65 -0.9 -6.05 -1.4 -6.0 -1.5 -6.0 -1.6 -5.3 -1.85 -4.1 -1.95 Q0.85 -3.05 3.5 2.65 0.85 -3.05 -4.1 -1.95 L-5.3 -1.85 -6.0 -1.6 -5.6 -4.1 -5.4 -4.7 -4.7 -6.25 -3.7 -7.75 Q-2.15 -9.75 -0.4 -11.1 L2.75 -13.35 4.65 -14.45 Q6.25 -15.25 7.5 -15.35 L9.3 -15.05 Q11.25 -14.2 10.55 -10.3 M4.65 -14.45 L5.9 -14.25 7.5 -15.35 5.9 -14.25 4.65 -14.45 M-4.1 -1.95 L-3.2 -4.1 -1.75 -6.6 -2.45 -6.6 -4.7 -6.25 -2.45 -6.6 -1.75 -6.6 -3.2 -4.1 -4.1 -1.95" fill="#5a7e5f" fill-rule="evenodd" stroke="none"/>
    <path d="M10.45 -9.95 L10.5 -9.95 Q9.95 -4.1 7.85 0.5 6.45 3.55 3.5 4.35 L2.65 6.5 Q2.75 9.7 -1.35 11.0 L-3.95 11.4 -4.45 13.35 Q-4.45 13.65 -5.1 13.75 L-6.45 13.7 Q-5.75 13.4 -5.85 13.05 -6.85 12.3 -8.25 12.5 L-8.2 13.2 -8.4 13.1 -9.1 12.4 -8.45 9.7 -7.8 9.4 -6.15 9.5 -4.55 10.05 Q-3.85 10.4 -3.8 10.85 L-3.8 10.9 -2.2 10.6 Q-1.65 10.5 -1.15 10.05 L-0.75 9.5 -0.5 9.1 -0.3 8.1 -0.25 7.9 -0.4 6.7 2.05 5.3 2.05 5.25 2.65 6.5 2.05 5.25 Q3.15 4.2 3.5 2.65 L4.1 2.2 6.3 0.0 6.7 -0.55 7.75 -2.35 9.2 -5.7 10.1 -8.45 10.45 -9.95 M-7.45 2.4 L-7.45 2.5 -7.5 2.4 -7.45 2.4 M-3.8 10.9 L-3.85 11.05 -3.95 11.4 -3.85 11.05 -3.8 10.9" fill="#537557" fill-rule="evenodd" stroke="none"/>
    <path d="M-3.4 1.1 Q-3.65 2.1 -4.35 2.75 L-5.05 3.3 -5.25 3.4 -4.8 0.6 -4.7 0.25 Q-4.6 -0.4 -4.85 -0.8 -5.1 -1.25 -5.6 -1.2 -6.15 -1.25 -6.55 -0.8 L-7.15 0.25 -7.45 2.4 -7.5 2.4 Q-7.75 1.8 -7.6 0.95 L-7.3 0.15 -7.1 -0.25 -6.8 -0.65 -6.6 -0.85 -6.05 -1.25 -5.25 -1.55 -4.95 -1.55 Q-4.05 -1.6 -3.6 -0.85 -3.15 -0.1 -3.4 0.95 L-3.4 1.1 M-6.55 -0.8 L-6.6 -0.85 -6.55 -0.8" fill="#4e6d4f" fill-rule="evenodd" stroke="none"/>
    <path d="M10.5 -9.95 L10.55 -10.3 10.45 -9.95 Q8.35 -13.45 5.9 -14.25 3.95 -12.9 2.4 -11.4 6.2 -11.45 9.2 -5.7 L10.1 -8.45 10.45 -9.95 M10.55 -10.3 Q11.25 -14.2 9.3 -15.05 L7.5 -15.35 5.9 -14.25 4.65 -14.45 2.75 -13.35 -0.4 -11.1 1.05 -11.5 2.4 -11.4 Q-0.1 -9.15 -1.75 -6.6 1.65 -6.8 4.25 -4.1 5.55 -2.7 6.7 -0.55 L7.75 -2.35 9.2 -5.7 M7.5 -15.35 Q6.25 -15.25 4.65 -14.45 M3.5 2.65 L4.1 2.2 6.3 0.0 6.7 -0.55 M2.05 5.25 Q-0.2 1.5 -3.4 1.1 -3.65 2.1 -4.35 2.75 L-5.05 3.3 -5.25 3.4 M-7.45 2.5 L-7.5 2.4 Q-7.75 1.8 -7.6 0.95 L-8.2 1.25 -8.75 2.8 -8.95 4.4 M-8.75 9.3 L-8.45 9.7 -7.8 9.4 -6.15 9.5 -4.55 10.05 Q-3.85 10.4 -3.8 10.85 L-3.8 10.9 -3.85 11.05 -3.95 11.4 -4.45 13.35 Q-4.45 13.65 -5.1 13.75 L-6.45 13.7 Q-5.75 13.4 -5.85 13.05 -6.85 12.3 -8.25 12.5 L-8.2 13.2 -8.4 13.1 -9.1 12.4 -8.45 9.7 M10.5 -9.95 Q9.95 -4.1 7.85 0.5 6.45 3.55 3.5 4.35 L2.65 6.5 Q2.75 9.7 -1.35 11.0 L-3.95 11.4 M2.65 6.5 L2.05 5.25 M3.5 2.65 Q0.85 -3.05 -4.1 -1.95 L-5.3 -1.85 -6.0 -1.6 -6.0 -1.5 -6.05 -1.4 -6.65 -0.9 -6.85 -0.7 -7.25 -0.25 -8.2 1.25 M-6.6 -0.85 L-6.05 -1.25 -5.25 -1.55 -4.95 -1.55 Q-4.05 -1.6 -3.6 -0.85 -3.15 -0.1 -3.4 0.95 L-3.4 1.1 M-0.4 -11.1 Q-2.15 -9.75 -3.7 -7.75 L-4.7 -6.25 -2.45 -6.6 -1.75 -6.6 -3.2 -4.1 -4.1 -1.95 M-6.0 -1.6 L-5.6 -4.1 -5.4 -4.7 -4.7 -6.25 M-6.8 -0.65 L-7.1 -0.25 -7.3 0.15 -7.6 0.95 M-6.6 -0.85 L-6.8 -0.65" fill="none" stroke="#374e32" stroke-linecap="round" stroke-linejoin="round" stroke-width="0.05"/>
  </g>
</svg>
