<?xml version="1.0" encoding="UTF-8" standalone="no"?>
<svg xmlns:xlink="http://www.w3.org/1999/xlink" height="10.4px" width="15.75px" xmlns="http://www.w3.org/2000/svg">
  <g transform="matrix(1.0, 0.0, 0.0, 1.0, 7.9, 1.0)">
    <path d="M1.1 2.55 L3.1 9.15 1.1 2.55 M-5.4 7.3 Q-7.0 7.05 -7.9 5.75 L-5.55 -1.0 Q-0.2 1.45 4.05 -0.15 L7.85 7.4 Q7.75 8.0 7.25 8.05 L6.45 8.15 3.55 1.8 6.45 8.15 Q5.75 9.15 4.75 9.15 L3.5 9.15 3.1 9.15 -0.25 9.4 -1.9 8.8 Q-3.4 8.8 -4.25 8.2 L-5.4 7.3 -4.2 1.65 -5.4 7.3 M-1.9 2.35 L-1.9 8.8 -1.9 2.35" fill="#826357" fill-rule="evenodd" stroke="none"/>
    <path d="M3.1 9.15 L1.1 2.55 M6.45 8.15 L7.25 8.05 Q7.75 8.0 7.85 7.4 L4.05 -0.15 Q-0.2 1.45 -5.55 -1.0 L-7.9 5.75 Q-7.0 7.05 -5.4 7.3 L-4.2 1.65 M6.45 8.15 L3.55 1.8 M3.1 9.15 L3.5 9.15 4.75 9.15 Q5.75 9.15 6.45 8.15 M-1.9 8.8 L-1.9 2.35 M-5.4 7.3 L-4.25 8.2 Q-3.4 8.8 -1.9 8.8 L-0.25 9.4 3.1 9.15 Z" fill="none" stroke="#3f3872" stroke-linecap="round" stroke-linejoin="round" stroke-width="0.05"/>
  </g>
</svg>
