<?xml version="1.0" encoding="UTF-8" standalone="no"?>
<svg xmlns:xlink="http://www.w3.org/1999/xlink" height="27.0px" width="36.85px" xmlns="http://www.w3.org/2000/svg">
  <g transform="matrix(1.0, 0.0, 0.0, 1.0, 16.65, 11.7)">
    <path d="M15.05 6.05 L14.75 6.3 14.7 6.25 15.05 6.05" fill="#a5815f" fill-rule="evenodd" stroke="none"/>
    <path d="M14.7 6.25 L14.65 6.25 15.05 6.05 14.7 6.25 M8.25 9.1 L8.2 9.1 8.25 9.05 8.25 9.1" fill="#816347" fill-rule="evenodd" stroke="none"/>
    <path d="M8.25 9.05 L8.2 9.1 8.2 9.05 8.25 9.05" fill="#596439" fill-rule="evenodd" stroke="none"/>
    <path d="M15.3 5.95 L15.95 6.0 16.7 6.15 Q17.95 6.5 18.85 8.7 L17.5 8.15 17.5 8.05 17.6 7.8 Q15.95 6.55 14.75 6.3 15.95 6.55 17.6 7.8 L17.5 8.05 17.5 8.15 17.4 9.1 Q17.25 9.95 15.95 10.95 15.55 9.05 15.0 8.55 14.4 8.0 14.5 7.85 L14.65 6.35 14.65 6.25 14.7 6.25 14.75 6.3 15.05 6.05 15.3 5.95 M11.6 7.75 L11.6 8.55 11.8 9.1 12.4 9.8 Q12.95 10.25 13.95 10.55 L13.95 10.65 Q13.8 11.5 12.5 12.5 12.1 10.6 11.55 10.1 10.95 9.55 11.05 9.4 L10.8 7.75 11.6 7.75 M8.2 9.1 L8.2 9.15 Q8.1 9.45 8.15 9.85 L8.15 10.1 Q8.2 10.55 8.55 11.0 8.15 11.6 7.85 13.15 5.6 11.05 6.05 10.4 L6.35 10.0 6.7 9.5 Q7.9 8.85 8.2 9.05 L8.2 9.1 M3.8 15.1 Q3.4 13.2 2.85 12.7 2.25 12.15 2.35 12.0 L2.65 11.7 3.55 10.95 Q3.65 11.35 4.05 11.8 L4.3 12.0 5.35 12.55 5.25 13.25 Q5.1 14.1 3.8 15.1 M-0.55 12.05 L-0.55 12.7 -0.15 13.6 Q-0.35 14.35 -1.55 15.3 -1.95 13.4 -2.5 12.9 L-3.0 12.2 -2.7 11.9 -0.55 12.05 M-8.6 10.5 L-8.15 10.85 -8.4 11.0 -9.2 11.7 -9.75 12.0 -11.7 12.3 Q-10.8 10.7 -10.95 10.05 -11.15 9.35 -10.9 9.3 L-10.45 9.2 Q-9.5 9.8 -8.6 10.5 M-5.55 13.95 Q-5.95 12.05 -6.5 11.55 L-7.0 10.85 -6.7 10.55 -3.9 10.8 -4.0 11.05 -4.05 11.85 -5.7 11.85 -5.85 11.9 -5.85 12.15 -5.05 13.1 -4.85 13.35 -5.55 13.95" fill="#4e452c" fill-rule="evenodd" stroke="none"/>
    <path d="M18.85 8.7 Q17.95 6.5 16.7 6.15 L15.95 6.0 15.3 5.95 Q16.4 5.35 17.7 4.9 L17.85 4.85 17.95 4.9 19.25 5.55 Q20.05 6.0 20.2 6.65 20.4 7.6 18.85 8.7 M14.65 6.25 L14.65 6.35 14.5 7.85 Q14.4 8.0 15.0 8.55 15.55 9.05 15.95 10.95 L13.95 10.55 Q12.95 10.25 12.4 9.8 L11.8 9.1 11.6 8.55 11.6 7.75 11.65 7.6 11.65 7.55 11.8 7.5 14.65 6.25 M10.8 7.75 L11.05 9.4 Q10.95 9.55 11.55 10.1 12.1 10.6 12.5 12.5 10.0 12.15 8.95 11.35 L8.55 11.0 Q8.2 10.55 8.15 10.1 L8.15 9.85 Q8.1 9.45 8.2 9.15 L8.2 9.1 8.25 9.1 8.35 9.05 Q9.9 9.0 10.8 7.75 M2.65 11.7 L2.35 12.0 Q2.25 12.15 2.85 12.7 3.4 13.2 3.8 15.1 1.3 14.75 0.25 13.95 L-0.15 13.6 -0.55 12.7 -0.55 12.05 -0.5 11.75 -0.5 11.7 -0.35 11.65 2.65 11.7 M5.35 12.55 L4.3 12.0 4.05 11.8 Q3.65 11.35 3.55 10.95 L3.5 10.75 Q4.15 10.85 6.7 9.5 L6.35 10.0 6.05 10.4 Q5.6 11.05 7.85 13.15 6.3 12.95 5.35 12.55 M-9.75 12.0 L-9.2 11.7 -8.4 11.0 -8.15 10.85 -8.6 10.5 -6.7 10.55 -7.0 10.85 -6.5 11.55 Q-5.95 12.05 -5.55 13.95 -8.05 13.6 -9.1 12.8 L-9.75 12.0 M-10.45 9.2 L-10.9 9.3 Q-11.15 9.35 -10.95 10.05 -10.8 10.7 -11.7 12.3 -13.75 10.7 -14.1 9.55 -14.4 8.75 -14.0 8.25 L-13.35 7.6 -13.25 7.55 -13.1 7.6 -10.45 9.2 M-4.85 13.35 L-5.05 13.1 -5.85 12.15 -5.85 11.9 -5.7 11.85 -4.05 11.85 -2.7 11.9 -3.0 12.2 -2.5 12.9 Q-1.95 13.4 -1.55 15.3 -2.95 15.35 -3.65 14.6 L-4.85 13.35" fill="#746841" fill-rule="evenodd" stroke="none"/>
    <path d="M18.85 8.7 Q20.4 7.6 20.2 6.65 20.05 6.0 19.25 5.55 L17.95 4.9 17.85 4.85 17.7 4.9 Q16.4 5.35 15.3 5.95 L15.05 6.05 14.7 6.25 14.65 6.25 11.8 7.5 11.65 7.55 11.65 7.6 11.6 7.75 11.6 8.55 11.8 9.1 12.4 9.8 Q12.95 10.25 13.95 10.55 L15.95 10.95 Q17.25 9.95 17.4 9.1 L17.5 8.15 18.85 8.7 M14.75 6.3 Q15.95 6.55 17.6 7.8 L17.5 8.05 17.5 8.15 M14.75 6.3 L14.7 6.25 M10.8 7.75 L11.6 7.75 M10.8 7.75 Q9.9 9.0 8.35 9.05 L8.25 9.1 8.2 9.1 8.2 9.15 Q8.1 9.45 8.15 9.85 L8.15 10.1 Q8.2 10.55 8.55 11.0 L8.95 11.35 Q10.0 12.15 12.5 12.5 13.8 11.5 13.95 10.65 L13.95 10.55 M3.8 15.1 Q5.1 14.1 5.25 13.25 L5.35 12.55 4.3 12.0 4.05 11.8 Q3.65 11.35 3.55 10.95 L2.65 11.7 -0.35 11.65 -0.5 11.7 -0.5 11.75 -0.55 12.05 -0.55 12.7 -0.15 13.6 0.25 13.95 Q1.3 14.75 3.8 15.1 M6.7 9.5 Q4.15 10.85 3.5 10.75 L3.55 10.95 M8.2 9.05 Q7.9 8.85 6.7 9.5 M7.85 13.15 Q8.15 11.6 8.55 11.0 M8.2 9.05 L8.25 9.05 8.25 9.1 M5.35 12.55 Q6.3 12.95 7.85 13.15 M-9.75 12.0 L-9.2 11.7 -8.4 11.0 -8.15 10.85 -8.6 10.5 Q-9.5 9.8 -10.45 9.2 L-13.1 7.6 -13.25 7.55 -13.35 7.6 -14.0 8.25 Q-14.4 8.75 -14.1 9.55 -13.75 10.7 -11.7 12.3 L-9.75 12.0 -9.1 12.8 Q-8.05 13.6 -5.55 13.95 L-4.85 13.35 -3.65 14.6 Q-2.95 15.35 -1.55 15.3 -0.35 14.35 -0.15 13.6 M-6.7 10.55 L-8.6 10.5 M-4.05 11.85 L-5.7 11.85 -5.85 11.9 -5.85 12.15 -5.05 13.1 -4.85 13.35 M-2.7 11.9 L-4.05 11.85 -4.0 11.05 -3.9 10.8 -6.7 10.55 M-2.7 11.9 L-0.55 12.05" fill="none" stroke="#5f4201" stroke-linecap="round" stroke-linejoin="round" stroke-width="0.05"/>
    <path d="M0.15 -4.0 Q0.2 -4.75 -0.35 -5.6 L-0.55 -5.7 -0.6 -5.9 -0.75 -6.0 -1.05 -6.25 -1.25 -6.55 -1.4 -6.7 -2.05 -7.3 -2.45 -7.5 -2.7 -7.75 -3.15 -7.95 -4.1 -8.45 -4.55 -8.7 -5.3 -9.05 -5.35 -9.05 -6.6 -9.45 -9.15 -9.75 -10.9 -9.4 -11.4 -8.9 -11.45 -8.5 -11.45 -8.3 -11.5 -8.1 -11.5 -8.05 -11.25 -7.4 -10.65 -6.35 -10.45 -6.15 -10.4 -6.15 -10.05 -5.8 -9.4 -5.2 -9.0 -4.9 -8.55 -4.6 -8.4 -4.5 -7.85 -4.2 -6.5 -3.6 -5.95 -3.3 -4.95 -3.05 -4.7 -2.95 -3.6 -2.65 -3.25 -2.6 -2.5 -2.6 -1.95 -2.6 -1.5 -2.7 -1.35 -2.7 -0.65 -2.9 -0.05 -3.4 -0.05 -3.45 0.0 -3.5 0.15 -4.0 M-13.25 7.65 L-13.5 7.35 Q-14.55 5.9 -15.0 4.3 -15.45 2.85 -15.45 1.2 -15.45 -1.4 -13.85 -6.5 -12.25 -11.65 -7.8 -11.6 L-5.2 -11.7 Q-1.4 -11.65 2.45 -10.7 L5.75 -9.7 6.65 -9.35 Q7.7 -9.0 8.85 -8.45 L10.1 -7.9 10.45 -7.7 11.7 -6.95 12.35 -6.55 13.4 -5.8 14.05 -5.35 14.8 -4.7 15.3 -4.25 16.5 -3.05 17.0 0.35 17.0 0.55 Q16.6 2.85 14.3 4.65 L13.75 5.1 Q12.45 5.8 4.1 6.9 L3.1 7.5 Q0.4 8.9 -2.8 9.45 L-2.85 9.45 -9.85 9.15 -10.55 8.9 -10.85 8.8 -11.4 8.55 -11.55 8.5 -12.2 8.15 -12.35 8.1 -13.15 7.6 -13.25 7.65" fill="#eaea0f" fill-rule="evenodd" stroke="none"/>
    <path d="M0.15 -4.0 L0.0 -3.5 -0.05 -3.45 -0.05 -3.4 -0.65 -2.9 -1.35 -2.7 -1.5 -2.7 -1.95 -2.6 -2.5 -2.6 -3.25 -2.6 -3.6 -2.65 -4.7 -2.95 -4.95 -3.05 -5.95 -3.3 -6.5 -3.6 -7.85 -4.2 -8.4 -4.5 -8.55 -4.6 -9.0 -4.9 -9.4 -5.2 -10.05 -5.8 -10.4 -6.15 -10.45 -6.15 -10.65 -6.35 -11.25 -7.4 -11.5 -8.05 -11.5 -8.1 -11.45 -8.3 -11.45 -8.5 -11.4 -8.9 -10.9 -9.4 -9.15 -9.75 -6.6 -9.45 -5.35 -9.05 -5.3 -9.05 -4.55 -8.7 -4.1 -8.45 -3.15 -7.95 -2.7 -7.75 -2.45 -7.5 -2.05 -7.3 -1.4 -6.7 -1.25 -6.55 -1.05 -6.25 -0.75 -6.0 -0.6 -5.9 -0.55 -5.7 -0.35 -5.6 Q0.2 -4.75 0.15 -4.0" fill="#f1f125" fill-rule="evenodd" stroke="none"/>
    <path d="M-13.25 7.65 L-13.15 7.6 -12.35 8.1 -12.2 8.15 -11.55 8.5 -11.4 8.55 -10.85 8.8 -10.55 8.9 -9.85 9.15 -2.85 9.45 -2.8 9.45 Q0.4 8.9 3.1 7.5 L4.1 6.9 Q12.45 5.8 13.75 5.1 L14.3 4.65 Q16.6 2.85 17.0 0.55 L17.0 0.35 16.5 -3.05 Q17.85 -1.6 18.45 0.35 L18.75 2.2 18.7 3.1 Q18.25 5.6 15.7 7.45 L15.65 7.45 Q14.15 8.45 6.15 11.35 L3.1 12.35 0.0 12.85 -2.6 12.9 -2.8 12.85 -4.1 12.75 -7.25 11.95 -8.5 11.4 -9.1 11.1 -9.95 10.6 -10.95 9.9 Q-11.6 9.35 -12.3 8.75 L-13.1 7.85 -13.25 7.65 M-9.85 9.15 L-9.8 9.2 -9.85 9.15" fill="#d1d00e" fill-rule="evenodd" stroke="none"/>
    <path d="M16.5 -3.05 L15.3 -4.25 14.8 -4.7 14.05 -5.35 13.4 -5.8 12.35 -6.55 11.7 -6.95 10.45 -7.7 10.1 -7.9 8.85 -8.45 Q7.7 -9.0 6.65 -9.35 L5.75 -9.7 2.45 -10.7 Q-1.4 -11.65 -5.2 -11.7 L-7.8 -11.6 Q-12.25 -11.65 -13.85 -6.5 -15.45 -1.4 -15.45 1.2 -15.45 2.85 -15.0 4.3 -14.55 5.9 -13.5 7.35 L-13.25 7.65 -13.1 7.85 -12.3 8.75 Q-11.6 9.35 -10.95 9.9 L-9.95 10.6 -9.1 11.1 -8.5 11.4 -7.25 11.95 -4.1 12.75 -2.8 12.9 -2.6 12.9 0.0 12.85 3.1 12.35 6.15 11.35 Q14.15 8.45 15.65 7.45 L15.7 7.45 Q18.25 5.6 18.7 3.1 L18.75 2.2 18.45 0.35 Q17.85 -1.6 16.5 -3.05 Z" fill="none" stroke="#725801" stroke-linecap="round" stroke-linejoin="round" stroke-width="0.05"/>
    <path d="M-0.55 7.65 Q-0.3 7.9 -0.3 8.25 L-0.55 8.85 -1.15 9.1 -1.75 8.85 -2.0 8.25 -1.75 7.65 -1.15 7.45 Q-0.8 7.4 -0.55 7.65" fill="#000000" fill-rule="evenodd" stroke="none"/>
    <path d="M-0.55 7.65 Q-0.8 7.4 -1.15 7.45 L-1.75 7.65 -2.0 8.25 -1.75 8.85 -1.15 9.1 -0.55 8.85 -0.3 8.25 Q-0.3 7.9 -0.55 7.65 M-0.9 10.45 Q-4.2 9.9 -4.55 7.95 -3.6 6.35 -1.0 6.45 0.75 6.25 1.95 7.95 0.75 9.9 -0.9 10.45" fill="#ffff33" fill-rule="evenodd" stroke="none"/>
    <path d="M-0.9 10.45 Q0.75 9.9 1.95 7.95 0.75 6.25 -1.0 6.45 -3.6 6.35 -4.55 7.95 -4.2 9.9 -0.9 10.45 Z" fill="none" stroke="#6c322b" stroke-linecap="round" stroke-linejoin="round" stroke-width="0.05"/>
    <path d="M-15.35 1.15 L-15.65 1.35 -15.95 1.15 -16.05 0.65 -15.95 0.15 -15.65 -0.05 Q-15.45 -0.1 -15.35 0.15 -15.2 0.35 -15.2 0.65 L-15.35 1.15" fill="#000000" fill-rule="evenodd" stroke="none"/>
    <path d="M-15.75 -0.6 Q-15.4 -1.05 -14.9 -1.0 -14.45 -1.0 -13.85 -0.6 -13.5 1.35 -13.95 2.4 L-15.95 2.55 -16.6 2.0 Q-16.9 0.35 -15.75 -0.6 M-15.35 1.15 L-15.2 0.65 Q-15.2 0.35 -15.35 0.15 -15.45 -0.1 -15.65 -0.05 L-15.95 0.15 -16.05 0.65 -15.95 1.15 -15.65 1.35 -15.35 1.15" fill="#ffff33" fill-rule="evenodd" stroke="none"/>
    <path d="M-15.35 1.15 L-15.65 1.35 -15.95 1.15 -16.05 0.65 -15.95 0.15 -15.65 -0.05 Q-15.45 -0.1 -15.35 0.15 -15.2 0.35 -15.2 0.65 L-15.35 1.15" fill="none" stroke="#6c322b" stroke-linecap="round" stroke-linejoin="round" stroke-width="0.05"/>
    <path d="M-15.75 -0.6 Q-16.9 0.35 -16.6 2.0 L-15.95 2.55 -13.95 2.4 Q-13.5 1.35 -13.85 -0.6 -14.45 -1.0 -14.9 -1.0 -15.4 -1.05 -15.75 -0.6" fill="none" stroke="#6c322b" stroke-linecap="round" stroke-linejoin="round" stroke-width="0.05"/>
    <path d="M-3.85 3.5 L-2.5 3.25 Q-1.7 3.35 -1.1 3.75 -0.6 4.15 -0.6 4.7 -0.6 5.25 -1.1 5.55 L-2.5 5.8 -3.85 5.3 Q-4.4 4.9 -4.4 4.35 -4.4 3.8 -3.85 3.5" fill="#ffff33" fill-rule="evenodd" stroke="none"/>
    <path d="M-4.3 0.55 L-3.55 0.4 -2.8 0.7 Q-2.5 0.9 -2.5 1.2 L-2.8 1.7 -3.55 1.85 Q-4.0 1.8 -4.3 1.55 L-4.6 1.0 -4.3 0.55" fill="#ffff33" fill-rule="evenodd" stroke="none"/>
    <path d="M-13.8 -2.5 L-12.8 -2.55 -11.85 -2.1 Q-11.45 -1.8 -11.45 -1.35 -11.45 -1.0 -11.85 -0.8 L-12.8 -0.7 Q-13.4 -0.85 -13.8 -1.2 -14.2 -1.55 -14.2 -1.9 -14.2 -2.3 -13.8 -2.5" fill="#ffff33" fill-rule="evenodd" stroke="none"/>
    <path d="M-11.95 -3.8 L-11.4 -3.85 -10.9 -3.6 -10.65 -3.2 -10.9 -2.9 -11.4 -2.85 -11.95 -3.1 -12.2 -3.5 -11.95 -3.8" fill="#ffff33" fill-rule="evenodd" stroke="none"/>
    <path d="M-9.7 1.5 L-9.8 2.05 -9.9 1.5 -9.7 1.5 M-11.05 2.75 L-10.75 3.05 -11.25 3.05 -11.1 2.85 -11.05 2.75 M-11.6 4.7 L-10.7 4.5 -11.4 5.3 -11.55 4.8 -11.6 4.7 M-10.05 6.95 L-9.55 6.7 -9.75 7.2 -9.8 7.15 -10.0 7.0 -10.05 6.95 M-8.5 7.85 L-8.4 7.6 -8.3 7.9 -8.35 7.9 -8.5 7.85 M-7.3 7.6 L-7.5 7.4 -7.25 7.4 -7.25 7.5 -7.3 7.6 M-7.25 4.85 L-7.55 4.85 -7.25 4.65 -7.25 4.75 -7.25 4.85 M-7.85 2.6 L-8.65 2.95 -8.2 2.2 -7.85 2.6" fill="#ffffff" fill-rule="evenodd" stroke="none"/>
    <path d="M-9.7 1.5 L-9.35 1.5 Q-8.85 1.65 -8.3 2.1 L-8.2 2.2 -8.65 2.95 -7.85 2.6 -7.7 2.9 -7.65 2.95 -7.4 3.9 -7.35 4.0 -7.35 4.2 -7.25 4.65 -7.55 4.85 -7.25 4.85 -7.15 6.15 -7.15 6.5 -7.15 6.75 -7.2 7.2 -7.2 7.25 -7.2 7.3 -7.25 7.4 -7.5 7.4 -7.3 7.6 Q-7.6 8.05 -8.3 7.9 L-8.4 7.6 -8.5 7.85 -8.75 7.75 -9.15 7.55 -9.5 7.35 -9.75 7.2 -9.55 6.7 -10.05 6.95 -10.15 6.9 -10.55 6.5 -10.75 6.25 -11.05 5.85 -11.2 5.65 -11.25 5.55 -11.4 5.3 -10.7 4.5 -11.6 4.7 -11.5 3.65 -11.45 3.5 -11.3 3.15 -11.25 3.05 -10.75 3.05 -11.05 2.75 -9.95 1.5 -9.9 1.5 -9.8 2.05 -9.7 1.5" fill="#55332f" fill-rule="evenodd" stroke="none"/>
    <path d="M-8.2 2.2 L-8.3 2.1 Q-8.85 1.65 -9.35 1.5 L-9.7 1.5 -9.9 1.5 -9.95 1.5 -11.05 2.75 -11.1 2.85 -11.25 3.05 -11.3 3.15 -11.45 3.5 -11.5 3.65 -11.6 4.7 -11.55 4.8 -11.4 5.3 -11.25 5.55 -11.2 5.65 -11.05 5.85 -10.75 6.25 -10.55 6.5 -10.15 6.9 -10.05 6.95 -10.0 7.0 -9.8 7.15 -9.75 7.2 -9.5 7.35 -9.15 7.55 -8.75 7.75 -8.5 7.85 -8.35 7.9 -8.3 7.9 Q-7.6 8.05 -7.3 7.6 L-7.25 7.5 -7.25 7.4 -7.2 7.3 -7.2 7.25 -7.2 7.2 -7.15 6.75 -7.15 6.5 -7.15 6.15 -7.25 4.85 -7.25 4.75 -7.25 4.65 -7.35 4.2 -7.35 4.0 -7.4 3.9 -7.65 2.95 -7.7 2.9 -7.85 2.6 -8.2 2.2 Z" fill="none" stroke="#725801" stroke-linecap="round" stroke-linejoin="round" stroke-width="0.05"/>
  </g>
</svg>
