<?xml version="1.0" encoding="UTF-8" standalone="no"?>
<svg xmlns:xlink="http://www.w3.org/1999/xlink" height="63.7px" width="11.2px" xmlns="http://www.w3.org/2000/svg">
  <g transform="matrix(1.0, 0.0, 0.0, 1.0, 5.2, 1.3)">
    <path d="M6.0 27.65 Q6.0 39.6 4.35 48.1 2.7 56.6 0.4 62.4 -1.95 56.6 -3.6 48.1 -5.2 39.6 -5.2 27.65 -5.2 15.65 -3.6 7.2 -1.95 -1.3 0.4 -1.3 2.7 -1.3 4.35 7.2 6.0 15.65 6.0 27.65" fill="#405b66" fill-rule="evenodd" stroke="none"/>
    <path d="M6.0 27.65 Q6.0 39.6 4.35 48.1 2.7 56.6 0.4 62.4 -1.95 56.6 -3.6 48.1 -5.2 39.6 -5.2 27.65 -5.2 15.65 -3.6 7.2 -1.95 -1.3 0.4 -1.3 2.7 -1.3 4.35 7.2 6.0 15.65 6.0 27.65 Z" fill="none" stroke="#000000" stroke-linecap="round" stroke-linejoin="round" stroke-width="0.05"/>
  </g>
</svg>
