<?xml version="1.0" encoding="UTF-8" standalone="no"?>
<svg xmlns:xlink="http://www.w3.org/1999/xlink" height="16.5px" width="6.85px" xmlns="http://www.w3.org/2000/svg">
  <g transform="matrix(1.0, 0.0, 0.0, 1.0, 2.95, 0.1)">
    <path d="M-1.45 4.0 Q-0.35 2.8 0.65 2.4 1.55 2.6 2.25 3.45 L2.3 3.65 2.2 5.45 Q1.6 4.7 0.65 4.1 -0.45 4.75 -1.2 6.15 L-1.45 5.1 -1.45 4.9 -1.45 4.0 M1.95 2.2 Q1.35 1.35 0.6 1.05 -0.35 1.45 -1.3 2.65 L-1.05 1.6 Q-0.5 -0.7 1.15 0.15 1.55 0.8 1.95 2.2 M2.1 7.1 L2.05 8.15 Q1.45 7.4 0.55 7.15 L-0.75 8.35 -0.95 7.4 Q-0.5 6.0 0.7 5.4 1.35 5.65 2.1 7.1 M2.0 9.15 L1.95 10.3 0.5 10.1 -0.5 10.2 -0.6 9.4 0.7 8.35 2.0 9.15 M1.8 14.8 L1.8 16.4 0.2 16.3 0.2 16.25 0.05 14.85 0.85 14.3 1.8 14.8 M1.8 13.9 L0.95 13.4 -0.05 13.9 -0.15 12.85 1.8 12.95 1.8 13.9" fill="#693e1b" fill-rule="evenodd" stroke="none"/>
    <path d="M2.25 3.45 Q1.55 2.6 0.65 2.4 -0.35 2.8 -1.45 4.0 L-1.3 2.65 Q-0.35 1.45 0.6 1.05 1.35 1.35 1.95 2.2 L2.25 3.45 M-1.2 6.15 Q-0.45 4.75 0.65 4.1 1.6 4.7 2.2 5.45 L2.1 7.1 Q1.35 5.65 0.7 5.4 -0.5 6.0 -0.95 7.4 L-1.2 6.15 M-0.75 8.35 L0.55 7.15 Q1.45 7.4 2.05 8.15 L2.0 9.15 0.7 8.35 -0.6 9.4 -0.65 9.2 -0.75 8.35 M1.8 14.3 L1.8 14.8 0.85 14.3 0.05 14.85 0.0 14.5 -0.05 13.9 0.95 13.4 1.8 13.9 1.8 14.3" fill="#f0cb60" fill-rule="evenodd" stroke="none"/>
    <path d="M1.95 10.3 L2.95 10.7 Q3.9 11.3 3.9 12.25 L3.7 13.05 2.9 12.3 1.9 11.9 0.6 11.75 -0.3 11.8 Q-1.1 11.95 -1.7 12.4 L-2.6 13.3 -2.95 12.3 Q-2.95 11.35 -1.9 10.75 L-0.5 10.2 0.5 10.1 1.95 10.3" fill="#d2c599" fill-rule="evenodd" stroke="none"/>
    <path d="M3.7 13.05 L2.95 13.8 1.8 14.3 1.8 13.9 1.8 12.95 -0.15 12.85 -0.05 13.9 0.0 14.5 Q-1.1 14.35 -1.9 13.85 L-2.6 13.3 -1.7 12.4 Q-1.1 11.95 -0.3 11.8 L0.6 11.75 1.9 11.9 2.9 12.3 3.7 13.05" fill="#e7e1c7" fill-rule="evenodd" stroke="none"/>
    <path d="M-1.45 4.0 L-1.45 4.9 -1.45 5.1 -1.2 6.15 -0.95 7.4 -0.75 8.35 -0.65 9.2 -0.6 9.4 -0.5 10.2 M2.2 5.45 L2.3 3.65 2.25 3.45 1.95 2.2 Q1.55 0.8 1.15 0.15 -0.5 -0.7 -1.05 1.6 L-1.3 2.65 -1.45 4.0 M2.05 8.15 L2.1 7.1 2.2 5.45 M2.05 8.15 L2.0 9.15 1.95 10.3 M1.8 14.3 L1.8 14.8 1.8 16.4 M0.2 16.25 L0.05 14.85 0.0 14.5 -0.05 13.9 -0.15 12.85 M1.8 13.9 L1.8 12.95 M1.8 14.3 L1.8 13.9" fill="none" stroke="#272727" stroke-linecap="round" stroke-linejoin="round" stroke-width="0.05"/>
    <path d="M1.95 10.3 L2.95 10.7 Q3.9 11.3 3.9 12.25 L3.7 13.05 2.95 13.8 1.8 14.3 M0.0 14.5 Q-1.1 14.35 -1.9 13.85 L-2.6 13.3 -2.95 12.3 Q-2.95 11.35 -1.9 10.75 L-0.5 10.2 0.5 10.1 1.95 10.3 M3.7 13.05 L2.9 12.3 1.9 11.9 0.6 11.75 -0.3 11.8 Q-1.1 11.95 -1.7 12.4 L-2.6 13.3 M1.8 12.95 L-0.15 12.85" fill="none" stroke="#9a3f3f" stroke-linecap="round" stroke-linejoin="round" stroke-width="0.05"/>
  </g>
</svg>
