<?xml version="1.0" encoding="UTF-8" standalone="no"?>
<svg xmlns:xlink="http://www.w3.org/1999/xlink" height="26.45px" width="11.6px" xmlns="http://www.w3.org/2000/svg">
  <g transform="matrix(1.0, 0.0, 0.0, 1.0, 6.4, 29.4)">
    <path d="M0.45 -25.2 L0.45 -25.15 0.55 -24.85 0.9 -23.1 -1.4 -21.5 Q-3.3 -22.6 -4.05 -23.4 L-4.05 -23.5 -4.2 -24.65 -4.15 -25.3 Q-4.05 -28.15 -2.9 -29.35 -0.75 -29.85 0.45 -25.2 M-2.15 -5.95 L-2.3 -7.6 -2.25 -7.6 -0.6 -7.45 1.55 -7.7 1.5 -6.4 1.45 -6.4 Q0.5 -5.5 -0.2 -4.15 L-2.15 -5.95 M1.55 -16.35 L1.5 -14.2 -0.5 -12.1 Q-1.85 -12.95 -2.9 -14.45 L-2.95 -14.8 -3.15 -16.65 -0.65 -14.55 Q0.85 -15.5 1.55 -16.35 M-3.4 -18.55 L-3.75 -21.1 -1.1 -19.05 1.25 -21.6 1.6 -18.85 Q0.95 -18.0 -0.85 -16.85 -2.45 -17.5 -3.4 -18.55" fill="#f4d870" fill-rule="evenodd" stroke="none"/>
    <path d="M-4.05 -23.4 Q-3.3 -22.6 -1.4 -21.5 L0.9 -23.1 1.25 -21.6 -1.1 -19.05 -3.75 -21.1 -4.05 -23.4 M1.5 -6.4 L1.65 -4.1 Q-0.75 -1.8 -2.7 -4.15 -2.25 -4.75 -2.15 -5.95 L-0.2 -4.15 Q0.5 -5.5 1.45 -6.4 L1.5 -6.4 M1.5 -14.2 L1.35 -11.9 Q-0.05 -9.95 -2.6 -11.9 L-2.85 -13.95 -2.95 -14.8 -2.9 -14.45 Q-1.85 -12.95 -0.5 -12.1 L1.5 -14.2 M-3.15 -16.65 L-3.4 -18.55 Q-2.45 -17.5 -0.85 -16.85 0.95 -18.0 1.6 -18.85 L1.55 -16.35 Q0.85 -15.5 -0.65 -14.55 L-3.15 -16.65" fill="#7a3430" fill-rule="evenodd" stroke="none"/>
    <path d="M0.45 -25.2 Q-0.75 -29.85 -2.9 -29.35 -4.05 -28.15 -4.15 -25.3 L-4.2 -24.65 -4.05 -23.5 M0.9 -23.1 L0.55 -24.85 0.45 -25.2 M1.5 -6.4 L1.65 -4.1 M-2.7 -4.15 Q-2.25 -4.75 -2.15 -5.95 L-2.3 -7.6 M1.55 -7.7 L1.5 -6.4 M1.55 -16.35 L1.5 -14.2 M-2.85 -13.95 L-2.95 -14.8 -3.15 -16.65 -3.4 -18.55 -3.75 -21.1 -4.05 -23.4 M1.6 -18.85 L1.55 -16.35 M1.25 -21.6 L1.6 -18.85 M1.25 -21.6 L0.9 -23.1 M-2.95 -14.8 L-2.9 -14.45" fill="none" stroke="#272727" stroke-linecap="round" stroke-linejoin="round" stroke-width="0.05"/>
    <path d="M-4.05 -23.5 L-4.05 -23.4 Q-3.3 -22.6 -1.4 -21.5 L0.9 -23.1 M-3.75 -21.1 L-1.1 -19.05 1.25 -21.6" fill="none" stroke="#9a3f3f" stroke-linecap="round" stroke-linejoin="round" stroke-width="0.05"/>
    <path d="M-6.35 -11.3 Q-6.15 -12.4 -4.7 -13.25 L-2.85 -13.95 -2.6 -11.9 Q-0.05 -9.95 1.35 -11.9 L1.5 -14.2 3.5 -13.25 Q4.9 -12.4 5.15 -11.3 4.9 -10.5 3.5 -9.9 L1.55 -9.3 -0.6 -9.15 -2.3 -9.25 Q-3.65 -9.45 -4.7 -9.9 -6.15 -10.5 -6.35 -11.3" fill="#e7e1c7" fill-rule="evenodd" stroke="none"/>
    <path d="M5.15 -11.3 L5.2 -10.8 Q5.2 -9.45 3.5 -8.45 L1.55 -7.7 -0.6 -7.45 -2.25 -7.6 -2.3 -7.6 Q-3.65 -7.85 -4.7 -8.45 -6.45 -9.45 -6.4 -10.8 L-6.35 -11.3 Q-6.15 -10.5 -4.7 -9.9 -3.65 -9.45 -2.3 -9.25 L-0.6 -9.15 1.55 -9.3 3.5 -9.9 Q4.9 -10.5 5.15 -11.3" fill="#d2c599" fill-rule="evenodd" stroke="none"/>
    <path d="M5.15 -11.3 L5.2 -10.8 Q5.2 -9.45 3.5 -8.45 L1.55 -7.7 -0.6 -7.45 -2.25 -7.6 M-2.3 -7.6 Q-3.65 -7.85 -4.7 -8.45 -6.45 -9.45 -6.4 -10.8 L-6.35 -11.3 Q-6.15 -12.4 -4.7 -13.25 L-2.85 -13.95 M1.5 -14.2 L3.5 -13.25 Q4.9 -12.4 5.15 -11.3" fill="none" stroke="#b0934f" stroke-linecap="round" stroke-linejoin="round" stroke-width="0.05"/>
    <path d="M-2.25 -7.6 L-2.3 -7.6 M-2.85 -13.95 L-2.6 -11.9 Q-0.05 -9.95 1.35 -11.9 L1.5 -14.2" fill="none" stroke="#272727" stroke-linecap="round" stroke-linejoin="round" stroke-width="0.05"/>
  </g>
</svg>
