<?xml version="1.0" encoding="UTF-8" standalone="no"?>
<svg xmlns:xlink="http://www.w3.org/1999/xlink" height="32.05px" width="16.75px" xmlns="http://www.w3.org/2000/svg">
  <g transform="matrix(1.0, 0.0, 0.0, 1.0, 10.95, 13.95)">
    <path d="M-0.9 -5.6 L-0.85 -5.6 -0.85 -5.55 -0.9 -5.6" fill="#ffd0ae" fill-rule="evenodd" stroke="none"/>
    <path d="M-10.3 -4.25 L-10.25 -4.2 -10.3 -4.15 -10.3 -4.25" fill="#ffffff" fill-rule="evenodd" stroke="none"/>
    <path d="M5.8 -6.65 L5.6 -6.4 Q4.75 -5.55 2.8 -5.1 L-0.2 -4.7 -3.35 -4.95 -5.65 -5.4 Q-7.45 -5.95 -8.7 -6.8 L-9.2 -7.15 Q-10.4 -8.1 -10.35 -9.05 -9.45 -10.55 -7.0 -11.35 L-4.75 -11.8 -4.8 -10.75 Q-3.95 -8.6 -1.35 -10.05 L-0.35 -10.45 -0.55 -11.7 0.25 -11.65 Q3.45 -10.55 4.45 -9.65 6.0 -8.25 5.8 -6.65 M-0.9 -5.6 L-0.85 -5.55 -0.85 -5.6 -0.9 -5.6" fill="#e7e1c7" fill-rule="evenodd" stroke="none"/>
    <path d="M-0.55 -11.7 L-0.35 -10.45 -1.35 -10.05 -1.85 -11.6 Q-4.4 -12.2 -4.75 -12.7 L-4.7 -13.8 -0.6 -13.95 -0.6 -13.25 -0.55 -11.7" fill="#cda5b8" fill-rule="evenodd" stroke="none"/>
    <path d="M-7.35 8.15 L-5.95 8.15 -7.35 8.15 -6.6 6.95 Q-6.25 4.6 -4.1 4.85 0.15 5.95 1.7 11.1 3.05 12.6 4.8 12.7 5.6 14.05 5.5 15.05 3.95 20.45 -8.0 16.3 -9.35 15.7 -9.7 13.6 L-7.35 8.15" fill="#7a3430" fill-rule="evenodd" stroke="none"/>
    <path d="M-10.25 -4.2 Q-9.25 -1.95 -6.4 -0.55 L-2.6 -0.95 Q-1.25 -1.2 1.2 -2.3 L1.95 -2.65 Q4.7 -4.0 5.55 -5.75 L5.5 -5.25 5.25 -3.3 5.05 -2.05 3.9 1.95 1.5 7.35 4.8 12.7 Q3.05 12.6 1.7 11.1 0.15 5.95 -4.1 4.85 -6.25 4.6 -6.6 6.95 L-8.3 2.15 -8.35 2.15 -9.45 1.45 -10.2 0.6 -10.85 -0.95 -10.9 -2.15 -10.6 -3.75 -10.3 -4.15 -10.25 -4.2 M3.2 -0.45 Q3.45 0.2 3.0 2.1 2.55 3.95 0.2 4.3 -2.2 4.6 -3.3 3.5 -4.4 2.45 -7.1 2.2 L-8.3 2.15 -7.1 2.2 Q-4.4 2.45 -3.3 3.5 -2.2 4.6 0.2 4.3 2.55 3.95 3.0 2.1 3.45 0.2 3.2 -0.45" fill="#5b2424" fill-rule="evenodd" stroke="none"/>
    <path d="M-1.35 -10.05 Q-3.95 -8.6 -4.8 -10.75 L-4.75 -11.8 -4.75 -12.7 Q-4.4 -12.2 -1.85 -11.6 L-1.35 -10.05" fill="#ddc5cd" fill-rule="evenodd" stroke="none"/>
    <path d="M5.8 -6.65 Q6.0 -8.25 4.45 -9.65 3.45 -10.55 0.25 -11.65 L-0.55 -11.7 -0.35 -10.45 -1.35 -10.05 Q-3.95 -8.6 -4.8 -10.75 L-4.75 -11.8 -7.0 -11.35 Q-9.45 -10.55 -10.35 -9.05 L-10.65 -8.4 Q-11.35 -6.55 -10.3 -4.25 L-10.25 -4.2 Q-9.25 -1.95 -6.4 -0.55 L-2.6 -0.95 Q-1.25 -1.2 1.2 -2.3 L1.95 -2.65 Q4.7 -4.0 5.55 -5.75 L5.65 -6.0 5.8 -6.65" fill="none" stroke="#b0934f" stroke-linecap="round" stroke-linejoin="round" stroke-width="0.05"/>
    <path d="M-0.55 -11.7 L-0.6 -13.25 -0.6 -13.95 -4.7 -13.8 -4.75 -12.7 -4.75 -11.8" fill="none" stroke="#b9829d" stroke-linecap="round" stroke-linejoin="round" stroke-width="0.05"/>
    <path d="M-10.85 -0.95 L-10.9 -2.15 -10.6 -3.75 -10.3 -4.15 -10.3 -4.25 M-10.3 -4.15 L-10.25 -4.2 M-10.85 -0.95 L-10.2 0.6 -9.45 1.45 -8.35 2.15 -8.3 2.15 -6.6 6.95 -7.35 8.15 -9.7 13.6 M5.5 15.05 Q5.6 14.05 4.8 12.7 L1.5 7.35 3.9 1.95 5.05 -2.05" fill="none" stroke="#441c1c" stroke-linecap="round" stroke-linejoin="round" stroke-width="0.05"/>
    <path d="M-8.3 2.15 L-7.1 2.2 Q-4.4 2.45 -3.3 3.5 -2.2 4.6 0.2 4.3 2.55 3.95 3.0 2.1 3.45 0.2 3.2 -0.45" fill="none" stroke="#9a3f3f" stroke-linecap="round" stroke-linejoin="round" stroke-width="0.05"/>
    <path d="M-9.7 13.6 Q-9.35 15.7 -8.0 16.3 3.95 20.45 5.5 15.05" fill="none" stroke="#000000" stroke-linecap="round" stroke-linejoin="round" stroke-width="0.05"/>
    <path d="M-7.1 4.95 L-6.85 4.2 Q-3.85 3.75 -1.75 5.35 L-0.9 8.05 -2.6 13.45 -3.5 13.45 -2.4 7.65 -3.1 5.8 Q-4.95 4.8 -7.1 4.95" fill="#e2a516" fill-rule="evenodd" stroke="none"/>
    <path d="M-7.1 4.95 Q-4.95 4.8 -3.1 5.8 L-2.4 7.65 -3.5 13.45 -5.75 12.65 -7.4 6.15 -7.1 4.95" fill="#f0cb60" fill-rule="evenodd" stroke="none"/>
    <path d="M-3.5 13.45 L-2.6 13.45 -0.9 8.05 -1.75 5.35 Q-3.85 3.75 -6.85 4.2 L-7.1 4.95 -7.4 6.15 -5.75 12.65 -3.5 13.45 Z" fill="none" stroke="#272727" stroke-linecap="round" stroke-linejoin="round" stroke-width="0.05"/>
  </g>
</svg>
