<?xml version="1.0" encoding="UTF-8" standalone="no"?>
<svg xmlns:xlink="http://www.w3.org/1999/xlink" height="7.85px" width="10.95px" xmlns="http://www.w3.org/2000/svg">
  <g transform="matrix(1.0, 0.0, 0.0, 1.0, 6.2, 1.8)">
    <path d="M0.2 -0.35 L1.1 -1.8 Q0.7 -1.05 2.1 -0.5 3.45 0.0 4.0 -1.65 5.2 -0.9 4.5 2.0 4.5 4.5 4.7 4.95 4.4 5.75 3.0 5.55 L3.0 1.75 2.1 3.05 Q2.3 0.25 0.2 -0.35" fill="#24485b" fill-rule="evenodd" stroke="none"/>
    <path d="M0.2 -0.35 Q2.3 0.25 2.1 3.05 L0.7 4.95 Q-7.3 7.05 -6.0 5.15 -4.7 3.8 -1.45 1.95 L0.2 -0.35" fill="#25353a" fill-rule="evenodd" stroke="none"/>
    <path d="M2.1 3.05 L0.7 4.95 Q-7.3 7.05 -6.0 5.15 -4.7 3.8 -1.45 1.95 L0.2 -0.35" fill="none" stroke="#484848" stroke-linecap="round" stroke-linejoin="round" stroke-width="0.05"/>
    <path d="M2.1 3.05 L3.0 1.75 3.0 5.55 Q4.4 5.75 4.7 4.95 4.5 4.5 4.5 2.0 5.2 -0.9 4.0 -1.65 3.45 0.0 2.1 -0.5 0.7 -1.05 1.1 -1.8 L0.2 -0.35 Q2.3 0.25 2.1 3.05 Z" fill="none" stroke="#346c81" stroke-linecap="round" stroke-linejoin="round" stroke-width="0.05"/>
  </g>
</svg>
