<?xml version="1.0" encoding="UTF-8" standalone="no"?>
<svg xmlns:xlink="http://www.w3.org/1999/xlink" height="25.9px" width="5.3px" xmlns="http://www.w3.org/2000/svg">
  <g transform="matrix(1.0, 0.0, 0.0, 1.0, 4.05, 29.2)">
    <path d="M-3.2 -16.4 L-3.4 -18.5 -3.6 -20.35 -4.05 -24.4 Q-3.95 -27.8 -2.8 -29.15 -0.75 -29.6 0.2 -25.05 L0.9 -20.6 1.2 -17.95 1.25 -16.95 Q-1.15 -15.8 -3.2 -16.4" fill="#25353a" fill-rule="evenodd" stroke="none"/>
    <path d="M1.25 -16.95 L1.2 -16.35 0.9 -11.1 Q0.8 -7.65 1.05 -3.75 -1.2 -2.85 -2.25 -3.8 L-2.35 -7.2 -3.2 -16.4 Q-1.15 -15.8 1.25 -16.95" fill="#24485b" fill-rule="evenodd" stroke="none"/>
    <path d="M-3.2 -16.4 L-3.4 -18.5 -3.6 -20.35 -4.05 -24.4 Q-3.95 -27.8 -2.8 -29.15 -0.75 -29.6 0.2 -25.05 L0.9 -20.6 1.2 -17.95 1.25 -16.95" fill="none" stroke="#272727" stroke-linecap="round" stroke-linejoin="round" stroke-width="0.05"/>
    <path d="M1.25 -16.95 L1.2 -16.35 0.9 -11.1 Q0.8 -7.65 1.05 -3.75 M-2.25 -3.8 L-2.35 -7.2 -3.2 -16.4 Q-1.15 -15.8 1.25 -16.95" fill="none" stroke="#346c81" stroke-linecap="round" stroke-linejoin="round" stroke-width="0.05"/>
  </g>
</svg>
