<?xml version="1.0" encoding="UTF-8" standalone="no"?>
<svg xmlns:xlink="http://www.w3.org/1999/xlink" height="7.5px" width="20.85px" xmlns="http://www.w3.org/2000/svg">
  <g transform="matrix(1.0, 0.0, 0.0, 1.0, 11.5, 2.4)">
    <path d="M-0.7 0.55 Q1.0 -0.75 1.3 -2.4 L3.45 -2.1 Q3.45 -2.1 3.55 -2.05 5.2 0.1 5.95 2.8 L4.25 3.45 4.05 2.3 Q4.0 1.4 2.25 3.25 L-0.7 0.55" fill="#6e8289" fill-rule="evenodd" stroke="none"/>
    <path d="M-0.7 0.55 L2.25 3.25 1.5 4.05 -2.7 4.65 Q-3.1 2.75 -4.55 1.8 -4.4 1.1 -2.05 1.35 L-0.75 0.55 -0.7 0.55 M4.25 3.45 L5.95 2.8 6.0 3.05 Q8.25 3.8 9.35 4.85 4.9 4.5 4.25 3.45 M-4.55 1.8 Q-3.1 2.75 -2.7 4.65 L-4.15 4.9 -11.5 5.1 -8.35 3.25 -6.5 2.4 -4.55 1.8" fill="#b4c6c5" fill-rule="evenodd" stroke="none"/>
    <path d="M5.95 2.8 Q5.2 0.1 3.55 -2.05 3.45 -2.1 3.45 -2.1 L1.3 -2.4 Q1.0 -0.75 -0.7 0.55 M2.25 3.25 Q4.0 1.4 4.05 2.3 L4.25 3.45 Q4.9 4.5 9.35 4.85 8.25 3.8 6.0 3.05 L5.95 2.8 M-2.7 4.65 L1.5 4.05 2.25 3.25 M-4.55 1.8 L-6.5 2.4 -8.35 3.25 -11.5 5.1 -4.15 4.9 -2.7 4.65 M-0.75 0.55 L-2.05 1.35 Q-4.4 1.1 -4.55 1.8" fill="none" stroke="#465457" stroke-linecap="round" stroke-linejoin="round" stroke-width="0.05"/>
    <path d="M-2.7 4.65 Q-3.1 2.75 -4.55 1.8" fill="none" stroke="#465457" stroke-linecap="round" stroke-linejoin="round" stroke-width="0.05"/>
  </g>
</svg>
