<?xml version="1.0" encoding="UTF-8" standalone="no"?>
<svg xmlns:xlink="http://www.w3.org/1999/xlink" height="37.6px" width="20.7px" xmlns="http://www.w3.org/2000/svg">
  <g transform="matrix(1.0, 0.0, 0.0, 1.0, 10.9, 19.4)">
    <path d="M-7.65 -8.45 L-7.6 -8.45 -7.65 -8.4 -7.65 -8.45" fill="#c1a49d" fill-rule="evenodd" stroke="none"/>
    <path d="M2.25 -11.5 L2.55 -11.45 Q4.3 -11.2 4.3 -10.7 4.35 -10.2 2.65 -9.75 L2.2 -9.6 2.05 -9.6 2.15 -11.5 2.25 -11.5 M-7.45 -9.95 Q-7.45 -10.45 -5.75 -10.9 L-5.05 -11.05 -5.05 -10.95 -5.15 -9.15 -5.65 -9.2 Q-7.4 -9.45 -7.45 -9.95" fill="#674743" fill-rule="evenodd" stroke="none"/>
    <path d="M-5.05 -11.05 Q-4.6 -11.9 -5.3 -18.7 4.8 -21.5 2.4 -12.7 L2.25 -11.5 2.15 -11.5 2.05 -9.6 -1.45 -9.15 Q-3.6 -9.0 -5.15 -9.15 L-5.05 -10.95 -5.05 -11.05" fill="#b1c8c5" fill-rule="evenodd" stroke="none"/>
    <path d="M4.3 -10.7 Q5.4 -8.5 5.05 -6.7 L4.95 -6.65 4.9 -6.6 2.95 -5.35 3.0 -5.35 5.25 -4.45 6.75 -3.55 Q7.85 -2.65 7.7 -1.85 L7.75 -1.05 7.7 0.65 7.65 0.9 7.35 3.2 Q6.65 6.95 4.65 10.0 L5.25 13.1 4.7 14.2 4.7 14.55 4.75 15.4 4.3 14.65 4.2 14.7 3.9 14.75 3.45 15.15 2.55 15.9 Q1.25 17.0 -0.25 16.85 -1.75 16.65 -2.1 15.85 -2.5 15.05 -3.75 14.95 L-4.1 14.85 -4.3 14.8 Q-6.35 15.9 -6.85 14.6 -7.45 13.3 -7.6 13.15 L-7.95 12.65 -8.0 12.5 -8.1 12.3 Q-8.9 11.25 -8.35 3.5 L-9.45 2.0 -9.7 1.65 Q-10.25 0.75 -10.6 -0.75 -11.0 -2.25 -10.9 -3.45 L-10.4 -5.6 -9.0 -8.0 -8.95 -8.1 -8.6 -8.2 -7.8 -8.4 -7.7 -8.4 -7.65 -8.45 -7.65 -8.4 -7.6 -8.45 -7.6 -8.5 Q-7.85 -9.25 -7.45 -9.95 -7.4 -9.45 -5.65 -9.2 L-5.15 -9.15 Q-3.6 -9.0 -1.45 -9.15 L2.05 -9.6 2.2 -9.6 2.65 -9.75 Q4.35 -10.2 4.3 -10.7" fill="#1f2326" fill-rule="evenodd" stroke="none"/>
    <path d="M4.9 -6.6 L5.55 -6.35 5.95 -6.1 7.3 -5.3 Q10.0 -3.9 9.75 -2.7 L9.8 -1.9 9.7 0.05 9.7 0.2 9.65 0.7 9.65 0.8 9.25 3.1 Q8.5 6.4 7.3 8.75 L7.3 12.25 6.25 13.8 Q5.7 14.25 4.75 14.55 L4.75 15.4 4.7 14.55 4.7 14.2 5.25 13.1 4.65 10.0 Q6.65 6.95 7.35 3.2 L7.65 0.9 7.7 0.65 7.75 -1.05 7.7 -1.85 Q7.85 -2.65 6.75 -3.55 L5.25 -4.45 3.0 -5.35 2.95 -5.35 4.9 -6.6" fill="#070a0a" fill-rule="evenodd" stroke="none"/>
    <path d="M2.25 -11.5 L2.55 -11.45 Q4.3 -11.2 4.3 -10.7 M-7.65 -8.45 L-7.6 -8.45 -7.6 -8.5 M-7.45 -9.95 Q-7.45 -10.45 -5.75 -10.9 L-5.05 -11.05 Q-4.6 -11.9 -5.3 -18.7 4.8 -21.5 2.4 -12.7 L2.25 -11.5 2.15 -11.5" fill="none" stroke="#697a81" stroke-linecap="round" stroke-linejoin="round" stroke-width="0.05"/>
    <path d="M4.9 -6.6 L5.55 -6.35 5.95 -6.1 7.3 -5.3 Q10.0 -3.9 9.75 -2.7 L9.8 -1.9 9.7 0.05 9.7 0.2 9.65 0.7 9.65 0.8 9.25 3.1 Q8.5 6.4 7.3 8.75 L7.3 12.25 6.25 13.8" fill="none" stroke="#697a81" stroke-linecap="round" stroke-linejoin="round" stroke-width="0.05"/>
    <path d="M4.3 -10.7 Q5.4 -8.5 5.05 -6.7 L4.95 -6.65 4.9 -6.6 2.95 -5.35 M-8.1 12.3 Q-8.9 11.25 -8.35 3.5 M-8.95 -8.1 L-8.6 -8.2 -7.8 -8.4 -7.7 -8.4 -7.65 -8.45 -7.65 -8.4 -7.6 -8.45 M-7.6 -8.5 Q-7.85 -9.25 -7.45 -9.95 -7.4 -9.45 -5.65 -9.2 L-5.15 -9.15 Q-3.6 -9.0 -1.45 -9.15 L2.05 -9.6 2.2 -9.6 2.65 -9.75 Q4.35 -10.2 4.3 -10.7" fill="none" stroke="#000000" stroke-linecap="round" stroke-linejoin="round" stroke-width="0.05"/>
    <path d="M-8.35 3.5 L-9.45 2.0 -9.7 1.65 Q-10.25 0.75 -10.6 -0.75 -11.0 -2.25 -10.9 -3.45 M-9.0 -8.0 L-8.95 -8.1" fill="none" stroke="#000000" stroke-linecap="round" stroke-linejoin="round" stroke-width="0.05"/>
    <path d="M-3.6 17.95 L-3.75 14.0 -3.6 17.95 -5.4 17.7 -6.15 16.85 -6.15 14.55 -6.1 14.5 -6.15 14.55 -6.15 16.85 Q-6.65 17.1 -6.9 16.85 L-8.45 15.4 -8.6 14.8 -8.65 14.15 Q-8.7 13.3 -8.3 12.65 L-8.25 12.5 -8.1 12.3 -8.0 12.5 -7.95 12.65 -7.5 13.2 -7.3 13.4 -6.1 14.5 -5.5 13.75 -3.75 14.0 -1.8 14.3 -1.15 15.35 -1.15 17.45 -1.7 18.2 -3.6 17.95" fill="#b4b071" fill-rule="evenodd" stroke="none"/>
    <path d="M-3.75 14.0 L-3.6 17.95 M-6.1 14.5 L-7.3 13.4 -7.5 13.2 -7.95 12.65 -8.0 12.5 -8.1 12.3" fill="none" stroke="#674743" stroke-linecap="round" stroke-linejoin="round" stroke-width="0.05"/>
    <path d="M-3.6 17.95 L-1.7 18.2 -1.15 17.45 M-1.15 15.35 L-1.8 14.3 -3.75 14.0 -5.5 13.75 -6.1 14.5 -6.15 14.55 -6.15 16.85 -5.4 17.7 -3.6 17.95 M-8.1 12.3 L-8.25 12.5 -8.3 12.65 Q-8.7 13.3 -8.65 14.15 L-8.6 14.8 -8.45 15.4 -6.9 16.85 Q-6.65 17.1 -6.15 16.85" fill="none" stroke="#674743" stroke-linecap="round" stroke-linejoin="round" stroke-width="0.05"/>
    <path d="M-1.15 15.35 L1.1 15.1 3.4 14.85 3.9 14.75 4.75 14.55 Q5.7 14.25 6.25 13.8 7.25 14.8 6.8 16.2 4.55 17.55 1.25 17.85 L-1.15 17.45 -1.15 15.35" fill="#b4b071" fill-rule="evenodd" stroke="none"/>
    <path d="M3.9 14.75 L4.75 14.55 Q5.7 14.25 6.25 13.8 7.25 14.8 6.8 16.2 4.55 17.55 1.25 17.85 M-1.15 17.45 L-1.15 15.35" fill="none" stroke="#674743" stroke-linecap="round" stroke-linejoin="round" stroke-width="0.05"/>
    <path d="M-1.15 15.35 L1.1 15.1 3.4 14.85 3.9 14.75 M1.25 17.85 L-1.15 17.45" fill="none" stroke="#674743" stroke-linecap="round" stroke-linejoin="round" stroke-width="0.05"/>
  </g>
</svg>
