<?xml version="1.0" encoding="UTF-8" standalone="no"?>
<svg xmlns:xlink="http://www.w3.org/1999/xlink" height="17.6px" width="31.9px" xmlns="http://www.w3.org/2000/svg">
  <g transform="matrix(1.0, 0.0, 0.0, 1.0, 16.2, 19.15)">
    <path d="M1.2 -19.15 L2.35 -19.15 3.15 -19.15 5.0 -18.75 5.35 -18.4 Q5.4 -17.9 3.3 -17.45 L2.5 -17.3 2.0 -17.2 1.8 -17.2 1.5 -17.15 1.5 -17.2 1.45 -17.35 1.4 -17.65 1.35 -18.15 1.2 -19.15 M-9.4 -17.65 L-8.45 -18.3 -7.3 -18.6 -6.25 -18.65 -5.9 -18.7 -5.6 -18.7 -5.4 -18.7 -4.65 -18.7 -4.65 -12.25 -7.4 -12.6 -8.55 -17.15 -9.35 -17.5 -9.4 -17.65" fill="#2e071a" fill-rule="evenodd" stroke="none"/>
    <path d="M6.7 -11.95 L6.7 -11.9 6.55 -11.85 6.7 -11.95" fill="#643342" fill-rule="evenodd" stroke="none"/>
    <path d="M5.35 -18.4 L5.55 -17.45 Q4.4 -16.5 1.3 -16.2 L1.25 -16.2 -0.35 -16.0 -1.75 -11.6 Q1.3 -8.7 1.65 -12.3 L0.7 -14.1 2.3 -13.1 Q3.3 -12.2 3.05 -11.45 L2.15 -9.55 -0.4 -9.45 Q-2.3 -10.55 -3.15 -9.75 -5.15 -11.6 -7.3 -10.4 -7.85 -11.2 -8.6 -10.65 -9.4 -10.1 -9.6 -10.75 -9.85 -11.4 -9.6 -12.4 L-9.6 -12.5 -9.6 -12.75 -9.6 -13.4 Q-9.25 -10.6 -8.25 -12.85 L-9.3 -16.45 -9.55 -16.6 -9.5 -16.9 -9.5 -17.2 -9.4 -17.65 -9.35 -17.5 -8.55 -17.15 -7.4 -12.6 -4.65 -12.25 -2.65 -12.0 -1.2 -16.9 1.5 -17.15 1.8 -17.2 2.0 -17.2 2.5 -17.3 3.3 -17.45 Q5.4 -17.9 5.35 -18.4" fill="#b3b071" fill-rule="evenodd" stroke="none"/>
    <path d="M-9.6 -12.4 Q-9.85 -11.4 -9.6 -10.75 -9.4 -10.1 -8.6 -10.65 -7.85 -11.2 -7.3 -10.4 -5.15 -11.6 -3.15 -9.75 -2.3 -10.55 -0.4 -9.45 L2.15 -9.55 3.05 -11.45 Q3.3 -12.2 2.3 -13.1 L0.7 -14.1 1.65 -12.3 Q1.3 -8.7 -1.75 -11.6 L-0.35 -16.0 1.25 -16.2 1.3 -16.2 Q4.4 -16.5 5.55 -17.45 L6.55 -12.55 Q7.25 -11.25 8.3 -10.75 10.05 -10.1 11.65 -8.9 13.65 -7.35 15.35 -5.0 16.95 -1.8 11.3 -2.8 L9.75 -3.1 9.7 -3.1 5.25 -3.35 0.0 -3.1 -0.7 -3.5 -1.0 -3.65 Q-4.35 -5.25 -7.55 -4.35 L-8.0 -4.2 -8.6 -4.0 -10.95 -5.55 Q-12.7 -6.35 -14.15 -6.15 -16.85 -6.35 -16.0 -8.15 -13.55 -10.3 -11.0 -11.05 -10.1 -11.6 -9.65 -12.45 L-9.6 -12.5 -9.6 -12.4 M-9.6 -13.4 L-9.6 -16.2 -9.55 -16.6 -9.3 -16.45 -8.25 -12.85 Q-9.25 -10.6 -9.6 -13.4 M6.7 -11.9 L6.75 -11.95 6.7 -11.95 6.55 -11.85 6.7 -11.9 M3.95 -9.85 Q5.15 -10.3 6.0 -11.15 L6.25 -11.45 6.55 -11.8 6.55 -11.85 6.55 -11.8 6.25 -11.45 6.0 -11.15 Q5.15 -10.3 3.95 -9.85 M6.7 -11.95 L6.55 -12.55 6.7 -11.95" fill="#5a3659" fill-rule="evenodd" stroke="none"/>
    <path d="M-1.0 -3.65 Q-5.05 0.9 -7.55 -4.35 -4.35 -5.25 -1.0 -3.65" fill="#40263f" fill-rule="evenodd" stroke="none"/>
    <path d="M1.2 -19.15 L2.35 -19.15 3.15 -19.15 5.0 -18.75 5.35 -18.4 5.55 -17.45 6.55 -12.55 6.7 -11.95 6.7 -11.9 6.55 -11.85 6.55 -11.8 6.25 -11.45 6.0 -11.15 Q5.15 -10.3 3.95 -9.85 M-9.65 -12.45 L-9.6 -12.75 M-9.5 -17.2 L-9.4 -17.65 -8.45 -18.3 -7.3 -18.6 -6.25 -18.65 -5.9 -18.7 -5.6 -18.7 M-1.2 -16.9 L1.5 -17.15 1.8 -17.2 2.0 -17.2 2.5 -17.3 3.3 -17.45 Q5.4 -17.9 5.35 -18.4 M-8.55 -17.15 L-9.35 -17.5" fill="none" stroke="#301820" stroke-linecap="round" stroke-linejoin="round" stroke-width="0.05"/>
    <path d="M6.55 -12.55 Q7.25 -11.25 8.3 -10.75 10.05 -10.1 11.65 -8.9 13.65 -7.35 15.35 -5.0 16.95 -1.8 11.3 -2.8 L9.75 -3.1 9.7 -3.1 5.25 -3.35 0.0 -3.1 -0.7 -3.5 -1.0 -3.65 Q-5.05 0.9 -7.55 -4.35 L-8.0 -4.2 -8.6 -4.0 -10.95 -5.55 Q-12.7 -6.35 -14.15 -6.15 -16.85 -6.35 -16.0 -8.15 -13.55 -10.3 -11.0 -11.05 -10.1 -11.6 -9.65 -12.45 L-9.6 -12.5 -9.6 -12.4 M-9.6 -12.75 L-9.6 -13.4 -9.6 -16.2 -9.5 -16.9 -9.5 -17.2 M-5.6 -18.7 L-5.4 -18.7 M-4.65 -12.25 L-2.65 -12.0 -1.2 -16.9 M-9.6 -12.75 L-9.6 -12.5 M-4.65 -12.25 L-7.4 -12.6 -8.55 -17.15 M-1.0 -3.65 Q-4.35 -5.25 -7.55 -4.35" fill="none" stroke="#301820" stroke-linecap="round" stroke-linejoin="round" stroke-width="0.05"/>
    <path d="M-3.95 -7.1 L-5.85 -7.5 -6.5 -8.95 -6.1 -9.85 -4.0 -9.65 -3.1 -8.05 -3.95 -7.1 M-1.9 -6.3 L-3.1 -4.95 Q-2.85 -5.95 -3.4 -6.55 L-2.55 -7.5 -1.9 -6.3 M-6.2 -7.1 Q-6.75 -6.75 -6.1 -5.4 L-7.55 -7.1 -6.85 -8.55 -6.2 -7.1" fill="#d3d301" fill-rule="evenodd" stroke="none"/>
  </g>
</svg>
