<?xml version="1.0" encoding="UTF-8" standalone="no"?>
<svg xmlns:xlink="http://www.w3.org/1999/xlink" height="13.15px" width="18.05px" xmlns="http://www.w3.org/2000/svg">
  <g transform="matrix(1.0, 0.0, 0.0, 1.0, 9.15, 2.6)">
    <path d="M-5.35 4.65 Q-2.4 8.4 1.0 6.65 3.0 2.1 8.5 0.0 L8.9 0.95 Q7.15 1.9 6.1 2.95 4.8 4.3 3.85 5.6 L1.6 8.85 Q0.3 10.8 -1.05 10.5 -2.9 8.85 -4.95 5.3 L-5.35 4.65" fill="#294876" fill-rule="evenodd" stroke="none"/>
    <path d="M-5.35 4.65 L-7.6 0.2 -7.65 0.2 Q-7.95 -0.5 -9.15 -1.45 -8.5 -2.7 -7.2 -2.6 -6.35 -1.65 -3.5 -1.1 L-3.3 -1.05 -3.05 -1.0 -2.25 -0.95 2.95 -0.7 Q5.4 -0.6 7.2 -1.45 7.95 -1.15 8.5 0.0 3.0 2.1 1.0 6.65 -2.4 8.4 -5.35 4.65" fill="#39689f" fill-rule="evenodd" stroke="none"/>
    <path d="M8.5 0.0 Q7.95 -1.15 7.2 -1.45 5.4 -0.6 2.95 -0.7 L-2.25 -0.95 -3.05 -1.0 -3.3 -1.05 -3.5 -1.1 Q-6.35 -1.65 -7.2 -2.6 -8.5 -2.7 -9.15 -1.45 -7.95 -0.5 -7.65 0.2 L-7.6 0.2 -5.35 4.65 -4.95 5.3 Q-2.9 8.85 -1.05 10.5 0.3 10.8 1.6 8.85 L3.85 5.6 Q4.8 4.3 6.1 2.95 7.15 1.9 8.9 0.95 L8.5 0.0 Z" fill="none" stroke="#301820" stroke-linecap="round" stroke-linejoin="round" stroke-width="0.05"/>
    <path d="M-4.35 4.85 L-3.25 5.7 -1.9 5.35 -3.1 6.4 -4.35 4.85 M-5.9 1.05 L-3.7 2.7 -1.15 1.95 -3.5 4.0 -5.9 1.05 M-1.45 3.75 L-3.25 5.3 -5.15 3.0 -3.45 4.3 -1.45 3.75" fill="#8786ae" fill-rule="evenodd" stroke="none"/>
    <path d="M-1.9 5.35 L-3.1 6.4 -4.35 4.85 M-1.15 1.95 L-3.5 4.0 -5.9 1.05 M-1.45 3.75 L-3.25 5.3 -5.15 3.0" fill="none" stroke="#535375" stroke-linecap="round" stroke-linejoin="round" stroke-width="0.05"/>
  </g>
</svg>
