<?xml version="1.0" encoding="UTF-8" standalone="no"?>
<svg xmlns:xlink="http://www.w3.org/1999/xlink" height="7.4px" width="6.85px" xmlns="http://www.w3.org/2000/svg">
  <g transform="matrix(1.0, 0.0, 0.0, 1.0, 3.0, -0.55)">
    <path d="M0.2 4.85 L0.25 4.9 1.0 5.5 2.85 7.6 3.15 7.9 -1.1 7.15 -1.15 7.15 -1.3 6.2 -3.0 4.3 -0.65 4.25 0.2 4.85 -1.3 6.2 0.2 4.85" fill="#ffd0ae" fill-rule="evenodd" stroke="none"/>
    <path d="M0.25 4.9 L0.2 4.85 -0.65 4.25 -3.0 4.3 -2.45 2.8 Q-1.5 3.5 0.5 3.85 1.35 5.8 2.85 7.6 L1.0 5.5 0.25 4.9" fill="#ffdfc8" fill-rule="evenodd" stroke="none"/>
    <path d="M-2.45 1.85 L-1.7 0.65 1.5 0.55 Q2.95 0.35 3.85 2.4 L3.7 7.0 Q1.75 4.95 1.3 3.05 -1.3 2.6 -2.45 1.85" fill="#2f546f" fill-rule="evenodd" stroke="none"/>
    <path d="M2.85 7.6 Q1.35 5.8 0.5 3.85 -1.5 3.5 -2.45 2.8 -2.95 2.3 -2.45 1.85 -1.3 2.6 1.3 3.05 1.75 4.95 3.7 7.0 3.8 8.15 3.15 7.9 L2.85 7.6" fill="#ffffff" fill-rule="evenodd" stroke="none"/>
    <path d="M0.2 4.85 L0.25 4.9 M-2.45 2.8 L-3.0 4.3 -1.3 6.2 -1.15 7.15 -1.1 7.15 3.15 7.9 M0.2 4.85 L-1.3 6.2" fill="none" stroke="#d7995e" stroke-linecap="round" stroke-linejoin="round" stroke-width="0.05"/>
    <path d="M3.7 7.0 L3.85 2.4 Q2.95 0.35 1.5 0.55 L-1.7 0.65 -2.45 1.85" fill="none" stroke="#1d3643" stroke-linecap="round" stroke-linejoin="round" stroke-width="0.05"/>
    <path d="M2.85 7.6 Q1.35 5.8 0.5 3.85 -1.5 3.5 -2.45 2.8 -2.95 2.3 -2.45 1.85 -1.3 2.6 1.3 3.05 1.75 4.95 3.7 7.0 3.8 8.15 3.15 7.9 L2.85 7.6" fill="none" stroke="#666666" stroke-linecap="round" stroke-linejoin="round" stroke-width="0.05"/>
  </g>
</svg>
