<?xml version="1.0" encoding="UTF-8" standalone="no"?>
<svg xmlns:xlink="http://www.w3.org/1999/xlink" height="13.75px" width="3.95px" xmlns="http://www.w3.org/2000/svg">
  <g transform="matrix(1.0, 0.0, 0.0, 1.0, 2.85, 1.45)">
    <path d="M-2.1 11.4 L-2.4 3.1 Q0.3 4.9 0.4 9.3 L0.35 11.65 Q-0.85 12.6 -2.1 11.4" fill="#ffdfc8" fill-rule="evenodd" stroke="none"/>
    <path d="M-2.4 3.1 L-2.55 -1.35 Q-0.9 -1.75 0.75 -0.2 L0.4 9.3 Q0.3 4.9 -2.4 3.1" fill="#ffd0ae" fill-rule="evenodd" stroke="none"/>
    <path d="M-2.1 11.4 L-2.4 3.1 -2.55 -1.35 Q-0.9 -1.75 0.75 -0.2 L0.4 9.3 0.35 11.65" fill="none" stroke="#d7995e" stroke-linecap="round" stroke-linejoin="round" stroke-width="0.05"/>
    <path d="M0.5 6.1 L0.4 9.3 Q0.35 7.25 -0.2 5.8 L0.5 6.1" fill="#ffd9ec" fill-rule="evenodd" stroke="none"/>
    <path d="M0.4 9.3 L0.35 12.25 Q-0.95 12.55 -2.1 11.4 L-2.3 5.45 -0.2 5.8 Q0.35 7.25 0.4 9.3" fill="#ffe6f2" fill-rule="evenodd" stroke="none"/>
    <path d="M0.5 6.1 L0.4 9.3 0.35 12.25 M-2.1 11.4 L-2.3 5.45" fill="none" stroke="#fe67b3" stroke-linecap="round" stroke-linejoin="round" stroke-width="0.05"/>
    <path d="M0.6 4.4 L0.9 4.7 1.1 5.3 Q1.1 5.75 0.55 6.15 L0.5 6.1 -0.2 5.8 -2.3 5.45 -2.35 5.45 -2.45 5.4 Q-3.15 4.7 -2.55 3.9 L-2.5 3.8 -2.35 3.75 -1.7 3.65 Q-0.55 3.6 0.55 4.35 L0.6 4.4" fill="#60e1cd" fill-rule="evenodd" stroke="none"/>
    <path d="M0.6 4.4 L0.9 4.7 1.1 5.3 Q1.1 5.75 0.55 6.15 L0.5 6.1 -0.2 5.8 -2.3 5.45 -2.35 5.45 -2.45 5.4 Q-3.15 4.7 -2.55 3.9 L-2.5 3.8 -2.35 3.75 -1.7 3.65 Q-0.55 3.6 0.55 4.35 L0.6 4.4 Z" fill="none" stroke="#1d9e8a" stroke-linecap="round" stroke-linejoin="round" stroke-width="0.05"/>
  </g>
</svg>
