<?xml version="1.0" encoding="UTF-8" standalone="no"?>
<svg xmlns:xlink="http://www.w3.org/1999/xlink" height="8.9px" width="12.05px" xmlns="http://www.w3.org/2000/svg">
  <g transform="matrix(1.0, 0.0, 0.0, 1.0, 3.4, 5.6)">
    <path d="M-2.0 1.6 Q-3.55 0.2 -3.4 -1.55 L-3.3 -2.2 Q-2.95 -3.7 -1.4 -4.6 0.45 -5.8 2.95 -5.55 5.15 -5.4 6.7 -4.25 7.25 -3.5 7.3 -2.4 L7.3 -2.35 7.25 -1.85 7.25 -1.6 6.6 -0.35 Q5.25 1.6 2.1 1.85 L-2.0 1.6" fill="#d1ab86" fill-rule="evenodd" stroke="none"/>
    <path d="M6.7 -4.25 L7.15 -3.85 8.0 -2.95 8.05 -2.9 8.2 -2.6 8.3 -2.35 8.4 -2.2 8.65 -0.6 Q8.5 1.15 6.8 2.25 L6.65 2.4 5.7 2.85 2.4 3.3 2.25 3.3 Q-0.25 3.1 -1.9 1.65 L-2.0 1.6 2.1 1.85 Q5.25 1.6 6.6 -0.35 L7.25 -1.6 7.25 -1.85 7.3 -2.35 7.3 -2.4 Q7.25 -3.5 6.7 -4.25" fill="#c89a6c" fill-rule="evenodd" stroke="none"/>
    <path d="M6.7 -4.25 L7.15 -3.85 8.0 -2.95 8.05 -2.9 8.2 -2.6 M6.8 2.25 L6.65 2.4 5.7 2.85 2.4 3.3 M-3.3 -2.2 Q-2.95 -3.7 -1.4 -4.6 0.45 -5.8 2.95 -5.55 5.15 -5.4 6.7 -4.25 Z" fill="none" stroke="#916337" stroke-linecap="round" stroke-linejoin="round" stroke-width="0.05"/>
  </g>
</svg>
