<?xml version="1.0" encoding="UTF-8" standalone="no"?>
<svg xmlns:xlink="http://www.w3.org/1999/xlink" height="26.85px" width="24.95px" xmlns="http://www.w3.org/2000/svg">
  <g transform="matrix(1.0, 0.0, 0.0, 1.0, 12.5, 15.7)">
    <path d="M3.2 5.1 Q4.35 5.8 5.45 7.05 1.95 7.15 -0.3 7.9 L-0.25 7.8 -0.9 7.1 -0.3 6.4 Q2.05 4.7 3.2 5.1" fill="#163d69" fill-rule="evenodd" stroke="none"/>
    <path d="M-12.2 2.85 L-12.25 2.85 -12.5 2.25 -12.5 1.25 -12.25 0.35 -11.9 0.1 -11.65 0.55 -11.65 0.6 -11.65 1.65 -11.8 2.3 -11.9 2.55 -12.2 2.85 M0.35 4.95 L-0.1 4.5 -0.3 3.5 -0.1 2.45 0.35 2.05 0.8 2.45 1.0 3.5 0.8 4.5 0.35 4.95 M-11.1 -0.35 L-11.1 -0.4 -10.5 -0.75 -10.1 -0.05 -10.1 0.05 Q-9.95 0.7 -10.05 1.5 L-10.45 2.8 Q-10.7 3.25 -11.0 3.15 L-11.45 2.35 -11.45 0.9 -11.1 -0.35 M-3.45 -0.45 Q-3.75 -0.75 -4.25 -0.75 L-5.1 -0.45 -5.4 0.4 -5.1 1.2 Q-4.75 1.55 -4.25 1.55 -3.75 1.55 -3.45 1.2 -3.1 0.9 -3.1 0.4 -3.1 -0.1 -3.45 -0.45 M-3.3 -0.7 Q-2.7 0.15 -2.7 1.35 -2.7 2.55 -3.3 3.35 L-3.4 3.5 Q-3.9 4.2 -4.6 4.2 L-4.65 4.2 -5.15 4.1 -6.05 3.35 Q-6.6 2.55 -6.6 1.35 L-6.6 1.1 Q-6.55 0.05 -6.05 -0.7 -5.45 -1.5 -4.65 -1.5 -3.85 -1.5 -3.3 -0.7 M-9.15 -1.45 Q-8.7 -2.05 -8.15 -1.8 -7.65 -1.6 -7.35 -0.65 -7.1 0.35 -7.2 1.5 -7.35 2.6 -7.8 3.2 -8.3 3.8 -8.85 3.6 -9.4 3.35 -9.65 2.4 -9.95 1.45 -9.8 0.3 -9.7 -0.85 -9.15 -1.45 M-0.45 2.65 Q-0.45 3.5 -0.75 4.1 -1.05 4.7 -1.5 4.7 -1.95 4.7 -2.25 4.1 L-2.55 2.65 -2.25 1.2 Q-1.95 0.6 -1.5 0.6 -1.05 0.6 -0.75 1.2 -0.45 1.8 -0.45 2.65" fill="#33ff33" fill-rule="evenodd" stroke="none"/>
    <path d="M3.8 3.7 L3.2 5.1 Q2.05 4.7 -0.3 6.4 L-0.9 7.1 -0.25 7.8 -0.3 7.9 Q-3.25 11.6 -7.55 11.1 -9.3 10.75 -10.15 6.95 L-10.35 7.05 Q-11.1 5.85 -11.2 4.75 L-11.95 4.05 -12.2 3.25 -11.8 3.5 Q-8.5 5.65 -3.85 5.65 0.6 5.65 3.8 3.7 M-11.2 -0.4 L-11.15 -0.45 -11.1 -0.4 -11.1 -0.35 -11.2 -0.4 M-10.0 6.25 L-10.0 6.35 -9.95 6.35 Q-8.3 10.05 -6.6 7.05 -6.0 11.1 -1.75 7.75 -2.15 6.65 -2.5 6.55 L-4.7 7.6 Q-5.45 6.15 -6.35 5.75 L-8.2 7.25 Q-8.45 6.2 -9.05 5.65 -9.7 5.85 -9.95 6.3 L-10.0 6.25 M-0.9 7.1 L-0.9 7.05 -1.75 7.75 -0.9 7.05 -0.9 7.1 M-10.0 6.35 Q-10.0 6.75 -10.15 6.95 -10.0 6.75 -10.0 6.35" fill="#245fa4" fill-rule="evenodd" stroke="none"/>
    <path d="M-10.0 6.25 L-9.95 6.35 -10.0 6.35 -10.0 6.25" fill="#205595" fill-rule="evenodd" stroke="none"/>
    <path d="M-3.45 -0.45 Q-3.1 -0.1 -3.1 0.4 -3.1 0.9 -3.45 1.2 -3.75 1.55 -4.25 1.55 -4.75 1.55 -5.1 1.2 L-5.4 0.4 -5.1 -0.45 -4.25 -0.75 Q-3.75 -0.75 -3.45 -0.45" fill="#ffffff" fill-rule="evenodd" stroke="none"/>
    <path d="M-9.95 6.35 L-9.95 6.3 Q-9.7 5.85 -9.05 5.65 -8.45 6.2 -8.2 7.25 L-6.35 5.75 Q-5.45 6.15 -4.7 7.6 L-2.5 6.55 Q-2.15 6.65 -1.75 7.75 -6.0 11.1 -6.6 7.05 -8.3 10.05 -9.95 6.35" fill="#000000" fill-rule="evenodd" stroke="none"/>
    <path d="M2.2 -6.0 L2.35 -5.8 Q3.7 -3.65 4.1 -0.4 4.35 1.9 3.8 3.7 0.6 5.65 -3.85 5.65 -8.5 5.65 -11.8 3.5 L-12.2 3.25 -12.2 2.85 -11.9 2.55 -11.8 2.3 -11.65 1.65 -11.65 0.6 -11.65 0.55 -11.6 0.45 -11.2 -0.4 -11.1 -0.35 -11.45 0.9 -11.45 2.35 -11.0 3.15 Q-10.7 3.25 -10.45 2.8 L-10.05 1.5 Q-9.95 0.7 -10.1 0.05 L-10.1 -0.05 -10.5 -0.75 -11.1 -0.4 -11.15 -0.45 Q-10.15 -2.3 -8.15 -4.3 L-6.35 -6.0 Q-1.65 -10.05 2.2 -6.0 M0.35 4.95 L0.8 4.5 1.0 3.5 0.8 2.45 0.35 2.05 -0.1 2.45 -0.3 3.5 -0.1 4.5 0.35 4.95 M-3.3 -0.7 Q-3.85 -1.5 -4.65 -1.5 -5.45 -1.5 -6.05 -0.7 -6.55 0.05 -6.6 1.1 L-6.6 1.35 Q-6.6 2.55 -6.05 3.35 L-5.15 4.1 -4.65 4.2 -4.6 4.2 Q-3.9 4.2 -3.4 3.5 L-3.3 3.35 Q-2.7 2.55 -2.7 1.35 -2.7 0.15 -3.3 -0.7 M-9.15 -1.45 Q-9.7 -0.85 -9.8 0.3 -9.95 1.45 -9.65 2.4 -9.4 3.35 -8.85 3.6 -8.3 3.8 -7.8 3.2 -7.35 2.6 -7.2 1.5 -7.1 0.35 -7.35 -0.65 -7.65 -1.6 -8.15 -1.8 -8.7 -2.05 -9.15 -1.45 M-0.45 2.65 Q-0.45 1.8 -0.75 1.2 -1.05 0.6 -1.5 0.6 -1.95 0.6 -2.25 1.2 L-2.55 2.65 -2.25 4.1 Q-1.95 4.7 -1.5 4.7 -1.05 4.7 -0.75 4.1 -0.45 3.5 -0.45 2.65" fill="#2c76c0" fill-rule="evenodd" stroke="none"/>
    <path d="M-0.3 7.9 Q-3.25 11.6 -7.55 11.1 -9.3 10.75 -10.15 6.95 L-10.35 7.05 Q-11.1 5.85 -11.2 4.75 M-6.35 -6.0 Q-1.65 -10.05 2.2 -6.0 M-9.95 6.35 L-10.0 6.25 -10.0 6.35 Q-10.0 6.75 -10.15 6.95 M-9.95 6.35 Q-8.3 10.05 -6.6 7.05 -6.0 11.1 -1.75 7.75 L-0.9 7.05 -0.9 7.1 -0.25 7.8 -0.3 7.9" fill="none" stroke="#163d69" stroke-linecap="round" stroke-linejoin="round" stroke-width="0.05"/>
    <path d="M2.2 -6.0 L2.35 -5.8 Q3.7 -3.65 4.1 -0.4 4.35 1.9 3.8 3.7 L3.2 5.1 Q4.35 5.8 5.45 7.05 1.95 7.15 -0.3 7.9 M-11.2 4.75 L-11.95 4.05 -12.2 3.25 -12.2 2.85 -12.25 2.85 -12.5 2.25 -12.5 1.25 -12.25 0.35 -11.9 0.1 -11.65 0.55 -11.6 0.45 -11.2 -0.4 -11.15 -0.45 Q-10.15 -2.3 -8.15 -4.3 L-6.35 -6.0 M0.35 4.95 L-0.1 4.5 -0.3 3.5 -0.1 2.45 0.35 2.05 0.8 2.45 1.0 3.5 0.8 4.5 0.35 4.95 M-11.1 -0.35 L-11.1 -0.4 -10.5 -0.75 -10.1 -0.05 -10.1 0.05 Q-9.95 0.7 -10.05 1.5 L-10.45 2.8 Q-10.7 3.25 -11.0 3.15 L-11.45 2.35 -11.45 0.9 -11.1 -0.35 M-3.3 -0.7 Q-2.7 0.15 -2.7 1.35 -2.7 2.55 -3.3 3.35 L-3.4 3.5 Q-3.9 4.2 -4.6 4.2 L-4.65 4.2 -5.15 4.1 -6.05 3.35 Q-6.6 2.55 -6.6 1.35 L-6.6 1.1 Q-6.55 0.05 -6.05 -0.7 -5.45 -1.5 -4.65 -1.5 -3.85 -1.5 -3.3 -0.7 M-9.15 -1.45 Q-9.7 -0.85 -9.8 0.3 -9.95 1.45 -9.65 2.4 -9.4 3.35 -8.85 3.6 -8.3 3.8 -7.8 3.2 -7.35 2.6 -7.2 1.5 -7.1 0.35 -7.35 -0.65 -7.65 -1.6 -8.15 -1.8 -8.7 -2.05 -9.15 -1.45 M-0.45 2.65 Q-0.45 3.5 -0.75 4.1 -1.05 4.7 -1.5 4.7 -1.95 4.7 -2.25 4.1 L-2.55 2.65 -2.25 1.2 Q-1.95 0.6 -1.5 0.6 -1.05 0.6 -0.75 1.2 -0.45 1.8 -0.45 2.65 M-9.95 6.3 L-10.0 6.25 M-1.75 7.75 Q-2.15 6.65 -2.5 6.55 L-4.7 7.6 Q-5.45 6.15 -6.35 5.75 L-8.2 7.25 Q-8.45 6.2 -9.05 5.65 -9.7 5.85 -9.95 6.3 M-0.9 7.1 L-0.3 6.4 Q2.05 4.7 3.2 5.1 M-12.2 2.85 L-11.9 2.55 -11.8 2.3 -11.65 1.65 -11.65 0.6 -11.65 0.55" fill="none" stroke="#434667" stroke-linecap="round" stroke-linejoin="round" stroke-width="0.05"/>
    <path d="M-7.75 -0.85 L-7.5 0.0 Q-7.5 0.5 -7.75 0.8 -7.9 1.15 -8.25 1.15 -8.55 1.15 -8.75 0.8 L-8.95 0.0 -8.75 -0.85 -8.25 -1.15 Q-7.9 -1.15 -7.75 -0.85" fill="#ffffff" fill-rule="evenodd" stroke="none"/>
    <path d="M-10.7 1.15 L-10.95 1.0 -11.05 0.6 -10.95 0.2 Q-10.85 0.05 -10.7 0.05 L-10.45 0.2 -10.35 0.6 -10.45 1.0 -10.7 1.15" fill="#ffffff" fill-rule="evenodd" stroke="none"/>
    <path d="M-1.4 2.5 L-1.8 2.35 -1.95 1.95 -1.8 1.55 -1.4 1.4 -1.0 1.55 -0.85 1.95 -1.0 2.35 -1.4 2.5" fill="#ffffff" fill-rule="evenodd" stroke="none"/>
    <path d="M-12.05 1.8 L-12.25 1.65 -12.35 1.25 -12.25 0.85 -12.05 0.7 Q-11.9 0.7 -11.85 0.85 L-11.75 1.25 -11.85 1.65 Q-11.9 1.8 -12.05 1.8" fill="#ffffff" fill-rule="evenodd" stroke="none"/>
    <path d="M0.5 3.55 L0.15 3.4 0.05 3.1 0.15 2.75 Q0.3 2.6 0.5 2.6 0.7 2.6 0.8 2.75 L0.95 3.1 0.8 3.4 0.5 3.55" fill="#ffffff" fill-rule="evenodd" stroke="none"/>
    <path d="M-7.1 -7.55 Q-3.55 -17.85 3.85 -15.15 -4.7 -15.05 -2.4 -7.65 -4.8 -7.25 -7.1 -4.8 -7.55 -5.1 -7.1 -7.55" fill="#163d69" fill-rule="evenodd" stroke="none"/>
    <path d="M-7.1 -7.55 Q-3.55 -17.85 3.85 -15.15 -4.7 -15.05 -2.4 -7.65 -4.8 -7.25 -7.1 -4.8 -7.55 -5.1 -7.1 -7.55 Z" fill="none" stroke="#434667" stroke-linecap="round" stroke-linejoin="round" stroke-width="0.05"/>
    <path d="M2.45 -5.8 Q-0.1 -5.4 -3.1 -2.95 -3.45 -3.25 -2.3 -5.7 3.7 -17.25 12.45 -10.95 3.45 -14.2 2.45 -5.8" fill="#163d69" fill-rule="evenodd" stroke="none"/>
    <path d="M2.45 -5.8 Q-0.1 -5.4 -3.1 -2.95 -3.45 -3.25 -2.3 -5.7 3.7 -17.25 12.45 -10.95 3.45 -14.2 2.45 -5.8 Z" fill="none" stroke="#434667" stroke-linecap="round" stroke-linejoin="round" stroke-width="0.05"/>
  </g>
</svg>
