<?xml version="1.0" encoding="UTF-8" standalone="no"?>
<svg xmlns:xlink="http://www.w3.org/1999/xlink" height="14.6px" width="3.9px" xmlns="http://www.w3.org/2000/svg">
  <g transform="matrix(1.0, 0.0, 0.0, 1.0, 2.0, 0.85)">
    <path d="M-0.45 6.85 L-0.4 6.85 -0.45 6.85" fill="#39689f" fill-rule="evenodd" stroke="none"/>
    <path d="M1.9 2.15 L1.3 8.35 1.3 13.7 Q-0.2 14.15 -1.5 11.8 -2.0 11.0 -1.45 10.65 0.25 9.6 -0.45 6.85 L-0.4 6.85 Q-1.4 5.7 -2.0 4.3 -1.75 1.7 0.0 -0.85 1.55 0.05 1.9 2.15 M1.3 8.35 Q0.3 9.3 -0.4 6.85 0.3 9.3 1.3 8.35 L-0.4 6.85 1.3 8.35" fill="#4d6262" fill-rule="evenodd" stroke="none"/>
    <path d="M1.9 2.15 L1.3 8.35 1.3 13.7 M-0.45 6.85 L-0.4 6.85 Q0.3 9.3 1.3 8.35" fill="none" stroke="#000000" stroke-linecap="round" stroke-linejoin="round" stroke-width="0.05"/>
    <path d="M1.3 13.7 Q-0.2 14.15 -1.5 11.8 -2.0 11.0 -1.45 10.65 0.25 9.6 -0.45 6.85 M-0.4 6.85 Q-1.4 5.7 -2.0 4.3 -1.75 1.7 0.0 -0.85 1.55 0.05 1.9 2.15 M1.3 8.35 L-0.4 6.85" fill="none" stroke="#000000" stroke-linecap="round" stroke-linejoin="round" stroke-width="0.05"/>
  </g>
</svg>
