<?xml version="1.0" encoding="UTF-8" standalone="no"?>
<svg xmlns:xlink="http://www.w3.org/1999/xlink" height="8.2px" width="7.0px" xmlns="http://www.w3.org/2000/svg">
  <g transform="matrix(1.0, 0.0, 0.0, 1.0, 2.7, 6.05)">
    <path d="M3.3 -5.95 L4.15 -4.5 4.3 -3.25 4.2 -2.0 4.0 -1.1 3.65 -0.1 3.2 0.9 2.55 1.65 1.75 2.0 0.65 2.15 0.0 2.15 -0.05 2.05 0.45 1.75 1.25 1.1 1.9 0.55 2.6 -0.45 3.0 -1.35 3.25 -2.35 3.4 -3.2 3.5 -4.1 3.3 -5.95" fill="#354345" fill-rule="evenodd" stroke="none"/>
    <path d="M-0.15 2.1 Q-0.4 1.95 -0.6 1.95 -2.0 1.15 -2.55 -1.1 -2.8 -2.4 -2.65 -3.2 L-2.45 -4.2 -2.2 -4.6 -0.7 -5.55 Q0.6 -6.25 3.3 -5.95 L3.5 -4.1 3.4 -3.2 3.25 -2.35 3.0 -1.35 2.6 -0.45 1.9 0.55 1.25 1.1 0.45 1.75 -0.05 2.05 -0.15 2.1" fill="#4d6262" fill-rule="evenodd" stroke="none"/>
    <path d="M0.0 2.15 L-0.15 2.1 -0.05 2.05 0.0 2.15" fill="#537557" fill-rule="evenodd" stroke="none"/>
    <path d="M-0.15 2.1 Q-0.4 1.95 -0.6 1.95 -2.0 1.15 -2.55 -1.1 -2.8 -2.4 -2.65 -3.2 L-2.45 -4.2 -2.2 -4.6 -0.7 -5.55 Q0.6 -6.25 3.3 -5.95 L4.15 -4.5 4.3 -3.25 4.2 -2.0 4.0 -1.1 3.65 -0.1 3.2 0.9 2.55 1.65 1.75 2.0 0.65 2.15 0.0 2.15 -0.15 2.1 Z" fill="none" stroke="#000000" stroke-linecap="round" stroke-linejoin="round" stroke-width="0.05"/>
  </g>
</svg>
