<?xml version="1.0" encoding="UTF-8" standalone="no"?>
<svg xmlns:xlink="http://www.w3.org/1999/xlink" height="28.7px" width="9.1px" xmlns="http://www.w3.org/2000/svg">
  <g transform="matrix(1.0, 0.0, 0.0, 1.0, 5.4, 29.2)">
    <path d="M-2.7 -24.95 L-2.75 -24.95 -2.7 -24.95" fill="#783d4a" fill-rule="evenodd" stroke="none"/>
    <path d="M-2.6 -21.7 L-2.6 -21.6 -2.65 -21.65 -2.6 -21.7" fill="#8786ae" fill-rule="evenodd" stroke="none"/>
    <path d="M0.2 -27.95 Q3.8 -21.35 3.7 -19.8 L0.65 -15.35 0.15 -13.2 -0.05 -10.25 0.15 -13.2 Q1.75 -12.75 2.45 -11.6 1.9 -10.75 -0.05 -10.25 L0.0 -10.25 Q1.15 -10.05 2.4 -8.95 1.8 -8.0 0.2 -7.45 L0.1 -7.45 0.1 -7.4 0.55 -4.4 0.1 -7.4 0.2 -7.45 Q1.6 -7.2 2.6 -6.4 2.15 -5.15 0.55 -4.4 L1.05 -2.05 -1.2 -0.5 -1.7 -5.45 -1.95 -8.65 -2.15 -12.5 -2.6 -21.6 -2.6 -21.7 -2.75 -24.95 -2.7 -24.95 Q-1.0 -26.0 0.2 -27.95 -1.0 -26.0 -2.7 -24.95 -4.05 -25.7 -4.45 -27.35 L-4.3 -27.75 Q-3.85 -28.65 -3.05 -29.15 L-2.85 -29.2 Q-1.0 -29.35 0.2 -27.95 M0.0 -10.25 L0.1 -7.45 0.0 -10.25" fill="#354345" fill-rule="evenodd" stroke="none"/>
    <path d="M-2.75 -24.95 L-2.6 -21.7 -2.65 -21.65 -2.6 -21.6 -2.15 -12.5 -1.95 -8.65 -1.7 -5.45 -1.2 -0.5 Q-3.65 -1.4 -3.9 -1.6 L-4.9 -2.75 -4.15 -3.8 -3.85 -4.05 Q-2.7 -8.75 -3.25 -16.8 L-5.4 -20.8 Q-5.4 -23.4 -4.45 -27.35 -4.05 -25.7 -2.7 -24.95 L-2.75 -24.95" fill="#4d6262" fill-rule="evenodd" stroke="none"/>
    <path d="M0.15 -13.2 L0.65 -15.35 3.7 -19.8 Q3.8 -21.35 0.2 -27.95 -1.0 -29.35 -2.85 -29.2 L-3.05 -29.15 Q-3.85 -28.65 -4.3 -27.75 L-4.45 -27.35 Q-5.4 -23.4 -5.4 -20.8 L-3.25 -16.8 Q-2.7 -8.75 -3.85 -4.05 L-4.15 -3.8 -4.9 -2.75 -3.9 -1.6 Q-3.65 -1.4 -1.2 -0.5 L1.05 -2.05 0.55 -4.4 0.1 -7.4 0.1 -7.45 0.0 -10.25 -0.05 -10.25 0.15 -13.2 Q1.75 -12.75 2.45 -11.6 1.9 -10.75 -0.05 -10.25 M0.55 -4.4 Q2.15 -5.15 2.6 -6.4 1.6 -7.2 0.2 -7.45 L0.1 -7.4 M0.1 -7.45 L0.2 -7.45 Q1.8 -8.0 2.4 -8.95 1.15 -10.05 0.0 -10.25" fill="none" stroke="#301820" stroke-linecap="round" stroke-linejoin="round" stroke-width="0.05"/>
    <path d="M0.2 -27.95 Q-1.0 -26.0 -2.7 -24.95 -4.05 -25.7 -4.45 -27.35 M-2.75 -24.95 L-2.7 -24.95" fill="none" stroke="#3e3f59" stroke-linecap="round" stroke-linejoin="round" stroke-width="0.05"/>
  </g>
</svg>
