<?xml version="1.0" encoding="UTF-8" standalone="no"?>
<svg xmlns:xlink="http://www.w3.org/1999/xlink" height="13.35px" width="11.7px" xmlns="http://www.w3.org/2000/svg">
  <g transform="matrix(1.0, 0.0, 0.0, 1.0, 7.2, 4.45)">
    <path d="M-4.25 2.75 L-7.2 3.35 -4.85 1.0 -4.9 0.85 -5.05 -1.25 -5.0 -1.8 -4.95 -2.15 -4.6 -3.8 -3.4 -4.45 Q-2.65 -4.5 -0.45 -2.45 L0.15 -1.9 0.6 -1.4 Q2.7 2.1 2.65 5.45 L1.2 5.95 Q-2.3 4.35 -4.2 -0.1 L-4.7 2.15 -4.25 2.75 M1.3 -0.65 L4.5 0.25 2.4 0.95 2.2 0.45 1.3 -0.65 M-4.85 1.0 L-4.7 2.15 -4.85 1.0 M-4.95 -2.15 L-4.2 -0.1 -4.95 -2.15" fill="#354345" fill-rule="evenodd" stroke="none"/>
    <path d="M0.6 -1.4 L1.1 -0.9 1.3 -0.65 2.2 0.45 2.4 0.95 Q4.9 7.05 3.3 8.9 0.4 8.8 -4.25 2.75 L-4.7 2.15 -4.2 -0.1 Q-2.3 4.35 1.2 5.95 L2.65 5.45 Q2.7 2.1 0.6 -1.4" fill="#4d6262" fill-rule="evenodd" stroke="none"/>
    <path d="M-4.25 2.75 L-7.2 3.35 -4.85 1.0 -4.9 0.85 -5.05 -1.25 -5.0 -1.8 -4.95 -2.15 -4.6 -3.8 -3.4 -4.45 Q-2.65 -4.5 -0.45 -2.45 L0.15 -1.9 0.6 -1.4 1.1 -0.9 1.3 -0.65 4.5 0.25 2.4 0.95 Q4.9 7.05 3.3 8.9 0.4 8.8 -4.25 2.75 L-4.7 2.15 -4.85 1.0 M2.4 0.95 L2.2 0.45 1.3 -0.65 M0.6 -1.4 Q2.7 2.1 2.65 5.45 L1.2 5.95 Q-2.3 4.35 -4.2 -0.1 L-4.95 -2.15" fill="none" stroke="#1d3450" stroke-linecap="round" stroke-linejoin="round" stroke-width="0.05"/>
  </g>
</svg>
