<?xml version="1.0" encoding="UTF-8" standalone="no"?>
<svg xmlns:xlink="http://www.w3.org/1999/xlink" height="13.95px" width="26.65px" xmlns="http://www.w3.org/2000/svg">
  <g transform="matrix(1.0, 0.0, 0.0, 1.0, 0.15, 13.4)">
    <path d="M10.15 -9.75 L11.0 -11.4 10.15 -9.75 9.5 -8.5 5.55 -5.8 5.9 -7.35 5.55 -5.8 5.3 -4.95 2.45 -2.6 2.45 -1.1 -0.15 0.55 Q0.85 -2.3 2.45 -4.15 L2.45 -3.45 Q3.6 -5.65 6.05 -7.9 L5.9 -7.35 Q7.35 -9.55 11.1 -11.65 L11.0 -11.4 Q14.6 -13.55 18.9 -13.4 L18.6 -13.1 17.6 -12.05 18.6 -13.1 Q20.9 -12.65 24.6 -9.75 L23.85 -9.6 25.75 -6.2 26.3 -5.1 26.05 -5.15 Q26.7 -3.0 26.4 0.2 25.95 -2.1 24.95 -4.2 L25.05 -5.5 24.25 -5.75 Q23.65 -7.55 22.35 -9.3 L21.4 -9.1 17.6 -12.05 16.4 -10.8 Q13.9 -11.0 10.15 -9.75 M2.45 -2.6 L2.45 -3.45 2.45 -2.6 M26.05 -5.15 L25.05 -5.5 26.05 -5.15 M22.35 -9.3 L23.85 -9.6 22.35 -9.3" fill="#802d32" fill-rule="evenodd" stroke="none"/>
    <path d="M11.0 -11.4 L10.15 -9.75 Q13.9 -11.0 16.4 -10.8 L17.6 -12.05 18.6 -13.1 18.9 -13.4 M11.0 -11.4 L11.1 -11.65 M5.9 -7.35 L5.55 -5.8 9.5 -8.5 10.15 -9.75 M6.05 -7.9 L5.9 -7.35 M5.55 -5.8 L5.3 -4.95 2.45 -2.6 2.45 -1.1 -0.15 0.55 M2.45 -4.15 L2.45 -3.45 2.45 -2.6 M26.4 0.2 Q25.95 -2.1 24.95 -4.2 L25.05 -5.5 24.25 -5.75 Q23.65 -7.55 22.35 -9.3 L21.4 -9.1 17.6 -12.05 M24.6 -9.75 L23.85 -9.6 22.35 -9.3 M26.3 -5.1 L26.05 -5.15 25.05 -5.5" fill="none" stroke="#000000" stroke-linecap="round" stroke-linejoin="round" stroke-width="0.05"/>
    <path d="M18.9 -13.4 Q14.6 -13.55 11.0 -11.4 M11.1 -11.65 Q7.35 -9.55 5.9 -7.35 M-0.15 0.55 Q0.85 -2.3 2.45 -4.15 M2.45 -3.45 Q3.6 -5.65 6.05 -7.9 M23.85 -9.6 L25.75 -6.2 26.3 -5.1 M26.05 -5.15 Q26.7 -3.0 26.4 0.2 M18.6 -13.1 Q20.9 -12.65 24.6 -9.75" fill="none" stroke="#e0a9ae" stroke-linecap="round" stroke-linejoin="round" stroke-width="0.05"/>
  </g>
</svg>
