<?xml version="1.0" encoding="UTF-8" standalone="no"?>
<svg xmlns:xlink="http://www.w3.org/1999/xlink" height="77.95px" width="48.6px" xmlns="http://www.w3.org/2000/svg">
  <g transform="matrix(1.0, 0.0, 0.0, 1.0, 17.5, 35.5)">
    <path d="M27.1 22.2 L27.55 23.25 Q30.35 29.65 30.95 29.95 31.5 30.25 29.9 30.95 28.25 31.55 24.55 31.05 L22.75 26.6 24.95 24.55 27.1 22.2 M20.25 9.0 Q23.15 13.05 24.7 17.75 24.3 17.9 23.95 18.2 21.95 19.35 20.8 20.65 19.7 17.15 18.7 13.05 L19.8 10.35 20.05 9.65 20.25 9.0" fill="#a7a7a7" fill-rule="evenodd" stroke="none"/>
    <path d="M24.55 31.05 Q23.2 30.9 22.95 32.15 22.9 34.75 16.2 34.4 L14.6 34.35 22.75 26.6 24.55 31.05 M-0.15 34.7 L-3.55 32.85 -3.65 26.05 -3.5 26.6 -3.45 26.65 -0.85 33.2 -0.15 34.7 M-3.7 23.55 L-3.9 8.45 -2.5 10.35 -2.5 10.4 -2.3 10.55 -2.35 12.45 -2.4 12.45 -2.4 12.5 Q-2.4 14.6 -1.7 17.15 L-0.95 17.1 -0.9 19.3 Q-1.05 20.75 -2.2 21.3 L-2.3 21.35 -2.75 21.55 -3.25 23.15 -3.7 23.55 M15.75 24.85 Q16.05 23.55 15.75 22.8 15.35 22.7 14.1 22.0 L13.55 21.55 Q12.8 20.7 12.75 19.0 13.8 18.65 15.05 17.75 L17.25 16.25 18.7 13.05 Q19.7 17.15 20.8 20.65 19.85 21.7 19.4 22.8 18.4 25.15 12.95 33.35 L11.6 32.25 13.7 30.4 Q20.0 24.9 15.85 24.8 L15.75 24.85" fill="#bcbcbc" fill-rule="evenodd" stroke="none"/>
    <path d="M22.6 -1.65 L24.05 -0.95 23.55 1.15 23.05 2.1 22.55 2.95 22.0 3.8 21.9 3.9 21.2 4.65 21.05 4.75 21.0 4.8 19.95 5.5 19.0 5.9 18.0 6.15 17.85 6.2 17.2 6.35 17.1 6.35 16.65 6.0 Q15.45 4.5 15.7 1.8 15.95 0.25 16.45 -0.55 L16.5 -0.65 17.0 -1.55 17.45 -1.9 19.45 -2.2 Q20.7 -2.4 22.6 -1.65 M28.45 20.1 L27.1 22.2 24.95 24.55 22.75 26.6 14.6 34.35 13.95 34.95 14.0 35.0 Q15.3 36.25 14.0 38.75 L9.25 42.25 8.4 42.15 7.9 42.45 7.85 42.4 8.55 38.45 8.45 35.85 6.5 33.65 11.25 32.0 11.6 32.25 12.95 33.35 Q18.4 25.15 19.4 22.8 19.85 21.7 20.8 20.65 21.95 19.35 23.95 18.2 24.3 17.9 24.7 17.75 L25.55 20.8 26.55 20.9 Q27.65 20.8 28.45 20.1 M2.45 37.8 Q1.4 37.8 -0.15 34.7 L-0.85 33.2 -3.45 26.65 -3.5 26.6 -3.65 26.05 Q-4.1 24.3 -3.7 23.55 L-3.25 23.15 -3.35 24.35 -2.0 25.5 Q-0.6 26.35 1.7 26.85 0.55 30.55 0.65 33.25 L0.95 35.25 Q1.4 36.8 2.45 37.8 M-3.9 8.45 L-4.15 8.1 Q-4.35 7.2 -3.95 5.7 L-3.35 3.8 -3.05 3.1 -2.9 2.7 -2.45 3.7 -1.55 5.45 1.3 1.7 2.4 2.05 3.0 2.15 3.25 2.1 3.25 2.15 5.25 6.65 Q10.05 4.8 14.35 1.1 L15.55 3.35 15.85 4.35 Q16.45 6.7 15.8 9.8 L15.6 10.5 15.6 10.55 15.6 10.6 15.55 10.6 Q11.45 13.35 7.6 12.5 L5.8 11.7 2.8 11.0 Q1.6 10.75 -0.5 11.45 L-2.3 10.55 -0.5 11.45 Q1.6 10.75 2.8 11.0 L5.8 11.7 7.6 12.5 Q11.45 13.35 15.55 10.6 13.95 15.85 6.45 14.35 L6.25 14.3 5.9 14.1 Q4.65 13.35 3.6 13.0 1.3 12.95 -0.15 14.3 -2.1 13.55 -2.4 12.5 L-2.35 12.45 -2.3 10.55 -2.5 10.4 -2.5 10.35 -3.9 8.45 M-10.45 11.55 Q-10.15 12.0 -10.0 12.7 -9.25 15.75 -10.4 17.95 -11.5 20.05 -14.0 28.25 L-12.05 28.45 -10.1 32.05 -12.55 32.25 -14.1 33.65 -15.95 36.3 -16.0 36.3 -16.1 35.85 -16.65 35.4 -17.5 30.7 Q-17.0 28.8 -15.75 28.6 L-15.35 16.65 -15.25 15.1 Q-14.35 16.45 -12.35 16.1 L-10.45 11.55 M-14.8 13.0 Q-14.45 11.8 -13.85 11.2 L-13.1 10.9 -14.8 13.0 M-7.0 -3.55 Q-5.3 -4.3 -4.05 -4.45 -3.65 -4.1 -3.0 -3.9 L-2.95 -2.55 -3.35 -1.45 -3.4 -1.7 -4.3 0.6 -4.6 1.65 -5.3 0.9 -5.85 0.0 -6.3 -0.8 -6.6 -1.55 -6.65 -1.65 Q-7.0 -2.6 -7.0 -3.55 M3.7 -14.25 L2.85 -14.1 Q2.35 -15.85 0.65 -15.95 L0.4 -15.95 Q-1.3 -15.9 -2.75 -14.05 -3.75 -13.5 -4.65 -14.2 -5.9 -16.2 -7.05 -16.2 -8.1 -16.25 -7.85 -14.55 L-8.25 -15.65 -8.4 -16.2 -8.6 -17.35 Q-4.2 -15.75 2.6 -17.15 L3.7 -14.25 M-15.75 28.6 L-15.4 28.6 -14.0 28.25 -15.4 28.6 -15.75 28.6 M13.95 34.95 L12.95 33.35 13.95 34.95" fill="#6da396" fill-rule="evenodd" stroke="none"/>
    <path d="M24.05 -0.95 L24.4 1.05 24.1 2.45 23.5 3.75 22.95 4.6 22.9 4.65 22.15 5.55 21.65 6.1 21.3 6.5 20.8 6.8 20.25 7.05 19.2 7.05 18.7 6.95 20.25 9.0 20.05 9.65 19.8 10.35 18.7 13.05 17.25 16.25 15.05 17.75 Q13.8 18.65 12.75 19.0 10.9 19.55 9.7 18.25 L9.2 17.55 Q8.05 15.65 6.45 14.45 L6.25 14.3 6.45 14.35 Q13.95 15.85 15.55 10.6 L15.6 10.6 15.6 10.55 15.6 10.5 15.8 9.8 Q16.45 6.7 15.85 4.35 L15.55 3.35 14.35 1.1 15.7 -0.1 16.25 -0.65 16.5 -0.65 16.45 -0.55 Q15.95 0.25 15.7 1.8 15.45 4.5 16.65 6.0 L17.1 6.35 17.25 6.45 17.2 6.35 17.85 6.2 18.0 6.15 19.0 5.9 19.95 5.5 21.0 4.8 21.05 4.75 21.2 4.65 21.9 3.9 22.0 3.8 22.55 2.95 23.05 2.1 23.55 1.15 24.05 -0.95 M7.85 42.4 L5.5 38.35 Q7.75 37.9 6.95 36.2 5.1 37.6 4.15 37.85 L2.45 37.8 Q1.4 36.8 0.95 35.25 L0.65 33.25 Q0.55 30.55 1.7 26.85 L4.55 27.25 6.1 27.25 Q12.4 27.05 15.75 24.85 L15.85 24.8 Q20.0 24.9 13.7 30.4 L11.6 32.25 11.25 32.0 6.5 33.65 8.45 35.85 8.55 38.45 7.85 42.4 M-4.15 8.1 Q-5.45 6.2 -5.0 3.25 L-4.95 3.15 -5.65 2.35 -6.3 1.5 -6.8 0.65 -7.25 -0.5 -7.4 -1.2 -7.45 -1.8 -7.0 -3.55 Q-7.0 -2.6 -6.65 -1.65 L-6.6 -1.55 -6.3 -0.8 -5.85 0.0 -5.3 0.9 -4.6 1.65 -4.3 0.6 -3.4 -1.7 -3.35 -1.45 -3.4 -1.3 Q-3.6 -0.5 -3.45 0.95 L-2.9 2.7 -3.05 3.1 -3.35 3.8 -3.95 5.7 Q-4.35 7.2 -4.15 8.1 M-10.1 32.05 L-11.15 33.55 Q-11.45 33.3 -11.8 33.2 L-11.8 33.25 Q-13.4 33.7 -12.2 35.3 L-15.95 36.3 -14.1 33.65 -12.55 32.25 -10.1 32.05 M18.05 8.05 L17.6 8.6 16.55 9.75 15.8 10.4 15.6 10.5 15.8 10.4 16.55 9.75 17.6 8.6 18.05 8.05 M-4.95 3.15 L-4.95 3.05 -4.6 1.65 -4.95 3.05 -4.95 3.15 M-0.15 14.3 L-1.2 15.8 -0.95 17.1 -1.7 17.15 Q-2.4 14.6 -2.4 12.5 -2.1 13.55 -0.15 14.3 M17.25 6.45 L17.95 6.75 18.7 6.95 17.95 6.75 17.25 6.45 M6.5 33.65 L6.1 35.85 6.9 36.1 6.95 36.2 6.9 36.1 6.1 35.85 6.5 33.65" fill="#598c81" fill-rule="evenodd" stroke="none"/>
    <path d="M17.1 6.35 L17.2 6.35 17.25 6.45 17.1 6.35" fill="#537557" fill-rule="evenodd" stroke="none"/>
    <path d="M10.05 -9.6 L10.25 -8.3 10.75 -5.85 6.7 -5.2 2.3 -5.05 2.25 -5.05 2.3 -5.15 2.4 -5.25 2.5 -5.35 2.6 -5.4 2.6 -5.45 2.55 -5.45 2.9 -6.75 3.75 -7.3 Q4.25 -9.4 4.9 -11.1 L6.1 -7.85 Q7.95 -8.15 10.05 -9.6 M22.95 4.6 Q23.95 12.65 29.3 18.8 L28.45 20.1 Q27.65 20.8 26.55 20.9 L25.55 20.8 24.7 17.75 Q23.15 13.05 20.25 9.0 L18.7 6.95 19.2 7.05 20.25 7.05 20.8 6.8 21.3 6.5 21.65 6.1 22.15 5.55 22.9 4.65 22.95 4.6 M-5.0 3.25 Q-8.25 7.1 -10.45 11.55 L-12.35 16.1 Q-14.35 16.45 -15.25 15.1 L-15.75 14.0 -14.8 13.0 -13.1 10.9 Q-9.0 5.5 -7.4 -1.2 L-7.25 -0.5 -6.8 0.65 -6.3 1.5 -5.65 2.35 -4.95 3.15 -5.0 3.25 M-6.45 -27.3 Q-6.65 -31.35 -5.5 -34.6 L-5.1 -35.5 Q-5.2 -30.9 -4.75 -28.55 L-4.3 -27.05 Q-4.05 -26.35 -3.6 -26.15 L-3.75 -25.75 Q-4.75 -23.05 -4.75 -19.75 -5.85 -22.25 -6.3 -25.45 L-6.35 -25.9 -6.45 -27.3 M-0.95 17.1 L-1.2 15.8 -0.15 14.3 Q1.3 12.95 3.6 13.0 4.65 13.35 5.9 14.1 L6.25 14.3 6.45 14.45 Q8.05 15.65 9.2 17.55 L9.7 18.25 Q10.9 19.55 12.75 19.0 12.8 20.7 13.55 21.55 L14.1 22.0 Q15.35 22.7 15.75 22.8 16.05 23.55 15.75 24.85 12.4 27.05 6.1 27.25 L4.55 27.25 1.7 26.85 Q-0.6 26.35 -2.0 25.5 L-3.35 24.35 -3.25 23.15 -2.75 21.55 -2.3 21.35 -2.2 21.3 Q-1.05 20.75 -0.9 19.3 L-0.95 17.1" fill="#385851" fill-rule="evenodd" stroke="none"/>
    <path d="M10.25 -8.3 L12.05 -8.3 Q14.3 -8.1 14.3 -7.45 14.3 -6.8 12.1 -6.15 L11.25 -5.95 10.75 -5.85 10.25 -8.3 M2.9 -6.75 L2.55 -5.45 2.6 -5.4 2.5 -5.35 2.4 -5.25 2.3 -5.15 2.25 -5.05 2.2 -5.05 1.9 -5.05 1.75 -5.05 1.3 -5.1 1.05 -5.1 2.9 -6.75" fill="#2e071a" fill-rule="evenodd" stroke="none"/>
    <path d="M2.55 -5.45 L2.6 -5.45 2.6 -5.4 2.55 -5.45" fill="#7b1544" fill-rule="evenodd" stroke="none"/>
    <path d="M14.3 -7.45 L14.45 -6.25 Q14.25 -5.6 12.0 -4.95 L11.2 -4.75 10.65 -4.6 6.65 -4.0 2.15 -3.8 1.85 -3.85 1.65 -3.85 1.2 -3.9 0.2 -4.05 1.05 -5.1 1.3 -5.1 1.75 -5.05 1.9 -5.05 2.2 -5.05 2.25 -5.05 2.3 -5.05 6.7 -5.2 10.75 -5.85 11.25 -5.95 12.1 -6.15 Q14.3 -6.8 14.3 -7.45 M-1.35 -1.6 Q-0.75 -0.5 0.45 0.2 L2.45 0.95 3.05 1.05 5.3 0.65 9.35 -0.45 Q8.55 0.35 3.45 2.05 L3.4 2.05 3.25 2.1 3.0 2.15 2.4 2.05 1.3 1.7 0.35 0.75 Q-0.9 -0.65 -1.35 -1.6 M2.05 -1.3 L2.0 0.0 0.95 -1.3 2.1 -3.2 3.75 -3.1 4.8 -0.9 3.7 0.2 3.6 -1.05 2.05 -1.3" fill="#6b1440" fill-rule="evenodd" stroke="none"/>
    <path d="M14.45 -6.25 L14.45 -6.2 14.75 -4.0 12.6 -3.0 11.15 -2.05 9.95 -1.0 9.35 -0.45 5.3 0.65 3.05 1.05 2.45 0.95 0.45 0.2 Q-0.75 -0.5 -1.35 -1.6 L-1.5 -2.1 -1.55 -2.45 -1.35 -3.7 0.0 -3.75 0.2 -4.05 1.2 -3.9 1.65 -3.85 1.85 -3.85 2.15 -3.8 6.65 -4.0 10.65 -4.6 11.2 -4.75 12.0 -4.95 Q14.25 -5.6 14.45 -6.25 M2.05 -1.3 L3.6 -1.05 3.7 0.2 4.8 -0.9 3.75 -3.1 2.1 -3.2 0.95 -1.3 2.0 0.0 2.05 -1.3" fill="#bf205c" fill-rule="evenodd" stroke="none"/>
    <path d="M14.75 -4.0 L15.0 -4.1 18.65 -4.45 Q21.15 -4.4 22.45 -1.95 L22.6 -1.65 Q20.7 -2.4 19.45 -2.2 L17.45 -1.9 17.0 -1.55 16.5 -0.65 16.25 -0.65 15.7 -0.1 14.35 1.1 Q10.05 4.8 5.25 6.65 L3.25 2.15 3.4 2.05 3.25 2.15 3.25 2.1 3.4 2.05 3.45 2.05 Q8.55 0.35 9.35 -0.45 L9.95 -1.0 11.15 -2.05 12.6 -3.0 14.75 -4.0 M-1.35 -3.7 L-1.55 -2.45 -1.5 -2.1 -1.35 -1.6 Q-0.9 -0.65 0.35 0.75 L1.3 1.7 -1.55 5.45 -2.45 3.7 -2.9 2.7 -3.45 0.95 Q-3.6 -0.5 -3.4 -1.3 L-3.35 -1.45 -2.95 -2.55 -3.0 -3.9 -1.35 -3.7 M13.45 -0.25 L15.6 -0.6 16.25 -0.65 15.6 -0.6 13.45 -0.25" fill="#e7e7e7" fill-rule="evenodd" stroke="none"/>
    <path d="M-2.35 12.45 L-2.4 12.5 -2.4 12.45 -2.35 12.45" fill="#618f5c" fill-rule="evenodd" stroke="none"/>
    <path d="M0.4 -15.95 L0.65 -15.95 Q2.35 -15.85 2.85 -14.1 L3.7 -14.25 4.35 -12.55 3.0 -12.2 0.45 -12.35 0.45 -12.45 Q1.1 -12.6 1.85 -13.05 2.35 -13.5 2.4 -14.15 1.75 -15.45 0.4 -15.95 M-8.25 -15.65 L-7.85 -14.55 -7.8 -14.25 -7.75 -14.25 Q-6.55 -12.85 -5.8 -12.85 -6.6 -12.2 -7.7 -13.25 L-8.2 -15.15 -8.25 -15.65" fill="#548173" fill-rule="evenodd" stroke="none"/>
    <path d="M-7.85 -14.55 Q-8.1 -16.25 -7.05 -16.2 -5.9 -16.2 -4.65 -14.2 L-4.65 -14.15 Q-5.0 -13.05 -5.6 -12.9 L-5.8 -12.85 Q-6.55 -12.85 -7.75 -14.25 L-7.85 -14.55 M-2.75 -14.05 Q-1.3 -15.9 0.4 -15.95 1.75 -15.45 2.4 -14.15 2.35 -13.5 1.85 -13.05 1.1 -12.6 0.45 -12.45 L0.3 -12.4 0.05 -12.35 Q-1.5 -12.3 -2.75 -14.05 M0.15 -12.8 L0.25 -13.15 0.2 -13.85 0.0 -14.6 -0.15 -14.9 -0.2 -14.6 -0.15 -13.8 0.05 -13.1 0.15 -12.8 M-6.35 -13.45 L-6.3 -13.75 -6.3 -14.4 -6.5 -15.1 -6.65 -15.3 -6.7 -15.05 -6.65 -14.4 -6.45 -13.7 -6.35 -13.45" fill="#ff0000" fill-rule="evenodd" stroke="none"/>
    <path d="M-0.15 -14.9 L0.0 -14.6 0.2 -13.85 0.25 -13.15 0.15 -12.8 0.05 -13.1 -0.15 -13.8 -0.2 -14.6 -0.15 -14.9 M-6.65 -15.3 L-6.5 -15.1 -6.3 -14.4 -6.3 -13.75 -6.35 -13.45 -6.45 -13.7 -6.65 -14.4 -6.7 -15.05 -6.65 -15.3" fill="#5f0000" fill-rule="evenodd" stroke="none"/>
    <path d="M-4.05 -4.45 L-4.3 -4.75 -4.8 -6.6 Q-5.45 -8.8 -6.4 -10.35 L-7.15 -11.95 -7.2 -12.1 -7.35 -12.3 -7.7 -13.25 Q-6.6 -12.2 -5.8 -12.85 L-5.6 -12.9 Q-5.85 -12.0 -5.1 -10.9 L-5.2 -10.85 -5.1 -10.85 Q-5.25 -9.5 -4.6 -8.45 L-3.95 -5.05 -0.8 -4.7 -0.45 -7.7 -0.4 -7.95 -1.0 -11.05 0.05 -12.35 0.3 -12.4 0.45 -12.35 3.0 -12.2 4.35 -12.55 4.9 -11.1 Q4.25 -9.4 3.75 -7.3 L2.9 -6.75 1.05 -5.1 0.2 -4.05 0.0 -3.75 -1.35 -3.7 -3.0 -3.9 Q-3.65 -4.1 -4.05 -4.45" fill="#8cb5a8" fill-rule="evenodd" stroke="none"/>
    <path d="M-4.65 -14.2 Q-3.75 -13.5 -2.75 -14.05 -1.5 -12.3 0.05 -12.35 L-1.0 -11.05 -1.85 -10.4 -5.1 -10.85 -5.1 -10.9 Q-5.85 -12.0 -5.6 -12.9 -5.0 -13.05 -4.65 -14.15 L-4.65 -14.2" fill="#b5cec6" fill-rule="evenodd" stroke="none"/>
    <path d="M-1.0 -11.05 L-0.4 -7.95 -0.45 -7.7 -0.8 -4.7 -3.95 -5.05 -4.6 -8.45 Q-5.25 -9.5 -5.1 -10.85 L-1.85 -10.4 -1.0 -11.05 M-4.6 -8.45 L-3.7 -7.4 -3.25 -8.6 -2.2 -7.3 -1.45 -8.8 -0.45 -7.7 -1.45 -8.8 -2.2 -7.3 -3.25 -8.6 -3.7 -7.4 -4.6 -8.45" fill="#eff5f3" fill-rule="evenodd" stroke="none"/>
    <path d="M-4.75 -28.55 L-2.4 -29.4 -0.35 -29.8 0.35 -29.8 1.4 -29.85 Q3.6 -29.75 5.55 -28.75 L7.75 -26.85 Q9.4 -25.25 9.8 -22.75 L10.8 -18.1 Q11.4 -15.95 14.25 -13.5 12.05 -11.05 10.05 -9.6 7.95 -8.15 6.1 -7.85 L4.9 -11.1 4.35 -12.55 3.7 -14.25 2.6 -17.15 Q-4.2 -15.75 -8.6 -17.35 L-8.4 -16.2 -8.25 -15.3 Q-7.9 -13.15 -7.35 -12.3 L-7.2 -12.1 -7.15 -11.95 -6.8 -7.7 -8.95 -9.9 Q-8.25 -12.3 -9.0 -17.4 L-9.75 -20.1 Q-9.85 -22.95 -7.8 -25.75 L-6.45 -27.3 -6.35 -25.9 -6.3 -25.45 Q-5.85 -22.25 -4.75 -19.75 -4.75 -23.05 -3.75 -25.75 L-3.6 -26.15 Q-4.05 -26.35 -4.3 -27.05 L-4.75 -28.55" fill="#bf956a" fill-rule="evenodd" stroke="none"/>
    <path d="M10.05 -9.6 L10.25 -8.3 10.75 -5.85 M22.6 -1.65 L24.05 -0.95 24.4 1.05 24.1 2.45 23.5 3.75 22.95 4.6 22.9 4.65 22.15 5.55 21.65 6.1 21.3 6.5 20.8 6.8 20.25 7.05 19.2 7.05 18.7 6.95 17.95 6.75 17.25 6.45 17.1 6.35 16.65 6.0 Q15.45 4.5 15.7 1.8 15.95 0.25 16.45 -0.55 L16.5 -0.65 17.0 -1.55 17.45 -1.9 19.45 -2.2 Q20.7 -2.4 22.6 -1.65 M28.45 20.1 L27.1 22.2 24.95 24.55 22.75 26.6 14.6 34.35 13.95 34.95 14.0 35.0 Q15.3 36.25 14.0 38.75 L9.25 42.25 8.4 42.15 7.9 42.45 7.85 42.4 5.5 38.35 Q7.75 37.9 6.95 36.2 5.1 37.6 4.15 37.85 L2.45 37.8 Q1.4 37.8 -0.15 34.7 L-0.85 33.2 -3.45 26.65 M-3.65 26.05 Q-4.1 24.3 -3.7 23.55 L-3.25 23.15 -3.35 24.35 -2.0 25.5 Q-0.6 26.35 1.7 26.85 L4.55 27.25 6.1 27.25 Q12.4 27.05 15.75 24.85 16.05 23.55 15.75 22.8 15.35 22.7 14.1 22.0 L13.55 21.55 Q12.8 20.7 12.75 19.0 10.9 19.55 9.7 18.25 L9.2 17.55 Q8.05 15.65 6.45 14.45 L6.25 14.3 5.9 14.1 Q4.65 13.35 3.6 13.0 1.3 12.95 -0.15 14.3 L-1.2 15.8 -0.95 17.1 -0.9 19.3 Q-1.05 20.75 -2.2 21.3 L-2.3 21.35 -2.75 21.55 -3.25 23.15 M-3.9 8.45 L-4.15 8.1 Q-5.45 6.2 -5.0 3.25 L-4.95 3.15 -5.65 2.35 -6.3 1.5 -6.8 0.65 -7.25 -0.5 -7.4 -1.2 -7.45 -1.8 -7.0 -3.55 Q-5.3 -4.3 -4.05 -4.45 L-4.3 -4.75 -4.8 -6.6 Q-5.45 -8.8 -6.4 -10.35 L-7.15 -11.95 M-10.45 11.55 Q-10.15 12.0 -10.0 12.7 -9.25 15.75 -10.4 17.95 -11.5 20.05 -14.0 28.25 L-12.05 28.45 -10.1 32.05 -11.15 33.55 Q-11.45 33.3 -11.8 33.2 M-11.8 33.25 Q-13.4 33.7 -12.2 35.3 L-15.95 36.3 -16.0 36.3 -16.1 35.85 -16.65 35.4 -17.5 30.7 Q-17.0 28.8 -15.75 28.6 L-15.35 16.65 -15.25 15.1 M-14.8 13.0 Q-14.45 11.8 -13.85 11.2 L-13.1 10.9 M0.4 -15.95 L0.65 -15.95 Q2.35 -15.85 2.85 -14.1 L3.7 -14.25 M-8.4 -16.2 L-8.25 -15.65 -7.85 -14.55 Q-8.1 -16.25 -7.05 -16.2 -5.9 -16.2 -4.65 -14.2 L-4.65 -14.15 Q-5.0 -13.05 -5.6 -12.9 M-2.75 -14.05 Q-1.3 -15.9 0.4 -15.95 M0.15 -12.8 L0.05 -13.1 M-0.2 -14.6 L-0.15 -14.9 M0.3 -12.4 L0.45 -12.45 M4.9 -11.1 Q4.25 -9.4 3.75 -7.3 L2.9 -6.75 2.55 -5.45 2.6 -5.45 2.6 -5.4 2.5 -5.35 M1.05 -5.1 L0.2 -4.05 0.0 -3.75 -1.35 -3.7 -3.0 -3.9 Q-3.65 -4.1 -4.05 -4.45 M2.9 -6.75 L1.05 -5.1 M15.6 10.5 L15.8 10.4 16.55 9.75 17.6 8.6 18.05 8.05 M-1.0 -11.05 L-0.4 -7.95 -0.45 -7.7 -0.8 -4.7 -3.95 -5.05 M-7.7 -13.25 L-7.35 -12.3 M-8.25 -15.65 L-8.2 -15.15 -7.7 -13.25 M-7.75 -14.25 L-7.8 -14.25 -7.85 -14.55 -7.75 -14.25 M-6.35 -13.45 L-6.45 -13.7 M-6.7 -15.05 L-6.65 -15.3 M-0.45 -7.7 L-1.45 -8.8 -2.2 -7.3 -3.25 -8.6 -3.7 -7.4 -4.6 -8.45 M-5.1 -10.85 L-1.85 -10.4 -1.0 -11.05 M-5.1 -10.85 L-5.1 -10.9 M-4.6 1.65 L-4.3 0.6 -3.4 -1.7 M-4.6 1.65 L-4.95 3.05 -4.95 3.15 M-3.9 8.45 L-2.5 10.35 -2.5 10.4 -2.3 10.55 -0.5 11.45 Q1.6 10.75 2.8 11.0 L5.8 11.7 7.6 12.5 Q11.45 13.35 15.55 10.6 L15.6 10.6 15.6 10.55 15.6 10.5 M-2.4 12.5 Q-2.4 14.6 -1.7 17.15 L-0.95 17.1 M-2.3 10.55 L-2.35 12.45 M-3.5 26.6 L-3.65 26.05 M-14.0 28.25 L-15.4 28.6 -15.75 28.6 M24.7 17.75 Q24.3 17.9 23.95 18.2 21.95 19.35 20.8 20.65 19.85 21.7 19.4 22.8 18.4 25.15 12.95 33.35 L13.95 34.95 M18.7 13.05 L19.8 10.35 20.05 9.65 20.25 9.0 M18.7 13.05 L17.25 16.25 15.05 17.75 Q13.8 18.65 12.75 19.0 M15.75 24.85 L15.85 24.8 Q20.0 24.9 13.7 30.4 L11.6 32.25 12.95 33.35 M11.6 32.25 L11.25 32.0 6.5 33.65 6.1 35.85 6.9 36.1 6.95 36.2 M1.7 26.85 Q0.55 30.55 0.65 33.25 L0.95 35.25 Q1.4 36.8 2.45 37.8 M0.05 -12.35 Q-1.5 -12.3 -2.75 -14.05" fill="none" stroke="#39574e" stroke-linecap="round" stroke-linejoin="round" stroke-width="0.05"/>
    <path d="M10.25 -8.3 L12.05 -8.3 Q14.3 -8.1 14.3 -7.45 L14.45 -6.25 14.45 -6.2 14.75 -4.0 M2.25 -5.05 L2.3 -5.05 6.7 -5.2 10.75 -5.85 11.25 -5.95 12.1 -6.15 Q14.3 -6.8 14.3 -7.45 M2.2 -5.05 L1.9 -5.05 1.75 -5.05 1.3 -5.1 1.05 -5.1 M2.25 -5.05 L2.2 -5.05 M3.4 2.05 L3.25 2.1 3.0 2.15 2.4 2.05 1.3 1.7" fill="none" stroke="#2e071b" stroke-linecap="round" stroke-linejoin="round" stroke-width="0.05"/>
    <path d="M3.25 2.1 L3.25 2.15" fill="none" stroke="#999999" stroke-linecap="round" stroke-linejoin="round" stroke-width="0.05"/>
    <path d="M-4.75 -28.55 L-2.4 -29.4 -0.35 -29.8 0.35 -29.8 1.4 -29.85 Q3.6 -29.75 5.55 -28.75 L7.75 -26.85 Q9.4 -25.25 9.8 -22.75 L10.8 -18.1 Q11.4 -15.95 14.25 -13.5 12.05 -11.05 10.05 -9.6 7.95 -8.15 6.1 -7.85 L4.9 -11.1 4.35 -12.55 3.7 -14.25 2.6 -17.15 Q-4.2 -15.75 -8.6 -17.35 L-8.4 -16.2 -8.25 -15.3 Q-7.9 -13.15 -7.35 -12.3 L-7.2 -12.1 -7.15 -11.95 -6.8 -7.7 -8.95 -9.9 Q-8.25 -12.3 -9.0 -17.4 L-9.75 -20.1 Q-9.85 -22.95 -7.8 -25.75 L-6.45 -27.3" fill="none" stroke="#6d4e30" stroke-linecap="round" stroke-linejoin="round" stroke-width="0.05"/>
    <path d="M22.95 4.6 Q23.95 12.65 29.3 18.8 M-5.0 3.25 Q-8.25 7.1 -10.45 11.55 L-12.35 16.1 M-15.75 14.0 L-14.8 13.0 -13.1 10.9 Q-9.0 5.5 -7.4 -1.2 M-6.45 -27.3 Q-6.65 -31.35 -5.5 -34.6 L-5.1 -35.5 Q-5.2 -30.9 -4.75 -28.55 L-4.3 -27.05 Q-4.05 -26.35 -3.6 -26.15 L-3.75 -25.75 Q-4.75 -23.05 -4.75 -19.75 -5.85 -22.25 -6.3 -25.45 L-6.35 -25.9 -6.45 -27.3 M18.7 6.95 L20.25 9.0 Q23.15 13.05 24.7 17.75 L25.55 20.8" fill="none" stroke="#374e32" stroke-linecap="round" stroke-linejoin="round" stroke-width="0.05"/>
    <path d="M14.75 -4.0 L15.0 -4.1 18.65 -4.45 Q21.15 -4.4 22.45 -1.95 L22.6 -1.65 M27.1 22.2 L27.55 23.25 Q30.35 29.65 30.95 29.95 31.5 30.25 29.9 30.95 28.25 31.55 24.55 31.05 23.2 30.9 22.95 32.15 22.9 34.75 16.2 34.4 L14.6 34.35 M-0.15 34.7 L-3.55 32.85 -3.65 26.05 M-3.7 23.55 L-3.9 8.45 M-1.35 -3.7 L-1.55 -2.45 -1.5 -2.1 -1.35 -1.6 Q-0.9 -0.65 0.35 0.75 L1.3 1.7 -1.55 5.45 -2.45 3.7 -2.9 2.7 -3.45 0.95 Q-3.6 -0.5 -3.4 -1.3 L-3.35 -1.45 -2.95 -2.55 -3.0 -3.9 M9.35 -0.45 L9.95 -1.0 11.15 -2.05 12.6 -3.0 14.75 -4.0 M16.25 -0.65 L15.6 -0.6 13.45 -0.25 M16.5 -0.65 L16.25 -0.65 15.7 -0.1 14.35 1.1 Q10.05 4.8 5.25 6.65 L3.25 2.15 3.4 2.05 3.45 2.05 Q8.55 0.35 9.35 -0.45 M22.75 26.6 L24.55 31.05 M20.8 20.65 Q19.7 17.15 18.7 13.05" fill="none" stroke="#666666" stroke-linecap="round" stroke-linejoin="round" stroke-width="0.05"/>
  </g>
</svg>
