<?xml version="1.0" encoding="UTF-8" standalone="no"?>
<svg xmlns:xlink="http://www.w3.org/1999/xlink" height="36.75px" width="39.2px" xmlns="http://www.w3.org/2000/svg">
  <g transform="matrix(1.0, 0.0, 0.0, 1.0, 19.6, 30.7)">
    <path d="M5.05 -30.4 Q4.4 -9.0 7.45 -2.55 9.6 2.0 8.55 5.7 -4.55 6.85 -17.6 4.45 -21.4 4.45 -18.05 -2.55 -14.7 -9.55 -15.55 -28.4 -5.55 -31.5 5.05 -30.4" fill="#ab4131" fill-rule="evenodd" stroke="none"/>
    <path d="M8.55 5.7 Q9.6 2.0 7.45 -2.55 4.4 -9.0 5.05 -30.4 10.2 -29.9 15.55 -28.4 14.7 -9.55 18.05 -2.55 21.4 4.45 17.6 4.45 L8.55 5.7" fill="#9f342f" fill-rule="evenodd" stroke="none"/>
    <path d="M8.55 5.7 L17.6 4.45 Q21.4 4.45 18.05 -2.55 14.7 -9.55 15.55 -28.4 10.2 -29.9 5.05 -30.4 -5.55 -31.5 -15.55 -28.4 -14.7 -9.55 -18.05 -2.55 -21.4 4.45 -17.6 4.45 -4.55 6.85 8.55 5.7 Z" fill="none" stroke="#1b1b1b" stroke-linecap="round" stroke-linejoin="round" stroke-width="0.05"/>
  </g>
</svg>
