<?xml version="1.0" encoding="UTF-8" standalone="no"?>
<svg xmlns:xlink="http://www.w3.org/1999/xlink" height="118.4px" width="92.75px" xmlns="http://www.w3.org/2000/svg">
  <g transform="matrix(1.0, 0.0, 0.0, 1.0, 29.45, 80.05)">
    <path d="M-24.5 10.45 Q-29.15 -6.2 0.35 -27.9 L1.9 -27.7 1.9 -20.1 Q12.25 -7.85 23.5 -23.6 26.2 -24.6 28.65 -23.6 L10.15 -0.7 9.75 -1.2 Q9.1 -1.85 8.15 -1.85 7.2 -1.85 6.55 -1.2 5.9 -0.55 5.9 0.4 5.9 1.35 6.55 2.0 L7.45 2.55 0.6 10.75 Q-10.95 5.25 -24.5 10.45 M-29.3 33.3 Q-29.8 27.65 -28.75 22.4 L-23.5 13.35 Q-4.85 9.5 2.9 16.25 L-19.4 33.3 -29.3 33.3 M-9.55 16.5 L-16.35 16.5 -16.4 16.65 -24.15 27.45 -20.3 27.45 -9.55 16.5 M-10.6 -1.9 Q-10.0 -2.45 -10.0 -3.25 -10.0 -4.05 -10.6 -4.65 -11.15 -5.2 -11.95 -5.2 -12.75 -5.2 -13.35 -4.65 -13.9 -4.05 -13.9 -3.25 -13.9 -2.45 -13.35 -1.9 -12.75 -1.3 -11.95 -1.3 -11.15 -1.3 -10.6 -1.9" fill="#ab4131" fill-rule="evenodd" stroke="none"/>
    <path d="M-24.5 10.45 Q-10.95 5.25 0.6 10.75 3.3 12.0 5.9 13.9 8.7 15.9 11.35 18.6 L6.9 22.05 Q5.55 18.5 2.9 16.25 -4.85 9.5 -23.5 13.35 L-24.5 10.45" fill="#6a2320" fill-rule="evenodd" stroke="none"/>
    <path d="M7.45 2.55 L6.55 2.0 Q5.9 1.35 5.9 0.4 5.9 -0.55 6.55 -1.2 7.2 -1.85 8.15 -1.85 9.1 -1.85 9.75 -1.2 L10.15 -0.7 10.4 0.4 Q10.4 1.35 9.75 2.0 9.1 2.65 8.15 2.65 L7.45 2.55 M-10.6 -1.9 Q-11.15 -1.3 -11.95 -1.3 -12.75 -1.3 -13.35 -1.9 -13.9 -2.45 -13.9 -3.25 -13.9 -4.05 -13.35 -4.65 -12.75 -5.2 -11.95 -5.2 -11.15 -5.2 -10.6 -4.65 -10.0 -4.05 -10.0 -3.25 -10.0 -2.45 -10.6 -1.9 M-9.55 16.5 L-20.3 27.45 -24.15 27.45 -16.4 16.65 -16.35 16.5 -9.55 16.5" fill="#fefe57" fill-rule="evenodd" stroke="none"/>
    <path d="M0.6 10.75 L7.45 2.55 8.15 2.65 Q9.1 2.65 9.75 2.0 10.4 1.35 10.4 0.4 L10.15 -0.7 28.65 -23.6 Q36.15 -20.7 39.4 -10.5 30.6 7.25 11.35 18.6 8.7 15.9 5.9 13.9 3.3 12.0 0.6 10.75 M6.9 22.05 L-18.8 38.35 -28.7 37.5 -29.3 33.3 -19.4 33.3 2.9 16.25 Q5.55 18.5 6.9 22.05" fill="#9f342f" fill-rule="evenodd" stroke="none"/>
    <path d="M28.65 -23.6 Q26.2 -24.6 23.5 -23.6 12.25 -7.85 1.9 -20.1 L1.9 -27.7 0.35 -27.9 Q-29.15 -6.2 -24.5 10.45 -10.95 5.25 0.6 10.75 3.3 12.0 5.9 13.9 8.7 15.9 11.35 18.6 L6.9 22.05 -18.8 38.35 -28.7 37.5 -29.3 33.3 Q-29.8 27.65 -28.75 22.4 L-23.5 13.35 -24.5 10.45 M7.45 2.55 L6.55 2.0 Q5.9 1.35 5.9 0.4 5.9 -0.55 6.55 -1.2 7.2 -1.85 8.15 -1.85 9.1 -1.85 9.75 -1.2 L10.15 -0.7 10.4 0.4 Q10.4 1.35 9.75 2.0 9.1 2.65 8.15 2.65 L7.45 2.55 M28.65 -23.6 Q36.15 -20.7 39.4 -10.5 30.6 7.25 11.35 18.6 M-10.6 -1.9 Q-11.15 -1.3 -11.95 -1.3 -12.75 -1.3 -13.35 -1.9 -13.9 -2.45 -13.9 -3.25 -13.9 -4.05 -13.35 -4.65 -12.75 -5.2 -11.95 -5.2 -11.15 -5.2 -10.6 -4.65 -10.0 -4.05 -10.0 -3.25 -10.0 -2.45 -10.6 -1.9 M-9.55 16.5 L-20.3 27.45 -24.15 27.45 -16.4 16.65 -16.35 16.5 -9.55 16.5" fill="none" stroke="#000000" stroke-linecap="round" stroke-linejoin="round" stroke-width="0.05"/>
    <path d="M25.25 2.3 Q26.75 11.75 24.0 16.15 14.7 18.8 9.35 11.6 7.95 3.75 14.55 0.4 18.5 -2.7 25.25 2.3 M15.95 5.55 L11.8 5.75 Q10.2 6.45 9.85 8.25 9.4 9.95 10.5 11.65 11.85 13.3 14.05 14.0 16.2 14.65 17.85 13.95 19.7 13.2 20.1 11.45 20.5 9.7 19.2 8.1 18.1 6.3 15.95 5.55" fill="#fefe57" fill-rule="evenodd" stroke="none"/>
    <path d="M15.95 5.55 Q18.1 6.3 19.2 8.1 20.5 9.7 20.1 11.45 19.7 13.2 17.85 13.95 16.2 14.65 14.05 14.0 11.85 13.3 10.5 11.65 9.4 9.95 9.85 8.25 10.2 6.45 11.8 5.75 L15.95 5.55" fill="#8a510e" fill-rule="evenodd" stroke="none"/>
    <path d="M25.25 2.3 Q18.5 -2.7 14.55 0.4 7.95 3.75 9.35 11.6 14.7 18.8 24.0 16.15 26.75 11.75 25.25 2.3 Z" fill="none" stroke="#6c322b" stroke-linecap="round" stroke-linejoin="round" stroke-width="0.05"/>
    <path d="M-22.05 -3.45 Q-23.15 -3.4 -24.15 -2.4 -24.95 -1.3 -25.05 0.05 -25.25 1.35 -24.65 2.2 -23.85 3.2 -22.75 3.2 -21.75 3.1 -20.95 2.0 -19.95 1.0 -19.75 -0.3 -19.65 -1.65 -20.45 -2.65 -21.05 -3.55 -22.05 -3.45 M-19.55 -11.25 Q-18.4 -11.3 -17.25 -9.65 -18.1 -1.4 -20.05 2.95 -23.45 5.75 -25.05 3.6 L-26.0 1.15 Q-25.45 -5.6 -21.9 -9.65 -20.75 -11.35 -19.55 -11.25" fill="#fefe57" fill-rule="evenodd" stroke="none"/>
    <path d="M-22.05 -3.45 Q-21.05 -3.55 -20.45 -2.65 -19.65 -1.65 -19.75 -0.3 -19.95 1.0 -20.95 2.0 -21.75 3.1 -22.75 3.2 -23.85 3.2 -24.65 2.2 -25.25 1.35 -25.05 0.05 -24.95 -1.3 -24.15 -2.4 -23.15 -3.4 -22.05 -3.45" fill="#8a510e" fill-rule="evenodd" stroke="none"/>
    <path d="M-19.55 -11.25 Q-20.75 -11.35 -21.9 -9.65 -25.45 -5.6 -26.0 1.15 L-25.05 3.6 Q-23.45 5.75 -20.05 2.95 -18.1 -1.4 -17.25 -9.65 -18.4 -11.3 -19.55 -11.25 Z" fill="none" stroke="#6c322b" stroke-linecap="round" stroke-linejoin="round" stroke-width="0.05"/>
    <path d="M42.9 -79.65 L43.05 -79.45 Q9.0 -45.25 -1.9 -14.85 -0.75 -14.2 0.35 -12.95 -3.05 -7.85 -7.05 -7.05 L-6.75 -15.4 Q11.5 -56.3 42.9 -79.65 M-6.75 -15.4 Q-4.1 -16.1 -1.9 -14.85 -4.1 -16.1 -6.75 -15.4" fill="#b11700" fill-rule="evenodd" stroke="none"/>
    <path d="M42.9 -79.65 L43.4 -80.05 M43.05 -79.45 Q9.0 -45.25 -1.9 -14.85 -0.75 -14.2 0.35 -12.95 -3.05 -7.85 -7.05 -7.05 L-6.75 -15.4 Q11.5 -56.3 42.9 -79.65 M-1.9 -14.85 Q-4.1 -16.1 -6.75 -15.4" fill="none" stroke="#000000" stroke-linecap="round" stroke-linejoin="round" stroke-width="0.05"/>
    <path d="M62.75 -76.4 L62.85 -76.2 Q23.65 -42.0 8.2 -11.6 9.25 -10.95 10.15 -9.7 6.0 -4.6 1.85 -3.8 2.45 -7.65 3.4 -12.15 27.85 -53.05 62.75 -76.4 M3.4 -12.15 Q6.2 -12.85 8.2 -11.6 6.2 -12.85 3.4 -12.15" fill="#b11700" fill-rule="evenodd" stroke="none"/>
    <path d="M62.85 -76.2 Q23.65 -42.0 8.2 -11.6 9.25 -10.95 10.15 -9.7 6.0 -4.6 1.85 -3.8 2.45 -7.65 3.4 -12.15 27.85 -53.05 62.75 -76.4 L63.3 -76.8 M8.2 -11.6 Q6.2 -12.85 3.4 -12.15" fill="none" stroke="#000000" stroke-linecap="round" stroke-linejoin="round" stroke-width="0.05"/>
  </g>
</svg>
