<?xml version="1.0" encoding="UTF-8" standalone="no"?>
<svg xmlns:xlink="http://www.w3.org/1999/xlink" height="5.9px" width="35.0px" xmlns="http://www.w3.org/2000/svg">
  <g transform="matrix(1.0, 0.0, 0.0, 1.0, 12.25, 2.35)">
    <path d="M3.55 3.5 L3.3 3.35 3.8 3.55 3.7 3.55 3.55 3.5" fill="#ca7928" fill-rule="evenodd" stroke="none"/>
    <path d="M-9.3 0.15 L-7.75 0.15 -7.7 -1.55 -6.75 -1.6 -5.75 0.15 -2.85 0.15 -2.6 -0.4 -1.8 -0.8 -1.0 -0.5 Q-0.6 -0.2 -0.55 0.25 -0.5 0.7 -0.85 1.05 -1.15 1.45 -1.6 1.5 L-2.45 1.25 -2.8 0.55 -11.75 0.6 -12.25 0.15 -11.15 0.15 -9.3 0.15 M-2.85 0.15 L-2.85 0.45 -2.8 0.55 -2.85 0.45 -2.85 0.15 M-7.75 0.15 L-5.75 0.15 -7.75 0.15" fill="#999999" fill-rule="evenodd" stroke="none"/>
    <path d="M3.55 3.5 L3.7 3.55 3.8 3.55" fill="none" stroke="#834e1b" stroke-linecap="round" stroke-linejoin="round" stroke-width="0.05"/>
    <path d="M-9.3 0.15 L-7.75 0.15 -7.7 -1.55 -6.75 -1.6 -5.75 0.15 -2.85 0.15 M-2.8 0.55 L-11.75 0.6 -12.25 0.15 -11.15 0.15 -11.1 -2.15 M-5.75 0.15 L-7.75 0.15 M-11.15 0.15 L-9.3 0.15 -9.35 -2.05" fill="none" stroke="#666666" stroke-linecap="round" stroke-linejoin="round" stroke-width="0.05"/>
    <path d="M-2.85 0.15 L-2.6 -0.4 -1.8 -0.8 -1.0 -0.5 Q-0.6 -0.2 -0.55 0.25 -0.5 0.7 -0.85 1.05 -1.15 1.45 -1.6 1.5 L-2.45 1.25 -2.8 0.55 -2.85 0.45 -2.85 0.15" fill="none" stroke="#666666" stroke-linecap="round" stroke-linejoin="round" stroke-width="0.05"/>
    <path d="M21.9 1.85 L21.3 1.4 Q21.05 0.95 21.05 0.3 21.05 -0.35 21.3 -0.8 L21.85 -1.25 21.9 -1.25 22.5 -0.8 22.75 0.3 22.5 1.4 21.9 1.85" fill="#ebc198" fill-rule="evenodd" stroke="none"/>
    <path d="M3.3 3.35 L2.3 2.7 Q1.5 1.85 1.55 0.6 1.5 -0.65 2.3 -1.55 2.8 -2.05 3.45 -2.25 L3.65 -2.3 3.85 -2.35 21.85 -1.25 21.3 -0.8 Q21.05 -0.35 21.05 0.3 21.05 0.95 21.3 1.4 L21.9 1.85 3.8 3.55 3.3 3.35" fill="#dd9d51" fill-rule="evenodd" stroke="none"/>
    <path d="M3.45 -2.25 Q2.8 -2.05 2.3 -1.55 1.5 -0.65 1.55 0.6 1.5 1.85 2.3 2.7 L3.3 3.35 3.55 3.5 0.0 2.3 Q-1.1 1.95 -1.45 1.5 -1.85 1.0 -1.85 0.4 -1.85 -0.3 -1.45 -0.75 -1.1 -1.15 -0.65 -1.15 L3.45 -2.25" fill="#ca7928" fill-rule="evenodd" stroke="none"/>
    <path d="M3.3 3.35 L3.8 3.55 21.9 1.85 22.5 1.4 22.75 0.3 22.5 -0.8 21.9 -1.25 21.85 -1.25 3.85 -2.35 3.65 -2.3 3.45 -2.25 -0.65 -1.15 Q-1.1 -1.15 -1.45 -0.75 -1.85 -0.3 -1.85 0.4 -1.85 1.0 -1.45 1.5 -1.1 1.95 0.0 2.3 L3.55 3.5 3.3 3.35 Z" fill="none" stroke="#834e1b" stroke-linecap="round" stroke-linejoin="round" stroke-width="0.05"/>
  </g>
</svg>
