<?xml version="1.0" encoding="UTF-8" standalone="no"?>
<svg xmlns:xlink="http://www.w3.org/1999/xlink" height="63.4px" width="17.1px" xmlns="http://www.w3.org/2000/svg">
  <g transform="matrix(1.0, 0.0, 0.0, 1.0, 5.0, 0.95)">
    <path d="M2.7 -0.8 Q5.0 -0.35 6.2 0.85 7.0 1.7 7.85 3.8 9.0 4.35 9.7 5.35 12.0 8.65 12.1 15.95 9.85 17.05 7.3 16.05 6.2 19.65 5.55 23.3 L4.2 31.15 2.85 32.75 4.95 12.6 Q6.55 14.85 11.1 14.55 8.75 6.15 5.1 3.95 5.8 2.0 2.7 -0.8" fill="#3c2f99" fill-rule="evenodd" stroke="none"/>
    <path d="M-1.55 62.45 Q-4.8 61.7 -3.95 31.9 L-4.95 5.7 -5.0 5.3 -5.0 5.25 -5.0 5.05 -5.0 4.45 Q-4.85 1.95 -2.8 0.4 -0.75 -1.15 2.0 -0.9 L2.7 -0.8 Q5.8 2.0 5.1 3.95 8.75 6.15 11.1 14.55 6.55 14.85 4.95 12.6 L2.85 32.75 Q-0.15 34.65 -1.25 40.4 L-1.35 41.0 Q-2.95 53.4 -1.55 62.45" fill="#8253c4" fill-rule="evenodd" stroke="none"/>
    <path d="M4.2 31.15 L5.8 38.35 3.7 47.35 Q-0.3 55.95 -1.55 62.45 -2.95 53.4 -1.35 41.0 L-1.25 40.4 Q-0.15 34.65 2.85 32.75 L4.2 31.15" fill="#cd5050" fill-rule="evenodd" stroke="none"/>
    <path d="M-1.55 62.45 Q-4.8 61.7 -3.95 31.9 L-4.95 5.7 -5.0 5.3 -5.0 5.25 -5.0 5.05 -5.0 4.45 Q-4.85 1.95 -2.8 0.4 -0.75 -1.15 2.0 -0.9 L2.7 -0.8 Q5.0 -0.35 6.2 0.85 7.0 1.7 7.85 3.8 9.0 4.35 9.7 5.35 12.0 8.65 12.1 15.95 9.85 17.05 7.3 16.05 6.2 19.65 5.55 23.3 M4.2 31.15 L5.8 38.35 3.7 47.35 Q-0.3 55.95 -1.55 62.45 -2.95 53.4 -1.35 41.0 L-1.25 40.4 Q-0.15 34.65 2.85 32.75 L4.2 31.15" fill="none" stroke="#333333" stroke-linecap="round" stroke-linejoin="round" stroke-width="0.05"/>
    <path d="M5.55 23.3 L4.2 31.15" fill="none" stroke="#834e1b" stroke-linecap="round" stroke-linejoin="round" stroke-width="0.05"/>
  </g>
</svg>
