<?xml version="1.0" encoding="UTF-8" standalone="no"?>
<svg xmlns:xlink="http://www.w3.org/1999/xlink" height="30.2px" width="42.35px" xmlns="http://www.w3.org/2000/svg">
  <g transform="matrix(1.0, 0.0, 0.0, 1.0, 21.25, 11.5)">
    <path d="M-0.2 -11.5 L2.1 -9.9 6.85 -6.65 5.55 -5.7 5.55 -5.5 5.6 0.3 5.45 0.35 -4.1 4.95 -4.35 5.1 -4.5 5.1 -4.55 5.05 -4.35 -1.2 -4.25 -5.0 -4.2 -4.95 2.05 -1.5 5.45 0.35 2.05 -1.5 -4.2 -4.95 -4.25 -5.0 -4.35 -1.2 -4.55 5.05 -11.1 -1.05 -11.55 -1.4 -8.95 -8.9 -0.25 -11.5 -0.2 -11.5 M2.05 -6.45 L2.05 -1.5 2.05 -6.45 M-4.35 -1.2 L-11.1 -1.05 -4.35 -1.2 M-5.0 -6.85 L-5.85 -8.85 -8.95 -8.9 -5.85 -8.85 -5.0 -6.85 -4.25 -5.05 -4.25 -5.0 -4.25 -5.05 -5.0 -6.85 -6.0 -4.95 -5.0 -6.85 M-4.2 -4.95 L2.1 -9.9 -4.2 -4.95" fill="#bebebe" fill-rule="evenodd" stroke="none"/>
    <path d="M-0.2 -11.5 L3.15 -11.3 8.2 -7.65 8.25 -7.65 10.35 -4.05 5.55 -5.5 10.35 -4.05 12.35 -0.65 12.35 -0.6 9.0 5.4 7.45 8.25 3.45 8.8 3.35 8.85 -5.05 10.1 -9.55 13.9 -9.6 13.85 -13.9 5.35 -13.85 -1.8 -13.85 -1.85 -13.8 -1.95 -13.75 -2.0 -11.5 -5.25 -8.95 -8.9 -11.55 -1.4 -11.1 -1.05 -4.55 5.05 -4.5 5.1 -4.35 5.1 -4.1 4.95 5.45 0.35 5.6 0.3 5.55 -5.5 5.55 -5.7 6.85 -6.65 2.1 -9.9 -0.2 -11.5 M5.45 0.35 L3.45 8.8 5.45 0.35 M-13.8 -1.95 L-13.85 -1.8 -13.8 -1.95 M-4.35 5.1 L-7.1 7.35 -9.4 9.35 -9.6 13.85 -9.4 9.35 -7.1 7.35 -4.35 5.1 M-7.1 7.35 L-2.25 7.35 -7.1 7.35" fill="#a8a8a8" fill-rule="evenodd" stroke="none"/>
    <path d="M14.85 -5.45 L18.9 1.45 21.1 3.7 20.25 9.5 20.2 9.65 12.9 14.0 12.5 14.2 6.35 18.7 5.95 18.7 -1.1 18.6 -1.25 18.6 -11.75 15.85 -16.55 11.55 -16.55 11.5 -18.5 7.55 -18.55 7.5 -18.7 7.4 -21.25 5.75 -21.0 2.1 -18.05 0.65 -18.3 4.6 -18.5 7.5 -17.2 7.0 -15.95 9.0 -15.0 10.65 -15.0 10.7 -14.95 10.7 -15.0 10.7 -15.0 10.65 -14.95 10.7 -11.75 15.85 -11.65 15.85 -2.3 16.2 7.15 16.45 7.4 16.3 13.8 9.4 14.3 11.2 12.9 14.0 14.3 11.2 13.8 9.4 16.5 6.55 16.55 6.5 18.5 4.35 14.95 -2.3 14.95 -2.4 14.95 -2.45 14.85 -5.45 M21.1 3.7 L19.3 6.65 18.5 4.35 19.3 6.65 21.1 3.7 M20.25 9.5 L19.3 6.65 20.25 9.5 M5.95 18.7 L7.4 16.3 5.95 18.7 M14.3 11.2 L16.5 6.55 14.3 11.2 M-1.1 18.6 L-2.3 16.2 -1.1 18.6 M-18.55 7.5 L-18.5 7.5 -18.5 7.55 -18.5 7.5 -18.55 7.5 M-17.45 5.25 L-17.4 5.6 -17.2 7.0 -18.5 7.5 -18.3 4.6 -18.05 0.65 -17.45 5.25 M-15.95 9.0 L-16.35 10.7 -16.55 11.55 -16.35 10.7 -15.95 9.0 M-16.35 10.7 L-15.0 10.7 -16.35 10.7 M-20.35 3.6 L-18.3 4.6 -20.35 3.6 -18.7 7.4 -20.35 3.6 -21.0 2.1 -20.35 3.6" fill="#757575" fill-rule="evenodd" stroke="none"/>
    <path d="M10.35 -4.05 L8.25 -7.65 14.85 -5.45 14.95 -2.45 14.95 -2.4 14.95 -2.3 12.35 -0.65 14.95 -2.3 18.5 4.35 16.55 6.5 16.5 6.55 15.05 4.05 12.35 -0.6 15.05 4.05 16.5 6.55 13.8 9.4 7.4 16.3 3.4 9.0 3.45 8.8 3.4 9.0 7.4 16.3 7.15 16.45 -2.3 16.2 -11.65 15.85 -10.9 15.25 -9.55 13.9 -10.9 15.25 -11.65 15.85 -11.75 15.85 -14.95 10.7 -15.0 10.65 -15.95 9.0 -17.2 7.0 -17.4 5.6 -17.45 5.25 -18.05 0.65 -16.85 -3.1 -11.5 -5.25 -13.75 -2.0 -13.8 -1.95 -13.85 -1.85 -13.85 -1.8 -13.9 5.35 -9.6 13.85 -9.55 13.9 -5.05 10.1 3.35 8.85 3.45 8.8 7.45 8.25 9.0 5.4 15.05 4.05 9.0 5.4 12.35 -0.6 12.35 -0.65 10.35 -4.05 M3.4 9.0 L3.35 8.85 3.4 9.0 M-3.8 11.9 L-1.3 14.9 -2.3 16.2 -1.3 14.9 -3.8 11.9 M-13.9 5.35 L-14.6 8.85 -15.0 10.65 -14.6 8.85 -13.9 5.35 M-13.4 8.9 L-14.6 8.85 -13.4 8.9 M-10.65 13.75 L-11.3 13.75 -11.55 12.65 -11.3 13.75 -10.65 13.75 M-11.3 13.75 L-10.9 15.25 -11.3 13.75 M-0.1 13.45 L-1.3 14.9 -0.1 13.45 M-17.45 5.25 L-13.85 -1.8 -17.45 5.25" fill="#8f8f8f" fill-rule="evenodd" stroke="none"/>
    <path d="M5.55 -5.5 L10.35 -4.05 M5.45 0.35 L2.05 -1.5 -4.2 -4.95 -4.25 -5.0 -4.35 -1.2 -4.55 5.05 M-4.35 5.1 L-4.1 4.95 M2.05 -1.5 L2.05 -6.45 M12.35 -0.65 L14.95 -2.3 M14.95 -2.4 L14.95 -2.45 M12.35 -0.6 L15.05 4.05 16.5 6.55 16.55 6.5 M18.5 4.35 L19.3 6.65 21.1 3.7 M12.9 14.0 L14.3 11.2 13.8 9.4 M7.4 16.3 L5.95 18.7 M19.3 6.65 L20.25 9.5 M16.5 6.55 L14.3 11.2 M3.45 8.8 L3.4 9.0 7.4 16.3 M-2.3 16.2 L-1.1 18.6 M3.35 8.85 L3.4 9.0 M9.0 5.4 L15.05 4.05 M3.45 8.8 L5.45 0.35 M-11.1 -1.05 L-4.35 -1.2 M-13.8 -1.95 L-13.75 -2.0 M-13.85 -1.8 L-13.8 -1.95 M-9.6 13.85 L-9.4 9.35 -7.1 7.35 -4.35 5.1 M-4.25 -5.0 L-4.25 -5.05 -5.0 -6.85 -6.0 -4.95 M-8.95 -8.9 L-5.85 -8.85 -5.0 -6.85 M-9.55 13.9 L-10.9 15.25 -11.65 15.85 M-2.3 16.2 L-1.3 14.9 -3.8 11.9 M-2.25 7.35 L-7.1 7.35 M-18.5 7.55 L-18.5 7.5 -18.55 7.5 M-17.45 5.25 L-17.4 5.6 M-15.0 10.65 L-14.6 8.85 -13.9 5.35 M-18.05 0.65 L-18.3 4.6 -18.5 7.5 -17.2 7.0 M-16.55 11.55 L-16.35 10.7 -15.95 9.0 M-14.6 8.85 L-13.4 8.9 M-15.0 10.65 L-15.0 10.7 -14.95 10.7 M-11.55 12.65 L-11.3 13.75 -10.65 13.75 M-15.0 10.7 L-16.35 10.7 M-1.3 14.9 L-0.1 13.45 M-10.9 15.25 L-11.3 13.75 M-18.7 7.4 L-20.35 3.6 -21.0 2.1 M-18.3 4.6 L-20.35 3.6 M-13.85 -1.8 L-17.45 5.25 M2.1 -9.9 L-4.2 -4.95" fill="none" stroke="#333333" stroke-linecap="round" stroke-linejoin="round" stroke-width="0.05"/>
    <path d="M8.25 -7.65 L8.2 -7.65 3.15 -11.3 -0.2 -11.5 -0.25 -11.5 -8.95 -8.9 -11.5 -5.25 -16.85 -3.1 -18.05 0.65 -21.0 2.1 -21.25 5.75 M-13.75 -2.0 L-11.5 -5.25 M-13.8 -1.95 L-13.85 -1.85" fill="none" stroke="#cccccc" stroke-linecap="round" stroke-linejoin="round" stroke-width="0.05"/>
    <path d="M8.25 -7.65 L14.85 -5.45 18.9 1.45 21.1 3.7 M-1.25 18.6 L-11.75 15.85 -16.55 11.55 -16.55 11.5 -18.5 7.55 -18.55 7.5 -18.7 7.4 -21.25 5.75" fill="none" stroke="#666666" stroke-linecap="round" stroke-linejoin="round" stroke-width="0.05"/>
    <path d="M21.1 3.7 L20.25 9.5 20.2 9.65 12.9 14.0 12.5 14.2 6.35 18.7 5.95 18.7 -1.1 18.6 -1.25 18.6" fill="none" stroke="#555555" stroke-linecap="round" stroke-linejoin="round" stroke-width="0.05"/>
  </g>
</svg>
