<?xml version="1.0" encoding="UTF-8" standalone="no"?>
<svg xmlns:xlink="http://www.w3.org/1999/xlink" height="37.9px" width="33.95px" xmlns="http://www.w3.org/2000/svg">
  <g transform="matrix(1.0, 0.0, 0.0, 1.0, 14.25, 18.95)">
    <path d="M6.9 -18.95 L10.55 -18.95 Q16.7 -0.4 18.7 7.7 20.7 15.75 18.65 16.8 16.55 17.85 14.25 17.7 8.55 4.0 6.9 -18.95" fill="#a7a7a7" fill-rule="evenodd" stroke="none"/>
    <path d="M6.9 -18.95 Q8.55 4.0 14.25 17.7 L9.5 17.6 Q3.05 19.95 -0.65 18.1 -4.35 16.25 -5.6 16.35 -6.8 16.45 -7.05 18.55 L-7.05 18.7 Q-9.4 20.2 -13.9 13.3 -15.0 3.4 -12.55 -18.95 L6.9 -18.95 M3.85 8.55 Q-1.6 6.75 -4.05 -11.9 -1.6 6.75 3.85 8.55 M-6.7 -3.45 Q-8.25 11.0 -7.05 18.55 -8.25 11.0 -6.7 -3.45" fill="#bcbcbc" fill-rule="evenodd" stroke="none"/>
    <path d="M14.25 17.7 Q16.55 17.85 18.65 16.8 20.7 15.75 18.7 7.7 16.7 -0.4 10.55 -18.95 L6.9 -18.95 Q8.55 4.0 14.25 17.7 L9.5 17.6 Q3.05 19.95 -0.65 18.1 -4.35 16.25 -5.6 16.35 -6.8 16.45 -7.05 18.55 L-7.05 18.7 Q-9.4 20.2 -13.9 13.3 -15.0 3.4 -12.55 -18.95 L6.9 -18.95 M-7.05 18.55 Q-8.25 11.0 -6.7 -3.45 M-4.05 -11.9 Q-1.6 6.75 3.85 8.55" fill="none" stroke="#666666" stroke-linecap="round" stroke-linejoin="round" stroke-width="0.05"/>
  </g>
</svg>
