<?xml version="1.0" encoding="UTF-8" standalone="no"?>
<svg xmlns:xlink="http://www.w3.org/1999/xlink" height="39.0px" width="33.7px" xmlns="http://www.w3.org/2000/svg">
  <g transform="matrix(1.0, 0.0, 0.0, 1.0, 16.35, 18.95)">
    <path d="M6.95 -18.95 L10.6 -18.95 10.75 -4.75 Q10.8 8.7 17.35 17.45 16.0 18.85 12.4 17.1 L9.25 17.2 Q7.6 6.2 6.95 -18.55 L6.95 -18.95" fill="#a7a7a7" fill-rule="evenodd" stroke="none"/>
    <path d="M6.95 -18.95 L6.95 -18.55 Q7.6 6.2 9.25 17.2 10.05 20.4 5.7 18.65 -0.35 15.8 -4.9 18.35 -9.5 20.85 -10.15 19.65 -10.85 18.45 -10.65 17.95 -14.85 15.3 -15.9 13.8 -17.65 2.95 -12.55 -18.95 L6.95 -18.95 M1.05 9.35 Q-6.0 12.9 -4.8 -11.7 -6.0 12.9 1.05 9.35 M-7.85 -3.4 Q-9.35 11.9 -10.65 17.95 -9.35 11.9 -7.85 -3.4" fill="#bcbcbc" fill-rule="evenodd" stroke="none"/>
    <path d="M9.25 17.2 L12.4 17.1 Q16.0 18.85 17.35 17.45 10.8 8.7 10.75 -4.75 L10.6 -18.95 6.95 -18.95 6.95 -18.55 Q7.6 6.2 9.25 17.2 10.05 20.4 5.7 18.65 -0.35 15.8 -4.9 18.35 -9.5 20.85 -10.15 19.65 -10.85 18.45 -10.65 17.95 -14.85 15.3 -15.9 13.8 -17.65 2.95 -12.55 -18.95 L6.95 -18.95 M-10.65 17.95 Q-9.35 11.9 -7.85 -3.4 M-4.8 -11.7 Q-6.0 12.9 1.05 9.35" fill="none" stroke="#666666" stroke-linecap="round" stroke-linejoin="round" stroke-width="0.05"/>
  </g>
</svg>
