<?xml version="1.0" encoding="UTF-8" standalone="no"?>
<svg xmlns:xlink="http://www.w3.org/1999/xlink" height="22.5px" width="45.15px" xmlns="http://www.w3.org/2000/svg">
  <g transform="matrix(1.0, 0.0, 0.0, 1.0, 23.25, 13.35)">
    <path d="M3.3 -12.8 L3.3 -12.75 Q-4.25 -12.85 -10.8 -9.25 L-9.9 -8.25 Q-5.35 -3.45 1.65 -2.5 L1.75 -1.95 2.25 -0.6 Q3.05 1.1 4.55 1.95 6.1 2.8 7.4 2.3 8.7 1.7 9.0 0.05 9.4 -1.55 8.6 -3.25 L8.45 -3.5 7.95 -4.45 Q11.55 -7.0 12.85 -10.7 L14.05 -9.25 14.1 -9.2 19.85 -5.95 21.9 -3.3 18.25 -1.75 Q17.55 -2.1 16.9 -2.5 L17.4 0.55 15.6 1.7 Q6.15 7.4 -6.4 4.95 -9.95 1.25 -10.7 -4.0 -11.15 -1.2 -12.5 0.2 -13.6 2.5 -19.55 2.3 -23.5 0.95 -23.25 -2.15 -20.45 -5.45 -17.4 -7.45 -13.45 -10.1 -9.65 -11.85 L-1.55 -13.35 3.3 -12.8 M-12.45 -6.55 L-10.8 -9.25 -10.9 -6.85 -10.7 -4.0 -10.9 -6.85 -10.8 -9.25 -12.45 -6.55 Q-21.5 -1.35 -15.75 -1.2 -14.4 -1.6 -13.7 -3.45 L-12.45 -6.55 M-19.3 -1.25 Q-18.5 0.3 -15.75 -1.2 -18.5 0.3 -19.3 -1.25 M16.05 -5.65 L16.9 -2.5 16.05 -5.65 Q15.3 -7.6 14.1 -9.2 15.3 -7.6 16.05 -5.65 L17.55 -4.25 16.05 -5.65" fill="#94745c" fill-rule="evenodd" stroke="none"/>
    <path d="M3.3 -12.75 L3.9 -12.75 7.7 -12.4 9.35 -12.15 12.0 -11.55 12.85 -10.7 Q11.55 -7.0 7.95 -4.45 L6.6 -5.7 5.95 -6.0 3.4 -6.15 Q2.1 -5.65 1.7 -4.0 L1.65 -2.5 Q-5.35 -3.45 -9.9 -8.25 L-10.8 -9.25 Q-4.25 -12.85 3.3 -12.75" fill="#a8866f" fill-rule="evenodd" stroke="none"/>
    <path d="M8.45 -3.5 L8.6 -3.25 Q9.4 -1.55 9.0 0.05 8.7 1.7 7.4 2.3 6.1 2.8 4.55 1.95 3.05 1.1 2.25 -0.6 L1.75 -1.95 1.65 -2.5 1.7 -4.0 Q2.1 -5.65 3.4 -6.15 L5.95 -6.0 4.3 -5.95 Q3.2 -5.5 2.75 -4.15 2.55 -3.3 2.7 -2.4 L3.0 -1.3 Q3.6 0.1 4.8 0.8 6.05 1.55 7.15 1.1 8.25 0.65 8.6 -0.75 9.05 -2.1 8.45 -3.5" fill="#ffcc33" fill-rule="evenodd" stroke="none"/>
    <path d="M8.45 -3.5 Q9.05 -2.1 8.6 -0.75 8.25 0.65 7.15 1.1 6.05 1.55 4.8 0.8 3.6 0.1 3.0 -1.3 L2.7 -2.4 Q2.55 -3.3 2.75 -4.15 3.2 -5.5 4.3 -5.95 L5.95 -6.0 6.6 -5.7 7.95 -4.45 8.45 -3.5 M7.85 -3.3 Q8.0 -3.85 7.8 -4.4 L7.6 -4.75 7.05 -5.25 6.75 -5.4 6.1 -5.35 Q5.65 -5.2 5.5 -4.65 5.4 -4.3 5.45 -3.95 L5.6 -3.5 Q5.8 -2.95 6.3 -2.65 L7.25 -2.55 Q7.7 -2.75 7.85 -3.3" fill="#59929f" fill-rule="evenodd" stroke="none"/>
    <path d="M7.85 -3.3 Q7.7 -2.75 7.25 -2.55 L6.3 -2.65 Q5.8 -2.95 5.6 -3.5 L5.45 -3.95 Q5.4 -4.3 5.5 -4.65 5.65 -5.2 6.1 -5.35 L6.75 -5.4 7.05 -5.25 7.6 -4.75 7.8 -4.4 Q8.0 -3.85 7.85 -3.3" fill="#c9dce0" fill-rule="evenodd" stroke="none"/>
    <path d="M-12.5 0.2 Q-11.15 -1.2 -10.7 -4.0 -9.95 1.25 -6.4 4.95 6.15 7.4 15.6 1.7 L17.4 0.55 17.5 1.25 Q17.75 3.3 16.2 4.35 7.75 10.35 -6.0 8.85 -10.85 4.85 -12.5 0.2 M-6.45 5.5 Q-6.65 6.7 -6.0 8.85 -6.65 6.7 -6.45 5.5" fill="#614b3d" fill-rule="evenodd" stroke="none"/>
    <path d="M3.3 -12.75 L3.9 -12.75 3.3 -12.8 -1.55 -13.35 -9.65 -11.85 Q-13.45 -10.1 -17.4 -7.45 -20.45 -5.45 -23.25 -2.15 -23.5 0.95 -19.55 2.3 -13.6 2.5 -12.5 0.2 -11.15 -1.2 -10.7 -4.0 L-10.9 -6.85 -10.8 -9.25 -12.45 -6.55 -13.7 -3.45 Q-14.4 -1.6 -15.75 -1.2 -18.5 0.3 -19.3 -1.25 M3.9 -12.75 L7.7 -12.4 9.35 -12.15 12.0 -11.55 12.85 -10.7 14.05 -9.25 14.1 -9.2 19.85 -5.95 21.9 -3.3 18.25 -1.75 Q17.55 -2.1 16.9 -2.5 L17.4 0.55 17.5 1.25 Q17.75 3.3 16.2 4.35 7.75 10.35 -6.0 8.85 -10.85 4.85 -12.5 0.2 M1.65 -2.5 L1.75 -1.95 2.25 -0.6 Q3.05 1.1 4.55 1.95 6.1 2.8 7.4 2.3 8.7 1.7 9.0 0.05 9.4 -1.55 8.6 -3.25 L8.45 -3.5 7.95 -4.45 6.6 -5.7 5.95 -6.0 3.4 -6.15 Q2.1 -5.65 1.7 -4.0 L1.65 -2.5 Q-5.35 -3.45 -9.9 -8.25 L-10.8 -9.25 Q-4.25 -12.85 3.3 -12.75 M14.1 -9.2 Q15.3 -7.6 16.05 -5.65 L17.55 -4.25 M16.9 -2.5 L16.05 -5.65 M7.95 -4.45 Q11.55 -7.0 12.85 -10.7 M-12.45 -6.55 Q-21.5 -1.35 -15.75 -1.2 M-6.0 8.85 Q-6.65 6.7 -6.45 5.5 M-10.7 -4.0 Q-9.95 1.25 -6.4 4.95 6.15 7.4 15.6 1.7" fill="none" stroke="#6b5f43" stroke-linecap="round" stroke-linejoin="round" stroke-width="0.05"/>
  </g>
</svg>
