<?xml version="1.0" encoding="UTF-8" standalone="no"?>
<svg xmlns:xlink="http://www.w3.org/1999/xlink" height="15.2px" width="5.6px" xmlns="http://www.w3.org/2000/svg">
  <g transform="matrix(1.0, 0.0, 0.0, 1.0, 2.5, 0.65)">
    <path d="M3.1 3.1 L2.3 14.2 Q0.7 15.15 -0.4 13.65 -0.95 8.8 -2.45 4.55 -2.65 2.8 -1.85 1.05 -1.05 -1.25 1.4 -0.4 2.35 0.55 3.1 3.1" fill="#ffdfc8" fill-rule="evenodd" stroke="none"/>
    <path d="M3.1 3.1 Q2.35 0.55 1.4 -0.4 -1.05 -1.25 -1.85 1.05 -2.65 2.8 -2.45 4.55 -0.95 8.8 -0.4 13.65 0.7 15.15 2.3 14.2 L3.1 3.1 Z" fill="none" stroke="#d7995e" stroke-linecap="round" stroke-linejoin="round" stroke-width="0.05"/>
    <path d="M2.65 10.5 Q2.9 12.65 2.35 14.05 L0.1 14.1 0.05 12.75 0.0 12.1 Q1.4 12.1 2.65 10.5 1.4 12.1 0.0 12.1 L-0.05 11.55 -0.15 10.35 -0.2 9.55 Q1.45 9.3 2.9 7.65 3.05 9.85 2.65 10.5" fill="#77878c" fill-rule="evenodd" stroke="none"/>
    <path d="M0.0 12.1 L0.05 12.75 0.1 14.1 -0.45 13.5 -0.75 12.6 -0.65 12.05 -0.8 11.45 -1.0 10.45 -1.1 9.65 -0.2 9.55 -0.15 10.35 -0.05 11.55 0.0 12.1 -0.05 12.1 -0.65 12.05 -0.05 12.1 0.0 12.1" fill="#5f6b70" fill-rule="evenodd" stroke="none"/>
    <path d="M0.1 14.1 L2.35 14.05 Q2.9 12.65 2.65 10.5 1.4 12.1 0.0 12.1 L-0.05 12.1 -0.65 12.05 -0.8 11.45 -1.0 10.45 -1.1 9.65 -0.2 9.55 Q1.45 9.3 2.9 7.65 3.05 9.85 2.65 10.5 M0.1 14.1 L-0.45 13.5 -0.75 12.6 -0.65 12.05" fill="none" stroke="#3d4547" stroke-linecap="round" stroke-linejoin="round" stroke-width="0.05"/>
  </g>
</svg>
