<?xml version="1.0" encoding="UTF-8" standalone="no"?>
<svg xmlns:xlink="http://www.w3.org/1999/xlink" height="16.5px" width="13.2px" xmlns="http://www.w3.org/2000/svg">
  <g transform="matrix(1.0, 0.0, 0.0, 1.0, 6.6, 8.25)">
    <path d="M6.4 0.0 Q7.0 3.4 5.6 5.85 4.15 8.25 1.55 8.25 -1.05 8.25 -3.35 5.85 -5.7 3.4 -6.35 0.0 -7.05 -3.45 -5.65 -5.85 -4.25 -8.25 -1.6 -8.25 1.0 -8.25 3.35 -5.85 5.7 -3.45 6.4 0.0" fill="#d65551" fill-rule="evenodd" stroke="none"/>
    <path d="M6.4 0.0 Q7.0 3.4 5.6 5.85 4.15 8.25 1.55 8.25 -1.05 8.25 -3.35 5.85 -5.7 3.4 -6.35 0.0 -7.05 -3.45 -5.65 -5.85 -4.25 -8.25 -1.6 -8.25 1.0 -8.25 3.35 -5.85 5.7 -3.45 6.4 0.0 Z" fill="none" stroke="#611818" stroke-linecap="round" stroke-linejoin="round" stroke-width="0.05"/>
    <path d="M1.05 -0.85 Q2.25 -0.85 3.05 -1.6 3.6 -2.05 3.8 -2.65 4.45 -1.55 4.7 -0.2 5.15 2.2 4.2 3.95 3.15 5.65 1.35 5.65 -0.55 5.65 -2.2 3.95 -3.85 2.2 -4.25 -0.2 -4.8 -2.6 -3.75 -4.35 -2.8 -6.05 -0.95 -6.05 L0.2 -5.9 -1.0 -5.2 Q-1.85 -4.5 -1.85 -3.45 -1.85 -2.35 -1.0 -1.6 -0.15 -0.85 1.05 -0.85" fill="#962525" fill-rule="evenodd" stroke="none"/>
  </g>
</svg>
