<?xml version="1.0" encoding="UTF-8" standalone="no"?>
<svg xmlns:xlink="http://www.w3.org/1999/xlink" height="6.7px" width="6.7px" xmlns="http://www.w3.org/2000/svg">
  <g transform="matrix(1.0, 0.0, 0.0, 1.0, 3.35, 3.35)">
    <path d="M2.35 -2.4 Q3.35 -1.4 3.35 0.0 3.35 1.4 2.35 2.35 1.4 3.35 0.0 3.35 -1.4 3.35 -2.4 2.35 -3.35 1.4 -3.35 0.0 -3.35 -1.4 -2.4 -2.4 -1.4 -3.35 0.0 -3.35 1.4 -3.35 2.35 -2.4" fill="#7798ce" fill-rule="evenodd" stroke="none"/>
    <path d="M2.35 -2.4 Q3.35 -1.4 3.35 0.0 3.35 1.4 2.35 2.35 1.4 3.35 0.0 3.35 -1.4 3.35 -2.4 2.35 -3.35 1.4 -3.35 0.0 -3.35 -1.4 -2.4 -2.4 -1.4 -3.35 0.0 -3.35 1.4 -3.35 2.35 -2.4 Z" fill="none" stroke="#163d69" stroke-linecap="round" stroke-linejoin="round" stroke-width="0.05"/>
  </g>
</svg>
