<?xml version="1.0" encoding="UTF-8" standalone="no"?>
<svg xmlns:xlink="http://www.w3.org/1999/xlink" height="149.85px" width="216.5px" xmlns="http://www.w3.org/2000/svg">
  <g transform="matrix(1.0, 0.0, 0.0, 1.0, 108.25, 74.9)">
    <path d="M103.85 -14.5 L100.35 -8.5 99.7 -7.5 99.25 -6.85 99.1 -6.6 98.95 -6.45 Q95.0 -1.0 89.9 3.3 L90.85 3.75 89.9 3.3 81.65 10.8 Q82.35 15.3 82.1 16.95 80.35 16.15 77.35 11.35 L71.5 13.8 70.1 14.3 67.25 15.2 Q48.0 20.9 30.8 15.0 L30.55 10.75 Q23.45 -1.55 14.45 -8.7 L10.95 -11.25 13.45 -6.15 15.4 -4.5 17.7 -2.3 Q23.95 3.95 29.2 13.05 L29.45 17.3 29.45 18.65 29.45 22.85 29.35 27.45 29.35 28.6 29.3 29.25 29.3 29.7 29.3 30.1 29.2 30.1 29.15 31.9 29.1 31.65 29.45 39.15 29.5 40.55 29.5 40.85 29.55 41.45 29.55 42.4 29.5 42.35 28.25 41.8 28.2 41.75 27.95 43.05 27.75 43.9 27.65 44.45 27.55 44.75 27.3 45.95 Q24.75 57.0 23.15 59.35 L23.1 59.25 Q21.1 56.7 20.65 42.8 L20.55 37.5 20.5 36.1 19.95 30.7 17.5 15.1 16.8 11.05 16.65 10.35 16.6 10.1 16.5 10.1 8.25 6.25 2.95 3.35 1.6 4.15 0.85 4.45 0.0 4.7 -0.6 4.8 -1.9 4.9 -3.05 4.85 -4.15 4.6 Q-6.2 4.05 -7.75 2.5 L-8.1 2.1 -8.8 1.25 -9.85 -0.95 -9.9 -1.15 -9.9 -1.1 -10.1 -0.95 -10.8 -0.35 -12.05 0.35 Q-13.45 1.0 -15.15 1.1 L-15.55 1.1 -16.9 1.0 Q-29.6 10.9 -40.2 16.65 L-41.25 20.6 Q-46.95 42.5 -47.75 49.1 -50.5 71.45 -53.3 74.95 L-53.3 74.9 Q-54.8 71.85 -56.0 56.25 L-56.1 54.85 -56.15 54.9 -56.4 55.05 -57.4 55.6 -56.4 55.0 -54.55 42.6 -54.35 40.0 Q-53.35 26.3 -52.0 18.8 -43.75 4.6 -34.35 -4.45 L-33.65 -5.15 -37.75 2.9 -33.85 0.15 -35.3 2.9 -23.25 -5.7 -22.85 -7.8 -26.45 -5.2 -28.5 -4.95 -31.05 -5.35 -32.2 -5.85 -32.65 -6.05 -32.85 -6.2 -33.25 -5.85 -31.7 -8.95 -32.65 -8.15 -33.95 -7.05 -36.8 -4.45 Q-50.75 0.4 -61.3 2.05 L-74.75 21.35 Q-79.5 28.35 -81.3 31.65 -93.2 52.95 -96.85 55.4 -96.8 52.0 -91.25 36.7 L-90.5 34.75 -90.3 34.2 -90.2 34.15 -83.85 23.3 -84.0 23.55 -82.05 19.7 Q-75.75 7.35 -71.65 0.7 -59.55 -9.9 -48.7 -15.3 L-53.4 -10.75 -47.95 -12.4 -51.75 -8.75 -39.2 -12.6 -39.1 -12.75 -36.75 -13.15 -36.75 -13.2 -36.75 -13.35 -36.7 -14.1 -38.45 -13.7 -37.15 -15.7 -42.25 -14.15 Q-43.15 -14.5 -43.95 -15.05 L-44.65 -15.6 -45.15 -16.1 -45.7 -16.7 -46.2 -17.35 -46.5 -17.4 -43.65 -20.2 -47.0 -18.85 -47.35 -18.7 -49.1 -17.9 Q-62.2 -20.5 -72.05 -23.85 -88.5 -14.85 -92.4 -11.65 -104.65 -1.75 -108.25 -1.65 -108.0 -4.0 -102.05 -12.35 L-101.5 -13.1 -101.05 -13.8 -101.1 -13.8 -94.25 -18.95 -93.95 -19.2 -92.65 -20.4 Q-85.6 -26.9 -81.1 -30.0 -73.4 -31.4 -66.25 -31.55 L-57.05 -31.15 -63.95 -29.45 -61.35 -28.85 -64.85 -28.0 -50.25 -24.7 -50.3 -24.65 -47.8 -23.85 -48.85 -25.05 -49.15 -25.4 -49.45 -25.2 -48.35 -25.9 -49.85 -26.25 Q-51.55 -28.5 -52.3 -30.35 L-52.35 -30.5 -52.8 -32.1 -52.85 -32.95 -52.85 -33.75 -58.5 -35.05 -59.6 -34.5 Q-60.55 -34.05 -61.15 -34.0 L-61.7 -34.05 -61.65 -34.1 -61.25 -34.9 -60.85 -35.55 -60.85 -35.6 -66.6 -36.9 -66.7 -36.9 Q-70.55 -40.0 -72.3 -43.55 L-72.65 -44.35 -72.55 -44.35 -65.65 -38.85 -55.15 -38.85 -55.15 -38.9 -56.4 -39.95 -57.1 -41.05 -57.15 -41.05 -58.0 -43.25 -58.55 -44.95 -58.55 -45.0 -58.9 -46.65 -55.75 -47.05 -53.9 -47.25 -53.8 -47.25 -52.05 -47.45 -49.8 -47.7 -47.9 -47.85 -45.1 -48.1 -44.85 -48.15 -44.35 -48.15 -39.9 -48.45 Q-30.35 -49.05 -22.05 -48.7 L-10.5 -47.7 -5.6 -46.9 -5.0 -46.8 -2.45 -46.25 -0.4 -45.8 -0.2 -45.75 2.5 -45.1 5.8 -44.25 5.45 -43.6 5.25 -43.15 5.75 -43.0 6.0 -43.35 6.4 -44.0 Q10.6 -50.3 16.15 -55.15 L16.3 -55.3 20.15 -58.35 21.5 -59.3 21.6 -59.35 23.35 -60.5 25.1 -61.55 37.15 -66.4 Q48.4 -70.85 63.15 -69.15 77.85 -67.45 82.45 -65.7 86.95 -64.0 89.4 -61.85 91.8 -59.75 94.6 -56.45 99.1 -52.05 101.95 -46.4 103.55 -43.2 104.65 -39.5 105.9 -35.35 106.25 -31.15 L106.4 -31.05 106.25 -30.85 106.3 -26.5 Q106.05 -20.45 103.85 -14.5 M-54.4 -47.85 L-58.2 -51.5 -65.15 -52.6 -58.25 -53.1 -51.5 -48.55 -52.8 -48.25 -54.4 -47.85 M-13.55 -62.35 L-19.2 -61.65 -17.8 -60.05 -19.2 -59.9 -12.25 -52.2 -13.15 -51.6 -12.7 -50.95 -14.0 -51.05 -18.4 -51.25 -20.0 -51.3 -24.2 -51.4 -27.25 -55.85 -35.75 -51.0 -38.8 -50.7 -41.9 -50.3 -44.85 -49.85 -45.95 -49.65 -49.5 -48.95 -51.15 -50.05 -44.05 -55.6 -42.95 -56.65 Q-34.9 -64.15 -30.35 -67.35 -20.25 -67.5 -13.55 -62.35 M1.05 -49.2 L2.7 -51.65 2.95 -51.5 3.05 -51.7 11.05 -60.5 8.05 -60.85 8.8 -61.7 5.1 -62.15 Q7.25 -64.2 9.8 -65.6 14.5 -68.2 20.65 -68.6 L20.25 -68.9 20.65 -68.6 21.4 -68.05 24.95 -65.15 25.25 -64.9 23.65 -63.85 19.05 -60.4 18.2 -59.7 18.1 -59.6 18.05 -59.55 Q13.0 -55.15 9.05 -49.5 L8.3 -48.4 8.25 -48.3 7.65 -47.4 2.6 -48.85 1.05 -49.2 M16.3 -60.7 L16.25 -60.65 16.35 -60.7 16.3 -60.7 M2.0 -9.55 L2.3 -7.05 15.6 0.75 13.95 -2.55 2.0 -9.55 M2.35 -6.85 L-4.05 -9.65 Q-6.05 -9.15 -7.05 -8.3 L-7.75 -7.55 -7.45 -7.35 -6.65 -7.6 -0.25 -4.8 -0.6 -7.5 2.45 -5.75 2.35 -6.85 M20.45 8.3 L20.45 8.25 20.35 8.15 20.45 8.3 M-26.75 -60.65 L-26.65 -60.6 -26.75 -60.65 M-47.45 -43.95 L-51.1 -44.25 -52.55 -44.1 Q-54.85 -43.75 -55.1 -42.7 -55.4 -41.65 -53.55 -40.55 L-51.8 -39.7 -48.9 -38.9 -46.8 -38.6 -43.75 -38.75 Q-41.55 -39.1 -41.25 -40.15 -40.95 -41.2 -42.75 -42.3 -44.35 -43.3 -46.7 -43.8 L-47.45 -43.95 M-52.85 -33.75 L-52.3 -32.8 -52.25 -32.7 -52.3 -32.8 -52.8 -33.75 -52.85 -33.75 M-63.35 -1.15 L-63.35 -1.1 -63.2 -1.2 -63.35 -1.15 M-73.7 -27.0 L-73.85 -27.0 -73.7 -27.0 M-23.45 -4.8 L-23.5 -4.6 -23.4 -4.65 -23.45 -4.8 M-43.85 14.9 L-43.75 14.75 -43.85 14.85 -43.85 14.9" fill="#000000" fill-rule="evenodd" stroke="none"/>
    <path d="M25.25 -64.9 L25.75 -65.2 27.15 -66.05 Q33.3 -69.65 40.75 -71.9 L41.5 -72.05 41.5 -72.1 Q63.1 -78.5 82.15 -70.25 92.3 -65.85 98.55 -58.65 101.7 -55.1 103.85 -50.8 105.2 -48.15 106.2 -45.15 L106.3 -44.75 106.55 -43.9 Q107.8 -39.75 108.15 -35.55 L108.2 -30.9 Q107.85 -22.6 103.85 -14.5 106.05 -20.45 106.3 -26.5 L106.25 -30.85 106.4 -31.05 106.25 -31.15 Q105.9 -35.35 104.65 -39.5 103.55 -43.2 101.95 -46.4 99.1 -52.05 94.6 -56.45 91.8 -59.75 89.4 -61.85 86.95 -64.0 82.45 -65.7 77.85 -67.45 63.15 -69.15 48.4 -70.85 37.15 -66.4 L25.1 -61.55 23.35 -60.5 21.6 -59.35 21.5 -59.3 20.15 -58.35 16.3 -55.3 16.15 -55.15 Q10.6 -50.3 6.4 -44.0 L6.0 -43.35 5.75 -43.0 5.25 -43.15 5.45 -43.6 5.8 -44.25 2.5 -45.1 -0.2 -45.75 -0.4 -45.8 -2.45 -46.25 -5.0 -46.8 -5.6 -46.9 -10.5 -47.7 -22.05 -48.7 Q-30.35 -49.05 -39.9 -48.45 L-44.35 -48.15 -44.85 -48.15 -45.1 -48.1 -47.9 -47.85 -49.8 -47.7 -52.05 -47.45 -53.8 -47.25 -53.9 -47.25 -55.75 -47.05 -58.9 -46.65 -56.15 -47.4 -54.4 -47.85 -52.8 -48.25 -51.45 -48.2 -51.05 -48.2 -50.2 -48.25 -49.05 -48.4 -48.75 -48.45 -47.1 -48.75 -45.85 -49.25 -44.85 -49.85 -41.9 -50.3 -38.8 -50.7 -35.75 -51.0 -24.7 -51.4 -24.2 -51.4 -20.0 -51.3 -18.4 -51.25 -14.0 -51.05 -12.7 -50.95 -11.6 -50.9 -10.8 -50.8 -2.35 -49.85 1.05 -49.2 2.6 -48.85 7.65 -47.4 8.25 -48.3 8.3 -48.4 9.05 -49.5 Q13.0 -55.15 18.05 -59.55 L18.1 -59.6 18.2 -59.7 19.05 -60.4 23.65 -63.85 25.25 -64.9 M30.8 15.0 Q30.95 21.05 30.55 30.15 L30.5 30.85 30.45 30.85 30.5 31.2 30.95 42.95 30.8 42.95 29.55 42.4 29.55 41.45 29.5 40.85 29.5 40.55 29.45 39.15 29.1 31.65 29.15 31.9 29.2 30.1 29.3 30.1 29.3 29.7 29.3 29.25 29.35 28.6 29.35 27.45 29.45 22.85 29.45 18.65 29.45 17.3 29.2 13.05 Q23.95 3.95 17.7 -2.3 L15.4 -4.5 13.45 -6.15 10.95 -11.25 14.45 -8.7 Q23.45 -1.55 30.55 10.75 L30.8 15.0 M-57.4 55.6 L-59.05 56.6 -57.0 42.6 -56.95 42.3 -57.0 42.3 Q-55.9 26.95 -54.45 18.8 -46.2 4.6 -36.8 -4.45 L-33.95 -7.05 -32.65 -8.15 -31.7 -8.95 -33.25 -5.85 -33.65 -5.15 -34.35 -4.45 Q-43.75 4.6 -52.0 18.8 -53.35 26.3 -54.35 40.0 L-54.55 42.6 -56.4 55.0 -57.4 55.6 M-90.3 34.2 L-93.35 34.8 -85.5 21.3 -85.5 21.25 Q-78.0 6.3 -73.3 -1.3 -60.5 -12.5 -49.1 -17.9 L-47.35 -18.7 -47.0 -18.85 -43.65 -20.2 -46.5 -17.4 -48.7 -15.3 Q-59.55 -9.9 -71.65 0.7 -75.75 7.35 -82.05 19.7 L-84.0 23.55 -83.85 23.3 -90.2 34.15 -90.3 34.2 M-101.1 -13.8 L-103.25 -14.45 -103.95 -14.65 -96.05 -20.65 -95.85 -20.8 Q-88.05 -28.1 -83.2 -31.45 -67.4 -34.35 -54.15 -31.9 L-57.05 -31.15 -66.25 -31.55 Q-73.4 -31.4 -81.1 -30.0 -85.6 -26.9 -92.65 -20.4 L-93.95 -19.2 -94.25 -18.95 -101.1 -13.8 M-61.35 -28.85 L-59.8 -28.5 -59.75 -28.5 -49.85 -26.25 -48.35 -25.9 -49.45 -25.2 -50.25 -24.7 -64.85 -28.0 -61.35 -28.85 M-72.65 -44.35 L-73.3 -46.15 -66.4 -40.65 -57.15 -41.05 -57.1 -41.05 -56.4 -39.95 -55.15 -38.9 -55.15 -38.85 -65.65 -38.85 -72.55 -44.35 -72.65 -44.35 M-65.15 -52.6 L-66.7 -52.85 Q-60.7 -54.8 -57.1 -54.1 L-51.85 -50.55 -52.15 -51.0 -44.05 -57.35 -43.9 -57.5 Q-35.15 -65.7 -30.35 -69.1 -18.85 -69.25 -11.8 -62.55 L-13.55 -62.35 Q-20.25 -67.5 -30.35 -67.35 -34.9 -64.15 -42.95 -56.65 L-44.05 -55.6 -51.15 -50.05 -49.5 -48.95 -50.55 -48.75 -51.15 -48.6 -51.5 -48.55 -58.25 -53.1 -65.15 -52.6 M-17.8 -60.05 L-11.25 -52.85 -12.25 -52.2 -19.2 -59.9 -17.8 -60.05 M2.7 -51.65 L0.8 -52.9 8.05 -60.85 11.05 -60.5 3.05 -51.7 2.95 -51.5 2.7 -51.65 M5.1 -62.15 L1.35 -62.6 Q8.4 -69.3 19.9 -69.15 L20.25 -68.9 20.65 -68.6 Q14.5 -68.2 9.8 -65.6 7.25 -64.2 5.1 -62.15 M2.0 -9.55 L13.95 -2.55 15.6 0.75 2.3 -7.05 2.0 -9.55 M2.35 -6.85 L2.45 -5.75 -0.6 -7.5 -0.25 -4.8 -6.65 -7.6 -7.45 -7.35 -7.75 -7.55 -7.05 -8.3 Q-6.05 -9.15 -4.05 -9.65 L2.35 -6.85 M-42.25 -14.15 L-37.15 -15.7 -38.45 -13.7 -39.1 -12.75 -39.2 -12.6 -51.75 -8.75 -47.95 -12.4 -42.25 -14.15 M-26.45 -5.2 L-22.85 -7.8 -23.25 -5.7 -35.3 2.9 -33.85 0.15 -26.45 -5.2" fill="#666666" fill-rule="evenodd" stroke="none"/>
    <path d="M-44.85 -49.85 L-45.85 -49.25 -47.1 -48.75 -48.75 -48.45 -49.05 -48.4 -50.2 -48.25 -51.05 -48.2 -51.45 -48.2 -52.8 -48.25 -51.5 -48.55 -51.15 -48.6 -50.55 -48.75 -49.5 -48.95 -45.95 -49.65 -44.85 -49.85 M-47.45 -43.95 L-46.7 -43.8 Q-44.35 -43.3 -42.75 -42.3 -40.95 -41.2 -41.25 -40.15 -41.55 -39.1 -43.75 -38.75 L-46.8 -38.6 -48.9 -38.9 -51.8 -39.7 -53.55 -40.55 Q-55.4 -41.65 -55.1 -42.7 -54.85 -43.75 -52.55 -44.1 L-51.1 -44.25 -47.45 -43.95" fill="#ff0000" fill-rule="evenodd" stroke="none"/>
  </g>
</svg>
