<?xml version="1.0" encoding="UTF-8" standalone="no"?>
<svg xmlns:xlink="http://www.w3.org/1999/xlink" height="36.6px" width="66.95px" xmlns="http://www.w3.org/2000/svg">
  <g transform="matrix(1.0, 0.0, 0.0, 1.0, 33.4, 18.3)">
    <path d="M-21.2 -18.3 L-21.75 -18.2 -32.65 -13.6 -33.25 -13.05 -33.4 -12.25 -33.1 -10.05 -32.85 -9.5 -32.45 -9.1 -32.4 -9.1 -22.3 -3.8 -21.75 -3.65 -21.6 -3.65 -21.25 -3.35 19.15 18.1 19.2 18.1 19.65 18.3 19.9 18.3 20.4 18.2 32.7 12.3 33.15 11.85 33.4 11.25 33.55 9.05 33.35 8.35 32.85 7.85 19.85 1.45 19.3 1.35 17.55 1.35 17.5 1.0 17.5 0.95 17.25 0.25 17.0 -0.05 16.45 -0.25 -20.7 -18.15 -21.2 -18.3" fill="#000000" fill-rule="evenodd" stroke="none"/>
    <path d="M-4.6 -6.25 L-3.5 -4.5 Q-3.4 -3.85 -4.35 -3.9 L-5.1 -4.1 -6.55 -4.65 -10.6 -7.05 -11.7 -7.8 Q-12.1 -8.1 -12.1 -8.5 L-12.1 -8.7 Q-11.95 -9.45 -11.6 -9.5 L-10.4 -9.55 -8.05 -9.1 Q-6.6 -8.6 -6.1 -8.0 L-5.45 -7.3 -5.45 -7.25 -5.35 -7.15 -5.15 -6.95 -4.6 -6.25 M-12.65 -10.65 L-13.3 -10.65 Q-14.4 -10.6 -14.65 -9.55 L-14.65 -9.25 Q-14.65 -8.75 -14.15 -8.35 L-14.0 -8.15 -12.95 -7.6 -11.9 -6.9 -11.85 -6.9 -11.7 -6.8 -11.45 -6.7 -10.85 -6.35 -6.9 -4.3 -3.45 -3.0 -2.25 -2.75 Q-0.8 -2.7 -0.9 -3.6 L-2.15 -5.55 Q-3.45 -7.2 -5.15 -7.95 -6.55 -9.1 -8.55 -9.65 L-12.25 -10.55 -12.5 -10.6 -12.65 -10.65 -12.25 -10.55 -12.65 -10.65" fill="#a76627" fill-rule="evenodd" stroke="none"/>
    <path d="M-6.1 -8.0 Q-6.6 -8.6 -8.05 -9.1 L-10.4 -9.55 -11.6 -9.5 Q-11.95 -9.45 -12.1 -8.7 L-12.1 -8.5 Q-12.1 -8.1 -11.7 -7.8 L-10.6 -7.05 -6.55 -4.65 -5.1 -4.1 -4.35 -3.9 Q-3.4 -3.85 -3.5 -4.5 L-4.6 -6.25 -5.15 -6.95 -5.35 -7.15 -5.45 -7.25 -5.45 -7.3 -6.1 -8.0 M-10.3 -7.3 L-10.75 -7.55 Q-11.1 -7.7 -11.05 -8.5 -11.0 -9.35 -9.8 -9.05 -8.6 -8.85 -7.3 -8.25 -6.0 -7.65 -6.35 -6.9 L-6.75 -6.2 -6.95 -6.05 Q-7.75 -5.8 -10.3 -7.3 M-13.3 -10.65 L-12.65 -10.65 -12.5 -10.6 -12.25 -10.55 -8.55 -9.65 Q-6.55 -9.1 -5.15 -7.95 -3.45 -7.2 -2.15 -5.55 L-0.9 -3.6 Q-0.8 -2.7 -2.25 -2.75 L-3.45 -3.0 -6.9 -4.3 -10.85 -6.35 -11.45 -6.7 -11.7 -6.8 -11.85 -6.9 -11.9 -6.9 -12.95 -7.6 -14.0 -8.15 -14.15 -8.35 Q-14.65 -8.75 -14.65 -9.25 L-14.65 -9.55 Q-14.4 -10.6 -13.3 -10.65 M-11.5 -10.85 L-21.1 -15.4 -11.5 -10.85 M-21.6 -15.6 L-21.85 -15.75 -21.6 -15.6 M-19.25 -13.3 L-20.4 -13.85 -19.25 -13.3 M-24.45 -15.7 L-32.1 -12.45 -20.9 -6.65 -17.9 -7.4 -18.5 -5.45 19.7 14.85 22.15 13.7 32.35 8.95 19.35 2.6 16.3 2.6 14.15 2.6 16.25 1.0 -21.2 -17.05 -24.45 -15.7 -20.9 -14.1 -24.45 -15.7 M16.25 10.7 L17.0 11.1 16.25 10.7 M5.0 3.4 L12.3 7.1 5.0 3.4 M6.5 0.65 L6.2 0.5 6.5 0.65 M5.4 0.05 L2.45 -1.55 5.4 0.05 M1.2 1.45 L1.5 1.6 1.2 1.45 M2.2 1.95 L3.75 2.75 2.2 1.95 M4.75 -1.9 L3.75 -2.45 4.75 -1.9 M2.75 -2.95 L-2.15 -5.55 2.75 -2.95 M13.05 7.45 L20.2 11.1 13.05 7.45 M18.0 11.6 L22.15 13.7 18.0 11.6" fill="#ae6b2b" fill-rule="evenodd" stroke="none"/>
    <path d="M-6.75 -6.2 L-6.35 -6.9 Q-6.0 -7.65 -7.3 -8.25 -8.6 -8.85 -9.8 -9.05 -11.0 -9.35 -11.05 -8.5 -11.1 -7.7 -10.75 -7.55 L-10.3 -7.3 -9.65 -7.4 -7.7 -6.8 -7.3 -6.55 -6.75 -6.2" fill="#402000" fill-rule="evenodd" stroke="none"/>
    <path d="M-32.1 -12.45 L-31.8 -10.25 -21.7 -4.9 -20.6 -5.65 -20.6 -4.45 19.85 17.0 19.7 14.85 -18.5 -5.45 -17.9 -7.4 -20.6 -5.65 -17.9 -7.4 -20.9 -6.65 -32.1 -12.45 M16.3 2.6 L16.25 1.0 14.15 2.6 16.3 2.6" fill="#69411b" fill-rule="evenodd" stroke="none"/>
    <path d="M19.85 17.0 L19.9 17.05 32.2 11.15 32.35 8.95 22.15 13.7 19.7 14.85 19.85 17.0" fill="#472c12" fill-rule="evenodd" stroke="none"/>
    <path d="M-6.1 -8.0 Q-6.6 -8.6 -8.05 -9.1 L-10.4 -9.55 -11.6 -9.5 Q-11.95 -9.45 -12.1 -8.7 L-12.1 -8.5 Q-12.1 -8.1 -11.7 -7.8 L-10.6 -7.05 -6.55 -4.65 -5.1 -4.1 -4.35 -3.9 Q-3.4 -3.85 -3.5 -4.5 L-4.6 -6.25 M-5.15 -6.95 L-5.35 -7.15 -5.45 -7.25 M-12.65 -10.65 L-12.25 -10.55 -8.55 -9.65 Q-6.55 -9.1 -5.15 -7.95 M-2.15 -5.55 L-0.9 -3.6 Q-0.8 -2.7 -2.25 -2.75 L-3.45 -3.0 -6.9 -4.3 -10.85 -6.35 -11.45 -6.7 M-11.9 -6.9 L-12.95 -7.6 M-14.15 -8.35 Q-14.65 -8.75 -14.65 -9.25 L-14.65 -9.55 Q-14.4 -10.6 -13.3 -10.65 M-20.4 -13.85 L-19.25 -13.3 M-21.85 -15.75 L-21.6 -15.6 M-21.1 -15.4 L-11.5 -10.85 M-32.1 -12.45 L-24.45 -15.7 -20.9 -14.1 M-32.1 -12.45 L-31.8 -10.25 -21.7 -4.9 -21.6 -4.9 -21.7 -4.9 -20.6 -5.65 -20.6 -4.45 19.85 17.0 19.9 17.05 32.2 11.15 32.35 8.95 19.35 2.6 16.3 2.6 16.25 1.0 -21.2 -17.05 -24.45 -15.7 M-17.9 -7.4 L-18.5 -5.45 19.7 14.85 19.85 17.0 M-20.6 -5.65 L-17.9 -7.4 -20.9 -6.65 -32.1 -12.45 M-2.15 -5.55 L2.75 -2.95 M3.75 -2.45 L4.75 -1.9 M3.75 2.75 L2.2 1.95 M1.5 1.6 L1.2 1.45 M2.45 -1.55 L5.4 0.05 M6.2 0.5 L6.5 0.65 M12.3 7.1 L5.0 3.4 M17.0 11.1 L16.25 10.7 M19.7 14.85 L22.15 13.7 32.35 8.95 M22.15 13.7 L18.0 11.6 M20.2 11.1 L13.05 7.45 M16.25 1.0 L14.15 2.6 16.3 2.6" fill="none" stroke="#663300" stroke-linecap="round" stroke-linejoin="round" stroke-width="0.05"/>
  </g>
</svg>
