<?xml version="1.0" encoding="UTF-8" standalone="no"?>
<svg xmlns:xlink="http://www.w3.org/1999/xlink" height="35.25px" width="25.85px" xmlns="http://www.w3.org/2000/svg">
  <g transform="matrix(1.0, 0.0, 0.0, 1.0, 11.95, 18.65)">
    <path d="M2.75 -17.05 Q1.8 -17.05 1.15 -16.4 0.45 -15.7 0.5 -14.75 0.45 -13.85 1.15 -13.15 1.8 -12.5 2.75 -12.5 3.7 -12.5 4.35 -13.15 5.05 -13.85 5.05 -14.75 5.05 -15.7 4.35 -16.4 3.7 -17.05 2.75 -17.05 M-4.65 -8.95 Q-5.65 -10.45 -5.6 -12.35 -5.6 -14.95 -3.75 -16.8 -1.95 -18.65 0.7 -18.65 3.3 -18.65 5.15 -16.8 6.95 -14.95 7.0 -12.35 7.0 -10.35 5.9 -8.75 L5.15 -7.9 Q3.3 -6.05 0.7 -6.0 -1.95 -6.05 -3.75 -7.9 L-4.65 -8.95" fill="#33ffff" fill-rule="evenodd" stroke="none"/>
    <path d="M2.75 -17.05 Q3.7 -17.05 4.35 -16.4 5.05 -15.7 5.05 -14.75 5.05 -13.85 4.35 -13.15 3.7 -12.5 2.75 -12.5 1.8 -12.5 1.15 -13.15 0.45 -13.85 0.5 -14.75 0.45 -15.7 1.15 -16.4 1.8 -17.05 2.75 -17.05" fill="#c1ffff" fill-rule="evenodd" stroke="none"/>
    <path d="M7.75 -7.4 Q9.0 -6.65 10.1 -5.5 13.9 -1.7 13.9 3.65 13.9 9.0 10.1 12.8 6.35 16.6 1.0 16.6 -4.4 16.6 -8.2 12.8 -11.95 9.0 -11.95 3.65 -11.95 -1.7 -8.2 -5.5 L-6.85 -6.65 Q-6.45 -6.0 -4.85 -5.5 -2.7 -4.8 0.35 -4.75 L1.5 -4.8 Q2.6 -3.65 1.5 -2.5 -0.45 -2.05 -1.9 -0.55 -4.1 1.6 -4.1 4.7 -4.1 7.75 -1.9 9.95 0.25 12.1 3.35 12.1 6.4 12.1 8.6 9.95 10.75 7.75 10.75 4.7 10.75 1.6 8.6 -0.55 6.95 -2.2 4.8 -2.6 5.75 -3.65 4.8 -5.25 L5.6 -5.5 Q7.75 -6.2 7.75 -7.15 L7.75 -7.4" fill="#ffde59" fill-rule="evenodd" stroke="none"/>
    <path d="M5.9 -8.75 Q7.5 -8.2 7.75 -7.4 L7.75 -7.15 Q7.75 -6.2 5.6 -5.5 L4.8 -5.25 Q5.75 -3.65 4.8 -2.6 L3.35 -2.75 1.5 -2.5 Q2.6 -3.65 1.5 -4.8 L0.35 -4.75 Q-2.7 -4.8 -4.85 -5.5 -6.45 -6.0 -6.85 -6.65 L-7.0 -7.15 Q-7.0 -8.15 -4.85 -8.85 L-4.65 -8.95 -3.75 -7.9 Q-1.95 -6.05 0.7 -6.0 3.3 -6.05 5.15 -7.9 L5.9 -8.75 M1.5 -4.8 L4.8 -5.25 1.5 -4.8" fill="#f8bf01" fill-rule="evenodd" stroke="none"/>
    <path d="M-4.65 -8.95 Q-5.65 -10.45 -5.6 -12.35 -5.6 -14.95 -3.75 -16.8 -1.95 -18.65 0.7 -18.65 3.3 -18.65 5.15 -16.8 6.95 -14.95 7.0 -12.35 7.0 -10.35 5.9 -8.75 L5.15 -7.9 Q3.3 -6.05 0.7 -6.0 -1.95 -6.05 -3.75 -7.9 L-4.65 -8.95" fill="none" stroke="#01a3a2" stroke-linecap="round" stroke-linejoin="round" stroke-width="0.05"/>
    <path d="M5.9 -8.75 Q7.5 -8.2 7.75 -7.4 9.0 -6.65 10.1 -5.5 13.9 -1.7 13.9 3.65 13.9 9.0 10.1 12.8 6.35 16.6 1.0 16.6 -4.4 16.6 -8.2 12.8 -11.95 9.0 -11.95 3.65 -11.95 -1.7 -8.2 -5.5 L-6.85 -6.65 -7.0 -7.15 Q-7.0 -8.15 -4.85 -8.85 L-4.65 -8.95 M7.75 -7.4 L7.75 -7.15 Q7.75 -6.2 5.6 -5.5 L4.8 -5.25 Q5.75 -3.65 4.8 -2.6 6.95 -2.2 8.6 -0.55 10.75 1.6 10.75 4.7 10.75 7.75 8.6 9.95 6.4 12.1 3.35 12.1 0.25 12.1 -1.9 9.95 -4.1 7.75 -4.1 4.7 -4.1 1.6 -1.9 -0.55 -0.45 -2.05 1.5 -2.5 2.6 -3.65 1.5 -4.8 L0.35 -4.75 Q-2.7 -4.8 -4.85 -5.5 -6.45 -6.0 -6.85 -6.65 M4.8 -5.25 L1.5 -4.8 M1.5 -2.5 L3.35 -2.75 4.8 -2.6" fill="none" stroke="#e4b001" stroke-linecap="round" stroke-linejoin="round" stroke-width="0.05"/>
  </g>
</svg>
