<?xml version="1.0" encoding="UTF-8" standalone="no"?>
<svg xmlns:xlink="http://www.w3.org/1999/xlink" height="36.55px" width="45.1px" xmlns="http://www.w3.org/2000/svg">
  <g transform="matrix(1.0, 0.0, 0.0, 1.0, 22.95, 21.2)">
    <path d="M-14.7 5.65 L-14.8 5.65 -15.45 4.95 -15.1 5.0 -15.05 4.95 -14.7 5.65 M-15.95 -0.1 Q-15.85 -0.75 -15.55 -0.75 L-14.95 -0.45 -15.05 -0.1 -15.2 0.45 -15.7 -0.1 -15.95 -0.1" fill="#7397ca" fill-rule="evenodd" stroke="none"/>
    <path d="M-22.9 4.65 L-22.95 4.55 Q-20.1 1.15 -15.95 -0.1 L-15.7 -0.1 -15.2 0.45 -15.55 2.5 -15.95 2.5 Q-19.2 2.8 -22.9 4.65" fill="#efefef" fill-rule="evenodd" stroke="none"/>
    <path d="M-15.45 4.95 L-22.9 4.65 Q-19.2 2.8 -15.95 2.5 L-15.55 2.5 -15.6 3.65 -15.05 4.95 -15.1 5.0 -15.45 4.95" fill="#cccccc" fill-rule="evenodd" stroke="none"/>
    <path d="M16.4 -17.85 L16.45 -17.8 17.05 -17.45 17.6 -17.1 17.75 -17.0 18.25 -16.6 Q21.25 -13.8 11.0 -9.8 0.75 -5.85 3.1 -0.65 5.6 2.75 7.65 -0.65 12.25 -5.8 22.15 -8.9 22.15 -7.25 21.5 -5.45 19.55 0.1 13.1 3.75 6.65 7.35 -1.35 8.15 -12.95 9.1 -14.3 6.45 L-14.7 5.65 -15.05 4.95 -15.6 3.65 -15.55 2.5 -15.2 0.45 -15.05 -0.1 -14.95 -0.45 Q-14.35 -2.85 -11.9 -6.3 L-7.4 -11.7 -6.8 -12.3 Q-7.2 -10.15 -6.5 -9.95 -4.15 -8.35 -1.05 -9.35 L-0.05 -10.65 -0.1 -10.65 1.0 -11.5 Q7.8 -16.35 15.4 -17.65 L16.4 -17.8 16.45 -17.8 16.45 -17.75 16.45 -17.8 16.4 -17.85" fill="#b08dc0" fill-rule="evenodd" stroke="none"/>
    <path d="M18.25 -16.6 L18.65 -16.25 19.7 -15.25 Q22.2 -12.4 22.15 -8.9 12.25 -5.8 7.65 -0.65 5.6 2.75 3.1 -0.65 0.75 -5.85 11.0 -9.8 21.25 -13.8 18.25 -16.6" fill="#936aac" fill-rule="evenodd" stroke="none"/>
    <path d="M-6.8 -12.3 L-6.05 -13.85 0.45 -18.3 Q1.9 -19.15 3.1 -19.65 7.15 -21.4 9.4 -21.15 12.85 -20.75 16.15 -18.0 L13.2 -19.05 7.9 -18.65 Q4.3 -17.55 1.0 -15.3 L-1.9 -13.1 Q-3.05 -8.4 -0.1 -10.65 L-0.05 -10.65 -1.05 -9.35 Q-4.15 -8.35 -6.5 -9.95 -7.2 -10.15 -6.8 -12.3 M-3.85 -11.65 L-3.7 -12.35 Q-3.8 -12.75 -4.1 -12.75 -4.45 -12.75 -4.9 -12.35 L-5.5 -11.65 -5.65 -11.45 Q-5.95 -10.95 -5.85 -10.55 L-5.45 -10.15 Q-5.15 -10.15 -4.7 -10.55 -4.25 -10.95 -3.95 -11.45 L-3.85 -11.65" fill="#d1c8ec" fill-rule="evenodd" stroke="none"/>
    <path d="M16.15 -18.0 L16.4 -17.85 16.4 -17.8 15.4 -17.65 Q7.8 -16.35 1.0 -11.5 L-0.1 -10.65 Q-3.05 -8.4 -1.9 -13.1 L1.0 -15.3 Q4.3 -17.55 7.9 -18.65 L13.2 -19.05 16.15 -18.0" fill="#bbade2" fill-rule="evenodd" stroke="none"/>
    <path d="M-5.5 -11.65 L-4.9 -12.35 Q-4.45 -12.75 -4.1 -12.75 -3.8 -12.75 -3.7 -12.35 L-3.85 -11.65 -3.95 -11.45 Q-4.25 -10.95 -4.7 -10.55 -5.15 -10.15 -5.45 -10.15 L-5.85 -10.55 Q-5.95 -10.95 -5.65 -11.45 L-5.5 -11.65" fill="#a093d9" fill-rule="evenodd" stroke="none"/>
    <path d="M16.4 -17.85 L16.45 -17.8 17.05 -17.45 17.6 -17.1 17.75 -17.0 18.25 -16.6 18.65 -16.25 19.7 -15.25 Q22.2 -12.4 22.15 -8.9 22.15 -7.25 21.5 -5.45 19.55 0.1 13.1 3.75 6.65 7.35 -1.35 8.15 -12.95 9.1 -14.3 6.45 L-14.7 5.65 -14.8 5.65 -15.45 4.95 M-15.95 -0.1 Q-15.85 -0.75 -15.55 -0.75 L-14.95 -0.45 Q-14.35 -2.85 -11.9 -6.3 L-7.4 -11.7 -6.8 -12.3 -6.05 -13.85 0.45 -18.3 Q1.9 -19.15 3.1 -19.65 7.15 -21.4 9.4 -21.15 12.85 -20.75 16.15 -18.0 L16.4 -17.85 16.45 -17.8 16.45 -17.75 16.45 -17.8 16.4 -17.8 15.4 -17.65 Q7.8 -16.35 1.0 -11.5 L-0.1 -10.65 -0.05 -10.65 -1.05 -9.35 Q-4.15 -8.35 -6.5 -9.95 -7.2 -10.15 -6.8 -12.3 M-15.2 0.45 L-15.05 -0.1 -14.95 -0.45 M-5.5 -11.65 L-4.9 -12.35 Q-4.45 -12.75 -4.1 -12.75 -3.8 -12.75 -3.7 -12.35 L-3.85 -11.65 M-14.7 5.65 L-15.05 4.95 -15.6 3.65 -15.55 2.5 -15.2 0.45" fill="none" stroke="#5a3d6d" stroke-linecap="round" stroke-linejoin="round" stroke-width="0.05"/>
    <path d="M-15.45 4.95 L-22.9 4.65 -22.95 4.55 Q-20.1 1.15 -15.95 -0.1 L-15.7 -0.1 -15.2 0.45 M-15.05 4.95 L-15.1 5.0 -15.45 4.95" fill="none" stroke="#666666" stroke-linecap="round" stroke-linejoin="round" stroke-width="0.05"/>
    <path d="M-5.85 7.8 L-5.9 7.5 Q-4.7 6.4 -3.45 6.85 L-3.45 8.35 Q-3.75 11.6 -5.55 15.35 -4.9 11.3 -5.85 7.8" fill="#cccccc" fill-rule="evenodd" stroke="none"/>
    <path d="M-3.45 6.85 Q-2.35 6.8 -1.55 7.4 L-0.85 8.1 -0.85 8.35 Q-2.1 12.45 -5.45 15.35 L-5.55 15.35 Q-3.75 11.6 -3.45 8.35 L-3.45 6.85" fill="#efefef" fill-rule="evenodd" stroke="none"/>
    <path d="M-5.85 7.8 L-6.55 7.2 Q-6.55 6.85 -5.6 6.3 -4.75 5.7 -3.45 5.75 -2.15 5.85 -1.15 6.75 -0.2 7.6 -0.2 7.9 -0.2 8.2 -0.85 8.35 L-0.85 8.1 -1.55 7.4 Q-2.35 6.8 -3.45 6.85 -4.7 6.4 -5.9 7.5 L-5.85 7.8" fill="#b08dc0" fill-rule="evenodd" stroke="none"/>
    <path d="M-5.85 7.8 L-5.9 7.5 Q-4.7 6.4 -3.45 6.85 -2.35 6.8 -1.55 7.4 L-0.85 8.1 -0.85 8.35 Q-2.1 12.45 -5.45 15.35 L-5.55 15.35 Q-4.9 11.3 -5.85 7.8" fill="none" stroke="#666666" stroke-linecap="round" stroke-linejoin="round" stroke-width="0.05"/>
    <path d="M-0.85 8.35 Q-0.2 8.2 -0.2 7.9 -0.2 7.6 -1.15 6.75 -2.15 5.85 -3.45 5.75 -4.75 5.7 -5.6 6.3 -6.55 6.85 -6.55 7.2 L-5.85 7.8 Z" fill="none" stroke="#5a3d6d" stroke-linecap="round" stroke-linejoin="round" stroke-width="0.05"/>
    <path d="M-12.45 -0.8 L-10.05 -2.4 -8.5 -2.0 -8.95 0.25 -10.75 1.1 -10.05 -0.1 -11.35 -0.65 -12.35 0.65 -12.45 -0.8" fill="#e9da2e" fill-rule="evenodd" stroke="none"/>
    <path d="M-5.0 0.1 L-0.25 0.15 Q-0.75 2.1 -3.55 2.65 L-6.8 1.3 -5.0 0.1" fill="#ff0000" fill-rule="evenodd" stroke="none"/>
    <path d="M-5.0 0.1 L-0.25 0.15 Q-0.75 2.1 -3.55 2.65 L-6.8 1.3 -5.0 0.1 Z" fill="none" stroke="#5a3d6d" stroke-linecap="round" stroke-linejoin="round" stroke-width="0.05"/>
    <path d="M-15.0 -0.65 Q-15.5 -2.75 -13.95 -3.4 L-12.9 -2.1 -12.9 -0.65 -15.0 -0.65" fill="#ff0000" fill-rule="evenodd" stroke="none"/>
    <path d="M-15.0 -0.65 Q-15.5 -2.75 -13.95 -3.4 L-12.9 -2.1 -12.9 -0.65 -15.0 -0.65 Z" fill="none" stroke="#5a3d6d" stroke-linecap="round" stroke-linejoin="round" stroke-width="0.05"/>
  </g>
</svg>
