<?xml version="1.0" encoding="UTF-8" standalone="no"?>
<svg xmlns:xlink="http://www.w3.org/1999/xlink" height="30.55px" width="44.0px" xmlns="http://www.w3.org/2000/svg">
  <g transform="matrix(1.0, 0.0, 0.0, 1.0, 35.5, -7.65)">
    <path d="M0.85 8.65 Q0.45 9.35 -0.45 8.9 L-0.7 8.85 Q-1.15 8.0 -0.4 7.7 0.0 7.55 0.45 8.05 L0.85 8.65 M8.5 14.65 L8.15 15.1 7.9 15.05 7.85 14.3 7.95 14.05 Q8.05 13.95 8.1 14.0 L8.5 14.65 M3.7 21.65 L4.8 21.65 5.8 21.35 7.15 21.1 7.65 21.0 7.95 20.65 8.45 21.95 7.35 21.9 7.05 21.95 6.7 22.15 6.2 22.5 5.05 23.35 4.25 23.2 3.45 22.95 3.1 22.8 2.9 22.75 Q1.9 22.75 1.1 22.15 L0.7 21.6 0.8 21.3 1.35 21.0 2.65 21.3 3.7 21.65 M0.7 31.15 L0.55 31.8 0.25 31.7 Q-0.05 31.65 0.0 31.35 L0.15 31.05 0.7 31.15 M-10.55 22.9 L-9.2 22.05 -8.45 21.4 Q-8.1 20.95 -7.45 20.85 -6.5 20.55 -5.65 19.8 L-5.35 19.3 -6.45 18.3 -6.25 18.15 Q-4.6 18.55 -3.3 19.45 L-2.9 19.9 -2.1 19.65 -1.35 19.55 -2.55 20.9 -2.9 21.05 -3.05 21.6 -3.1 22.1 -3.15 22.35 -3.6 22.2 -4.15 21.75 -4.45 21.6 -5.45 21.8 Q-7.2 23.05 -9.4 23.65 L-9.75 23.9 Q-10.75 24.5 -11.75 25.55 L-12.8 26.6 Q-13.6 27.25 -14.65 27.15 -15.45 27.15 -16.0 27.7 L-16.8 28.25 -17.75 28.25 -19.85 29.3 -20.8 29.75 Q-21.9 29.95 -22.75 30.75 L-23.4 31.45 Q-23.85 31.45 -24.35 31.8 -25.6 32.7 -26.95 33.15 L-27.4 33.35 Q-29.15 34.7 -31.05 35.65 L-32.5 36.75 -33.25 37.55 -33.85 38.2 -35.05 38.05 -35.45 37.45 -35.45 37.05 -33.9 35.7 -33.2 34.7 -32.45 33.8 -31.3 32.95 -30.2 32.15 Q-28.85 30.9 -26.95 30.85 -25.3 30.6 -23.85 29.7 L-21.15 28.25 -19.5 27.05 Q-18.65 26.35 -17.4 25.95 L-15.6 25.0 -14.05 24.3 Q-12.25 24.0 -10.55 22.9 M-17.5 15.45 L-17.9 15.15 -18.15 14.65 -18.0 14.05 -17.6 13.7 -17.15 13.85 -16.75 14.75 Q-16.75 15.45 -17.5 15.45 M-1.0 21.05 L-0.8 21.3 Q-0.5 21.65 -0.8 21.95 L-1.1 21.95 Q-1.55 21.75 -1.0 21.05" fill="#dc72cf" fill-rule="evenodd" stroke="none"/>
    <path d="M0.85 8.65 Q0.45 9.35 -0.45 8.9 L-0.7 8.85 Q-1.15 8.0 -0.4 7.7 0.0 7.55 0.45 8.05 L0.85 8.65 M8.5 14.65 L8.1 14.0 Q8.05 13.95 7.95 14.05 L7.85 14.3 7.9 15.05 8.15 15.1 8.5 14.65 M3.7 21.65 L4.8 21.65 5.8 21.35 7.15 21.1 7.65 21.0 7.95 20.65 8.45 21.95 7.35 21.9 7.05 21.95 6.7 22.15 6.2 22.5 5.05 23.35 4.25 23.2 3.45 22.95 3.1 22.8 2.9 22.75 Q1.9 22.75 1.1 22.15 L0.7 21.6 0.8 21.3 1.35 21.0 2.65 21.3 3.7 21.65 M0.7 31.15 L0.15 31.05 0.0 31.35 Q-0.05 31.65 0.25 31.7 L0.55 31.8 0.7 31.15 M-10.55 22.9 L-9.2 22.05 -8.45 21.4 Q-8.1 20.95 -7.45 20.85 -6.5 20.55 -5.65 19.8 L-5.35 19.3 -6.45 18.3 -6.25 18.15 Q-4.6 18.55 -3.3 19.45 L-2.9 19.9 -2.1 19.65 -1.35 19.55 -2.55 20.9 -2.9 21.05 -3.05 21.6 -3.1 22.1 -3.15 22.35 -3.6 22.2 -4.15 21.75 -4.45 21.6 -5.45 21.8 Q-7.2 23.05 -9.4 23.65 L-9.75 23.9 Q-10.75 24.5 -11.75 25.55 L-12.8 26.6 Q-13.6 27.25 -14.65 27.15 -15.45 27.15 -16.0 27.7 L-16.8 28.25 -17.75 28.25 -19.85 29.3 -20.8 29.75 Q-21.9 29.95 -22.75 30.75 L-23.4 31.45 Q-23.85 31.45 -24.35 31.8 -25.6 32.7 -26.95 33.15 L-27.4 33.35 Q-29.15 34.7 -31.05 35.65 L-32.5 36.75 -33.25 37.55 -33.85 38.2 -35.05 38.05 -35.45 37.45 -35.45 37.05 -33.9 35.7 -33.2 34.7 -32.45 33.8 -31.3 32.95 -30.2 32.15 Q-28.85 30.9 -26.95 30.85 -25.3 30.6 -23.85 29.7 L-21.15 28.25 -19.5 27.05 Q-18.65 26.35 -17.4 25.95 L-15.6 25.0 -14.05 24.3 Q-12.25 24.0 -10.55 22.9 M-17.5 15.45 L-17.9 15.15 -18.15 14.65 -18.0 14.05 -17.6 13.7 -17.15 13.85 -16.75 14.75 Q-16.75 15.45 -17.5 15.45 M-1.0 21.05 Q-1.55 21.75 -1.1 21.95 L-0.8 21.95 Q-0.5 21.65 -0.8 21.3 L-1.0 21.05" fill="none" stroke="#eaace8" stroke-linecap="round" stroke-linejoin="round" stroke-width="0.05"/>
  </g>
</svg>
