<?xml version="1.0" encoding="UTF-8" standalone="no"?>
<svg xmlns:xlink="http://www.w3.org/1999/xlink" height="25.5px" width="53.65px" xmlns="http://www.w3.org/2000/svg">
  <g transform="matrix(1.0, 0.0, 0.0, 1.0, 39.45, -14.0)">
    <path d="M3.25 22.95 L4.0 22.9 Q4.8 23.75 5.95 23.75 L6.0 23.7 6.0 23.6 5.95 23.4 5.8 23.25 5.45 23.05 5.3 22.6 5.9 22.5 6.6 22.6 7.0 22.85 9.9 22.4 10.6 22.35 Q11.35 22.4 12.0 21.85 13.55 20.6 14.15 18.9 14.35 20.7 13.35 22.35 12.85 23.1 11.8 23.25 L10.75 23.65 Q8.9 24.35 6.9 24.25 L5.4 24.55 Q4.45 24.3 3.5 23.65 3.1 23.35 3.25 22.95 M0.35 23.85 L0.25 23.9 Q-0.3 23.5 0.2 22.85 1.25 22.9 0.35 23.85 M1.4 32.45 L1.35 32.8 1.15 32.9 1.0 32.8 0.9 32.45 1.0 32.15 1.15 32.0 1.35 32.15 1.4 32.45 M-16.45 14.55 L-16.45 14.6 -16.45 14.75 Q-16.55 15.3 -17.1 15.55 L-17.3 15.6 Q-17.7 15.65 -17.9 15.3 -18.35 14.7 -17.8 14.2 L-17.5 14.05 Q-16.95 13.9 -16.45 14.55 M-6.0 21.6 L-6.05 22.0 -6.25 22.2 -6.65 22.55 -7.2 22.55 -7.5 22.7 -8.05 23.45 -8.35 23.85 -13.1 26.15 Q-13.8 26.55 -14.6 26.8 -17.15 27.65 -19.4 29.15 -22.3 31.1 -25.6 31.75 -26.6 32.1 -27.25 32.65 L-28.7 33.65 -31.1 34.95 -32.6 35.65 -35.35 37.6 -37.75 39.45 -38.1 39.5 -39.15 39.2 -39.45 38.9 -38.3 37.5 -37.85 37.0 Q-36.65 35.65 -34.9 34.85 L-33.85 34.2 -29.85 31.9 Q-28.5 31.15 -27.05 30.55 L-24.35 29.75 -22.25 28.45 -21.25 27.75 -17.95 26.55 -15.05 25.2 -13.5 24.4 Q-11.8 23.6 -9.9 23.2 -9.05 22.9 -8.3 22.4 L-6.6 21.6 Q-6.35 21.45 -6.0 21.6" fill="#dc72cf" fill-rule="evenodd" stroke="none"/>
    <path d="M3.25 22.95 L4.0 22.9 Q4.8 23.75 5.95 23.75 L6.0 23.7 6.0 23.6 5.95 23.4 5.8 23.25 5.45 23.05 5.3 22.6 5.9 22.5 6.6 22.6 7.0 22.85 9.9 22.4 10.6 22.35 Q11.35 22.4 12.0 21.85 13.55 20.6 14.15 18.9 14.35 20.7 13.35 22.35 12.85 23.1 11.8 23.25 L10.75 23.65 Q8.9 24.35 6.9 24.25 L5.4 24.55 Q4.45 24.3 3.5 23.65 3.1 23.35 3.25 22.95 M0.35 23.85 L0.25 23.9 Q-0.3 23.5 0.2 22.85 1.25 22.9 0.35 23.85 M1.4 32.45 L1.35 32.8 1.15 32.9 1.0 32.8 0.9 32.45 1.0 32.15 1.15 32.0 1.35 32.15 1.4 32.45 M-16.45 14.75 L-16.45 14.55 -16.45 14.6 -16.45 14.75 Q-16.55 15.3 -17.1 15.55 L-17.3 15.6 Q-17.7 15.65 -17.9 15.3 -18.35 14.7 -17.8 14.2 L-17.5 14.05 Q-16.95 13.9 -16.45 14.55 M-6.0 21.6 L-6.05 22.0 -6.25 22.2 -6.65 22.55 -7.2 22.55 -7.5 22.7 -8.05 23.45 -8.35 23.85 -13.1 26.15 Q-13.8 26.55 -14.6 26.8 -17.15 27.65 -19.4 29.15 -22.3 31.1 -25.6 31.75 -26.6 32.1 -27.25 32.65 L-28.7 33.65 -31.1 34.95 -32.6 35.65 -35.35 37.6 -37.75 39.45 -38.1 39.5 -39.15 39.2 -39.45 38.9 -38.3 37.5 -37.85 37.0 Q-36.65 35.65 -34.9 34.85 L-33.85 34.2 -29.85 31.9 Q-28.5 31.15 -27.05 30.55 L-24.35 29.75 -22.25 28.45 -21.25 27.75 -17.95 26.55 -15.05 25.2 -13.5 24.4 Q-11.8 23.6 -9.9 23.2 -9.05 22.9 -8.3 22.4 L-6.6 21.6 Q-6.35 21.45 -6.0 21.6" fill="none" stroke="#eaace8" stroke-linecap="round" stroke-linejoin="round" stroke-width="0.05"/>
  </g>
</svg>
