<?xml version="1.0" encoding="UTF-8" standalone="no"?>
<svg xmlns:xlink="http://www.w3.org/1999/xlink" height="26.2px" width="69.45px" xmlns="http://www.w3.org/2000/svg">
  <g transform="matrix(1.0, 0.0, 0.0, 1.0, 53.85, -20.5)">
    <path d="M9.0 23.9 Q9.3 23.3 9.85 23.7 10.4 24.55 11.2 25.0 11.6 25.25 12.05 25.0 L12.15 24.45 Q12.2 24.1 11.8 23.65 L12.15 23.2 Q12.85 23.65 13.6 23.6 L13.75 23.35 14.6 20.5 Q15.4 21.9 15.6 23.6 15.75 24.65 14.9 25.2 L12.9 26.05 11.1 26.0 9.0 24.3 9.0 23.9 M-23.35 30.4 Q-24.0 31.55 -25.25 32.2 L-28.5 33.6 -31.75 35.0 Q-33.5 35.6 -35.2 36.65 L-37.55 38.0 -39.9 39.45 -42.35 40.6 -44.95 41.95 -47.35 43.25 -49.6 44.85 -52.0 46.2 -53.55 46.7 -53.7 46.65 Q-54.0 46.25 -53.65 45.65 L-52.9 44.7 -52.1 44.05 Q-51.2 43.3 -49.9 43.05 L-49.35 42.75 -46.4 41.0 Q-45.2 40.2 -43.95 39.55 -42.9 38.95 -41.8 38.5 L-39.4 37.35 -37.1 36.2 -34.55 35.15 Q-30.4 33.25 -26.0 31.75 L-24.45 31.0 -23.35 30.35 -23.35 30.4" fill="#dc72cf" fill-rule="evenodd" stroke="none"/>
    <path d="M9.0 23.9 L9.0 24.3 11.1 26.0 12.9 26.05 14.9 25.2 Q15.75 24.65 15.6 23.6 15.4 21.9 14.6 20.5 L13.75 23.35 13.6 23.6 Q12.85 23.65 12.15 23.2 L11.8 23.65 Q12.2 24.1 12.15 24.45 L12.05 25.0 Q11.6 25.25 11.2 25.0 10.4 24.55 9.85 23.7 9.3 23.3 9.0 23.9 M-23.35 30.4 Q-24.0 31.55 -25.25 32.2 L-28.5 33.6 -31.75 35.0 Q-33.5 35.6 -35.2 36.65 L-37.55 38.0 -39.9 39.45 -42.35 40.6 -44.95 41.95 -47.35 43.25 -49.6 44.85 -52.0 46.2 -53.55 46.7 -53.7 46.65 Q-54.0 46.25 -53.65 45.65 L-52.9 44.7 -52.1 44.05 Q-51.2 43.3 -49.9 43.05 L-49.35 42.75 -46.4 41.0 Q-45.2 40.2 -43.95 39.55 -42.9 38.95 -41.8 38.5 L-39.4 37.35 -37.1 36.2 -34.55 35.15 Q-30.4 33.25 -26.0 31.75 L-24.45 31.0 -23.35 30.35 -23.25 30.25 -23.35 30.4" fill="none" stroke="#eaace8" stroke-linecap="round" stroke-linejoin="round" stroke-width="0.05"/>
  </g>
</svg>
