<?xml version="1.0" encoding="UTF-8" standalone="no"?>
<svg xmlns:xlink="http://www.w3.org/1999/xlink" height="25.55px" width="79.35px" xmlns="http://www.w3.org/2000/svg">
  <g transform="matrix(1.0, 0.0, 0.0, 1.0, 61.1, -24.4)">
    <path d="M17.15 26.65 Q17.75 25.95 17.55 24.9 L17.45 24.4 18.25 25.65 Q18.15 26.55 17.65 27.3 L17.5 27.45 Q17.1 27.65 16.6 27.45 L16.15 27.2 15.95 26.75 17.15 26.65 M-27.15 31.9 Q-26.45 32.05 -27.15 32.65 -28.15 33.7 -29.65 34.3 L-30.95 34.9 Q-31.2 33.05 -29.45 32.2 L-28.2 31.75 -27.8 32.05 -27.15 31.9 M-36.6 36.25 L-36.45 36.4 Q-37.35 37.05 -38.05 38.2 -40.05 41.4 -43.6 42.9 -47.35 44.4 -51.2 46.25 -52.8 47.05 -54.25 48.05 -57.55 50.45 -61.1 49.85 L-60.75 48.95 Q-58.05 45.05 -52.95 43.85 -48.8 42.9 -44.7 41.05 -40.3 39.05 -36.6 36.25" fill="#dc72cf" fill-rule="evenodd" stroke="none"/>
    <path d="M17.15 26.65 Q17.75 25.95 17.55 24.9 L17.45 24.4 18.25 25.65 Q18.15 26.55 17.65 27.3 L17.5 27.45 Q17.1 27.65 16.6 27.45 L16.15 27.2 15.95 26.75 17.15 26.65 M-27.15 31.9 Q-26.45 32.05 -27.15 32.65 -28.15 33.7 -29.65 34.3 L-30.95 34.9 Q-31.2 33.05 -29.45 32.2 L-28.2 31.75 -27.8 32.05 -27.15 31.9 M-36.6 36.25 Q-40.3 39.05 -44.7 41.05 -48.8 42.9 -52.95 43.85 -58.05 45.05 -60.75 48.95 L-61.1 49.85 Q-57.55 50.45 -54.25 48.05 -52.8 47.05 -51.2 46.25 -47.35 44.4 -43.6 42.9 -40.05 41.4 -38.05 38.2 -37.35 37.05 -36.45 36.4 L-36.6 36.25" fill="none" stroke="#eaace8" stroke-linecap="round" stroke-linejoin="round" stroke-width="0.05"/>
  </g>
</svg>
