<?xml version="1.0" encoding="UTF-8" standalone="no"?>
<svg xmlns:xlink="http://www.w3.org/1999/xlink" height="24.15px" width="46.4px" xmlns="http://www.w3.org/2000/svg">
  <g transform="matrix(1.0, 0.0, 0.0, 1.0, 82.8, -36.85)">
    <path d="M-36.6 36.85 Q-36.15 36.85 -36.65 37.4 L-37.35 38.15 -37.75 38.3 -38.15 38.15 -38.3 37.7 -38.15 37.3 -37.5 36.95 -36.6 36.85 M-54.9 46.9 L-55.15 47.0 -55.2 46.8 Q-54.7 46.2 -53.95 45.9 L-52.4 45.5 Q-53.6 46.6 -54.9 46.9 M-80.35 60.2 Q-80.85 60.7 -81.7 60.9 L-82.8 60.95 -82.75 60.55 -82.2 59.6 -81.7 59.15 -80.95 58.8 -73.25 55.2 -74.2 56.15 -75.3 57.1 -78.35 58.85 Q-79.45 59.4 -80.35 60.2" fill="#dc72cf" fill-rule="evenodd" stroke="none"/>
    <path d="M-36.6 36.85 Q-36.15 36.85 -36.65 37.4 L-37.35 38.15 -37.75 38.3 -38.15 38.15 -38.3 37.7 -38.15 37.3 -37.5 36.95 -36.6 36.85 M-54.9 46.9 L-55.15 47.0 -55.2 46.8 Q-54.7 46.2 -53.95 45.9 L-52.4 45.5 Q-53.6 46.6 -54.9 46.9 M-80.35 60.2 Q-80.85 60.7 -81.7 60.9 L-82.8 60.95 -82.75 60.55 -82.2 59.6 -81.7 59.15 -80.95 58.8 -73.25 55.2 -74.2 56.15 -75.3 57.1 -78.35 58.85 Q-79.45 59.4 -80.35 60.2" fill="none" stroke="#eaace8" stroke-linecap="round" stroke-linejoin="round" stroke-width="0.05"/>
  </g>
</svg>
