<?xml version="1.0" encoding="UTF-8" standalone="no"?>
<svg xmlns:xlink="http://www.w3.org/1999/xlink" height="24.8px" width="46.6px" xmlns="http://www.w3.org/2000/svg">
  <g transform="matrix(1.0, 0.0, 0.0, 1.0, 86.3, -38.75)">
    <path d="M-39.75 39.55 L-40.0 39.85 Q-40.6 40.15 -40.65 39.65 -40.75 38.65 -39.75 38.75 L-39.7 39.0 -39.75 39.55 M-58.55 48.7 Q-57.95 47.9 -58.2 49.1 -58.3 49.7 -58.65 49.15 L-58.55 48.7 M-82.5 60.5 L-82.5 60.75 Q-82.35 61.5 -83.0 61.85 L-85.3 63.4 -85.55 63.55 -86.3 63.25 Q-85.75 61.75 -84.1 61.1 L-82.5 60.5" fill="#dc72cf" fill-rule="evenodd" stroke="none"/>
    <path d="M-39.75 39.55 L-39.7 39.0 -39.75 38.75 Q-40.75 38.65 -40.65 39.65 -40.6 40.15 -40.0 39.85 L-39.75 39.55 M-58.55 48.7 Q-57.95 47.9 -58.2 49.1 -58.3 49.7 -58.65 49.15 L-58.55 48.7 M-82.5 60.5 L-82.5 60.75 Q-82.35 61.5 -83.0 61.85 L-85.3 63.4 -85.55 63.55 -86.3 63.25 Q-85.75 61.75 -84.1 61.1 L-82.5 60.5" fill="none" stroke="#eaace8" stroke-linecap="round" stroke-linejoin="round" stroke-width="0.05"/>
  </g>
</svg>
