<?xml version="1.0" encoding="UTF-8" standalone="no"?>
<svg xmlns:xlink="http://www.w3.org/1999/xlink" height="26.05px" width="5.5px" xmlns="http://www.w3.org/2000/svg">
  <g transform="matrix(1.0, 0.0, 0.0, 1.0, 4.05, 29.2)">
    <path d="M-2.25 -3.8 L-2.35 -7.2 -4.05 -24.4 Q-3.95 -27.8 -2.8 -29.15 -0.75 -29.6 0.2 -25.05 1.45 -18.1 1.2 -16.35 L0.9 -11.1 Q0.8 -7.65 1.05 -3.75 -1.2 -2.85 -2.25 -3.8" fill="#666666" fill-rule="evenodd" stroke="none"/>
    <path d="M1.05 -3.75 Q0.8 -7.65 0.9 -11.1 L1.2 -16.35 Q1.45 -18.1 0.2 -25.05 -0.75 -29.6 -2.8 -29.15 -3.95 -27.8 -4.05 -24.4 L-2.35 -7.2 -2.25 -3.8" fill="none" stroke="#272727" stroke-linecap="round" stroke-linejoin="round" stroke-width="0.05"/>
    <path d="M0.15 -3.2 Q-1.05 -3.05 -2.2 -3.7 L-2.25 -3.7 -2.55 -4.1 -2.65 -4.9 Q-2.55 -5.55 -2.25 -5.7 L-2.15 -5.45 -1.4 -5.2 0.8 -5.05 1.1 -4.85 1.45 -4.2 1.45 -3.65 0.95 -3.35 0.15 -3.2" fill="#60e1cd" fill-rule="evenodd" stroke="none"/>
    <path d="M0.15 -3.2 Q-1.05 -3.05 -2.2 -3.7 L-2.25 -3.7 -2.55 -4.1 -2.65 -4.9 Q-2.55 -5.55 -2.25 -5.7 L-2.15 -5.45 -1.4 -5.2 0.8 -5.05 1.1 -4.85 1.45 -4.2 1.45 -3.65 0.95 -3.35 0.15 -3.2 Z" fill="none" stroke="#1d9e8a" stroke-linecap="round" stroke-linejoin="round" stroke-width="0.05"/>
    <path d="M-2.35 -5.05 L-2.4 -5.1 -2.5 -5.3 -2.35 -5.6 -2.35 -5.65 -2.15 -5.7 -1.95 -5.6 -1.9 -5.55 -1.85 -5.4 -1.85 -5.35 -1.9 -5.1 -2.15 -5.0 -2.35 -5.05" fill="#ffffff" fill-rule="evenodd" stroke="none"/>
    <path d="M-0.6 -5.45 L-0.5 -4.85 Q-0.45 -4.25 -0.8 -3.75 L-1.0 -3.5 Q-1.3 -3.25 -1.7 -3.2 -2.25 -3.2 -2.6 -3.65 L-2.7 -3.75 -3.0 -4.75 -2.8 -5.75 -2.65 -5.9 Q-2.35 -6.4 -1.8 -6.45 -1.3 -6.5 -0.9 -6.0 L-0.6 -5.45 M-1.85 -5.4 L-1.9 -5.55 -1.95 -5.6 -2.15 -5.7 -2.35 -5.65 -2.35 -5.6 -2.5 -5.3 -2.4 -5.1 -2.35 -5.05 -2.6 -4.35 -2.25 -3.65 -1.6 -3.45 Q-1.2 -3.5 -0.95 -3.75 -0.7 -4.1 -0.7 -4.5 L-1.0 -5.2 -1.65 -5.4 -1.85 -5.4" fill="#bb7855" fill-rule="evenodd" stroke="none"/>
    <path d="M-1.85 -5.4 L-1.65 -5.4 -1.0 -5.2 -0.7 -4.5 Q-0.7 -4.1 -0.95 -3.75 -1.2 -3.5 -1.6 -3.45 L-2.25 -3.65 -2.6 -4.35 -2.35 -5.05 -2.15 -5.0 -1.9 -5.1 -1.85 -5.35 -1.85 -5.4" fill="#7c4632" fill-rule="evenodd" stroke="none"/>
  </g>
</svg>
