<?xml version="1.0" encoding="UTF-8" standalone="no"?>
<svg xmlns:xlink="http://www.w3.org/1999/xlink" height="31.1px" width="20.7px" xmlns="http://www.w3.org/2000/svg">
  <g transform="matrix(1.0, 0.0, 0.0, 1.0, 10.9, 13.15)">
    <path d="M2.35 -8.25 Q1.7 -8.15 0.45 -7.3 L-4.85 -6.95 -5.25 -7.65 -5.35 -7.8 -5.35 -7.85 -5.35 -7.9 -5.25 -8.65 -5.2 -8.75 Q-4.85 -11.05 -5.3 -12.75 -0.7 -13.6 2.4 -12.7 L2.2 -11.3 2.2 -11.05 Q2.1 -9.6 2.35 -8.25 M-5.25 -8.75 L-5.25 -8.65 -6.25 -8.0 -7.6 -8.45 -5.25 -8.75" fill="#ffd0ae" fill-rule="evenodd" stroke="none"/>
    <path d="M-5.35 -7.8 L-5.25 -7.65 -4.85 -6.95 0.45 -7.3 Q1.7 -8.15 2.35 -8.25 L2.5 -7.65 2.95 -7.5 4.15 -6.85 Q6.05 -4.4 4.25 -1.9 L-7.95 -1.9 Q-9.75 -6.55 -7.6 -8.45 L-6.25 -8.0 -5.25 -8.65 -5.35 -7.9 -5.35 -7.85 -5.35 -7.8" fill="#ffdfc8" fill-rule="evenodd" stroke="none"/>
    <path d="M-5.2 -8.75 L-5.25 -8.65 -5.25 -8.75 -5.2 -8.75" fill="#eebf5a" fill-rule="evenodd" stroke="none"/>
    <path d="M2.35 -8.25 Q2.1 -9.6 2.2 -11.05 L2.2 -11.3 2.4 -12.7 Q-0.7 -13.6 -5.3 -12.75 -4.85 -11.05 -5.2 -8.75 L-5.25 -8.65 -5.35 -7.9 -5.35 -7.85 -5.35 -7.8 M-7.6 -8.45 Q-9.75 -6.55 -7.95 -1.9 L4.25 -1.9 Q6.05 -4.4 4.15 -6.85 L2.95 -7.5 2.5 -7.65 2.35 -8.25 M-5.2 -8.75 L-5.25 -8.75 -7.6 -8.45" fill="none" stroke="#674743" stroke-linecap="round" stroke-linejoin="round" stroke-width="0.05"/>
    <path d="M0.0 8.9 L0.05 8.9 0.0 8.9" fill="#ffffff" fill-rule="evenodd" stroke="none"/>
    <path d="M6.25 13.8 Q7.25 14.8 6.8 16.2 3.85 17.95 -1.05 17.95 L-2.25 17.9 -4.2 17.55 Q-4.95 15.8 -4.3 14.8 L-4.1 14.85 -3.75 14.95 -1.35 15.1 -1.1 15.1 3.8 14.8 3.9 14.75 4.2 14.7 Q5.55 14.35 6.25 13.8" fill="#684942" fill-rule="evenodd" stroke="none"/>
    <path d="M-4.2 17.55 Q-6.15 17.1 -7.35 16.35 L-8.45 15.4 Q-8.9 13.75 -8.3 12.65 L-8.25 12.5 -8.1 12.3 -8.0 12.5 -7.95 12.65 -7.5 13.2 -7.3 13.4 Q-6.35 14.2 -4.3 14.8 -4.95 15.8 -4.2 17.55" fill="#956c5e" fill-rule="evenodd" stroke="none"/>
    <path d="M-8.1 12.3 Q-8.85 11.3 -8.4 4.4 L-8.35 3.5 -9.45 2.0 -9.7 1.65 -9.8 1.5 Q-10.35 -2.8 -9.15 -6.2 L-9.1 -6.35 -8.3 -8.3 -8.2 -8.3 -8.2 -8.2 -8.15 -7.4 -8.3 -6.55 Q-9.05 -3.6 -6.95 -1.35 L-4.65 -1.05 -3.45 -0.6 Q-2.9 -0.3 -2.3 -0.3 L-1.35 -0.5 -0.5 -0.55 Q0.2 -0.65 0.7 -0.9 L1.75 -1.35 2.9 -3.05 3.4 -3.7 3.95 -4.3 4.35 -4.8 4.4 -4.85 4.75 -4.7 4.5 -4.2 3.85 -1.9 Q3.6 -0.55 3.7 0.95 3.85 3.9 5.0 5.9 L6.1 7.3 4.65 10.0 5.25 13.1 Q4.85 14.2 4.2 14.7 L3.9 14.75 3.8 14.8 -1.1 15.1 -1.35 15.1 -3.75 14.95 -4.1 14.85 -4.3 14.8 Q-6.35 14.2 -7.3 13.4 L-7.5 13.2 -7.95 12.65 -8.0 12.5 -8.1 12.3 M0.0 8.9 L0.05 8.9 0.0 8.9" fill="#6aac86" fill-rule="evenodd" stroke="none"/>
    <path d="M4.4 -4.85 L4.55 -5.1 4.75 -5.35 5.0 -5.5 5.35 -6.4 5.4 -6.4 5.55 -6.35 5.95 -6.1 6.0 -6.1 Q5.3 -5.65 4.75 -4.7 L4.4 -4.85 M7.75 7.85 L7.3 8.75 7.3 12.25 6.25 13.8 Q5.55 14.35 4.2 14.7 4.85 14.2 5.25 13.1 L4.65 10.0 6.1 7.3 Q6.8 7.9 7.65 7.85 L7.75 7.85" fill="#52946d" fill-rule="evenodd" stroke="none"/>
    <path d="M6.0 -6.1 L6.15 -6.0 6.75 -5.65 7.3 -5.3 Q10.0 -3.9 9.75 -2.7 L9.8 -1.9 9.7 0.05 9.7 0.2 9.65 0.8 9.25 3.1 9.2 3.25 8.45 6.05 7.75 7.85 7.65 7.85 Q6.8 7.9 6.1 7.3 L5.0 5.9 Q3.85 3.9 3.7 0.95 3.6 -0.55 3.85 -1.9 L4.5 -4.2 4.75 -4.7 Q5.3 -5.65 6.0 -6.1" fill="#ffd0ae" fill-rule="evenodd" stroke="none"/>
    <path d="M-9.8 1.5 Q-11.05 -0.7 -10.85 -3.0 L-10.45 -5.15 -10.05 -6.15 -9.15 -7.75 -9.0 -8.0 -8.95 -8.1 -8.6 -8.2 -8.3 -8.3 -9.1 -6.35 -9.15 -6.2 Q-10.35 -2.8 -9.8 1.5" fill="#ffdfc8" fill-rule="evenodd" stroke="none"/>
    <path d="M6.25 13.8 Q7.25 14.8 6.8 16.2 3.85 17.95 -1.05 17.95 L-2.25 17.9 -4.2 17.55 Q-6.15 17.1 -7.35 16.35 L-8.45 15.4 Q-8.9 13.75 -8.3 12.65 L-8.25 12.5 -8.1 12.3" fill="none" stroke="#674743" stroke-linecap="round" stroke-linejoin="round" stroke-width="0.05"/>
    <path d="M7.75 7.85 L7.3 8.75 7.3 12.25 6.25 13.8 Q5.55 14.35 4.2 14.7 L3.9 14.75 M-8.35 3.5 L-9.45 2.0 -9.7 1.65 -9.8 1.5" fill="none" stroke="#30543c" stroke-linecap="round" stroke-linejoin="round" stroke-width="0.05"/>
    <path d="M-8.1 12.3 Q-8.85 11.3 -8.4 4.4 L-8.35 3.5 M3.85 -1.9 Q3.6 -0.55 3.7 0.95 3.85 3.9 5.0 5.9 L6.1 7.3 Q6.8 7.9 7.65 7.85 L7.75 7.85 M3.9 14.75 L3.8 14.8 -1.1 15.1 -1.35 15.1 -3.75 14.95 -4.1 14.85 -4.3 14.8 Q-6.35 14.2 -7.3 13.4 L-7.5 13.2 -7.95 12.65 -8.0 12.5 -8.1 12.3 M-9.8 1.5 Q-10.35 -2.8 -9.15 -6.2" fill="none" stroke="#30543c" stroke-linecap="round" stroke-linejoin="round" stroke-width="0.05"/>
    <path d="M6.15 -6.0 L6.75 -5.65 7.3 -5.3 Q10.0 -3.9 9.75 -2.7 L9.8 -1.9 9.7 0.05 9.7 0.2 9.65 0.8 9.25 3.1 9.2 3.25 8.45 6.05 7.75 7.85 M-9.0 -8.0 L-8.95 -8.1 -8.6 -8.2 -8.3 -8.3" fill="none" stroke="#d7995e" stroke-linecap="round" stroke-linejoin="round" stroke-width="0.05"/>
    <path d="M-9.8 1.5 Q-11.05 -0.7 -10.85 -3.0" fill="none" stroke="#d7995e" stroke-linecap="round" stroke-linejoin="round" stroke-width="0.05"/>
    <path d="M5.4 -6.4 L5.55 -6.35 5.95 -6.1 6.0 -6.1 Q5.3 -5.65 4.75 -4.7 L4.5 -4.2 3.85 -1.9 M-8.3 -8.3 L-8.2 -8.3 M-9.1 -6.35 L-8.3 -8.3" fill="none" stroke="#30543c" stroke-linecap="round" stroke-linejoin="round" stroke-width="0.05"/>
    <path d="M5.4 -6.4 L5.35 -6.4 5.0 -5.5 4.75 -5.35 4.55 -5.1 4.4 -4.85 3.0 -5.35 2.95 -5.35 4.9 -6.6 5.4 -6.4" fill="#52946d" fill-rule="evenodd" stroke="none"/>
    <path d="M3.0 -5.35 L4.4 -4.85 4.35 -4.8 3.95 -4.3 3.4 -3.7 2.9 -3.05 1.75 -1.35 0.7 -0.9 Q0.2 -0.65 -0.5 -0.55 L-1.35 -0.5 -2.3 -0.3 Q-2.9 -0.3 -3.45 -0.6 L-4.65 -1.05 -6.95 -1.35 Q-9.05 -3.6 -8.3 -6.55 L-8.15 -7.4 -8.2 -8.2 -8.2 -8.3 -7.8 -8.4 -7.7 -8.4 -7.65 -8.45 -7.65 -8.4 -7.6 -8.45 -7.65 -6.3 Q-7.35 -3.6 -4.8 -1.9 -0.4 -1.2 3.0 -5.35" fill="#6aac86" fill-rule="evenodd" stroke="none"/>
    <path d="M2.95 -5.35 L3.0 -5.35 2.95 -5.35" fill="#b48f87" fill-rule="evenodd" stroke="none"/>
    <path d="M-7.65 -8.45 L-7.6 -8.45 -7.65 -8.4 -7.65 -8.45" fill="#c1a49d" fill-rule="evenodd" stroke="none"/>
    <path d="M5.4 -6.4 L4.9 -6.6 M-8.2 -8.3 L-7.8 -8.4 -7.7 -8.4 -7.65 -8.45 -7.6 -8.45 -7.65 -8.4 -7.65 -8.45" fill="none" stroke="#30543c" stroke-linecap="round" stroke-linejoin="round" stroke-width="0.05"/>
    <path d="M2.15 -11.5 L2.55 -11.45 Q4.3 -11.2 4.3 -10.7 L4.2 -10.4 3.7 -9.5 2.5 -8.15 2.45 -8.15 2.45 -8.1 2.4 -8.05 Q2.0 -8.55 2.15 -11.5 M-7.45 -9.95 Q-7.45 -10.45 -5.75 -10.9 L-5.05 -11.05 -5.15 -9.15 -5.2 -8.75 -7.25 -8.25 -7.4 -9.4 -7.45 -9.9 -7.45 -9.95" fill="#2f553f" fill-rule="evenodd" stroke="none"/>
    <path d="M4.3 -10.7 Q5.25 -8.8 5.1 -7.15 L5.05 -6.7 4.95 -6.65 4.9 -6.6 2.95 -5.35 3.0 -5.3 Q-0.4 -1.2 -4.8 -1.9 L-5.6 -2.2 Q-7.8 -3.75 -7.85 -6.3 L-7.6 -8.35 -7.6 -8.55 Q-7.8 -9.1 -7.6 -9.6 L-7.45 -9.95 -7.45 -9.9 -7.4 -9.4 -7.3 -8.25 -7.25 -8.25 -6.75 -6.4 Q-6.1 -4.5 -4.75 -2.85 -2.5 -4.05 0.3 -6.25 L1.1 -6.9 2.4 -8.05 2.45 -8.1 2.5 -8.15 3.7 -9.5 4.2 -10.4 4.3 -10.7" fill="#47815f" fill-rule="evenodd" stroke="none"/>
    <path d="M2.45 -8.1 L2.4 -8.05 2.45 -8.1 M-7.4 -9.4 L-7.25 -8.25 -7.3 -8.25 -7.4 -9.4" fill="#674743" fill-rule="evenodd" stroke="none"/>
    <path d="M2.95 -5.35 L3.0 -5.35 3.0 -5.3 2.95 -5.35" fill="#c1a49d" fill-rule="evenodd" stroke="none"/>
    <path d="M2.15 -11.5 L2.55 -11.45 Q4.3 -11.2 4.3 -10.7 5.25 -8.8 5.1 -7.15 L5.05 -6.7 4.95 -6.65 4.9 -6.6 2.95 -5.35 M3.0 -5.35 L3.0 -5.3 Q-0.4 -1.2 -4.8 -1.9 L-5.6 -2.2 Q-7.8 -3.75 -7.85 -6.3 L-7.6 -8.35 -7.6 -8.55 Q-7.8 -9.1 -7.6 -9.6 L-7.45 -9.95 Q-7.45 -10.45 -5.75 -10.9 L-5.05 -11.05 M-4.75 -2.85 Q-2.5 -4.05 0.3 -6.25 L1.1 -6.9 2.4 -8.05 2.45 -8.1 2.5 -8.15 3.7 -9.5 4.2 -10.4 4.3 -10.7" fill="none" stroke="#30543c" stroke-linecap="round" stroke-linejoin="round" stroke-width="0.05"/>
    <path d="M-7.25 -8.25 L-6.75 -6.4 Q-6.1 -4.5 -4.75 -2.85 M-7.45 -9.95 L-7.45 -9.9 -7.4 -9.4 -7.25 -8.25" fill="none" stroke="#30543c" stroke-linecap="round" stroke-linejoin="round" stroke-width="0.05"/>
  </g>
</svg>
