<?xml version="1.0" encoding="UTF-8" standalone="no"?>
<svg xmlns:xlink="http://www.w3.org/1999/xlink" height="4.85px" width="12.2px" xmlns="http://www.w3.org/2000/svg">
  <g transform="matrix(1.0, 0.0, 0.0, 1.0, 4.15, 2.5)">
    <path d="M2.0 -1.7 L2.2 -1.55 2.85 -0.75 3.0 -0.3 Q3.05 0.2 2.5 0.65 L2.5 0.7 2.15 0.95 Q0.35 2.0 -3.45 1.35 -4.25 0.7 -4.15 -0.1 -4.1 -1.1 -2.85 -1.65 -1.65 -2.25 0.0 -2.15 L2.0 -1.7" fill="#ffffff" fill-rule="evenodd" stroke="none"/>
    <path d="M2.35 -1.55 L2.2 -1.55 2.35 -1.55 2.75 -1.3 3.15 -1.0 2.75 -1.3 2.35 -1.55 Q5.1 -1.6 7.25 -2.5 8.95 -0.35 7.1 1.85 L1.7 2.2 1.15 2.3 -0.45 2.35 Q-2.1 2.25 -3.15 1.55 L-3.45 1.35 Q0.35 2.0 2.15 0.95 L2.5 0.7 2.5 0.65 Q3.05 0.2 3.0 -0.3 L2.85 -0.75 2.2 -1.55 2.0 -1.7 2.35 -1.55 M3.65 1.05 L3.25 1.45 2.15 2.05 1.7 2.2 2.15 2.05 3.25 1.45 3.65 1.05" fill="#e7e7e7" fill-rule="evenodd" stroke="none"/>
    <path d="M2.2 -1.55 L2.35 -1.55 2.0 -1.7 0.0 -2.15 Q-1.65 -2.25 -2.85 -1.65 -4.1 -1.1 -4.15 -0.1 -4.25 0.7 -3.45 1.35 L-3.15 1.55 Q-2.1 2.25 -0.45 2.35 L1.15 2.3 1.7 2.2 2.15 2.05 3.25 1.45 3.65 1.05 M2.35 -1.55 L2.75 -1.3 3.15 -1.0 M2.35 -1.55 Q5.1 -1.6 7.25 -2.5 8.95 -0.35 7.1 1.85 L1.7 2.2" fill="none" stroke="#cccccc" stroke-linecap="round" stroke-linejoin="round" stroke-width="0.05"/>
  </g>
</svg>
