<?xml version="1.0" encoding="UTF-8" standalone="no"?>
<svg xmlns:xlink="http://www.w3.org/1999/xlink" height="53.55px" width="31.6px" xmlns="http://www.w3.org/2000/svg">
  <g transform="matrix(1.0, 0.0, 0.0, 1.0, 15.8, 26.75)">
    <path d="M-12.75 -19.55 L-11.4 -26.75 Q-4.65 -22.8 2.75 -23.7 2.05 1.95 -5.35 3.35 L-6.2 3.4 Q-14.75 1.6 -12.75 -19.55" fill="#38c03f" fill-rule="evenodd" stroke="none"/>
    <path d="M2.75 -23.7 L4.2 -23.9 Q4.15 2.3 -5.35 3.35 2.05 1.95 2.75 -23.7" fill="#2f992f" fill-rule="evenodd" stroke="none"/>
    <path d="M6.75 -24.55 L8.05 -24.95 8.6 -25.15 Q14.35 -1.9 15.8 22.3 12.6 24.2 9.35 25.3 11.25 4.85 6.75 -24.55" fill="#bfa399" fill-rule="evenodd" stroke="none"/>
    <path d="M4.2 -23.9 L6.15 -24.35 6.75 -24.55 Q11.25 4.85 9.35 25.3 -2.85 29.35 -15.8 22.3 -16.05 0.05 -12.75 -19.55 -14.75 1.6 -6.2 3.4 L-5.35 3.35 Q4.15 2.3 4.2 -23.9" fill="#e8dfda" fill-rule="evenodd" stroke="none"/>
    <path d="M4.2 -23.9 L6.15 -24.35 6.75 -24.55 8.05 -24.95 8.6 -25.15 Q14.35 -1.9 15.8 22.3 12.6 24.2 9.35 25.3 -2.85 29.35 -15.8 22.3 -16.05 0.05 -12.75 -19.55" fill="none" stroke="#4f4535" stroke-linecap="round" stroke-linejoin="round" stroke-width="0.05"/>
    <path d="M2.75 -23.7 L4.2 -23.9 Q4.15 2.3 -5.35 3.35 L-6.2 3.4 Q-14.75 1.6 -12.75 -19.55 L-11.4 -26.75 Q-4.65 -22.8 2.75 -23.7" fill="none" stroke="#426123" stroke-linecap="round" stroke-linejoin="round" stroke-width="0.05"/>
  </g>
</svg>
