<?xml version="1.0" encoding="UTF-8" standalone="no"?>
<svg xmlns:xlink="http://www.w3.org/1999/xlink" height="21.1px" width="21.15px" xmlns="http://www.w3.org/2000/svg">
  <g transform="matrix(1.0, 0.0, 0.0, 1.0, 7.35, 13.7)">
    <path d="M0.25 1.15 Q1.6 -0.5 3.45 0.75 2.05 0.3 0.25 1.15 M-3.3 -1.05 Q-1.85 -1.35 -1.6 0.45 -2.4 -0.9 -3.3 -1.05" fill="#9b5e5e" fill-rule="evenodd" stroke="none"/>
    <path d="M0.25 1.15 Q2.05 0.3 3.45 0.75 1.6 -0.5 0.25 1.15 M-3.3 -1.05 Q-1.85 -1.35 -1.6 0.45 -2.4 -0.9 -3.3 -1.05" fill="none" stroke="#4b2e2e" stroke-linecap="round" stroke-linejoin="round" stroke-width="0.05"/>
    <path d="M1.85 -9.8 Q4.25 -10.65 6.9 -10.6 L8.2 -10.5 7.75 -10.25 7.4 -10.0 6.6 -9.1 Q10.9 -8.55 13.8 -5.3 L12.95 -5.15 12.2 -4.75 8.25 -7.1 7.0 -7.7 6.6 -7.6 4.6 -8.95 3.8 -9.15 3.25 -8.7 2.5 -8.6 1.85 -9.8 M11.3 -3.4 L13.1 1.05 12.7 0.75 12.2 0.05 Q11.2 -1.45 11.3 -3.4 M-5.65 -5.0 L-7.35 -5.8 Q-5.35 -7.0 -2.8 -6.45 L-2.75 -6.45 -2.2 -5.2 -5.65 -5.0 M-4.25 -8.0 L-6.0 -8.9 Q-3.9 -9.6 -1.65 -9.35 L-1.0 -10.8 1.15 -13.7 1.05 -11.9 Q-0.35 -10.65 -0.35 -8.55 L-0.3 -8.05 -4.25 -8.0" fill="#a39174" fill-rule="evenodd" stroke="none"/>
    <path d="M-2.8 -6.45 L-2.75 -6.45 -2.8 -6.45" fill="#edf7a6" fill-rule="evenodd" stroke="none"/>
    <path d="M12.2 -4.75 L11.55 -3.95 11.35 -3.75 11.4 -3.75 11.3 -3.65 11.35 -3.65 11.3 -3.4 Q11.2 -1.45 12.2 0.05 L12.7 0.75 11.25 0.05 Q11.3 1.1 10.95 2.0 L10.3 3.5 9.7 1.1 8.7 3.6 8.3 4.1 7.9 4.55 8.35 3.05 8.2 1.65 Q7.85 0.95 6.65 2.1 6.2 5.2 6.25 5.8 5.5 2.8 4.25 1.85 4.9 1.05 5.15 0.0 5.4 -1.05 4.3 -2.25 3.2 -3.5 2.1 -3.15 0.95 -2.85 -1.0 -1.6 -2.6 -3.5 -3.4 -1.95 L-3.85 -3.2 Q-4.45 -4.45 -5.65 -5.0 L-2.2 -5.2 -2.75 -6.45 -3.25 -7.15 -4.25 -8.0 -0.3 -8.05 -0.35 -8.55 Q-0.35 -10.65 1.05 -11.9 L1.85 -9.8 2.5 -8.6 3.25 -8.7 3.8 -9.15 4.6 -8.95 6.6 -7.6 7.0 -7.7 8.25 -7.1 12.2 -4.75 M3.6 6.9 L1.45 7.35 Q0.8 7.15 -0.15 6.6 -1.1 6.05 -1.95 6.4 -2.8 6.7 -3.65 6.05 L-2.75 5.75 Q-2.65 5.3 -2.15 5.15 L-0.4 5.1 Q0.65 5.3 1.4 5.9 L2.1 6.4 Q2.5 6.85 3.6 6.9" fill="#817354" fill-rule="evenodd" stroke="none"/>
    <path d="M3.6 6.9 L1.45 7.35 Q0.8 7.15 -0.15 6.6 -1.1 6.05 -1.95 6.4 -2.8 6.7 -3.65 6.05" fill="none" stroke="#4b2e2e" stroke-linecap="round" stroke-linejoin="round" stroke-width="0.05"/>
    <path d="M1.85 -9.8 Q4.25 -10.65 6.9 -10.6 L8.2 -10.5 7.75 -10.25 7.4 -10.0 6.6 -9.1 Q10.9 -8.55 13.8 -5.3 L12.95 -5.15 12.2 -4.75 11.55 -3.95 11.4 -3.75 11.3 -3.65 M11.35 -3.65 L11.3 -3.4 13.1 1.05 12.7 0.75 11.25 0.05 Q11.3 1.1 10.95 2.0 L10.3 3.5 9.7 1.1 8.7 3.6 8.3 4.1 7.9 4.55 8.35 3.05 8.2 1.65 Q7.85 0.95 6.65 2.1 M-3.4 -1.95 L-3.85 -3.2 Q-4.45 -4.45 -5.65 -5.0 L-7.35 -5.8 Q-5.35 -7.0 -2.8 -6.45 L-2.75 -6.45 -3.25 -7.15 -4.25 -8.0 -6.0 -8.9 Q-3.9 -9.6 -1.65 -9.35 L-1.0 -10.8 1.15 -13.7 1.05 -11.9 1.85 -9.8 M11.35 -3.75 L11.55 -3.95" fill="none" stroke="#4f4535" stroke-linecap="round" stroke-linejoin="round" stroke-width="0.05"/>
    <path d="M6.65 2.1 Q6.2 5.2 6.25 5.8 5.5 2.8 4.25 1.85 4.9 1.05 5.15 0.0 5.4 -1.05 4.3 -2.25 3.2 -3.5 2.1 -3.15 0.95 -2.85 -1.0 -1.6 -2.6 -3.5 -3.4 -1.95" fill="none" stroke="#4f4535" stroke-linecap="round" stroke-linejoin="round" stroke-width="0.05"/>
  </g>
</svg>
