<?xml version="1.0" encoding="UTF-8" standalone="no"?>
<svg xmlns:xlink="http://www.w3.org/1999/xlink" height="56.9px" width="21.3px" xmlns="http://www.w3.org/2000/svg">
  <g transform="matrix(1.0, 0.0, 0.0, 1.0, 28.45, 46.9)">
    <path d="M-13.35 -37.6 Q-12.35 -39.5 -12.4 -39.9 -10.5 -40.6 -8.95 -39.05 -7.4 -37.55 -7.4 -31.85 -8.25 -36.3 -9.2 -37.7 L-13.35 -37.6" fill="#8e8e95" fill-rule="evenodd" stroke="none"/>
    <path d="M-7.4 -31.85 Q-7.4 -37.55 -8.95 -39.05 -10.5 -40.6 -12.4 -39.9 L-12.5 -42.6 -12.15 -44.4 Q-10.45 -44.1 -8.5 -42.45 -6.6 -40.8 -7.4 -31.85" fill="#a09fa8" fill-rule="evenodd" stroke="none"/>
    <path d="M-13.35 -37.6 L-9.2 -37.7 Q-8.25 -36.3 -7.4 -31.85 -7.4 -37.55 -8.95 -39.05 -10.5 -40.6 -12.4 -39.9 M-12.15 -44.4 Q-10.45 -44.1 -8.5 -42.45 -6.6 -40.8 -7.4 -31.85" fill="none" stroke="#666666" stroke-linecap="round" stroke-linejoin="round" stroke-width="0.05"/>
    <path d="M-14.7 -44.85 L-14.7 -46.55 -13.7 -46.9 -13.3 -46.9 Q-13.35 -45.8 -13.8 -44.85 L-14.7 -44.85 M-13.1 9.95 L-13.15 9.95 -13.95 9.15 -14.65 -2.55 Q-15.2 -16.4 -14.7 -31.5 L-13.7 -31.5 Q-14.0 -16.55 -13.1 -5.3 -12.4 2.75 -11.2 8.9 -12.2 9.7 -12.95 9.95 L-13.1 9.95" fill="#9f8c6f" fill-rule="evenodd" stroke="none"/>
    <path d="M-28.45 -30.75 Q-22.4 -42.75 -16.7 -44.35 L-15.65 -44.5 -15.4 -44.55 -13.95 -44.55 -13.95 -38.45 Q-14.9 -39.45 -16.2 -39.95 -17.5 -40.45 -20.45 -39.4 -23.35 -38.3 -28.45 -30.75" fill="#a09fa8" fill-rule="evenodd" stroke="none"/>
    <path d="M-14.7 -31.5 L-15.4 -31.5 -15.4 -36.85 -13.95 -38.45 -13.95 -44.55 -15.4 -44.55 -15.4 -44.85 -14.7 -44.85 -13.8 -44.85 -13.35 -44.85 -13.35 -31.5 -13.7 -31.5 -14.7 -31.5" fill="#97979d" fill-rule="evenodd" stroke="none"/>
    <path d="M-13.3 -46.9 L-12.5 -46.7 Q-12.5 -46.0 -12.85 -44.85 L-13.35 -44.85 -13.8 -44.85 Q-13.35 -45.8 -13.3 -46.9 M-12.85 -31.5 Q-13.1 -17.45 -12.3 -6.6 -11.7 1.9 -10.4 8.4 L-10.3 8.9 -11.0 9.35 Q-12.3 10.2 -13.1 9.95 L-12.95 9.95 Q-12.2 9.7 -11.2 8.9 -12.4 2.75 -13.1 -5.3 -14.0 -16.55 -13.7 -31.5 L-13.35 -31.5 -12.85 -31.5" fill="#786850" fill-rule="evenodd" stroke="none"/>
    <path d="M-12.85 -44.85 L-12.15 -44.85 -12.15 -31.5 -12.85 -31.5 -13.35 -31.5 -13.35 -44.85 -12.85 -44.85" fill="#7d7d86" fill-rule="evenodd" stroke="none"/>
    <path d="M-15.4 -36.85 Q-18.8 -42.35 -28.45 -30.75 -23.35 -38.3 -20.45 -39.4 -17.5 -40.45 -16.2 -39.95 -14.9 -39.45 -13.95 -38.45 L-15.4 -36.85" fill="#8e8e95" fill-rule="evenodd" stroke="none"/>
    <path d="M-14.7 -44.85 L-14.7 -46.55 -13.7 -46.9 -13.3 -46.9 -12.5 -46.7 Q-12.5 -46.0 -12.85 -44.85 M-12.85 -31.5 Q-13.1 -17.45 -12.3 -6.6 -11.7 1.9 -10.4 8.4 L-10.3 8.9 -11.0 9.35 Q-12.3 10.2 -13.1 9.95 L-13.15 9.95 -13.95 9.15 -14.65 -2.55 Q-15.2 -16.4 -14.7 -31.5" fill="none" stroke="#453a2e" stroke-linecap="round" stroke-linejoin="round" stroke-width="0.05"/>
    <path d="M-12.85 -44.85 L-12.15 -44.85 -12.15 -31.5 -12.85 -31.5 -13.35 -31.5 -13.7 -31.5 -14.7 -31.5 -15.4 -31.5 -15.4 -36.85 Q-18.8 -42.35 -28.45 -30.75 -22.4 -42.75 -16.7 -44.35 L-15.65 -44.5 -15.4 -44.55 -15.4 -44.85 -14.7 -44.85 -13.8 -44.85 -13.35 -44.85 -12.85 -44.85 M-13.95 -38.45 L-13.95 -44.55 -15.4 -44.55 M-15.4 -36.85 L-13.95 -38.45 Q-14.9 -39.45 -16.2 -39.95 -17.5 -40.45 -20.45 -39.4 -23.35 -38.3 -28.45 -30.75" fill="none" stroke="#666666" stroke-linecap="round" stroke-linejoin="round" stroke-width="0.05"/>
  </g>
</svg>
