<?xml version="1.0" encoding="UTF-8" standalone="no"?>
<svg xmlns:xlink="http://www.w3.org/1999/xlink" height="30.45px" width="81.35px" xmlns="http://www.w3.org/2000/svg">
  <g transform="matrix(1.0, 0.0, 0.0, 1.0, 40.7, 10.35)">
    <path d="M37.05 12.95 Q36.65 15.35 34.3 18.15 31.9 20.9 19.1 19.75 27.25 19.7 29.45 17.5 31.6 15.3 30.7 12.6 L34.45 12.45 37.05 12.95" fill="#a09fa8" fill-rule="evenodd" stroke="none"/>
    <path d="M30.7 12.6 Q31.6 15.3 29.45 17.5 27.25 19.7 19.1 19.75 25.45 18.5 27.5 17.15 29.55 15.8 27.35 11.25 30.05 12.65 30.7 12.6" fill="#8e8e95" fill-rule="evenodd" stroke="none"/>
    <path d="M19.1 19.75 Q31.9 20.9 34.3 18.15 36.65 15.35 37.05 12.95 M30.7 12.6 Q31.6 15.3 29.45 17.5 27.25 19.7 19.1 19.75 25.45 18.5 27.5 17.15 29.55 15.8 27.35 11.25" fill="none" stroke="#666666" stroke-linecap="round" stroke-linejoin="round" stroke-width="0.05"/>
    <path d="M37.7 9.3 L40.15 9.3 40.65 10.7 40.65 11.3 Q39.1 11.25 37.7 10.55 L37.7 9.3 M-40.6 11.6 L-40.55 11.5 Q-40.3 10.8 -39.4 10.35 L-22.75 9.35 Q-2.95 8.55 18.65 9.3 L18.65 10.7 Q-2.7 10.3 -18.8 11.6 -30.3 12.55 -39.1 14.3 -40.25 12.85 -40.55 11.8 L-40.6 11.6" fill="#9f8c6f" fill-rule="evenodd" stroke="none"/>
    <path d="M17.6 -10.35 Q34.75 -1.75 37.0 6.45 L37.25 7.95 37.3 8.3 37.3 10.35 28.6 10.35 Q30.0 9.0 30.7 7.15 31.4 5.3 29.9 1.1 28.35 -3.1 17.6 -10.35" fill="#a09fa8" fill-rule="evenodd" stroke="none"/>
    <path d="M18.65 9.3 L18.65 8.3 26.3 8.3 28.55 10.35 28.6 10.35 37.3 10.35 37.3 8.3 37.7 8.3 37.7 9.3 37.7 10.55 37.7 11.25 18.65 11.25 18.65 10.7 18.65 9.3" fill="#97979d" fill-rule="evenodd" stroke="none"/>
    <path d="M40.65 11.3 L40.35 12.45 37.7 11.95 37.7 11.25 37.7 10.55 Q39.1 11.25 40.65 11.3 M18.65 11.95 Q-1.45 11.6 -16.9 12.7 -29.1 13.6 -38.35 15.4 L-39.1 15.55 -39.75 14.6 Q-40.95 12.75 -40.6 11.6 L-40.55 11.8 Q-40.25 12.85 -39.1 14.3 -30.3 12.55 -18.8 11.6 -2.7 10.3 18.65 10.7 L18.65 11.25 18.65 11.95" fill="#786850" fill-rule="evenodd" stroke="none"/>
    <path d="M37.7 11.95 L37.7 12.95 18.65 12.95 18.65 11.95 18.65 11.25 37.7 11.25 37.7 11.95" fill="#7d7d86" fill-rule="evenodd" stroke="none"/>
    <path d="M26.3 8.3 Q34.15 3.4 17.6 -10.35 28.35 -3.1 29.9 1.1 31.4 5.3 30.7 7.15 30.0 9.0 28.6 10.35 L28.55 10.35 26.3 8.3" fill="#8e8e95" fill-rule="evenodd" stroke="none"/>
    <path d="M37.7 9.3 L40.15 9.3 40.65 10.7 40.65 11.3 40.35 12.45 37.7 11.95 M18.65 11.95 Q-1.45 11.6 -16.9 12.7 -29.1 13.6 -38.35 15.4 L-39.1 15.55 -39.75 14.6 Q-40.95 12.75 -40.6 11.6 L-40.55 11.5 Q-40.3 10.8 -39.4 10.35 L-22.75 9.35 Q-2.95 8.55 18.65 9.3" fill="none" stroke="#453a2e" stroke-linecap="round" stroke-linejoin="round" stroke-width="0.05"/>
    <path d="M37.7 11.95 L37.7 12.95 18.65 12.95 18.65 11.95 18.65 11.25 18.65 10.7 18.65 9.3 18.65 8.3 26.3 8.3 Q34.15 3.4 17.6 -10.35 34.75 -1.75 37.0 6.45 L37.25 7.95 37.3 8.3 37.7 8.3 37.7 9.3 37.7 10.55 37.7 11.25 37.7 11.95 M37.3 8.3 L37.3 10.35 28.6 10.35 28.55 10.35 26.3 8.3 M28.6 10.35 Q30.0 9.0 30.7 7.15 31.4 5.3 29.9 1.1 28.35 -3.1 17.6 -10.35" fill="none" stroke="#666666" stroke-linecap="round" stroke-linejoin="round" stroke-width="0.05"/>
  </g>
</svg>
