<?xml version="1.0" encoding="UTF-8" standalone="no"?>
<svg xmlns:xlink="http://www.w3.org/1999/xlink" height="6.2px" width="11.8px" xmlns="http://www.w3.org/2000/svg">
  <g transform="matrix(1.0, 0.0, 0.0, 1.0, 6.1, 2.1)">
    <path d="M1.0 -1.9 L4.85 -1.65 Q4.8 -0.05 5.6 1.4 5.9 2.3 5.25 3.2 4.55 3.8 3.15 3.7 L-1.4 4.0 Q-6.2 4.5 -6.1 2.35 -4.7 0.45 -2.3 -0.15 0.1 -0.7 1.0 -1.9" fill="#223543" fill-rule="evenodd" stroke="none"/>
    <path d="M4.85 -1.65 Q4.8 -0.05 5.6 1.4 5.9 2.3 5.25 3.2 4.55 3.8 3.15 3.7 L-1.4 4.0 Q-6.2 4.5 -6.1 2.35 -4.7 0.45 -2.3 -0.15 0.1 -0.7 1.0 -1.9" fill="none" stroke="#152c33" stroke-linecap="round" stroke-linejoin="round" stroke-width="0.05"/>
  </g>
</svg>
