<?xml version="1.0" encoding="UTF-8" standalone="no"?>
<svg xmlns:xlink="http://www.w3.org/1999/xlink" height="38.05px" width="13.5px" xmlns="http://www.w3.org/2000/svg">
  <g transform="matrix(1.0, 0.0, 0.0, 1.0, 7.95, 9.95)">
    <path d="M2.0 -5.75 Q0.5 -4.05 0.35 -2.8 -1.65 -2.05 -3.7 -1.9 L-4.75 -3.85 Q-3.95 -5.6 -2.95 -6.8 -0.4 -6.75 2.0 -5.75 M-1.85 -4.15 Q-0.75 -4.75 0.3 -4.5 -0.75 -4.75 -1.85 -4.15" fill="#eadcd1" fill-rule="evenodd" stroke="none"/>
    <path d="M2.0 -5.75 L3.3 -5.15 3.55 -4.45 1.85 -3.45 0.35 -2.8 Q0.5 -4.05 2.0 -5.75 M4.45 15.7 L2.25 16.55 2.95 14.75 2.9 14.75 2.4 14.5 2.65 14.35 3.3 14.0 4.45 15.7 M-5.7 15.15 L-5.65 14.15 -5.1 14.65 -5.7 15.15 M-4.75 7.95 L-4.7 7.55 Q-4.45 6.05 -4.85 4.05 L-5.6 0.95 Q-4.95 0.85 -3.9 -0.2 -2.4 1.85 -0.15 2.9 L-0.7 5.85 1.2 10.3 -0.7 11.55 -1.85 12.05 Q-3.9 10.55 -4.95 8.9 L-4.75 7.95 M-5.1 -4.7 L-4.15 -6.75 -2.95 -6.8 Q-3.95 -5.6 -4.75 -3.85 L-5.1 -4.7" fill="#29536c" fill-rule="evenodd" stroke="none"/>
    <path d="M0.35 -2.8 L1.85 -3.45 3.55 -4.45 Q4.05 -2.2 2.0 3.7 0.85 3.4 -0.15 2.9 -2.4 1.85 -3.9 -0.2 -4.95 0.85 -5.6 0.95 -6.0 -2.05 -5.1 -4.7 L-4.75 -3.85 -3.7 -1.9 Q-1.65 -2.05 0.35 -2.8 M5.1 12.6 L4.55 13.1 3.3 14.0 2.65 14.35 -0.7 11.55 1.2 10.3 2.85 8.95 2.8 8.8 5.1 12.6 M2.25 16.55 L0.7 18.5 -0.35 17.95 Q-1.45 23.1 -0.85 28.1 -4.95 26.85 -7.95 24.1 -7.85 19.75 -6.6 15.95 L-5.7 15.15 -5.1 14.65 -5.65 14.15 -6.55 13.25 Q-6.55 11.25 -5.35 8.25 L-4.75 7.95 -4.95 8.9 Q-3.9 10.55 -1.85 12.05 -0.1 13.35 2.4 14.5 L2.9 14.75 2.95 14.75 2.25 16.55 M-0.35 17.95 Q-3.05 16.5 -5.1 14.65 -3.05 16.5 -0.35 17.95" fill="#b1d1d0" fill-rule="evenodd" stroke="none"/>
    <path d="M2.5 8.15 L3.45 8.35 5.55 12.15 5.1 12.6 2.8 8.8 2.5 8.15 M-0.7 11.55 L2.65 14.35 2.4 14.5 Q-0.1 13.35 -1.85 12.05 L-0.7 11.55" fill="#699b98" fill-rule="evenodd" stroke="none"/>
    <path d="M2.0 3.7 L1.25 5.7 2.5 8.15 2.8 8.8 2.85 8.95 1.2 10.3 -0.7 5.85 -0.15 2.9 Q0.85 3.4 2.0 3.7 M4.55 13.1 L5.25 15.35 4.45 15.7 3.3 14.0 4.55 13.1" fill="#1b3645" fill-rule="evenodd" stroke="none"/>
    <path d="M-2.95 -6.8 Q-0.4 -6.75 2.0 -5.75" fill="none" stroke="#803f2f" stroke-linecap="round" stroke-linejoin="round" stroke-width="0.05"/>
    <path d="M3.55 -4.45 L3.3 -5.15 2.0 -5.75 Q0.5 -4.05 0.35 -2.8 M2.0 3.7 L1.25 5.7 2.5 8.15 M4.55 13.1 L5.25 15.35 M-5.7 15.15 L-5.65 14.15 M-4.75 7.95 L-4.7 7.55 Q-4.45 6.05 -4.85 4.05 L-5.6 0.95 M-5.1 -4.7 L-4.15 -6.75 -2.95 -6.8 Q-3.95 -5.6 -4.75 -3.85" fill="none" stroke="#152c33" stroke-linecap="round" stroke-linejoin="round" stroke-width="0.05"/>
    <path d="M0.35 -2.8 L1.85 -3.45 3.55 -4.45 Q4.05 -2.2 2.0 3.7 0.85 3.4 -0.15 2.9 -2.4 1.85 -3.9 -0.2 -4.95 0.85 -5.6 0.95 -6.0 -2.05 -5.1 -4.7 L-4.75 -3.85 -3.7 -1.9 Q-1.65 -2.05 0.35 -2.8 M2.5 8.15 L3.45 8.35 5.55 12.15 5.1 12.6 4.55 13.1 3.3 14.0 2.65 14.35 2.4 14.5 Q-0.1 13.35 -1.85 12.05 -3.9 10.55 -4.95 8.9 L-4.75 7.95 -5.35 8.25 Q-6.55 11.25 -6.55 13.25 L-5.65 14.15 -5.1 14.65 Q-3.05 16.5 -0.35 17.95 -1.45 23.1 -0.85 28.1 -4.95 26.85 -7.95 24.1 -7.85 19.75 -6.6 15.95 L-5.7 15.15 -5.1 14.65 M2.25 16.55 L0.7 18.5 -0.35 17.95 M2.8 8.8 L2.85 8.95 1.2 10.3 -0.7 11.55 -1.85 12.05 M2.5 8.15 L2.8 8.8 M2.4 14.5 L2.9 14.75 2.95 14.75 2.25 16.55" fill="none" stroke="#699b98" stroke-linecap="round" stroke-linejoin="round" stroke-width="0.05"/>
    <path d="M0.3 -4.5 Q-0.75 -4.75 -1.85 -4.15" fill="none" stroke="#cc924a" stroke-linecap="round" stroke-linejoin="round" stroke-width="0.05"/>
    <path d="M1.25 -6.35 L1.15 -5.4 Q-1.25 -4.55 -2.4 -5.6 L-2.3 -6.35 Q-0.25 -5.55 1.25 -6.35" fill="#eadcd1" fill-rule="evenodd" stroke="none"/>
    <path d="M-2.3 -6.35 L-2.2 -9.65 Q-0.2 -10.3 1.1 -9.6 L1.25 -6.35 Q-0.25 -5.55 -2.3 -6.35" fill="#ccbba6" fill-rule="evenodd" stroke="none"/>
    <path d="M-2.3 -6.35 L-2.2 -9.65 Q-0.2 -10.3 1.1 -9.6 L1.25 -6.35 1.15 -5.4 M-2.4 -5.6 L-2.3 -6.35 Z" fill="none" stroke="#cc924a" stroke-linecap="round" stroke-linejoin="round" stroke-width="0.05"/>
  </g>
</svg>
