<?xml version="1.0" encoding="UTF-8" standalone="no"?>
<svg xmlns:xlink="http://www.w3.org/1999/xlink" height="15.45px" width="13.55px" xmlns="http://www.w3.org/2000/svg">
  <g transform="matrix(1.0, 0.0, 0.0, 1.0, 8.8, 9.95)">
    <path d="M-8.25 0.2 Q-8.9 -1.9 -8.05 -2.6 -2.3 -1.65 -1.0 0.25 L-2.15 2.2 Q-6.15 1.3 -8.25 0.2" fill="#ffffff" fill-rule="evenodd" stroke="none"/>
    <path d="M-7.7 -1.6 L-7.75 -1.45 -7.65 -1.15 -7.45 -1.0 -7.2 -1.15 -7.15 -1.2 -7.15 -1.25 -7.1 -0.95 Q-7.1 -0.65 -7.25 -0.45 -7.35 -0.2 -7.55 -0.2 L-7.85 -0.45 -7.95 -0.95 -7.85 -1.5 -7.7 -1.6 M-2.9 0.0 L-2.85 0.4 -3.05 1.0 -3.45 1.25 -3.8 1.0 -3.95 0.3 -3.75 -0.3 -3.65 -0.4 -3.7 -0.25 -3.55 0.1 -3.25 0.3 -2.95 0.15 -2.9 0.0" fill="#000000" fill-rule="evenodd" stroke="none"/>
    <path d="M-7.15 -1.25 L-7.15 -1.2 -7.2 -1.15 -7.45 -1.0 -7.65 -1.15 -7.75 -1.45 -7.7 -1.6 -7.65 -1.75 -7.45 -1.85 -7.2 -1.75 -7.1 -1.45 -7.15 -1.25 M-3.65 -0.4 L-3.5 -0.55 -3.2 -0.65 -2.95 -0.55 -2.8 -0.2 -2.9 0.0 -2.95 0.15 -3.25 0.3 -3.55 0.1 -3.7 -0.25 -3.65 -0.4" fill="#ffffff" fill-rule="evenodd" stroke="none"/>
    <path d="M-7.7 -1.6 L-7.85 -1.5 -7.95 -0.95 -7.85 -0.45 -7.55 -0.2 Q-7.35 -0.2 -7.25 -0.45 -7.1 -0.65 -7.1 -0.95 L-7.15 -1.25 -7.1 -1.45 -7.2 -1.75 -7.45 -1.85 -7.65 -1.75 -7.7 -1.6 M-8.15 -0.95 L-7.95 -1.85 -7.55 -2.2 -7.1 -1.85 -6.9 -0.95 -7.1 -0.05 -7.55 0.35 -7.95 -0.05 -8.15 -0.95 M-2.75 -0.7 Q-2.6 -0.25 -2.6 0.4 L-2.9 1.4 Q-3.15 1.8 -3.5 1.75 L-4.0 1.35 -4.2 0.3 -3.9 -0.75 -3.3 -1.1 Q-3.0 -1.1 -2.75 -0.7 M-2.9 0.0 L-2.8 -0.2 -2.95 -0.55 -3.2 -0.65 -3.5 -0.55 -3.65 -0.4 -3.75 -0.3 -3.95 0.3 -3.8 1.0 -3.45 1.25 -3.05 1.0 -2.85 0.4 -2.9 0.0" fill="#9975a8" fill-rule="evenodd" stroke="none"/>
    <path d="M-5.7 5.45 Q-7.6 3.85 -8.3 1.75 L-8.7 -2.25 Q-9.3 -5.75 -5.7 -8.75 -4.65 -9.45 -3.5 -9.75 -1.95 -10.15 -0.2 -9.75 L0.95 -9.4 Q2.75 -8.55 3.75 -7.2 3.6 -3.3 0.3 -0.55 1.7 5.15 -5.7 5.45 M-8.3 -1.45 L-7.9 -0.05 -7.05 0.35 Q-6.65 -0.7 -7.05 -2.15 -7.85 -2.55 -8.3 -1.45 M-5.05 3.7 Q-6.0 3.75 -6.85 3.05 -6.0 3.75 -5.05 3.7 M-6.1 2.05 L-6.45 1.75 -6.1 2.05 M-3.05 1.8 Q-2.1 1.45 -1.6 0.7 -2.65 -1.3 -4.1 -0.9 -4.55 0.25 -4.25 1.35 -3.75 1.75 -3.05 1.8" fill="#eaddcd" fill-rule="evenodd" stroke="none"/>
    <path d="M3.75 -7.2 Q5.05 -5.3 4.7 -2.45 4.65 -0.65 3.4 0.75 3.45 2.1 1.8 2.65 L0.1 4.45 Q-3.4 5.65 -5.7 5.45 1.7 5.15 0.3 -0.55 3.6 -3.3 3.75 -7.2 M2.45 1.75 Q2.45 0.65 1.75 1.75 1.45 1.15 1.75 0.4 3.1 -0.95 3.35 0.6 L3.4 0.75 3.35 0.6 Q3.1 -0.95 1.75 0.4 1.45 1.15 1.75 1.75 2.45 0.65 2.45 1.75" fill="#d7bba2" fill-rule="evenodd" stroke="none"/>
    <path d="M3.75 -7.2 Q5.05 -5.3 4.7 -2.45 4.65 -0.65 3.4 0.75 3.45 2.1 1.8 2.65 L0.1 4.45 Q-3.4 5.65 -5.7 5.45 -7.6 3.85 -8.3 1.75 L-8.7 -2.25 Q-9.3 -5.75 -5.7 -8.75 -4.65 -9.45 -3.5 -9.75 -1.95 -10.15 -0.2 -9.75 L0.95 -9.4 Q2.75 -8.55 3.75 -7.2 M-6.45 1.75 L-6.1 2.05 M-6.85 3.05 Q-6.0 3.75 -5.05 3.7 M3.4 0.75 L3.35 0.6 Q3.1 -0.95 1.75 0.4 1.45 1.15 1.75 1.75 2.45 0.65 2.45 1.75" fill="none" stroke="#cc924a" stroke-linecap="round" stroke-linejoin="round" stroke-width="0.05"/>
    <path d="M-7.9 -0.05 L-7.05 0.35 M-7.05 -2.15 Q-7.85 -2.55 -8.3 -1.45 M-3.05 1.8 Q-3.75 1.75 -4.25 1.35 M-4.1 -0.9 Q-2.65 -1.3 -1.6 0.7" fill="none" stroke="#cc924a" stroke-linecap="round" stroke-linejoin="round" stroke-width="0.05"/>
  </g>
</svg>
