<?xml version="1.0" encoding="UTF-8" standalone="no"?>
<svg xmlns:xlink="http://www.w3.org/1999/xlink" height="28.75px" width="56.05px" xmlns="http://www.w3.org/2000/svg">
  <g transform="matrix(1.0, 0.0, 0.0, 1.0, 28.0, 14.35)">
    <path d="M5.3 -4.9 L6.0 -4.95 10.25 -5.1 19.3 -5.9 20.95 -6.1 27.25 -6.75 27.9 -6.65 28.05 -6.2 27.9 -5.5 Q25.85 -1.5 19.3 1.4 15.5 3.05 10.25 4.35 L5.25 5.4 5.75 7.3 Q6.05 8.1 6.5 8.7 9.4 9.1 10.5 10.1 L10.55 10.35 10.4 10.75 10.55 10.35 10.6 10.35 Q11.15 11.45 10.55 12.4 L10.5 12.35 10.5 12.45 10.0 13.05 10.4 10.75 5.75 8.95 4.75 5.9 4.7 5.8 4.75 5.9 3.55 6.1 4.5 9.35 4.75 9.45 9.5 10.85 9.45 11.35 9.4 11.35 7.8 11.85 1.2 12.5 -0.2 12.45 -5.45 11.85 -6.85 11.45 -7.1 11.35 Q-8.15 10.9 -8.2 10.4 -8.15 10.9 -7.1 11.35 L-6.85 11.45 -5.45 11.85 -0.2 12.45 1.2 12.5 7.8 11.85 9.4 11.35 9.45 11.35 9.25 13.4 7.8 13.8 1.15 14.4 -0.2 14.4 -5.45 13.8 -6.85 13.45 Q-8.2 12.95 -8.2 12.35 -8.8 11.2 -8.2 10.4 L-8.2 10.35 Q-7.75 8.75 -5.0 8.65 L-4.65 7.3 -4.4 5.3 Q-12.7 2.75 -12.05 -5.1 L-12.05 -5.15 -12.05 -5.25 -11.3 -5.55 -11.4 -6.2 Q-11.75 -8.15 -13.05 -9.6 -14.8 -11.6 -17.3 -11.55 -19.8 -11.6 -21.55 -9.6 -22.9 -8.15 -23.2 -6.2 -22.6 -6.0 -22.05 -5.45 -21.0 -4.4 -21.0 -2.95 -21.0 -2.25 -21.25 -1.65 L-21.5 -1.15 -22.05 -0.5 Q-23.05 0.55 -24.5 0.55 -25.95 0.55 -27.0 -0.5 -28.0 -1.5 -28.0 -2.95 -28.0 -4.4 -27.0 -5.45 L-26.7 -5.7 Q-26.1 -6.2 -25.35 -6.35 -24.95 -9.35 -22.95 -11.6 -20.55 -14.35 -17.1 -14.35 -13.65 -14.35 -11.2 -11.6 -8.95 -9.05 -8.8 -5.55 L-7.4 -5.35 Q-7.0 -6.8 -5.7 -8.0 -4.45 -9.1 -2.85 -9.5 L-3.1 -10.5 Q-3.1 -11.35 -2.55 -11.95 L-1.85 -12.35 -1.95 -12.8 -1.7 -13.4 -1.1 -13.65 -0.5 -13.4 -0.25 -12.8 -0.35 -12.35 0.3 -11.95 Q0.9 -11.35 0.9 -10.5 L0.65 -9.5 Q2.25 -9.1 3.5 -8.0 4.95 -6.65 5.3 -4.9 L5.4 -3.85 5.4 -3.65 5.4 -3.2 Q5.0 -2.85 3.55 -2.6 L-1.2 -2.2 -5.95 -2.6 -7.55 -3.05 -7.6 -3.8 -7.6 -3.85 -7.55 -4.55 -7.4 -5.35 -7.55 -4.55 -7.6 -3.85 -7.6 -3.8 -7.55 -3.05 -5.95 -2.6 -1.2 -2.2 3.55 -2.6 Q5.0 -2.85 5.4 -3.2 L5.4 -3.65 5.4 -3.85 5.3 -4.9 M27.55 -6.45 L27.15 -6.6 26.45 -6.55 Q26.05 -6.5 26.65 -6.3 27.2 -6.1 26.45 -5.65 25.65 -5.25 26.45 -5.4 L27.5 -5.7 27.7 -6.1 27.55 -6.45 M23.95 -4.7 L25.8 -6.0 20.0 -5.85 7.7 -4.7 8.25 -4.85 7.45 -4.65 7.4 -4.65 6.6 -3.75 Q15.95 -4.1 24.4 -5.75 L23.95 -4.7 M-2.85 -9.5 L-2.55 -9.1 Q-1.95 -8.5 -1.1 -8.5 -0.25 -8.5 0.3 -9.1 L0.65 -9.5 0.3 -9.1 Q-0.25 -8.5 -1.1 -8.5 -1.95 -8.5 -2.55 -9.1 L-2.85 -9.5 M-1.85 -12.35 L-1.7 -12.2 Q-1.45 -11.95 -1.1 -11.95 -0.75 -11.95 -0.5 -12.2 L-0.35 -12.35 -0.5 -12.2 Q-0.75 -11.95 -1.1 -11.95 -1.45 -11.95 -1.7 -12.2 L-1.85 -12.35 M0.4 -10.7 L0.2 -11.3 -0.35 -11.55 -0.9 -11.3 -1.15 -10.7 -0.9 -10.1 -0.35 -9.8 Q-0.05 -9.85 0.2 -10.1 L0.4 -10.7 M-11.25 -4.85 L-11.3 -5.55 -11.25 -4.85 Q-10.0 -3.95 -8.75 -4.65 L-8.75 -4.95 -8.8 -5.55 -8.75 -4.95 -8.75 -4.65 Q-10.0 -3.95 -11.25 -4.85 M-12.05 -5.25 Q-12.05 -4.55 -10.35 -3.5 -8.7 -2.45 -6.3 -1.95 L0.05 -1.4 7.25 -1.6 10.25 -1.95 18.4 -3.2 19.3 -3.35 Q26.45 -4.55 27.9 -5.5 26.45 -4.55 19.3 -3.35 L18.4 -3.2 10.25 -1.95 7.25 -1.6 0.05 -1.4 -6.3 -1.95 Q-8.7 -2.45 -10.35 -3.5 -12.05 -4.55 -12.05 -5.25 M-4.6 9.1 L4.75 9.45 -4.6 9.1 M1.55 -8.6 Q1.0 -8.6 0.95 -7.95 0.85 -7.35 1.35 -6.45 1.85 -5.55 2.6 -4.9 3.35 -4.25 3.9 -4.25 4.45 -4.25 4.5 -4.9 4.6 -5.55 4.1 -6.45 L2.9 -7.95 Q2.1 -8.6 1.55 -8.6 M5.25 5.4 Q0.6 6.4 -4.4 5.3 0.6 6.4 5.25 5.4 M-23.9 -4.75 Q-24.3 -4.3 -24.3 -3.65 -24.3 -3.05 -23.9 -2.6 -23.5 -2.15 -22.95 -2.1 -22.4 -2.15 -21.95 -2.6 -21.55 -3.05 -21.55 -3.65 -21.55 -4.3 -21.95 -4.75 -22.4 -5.2 -22.95 -5.2 -23.5 -5.2 -23.9 -4.75 M-25.35 -6.35 Q-24.75 -5.3 -23.2 -6.2 -24.75 -5.3 -25.35 -6.35" fill="#ffde59" fill-rule="evenodd" stroke="none"/>
    <path d="M27.55 -6.45 L27.7 -6.1 27.5 -5.7 26.45 -5.4 Q25.65 -5.25 26.45 -5.65 27.2 -6.1 26.65 -6.3 26.05 -6.5 26.45 -6.55 L27.15 -6.6 27.55 -6.45" fill="#333333" fill-rule="evenodd" stroke="none"/>
    <path d="M10.0 13.05 L9.25 13.4 9.45 11.35 9.5 10.85 4.75 9.45 4.5 9.35 3.55 6.1 4.75 5.9 4.7 5.8 4.75 5.9 5.75 8.95 10.4 10.75 10.0 13.05 M23.95 -4.7 L24.4 -5.75 Q15.95 -4.1 6.6 -3.75 L7.4 -4.65 7.45 -4.65 8.25 -4.85 7.7 -4.7 20.0 -5.85 25.8 -6.0 23.95 -4.7 M0.4 -10.7 L0.2 -10.1 Q-0.05 -9.85 -0.35 -9.8 L-0.9 -10.1 -1.15 -10.7 -0.9 -11.3 -0.35 -11.55 0.2 -11.3 0.4 -10.7 M1.55 -8.6 Q2.1 -8.6 2.9 -7.95 L4.1 -6.45 Q4.6 -5.55 4.5 -4.9 4.45 -4.25 3.9 -4.25 3.35 -4.25 2.6 -4.9 1.85 -5.55 1.35 -6.45 0.85 -7.35 0.95 -7.95 1.0 -8.6 1.55 -8.6 M4.75 9.45 L5.75 8.95 4.75 9.45 M10.4 10.75 L9.45 11.35 10.4 10.75 M-23.9 -4.75 Q-23.5 -5.2 -22.95 -5.2 -22.4 -5.2 -21.95 -4.75 -21.55 -4.3 -21.55 -3.65 -21.55 -3.05 -21.95 -2.6 -22.4 -2.15 -22.95 -2.1 -23.5 -2.15 -23.9 -2.6 -24.3 -3.05 -24.3 -3.65 -24.3 -4.3 -23.9 -4.75" fill="#fff3ce" fill-rule="evenodd" stroke="none"/>
    <path d="M10.6 10.3 L10.6 10.35 10.55 10.35 10.6 10.3" fill="#cc6699" fill-rule="evenodd" stroke="none"/>
    <path d="M5.3 -4.9 L6.0 -4.95 10.25 -5.1 19.3 -5.9 20.95 -6.1 27.25 -6.75 27.9 -6.65 28.05 -6.2 27.9 -5.5 Q25.85 -1.5 19.3 1.4 15.5 3.05 10.25 4.35 L5.25 5.4 5.75 7.3 Q6.05 8.1 6.5 8.7 9.4 9.1 10.5 10.1 L10.6 10.3 10.6 10.35 Q11.15 11.45 10.55 12.4 L10.5 12.45 10.0 13.05 9.25 13.4 7.8 13.8 1.15 14.4 -0.2 14.4 -5.45 13.8 -6.85 13.45 Q-8.2 12.95 -8.2 12.35 -8.8 11.2 -8.2 10.4 L-8.2 10.35 Q-7.75 8.75 -5.0 8.65 L-4.65 7.3 -4.4 5.3 Q-12.7 2.75 -12.05 -5.1 M-11.3 -5.55 L-11.4 -6.2 Q-11.75 -8.15 -13.05 -9.6 -14.8 -11.6 -17.3 -11.55 -19.8 -11.6 -21.55 -9.6 -22.9 -8.15 -23.2 -6.2 -22.6 -6.0 -22.05 -5.45 -21.0 -4.4 -21.0 -2.95 -21.0 -2.25 -21.25 -1.65 L-21.5 -1.15 -22.05 -0.5 Q-23.05 0.55 -24.5 0.55 -25.95 0.55 -27.0 -0.5 -28.0 -1.5 -28.0 -2.95 -28.0 -4.4 -27.0 -5.45 L-26.7 -5.7 Q-26.1 -6.2 -25.35 -6.35 -24.95 -9.35 -22.95 -11.6 -20.55 -14.35 -17.1 -14.35 -13.65 -14.35 -11.2 -11.6 -8.95 -9.05 -8.8 -5.55 L-7.4 -5.35 M-8.75 -4.65 L-8.75 -4.95 -8.8 -5.55 M27.9 -5.5 Q26.45 -4.55 19.3 -3.35 L18.4 -3.2 10.25 -1.95 7.25 -1.6 0.05 -1.4 -6.3 -1.95 Q-8.7 -2.45 -10.35 -3.5 -12.05 -4.55 -12.05 -5.25 M-11.3 -5.55 L-11.25 -4.85 M-8.2 10.4 L-8.2 10.35 M-8.2 10.4 Q-8.15 10.9 -7.1 11.35 L-6.85 11.45 -5.45 11.85 -0.2 12.45 1.2 12.5 7.8 11.85 9.4 11.35 9.45 11.35 10.4 10.75 10.55 10.35 10.5 10.1 M10.5 12.45 L10.5 12.35 M-4.4 5.3 Q0.6 6.4 5.25 5.4 M-23.2 -6.2 Q-24.75 -5.3 -25.35 -6.35" fill="none" stroke="#ffcc00" stroke-linecap="round" stroke-linejoin="round" stroke-width="0.05"/>
    <path d="M-12.05 -5.1 L-12.05 -5.15 -12.05 -5.25 -11.3 -5.55 M-7.4 -5.35 Q-7.0 -6.8 -5.7 -8.0 -4.45 -9.1 -2.85 -9.5 L-3.1 -10.5 Q-3.1 -11.35 -2.55 -11.95 L-1.85 -12.35 -1.95 -12.8 -1.7 -13.4 -1.1 -13.65 -0.5 -13.4 -0.25 -12.8 -0.35 -12.35 0.3 -11.95 Q0.9 -11.35 0.9 -10.5 L0.65 -9.5 Q2.25 -9.1 3.5 -8.0 4.95 -6.65 5.3 -4.9 L5.4 -3.85 5.4 -3.65 5.4 -3.2 Q5.0 -2.85 3.55 -2.6 L-1.2 -2.2 -5.95 -2.6 -7.55 -3.05 -7.6 -3.8 -7.6 -3.85 -7.55 -4.55 -7.4 -5.35 M-0.35 -12.35 L-0.5 -12.2 Q-0.75 -11.95 -1.1 -11.95 -1.45 -11.95 -1.7 -12.2 L-1.85 -12.35 M0.65 -9.5 L0.3 -9.1 Q-0.25 -8.5 -1.1 -8.5 -1.95 -8.5 -2.55 -9.1 L-2.85 -9.5 M-11.25 -4.85 Q-10.0 -3.95 -8.75 -4.65 M4.75 9.45 L-4.6 9.1 M5.75 8.95 L4.75 9.45" fill="none" stroke="#ffcc00" stroke-linecap="round" stroke-linejoin="round" stroke-width="0.05"/>
  </g>
</svg>
