<?xml version="1.0" encoding="UTF-8" standalone="no"?>
<svg xmlns:xlink="http://www.w3.org/1999/xlink" height="23.2px" width="75.7px" xmlns="http://www.w3.org/2000/svg">
  <g transform="matrix(1.0, 0.0, 0.0, 1.0, 7.5, 11.9)">
    <path d="M57.9 -6.45 Q59.55 -7.5 61.8 -6.85 62.75 -6.7 63.4 -6.1 L60.55 -6.0 Q59.75 -5.55 58.95 -6.35 L57.9 -6.45 M54.6 -4.05 Q54.8 -4.5 55.7 -4.25 56.6 -4.25 57.25 -3.7 55.45 -3.9 54.45 -2.75 L52.2 -2.9 Q53.55 -3.35 54.6 -4.05 M56.2 -1.6 L59.7 -1.7 56.15 -0.65 54.45 -0.75 56.2 -1.6 M66.65 0.65 Q67.6 1.0 68.2 1.55 66.65 1.45 65.7 0.65 L65.35 0.4 66.65 0.65 M57.4 4.25 Q56.1 4.95 55.1 3.9 L54.35 3.65 Q55.75 3.1 57.5 2.85 L59.75 3.05 60.55 3.2 Q58.65 3.35 57.4 4.25 M59.15 1.3 Q60.15 0.85 61.4 0.85 61.2 1.6 60.1 1.3 59.6 1.1 59.15 1.3 M51.7 0.85 Q53.3 0.05 55.25 1.1 L56.8 1.3 52.85 1.2 Q52.15 0.75 51.7 0.85" fill="url(#gradient0)" fill-rule="evenodd" stroke="none"/>
    <path d="M9.2 10.75 Q8.85 10.65 8.8 10.85 L5.45 11.2 5.1 11.2 3.85 11.25 Q-0.85 11.2 -4.2 7.85 -7.45 4.6 -7.45 -0.05 -7.45 -4.75 -4.2 -8.1 -0.95 -11.25 3.6 -11.35 L5.1 -11.8 5.45 -11.8 5.45 -11.85 6.2 -11.7 9.2 -11.35 Q10.95 -11.1 12.6 -10.1 15.35 -8.65 18.9 -8.7 21.85 -9.0 20.25 -10.3 19.55 -10.9 18.35 -10.7 18.6 -11.25 20.9 -11.4 L23.4 -11.5 Q25.85 -11.55 28.15 -10.3 32.0 -8.45 36.3 -8.35 33.95 -8.4 32.65 -7.15 L30.9 -6.1 Q29.85 -5.65 28.45 -5.55 28.9 -6.35 27.1 -7.2 25.3 -8.1 23.9 -7.55 19.75 -6.35 23.55 -3.7 L25.1 -3.2 Q29.65 -2.65 32.9 -4.05 L33.1 -4.5 Q35.1 -3.1 38.3 -2.9 41.0 -2.95 42.75 -4.05 43.65 -4.7 43.05 -5.55 L41.2 -6.7 Q43.9 -7.15 46.65 -6.6 L49.7 -6.0 53.5 -5.55 Q51.9 -5.35 50.8 -4.6 L47.5 -3.2 Q44.8 -2.4 41.75 -2.2 L40.85 -2.05 44.65 -1.6 48.35 -1.8 Q50.45 -2.4 52.35 -0.9 52.7 -0.55 53.45 -0.4 L49.45 0.05 Q48.55 0.3 47.9 0.65 L45.3 1.1 Q46.65 0.15 44.8 0.15 42.9 -0.05 42.25 0.75 40.95 1.95 38.65 2.4 41.2 3.2 43.8 2.4 45.65 1.8 47.5 2.95 L49.45 3.65 Q47.3 3.7 46.1 4.95 44.45 6.25 41.75 6.1 39.95 5.75 39.05 5.05 41.4 5.15 39.1 4.0 38.05 3.3 36.85 3.2 34.0 2.65 31.45 3.3 28.45 3.8 26.75 5.3 26.15 5.65 25.8 6.3 L31.7 6.45 Q27.0 5.75 24.5 8.1 23.15 9.15 21.05 9.6 L15.95 10.3 15.05 10.5 9.2 10.75" fill="url(#gradient1)" fill-rule="evenodd" stroke="none"/>
    <path d="M9.2 10.75 Q8.85 10.65 8.8 10.85 L5.45 11.2 5.1 11.2 3.85 11.25 Q-0.85 11.2 -4.2 7.85 -7.45 4.6 -7.45 -0.05 -7.45 -4.75 -4.2 -8.1 -0.95 -11.25 3.6 -11.35 L5.1 -11.8 5.45 -11.8 M5.45 -11.85 L6.2 -11.7 9.2 -11.35" fill="none" stroke="#fefe7e" stroke-linecap="round" stroke-linejoin="round" stroke-width="0.1"/>
  </g>
  <defs>
    <radialGradient cx="0" cy="0" gradientTransform="matrix(0.0371, 0.0035, 0.0, 0.0165, -8.95, -0.85)" gradientUnits="userSpaceOnUse" id="gradient0" r="819.2" spreadMethod="pad">
      <stop offset="0.0" stop-color="#ffffff"/>
      <stop offset="0.4980392156862745" stop-color="#fefe12"/>
      <stop offset="1.0" stop-color="#ec3131"/>
    </radialGradient>
    <radialGradient cx="0" cy="0" gradientTransform="matrix(0.062, 0.0, 0.0, 0.062, -2.0, -14.0)" gradientUnits="userSpaceOnUse" id="gradient1" r="819.2" spreadMethod="pad">
      <stop offset="0.30196078431372547" stop-color="#ffffff"/>
      <stop offset="0.4549019607843137" stop-color="#fffbf0"/>
      <stop offset="0.7372549019607844" stop-color="#ffc533"/>
      <stop offset="0.8784313725490196" stop-color="#fd8c3e"/>
      <stop offset="0.9882352941176471" stop-color="#bf6d2f"/>
    </radialGradient>
  </defs>
</svg>
