<?xml version="1.0" encoding="UTF-8" standalone="no"?>
<svg xmlns:xlink="http://www.w3.org/1999/xlink" height="22.7px" width="75.85px" xmlns="http://www.w3.org/2000/svg">
  <g transform="matrix(1.0, 0.0, 0.0, 1.0, 7.5, 11.4)">
    <path d="M30.9 -8.0 L29.95 -8.25 30.85 -8.45 30.9 -8.0" fill="url(#gradient0)" fill-rule="evenodd" stroke="none"/>
    <path d="M58.5 -0.45 Q60.05 -1.25 61.8 -0.4 L62.95 -0.3 60.0 -0.05 58.5 -0.45 M58.35 -2.3 L54.35 -2.4 58.35 -2.3 M61.1 -5.3 L60.1 -5.65 Q61.6 -6.1 63.0 -5.1 L63.8 -4.95 63.8 -4.85 Q62.2 -4.1 61.1 -5.3 M68.35 1.65 L66.55 1.7 68.35 1.65 M60.55 3.55 L61.4 3.85 Q59.05 4.35 57.4 3.45 L57.1 3.3 60.55 3.55 M57.6 2.15 Q58.8 0.9 61.1 1.35 59.65 2.3 57.6 2.15" fill="url(#gradient1)" fill-rule="evenodd" stroke="none"/>
    <path d="M36.4 3.55 L43.65 3.75 Q45.9 4.35 45.7 3.2 45.6 2.75 44.95 2.7 47.35 2.3 50.1 3.65 L51.2 3.85 53.65 3.65 Q50.45 4.25 47.8 5.05 45.05 5.95 42.6 5.05 40.3 4.15 38.0 3.9 L36.45 3.8 36.3 3.8 36.4 3.55 M18.0 8.4 Q19.55 8.1 21.05 9.15 L18.0 8.55 18.0 8.4" fill="url(#gradient2)" fill-rule="evenodd" stroke="none"/>
    <path d="M5.45 -11.2 L5.45 -11.25 10.45 -10.2 11.55 -10.1 13.3 -10.2 12.6 -9.5 16.8 -9.05 Q21.75 -8.2 26.4 -6.5 L30.9 -6.6 Q32.35 -7.4 30.9 -8.0 L30.85 -8.45 33.4 -8.55 Q36.8 -8.4 40.15 -7.5 L43.15 -7.2 Q41.35 -7.05 40.3 -6.1 37.85 -4.05 33.4 -4.15 L29.8 -4.4 Q26.95 -4.75 25.5 -3.6 27.85 -4.15 30.4 -2.85 L32.65 -1.6 Q34.9 -0.5 38.0 -0.45 41.2 -0.75 40.3 -2.2 42.8 -1.35 45.5 -2.55 48.15 -3.9 45.55 -4.7 L44.05 -5.05 Q44.9 -5.75 47.1 -5.55 L48.55 -5.3 Q50.8 -4.5 53.45 -4.15 L55.4 -4.25 Q54.2 -4.1 53.35 -3.35 51.7 -2.5 50.35 -1.45 48.65 -0.2 46.0 -1.25 L44.45 -1.35 Q42.95 -1.25 42.4 -0.4 44.95 -0.6 47.3 0.15 L49.15 -0.05 53.45 0.15 55.4 1.1 Q56.05 1.45 56.9 1.45 54.35 1.55 52.6 2.4 51.9 2.6 51.25 2.4 50.4 1.95 49.85 1.8 52.45 1.55 50.5 1.35 L46.65 1.65 43.15 1.8 38.55 2.0 Q36.8 2.4 36.4 3.55 L36.3 3.8 Q34.15 3.8 32.65 4.7 31.1 5.4 31.05 6.45 L37.7 6.65 Q34.0 5.9 31.3 7.6 29.2 8.65 26.1 8.65 L21.05 8.1 Q19.3 7.6 18.0 8.4 L18.0 8.55 14.9 9.1 Q14.2 9.15 13.8 9.5 13.7 9.4 13.6 9.6 12.85 9.8 12.05 10.15 L11.55 10.2 5.45 11.2 5.1 11.2 3.85 11.25 Q-0.85 11.2 -4.2 7.85 -7.45 4.6 -7.45 -0.05 -7.45 -4.75 -4.2 -8.1 -0.85 -11.35 3.85 -11.35 L5.1 -11.25 5.3 -11.25 5.45 -11.2 M22.0 3.75 L23.2 3.9 25.1 4.0 29.0 3.45 24.1 2.4 22.45 2.25 Q20.25 2.15 18.4 3.1 19.2 2.9 19.6 3.1 L22.0 3.75 M33.35 3.05 Q35.55 2.6 36.4 1.65 L32.85 1.8 Q29.85 1.2 27.1 1.7 28.6 1.5 29.25 2.05 30.75 3.35 33.35 3.05" fill="url(#gradient3)" fill-rule="evenodd" stroke="none"/>
    <path d="M5.45 -11.25 L10.45 -10.2 11.55 -10.1 M11.55 10.2 L5.45 11.2 5.1 11.2 3.85 11.25 Q-0.85 11.2 -4.2 7.85 -7.45 4.6 -7.45 -0.05 -7.45 -4.75 -4.2 -8.1 -0.85 -11.35 3.85 -11.35 L5.1 -11.25 5.3 -11.25 5.45 -11.2" fill="none" stroke="#fefe7e" stroke-linecap="round" stroke-linejoin="round" stroke-width="0.1"/>
  </g>
  <defs>
    <radialGradient cx="0" cy="0" gradientTransform="matrix(0.0417, 0.0, 0.0, 0.0315, -4.9, 0.65)" gradientUnits="userSpaceOnUse" id="gradient0" r="819.2" spreadMethod="pad">
      <stop offset="0.0" stop-color="#ffffff"/>
      <stop offset="0.4980392156862745" stop-color="#fefe12"/>
      <stop offset="1.0" stop-color="#ec3131"/>
    </radialGradient>
    <radialGradient cx="0" cy="0" gradientTransform="matrix(0.0587, 0.0056, 0.0, 0.0261, -11.3, -0.9)" gradientUnits="userSpaceOnUse" id="gradient1" r="819.2" spreadMethod="pad">
      <stop offset="0.0" stop-color="#ffffff"/>
      <stop offset="0.4980392156862745" stop-color="#fefe12"/>
      <stop offset="1.0" stop-color="#ec3131"/>
    </radialGradient>
    <radialGradient cx="0" cy="0" gradientTransform="matrix(0.0547, 0.0052, 0.0, 0.0315, -8.0, -0.55)" gradientUnits="userSpaceOnUse" id="gradient2" r="819.2" spreadMethod="pad">
      <stop offset="0.0" stop-color="#ffffff"/>
      <stop offset="0.4980392156862745" stop-color="#fefe12"/>
      <stop offset="1.0" stop-color="#ec3131"/>
    </radialGradient>
    <radialGradient cx="0" cy="0" gradientTransform="matrix(0.062, 0.0, 0.0, 0.062, -2.0, -14.0)" gradientUnits="userSpaceOnUse" id="gradient3" r="819.2" spreadMethod="pad">
      <stop offset="0.30196078431372547" stop-color="#ffffff"/>
      <stop offset="0.4549019607843137" stop-color="#fffbf0"/>
      <stop offset="0.7372549019607844" stop-color="#ffc533"/>
      <stop offset="0.8784313725490196" stop-color="#fd8c3e"/>
      <stop offset="0.9882352941176471" stop-color="#bf6d2f"/>
    </radialGradient>
  </defs>
</svg>
