<?xml version="1.0" encoding="UTF-8" standalone="no"?>
<svg xmlns:xlink="http://www.w3.org/1999/xlink" height="22.7px" width="70.4px" xmlns="http://www.w3.org/2000/svg">
  <g transform="matrix(1.0, 0.0, 0.0, 1.0, 7.5, 11.4)">
    <path d="M48.9 -5.1 L47.0 -5.45 47.6 -6.1 Q48.45 -7.5 46.7 -7.85 48.6 -8.65 50.9 -7.9 53.2 -7.4 54.85 -6.35 52.4 -6.95 50.9 -5.75 50.05 -5.2 48.9 -5.1 M54.35 -0.3 L55.25 -0.3 Q53.25 -0.2 52.1 1.0 50.45 2.6 47.8 2.25 48.45 1.95 48.3 1.1 L43.85 1.45 43.5 1.3 45.05 0.4 Q46.15 -1.0 48.9 -1.0 50.9 -1.2 52.95 -0.45 L54.35 -0.3 M58.05 -6.0 Q57.25 -4.5 55.1 -5.2 56.6 -5.2 57.25 -6.1 L58.05 -6.0 M61.1 -7.75 L60.0 -7.9 Q61.0 -9.0 62.7 -8.7 61.7 -8.8 61.1 -7.75 M62.35 -4.7 Q61.6 -3.55 60.1 -3.25 60.45 -4.7 62.35 -4.7 M62.9 0.6 Q61.2 2.15 59.75 0.75 59.5 0.4 59.05 0.5 L62.0 0.75 62.9 0.6" fill="url(#gradient0)" fill-rule="evenodd" stroke="none"/>
    <path d="M7.3 11.0 L5.45 11.2 5.1 11.2 3.85 11.25 Q-0.85 11.2 -4.2 7.85 -7.45 4.6 -7.45 -0.05 -7.45 -4.75 -4.2 -8.1 -0.85 -11.35 3.85 -11.35 L5.1 -11.3 5.45 -11.25 7.3 -10.9 Q8.75 -10.75 10.15 -10.2 L12.35 -10.45 19.0 -10.2 25.6 -8.8 Q28.85 -8.0 31.3 -8.9 32.15 -9.45 31.05 -9.6 L28.8 -9.65 Q30.3 -10.55 32.65 -10.35 L37.75 -9.85 42.55 -9.5 42.6 -9.4 Q41.9 -9.25 41.6 -8.9 L39.75 -7.4 Q38.25 -6.8 36.4 -6.5 L35.1 -6.6 Q37.4 -7.25 36.05 -8.0 33.95 -7.85 32.85 -7.3 L30.4 -6.7 29.6 -6.7 Q32.0 -6.35 34.15 -4.85 35.25 -4.05 37.15 -3.8 L40.3 -4.05 Q41.0 -4.7 39.75 -4.6 L42.9 -4.85 44.1 -4.75 Q42.95 -4.7 43.25 -3.8 43.3 -2.75 45.3 -2.9 L50.8 -4.4 53.95 -4.3 57.4 -3.0 58.0 -2.85 Q57.5 -2.75 57.25 -2.3 L57.0 -1.85 Q56.2 -1.25 54.95 -1.0 52.7 -0.65 51.0 -1.6 52.7 -1.45 52.05 -2.2 51.8 -2.6 51.3 -2.4 L48.05 -2.05 Q45.5 -1.7 43.0 -2.15 39.75 -2.95 38.35 -1.5 40.25 -2.15 42.6 -1.1 L45.15 -0.3 40.65 0.05 Q38.8 0.5 37.2 1.2 L34.9 1.65 Q36.4 1.7 37.55 2.95 38.65 4.1 40.85 4.35 39.5 4.25 38.35 4.8 L33.5 5.95 28.3 5.6 26.4 4.8 Q27.55 5.2 27.65 4.45 L27.2 4.0 Q24.75 3.3 22.65 4.0 21.15 4.45 20.9 5.4 20.1 7.35 18.25 8.9 16.6 10.15 13.6 10.15 L11.05 10.3 7.3 11.0 M31.8 -0.1 Q34.7 0.5 36.75 -1.6 34.05 -1.1 31.8 -0.1 M23.45 0.15 Q25.95 1.45 28.15 0.4 L23.45 0.15" fill="url(#gradient1)" fill-rule="evenodd" stroke="none"/>
    <path d="M7.3 11.0 L5.45 11.2 5.1 11.2 3.85 11.25 Q-0.85 11.2 -4.2 7.85 -7.45 4.6 -7.45 -0.05 -7.45 -4.75 -4.2 -8.1 -0.85 -11.35 3.85 -11.35 L5.1 -11.3 5.45 -11.25 7.3 -10.9" fill="none" stroke="#fefe7e" stroke-linecap="round" stroke-linejoin="round" stroke-width="0.1"/>
  </g>
  <defs>
    <radialGradient cx="0" cy="0" gradientTransform="matrix(0.0587, 0.0056, 0.0, 0.0261, -11.3, -0.9)" gradientUnits="userSpaceOnUse" id="gradient0" r="819.2" spreadMethod="pad">
      <stop offset="0.0" stop-color="#ffffff"/>
      <stop offset="0.4980392156862745" stop-color="#fefe12"/>
      <stop offset="1.0" stop-color="#ec3131"/>
    </radialGradient>
    <radialGradient cx="0" cy="0" gradientTransform="matrix(0.062, 0.0, 0.0, 0.062, -2.0, -14.0)" gradientUnits="userSpaceOnUse" id="gradient1" r="819.2" spreadMethod="pad">
      <stop offset="0.30196078431372547" stop-color="#ffffff"/>
      <stop offset="0.4549019607843137" stop-color="#fffbf0"/>
      <stop offset="0.7372549019607844" stop-color="#ffc533"/>
      <stop offset="0.8784313725490196" stop-color="#fd8c3e"/>
      <stop offset="0.9882352941176471" stop-color="#bf6d2f"/>
    </radialGradient>
  </defs>
</svg>
