<?xml version="1.0" encoding="UTF-8" standalone="no"?>
<svg xmlns:xlink="http://www.w3.org/1999/xlink" height="24.15px" width="72.15px" xmlns="http://www.w3.org/2000/svg">
  <g transform="matrix(1.0, 0.0, 0.0, 1.0, 7.5, 11.75)">
    <path d="M50.3 -7.65 L50.35 -7.65 50.3 -7.55 50.3 -7.65" fill="url(#gradient0)" fill-rule="evenodd" stroke="none"/>
    <path d="M50.35 -7.65 L50.9 -7.5 50.3 -7.55 50.35 -7.65" fill="url(#gradient1)" fill-rule="evenodd" stroke="none"/>
    <path d="M59.95 -6.6 Q57.5 -7.05 56.05 -5.8 L54.65 -5.65 50.9 -5.8 Q52.9 -6.25 54.35 -7.15 L56.3 -7.4 59.95 -6.6 M51.2 -1.35 L49.05 -0.65 52.65 -2.5 56.85 -2.65 Q58.85 -1.9 60.9 -1.6 L61.9 -1.45 Q59.6 -0.75 56.9 -0.4 L53.6 -0.8 Q55.5 -0.55 55.4 -1.6 L51.2 -1.35 M63.8 -2.9 Q62.6 -1.7 60.85 -2.5 L63.8 -2.9 M64.65 1.9 Q63.45 2.15 62.5 3.05 L61.35 2.95 Q62.6 1.8 64.65 1.9 M52.65 0.25 Q54.95 -0.05 57.1 0.75 L58.75 0.85 54.45 1.8 50.35 1.55 47.6 1.65 Q49.25 0.4 52.05 0.95 54.45 1.3 52.65 0.25 M61.1 0.75 Q62.25 0.65 62.7 -0.2 63.7 1.6 61.1 0.75" fill="url(#gradient2)" fill-rule="evenodd" stroke="none"/>
    <path d="M13.8 9.6 Q10.0 10.75 5.45 11.2 L5.1 11.2 3.85 11.25 Q-0.85 11.2 -4.2 7.85 -7.45 4.6 -7.45 -0.05 -7.45 -4.75 -4.2 -8.1 -0.85 -11.35 3.85 -11.35 L4.05 -11.35 5.1 -11.3 5.45 -11.25 10.1 -10.3 11.05 -10.0 Q12.6 -9.75 13.8 -10.0 L14.3 -10.3 Q15.75 -11.2 17.55 -11.5 L20.0 -11.75 Q21.55 -11.8 23.45 -10.8 26.15 -9.7 29.3 -9.05 30.95 -8.9 32.4 -9.05 31.65 -7.4 28.15 -7.5 L35.9 -6.6 Q39.0 -6.25 38.9 -8.0 38.75 -9.0 37.35 -9.05 L43.7 -9.3 Q47.1 -9.0 50.3 -7.65 L50.3 -7.55 Q47.55 -7.8 45.3 -6.45 43.55 -5.65 41.6 -5.2 38.45 -4.8 35.25 -5.3 L31.85 -5.4 Q29.7 -5.05 28.8 -4.05 L34.7 -3.6 36.1 -3.7 38.8 -3.6 42.75 -2.55 45.7 -2.75 Q44.6 -3.35 43.35 -3.25 45.7 -4.7 49.35 -3.55 L50.6 -3.45 47.65 -2.15 Q45.75 -1.0 43.15 -0.4 41.3 -0.05 40.85 1.2 42.95 1.2 44.8 0.4 44.7 1.7 41.6 2.0 39.25 2.05 38.75 3.05 40.65 2.75 42.75 3.55 L42.95 3.6 43.0 3.65 43.0 3.6 43.15 3.65 Q43.65 4.4 46.2 3.9 43.1 4.6 40.55 6.2 39.55 6.7 38.0 6.8 35.1 6.7 33.05 5.65 L32.05 5.25 34.0 4.8 Q34.3 4.6 34.55 4.55 L34.55 4.45 Q34.7 3.9 34.2 3.2 33.15 1.6 30.6 2.15 27.8 2.6 25.6 3.65 24.55 3.9 24.25 4.6 23.6 5.4 23.4 6.2 25.95 5.1 29.8 6.35 25.2 5.9 23.4 8.05 L19.0 11.6 16.15 12.4 14.5 12.4 Q14.3 11.25 15.45 10.2 16.1 9.25 14.55 9.45 14.95 9.15 15.4 9.0 L13.8 9.6 M22.45 -0.65 L21.05 -0.75 Q21.1 -0.3 22.0 0.6 L22.65 0.75 Q24.85 1.1 26.25 0.05 25.55 0.25 24.8 0.05 L22.45 -0.65" fill="url(#gradient3)" fill-rule="evenodd" stroke="none"/>
    <path d="M13.8 9.6 Q10.0 10.75 5.45 11.2 L5.1 11.2 3.85 11.25 Q-0.85 11.2 -4.2 7.85 -7.45 4.6 -7.45 -0.05 -7.45 -4.75 -4.2 -8.1 -0.85 -11.35 3.85 -11.35 L4.05 -11.35 5.1 -11.3 5.45 -11.25 10.1 -10.3 11.05 -10.0 Q12.6 -9.75 13.8 -10.0" fill="none" stroke="#fefe7e" stroke-linecap="round" stroke-linejoin="round" stroke-width="0.1"/>
  </g>
  <defs>
    <radialGradient cx="0" cy="0" gradientTransform="matrix(0.0417, 0.0, 0.0, 0.0315, -4.9, 0.65)" gradientUnits="userSpaceOnUse" id="gradient0" r="819.2" spreadMethod="pad">
      <stop offset="0.0" stop-color="#ffffff"/>
      <stop offset="0.4980392156862745" stop-color="#fefe12"/>
      <stop offset="1.0" stop-color="#ec3131"/>
    </radialGradient>
    <radialGradient cx="0" cy="0" gradientTransform="matrix(0.0547, 0.0052, 0.0, 0.0315, -8.0, -0.55)" gradientUnits="userSpaceOnUse" id="gradient1" r="819.2" spreadMethod="pad">
      <stop offset="0.0" stop-color="#ffffff"/>
      <stop offset="0.4980392156862745" stop-color="#fefe12"/>
      <stop offset="1.0" stop-color="#ec3131"/>
    </radialGradient>
    <radialGradient cx="0" cy="0" gradientTransform="matrix(0.0587, 0.0056, 0.0, 0.0261, -11.3, -0.9)" gradientUnits="userSpaceOnUse" id="gradient2" r="819.2" spreadMethod="pad">
      <stop offset="0.0" stop-color="#ffffff"/>
      <stop offset="0.4980392156862745" stop-color="#fefe12"/>
      <stop offset="1.0" stop-color="#ec3131"/>
    </radialGradient>
    <radialGradient cx="0" cy="0" gradientTransform="matrix(0.062, 0.0, 0.0, 0.062, -2.0, -14.0)" gradientUnits="userSpaceOnUse" id="gradient3" r="819.2" spreadMethod="pad">
      <stop offset="0.30196078431372547" stop-color="#ffffff"/>
      <stop offset="0.4549019607843137" stop-color="#fffbf0"/>
      <stop offset="0.7372549019607844" stop-color="#ffc533"/>
      <stop offset="0.8784313725490196" stop-color="#fd8c3e"/>
      <stop offset="0.9882352941176471" stop-color="#bf6d2f"/>
    </radialGradient>
  </defs>
</svg>
