<?xml version="1.0" encoding="UTF-8" standalone="no"?>
<svg xmlns:xlink="http://www.w3.org/1999/xlink" height="23.8px" width="72.05px" xmlns="http://www.w3.org/2000/svg">
  <g transform="matrix(1.0, 0.0, 0.0, 1.0, 7.5, 12.5)">
    <path d="M40.0 -6.0 Q41.9 -6.15 42.9 -6.85 43.85 -7.85 42.4 -8.55 L46.9 -8.25 49.5 -8.0 51.1 -7.85 Q49.9 -7.75 48.95 -6.85 47.65 -5.8 45.6 -5.45 43.1 -5.3 40.65 -5.45 L39.95 -5.5 40.0 -6.0 M41.2 1.55 L42.4 1.45 41.2 1.9 41.2 1.55 M47.7 2.6 L48.15 2.5 47.65 2.95 47.7 2.6" fill="url(#gradient0)" fill-rule="evenodd" stroke="none"/>
    <path d="M47.65 -4.05 Q49.2 -4.95 51.4 -4.05 L54.15 -3.8 49.85 -3.55 48.55 -3.8 47.65 -4.05 M57.6 -0.05 L60.55 -0.2 Q58.75 0.2 57.5 1.2 56.2 2.15 54.6 1.2 56.4 0.8 57.6 -0.05 M55.55 -7.15 Q57.35 -7.95 59.7 -7.15 L61.1 -6.95 57.9 -6.45 56.3 -6.8 Q55.75 -7.25 55.55 -7.15 M59.35 -3.1 L61.1 -3.25 Q62.15 -3.0 63.0 -2.55 L59.2 -1.6 57.8 -1.7 57.0 -1.85 59.35 -3.1 M63.2 -3.8 L64.55 -4.3 Q64.05 -3.1 63.2 -3.8" fill="url(#gradient1)" fill-rule="evenodd" stroke="none"/>
    <path d="M4.4 11.25 L3.85 11.25 Q-0.85 11.2 -4.2 7.85 -7.45 4.6 -7.45 -0.05 -7.45 -4.75 -4.2 -8.1 -1.8 -10.4 1.25 -11.05 3.7 -12.0 4.4 -11.9 L4.55 -11.85 5.1 -12.25 5.45 -12.35 5.45 -12.4 6.75 -12.45 Q8.4 -12.4 10.15 -11.5 L15.85 -8.35 Q18.4 -6.95 21.75 -6.15 24.3 -5.75 25.6 -6.8 26.7 -8.1 24.9 -8.9 26.35 -9.95 29.25 -9.6 31.85 -9.25 34.5 -8.35 L38.55 -7.85 Q37.9 -7.5 38.35 -6.7 38.65 -6.0 40.0 -6.0 L39.95 -5.5 36.4 -5.75 Q32.45 -6.2 30.05 -4.6 L29.55 -4.25 33.4 -3.7 Q36.4 -3.8 34.55 -4.95 36.3 -5.15 39.2 -4.95 42.1 -4.95 44.8 -3.95 42.6 -4.15 41.5 -3.25 41.05 -3.0 40.9 -2.75 43.4 -3.3 46.55 -2.65 48.75 -2.3 50.3 -1.15 L46.05 -1.0 Q44.5 -0.55 43.8 0.15 L43.15 0.4 42.7 0.5 43.0 -0.05 42.75 -0.75 Q41.75 -0.5 41.15 0.3 40.4 1.0 38.9 1.3 L41.2 1.55 41.2 1.9 43.95 2.6 Q45.9 2.8 47.7 2.6 L47.65 2.95 Q46.25 3.8 44.8 4.8 L40.0 5.05 38.35 4.35 Q39.85 4.15 39.4 3.2 37.45 0.3 32.05 0.95 28.85 1.1 28.3 2.85 27.8 3.8 30.1 4.0 L31.7 4.0 Q30.25 4.35 29.6 4.95 L25.15 8.8 Q23.65 9.85 21.7 10.55 L17.45 11.25 15.65 10.9 9.6 10.65 5.45 11.2 5.1 11.2 4.4 11.25" fill="url(#gradient2)" fill-rule="evenodd" stroke="none"/>
    <path d="M4.4 11.25 L3.85 11.25 Q-0.85 11.2 -4.2 7.85 -7.45 4.6 -7.45 -0.05 -7.45 -4.75 -4.2 -8.1 -1.8 -10.4 1.25 -11.05 3.7 -12.0 4.4 -11.9" fill="none" stroke="#fefe7e" stroke-linecap="round" stroke-linejoin="round" stroke-width="0.1"/>
  </g>
  <defs>
    <radialGradient cx="0" cy="0" gradientTransform="matrix(0.0646, 0.0, 0.0, 0.0376, -5.6, 0.5)" gradientUnits="userSpaceOnUse" id="gradient0" r="819.2" spreadMethod="pad">
      <stop offset="0.0" stop-color="#ffffff"/>
      <stop offset="0.4980392156862745" stop-color="#fefe12"/>
      <stop offset="1.0" stop-color="#ec3131"/>
    </radialGradient>
    <radialGradient cx="0" cy="0" gradientTransform="matrix(0.0371, 0.0035, 0.0, 0.0165, -8.95, -0.85)" gradientUnits="userSpaceOnUse" id="gradient1" r="819.2" spreadMethod="pad">
      <stop offset="0.0" stop-color="#ffffff"/>
      <stop offset="0.4980392156862745" stop-color="#fefe12"/>
      <stop offset="1.0" stop-color="#ec3131"/>
    </radialGradient>
    <radialGradient cx="0" cy="0" gradientTransform="matrix(0.062, 0.0, 0.0, 0.062, -2.0, -14.0)" gradientUnits="userSpaceOnUse" id="gradient2" r="819.2" spreadMethod="pad">
      <stop offset="0.30196078431372547" stop-color="#ffffff"/>
      <stop offset="0.4549019607843137" stop-color="#fffbf0"/>
      <stop offset="0.7372549019607844" stop-color="#ffc533"/>
      <stop offset="0.8784313725490196" stop-color="#fd8c3e"/>
      <stop offset="0.9882352941176471" stop-color="#bf6d2f"/>
    </radialGradient>
  </defs>
</svg>
