<?xml version="1.0" encoding="UTF-8" standalone="no"?>
<svg xmlns:xlink="http://www.w3.org/1999/xlink" height="24.25px" width="72.05px" xmlns="http://www.w3.org/2000/svg">
  <g transform="matrix(1.0, 0.0, 0.0, 1.0, 7.5, 12.3)">
    <path d="M39.1 2.85 L39.75 3.3 39.05 3.0 39.1 2.85" fill="url(#gradient0)" fill-rule="evenodd" stroke="none"/>
    <path d="M47.0 -7.2 Q48.6 -8.45 51.25 -8.35 53.65 -8.45 55.75 -7.3 L56.6 -6.95 51.8 -6.7 48.7 -6.15 Q49.9 -6.25 48.7 -7.15 L47.0 -7.2 M51.65 -3.55 Q52.35 -3.55 52.9 -3.9 54.65 -4.95 56.85 -4.95 L55.85 -4.15 51.65 -3.55 M55.8 -2.75 Q54.15 -2.05 52.1 -2.75 53.95 -3.1 55.8 -2.75 M61.6 -2.2 Q60.6 -2.95 59.5 -2.85 61.45 -3.35 63.45 -2.4 L64.55 -1.95 61.6 -2.2 M58.35 -6.5 Q59.9 -6.8 60.95 -7.4 60.9 -5.3 58.35 -6.5 M62.65 1.2 Q61.05 1.25 58.65 0.4 L57.9 0.25 Q59.95 -0.55 62.0 0.6 L62.65 1.2 M52.6 2.15 L52.9 2.25 Q50.5 2.25 48.9 3.2 46.75 4.45 44.25 3.75 45.2 3.4 44.6 2.5 L44.8 2.15 Q45.8 1.0 48.45 1.35 L52.6 2.15" fill="url(#gradient1)" fill-rule="evenodd" stroke="none"/>
    <path d="M23.55 9.15 L22.7 9.1 23.55 8.9 23.55 9.15" fill="url(#gradient2)" fill-rule="evenodd" stroke="none"/>
    <path d="M12.95 11.8 Q12.65 11.8 12.8 11.9 L5.45 11.25 5.1 11.2 3.85 11.25 Q-0.85 11.2 -4.2 7.85 -7.45 4.6 -7.45 -0.05 -7.45 -4.75 -4.2 -8.1 -1.75 -10.5 1.5 -11.1 L3.7 -11.8 5.1 -12.2 5.45 -12.2 9.75 -11.7 Q11.45 -11.45 12.95 -10.1 L10.45 -10.45 9.5 -10.3 10.0 -10.3 12.95 -9.4 Q13.0 -9.35 13.4 -9.15 16.2 -7.9 19.65 -6.85 L26.4 -5.65 Q29.4 -5.3 31.35 -6.25 32.95 -7.4 31.15 -8.55 29.8 -9.45 28.15 -9.6 L32.9 -9.5 Q36.5 -9.15 39.6 -7.55 41.2 -6.8 43.15 -6.6 L40.3 -6.25 Q38.7 -5.85 37.75 -5.05 L39.85 -4.95 43.15 -5.3 Q45.0 -5.3 46.7 -4.4 47.65 -4.0 48.9 -3.95 L46.55 -3.6 Q44.75 -3.45 42.9 -3.6 L39.05 -3.25 36.3 -2.9 34.9 -2.85 38.0 -2.2 Q39.75 -1.95 41.2 -2.55 L44.6 -2.65 47.3 -2.55 Q49.15 -3.3 51.4 -2.15 L53.0 -1.5 Q51.65 -1.8 50.1 -1.15 L46.65 -0.45 Q47.45 -0.65 46.9 -0.9 45.9 -1.6 44.45 -1.5 41.5 -1.55 40.65 -0.3 43.35 -0.55 45.15 0.65 44.45 0.5 43.35 0.95 L41.0 1.65 37.15 1.8 38.0 2.25 Q38.65 2.4 39.1 2.85 L39.05 3.0 37.55 3.05 Q35.5 3.3 34.7 4.7 33.85 5.9 32.3 6.9 L28.45 8.55 23.55 9.15 23.55 8.9 23.4 8.4 Q22.75 7.75 21.7 7.85 18.6 7.85 17.1 9.25 L14.3 11.25 12.95 11.8 M27.4 -1.85 Q28.8 -1.7 29.6 -2.3 31.2 -4.1 34.35 -3.7 31.7 -4.45 29.55 -3.2 L26.4 -2.2 Q26.5 -2.05 27.4 -1.85" fill="url(#gradient3)" fill-rule="evenodd" stroke="none"/>
    <path d="M12.95 11.8 Q12.65 11.8 12.8 11.9 L5.45 11.25 5.1 11.2 3.85 11.25 Q-0.85 11.2 -4.2 7.85 -7.45 4.6 -7.45 -0.05 -7.45 -4.75 -4.2 -8.1 -1.75 -10.5 1.5 -11.1 L3.7 -11.8 5.1 -12.2 5.45 -12.2 9.75 -11.7 Q11.45 -11.45 12.95 -10.1" fill="none" stroke="#fefe7e" stroke-linecap="round" stroke-linejoin="round" stroke-width="0.1"/>
  </g>
  <defs>
    <radialGradient cx="0" cy="0" gradientTransform="matrix(0.0417, 0.0, 0.0, 0.0315, -4.9, 0.65)" gradientUnits="userSpaceOnUse" id="gradient0" r="819.2" spreadMethod="pad">
      <stop offset="0.0" stop-color="#ffffff"/>
      <stop offset="0.4980392156862745" stop-color="#fefe12"/>
      <stop offset="1.0" stop-color="#ec3131"/>
    </radialGradient>
    <radialGradient cx="0" cy="0" gradientTransform="matrix(0.0587, 0.0056, 0.0, 0.0261, -11.3, -0.9)" gradientUnits="userSpaceOnUse" id="gradient1" r="819.2" spreadMethod="pad">
      <stop offset="0.0" stop-color="#ffffff"/>
      <stop offset="0.4980392156862745" stop-color="#fefe12"/>
      <stop offset="1.0" stop-color="#ec3131"/>
    </radialGradient>
    <radialGradient cx="0" cy="0" gradientTransform="matrix(0.0547, 0.0052, 0.0, 0.0315, -8.0, -0.55)" gradientUnits="userSpaceOnUse" id="gradient2" r="819.2" spreadMethod="pad">
      <stop offset="0.0" stop-color="#ffffff"/>
      <stop offset="0.4980392156862745" stop-color="#fefe12"/>
      <stop offset="1.0" stop-color="#ec3131"/>
    </radialGradient>
    <radialGradient cx="0" cy="0" gradientTransform="matrix(0.062, 0.0, 0.0, 0.062, -2.0, -14.0)" gradientUnits="userSpaceOnUse" id="gradient3" r="819.2" spreadMethod="pad">
      <stop offset="0.30196078431372547" stop-color="#ffffff"/>
      <stop offset="0.4549019607843137" stop-color="#fffbf0"/>
      <stop offset="0.7372549019607844" stop-color="#ffc533"/>
      <stop offset="0.8784313725490196" stop-color="#fd8c3e"/>
      <stop offset="0.9882352941176471" stop-color="#bf6d2f"/>
    </radialGradient>
  </defs>
</svg>
