<?xml version="1.0" encoding="UTF-8" standalone="no"?>
<svg xmlns:xlink="http://www.w3.org/1999/xlink" height="23.55px" width="66.55px" xmlns="http://www.w3.org/2000/svg">
  <g transform="matrix(1.0, 0.0, 0.0, 1.0, 7.5, 12.25)">
    <path d="M51.2 -2.5 L53.85 -2.4 51.3 -2.15 51.2 -2.5" fill="url(#gradient0)" fill-rule="evenodd" stroke="none"/>
    <path d="M55.05 -6.95 Q55.8 -6.9 56.6 -6.35 57.6 -5.75 59.05 -5.65 L54.75 -5.1 Q54.05 -5.2 53.75 -5.55 52.9 -6.9 51.2 -6.35 52.85 -7.3 55.05 -6.95" fill="url(#gradient1)" fill-rule="evenodd" stroke="none"/>
    <path d="M44.25 3.65 L44.95 4.0 44.2 3.9 44.25 3.65" fill="url(#gradient2)" fill-rule="evenodd" stroke="none"/>
    <path d="M1.65 -11.15 Q2.65 -11.75 4.2 -11.9 L5.1 -11.95 5.45 -11.95 6.0 -11.95 10.45 -12.1 12.35 -12.2 Q14.7 -12.2 17.1 -10.7 19.55 -9.35 22.45 -8.0 24.45 -7.3 26.75 -7.3 25.3 -6.25 22.45 -6.1 L19.65 -6.5 Q21.75 -5.3 24.65 -4.75 L29.45 -5.1 Q33.35 -3.8 36.25 -4.5 36.95 -4.75 36.65 -5.4 36.0 -6.7 34.3 -7.3 35.3 -7.85 37.5 -7.85 39.7 -7.85 41.75 -6.95 44.3 -5.9 47.0 -5.9 L48.9 -6.25 Q48.3 -5.2 46.2 -4.75 L42.75 -4.3 45.85 -3.9 48.15 -3.1 51.2 -2.5 51.3 -2.15 50.75 -2.05 44.45 -0.9 Q42.8 -0.65 41.15 -0.9 L38.0 -1.5 Q37.15 -1.7 37.0 -1.15 35.55 -0.05 33.2 -0.1 L38.45 0.25 40.85 0.15 Q43.9 0.65 46.35 -0.3 47.05 -0.75 48.15 -0.65 L51.4 -0.75 52.6 -0.55 56.85 0.65 Q53.75 0.4 50.6 0.75 48.6 0.75 47.15 1.35 L50.0 1.55 52.05 1.9 Q51.2 2.05 50.6 2.6 L49.5 3.1 Q46.85 3.65 44.45 2.5 L41.95 2.25 Q43.1 2.5 44.25 3.65 L44.2 3.9 42.05 3.85 Q39.25 3.8 37.95 5.65 L34.85 7.6 Q32.85 8.2 31.3 7.25 32.4 7.05 32.05 6.55 30.8 4.85 28.2 5.3 26.8 5.55 26.75 6.3 26.15 8.05 23.9 9.1 21.25 10.05 17.7 10.15 15.85 10.1 14.9 10.9 L11.05 11.2 7.75 10.9 6.0 11.0 5.45 11.1 5.45 11.15 5.1 11.2 3.85 11.25 Q-0.85 11.2 -4.2 7.85 -7.45 4.6 -7.45 -0.05 -7.45 -4.75 -4.2 -8.1 -1.65 -10.55 1.65 -11.15" fill="url(#gradient3)" fill-rule="evenodd" stroke="none"/>
    <path d="M6.0 11.0 L5.45 11.1 M5.45 11.15 L5.1 11.2 3.85 11.25 Q-0.85 11.2 -4.2 7.85 -7.45 4.6 -7.45 -0.05 -7.45 -4.75 -4.2 -8.1 -1.65 -10.55 1.65 -11.15" fill="none" stroke="#fefe7e" stroke-linecap="round" stroke-linejoin="round" stroke-width="0.1"/>
  </g>
  <defs>
    <radialGradient cx="0" cy="0" gradientTransform="matrix(0.0417, 0.0, 0.0, 0.0315, -4.9, 0.65)" gradientUnits="userSpaceOnUse" id="gradient0" r="819.2" spreadMethod="pad">
      <stop offset="0.0" stop-color="#ffffff"/>
      <stop offset="0.4980392156862745" stop-color="#fefe12"/>
      <stop offset="1.0" stop-color="#ec3131"/>
    </radialGradient>
    <radialGradient cx="0" cy="0" gradientTransform="matrix(0.0587, 0.0056, 0.0, 0.0261, -11.3, -0.9)" gradientUnits="userSpaceOnUse" id="gradient1" r="819.2" spreadMethod="pad">
      <stop offset="0.0" stop-color="#ffffff"/>
      <stop offset="0.4980392156862745" stop-color="#fefe12"/>
      <stop offset="1.0" stop-color="#ec3131"/>
    </radialGradient>
    <radialGradient cx="0" cy="0" gradientTransform="matrix(0.0547, 0.0052, 0.0, 0.0315, -8.0, -0.55)" gradientUnits="userSpaceOnUse" id="gradient2" r="819.2" spreadMethod="pad">
      <stop offset="0.0" stop-color="#ffffff"/>
      <stop offset="0.4980392156862745" stop-color="#fefe12"/>
      <stop offset="1.0" stop-color="#ec3131"/>
    </radialGradient>
    <radialGradient cx="0" cy="0" gradientTransform="matrix(0.062, 0.0, 0.0, 0.062, -2.0, -14.0)" gradientUnits="userSpaceOnUse" id="gradient3" r="819.2" spreadMethod="pad">
      <stop offset="0.30196078431372547" stop-color="#ffffff"/>
      <stop offset="0.4549019607843137" stop-color="#fffbf0"/>
      <stop offset="0.7372549019607844" stop-color="#ffc533"/>
      <stop offset="0.8784313725490196" stop-color="#fd8c3e"/>
      <stop offset="0.9882352941176471" stop-color="#bf6d2f"/>
    </radialGradient>
  </defs>
</svg>
