<?xml version="1.0" encoding="UTF-8" standalone="no"?>
<svg xmlns:xlink="http://www.w3.org/1999/xlink" height="28.7px" width="7.2px" xmlns="http://www.w3.org/2000/svg">
  <g transform="matrix(1.0, 0.0, 0.0, 1.0, 5.05, 29.2)">
    <path d="M-2.5 -29.2 Q-0.2 -29.4 1.05 -27.15 2.2 -23.95 2.15 -21.25 2.05 -18.6 1.3 -15.4 0.7 -13.9 0.35 -12.05 L0.35 -11.95 0.25 -11.5 Q0.25 -9.7 0.55 -8.1 L1.0 -6.55 -0.1 -5.45 -0.1 -5.4 -1.35 -5.45 -0.1 -5.4 Q-0.1 -3.8 1.4 -2.05 L-0.85 -0.5 -1.35 -5.45 -1.55 -8.65 -1.8 -12.5 -2.5 -29.2" fill="#643342" fill-rule="evenodd" stroke="none"/>
    <path d="M-2.5 -29.2 L-1.8 -12.5 -1.55 -8.65 -1.35 -5.45 -0.85 -0.5 Q-3.25 -1.4 -3.5 -1.6 L-4.55 -2.75 Q-2.25 -4.0 -2.3 -5.55 L-2.3 -5.6 -3.4 -6.7 Q-3.0 -7.55 -2.8 -8.95 L-2.65 -11.05 -2.75 -11.9 -2.9 -12.75 Q-3.25 -14.75 -3.8 -16.0 -5.5 -19.75 -4.9 -23.0 L-3.95 -27.75 -2.7 -29.15 -2.5 -29.2 M-1.35 -5.45 L-2.3 -5.55 -1.35 -5.45" fill="#783d4a" fill-rule="evenodd" stroke="none"/>
    <path d="M-0.1 -5.4 L-0.1 -5.45 1.0 -6.55 0.55 -8.1 Q0.25 -9.7 0.25 -11.5 L0.35 -11.95 0.35 -12.05 Q0.7 -13.9 1.3 -15.4 2.05 -18.6 2.15 -21.25 2.2 -23.95 1.05 -27.15 -0.2 -29.4 -2.5 -29.2 L-2.7 -29.15 -3.95 -27.75 -4.9 -23.0 Q-5.5 -19.75 -3.8 -16.0 -3.25 -14.75 -2.9 -12.75 L-2.75 -11.9 -2.65 -11.05 -2.8 -8.95 Q-3.0 -7.55 -3.4 -6.7 L-2.3 -5.6 -2.3 -5.55 -1.35 -5.45 -0.1 -5.4 Q-0.1 -3.8 1.4 -2.05 L-0.85 -0.5 Q-3.25 -1.4 -3.5 -1.6 L-4.55 -2.75 Q-2.25 -4.0 -2.3 -5.55" fill="none" stroke="#301820" stroke-linecap="round" stroke-linejoin="round" stroke-width="0.05"/>
  </g>
</svg>
