<?xml version="1.0" encoding="UTF-8" standalone="no"?>
<svg xmlns:xlink="http://www.w3.org/1999/xlink" height="23.75px" width="8.8px" xmlns="http://www.w3.org/2000/svg">
  <g transform="matrix(1.0, 0.0, 0.0, 1.0, 7.5, 0.6)">
    <path d="M-1.4 21.9 L-1.45 21.95 -1.4 21.9" fill="#537557" fill-rule="evenodd" stroke="none"/>
    <path d="M-4.3 17.25 L-4.3 16.9 Q-5.8 10.4 -4.1 3.75 -0.7 3.7 0.65 6.45 2.65 8.4 -1.3 21.5 L-1.25 20.55 Q-1.4 19.3 -2.3 18.35 -3.15 17.4 -4.2 17.25 L-4.3 17.25" fill="#643342" fill-rule="evenodd" stroke="none"/>
    <path d="M-6.05 3.95 L-4.1 3.75 Q-5.8 10.4 -4.3 16.9 L-4.3 17.25 Q-5.3 17.15 -5.9 17.85 L-6.45 18.95 Q-8.55 9.25 -6.45 4.0 L-6.05 3.95" fill="#783d4a" fill-rule="evenodd" stroke="none"/>
    <path d="M-6.45 18.95 L-5.9 17.85 Q-5.3 17.15 -4.3 17.25 L-4.2 17.25 Q-3.15 17.4 -2.3 18.35 -1.4 19.3 -1.25 20.55 L-1.3 21.5 -1.4 21.9 -1.45 21.95 -1.8 22.55 -2.5 23.05 -2.45 22.3 Q-2.55 21.45 -3.25 20.6 -3.9 19.75 -4.8 19.35 -5.65 19.0 -6.2 19.35 L-6.45 19.65 -6.45 18.95" fill="#8f495f" fill-rule="evenodd" stroke="none"/>
    <path d="M-2.5 23.05 L-3.55 23.1 Q-4.65 23.0 -5.5 22.0 -6.3 21.05 -6.45 19.8 L-6.45 19.65 -6.2 19.35 Q-5.65 19.0 -4.8 19.35 -3.9 19.75 -3.25 20.6 -2.55 21.45 -2.45 22.3 L-2.5 23.05" fill="#a95670" fill-rule="evenodd" stroke="none"/>
    <path d="M-4.1 3.75 L-6.05 3.95 -5.4 0.15 -4.45 -0.45 Q-1.9 -1.0 -0.5 0.35 -0.5 2.0 0.65 6.45 -0.7 3.7 -4.1 3.75" fill="#4b2735" fill-rule="evenodd" stroke="none"/>
    <path d="M-4.1 3.75 L-6.05 3.95 -6.45 4.0 Q-8.55 9.25 -6.45 18.95 L-5.9 17.85 Q-5.3 17.15 -4.3 17.25 L-4.3 16.9 Q-5.8 10.4 -4.1 3.75 -0.7 3.7 0.65 6.45 -0.5 2.0 -0.5 0.35 -1.9 -1.0 -4.45 -0.45 L-5.4 0.15 -6.05 3.95 M-4.3 17.25 L-4.2 17.25 Q-3.15 17.4 -2.3 18.35 -1.4 19.3 -1.25 20.55 L-1.3 21.5 Q2.65 8.4 0.65 6.45 M-6.45 19.65 L-6.45 19.8 Q-6.3 21.05 -5.5 22.0 -4.65 23.0 -3.55 23.1 L-2.5 23.05 -1.8 22.55 -1.45 21.95 -1.4 21.9 -1.45 21.95 M-6.45 19.65 L-6.45 18.95 M-1.4 21.9 L-1.3 21.5" fill="none" stroke="#301820" stroke-linecap="round" stroke-linejoin="round" stroke-width="0.05"/>
  </g>
</svg>
