<?xml version="1.0" encoding="UTF-8" standalone="no"?>
<svg xmlns:xlink="http://www.w3.org/1999/xlink" height="36.35px" width="20.7px" xmlns="http://www.w3.org/2000/svg">
  <g transform="matrix(1.0, 0.0, 0.0, 1.0, 10.75, 19.25)">
    <path d="M1.25 -8.5 L1.55 -6.95 1.0 -6.65 0.95 -6.7 0.95 -6.65 Q-2.1 -5.4 -5.1 -6.95 L-5.05 -8.8 -5.05 -8.85 -4.8 -10.4 -4.8 -11.45 -4.85 -12.35 -5.0 -14.55 -4.95 -14.8 -4.35 -17.0 -4.3 -17.2 Q-2.95 -20.35 -0.05 -18.65 0.35 -13.1 0.7 -11.25 L0.75 -10.9 1.25 -8.5" fill="#b547d6" fill-rule="evenodd" stroke="none"/>
    <path d="M-5.1 -6.95 Q-2.1 -5.4 0.95 -6.65 L0.95 -6.7 1.0 -6.65 1.9 -5.3 -7.1 -5.6 -7.1 -6.2 -5.1 -6.95" fill="#6da396" fill-rule="evenodd" stroke="none"/>
    <path d="M1.0 -6.65 L1.55 -6.95 1.25 -8.5 3.15 -7.8 3.25 -5.25 1.9 -5.3 1.0 -6.65 M-5.05 -8.8 L-5.1 -6.95 -7.1 -6.2 -7.2 -7.7 -5.05 -8.8" fill="#598c81" fill-rule="evenodd" stroke="none"/>
    <path d="M0.75 -10.9 L0.7 -11.25 Q0.35 -13.1 -0.05 -18.65 M-5.0 -14.55 L-4.85 -12.35 -4.8 -11.45 -4.8 -10.4 M-5.05 -8.8 L-5.1 -6.95" fill="none" stroke="#621d81" stroke-linecap="round" stroke-linejoin="round" stroke-width="0.05"/>
    <path d="M3.15 -7.8 L1.25 -8.5 M-5.05 -8.8 L-7.2 -7.7" fill="none" stroke="#39574e" stroke-linecap="round" stroke-linejoin="round" stroke-width="0.05"/>
    <path d="M0.6 -11.9 L0.5 -12.4 0.35 -13.9 1.3 -13.9 1.9 -13.9 3.4 -13.5 3.65 -13.15 Q3.7 -12.65 2.0 -12.2 L1.4 -12.05 1.0 -11.95 0.85 -11.95 0.6 -11.9 M-8.1 -12.4 Q-8.1 -12.75 -7.35 -13.05 L-6.4 -13.35 -5.6 -13.4 -5.3 -13.45 -5.05 -13.45 -4.9 -13.45 -4.8 -11.5 -4.8 -11.45 -4.8 -10.4 -5.05 -8.85 -5.1 -7.1 -6.5 -7.35 -7.4 -11.9 -8.05 -12.25 -8.1 -12.4" fill="#2e071a" fill-rule="evenodd" stroke="none"/>
    <path d="M4.65 -7.3 L6.1 -6.8 6.45 -6.65 7.6 -5.75 -0.4 5.4 -0.45 5.45 Q-2.5 4.5 -4.05 4.25 -4.7 7.9 -4.05 11.0 L-3.7 12.4 -3.65 12.4 -3.55 16.7 Q-7.5 15.85 -8.4 14.5 -8.55 13.0 -8.1 12.3 -7.5 11.7 -7.2 10.9 -6.9 10.0 -6.9 8.85 -8.9 9.75 -10.45 2.1 L-10.65 0.9 -10.75 -1.1 Q-10.7 -3.6 -9.65 -5.85 L-9.65 -5.9 -9.6 -6.1 -8.25 -7.25 -8.25 -10.95 -8.2 -11.35 -8.0 -11.2 -6.9 -6.95 -2.1 -6.15 -0.9 -10.75 0.4 -10.95 0.45 -10.95 0.95 -11.05 1.6 -5.25 1.6 -5.2 1.45 -5.15 0.9 -4.8 Q-5.55 -0.95 -7.95 -5.85 L-8.25 -6.5 -8.25 -5.6 Q-5.95 0.2 0.9 -3.9 L1.45 -4.25 1.7 -4.4 3.15 -5.4 3.35 -5.55 3.45 -5.65 4.1 -6.15 4.75 -6.65 4.75 -6.7 4.65 -7.3 M-8.25 -7.25 L-8.25 -6.5 -8.25 -7.25 M-9.15 3.1 L-9.35 4.5 -9.1 5.9 -8.6 6.5 -8.15 5.9 Q-7.9 5.35 -8.0 4.5 -8.0 3.65 -8.25 3.1 -8.5 2.6 -8.75 2.65 -9.0 2.6 -9.15 3.1 M-3.7 12.4 L-5.55 12.0 -6.0 10.95 -5.55 12.0 -3.7 12.4 M-9.65 -5.85 L-6.75 4.4 -4.05 4.25 -6.75 4.4 Q-7.75 5.9 -6.95 8.7 -7.75 5.9 -6.75 4.4 L-9.65 -5.85 M-6.9 8.85 L-6.95 8.7 -6.0 10.95 -6.95 8.7 -6.9 8.85" fill="#783d4a" fill-rule="evenodd" stroke="none"/>
    <path d="M3.85 -12.2 L4.6 -7.45 4.55 -7.45 3.35 -6.45 1.95 -5.45 1.7 -5.3 1.6 -5.25 0.95 -11.05 1.05 -11.1 3.1 -11.45 3.85 -12.2 M7.6 -5.75 L8.15 -5.45 8.45 -5.2 Q11.15 -2.95 9.05 5.5 7.85 8.4 6.2 9.75 5.05 10.65 3.7 10.8 3.9 12.75 6.25 13.8 6.6 14.7 6.3 15.4 4.25 16.45 2.15 16.85 L-1.45 17.05 -3.55 16.7 -3.65 12.4 -0.4 13.15 1.1 11.2 -0.4 13.15 -3.65 12.4 -3.7 12.4 -4.05 11.0 Q-4.7 7.9 -4.05 4.25 -2.5 4.5 -0.45 5.45 L-0.4 5.4 7.6 -5.75 M4.75 -6.7 L4.75 -6.65 4.1 -6.15 4.75 -6.7 M4.0 4.2 L3.4 3.7 Q3.1 3.75 2.85 4.35 2.6 4.9 2.6 5.75 2.65 6.6 2.95 7.25 L3.6 7.85 Q3.95 7.8 4.15 7.15 L4.4 5.65 4.0 4.2 M1.1 11.2 L2.85 8.9 3.7 10.8 2.85 8.9 1.1 11.2 M-0.4 5.4 Q0.45 6.0 1.15 6.7 L2.85 8.9 1.15 6.7 Q0.45 6.0 -0.4 5.4" fill="#643342" fill-rule="evenodd" stroke="none"/>
    <path d="M3.65 -13.15 L3.85 -12.2 3.1 -11.45 1.05 -11.1 1.0 -11.95 1.4 -12.05 2.0 -12.2 Q3.7 -12.65 3.65 -13.15 M4.6 -7.45 L4.65 -7.3 4.75 -6.7 4.1 -6.15 3.45 -5.65 3.35 -5.55 3.15 -5.4 1.7 -4.4 1.6 -5.2 1.6 -5.25 1.7 -5.3 1.95 -5.45 3.35 -6.45 4.55 -7.45 4.6 -7.45" fill="#b5918c" fill-rule="evenodd" stroke="none"/>
    <path d="M-8.15 -11.95 L-8.1 -12.4 -8.05 -12.25 -7.4 -11.9 -6.5 -7.35 -5.1 -7.1 -2.7 -6.75 -1.55 -11.65 0.6 -11.9 0.85 -11.95 1.0 -11.95 1.05 -11.1 0.95 -11.05 0.45 -10.95 0.4 -10.95 -0.9 -10.75 -2.1 -6.15 -6.9 -6.95 -8.0 -11.2 -8.2 -11.35 -8.15 -11.95 M1.7 -4.4 L1.45 -4.25 0.9 -3.9 Q-5.95 0.2 -8.25 -5.6 L-8.25 -6.5 -7.95 -5.85 Q-5.55 -0.95 0.9 -4.8 L1.45 -5.15 1.6 -5.2 1.7 -4.4" fill="#c1a49d" fill-rule="evenodd" stroke="none"/>
    <path d="M4.0 4.2 L4.4 5.65 4.15 7.15 Q3.95 7.8 3.6 7.85 L2.95 7.25 Q2.65 6.6 2.6 5.75 2.6 4.9 2.85 4.35 3.1 3.75 3.4 3.7 L4.0 4.2" fill="#aa5972" fill-rule="evenodd" stroke="none"/>
    <path d="M-9.15 3.1 Q-9.0 2.6 -8.75 2.65 -8.5 2.6 -8.25 3.1 -8.0 3.65 -8.0 4.5 -7.9 5.35 -8.15 5.9 L-8.6 6.5 -9.1 5.9 -9.35 4.5 -9.15 3.1" fill="#b8768a" fill-rule="evenodd" stroke="none"/>
    <path d="M0.35 -13.9 L1.3 -13.9 1.9 -13.9 3.4 -13.5 3.65 -13.15 3.85 -12.2 4.6 -7.45 4.65 -7.3 4.75 -6.7 4.75 -6.65 M2.15 16.85 L-1.45 17.05 -3.55 16.7 Q-7.5 15.85 -8.4 14.5 -8.55 13.0 -8.1 12.3 -7.5 11.7 -7.2 10.9 M-8.15 -11.95 L-8.1 -12.4 Q-8.1 -12.75 -7.35 -13.05 L-6.4 -13.35 -5.6 -13.4 -5.3 -13.45 -5.05 -13.45 M-1.55 -11.65 L0.6 -11.9 0.85 -11.95 1.0 -11.95 1.4 -12.05 2.0 -12.2 Q3.7 -12.65 3.65 -13.15 M4.0 4.2 L4.4 5.65 4.15 7.15 Q3.95 7.8 3.6 7.85 L2.95 7.25 Q2.65 6.6 2.6 5.75 2.6 4.9 2.85 4.35 3.1 3.75 3.4 3.7 L4.0 4.2 M1.1 11.2 L-0.4 13.15 -3.65 12.4 -3.7 12.4 -4.05 11.0 M-8.05 -12.25 L-7.4 -11.9 M-9.15 3.1 Q-9.0 2.6 -8.75 2.65 -8.5 2.6 -8.25 3.1 -8.0 3.65 -8.0 4.5 -7.9 5.35 -8.15 5.9 L-8.6 6.5 -9.1 5.9 -9.35 4.5 -9.15 3.1 M-6.0 10.95 L-5.55 12.0 -3.7 12.4" fill="none" stroke="#301820" stroke-linecap="round" stroke-linejoin="round" stroke-width="0.05"/>
    <path d="M4.65 -7.3 L6.1 -6.8 6.45 -6.65 7.6 -5.75 8.15 -5.45 8.45 -5.2 Q11.15 -2.95 9.05 5.5 7.85 8.4 6.2 9.75 5.05 10.65 3.7 10.8 3.9 12.75 6.25 13.8 6.6 14.7 6.3 15.4 4.25 16.45 2.15 16.85 M-7.2 10.9 Q-6.9 10.0 -6.9 8.85 -8.9 9.75 -10.45 2.1 L-10.65 0.9 -10.75 -1.1 Q-10.7 -3.6 -9.65 -5.85 L-9.65 -5.9 -9.6 -6.1 -8.25 -7.25 -8.25 -10.95 -8.15 -11.95 M-5.05 -13.45 L-4.9 -13.45 M-5.1 -7.1 L-2.7 -6.75 -1.55 -11.65 M4.75 -6.65 L4.75 -6.7 4.1 -6.15 3.45 -5.65 3.35 -5.55 3.15 -5.4 1.7 -4.4 1.45 -4.25 0.9 -3.9 Q-5.95 0.2 -8.25 -5.6 L-8.25 -6.5 -8.25 -7.25 M3.7 10.8 L2.85 8.9 1.1 11.2 M2.85 8.9 L1.15 6.7 Q0.45 6.0 -0.4 5.4 L-0.45 5.45 Q-2.5 4.5 -4.05 4.25 -4.7 7.9 -4.05 11.0 M-7.4 -11.9 L-6.5 -7.35 -5.1 -7.1 M-6.0 10.95 L-6.95 8.7 -6.9 8.85 M-4.05 4.25 L-6.75 4.4 Q-7.75 5.9 -6.95 8.7 M-6.75 4.4 L-9.65 -5.85 M7.6 -5.75 L-0.4 5.4" fill="none" stroke="#301820" stroke-linecap="round" stroke-linejoin="round" stroke-width="0.05"/>
    <path d="M-5.5 -1.15 L-3.4 -0.95 -2.5 0.65 -3.35 1.6 -5.25 1.2 -5.9 -0.25 -5.5 -1.15 M-1.95 1.2 L-1.3 2.4 -2.5 3.75 Q-2.25 2.75 -2.8 2.15 L-1.95 1.2 M-5.5 3.3 L-6.95 1.6 -6.25 0.15 -5.6 1.6 Q-6.15 1.95 -5.5 3.3" fill="#d3d301" fill-rule="evenodd" stroke="none"/>
  </g>
</svg>
