<?xml version="1.0" encoding="UTF-8" standalone="no"?>
<svg xmlns:xlink="http://www.w3.org/1999/xlink" height="16.65px" width="13.45px" xmlns="http://www.w3.org/2000/svg">
  <g transform="matrix(1.0, 0.0, 0.0, 1.0, 5.3, 9.55)">
    <path d="M0.65 1.0 Q-0.4 0.9 -1.15 -0.4 L-0.15 -1.1 0.05 -1.2 1.15 -1.35 Q2.0 -0.85 2.35 0.05 L2.35 0.1 1.9 0.75 0.9 1.0 0.85 1.0 0.65 1.0 M0.7 -0.7 L0.65 -0.5 0.6 0.05 0.65 0.15 0.7 0.5 0.75 0.75 0.85 0.5 0.9 0.15 0.9 0.05 0.8 -0.5 0.7 -0.7 M-4.55 -1.3 L-4.45 -1.95 Q-4.35 -2.4 -3.85 -2.3 -3.15 -2.2 -2.5 -0.95 L-2.4 -0.7 -2.95 0.05 -3.15 0.1 -3.25 0.1 -3.85 -0.25 -4.5 -1.05 -4.55 -1.3 M-3.7 -1.5 L-3.75 -1.05 -3.75 -1.0 -3.65 -0.6 -3.65 -0.55 -3.6 -0.4 -3.5 -0.6 -3.5 -1.0 -3.55 -1.5 -3.65 -1.65 -3.7 -1.5" fill="#ff0000" fill-rule="evenodd" stroke="none"/>
    <path d="M0.65 -0.5 L0.7 -0.7 0.8 -0.5 0.9 0.05 0.9 0.15 0.85 0.5 0.75 0.75 0.7 0.5 0.65 0.15 0.6 0.05 0.65 -0.5 M-3.65 -0.6 L-3.75 -1.0 -3.75 -1.05 -3.7 -1.5 -3.65 -1.65 -3.55 -1.5 -3.5 -1.0 -3.5 -0.6 -3.6 -0.4 -3.65 -0.55 -3.65 -0.6" fill="#5f0000" fill-rule="evenodd" stroke="none"/>
    <path d="M-0.05 3.4 L0.0 3.35 -0.05 3.45 -0.05 3.4" fill="#eff5f3" fill-rule="evenodd" stroke="none"/>
    <path d="M-2.55 6.0 L-2.85 5.65 -3.05 4.4 -3.3 3.35 -3.85 1.7 -4.55 -0.4 -4.15 -0.05 -3.25 0.1 -3.15 0.1 -2.95 0.05 -2.4 -0.7 -2.5 -0.95 Q-3.15 -2.2 -3.85 -2.3 -4.35 -2.4 -4.45 -1.95 L-4.55 -1.3 -4.7 -2.05 -4.75 -2.1 -4.85 -2.9 Q-4.85 -5.75 -3.3 -7.75 L-2.6 -8.5 -1.7 -8.75 -1.1 -8.7 -0.05 -8.65 Q2.8 -8.2 4.6 -6.05 5.15 -5.35 5.7 -3.55 6.2 -1.8 4.85 -0.85 L3.95 0.05 4.0 0.1 3.9 0.1 3.8 0.1 2.7 0.15 2.65 0.0 Q2.4 -1.1 1.3 -1.3 L1.15 -1.35 0.05 -1.2 -0.15 -1.1 -1.15 -0.4 Q-0.4 0.9 0.65 1.0 L0.85 1.0 0.9 1.05 2.3 1.45 2.5 1.45 Q1.7 2.65 1.1 4.35 L0.2 4.8 0.0 4.9 -0.3 5.1 -0.1 4.0 -0.3 5.1 -0.5 6.1 -1.2 5.9 -1.45 6.15 -2.55 6.0 M-3.2 2.8 L-3.0 2.4 -2.95 1.5 -3.0 2.4 -3.2 2.8 -3.35 3.15 -2.75 3.95 -2.35 3.1 -1.35 3.45 -1.1 4.65 -0.1 4.0 -0.05 3.45 0.0 3.95 0.0 3.35 0.0 3.95 -0.05 3.45 0.0 3.35 -0.05 3.4 -0.15 1.8 -0.8 2.15 -0.15 1.8 -0.05 3.4 -0.8 4.0 -0.9 3.25 -2.55 2.65 -2.75 3.15 -3.2 2.8 M-2.95 1.5 L-2.95 1.45 -3.0 1.45 -2.95 1.5 M-2.6 5.55 Q-1.95 6.1 -1.2 5.9 -1.95 6.1 -2.6 5.55" fill="#ca7de1" fill-rule="evenodd" stroke="none"/>
    <path d="M-2.6 -8.5 L-2.35 -8.75 -0.8 -9.4 -0.3 -9.5 0.35 -9.5 1.5 -9.4 Q4.6 -8.95 6.6 -6.6 L7.75 -3.85 Q8.3 -1.9 6.85 -0.85 5.7 0.45 4.65 1.1 3.6 2.55 2.75 4.85 1.2 5.4 -0.05 6.8 L-1.8 6.45 -2.55 6.0 -1.45 6.15 -1.2 5.9 -0.5 6.1 -0.3 5.1 0.0 4.9 0.2 4.8 1.1 4.35 Q1.7 2.65 2.5 1.45 L2.3 1.45 0.9 1.05 0.9 1.0 1.9 0.75 2.35 0.1 2.35 0.05 Q2.0 -0.85 1.15 -1.35 L1.3 -1.3 Q2.4 -1.1 2.65 0.0 L2.7 0.15 3.8 0.1 3.9 0.1 4.0 0.1 3.95 0.05 4.85 -0.85 Q6.2 -1.8 5.7 -3.55 5.15 -5.35 4.6 -6.05 2.8 -8.2 -0.05 -8.65 L-1.1 -8.7 -1.7 -8.75 -2.6 -8.5 M-4.55 -0.4 L-4.55 -0.5 -4.65 -1.05 -4.75 -1.75 -4.7 -2.05 -4.55 -1.3 -4.5 -1.05 -3.85 -0.25 -3.25 0.1 -4.15 -0.05 -4.55 -0.4 M6.85 -0.85 Q5.9 -0.05 4.0 0.1 5.9 -0.05 6.85 -0.85 M-3.2 2.8 L-2.75 3.15 -2.55 2.65 -0.9 3.25 -0.8 4.0 -0.05 3.4 -0.05 3.45 -0.1 4.0 -1.1 4.65 -1.35 3.45 -2.35 3.1 -2.75 3.95 -3.35 3.15 -3.2 2.8" fill="#b547d6" fill-rule="evenodd" stroke="none"/>
    <path d="M-2.6 -8.5 L-2.35 -8.75 -0.8 -9.4 -0.3 -9.5 0.35 -9.5 1.5 -9.4 Q4.6 -8.95 6.6 -6.6 L7.75 -3.85 Q8.3 -1.9 6.85 -0.85 5.7 0.45 4.65 1.1 3.6 2.55 2.75 4.85 1.2 5.4 -0.05 6.8 L-1.8 6.45 -2.55 6.0 -2.85 5.65 -3.05 4.4 -3.3 3.35 -3.85 1.7 -4.55 -0.4 -4.55 -0.5 -4.65 -1.05 -4.75 -1.75 -4.7 -2.05 -4.75 -2.1 -4.85 -2.9 Q-4.85 -5.75 -3.3 -7.75 L-2.6 -8.5 M4.0 0.1 Q5.9 -0.05 6.85 -0.85 M0.65 1.0 Q-0.4 0.9 -1.15 -0.4 L-0.15 -1.1 0.05 -1.2 1.15 -1.35 1.3 -1.3 Q2.4 -1.1 2.65 0.0 L2.7 0.15 3.8 0.1 3.9 0.1 4.0 0.1 M0.65 -0.5 L0.7 -0.7 M0.75 0.75 L0.7 0.5 M-3.15 0.1 L-2.95 0.05 -2.4 -0.7 -2.5 -0.95 Q-3.15 -2.2 -3.85 -2.3 -4.35 -2.4 -4.45 -1.95 L-4.55 -1.3 -4.5 -1.05 -4.55 -1.3 -4.7 -2.05 M-3.7 -1.5 L-3.65 -1.65 M-3.6 -0.4 L-3.65 -0.55 -3.65 -0.6 M-0.05 3.4 L-0.15 1.8 -0.8 2.15 M-2.95 1.5 L-3.0 2.4 -3.2 2.8 -2.75 3.15 -2.55 2.65 -0.9 3.25 -0.8 4.0 -0.05 3.4 0.0 3.35 0.0 3.95 -0.05 3.45 -0.1 4.0 -0.3 5.1 -0.5 6.1 -1.2 5.9 Q-1.95 6.1 -2.6 5.55 M-2.95 1.5 L-2.95 1.45 M0.0 3.35 L-0.05 3.45 -0.05 3.4 M0.9 1.0 L0.85 1.0" fill="none" stroke="#621d81" stroke-linecap="round" stroke-linejoin="round" stroke-width="0.05"/>
    <path d="M-3.65 -0.4 L-4.7 -2.05 Q-3.55 -2.2 -2.8 -0.85 -3.25 -0.65 -3.65 -0.4 M4.45 -0.9 L1.3 0.8 -0.45 -0.45 Q1.9 -1.35 4.45 -0.9" fill="#000000" fill-rule="evenodd" stroke="none"/>
    <path d="M5.45 1.35 L4.65 3.15 Q2.6 3.95 0.45 3.65 L-0.5 1.65 5.45 1.35 M-3.3 0.7 L-3.55 2.5 Q-4.1 2.2 -4.3 1.45 L-4.35 0.05 -3.3 0.7" fill="#66cc66" fill-rule="evenodd" stroke="none"/>
    <path d="M8.15 -2.75 Q8.15 -0.75 6.65 0.85 L6.0 1.1 5.25 3.2 4.5 3.5 Q2.25 7.35 -1.65 7.1 -2.25 6.9 -2.75 6.1 L-3.1 5.55 -4.2 2.55 -4.75 1.65 -4.75 -0.3 -4.9 -0.5 -5.05 -0.75 Q-5.55 -2.75 -5.05 -4.65 L-4.2 -6.3 Q-1.3 -2.85 7.45 -4.85 8.05 -3.85 8.15 -2.75 M5.45 1.35 L5.8 1.2 6.0 1.1 5.8 1.2 5.45 1.35 -0.5 1.65 0.45 3.65 Q2.6 3.95 4.65 3.15 L5.45 1.35 M-1.15 1.45 L-0.5 1.65 -1.15 1.45 -1.95 1.15 -2.05 1.1 -2.5 1.0 Q-2.95 1.75 -3.2 3.3 L-2.95 4.55 Q-2.6 5.55 -1.95 5.7 L-1.9 5.75 Q-0.6 6.2 -0.3 5.15 -0.2 4.7 -0.25 3.95 -0.75 2.1 -1.15 1.45 M-3.3 0.7 L-2.5 1.0 -3.3 0.7 -4.35 0.05 -4.3 1.45 Q-4.1 2.2 -3.55 2.5 L-3.3 0.7 M-4.75 -0.3 L-4.35 0.05 -4.75 -0.3 M4.45 -0.9 Q1.9 -1.35 -0.45 -0.45 L1.3 0.8 4.45 -0.9 M-3.65 -0.4 Q-3.25 -0.65 -2.8 -0.85 -3.55 -2.2 -4.7 -2.05 L-3.65 -0.4" fill="#333333" fill-rule="evenodd" stroke="none"/>
    <path d="M8.15 -2.75 Q8.15 -0.75 6.65 0.85 L6.0 1.1 5.25 3.2 4.5 3.5 Q2.25 7.35 -1.65 7.1 -2.25 6.9 -2.75 6.1 L-3.1 5.55 -4.2 2.55 -4.75 1.65 -4.75 -0.3 -4.9 -0.5 -5.05 -0.75 Q-5.55 -2.75 -5.05 -4.65 L-4.2 -6.3 Q-1.3 -2.85 7.45 -4.85 8.05 -3.85 8.15 -2.75 M6.0 1.1 L5.8 1.2 5.45 1.35 -0.5 1.65 -1.15 1.45 -1.95 1.15 -2.05 1.1 -2.5 1.0 -3.3 0.7 -4.35 0.05 -4.75 -0.3 M-1.9 5.75 L-1.95 5.7 M4.45 -0.9 Q1.9 -1.35 -0.45 -0.45 L1.3 0.8 4.45 -0.9 M-3.65 -0.4 Q-3.25 -0.65 -2.8 -0.85 -3.55 -2.2 -4.7 -2.05 L-3.65 -0.4" fill="none" stroke="#68561c" stroke-linecap="round" stroke-linejoin="round" stroke-width="0.05"/>
    <path d="M-3.75 -7.0 L-3.55 -6.5 -3.4 -5.7 Q-3.45 -5.25 -3.8 -5.2 L-4.4 -5.3 -4.9 -5.95 -5.1 -6.5 -4.8 -6.4 -4.35 -6.5 Q-4.05 -6.6 -3.9 -6.75 L-3.75 -7.0" fill="#333333" fill-rule="evenodd" stroke="none"/>
    <path d="M-5.1 -6.5 L-5.05 -6.6 -4.95 -6.8 -4.6 -7.05 -4.05 -7.2 -4.0 -7.2 -3.75 -7.0 -3.9 -6.75 Q-4.05 -6.6 -4.35 -6.5 L-4.8 -6.4 -5.1 -6.5" fill="#4f4f4f" fill-rule="evenodd" stroke="none"/>
    <path d="M-5.1 -6.5 L-5.05 -6.6 -4.95 -6.8 -4.6 -7.05 -4.05 -7.2 -4.0 -7.2 -3.75 -7.0 -3.55 -6.5 -3.4 -5.7 Q-3.45 -5.25 -3.8 -5.2 L-4.4 -5.3 -4.9 -5.95 -5.1 -6.5 -4.8 -6.4 -4.35 -6.5 Q-4.05 -6.6 -3.9 -6.75 L-3.75 -7.0" fill="none" stroke="#68561c" stroke-linecap="round" stroke-linejoin="round" stroke-width="0.05"/>
    <path d="M3.65 -5.7 L3.7 -5.4 4.05 -5.1 Q4.3 -4.9 4.5 -4.95 L4.75 -4.95 4.55 -4.45 3.95 -3.9 3.35 -3.85 Q3.05 -4.05 3.05 -4.45 L3.3 -5.25 3.65 -5.7" fill="#333333" fill-rule="evenodd" stroke="none"/>
    <path d="M4.75 -4.95 L4.5 -4.95 Q4.3 -4.9 4.05 -5.1 L3.7 -5.4 3.65 -5.7 3.75 -5.75 3.95 -5.8 4.35 -5.65 4.8 -5.3 4.8 -5.25 4.75 -4.95" fill="#4f4f4f" fill-rule="evenodd" stroke="none"/>
    <path d="M4.75 -4.95 L4.5 -4.95 Q4.3 -4.9 4.05 -5.1 L3.7 -5.4 3.65 -5.7 3.3 -5.25 3.05 -4.45 Q3.05 -4.05 3.35 -3.85 L3.95 -3.9 4.55 -4.45 4.75 -4.95 4.8 -5.25 4.8 -5.3 4.35 -5.65 3.95 -5.8 3.75 -5.75 3.65 -5.7" fill="none" stroke="#68561c" stroke-linecap="round" stroke-linejoin="round" stroke-width="0.05"/>
  </g>
</svg>
