<?xml version="1.0" encoding="UTF-8" standalone="no"?>
<svg xmlns:xlink="http://www.w3.org/1999/xlink" height="16.9px" width="24.45px" xmlns="http://www.w3.org/2000/svg">
  <g transform="matrix(1.0, 0.0, 0.0, 1.0, 30.6, 18.15)">
    <path d="M-28.2 -11.1 Q-30.55 -9.4 -30.6 -6.95 -30.65 -4.5 -28.45 -2.8 -26.15 -1.15 -22.9 -1.25 -19.9 -1.25 -17.6 -2.85 L-17.4 -3.05 -16.95 -3.4 -16.15 -4.2 Q-15.05 -5.65 -14.95 -7.3 -14.95 -9.65 -17.2 -11.35 -19.45 -13.0 -22.65 -13.0 L-23.9 -12.85 -24.9 -12.7 -26.75 -12.1 -26.85 -12.0 -27.35 -11.7 -28.2 -11.1" fill="#aa8a79" fill-rule="evenodd" stroke="none"/>
    <path d="M-17.4 -3.05 L-17.35 -3.0 -14.7 -4.2 Q-12.15 -9.05 -14.95 -12.05 -17.8 -15.15 -24.6 -13.55 -25.3 -13.05 -25.95 -12.7 L-26.0 -12.65 -26.85 -12.05 -27.35 -11.7 -26.85 -12.0 -26.75 -12.1 -24.9 -12.7 -23.9 -12.85 -22.65 -13.0 Q-19.45 -13.0 -17.2 -11.35 -14.95 -9.65 -14.95 -7.3 -15.05 -5.65 -16.15 -4.2 L-16.95 -3.4 -17.4 -3.05 M-25.95 -12.7 L-26.0 -12.65 -26.75 -12.1 -26.0 -12.65 -25.95 -12.7 M-26.85 -12.0 L-26.85 -12.05 -26.85 -12.0 M-11.7 -5.55 Q-9.7 -6.4 -9.35 -6.65 -6.4 -8.9 -6.15 -11.75 -5.95 -14.55 -8.45 -16.45 -10.95 -18.3 -14.7 -18.15 -18.1 -17.9 -20.85 -16.1 L-21.3 -15.8 -23.55 -14.25 Q-15.6 -15.55 -13.6 -12.15 -11.6 -8.8 -13.75 -4.6 L-13.45 -4.75 -13.05 -4.9 -11.85 -5.5 -11.7 -5.55" fill="#95715e" fill-rule="evenodd" stroke="none"/>
    <path d="M-28.2 -11.1 Q-30.55 -9.4 -30.6 -6.95 -30.65 -4.5 -28.45 -2.8 -26.15 -1.15 -22.9 -1.25 -19.9 -1.25 -17.6 -2.85 L-17.4 -3.05 M-11.7 -5.55 Q-9.7 -6.4 -9.35 -6.65 -6.4 -8.9 -6.15 -11.75 -5.95 -14.55 -8.45 -16.45 -10.95 -18.3 -14.7 -18.15 -18.1 -17.9 -20.85 -16.1 L-21.3 -15.8" fill="none" stroke="#553e35" stroke-linecap="round" stroke-linejoin="round" stroke-width="0.05"/>
    <path d="M-26.85 -12.05 L-27.35 -11.7 -28.2 -11.1 M-26.85 -12.0 L-26.75 -12.1 -26.0 -12.65 -25.95 -12.7 M-26.85 -12.05 L-26.85 -12.0 M-21.3 -15.8 L-23.55 -14.25 M-13.75 -4.6 L-13.45 -4.75 -13.05 -4.9 -11.85 -5.5 -11.7 -5.55" fill="none" stroke="#553e35" stroke-linecap="round" stroke-linejoin="round" stroke-width="0.05"/>
    <path d="M-20.7 -16.15 Q-23.7 -15.75 -23.95 -14.0 L-21.75 -15.45 Q-14.8 -17.0 -11.8 -13.75 -8.75 -10.6 -11.25 -5.7 -11.8 -5.45 -13.9 -4.5 L-14.2 -4.4 Q-11.45 -5.0 -10.3 -6.1 -8.25 -10.35 -10.4 -13.85 -12.6 -17.35 -20.7 -16.15" fill="#b19d2e" fill-rule="evenodd" stroke="none"/>
    <path d="M-21.75 -15.45 L-23.95 -14.0 Q-23.7 -15.75 -20.7 -16.15 M-10.3 -6.1 Q-11.45 -5.0 -14.2 -4.4 L-13.9 -4.5 Q-11.8 -5.45 -11.25 -5.7" fill="none" stroke="#553e35" stroke-linecap="round" stroke-linejoin="round" stroke-width="0.05"/>
    <path d="M-20.7 -16.15 Q-12.6 -17.35 -10.4 -13.85 -8.25 -10.35 -10.3 -6.1 M-11.25 -5.7 Q-8.75 -10.6 -11.8 -13.75 -14.8 -17.0 -21.75 -15.45 Z" fill="none" stroke="#553e35" stroke-linecap="round" stroke-linejoin="round" stroke-width="0.05"/>
    <path d="M-23.55 -14.25 Q-26.55 -13.75 -26.85 -12.05 L-24.6 -13.55 Q-17.8 -15.15 -14.95 -12.05 -12.15 -9.05 -14.7 -4.2 L-17.35 -3.0 -17.6 -2.85 Q-14.9 -3.5 -13.75 -4.6 -11.6 -8.8 -13.6 -12.15 -15.6 -15.55 -23.55 -14.25" fill="#b19d2e" fill-rule="evenodd" stroke="none"/>
    <path d="M-24.6 -13.55 L-26.85 -12.05 Q-26.55 -13.75 -23.55 -14.25 M-13.75 -4.6 Q-14.9 -3.5 -17.6 -2.85 L-17.35 -3.0 -14.7 -4.2" fill="none" stroke="#553e35" stroke-linecap="round" stroke-linejoin="round" stroke-width="0.05"/>
    <path d="M-23.55 -14.25 Q-15.6 -15.55 -13.6 -12.15 -11.6 -8.8 -13.75 -4.6 M-14.7 -4.2 Q-12.15 -9.05 -14.95 -12.05 -17.8 -15.15 -24.6 -13.55 Z" fill="none" stroke="#553e35" stroke-linecap="round" stroke-linejoin="round" stroke-width="0.05"/>
  </g>
</svg>
