<?xml version="1.0" encoding="UTF-8" standalone="no"?>
<svg xmlns:xlink="http://www.w3.org/1999/xlink" height="91.1px" width="149.45px" xmlns="http://www.w3.org/2000/svg">
  <g transform="matrix(1.0, 0.0, 0.0, 1.0, 74.05, 27.35)">
    <path d="M8.2 62.55 L1.45 59.65 -1.0 58.6 -4.75 57.0 -7.95 55.65 -11.65 54.05 -15.2 52.55 -18.6 51.1 -19.75 50.6 Q-20.35 71.1 -25.35 59.7 L-27.3 54.55 -28.5 50.8 -28.55 50.6 -33.4 45.6 -35.95 42.95 -37.85 41.0 -23.25 6.35 -22.0 9.4 -21.45 10.7 -20.35 13.25 -19.45 15.3 -18.35 17.65 -17.55 19.4 -17.95 20.15 -17.55 19.4 -16.7 21.3 -14.5 25.75 -12.55 29.6 -10.45 33.55 -9.2 35.85 -6.2 41.0 -3.95 44.75 -1.35 48.85 -4.75 57.0 -1.35 48.85 1.45 53.05 3.15 55.55 8.2 62.55 M1.45 59.65 L3.15 55.55 1.45 59.65 M-42.9 -0.35 L-46.85 -1.0 -34.25 -16.25 -33.35 -16.3 -34.25 -16.25 -46.85 -1.0 Q-52.2 -0.8 -53.85 6.6 L-64.9 25.4 -53.85 6.6 -53.85 6.7 Q-54.45 9.35 -54.55 12.85 L-50.2 14.7 Q-47.15 15.6 -45.85 14.05 -40.95 14.1 -38.35 10.25 -36.6 7.6 -35.25 3.7 -34.45 4.2 -33.6 4.85 -34.45 4.2 -35.25 3.7 -36.25 3.0 -37.15 2.45 -40.35 0.5 -42.9 -0.35 L-32.65 -14.7 -33.2 -14.8 -32.65 -14.7 -42.9 -0.35 M-35.6 -20.55 L-33.35 -16.3 -32.6 -14.75 -32.65 -14.7 -32.6 -14.7 -32.65 -14.7 -32.6 -14.75 -32.6 -14.7 -30.05 -9.3 -28.4 -5.7 -26.5 -1.3 -25.4 1.3 -23.25 6.35 -37.85 41.0 -40.9 37.85 -41.6 37.15 -48.55 42.15 -30.75 7.05 -48.55 42.15 -52.3 44.85 -52.8 49.3 Q-54.25 60.7 -55.3 49.3 -55.7 45.4 -55.6 38.65 L-45.85 14.05 -55.6 38.65 -55.45 31.4 -64.9 25.4 -67.9 23.5 Q-48.3 -9.15 -35.6 -20.55 -48.3 -9.15 -67.9 23.5 L-70.95 21.55 -72.8 20.35 -74.05 19.55 -73.75 19.2 Q-69.05 13.35 -62.05 1.3 L-52.8 -14.95 Q-47.0 -21.8 -39.15 -25.6 L-37.75 -24.05 Q-44.8 -20.8 -49.35 -14.75 L-72.8 20.35 -49.35 -14.75 Q-44.8 -20.8 -37.75 -24.05 L-36.55 -22.2 -35.6 -20.55 M-30.05 -9.3 L-37.15 2.45 -30.05 -9.3 M-19.7 15.8 L-19.45 15.3 -19.7 15.8 M-26.35 10.8 Q-27.5 9.75 -28.6 8.85 -27.5 9.75 -26.35 10.8 M-28.6 8.85 L-25.4 1.3 -28.6 8.85 -30.75 7.05 -28.6 8.85 -40.9 37.85 -28.6 8.85 M-33.6 4.85 L-30.75 7.05 -33.6 4.85 -55.1 48.25 -33.6 4.85 -28.4 -5.7 -33.6 4.85 M-15.2 52.55 L-9.2 35.85 -15.2 52.55 M-7.95 55.65 L-3.95 44.75 -7.95 55.65 M-18.6 51.1 L-10.45 33.55 -18.6 51.1 M-33.4 45.6 L-20.35 13.25 -33.4 45.6 M-21.45 10.7 L-35.95 42.95 -21.45 10.7 M-30.85 47.1 L-18.35 17.65 -30.85 47.1 M-54.5 17.35 L-54.55 14.85 -54.55 12.85 -54.55 14.85 -54.5 17.35 M-16.7 21.3 L-28.5 50.8 -16.7 21.3 M-62.1 26.8 L-54.55 14.85 -62.1 26.8 M-57.9 29.45 L-50.2 14.7 -57.9 29.45 M-14.5 25.75 L-27.3 54.55 -14.5 25.75 M-70.95 21.55 Q-41.55 -22.65 -36.55 -22.2 -41.55 -22.65 -70.95 21.55 M-30.75 7.05 L-26.5 -1.3 -30.75 7.05 M-12.55 29.6 L-25.35 59.7 -12.55 29.6 M-6.2 41.0 L-11.65 54.05 -6.2 41.0 M-1.0 58.6 L1.45 53.05 -1.0 58.6" fill="url(#gradient0)" fill-rule="evenodd" stroke="none"/>
    <path d="M-47.5 -0.2 L-46.85 -1.0 -47.5 -0.2 M-46.85 -1.0 L-42.9 -0.35 -43.15 -0.05 -42.9 -0.35 Q-40.35 0.5 -37.15 2.45 -36.25 3.0 -35.25 3.7 -36.6 7.6 -38.35 10.25 -40.95 14.1 -45.85 14.05 L-42.1 9.6 -45.85 14.05 Q-47.15 15.6 -50.2 14.7 L-54.55 12.85 Q-54.45 9.35 -53.85 6.7 L-53.85 6.6 Q-52.2 -0.8 -46.85 -1.0 M-37.3 2.7 L-37.15 2.45 -37.3 2.7" fill="url(#gradient1)" fill-rule="evenodd" stroke="none"/>
    <path d="M0.25 -0.2 L0.25 -6.4 0.25 -0.2 M0.25 -6.4 Q1.9 -4.1 2.95 -1.65 L4.25 2.4 Q5.0 5.85 4.7 9.6 4.45 12.2 3.7 14.95 L2.65 14.1 2.8 13.85 2.65 14.1 Q1.25 13.1 -0.6 12.35 L-1.0 8.35 Q-1.35 3.9 -1.3 0.35 -1.25 -4.35 -0.5 -7.4 L0.25 -6.4 M3.6 3.35 L4.25 2.4 3.6 3.35 M2.0 1.95 L2.95 -1.65 2.0 1.95" fill="url(#gradient2)" fill-rule="evenodd" stroke="none"/>
    <path d="M46.85 14.05 Q50.25 17.0 51.95 21.05 L46.85 14.05 51.95 21.05 Q53.3 24.3 53.45 28.3 L49.1 28.25 46.7 27.95 Q43.9 27.4 41.95 26.2 38.75 24.2 37.85 20.45 37.25 18.1 37.6 15.15 L37.95 12.65 38.8 9.35 Q43.6 11.25 46.85 14.05 M46.7 27.95 L37.6 15.15 46.7 27.95" fill="url(#gradient3)" fill-rule="evenodd" stroke="none"/>
    <path d="M48.0 -1.55 Q70.6 3.85 75.3 26.5 L75.4 27.05 73.7 28.75 71.05 30.9 67.5 33.4 63.0 36.15 57.1 39.5 52.95 41.7 50.15 43.15 47.2 44.6 42.85 46.75 40.0 48.15 33.2 51.35 29.5 53.05 22.05 56.45 17.55 58.45 14.35 59.9 11.3 61.2 8.25 62.55 Q8.65 59.0 9.35 56.05 L9.45 55.55 10.35 52.25 11.65 48.85 Q13.3 45.25 15.7 43.5 L16.0 43.3 Q18.6 41.5 22.0 41.95 L22.25 39.9 22.65 36.9 22.7 36.55 23.15 33.55 23.15 33.4 Q24.45 25.5 26.5 19.4 28.25 14.1 30.55 10.2 31.85 7.9 33.35 6.1 35.4 3.5 37.9 1.8 L41.8 7.1 37.9 1.8 Q42.35 -1.35 48.0 -1.55 M41.8 7.1 L47.2 7.55 41.8 7.1 46.85 14.05 41.8 7.1 Q39.35 7.5 38.8 9.35 39.35 7.5 41.8 7.1 M51.95 21.05 Q50.25 17.0 46.85 14.05 43.6 11.25 38.8 9.35 L37.95 12.65 37.6 15.15 Q37.25 18.1 37.85 20.45 38.75 24.2 41.95 26.2 43.9 27.4 46.7 27.95 L49.1 28.25 53.45 28.3 Q53.3 24.3 51.95 21.05 L57.05 28.0 51.95 21.05 M61.65 27.3 L57.05 28.0 61.65 27.3 M57.05 28.0 L53.45 28.3 57.05 28.0 63.0 36.15 57.05 28.0 M46.95 28.25 L46.7 27.95 46.95 28.25 M54.75 1.2 L73.7 28.75 54.75 1.2 M43.7 0.4 L67.5 33.4 43.7 0.4 M75.3 26.5 L61.5 4.95 75.3 26.5 M41.95 26.2 L52.95 41.7 41.95 26.2 M57.1 39.5 L49.1 28.25 57.1 39.5 M37.95 12.65 L33.35 6.1 37.95 12.65 M37.85 20.45 L30.55 10.2 37.85 20.45 M37.6 15.15 L35.8 12.65 37.6 15.15 M11.3 61.2 L9.35 56.05 11.3 61.2 M22.05 56.45 L15.7 43.5 22.05 56.45 M47.2 44.6 L26.5 19.4 47.2 44.6 M40.0 48.15 L23.15 33.4 40.0 48.15 M11.1 52.35 L14.35 59.9 11.1 52.35 M24.75 26.85 L42.85 46.75 24.75 26.85 M28.3 15.4 L50.15 43.15 28.3 15.4 M22.7 36.55 L33.2 51.35 22.7 36.55 M22.75 39.9 L29.5 53.05 22.75 39.9 M12.1 49.4 L17.55 58.45 12.1 49.4 M48.25 -0.6 L71.05 30.9 48.25 -0.6" fill="url(#gradient4)" fill-rule="evenodd" stroke="none"/>
    <path d="M-10.7 -23.8 Q-7.1 -23.3 -3.45 -20.95 -1.3 -19.6 0.85 -17.55 L3.1 -15.3 4.4 -13.8 5.85 -12.4 Q8.05 -10.5 11.75 -8.85 L14.85 -7.6 17.5 -6.75 20.9 -5.8 28.3 -4.15 36.95 -2.8 48.0 -1.55 Q42.35 -1.35 37.9 1.8 L37.6 1.4 37.9 1.8 Q35.4 3.5 33.35 6.1 L32.65 5.15 33.35 6.1 Q31.85 7.9 30.55 10.2 28.25 14.1 26.5 19.4 L26.3 19.15 26.5 19.4 Q24.45 25.5 23.15 33.4 L23.15 33.55 22.7 36.55 22.65 36.9 22.25 39.9 -6.2 41.0 22.25 39.9 22.0 41.95 Q18.6 41.5 16.0 43.3 L15.7 43.5 Q13.3 45.25 11.65 48.85 L10.35 52.25 9.45 55.55 9.35 56.05 Q8.65 59.0 8.25 62.55 L8.2 62.55 3.15 55.55 9.45 55.55 3.15 55.55 1.45 53.05 10.35 52.25 1.45 53.05 -1.35 48.85 -3.95 44.75 -6.2 41.0 -9.2 35.85 22.65 36.9 -9.2 35.85 -10.45 33.55 -7.65 33.55 1.45 28.25 -7.65 33.55 -10.45 33.55 -12.55 29.6 -14.5 25.75 -16.7 21.3 -17.55 19.4 -18.35 17.65 -19.45 15.3 -20.35 13.25 -21.45 10.7 -22.0 9.4 Q-17.9 1.7 -15.0 -7.4 L-13.55 -12.4 -13.1 -13.95 -12.65 -15.85 -11.95 -19.0 -10.9 -20.3 -10.7 -20.9 -10.7 -23.8 M4.3 -7.05 L2.95 -1.65 4.3 -7.05 4.4 -7.5 4.3 -7.05 3.2 -8.25 Q1.65 -9.5 0.25 -8.25 1.65 -9.5 3.2 -8.25 L4.3 -7.05 5.2 -5.7 4.3 -7.05 M0.25 -6.4 L0.25 -8.25 0.25 -6.4 -0.5 -7.4 Q-1.25 -4.35 -1.3 0.35 -1.35 3.9 -1.0 8.35 L-0.6 12.35 Q1.25 13.1 2.65 14.1 L3.7 14.95 Q4.45 12.2 4.7 9.6 5.0 5.85 4.25 2.4 L2.95 -1.65 Q1.9 -4.1 0.25 -6.4 M11.75 -8.85 L4.25 2.4 11.75 -8.85 M3.2 -8.25 L5.85 -12.4 3.2 -8.25 M30.05 9.5 L30.55 10.2 30.05 9.5 M5.8 17.5 L5.6 17.95 Q6.6 23.05 0.9 23.15 6.6 23.05 5.6 17.95 L5.8 17.5 Q4.95 16.05 3.7 14.95 4.95 16.05 5.8 17.5 7.45 20.3 7.45 24.15 7.45 20.3 5.8 17.5 L17.5 -6.75 5.8 17.5 M0.2 18.75 Q3.45 17.1 2.65 14.1 3.45 17.1 0.2 18.75 L0.75 22.25 0.9 23.15 1.6 27.3 0.9 23.15 0.75 22.25 0.2 18.75 -0.15 19.35 0.2 18.75 -0.35 14.7 0.2 18.75 M7.45 24.15 Q5.25 28.95 1.6 27.3 5.25 28.95 7.45 24.15 L7.35 25.95 7.45 24.15 M10.75 35.9 L13.1 33.55 10.75 35.9 M2.2 30.75 L1.6 27.3 2.2 30.75 M13.1 33.55 L17.05 33.55 20.1 33.55 23.15 33.55 20.1 33.55 17.05 33.55 13.1 33.55 Q19.55 25.7 18.3 10.1 19.55 25.7 13.1 33.55 L-7.65 33.55 13.1 33.55 M6.35 33.0 L19.2 -5.75 6.35 33.0 M4.7 9.6 L14.85 -7.6 4.7 9.6 M17.05 33.55 L28.3 -4.15 17.05 33.55 M20.1 33.55 Q29.5 -0.95 36.95 -2.8 29.5 -0.95 20.1 33.55 M12.5 32.4 L20.9 -5.8 12.5 32.4 M-3.45 -20.95 Q-8.15 -23.05 -10.9 -20.3 -8.15 -23.05 -3.45 -20.95 -7.7 -20.85 -21.45 10.7 -7.7 -20.85 -3.45 -20.95 M-13.05 -12.35 L-13.55 -12.4 -13.05 -12.35 M0.85 -17.55 L-17.55 19.4 0.85 -17.55 M-0.35 14.7 L-0.6 12.35 -0.35 14.7 0.05 14.0 -0.35 14.7 -10.6 32.0 -0.35 14.7 M-2.7 -19.95 L-19.45 15.3 -2.7 -19.95 M16.0 43.3 L-3.95 44.75 16.0 43.3 M-1.0 8.35 L-12.55 29.6 -1.0 8.35 M-1.3 0.35 L-14.5 25.75 -1.3 0.35 M3.1 -15.3 L-16.7 21.3 3.1 -15.3 M11.65 48.85 L-1.35 48.85 11.65 48.85 M-10.05 33.0 L0.75 22.25 -10.05 33.0 M-0.5 -7.4 L0.25 -8.25 -0.5 -7.4" fill="url(#gradient5)" fill-rule="evenodd" stroke="none"/>
    <path d="M-33.35 -16.3 L-35.6 -20.55 -36.55 -22.2 -37.75 -24.05 Q-29.45 -27.55 -23.75 -23.3 -18.0 -19.05 -11.95 -19.0 -18.0 -19.05 -23.75 -23.3 -29.45 -27.55 -37.75 -24.05 L-39.15 -25.6 Q-30.4 -29.8 -20.5 -23.8 -17.45 -21.95 -10.7 -20.9 L-10.9 -20.3 -11.95 -19.0 -12.65 -15.85 Q-16.85 -15.2 -22.55 -19.4 -29.45 -24.4 -35.6 -20.55 -29.45 -24.4 -22.55 -19.4 -16.85 -15.2 -12.65 -15.85 L-13.1 -13.95 Q-28.9 -17.7 -33.35 -16.3 -28.9 -17.7 -13.1 -13.95 L-13.55 -12.4 -32.6 -14.7 -13.55 -12.4 -15.0 -7.4 Q-17.9 1.7 -22.0 9.4 L-23.25 6.35 -25.4 1.3 -26.5 -1.3 -28.4 -5.7 -30.05 -9.3 -32.6 -14.7 -32.6 -14.75 -33.35 -16.3 M-25.15 0.65 L-25.4 1.3 -25.15 0.65 M-30.05 -9.3 L-15.0 -7.4 -30.05 -9.3" fill="url(#gradient6)" fill-rule="evenodd" stroke="none"/>
    <path d="M-10.7 -23.8 L-10.7 -20.9 Q-17.45 -21.95 -20.5 -23.8 -15.6 -25.05 -10.7 -23.8" fill="url(#gradient7)" fill-rule="evenodd" stroke="none"/>
    <path d="M75.4 27.05 L73.7 28.75 71.05 30.9 67.5 33.4 63.0 36.15 57.1 39.5 52.95 41.7 50.15 43.15 47.2 44.6 42.85 46.75 40.0 48.15 33.2 51.35 29.5 53.05 22.05 56.45 17.55 58.45 14.35 59.9 11.3 61.2 8.25 62.55 8.2 62.55 1.45 59.65 -1.0 58.6 -4.75 57.0 -7.95 55.65 -11.65 54.05 -15.2 52.55 -18.6 51.1 -19.75 50.6 Q-20.35 71.1 -25.35 59.7 L-27.3 54.55 -28.5 50.8 -28.55 50.6 -33.4 45.6 -35.95 42.95 -37.85 41.0 -38.0 41.25 M0.25 -6.4 L0.25 -0.2 M4.3 -7.05 L4.4 -7.5 M2.95 -1.65 L4.3 -7.05 M0.25 -8.25 L0.25 -6.4 M4.25 2.4 L11.75 -8.85 M5.85 -12.4 L3.2 -8.25 M41.8 7.1 L46.85 14.05 51.95 21.05 57.05 28.0 63.0 36.15 M49.1 28.25 L57.1 39.5 M52.95 41.7 L41.95 26.2 M61.5 4.95 L75.3 26.5 M67.5 33.4 L43.7 0.4 M73.7 28.75 L54.75 1.2 M37.9 1.8 L37.6 1.4 M33.35 6.1 L37.95 12.65 M33.35 6.1 L32.65 5.15 M30.55 10.2 L37.85 20.45 M26.3 19.15 L26.5 19.4 47.2 44.6 M30.55 10.2 L30.05 9.5 M4.25 2.4 L3.6 3.35 M0.9 23.15 Q6.6 23.05 5.6 17.95 L5.8 17.5 17.5 -6.75 M2.65 14.1 Q3.45 17.1 0.2 18.75 L-0.15 19.35 M1.6 27.3 Q5.25 28.95 7.45 24.15 M2.65 14.1 L2.8 13.85 M15.7 43.5 Q13.3 45.25 11.65 48.85 L10.35 52.25 9.45 55.55 9.35 56.05 11.3 61.2 M23.15 33.55 L20.1 33.55 17.05 33.55 13.1 33.55 -7.65 33.55 1.45 28.25 M22.0 41.95 Q18.6 41.5 16.0 43.3 L15.7 43.5 22.05 56.45 M22.65 36.9 L-9.2 35.85 -15.2 52.55 M-6.2 41.0 L22.25 39.9 M23.15 33.4 L40.0 48.15 M14.35 59.9 L11.1 52.35 M3.15 55.55 L9.45 55.55 M3.15 55.55 L1.45 59.65 M9.35 56.05 Q8.65 59.0 8.25 62.55 M1.45 53.05 L10.35 52.25 M41.8 7.1 L37.9 1.8 M17.55 58.45 L12.1 49.4 M29.5 53.05 L22.75 39.9 M33.2 51.35 L22.7 36.55 M50.15 43.15 L28.3 15.4 M42.85 46.75 L24.75 26.85 M19.2 -5.75 L6.35 33.0 M71.05 30.9 L48.25 -0.6 M20.9 -5.8 L12.5 32.4 M36.95 -2.8 Q29.5 -0.95 20.1 33.55 M28.3 -4.15 L17.05 33.55 M14.85 -7.6 L4.7 9.6 M2.95 -1.65 L2.0 1.95 M-46.85 -1.0 L-47.5 -0.2 M-46.85 -1.0 L-34.25 -16.25 -33.35 -16.3 Q-28.9 -17.7 -13.1 -13.95 M-35.6 -20.55 Q-48.3 -9.15 -67.9 23.5 L-64.9 25.4 -53.85 6.6 M-42.9 -0.35 L-43.15 -0.05 M-35.6 -20.55 Q-29.45 -24.4 -22.55 -19.4 -16.85 -15.2 -12.65 -15.85 M-11.95 -19.0 Q-18.0 -19.05 -23.75 -23.3 -29.45 -27.55 -37.75 -24.05 -44.8 -20.8 -49.35 -14.75 L-72.8 20.35 -74.05 19.55 M-32.6 -14.75 L-32.65 -14.7 -32.6 -14.7 -13.55 -12.4 -13.05 -12.35 M-33.2 -14.8 L-32.65 -14.7 -42.9 -0.35 M-37.15 2.45 L-30.05 -9.3 -15.0 -7.4 M-25.4 1.3 L-25.15 0.65 M-10.9 -20.3 L-11.95 -19.0 M-10.9 -20.3 Q-8.15 -23.05 -3.45 -20.95 -7.7 -20.85 -21.45 10.7 L-35.95 42.95 M-17.55 19.4 L0.85 -17.55 M-17.55 19.4 L-17.95 20.15 M-19.45 15.3 L-19.7 15.8 M-0.35 14.7 L0.05 14.0 M-25.4 1.3 L-28.6 8.85 -40.9 37.85 -41.6 37.15 -48.55 42.15 -30.75 7.05 -26.5 -1.3 M-45.85 14.05 L-55.6 38.65 Q-55.7 45.4 -55.3 49.3 -54.25 60.7 -52.8 49.3 L-52.3 44.85 -48.55 42.15 M-37.15 2.45 L-37.3 2.7 M-33.6 4.85 L-55.1 48.25 M-19.45 15.3 L-2.7 -19.95 M-10.45 33.55 L-7.65 33.55 M-3.95 44.75 L-7.95 55.65 M-3.95 44.75 L16.0 43.3 M-12.55 29.6 L-1.0 8.35 M-10.45 33.55 L-18.6 51.1 M-0.35 14.7 L-10.6 32.0 M-14.5 25.75 L-1.3 0.35 M-20.35 13.25 L-33.4 45.6 M-23.25 6.35 L-37.85 41.0 -40.9 37.85 M-18.35 17.65 L-30.85 47.1 M-45.85 14.05 L-42.1 9.6 M-67.9 23.5 L-70.95 21.55 -72.8 20.35 M-55.6 38.65 L-55.45 31.4 -64.9 25.4 M-50.2 14.7 L-57.9 29.45 M-54.55 14.85 L-62.1 26.8 M-28.5 50.8 L-16.7 21.3 3.1 -15.3 M-27.3 54.55 L-14.5 25.75 M-4.75 57.0 L-1.35 48.85 11.65 48.85 M-11.65 54.05 L-6.2 41.0 M-25.35 59.7 L-12.55 29.6 M-28.4 -5.7 L-33.6 4.85 M-36.55 -22.2 Q-41.55 -22.65 -70.95 21.55 M1.45 53.05 L-1.0 58.6 M0.75 22.25 L-10.05 33.0" fill="none" stroke="#f0eae3" stroke-linecap="round" stroke-linejoin="round" stroke-width="0.05"/>
    <path d="M-10.7 -23.8 Q-7.1 -23.3 -3.45 -20.95 -1.3 -19.6 0.85 -17.55 L3.1 -15.3 4.4 -13.8 5.85 -12.4 Q8.05 -10.5 11.75 -8.85 L14.85 -7.6 17.5 -6.75 20.9 -5.8 28.3 -4.15 36.95 -2.8 48.0 -1.55 Q70.6 3.85 75.3 26.5 L75.4 27.05 M4.3 -7.05 L3.2 -8.25 Q1.65 -9.5 0.25 -8.25 L-0.5 -7.4 Q-1.25 -4.35 -1.3 0.35 -1.35 3.9 -1.0 8.35 L-0.6 12.35 Q1.25 13.1 2.65 14.1 L3.7 14.95 Q4.95 16.05 5.8 17.5 7.45 20.3 7.45 24.15 L7.35 25.95 M5.2 -5.7 L4.3 -7.05 M47.2 7.55 L41.8 7.1 Q39.35 7.5 38.8 9.35 L37.95 12.65 37.6 15.15 46.7 27.95 49.1 28.25 53.45 28.3 57.05 28.0 61.65 27.3 M37.6 15.15 Q37.25 18.1 37.85 20.45 38.75 24.2 41.95 26.2 43.9 27.4 46.7 27.95 L46.95 28.25 M37.9 1.8 Q35.4 3.5 33.35 6.1 31.85 7.9 30.55 10.2 28.25 14.1 26.5 19.4 24.45 25.5 23.15 33.4 L23.15 33.55 22.7 36.55 22.65 36.9 22.25 39.9 22.0 41.95 M35.8 12.65 L37.6 15.15 M0.2 18.75 L0.75 22.25 0.9 23.15 1.6 27.3 2.2 30.75 M13.1 33.55 L10.75 35.9 M13.1 33.55 Q19.55 25.7 18.3 10.1 M-9.2 35.85 L-6.2 41.0 -3.95 44.75 -1.35 48.85 1.45 53.05 3.15 55.55 8.2 62.55 M37.9 1.8 Q42.35 -1.35 48.0 -1.55 M-42.9 -0.35 L-46.85 -1.0 Q-52.2 -0.8 -53.85 6.6 L-53.85 6.7 Q-54.45 9.35 -54.55 12.85 L-54.55 14.85 -54.5 17.35 M-33.35 -16.3 L-35.6 -20.55 -36.55 -22.2 -37.75 -24.05 -39.15 -25.6 Q-47.0 -21.8 -52.8 -14.95 L-62.05 1.3 Q-69.05 13.35 -73.75 19.2 L-74.05 19.55 M-12.65 -15.85 L-11.95 -19.0 M-32.6 -14.75 L-33.35 -16.3 M-13.1 -13.95 L-12.65 -15.85 M-32.6 -14.7 L-32.6 -14.75 M-42.9 -0.35 Q-40.35 0.5 -37.15 2.45 -36.25 3.0 -35.25 3.7 -34.45 4.2 -33.6 4.85 L-30.75 7.05 -28.6 8.85 Q-27.5 9.75 -26.35 10.8 M-30.05 -9.3 L-32.6 -14.7 M-13.55 -12.4 L-13.1 -13.95 M-30.05 -9.3 L-28.4 -5.7 -26.5 -1.3 -25.4 1.3 -23.25 6.35 -22.0 9.4 -21.45 10.7 -20.35 13.25 -19.45 15.3 -18.35 17.65 -17.55 19.4 -16.7 21.3 -14.5 25.75 -12.55 29.6 -10.45 33.55 -9.2 35.85 M-10.7 -20.9 L-10.9 -20.3 M-10.7 -20.9 L-10.7 -23.8 Q-15.6 -25.05 -20.5 -23.8 -17.45 -21.95 -10.7 -20.9 M-13.55 -12.4 L-15.0 -7.4 Q-17.9 1.7 -22.0 9.4 M-39.15 -25.6 Q-30.4 -29.8 -20.5 -23.8 M-0.6 12.35 L-0.35 14.7 0.2 18.75" fill="none" stroke="#f0eae3" stroke-linecap="round" stroke-linejoin="round" stroke-width="0.05"/>
  </g>
  <defs>
    <linearGradient gradientTransform="matrix(-0.0075, 0.0131, -0.0577, -0.0331, -44.9, 45.55)" gradientUnits="userSpaceOnUse" id="gradient0" spreadMethod="pad" x1="-819.2" x2="819.2">
      <stop offset="0.0" stop-color="#d7c6b3"/>
      <stop offset="0.9803921568627451" stop-color="#534531"/>
    </linearGradient>
    <linearGradient gradientTransform="matrix(-0.0035, -0.0061, 0.0113, -0.0065, -46.5, 5.55)" gradientUnits="userSpaceOnUse" id="gradient1" spreadMethod="pad" x1="-819.2" x2="819.2">
      <stop offset="0.0" stop-color="#d7c6b3"/>
      <stop offset="0.9803921568627451" stop-color="#534531"/>
    </linearGradient>
    <linearGradient gradientTransform="matrix(-0.0047, 0.0027, -0.0065, -0.0113, -1.75, 5.65)" gradientUnits="userSpaceOnUse" id="gradient2" spreadMethod="pad" x1="-819.2" x2="819.2">
      <stop offset="0.0" stop-color="#d7c6b3"/>
      <stop offset="0.9803921568627451" stop-color="#534531"/>
    </linearGradient>
    <linearGradient gradientTransform="matrix(-0.0047, 0.0027, -0.0073, -0.0126, 42.95, 20.7)" gradientUnits="userSpaceOnUse" id="gradient3" spreadMethod="pad" x1="-819.2" x2="819.2">
      <stop offset="0.0" stop-color="#d7c6b3"/>
      <stop offset="0.9803921568627451" stop-color="#534531"/>
    </linearGradient>
    <linearGradient gradientTransform="matrix(-0.0126, 0.0126, -0.0219, -0.0219, 16.5, 50.0)" gradientUnits="userSpaceOnUse" id="gradient4" spreadMethod="pad" x1="-819.2" x2="819.2">
      <stop offset="0.0" stop-color="#d7c6b3"/>
      <stop offset="0.9803921568627451" stop-color="#534531"/>
    </linearGradient>
    <linearGradient gradientTransform="matrix(0.0043, 0.0164, -0.041, 0.0108, 21.9, 39.55)" gradientUnits="userSpaceOnUse" id="gradient5" spreadMethod="pad" x1="-819.2" x2="819.2">
      <stop offset="0.0" stop-color="#d7c6b3"/>
      <stop offset="0.9803921568627451" stop-color="#534531"/>
    </linearGradient>
    <linearGradient gradientTransform="matrix(0.027, 0.0361, -0.0133, 0.01, -15.3, -4.3)" gradientUnits="userSpaceOnUse" id="gradient6" spreadMethod="pad" x1="-819.2" x2="819.2">
      <stop offset="0.0" stop-color="#d7c6b3"/>
      <stop offset="0.9803921568627451" stop-color="#534531"/>
    </linearGradient>
    <linearGradient gradientTransform="matrix(-0.0078, 0.0185, -0.0075, -0.0031, -14.35, -29.2)" gradientUnits="userSpaceOnUse" id="gradient7" spreadMethod="pad" x1="-819.2" x2="819.2">
      <stop offset="0.0" stop-color="#d7c6b3"/>
      <stop offset="0.9803921568627451" stop-color="#534531"/>
    </linearGradient>
  </defs>
</svg>
