<?xml version="1.0" encoding="UTF-8" standalone="no"?>
<svg xmlns:xlink="http://www.w3.org/1999/xlink" height="49.3px" width="33.65px" xmlns="http://www.w3.org/2000/svg">
  <g transform="matrix(1.0, 0.0, 0.0, 1.0, 17.5, 26.4)">
    <path d="M8.7 2.95 Q9.1 13.05 8.3 21.55 -3.45 25.3 -15.95 18.75 -16.05 10.65 -15.6 2.95 L8.7 2.95" fill="#d26262" fill-rule="evenodd" stroke="none"/>
    <path d="M8.7 2.95 L13.05 2.95 Q14.05 10.8 14.55 18.8 11.45 20.5 8.3 21.55 9.1 13.05 8.7 2.95" fill="#c84242" fill-rule="evenodd" stroke="none"/>
    <path d="M8.3 21.55 Q11.45 20.5 14.55 18.8 14.05 10.8 13.05 2.95" fill="none" stroke="#4f4535" stroke-linecap="round" stroke-linejoin="round" stroke-width="0.05"/>
    <path d="M-15.6 2.95 Q-16.05 10.65 -15.95 18.75 -3.45 25.3 8.3 21.55 Z" fill="none" stroke="#872727" stroke-linecap="round" stroke-linejoin="round" stroke-width="0.05"/>
    <path d="M6.4 -24.7 Q8.25 -15.1 9.1 -6.65 10.1 4.45 9.45 13.5 -2.75 16.5 -17.5 9.5 -16.3 1.9 -15.25 -6.65 -14.45 -13.95 -13.0 -20.85 L-11.65 -26.4 Q-9.4 -25.45 -7.35 -24.9 -0.6 -23.7 2.4 -24.05 L3.85 -24.25 5.8 -24.6 6.4 -24.7" fill="#ffffff" fill-rule="evenodd" stroke="none"/>
    <path d="M6.4 -24.7 L7.7 -25.0 8.25 -25.2 Q11.15 -15.95 13.05 -6.65 14.9 2.1 16.15 11.25 12.9 12.7 9.45 13.5 10.1 4.45 9.1 -6.65 8.25 -15.1 6.4 -24.7" fill="#ececec" fill-rule="evenodd" stroke="none"/>
    <path d="M9.45 13.5 Q12.9 12.7 16.15 11.25 14.9 2.1 13.05 -6.65 11.15 -15.95 8.25 -25.2 M-11.65 -26.4 L-13.0 -20.85 Q-14.45 -13.95 -15.25 -6.65 -16.3 1.9 -17.5 9.5 -2.75 16.5 9.45 13.5 Z" fill="none" stroke="#cecece" stroke-linecap="round" stroke-linejoin="round" stroke-width="0.05"/>
    <path d="M-7.25 -25.3 L-3.15 -25.2 -3.15 -0.3 Q-4.7 0.6 -5.7 -0.6 L-5.7 -1.55 Q-7.1 -2.25 -7.95 -2.15 L-7.25 -25.3 M-5.7 -4.0 L-5.7 -1.55 -5.7 -4.0" fill="#d26262" fill-rule="evenodd" stroke="none"/>
    <path d="M-7.25 -25.3 L-7.95 -2.15 Q-7.1 -2.25 -5.7 -1.55 L-5.7 -4.0 M-5.7 -1.55 L-5.7 -0.6 Q-4.7 0.6 -3.15 -0.3 L-3.15 -25.2" fill="none" stroke="#661e1e" stroke-linecap="round" stroke-linejoin="round" stroke-width="0.05"/>
  </g>
</svg>
