<?xml version="1.0" encoding="UTF-8" standalone="no"?>
<svg xmlns:xlink="http://www.w3.org/1999/xlink" height="25.05px" width="10.7px" xmlns="http://www.w3.org/2000/svg">
  <g transform="matrix(1.0, 0.0, 0.0, 1.0, 6.3, 10.05)">
    <path d="M-5.25 -5.75 L-4.15 -6.1 1.1 -5.85 2.45 -5.35 3.35 -4.5 2.75 -3.85 2.4 -3.65 Q0.65 -2.7 -4.1 -2.45 -5.9 -3.65 -5.55 -5.05 -4.4 -4.75 -3.75 -3.7 -4.4 -4.75 -5.55 -5.05 L-5.25 -5.75 M-1.6 -3.35 L2.4 -3.65 -1.6 -3.35" fill="#ffd0ae" fill-rule="evenodd" stroke="none"/>
    <path d="M-4.9 9.3 L-4.9 9.35 -4.9 9.3" fill="#67987b" fill-rule="evenodd" stroke="none"/>
    <path d="M3.45 9.6 L3.05 7.4 3.0 7.0 Q3.75 7.65 3.85 8.4 L3.45 9.6 M-5.65 6.95 L-4.9 6.2 -4.85 6.2 -4.85 6.6 -4.9 9.3 Q-5.8 8.25 -5.65 6.95" fill="#4e517a" fill-rule="evenodd" stroke="none"/>
    <path d="M2.2 10.45 L2.4 10.4 2.65 10.25 3.45 9.6 3.85 8.4 4.3 11.7 4.3 11.75 4.35 12.1 4.35 12.15 4.35 12.25 4.4 12.7 4.15 13.5 3.15 14.3 Q1.75 15.05 -0.4 14.85 L-1.45 14.75 -1.5 10.75 -0.7 10.85 2.2 10.45 M-4.45 13.6 L-5.35 12.85 -5.8 11.85 -5.8 11.75 -5.8 11.45 -5.85 7.85 -5.85 7.75 -5.65 6.95 Q-5.8 8.25 -4.9 9.3 L-4.9 9.35 -4.5 9.65 -4.45 9.7 -4.45 13.6 M-3.8 10.5 L-2.3 11.1 -2.3 14.05 -3.8 13.6 -3.8 10.5" fill="#64889b" fill-rule="evenodd" stroke="none"/>
    <path d="M-1.45 14.75 L-1.45 15.0 -4.45 14.0 -4.45 13.6 -4.45 9.7 -4.4 9.55 -1.5 10.45 -1.5 10.75 -1.45 14.75 M-3.8 10.5 L-3.8 13.6 -2.3 14.05 -2.3 11.1 -3.8 10.5" fill="#826357" fill-rule="evenodd" stroke="none"/>
    <path d="M-5.45 -5.95 L-5.25 -5.75 -5.55 -5.05 Q-5.9 -3.65 -4.1 -2.45 0.65 -2.7 2.4 -3.65 L2.75 -3.85 Q3.5 -1.35 1.2 3.55 L0.2 5.55 2.2 10.45 -0.7 10.85 -1.5 10.75 -1.5 10.45 -4.4 9.55 -4.45 9.55 -4.5 9.65 -4.9 9.35 -4.9 9.3 -4.85 6.6 -4.85 6.2 -4.85 5.65 -5.25 4.5 Q-7.05 -1.1 -5.75 -5.1 L-5.45 -5.95" fill="#fcdead" fill-rule="evenodd" stroke="none"/>
    <path d="M-5.45 -5.95 L-4.2 -6.3 1.35 -6.1 2.6 -5.5 4.1 -4.15 Q4.35 -1.05 3.5 3.25 L2.9 5.9 3.0 7.0 3.05 7.4 3.45 9.6 2.65 10.25 2.4 10.4 2.2 10.45 0.2 5.55 1.2 3.55 Q3.5 -1.35 2.75 -3.85 L3.35 -4.5 2.45 -5.35 1.1 -5.85 -4.15 -6.1 -5.25 -5.75 -5.45 -5.95" fill="#f9be79" fill-rule="evenodd" stroke="none"/>
    <path d="M-5.55 -5.05 Q-4.4 -4.75 -3.75 -3.7 M2.4 -3.65 L-1.6 -3.35" fill="none" stroke="#fb8264" stroke-linecap="round" stroke-linejoin="round" stroke-width="0.05"/>
    <path d="M3.0 7.0 Q3.75 7.65 3.85 8.4 L4.3 11.7 4.3 11.75 4.35 12.1 4.35 12.15 4.35 12.25 4.4 12.5 4.4 12.7 4.15 13.5 3.15 14.3 Q1.75 15.05 -0.4 14.85 L-1.45 14.75 -1.45 15.0 -4.45 14.0 -4.45 13.6 -5.35 12.85 -5.8 11.85 -5.8 11.75 -5.8 11.45 -5.85 7.85 -5.85 7.75 -5.65 6.95 -4.9 6.2 M-4.45 9.7 L-4.45 13.6 M-3.8 10.5 L-3.8 13.6 -2.3 14.05 -2.3 11.1 -3.8 10.5 M-1.5 10.75 L-1.45 14.75 M4.35 12.1 L4.35 12.15 M4.35 12.25 L4.4 12.7" fill="none" stroke="#3f3872" stroke-linecap="round" stroke-linejoin="round" stroke-width="0.05"/>
    <path d="M-4.9 9.3 L-4.9 9.35" fill="none" stroke="#000000" stroke-linecap="round" stroke-linejoin="round" stroke-width="0.05"/>
    <path d="M3.0 7.0 L2.9 5.9 3.5 3.25 Q4.35 -1.05 4.1 -4.15 L2.6 -5.5 1.35 -6.1 -4.2 -6.3 -5.45 -5.95 -5.75 -5.1 Q-7.05 -1.1 -5.25 4.5 L-4.85 5.65 -4.85 6.2 -4.85 6.6 -4.9 9.3 -4.9 9.35 -4.5 9.65 -4.45 9.7 -4.45 9.55 -4.4 9.55 -1.5 10.45 -1.5 10.75 -0.7 10.85 2.2 10.45 2.4 10.4 2.65 10.25 3.45 9.6 3.05 7.4 3.0 7.0 M-5.25 -5.75 L-4.15 -6.1 1.1 -5.85 2.45 -5.35 3.35 -4.5 2.75 -3.85 2.4 -3.65 Q0.65 -2.7 -4.1 -2.45 -5.9 -3.65 -5.55 -5.05 L-5.25 -5.75 M-4.9 6.2 L-4.85 6.2" fill="none" stroke="#975506" stroke-linecap="round" stroke-linejoin="round" stroke-width="0.05"/>
    <path d="M-3.85 -5.2 L-3.55 -7.65 Q-3.45 -9.15 -3.65 -9.7 -0.65 -10.4 1.35 -9.65 1.1 -7.9 1.2 -5.2 L-3.85 -5.2" fill="#ffd0ae" fill-rule="evenodd" stroke="none"/>
    <path d="M1.2 -5.2 Q1.1 -7.9 1.35 -9.65 -0.65 -10.4 -3.65 -9.7 -3.45 -9.15 -3.55 -7.65 L-3.85 -5.2" fill="none" stroke="#fb8264" stroke-linecap="round" stroke-linejoin="round" stroke-width="0.05"/>
  </g>
</svg>
