<?xml version="1.0" encoding="UTF-8" standalone="no"?>
<svg xmlns:xlink="http://www.w3.org/1999/xlink" height="18.65px" width="18.15px" xmlns="http://www.w3.org/2000/svg">
  <g transform="matrix(1.0, 0.0, 0.0, 1.0, 5.15, 11.0)">
    <path d="M7.6 -10.15 L8.55 -9.5 Q6.95 -10.4 5.35 -10.1 6.35 -9.75 5.8 -9.4 L3.35 -9.75 Q-1.6 -9.05 -2.25 -6.45 L-3.0 -5.5 -3.4 -4.7 -3.45 -4.65 -3.65 -4.1 -3.75 -3.85 -3.8 -3.6 -3.95 -3.25 -3.65 -3.55 -3.35 -3.85 -2.25 -4.85 -1.65 -4.7 Q-1.8 -3.4 -1.2 -2.25 -1.15 -3.8 0.1 -4.15 1.5 -3.55 1.9 -2.0 L1.65 -4.45 Q4.2 -3.3 5.3 -1.0 5.7 -1.45 5.8 -4.05 L6.8 -2.55 Q8.0 -0.25 8.35 0.05 L8.5 -0.05 Q9.8 -1.05 9.35 -3.05 10.65 -2.15 10.4 -0.25 11.95 -1.1 12.4 -4.25 11.95 -6.75 11.15 -7.9 L10.5 -8.6 10.4 -8.65 10.4 -8.7 Q9.05 -10.1 7.6 -10.15 M12.75 -6.7 L12.85 -6.4 Q13.45 -3.5 11.7 0.6 L11.05 2.4 9.3 5.15 Q9.95 3.8 9.9 2.5 9.5 1.05 7.6 1.85 6.5 3.5 7.05 7.65 L6.45 6.55 Q4.1 2.25 2.95 -2.35 3.2 0.65 2.4 2.25 1.8 -0.4 -0.05 -2.25 -1.05 -0.15 -0.75 2.1 L-1.9 0.85 -2.45 -0.5 Q-3.0 -1.5 -2.95 -2.75 -4.15 -1.35 -4.1 1.8 -6.55 -4.05 -3.35 -6.75 -1.35 -9.8 5.55 -10.95 8.7 -11.15 10.6 -9.8 11.75 -9.0 12.45 -7.55 L12.75 -6.7" fill="#ffff99" fill-rule="evenodd" stroke="none"/>
    <path d="M7.6 -10.15 Q9.05 -10.1 10.4 -8.7 L10.4 -8.65 10.5 -8.6 11.15 -7.9 Q11.95 -6.75 12.4 -4.25 11.95 -1.1 10.4 -0.25 10.65 -2.15 9.35 -3.05 9.8 -1.05 8.5 -0.05 L8.35 0.05 Q8.0 -0.25 6.8 -2.55 L5.8 -4.05 Q5.7 -1.45 5.3 -1.0 4.2 -3.3 1.65 -4.45 L1.9 -2.0 Q1.5 -3.55 0.1 -4.15 -1.15 -3.8 -1.2 -2.25 -1.8 -3.4 -1.65 -4.7 L-2.25 -4.85 -3.35 -3.85 -3.65 -3.55 -3.95 -3.25 -3.8 -3.6 -3.75 -3.85 -3.65 -4.1 -3.45 -4.65 -3.4 -4.7 -3.0 -5.5 -2.25 -6.45 Q-1.6 -9.05 3.35 -9.75 L5.8 -9.4 Q6.35 -9.75 5.35 -10.1 6.95 -10.4 8.55 -9.5 L7.6 -10.15" fill="#ffffcc" fill-rule="evenodd" stroke="none"/>
    <path d="M12.75 -6.7 L12.45 -7.55 Q11.75 -9.0 10.6 -9.8 8.7 -11.15 5.55 -10.95 -1.35 -9.8 -3.35 -6.75 -6.55 -4.05 -4.1 1.8 -4.15 -1.35 -2.95 -2.75 -3.0 -1.5 -2.45 -0.5 L-1.9 0.85 -0.75 2.1 Q-1.05 -0.15 -0.05 -2.25 1.8 -0.4 2.4 2.25 3.2 0.65 2.95 -2.35 4.1 2.25 6.45 6.55 L7.05 7.65 Q6.5 3.5 7.6 1.85 9.5 1.05 9.9 2.5 9.95 3.8 9.3 5.15 L11.05 2.4 11.7 0.6 Q13.45 -3.5 12.85 -6.4 L12.75 -6.7 Z" fill="none" stroke="#ab5703" stroke-linecap="round" stroke-linejoin="round" stroke-width="0.05"/>
  </g>
</svg>
