<?xml version="1.0" encoding="UTF-8" standalone="no"?>
<svg xmlns:xlink="http://www.w3.org/1999/xlink" height="5.05px" width="10.45px" xmlns="http://www.w3.org/2000/svg">
  <g transform="matrix(1.0, 0.0, 0.0, 1.0, 4.2, 2.2)">
    <path d="M-3.4 1.35 Q-4.2 0.7 -4.1 -0.1 -4.05 -1.1 -2.8 -1.65 -1.6 -2.25 0.05 -2.15 L2.05 -1.7 Q3.95 -0.15 2.2 0.95 0.4 2.0 -3.4 1.35" fill="#ffdfc8" fill-rule="evenodd" stroke="none"/>
    <path d="M2.05 -1.7 L2.8 -1.3 Q3.9 -0.6 3.8 0.4 3.7 1.3 2.5 1.9 L-0.4 2.35 Q-2.05 2.25 -3.1 1.55 L-3.4 1.35 Q0.4 2.0 2.2 0.95 3.95 -0.15 2.05 -1.7" fill="#ffd0ae" fill-rule="evenodd" stroke="none"/>
    <path d="M2.05 -1.7 L2.8 -1.3 Q3.9 -0.6 3.8 0.4 3.7 1.3 2.5 1.9 L-0.4 2.35 Q-2.05 2.25 -3.1 1.55 L-3.4 1.35 Q-4.2 0.7 -4.1 -0.1 -4.05 -1.1 -2.8 -1.65 -1.6 -2.25 0.05 -2.15 L2.05 -1.7 Z" fill="none" stroke="#581b1b" stroke-linecap="round" stroke-linejoin="round" stroke-width="0.05"/>
    <path d="M-3.45 1.4 L0.25 1.6 0.45 1.55 2.25 0.95 2.3 0.9 2.7 0.6 Q3.25 0.05 3.05 -0.55 L2.75 -1.05 2.1 -1.75 1.85 -1.85 6.15 -1.4 Q6.6 0.95 4.75 2.85 L2.2 2.35 1.5 2.3 0.0 2.4 -0.05 2.4 -1.35 2.45 Q-2.45 2.2 -2.9 1.85 L-3.45 1.4 M3.6 -0.9 L2.85 -1.35 2.1 -1.75 2.85 -1.35 3.6 -0.9" fill="#6699cc" fill-rule="evenodd" stroke="none"/>
    <path d="M-3.75 1.1 L-3.95 0.9 -4.2 -0.1 Q-4.1 -1.1 -2.85 -1.7 -1.6 -2.3 0.05 -2.2 L1.85 -1.85 2.1 -1.75 2.75 -1.05 3.05 -0.55 Q3.25 0.05 2.7 0.6 L2.3 0.9 2.25 0.95 0.45 1.55 0.25 1.6 -3.45 1.4 -3.75 1.1" fill="#66cccc" fill-rule="evenodd" stroke="none"/>
    <path d="M1.85 -1.85 L0.05 -2.2 Q-1.6 -2.3 -2.85 -1.7 -4.1 -1.1 -4.2 -0.1 L-3.95 0.9 -3.75 1.1 M2.1 -1.75 L1.85 -1.85 6.15 -1.4 M4.75 2.85 L2.2 2.35 1.5 2.3 0.0 2.4 -0.05 2.4 M2.1 -1.75 L2.85 -1.35 3.6 -0.9" fill="none" stroke="#661e1e" stroke-linecap="round" stroke-linejoin="round" stroke-width="0.05"/>
  </g>
</svg>
