<?xml version="1.0" encoding="UTF-8" standalone="no"?>
<svg xmlns:xlink="http://www.w3.org/1999/xlink" height="30.7px" width="17.5px" xmlns="http://www.w3.org/2000/svg">
  <g transform="matrix(1.0, 0.0, 0.0, 1.0, 10.2, 13.1)">
    <path d="M-3.85 -11.7 L-3.9 -12.15 -4.0 -12.95 -2.8 -13.05 -1.2 -13.1 -0.8 -13.1 0.35 -13.05 0.4 -13.05 0.75 -13.05 0.75 -12.45 Q0.65 -10.2 1.15 -8.25 L1.5 -3.15 0.4 -4.2 0.45 -4.25 0.35 -4.25 -1.9 -4.75 0.35 -4.25 0.45 -4.25 0.4 -4.2 -2.65 -3.9 Q-0.9 -4.25 -1.9 -4.75 L0.45 -4.95 Q0.3 -8.5 -0.8 -10.75 -3.35 -10.95 -3.85 -11.7 M2.8 16.8 Q2.55 15.5 2.7 14.15 L2.85 16.8 2.8 16.8 M2.45 11.0 Q0.0 6.15 -2.75 5.85 L-3.6 5.85 -3.8 3.45 -3.55 3.85 -2.95 4.55 Q-1.6 5.7 0.25 5.6 L2.05 5.15 0.25 5.6 Q-1.6 5.7 -2.95 4.55 L-3.55 3.85 -3.8 3.45 -3.8 3.15 -2.4 4.2 -1.8 4.3 Q0.7 4.8 2.0 4.0 L2.05 5.15 2.45 11.0 M-3.2 11.75 L-3.1 11.9 -3.0 12.4 Q-2.95 12.7 -3.05 12.85 L-3.1 13.05 -3.2 11.75" fill="#ffd0ae" fill-rule="evenodd" stroke="none"/>
    <path d="M-3.85 -11.7 Q-3.35 -10.95 -0.8 -10.75 0.3 -8.5 0.45 -4.95 L-1.9 -4.75 -2.45 -4.9 -1.9 -4.75 Q-0.9 -4.25 -2.65 -3.9 L0.4 -4.2 1.5 -3.15 2.0 4.0 Q0.7 4.8 -1.8 4.3 L-2.4 4.2 -3.8 3.15 -4.55 -7.5 -4.65 -8.6 -4.05 -8.65 Q-3.8 -10.1 -3.85 -11.7 M2.8 16.8 L2.7 16.8 -2.25 17.05 -2.85 17.0 -3.1 13.05 -3.05 12.85 Q-2.95 12.7 -3.0 12.4 L-3.1 11.9 -3.2 11.75 -3.6 5.85 -2.75 5.85 Q0.0 6.15 2.45 11.0 L2.7 14.15 Q2.55 15.5 2.8 16.8 M-4.05 -8.65 Q-4.2 -7.75 -4.55 -7.5 -4.2 -7.75 -4.05 -8.65" fill="#ffdfc8" fill-rule="evenodd" stroke="none"/>
    <path d="M1.15 -8.25 Q0.65 -10.2 0.75 -12.45 L0.75 -13.05 0.4 -13.05 0.35 -13.05 -0.8 -13.1 -1.2 -13.1 -2.8 -13.05 -4.0 -12.95 -3.9 -12.15 -3.85 -11.7 Q-3.8 -10.1 -4.05 -8.65 L-4.65 -8.6 M-1.9 -4.75 L0.35 -4.25 0.45 -4.25 0.4 -4.2 M-3.2 11.75 L-3.1 11.9 -3.0 12.4 Q-2.95 12.7 -3.05 12.85 L-3.1 13.05 M-2.85 17.0 L-2.25 17.05 2.7 16.8 M2.85 16.8 L2.8 16.8 M2.05 5.15 L0.25 5.6 Q-1.6 5.7 -2.95 4.55 L-3.55 3.85 -3.8 3.45 M-2.45 -4.9 L-1.9 -4.75 M-4.55 -7.5 Q-4.2 -7.75 -4.05 -8.65 M0.4 -13.05 L-0.8 -13.1" fill="none" stroke="#d7995e" stroke-linecap="round" stroke-linejoin="round" stroke-width="0.05"/>
    <path d="M-1.35 -7.95 L0.4 -6.3 1.3 -6.8 Q1.7 -7.05 1.8 -8.15 1.7 -7.05 1.3 -6.8 L0.4 -6.3 -1.35 -7.95 Q-0.35 -8.25 1.1 -9.4 1.65 -8.8 1.8 -8.15 L2.5 -7.8 2.1 -6.7 Q1.3 -4.55 0.0 -2.7 L-5.95 0.05 -6.75 -4.05 Q-6.7 -6.35 -5.65 -8.65 L-4.85 -8.8 -4.95 -7.55 -4.95 -7.25 -3.65 -8.1 -4.95 -7.25 -4.95 -7.55 -4.85 -8.8 -3.95 -9.7 Q-4.25 -8.75 -3.65 -8.1 L-4.0 -4.4 Q-2.65 -6.7 -1.35 -7.95 M4.15 -6.95 L4.4 -6.85 5.55 -6.3 5.95 -6.05 6.9 -5.5 7.15 -5.35 7.3 -5.25 7.3 -5.2 7.2 -4.3 7.05 -3.3 6.15 0.75 Q5.2 1.8 4.4 0.25 L4.1 -0.6 Q3.3 -1.5 3.3 -3.45 3.35 -5.3 4.15 -6.95 M-9.05 -5.2 L-9.2 -6.3 -9.05 -7.45 -8.95 -8.0 -8.95 -8.05 -8.1 -8.25 -7.75 -8.35 -8.95 -4.2 -9.0 -4.2 Q-8.95 -4.9 -9.05 -5.2" fill="#858898" fill-rule="evenodd" stroke="none"/>
    <path d="M-5.65 -8.65 Q-6.7 -6.35 -6.75 -4.05 L-5.95 0.05 0.0 -2.7 1.2 -2.7 Q2.25 -2.25 2.5 -1.55 3.4 1.4 2.75 3.1 1.75 5.05 -1.8 4.3 L-2.0 4.25 -2.0 4.3 -2.15 4.25 -2.6 4.2 -4.5 3.55 -7.3 2.75 -8.6 2.5 Q-9.7 1.9 -10.1 0.65 L-10.2 0.0 Q-10.3 -1.75 -9.65 -2.65 L-9.1 -3.75 -9.0 -4.1 -8.95 -4.2 -7.75 -8.35 -7.25 -8.45 -6.9 -8.5 -6.7 -8.55 -5.65 -8.65 M-6.35 7.5 Q-4.85 5.55 -3.3 5.75 -1.8 5.95 -0.9 6.6 L0.5 7.95 1.2 8.85 1.3 9.0 1.45 9.2 1.65 9.5 2.6 11.25 2.7 11.45 3.0 12.1 3.0 12.2 2.75 13.55 2.65 14.75 2.55 14.75 Q2.1 15.9 1.95 17.0 L1.9 17.2 -1.05 17.6 -2.95 17.5 -4.45 17.25 -6.0 16.65 Q-7.4 16.0 -8.55 14.85 -8.8 14.15 -8.65 13.5 L-8.55 13.1 Q-8.45 13.15 -8.3 13.25 -8.0 11.35 -6.95 9.75 L-6.75 9.4 -6.7 9.35 -6.6 9.2 Q-6.3 8.5 -6.35 7.5 M-8.3 13.25 L-7.85 13.45 -6.15 14.15 -4.6 14.6 Q0.8 15.0 2.55 14.75 0.8 15.0 -4.6 14.6 L-6.15 14.15 -7.85 13.45 -8.3 13.25" fill="#c49b59" fill-rule="evenodd" stroke="none"/>
    <path d="M0.0 -2.7 Q1.3 -4.55 2.1 -6.7 L2.5 -7.8 4.15 -6.95 Q3.35 -5.3 3.3 -3.45 3.3 -1.5 4.1 -0.6 L4.4 0.25 Q5.2 1.8 6.15 0.75 L5.65 2.3 4.1 5.6 Q3.55 7.15 3.85 8.65 L3.95 9.05 Q4.1 9.65 4.4 10.25 L5.25 11.45 5.65 12.2 6.15 13.35 6.2 13.4 4.3 14.25 2.65 14.75 2.75 13.55 3.0 12.2 3.0 12.1 2.7 11.45 2.6 11.25 1.65 9.5 1.45 9.2 1.3 9.0 1.2 8.85 0.5 7.95 -0.9 6.6 Q-1.8 5.95 -3.3 5.75 -4.85 5.55 -6.35 7.5 -6.45 6.5 -6.85 5.2 L-7.2 4.35 -7.4 3.55 Q-8.3 3.35 -8.95 2.7 L-9.35 2.3 Q-9.95 1.6 -10.1 0.65 -9.7 1.9 -8.6 2.5 L-7.3 2.75 -4.5 3.55 -2.6 4.2 -2.15 4.25 -2.0 4.3 -2.0 4.25 -1.8 4.3 Q1.75 5.05 2.75 3.1 3.4 1.4 2.5 -1.55 2.25 -2.25 1.2 -2.7 L0.0 -2.7 M-7.4 3.55 L-7.1 3.6 -6.9 3.65 -1.7 5.3 0.25 5.6 Q2.1 5.5 3.3 4.15 4.55 2.8 4.45 0.95 L4.4 0.25 4.45 0.95 Q4.55 2.8 3.3 4.15 2.1 5.5 0.25 5.6 L-1.7 5.3 -6.9 3.65 -7.1 3.6 -7.4 3.55" fill="#ac7b40" fill-rule="evenodd" stroke="none"/>
    <path d="M2.65 14.75 L4.3 14.25 6.2 13.4 Q7.2 14.25 7.05 15.7 4.65 16.6 1.9 17.2 L1.95 17.0 Q2.1 15.9 2.55 14.75 L2.65 14.75" fill="#8d6534" fill-rule="evenodd" stroke="none"/>
    <path d="M-7.75 -8.35 L-7.25 -8.45" fill="none" stroke="#305054" stroke-linecap="round" stroke-linejoin="round" stroke-width="0.05"/>
    <path d="M-6.85 5.2 Q-6.45 6.5 -6.35 7.5 -6.3 8.5 -6.6 9.2 L-6.7 9.35 -6.75 9.4" fill="none" stroke="#685942" stroke-linecap="round" stroke-linejoin="round" stroke-width="0.05"/>
    <path d="M-4.85 -8.8 L-5.65 -8.65 Q-6.7 -6.35 -6.75 -4.05 L-5.95 0.05 0.0 -2.7 Q1.3 -4.55 2.1 -6.7 L2.5 -7.8 1.8 -8.15 M4.15 -6.95 Q3.35 -5.3 3.3 -3.45 3.3 -1.5 4.1 -0.6 L4.4 0.25 Q5.2 1.8 6.15 0.75 L5.65 2.3 4.1 5.6 Q3.55 7.15 3.85 8.65 L3.95 9.05 Q4.1 9.65 4.4 10.25 L5.25 11.45 5.65 12.2 6.15 13.35 6.2 13.4 Q7.2 14.25 7.05 15.7 4.65 16.6 1.9 17.2 L-1.05 17.6 -2.95 17.5 -4.45 17.25 -6.0 16.65 Q-7.4 16.0 -8.55 14.85 -8.8 14.15 -8.65 13.5 L-8.55 13.1 Q-8.45 13.15 -8.3 13.25 -8.0 11.35 -6.95 9.75 L-6.75 9.4 M7.3 -5.2 L7.3 -5.25 M4.15 -6.95 L2.5 -7.8 M4.4 0.25 L4.45 0.95 Q4.55 2.8 3.3 4.15 2.1 5.5 0.25 5.6 L-1.7 5.3 -6.9 3.65 -7.1 3.6 -7.4 3.55 -7.2 4.35 -6.85 5.2 M2.65 14.75 L4.3 14.25 6.2 13.4 M2.55 14.75 Q0.8 15.0 -4.6 14.6 L-6.15 14.15 -7.85 13.45 -8.3 13.25 M2.65 14.75 L2.55 14.75 M-7.25 -8.45 L-6.9 -8.5 -6.7 -8.55 -5.65 -8.65 M-9.0 -4.2 L-9.0 -4.1 -8.95 -4.2 -7.75 -8.35 M-9.0 -4.1 L-9.1 -3.75 -9.65 -2.65 Q-10.3 -1.75 -10.2 0.0 L-10.1 0.65 Q-9.95 1.6 -9.35 2.3 L-8.95 2.7 Q-8.3 3.35 -7.4 3.55" fill="none" stroke="#594337" stroke-linecap="round" stroke-linejoin="round" stroke-width="0.05"/>
    <path d="M1.8 -8.15 Q1.7 -7.05 1.3 -6.8 L0.4 -6.3 -1.35 -7.95 Q-2.65 -6.7 -4.0 -4.4 L-3.65 -8.1 -4.95 -7.25 -4.95 -7.55 -4.85 -8.8 -3.95 -9.7 Q-4.25 -8.75 -3.65 -8.1 M1.8 -8.15 Q1.65 -8.8 1.1 -9.4 -0.35 -8.25 -1.35 -7.95 M7.3 -5.25 L7.15 -5.35 6.9 -5.5 5.95 -6.05 5.55 -6.3 4.4 -6.85 4.15 -6.95 M6.15 0.75 L7.05 -3.3 7.2 -4.3 7.3 -5.2 M-8.95 -8.05 L-8.1 -8.25 -7.75 -8.35 M-9.0 -4.2 Q-8.95 -4.9 -9.05 -5.2" fill="none" stroke="#50545f" stroke-linecap="round" stroke-linejoin="round" stroke-width="0.05"/>
  </g>
</svg>
