<?xml version="1.0" encoding="UTF-8" standalone="no"?>
<svg xmlns:xlink="http://www.w3.org/1999/xlink" height="22.7px" width="8.3px" xmlns="http://www.w3.org/2000/svg">
  <g transform="matrix(1.0, 0.0, 0.0, 1.0, 8.5, 1.0)">
    <path d="M-0.4 12.8 L-0.2 20.6 Q-2.75 22.5 -4.75 21.1 -7.3 14.95 -8.05 7.25 L-7.5 5.65 -7.2 5.1 -6.2 4.05 -5.6 3.9 Q-3.8 3.85 -2.15 7.45 -1.05 9.8 -0.4 12.8" fill="#858898" fill-rule="evenodd" stroke="none"/>
    <path d="M-8.5 2.8 Q-8.75 -1.0 -2.75 -1.0 L-2.55 -0.9 Q-1.8 -0.35 -1.3 3.6 L-1.3 3.65 Q-0.7 7.3 -0.4 12.8 -1.05 9.8 -2.15 7.45 -3.8 3.85 -5.6 3.9 L-6.2 4.05 -7.2 5.1 -7.5 5.65 -8.05 7.25 -8.15 5.6 -8.4 3.6 -8.5 2.8" fill="#636876" fill-rule="evenodd" stroke="none"/>
    <path d="M-2.55 -0.9 Q-1.8 -0.35 -1.3 3.6 L-1.3 3.65 Q-0.7 7.3 -0.4 12.8 L-0.2 20.6 M-4.75 21.1 Q-7.3 14.95 -8.05 7.25 L-8.15 5.6 -8.4 3.6 -8.5 2.8" fill="none" stroke="#603e3e" stroke-linecap="round" stroke-linejoin="round" stroke-width="0.05"/>
  </g>
</svg>
