<?xml version="1.0" encoding="UTF-8" standalone="no"?>
<svg xmlns:xlink="http://www.w3.org/1999/xlink" height="25.05px" width="29.35px" xmlns="http://www.w3.org/2000/svg">
  <g transform="matrix(1.0, 0.0, 0.0, 1.0, 5.7, 13.1)">
    <path d="M7.55 -5.9 L7.95 -6.1 9.55 -6.4 11.05 -6.1 Q11.95 -6.8 13.2 -6.8 14.5 -6.8 15.4 -5.95 16.3 -5.1 16.3 -3.9 L15.95 -2.7 17.2 -3.0 Q18.2 -3.0 18.95 -2.35 19.6 -1.7 19.6 -0.75 19.55 -0.05 19.1 0.55 19.75 1.6 19.85 2.85 20.6 2.9 21.15 3.45 21.8 4.05 21.8 4.95 21.75 5.8 21.0 6.4 L20.4 6.8 20.7 7.05 Q21.35 7.65 21.35 8.55 21.3 9.45 20.55 10.05 L19.85 10.5 19.8 10.5 19.75 10.55 19.35 11.05 Q18.45 11.9 17.25 11.95 L15.9 11.6 15.7 11.5 15.15 11.05 Q14.55 10.4 14.4 9.6 13.6 10.2 12.6 10.25 L12.55 10.25 12.35 10.25 11.5 10.05 11.25 9.9 10.55 9.4 Q9.75 8.55 9.75 7.4 9.7 6.25 10.5 5.4 9.85 4.2 9.85 2.7 9.85 0.8 10.9 -0.65 9.4 -0.7 8.35 -1.75 7.25 -2.85 7.25 -4.4 7.25 -5.2 7.55 -5.9" fill="#3d3148" fill-rule="evenodd" stroke="none"/>
    <path d="M7.55 -5.9 L7.7 -6.2 8.35 -7.05 Q9.45 -8.15 11.0 -8.1 L12.5 -7.85 Q13.35 -8.6 14.6 -8.6 15.9 -8.6 16.85 -7.65 17.8 -6.7 17.85 -5.35 L17.55 -4.0 18.75 -4.35 Q19.75 -4.4 20.5 -3.65 21.25 -2.9 21.25 -1.9 21.25 -1.05 20.75 -0.4 21.5 0.7 21.65 2.1 22.4 2.2 22.95 2.75 23.65 3.45 23.65 4.45 23.65 5.4 22.95 6.05 L22.35 6.5 22.65 6.75 Q23.3 7.45 23.35 8.45 23.3 9.45 22.65 10.15 21.95 10.8 21.0 10.8 L19.85 10.5 20.55 10.05 Q21.3 9.45 21.35 8.55 21.35 7.65 20.7 7.05 L20.4 6.8 21.0 6.4 Q21.75 5.8 21.8 4.95 21.8 4.05 21.15 3.45 20.6 2.9 19.85 2.85 19.75 1.6 19.1 0.55 19.55 -0.05 19.6 -0.75 19.6 -1.7 18.95 -2.35 18.2 -3.0 17.2 -3.0 L15.95 -2.7 16.3 -3.9 Q16.3 -5.1 15.4 -5.95 14.5 -6.8 13.2 -6.8 11.95 -6.8 11.05 -6.1 L9.55 -6.4 7.95 -6.1 7.55 -5.9" fill="#705a85" fill-rule="evenodd" stroke="none"/>
    <path d="M19.85 10.5 L21.0 10.8 Q21.95 10.8 22.65 10.15 23.3 9.45 23.35 8.45 23.3 7.45 22.65 6.75 L22.35 6.5 22.95 6.05 Q23.65 5.4 23.65 4.45 23.65 3.45 22.95 2.75 22.4 2.2 21.65 2.1 21.5 0.7 20.75 -0.4 21.25 -1.05 21.25 -1.9 21.25 -2.9 20.5 -3.65 19.75 -4.4 18.75 -4.35 L17.55 -4.0 17.85 -5.35 Q17.8 -6.7 16.85 -7.65 15.9 -8.6 14.6 -8.6 13.35 -8.6 12.5 -7.85 L11.0 -8.1 Q9.45 -8.15 8.35 -7.05 L7.7 -6.2 7.55 -5.9 Q7.25 -5.2 7.25 -4.4 7.25 -2.85 8.35 -1.75 9.4 -0.7 10.9 -0.65 9.85 0.8 9.85 2.7 9.85 4.2 10.5 5.4 9.7 6.25 9.75 7.4 9.75 8.55 10.55 9.4 L11.25 9.9 11.5 10.05 12.35 10.25 12.55 10.25 12.6 10.25 Q13.6 10.2 14.4 9.6 14.55 10.4 15.15 11.05 L15.7 11.5 15.9 11.6 17.25 11.95 Q18.45 11.9 19.35 11.05 L19.75 10.55 19.8 10.5 19.85 10.5 Z" fill="none" stroke="#000000" stroke-linecap="round" stroke-linejoin="round" stroke-width="0.05"/>
    <path d="M6.85 1.3 L6.9 1.25 6.85 1.3" fill="#7b5128" fill-rule="evenodd" stroke="none"/>
    <path d="M5.25 -1.75 L5.45 -1.8 5.45 -1.75 5.25 -1.75" fill="#724a25" fill-rule="evenodd" stroke="none"/>
    <path d="M-4.6 -0.95 L-4.05 -0.7 -3.9 -0.6 -4.1 1.8 Q-4.55 0.95 -4.6 -0.95 M-2.15 0.3 L-0.8 0.8 -0.75 2.1 -1.9 0.85 -2.15 0.3 M2.2 1.45 L2.7 1.5 2.4 2.25 2.2 1.45 M4.75 1.5 L5.45 1.45 4.75 4.25 4.6 4.55 4.65 4.25 4.75 1.5 M6.0 1.4 L6.85 1.3 6.9 1.25 Q9.3 0.85 11.95 -0.2 L12.05 -0.25 11.7 0.6 11.05 2.4 10.0 4.25 9.3 5.15 9.65 4.25 9.9 2.5 Q9.5 1.05 7.6 1.85 7.0 2.7 6.9 4.25 6.8 5.65 7.05 7.65 6.05 6.5 5.95 4.25 L5.95 3.55 6.0 1.4" fill="#3d3148" fill-rule="evenodd" stroke="none"/>
    <path d="M-4.8 -3.9 L-4.45 -3.7 -3.9 -3.4 -3.8 -3.4 -2.55 -2.85 -2.45 -2.8 -1.3 -2.45 -1.2 -2.4 -0.1 -2.15 0.05 -2.15 3.0 -1.8 3.45 -1.75 4.75 -1.75 4.9 -1.75 5.25 -1.75 5.45 -1.75 5.45 -1.8 6.95 -2.3 7.5 -2.55 10.0 -4.25 Q12.2 -5.85 10.2 -8.7 8.15 -11.55 7.55 -11.55 L3.0 -12.5 Q6.2 -13.85 12.5 -12.1 15.95 -10.15 16.6 -7.6 17.2 -5.1 13.0 -4.1 L13.0 -4.05 12.3 -3.7 Q11.1 -3.05 9.8 -2.65 L9.45 -2.5 8.2 -2.15 5.45 -1.75 Q8.35 -0.65 6.9 1.25 L6.85 1.3 6.0 1.4 5.45 1.45 4.75 1.5 2.7 1.5 2.2 1.45 -0.8 0.8 -2.15 0.3 -3.9 -0.6 -4.05 -0.7 -4.6 -0.95 Q-6.7 -2.0 -4.8 -3.9" fill="#519951" fill-rule="evenodd" stroke="none"/>
    <path d="M5.25 -1.75 L4.9 -1.75 4.75 -1.75 3.45 -1.75 3.0 -1.8 0.05 -2.15 -0.1 -2.15 -1.2 -2.4 -1.3 -2.45 -2.45 -2.8 -2.55 -2.85 -3.8 -3.4 -3.9 -3.4 -4.45 -3.7 -4.8 -3.9 Q-4.85 -7.3 -3.55 -8.8 -2.25 -10.35 3.0 -12.5 L7.55 -11.55 Q8.15 -11.55 10.2 -8.7 12.2 -5.85 10.0 -4.25 L7.5 -2.55 6.95 -2.3 5.45 -1.8 5.25 -1.75" fill="#6aad69" fill-rule="evenodd" stroke="none"/>
    <path d="M6.9 1.25 Q8.35 -0.65 5.45 -1.75 L8.2 -2.15 9.45 -2.5 9.8 -2.65 Q11.1 -3.05 12.3 -3.7 L13.0 -4.05 13.0 -4.1 Q13.35 -3.95 13.45 -2.65 13.55 -1.4 12.8 -0.8 L12.05 -0.25 11.95 -0.2 Q9.3 0.85 6.9 1.25" fill="#447d44" fill-rule="evenodd" stroke="none"/>
    <path d="M-4.8 -3.9 L-4.45 -3.7 -3.9 -3.4 -3.8 -3.4 -2.55 -2.85 -2.45 -2.8 -1.3 -2.45 -1.2 -2.4 -0.1 -2.15 0.05 -2.15 3.0 -1.8 3.45 -1.75 4.75 -1.75 4.9 -1.75 5.25 -1.75 5.45 -1.75 8.2 -2.15 9.45 -2.5 9.8 -2.65 Q11.1 -3.05 12.3 -3.7 L13.0 -4.05 13.0 -4.1 Q17.2 -5.1 16.6 -7.6 15.95 -10.15 12.5 -12.1 6.2 -13.85 3.0 -12.5 -2.25 -10.35 -3.55 -8.8 -4.85 -7.3 -4.8 -3.9 -6.7 -2.0 -4.6 -0.95 L-4.05 -0.7 -3.9 -0.6 -2.15 0.3 -0.8 0.8 2.2 1.45 2.7 1.5 4.75 1.5 5.45 1.45 6.0 1.4 6.85 1.3 6.9 1.25 Q9.3 0.85 11.95 -0.2 L12.05 -0.25 12.8 -0.8 Q13.55 -1.4 13.45 -2.65 13.35 -3.95 13.0 -4.1" fill="none" stroke="#006633" stroke-linecap="round" stroke-linejoin="round" stroke-width="0.05"/>
    <path d="M12.05 -0.25 L11.7 0.6 11.05 2.4 10.0 4.25 9.3 5.15 9.65 4.25 9.9 2.5 Q9.5 1.05 7.6 1.85 7.0 2.7 6.9 4.25 6.8 5.65 7.05 7.65 6.05 6.5 5.95 4.25 L5.95 3.55 6.0 1.4 M-2.15 0.3 L-1.9 0.85 -0.75 2.1 -0.8 0.8 M5.45 1.45 L4.75 4.25 4.6 4.55 4.65 4.25 4.75 1.5 M2.7 1.5 L2.4 2.25 2.2 1.45 M-3.9 -0.6 L-4.1 1.8 Q-4.55 0.95 -4.6 -0.95" fill="none" stroke="#000000" stroke-linecap="round" stroke-linejoin="round" stroke-width="0.05"/>
  </g>
</svg>
