<?xml version="1.0" encoding="UTF-8" standalone="no"?>
<svg xmlns:xlink="http://www.w3.org/1999/xlink" height="6.35px" width="151.45px" xmlns="http://www.w3.org/2000/svg">
  <g transform="matrix(1.0, 0.0, 0.0, 1.0, 106.7, 2.95)">
    <path d="M-85.1 -0.6 L-84.95 -0.2 -84.95 0.2 -84.95 0.35 -87.85 0.35 -90.2 -2.9 -89.95 -2.95 Q-87.9 -2.95 -86.45 -2.05 -85.4 -1.45 -85.1 -0.6" fill="#afafaf" fill-rule="evenodd" stroke="none"/>
    <path d="M-84.95 0.35 L-84.95 0.2 -84.95 -0.2 -85.1 -0.6 44.75 -0.6 44.75 0.45 -84.95 0.45 -84.95 0.35" fill="#a2978c" fill-rule="evenodd" stroke="none"/>
    <path d="M-84.95 0.45 L44.75 0.45 44.75 1.4 -85.3 1.4 -85.15 1.2 -84.95 0.55 -84.95 0.45" fill="#86796c" fill-rule="evenodd" stroke="none"/>
    <path d="M-84.95 0.35 L-84.95 0.45 -84.95 0.55 -85.15 1.2 -85.3 1.4 -86.45 2.45 Q-87.9 3.35 -89.95 3.4 L-90.2 3.35 -87.85 0.35 -84.95 0.35" fill="#929292" fill-rule="evenodd" stroke="none"/>
    <path d="M-87.85 0.35 L-90.2 3.35 -106.7 0.35 -87.85 0.35" fill="#acacac" fill-rule="evenodd" stroke="none"/>
    <path d="M-90.2 -2.9 L-87.85 0.35 -106.7 0.35 -90.2 -2.9" fill="#cccccc" fill-rule="evenodd" stroke="none"/>
    <path d="M-85.15 1.2 L-85.3 1.4 -86.45 2.45 Q-87.9 3.35 -89.95 3.4 L-90.2 3.35 -106.7 0.35" fill="none" stroke="#666666" stroke-linecap="round" stroke-linejoin="round" stroke-width="0.05"/>
    <path d="M-85.3 1.4 L44.75 1.4" fill="none" stroke="#5c554e" stroke-linecap="round" stroke-linejoin="round" stroke-width="0.05"/>
  </g>
</svg>
