<?xml version="1.0" encoding="UTF-8" standalone="no"?>
<svg xmlns:xlink="http://www.w3.org/1999/xlink" height="33.1px" width="26.15px" xmlns="http://www.w3.org/2000/svg">
  <g transform="matrix(1.0, 0.0, 0.0, 1.0, 12.95, 17.6)">
    <path d="M4.25 -16.65 L4.3 -16.6 Q5.6 -15.9 5.9 -14.7 L6.0 -14.05 6.0 -13.95 6.0 -13.9 5.95 -13.1 5.95 -13.15 5.6 -11.85 5.25 -11.1 4.4 -10.35 4.35 -10.35 4.35 -9.95 4.8 -9.8 4.95 -9.75 Q8.05 -8.4 10.3 -5.8 L10.3 -5.75 Q12.35 -3.3 13.0 -0.1 13.5 2.75 12.85 5.6 12.2 8.5 10.3 10.85 8.1 13.4 5.1 14.6 L5.0 14.65 Q2.05 15.65 -1.15 15.5 L-1.3 15.5 Q-4.45 15.05 -7.1 13.35 L-7.05 13.35 Q-9.75 11.6 -11.3 8.9 L-11.3 8.95 Q-12.8 6.4 -12.95 3.25 -13.05 0.35 -12.0 -2.5 L-12.0 -2.45 Q-10.75 -6.0 -7.75 -8.1 L-7.75 -8.05 Q-6.15 -9.25 -4.35 -9.9 L-4.35 -10.15 Q-5.8 -10.8 -6.1 -12.3 L-6.15 -12.8 -6.15 -12.85 -6.15 -12.95 -6.0 -14.45 -5.75 -15.3 -5.3 -15.85 -5.15 -15.95 -5.15 -16.0 Q-2.1 -18.2 1.85 -17.35 L4.25 -16.65 M4.0 -14.05 Q4.0 -14.7 2.8 -15.1 L0.0 -15.55 -2.9 -15.1 Q-3.8 -14.8 -4.0 -14.35 -4.35 -14.05 -4.15 -12.85 L-4.15 -12.8 -4.1 -12.55 Q-3.9 -12.1 -3.0 -11.8 L-2.65 -11.7 Q-2.2 -11.05 -2.55 -8.35 -5.5 -7.7 -7.8 -5.4 -11.05 -2.15 -11.05 2.45 L-11.05 2.85 -11.05 2.95 -11.05 3.15 Q-10.8 7.3 -7.8 10.3 -4.55 13.55 0.05 13.55 4.65 13.55 7.95 10.3 10.95 7.3 11.15 3.1 L11.2 2.95 11.2 2.85 11.2 2.45 Q11.2 -2.15 7.95 -5.4 5.6 -7.75 2.65 -8.4 1.95 -10.85 2.5 -11.7 L2.7 -11.8 Q3.8 -12.2 3.9 -12.75 L4.0 -14.05" fill="#000000" fill-rule="evenodd" stroke="none"/>
    <path d="M-11.05 3.15 L-11.05 2.95 -11.05 2.85 Q-10.9 1.55 -7.8 0.65 -4.55 -0.3 0.05 -0.3 4.65 -0.3 7.95 0.65 11.05 1.55 11.2 2.85 L11.15 3.1 Q11.0 4.35 7.95 5.25 4.65 6.2 0.05 6.2 -4.55 6.2 -7.8 5.25 -10.8 4.35 -11.05 3.15" fill="#828a44" fill-rule="evenodd" stroke="none"/>
    <path d="M11.15 3.1 Q10.95 7.3 7.95 10.3 4.65 13.55 0.05 13.55 -4.55 13.55 -7.8 10.3 -10.8 7.3 -11.05 3.15 -10.8 4.35 -7.8 5.25 -4.55 6.2 0.05 6.2 4.65 6.2 7.95 5.25 11.0 4.35 11.15 3.1" fill="#575c2e" fill-rule="evenodd" stroke="none"/>
    <path d="M-2.55 -8.35 Q-2.2 -11.05 -2.65 -11.7 L-3.0 -11.8 Q-3.9 -12.1 -4.1 -12.55 L-4.15 -12.8 -4.15 -12.85 Q-4.35 -14.05 -4.0 -14.35 -3.8 -14.8 -2.9 -15.1 L0.0 -15.55 2.8 -15.1 Q4.0 -14.7 4.0 -14.05 L3.9 -12.75 Q3.8 -12.2 2.7 -11.8 L2.5 -11.7 Q1.95 -10.85 2.65 -8.4 L0.05 -8.65 -2.55 -8.35 0.05 -8.65 2.65 -8.4 2.9 -7.5 3.0 -7.15 Q3.0 -6.7 2.15 -6.35 L0.1 -6.0 -1.9 -6.35 Q-2.8 -6.7 -2.8 -7.15 L-2.75 -7.35 -2.55 -8.35 M2.4 -13.95 L-0.1 -14.25 -2.4 -14.05 -3.0 -13.85 -3.7 -13.5 -2.9 -13.05 -2.55 -12.95 0.0 -12.6 2.25 -12.85 2.8 -13.05 3.55 -13.4 2.7 -13.85 2.4 -13.95 M2.9 -7.5 L2.15 -7.95 0.1 -8.3 -1.9 -7.95 -2.75 -7.35 -1.9 -7.95 0.1 -8.3 2.15 -7.95 2.9 -7.5 M4.0 -14.05 L3.55 -13.4 4.0 -14.05 M-2.65 -11.7 L-0.1 -11.35 2.5 -11.7 -0.1 -11.35 -2.65 -11.7 M-3.7 -13.5 Q-4.05 -13.75 -4.05 -14.05 L-4.0 -14.35 -4.05 -14.05 Q-4.05 -13.75 -3.7 -13.5" fill="#00ccff" fill-opacity="0.39215687" fill-rule="evenodd" stroke="none"/>
    <path d="M2.65 -8.4 Q5.6 -7.75 7.95 -5.4 11.2 -2.15 11.2 2.45 L11.2 2.85 Q11.05 1.55 7.95 0.65 4.65 -0.3 0.05 -0.3 -4.55 -0.3 -7.8 0.65 -10.9 1.55 -11.05 2.85 L-11.05 2.45 Q-11.05 -2.15 -7.8 -5.4 -5.5 -7.7 -2.55 -8.35 L-2.75 -7.35 -2.8 -7.15 Q-2.8 -6.7 -1.9 -6.35 L0.1 -6.0 2.15 -6.35 Q3.0 -6.7 3.0 -7.15 L2.9 -7.5 2.65 -8.4 M2.4 -13.95 L2.7 -13.85 3.55 -13.4 2.8 -13.05 2.25 -12.85 0.0 -12.6 -2.55 -12.95 -2.9 -13.05 -3.7 -13.5 -3.0 -13.85 -2.4 -14.05 -0.1 -14.25 2.4 -13.95" fill="#00ccff" fill-opacity="0.22352941" fill-rule="evenodd" stroke="none"/>
    <path d="M-2.55 -8.35 Q-2.2 -11.05 -2.65 -11.7 L-3.0 -11.8 Q-3.9 -12.1 -4.1 -12.55 L-4.15 -12.8 -4.15 -12.85 Q-4.35 -14.05 -4.0 -14.35 -3.8 -14.8 -2.9 -15.1 L0.0 -15.55 2.8 -15.1 Q4.0 -14.7 4.0 -14.05 L3.9 -12.75 Q3.8 -12.2 2.7 -11.8 L2.5 -11.7 Q1.95 -10.85 2.65 -8.4 5.6 -7.75 7.95 -5.4 11.2 -2.15 11.2 2.45 L11.2 2.85 11.2 2.95 11.15 3.1 Q10.95 7.3 7.95 10.3 4.65 13.55 0.05 13.55 -4.55 13.55 -7.8 10.3 -10.8 7.3 -11.05 3.15 L-11.05 2.95 -11.05 2.85 -11.05 2.45 Q-11.05 -2.15 -7.8 -5.4 -5.5 -7.7 -2.55 -8.35 L0.05 -8.65 2.65 -8.4 2.9 -7.5 3.0 -7.15 Q3.0 -6.7 2.15 -6.35 L0.1 -6.0 -1.9 -6.35 Q-2.8 -6.7 -2.8 -7.15 L-2.75 -7.35 -2.55 -8.35 M2.4 -13.95 L-0.1 -14.25 -2.4 -14.05 -3.0 -13.85 -3.7 -13.5 -2.9 -13.05 -2.55 -12.95 0.0 -12.6 2.25 -12.85 2.8 -13.05 3.55 -13.4 2.7 -13.85 2.4 -13.95 M3.55 -13.4 L4.0 -14.05 M-2.75 -7.35 L-1.9 -7.95 0.1 -8.3 2.15 -7.95 2.9 -7.5 M11.2 2.85 L11.15 3.1 M-4.0 -14.35 L-4.05 -14.05 Q-4.05 -13.75 -3.7 -13.5 M2.5 -11.7 L-0.1 -11.35 -2.65 -11.7" fill="none" stroke="#00ccff" stroke-linecap="round" stroke-linejoin="round" stroke-width="0.05"/>
  </g>
</svg>
