<?xml version="1.0" encoding="UTF-8" standalone="no"?>
<svg xmlns:xlink="http://www.w3.org/1999/xlink" height="121.25px" width="131.2px" xmlns="http://www.w3.org/2000/svg">
  <g transform="matrix(1.0, 0.0, 0.0, 1.0, 65.6, 60.45)">
    <path d="M-57.8 -54.5 L-57.85 -54.5 -57.8 -54.5 M-7.5 -11.05 L-7.55 -11.05 -7.5 -11.05" fill="#5a7e5f" fill-rule="evenodd" stroke="none"/>
    <path d="M48.3 1.2 L48.3 -1.2 Q53.7 1.55 59.1 4.25 L59.1 60.8 48.25 55.35 48.3 41.45 -1.05 16.65 -7.55 13.4 -7.55 27.3 -17.2 22.45 -17.2 8.55 -51.35 -8.6 -57.85 -11.9 -57.85 -18.5 -57.85 -11.9 -57.85 2.05 -65.6 -1.85 -65.6 -55.95 Q-65.2 -55.1 -63.5 -54.3 -61.4 -53.25 -58.45 -53.25 L-57.85 -53.25 -57.85 -46.35 -57.85 -39.75 -57.85 -46.35 -17.2 -25.9 -17.2 -19.3 -17.2 -25.9 -17.2 -31.7 -17.2 -34.1 -7.55 -29.25 -7.55 -21.05 -7.5 -21.05 Q20.4 -7.05 48.3 7.0 L48.3 1.2 M48.3 13.6 L48.3 7.0 48.3 13.6 -1.05 -11.2 -7.55 -14.45 -7.55 -21.05 -7.55 -14.45 -7.55 -11.05 -7.55 6.8 -7.55 13.4 -7.55 6.8 -7.5 6.8 48.3 34.85 48.3 29.05 48.3 13.6 M48.3 41.45 L48.3 34.85 48.3 41.45 M-51.3 -36.45 L-57.85 -39.75 -57.85 -18.5 -17.2 1.95 -17.2 -3.85 -17.2 -19.3 -51.3 -36.45 M-17.2 8.55 L-17.2 1.95 -17.2 8.55" fill="#b97e2f" fill-rule="evenodd" stroke="none"/>
    <path d="M48.3 -1.2 L54.85 -3.5 65.6 1.9 59.1 4.25 Q53.7 1.55 48.3 -1.2 M-65.6 -55.95 L-65.6 -57.4 -65.1 -58.15 -64.4 -58.85 -63.5 -59.4 -60.2 -60.35 -58.5 -60.45 -58.45 -60.45 Q-55.55 -60.45 -53.45 -59.4 -51.35 -58.35 -51.35 -56.85 -51.35 -55.35 -53.45 -54.3 -55.3 -53.35 -57.85 -53.25 L-58.45 -53.25 Q-61.4 -53.25 -63.5 -54.3 -65.2 -55.1 -65.6 -55.95 M-51.35 -48.85 L-17.2 -31.7 -17.2 -25.9 -57.85 -46.35 Q-52.95 -46.35 -51.35 -48.85 M-17.2 -34.1 L-10.7 -36.45 -1.05 -31.6 -7.55 -29.25 -17.2 -34.1 M-1.05 -23.6 L48.3 1.2 48.3 7.0 Q20.4 -7.05 -7.5 -21.05 L-1.05 -23.6 M48.3 29.05 L48.3 34.85 -7.5 6.8 -1.05 4.25 48.3 29.05 M-62.2 -56.8 Q-62.2 -56.35 -61.15 -56.05 L-58.65 -55.75 -56.15 -56.05 Q-55.1 -56.35 -55.1 -56.8 -55.1 -57.25 -56.15 -57.55 L-58.65 -57.85 -61.15 -57.55 Q-62.2 -57.25 -62.2 -56.8 -62.2 -57.25 -61.15 -57.55 L-58.65 -57.85 -56.15 -57.55 Q-55.1 -57.25 -55.1 -56.8 -55.1 -56.35 -56.15 -56.05 L-58.65 -55.75 -61.15 -56.05 Q-62.2 -56.35 -62.2 -56.8 M-57.8 -54.5 L-57.85 -54.5 -57.8 -54.5 M-51.35 -21.0 L-17.2 -3.85 -17.2 1.95 -57.85 -18.5 Q-53.0 -18.05 -51.35 -21.0" fill="#c89a4f" fill-rule="evenodd" stroke="none"/>
    <path d="M65.6 1.9 L65.6 58.45 59.1 60.8 59.1 4.25 65.6 1.9 M-1.05 16.65 L-1.05 25.1 -7.55 27.3 -7.55 13.4 -1.05 16.65 M-51.35 -8.6 L-51.35 -0.25 -57.8 2.05 -57.85 2.05 -57.85 -11.9 -51.35 -8.6 M-51.35 -56.85 L-51.35 -48.85 Q-52.95 -46.35 -57.85 -46.35 L-57.85 -53.25 Q-55.3 -53.35 -53.45 -54.3 -51.35 -55.35 -51.35 -56.85 M-1.05 -31.6 L-1.05 -23.6 -7.5 -21.05 -7.55 -21.05 -7.55 -29.25 -1.05 -31.6 M-57.85 -39.75 L-51.3 -36.45 -51.35 -36.45 -51.35 -21.0 Q-53.0 -18.05 -57.85 -18.5 L-57.85 -39.75 M-7.55 -11.05 L-7.5 -11.05 -7.55 -11.05 -7.55 -14.45 -1.05 -11.2 -1.05 4.25 -7.5 6.8 -7.55 6.8 -7.55 -11.05" fill="#856229" fill-rule="evenodd" stroke="none"/>
    <path d="M48.3 1.2 L48.3 -1.2 54.85 -3.5 65.6 1.9 65.6 58.45 59.1 60.8 48.25 55.35 48.3 41.45 M-1.05 16.65 L-1.05 25.1 -7.55 27.3 -17.2 22.45 -17.2 8.55 M-51.35 -8.6 L-51.35 -0.25 -57.8 2.05 -57.85 2.05 -65.6 -1.85 -65.6 -55.95 -65.6 -57.4 M-51.35 -56.85 L-51.35 -48.85 Q-52.95 -46.35 -57.85 -46.35 L-57.85 -39.75 -57.85 -18.5 M-17.2 -31.7 L-17.2 -34.1 -10.7 -36.45 -1.05 -31.6 -1.05 -23.6 -7.5 -21.05 Q20.4 -7.05 48.3 7.0 L48.3 13.6 48.3 29.05 M48.3 1.2 L48.3 7.0 M65.6 1.9 L59.1 4.25 59.1 60.8 M59.1 4.25 Q53.7 1.55 48.3 -1.2 M-57.8 -54.5 L-57.85 -54.5 -57.8 -54.5 M-57.85 -53.25 L-57.85 -46.35 -17.2 -25.9 -17.2 -19.3 -17.2 -3.85 M-51.35 -36.45 L-51.35 -21.0 M-7.55 -29.25 L-1.05 -31.6 M-17.2 -34.1 L-7.55 -29.25 -7.55 -21.05 -7.5 -21.05 M-7.55 -14.45 L-7.55 -21.05 M-7.5 -11.05 L-7.55 -11.05 -7.55 -14.45 M-7.55 6.8 L-7.55 -11.05 M-1.05 4.25 L-1.05 -11.2 M-7.55 13.4 L-7.55 27.3 M-57.85 2.05 L-57.8 2.05 M-57.85 -11.9 L-57.85 2.05" fill="none" stroke="#3c4a19" stroke-linecap="round" stroke-linejoin="round" stroke-width="0.05"/>
    <path d="M48.3 41.45 L-1.05 16.65 -7.55 13.4 -7.55 6.8 -7.5 6.8 -1.05 4.25 48.3 29.05 48.3 34.85 -7.5 6.8 M-17.2 8.55 L-51.35 -8.6 -57.85 -11.9 -57.85 -18.5 -17.2 1.95 M-51.35 -48.85 L-17.2 -31.7 M-1.05 -23.6 L48.3 1.2 M-57.85 -39.75 L-51.3 -36.45 -17.2 -19.3 M-51.35 -21.0 L-17.2 -3.85 M-57.85 -18.5 Q-53.0 -18.05 -51.35 -21.0 M-7.55 -14.45 L-1.05 -11.2 48.3 13.6" fill="none" stroke="#3c4a19" stroke-linecap="round" stroke-linejoin="round" stroke-width="0.05"/>
    <path d="M-65.6 -57.4 L-65.1 -58.15 -64.4 -58.85 -63.5 -59.4 -60.2 -60.35 -58.5 -60.45 -58.45 -60.45 Q-55.55 -60.45 -53.45 -59.4 -51.35 -58.35 -51.35 -56.85 -51.35 -55.35 -53.45 -54.3 -55.3 -53.35 -57.85 -53.25 L-58.45 -53.25 Q-61.4 -53.25 -63.5 -54.3 -65.2 -55.1 -65.6 -55.95 M48.3 34.85 L48.3 41.45 M-62.2 -56.8 Q-62.2 -57.25 -61.15 -57.55 L-58.65 -57.85 -56.15 -57.55 Q-55.1 -57.25 -55.1 -56.8 -55.1 -56.35 -56.15 -56.05 L-58.65 -55.75 -61.15 -56.05 Q-62.2 -56.35 -62.2 -56.8 M-17.2 1.95 L-17.2 -3.85 M-17.2 -25.9 L-17.2 -31.7 M-17.2 1.95 L-17.2 8.55" fill="none" stroke="#584338" stroke-linecap="round" stroke-linejoin="round" stroke-width="0.05"/>
  </g>
</svg>
