<?xml version="1.0" encoding="UTF-8" standalone="no"?>
<svg xmlns:xlink="http://www.w3.org/1999/xlink" height="38.75px" width="51.6px" xmlns="http://www.w3.org/2000/svg">
  <g transform="matrix(1.0, 0.0, 0.0, 1.0, 26.1, 23.3)">
    <path d="M17.9 -18.2 L16.7 -17.4 16.35 -17.8 17.9 -18.2 M15.8 -19.55 L13.05 -16.1 Q11.55 -15.3 10.05 -14.65 L11.95 -12.8 7.2 -9.2 4.55 -15.25 4.6 -15.3 5.85 -18.9 8.2 -19.55 15.8 -19.55 M1.0 -9.65 L9.65 -4.3 7.5 1.6 7.45 1.65 0.45 -1.15 2.3 -3.9 -0.5 -6.1 1.0 -9.65 M14.5 -14.05 L25.25 -11.7 23.05 -3.85 25.5 2.3 21.35 6.05 21.2 3.5 17.6 -1.45 22.55 -0.5 21.8 -6.6 22.0 -6.65 23.05 -3.85 22.0 -6.65 21.8 -6.6 20.4 -6.6 18.05 -9.3 18.15 -9.3 18.05 -9.3 14.2 -13.9 14.5 -14.05 M14.75 -6.8 L12.45 -5.45 10.0 -7.3 11.1 -9.0 13.3 -9.15 11.85 -8.1 11.75 -8.1 11.75 -8.05 14.75 -6.8 M21.2 -9.05 L21.2 -9.0 21.2 -9.05 M7.3 6.3 L8.05 4.6 8.7 4.95 7.3 6.3 M5.45 12.35 L11.65 10.4 11.65 10.35 11.55 10.35 8.75 7.9 13.1 8.65 15.1 12.25 9.8 15.45 5.45 12.35 M1.1 0.85 L6.0 8.2 -0.15 14.25 -1.7 6.15 1.1 0.85 M13.35 10.65 L11.65 10.35 13.35 10.65 M-22.65 -11.65 L-19.1 -12.1 -18.95 -10.7 -22.65 -11.65 M-4.4 -22.2 L-5.35 -15.55 -7.4 -13.65 -7.95 -15.85 -4.4 -22.2 M-13.85 -10.25 L-7.55 -12.8 -5.6 -7.25 -8.7 -0.5 -11.35 -0.1 -11.4 -8.6 -11.5 -8.65 -13.85 -10.25 M-5.1 -13.35 L-4.05 -11.9 -4.65 -11.45 -5.1 -13.35 M-20.45 -5.15 L-19.65 -1.65 -22.6 -0.65 -20.45 -5.15 M-18.45 7.35 L-9.75 1.15 -12.0 10.55 -18.25 7.45 -18.45 7.35 M-21.35 2.05 L-24.4 3.1 -24.35 3.1 -23.0 4.35 -25.1 3.9 -26.1 2.1 -23.45 0.55 -21.35 2.05" fill="#757575" fill-rule="evenodd" stroke="none"/>
    <path d="M16.35 -17.8 L16.7 -17.4 17.9 -18.2 17.55 -16.5 16.05 -15.8 15.2 -17.45 15.9 -18.5 16.35 -17.8 M2.2 -19.35 L2.75 -20.15 10.55 -23.3 8.2 -19.55 5.85 -18.9 2.2 -19.35 M-0.5 -6.1 L2.3 -3.9 0.45 -1.15 -3.3 -2.75 -3.25 -8.35 -0.5 -6.1 M7.3 6.3 L6.65 4.25 7.8 2.55 9.7 3.75 9.65 5.35 8.7 4.95 8.05 4.6 7.3 6.3 M-8.35 11.75 L-3.8 1.15 1.1 0.85 -1.7 6.15 -8.35 11.75 M-22.65 -11.65 L-19.8 -14.95 -15.65 -14.6 -16.0 -10.1 -18.75 -8.65 -18.95 -10.7 -19.1 -12.1 -22.65 -11.65 M-17.85 -0.3 L-17.5 -5.45 -13.95 -10.4 -13.85 -10.25 -11.5 -8.65 -11.4 -8.6 -17.85 -0.3 M-4.65 -11.45 L-4.05 -11.9 -5.1 -13.35 -3.0 -12.95 -2.1 -11.05 -4.1 -10.05 -5.5 -10.85 -4.65 -11.45" fill="#a8a8a8" fill-rule="evenodd" stroke="none"/>
    <path d="M10.55 -23.3 L15.9 -19.55 15.8 -19.55 8.2 -19.55 10.55 -23.3 M1.0 -9.65 L-0.5 -6.1 -3.25 -8.35 1.0 -9.65 M-4.45 -22.25 L-4.4 -22.2 -7.95 -15.85 -12.4 -16.2 -10.5 -19.55 -4.45 -22.25 M-18.45 7.35 L-18.45 7.4 -23.15 5.55 -9.75 1.15 -18.45 7.35" fill="#bebebe" fill-rule="evenodd" stroke="none"/>
    <path d="M4.6 -15.3 L4.55 -15.35 -0.6 -15.25 2.2 -19.35 5.85 -18.9 4.6 -15.3 M14.5 -14.05 L17.2 -15.1 17.05 -15.4 20.5 -16.7 25.25 -11.7 14.5 -14.05 M21.35 6.05 L19.65 7.6 10.85 4.8 16.45 -6.6 20.4 -6.6 21.8 -6.6 22.55 -0.5 17.6 -1.45 21.2 3.5 21.35 6.05 M13.3 -9.15 L13.35 -9.15 14.75 -6.8 11.75 -8.05 11.85 -8.1 13.3 -9.15 M5.45 12.35 L8.65 7.9 8.75 7.9 11.55 10.35 11.65 10.4 5.45 12.35 M-0.15 14.25 L-8.35 11.75 -1.7 6.15 -0.15 14.25 M-7.4 -13.65 L-8.75 -12.4 -12.45 -16.1 -12.4 -16.2 -7.95 -15.85 -7.4 -13.65 M-11.35 -0.1 L-15.0 0.4 -17.85 -0.3 -11.4 -8.6 -11.35 -0.1 M-20.45 -5.15 L-22.6 -0.65 -22.7 -0.6 -25.3 -4.55 -22.5 -6.9 -20.45 -5.2 -20.45 -5.15 M-23.15 5.55 L-18.45 7.4 -18.25 7.45 -12.0 10.55 -12.05 10.65 -21.35 9.95 -23.15 5.55 M-21.35 2.05 L-22.95 4.35 -23.0 4.35 -24.35 3.1 -24.4 3.1 -21.35 2.05" fill="#8f8f8f" fill-rule="evenodd" stroke="none"/>
    <path d="M16.35 -17.8 L15.9 -18.5 15.2 -17.45 16.05 -15.8 17.55 -16.5 17.9 -18.2 16.35 -17.8 M10.55 -23.3 L15.9 -19.55 15.8 -19.55 M-0.6 -15.25 L2.2 -19.35 2.75 -20.15 10.55 -23.3 M0.45 -1.15 L7.45 1.65 7.5 1.6 9.65 -4.3 1.0 -9.65 -3.25 -8.35 -3.3 -2.75 0.45 -1.15 M23.05 -3.85 L25.5 2.3 21.35 6.05 19.65 7.6 10.85 4.8 16.45 -6.6 20.4 -6.6 21.8 -6.6 22.0 -6.65 23.05 -3.85 M13.3 -9.15 L13.35 -9.15 14.75 -6.8 12.45 -5.45 10.0 -7.3 11.1 -9.0 13.3 -9.15 M8.7 4.95 L9.65 5.35 9.7 3.75 7.8 2.55 6.65 4.25 7.3 6.3 8.05 4.6 8.7 4.95 7.3 6.3 M8.75 7.9 L8.65 7.9 5.45 12.35 9.8 15.45 15.1 12.25 13.1 8.65 8.75 7.9 M11.65 10.4 L11.55 10.35 11.65 10.35 13.35 10.65 M1.1 0.85 L6.0 8.2 -0.15 14.25 -8.35 11.75 -3.8 1.15 1.1 0.85 M-18.95 -10.7 L-18.75 -8.65 -16.0 -10.1 -15.65 -14.6 -19.8 -14.95 -22.65 -11.65 -18.95 -10.7 M-4.4 -22.2 L-5.35 -15.55 -7.4 -13.65 -8.75 -12.4 -12.45 -16.1 -12.4 -16.2 -10.5 -19.55 -4.45 -22.25 M-17.85 -0.3 L-17.5 -5.45 -13.95 -10.4 -13.85 -10.25 -7.55 -12.8 -5.6 -7.25 -8.7 -0.5 -11.35 -0.1 -15.0 0.4 -17.85 -0.3 M-4.65 -11.45 L-5.5 -10.85 -4.1 -10.05 -2.1 -11.05 -3.0 -12.95 -5.1 -13.35 -4.65 -11.45 M-22.6 -0.65 L-19.65 -1.65 -20.45 -5.15 -20.45 -5.2 -22.5 -6.9 -25.3 -4.55 -22.7 -0.6 -22.6 -0.65 M-18.45 7.4 L-18.25 7.45 -18.45 7.35 M-12.0 10.55 L-12.05 10.65 -21.35 9.95 -23.15 5.55 M-9.75 1.15 L-12.0 10.55 M-23.0 4.35 L-22.95 4.35 -21.35 2.05 -23.45 0.55 -26.1 2.1 -25.1 3.9 -23.0 4.35 M-24.4 3.1 L-24.35 3.1 -24.4 3.1" fill="none" stroke="#333333" stroke-linecap="round" stroke-linejoin="round" stroke-width="0.05"/>
    <path d="M15.8 -19.55 L13.05 -16.1 Q11.55 -15.3 10.05 -14.65 L11.95 -12.8 7.2 -9.2 4.55 -15.25 4.6 -15.3 4.55 -15.35 -0.6 -15.25 M25.25 -11.7 L20.5 -16.7 17.05 -15.4 17.2 -15.1 14.5 -14.05 14.2 -13.9 18.05 -9.3 18.15 -9.3 18.05 -9.3 20.4 -6.6 M25.25 -11.7 L23.05 -3.85 M21.2 -9.05 L21.2 -9.0 21.2 -9.05 M-18.45 7.4 L-18.45 7.35 M-9.75 1.15 L-23.15 5.55" fill="none" stroke="#333333" stroke-linecap="round" stroke-linejoin="round" stroke-width="0.05"/>
  </g>
</svg>
