<?xml version="1.0" encoding="UTF-8" standalone="no"?>
<svg xmlns:xlink="http://www.w3.org/1999/xlink" height="7.25px" width="15.05px" xmlns="http://www.w3.org/2000/svg">
  <g transform="matrix(1.0, 0.0, 0.0, 1.0, 8.35, 2.4)">
    <path d="M2.3 -2.1 L4.6 -1.55 4.65 -1.55 Q5.3 -1.15 5.75 -0.6 4.9 0.1 2.0 0.05 -0.25 -0.2 -0.7 -1.3 -0.8 -1.65 -0.1 -2.05 L2.3 -2.1" fill="#000000" fill-rule="evenodd" stroke="none"/>
    <path d="M-7.95 1.95 Q-7.25 0.1 -4.3 -1.5 -2.7 -2.35 1.35 -2.4 L2.3 -2.1 -0.1 -2.05 Q-0.8 -1.65 -0.7 -1.3 -0.25 -0.2 2.0 0.05 4.9 0.1 5.75 -0.6 7.45 1.3 6.05 4.35 7.3 1.05 4.6 0.9 L1.8 1.85 -1.25 3.3 -3.15 4.1 -4.35 3.95 -4.6 3.1 Q-5.55 0.0 -6.85 0.75 -7.4 1.0 -7.95 1.95" fill="#956c5e" fill-rule="evenodd" stroke="none"/>
    <path d="M6.05 4.35 L-4.5 4.85 Q-7.7 4.4 -8.15 3.7 -8.6 2.95 -7.95 1.95 -7.4 1.0 -6.85 0.75 -5.55 0.0 -4.6 3.1 L-4.35 3.95 -3.15 4.1 -1.25 3.3 1.8 1.85 4.6 0.9 Q7.3 1.05 6.05 4.35" fill="#823939" fill-rule="evenodd" stroke="none"/>
    <path d="M-7.95 1.95 Q-7.25 0.1 -4.3 -1.5 -2.7 -2.35 1.35 -2.4 L2.3 -2.1 4.6 -1.55 4.65 -1.55 Q5.3 -1.15 5.75 -0.6 7.45 1.3 6.05 4.35 L-4.5 4.85 Q-7.7 4.4 -8.15 3.7 -8.6 2.95 -7.95 1.95 -7.4 1.0 -6.85 0.75 -5.55 0.0 -4.6 3.1 L-4.35 3.95 -3.15 4.1 -1.25 3.3 1.8 1.85 4.6 0.9 Q7.3 1.05 6.05 4.35" fill="none" stroke="#3f2c27" stroke-linecap="round" stroke-linejoin="round" stroke-width="0.05"/>
  </g>
</svg>
