<?xml version="1.0" encoding="UTF-8" standalone="no"?>
<svg xmlns:xlink="http://www.w3.org/1999/xlink" height="30.45px" width="15.1px" xmlns="http://www.w3.org/2000/svg">
  <g transform="matrix(1.0, 0.0, 0.0, 1.0, 8.05, 2.6)">
    <path d="M-7.5 0.9 Q-7.95 -0.65 -8.05 -2.6 -7.35 -2.0 -5.9 -1.55 L-4.05 -1.1 -3.6 -1.0 -2.75 -0.95 2.45 -0.7 3.95 -0.7 Q5.45 -0.85 6.6 -1.45 7.4 0.8 6.75 1.85 5.3 4.3 4.2 5.15 2.45 6.5 0.3 6.65 L-0.35 6.65 -0.5 6.65 -1.0 6.65 -1.55 6.55 -2.35 6.4 -2.55 6.35 Q-4.4 5.8 -5.65 4.5 -6.9 3.15 -7.5 0.9" fill="#c5afa0" fill-rule="evenodd" stroke="none"/>
    <path d="M6.75 1.85 Q7.4 0.8 6.6 -1.45 5.45 -0.85 3.95 -0.7 L2.45 -0.7 -2.75 -0.95 -3.6 -1.0 -4.05 -1.1 -5.9 -1.55 Q-7.35 -2.0 -8.05 -2.6 -7.95 -0.65 -7.5 0.9 M-2.55 6.35 L-2.35 6.4 -1.55 6.55 -1.0 6.65 -0.5 6.65 -0.35 6.65" fill="none" stroke="#594337" stroke-linecap="round" stroke-linejoin="round" stroke-width="0.05"/>
    <path d="M2.25 14.95 L2.55 26.65 2.25 14.95 M0.55 26.55 Q-0.95 26.2 -1.8 24.85 -3.05 23.65 -4.05 23.35 -4.85 23.05 -5.5 23.35 -6.35 23.75 -6.7 22.75 L-7.85 -2.5 Q-4.25 -0.4 5.6 -1.05 4.55 10.6 5.6 27.85 L4.3 26.85 2.55 26.65 0.55 26.55 M-1.65 20.05 L-1.8 24.85 -1.65 20.05 M-5.8 17.1 L-5.5 23.35 -5.8 17.1" fill="#43446b" fill-rule="evenodd" stroke="none"/>
    <path d="M2.55 26.65 L2.25 14.95 M0.55 26.55 Q-0.95 26.2 -1.8 24.85 -3.05 23.65 -4.05 23.35 -4.85 23.05 -5.5 23.35 -6.35 23.75 -6.7 22.75 L-7.85 -2.5 Q-4.25 -0.4 5.6 -1.05 4.55 10.6 5.6 27.85 L4.3 26.85 2.55 26.65 0.55 26.55 M-5.5 23.35 L-5.8 17.1 M-1.8 24.85 L-1.65 20.05" fill="none" stroke="#a2a5c4" stroke-linecap="round" stroke-linejoin="round" stroke-width="0.05"/>
  </g>
</svg>
