<?xml version="1.0" encoding="UTF-8" standalone="no"?>
<svg xmlns:xlink="http://www.w3.org/1999/xlink" height="31.45px" width="21.35px" xmlns="http://www.w3.org/2000/svg">
  <g transform="matrix(1.0, 0.0, 0.0, 1.0, 11.55, 13.15)">
    <path d="M2.35 -8.25 Q1.7 -8.15 0.45 -7.3 L-4.85 -6.95 -5.25 -7.65 -5.35 -7.8 -5.35 -7.85 -5.35 -7.9 -5.25 -8.65 -5.2 -8.75 Q-4.85 -11.05 -5.3 -12.75 -0.7 -13.6 2.4 -12.7 L2.2 -11.3 2.2 -11.05 Q2.1 -9.6 2.35 -8.25 M-7.45 -8.45 L-7.6 -8.5 -5.25 -8.75 -5.25 -8.65 -6.25 -8.0 -7.45 -8.45" fill="#ffd0ae" fill-rule="evenodd" stroke="none"/>
    <path d="M-5.35 -7.8 L-5.25 -7.65 -4.85 -6.95 0.45 -7.3 Q1.7 -8.15 2.35 -8.25 L2.5 -7.65 2.95 -7.45 3.5 -7.25 4.8 -6.65 Q5.9 2.75 -7.55 0.0 -9.85 -4.75 -7.45 -8.45 L-6.25 -8.0 -5.25 -8.65 -5.35 -7.9 -5.35 -7.85 -5.35 -7.8" fill="#ffdfc8" fill-rule="evenodd" stroke="none"/>
    <path d="M-5.2 -8.75 L-5.25 -8.65 -5.25 -8.75 -5.2 -8.75" fill="#eebf5a" fill-rule="evenodd" stroke="none"/>
    <path d="M2.35 -8.25 Q2.1 -9.6 2.2 -11.05 L2.2 -11.3 2.4 -12.7 Q-0.7 -13.6 -5.3 -12.75 -4.85 -11.05 -5.2 -8.75 L-5.25 -8.65 -5.35 -7.9 -5.35 -7.85 -5.35 -7.8 M2.35 -8.25 L2.5 -7.65 2.95 -7.45 3.5 -7.25 4.8 -6.65 M-7.6 -8.5 L-5.25 -8.75 -5.2 -8.75" fill="none" stroke="#674743" stroke-linecap="round" stroke-linejoin="round" stroke-width="0.05"/>
    <path d="M4.2 14.7 Q5.55 14.35 6.25 13.8 7.25 14.8 6.8 16.2 3.85 17.95 -1.05 17.95 L-1.55 17.95 Q1.2 17.4 3.15 15.2 L3.45 14.85 3.8 14.8 3.9 14.75 4.2 14.7" fill="#684942" fill-rule="evenodd" stroke="none"/>
    <path d="M1.6 -5.4 L1.6 -5.35 1.55 -5.35 1.6 -5.4" fill="#b48f87" fill-rule="evenodd" stroke="none"/>
    <path d="M-5.8 17.7 L-5.45 17.8 -5.8 17.75 -5.8 17.7 M-3.55 18.1 L-2.7 18.05 -2.0 18.0 -2.0 18.3 -3.55 18.1" fill="#cccccc" fill-rule="evenodd" stroke="none"/>
    <path d="M1.6 -5.4 L1.55 -5.35 1.6 -5.35 3.55 -5.15 5.15 -4.55 5.25 -4.45 6.55 -3.7 6.75 -3.55 7.7 -2.3 7.7 -1.85 7.75 -1.05 7.65 0.9 7.45 2.65 7.35 3.2 7.0 4.8 6.55 6.15 5.45 8.7 5.35 8.85 5.35 9.05 5.35 10.35 5.05 11.9 5.25 13.1 Q4.85 14.2 4.2 14.7 L3.9 14.75 3.8 14.8 3.45 14.85 3.15 15.2 Q1.2 17.4 -1.55 17.95 L-2.0 18.0 -2.7 18.05 -3.55 18.1 -5.45 17.8 -5.8 17.7 Q-7.45 17.2 -8.8 15.95 -11.4 13.65 -11.55 10.15 -11.7 6.85 -9.9 2.1 L-9.9 1.8 -9.95 1.7 -10.05 1.0 Q-11.0 -0.95 -10.85 -3.0 L-10.45 -5.15 -10.4 -5.2 -9.2 -8.0 -8.15 -8.4 -6.1 -8.65 Q-6.3 -6.2 -5.0 -3.7 L-5.0 -1.6 -3.9 -1.1 -3.35 -3.05 Q-0.55 -3.65 1.6 -5.4" fill="#bed5b5" fill-rule="evenodd" stroke="none"/>
    <path d="M1.6 -5.35 L1.6 -5.4 Q2.65 -6.25 3.5 -7.25 5.9 -6.9 8.3 -4.75 L8.75 -4.4 Q9.9 -3.5 9.75 -2.7 L9.8 -1.9 9.7 0.05 9.7 0.2 9.65 0.8 9.25 3.1 9.05 4.05 7.55 8.25 7.3 8.75 7.3 9.8 7.3 12.8 6.25 13.8 Q5.55 14.35 4.2 14.7 4.85 14.2 5.25 13.1 L5.05 11.9 5.35 10.35 5.35 9.05 5.35 8.85 5.45 8.7 6.55 6.15 7.0 4.8 7.35 3.2 7.45 2.65 7.65 0.9 7.75 -1.05 7.7 -1.85 7.7 -2.3 6.75 -3.55 6.55 -3.7 5.25 -4.45 5.15 -4.55 3.55 -5.15 1.6 -5.35" fill="#9ebe8f" fill-rule="evenodd" stroke="none"/>
    <path d="M3.45 14.85 L3.8 14.8 3.9 14.75" fill="none" stroke="#674743" stroke-linecap="round" stroke-linejoin="round" stroke-width="0.05"/>
    <path d="M4.2 14.7 Q5.55 14.35 6.25 13.8 7.25 14.8 6.8 16.2 3.85 17.95 -1.05 17.95 L-1.55 17.95 M3.9 14.75 L4.2 14.7" fill="none" stroke="#674743" stroke-linecap="round" stroke-linejoin="round" stroke-width="0.05"/>
    <path d="M-3.55 18.1 L-2.0 18.3 -2.0 18.0 M-5.45 17.8 L-5.8 17.75 -5.8 17.7" fill="none" stroke="#999999" stroke-linecap="round" stroke-linejoin="round" stroke-width="0.05"/>
    <path d="M6.25 13.8 L7.3 12.8 7.3 9.8 M9.05 4.05 L9.25 3.1 9.65 0.8 9.7 0.2 9.7 0.05 9.8 -1.9 9.75 -2.7 Q9.9 -3.5 8.75 -4.4 L8.3 -4.75 Q5.9 -6.9 3.5 -7.25 2.65 -6.25 1.6 -5.4 -0.55 -3.65 -3.35 -3.05 L-3.9 -1.1 -5.0 -1.6 -5.0 -3.7 Q-6.3 -6.2 -6.1 -8.65 L-8.15 -8.4 -9.2 -8.0 M-10.4 -5.2 L-10.45 -5.15 -10.85 -3.0 Q-11.0 -0.95 -10.05 1.0 M-9.95 1.7 L-9.9 1.8" fill="none" stroke="#786d36" stroke-linecap="round" stroke-linejoin="round" stroke-width="0.05"/>
    <path d="M-10.05 1.0 L-9.95 1.7" fill="none" stroke="#786d36" stroke-linecap="round" stroke-linejoin="round" stroke-width="0.05"/>
    <path d="M7.3 9.8 L7.3 8.75 7.55 8.25 9.05 4.05" fill="none" stroke="#786d36" stroke-linecap="round" stroke-linejoin="round" stroke-width="0.05"/>
    <path d="M-9.9 1.8 L-9.9 2.1 Q-11.7 6.85 -11.55 10.15 -11.4 13.65 -8.8 15.95 -7.45 17.2 -5.8 17.7 L-5.45 17.8 -3.55 18.1 -2.7 18.05 -2.0 18.0 -1.55 17.95 Q1.2 17.4 3.15 15.2 L3.45 14.85 Z" fill="none" stroke="#aa6c2f" stroke-linecap="round" stroke-linejoin="round" stroke-width="0.05"/>
  </g>
</svg>
