<?xml version="1.0" encoding="UTF-8" standalone="no"?>
<svg xmlns:xlink="http://www.w3.org/1999/xlink" height="16.85px" width="18.95px" xmlns="http://www.w3.org/2000/svg">
  <g transform="matrix(1.0, 0.0, 0.0, 1.0, 5.15, 12.35)">
    <path d="M3.55 2.25 Q2.05 0.3 0.9 0.0 2.9 -0.1 3.55 2.25 M-3.5 0.0 Q-3.2 -1.6 -1.7 -0.65 -3.1 -1.1 -3.5 0.0" fill="#592626" fill-rule="evenodd" stroke="none"/>
    <path d="M3.55 2.25 Q2.9 -0.1 0.9 0.0 2.05 0.3 3.55 2.25 M-3.5 0.0 Q-3.2 -1.6 -1.7 -0.65 -3.1 -1.1 -3.5 0.0" fill="none" stroke="#3c1a1a" stroke-linecap="round" stroke-linejoin="round" stroke-width="0.05"/>
    <path d="M6.7 1.75 L6.5 1.95 6.7 1.75" fill="#000033" fill-rule="evenodd" stroke="none"/>
    <path d="M7.75 1.5 L7.6 1.45 7.45 1.45 Q7.3 1.45 7.2 1.55 7.0 1.5 6.7 1.75 L6.5 1.95 6.45 1.95 4.6 -0.05 Q2.85 -1.6 -0.1 -2.3 L-1.55 -2.55 Q-3.35 -2.95 -3.7 -1.95 -4.15 -4.5 -3.25 -4.95 -3.15 -5.95 -2.6 -6.3 L-2.2 -6.45 -1.35 -6.65 Q6.3 -6.35 7.75 1.5 M3.05 -2.5 Q5.5 -1.05 7.15 1.5 L7.2 1.55 7.15 1.5 Q5.5 -1.05 3.05 -2.5 M0.6 -4.2 Q-0.7 -4.9 -2.05 -4.95 L-3.25 -4.95 -2.05 -4.95 Q-0.7 -4.9 0.6 -4.2" fill="#96bebe" fill-rule="evenodd" stroke="none"/>
    <path d="M13.8 -3.95 Q12.45 -2.75 10.95 -2.85 L8.85 -2.85 12.35 0.8 Q10.95 0.75 10.5 -0.05 L10.5 3.8 Q9.8 3.45 9.25 2.3 L7.9 4.5 Q7.15 3.2 7.75 1.5 6.3 -6.35 -1.35 -6.65 L-2.2 -6.45 -2.6 -6.3 Q-3.95 -6.15 -5.15 -7.3 L-2.2 -7.8 Q-3.8 -8.8 -5.0 -10.8 L-1.6 -8.3 1.0 -9.15 Q-0.3 -10.45 -0.45 -12.35 L3.85 -6.2 11.5 -7.4 Q10.6 -6.3 8.7 -5.8 L5.7 -5.2 13.8 -3.95 M6.5 1.95 Q5.75 2.2 5.6 3.35 5.15 2.8 4.6 -0.05 L6.45 1.95 6.5 1.95" fill="#592626" fill-rule="evenodd" stroke="none"/>
    <path d="M10.95 -2.85 L12.35 0.8 8.85 -2.85 10.95 -2.85 M-5.0 -10.8 L1.0 -9.15 -1.6 -8.3 -5.0 -10.8 M-0.45 -12.35 L5.1 -8.45 11.5 -7.4 3.85 -6.2 -0.45 -12.35 M8.7 -5.8 L13.8 -3.95 5.7 -5.2 8.7 -5.8" fill="#593426" fill-rule="evenodd" stroke="none"/>
    <path d="M6.7 1.75 L6.5 1.95" fill="none" stroke="#584338" stroke-linecap="round" stroke-linejoin="round" stroke-width="0.05"/>
    <path d="M7.75 1.5 L7.6 1.45 7.45 1.45 Q7.3 1.45 7.2 1.55 7.0 1.5 6.7 1.75 L6.5 1.95 6.45 1.95 4.6 -0.05 Q2.85 -1.6 -0.1 -2.3 L-1.55 -2.55 Q-3.35 -2.95 -3.7 -1.95 -4.15 -4.5 -3.25 -4.95 -3.15 -5.95 -2.6 -6.3 L-2.2 -6.45 -1.35 -6.65 Q6.3 -6.35 7.75 1.5 M7.2 1.55 L7.15 1.5 Q5.5 -1.05 3.05 -2.5 M-3.25 -4.95 L-2.05 -4.95 Q-0.7 -4.9 0.6 -4.2" fill="none" stroke="#548584" stroke-linecap="round" stroke-linejoin="round" stroke-width="0.05"/>
    <path d="M13.8 -3.95 Q12.45 -2.75 10.95 -2.85 L12.35 0.8 Q10.95 0.75 10.5 -0.05 L10.5 3.8 Q9.8 3.45 9.25 2.3 L7.9 4.5 Q7.15 3.2 7.75 1.5 M-2.6 -6.3 Q-3.95 -6.15 -5.15 -7.3 L-2.2 -7.8 Q-3.8 -8.8 -5.0 -10.8 L1.0 -9.15 Q-0.3 -10.45 -0.45 -12.35 L5.1 -8.45 11.5 -7.4 Q10.6 -6.3 8.7 -5.8 L13.8 -3.95" fill="none" stroke="#3c1a1a" stroke-linecap="round" stroke-linejoin="round" stroke-width="0.05"/>
    <path d="M6.5 1.95 Q5.75 2.2 5.6 3.35 5.15 2.8 4.6 -0.05" fill="none" stroke="#3c1a1a" stroke-linecap="round" stroke-linejoin="round" stroke-width="0.05"/>
  </g>
</svg>
