<?xml version="1.0" encoding="UTF-8" standalone="no"?>
<svg xmlns:xlink="http://www.w3.org/1999/xlink" height="19.8px" width="20.55px" xmlns="http://www.w3.org/2000/svg">
  <g transform="matrix(1.0, 0.0, 0.0, 1.0, 7.95, 12.55)">
    <path d="M-0.35 1.1 Q2.45 -0.3 3.15 1.45 2.1 0.85 -0.35 1.1 M-3.6 0.3 Q-3.55 -1.4 -1.75 0.45 -3.5 -0.55 -3.6 0.3" fill="#936d17" fill-rule="evenodd" stroke="none"/>
    <path d="M-0.35 1.1 Q2.1 0.85 3.15 1.45 2.45 -0.3 -0.35 1.1 M-3.6 0.3 Q-3.55 -1.4 -1.75 0.45 -3.5 -0.55 -3.6 0.3" fill="none" stroke="#885415" stroke-linecap="round" stroke-linejoin="round" stroke-width="0.05"/>
    <path d="M7.5 0.7 L6.75 1.05 6.1 1.55 4.6 -0.05 2.75 -1.3 Q1.5 -1.9 -0.1 -2.3 L-0.3 -2.35 -1.55 -2.55 Q-2.6 -2.8 -3.1 -2.55 L-3.15 -2.55 -3.75 -2.2 Q-4.1 -4.55 -3.25 -4.95 L-3.2 -5.3 -3.0 -5.85 -2.6 -6.3 -2.4 -6.4 -2.2 -6.45 -1.35 -6.65 0.3 -6.5 2.95 -5.7 4.85 -4.4 4.95 -4.3 Q6.5 -2.8 7.25 -0.4 L7.5 0.7 M3.05 -2.5 Q5.25 -1.25 6.75 1.05 5.25 -1.25 3.05 -2.5 M0.6 -4.2 Q-0.7 -4.9 -2.05 -4.95 L-3.25 -4.95 -2.05 -4.95 Q-0.7 -4.9 0.6 -4.2" fill="#96bebe" fill-rule="evenodd" stroke="none"/>
    <path d="M9.6 -10.3 Q10.05 -8.75 8.95 -6.6 7.45 -6.1 5.9 -5.15 5.25 -7.1 4.0 -8.1 3.85 -6.7 2.95 -5.7 L0.3 -6.5 -0.25 -8.0 -7.95 -7.8 Q-3.05 -10.85 1.3 -9.05 L3.15 -7.95 Q4.35 -9.5 3.45 -12.55 5.2 -11.15 5.85 -8.8 L5.7 -7.35 Q8.2 -7.55 9.6 -10.3 M9.55 0.2 Q9.65 1.95 9.0 3.55 8.5 4.85 8.75 5.45 7.85 5.1 7.3 4.2 L8.4 0.95 Q8.25 0.55 7.5 0.7 L9.55 0.2 M5.6 2.35 Q5.95 4.55 5.95 7.25 L5.1 4.3 5.15 1.45 5.6 2.35 M-3.8 -0.55 L-3.5 1.6 Q-5.1 2.45 -6.1 4.7 -5.75 2.45 -4.3 -0.1 L-3.8 -0.55 M-3.2 -5.3 Q-4.25 -5.7 -5.5 -5.3 -4.1 -7.1 -2.75 -6.85 L-2.4 -6.4 -2.6 -6.3 -3.0 -5.85 -3.2 -5.3" fill="#9c7d18" fill-rule="evenodd" stroke="none"/>
    <path d="M12.0 -7.15 Q10.7 -6.35 9.85 -5.25 8.85 -4.05 8.35 -2.45 L9.8 -2.0 Q11.4 -1.35 12.6 0.1 9.75 -1.1 7.25 -0.4 6.5 -2.8 4.95 -4.3 L12.0 -7.15 M4.85 -4.4 L2.95 -5.7 Q3.85 -6.7 4.0 -8.1 4.85 -6.6 4.85 -4.4" fill="#936d17" fill-rule="evenodd" stroke="none"/>
    <path d="M5.85 -8.8 L6.0 -8.15 Q9.25 -9.65 9.6 -10.3 8.2 -7.55 5.7 -7.35 L5.85 -8.8 M8.95 -6.6 L12.0 -7.15 4.95 -4.3 4.85 -4.4 Q4.85 -6.6 4.0 -8.1 5.25 -7.1 5.9 -5.15 7.45 -6.1 8.95 -6.6 M9.85 -5.25 Q10.9 -4.45 11.4 -3.5 10.15 -2.65 9.8 -2.0 L8.35 -2.45 Q8.85 -4.05 9.85 -5.25 M12.6 0.1 L9.55 0.2 7.5 0.7 7.25 -0.4 Q9.75 -1.1 12.6 0.1 M6.1 1.55 L5.6 2.35 5.15 1.45 5.1 4.3 4.7 6.45 Q4.7 2.05 2.75 -1.3 L4.6 -0.05 6.1 1.55 M-0.3 -2.35 Q-2.15 -1.75 -3.8 -0.55 L-4.3 -0.1 Q-5.95 1.25 -7.35 3.4 -6.8 -0.15 -3.75 -2.2 L-3.15 -2.55 -3.1 -2.55 Q-2.6 -2.8 -1.55 -2.55 L-0.3 -2.35 M-2.75 -6.85 Q-4.25 -8.6 -7.95 -7.8 L-0.25 -8.0 0.3 -6.5 -1.35 -6.65 -2.2 -6.45 -2.4 -6.4 -2.75 -6.85 M1.3 -9.05 L2.4 -8.55 Q3.6 -10.7 3.45 -12.55 4.35 -9.5 3.15 -7.95 L1.3 -9.05" fill="#b1841d" fill-rule="evenodd" stroke="none"/>
    <path d="M-3.1 -2.55 L-3.15 -2.55" fill="none" stroke="#584338" stroke-linecap="round" stroke-linejoin="round" stroke-width="0.05"/>
    <path d="M2.75 -1.3 Q1.5 -1.9 -0.1 -2.3 L-0.3 -2.35 -1.55 -2.55 Q-2.6 -2.8 -3.1 -2.55 M-3.75 -2.2 Q-4.1 -4.55 -3.25 -4.95 L-3.2 -5.3 M4.95 -4.3 L4.85 -4.4 2.95 -5.7 0.3 -6.5 -1.35 -6.65 -2.2 -6.45 M2.75 -1.3 L4.6 -0.05 6.1 1.55 M7.25 -0.4 Q6.5 -2.8 4.95 -4.3 M7.5 0.7 L7.25 -0.4 M6.75 1.05 Q5.25 -1.25 3.05 -2.5 M-3.15 -2.55 L-3.75 -2.2 M-3.25 -4.95 L-2.05 -4.95 Q-0.7 -4.9 0.6 -4.2" fill="none" stroke="#548584" stroke-linecap="round" stroke-linejoin="round" stroke-width="0.05"/>
    <path d="M5.85 -8.8 L6.0 -8.15 Q9.25 -9.65 9.6 -10.3 10.05 -8.75 8.95 -6.6 L12.0 -7.15 Q10.7 -6.35 9.85 -5.25 10.9 -4.45 11.4 -3.5 10.15 -2.65 9.8 -2.0 11.4 -1.35 12.6 0.1 L9.55 0.2 Q9.65 1.95 9.0 3.55 8.5 4.85 8.75 5.45 7.85 5.1 7.3 4.2 L8.4 0.95 Q8.25 0.55 7.5 0.7 M6.1 1.55 L5.6 2.35 Q5.95 4.55 5.95 7.25 L5.1 4.3 4.7 6.45 Q4.7 2.05 2.75 -1.3 M-0.3 -2.35 Q-2.15 -1.75 -3.8 -0.55 L-3.5 1.6 Q-5.1 2.45 -6.1 4.7 -5.75 2.45 -4.3 -0.1 -5.95 1.25 -7.35 3.4 -6.8 -0.15 -3.75 -2.2 M-3.2 -5.3 Q-4.25 -5.7 -5.5 -5.3 -4.1 -7.1 -2.75 -6.85 -4.25 -8.6 -7.95 -7.8 -3.05 -10.85 1.3 -9.05 L2.4 -8.55 Q3.6 -10.7 3.45 -12.55 5.2 -11.15 5.85 -8.8 M-2.2 -6.45 L-2.4 -6.4 -2.6 -6.3 -3.0 -5.85 -3.2 -5.3" fill="none" stroke="#885415" stroke-linecap="round" stroke-linejoin="round" stroke-width="0.05"/>
  </g>
</svg>
