<?xml version="1.0" encoding="UTF-8" standalone="no"?>
<svg xmlns:xlink="http://www.w3.org/1999/xlink" height="9.85px" width="4.65px" xmlns="http://www.w3.org/2000/svg">
  <g transform="matrix(1.0, 0.0, 0.0, 1.0, 2.6, -2.3)">
    <path d="M1.6 7.5 Q-0.65 6.0 -2.45 7.35 L-2.6 2.35 -0.25 2.45 Q0.8 2.65 1.85 3.15 L1.6 7.5" fill="#303827" fill-rule="evenodd" stroke="none"/>
    <path d="M1.35 11.4 L0.25 11.95 Q-0.75 12.5 -2.35 11.55 -2.8 10.4 -2.45 7.35 -0.65 6.0 1.6 7.5 2.65 10.55 1.35 11.4" fill="#414f35" fill-rule="evenodd" stroke="none"/>
    <path d="M1.35 11.4 Q2.65 10.55 1.6 7.5 L1.85 3.15 Q0.8 2.65 -0.25 2.45 L-2.6 2.35 -2.45 7.35 Q-2.8 10.4 -2.35 11.55" fill="none" stroke="#425337" stroke-linecap="round" stroke-linejoin="round" stroke-width="0.05"/>
  </g>
</svg>
