<?xml version="1.0" encoding="UTF-8" standalone="no"?>
<svg xmlns:xlink="http://www.w3.org/1999/xlink" height="15.45px" width="6.3px" xmlns="http://www.w3.org/2000/svg">
  <g transform="matrix(1.0, 0.0, 0.0, 1.0, 1.85, 0.75)">
    <path d="M2.8 8.95 L4.45 13.9 Q-0.3 15.75 -1.85 13.3 L-0.95 6.6 -1.15 5.3 Q-1.65 3.55 -1.6 2.25 -1.6 0.9 -1.05 0.05 -0.3 -1.25 1.7 -0.4 L2.1 0.15 3.0 1.8 3.1 3.1 2.75 8.75 2.85 8.95 2.8 8.95" fill="#ffffff" fill-rule="evenodd" stroke="none"/>
    <path d="M2.85 8.95 L2.75 8.75 3.1 3.1 3.0 1.8 2.1 0.15 1.7 -0.4 Q-0.3 -1.25 -1.05 0.05 -1.6 0.9 -1.6 2.25 -1.65 3.55 -1.15 5.3 L-0.95 6.6 -1.85 13.3 Q-0.3 15.75 4.45 13.9 L2.8 8.95" fill="none" stroke="#999999" stroke-linecap="round" stroke-linejoin="round" stroke-width="0.05"/>
  </g>
</svg>
