<?xml version="1.0" encoding="UTF-8" standalone="no"?>
<svg xmlns:xlink="http://www.w3.org/1999/xlink" height="9.85px" width="4.45px" xmlns="http://www.w3.org/2000/svg">
  <g transform="matrix(1.0, 0.0, 0.0, 1.0, 2.6, -2.3)">
    <path d="M1.4 10.65 L1.35 11.4 0.25 11.95 Q-0.75 12.5 -2.35 11.55 L-2.35 10.2 -2.3 10.2 Q-0.4 11.5 1.4 10.65" fill="#ffffff" fill-rule="evenodd" stroke="none"/>
    <path d="M1.5 8.7 Q-0.45 9.25 -2.4 8.1 L-2.6 2.35 -0.25 2.45 Q0.8 2.65 1.85 3.15 L1.5 8.7 M-2.35 10.2 L-2.3 10.2 -2.35 10.2" fill="#cccccc" fill-rule="evenodd" stroke="none"/>
    <path d="M-2.3 10.2 Q-1.25 8.7 1.45 9.9 L1.4 10.65 Q-0.4 11.5 -2.3 10.2" fill="#855b3f" fill-rule="evenodd" stroke="none"/>
    <path d="M1.5 8.7 L1.45 9.9 Q-1.25 8.7 -2.3 10.2 L-2.35 10.2 -2.4 8.1 Q-0.45 9.25 1.5 8.7" fill="#62402f" fill-rule="evenodd" stroke="none"/>
    <path d="M1.45 9.9 L1.5 8.7 1.85 3.15 Q0.8 2.65 -0.25 2.45 L-2.6 2.35 -2.4 8.1 -2.35 10.2 -2.35 11.55 M1.45 9.9 L1.4 10.65 1.35 11.4" fill="none" stroke="#999999" stroke-linecap="round" stroke-linejoin="round" stroke-width="0.05"/>
    <path d="M-2.35 10.2 L-2.3 10.2" fill="none" stroke="#42374d" stroke-linecap="round" stroke-linejoin="round" stroke-width="0.05"/>
    <path d="M1.5 8.7 Q-0.45 9.25 -2.4 8.1 M1.4 10.65 Q-0.4 11.5 -2.3 10.2" fill="none" stroke="#4e3325" stroke-linecap="round" stroke-linejoin="round" stroke-width="0.05"/>
  </g>
</svg>
