<?xml version="1.0" encoding="UTF-8" standalone="no"?>
<svg xmlns:xlink="http://www.w3.org/1999/xlink" height="29.55px" width="11.65px" xmlns="http://www.w3.org/2000/svg">
  <g transform="matrix(1.0, 0.0, 0.0, 1.0, 7.15, 29.2)">
    <path d="M2.2 -19.35 L1.2 -2.35 -1.2 -2.0 Q-2.55 -2.25 -3.45 -2.85 -3.45 -7.0 -3.85 -11.05 L-4.5 -16.0 Q-5.15 -18.3 -4.9 -21.9 -4.65 -25.0 -3.95 -27.75 L-2.7 -29.15 Q-0.25 -29.5 1.05 -27.15 1.95 -23.85 2.15 -19.85 L2.2 -19.35" fill="#ffdfc8" fill-rule="evenodd" stroke="none"/>
    <path d="M2.2 -19.35 L2.15 -19.85 Q1.95 -23.85 1.05 -27.15 -0.25 -29.5 -2.7 -29.15 L-3.95 -27.75 Q-4.65 -25.0 -4.9 -21.9 -5.15 -18.3 -4.5 -16.0 L-3.85 -11.05 Q-3.45 -7.0 -3.45 -2.85 -2.55 -2.25 -1.2 -2.0 L1.2 -2.35 2.2 -19.35 Z" fill="none" stroke="#d7995e" stroke-linecap="round" stroke-linejoin="round" stroke-width="0.05"/>
    <path d="M3.1 -25.4 L3.7 -23.55 Q4.2 -21.85 4.2 -20.1 4.2 -18.35 4.5 -17.35 L2.7 -16.1 Q1.65 -15.45 -0.05 -14.95 L-1.15 -14.7 -1.4 -14.75 -2.95 -15.0 -4.75 -15.75 -4.8 -15.8 Q-6.65 -16.85 -7.15 -18.4 -6.65 -19.4 -6.65 -20.55 L-6.75 -22.45 Q-6.8 -23.25 -6.45 -24.35 L-6.4 -24.35 Q-4.85 -22.45 -1.5 -22.1 L-0.9 -22.05 -0.1 -22.15 Q2.4 -22.7 3.1 -25.4" fill="#a67e71" fill-rule="evenodd" stroke="none"/>
    <path d="M-6.45 -24.4 Q-6.2 -26.2 -5.3 -27.45 -4.5 -28.5 -3.25 -29.15 1.3 -29.6 3.1 -25.4 2.4 -22.7 -0.1 -22.15 L-0.9 -22.05 -1.5 -22.1 Q-4.85 -22.45 -6.4 -24.35 L-6.45 -24.4" fill="#61463d" fill-rule="evenodd" stroke="none"/>
    <path d="M-6.45 -24.35 L-6.45 -24.4 -6.4 -24.35 -6.45 -24.35" fill="#8e8e8e" fill-rule="evenodd" stroke="none"/>
    <path d="M2.7 -16.1 L1.95 -4.65 1.85 -1.9 Q1.85 -0.25 -1.15 0.35 L-1.3 0.3 Q-2.65 -0.2 -3.3 -1.05 L-4.0 -2.1 -4.3 -2.65 -4.8 -15.75 -4.75 -15.75 -2.95 -15.0 -1.4 -14.75 -1.15 -14.7 -0.05 -14.95 Q1.65 -15.45 2.7 -16.1" fill="#855e54" fill-rule="evenodd" stroke="none"/>
    <path d="M3.1 -25.4 L3.7 -23.55 Q4.2 -21.85 4.2 -20.1 4.2 -18.35 4.5 -17.35 L2.7 -16.1 1.95 -4.65 1.85 -1.9 Q1.85 -0.25 -1.15 0.35 L-1.3 0.3 Q-2.65 -0.2 -3.3 -1.05 L-4.0 -2.1 -4.3 -2.65 -4.8 -15.75 -4.8 -15.8 Q-6.65 -16.85 -7.15 -18.4 -6.65 -19.4 -6.65 -20.55 L-6.75 -22.45 Q-6.8 -23.25 -6.45 -24.35 L-6.45 -24.4 Q-6.2 -26.2 -5.3 -27.45 -4.5 -28.5 -3.25 -29.15 1.3 -29.6 3.1 -25.4 2.4 -22.7 -0.1 -22.15 L-0.9 -22.05 -1.5 -22.1 Q-4.85 -22.45 -6.4 -24.35 L-6.45 -24.35 M-6.45 -24.4 L-6.4 -24.35 M2.7 -16.1 Q1.65 -15.45 -0.05 -14.95 L-1.15 -14.7 -1.4 -14.75 -2.95 -15.0 -4.75 -15.75 -4.8 -15.8" fill="none" stroke="#3f2c27" stroke-linecap="round" stroke-linejoin="round" stroke-width="0.05"/>
  </g>
</svg>
