<?xml version="1.0" encoding="UTF-8" standalone="no"?>
<svg xmlns:xlink="http://www.w3.org/1999/xlink" height="10.25px" width="9.4px" xmlns="http://www.w3.org/2000/svg">
  <g transform="matrix(1.0, 0.0, 0.0, 1.0, 6.5, 4.8)">
    <path d="M2.75 -0.85 Q3.4 4.1 1.0 5.45 -3.6 5.6 -6.05 1.25 -7.1 -2.3 -5.65 -3.3 L-5.4 -3.6 -3.3 -4.55 -2.2 -4.7 -1.8 -4.75 -0.95 -4.75 -0.9 -4.75 2.2 -1.85 2.75 -0.85 Q-2.9 -5.0 -6.05 1.25 -2.9 -5.0 2.75 -0.85" fill="#2f546f" fill-rule="evenodd" stroke="none"/>
    <path d="M2.75 -0.85 Q3.4 4.1 1.0 5.45 -3.6 5.6 -6.05 1.25 -7.1 -2.3 -5.65 -3.3 L-5.4 -3.6 -3.3 -4.55 -2.2 -4.7 -1.8 -4.75 -0.95 -4.75 -0.9 -4.75 2.2 -1.85 2.75 -0.85 Q-2.9 -5.0 -6.05 1.25" fill="none" stroke="#1d3643" stroke-linecap="round" stroke-linejoin="round" stroke-width="0.05"/>
  </g>
</svg>
