<?xml version="1.0" encoding="UTF-8" standalone="no"?>
<svg xmlns:xlink="http://www.w3.org/1999/xlink" height="24.25px" width="9.7px" xmlns="http://www.w3.org/2000/svg">
  <g transform="matrix(1.0, 0.0, 0.0, 1.0, 8.5, 2.3)">
    <path d="M-6.75 4.0 Q-6.6 0.15 -5.3 -1.5 L-4.0 -1.75 -4.35 3.75 -6.75 4.0" fill="#7dacab" fill-rule="evenodd" stroke="none"/>
    <path d="M-4.4 21.75 Q-6.0 21.35 -7.05 20.2 -7.65 18.95 -8.15 15.85 L-7.25 10.25 Q-6.95 8.45 -6.75 4.0 L-4.35 3.75 -5.25 16.9 Q-5.3 20.2 -4.4 21.75" fill="#689b98" fill-rule="evenodd" stroke="none"/>
    <path d="M-4.0 -1.75 Q-1.9 -2.1 -0.3 -1.25 L0.1 0.55 Q0.45 2.2 0.8 8.9 L1.2 16.85 Q0.85 19.7 0.1 21.5 L-4.4 21.75 Q-5.3 20.2 -5.25 16.9 L-4.35 3.75 -4.0 -1.75" fill="#dcdeeb" fill-rule="evenodd" stroke="none"/>
    <path d="M-6.75 4.0 Q-6.6 0.15 -5.3 -1.5 L-4.0 -1.75 Q-1.9 -2.1 -0.3 -1.25 L0.1 0.55 Q0.45 2.2 0.8 8.9 L1.2 16.85 Q0.85 19.7 0.1 21.5 L-4.4 21.75 Q-6.0 21.35 -7.05 20.2 -7.65 18.95 -8.15 15.85 L-7.25 10.25 Q-6.95 8.45 -6.75 4.0 M-4.35 3.75 L-4.0 -1.75 M-4.35 3.75 L-5.25 16.9 Q-5.3 20.2 -4.4 21.75" fill="none" stroke="#588780" stroke-linecap="round" stroke-linejoin="round" stroke-width="0.05"/>
    <path d="M-7.1 -2.2 Q-6.7 -2.6 -4.8 -1.7 L-5.65 14.7 Q-7.0 14.9 -7.6 14.4 L-8.4 13.6 Q-8.3 5.15 -7.1 -2.2" fill="#536854" fill-rule="evenodd" stroke="none"/>
    <path d="M-4.8 -1.7 L-3.9 -1.45 -4.45 15.45 -5.9 15.65 Q-7.25 15.75 -7.8 15.3 L-8.45 14.75 Q-8.6 13.8 -8.4 13.6 L-7.6 14.4 Q-7.0 14.9 -5.65 14.7 L-4.8 -1.7" fill="#ffffff" fill-rule="evenodd" stroke="none"/>
    <path d="M-8.4 13.6 Q-8.3 5.15 -7.1 -2.2" fill="none" stroke="#455645" stroke-linecap="round" stroke-linejoin="round" stroke-width="0.05"/>
    <path d="M-4.8 -1.7 L-3.9 -1.45 -4.45 15.45 -5.9 15.65 Q-7.25 15.75 -7.8 15.3 L-8.45 14.75 Q-8.6 13.8 -8.4 13.6 Z" fill="none" stroke="#666666" stroke-linecap="round" stroke-linejoin="round" stroke-width="0.05"/>
  </g>
</svg>
