<?xml version="1.0" encoding="UTF-8" standalone="no"?>
<svg xmlns:xlink="http://www.w3.org/1999/xlink" height="17.3px" width="15.7px" xmlns="http://www.w3.org/2000/svg">
  <g transform="matrix(1.0, 0.0, 0.0, 1.0, 4.8, 8.6)">
    <path d="M3.35 1.3 Q2.1 0.5 0.15 0.85 1.9 -0.35 3.35 1.3 M-1.45 0.55 Q-2.55 -0.55 -3.5 -0.45 -2.15 -1.15 -1.45 0.55" fill="#503e53" fill-rule="evenodd" stroke="none"/>
    <path d="M1.65 -3.0 Q1.55 -3.9 1.2 -4.15 L-0.15 -3.0 Q-0.35 -4.9 -0.8 -4.3 L-1.0 -3.3 Q-1.25 -1.65 -0.75 0.5 -1.8 -0.7 -1.95 -2.8 -3.5 -1.2 -3.1 3.0 L-3.45 2.45 Q-4.0 1.3 -4.0 -0.4 -4.05 3.0 -3.4 6.75 -4.85 3.55 -4.8 -1.05 -4.8 -5.65 -2.8 -7.65 L-1.8 -7.45 -0.5 -8.15 3.4 -8.55 4.75 -8.35 6.5 -8.4 Q7.35 -8.45 8.15 -7.45 9.15 -6.3 10.1 -3.5 L10.8 -1.05 10.9 -0.45 Q10.05 1.2 7.25 1.1 L7.25 1.4 7.2 2.55 Q6.5 6.1 2.9 8.65 6.45 3.7 4.3 -1.85 L4.45 1.45 3.85 2.85 3.15 3.75 Q4.1 1.8 2.55 -3.0 L2.55 -1.25 1.2 1.2 Q1.8 -1.65 1.65 -3.0 M4.75 -7.25 L5.3 -6.75 Q6.6 -5.3 7.05 -2.75 7.35 -1.05 7.25 1.1 7.35 -1.05 7.05 -2.75 6.6 -5.3 5.3 -6.75 L4.75 -7.25 M-0.5 -6.85 Q-1.2 -7.25 -1.8 -7.45 -1.2 -7.25 -0.5 -6.85 M-1.95 -3.95 L-1.95 -2.8 -1.95 -3.95 M-3.75 -3.6 L-4.0 -1.25 -4.0 -0.4 -4.0 -1.25 -3.75 -3.6" fill="#c59e73" fill-rule="evenodd" stroke="none"/>
    <path d="M2.85 8.65 L2.9 8.65 2.85 8.65" fill="#7a634d" fill-rule="evenodd" stroke="none"/>
    <path d="M3.85 2.85 L4.45 1.45 4.3 -1.85 Q6.45 3.7 2.9 8.65 L2.85 8.65 Q3.7 6.05 3.85 2.85 M7.25 1.4 L7.25 1.1 Q10.05 1.2 10.9 -0.45 10.9 1.55 8.05 4.4 9.15 1.2 7.25 1.4 M-3.45 2.45 L-3.4 6.75 Q-4.05 3.0 -4.0 -0.4 -4.0 1.3 -3.45 2.45" fill="#aa7948" fill-rule="evenodd" stroke="none"/>
    <path d="M1.2 -4.15 Q1.55 -3.9 1.65 -3.0 L-0.15 -3.0 1.2 -4.15 M-1.0 -3.3 L-0.8 -4.3 Q-0.35 -4.9 -0.15 -3.0 L-1.0 -3.3" fill="#976b42" fill-rule="evenodd" stroke="none"/>
    <path d="M-0.15 -3.0 L1.65 -3.0 M2.9 8.65 L2.85 8.7 2.85 8.65 M-0.15 -3.0 L-1.0 -3.3" fill="none" stroke="#009900" stroke-linecap="round" stroke-linejoin="round" stroke-width="0.05"/>
    <path d="M1.2 -4.15 L-0.15 -3.0 Q-0.35 -4.9 -0.8 -4.3 M3.15 3.75 L3.85 2.85 4.45 1.45 4.3 -1.85 M2.9 8.65 Q6.5 6.1 7.2 2.55 L7.25 1.4 7.25 1.1 Q7.35 -1.05 7.05 -2.75 6.6 -5.3 5.3 -6.75 L4.75 -7.25 M10.9 -0.45 L10.8 -1.05 10.1 -3.5 Q9.15 -6.3 8.15 -7.45 7.35 -8.45 6.5 -8.4 L4.75 -8.35 3.4 -8.55 -0.5 -8.15 -1.8 -7.45 Q-1.2 -7.25 -0.5 -6.85 M10.9 -0.45 Q10.9 1.55 8.05 4.4 9.15 1.2 7.25 1.4 M2.85 8.65 L2.9 8.65 M-3.4 6.75 Q-4.85 3.55 -4.8 -1.05 -4.8 -5.65 -2.8 -7.65 L-1.8 -7.45 M-3.1 3.0 L-3.45 2.45 Q-4.0 1.3 -4.0 -0.4 L-4.0 -1.25 -3.75 -3.6 M-1.95 -2.8 L-1.95 -3.95" fill="none" stroke="#7a634d" stroke-linecap="round" stroke-linejoin="round" stroke-width="0.05"/>
  </g>
</svg>
