<?xml version="1.0" encoding="UTF-8" standalone="no"?>
<svg xmlns:xlink="http://www.w3.org/1999/xlink" height="17.3px" width="13.55px" xmlns="http://www.w3.org/2000/svg">
  <g transform="matrix(1.0, 0.0, 0.0, 1.0, 8.8, 10.6)">
    <path d="M-8.15 -1.7 L-7.8 -2.65 -3.45 -1.05 Q-2.3 -0.85 -2.15 0.6 L-2.15 1.45 -3.85 1.8 -7.05 0.6 -8.15 -0.85 -8.15 -1.7" fill="#ffffff" fill-rule="evenodd" stroke="none"/>
    <path d="M-7.05 -1.4 L-7.05 -1.15 -7.15 -0.7 -7.4 -0.5 -7.65 -0.7 -7.75 -1.15 -7.65 -1.6 -7.55 -1.65 -7.6 -1.55 -7.5 -1.3 -7.3 -1.2 -7.1 -1.3 -7.1 -1.35 -7.05 -1.4 M-3.9 -0.4 L-3.95 -0.25 -3.85 0.05 -3.6 0.15 -3.35 0.05 -3.25 -0.05 -3.25 0.2 -3.35 0.7 -3.7 0.9 -4.0 0.7 -4.15 0.2 -4.0 -0.3 -3.9 -0.4" fill="#000000" fill-rule="evenodd" stroke="none"/>
    <path d="M-7.55 -1.65 L-7.5 -1.8 -7.3 -1.9 -7.1 -1.8 -7.05 -1.55 -7.05 -1.4 -7.1 -1.35 -7.1 -1.3 -7.3 -1.2 -7.5 -1.3 -7.6 -1.55 -7.55 -1.65 M-3.25 -0.05 L-3.35 0.05 -3.6 0.15 -3.85 0.05 -3.95 -0.25 -3.9 -0.4 -3.85 -0.5 -3.6 -0.6 -3.35 -0.5 -3.2 -0.25 -3.25 -0.05" fill="#ffffff" fill-rule="evenodd" stroke="none"/>
    <path d="M-7.55 -1.65 L-7.65 -1.6 -7.75 -1.15 -7.65 -0.7 -7.4 -0.5 -7.15 -0.7 -7.05 -1.15 -7.05 -1.4 -7.05 -1.55 -7.1 -1.8 -7.3 -1.9 -7.5 -1.8 -7.55 -1.65 M-7.75 -1.85 L-7.4 -2.15 -7.0 -1.85 -6.85 -1.15 Q-6.85 -0.7 -7.0 -0.4 L-7.4 -0.1 -7.75 -0.4 -7.9 -1.15 -7.75 -1.85 M-3.9 -0.4 L-4.0 -0.3 -4.15 0.2 -4.0 0.7 -3.7 0.9 -3.35 0.7 -3.25 0.2 -3.25 -0.05 -3.2 -0.25 -3.35 -0.5 -3.6 -0.6 -3.85 -0.5 -3.9 -0.4 M-3.2 -0.6 L-3.0 0.2 -3.2 1.05 -3.7 1.35 -4.15 1.05 -4.35 0.2 -4.15 -0.6 -3.7 -0.95 Q-3.4 -0.95 -3.2 -0.6" fill="#0000ff" fill-rule="evenodd" stroke="none"/>
    <path d="M3.35 0.15 L3.45 0.15 3.45 0.45 3.35 0.15" fill="#ffdfc8" fill-rule="evenodd" stroke="none"/>
    <path d="M3.45 0.85 L3.35 1.0 3.4 0.8 3.45 0.85" fill="#ffd0ae" fill-rule="evenodd" stroke="none"/>
    <path d="M-5.35 6.7 L-5.4 6.7 Q-6.55 6.7 -7.0 5.65 L-7.15 4.05 Q-7.35 3.0 -7.7 2.15 -8.85 1.1 -8.6 -0.4 L-8.35 -2.6 Q-9.3 -3.3 -8.15 -5.8 -7.6 -7.3 -6.45 -8.5 -4.5 -10.6 -1.7 -10.6 1.05 -10.6 2.95 -8.5 L3.5 -7.8 Q5.3 -2.75 -0.9 0.05 L-0.05 1.65 Q0.3 2.85 -0.85 4.05 -2.15 5.4 -5.35 6.7 M1.45 -0.3 L1.55 -0.55 2.45 -1.2 Q3.05 -1.35 3.3 -0.75 L3.45 0.15 3.35 0.15 3.1 -0.3 2.7 -0.45 2.3 -0.15 2.1 0.4 Q1.45 0.5 1.35 0.1 L1.35 -0.1 1.4 -0.15 1.4 -0.25 1.45 -0.3 M-7.1 0.15 L-7.05 -1.0 -7.05 -2.2 Q-7.9 -3.05 -8.15 -1.1 -7.8 -0.25 -7.1 0.15 L-7.1 0.25 -7.15 1.1 -6.85 1.8 -7.15 1.1 -7.1 0.25 -7.1 0.15 M-5.7 1.4 Q-5.9 1.8 -6.85 1.8 L-5.6 1.95 Q-5.45 1.45 -5.7 1.4 M-2.2 1.2 Q-2.5 -1.1 -4.2 -1.1 -4.65 -0.3 -4.7 1.05 L-2.2 1.2 M-4.25 3.45 Q-5.95 3.15 -6.9 2.45 -5.95 3.15 -4.25 3.45" fill="#dbb78a" fill-rule="evenodd" stroke="none"/>
    <path d="M-5.35 6.7 Q-2.15 5.4 -0.85 4.05 0.3 2.85 -0.05 1.65 L-0.9 0.05 Q5.3 -2.75 3.5 -7.8 4.35 -6.6 4.65 -5.05 L4.65 -4.8 4.75 -3.35 Q4.65 -1.05 3.45 0.85 L3.4 0.8 3.4 0.65 3.45 0.5 3.45 0.45 3.45 0.5 3.4 0.65 3.4 0.8 3.35 1.0 3.0 2.05 2.15 2.65 0.55 4.05 -0.85 5.1 -4.15 6.45 -5.35 6.7 M3.45 0.15 L3.3 -0.75 Q3.05 -1.35 2.45 -1.2 L1.55 -0.55 1.45 -0.3 1.4 -0.25 1.4 -0.15 1.35 -0.1 1.35 0.1 Q1.45 0.5 2.1 0.4 L2.3 -0.15 2.7 -0.45 3.1 -0.3 3.35 0.15 3.45 0.45 3.45 0.15 M1.95 1.8 L1.95 1.05 2.1 0.4 1.95 1.05 2.5 1.55 1.95 1.05 1.95 1.8 M-6.85 1.8 Q-5.9 1.8 -5.7 1.4 -5.45 1.45 -5.6 1.95 L-6.85 1.8" fill="#cd9f74" fill-rule="evenodd" stroke="none"/>
    <path d="M3.5 -7.8 L2.95 -8.5 Q1.05 -10.6 -1.7 -10.6 -4.5 -10.6 -6.45 -8.5 -7.6 -7.3 -8.15 -5.8 -9.3 -3.3 -8.35 -2.6 L-8.6 -0.4 Q-8.85 1.1 -7.7 2.15 -7.35 3.0 -7.15 4.05 L-7.0 5.65 Q-6.55 6.7 -5.4 6.7 L-5.35 6.7 -4.15 6.45 -0.85 5.1 0.55 4.05 2.15 2.65 3.0 2.05 3.35 1.0 3.45 0.85 Q4.65 -1.05 4.75 -3.35 L4.65 -4.8 4.65 -5.05 Q4.35 -6.6 3.5 -7.8 M3.45 0.15 L3.3 -0.75 Q3.05 -1.35 2.45 -1.2 L1.55 -0.55 1.45 -0.3 M2.1 0.4 L2.3 -0.15 2.7 -0.45 3.1 -0.3 3.35 0.15 3.45 0.45 3.45 0.5 3.4 0.65 3.4 0.8 3.35 1.0 M3.45 0.15 L3.45 0.45 M2.1 0.4 L1.95 1.05 2.5 1.55 M1.95 1.05 L1.95 1.8 M-7.1 0.15 Q-7.8 -0.25 -8.15 -1.1 -7.9 -3.05 -7.05 -2.2 L-7.05 -1.0 -7.1 0.15 -7.1 0.25 -7.15 1.1 -6.85 1.8 -5.6 1.95 Q-5.45 1.45 -5.7 1.4 M-2.2 1.2 Q-2.5 -1.1 -4.2 -1.1 -4.65 -0.3 -4.7 1.05 L-2.2 1.2 M-6.9 2.45 Q-5.95 3.15 -4.25 3.45" fill="none" stroke="#9e6b3a" stroke-linecap="round" stroke-linejoin="round" stroke-width="0.05"/>
  </g>
</svg>
