<?xml version="1.0" encoding="UTF-8" standalone="no"?>
<svg xmlns:xlink="http://www.w3.org/1999/xlink" height="18.75px" width="21.7px" xmlns="http://www.w3.org/2000/svg">
  <g transform="matrix(1.0, 0.0, 0.0, 1.0, 7.45, 12.35)">
    <path d="M0.8 1.05 Q4.75 -0.5 3.8 2.05 3.65 0.3 0.8 1.05 M-3.5 -0.5 Q-3.25 -2.1 -2.05 0.05 -3.2 -1.25 -3.5 -0.5" fill="#6b3214" fill-rule="evenodd" stroke="none"/>
    <path d="M0.8 1.05 Q3.65 0.3 3.8 2.05 4.75 -0.5 0.8 1.05 M-3.5 -0.5 Q-3.25 -2.1 -2.05 0.05 -3.2 -1.25 -3.5 -0.5" fill="none" stroke="#3f1010" stroke-linecap="round" stroke-linejoin="round" stroke-width="0.05"/>
    <path d="M-3.85 -3.4 Q-3.85 -4.65 -3.25 -4.95 -3.15 -5.95 -2.6 -6.3 L-2.2 -6.45 -1.35 -6.65 Q1.45 -6.55 3.45 -5.4 4.4 -3.4 4.8 -1.25 L5.05 0.35 4.6 -0.05 Q2.85 -1.6 -0.1 -2.3 L-1.55 -2.55 Q-3.35 -2.95 -3.7 -1.95 L-3.85 -3.4 M3.05 -2.5 L4.8 -1.25 3.05 -2.5 M0.6 -4.2 Q-0.7 -4.9 -2.05 -4.95 L-3.25 -4.95 -2.05 -4.95 Q-0.7 -4.9 0.6 -4.2" fill="#96bebe" fill-rule="evenodd" stroke="none"/>
    <path d="M5.15 -10.95 L5.75 -8.45 8.85 -7.85 Q9.35 -7.25 9.0 -5.35 L13.25 -5.35 11.55 -3.45 Q10.45 -4.25 9.2 -4.3 12.6 -0.3 14.25 3.3 L11.25 1.35 Q12.0 4.05 11.25 6.4 L9.65 1.8 Q9.7 -0.9 9.4 -2.4 L8.8 5.15 7.75 1.5 Q8.9 -0.95 7.55 -4.05 7.15 2.65 5.0 4.05 L5.05 0.35 4.8 -1.25 Q4.4 -3.4 3.45 -5.4 1.45 -6.55 -1.35 -6.65 L-2.2 -6.45 -2.6 -6.3 Q-3.15 -5.95 -3.25 -4.95 -3.85 -4.65 -3.85 -3.4 L-7.45 -1.5 Q-6.1 -5.2 -2.95 -7.25 L-5.3 -8.1 2.2 -8.4 Q1.7 -9.1 0.6 -9.4 L-0.8 -12.35 Q1.9 -10.75 4.5 -7.5 4.45 -8.6 3.7 -9.65 L5.15 -10.95" fill="#6b3214" fill-rule="evenodd" stroke="none"/>
    <path d="M13.25 -5.35 L9.0 -5.35 Q9.35 -7.25 8.85 -7.85 L5.75 -8.45 5.15 -10.95 6.1 -11.85 6.8 -9.0 Q8.85 -9.6 10.9 -9.0 L10.05 -7.05 Q12.1 -6.85 13.65 -5.8 L13.25 -5.35 M3.7 -9.65 Q4.45 -8.6 4.5 -7.5 1.9 -10.75 -0.8 -12.35 1.85 -11.75 3.7 -9.65 M0.6 -9.4 Q1.7 -9.1 2.2 -8.4 L-5.3 -8.1 Q-2.85 -9.65 0.6 -9.4 M5.0 4.05 Q7.15 2.65 7.55 -4.05 8.9 -0.95 7.75 1.5 6.75 3.55 5.0 4.05 M8.8 5.15 L9.4 -2.4 Q9.7 -0.9 9.65 1.8 9.6 3.85 8.8 5.15 M14.25 3.3 Q12.6 -0.3 9.2 -4.3 10.45 -4.25 11.55 -3.45 13.1 -1.6 14.25 3.3" fill="#774913" fill-rule="evenodd" stroke="none"/>
    <path d="M-3.85 -3.4 Q-3.85 -4.65 -3.25 -4.95 -3.15 -5.95 -2.6 -6.3 L-2.2 -6.45 -1.35 -6.65 Q1.45 -6.55 3.45 -5.4 M4.8 -1.25 L3.05 -2.5 M5.05 0.35 L4.6 -0.05 Q2.85 -1.6 -0.1 -2.3 L-1.55 -2.55 Q-3.35 -2.95 -3.7 -1.95 L-3.85 -3.4 M-3.25 -4.95 L-2.05 -4.95 Q-0.7 -4.9 0.6 -4.2" fill="none" stroke="#548584" stroke-linecap="round" stroke-linejoin="round" stroke-width="0.05"/>
    <path d="M13.25 -5.35 L13.65 -5.8 Q12.1 -6.85 10.05 -7.05 L10.9 -9.0 Q8.85 -9.6 6.8 -9.0 L6.1 -11.85 5.15 -10.95 3.7 -9.65 Q1.85 -11.75 -0.8 -12.35 L0.6 -9.4 Q-2.85 -9.65 -5.3 -8.1 L-2.95 -7.25 Q-6.1 -5.2 -7.45 -1.5 L-3.85 -3.4 M3.45 -5.4 Q4.4 -3.4 4.8 -1.25 L5.05 0.35 5.0 4.05 Q6.75 3.55 7.75 1.5 L8.8 5.15 Q9.6 3.85 9.65 1.8 L11.25 6.4 Q12.0 4.05 11.25 1.35 L14.25 3.3 Q13.1 -1.6 11.55 -3.45 L13.25 -5.35" fill="none" stroke="#3f1010" stroke-linecap="round" stroke-linejoin="round" stroke-width="0.05"/>
  </g>
</svg>
