<?xml version="1.0" encoding="UTF-8" standalone="no"?>
<svg xmlns:xlink="http://www.w3.org/1999/xlink" height="25.05px" width="18.3px" xmlns="http://www.w3.org/2000/svg">
  <g transform="matrix(1.0, 0.0, 0.0, 1.0, 9.85, 16.6)">
    <path d="M-8.6 -0.8 Q-8.65 -2.15 -7.8 -2.0 -6.95 -1.85 -6.15 -0.15 L-6.15 -0.1 Q-6.5 0.7 -7.0 0.75 L-7.15 0.75 Q-7.75 0.7 -8.55 -0.55 L-8.6 -0.8 M-4.7 0.2 Q-3.4 -1.05 -2.1 -0.85 -1.05 -0.3 -0.7 0.75 -0.8 1.25 -1.2 1.55 L-2.35 1.85 -2.45 1.85 -2.65 1.85 Q-3.85 1.7 -4.7 0.2 M-7.65 -1.05 L-7.7 -0.55 -7.6 0.0 -7.55 0.2 -7.45 0.0 -7.4 -0.5 -7.5 -1.05 -7.6 -1.25 -7.65 -1.05 M-2.55 1.5 L-2.45 1.25 -2.4 0.7 -2.5 0.1 -2.6 -0.15 -2.65 0.1 -2.7 0.7 -2.6 1.25 -2.55 1.5" fill="#ff0000" fill-rule="evenodd" stroke="none"/>
    <path d="M-7.6 0.0 L-7.7 -0.55 -7.65 -1.05 -7.6 -1.25 -7.5 -1.05 -7.4 -0.5 -7.45 0.0 -7.55 0.2 -7.6 0.0 M-2.6 -0.15 L-2.5 0.1 -2.4 0.7 -2.45 1.25 -2.55 1.5 -2.6 1.25 -2.7 0.7 -2.65 0.1 -2.6 -0.15" fill="#5f0000" fill-rule="evenodd" stroke="none"/>
    <path d="M-8.8 -1.7 L-8.95 -2.65 Q-8.95 -5.9 -7.15 -8.2 L-6.05 -9.35 Q-5.05 -10.05 -3.75 -10.25 L-3.0 -10.2 -1.65 -10.1 Q1.9 -9.55 4.15 -6.9 4.85 -6.0 5.5 -3.75 6.15 -1.5 4.45 -0.3 3.05 0.9 -0.3 0.85 -0.55 -0.6 -1.9 -0.85 L-2.1 -0.85 Q-3.4 -1.05 -4.7 0.2 -5.5 0.5 -6.15 -0.15 -6.95 -1.85 -7.8 -2.0 -8.65 -2.15 -8.6 -0.8 L-8.8 -1.7" fill="#6da396" fill-rule="evenodd" stroke="none"/>
    <path d="M4.45 -0.3 Q3.15 1.2 1.9 1.9 -0.4 2.75 -2.35 1.9 L-2.35 1.85 -1.2 1.55 Q-0.8 1.25 -0.7 0.75 -1.05 -0.3 -2.1 -0.85 L-1.9 -0.85 Q-0.55 -0.6 -0.3 0.85 3.05 0.9 4.45 -0.3 M-8.6 0.2 L-8.8 -1.3 -8.8 -1.7 -8.6 -0.8 -8.55 -0.55 Q-7.75 0.7 -7.15 0.75 -7.8 1.15 -8.6 0.2" fill="#548173" fill-rule="evenodd" stroke="none"/>
    <path d="M1.9 1.9 Q0.75 3.6 -0.25 6.2 -2.0 6.9 -3.45 8.45 -6.0 8.35 -6.7 7.15 L-6.9 5.7 -7.8 2.6 -8.6 0.2 Q-7.8 1.15 -7.15 0.75 L-7.0 0.75 Q-7.25 1.4 -6.8 2.35 L-6.85 2.35 -6.8 2.4 Q-7.0 3.4 -6.6 4.3 L-6.4 7.0 -4.0 7.65 -3.45 5.4 -3.4 5.2 -3.6 2.7 -2.65 1.85 -2.45 1.85 -2.35 1.9 Q-0.4 2.75 1.9 1.9" fill="#8cb5a8" fill-rule="evenodd" stroke="none"/>
    <path d="M-6.15 -0.15 Q-5.5 0.5 -4.7 0.2 -3.85 1.7 -2.65 1.85 L-3.6 2.7 -4.3 3.1 Q-5.75 2.95 -6.8 2.4 L-6.8 2.35 Q-7.25 1.4 -7.0 0.75 -6.5 0.7 -6.15 -0.1 L-6.15 -0.15" fill="#b5cec6" fill-rule="evenodd" stroke="none"/>
    <path d="M-3.6 2.7 L-3.4 5.2 -3.45 5.4 -4.0 7.65 -6.4 7.0 -6.6 4.3 Q-7.0 3.4 -6.8 2.4 -5.75 2.95 -4.3 3.1 L-3.6 2.7 M-3.45 5.4 L-4.15 4.4 -4.85 5.45 -5.55 4.35 -6.0 5.2 -6.6 4.3 -6.0 5.2 -5.55 4.35 -4.85 5.45 -4.15 4.4 -3.45 5.4" fill="#eff5f3" fill-rule="evenodd" stroke="none"/>
    <path d="M-8.8 -1.7 L-8.95 -2.65 Q-8.95 -5.9 -7.15 -8.2 L-6.05 -9.35 Q-5.05 -10.05 -3.75 -10.25 L-3.0 -10.2 -1.65 -10.1 Q1.9 -9.55 4.15 -6.9 4.85 -6.0 5.5 -3.75 6.15 -1.5 4.45 -0.3 3.15 1.2 1.9 1.9 0.75 3.6 -0.25 6.2 -2.0 6.9 -3.45 8.45 -6.0 8.35 -6.7 7.15 L-6.9 5.7 -7.8 2.6 -8.6 0.2 -8.8 -1.3 -8.8 -1.7 -8.6 -0.8 Q-8.65 -2.15 -7.8 -2.0 -6.95 -1.85 -6.15 -0.15 L-6.15 -0.1 Q-6.5 0.7 -7.0 0.75 M-4.7 0.2 Q-3.4 -1.05 -2.1 -0.85 L-1.9 -0.85 Q-0.55 -0.6 -0.3 0.85 3.05 0.9 4.45 -0.3 M-8.55 -0.55 L-8.6 -0.8 -8.55 -0.55 M-7.65 -1.05 L-7.6 -1.25 M-7.55 0.2 L-7.6 0.0 M-2.35 1.85 L-2.45 1.85 M-3.6 2.7 L-3.4 5.2 -3.45 5.4 -4.0 7.65 -6.4 7.0 M-2.55 1.5 L-2.6 1.25 M-2.65 0.1 L-2.6 -0.15 M-2.65 1.85 Q-3.85 1.7 -4.7 0.2 M-6.6 4.3 L-6.0 5.2 -5.55 4.35 -4.85 5.45 -4.15 4.4 -3.45 5.4 M-3.6 2.7 L-4.3 3.1 Q-5.75 2.95 -6.8 2.4 L-6.8 2.35" fill="none" stroke="#39574e" stroke-linecap="round" stroke-linejoin="round" stroke-width="0.05"/>
    <path d="M-6.4 -10.45 Q-6.2 -13.6 -5.0 -15.95 L-4.65 -16.6 Q-5.1 -13.05 -4.95 -11.2 -4.85 -9.6 -4.3 -9.2 L-4.45 -8.95 Q-5.45 -7.0 -5.75 -4.45 -6.45 -6.6 -6.45 -9.35 L-6.4 -10.45" fill="#385851" fill-rule="evenodd" stroke="none"/>
    <path d="M-4.95 -11.2 L-3.05 -11.6 -1.45 -11.6 -0.9 -11.55 -0.1 -11.45 Q1.6 -11.1 3.05 -10.1 L4.6 -8.35 Q5.7 -6.95 5.8 -4.95 L6.2 -1.25 Q6.45 0.45 8.45 2.7 4.5 6.0 1.65 6.05 L-0.25 -1.55 Q-5.65 -1.25 -8.95 -3.05 L-8.85 -1.45 Q-8.75 0.5 -8.3 1.15 L-8.4 4.6 -9.85 2.65 Q-9.1 0.9 -9.25 -3.15 L-9.6 -5.3 Q-9.4 -7.5 -7.6 -9.4 L-6.4 -10.45 -6.45 -9.35 Q-6.45 -6.6 -5.75 -4.45 -5.45 -7.0 -4.45 -8.95 L-4.3 -9.2 Q-4.85 -9.6 -4.95 -11.2" fill="#bf956a" fill-rule="evenodd" stroke="none"/>
    <path d="M-6.4 -10.45 Q-6.2 -13.6 -5.0 -15.95 L-4.65 -16.6 Q-5.1 -13.05 -4.95 -11.2 -4.85 -9.6 -4.3 -9.2 L-4.45 -8.95 Q-5.45 -7.0 -5.75 -4.45 -6.45 -6.6 -6.45 -9.35 L-6.4 -10.45" fill="none" stroke="#374e32" stroke-linecap="round" stroke-linejoin="round" stroke-width="0.05"/>
    <path d="M-4.95 -11.2 L-3.05 -11.6 -1.45 -11.6 -0.9 -11.55 -0.1 -11.45 Q1.6 -11.1 3.05 -10.1 L4.6 -8.35 Q5.7 -6.95 5.8 -4.95 L6.2 -1.25 Q6.45 0.45 8.45 2.7 4.5 6.0 1.65 6.05 L-0.25 -1.55 Q-5.65 -1.25 -8.95 -3.05 L-8.85 -1.45 Q-8.75 0.5 -8.3 1.15 L-8.4 4.6 -9.85 2.65 Q-9.1 0.9 -9.25 -3.15 L-9.6 -5.3 Q-9.4 -7.5 -7.6 -9.4 L-6.4 -10.45 Z" fill="none" stroke="#6d4e30" stroke-linecap="round" stroke-linejoin="round" stroke-width="0.05"/>
  </g>
</svg>
