<?xml version="1.0" encoding="UTF-8" standalone="no"?>
<svg xmlns:xlink="http://www.w3.org/1999/xlink" height="18.45px" width="17.9px" xmlns="http://www.w3.org/2000/svg">
  <g transform="matrix(1.0, 0.0, 0.0, 1.0, -7.9, 33.3)">
    <path d="M20.5 -32.75 Q22.65 -32.8 24.2 -30.5 25.75 -28.25 25.8 -25.0 25.75 -21.8 24.2 -19.5 22.75 -17.35 20.7 -17.25 L20.5 -17.25 20.05 -17.25 19.15 -17.45 Q17.75 -18.0 16.7 -19.5 15.2 -21.8 15.2 -25.0 15.2 -28.25 16.7 -30.5 L17.4 -31.35 17.95 -31.9 19.2 -32.6 19.3 -32.6 19.75 -32.7 20.5 -32.75" fill="#aa8a79" fill-rule="evenodd" stroke="none"/>
    <path d="M20.5 -17.25 L20.5 -17.15 18.5 -16.4 Q14.25 -19.15 13.7 -24.1 13.1 -29.1 17.3 -32.5 L18.45 -32.6 18.5 -32.6 19.25 -32.65 19.75 -32.7 19.3 -32.6 19.2 -32.6 18.5 -32.6 18.45 -32.6 18.5 -32.6 19.2 -32.6 17.95 -31.9 17.4 -31.35 16.7 -30.5 Q15.2 -28.25 15.2 -25.0 15.2 -21.8 16.7 -19.5 17.75 -18.0 19.15 -17.45 L20.05 -17.25 20.5 -17.25 M19.25 -32.65 L19.3 -32.6 19.25 -32.65 M16.25 -15.5 L14.45 -14.85 Q11.7 -14.9 9.8 -17.4 7.9 -19.95 7.9 -23.55 7.9 -27.15 9.8 -29.7 11.5 -32.0 13.95 -32.2 L14.3 -32.25 16.35 -32.4 Q11.8 -27.9 13.0 -23.2 14.2 -18.55 17.8 -16.1 L17.55 -16.0 17.3 -15.9 16.4 -15.55 16.25 -15.5" fill="#95715e" fill-rule="evenodd" stroke="none"/>
    <path d="M20.5 -32.75 Q22.65 -32.8 24.2 -30.5 25.75 -28.25 25.8 -25.0 25.75 -21.8 24.2 -19.5 22.75 -17.35 20.7 -17.25 L20.5 -17.25 M16.25 -15.5 L14.45 -14.85 Q11.7 -14.9 9.8 -17.4 7.9 -19.95 7.9 -23.55 7.9 -27.15 9.8 -29.7 11.5 -32.0 13.95 -32.2 L14.3 -32.25" fill="none" stroke="#553e35" stroke-linecap="round" stroke-linejoin="round" stroke-width="0.05"/>
    <path d="M19.25 -32.65 L19.75 -32.7 20.5 -32.75 M19.2 -32.6 L19.3 -32.6 19.25 -32.65 M19.2 -32.6 L18.5 -32.6 18.45 -32.6 M14.3 -32.25 L16.35 -32.4 M17.8 -16.1 L17.55 -16.0 17.3 -15.9 16.4 -15.55 16.25 -15.5" fill="none" stroke="#553e35" stroke-linecap="round" stroke-linejoin="round" stroke-width="0.05"/>
    <path d="M13.7 -32.2 Q15.4 -34.0 16.6 -32.45 L14.65 -32.3 Q10.45 -28.7 11.05 -23.45 11.6 -18.25 15.85 -15.35 L17.85 -16.15 18.05 -16.25 Q16.4 -14.85 15.15 -15.05 11.55 -17.6 10.35 -22.5 9.15 -27.45 13.7 -32.2" fill="#b19d2e" fill-rule="evenodd" stroke="none"/>
    <path d="M14.65 -32.3 L16.6 -32.45 Q15.4 -34.0 13.7 -32.2 M15.15 -15.05 Q16.4 -14.85 18.05 -16.25 L17.85 -16.15 15.85 -15.35" fill="none" stroke="#553e35" stroke-linecap="round" stroke-linejoin="round" stroke-width="0.05"/>
    <path d="M13.7 -32.2 Q9.15 -27.45 10.35 -22.5 11.55 -17.6 15.15 -15.05 M15.85 -15.35 Q11.6 -18.25 11.05 -23.45 10.45 -28.7 14.65 -32.3 Z" fill="none" stroke="#553e35" stroke-linecap="round" stroke-linejoin="round" stroke-width="0.05"/>
    <path d="M16.35 -32.4 Q18.05 -34.1 19.25 -32.65 L17.3 -32.5 Q13.1 -29.1 13.7 -24.1 14.25 -19.15 18.5 -16.4 L20.5 -17.15 20.7 -17.25 Q19.05 -15.9 17.8 -16.1 14.2 -18.55 13.0 -23.2 11.8 -27.9 16.35 -32.4" fill="#b19d2e" fill-rule="evenodd" stroke="none"/>
    <path d="M17.3 -32.5 L19.25 -32.65 Q18.05 -34.1 16.35 -32.4 M17.8 -16.1 Q19.05 -15.9 20.7 -17.25 L20.5 -17.15 18.5 -16.4" fill="none" stroke="#553e35" stroke-linecap="round" stroke-linejoin="round" stroke-width="0.05"/>
    <path d="M16.35 -32.4 Q11.8 -27.9 13.0 -23.2 14.2 -18.55 17.8 -16.1 M18.5 -16.4 Q14.25 -19.15 13.7 -24.1 13.1 -29.1 17.3 -32.5 Z" fill="none" stroke="#553e35" stroke-linecap="round" stroke-linejoin="round" stroke-width="0.05"/>
  </g>
</svg>
