<?xml version="1.0" encoding="UTF-8" standalone="no"?>
<svg xmlns:xlink="http://www.w3.org/1999/xlink" height="13.5px" width="11.8px" xmlns="http://www.w3.org/2000/svg">
  <g transform="matrix(1.0, 0.0, 0.0, 1.0, 4.6, 8.45)">
    <path d="M2.15 -8.45 Q3.15 -7.5 3.85 -6.15 L4.35 -4.85 4.8 -3.6 5.15 -2.1 5.3 -0.55 5.05 1.25 4.6 2.5 3.9 3.95 3.5 4.75 3.4 4.9 2.65 5.05 Q0.1 5.0 -2.4 2.4 -3.75 0.85 -4.15 -0.35 L-4.6 -1.75 -4.55 -2.55 -3.15 -4.9 Q-1.8 -6.85 2.15 -8.45" fill="#5a7e5f" fill-rule="evenodd" stroke="none"/>
    <path d="M2.15 -8.45 Q3.5 -7.95 4.5 -7.15 L5.6 -5.65 6.4 -3.9 6.8 -2.55 7.05 -0.95 7.2 0.75 6.85 2.25 5.95 3.35 4.55 4.35 3.6 4.85 3.4 4.9 3.5 4.75 3.9 3.95 4.6 2.5 5.05 1.25 5.3 -0.55 5.15 -2.1 4.8 -3.6 4.35 -4.85 3.85 -6.15 Q3.15 -7.5 2.15 -8.45" fill="#537557" fill-rule="evenodd" stroke="none"/>
    <path d="M3.4 4.9 L3.6 4.85 4.55 4.35 5.95 3.35 6.85 2.25 7.2 0.75 7.05 -0.95 6.8 -2.55 6.4 -3.9 5.6 -5.65 4.5 -7.15 Q3.5 -7.95 2.15 -8.45 -1.8 -6.85 -3.15 -4.9 L-4.55 -2.55 -4.6 -1.75 -4.15 -0.35 Q-3.75 0.85 -2.4 2.4 0.1 5.0 2.65 5.05 L3.4 4.9 Z" fill="none" stroke="#374e32" stroke-linecap="round" stroke-linejoin="round" stroke-width="0.05"/>
  </g>
</svg>
