<?xml version="1.0" encoding="UTF-8" standalone="no"?>
<svg xmlns:xlink="http://www.w3.org/1999/xlink" height="29.15px" width="20.95px" xmlns="http://www.w3.org/2000/svg">
  <g transform="matrix(1.0, 0.0, 0.0, 1.0, 9.8, 23.15)">
    <path d="M-6.25 -8.7 L-6.2 -8.65 -6.4 -8.45 -6.45 -8.5 -6.25 -8.7 M-4.4 -0.65 L-4.45 -0.6 -4.45 -0.65 -4.4 -0.65" fill="#618f5c" fill-rule="evenodd" stroke="none"/>
    <path d="M-6.2 -8.65 L-6.15 -8.6 -6.2 -8.65" fill="#ffd0ae" fill-rule="evenodd" stroke="none"/>
    <path d="M0.0 -1.1 L0.15 0.1 0.1 0.3 -0.1 1.3 -0.35 1.7 -0.75 2.25 Q-1.25 2.7 -1.8 2.8 L-2.45 2.8 Q-3.4 2.6 -4.0 1.6 L-4.45 0.25 -4.45 -0.6 -4.4 -0.65 -4.15 0.65 -3.25 1.35 Q-2.75 1.45 -2.25 1.05 -1.85 0.6 -1.75 -0.05 L-1.75 -0.25 Q-1.75 -0.85 -2.05 -1.35 L-2.95 -2.05 -3.85 -1.75 Q-4.35 -1.35 -4.4 -0.65 L-4.45 -0.65 -4.3 -1.4 -3.8 -2.3 -3.55 -2.55 Q-2.8 -3.3 -1.85 -3.1 -0.95 -2.9 -0.35 -1.85 L0.0 -1.1 M-8.55 -3.4 L-8.3 -3.3 Q-7.8 -3.05 -7.45 -2.15 -7.15 -1.3 -7.2 -0.35 L-7.35 0.45 -7.7 1.1 Q-8.0 1.5 -8.35 1.5 L-8.65 1.4 Q-9.2 1.15 -9.5 0.3 L-9.75 -0.85 -9.75 -1.55 -9.7 -1.55 -9.55 -0.5 Q-9.4 0.0 -9.1 0.15 L-8.7 0.15 -8.55 0.05 -8.25 -0.8 -8.25 -0.85 -8.25 -1.0 Q-8.25 -1.45 -8.4 -1.9 L-8.4 -1.95 -8.9 -2.55 Q-9.2 -2.7 -9.4 -2.35 L-9.7 -1.55 -9.75 -1.55 -9.65 -2.15 -9.4 -2.8 -9.25 -3.0 Q-8.95 -3.4 -8.55 -3.4" fill="#993333" fill-rule="evenodd" stroke="none"/>
    <path d="M-9.7 -1.55 L-9.4 -2.35 Q-9.2 -2.7 -8.9 -2.55 L-8.4 -1.95 -8.4 -1.9 Q-8.25 -1.45 -8.25 -1.0 L-8.25 -0.85 -8.25 -0.8 -8.55 0.05 -8.7 0.15 -9.1 0.15 Q-9.4 0.0 -9.55 -0.5 L-9.7 -1.55 M-4.4 -0.65 Q-4.35 -1.35 -3.85 -1.75 L-2.95 -2.05 -2.05 -1.35 Q-1.75 -0.85 -1.75 -0.25 L-1.75 -0.05 Q-1.85 0.6 -2.25 1.05 -2.75 1.45 -3.25 1.35 L-4.15 0.65 -4.4 -0.65" fill="#ff0000" fill-rule="evenodd" stroke="none"/>
    <path d="M10.85 -17.75 L10.5 -16.25 9.6 -13.5 Q6.6 -19.25 2.8 -19.2 4.35 -20.7 6.3 -22.05 8.75 -21.25 10.85 -17.75 8.75 -21.25 6.3 -22.05 4.35 -20.7 2.8 -19.2 6.6 -19.25 9.6 -13.5 L8.15 -10.15 7.1 -8.35 6.7 -7.8 4.5 -5.6 3.9 -5.15 Q3.55 -3.6 2.45 -2.55 L2.45 -2.5 0.0 -1.1 -0.35 -1.85 Q-0.95 -2.9 -1.85 -3.1 -2.8 -3.3 -3.55 -2.55 L-3.8 -2.3 -4.3 -1.4 -4.45 -0.65 -4.45 -0.6 -4.45 0.25 -4.0 1.6 Q-3.4 2.6 -2.45 2.8 L-1.8 2.8 -3.4 3.1 -3.4 3.05 Q-3.45 2.6 -4.15 2.25 -4.8 1.85 -5.75 1.7 L-7.4 1.6 -8.05 1.9 -8.35 1.5 Q-8.0 1.5 -7.7 1.1 L-7.35 0.45 -7.2 -0.35 Q-7.15 -1.3 -7.45 -2.15 -7.8 -3.05 -8.3 -3.3 L-8.55 -3.4 -8.35 -5.0 -7.8 -6.55 -7.2 -6.85 -7.8 -6.55 -6.85 -8.05 -6.45 -8.5 -6.4 -8.45 -6.7 -8.05 -6.9 -7.65 -7.2 -6.85 Q-7.35 -6.0 -7.1 -5.4 L-7.05 -5.3 -7.05 -5.4 -6.75 -7.55 -6.15 -8.6 Q-5.75 -9.05 -5.2 -9.0 -4.7 -9.05 -4.45 -8.6 -4.2 -8.2 -4.3 -7.55 L-4.4 -7.2 -4.85 -4.4 -4.65 -4.5 -3.95 -5.05 Q-3.25 -5.7 -3.0 -6.7 L-3.0 -6.85 Q-2.75 -7.9 -3.2 -8.65 -3.65 -9.4 -4.55 -9.35 L-4.85 -9.35 -5.65 -9.05 -6.2 -8.65 -6.25 -8.7 -5.65 -9.2 -5.6 -9.3 -5.6 -9.4 -5.2 -11.9 -5.0 -12.5 -4.3 -14.05 -3.3 -15.55 Q-1.75 -17.55 0.0 -18.9 L3.15 -21.15 5.05 -22.25 6.3 -22.05 7.9 -23.15 6.3 -22.05 5.05 -22.25 Q6.65 -23.05 7.9 -23.15 L9.7 -22.85 Q11.65 -22.0 10.95 -18.1 L10.85 -17.75 M7.1 -8.35 Q5.95 -10.5 4.65 -11.9 2.05 -14.6 -1.35 -14.4 0.3 -16.95 2.8 -19.2 L1.45 -19.3 0.0 -18.9 1.45 -19.3 2.8 -19.2 Q0.3 -16.95 -1.35 -14.4 2.05 -14.6 4.65 -11.9 5.95 -10.5 7.1 -8.35 M3.9 -5.15 Q1.25 -10.85 -3.7 -9.75 L-2.8 -11.9 -1.35 -14.4 -2.05 -14.4 -4.3 -14.05 -2.05 -14.4 -1.35 -14.4 -2.8 -11.9 -3.7 -9.75 Q1.25 -10.85 3.9 -5.15 M-3.7 -9.75 L-4.9 -9.65 -5.6 -9.4 -4.9 -9.65 -3.7 -9.75 M-3.0 -6.7 Q0.2 -6.3 2.45 -2.55 0.2 -6.3 -3.0 -6.7" fill="#5a7e5f" fill-rule="evenodd" stroke="none"/>
    <path d="M9.6 -13.5 L10.5 -16.25 10.85 -17.75 10.9 -17.75 Q10.35 -11.9 8.25 -7.3 6.85 -4.25 3.9 -3.45 L3.05 -1.3 2.45 -2.55 3.05 -1.3 Q3.15 1.9 -0.95 3.2 L-3.55 3.6 -3.45 3.25 -3.4 3.1 -3.45 3.25 -3.55 3.6 -4.05 5.55 Q-4.05 5.85 -4.7 5.95 L-6.05 5.9 Q-5.35 5.6 -5.45 5.25 -6.45 4.5 -7.85 4.7 L-7.8 5.4 -8.0 5.3 -8.7 4.6 -8.05 1.9 -7.4 1.6 -5.75 1.7 Q-4.8 1.85 -4.15 2.25 -3.45 2.6 -3.4 3.05 L-3.4 3.1 -1.8 2.8 Q-1.25 2.7 -0.75 2.25 L-0.35 1.7 -0.1 1.3 0.1 0.3 0.15 0.1 0.0 -1.1 2.45 -2.5 2.45 -2.55 Q3.55 -3.6 3.9 -5.15 L4.5 -5.6 6.7 -7.8 7.1 -8.35 8.15 -10.15 9.6 -13.5 M-7.05 -5.4 L-7.05 -5.3 -7.1 -5.4 -7.05 -5.4" fill="#537557" fill-rule="evenodd" stroke="none"/>
    <path d="M-6.2 -8.65 L-5.65 -9.05 -4.85 -9.35 -4.55 -9.35 Q-3.65 -9.4 -3.2 -8.65 -2.75 -7.9 -3.0 -6.85 L-3.0 -6.7 Q-3.25 -5.7 -3.95 -5.05 L-4.65 -4.5 -4.85 -4.4 -4.4 -7.2 -4.3 -7.55 Q-4.2 -8.2 -4.45 -8.6 -4.7 -9.05 -5.2 -9.0 -5.75 -9.05 -6.15 -8.6 L-6.2 -8.65 -6.15 -8.6 -6.75 -7.55 -7.05 -5.4 -7.1 -5.4 Q-7.35 -6.0 -7.2 -6.85 L-6.9 -7.65 -6.7 -8.05 -6.4 -8.45 -6.2 -8.65" fill="#4e6d4f" fill-rule="evenodd" stroke="none"/>
    <path d="M9.6 -13.5 L10.5 -16.25 10.85 -17.75 Q8.75 -21.25 6.3 -22.05 4.35 -20.7 2.8 -19.2 6.6 -19.25 9.6 -13.5 L8.15 -10.15 7.1 -8.35 6.7 -7.8 4.5 -5.6 3.9 -5.15 Q1.25 -10.85 -3.7 -9.75 L-2.8 -11.9 -1.35 -14.4 Q2.05 -14.6 4.65 -11.9 5.95 -10.5 7.1 -8.35 M2.45 -2.55 L3.05 -1.3 3.9 -3.45 Q6.85 -4.25 8.25 -7.3 10.35 -11.9 10.9 -17.75 L10.95 -18.1 Q11.65 -22.0 9.7 -22.85 L7.9 -23.15 6.3 -22.05 5.05 -22.25 3.15 -21.15 0.0 -18.9 1.45 -19.3 2.8 -19.2 Q0.3 -16.95 -1.35 -14.4 L-2.05 -14.4 -4.3 -14.05 -3.3 -15.55 Q-1.75 -17.55 0.0 -18.9 M10.85 -17.75 L10.95 -18.1 M5.05 -22.25 Q6.65 -23.05 7.9 -23.15 M-3.4 3.1 L-3.45 3.25 -3.55 3.6 -0.95 3.2 Q3.15 1.9 3.05 -1.3 M-6.25 -8.7 L-5.65 -9.2 -5.6 -9.3 -5.6 -9.4 -5.2 -11.9 -5.0 -12.5 -4.3 -14.05 M-5.6 -9.4 L-4.9 -9.65 -3.7 -9.75 M-4.85 -4.4 L-4.65 -4.5 -3.95 -5.05 Q-3.25 -5.7 -3.0 -6.7 L-3.0 -6.85 Q-2.75 -7.9 -3.2 -8.65 -3.65 -9.4 -4.55 -9.35 L-4.85 -9.35 -5.65 -9.05 -6.2 -8.65 -6.4 -8.45 -6.7 -8.05 -6.9 -7.65 -7.2 -6.85 -7.8 -6.55 -8.35 -5.0 -8.55 -3.4 M-7.05 -5.3 L-7.1 -5.4 Q-7.35 -6.0 -7.2 -6.85 M-8.35 1.5 L-8.05 1.9 -7.4 1.6 -5.75 1.7 Q-4.8 1.85 -4.15 2.25 -3.45 2.6 -3.4 3.05 L-3.4 3.1 M-6.45 -8.5 L-6.85 -8.05 -7.8 -6.55 M-6.45 -8.5 L-6.25 -8.7 M-3.55 3.6 L-4.05 5.55 Q-4.05 5.85 -4.7 5.95 L-6.05 5.9 Q-5.35 5.6 -5.45 5.25 -6.45 4.5 -7.85 4.7 L-7.8 5.4 -8.0 5.3 -8.7 4.6 -8.05 1.9 M2.45 -2.55 Q0.2 -6.3 -3.0 -6.7" fill="none" stroke="#374e32" stroke-linecap="round" stroke-linejoin="round" stroke-width="0.05"/>
  </g>
</svg>
