<?xml version="1.0" encoding="UTF-8" standalone="no"?>
<svg xmlns:xlink="http://www.w3.org/1999/xlink" height="83.25px" width="50.95px" xmlns="http://www.w3.org/2000/svg">
  <g transform="matrix(1.0, 0.0, 0.0, 1.0, 46.3, 4.75)">
    <path d="M3.15 7.15 Q4.45 9.45 3.15 13.05 -13.1 27.65 -22.75 30.15 -18.55 42.05 -16.0 70.0 -18.85 81.1 -29.3 77.7 L-31.8 72.7 Q-29.9 72.8 -27.5 72.1 -23.15 70.9 -21.05 65.55 -22.85 39.35 -25.65 28.65 -19.75 26.7 -6.25 16.4 0.55 11.1 3.15 7.15 M-22.75 30.15 L-25.65 28.65 -22.75 30.15" fill="#f3ebdf" fill-rule="evenodd" stroke="none"/>
    <path d="M-31.8 72.7 Q-34.3 72.6 -35.9 71.1 L-45.8 33.25 Q-47.65 24.1 -42.8 17.4 -29.8 2.55 -6.95 -4.7 1.9 -5.3 4.65 2.55 4.8 4.55 3.15 7.15 0.55 11.1 -6.25 16.4 -19.75 26.7 -25.65 28.65 -22.85 39.35 -21.05 65.55 -23.15 70.9 -27.5 72.1 -29.9 72.8 -31.8 72.7" fill="#edc05b" fill-rule="evenodd" stroke="none"/>
    <path d="M3.15 7.15 Q4.45 9.45 3.15 13.05 -13.1 27.65 -22.75 30.15 -18.55 42.05 -16.0 70.0 -18.85 81.1 -29.3 77.7 L-31.8 72.7 M-25.65 28.65 L-22.75 30.15" fill="none" stroke="#b58244" stroke-linecap="round" stroke-linejoin="round" stroke-width="0.05"/>
    <path d="M-31.8 72.7 Q-34.3 72.6 -35.9 71.1 L-45.8 33.25 Q-47.65 24.1 -42.8 17.4 -29.8 2.55 -6.95 -4.7 1.9 -5.3 4.65 2.55 4.8 4.55 3.15 7.15 0.55 11.1 -6.25 16.4 -19.75 26.7 -25.65 28.65 -22.85 39.35 -21.05 65.55 -23.15 70.9 -27.5 72.1 -29.9 72.8 -31.8 72.7" fill="none" stroke="#a87013" stroke-linecap="round" stroke-linejoin="round" stroke-width="0.05"/>
  </g>
</svg>
