<?xml version="1.0" encoding="UTF-8" standalone="no"?>
<svg xmlns:xlink="http://www.w3.org/1999/xlink" height="99.5px" width="39.0px" xmlns="http://www.w3.org/2000/svg">
  <g transform="matrix(1.0, 0.0, 0.0, 1.0, 30.95, 5.15)">
    <path d="M7.85 7.05 L7.2 10.2 Q3.95 22.95 -0.9 34.3 L-2.65 38.25 Q-0.55 47.55 -1.35 61.95 -1.9 70.8 -3.5 81.55 -5.2 93.8 -12.2 94.0 -14.0 94.05 -16.15 93.3 -25.7 80.95 -30.7 49.1 -31.6 41.35 -29.4 33.45 -24.6 15.95 -13.3 -0.6 -8.05 -6.85 1.25 -4.5 9.2 -2.35 7.85 7.05" fill="#edc05b" fill-rule="evenodd" stroke="none"/>
    <path d="M-0.9 34.3 Q3.95 22.95 7.2 10.2 L7.85 7.05 Q9.35 24.4 -0.9 34.3 M-12.2 94.0 Q-5.2 93.8 -3.5 81.55 -1.9 70.8 -1.35 61.95 3.35 85.35 -2.35 90.9 -5.15 95.45 -12.2 94.0" fill="#f3ebdf" fill-rule="evenodd" stroke="none"/>
    <path d="M-0.9 34.3 Q3.95 22.95 7.2 10.2 L7.85 7.05 Q9.2 -2.35 1.25 -4.5 -8.05 -6.85 -13.3 -0.6 -24.6 15.95 -29.4 33.45 -31.6 41.35 -30.7 49.1 -25.7 80.95 -16.15 93.3 -14.0 94.05 -12.2 94.0 -5.2 93.8 -3.5 81.55 -1.9 70.8 -1.35 61.95 -0.55 47.55 -2.65 38.25 L-0.9 34.3 Q9.35 24.4 7.85 7.05 M-12.2 94.0 Q-5.15 95.45 -2.35 90.9 3.35 85.35 -1.35 61.95" fill="none" stroke="#b58244" stroke-linecap="round" stroke-linejoin="round" stroke-width="0.05"/>
  </g>
</svg>
