<?xml version="1.0" encoding="UTF-8" standalone="no"?>
<svg xmlns:xlink="http://www.w3.org/1999/xlink" height="88.2px" width="119.6px" xmlns="http://www.w3.org/2000/svg">
  <g transform="matrix(1.0, 0.0, 0.0, 1.0, 32.55, 55.1)">
    <path d="M42.7 -50.65 Q44.5 -51.7 46.85 -51.9 51.45 -52.3 55.55 -49.15 59.45 -46.15 60.7 -41.65 52.9 -47.2 42.7 -50.65 M78.35 -19.0 L80.85 -17.45 Q85.35 -13.95 86.65 -8.6 L86.95 -6.9 Q87.45 -2.65 85.25 0.8 L85.2 0.95 Q82.45 5.05 77.4 5.55 L75.7 5.6 78.35 -1.35 78.95 -3.2 Q80.55 -11.55 78.35 -19.0 M-24.1 -4.5 L-32.55 -16.8 -14.05 -37.65 -3.35 -24.3 -24.1 -4.5" fill="#cccccc" fill-rule="evenodd" stroke="none"/>
    <path d="M75.7 5.6 Q71.8 14.8 62.8 27.0 59.1 33.55 29.65 33.05 0.2 32.5 -24.1 -4.5 L-3.35 -24.3 Q14.9 -9.85 36.25 -0.45 57.6 8.9 66.85 5.95 76.1 2.95 78.35 -1.35 L75.7 5.6 M-32.55 -16.8 L-16.8 -38.7 23.5 -41.0 23.7 -40.85 23.05 -37.65 -14.05 -37.65 -32.55 -16.8 M17.4 -52.5 L17.35 -50.7 Q7.1 -48.15 4.7 -42.2 L-0.1 -42.0 Q4.9 -50.1 17.4 -52.5 M14.75 -22.4 L19.8 -22.85 22.65 -21.15 Q39.7 -11.55 61.45 -6.7 L65.15 -2.2 Q42.1 -7.7 22.05 -18.3 18.35 -20.25 14.75 -22.4" fill="#3b2e2d" fill-rule="evenodd" stroke="none"/>
    <path d="M23.7 -40.85 L43.2 -35.1 41.65 -31.4 23.05 -37.65 23.7 -40.85" fill="#523f3f" fill-rule="evenodd" stroke="none"/>
    <path d="M42.7 -50.65 Q52.9 -47.2 60.7 -41.65 65.8 -38.05 69.9 -33.55 76.1 -26.7 78.35 -19.0 80.55 -11.55 78.95 -3.2 L78.35 -1.35 Q76.1 2.95 66.85 5.95 57.6 8.9 36.25 -0.45 14.9 -9.85 -3.35 -24.3 L39.95 -27.65 40.05 -27.55 40.1 -27.65 41.65 -31.4 43.2 -35.1 23.7 -40.85 23.5 -41.0 -16.8 -38.7 Q-6.8 -55.05 22.85 -55.1 33.7 -53.7 42.7 -50.65 M17.4 -53.4 L17.4 -52.5 17.4 -53.4 M-0.1 -42.0 L4.7 -42.2 Q7.1 -48.15 17.35 -50.7 L17.4 -52.5 Q4.9 -50.1 -0.1 -42.0 L-3.45 -41.85 -0.1 -42.0 M14.75 -22.4 L11.1 -22.05 14.75 -22.4 Q18.35 -20.25 22.05 -18.3 42.1 -7.7 65.15 -2.2 L61.45 -6.7 Q39.7 -11.55 22.65 -21.15 L19.8 -22.85 14.75 -22.4 M66.95 -0.05 L65.15 -2.2 66.95 -0.05 M43.7 -34.85 L69.9 -33.55 43.7 -34.85" fill="#634d4b" fill-rule="evenodd" stroke="none"/>
    <path d="M41.65 -31.4 L40.1 -27.65 39.95 -27.65 -3.35 -24.3 -14.05 -37.65 23.05 -37.65 41.65 -31.4" fill="#ebebeb" fill-rule="evenodd" stroke="none"/>
    <path d="M60.7 -41.65 Q59.45 -46.15 55.55 -49.15 51.45 -52.3 46.85 -51.9 44.5 -51.7 42.7 -50.65 M78.35 -19.0 L80.85 -17.45 Q85.35 -13.95 86.65 -8.6 L86.95 -6.9 Q87.45 -2.65 85.25 0.8 L85.2 0.95 Q82.45 5.05 77.4 5.55 L75.7 5.6" fill="none" stroke="#666666" stroke-linecap="round" stroke-linejoin="round" stroke-width="0.05"/>
    <path d="M42.7 -50.65 Q52.9 -47.2 60.7 -41.65 65.8 -38.05 69.9 -33.55 76.1 -26.7 78.35 -19.0 80.55 -11.55 78.95 -3.2 L78.35 -1.35 Q76.1 2.95 66.85 5.95 57.6 8.9 36.25 -0.45 14.9 -9.85 -3.35 -24.3 L39.95 -27.65 40.1 -27.65 41.65 -31.4 43.2 -35.1 23.7 -40.85 23.05 -37.65 41.65 -31.4 M62.8 27.0 Q59.1 33.55 29.65 33.05 0.2 32.5 -24.1 -4.5 L-32.55 -16.8 -16.8 -38.7 Q-6.8 -55.05 22.85 -55.1 33.7 -53.7 42.7 -50.65 M17.4 -52.5 L17.4 -53.4 M-0.1 -42.0 L4.7 -42.2 Q7.1 -48.15 17.35 -50.7 L17.4 -52.5 M-0.1 -42.0 L-3.45 -41.85 M-16.8 -38.7 L23.5 -41.0 23.7 -40.85 M11.1 -22.05 L14.75 -22.4 19.8 -22.85 22.65 -21.15 Q39.7 -11.55 61.45 -6.7 L65.15 -2.2 66.95 -0.05 M69.9 -33.55 L43.7 -34.85 M-14.05 -37.65 L-32.55 -16.8 M-14.05 -37.65 L23.05 -37.65 M-24.1 -4.5 L-3.35 -24.3" fill="none" stroke="#221a1a" stroke-linecap="round" stroke-linejoin="round" stroke-width="0.05"/>
  </g>
</svg>
