<?xml version="1.0" encoding="UTF-8" standalone="no"?>
<svg xmlns:xlink="http://www.w3.org/1999/xlink" height="12.25px" width="10.8px" xmlns="http://www.w3.org/2000/svg">
  <g transform="matrix(1.0, 0.0, 0.0, 1.0, 5.95, 1.0)">
    <path d="M4.35 0.45 Q5.2 2.2 4.55 3.4 3.85 4.55 2.75 5.4 1.65 6.2 0.1 6.3 L-0.4 6.3 -0.5 6.3 -0.9 6.3 -1.3 6.25 -1.9 6.1 -2.05 6.05 Q-3.45 5.65 -4.35 4.7 -5.35 3.65 -5.8 2.0 -6.1 0.8 -5.8 -1.0 -5.6 -0.3 -4.75 0.05 L-3.2 0.5 -2.85 0.55 -2.2 0.6 1.7 0.8 2.8 0.75 4.35 0.45" fill="#738f56" fill-rule="evenodd" stroke="none"/>
    <path d="M4.35 0.45 L2.8 0.75 1.7 0.8 -2.2 0.6 -2.85 0.55 -3.2 0.5 -4.75 0.05 Q-5.6 -0.3 -5.8 -1.0 -6.1 0.8 -5.8 2.0 -5.35 3.65 -4.35 4.7 -3.45 5.65 -2.05 6.05 L-1.9 6.1 -1.3 6.25 -0.9 6.3 -0.5 6.3 -0.4 6.3 0.1 6.3 Q1.65 6.2 2.75 5.4 3.85 4.55 4.55 3.4 5.2 2.2 4.35 0.45 Z" fill="none" stroke="#5a5430" stroke-linecap="round" stroke-linejoin="round" stroke-width="0.05"/>
    <path d="M-4.55 7.25 L-5.1 -0.05 -0.9 0.85 -0.35 11.25 -0.8 10.9 -1.35 10.8 -2.0 10.75 Q-2.5 10.6 -2.8 10.1 L-3.55 9.55 Q-3.8 9.4 -4.0 9.55 L-4.4 9.3 -4.55 7.25 -4.0 9.55 -4.55 7.25 M-1.6 6.45 L-1.35 10.8 -1.6 6.45 M-2.8 8.35 L-2.8 10.1 -2.8 8.35" fill="#823939" fill-rule="evenodd" stroke="none"/>
    <path d="M-4.0 9.55 L-4.4 9.3 -4.55 7.25" fill="none" stroke="#674743" stroke-linecap="round" stroke-linejoin="round" stroke-width="0.05"/>
    <path d="M-4.55 7.25 L-5.1 -0.05 -0.9 0.85 -0.35 11.25 -0.8 10.9 -1.35 10.8 -2.0 10.75 Q-2.5 10.6 -2.8 10.1 L-3.55 9.55 Q-3.8 9.4 -4.0 9.55 L-4.55 7.25 M-2.8 10.1 L-2.8 8.35 M-1.35 10.8 L-1.6 6.45" fill="none" stroke="#542525" stroke-linecap="round" stroke-linejoin="round" stroke-width="0.05"/>
  </g>
</svg>
