<?xml version="1.0" encoding="UTF-8" standalone="no"?>
<svg xmlns:xlink="http://www.w3.org/1999/xlink" height="6.0px" width="12.75px" xmlns="http://www.w3.org/2000/svg">
  <g transform="matrix(1.0, 0.0, 0.0, 1.0, 2.45, 2.6)">
    <path d="M5.15 -0.5 Q4.0 -0.55 1.85 -1.55 L1.1 -2.25 10.3 -1.3 5.15 -0.5" fill="#699b98" fill-rule="evenodd" stroke="none"/>
    <path d="M1.1 -2.25 L1.85 -1.55 Q4.0 -0.55 5.15 -0.5 L10.3 -1.3 Q10.25 1.3 8.75 3.4 L1.35 1.35 1.3 0.8 -1.1 0.1 -1.3 -1.75 -0.1 -2.6 Q0.45 -2.7 1.1 -2.25 M1.25 0.0 L1.3 0.8 1.25 0.0" fill="#b1d1d0" fill-rule="evenodd" stroke="none"/>
    <path d="M-1.3 -1.75 L-1.1 0.1 -2.45 -0.7 -1.3 -1.75" fill="#29536c" fill-rule="evenodd" stroke="none"/>
    <path d="M1.1 -2.25 L1.85 -1.55 Q4.0 -0.55 5.15 -0.5 M10.3 -1.3 L1.1 -2.25 Q0.45 -2.7 -0.1 -2.6 L-1.3 -1.75 -1.1 0.1 M1.3 0.8 L1.25 0.0 M10.3 -1.3 Q10.25 1.3 8.75 3.4 L1.35 1.35 1.3 0.8 M-2.45 -0.7 L-1.3 -1.75" fill="none" stroke="#152c33" stroke-linecap="round" stroke-linejoin="round" stroke-width="0.05"/>
  </g>
</svg>
