<?xml version="1.0" encoding="UTF-8" standalone="no"?>
<svg xmlns:xlink="http://www.w3.org/1999/xlink" height="26.1px" width="22.9px" xmlns="http://www.w3.org/2000/svg">
  <g transform="matrix(1.0, 0.0, 0.0, 1.0, 7.55, 14.7)">
    <path d="M12.45 0.45 L11.05 -1.65 11.7 -2.15 Q14.6 -0.15 15.35 3.0 14.2 1.0 12.45 0.45 M10.95 -4.1 Q10.5 0.3 8.05 2.15 7.45 1.45 6.35 2.4 5.85 -4.05 0.95 -5.35 7.3 0.6 5.2 8.95 4.4 10.55 3.05 11.4 4.95 7.15 5.0 4.15 5.05 0.7 2.65 -1.15 4.2 1.85 4.2 3.55 2.3 1.85 0.5 -2.2 -0.7 1.15 0.5 3.9 L-0.5 2.65 -0.2 4.9 Q-2.0 2.55 -2.55 -1.0 -3.5 0.3 -3.2 2.7 -3.75 1.75 -3.8 -0.45 -5.1 3.4 -2.95 8.3 L-3.95 6.85 Q-6.3 2.15 -3.5 -4.8 -4.85 -2.75 -5.3 -0.75 -5.25 -1.95 -5.6 -2.2 -4.05 -6.0 -0.3 -9.6 L-0.1 -9.8 0.95 -10.1 Q1.1 -12.6 4.1 -14.7 2.3 -12.45 1.85 -10.05 L3.3 -9.35 Q7.75 -11.45 10.95 -4.1" fill="#d59e8a" fill-rule="evenodd" stroke="none"/>
    <path d="M11.7 -2.15 L11.05 -1.65 12.45 0.45 Q13.55 2.0 13.05 3.85 L12.5 2.65 11.65 4.65 11.65 3.7 Q11.75 1.55 6.85 5.7 8.75 3.45 8.2 2.4 L8.05 2.15 Q10.5 0.3 10.95 -4.1 L11.7 -2.15 M4.2 3.55 Q4.2 1.85 2.65 -1.15 5.05 0.7 5.0 4.15 L4.2 3.55" fill="#a4756b" fill-rule="evenodd" stroke="none"/>
    <path d="M-0.3 -9.6 Q-4.05 -6.0 -5.6 -2.2 -6.8 -1.9 -7.5 -0.4 -7.95 -2.45 -3.7 -6.6 -4.0 -7.2 -5.5 -6.6 -3.7 -8.0 -2.1 -8.05 L-0.3 -9.6 M-5.3 -0.75 Q-4.85 -2.75 -3.5 -4.8 -6.3 2.15 -3.95 6.85 -6.25 3.15 -5.3 -0.75 M5.2 8.95 Q7.3 0.6 0.95 -5.35 5.85 -4.05 6.35 2.4 6.4 6.55 5.2 8.95" fill="#dec8b7" fill-rule="evenodd" stroke="none"/>
    <path d="M11.7 -2.15 L10.95 -4.1 Q7.75 -11.45 3.3 -9.35 L1.85 -10.05 Q2.3 -12.45 4.1 -14.7 1.1 -12.6 0.95 -10.1 L-0.1 -9.8 -0.3 -9.6 -2.1 -8.05 Q-3.7 -8.0 -5.5 -6.6 -4.0 -7.2 -3.7 -6.6 -7.95 -2.45 -7.5 -0.4 -6.8 -1.9 -5.6 -2.2 -5.25 -1.95 -5.3 -0.75 M8.05 2.15 L8.2 2.4 Q8.75 3.45 6.85 5.7 11.75 1.55 11.65 3.7 L11.65 4.65 12.5 2.65 13.05 3.85 Q13.55 2.0 12.45 0.45 14.2 1.0 15.35 3.0 14.6 -0.15 11.7 -2.15 M-2.95 8.3 Q-5.1 3.4 -3.8 -0.45 M-3.2 2.7 Q-3.5 0.3 -2.55 -1.0 M-0.2 4.9 L-0.5 2.65 M0.5 3.9 Q-0.7 1.15 0.5 -2.2 M6.35 2.4 Q7.45 1.45 8.05 2.15" fill="none" stroke="#803f2f" stroke-linecap="round" stroke-linejoin="round" stroke-width="0.05"/>
  </g>
</svg>
