<?xml version="1.0" encoding="UTF-8" standalone="no"?>
<svg xmlns:xlink="http://www.w3.org/1999/xlink" height="4.5px" width="7.9px" xmlns="http://www.w3.org/2000/svg">
  <g transform="matrix(1.0, 0.0, 0.0, 1.0, 4.1, 2.15)">
    <path d="M-3.4 1.35 Q-4.2 0.7 -4.1 -0.1 -4.05 -1.1 -2.8 -1.65 -1.6 -2.25 0.05 -2.15 L2.05 -1.7 2.7 -1.0 Q3.4 -0.1 2.6 0.65 L2.2 0.95 Q0.4 2.0 -3.4 1.35" fill="#ffeadf" fill-rule="evenodd" stroke="none"/>
    <path d="M2.05 -1.7 L2.8 -1.3 3.05 -1.1 Q3.9 -0.5 3.8 0.4 3.75 1.0 3.2 1.45 L2.5 1.9 -0.4 2.35 Q-2.05 2.25 -3.1 1.55 L-3.4 1.35 Q0.4 2.0 2.2 0.95 L2.6 0.65 Q3.4 -0.1 2.7 -1.0 L2.05 -1.7" fill="#ffdfce" fill-rule="evenodd" stroke="none"/>
    <path d="M2.05 -1.7 L2.8 -1.3 3.05 -1.1 M3.2 1.45 L2.5 1.9 -0.4 2.35 Q-2.05 2.25 -3.1 1.55 L-3.4 1.35 Q-4.2 0.7 -4.1 -0.1 -4.05 -1.1 -2.8 -1.65 -1.6 -2.25 0.05 -2.15 L2.05 -1.7 Z" fill="none" stroke="#fda893" stroke-linecap="round" stroke-linejoin="round" stroke-width="0.05"/>
  </g>
</svg>
