<?xml version="1.0" encoding="UTF-8" standalone="no"?>
<svg xmlns:xlink="http://www.w3.org/1999/xlink" height="22.7px" width="7.45px" xmlns="http://www.w3.org/2000/svg">
  <g transform="matrix(1.0, 0.0, 0.0, 1.0, 7.35, 1.0)">
    <path d="M-2.0 -0.9 L-1.9 -0.85 Q-1.35 -0.25 -0.95 2.75 L-0.3 8.3 -0.1 11.45 -0.35 11.45 -0.65 10.3 Q-1.3 8.05 -2.35 6.0 -3.05 4.6 -4.55 3.95 L-5.35 4.05 -5.95 5.0 -7.0 7.1 -7.3 4.25 Q-7.45 2.45 -7.25 1.3 L-6.55 0.25 Q-5.45 -0.8 -3.1 -0.95 L-2.15 -1.0 -2.0 -0.9" fill="#000000" fill-rule="evenodd" stroke="none"/>
    <path d="M-0.05 12.8 L0.0 13.8 0.1 20.6 Q-2.25 22.5 -4.05 21.1 -5.15 18.3 -5.8 15.2 L-6.55 11.35 -6.9 8.5 -7.0 7.25 -7.0 7.1 -5.95 5.0 -5.35 4.05 -4.55 3.95 Q-3.05 4.6 -2.35 6.0 -1.3 8.05 -0.65 10.3 L-0.35 11.45 -0.05 12.8" fill="#25353a" fill-rule="evenodd" stroke="none"/>
    <path d="M-7.0 7.25 L-7.0 7.1 -7.0 7.25" fill="#fec4a5" fill-rule="evenodd" stroke="none"/>
    <path d="M-0.1 11.45 L-0.05 12.8 -0.35 11.45 -0.1 11.45" fill="#333333" fill-rule="evenodd" stroke="none"/>
    <path d="M-2.0 -0.9 L-1.9 -0.85 Q-1.35 -0.25 -0.95 2.75 L-0.3 8.3 M-0.1 11.45 L-0.05 12.8 0.0 13.8 0.1 20.6 M-4.05 21.1 Q-5.15 18.3 -5.8 15.2 L-6.55 11.35 M-6.9 8.5 L-7.0 7.25 M-7.0 7.1 L-7.3 4.25 Q-7.45 2.45 -7.25 1.3" fill="none" stroke="#000000" stroke-linecap="round" stroke-linejoin="round" stroke-width="0.05"/>
    <path d="M-0.3 8.3 L-0.1 11.45 M-6.55 11.35 L-6.9 8.5 M-7.0 7.25 L-7.0 7.1" fill="none" stroke="#000000" stroke-linecap="round" stroke-linejoin="round" stroke-width="0.05"/>
  </g>
</svg>
