<?xml version="1.0" encoding="UTF-8" standalone="no"?>
<svg xmlns:xlink="http://www.w3.org/1999/xlink" height="14.3px" width="18.1px" xmlns="http://www.w3.org/2000/svg">
  <g transform="matrix(1.0, 0.0, 0.0, 1.0, 8.9, 2.9)">
    <path d="M1.6 2.7 L2.1 5.65 Q-0.4 6.15 -3.05 5.7 L-3.4 3.45 Q0.25 4.5 1.6 2.7" fill="#000000" fill-rule="evenodd" stroke="none"/>
    <path d="M-3.4 3.45 L-4.1 -1.1 -3.6 -1.0 1.05 -0.75 1.6 2.7 Q0.25 4.5 -3.4 3.45" fill="#25353a" fill-rule="evenodd" stroke="none"/>
    <path d="M-2.2 -0.9 Q5.6 -0.75 5.5 -1.05 L9.2 7.0 Q7.2 9.05 2.5 11.4 0.6 5.0 -2.2 -0.9 -3.6 8.2 -3.4 10.6 -8.6 6.95 -8.9 5.2 L-6.8 -2.9 Q-5.15 -1.4 -2.2 -0.9" fill="#24485b" fill-rule="evenodd" stroke="none"/>
    <path d="M-2.2 -0.9 Q5.6 -0.75 5.5 -1.05 L9.2 7.0 Q7.2 9.05 2.5 11.4 0.6 5.0 -2.2 -0.9 -3.6 8.2 -3.4 10.6 -8.6 6.95 -8.9 5.2 L-6.8 -2.9 Q-5.15 -1.4 -2.2 -0.9 Z" fill="none" stroke="#346c81" stroke-linecap="round" stroke-linejoin="round" stroke-width="0.05"/>
  </g>
</svg>
