<?xml version="1.0" encoding="UTF-8" standalone="no"?>
<svg xmlns:xlink="http://www.w3.org/1999/xlink" height="27.9px" width="16.75px" xmlns="http://www.w3.org/2000/svg">
  <g transform="matrix(1.0, 0.0, 0.0, 1.0, 10.05, 10.85)">
    <path d="M-8.85 -2.3 L-8.8 -2.4 -8.75 -2.4 -8.85 -2.3 M-3.95 -6.9 L-4.0 -6.9 -4.0 -7.0 -3.95 -6.9" fill="#ffdfc8" fill-rule="evenodd" stroke="none"/>
    <path d="M-3.95 -6.9 L-3.9 -6.75 -3.95 -6.8 -3.95 -6.9" fill="#d6f8f4" fill-rule="evenodd" stroke="none"/>
    <path d="M-9.35 2.7 L-9.5 2.45 -9.35 2.7" fill="#ffd9ec" fill-rule="evenodd" stroke="none"/>
    <path d="M0.6 -7.7 L0.8 -6.9 0.9 -6.65 2.4 -6.05 2.4 -6.0 Q2.35 -4.2 2.8 -2.6 3.1 -1.15 3.8 0.15 L3.85 0.3 4.1 1.1 Q4.85 2.75 5.5 2.4 L2.9 8.05 2.9 8.1 2.6 9.05 3.6 10.55 Q5.25 12.95 5.8 15.55 L3.4 14.6 2.75 13.05 1.25 10.15 1.05 9.55 Q0.0 7.1 -2.75 6.45 L-2.8 6.45 -3.4 6.45 Q-5.25 6.95 -5.6 9.0 L-5.85 7.95 -5.85 7.9 -7.05 5.2 -7.15 4.9 -7.35 4.2 -8.4 3.65 -9.35 2.7 -9.5 2.45 -9.9 1.4 -9.5 1.95 -8.45 3.15 -8.4 3.15 -8.2 3.05 -7.1 2.75 -6.2 2.6 Q-5.45 2.6 -4.45 3.25 L-4.15 3.4 -4.05 3.45 -4.0 3.45 -2.1 4.4 0.5 4.5 Q2.1 4.2 2.6 3.4 L2.85 2.4 2.85 2.1 2.35 -0.3 2.35 -0.45 2.3 -0.6 2.3 -0.7 0.95 -2.45 0.95 -2.5 0.9 -2.55 0.15 -3.15 -0.7 -3.0 -1.65 -3.25 Q-2.95 -3.7 -2.45 -3.7 L-2.15 -3.65 0.25 -3.8 0.15 -5.25 0.05 -5.75 0.0 -5.9 -0.1 -6.45 -0.3 -7.25 -0.3 -7.3 0.6 -7.7 M-5.6 9.05 L-5.6 9.0 -5.6 9.05 M1.3 -5.45 L0.9 -6.65 1.3 -5.45 M-7.35 4.2 L-6.15 4.25 Q-4.2 4.2 -2.95 5.1 L-2.05 5.75 -1.2 6.1 -0.4 6.2 0.25 6.2 Q1.35 6.0 2.3 5.45 3.75 4.35 4.05 2.65 L4.2 1.75 4.2 1.7 4.1 1.1 4.2 1.7 4.2 1.75 4.05 2.65 Q3.75 4.35 2.3 5.45 1.35 6.0 0.25 6.2 L-0.4 6.2 -1.2 6.1 -2.05 5.75 -2.95 5.1 Q-4.2 4.2 -6.15 4.25 L-7.35 4.2 M-0.1 -6.45 L0.8 -6.9 -0.1 -6.45" fill="#1c3748" fill-rule="evenodd" stroke="none"/>
    <path d="M5.8 15.55 L5.6 15.65 3.85 16.4 2.2 16.85 2.1 16.85 0.0 17.05 -2.1 17.05 -2.3 17.05 -3.35 16.9 -4.35 16.65 -5.0 16.45 -5.05 16.4 -5.65 16.2 -5.95 16.1 -7.55 15.0 -7.45 13.8 Q-7.15 11.2 -5.6 9.05 L-5.6 9.0 Q-5.25 6.95 -3.4 6.45 L-2.8 6.45 -2.75 6.45 Q0.0 7.1 1.05 9.55 L1.25 10.15 2.75 13.05 3.4 14.6 5.8 15.55 M-9.9 1.4 Q-10.3 0.4 -9.75 -0.9 L-9.65 -1.1 -8.75 -2.4 -8.85 -2.3 -8.75 -2.4 -7.25 -4.05 -4.85 -6.9 -4.7 -7.1 -4.45 -7.1 -4.3 -7.05 -4.0 -7.0 -4.0 -7.6 -3.9 -7.8 -3.8 -7.45 -3.6 -7.2 -0.4 -7.3 -0.3 -7.3 -0.3 -7.25 -0.1 -6.45 0.0 -5.9 0.05 -5.75 0.15 -5.25 0.25 -3.8 -2.15 -3.65 -2.45 -3.7 Q-2.95 -3.7 -1.65 -3.25 L-0.7 -3.0 0.15 -3.15 0.9 -2.55 0.95 -2.5 0.95 -2.45 2.3 -0.7 2.3 -0.6 2.35 -0.45 2.35 -0.3 2.85 2.1 2.85 2.4 2.6 3.4 Q2.1 4.2 0.5 4.5 L-2.1 4.4 -4.0 3.45 -4.05 3.45 -4.15 3.4 -4.45 3.25 Q-5.45 2.6 -6.2 2.6 L-7.1 2.75 -8.2 3.05 -8.4 3.15 -8.45 3.15 -9.5 1.95 -9.9 1.4 M-3.0 -5.8 Q-2.1 -5.6 -0.35 -6.35 L-0.25 -6.35 -0.1 -6.45 -0.25 -6.35 -0.35 -6.35 Q-2.1 -5.6 -3.0 -5.8 L-4.65 -1.85 -3.0 -5.8 Q-3.6 -5.95 -3.8 -6.45 L-3.9 -6.75 -3.8 -6.45 Q-3.6 -5.95 -3.0 -5.8 M-3.9 -6.75 L-3.95 -6.9 -4.0 -7.0 -4.0 -6.9 -3.95 -6.9 -3.95 -6.8 -3.9 -6.75" fill="#24485b" fill-rule="evenodd" stroke="none"/>
    <path d="M-3.8 -9.7 L-3.85 -10.75 0.45 -10.85 0.55 -8.45 0.6 -7.7 -0.3 -7.3 -0.45 -7.7 -0.6 -8.1 -0.85 -8.7 -0.95 -8.9 -2.9 -9.25 -3.45 -9.45 -3.8 -9.7 M2.4 -6.05 L2.55 -6.05 2.7 -6.0 3.95 -5.5 4.95 -5.0 5.0 -5.0 6.7 -4.1 6.65 -3.35 6.2 -0.05 5.5 2.4 Q4.85 2.75 4.1 1.1 L3.85 0.3 3.8 0.15 Q3.1 -1.15 2.8 -2.6 2.35 -4.2 2.4 -6.0 L2.4 -6.05" fill="#ffdfce" fill-rule="evenodd" stroke="none"/>
    <path d="M-8.75 -2.4 L-8.35 -3.75 -8.35 -3.9 -8.4 -4.45 -8.5 -6.0 -8.5 -6.55 -8.5 -6.6 -6.05 -7.05 -5.6 -7.05 -4.7 -7.1 -4.85 -6.9 -7.25 -4.05 -8.75 -2.4 M-3.9 -7.8 L-3.9 -7.85 -3.8 -9.7 -3.45 -9.45 -2.9 -9.25 -0.95 -8.9 -0.85 -8.7 -0.6 -8.1 -0.45 -7.7 -0.3 -7.3 -0.4 -7.3 -3.6 -7.2 -3.8 -7.45 -3.9 -7.8" fill="#ffeadf" fill-rule="evenodd" stroke="none"/>
    <path d="M-3.8 -9.7 L-3.85 -10.75 0.45 -10.85 0.55 -8.45 0.6 -7.7 M4.95 -5.0 L5.0 -5.0" fill="none" stroke="#d7995e" stroke-linecap="round" stroke-linejoin="round" stroke-width="0.05"/>
    <path d="M0.6 -7.7 L0.8 -6.9 0.9 -6.65 2.4 -6.05 2.4 -6.0 Q2.35 -4.2 2.8 -2.6 3.1 -1.15 3.8 0.15 L3.85 0.3 4.1 1.1 Q4.85 2.75 5.5 2.4 L2.9 8.05 2.9 8.1 2.6 9.05 3.6 10.55 Q5.25 12.95 5.8 15.55 L5.6 15.65 M-7.55 15.0 L-7.45 13.8 Q-7.15 11.2 -5.6 9.05 L-5.6 9.0 -5.85 7.95 -5.85 7.9 -7.05 5.2 -7.15 4.9 -7.35 4.2 -8.4 3.65 -9.35 2.7 -9.5 2.45 -9.9 1.4 Q-10.3 0.4 -9.75 -0.9 L-9.65 -1.1 -8.75 -2.4 -8.85 -2.3 -8.75 -2.4 -7.25 -4.05 -4.85 -6.9 M-4.45 -7.1 L-4.3 -7.05 -4.0 -7.0 -4.0 -7.6 -3.9 -7.8 -3.9 -7.85 M-0.3 -7.3 L0.6 -7.7 M-0.1 -6.45 L-0.25 -6.35 -0.35 -6.35 Q-2.1 -5.6 -3.0 -5.8 -3.6 -5.95 -3.8 -6.45 L-3.9 -6.75 -3.95 -6.9 -3.95 -6.8 M0.9 -6.65 L1.3 -5.45 M-4.0 -6.9 L-4.0 -7.0 -3.95 -6.9 M-0.3 -7.3 L-0.4 -7.3 -3.6 -7.2 -3.8 -7.45 -3.9 -7.8 M-0.3 -7.25 L-0.3 -7.3 M4.1 1.1 L4.2 1.7 4.2 1.75 4.05 2.65 Q3.75 4.35 2.3 5.45 1.35 6.0 0.25 6.2 L-0.4 6.2 -1.2 6.1 -2.05 5.75 -2.95 5.1 Q-4.2 4.2 -6.15 4.25 L-7.35 4.2 M-9.35 2.7 L-9.5 2.45 M-5.6 9.0 L-5.6 9.05 M-2.75 6.45 L-2.8 6.45 M0.8 -6.9 L-0.1 -6.45" fill="none" stroke="#346c81" stroke-linecap="round" stroke-linejoin="round" stroke-width="0.05"/>
    <path d="M-8.85 -2.3 L-8.8 -2.4 M-3.9 -7.85 L-3.8 -9.7 M-3.0 -5.8 L-4.65 -1.85" fill="none" stroke="#346c81" stroke-linecap="round" stroke-linejoin="round" stroke-width="0.05"/>
    <path d="M-4.85 -6.9 L-4.7 -7.1" fill="none" stroke="#fda893" stroke-linecap="round" stroke-linejoin="round" stroke-width="0.05"/>
    <path d="M2.4 -6.05 L2.55 -6.05 2.7 -6.0 3.95 -5.5 4.95 -5.0 M5.0 -5.0 L6.7 -4.1 M6.2 -0.05 L5.5 2.4 M-8.75 -2.4 L-8.35 -3.75 M-8.5 -6.55 L-8.5 -6.6 -6.05 -7.05 -5.6 -7.05 -4.7 -7.1" fill="none" stroke="#fda893" stroke-linecap="round" stroke-linejoin="round" stroke-width="0.05"/>
    <path d="M-6.95 -2.45 L-4.7 -3.55 -6.2 -2.4 -4.95 -0.5 -5.45 1.55 -5.55 -0.2 -6.95 -2.45 M-4.5 -1.0 L-5.65 -2.35 -3.85 -3.75 -2.7 -2.35 -4.5 -1.0 M-2.15 -2.4 L-3.1 -3.55 -1.35 -2.45 -3.8 -0.2 -4.8 1.55 -4.3 -0.5 -2.15 -2.4" fill="#adb56c" fill-rule="evenodd" stroke="none"/>
    <path d="M5.85 15.4 Q6.45 15.5 6.25 16.3 -0.7 15.6 -7.05 11.4 -7.55 10.65 -6.65 10.4 -0.8 13.8 5.85 15.4" fill="#9b96cc" fill-rule="evenodd" stroke="none"/>
    <path d="M5.85 15.4 Q-0.8 13.8 -6.65 10.4 -7.55 10.65 -7.05 11.4 -0.7 15.6 6.25 16.3 6.45 15.5 5.85 15.4 Z" fill="none" stroke="#346c81" stroke-linecap="round" stroke-linejoin="round" stroke-width="0.05"/>
    <path d="M-7.95 15.15 Q-8.5 15.25 -8.3 16.05 -2.0 15.0 3.7 10.5 4.15 9.7 3.3 9.5 -1.95 13.2 -7.95 15.15" fill="#9b96cc" fill-rule="evenodd" stroke="none"/>
    <path d="M-7.95 15.15 Q-1.95 13.2 3.3 9.5 4.15 9.7 3.7 10.5 -2.0 15.0 -8.3 16.05 -8.5 15.25 -7.95 15.15 Z" fill="none" stroke="#346c81" stroke-linecap="round" stroke-linejoin="round" stroke-width="0.05"/>
  </g>
</svg>
