<?xml version="1.0" encoding="UTF-8" standalone="no"?>
<svg xmlns:xlink="http://www.w3.org/1999/xlink" height="45.6px" width="22.25px" xmlns="http://www.w3.org/2000/svg">
  <g transform="matrix(1.0, 0.0, 0.0, 1.0, 11.05, 31.05)">
    <path d="M8.35 -8.85 L8.55 -8.45 8.55 -8.2 8.35 -8.85" fill="#828a44" fill-rule="evenodd" stroke="none"/>
    <path d="M4.0 -29.55 L3.9 -28.25 Q3.8 -27.7 2.7 -27.3 L2.5 -27.2 Q1.95 -26.35 2.65 -23.9 L0.05 -24.15 -2.55 -23.85 0.05 -24.15 2.65 -23.9 2.9 -23.0 3.0 -22.65 Q3.0 -22.2 2.15 -21.85 L0.1 -21.5 -1.9 -21.85 Q-2.8 -22.2 -2.8 -22.65 L-2.75 -22.85 -1.9 -23.45 0.1 -23.8 2.15 -23.45 2.9 -23.0 2.15 -23.45 0.1 -23.8 -1.9 -23.45 -2.75 -22.85 -2.55 -23.85 Q-2.2 -26.55 -2.65 -27.2 L-3.0 -27.3 Q-3.9 -27.6 -4.1 -28.05 L-4.15 -28.3 -4.15 -28.35 Q-4.35 -29.55 -4.0 -29.85 -3.8 -30.3 -2.9 -30.6 L0.0 -31.05 2.8 -30.6 Q4.0 -30.2 4.0 -29.55 L3.55 -28.9 4.0 -29.55 M-3.7 -29.0 L-2.9 -28.55 -2.55 -28.45 0.0 -28.1 2.25 -28.35 2.8 -28.55 3.55 -28.9 2.7 -29.35 2.4 -29.45 -0.1 -29.75 -2.4 -29.55 -3.0 -29.35 -3.7 -29.0 Q-4.05 -29.25 -4.05 -29.55 L-4.0 -29.85 -4.05 -29.55 Q-4.05 -29.25 -3.7 -29.0 M2.5 -27.2 L-0.1 -26.85 -2.65 -27.2 -0.1 -26.85 2.5 -27.2" fill="#00ccff" fill-opacity="0.39215687" fill-rule="evenodd" stroke="none"/>
    <path d="M2.65 -23.9 Q5.6 -23.25 5.25 -20.55 L8.35 -8.85 Q7.8 -9.45 5.85 -9.85 L-0.15 -10.45 -6.0 -9.95 Q-7.6 -9.65 -8.2 -9.2 L-5.15 -21.25 Q-5.5 -23.2 -2.55 -23.85 L-2.75 -22.85 -2.8 -22.65 Q-2.8 -22.2 -1.9 -21.85 L0.1 -21.5 2.15 -21.85 Q3.0 -22.2 3.0 -22.65 L2.9 -23.0 2.65 -23.9 M-8.45 -8.25 L-8.6 -8.7 -8.2 -9.2 -8.45 -8.25 M3.55 -28.9 L2.8 -28.55 2.25 -28.35 0.0 -28.1 -2.55 -28.45 -2.9 -28.55 -3.7 -29.0 -3.0 -29.35 -2.4 -29.55 -0.1 -29.75 2.4 -29.45 2.7 -29.35 3.55 -28.9" fill="#00ccff" fill-opacity="0.22352941" fill-rule="evenodd" stroke="none"/>
    <path d="M8.55 -8.2 Q8.25 -7.5 5.95 -7.0 L-0.15 -6.45 Q-3.5 -6.45 -6.1 -7.15 -8.0 -7.7 -8.45 -8.25 L-8.2 -9.2 Q-7.6 -9.65 -6.0 -9.95 L-0.15 -10.45 5.85 -9.85 Q7.8 -9.45 8.35 -8.85 L8.55 -8.2" fill="#fffcd9" fill-rule="evenodd" stroke="none"/>
    <path d="M8.55 -8.2 L10.9 0.75 11.2 3.45 11.2 3.85 11.15 4.1 Q10.95 8.3 7.95 11.3 4.65 14.55 0.05 14.55 -4.55 14.55 -7.8 11.3 -10.8 8.3 -11.05 4.15 L-11.05 3.95 -11.05 3.85 -11.05 3.45 -10.75 0.75 -8.45 -8.25 Q-8.0 -7.7 -6.1 -7.15 -3.5 -6.45 -0.15 -6.45 L5.95 -7.0 Q8.25 -7.5 8.55 -8.2" fill="#feec8b" fill-rule="evenodd" stroke="none"/>
    <path d="M2.65 -23.9 Q5.6 -23.25 5.25 -20.55 L8.35 -8.85 8.55 -8.2 10.9 0.75 11.2 3.45 11.2 3.85 11.2 3.95 11.15 4.1 Q10.95 8.3 7.95 11.3 4.65 14.55 0.05 14.55 -4.55 14.55 -7.8 11.3 -10.8 8.3 -11.05 4.15 L-11.05 3.95 -11.05 3.85 -11.05 3.45 -10.75 0.75 -8.45 -8.25 -8.2 -9.2 -5.15 -21.25 Q-5.5 -23.2 -2.55 -23.85 L0.05 -24.15 2.65 -23.9 M-4.0 -29.85 Q-3.8 -30.3 -2.9 -30.6 L0.0 -31.05 2.8 -30.6 Q4.0 -30.2 4.0 -29.55 L3.55 -28.9 2.8 -28.55 2.25 -28.35 0.0 -28.1 -2.55 -28.45 -2.9 -28.55 -3.7 -29.0 Q-4.05 -29.25 -4.05 -29.55 L-4.0 -29.85 M11.2 3.85 L11.15 4.1" fill="none" stroke="#00ccff" stroke-linecap="round" stroke-linejoin="round" stroke-width="0.05"/>
    <path d="M4.0 -29.55 L3.9 -28.25 Q3.8 -27.7 2.7 -27.3 L2.5 -27.2 Q1.95 -26.35 2.65 -23.9 L2.9 -23.0 2.15 -23.45 0.1 -23.8 -1.9 -23.45 -2.75 -22.85 -2.55 -23.85 Q-2.2 -26.55 -2.65 -27.2 L-3.0 -27.3 Q-3.9 -27.6 -4.1 -28.05 L-4.15 -28.3 -4.15 -28.35 Q-4.35 -29.55 -4.0 -29.85 M3.55 -28.9 L2.7 -29.35 2.4 -29.45 -0.1 -29.75 -2.4 -29.55 -3.0 -29.35 -3.7 -29.0 M-2.75 -22.85 L-2.8 -22.65 Q-2.8 -22.2 -1.9 -21.85 L0.1 -21.5 2.15 -21.85 Q3.0 -22.2 3.0 -22.65 L2.9 -23.0 M-2.65 -27.2 L-0.1 -26.85 2.5 -27.2" fill="none" stroke="#00ccff" stroke-linecap="round" stroke-linejoin="round" stroke-width="0.05"/>
  </g>
</svg>
