<?xml version="1.0" encoding="UTF-8" standalone="no"?>
<svg xmlns:xlink="http://www.w3.org/1999/xlink" height="25.1px" width="46.5px" xmlns="http://www.w3.org/2000/svg">
  <g transform="matrix(1.0, 0.0, 0.0, 1.0, 21.3, 11.6)">
    <path d="M-20.6 6.15 L-20.95 5.7 Q-21.35 5.15 -21.3 4.4 -21.3 3.4 -20.6 2.7 -19.9 2.0 -18.95 2.0 L-18.95 1.85 Q-18.95 0.85 -18.25 0.15 -17.55 -0.6 -16.55 -0.55 L-16.5 -0.55 Q-16.5 -1.3 -16.1 -1.85 L-16.25 -1.95 -16.6 -2.4 Q-17.0 -2.95 -16.95 -3.7 -16.95 -4.7 -16.25 -5.4 -15.55 -6.15 -14.55 -6.1 L-14.05 -6.05 Q-14.05 -7.05 -13.35 -7.7 -12.65 -8.45 -11.65 -8.4 L-11.4 -8.4 -10.85 -9.2 Q-10.15 -9.95 -9.15 -9.9 L-8.15 -9.7 -7.9 -10.0 Q-7.2 -10.75 -6.2 -10.7 L-5.05 -10.45 -5.0 -10.5 Q-4.3 -11.25 -3.3 -11.2 -2.5 -11.25 -1.85 -10.75 L-1.8 -10.8 Q-1.1 -11.55 -0.1 -11.5 0.9 -11.55 1.65 -10.8 L1.85 -10.55 2.15 -10.9 Q2.85 -11.65 3.85 -11.6 4.85 -11.65 5.6 -10.9 L5.6 -10.85 Q6.3 -11.6 7.3 -11.55 8.25 -11.6 8.95 -10.95 9.55 -11.4 10.3 -11.35 11.3 -11.4 12.05 -10.65 L12.35 -10.3 Q12.95 -10.85 13.8 -10.8 14.8 -10.85 15.55 -10.1 L16.0 -9.5 Q16.55 -9.95 17.3 -9.9 18.3 -9.95 19.05 -9.2 L19.5 -8.6 20.2 -8.7 Q21.2 -8.75 21.95 -8.0 22.65 -7.3 22.65 -6.3 L22.65 -5.95 22.75 -5.95 Q23.75 -6.0 24.5 -5.25 25.2 -4.55 25.2 -3.55 25.2 -2.75 24.8 -2.15 L24.5 -1.8 Q23.85 -1.2 23.05 -1.1 L23.1 -0.55 Q23.1 0.25 22.7 0.85 L22.4 1.2 Q21.65 1.9 20.65 1.9 L19.85 1.75 19.45 2.9 19.15 3.25 Q18.4 3.95 17.4 3.95 L16.4 3.75 16.0 4.85 15.7 5.2 Q14.95 5.9 13.95 5.9 L12.85 5.65 12.5 6.45 12.2 6.8 Q11.45 7.5 10.45 7.5 L9.45 7.3 9.2 7.8 8.9 8.15 Q8.15 8.85 7.15 8.85 6.3 8.85 5.7 8.35 L5.4 9.0 5.1 9.35 Q4.35 10.05 3.35 10.05 2.35 10.05 1.65 9.35 L1.35 9.0 1.0 9.75 0.7 10.15 Q-0.1 10.9 -1.2 10.9 -2.3 10.9 -3.1 10.15 L-3.1 10.1 -3.4 10.65 -3.75 11.05 Q-4.6 11.85 -5.8 11.9 -7.0 11.85 -7.85 11.05 L-8.25 10.55 -8.7 9.2 -8.7 9.0 Q-8.7 7.8 -7.85 6.95 -7.0 6.1 -5.8 6.1 -4.6 6.1 -3.75 6.95 L-3.6 7.1 -3.1 6.35 Q-2.3 5.55 -1.2 5.6 -0.1 5.55 0.7 6.35 L1.05 6.85 1.65 5.9 Q2.35 5.15 3.35 5.2 4.2 5.15 4.85 5.65 5.0 5.1 5.45 4.7 6.15 3.95 7.15 4.0 L8.2 4.2 Q8.35 3.7 8.75 3.35 9.45 2.6 10.45 2.65 11.05 2.6 11.6 2.9 11.75 2.25 12.25 1.75 12.95 1.0 13.95 1.05 L15.0 1.25 Q15.05 0.4 15.7 -0.2 16.4 -0.95 17.4 -0.9 L18.25 -0.8 Q18.3 -1.65 18.95 -2.25 19.55 -2.9 20.4 -2.95 20.3 -3.25 20.35 -3.55 L20.35 -3.85 20.2 -3.85 Q19.2 -3.85 18.5 -4.55 L18.15 -5.0 18.05 -5.15 17.3 -5.05 Q16.3 -5.05 15.6 -5.75 L15.25 -6.2 15.15 -6.35 Q14.85 -6.9 14.9 -7.5 14.9 -8.15 15.2 -8.65 L15.45 -9.05 15.5 -9.35 15.25 -9.95 14.65 -10.2 Q14.25 -10.25 14.0 -9.95 13.7 -9.7 13.75 -9.35 13.7 -9.0 14.0 -8.7 14.25 -8.45 14.65 -8.45 L15.2 -8.65 Q14.9 -8.15 14.9 -7.5 14.85 -6.9 15.15 -6.35 L13.8 -5.95 Q12.8 -5.95 12.1 -6.65 L11.8 -7.0 Q11.15 -6.5 10.3 -6.5 9.35 -6.5 8.7 -7.15 L9.05 -7.4 9.35 -7.75 Q9.75 -8.35 9.75 -9.15 9.75 -10.15 9.05 -10.85 L8.95 -10.95 9.05 -10.85 Q9.75 -10.15 9.75 -9.15 9.75 -8.35 9.35 -7.75 L9.05 -7.4 8.7 -7.15 Q8.1 -6.7 7.3 -6.7 6.3 -6.7 5.6 -7.4 L5.6 -7.45 5.9 -7.8 Q6.3 -8.4 6.3 -9.2 6.3 -10.2 5.6 -10.85 6.3 -10.2 6.3 -9.2 6.3 -8.4 5.9 -7.8 L5.6 -7.45 Q4.85 -6.75 3.85 -6.75 2.85 -6.75 2.15 -7.45 L1.95 -7.7 1.65 -7.35 Q0.9 -6.65 -0.1 -6.65 -0.9 -6.65 -1.5 -7.1 L-1.25 -7.4 Q-0.85 -8.0 -0.85 -8.8 -0.85 -9.8 -1.55 -10.5 L-1.85 -10.75 -1.55 -10.5 Q-0.85 -9.8 -0.85 -8.8 -0.85 -8.0 -1.25 -7.4 L-1.5 -7.1 -1.55 -7.05 Q-2.3 -6.35 -3.3 -6.35 L-4.4 -6.6 -4.15 -6.9 Q-3.75 -7.5 -3.75 -8.3 L-3.75 -8.7 Q-3.9 -9.45 -4.45 -10.0 L-5.05 -10.45 -4.45 -10.0 Q-3.9 -9.45 -3.75 -8.7 L-3.75 -8.3 Q-3.75 -7.5 -4.15 -6.9 L-4.4 -6.6 -4.45 -6.55 Q-5.2 -5.85 -6.2 -5.85 L-7.15 -6.05 -7.1 -6.1 Q-6.7 -6.7 -6.7 -7.5 L-6.75 -8.15 -7.4 -9.2 Q-7.75 -9.55 -8.15 -9.7 -7.75 -9.55 -7.4 -9.2 L-6.75 -8.15 -6.7 -7.5 Q-6.7 -6.7 -7.1 -6.1 L-7.15 -6.05 -7.4 -5.75 Q-8.15 -5.05 -9.15 -5.05 L-9.35 -5.05 -9.6 -4.6 -9.9 -4.25 Q-10.65 -3.55 -11.65 -3.55 L-12.1 -3.6 Q-12.1 -2.9 -12.5 -2.35 -13.2 -2.95 -14.1 -2.9 L-14.6 -2.85 Q-15.3 -2.75 -15.8 -2.2 L-16.1 -1.85 -15.8 -2.2 Q-15.3 -2.75 -14.6 -2.85 L-14.1 -2.9 Q-13.2 -2.95 -12.5 -2.35 L-12.35 -2.2 Q-11.65 -1.5 -11.65 -0.5 -11.65 0.3 -12.05 0.9 L-12.35 1.25 Q-13.1 1.9 -14.05 1.95 L-14.1 1.85 -14.1 1.95 Q-14.1 2.65 -14.5 3.25 L-14.8 3.6 Q-15.5 4.25 -16.45 4.3 L-16.45 4.4 -16.55 5.2 Q-17.25 4.5 -18.25 4.55 -19.25 4.5 -19.95 5.25 L-20.55 6.15 -19.95 5.25 Q-19.25 4.5 -18.25 4.55 -17.25 4.5 -16.55 5.2 L-16.5 5.25 Q-15.8 5.95 -15.8 6.95 -15.8 7.7 -16.2 8.3 L-16.2 8.35 -16.5 8.7 Q-17.25 9.4 -18.25 9.4 -19.25 9.4 -19.95 8.7 L-20.3 8.25 Q-20.7 7.7 -20.65 6.95 L-20.55 6.2 -20.55 6.15 -20.6 6.15 M-18.95 2.0 L-18.9 2.0 Q-18.2 1.95 -17.65 2.3 L-17.15 2.7 Q-16.5 3.35 -16.45 4.3 -16.5 3.35 -17.15 2.7 L-17.65 2.3 Q-18.2 1.95 -18.9 2.0 L-18.95 2.0 M-11.55 -7.45 L-11.7 -6.95 -11.6 -6.5 -11.45 -6.3 -11.15 -6.1 -10.8 -6.05 Q-10.45 -6.05 -10.2 -6.3 L-9.95 -6.95 -10.0 -7.2 -10.2 -7.55 Q-10.45 -7.85 -10.8 -7.8 -11.2 -7.85 -11.45 -7.55 L-11.55 -7.45 M-14.05 -6.05 L-13.1 -5.65 -12.8 -5.4 Q-12.1 -4.7 -12.1 -3.7 L-12.1 -3.6 -12.1 -3.7 Q-12.1 -4.7 -12.8 -5.4 L-13.1 -5.65 -14.05 -6.05 M-11.4 -8.4 Q-10.55 -8.35 -9.9 -7.7 L-9.6 -7.35 Q-9.2 -6.75 -9.2 -6.0 L-9.35 -5.05 -9.2 -6.0 Q-9.2 -6.75 -9.6 -7.35 L-9.9 -7.7 Q-10.55 -8.35 -11.4 -8.4 M-13.9 -0.8 Q-13.65 -0.55 -13.25 -0.55 L-12.65 -0.8 Q-12.4 -1.1 -12.4 -1.45 L-12.65 -2.05 -12.7 -2.1 -13.25 -2.3 Q-13.65 -2.35 -13.9 -2.05 L-14.15 -1.45 -14.15 -1.3 -13.9 -0.8 M-13.7 -5.5 L-14.0 -5.45 -14.35 -5.25 -14.6 -4.65 -14.45 -4.1 -14.35 -4.0 Q-14.1 -3.75 -13.7 -3.75 -13.35 -3.75 -13.1 -4.0 L-13.1 -4.05 Q-12.85 -4.3 -12.85 -4.65 -12.85 -5.0 -13.1 -5.25 L-13.35 -5.45 -13.7 -5.5 M-2.05 -10.5 L-2.45 -10.6 -3.1 -10.35 -3.35 -9.75 Q-3.4 -9.4 -3.1 -9.1 -2.85 -8.9 -2.5 -8.85 L-2.45 -8.85 Q-2.1 -8.85 -1.85 -9.1 -1.6 -9.4 -1.6 -9.75 L-1.85 -10.35 -2.05 -10.5 M1.85 -10.55 Q2.35 -9.95 2.35 -9.1 2.35 -8.3 1.95 -7.7 2.35 -8.3 2.35 -9.1 2.35 -9.95 1.85 -10.55 M-4.75 -9.85 L-5.3 -10.1 -5.35 -10.1 Q-5.75 -10.15 -6.0 -9.85 L-6.25 -9.25 -6.0 -8.6 -5.7 -8.4 -5.6 -8.4 -5.35 -8.35 -4.85 -8.5 -4.75 -8.6 -4.5 -9.25 -4.75 -9.85 M-8.3 -9.3 L-8.4 -9.3 -8.95 -9.05 -9.2 -8.45 Q-9.25 -8.1 -8.95 -7.8 L-8.65 -7.65 -8.5 -7.6 -8.3 -7.55 Q-7.95 -7.55 -7.7 -7.8 L-7.6 -7.95 Q-7.45 -8.15 -7.45 -8.45 -7.45 -8.8 -7.7 -9.05 -7.95 -9.35 -8.3 -9.3 M12.35 -10.3 Q12.75 -9.7 12.75 -8.95 12.75 -8.15 12.35 -7.55 L12.05 -7.2 11.8 -7.0 12.05 -7.2 12.35 -7.55 Q12.75 -8.15 12.75 -8.95 12.75 -9.7 12.35 -10.3 M5.4 -10.65 L5.3 -10.75 Q5.05 -11.05 4.7 -11.0 4.3 -11.05 4.05 -10.75 3.75 -10.5 3.8 -10.15 3.75 -9.8 4.05 -9.5 4.3 -9.25 4.7 -9.25 L4.9 -9.3 5.3 -9.5 5.55 -10.15 5.4 -10.65 M7.5 -10.7 Q7.2 -10.45 7.25 -10.1 7.2 -9.75 7.5 -9.45 7.65 -9.3 7.9 -9.25 L8.15 -9.2 8.75 -9.45 9.0 -10.1 8.75 -10.7 8.7 -10.75 8.15 -10.95 Q7.75 -11.0 7.5 -10.7 M-0.15 -10.05 L0.1 -9.4 Q0.35 -9.15 0.75 -9.15 1.1 -9.15 1.35 -9.4 L1.45 -9.55 1.6 -10.05 1.6 -10.1 1.35 -10.65 Q1.1 -10.95 0.75 -10.9 0.35 -10.95 0.1 -10.65 L-0.15 -10.05 M16.0 -9.5 L15.6 -9.2 15.45 -9.05 15.6 -9.2 16.0 -9.5 M18.15 -7.55 L18.0 -7.25 17.8 -6.3 Q17.75 -5.7 18.05 -5.15 17.75 -5.7 17.8 -6.3 L18.0 -7.25 18.15 -7.55 18.5 -8.0 19.0 -8.4 19.0 -8.45 18.75 -9.05 18.15 -9.3 Q17.75 -9.35 17.5 -9.05 17.2 -8.8 17.25 -8.45 17.2 -8.1 17.5 -7.8 17.75 -7.55 18.15 -7.55 M19.5 -8.6 L19.0 -8.4 19.5 -8.6 M10.5 -10.5 Q10.2 -10.25 10.25 -9.9 10.2 -9.55 10.5 -9.25 10.75 -9.0 11.15 -9.0 L11.5 -9.1 11.75 -9.25 12.0 -9.9 12.0 -10.0 11.75 -10.5 11.15 -10.75 Q10.75 -10.8 10.5 -10.5 M22.65 -5.95 Q21.95 -5.95 21.45 -5.55 L21.05 -5.25 Q20.45 -4.7 20.35 -3.85 20.45 -4.7 21.05 -5.25 L21.45 -5.55 Q21.95 -5.95 22.65 -5.95 M18.25 -0.3 L17.6 -0.05 Q17.3 0.2 17.35 0.55 17.3 0.9 17.6 1.2 L17.7 1.3 18.25 1.45 18.85 1.2 18.9 1.1 19.1 0.55 19.1 0.45 18.85 -0.05 Q18.6 -0.35 18.25 -0.3 M19.85 1.75 L19.85 1.5 Q19.85 0.75 19.5 0.2 L19.15 -0.2 Q18.75 -0.6 18.25 -0.8 18.75 -0.6 19.15 -0.2 L19.5 0.2 Q19.85 0.75 19.85 1.5 L19.85 1.75 M16.4 3.75 L16.4 3.45 16.1 2.25 15.7 1.75 Q15.35 1.4 15.0 1.25 15.35 1.4 15.7 1.75 L16.1 2.25 16.4 3.45 16.4 3.75 M23.6 -5.35 Q23.2 -5.4 22.95 -5.1 22.65 -4.85 22.7 -4.5 22.65 -4.15 22.95 -3.85 23.2 -3.6 23.6 -3.6 L24.2 -3.85 24.45 -4.5 24.2 -5.1 23.6 -5.35 M21.05 -8.1 Q20.65 -8.15 20.4 -7.85 20.1 -7.6 20.15 -7.25 20.1 -6.9 20.4 -6.6 20.65 -6.35 21.05 -6.35 21.4 -6.35 21.65 -6.6 L21.9 -7.25 21.65 -7.85 Q21.4 -8.15 21.05 -8.1 M23.05 -1.1 L22.5 -2.15 22.4 -2.25 Q21.65 -3.0 20.65 -2.95 L20.4 -2.95 20.65 -2.95 Q21.65 -3.0 22.4 -2.25 L22.5 -2.15 23.05 -1.1 M15.65 2.5 L15.4 1.9 15.0 1.65 14.8 1.65 Q14.4 1.6 14.15 1.9 13.85 2.15 13.9 2.5 13.85 2.85 14.15 3.15 L14.25 3.25 14.8 3.4 15.4 3.15 15.5 3.0 15.65 2.5 M22.3 -1.8 L22.1 -2.1 Q21.85 -2.4 21.5 -2.35 L20.85 -2.1 20.8 -2.1 Q20.55 -1.85 20.6 -1.5 20.55 -1.15 20.85 -0.85 L20.95 -0.75 21.5 -0.6 Q21.85 -0.6 22.1 -0.85 L22.3 -1.15 22.35 -1.5 22.3 -1.8 M9.45 7.3 L9.6 6.4 Q9.6 5.4 8.9 4.7 L8.2 4.2 8.9 4.7 Q9.6 5.4 9.6 6.4 L9.45 7.3 M12.85 5.65 L12.9 5.05 12.7 4.05 12.2 3.35 11.6 2.9 12.2 3.35 12.7 4.05 12.9 5.05 12.85 5.65 M11.9 3.5 L11.55 3.25 11.3 3.25 Q10.9 3.2 10.65 3.5 10.35 3.75 10.4 4.1 10.35 4.45 10.65 4.75 L10.9 4.9 11.3 5.0 11.9 4.75 12.15 4.3 12.15 4.1 11.9 3.5 M5.7 8.35 L5.8 7.6 5.7 6.95 5.1 5.9 4.85 5.65 5.1 5.9 5.7 6.95 5.8 7.6 5.7 8.35 M8.6 6.1 L8.85 5.45 8.6 4.85 Q8.35 4.6 8.1 4.6 L8.0 4.6 Q7.6 4.55 7.35 4.85 7.05 5.1 7.1 5.45 7.05 5.8 7.35 6.1 L7.6 6.25 8.0 6.35 8.35 6.25 8.6 6.1 M4.8 6.05 L4.75 6.0 4.2 5.8 Q3.8 5.75 3.55 6.05 3.25 6.3 3.3 6.65 3.25 7.0 3.55 7.3 L3.85 7.5 4.2 7.55 4.8 7.3 4.85 7.2 4.9 7.2 5.05 6.65 4.8 6.05 M1.35 9.0 L1.3 8.9 Q0.9 8.35 0.95 7.6 L1.05 6.85 0.95 7.6 Q0.9 8.35 1.3 8.9 L1.35 9.0 M0.35 6.55 Q0.05 6.25 -0.3 6.25 -0.75 6.25 -1.0 6.55 L-1.3 7.25 -1.0 7.9 -0.3 8.2 0.35 7.9 0.65 7.25 0.35 6.55 M-3.1 10.1 L-2.9 9.0 Q-2.9 7.85 -3.6 7.1 -2.9 7.85 -2.9 9.0 L-3.1 10.1 M-5.6 7.1 Q-5.9 7.4 -5.9 7.85 L-5.6 8.6 Q-5.3 8.9 -4.85 8.9 -4.4 8.9 -4.1 8.6 L-3.85 8.25 -3.8 7.85 -3.8 7.7 -4.1 7.1 Q-4.4 6.8 -4.85 6.8 -5.3 6.8 -5.6 7.1 M-14.85 0.9 Q-14.85 0.55 -15.1 0.3 -15.35 0.0 -15.7 0.05 -16.1 0.0 -16.35 0.3 L-16.4 0.3 -16.6 0.9 -16.35 1.55 -16.1 1.7 -15.7 1.8 -15.25 1.65 -15.1 1.55 -14.9 1.3 -14.85 0.9 M-14.1 1.85 L-14.3 0.9 -14.8 0.15 Q-15.55 -0.55 -16.5 -0.55 -15.55 -0.55 -14.8 0.15 L-14.3 0.9 -14.1 1.85 M-17.45 2.85 Q-17.7 2.55 -18.05 2.6 L-18.15 2.6 Q-18.5 2.6 -18.7 2.85 L-18.75 2.9 -18.85 3.0 -18.95 3.45 -18.7 4.1 -18.05 4.35 -17.5 4.1 -17.45 4.1 -17.2 3.45 Q-17.2 3.1 -17.45 2.85 M-17.4 5.15 Q-17.8 5.1 -18.05 5.4 -18.35 5.65 -18.3 6.0 L-18.05 6.65 -18.0 6.7 -17.4 6.9 -16.8 6.65 -16.55 6.0 -16.7 5.5 -16.8 5.4 Q-17.05 5.1 -17.4 5.15" fill="#ffde59" fill-rule="evenodd" stroke="none"/>
    <path d="M-11.55 -7.45 L-11.45 -7.55 Q-11.2 -7.85 -10.8 -7.8 -10.45 -7.85 -10.2 -7.55 L-10.0 -7.2 -9.95 -6.95 -10.2 -6.3 Q-10.45 -6.05 -10.8 -6.05 L-11.15 -6.1 -11.45 -6.3 -11.6 -6.5 -11.7 -6.95 -11.55 -7.45 M-13.7 -5.5 L-13.35 -5.45 -13.1 -5.25 Q-12.85 -5.0 -12.85 -4.65 -12.85 -4.3 -13.1 -4.05 L-13.1 -4.0 Q-13.35 -3.75 -13.7 -3.75 -14.1 -3.75 -14.35 -4.0 L-14.45 -4.1 -14.6 -4.65 -14.35 -5.25 -14.0 -5.45 -13.7 -5.5 M-13.9 -0.8 L-14.15 -1.3 -14.15 -1.45 -13.9 -2.05 Q-13.65 -2.35 -13.25 -2.3 L-12.7 -2.1 -12.65 -2.05 -12.4 -1.45 Q-12.4 -1.1 -12.65 -0.8 L-13.25 -0.55 Q-13.65 -0.55 -13.9 -0.8 M-2.05 -10.5 L-1.85 -10.35 -1.6 -9.75 Q-1.6 -9.4 -1.85 -9.1 -2.1 -8.85 -2.45 -8.85 L-2.5 -8.85 Q-2.85 -8.9 -3.1 -9.1 -3.4 -9.4 -3.35 -9.75 L-3.1 -10.35 -2.45 -10.6 -2.05 -10.5 M-4.75 -9.85 L-4.5 -9.25 -4.75 -8.6 -4.85 -8.5 -5.35 -8.35 -5.6 -8.4 -5.7 -8.4 -6.0 -8.6 -6.25 -9.25 -6.0 -9.85 Q-5.75 -10.15 -5.35 -10.1 L-5.3 -10.1 -4.75 -9.85 M-8.3 -9.3 Q-7.95 -9.35 -7.7 -9.05 -7.45 -8.8 -7.45 -8.45 -7.45 -8.15 -7.6 -7.95 L-7.7 -7.8 Q-7.95 -7.55 -8.3 -7.55 L-8.5 -7.6 -8.65 -7.65 -8.95 -7.8 Q-9.25 -8.1 -9.2 -8.45 L-8.95 -9.05 -8.4 -9.3 -8.3 -9.3 M7.5 -10.7 Q7.75 -11.0 8.15 -10.95 L8.7 -10.75 8.75 -10.7 9.0 -10.1 8.75 -9.45 8.15 -9.2 7.9 -9.25 Q7.65 -9.3 7.5 -9.45 7.2 -9.75 7.25 -10.1 7.2 -10.45 7.5 -10.7 M5.4 -10.65 L5.55 -10.15 5.3 -9.5 4.9 -9.3 4.7 -9.25 Q4.3 -9.25 4.05 -9.5 3.75 -9.8 3.8 -10.15 3.75 -10.5 4.05 -10.75 4.3 -11.05 4.7 -11.0 5.05 -11.05 5.3 -10.75 L5.4 -10.65 M-0.15 -10.05 L0.1 -10.65 Q0.35 -10.95 0.75 -10.9 1.1 -10.95 1.35 -10.65 L1.6 -10.1 1.6 -10.05 1.45 -9.55 1.35 -9.4 Q1.1 -9.15 0.75 -9.15 0.35 -9.15 0.1 -9.4 L-0.15 -10.05 M15.2 -8.65 L14.65 -8.45 Q14.25 -8.45 14.0 -8.7 13.7 -9.0 13.75 -9.35 13.7 -9.7 14.0 -9.95 14.25 -10.25 14.65 -10.2 L15.25 -9.95 15.5 -9.35 15.45 -9.05 15.2 -8.65 M18.15 -7.55 Q17.75 -7.55 17.5 -7.8 17.2 -8.1 17.25 -8.45 17.2 -8.8 17.5 -9.05 17.75 -9.35 18.15 -9.3 L18.75 -9.05 19.0 -8.45 19.0 -8.4 18.5 -8.0 18.15 -7.55 M10.5 -10.5 Q10.75 -10.8 11.15 -10.75 L11.75 -10.5 12.0 -10.0 12.0 -9.9 11.75 -9.25 11.5 -9.1 11.15 -9.0 Q10.75 -9.0 10.5 -9.25 10.2 -9.55 10.25 -9.9 10.2 -10.25 10.5 -10.5 M18.25 -0.3 Q18.6 -0.35 18.85 -0.05 L19.1 0.45 19.1 0.55 18.9 1.1 18.85 1.2 18.25 1.45 17.7 1.3 17.6 1.2 Q17.3 0.9 17.35 0.55 17.3 0.2 17.6 -0.05 L18.25 -0.3 M21.05 -8.1 Q21.4 -8.15 21.65 -7.85 L21.9 -7.25 21.65 -6.6 Q21.4 -6.35 21.05 -6.35 20.65 -6.35 20.4 -6.6 20.1 -6.9 20.15 -7.25 20.1 -7.6 20.4 -7.85 20.65 -8.15 21.05 -8.1 M23.6 -5.35 L24.2 -5.1 24.45 -4.5 24.2 -3.85 23.6 -3.6 Q23.2 -3.6 22.95 -3.85 22.65 -4.15 22.7 -4.5 22.65 -4.85 22.95 -5.1 23.2 -5.4 23.6 -5.35 M22.3 -1.8 L22.35 -1.5 22.3 -1.15 22.1 -0.85 Q21.85 -0.6 21.5 -0.6 L20.95 -0.75 20.85 -0.85 Q20.55 -1.15 20.6 -1.5 20.55 -1.85 20.8 -2.1 L20.85 -2.1 21.5 -2.35 Q21.85 -2.4 22.1 -2.1 L22.3 -1.8 M15.65 2.5 L15.5 3.0 15.4 3.15 14.8 3.4 14.25 3.25 14.15 3.15 Q13.85 2.85 13.9 2.5 13.85 2.15 14.15 1.9 14.4 1.6 14.8 1.65 L15.0 1.65 15.4 1.9 15.65 2.5 M11.9 3.5 L12.15 4.1 12.15 4.3 11.9 4.75 11.3 5.0 10.9 4.9 10.65 4.75 Q10.35 4.45 10.4 4.1 10.35 3.75 10.65 3.5 10.9 3.2 11.3 3.25 L11.55 3.25 11.9 3.5 M4.8 6.05 L5.05 6.65 4.9 7.2 4.85 7.2 4.8 7.3 4.2 7.55 3.85 7.5 3.55 7.3 Q3.25 7.0 3.3 6.65 3.25 6.3 3.55 6.05 3.8 5.75 4.2 5.8 L4.75 6.0 4.8 6.05 M8.6 6.1 L8.35 6.25 8.0 6.35 7.6 6.25 7.35 6.1 Q7.05 5.8 7.1 5.45 7.05 5.1 7.35 4.85 7.6 4.55 8.0 4.6 L8.1 4.6 Q8.35 4.6 8.6 4.85 L8.85 5.45 8.6 6.1 M0.35 6.55 L0.65 7.25 0.35 7.9 -0.3 8.2 -1.0 7.9 -1.3 7.25 -1.0 6.55 Q-0.75 6.25 -0.3 6.25 0.05 6.25 0.35 6.55 M-5.6 7.1 Q-5.3 6.8 -4.85 6.8 -4.4 6.8 -4.1 7.1 L-3.8 7.7 -3.8 7.85 -3.85 8.25 -4.1 8.6 Q-4.4 8.9 -4.85 8.9 -5.3 8.9 -5.6 8.6 L-5.9 7.85 Q-5.9 7.4 -5.6 7.1 M-14.85 0.9 L-14.9 1.3 -15.1 1.55 -15.25 1.65 -15.7 1.8 -16.1 1.7 -16.35 1.55 -16.6 0.9 -16.4 0.3 -16.35 0.3 Q-16.1 0.0 -15.7 0.05 -15.35 0.0 -15.1 0.3 -14.85 0.55 -14.85 0.9 M-17.45 2.85 Q-17.2 3.1 -17.2 3.45 L-17.45 4.1 -17.5 4.1 -18.05 4.35 -18.7 4.1 -18.95 3.45 -18.85 3.0 -18.75 2.9 -18.7 2.85 Q-18.5 2.6 -18.15 2.6 L-18.05 2.6 Q-17.7 2.55 -17.45 2.85 M-17.4 5.15 Q-17.05 5.1 -16.8 5.4 L-16.7 5.5 -16.55 6.0 -16.8 6.65 -17.4 6.9 -18.0 6.7 -18.05 6.65 -18.3 6.0 Q-18.35 5.65 -18.05 5.4 -17.8 5.1 -17.4 5.15" fill="#fff3ce" fill-rule="evenodd" stroke="none"/>
    <path d="M-20.55 6.2 L-20.6 6.15 -20.55 6.15 -20.55 6.2 M-7.1 -6.1 L-7.15 -6.05 -7.1 -6.1 M-14.1 1.85 L-14.05 1.95 -14.1 1.95 -14.1 1.85" fill="#33ffff" fill-rule="evenodd" stroke="none"/>
    <path d="M-20.6 6.15 L-20.95 5.7 Q-21.35 5.15 -21.3 4.4 -21.3 3.4 -20.6 2.7 -19.9 2.0 -18.95 2.0 L-18.95 1.85 Q-18.95 0.85 -18.25 0.15 -17.55 -0.6 -16.55 -0.55 L-16.5 -0.55 Q-16.5 -1.3 -16.1 -1.85 L-16.25 -1.95 -16.6 -2.4 Q-17.0 -2.95 -16.95 -3.7 -16.95 -4.7 -16.25 -5.4 -15.55 -6.15 -14.55 -6.1 L-14.05 -6.05 Q-14.05 -7.05 -13.35 -7.7 -12.65 -8.45 -11.65 -8.4 L-11.4 -8.4 -10.85 -9.2 Q-10.15 -9.95 -9.15 -9.9 L-8.15 -9.7 -7.9 -10.0 Q-7.2 -10.75 -6.2 -10.7 L-5.05 -10.45 -5.0 -10.5 Q-4.3 -11.25 -3.3 -11.2 -2.5 -11.25 -1.85 -10.75 L-1.8 -10.8 Q-1.1 -11.55 -0.1 -11.5 0.9 -11.55 1.65 -10.8 L1.85 -10.55 2.15 -10.9 Q2.85 -11.65 3.85 -11.6 4.85 -11.65 5.6 -10.9 L5.6 -10.85 Q6.3 -11.6 7.3 -11.55 8.25 -11.6 8.95 -10.95 9.55 -11.4 10.3 -11.35 11.3 -11.4 12.05 -10.65 L12.35 -10.3 Q12.95 -10.85 13.8 -10.8 14.8 -10.85 15.55 -10.1 L16.0 -9.5 Q16.55 -9.95 17.3 -9.9 18.3 -9.95 19.05 -9.2 L19.5 -8.6 20.2 -8.7 Q21.2 -8.75 21.95 -8.0 22.65 -7.3 22.65 -6.3 L22.65 -5.95 22.75 -5.95 Q23.75 -6.0 24.5 -5.25 25.2 -4.55 25.2 -3.55 25.2 -2.75 24.8 -2.15 L24.5 -1.8 Q23.85 -1.2 23.05 -1.1 L23.1 -0.55 Q23.1 0.25 22.7 0.85 L22.4 1.2 Q21.65 1.9 20.65 1.9 L19.85 1.75 19.45 2.9 19.15 3.25 Q18.4 3.95 17.4 3.95 L16.4 3.75 16.0 4.85 15.7 5.2 Q14.95 5.9 13.95 5.9 L12.85 5.65 12.5 6.45 12.2 6.8 Q11.45 7.5 10.45 7.5 L9.45 7.3 9.2 7.8 8.9 8.15 Q8.15 8.85 7.15 8.85 6.3 8.85 5.7 8.35 L5.4 9.0 5.1 9.35 Q4.35 10.05 3.35 10.05 2.35 10.05 1.65 9.35 L1.35 9.0 1.0 9.75 0.7 10.15 Q-0.1 10.9 -1.2 10.9 -2.3 10.9 -3.1 10.15 L-3.1 10.1 -3.4 10.65 -3.75 11.05 Q-4.6 11.85 -5.8 11.9 -7.0 11.85 -7.85 11.05 L-8.25 10.55 -8.7 9.2 -15.55 8.5 -16.2 8.3 -16.2 8.35 -16.5 8.7 Q-17.25 9.4 -18.25 9.4 -19.25 9.4 -19.95 8.7 L-20.3 8.25 Q-20.7 7.7 -20.65 6.95 L-20.55 6.2 -20.6 6.15 M-20.55 6.15 L-19.95 5.25 Q-19.25 4.5 -18.25 4.55 -17.25 4.5 -16.55 5.2 L-16.45 4.4 -16.45 4.3 Q-16.5 3.35 -17.15 2.7 L-17.65 2.3 Q-18.2 1.95 -18.9 2.0 L-18.95 2.0 M-16.1 -1.85 L-15.8 -2.2 Q-15.3 -2.75 -14.6 -2.85 L-14.1 -2.9 Q-13.2 -2.95 -12.5 -2.35 -12.1 -2.9 -12.1 -3.6 L-12.1 -3.7 Q-12.1 -4.7 -12.8 -5.4 L-13.1 -5.65 -14.05 -6.05 M-12.1 -3.6 L-11.65 -3.55 Q-10.65 -3.55 -9.9 -4.25 L-9.6 -4.6 -9.35 -5.05 -9.2 -6.0 Q-9.2 -6.75 -9.6 -7.35 L-9.9 -7.7 Q-10.55 -8.35 -11.4 -8.4 M-14.05 1.95 Q-13.1 1.9 -12.35 1.25 L-12.05 0.9 Q-11.65 0.3 -11.65 -0.5 -11.65 -1.5 -12.35 -2.2 L-12.5 -2.35 M-1.85 -10.75 L-1.55 -10.5 Q-0.85 -9.8 -0.85 -8.8 -0.85 -8.0 -1.25 -7.4 L-1.5 -7.1 Q-0.9 -6.65 -0.1 -6.65 0.9 -6.65 1.65 -7.35 L1.95 -7.7 Q2.35 -8.3 2.35 -9.1 2.35 -9.95 1.85 -10.55 M-5.05 -10.45 L-4.45 -10.0 Q-3.9 -9.45 -3.75 -8.7 L-3.75 -8.3 Q-3.75 -7.5 -4.15 -6.9 L-4.4 -6.6 -3.3 -6.35 Q-2.3 -6.35 -1.55 -7.05 L-1.5 -7.1 M-7.15 -6.05 L-6.2 -5.85 Q-5.2 -5.85 -4.45 -6.55 L-4.4 -6.6 M-8.15 -9.7 Q-7.75 -9.55 -7.4 -9.2 L-6.75 -8.15 -6.7 -7.5 Q-6.7 -6.7 -7.1 -6.1 L-7.15 -6.05 -7.4 -5.75 Q-8.15 -5.05 -9.15 -5.05 L-9.35 -5.05 M8.95 -10.95 L9.05 -10.85 Q9.75 -10.15 9.75 -9.15 9.75 -8.35 9.35 -7.75 L9.05 -7.4 8.7 -7.15 Q9.35 -6.5 10.3 -6.5 11.15 -6.5 11.8 -7.0 L12.05 -7.2 12.35 -7.55 Q12.75 -8.15 12.75 -8.95 12.75 -9.7 12.35 -10.3 M5.6 -10.85 Q6.3 -10.2 6.3 -9.2 6.3 -8.4 5.9 -7.8 L5.6 -7.45 5.6 -7.4 Q6.3 -6.7 7.3 -6.7 8.1 -6.7 8.7 -7.15 M1.95 -7.7 L2.15 -7.45 Q2.85 -6.75 3.85 -6.75 4.85 -6.75 5.6 -7.45 M15.2 -8.65 L15.45 -9.05 15.6 -9.2 16.0 -9.5 M15.15 -6.35 L15.25 -6.2 15.6 -5.75 Q16.3 -5.05 17.3 -5.05 L18.05 -5.15 Q17.75 -5.7 17.8 -6.3 L18.0 -7.25 18.15 -7.55 18.5 -8.0 19.0 -8.4 19.5 -8.6 M15.2 -8.65 Q14.9 -8.15 14.9 -7.5 14.85 -6.9 15.15 -6.35 L13.8 -5.95 Q12.8 -5.95 12.1 -6.65 L11.8 -7.0 M18.05 -5.15 L18.15 -5.0 18.5 -4.55 Q19.2 -3.85 20.2 -3.85 L20.35 -3.85 Q20.45 -4.7 21.05 -5.25 L21.45 -5.55 Q21.95 -5.95 22.65 -5.95 M20.4 -2.95 Q19.55 -2.9 18.95 -2.25 18.3 -1.65 18.25 -0.8 18.75 -0.6 19.15 -0.2 L19.5 0.2 Q19.85 0.75 19.85 1.5 L19.85 1.75 M18.25 -0.8 L17.4 -0.9 Q16.4 -0.95 15.7 -0.2 15.05 0.4 15.0 1.25 15.35 1.4 15.7 1.75 L16.1 2.25 16.4 3.45 16.4 3.75 M20.35 -3.85 L20.35 -3.55 Q20.3 -3.25 20.4 -2.95 L20.65 -2.95 Q21.65 -3.0 22.4 -2.25 L22.5 -2.15 23.05 -1.1 M11.6 2.9 Q11.05 2.6 10.45 2.65 9.45 2.6 8.75 3.35 8.35 3.7 8.2 4.2 L8.9 4.7 Q9.6 5.4 9.6 6.4 L9.45 7.3 M15.0 1.25 L13.95 1.05 Q12.95 1.0 12.25 1.75 11.75 2.25 11.6 2.9 L12.2 3.35 12.7 4.05 12.9 5.05 12.85 5.65 M8.2 4.2 L7.15 4.0 Q6.15 3.95 5.45 4.7 5.0 5.1 4.85 5.65 L5.1 5.9 5.7 6.95 5.8 7.6 5.7 8.35 M4.85 5.65 Q4.2 5.15 3.35 5.2 2.35 5.15 1.65 5.9 L1.05 6.85 0.95 7.6 Q0.9 8.35 1.3 8.9 L1.35 9.0 M1.05 6.85 L0.7 6.35 Q-0.1 5.55 -1.2 5.6 -2.3 5.55 -3.1 6.35 L-3.6 7.1 Q-2.9 7.85 -2.9 9.0 L-3.1 10.1 M-3.6 7.1 L-3.75 6.95 Q-4.6 6.1 -5.8 6.1 -7.0 6.1 -7.85 6.95 -8.7 7.8 -8.7 9.0 L-8.7 9.2 M-14.1 1.85 L-14.1 1.95 -14.05 1.95 M-16.5 -0.55 Q-15.55 -0.55 -14.8 0.15 L-14.3 0.9 -14.1 1.85 M-16.45 4.3 Q-15.5 4.25 -14.8 3.6 L-14.5 3.25 Q-14.1 2.65 -14.1 1.95 M-20.55 6.15 L-20.55 6.2 M-16.2 8.3 Q-15.8 7.7 -15.8 6.95 -15.8 5.95 -16.5 5.25 L-16.55 5.2" fill="none" stroke="#e4b001" stroke-linecap="round" stroke-linejoin="round" stroke-width="0.05"/>
    <path d="M-9.05 12.05 Q-10.5 13.45 -12.5 13.5 -14.5 13.45 -15.9 12.05 L-16.6 11.25 Q-17.35 10.1 -17.35 8.65 -17.35 6.6 -15.9 5.2 -14.5 3.75 -12.5 3.8 -10.5 3.75 -9.05 5.2 -7.65 6.6 -7.65 8.65 -7.65 10.15 -8.5 11.4 L-9.05 12.05 M-9.15 6.75 Q-9.15 6.05 -9.65 5.5 -10.2 5.0 -10.9 5.0 -11.6 5.0 -12.15 5.5 -12.65 6.05 -12.65 6.75 -12.65 7.45 -12.15 8.0 -11.6 8.5 -10.9 8.5 -10.2 8.5 -9.65 8.0 -9.15 7.45 -9.15 6.75" fill="#33ffff" fill-rule="evenodd" stroke="none"/>
    <path d="M-9.15 6.75 Q-9.15 7.45 -9.65 8.0 -10.2 8.5 -10.9 8.5 -11.6 8.5 -12.15 8.0 -12.65 7.45 -12.65 6.75 -12.65 6.05 -12.15 5.5 -11.6 5.0 -10.9 5.0 -10.2 5.0 -9.65 5.5 -9.15 6.05 -9.15 6.75" fill="#c1ffff" fill-rule="evenodd" stroke="none"/>
    <path d="M-9.05 12.05 Q-10.5 13.45 -12.5 13.5 -14.5 13.45 -15.9 12.05 L-16.6 11.25 Q-17.35 10.1 -17.35 8.65 -17.35 6.6 -15.9 5.2 -14.5 3.75 -12.5 3.8 -10.5 3.75 -9.05 5.2 -7.65 6.6 -7.65 8.65 -7.65 10.15 -8.5 11.4 L-9.05 12.05 Z" fill="none" stroke="#01a3a2" stroke-linecap="round" stroke-linejoin="round" stroke-width="0.05"/>
  </g>
</svg>
