<?xml version="1.0" encoding="UTF-8" standalone="no"?>
<svg xmlns:xlink="http://www.w3.org/1999/xlink" height="29.1px" width="22.25px" xmlns="http://www.w3.org/2000/svg">
  <g transform="matrix(1.0, 0.0, 0.0, 1.0, 11.05, 14.55)">
    <path d="M-11.05 4.15 L-11.05 3.95 -11.05 3.85 Q-10.9 2.55 -7.8 1.65 -4.55 0.7 0.05 0.7 4.65 0.7 7.95 1.65 11.05 2.55 11.2 3.85 L11.15 4.1 Q11.0 5.35 7.95 6.25 4.65 7.2 0.05 7.2 -4.55 7.2 -7.8 6.25 -10.8 5.35 -11.05 4.15" fill="#828a44" fill-rule="evenodd" stroke="none"/>
    <path d="M11.15 4.1 Q10.95 8.3 7.95 11.3 4.65 14.55 0.05 14.55 -4.55 14.55 -7.8 11.3 -10.8 8.3 -11.05 4.15 -10.8 5.35 -7.8 6.25 -4.55 7.2 0.05 7.2 4.65 7.2 7.95 6.25 11.0 5.35 11.15 4.1" fill="#575c2e" fill-rule="evenodd" stroke="none"/>
    <path d="M3.55 -12.4 L2.7 -12.85 2.4 -12.95 -0.1 -13.25 -2.4 -13.05 -3.0 -12.85 -3.7 -12.5 Q-4.05 -12.75 -4.05 -13.05 L-4.0 -13.35 -4.05 -13.05 Q-4.05 -12.75 -3.7 -12.5 L-2.9 -12.05 -2.55 -11.95 0.0 -11.6 2.25 -11.85 2.8 -12.05 3.55 -12.4 4.0 -13.05 3.55 -12.4 M-4.0 -13.35 Q-3.8 -13.8 -2.9 -14.1 L0.0 -14.55 2.8 -14.1 Q4.0 -13.7 4.0 -13.05 L3.9 -11.75 Q3.8 -11.2 2.7 -10.8 L2.5 -10.7 Q1.95 -9.85 2.65 -7.4 L0.05 -7.65 -2.55 -7.35 0.05 -7.65 2.65 -7.4 2.9 -6.5 3.0 -6.15 Q3.0 -5.7 2.15 -5.35 L0.1 -5.0 -1.9 -5.35 Q-2.8 -5.7 -2.8 -6.15 L-2.75 -6.35 -2.55 -7.35 Q-2.2 -10.05 -2.65 -10.7 L-3.0 -10.8 Q-3.9 -11.1 -4.1 -11.55 L-4.15 -11.8 -4.15 -11.85 Q-4.35 -13.05 -4.0 -13.35 M2.5 -10.7 L-0.1 -10.35 -2.65 -10.7 -0.1 -10.35 2.5 -10.7 M2.9 -6.5 L2.15 -6.95 0.1 -7.3 -1.9 -6.95 -2.75 -6.35 -1.9 -6.95 0.1 -7.3 2.15 -6.95 2.9 -6.5" fill="#00ccff" fill-opacity="0.39215687" fill-rule="evenodd" stroke="none"/>
    <path d="M-3.7 -12.5 L-3.0 -12.85 -2.4 -13.05 -0.1 -13.25 2.4 -12.95 2.7 -12.85 3.55 -12.4 2.8 -12.05 2.25 -11.85 0.0 -11.6 -2.55 -11.95 -2.9 -12.05 -3.7 -12.5 M2.65 -7.4 Q5.6 -6.75 7.95 -4.4 11.2 -1.15 11.2 3.45 L11.2 3.85 Q11.05 2.55 7.95 1.65 4.65 0.7 0.05 0.7 -4.55 0.7 -7.8 1.65 -10.9 2.55 -11.05 3.85 L-11.05 3.45 Q-11.05 -1.15 -7.8 -4.4 -5.5 -6.7 -2.55 -7.35 L-2.75 -6.35 -2.8 -6.15 Q-2.8 -5.7 -1.9 -5.35 L0.1 -5.0 2.15 -5.35 Q3.0 -5.7 3.0 -6.15 L2.9 -6.5 2.65 -7.4" fill="#00ccff" fill-opacity="0.22352941" fill-rule="evenodd" stroke="none"/>
    <path d="M3.55 -12.4 L4.0 -13.05 Q4.0 -13.7 2.8 -14.1 L0.0 -14.55 -2.9 -14.1 Q-3.8 -13.8 -4.0 -13.35 L-4.05 -13.05 Q-4.05 -12.75 -3.7 -12.5 L-2.9 -12.05 -2.55 -11.95 0.0 -11.6 2.25 -11.85 2.8 -12.05 3.55 -12.4 M2.65 -7.4 Q5.6 -6.75 7.95 -4.4 11.2 -1.15 11.2 3.45 L11.2 3.85 11.2 3.95 11.15 4.1 Q10.95 8.3 7.95 11.3 4.65 14.55 0.05 14.55 -4.55 14.55 -7.8 11.3 -10.8 8.3 -11.05 4.15 L-11.05 3.95 -11.05 3.85 -11.05 3.45 Q-11.05 -1.15 -7.8 -4.4 -5.5 -6.7 -2.55 -7.35 L0.05 -7.65 2.65 -7.4 M11.2 3.85 L11.15 4.1" fill="none" stroke="#00ccff" stroke-linecap="round" stroke-linejoin="round" stroke-width="0.05"/>
    <path d="M-3.7 -12.5 L-3.0 -12.85 -2.4 -13.05 -0.1 -13.25 2.4 -12.95 2.7 -12.85 3.55 -12.4 M4.0 -13.05 L3.9 -11.75 Q3.8 -11.2 2.7 -10.8 L2.5 -10.7 Q1.95 -9.85 2.65 -7.4 L2.9 -6.5 3.0 -6.15 Q3.0 -5.7 2.15 -5.35 L0.1 -5.0 -1.9 -5.35 Q-2.8 -5.7 -2.8 -6.15 L-2.75 -6.35 -2.55 -7.35 Q-2.2 -10.05 -2.65 -10.7 L-3.0 -10.8 Q-3.9 -11.1 -4.1 -11.55 L-4.15 -11.8 -4.15 -11.85 Q-4.35 -13.05 -4.0 -13.35 M-2.75 -6.35 L-1.9 -6.95 0.1 -7.3 2.15 -6.95 2.9 -6.5 M-2.65 -10.7 L-0.1 -10.35 2.5 -10.7" fill="none" stroke="#00ccff" stroke-linecap="round" stroke-linejoin="round" stroke-width="0.05"/>
  </g>
</svg>
