<?xml version="1.0" encoding="UTF-8" standalone="no"?>
<svg xmlns:xlink="http://www.w3.org/1999/xlink" height="30.55px" width="40.55px" xmlns="http://www.w3.org/2000/svg">
  <g transform="matrix(1.0, 0.0, 0.0, 1.0, 20.25, 15.25)">
    <path d="M-0.35 -15.25 L3.0 -15.05 8.05 -11.15 12.0 -3.8 7.1 5.2 -4.7 7.15 -8.85 10.9 -13.25 2.55 -13.55 -4.8 -11.35 -8.4 -9.0 -12.3 -11.3 -4.4 -4.25 2.2 5.4 -2.8 5.4 -9.05 6.65 -10.1 -0.35 -15.25" fill="#a8a8a8" fill-rule="evenodd" stroke="none"/>
    <path d="M-0.35 -15.25 L6.65 -10.1 5.4 -9.05 5.4 -2.8 -4.25 2.2 -11.3 -4.4 -9.0 -12.3 -0.35 -15.25" fill="#bebebe" fill-rule="evenodd" stroke="none"/>
    <path d="M14.55 -8.8 L18.25 -1.75 20.3 0.55 19.2 6.55 11.8 11.0 6.0 15.3 -1.0 15.3 -10.8 12.8 -15.5 8.65 -17.55 4.8 -20.25 3.0 -20.25 -0.7 -17.5 -2.2 -16.35 4.25 -10.8 12.8 6.8 13.2 17.8 1.25 14.55 -5.65 14.55 -8.8" fill="#757575" fill-rule="evenodd" stroke="none"/>
    <path d="M-11.35 -8.4 L-13.55 -4.8 -13.25 2.55 -8.85 10.9 -4.7 7.15 7.1 5.2 12.0 -3.8 8.05 -11.15 14.55 -8.85 14.55 -8.8 14.55 -5.65 17.8 1.25 6.8 13.2 -10.8 12.8 -16.35 4.25 -17.5 -2.2 -16.55 -6.1 -11.35 -8.4" fill="#8f8f8f" fill-rule="evenodd" stroke="none"/>
    <path d="M8.05 -11.15 L3.0 -15.05 -0.35 -15.25 -9.0 -12.3 -11.35 -8.4 -13.55 -4.8 M14.55 -8.85 L14.55 -8.8 M-20.25 3.0 L-20.25 -0.7 -17.5 -2.2 -16.55 -6.1 -11.35 -8.4" fill="none" stroke="#cccccc" stroke-linecap="round" stroke-linejoin="round" stroke-width="0.05"/>
    <path d="M8.05 -11.15 L14.55 -8.85 M14.55 -8.8 L18.25 -1.75 20.3 0.55 M-1.0 15.3 L-10.8 12.8 -15.5 8.65 -17.55 4.8 -20.25 3.0" fill="none" stroke="#666666" stroke-linecap="round" stroke-linejoin="round" stroke-width="0.05"/>
    <path d="M20.3 0.55 L19.2 6.55 11.8 11.0 6.0 15.3 -1.0 15.3" fill="none" stroke="#555555" stroke-linecap="round" stroke-linejoin="round" stroke-width="0.05"/>
  </g>
</svg>
