<?xml version="1.0" encoding="UTF-8" standalone="no"?>
<svg xmlns:xlink="http://www.w3.org/1999/xlink" height="49.95px" width="73.75px" xmlns="http://www.w3.org/2000/svg">
  <g transform="matrix(1.0, 0.0, 0.0, 1.0, 33.2, 13.9)">
    <path d="M13.15 -1.1 L12.25 0.2 10.55 0.1 10.55 -1.85 11.65 -2.55 11.75 -1.65 11.9 -1.05 13.15 -1.3 13.15 -1.1 M38.95 15.9 L39.55 17.05 38.5 17.0 37.65 14.65 38.95 15.9 M-16.25 5.75 L-17.45 5.6 -18.4 3.0 -16.85 4.4 -16.25 5.75" fill="#a8a8a8" fill-rule="evenodd" stroke="none"/>
    <path d="M11.75 -1.65 L13.15 -1.4 13.15 -1.3 11.9 -1.05 11.75 -1.65 M24.1 -11.05 L22.95 -9.35 22.15 -9.1 22.35 -9.8 24.1 -11.05 M39.35 14.15 L40.55 15.5 39.55 17.05 38.95 15.9 39.35 14.15 M-0.85 31.75 L-1.1 34.6 -1.9 35.5 -2.2 34.55 -0.85 31.75 M16.1 30.35 L14.35 29.2 16.9 28.6 16.15 30.4 16.1 30.35 M-30.45 -0.75 L-32.15 0.85 -32.3 -0.8 -32.25 -0.8 -30.45 -0.75 M-11.85 -11.8 L-10.7 -13.55 -9.9 -13.75 -10.05 -13.05 -11.85 -11.8 M-16.45 2.4 L-15.05 4.0 -16.25 5.75 -16.85 4.4 -16.45 2.4 M-8.75 11.65 L-9.85 13.35 -10.65 13.6 -10.5 12.85 -8.75 11.65 M-28.5 30.6 L-26.65 32.45 -28.6 32.5 -28.65 32.55 -28.5 30.6" fill="#757575" fill-rule="evenodd" stroke="none"/>
    <path d="M21.2 -10.5 L22.15 -11.2 24.1 -11.05 22.35 -9.8 21.2 -10.5 M-0.85 31.7 L-0.85 31.75 -2.2 34.55 -4.05 34.5 -3.3 33.0 -0.85 31.7 M16.95 31.0 L16.15 30.4 16.9 28.6 16.95 31.0 M-32.15 0.85 L-33.2 -0.9 -32.3 -0.8 -32.15 0.85 M-8.95 -12.35 L-9.9 -11.65 -11.85 -11.8 -10.05 -13.05 -8.95 -12.35 M-11.65 12.15 L-10.7 11.5 -8.7 11.6 -8.75 11.65 -10.5 12.85 -11.65 12.15 M-29.65 32.65 L-28.5 30.6 -28.65 32.55 -29.65 32.65" fill="#bebebe" fill-rule="evenodd" stroke="none"/>
    <path d="M22.15 -9.1 L21.65 -9.0 21.15 -10.5 21.2 -10.5 22.35 -9.8 22.15 -9.1 M39.35 14.15 L38.95 15.9 37.65 14.65 39.35 14.15 M-1.9 35.5 L-2.45 36.05 -4.05 34.6 -4.05 34.5 -2.2 34.55 -1.9 35.5 M16.95 31.0 L15.6 31.3 14.35 29.25 14.35 29.2 16.1 30.35 16.15 30.4 16.95 31.0 M-33.2 -0.9 L-32.25 -1.75 -30.45 -0.8 -30.45 -0.75 -32.25 -0.8 -32.3 -0.8 -33.2 -0.9 M-9.9 -13.75 L-9.35 -13.9 -8.9 -12.35 -8.95 -12.35 -10.05 -13.05 -9.9 -13.75 M-18.4 3.0 L-16.45 2.4 -16.85 4.4 -18.4 3.0 M-10.65 13.6 L-11.2 13.7 -11.65 12.15 -10.5 12.85 -10.65 13.6 M-26.65 32.45 L-28.6 33.55 -29.65 32.65 -28.65 32.55 -28.6 32.5 -26.65 32.45" fill="#8f8f8f" fill-rule="evenodd" stroke="none"/>
    <path d="M13.15 -1.1 L12.25 0.2 10.55 0.1 10.55 -1.85 11.65 -2.55 11.75 -1.65 13.15 -1.4 M24.1 -11.05 L22.95 -9.35 22.15 -9.1 21.65 -9.0 21.15 -10.5 21.2 -10.5 22.15 -11.2 24.1 -11.05 M39.55 17.05 L40.55 15.5 39.35 14.15 37.65 14.65 38.5 17.0 39.55 17.05 M-0.85 31.75 L-1.1 34.6 -1.9 35.5 -2.45 36.05 -4.05 34.6 -4.05 34.5 -3.3 33.0 -0.85 31.7 M14.35 29.2 L14.35 29.25 15.6 31.3 16.95 31.0 16.9 28.6 14.35 29.2 M-33.2 -0.9 L-32.25 -1.75 -30.45 -0.8 -30.45 -0.75 -32.15 0.85 -33.2 -0.9 M-32.3 -0.8 L-32.25 -0.8 M-9.9 -13.75 L-9.35 -13.9 -8.9 -12.35 -8.95 -12.35 -9.9 -11.65 -11.85 -11.8 -10.7 -13.55 -9.9 -13.75 M-16.25 5.75 L-17.45 5.6 -18.4 3.0 -16.45 2.4 -15.05 4.0 -16.25 5.75 M-11.65 12.15 L-10.7 11.5 -8.7 11.6 M-8.75 11.65 L-9.85 13.35 -10.65 13.6 -11.2 13.7 -11.65 12.15 M-26.65 32.45 L-28.6 33.55 -29.65 32.65 -28.5 30.6 -26.65 32.45" fill="none" stroke="#333333" stroke-linecap="round" stroke-linejoin="round" stroke-width="0.05"/>
  </g>
</svg>
