<?xml version="1.0" encoding="UTF-8" standalone="no"?>
<svg xmlns:xlink="http://www.w3.org/1999/xlink" height="42.85px" width="55.45px" xmlns="http://www.w3.org/2000/svg">
  <g transform="matrix(1.0, 0.0, 0.0, 1.0, 25.35, 21.5)">
    <path d="M14.75 -16.85 L14.75 -16.7 15.1 -12.6 Q15.2 -10.35 14.75 -8.2 L15.6 -8.35 15.7 -8.35 20.75 -8.05 20.7 -8.1 Q23.4 -7.7 26.0 -8.55 26.6 -8.75 27.15 -8.55 L27.2 -8.55 Q27.75 -8.4 28.15 -7.9 L28.6 -6.85 28.4 -5.7 28.4 -5.65 Q26.65 -2.5 23.85 -0.45 L26.35 1.2 Q28.2 2.65 29.65 4.45 L29.7 4.45 Q30.15 5.05 30.1 5.85 30.05 6.6 29.5 7.2 28.9 7.7 28.1 7.7 L28.05 7.7 27.9 7.7 26.6 7.7 26.3 7.7 21.5 8.0 21.55 8.0 21.4 8.05 21.45 8.0 Q19.4 8.6 17.55 9.5 L17.5 9.55 Q14.45 10.9 11.3 11.35 L10.3 12.1 10.25 12.1 10.1 12.2 9.25 12.65 9.1 12.75 8.55 14.5 8.45 14.6 7.3 17.45 7.25 17.5 7.25 17.9 7.4 18.3 Q7.8 18.95 7.7 19.7 7.55 20.4 7.0 20.9 L5.65 21.35 Q0.65 21.15 -2.25 17.1 L-2.3 17.0 Q-3.6 15.15 -3.9 12.75 L-5.35 12.05 Q-9.7 9.55 -14.75 9.7 -17.45 10.1 -19.85 11.25 L-21.15 11.45 Q-21.8 11.3 -22.25 10.75 -22.7 10.25 -22.75 9.55 -22.8 8.9 -22.4 8.35 -20.35 5.3 -17.3 3.4 -18.4 2.05 -19.75 0.95 L-19.8 0.85 Q-21.6 -0.75 -23.95 -1.5 -24.75 -1.75 -25.15 -2.5 -25.5 -3.25 -25.25 -4.05 -25.0 -4.85 -24.2 -5.2 -20.7 -6.95 -16.85 -7.55 L-16.9 -7.55 -16.75 -7.6 -16.7 -7.6 -15.25 -7.65 -16.75 -10.3 Q-18.75 -14.55 -17.85 -19.0 -17.75 -19.8 -17.05 -20.25 -16.4 -20.75 -15.6 -20.6 -14.8 -20.5 -14.3 -19.85 L-12.6 -17.85 -12.1 -17.5 -12.0 -17.45 -11.95 -17.45 -9.35 -16.3 Q-6.45 -15.35 -4.1 -13.6 L-4.0 -13.5 -1.15 -11.0 Q1.05 -14.85 4.9 -17.4 8.6 -19.85 12.75 -21.35 L13.95 -21.4 Q14.55 -21.25 15.0 -20.8 L15.45 -19.7 Q15.5 -19.1 15.2 -18.5 14.7 -17.65 14.75 -16.85" fill="#000000" fill-rule="evenodd" stroke="none"/>
    <path d="M12.7 -16.0 L12.9 -15.05 Q13.65 -10.0 11.6 -5.35 L10.1 -4.5 Q8.7 -3.6 7.45 -2.35 10.25 -4.5 12.45 -3.75 8.4 -1.2 8.0 -0.1 12.9 -2.55 17.2 -0.55 12.7 -1.15 7.9 0.95 10.05 1.4 11.15 2.55 8.55 2.55 6.65 4.3 L5.7 5.25 Q6.9 9.35 18.3 4.95 22.45 3.55 27.75 5.7 22.5 5.05 16.5 7.35 13.3 9.05 10.5 9.4 9.3 10.7 7.4 11.05 L7.35 10.35 7.1 9.3 6.95 9.25 Q5.65 9.0 4.5 8.35 3.3 7.75 2.3 6.8 1.85 10.1 2.3 12.6 1.85 10.1 2.3 6.8 3.3 7.75 4.5 8.35 5.65 9.0 6.95 9.25 L7.1 9.3 7.35 10.35 Q5.1 9.85 3.05 8.6 2.15 9.45 2.3 12.6 0.15 11.35 -1.0 7.5 L-1.65 9.25 -2.05 11.3 Q-4.75 10.75 -6.55 9.35 -8.0 9.05 -9.35 8.35 -14.75 6.45 -20.75 9.45 -17.85 5.15 -14.25 4.2 L-13.9 4.6 -13.9 4.65 Q3.8 11.25 -4.35 1.35 L-6.95 -0.1 Q-3.95 1.15 -2.45 0.85 -6.1 -3.5 -10.3 -4.95 -13.1 -7.55 -14.55 -10.2 -9.9 -5.75 -3.15 -1.65 -1.7 -0.4 -1.25 1.2 L-0.95 2.7 -2.45 0.85 -0.95 2.7 Q0.25 -5.6 3.85 -7.8 L2.8 -5.75 Q1.45 -0.45 3.15 0.5 6.8 -1.95 8.9 -5.5 13.25 -8.9 12.7 -16.0 M-2.35 -9.45 L-0.7 -7.25 Q-1.75 -4.05 -1.4 -0.2 -2.7 -4.9 -5.95 -7.6 0.0 -3.7 -2.35 -9.45 M12.45 -3.75 Q7.95 -2.3 3.7 2.1 5.45 -0.5 7.45 -2.35 5.45 -0.5 3.7 2.1 7.95 -2.3 12.45 -3.75 M3.7 2.1 L2.45 4.05 Q1.3 5.05 0.5 4.9 L0.25 4.8 -0.1 4.5 Q-0.6 3.95 -0.95 2.7 -0.6 3.95 -0.1 4.5 L0.25 4.8 0.5 4.9 Q1.3 5.05 2.45 4.05 L3.7 2.1 M10.5 9.4 L7.1 9.3 10.5 9.4 M11.15 2.55 Q6.8 1.9 2.45 4.05 5.2 2.05 7.9 0.95 5.2 2.05 2.45 4.05 6.8 1.9 11.15 2.55 M2.3 6.8 L1.8 6.35 0.5 4.9 1.8 6.35 2.3 6.8 M-1.0 7.5 L0.5 4.9 -1.0 7.5 M-0.1 4.5 L-4.35 1.35 -0.1 4.5 M-6.55 9.35 Q-4.2 9.8 -1.65 9.25 -4.2 9.8 -6.55 9.35 M-13.9 4.65 Q-11.75 7.1 -9.35 8.35 -11.75 7.1 -13.9 4.65 M1.3 2.75 Q1.0 -1.85 2.8 -5.75 1.0 -1.85 1.3 2.75" fill="#623193" fill-rule="evenodd" stroke="none"/>
    <path d="M12.65 -16.45 L12.7 -16.0 Q13.25 -8.9 8.9 -5.5 6.8 -1.95 3.15 0.5 1.45 -0.45 2.8 -5.75 L3.85 -7.8 Q0.25 -5.6 -0.95 2.7 L-1.25 1.2 Q-1.7 -0.4 -3.15 -1.65 -9.9 -5.75 -14.55 -10.2 -16.85 -14.35 -15.9 -18.65 -14.85 -16.2 -11.35 -14.75 -5.95 -13.55 -2.35 -9.45 0.0 -3.7 -5.95 -7.6 -2.7 -4.9 -1.4 -0.2 -1.75 -4.05 -0.7 -7.25 1.9 -15.35 13.25 -19.45 L13.45 -19.5 13.4 -19.45 Q12.6 -18.0 12.65 -16.45 M11.6 -5.35 Q15.65 -7.45 20.35 -6.65 23.6 -5.65 26.6 -6.65 23.25 -1.3 19.05 -0.2 21.4 0.4 23.7 1.75 26.6 3.7 28.0 5.65 L28.1 5.7 28.0 5.7 27.75 5.7 Q22.45 3.55 18.3 4.95 6.9 9.35 5.7 5.25 L6.65 4.3 Q8.55 2.55 11.15 2.55 10.05 1.4 7.9 0.95 12.7 -1.15 17.2 -0.55 12.9 -2.55 8.0 -0.1 8.4 -1.2 12.45 -3.75 10.25 -4.5 7.45 -2.35 8.7 -3.6 10.1 -4.5 L11.6 -5.35 M7.4 11.05 Q7.45 13.8 5.25 16.55 4.5 18.65 5.7 19.35 2.75 19.2 0.35 17.25 -2.2 14.6 -2.05 11.3 L-1.65 9.25 -1.0 7.5 Q0.15 11.35 2.3 12.6 2.15 9.45 3.05 8.6 5.1 9.85 7.35 10.35 L7.4 11.05 M-14.25 4.2 L-14.5 3.9 Q-18.1 -1.65 -23.35 -3.4 -16.3 -7.1 -10.3 -4.95 -6.1 -3.5 -2.45 0.85 -3.95 1.15 -6.95 -0.1 L-4.35 1.35 Q3.8 11.25 -13.9 4.65 L-13.9 4.6 -14.25 4.2 M19.05 -0.2 L17.2 -0.55 19.05 -0.2 M19.1 -5.65 Q15.45 -6.05 13.65 -4.65 21.0 -3.5 24.7 -5.45 L19.1 -5.65 M13.3 2.3 Q20.1 1.75 24.6 4.1 23.25 2.3 20.1 0.9 16.45 0.5 13.3 2.3 M-1.4 -0.2 L-1.4 0.05 -1.25 1.2 -1.4 0.05 -1.4 -0.2 M-7.7 -1.75 Q-9.95 -3.75 -13.45 -4.65 -17.0 -5.65 -22.0 -3.5 -14.05 -4.35 -7.7 -1.75 M-5.5 -9.5 Q-6.55 -11.35 -10.2 -12.45 -12.55 -13.15 -13.9 -14.6 -10.85 -10.15 -5.5 -9.5 M11.55 -17.6 Q5.1 -16.25 1.35 -7.9 8.35 -13.75 11.55 -17.6 M4.2 18.3 Q0.6 16.6 -1.25 11.35 -2.3 16.3 4.2 18.3" fill="#8446c1" fill-rule="evenodd" stroke="none"/>
    <path d="M19.1 -5.65 L24.7 -5.45 Q21.0 -3.5 13.65 -4.65 15.45 -6.05 19.1 -5.65 M13.3 2.3 Q16.45 0.5 20.1 0.9 23.25 2.3 24.6 4.1 20.1 1.75 13.3 2.3 M-5.5 -9.5 Q-10.85 -10.15 -13.9 -14.6 -12.55 -13.15 -10.2 -12.45 -6.55 -11.35 -5.5 -9.5 M-7.7 -1.75 Q-14.05 -4.35 -22.0 -3.5 -17.0 -5.65 -13.45 -4.65 -9.95 -3.75 -7.7 -1.75 M4.2 18.3 Q-2.3 16.3 -1.25 11.35 0.6 16.6 4.2 18.3 M11.55 -17.6 Q8.35 -13.75 1.35 -7.9 5.1 -16.25 11.55 -17.6" fill="#be9ede" fill-rule="evenodd" stroke="none"/>
    <path d="M12.7 -16.0 L12.9 -15.05 Q13.65 -10.0 11.6 -5.35 15.65 -7.45 20.35 -6.65 23.6 -5.65 26.6 -6.65 23.25 -1.3 19.05 -0.2 21.4 0.4 23.7 1.75 26.6 3.7 28.0 5.65 L28.1 5.7 28.0 5.7 27.75 5.7 Q22.5 5.05 16.5 7.35 13.3 9.05 10.5 9.4 9.3 10.7 7.4 11.05 7.45 13.8 5.25 16.55 4.5 18.65 5.7 19.35 2.75 19.2 0.35 17.25 -2.2 14.6 -2.05 11.3 -4.75 10.75 -6.55 9.35 -8.0 9.05 -9.35 8.35 -14.75 6.45 -20.75 9.45 -17.85 5.15 -14.25 4.2 L-14.5 3.9 Q-18.1 -1.65 -23.35 -3.4 -16.3 -7.1 -10.3 -4.95 -13.1 -7.55 -14.55 -10.2 -16.85 -14.35 -15.9 -18.65 -14.85 -16.2 -11.35 -14.75 -5.95 -13.55 -2.35 -9.45 L-0.7 -7.25 Q1.9 -15.35 13.25 -19.45 L13.45 -19.5 13.4 -19.45 Q12.6 -18.0 12.65 -16.45 M3.85 -7.8 L2.8 -5.75 Q1.0 -1.85 1.3 2.75 M17.2 -0.55 L19.05 -0.2 M11.6 -5.35 L10.1 -4.5 Q8.7 -3.6 7.45 -2.35 5.45 -0.5 3.7 2.1 7.95 -2.3 12.45 -3.75 M-0.95 2.7 Q-0.6 3.95 -0.1 4.5 L0.25 4.8 0.5 4.9 Q1.3 5.05 2.45 4.05 L3.7 2.1 M7.35 10.35 L7.1 9.3 6.95 9.25 Q5.65 9.0 4.5 8.35 3.3 7.75 2.3 6.8 1.85 10.1 2.3 12.6 M7.35 10.35 L7.4 11.05 M7.9 0.95 Q5.2 2.05 2.45 4.05 6.8 1.9 11.15 2.55 M7.1 9.3 L10.5 9.4 M17.2 -0.55 Q12.7 -1.15 7.9 0.95 M-5.95 -7.6 Q-2.7 -4.9 -1.4 -0.2 -1.75 -4.05 -0.7 -7.25 M-1.25 1.2 L-1.4 0.05 -1.4 -0.2 M-0.95 2.7 L-1.25 1.2 M-2.45 0.85 L-0.95 2.7 M0.5 4.9 L1.8 6.35 2.3 6.8 M-1.0 7.5 L-1.65 9.25 -2.05 11.3 M-1.65 9.25 Q-4.2 9.8 -6.55 9.35 M-4.35 1.35 L-0.1 4.5 M0.5 4.9 L-1.0 7.5 M-9.35 8.35 Q-11.75 7.1 -13.9 4.65 L-13.9 4.6 -14.25 4.2 M-4.35 1.35 L-6.95 -0.1 M-2.45 0.85 Q-6.1 -3.5 -10.3 -4.95" fill="none" stroke="#9966cc" stroke-linecap="round" stroke-linejoin="round" stroke-width="0.05"/>
  </g>
</svg>
