<?xml version="1.0" encoding="UTF-8" standalone="no"?>
<svg xmlns:xlink="http://www.w3.org/1999/xlink" height="33.4px" width="64.9px" xmlns="http://www.w3.org/2000/svg">
  <g transform="matrix(1.0, 0.0, 0.0, 1.0, 34.95, 17.7)">
    <path d="M5.1 -2.65 L17.5 3.4 Q20.3 0.8 20.4 -2.35 20.5 -5.95 17.0 -8.75 L5.1 -2.65 M-14.65 -12.3 L-2.55 -6.4 9.4 -12.55 Q4.15 -14.2 -2.5 -14.1 -9.25 -14.1 -14.65 -12.3 M-15.75 8.0 Q-10.25 9.85 -3.15 9.8 3.6 9.75 9.05 8.0 L-3.6 1.8 -15.75 8.0 M-26.1 -1.95 Q-26.15 0.1 -25.0 1.95 L-23.1 4.1 -11.3 -1.95 -23.15 -7.75 Q-26.0 -5.15 -26.1 -1.95 M-34.95 -0.75 Q-35.05 2.15 -33.4 4.75 L-32.9 5.45 -30.55 7.9 -27.35 10.1 -25.75 11.0 Q-16.4 15.8 -2.95 15.7 8.5 15.6 17.25 12.0 L20.1 10.65 Q23.2 9.05 25.35 7.25 29.8 3.45 29.95 -1.25 30.1 -7.3 22.9 -11.75 L20.8 -12.95 Q18.05 -14.4 14.95 -15.35 7.45 -17.75 -2.0 -17.7 -12.0 -17.6 -19.85 -14.85 -22.6 -13.9 -25.1 -12.6 L-28.7 -10.45 Q-34.8 -6.2 -34.95 -0.75" fill="url(#gradient0)" fill-rule="evenodd" stroke="none">
      <animate attributeName="d" dur="2s" repeatCount="indefinite" values="M5.1 -2.65 L17.5 3.4 Q20.3 0.8 20.4 -2.35 20.5 -5.95 17.0 -8.75 L5.1 -2.65 M-14.65 -12.3 L-2.55 -6.4 9.4 -12.55 Q4.15 -14.2 -2.5 -14.1 -9.25 -14.1 -14.65 -12.3 M-15.75 8.0 Q-10.25 9.85 -3.15 9.8 3.6 9.75 9.05 8.0 L-3.6 1.8 -15.75 8.0 M-26.1 -1.95 Q-26.15 0.1 -25.0 1.95 L-23.1 4.1 -11.3 -1.95 -23.15 -7.75 Q-26.0 -5.15 -26.1 -1.95 M-34.95 -0.75 Q-35.05 2.15 -33.4 4.75 L-32.9 5.45 -30.55 7.9 -27.35 10.1 -25.75 11.0 Q-16.4 15.8 -2.95 15.7 8.5 15.6 17.25 12.0 L20.1 10.65 Q23.2 9.05 25.35 7.25 29.8 3.45 29.95 -1.25 30.1 -7.3 22.9 -11.75 L20.8 -12.95 Q18.05 -14.4 14.95 -15.35 7.45 -17.75 -2.0 -17.7 -12.0 -17.6 -19.85 -14.85 -22.6 -13.9 -25.1 -12.6 L-28.7 -10.45 Q-34.8 -6.2 -34.95 -0.75;M5.1 -2.65 L17.5 3.4 Q20.3 0.8 20.4 -2.35 20.5 -5.95 17.0 -8.75 L5.1 -2.65 M-14.65 -12.3 L-2.55 -6.4 9.4 -12.55 Q4.15 -14.2 -2.5 -14.1 -9.25 -14.1 -14.65 -12.3 M-15.75 8.0 Q-10.25 9.85 -3.15 9.8 3.6 9.75 9.05 8.0 L-3.6 1.8 -15.75 8.0 M-26.1 -1.95 Q-26.15 0.1 -25.0 1.95 L-23.1 4.1 -11.3 -1.95 -23.15 -7.75 Q-26.0 -5.15 -26.1 -1.95 M-34.95 -0.75 Q-35.05 2.15 -33.4 4.75 L-32.9 5.45 -30.55 7.9 -27.35 10.1 -25.75 11.0 Q-16.4 15.8 -2.95 15.7 8.5 15.6 17.25 12.0 L20.1 10.65 Q23.2 9.05 25.35 7.25 29.8 3.45 29.95 -1.25 30.1 -7.3 22.9 -11.75 L20.8 -12.95 Q18.05 -14.4 14.95 -15.35 7.45 -17.75 -2.0 -17.7 -12.0 -17.6 -19.85 -14.85 -22.6 -13.9 -25.1 -12.6 L-28.7 -10.45 Q-34.8 -6.2 -34.95 -0.75"/>
    </path>
    <path d="M-34.95 -0.75 Q-34.8 -6.2 -28.7 -10.45 L-25.1 -12.6 Q-22.6 -13.9 -19.85 -14.85 -12.0 -17.6 -2.0 -17.7 7.45 -17.75 14.95 -15.35 18.05 -14.4 20.8 -12.95 L22.9 -11.75 Q30.1 -7.3 29.95 -1.25 29.8 3.45 25.35 7.25 23.2 9.05 20.1 10.65 L17.25 12.0 Q8.5 15.6 -2.95 15.7 -16.4 15.8 -25.75 11.0 L-27.35 10.1 -30.55 7.9 -32.9 5.45 -33.4 4.75 Q-35.05 2.15 -34.95 -0.75 M-26.1 -1.95 Q-26.0 -5.15 -23.15 -7.75 L-11.3 -1.95 -23.1 4.1 -25.0 1.95 Q-26.15 0.1 -26.1 -1.95 M-15.75 8.0 L-3.6 1.8 9.05 8.0 Q3.6 9.75 -3.15 9.8 -10.25 9.85 -15.75 8.0 M-14.65 -12.3 Q-9.25 -14.1 -2.5 -14.1 4.15 -14.2 9.4 -12.55 L-2.55 -6.4 -14.65 -12.3 M5.1 -2.65 L17.0 -8.75 Q20.5 -5.95 20.4 -2.35 20.3 0.8 17.5 3.4 L5.1 -2.65" fill="none" stroke="#000000" stroke-linecap="round" stroke-linejoin="round" stroke-opacity="0.0" stroke-width="1.0">
      <animate attributeName="stroke" dur="2s" repeatCount="indefinite" values="#000000;#000001"/>
      <animate attributeName="stroke-width" dur="2s" repeatCount="indefinite" values="0.0;0.0"/>
      <animate attributeName="fill-opacity" dur="2s" repeatCount="indefinite" values="0.0;0.0"/>
      <animate attributeName="d" dur="2s" repeatCount="indefinite" values="M-34.95 -0.75 Q-34.8 -6.2 -28.7 -10.45 L-25.1 -12.6 Q-22.6 -13.9 -19.85 -14.85 -12.0 -17.6 -2.0 -17.7 7.45 -17.75 14.95 -15.35 18.05 -14.4 20.8 -12.95 L22.9 -11.75 Q30.1 -7.3 29.95 -1.25 29.8 3.45 25.35 7.25 23.2 9.05 20.1 10.65 L17.25 12.0 Q8.5 15.6 -2.95 15.7 -16.4 15.8 -25.75 11.0 L-27.35 10.1 -30.55 7.9 -32.9 5.45 -33.4 4.75 Q-35.05 2.15 -34.95 -0.75 M-26.1 -1.95 Q-26.0 -5.15 -23.15 -7.75 L-11.3 -1.95 -23.1 4.1 -25.0 1.95 Q-26.15 0.1 -26.1 -1.95 M-15.75 8.0 L-3.6 1.8 9.05 8.0 Q3.6 9.75 -3.15 9.8 -10.25 9.85 -15.75 8.0 M-14.65 -12.3 Q-9.25 -14.1 -2.5 -14.1 4.15 -14.2 9.4 -12.55 L-2.55 -6.4 -14.65 -12.3 M5.1 -2.65 L17.0 -8.75 Q20.5 -5.95 20.4 -2.35 20.3 0.8 17.5 3.4 L5.1 -2.65;M-34.95 -0.75 Q-34.8 -6.2 -28.7 -10.45 L-25.1 -12.6 Q-22.6 -13.9 -19.85 -14.85 -12.0 -17.6 -2.0 -17.7 7.45 -17.75 14.95 -15.35 18.05 -14.4 20.8 -12.95 L22.9 -11.75 Q30.1 -7.3 29.95 -1.25 29.8 3.45 25.35 7.25 23.2 9.05 20.1 10.65 L17.25 12.0 Q8.5 15.6 -2.95 15.7 -16.4 15.8 -25.75 11.0 L-27.35 10.1 -30.55 7.9 -32.9 5.45 -33.4 4.75 Q-35.05 2.15 -34.95 -0.75 M-26.1 -1.95 Q-26.0 -5.15 -23.15 -7.75 L-11.3 -1.95 -23.1 4.1 -25.0 1.95 Q-26.15 0.1 -26.1 -1.95 M-15.75 8.0 L-3.6 1.8 9.05 8.0 Q3.6 9.75 -3.15 9.8 -10.25 9.85 -15.75 8.0 M-14.65 -12.3 Q-9.25 -14.1 -2.5 -14.1 4.15 -14.2 9.4 -12.55 L-2.55 -6.4 -14.65 -12.3 M5.1 -2.65 L17.0 -8.75 Q20.5 -5.95 20.4 -2.35 20.3 0.8 17.5 3.4 L5.1 -2.65"/>
    </path>
  </g>
  <defs>
    <radialGradient cx="0" cy="0" gradientTransform="matrix(0.0385, 0.0, 0.0, 0.0218, -3.25, -1.7)" gradientUnits="userSpaceOnUse" id="gradient0" r="819.2" spreadMethod="pad">
      <animateTransform additive="replace" attributeName="gradientTransform" dur="2s" from="1" repeatCount="indefinite" to="1" type="scale"/>
      <animateTransform additive="sum" attributeName="gradientTransform" dur="2s" from="-3.25 -1.7" repeatCount="indefinite" to="-3.25 -1.7" type="translate"/>
      <animateTransform additive="sum" attributeName="gradientTransform" dur="2s" from="0.0" repeatCount="indefinite" to="0.0" type="rotate"/>
      <animateTransform additive="sum" attributeName="gradientTransform" dur="2s" from="0.0385 0.0218" repeatCount="indefinite" to="0.0385 0.0218" type="scale"/>
      <animateTransform additive="sum" attributeName="gradientTransform" dur="2s" from="0.0" repeatCount="indefinite" to="0.0" type="skewX"/>
      <stop offset="0.00392156862745098" stop-color="#ffffff">
        <animate attributeName="offset" dur="2s" repeatCount="indefinite" values="0.00392156862745098;0.0"/>
        <animate attributeName="stop-color" dur="2s" repeatCount="indefinite" values="#ffffff;#ffffff"/>
        <animate attributeName="stop-opacity" dur="2s" repeatCount="indefinite" values="1.0;0.0"/>
      </stop>
      <stop offset="0.07058823529411765" stop-color="#ffffff" stop-opacity="0.0">
        <animate attributeName="offset" dur="2s" repeatCount="indefinite" values="0.07058823529411765;0.09411764705882353"/>
        <animate attributeName="stop-color" dur="2s" repeatCount="indefinite" values="#ffffff;#ffffff"/>
        <animate attributeName="stop-opacity" dur="2s" repeatCount="indefinite" values="0.0;1.0"/>
      </stop>
      <stop offset="0.34509803921568627" stop-color="#ffffff">
        <animate attributeName="offset" dur="2s" repeatCount="indefinite" values="0.34509803921568627;0.3607843137254902"/>
        <animate attributeName="stop-color" dur="2s" repeatCount="indefinite" values="#ffffff;#ffffff"/>
        <animate attributeName="stop-opacity" dur="2s" repeatCount="indefinite" values="1.0;0.0"/>
      </stop>
      <stop offset="0.5490196078431373" stop-color="#ffffff" stop-opacity="0.0">
        <animate attributeName="offset" dur="2s" repeatCount="indefinite" values="0.5490196078431373;0.5490196078431373"/>
        <animate attributeName="stop-color" dur="2s" repeatCount="indefinite" values="#ffffff;#ffffff"/>
        <animate attributeName="stop-opacity" dur="2s" repeatCount="indefinite" values="0.0;1.0"/>
      </stop>
      <stop offset="0.6941176470588235" stop-color="#ffffff">
        <animate attributeName="offset" dur="2s" repeatCount="indefinite" values="0.6941176470588235;0.7176470588235294"/>
        <animate attributeName="stop-color" dur="2s" repeatCount="indefinite" values="#ffffff;#ffffff"/>
        <animate attributeName="stop-opacity" dur="2s" repeatCount="indefinite" values="1.0;0.0"/>
      </stop>
      <stop offset="0.9725490196078431" stop-color="#ffffff" stop-opacity="0.0">
        <animate attributeName="offset" dur="2s" repeatCount="indefinite" values="0.9725490196078431;1.0"/>
        <animate attributeName="stop-color" dur="2s" repeatCount="indefinite" values="#ffffff;#ffffff"/>
        <animate attributeName="stop-opacity" dur="2s" repeatCount="indefinite" values="0.0;1.0"/>
      </stop>
    </radialGradient>
  </defs>
</svg>
