<?xml version="1.0" encoding="UTF-8" standalone="no"?>
<svg xmlns:xlink="http://www.w3.org/1999/xlink" height="18.8px" width="18.9px" xmlns="http://www.w3.org/2000/svg">
  <g transform="matrix(1.0, 0.0, 0.0, 1.0, 5.25, 13.75)">
    <path d="M3.45 0.75 Q2.05 0.3 0.25 1.15 1.6 -0.5 3.45 0.75 M-3.3 -1.05 Q-1.85 -1.35 -1.6 0.45 -2.4 -0.9 -3.3 -1.05" fill="#503e53" fill-rule="evenodd" stroke="none"/>
    <path d="M3.45 0.75 Q1.6 -0.5 0.25 1.15 2.05 0.3 3.45 0.75 M-3.3 -1.05 Q-1.85 -1.35 -1.6 0.45 -2.4 -0.9 -3.3 -1.05" fill="none" stroke="#5b4961" stroke-linecap="round" stroke-linejoin="round" stroke-width="0.05"/>
    <path d="M1.95 -9.6 Q2.45 -10.0 1.45 -11.75 5.05 -9.65 5.1 -7.9 L9.6 -8.05 Q8.25 -6.95 8.8 -6.5 L9.55 -6.75 Q8.25 -5.7 8.8 -5.25 L12.35 -5.1 Q11.05 -4.2 11.3 -3.7 L11.45 -3.45 11.6 -3.2 Q11.15 -2.75 11.3 -2.45 L11.45 -2.2 12.7 0.4 11.25 -0.2 Q11.35 2.2 10.3 3.35 10.4 1.95 9.7 1.0 9.35 2.55 8.3 4.05 L7.9 4.5 8.2 3.6 Q8.45 2.55 7.9 1.5 L7.75 1.5 Q6.3 -6.35 -1.35 -6.65 L-2.2 -6.45 -2.6 -6.3 -3.65 -7.05 -2.05 -7.5 -3.3 -8.45 -2.05 -8.75 -2.6 -9.25 Q0.3 -9.4 1.65 -8.2 2.4 -8.35 1.95 -9.6 M6.7 1.75 L6.45 2.15 6.5 1.95 6.7 1.75 M6.45 1.95 Q6.1 3.2 5.95 5.05 L4.6 -0.05 6.45 1.95" fill="#000033" fill-rule="evenodd" stroke="none"/>
    <path d="M-2.6 -9.25 Q-3.85 -10.2 -5.05 -10.2 -0.25 -11.1 1.65 -9.45 L1.95 -9.6 Q2.4 -8.35 1.65 -8.2 0.3 -9.4 -2.6 -9.25 M1.45 -11.75 L0.15 -13.75 Q5.05 -11.2 5.1 -9.15 L10.9 -9.0 9.6 -8.05 5.1 -7.9 Q5.05 -9.65 1.45 -11.75 M9.55 -6.75 Q10.85 -6.95 13.65 -5.9 L12.35 -5.1 8.8 -5.25 Q8.25 -5.7 9.55 -6.75 M11.6 -3.2 Q12.75 -1.1 13.1 0.7 L12.7 0.4 11.45 -2.2 11.3 -2.45 Q11.15 -2.75 11.6 -3.2 M-3.65 -7.05 L-5.25 -7.4 -3.3 -8.45 -2.05 -7.5 -3.65 -7.05" fill="#4a5371" fill-rule="evenodd" stroke="none"/>
    <path d="M7.75 1.5 L7.6 1.45 7.45 1.45 Q7.3 1.45 7.2 1.55 7.0 1.5 6.7 1.75 L6.5 1.95 6.45 1.95 4.6 -0.05 Q2.85 -1.6 -0.1 -2.3 L-1.55 -2.55 Q-3.35 -2.95 -3.7 -1.95 -4.15 -4.5 -3.25 -4.95 -3.15 -5.95 -2.6 -6.3 L-2.2 -6.45 -1.35 -6.65 Q6.3 -6.35 7.75 1.5 M3.05 -2.5 Q5.5 -1.05 7.15 1.5 L7.2 1.55 7.15 1.5 Q5.5 -1.05 3.05 -2.5 M0.6 -4.2 Q-0.7 -4.9 -2.05 -4.95 L-3.25 -4.95 -2.05 -4.95 Q-0.7 -4.9 0.6 -4.2" fill="#96bebe" fill-rule="evenodd" stroke="none"/>
    <path d="M-2.6 -9.25 Q-3.85 -10.2 -5.05 -10.2 -0.25 -11.1 1.65 -9.45 L1.95 -9.6 Q2.45 -10.0 1.45 -11.75 L0.15 -13.75 Q5.05 -11.2 5.1 -9.15 L10.9 -9.0 9.6 -8.05 Q8.25 -6.95 8.8 -6.5 L9.55 -6.75 Q10.85 -6.95 13.65 -5.9 L12.35 -5.1 Q11.05 -4.2 11.3 -3.7 L11.45 -3.45 11.6 -3.2 Q12.75 -1.1 13.1 0.7 L12.7 0.4 11.25 -0.2 Q11.35 2.2 10.3 3.35 10.4 1.95 9.7 1.0 9.35 2.55 8.3 4.05 L7.9 4.5 8.2 3.6 Q8.45 2.55 7.9 1.5 L7.75 1.5 M6.7 1.75 L6.45 2.15 6.5 1.95 M-2.6 -6.3 L-3.65 -7.05 -5.25 -7.4 -3.3 -8.45 -2.05 -8.75 -2.6 -9.25" fill="none" stroke="#584338" stroke-linecap="round" stroke-linejoin="round" stroke-width="0.05"/>
    <path d="M7.75 1.5 L7.6 1.45 7.45 1.45 Q7.3 1.45 7.2 1.55 7.0 1.5 6.7 1.75 L6.5 1.95 6.45 1.95 4.6 -0.05 Q2.85 -1.6 -0.1 -2.3 L-1.55 -2.55 Q-3.35 -2.95 -3.7 -1.95 -4.15 -4.5 -3.25 -4.95 -3.15 -5.95 -2.6 -6.3 L-2.2 -6.45 -1.35 -6.65 Q6.3 -6.35 7.75 1.5 M7.2 1.55 L7.15 1.5 Q5.5 -1.05 3.05 -2.5 M-3.25 -4.95 L-2.05 -4.95 Q-0.7 -4.9 0.6 -4.2" fill="none" stroke="#548584" stroke-linecap="round" stroke-linejoin="round" stroke-width="0.05"/>
    <path d="M6.45 1.95 Q6.1 3.2 5.95 5.05 L4.6 -0.05" fill="none" stroke="#7b5046" stroke-linecap="round" stroke-linejoin="round" stroke-width="0.05"/>
  </g>
</svg>
