<?xml version="1.0" encoding="UTF-8" standalone="no"?>
<svg xmlns:xlink="http://www.w3.org/1999/xlink" height="22.7px" width="7.75px" xmlns="http://www.w3.org/2000/svg">
  <g transform="matrix(1.0, 0.0, 0.0, 1.0, 7.65, 1.0)">
    <path d="M-2.35 -0.9 L-2.3 -0.85 Q-1.65 -0.2 -1.15 3.6 L-1.15 3.65 -0.9 5.2 -0.75 6.25 -0.7 6.85 -0.55 8.15 -0.55 8.3 -1.4 8.65 -1.5 8.3 -1.6 8.1 -1.85 7.45 -2.1 6.9 -2.3 6.5 -3.15 5.2 -3.2 5.1 Q-4.1 3.85 -5.05 3.9 L-5.65 4.05 -6.35 4.9 -6.4 4.9 -7.25 7.1 -7.35 6.5 Q-7.85 3.1 -7.55 1.3 L-7.6 1.3 -6.9 0.25 Q-5.85 -0.8 -3.45 -0.95 L-2.55 -1.0 -2.35 -0.9 M-0.3 11.45 L-0.2 12.8 -0.5 11.45 -0.3 11.45" fill="#333333" fill-rule="evenodd" stroke="none"/>
    <path d="M-0.2 12.8 L0.1 20.6 Q-2.25 22.5 -4.1 21.1 -5.85 16.65 -6.7 11.35 -3.7 13.45 -0.5 11.45 L-0.2 12.8 M-7.1 8.5 L-7.15 8.1 -7.2 7.85 -7.25 7.25 -7.25 7.1 -6.4 4.9 -6.35 4.9 -5.65 4.05 -5.05 3.9 Q-4.1 3.85 -3.2 5.1 L-3.15 5.2 -2.3 6.5 -2.1 6.9 -1.85 7.45 -1.6 8.1 -1.5 8.3 -1.4 8.65 -7.1 8.5" fill="#666666" fill-rule="evenodd" stroke="none"/>
    <path d="M-0.55 8.3 L-0.4 9.55 -0.3 11.45 -0.5 11.45 -1.2 9.2 -1.4 8.65 -0.55 8.3 M-7.25 7.25 L-7.25 7.1 -7.25 7.25" fill="#fec4a5" fill-rule="evenodd" stroke="none"/>
    <path d="M-6.7 11.35 L-7.05 9.2 -7.1 8.5 -1.4 8.65 -1.2 9.2 -0.5 11.45 Q-3.7 13.45 -6.7 11.35" fill="#ffdfc8" fill-rule="evenodd" stroke="none"/>
    <path d="M-2.35 -0.9 L-2.3 -0.85 Q-1.65 -0.2 -1.15 3.6 L-1.15 3.65 -0.9 5.2 -0.75 6.25 -0.7 6.85 -0.55 8.15 -0.55 8.3 M-0.3 11.45 L-0.2 12.8 0.1 20.6 M-4.1 21.1 Q-5.85 16.65 -6.7 11.35 M-7.1 8.5 L-7.15 8.1 -7.2 7.85 -7.25 7.25 M-7.25 7.1 L-7.35 6.5 Q-7.85 3.1 -7.55 1.3 L-7.6 1.3 M-1.4 8.65 L-7.1 8.5" fill="none" stroke="#272727" stroke-linecap="round" stroke-linejoin="round" stroke-width="0.05"/>
    <path d="M-7.25 7.25 L-7.25 7.1" fill="none" stroke="#272727" stroke-linecap="round" stroke-linejoin="round" stroke-width="0.05"/>
    <path d="M-0.55 8.3 L-0.4 9.55 -0.3 11.45 M-6.7 11.35 L-7.05 9.2 -7.1 8.5" fill="none" stroke="#d7995e" stroke-linecap="round" stroke-linejoin="round" stroke-width="0.05"/>
    <path d="M-0.55 8.3 L-1.4 8.65" fill="none" stroke="#a0a0a0" stroke-linecap="round" stroke-linejoin="round" stroke-width="0.05"/>
  </g>
</svg>
