<?xml version="1.0" encoding="UTF-8" standalone="no"?>
<svg xmlns:xlink="http://www.w3.org/1999/xlink" height="31.1px" width="20.85px" xmlns="http://www.w3.org/2000/svg">
  <g transform="matrix(1.0, 0.0, 0.0, 1.0, 11.05, 13.15)">
    <path d="M-5.25 -8.75 L-5.25 -8.65 -6.25 -8.0 -6.3 -8.65 -5.25 -8.75" fill="#ffd0ae" fill-rule="evenodd" stroke="none"/>
    <path d="M0.45 -7.3 Q1.7 -8.15 2.35 -8.25 L2.5 -7.65 2.95 -7.5 3.0 -7.45 0.45 -7.3 M-5.25 -8.65 L-5.35 -7.9 -5.35 -7.85 -5.35 -7.8 -5.25 -7.65 -4.85 -6.95 -6.2 -6.85 -6.25 -8.0 -5.25 -8.65" fill="#ffdfc8" fill-rule="evenodd" stroke="none"/>
    <path d="M-5.2 -8.75 L-5.25 -8.65 -5.25 -8.75 -5.2 -8.75" fill="#eebf5a" fill-rule="evenodd" stroke="none"/>
    <path d="M2.35 -8.25 Q1.7 -8.15 0.45 -7.3 L-4.85 -6.95 -5.25 -7.65 -5.35 -7.8 -5.35 -7.85 -5.35 -7.9 -5.25 -8.65 -5.2 -8.75 Q-4.85 -11.05 -5.3 -12.75 -0.7 -13.6 2.4 -12.7 L2.2 -11.3 2.2 -11.05 Q2.1 -9.6 2.35 -8.25" fill="#eeba95" fill-rule="evenodd" stroke="none"/>
    <path d="M2.95 -7.5 L2.5 -7.65 2.35 -8.25 Q2.1 -9.6 2.2 -11.05 L2.2 -11.3 2.4 -12.7 Q-0.7 -13.6 -5.3 -12.75 -4.85 -11.05 -5.2 -8.75 L-5.25 -8.65 -5.35 -7.9 -5.35 -7.85 -5.35 -7.8 M-5.25 -8.75 L-5.2 -8.75 M-6.3 -8.65 L-5.25 -8.75" fill="none" stroke="#674743" stroke-linecap="round" stroke-linejoin="round" stroke-width="0.05"/>
    <path d="M0.0 8.9 L0.05 8.9 0.0 8.9" fill="#ffffff" fill-rule="evenodd" stroke="none"/>
    <path d="M-7.65 -8.45 L-7.6 -8.45 -7.65 -8.4 -7.65 -8.45 M3.0 -5.35 L3.0 -5.3 2.95 -5.35 3.0 -5.35" fill="#c1a49d" fill-rule="evenodd" stroke="none"/>
    <path d="M3.0 -5.35 L2.95 -5.35 3.0 -5.35" fill="#b48f87" fill-rule="evenodd" stroke="none"/>
    <path d="M8.15 6.85 L7.3 8.75 7.3 12.25 6.25 13.8 Q5.55 14.35 4.2 14.7 4.85 14.2 5.25 13.1 L4.65 10.0 Q5.85 8.2 6.6 6.1 7.0 6.6 8.15 6.85 M-7.45 -9.95 Q-7.45 -10.45 -5.75 -10.9 L-5.05 -11.05 Q-4.9 -9.5 -5.15 -9.15 L-5.65 -9.2 Q-7.4 -9.45 -7.45 -9.95 M2.05 -9.6 L2.15 -11.5 2.55 -11.45 Q4.3 -11.2 4.3 -10.7 4.35 -10.2 2.65 -9.75 L2.05 -9.6 M4.9 -6.6 L5.4 -6.4 4.75 -4.7 3.0 -5.35 2.95 -5.35 4.9 -6.6" fill="#2f2e4b" fill-rule="evenodd" stroke="none"/>
    <path d="M-8.55 14.95 L-9.6 13.35 Q-10.95 11.2 -11.05 9.2 -11.1 7.15 -9.65 1.75 L-9.5 1.55 -9.8 -1.25 Q-9.95 -4.3 -9.35 -6.55 L-8.65 -8.2 -8.6 -8.2 -7.8 -8.4 -7.7 -8.4 -7.65 -8.45 -7.65 -8.4 -7.6 -8.45 Q-8.8 -3.7 -5.0 -2.0 L-4.8 -1.9 Q-0.4 -1.2 3.0 -5.3 -0.4 -1.2 -4.8 -1.9 L-5.0 -2.0 Q-8.8 -3.7 -7.6 -8.45 L-7.6 -8.5 -7.7 -8.85 -7.45 -9.95 Q-7.4 -9.45 -5.65 -9.2 L-5.15 -9.15 Q-3.6 -9.0 -1.45 -9.15 L2.05 -9.6 2.65 -9.75 Q4.35 -10.2 4.3 -10.7 5.4 -8.5 5.05 -6.7 L4.95 -6.65 4.9 -6.6 2.95 -5.35 3.0 -5.3 3.0 -5.35 4.75 -4.7 4.7 -4.4 Q4.2 -2.6 4.3 -0.4 4.45 2.9 5.85 5.15 L6.15 5.55 6.6 6.1 Q5.85 8.2 4.65 10.0 L5.25 13.1 Q4.85 14.2 4.2 14.7 L3.9 14.75 3.8 14.8 1.3 15.05 0.85 15.4 Q-0.95 16.55 -3.15 16.7 L-4.5 16.65 Q-6.8 16.45 -8.55 14.85 L-8.55 14.95 M0.0 8.9 L0.05 8.9 0.0 8.9 M1.4 -6.75 Q-3.2 -4.55 -5.4 -4.95 -7.65 -5.4 -7.6 -8.45 -7.65 -5.4 -5.4 -4.95 -3.2 -4.55 1.4 -6.75 M-8.9 0.8 L-9.5 1.55 -8.9 0.8" fill="#43446b" fill-rule="evenodd" stroke="none"/>
    <path d="M6.25 13.8 Q7.25 14.8 6.8 16.2 3.85 17.95 -1.05 17.95 L-2.25 17.9 -4.2 17.55 -4.5 16.65 -3.15 16.7 Q-0.95 16.55 0.85 15.4 L1.3 15.05 3.8 14.8 3.9 14.75 4.2 14.7 Q5.55 14.35 6.25 13.8" fill="#c5afa0" fill-rule="evenodd" stroke="none"/>
    <path d="M-4.2 17.55 Q-6.15 17.1 -7.35 16.35 L-8.45 15.4 -8.55 14.95 -8.55 14.85 Q-6.8 16.45 -4.5 16.65 L-4.2 17.55" fill="#d2c0b7" fill-rule="evenodd" stroke="none"/>
    <path d="M5.4 -6.4 L5.55 -6.35 5.95 -6.1 7.3 -5.3 Q10.0 -3.9 9.75 -2.7 L9.8 -1.9 9.7 0.05 9.7 0.2 9.65 0.8 9.25 3.1 8.15 6.85 Q7.0 6.6 6.6 6.1 L6.15 5.55 5.85 5.15 Q4.45 2.9 4.3 -0.4 4.2 -2.6 4.7 -4.4 L4.75 -4.7 5.4 -6.4" fill="#eeba95" fill-rule="evenodd" stroke="none"/>
    <path d="M-9.65 1.75 L-9.7 1.65 Q-11.05 -0.6 -10.85 -3.0 L-10.45 -5.15 -9.1 -7.8 -9.1 -7.85 -9.0 -8.0 -8.95 -8.1 -8.9 -8.1 -8.85 -8.15 -8.65 -8.2 -9.35 -6.55 Q-9.95 -4.3 -9.8 -1.25 L-9.5 1.55 -9.65 1.75" fill="#f2ccb0" fill-rule="evenodd" stroke="none"/>
    <path d="M-7.65 -8.45 L-7.6 -8.45 -7.6 -8.5 M-7.45 -9.95 Q-7.45 -10.45 -5.75 -10.9 L-5.05 -11.05 M2.15 -11.5 L2.55 -11.45 Q4.3 -11.2 4.3 -10.7" fill="none" stroke="#bc9898" stroke-linecap="round" stroke-linejoin="round" stroke-width="0.05"/>
    <path d="M5.4 -6.4 L5.55 -6.35 5.95 -6.1 7.3 -5.3 Q10.0 -3.9 9.75 -2.7 L9.8 -1.9 9.7 0.05 9.7 0.2 9.65 0.8 9.25 3.1 8.15 6.85 M-9.65 1.75 L-9.7 1.65 Q-11.05 -0.6 -10.85 -3.0 M-8.95 -8.1 L-8.9 -8.1 -8.85 -8.15 -8.65 -8.2" fill="none" stroke="#d7995e" stroke-linecap="round" stroke-linejoin="round" stroke-width="0.05"/>
    <path d="M-7.6 -8.5 L-7.7 -8.85 -7.45 -9.95 Q-7.4 -9.45 -5.65 -9.2 L-5.15 -9.15 Q-3.6 -9.0 -1.45 -9.15 L2.05 -9.6 2.65 -9.75 Q4.35 -10.2 4.3 -10.7 5.4 -8.5 5.05 -6.7 L4.95 -6.65 4.9 -6.6 2.95 -5.35 M3.0 -5.3 Q-0.4 -1.2 -4.8 -1.9 L-5.0 -2.0 Q-8.8 -3.7 -7.6 -8.45 -7.65 -5.4 -5.4 -4.95 -3.2 -4.55 1.4 -6.75 M-7.6 -8.5 L-7.6 -8.45" fill="none" stroke="#a2a5c4" stroke-linecap="round" stroke-linejoin="round" stroke-width="0.05"/>
    <path d="M-8.65 -8.2 L-8.6 -8.2 -7.8 -8.4 -7.7 -8.4 -7.65 -8.45 -7.65 -8.4 -7.6 -8.45 M5.4 -6.4 L4.75 -4.7 4.7 -4.4 Q4.2 -2.6 4.3 -0.4 4.45 2.9 5.85 5.15 L6.15 5.55 6.6 6.1 Q7.0 6.6 8.15 6.85 M3.0 -5.3 L3.0 -5.35 M-9.5 1.55 L-9.8 -1.25 Q-9.95 -4.3 -9.35 -6.55 L-8.65 -8.2" fill="none" stroke="#2f314a" stroke-linecap="round" stroke-linejoin="round" stroke-width="0.05"/>
    <path d="M8.15 6.85 L7.3 8.75 7.3 12.25 6.25 13.8 M4.9 -6.6 L5.4 -6.4" fill="none" stroke="#2f314a" stroke-linecap="round" stroke-linejoin="round" stroke-width="0.05"/>
    <path d="M6.25 13.8 Q7.25 14.8 6.8 16.2 3.85 17.95 -1.05 17.95 L-2.25 17.9 -4.2 17.55 Q-6.15 17.1 -7.35 16.35 L-8.45 15.4 -8.55 14.95 M4.2 14.7 Q5.55 14.35 6.25 13.8 M4.2 14.7 L3.9 14.75 3.8 14.8 1.3 15.05" fill="none" stroke="#594337" stroke-linecap="round" stroke-linejoin="round" stroke-width="0.05"/>
    <path d="M-8.55 14.95 L-9.6 13.35 Q-10.95 11.2 -11.05 9.2 -11.1 7.15 -9.65 1.75 L-9.5 1.55 -8.9 0.8 M1.3 15.05 L0.85 15.4 Q-0.95 16.55 -3.15 16.7 L-4.5 16.65 Q-6.8 16.45 -8.55 14.85 L-8.55 14.95" fill="none" stroke="#2f314a" stroke-linecap="round" stroke-linejoin="round" stroke-width="0.05"/>
  </g>
</svg>
