<?xml version="1.0" encoding="UTF-8" standalone="no"?>
<svg xmlns:xlink="http://www.w3.org/1999/xlink" height="31.45px" width="20.7px" xmlns="http://www.w3.org/2000/svg">
  <g transform="matrix(1.0, 0.0, 0.0, 1.0, 10.9, 13.15)">
    <path d="M2.35 -8.25 Q1.7 -8.15 0.45 -7.3 L-4.85 -6.95 -5.25 -7.65 -5.35 -7.8 -5.35 -7.85 -5.35 -7.9 -5.25 -8.65 -6.25 -8.0 -7.45 -8.45 -7.6 -8.5 -5.25 -8.75 -5.25 -8.65 -5.2 -8.75 Q-4.85 -11.05 -5.3 -12.75 -0.7 -13.6 2.4 -12.7 L2.2 -11.3 2.2 -11.05 Q2.1 -9.6 2.35 -8.25" fill="#ffd0ae" fill-rule="evenodd" stroke="none"/>
    <path d="M2.35 -8.25 L2.5 -7.65 2.95 -7.45 3.5 -7.25 4.8 -6.65 Q5.9 2.75 -7.55 0.0 -9.85 -4.75 -7.45 -8.45 L-6.25 -8.0 -5.25 -8.65 -5.35 -7.9 -5.35 -7.85 -5.35 -7.8 -5.25 -7.65 -4.85 -6.95 0.45 -7.3 Q1.7 -8.15 2.35 -8.25" fill="#ffdfc8" fill-rule="evenodd" stroke="none"/>
    <path d="M-5.2 -8.75 L-5.25 -8.65 -5.25 -8.75 -5.2 -8.75" fill="#eebf5a" fill-rule="evenodd" stroke="none"/>
    <path d="M4.8 -6.65 L3.5 -7.25 2.95 -7.45 2.5 -7.65 2.35 -8.25 Q2.1 -9.6 2.2 -11.05 L2.2 -11.3 2.4 -12.7 Q-0.7 -13.6 -5.3 -12.75 -4.85 -11.05 -5.2 -8.75 L-5.25 -8.65 -5.35 -7.9 -5.35 -7.85 -5.35 -7.8 M-5.25 -8.75 L-7.6 -8.5 M-5.2 -8.75 L-5.25 -8.75" fill="none" stroke="#674743" stroke-linecap="round" stroke-linejoin="round" stroke-width="0.05"/>
    <path d="M4.2 14.7 Q5.55 14.35 6.25 13.8 7.25 14.8 6.8 16.2 3.85 17.95 -1.05 17.95 L-2.0 17.9 -2.1 15.05 -1.35 15.1 -1.1 15.1 3.8 14.8 3.9 14.75 4.2 14.7" fill="#684942" fill-rule="evenodd" stroke="none"/>
    <path d="M-8.1 12.3 L-8.0 12.5 -7.95 12.65 -7.5 13.2 -7.3 13.4 -5.9 14.25 -5.8 17.1 -7.35 16.35 -8.45 15.4 Q-8.9 13.75 -8.3 12.65 L-8.25 12.5 -8.1 12.3" fill="#956c5e" fill-rule="evenodd" stroke="none"/>
    <path d="M1.6 -5.4 L1.6 -5.35 1.55 -5.35 1.6 -5.4" fill="#b48f87" fill-rule="evenodd" stroke="none"/>
    <path d="M-5.9 14.25 L-5.95 13.9 -2.15 14.5 -2.1 15.05 -2.0 17.9 -2.0 18.3 -5.8 17.75 -5.8 17.1 -5.9 14.25" fill="#cccccc" fill-rule="evenodd" stroke="none"/>
    <path d="M1.6 -5.4 L1.55 -5.35 1.6 -5.35 3.55 -5.15 5.15 -4.55 5.25 -4.45 6.55 -3.7 6.75 -3.55 7.7 -2.3 7.7 -1.85 7.75 -1.05 7.65 0.9 7.45 2.65 -8.4 3.7 -8.35 3.5 -8.6 3.2 -9.45 2.0 -9.7 1.65 Q-11.05 -0.6 -10.85 -3.0 L-10.45 -5.15 -10.4 -5.2 -9.2 -8.0 -8.15 -8.4 -6.1 -8.65 Q-6.3 -6.2 -5.0 -3.7 L-5.0 -1.6 -3.9 -1.1 -3.35 -3.05 Q-0.55 -3.65 1.6 -5.4 M4.7 9.95 L4.65 10.0 5.25 13.1 Q4.85 14.2 4.2 14.7 L3.9 14.75 3.8 14.8 -1.1 15.1 -1.35 15.1 -2.1 15.05 -2.15 14.5 -5.95 13.9 -5.9 14.25 -7.3 13.4 -7.5 13.2 -7.95 12.65 -8.0 12.5 -8.1 12.3 Q-8.7 11.75 -8.95 10.85 L4.7 9.95" fill="#deddb1" fill-rule="evenodd" stroke="none"/>
    <path d="M1.6 -5.35 L1.6 -5.4 Q2.65 -6.25 3.5 -7.25 5.9 -6.9 8.3 -4.75 L8.75 -4.4 Q9.9 -3.5 9.75 -2.7 L9.8 -1.9 9.7 0.05 9.7 0.2 9.65 0.8 9.25 3.1 9.05 4.05 8.95 2.55 7.45 2.65 7.65 0.9 7.75 -1.05 7.7 -1.85 7.7 -2.3 6.75 -3.55 6.55 -3.7 5.25 -4.45 5.15 -4.55 3.55 -5.15 1.6 -5.35 M4.2 14.7 Q4.85 14.2 5.25 13.1 L4.65 10.0 4.7 9.95 7.3 9.8 7.3 12.8 6.25 13.8 Q5.55 14.35 4.2 14.7" fill="#c9c97e" fill-rule="evenodd" stroke="none"/>
    <path d="M-8.1 12.3 L-8.0 12.5 -7.95 12.65 -7.5 13.2 -7.3 13.4 -5.9 14.25 M-2.1 15.05 L-1.35 15.1 -1.1 15.1 3.8 14.8 3.9 14.75" fill="none" stroke="#674743" stroke-linecap="round" stroke-linejoin="round" stroke-width="0.05"/>
    <path d="M4.2 14.7 Q5.55 14.35 6.25 13.8 7.25 14.8 6.8 16.2 3.85 17.95 -1.05 17.95 L-2.0 17.9 M3.9 14.75 L4.2 14.7 M-5.8 17.1 L-7.35 16.35 -8.45 15.4 Q-8.9 13.75 -8.3 12.65 L-8.25 12.5 -8.1 12.3" fill="none" stroke="#674743" stroke-linecap="round" stroke-linejoin="round" stroke-width="0.05"/>
    <path d="M-5.9 14.25 L-5.95 13.9 -2.15 14.5 -2.1 15.05 -2.0 17.9 -2.0 18.3 -5.8 17.75 -5.8 17.1 -5.9 14.25" fill="none" stroke="#999999" stroke-linecap="round" stroke-linejoin="round" stroke-width="0.05"/>
    <path d="M9.05 4.05 L9.25 3.1 9.65 0.8 9.7 0.2 9.7 0.05 9.8 -1.9 9.75 -2.7 Q9.9 -3.5 8.75 -4.4 L8.3 -4.75 Q5.9 -6.9 3.5 -7.25 2.65 -6.25 1.6 -5.4 -0.55 -3.65 -3.35 -3.05 L-3.9 -1.1 -5.0 -1.6 -5.0 -3.7 Q-6.3 -6.2 -6.1 -8.65 L-8.15 -8.4 -9.2 -8.0 M-10.4 -5.2 L-10.45 -5.15 -10.85 -3.0 Q-11.05 -0.6 -9.7 1.65 L-9.45 2.0 -8.6 3.2 -8.35 3.5 M6.25 13.8 L7.3 12.8 7.3 9.8" fill="none" stroke="#786d36" stroke-linecap="round" stroke-linejoin="round" stroke-width="0.05"/>
    <path d="M-8.35 3.5 L-8.4 3.7 M-8.95 10.85 Q-8.7 11.75 -8.1 12.3 Z" fill="none" stroke="#786d36" stroke-linecap="round" stroke-linejoin="round" stroke-width="0.05"/>
    <path d="M7.45 2.65 L8.95 2.55 9.05 4.05 7.3 8.75 7.3 9.8 4.7 9.95 Q6.65 6.9 7.35 3.2 L7.45 2.65" fill="#c9c97e" fill-rule="evenodd" stroke="none"/>
    <path d="M4.7 9.95 L-8.95 10.85 Q-9.25 9.95 -9.2 8.75 -9.2 6.7 -8.4 3.7 L7.45 2.65 7.35 3.2 Q6.65 6.9 4.7 9.95 M0.0 8.9 L0.05 8.9 0.0 8.9" fill="#deddb1" fill-rule="evenodd" stroke="none"/>
    <path d="M0.0 8.9 L0.05 8.9 0.0 8.9" fill="#ffffff" fill-rule="evenodd" stroke="none"/>
    <path d="M9.05 4.05 L7.3 8.75 7.3 9.8" fill="none" stroke="#786d36" stroke-linecap="round" stroke-linejoin="round" stroke-width="0.05"/>
    <path d="M-8.95 10.85 Q-9.25 9.95 -9.2 8.75 -9.2 6.7 -8.4 3.7" fill="none" stroke="#786d36" stroke-linecap="round" stroke-linejoin="round" stroke-width="0.05"/>
  </g>
</svg>
