<?xml version="1.0" encoding="UTF-8" standalone="no"?>
<svg xmlns:xlink="http://www.w3.org/1999/xlink" height="25.7px" width="8.85px" xmlns="http://www.w3.org/2000/svg">
  <g transform="matrix(1.0, 0.0, 0.0, 1.0, 5.6, 26.05)">
    <path d="M2.7 -15.1 L2.7 -13.8 2.75 -9.5 2.7 -6.8 2.65 -4.7 2.65 -3.75 2.65 -3.55 Q-2.25 -2.75 -4.8 -5.25 -2.25 -2.75 2.65 -3.55 3.6 -2.3 3.1 -1.0 -2.85 0.9 -5.35 -2.65 -5.6 -3.75 -4.8 -5.25 L-5.15 -15.1 2.7 -15.1" fill="#2f546f" fill-rule="evenodd" stroke="none"/>
    <path d="M2.65 -3.55 L2.65 -3.75 2.65 -4.7 2.7 -6.8 2.75 -9.5 2.7 -13.8 2.7 -15.1 M-5.15 -15.1 L-4.8 -5.25 Q-2.25 -2.75 2.65 -3.55 3.6 -2.3 3.1 -1.0 -2.85 0.9 -5.35 -2.65 -5.6 -3.75 -4.8 -5.25" fill="none" stroke="#1d3643" stroke-linecap="round" stroke-linejoin="round" stroke-width="0.05"/>
    <path d="M-5.3 -24.2 L-4.5 -23.6 -4.35 -23.55 -1.7 -22.85 0.7 -22.9 0.85 -22.9 1.2 -23.0 1.8 -23.2 2.15 -23.4 2.5 -24.0 2.55 -24.05 2.7 -15.1 -5.15 -15.1 -5.45 -24.3 -5.3 -24.2 -5.45 -24.3 -5.45 -24.35 -5.3 -24.2" fill="#2f546f" fill-rule="evenodd" stroke="none"/>
    <path d="M2.55 -24.05 L2.5 -24.0 2.15 -23.4 1.8 -23.2 1.2 -23.0 0.85 -22.9 0.7 -22.9 -1.7 -22.85 -4.35 -23.55 -4.5 -23.6 -5.3 -24.2 -5.45 -24.35 -5.45 -24.3 -5.45 -24.35 -5.6 -24.8 Q-5.55 -25.5 -4.3 -25.85 L-1.4 -26.0 Q0.25 -25.85 1.4 -25.25 2.5 -24.7 2.55 -24.05" fill="#ffffff" fill-rule="evenodd" stroke="none"/>
    <path d="M-5.45 -24.35 L-5.45 -24.3 -5.45 -24.35" fill="#4f4f4f" fill-rule="evenodd" stroke="none"/>
    <path d="M2.55 -24.05 L2.5 -24.0 2.15 -23.4 1.8 -23.2 1.2 -23.0 0.85 -22.9 0.7 -22.9 -1.7 -22.85 -4.35 -23.55 -4.5 -23.6 -5.3 -24.2 -5.45 -24.3 M2.55 -24.05 Q2.5 -24.7 1.4 -25.25 0.25 -25.85 -1.4 -26.0 L-4.3 -25.85 Q-5.55 -25.5 -5.6 -24.8 L-5.45 -24.35" fill="none" stroke="#666666" stroke-linecap="round" stroke-linejoin="round" stroke-width="0.05"/>
    <path d="M-5.45 -24.3 L-5.15 -15.1 M2.7 -15.1 L2.55 -24.05 M-5.45 -24.35 L-5.45 -24.3" fill="none" stroke="#1d3643" stroke-linecap="round" stroke-linejoin="round" stroke-width="0.05"/>
    <path d="M-5.45 -24.3 L-5.45 -24.35 -5.45 -24.3" fill="none" stroke="#000000" stroke-linecap="round" stroke-linejoin="round" stroke-width="0.05"/>
  </g>
</svg>
