<?xml version="1.0" encoding="UTF-8" standalone="no"?>
<svg xmlns:xlink="http://www.w3.org/1999/xlink" height="33.2px" width="20.7px" xmlns="http://www.w3.org/2000/svg">
  <g transform="matrix(1.0, 0.0, 0.0, 1.0, 10.9, 13.15)">
    <path d="M2.35 -8.25 Q1.7 -8.15 0.45 -7.3 L-4.85 -6.95 -5.25 -7.65 -5.35 -7.8 -5.35 -7.85 -5.35 -7.9 -5.25 -8.65 -5.2 -8.75 Q-4.85 -11.05 -5.3 -12.75 -0.7 -13.6 2.4 -12.7 L2.2 -11.3 2.2 -11.05 Q2.1 -9.6 2.35 -8.25 M-5.25 -8.75 L-5.25 -8.65 -6.25 -8.0 -6.3 -8.65 -5.25 -8.75" fill="#ffd0ae" fill-rule="evenodd" stroke="none"/>
    <path d="M0.45 -7.3 Q1.7 -8.15 2.35 -8.25 L2.5 -7.65 2.95 -7.5 3.0 -7.45 0.45 -7.3 M-5.25 -8.65 L-5.35 -7.9 -5.35 -7.85 -5.35 -7.8 -5.25 -7.65 -4.85 -6.95 -6.2 -6.85 -6.25 -8.0 -5.25 -8.65" fill="#ffdfc8" fill-rule="evenodd" stroke="none"/>
    <path d="M-5.2 -8.75 L-5.25 -8.65 -5.25 -8.75 -5.2 -8.75" fill="#eebf5a" fill-rule="evenodd" stroke="none"/>
    <path d="M2.95 -7.5 L2.5 -7.65 2.35 -8.25 Q2.1 -9.6 2.2 -11.05 L2.2 -11.3 2.4 -12.7 Q-0.7 -13.6 -5.3 -12.75 -4.85 -11.05 -5.2 -8.75 L-5.25 -8.65 -5.35 -7.9 -5.35 -7.85 -5.35 -7.8 M-5.25 -8.75 L-5.2 -8.75 M-6.3 -8.65 L-5.25 -8.75" fill="none" stroke="#d7995e" stroke-linecap="round" stroke-linejoin="round" stroke-width="0.05"/>
    <path d="M9.65 0.6 Q9.8 1.9 9.4 2.3 L7.5 2.5 7.7 1.1 9.65 0.6" fill="#f2f2f2" fill-rule="evenodd" stroke="none"/>
    <path d="M-8.25 3.6 L-8.35 3.5 -8.25 3.5 -8.25 3.6" fill="#96bebe" fill-rule="evenodd" stroke="none"/>
    <path d="M2.05 -9.6 L2.65 -9.75 Q4.35 -10.2 4.3 -10.7 L4.45 -9.8 Q4.4 -9.3 2.7 -8.85 L2.1 -8.7 -1.4 -8.25 -2.85 -8.2 -2.85 -5.05 0.45 -5.05 -0.15 -0.7 -2.75 -0.7 -2.75 1.95 0.65 1.75 4.15 1.45 7.7 1.1 7.5 2.5 3.85 2.75 2.7 2.8 -4.35 3.65 -4.35 2.95 -4.35 1.65 -4.35 2.95 Q-7.0 2.75 -8.65 1.8 L-9.85 1.35 Q-11.25 0.85 -10.5 -0.15 L-7.2 1.1 -4.35 1.65 -4.25 -1.7 -1.45 -1.6 -1.15 -3.65 -4.0 -3.65 -4.0 -8.15 -4.0 -9.05 -1.45 -9.15 2.05 -9.6 M6.25 13.8 Q6.7 14.0 6.75 14.4 L6.65 15.2 Q5.15 16.15 1.8 16.55 -1.6 16.95 -3.3 16.6 L-4.6 16.3 -4.6 18.3 Q-4.75 18.5 -3.4 18.75 -2.15 18.95 0.2 18.75 2.5 18.55 2.45 19.8 L2.45 19.85 1.3 20.0 -1.05 20.05 -2.25 20.0 -4.2 19.65 -5.5 19.3 Q-5.9 19.1 -5.9 18.4 L-5.85 18.4 -5.85 15.95 Q-8.05 15.15 -8.35 14.05 -8.75 12.4 -8.1 12.3 L-8.0 12.5 -7.95 12.65 -7.5 13.2 -7.3 13.4 Q-6.55 14.05 -5.1 14.55 -5.85 14.45 -5.85 15.95 -5.85 14.45 -5.1 14.55 L-4.3 14.8 -4.1 14.85 Q-1.0 15.55 3.9 14.75 L4.2 14.7 Q5.55 14.35 6.25 13.8 M-7.55 -9.05 L-7.45 -9.95 Q-7.4 -9.45 -5.65 -9.2 L-5.15 -9.15 -4.0 -9.05 -4.0 -8.15 -5.1 -8.25 -5.6 -8.3 Q-7.35 -8.55 -7.55 -9.05 M-8.35 3.5 L-8.25 3.5 -8.35 3.5" fill="#ffffff" fill-rule="evenodd" stroke="none"/>
    <path d="M4.45 -9.8 L5.05 -6.7 4.9 -6.6 4.95 -6.6 5.55 -6.35 5.95 -6.1 7.3 -5.3 Q10.0 -3.9 9.75 -2.7 L9.8 -1.9 9.7 0.05 9.7 0.2 9.65 0.6 7.7 1.1 4.15 1.45 0.65 1.75 -2.75 1.95 -2.75 -0.7 -0.15 -0.7 0.45 -5.05 -2.85 -5.05 -2.85 -8.2 -1.4 -8.25 2.1 -8.7 2.7 -8.85 Q4.4 -9.3 4.45 -9.8 M6.65 15.2 L6.95 17.1 6.9 18.2 6.85 18.3 5.9 18.75 2.45 19.8 Q2.5 18.55 0.2 18.75 -2.15 18.95 -3.4 18.75 -4.75 18.5 -4.6 18.3 L-4.6 16.3 -3.3 16.6 Q-1.6 16.95 1.8 16.55 5.15 16.15 6.65 15.2 M-5.5 19.3 L-7.0 18.65 -8.35 17.55 Q-8.85 15.3 -8.35 14.05 -8.05 15.15 -5.85 15.95 L-5.85 18.4 -5.9 18.4 Q-5.9 19.1 -5.5 19.3 M-10.5 -0.15 Q-11.0 -1.55 -10.85 -3.0 L-10.45 -5.15 Q-10.0 -6.55 -9.0 -8.0 L-8.95 -8.1 -8.6 -8.2 -7.8 -8.4 -7.7 -8.4 -7.65 -8.45 -7.6 -8.45 -7.55 -9.05 Q-7.35 -8.55 -5.6 -8.3 L-5.1 -8.25 -4.0 -8.15 -4.0 -3.65 -1.15 -3.65 -1.45 -1.6 -4.25 -1.7 -4.35 1.65 -7.2 1.1 -10.5 -0.15 M2.4 -5.1 L3.5 -5.65 4.9 -6.6 3.5 -5.65 2.4 -5.1 M-7.05 -4.95 L-7.75 -6.15 -7.8 -6.2 -7.65 -8.45 -7.8 -6.2 -7.75 -6.15 -7.05 -4.95 M-4.3 14.8 L-4.1 14.85 -4.3 14.8" fill="#536854" fill-rule="evenodd" stroke="none"/>
    <path d="M2.15 -11.5 L2.55 -11.45 Q4.3 -11.2 4.3 -10.7 4.35 -10.2 2.65 -9.75 L2.05 -9.6 2.15 -11.5 M-7.45 -9.95 Q-7.45 -10.45 -5.75 -10.9 L-5.05 -11.05 -5.15 -9.15 -5.65 -9.2 Q-7.4 -9.45 -7.45 -9.95" fill="#354435" fill-rule="evenodd" stroke="none"/>
    <path d="M-8.35 3.5 L-9.45 2.0 -9.7 1.65 -9.85 1.35 -8.65 1.8 Q-8.4 2.4 -8.25 3.5 L-8.35 3.5 M7.5 2.5 L7.35 3.2 7.25 3.85 6.4 6.65 4.65 10.0 5.25 13.1 Q4.85 14.2 4.2 14.7 L3.9 14.75 Q2.9 11.0 2.7 6.9 L2.7 2.8 3.85 2.75 7.5 2.5" fill="#689b98" fill-rule="evenodd" stroke="none"/>
    <path d="M9.4 2.3 L9.25 3.1 9.1 3.7 8.15 6.5 6.7 9.15 7.3 12.25 6.25 13.8 Q5.55 14.35 4.2 14.7 4.85 14.2 5.25 13.1 L4.65 10.0 6.4 6.65 7.25 3.85 7.35 3.2 7.5 2.5 9.4 2.3" fill="#55807c" fill-rule="evenodd" stroke="none"/>
    <path d="M-8.1 12.3 Q-9.0 11.15 -8.6 9.5 L-8.15 7.6 -8.1 7.3 -8.2 5.2 -8.25 4.5 -8.25 3.6 -8.25 3.5 Q-8.4 2.4 -8.65 1.8 -7.0 2.75 -4.35 2.95 L-4.35 3.65 2.7 2.8 2.7 6.9 Q2.9 11.0 3.9 14.75 -1.0 15.55 -4.1 14.85 L-4.3 14.8 -5.1 14.55 Q-6.55 14.05 -7.3 13.4 L-7.5 13.2 -7.95 12.65 -8.0 12.5 -8.1 12.3" fill="#dcdeeb" fill-rule="evenodd" stroke="none"/>
    <path d="M4.3 -10.7 Q4.3 -11.2 2.55 -11.45 L2.15 -11.5 M5.05 -6.7 L4.9 -6.6 M-8.25 3.6 L-8.35 3.5 M-7.65 -8.45 L-7.6 -8.45 -7.55 -9.05 M-7.45 -9.95 Q-7.45 -10.45 -5.75 -10.9 L-5.05 -11.05" fill="none" stroke="#548584" stroke-linecap="round" stroke-linejoin="round" stroke-width="0.05"/>
    <path d="M4.45 -9.8 L5.05 -6.7 M-8.95 -8.1 L-8.6 -8.2 -7.8 -8.4 -7.7 -8.4 -7.65 -8.45 -7.8 -6.2 -7.75 -6.15 -7.05 -4.95 M4.9 -6.6 L3.5 -5.65 2.4 -5.1" fill="none" stroke="#1c211b" stroke-linecap="round" stroke-linejoin="round" stroke-width="0.05"/>
    <path d="M4.9 -6.6 L4.95 -6.6 5.55 -6.35 5.95 -6.1 7.3 -5.3 Q10.0 -3.9 9.75 -2.7 L9.8 -1.9 9.7 0.05 9.7 0.2 9.65 0.6 M-10.5 -0.15 Q-11.0 -1.55 -10.85 -3.0 M-9.0 -8.0 L-8.95 -8.1" fill="none" stroke="#1c211b" stroke-linecap="round" stroke-linejoin="round" stroke-width="0.05"/>
    <path d="M-8.25 3.6 L-8.25 3.5" fill="none" stroke="#588780" stroke-linecap="round" stroke-linejoin="round" stroke-width="0.05"/>
    <path d="M6.65 15.2 L6.95 17.1" fill="none" stroke="#455645" stroke-linecap="round" stroke-linejoin="round" stroke-width="0.05"/>
    <path d="M2.05 -9.6 L2.65 -9.75 Q4.35 -10.2 4.3 -10.7 L4.45 -9.8 M9.65 0.6 Q9.8 1.9 9.4 2.3 M6.25 13.8 Q6.7 14.0 6.75 14.4 L6.65 15.2 M1.3 20.0 L-1.05 20.05 -2.25 20.0 -4.2 19.65 -5.5 19.3 Q-5.9 19.1 -5.9 18.4 L-5.85 18.4 -5.85 15.95 Q-5.85 14.45 -5.1 14.55 L-4.3 14.8 -4.1 14.85 Q-1.0 15.55 3.9 14.75 L4.2 14.7 Q5.55 14.35 6.25 13.8 M-8.35 14.05 Q-8.75 12.4 -8.1 12.3 L-8.0 12.5 -7.95 12.65 -7.5 13.2 -7.3 13.4 Q-6.55 14.05 -5.1 14.55 M-9.85 1.35 Q-11.25 0.85 -10.5 -0.15 M-7.55 -9.05 L-7.45 -9.95 Q-7.4 -9.45 -5.65 -9.2 L-5.15 -9.15 -4.0 -9.05 -1.45 -9.15 2.05 -9.6 M7.5 2.5 L3.85 2.75 2.7 2.8 -4.35 3.65 -4.35 2.95 -4.35 1.65 -4.25 -1.7 -1.45 -1.6 -1.15 -3.65 -4.0 -3.65 -4.0 -8.15 -4.0 -9.05 M-8.65 1.8 L-9.85 1.35 M-8.65 1.8 Q-7.0 2.75 -4.35 2.95" fill="none" stroke="#666666" stroke-linecap="round" stroke-linejoin="round" stroke-width="0.05"/>
    <path d="M7.5 2.5 L9.4 2.3" fill="none" stroke="#666666" stroke-linecap="round" stroke-linejoin="round" stroke-width="0.05"/>
    <path d="M9.4 2.3 L9.25 3.1 9.1 3.7 8.15 6.5 6.7 9.15 7.3 12.25 6.25 13.8 M-8.1 12.3 Q-9.0 11.15 -8.6 9.5 L-8.15 7.6 -8.1 7.3 -8.2 5.2 -8.25 4.5 -8.25 3.6 M-8.35 3.5 L-9.45 2.0 -9.7 1.65 -9.85 1.35 M2.7 2.8 L2.7 6.9 Q2.9 11.0 3.9 14.75 M-8.25 3.5 Q-8.4 2.4 -8.65 1.8" fill="none" stroke="#37534d" stroke-linecap="round" stroke-linejoin="round" stroke-width="0.05"/>
    <path d="M-0.6 -0.15 L-0.9 -0.25 -1.15 -0.1 -1.25 0.15 -1.15 0.5 -0.85 0.55 -0.55 0.45 -0.45 0.15 -0.6 -0.15 M-0.6 -0.2 L-0.5 -0.15 -0.35 0.15 -0.3 0.35 -0.55 0.85 Q-0.75 1.1 -1.05 1.1 L-1.65 0.9 -1.85 0.4 -1.65 -0.15 -1.15 -0.4 -0.6 -0.2" fill="#f2be48" fill-rule="evenodd" stroke="none"/>
    <path d="M-0.6 -0.15 L-0.45 0.15 -0.55 0.45 -0.85 0.55 -1.15 0.5 -1.25 0.15 -1.15 -0.1 -0.9 -0.25 -0.6 -0.15" fill="#eff38f" fill-rule="evenodd" stroke="none"/>
    <path d="M-1.65 -7.3 L-1.05 -7.6 Q-0.7 -7.6 -0.45 -7.35 L-0.2 -6.8 Q-0.15 -6.45 -0.4 -6.2 -0.65 -5.9 -1.0 -5.9 L-1.6 -6.1 -1.9 -6.7 -1.65 -7.3 M-0.7 -7.35 L-0.95 -7.2 -1.0 -6.95 -0.9 -6.7 Q-0.8 -6.6 -0.65 -6.6 L-0.4 -6.75 -0.35 -7.0 -0.45 -7.25 -0.7 -7.35" fill="#f2be48" fill-rule="evenodd" stroke="none"/>
    <path d="M-0.7 -7.35 L-0.45 -7.25 -0.35 -7.0 -0.4 -6.75 -0.65 -6.6 Q-0.8 -6.6 -0.9 -6.7 L-1.0 -6.95 -0.95 -7.2 -0.7 -7.35" fill="#eff38f" fill-rule="evenodd" stroke="none"/>
    <path d="M-2.4 17.45 L-2.35 17.65 -2.6 18.2 -3.1 18.45 -3.7 18.25 -3.95 17.75 Q-3.95 17.4 -3.75 17.2 L-3.2 16.9 -2.65 17.1 -2.55 17.2 -2.4 17.45 M-2.65 17.2 Q-2.75 17.05 -2.95 17.05 L-3.25 17.2 -3.3 17.5 -3.2 17.8 -2.9 17.9 -2.6 17.8 -2.5 17.45 -2.65 17.2" fill="#f2be48" fill-rule="evenodd" stroke="none"/>
    <path d="M-2.65 17.2 L-2.5 17.45 -2.6 17.8 -2.9 17.9 -3.2 17.8 -3.3 17.5 -3.25 17.2 -2.95 17.05 Q-2.75 17.05 -2.65 17.2" fill="#eff38f" fill-rule="evenodd" stroke="none"/>
  </g>
</svg>
