<?xml version="1.0" encoding="UTF-8" standalone="no"?>
<svg xmlns:xlink="http://www.w3.org/1999/xlink" height="37.75px" width="34.85px" xmlns="http://www.w3.org/2000/svg">
  <g transform="matrix(1.0, 0.0, 0.0, 1.0, 14.6, 18.95)">
    <path d="M11.8 16.3 Q9.0 4.65 8.0 -7.0 L6.9 -18.95 10.55 -18.95 Q11.4 -18.4 14.7 -6.25 L20.25 15.1 Q16.95 17.85 14.5 16.75 12.0 15.55 11.8 16.3" fill="#a7a7a7" fill-rule="evenodd" stroke="none"/>
    <path d="M6.9 -18.95 L8.0 -7.0 Q9.0 4.65 11.8 16.3 11.35 16.4 10.85 17.35 10.35 18.3 6.5 18.0 L-0.8 17.55 Q-4.25 17.35 -4.95 18.25 -5.7 19.15 -8.15 18.6 -13.65 14.35 -14.6 13.1 -14.2 2.6 -12.55 -18.95 L6.9 -18.95 M-6.9 -3.5 Q-8.7 11.05 -8.15 18.6 -8.7 11.05 -6.9 -3.5 M3.85 8.45 Q-2.25 9.5 -4.2 -11.85 -2.25 9.5 3.85 8.45" fill="#bcbcbc" fill-rule="evenodd" stroke="none"/>
    <path d="M6.9 -18.95 L8.0 -7.0 Q9.0 4.65 11.8 16.3 12.0 15.55 14.5 16.75 16.95 17.85 20.25 15.1 L14.7 -6.25 Q11.4 -18.4 10.55 -18.95 L6.9 -18.95 -12.55 -18.95 Q-14.2 2.6 -14.6 13.1 -13.65 14.35 -8.15 18.6 -8.7 11.05 -6.9 -3.5 M11.8 16.3 Q11.35 16.4 10.85 17.35 10.35 18.3 6.5 18.0 L-0.8 17.55 Q-4.25 17.35 -4.95 18.25 -5.7 19.15 -8.15 18.6 M-4.2 -11.85 Q-2.25 9.5 3.85 8.45" fill="none" stroke="#666666" stroke-linecap="round" stroke-linejoin="round" stroke-width="0.05"/>
  </g>
</svg>
