<?xml version="1.0" encoding="UTF-8" standalone="no"?>
<svg xmlns:xlink="http://www.w3.org/1999/xlink" height="7.7px" width="7.1px" xmlns="http://www.w3.org/2000/svg">
  <g transform="matrix(1.0, 0.0, 0.0, 1.0, 2.3, 4.45)">
    <path d="M1.75 -4.45 L3.15 -3.7 3.85 -2.85 4.3 -1.85 4.55 -1.05 4.7 -0.15 4.8 0.8 4.55 1.7 4.05 2.3 3.2 2.9 2.65 3.15 2.55 3.1 2.8 2.65 3.25 1.85 3.5 1.1 3.65 0.1 3.55 -0.8 3.35 -1.65 3.1 -2.4 2.75 -3.15 1.75 -4.45" fill="#598c81" fill-rule="evenodd" stroke="none"/>
    <path d="M1.75 -4.45 L2.75 -3.15 3.1 -2.4 3.35 -1.65 3.55 -0.8 3.65 0.1 3.5 1.1 3.25 1.85 2.8 2.65 2.55 3.1 2.5 3.2 2.05 3.25 Q0.55 3.25 -0.95 1.75 L-2.0 0.2 -2.25 -0.65 -2.25 -1.05 -1.4 -2.4 Q-0.6 -3.55 1.75 -4.45" fill="#6da396" fill-rule="evenodd" stroke="none"/>
    <path d="M2.55 3.1 L2.65 3.15 2.5 3.2 2.55 3.1" fill="#537557" fill-rule="evenodd" stroke="none"/>
    <path d="M2.65 3.15 L3.2 2.9 4.05 2.3 4.55 1.7 4.8 0.8 4.7 -0.15 4.55 -1.05 4.3 -1.85 3.85 -2.85 3.15 -3.7 1.75 -4.45 Q-0.6 -3.55 -1.4 -2.4 L-2.25 -1.05 -2.25 -0.65 -2.0 0.2 -0.95 1.75 Q0.55 3.25 2.05 3.25 L2.5 3.2 2.65 3.15 Z" fill="none" stroke="#39574e" stroke-linecap="round" stroke-linejoin="round" stroke-width="0.05"/>
  </g>
</svg>
