<?xml version="1.0" encoding="UTF-8" standalone="no"?>
<svg xmlns:xlink="http://www.w3.org/1999/xlink" height="31.6px" width="21.35px" xmlns="http://www.w3.org/2000/svg">
  <g transform="matrix(1.0, 0.0, 0.0, 1.0, 10.55, 14.55)">
    <path d="M5.65 4.15 L5.65 4.1 5.65 4.15" fill="#ffdfc8" fill-rule="evenodd" stroke="none"/>
    <path d="M-8.15 5.2 L-8.15 5.15 -8.15 5.2" fill="#618f5c" fill-rule="evenodd" stroke="none"/>
    <path d="M-8.15 5.15 L-8.2 3.65 -8.35 3.5 -9.7 1.65 Q-10.0 0.4 -9.05 -2.25 L-8.95 -2.55 -7.8 -0.35 -5.75 -3.25 -4.9 -2.95 -4.45 -2.85 -4.25 -2.85 -4.15 -2.7 -2.5 0.75 Q1.15 -0.55 4.3 -3.35 L5.3 -1.55 5.6 -0.75 Q6.15 1.1 5.75 3.55 L5.65 4.1 5.65 4.15 5.6 4.2 Q4.55 8.3 -1.45 6.85 L-1.7 6.65 Q-2.7 6.05 -3.55 5.75 -5.3 5.65 -6.4 6.65 -7.9 6.05 -8.15 5.2 L-8.15 5.15 M-8.2 3.65 L-6.75 4.4 -4.25 4.15 Q-1.85 4.55 -0.45 5.45 2.55 6.25 5.6 4.2 2.55 6.25 -0.45 5.45 -1.85 4.55 -4.25 4.15 L-6.75 4.4 -8.2 3.65" fill="#6da396" fill-rule="evenodd" stroke="none"/>
    <path d="M9.3 -2.85 Q9.8 -1.0 9.45 1.9 L9.05 3.55 8.85 4.1 7.15 8.65 5.5 9.8 Q4.55 10.45 3.8 10.7 2.35 11.1 1.4 10.05 L1.0 9.5 Q-0.05 7.85 -1.45 6.85 4.55 8.3 5.6 4.2 L5.65 4.15 5.65 4.1 5.75 3.55 Q6.15 1.1 5.6 -0.75 L5.3 -1.55 4.3 -3.35 5.7 -4.7 6.4 -4.65 7.1 -4.6 8.35 -4.4 8.7 -4.3 9.3 -2.85 M-6.9 8.85 L-7.45 8.85 Q-8.1 6.85 -8.15 5.2 -7.9 6.05 -6.4 6.65 L-7.1 7.8 -6.9 8.85 M-9.7 1.65 Q-10.8 0.1 -10.5 -2.3 L-10.1 -4.25 -9.5 -6.05 -9.45 -5.85 -9.5 -5.75 -9.45 -3.95 -8.95 -2.55 -9.05 -2.25 Q-10.0 0.4 -9.7 1.65 M7.45 2.2 L6.35 3.5 5.8 4.0 5.65 4.1 5.8 4.0 6.35 3.5 7.45 2.2" fill="#598c81" fill-rule="evenodd" stroke="none"/>
    <path d="M3.8 10.7 Q3.9 12.05 4.5 12.75 L4.95 13.1 6.25 13.8 Q6.5 14.4 6.3 15.4 3.85 17.05 -1.05 17.05 L-2.25 17.0 Q-5.6 16.55 -7.35 15.45 L-8.45 14.5 -8.1 12.3 -7.75 12.2 -7.65 12.15 Q-6.85 11.7 -6.75 10.6 L-6.9 8.85 -7.1 7.8 -6.4 6.65 Q-5.3 5.65 -3.55 5.75 -2.7 6.05 -1.7 6.65 L-1.45 6.85 Q-0.05 7.85 1.0 9.5 L1.4 10.05 Q2.35 11.1 3.8 10.7 M-4.8 -10.4 Q-4.75 -11.95 -5.0 -14.55 L0.2 -14.3 Q0.4 -12.5 0.75 -10.9 L1.25 -8.9 -1.85 -8.55 -5.25 -8.5 -5.3 -8.5 -5.3 -8.55 -5.25 -8.6 -5.15 -8.7 -5.1 -8.75 -5.05 -8.8 -5.05 -8.85 Q-4.85 -9.35 -4.8 -10.3 L-4.8 -10.4" fill="#385851" fill-rule="evenodd" stroke="none"/>
    <path d="M4.1 -9.15 L4.1 -9.1 4.4 -7.35 2.8 -6.65 0.8 -5.15 0.4 -4.7 -2.7 -3.95 -4.45 -3.7 -4.9 -3.8 Q-7.1 -4.4 -7.9 -5.9 L-8.05 -6.3 -8.1 -6.6 -8.0 -7.85 -8.0 -7.9 -7.95 -8.3 Q-7.55 -7.85 -6.05 -7.65 L-5.7 -7.6 -5.55 -7.6 -5.3 -7.55 -1.85 -7.6 1.25 -7.95 1.65 -8.05 2.25 -8.2 Q3.95 -8.65 4.1 -9.15" fill="#bf205c" fill-rule="evenodd" stroke="none"/>
    <path d="M-5.05 -8.85 L-5.05 -8.8 -5.05 -8.85" fill="#7b1544" fill-rule="evenodd" stroke="none"/>
    <path d="M0.75 -10.9 L2.15 -10.85 Q3.9 -10.6 3.9 -10.1 3.95 -9.6 2.25 -9.15 L1.65 -9.0 1.25 -8.9 0.75 -10.9 M-7.85 -9.35 Q-7.85 -9.85 -6.15 -10.3 L-4.8 -10.4 -4.8 -10.3 Q-4.85 -9.35 -5.05 -8.85 L-5.05 -8.8 -5.1 -8.75 -5.15 -8.7 -5.25 -8.6 -5.3 -8.55 -5.3 -8.5 -5.55 -8.55 -5.7 -8.55 -6.05 -8.6 Q-7.55 -8.8 -7.8 -9.2 L-7.85 -9.35" fill="#2e071a" fill-rule="evenodd" stroke="none"/>
    <path d="M3.9 -10.1 L4.1 -9.15 Q3.95 -8.65 2.25 -8.2 L1.65 -8.05 1.25 -7.95 -1.85 -7.6 -5.3 -7.55 -5.55 -7.6 -5.7 -7.6 -6.05 -7.65 Q-7.55 -7.85 -7.95 -8.3 L-7.9 -8.9 -7.85 -9.35 -7.8 -9.2 Q-7.55 -8.8 -6.05 -8.6 L-5.7 -8.55 -5.55 -8.55 -5.3 -8.5 -5.25 -8.5 -1.85 -8.55 1.25 -8.9 1.65 -9.0 2.25 -9.15 Q3.95 -9.6 3.9 -10.1 M-7.9 -5.9 Q-7.1 -4.4 -4.9 -3.8 L-4.45 -3.7 -2.7 -3.95 0.4 -4.7 Q-0.2 -4.1 -4.1 -2.9 L-4.25 -2.85 -4.45 -2.85 -4.9 -2.95 -5.75 -3.25 Q-7.45 -4.85 -7.9 -5.9" fill="#6b1440" fill-rule="evenodd" stroke="none"/>
    <path d="M4.4 -7.35 L4.6 -7.45 7.4 -7.6 Q9.35 -7.5 10.45 -5.55 11.5 -3.55 9.3 -2.85 L8.7 -4.3 8.35 -4.4 7.1 -4.6 6.4 -4.65 5.7 -4.7 3.55 -4.45 5.7 -4.7 4.3 -3.35 Q1.15 -0.55 -2.5 0.75 L-4.15 -2.7 -4.2 -2.85 -4.1 -2.9 -4.2 -2.85 -4.25 -2.85 -4.1 -2.9 Q-0.2 -4.1 0.4 -4.7 L0.8 -5.15 2.8 -6.65 4.4 -7.35 M-9.45 -5.85 L-9.2 -6.7 Q-9.6 -8.8 -8.5 -8.4 -8.5 -8.95 -7.9 -8.9 L-8.0 -7.9 -8.0 -7.85 -8.1 -6.6 -8.05 -6.3 -7.9 -5.9 Q-7.45 -4.85 -5.75 -3.25 L-7.8 -0.35 -8.95 -2.55 -9.45 -3.95 -9.5 -5.75 -9.45 -5.85" fill="#e7e7e7" fill-rule="evenodd" stroke="none"/>
    <path d="M9.3 -2.85 Q9.8 -1.0 9.45 1.9 L9.05 3.55 8.85 4.1 7.15 8.65 5.5 9.8 Q4.55 10.45 3.8 10.7 3.9 12.05 4.5 12.75 L4.95 13.1 6.25 13.8 Q6.5 14.4 6.3 15.4 3.85 17.05 -1.05 17.05 L-2.25 17.0 Q-5.6 16.55 -7.35 15.45 L-8.45 14.5 -8.1 12.3 -7.75 12.2 -7.65 12.15 Q-6.85 11.7 -6.75 10.6 L-6.9 8.85 -7.45 8.85 Q-8.1 6.85 -8.15 5.2 M-8.15 5.15 L-8.2 3.65 -8.35 3.5 -9.7 1.65 Q-10.8 0.1 -10.5 -2.3 L-10.1 -4.25 -9.5 -6.05 M-4.8 -10.4 Q-4.75 -11.95 -5.0 -14.55 M0.2 -14.3 Q0.4 -12.5 0.75 -10.9 L1.25 -8.9 M5.65 4.15 L5.6 4.2 Q2.55 6.25 -0.45 5.45 -1.85 4.55 -4.25 4.15 L-6.75 4.4 -8.2 3.65 M-1.45 6.85 Q-0.05 7.85 1.0 9.5 L1.4 10.05 Q2.35 11.1 3.8 10.7 M5.65 4.15 L5.65 4.1 5.8 4.0 6.35 3.5 7.45 2.2 M-4.8 -10.3 Q-4.85 -9.35 -5.05 -8.85 L-5.05 -8.8 -5.1 -8.75 M-6.4 6.65 Q-5.3 5.65 -3.55 5.75 -2.7 6.05 -1.7 6.65 L-1.45 6.85 M-6.9 8.85 L-7.1 7.8 -6.4 6.65" fill="none" stroke="#39574e" stroke-linecap="round" stroke-linejoin="round" stroke-width="0.05"/>
    <path d="M0.75 -10.9 L2.15 -10.85 Q3.9 -10.6 3.9 -10.1 L4.1 -9.15 4.1 -9.1 4.4 -7.35 M-7.9 -8.9 L-7.85 -9.35 Q-7.85 -9.85 -6.15 -10.3 L-4.8 -10.4 M1.25 -8.9 L1.65 -9.0 2.25 -9.15 Q3.95 -9.6 3.9 -10.1 M-4.25 -2.85 L-4.45 -2.85 -4.9 -2.95 -5.75 -3.25 M-5.3 -8.5 L-5.25 -8.5 -1.85 -8.55 1.25 -8.9 M-5.3 -8.5 L-5.55 -8.55 -5.7 -8.55 -6.05 -8.6 Q-7.55 -8.8 -7.8 -9.2 M-4.1 -2.9 L-4.25 -2.85" fill="none" stroke="#2e071b" stroke-linecap="round" stroke-linejoin="round" stroke-width="0.05"/>
    <path d="M-4.25 -2.85 L-4.2 -2.85" fill="none" stroke="#999999" stroke-linecap="round" stroke-linejoin="round" stroke-width="0.05"/>
    <path d="M4.4 -7.35 L4.6 -7.45 7.4 -7.6 Q9.35 -7.5 10.45 -5.55 11.5 -3.55 9.3 -2.85 L8.7 -4.3 8.35 -4.4 7.1 -4.6 6.4 -4.65 5.7 -4.7 3.55 -4.45 M-9.45 -5.85 L-9.2 -6.7 Q-9.6 -8.8 -8.5 -8.4 -8.5 -8.95 -7.9 -8.9 L-8.0 -7.9 -8.0 -7.85 -8.1 -6.6 -8.05 -6.3 -7.9 -5.9 Q-7.45 -4.85 -5.75 -3.25 L-7.8 -0.35 -8.95 -2.55 -9.45 -3.95 -9.5 -5.75 -9.45 -5.85 M0.4 -4.7 L0.8 -5.15 2.8 -6.65 4.4 -7.35 M4.3 -3.35 Q1.15 -0.55 -2.5 0.75 L-4.15 -2.7 -4.2 -2.85 -4.1 -2.9 Q-0.2 -4.1 0.4 -4.7 M4.3 -3.35 L5.7 -4.7" fill="none" stroke="#666666" stroke-linecap="round" stroke-linejoin="round" stroke-width="0.05"/>
    <path d="M-5.3 -4.55 L-6.15 -5.6 -5.35 -7.1 -4.05 -6.95 -3.15 -5.2 -3.95 -4.35 -4.1 -5.35 -5.3 -5.6 -5.3 -4.55" fill="#6b1440" fill-rule="evenodd" stroke="none"/>
  </g>
</svg>
