<?xml version="1.0" encoding="UTF-8" standalone="no"?>
<svg xmlns:xlink="http://www.w3.org/1999/xlink" height="6.95px" width="12.15px" xmlns="http://www.w3.org/2000/svg">
  <g transform="matrix(1.0, 0.0, 0.0, 1.0, 6.1, 1.35)">
    <path d="M-5.9 5.15 Q-7.05 3.9 -2.2 0.55 L-2.15 0.5 Q-1.5 0.15 -0.6 0.5 L-2.15 1.4 Q-5.45 3.5 -5.9 5.15" fill="#c5b9a0" fill-rule="evenodd" stroke="none"/>
    <path d="M2.1 4.25 Q0.25 5.35 -1.85 5.55 L-5.75 5.2 -5.9 5.15 Q-5.45 3.5 -2.15 1.4 L-0.6 0.5 Q1.95 1.55 2.1 4.25" fill="#867653" fill-rule="evenodd" stroke="none"/>
    <path d="M1.1 -0.4 Q3.8 0.2 4.95 -1.15 L6.05 3.8 Q5.8 5.4 3.35 4.7 L3.35 3.3 2.1 4.25 Q1.95 1.55 -0.6 0.5 L1.1 -0.4 M4.85 1.8 L3.35 3.3 4.85 1.8" fill="#6b5f43" fill-rule="evenodd" stroke="none"/>
    <path d="M-2.15 0.5 L0.75 -1.35 Q0.4 -0.75 1.1 -0.4 L-0.6 0.5 Q-1.5 0.15 -2.15 0.5" fill="#7e6c50" fill-rule="evenodd" stroke="none"/>
    <path d="M1.1 -0.4 Q3.8 0.2 4.95 -1.15 L6.05 3.8 Q5.8 5.4 3.35 4.7 L3.35 3.3 2.1 4.25 Q0.25 5.35 -1.85 5.55 L-5.75 5.2 -5.9 5.15 Q-7.05 3.9 -2.2 0.55 L-2.15 0.5 0.75 -1.35 Q0.4 -0.75 1.1 -0.4 L-0.6 0.5 -2.15 1.4 Q-5.45 3.5 -5.9 5.15 M3.35 3.3 L4.85 1.8" fill="none" stroke="#685942" stroke-linecap="round" stroke-linejoin="round" stroke-width="0.05"/>
  </g>
</svg>
