<?xml version="1.0" encoding="UTF-8" standalone="no"?>
<svg xmlns:xlink="http://www.w3.org/1999/xlink" height="29.25px" width="10.85px" xmlns="http://www.w3.org/2000/svg">
  <g transform="matrix(1.0, 0.0, 0.0, 1.0, 6.75, 29.2)">
    <path d="M2.2 -19.35 L1.2 -2.35 -1.2 -2.0 Q-2.55 -2.25 -3.45 -2.85 -3.4 -9.6 -4.5 -16.0 -5.15 -18.3 -4.9 -21.9 -4.65 -25.0 -3.95 -27.75 L-2.7 -29.15 Q-0.25 -29.5 1.05 -27.15 1.95 -23.85 2.15 -19.85 L2.2 -19.35" fill="#ffdfc8" fill-rule="evenodd" stroke="none"/>
    <path d="M2.2 -19.35 L2.15 -19.85 Q1.95 -23.85 1.05 -27.15 -0.25 -29.5 -2.7 -29.15 L-3.95 -27.75 Q-4.65 -25.0 -4.9 -21.9 -5.15 -18.3 -4.5 -16.0 -3.4 -9.6 -3.45 -2.85 -2.55 -2.25 -1.2 -2.0 L1.2 -2.35 2.2 -19.35 Z" fill="none" stroke="#d7995e" stroke-linecap="round" stroke-linejoin="round" stroke-width="0.05"/>
    <path d="M3.95 -4.95 L3.8 -2.2 Q3.8 -0.55 -1.15 0.05 L-1.4 0.0 Q-3.65 -0.5 -4.75 -1.35 L-6.6 -3.25 -6.6 -3.85 -6.65 -4.7 -6.65 -6.0 -4.75 -4.1 -4.35 -3.85 Q-3.3 -3.15 -1.4 -2.75 L-1.15 -2.7 Q3.8 -3.3 3.95 -4.95 M-6.55 -21.85 L-6.45 -24.35 -6.4 -24.35 Q-4.85 -22.45 -1.5 -22.1 L-0.9 -22.05 -0.1 -22.15 Q2.4 -22.7 3.1 -25.4 L3.25 -25.05 3.65 -21.2 Q2.8 -20.25 -0.05 -19.45 L-1.15 -19.2 -1.4 -19.25 Q-3.65 -19.5 -4.75 -20.25 L-6.55 -21.85" fill="#a67e71" fill-rule="evenodd" stroke="none"/>
    <path d="M3.95 -4.95 Q3.8 -3.3 -1.15 -2.7 L-1.4 -2.75 Q-3.3 -3.15 -4.35 -3.85 L-4.75 -4.1 -6.65 -6.0 Q-6.9 -13.75 -6.55 -21.45 L-6.55 -21.85 -4.75 -20.25 Q-3.65 -19.5 -1.4 -19.25 L-1.15 -19.2 -0.05 -19.45 Q2.8 -20.25 3.65 -21.2 L3.75 -19.9 Q4.3 -12.15 3.95 -4.95" fill="#956c5e" fill-rule="evenodd" stroke="none"/>
    <path d="M-6.45 -24.4 Q-6.2 -26.2 -5.3 -27.45 -4.5 -28.5 -3.25 -29.15 1.3 -29.6 3.1 -25.4 2.4 -22.7 -0.1 -22.15 L-0.9 -22.05 -1.5 -22.1 Q-4.85 -22.45 -6.4 -24.35 L-6.45 -24.4" fill="#61463d" fill-rule="evenodd" stroke="none"/>
    <path d="M-6.45 -24.35 L-6.45 -24.4 -6.4 -24.35 -6.45 -24.35" fill="#8e8e8e" fill-rule="evenodd" stroke="none"/>
    <path d="M-6.65 -6.0 L-6.65 -4.7 -6.6 -3.85 -6.6 -3.25 -4.75 -1.35 Q-3.65 -0.5 -1.4 0.0 L-1.15 0.05 Q3.8 -0.55 3.8 -2.2 L3.95 -4.95 Q3.8 -3.3 -1.15 -2.7 L-1.4 -2.75 Q-3.3 -3.15 -4.35 -3.85 L-4.75 -4.1 -6.65 -6.0 Q-6.9 -13.75 -6.55 -21.45 L-6.55 -21.85 -6.45 -24.35 -6.45 -24.4 Q-6.2 -26.2 -5.3 -27.45 -4.5 -28.5 -3.25 -29.15 1.3 -29.6 3.1 -25.4 L3.25 -25.05 3.65 -21.2 3.75 -19.9 Q4.3 -12.15 3.95 -4.95 M3.65 -21.2 Q2.8 -20.25 -0.05 -19.45 L-1.15 -19.2 -1.4 -19.25 Q-3.65 -19.5 -4.75 -20.25 L-6.55 -21.85 M-6.4 -24.35 Q-4.85 -22.45 -1.5 -22.1 L-0.9 -22.05 -0.1 -22.15 Q2.4 -22.7 3.1 -25.4 M-6.45 -24.4 L-6.4 -24.35 -6.45 -24.35" fill="none" stroke="#3f2c27" stroke-linecap="round" stroke-linejoin="round" stroke-width="0.05"/>
  </g>
</svg>
