<?xml version="1.0" encoding="UTF-8" standalone="no"?>
<svg xmlns:xlink="http://www.w3.org/1999/xlink" height="37.65px" width="7.3px" xmlns="http://www.w3.org/2000/svg">
  <g transform="matrix(1.0, 0.0, 0.0, 1.0, 2.25, 1.9)">
    <path d="M3.3 35.3 Q1.1 36.65 -1.15 34.15 -0.7 23.35 -1.2 12.8 -1.6 6.55 -2.25 0.4 -0.8 -1.45 0.9 -1.8 L1.95 -1.9 Q3.25 -1.15 4.05 0.4 L3.85 10.1 Q2.85 21.7 3.3 35.3" fill="#424242" fill-rule="evenodd" stroke="none"/>
    <path d="M3.3 35.3 Q2.85 21.7 3.85 10.1 L4.05 0.4 Q3.25 -1.15 1.95 -1.9 L2.45 -1.8 Q4.1 -1.25 5.05 0.3 L4.85 8.35 Q3.65 20.05 4.55 34.15 L3.3 35.3" fill="#737373" fill-rule="evenodd" stroke="none"/>
    <path d="M1.95 -1.9 L0.9 -1.8 Q-0.8 -1.45 -2.25 0.4 -1.6 6.55 -1.2 12.8 -0.7 23.35 -1.15 34.15 1.1 36.65 3.3 35.3 L4.55 34.15 Q3.65 20.05 4.85 8.35 L5.05 0.3 Q4.1 -1.25 2.45 -1.8 L1.95 -1.9 Z" fill="none" stroke="#333333" stroke-linecap="round" stroke-linejoin="round" stroke-width="0.05"/>
  </g>
</svg>
