<?xml version="1.0" encoding="UTF-8" standalone="no"?>
<svg xmlns:xlink="http://www.w3.org/1999/xlink" height="15.2px" width="6.1px" xmlns="http://www.w3.org/2000/svg">
  <g transform="matrix(1.0, 0.0, 0.0, 1.0, 2.7, 0.65)">
    <path d="M-0.4 13.65 Q-0.95 8.8 -2.45 4.55 -2.65 2.8 -1.85 1.05 -1.05 -1.25 1.4 -0.4 2.35 0.55 3.1 3.1 L2.3 14.2 Q0.7 15.15 -0.4 13.65" fill="#ffffff" fill-rule="evenodd" stroke="none"/>
    <path d="M2.3 14.2 L3.1 3.1 Q2.35 0.55 1.4 -0.4 -1.05 -1.25 -1.85 1.05 -2.65 2.8 -2.45 4.55 -0.95 8.8 -0.4 13.65" fill="none" stroke="#a0a0a0" stroke-linecap="round" stroke-linejoin="round" stroke-width="0.05"/>
    <path d="M-1.3 3.55 L-0.45 3.55 3.1 2.75 3.15 2.95 Q3.45 3.35 3.4 4.55 2.25 6.25 -0.45 6.5 2.25 6.25 3.4 4.55 L3.05 6.8 Q3.05 9.85 2.65 10.5 2.9 12.65 2.35 14.05 L0.1 14.1 0.05 12.75 0.0 12.1 Q1.4 12.1 2.65 10.5 1.4 12.1 0.0 12.1 L-0.05 11.55 -0.15 10.35 -0.2 9.55 -0.35 7.8 -0.45 6.5 Q-0.75 4.35 -1.05 3.75 -1.1 3.6 -1.3 3.55 M3.05 6.8 Q1.45 9.3 -0.2 9.55 1.45 9.3 3.05 6.8" fill="#956c5e" fill-rule="evenodd" stroke="none"/>
    <path d="M-1.3 3.55 Q-1.1 3.6 -1.05 3.75 -0.75 4.35 -0.45 6.5 L-1.8 6.7 Q-2.5 5.95 -2.6 5.0 L-2.7 3.15 -2.15 3.4 -1.3 3.55 M0.1 14.1 L-0.45 13.5 -0.75 12.6 -0.65 12.05 -0.8 11.45 -1.0 10.45 -1.1 9.65 Q-1.6 9.0 -1.65 8.1 L-1.8 6.7 -0.45 6.5 -0.35 7.8 -0.2 9.55 -1.1 9.65 -0.2 9.55 -0.15 10.35 -0.05 11.55 0.0 12.1 0.05 12.75 0.1 14.1 M-0.65 12.05 L-0.05 12.1 0.0 12.1 -0.05 12.1 -0.65 12.05" fill="#684942" fill-rule="evenodd" stroke="none"/>
    <path d="M3.4 4.55 Q3.45 3.35 3.15 2.95 L3.1 2.75 -0.45 3.55 -1.3 3.55 -2.15 3.4 -2.7 3.15 -2.6 5.0 Q-2.5 5.95 -1.8 6.7 L-0.45 6.5 Q2.25 6.25 3.4 4.55 L3.05 6.8 Q3.05 9.85 2.65 10.5 2.9 12.65 2.35 14.05 L0.1 14.1 -0.45 13.5 -0.75 12.6 -0.65 12.05 -0.8 11.45 -1.0 10.45 -1.1 9.65 Q-1.6 9.0 -1.65 8.1 L-1.8 6.7 M0.0 12.1 Q1.4 12.1 2.65 10.5 M0.0 12.1 L-0.05 12.1 -0.65 12.05 M-0.2 9.55 Q1.45 9.3 3.05 6.8 M-0.2 9.55 L-1.1 9.65" fill="none" stroke="#3f2c27" stroke-linecap="round" stroke-linejoin="round" stroke-width="0.05"/>
  </g>
</svg>
