<?xml version="1.0" encoding="UTF-8" standalone="no"?>
<svg xmlns:xlink="http://www.w3.org/1999/xlink" height="7.7px" width="15.85px" xmlns="http://www.w3.org/2000/svg">
  <g transform="matrix(1.0, 0.0, 0.0, 1.0, 4.05, 3.65)">
    <path d="M6.25 -2.55 Q6.8 -1.95 6.85 -1.1 L6.85 -1.0 6.85 -0.95 6.8 -0.6 6.8 -0.4 6.15 0.6 5.25 1.35 3.05 2.15 2.05 2.25 1.15 2.3 1.0 2.3 0.95 2.3 -0.1 2.3 -2.95 2.15 -3.85 1.1 -4.0 -0.05 -3.9 -0.75 -3.8 -1.1 -3.2 -1.85 Q-2.7 -2.4 -1.85 -2.8 0.0 -3.8 2.5 -3.6 L4.8 -3.2 5.4 -2.95 6.25 -2.55" fill="#96bebe" fill-rule="evenodd" stroke="none"/>
    <path d="M-2.95 2.15 L-0.1 2.3 0.95 2.3 1.0 2.3 1.15 2.3 2.05 2.25 3.05 2.15 5.25 1.35 6.15 0.6 6.8 -0.4 6.8 -0.6 6.85 -0.95 6.85 -1.0 6.85 -1.1 Q6.8 -1.95 6.25 -2.55 L5.4 -2.95 11.3 -2.75 Q12.7 0.55 10.3 4.05 7.65 3.15 4.3 3.25 L3.6 3.35 2.3 3.4 1.8 3.4 0.35 3.3 -0.15 3.35 -1.05 3.15 -2.95 2.15" fill="#74a9a8" fill-rule="evenodd" stroke="none"/>
    <path d="M6.25 -2.55 L5.4 -2.95 4.8 -3.2 2.5 -3.6 Q0.0 -3.8 -1.85 -2.8 -2.7 -2.4 -3.2 -1.85 L-3.8 -1.1 M0.35 3.3 L1.8 3.4 2.3 3.4 3.6 3.35 4.3 3.25 Q7.65 3.15 10.3 4.05 12.7 0.55 11.3 -2.75 L5.4 -2.95" fill="none" stroke="#548584" stroke-linecap="round" stroke-linejoin="round" stroke-width="0.05"/>
  </g>
</svg>
