<?xml version="1.0" encoding="UTF-8" standalone="no"?>
<svg xmlns:xlink="http://www.w3.org/1999/xlink" height="31.1px" width="20.7px" xmlns="http://www.w3.org/2000/svg">
  <g transform="matrix(1.0, 0.0, 0.0, 1.0, 10.9, 13.15)">
    <path d="M-5.2 -8.75 Q-4.85 -11.05 -5.3 -12.75 -0.7 -13.6 2.4 -12.7 L2.2 -11.3 2.2 -11.05 Q2.1 -9.6 2.35 -8.25 1.55 -8.1 -0.15 -6.9 -3.75 -4.45 -5.25 -7.65 L-5.35 -7.8 -5.35 -7.85 -5.35 -7.9 -5.25 -8.65 -5.2 -8.75 M-6.8 -7.0 L-6.35 -7.9 -6.0 -8.65 -5.25 -8.75 -5.25 -8.65 -6.35 -7.9 -6.5 -7.3 -6.8 -7.0" fill="#ffd0ae" fill-rule="evenodd" stroke="none"/>
    <path d="M2.35 -8.25 L2.5 -7.65 2.95 -7.5 3.0 -7.45 2.7 -6.9 -1.8 2.2 -4.95 0.8 -9.7 -1.25 -9.15 -2.35 -7.05 -2.5 -7.2 -6.6 -7.15 -6.65 -6.95 -6.9 -6.8 -7.0 -6.5 -7.3 -6.35 -7.9 -5.25 -8.65 -5.35 -7.9 -5.35 -7.85 -5.35 -7.8 -5.25 -7.65 Q-3.75 -4.45 -0.15 -6.9 1.55 -8.1 2.35 -8.25 M2.5 -7.65 L2.7 -6.9 2.5 -7.65 M0.45 -4.3 L-2.45 -4.95 0.45 -4.3 M-4.3 -4.2 Q-5.05 -1.4 -4.95 0.8 -5.05 -1.4 -4.3 -4.2 M-4.4 -5.4 L-6.25 -5.8 -4.4 -5.4" fill="#ffdfc8" fill-rule="evenodd" stroke="none"/>
    <path d="M-5.25 -8.75 L-5.2 -8.75 -5.25 -8.65 -5.25 -8.75" fill="#eebf5a" fill-rule="evenodd" stroke="none"/>
    <path d="M-5.2 -8.75 Q-4.85 -11.05 -5.3 -12.75 -0.7 -13.6 2.4 -12.7 L2.2 -11.3 2.2 -11.05 Q2.1 -9.6 2.35 -8.25 L2.5 -7.65 2.95 -7.5 M-6.0 -8.65 L-5.25 -8.75 -5.2 -8.75 -5.25 -8.65 -5.35 -7.9 -5.35 -7.85 -5.35 -7.8 M2.7 -6.9 L2.5 -7.65 M-6.25 -5.8 L-4.4 -5.4 M-4.95 0.8 Q-5.05 -1.4 -4.3 -4.2 M-2.45 -4.95 L0.45 -4.3" fill="none" stroke="#d7995e" stroke-linecap="round" stroke-linejoin="round" stroke-width="0.05"/>
    <path d="M-4.8 -0.75 L-2.4 -1.1 -2.0 -1.25 -1.55 -1.4 -0.5 -1.85 0.45 -2.45 1.05 -2.8 1.1 -2.85 Q2.4 -3.75 3.0 -4.9 L3.15 -5.25 3.3 -5.6 3.45 -5.95 3.65 -6.6 3.75 -7.25 3.3 -6.0 3.15 -5.7 3.1 -5.65 3.1 -5.6 Q1.7 -2.9 -1.8 -1.65 L-2.4 -1.5 Q-5.6 -0.95 -6.9 -2.45 -6.45 -1.45 -5.25 -0.95 L-4.8 -0.75 M-5.7 -9.25 L-5.1 -9.95 Q-5.75 -7.75 -4.15 -6.8 L0.5 -6.95 Q2.9 -8.4 2.6 -9.25 L3.0 -9.1 Q3.55 -8.8 3.65 -8.0 L4.0 -7.95 Q4.75 -7.75 4.9 -6.6 L4.85 -6.05 4.65 -5.2 4.55 -4.9 4.15 -3.8 3.7 -2.75 3.3 -2.05 3.05 -1.75 2.75 -1.45 1.75 -0.6 Q-1.4 1.7 -4.95 0.75 L-6.1 -0.1 -6.8 -0.85 -7.4 -1.7 -7.55 -1.95 Q-8.5 -3.9 -7.7 -6.3 L-7.65 -6.55 -6.7 -8.6 Q-6.3 -9.4 -5.7 -9.25 -6.2 -8.4 -6.0 -5.95 L-5.95 -5.65 -5.8 -5.35 Q-4.6 -2.5 0.65 -4.55 -4.6 -2.5 -5.8 -5.35 L-5.95 -5.65 -6.0 -5.95 Q-6.2 -8.4 -5.7 -9.25 M-8.1 12.3 L-8.0 12.5 -7.95 12.65 -7.3 13.4 Q-6.35 14.2 -4.3 14.8 -4.95 15.8 -4.2 17.55 -6.15 17.1 -7.35 16.35 L-8.45 15.4 Q-8.9 13.75 -8.3 12.65 L-8.25 12.5 -8.1 12.3" fill="#956c5e" fill-rule="evenodd" stroke="none"/>
    <path d="M3.75 -7.25 L3.65 -6.6 3.45 -5.95 3.3 -5.6 3.15 -5.25 3.0 -4.9 Q2.4 -3.75 1.1 -2.85 L1.05 -2.8 0.45 -2.45 -0.5 -1.85 -1.55 -1.4 -2.0 -1.25 -2.4 -1.1 -4.8 -0.75 -5.25 -0.95 Q-6.45 -1.45 -6.9 -2.45 -5.6 -0.95 -2.4 -1.5 L-1.8 -1.65 Q1.7 -2.9 3.1 -5.6 L3.1 -5.65 3.15 -5.7 3.3 -6.0 3.75 -7.25 M4.2 14.7 Q5.55 14.35 6.25 13.8 7.25 14.8 6.8 16.2 3.85 17.95 -1.05 17.95 L-2.25 17.9 -4.2 17.55 Q-4.95 15.8 -4.3 14.8 L-4.1 14.85 -3.75 14.95 -1.35 15.1 -1.1 15.1 4.2 14.7" fill="#684942" fill-rule="evenodd" stroke="none"/>
    <path d="M4.55 -4.9 L4.65 -5.2 4.85 -6.05 4.9 -6.6 5.55 -6.35 5.95 -6.1 7.3 -5.3 Q10.0 -3.9 9.75 -2.7 L9.8 -1.9 9.7 0.05 9.7 0.2 9.65 0.8 9.25 3.1 Q8.5 6.4 6.7 9.15 L7.3 12.25 6.25 13.8 Q5.55 14.35 4.2 14.7 4.85 14.2 5.25 13.1 L4.65 10.0 Q6.65 6.95 7.35 3.2 L7.65 0.9 7.75 -1.05 7.7 -1.85 Q7.85 -2.65 6.75 -3.55 L5.25 -4.45 4.55 -4.9" fill="#74a9a8" fill-rule="evenodd" stroke="none"/>
    <path d="M4.55 -4.9 L5.25 -4.45 6.75 -3.55 Q7.85 -2.65 7.7 -1.85 L7.75 -1.05 7.65 0.9 7.35 3.2 Q6.65 6.95 4.65 10.0 L5.25 13.1 Q4.85 14.2 4.2 14.7 L-1.1 15.1 -1.35 15.1 -3.75 14.95 -4.1 14.85 -4.3 14.8 Q-6.35 14.2 -7.3 13.4 L-7.95 12.65 -8.0 12.5 -8.1 12.3 Q-9.0 11.15 -8.6 9.5 L-8.05 6.75 -8.15 5.2 -8.2 4.2 -8.2 3.65 -8.35 3.5 -9.45 2.0 -9.7 1.65 Q-12.45 -2.95 -8.95 -8.1 L-7.8 -8.4 -7.7 -8.4 -6.7 -8.6 -7.65 -6.55 -7.7 -6.3 Q-8.5 -3.9 -7.55 -1.95 L-7.4 -1.7 -6.8 -0.85 -6.1 -0.1 -4.95 0.75 Q-1.4 1.7 1.75 -0.6 L2.75 -1.45 3.05 -1.75 3.3 -2.05 3.7 -2.75 4.15 -3.8 4.55 -4.9" fill="#96bebe" fill-rule="evenodd" stroke="none"/>
    <path d="M-8.15 5.15 L-8.15 5.2 -8.15 5.15" fill="#ffdfc8" fill-rule="evenodd" stroke="none"/>
    <path d="M-8.15 5.2 L-8.15 5.15 -8.15 5.2" fill="#ffffff" fill-rule="evenodd" stroke="none"/>
    <path d="M-4.8 -0.75 L-2.4 -1.1 -2.0 -1.25 -1.55 -1.4 -0.5 -1.85 0.45 -2.45 1.05 -2.8 1.1 -2.85 Q2.4 -3.75 3.0 -4.9 L3.15 -5.25 3.3 -5.6 3.45 -5.95 3.65 -6.6 3.75 -7.25 M4.9 -6.6 Q4.75 -7.75 4.0 -7.95 L3.65 -8.0 Q3.55 -8.8 3.0 -9.1 L2.6 -9.25 Q2.9 -8.4 0.5 -6.95 L-4.15 -6.8 Q-5.75 -7.75 -5.1 -9.95 L-5.7 -9.25 Q-6.2 -8.4 -6.0 -5.95 L-5.95 -5.65 -5.8 -5.35 Q-4.6 -2.5 0.65 -4.55 M4.9 -6.6 L4.85 -6.05 4.65 -5.2 4.55 -4.9 4.15 -3.8 3.7 -2.75 3.3 -2.05 3.05 -1.75 2.75 -1.45 1.75 -0.6 Q-1.4 1.7 -4.95 0.75 L-6.1 -0.1 -6.8 -0.85 -7.4 -1.7 -7.55 -1.95 Q-8.5 -3.9 -7.7 -6.3 L-7.65 -6.55 -6.7 -8.6 Q-6.3 -9.4 -5.7 -9.25 M4.2 14.7 Q5.55 14.35 6.25 13.8 7.25 14.8 6.8 16.2 3.85 17.95 -1.05 17.95 L-2.25 17.9 -4.2 17.55 Q-6.15 17.1 -7.35 16.35 L-8.45 15.4 Q-8.9 13.75 -8.3 12.65 L-8.25 12.5 -8.1 12.3 -8.0 12.5 -7.95 12.65 -7.3 13.4 Q-6.35 14.2 -4.3 14.8 L-4.1 14.85 -3.75 14.95 -1.35 15.1 -1.1 15.1 4.2 14.7" fill="none" stroke="#3f2c27" stroke-linecap="round" stroke-linejoin="round" stroke-width="0.05"/>
    <path d="M6.25 13.8 L7.3 12.25 6.7 9.15 Q8.5 6.4 9.25 3.1 L9.65 0.8 9.7 0.2 9.7 0.05 9.8 -1.9 9.75 -2.7 Q10.0 -3.9 7.3 -5.3 L5.95 -6.1 5.55 -6.35 4.9 -6.6 M-6.7 -8.6 L-7.7 -8.4 -7.8 -8.4 -8.95 -8.1 Q-12.45 -2.95 -9.7 1.65 L-9.45 2.0 -8.35 3.5 -8.2 3.65 -8.2 4.2 M-8.15 5.2 L-8.05 6.75 -8.6 9.5 Q-9.0 11.15 -8.1 12.3" fill="none" stroke="#548584" stroke-linecap="round" stroke-linejoin="round" stroke-width="0.05"/>
    <path d="M-8.2 4.2 L-8.15 5.2" fill="none" stroke="#666666" stroke-linecap="round" stroke-linejoin="round" stroke-width="0.05"/>
  </g>
</svg>
