<?xml version="1.0" encoding="UTF-8" standalone="no"?>
<svg xmlns:xlink="http://www.w3.org/1999/xlink" height="20.65px" width="19.3px" xmlns="http://www.w3.org/2000/svg">
  <g transform="matrix(1.0, 0.0, 0.0, 1.0, 6.2, 14.55)">
    <path d="M3.45 0.75 Q2.05 0.3 0.25 1.15 1.6 -0.5 3.45 0.75 M-3.3 -1.05 Q-1.85 -1.35 -1.6 0.45 -2.4 -0.9 -3.3 -1.05" fill="#503e53" fill-rule="evenodd" stroke="none"/>
    <path d="M3.45 0.75 Q1.6 -0.5 0.25 1.15 2.05 0.3 3.45 0.75 M-3.3 -1.05 Q-1.85 -1.35 -1.6 0.45 -2.4 -0.9 -3.3 -1.05" fill="none" stroke="#5b4961" stroke-linecap="round" stroke-linejoin="round" stroke-width="0.05"/>
    <path d="M-2.25 -6.45 Q-4.2 -10.75 -6.2 -11.85 -2.5 -11.5 0.65 -9.85 0.7 -12.2 -2.65 -14.55 2.35 -14.4 4.4 -12.35 L5.7 -10.8 6.6 -9.3 Q8.35 -9.65 6.95 -13.95 12.15 -10.0 11.7 -5.35 L11.45 -3.45 Q12.75 -1.2 13.1 0.7 12.25 0.05 11.25 -0.2 11.35 2.2 10.3 3.35 10.4 1.95 9.7 1.0 9.3 2.8 7.9 4.5 8.65 3.0 7.9 1.5 L7.75 1.5 Q6.3 -6.35 -1.35 -6.65 L-2.2 -6.45 -2.25 -6.45 M6.7 1.75 L6.45 2.15 6.5 1.95 6.7 1.75 M6.45 1.95 L5.8 5.6 Q4.8 5.75 4.6 6.1 5.8 3.5 4.6 -0.05 L6.45 1.95 M-0.1 -2.3 Q-1.0 -1.65 -1.3 -0.5 -1.7 -1.4 -1.55 -2.55 L-0.1 -2.3" fill="#735a48" fill-rule="evenodd" stroke="none"/>
    <path d="M-2.25 -6.45 L-2.2 -6.45 -1.35 -6.65 Q6.3 -6.35 7.75 1.5 L7.6 1.45 7.45 1.45 Q7.3 1.45 7.2 1.55 7.0 1.5 6.7 1.75 L6.5 1.95 6.45 1.95 4.6 -0.05 Q2.85 -1.6 -0.1 -2.3 L-1.55 -2.55 Q-3.35 -2.95 -3.7 -1.95 -4.15 -4.5 -3.25 -4.95 -3.1 -6.25 -2.25 -6.45 M3.05 -2.5 Q5.5 -1.05 7.15 1.5 L7.2 1.55 7.15 1.5 Q5.5 -1.05 3.05 -2.5 M0.6 -4.2 L-1.3 -4.85 -3.25 -4.95 -1.3 -4.85 0.6 -4.2" fill="#e2cfcb" fill-rule="evenodd" stroke="none"/>
    <path d="M7.75 1.5 L7.9 1.5 Q8.65 3.0 7.9 4.5 9.3 2.8 9.7 1.0 10.4 1.95 10.3 3.35 11.35 2.2 11.25 -0.2 12.25 0.05 13.1 0.7 12.75 -1.2 11.45 -3.45 L11.7 -5.35 Q12.15 -10.0 6.95 -13.95 8.35 -9.65 6.6 -9.3 L5.7 -10.8 4.4 -12.35 Q2.35 -14.4 -2.65 -14.55 0.7 -12.2 0.65 -9.85 -2.5 -11.5 -6.2 -11.85 -4.2 -10.75 -2.25 -6.45 M6.7 1.75 L6.45 2.15 6.5 1.95" fill="none" stroke="#584338" stroke-linecap="round" stroke-linejoin="round" stroke-width="0.05"/>
    <path d="M-2.25 -6.45 L-2.2 -6.45 -1.35 -6.65 Q6.3 -6.35 7.75 1.5 L7.6 1.45 7.45 1.45 Q7.3 1.45 7.2 1.55 7.0 1.5 6.7 1.75 L6.5 1.95 6.45 1.95 5.8 5.6 Q4.8 5.75 4.6 6.1 5.8 3.5 4.6 -0.05 2.85 -1.6 -0.1 -2.3 -1.0 -1.65 -1.3 -0.5 -1.7 -1.4 -1.55 -2.55 -3.35 -2.95 -3.7 -1.95 -4.15 -4.5 -3.25 -4.95 -3.1 -6.25 -2.25 -6.45 M7.2 1.55 L7.15 1.5 Q5.5 -1.05 3.05 -2.5 M4.6 -0.05 L6.45 1.95 M-3.25 -4.95 L-1.3 -4.85 0.6 -4.2 M-0.1 -2.3 L-1.55 -2.55" fill="none" stroke="#7b5046" stroke-linecap="round" stroke-linejoin="round" stroke-width="0.05"/>
  </g>
</svg>
