<?xml version="1.0" encoding="UTF-8" standalone="no"?>
<svg xmlns:xlink="http://www.w3.org/1999/xlink" height="21.05px" width="39.2px" xmlns="http://www.w3.org/2000/svg">
  <g transform="matrix(1.0, 0.0, 0.0, 1.0, 19.95, 13.1)">
    <path d="M3.3 -12.6 L3.35 -12.6 6.55 -12.3 6.6 -12.3 7.95 -12.1 10.2 -11.6 10.85 -11.2 11.55 -10.5 11.6 -10.45 12.5 -9.4 16.85 -6.95 17.25 -6.55 18.9 -4.45 19.25 -3.6 19.0 -2.75 18.35 -2.15 15.55 -1.0 15.6 -0.7 15.65 -0.6 15.7 -0.1 Q16.0 2.5 14.0 3.85 L14.05 3.8 Q6.85 8.95 -4.75 7.7 L-5.55 7.35 Q-8.75 4.7 -10.3 1.8 -12.15 2.6 -15.5 2.45 L-15.9 2.4 Q-20.35 0.85 -19.9 -2.75 L-19.5 -3.6 Q-17.15 -6.4 -14.55 -8.1 -11.3 -10.3 -8.15 -11.7 L-7.8 -11.85 -1.3 -13.05 -0.85 -13.05 3.05 -12.65 3.3 -12.6" fill="#000000" fill-rule="evenodd" stroke="none"/>
  </g>
</svg>
