<?xml version="1.0" encoding="UTF-8" standalone="no"?>
<svg xmlns:xlink="http://www.w3.org/1999/xlink" height="23.8px" width="9.35px" xmlns="http://www.w3.org/2000/svg">
  <g transform="matrix(1.0, 0.0, 0.0, 1.0, 8.15, 1.85)">
    <path d="M-4.0 -1.75 Q-1.9 -2.1 -0.3 -1.25 L0.1 0.55 Q0.45 2.2 0.8 8.9 0.35 3.7 -4.35 3.75 L-4.0 -1.75 -4.35 3.75 -6.75 4.0 Q-6.6 0.15 -5.3 -1.5 L-4.0 -1.75" fill="#5f803c" fill-rule="evenodd" stroke="none"/>
    <path d="M-4.35 3.75 Q0.35 3.7 0.8 8.9 L1.2 16.85 Q0.85 19.7 0.1 21.5 L-4.4 21.75 Q-6.0 21.35 -7.05 20.2 -7.65 18.95 -8.15 15.85 L-7.25 10.25 Q-6.95 8.45 -6.75 4.0 L-4.35 3.75 -5.25 16.9 Q-5.3 20.2 -4.4 21.75 -5.3 20.2 -5.25 16.9 L-4.35 3.75" fill="#8cb562" fill-rule="evenodd" stroke="none"/>
    <path d="M0.8 8.9 Q0.45 2.2 0.1 0.55 L-0.3 -1.25 Q-1.9 -2.1 -4.0 -1.75 L-4.35 3.75 -5.25 16.9 Q-5.3 20.2 -4.4 21.75 -6.0 21.35 -7.05 20.2 -7.65 18.95 -8.15 15.85 L-7.25 10.25 Q-6.95 8.45 -6.75 4.0 -6.6 0.15 -5.3 -1.5 L-4.0 -1.75 M0.8 8.9 L1.2 16.85 Q0.85 19.7 0.1 21.5 L-4.4 21.75" fill="none" stroke="#567337" stroke-linecap="round" stroke-linejoin="round" stroke-width="0.05"/>
  </g>
</svg>
