<?xml version="1.0" encoding="UTF-8" standalone="no"?>
<svg xmlns:xlink="http://www.w3.org/1999/xlink" height="21.8px" width="34.85px" xmlns="http://www.w3.org/2000/svg">
  <g transform="matrix(1.0, 0.0, 0.0, 1.0, 33.45, 7.7)">
    <path d="M-9.65 11.4 Q-10.8 7.75 -10.7 4.8 L-9.15 5.2 Q-9.95 8.0 -9.65 11.4 M-7.2 6.05 L-5.65 6.45 Q-6.45 9.25 -6.15 12.65 -7.3 9.0 -7.2 6.05 M-18.65 2.45 Q-17.95 2.45 -17.1 3.1 -17.9 7.65 -17.6 13.15 -18.75 7.25 -18.65 2.45 M-22.45 3.35 Q-21.75 3.35 -20.9 3.75 -21.7 6.55 -21.4 9.95 -22.55 6.3 -22.45 3.35 M-25.6 2.3 Q-24.9 2.3 -24.05 2.8 -24.85 6.1 -24.55 10.05 -25.7 5.8 -25.6 2.3" fill="#ffffcc" fill-rule="evenodd" stroke="none"/>
    <path d="M-9.65 11.4 L-9.7 11.4 Q-11.75 8.75 -12.3 5.2 L-12.25 5.15 Q-11.5 4.8 -10.7 4.8 -10.8 7.75 -9.65 11.4 M-6.2 12.65 Q-8.25 10.0 -8.8 6.45 L-8.75 6.4 -7.2 6.05 Q-7.3 9.0 -6.15 12.65 L-6.2 12.65 M-17.65 13.2 Q-19.7 8.9 -20.25 3.1 L-20.2 3.05 Q-19.45 2.4 -18.65 2.45 -18.75 7.25 -17.6 13.15 L-17.65 13.2 M-22.45 3.35 Q-22.55 6.3 -21.4 9.95 L-21.45 9.95 Q-23.5 7.3 -24.05 3.75 L-24.0 3.7 Q-23.25 3.35 -22.45 3.35 M-24.6 10.1 Q-26.65 6.95 -27.2 2.8 L-27.15 2.75 Q-26.4 2.3 -25.6 2.3 -25.7 5.8 -24.55 10.05 L-24.6 10.1" fill="#ffffec" fill-rule="evenodd" stroke="none"/>
    <path d="M-10.7 4.8 L-9.15 5.2 Q-9.95 8.0 -9.65 11.4 L-9.65 11.5 -9.7 11.4 M-7.2 6.05 L-5.65 6.45 Q-6.45 9.25 -6.15 12.65 L-6.15 12.75 -6.2 12.65 M-18.65 2.45 Q-17.95 2.45 -17.1 3.1 -17.9 7.65 -17.6 13.15 L-17.6 13.35 -17.65 13.2 M-14.4 6.5 Q-13.7 6.5 -12.85 6.95 M-21.4 9.95 Q-21.7 6.55 -20.9 3.75 -21.75 3.35 -22.45 3.35 M-21.4 9.95 L-21.4 10.05 -21.45 9.95 M-25.6 2.3 Q-24.9 2.3 -24.05 2.8 -24.85 6.1 -24.55 10.05 L-24.55 10.2 -24.6 10.1" fill="none" stroke="#a9a801" stroke-linecap="round" stroke-linejoin="round" stroke-width="0.05"/>
    <path d="M-14.4 6.5 Q-14.5 9.9 -13.35 14.1 L-13.4 14.1 Q-15.45 11.05 -16.0 6.95 L-15.95 6.9 Q-15.2 6.45 -14.4 6.5" fill="#ffffec" fill-rule="evenodd" stroke="none"/>
    <path d="M-13.35 14.1 Q-14.5 9.9 -14.4 6.5 -13.7 6.5 -12.85 6.95 -13.65 10.2 -13.35 14.1" fill="#ffffcc" fill-rule="evenodd" stroke="none"/>
    <path d="M-13.35 14.1 Q-13.65 10.2 -12.85 6.95" fill="none" stroke="#a9a801" stroke-linecap="round" stroke-linejoin="round" stroke-width="0.05"/>
    <path d="M0.5 -2.9 L0.55 -2.9 Q1.4 -1.55 1.4 0.0 1.4 3.2 -2.3 5.45 -5.65 7.5 -10.3 7.7 L-10.55 7.7 -11.25 7.7 -14.4 7.7 -16.1 6.9 Q-19.8 4.8 -19.8 1.8 -19.8 -1.2 -16.1 -3.3 -12.35 -5.4 -7.1 -5.4 -3.75 -5.4 -1.0 -4.5 L0.5 -2.9" fill="#fda6a6" fill-rule="evenodd" stroke="none"/>
    <path d="M-1.0 -4.5 Q-3.75 -5.4 -7.1 -5.4 -12.35 -5.4 -16.1 -3.3 -19.8 -1.2 -19.8 1.8 -19.8 4.8 -16.1 6.9 L-14.4 7.7 Q-27.05 7.2 -33.45 -1.5 -29.6 -0.25 -24.55 -2.55 -23.45 -3.1 -22.3 -3.8 L-20.2 -5.45 Q-16.5 -7.7 -11.25 -7.7 -6.0 -7.7 -2.3 -5.45 L-1.0 -4.5" fill="#fdbdbd" fill-rule="evenodd" stroke="none"/>
    <path d="M0.55 -2.9 L0.5 -2.9 -1.0 -4.5 -2.3 -5.45 Q-6.0 -7.7 -11.25 -7.7 -16.5 -7.7 -20.2 -5.45 L-22.3 -3.8 Q-23.45 -3.1 -24.55 -2.55 -29.6 -0.25 -33.45 -1.5 -27.05 7.2 -14.4 7.7 L-11.25 7.7 -10.55 7.7 -10.3 7.7 Q-5.65 7.5 -2.3 5.45 1.4 3.2 1.4 0.0 1.4 -1.55 0.55 -2.9 Z" fill="none" stroke="#be5f6d" stroke-linecap="round" stroke-linejoin="round" stroke-width="0.05"/>
  </g>
</svg>
