<?xml version="1.0" encoding="UTF-8" standalone="no"?>
<svg xmlns:xlink="http://www.w3.org/1999/xlink" height="6.9px" width="12.05px" xmlns="http://www.w3.org/2000/svg">
  <g transform="matrix(1.0, 0.0, 0.0, 1.0, 3.85, 3.5)">
    <path d="M-3.75 -0.85 Q-3.4 -2.0 -1.85 -2.7 0.0 -3.65 2.5 -3.45 4.7 -3.35 6.25 -2.45 6.8 -1.85 6.85 -1.0 L6.85 -0.95 6.8 -0.6 6.8 -0.4 6.15 0.6 Q4.8 2.1 1.65 2.3 L-2.45 2.1 Q-4.0 1.0 -3.85 -0.35 L-3.75 -0.85" fill="#ffffff" fill-rule="evenodd" stroke="none"/>
    <path d="M6.25 -2.45 L6.7 -2.15 7.55 -1.45 7.6 -1.4 7.75 -1.15 7.85 -0.95 7.95 -0.85 8.2 0.4 Q8.05 1.75 6.35 2.6 L6.2 2.7 5.25 3.05 1.95 3.4 1.8 3.4 Q-0.7 3.25 -2.35 2.15 L-2.45 2.1 1.65 2.3 Q4.8 2.1 6.15 0.6 L6.8 -0.4 6.8 -0.6 6.85 -0.95 6.85 -1.0 Q6.8 -1.85 6.25 -2.45" fill="#f2f2f2" fill-rule="evenodd" stroke="none"/>
    <path d="M-3.75 -0.85 Q-3.4 -2.0 -1.85 -2.7 0.0 -3.65 2.5 -3.45 4.7 -3.35 6.25 -2.45 L6.7 -2.15 7.55 -1.45 7.6 -1.4 7.75 -1.15 M6.35 2.6 L6.2 2.7 5.25 3.05 1.95 3.4" fill="none" stroke="#a0a0a0" stroke-linecap="round" stroke-linejoin="round" stroke-width="0.05"/>
  </g>
</svg>
