<?xml version="1.0" encoding="UTF-8" standalone="no"?>
<svg xmlns:xlink="http://www.w3.org/1999/xlink" height="110.1px" width="234.3px" xmlns="http://www.w3.org/2000/svg">
  <g transform="matrix(1.0, 0.0, 0.0, 1.0, 95.6, 31.0)">
    <path d="M38.2 -17.0 L58.05 -7.4 58.2 -7.5 111.25 18.1 111.3 18.15 138.25 31.15 138.7 32.05 71.35 64.6 70.85 64.35 40.35 79.1 9.5 64.5 8.3 65.1 -48.6 38.15 -48.6 38.1 -68.6 28.65 -68.35 28.5 -75.6 25.1 -75.6 25.05 -95.6 15.6 -64.15 1.3 -64.6 1.1 6.15 -31.0 26.0 -21.4 26.15 -21.5 36.8 -16.35 38.2 -17.0" fill="#000000" fill-rule="evenodd" stroke="none"/>
  </g>
</svg>
