<?xml version="1.0" encoding="UTF-8" standalone="no"?>
<svg xmlns:xlink="http://www.w3.org/1999/xlink" height="176.3px" width="75.15px" xmlns="http://www.w3.org/2000/svg">
  <g transform="matrix(1.0, 0.0, 0.0, 1.0, 37.55, 88.15)">
    <path d="M-25.95 -52.1 L-24.5 -50.1 -23.85 -47.4 -25.95 -52.1" fill="#bf6457" fill-rule="evenodd" stroke="none"/>
    <path d="M-25.95 -52.1 L-25.95 -52.25 -21.5 -52.3 -24.5 -50.1 -25.95 -52.1" fill="#e4bdb8" fill-rule="evenodd" stroke="none"/>
    <path d="M-25.95 -52.25 L-26.2 -52.25 -37.55 -57.9 23.9 -88.15 35.05 -82.65 35.8 -81.7 36.0 -80.55 10.5 -68.0 10.45 -68.0 3.7 -70.6 7.15 -66.35 7.1 -66.35 -21.5 -52.3 -25.95 -52.25" fill="#e7c2cb" fill-rule="evenodd" stroke="none"/>
    <path d="M-26.2 -52.25 L-25.95 -52.1 -23.85 -47.4 -23.85 18.85 Q-28.2 16.65 -32.5 14.5 -25.65 19.45 -23.85 26.95 L-23.85 88.15 -37.55 81.35 -37.55 -57.9 -26.2 -52.25" fill="url(#gradient0)" fill-rule="evenodd" stroke="none"/>
    <path d="M7.15 -66.35 L3.7 -70.6 10.45 -68.0 Q9.3 -65.55 7.15 -66.35 M-24.5 -50.1 L-21.5 -52.3 -23.85 -47.4 -24.5 -50.1" fill="#d6969f" fill-rule="evenodd" stroke="none"/>
    <path d="M-21.5 -52.3 L7.1 -66.35 8.65 -58.55 10.45 -68.0 10.5 -68.0 36.0 -80.55 37.6 -78.6 37.6 -35.95 28.35 -29.35 37.6 -29.35 37.6 57.9 -23.85 88.15 -23.85 26.95 -12.85 19.0 -23.55 19.0 -23.85 18.85 -23.85 -47.4 -21.5 -52.3" fill="#a56769" fill-rule="evenodd" stroke="none"/>
    <path d="M7.1 -66.35 L7.15 -66.35 Q9.3 -65.55 10.45 -68.0 L8.65 -58.55 7.1 -66.35" fill="#b94a6c" fill-rule="evenodd" stroke="none"/>
    <path d="M37.6 -29.35 L28.35 -29.35 37.6 -35.95 37.6 -29.35" fill="url(#gradient1)" fill-rule="evenodd" stroke="none"/>
    <path d="M-23.85 18.85 L-23.7 19.1 Q-21.4 23.0 -23.85 26.95 -25.65 19.45 -32.5 14.5 -28.2 16.65 -23.85 18.85" fill="#762e44" fill-rule="evenodd" stroke="none"/>
    <path d="M-23.55 19.0 L-12.85 19.0 -23.85 26.95 Q-21.4 23.0 -23.7 19.1 L-23.55 19.0" fill="#b84769" fill-rule="evenodd" stroke="none"/>
    <path d="M-25.95 -52.25 L-26.2 -52.25 -25.95 -52.1 -24.5 -50.1 -21.5 -52.3 -23.85 -47.4 -23.85 18.85 -23.55 19.0 -12.85 19.0 -23.85 26.95 -23.85 88.15 37.6 57.9 37.6 -29.35 28.35 -29.35 37.6 -35.95 37.6 -78.6 36.0 -80.55 35.8 -81.7 35.05 -82.65 23.9 -88.15 -37.55 -57.9 -26.2 -52.25 M-25.95 -52.25 L-21.5 -52.3 7.1 -66.35 7.15 -66.35 3.7 -70.6 10.45 -68.0 10.5 -68.0 36.0 -80.55 M-25.95 -52.1 L-23.85 -47.4 -24.5 -50.1 M7.15 -66.35 Q9.3 -65.55 10.45 -68.0 L10.5 -68.0 M10.45 -68.0 L8.65 -58.55 7.1 -66.35 M37.6 -29.35 L37.6 -35.95 M-23.85 18.85 L-23.7 19.1 Q-21.4 23.0 -23.85 26.95 -25.65 19.45 -32.5 14.5 -28.2 16.65 -23.85 18.85 M-37.55 -57.9 L-37.55 81.35 -23.85 88.15" fill="none" stroke="#8b7a54" stroke-linecap="round" stroke-linejoin="round" stroke-width="0.05"/>
  </g>
  <defs>
    <linearGradient gradientTransform="matrix(0.0458, 0.0611, -0.0436, 0.0327, -31.1, 15.45)" gradientUnits="userSpaceOnUse" id="gradient0" spreadMethod="pad" x1="-819.2" x2="819.2">
      <stop offset="0.0" stop-color="#efd7cf"/>
      <stop offset="1.0" stop-color="#cd7a8d"/>
    </linearGradient>
    <linearGradient gradientTransform="matrix(-1.0, 0.0, 0.0, 1.0, 31.25, -11.1)" gradientUnits="userSpaceOnUse" id="gradient1" spreadMethod="pad" x1="-819.2" x2="819.2">
      <stop offset="0.0" stop-color="#efd7cf"/>
      <stop offset="1.0" stop-color="#bc4e70"/>
    </linearGradient>
  </defs>
</svg>
