<?xml version="1.0" encoding="UTF-8" standalone="no"?>
<svg xmlns:xlink="http://www.w3.org/1999/xlink" height="74.8px" width="66.85px" xmlns="http://www.w3.org/2000/svg">
  <g transform="matrix(1.0, 0.0, 0.0, 1.0, 32.0, 67.5)">
    <path d="M33.15 -13.95 Q35.75 -13.45 34.35 -11.65 L19.65 5.7 Q17.9 7.75 11.8 7.15 L-20.55 2.5 Q-24.25 2.55 -22.05 -0.25 L4.3 -17.7 7.5 -18.65 33.15 -13.95" fill="#3c1a3a" fill-rule="evenodd" stroke="none"/>
    <path d="M28.35 -61.45 Q28.7 -61.05 28.6 -60.45 L14.1 -8.35 Q13.9 -7.6 13.2 -7.15 12.45 -6.75 11.65 -6.85 L-27.0 -11.75 -27.55 -11.85 -28.1 -12.35 Q-28.5 -12.9 -28.2 -13.55 L-10.05 -62.65 Q-9.9 -63.2 -9.25 -63.55 L-7.95 -63.85 27.2 -61.95 Q27.95 -61.9 28.35 -61.45" fill="url(#gradient0)" fill-rule="evenodd" stroke="none"/>
    <path d="M30.25 -64.9 Q31.05 -64.85 31.5 -64.35 31.9 -63.9 31.8 -63.3 L15.65 -5.3 Q15.4 -4.5 14.65 -4.0 L12.95 -3.7 -30.0 -9.1 -30.6 -9.2 -31.25 -9.8 Q-31.65 -10.4 -31.35 -11.1 L-11.2 -65.65 Q-11.0 -66.3 -10.25 -66.65 L-8.85 -67.0 30.25 -64.9 M28.35 -61.45 Q27.95 -61.9 27.2 -61.95 L-7.95 -63.85 -9.25 -63.55 Q-9.9 -63.2 -10.05 -62.65 L-28.2 -13.55 Q-28.5 -12.9 -28.1 -12.35 L-27.55 -11.85 -27.0 -11.75 11.65 -6.85 Q12.45 -6.75 13.2 -7.15 13.9 -7.6 14.1 -8.35 L28.6 -60.45 Q28.7 -61.05 28.35 -61.45" fill="url(#gradient1)" fill-rule="evenodd" stroke="none"/>
    <path d="M34.6 -54.65 L34.65 -54.9" fill="none" stroke="#dfbddf" stroke-linecap="round" stroke-linejoin="round" stroke-width="0.05"/>
    <path d="M30.25 -64.9 L-8.85 -67.0 -10.25 -66.65 Q-11.0 -66.3 -11.2 -65.65 L-31.35 -11.1 Q-31.65 -10.4 -31.25 -9.8 L-30.6 -9.2 -30.0 -9.1 12.95 -3.7 14.65 -4.0 Q15.4 -4.5 15.65 -5.3 L31.8 -63.3 Q31.9 -63.9 31.5 -64.35 31.05 -64.85 30.25 -64.9" fill="none" stroke="#810a0a" stroke-linecap="round" stroke-linejoin="round" stroke-width="1.0"/>
    <path d="M31.8 -63.3 Q31.9 -63.9 31.5 -64.35 31.05 -64.85 30.25 -64.9 L-8.85 -67.0 -10.25 -66.65 Q-11.0 -66.3 -11.2 -65.65 L-31.35 -11.1 Q-31.65 -10.4 -31.25 -9.8 L-30.6 -9.2" fill="none" stroke="#810a0a" stroke-linecap="round" stroke-linejoin="round" stroke-width="1.0"/>
  </g>
  <defs>
    <linearGradient gradientTransform="matrix(0.0106, -0.0296, 0.0239, 0.0086, 1.9, -35.85)" gradientUnits="userSpaceOnUse" id="gradient0" spreadMethod="pad" x1="-819.2" x2="819.2">
      <stop offset="0.0" stop-color="#c52173"/>
      <stop offset="1.0" stop-color="#6f1542"/>
    </linearGradient>
    <linearGradient gradientTransform="matrix(0.0115, -0.0348, 0.0282, 0.0093, -0.8, -28.55)" gradientUnits="userSpaceOnUse" id="gradient1" spreadMethod="pad" x1="-819.2" x2="819.2">
      <stop offset="0.0" stop-color="#dc730a"/>
      <stop offset="1.0" stop-color="#f54114"/>
    </linearGradient>
  </defs>
</svg>
