<?xml version="1.0" encoding="UTF-8" standalone="no"?>
<svg xmlns:xlink="http://www.w3.org/1999/xlink" height="22.15px" width="14.1px" xmlns="http://www.w3.org/2000/svg">
  <g transform="matrix(1.0, 0.0, 0.0, 1.0, 10.25, 22.45)">
    <path d="M-1.0 -0.3 Q1.65 -9.7 1.55 -18.4 2.65 -20.0 1.75 -21.45 L1.0 -21.35 -3.65 -21.25 Q-5.85 -21.7 -9.1 -20.25 -9.55 -10.95 -5.15 -4.65 -10.75 -9.3 -10.2 -21.55 -7.2 -23.0 0.4 -22.1 L1.7 -22.35 Q2.6 -22.35 3.25 -21.7 3.85 -21.05 3.85 -20.15 L3.6 -18.65 3.35 -17.8 2.8 -16.85 2.7 -16.75 2.0 -9.65 1.1 -2.8 Q0.95 -1.4 0.35 -0.85 L0.2 -0.75 Q-0.3 -0.35 -1.0 -0.3" fill="#cccccc" fill-rule="evenodd" stroke="none"/>
    <path d="M-5.15 -4.65 Q-9.55 -10.95 -9.1 -20.25 -5.85 -21.7 -3.65 -21.25 L1.0 -21.35 1.75 -21.45 Q2.65 -20.0 1.55 -18.4 1.65 -9.7 -1.0 -0.3 L-1.2 -0.3 Q-2.15 -0.3 -2.85 -1.05 -3.5 -1.85 -3.45 -2.45 L-2.85 -3.7 Q-0.7 -6.75 0.0 -9.65 L0.05 -9.65 Q0.8 -13.85 -0.1 -17.85 L-0.2 -17.95 -1.5 -19.95 Q-3.9 -20.05 -5.85 -19.05 -8.8 -13.1 -5.15 -4.65" fill="#999999" fill-rule="evenodd" stroke="none"/>
    <path d="M-1.0 -0.3 Q-0.3 -0.35 0.2 -0.75 L0.35 -0.85 Q0.95 -1.4 1.1 -2.8 L2.0 -9.65 2.7 -16.75 2.8 -16.85 3.35 -17.8 3.6 -18.65 3.85 -20.15 Q3.85 -21.05 3.25 -21.7 2.6 -22.35 1.7 -22.35 L0.4 -22.1 Q-7.2 -23.0 -10.2 -21.55 -10.75 -9.3 -5.15 -4.65 -8.8 -13.1 -5.85 -19.05 -3.9 -20.05 -1.5 -19.95 L-0.2 -17.95 -0.1 -17.85 Q0.8 -13.85 0.05 -9.65 M0.0 -9.65 Q-0.7 -6.75 -2.85 -3.7 L-3.45 -2.45 Q-3.5 -1.85 -2.85 -1.05 -2.15 -0.3 -1.2 -0.3 L-1.0 -0.3 Z" fill="none" stroke="#666666" stroke-linecap="round" stroke-linejoin="round" stroke-width="0.05"/>
  </g>
</svg>
