<?xml version="1.0" encoding="UTF-8" standalone="no"?>
<svg xmlns:xlink="http://www.w3.org/1999/xlink" height="6.95px" width="11.45px" xmlns="http://www.w3.org/2000/svg">
  <g transform="matrix(1.0, 0.0, 0.0, 1.0, 5.9, 1.35)">
    <path d="M-2.15 0.5 L0.55 -1.35 Q0.25 -0.75 0.9 -0.4 L-0.75 0.5 Q-1.55 0.15 -2.15 0.5" fill="#9d9d9d" fill-rule="evenodd" stroke="none"/>
    <path d="M-0.75 0.5 L0.9 -0.4 Q3.45 0.2 4.55 -1.15 L5.55 3.8 Q5.3 5.4 3.0 4.7 L3.0 3.3 1.8 4.25 Q1.7 1.55 -0.75 0.5 M4.4 1.8 L3.0 3.3 4.4 1.8" fill="#666666" fill-rule="evenodd" stroke="none"/>
    <path d="M-2.15 0.5 Q-1.55 0.15 -0.75 0.5 -5.2 3.15 -5.7 5.15 -6.8 3.85 -2.15 0.5" fill="#b6b6b6" fill-rule="evenodd" stroke="none"/>
    <path d="M1.8 4.25 Q-1.4 6.3 -5.55 5.2 L-5.7 5.15 Q-5.2 3.15 -0.75 0.5 1.7 1.55 1.8 4.25" fill="#797979" fill-rule="evenodd" stroke="none"/>
    <path d="M0.9 -0.4 Q0.25 -0.75 0.55 -1.35 L-2.15 0.5 Q-6.8 3.85 -5.7 5.15 -5.2 3.15 -0.75 0.5 L0.9 -0.4 Q3.45 0.2 4.55 -1.15 L5.55 3.8 Q5.3 5.4 3.0 4.7 L3.0 3.3 1.8 4.25 Q-1.4 6.3 -5.55 5.2 L-5.7 5.15 M3.0 3.3 L4.4 1.8" fill="none" stroke="#484848" stroke-linecap="round" stroke-linejoin="round" stroke-width="0.05"/>
  </g>
</svg>
