<?xml version="1.0" encoding="UTF-8" standalone="no"?>
<svg xmlns:xlink="http://www.w3.org/1999/xlink" height="4.55px" width="7.9px" xmlns="http://www.w3.org/2000/svg">
  <g transform="matrix(1.0, 0.0, 0.0, 1.0, 4.25, 2.25)">
    <path d="M-3.55 1.3 L-1.7 1.5 -0.8 1.55 1.55 1.15 2.05 0.9 Q3.2 0.15 2.75 -0.75 L1.9 -1.75 2.65 -1.35 3.0 -1.1 Q3.75 -0.5 3.65 0.35 3.55 1.25 2.35 1.85 L2.1 1.95 -0.55 2.3 -1.25 2.2 -2.05 2.05 -3.25 1.5 -3.55 1.3" fill="#ffd0ae" fill-rule="evenodd" stroke="none"/>
    <path d="M-3.55 1.3 Q-4.35 0.65 -4.25 -0.15 -4.2 -0.9 -3.5 -1.35 L-2.95 -1.7 -2.15 -2.0 -0.1 -2.2 1.9 -1.75 2.75 -0.75 Q3.2 0.15 2.05 0.9 L1.55 1.15 -0.8 1.55 -1.7 1.5 -3.55 1.3" fill="#ffdfc8" fill-rule="evenodd" stroke="none"/>
    <path d="M1.9 -1.75 L-0.1 -2.2 -2.15 -2.0 -2.95 -1.7 -3.5 -1.35 M1.9 -1.75 L2.65 -1.35 3.0 -1.1 M2.1 1.95 L-0.55 2.3 -1.25 2.2" fill="none" stroke="#d7995e" stroke-linecap="round" stroke-linejoin="round" stroke-width="0.05"/>
  </g>
</svg>
