<?xml version="1.0" encoding="UTF-8" standalone="no"?>
<svg xmlns:xlink="http://www.w3.org/1999/xlink" height="25.65px" width="31.45px" xmlns="http://www.w3.org/2000/svg">
  <g transform="matrix(1.0, 0.0, 0.0, 1.0, 7.5, 21.1)">
    <path d="M-3.0 -1.0 L-2.9 -1.2 -2.85 -1.25 Q-2.1 -1.05 -1.95 -0.15 L-3.0 -1.0 M2.15 0.05 L2.15 -0.25 2.7 -0.35 2.8 -0.1 2.15 0.05 M3.95 -0.35 L4.1 -0.2 3.9 -0.2 3.85 -0.35 3.95 -0.35" fill="#503e53" fill-rule="evenodd" stroke="none"/>
    <path d="M13.9 -20.35 L13.35 -20.15 12.75 -19.85 12.25 -19.55 Q10.85 -18.75 9.45 -16.9 L9.45 -16.85 Q8.4 -15.5 7.35 -13.6 L7.9 -14.85 9.1 -17.2 9.35 -17.55 9.35 -17.6 Q10.5 -19.45 11.85 -20.25 L12.85 -20.85 Q14.1 -21.45 13.95 -20.55 L13.9 -20.4 13.9 -20.35 M7.85 -17.25 L6.9 -16.7 6.75 -16.6 Q4.8 -15.0 3.8 -10.5 L3.7 -10.5 3.45 -10.5 3.35 -10.5 Q3.55 -12.45 4.0 -13.9 L4.35 -14.75 Q5.4 -17.25 7.5 -17.5 L7.9 -17.55 7.85 -17.25 M18.3 -14.9 L18.2 -14.95 17.6 -15.25 16.15 -15.75 13.55 -16.0 11.05 -15.4 11.65 -16.25 11.95 -16.3 12.8 -16.55 14.95 -16.7 16.4 -16.45 17.9 -15.95 18.9 -15.45 18.4 -14.95 18.3 -14.9 M2.95 -10.45 L3.35 -10.5 3.45 -10.5 3.45 -10.45 3.35 -10.45 2.0 -10.0 Q0.75 -9.45 0.15 -8.9 L-0.3 -8.05 -0.3 -7.85 -0.45 -7.8 -1.6 -7.7 -0.45 -7.8 -1.45 -7.5 Q-2.9 -7.0 -3.9 -6.15 -6.35 -4.1 -6.15 -0.05 L-6.15 0.05 -6.15 0.15 -6.05 1.1 Q-6.25 2.3 -6.55 2.3 L-7.0 2.2 Q-7.6 1.5 -7.5 0.55 L-7.45 -0.9 -7.15 -2.6 -6.4 -4.4 -5.35 -5.9 -4.0 -6.8 -3.65 -7.0 -1.6 -7.7 -1.6 -7.8 -1.55 -8.15 -1.25 -8.6 -0.85 -9.0 -0.8 -9.0 -0.5 -9.2 -0.25 -9.35 0.05 -9.55 0.45 -9.75 0.7 -9.85 2.15 -10.3 2.2 -10.3 2.95 -10.45 M-3.95 -2.55 L-3.0 -4.2 -2.75 -4.45 Q-3.55 -3.1 -3.85 -1.6 L-3.9 -1.3 -3.9 -1.25 -4.0 -0.55 -4.05 -0.4 -4.1 0.1 -4.1 0.2 -4.1 0.3 -4.1 0.85 -4.1 0.95 -4.05 1.05 -4.05 1.1 -3.85 1.75 -3.95 2.15 -4.0 2.35 -4.3 1.95 -4.55 1.1 -4.55 0.4 -4.55 0.1 -4.25 -1.75 -3.95 -2.55" fill="#fbe28e" fill-rule="evenodd" stroke="none"/>
    <path d="M7.35 -13.6 Q8.4 -15.5 9.45 -16.85 L9.45 -16.9 Q10.85 -18.75 12.25 -19.55 L12.75 -19.85 13.35 -20.15 13.9 -20.35 13.8 -20.05 11.35 -16.1 11.65 -16.25 11.05 -15.4 13.55 -16.0 16.15 -15.75 17.6 -15.25 18.2 -14.95 18.3 -14.9 Q17.15 -14.05 15.2 -14.05 L17.2 -13.8 17.3 -13.8 Q21.2 -12.95 23.15 -9.7 L23.8 -8.55 22.8 -8.1 18.3 -7.15 Q14.3 -6.35 9.0 -9.05 L9.0 -9.0 9.0 -9.05 Q8.15 -9.6 7.65 -9.75 5.6 -10.5 3.8 -10.5 5.6 -10.5 7.65 -9.75 8.15 -9.6 9.0 -9.05 L9.0 -9.0 10.5 -7.55 10.6 -7.4 10.6 -7.35 10.7 -7.25 11.2 -6.55 11.25 -6.55 11.25 -6.5 11.35 -6.35 11.3 -6.35 Q11.75 -4.95 11.65 -3.4 L11.55 -2.35 11.3 -1.25 Q11.05 -0.5 9.9 -0.5 8.7 -0.5 7.5 -1.25 L7.7 -1.25 7.5 -1.3 7.35 -1.3 7.5 -1.25 7.9 1.5 7.45 1.85 7.4 1.85 7.2 1.85 6.7 1.65 5.5 0.45 5.0 -0.15 3.8 -2.05 4.35 0.25 4.1 -0.2 3.95 -0.35 3.8 -0.65 3.85 -0.4 3.3 -1.25 3.5 -0.4 3.55 -0.15 3.65 0.45 3.7 0.85 3.55 1.65 3.45 1.8 2.9 0.3 2.8 -0.1 2.7 -0.35 2.15 -1.35 1.75 -1.95 2.15 -0.3 2.15 -0.25 2.15 0.05 2.05 1.05 2.0 1.1 -0.3 0.25 -1.55 -1.25 -1.65 -1.35 -2.15 -2.0 -2.25 -2.15 -2.35 -2.35 -2.35 -2.2 -2.85 -1.25 -2.9 -1.2 -3.0 -1.0 -3.2 -0.45 -3.55 0.4 -3.85 1.75 -4.05 1.1 -4.05 1.05 -4.1 0.95 -4.1 0.85 -4.1 0.3 -4.1 0.2 -4.1 0.1 -4.05 -0.4 -4.0 -0.55 -3.9 -1.25 -3.9 -1.3 -3.85 -1.6 Q-3.55 -3.1 -2.75 -4.45 L-3.0 -4.2 -3.95 -2.55 -3.55 -3.55 -3.25 -4.2 -4.1 -3.0 -4.4 -2.45 -5.15 -0.95 -6.05 1.0 -6.05 1.1 -6.15 0.15 -6.15 0.05 -6.15 -0.05 Q-6.35 -4.1 -3.9 -6.15 -2.9 -7.0 -1.45 -7.5 L-0.45 -7.8 -0.3 -7.85 -0.3 -8.05 0.15 -8.9 Q0.75 -9.45 2.0 -10.0 L3.35 -10.45 3.45 -10.45 3.45 -10.5 3.7 -10.5 3.8 -10.5 Q4.8 -15.0 6.75 -16.6 L6.9 -16.7 7.85 -17.25 7.0 -12.6 7.35 -13.6 M3.2 -7.1 Q1.35 -7.85 -0.45 -7.8 1.35 -7.85 3.2 -7.1 M2.2 -10.3 L2.2 -10.35 2.95 -10.45 2.2 -10.3 M7.25 -0.1 L7.3 -0.1 7.25 -0.1 M7.15 0.0 L7.1 0.0 7.15 0.0 M11.15 2.6 L11.0 2.9 11.1 2.55 11.15 2.6" fill="#ebc807" fill-rule="evenodd" stroke="none"/>
    <path d="M9.0 -9.0 L9.0 -9.05 Q14.3 -6.35 18.3 -7.15 L22.8 -8.1 23.8 -8.55 23.95 -8.1 21.85 -6.4 21.1 -6.0 20.35 -5.65 18.65 -5.15 17.0 -5.0 15.6 -5.15 15.7 -5.1 16.85 -4.6 17.1 -4.45 Q18.25 -3.7 18.8 -2.55 L16.95 -2.3 16.75 -2.25 14.05 -2.15 12.45 -2.25 12.45 -2.9 Q12.3 -4.8 11.35 -6.35 L11.25 -6.5 11.25 -6.55 11.2 -6.55 10.7 -7.25 10.6 -7.35 10.6 -7.4 10.5 -7.55 9.0 -9.0 M3.45 1.8 L3.55 1.65 3.7 0.85 3.65 0.45 3.55 -0.15 3.5 -0.4 3.3 -1.25 3.85 -0.4 3.85 -0.35 3.9 -0.2 4.15 0.65 4.4 2.25 4.4 2.4 Q4.35 2.75 4.15 2.6 L3.45 1.8 M4.35 0.25 L3.8 -2.05 5.0 -0.15 5.5 0.45 6.7 1.65 7.2 1.85 7.4 1.85 7.45 1.85 7.9 1.5 7.5 -1.25 7.35 -1.3 7.5 -1.3 7.7 -1.25 7.5 -1.25 Q8.7 -0.5 9.9 -0.5 11.05 -0.5 11.3 -1.25 L11.55 -2.35 11.65 -3.4 Q11.75 -4.95 11.3 -6.35 L11.35 -6.35 Q12.3 -4.8 12.45 -2.9 L12.45 -2.25 12.2 -0.15 12.05 0.4 12.05 0.45 11.8 1.15 11.7 1.4 11.15 2.6 11.1 2.55 11.0 2.9 10.7 3.4 9.75 4.45 Q10.05 3.65 10.0 2.75 L10.0 2.55 10.0 2.35 9.95 2.1 9.9 2.05 9.9 1.95 9.85 1.9 9.7 1.65 9.45 1.45 9.4 1.45 9.35 1.45 9.2 1.4 9.15 1.4 Q8.25 1.3 7.9 2.0 L7.6 3.25 Q7.25 4.15 6.2 2.8 L5.0 1.25 4.35 0.25 M7.5 -1.25 L7.5 -1.3 7.5 -1.25 M10.7 -7.25 L10.6 -7.4 10.7 -7.25 M14.15 -5.45 L15.6 -5.15 14.15 -5.45 M9.3 0.7 L9.25 0.7 9.2 0.7 9.25 0.7 9.3 0.7 M7.9 2.0 L7.9 1.5 7.9 2.0" fill="#ceb006" fill-rule="evenodd" stroke="none"/>
    <path d="M3.85 -0.35 L3.95 -0.35 M4.1 -0.2 L3.9 -0.2 M2.7 -0.35 L2.15 -0.25 M2.8 -0.1 L2.15 0.05 M-2.85 -1.25 Q-2.1 -1.05 -1.95 -0.15 L-3.0 -1.0" fill="none" stroke="#5b4961" stroke-linecap="round" stroke-linejoin="round" stroke-width="0.05"/>
    <path d="M13.9 -20.35 L13.9 -20.4 13.95 -20.55 Q14.1 -21.45 12.85 -20.85 L11.85 -20.25 Q10.5 -19.45 9.35 -17.6 L9.35 -17.55 9.1 -17.2 7.9 -14.85 7.35 -13.6 7.0 -12.6 7.85 -17.25 7.9 -17.55 7.5 -17.5 Q5.4 -17.25 4.35 -14.75 L4.0 -13.9 Q3.55 -12.45 3.35 -10.5 L2.95 -10.45 2.2 -10.3 2.15 -10.3 0.7 -9.85 0.45 -9.75 0.05 -9.55 -0.25 -9.35 -0.5 -9.2 -0.8 -9.0 -0.85 -9.0 -1.25 -8.6 -1.55 -8.15 -1.6 -7.8 -1.6 -7.7 -0.45 -7.8 Q1.35 -7.85 3.2 -7.1 M3.8 -10.5 Q5.6 -10.5 7.65 -9.75 8.15 -9.6 9.0 -9.05 L9.0 -9.0 10.5 -7.55 10.6 -7.4 10.7 -7.25 11.2 -6.55 11.25 -6.55 11.25 -6.5 11.35 -6.35 Q12.3 -4.8 12.45 -2.9 L12.45 -2.25 14.05 -2.15 16.75 -2.25 16.95 -2.3 18.8 -2.55 Q18.25 -3.7 17.1 -4.45 L16.85 -4.6 15.7 -5.1 15.6 -5.15 14.15 -5.45 M23.8 -8.55 L23.15 -9.7 Q21.2 -12.95 17.3 -13.8 L17.2 -13.8 15.2 -14.05 Q17.15 -14.05 18.3 -14.9 L18.4 -14.95 18.9 -15.45 17.9 -15.95 16.4 -16.45 14.95 -16.7 12.8 -16.55 11.95 -16.3 11.65 -16.25 11.35 -16.1 13.8 -20.05 13.9 -20.35 M3.45 -10.5 L3.35 -10.5 M3.8 -10.5 L3.7 -10.5 3.45 -10.5 M-6.05 1.1 L-6.05 1.0 -5.15 -0.95 -4.4 -2.45 -4.1 -3.0 -3.25 -4.2 -3.55 -3.55 -3.95 -2.55 -4.25 -1.75 -4.55 0.1 -4.55 0.4 -4.55 1.1 -4.3 1.95 -4.0 2.35 -3.95 2.15 -3.85 1.75 -3.55 0.4 -3.2 -0.45 -3.0 -1.0 -2.9 -1.2 -2.85 -1.25 -2.35 -2.2 -2.15 -1.95 -1.7 -1.3 -1.45 -1.0 -0.3 0.25 2.0 1.1 2.05 1.05 2.15 0.05 2.15 -0.25 2.15 -0.3 1.75 -1.95 2.15 -1.35 2.7 -0.35 2.8 -0.1 2.9 0.3 3.45 1.8 4.15 2.6 Q4.35 2.75 4.4 2.4 L4.4 2.25 4.15 0.65 3.9 -0.2 3.85 -0.35 3.8 -0.65 3.95 -0.35 4.1 -0.2 4.35 0.25 5.0 1.25 6.2 2.8 Q7.25 4.15 7.6 3.25 L7.9 2.0 Q8.25 1.3 9.15 1.4 L9.2 1.4 9.35 1.45 9.4 1.45 9.45 1.45 9.7 1.65 9.85 1.9 9.9 1.95 9.9 2.05 9.95 2.1 10.0 2.35 10.0 2.55 10.0 2.75 Q10.05 3.65 9.75 4.45 L9.7 4.5 9.65 4.55 9.75 4.45 10.7 3.4 11.0 2.9 11.15 2.6 11.7 1.4 11.8 1.15 12.05 0.45 12.05 0.4 12.2 -0.15 12.45 -2.25 M7.9 1.5 L7.5 -1.25 7.5 -1.3 M23.8 -8.55 L23.95 -8.1 21.85 -6.4 21.1 -6.0 20.35 -5.65 18.65 -5.15 17.0 -5.0 15.6 -5.15 M7.9 1.5 L7.9 2.0 M-7.45 -0.9 L-7.15 -2.6 -6.4 -4.4 -5.35 -5.9 -4.0 -6.8 -3.65 -7.0 -1.6 -7.7 M-7.45 -0.9 L-7.5 0.55 Q-7.6 1.5 -7.0 2.2 L-6.55 2.3 Q-6.25 2.3 -6.05 1.1" fill="none" stroke="#7e6305" stroke-linecap="round" stroke-linejoin="round" stroke-width="0.05"/>
  </g>
</svg>
