<?xml version="1.0" encoding="UTF-8" standalone="no"?>
<svg xmlns:xlink="http://www.w3.org/1999/xlink" height="17.05px" width="13.45px" xmlns="http://www.w3.org/2000/svg">
  <g transform="matrix(1.0, 0.0, 0.0, 1.0, 8.7, 10.6)">
    <path d="M-7.8 -2.65 L-3.45 -1.05 Q-2.3 -0.85 -2.15 0.6 L-2.15 1.45 -3.85 1.8 -7.05 0.6 -8.15 -0.85 -8.15 -1.7 -7.8 -2.65" fill="#ffffff" fill-rule="evenodd" stroke="none"/>
    <path d="M-7.15 -1.25 L-7.1 -0.95 Q-7.05 -0.75 -7.15 -0.55 L-7.4 -0.4 -7.65 -0.55 -7.85 -1.0 -7.75 -1.4 -7.7 -1.45 -7.7 -1.35 -7.6 -1.15 -7.4 -1.05 Q-7.25 -1.05 -7.2 -1.15 L-7.15 -1.2 -7.15 -1.25 M-3.4 0.1 L-3.35 0.35 -3.45 0.8 -3.8 1.0 -4.15 0.8 -4.3 0.35 -4.25 -0.1 -4.15 -0.2 -4.15 -0.05 -4.0 0.2 -3.75 0.3 -3.5 0.2 -3.4 0.1" fill="#000000" fill-rule="evenodd" stroke="none"/>
    <path d="M-7.15 -1.25 L-7.15 -1.2 -7.2 -1.15 Q-7.25 -1.05 -7.4 -1.05 L-7.6 -1.15 -7.7 -1.35 -7.7 -1.45 -7.65 -1.6 -7.45 -1.65 -7.25 -1.6 -7.15 -1.35 -7.15 -1.25 M-3.4 0.1 L-3.5 0.2 -3.75 0.3 -4.0 0.2 -4.15 -0.05 -4.15 -0.2 -4.05 -0.3 -3.8 -0.4 -3.55 -0.3 -3.4 -0.05 -3.4 0.1" fill="#ffffff" fill-rule="evenodd" stroke="none"/>
    <path d="M-7.7 -1.45 L-7.75 -1.4 -7.85 -1.0 -7.65 -0.55 -7.4 -0.4 -7.15 -0.55 Q-7.05 -0.75 -7.1 -0.95 L-7.15 -1.25 -7.15 -1.35 -7.25 -1.6 -7.45 -1.65 -7.65 -1.6 -7.7 -1.45 M-7.95 -1.65 L-7.55 -1.95 -7.15 -1.65 -6.9 -0.95 -7.0 -0.3 Q-7.1 0.0 -7.35 0.0 L-7.75 -0.3 -8.0 -0.95 -7.95 -1.65 M-4.15 -0.2 L-4.25 -0.1 -4.3 0.35 -4.15 0.8 -3.8 1.0 -3.45 0.8 -3.35 0.35 -3.4 0.1 -3.4 -0.05 -3.55 -0.3 -3.8 -0.4 -4.05 -0.3 -4.15 -0.2 M-3.95 -0.75 L-3.4 -0.4 -3.15 0.35 -3.25 1.1 -3.75 1.45 -4.3 1.1 -4.55 0.35 -4.4 -0.4 -3.95 -0.75" fill="#99ff00" fill-rule="evenodd" stroke="none"/>
    <path d="M-5.3 6.3 L-6.5 5.55 -7.3 3.85 Q-8.3 2.25 -8.3 -0.6 L-8.65 -2.55 Q-8.8 -3.25 -8.35 -5.0 -7.9 -7.0 -6.45 -8.5 -4.5 -10.6 -1.7 -10.6 1.05 -10.6 2.95 -8.5 L3.5 -7.8 Q4.9 -3.85 1.65 -1.9 L1.0 -1.5 -0.65 -0.35 0.4 2.0 Q-0.6 5.05 -5.3 6.3 M0.55 -0.35 Q2.15 -2.45 3.4 -1.7 L2.95 -0.1 2.75 0.6 2.35 -0.65 Q1.8 -0.6 1.25 0.85 0.45 0.55 0.55 -0.35 M-6.75 0.1 Q-6.65 -1.1 -6.9 -1.75 -7.9 -2.3 -8.2 -1.45 -7.7 0.2 -6.75 0.1 L-7.05 1.7 -6.75 0.1 M-5.55 2.05 L-7.05 1.7 -7.05 1.65 Q-7.15 2.45 -5.55 2.05 M-4.55 4.1 Q-6.1 3.35 -6.55 3.45 -6.1 3.35 -4.55 4.1 M-2.2 0.4 Q-3.1 -0.9 -4.65 -0.75 -5.05 0.0 -4.7 1.05 -3.45 1.85 -2.2 0.4" fill="#ffdfc8" fill-rule="evenodd" stroke="none"/>
    <path d="M-5.3 6.3 Q-0.6 5.05 0.4 2.0 L-0.65 -0.35 1.0 -1.5 1.65 -1.9 Q4.9 -3.85 3.5 -7.8 4.35 -6.6 4.65 -5.05 L4.65 -4.8 4.75 -3.35 4.5 -1.15 Q4.3 0.1 2.3 1.75 L2.25 1.75 2.25 1.8 1.6 2.45 1.4 3.35 Q-2.4 7.05 -5.3 6.3 M1.25 0.85 Q1.8 -0.6 2.35 -0.65 L2.75 0.6 2.95 -0.1 3.4 -1.7 Q2.15 -2.45 0.55 -0.35 0.45 0.55 1.25 0.85 L1.75 1.35 1.25 0.85 1.2 1.6 1.25 0.85 M2.75 0.6 L2.25 1.75 2.75 0.6 M-7.05 1.7 L-5.55 2.05 Q-7.15 2.45 -7.05 1.65 L-7.05 1.7" fill="#ffd0ae" fill-rule="evenodd" stroke="none"/>
    <path d="M3.5 -7.8 L2.95 -8.5 Q1.05 -10.6 -1.7 -10.6 -4.5 -10.6 -6.45 -8.5 -7.9 -7.0 -8.35 -5.0 -8.8 -3.25 -8.65 -2.55 L-8.3 -0.6 Q-8.3 2.25 -7.3 3.85 L-6.5 5.55 -5.3 6.3 Q-2.4 7.05 1.4 3.35 L1.6 2.45 2.25 1.8 2.3 1.75 Q4.3 0.1 4.5 -1.15 L4.75 -3.35 4.65 -4.8 4.65 -5.05 Q4.35 -6.6 3.5 -7.8 M1.25 0.85 Q1.8 -0.6 2.35 -0.65 L2.75 0.6 2.95 -0.1 3.4 -1.7 Q2.15 -2.45 0.55 -0.35 M1.25 0.85 L1.75 1.35 M2.25 1.75 L2.25 1.8 M1.25 0.85 L1.2 1.6 M2.25 1.75 L2.75 0.6 M-6.75 0.1 Q-7.7 0.2 -8.2 -1.45 -7.9 -2.3 -6.9 -1.75 -6.65 -1.1 -6.75 0.1 L-7.05 1.7 -7.05 1.65 Q-7.15 2.45 -5.55 2.05 M-6.55 3.45 Q-6.1 3.35 -4.55 4.1 M-2.2 0.4 Q-3.1 -0.9 -4.65 -0.75 -5.05 0.0 -4.7 1.05 -3.45 1.85 -2.2 0.4" fill="none" stroke="#d7995e" stroke-linecap="round" stroke-linejoin="round" stroke-width="0.05"/>
  </g>
</svg>
