<?xml version="1.0" encoding="UTF-8" standalone="no"?>
<svg xmlns:xlink="http://www.w3.org/1999/xlink" height="9.9px" width="4.5px" xmlns="http://www.w3.org/2000/svg">
  <g transform="matrix(1.0, 0.0, 0.0, 1.0, 2.6, -2.3)">
    <path d="M-2.45 7.35 L-2.6 2.35 -0.25 2.45 Q0.8 2.65 1.85 3.15 L1.85 7.35 Q-0.65 6.0 -2.45 7.35" fill="#000000" fill-rule="evenodd" stroke="none"/>
    <path d="M1.85 7.35 Q2.0 10.8 1.8 11.25 1.6 11.65 0.45 12.1 -0.75 12.5 -2.35 11.55 -2.8 10.4 -2.45 7.35 -0.65 6.0 1.85 7.35" fill="#343a3f" fill-rule="evenodd" stroke="none"/>
    <path d="M-2.45 7.35 L-2.6 2.35 -0.25 2.45 Q0.8 2.65 1.85 3.15 L1.85 7.35 Q2.0 10.8 1.8 11.25 M-2.35 11.55 Q-2.8 10.4 -2.45 7.35 Z" fill="none" stroke="#425337" stroke-linecap="round" stroke-linejoin="round" stroke-width="0.05"/>
  </g>
</svg>
