<?xml version="1.0" encoding="UTF-8" standalone="no"?>
<svg xmlns:xlink="http://www.w3.org/1999/xlink" height="8.9px" width="9.35px" xmlns="http://www.w3.org/2000/svg">
  <g transform="matrix(1.0, 0.0, 0.0, 1.0, 3.35, 5.65)">
    <path d="M3.2 3.15 L3.05 3.15 3.1 3.1 3.2 3.15" fill="#537557" fill-rule="evenodd" stroke="none"/>
    <path d="M3.05 3.15 L2.45 3.25 Q0.45 3.1 -1.05 1.9 L-2.0 1.0 -2.4 0.45 -3.15 -1.05 -3.35 -1.95 -2.95 -2.5 3.05 3.15" fill="#ca7de1" fill-rule="evenodd" stroke="none"/>
    <path d="M3.05 3.15 L3.2 3.15" fill="none" stroke="#621d81" stroke-linecap="round" stroke-linejoin="round" stroke-width="0.05"/>
    <path d="M-2.95 -2.5 L-3.35 -1.95 -3.15 -1.05 -2.4 0.45 -2.0 1.0 -1.05 1.9 Q0.45 3.1 2.45 3.25 L3.05 3.15 Z" fill="none" stroke="#621d81" stroke-linecap="round" stroke-linejoin="round" stroke-width="0.05"/>
    <path d="M3.1 3.1 L3.4 2.55 3.95 1.55 4.3 0.7 4.4 0.25 4.45 -0.05 4.45 -0.55 4.35 -1.65 4.0 -2.65 3.9 -2.95 3.65 -3.5 3.2 -4.45 2.0 -5.65 Q3.25 -5.45 4.1 -4.6 L4.75 -3.9 Q5.65 -2.8 5.9 -1.3 L6.0 -0.55 5.95 1.05 5.9 1.15 5.55 1.75 3.2 3.15 3.1 3.1" fill="#b547d6" fill-rule="evenodd" stroke="none"/>
    <path d="M2.0 -5.65 L3.2 -4.45 3.65 -3.5 3.9 -2.95 4.0 -2.65 4.35 -1.65 4.45 -0.55 4.45 -0.05 4.4 0.25 4.3 0.7 3.95 1.55 3.4 2.55 3.1 3.1 3.05 3.15 -2.95 -2.5 -2.65 -2.95 -1.55 -4.05 -0.8 -4.6 -0.65 -4.7 0.55 -5.2 2.0 -5.65" fill="#ca7de1" fill-rule="evenodd" stroke="none"/>
    <path d="M4.75 -3.9 L4.1 -4.6 Q3.25 -5.45 2.0 -5.65 L0.55 -5.2 -0.65 -4.7 -0.8 -4.6 -1.55 -4.05 -2.65 -2.95 -2.95 -2.5" fill="none" stroke="#621d81" stroke-linecap="round" stroke-linejoin="round" stroke-width="0.05"/>
    <path d="M3.2 3.15 L5.55 1.75 5.9 1.15" fill="none" stroke="#621d81" stroke-linecap="round" stroke-linejoin="round" stroke-width="0.05"/>
  </g>
</svg>
