<?xml version="1.0" encoding="UTF-8" standalone="no"?>
<svg xmlns:xlink="http://www.w3.org/1999/xlink" height="14.6px" width="5.25px" xmlns="http://www.w3.org/2000/svg">
  <g transform="matrix(1.0, 0.0, 0.0, 1.0, 3.15, 0.6)">
    <path d="M1.75 6.9 L1.05 13.8 Q0.6 14.25 -0.2 13.55 -1.15 8.15 -1.8 6.05 L-2.9 4.7 Q-3.65 3.8 -2.35 1.3 -1.05 -1.25 1.4 -0.4 2.35 0.55 2.05 3.8 L1.75 6.9 Q0.25 8.5 -1.8 6.05 0.25 8.5 1.75 6.9" fill="#ca7de1" fill-rule="evenodd" stroke="none"/>
    <path d="M1.05 13.8 L1.75 6.9 Q0.25 8.5 -1.8 6.05 -1.15 8.15 -0.2 13.55 M1.75 6.9 L2.05 3.8 Q2.35 0.55 1.4 -0.4 -1.05 -1.25 -2.35 1.3 -3.65 3.8 -2.9 4.7 L-1.8 6.05" fill="none" stroke="#621d81" stroke-linecap="round" stroke-linejoin="round" stroke-width="0.05"/>
  </g>
</svg>
