<?xml version="1.0" encoding="UTF-8" standalone="no"?>
<svg xmlns:xlink="http://www.w3.org/1999/xlink" height="11.6px" width="16.8px" xmlns="http://www.w3.org/2000/svg">
  <g transform="matrix(1.0, 0.0, 0.0, 1.0, 8.2, 2.6)">
    <path d="M-1.95 8.85 Q-2.9 8.85 -4.95 5.3 L-7.6 0.2 -7.65 0.2 Q-8.9 -2.7 -7.2 -2.6 -6.35 -1.65 -3.5 -1.1 L-3.3 -1.05 Q-4.2 2.75 -3.75 5.3 -3.4 7.6 -1.95 8.85" fill="#5a7e5f" fill-rule="evenodd" stroke="none"/>
    <path d="M-3.3 -1.05 L-3.05 -1.0 -2.25 -0.95 2.95 -0.7 Q5.4 -0.6 7.2 -1.45 10.45 -1.4 6.1 2.95 L2.65 6.45 Q0.45 8.6 -0.6 8.9 L-1.95 8.85 Q-3.4 7.6 -3.75 5.3 -4.2 2.75 -3.3 -1.05" fill="#537557" fill-rule="evenodd" stroke="none"/>
    <path d="M-3.3 -1.05 L-3.05 -1.0 -2.25 -0.95 2.95 -0.7 Q5.4 -0.6 7.2 -1.45 10.45 -1.4 6.1 2.95 L2.65 6.45 Q0.45 8.6 -0.6 8.9 L-1.95 8.85 Q-2.9 8.85 -4.95 5.3 L-7.6 0.2 M-7.65 0.2 Q-8.9 -2.7 -7.2 -2.6 -6.35 -1.65 -3.5 -1.1 L-3.3 -1.05" fill="none" stroke="#374e32" stroke-linecap="round" stroke-linejoin="round" stroke-width="0.05"/>
    <path d="M-3.3 -1.05 Q-4.2 2.75 -3.75 5.3 -3.4 7.6 -1.95 8.85" fill="none" stroke="#374e32" stroke-linecap="round" stroke-linejoin="round" stroke-width="0.05"/>
  </g>
</svg>
