<?xml version="1.0" encoding="UTF-8" standalone="no"?>
<svg xmlns:xlink="http://www.w3.org/1999/xlink" height="61.8px" width="82.2px" xmlns="http://www.w3.org/2000/svg">
  <g transform="matrix(1.0, 0.0, 0.0, 1.0, 2.1, 31.4)">
    <path d="M78.25 2.5 Q78.2 4.45 77.15 6.05 75.6 8.4 73.0 9.6 70.4 10.85 67.35 11.35 L62.45 11.75 56.65 11.4 52.15 10.65 45.1 8.6 Q41.35 7.65 38.0 6.05 L30.25 2.1 26.75 -0.3 Q18.0 -7.0 18.0 -14.85 18.0 -21.95 25.1 -26.25 L26.75 -27.2 Q30.5 -29.15 34.95 -29.9 L37.8 -30.3 41.0 -29.8 49.7 -25.15 Q68.95 -13.0 78.25 2.5" fill="#754b46" fill-rule="evenodd" stroke="none"/>
    <path d="M41.0 -29.8 L37.8 -30.3 34.95 -29.9 Q30.5 -29.15 26.75 -27.2 L25.1 -26.25 Q18.0 -21.95 18.0 -14.85 18.0 -7.0 26.75 -0.3 L30.25 2.1 38.0 6.05 Q41.35 7.65 45.1 8.6 L52.15 10.65 56.65 11.4 62.45 11.75 67.35 11.35 Q70.4 10.85 73.0 9.6 75.6 8.4 77.15 6.05 78.2 4.45 78.25 2.5 L78.9 4.25 Q79.8 6.65 80.0 9.25 L80.1 11.55 80.1 12.4 Q80.1 14.85 79.4 17.2 78.65 19.55 77.15 21.75 67.3 29.75 44.65 30.3 30.1 31.0 18.45 27.75 13.9 25.15 9.95 21.6 -2.15 10.85 -2.1 -2.7 -2.15 -16.2 9.95 -24.55 18.45 -30.5 29.5 -31.4 L35.85 -30.7 41.0 -29.8" fill="#533731" fill-rule="evenodd" stroke="none"/>
    <path d="M41.0 -29.8 L35.85 -30.7 29.5 -31.4 Q18.45 -30.5 9.95 -24.55 -2.15 -16.2 -2.1 -2.7 -2.15 10.85 9.95 21.6 13.9 25.15 18.45 27.75 30.1 31.0 44.65 30.3 67.3 29.75 77.15 21.75 78.65 19.55 79.4 17.2 80.1 14.85 80.1 12.4 L80.1 11.55 80.0 9.25 Q79.8 6.65 78.9 4.25 L78.25 2.5 Q68.95 -13.0 49.7 -25.15 L41.0 -29.8 Z" fill="none" stroke="#291a18" stroke-linecap="round" stroke-linejoin="round" stroke-width="0.05"/>
  </g>
</svg>
