<?xml version="1.0" encoding="UTF-8" standalone="no"?>
<svg xmlns:xlink="http://www.w3.org/1999/xlink" height="21.55px" width="9.8px" xmlns="http://www.w3.org/2000/svg">
  <g transform="matrix(1.0, 0.0, 0.0, 1.0, 4.3, 7.65)">
    <path d="M0.95 -2.2 Q1.75 -2.1 2.1 -1.2 2.45 -0.4 2.1 0.7 1.8 1.75 0.85 2.05 L-0.8 2.5 Q-1.45 2.7 -1.8 1.9 -2.15 1.05 -1.85 0.0 -1.5 -1.05 -0.65 -1.7 0.15 -2.35 0.95 -2.2" fill="#1d1b27" fill-rule="evenodd" stroke="none"/>
    <path d="M3.85 -7.5 L2.75 2.1 Q1.65 3.05 1.6 3.95 L2.5 3.45 2.5 3.6 1.05 11.65 0.6 11.6 -2.15 11.0 -2.3 10.0 -2.8 5.65 -2.1 5.15 -2.95 2.9 -2.8 0.0 Q-0.8 -4.9 3.85 -7.5 M2.8 2.15 Q3.5 2.95 3.55 3.45 L2.85 3.5 Q3.2 3.25 2.8 2.15 M0.95 -2.2 Q0.15 -2.35 -0.65 -1.7 -1.5 -1.05 -1.85 0.0 -2.15 1.05 -1.8 1.9 -1.45 2.7 -0.8 2.5 L0.85 2.05 Q1.8 1.75 2.1 0.7 2.45 -0.4 2.1 -1.2 1.75 -2.1 0.95 -2.2 M0.55 6.3 L-1.3 6.3 -2.1 5.15 -1.3 6.3 0.55 6.3 M-0.8 7.0 L-1.3 6.3 -0.8 7.0" fill="#7d719f" fill-rule="evenodd" stroke="none"/>
    <path d="M3.85 -7.5 L4.1 -7.65 Q5.45 -3.55 5.15 1.9 4.45 6.5 3.1 10.7 L2.75 11.75 1.05 11.65 2.5 3.6 2.5 3.45 1.6 3.95 Q1.65 3.05 2.75 2.1 L3.85 -7.5 M2.8 2.15 L2.75 2.1 2.8 2.15 Q3.2 3.25 2.85 3.5 L3.55 3.45 Q3.5 2.95 2.8 2.15 M2.5 3.45 L2.85 3.5 2.5 3.45" fill="#685888" fill-rule="evenodd" stroke="none"/>
    <path d="M-3.75 10.1 L-3.7 10.1 -3.75 10.1 M4.9 11.2 L4.85 11.2 4.9 11.2" fill="#544447" fill-rule="evenodd" stroke="none"/>
    <path d="M3.1 10.7 Q4.45 6.5 5.15 1.9 5.45 -3.55 4.1 -7.65 L3.85 -7.5 2.75 2.1 2.8 2.15 Q3.5 2.95 3.55 3.45 L2.85 3.5 2.5 3.45 2.5 3.6 1.05 11.65 M3.85 -7.5 Q-0.8 -4.9 -2.8 0.0 L-2.95 2.9 -2.1 5.15 -1.3 6.3 0.55 6.3 M-2.1 5.15 L-2.8 5.65 -2.3 10.0 M-1.3 6.3 L-0.8 7.0 M2.5 3.45 L1.6 3.95 Q1.65 3.05 2.75 2.1" fill="none" stroke="#403a56" stroke-linecap="round" stroke-linejoin="round" stroke-width="0.05"/>
    <path d="M-3.75 10.1 L-3.7 10.1 M4.85 11.2 L4.9 11.2" fill="none" stroke="#824740" stroke-linecap="round" stroke-linejoin="round" stroke-width="0.05"/>
    <path d="M4.9 13.4 L4.85 13.4 Q4.65 13.0 3.65 12.7 L2.75 12.45 1.05 12.25 0.6 12.2 -2.15 12.35 -2.45 12.4 Q-3.5 12.6 -3.7 12.95 L-3.75 12.9 Q-4.3 12.3 -4.3 11.6 -4.3 10.45 -2.8 9.75 -1.35 9.0 0.7 9.1 2.7 9.2 4.1 10.05 5.5 10.9 5.5 12.05 5.5 12.8 4.9 13.4" fill="#7a5147" fill-rule="evenodd" stroke="none"/>
    <path d="M4.85 13.4 L-1.2 13.8 Q-3.25 13.65 -3.7 12.95 -3.5 12.6 -2.45 12.4 L-2.15 12.35 0.6 12.2 1.05 12.25 2.75 12.45 3.65 12.7 Q4.65 13.0 4.85 13.4" fill="#272123" fill-rule="evenodd" stroke="none"/>
    <path d="M4.85 13.4 L-1.2 13.8 Q-3.25 13.65 -3.7 12.95 -3.5 12.6 -2.45 12.4 L-2.15 12.35 0.6 12.2 1.05 12.25 2.75 12.45 3.65 12.7 Q4.65 13.0 4.85 13.4 M-3.75 12.9 Q-4.3 12.3 -4.3 11.6 -4.3 10.45 -2.8 9.75 -1.35 9.0 0.7 9.1 2.7 9.2 4.1 10.05 5.5 10.9 5.5 12.05 5.5 12.8 4.9 13.4" fill="none" stroke="#51322f" stroke-linecap="round" stroke-linejoin="round" stroke-width="0.05"/>
  </g>
</svg>
