<?xml version="1.0" encoding="UTF-8" standalone="no"?>
<svg xmlns:xlink="http://www.w3.org/1999/xlink" height="10.1px" width="3.85px" xmlns="http://www.w3.org/2000/svg">
  <g transform="matrix(1.0, 0.0, 0.0, 1.0, 2.2, -1.65)">
    <path d="M0.75 6.8 Q0.25 7.2 0.65 7.6 L-0.15 7.35 Q0.05 6.95 0.75 6.8" fill="#685888" fill-rule="evenodd" stroke="none"/>
    <path d="M0.65 7.6 L1.2 7.65 Q1.35 9.35 1.65 10.95 -0.6 12.4 -2.2 11.15 -1.2 6.4 -2.2 1.65 L1.65 1.65 Q1.25 4.0 1.15 6.75 L0.75 6.8 Q0.05 6.95 -0.15 7.35 L0.65 7.6" fill="#31363c" fill-rule="evenodd" stroke="none"/>
    <path d="M0.75 6.8 Q0.25 7.2 0.65 7.6" fill="none" stroke="#291a18" stroke-linecap="round" stroke-linejoin="round" stroke-width="0.05"/>
    <path d="M0.65 7.6 L1.2 7.65 Q1.35 9.35 1.65 10.95 -0.6 12.4 -2.2 11.15 -1.2 6.4 -2.2 1.65 L1.65 1.65 Q1.25 4.0 1.15 6.75 L0.75 6.8" fill="none" stroke="#000000" stroke-linecap="round" stroke-linejoin="round" stroke-width="0.05"/>
    <path d="M0.65 7.6 L-0.15 7.35 Q0.05 6.95 0.75 6.8 Z" fill="none" stroke="#1c49cb" stroke-linecap="round" stroke-linejoin="round" stroke-width="0.05"/>
  </g>
</svg>
