<?xml version="1.0" encoding="UTF-8" standalone="no"?>
<svg xmlns:xlink="http://www.w3.org/1999/xlink" height="19.85px" width="15.6px" xmlns="http://www.w3.org/2000/svg">
  <g transform="matrix(1.0, 0.0, 0.0, 1.0, 4.65, 9.65)">
    <path d="M5.7 -1.25 L5.75 -1.3 5.7 -1.25 5.7 -1.3 5.75 -1.3 5.75 -1.25 5.7 -1.25" fill="#39689f" fill-rule="evenodd" stroke="none"/>
    <path d="M2.95 -1.1 L2.5 -1.6 Q0.65 -3.75 -1.6 -3.55 -1.25 -6.35 -2.45 -9.0 L-0.35 -9.6 -0.2 -9.6 0.95 -8.7 Q3.65 -6.5 6.15 -3.35 L6.45 -3.0 7.7 -2.95 Q9.5 -2.75 10.95 -1.95 L8.75 -1.25 6.15 -1.1 5.75 -1.25 5.5 -0.1 Q4.0 7.75 -3.1 10.2 -4.35 9.6 -4.45 6.65 L-3.7 8.5 0.0 5.75 0.4 5.35 0.6 5.15 Q2.5 3.1 2.9 0.75 L3.0 0.25 3.0 -0.05 Q2.9 -0.6 2.95 -1.1 M5.7 -1.25 L5.75 -1.25 5.75 -1.3 5.7 -1.3 5.7 -1.25" fill="#533731" fill-rule="evenodd" stroke="none"/>
    <path d="M-1.6 -3.55 Q0.65 -3.75 2.5 -1.6 L2.95 -1.1 Q2.9 -0.6 3.0 -0.05 L3.0 0.25 2.9 0.75 Q2.5 3.1 0.6 5.15 L0.4 5.35 0.0 5.75 -3.7 8.5 -4.45 6.65 Q-4.85 5.05 -4.35 3.15 -3.6 0.15 -2.95 -0.6 L-2.2 -1.4 -2.1 -1.55 -2.0 -1.6 -1.6 -3.45 -1.6 -3.55" fill="#754b46" fill-rule="evenodd" stroke="none"/>
    <path d="M-1.6 -3.45 L-2.0 -1.6 M-2.1 -1.55 L-2.2 -1.4 -2.95 -0.6 Q-3.6 0.15 -4.35 3.15 -4.85 5.05 -4.45 6.65 L-3.7 8.5 M5.75 -1.3 L5.7 -1.25 5.75 -1.25 5.75 -1.3 M-4.45 6.65 Q-4.35 9.6 -3.1 10.2 4.0 7.75 5.5 -0.1 L5.75 -1.25 6.15 -1.1 8.75 -1.25 10.95 -1.95 Q9.5 -2.75 7.7 -2.95 L6.45 -3.0 6.15 -3.35 Q3.65 -6.5 0.95 -8.7 L-0.2 -9.6 -0.35 -9.6 -2.45 -9.0 Q-1.25 -6.35 -1.6 -3.55" fill="none" stroke="#31201e" stroke-linecap="round" stroke-linejoin="round" stroke-width="0.05"/>
  </g>
</svg>
