<?xml version="1.0" encoding="UTF-8" standalone="no"?>
<svg xmlns:xlink="http://www.w3.org/1999/xlink" height="36.85px" width="13.35px" xmlns="http://www.w3.org/2000/svg">
  <g transform="matrix(1.0, 0.0, 0.0, 1.0, 9.65, 36.95)">
    <path d="M-4.05 -22.0 Q-2.5 -22.05 -1.2 -22.55 -0.3 -22.95 0.45 -23.55 L1.4 -24.45 1.85 -25.0 2.75 -26.7 1.85 -25.0 1.4 -24.45 0.45 -23.55 Q-0.3 -22.95 -1.2 -22.55 -2.5 -22.05 -4.05 -22.0 -5.7 -22.15 -6.85 -23.3 -8.05 -24.45 -8.6 -25.75 L-9.65 -29.15 -9.55 -29.9 -8.4 -27.65 Q-7.45 -25.8 -4.55 -24.05 -1.0 -25.65 -0.3 -27.7 L0.55 -30.9 2.4 -27.5 2.75 -26.7 3.65 -24.1 Q3.85 -21.65 3.15 -19.2 2.55 -17.0 1.5 -15.05 0.6 -13.35 0.3 -11.4 L0.25 -11.15 Q0.15 -9.8 0.35 -7.25 L0.6 -5.75 Q1.05 -4.05 2.25 -2.3 2.25 -1.3 0.35 -0.55 L-5.25 -0.35 Q-4.7 -0.3 -3.95 -0.75 -3.2 -1.2 -2.15 -5.05 -1.9 -6.8 -3.4 -8.6 L-2.9 -8.4 -2.95 -9.2 -3.4 -13.35 -4.05 -22.0 M0.6 -5.75 Q-0.75 -7.45 -2.9 -8.4 -0.75 -7.45 0.6 -5.75" fill="#533731" fill-rule="evenodd" stroke="none"/>
    <path d="M-4.05 -22.0 L-3.4 -13.35 -2.95 -9.2 -2.9 -8.4 -3.4 -8.6 Q-1.9 -6.8 -2.15 -5.05 -3.2 -1.2 -3.95 -0.75 -4.7 -0.3 -5.25 -0.35 L-5.65 -0.45 Q-7.1 -1.15 -7.95 -2.15 -8.55 -3.35 -8.25 -4.85 L-7.8 -5.6 Q-6.6 -7.2 -5.25 -8.0 -4.9 -9.45 -4.9 -11.0 L-5.0 -12.05 Q-5.3 -13.75 -5.9 -15.3 -6.25 -16.2 -6.9 -17.0 L-8.1 -18.8 -8.85 -20.8 Q-9.4 -22.85 -8.95 -24.65 L-8.6 -25.75 Q-8.05 -24.45 -6.85 -23.3 -5.7 -22.15 -4.05 -22.0 M0.55 -30.9 L-0.3 -27.7 Q-1.0 -25.65 -4.55 -24.05 -7.45 -25.8 -8.4 -27.65 L-9.55 -29.9 Q-8.8 -35.4 -6.4 -36.95 -2.4 -35.55 0.55 -30.9 M-5.25 -8.0 Q-4.4 -8.55 -3.4 -8.6 -4.4 -8.55 -5.25 -8.0" fill="#754b46" fill-rule="evenodd" stroke="none"/>
    <path d="M2.75 -26.7 L1.85 -25.0 1.4 -24.45 0.45 -23.55 Q-0.3 -22.95 -1.2 -22.55 -2.5 -22.05 -4.05 -22.0 -5.7 -22.15 -6.85 -23.3 -8.05 -24.45 -8.6 -25.75 L-9.65 -29.15 -9.55 -29.9 Q-8.8 -35.4 -6.4 -36.95 -2.4 -35.55 0.55 -30.9 L2.4 -27.5 2.75 -26.7 3.65 -24.1 Q3.85 -21.65 3.15 -19.2 2.55 -17.0 1.5 -15.05 0.6 -13.35 0.3 -11.4 L0.25 -11.15 Q0.15 -9.8 0.35 -7.25 L0.6 -5.75 Q1.05 -4.05 2.25 -2.3 2.25 -1.3 0.35 -0.55 L-5.25 -0.35 -5.65 -0.45 Q-7.1 -1.15 -7.95 -2.15 -8.55 -3.35 -8.25 -4.85 L-7.8 -5.6 Q-6.6 -7.2 -5.25 -8.0 -4.9 -9.45 -4.9 -11.0 L-5.0 -12.05 Q-5.3 -13.75 -5.9 -15.3 -6.25 -16.2 -6.9 -17.0 L-8.1 -18.8 -8.85 -20.8 Q-9.4 -22.85 -8.95 -24.65 L-8.6 -25.75 M-2.9 -8.4 Q-0.75 -7.45 0.6 -5.75 M-3.4 -8.6 L-2.9 -8.4 M-3.4 -8.6 Q-4.4 -8.55 -5.25 -8.0" fill="none" stroke="#31201e" stroke-linecap="round" stroke-linejoin="round" stroke-width="0.05"/>
  </g>
</svg>
