<?xml version="1.0" encoding="UTF-8" standalone="no"?>
<svg xmlns:xlink="http://www.w3.org/1999/xlink" height="15.35px" width="18.2px" xmlns="http://www.w3.org/2000/svg">
  <g transform="matrix(1.0, 0.0, 0.0, 1.0, 8.85, 6.7)">
    <path d="M1.6 -4.6 L1.75 -4.65 1.75 -4.6 Q3.8 -4.95 5.35 -5.9 L5.85 -5.75 Q7.4 -4.95 8.05 -2.9 L8.35 -1.35 8.6 -1.35 Q9.7 -1.3 9.2 0.2 L6.5 2.95 Q5.2 4.3 4.25 5.6 L2.85 7.65 Q2.3 8.35 0.45 8.65 -2.5 8.85 -4.55 5.3 L-4.95 4.65 Q-2.0 8.4 1.4 6.65 -0.6 4.4 2.1 -0.15 L0.9 -0.35 1.8 -0.35 1.9 -0.75 Q2.25 -2.35 1.6 -4.6 M-6.9 0.9 Q-7.65 -0.6 -8.75 -1.45 L-7.7 -2.45 Q-8.85 -2.75 -7.25 -4.55 L-6.9 -3.2 -6.3 -2.15 -6.15 -1.95 -5.8 -1.45 -7.2 -2.1 -7.7 -2.45 -7.2 -2.1 -5.8 -1.45 Q-4.95 -0.95 -6.05 -0.9 -6.75 -0.05 -6.9 0.9 M-7.25 -4.6 Q-9.15 -5.2 -8.8 -6.7 L-7.05 -5.85 -7.25 -4.6 M3.65 -0.55 L1.8 -0.35 3.65 -0.55 3.85 -0.55 3.65 -0.55 M8.35 -1.35 L8.0 -0.85 3.85 -0.55 8.0 -0.85 8.35 -1.35" fill="#536255" fill-rule="evenodd" stroke="none"/>
    <path d="M-4.95 4.65 L-6.9 0.9 Q-6.75 -0.05 -6.05 -0.9 -4.95 -0.95 -5.8 -1.45 L-6.15 -1.95 -6.3 -2.15 -6.9 -3.2 -7.25 -4.55 -7.25 -4.6 -7.05 -5.85 Q-5.9 -5.3 -3.9 -4.85 L-3.85 -4.85 1.15 -4.6 1.6 -4.6 Q2.25 -2.35 1.9 -0.75 L1.8 -0.35 0.9 -0.35 2.1 -0.15 Q-0.6 4.4 1.4 6.65 -2.0 8.4 -4.95 4.65 M0.9 -0.35 Q0.7 -0.35 -0.55 -1.45 -1.15 -2.0 -2.45 -2.0 L-5.8 -1.45 -2.45 -2.0 Q-1.15 -2.0 -0.55 -1.45 0.7 -0.35 0.9 -0.35 M-2.95 1.15 L-2.45 -2.0 -2.95 1.15 -1.0 3.95 -1.15 5.75 -1.0 3.95 -2.95 1.15 -3.35 3.45 -2.95 1.15 M-1.0 3.95 L-0.4 4.8 -1.0 3.95 M-1.1 -2.65 L-3.9 -4.85 -1.1 -2.65" fill="#5a7e5f" fill-rule="evenodd" stroke="none"/>
    <path d="M1.75 -4.65 L1.75 -4.6" fill="none" stroke="#553e35" stroke-linecap="round" stroke-linejoin="round" stroke-width="0.05"/>
    <path d="M1.6 -4.6 L1.75 -4.65 M5.35 -5.9 L5.85 -5.75 Q7.4 -4.95 8.05 -2.9 L8.35 -1.35 8.6 -1.35 Q9.7 -1.3 9.2 0.2 L6.5 2.95 Q5.2 4.3 4.25 5.6 L2.85 7.65 Q2.3 8.35 0.45 8.65 -2.5 8.85 -4.55 5.3 L-4.95 4.65 -6.9 0.9 Q-7.65 -0.6 -8.75 -1.45 L-7.7 -2.45 Q-8.85 -2.75 -7.25 -4.55 L-7.25 -4.6 Q-9.15 -5.2 -8.8 -6.7 M1.8 -0.35 L3.65 -0.55 M3.85 -0.55 L8.0 -0.85 8.35 -1.35 M1.8 -0.35 L0.9 -0.35 Q0.7 -0.35 -0.55 -1.45 -1.15 -2.0 -2.45 -2.0 L-2.95 1.15 -3.35 3.45 M-5.8 -1.45 L-2.45 -2.0 M-5.8 -1.45 L-7.2 -2.1 -7.7 -2.45 M-3.9 -4.85 L-1.1 -2.65 M-1.15 5.75 L-1.0 3.95 -2.95 1.15 M-0.4 4.8 L-1.0 3.95" fill="none" stroke="#374e32" stroke-linecap="round" stroke-linejoin="round" stroke-width="0.05"/>
    <path d="M3.65 -0.55 L3.85 -0.55" fill="none" stroke="#613736" stroke-linecap="round" stroke-linejoin="round" stroke-width="0.05"/>
  </g>
</svg>
