<?xml version="1.0" encoding="UTF-8" standalone="no"?>
<svg xmlns:xlink="http://www.w3.org/1999/xlink" height="16.5px" width="20.95px" xmlns="http://www.w3.org/2000/svg">
  <g transform="matrix(1.0, 0.0, 0.0, 1.0, 9.6, 2.9)">
    <path d="M6.75 3.95 Q13.65 6.6 10.25 13.35 11.25 7.25 6.7 5.55 6.95 4.75 6.75 3.95 M-7.8 13.6 Q-12.2 6.6 -5.75 3.95 L-5.45 5.25 -5.45 5.3 -5.4 5.4 Q-9.45 8.35 -7.8 13.6 M-3.25 0.2 L-3.3 -0.15 Q-3.6 -1.65 -2.05 -2.8 L-1.2 -0.4 -1.1 -0.1 -0.55 2.05 0.0 5.55 Q-1.5 3.95 -2.4 2.3 L-3.2 0.4 -3.2 0.35 -3.25 0.2" fill="#594a95" fill-rule="evenodd" stroke="none"/>
    <path d="M-2.05 -2.8 L-1.95 -2.9 -1.9 -2.9 -1.75 -2.8 Q-1.0 -2.45 -0.4 -1.85 L0.3 -0.8 0.35 -0.7 0.35 -0.6 0.4 -0.5 0.45 0.05 0.5 0.2 0.55 0.75 0.6 0.9 0.65 1.9 Q0.7 4.0 0.0 5.55 L-0.55 2.05 -1.1 -0.1 -1.2 -0.4 -2.05 -2.8 M10.25 13.35 Q9.7 8.1 5.25 7.75 L6.1 6.85 6.7 5.55 Q11.25 7.25 10.25 13.35 M-3.35 7.7 Q-7.95 7.95 -7.8 13.6 -9.45 8.35 -5.4 5.4 L-4.95 6.15 -3.95 7.25 -3.85 7.35 -3.35 7.7" fill="#332851" fill-rule="evenodd" stroke="none"/>
    <path d="M-5.75 3.95 Q-5.85 2.75 -5.05 1.7 -4.35 0.8 -3.2 0.35 L-3.2 0.4 -2.4 2.3 Q-1.5 3.95 0.0 5.55 0.7 4.0 0.65 1.9 L0.6 0.9 0.55 0.75 0.5 0.2 0.45 0.05 1.7 0.45 Q3.6 1.35 4.15 3.0 4.8 4.65 3.75 6.1 3.5 6.4 3.55 6.75 -1.55 8.35 -3.3 7.65 L-3.4 7.55 -3.85 7.35 -3.95 7.25 -4.95 6.15 -5.4 5.4 -5.45 5.3 -5.45 5.25 -5.75 3.95 M-5.4 5.4 L-5.45 5.25 -5.4 5.4" fill="#5a7e5f" fill-rule="evenodd" stroke="none"/>
    <path d="M0.4 -0.5 Q1.95 -0.5 3.45 0.25 5.75 1.3 6.55 3.25 L6.75 3.95 Q6.95 4.75 6.7 5.55 L6.1 6.85 5.25 7.75 5.15 7.8 3.75 8.6 Q0.6 9.3 -1.3 8.6 -3.2 7.9 -3.35 7.7 L-3.85 7.35 -3.4 7.55 -3.3 7.65 Q-1.55 8.35 3.55 6.75 3.5 6.4 3.75 6.1 4.8 4.65 4.15 3.0 3.6 1.35 1.7 0.45 L0.45 0.05 0.4 -0.5 M-5.05 1.7 Q-4.35 0.75 -3.25 0.2 L-3.2 0.35 Q-4.35 0.8 -5.05 1.7" fill="#536255" fill-rule="evenodd" stroke="none"/>
    <path d="M0.4 -0.5 Q1.95 -0.5 3.45 0.25 5.75 1.3 6.55 3.25 L6.75 3.95 Q6.95 4.75 6.7 5.55 L6.1 6.85 5.25 7.75 M5.15 7.8 L3.75 8.6 Q0.6 9.3 -1.3 8.6 -3.2 7.9 -3.35 7.7 L-3.85 7.35 -3.95 7.25 -4.95 6.15 -5.4 5.4 -5.45 5.3 -5.45 5.25 -5.75 3.95 Q-5.85 2.75 -5.05 1.7 -4.35 0.75 -3.25 0.2" fill="none" stroke="#374e32" stroke-linecap="round" stroke-linejoin="round" stroke-width="0.05"/>
    <path d="M6.75 3.95 Q13.65 6.6 10.25 13.35 9.7 8.1 5.25 7.75 L5.15 7.8 M-3.35 7.7 Q-7.95 7.95 -7.8 13.6 -12.2 6.6 -5.75 3.95 M-5.45 5.25 L-5.4 5.4" fill="none" stroke="#262040" stroke-linecap="round" stroke-linejoin="round" stroke-width="0.05"/>
    <path d="M-2.05 -2.8 L-1.95 -2.9 -1.9 -2.9 -1.75 -2.8 Q-1.0 -2.45 -0.4 -1.85 L0.3 -0.8 0.35 -0.7 0.35 -0.6 0.4 -0.5 0.45 0.05 0.5 0.2 0.55 0.75 0.6 0.9 0.65 1.9 Q0.7 4.0 0.0 5.55 -1.5 3.95 -2.4 2.3 L-3.2 0.4 -3.2 0.35 -3.25 0.2 -3.3 -0.15 Q-3.6 -1.65 -2.05 -2.8" fill="none" stroke="#262040" stroke-linecap="round" stroke-linejoin="round" stroke-width="0.05"/>
  </g>
</svg>
