<?xml version="1.0" encoding="UTF-8" standalone="no"?>
<svg xmlns:xlink="http://www.w3.org/1999/xlink" height="23.25px" width="24.05px" xmlns="http://www.w3.org/2000/svg">
  <g transform="matrix(1.0, 0.0, 0.0, 1.0, 9.3, 18.85)">
    <path d="M6.55 -18.15 L7.75 -18.2 8.4 -17.35 8.5 -17.2 Q9.2 -13.05 6.65 -9.15 L4.9 -6.95 4.8 -6.9 -1.3 -7.05 -1.35 -7.05 -1.6 -8.7 2.2 -9.1 4.35 -8.7 4.85 -9.45 Q7.9 -14.8 6.55 -18.15 M-4.9 2.7 Q-6.6 2.5 -6.65 1.35 L-5.0 0.15 Q-5.4 -2.35 -4.85 -4.35 -4.3 -6.4 -3.15 -7.65 L-1.35 -7.05 Q-3.0 -6.35 -4.3 -4.7 -5.15 -3.05 -3.9 -1.1 -3.3 -0.15 -2.2 0.85 L-4.9 2.7" fill="#8253c4" fill-rule="evenodd" stroke="none"/>
    <path d="M8.5 -17.2 Q10.1 -16.35 11.3 -15.15 13.15 -13.3 14.1 -10.8 L14.3 -10.05 Q15.05 -7.4 14.6 -4.9 14.2 -2.95 13.05 -1.05 L11.45 1.1 Q10.0 2.65 8.5 2.85 L4.5 3.1 Q2.9 3.1 1.35 3.9 -0.25 4.65 -1.4 4.3 -2.8 3.9 -4.1 3.15 L-4.9 2.7 -2.2 0.85 Q-3.3 -0.15 -3.9 -1.1 -5.15 -3.05 -4.3 -4.7 -3.0 -6.35 -1.35 -7.05 L-1.3 -7.05 4.8 -6.9 4.9 -6.95 6.65 -9.15 Q9.2 -13.05 8.5 -17.2 M9.95 1.65 L10.2 0.9 Q11.85 -1.8 11.1 -4.65 10.35 -7.5 7.7 -8.75 L7.25 -8.95 Q6.0 -6.55 4.25 -4.9 L3.7 -5.55 Q2.5 -6.8 0.7 -6.8 -1.1 -6.85 -2.4 -5.7 -3.75 -4.6 -3.85 -2.9 L-3.8 -1.95 Q-3.6 -0.85 -2.75 0.0 -1.95 0.8 -0.9 1.05 -1.8 2.15 -2.75 2.3 L-1.25 3.75 Q2.2 2.5 5.45 2.35 L9.15 2.05 9.65 1.8 9.95 1.65 11.45 1.1 9.95 1.65" fill="#536255" fill-rule="evenodd" stroke="none"/>
    <path d="M4.25 -4.9 Q6.0 -6.55 7.25 -8.95 L7.7 -8.75 Q10.35 -7.5 11.1 -4.65 11.85 -1.8 10.2 0.9 L9.95 1.65 9.65 1.8 9.15 2.05 5.45 2.35 Q2.2 2.5 -1.25 3.75 L-2.75 2.3 Q-1.8 2.15 -0.9 1.05 L0.25 1.2 1.1 1.15 1.75 1.0 Q2.5 0.85 3.25 0.2 L4.0 -2.4 4.25 -4.9 M6.6 1.2 L8.45 1.4 Q9.1 2.0 9.65 1.8 9.1 2.0 8.45 1.4 L6.6 1.2 M-1.2 -1.1 L-1.15 -1.1 -1.15 -1.05 -1.2 -1.1 M8.15 -4.8 Q9.8 -2.5 7.25 -0.05 L6.75 -1.75 7.25 -0.05 Q9.8 -2.5 8.15 -4.8 M7.25 -0.05 L8.45 1.4 7.25 -0.05" fill="#5a7e5f" fill-rule="evenodd" stroke="none"/>
    <path d="M-6.65 1.35 Q-9.05 -0.85 -9.25 -4.15 -9.45 -7.5 -8.05 -12.15 -6.65 -16.8 -1.9 -18.15 2.85 -19.5 6.55 -18.15 7.9 -14.8 4.85 -9.45 L4.35 -8.7 2.2 -9.1 -1.6 -8.7 -1.35 -7.05 -3.15 -7.65 Q-4.3 -6.4 -4.85 -4.35 -5.4 -2.35 -5.0 0.15 L-6.65 1.35 M-3.45 -7.75 L-3.15 -7.65 -3.45 -7.75" fill="#533731" fill-rule="evenodd" stroke="none"/>
    <path d="M-1.2 -1.1 L-1.45 -1.9 Q-1.6 -2.8 -1.05 -3.55 -0.5 -4.3 0.45 -4.45 1.4 -4.6 1.75 -3.85 L2.4 -2.25 Q2.7 -1.35 2.45 -0.7 2.15 -0.1 1.15 0.05 L0.75 0.05 0.85 -0.05 Q1.1 -0.45 0.95 -0.9 L0.45 -1.55 -0.45 -1.65 -1.15 -1.1 -1.2 -1.1" fill="#473838" fill-rule="evenodd" stroke="none"/>
    <path d="M-0.9 1.05 Q-1.95 0.8 -2.75 0.0 -3.6 -0.85 -3.8 -1.95 L-3.85 -2.9 Q-3.75 -4.6 -2.4 -5.7 -1.1 -6.85 0.7 -6.8 2.5 -6.8 3.7 -5.55 L4.25 -4.9 4.0 -2.4 3.25 0.2 Q2.5 0.85 1.75 1.0 L1.1 1.15 0.25 1.2 -0.9 1.05 M0.75 0.05 L1.15 0.05 Q2.15 -0.1 2.45 -0.7 2.7 -1.35 2.4 -2.25 L1.75 -3.85 Q1.4 -4.6 0.45 -4.45 -0.5 -4.3 -1.05 -3.55 -1.6 -2.8 -1.45 -1.9 L-1.2 -1.1 -1.15 -1.05 -1.25 -0.35 -0.7 0.3 0.1 0.4 0.75 0.05" fill="#5f4c4a" fill-rule="evenodd" stroke="none"/>
    <path d="M-1.15 -1.1 L-0.45 -1.65 0.45 -1.55 0.95 -0.9 Q1.1 -0.45 0.85 -0.05 L0.75 0.05 0.1 0.4 -0.7 0.3 -1.25 -0.35 -1.15 -1.05 -1.15 -1.1" fill="#997e7d" fill-rule="evenodd" stroke="none"/>
    <path d="M6.55 -18.15 L7.75 -18.2 8.4 -17.35 8.5 -17.2 Q9.2 -13.05 6.65 -9.15 L4.9 -6.95 4.8 -6.9 -1.3 -7.05 -1.35 -7.05 -3.15 -7.65 Q-4.3 -6.4 -4.85 -4.35 -5.4 -2.35 -5.0 0.15 L-6.65 1.35 Q-9.05 -0.85 -9.25 -4.15 -9.45 -7.5 -8.05 -12.15 -6.65 -16.8 -1.9 -18.15 2.85 -19.5 6.55 -18.15 7.9 -14.8 4.85 -9.45 L4.35 -8.7 2.2 -9.1 -1.6 -8.7 -1.35 -7.05 Q-3.0 -6.35 -4.3 -4.7 -5.15 -3.05 -3.9 -1.1 -3.3 -0.15 -2.2 0.85 L-4.9 2.7 Q-6.6 2.5 -6.65 1.35 M-3.15 -7.65 L-3.45 -7.75" fill="none" stroke="#262040" stroke-linecap="round" stroke-linejoin="round" stroke-width="0.05"/>
    <path d="M-0.9 1.05 Q-1.95 0.8 -2.75 0.0 -3.6 -0.85 -3.8 -1.95 L-3.85 -2.9 Q-3.75 -4.6 -2.4 -5.7 -1.1 -6.85 0.7 -6.8 2.5 -6.8 3.7 -5.55 L4.25 -4.9 4.0 -2.4 3.25 0.2 Q2.5 0.85 1.75 1.0 L1.1 1.15 0.25 1.2 -0.9 1.05" fill="none" stroke="#613736" stroke-linecap="round" stroke-linejoin="round" stroke-width="0.05"/>
    <path d="M8.5 -17.2 Q10.1 -16.35 11.3 -15.15 13.15 -13.3 14.1 -10.8 L14.3 -10.05 Q15.05 -7.4 14.6 -4.9 14.2 -2.95 13.05 -1.05 L11.45 1.1 Q10.0 2.65 8.5 2.85 L4.5 3.1 Q2.9 3.1 1.35 3.9 -0.25 4.65 -1.4 4.3 -2.8 3.9 -4.1 3.15 L-4.9 2.7 M9.95 1.65 L11.45 1.1 M9.65 1.8 Q9.1 2.0 8.45 1.4 L6.6 1.2 M6.75 -1.75 L7.25 -0.05 Q9.8 -2.5 8.15 -4.8 M9.95 1.65 L9.65 1.8 M8.45 1.4 L7.25 -0.05" fill="none" stroke="#374e32" stroke-linecap="round" stroke-linejoin="round" stroke-width="0.05"/>
  </g>
</svg>
