<?xml version="1.0" encoding="UTF-8" standalone="no"?>
<svg xmlns:xlink="http://www.w3.org/1999/xlink" height="27.15px" width="27.4px" xmlns="http://www.w3.org/2000/svg">
  <g transform="matrix(1.0, 0.0, 0.0, 1.0, 14.15, 14.2)">
    <path d="M-7.65 -12.3 L-7.7 -13.5 -6.95 -13.3 -7.0 -12.75 -7.65 -12.3" fill="#537557" fill-rule="evenodd" stroke="none"/>
    <path d="M-4.45 -11.25 L-2.3 -10.85 -0.7 -10.8 Q0.4 -10.95 1.0 -11.55 L2.05 -12.85 2.05 -12.9 4.5 -8.15 5.15 -7.8 Q6.85 -6.5 8.5 -3.25 10.1 -0.05 8.85 4.3 4.05 6.1 -3.9 5.5 -6.1 1.5 -4.8 -1.6 L-6.15 -2.1 Q-6.15 -7.95 -4.45 -11.25 -6.15 -7.95 -6.15 -2.1 L-7.4 -2.4 -6.6 4.7 Q-5.55 6.85 -12.1 2.9 L-11.9 2.65 -12.1 2.9 -12.15 2.85 Q-12.95 2.0 -13.4 0.3 L-13.6 -0.7 -13.55 -1.25 -13.25 -3.3 Q-13.0 -4.9 -11.8 -7.05 -10.7 -9.2 -8.85 -10.55 L-8.9 -10.55 -8.85 -10.6 -8.8 -10.65 -8.65 -10.8 -8.5 -10.95 -7.9 -11.45 -7.8 -11.95 -7.65 -11.95 -7.65 -12.3 -7.0 -12.75 -6.05 -11.95 Q-5.35 -11.55 -4.45 -11.25 M4.25 9.15 Q1.3 11.75 -0.65 12.0 -2.75 12.25 -3.4 11.6 -4.3 9.6 -4.45 7.3 L7.15 6.75 4.25 9.15 M-5.15 11.3 Q-7.1 10.5 -9.1 7.9 L-11.4 4.75 Q-8.15 6.75 -6.4 6.75 L-5.15 11.3" fill="#5a7e5f" fill-rule="evenodd" stroke="none"/>
    <path d="M-6.15 -2.1 L-4.8 -1.6 Q-6.1 1.5 -3.9 5.5 4.05 6.1 8.85 4.3 10.1 -0.05 8.5 -3.25 6.85 -6.5 5.15 -7.8 L4.5 -8.15 2.05 -12.9 9.4 -9.15 13.25 3.15 13.2 4.8 Q10.45 9.45 5.35 11.8 L4.95 11.95 Q3.05 12.8 0.9 12.95 L0.8 12.95 0.3 12.95 -4.4 12.25 -7.05 11.0 -8.35 10.0 Q-11.05 7.1 -12.55 3.55 L-12.55 3.5 -12.85 2.65 -13.4 0.3 Q-12.95 2.0 -12.15 2.85 L-12.1 2.9 -11.9 2.65 -12.1 2.9 Q-5.55 6.85 -6.6 4.7 L-7.4 -2.4 -6.15 -2.1 Q-6.7 2.9 -5.45 6.8 7.25 6.95 13.2 4.8 7.25 6.95 -5.45 6.8 -6.7 2.9 -6.15 -2.1 M-13.6 -0.7 L-13.6 -1.95 -13.15 -6.0 -12.75 -7.55 Q-11.75 -10.95 -10.7 -12.05 L-7.8 -11.95 -7.9 -11.45 -8.5 -10.95 -8.65 -10.8 -8.8 -10.65 -8.85 -10.6 -8.9 -10.55 -8.85 -10.55 Q-10.7 -9.2 -11.8 -7.05 -13.0 -4.9 -13.25 -3.3 L-13.55 -1.25 -13.6 -0.7 M4.25 9.15 L7.15 6.75 -4.45 7.3 Q-4.3 9.6 -3.4 11.6 -2.75 12.25 -0.65 12.0 1.3 11.75 4.25 9.15 M-4.4 12.25 Q-5.4 9.2 -5.45 6.8 L-6.4 6.45 -8.9 5.45 -9.4 5.2 -11.65 4.05 -12.25 3.7 -12.5 3.55 -12.55 3.5 -12.5 3.55 -12.25 3.7 -11.65 4.05 -9.4 5.2 -8.9 5.45 -6.4 6.45 -5.45 6.8 Q-5.4 9.2 -4.4 12.25 M-5.15 11.3 L-6.4 6.75 Q-8.15 6.75 -11.4 4.75 L-9.1 7.9 Q-7.1 10.5 -5.15 11.3" fill="#536255" fill-rule="evenodd" stroke="none"/>
    <path d="M-4.45 -11.25 Q-6.15 -7.95 -6.15 -2.1 -6.7 2.9 -5.45 6.8 7.25 6.95 13.2 4.8 10.45 9.45 5.35 11.8 L4.95 11.95 M13.25 3.15 L13.2 4.8 M-8.35 10.0 Q-11.05 7.1 -12.55 3.55 L-12.55 3.5 -12.85 2.65 -13.4 0.3 -13.6 -0.7 -13.6 -1.95 -13.15 -6.0 -12.75 -7.55 Q-11.75 -10.95 -10.7 -12.05 M-7.7 -13.5 L-6.95 -13.3 M-12.55 3.5 L-12.5 3.55 -12.25 3.7 -11.65 4.05 -9.4 5.2 -8.9 5.45 -6.4 6.45 -5.45 6.8 Q-5.4 9.2 -4.4 12.25" fill="none" stroke="#374e32" stroke-linecap="round" stroke-linejoin="round" stroke-width="0.05"/>
    <path d="M9.4 -9.15 L13.25 3.15 M4.95 11.95 Q3.05 12.8 0.9 12.95 M0.8 12.95 L0.3 12.95" fill="none" stroke="#553e35" stroke-linecap="round" stroke-linejoin="round" stroke-width="0.05"/>
    <path d="M0.3 12.95 L-4.4 12.25 -7.05 11.0 -8.35 10.0" fill="none" stroke="#553e35" stroke-linecap="round" stroke-linejoin="round" stroke-width="0.05"/>
    <path d="M-6.4 9.1 L-6.35 9.1 -6.1 9.1 Q-5.05 9.15 -4.35 8.2 -3.65 7.3 -3.7 5.95 -3.7 4.6 -4.55 3.6 -5.3 2.65 -6.35 2.6 -7.15 2.55 -7.7 3.05 L-8.1 3.4 Q-8.7 4.3 -8.75 5.45 -8.75 4.35 -8.3 3.5 L-7.9 2.85 Q-7.0 1.8 -5.75 1.9 -4.45 1.95 -3.5 3.1 -2.5 4.25 -2.5 5.75 -2.4 7.3 -3.3 8.35 -4.2 9.35 -5.5 9.3 L-6.4 9.1" fill="#536255" fill-rule="evenodd" stroke="none"/>
    <path d="M-8.75 5.45 Q-8.7 4.3 -8.1 3.4 L-7.7 3.05 Q-7.15 2.55 -6.35 2.6 -5.3 2.65 -4.55 3.6 -3.7 4.6 -3.7 5.95 -3.65 7.3 -4.35 8.2 -5.05 9.15 -6.1 9.1 L-6.35 9.1 -6.4 9.1 -7.25 8.6 -7.7 8.1 Q-8.65 6.95 -8.75 5.45" fill="#5a7e5f" fill-rule="evenodd" stroke="none"/>
    <path d="M-6.4 9.1 L-5.5 9.3 Q-4.2 9.35 -3.3 8.35 -2.4 7.3 -2.5 5.75 -2.5 4.25 -3.5 3.1 -4.45 1.95 -5.75 1.9 -7.0 1.8 -7.9 2.85 L-8.3 3.5 Q-8.75 4.35 -8.75 5.45 -8.65 6.95 -7.7 8.1 L-7.25 8.6 -6.4 9.1 Z" fill="none" stroke="#374e32" stroke-linecap="round" stroke-linejoin="round" stroke-width="0.05"/>
    <path d="M-13.85 -5.55 L-6.15 -1.5 1.7 -2.5 Q3.7 -3.75 6.5 -6.55 9.3 -5.55 11.6 -5.8 L11.9 -5.05 11.6 -5.85 Q12.4 -4.85 12.05 -4.2 11.65 -3.6 7.8 -4.9 4.4 -2.0 2.15 -1.1 L-6.1 -0.15 -14.0 -3.95 Q-14.35 -5.35 -13.85 -5.55" fill="#8253c4" fill-rule="evenodd" stroke="none"/>
    <path d="M-13.85 -5.55 Q-11.05 -14.75 -6.5 -14.15 -4.45 -11.85 1.75 -13.95 L2.7 -13.8 Q7.75 -12.85 9.1 -10.9 10.15 -9.35 11.6 -5.85 L11.6 -5.8 Q9.3 -5.55 6.5 -6.55 3.7 -3.75 1.7 -2.5 L-6.15 -1.5 -13.85 -5.55" fill="#533731" fill-rule="evenodd" stroke="none"/>
    <path d="M11.6 -5.8 L11.6 -5.85 Q10.15 -9.35 9.1 -10.9 7.75 -12.85 2.7 -13.8 L1.75 -13.95 Q-4.45 -11.85 -6.5 -14.15 -11.05 -14.75 -13.85 -5.55 L-6.15 -1.5 1.7 -2.5 Q3.7 -3.75 6.5 -6.55 9.3 -5.55 11.6 -5.8 L11.6 -5.85 Q12.4 -4.85 12.05 -4.2 11.65 -3.6 7.8 -4.9 4.4 -2.0 2.15 -1.1 L-6.1 -0.15 -14.0 -3.95 Q-14.35 -5.35 -13.85 -5.55" fill="none" stroke="#262040" stroke-linecap="round" stroke-linejoin="round" stroke-width="0.05"/>
    <path d="M-6.25 -3.85 L-5.05 -1.45 -6.5 0.75 -7.5 -1.75 -6.25 -3.85" fill="#cccccc" fill-rule="evenodd" stroke="none"/>
    <path d="M-6.5 0.75 L-5.05 -1.45 -6.25 -3.85 -6.05 -4.2 -4.7 -1.45 -6.35 1.05 -6.5 0.75" fill="#999999" fill-rule="evenodd" stroke="none"/>
    <path d="M-6.5 0.75 L-6.35 1.05 -4.7 -1.45 -6.05 -4.2 -6.25 -3.85 -7.5 -1.75 -6.5 0.75 Z" fill="none" stroke="#666666" stroke-linecap="round" stroke-linejoin="round" stroke-width="0.05"/>
  </g>
</svg>
