<?xml version="1.0" encoding="UTF-8" standalone="no"?>
<svg xmlns:xlink="http://www.w3.org/1999/xlink" height="21.3px" width="10.7px" xmlns="http://www.w3.org/2000/svg">
  <g transform="matrix(1.0, 0.0, 0.0, 1.0, 1.7, 11.2)">
    <path d="M3.45 -6.05 L4.5 -6.0 5.5 -5.75 5.0 -2.45 5.45 -2.05 Q5.95 -1.85 6.15 -2.3 L6.15 -5.45 Q7.1 -4.9 7.9 -3.45 9.15 -1.2 8.85 1.75 L8.75 2.6 5.35 4.85 Q3.8 2.15 1.35 0.85 L1.55 -0.1 1.85 -0.3 2.1 -0.9 2.1 -1.4 2.1 -1.5 1.95 -1.8 2.0 -2.05 Q2.55 -3.95 3.45 -6.05 M0.2 -3.95 L0.8 -10.85 0.9 -4.7 0.9 -3.5 0.9 -3.35 0.8 -3.15 0.55 -3.1 0.35 -3.25 0.3 -3.35 0.3 -3.45 0.2 -3.95" fill="#869189" fill-rule="evenodd" stroke="none"/>
    <path d="M5.5 -5.75 L6.55 -11.2 Q6.15 -7.85 6.15 -5.45 L6.15 -2.3 Q5.95 -1.85 5.45 -2.05 L5.0 -2.45 5.5 -5.75" fill="#727a74" fill-rule="evenodd" stroke="none"/>
    <path d="M1.35 0.85 L0.4 1.1 Q-0.5 1.5 -0.7 2.95 L-0.85 4.0 -1.25 3.25 -1.35 1.5 Q-1.45 -0.05 -1.2 -0.75 L-1.2 -0.8 -0.85 -2.05 0.2 -3.95 0.3 -3.45 0.3 -3.35 0.35 -3.25 0.55 -3.1 0.8 -3.15 0.9 -3.35 0.9 -3.5 0.9 -4.7 Q2.05 -5.85 3.45 -6.05 2.55 -3.95 2.0 -2.05 L1.95 -1.8 1.85 -1.8 Q1.7 -1.85 1.55 -1.6 L1.35 -1.05 1.3 -0.85 1.35 -0.4 Q1.4 -0.15 1.55 -0.1 L1.35 0.85" fill="#9fa8a2" fill-rule="evenodd" stroke="none"/>
    <path d="M8.75 2.6 Q9.55 3.0 7.6 4.5 L5.4 6.25 5.85 5.7 5.4 4.9 5.35 4.85 8.75 2.6 M-0.85 4.0 L-0.9 4.65 Q-1.6 3.75 -1.25 3.25 L-0.85 4.0 M1.95 -1.8 L2.1 -1.5 2.1 -1.4 2.1 -0.9 1.85 -0.3 1.55 -0.1 Q1.4 -0.15 1.35 -0.4 L1.3 -0.85 1.35 -1.05 1.55 -1.6 Q1.7 -1.85 1.85 -1.8 L1.95 -1.8 M1.8 -1.55 L1.8 -1.6 1.6 -1.45 1.5 -1.1 1.45 -0.8 1.5 -0.75 1.55 -0.6 1.6 -0.6 1.8 -0.7 1.9 -1.05 1.95 -1.15 1.9 -1.4 1.9 -1.5 1.8 -1.55" fill="#6a756d" fill-rule="evenodd" stroke="none"/>
    <path d="M1.8 -1.55 L1.9 -1.5 1.9 -1.4 1.95 -1.15 1.9 -1.05 1.8 -0.7 1.6 -0.6 1.55 -0.6 1.5 -0.75 1.45 -0.8 1.5 -1.1 1.6 -1.45 1.8 -1.6 1.8 -1.55" fill="#a3aba5" fill-rule="evenodd" stroke="none"/>
    <path d="M3.45 -6.05 L4.5 -6.0 5.5 -5.75 6.55 -11.2 Q6.15 -7.85 6.15 -5.45 7.1 -4.9 7.9 -3.45 9.15 -1.2 8.85 1.75 L8.75 2.6 Q9.55 3.0 7.6 4.5 L5.4 6.25 M-0.9 4.65 Q-1.6 3.75 -1.25 3.25 L-1.35 1.5 M-1.2 -0.8 L-0.85 -2.05 0.2 -3.95 0.8 -10.85 0.9 -4.7 Q2.05 -5.85 3.45 -6.05 M1.95 -1.8 L2.1 -1.5 2.1 -1.4 2.1 -0.9 1.85 -0.3 1.55 -0.1 Q1.4 -0.15 1.35 -0.4 L1.3 -0.85 1.35 -1.05 1.55 -1.6 Q1.7 -1.85 1.85 -1.8 L1.95 -1.8 M0.9 -4.7 L0.9 -3.5 0.9 -3.35 0.8 -3.15 0.55 -3.1 0.35 -3.25 0.3 -3.35 0.3 -3.45 0.2 -3.95 M5.5 -5.75 L5.0 -2.45 5.45 -2.05 Q5.95 -1.85 6.15 -2.3 L6.15 -5.45 M5.35 4.85 L8.75 2.6 M-1.25 3.25 L-0.85 4.0" fill="none" stroke="#666666" stroke-linecap="round" stroke-linejoin="round" stroke-width="0.05"/>
    <path d="M-1.35 1.5 Q-1.45 -0.05 -1.2 -0.75 L-1.2 -0.8" fill="none" stroke="#666666" stroke-linecap="round" stroke-linejoin="round" stroke-width="0.05"/>
    <path d="M7.2 4.15 Q6.65 4.7 6.05 4.85 L5.05 4.5 Q4.65 4.05 4.8 3.35 4.95 2.6 5.5 2.0 6.05 1.4 6.7 1.3 7.3 1.2 7.7 1.65 8.05 2.1 7.9 2.8 7.75 3.55 7.2 4.15" fill="#c8d951" fill-rule="evenodd" stroke="none"/>
    <path d="M7.2 4.15 Q6.65 4.7 6.05 4.85 L5.05 4.5 Q4.65 4.05 4.8 3.35 4.95 2.6 5.5 2.0 6.05 1.4 6.7 1.3 7.3 1.2 7.7 1.65 8.05 2.1 7.9 2.8 7.75 3.55 7.2 4.15 Z" fill="none" stroke="#824740" stroke-linecap="round" stroke-linejoin="round" stroke-width="0.05"/>
    <path d="M7.15 3.45 L7.5 3.45 7.1 4.0 Q6.65 4.5 6.15 4.55 L5.3 4.3 Q5.0 3.95 5.15 3.3 5.2 2.75 5.7 2.25 6.1 1.75 6.7 1.7 7.2 1.6 7.45 1.95 L7.65 2.2 7.3 2.05 6.8 2.2 6.5 2.65 6.7 3.2 7.15 3.45" fill="#114811" fill-rule="evenodd" stroke="none"/>
    <path d="M-0.15 2.75 Q-0.2 3.25 -0.4 3.35 L-0.45 3.4 Q-0.7 3.5 -1.05 3.1 L-1.55 2.15 -1.7 1.1 -1.6 0.5 -1.45 0.35 -1.35 0.3 -0.85 0.6 Q-0.5 0.95 -0.3 1.6 L-0.15 2.75" fill="#c8d951" fill-rule="evenodd" stroke="none"/>
    <path d="M-0.15 2.75 Q-0.2 3.25 -0.4 3.35 L-0.45 3.4 Q-0.7 3.5 -1.05 3.1 L-1.55 2.15 -1.7 1.1 -1.6 0.5 -1.45 0.35 -1.35 0.3 -0.85 0.6 Q-0.5 0.95 -0.3 1.6 L-0.15 2.75 Z" fill="none" stroke="#824740" stroke-linecap="round" stroke-linejoin="round" stroke-width="0.05"/>
    <path d="M-1.6 1.05 L-1.25 0.65 -1.1 0.65 -1.25 0.8 -1.3 1.2 -1.1 1.6 -0.8 1.7 -0.6 1.5 -0.55 1.3 -0.35 1.8 -0.25 2.75 -0.6 3.15 -1.1 2.8 -1.5 1.95 -1.6 1.05" fill="#114811" fill-rule="evenodd" stroke="none"/>
    <path d="M1.35 0.85 Q3.8 2.15 5.35 4.85 L5.4 4.9 5.85 5.7 5.4 6.25 Q3.8 8.45 1.4 9.65 L0.3 10.1 0.25 9.45 Q0.05 7.7 0.2 5.95 L0.35 4.75 0.45 4.15 0.65 3.25 0.65 3.2 1.35 0.85" fill="#869189" fill-rule="evenodd" stroke="none"/>
    <path d="M1.35 0.85 L0.65 3.2 0.65 3.25 0.45 4.15 0.35 4.75 0.2 5.95 Q0.05 7.7 0.25 9.45 L0.3 10.1 -0.1 9.4 Q-1.15 7.55 -0.95 4.85 L-0.9 4.65 -0.85 4.0 -0.7 2.95 Q-0.5 1.5 0.4 1.1 L1.35 0.85" fill="#9fa8a2" fill-rule="evenodd" stroke="none"/>
    <path d="M0.3 10.1 L1.4 9.65 Q3.8 8.45 5.4 6.25 L5.85 5.7 5.4 4.9 5.35 4.85 Q3.8 2.15 1.35 0.85 L0.65 3.2 0.65 3.25 0.45 4.15 0.35 4.75 0.2 5.95 Q0.05 7.7 0.25 9.45 L0.3 10.1 -0.1 9.4 Q-1.15 7.55 -0.95 4.85 L-0.9 4.65 -0.85 4.0 -0.7 2.95 Q-0.5 1.5 0.4 1.1 L1.35 0.85" fill="none" stroke="#666666" stroke-linecap="round" stroke-linejoin="round" stroke-width="0.05"/>
  </g>
</svg>
