<?xml version="1.0" encoding="UTF-8" standalone="no"?>
<svg xmlns:xlink="http://www.w3.org/1999/xlink" height="235.35px" width="243.55px" xmlns="http://www.w3.org/2000/svg">
  <g transform="matrix(1.0, 0.0, 0.0, 1.0, 121.75, 117.65)">
    <path d="M104.1 6.35 L70.95 20.0 -12.2 54.25 -47.85 68.95 -69.25 61.65 94.55 -3.4 104.1 6.35" fill="#204020" fill-rule="evenodd" stroke="none"/>
    <path d="M70.95 20.0 L104.1 6.35 Q125.35 37.35 121.1 46.9 L70.95 20.0 121.1 46.9 -7.9 108.1 Q-66.4 128.8 -79.55 104.9 -81.45 74.15 -69.3 61.65 L-69.25 61.65 -47.85 68.95 -12.2 54.25 70.95 20.0 M-12.2 54.25 L-7.9 108.1 -12.2 54.25" fill="#2b552b" fill-rule="evenodd" stroke="none"/>
    <path d="M104.1 6.35 L70.95 20.0 121.1 46.9 Q125.35 37.35 104.1 6.35 L94.55 -3.4 -69.25 61.65 -47.85 68.95 -12.2 54.25 70.95 20.0 M121.1 46.9 L-7.9 108.1 Q-66.4 128.8 -79.55 104.9 -81.45 74.15 -69.3 61.65 L-69.25 61.65 M-7.9 108.1 L-12.2 54.25" fill="none" stroke="#234020" stroke-linecap="round" stroke-linejoin="round" stroke-width="0.05"/>
    <path d="M57.95 -101.85 L52.55 -102.85 52.7 -103.35 57.95 -101.85" fill="#666600" fill-rule="evenodd" stroke="none"/>
    <path d="M52.55 -102.85 L57.95 -101.85 Q62.65 -100.7 67.05 -98.65 79.55 -92.8 89.6 -79.45 105.55 -58.15 106.65 -29.25 L106.7 -23.35 Q106.25 9.35 88.05 32.1 69.85 54.9 44.55 54.45 34.35 54.25 28.95 52.95 L29.25 53.0 27.65 52.6 Q25.45 51.9 24.2 51.05 8.1 39.1 1.7 30.55 -15.9 7.1 -15.4 -25.55 -15.35 -31.2 -14.75 -36.6 -11.85 -62.2 3.2 -81.0 19.75 -101.75 42.25 -103.2 L46.75 -103.3 52.55 -102.85 M68.35 -65.95 Q64.95 -67.0 61.3 -66.9 47.7 -66.65 37.8 -51.45 27.95 -36.2 27.6 -14.85 L27.6 -11.05 Q28.05 7.8 36.55 21.3 40.7 28.0 45.8 31.65 51.95 36.1 59.45 35.95 73.05 35.7 82.9 20.5 91.1 7.85 92.8 -8.9 L93.2 -16.1 Q93.55 -37.4 84.2 -52.3 77.4 -63.15 68.35 -65.95" fill="#285128" fill-rule="evenodd" stroke="none"/>
    <path d="M27.65 52.65 L27.65 52.6 27.65 52.65" fill="#397238" fill-rule="evenodd" stroke="none"/>
    <path d="M52.7 -103.35 L52.55 -102.85 46.75 -103.3 42.25 -103.2 Q19.75 -101.75 3.2 -81.0 -11.85 -62.2 -14.75 -36.6 -15.35 -31.2 -15.4 -25.55 -15.9 7.1 1.7 30.55 8.1 39.1 24.2 51.05 25.45 51.9 27.65 52.6 L27.65 52.65 18.65 50.9 -20.6 43.25 Q-30.3 41.25 -40.6 32.85 -50.9 24.4 -57.1 16.15 -74.65 -7.3 -74.2 -39.95 -74.1 -45.6 -73.45 -50.95 -70.6 -76.55 -55.55 -95.4 -37.35 -118.15 -12.05 -117.65 L-5.45 -117.15 -3.6 -116.85 Q1.3 -115.95 5.85 -114.1 L52.7 -103.35 M68.35 -65.95 Q77.4 -63.15 84.2 -52.3 93.55 -37.4 93.2 -16.1 L92.8 -8.9 Q91.1 7.85 82.9 20.5 73.05 35.7 59.45 35.95 51.95 36.1 45.8 31.65 40.7 28.0 36.55 21.3 28.05 7.8 27.6 -11.05 L27.6 -14.85 Q27.95 -36.2 37.8 -51.45 47.7 -66.65 61.3 -66.9 64.95 -67.0 68.35 -65.95" fill="#204020" fill-rule="evenodd" stroke="none"/>
    <path d="M27.65 52.6 L28.95 52.95 27.65 52.65" fill="none" stroke="#234020" stroke-linecap="round" stroke-linejoin="round" stroke-width="0.05"/>
    <path d="M57.95 -101.85 L52.7 -103.35" fill="none" stroke="#234020" stroke-linecap="round" stroke-linejoin="round" stroke-width="0.05"/>
    <path d="M52.55 -102.85 L57.95 -101.85 Q62.65 -100.7 67.05 -98.65 79.55 -92.8 89.6 -79.45 105.55 -58.15 106.65 -29.25 L106.7 -23.35 Q106.25 9.35 88.05 32.1 69.85 54.9 44.55 54.45 34.35 54.25 28.95 52.95 L29.25 53.0 27.65 52.6 Q25.45 51.9 24.2 51.05 8.1 39.1 1.7 30.55 -15.9 7.1 -15.4 -25.55 -15.35 -31.2 -14.75 -36.6 -11.85 -62.2 3.2 -81.0 19.75 -101.75 42.25 -103.2 L46.75 -103.3 52.55 -102.85 52.7 -103.35 5.85 -114.1 Q1.3 -115.95 -3.6 -116.85 L-5.45 -117.15 -12.05 -117.65 Q-37.35 -118.15 -55.55 -95.4 -70.6 -76.55 -73.45 -50.95 -74.1 -45.6 -74.2 -39.95 -74.65 -7.3 -57.1 16.15 -50.9 24.4 -40.6 32.85 -30.3 41.25 -20.6 43.25 L18.65 50.9 27.65 52.65 27.65 52.6 M68.35 -65.95 Q77.4 -63.15 84.2 -52.3 93.55 -37.4 93.2 -16.1 L92.8 -8.9 Q91.1 7.85 82.9 20.5 73.05 35.7 59.45 35.95 51.95 36.1 45.8 31.65 40.7 28.0 36.55 21.3 28.05 7.8 27.6 -11.05 L27.6 -14.85 Q27.95 -36.2 37.8 -51.45 47.7 -66.65 61.3 -66.9 64.95 -67.0 68.35 -65.95" fill="none" stroke="#1d381d" stroke-linecap="round" stroke-linejoin="round" stroke-width="0.05"/>
    <path d="M-44.55 -77.85 L-31.65 -76.2 -30.25 -65.7 -38.25 -59.75 -49.65 -62.55 -49.85 -72.15 -44.55 -77.85 M-27.0 -54.6 L-38.45 -46.1 Q-34.1 -52.4 -36.15 -56.2 L-28.15 -62.15 -27.0 -54.6 M-56.7 -49.3 Q-59.2 -54.6 -61.5 -60.15 L-53.0 -69.6 -52.8 -60.0 Q-57.2 -58.05 -56.7 -49.3" fill="#d3d301" fill-rule="evenodd" stroke="none"/>
    <path d="M-80.25 54.85 L-108.75 23.35 Q-90.1 -7.5 -59.4 -7.7 -34.05 11.2 -17.0 50.2 -13.6 69.5 -43.85 72.9 -59.1 76.0 -75.1 60.35 L-80.25 54.85" fill="#2b552b" fill-rule="evenodd" stroke="none"/>
    <path d="M-80.25 54.85 L-108.75 23.35 Q-90.1 -7.5 -59.4 -7.7 -34.05 11.2 -17.0 50.2 -13.6 69.5 -43.85 72.9 -59.1 76.0 -75.1 60.35 L-80.25 54.85 Z" fill="none" stroke="#234020" stroke-linecap="round" stroke-linejoin="round" stroke-width="0.05"/>
    <path d="M-120.5 14.1 Q-113.5 10.65 -106.05 10.4 -116.45 18.9 -120.5 14.1 M-87.1 14.45 Q-78.05 18.5 -68.4 26.65 L-67.45 27.95 Q-62.05 35.8 -75.05 29.4 -83.85 26.4 -87.1 14.45" fill="#dd8ebc" fill-rule="evenodd" stroke="none"/>
    <path d="M-120.5 14.1 Q-116.45 18.9 -106.05 10.4 -113.5 10.65 -120.5 14.1 -119.0 3.1 -108.55 -4.8 -96.75 -13.6 -80.55 -13.25 -64.4 -13.0 -53.3 -3.75 -42.2 5.5 -42.65 18.2 -43.0 27.95 -50.0 35.4 -52.15 37.65 -54.9 39.75 -75.0 50.1 -90.6 53.65 -108.25 50.6 -119.35 40.15 -123.5 30.25 -120.5 14.1 M-67.45 27.95 L-68.4 26.65 Q-78.05 18.5 -87.1 14.45 -83.85 26.4 -75.05 29.4 -62.05 35.8 -67.45 27.95 -54.7 38.2 -54.9 39.75 -54.7 38.2 -67.45 27.95 M-106.05 10.4 Q-96.95 10.05 -87.1 14.45 -96.95 10.05 -106.05 10.4" fill="#2b552b" fill-rule="evenodd" stroke="none"/>
    <path d="M-120.5 14.1 Q-116.45 18.9 -106.05 10.4 -113.5 10.65 -120.5 14.1 -119.0 3.1 -108.55 -4.8 -96.75 -13.6 -80.55 -13.25 -64.4 -13.0 -53.3 -3.75 -42.2 5.5 -42.65 18.2 -43.0 27.95 -50.0 35.4 -52.15 37.65 -54.9 39.75 -75.0 50.1 -90.6 53.65 -108.25 50.6 -119.35 40.15 -123.5 30.25 -120.5 14.1 M-87.1 14.45 Q-78.05 18.5 -68.4 26.65 L-67.45 27.95 Q-54.7 38.2 -54.9 39.75 M-67.45 27.95 Q-62.05 35.8 -75.05 29.4 -83.85 26.4 -87.1 14.45 -96.95 10.05 -106.05 10.4" fill="none" stroke="#1d381d" stroke-linecap="round" stroke-linejoin="round" stroke-width="0.05"/>
    <path d="M-78.85 -5.6 L-29.25 -27.7 -24.0 -12.35 -76.1 12.5 -78.85 -5.6" fill="#204020" fill-rule="evenodd" stroke="none"/>
    <path d="M-99.1 -20.6 Q-94.85 -22.3 -88.9 -22.3 -82.95 -22.3 -78.75 -20.6 -74.5 -18.85 -74.5 -16.45 -74.5 -14.05 -78.75 -12.35 -82.95 -10.6 -88.9 -10.6 -94.85 -10.6 -99.1 -12.35 -103.3 -14.05 -103.3 -16.45 -103.3 -18.85 -99.1 -20.6 M-107.2 -21.75 Q-114.1 -12.35 -106.25 -9.0 -98.8 -1.9 -80.35 -5.3 L-78.85 -5.6 -76.1 12.5 -80.35 13.7 Q-108.5 20.8 -120.75 2.55 -121.5 -9.6 -107.2 -21.75" fill="#336532" fill-rule="evenodd" stroke="none"/>
    <path d="M-78.85 -5.6 L-80.35 -5.3 Q-98.8 -1.9 -106.25 -9.0 -114.1 -12.35 -107.2 -21.75 L-67.35 -36.65 -29.25 -27.7 -78.85 -5.6 M-99.1 -20.6 Q-103.3 -18.85 -103.3 -16.45 -103.3 -14.05 -99.1 -12.35 -94.85 -10.6 -88.9 -10.6 -82.95 -10.6 -78.75 -12.35 -74.5 -14.05 -74.5 -16.45 -74.5 -18.85 -78.75 -20.6 -82.95 -22.3 -88.9 -22.3 -94.85 -22.3 -99.1 -20.6" fill="#4d994d" fill-rule="evenodd" stroke="none"/>
    <path d="M-99.1 -20.6 Q-94.85 -22.3 -88.9 -22.3 -82.95 -22.3 -78.75 -20.6 -74.5 -18.85 -74.5 -16.45 -74.5 -14.05 -78.75 -12.35 -82.95 -10.6 -88.9 -10.6 -94.85 -10.6 -99.1 -12.35 -103.3 -14.05 -103.3 -16.45 -103.3 -18.85 -99.1 -20.6 M-107.2 -21.75 Q-114.1 -12.35 -106.25 -9.0 -98.8 -1.9 -80.35 -5.3 L-78.85 -5.6 -29.25 -27.7 -67.35 -36.65 -107.2 -21.75 Q-121.5 -9.6 -120.75 2.55 -108.5 20.8 -80.35 13.7 L-76.1 12.5 -78.85 -5.6 M2.3 -41.75 L2.25 -41.75 2.3 -41.75 M-29.25 -27.7 L-24.0 -12.35 -76.1 12.5" fill="none" stroke="#1d381d" stroke-linecap="round" stroke-linejoin="round" stroke-width="0.05"/>
    <path d="M-95.85 -25.95 L-95.85 -37.45 -103.05 -34.8 Q-111.9 -30.8 -110.6 -25.8 -109.7 -22.05 -103.05 -17.7 -97.05 -15.25 -90.9 -15.0 -82.5 -14.7 -73.8 -18.5 L-56.5 -26.25 -39.2 -33.95 -29.35 -38.35 -29.35 -27.25 M-110.6 -25.8 L-110.6 -14.45 M-56.5 -26.25 L-56.5 -15.55 M-39.2 -33.95 L-39.15 -23.25 M-77.6 -32.9 L-77.6 -44.1 -95.85 -37.45 M-67.35 -36.45 L-67.35 -47.9 -77.6 -44.1 M-73.8 -18.5 L-73.8 -7.85 M-90.9 -4.2 L-90.9 -15.0" fill="none" stroke="#666666" stroke-linecap="round" stroke-linejoin="round" stroke-width="0.05"/>
  </g>
</svg>
