<?xml version="1.0" encoding="UTF-8" standalone="no"?>
<svg xmlns:xlink="http://www.w3.org/1999/xlink" height="12.45px" width="17.75px" xmlns="http://www.w3.org/2000/svg">
  <g transform="matrix(1.0, 0.0, 0.0, 1.0, 0.5, 10.3)">
    <path d="M-0.5 0.35 L0.0 -1.3 Q1.7 -6.05 5.25 -8.6 8.8 -11.1 12.15 -9.9 15.5 -8.7 16.7 -4.55 17.25 -2.65 17.25 -0.65 L16.9 2.15 Q17.25 0.0 17.0 -1.95 L16.55 -3.9 Q15.3 -7.9 12.05 -9.05 8.75 -10.25 5.35 -7.8 1.95 -5.35 0.35 -0.75 L-0.05 0.5 -0.5 0.35" fill="#294876" fill-rule="evenodd" stroke="none"/>
    <path d="M-0.05 0.5 L-0.5 0.35" fill="none" stroke="#1d3450" stroke-linecap="round" stroke-linejoin="round" stroke-width="0.05"/>
    <path d="M-0.5 0.35 L0.0 -1.3 Q1.7 -6.05 5.25 -8.6 8.8 -11.1 12.15 -9.9 15.5 -8.7 16.7 -4.55 17.25 -2.65 17.25 -0.65 L16.9 2.15 Q17.25 0.0 17.0 -1.95 L16.55 -3.9 Q15.3 -7.9 12.05 -9.05 8.75 -10.25 5.35 -7.8 1.95 -5.35 0.35 -0.75 L-0.05 0.5 Z" fill="none" stroke="#1d3450" stroke-linecap="round" stroke-linejoin="round" stroke-width="0.05"/>
  </g>
</svg>
