<?xml version="1.0" encoding="UTF-8" standalone="no"?>
<svg xmlns:xlink="http://www.w3.org/1999/xlink" height="28.35px" width="26.9px" xmlns="http://www.w3.org/2000/svg">
  <g transform="matrix(1.0, 0.0, 0.0, 1.0, 17.2, 28.3)">
    <path d="M-9.6 0.05 Q-12.9 -3.0 -15.35 -6.6 L-17.2 -9.7 -16.65 -9.45 -16.0 -9.1 -15.6 -8.75 -15.05 -8.25 -14.8 -8.15 Q-14.25 -8.7 -14.75 -9.75 -16.05 -12.25 -15.3 -14.95 L-12.65 -12.6 Q-11.8 -11.9 -10.75 -11.8 L-10.05 -11.9 -7.45 -28.3 Q-6.3 -21.35 -4.4 -14.65 -4.15 -13.75 -3.1 -14.2 L-1.9 -14.7 Q1.8 -19.05 6.2 -22.55 2.5 -16.7 1.15 -9.95 5.65 -9.9 9.7 -11.85 8.7 -7.35 4.95 -6.7 3.25 -6.25 2.45 -4.8 L2.45 -4.15 5.65 -3.75 5.2 -3.35 4.45 -2.75 3.5 -2.25 2.1 0.05 -9.6 0.05" fill="url(#gradient0)" fill-rule="evenodd" stroke="none"/>
    <path d="M-9.6 0.05 Q-12.9 -3.0 -15.35 -6.6 L-17.2 -9.7 -16.65 -9.45 -16.0 -9.1 -15.6 -8.75 -15.05 -8.25 -14.8 -8.15 Q-14.25 -8.7 -14.75 -9.75 -16.05 -12.25 -15.3 -14.95 L-12.65 -12.6 Q-11.8 -11.9 -10.75 -11.8 L-10.05 -11.9 -7.45 -28.3 Q-6.3 -21.35 -4.4 -14.65 -4.15 -13.75 -3.1 -14.2 L-1.9 -14.7 Q1.8 -19.05 6.2 -22.55 2.5 -16.7 1.15 -9.95 5.65 -9.9 9.7 -11.85 8.7 -7.35 4.95 -6.7 3.25 -6.25 2.45 -4.8 L2.45 -4.15 5.65 -3.75 5.2 -3.35 4.45 -2.75 3.5 -2.25 2.1 0.05" fill="none" stroke="#e4b001" stroke-linecap="round" stroke-linejoin="round" stroke-width="0.05"/>
    <path d="M2.1 0.05 L-9.6 0.05 Z" fill="none" stroke="#e4b001" stroke-linecap="round" stroke-linejoin="round" stroke-width="0.05"/>
  </g>
  <defs>
    <radialGradient cx="0" cy="0" gradientTransform="matrix(0.0304, 0.0, 0.0, 0.0304, -5.75, -3.45)" gradientUnits="userSpaceOnUse" id="gradient0" r="819.2" spreadMethod="pad">
      <stop offset="0.30196078431372547" stop-color="#ffffff"/>
      <stop offset="0.4549019607843137" stop-color="#fffbf0"/>
      <stop offset="0.8784313725490196" stop-color="#ffff00"/>
    </radialGradient>
  </defs>
</svg>
