<?xml version="1.0" encoding="UTF-8" standalone="no"?>
<svg xmlns:xlink="http://www.w3.org/1999/xlink" height="143.05px" width="157.9px" xmlns="http://www.w3.org/2000/svg">
  <g transform="matrix(1.0, 0.0, 0.0, 1.0, 76.75, 143.0)">
    <path d="M-17.0 -20.8 Q-20.3 -25.45 -23.9 -29.75 -28.05 -34.75 -30.55 -40.75 -32.95 -46.5 -32.4 -52.7 -36.0 -56.35 -39.95 -59.55 -44.95 -63.75 -50.4 -67.3 -64.85 -76.7 -76.3 -89.7 L-71.9 -86.75 -64.1 -81.8 Q-57.8 -77.75 -52.15 -72.75 -49.0 -70.0 -45.25 -68.5 -38.15 -65.75 -31.4 -62.0 -30.7 -64.35 -28.75 -65.6 -24.65 -68.25 -19.8 -69.35 L-14.15 -70.9 Q-11.45 -71.5 -9.2 -72.95 -4.3 -76.1 1.05 -78.7 L4.55 -80.5 5.6 -81.5 7.15 -84.1 9.65 -90.7 11.75 -97.4 16.55 -113.5 20.8 -127.25 22.55 -132.45 24.3 -137.75 26.15 -143.0 24.3 -133.1 22.2 -123.2 19.7 -113.45 16.95 -103.8 14.85 -96.4 Q13.9 -92.75 13.1 -89.0 L11.7 -81.45 Q12.7 -82.2 13.85 -82.75 17.75 -84.4 22.0 -84.0 L27.7 -83.5 29.2 -82.95 30.3 -82.0 31.0 -80.7 32.65 -76.65 34.1 -72.85 35.15 -69.1 35.8 -64.8 36.1 -60.55 36.3 -54.6 41.75 -58.25 52.8 -65.2 63.95 -72.05 69.65 -75.3 75.4 -78.45 81.15 -81.55 75.3 -76.05 72.25 -73.5 Q64.4 -67.1 55.45 -62.65 44.7 -57.4 36.2 -48.55 L32.55 -44.15 Q30.85 -41.85 28.4 -40.5 24.65 -38.5 21.05 -36.3 L18.5 -34.25 Q16.5 -32.2 14.95 -29.85 13.9 -28.3 13.25 -26.55 12.35 -24.3 11.8 -21.95 L10.6 -15.7 9.55 -8.85 9.15 -6.0 9.05 -4.35 9.45 -0.1 -8.6 0.05 -7.6 -3.95 -8.5 -5.65 Q-9.45 -7.35 -11.05 -8.55 -14.0 -10.8 -16.5 -13.55 L-19.85 -17.35 -25.45 -22.9 -32.45 -28.85 -37.85 -32.85 -44.2 -37.05 -53.55 -43.05 -62.85 -49.15 -67.5 -52.25 -72.1 -55.35 -76.75 -58.55 -71.55 -56.35 Q-66.55 -54.0 -61.75 -51.2 -56.9 -48.45 -52.3 -45.25 L-39.9 -36.7 -32.3 -31.35 -24.65 -26.05 -17.0 -20.8 -16.4 -19.1 -17.0 -20.8 M-31.6 -61.35 L-31.4 -62.0 -31.6 -61.35" fill="#666666" fill-rule="evenodd" stroke="none"/>
    <path d="M-31.4 -62.0 Q-38.15 -65.75 -45.25 -68.5 -49.0 -70.0 -52.15 -72.75 -57.8 -77.75 -64.1 -81.8 L-71.9 -86.75 -76.3 -89.7 Q-64.85 -76.7 -50.4 -67.3 -44.95 -63.75 -39.95 -59.55 -36.0 -56.35 -32.4 -52.7 -32.95 -46.5 -30.55 -40.75 -28.05 -34.75 -23.9 -29.75 -20.3 -25.45 -17.0 -20.8 L-16.4 -19.1 M-17.0 -20.8 L-24.65 -26.05 -32.3 -31.35 -39.9 -36.7 -52.3 -45.25 Q-56.9 -48.45 -61.75 -51.2 -66.55 -54.0 -71.55 -56.35 L-76.75 -58.55 -72.1 -55.35 -67.5 -52.25 -62.85 -49.15 -53.55 -43.05 -44.2 -37.05 -37.85 -32.85 -32.45 -28.85 -25.45 -22.9 -19.85 -17.35 -16.5 -13.55 Q-14.0 -10.8 -11.05 -8.55 -9.45 -7.35 -8.5 -5.65 L-7.6 -3.95 -8.6 0.05 9.45 -0.1 9.05 -4.35 9.15 -6.0 9.55 -8.85 10.6 -15.7 11.8 -21.95 Q12.35 -24.3 13.25 -26.55 13.9 -28.3 14.95 -29.85 16.5 -32.2 18.5 -34.25 L21.05 -36.3 Q24.65 -38.5 28.4 -40.5 30.85 -41.85 32.55 -44.15 L36.2 -48.55 Q44.7 -57.4 55.45 -62.65 64.4 -67.1 72.25 -73.5 L75.3 -76.05 81.15 -81.55 75.4 -78.45 69.65 -75.3 63.95 -72.05 52.8 -65.2 41.75 -58.25 36.3 -54.6 36.1 -60.55 35.8 -64.8 35.15 -69.1 34.1 -72.85 32.65 -76.65 31.0 -80.7 30.3 -82.0 29.2 -82.95 27.7 -83.5 22.0 -84.0 Q17.75 -84.4 13.85 -82.75 12.7 -82.2 11.7 -81.45 L13.1 -89.0 Q13.9 -92.75 14.85 -96.4 L16.95 -103.8 19.7 -113.45 22.2 -123.2 24.3 -133.1 26.15 -143.0 24.3 -137.75 22.55 -132.45 20.8 -127.25 16.55 -113.5 11.75 -97.4 9.65 -90.7 7.15 -84.1 5.6 -81.5 4.55 -80.5 1.05 -78.7 Q-4.3 -76.1 -9.2 -72.95 -11.45 -71.5 -14.15 -70.9 L-19.8 -69.35 Q-24.65 -68.25 -28.75 -65.6 -30.7 -64.35 -31.4 -62.0 L-31.6 -61.35" fill="none" stroke="#484848" stroke-linecap="round" stroke-linejoin="round" stroke-width="0.05"/>
    <path d="M-6.15 0.05 Q-5.7 -14.3 -14.9 -24.6 L-18.2 -27.75 Q-29.8 -37.5 -30.5 -52.75 -31.15 -66.45 -18.1 -67.85 -14.75 -68.25 -12.0 -66.2 -2.7 -78.0 11.65 -79.65 28.85 -81.9 32.3 -65.15 35.65 -48.8 22.15 -39.8 18.55 -37.45 14.15 -36.3 5.65 -33.75 4.85 -23.35 4.1 -13.6 4.5 -3.7 4.6 -1.75 5.5 0.05 L-6.15 0.05 M-14.35 -60.25 Q-14.3 -62.85 -12.85 -65.05 L-12.0 -66.2 -12.85 -65.05 Q-14.3 -62.85 -14.35 -60.25" fill="url(#gradient0)" fill-rule="evenodd" stroke="none"/>
    <path d="M-6.15 0.05 Q-5.7 -14.3 -14.9 -24.6 L-18.2 -27.75 Q-29.8 -37.5 -30.5 -52.75 -31.15 -66.45 -18.1 -67.85 -14.75 -68.25 -12.0 -66.2 -2.7 -78.0 11.65 -79.65 28.85 -81.9 32.3 -65.15 35.65 -48.8 22.15 -39.8 18.55 -37.45 14.15 -36.3 5.65 -33.75 4.85 -23.35 4.1 -13.6 4.5 -3.7 4.6 -1.75 5.5 0.05 M-12.0 -66.2 L-12.85 -65.05 Q-14.3 -62.85 -14.35 -60.25" fill="none" stroke="#e4b001" stroke-linecap="round" stroke-linejoin="round" stroke-width="0.05"/>
    <path d="M5.5 0.05 L-6.15 0.05 Z" fill="none" stroke="#e4b001" stroke-linecap="round" stroke-linejoin="round" stroke-width="0.05"/>
  </g>
  <defs>
    <radialGradient cx="0" cy="0" gradientTransform="matrix(0.0697, 0.0, 0.0, 0.0697, -1.75, -27.35)" gradientUnits="userSpaceOnUse" id="gradient0" r="819.2" spreadMethod="pad">
      <stop offset="0.30196078431372547" stop-color="#ffffff"/>
      <stop offset="0.4549019607843137" stop-color="#fffbf0"/>
      <stop offset="0.8784313725490196" stop-color="#ffff00"/>
    </radialGradient>
  </defs>
</svg>
