<?xml version="1.0" encoding="UTF-8" standalone="no"?>
<svg xmlns:xlink="http://www.w3.org/1999/xlink" height="202.7px" width="218.1px" xmlns="http://www.w3.org/2000/svg">
  <g transform="matrix(1.0, 0.0, 0.0, 1.0, 112.0, 202.65)">
    <path d="M62.75 -202.2 Q59.25 -197.45 55.0 -193.55 51.4 -190.15 48.7 -186.0 L44.1 -179.2 Q38.0 -170.7 34.05 -160.9 L31.0 -153.05 Q27.2 -142.65 24.0 -131.95 21.1 -122.2 19.45 -112.3 29.1 -113.85 38.6 -112.2 L43.1 -111.35 Q52.2 -108.4 58.5 -101.25 61.15 -98.3 62.45 -94.7 63.8 -91.05 64.0 -87.2 64.2 -83.55 62.85 -80.1 L59.8 -72.05 Q58.95 -69.7 57.7 -67.45 L55.05 -63.2 53.05 -60.55 Q66.75 -69.9 79.5 -80.6 90.4 -89.75 102.4 -97.25 L106.1 -99.6 102.1 -95.7 93.7 -87.9 Q88.15 -83.0 82.35 -78.65 L75.25 -73.35 63.75 -64.8 Q59.0 -61.2 54.55 -57.2 L44.85 -47.85 Q43.05 -46.0 41.05 -44.4 L33.9 -38.9 30.0 -35.5 Q28.3 -33.65 28.1 -31.05 28.0 -29.85 27.4 -28.85 25.25 -25.5 21.95 -23.1 19.5 -21.3 17.95 -18.85 14.75 -13.7 12.65 -8.05 L9.55 0.05 -4.45 0.05 Q-1.15 -5.1 -6.8 -8.65 -8.45 -9.65 -9.65 -11.5 L-8.9 -13.35 -10.1 -15.55 Q-12.1 -18.7 -15.1 -20.95 -25.55 -28.8 -37.1 -35.25 -42.1 -38.15 -46.8 -41.35 -51.5 -44.6 -55.85 -48.5 -60.2 -52.45 -66.8 -56.7 -73.45 -60.95 -80.05 -64.55 L-92.0 -71.05 Q-97.35 -73.95 -112.0 -84.8 L-101.8 -80.85 Q-98.7 -79.6 -95.85 -77.75 L-86.35 -71.65 Q-77.85 -66.25 -69.05 -61.45 -60.4 -56.85 -52.9 -50.7 -38.45 -38.7 -22.6 -28.65 L-19.1 -26.65 Q-19.65 -31.65 -21.8 -36.2 L-25.7 -43.85 Q-29.25 -50.5 -34.5 -55.95 -42.7 -64.4 -51.7 -72.35 -56.55 -76.55 -61.85 -80.4 L-69.6 -86.3 Q-74.1 -89.95 -78.0 -94.25 -83.6 -100.25 -90.0 -105.15 -92.05 -106.65 -94.3 -107.65 -101.55 -110.95 -106.5 -117.5 -98.75 -114.3 -91.5 -110.15 -87.2 -107.6 -83.45 -104.55 -80.4 -102.0 -77.8 -99.0 L-73.65 -94.25 -69.65 -90.25 Q-53.45 -76.6 -37.75 -62.6 -35.9 -60.95 -33.9 -61.35 L-33.65 -61.6 Q-31.55 -64.0 -32.05 -67.35 L-32.9 -67.75 Q-35.85 -69.35 -38.35 -71.55 -44.1 -76.6 -47.45 -83.6 -50.9 -90.75 -49.0 -98.4 -47.0 -106.6 -39.2 -109.45 -37.1 -116.55 -31.4 -121.8 -28.65 -124.25 -25.1 -125.8 -21.65 -127.45 -18.05 -126.9 -11.15 -126.85 -4.7 -124.45 1.6 -122.05 6.7 -117.45 10.05 -114.4 12.35 -110.45 20.55 -126.15 24.6 -143.45 26.4 -151.2 28.8 -158.75 33.15 -172.35 42.1 -183.7 L48.7 -192.1 53.3 -197.5 Q55.3 -199.75 58.05 -201.05 60.05 -202.15 62.2 -202.65 L62.75 -202.2 M52.05 -58.95 L53.05 -60.55 52.05 -58.95 M-39.15 -106.55 L-39.2 -109.45 -39.15 -106.55" fill="#666666" fill-rule="evenodd" stroke="none"/>
    <path d="M62.75 -202.2 Q59.25 -197.45 55.0 -193.55 51.4 -190.15 48.7 -186.0 L44.1 -179.2 Q38.0 -170.7 34.05 -160.9 L31.0 -153.05 Q27.2 -142.65 24.0 -131.95 21.1 -122.2 19.45 -112.3 29.1 -113.85 38.6 -112.2 L43.1 -111.35 Q52.2 -108.4 58.5 -101.25 61.15 -98.3 62.45 -94.7 63.8 -91.05 64.0 -87.2 64.2 -83.55 62.85 -80.1 L59.8 -72.05 Q58.95 -69.7 57.7 -67.45 L55.05 -63.2 53.05 -60.55 Q66.75 -69.9 79.5 -80.6 90.4 -89.75 102.4 -97.25 L106.1 -99.6 102.1 -95.7 93.7 -87.9 Q88.15 -83.0 82.35 -78.65 L75.25 -73.35 63.75 -64.8 Q59.0 -61.2 54.55 -57.2 L44.85 -47.85 Q43.05 -46.0 41.05 -44.4 L33.9 -38.9 30.0 -35.5 Q28.3 -33.65 28.1 -31.05 28.0 -29.85 27.4 -28.85 25.25 -25.5 21.95 -23.1 19.5 -21.3 17.95 -18.85 14.75 -13.7 12.65 -8.05 L9.55 0.05 -4.45 0.05 Q-1.15 -5.1 -6.8 -8.65 -8.45 -9.65 -9.65 -11.5 L-8.9 -13.35 -10.1 -15.55 Q-12.1 -18.7 -15.1 -20.95 -25.55 -28.8 -37.1 -35.25 -42.1 -38.15 -46.8 -41.35 -51.5 -44.6 -55.85 -48.5 -60.2 -52.45 -66.8 -56.7 -73.45 -60.95 -80.05 -64.55 L-92.0 -71.05 Q-97.35 -73.95 -112.0 -84.8 L-101.8 -80.85 Q-98.7 -79.6 -95.85 -77.75 L-86.35 -71.65 Q-77.85 -66.25 -69.05 -61.45 -60.4 -56.85 -52.9 -50.7 -38.45 -38.7 -22.6 -28.65 L-19.1 -26.65 Q-19.65 -31.65 -21.8 -36.2 L-25.7 -43.85 Q-29.25 -50.5 -34.5 -55.95 -42.7 -64.4 -51.7 -72.35 -56.55 -76.55 -61.85 -80.4 L-69.6 -86.3 Q-74.1 -89.95 -78.0 -94.25 -83.6 -100.25 -90.0 -105.15 -92.05 -106.65 -94.3 -107.65 -101.55 -110.95 -106.5 -117.5 -98.75 -114.3 -91.5 -110.15 -87.2 -107.6 -83.45 -104.55 -80.4 -102.0 -77.8 -99.0 L-73.65 -94.25 -69.65 -90.25 Q-53.45 -76.6 -37.75 -62.6 -35.9 -60.95 -33.9 -61.35 L-33.65 -61.6 Q-31.55 -64.0 -32.05 -67.35 L-32.9 -67.75 Q-35.85 -69.35 -38.35 -71.55 -44.1 -76.6 -47.45 -83.6 -50.9 -90.75 -49.0 -98.4 -47.0 -106.6 -39.2 -109.45 -37.1 -116.55 -31.4 -121.8 -28.65 -124.25 -25.1 -125.8 -21.65 -127.45 -18.05 -126.9 -11.15 -126.85 -4.7 -124.45 1.6 -122.05 6.7 -117.45 10.05 -114.4 12.35 -110.45 20.55 -126.15 24.6 -143.45 26.4 -151.2 28.8 -158.75 33.15 -172.35 42.1 -183.7 L48.7 -192.1 53.3 -197.5 Q55.3 -199.75 58.05 -201.05 60.05 -202.15 62.2 -202.65 L62.8 -202.35 62.75 -202.2 M-39.2 -109.45 L-39.15 -106.55 M53.05 -60.55 L52.05 -58.95" fill="none" stroke="#484848" stroke-linecap="round" stroke-linejoin="round" stroke-width="0.05"/>
    <path d="M7.75 -101.15 Q9.65 -103.2 12.1 -104.05 L17.2 -105.55 Q22.35 -107.1 27.8 -106.9 33.7 -106.65 39.25 -104.3 44.7 -101.85 48.6 -97.2 52.3 -92.75 54.0 -87.25 55.55 -82.3 54.6 -77.2 53.6 -71.7 50.9 -66.85 48.0 -61.75 43.45 -57.9 38.7 -53.85 32.5 -54.0 28.25 -54.4 24.6 -56.4 L24.85 -56.95 26.25 -57.25 27.6 -57.55 28.85 -58.4 Q27.1 -59.85 24.95 -60.1 20.5 -60.2 18.25 -56.3 21.05 -54.4 23.25 -51.85 25.1 -49.7 25.8 -46.9 27.25 -40.9 24.45 -35.3 24.1 -34.55 23.1 -34.15 L17.65 -32.45 Q12.75 -30.95 7.95 -29.15 5.25 -28.1 2.7 -26.8 1.8 -26.35 1.3 -25.5 -0.5 -22.1 0.35 -18.3 -3.35 -22.4 -6.25 -27.2 -9.15 -32.05 -10.95 -37.15 -12.75 -42.4 -14.05 -47.65 -14.85 -51.05 -16.05 -54.3 -17.9 -59.45 -21.25 -63.9 -24.3 -68.05 -28.4 -71.1 -30.8 -72.85 -32.95 -75.05 -34.8 -77.05 -36.1 -79.55 -38.65 -84.5 -38.85 -90.2 -39.0 -95.65 -36.35 -100.5 -34.15 -104.45 -30.75 -107.6 -28.55 -109.65 -26.1 -111.35 -23.7 -112.95 -21.0 -114.05 L-15.4 -115.9 -12.35 -116.3 Q-6.85 -116.2 -1.95 -113.75 3.2 -111.1 5.8 -106.05 7.05 -103.7 7.75 -101.15 8.8 -95.2 7.25 -89.5 5.65 -83.55 0.75 -79.8 -1.5 -78.15 -4.0 -77.2 -1.5 -78.15 0.75 -79.8 5.65 -83.55 7.25 -89.5 8.8 -95.2 7.75 -101.15 M-6.35 -77.2 L-4.75 -77.0 -4.0 -77.2 -4.25 -77.85 Q-5.1 -77.25 -6.35 -77.2 M-7.85 -62.6 L-7.9 -69.2 -7.6 -77.25 Q-7.35 -81.4 -3.3 -82.25 -2.3 -81.1 -2.95 -79.5 -3.4 -78.4 -4.25 -77.85 -3.4 -78.4 -2.95 -79.5 -2.3 -81.1 -3.3 -82.25 -7.35 -81.4 -7.6 -77.25 L-7.9 -69.2 -7.85 -62.6 M30.3 -62.0 L28.85 -58.4 30.3 -62.0 M4.85 -54.75 Q7.7 -58.3 12.1 -58.35 15.45 -58.35 18.25 -56.3 15.45 -58.35 12.1 -58.35 7.7 -58.3 4.85 -54.75" fill="url(#gradient0)" fill-rule="evenodd" stroke="none"/>
    <path d="M24.6 -56.4 L23.05 -57.35 24.85 -56.95 24.6 -56.4 M-4.0 -77.2 L-4.75 -77.0 -6.35 -77.2 Q-5.1 -77.25 -4.25 -77.85 L-4.0 -77.2 M0.95 -17.55 L3.15 -15.4 Q5.7 -12.75 4.9 -8.9 L3.75 -3.55 3.55 -7.05 Q3.1 -12.6 0.95 -17.55" fill="url(#gradient1)" fill-rule="evenodd" stroke="none"/>
    <path d="M7.75 -101.15 Q9.65 -103.2 12.1 -104.05 L17.2 -105.55 Q22.35 -107.1 27.8 -106.9 33.7 -106.65 39.25 -104.3 44.7 -101.85 48.6 -97.2 52.3 -92.75 54.0 -87.25 55.55 -82.3 54.6 -77.2 53.6 -71.7 50.9 -66.85 48.0 -61.75 43.45 -57.9 38.7 -53.85 32.5 -54.0 28.25 -54.4 24.6 -56.4 L23.05 -57.35 Q22.65 -57.55 22.35 -57.85 M0.35 -18.3 Q-3.35 -22.4 -6.25 -27.2 -9.15 -32.05 -10.95 -37.15 -12.75 -42.4 -14.05 -47.65 -14.85 -51.05 -16.05 -54.3 -17.9 -59.45 -21.25 -63.9 -24.3 -68.05 -28.4 -71.1 -30.8 -72.85 -32.95 -75.05 -34.8 -77.05 -36.1 -79.55 -38.65 -84.5 -38.85 -90.2 -39.0 -95.65 -36.35 -100.5 -34.15 -104.45 -30.75 -107.6 -28.55 -109.65 -26.1 -111.35 -23.7 -112.95 -21.0 -114.05 L-15.4 -115.9 -12.35 -116.3 M-6.35 -77.2 Q-5.1 -77.25 -4.25 -77.85 -3.4 -78.4 -2.95 -79.5 -2.3 -81.1 -3.3 -82.25 -7.35 -81.4 -7.6 -77.25 L-7.9 -69.2 -7.85 -62.6 M24.85 -56.95 L26.25 -57.25 27.6 -57.55 28.85 -58.4 Q27.1 -59.85 24.95 -60.1 20.5 -60.2 18.25 -56.3 21.05 -54.4 23.25 -51.85 25.1 -49.7 25.8 -46.9 27.25 -40.9 24.45 -35.3 24.1 -34.55 23.1 -34.15 L17.65 -32.45 Q12.75 -30.95 7.95 -29.15 5.25 -28.1 2.7 -26.8 1.8 -26.35 1.3 -25.5 -0.5 -22.1 0.35 -18.3 L0.95 -17.55 3.15 -15.4 Q5.7 -12.75 4.9 -8.9 L3.75 -3.55 3.55 -7.05 Q3.1 -12.6 0.95 -17.55 M24.85 -56.95 L23.05 -57.35 M18.25 -56.3 Q15.45 -58.35 12.1 -58.35 7.7 -58.3 4.85 -54.75 M28.85 -58.4 L30.3 -62.0" fill="none" stroke="#e4b001" stroke-linecap="round" stroke-linejoin="round" stroke-width="0.05"/>
    <path d="M-12.35 -116.3 Q-6.85 -116.2 -1.95 -113.75 3.2 -111.1 5.8 -106.05 7.05 -103.7 7.75 -101.15 8.8 -95.2 7.25 -89.5 5.65 -83.55 0.75 -79.8 -1.5 -78.15 -4.0 -77.2 L-4.75 -77.0 -6.35 -77.2" fill="none" stroke="#e4b001" stroke-linecap="round" stroke-linejoin="round" stroke-width="0.05"/>
  </g>
  <defs>
    <radialGradient cx="0" cy="0" gradientTransform="matrix(0.0782, 0.0, 0.0, 0.0782, -3.3, -82.25)" gradientUnits="userSpaceOnUse" id="gradient0" r="819.2" spreadMethod="pad">
      <stop offset="0.30196078431372547" stop-color="#ffffff"/>
      <stop offset="0.4549019607843137" stop-color="#fffbf0"/>
      <stop offset="0.8784313725490196" stop-color="#ffff00"/>
    </radialGradient>
    <radialGradient cx="0" cy="0" gradientTransform="matrix(0.0608, 0.0, 0.0, 0.0947, 6.2, -62.65)" gradientUnits="userSpaceOnUse" id="gradient1" r="819.2" spreadMethod="pad">
      <stop offset="0.30196078431372547" stop-color="#ffffff"/>
      <stop offset="0.4549019607843137" stop-color="#fffbf0"/>
      <stop offset="0.7372549019607844" stop-color="#ffc533"/>
      <stop offset="0.8784313725490196" stop-color="#fd8c3e"/>
      <stop offset="0.9882352941176471" stop-color="#bf6d2f"/>
    </radialGradient>
  </defs>
</svg>
