<?xml version="1.0" encoding="UTF-8" standalone="no"?>
<svg xmlns:xlink="http://www.w3.org/1999/xlink" height="214.95px" width="229.85px" xmlns="http://www.w3.org/2000/svg">
  <g transform="matrix(1.0, 0.0, 0.0, 1.0, 108.35, 214.9)">
    <path d="M-25.75 -62.1 Q-25.0 -68.1 -28.0 -73.35 -31.6 -79.8 -35.6 -85.8 -39.7 -91.95 -34.15 -95.3 -38.65 -104.15 -46.2 -111.15 -48.05 -112.9 -48.55 -115.15 -50.9 -125.35 -43.4 -133.05 -49.05 -141.55 -49.0 -151.7 -49.0 -157.65 -44.65 -161.6 -33.6 -171.85 -17.95 -170.45 -11.35 -170.2 -5.45 -167.1 4.75 -161.6 8.55 -150.9 11.1 -148.3 14.8 -148.65 22.95 -148.95 27.65 -156.6 36.2 -170.7 45.65 -184.35 49.25 -189.5 52.2 -194.95 59.05 -207.6 69.8 -214.9 65.15 -207.2 59.65 -200.25 40.85 -176.7 31.05 -148.7 L34.9 -146.8 Q37.65 -145.65 40.45 -146.25 L42.9 -143.55 42.55 -143.3 42.8 -142.7 Q60.6 -138.6 70.6 -123.65 82.8 -105.3 71.65 -87.3 69.7 -84.2 66.7 -82.35 55.1 -75.15 50.95 -63.3 L50.5 -62.05 51.35 -63.1 Q55.0 -66.9 60.0 -68.4 68.15 -70.85 74.6 -76.35 97.3 -96.0 121.5 -113.9 L117.8 -109.45 Q108.7 -99.0 98.1 -90.05 69.45 -66.0 41.15 -41.75 L41.2 -30.75 Q39.65 -29.4 37.9 -28.45 20.65 -18.95 19.7 0.05 L-4.1 0.05 Q-2.45 -2.0 -2.85 -4.6 L-3.0 -5.4 -3.8 -5.7 -4.3 -6.5 -3.15 -8.85 Q-9.0 -13.55 -15.45 -17.95 L-15.6 -22.7 -45.15 -40.35 Q-78.95 -60.3 -108.35 -86.4 L-98.6 -79.7 Q-61.9 -54.2 -23.7 -31.15 L-22.9 -31.5 -22.3 -33.15 Q-20.1 -39.0 -22.7 -44.9 -24.25 -48.4 -27.05 -51.05 -38.65 -61.95 -51.4 -71.55 -79.35 -92.65 -104.2 -116.7 L-90.45 -108.1 Q-74.6 -97.25 -60.7 -84.0 -45.3 -69.25 -27.25 -59.15 L-25.35 -61.85 -25.75 -62.1 M47.4 -56.9 Q48.7 -56.9 49.6 -58.4 50.5 -59.9 50.5 -62.05 50.5 -59.9 49.6 -58.4 48.7 -56.9 47.4 -56.9" fill="#666666" fill-rule="evenodd" stroke="none"/>
    <path d="M42.9 -143.55 L40.45 -146.25 Q37.65 -145.65 34.9 -146.8 L31.05 -148.7 Q40.85 -176.7 59.65 -200.25 65.15 -207.2 69.8 -214.9 59.05 -207.6 52.2 -194.95 49.25 -189.5 45.65 -184.35 36.2 -170.7 27.65 -156.6 22.95 -148.95 14.8 -148.65 11.1 -148.3 8.55 -150.9 4.75 -161.6 -5.45 -167.1 -11.35 -170.2 -17.95 -170.45 -33.6 -171.85 -44.65 -161.6 -49.0 -157.65 -49.0 -151.7 -49.05 -141.55 -43.4 -133.05 -50.9 -125.35 -48.55 -115.15 -48.05 -112.9 -46.2 -111.15 -38.65 -104.15 -34.15 -95.3 -39.7 -91.95 -35.6 -85.8 -31.6 -79.8 -28.0 -73.35 -25.0 -68.1 -25.75 -62.1 M-25.35 -61.85 L-27.25 -59.15 Q-45.3 -69.25 -60.7 -84.0 -74.6 -97.25 -90.45 -108.1 L-104.2 -116.7 Q-79.35 -92.65 -51.4 -71.55 -38.65 -61.95 -27.05 -51.05 -24.25 -48.4 -22.7 -44.9 -20.1 -39.0 -22.3 -33.15 L-22.9 -31.5 -23.7 -31.15 Q-61.9 -54.2 -98.6 -79.7 L-108.35 -86.4 Q-78.95 -60.3 -45.15 -40.35 L-15.6 -22.7 -15.45 -17.95 Q-9.0 -13.55 -3.15 -8.85 L-4.3 -6.5 -3.8 -5.7 -3.0 -5.4 -2.85 -4.6 Q-2.45 -2.0 -4.1 0.05 L19.7 0.05 Q20.65 -18.95 37.9 -28.45 39.65 -29.4 41.2 -30.75 L41.15 -41.75 Q69.45 -66.0 98.1 -90.05 108.7 -99.0 117.8 -109.45 L121.5 -113.9 Q97.3 -96.0 74.6 -76.35 68.15 -70.85 60.0 -68.4 55.0 -66.9 51.35 -63.1 L50.5 -62.05 Q50.5 -59.9 49.6 -58.4 48.7 -56.9 47.4 -56.9 M42.9 -143.55 L43.3 -143.1 M50.5 -62.05 L50.95 -63.3 Q55.1 -75.15 66.7 -82.35 69.7 -84.2 71.65 -87.3 82.8 -105.3 70.6 -123.65 60.6 -138.6 42.8 -142.7 L42.55 -143.3" fill="none" stroke="#484848" stroke-linecap="round" stroke-linejoin="round" stroke-width="0.05"/>
    <path d="M31.7 -115.95 Q22.15 -104.3 31.8 -90.8 33.65 -88.15 30.7 -86.6 L29.55 -86.15 Q20.25 -105.45 17.7 -116.45 15.15 -127.45 22.2 -135.45 29.2 -143.45 46.3 -137.05 73.35 -119.75 60.5 -91.1 54.5 -77.7 41.15 -79.8 61.2 -98.2 40.45 -116.4 35.6 -120.7 31.7 -115.95" fill="url(#gradient0)" fill-rule="evenodd" stroke="none"/>
    <path d="M-11.05 -139.05 Q-19.2 -124.6 -12.4 -106.7 -11.05 -103.05 -12.2 -99.25 -15.75 -87.75 -12.8 -76.85 -10.2 -67.25 -13.85 -57.75 -13.15 -89.55 -33.95 -114.55 -37.5 -118.85 -37.5 -124.65 -37.4 -149.9 -13.75 -155.8 -6.65 -157.6 -1.9 -151.6 4.65 -143.2 -0.65 -133.05 L-1.85 -134.65 -1.5 -140.2 Q-6.5 -141.2 -11.05 -139.05" fill="url(#gradient1)" fill-rule="evenodd" stroke="none"/>
    <path d="M6.65 -49.75 Q0.4 -65.45 0.35 -80.05 0.35 -80.85 1.35 -81.4 17.7 -90.2 30.55 -76.6 47.6 -53.1 23.1 -37.05 L14.25 -30.85 Q7.4 -25.65 6.55 -17.1 -7.75 -32.9 6.3 -49.35 L6.65 -49.75" fill="url(#gradient2)" fill-rule="evenodd" stroke="none"/>
    <path d="M31.7 -115.95 Q22.15 -104.3 31.8 -90.8 33.65 -88.15 30.7 -86.6 L29.55 -86.15 Q20.25 -105.45 17.7 -116.45 15.15 -127.45 22.2 -135.45 29.2 -143.45 46.3 -137.05 73.35 -119.75 60.5 -91.1 54.5 -77.7 41.15 -79.8 61.2 -98.2 40.45 -116.4 35.6 -120.7 31.7 -115.95 M6.65 -49.75 Q0.4 -65.45 0.35 -80.05 0.35 -80.85 1.35 -81.4 17.7 -90.2 30.55 -76.6 47.6 -53.1 23.1 -37.05 L14.25 -30.85 Q7.4 -25.65 6.55 -17.1 -7.75 -32.9 6.3 -49.35 L6.65 -49.75" fill="none" stroke="#e4b001" stroke-linecap="round" stroke-linejoin="round" stroke-width="0.05"/>
    <path d="M-11.05 -139.05 Q-19.2 -124.6 -12.4 -106.7 -11.05 -103.05 -12.2 -99.25 -15.75 -87.75 -12.8 -76.85 -10.2 -67.25 -13.85 -57.75 -13.15 -89.55 -33.95 -114.55 -37.5 -118.85 -37.5 -124.65 -37.4 -149.9 -13.75 -155.8 -6.65 -157.6 -1.9 -151.6 4.65 -143.2 -0.65 -133.05 L-1.85 -134.65 -1.5 -140.2 Q-6.5 -141.2 -11.05 -139.05" fill="none" stroke="#e4b001" stroke-linecap="round" stroke-linejoin="round" stroke-width="0.05"/>
  </g>
  <defs>
    <radialGradient cx="0" cy="0" gradientTransform="matrix(0.0568, 0.0, 0.0, 0.0568, 42.3, -125.85)" gradientUnits="userSpaceOnUse" id="gradient0" r="819.2" spreadMethod="pad">
      <stop offset="0.30196078431372547" stop-color="#ffffff"/>
      <stop offset="0.4549019607843137" stop-color="#fffbf0"/>
      <stop offset="0.8784313725490196" stop-color="#ffff00"/>
    </radialGradient>
    <radialGradient cx="0" cy="0" gradientTransform="matrix(0.0688, 0.0, 0.0, 0.0688, -25.35, -102.45)" gradientUnits="userSpaceOnUse" id="gradient1" r="819.2" spreadMethod="pad">
      <stop offset="0.30196078431372547" stop-color="#ffffff"/>
      <stop offset="0.4549019607843137" stop-color="#fffbf0"/>
      <stop offset="0.8784313725490196" stop-color="#ffff00"/>
    </radialGradient>
    <radialGradient cx="0" cy="0" gradientTransform="matrix(0.0469, 0.0, 0.0, 0.0469, 17.85, -53.85)" gradientUnits="userSpaceOnUse" id="gradient2" r="819.2" spreadMethod="pad">
      <stop offset="0.30196078431372547" stop-color="#ffffff"/>
      <stop offset="0.4549019607843137" stop-color="#fffbf0"/>
      <stop offset="0.8784313725490196" stop-color="#ffff00"/>
    </radialGradient>
  </defs>
</svg>
