<?xml version="1.0" encoding="UTF-8" standalone="no"?>
<svg xmlns:xlink="http://www.w3.org/1999/xlink" height="226.25px" width="247.7px" xmlns="http://www.w3.org/2000/svg">
  <g transform="matrix(1.0, 0.0, 0.0, 1.0, 103.55, 226.2)">
    <path d="M-93.55 -75.2 L-89.9 -73.0 Q-83.4 -69.1 -76.65 -65.8 -70.35 -62.8 -65.1 -57.85 -60.25 -53.25 -54.85 -49.3 -49.05 -45.1 -42.9 -41.9 L-31.0 -35.7 -21.05 -30.45 -19.9 -30.75 Q-19.15 -33.8 -19.9 -36.75 -21.55 -43.3 -24.05 -49.6 -24.55 -50.85 -25.4 -51.9 -28.05 -55.05 -31.55 -57.4 L-51.25 -70.2 Q-55.75 -73.1 -60.0 -76.55 L-64.9 -81.1 -71.9 -88.85 Q-80.55 -98.95 -91.05 -107.25 -97.25 -112.0 -103.1 -117.1 -93.25 -111.4 -84.25 -104.6 L-76.3 -98.15 -64.45 -87.9 Q-56.75 -81.1 -48.45 -75.1 -42.45 -70.7 -36.05 -67.25 -30.1 -64.15 -24.55 -60.3 L-21.0 -57.65 Q-19.85 -57.5 -19.15 -58.15 -17.7 -59.5 -17.3 -61.25 -16.55 -64.6 -17.25 -67.95 -18.75 -74.9 -21.45 -81.25 -25.85 -91.75 -29.4 -102.65 L-31.25 -109.0 Q-32.65 -114.35 -31.95 -120.0 -31.7 -121.85 -32.4 -123.7 -33.15 -125.6 -34.35 -127.2 -35.55 -128.9 -37.0 -130.3 -41.85 -135.0 -44.35 -141.1 L-48.4 -150.7 Q-49.65 -153.65 -50.05 -156.85 -50.7 -162.35 -49.45 -167.6 L-48.0 -172.45 Q-46.9 -175.65 -45.0 -178.35 L-42.05 -182.25 -40.75 -183.6 -37.85 -185.7 Q-35.75 -187.25 -33.2 -188.0 -27.25 -189.75 -21.05 -190.3 L-13.55 -190.45 -3.7 -189.1 Q1.1 -187.95 5.45 -185.7 7.35 -184.7 8.9 -182.95 11.35 -180.25 12.5 -176.7 13.1 -178.75 14.6 -180.15 16.65 -181.95 18.85 -183.55 L23.4 -186.75 30.05 -189.55 33.5 -190.6 44.45 -192.3 Q45.75 -192.5 46.95 -193.2 50.85 -195.35 54.1 -198.5 62.2 -206.45 68.45 -215.75 72.35 -221.5 77.6 -226.2 77.55 -223.45 76.15 -221.5 65.5 -206.7 55.4 -191.6 58.65 -186.5 62.8 -182.3 64.65 -180.45 66.05 -178.25 69.9 -172.1 71.6 -164.85 73.55 -156.5 73.2 -147.95 73.0 -143.45 70.75 -139.65 L73.25 -137.4 Q77.7 -133.3 80.35 -127.95 84.65 -119.15 84.3 -109.35 84.0 -101.7 79.45 -95.45 76.8 -91.75 73.3 -88.8 69.85 -86.0 65.65 -84.3 56.3 -80.7 48.5 -74.55 42.0 -69.35 40.0 -61.2 L36.15 -58.55 Q30.45 -54.35 26.65 -48.55 32.35 -49.75 37.6 -52.15 42.1 -54.25 46.15 -57.05 59.4 -65.95 71.45 -76.7 89.3 -92.65 108.5 -106.9 L118.7 -114.85 Q130.75 -124.7 144.15 -133.0 143.2 -130.3 141.4 -128.05 137.25 -122.7 132.05 -118.75 L121.1 -110.45 111.2 -102.8 101.1 -94.85 91.1 -86.75 79.95 -77.25 73.8 -71.8 67.9 -66.4 61.9 -61.05 51.2 -51.8 Q46.75 -48.05 42.0 -44.6 L31.5 -37.3 Q24.85 -33.05 20.85 -26.5 19.3 -23.9 18.55 -21.0 16.95 -14.55 15.9 -7.85 L15.45 -6.75 Q12.2 -2.45 7.8 0.05 L-11.7 0.05 Q-9.1 -4.5 -10.05 -8.2 -11.05 -11.95 -12.4 -14.75 L-15.3 -20.4 Q-19.0 -27.4 -26.6 -30.4 -32.95 -32.95 -39.05 -36.1 L-50.6 -41.85 Q-55.9 -44.4 -59.8 -48.55 -64.95 -53.95 -71.15 -58.25 L-82.05 -66.05 -93.8 -74.9 -93.55 -75.2 M25.55 -48.35 L26.65 -48.55 25.55 -48.35" fill="#666666" fill-rule="evenodd" stroke="none"/>
    <path d="M23.4 -186.75 L18.85 -183.55 Q16.65 -181.95 14.6 -180.15 13.1 -178.75 12.5 -176.7 11.35 -180.25 8.9 -182.95 7.35 -184.7 5.45 -185.7 1.1 -187.95 -3.7 -189.1 L-13.55 -190.45 -21.05 -190.3 Q-27.25 -189.75 -33.2 -188.0 -35.75 -187.25 -37.85 -185.7 L-40.75 -183.6 -42.05 -182.25 -45.0 -178.35 Q-46.9 -175.65 -48.0 -172.45 L-49.45 -167.6 Q-50.7 -162.35 -50.05 -156.85 -49.65 -153.65 -48.4 -150.7 L-44.35 -141.1 Q-41.85 -135.0 -37.0 -130.3 -35.55 -128.9 -34.35 -127.2 -33.15 -125.6 -32.4 -123.7 -31.7 -121.85 -31.95 -120.0 -32.65 -114.35 -31.25 -109.0 L-29.4 -102.65 Q-25.85 -91.75 -21.45 -81.25 -18.75 -74.9 -17.25 -67.95 -16.55 -64.6 -17.3 -61.25 -17.7 -59.5 -19.15 -58.15 -19.85 -57.5 -21.0 -57.65 L-24.55 -60.3 Q-30.1 -64.15 -36.05 -67.25 -42.45 -70.7 -48.45 -75.1 -56.75 -81.1 -64.45 -87.9 L-76.3 -98.15 -84.25 -104.6 Q-93.25 -111.4 -103.1 -117.1 -97.25 -112.0 -91.05 -107.25 -80.55 -98.95 -71.9 -88.85 L-64.9 -81.1 -60.0 -76.55 Q-55.75 -73.1 -51.25 -70.2 L-31.55 -57.4 Q-28.05 -55.05 -25.4 -51.9 -24.55 -50.85 -24.05 -49.6 -21.55 -43.3 -19.9 -36.75 -19.15 -33.8 -19.9 -30.75 L-21.05 -30.45 -31.0 -35.7 -42.9 -41.9 Q-49.05 -45.1 -54.85 -49.3 -60.25 -53.25 -65.1 -57.85 -70.35 -62.8 -76.65 -65.8 -83.4 -69.1 -89.9 -73.0 L-93.55 -75.2 -99.45 -79.3 -101.3 -80.75 -103.55 -82.5 M-93.8 -74.9 L-82.05 -66.05 -71.15 -58.25 Q-64.95 -53.95 -59.8 -48.55 -55.9 -44.4 -50.6 -41.85 L-39.05 -36.1 Q-32.95 -32.95 -26.6 -30.4 -19.0 -27.4 -15.3 -20.4 L-12.4 -14.75 Q-11.05 -11.95 -10.05 -8.2 -9.1 -4.5 -11.7 0.05 L7.8 0.05 M-93.8 -74.9 L-99.45 -79.3" fill="none" stroke="#484848" stroke-linecap="round" stroke-linejoin="round" stroke-width="0.05"/>
    <path d="M7.8 0.05 Q12.2 -2.45 15.45 -6.75 L15.9 -7.85 Q16.95 -14.55 18.55 -21.0 19.3 -23.9 20.85 -26.5 24.85 -33.05 31.5 -37.3 L42.0 -44.6 Q46.75 -48.05 51.2 -51.8 L61.9 -61.05 67.9 -66.4 73.8 -71.8 79.95 -77.25 91.1 -86.75 101.1 -94.85 111.2 -102.8 121.1 -110.45 132.05 -118.75 Q137.25 -122.7 141.4 -128.05 143.2 -130.3 144.15 -133.0 130.75 -124.7 118.7 -114.85 L108.5 -106.9 Q89.3 -92.65 71.45 -76.7 59.4 -65.95 46.15 -57.05 42.1 -54.25 37.6 -52.15 32.35 -49.75 26.65 -48.55 L25.55 -48.35 M26.65 -48.55 Q30.45 -54.35 36.15 -58.55 L40.0 -61.2 Q42.0 -69.35 48.5 -74.55 56.3 -80.7 65.65 -84.3 69.85 -86.0 73.3 -88.8 76.8 -91.75 79.45 -95.45 84.0 -101.7 84.3 -109.35 84.65 -119.15 80.35 -127.95 77.7 -133.3 73.25 -137.4 L70.75 -139.65 Q73.0 -143.45 73.2 -147.95 73.55 -156.5 71.6 -164.85 69.9 -172.1 66.05 -178.25 64.65 -180.45 62.8 -182.3 58.65 -186.5 55.4 -191.6 65.5 -206.7 76.15 -221.5 77.55 -223.45 77.6 -226.2 72.35 -221.5 68.45 -215.75 62.2 -206.45 54.1 -198.5 50.85 -195.35 46.95 -193.2 45.75 -192.5 44.45 -192.3 L33.5 -190.6 30.05 -189.55 23.4 -186.75 Z" fill="none" stroke="#484848" stroke-linecap="round" stroke-linejoin="round" stroke-width="0.05"/>
    <path d="M20.4 -164.35 Q22.2 -169.2 25.35 -173.4 29.1 -178.35 34.6 -181.3 36.25 -182.1 38.1 -182.4 L52.55 -183.5 Q54.7 -183.5 56.3 -182.1 59.55 -179.3 61.4 -175.75 63.9 -170.9 64.05 -165.45 64.35 -153.55 63.65 -141.65 63.3 -135.55 60.8 -130.05 57.05 -121.65 50.1 -115.85 L51.0 -117.9 Q54.5 -126.1 53.7 -134.95 53.55 -136.7 52.9 -138.3 48.35 -149.75 43.2 -161.15 42.0 -163.75 39.2 -163.75 37.85 -163.75 37.05 -163.0 L35.0 -161.05 31.8 -158.65 Q26.95 -155.9 22.0 -152.45 17.05 -149.15 15.9 -143.25 15.25 -140.1 15.5 -136.95 16.05 -130.35 19.5 -124.85 15.05 -128.1 11.5 -132.4 8.0 -136.65 5.95 -141.75 4.45 -145.35 6.35 -148.7 11.65 -158.15 20.4 -164.35 L19.0 -160.05 20.4 -164.35" fill="url(#gradient0)" fill-rule="evenodd" stroke="none"/>
    <path d="M38.05 -83.7 Q37.4 -82.4 36.4 -81.35 34.75 -79.55 32.55 -78.6 25.65 -75.65 19.05 -72.25 15.35 -70.25 12.35 -67.35 L10.35 -64.95 Q6.7 -67.45 5.5 -71.6 5.05 -73.2 5.5 -74.75 7.75 -82.15 3.5 -88.55 L-0.45 -93.75 -4.15 -98.2 -4.7 -103.25 Q-5.25 -112.4 3.05 -116.25 8.9 -118.9 15.35 -117.6 L21.7 -116.1 Q32.35 -113.6 37.55 -103.85 42.95 -93.7 38.05 -83.7" fill="url(#gradient1)" fill-rule="evenodd" stroke="none"/>
    <path d="M-2.0 -162.4 L-4.3 -159.35 -10.75 -148.75 -12.05 -147.2 Q-15.45 -144.3 -18.0 -140.6 -20.45 -136.95 -20.25 -132.45 -19.75 -120.35 -19.9 -108.35 -19.9 -107.0 -20.65 -106.05 -21.6 -110.3 -21.7 -114.85 L-22.05 -120.9 Q-22.35 -123.95 -23.4 -126.8 -24.9 -130.95 -26.9 -134.9 -31.3 -143.35 -39.2 -148.65 -43.15 -151.25 -44.5 -155.6 -46.6 -162.2 -43.8 -168.15 -42.95 -170.05 -41.65 -171.6 -35.75 -178.4 -27.25 -181.65 -24.85 -182.4 -22.35 -182.75 -9.85 -184.65 0.0 -176.8 L2.35 -174.5 Q2.8 -173.95 2.75 -173.2 2.25 -167.1 -2.0 -162.4" fill="url(#gradient2)" fill-rule="evenodd" stroke="none"/>
    <path d="M4.1 -36.3 L4.7 -30.8 Q0.7 -32.65 -0.45 -36.95 -1.1 -39.5 0.5 -41.65 2.8 -44.65 4.75 -47.95 3.4 -42.25 4.1 -36.3" fill="url(#gradient3)" fill-rule="evenodd" stroke="none"/>
    <path d="M20.4 -164.35 Q11.65 -158.15 6.35 -148.7 4.45 -145.35 5.95 -141.75 8.0 -136.65 11.5 -132.4 15.05 -128.1 19.5 -124.85 16.05 -130.35 15.5 -136.95 15.25 -140.1 15.9 -143.25 17.05 -149.15 22.0 -152.45 26.95 -155.9 31.8 -158.65 L35.0 -161.05 37.05 -163.0 Q37.85 -163.75 39.2 -163.75 42.0 -163.75 43.2 -161.15 48.35 -149.75 52.9 -138.3 53.55 -136.7 53.7 -134.95 54.5 -126.1 51.0 -117.9 L50.1 -115.85 Q57.05 -121.65 60.8 -130.05 63.3 -135.55 63.65 -141.65 64.35 -153.55 64.05 -165.45 63.9 -170.9 61.4 -175.75 59.55 -179.3 56.3 -182.1 54.7 -183.5 52.55 -183.5 L38.1 -182.4 Q36.25 -182.1 34.6 -181.3 29.1 -178.35 25.35 -173.4 22.2 -169.2 20.4 -164.35 L19.0 -160.05 M38.05 -83.7 Q37.4 -82.4 36.4 -81.35 34.75 -79.55 32.55 -78.6 25.65 -75.65 19.05 -72.25 15.35 -70.25 12.35 -67.35 L10.35 -64.95 Q6.7 -67.45 5.5 -71.6 5.05 -73.2 5.5 -74.75 7.75 -82.15 3.5 -88.55 L-0.45 -93.75 -4.15 -98.2 -4.7 -103.25 Q-5.25 -112.4 3.05 -116.25 8.9 -118.9 15.35 -117.6 L21.7 -116.1 Q32.35 -113.6 37.55 -103.85 42.95 -93.7 38.05 -83.7 M4.1 -36.3 L4.7 -30.8 Q0.7 -32.65 -0.45 -36.95 -1.1 -39.5 0.5 -41.65 2.8 -44.65 4.75 -47.95 3.4 -42.25 4.1 -36.3" fill="none" stroke="#e4b001" stroke-linecap="round" stroke-linejoin="round" stroke-width="0.05"/>
    <path d="M-2.0 -162.4 Q2.25 -167.1 2.75 -173.2 2.8 -173.95 2.35 -174.5 L0.0 -176.8 Q-9.85 -184.65 -22.35 -182.75 -24.85 -182.4 -27.25 -181.65 -35.75 -178.4 -41.65 -171.6 -42.95 -170.05 -43.8 -168.15 -46.6 -162.2 -44.5 -155.6 -43.15 -151.25 -39.2 -148.65 -31.3 -143.35 -26.9 -134.9 -24.9 -130.95 -23.4 -126.8 -22.35 -123.95 -22.05 -120.9 L-21.7 -114.85 Q-21.6 -110.3 -20.65 -106.05 -19.9 -107.0 -19.9 -108.35 -19.75 -120.35 -20.25 -132.45 -20.45 -136.95 -18.0 -140.6 -15.45 -144.3 -12.05 -147.2 L-10.75 -148.75 -4.3 -159.35 -2.0 -162.4" fill="none" stroke="#e4b001" stroke-linecap="round" stroke-linejoin="round" stroke-width="0.05"/>
  </g>
  <defs>
    <radialGradient cx="0" cy="0" gradientTransform="matrix(0.0571, 0.0, 0.0, 0.0571, 40.35, -160.25)" gradientUnits="userSpaceOnUse" id="gradient0" r="819.2" spreadMethod="pad">
      <stop offset="0.30196078431372547" stop-color="#ffffff"/>
      <stop offset="0.4549019607843137" stop-color="#fffbf0"/>
      <stop offset="0.8784313725490196" stop-color="#ffff00"/>
    </radialGradient>
    <radialGradient cx="0" cy="0" gradientTransform="matrix(0.0461, 0.0, 0.0, 0.0461, 17.85, -101.95)" gradientUnits="userSpaceOnUse" id="gradient1" r="819.2" spreadMethod="pad">
      <stop offset="0.30196078431372547" stop-color="#ffffff"/>
      <stop offset="0.4549019607843137" stop-color="#fffbf0"/>
      <stop offset="0.8784313725490196" stop-color="#ffff00"/>
    </radialGradient>
    <radialGradient cx="0" cy="0" gradientTransform="matrix(0.0515, 0.0, 0.0, 0.0515, -21.95, -162.5)" gradientUnits="userSpaceOnUse" id="gradient2" r="819.2" spreadMethod="pad">
      <stop offset="0.30196078431372547" stop-color="#ffffff"/>
      <stop offset="0.4549019607843137" stop-color="#fffbf0"/>
      <stop offset="0.8784313725490196" stop-color="#ffff00"/>
    </radialGradient>
    <radialGradient cx="0" cy="0" gradientTransform="matrix(0.0146, 0.0, 0.0, 0.0146, 4.0, -42.7)" gradientUnits="userSpaceOnUse" id="gradient3" r="819.2" spreadMethod="pad">
      <stop offset="0.30196078431372547" stop-color="#ffffff"/>
      <stop offset="0.4549019607843137" stop-color="#fffbf0"/>
      <stop offset="0.7372549019607844" stop-color="#ffc533"/>
      <stop offset="0.8784313725490196" stop-color="#fd8c3e"/>
      <stop offset="0.9882352941176471" stop-color="#bf6d2f"/>
    </radialGradient>
  </defs>
</svg>
