<?xml version="1.0" encoding="UTF-8" standalone="no"?>
<svg xmlns:xlink="http://www.w3.org/1999/xlink" height="229.8px" width="277.6px" xmlns="http://www.w3.org/2000/svg">
  <g transform="matrix(1.0, 0.0, 0.0, 1.0, 136.45, 229.75)">
    <path d="M-12.45 0.05 Q-10.25 -9.9 -14.35 -24.15 -14.6 -25.05 -15.35 -25.7 -21.55 -30.9 -29.2 -33.65 -47.65 -40.35 -64.8 -50.3 -90.75 -65.25 -115.95 -81.6 -121.25 -85.05 -126.7 -88.25 -130.2 -90.3 -133.45 -92.65 -136.9 -95.15 -136.4 -99.65 L-136.15 -101.1 Q-135.0 -101.35 -133.9 -100.75 -124.45 -95.65 -116.05 -88.9 -75.25 -56.15 -26.8 -36.75 -23.6 -35.4 -20.15 -34.65 -17.95 -45.65 -25.75 -53.9 -33.2 -61.7 -41.95 -67.7 -66.5 -84.7 -90.4 -102.45 -96.65 -107.1 -102.55 -112.2 -113.3 -121.35 -123.4 -131.4 -104.65 -118.15 -85.2 -105.65 L-82.5 -103.5 Q-75.65 -97.05 -69.15 -90.1 -67.35 -88.25 -64.25 -87.45 -52.25 -78.75 -40.5 -69.85 L-36.5 -66.55 Q-28.25 -59.5 -17.2 -59.3 -14.65 -61.4 -15.4 -64.65 -18.15 -76.65 -25.4 -86.7 -28.7 -91.35 -28.95 -97.1 -29.4 -107.75 -19.6 -111.75 -23.8 -123.35 -33.2 -131.15 -36.25 -133.7 -38.85 -136.7 -42.05 -140.4 -44.7 -144.75 -50.75 -154.7 -49.7 -166.25 -48.2 -183.1 -35.1 -194.0 -29.95 -198.3 -23.4 -200.05 -9.1 -204.05 5.95 -202.7 7.1 -202.95 7.85 -203.65 18.5 -213.0 32.1 -216.4 50.45 -221.1 64.05 -207.7 L64.45 -208.95 Q70.95 -223.7 80.35 -229.75 72.2 -218.15 67.55 -204.55 67.15 -203.4 67.45 -202.2 71.35 -186.65 74.85 -171.15 78.8 -153.7 67.5 -140.15 L64.75 -137.3 Q57.4 -130.95 56.9 -121.5 56.8 -119.2 57.8 -116.95 60.95 -110.05 57.75 -103.4 55.2 -98.05 50.55 -94.15 38.1 -83.8 33.35 -68.4 31.65 -62.8 27.75 -58.9 L23.65 -54.4 Q21.6 -52.0 20.35 -49.2 35.55 -56.25 49.1 -66.4 61.1 -75.3 72.8 -84.7 L98.1 -104.8 Q110.85 -114.8 123.8 -124.4 L141.15 -137.15 98.05 -98.55 Q90.3 -91.7 82.0 -85.5 69.3 -75.85 56.8 -65.6 49.2 -59.35 42.05 -52.75 37.7 -48.6 33.8 -43.75 L28.9 -37.25 24.3 -30.55 Q24.25 -17.65 13.1 -10.9 L10.8 -9.6 Q7.6 -3.3 11.6 0.05 L-12.45 0.05 M-17.9 -58.75 L-17.2 -59.3 -17.9 -58.75 M14.0 -36.5 L16.05 -37.8 Q22.15 -37.45 23.95 -31.8 L24.3 -30.55 23.95 -31.8 Q22.15 -37.45 16.05 -37.8 L14.0 -36.5 M-14.7 -104.2 L-19.6 -111.75 -14.7 -104.2" fill="#666666" fill-rule="evenodd" stroke="none"/>
    <path d="M-12.45 0.05 Q-10.25 -9.9 -14.35 -24.15 -14.6 -25.05 -15.35 -25.7 -21.55 -30.9 -29.2 -33.65 -47.65 -40.35 -64.8 -50.3 -90.75 -65.25 -115.95 -81.6 -121.25 -85.05 -126.7 -88.25 -130.2 -90.3 -133.45 -92.65 -136.9 -95.15 -136.4 -99.65 L-136.15 -101.1 Q-135.0 -101.35 -133.9 -100.75 -124.45 -95.65 -116.05 -88.9 -75.25 -56.15 -26.8 -36.75 -23.6 -35.4 -20.15 -34.65 -17.95 -45.65 -25.75 -53.9 -33.2 -61.7 -41.95 -67.7 -66.5 -84.7 -90.4 -102.45 -96.65 -107.1 -102.55 -112.2 -113.3 -121.35 -123.4 -131.4 -104.65 -118.15 -85.2 -105.65 L-82.5 -103.5 Q-75.65 -97.05 -69.15 -90.1 -67.35 -88.25 -64.25 -87.45 -52.25 -78.75 -40.5 -69.85 L-36.5 -66.55 Q-28.25 -59.5 -17.2 -59.3 -14.65 -61.4 -15.4 -64.65 -18.15 -76.65 -25.4 -86.7 -28.7 -91.35 -28.95 -97.1 -29.4 -107.75 -19.6 -111.75 -23.8 -123.35 -33.2 -131.15 -36.25 -133.7 -38.85 -136.7 -42.05 -140.4 -44.7 -144.75 -50.75 -154.7 -49.7 -166.25 -48.2 -183.1 -35.1 -194.0 -29.95 -198.3 -23.4 -200.05 -9.1 -204.05 5.95 -202.7 7.1 -202.95 7.85 -203.65 18.5 -213.0 32.1 -216.4 50.45 -221.1 64.05 -207.7 L64.45 -208.95 M20.35 -49.2 Q35.55 -56.25 49.1 -66.4 61.1 -75.3 72.8 -84.7 L98.1 -104.8 Q110.85 -114.8 123.8 -124.4 L141.15 -137.15 98.05 -98.55 Q90.3 -91.7 82.0 -85.5 69.3 -75.85 56.8 -65.6 49.2 -59.35 42.05 -52.75 37.7 -48.6 33.8 -43.75 L28.9 -37.25 24.3 -30.55 Q24.25 -17.65 13.1 -10.9 L10.8 -9.6 Q7.6 -3.3 11.6 0.05 M-19.6 -111.75 L-14.7 -104.2 M24.3 -30.55 L23.95 -31.8 Q22.15 -37.45 16.05 -37.8 L14.0 -36.5 M-17.2 -59.3 L-17.9 -58.75" fill="none" stroke="#484848" stroke-linecap="round" stroke-linejoin="round" stroke-width="0.05"/>
    <path d="M64.45 -208.95 Q70.95 -223.7 80.35 -229.75 72.2 -218.15 67.55 -204.55 67.15 -203.4 67.45 -202.2 71.35 -186.65 74.85 -171.15 78.8 -153.7 67.5 -140.15 L64.75 -137.3 Q57.4 -130.95 56.9 -121.5 56.8 -119.2 57.8 -116.95 60.95 -110.05 57.75 -103.4 55.2 -98.05 50.55 -94.15 38.1 -83.8 33.35 -68.4 31.65 -62.8 27.75 -58.9 L23.65 -54.4 Q21.6 -52.0 20.35 -49.2 M11.6 0.05 L-12.45 0.05 Z" fill="none" stroke="#484848" stroke-linecap="round" stroke-linejoin="round" stroke-width="0.05"/>
    <path d="M57.65 -148.2 Q61.3 -156.8 59.6 -166.1 58.6 -171.6 55.8 -176.4 54.6 -178.4 52.9 -179.55 L48.85 -182.0 Q39.9 -187.25 30.4 -183.15 L27.45 -181.4 Q18.55 -174.95 15.05 -164.15 13.5 -159.35 14.0 -154.4 15.05 -144.5 22.1 -137.95 18.2 -139.7 14.9 -142.4 L9.8 -146.75 Q7.1 -149.0 6.45 -152.3 5.6 -156.85 3.9 -161.2 L2.65 -163.2 Q-0.75 -166.6 -6.15 -166.35 -8.1 -165.0 -9.3 -162.9 -9.75 -162.0 -9.8 -161.0 -9.9 -159.2 -8.95 -157.7 -8.05 -156.25 -7.7 -154.7 -7.25 -152.8 -7.4 -150.85 L-8.0 -143.7 Q-8.65 -149.85 -13.95 -153.3 L-16.4 -154.75 Q-21.65 -157.2 -27.6 -157.7 L-27.8 -157.7 Q-34.6 -162.5 -35.35 -171.0 -36.3 -182.4 -28.15 -190.45 -25.8 -192.8 -23.15 -194.45 -13.65 -200.15 -2.8 -199.05 L0.85 -198.65 Q4.0 -197.45 7.05 -195.55 7.05 -197.35 8.15 -198.7 18.15 -210.45 33.35 -212.65 40.5 -213.7 46.8 -210.3 51.7 -207.55 56.0 -203.85 61.3 -199.3 63.95 -192.8 L67.45 -183.55 Q68.95 -179.35 68.6 -174.75 68.0 -166.1 64.5 -158.25 62.0 -152.6 58.05 -148.05 L57.65 -148.2" fill="url(#gradient0)" fill-rule="evenodd" stroke="none"/>
    <path d="M57.65 -148.2 L58.05 -148.05 57.45 -147.8 57.65 -148.2" fill="url(#gradient1)" fill-rule="evenodd" stroke="none"/>
    <path d="M-4.0 -126.85 L-5.55 -129.0 Q-2.3 -132.65 2.45 -133.35 13.15 -135.0 23.95 -134.7 35.55 -134.4 40.8 -123.9 42.95 -119.7 41.75 -115.15 40.4 -110.2 36.05 -107.5 L33.65 -105.9 Q24.95 -99.9 18.15 -91.7 14.75 -98.2 9.7 -103.15 L5.75 -106.85 Q0.4 -111.75 -3.2 -118.1 -5.6 -122.25 -4.0 -126.85 L-3.8 -127.35 Q-2.95 -129.45 -0.6 -129.4 -2.95 -129.45 -3.8 -127.35 L-4.0 -126.85" fill="url(#gradient2)" fill-rule="evenodd" stroke="none"/>
    <path d="M18.15 -91.7 L19.35 -89.2 Q22.0 -83.8 19.4 -74.35 18.25 -81.6 16.95 -84.75 15.4 -88.55 18.15 -91.7" fill="url(#gradient3)" fill-rule="evenodd" stroke="none"/>
    <path d="M14.1 -70.1 L14.25 -59.75 13.75 -59.2 Q11.6 -58.6 11.3 -60.95 11.0 -63.1 11.25 -65.25 11.6 -68.25 14.1 -70.1" fill="url(#gradient4)" fill-rule="evenodd" stroke="none"/>
    <path d="M58.05 -148.05 Q62.0 -152.6 64.5 -158.25 68.0 -166.1 68.6 -174.75 68.95 -179.35 67.45 -183.55 L63.95 -192.8 Q61.3 -199.3 56.0 -203.85 51.7 -207.55 46.8 -210.3 40.5 -213.7 33.35 -212.65 18.15 -210.45 8.15 -198.7 7.05 -197.35 7.05 -195.55 4.0 -197.45 0.85 -198.65 L-2.8 -199.05 Q-13.65 -200.15 -23.15 -194.45 -25.8 -192.8 -28.15 -190.45 -36.3 -182.4 -35.35 -171.0 -34.6 -162.5 -27.8 -157.7 L-27.6 -157.7 Q-21.65 -157.2 -16.4 -154.75 L-13.95 -153.3 Q-8.65 -149.85 -8.0 -143.7 L-7.4 -150.85 Q-7.25 -152.8 -7.7 -154.7 -8.05 -156.25 -8.95 -157.7 -9.9 -159.2 -9.8 -161.0 -9.75 -162.0 -9.3 -162.9 -8.1 -165.0 -6.15 -166.35 -0.75 -166.6 2.65 -163.2 L3.9 -161.2 Q5.6 -156.85 6.45 -152.3 7.1 -149.0 9.8 -146.75 L14.9 -142.4 Q18.2 -139.7 22.1 -137.95 15.05 -144.5 14.0 -154.4 13.5 -159.35 15.05 -164.15 18.55 -174.95 27.45 -181.4 L30.4 -183.15 Q39.9 -187.25 48.85 -182.0 L52.9 -179.55 Q54.6 -178.4 55.8 -176.4 58.6 -171.6 59.6 -166.1 61.3 -156.8 57.65 -148.2 L57.45 -147.8 58.05 -148.05 M-4.0 -126.85 Q-5.6 -122.25 -3.2 -118.1 0.4 -111.75 5.75 -106.85 L9.7 -103.15 Q14.75 -98.2 18.15 -91.7 24.95 -99.9 33.65 -105.9 L36.05 -107.5 Q40.4 -110.2 41.75 -115.15 42.95 -119.7 40.8 -123.9 35.55 -134.4 23.95 -134.7 13.15 -135.0 2.45 -133.35 -2.3 -132.65 -5.55 -129.0 L-4.0 -126.85 -3.8 -127.35 Q-2.95 -129.45 -0.6 -129.4 M18.15 -91.7 L19.35 -89.2 Q22.0 -83.8 19.4 -74.35 18.25 -81.6 16.95 -84.75 15.4 -88.55 18.15 -91.7 M14.1 -70.1 L14.25 -59.75 13.75 -59.2 Q11.6 -58.6 11.3 -60.95 11.0 -63.1 11.25 -65.25 11.6 -68.25 14.1 -70.1" fill="none" stroke="#e4b001" stroke-linecap="round" stroke-linejoin="round" stroke-width="0.05"/>
  </g>
  <defs>
    <radialGradient cx="0" cy="0" gradientTransform="matrix(0.0875, 0.0, 0.0, 0.0875, 32.1, -192.65)" gradientUnits="userSpaceOnUse" id="gradient0" r="819.2" spreadMethod="pad">
      <stop offset="0.30196078431372547" stop-color="#ffffff"/>
      <stop offset="0.4549019607843137" stop-color="#fffbf0"/>
      <stop offset="0.8784313725490196" stop-color="#ffff00"/>
    </radialGradient>
    <radialGradient cx="0" cy="0" gradientTransform="matrix(0.0875, 0.0, 0.0, 0.0875, 32.1, -192.65)" gradientUnits="userSpaceOnUse" id="gradient1" r="819.2" spreadMethod="pad">
      <stop offset="0.30196078431372547" stop-color="#ffffff"/>
      <stop offset="0.4549019607843137" stop-color="#fffbf0"/>
      <stop offset="0.7372549019607844" stop-color="#ffc533"/>
      <stop offset="0.8784313725490196" stop-color="#fd8c3e"/>
      <stop offset="0.9882352941176471" stop-color="#bf6d2f"/>
    </radialGradient>
    <radialGradient cx="0" cy="0" gradientTransform="matrix(0.0468, 0.0, 0.0, 0.0468, 16.7, -117.85)" gradientUnits="userSpaceOnUse" id="gradient2" r="819.2" spreadMethod="pad">
      <stop offset="0.30196078431372547" stop-color="#ffffff"/>
      <stop offset="0.4549019607843137" stop-color="#fffbf0"/>
      <stop offset="0.8784313725490196" stop-color="#ffff00"/>
    </radialGradient>
    <radialGradient cx="0" cy="0" gradientTransform="matrix(0.0468, 0.0, 0.0, 0.0468, 16.7, -117.85)" gradientUnits="userSpaceOnUse" id="gradient3" r="819.2" spreadMethod="pad">
      <stop offset="0.30196078431372547" stop-color="#ffffff"/>
      <stop offset="0.4549019607843137" stop-color="#fffbf0"/>
      <stop offset="0.7372549019607844" stop-color="#ffc533"/>
      <stop offset="0.8784313725490196" stop-color="#fd8c3e"/>
      <stop offset="0.9882352941176471" stop-color="#bf6d2f"/>
    </radialGradient>
    <radialGradient cx="0" cy="0" gradientTransform="matrix(0.0135, 0.0, 0.0, 0.0135, 14.1, -70.1)" gradientUnits="userSpaceOnUse" id="gradient4" r="819.2" spreadMethod="pad">
      <stop offset="0.30196078431372547" stop-color="#ffffff"/>
      <stop offset="0.4549019607843137" stop-color="#fffbf0"/>
      <stop offset="0.7372549019607844" stop-color="#ffc533"/>
      <stop offset="0.8784313725490196" stop-color="#fd8c3e"/>
      <stop offset="0.9882352941176471" stop-color="#bf6d2f"/>
    </radialGradient>
  </defs>
</svg>
