<?xml version="1.0" encoding="UTF-8" standalone="no"?>
<svg xmlns:xlink="http://www.w3.org/1999/xlink" height="251.55px" width="264.95px" xmlns="http://www.w3.org/2000/svg">
  <g transform="matrix(1.0, 0.0, 0.0, 1.0, 133.85, 251.5)">
    <path d="M-8.45 0.05 Q-7.9 -2.05 -7.3 -16.2 L-11.95 -21.15 Q-16.2 -25.2 -21.7 -27.5 -27.35 -29.9 -32.9 -32.6 -37.4 -34.75 -41.75 -37.2 -53.1 -43.35 -64.35 -49.65 -91.8 -64.95 -117.75 -81.85 -125.3 -86.75 -132.7 -91.8 -133.4 -92.25 -133.65 -93.2 -134.05 -94.9 -133.6 -96.6 -128.0 -94.05 -122.65 -90.65 L-117.75 -87.55 Q-106.6 -80.6 -95.1 -74.05 -82.8 -66.95 -71.3 -59.2 L-59.2 -51.0 -54.85 -48.15 Q-38.25 -36.75 -18.8 -31.7 L0.1 -26.15 0.15 -30.0 Q-1.25 -33.25 -3.7 -35.9 -6.75 -39.1 -10.85 -41.05 L-11.0 -45.3 Q-22.0 -57.2 -35.6 -66.1 -59.6 -81.8 -84.15 -96.6 -90.3 -100.35 -96.8 -103.25 -109.05 -108.85 -117.75 -118.4 -121.75 -122.8 -124.95 -128.05 L-117.75 -124.25 -111.15 -120.65 Q-94.0 -111.2 -79.4 -98.4 -50.55 -73.0 -14.75 -58.55 -4.85 -66.75 -10.1 -79.45 -18.4 -99.6 -35.2 -113.8 -37.7 -115.9 -38.8 -118.65 -40.1 -121.75 -38.75 -124.9 -31.95 -140.45 -14.25 -140.15 -17.55 -149.75 -25.3 -156.45 -27.95 -158.75 -30.25 -161.35 -45.95 -178.65 -40.7 -201.0 -38.1 -211.95 -28.05 -216.9 -21.45 -220.25 -13.9 -222.05 -5.0 -224.05 4.1 -223.45 6.65 -228.85 10.25 -233.1 16.9 -240.95 27.25 -244.95 36.8 -248.55 46.65 -250.75 56.65 -252.95 65.95 -248.7 76.35 -244.0 82.8 -234.6 L93.95 -245.85 82.1 -225.95 Q85.55 -222.95 87.85 -219.3 91.95 -212.9 92.25 -204.6 92.7 -192.35 90.45 -180.3 89.5 -175.25 87.85 -170.5 83.9 -159.2 76.0 -149.8 85.6 -135.65 74.7 -122.95 62.75 -109.05 45.25 -103.85 L33.9 -76.9 Q22.7 -71.5 15.0 -61.9 L30.85 -57.3 Q43.0 -64.95 54.45 -73.05 68.5 -83.05 81.8 -94.15 L87.85 -99.15 118.75 -124.55 131.1 -134.55 33.45 -46.75 Q32.95 -44.05 31.85 -41.75 30.45 -38.95 28.05 -36.85 L25.3 -34.95 21.6 -32.9 19.05 -31.4 Q9.1 -24.55 8.6 -12.45 L6.35 -9.85 6.05 -9.5 Q4.8 -1.8 9.45 0.05 L-8.45 0.05 M7.25 -58.25 L15.0 -61.9 7.25 -58.25 M55.35 -151.3 Q64.65 -153.8 73.85 -150.65 L76.0 -149.8 73.85 -150.65 Q64.65 -153.8 55.35 -151.3 M-5.15 -135.8 L-14.25 -140.15 -5.15 -135.8" fill="#666666" fill-rule="evenodd" stroke="none"/>
    <path d="M-8.45 0.05 Q-7.9 -2.05 -7.3 -16.2 L-11.95 -21.15 Q-16.2 -25.2 -21.7 -27.5 -27.35 -29.9 -32.9 -32.6 -37.4 -34.75 -41.75 -37.2 -53.1 -43.35 -64.35 -49.65 -91.8 -64.95 -117.75 -81.85 -125.3 -86.75 -132.7 -91.8 -133.4 -92.25 -133.65 -93.2 -134.05 -94.9 -133.6 -96.6 -128.0 -94.05 -122.65 -90.65 L-117.75 -87.55 Q-106.6 -80.6 -95.1 -74.05 -82.8 -66.95 -71.3 -59.2 L-59.2 -51.0 -54.85 -48.15 Q-38.25 -36.75 -18.8 -31.7 L0.1 -26.15 0.15 -30.0 Q-1.25 -33.25 -3.7 -35.9 -6.75 -39.1 -10.85 -41.05 L-11.0 -45.3 Q-22.0 -57.2 -35.6 -66.1 -59.6 -81.8 -84.15 -96.6 -90.3 -100.35 -96.8 -103.25 -109.05 -108.85 -117.75 -118.4 -121.75 -122.8 -124.95 -128.05 L-117.75 -124.25 -111.15 -120.65 Q-94.0 -111.2 -79.4 -98.4 -50.55 -73.0 -14.75 -58.55 -4.85 -66.75 -10.1 -79.45 -18.4 -99.6 -35.2 -113.8 -37.7 -115.9 -38.8 -118.65 -40.1 -121.75 -38.75 -124.9 -31.95 -140.45 -14.25 -140.15 -17.55 -149.75 -25.3 -156.45 -27.95 -158.75 -30.25 -161.35 -45.95 -178.65 -40.7 -201.0 -38.1 -211.95 -28.05 -216.9 -21.45 -220.25 -13.9 -222.05 -5.0 -224.05 4.1 -223.45 6.65 -228.85 10.25 -233.1 16.9 -240.95 27.25 -244.95 36.8 -248.55 46.65 -250.75 56.65 -252.95 65.95 -248.7 76.35 -244.0 82.8 -234.6 L93.95 -245.85 82.1 -225.95 Q85.55 -222.95 87.85 -219.3 91.95 -212.9 92.25 -204.6 92.7 -192.35 90.45 -180.3 89.5 -175.25 87.85 -170.5 83.9 -159.2 76.0 -149.8 85.6 -135.65 74.7 -122.95 62.75 -109.05 45.25 -103.85 L33.9 -76.9 Q22.7 -71.5 15.0 -61.9 L30.85 -57.3 Q43.0 -64.95 54.45 -73.05 68.5 -83.05 81.8 -94.15 L87.85 -99.15 118.75 -124.55 131.1 -134.55 33.45 -46.75 Q32.95 -44.05 31.85 -41.75 30.45 -38.95 28.05 -36.85 L25.3 -34.95 21.6 -32.9 19.05 -31.4 Q9.1 -24.55 8.6 -12.45 L6.35 -9.85 6.05 -9.5 Q4.8 -1.8 9.45 0.05 M-14.25 -140.15 L-5.15 -135.8 M76.0 -149.8 L73.85 -150.65 Q64.65 -153.8 55.35 -151.3 M15.0 -61.9 L7.25 -58.25" fill="none" stroke="#484848" stroke-linecap="round" stroke-linejoin="round" stroke-width="0.05"/>
    <path d="M9.45 0.05 L-8.45 0.05 Z" fill="none" stroke="#484848" stroke-linecap="round" stroke-linejoin="round" stroke-width="0.05"/>
    <path d="M-32.1 -176.8 Q-42.65 -197.9 -21.95 -211.95 -7.5 -221.75 8.2 -216.5 22.6 -238.55 50.5 -241.8 67.95 -243.55 78.2 -229.0 86.75 -216.75 85.7 -201.4 85.0 -181.55 68.4 -170.25 L68.05 -170.6 Q82.3 -187.25 67.7 -207.8 50.95 -231.4 24.4 -218.7 7.5 -210.5 4.5 -191.95 2.9 -215.95 -16.25 -206.85 -19.8 -205.15 -23.1 -202.55 -36.35 -192.1 -31.6 -177.0 L-32.1 -176.8" fill="url(#gradient0)" fill-rule="evenodd" stroke="none"/>
    <path d="M9.05 -176.05 Q13.7 -178.15 18.75 -177.15 36.8 -173.45 39.25 -154.75 41.15 -139.05 29.1 -129.75 L27.2 -128.55 Q38.95 -149.8 17.2 -157.7 L13.4 -157.85 Q5.45 -156.15 5.1 -149.0 -12.15 -166.1 9.05 -176.05" fill="url(#gradient1)" fill-rule="evenodd" stroke="none"/>
    <path d="M-32.1 -176.8 Q-42.65 -197.9 -21.95 -211.95 -7.5 -221.75 8.2 -216.5 22.6 -238.55 50.5 -241.8 67.95 -243.55 78.2 -229.0 86.75 -216.75 85.7 -201.4 85.0 -181.55 68.4 -170.25 L66.7 -169.1 68.05 -170.6 Q82.3 -187.25 67.7 -207.8 50.95 -231.4 24.4 -218.7 7.5 -210.5 4.5 -191.95 2.9 -215.95 -16.25 -206.85 -19.8 -205.15 -23.1 -202.55 -36.35 -192.1 -31.6 -177.0 L-31.85 -176.3 -32.1 -176.8" fill="none" stroke="#e4b001" stroke-linecap="round" stroke-linejoin="round" stroke-width="0.05"/>
    <path d="M9.05 -176.05 Q13.7 -178.15 18.75 -177.15 36.8 -173.45 39.25 -154.75 41.15 -139.05 29.1 -129.75 L27.2 -128.55 Q38.95 -149.8 17.2 -157.7 L13.4 -157.85 Q5.45 -156.15 5.1 -149.0 -12.15 -166.1 9.05 -176.05" fill="none" stroke="#e4b001" stroke-linecap="round" stroke-linejoin="round" stroke-width="0.05"/>
  </g>
  <defs>
    <radialGradient cx="0" cy="0" gradientTransform="matrix(0.0994, 0.0, 0.0, 0.0578, 18.9, -228.8)" gradientUnits="userSpaceOnUse" id="gradient0" r="819.2" spreadMethod="pad">
      <stop offset="0.30196078431372547" stop-color="#ffffff"/>
      <stop offset="0.4549019607843137" stop-color="#fffbf0"/>
      <stop offset="0.8784313725490196" stop-color="#ffff00"/>
    </radialGradient>
    <radialGradient cx="0" cy="0" gradientTransform="matrix(0.051, 0.0, 0.0, 0.051, 25.95, -170.2)" gradientUnits="userSpaceOnUse" id="gradient1" r="819.2" spreadMethod="pad">
      <stop offset="0.30196078431372547" stop-color="#ffffff"/>
      <stop offset="0.4549019607843137" stop-color="#fffbf0"/>
      <stop offset="0.8784313725490196" stop-color="#ffff00"/>
    </radialGradient>
  </defs>
</svg>
