<?xml version="1.0" encoding="UTF-8" standalone="no"?>
<svg xmlns:xlink="http://www.w3.org/1999/xlink" height="267.6px" width="232.0px" xmlns="http://www.w3.org/2000/svg">
  <g transform="matrix(1.0, 0.0, 0.0, 1.0, 120.1, 267.55)">
    <path d="M2.6 -241.3 Q12.85 -255.6 28.75 -263.05 31.85 -264.55 35.15 -265.3 54.35 -268.8 73.85 -266.9 76.2 -266.4 77.6 -265.0 78.95 -263.65 80.65 -259.2 82.35 -254.8 90.05 -249.0 L98.75 -253.7 92.25 -238.45 Q99.15 -224.35 103.15 -209.55 107.2 -194.35 96.65 -182.4 95.2 -180.75 93.35 -179.7 84.55 -174.45 80.2 -165.5 85.05 -161.65 87.65 -156.0 94.9 -140.5 86.65 -125.3 81.8 -116.35 72.2 -114.9 61.35 -113.15 51.15 -108.65 37.35 -102.65 37.5 -87.7 35.05 -97.45 38.95 -106.5 40.3 -109.5 42.5 -111.85 47.55 -117.25 50.3 -124.0 53.75 -132.5 49.95 -141.0 47.75 -145.9 42.5 -147.45 31.5 -150.5 22.85 -142.05 L22.1 -147.15 Q20.85 -154.9 18.5 -162.35 13.3 -178.5 -3.2 -184.15 -4.3 -189.1 -8.95 -190.85 L-11.55 -190.9 Q-21.5 -186.45 -19.75 -175.65 -19.35 -173.3 -18.1 -171.35 -12.4 -162.7 -12.3 -152.7 L-13.25 -147.95 -13.9 -152.2 -13.25 -147.95 -12.3 -152.7 Q0.05 -156.4 11.0 -148.4 24.05 -138.85 24.7 -122.95 24.95 -116.1 21.5 -110.05 12.05 -93.6 4.5 -76.25 L1.8 -70.15 Q-2.3 -61.4 -2.05 -51.25 -7.8 -69.4 -1.4 -87.75 -1.05 -88.7 -1.55 -89.7 -6.85 -99.9 -17.95 -105.0 -20.45 -106.1 -22.75 -107.65 -30.85 -113.3 -32.9 -122.45 -33.45 -124.85 -33.15 -127.25 -31.65 -139.65 -21.85 -147.35 -18.15 -150.3 -13.9 -152.2 -14.65 -160.6 -22.5 -163.95 -41.0 -171.95 -49.85 -190.1 -58.95 -208.7 -51.3 -228.1 -48.0 -236.45 -40.4 -241.1 -24.4 -250.9 -6.55 -245.4 -1.65 -243.85 2.6 -241.3 L2.6 -238.95 2.6 -241.3 M55.35 -160.65 L57.75 -162.25 Q68.55 -169.25 80.2 -165.5 68.55 -169.25 57.75 -162.25 L55.35 -160.65 M4.1 0.05 Q6.9 -3.8 6.7 -8.2 6.45 -12.6 6.75 -19.05 7.05 -25.5 6.45 -37.1 6.05 -44.15 5.95 -51.5 5.75 -66.95 17.65 -76.6 19.7 -78.3 22.2 -78.85 33.65 -81.3 40.3 -71.15 45.35 -70.35 50.25 -72.0 52.5 -72.8 54.35 -74.25 75.75 -90.6 94.4 -110.2 98.5 -114.45 102.1 -119.05 106.2 -124.2 111.9 -123.5 109.45 -120.15 106.55 -117.2 85.8 -96.5 63.9 -77.1 57.2 -71.1 52.2 -63.85 45.8 -54.55 44.85 -42.7 34.05 -34.9 21.8 -29.55 17.3 -27.5 14.25 -23.65 5.25 -12.2 12.55 0.05 L4.1 0.05 M-89.75 -121.2 Q-85.3 -119.1 -82.45 -115.3 -70.75 -99.7 -54.4 -89.2 L-48.55 -85.0 Q-43.35 -80.75 -39.95 -75.05 -44.8 -76.25 -49.05 -78.7 -57.7 -83.6 -65.25 -90.15 -76.75 -100.05 -89.0 -108.85 -103.05 -118.8 -117.65 -127.45 -102.9 -127.5 -89.75 -121.2 M-120.1 -91.75 L-120.0 -93.3 -111.0 -89.6 Q-106.65 -87.6 -102.55 -85.05 -73.7 -67.45 -47.45 -45.9 -61.4 -55.75 -76.35 -64.55 -91.2 -73.2 -106.75 -80.8 -114.7 -84.65 -120.1 -91.75" fill="#666666" fill-rule="evenodd" stroke="none"/>
    <path d="M80.2 -165.5 Q84.55 -174.45 93.35 -179.7 95.2 -180.75 96.65 -182.4 107.2 -194.35 103.15 -209.55 99.15 -224.35 92.25 -238.45 L98.75 -253.7 90.05 -249.0 Q82.35 -254.8 80.65 -259.2 78.95 -263.65 77.6 -265.0 76.2 -266.4 73.85 -266.9 54.35 -268.8 35.15 -265.3 31.85 -264.55 28.75 -263.05 12.85 -255.6 2.6 -241.3 L2.6 -238.95 M-12.3 -152.7 Q-12.4 -162.7 -18.1 -171.35 -19.35 -173.3 -19.75 -175.65 -21.5 -186.45 -11.55 -190.9 L-8.95 -190.85 Q-4.3 -189.1 -3.2 -184.15 13.3 -178.5 18.5 -162.35 20.85 -154.9 22.1 -147.15 L22.85 -142.05 Q31.5 -150.5 42.5 -147.45 47.75 -145.9 49.95 -141.0 53.75 -132.5 50.3 -124.0 47.55 -117.25 42.5 -111.85 40.3 -109.5 38.95 -106.5 35.05 -97.45 37.5 -87.7 37.35 -102.65 51.15 -108.65 61.35 -113.15 72.2 -114.9 81.8 -116.35 86.65 -125.3 94.9 -140.5 87.65 -156.0 85.05 -161.65 80.2 -165.5 68.55 -169.25 57.75 -162.25 L55.35 -160.65 M12.55 0.05 Q5.25 -12.2 14.25 -23.65 17.3 -27.5 21.8 -29.55 34.05 -34.9 44.85 -42.7 45.8 -54.55 52.2 -63.85 57.2 -71.1 63.9 -77.1 85.8 -96.5 106.55 -117.2 109.45 -120.15 111.9 -123.5 106.2 -124.2 102.1 -119.05 98.5 -114.45 94.4 -110.2 75.75 -90.6 54.35 -74.25 52.5 -72.8 50.25 -72.0 45.35 -70.35 40.3 -71.15 33.65 -81.3 22.2 -78.85 19.7 -78.3 17.65 -76.6 5.75 -66.95 5.95 -51.5 6.05 -44.15 6.45 -37.1 7.05 -25.5 6.75 -19.05 6.45 -12.6 6.7 -8.2 6.9 -3.8 4.1 0.05 M2.6 -241.3 Q-1.65 -243.85 -6.55 -245.4 -24.4 -250.9 -40.4 -241.1 -48.0 -236.45 -51.3 -228.1 -58.95 -208.7 -49.85 -190.1 -41.0 -171.95 -22.5 -163.95 -14.65 -160.6 -13.9 -152.2 L-13.25 -147.95 -12.3 -152.7 Q0.05 -156.4 11.0 -148.4 24.05 -138.85 24.7 -122.95 24.95 -116.1 21.5 -110.05 12.05 -93.6 4.5 -76.25 L1.8 -70.15 Q-2.3 -61.4 -2.05 -51.25 -7.8 -69.4 -1.4 -87.75 -1.05 -88.7 -1.55 -89.7 -6.85 -99.9 -17.95 -105.0 -20.45 -106.1 -22.75 -107.65 -30.85 -113.3 -32.9 -122.45 -33.45 -124.85 -33.15 -127.25 -31.65 -139.65 -21.85 -147.35 -18.15 -150.3 -13.9 -152.2 M-120.1 -91.75 Q-114.7 -84.65 -106.75 -80.8 -91.2 -73.2 -76.35 -64.55 -61.4 -55.75 -47.45 -45.9 -73.7 -67.45 -102.55 -85.05 -106.65 -87.6 -111.0 -89.6 L-120.0 -93.3 -120.1 -91.75 M-89.75 -121.2 Q-102.9 -127.5 -117.65 -127.45 -103.05 -118.8 -89.0 -108.85 -76.75 -100.05 -65.25 -90.15 -57.7 -83.6 -49.05 -78.7 -44.8 -76.25 -39.95 -75.05 -43.35 -80.75 -48.55 -85.0 L-54.4 -89.2 Q-70.75 -99.7 -82.45 -115.3 -85.3 -119.1 -89.75 -121.2" fill="none" stroke="#484848" stroke-linecap="round" stroke-linejoin="round" stroke-width="0.05"/>
    <path d="M4.1 0.05 L12.55 0.05" fill="none" stroke="#484848" stroke-linecap="round" stroke-linejoin="round" stroke-width="0.05"/>
  </g>
</svg>
