<?xml version="1.0" encoding="UTF-8" standalone="no"?>
<svg xmlns:xlink="http://www.w3.org/1999/xlink" height="73.3px" width="135.5px" xmlns="http://www.w3.org/2000/svg">
  <g transform="matrix(1.0, 0.0, 0.0, 1.0, 42.8, 254.55)">
    <path d="M15.2 -234.9 Q29.3 -255.4 57.1 -254.5 77.25 -253.55 88.05 -236.3 99.9 -217.35 81.4 -210.35 89.6 -228.55 70.65 -240.25 41.7 -258.2 15.65 -234.55 L15.2 -234.9" fill="url(#gradient0)" fill-rule="evenodd" stroke="none"/>
    <path d="M-39.8 -217.25 L-42.8 -224.2 -28.05 -234.65 Q-13.9 -244.65 4.45 -230.7 L5.9 -228.35 Q-20.45 -240.2 -39.8 -217.25" fill="url(#gradient1)" fill-rule="evenodd" stroke="none"/>
    <path d="M20.05 -210.65 Q29.05 -209.45 31.7 -200.5 34.75 -190.25 29.1 -181.25 31.3 -203.7 10.8 -199.9 6.55 -199.0 4.4 -195.2 3.2 -193.0 1.85 -194.0 1.05 -212.95 20.05 -210.65" fill="url(#gradient2)" fill-rule="evenodd" stroke="none"/>
    <path d="M15.2 -234.9 Q29.3 -255.4 57.1 -254.5 77.25 -253.55 88.05 -236.3 99.9 -217.35 81.4 -210.35 89.6 -228.55 70.65 -240.25 41.7 -258.2 15.65 -234.55 14.1 -233.2 13.0 -231.4 L15.2 -234.9 M20.05 -210.65 Q29.05 -209.45 31.7 -200.5 34.75 -190.25 29.1 -181.25 31.3 -203.7 10.8 -199.9 6.55 -199.0 4.4 -195.2 3.2 -193.0 1.85 -194.0 1.05 -212.95 20.05 -210.65" fill="none" stroke="#e4b001" stroke-linecap="round" stroke-linejoin="round" stroke-width="0.05"/>
    <path d="M-39.8 -217.25 Q-20.45 -240.2 5.9 -228.35 L4.45 -230.7 Q-13.9 -244.65 -28.05 -234.65 L-42.8 -224.2 -39.8 -217.25" fill="none" stroke="#e4b001" stroke-linecap="round" stroke-linejoin="round" stroke-width="0.05"/>
  </g>
  <defs>
    <radialGradient cx="0" cy="0" gradientTransform="matrix(0.0636, 0.0, 0.0, 0.0636, 57.1, -254.5)" gradientUnits="userSpaceOnUse" id="gradient0" r="819.2" spreadMethod="pad">
      <stop offset="0.30196078431372547" stop-color="#ffffff"/>
      <stop offset="0.4549019607843137" stop-color="#fffbf0"/>
      <stop offset="0.8784313725490196" stop-color="#ffff00"/>
    </radialGradient>
    <radialGradient cx="0" cy="0" gradientTransform="matrix(0.0425, 0.0, 0.0, 0.0425, -12.2, -238.55)" gradientUnits="userSpaceOnUse" id="gradient1" r="819.2" spreadMethod="pad">
      <stop offset="0.30196078431372547" stop-color="#ffffff"/>
      <stop offset="0.4549019607843137" stop-color="#fffbf0"/>
      <stop offset="0.8784313725490196" stop-color="#ffff00"/>
    </radialGradient>
    <radialGradient cx="0" cy="0" gradientTransform="matrix(0.0368, 0.0, 0.0, 0.0368, 21.4, -210.4)" gradientUnits="userSpaceOnUse" id="gradient2" r="819.2" spreadMethod="pad">
      <stop offset="0.30196078431372547" stop-color="#ffffff"/>
      <stop offset="0.4549019607843137" stop-color="#fffbf0"/>
      <stop offset="0.8784313725490196" stop-color="#ffff00"/>
    </radialGradient>
  </defs>
</svg>
