<?xml version="1.0" encoding="UTF-8" standalone="no"?>
<svg xmlns:xlink="http://www.w3.org/1999/xlink" height="247.6px" width="247.3px" xmlns="http://www.w3.org/2000/svg">
  <g transform="matrix(1.0, 0.0, 0.0, 1.0, 113.9, 273.1)">
    <path d="M7.15 -257.9 Q14.5 -271.75 30.25 -273.1 L36.6 -272.4 52.95 -269.6 Q62.0 -267.75 70.25 -264.2 72.75 -263.15 74.9 -261.2 85.5 -251.25 93.35 -238.95 101.2 -226.55 99.3 -212.1 98.35 -204.95 95.75 -198.1 L93.3 -191.25 Q91.75 -186.75 88.65 -183.3 87.55 -182.05 86.05 -181.2 77.65 -176.15 68.1 -173.2 L70.85 -177.7 Q69.65 -185.35 64.3 -190.7 61.65 -193.4 58.25 -195.25 56.0 -196.4 53.45 -197.1 L47.7 -199.0 44.15 -199.2 Q35.1 -196.7 29.35 -189.15 L24.45 -189.55 22.55 -187.75 Q21.8 -186.95 21.9 -185.9 23.05 -175.6 23.4 -165.05 23.6 -159.9 20.45 -155.95 20.25 -175.3 17.45 -194.45 16.15 -203.15 12.2 -210.65 4.85 -224.4 -10.05 -228.3 -16.35 -230.05 -22.4 -228.15 -28.15 -220.15 -30.05 -210.35 -30.85 -206.25 -30.25 -202.15 -28.4 -189.8 -28.4 -177.35 L-28.9 -177.2 -28.95 -177.35 Q-29.9 -180.8 -31.45 -184.1 -32.25 -185.8 -33.5 -187.1 -43.7 -197.55 -52.2 -209.25 -61.5 -221.9 -57.95 -237.2 -54.55 -251.75 -42.25 -260.25 -32.75 -266.7 -21.4 -265.15 -6.75 -263.0 7.15 -257.9 L3.35 -244.4 7.15 -257.9 M48.1 -94.3 Q48.2 -102.9 49.05 -111.5 L49.45 -114.6 Q49.9 -117.5 50.65 -120.35 52.05 -125.65 52.7 -130.9 53.45 -137.15 50.3 -142.6 L42.45 -155.45 Q41.9 -156.3 41.95 -157.25 42.4 -163.55 48.05 -167.0 49.3 -167.8 50.35 -168.85 52.9 -171.45 56.1 -173.15 57.15 -173.75 58.25 -173.5 71.25 -171.15 81.1 -161.8 86.6 -156.65 89.35 -150.05 91.4 -145.05 89.8 -139.7 87.5 -131.85 79.8 -128.0 70.6 -123.35 60.2 -122.95 58.65 -122.55 57.9 -121.25 56.1 -118.05 55.0 -114.6 L54.15 -111.2 Q52.3 -102.0 48.75 -93.65 L47.35 -90.95 48.1 -94.3 47.35 -90.95 48.75 -93.65 Q50.0 -90.25 51.8 -87.1 55.25 -81.2 53.9 -74.85 53.4 -72.5 51.65 -70.95 43.7 -63.85 34.95 -57.6 31.8 -55.35 29.6 -52.4 27.65 -49.8 26.45 -46.65 25.75 -44.75 25.85 -42.75 26.4 -33.75 22.65 -25.5 L21.6 -38.4 Q21.0 -44.95 19.1 -51.05 16.5 -59.2 15.35 -67.85 13.4 -82.4 24.3 -91.6 22.65 -97.8 27.1 -101.2 L29.35 -102.6 Q32.2 -103.95 34.7 -102.0 40.7 -97.3 48.1 -94.3 M85.5 -101.35 Q82.35 -98.75 79.5 -95.7 75.0 -90.85 69.05 -87.7 72.2 -94.75 78.35 -99.45 L85.5 -105.1 Q92.65 -110.9 99.45 -117.05 111.25 -127.75 123.9 -137.75 L124.7 -137.3 133.4 -143.1 Q122.85 -130.8 110.55 -120.25 101.25 -112.3 91.0 -105.5 L85.5 -101.35 M-95.85 -127.95 Q-92.75 -128.85 -89.75 -127.4 -74.1 -119.5 -63.95 -105.55 -63.3 -104.65 -63.1 -103.5 -62.15 -97.4 -68.0 -96.9 L-100.1 -125.9 Q-98.05 -127.25 -95.85 -127.95 M-113.75 -103.95 Q-106.6 -100.35 -98.75 -98.45 -97.25 -98.05 -96.4 -97.0 -94.15 -94.2 -95.55 -90.8 -105.1 -92.25 -112.4 -98.5 -113.5 -99.4 -113.75 -100.8 -114.0 -102.35 -113.75 -103.95 M5.9 -155.55 L8.15 -148.5 Q12.5 -134.95 11.45 -120.75 10.35 -106.25 2.95 -93.85 2.3 -92.7 1.15 -92.3 L-0.15 -92.45 Q7.5 -103.45 2.0 -115.7 0.0 -120.05 -3.05 -123.45 -6.1 -126.85 -10.2 -129.3 -15.4 -132.4 -21.25 -133.85 L-31.55 -143.35 Q-33.05 -144.8 -33.2 -147.05 -34.95 -170.7 -11.35 -173.9 L-6.35 -171.4 -3.05 -169.05 Q3.15 -163.95 5.9 -155.55" fill="#666666" fill-rule="evenodd" stroke="none"/>
    <path d="M7.15 -257.9 Q14.5 -271.75 30.25 -273.1 L36.6 -272.4 52.95 -269.6 Q62.0 -267.75 70.25 -264.2 72.75 -263.15 74.9 -261.2 85.5 -251.25 93.35 -238.95 101.2 -226.55 99.3 -212.1 98.35 -204.95 95.75 -198.1 L93.3 -191.25 Q91.75 -186.75 88.65 -183.3 87.55 -182.05 86.05 -181.2 77.65 -176.15 68.1 -173.2 L70.85 -177.7 Q69.65 -185.35 64.3 -190.7 61.65 -193.4 58.25 -195.25 56.0 -196.4 53.45 -197.1 M7.15 -257.9 L3.35 -244.4 M48.75 -93.65 Q52.3 -102.0 54.15 -111.2 L55.0 -114.6 Q56.1 -118.05 57.9 -121.25 58.65 -122.55 60.2 -122.95 70.6 -123.35 79.8 -128.0 87.5 -131.85 89.8 -139.7 91.4 -145.05 89.35 -150.05 86.6 -156.65 81.1 -161.8 71.25 -171.15 58.25 -173.5 57.15 -173.75 56.1 -173.15 52.9 -171.45 50.35 -168.85 49.3 -167.8 48.05 -167.0 42.4 -163.55 41.95 -157.25 41.9 -156.3 42.45 -155.45 L50.3 -142.6 Q53.45 -137.15 52.7 -130.9 52.05 -125.65 50.65 -120.35 49.9 -117.5 49.45 -114.6 L49.05 -111.5 Q48.2 -102.9 48.1 -94.3 L47.35 -90.95 48.75 -93.65 Q50.0 -90.25 51.8 -87.1 55.25 -81.2 53.9 -74.85 53.4 -72.5 51.65 -70.95 43.7 -63.85 34.95 -57.6 31.8 -55.35 29.6 -52.4 27.65 -49.8 26.45 -46.65 25.75 -44.75 25.85 -42.75 26.4 -33.75 22.65 -25.5 L21.6 -38.4 Q21.0 -44.95 19.1 -51.05 16.5 -59.2 15.35 -67.85 13.4 -82.4 24.3 -91.6 22.65 -97.8 27.1 -101.2 L29.35 -102.6 Q32.2 -103.95 34.7 -102.0 40.7 -97.3 48.1 -94.3 M85.5 -101.35 Q82.35 -98.75 79.5 -95.7 75.0 -90.85 69.05 -87.7 72.2 -94.75 78.35 -99.45 L85.5 -105.1 Q92.65 -110.9 99.45 -117.05 111.25 -127.75 123.9 -137.75 L124.7 -137.3 133.4 -143.1 Q122.85 -130.8 110.55 -120.25 101.25 -112.3 91.0 -105.5 L85.5 -101.35 M-95.85 -127.95 Q-92.75 -128.85 -89.75 -127.4 -74.1 -119.5 -63.95 -105.55 -63.3 -104.65 -63.1 -103.5 -62.15 -97.4 -68.0 -96.9 L-100.1 -125.9 Q-98.05 -127.25 -95.85 -127.95 M5.9 -155.55 L8.15 -148.5 Q12.5 -134.95 11.45 -120.75 10.35 -106.25 2.95 -93.85 2.3 -92.7 1.15 -92.3 L-0.15 -92.45 Q7.5 -103.45 2.0 -115.7 0.0 -120.05 -3.05 -123.45 -6.1 -126.85 -10.2 -129.3 -15.4 -132.4 -21.25 -133.85 L-31.55 -143.35 Q-33.05 -144.8 -33.2 -147.05 -34.95 -170.7 -11.35 -173.9 L-6.35 -171.4 -3.05 -169.05 Q3.15 -163.95 5.9 -155.55" fill="none" stroke="#484848" stroke-linecap="round" stroke-linejoin="round" stroke-width="0.05"/>
    <path d="M53.45 -197.1 L47.7 -199.0 44.15 -199.2 Q35.1 -196.7 29.35 -189.15 L24.45 -189.55 22.55 -187.75 Q21.8 -186.95 21.9 -185.9 23.05 -175.6 23.4 -165.05 23.6 -159.9 20.45 -155.95 20.25 -175.3 17.45 -194.45 16.15 -203.15 12.2 -210.65 4.85 -224.4 -10.05 -228.3 -16.35 -230.05 -22.4 -228.15 -28.15 -220.15 -30.05 -210.35 -30.85 -206.25 -30.25 -202.15 -28.4 -189.8 -28.4 -177.35 L-28.45 -175.35 -28.9 -177.2 -28.95 -177.35 Q-29.9 -180.8 -31.45 -184.1 -32.25 -185.8 -33.5 -187.1 -43.7 -197.55 -52.2 -209.25 -61.5 -221.9 -57.95 -237.2 -54.55 -251.75 -42.25 -260.25 -32.75 -266.7 -21.4 -265.15 -6.75 -263.0 7.15 -257.9 M-113.75 -103.95 Q-106.6 -100.35 -98.75 -98.45 -97.25 -98.05 -96.4 -97.0 -94.15 -94.2 -95.55 -90.8 -105.1 -92.25 -112.4 -98.5 -113.5 -99.4 -113.75 -100.8 -114.0 -102.35 -113.75 -103.95" fill="none" stroke="#484848" stroke-linecap="round" stroke-linejoin="round" stroke-width="0.05"/>
  </g>
</svg>
