<?xml version="1.0" encoding="UTF-8" standalone="no"?>
<svg xmlns:xlink="http://www.w3.org/1999/xlink" height="223.45px" width="251.4px" xmlns="http://www.w3.org/2000/svg">
  <g transform="matrix(1.0, 0.0, 0.0, 1.0, 114.3, 273.35)">
    <path d="M82.4 -233.6 Q82.95 -227.55 83.95 -221.55 85.45 -212.9 84.8 -204.3 84.6 -201.95 83.55 -199.65 79.2 -189.95 69.65 -185.2 L69.05 -185.3 Q68.15 -187.55 69.5 -189.95 75.5 -200.8 79.05 -212.65 79.6 -214.6 78.6 -216.2 75.5 -221.0 73.1 -226.2 70.15 -232.55 67.5 -239.05 66.95 -240.3 66.0 -241.3 64.45 -242.95 62.5 -244.05 51.2 -251.0 38.7 -255.45 L36.8 -255.55 29.0 -252.95 Q24.4 -251.25 20.25 -253.6 14.95 -256.6 15.95 -262.5 16.4 -265.3 18.35 -267.15 20.4 -269.1 23.25 -269.5 26.65 -269.25 29.65 -270.55 L31.2 -271.25 33.0 -272.0 Q46.0 -274.95 58.95 -271.35 67.1 -269.25 73.3 -263.4 78.2 -258.9 80.3 -252.35 82.4 -248.1 82.85 -243.35 83.05 -240.85 82.55 -238.3 82.15 -235.95 82.4 -233.6 M71.45 -158.1 Q67.05 -160.6 62.15 -161.45 58.85 -161.7 56.05 -160.2 51.5 -157.75 49.35 -153.05 48.5 -151.2 48.05 -149.15 L46.0 -138.3 Q40.25 -144.2 38.6 -152.4 37.1 -159.75 39.5 -166.7 40.95 -170.85 44.0 -173.85 46.2 -176.1 48.85 -177.75 58.65 -177.25 65.0 -170.25 68.4 -166.55 73.35 -165.9 74.9 -165.7 76.4 -165.0 80.2 -163.1 81.75 -159.3 84.45 -153.55 83.0 -147.4 82.3 -144.55 79.4 -144.35 79.55 -153.4 71.45 -158.1 M22.45 -71.95 L20.25 -75.95 Q17.6 -73.75 16.55 -70.3 16.15 -69.15 15.4 -68.15 13.55 -65.6 10.95 -64.25 9.4 -63.5 7.75 -64.2 14.9 -70.65 17.2 -79.85 10.5 -90.3 12.7 -102.25 13.4 -106.2 15.15 -109.8 19.4 -118.3 25.45 -125.7 L27.4 -124.95 Q30.0 -119.4 36.05 -117.7 42.55 -102.75 50.6 -88.55 L52.15 -84.7 Q54.05 -77.6 50.4 -71.8 49.5 -70.4 47.25 -64.45 44.95 -58.55 41.35 -54.5 37.7 -50.5 34.95 -49.9 35.35 -54.4 38.6 -57.9 39.65 -59.0 40.35 -60.4 46.5 -72.8 41.05 -85.75 38.65 -91.4 33.7 -95.15 32.5 -96.05 30.55 -96.05 25.05 -95.65 23.55 -90.45 22.8 -87.9 22.55 -85.2 21.95 -78.6 22.45 -71.95 M136.0 -150.4 Q138.05 -147.7 136.2 -144.5 134.35 -141.3 130.85 -139.75 128.75 -133.2 123.3 -129.15 121.1 -127.4 118.4 -127.9 117.65 -127.95 117.05 -128.4 L115.6 -129.65 Q115.6 -131.55 116.9 -132.8 126.15 -141.95 136.0 -150.4 M-5.4 -239.3 Q-6.05 -238.35 -7.05 -237.8 -9.95 -236.5 -13.4 -236.8 -17.2 -237.15 -20.85 -236.85 -23.45 -236.35 -25.5 -234.55 -34.0 -227.15 -34.0 -215.55 L-34.25 -213.2 Q-36.3 -204.2 -34.95 -195.1 -33.95 -188.2 -31.45 -181.6 L-32.9 -181.0 Q-37.25 -187.8 -38.15 -195.9 -38.3 -197.2 -38.85 -198.4 -41.0 -202.7 -44.85 -205.8 L-48.9 -209.6 Q-50.5 -211.4 -50.7 -213.55 L-50.45 -215.05 Q-49.0 -218.1 -48.8 -221.7 -48.7 -223.05 -49.0 -224.4 L-51.05 -234.3 Q-51.9 -238.6 -50.85 -242.75 -49.45 -248.4 -45.3 -252.7 L-43.05 -254.25 Q-34.55 -258.1 -25.1 -257.65 -21.3 -263.0 -14.75 -262.55 -7.4 -261.7 -1.6 -257.65 -0.2 -256.55 0.8 -254.95 3.3 -251.1 1.2 -247.0 -2.6 -243.6 -5.4 -239.3 M12.7 -238.95 Q21.1 -222.9 23.4 -205.15 23.8 -201.9 22.45 -199.0 21.55 -197.15 19.65 -197.1 21.25 -203.35 17.65 -208.3 L14.95 -212.15 Q11.5 -217.2 10.75 -223.25 10.0 -229.25 10.9 -235.05 L12.7 -238.95 M-12.1 -186.6 Q-12.75 -191.85 -7.55 -193.65 -3.8 -194.8 -0.35 -192.85 5.1 -189.6 7.1 -183.6 L10.75 -171.95 Q11.3 -170.1 11.35 -168.15 11.6 -162.2 9.7 -156.6 6.95 -148.6 6.0 -140.0 5.55 -136.15 1.8 -135.05 -0.7 -139.45 0.8 -144.35 L1.55 -148.5 Q2.05 -156.9 -2.4 -164.05 -6.65 -171.0 -14.65 -172.25 -18.6 -172.75 -21.2 -169.55 -24.15 -165.9 -25.75 -161.55 -28.05 -155.5 -28.45 -149.0 L-31.1 -150.2 Q-34.4 -165.4 -27.1 -178.85 -24.2 -184.15 -18.6 -186.25 L-15.55 -186.75 -12.1 -186.6 -8.25 -183.9 -12.1 -186.6 M-87.2 -133.65 Q-88.4 -131.85 -90.55 -132.0 -96.55 -132.25 -97.25 -138.0 -97.75 -141.95 -97.45 -145.9 L-96.5 -153.95 -95.25 -154.85 Q-91.65 -152.2 -91.45 -147.75 -91.4 -146.7 -90.65 -145.8 L-88.4 -143.45 Q-83.55 -139.0 -87.2 -133.65 M-112.4 -117.9 Q-104.85 -114.5 -103.6 -106.2 -106.55 -103.4 -109.9 -105.3 -112.7 -106.85 -113.8 -110.05 -115.05 -113.65 -113.05 -117.0 L-112.4 -117.9" fill="#666666" fill-rule="evenodd" stroke="none"/>
    <path d="M82.4 -233.6 Q82.95 -227.55 83.95 -221.55 85.45 -212.9 84.8 -204.3 84.6 -201.95 83.55 -199.65 79.2 -189.95 69.65 -185.2 L69.05 -185.3 Q68.15 -187.55 69.5 -189.95 75.5 -200.8 79.05 -212.65 79.6 -214.6 78.6 -216.2 75.5 -221.0 73.1 -226.2 70.15 -232.55 67.5 -239.05 66.95 -240.3 66.0 -241.3 64.45 -242.95 62.5 -244.05 51.2 -251.0 38.7 -255.45 L36.8 -255.55 29.0 -252.95 Q24.4 -251.25 20.25 -253.6 14.95 -256.6 15.95 -262.5 16.4 -265.3 18.35 -267.15 20.4 -269.1 23.25 -269.5 26.65 -269.25 29.65 -270.55 L31.2 -271.25 33.0 -272.0 Q46.0 -274.95 58.95 -271.35 67.1 -269.25 73.3 -263.4 78.2 -258.9 80.3 -252.35 82.4 -248.1 82.85 -243.35 83.05 -240.85 82.55 -238.3 82.15 -235.95 82.4 -233.6 M71.45 -158.1 Q67.05 -160.6 62.15 -161.45 58.85 -161.7 56.05 -160.2 51.5 -157.75 49.35 -153.05 48.5 -151.2 48.05 -149.15 L46.0 -138.3 Q40.25 -144.2 38.6 -152.4 37.1 -159.75 39.5 -166.7 40.95 -170.85 44.0 -173.85 46.2 -176.1 48.85 -177.75 58.65 -177.25 65.0 -170.25 68.4 -166.55 73.35 -165.9 74.9 -165.7 76.4 -165.0 80.2 -163.1 81.75 -159.3 84.45 -153.55 83.0 -147.4 82.3 -144.55 79.4 -144.35 79.55 -153.4 71.45 -158.1 M22.45 -71.95 L20.25 -75.95 Q17.6 -73.75 16.55 -70.3 16.15 -69.15 15.4 -68.15 13.55 -65.6 10.95 -64.25 9.4 -63.5 7.75 -64.2 14.9 -70.65 17.2 -79.85 10.5 -90.3 12.7 -102.25 13.4 -106.2 15.15 -109.8 19.4 -118.3 25.45 -125.7 L27.4 -124.95 Q30.0 -119.4 36.05 -117.7 42.55 -102.75 50.6 -88.55 L52.15 -84.7 Q54.05 -77.6 50.4 -71.8 49.5 -70.4 47.25 -64.45 44.95 -58.55 41.35 -54.5 37.7 -50.5 34.95 -49.9 35.35 -54.4 38.6 -57.9 39.65 -59.0 40.35 -60.4 46.5 -72.8 41.05 -85.75 38.65 -91.4 33.7 -95.15 32.5 -96.05 30.55 -96.05 25.05 -95.65 23.55 -90.45 22.8 -87.9 22.55 -85.2 21.95 -78.6 22.45 -71.95 L22.75 -69.1 M136.0 -150.4 Q138.05 -147.7 136.2 -144.5 134.35 -141.3 130.85 -139.75 128.75 -133.2 123.3 -129.15 121.1 -127.4 118.4 -127.9 117.65 -127.95 117.05 -128.4 L115.6 -129.65 Q115.6 -131.55 116.9 -132.8 126.15 -141.95 136.0 -150.4 M12.7 -238.95 Q21.1 -222.9 23.4 -205.15 23.8 -201.9 22.45 -199.0 21.55 -197.15 19.65 -197.1 21.25 -203.35 17.65 -208.3 L14.95 -212.15 Q11.5 -217.2 10.75 -223.25 10.0 -229.25 10.9 -235.05 L12.7 -238.95 M-12.1 -186.6 Q-12.75 -191.85 -7.55 -193.65 -3.8 -194.8 -0.35 -192.85 5.1 -189.6 7.1 -183.6 L10.75 -171.95 Q11.3 -170.1 11.35 -168.15 11.6 -162.2 9.7 -156.6 6.95 -148.6 6.0 -140.0 5.55 -136.15 1.8 -135.05 -0.7 -139.45 0.8 -144.35 L1.55 -148.5 Q2.05 -156.9 -2.4 -164.05 -6.65 -171.0 -14.65 -172.25 -18.6 -172.75 -21.2 -169.55 -24.15 -165.9 -25.75 -161.55 -28.05 -155.5 -28.45 -149.0 L-31.1 -150.2 Q-34.4 -165.4 -27.1 -178.85 -24.2 -184.15 -18.6 -186.25 L-15.55 -186.75 -12.1 -186.6 -8.25 -183.9 M-87.2 -133.65 Q-88.4 -131.85 -90.55 -132.0 -96.55 -132.25 -97.25 -138.0 -97.75 -141.95 -97.45 -145.9 L-96.5 -153.95 -95.25 -154.85 Q-91.65 -152.2 -91.45 -147.75 -91.4 -146.7 -90.65 -145.8 L-88.4 -143.45 Q-83.55 -139.0 -87.2 -133.65 M-112.4 -117.9 Q-104.85 -114.5 -103.6 -106.2 -106.55 -103.4 -109.9 -105.3 -112.7 -106.85 -113.8 -110.05 -115.05 -113.65 -113.05 -117.0 L-112.4 -117.9" fill="none" stroke="#484848" stroke-linecap="round" stroke-linejoin="round" stroke-width="0.05"/>
    <path d="M-5.4 -239.3 Q-6.05 -238.35 -7.05 -237.8 -9.95 -236.5 -13.4 -236.8 -17.2 -237.15 -20.85 -236.85 -23.45 -236.35 -25.5 -234.55 -34.0 -227.15 -34.0 -215.55 L-34.25 -213.2 Q-36.3 -204.2 -34.95 -195.1 -33.95 -188.2 -31.45 -181.6 L-32.9 -181.0 Q-37.25 -187.8 -38.15 -195.9 -38.3 -197.2 -38.85 -198.4 -41.0 -202.7 -44.85 -205.8 L-48.9 -209.6 Q-50.5 -211.4 -50.7 -213.55 L-50.45 -215.05 Q-49.0 -218.1 -48.8 -221.7 -48.7 -223.05 -49.0 -224.4 L-51.05 -234.3 Q-51.9 -238.6 -50.85 -242.75 -49.45 -248.4 -45.3 -252.7 L-43.05 -254.25 Q-34.55 -258.1 -25.1 -257.65 -21.3 -263.0 -14.75 -262.55 -7.4 -261.7 -1.6 -257.65 -0.2 -256.55 0.8 -254.95 3.3 -251.1 1.2 -247.0 -2.6 -243.6 -5.4 -239.3" fill="none" stroke="#484848" stroke-linecap="round" stroke-linejoin="round" stroke-width="0.05"/>
  </g>
</svg>
