<?xml version="1.0" encoding="UTF-8" standalone="no"?>
<svg xmlns:xlink="http://www.w3.org/1999/xlink" height="174.65px" width="189.3px" xmlns="http://www.w3.org/2000/svg">
  <g transform="matrix(1.0, 0.0, 0.0, 1.0, 56.0, 295.7)">
    <path d="M43.65 -206.2 Q49.35 -207.25 55.25 -207.3 59.4 -207.3 62.95 -205.55 L67.4 -202.95 Q74.65 -198.35 74.7 -190.05 72.8 -191.65 70.5 -192.15 67.6 -192.7 64.8 -194.2 L61.65 -195.95 Q60.45 -196.75 59.1 -196.9 52.85 -198.25 47.1 -195.0 41.0 -191.6 35.2 -195.45 L35.05 -195.8 34.85 -198.35 Q34.85 -201.2 36.65 -203.3 39.4 -206.6 43.65 -206.2 L45.25 -205.55 43.65 -206.2 M131.5 -192.45 Q132.25 -192.45 132.8 -191.45 133.3 -190.45 133.3 -189.0 133.3 -187.55 132.8 -186.55 132.25 -185.55 131.5 -185.55 130.75 -185.55 130.25 -186.55 129.7 -187.55 129.7 -189.0 129.7 -190.45 130.25 -191.45 130.75 -192.45 131.5 -192.45 M49.9 -282.75 Q41.8 -282.6 33.7 -284.3 28.45 -285.45 28.25 -290.7 28.9 -292.9 30.7 -294.05 31.4 -294.55 32.25 -294.5 45.15 -296.45 57.25 -291.3 65.2 -287.95 71.5 -281.75 73.45 -279.85 74.85 -277.55 L80.9 -266.7 82.95 -262.65 Q89.65 -249.3 87.15 -234.25 85.0 -236.1 83.7 -238.5 81.9 -241.75 82.0 -245.5 82.2 -250.85 78.6 -254.65 L74.85 -257.85 Q69.45 -261.5 68.55 -268.4 68.15 -271.35 65.9 -273.3 59.8 -278.6 52.6 -282.15 L49.9 -282.75 M36.3 -147.25 Q34.05 -141.35 34.3 -135.1 34.65 -127.45 30.5 -121.05 28.1 -124.85 28.4 -129.3 L28.35 -132.35 Q27.75 -139.5 22.15 -144.2 19.65 -146.25 17.75 -149.15 15.45 -152.75 16.35 -156.9 L18.25 -166.1 19.55 -171.8 Q20.1 -173.7 21.8 -174.85 26.4 -177.95 31.4 -175.55 34.2 -174.15 36.45 -171.95 40.45 -168.1 41.35 -162.85 39.2 -154.95 36.3 -147.25 M-48.3 -281.5 Q-39.85 -288.6 -29.45 -292.2 -19.1 -295.75 -8.25 -295.7 L-4.45 -294.0 -7.9 -283.75 Q-13.05 -281.85 -18.35 -281.95 L-21.3 -281.55 Q-26.25 -279.75 -31.55 -279.3 L-35.05 -278.3 -37.9 -276.55 Q-44.85 -270.3 -46.95 -261.1 -47.25 -259.75 -48.15 -258.7 -49.15 -257.6 -50.45 -258.3 L-51.05 -262.8 Q-53.15 -262.85 -54.8 -264.2 -56.15 -265.3 -55.95 -267.2 -54.95 -275.8 -48.3 -281.5 M-23.75 -214.1 Q-17.3 -213.65 -11.3 -211.3 -1.35 -207.45 6.15 -200.05 8.65 -195.9 8.2 -191.05 7.9 -188.25 5.7 -186.95 L5.6 -190.05 Q5.4 -192.25 4.0 -194.05 0.15 -198.9 -5.7 -200.5 -11.25 -202.05 -16.9 -202.2 -18.5 -201.85 -19.9 -201.0 -23.0 -199.3 -26.6 -198.75 -28.7 -198.85 -30.3 -200.15 -31.1 -200.8 -31.15 -201.75 -31.2 -203.5 -30.75 -205.35 -29.25 -211.55 -23.75 -214.1 M7.35 -234.85 Q4.8 -237.5 1.95 -239.9 0.0 -241.65 -0.7 -244.15 -2.2 -249.65 2.7 -253.15 7.75 -256.75 12.7 -253.65 16.85 -243.55 13.65 -233.35 12.95 -231.05 10.55 -230.5 9.2 -232.85 7.35 -234.85" fill="#666666" fill-rule="evenodd" stroke="none"/>
    <path d="M49.9 -282.75 L52.6 -282.15 Q59.8 -278.6 65.9 -273.3 68.15 -271.35 68.55 -268.4 69.45 -261.5 74.85 -257.85 L78.6 -254.65 Q82.2 -250.85 82.0 -245.5 81.9 -241.75 83.7 -238.5 85.0 -236.1 87.15 -234.25 89.65 -249.3 82.95 -262.65 L80.9 -266.7 74.85 -277.55 Q73.45 -279.85 71.5 -281.75 65.2 -287.95 57.25 -291.3 45.15 -296.45 32.25 -294.5 31.4 -294.55 30.7 -294.05 28.9 -292.9 28.25 -290.7 28.45 -285.45 33.7 -284.3 41.8 -282.6 49.9 -282.75 M131.5 -192.45 Q130.75 -192.45 130.25 -191.45 129.7 -190.45 129.7 -189.0 129.7 -187.55 130.25 -186.55 130.75 -185.55 131.5 -185.55 132.25 -185.55 132.8 -186.55 133.3 -187.55 133.3 -189.0 133.3 -190.45 132.8 -191.45 132.25 -192.45 131.5 -192.45 M43.65 -206.2 Q39.4 -206.6 36.65 -203.3 34.85 -201.2 34.85 -198.35 L35.05 -195.8 35.2 -195.45 Q41.0 -191.6 47.1 -195.0 52.85 -198.25 59.1 -196.9 60.45 -196.75 61.65 -195.95 L64.8 -194.2 Q67.6 -192.7 70.5 -192.15 72.8 -191.65 74.7 -190.05 74.65 -198.35 67.4 -202.95 L62.95 -205.55 Q59.4 -207.3 55.25 -207.3 49.35 -207.25 43.65 -206.2 L45.25 -205.55 M36.3 -147.25 Q39.2 -154.95 41.35 -162.85 40.45 -168.1 36.45 -171.95 34.2 -174.15 31.4 -175.55 26.4 -177.95 21.8 -174.85 20.1 -173.7 19.55 -171.8 L18.25 -166.1 16.35 -156.9 Q15.45 -152.75 17.75 -149.15 19.65 -146.25 22.15 -144.2 27.75 -139.5 28.35 -132.35 L28.4 -129.3 Q28.1 -124.85 30.5 -121.05 34.65 -127.45 34.3 -135.1 34.05 -141.35 36.3 -147.25 M7.35 -234.85 Q9.2 -232.85 10.55 -230.5 12.95 -231.05 13.65 -233.35 16.85 -243.55 12.7 -253.65 7.75 -256.75 2.7 -253.15 -2.2 -249.65 -0.7 -244.15 0.0 -241.65 1.95 -239.9 4.8 -237.5 7.35 -234.85 M-23.75 -214.1 Q-29.25 -211.55 -30.75 -205.35 -31.2 -203.5 -31.15 -201.75 -31.1 -200.8 -30.3 -200.15 -28.7 -198.85 -26.6 -198.75 -23.0 -199.3 -19.9 -201.0 -18.5 -201.85 -16.9 -202.2 -11.25 -202.05 -5.7 -200.5 0.15 -198.9 4.0 -194.05 5.4 -192.25 5.6 -190.05 L5.7 -186.95 Q7.9 -188.25 8.2 -191.05 8.65 -195.9 6.15 -200.05 -1.35 -207.45 -11.3 -211.3 -17.3 -213.65 -23.75 -214.1" fill="none" stroke="#484848" stroke-linecap="round" stroke-linejoin="round" stroke-width="0.05"/>
    <path d="M-48.3 -281.5 Q-54.95 -275.8 -55.95 -267.2 -56.15 -265.3 -54.8 -264.2 -53.15 -262.85 -51.05 -262.8 L-50.45 -258.3 Q-49.15 -257.6 -48.15 -258.7 -47.25 -259.75 -46.95 -261.1 -44.85 -270.3 -37.9 -276.55 L-35.05 -278.3 -31.55 -279.3 Q-26.25 -279.75 -21.3 -281.55 L-18.35 -281.95 Q-13.05 -281.85 -7.9 -283.75 L-4.45 -294.0 -8.25 -295.7 Q-19.1 -295.75 -29.45 -292.2 -39.85 -288.6 -48.3 -281.5" fill="none" stroke="#484848" stroke-linecap="round" stroke-linejoin="round" stroke-width="0.05"/>
  </g>
</svg>
