<?xml version="1.0" encoding="UTF-8" standalone="no"?>
<svg xmlns:xlink="http://www.w3.org/1999/xlink" height="142.95px" width="123.45px" xmlns="http://www.w3.org/2000/svg">
  <g transform="matrix(1.0, 0.0, 0.0, 1.0, 42.1, 315.7)">
    <path d="M-21.35 -225.7 L-19.25 -225.8 Q-13.85 -224.15 -8.05 -224.15 -6.55 -224.15 -5.15 -224.65 3.1 -227.65 11.8 -227.4 L13.7 -226.8 Q20.55 -223.6 24.2 -216.5 26.4 -213.7 27.3 -210.3 27.8 -208.35 27.1 -206.5 26.1 -203.75 25.9 -200.85 25.05 -189.5 25.15 -178.45 25.15 -177.45 24.8 -176.55 23.0 -171.85 18.0 -173.0 17.45 -175.1 17.2 -177.2 L15.5 -192.85 Q14.9 -198.4 11.5 -202.8 10.2 -204.5 8.2 -204.9 L3.6 -205.3 Q1.65 -205.25 -0.15 -205.9 -4.2 -207.6 -7.65 -210.3 L-13.4 -213.9 Q-16.35 -215.35 -19.4 -216.6 -21.9 -217.55 -24.15 -218.85 -25.3 -219.55 -25.3 -221.1 -25.25 -225.0 -21.35 -225.7 M-26.1 -310.05 Q-20.0 -310.1 -14.25 -307.9 -10.2 -306.25 -7.85 -302.1 -7.15 -300.8 -6.75 -299.35 -5.5 -295.1 -2.2 -292.25 0.9 -289.55 3.0 -286.05 7.45 -278.75 4.55 -270.85 3.15 -269.5 1.2 -269.9 L-3.05 -270.55 Q-1.8 -273.2 -2.15 -276.05 -2.3 -277.35 -2.85 -278.5 -5.15 -283.0 -8.2 -286.85 -10.5 -289.9 -12.3 -293.1 -14.25 -296.65 -18.1 -297.25 L-21.2 -296.65 Q-27.55 -294.55 -29.5 -287.85 -30.1 -285.8 -32.3 -285.4 -34.05 -285.15 -35.05 -286.35 -37.1 -288.85 -39.95 -289.4 -42.85 -291.65 -41.8 -295.15 -41.25 -296.95 -39.75 -298.05 L-34.2 -301.45 Q-32.55 -302.4 -31.55 -304.05 -29.4 -307.8 -26.1 -310.05 M54.5 -236.2 Q56.6 -243.1 63.85 -242.3 L70.1 -240.35 Q70.6 -236.4 68.05 -233.25 L67.25 -231.65 65.55 -226.05 Q64.85 -223.55 62.5 -222.75 59.7 -222.0 57.55 -223.95 52.25 -228.85 54.5 -236.2 M59.55 -306.55 Q55.95 -310.6 56.1 -315.7 L57.5 -315.15 Q60.4 -313.65 62.2 -311.0 66.2 -304.4 73.25 -301.25 77.25 -299.45 77.15 -294.9 79.95 -293.55 80.6 -290.45 81.55 -285.9 81.3 -281.5 L79.4 -280.8 78.4 -282.8 Q77.5 -284.95 77.2 -287.2 76.65 -291.95 73.35 -295.6 69.1 -300.3 63.25 -302.1 61.9 -302.45 61.3 -303.8 60.6 -305.35 59.55 -306.55" fill="#666666" fill-rule="evenodd" stroke="none"/>
    <path d="M59.55 -306.55 Q60.6 -305.35 61.3 -303.8 61.9 -302.45 63.25 -302.1 69.1 -300.3 73.35 -295.6 76.65 -291.95 77.2 -287.2 77.5 -284.95 78.4 -282.8 L79.4 -280.8 81.3 -281.5 Q81.55 -285.9 80.6 -290.45 79.95 -293.55 77.15 -294.9 77.25 -299.45 73.25 -301.25 66.2 -304.4 62.2 -311.0 60.4 -313.65 57.5 -315.15 L56.1 -315.7 Q55.95 -310.6 59.55 -306.55 M54.5 -236.2 Q52.25 -228.85 57.55 -223.95 59.7 -222.0 62.5 -222.75 64.85 -223.55 65.55 -226.05 L67.25 -231.65 68.05 -233.25 Q70.6 -236.4 70.1 -240.35 L63.85 -242.3 Q56.6 -243.1 54.5 -236.2 M-26.1 -310.05 Q-29.4 -307.8 -31.55 -304.05 -32.55 -302.4 -34.2 -301.45 L-39.75 -298.05 Q-41.25 -296.95 -41.8 -295.15 -42.85 -291.65 -39.95 -289.4 -37.1 -288.85 -35.05 -286.35 -34.05 -285.15 -32.3 -285.4 -30.1 -285.8 -29.5 -287.85 -27.55 -294.55 -21.2 -296.65 L-18.1 -297.25 Q-14.25 -296.65 -12.3 -293.1 -10.5 -289.9 -8.2 -286.85 -5.15 -283.0 -2.85 -278.5 -2.3 -277.35 -2.15 -276.05 -1.8 -273.2 -3.05 -270.55 L1.2 -269.9 Q3.15 -269.5 4.55 -270.85 7.45 -278.75 3.0 -286.05 0.9 -289.55 -2.2 -292.25 -5.5 -295.1 -6.75 -299.35 -7.15 -300.8 -7.85 -302.1 -10.2 -306.25 -14.25 -307.9 -20.0 -310.1 -26.1 -310.05 M-21.35 -225.7 Q-25.25 -225.0 -25.3 -221.1 -25.3 -219.55 -24.15 -218.85 -21.9 -217.55 -19.4 -216.6 -16.35 -215.35 -13.4 -213.9 L-7.65 -210.3 Q-4.2 -207.6 -0.15 -205.9 1.65 -205.25 3.6 -205.3 L8.2 -204.9 Q10.2 -204.5 11.5 -202.8 14.9 -198.4 15.5 -192.85 L17.2 -177.2 Q17.45 -175.1 18.0 -173.0 23.0 -171.85 24.8 -176.55 25.15 -177.45 25.15 -178.45 25.05 -189.5 25.9 -200.85 26.1 -203.75 27.1 -206.5 27.8 -208.35 27.3 -210.3 26.4 -213.7 24.2 -216.5 20.55 -223.6 13.7 -226.8 L11.8 -227.4 Q3.1 -227.65 -5.15 -224.65 -6.55 -224.15 -8.05 -224.15 -13.85 -224.15 -19.25 -225.8 L-21.35 -225.7" fill="none" stroke="#484848" stroke-linecap="round" stroke-linejoin="round" stroke-width="0.05"/>
  </g>
</svg>
