<?xml version="1.0" encoding="UTF-8" standalone="no"?>
<svg xmlns:xlink="http://www.w3.org/1999/xlink" height="124.95px" width="122.15px" xmlns="http://www.w3.org/2000/svg">
  <g transform="matrix(1.0, 0.0, 0.0, 1.0, 42.0, 346.25)">
    <path d="M76.4 -312.6 L77.75 -315.95 79.9 -316.55 Q80.5 -314.0 79.65 -311.6 79.2 -310.25 77.9 -310.6 L76.3 -311.05 76.4 -312.6 M61.55 -273.05 Q64.7 -270.7 64.75 -267.0 64.75 -266.15 64.1 -265.55 61.5 -264.6 60.35 -267.35 59.2 -270.05 60.25 -272.65 L61.55 -273.05 M-32.95 -344.85 L-27.2 -346.05 Q-21.55 -347.15 -17.6 -342.85 -15.5 -340.65 -13.7 -338.15 -10.2 -333.25 -9.75 -327.4 -9.4 -323.0 -11.8 -319.35 L-13.8 -316.5 -14.2 -316.0 Q-17.4 -315.65 -20.15 -317.2 -21.0 -319.45 -20.9 -321.6 -20.8 -325.1 -21.25 -328.6 -21.65 -332.0 -23.85 -334.45 -24.75 -335.5 -26.1 -335.6 L-33.1 -337.45 Q-36.1 -334.6 -37.15 -330.4 -38.2 -326.05 -39.9 -322.05 -40.2 -321.3 -40.15 -320.45 -40.0 -318.4 -39.25 -316.7 L-38.5 -314.15 Q-42.9 -316.95 -41.8 -322.3 -41.1 -325.7 -40.7 -329.0 -40.6 -329.9 -41.0 -330.7 L-41.55 -332.1 Q-41.9 -333.55 -41.85 -335.1 -41.55 -341.15 -36.45 -343.8 -34.85 -344.6 -32.95 -344.85 M13.45 -238.45 Q12.75 -230.85 7.9 -225.2 6.15 -223.2 3.85 -221.85 0.95 -220.3 -1.15 -223.1 1.35 -225.1 2.8 -228.1 4.25 -231.2 2.85 -234.05 0.65 -238.65 -4.65 -237.55 -5.95 -237.3 -7.05 -236.6 -9.4 -235.3 -10.85 -233.2 -13.6 -229.25 -18.45 -230.9 -20.6 -231.6 -21.4 -233.65 L-22.3 -236.75 Q-23.85 -243.75 -21.35 -250.55 -20.2 -253.65 -17.1 -254.35 -13.6 -255.2 -9.8 -254.35 -1.9 -255.6 5.6 -252.55 10.15 -250.65 12.2 -246.0 13.8 -242.4 13.45 -238.45" fill="#666666" fill-rule="evenodd" stroke="none"/>
    <path d="M76.4 -312.6 L77.75 -315.95 79.9 -316.55 Q80.5 -314.0 79.65 -311.6 79.2 -310.25 77.9 -310.6 L76.3 -311.05 76.4 -312.6 M61.55 -273.05 Q64.7 -270.7 64.75 -267.0 64.75 -266.15 64.1 -265.55 61.5 -264.6 60.35 -267.35 59.2 -270.05 60.25 -272.65 L61.55 -273.05 M-32.95 -344.85 L-27.2 -346.05 Q-21.55 -347.15 -17.6 -342.85 -15.5 -340.65 -13.7 -338.15 -10.2 -333.25 -9.75 -327.4 -9.4 -323.0 -11.8 -319.35 L-13.8 -316.5 -14.2 -316.0 Q-17.4 -315.65 -20.15 -317.2 -21.0 -319.45 -20.9 -321.6 -20.8 -325.1 -21.25 -328.6 -21.65 -332.0 -23.85 -334.45 -24.75 -335.5 -26.1 -335.6 L-33.1 -337.45 Q-36.1 -334.6 -37.15 -330.4 -38.2 -326.05 -39.9 -322.05 -40.2 -321.3 -40.15 -320.45 -40.0 -318.4 -39.25 -316.7 L-38.5 -314.15 Q-42.9 -316.95 -41.8 -322.3 -41.1 -325.7 -40.7 -329.0 -40.6 -329.9 -41.0 -330.7 L-41.55 -332.1 Q-41.9 -333.55 -41.85 -335.1 -41.55 -341.15 -36.45 -343.8 -34.85 -344.6 -32.95 -344.85" fill="none" stroke="#484848" stroke-linecap="round" stroke-linejoin="round" stroke-width="0.05"/>
    <path d="M13.45 -238.45 Q12.75 -230.85 7.9 -225.2 6.15 -223.2 3.85 -221.85 0.95 -220.3 -1.15 -223.1 1.35 -225.1 2.8 -228.1 4.25 -231.2 2.85 -234.05 0.65 -238.65 -4.65 -237.55 -5.95 -237.3 -7.05 -236.6 -9.4 -235.3 -10.85 -233.2 -13.6 -229.25 -18.45 -230.9 -20.6 -231.6 -21.4 -233.65 L-22.3 -236.75 Q-23.85 -243.75 -21.35 -250.55 -20.2 -253.65 -17.1 -254.35 -13.6 -255.2 -9.8 -254.35 -1.9 -255.6 5.6 -252.55 10.15 -250.65 12.2 -246.0 13.8 -242.4 13.45 -238.45" fill="none" stroke="#484848" stroke-linecap="round" stroke-linejoin="round" stroke-width="0.05"/>
  </g>
</svg>
