<?xml version="1.0" encoding="UTF-8" standalone="no"?>
<svg xmlns:xlink="http://www.w3.org/1999/xlink" height="110.9px" width="33.4px" xmlns="http://www.w3.org/2000/svg">
  <g transform="matrix(1.0, 0.0, 0.0, 1.0, 37.4, 362.05)">
    <path d="M-27.7 -349.25 Q-31.7 -346.2 -35.35 -349.95 -39.1 -353.9 -36.05 -358.45 -33.0 -363.05 -27.45 -361.8 -19.9 -355.25 -27.7 -349.25 M-6.25 -253.85 Q-8.85 -249.5 -13.25 -252.2 -18.0 -255.1 -17.6 -261.15 -17.2 -266.55 -13.5 -270.1 L-10.6 -269.5 Q-0.2 -264.2 -6.25 -253.85" fill="#666666" fill-rule="evenodd" stroke="none"/>
    <path d="M-27.7 -349.25 Q-31.7 -346.2 -35.35 -349.95 -39.1 -353.9 -36.05 -358.45 -33.0 -363.05 -27.45 -361.8 -19.9 -355.25 -27.7 -349.25" fill="none" stroke="#000000" stroke-linecap="round" stroke-linejoin="round" stroke-width="0.05"/>
    <path d="M-6.25 -253.85 Q-8.85 -249.5 -13.25 -252.2 -18.0 -255.1 -17.6 -261.15 -17.2 -266.55 -13.5 -270.1 L-10.6 -269.5 Q-0.2 -264.2 -6.25 -253.85" fill="none" stroke="#000000" stroke-linecap="round" stroke-linejoin="round" stroke-width="0.05"/>
  </g>
</svg>
