<?xml version="1.0" encoding="UTF-8" standalone="no"?>
<svg xmlns:xlink="http://www.w3.org/1999/xlink" height="85.25px" width="65.7px" xmlns="http://www.w3.org/2000/svg">
  <g transform="matrix(1.0, 0.0, 0.0, 1.0, 32.85, 42.6)">
    <path d="M27.3 27.95 Q32.8 30.2 32.85 33.15 L32.85 -35.85 Q32.75 -32.0 23.2 -29.25 L18.55 -28.1 18.55 41.0 23.2 39.85 Q32.85 37.1 32.85 33.2 L32.85 33.15 M18.55 -28.1 Q10.45 -26.45 0.0 -26.45 L-1.1 -26.45 -1.1 42.65 0.0 42.65 Q10.45 42.65 18.55 41.0 M23.2 -42.6 Q32.55 -39.9 32.85 -36.15 L32.85 -35.9 32.85 -35.85 M-1.1 42.65 Q-11.65 42.55 -19.75 40.75 L-23.25 39.85 Q-32.85 37.1 -32.85 33.2 L-32.75 32.4 -32.75 -35.1 -32.85 -35.9 Q-32.85 -38.85 -27.3 -41.2 L-23.25 -42.6 M-19.75 40.75 L-19.75 -28.35 -23.25 -29.25 Q-31.85 -31.7 -32.75 -35.1 M-28.6 28.5 Q-32.2 30.3 -32.75 32.4 M-1.1 -26.45 Q-11.65 -26.55 -19.75 -28.35" fill="none" stroke="#666666" stroke-linecap="round" stroke-linejoin="round" stroke-width="0.05"/>
  </g>
</svg>
