<?xml version="1.0" encoding="UTF-8" standalone="no"?>
<svg xmlns:xlink="http://www.w3.org/1999/xlink" height="6.5px" width="13.0px" xmlns="http://www.w3.org/2000/svg">
  <g transform="matrix(1.0, 0.0, 0.0, 1.0, 2.8, 2.9)">
    <path d="M7.45 -1.95 Q8.0 -1.05 7.45 0.05 7.35 -1.35 6.15 -2.2 L7.45 -1.95" fill="#4b5232" fill-rule="evenodd" stroke="none"/>
    <path d="M7.45 -1.95 L10.1 -1.45 Q10.7 1.1 8.4 3.6 L6.5 3.25 4.6 3.05 2.25 3.2 -2.8 -0.65 Q-0.6 -2.8 2.15 -2.9 4.0 -3.05 6.15 -2.2 7.35 -1.35 7.45 0.05 8.0 -1.05 7.45 -1.95" fill="#738f56" fill-rule="evenodd" stroke="none"/>
    <path d="M2.25 3.2 L4.6 3.05 6.5 3.25 8.4 3.6 Q10.7 1.1 10.1 -1.45 L7.45 -1.95 6.15 -2.2 Q4.0 -3.05 2.15 -2.9 -0.6 -2.8 -2.8 -0.65 M7.45 0.05 Q7.35 -1.35 6.15 -2.2" fill="none" stroke="#5a5430" stroke-linecap="round" stroke-linejoin="round" stroke-width="0.05"/>
  </g>
</svg>
