<?xml version="1.0" encoding="UTF-8" standalone="no"?>
<svg xmlns:xlink="http://www.w3.org/1999/xlink" height="14.1px" width="13.85px" xmlns="http://www.w3.org/2000/svg">
  <g transform="matrix(1.0, 0.0, 0.0, 1.0, 6.65, 5.55)">
    <path d="M7.2 -3.55 Q0.1 -6.4 -0.3 -1.15 L-0.2 -0.3 Q-0.6 4.35 -4.55 5.85 L-4.95 5.5 Q-6.2 4.3 -6.55 2.75 -6.95 -0.35 -5.3 -2.1 0.35 -8.2 7.2 -3.55" fill="#4581a6" fill-rule="evenodd" stroke="none"/>
    <path d="M7.2 -3.55 Q7.25 -3.05 6.25 -2.45 3.35 -3.6 2.05 -1.85 0.75 0.85 4.95 3.15 5.35 4.15 4.7 4.9 2.1 3.7 0.95 2.25 2.1 3.7 4.7 4.9 2.75 9.2 -0.7 8.4 L-4.1 6.2 Q-0.45 6.35 0.95 2.25 L0.35 1.35 Q-0.05 0.6 -0.2 -0.3 L-0.3 -1.15 Q0.1 -6.4 7.2 -3.55" fill="#00002a" fill-rule="evenodd" stroke="none"/>
    <path d="M-0.2 -0.3 Q-0.05 0.6 0.35 1.35 L0.95 2.25 Q-0.45 6.35 -4.1 6.2 L-4.55 5.85 Q-0.6 4.35 -0.2 -0.3" fill="#8ccef0" fill-rule="evenodd" stroke="none"/>
    <path d="M4.7 4.9 Q5.35 4.15 4.95 3.15 0.75 0.85 2.05 -1.85 3.35 -3.6 6.25 -2.45 7.25 -3.05 7.2 -3.55 0.1 -6.4 -0.3 -1.15 L-0.2 -0.3 Q-0.05 0.6 0.35 1.35 L0.95 2.25 Q2.1 3.7 4.7 4.9 2.75 9.2 -0.7 8.4 L-4.1 6.2 -4.55 5.85 -4.95 5.5 Q-6.2 4.3 -6.55 2.75 -6.95 -0.35 -5.3 -2.1 0.35 -8.2 7.2 -3.55" fill="none" stroke="#1d3643" stroke-linecap="round" stroke-linejoin="round" stroke-width="0.05"/>
    <path d="M1.35 5.3 Q1.7 5.5 1.75 5.85 L1.6 6.5 1.05 6.95 0.35 6.85 -0.15 6.25 -0.05 5.55 0.6 5.15 1.35 5.3 M1.0 6.1 L0.85 5.85 0.55 5.85 0.3 6.0 0.3 6.25 0.45 6.45 0.75 6.5 0.95 6.35 1.0 6.1" fill="#e2bc4f" fill-rule="evenodd" stroke="none"/>
    <path d="M1.0 6.1 L0.95 6.35 0.75 6.5 0.45 6.45 0.3 6.25 0.3 6.0 0.55 5.85 0.85 5.85 1.0 6.1" fill="#e3eb67" fill-rule="evenodd" stroke="none"/>
    <path d="M1.0 6.1 L0.95 6.35 0.75 6.5 0.45 6.45 0.3 6.25 0.3 6.0 0.55 5.85 0.85 5.85 1.0 6.1 Z" fill="none" stroke="#00ff33" stroke-linecap="round" stroke-linejoin="round" stroke-width="0.05"/>
  </g>
</svg>
