<?xml version="1.0" encoding="UTF-8" standalone="no"?>
<svg xmlns:xlink="http://www.w3.org/1999/xlink" height="31.45px" width="19.15px" xmlns="http://www.w3.org/2000/svg">
  <g transform="matrix(1.0, 0.0, 0.0, 1.0, 9.45, 13.15)">
    <path d="M-5.25 -8.75 L-5.25 -8.65 -6.25 -8.0 -6.3 -8.65 -5.25 -8.75" fill="#ffd0ae" fill-rule="evenodd" stroke="none"/>
    <path d="M2.35 -8.25 L2.5 -7.65 2.95 -7.5 3.0 -7.45 0.45 -7.3 Q1.7 -8.15 2.35 -8.25 M-5.25 -8.65 L-5.35 -7.9 -5.35 -7.85 -5.35 -7.8 -5.25 -7.65 -4.85 -6.95 -6.2 -6.85 -6.25 -8.0 -5.25 -8.65" fill="#ffdfc8" fill-rule="evenodd" stroke="none"/>
    <path d="M-5.2 -8.75 L-5.25 -8.65 -5.25 -8.75 -5.2 -8.75" fill="#eebf5a" fill-rule="evenodd" stroke="none"/>
    <path d="M2.35 -8.25 Q1.7 -8.15 0.45 -7.3 L-4.85 -6.95 -5.25 -7.65 -5.35 -7.8 -5.35 -7.85 -5.35 -7.9 -5.25 -8.65 -5.2 -8.75 Q-4.85 -11.05 -5.3 -12.75 -0.7 -13.6 2.4 -12.7 L2.2 -11.3 2.2 -11.05 Q2.1 -9.6 2.35 -8.25" fill="#fbc8c6" fill-rule="evenodd" stroke="none"/>
    <path d="M2.95 -7.5 L2.5 -7.65 2.35 -8.25 M-5.2 -8.75 L-5.25 -8.65 -5.35 -7.9 -5.35 -7.85 -5.35 -7.8 M-5.2 -8.75 L-5.25 -8.75 -6.3 -8.65" fill="none" stroke="#d7995e" stroke-linecap="round" stroke-linejoin="round" stroke-width="0.05"/>
    <path d="M2.35 -8.25 Q2.1 -9.6 2.2 -11.05 L2.2 -11.3 2.4 -12.7 Q-0.7 -13.6 -5.3 -12.75 -4.85 -11.05 -5.2 -8.75" fill="none" stroke="#ed8e78" stroke-linecap="round" stroke-linejoin="round" stroke-width="0.05"/>
    <path d="M-8.15 5.2 L-8.1 5.25 -8.15 5.2" fill="#ffffff" fill-rule="evenodd" stroke="none"/>
    <path d="M4.3 -10.7 Q4.35 -10.2 2.65 -9.75 L2.05 -9.6 2.15 -11.5 2.55 -11.45 Q4.3 -11.2 4.3 -10.7 M-7.45 -9.95 Q-7.45 -10.45 -5.75 -10.9 L-5.05 -11.05 -5.15 -9.15 -5.3 -9.15 -5.65 -9.2 Q-7.4 -9.45 -7.45 -9.95" fill="#385858" fill-rule="evenodd" stroke="none"/>
    <path d="M-7.75 -6.05 L-7.8 -6.15 -7.75 -6.15 -7.75 -6.05 M1.1 2.55 L1.1 2.85 Q1.0 9.0 1.35 15.05 L-1.1 15.1 -1.35 15.1 -3.75 14.95 -4.1 14.85 -4.3 14.8 Q-6.0 14.3 -6.95 13.65 L-7.35 8.8 -7.7 2.6 Q-3.5 3.45 1.0 2.55 L1.1 2.55" fill="#eef2f3" fill-rule="evenodd" stroke="none"/>
    <path d="M7.55 0.45 L7.7 0.35 7.7 0.45 7.55 0.45 M1.25 -2.35 L1.25 -2.3 1.25 -2.35" fill="#b1dcc9" fill-rule="evenodd" stroke="none"/>
    <path d="M4.95 -6.55 L5.0 -6.55 6.65 -6.9 5.0 -6.55 4.95 -6.55" fill="#79c19d" fill-rule="evenodd" stroke="none"/>
    <path d="M-3.45 -9.05 Q-2.9 -6.25 -4.4 -3.55 -5.8 -3.55 -6.75 -4.25 -7.75 -5.0 -7.75 -6.05 L-7.75 -6.15 -7.8 -6.2 -7.45 -9.95 Q-7.4 -9.45 -5.65 -9.2 L-5.3 -9.15 -5.15 -9.15 -4.6 -9.1 -3.45 -9.05" fill="#4581a6" fill-rule="evenodd" stroke="none"/>
    <path d="M2.05 -9.6 L2.65 -9.75 Q4.35 -10.2 4.3 -10.7 L4.85 -7.85 4.9 -6.6 4.4 -6.25 Q2.95 -5.3 1.45 -4.7 -1.05 -3.7 -4.4 -3.55 -2.9 -6.25 -3.45 -9.05 L-1.45 -9.15 2.05 -9.6" fill="#00002a" fill-rule="evenodd" stroke="none"/>
    <path d="M-4.4 -3.55 Q-1.05 -3.7 1.45 -4.7 L1.25 -2.35 1.25 -2.3 1.25 -2.2 1.25 -2.15 1.1 2.55 1.0 2.55 Q-3.5 3.45 -7.7 2.6 L-7.7 2.25 -7.7 1.7 -7.7 1.6 -7.7 1.55 -7.75 -0.6 -7.75 -6.05 Q-7.75 -5.0 -6.75 -4.25 -5.8 -3.55 -4.4 -3.55" fill="#dbe4e6" fill-rule="evenodd" stroke="none"/>
    <path d="M6.25 13.8 Q7.25 14.8 6.8 16.2 3.85 17.95 -1.05 17.95 L-2.25 17.9 -4.2 17.55 Q-4.95 15.8 -4.3 14.8 L-4.1 14.85 -3.75 14.95 -1.35 15.1 -1.1 15.1 1.35 15.05 3.8 14.8 3.9 14.75 4.2 14.7 Q5.55 14.35 6.25 13.8" fill="#422d2b" fill-rule="evenodd" stroke="none"/>
    <path d="M-4.2 17.55 Q-6.15 17.1 -7.35 16.35 L-8.45 15.4 Q-8.9 13.75 -8.3 12.65 L-8.25 12.5 -8.1 12.3 -8.0 12.5 -7.95 12.65 -7.5 13.2 -7.3 13.4 -6.95 13.65 Q-6.0 14.3 -4.3 14.8 -4.95 15.8 -4.2 17.55" fill="#724e49" fill-rule="evenodd" stroke="none"/>
    <path d="M-8.1 12.3 Q-9.0 11.15 -8.6 9.5 L-8.1 7.3 Q-8.5 5.7 -8.3 3.5 L-9.45 2.0 -7.7 1.7 -7.7 2.25 -7.7 2.6 -7.35 8.8 -6.95 13.65 -7.3 13.4 -7.5 13.2 -7.95 12.65 -8.0 12.5 -8.1 12.3 M1.1 2.55 Q4.25 1.9 7.55 0.45 L7.7 0.45 7.65 0.9 7.65 1.15 7.35 3.2 Q6.65 6.95 4.65 10.0 L5.25 13.1 Q4.85 14.2 4.2 14.7 L3.9 14.75 3.8 14.8 1.35 15.05 Q1.0 9.0 1.1 2.85 L1.1 2.55 M-8.15 5.2 L-8.1 5.25 -8.15 5.2" fill="#becbc4" fill-rule="evenodd" stroke="none"/>
    <path d="M1.45 -4.7 Q2.95 -5.3 4.4 -6.25 L4.9 -6.6 4.95 -6.55 5.0 -6.55 Q7.65 -5.55 9.7 -3.7 L9.7 -0.65 9.65 0.3 Q9.15 5.65 6.7 9.15 L7.3 12.25 6.25 13.8 Q5.55 14.35 4.2 14.7 4.85 14.2 5.25 13.1 L4.65 10.0 Q6.65 6.95 7.35 3.2 L7.65 1.15 7.65 0.9 7.7 0.45 7.7 0.35 7.55 0.45 Q4.25 1.9 1.1 2.55 L1.25 -2.15 1.25 -2.2 1.25 -2.3 1.25 -2.35 1.45 -4.7" fill="#8ba395" fill-rule="evenodd" stroke="none"/>
    <path d="M4.3 -10.7 Q4.35 -10.2 2.65 -9.75 L2.05 -9.6 -1.45 -9.15 -3.45 -9.05 Q-2.9 -6.25 -4.4 -3.55 -1.05 -3.7 1.45 -4.7 2.95 -5.3 4.4 -6.25 L4.9 -6.6 4.85 -7.85 4.3 -10.7 Q4.3 -11.2 2.55 -11.45 L2.15 -11.5 M4.95 -6.55 L5.0 -6.55 Q7.65 -5.55 9.7 -3.7 L9.7 -0.65 9.65 0.3 Q9.15 5.65 6.7 9.15 L7.3 12.25 6.25 13.8 Q7.25 14.8 6.8 16.2 3.85 17.95 -1.05 17.95 L-2.25 17.9 -4.2 17.55 Q-6.15 17.1 -7.35 16.35 L-8.45 15.4 Q-8.9 13.75 -8.3 12.65 L-8.25 12.5 -8.1 12.3 Q-9.0 11.15 -8.6 9.5 L-8.1 7.3 Q-8.5 5.7 -8.3 3.5 L-9.45 2.0 -7.7 1.7 -7.7 1.55 -7.75 -0.6 -7.75 -6.05 -7.75 -6.15 -7.8 -6.2 -7.45 -9.95 Q-7.45 -10.45 -5.75 -10.9 L-5.05 -11.05 M-7.8 -6.15 L-7.75 -6.15 M-5.15 -9.15 L-4.6 -9.1 -3.45 -9.05 M4.9 -6.6 L4.95 -6.55 M1.25 -2.3 L1.25 -2.2 1.25 -2.15 1.1 2.55 1.1 2.85 Q1.0 9.0 1.35 15.05 L3.8 14.8 3.9 14.75 4.2 14.7 Q5.55 14.35 6.25 13.8 M1.25 -2.35 L1.45 -4.7 M-7.7 2.6 L-7.35 8.8 -6.95 13.65 Q-6.0 14.3 -4.3 14.8 L-4.1 14.85 -3.75 14.95 -1.35 15.1 -1.1 15.1 1.35 15.05 M-5.15 -9.15 L-5.3 -9.15 -5.65 -9.2 Q-7.4 -9.45 -7.45 -9.95 M-4.4 -3.55 Q-5.8 -3.55 -6.75 -4.25 -7.75 -5.0 -7.75 -6.05 M-7.7 1.6 L-7.7 1.7 -7.7 2.25 -7.7 2.6 M-6.95 13.65 L-7.3 13.4 -7.5 13.2 -7.95 12.65 -8.0 12.5 -8.1 12.3" fill="none" stroke="#224a35" stroke-linecap="round" stroke-linejoin="round" stroke-width="0.05"/>
    <path d="M-1.2 16.45 L-1.25 15.6 -4.55 15.2 -4.45 17.1 -1.15 17.55 -1.2 16.9 -1.05 16.85 -0.7 16.75 -1.05 16.45 -1.2 16.45 -1.05 16.45 -0.7 16.75 -1.05 16.85 -1.2 16.9 -1.85 16.85 -2.6 16.65 -2.95 16.35 -2.65 16.25 -1.85 16.3 -1.2 16.45 M-0.55 15.0 L-0.4 18.3 -5.2 17.6 -5.3 14.35 -0.55 15.0" fill="#cccccc" fill-rule="evenodd" stroke="none"/>
    <path d="M-1.2 16.9 L-1.15 17.55 -4.45 17.1 -4.55 15.2 -1.25 15.6 -1.2 16.45 -1.05 16.45 -0.7 16.75 -1.05 16.85 -1.2 16.9 -1.85 16.85 -2.6 16.65 -2.95 16.35 -2.65 16.25 -1.85 16.3 -1.2 16.45 M-0.55 15.0 L-0.4 18.3 -5.2 17.6 -5.3 14.35 -0.55 15.0" fill="none" stroke="#224a35" stroke-linecap="round" stroke-linejoin="round" stroke-width="0.05"/>
    <path d="M-0.4 -4.4 L-0.3 -1.0 -0.8 -0.75 Q-3.75 0.35 -5.4 0.25 -7.3 -0.15 -8.25 -1.75 L-8.2 -2.15 Q-7.15 -0.95 -5.55 -0.55 L-4.1 -3.9 -4.0 -3.9 -2.45 -3.95 Q-1.35 -4.0 -0.4 -4.4" fill="#00002a" fill-rule="evenodd" stroke="none"/>
    <path d="M-8.2 -2.15 L-7.3 -5.35 Q-5.95 -3.95 -4.1 -3.9 L-5.55 -0.55 Q-7.15 -0.95 -8.2 -2.15" fill="#4581a6" fill-rule="evenodd" stroke="none"/>
    <path d="M-0.4 -4.4 L-0.3 -1.0 -0.8 -0.75 Q-3.75 0.35 -5.4 0.25 -7.3 -0.15 -8.25 -1.75 L-8.2 -2.15 -7.3 -5.35 Q-5.95 -3.95 -4.1 -3.9 L-4.0 -3.9" fill="none" stroke="#224a35" stroke-linecap="round" stroke-linejoin="round" stroke-width="0.05"/>
    <path d="M-4.0 -3.9 L-2.45 -3.95 Q-1.35 -4.0 -0.4 -4.4 Z" fill="none" stroke="#4581a6" stroke-linecap="round" stroke-linejoin="round" stroke-width="0.05"/>
    <path d="M-7.35 -2.7 L-7.55 -2.6 -7.6 -2.4 -7.45 -2.25 -7.2 -2.15 -7.05 -2.3 -6.95 -2.5 -7.05 -2.65 -7.35 -2.7 M-6.55 -3.1 Q-6.3 -2.95 -6.3 -2.65 -6.25 -2.35 -6.45 -2.15 L-7.0 -1.8 Q-7.35 -1.7 -7.6 -1.95 L-8.0 -2.4 -7.8 -2.95 -7.2 -3.25 -6.55 -3.1" fill="#e2bc4f" fill-rule="evenodd" stroke="none"/>
    <path d="M-7.35 -2.7 L-7.05 -2.65 -6.95 -2.5 -7.05 -2.3 -7.2 -2.15 -7.45 -2.25 -7.6 -2.4 -7.55 -2.6 -7.35 -2.7" fill="#e3eb67" fill-rule="evenodd" stroke="none"/>
    <path d="M-7.35 -2.7 L-7.05 -2.65 -6.95 -2.5 -7.05 -2.3 -7.2 -2.15 -7.45 -2.25 -7.6 -2.4 -7.55 -2.6 -7.35 -2.7 Z" fill="none" stroke="#00ff33" stroke-linecap="round" stroke-linejoin="round" stroke-width="0.05"/>
    <path d="M-2.45 -2.5 L-2.2 -2.05 Q-2.15 -1.75 -2.35 -1.55 L-2.9 -1.2 Q-3.25 -1.1 -3.5 -1.35 L-3.9 -1.8 -3.7 -2.35 -3.1 -2.65 -2.45 -2.5 M-2.95 -2.05 L-3.25 -2.1 -3.45 -2.0 -3.5 -1.8 -3.35 -1.65 -3.1 -1.55 -2.95 -1.7 -2.85 -1.9 -2.95 -2.05" fill="#e2bc4f" fill-rule="evenodd" stroke="none"/>
    <path d="M-2.95 -2.05 L-2.85 -1.9 -2.95 -1.7 -3.1 -1.55 -3.35 -1.65 -3.5 -1.8 -3.45 -2.0 -3.25 -2.1 -2.95 -2.05" fill="#e3eb67" fill-rule="evenodd" stroke="none"/>
    <path d="M-2.95 -2.05 L-2.85 -1.9 -2.95 -1.7 -3.1 -1.55 -3.35 -1.65 -3.5 -1.8 -3.45 -2.0 -3.25 -2.1 -2.95 -2.05 Z" fill="none" stroke="#00ff33" stroke-linecap="round" stroke-linejoin="round" stroke-width="0.05"/>
    <path d="M-7.85 -0.3 Q-4.3 2.75 3.85 -2.2 L3.95 -1.65 4.1 -0.6 Q-3.5 4.1 -7.8 1.25 L-7.85 0.25 -7.85 -0.3 M3.95 -1.65 Q-4.25 3.25 -7.85 0.25 -4.25 3.25 3.95 -1.65" fill="#e2bc4f" fill-rule="evenodd" stroke="none"/>
    <path d="M-7.85 -0.3 Q-4.3 2.75 3.85 -2.2 L3.95 -1.65 4.1 -0.6 Q-3.5 4.1 -7.8 1.25" fill="none" stroke="#4d390d" stroke-linecap="round" stroke-linejoin="round" stroke-width="0.05"/>
    <path d="M-7.85 0.25 Q-4.25 3.25 3.95 -1.65" fill="none" stroke="#e3eb67" stroke-linecap="round" stroke-linejoin="round" stroke-width="0.05"/>
  </g>
</svg>
