<?xml version="1.0" encoding="UTF-8" standalone="no"?>
<svg xmlns:xlink="http://www.w3.org/1999/xlink" height="30.8px" width="25.8px" xmlns="http://www.w3.org/2000/svg">
  <g transform="matrix(1.0, 0.0, 0.0, 1.0, 16.15, 22.1)">
    <path d="M3.7 -18.6 L3.7 -18.55 Q3.4 -16.1 2.3 -14.55 1.45 -13.4 0.15 -12.8 L-1.0 -12.4 Q-2.95 -11.95 -4.55 -13.3 -2.75 -13.35 -1.6 -14.25 0.2 -15.6 0.35 -18.95 L0.35 -21.35 Q1.5 -22.35 3.25 -22.0 3.9 -21.05 3.75 -18.6 L3.7 -18.6" fill="#624911" fill-rule="evenodd" stroke="none"/>
    <path d="M3.7 -18.6 L3.75 -18.55 3.7 -18.55 3.7 -18.6" fill="#9f8577" fill-rule="evenodd" stroke="none"/>
    <path d="M3.7 -18.55 L3.75 -18.55 3.75 -18.6 Q3.9 -21.05 3.25 -22.0 L5.9 -19.4 Q9.65 -14.55 9.65 -7.75 9.65 -0.95 5.9 3.85 4.25 5.95 2.3 7.15 3.35 5.95 2.3 5.0 3.85 4.0 5.15 2.25 6.8 -0.1 7.5 -3.0 8.7 -7.05 7.6 -11.3 7.0 -14.05 5.55 -16.25 5.55 -14.35 3.65 -11.95 L2.3 -10.5 Q3.5 -12.55 2.3 -14.55 3.4 -16.1 3.7 -18.55" fill="#8b7716" fill-rule="evenodd" stroke="none"/>
    <path d="M3.75 -18.55 L3.7 -18.6 3.75 -18.6 3.75 -18.55" fill="#afafaf" fill-rule="evenodd" stroke="none"/>
    <path d="M-4.55 -13.3 Q-2.95 -11.95 -1.0 -12.4 L0.15 -12.8 Q1.45 -13.4 2.3 -14.55 3.5 -12.55 2.3 -10.5 0.85 -9.35 -1.0 -9.25 -2.6 -9.15 -4.55 -9.9 -8.1 -11.6 -8.95 -16.4 L-10.5 -13.2 Q-11.4 -16.9 -13.85 -17.1 L-12.35 -19.4 -11.1 -20.8 Q-7.9 -21.6 -7.25 -18.5 -6.5 -14.95 -4.55 -13.3 M2.3 7.15 Q0.2 8.4 -2.2 8.65 L-3.2 8.7 -4.5 8.6 Q-9.05 8.1 -12.35 3.85 -15.15 0.3 -15.85 -4.3 -15.25 -2.45 -11.05 -3.55 -10.45 -0.35 -8.6 2.25 -7.1 4.35 -5.2 5.35 -3.6 6.2 -1.75 6.2 L-1.1 6.2 -0.8 6.15 Q0.4 6.0 1.45 5.5 L2.3 5.0 Q3.35 5.95 2.3 7.15 M-16.15 -8.1 Q-16.1 -11.1 -15.3 -13.65 -13.25 -13.15 -11.2 -10.35 L-11.45 -7.35 -11.4 -6.7 Q-15.4 -6.5 -16.15 -8.1" fill="#e4ea65" fill-rule="evenodd" stroke="none"/>
    <path d="M-10.5 -13.2 L-8.95 -16.4 Q-8.1 -11.6 -4.55 -9.9 -2.6 -9.15 -1.0 -9.25 0.85 -9.35 2.3 -10.5 L3.65 -11.95 Q5.55 -14.35 5.55 -16.25 7.0 -14.05 7.6 -11.3 8.7 -7.05 7.5 -3.0 6.8 -0.1 5.15 2.25 3.85 4.0 2.3 5.0 L1.45 5.5 Q0.4 6.0 -0.8 6.15 L-1.1 6.2 -1.75 6.2 Q-3.6 6.2 -5.2 5.35 -7.1 4.35 -8.6 2.25 -10.45 -0.35 -11.05 -3.55 L-11.4 -6.7 -11.45 -7.35 -11.2 -10.35 -10.5 -13.2" fill="#6d564e" fill-rule="evenodd" stroke="none"/>
    <path d="M-15.85 -4.3 L-16.15 -7.75 -16.15 -8.1 Q-15.4 -6.5 -11.4 -6.7 L-11.05 -3.55 Q-15.25 -2.45 -15.85 -4.3 M-15.3 -13.65 Q-14.8 -15.5 -13.85 -17.1 -11.4 -16.9 -10.5 -13.2 L-11.2 -10.35 Q-13.25 -13.15 -15.3 -13.65" fill="#fdfcf4" fill-rule="evenodd" stroke="none"/>
    <path d="M3.75 -18.55 L3.7 -18.6 3.7 -18.55 Q3.4 -16.1 2.3 -14.55 1.45 -13.4 0.15 -12.8 L-1.0 -12.4 Q-2.95 -11.95 -4.55 -13.3 -2.75 -13.35 -1.6 -14.25 0.2 -15.6 0.35 -18.95 L0.35 -21.35 Q1.5 -22.35 3.25 -22.0 L5.9 -19.4 Q9.65 -14.55 9.65 -7.75 9.65 -0.95 5.9 3.85 4.25 5.95 2.3 7.15 0.2 8.4 -2.2 8.65 L-3.2 8.7 -4.5 8.6 Q-9.05 8.1 -12.35 3.85 -15.15 0.3 -15.85 -4.3 L-16.15 -7.75 -16.15 -8.1 Q-16.1 -11.1 -15.3 -13.65 -14.8 -15.5 -13.85 -17.1 L-12.35 -19.4 -11.1 -20.8 Q-7.9 -21.6 -7.25 -18.5 -6.5 -14.95 -4.55 -13.3 M3.75 -18.55 L3.75 -18.6 Q3.9 -21.05 3.25 -22.0 M-10.5 -13.2 L-8.95 -16.4 Q-8.1 -11.6 -4.55 -9.9 -2.6 -9.15 -1.0 -9.25 0.85 -9.35 2.3 -10.5 L3.65 -11.95 Q5.55 -14.35 5.55 -16.25 7.0 -14.05 7.6 -11.3 8.7 -7.05 7.5 -3.0 6.8 -0.1 5.15 2.25 3.85 4.0 2.3 5.0 L1.45 5.5 Q0.4 6.0 -0.8 6.15 L-1.1 6.2 -1.75 6.2 Q-3.6 6.2 -5.2 5.35 -7.1 4.35 -8.6 2.25 -10.45 -0.35 -11.05 -3.55 L-11.4 -6.7 -11.45 -7.35 -11.2 -10.35 -10.5 -13.2" fill="none" stroke="#473632" stroke-linecap="round" stroke-linejoin="round" stroke-width="0.05"/>
  </g>
</svg>
