<?xml version="1.0" encoding="UTF-8" standalone="no"?>
<svg xmlns:xlink="http://www.w3.org/1999/xlink" height="23.4px" width="24.2px" xmlns="http://www.w3.org/2000/svg">
  <g transform="matrix(1.0, 0.0, 0.0, 1.0, 12.05, 11.7)">
    <path d="M12.15 -0.8 Q10.8 -5.9 4.4 -6.95 2.7 -6.0 1.4 -6.45 L1.4 -6.55 Q1.65 -9.35 3.6 -11.5 L6.7 -11.55 Q4.4 -10.2 4.55 -8.65 L7.8 -7.9 Q10.8 -7.25 12.15 -0.8 M-0.4 -9.05 L-1.55 -8.9 Q-3.9 -11.15 -5.05 -11.7 -2.15 -11.25 -0.4 -9.05 M4.5 4.7 Q5.65 3.65 4.7 -2.1 5.75 -0.5 5.85 1.9 5.9 5.3 4.8 7.4 4.85 5.6 4.5 4.7 M7.2 7.9 L7.3 6.65 Q7.6 2.45 7.4 0.45 8.75 2.9 7.2 7.9 M10.05 3.15 Q9.95 0.7 8.35 -1.0 7.7 -1.25 8.45 -2.9 11.85 1.35 11.3 7.7 11.0 5.0 10.05 3.15" fill="#68536f" fill-rule="evenodd" stroke="none"/>
    <path d="M3.6 -11.5 Q1.65 -9.35 1.4 -6.55 L1.4 -6.45 Q2.7 -6.0 4.4 -6.95 10.8 -5.9 12.15 -0.8 10.45 -4.35 8.45 -2.9 7.7 -1.25 8.35 -1.0 9.95 0.7 10.05 3.15 L9.1 1.9 7.4 0.45 Q7.6 2.45 7.3 6.65 L7.2 7.9 Q6.7 4.65 5.85 1.75 L5.85 1.9 Q5.75 -0.5 4.7 -2.1 5.65 3.65 4.5 4.7 4.3 3.75 3.6 4.15 1.5 4.75 2.45 8.8 L2.3 8.65 3.25 9.9 2.5 11.0 Q0.4 12.05 -2.35 11.5 L-3.1 11.5 -3.15 11.5 -6.25 10.7 Q-7.85 9.05 -9.0 8.3 -10.15 7.55 -12.0 3.25 -12.45 0.75 -9.5 -4.05 L-8.55 -5.2 Q-7.65 -6.3 -7.7 -7.05 -7.75 -7.8 -8.5 -7.95 -6.95 -9.0 -4.7 -8.0 -4.35 -9.45 -7.75 -10.85 -7.2 -11.65 -5.05 -11.7 -3.9 -11.15 -1.55 -8.9 L-0.4 -9.05 -0.35 -9.0 -0.25 -9.0 Q1.5 -10.95 3.6 -11.5" fill="#413445" fill-rule="evenodd" stroke="none"/>
    <path d="M-3.15 11.5 L-3.1 11.5" fill="none" stroke="#4b3a34" stroke-linecap="round" stroke-linejoin="round" stroke-width="0.05"/>
  </g>
</svg>
