<?xml version="1.0" encoding="UTF-8" standalone="no"?>
<svg xmlns:xlink="http://www.w3.org/1999/xlink" height="74.55px" width="146.95px" xmlns="http://www.w3.org/2000/svg">
  <g transform="matrix(1.0, 0.0, 0.0, 1.0, 75.5, 37.45)">
    <path d="M25.8 -25.4 L-0.75 -11.8 -0.7 -11.8 25.85 -25.4 70.3 -3.5 -8.8 36.95 -75.5 4.2 3.6 -36.3 25.8 -25.4" fill="url(#gradient0)" fill-rule="evenodd" stroke="none"/>
    <path d="M0.1 -11.9 L26.65 -25.5 0.1 -11.9 -22.1 -22.85 -48.4 -9.4 Q-37.3 -3.95 -26.2 1.55 L0.1 -11.9 22.3 -1.0 48.9 -14.6 71.1 -3.6 M-22.1 -22.85 L4.45 -36.45 26.65 -25.5 48.9 -14.6 M-26.2 1.55 L-3.95 12.5 22.3 -1.0 44.55 9.95 M-74.65 4.1 L-48.4 -9.4 M18.3 23.4 L-3.95 12.5 -30.25 25.95 M-52.45 15.0 L-26.2 1.55" fill="none" stroke="#c5c5c5" stroke-linecap="round" stroke-linejoin="round" stroke-width="0.5"/>
    <path d="M71.1 -3.6 L44.55 9.95 Q31.4 16.65 18.3 23.4 L-7.95 36.85 -30.25 25.95 -52.45 15.0 -74.65 4.1" fill="none" stroke="#272727" stroke-linecap="round" stroke-linejoin="round" stroke-width="0.5"/>
    <path d="M0.4 -12.75 L22.3 -2.0 22.15 -1.9 -3.95 11.5 -25.9 0.7 0.2 -12.65 -0.05 -12.8 0.2 -12.65 -25.9 0.7 -26.2 0.55 -0.05 -12.8 0.1 -12.9 0.35 -12.75 0.4 -12.75 0.25 -12.65 0.2 -12.65 0.35 -12.75 0.2 -12.65 0.25 -12.65 0.4 -12.75 M0.25 -12.65 L22.15 -1.9 0.25 -12.65" fill="url(#gradient1)" fill-rule="evenodd" stroke="none"/>
    <path d="M26.8 -26.25 L49.0 -15.35 71.2 -4.4 44.65 9.15 Q31.5 15.9 18.4 22.6 5.25 29.35 -7.85 36.05 L-30.1 25.15 -52.35 14.25 -74.55 3.3 -48.25 -10.15 -22.0 -23.6 4.55 -37.2 26.75 -26.25 26.8 -26.25 0.4 -12.75 0.25 -12.65 0.2 -12.65 -25.9 0.7 -26.05 0.8 -3.85 11.7 22.45 -1.75 49.0 -15.35 M22.15 -1.9 L22.45 -1.75 44.65 9.15 M0.35 -12.75 L0.2 -12.65 -0.05 -12.8 -22.0 -23.6 M22.15 -1.9 L0.25 -12.65 M0.35 -12.75 L26.75 -26.25 M18.4 22.6 L-3.85 11.7 -30.1 25.15 M-52.35 14.25 L-26.05 0.8 -48.25 -10.15" fill="none" stroke="#454545" stroke-linecap="round" stroke-linejoin="round" stroke-width="0.5"/>
  </g>
  <defs>
    <radialGradient cx="0" cy="0" gradientTransform="matrix(-0.0205, -0.0833, 0.1187, -0.0293, -2.75, 30.9)" gradientUnits="userSpaceOnUse" id="gradient0" r="819.2" spreadMethod="pad">
      <stop offset="0.0" stop-color="#0b1b20" stop-opacity="0.3529412"/>
      <stop offset="1.0" stop-color="#c7e6ed" stop-opacity="0.32156864"/>
    </radialGradient>
    <radialGradient cx="0" cy="0" gradientTransform="matrix(0.0242, -0.0103, 0.0071, 0.0166, -0.25, -1.65)" gradientUnits="userSpaceOnUse" id="gradient1" r="819.2" spreadMethod="pad">
      <stop offset="0.011764705882352941" stop-color="#dbf0f2" stop-opacity="0.6"/>
      <stop offset="1.0" stop-color="#c7e6ed" stop-opacity="0.32156864"/>
    </radialGradient>
  </defs>
</svg>
