<?xml version="1.0" encoding="UTF-8" standalone="no"?>
<svg xmlns:xlink="http://www.w3.org/1999/xlink" height="60.3px" width="116.8px" xmlns="http://www.w3.org/2000/svg">
  <g transform="matrix(1.0, 0.0, 0.0, 1.0, 59.7, 30.75)">
    <path d="M4.3 -28.9 L4.25 -28.95 4.2 -28.95 3.6 -29.45 3.4 -29.4 6.1 -30.75 14.2 -26.55 13.9 -26.45 6.45 -30.1 4.2 -28.95 4.3 -28.9 M-9.45 -21.4 L-10.05 -22.0 7.9 -27.1 8.15 -26.55 8.35 -26.45 -9.45 -21.4 M34.8 -15.75 Q34.6 -16.35 33.6 -16.85 L31.0 -18.1 Q28.05 -19.6 24.2 -17.6 L22.7 -16.85 Q20.55 -15.75 20.4 -14.95 18.95 -14.9 16.9 -13.85 L15.3 -13.05 Q13.35 -12.05 13.1 -11.2 12.65 -12.3 15.3 -13.65 L16.9 -14.45 Q18.95 -15.55 20.4 -15.55 20.55 -16.35 22.7 -17.45 L24.2 -18.2 Q28.05 -20.2 31.0 -18.7 L33.6 -17.45 Q35.1 -16.65 34.8 -15.75 M17.2 -11.55 L17.4 -11.35 19.15 -10.5 Q20.25 -9.95 22.55 -11.05 L23.85 -11.9 Q24.55 -11.5 22.55 -10.45 20.25 -9.35 19.15 -9.9 L17.4 -10.75 Q16.8 -11.1 17.2 -11.55 M24.2 -15.15 L26.55 -13.95 Q27.3 -13.55 29.65 -14.7 L30.7 -15.4 Q31.25 -14.95 29.65 -14.1 27.3 -12.95 26.55 -13.35 L24.2 -14.55 Q23.75 -14.75 24.2 -15.15 M39.7 -1.6 L38.25 -2.35 Q36.05 -1.25 35.65 -0.3 34.95 -1.55 38.25 -3.2 L40.5 -2.1 39.7 -1.6 M57.0 -4.9 L55.65 -6.0 53.65 -7.0 Q50.4 -8.6 46.1 -6.4 L44.3 -5.45 Q42.8 -4.7 42.45 -4.0 41.85 -5.1 44.3 -6.3 L46.1 -7.25 Q50.4 -9.45 53.65 -7.85 L55.65 -6.85 Q57.5 -5.95 57.0 -4.9 M46.75 -1.3 L46.75 -0.6 46.95 -0.5 44.85 0.55 Q42.7 1.65 41.3 1.0 L39.8 0.25 39.45 -0.05 39.4 -0.2 39.4 -0.25 39.4 -0.4 39.35 -0.95 39.4 -0.95 39.65 -0.7 39.8 -0.6 41.3 0.1 Q42.7 0.8 44.85 -0.3 L46.75 -1.3 M46.2 -4.6 L46.4 -4.4 49.7 -2.8 51.9 -3.9 52.85 -4.55 53.05 -4.75 53.1 -4.9 53.1 -4.3 53.1 -4.0 53.1 -3.9 Q52.85 -3.55 51.9 -3.05 L49.7 -1.9 46.4 -3.5 46.25 -3.6 Q46.1 -3.75 46.25 -3.9 L46.2 -4.6 M19.6 9.15 L23.05 10.8 Q24.45 11.5 24.15 12.35 23.9 11.85 23.05 11.45 L19.5 9.75 19.65 9.7 19.6 9.15 M9.15 13.25 Q8.75 12.25 10.8 11.2 L20.5 6.25 Q24.15 4.35 27.2 5.85 L29.85 7.2 Q31.2 7.85 30.9 8.75 L29.85 7.85 27.2 6.5 Q24.15 5.05 20.5 6.95 L10.8 11.9 Q9.4 12.55 9.15 13.25 M26.55 10.15 L25.9 9.85 26.5 9.55 26.9 9.25 27.0 9.15 27.0 9.4 27.05 9.75 26.55 10.15 M13.2 12.8 L13.35 13.05 13.65 13.25 15.2 14.05 Q16.4 14.6 18.7 13.5 L19.85 12.75 20.0 12.55 20.05 12.9 20.05 13.15 18.7 14.2 Q16.4 15.3 15.2 14.7 L13.65 13.9 13.2 13.55 13.2 13.4 13.2 12.8 M-45.8 -0.75 L-45.8 -0.05 Q-52.4 3.3 -59.0 6.7 L-59.7 6.35 -45.8 -0.75 M-41.45 -0.75 L-44.75 -2.35 -46.85 -1.3 -47.55 -1.65 -44.75 -3.1 -40.75 -1.1 -41.45 -0.75 M-14.4 -13.8 L-16.6 -14.85 -31.9 -11.35 -33.9 -10.3 -34.65 -10.7 -31.9 -12.15 -16.6 -15.65 -13.65 -14.2 -14.4 -13.8 M-29.85 -8.2 L-29.8 -7.55 -29.7 -7.5 -31.8 -6.4 -32.55 -6.8 -29.85 -8.2 M-24.3 -7.55 L-24.75 -7.8 -24.6 -7.85 -24.7 -8.5 -23.55 -7.95 -24.3 -7.55 M-29.5 -10.85 L-27.0 -9.65 -19.9 -13.3 -20.0 -12.55 -19.85 -12.55 Q-23.45 -10.75 -27.0 -8.9 L-29.65 -10.2 -29.45 -10.25 -29.5 -10.85" fill="#454545" fill-rule="evenodd" stroke="none"/>
    <path d="M0.5 22.2 L0.5 22.75 0.5 23.0 Q0.35 23.35 -0.75 23.9 -3.05 25.05 -4.45 24.35 L-5.9 23.65 -7.95 24.7 -8.75 24.3 -5.9 22.9 -4.45 23.6 Q-3.05 24.3 -0.75 23.15 L0.25 22.55 0.5 22.2 M-6.15 20.4 L-6.95 20.0 Q-2.4 17.65 0.75 19.2 L3.35 20.45 Q4.85 21.2 4.45 22.15 4.2 21.65 3.35 21.25 L0.75 19.95 Q-2.15 18.55 -6.15 20.4 M-17.2 26.75 Q-17.75 25.5 -14.55 23.9 L-12.25 25.05 -12.95 25.45 -14.55 24.65 Q-16.8 25.8 -17.2 26.75 M-13.5 26.1 L-13.25 26.35 -11.0 27.45 Q-10.1 27.9 -7.95 26.85 L-7.85 26.8 -6.8 26.1 -6.7 25.95 -6.7 26.2 Q-6.6 26.35 -6.65 26.55 -6.8 27.0 -7.85 27.55 L-7.95 27.6 Q-10.1 28.65 -11.0 28.2 L-13.25 27.1 -13.5 26.9 -13.5 26.7 -13.5 26.1 M-28.1 9.6 L-28.85 9.2 -28.05 8.8 Q-24.3 6.85 -21.55 8.2 L-18.8 9.6 Q-17.05 10.45 -17.5 11.4 -17.75 10.85 -18.8 10.35 L-21.55 9.0 Q-24.3 7.65 -28.05 9.6 L-28.1 9.6 M-35.95 15.2 L-29.8 18.2 -30.55 18.6 Q-33.25 17.3 -35.9 15.95 L-36.05 15.9 -35.9 15.85 -35.95 15.2 M-40.3 15.8 L-41.05 15.45 -35.55 12.65 Q-31.3 10.4 -27.95 12.05 L-25.7 13.15 -23.95 13.0 -21.75 11.9 -21.55 11.8 -21.25 11.6 -21.25 12.0 Q-21.1 12.1 -21.25 12.3 L-21.75 12.65 -23.95 13.75 -25.7 13.9 -27.95 12.85 Q-31.3 11.2 -35.55 13.4 L-40.3 15.8" fill="#2d2d2d" fill-rule="evenodd" stroke="none"/>
    <path d="M13.9 -26.45 L-7.45 -20.45 -9.45 -21.4 8.35 -26.45 8.15 -26.55 7.9 -27.1 8.0 -27.1 7.85 -27.2 4.3 -28.9 4.2 -28.95 6.45 -30.1 13.9 -26.45" fill="url(#gradient0)" fill-rule="evenodd" stroke="none"/>
    <path d="M13.1 -11.2 Q13.35 -12.05 15.3 -13.05 L16.9 -13.85 Q18.95 -14.9 20.4 -14.95 20.55 -15.75 22.7 -16.85 L24.2 -17.6 Q28.05 -19.6 31.0 -18.1 L33.6 -16.85 Q34.6 -16.35 34.8 -15.75 34.5 -14.95 32.7 -14.0 L31.3 -13.25 Q29.15 -12.2 27.4 -12.15 27.35 -11.3 25.35 -10.2 L23.8 -9.45 Q19.8 -7.4 16.85 -8.85 L14.3 -10.15 Q13.25 -10.65 13.1 -11.2 M23.85 -11.9 Q24.2 -12.3 23.8 -12.5 L21.35 -13.65 Q20.55 -14.1 18.5 -13.0 L18.4 -12.95 Q16.6 -12.05 17.2 -11.55 16.8 -11.1 17.4 -10.75 L19.15 -9.9 Q20.25 -9.35 22.55 -10.45 24.55 -11.5 23.85 -11.9 M30.7 -15.4 Q31.05 -15.85 30.5 -16.15 L28.6 -17.1 Q27.5 -17.65 25.5 -16.6 23.4 -15.5 24.2 -15.15 23.75 -14.75 24.2 -14.55 L26.55 -13.35 Q27.3 -12.95 29.65 -14.1 31.25 -14.95 30.7 -15.4" fill="url(#gradient1)" fill-rule="evenodd" stroke="none"/>
    <path d="M39.7 -1.6 Q39.35 -1.35 39.35 -1.1 L39.4 -0.95 39.35 -0.95 39.4 -0.4 39.4 -0.25 39.4 -0.2 39.45 -0.05 39.8 0.25 41.3 1.0 Q42.7 1.65 44.85 0.55 L46.95 -0.5 46.75 -0.6 46.75 -1.3 46.95 -1.4 43.8 -2.9 Q42.75 -3.45 42.45 -4.0 42.8 -4.7 44.3 -5.45 L46.1 -6.4 Q50.4 -8.6 53.65 -7.0 L55.65 -6.0 57.0 -4.9 Q56.6 -4.05 54.75 -3.1 L46.6 1.05 Q42.2 3.3 38.9 1.7 L36.75 0.65 Q35.85 0.2 35.65 -0.3 36.05 -1.25 38.25 -2.35 L39.7 -1.6 M53.1 -4.9 L53.1 -5.15 52.7 -5.5 51.05 -6.35 Q49.85 -6.9 47.6 -5.8 46.05 -5.0 46.2 -4.6 L46.25 -3.9 Q46.1 -3.75 46.25 -3.6 L46.4 -3.5 49.7 -1.9 51.9 -3.05 Q52.85 -3.55 53.1 -3.9 L53.1 -4.0 53.1 -4.3 53.1 -4.9" fill="url(#gradient2)" fill-rule="evenodd" stroke="none"/>
    <path d="M24.15 12.35 Q23.8 13.15 22.0 14.05 L19.9 15.2 Q15.95 17.2 12.55 15.5 L10.7 14.55 Q9.4 13.9 9.15 13.25 9.4 12.55 10.8 11.9 L20.5 6.95 Q24.15 5.05 27.2 6.5 L29.85 7.85 30.9 8.75 Q30.55 9.7 28.15 10.95 L26.55 10.15 27.05 9.75 27.0 9.4 27.0 9.15 27.05 8.85 26.5 8.35 24.8 7.55 Q23.65 6.95 21.8 7.9 L19.6 9.05 19.5 9.1 19.6 9.15 19.65 9.7 19.5 9.75 23.05 11.45 Q23.9 11.85 24.15 12.35 M20.0 12.55 Q20.15 12.2 19.75 12.0 L16.7 10.5 14.3 11.75 Q13.2 12.3 13.2 12.7 L13.2 12.8 13.2 13.4 13.2 13.55 13.65 13.9 15.2 14.7 Q16.4 15.3 18.7 14.2 L20.05 13.15 20.05 12.9 20.0 12.55" fill="url(#gradient3)" fill-rule="evenodd" stroke="none"/>
    <path d="M0.5 23.0 L0.5 22.75 0.5 22.2 Q0.6 21.95 0.3 21.8 L-2.3 20.5 Q-2.9 20.2 -4.65 21.1 L-6.15 20.4 Q-2.15 18.55 0.75 19.95 L3.35 21.25 Q4.2 21.65 4.45 22.15 4.1 22.9 2.3 23.85 L0.6 24.7 Q-1.4 25.75 -3.2 25.65 -3.0 26.55 -4.75 27.45 L-6.45 28.35 Q-10.55 30.45 -13.7 28.9 L-16.0 27.75 -17.2 26.75 Q-16.8 25.8 -14.55 24.65 L-12.95 25.45 Q-13.55 25.8 -13.5 26.1 L-13.5 26.7 -13.5 26.9 -13.25 27.1 -11.0 28.2 Q-10.1 28.65 -7.95 27.6 L-7.85 27.55 Q-6.8 27.0 -6.65 26.55 -6.6 26.35 -6.7 26.2 L-6.7 25.95 -6.65 25.65 -7.15 25.1 -7.95 24.7 -5.9 23.65 -4.45 24.35 Q-3.05 25.05 -0.75 23.9 0.35 23.35 0.5 23.0" fill="url(#gradient4)" fill-rule="evenodd" stroke="none"/>
    <path d="M-59.0 6.7 Q-52.4 3.3 -45.8 -0.05 L-45.8 -0.75 -45.8 -0.8 -46.85 -1.3 -44.75 -2.35 -41.45 -0.75 -57.45 7.45 -59.0 6.7" fill="url(#gradient5)" fill-rule="evenodd" stroke="none"/>
    <path d="M-33.9 -10.3 L-31.9 -11.35 -16.6 -14.85 -14.4 -13.8 -24.7 -8.55 -24.75 -8.55 -24.7 -8.5 -24.6 -7.85 -24.75 -7.8 -24.3 -7.55 Q-25.25 -7.1 -26.25 -6.6 L-27.45 -7.15 -30.3 -5.7 -31.8 -6.4 -29.7 -7.5 -29.8 -7.55 -29.85 -8.2 -29.7 -8.25 -33.9 -10.3 M-19.9 -13.3 L-29.65 -10.95 -29.5 -10.85 -29.45 -10.25 -29.65 -10.2 -27.0 -8.9 Q-23.45 -10.75 -19.85 -12.55 L-20.0 -12.55 -19.9 -13.3" fill="url(#gradient6)" fill-rule="evenodd" stroke="none"/>
    <path d="M-28.1 9.6 L-28.05 9.6 Q-24.3 7.65 -21.55 9.0 L-18.8 10.35 Q-17.75 10.85 -17.5 11.4 -17.85 12.1 -19.3 12.85 L-21.65 14.1 Q-23.5 15.0 -25.2 15.2 -26.9 15.35 -29.0 14.35 L-30.85 13.45 Q-31.8 12.95 -33.2 13.7 L-35.95 15.1 -36.05 15.15 -35.95 15.2 -35.9 15.85 -36.05 15.9 -35.9 15.95 Q-33.25 17.3 -30.55 18.6 L-32.5 19.65 -40.3 15.8 -35.55 13.4 Q-31.3 11.2 -27.95 12.85 L-25.7 13.9 -23.95 13.75 -21.75 12.65 -21.25 12.3 Q-21.1 12.1 -21.25 12.0 L-21.25 11.6 Q-21.05 11.3 -21.4 11.1 L-24.4 9.65 -25.45 9.7 -26.6 10.35 -28.1 9.6" fill="url(#gradient7)" fill-rule="evenodd" stroke="none"/>
    <path d="M46.25 -3.6 Q46.1 -3.75 46.25 -3.9 L46.2 -4.6 M20.0 12.55 L20.05 12.9 20.05 13.15 M0.5 23.0 L0.5 22.75 0.5 22.2 M-6.7 25.95 L-6.65 25.65 M-6.65 26.55 Q-6.6 26.35 -6.7 26.2 L-6.7 25.95 M-13.5 26.1 L-13.5 26.7 -13.5 26.9" fill="none" stroke="#454545" stroke-linecap="round" stroke-linejoin="round" stroke-width="0.05"/>
  </g>
  <defs>
    <radialGradient cx="0" cy="0" gradientTransform="matrix(0.015, 0.0, 0.0, 0.015, 2.25, -25.25)" gradientUnits="userSpaceOnUse" id="gradient0" r="819.2" spreadMethod="pad">
      <stop offset="0.0" stop-color="#ffffff"/>
      <stop offset="1.0" stop-color="#ccd0d0"/>
    </radialGradient>
    <radialGradient cx="0" cy="0" gradientTransform="matrix(0.0145, 0.0, 0.0, 0.0145, 23.95, -13.5)" gradientUnits="userSpaceOnUse" id="gradient1" r="819.2" spreadMethod="pad">
      <stop offset="0.0" stop-color="#ffffff"/>
      <stop offset="1.0" stop-color="#ccd0d0"/>
    </radialGradient>
    <radialGradient cx="0" cy="0" gradientTransform="matrix(0.0142, 0.0, 0.0, 0.0142, 46.3, -2.7)" gradientUnits="userSpaceOnUse" id="gradient2" r="819.2" spreadMethod="pad">
      <stop offset="0.0" stop-color="#ffffff"/>
      <stop offset="1.0" stop-color="#ccd0d0"/>
    </radialGradient>
    <radialGradient cx="0" cy="0" gradientTransform="matrix(0.0144, 0.0, 0.0, 0.0144, 20.0, 11.05)" gradientUnits="userSpaceOnUse" id="gradient3" r="819.2" spreadMethod="pad">
      <stop offset="0.0" stop-color="#ffffff"/>
      <stop offset="1.0" stop-color="#ccd0d0"/>
    </radialGradient>
    <radialGradient cx="0" cy="0" gradientTransform="matrix(0.0144, 0.0, 0.0, 0.0144, -6.4, 24.45)" gradientUnits="userSpaceOnUse" id="gradient4" r="819.2" spreadMethod="pad">
      <stop offset="0.0" stop-color="#ffffff"/>
      <stop offset="1.0" stop-color="#ccd0d0"/>
    </radialGradient>
    <radialGradient cx="0" cy="0" gradientTransform="matrix(0.0119, 0.0, 0.0, 0.0119, -50.2, 2.5)" gradientUnits="userSpaceOnUse" id="gradient5" r="819.2" spreadMethod="pad">
      <stop offset="0.0" stop-color="#ffffff"/>
      <stop offset="1.0" stop-color="#ccd0d0"/>
    </radialGradient>
    <radialGradient cx="0" cy="0" gradientTransform="matrix(0.0126, 0.0, 0.0, 0.0126, -24.15, -10.3)" gradientUnits="userSpaceOnUse" id="gradient6" r="819.2" spreadMethod="pad">
      <stop offset="0.0" stop-color="#ffffff"/>
      <stop offset="1.0" stop-color="#ccd0d0"/>
    </radialGradient>
    <radialGradient cx="0" cy="0" gradientTransform="matrix(0.0152, 0.0, 0.0, 0.0152, -28.85, 14.05)" gradientUnits="userSpaceOnUse" id="gradient7" r="819.2" spreadMethod="pad">
      <stop offset="0.0" stop-color="#ffffff"/>
      <stop offset="1.0" stop-color="#ccd0d0"/>
    </radialGradient>
  </defs>
</svg>
