<?xml version="1.0" encoding="UTF-8" standalone="no"?>
<svg xmlns:xlink="http://www.w3.org/1999/xlink" height="44.5px" width="47.95px" xmlns="http://www.w3.org/2000/svg">
  <g transform="matrix(1.0, 0.0, 0.0, 1.0, 5.85, 25.95)">
    <path d="M12.85 -6.8 L12.7 -7.5 Q12.4 -8.95 11.65 -9.25 9.85 -15.2 6.8 -17.2 L12.45 -15.95 Q19.9 -25.7 28.85 -25.95 L28.85 -25.8 Q20.7 -22.75 18.9 -19.85 20.95 -20.85 22.5 -21.0 L22.5 -21.05 Q27.25 -22.2 31.25 -21.85 35.45 -21.55 38.9 -19.55 29.95 -20.8 23.85 -15.35 34.1 -13.55 34.75 -3.35 L33.85 -3.65 Q29.75 -9.35 22.45 -9.65 27.65 -5.1 28.9 0.8 25.25 -2.75 17.85 -1.65 L17.85 -1.7 Q15.55 -7.05 12.85 -6.8" fill="#ab7872" fill-rule="evenodd" stroke="none"/>
    <path d="M28.85 -25.8 Q25.15 -24.0 22.5 -21.05 L22.5 -21.0 Q20.95 -20.85 18.9 -19.85 20.7 -22.75 28.85 -25.8 M38.9 -19.55 Q31.2 -18.45 27.45 -15.4 37.85 -14.5 42.1 0.6 38.35 -1.9 35.45 -3.05 L34.75 -3.35 Q34.1 -13.55 23.85 -15.35 29.95 -20.8 38.9 -19.55 M33.85 -3.65 L30.2 -4.2 Q33.25 -0.5 34.5 9.7 32.4 6.15 29.55 4.1 L29.3 3.95 Q26.1 1.75 21.95 1.35 L22.15 1.6 Q27.05 8.4 26.5 18.55 25.2 15.5 23.35 12.85 L23.35 12.75 23.3 12.75 Q19.45 8.25 16.6 7.45 14.5 10.25 13.1 10.7 L13.8 8.0 Q14.45 4.9 11.4 2.55 13.65 -3.25 12.85 -6.8 15.55 -7.05 17.85 -1.7 L17.85 -1.65 Q25.25 -2.75 28.9 0.8 27.65 -5.1 22.45 -9.65 29.75 -9.35 33.85 -3.65" fill="#86554f" fill-rule="evenodd" stroke="none"/>
    <path d="M-2.4 -7.9 Q-2.45 -8.65 -0.6 -9.4 L0.0 -9.3 0.1 -9.35 Q6.35 -8.35 7.4 -2.85 7.45 -1.65 6.8 -2.55 4.35 -7.1 -2.4 -7.9 M10.6 -9.8 L11.5 -10.2 Q12.1 -10.25 12.75 -9.85 13.8 -7.95 12.75 -6.7 L12.45 -7.55 Q11.75 -9.0 10.6 -9.8" fill="#9933cc" fill-rule="evenodd" stroke="none"/>
    <path d="M5.35 -10.1 Q6.35 -9.75 5.8 -9.4 L2.65 -9.35 Q4.1 -9.3 5.45 -7.95 L5.5 -7.9 5.65 -7.85 Q8.35 -6.25 8.2 -1.9 L8.4 0.6 Q9.85 -0.95 9.35 -3.05 10.65 -2.15 10.4 -0.25 11.95 -1.1 12.4 -4.25 11.95 -6.75 11.15 -7.9 L10.5 -8.6 10.4 -8.65 10.4 -8.7 Q9.05 -10.1 7.6 -10.15 L8.55 -9.5 Q6.95 -10.4 5.35 -10.1 M-2.4 -7.9 Q4.35 -7.1 6.8 -2.55 7.45 -1.65 7.4 -2.85 6.35 -8.35 0.1 -9.35 2.35 -10.5 5.55 -10.95 8.7 -11.15 10.6 -9.8 11.75 -9.0 12.45 -7.55 L12.75 -6.7 12.85 -6.4 Q13.45 -3.5 11.7 0.6 L11.05 2.4 9.3 5.15 Q9.95 3.8 9.9 2.5 9.5 1.05 7.6 1.85 6.5 3.5 7.05 7.65 5.9 6.3 5.95 3.55 6.3 1.6 5.6 0.0 5.45 2.75 4.6 4.55 5.35 0.1 2.95 -2.35 3.2 0.65 2.4 2.25 1.8 -0.4 -0.05 -2.25 -1.05 -0.15 -0.75 2.1 -2.75 0.75 -2.9 -3.7 -5.5 -2.9 -4.9 1.8 -5.75 0.5 -5.85 -3.05 -5.95 -6.65 -2.4 -7.9 M1.9 -2.0 L1.65 -4.45 Q4.2 -3.3 5.3 -1.0 5.25 -3.45 3.5 -5.35 0.35 -7.2 -2.5 -7.3 -3.8 -6.6 -4.4 -5.5 L-5.2 -3.6 -5.3 -3.25 Q-3.5 -5.4 -1.65 -4.7 -1.8 -3.4 -1.2 -2.25 -1.15 -3.8 0.1 -4.15 1.5 -3.55 1.9 -2.0" fill="#86554f" fill-rule="evenodd" stroke="none"/>
    <path d="M5.35 -10.1 Q6.95 -10.4 8.55 -9.5 L7.6 -10.15 Q9.05 -10.1 10.4 -8.7 L10.4 -8.65 10.5 -8.6 11.15 -7.9 Q11.95 -6.75 12.4 -4.25 11.95 -1.1 10.4 -0.25 10.65 -2.15 9.35 -3.05 9.85 -0.95 8.4 0.6 L8.2 -1.9 Q8.35 -6.25 5.65 -7.85 L5.5 -7.9 5.45 -7.95 Q4.1 -9.3 2.65 -9.35 L5.8 -9.4 Q6.35 -9.75 5.35 -10.1 M1.9 -2.0 Q1.5 -3.55 0.1 -4.15 -1.15 -3.8 -1.2 -2.25 -1.8 -3.4 -1.65 -4.7 -3.5 -5.4 -5.3 -3.25 L-5.2 -3.6 -4.4 -5.5 Q-3.8 -6.6 -2.5 -7.3 0.35 -7.2 3.5 -5.35 5.25 -3.45 5.3 -1.0 4.2 -3.3 1.65 -4.45 L1.9 -2.0" fill="#ab7872" fill-rule="evenodd" stroke="none"/>
    <path d="M12.85 -6.4 Q13.45 -3.5 11.7 0.6" fill="none" stroke="#68536f" stroke-linecap="round" stroke-linejoin="round" stroke-width="0.05"/>
  </g>
</svg>
