<?xml version="1.0" encoding="UTF-8" standalone="no"?>
<svg xmlns:xlink="http://www.w3.org/1999/xlink" height="17.8px" width="27.0px" xmlns="http://www.w3.org/2000/svg">
  <g transform="matrix(1.0, 0.0, 0.0, 1.0, 7.55, 11.15)">
    <path d="M1.6 -10.25 Q6.8 -12.4 9.85 -9.3 10.95 -8.65 11.8 -7.85 L13.2 -5.9 Q14.15 -3.85 19.45 -3.65 17.55 -0.55 13.25 0.15 13.15 1.55 17.15 1.8 15.2 4.1 11.55 3.8 L11.4 3.75 11.55 4.0 Q12.25 4.75 14.85 4.7 13.2 5.65 11.55 6.15 L7.35 6.6 8.35 5.7 Q9.1 5.65 9.6 4.2 10.6 0.2 8.2 1.65 6.95 3.15 7.5 5.2 5.5 0.8 8.25 -2.1 8.2 -4.65 5.3 -5.6 L0.6 -5.4 Q0.25 -6.1 0.65 -7.4 -1.5 -7.35 -2.8 -6.35 -2.9 -7.75 -2.15 -8.35 7.2 -8.9 9.6 -1.25 L9.8 -1.6 Q8.85 -9.7 1.6 -10.25 M-5.35 -1.65 Q-4.65 -3.15 -3.8 -4.05 L-3.65 -3.75 Q-4.2 -2.05 -4.1 -0.8 L-3.8 3.0 -5.45 0.75 Q-4.6 0.8 -4.15 -0.05 L-5.35 -1.65 M-5.9 -4.15 L-6.05 -2.85 -6.1 -2.5 -7.55 -4.75 Q-6.85 -4.0 -5.9 -4.15" fill="#e29299" fill-rule="evenodd" stroke="none"/>
    <path d="M1.6 -10.25 Q8.85 -9.7 9.8 -1.6 L9.6 -1.25 Q7.2 -8.9 -2.15 -8.35 L-2.15 -8.4 Q-1.65 -9.85 -0.1 -10.05 L1.6 -10.25" fill="#792b2b" fill-rule="evenodd" stroke="none"/>
  </g>
</svg>
