<?xml version="1.0" encoding="UTF-8" standalone="no"?>
<svg xmlns:xlink="http://www.w3.org/1999/xlink" height="32.05px" width="91.2px" xmlns="http://www.w3.org/2000/svg">
  <g transform="matrix(1.0, 0.0, 0.0, 1.0, 54.95, 4.1)">
    <path d="M33.55 27.85 L33.4 27.9 33.4 27.95 -53.15 26.35 -51.65 -1.55 -51.6 -1.6 36.25 -4.1 33.55 27.85" fill="#000000" fill-opacity="0.43137255" fill-rule="evenodd" stroke="none"/>
    <path d="M33.6 -3.7 L30.8 25.35 -54.95 23.9 -53.45 -1.2 33.6 -3.7" fill="#062942" fill-rule="evenodd" stroke="none"/>
    <path d="M33.6 -3.7 L30.8 25.35 -54.95 23.9" fill="none" stroke="#07253a" stroke-linecap="round" stroke-linejoin="round" stroke-width="0.05"/>
    <path d="M-54.95 23.9 L-53.45 -1.2 33.6 -3.7 Z" fill="none" stroke="#1b5e76" stroke-linecap="round" stroke-linejoin="round" stroke-width="0.05"/>
    <path d="M32.2 -3.0 L29.55 24.55 -53.75 23.25 -52.3 -0.7 32.2 -3.0" fill="url(#gradient0)" fill-rule="evenodd" stroke="none"/>
    <path d="M29.55 24.55 L-53.75 23.25" fill="none" stroke="#75c2df" stroke-linecap="round" stroke-linejoin="round" stroke-width="0.05"/>
    <path d="M32.2 -3.0 L29.55 24.55" fill="none" stroke="#3eaad2" stroke-linecap="round" stroke-linejoin="round" stroke-width="0.05"/>
    <path d="M-53.75 23.25 L-52.3 -0.7 32.2 -3.0" fill="none" stroke="#03131b" stroke-linecap="round" stroke-linejoin="round" stroke-width="0.05"/>
    <path d="M10.95 7.6 Q11.1 7.45 11.3 7.45 11.5 7.45 11.65 7.6 L11.8 7.95 11.65 8.3 11.3 8.45 10.95 8.3 10.8 7.95 Q10.8 7.75 10.95 7.6 M3.65 7.6 L3.8 7.95 3.65 8.3 3.3 8.45 2.95 8.3 2.8 7.95 Q2.8 7.75 2.95 7.6 3.1 7.45 3.3 7.45 3.5 7.45 3.65 7.6 M6.95 7.6 Q7.1 7.45 7.3 7.45 L7.65 7.6 7.8 7.95 7.65 8.3 7.3 8.45 6.95 8.3 6.8 7.95 6.95 7.6 M-8.35 7.6 L-8.2 7.95 -8.35 8.3 Q-8.5 8.45 -8.7 8.45 L-9.05 8.3 -9.2 7.95 -9.05 7.6 -8.7 7.45 Q-8.5 7.45 -8.35 7.6 M-1.05 7.6 L-0.7 7.45 Q-0.5 7.45 -0.35 7.6 L-0.2 7.95 -0.35 8.3 -0.7 8.45 -1.05 8.3 -1.2 7.95 -1.05 7.6 M-4.35 7.6 L-4.2 7.95 -4.35 8.3 -4.7 8.45 -5.05 8.3 -5.2 7.95 -5.05 7.6 Q-4.9 7.45 -4.7 7.45 -4.5 7.45 -4.35 7.6 M-17.05 7.6 Q-16.9 7.45 -16.7 7.45 -16.5 7.45 -16.35 7.6 -16.2 7.75 -16.2 7.95 L-16.35 8.3 -16.7 8.45 -17.05 8.3 -17.2 7.95 -17.05 7.6 M-13.05 7.6 L-12.7 7.45 Q-12.5 7.45 -12.35 7.6 L-12.2 7.95 -12.35 8.3 -12.7 8.45 -13.05 8.3 -13.2 7.95 -13.05 7.6 M-28.35 7.6 Q-28.2 7.75 -28.2 7.95 L-28.35 8.3 -28.7 8.45 -29.05 8.3 -29.2 7.95 -29.05 7.6 Q-28.9 7.45 -28.7 7.45 -28.5 7.45 -28.35 7.6 M-21.05 7.6 Q-20.9 7.45 -20.7 7.45 -20.5 7.45 -20.35 7.6 -20.2 7.75 -20.2 7.95 L-20.35 8.3 -20.7 8.45 -21.05 8.3 -21.2 7.95 -21.05 7.6 M-24.35 7.6 L-24.2 7.95 -24.35 8.3 -24.7 8.45 -25.05 8.3 -25.2 7.95 -25.05 7.6 -24.7 7.45 Q-24.5 7.45 -24.35 7.6 M-33.05 7.6 Q-32.9 7.45 -32.7 7.45 -32.5 7.45 -32.35 7.6 -32.2 7.75 -32.2 7.95 L-32.35 8.3 -32.7 8.45 -33.05 8.3 -33.2 7.95 -33.05 7.6" fill="#55b6e1" fill-rule="evenodd" stroke="none"/>
  </g>
  <defs>
    <linearGradient gradientTransform="matrix(-0.0016, -0.0109, -0.0498, 0.0018, -18.25, 5.75)" gradientUnits="userSpaceOnUse" id="gradient0" spreadMethod="pad" x1="-819.2" x2="819.2">
      <stop offset="0.0" stop-color="#093d72"/>
      <stop offset="1.0" stop-color="#55b6e1"/>
    </linearGradient>
  </defs>
</svg>
