<?xml version="1.0" encoding="UTF-8" standalone="no"?>
<svg xmlns:xlink="http://www.w3.org/1999/xlink" height="32.05px" width="91.2px" xmlns="http://www.w3.org/2000/svg">
  <g transform="matrix(1.0, 0.0, 0.0, 1.0, 54.95, 4.1)">
    <path d="M32.95 -1.55 L34.45 26.35 -52.1 27.95 -52.1 27.9 -52.25 27.85 -54.95 -4.1 32.9 -1.6 32.95 -1.55" fill="#000000" fill-opacity="0.43137255" fill-rule="evenodd" stroke="none"/>
    <path d="M-52.3 -3.7 L34.8 -1.2 36.25 23.9 -49.45 25.35 -52.3 -3.7" fill="#062942" fill-rule="evenodd" stroke="none"/>
    <path d="M-52.3 -3.7 L-49.45 25.35 36.25 23.9" fill="none" stroke="#07253a" stroke-linecap="round" stroke-linejoin="round" stroke-width="0.05"/>
    <path d="M36.25 23.9 L34.8 -1.2 -52.3 -3.7 Z" fill="none" stroke="#1b5e76" stroke-linecap="round" stroke-linejoin="round" stroke-width="0.05"/>
    <path d="M-50.9 -3.0 L33.6 -0.7 35.05 23.25 -48.25 24.55 -50.9 -3.0" fill="url(#gradient0)" fill-rule="evenodd" stroke="none"/>
    <path d="M-48.25 24.55 L35.05 23.25" fill="none" stroke="#75c2df" stroke-linecap="round" stroke-linejoin="round" stroke-width="0.05"/>
    <path d="M35.05 23.25 L33.6 -0.7 -50.9 -3.0" fill="none" stroke="#03131b" stroke-linecap="round" stroke-linejoin="round" stroke-width="0.05"/>
    <path d="M-50.9 -3.0 L-48.25 24.55 Z" fill="none" stroke="#3eaad2" stroke-linecap="round" stroke-linejoin="round" stroke-width="0.05"/>
    <path d="M13.7 7.6 L14.05 7.45 14.4 7.6 14.55 7.95 14.4 8.3 14.05 8.45 13.7 8.3 13.55 7.95 13.7 7.6 M10.55 7.95 L10.4 8.3 10.05 8.45 9.7 8.3 9.55 7.95 Q9.55 7.75 9.7 7.6 9.85 7.45 10.05 7.45 10.25 7.45 10.4 7.6 L10.55 7.95 M1.7 7.6 Q1.85 7.45 2.05 7.45 L2.4 7.6 2.55 7.95 2.4 8.3 2.05 8.45 1.7 8.3 1.55 7.95 1.7 7.6 M5.7 7.6 Q5.85 7.45 6.05 7.45 6.25 7.45 6.4 7.6 L6.55 7.95 6.4 8.3 6.05 8.45 5.7 8.3 5.55 7.95 Q5.55 7.75 5.7 7.6 M-5.6 7.6 L-5.45 7.95 -5.6 8.3 -5.95 8.45 -6.3 8.3 -6.45 7.95 -6.3 7.6 -5.95 7.45 Q-5.75 7.45 -5.6 7.6 M-9.45 7.95 L-9.6 8.3 -9.95 8.45 -10.3 8.3 -10.45 7.95 -10.3 7.6 Q-10.15 7.45 -9.95 7.45 -9.75 7.45 -9.6 7.6 L-9.45 7.95 M-1.6 7.6 L-1.45 7.95 -1.6 8.3 -1.95 8.45 -2.3 8.3 -2.45 7.95 -2.3 7.6 -1.95 7.45 Q-1.75 7.45 -1.6 7.6 M-18.3 7.6 L-17.95 7.45 Q-17.75 7.45 -17.6 7.6 L-17.45 7.95 -17.6 8.3 -17.95 8.45 -18.3 8.3 -18.45 7.95 -18.3 7.6 M-14.3 7.6 L-13.95 7.45 Q-13.75 7.45 -13.6 7.6 L-13.45 7.95 -13.6 8.3 Q-13.75 8.45 -13.95 8.45 L-14.3 8.3 -14.45 7.95 -14.3 7.6 M-25.6 7.6 Q-25.45 7.75 -25.45 7.95 L-25.6 8.3 -25.95 8.45 -26.3 8.3 -26.45 7.95 -26.3 7.6 Q-26.15 7.45 -25.95 7.45 -25.75 7.45 -25.6 7.6 M-29.45 7.95 L-29.6 8.3 -29.95 8.45 -30.3 8.3 -30.45 7.95 -30.3 7.6 -29.95 7.45 Q-29.75 7.45 -29.6 7.6 L-29.45 7.95 M-22.3 7.6 Q-22.15 7.45 -21.95 7.45 -21.75 7.45 -21.6 7.6 -21.45 7.75 -21.45 7.95 L-21.6 8.3 -21.95 8.45 -22.3 8.3 -22.45 7.95 -22.3 7.6" fill="#55b6e1" fill-rule="evenodd" stroke="none"/>
  </g>
  <defs>
    <linearGradient gradientTransform="matrix(0.0016, -0.0109, 0.0498, 0.0018, -0.45, 5.75)" gradientUnits="userSpaceOnUse" id="gradient0" spreadMethod="pad" x1="-819.2" x2="819.2">
      <stop offset="0.0" stop-color="#093d72"/>
      <stop offset="1.0" stop-color="#55b6e1"/>
    </linearGradient>
  </defs>
</svg>
