<?xml version="1.0" encoding="UTF-8" standalone="no"?>
<svg xmlns:xlink="http://www.w3.org/1999/xlink" height="104.25px" width="192.6px" xmlns="http://www.w3.org/2000/svg">
  <g transform="matrix(1.0, 0.0, 0.0, 1.0, 96.3, 56.1)">
    <path d="M45.45 -33.05 L0.45 -10.55 45.45 -33.05 92.2 -9.65 47.2 12.85 6.5 33.2 6.45 33.2 -4.8 34.6 -43.1 15.45 -35.5 9.9 -47.2 13.25 -47.4 13.3 -93.4 -9.75 -0.6 -56.1 45.45 -33.05 M0.45 -10.55 L-47.2 13.25 0.45 -10.55 -45.3 -33.45 0.45 -10.55 47.2 12.85 0.45 -10.55" fill="#c0bfb8" fill-rule="evenodd" stroke="none"/>
    <path d="M-93.4 -9.75 L-47.4 13.3 -47.2 13.25 -47.35 13.3 -47.2 13.25 -35.5 9.9 -43.1 15.45 Q-44.55 16.4 -47.35 13.3 L-47.4 13.3 -45.1 20.4 -43.1 15.45 -4.8 34.6 -0.05 42.65 -0.2 42.9 0.05 48.15 -96.3 -0.05 -93.4 -9.75" fill="#a29e93" fill-rule="evenodd" stroke="none"/>
    <path d="M92.2 -9.65 L96.3 0.0 0.05 48.15 -0.2 42.9 -0.05 42.65 6.45 33.25 6.45 33.2 6.5 33.2 47.2 12.85 92.2 -9.65 M-43.1 15.45 L-45.1 20.4 -47.4 13.3 -47.35 13.3 Q-44.55 16.4 -43.1 15.45 M-47.4 13.3 L-47.35 13.3 -47.4 13.3 M47.5 13.0 L47.2 12.85 47.5 13.0" fill="#7e7b6d" fill-rule="evenodd" stroke="none"/>
    <path d="M-0.05 42.65 L-4.8 34.6 6.45 33.2 6.45 33.25 -0.05 42.65" fill="#b3afa6" fill-rule="evenodd" stroke="none"/>
    <path d="M-47.35 13.3 L-47.2 13.25 M-47.35 13.3 L-47.4 13.3" fill="none" stroke="#403e39" stroke-linecap="round" stroke-linejoin="round" stroke-width="0.05"/>
    <path d="M45.45 -33.05 L-0.6 -56.1 -93.4 -9.75 -96.3 -0.05 0.05 48.15 96.3 0.0 92.2 -9.65 45.45 -33.05 M47.2 12.85 L47.5 13.0 M6.5 33.2 L6.45 33.2" fill="none" stroke="#403e39" stroke-linecap="round" stroke-linejoin="round" stroke-width="0.05"/>
    <path d="M0.45 -10.55 L-45.3 -33.45 M0.45 -10.55 L47.2 12.85" fill="none" stroke="#848175" stroke-linecap="round" stroke-linejoin="round" stroke-width="0.05"/>
    <path d="M0.45 -10.55 L45.45 -33.05 M-47.2 13.25 L0.45 -10.55" fill="none" stroke="#848175" stroke-linecap="round" stroke-linejoin="round" stroke-width="0.05"/>
    <path d="M25.65 -0.15 Q16.35 4.65 2.4 4.7 -11.55 4.75 -22.0 0.0 -32.5 -4.8 -33.4 -11.55 -34.25 -18.35 -24.95 -23.15 -15.7 -28.0 -1.75 -28.0 12.2 -28.05 22.7 -23.25 33.15 -18.5 34.0 -11.75 34.85 -4.95 25.65 -0.15" fill="#bab8b1" fill-rule="evenodd" stroke="none"/>
    <path d="M25.65 -0.15 Q16.35 4.65 2.4 4.7 -11.55 4.75 -22.0 0.0 -32.5 -4.8 -33.4 -11.55 -34.25 -18.35 -24.95 -23.15 -15.7 -28.0 -1.75 -28.0 12.2 -28.05 22.7 -23.25 33.15 -18.5 34.0 -11.75 34.85 -4.95 25.65 -0.15 Z" fill="none" stroke="#848175" stroke-linecap="round" stroke-linejoin="round" stroke-width="0.05"/>
  </g>
</svg>
