<?xml version="1.0" encoding="UTF-8" standalone="no"?>
<svg xmlns:xlink="http://www.w3.org/1999/xlink" height="50.7px" width="32.35px" xmlns="http://www.w3.org/2000/svg">
  <g transform="matrix(1.0, 0.0, 0.0, 1.0, 16.15, 25.35)">
    <path d="M2.7 21.5 L1.9 21.5 Q-0.45 21.5 -2.45 20.2 -4.8 18.65 -6.7 15.4 -10.25 9.3 -10.25 0.65 -10.25 -8.05 -6.7 -14.15 -4.8 -17.45 -2.45 -18.95 -0.45 -20.25 1.9 -20.25 L2.4 -20.25 3.1 -20.15 Q4.45 -19.95 5.75 -19.25 8.35 -17.8 10.5 -14.15 L11.3 -12.65 Q12.9 -9.4 13.6 -5.5 L13.6 -5.45 Q14.75 0.55 13.5 7.3 L13.5 7.35 Q12.75 10.95 11.3 13.95 L10.5 15.4 Q8.45 18.95 5.9 20.45 4.55 21.2 3.1 21.45 L2.7 21.5 M-2.45 20.2 L-2.45 -18.95 -2.45 20.2 M5.9 20.45 L5.75 -19.25 5.9 20.45 M11.3 13.95 L11.3 -12.65 11.3 13.95" fill="#9f8577" fill-rule="evenodd" stroke="none"/>
    <path d="M1.3 25.3 L0.05 25.35 -1.55 25.25 Q-7.25 24.45 -11.4 17.9 -16.15 10.5 -16.15 0.0 -16.15 -10.5 -11.4 -17.95 -7.25 -24.45 -1.55 -25.25 L0.05 -25.35 1.7 -25.2 Q4.7 -23.2 2.4 -20.25 L1.9 -20.25 Q-0.45 -20.25 -2.45 -18.95 -4.8 -17.45 -6.7 -14.15 -10.25 -8.05 -10.25 0.65 -10.25 9.3 -6.7 15.4 -4.8 18.65 -2.45 20.2 -0.45 21.5 1.9 21.5 L2.7 21.5 Q3.2 24.55 1.3 25.3" fill="#cccccc" fill-rule="evenodd" stroke="none"/>
    <path d="M1.3 25.3 Q3.2 24.55 2.7 21.5 L3.1 21.45 Q4.55 21.2 5.9 20.45 8.45 18.95 10.5 15.4 L11.3 13.95 Q12.75 10.95 13.5 7.35 L13.5 7.3 Q14.75 0.55 13.6 -5.45 L13.6 -5.5 Q12.9 -9.4 11.3 -12.65 L10.5 -14.15 Q8.35 -17.8 5.75 -19.25 4.45 -19.95 3.1 -20.15 L2.4 -20.25 Q4.7 -23.2 1.7 -25.2 7.35 -24.4 11.45 -17.95 16.2 -10.5 16.2 0.0 16.2 10.5 11.45 17.9 7.2 24.65 1.3 25.3" fill="#afafaf" fill-rule="evenodd" stroke="none"/>
    <path d="M1.7 -25.2 L0.05 -25.35 -1.55 -25.25 Q-7.25 -24.45 -11.4 -17.95 -16.15 -10.5 -16.15 0.0 -16.15 10.5 -11.4 17.9 -7.25 24.45 -1.55 25.25 L0.05 25.35 1.3 25.3 Q7.2 24.65 11.45 17.9 16.2 10.5 16.2 0.0 16.2 -10.5 11.45 -17.95 7.35 -24.4 1.7 -25.2 M2.7 21.5 L1.9 21.5 Q-0.45 21.5 -2.45 20.2 -4.8 18.65 -6.7 15.4 -10.25 9.3 -10.25 0.65 -10.25 -8.05 -6.7 -14.15 -4.8 -17.45 -2.45 -18.95 -0.45 -20.25 1.9 -20.25 L2.4 -20.25 3.1 -20.15 Q4.45 -19.95 5.75 -19.25 8.35 -17.8 10.5 -14.15 L11.3 -12.65 Q12.9 -9.4 13.6 -5.5 M13.6 -5.45 Q14.75 0.55 13.5 7.3 M13.5 7.35 Q12.75 10.95 11.3 13.95 L10.5 15.4 Q8.45 18.95 5.9 20.45 4.55 21.2 3.1 21.45 L2.7 21.5" fill="none" stroke="#666666" stroke-linecap="round" stroke-linejoin="round" stroke-width="0.05"/>
    <path d="M11.3 -12.65 L11.3 13.95 M5.75 -19.25 L5.9 20.45 M-2.45 -18.95 L-2.45 20.2" fill="none" stroke="#604b44" stroke-linecap="round" stroke-linejoin="round" stroke-width="0.05"/>
  </g>
</svg>
