<?xml version="1.0" encoding="UTF-8" standalone="no"?>
<svg xmlns:xlink="http://www.w3.org/1999/xlink" height="8.8px" width="13.8px" xmlns="http://www.w3.org/2000/svg">
  <g transform="matrix(1.0, 0.0, 0.0, 1.0, 4.5, 3.0)">
    <path d="M8.55 -0.25 Q9.5 1.45 9.25 2.25 9.0 3.0 6.9 3.95 L6.0 4.1 5.95 4.1 -3.65 5.8 Q-5.25 2.6 -2.4 1.8 L1.75 0.9 Q3.05 2.2 3.75 2.5 L5.4 2.95 5.7 3.05 5.75 3.05 6.7 3.05 Q9.35 2.5 8.55 -0.25" fill="#61463d" fill-rule="evenodd" stroke="none"/>
    <path d="M-3.65 5.8 Q-5.35 2.85 -3.7 0.45 L0.25 0.3 Q2.55 -0.5 2.95 -1.8 3.0 -2.2 2.3 -2.4 L-0.25 -1.95 0.8 -2.45 4.35 -3.0 6.0 -2.65 Q8.15 -1.4 8.55 -0.25 9.35 2.5 6.7 3.05 L5.75 3.05 5.7 3.05 5.4 2.95 3.75 2.5 Q3.05 2.2 1.75 0.9 L-2.4 1.8 Q-5.25 2.6 -3.65 5.8" fill="#956c5e" fill-rule="evenodd" stroke="none"/>
    <path d="M-3.7 0.45 L-2.65 -0.75 -0.25 -1.95 2.3 -2.4 Q3.0 -2.2 2.95 -1.8 2.55 -0.5 0.25 0.3 L-3.7 0.45" fill="#000000" fill-rule="evenodd" stroke="none"/>
    <path d="M8.55 -0.25 Q9.5 1.45 9.25 2.25 9.0 3.0 6.9 3.95 L6.0 4.1 M5.95 4.1 L-3.65 5.8 Q-5.35 2.85 -3.7 0.45 L-2.65 -0.75 -0.25 -1.95 0.8 -2.45 4.35 -3.0 6.0 -2.65 Q8.15 -1.4 8.55 -0.25 9.35 2.5 6.7 3.05 L5.75 3.05 5.7 3.05 5.4 2.95 3.75 2.5 Q3.05 2.2 1.75 0.9 L-2.4 1.8 Q-5.25 2.6 -3.65 5.8" fill="none" stroke="#3f2c27" stroke-linecap="round" stroke-linejoin="round" stroke-width="0.05"/>
  </g>
</svg>
