<?xml version="1.0" encoding="UTF-8" standalone="no"?>
<svg xmlns:xlink="http://www.w3.org/1999/xlink" height="13.1px" width="13.4px" xmlns="http://www.w3.org/2000/svg">
  <g transform="matrix(1.0, 0.0, 0.0, 1.0, 8.0, 8.0)">
    <path d="M0.75 -5.35 L-0.8 -6.0 Q-3.9 -6.95 -6.8 -6.55 L-5.9 -7.05 Q-3.95 -8.0 -1.15 -8.0 1.6 -8.0 3.5 -7.05 4.85 -6.4 5.2 -5.5 L5.2 -5.4 5.25 -5.35 0.75 -5.35 5.25 -5.35 5.25 -5.1 5.3 -4.0 5.2 -3.05 5.2 -2.85 5.15 -2.35 5.3 -1.25 Q5.5 -0.5 5.3 0.05 L4.7 2.9 4.35 4.0 3.15 2.85 2.9 2.4 Q2.25 2.95 1.75 2.15 1.2 1.25 1.2 0.35 L1.2 -0.05 Q1.25 -0.7 1.55 -1.1 L1.95 -1.55 1.95 -2.35 1.8 -3.1 0.95 -5.1 0.75 -5.35 M3.3 -1.2 Q3.0 -1.7 2.45 -1.7 L1.95 -1.55 2.45 -1.7 Q3.0 -1.7 3.3 -1.2 M2.0 0.6 L1.95 -0.05 2.15 -0.75 2.55 -1.05 2.15 -0.75 2.8 -0.2 3.0 0.75 2.9 1.6 3.0 0.75 2.8 -0.2 2.15 -0.75 1.95 -0.05 2.0 0.6 M2.0 1.7 L2.5 1.8 Q2.1 1.3 3.0 0.75 2.1 1.3 2.5 1.8 L2.0 1.7" fill="#ffdfc8" fill-rule="evenodd" stroke="none"/>
    <path d="M-6.8 -6.55 Q-3.9 -6.95 -0.8 -6.0 L0.75 -5.35 -7.85 -5.35 -7.8 -5.5 -6.8 -6.55 M0.75 -5.35 L0.95 -5.1 1.8 -3.1 1.95 -2.35 1.95 -1.55 1.55 -1.1 Q1.25 -0.7 1.2 -0.05 L1.2 0.35 Q1.2 1.25 1.75 2.15 2.25 2.95 2.9 2.4 L3.15 2.85 4.35 4.0 Q4.15 5.0 3.65 5.1 L2.25 5.05 2.15 4.15 2.15 4.05 1.85 3.95 1.2 3.8 0.45 3.7 0.35 3.7 0.2 3.7 0.1 3.7 Q-7.75 3.9 -8.0 -4.0 L-8.0 -4.45 -7.9 -5.1 -7.85 -5.35 0.75 -5.35" fill="#ffd0ae" fill-rule="evenodd" stroke="none"/>
    <path d="M5.25 -5.35 L5.2 -5.4 5.2 -5.5 Q4.85 -6.4 3.5 -7.05 1.6 -8.0 -1.15 -8.0 -3.95 -8.0 -5.9 -7.05 L-6.8 -6.55 -7.8 -5.5 -7.85 -5.35 -7.9 -5.1 -8.0 -4.45 -8.0 -4.0 Q-7.75 3.9 0.1 3.7 M1.95 -1.55 L2.45 -1.7 Q3.0 -1.7 3.3 -1.2 M5.25 -5.35 L5.25 -5.1 5.3 -4.0 5.2 -3.05 5.2 -2.85 5.15 -2.35 5.3 -1.25 Q5.5 -0.5 5.3 0.05 L4.7 2.9 4.35 4.0 Q4.15 5.0 3.65 5.1 L2.25 5.05 2.15 4.15 2.15 4.05 M1.95 -1.55 L1.55 -1.1 Q1.25 -0.7 1.2 -0.05 L1.2 0.35 Q1.2 1.25 1.75 2.15 2.25 2.95 2.9 2.4 M2.55 -1.05 L2.15 -0.75 2.8 -0.2 3.0 0.75 2.9 1.6 M3.0 0.75 Q2.1 1.3 2.5 1.8 L2.0 1.7 M2.15 -0.75 L1.95 -0.05 2.0 0.6" fill="none" stroke="#d7995e" stroke-linecap="round" stroke-linejoin="round" stroke-width="0.05"/>
  </g>
</svg>
