<?xml version="1.0" encoding="UTF-8" standalone="no"?>
<svg xmlns:xlink="http://www.w3.org/1999/xlink" height="17.8px" width="19.15px" xmlns="http://www.w3.org/2000/svg">
  <g transform="matrix(1.0, 0.0, 0.0, 1.0, 5.95, 8.95)">
    <path d="M-3.3 -1.05 Q-1.85 -1.35 -1.6 0.45 -2.4 -0.9 -3.3 -1.05" fill="#a67b71" fill-rule="evenodd" stroke="none"/>
    <path d="M-3.3 -1.05 Q-1.85 -1.35 -1.6 0.45 -2.4 -0.9 -3.3 -1.05 Z" fill="none" stroke="#6f4a46" stroke-linecap="round" stroke-linejoin="round" stroke-width="0.05"/>
    <path d="M-1.5 1.25 L-1.5 1.1 Q-1.4 -0.45 -0.6 -2.25 -1.4 -0.7 -2.85 -0.9 L-2.85 -2.7 Q-3.5 -1.0 -5.95 -2.35 -4.9 -2.85 -3.35 -5.65 -1.8 -8.5 0.65 -8.85 3.05 -9.2 4.8 -7.95 10.1 -9.4 10.0 -1.6 9.35 0.65 6.0 1.4 2.6 2.1 1.15 2.6 1.1 1.4 0.4 0.65 -0.7 0.15 -1.0 1.6 L-1.5 1.25" fill="#a67b71" fill-rule="evenodd" stroke="none"/>
    <path d="M10.0 -1.6 L10.0 -1.55 Q10.15 -0.8 11.15 0.15 L10.35 0.45 Q10.5 1.05 11.6 1.6 L13.2 2.15 11.6 2.6 10.45 2.6 Q11.35 5.15 10.5 5.8 9.6 6.45 10.3 6.6 L9.3 6.9 8.9 6.3 9.3 6.9 6.5 6.85 Q6.4 8.5 5.8 8.85 5.1 7.25 3.5 7.25 2.05 8.05 -0.15 7.25 0.7 6.9 0.6 6.35 -0.4 5.2 0.25 4.25 L0.95 3.1 1.15 2.6 Q2.6 2.1 6.0 1.4 9.35 0.65 10.0 -1.6 M-1.0 1.6 L-1.1 3.5 Q-1.5 2.45 -1.5 1.25 L-1.0 1.6" fill="#845755" fill-rule="evenodd" stroke="none"/>
    <path d="M-1.5 1.25 L-1.5 1.1 Q-1.4 -0.45 -0.6 -2.25 -1.4 -0.7 -2.85 -0.9 L-2.85 -2.7 Q-3.5 -1.0 -5.95 -2.35 -4.9 -2.85 -3.35 -5.65 -1.8 -8.5 0.65 -8.85 3.05 -9.2 4.8 -7.95 10.1 -9.4 10.0 -1.6 L10.0 -1.55 Q10.15 -0.8 11.15 0.15 L10.35 0.45 Q10.5 1.05 11.6 1.6 L13.2 2.15 11.6 2.6 10.45 2.6 Q11.35 5.15 10.5 5.8 9.6 6.45 10.3 6.6 L9.3 6.9 6.5 6.85 Q6.4 8.5 5.8 8.85 5.1 7.25 3.5 7.25 2.05 8.05 -0.15 7.25 0.7 6.9 0.6 6.35 -0.4 5.2 0.25 4.25 L0.95 3.1 1.15 2.6 Q1.1 1.4 0.4 0.65 -0.7 0.15 -1.0 1.6 L-1.1 3.5 Q-1.5 2.45 -1.5 1.25 Z" fill="none" stroke="#6f4a46" stroke-linecap="round" stroke-linejoin="round" stroke-width="0.05"/>
  </g>
</svg>
