<?xml version="1.0" encoding="UTF-8" standalone="no"?>
<svg xmlns:xlink="http://www.w3.org/1999/xlink" height="33.4px" width="64.9px" xmlns="http://www.w3.org/2000/svg">
  <g transform="matrix(1.0, 0.0, 0.0, 1.0, 32.45, 16.7)">
    <path d="M32.45 -0.25 Q32.25 6.65 22.6 11.65 12.95 16.6 -0.45 16.7 -13.9 16.8 -23.25 12.0 -28.1 9.5 -30.4 6.45 L-30.9 5.75 Q-32.55 3.15 -32.45 0.25 -32.25 -6.65 -22.6 -11.6 -12.95 -16.6 0.5 -16.7 13.9 -16.8 23.3 -11.95 32.65 -7.15 32.45 -0.25 M22.9 -1.35 Q23.05 -6.3 16.35 -9.75 9.6 -13.2 0.0 -13.1 -9.6 -13.05 -16.55 -9.5 -23.45 -5.95 -23.6 -0.95 -23.65 1.1 -22.5 2.95 L-22.1 3.45 Q-20.5 5.65 -17.0 7.45 -10.3 10.9 -0.65 10.8 8.95 10.75 15.85 7.2 22.75 3.6 22.9 -1.35" fill="url(#gradient0)" fill-rule="evenodd" stroke="none"/>
  </g>
  <defs>
    <radialGradient cx="0" cy="0" gradientTransform="matrix(0.0393, 0.0, 0.0, 0.0198, 0.1, -0.7)" gradientUnits="userSpaceOnUse" id="gradient0" r="819.2" spreadMethod="pad">
      <stop offset="0.0" stop-color="#f48c40"/>
      <stop offset="0.8392156862745098" stop-color="#ffffff"/>
      <stop offset="0.9725490196078431" stop-color="#febc7a" stop-opacity="0.0"/>
    </radialGradient>
  </defs>
</svg>
