<?xml version="1.0" encoding="UTF-8" standalone="no"?>
<svg xmlns:xlink="http://www.w3.org/1999/xlink" height="7.55px" width="13.05px" xmlns="http://www.w3.org/2000/svg">
  <g transform="matrix(1.0, 0.0, 0.0, 1.0, 6.0, 2.55)">
    <path d="M3.25 3.5 Q4.4 1.45 3.25 -0.1 L2.55 -0.85 Q1.35 -1.9 -0.05 -1.8 L1.75 -2.55 2.35 -2.35 2.35 -2.3 4.85 -1.65 4.9 -1.65 6.05 -0.7 Q7.85 1.3 6.4 4.55 L3.25 4.55 3.25 3.5 M1.75 -0.3 Q3.05 1.15 2.65 3.65 L2.55 3.65 -4.85 5.0 Q-5.6 5.0 -5.85 4.4 L1.75 -0.3" fill="#00002c" fill-rule="evenodd" stroke="none"/>
    <path d="M-0.05 -1.8 Q1.35 -1.9 2.55 -0.85 L3.25 -0.1 Q4.4 1.45 3.25 3.5 L2.65 3.65 Q3.05 1.15 1.75 -0.3 0.95 -1.15 -0.5 -1.6 0.95 -1.15 1.75 -0.3 L-5.85 4.4 -5.95 3.25 Q-4.1 1.05 -0.5 -1.6 L-0.05 -1.8" fill="#4581a6" fill-rule="evenodd" stroke="none"/>
    <path d="M-0.05 -1.8 Q1.35 -1.9 2.55 -0.85 L3.25 -0.1 Q4.4 1.45 3.25 3.5 L3.25 4.55 6.4 4.55 Q7.85 1.3 6.05 -0.7 L4.9 -1.65 4.85 -1.65 2.35 -2.3 M2.35 -2.35 L1.75 -2.55 -0.05 -1.8 -0.5 -1.6 Q0.95 -1.15 1.75 -0.3 3.05 1.15 2.65 3.65 L3.25 3.5 M2.65 3.65 L2.55 3.65 -4.85 5.0 Q-5.6 5.0 -5.85 4.4 L-5.95 3.25 Q-4.1 1.05 -0.5 -1.6" fill="none" stroke="#1d3643" stroke-linecap="round" stroke-linejoin="round" stroke-width="0.05"/>
  </g>
</svg>
