<?xml version="1.0" encoding="UTF-8" standalone="no"?>
<svg xmlns:xlink="http://www.w3.org/1999/xlink" height="10.25px" width="9.4px" xmlns="http://www.w3.org/2000/svg">
  <g transform="matrix(1.0, 0.0, 0.0, 1.0, 6.5, 4.8)">
    <path d="M-6.05 1.25 Q-7.1 -2.3 -5.65 -3.3 L-5.4 -3.6 -3.3 -4.55 -2.2 -4.7 -1.8 -4.75 -0.95 -4.75 -0.9 -4.75 2.2 -1.85 2.75 -0.85 Q0.05 -2.85 -2.1 -2.45 -3.1 -2.25 -4.0 -1.5 -5.15 -0.6 -6.05 1.25 M2.3 4.1 L1.0 5.45 -1.8 5.05 Q-2.65 1.85 -1.0 1.35 1.15 1.5 2.3 4.1" fill="#4581a6" fill-rule="evenodd" stroke="none"/>
    <path d="M2.75 -0.85 Q3.2 2.4 2.3 4.1 1.15 1.5 -1.0 1.35 -2.65 1.85 -1.8 5.05 -4.4 4.15 -6.05 1.25 -5.15 -0.6 -4.0 -1.5 -3.1 -2.25 -2.1 -2.45 0.05 -2.85 2.75 -0.85" fill="#00002a" fill-rule="evenodd" stroke="none"/>
    <path d="M-6.05 1.25 Q-7.1 -2.3 -5.65 -3.3 L-5.4 -3.6 -3.3 -4.55 -2.2 -4.7 -1.8 -4.75 -0.95 -4.75 -0.9 -4.75 2.2 -1.85 2.75 -0.85 Q3.2 2.4 2.3 4.1 L1.0 5.45 -1.8 5.05 Q-4.4 4.15 -6.05 1.25 -5.15 -0.6 -4.0 -1.5 -3.1 -2.25 -2.1 -2.45 0.05 -2.85 2.75 -0.85" fill="none" stroke="#1d3643" stroke-linecap="round" stroke-linejoin="round" stroke-width="0.05"/>
  </g>
</svg>
