<?xml version="1.0" encoding="UTF-8" standalone="no"?>
<svg xmlns:xlink="http://www.w3.org/1999/xlink" height="63.8px" width="16.15px" xmlns="http://www.w3.org/2000/svg">
  <g transform="matrix(1.0, 0.0, 0.0, 1.0, 8.25, 51.2)">
    <path d="M1.35 8.2 Q1.5 9.0 2.45 10.05 L-0.15 10.25 -0.15 8.4 1.35 8.2 M2.2 11.05 L1.7 11.8 Q0.95 12.55 -0.1 12.6 L-0.15 12.6 -0.15 11.35 2.2 11.05" fill="#574d4d" fill-rule="evenodd" stroke="none"/>
    <path d="M1.25 -4.15 L1.3 7.7 1.35 8.2 -0.15 8.4 -0.15 -4.15 1.25 -4.15" fill="#00002a" fill-rule="evenodd" stroke="none"/>
    <path d="M-1.7 8.2 L-1.6 7.7 -1.6 -4.15 -1.35 -4.15 -0.2 -4.15 -0.15 -4.15 -0.15 8.4 -0.2 8.4 -1.7 8.2" fill="#437ea6" fill-rule="evenodd" stroke="none"/>
    <path d="M-1.6 -4.15 L-6.0 -4.15 -5.9 -4.1 -5.6 -3.4 Q-5.6 -3.0 -5.9 -2.7 L-6.7 -2.4 -6.8 -2.4 Q-7.4 -2.45 -7.8 -2.85 -8.25 -3.2 -8.25 -3.75 L-7.8 -4.75 -6.75 -5.05 -2.4 -5.05 -1.35 -5.05 -1.35 -4.15 -1.6 -4.15 M-7.3 -4.1 L-6.6 -4.4 -6.0 -4.15 -6.6 -4.4 -7.3 -4.1" fill="#8a9836" fill-rule="evenodd" stroke="none"/>
    <path d="M-2.4 -5.05 L-2.4 -6.3 -1.6 -6.3 Q-1.85 -8.8 -2.4 -9.45 -3.0 -10.1 -2.75 -12.9 -1.8 -13.45 -1.6 -14.8 L-1.6 -35.7 -1.6 -38.0 -1.6 -45.45 -0.15 -51.2 -0.15 -42.65 -1.6 -45.45 -0.15 -42.65 -0.15 -13.15 -0.2 -13.15 -0.8 -12.65 -0.9 -12.45 -1.25 -10.7 Q-1.25 -9.65 -0.9 -8.9 -0.6 -8.25 -0.2 -8.15 L-0.15 -8.15 -0.15 -5.6 -0.5 -6.15 -0.15 -5.6 -0.15 -5.05 -1.35 -5.05 -2.4 -5.05 M-0.25 -36.9 L-1.6 -35.7 -0.25 -36.9 -0.2 -39.3 -1.6 -38.0 -0.2 -39.3 -0.25 -36.9 -0.8 -12.65 -0.25 -36.9 M-0.5 -6.15 L-0.5 -7.65 Q-2.0 -8.85 -1.45 -12.0 L-2.05 -13.1 -2.5 -12.15 -1.8 -11.7 Q-2.1 -8.55 -0.85 -7.6 L-0.85 -6.35 -0.65 -6.35 -0.5 -6.15 M-1.6 -6.3 L-0.85 -6.35 -1.6 -6.3" fill="#ced7f4" fill-rule="evenodd" stroke="none"/>
    <path d="M-0.15 -8.35 L-0.2 -8.35 -0.4 -8.55 -0.6 -8.85 Q-0.95 -9.5 -0.95 -10.4 L-0.6 -11.85 -0.5 -12.0 -0.4 -12.15 -0.2 -12.3 -0.15 -12.3 -0.15 -12.35 -0.15 -12.3 0.05 -12.15 0.15 -12.0 0.25 -11.85 Q0.6 -11.25 0.6 -10.4 0.6 -9.5 0.25 -8.85 L0.05 -8.55 -0.15 -8.4 -0.15 -8.35" fill="#ff244c" fill-rule="evenodd" stroke="none"/>
    <path d="M-0.15 -13.15 Q0.2 -13.1 0.45 -12.65 L0.55 -12.45 Q0.9 -11.7 0.9 -10.7 0.9 -9.65 0.55 -8.9 0.25 -8.25 -0.15 -8.15 L-0.2 -8.15 Q-0.6 -8.25 -0.9 -8.9 -1.25 -9.65 -1.25 -10.7 L-0.9 -12.45 -0.8 -12.65 -0.2 -13.15 -0.15 -13.15 M-0.15 -8.35 L-0.15 -8.4 0.05 -8.55 0.25 -8.85 Q0.6 -9.5 0.6 -10.4 0.6 -11.25 0.25 -11.85 L0.15 -12.0 0.05 -12.15 -0.15 -12.3 -0.15 -12.35 -0.15 -12.3 -0.2 -12.3 -0.4 -12.15 -0.5 -12.0 -0.6 -11.85 -0.95 -10.4 Q-0.95 -9.5 -0.6 -8.85 L-0.4 -8.55 -0.2 -8.35 -0.15 -8.35" fill="#540000" fill-rule="evenodd" stroke="none"/>
    <path d="M0.2 -6.15 L0.15 -7.65 Q1.65 -8.85 1.1 -12.0 L1.7 -13.1 2.15 -12.15 1.45 -11.7 Q1.75 -8.55 0.5 -7.6 L0.5 -6.35 0.3 -6.35 0.2 -6.15 M-0.85 -6.35 L-0.85 -7.6 Q-2.1 -8.55 -1.8 -11.7 L-2.5 -12.15 -2.05 -13.1 -1.45 -12.0 Q-2.0 -8.85 -0.5 -7.65 L-0.5 -6.15 -0.65 -6.35 -0.85 -6.35 M-1.35 -5.05 L-0.15 -5.05 -0.15 -4.15 -0.2 -4.15 -1.35 -4.15 -1.35 -5.05" fill="#d2d544" fill-rule="evenodd" stroke="none"/>
    <path d="M2.05 -5.05 L6.4 -5.05 7.5 -4.75 Q7.9 -4.35 7.9 -3.75 7.9 -3.2 7.5 -2.85 7.05 -2.45 6.45 -2.4 L6.35 -2.4 Q5.9 -2.45 5.55 -2.7 5.25 -3.0 5.25 -3.4 5.25 -3.8 5.55 -4.1 L5.65 -4.15 1.25 -4.15 -0.15 -4.15 -0.15 -5.05 2.05 -5.05 M7.0 -4.1 L6.25 -4.4 5.65 -4.15 6.25 -4.4 7.0 -4.1" fill="#5e6c14" fill-rule="evenodd" stroke="none"/>
    <path d="M-0.15 12.6 L-0.2 12.6 Q-1.3 12.55 -2.0 11.8 L-2.55 11.05 -0.2 11.35 -0.15 11.35 -0.15 12.6 M-2.8 10.05 Q-1.85 9.0 -1.7 8.2 L-0.2 8.4 -0.15 8.4 -0.15 10.25 -0.2 10.25 -2.8 10.05" fill="#8b9938" fill-rule="evenodd" stroke="none"/>
    <path d="M2.45 10.05 Q2.8 10.75 2.2 11.05 L-0.15 11.35 -0.2 11.35 -2.55 11.05 Q-3.15 10.75 -2.8 10.05 L-0.2 10.25 -0.15 10.25 2.45 10.05" fill="#403939" fill-rule="evenodd" stroke="none"/>
    <path d="M1.25 -38.0 L1.25 -35.7 -0.05 -36.9 -0.1 -39.3 1.25 -38.0 -0.1 -39.3 -0.05 -36.9 1.25 -35.7 1.25 -14.8 Q1.45 -13.45 2.4 -12.9 2.65 -10.1 2.1 -9.45 1.5 -8.8 1.3 -6.3 L2.05 -6.3 2.05 -5.05 -0.15 -5.05 -0.15 -5.6 -0.15 -8.15 Q0.25 -8.25 0.55 -8.9 0.9 -9.65 0.9 -10.7 0.9 -11.7 0.55 -12.45 L0.45 -12.65 Q0.2 -13.1 -0.15 -13.15 L-0.15 -42.65 -0.15 -51.2 Q0.75 -48.3 1.25 -45.45 L1.25 -38.0 M0.2 -6.15 L-0.15 -5.6 0.2 -6.15 0.3 -6.35 0.5 -6.35 0.5 -7.6 Q1.75 -8.55 1.45 -11.7 L2.15 -12.15 1.7 -13.1 1.1 -12.0 Q1.65 -8.85 0.15 -7.65 L0.2 -6.15 M1.3 -6.3 L0.5 -6.35 1.3 -6.3 M1.25 -45.45 L-0.15 -42.65 1.25 -45.45 M-0.05 -36.9 L0.45 -12.65 -0.05 -36.9" fill="#8ea2bd" fill-rule="evenodd" stroke="none"/>
    <path d="M1.3 -6.3 L2.05 -6.3 2.05 -5.05 6.4 -5.05 7.5 -4.75 Q7.9 -4.35 7.9 -3.75 7.9 -3.2 7.5 -2.85 7.05 -2.45 6.45 -2.4 L6.35 -2.4 Q5.9 -2.45 5.55 -2.7 5.25 -3.0 5.25 -3.4 5.25 -3.8 5.55 -4.1 L5.65 -4.15 1.25 -4.15 1.3 7.7 1.35 8.2 Q1.5 9.0 2.45 10.05 2.8 10.75 2.2 11.05 L1.7 11.8 Q0.95 12.55 -0.1 12.6 L-0.15 12.6 -0.2 12.6 Q-1.3 12.55 -2.0 11.8 L-2.55 11.05 Q-3.15 10.75 -2.8 10.05 -1.85 9.0 -1.7 8.2 L-1.6 7.7 -1.6 -4.15 -6.0 -4.15 -5.9 -4.1 -5.6 -3.4 Q-5.6 -3.0 -5.9 -2.7 L-6.7 -2.4 -6.8 -2.4 Q-7.4 -2.45 -7.8 -2.85 -8.25 -3.2 -8.25 -3.75 L-7.8 -4.75 -6.75 -5.05 -2.4 -5.05 -2.4 -6.3 -1.6 -6.3 -0.85 -6.35 -0.65 -6.35 -0.5 -6.15 -0.15 -5.6 0.2 -6.15 0.3 -6.35 0.5 -6.35 1.3 -6.3 M5.65 -4.15 L6.25 -4.4 7.0 -4.1 M-0.15 -5.05 L2.05 -5.05 M-6.0 -4.15 L-6.6 -4.4 -7.3 -4.1 M-2.4 -5.05 L-1.35 -5.05 -0.15 -5.05 M-0.15 -4.15 L1.25 -4.15 M-1.6 -4.15 L-1.35 -4.15 -0.2 -4.15 M-0.2 8.4 L-1.7 8.2 M-2.8 10.05 L-0.2 10.25 -0.15 10.25 -0.15 8.4 1.35 8.2 M-0.15 11.35 L-0.2 11.35 -2.55 11.05 M-0.15 11.35 L-0.15 12.6 M-0.15 10.25 L2.45 10.05 M2.2 11.05 L-0.15 11.35" fill="none" stroke="#18313d" stroke-linecap="round" stroke-linejoin="round" stroke-width="0.05"/>
    <path d="M1.25 -38.0 L-0.1 -39.3 -0.05 -36.9 1.25 -35.7 M-0.15 -8.15 L-0.15 -5.6 M-1.6 -38.0 L-0.2 -39.3 -0.25 -36.9 -0.8 -12.65 M-1.6 -35.7 L-0.25 -36.9 M-1.6 -45.45 L-0.15 -42.65 -0.15 -51.2 M-0.15 -13.15 L-0.15 -42.65 1.25 -45.45 M0.45 -12.65 L-0.05 -36.9" fill="none" stroke="#afc2ed" stroke-linecap="round" stroke-linejoin="round" stroke-width="0.05"/>
    <path d="M1.25 -35.7 L1.25 -38.0 1.25 -45.45 Q0.75 -48.3 -0.15 -51.2 L-1.6 -45.45 -1.6 -38.0 -1.6 -35.7 -1.6 -14.8 Q-1.8 -13.45 -2.75 -12.9 -3.0 -10.1 -2.4 -9.45 -1.85 -8.8 -1.6 -6.3 M1.25 -35.7 L1.25 -14.8 Q1.45 -13.45 2.4 -12.9 2.65 -10.1 2.1 -9.45 1.5 -8.8 1.3 -6.3 Z" fill="none" stroke="#1c397b" stroke-linecap="round" stroke-linejoin="round" stroke-width="0.05"/>
  </g>
</svg>
