<?xml version="1.0" encoding="UTF-8" standalone="no"?>
<svg xmlns:xlink="http://www.w3.org/1999/xlink" height="15.35px" width="7.4px" xmlns="http://www.w3.org/2000/svg">
  <g transform="matrix(1.0, 0.0, 0.0, 1.0, 2.65, 0.75)">
    <path d="M3.15 3.1 L3.2 3.45 Q3.3 6.95 2.7 9.85 1.35 11.15 -2.05 11.1 -2.7 5.9 -2.65 2.65 L-2.6 1.65 Q-2.5 0.7 -2.0 0.05 -1.05 -1.25 1.4 -0.4 L3.0 1.8 3.1 3.1 3.15 3.1" fill="#eff3f4" fill-rule="evenodd" stroke="none"/>
    <path d="M4.05 11.0 Q4.7 11.5 4.75 12.25 4.75 13.2 3.8 13.85 2.95 14.4 1.8 14.55 L1.7 11.9 2.5 11.75 3.55 11.3 4.05 11.0" fill="#00002b" fill-rule="evenodd" stroke="none"/>
    <path d="M1.8 14.55 L1.25 14.6 0.45 14.55 0.45 14.4 0.7 11.95 0.95 11.95 1.7 11.9 1.8 14.55" fill="#8bcdef" fill-rule="evenodd" stroke="none"/>
    <path d="M0.45 14.55 L-1.4 14.0 Q-2.5 13.4 -2.55 12.5 -2.55 11.85 -2.05 11.3 L-1.7 11.45 -0.6 11.8 0.7 11.95 0.45 14.4 0.45 14.55" fill="#447fa7" fill-rule="evenodd" stroke="none"/>
    <path d="M-2.05 11.1 Q1.35 11.15 2.7 9.85 3.3 6.95 3.2 3.45 L4.05 11.0 3.55 11.3 2.5 11.75 1.7 11.9 0.95 11.95 0.7 11.95 -0.6 11.8 -1.7 11.45 -2.05 11.3 -2.05 11.1" fill="#95a5a5" fill-rule="evenodd" stroke="none"/>
    <path d="M3.2 3.45 L3.15 3.1 3.0 1.8 1.4 -0.4 Q-1.05 -1.25 -2.0 0.05 -2.5 0.7 -2.6 1.65 L-2.65 2.65 Q-2.7 5.9 -2.05 11.1 L-2.05 11.3 Q-2.55 11.85 -2.55 12.5 -2.5 13.4 -1.4 14.0 L0.45 14.55 1.25 14.6 1.8 14.55 Q2.95 14.4 3.8 13.85 4.75 13.2 4.75 12.25 4.7 11.5 4.05 11.0 L3.55 11.3 2.5 11.75 1.7 11.9 0.95 11.95 0.7 11.95 -0.6 11.8 -1.7 11.45 -2.05 11.3 M3.2 3.45 L4.05 11.0" fill="none" stroke="#234556" stroke-linecap="round" stroke-linejoin="round" stroke-width="0.05"/>
  </g>
</svg>
