<?xml version="1.0" encoding="UTF-8" standalone="no"?>
<svg xmlns:xlink="http://www.w3.org/1999/xlink" height="15.25px" width="7.25px" xmlns="http://www.w3.org/2000/svg">
  <g transform="matrix(1.0, 0.0, 0.0, 1.0, 4.7, 3.4)">
    <path d="M1.5 -0.65 L1.4 -0.7 -0.4 -1.25 -1.25 -1.25 -1.8 -1.2 Q-2.95 -1.1 -3.75 -0.55 L-4.1 -0.25 -4.2 -1.35 Q-2.6 -4.1 0.8 -3.15 L1.5 -0.65" fill="#79c19d" fill-rule="evenodd" stroke="none"/>
    <path d="M-3.75 3.7 L0.35 3.5 0.6 3.55 Q1.7 5.5 1.9 8.2 L1.5 11.4 -2.85 11.75 -3.75 3.7" fill="#eff3f4" fill-rule="evenodd" stroke="none"/>
    <path d="M-0.65 1.4 Q0.7 1.35 1.75 1.85 L1.9 1.95 2.05 4.6 1.9 8.2 Q1.7 5.5 0.6 3.55 L0.35 3.5 -3.75 3.7 -3.9 2.25 -3.55 2.0 Q-2.75 1.55 -1.65 1.4 L-0.95 1.35 -0.65 1.4" fill="#95a5a5" fill-rule="evenodd" stroke="none"/>
    <path d="M-4.1 -0.25 L-3.75 -0.55 Q-2.95 -1.1 -1.8 -1.2 L-1.65 1.4 Q-2.75 1.55 -3.55 2.0 L-3.9 2.25 -4.05 2.35 Q-4.7 1.8 -4.7 1.05 -4.75 0.3 -4.1 -0.25" fill="#00002b" fill-rule="evenodd" stroke="none"/>
    <path d="M-1.8 -1.2 L-1.25 -1.25 -0.4 -1.25 -0.65 1.4 -0.95 1.35 -1.65 1.4 -1.8 -1.2" fill="#8bcdef" fill-rule="evenodd" stroke="none"/>
    <path d="M-0.4 -1.25 L1.4 -0.7 1.5 -0.65 Q2.5 -0.1 2.55 0.85 2.6 1.45 2.1 2.0 L2.05 2.0 1.9 1.95 1.75 1.85 Q0.7 1.35 -0.65 1.4 L-0.4 -1.25" fill="#447fa7" fill-rule="evenodd" stroke="none"/>
    <path d="M1.5 -0.65 L0.8 -3.15 M-4.2 -1.35 L-4.1 -0.25 M1.9 8.2 L2.05 4.6 1.9 1.95 M1.9 8.2 L1.5 11.4 M-2.85 11.75 L-3.75 3.7 -3.9 2.25" fill="none" stroke="#224a35" stroke-linecap="round" stroke-linejoin="round" stroke-width="0.05"/>
    <path d="M-0.4 -1.25 L1.4 -0.7 1.5 -0.65 Q2.5 -0.1 2.55 0.85 2.6 1.45 2.1 2.0 L2.05 2.0 1.9 1.95 1.75 1.85 Q0.7 1.35 -0.65 1.4 L-0.95 1.35 -1.65 1.4 Q-2.75 1.55 -3.55 2.0 L-3.9 2.25 -4.05 2.35 Q-4.7 1.8 -4.7 1.05 -4.75 0.3 -4.1 -0.25 L-3.75 -0.55 Q-2.95 -1.1 -1.8 -1.2 L-1.25 -1.25 -0.4 -1.25" fill="none" stroke="#234556" stroke-linecap="round" stroke-linejoin="round" stroke-width="0.05"/>
  </g>
</svg>
