<?xml version="1.0" encoding="UTF-8" standalone="no"?>
<svg xmlns:xlink="http://www.w3.org/1999/xlink" height="24.1px" width="10.9px" xmlns="http://www.w3.org/2000/svg">
  <g transform="matrix(1.0, 0.0, 0.0, 1.0, 8.15, 2.15)">
    <path d="M-6.4 1.2 L-6.2 0.3 Q-5.85 -0.8 -5.3 -1.5 L-4.0 -1.75 Q-1.9 -2.1 -0.3 -1.25 L0.1 0.55 Q0.45 2.2 0.8 8.9 L0.9 11.75 0.9 11.85 0.6 11.85 Q-2.9 11.6 -4.8 10.5 L-5.1 10.35 -5.7 9.85 -6.4 1.2" fill="#8ba395" fill-rule="evenodd" stroke="none"/>
    <path d="M0.9 11.85 L0.9 11.9 1.2 16.85 Q0.85 19.7 0.1 21.5 L-4.4 21.75 Q-6.0 21.35 -7.05 20.2 -7.65 18.95 -8.15 15.85 L-7.25 10.25 Q-6.95 8.45 -6.75 4.0 L-6.4 1.2 -5.7 9.85 -5.1 10.35 -4.8 10.5 Q-2.9 11.6 0.6 11.85 L0.9 11.85" fill="#becbc4" fill-rule="evenodd" stroke="none"/>
    <path d="M-6.4 1.2 L-6.2 0.3 Q-5.85 -0.8 -5.3 -1.5 L-4.0 -1.75 Q-1.9 -2.1 -0.3 -1.25 L0.1 0.55 Q0.45 2.2 0.8 8.9 L0.9 11.75 0.9 11.85 M0.9 11.9 L1.2 16.85 Q0.85 19.7 0.1 21.5 L-4.4 21.75 Q-6.0 21.35 -7.05 20.2 -7.65 18.95 -8.15 15.85 L-7.25 10.25 Q-6.95 8.45 -6.75 4.0 L-6.4 1.2 Z" fill="none" stroke="#224a35" stroke-linecap="round" stroke-linejoin="round" stroke-width="0.05"/>
    <path d="M-5.8 -1.3 Q-2.95 -2.45 0.0 -2.0 2.0 4.5 2.75 11.35 -2.1 11.55 -4.65 9.85 -4.7 4.25 -5.8 -1.3" fill="#becbc4" fill-rule="evenodd" stroke="none"/>
    <path d="M-5.8 -1.3 Q-4.7 4.25 -4.65 9.85 -2.1 11.55 2.75 11.35 2.0 4.5 0.0 -2.0 -2.95 -2.45 -5.8 -1.3 Z" fill="none" stroke="#224a35" stroke-linecap="round" stroke-linejoin="round" stroke-width="0.05"/>
  </g>
</svg>
