<?xml version="1.0" encoding="UTF-8" standalone="no"?>
<svg xmlns:xlink="http://www.w3.org/1999/xlink" height="30.8px" width="11.25px" xmlns="http://www.w3.org/2000/svg">
  <g transform="matrix(1.0, 0.0, 0.0, 1.0, 8.0, 31.15)">
    <path d="M2.55 -24.05 L2.55 -24.0 2.5 -24.0 2.55 -24.05 M-5.45 -24.2 L-5.45 -24.3 -5.45 -24.35 -5.3 -24.2 -5.45 -24.3 -5.3 -24.2 -5.45 -24.2" fill="#2f546f" fill-rule="evenodd" stroke="none"/>
    <path d="M2.55 -24.05 L2.5 -24.0 2.55 -24.05 M-5.45 -24.3 L-5.45 -24.35 -5.45 -24.3" fill="#ffffff" fill-rule="evenodd" stroke="none"/>
    <path d="M-5.45 -24.3 L-5.45 -24.35 -5.45 -24.3" fill="#4f4f4f" fill-rule="evenodd" stroke="none"/>
    <path d="M-2.6 -0.6 Q-4.3 -1.15 -5.35 -2.65 -5.6 -3.75 -4.8 -5.25 L-5.15 -15.1 -5.45 -24.2 -5.3 -24.2 -4.5 -23.6 -4.35 -23.55 -3.15 -23.2 -2.7 -3.85 Q-3.65 -1.9 -2.6 -0.6 M-4.8 -5.25 L-2.7 -3.85 -4.8 -5.25" fill="#4581a6" fill-rule="evenodd" stroke="none"/>
    <path d="M2.5 -24.0 L2.55 -24.0 2.7 -15.1 2.7 -13.8 2.75 -9.5 2.7 -6.8 2.65 -4.7 2.65 -3.75 2.65 -3.55 Q3.6 -2.3 3.1 -1.0 -0.35 0.1 -2.6 -0.6 -3.65 -1.9 -2.7 -3.85 L-3.15 -23.2 -1.7 -22.85 0.7 -22.9 0.85 -22.9 1.2 -23.0 1.8 -23.2 2.15 -23.4 2.5 -24.0 M2.65 -3.55 L-2.7 -3.85 2.65 -3.55" fill="#00002a" fill-rule="evenodd" stroke="none"/>
    <path d="M2.7 -15.1 L2.7 -13.8 2.75 -9.5 2.7 -6.8 2.65 -4.7 2.65 -3.75 2.65 -3.55 Q3.6 -2.3 3.1 -1.0 -0.35 0.1 -2.6 -0.6 -4.3 -1.15 -5.35 -2.65 -5.6 -3.75 -4.8 -5.25 L-5.15 -15.1 M-2.7 -3.85 L-4.8 -5.25 M-2.7 -3.85 L2.65 -3.55" fill="none" stroke="#1d3643" stroke-linecap="round" stroke-linejoin="round" stroke-width="0.05"/>
    <path d="M2.55 -24.05 L2.5 -24.0 2.15 -23.4 1.8 -23.2 1.2 -23.0 0.85 -22.9 0.7 -22.9 -1.7 -22.85 -3.15 -23.2 -4.35 -23.55 -4.5 -23.6 -5.3 -24.2 -5.45 -24.3" fill="none" stroke="#666666" stroke-linecap="round" stroke-linejoin="round" stroke-width="0.05"/>
    <path d="M2.55 -24.0 L2.55 -24.05 M2.55 -24.0 L2.7 -15.1 M-5.15 -15.1 L-5.45 -24.2 -5.45 -24.3 -5.45 -24.35" fill="none" stroke="#1d3643" stroke-linecap="round" stroke-linejoin="round" stroke-width="0.05"/>
    <path d="M-5.45 -24.3 L-5.45 -24.35 -5.45 -24.3" fill="none" stroke="#000000" stroke-linecap="round" stroke-linejoin="round" stroke-width="0.05"/>
    <path d="M-1.2 -24.45 Q-2.25 -19.95 -4.85 -17.95 -6.95 -20.55 -8.0 -25.65 -5.0 -19.75 -1.2 -24.45" fill="#00002a" fill-rule="evenodd" stroke="none"/>
    <path d="M-1.2 -24.45 Q-5.0 -19.75 -8.0 -25.65 -6.9 -29.0 -4.3 -31.15 -2.1 -28.65 -1.2 -24.45" fill="#4581a6" fill-rule="evenodd" stroke="none"/>
    <path d="M-8.0 -25.65 Q-6.95 -20.55 -4.85 -17.95 -2.25 -19.95 -1.2 -24.45 -2.1 -28.65 -4.3 -31.15 -6.9 -29.0 -8.0 -25.65 Z" fill="none" stroke="#224a35" stroke-linecap="round" stroke-linejoin="round" stroke-width="0.05"/>
  </g>
</svg>
