<?xml version="1.0" encoding="UTF-8" standalone="no"?>
<svg xmlns:xlink="http://www.w3.org/1999/xlink" height="20.1px" width="15.0px" xmlns="http://www.w3.org/2000/svg">
  <g transform="matrix(1.0, 0.0, 0.0, 1.0, 8.05, 2.6)">
    <path d="M-8.05 -2.6 Q-7.35 -2.0 -5.9 -1.55 L-4.05 -1.1 -3.6 -1.0 -2.75 -0.95 2.45 -0.7 3.95 -0.7 Q5.45 -0.85 6.6 -1.45 7.4 0.8 6.25 2.95 L4.2 5.15 Q2.45 6.5 0.3 6.65 L-0.35 6.65 -0.5 6.65 -1.0 6.65 -1.55 6.55 -2.35 6.4 -2.55 6.35 Q-4.4 5.8 -5.65 4.5 -6.9 3.15 -7.5 0.9 -7.95 -0.65 -8.05 -2.6" fill="#becbc4" fill-rule="evenodd" stroke="none"/>
    <path d="M-0.5 6.65 L-0.35 6.65 0.3 6.65 Q2.45 6.5 4.2 5.15 L6.25 2.95 Q7.4 0.8 6.6 -1.45 5.45 -0.85 3.95 -0.7 L2.45 -0.7 -2.75 -0.95 -3.6 -1.0 -4.05 -1.1 -5.9 -1.55 Q-7.35 -2.0 -8.05 -2.6" fill="none" stroke="#377757" stroke-linecap="round" stroke-linejoin="round" stroke-width="0.05"/>
    <path d="M1.8 -0.25 L2.1 17.5 1.3 16.85 0.3 16.7 -0.9 16.65 Q-1.8 16.4 -2.3 15.55 L-3.65 14.55 Q-4.1 14.35 -4.5 14.55 L-5.2 14.15 -5.8 -1.85 Q-2.55 -0.8 1.8 -0.25 M-2.2 12.5 L-2.3 15.55 -2.2 12.5 M-4.65 10.55 L-4.5 14.55 -4.65 10.55 M0.15 9.3 L0.3 16.7 0.15 9.3" fill="#eef2f3" fill-rule="evenodd" stroke="none"/>
    <path d="M1.8 -0.25 L2.1 17.5 1.3 16.85 0.3 16.7 -0.9 16.65 Q-1.8 16.4 -2.3 15.55 L-3.65 14.55 Q-4.1 14.35 -4.5 14.55 L-5.2 14.15 -5.8 -1.85 Q-2.55 -0.8 1.8 -0.25 M0.3 16.7 L0.15 9.3 M-4.5 14.55 L-4.65 10.55 M-2.3 15.55 L-2.2 12.5" fill="none" stroke="#548584" stroke-linecap="round" stroke-linejoin="round" stroke-width="0.05"/>
  </g>
</svg>
