<?xml version="1.0" encoding="UTF-8" standalone="no"?>
<svg xmlns:xlink="http://www.w3.org/1999/xlink" height="30.1px" width="8.85px" xmlns="http://www.w3.org/2000/svg">
  <g transform="matrix(1.0, 0.0, 0.0, 1.0, 5.6, 30.45)">
    <path d="M2.55 -24.05 L2.55 -24.0 2.5 -24.0 2.55 -24.05 M-5.45 -24.2 L-5.45 -24.3 -5.45 -24.35 -5.3 -24.2 -5.45 -24.2 M-5.45 -24.3 L-5.3 -24.2 -5.45 -24.3" fill="#2f546f" fill-rule="evenodd" stroke="none"/>
    <path d="M-5.45 -24.3 L-5.45 -24.35 -5.45 -24.3 M2.5 -24.0 L2.55 -24.05 2.5 -24.0" fill="#ffffff" fill-rule="evenodd" stroke="none"/>
    <path d="M-5.45 -24.3 L-5.45 -24.35 -5.45 -24.3" fill="#4f4f4f" fill-rule="evenodd" stroke="none"/>
    <path d="M-5.45 -24.35 L-5.6 -24.8 Q-5.55 -25.5 -4.3 -25.85 L-3.45 -26.0 -1.4 -26.0 0.05 -25.75 Q0.8 -25.6 1.4 -25.25 2.5 -24.7 2.55 -24.05 L2.5 -24.0 2.15 -23.4 1.8 -23.2 1.2 -23.0 0.85 -22.9 0.7 -22.9 0.0 -22.8 -1.7 -22.85 -3.4 -23.25 -4.35 -23.55 -4.5 -23.6 -5.3 -24.2 -5.45 -24.35" fill="#346076" fill-rule="evenodd" stroke="none"/>
    <path d="M2.55 -24.0 L2.7 -15.1 2.7 -13.8 2.75 -9.5 2.7 -6.8 2.65 -4.7 2.65 -3.75 2.65 -3.55 Q3.6 -2.3 3.1 -1.0 L-0.6 -0.45 Q-0.2 -1.7 -0.95 -3.55 L0.0 -22.8 0.7 -22.9 0.85 -22.9 1.2 -23.0 1.8 -23.2 2.15 -23.4 2.5 -24.0 2.55 -24.0 M-2.95 -0.7 Q-4.4 -1.3 -5.35 -2.65 -5.6 -3.75 -4.8 -5.25 L-5.15 -15.1 -5.45 -24.2 -5.3 -24.2 -4.5 -23.6 -4.35 -23.55 -3.4 -23.25 -2.35 -3.75 Q-3.3 -2.2 -2.95 -0.7 M-2.35 -3.75 Q-4.05 -4.45 -4.8 -5.25 -4.05 -4.45 -2.35 -3.75 M-0.95 -3.55 Q1.3 -3.35 2.65 -3.55 1.3 -3.35 -0.95 -3.55" fill="#00002a" fill-rule="evenodd" stroke="none"/>
    <path d="M-0.6 -0.45 L-2.95 -0.7 Q-3.3 -2.2 -2.35 -3.75 L-3.4 -23.25 -1.7 -22.85 0.0 -22.8 -0.95 -3.55 Q-0.2 -1.7 -0.6 -0.45 M-2.35 -3.75 L-0.95 -3.55 -2.35 -3.75" fill="#4581a6" fill-rule="evenodd" stroke="none"/>
    <path d="M2.7 -15.1 L2.7 -13.8 2.75 -9.5 2.7 -6.8 2.65 -4.7 2.65 -3.75 2.65 -3.55 Q3.6 -2.3 3.1 -1.0 L-0.6 -0.45 -2.95 -0.7 Q-4.4 -1.3 -5.35 -2.65 -5.6 -3.75 -4.8 -5.25 L-5.15 -15.1 M-4.8 -5.25 Q-4.05 -4.45 -2.35 -3.75 L-0.95 -3.55 Q1.3 -3.35 2.65 -3.55" fill="none" stroke="#1d3643" stroke-linecap="round" stroke-linejoin="round" stroke-width="0.05"/>
    <path d="M-5.45 -24.35 L-5.6 -24.8 Q-5.55 -25.5 -4.3 -25.85 L-3.45 -26.0 -1.4 -26.0 0.05 -25.75 Q0.8 -25.6 1.4 -25.25 2.5 -24.7 2.55 -24.05 L2.5 -24.0 2.15 -23.4 1.8 -23.2 1.2 -23.0 0.85 -22.9 0.7 -22.9 0.0 -22.8 -1.7 -22.85 -3.4 -23.25 -4.35 -23.55 -4.5 -23.6 -5.3 -24.2 -5.45 -24.3" fill="none" stroke="#666666" stroke-linecap="round" stroke-linejoin="round" stroke-width="0.05"/>
    <path d="M2.55 -24.05 L2.55 -24.0 2.7 -15.1 M-5.15 -15.1 L-5.45 -24.2 -5.45 -24.3 -5.45 -24.35" fill="none" stroke="#1d3643" stroke-linecap="round" stroke-linejoin="round" stroke-width="0.05"/>
    <path d="M-5.45 -24.3 L-5.45 -24.35 -5.45 -24.3" fill="none" stroke="#000000" stroke-linecap="round" stroke-linejoin="round" stroke-width="0.05"/>
    <path d="M-5.55 -24.95 Q-4.2 -28.3 -1.05 -30.45 1.6 -27.95 2.75 -23.75 -1.9 -19.05 -5.55 -24.95" fill="#4581a6" fill-rule="evenodd" stroke="none"/>
    <path d="M2.75 -23.75 Q1.45 -19.25 -1.7 -17.25 -4.3 -19.85 -5.55 -24.95 -1.9 -19.05 2.75 -23.75" fill="#00002a" fill-rule="evenodd" stroke="none"/>
    <path d="M2.75 -23.75 Q1.45 -19.25 -1.7 -17.25 -4.3 -19.85 -5.55 -24.95 -4.2 -28.3 -1.05 -30.45 1.6 -27.95 2.75 -23.75 Z" fill="none" stroke="#224a35" stroke-linecap="round" stroke-linejoin="round" stroke-width="0.05"/>
  </g>
</svg>
