<?xml version="1.0" encoding="UTF-8" standalone="no"?>
<svg xmlns:xlink="http://www.w3.org/1999/xlink" height="30.7px" width="17.5px" xmlns="http://www.w3.org/2000/svg">
  <g transform="matrix(1.0, 0.0, 0.0, 1.0, 10.2, 13.1)">
    <path d="M-0.8 -13.1 L0.35 -13.05 0.4 -13.05 0.75 -13.05 0.75 -12.45 0.75 -10.9 Q0.8 -9.45 1.15 -8.15 L1.2 -8.05 1.2 -8.0 1.3 -7.75 1.2 -8.0 4.15 -6.7 1.6 -7.75 1.3 -7.75 0.2 -7.65 0.15 -7.95 Q-0.2 -9.55 -0.8 -10.75 L-1.1 -10.75 Q-3.4 -11.0 -3.85 -11.7 L-3.9 -12.15 -4.0 -12.95 -2.8 -13.05 -1.2 -13.1 -0.8 -13.1" fill="#ffd0ae" fill-rule="evenodd" stroke="none"/>
    <path d="M-3.85 -11.7 Q-3.4 -11.0 -1.1 -10.75 L-0.8 -10.75 Q-0.2 -9.55 0.15 -7.95 L0.2 -7.65 1.3 -7.75 1.6 -7.75 4.15 -6.7 6.7 -5.65 Q4.85 3.3 -4.6 1.2 -8.85 0.15 -8.7 -8.1 L-6.9 -8.3 -4.05 -8.65 -3.85 -9.95 -3.85 -10.6 -3.85 -11.7 M-4.35 -7.45 L-4.25 -7.7 -4.05 -8.65 -4.25 -7.7 -4.35 -7.45" fill="#ffdfc8" fill-rule="evenodd" stroke="none"/>
    <path d="M-0.8 -13.1 L0.35 -13.05 0.4 -13.05 -0.8 -13.1 -1.2 -13.1 -2.8 -13.05 -4.0 -12.95 -3.9 -12.15 -3.85 -11.7 -3.85 -10.6 -3.85 -9.95 -4.05 -8.65 -4.25 -7.7 -4.35 -7.45 M1.3 -7.75 L1.2 -8.0 1.2 -8.05 1.15 -8.15 Q0.8 -9.45 0.75 -10.9 L0.75 -12.45 0.75 -13.05 0.4 -13.05 M1.2 -8.0 L4.15 -6.7 6.7 -5.65 Q4.85 3.3 -4.6 1.2 -8.85 0.15 -8.7 -8.1 L-6.9 -8.3 -4.05 -8.65" fill="none" stroke="#d7995e" stroke-linecap="round" stroke-linejoin="round" stroke-width="0.05"/>
    <path d="M-2.45 -4.7 Q0.3 -5.1 2.15 -3.7 3.3 -5.25 4.85 -5.45 5.6 -6.8 6.7 -6.55 L6.7 -5.6 6.7 -5.65 Q6.0 -4.45 1.95 -2.25 L-8.45 -4.0 -8.7 -8.05 -7.8 -9.05 Q-7.35 -8.1 -7.95 -7.0 -7.45 -6.2 -7.8 -5.25 L-6.7 -5.5 Q-4.65 -5.85 -3.3 -4.55 L-2.45 -4.7 M5.5 16.25 L5.15 16.35 1.9 17.2 -1.05 17.6 -2.4 17.55 -2.45 17.55 Q-0.8 12.0 1.8 9.75 4.25 11.85 5.5 16.25 M-5.25 17.0 L-6.0 16.65 -8.95 15.35 Q-8.35 12.15 -6.65 9.25 -5.5 11.35 -5.25 17.0" fill="#ffffff" fill-rule="evenodd" stroke="none"/>
    <path d="M1.95 -2.25 L2.5 -1.55 Q3.4 1.4 2.75 3.1 1.75 5.05 -1.8 4.3 L-2.0 4.25 -2.0 4.3 -2.15 4.25 -2.6 4.2 -4.5 3.55 -7.3 2.75 -8.6 2.5 Q-9.7 1.9 -10.1 0.65 L-10.2 0.0 Q-10.3 -1.75 -9.65 -2.65 L-9.1 -3.75 -9.0 -4.1 -8.95 -4.2 -9.0 -4.2 Q-8.95 -4.9 -9.05 -5.2 L-9.2 -6.3 -9.05 -7.45 -9.0 -7.7 -8.95 -8.05 -8.7 -8.1 -8.7 -8.05 -8.45 -4.0 1.95 -2.25 M-2.4 17.55 L-2.45 17.55 -2.95 17.5 -4.45 17.25 -5.25 17.0 Q-5.5 11.35 -6.65 9.25 L-6.6 9.2 Q-6.3 8.5 -6.35 7.5 -4.85 5.55 -3.3 5.75 L-1.75 6.15 Q-1.25 6.35 -0.9 6.6 L0.5 7.95 1.15 8.75 1.2 8.85 1.3 9.0 1.45 9.2 1.65 9.5 1.8 9.75 Q-0.8 12.0 -2.45 17.55 L-2.4 17.55" fill="#d26262" fill-rule="evenodd" stroke="none"/>
    <path d="M-10.1 0.65 Q-9.7 1.9 -8.6 2.5 L-7.3 2.75 -4.5 3.55 -2.6 4.2 -2.15 4.25 -2.0 4.3 -2.0 4.25 -1.8 4.3 Q1.75 5.05 2.75 3.1 3.4 1.4 2.5 -1.55 L1.95 -2.25 Q6.0 -4.45 6.7 -5.65 L6.7 -5.6 6.9 -5.5 7.15 -5.35 7.3 -5.25 7.3 -5.2 7.2 -4.3 7.05 -3.3 6.15 0.75 5.65 2.3 4.45 5.0 4.1 5.6 Q3.55 7.1 3.8 8.55 L3.85 8.65 3.95 9.05 3.95 9.1 1.8 9.75 1.65 9.5 1.45 9.2 1.3 9.0 1.2 8.85 1.15 8.75 0.5 7.95 -0.9 6.6 Q-1.25 6.35 -1.75 6.15 L-3.3 5.75 Q-4.85 5.55 -6.35 7.5 -6.45 6.5 -6.85 5.2 L-7.2 4.35 -7.4 3.55 Q-8.3 3.35 -8.95 2.7 L-9.35 2.3 Q-9.95 1.6 -10.1 0.65 M-1.5 5.4 L-1.7 5.3 -6.9 3.65 -7.1 3.6 -7.4 3.55 -7.1 3.6 -6.9 3.65 -1.7 5.3 -1.5 5.4 0.25 5.6 Q1.2 5.55 2.0 5.15 1.2 5.55 0.25 5.6 L-1.5 5.4 M4.4 0.25 L4.45 0.95 Q4.55 2.8 3.3 4.15 L2.0 5.15 3.3 4.15 Q4.55 2.8 4.45 0.95 L4.4 0.25" fill="#c84242" fill-rule="evenodd" stroke="none"/>
    <path d="M3.95 9.1 Q6.0 11.7 7.0 15.8 L5.5 16.25 Q4.25 11.85 1.8 9.75 L3.95 9.1" fill="#ececec" fill-rule="evenodd" stroke="none"/>
    <path d="M-2.4 17.55 L-2.45 17.55 -2.4 17.55 M-9.0 -4.2 L-9.0 -4.1" fill="none" stroke="#581b1b" stroke-linecap="round" stroke-linejoin="round" stroke-width="0.05"/>
    <path d="M-2.45 -4.7 Q0.3 -5.1 2.15 -3.7 3.3 -5.25 4.85 -5.45 5.6 -6.8 6.7 -6.55 L6.7 -5.6 M3.95 9.1 Q6.0 11.7 7.0 15.8 L5.5 16.25 5.15 16.35 1.9 17.2 -1.05 17.6 -2.4 17.55 M-5.25 17.0 L-6.0 16.65 -8.95 15.35 Q-8.35 12.15 -6.65 9.25 M-8.7 -8.05 L-7.8 -9.05 Q-7.35 -8.1 -7.95 -7.0 -7.45 -6.2 -7.8 -5.25 L-6.7 -5.5" fill="none" stroke="#cecece" stroke-linecap="round" stroke-linejoin="round" stroke-width="0.05"/>
    <path d="M-6.7 -5.5 Q-4.65 -5.85 -3.3 -4.55 L-2.45 -4.7" fill="none" stroke="#cecece" stroke-linecap="round" stroke-linejoin="round" stroke-width="0.05"/>
    <path d="M-10.1 0.65 Q-9.95 1.6 -9.35 2.3 L-8.95 2.7 Q-8.3 3.35 -7.4 3.55 L-7.1 3.6 -6.9 3.65 -1.7 5.3 -1.5 5.4 M2.0 5.15 L3.3 4.15 Q4.55 2.8 4.45 0.95 L4.4 0.25 M6.7 -5.6 L6.9 -5.5 7.15 -5.35 7.3 -5.25 7.3 -5.2 7.2 -4.3 7.05 -3.3 6.15 0.75 5.65 2.3 4.45 5.0 M3.8 8.55 L3.85 8.65 3.95 9.05 3.95 9.1 1.8 9.75 Q-0.8 12.0 -2.45 17.55 L-2.95 17.5 -4.45 17.25 -5.25 17.0 Q-5.5 11.35 -6.65 9.25 L-6.6 9.2 Q-6.3 8.5 -6.35 7.5 -6.45 6.5 -6.85 5.2 L-7.2 4.35 -7.4 3.55 M1.95 -2.25 Q6.0 -4.45 6.7 -5.65 L6.7 -5.6 M-8.95 -8.05 L-8.7 -8.1 -8.7 -8.05 -8.45 -4.0 1.95 -2.25 M-9.0 -4.1 L-9.1 -3.75 -9.65 -2.65 Q-10.3 -1.75 -10.2 0.0 L-10.1 0.65" fill="none" stroke="#661e1e" stroke-linecap="round" stroke-linejoin="round" stroke-width="0.05"/>
    <path d="M-1.5 5.4 L0.25 5.6 Q1.2 5.55 2.0 5.15 M4.45 5.0 L4.1 5.6 Q3.55 7.1 3.8 8.55" fill="none" stroke="#661e1e" stroke-linecap="round" stroke-linejoin="round" stroke-width="0.05"/>
  </g>
</svg>
