<?xml version="1.0" encoding="UTF-8" standalone="no"?>
<svg xmlns:xlink="http://www.w3.org/1999/xlink" height="27.55px" width="27.1px" xmlns="http://www.w3.org/2000/svg">
  <g transform="matrix(1.0, 0.0, 0.0, 1.0, 4.3, 12.2)">
    <path d="M20.35 13.75 L19.3 12.9 18.95 12.6 18.6 12.25 17.45 10.95 Q13.8 6.3 14.4 -0.55 15.4 -5.15 14.2 -6.45 L13.5 -9.9 15.05 -9.8 Q20.25 -8.8 19.15 0.55 L18.8 3.65 Q18.95 8.8 19.9 12.25 L20.35 13.75" fill="#645446" fill-rule="evenodd" stroke="none"/>
    <path d="M13.5 -9.9 L13.2 -11.35 Q24.2 -14.55 21.9 -1.5 19.6 11.5 22.8 15.35 L20.35 13.75 19.9 12.25 Q18.95 8.8 18.8 3.65 L19.15 0.55 Q20.25 -8.8 15.05 -9.8 L13.5 -9.9" fill="#83715c" fill-rule="evenodd" stroke="none"/>
    <path d="M20.35 13.75 L19.3 12.9 18.95 12.6 18.6 12.25 17.45 10.95 Q13.8 6.3 14.4 -0.55 15.4 -5.15 14.2 -6.45 L13.5 -9.9 13.2 -11.35 Q24.2 -14.55 21.9 -1.5 19.6 11.5 22.8 15.35 L20.35 13.75 Z" fill="none" stroke="#1f1a16" stroke-linecap="round" stroke-linejoin="round" stroke-width="0.05"/>
    <path d="M12.3 -4.8 Q11.65 -4.3 10.9 -4.05 11.55 -5.3 10.45 -5.85 10.45 -4.75 9.3 -4.1 L8.95 -3.9 8.8 -3.85 Q8.5 -4.05 7.8 -5.55 L7.1 -6.5 Q6.45 -4.85 6.0 -4.55 5.45 -5.9 3.5 -6.6 L3.05 -6.75 Q3.1 -5.75 2.8 -5.2 2.7 -6.2 1.45 -6.55 0.1 -6.35 -0.25 -5.35 -0.65 -6.1 -0.2 -6.9 L-0.75 -7.0 -2.05 -6.35 -2.45 -6.2 -2.8 -6.0 -2.6 -6.25 -2.45 -6.35 -2.3 -6.55 -2.0 -6.9 -1.95 -6.9 -1.35 -7.45 -0.4 -8.05 Q0.5 -9.3 3.5 -9.85 L5.9 -10.2 8.25 -9.95 Q8.9 -10.2 8.0 -10.4 L9.3 -10.45 11.05 -10.05 10.2 -10.45 Q11.35 -10.45 12.3 -9.85 L12.3 -4.8" fill="#83715c" fill-rule="evenodd" stroke="none"/>
    <path d="M12.3 -9.85 Q11.35 -10.45 10.2 -10.45 L11.05 -10.05 9.3 -10.45 8.0 -10.4 Q8.9 -10.2 8.25 -9.95 L5.9 -10.2 3.5 -9.85 Q0.5 -9.3 -0.4 -8.05 L-1.35 -7.45 -1.95 -6.9 -2.0 -6.9 -2.3 -6.55 -2.45 -6.35 -2.6 -6.25 -2.8 -6.0 -2.45 -6.2 -2.05 -6.35 -0.75 -7.0 -0.2 -6.9 Q-0.65 -6.1 -0.25 -5.35 0.1 -6.35 1.45 -6.55 2.7 -6.2 2.8 -5.2 3.1 -5.75 3.05 -6.75 L3.5 -6.6 Q5.45 -5.9 6.0 -4.55 6.45 -4.85 7.1 -6.5 L7.8 -5.55 Q8.5 -4.05 8.8 -3.85 L8.95 -3.9 9.3 -4.1 Q10.45 -4.75 10.45 -5.85 11.55 -5.3 10.9 -4.05 11.65 -4.3 12.3 -4.8 L12.3 -3.75 12.05 -3.5 10.95 -2.35 8.65 -0.55 8.65 -0.6 Q9.55 -1.45 9.85 -2.3 9.7 -3.2 7.65 -2.7 7.65 3.4 6.85 4.35 L5.5 0.35 Q4.05 -2.45 3.9 -5.4 L3.5 -4.05 Q3.1 -3.1 2.4 -2.45 2.35 -4.15 0.9 -5.35 -0.6 -4.0 -0.75 -2.55 L-1.6 -3.35 -1.9 -4.2 Q-2.2 -4.85 -1.9 -5.7 -3.4 -4.75 -4.0 -2.7 -5.2 -6.5 -1.45 -8.25 0.2 -9.45 3.5 -10.2 L8.35 -10.95 9.3 -11.0 12.3 -10.6 12.3 -9.85" fill="#645446" fill-rule="evenodd" stroke="none"/>
    <path d="M12.3 -10.6 L9.3 -11.0 8.35 -10.95 3.5 -10.2 Q0.2 -9.45 -1.45 -8.25 -5.2 -6.5 -4.0 -2.7 -3.4 -4.75 -1.9 -5.7 -2.2 -4.85 -1.9 -4.2 L-1.6 -3.35 -0.75 -2.55 Q-0.6 -4.0 0.9 -5.35 2.35 -4.15 2.4 -2.45 3.1 -3.1 3.5 -4.05 L3.9 -5.4 Q4.05 -2.45 5.5 0.35 L6.85 4.35 Q7.65 3.4 7.65 -2.7 9.7 -3.2 9.85 -2.3 9.55 -1.45 8.65 -0.6 L8.65 -0.55 10.95 -2.35 12.05 -3.5 12.3 -3.75" fill="none" stroke="#1f1a16" stroke-linecap="round" stroke-linejoin="round" stroke-width="0.05"/>
    <path d="M4.75 -7.8 L4.75 -7.15 9.1 -7.15 9.65 -5.25 Q10.3 -2.1 9.7 2.35 10.3 -2.1 9.65 -5.25 L9.1 -7.15 10.4 -7.15 10.4 -12.0 11.65 -11.85 13.4 -12.15 Q14.85 -8.7 14.5 -5.25 14.0 -0.05 9.35 5.2 9.95 3.7 9.85 2.85 L9.7 2.35 Q9.25 1.0 7.75 1.95 7.9 -2.45 6.25 -4.95 L5.8 -5.25 5.25 -5.55 Q0.8 -8.15 -3.35 -7.0 -3.7 -7.8 -2.6 -8.25 L-2.5 -8.3 Q-0.35 -11.0 4.55 -11.35 L4.75 -11.4 4.75 -7.8 Q0.95 -9.35 -2.5 -8.3 0.95 -9.35 4.75 -7.8" fill="#328fc0" fill-rule="evenodd" stroke="none"/>
    <path d="M4.75 -7.8 Q0.95 -9.35 -2.5 -8.3 L-2.6 -8.25 Q-3.7 -7.8 -3.35 -7.0 0.8 -8.15 5.25 -5.55 L5.8 -5.25 6.25 -4.95 Q7.9 -2.45 7.75 1.95 M9.7 2.35 Q10.3 -2.1 9.65 -5.25 L9.1 -7.15 M10.4 -12.0 L11.65 -11.85 13.4 -12.15 Q14.85 -8.7 14.5 -5.25 14.0 -0.05 9.35 5.2 M4.75 -11.4 L4.55 -11.35 Q-0.35 -11.0 -2.5 -8.3" fill="none" stroke="#2b3f6c" stroke-linecap="round" stroke-linejoin="round" stroke-width="0.05"/>
    <path d="M7.9 -9.25 L9.1 -7.15 7.9 -9.25 M4.75 -11.4 L5.25 -11.6 10.4 -12.0 10.4 -7.15 9.1 -7.15 6.15 -7.15 4.75 -7.15 4.75 -7.8 4.75 -11.4 M6.15 -7.15 L5.25 -7.6 4.75 -7.8 5.25 -7.6 6.15 -7.15" fill="#328fc0" fill-rule="evenodd" stroke="none"/>
    <path d="M9.1 -7.15 L7.9 -9.25 M4.75 -11.4 L5.25 -11.6 10.4 -12.0 M4.75 -7.8 L5.25 -7.6 6.15 -7.15" fill="none" stroke="#2b3f6c" stroke-linecap="round" stroke-linejoin="round" stroke-width="0.05"/>
  </g>
</svg>
