<?xml version="1.0" encoding="UTF-8" standalone="no"?>
<svg xmlns:xlink="http://www.w3.org/1999/xlink" height="31.45px" width="20.9px" xmlns="http://www.w3.org/2000/svg">
  <g transform="matrix(1.0, 0.0, 0.0, 1.0, 10.9, 13.15)">
    <path d="M-7.45 -8.45 L-7.6 -8.5 -5.25 -8.75 -5.25 -8.65 -6.25 -8.0 -7.45 -8.45 M-5.2 -8.75 Q-4.85 -11.05 -5.3 -12.75 -0.7 -13.6 2.4 -12.7 L2.2 -11.3 2.2 -11.05 Q2.1 -9.6 2.35 -8.25 1.7 -8.15 0.45 -7.3 L-4.85 -6.95 -5.25 -7.65 -5.35 -7.8 -5.35 -7.85 -5.35 -7.9 -5.25 -8.65 -5.2 -8.75" fill="#ffd0ae" fill-rule="evenodd" stroke="none"/>
    <path d="M2.35 -8.25 L2.5 -7.65 2.95 -7.45 3.5 -7.25 4.8 -6.65 Q5.9 2.75 -7.55 0.0 -9.85 -4.75 -7.45 -8.45 L-6.25 -8.0 -5.25 -8.65 -5.35 -7.9 -5.35 -7.85 -5.35 -7.8 -5.25 -7.65 -4.85 -6.95 0.45 -7.3 Q1.7 -8.15 2.35 -8.25" fill="#ffdfc8" fill-rule="evenodd" stroke="none"/>
    <path d="M-5.25 -8.75 L-5.2 -8.75 -5.25 -8.65 -5.25 -8.75" fill="#eebf5a" fill-rule="evenodd" stroke="none"/>
    <path d="M2.35 -8.25 L2.5 -7.65 2.95 -7.45 3.5 -7.25 4.8 -6.65 M-7.6 -8.5 L-5.25 -8.75 -5.2 -8.75 Q-4.85 -11.05 -5.3 -12.75 -0.7 -13.6 2.4 -12.7 L2.2 -11.3 2.2 -11.05 Q2.1 -9.6 2.35 -8.25 M-5.35 -7.8 L-5.35 -7.85 -5.35 -7.9 -5.25 -8.65 -5.2 -8.75" fill="none" stroke="#674743" stroke-linecap="round" stroke-linejoin="round" stroke-width="0.05"/>
    <path d="M4.2 14.7 Q5.55 14.35 6.25 13.8 6.9 14.45 6.95 15.3 L6.8 16.2 Q3.85 17.95 -1.05 17.95 L-2.0 17.9 -2.1 15.05 -1.35 15.1 -1.1 15.1 3.8 14.8 3.9 14.75 4.2 14.7" fill="#684942" fill-rule="evenodd" stroke="none"/>
    <path d="M-8.1 12.3 L-8.0 12.5 -7.95 12.65 -7.5 13.2 -7.3 13.4 -5.9 14.25 -5.8 17.1 -7.35 16.35 -7.5 16.2 -8.45 15.4 Q-8.9 13.75 -8.3 12.65 L-8.25 12.5 -8.1 12.3" fill="#956c5e" fill-rule="evenodd" stroke="none"/>
    <path d="M1.6 -5.4 L1.6 -5.35 1.55 -5.35 1.6 -5.4" fill="#b48f87" fill-rule="evenodd" stroke="none"/>
    <path d="M-5.9 14.25 L-5.95 13.9 -2.15 14.5 -2.1 15.05 -2.0 17.9 -2.0 18.3 -5.8 17.75 -5.8 17.1 -5.9 14.25" fill="#cccccc" fill-rule="evenodd" stroke="none"/>
    <path d="M0.05 8.9 L0.0 8.9 0.05 8.9" fill="#ffffff" fill-rule="evenodd" stroke="none"/>
    <path d="M1.6 -5.35 L1.6 -5.4 Q2.65 -6.25 3.5 -7.25 4.85 -7.05 6.25 -6.25 L8.05 -4.95 8.95 -4.05 9.15 -3.75 9.75 -2.75 10.0 -1.3 9.95 -0.9 9.9 -0.15 9.05 4.05 8.55 5.75 8.4 6.15 7.3 8.75 7.3 12.8 6.25 13.8 Q5.55 14.35 4.2 14.7 4.85 14.2 5.25 13.1 L4.65 10.0 4.7 9.95 4.95 9.55 5.25 9.05 6.7 5.8 7.35 3.2 7.45 2.75 7.45 2.65 7.6 1.4 7.65 0.9 7.75 -0.75 7.75 -1.05 7.7 -1.85 7.7 -2.3 6.75 -3.55 6.55 -3.7 6.35 -3.8 5.25 -4.45 5.15 -4.55 3.55 -5.15 1.6 -5.35" fill="#bda097" fill-rule="evenodd" stroke="none"/>
    <path d="M1.6 -5.4 L1.55 -5.35 1.6 -5.35 3.55 -5.15 5.15 -4.55 5.25 -4.45 6.35 -3.8 6.55 -3.7 6.75 -3.55 7.7 -2.3 7.7 -1.85 7.75 -1.05 7.75 -0.75 7.65 0.9 7.6 1.4 7.45 2.65 7.45 2.75 7.35 3.2 6.7 5.8 5.25 9.05 4.95 9.55 4.7 9.95 4.65 10.0 5.25 13.1 Q4.85 14.2 4.2 14.7 L3.9 14.75 3.8 14.8 -1.1 15.1 -1.35 15.1 -2.1 15.05 -2.15 14.5 -5.95 13.9 -5.9 14.25 -7.3 13.4 -7.5 13.2 -7.95 12.65 -8.0 12.5 -8.1 12.3 Q-8.7 11.75 -8.95 10.85 -9.25 9.95 -9.2 8.75 L-9.2 8.6 -9.15 7.6 -9.15 7.45 -9.05 6.85 Q-8.7 4.15 -9.65 1.75 L-9.7 1.6 -9.75 1.55 Q-10.4 0.45 -10.65 -0.7 -10.95 -1.85 -10.85 -3.0 L-10.45 -5.15 -10.4 -5.2 -9.2 -8.0 -8.15 -8.4 -6.1 -8.65 Q-6.25 -7.25 -5.75 -5.85 L-5.15 -4.55 -4.7 -3.9 -2.85 -3.85 -2.1 -3.95 Q0.2 -4.25 1.6 -5.4 M0.05 8.9 L0.0 8.9 0.05 8.9" fill="#d2c0b7" fill-rule="evenodd" stroke="none"/>
    <path d="M-8.1 12.3 L-8.0 12.5 -7.95 12.65 -7.5 13.2 -7.3 13.4 -5.9 14.25 M-2.1 15.05 L-1.35 15.1 -1.1 15.1 3.8 14.8 3.9 14.75" fill="none" stroke="#674743" stroke-linecap="round" stroke-linejoin="round" stroke-width="0.05"/>
    <path d="M4.2 14.7 Q5.55 14.35 6.25 13.8 6.9 14.45 6.95 15.3 L6.8 16.2 Q3.85 17.95 -1.05 17.95 L-2.0 17.9 M3.9 14.75 L4.2 14.7 M-5.8 17.1 L-7.35 16.35 -7.5 16.2 -8.45 15.4 Q-8.9 13.75 -8.3 12.65 L-8.25 12.5 -8.1 12.3" fill="none" stroke="#674743" stroke-linecap="round" stroke-linejoin="round" stroke-width="0.05"/>
    <path d="M-5.9 14.25 L-5.95 13.9 -2.15 14.5 -2.1 15.05 -2.0 17.9 -2.0 18.3 -5.8 17.75 -5.8 17.1 -5.9 14.25" fill="none" stroke="#999999" stroke-linecap="round" stroke-linejoin="round" stroke-width="0.05"/>
    <path d="M6.25 13.8 L7.3 12.8 7.3 8.75 8.4 6.15 8.55 5.75 9.05 4.05 9.9 -0.15 9.95 -0.9 10.0 -1.3 9.75 -2.75 9.15 -3.75 8.95 -4.05 8.05 -4.95 6.25 -6.25 Q4.85 -7.05 3.5 -7.25 2.65 -6.25 1.6 -5.4 0.2 -4.25 -2.1 -3.95 L-2.85 -3.85 -4.7 -3.9 -5.15 -4.55 -5.75 -5.85 Q-6.25 -7.25 -6.1 -8.65 L-8.15 -8.4 -9.2 -8.0 M-10.4 -5.2 L-10.45 -5.15 -10.85 -3.0 Q-10.95 -1.85 -10.65 -0.7 -10.4 0.45 -9.75 1.55 L-9.7 1.6 -9.65 1.75 Q-8.7 4.15 -9.05 6.85 L-9.15 7.45 -9.15 7.6 -9.2 8.6 -9.2 8.75 Q-9.25 9.95 -8.95 10.85 -8.7 11.75 -8.1 12.3 Z" fill="none" stroke="#6a4e44" stroke-linecap="round" stroke-linejoin="round" stroke-width="0.05"/>
  </g>
</svg>
