<?xml version="1.0" encoding="UTF-8" standalone="no"?>
<svg xmlns:xlink="http://www.w3.org/1999/xlink" height="17.75px" width="22.9px" xmlns="http://www.w3.org/2000/svg">
  <g transform="matrix(1.0, 0.0, 0.0, 1.0, 8.0, 13.25)">
    <path d="M-3.5 -0.35 Q-3.15 -1.45 -1.7 -0.15 -3.0 -0.9 -3.5 -0.35 M3.35 1.95 Q2.45 0.1 0.3 0.4 2.35 -0.4 3.35 1.95" fill="#dfa724" fill-rule="evenodd" stroke="none"/>
    <path d="M-3.5 -0.35 Q-3.15 -1.45 -1.7 -0.15 -3.0 -0.9 -3.5 -0.35 M3.35 1.95 Q2.35 -0.4 0.3 0.4 2.45 0.1 3.35 1.95" fill="none" stroke="#a8721a" stroke-linecap="round" stroke-linejoin="round" stroke-width="0.05"/>
    <path d="M9.15 -9.05 Q7.35 -7.0 8.55 -5.1 9.9 -5.65 11.65 -4.8 10.35 -4.6 9.35 -3.75 10.85 -1.95 11.05 -0.5 10.55 -1.05 9.5 -1.15 10.65 1.65 9.2 2.3 9.0 0.75 7.9 0.2 8.15 -1.2 7.4 -2.65 5.95 -4.25 3.25 -1.85 L0.3 -1.6 Q-1.5 -3.3 -4.3 -2.1 -3.5 -3.8 -0.7 -3.85 -1.8 -6.0 -3.3 -6.65 L0.5 -6.8 Q0.45 -7.9 -0.15 -9.5 0.45 -9.5 2.15 -8.0 2.7 -9.3 3.65 -10.15 3.35 -8.7 5.85 -6.5 6.4 -8.0 9.15 -9.05" fill="#dfa724" fill-rule="evenodd" stroke="none"/>
    <path d="M9.15 -9.05 Q6.4 -8.0 5.85 -6.5 3.35 -8.7 3.65 -10.15 2.7 -9.3 2.15 -8.0 0.45 -9.5 -0.15 -9.5 0.45 -7.9 0.5 -6.8 L-3.3 -6.65 Q-1.8 -6.0 -0.7 -3.85 -3.5 -3.8 -4.3 -2.1 -1.5 -3.3 0.3 -1.6 L3.25 -1.85 Q5.95 -4.25 7.4 -2.65 8.15 -1.2 7.9 0.2 9.0 0.75 9.2 2.3 10.65 1.65 9.5 -1.15 10.55 -1.05 11.05 -0.5 10.85 -1.95 9.35 -3.75 10.35 -4.6 11.65 -4.8 9.9 -5.65 8.55 -5.1 7.35 -7.0 9.15 -9.05 M11.5 -3.95 Q13.6 -1.45 12.95 1.55 12.2 -0.1 11.25 0.0 10.85 3.35 7.95 4.5 9.1 2.9 8.5 1.75 6.75 0.7 6.15 3.5 5.0 3.15 4.4 0.3 L4.15 -0.65 Q2.85 -1.9 -1.0 -1.0 -3.0 -2.65 -3.7 -1.55 -5.75 -2.15 -7.75 -0.6 -6.25 -4.05 -2.4 -4.75 -3.95 -7.05 -8.0 -7.25 -3.75 -8.75 -0.75 -8.2 -0.8 -9.7 -2.85 -11.75 -0.75 -11.9 1.3 -10.05 2.3 -11.6 4.8 -13.25 3.25 -10.8 5.95 -8.3 7.55 -10.55 11.2 -11.3 8.75 -8.5 10.15 -6.25 11.7 -7.0 14.9 -4.8 12.9 -5.15 11.5 -3.95" fill="#eabd57" fill-rule="evenodd" stroke="none"/>
    <path d="M11.5 -3.95 Q13.6 -1.45 12.95 1.55 12.2 -0.1 11.25 0.0 10.85 3.35 7.95 4.5 9.1 2.9 8.5 1.75 6.75 0.7 6.15 3.5 5.0 3.15 4.4 0.3 L4.15 -0.65 Q2.85 -1.9 -1.0 -1.0 -3.0 -2.65 -3.7 -1.55 -5.75 -2.15 -7.75 -0.6 -6.25 -4.05 -2.4 -4.75 -3.95 -7.05 -8.0 -7.25 -3.75 -8.75 -0.75 -8.2 -0.8 -9.7 -2.85 -11.75 -0.75 -11.9 1.3 -10.05 2.3 -11.6 4.8 -13.25 3.25 -10.8 5.95 -8.3 7.55 -10.55 11.2 -11.3 8.75 -8.5 10.15 -6.25 11.7 -7.0 14.9 -4.8 12.9 -5.15 11.5 -3.95 Z" fill="none" stroke="#a8721a" stroke-linecap="round" stroke-linejoin="round" stroke-width="0.05"/>
  </g>
</svg>
