<?xml version="1.0" encoding="UTF-8" standalone="no"?>
<svg xmlns:xlink="http://www.w3.org/1999/xlink" height="11.4px" width="10.2px" xmlns="http://www.w3.org/2000/svg">
  <g transform="matrix(1.0, 0.0, 0.0, 1.0, 6.35, 5.4)">
    <path d="M-0.1 -4.75 L2.75 -0.7 3.2 -0.05 Q5.0 4.45 2.0 5.8 -1.05 6.5 -3.0 5.0 -3.7 4.3 -4.25 2.25 -5.65 1.6 -5.85 -0.3 -5.6 -0.95 -6.35 -3.0 -5.0 -2.35 -2.55 -3.0 -0.45 -3.85 -0.1 -4.75 M2.75 -0.7 Q3.6 1.6 1.95 1.4 -0.15 0.05 -2.35 2.3 -3.25 3.35 -5.85 -0.3 -3.25 3.35 -2.35 2.3 -0.15 0.05 1.95 1.4 3.6 1.6 2.75 -0.7" fill="#64889b" fill-rule="evenodd" stroke="none"/>
    <path d="M-6.35 -3.0 Q-5.95 -4.5 -3.85 -5.15 -1.8 -5.8 -0.1 -4.75 -0.45 -3.85 -2.55 -3.0 -5.0 -2.35 -6.35 -3.0" fill="#4e517a" fill-rule="evenodd" stroke="none"/>
    <path d="M-0.1 -4.75 L2.75 -0.7 3.2 -0.05 Q5.0 4.45 2.0 5.8 M-3.0 5.0 Q-3.7 4.3 -4.25 2.25 -5.65 1.6 -5.85 -0.3 -5.6 -0.95 -6.35 -3.0 -5.95 -4.5 -3.85 -5.15 -1.8 -5.8 -0.1 -4.75 -0.45 -3.85 -2.55 -3.0 -5.0 -2.35 -6.35 -3.0 M-5.85 -0.3 Q-3.25 3.35 -2.35 2.3 -0.15 0.05 1.95 1.4 3.6 1.6 2.75 -0.7" fill="none" stroke="#3f3872" stroke-linecap="round" stroke-linejoin="round" stroke-width="0.05"/>
    <path d="M2.0 5.8 Q-1.05 6.5 -3.0 5.0" fill="none" stroke="#3f3872" stroke-linecap="round" stroke-linejoin="round" stroke-width="0.05"/>
  </g>
</svg>
