<?xml version="1.0" encoding="UTF-8" standalone="no"?>
<svg xmlns:xlink="http://www.w3.org/1999/xlink" height="130.2px" width="62.05px" xmlns="http://www.w3.org/2000/svg">
  <g transform="matrix(1.0, 0.0, 0.0, 1.0, 56.75, 5.55)">
    <path d="M-9.1 -2.55 L-6.25 -4.3 Q-4.75 -5.35 -2.75 -5.5 0.35 -5.75 2.65 -3.8 5.0 -1.85 5.25 1.2 5.5 4.25 3.55 6.6 L1.25 8.45 -34.35 32.5 -34.1 38.45 Q-45.5 25.45 -30.8 23.1 L-1.65 3.65 Q-3.65 -0.9 -9.1 -2.55 M-33.35 55.6 L-31.45 100.85 Q-35.7 96.05 -40.4 102.05 L-47.65 67.9 -40.25 89.95 -33.35 55.6" fill="#742d3b" fill-rule="evenodd" stroke="none"/>
    <path d="M-52.7 51.3 L-56.25 33.9 Q-58.9 21.95 -47.1 14.45 L-16.45 -3.5 Q-12.25 -3.5 -9.1 -2.55 -3.65 -0.9 -1.65 3.65 L-30.8 23.1 Q-45.5 25.45 -34.1 38.45 L-30.65 42.0 -33.35 55.6 -40.25 89.95 -47.65 67.9 -51.85 55.4 -52.0 54.75 Q-50.95 55.95 -49.85 59.65 -48.25 64.85 -44.65 63.95 L-44.9 62.0 Q-48.05 61.75 -49.35 56.8 -50.5 51.85 -52.7 51.3 M-46.4 45.65 Q-48.1 45.8 -48.95 48.15 -49.75 50.5 -49.25 53.7 -48.75 56.9 -47.2 59.0 -45.65 61.15 -43.95 61.0 -42.3 60.9 -41.4 58.55 -40.55 56.25 -41.05 53.05 -41.55 49.85 -43.15 47.7 -44.75 45.55 -46.4 45.65 M-42.55 61.45 L-42.25 63.35 Q-37.6 62.7 -37.15 57.15 -36.7 51.55 -35.05 50.7 L-36.05 48.15 Q-38.65 49.65 -38.6 54.7 -38.75 59.9 -42.55 61.45" fill="#dc7b77" fill-rule="evenodd" stroke="none"/>
    <path d="M-31.45 100.85 L-36.5 124.65 -40.4 102.05 Q-35.7 96.05 -31.45 100.85" fill="#ebebeb" fill-rule="evenodd" stroke="none"/>
    <path d="M-46.4 45.65 Q-44.75 45.55 -43.15 47.7 -41.55 49.85 -41.05 53.05 -40.55 56.25 -41.4 58.55 -42.3 60.9 -43.95 61.0 -45.65 61.15 -47.2 59.0 -48.75 56.9 -49.25 53.7 -49.75 50.5 -48.95 48.15 -48.1 45.8 -46.4 45.65" fill="#e6e497" fill-rule="evenodd" stroke="none"/>
    <path d="M-52.0 54.75 L-52.7 51.3 Q-50.5 51.85 -49.35 56.8 -48.05 61.75 -44.9 62.0 L-44.65 63.95 Q-48.25 64.85 -49.85 59.65 -50.95 55.95 -52.0 54.75 M-42.55 61.45 Q-38.75 59.9 -38.6 54.7 -38.65 49.65 -36.05 48.15 L-35.05 50.7 Q-36.7 51.55 -37.15 57.15 -37.6 62.7 -42.25 63.35 L-42.55 61.45" fill="#aeddc9" fill-rule="evenodd" stroke="none"/>
    <path d="M-9.1 -2.55 L-6.25 -4.3 Q-4.75 -5.35 -2.75 -5.5 0.35 -5.75 2.65 -3.8 5.0 -1.85 5.25 1.2 5.5 4.25 3.55 6.6 L1.25 8.45 -34.35 32.5 -34.1 38.45 M-33.35 55.6 L-31.45 100.85 M-40.4 102.05 L-47.65 67.9 -51.85 55.4" fill="none" stroke="#451b24" stroke-linecap="round" stroke-linejoin="round" stroke-width="0.05"/>
    <path d="M-52.7 51.3 L-56.25 33.9 Q-58.9 21.95 -47.1 14.45 L-16.45 -3.5 Q-12.25 -3.5 -9.1 -2.55 -3.65 -0.9 -1.65 3.65 L-30.8 23.1 Q-45.5 25.45 -34.1 38.45 L-30.65 42.0 -33.35 55.6 -40.25 89.95 -47.65 67.9 M-51.85 55.4 L-52.0 54.75 -52.7 51.3 Q-50.5 51.85 -49.35 56.8 -48.05 61.75 -44.9 62.0 M-49.85 59.65 Q-50.95 55.95 -52.0 54.75" fill="none" stroke="#932222" stroke-linecap="round" stroke-linejoin="round" stroke-width="0.05"/>
    <path d="M-31.45 100.85 L-36.5 124.65 -40.4 102.05 Q-35.7 96.05 -31.45 100.85" fill="none" stroke="#828282" stroke-linecap="round" stroke-linejoin="round" stroke-width="0.05"/>
    <path d="M-44.9 62.0 L-44.65 63.95 Q-48.25 64.85 -49.85 59.65 M-42.55 61.45 Q-38.75 59.9 -38.6 54.7 -38.65 49.65 -36.05 48.15 L-35.05 50.7 Q-36.7 51.55 -37.15 57.15 -37.6 62.7 -42.25 63.35 L-42.55 61.45" fill="none" stroke="#42625a" stroke-linecap="round" stroke-linejoin="round" stroke-width="0.05"/>
    <path d="M-46.4 45.65 Q-44.75 45.55 -43.15 47.7 -41.55 49.85 -41.05 53.05 -40.55 56.25 -41.4 58.55 -42.3 60.9 -43.95 61.0 -45.65 61.15 -47.2 59.0 -48.75 56.9 -49.25 53.7 -49.75 50.5 -48.95 48.15 -48.1 45.8 -46.4 45.65" fill="none" stroke="#a2982d" stroke-linecap="round" stroke-linejoin="round" stroke-width="0.05"/>
  </g>
</svg>
