<?xml version="1.0" encoding="UTF-8" standalone="no"?>
<svg xmlns:xlink="http://www.w3.org/1999/xlink" height="70.25px" width="70.15px" xmlns="http://www.w3.org/2000/svg">
  <g transform="matrix(1.0, 0.0, 0.0, 1.0, 27.35, 36.15)">
    <path d="M23.8 -4.55 Q22.5 -11.0 17.8 -15.95 11.25 -22.75 2.1 -22.75 -4.15 -22.75 -9.15 -19.6 -7.25 -24.35 -3.55 -28.25 4.0 -36.15 14.65 -36.15 25.3 -36.15 32.9 -28.25 39.65 -21.15 40.4 -11.5 39.45 -8.15 35.75 -5.2 L32.35 -4.85 Q29.5 -2.6 24.2 -1.45 L23.8 -4.55" fill="#d2c4dd" fill-rule="evenodd" stroke="none"/>
    <path d="M3.8 -2.8 L-1.5 -6.0 Q-4.0 -3.15 -5.5 -0.75 L-3.85 -0.05 Q-2.8 -1.95 -0.95 -3.25 L2.55 -1.6 Q2.95 -2.4 3.8 -2.8 M-9.15 -19.6 Q-4.15 -22.75 2.1 -22.75 11.25 -22.75 17.8 -15.95 22.5 -11.0 23.8 -4.55 22.3 8.7 5.3 9.25 5.0 6.45 3.1 4.35 0.95 2.0 -2.1 2.0 -5.15 2.0 -7.35 4.35 -8.8 6.0 -9.25 8.1 L-9.4 8.75 Q-13.55 7.85 -16.6 5.2 -15.55 3.45 -15.2 -0.05 -15.3 -6.1 -18.5 -8.3 -16.85 -12.5 -13.6 -15.95 -11.5 -18.15 -9.15 -19.6 M10.85 22.6 Q6.05 39.85 -10.65 31.2 -2.85 30.85 -1.35 23.7 -5.75 27.45 -10.35 26.7 -7.6 24.7 -8.55 22.7 -5.3 23.6 -1.35 23.7 4.1 23.85 10.85 22.6 M-16.2 18.85 Q-18.0 18.7 -18.6 21.9 -20.25 19.35 -20.0 16.55 -23.9 16.1 -26.25 23.4 -30.3 13.1 -19.25 6.85 -19.85 10.65 -19.3 13.75 L-18.6 16.4 -16.2 18.85 M-12.35 -10.65 Q-13.75 -8.2 -14.15 -6.6 L-13.35 -5.25 Q-12.75 -8.25 -10.0 -11.2 L-12.0 -12.9 Q-13.05 -12.5 -13.1 -11.35 L-12.35 -10.65 M-7.05 -10.95 L-7.2 -11.0 Q-8.65 -11.35 -10.0 -10.3 -11.35 -9.25 -11.8 -7.35 -12.35 -5.45 -11.7 -3.9 -11.05 -2.3 -9.65 -1.9 L-8.8 -1.8 -8.6 -1.75 Q-7.2 -1.4 -5.85 -2.45 -4.5 -3.45 -4.0 -5.35 -3.5 -7.3 -4.15 -8.85 -4.8 -10.45 -6.2 -10.85 L-7.05 -10.95 M-20.0 16.55 Q-19.9 15.2 -19.3 13.75 -19.9 15.2 -20.0 16.55" fill="#ece5d3" fill-rule="evenodd" stroke="none"/>
    <path d="M24.2 -1.45 Q29.5 -2.6 32.35 -4.85 L35.75 -5.2 Q39.45 -8.15 40.4 -11.5 L40.45 -9.2 Q40.45 -4.2 38.9 0.15 L40.5 1.4 Q42.8 3.7 42.8 6.95 42.8 10.2 40.5 12.55 38.2 14.85 34.95 14.85 L33.6 14.75 Q33.15 17.0 31.45 18.75 29.15 21.05 25.9 21.05 22.65 21.05 20.35 18.75 L19.35 17.55 19.8 16.95 Q22.25 13.6 22.95 8.6 L23.8 5.6 25.9 5.35 27.25 5.45 Q29.65 5.8 31.45 7.65 32.4 8.6 32.95 9.7 33.75 11.25 33.75 13.15 L33.6 14.75 33.75 13.15 Q33.75 11.25 32.95 9.7 32.4 8.6 31.45 7.65 29.65 5.8 27.25 5.45 L25.9 5.35 23.8 5.6 Q24.3 3.15 24.3 0.5 L24.2 -1.45 M27.25 5.45 Q27.7 3.15 29.45 1.4 31.7 -0.9 34.95 -0.9 37.15 -0.9 38.9 0.15 37.15 -0.9 34.95 -0.9 31.7 -0.9 29.45 1.4 27.7 3.15 27.25 5.45" fill="#9c7fb8" fill-rule="evenodd" stroke="none"/>
    <path d="M-18.5 -8.3 Q-15.3 -6.1 -15.2 -0.05 -15.55 3.45 -16.6 5.2 L-17.7 6.4 Q-18.4 6.85 -19.25 6.85 -20.7 6.3 -21.8 4.75 -23.45 2.5 -23.45 -0.65 -23.45 -3.85 -21.8 -6.1 -20.4 -8.05 -18.5 -8.3 M-9.4 8.75 L-9.25 8.1 Q-8.8 6.0 -7.35 4.35 -5.15 2.0 -2.1 2.0 0.95 2.0 3.1 4.35 5.0 6.45 5.3 9.25 L5.3 10.1 Q5.3 13.4 3.1 15.8 0.95 18.2 -2.1 18.2 -5.15 18.2 -7.35 15.8 -9.5 13.4 -9.5 10.1 L-9.4 8.75 M-19.05 -2.8 L-18.95 -3.65 Q-18.95 -4.65 -19.4 -5.4 -19.85 -6.1 -20.5 -6.1 -21.15 -6.1 -21.6 -5.4 -22.05 -4.65 -22.05 -3.7 L-21.8 -2.35 Q-22.45 -1.25 -22.45 0.25 -22.45 1.8 -21.8 2.85 -21.2 3.95 -20.3 3.95 -19.4 3.95 -18.8 2.85 -18.15 1.8 -18.15 0.25 -18.15 -1.3 -18.8 -2.4 L-19.05 -2.8 M-1.8 7.3 Q-1.85 6.35 -2.5 5.7 -3.2 5.0 -4.25 5.05 -5.2 5.0 -5.95 5.7 -6.65 6.45 -6.65 7.45 L-6.4 8.5 -6.3 8.75 Q-6.7 9.6 -6.7 10.7 -6.7 12.3 -5.75 13.45 -4.8 14.6 -3.4 14.6 -2.1 14.6 -1.15 13.45 -0.15 12.3 -0.15 10.7 -0.15 9.85 -0.4 9.15 -0.7 8.5 -1.15 7.95 L-1.7 7.35 -1.8 7.3 M16.0 12.05 Q17.3 13.35 17.35 15.2 17.3 17.0 16.0 18.3 14.7 19.6 12.9 19.65 11.05 19.6 9.75 18.3 8.4 17.0 8.4 15.2 8.4 13.35 9.75 12.05 11.05 10.7 12.9 10.7 14.7 10.7 16.0 12.05 M12.9 12.65 L12.7 12.6 Q12.3 12.3 11.75 12.3 11.1 12.3 10.65 12.75 10.2 13.2 10.2 13.8 9.85 14.35 9.85 15.15 9.8 16.2 10.55 16.95 11.3 17.65 12.35 17.7 13.4 17.65 14.15 16.95 14.85 16.2 14.9 15.15 14.85 14.05 14.15 13.3 13.6 12.8 12.9 12.65" fill="#9dadf0" fill-rule="evenodd" stroke="none"/>
    <path d="M-19.05 -2.8 L-18.8 -2.4 Q-18.15 -1.3 -18.15 0.25 -18.15 1.8 -18.8 2.85 -19.4 3.95 -20.3 3.95 -21.2 3.95 -21.8 2.85 -22.45 1.8 -22.45 0.25 -22.45 -1.25 -21.8 -2.35 L-21.6 -1.95 Q-21.15 -1.25 -20.5 -1.25 -19.85 -1.25 -19.4 -1.95 L-19.05 -2.8 M-1.7 7.35 L-1.15 7.95 Q-0.7 8.5 -0.4 9.15 -0.15 9.85 -0.15 10.7 -0.15 12.3 -1.15 13.45 -2.1 14.6 -3.4 14.6 -4.8 14.6 -5.75 13.45 -6.7 12.3 -6.7 10.7 -6.7 9.6 -6.3 8.75 L-5.95 9.15 Q-5.2 9.9 -4.25 9.9 -3.2 9.9 -2.5 9.15 L-2.35 9.0 Q-1.8 8.35 -1.8 7.5 L-1.7 7.35 M12.9 12.65 Q13.6 12.8 14.15 13.3 14.85 14.05 14.9 15.15 14.85 16.2 14.15 16.95 13.4 17.65 12.35 17.7 11.3 17.65 10.55 16.95 9.8 16.2 9.85 15.15 9.85 14.35 10.2 13.8 L10.2 13.85 Q10.2 14.5 10.65 15.0 11.1 15.45 11.75 15.45 12.4 15.45 12.9 15.0 13.35 14.55 13.35 13.9 13.35 13.25 12.9 12.75 L12.9 12.65" fill="#0a0c0c" fill-rule="evenodd" stroke="none"/>
    <path d="M3.8 -2.8 Q2.95 -2.4 2.55 -1.6 L-0.95 -3.25 Q-2.8 -1.95 -3.85 -0.05 L-5.5 -0.75 Q-4.0 -3.15 -1.5 -6.0 L3.8 -2.8 M-12.35 -10.65 L-13.1 -11.35 Q-13.05 -12.5 -12.0 -12.9 L-10.0 -11.2 Q-12.75 -8.25 -13.35 -5.25 L-14.15 -6.6 Q-13.75 -8.2 -12.35 -10.65 M-7.05 -10.95 L-6.2 -10.85 Q-4.8 -10.45 -4.15 -8.85 -3.5 -7.3 -4.0 -5.35 -4.5 -3.45 -5.85 -2.45 -7.2 -1.4 -8.6 -1.75 L-8.65 -1.8 Q-7.75 -1.9 -6.85 -2.6 -5.55 -3.6 -5.0 -5.5 -4.55 -7.45 -5.15 -9.0 -5.75 -10.5 -7.05 -10.95" fill="#81c8b8" fill-rule="evenodd" stroke="none"/>
    <path d="M-9.1 -7.6 L-9.4 -7.6 Q-10.25 -7.6 -10.85 -7.0 -11.45 -6.45 -11.45 -5.6 -11.45 -4.75 -10.85 -4.15 -10.25 -3.55 -9.4 -3.55 -8.55 -3.55 -7.95 -4.1 L-7.7 -4.1 Q-6.85 -4.1 -6.25 -4.65 -5.65 -5.25 -5.65 -6.15 -5.65 -7.0 -6.25 -7.55 -6.85 -8.15 -7.7 -8.15 -8.55 -8.15 -9.1 -7.6 M-8.8 -1.8 L-9.65 -1.9 Q-11.05 -2.3 -11.7 -3.9 -12.35 -5.45 -11.8 -7.35 -11.35 -9.25 -10.0 -10.3 -8.65 -11.35 -7.2 -11.0 L-7.05 -10.95 Q-5.75 -10.5 -5.15 -9.0 -4.55 -7.45 -5.0 -5.5 -5.55 -3.6 -6.85 -2.6 -7.75 -1.9 -8.65 -1.8 L-8.8 -1.8" fill="#a7383c" fill-rule="evenodd" stroke="none"/>
    <path d="M-9.1 -7.6 Q-8.55 -8.15 -7.7 -8.15 -6.85 -8.15 -6.25 -7.55 -5.65 -7.0 -5.65 -6.15 -5.65 -5.25 -6.25 -4.65 -6.85 -4.1 -7.7 -4.1 L-7.95 -4.1 -7.95 -4.15 Q-7.35 -4.75 -7.35 -5.6 -7.35 -6.45 -7.95 -7.0 -8.45 -7.5 -9.1 -7.6" fill="#021204" fill-rule="evenodd" stroke="none"/>
    <path d="M-7.95 -4.1 Q-8.55 -3.55 -9.4 -3.55 -10.25 -3.55 -10.85 -4.15 -11.45 -4.75 -11.45 -5.6 -11.45 -6.45 -10.85 -7.0 -10.25 -7.6 -9.4 -7.6 L-9.1 -7.6 Q-8.45 -7.5 -7.95 -7.0 -7.35 -6.45 -7.35 -5.6 -7.35 -4.75 -7.95 -4.15 L-7.95 -4.1" fill="#de8f8b" fill-rule="evenodd" stroke="none"/>
    <path d="M-21.8 -2.35 L-22.05 -3.7 Q-22.05 -4.65 -21.6 -5.4 -21.15 -6.1 -20.5 -6.1 -19.85 -6.1 -19.4 -5.4 -18.95 -4.65 -18.95 -3.65 L-19.05 -2.8 -19.4 -1.95 Q-19.85 -1.25 -20.5 -1.25 -21.15 -1.25 -21.6 -1.95 L-21.8 -2.35 M-6.3 8.75 L-6.4 8.5 -6.65 7.45 Q-6.65 6.45 -5.95 5.7 -5.2 5.0 -4.25 5.05 -3.2 5.0 -2.5 5.7 -1.85 6.35 -1.8 7.3 L-1.8 7.5 Q-1.8 8.35 -2.35 9.0 L-2.5 9.15 Q-3.2 9.9 -4.25 9.9 -5.2 9.9 -5.95 9.15 L-6.3 8.75 M10.2 13.8 Q10.2 13.2 10.65 12.75 11.1 12.3 11.75 12.3 12.3 12.3 12.7 12.6 L12.9 12.65 12.9 12.75 Q13.35 13.25 13.35 13.9 13.35 14.55 12.9 15.0 12.4 15.45 11.75 15.45 11.1 15.45 10.65 15.0 10.2 14.5 10.2 13.85 L10.2 13.8" fill="#ffffff" fill-rule="evenodd" stroke="none"/>
    <path d="M23.8 -4.55 L24.2 -1.45 24.3 0.5 Q24.3 3.15 23.8 5.6 L22.95 8.6 Q22.25 13.6 19.8 16.95 L19.35 17.55 Q16.7 20.8 12.25 22.35 L10.85 22.6 Q4.1 23.85 -1.35 23.7 -5.3 23.6 -8.55 22.7 -13.05 21.5 -16.2 18.85 L-18.6 16.4 -19.3 13.75 Q-19.85 10.65 -19.25 6.85 -18.4 6.85 -17.7 6.4 L-16.6 5.2 Q-13.55 7.85 -9.4 8.75 L-9.5 10.1 Q-9.5 13.4 -7.35 15.8 -5.15 18.2 -2.1 18.2 0.95 18.2 3.1 15.8 5.3 13.4 5.3 10.1 L5.3 9.25 Q22.3 8.7 23.8 -4.55 M16.0 12.05 Q14.7 10.7 12.9 10.7 11.05 10.7 9.75 12.05 8.4 13.35 8.4 15.2 8.4 17.0 9.75 18.3 11.05 19.6 12.9 19.65 14.7 19.6 16.0 18.3 17.3 17.0 17.35 15.2 17.3 13.35 16.0 12.05" fill="#edc05b" fill-rule="evenodd" stroke="none"/>
    <path d="M-9.15 -19.6 Q-4.15 -22.75 2.1 -22.75 11.25 -22.75 17.8 -15.95 22.5 -11.0 23.8 -4.55 22.3 8.7 5.3 9.25 M-9.15 -19.6 Q-11.5 -18.15 -13.6 -15.95 -16.85 -12.5 -18.5 -8.3 M-16.6 5.2 Q-13.55 7.85 -9.4 8.75 M10.85 22.6 Q6.05 39.85 -10.65 31.2 -2.85 30.85 -1.35 23.7 -5.75 27.45 -10.35 26.7 -7.6 24.7 -8.55 22.7 -5.3 23.6 -1.35 23.7 4.1 23.85 10.85 22.6 M-16.2 18.85 Q-18.0 18.7 -18.6 21.9 -20.25 19.35 -20.0 16.55 -23.9 16.1 -26.25 23.4 -30.3 13.1 -19.25 6.85 -19.85 10.65 -19.3 13.75 L-18.6 16.4 -16.2 18.85 M-7.95 -4.1 L-7.95 -4.15 M-8.6 -1.75 L-8.8 -1.8 -8.65 -1.8 M-19.3 13.75 Q-19.9 15.2 -20.0 16.55" fill="none" stroke="#816b3a" stroke-linecap="round" stroke-linejoin="round" stroke-width="0.05"/>
    <path d="M3.8 -2.8 L-1.5 -6.0 Q-4.0 -3.15 -5.5 -0.75 L-3.85 -0.05 Q-2.8 -1.95 -0.95 -3.25 L2.55 -1.6 Q2.95 -2.4 3.8 -2.8 M-12.35 -10.65 Q-13.75 -8.2 -14.15 -6.6 L-13.35 -5.25 Q-12.75 -8.25 -10.0 -11.2 L-12.0 -12.9 Q-13.05 -12.5 -13.1 -11.35 L-12.35 -10.65 M-7.05 -10.95 L-6.2 -10.85 Q-4.8 -10.45 -4.15 -8.85 -3.5 -7.3 -4.0 -5.35 -4.5 -3.45 -5.85 -2.45 -7.2 -1.4 -8.6 -1.75" fill="none" stroke="#2e5c5b" stroke-linecap="round" stroke-linejoin="round" stroke-width="0.05"/>
    <path d="M-8.8 -1.8 L-9.65 -1.9 Q-11.05 -2.3 -11.7 -3.9 -12.35 -5.45 -11.8 -7.35 -11.35 -9.25 -10.0 -10.3 -8.65 -11.35 -7.2 -11.0 L-7.05 -10.95 Q-5.75 -10.5 -5.15 -9.0 -4.55 -7.45 -5.0 -5.5 -5.55 -3.6 -6.85 -2.6 -7.75 -1.9 -8.65 -1.8" fill="none" stroke="#5e2d46" stroke-linecap="round" stroke-linejoin="round" stroke-width="0.05"/>
    <path d="M-18.5 -8.3 Q-15.3 -6.1 -15.2 -0.05 -15.55 3.45 -16.6 5.2 L-17.7 6.4 Q-18.4 6.85 -19.25 6.85 -20.7 6.3 -21.8 4.75 -23.45 2.5 -23.45 -0.65 -23.45 -3.85 -21.8 -6.1 -20.4 -8.05 -18.5 -8.3 M-9.4 8.75 L-9.25 8.1 Q-8.8 6.0 -7.35 4.35 -5.15 2.0 -2.1 2.0 0.95 2.0 3.1 4.35 5.0 6.45 5.3 9.25 L5.3 10.1 Q5.3 13.4 3.1 15.8 0.95 18.2 -2.1 18.2 -5.15 18.2 -7.35 15.8 -9.5 13.4 -9.5 10.1 L-9.4 8.75 M-1.8 7.3 L-1.7 7.35 M-1.8 7.5 L-1.8 7.3 M16.0 12.05 Q17.3 13.35 17.35 15.2 17.3 17.0 16.0 18.3 14.7 19.6 12.9 19.65 11.05 19.6 9.75 18.3 8.4 17.0 8.4 15.2 8.4 13.35 9.75 12.05 11.05 10.7 12.9 10.7 14.7 10.7 16.0 12.05" fill="none" stroke="#1c3dac" stroke-linecap="round" stroke-linejoin="round" stroke-width="0.05"/>
    <path d="M23.8 -4.55 L24.2 -1.45 24.3 0.5 Q24.3 3.15 23.8 5.6 L22.95 8.6 Q22.25 13.6 19.8 16.95 L19.35 17.55 Q16.7 20.8 12.25 22.35 L10.85 22.6 M-8.55 22.7 Q-13.05 21.5 -16.2 18.85" fill="none" stroke="#b4750e" stroke-linecap="round" stroke-linejoin="round" stroke-width="0.05"/>
    <path d="M40.4 -11.5 Q39.65 -21.15 32.9 -28.25 25.3 -36.15 14.65 -36.15 4.0 -36.15 -3.55 -28.25 -7.25 -24.35 -9.15 -19.6 M40.4 -11.5 L40.45 -9.2 Q40.45 -4.2 38.9 0.15 L40.5 1.4 Q42.8 3.7 42.8 6.95 42.8 10.2 40.5 12.55 38.2 14.85 34.95 14.85 L33.6 14.75 Q33.15 17.0 31.45 18.75 29.15 21.05 25.9 21.05 22.65 21.05 20.35 18.75 L19.35 17.55 M33.6 14.75 L33.75 13.15 Q33.75 11.25 32.95 9.7 32.4 8.6 31.45 7.65 29.65 5.8 27.25 5.45 L25.9 5.35 23.8 5.6 M38.9 0.15 Q37.15 -0.9 34.95 -0.9 31.7 -0.9 29.45 1.4 27.7 3.15 27.25 5.45" fill="none" stroke="#594273" stroke-linecap="round" stroke-linejoin="round" stroke-width="0.05"/>
  </g>
</svg>
