<?xml version="1.0" encoding="UTF-8" standalone="no"?>
<svg xmlns:xlink="http://www.w3.org/1999/xlink" height="43.55px" width="42.0px" xmlns="http://www.w3.org/2000/svg">
  <g transform="matrix(1.0, 0.0, 0.0, 1.0, 21.0, 21.75)">
    <path d="M-4.3 -16.9 L-4.65 -16.9 Q-11.1 -16.8 -15.35 -11.7 -19.7 -6.5 -20.1 -0.05 -20.5 6.35 -15.75 11.2 -13.25 13.75 -10.15 14.95 -7.45 16.0 -4.3 16.0 2.35 16.0 6.95 11.5 11.55 6.95 11.65 -0.05 11.7 -7.05 7.05 -12.0 2.35 -16.95 -4.3 -16.9 M7.6 -20.35 Q11.65 -18.75 14.95 -15.25 21.1 -8.7 21.0 0.55 20.9 9.8 14.85 15.8 8.9 21.65 0.3 21.8 L-0.1 21.8 Q-8.95 21.8 -15.25 15.4 -21.5 9.05 -20.95 0.55 -20.45 -8.0 -14.65 -14.85 -8.9 -21.75 -0.05 -21.75 4.05 -21.8 7.6 -20.35" fill="#c03838" fill-rule="evenodd" stroke="none"/>
    <path d="M-4.3 -16.9 Q2.35 -16.95 7.05 -12.0 11.7 -7.05 11.65 -0.05 11.55 6.95 6.95 11.5 2.35 16.0 -4.3 16.0 -7.45 16.0 -10.15 14.95 -13.25 13.75 -15.75 11.2 -20.5 6.35 -20.1 -0.05 -19.7 -6.5 -15.35 -11.7 -11.1 -16.8 -4.65 -16.9 L-4.3 -16.9" fill="#d26262" fill-rule="evenodd" stroke="none"/>
    <path d="M7.6 -20.35 Q11.65 -18.75 14.95 -15.25 21.1 -8.7 21.0 0.55 20.9 9.8 14.85 15.8 8.9 21.65 0.3 21.8 L-0.1 21.8 Q-8.95 21.8 -15.25 15.4 -21.5 9.05 -20.95 0.55 -20.45 -8.0 -14.65 -14.85 -8.9 -21.75 -0.05 -21.75 4.05 -21.8 7.6 -20.35 Z" fill="none" stroke="#374e32" stroke-linecap="round" stroke-linejoin="round" stroke-width="0.05"/>
  </g>
</svg>
