<?xml version="1.0" encoding="UTF-8" standalone="no"?>
<svg xmlns:xlink="http://www.w3.org/1999/xlink" height="42.35px" width="43.5px" xmlns="http://www.w3.org/2000/svg">
  <g transform="matrix(1.0, 0.0, 0.0, 1.0, 21.6, 20.7)">
    <path d="M10.75 -1.15 Q10.8 -8.0 6.25 -12.85 1.7 -17.65 -4.8 -17.65 L-5.15 -17.65 Q-11.45 -17.5 -15.6 -12.55 -19.85 -7.5 -20.2 -1.2 -20.35 1.15 -19.8 3.3 L-19.35 4.65 Q-18.35 7.4 -16.0 9.8 -13.55 12.3 -10.55 13.5 L-7.75 14.25 -6.8 14.4 -6.35 14.45 -4.8 14.5 Q1.7 14.5 6.15 10.05 10.65 5.65 10.75 -1.15 M18.95 -10.3 Q23.2 -3.15 21.3 5.2 L21.2 5.55 Q19.1 14.15 11.4 18.75 3.75 23.25 -4.35 20.75 -12.5 18.2 -17.75 11.0 -23.1 3.75 -21.0 -4.8 -20.05 -8.8 -17.85 -11.85 -15.3 -15.4 -11.15 -17.75 -3.35 -22.2 5.65 -19.9 14.55 -17.6 18.95 -10.3" fill="#c03838" fill-rule="evenodd" stroke="none"/>
    <path d="M10.75 -1.15 Q10.65 5.65 6.15 10.05 1.7 14.5 -4.8 14.5 L-6.35 14.45 -6.8 14.4 -7.75 14.25 -10.55 13.5 Q-13.55 12.3 -16.0 9.8 -18.35 7.4 -19.35 4.65 L-19.8 3.3 Q-20.35 1.15 -20.2 -1.2 -19.85 -7.5 -15.6 -12.55 -11.45 -17.5 -5.15 -17.65 L-4.8 -17.65 Q1.7 -17.65 6.25 -12.85 10.8 -8.0 10.75 -1.15" fill="#d26262" fill-rule="evenodd" stroke="none"/>
    <path d="M18.95 -10.3 Q23.2 -3.15 21.3 5.2 L21.2 5.55 Q19.1 14.15 11.4 18.75 3.75 23.25 -4.35 20.75 -12.5 18.2 -17.75 11.0 -23.1 3.75 -21.0 -4.8 -20.05 -8.8 -17.85 -11.85 -15.3 -15.4 -11.15 -17.75 -3.35 -22.2 5.65 -19.9 14.55 -17.6 18.95 -10.3 Z" fill="none" stroke="#374e32" stroke-linecap="round" stroke-linejoin="round" stroke-width="0.05"/>
  </g>
</svg>
