<?xml version="1.0" encoding="UTF-8" standalone="no"?>
<svg xmlns:xlink="http://www.w3.org/1999/xlink" height="6.35px" width="6.5px" xmlns="http://www.w3.org/2000/svg">
  <g transform="matrix(1.0, 0.0, 0.0, 1.0, 3.65, 4.2)">
    <path d="M-3.65 -2.1 Q-2.15 -3.7 -0.95 -3.95 L0.45 -4.2 0.8 -4.1 1.0 -3.95 1.4 -3.6 2.35 -2.25 Q3.15 -0.55 2.7 0.65 L2.65 0.7 2.45 1.0 2.4 1.0 1.95 1.05 1.1 1.1 0.45 1.1 -0.45 0.85 -1.2 0.5 -1.85 0.05 -2.35 -0.4 -2.85 -0.9 -3.65 -2.1" fill="#5a7e5f" fill-rule="evenodd" stroke="none"/>
    <path d="M-3.65 -2.1 L-2.85 -0.9 -2.35 -0.4 -1.85 0.05 -1.2 0.5 -0.45 0.85 0.45 1.1 1.1 1.1 1.95 1.05 2.4 1.0 2.45 1.0 2.4 1.1 2.0 1.45 1.25 1.9 0.55 2.15 -0.2 2.0 -1.0 1.65 -1.7 1.2 -2.3 0.75 -2.95 0.05 -3.45 -0.8 -3.65 -2.1" fill="#537557" fill-rule="evenodd" stroke="none"/>
    <path d="M1.0 -3.95 L0.8 -4.1 0.45 -4.2 -0.95 -3.95 Q-2.15 -3.7 -3.65 -2.1 L-3.45 -0.8 -2.95 0.05 -2.3 0.75 -1.7 1.2 -1.0 1.65 -0.2 2.0 0.55 2.15 1.25 1.9 2.0 1.45 2.4 1.1 2.45 1.0 2.65 0.7" fill="none" stroke="#374e32" stroke-linecap="round" stroke-linejoin="round" stroke-width="0.05"/>
  </g>
</svg>
