<?xml version="1.0" encoding="UTF-8" standalone="no"?>
<svg xmlns:xlink="http://www.w3.org/1999/xlink" height="22.35px" width="18.2px" xmlns="http://www.w3.org/2000/svg">
  <g transform="matrix(1.0, 0.0, 0.0, 1.0, 2.05, 19.35)">
    <path d="M12.05 -13.45 L11.75 -12.45 Q11.7 -11.4 11.95 -11.25 12.15 -11.15 13.05 -12.0 L13.45 -12.4 13.55 -12.3 14.9 -10.5 15.25 -9.9 13.4 -9.1 Q11.75 -8.45 11.45 -7.7 11.15 -7.05 11.45 -6.9 L13.2 -7.25 Q14.7 -7.7 15.55 -8.45 L15.7 -8.6 Q15.75 -7.3 13.9 -6.05 13.15 -5.4 11.85 -5.0 11.3 -4.65 10.75 -4.6 L10.7 -4.75 Q10.5 -5.65 9.7 -5.9 L9.05 -6.05 8.8 -6.05 Q6.95 -6.75 6.2 -5.45 3.6 -4.8 2.1 -5.45 1.8 -6.5 1.25 -6.45 L0.35 -6.5 0.0 -6.45 Q-0.5 -6.25 -0.45 -5.3 L-0.65 -6.15 -1.2 -7.05 -1.35 -7.45 -0.8 -7.45 Q0.05 -7.55 0.0 -7.85 L-1.3 -8.85 -0.9 -9.65 -0.9 -9.7 -0.8 -9.8 Q-0.1 -11.05 1.15 -12.5 L1.15 -12.45 1.5 -12.9 2.35 -13.65 2.45 -13.75 2.0 -13.3 Q0.7 -11.85 1.2 -8.2 L2.4 -6.85 5.9 -6.85 7.55 -7.65 Q7.25 -12.05 10.85 -13.4 L11.65 -13.65 12.05 -13.45 M2.25 -4.85 L2.25 -4.9 5.95 -4.8 Q6.85 -3.45 8.2 -3.4 L8.45 -3.45 8.5 -3.45 8.55 -3.4 Q10.1 -2.95 11.9 -3.4 L10.3 -2.45 6.55 -3.2 1.35 -3.0 0.7 -2.7 0.6 -2.8 0.7 -2.7 1.35 -3.0 6.55 -3.2 10.3 -2.45 11.9 -3.4 11.95 -3.4 13.0 -4.2 Q13.55 -2.5 13.2 -0.8 10.15 1.6 7.8 2.5 4.05 3.9 2.1 1.55 L1.45 0.55 Q0.3 -0.85 0.6 -2.8 L-0.4 -4.3 Q0.45 -3.5 1.15 -3.95 L1.3 -3.95 Q1.85 -4.05 2.25 -4.85 M1.95 -1.95 L1.35 -3.0 1.95 -1.95 2.8 -0.3 2.45 0.6 Q4.45 0.2 6.65 0.95 L5.6 -0.4 6.05 -1.65 1.95 -1.95 M6.55 -3.2 L6.05 -1.65 6.55 -3.2 M7.8 2.5 L6.65 0.95 7.8 2.5 M2.1 1.55 L2.45 0.6 2.1 1.55 M-1.25 -7.15 L-1.4 -7.5 -1.35 -7.45 -1.25 -7.15" fill="#5a7e5f" fill-rule="evenodd" stroke="none"/>
    <path d="M-1.35 -7.45 L-1.2 -7.05 -1.25 -7.15 -1.2 -7.05 -1.25 -7.15 -1.35 -7.45 M-0.45 -4.35 L-0.4 -4.3 -0.45 -4.35" fill="#548173" fill-rule="evenodd" stroke="none"/>
    <path d="M0.65 -4.65 L0.55 -5.15 Q0.5 -5.45 0.6 -5.6 L0.65 -5.8 0.8 -5.65 0.9 -5.1 0.85 -4.65 0.7 -4.45 0.65 -4.65 M8.2 -5.05 L8.25 -5.3 8.35 -5.1 8.5 -4.5 8.45 -4.0 8.3 -3.75 8.25 -4.0 8.15 -4.5 8.2 -5.05" fill="#5f0000" fill-rule="evenodd" stroke="none"/>
    <path d="M-0.45 -5.3 Q-0.5 -6.25 0.0 -6.45 L0.35 -6.5 1.25 -6.45 Q1.8 -6.5 2.1 -5.45 L2.25 -4.9 2.25 -4.85 Q1.85 -4.05 1.3 -3.95 L1.15 -3.95 Q0.5 -3.95 -0.4 -5.05 L-0.45 -5.3 M6.2 -5.45 Q6.95 -6.75 8.8 -6.05 L9.7 -5.55 10.3 -4.7 10.35 -4.65 9.8 -3.85 8.55 -3.45 8.5 -3.45 8.45 -3.45 8.2 -3.4 Q6.85 -3.45 5.95 -4.8 L6.2 -5.45 M0.6 -5.6 Q0.5 -5.45 0.55 -5.15 L0.65 -4.65 0.7 -4.45 0.85 -4.65 0.9 -5.1 0.8 -5.65 0.65 -5.8 0.6 -5.6 M8.25 -5.3 L8.2 -5.05 8.15 -4.5 8.25 -4.0 8.3 -3.75 8.45 -4.0 8.5 -4.5 8.35 -5.1 8.25 -5.3" fill="#e8e7fe" fill-rule="evenodd" stroke="none"/>
    <path d="M2.1 -5.45 Q3.6 -4.8 6.2 -5.45 L5.95 -4.8 2.25 -4.9 2.1 -5.45 M1.95 -1.95 L6.05 -1.65 5.6 -0.4 6.65 0.95 Q4.45 0.2 2.45 0.6 L2.8 -0.3 1.95 -1.95" fill="#21382f" fill-rule="evenodd" stroke="none"/>
    <path d="M11.65 -13.65 L10.85 -13.4 Q7.25 -12.05 7.55 -7.65 L5.9 -6.85 2.4 -6.85 1.2 -8.2 Q0.7 -11.85 2.0 -13.3 L2.45 -13.7 2.45 -13.75 2.65 -13.85 2.8 -13.95 4.9 -14.75 5.75 -14.8 7.2 -14.8 Q9.15 -14.75 10.8 -14.05 L11.65 -13.65 M2.95 -7.7 Q2.45 -8.6 2.85 -8.85 L2.35 -9.85 1.8 -8.7 2.95 -7.7 M2.95 -10.8 L2.6 -10.15 3.1 -9.15 4.6 -9.1 5.25 -9.85 4.55 -10.9 2.95 -10.8 M6.25 -8.75 L5.7 -9.5 5.05 -8.75 Q5.5 -8.4 5.3 -7.7 L6.25 -8.75" fill="#ff6699" fill-rule="evenodd" stroke="none"/>
    <path d="M-1.2 -7.05 L-0.65 -6.15 -0.45 -5.3 -0.4 -5.05 Q0.5 -3.95 1.15 -3.95 0.45 -3.5 -0.4 -4.3 L-0.45 -4.35 -1.2 -7.05 M8.8 -6.05 L9.05 -6.05 9.7 -5.9 Q10.5 -5.65 10.7 -4.75 L10.75 -4.6 Q11.3 -4.65 11.85 -5.0 13.15 -5.4 13.9 -6.05 13.75 -5.0 13.0 -4.2 L11.95 -3.4 11.9 -3.4 Q10.1 -2.95 8.55 -3.4 L8.55 -3.45 9.8 -3.85 10.35 -4.65 10.3 -4.7 9.7 -5.55 8.8 -6.05" fill="#476348" fill-rule="evenodd" stroke="none"/>
    <path d="M13.45 -12.4 L13.05 -12.0 Q12.15 -11.15 11.95 -11.25 11.7 -11.4 11.75 -12.45 L12.05 -13.45 12.8 -14.7 14.6 -17.15 15.7 -18.4 Q15.9 -18.3 15.35 -16.8 L14.4 -14.1 13.45 -12.4 M2.0 -13.3 L2.45 -13.75 2.35 -13.65 1.5 -12.9 1.15 -12.45 1.15 -12.5 0.1 -14.95 -0.65 -17.85 Q-1.15 -19.3 -0.9 -19.35 -0.7 -19.45 0.15 -18.0 L1.7 -15.5 2.45 -13.75 2.45 -13.7 2.0 -13.3 M-0.8 -9.8 L-0.9 -9.7 -0.9 -9.65 -1.3 -8.85 0.0 -7.85 Q0.05 -7.55 -0.8 -7.45 L-1.35 -7.45 -1.4 -7.5 -1.4 -7.55 Q-2.95 -9.1 -0.8 -9.8 M15.7 -8.6 L15.55 -8.45 Q14.7 -7.7 13.2 -7.25 L11.45 -6.9 Q11.15 -7.05 11.45 -7.7 11.75 -8.45 13.4 -9.1 L15.25 -9.9 14.9 -10.5 Q16.9 -10.2 15.7 -8.6 M1.5 -12.9 L1.15 -12.5 1.5 -12.9" fill="#9d563c" fill-rule="evenodd" stroke="none"/>
    <path d="M6.25 -8.75 L5.3 -7.7 Q5.5 -8.4 5.05 -8.75 L5.7 -9.5 6.25 -8.75 M2.95 -10.8 L4.55 -10.9 5.25 -9.85 4.6 -9.1 3.1 -9.15 2.6 -10.15 2.95 -10.8 M2.95 -7.7 L1.8 -8.7 2.35 -9.85 2.85 -8.85 Q2.45 -8.6 2.95 -7.7" fill="#d3d301" fill-rule="evenodd" stroke="none"/>
    <path d="M-0.8 -9.8 L-0.9 -9.7 M2.45 -13.75 L2.65 -13.85 2.8 -13.95 4.9 -14.75 5.75 -14.8 7.2 -14.8 Q9.15 -14.75 10.8 -14.05 L11.65 -13.65 M2.25 -4.9 L2.25 -4.85 Q1.85 -4.05 1.3 -3.95 M2.25 -4.9 L2.1 -5.45 M0.6 -5.6 L0.65 -5.8 M0.7 -4.45 L0.65 -4.65 M-0.4 -4.3 L0.6 -2.8 0.7 -2.7 1.35 -3.0 6.55 -3.2 10.3 -2.45 11.9 -3.4 11.95 -3.4 13.0 -4.2 Q13.55 -2.5 13.2 -0.8 10.15 1.6 7.8 2.5 4.05 3.9 2.1 1.55 L1.45 0.55 Q0.3 -0.85 0.6 -2.8 M8.5 -3.45 L8.45 -3.45 M8.2 -3.4 Q6.85 -3.45 5.95 -4.8 L6.2 -5.45 M1.35 -3.0 L1.95 -1.95 6.05 -1.65 6.55 -3.2 M1.95 -1.95 L2.8 -0.3 2.45 0.6 Q4.45 0.2 6.65 0.95 L5.6 -0.4 6.05 -1.65 M8.2 -5.05 L8.25 -5.3 M8.3 -3.75 L8.25 -4.0 M8.5 -3.45 L8.55 -3.45 M13.9 -6.05 Q13.75 -5.0 13.0 -4.2 M2.45 0.6 L2.1 1.55 M6.65 0.95 L7.8 2.5 M-1.25 -7.15 L-1.4 -7.5 M-1.35 -7.45 L-1.25 -7.15 -1.2 -7.05 -0.45 -4.35 -0.4 -4.3 M-1.2 -7.05 L-1.25 -7.15 M-0.4 -5.05 L-0.45 -5.3 -0.4 -5.05" fill="none" stroke="#36544a" stroke-linecap="round" stroke-linejoin="round" stroke-width="0.05"/>
    <path d="M2.45 -13.75 L2.45 -13.7" fill="none" stroke="#6d4e30" stroke-linecap="round" stroke-linejoin="round" stroke-width="0.05"/>
    <path d="M12.05 -13.45 L11.75 -12.45 Q11.7 -11.4 11.95 -11.25 12.15 -11.15 13.05 -12.0 L13.45 -12.4 14.4 -14.1 15.35 -16.8 Q15.9 -18.3 15.7 -18.4 L14.6 -17.15 12.8 -14.7 12.05 -13.45 11.65 -13.65 10.85 -13.4 Q7.25 -12.05 7.55 -7.65 L5.9 -6.85 2.4 -6.85 1.2 -8.2 Q0.7 -11.85 2.0 -13.3 L2.45 -13.75 2.35 -13.65 1.5 -12.9 1.15 -12.45 1.15 -12.5 Q-0.1 -11.05 -0.8 -9.8 -2.95 -9.1 -1.4 -7.55 L-1.4 -7.5 -1.35 -7.45 -1.2 -7.05 -0.65 -6.15 -0.45 -5.3 Q-0.5 -6.25 0.0 -6.45 L0.35 -6.5 1.25 -6.45 Q1.8 -6.5 2.1 -5.45 3.6 -4.8 6.2 -5.45 6.95 -6.75 8.8 -6.05 L9.05 -6.05 9.7 -5.9 Q10.5 -5.65 10.7 -4.75 L10.75 -4.6 Q11.3 -4.65 11.85 -5.0 13.15 -5.4 13.9 -6.05 15.75 -7.3 15.7 -8.6 L15.55 -8.45 Q14.7 -7.7 13.2 -7.25 L11.45 -6.9 Q11.15 -7.05 11.45 -7.7 11.75 -8.45 13.4 -9.1 L15.25 -9.9 14.9 -10.5 13.55 -12.3 13.45 -12.4 M-0.9 -9.7 L-0.9 -9.65 -1.3 -8.85 0.0 -7.85 Q0.05 -7.55 -0.8 -7.45 L-1.35 -7.45 M1.15 -12.5 L0.1 -14.95 -0.65 -17.85 Q-1.15 -19.3 -0.9 -19.35 -0.7 -19.45 0.15 -18.0 L1.7 -15.5 2.45 -13.75 M1.15 -12.5 L1.5 -12.9 M14.9 -10.5 Q16.9 -10.2 15.7 -8.6" fill="none" stroke="#6c372b" stroke-linecap="round" stroke-linejoin="round" stroke-width="0.05"/>
  </g>
</svg>
