<?xml version="1.0" encoding="UTF-8" standalone="no"?>
<svg xmlns:xlink="http://www.w3.org/1999/xlink" height="24.3px" width="29.35px" xmlns="http://www.w3.org/2000/svg">
  <g transform="matrix(1.0, 0.0, 0.0, 1.0, 5.7, 12.35)">
    <path d="M7.55 -5.9 L7.7 -6.2 8.35 -7.05 Q9.45 -8.15 11.0 -8.1 L12.5 -7.85 Q13.35 -8.6 14.6 -8.6 15.9 -8.6 16.85 -7.65 17.8 -6.7 17.85 -5.35 L17.55 -4.0 18.75 -4.35 Q19.75 -4.4 20.5 -3.65 21.25 -2.9 21.25 -1.9 21.25 -1.05 20.75 -0.4 21.5 0.7 21.65 2.1 22.4 2.2 22.95 2.75 23.65 3.45 23.65 4.45 23.65 5.4 22.95 6.05 L22.35 6.5 22.65 6.75 Q23.3 7.45 23.35 8.45 23.3 9.45 22.65 10.15 21.95 10.8 21.0 10.8 L19.85 10.5 20.55 10.05 Q21.3 9.45 21.35 8.55 21.35 7.65 20.7 7.05 L20.4 6.8 21.0 6.4 Q21.75 5.8 21.8 4.95 21.8 4.05 21.15 3.45 20.6 2.9 19.85 2.85 19.75 1.6 19.1 0.55 19.55 -0.05 19.6 -0.75 19.6 -1.7 18.95 -2.35 18.2 -3.0 17.2 -3.0 L15.95 -2.7 16.3 -3.9 Q16.3 -5.1 15.4 -5.95 14.5 -6.8 13.2 -6.8 11.95 -6.8 11.05 -6.1 L9.55 -6.4 7.95 -6.1 7.55 -5.9" fill="#fdffc1" fill-rule="evenodd" stroke="none"/>
    <path d="M19.85 10.5 L19.8 10.5 19.75 10.55 19.35 11.05 Q18.45 11.9 17.25 11.95 L15.9 11.6 15.7 11.5 15.15 11.05 Q14.55 10.4 14.4 9.6 13.6 10.2 12.6 10.25 L12.55 10.25 12.35 10.25 11.5 10.05 11.25 9.9 10.55 9.4 Q9.75 8.55 9.75 7.4 9.7 6.25 10.5 5.4 9.85 4.2 9.85 2.7 9.85 0.8 10.9 -0.65 9.4 -0.7 8.35 -1.75 7.25 -2.85 7.25 -4.4 7.25 -5.2 7.55 -5.9 L7.95 -6.1 9.55 -6.4 11.05 -6.1 Q11.95 -6.8 13.2 -6.8 14.5 -6.8 15.4 -5.95 16.3 -5.1 16.3 -3.9 L15.95 -2.7 17.2 -3.0 Q18.2 -3.0 18.95 -2.35 19.6 -1.7 19.6 -0.75 19.55 -0.05 19.1 0.55 19.75 1.6 19.85 2.85 20.6 2.9 21.15 3.45 21.8 4.05 21.8 4.95 21.75 5.8 21.0 6.4 L20.4 6.8 20.7 7.05 Q21.35 7.65 21.35 8.55 21.3 9.45 20.55 10.05 L19.85 10.5" fill="#fdd85b" fill-rule="evenodd" stroke="none"/>
    <path d="M19.85 10.5 L19.8 10.5 19.75 10.55 19.35 11.05 Q18.45 11.9 17.25 11.95 L15.9 11.6 15.7 11.5 15.15 11.05 Q14.55 10.4 14.4 9.6 13.6 10.2 12.6 10.25 L12.55 10.25 12.35 10.25 11.5 10.05 11.25 9.9 10.55 9.4 Q9.75 8.55 9.75 7.4 9.7 6.25 10.5 5.4 9.85 4.2 9.85 2.7 9.85 0.8 10.9 -0.65 9.4 -0.7 8.35 -1.75 7.25 -2.85 7.25 -4.4 7.25 -5.2 7.55 -5.9 L7.7 -6.2 8.35 -7.05 Q9.45 -8.15 11.0 -8.1 L12.5 -7.85 Q13.35 -8.6 14.6 -8.6 15.9 -8.6 16.85 -7.65 17.8 -6.7 17.85 -5.35 L17.55 -4.0 18.75 -4.35 Q19.75 -4.4 20.5 -3.65 21.25 -2.9 21.25 -1.9 21.25 -1.05 20.75 -0.4 21.5 0.7 21.65 2.1 22.4 2.2 22.95 2.75 23.65 3.45 23.65 4.45 23.65 5.4 22.95 6.05 L22.35 6.5 22.65 6.75 Q23.3 7.45 23.35 8.45 23.3 9.45 22.65 10.15 21.95 10.8 21.0 10.8 L19.85 10.5 Z" fill="none" stroke="#baba01" stroke-linecap="round" stroke-linejoin="round" stroke-width="0.05"/>
    <path d="M-3.65 -6.05 L-3.65 -6.45 -2.5 -7.3 -2.3 -7.3 -3.65 -6.05" fill="#68536f" fill-rule="evenodd" stroke="none"/>
    <path d="M-2.4 -7.9 Q-2.45 -8.65 -0.6 -9.4 L0.0 -9.3 0.1 -9.35 Q6.35 -8.35 7.4 -2.85 7.45 -1.65 6.8 -2.55 4.35 -7.1 -2.4 -7.9" fill="#9933cc" fill-rule="evenodd" stroke="none"/>
    <path d="M7.6 -10.15 L8.55 -9.5 Q6.95 -10.4 5.35 -10.1 6.35 -9.75 5.8 -9.4 L2.65 -9.35 Q4.1 -9.3 5.45 -7.95 L5.5 -7.9 5.65 -7.85 Q8.35 -6.25 8.2 -1.9 L8.4 0.6 Q9.85 -0.95 9.35 -3.05 10.65 -2.15 10.4 -0.25 11.95 -1.1 12.4 -4.25 11.95 -6.75 11.15 -7.9 L10.5 -8.6 10.4 -8.65 10.4 -8.7 Q9.05 -10.1 7.6 -10.15 9.05 -10.1 10.4 -8.7 L10.4 -8.65 10.5 -8.6 11.15 -7.9 Q11.95 -6.75 12.4 -4.25 11.95 -1.1 10.4 -0.25 10.65 -2.15 9.35 -3.05 9.85 -0.95 8.4 0.6 L8.2 -1.9 Q8.35 -6.25 5.65 -7.85 L5.5 -7.9 5.45 -7.95 Q4.1 -9.3 2.65 -9.35 L5.8 -9.4 Q6.35 -9.75 5.35 -10.1 6.95 -10.4 8.55 -9.5 L7.6 -10.15 M-2.4 -7.9 Q4.35 -7.1 6.8 -2.55 7.45 -1.65 7.4 -2.85 6.35 -8.35 0.1 -9.35 2.35 -10.5 5.55 -10.95 8.7 -11.15 10.6 -9.8 11.75 -9.0 12.45 -7.55 L12.75 -6.7 12.85 -6.4 Q13.45 -3.5 11.7 0.6 L11.05 2.4 9.3 5.15 Q9.95 3.8 9.9 2.5 9.5 1.05 7.6 1.85 6.5 3.5 7.05 7.65 5.9 6.3 5.95 3.55 6.3 1.6 5.6 0.0 5.45 2.75 4.6 4.55 5.35 0.1 2.95 -2.35 3.2 0.65 2.4 2.25 1.8 -0.4 -0.05 -2.25 -1.05 -0.15 -0.75 2.1 L-1.9 0.85 -2.45 -0.5 -2.45 -3.85 -2.8 -0.5 -2.95 -2.75 Q-4.15 -1.35 -4.1 1.8 -4.8 0.5 -4.5 -3.05 L-4.4 -3.85 -4.3 -4.65 -3.65 -6.05 -2.3 -7.3 -2.5 -7.3 -3.65 -6.45 -3.65 -7.3 -2.4 -7.9 M1.9 -2.0 Q1.5 -3.55 0.1 -4.15 -1.15 -3.8 -1.2 -2.25 -1.8 -3.4 -1.65 -4.7 L-2.25 -4.85 -2.25 -4.6 -3.35 -3.85 -3.65 -3.55 -3.95 -3.25 -3.8 -3.6 -3.75 -3.85 -3.65 -4.1 -3.45 -4.65 -3.4 -4.7 -3.0 -5.5 -2.25 -6.45 -2.25 -7.3 Q0.45 -7.1 3.5 -5.35 5.25 -3.45 5.3 -1.0 4.2 -3.3 1.65 -4.45 L1.9 -2.0 1.65 -4.45 Q4.2 -3.3 5.3 -1.0 5.25 -3.45 3.5 -5.35 0.45 -7.1 -2.25 -7.3 L-2.25 -6.45 -3.0 -5.5 -3.4 -4.7 -3.45 -4.65 -3.65 -4.1 -3.75 -3.85 -3.8 -3.6 -3.95 -3.25 -3.65 -3.55 -3.35 -3.85 -2.25 -4.6 -2.25 -4.85 -1.65 -4.7 Q-1.8 -3.4 -1.2 -2.25 -1.15 -3.8 0.1 -4.15 1.5 -3.55 1.9 -2.0" fill="#fdd85b" fill-rule="evenodd" stroke="none"/>
    <path d="M7.6 -10.15 Q9.05 -10.1 10.4 -8.7 L10.4 -8.65 10.5 -8.6 11.15 -7.9 Q11.95 -6.75 12.4 -4.25 11.95 -1.1 10.4 -0.25 10.65 -2.15 9.35 -3.05 9.85 -0.95 8.4 0.6 L8.2 -1.9 Q8.35 -6.25 5.65 -7.85 L5.5 -7.9 5.45 -7.95 Q4.1 -9.3 2.65 -9.35 L5.8 -9.4 Q6.35 -9.75 5.35 -10.1 6.95 -10.4 8.55 -9.5 L7.6 -10.15 M-2.4 -7.9 Q4.35 -7.1 6.8 -2.55 7.45 -1.65 7.4 -2.85 6.35 -8.35 0.1 -9.35 2.35 -10.5 5.55 -10.95 8.7 -11.15 10.6 -9.8 11.75 -9.0 12.45 -7.55 L12.75 -6.7 12.85 -6.4 Q13.45 -3.5 11.7 0.6 L11.05 2.4 9.3 5.15 Q9.95 3.8 9.9 2.5 9.5 1.05 7.6 1.85 6.5 3.5 7.05 7.65 5.9 6.3 5.95 3.55 6.3 1.6 5.6 0.0 5.45 2.75 4.6 4.55 5.35 0.1 2.95 -2.35 3.2 0.65 2.4 2.25 1.8 -0.4 -0.05 -2.25 -1.05 -0.15 -0.75 2.1 L-1.9 0.85 -2.45 -0.5 -2.45 -3.85 -2.8 -0.5 -2.95 -2.75 Q-4.15 -1.35 -4.1 1.8 -4.8 0.5 -4.5 -3.05 L-4.4 -3.85 -4.3 -4.65 -3.65 -6.05 -2.3 -7.3 -2.5 -7.3 -3.65 -6.45 -3.65 -7.3 -2.4 -7.9 M1.9 -2.0 L1.65 -4.45 Q4.2 -3.3 5.3 -1.0 5.25 -3.45 3.5 -5.35 0.45 -7.1 -2.25 -7.3 L-2.25 -6.45 -3.0 -5.5 -3.4 -4.7 -3.45 -4.65 -3.65 -4.1 -3.75 -3.85 -3.8 -3.6 -3.95 -3.25 -3.65 -3.55 -3.35 -3.85 -2.25 -4.6 -2.25 -4.85 -1.65 -4.7 Q-1.8 -3.4 -1.2 -2.25 -1.15 -3.8 0.1 -4.15 1.5 -3.55 1.9 -2.0" fill="none" stroke="#baba01" stroke-linecap="round" stroke-linejoin="round" stroke-width="0.05"/>
    <path d="M3.95 -12.35 Q9.4 -7.05 5.25 -1.75 L4.75 -1.75 Q-0.75 -1.6 -4.8 -3.9 L-4.95 -6.3 Q-5.05 -8.55 -2.9 -10.15 -0.75 -11.8 0.95 -12.1 L3.95 -12.35" fill="#996633" fill-rule="evenodd" stroke="none"/>
    <path d="M5.25 -1.75 L5.45 -1.75 Q8.35 -0.65 6.9 1.25 L6.85 1.3 Q0.75 2.25 -4.05 -0.7 -6.9 -1.75 -4.8 -3.9 -0.75 -1.6 4.75 -1.75 L5.25 -1.75 M6.9 1.25 L6.85 1.3 6.9 1.25" fill="#7b5128" fill-rule="evenodd" stroke="none"/>
    <path d="M5.45 -1.75 L5.25 -1.75 Q9.4 -7.05 3.95 -12.35 7.6 -12.25 10.55 -9.95 13.5 -7.7 13.0 -4.1 9.4 -2.0 5.45 -1.75" fill="#724a25" fill-rule="evenodd" stroke="none"/>
    <path d="M5.45 -1.75 Q9.4 -2.0 13.0 -4.1 13.35 -3.95 13.45 -2.65 13.55 -1.4 12.8 -0.8 L11.95 -0.2 Q9.3 0.85 6.9 1.25 8.35 -0.65 5.45 -1.75" fill="#56391d" fill-rule="evenodd" stroke="none"/>
    <path d="M5.25 -1.75 L5.45 -1.75 Q9.4 -2.0 13.0 -4.1 13.5 -7.7 10.55 -9.95 7.6 -12.25 3.95 -12.35 L0.95 -12.1 Q-0.75 -11.8 -2.9 -10.15 -5.05 -8.55 -4.95 -6.3 L-4.8 -3.9 Q-6.9 -1.75 -4.05 -0.7 0.75 2.25 6.85 1.3 L6.9 1.25 Q8.35 -0.65 5.45 -1.75 M5.25 -1.75 L4.75 -1.75 Q-0.75 -1.6 -4.8 -3.9 M6.9 1.25 Q9.3 0.85 11.95 -0.2 L12.8 -0.8 Q13.55 -1.4 13.45 -2.65 13.35 -3.95 13.0 -4.1" fill="none" stroke="#604020" stroke-linecap="round" stroke-linejoin="round" stroke-width="0.05"/>
    <path d="M6.9 1.25 L6.85 1.3" fill="none" stroke="#33ff99" stroke-linecap="round" stroke-linejoin="round" stroke-width="0.05"/>
  </g>
</svg>
