<?xml version="1.0" encoding="UTF-8" standalone="no"?>
<svg xmlns:xlink="http://www.w3.org/1999/xlink" height="176.85px" width="234.55px" xmlns="http://www.w3.org/2000/svg">
  <g transform="matrix(1, 0, 0, 1, 114.05, 86.0)">
    <path d="M98.1 -52.8 Q120.45 -30.45 120.5 1.2 120.5 20.5 112.15 36.35 L115.65 43.0 115.65 79.9 Q113.75 90.0 106.35 90.85 L54.35 90.85 49.85 81.4 44.5 81.4 44.5 90.85 -75.25 90.85 -79.05 81.4 -83.9 81.4 -83.9 90.85 -104.05 90.85 -104.05 44.85 Q-103.25 36.1 -98.15 31.05 -94.05 27.0 -86.65 26.2 L-33.85 26.2 -26.8 29.75 Q-32.1 16.6 -32.1 1.2 -32.1 -30.45 -9.75 -52.8 12.6 -75.1 44.2 -75.1 75.8 -75.1 98.1 -52.8" fill="#000000" fill-opacity="0.28235295" fill-rule="evenodd" stroke="none"/>
    <path d="M-34.8 20.85 Q-40.1 7.7 -40.1 -7.7 -40.1 -39.35 -17.75 -61.7 4.6 -84.0 36.2 -84.0 67.8 -84.0 90.1 -61.7 112.45 -39.35 112.5 -7.7 112.5 11.6 104.15 27.45 L107.65 34.1 107.65 71.0 Q105.75 81.1 98.35 81.95 L46.35 81.95 41.85 72.5 36.5 72.5 36.5 81.95 -83.25 81.95 -87.05 72.5 -91.9 72.5 -91.9 81.95 -112.05 81.95 -112.05 35.95 Q-111.25 27.2 -106.15 22.15 -102.05 18.1 -94.65 17.3 L-41.85 17.3 -34.8 20.85" fill="url(#gradient0)" fill-rule="evenodd" stroke="none"/>
    <path d="M-34.8 20.85 Q-40.1 7.7 -40.1 -7.7 -40.1 -39.35 -17.75 -61.7 4.6 -84.0 36.2 -84.0 67.8 -84.0 90.1 -61.7 112.45 -39.35 112.5 -7.7 112.5 11.6 104.15 27.45 M98.35 81.95 L46.35 81.95 M36.5 81.95 L-83.25 81.95 M-91.9 81.95 L-112.05 81.95" fill="none" stroke="#ffffff" stroke-linecap="round" stroke-linejoin="round" stroke-width="4.0"/>
    <path d="M104.15 27.45 L107.65 34.1 107.65 71.0 Q105.75 81.1 98.35 81.95 M46.35 81.95 L41.85 72.5 36.5 72.5 36.5 81.95 M-83.25 81.95 L-87.05 72.5 -91.9 72.5 -91.9 81.95 M-112.05 81.95 L-112.05 35.95 Q-111.25 27.2 -106.15 22.15 -102.05 18.1 -94.65 17.3 L-41.85 17.3 -34.8 20.85" fill="none" stroke="#ffffff" stroke-linecap="round" stroke-linejoin="round" stroke-width="4.0"/>
  </g>
  <defs>
    <radialGradient cx="0" cy="0" gradientTransform="matrix(0.1367, 0.0, 0.0, 0.1367, -4.1, -1.25)" gradientUnits="userSpaceOnUse" id="gradient0" r="819.2" spreadMethod="pad">
      <stop offset="0.0" stop-color="#d61f31"/>
      <stop offset="1.0" stop-color="#000000"/>
    </radialGradient>
  </defs>
</svg>
