<?xml version="1.0" encoding="UTF-8" standalone="no"?>
<svg xmlns:xlink="http://www.w3.org/1999/xlink" height="286.65px" width="187.3px" xmlns="http://www.w3.org/2000/svg">
  <g transform="matrix(1, 0, 0, 1, 83.9, 151.85)">
    <path d="M83.9 -138.35 L83.9 -137.15 83.9 -138.35 M83.9 -137.15 L83.05 -137.0 -81.5 -141.95 -59.75 131.4 97.8 110.85 98.65 110.8 83.9 -137.15 M98.7 112.1 L98.65 110.8 98.7 112.1 M84.7 -139.7 L99.7 113.3 -60.95 134.05 -83.15 -144.6 84.7 -139.7" fill="url(#gradient0)" fill-rule="evenodd" stroke="none"/>
    <path d="M84.7 -139.7 L99.7 113.3" fill="none" stroke="#b55555" stroke-linecap="round" stroke-linejoin="round" stroke-width="1.0"/>
    <path d="M-60.95 134.05 L-83.15 -144.6 84.7 -139.7" fill="none" stroke="#b55555" stroke-linecap="round" stroke-linejoin="round" stroke-width="1.5"/>
    <path d="M99.7 113.3 L-60.95 134.05" fill="none" stroke="#9a4545" stroke-linecap="round" stroke-linejoin="round" stroke-width="1.5"/>
    <path d="M-59.75 131.4 L-81.5 -141.95" fill="none" stroke="#251010" stroke-linecap="round" stroke-linejoin="round" stroke-width="1.5"/>
    <path d="M-81.5 -141.95 L83.05 -137.0" fill="none" stroke="#100707" stroke-linecap="round" stroke-linejoin="round" stroke-width="1.5"/>
    <path d="M97.8 110.85 L-59.75 131.4" fill="none" stroke="#542525" stroke-linecap="round" stroke-linejoin="round" stroke-width="1.5"/>
    <path d="M83.9 -137.15 L83.9 -138.35 M83.9 -137.15 L98.65 110.8 98.7 112.1" fill="none" stroke="#251010" stroke-linecap="round" stroke-linejoin="round" stroke-width="1.0"/>
    <path d="M53.35 126.35 L-7.15 -151.85 87.7 -148.2 103.4 118.25 76.95 121.35 Q54.6 124.15 53.35 126.35" fill="url(#gradient1)" fill-rule="evenodd" stroke="none"/>
  </g>
  <defs>
    <linearGradient gradientTransform="matrix(1.0473, 0.0, -0.0361, 1.5682, 7.75, -5.45)" gradientUnits="userSpaceOnUse" id="gradient0" spreadMethod="pad" x1="-819.2" x2="819.2">
      <stop offset="0.0" stop-color="#813a3a"/>
      <stop offset="1.0" stop-color="#a94949"/>
    </linearGradient>
    <linearGradient gradientTransform="matrix(0.026, -0.0157, 0.0256, 0.1705, 71.1, -73.4)" gradientUnits="userSpaceOnUse" id="gradient1" spreadMethod="pad" x1="-819.2" x2="819.2">
      <stop offset="0.0" stop-color="#000000" stop-opacity="0.0"/>
      <stop offset="1.0" stop-color="#000000" stop-opacity="0.6431373"/>
    </linearGradient>
  </defs>
</svg>
