<?xml version="1.0" encoding="UTF-8" standalone="no"?>
<svg xmlns:xlink="http://www.w3.org/1999/xlink" height="19.5px" width="94.1px" xmlns="http://www.w3.org/2000/svg">
  <g transform="matrix(1, 0, 0, 1, 50.35, 13.4)">
    <path d="M-49.35 -12.25 L42.75 -12.4" fill="none" stroke="#55b8ec" stroke-linecap="round" stroke-linejoin="round" stroke-width="1.0"/>
    <path d="M42.75 -12.4 L39.95 5.1 M-46.75 5.1 L-49.35 -12.25" fill="none" stroke="#0a394b" stroke-linecap="round" stroke-linejoin="round" stroke-width="2.0"/>
    <path d="M39.95 5.1 L-46.75 5.1" fill="none" stroke="#041820" stroke-linecap="round" stroke-linejoin="round" stroke-width="2.0"/>
    <path d="M-46.75 4.45 L-49.35 -12.9 42.75 -13.05 39.95 4.45 -38.1 4.45 -46.75 4.45 M31.0 2.2 L33.2 -11.0 -40.65 -10.95 -38.4 2.35 31.0 2.2" fill="url(#gradient0)" fill-rule="evenodd" stroke="none"/>
    <path d="M-46.75 4.45 L-38.1 4.45" fill="none" stroke="#0a3945" stroke-linecap="round" stroke-linejoin="round" stroke-width="0.05"/>
    <path d="M40.95 -1.45 Q25.85 -3.85 14.55 -2.65 L-8.15 -0.6 -28.45 0.75 Q-39.35 1.35 -47.25 1.1 L-49.35 -13.0 42.85 -13.05 40.95 -1.45" fill="url(#gradient1)" fill-rule="evenodd" stroke="none"/>
  </g>
  <defs>
    <radialGradient cx="0" cy="0" gradientTransform="matrix(-0.194, 0.0, 0.0, -0.0207, 19.6, -8.55)" gradientUnits="userSpaceOnUse" id="gradient0" r="819.2" spreadMethod="pad">
      <stop offset="0.0" stop-color="#073147"/>
      <stop offset="1.0" stop-color="#1992d5"/>
    </radialGradient>
    <linearGradient gradientTransform="matrix(-2.0E-4, -0.0082, -0.0474, 2.0E-4, -5.6, -3.85)" gradientUnits="userSpaceOnUse" id="gradient1" spreadMethod="pad" x1="-819.2" x2="819.2">
      <stop offset="0.0" stop-color="#157bba" stop-opacity="0.0"/>
      <stop offset="1.0" stop-color="#72cced"/>
    </linearGradient>
  </defs>
</svg>
