<?xml version="1.0" encoding="UTF-8" standalone="no"?>
<svg xmlns:xlink="http://www.w3.org/1999/xlink" height="99.85px" width="155.65px" xmlns="http://www.w3.org/2000/svg">
  <g transform="matrix(1, 0, 0, 1, 78.25, 46.05)">
    <path d="M77.35 -46.0 L77.4 -45.9 74.15 53.65 74.1 53.75 74.0 53.8 -73.5 48.2 -73.6 48.15 -73.6 48.1 -73.4 -44.8 -73.4 -44.9 -73.3 -44.9 77.25 -46.0 77.35 -46.0" fill="#000000" fill-opacity="0.43137255" fill-rule="evenodd" stroke="none"/>
    <path d="M72.5 -45.75 L69.25 48.8 -78.25 43.5 -78.05 -44.7 72.5 -45.75" fill="#062942" fill-rule="evenodd" stroke="none"/>
    <path d="M72.5 -45.75 L69.25 48.8 -78.25 43.5" fill="none" stroke="#07253a" stroke-linecap="round" stroke-linejoin="round" stroke-width="0.05"/>
    <path d="M-78.25 43.5 L-78.05 -44.7 72.5 -45.75" fill="none" stroke="#1b5e76" stroke-linecap="round" stroke-linejoin="round" stroke-width="0.05"/>
    <path d="M70.25 -43.75 L67.25 46.25 -76.1 41.25 -75.8 -42.8 70.25 -43.75" fill="url(#gradient0)" fill-rule="evenodd" stroke="none"/>
    <path d="M67.25 46.25 L-76.1 41.25" fill="none" stroke="#75c2df" stroke-linecap="round" stroke-linejoin="round" stroke-width="0.05"/>
    <path d="M70.25 -43.75 L67.25 46.25" fill="none" stroke="#3eaad2" stroke-linecap="round" stroke-linejoin="round" stroke-width="0.05"/>
    <path d="M-76.1 41.25 L-75.8 -42.8" fill="none" stroke="#03131b" stroke-linecap="round" stroke-linejoin="round" stroke-width="0.05"/>
    <path d="M-75.8 -42.8 L70.25 -43.75" fill="none" stroke="#03131b" stroke-linecap="round" stroke-linejoin="round" stroke-width="0.05"/>
  </g>
  <defs>
    <linearGradient gradientTransform="matrix(-0.0028, -0.0384, -0.0867, 0.0064, -16.75, -20.5)" gradientUnits="userSpaceOnUse" id="gradient0" spreadMethod="pad" x1="-819.2" x2="819.2">
      <stop offset="0.0" stop-color="#093d72"/>
      <stop offset="1.0" stop-color="#55b6e1"/>
    </linearGradient>
  </defs>
</svg>
