<?xml version="1.0" encoding="UTF-8" standalone="no"?>
<svg xmlns:xlink="http://www.w3.org/1999/xlink" height="1.0px" width="89.0px" xmlns="http://www.w3.org/2000/svg">
  <g transform="matrix(1, 0, 0, 1, 48.15, -4.5)">
    <path d="M40.85 5.0 L40.7 5.35 40.35 5.5 40.0 5.35 39.85 5.0 Q39.85 4.8 40.0 4.65 40.15 4.5 40.35 4.5 L40.7 4.65 40.85 5.0 M36.0 4.65 Q36.15 4.5 36.35 4.5 L36.7 4.65 36.85 5.0 36.7 5.35 36.35 5.5 36.0 5.35 35.85 5.0 36.0 4.65 M32.0 4.65 L32.35 4.5 32.7 4.65 32.85 5.0 32.7 5.35 32.35 5.5 32.0 5.35 31.85 5.0 32.0 4.65 M28.7 4.65 L28.85 5.0 28.7 5.35 28.35 5.5 28.0 5.35 27.85 5.0 Q27.85 4.8 28.0 4.65 28.15 4.5 28.35 4.5 L28.7 4.65 M20.85 5.0 L20.7 5.35 20.35 5.5 20.0 5.35 19.85 5.0 20.0 4.65 20.35 4.5 20.7 4.65 20.85 5.0 M24.7 4.65 L24.85 5.0 24.7 5.35 24.35 5.5 24.0 5.35 23.85 5.0 24.0 4.65 Q24.15 4.5 24.35 4.5 L24.7 4.65 M16.0 4.65 Q16.15 4.5 16.35 4.5 16.55 4.5 16.7 4.65 L16.85 5.0 16.7 5.35 16.35 5.5 16.0 5.35 15.85 5.0 Q15.85 4.8 16.0 4.65 M12.0 4.65 Q12.15 4.5 12.35 4.5 12.55 4.5 12.7 4.65 L12.85 5.0 12.7 5.35 12.35 5.5 12.0 5.35 11.85 5.0 Q11.85 4.8 12.0 4.65 M8.7 4.65 L8.85 5.0 8.7 5.35 8.35 5.5 8.0 5.35 7.85 5.0 8.0 4.65 Q8.15 4.5 8.35 4.5 L8.7 4.65 M0.85 5.0 L0.7 5.35 0.35 5.5 0.0 5.35 -0.15 5.0 0.0 4.65 Q0.15 4.5 0.35 4.5 0.55 4.5 0.7 4.65 L0.85 5.0 M4.7 4.65 L4.85 5.0 4.7 5.35 4.35 5.5 4.0 5.35 3.85 5.0 Q3.85 4.8 4.0 4.65 4.15 4.5 4.35 4.5 4.55 4.5 4.7 4.65 M-3.3 4.65 L-3.15 5.0 -3.3 5.35 -3.65 5.5 -4.0 5.35 -4.15 5.0 -4.0 4.65 Q-3.85 4.5 -3.65 4.5 -3.45 4.5 -3.3 4.65 M-8.0 4.65 L-7.65 4.5 Q-7.45 4.5 -7.3 4.65 L-7.15 5.0 -7.3 5.35 Q-7.45 5.5 -7.65 5.5 L-8.0 5.35 -8.15 5.0 -8.0 4.65 M-11.3 4.65 L-11.15 5.0 -11.3 5.35 -11.65 5.5 -12.0 5.35 -12.15 5.0 -12.0 4.65 -11.65 4.5 Q-11.45 4.5 -11.3 4.65 M-20.0 4.65 Q-19.85 4.5 -19.65 4.5 -19.45 4.5 -19.3 4.65 -19.15 4.8 -19.15 5.0 L-19.3 5.35 -19.65 5.5 -20.0 5.35 -20.15 5.0 -20.0 4.65 M-15.3 4.65 Q-15.15 4.8 -15.15 5.0 L-15.3 5.35 -15.65 5.5 -16.0 5.35 -16.15 5.0 -16.0 4.65 Q-15.85 4.5 -15.65 4.5 -15.45 4.5 -15.3 4.65 M-24.0 4.65 L-23.65 4.5 Q-23.45 4.5 -23.3 4.65 L-23.15 5.0 -23.3 5.35 -23.65 5.5 -24.0 5.35 -24.15 5.0 -24.0 4.65 M-28.0 4.65 Q-27.85 4.5 -27.65 4.5 -27.45 4.5 -27.3 4.65 -27.15 4.8 -27.15 5.0 L-27.3 5.35 -27.65 5.5 -28.0 5.35 -28.15 5.0 -28.0 4.65 M-35.15 5.0 L-35.3 5.35 -35.65 5.5 -36.0 5.35 -36.15 5.0 -36.0 4.65 -35.65 4.5 Q-35.45 4.5 -35.3 4.65 L-35.15 5.0 M-32.0 4.65 Q-31.85 4.5 -31.65 4.5 -31.45 4.5 -31.3 4.65 -31.15 4.8 -31.15 5.0 L-31.3 5.35 -31.65 5.5 -32.0 5.35 -32.15 5.0 -32.0 4.65 M-40.0 4.65 Q-39.85 4.5 -39.65 4.5 -39.45 4.5 -39.3 4.65 -39.15 4.8 -39.15 5.0 L-39.3 5.35 -39.65 5.5 -40.0 5.35 -40.15 5.0 -40.0 4.65 M-43.3 4.65 Q-43.15 4.8 -43.15 5.0 L-43.3 5.35 -43.65 5.5 -44.0 5.35 -44.15 5.0 -44.0 4.65 Q-43.85 4.5 -43.65 4.5 -43.45 4.5 -43.3 4.65 M-48.0 4.65 L-47.65 4.5 -47.3 4.65 -47.15 5.0 -47.3 5.35 -47.65 5.5 -48.0 5.35 -48.15 5.0 -48.0 4.65" fill="#55b6e1" fill-rule="evenodd" stroke="none"/>
  </g>
</svg>
