<?xml version="1.0" encoding="UTF-8" standalone="no"?>
<svg xmlns:xlink="http://www.w3.org/1999/xlink" height="44.35px" width="489.2px" xmlns="http://www.w3.org/2000/svg">
  <g transform="matrix(1, 0, 0, 1, 235.9, 22.35)">
    <path d="M85.05 -22.35 L85.05 -22.3 84.05 -22.35 85.05 -22.3 253.3 -22.3 253.3 22.0 84.05 22.0 84.05 21.9 -235.9 21.9 -235.9 -22.35 84.05 -22.35 85.05 -22.35 M240.45 -18.15 L240.45 -18.2 -166.5 -18.2 -230.55 -18.2 -230.55 17.85 -166.5 17.85 239.45 17.85 239.45 17.95 247.9 17.95 247.9 -18.15 240.45 -18.15" fill="#000000" fill-opacity="0.2509804" fill-rule="evenodd" stroke="none"/>
    <path d="M240.45 -18.15 L239.45 -18.15 239.45 17.85 -166.5 17.85 -166.5 -18.2 240.45 -18.2 240.45 -18.15" fill="url(#gradient0)" fill-rule="evenodd" stroke="none"/>
    <path d="M239.45 -18.15 L240.45 -18.15 247.9 -18.15 247.9 17.95 239.45 17.95 239.45 17.85 239.45 -18.15" fill="url(#gradient1)" fill-rule="evenodd" stroke="none"/>
    <path d="M-166.5 -18.2 L-166.5 17.85 -230.55 17.85 -230.55 -18.2 -166.5 -18.2" fill="url(#gradient2)" fill-rule="evenodd" stroke="none"/>
    <path d="M85.05 -22.35 L84.05 -22.35 85.05 -22.3 253.3 -22.3 253.3 22.0 M-235.9 -22.35 L84.05 -22.35" fill="none" stroke="#1c5590" stroke-linecap="round" stroke-linejoin="round" stroke-width="0.05"/>
    <path d="M253.3 22.0 L84.05 22.0" fill="none" stroke="#2767a6" stroke-linecap="round" stroke-linejoin="round" stroke-width="0.05"/>
    <path d="M84.05 21.9 L-235.9 21.9 -235.9 -22.35" fill="none" stroke="#2767a6" stroke-linecap="round" stroke-linejoin="round" stroke-width="0.05"/>
    <path d="M239.45 -18.15 L240.45 -18.15 247.9 -18.15 M240.45 -18.2 L-166.5 -18.2 -230.55 -18.2 -230.55 17.85" fill="none" stroke="#000000" stroke-linecap="round" stroke-linejoin="round" stroke-width="2.0"/>
    <path d="M-166.5 17.85 L239.45 17.85 M247.9 17.95 L239.45 17.95 M-230.55 17.85 L-166.5 17.85" fill="none" stroke="#70b9ef" stroke-linecap="round" stroke-linejoin="round" stroke-width="2.0"/>
    <path d="M247.9 -18.15 L247.9 17.95" fill="none" stroke="#3073b6" stroke-linecap="round" stroke-linejoin="round" stroke-width="2.0"/>
    <path d="M-224.5 -16.55 L-140.65 -16.55 -146.85 13.15 -224.6 13.05 -224.5 -16.55 M-128.7 -15.5 L-46.3 -14.6 -46.3 13.3 -128.7 13.2 -128.7 -15.5" fill="url(#gradient3)" fill-rule="evenodd" stroke="none"/>
    <path d="M44.65 -13.15 L42.8 13.05 -36.3 13.3 -36.3 -14.5 44.65 -13.15" fill="url(#gradient4)" fill-rule="evenodd" stroke="none"/>
    <path d="M58.5 -15.5 L140.9 -14.6 140.9 13.3 58.5 13.2 58.5 -15.5" fill="url(#gradient5)" fill-rule="evenodd" stroke="none"/>
    <path d="M147.55 -15.5 L237.75 -14.6 237.75 13.3 147.55 13.2 147.55 -15.5" fill="url(#gradient6)" fill-rule="evenodd" stroke="none"/>
  </g>
  <defs>
    <radialGradient cx="0" cy="0" gradientTransform="matrix(3.4809, 0.0, 0.0, 0.1778, -174.9, -90.35)" gradientUnits="userSpaceOnUse" id="gradient0" r="819.2" spreadMethod="pad">
      <stop offset="0.0" stop-color="#1471b4"/>
      <stop offset="0.7843137254901961" stop-color="#0b3d6f"/>
      <stop offset="1.0" stop-color="#05213d"/>
    </radialGradient>
    <radialGradient cx="0" cy="0" gradientTransform="matrix(0.2103, 0.0, 0.0, 0.1778, 10.15, -90.3)" gradientUnits="userSpaceOnUse" id="gradient1" r="819.2" spreadMethod="pad">
      <stop offset="0.0" stop-color="#1471b4"/>
      <stop offset="0.7843137254901961" stop-color="#0b3d6f"/>
      <stop offset="1.0" stop-color="#05213d"/>
    </radialGradient>
    <radialGradient cx="0" cy="0" gradientTransform="matrix(0.2103, 0.0, 0.0, 0.1778, -167.0, -90.35)" gradientUnits="userSpaceOnUse" id="gradient2" r="819.2" spreadMethod="pad">
      <stop offset="0.0" stop-color="#1471b4"/>
      <stop offset="0.7843137254901961" stop-color="#0b3d6f"/>
      <stop offset="1.0" stop-color="#05213d"/>
    </radialGradient>
    <linearGradient gradientTransform="matrix(0.0, -0.0105, 0.0163, 1.0E-4, 96.8, 0.0)" gradientUnits="userSpaceOnUse" id="gradient3" spreadMethod="pad" x1="-819.2" x2="819.2">
      <stop offset="0.0" stop-color="#eefdfc"/>
      <stop offset="1.0" stop-color="#0d4d84"/>
    </linearGradient>
    <linearGradient gradientTransform="matrix(0.0, -0.0105, 0.0109, 1.0E-4, 52.5, 0.0)" gradientUnits="userSpaceOnUse" id="gradient4" spreadMethod="pad" x1="-819.2" x2="819.2">
      <stop offset="0.0" stop-color="#eefdfc"/>
      <stop offset="1.0" stop-color="#0d4d84"/>
    </linearGradient>
    <linearGradient gradientTransform="matrix(0.0, -0.0105, 0.0163, 1.0E-4, 284.0, 0.0)" gradientUnits="userSpaceOnUse" id="gradient5" spreadMethod="pad" x1="-819.2" x2="819.2">
      <stop offset="0.0" stop-color="#eefdfc"/>
      <stop offset="1.0" stop-color="#0d4d84"/>
    </linearGradient>
    <linearGradient gradientTransform="matrix(0.0, -0.0105, 0.0163, 1.0E-4, 376.65, 0.0)" gradientUnits="userSpaceOnUse" id="gradient6" spreadMethod="pad" x1="-819.2" x2="819.2">
      <stop offset="0.0" stop-color="#eefdfc"/>
      <stop offset="1.0" stop-color="#0d4d84"/>
    </linearGradient>
  </defs>
</svg>
