<?xml version="1.0" encoding="UTF-8" standalone="no"?>
<svg xmlns:xlink="http://www.w3.org/1999/xlink" height="19.5px" width="103.1px" xmlns="http://www.w3.org/2000/svg">
  <g transform="matrix(1, 0, 0, 1, 54.85, 13.4)">
    <path d="M-51.25 5.1 L-53.85 -11.65" fill="none" stroke="#0a394b" stroke-linecap="round" stroke-linejoin="round" stroke-width="2.0"/>
    <path d="M44.45 5.1 L-51.25 5.1" fill="none" stroke="#041820" stroke-linecap="round" stroke-linejoin="round" stroke-width="2.0"/>
    <path d="M-53.85 -11.65 L47.25 -12.4" fill="none" stroke="#0a394b" stroke-linecap="round" stroke-linejoin="round" stroke-width="1.0"/>
    <path d="M47.25 -12.4 L44.45 5.1" fill="none" stroke="#031827" stroke-linecap="round" stroke-linejoin="round" stroke-width="2.0"/>
    <path d="M-53.85 -12.35 L47.25 -13.05 44.45 4.45 -51.25 4.45 -53.85 -12.35 M39.7 -10.8 L-45.15 -10.95 -42.6 2.55 35.7 2.55 39.7 -10.8" fill="url(#gradient0)" fill-rule="evenodd" stroke="none"/>
    <path d="M44.95 -1.45 Q28.4 -3.85 16.0 -2.65 L-8.85 -0.6 -31.05 0.75 Q-43.0 1.35 -51.6 1.1 L-53.9 -13.0 47.05 -13.05 44.95 -1.45" fill="url(#gradient1)" fill-rule="evenodd" stroke="none"/>
  </g>
  <defs>
    <radialGradient cx="0" cy="0" gradientTransform="matrix(-0.194, 0.0, 0.0, -0.0207, 19.6, -8.55)" gradientUnits="userSpaceOnUse" id="gradient0" r="819.2" spreadMethod="pad">
      <stop offset="0.0" stop-color="#073147"/>
      <stop offset="1.0" stop-color="#1992d5"/>
    </radialGradient>
    <linearGradient gradientTransform="matrix(-2.0E-4, -0.0082, -0.0519, 2.0E-4, -6.0, -3.85)" gradientUnits="userSpaceOnUse" id="gradient1" spreadMethod="pad" x1="-819.2" x2="819.2">
      <stop offset="0.0" stop-color="#c2edf8" stop-opacity="0.0"/>
      <stop offset="1.0" stop-color="#b5f1f4" stop-opacity="0.9607843"/>
    </linearGradient>
  </defs>
</svg>
