<?xml version="1.0" encoding="UTF-8" standalone="no"?>
<svg xmlns:xlink="http://www.w3.org/1999/xlink" height="17.55px" width="8.8px" xmlns="http://www.w3.org/2000/svg">
  <g transform="matrix(1, 0, 0, 1, -5.3, -1.05)">
    <path d="M11.2 9.4 L9.05 11.7 Q8.25 12.7 8.25 13.45 L8.25 13.3 7.05 14.6 5.7 14.55 Q5.45 11.9 9.95 7.25 L10.95 5.85 11.45 4.3 Q11.45 3.45 10.65 3.2 L9.55 3.1 8.05 3.3 Q7.5 3.55 7.4 4.5 L7.35 5.6 6.45 5.6 5.75 5.35 Q5.3 4.65 5.3 3.55 5.3 1.9 6.5 1.75 L8.4 1.35 10.25 1.05 Q11.0 1.05 11.55 1.35 13.95 2.65 14.1 4.1 14.2 5.55 13.2 6.95 L11.2 9.4 M6.8 17.1 L6.9 16.7 7.6 16.1 8.65 15.8 9.35 16.0 Q9.85 16.5 9.85 17.3 L9.8 17.65 9.05 18.25 7.95 18.6 7.3 18.35 Q6.8 17.9 6.8 17.1" fill="#ffffff" fill-rule="evenodd" stroke="none"/>
  </g>
</svg>
