<?xml version="1.0" encoding="UTF-8" standalone="no"?>
<svg xmlns:xlink="http://www.w3.org/1999/xlink" height="22.85px" width="8.5px" xmlns="http://www.w3.org/2000/svg">
  <g transform="matrix(1, 0, 0, 1, 4.25, 11.45)">
    <path d="M-3.35 4.85 L-2.95 5.05 2.4 10.4 2.6 10.7 2.6 10.8 2.4 11.2 1.95 11.4 Q1.7 11.4 1.55 11.2 L-3.8 5.85 -3.95 5.45 -3.8 5.05 -3.35 4.85 M-3.3 -0.45 L-2.85 -0.65 3.6 -0.65 4.05 -0.45 4.25 -0.05 4.05 0.4 3.6 0.6 -2.85 0.6 Q-3.15 0.6 -3.3 0.4 L-3.5 -0.05 -3.3 -0.45 M1.95 -11.45 L2.4 -11.25 2.6 -10.85 2.4 -10.4 -3.25 -4.8 -3.65 -4.65 -4.1 -4.8 -4.15 -4.85 -4.25 -5.25 -4.15 -5.6 -4.1 -5.65 1.55 -11.25 1.95 -11.45" fill="#ffffff" fill-rule="evenodd" stroke="none"/>
  </g>
</svg>
