<?xml version="1.0" encoding="UTF-8" standalone="no"?>
<svg xmlns:xlink="http://www.w3.org/1999/xlink" height="53.5px" width="133.05px" xmlns="http://www.w3.org/2000/svg">
  <g transform="matrix(1, 0, 0, 1, 66.5, 26.75)">
    <path d="M62.6 21.3 L62.6 23.7 62.5 23.75 -63.6 26.75 -63.65 26.7 -63.7 26.65 -66.5 -26.7 -66.45 -26.75 -66.4 -26.75 62.35 -26.15 62.4 -26.15 62.45 -26.1 -62.3 -26.6 -59.5 24.1 62.6 21.3" fill="#041f31" fill-opacity="0.5019608" fill-rule="evenodd" stroke="none"/>
    <path d="M62.45 -26.1 L66.4 -26.05 66.55 21.2 62.6 21.3 -59.5 24.1 -62.3 -26.6 62.45 -26.1 M64.75 20.0 L64.45 -25.0 -60.4 -25.55 -57.8 22.7 64.75 20.0" fill="#303050" fill-rule="evenodd" stroke="none"/>
    <path d="M-57.8 22.7 L64.75 20.0" fill="none" stroke="#75c2df" stroke-linecap="round" stroke-linejoin="round" stroke-width="0.05"/>
    <path d="M-60.4 -25.55 L-57.8 22.7" fill="none" stroke="#8461aa" stroke-linecap="round" stroke-linejoin="round" stroke-width="0.05"/>
    <path d="M64.75 20.0 L64.45 -25.0 -60.4 -25.55" fill="none" stroke="#251c33" stroke-linecap="round" stroke-linejoin="round" stroke-width="0.05"/>
    <path d="M66.55 21.2 L62.6 21.3 -59.5 24.1 -62.3 -26.6" fill="none" stroke="#221a2f" stroke-linecap="round" stroke-linejoin="round" stroke-width="0.05"/>
    <path d="M62.45 -26.1 L66.4 -26.05 66.55 21.2 M-62.3 -26.6 L62.45 -26.1" fill="none" stroke="#594279" stroke-linecap="round" stroke-linejoin="round" stroke-width="0.05"/>
  </g>
</svg>
