<?xml version="1.0" encoding="UTF-8" standalone="no"?>
<svg xmlns:xlink="http://www.w3.org/1999/xlink" height="1.0px" width="89.0px" xmlns="http://www.w3.org/2000/svg">
  <g transform="matrix(1, 0, 0, 1, 48.15, 1.5)">
    <path d="M0.85 -1.0 L0.7 -0.65 Q0.55 -0.5 0.35 -0.5 0.15 -0.5 0.0 -0.65 L-0.15 -1.0 0.0 -1.35 0.35 -1.5 0.7 -1.35 0.85 -1.0 M4.7 -1.35 L4.85 -1.0 4.7 -0.65 Q4.55 -0.5 4.35 -0.5 4.15 -0.5 4.0 -0.65 3.85 -0.8 3.85 -1.0 L4.0 -1.35 4.35 -1.5 4.7 -1.35 M8.7 -1.35 L8.85 -1.0 8.7 -0.65 8.35 -0.5 Q8.15 -0.5 8.0 -0.65 L7.85 -1.0 8.0 -1.35 8.35 -1.5 8.7 -1.35 M12.0 -1.35 L12.35 -1.5 12.7 -1.35 12.85 -1.0 12.7 -0.65 Q12.55 -0.5 12.35 -0.5 12.15 -0.5 12.0 -0.65 11.85 -0.8 11.85 -1.0 L12.0 -1.35 M16.0 -1.35 L16.35 -1.5 16.7 -1.35 16.85 -1.0 16.7 -0.65 Q16.55 -0.5 16.35 -0.5 16.15 -0.5 16.0 -0.65 15.85 -0.8 15.85 -1.0 L16.0 -1.35 M19.85 -1.0 L20.0 -1.35 20.35 -1.5 20.7 -1.35 20.85 -1.0 20.7 -0.65 20.35 -0.5 20.0 -0.65 19.85 -1.0 M24.7 -1.35 L24.85 -1.0 24.7 -0.65 24.35 -0.5 Q24.15 -0.5 24.0 -0.65 L23.85 -1.0 24.0 -1.35 24.35 -1.5 24.7 -1.35 M28.7 -1.35 L28.85 -1.0 28.7 -0.65 28.35 -0.5 Q28.15 -0.5 28.0 -0.65 27.85 -0.8 27.85 -1.0 L28.0 -1.35 28.35 -1.5 28.7 -1.35 M32.0 -1.35 L32.35 -1.5 32.7 -1.35 32.85 -1.0 32.7 -0.65 32.35 -0.5 32.0 -0.65 31.85 -1.0 32.0 -1.35 M36.0 -1.35 L36.35 -1.5 36.7 -1.35 36.85 -1.0 36.7 -0.65 36.35 -0.5 Q36.15 -0.5 36.0 -0.65 L35.85 -1.0 36.0 -1.35 M40.0 -1.35 L40.35 -1.5 40.7 -1.35 40.85 -1.0 40.7 -0.65 40.35 -0.5 Q40.15 -0.5 40.0 -0.65 39.85 -0.8 39.85 -1.0 L40.0 -1.35 M-48.0 -1.35 L-47.65 -1.5 -47.3 -1.35 -47.15 -1.0 -47.3 -0.65 -47.65 -0.5 -48.0 -0.65 -48.15 -1.0 -48.0 -1.35 M-43.3 -1.35 L-43.15 -1.0 Q-43.15 -0.8 -43.3 -0.65 -43.45 -0.5 -43.65 -0.5 -43.85 -0.5 -44.0 -0.65 L-44.15 -1.0 -44.0 -1.35 -43.65 -1.5 -43.3 -1.35 M-40.0 -1.35 L-39.65 -1.5 -39.3 -1.35 -39.15 -1.0 Q-39.15 -0.8 -39.3 -0.65 -39.45 -0.5 -39.65 -0.5 -39.85 -0.5 -40.0 -0.65 L-40.15 -1.0 -40.0 -1.35 M-35.65 -1.5 L-35.3 -1.35 -35.15 -1.0 -35.3 -0.65 Q-35.45 -0.5 -35.65 -0.5 L-36.0 -0.65 -36.15 -1.0 -36.0 -1.35 -35.65 -1.5 M-32.0 -1.35 L-31.65 -1.5 -31.3 -1.35 -31.15 -1.0 Q-31.15 -0.8 -31.3 -0.65 -31.45 -0.5 -31.65 -0.5 -31.85 -0.5 -32.0 -0.65 L-32.15 -1.0 -32.0 -1.35 M-28.0 -1.35 L-27.65 -1.5 -27.3 -1.35 -27.15 -1.0 Q-27.15 -0.8 -27.3 -0.65 -27.45 -0.5 -27.65 -0.5 -27.85 -0.5 -28.0 -0.65 L-28.15 -1.0 -28.0 -1.35 M-24.0 -1.35 L-23.65 -1.5 -23.3 -1.35 -23.15 -1.0 -23.3 -0.65 Q-23.45 -0.5 -23.65 -0.5 L-24.0 -0.65 -24.15 -1.0 -24.0 -1.35 M-20.0 -1.35 L-19.65 -1.5 -19.3 -1.35 -19.15 -1.0 Q-19.15 -0.8 -19.3 -0.65 -19.45 -0.5 -19.65 -0.5 -19.85 -0.5 -20.0 -0.65 L-20.15 -1.0 -20.0 -1.35 M-15.3 -1.35 L-15.15 -1.0 Q-15.15 -0.8 -15.3 -0.65 -15.45 -0.5 -15.65 -0.5 -15.85 -0.5 -16.0 -0.65 L-16.15 -1.0 -16.0 -1.35 -15.65 -1.5 -15.3 -1.35 M-11.3 -1.35 L-11.15 -1.0 -11.3 -0.65 Q-11.45 -0.5 -11.65 -0.5 L-12.0 -0.65 -12.15 -1.0 -12.0 -1.35 -11.65 -1.5 -11.3 -1.35 M-8.0 -1.35 L-7.65 -1.5 Q-7.45 -1.5 -7.3 -1.35 L-7.15 -1.0 -7.3 -0.65 Q-7.45 -0.5 -7.65 -0.5 L-8.0 -0.65 -8.15 -1.0 -8.0 -1.35 M-3.3 -1.35 L-3.15 -1.0 -3.3 -0.65 Q-3.45 -0.5 -3.65 -0.5 -3.85 -0.5 -4.0 -0.65 L-4.15 -1.0 -4.0 -1.35 -3.65 -1.5 -3.3 -1.35" fill="#7f54ab" fill-rule="evenodd" stroke="none"/>
  </g>
</svg>
