<?xml version="1.0" encoding="UTF-8" standalone="no"?>
<svg xmlns:xlink="http://www.w3.org/1999/xlink" height="43.65px" width="43.65px" xmlns="http://www.w3.org/2000/svg">
  <g transform="matrix(1, 0, 0, 1, 1.0, 1.0)">
    <path d="M35.55 6.1 Q41.6 12.2 41.65 20.8 41.6 29.4 35.55 35.55 29.4 41.6 20.8 41.65 12.2 41.6 6.1 35.55 0.0 29.4 0.0 20.8 0.0 12.2 6.1 6.1 12.2 0.0 20.8 0.0 29.4 0.0 35.55 6.1" fill="url(#gradient0)" fill-rule="evenodd" stroke="none"/>
    <path d="M35.55 6.1 Q41.6 12.2 41.65 20.8 41.6 29.4 35.55 35.55 29.4 41.6 20.8 41.65 12.2 41.6 6.1 35.55 0.0 29.4 0.0 20.8 0.0 12.2 6.1 6.1 12.2 0.0 20.8 0.0 29.4 0.0 35.55 6.1" fill="none" stroke="#0a3e70" stroke-linecap="round" stroke-linejoin="round" stroke-width="2.0"/>
  </g>
  <defs>
    <radialGradient cx="0" cy="0" gradientTransform="matrix(0.0464, 0.0, 0.0, 0.0222, 21.7, 14.85)" gradientUnits="userSpaceOnUse" id="gradient0" r="819.2" spreadMethod="pad">
      <stop offset="0.0" stop-color="#1c9ee3"/>
      <stop offset="1.0" stop-color="#062942"/>
    </radialGradient>
  </defs>
</svg>
