<?xml version="1.0" encoding="UTF-8" standalone="no"?>
<svg xmlns:xlink="http://www.w3.org/1999/xlink" height="62.6px" width="155.65px" xmlns="http://www.w3.org/2000/svg">
  <g transform="matrix(1, 0, 0, 1, 78.25, 38.2)">
    <path d="M77.35 -38.2 L77.4 -38.15 74.15 24.3 74.1 24.35 74.0 24.4 -73.5 20.85 -73.6 20.85 -73.6 20.8 -73.4 -37.4 -73.4 -37.5 -73.3 -37.5 77.25 -38.2 77.35 -38.2" fill="#041f31" fill-opacity="0.5019608" fill-rule="evenodd" stroke="none"/>
    <path d="M72.5 -38.0 L69.25 21.25 -78.25 17.9 -78.05 -37.4 72.5 -38.0" fill="#244f24" fill-rule="evenodd" stroke="none"/>
    <path d="M72.5 -38.0 L69.25 21.25 -78.25 17.9" fill="none" stroke="#091c10" stroke-linecap="round" stroke-linejoin="round" stroke-width="0.05"/>
    <path d="M-78.25 17.9 L-78.05 -37.4 72.5 -38.0" fill="none" stroke="#309259" stroke-linecap="round" stroke-linejoin="round" stroke-width="0.05"/>
    <path d="M70.25 -36.75 L67.25 19.65 -76.1 16.5 -75.8 -36.15 70.25 -36.75" fill="url(#gradient0)" fill-rule="evenodd" stroke="none"/>
    <path d="M-76.1 16.5 L-75.8 -36.15 70.25 -36.75" fill="none" stroke="#0c2315" stroke-linecap="round" stroke-linejoin="round" stroke-width="0.05"/>
    <path d="M67.25 19.65 L-76.1 16.5" fill="none" stroke="#51c682" stroke-linecap="round" stroke-linejoin="round" stroke-width="0.05"/>
    <path d="M70.25 -36.75 L67.25 19.65" fill="none" stroke="#339b5f" stroke-linecap="round" stroke-linejoin="round" stroke-width="0.05"/>
  </g>
  <defs>
    <linearGradient gradientTransform="matrix(8.0E-4, -0.0345, 0.0891, 0.002, -3.4, -10.15)" gradientUnits="userSpaceOnUse" id="gradient0" spreadMethod="pad" x1="-819.2" x2="819.2">
      <stop offset="0.011764705882352941" stop-color="#33b46c"/>
      <stop offset="0.984313725490196" stop-color="#bdeccd"/>
    </linearGradient>
  </defs>
</svg>
