<?xml version="1.0" encoding="UTF-8" standalone="no"?>
<svg xmlns:xlink="http://www.w3.org/1999/xlink" height="14.85px" width="15.5px" xmlns="http://www.w3.org/2000/svg">
  <g transform="matrix(1, 0, 0, 1, 6.45, 8.35)">
    <path d="M-4.45 -2.75 Q1.05 -3.55 6.75 -0.65 6.7 -2.0 5.8 -3.55 4.85 -5.15 5.25 -6.75 5.5 -7.75 6.15 -8.25 L8.3 -8.2 Q6.2 -6.5 7.8 -3.4 8.65 -1.65 8.9 0.4 9.15 2.6 7.5 1.8 L4.0 0.35 Q1.95 -0.35 -0.1 -0.7 -4.4 -1.45 -6.25 -0.35 L-4.45 -2.75" fill="#ffffff" fill-rule="evenodd" stroke="none"/>
    <path d="M6.15 -8.25 Q5.5 -7.75 5.25 -6.75 4.85 -5.15 5.8 -3.55 6.7 -2.0 6.75 -0.65 1.05 -3.55 -4.45 -2.75 0.2 -7.9 6.15 -8.25" fill="#263959" fill-rule="evenodd" stroke="none"/>
    <path d="M-6.25 -0.35 Q-4.4 -1.45 -0.1 -0.7 1.95 -0.35 4.0 0.35 L3.9 3.45 Q3.9 6.0 2.7 6.35 1.5 6.65 -2.7 3.65 -6.95 0.65 -6.25 -0.35" fill="#192a3e" fill-rule="evenodd" stroke="none"/>
    <path d="M6.15 -8.25 Q0.2 -7.9 -4.45 -2.75 L-6.25 -0.35 Q-4.4 -1.45 -0.1 -0.7 1.95 -0.35 4.0 0.35 L7.5 1.8 Q9.15 2.6 8.9 0.4 8.65 -1.65 7.8 -3.4 6.2 -6.5 8.3 -8.2 L6.15 -8.25 M-6.25 -0.35 Q-6.95 0.65 -2.7 3.65 1.5 6.65 2.7 6.35 3.9 6.0 3.9 3.45 L4.0 0.35" fill="none" stroke="#000000" stroke-linecap="round" stroke-linejoin="round" stroke-width="0.25"/>
  </g>
</svg>
