<?xml version="1.0" encoding="UTF-8" standalone="no"?>
<svg xmlns:xlink="http://www.w3.org/1999/xlink" height="8.8px" width="15.0px" xmlns="http://www.w3.org/2000/svg">
  <g transform="matrix(1, 0, 0, 1, 7.75, 2.9)">
    <path d="M-5.55 0.6 Q-4.1 0.0 -2.85 -2.9 L4.0 -2.9 3.1 1.0 2.7 1.35 1.25 2.2 -1.0 2.45 -2.9 2.35 -4.2 2.2 -5.2 2.0 Q-6.25 1.4 -5.55 0.6" fill="#ebebeb" fill-rule="evenodd" stroke="none"/>
    <path d="M4.0 -2.9 L6.8 -2.9 Q7.0 -1.5 7.1 -1.65 7.6 0.45 6.6 1.75 L6.35 3.0 3.75 4.05 Q3.8 3.5 3.25 3.55 L2.4 4.15 Q2.1 4.35 1.85 4.5 L1.8 4.55 1.35 4.8 -2.55 5.8 -3.7 5.9 Q-5.85 6.0 -7.5 4.9 -7.95 3.9 -7.65 2.2 -7.1 1.05 -5.55 0.6 -6.25 1.4 -5.2 2.0 L-4.2 2.2 -2.9 2.35 -1.0 2.45 1.25 2.2 2.7 1.35 3.1 1.0 4.0 -2.9" fill="#204057" fill-rule="evenodd" stroke="none"/>
    <path d="M-5.55 0.6 Q-4.1 0.0 -2.85 -2.9 L4.0 -2.9" fill="none" stroke="#a0a0a0" stroke-linecap="round" stroke-linejoin="round" stroke-width="0.05"/>
    <path d="M4.0 -2.9 L6.8 -2.9 Q7.0 -1.5 7.1 -1.65 7.6 0.45 6.6 1.75 L6.35 3.0 3.75 4.05 Q3.8 3.5 3.25 3.55 L2.4 4.15 Q2.1 4.35 1.85 4.5 L1.8 4.55 1.35 4.8 -2.55 5.8 -3.7 5.9 Q-5.85 6.0 -7.5 4.9 -7.95 3.9 -7.65 2.2 -7.1 1.05 -5.55 0.6 M4.0 -2.9 L3.1 1.0 2.7 1.35 1.25 2.2 -1.0 2.45 -2.9 2.35 -4.2 2.2 -5.2 2.0 Q-6.25 1.4 -5.55 0.6" fill="none" stroke="#204057" stroke-linecap="round" stroke-linejoin="round" stroke-width="0.05"/>
  </g>
</svg>
