<?xml version="1.0" encoding="UTF-8" standalone="no"?>
<svg xmlns:xlink="http://www.w3.org/1999/xlink" height="30.9px" width="11.8px" xmlns="http://www.w3.org/2000/svg">
  <g transform="matrix(1, 0, 0, 1, 7.5, 30.75)">
    <path d="M1.25 -24.45 Q1.9 -23.9 2.55 -23.95 L3.0 -24.0 3.15 -23.65 Q4.2 -15.85 4.3 -8.6 L4.15 -1.45 4.1 -1.3 3.45 -0.55 1.8 -0.05 1.65 -0.05 1.45 0.0 1.25 -24.45 M-4.65 -25.0 L-4.95 -19.2 Q-5.35 -18.8 -5.6 -18.85 -6.0 -18.9 -6.15 -19.95 L-5.9 -25.15 -5.55 -25.05 -5.05 -25.0 -4.9 -25.0 -4.7 -25.0 -4.65 -25.0" fill="#204057" fill-rule="evenodd" stroke="none"/>
    <path d="M1.45 0.0 L1.35 0.0 0.95 0.05 -1.05 0.15 Q-3.45 -0.15 -5.05 -0.95 L-6.35 -1.85 -6.7 -2.2 -6.8 -2.3 -7.0 -2.5 -7.25 -8.6 Q-7.45 -15.85 -7.15 -23.0 -6.9 -24.1 -6.95 -26.0 L-6.9 -26.0 Q-6.45 -25.4 -5.9 -25.15 L-6.15 -19.95 Q-6.0 -18.9 -5.6 -18.85 -5.35 -18.8 -4.95 -19.2 L-4.65 -25.0 Q-4.2 -25.1 -3.85 -25.5 -3.35 -26.1 -3.35 -27.1 -3.4 -28.1 -3.95 -28.95 -4.5 -29.75 -5.25 -29.9 L-5.75 -29.9 -5.8 -29.9 Q-6.5 -30.05 -7.0 -29.45 L-7.25 -29.05 -7.45 -30.25 -5.7 -30.7 Q-3.25 -31.05 -1.1 -29.5 -0.95 -27.0 0.45 -25.3 L1.25 -24.45 1.45 0.0" fill="#ebebeb" fill-rule="evenodd" stroke="none"/>
    <path d="M-6.9 -26.0 L-6.95 -26.1 Q-7.5 -26.9 -7.5 -27.85 -7.55 -28.55 -7.25 -29.05 L-7.0 -29.45 Q-6.5 -30.05 -5.8 -29.9 L-5.75 -29.9 -5.7 -29.9 -4.4 -28.95 Q-3.85 -28.1 -3.8 -27.1 -3.8 -26.1 -4.3 -25.5 L-4.75 -25.15 -4.9 -25.05 -5.05 -25.0 -5.55 -25.05 -5.9 -25.15 Q-6.45 -25.4 -6.9 -26.0" fill="#ffee99" fill-rule="evenodd" stroke="none"/>
    <path d="M-5.75 -29.9 L-5.25 -29.9 Q-4.5 -29.75 -3.95 -28.95 -3.4 -28.1 -3.35 -27.1 -3.35 -26.1 -3.85 -25.5 -4.2 -25.1 -4.65 -25.0 L-4.7 -25.0 -4.9 -25.0 -5.05 -25.0 -4.9 -25.05 -4.75 -25.15 -4.3 -25.5 Q-3.8 -26.1 -3.8 -27.1 -3.85 -28.1 -4.4 -28.95 L-5.7 -29.9 -5.75 -29.9" fill="#92655a" fill-rule="evenodd" stroke="none"/>
    <path d="M1.25 -24.45 Q1.9 -23.9 2.55 -23.95 L3.0 -24.0 3.15 -23.65 Q4.2 -15.85 4.3 -8.6 L4.15 -1.45 4.1 -1.3 3.45 -0.55 1.8 -0.05 1.65 -0.05 1.45 0.0 1.35 0.0 0.95 0.05 -1.05 0.15 Q-3.45 -0.15 -5.05 -0.95 L-6.35 -1.85 -6.7 -2.2 -6.8 -2.3 -7.0 -2.5 -7.25 -8.6 Q-7.45 -15.85 -7.15 -23.0 -6.9 -24.1 -6.95 -26.0 M-6.9 -26.0 L-6.95 -26.1 Q-7.5 -26.9 -7.5 -27.85 -7.55 -28.55 -7.25 -29.05 L-7.45 -30.25 -5.7 -30.7 Q-3.25 -31.05 -1.1 -29.5 -0.95 -27.0 0.45 -25.3 L1.25 -24.45 M-5.75 -29.9 L-5.25 -29.9 Q-4.5 -29.75 -3.95 -28.95 -3.4 -28.1 -3.35 -27.1 -3.35 -26.1 -3.85 -25.5 -4.2 -25.1 -4.65 -25.0 L-4.95 -19.2 Q-5.35 -18.8 -5.6 -18.85 -6.0 -18.9 -6.15 -19.95 L-5.9 -25.15 Q-6.45 -25.4 -6.9 -26.0 M-5.75 -29.9 L-5.8 -29.9 Q-6.5 -30.05 -7.0 -29.45 L-7.25 -29.05 M-5.7 -29.9 L-5.75 -29.9 M-5.05 -25.0 L-5.55 -25.05 -5.9 -25.15 M-4.65 -25.0 L-4.7 -25.0 -4.9 -25.0 -5.05 -25.0" fill="none" stroke="#204057" stroke-linecap="round" stroke-linejoin="round" stroke-width="0.05"/>
  </g>
</svg>
