<?xml version="1.0" encoding="UTF-8" standalone="no"?>
<svg xmlns:xlink="http://www.w3.org/1999/xlink" height="34.15px" width="20.85px" xmlns="http://www.w3.org/2000/svg">
  <g transform="matrix(1, 0, 0, 1, 11.0, 13.15)">
    <path d="M2.35 -8.25 Q1.6 -8.1 -0.05 -6.95 L-1.55 -7.0 Q-3.55 -7.4 -5.3 -8.35 L-5.25 -8.65 -5.6 -8.5 -5.9 -8.7 -5.25 -8.75 -5.25 -8.65 -5.2 -8.75 Q-4.85 -11.05 -5.3 -12.75 -0.7 -13.6 2.4 -12.7 L2.2 -11.3 2.2 -11.05 Q2.1 -9.6 2.35 -8.25" fill="#ffd0ae" fill-rule="evenodd" stroke="none"/>
    <path d="M2.5 -7.6 L2.3 -7.55 -0.05 -6.95 Q1.6 -8.1 2.35 -8.25 L2.5 -7.65 2.5 -7.6 2.5 -7.65 2.55 -7.65 2.5 -7.6 M-5.3 -8.35 L-5.6 -8.5 -5.25 -8.65 -5.3 -8.35" fill="#ffdfc8" fill-rule="evenodd" stroke="none"/>
    <path d="M-5.25 -8.75 L-5.2 -8.75 -5.25 -8.65 -5.25 -8.75" fill="#eebf5a" fill-rule="evenodd" stroke="none"/>
    <path d="M2.5 -7.6 L2.5 -7.65 2.35 -8.25 M-5.9 -8.7 L-5.25 -8.75 -5.2 -8.75 Q-4.85 -11.05 -5.3 -12.75 -0.7 -13.6 2.4 -12.7 L2.2 -11.3 2.2 -11.05 Q2.1 -9.6 2.35 -8.25 M-5.2 -8.75 L-5.25 -8.65 -5.3 -8.35" fill="none" stroke="#d7995e" stroke-linecap="round" stroke-linejoin="round" stroke-width="0.05"/>
    <path d="M2.65 -10.95 L3.55 -10.25 Q4.0 -9.35 3.75 -8.0 L3.55 -7.25 5.55 -6.35 7.3 -5.3 Q9.95 -3.9 9.75 -2.7 L9.75 -0.4 9.45 1.8 Q9.1 3.8 8.15 5.85 L7.95 6.25 7.95 6.3 7.85 6.95 Q6.5 8.2 4.8 8.9 5.7 5.5 -0.05 6.55 -1.45 5.45 -3.15 5.0 L-3.15 4.8 -2.6 4.6 -2.55 4.55 Q-1.35 4.95 -0.45 5.45 2.7 6.25 5.3 4.4 L6.15 3.0 Q6.8 1.65 6.85 0.5 6.95 -2.6 2.05 -6.2 L2.2 -7.5 1.95 -9.4 1.9 -9.6 1.95 -9.6 2.0 -9.65 2.05 -10.45 2.65 -10.95 M-8.4 6.95 L-9.1 5.0 -9.15 4.9 -9.9 2.5 -8.35 3.5 -8.2 3.65 -6.75 4.4 -5.75 4.2 -5.05 4.65 -5.05 4.75 Q-7.0 4.8 -7.85 5.85 L-7.9 5.95 -8.35 6.9 -8.4 6.95 M-10.9 -2.95 L-10.8 -4.95 Q-10.65 -6.25 -8.95 -8.1 L-7.45 -8.45 -6.55 -8.6 -6.4 -7.75 -6.25 -7.1 -6.2 -7.05 -5.7 -6.4 -7.3 -6.05 Q-9.55 -5.75 -10.35 -4.35 L-10.9 -2.95 M2.5 -9.8 L2.0 -9.65 2.5 -9.8 M2.2 -7.5 L2.3 -7.55 3.75 -8.0 2.3 -7.55 2.2 -7.5 M3.55 -7.25 L3.45 -7.0 3.4 -6.95 2.5 -6.4 2.05 -6.2 2.5 -6.4 3.4 -6.95 3.45 -7.0 3.55 -7.25 M9.75 -0.4 L6.85 0.5 9.75 -0.4 M9.45 1.8 L6.15 3.0 9.45 1.8" fill="#679ab0" fill-rule="evenodd" stroke="none"/>
    <path d="M-8.35 7.1 L-8.4 6.95 -8.35 6.9 -7.9 5.95 -7.85 5.85 Q-7.0 4.8 -5.05 4.75 -4.75 7.85 -4.05 9.05 L-4.25 14.15 Q-5.6 13.35 -6.65 12.35 L-6.65 8.3 Q-7.5 8.1 -8.35 7.1 M-9.9 2.5 L-10.5 0.2 Q-10.9 -1.65 -10.9 -2.65 L-10.9 -2.95 -10.35 -4.35 Q-9.55 -5.75 -7.3 -6.05 L-5.7 -6.4 -6.2 -7.05 -6.25 -7.1 -6.4 -7.75 -6.55 -8.6 -6.6 -9.15 -6.3 -10.4 Q-6.1 -10.8 -5.15 -11.05 L-4.85 -9.6 Q-2.2 -8.55 1.9 -9.6 L1.95 -9.6 1.9 -9.6 1.95 -9.4 2.2 -7.5 2.05 -6.2 Q6.95 -2.6 6.85 0.5 6.8 1.65 6.15 3.0 L5.3 4.4 Q2.7 6.25 -0.45 5.45 -1.35 4.95 -2.55 4.55 L-1.95 4.0 -1.75 3.75 Q2.15 4.15 6.15 3.0 2.15 4.15 -1.75 3.75 -1.15 3.0 -1.2 2.05 L-1.25 1.5 Q-1.5 0.65 -2.1 0.2 L-2.8 -0.2 -2.05 -3.95 -1.7 -5.15 -1.7 -7.0 -1.55 -7.0 Q0.35 -6.75 2.2 -7.5 0.35 -6.75 -1.55 -7.0 L-1.7 -7.0 -1.7 -7.55 -4.05 -7.8 -4.05 -7.75 -4.05 -5.3 -4.35 -4.25 -4.75 -1.9 -4.95 -0.25 -5.9 0.45 -5.95 0.55 Q-6.65 1.45 -6.6 2.4 L-6.55 2.8 Q-6.4 3.6 -5.75 4.2 L-6.75 4.4 -8.2 3.65 -8.35 3.5 -9.9 2.5 M2.05 -10.45 L2.1 -11.15 2.65 -10.95 2.05 -10.45 M4.8 8.9 L1.55 9.7 1.4 14.2 -2.4 14.6 -2.15 9.35 Q-2.85 8.65 -3.15 5.0 -1.45 5.45 -0.05 6.55 5.7 5.5 4.8 8.9 M2.05 -6.2 L-1.3 -5.2 -1.7 -5.15 -1.3 -5.2 2.05 -6.2 M6.85 0.5 Q2.75 1.5 -1.25 1.5 2.75 1.5 6.85 0.5 M-5.7 -6.4 L-4.15 -5.35 -4.05 -5.3 -4.15 -5.35 -5.7 -6.4 M-6.6 -9.15 Q-5.4 -8.3 -4.05 -7.75 -5.4 -8.3 -6.6 -9.15 M-5.35 -9.8 L-4.85 -9.6 -5.35 -9.8 M-5.95 0.55 Q-8.65 -0.7 -10.9 -2.65 -8.65 -0.7 -5.95 0.55 M-10.5 0.2 Q-9.0 1.75 -6.55 2.8 -9.0 1.75 -10.5 0.2" fill="#add2e3" fill-rule="evenodd" stroke="none"/>
    <path d="M7.85 6.95 Q7.35 9.85 7.4 10.25 L7.4 11.1 4.4 12.9 4.1 10.6 4.3 10.15 4.8 8.9 Q6.5 8.2 7.85 6.95" fill="#e0e0e0" fill-rule="evenodd" stroke="none"/>
    <path d="M-8.2 10.5 L-8.2 10.45 -8.35 7.15 -8.35 7.1 Q-7.5 8.1 -6.65 8.3 L-6.65 12.35 -8.2 10.5 -8.2 10.45 -8.2 10.5 M1.4 14.2 L1.55 9.7 4.8 8.9 4.3 10.15 4.1 10.6 4.4 12.9 Q2.9 13.75 1.4 14.2 M-3.15 5.0 Q-2.85 8.65 -2.15 9.35 L-2.4 14.6 -3.3 14.5 -4.25 14.15 -4.05 9.05 Q-4.75 7.85 -5.05 4.75 L-4.85 4.75 -3.8 4.9 -3.5 4.9 -3.15 5.0 M-4.05 -7.8 L-1.7 -7.55 -1.7 -7.0 -4.05 -7.75 -1.7 -7.0 -1.7 -5.15 -2.05 -3.95 -2.8 -0.2 -4.05 -0.45 -4.5 -0.4 -4.95 -0.25 -4.75 -1.9 -4.35 -4.25 -4.05 -5.3 -4.05 -7.75 -4.05 -7.8 M-4.05 -5.3 L-1.7 -5.15 -4.05 -5.3" fill="#ffffff" fill-rule="evenodd" stroke="none"/>
    <path d="M7.4 11.1 L7.85 13.2 Q6.8 14.25 5.2 14.85 L1.6 15.85 1.6 17.8 2.55 17.7 5.25 17.1 6.25 16.65 7.85 15.3 7.6 16.4 7.25 18.05 4.3 18.4 3.85 18.5 Q0.7 19.05 -2.15 21.0 -3.15 20.75 -4.25 20.1 -6.3 18.95 -8.65 16.55 L-8.95 14.65 -8.7 15.0 -8.45 15.3 Q-7.7 16.2 -6.9 16.35 L-6.95 14.2 -8.35 12.9 -8.8 12.35 -8.2 10.5 -6.65 12.35 Q-5.6 13.35 -4.25 14.15 L-3.3 14.5 -2.4 14.6 1.4 14.2 Q2.9 13.75 4.4 12.9 L7.4 11.1 M6.25 16.65 L7.3 16.45 7.6 16.4 7.3 16.45 6.25 16.65 M-4.25 20.1 Q-1.7 19.5 0.65 18.45 L2.55 17.7 0.65 18.45 Q-1.7 19.5 -4.25 20.1 M-1.1 17.85 L-1.1 16.1 Q-3.2 16.45 -4.8 15.7 L-5.15 15.5 -5.05 17.8 -3.15 19.35 -1.1 17.85" fill="#263959" fill-rule="evenodd" stroke="none"/>
    <path d="M7.85 13.2 L7.85 15.3 6.25 16.65 5.25 17.1 2.55 17.7 1.6 17.8 1.6 15.85 5.2 14.85 Q6.8 14.25 7.85 13.2 M-8.95 14.65 L-8.8 12.35 -8.35 12.9 -6.95 14.2 -6.9 16.35 Q-7.7 16.2 -8.45 15.3 L-8.7 15.0 -8.95 14.65 M6.25 16.65 L2.55 17.7 6.25 16.65 M-1.1 17.85 L-3.15 19.35 -5.05 17.8 -5.15 15.5 -4.8 15.7 Q-3.2 16.45 -1.1 16.1 L-1.1 17.85" fill="#576bca" fill-rule="evenodd" stroke="none"/>
    <path d="M-1.75 3.75 L-1.95 4.0 -2.55 4.55 -2.6 4.55 -2.6 4.6 -3.15 4.8 -3.5 4.9 -3.8 4.9 -4.85 4.75 -5.05 4.65 -5.75 4.2 Q-6.4 3.6 -6.55 2.8 L-6.6 2.4 Q-6.65 1.45 -5.95 0.55 L-5.9 0.45 -4.95 -0.25 -4.5 -0.4 -4.05 -0.45 -2.8 -0.2 -2.1 0.2 Q-1.5 0.65 -1.25 1.5 L-1.2 2.05 Q-1.15 3.0 -1.75 3.75 M-4.3 1.6 L-4.15 1.1 -4.35 0.55 -4.85 0.35 -5.35 0.6 -5.55 1.15 -5.3 1.65 -4.8 1.8 -4.3 1.6" fill="#b75041" fill-rule="evenodd" stroke="none"/>
    <path d="M-4.3 1.6 L-4.8 1.8 -5.3 1.65 -5.55 1.15 -5.35 0.6 -4.85 0.35 -4.35 0.55 -4.15 1.1 -4.3 1.6" fill="#ecb985" fill-rule="evenodd" stroke="none"/>
    <path d="M-2.6 4.6 L-2.6 4.55 -2.55 4.55 -2.6 4.6 M-5.05 4.65 L-4.85 4.75 -5.05 4.75 -5.05 4.65 M-3.5 4.9 L-3.15 4.8 -3.15 5.0 -3.5 4.9" fill="#f2f2f2" fill-rule="evenodd" stroke="none"/>
    <path d="M6.85 0.5 L9.75 -0.4 M6.15 3.0 L9.45 1.8 M6.15 3.0 Q2.15 4.15 -1.75 3.75 M-1.25 1.5 Q2.75 1.5 6.85 0.5 M-6.55 2.8 Q-9.0 1.75 -10.5 0.2 M-10.9 -2.65 Q-8.65 -0.7 -5.95 0.55" fill="none" stroke="#ffffff" stroke-linecap="round" stroke-linejoin="round" stroke-width="0.25"/>
    <path d="M7.4 11.1 L7.85 13.2 7.85 15.3 7.6 16.4 7.25 18.05 4.3 18.4 3.85 18.5 Q0.7 19.05 -2.15 21.0 -3.15 20.75 -4.25 20.1 -6.3 18.95 -8.65 16.55 L-8.95 14.65 -8.8 12.35 -8.2 10.5" fill="none" stroke="#000000" stroke-linecap="round" stroke-linejoin="round" stroke-width="0.05"/>
    <path d="M-3.15 5.0 Q-2.85 8.65 -2.15 9.35 L-2.4 14.6 M-1.7 -7.0 L-1.7 -7.55 -4.05 -7.8 -4.05 -7.75 M-1.7 -7.0 L-1.7 -5.15 -2.05 -3.95 -2.8 -0.2 M-4.95 -0.25 L-4.75 -1.9 -4.35 -4.25 -4.05 -5.3 -4.05 -7.75 M-3.15 4.8 L-3.15 5.0 M-5.05 4.65 L-5.05 4.75 M-4.25 14.15 L-4.05 9.05 Q-4.75 7.85 -5.05 4.75" fill="none" stroke="#576cc9" stroke-linecap="round" stroke-linejoin="round" stroke-width="0.25"/>
    <path d="M2.65 -10.95 L3.55 -10.25 Q4.0 -9.35 3.75 -8.0 L3.55 -7.25 5.55 -6.35 7.3 -5.3 Q9.95 -3.9 9.75 -2.7 L9.75 -0.4 9.45 1.8 Q9.1 3.8 8.15 5.85 L7.95 6.25 7.95 6.3 7.85 6.95 Q7.35 9.85 7.4 10.25 L7.4 11.1 7.4 11.05 7.4 11.1 M-8.2 10.5 L-8.2 10.45 -8.35 7.15 M-8.35 7.1 L-8.4 6.95 -9.1 5.0 -9.15 4.9 -9.9 2.5 -10.5 0.2 Q-10.9 -1.65 -10.9 -2.65 L-10.9 -2.95 -10.8 -4.95 M-8.95 -8.1 L-7.45 -8.45 -6.55 -8.6 -6.6 -9.15 -6.3 -10.4 Q-6.1 -10.8 -5.15 -11.05 M-4.85 -9.6 Q-2.2 -8.55 1.9 -9.6 L1.95 -9.6 2.0 -9.65 2.5 -9.8 M2.1 -11.15 L2.65 -10.95 M2.05 -6.2 L2.5 -6.4 3.4 -6.95 3.45 -7.0 3.55 -7.25 M-2.4 14.6 L1.4 14.2 Q2.9 13.75 4.4 12.9 L7.4 11.1 M-5.7 -6.4 L-6.2 -7.05 -6.25 -7.1 -6.4 -7.75 -6.55 -8.6 M-1.7 -5.15 L-1.3 -5.2 2.05 -6.2 M-4.05 -5.3 L-4.15 -5.35 -5.7 -6.4 M-1.7 -5.15 L-4.05 -5.3 M-4.85 -9.6 L-5.35 -9.8 M-8.2 10.5 L-8.2 10.45" fill="none" stroke="#a0a0a0" stroke-linecap="round" stroke-linejoin="round" stroke-width="0.05"/>
  </g>
</svg>
