<?xml version="1.0" encoding="UTF-8" standalone="no"?>
<svg xmlns:xlink="http://www.w3.org/1999/xlink" height="15.85px" width="7.65px" xmlns="http://www.w3.org/2000/svg">
  <g transform="matrix(1, 0, 0, 1, 3.05, 0.65)">
    <path d="M3.35 4.1 L3.45 3.0 Q3.2 1.25 2.4 0.25 L3.55 -0.25 Q5.15 1.55 4.3 4.1 L3.35 4.1" fill="#ffee99" fill-rule="evenodd" stroke="none"/>
    <path d="M3.35 4.1 L2.3 14.2 Q1.15 15.9 -2.4 13.15 -2.15 8.75 -3.05 2.8 -2.25 -1.15 1.35 -0.55 L2.4 0.25 Q3.2 1.25 3.45 3.0 L3.35 4.1" fill="#ffffff" fill-rule="evenodd" stroke="none"/>
    <path d="M2.3 14.2 L3.35 4.1 3.45 3.0 Q3.2 1.25 2.4 0.25 L1.35 -0.55 Q-2.25 -1.15 -3.05 2.8 -2.15 8.75 -2.4 13.15 M2.4 0.25 L3.55 -0.25 Q5.15 1.55 4.3 4.1 L3.35 4.1" fill="none" stroke="#a0a0a0" stroke-linecap="round" stroke-linejoin="round" stroke-width="0.05"/>
    <path d="M1.5 11.1 L1.6 11.0 Q2.2 10.2 2.8 10.2 3.4 10.3 3.6 11.05 3.85 11.8 3.6 12.85 3.4 13.85 2.85 14.55 2.35 15.25 1.75 15.2 1.1 15.2 0.8 14.5 L0.75 14.3 Q0.6 13.6 0.75 12.75 L0.8 12.6 1.5 11.1 M-1.6 13.1 Q-2.5 12.95 -2.75 12.3 -2.95 11.55 -2.65 10.85 L-2.4 10.4 -2.15 11.4 -2.05 11.65 -1.95 11.9 -1.6 13.1" fill="#847d31" fill-rule="evenodd" stroke="none"/>
    <path d="M0.7 11.05 L1.5 11.1 0.8 12.6 0.75 12.75 Q0.6 13.6 0.75 14.3 L0.3 14.3 -0.65 13.2 0.15 12.6 -0.6 11.6 0.7 11.05 M-1.4 13.55 L-1.5 13.45 -1.6 13.1 -1.95 11.9 -0.9 13.25 -0.85 13.35 -1.4 13.55 M-2.4 10.4 L-2.3 10.35 -1.25 11.55 -1.95 11.6 -2.15 11.4 -2.4 10.4" fill="#c5c5c5" fill-rule="evenodd" stroke="none"/>
    <path d="M-2.3 10.35 L-2.4 10.3 -2.45 10.15 -2.2 10.2 0.15 10.95 0.7 11.05 -0.6 11.6 0.15 12.6 -0.65 13.2 0.3 14.3 Q-0.7 14.25 -1.4 13.55 L-0.85 13.35 -0.9 13.25 -1.95 11.9 -2.05 11.65 -1.95 11.6 -1.25 11.55 -2.3 10.35" fill="#e0e0e0" fill-rule="evenodd" stroke="none"/>
  </g>
</svg>
