<?xml version="1.0" encoding="UTF-8" standalone="no"?>
<svg xmlns:xlink="http://www.w3.org/1999/xlink" height="13.3px" width="18.55px" xmlns="http://www.w3.org/2000/svg">
  <g transform="matrix(1, 0, 0, 1, 5.6, 7.45)">
    <path d="M10.0 -7.05 Q7.8 -4.9 6.95 -2.35 5.65 2.1 3.15 3.1 0.6 4.1 -1.4 1.6 -3.4 -0.95 -3.15 -3.8 -0.5 -5.6 3.85 -6.9 L10.0 -7.05" fill="#263959" fill-rule="evenodd" stroke="none"/>
    <path d="M-3.15 -3.8 Q-3.4 -0.95 -1.4 1.6 0.6 4.1 3.15 3.1 5.65 2.1 6.95 -2.35 7.8 -4.9 10.0 -7.05 11.5 -6.7 12.85 -5.85 10.75 -3.95 10.3 -2.6 9.85 -1.3 9.95 -1.25 7.65 4.9 2.85 5.7 -1.1 6.25 -3.9 2.65 -5.1 1.1 -5.4 -0.45 -5.65 -1.85 -5.15 -2.2 L-3.15 -3.8" fill="#ffffff" fill-rule="evenodd" stroke="none"/>
    <path d="M-3.15 -3.8 L-5.15 -2.2 Q-5.65 -1.85 -5.4 -0.45 -5.1 1.1 -3.9 2.65 -1.1 6.25 2.85 5.7 7.65 4.9 9.95 -1.25 9.85 -1.3 10.3 -2.6 10.75 -3.95 12.85 -5.85 11.5 -6.7 10.0 -7.05 L3.85 -6.9 Q-0.5 -5.6 -3.15 -3.8" fill="none" stroke="#000000" stroke-linecap="round" stroke-linejoin="round" stroke-width="0.25"/>
  </g>
</svg>
