<?xml version="1.0" encoding="UTF-8" standalone="no"?>
<svg xmlns:xlink="http://www.w3.org/1999/xlink" height="15.2px" width="6.5px" xmlns="http://www.w3.org/2000/svg">
  <g transform="matrix(1, 0, 0, 1, 3.1, 0.75)">
    <path d="M3.1 3.1 Q0.65 5.35 -2.6 3.05 -3.6 2.05 -2.6 1.65 0.65 4.3 3.05 2.0 3.7 2.4 3.1 3.1" fill="#ffffff" fill-rule="evenodd" stroke="none"/>
    <path d="M-2.6 1.65 Q-2.5 0.7 -2.0 0.05 -1.05 -1.25 1.4 -0.4 L3.0 1.8 3.05 2.0 Q0.65 4.3 -2.6 1.65" fill="#689b98" fill-rule="evenodd" stroke="none"/>
    <path d="M3.1 3.1 L2.3 14.2 Q0.7 15.15 -2.3 12.55 -1.65 8.6 -2.05 6.35 L-2.6 3.05 Q0.65 5.35 3.1 3.1" fill="#2f546f" fill-rule="evenodd" stroke="none"/>
    <path d="M2.3 14.2 L3.1 3.1 M-2.6 3.05 L-2.05 6.35 Q-1.65 8.6 -2.3 12.55" fill="none" stroke="#1d3643" stroke-linecap="round" stroke-linejoin="round" stroke-width="0.05"/>
    <path d="M3.1 3.1 Q0.65 5.35 -2.6 3.05 M3.05 2.0 Q3.7 2.4 3.1 3.1 M3.05 2.0 Q0.65 4.3 -2.6 1.65 -3.6 2.05 -2.6 3.05" fill="none" stroke="#666666" stroke-linecap="round" stroke-linejoin="round" stroke-width="0.05"/>
    <path d="M-2.6 1.65 Q-2.5 0.7 -2.0 0.05 -1.05 -1.25 1.4 -0.4 L3.0 1.8 3.05 2.0" fill="none" stroke="#37534d" stroke-linecap="round" stroke-linejoin="round" stroke-width="0.05"/>
  </g>
</svg>
