<?xml version="1.0" encoding="UTF-8" standalone="no"?>
<svg xmlns:xlink="http://www.w3.org/1999/xlink" height="371.45px" width="305.0px" xmlns="http://www.w3.org/2000/svg">
  <g transform="matrix(1, 0, 0, 1, 151.2, 114.15)">
    <path d="M139.4 -74.4 Q139.8 -73.95 139.8 -73.25 139.8 -72.55 139.4 -72.05 139.0 -71.6 138.4 -71.6 137.8 -71.6 137.4 -72.05 137.0 -72.55 137.0 -73.25 137.0 -73.95 137.4 -74.4 137.8 -74.85 138.4 -74.85 L139.4 -74.4 M142.9 -69.2 Q143.5 -69.2 143.9 -68.75 144.3 -68.3 144.3 -67.6 144.3 -66.9 143.9 -66.4 143.5 -65.95 142.9 -65.95 142.3 -65.95 141.9 -66.4 141.5 -66.9 141.5 -67.6 141.5 -68.3 141.9 -68.75 142.3 -69.2 142.9 -69.2 M145.35 -58.6 Q144.95 -58.15 144.35 -58.15 143.75 -58.15 143.35 -58.6 142.95 -59.1 142.95 -59.8 142.95 -60.5 143.35 -60.95 143.75 -61.4 144.35 -61.4 144.95 -61.4 145.35 -60.95 145.75 -60.5 145.75 -59.8 145.75 -59.1 145.35 -58.6 M117.35 -81.4 Q117.45 -80.35 116.95 -79.6 116.45 -78.85 115.55 -78.75 114.65 -78.65 114.0 -79.25 113.3 -79.9 113.2 -80.9 113.05 -81.95 113.6 -82.7 114.1 -83.5 115.0 -83.6 115.85 -83.7 116.55 -83.05 117.2 -82.45 117.35 -81.4 M-140.1 -77.05 Q-140.7 -76.35 -141.7 -76.3 -142.7 -76.2 -143.4 -76.75 -144.1 -77.4 -144.2 -78.35 -144.3 -79.35 -143.7 -80.05 -143.1 -80.8 -142.1 -80.85 -141.1 -80.95 -140.4 -80.35 -139.65 -79.8 -139.55 -78.8 -139.5 -77.8 -140.1 -77.05 M-134.7 -75.75 Q-133.75 -75.85 -133.0 -75.25 -132.3 -74.65 -132.2 -73.7 -132.1 -72.7 -132.7 -71.95 -133.3 -71.25 -134.3 -71.15 -135.3 -71.1 -136.0 -71.65 -136.75 -72.3 -136.8 -73.25 -136.9 -74.25 -136.3 -74.95 -135.7 -75.7 -134.7 -75.75 M-148.7 -81.9 Q-149.7 -81.85 -150.4 -82.45 -151.15 -83.05 -151.2 -84.0 -151.3 -85.0 -150.7 -85.7 -150.1 -86.45 -149.1 -86.5 -148.15 -86.6 -147.4 -86.0 -146.7 -85.4 -146.6 -84.4 -146.5 -83.45 -147.1 -82.75 -147.7 -82.0 -148.7 -81.9 M-48.2 -94.3 Q-47.8 -94.7 -47.2 -94.6 -46.7 -94.55 -46.35 -94.05 -46.05 -93.6 -46.15 -92.95 -46.25 -92.3 -46.65 -91.95 -47.05 -91.55 -47.6 -91.6 L-48.5 -92.15 Q-48.8 -92.65 -48.7 -93.3 -48.65 -93.95 -48.2 -94.3" fill="#000000" fill-opacity="0.83137256" fill-rule="evenodd" stroke="none"/>
    <path d="M100.85 -103.55 Q105.6 -101.65 108.6 -96.75 111.15 -92.55 111.35 -87.6 L111.3 -87.35 110.15 -85.1 109.35 -83.1 112.0 -85.9 112.05 -85.9 115.65 -89.0 Q116.8 -89.85 118.05 -90.15 L118.0 -90.15 Q119.15 -90.6 120.45 -90.65 L120.8 -90.5 122.3 -89.3 122.3 -89.25 Q124.35 -87.65 124.65 -84.25 L124.6 -83.95 124.3 -83.45 124.05 -82.5 124.0 -82.4 Q123.55 -81.5 122.75 -80.7 121.35 -79.55 119.8 -79.4 L119.75 -79.4 Q118.75 -79.25 118.1 -80.05 L118.05 -80.1 Q117.5 -80.9 117.35 -81.75 L117.2 -83.75 117.35 -84.1 118.65 -85.2 118.6 -85.2 Q119.15 -85.65 119.8 -85.75 L120.15 -85.7 120.35 -85.45 121.0 -83.45 121.05 -83.3 121.55 -83.9 121.2 -85.9 120.15 -86.5 Q117.85 -87.55 115.3 -85.8 L112.3 -82.6 109.25 -77.95 109.95 -77.55 112.2 -77.6 118.8 -77.65 118.85 -77.65 119.95 -77.55 120.05 -77.65 Q120.65 -78.6 121.8 -78.75 122.85 -78.9 123.75 -78.1 L124.65 -76.65 127.05 -76.15 Q129.3 -75.7 131.65 -74.35 L134.55 -72.7 134.55 -72.75 136.55 -71.15 138.45 -69.4 139.65 -67.75 140.8 -65.05 140.75 -65.05 141.05 -63.8 141.05 -63.75 141.1 -61.65 141.1 -61.6 140.6 -55.75 Q141.8 -56.2 143.15 -56.3 147.0 -56.65 150.05 -54.85 152.25 -53.55 153.3 -51.3 L153.35 -51.25 Q154.45 -48.05 152.9 -44.6 151.9 -42.15 149.85 -41.1 L149.8 -41.1 148.25 -40.4 148.2 -40.4 146.15 -40.1 Q144.9 -40.15 144.15 -40.8 L144.2 -40.75 Q142.6 -41.65 141.45 -42.9 L141.3 -43.2 Q141.25 -44.75 141.75 -45.95 L141.75 -45.9 Q142.2 -47.35 143.6 -47.95 L144.95 -48.35 145.0 -48.35 147.15 -48.3 147.35 -48.2 147.55 -48.05 147.9 -47.6 148.05 -47.35 148.25 -46.2 148.5 -45.55 148.5 -45.35 148.35 -44.7 148.15 -44.4 145.6 -42.45 145.75 -42.45 Q148.1 -42.4 149.35 -43.6 150.6 -44.85 151.15 -46.85 L150.95 -47.1 150.85 -47.45 Q151.15 -49.9 149.25 -51.3 148.4 -51.7 147.7 -52.25 L147.2 -52.6 Q144.25 -53.1 141.7 -51.35 L140.5 -50.15 139.0 -47.9 134.75 255.3 134.6 255.65 134.25 255.8 -115.9 255.8 -116.25 255.65 -116.4 255.35 Q-117.75 228.35 -121.8 91.45 -125.45 -29.85 -127.75 -58.65 -129.3 -61.05 -129.95 -63.65 L-132.95 -65.3 -134.6 -65.75 -134.65 -65.75 Q-137.75 -65.95 -140.0 -64.1 L-140.25 -63.55 -141.15 -61.85 -141.15 -61.95 Q-142.15 -59.7 -140.65 -57.8 L-140.55 -57.5 -140.55 -57.15 Q-139.1 -55.65 -137.35 -55.15 -135.75 -54.75 -133.7 -56.0 L-133.6 -56.05 -133.7 -56.05 -136.75 -56.5 -137.05 -56.65 -137.55 -57.15 -137.65 -57.35 -137.75 -57.95 -138.15 -59.15 -138.15 -59.3 -138.05 -60.0 -137.95 -60.2 -137.8 -60.35 -136.05 -61.45 -136.0 -61.5 -134.6 -61.85 Q-133.15 -62.0 -132.0 -61.05 L-131.95 -61.0 Q-130.95 -60.25 -130.2 -58.9 L-130.15 -58.5 Q-130.65 -56.85 -131.5 -55.3 L-131.45 -55.35 Q-131.8 -54.4 -132.8 -53.75 -133.7 -53.2 -134.8 -53.0 L-136.55 -52.8 Q-138.95 -52.7 -141.0 -54.25 -144.05 -56.45 -144.7 -59.85 L-144.7 -59.9 Q-144.85 -62.35 -143.65 -64.6 L-143.6 -64.6 Q-141.9 -67.65 -138.4 -69.25 -135.4 -70.65 -132.0 -70.4 L-131.75 -70.3 -130.35 -69.35 -129.4 -68.85 -128.9 -69.6 -128.65 -70.1 -129.25 -77.25 -133.95 -80.05 -134.15 -80.25 -134.2 -80.5 Q-134.15 -82.0 -135.15 -83.5 L-136.45 -84.85 -136.55 -84.95 Q-139.4 -86.8 -141.9 -89.1 L-142.0 -89.3 -142.05 -89.55 -141.55 -92.4 -141.5 -92.4 Q-140.1 -98.25 -136.6 -103.4 -134.55 -106.6 -132.15 -109.4 -130.8 -111.1 -129.0 -112.1 L-128.9 -112.15 Q-127.15 -113.35 -125.05 -114.1 L-124.8 -114.15 -121.3 -113.4 -121.3 -113.35 Q-116.7 -112.35 -114.0 -108.2 L-113.95 -107.85 -114.15 -107.0 -114.1 -105.6 -114.1 -105.55 Q-114.15 -104.1 -115.2 -102.6 -116.75 -100.5 -119.35 -99.4 -120.8 -98.75 -122.25 -99.4 L-124.45 -101.05 Q-125.45 -102.2 -126.05 -103.55 L-126.1 -103.75 -126.0 -104.0 -124.45 -106.15 -124.45 -106.1 -122.95 -107.4 -122.65 -107.5 -122.4 -107.4 -119.95 -105.1 -120.0 -105.15 -119.35 -104.4 -118.55 -106.15 -120.4 -108.7 -122.95 -108.95 -123.0 -108.95 Q-127.9 -109.1 -131.55 -105.2 L-134.9 -99.15 -137.55 -90.45 -137.25 -90.55 -131.15 -92.45 -119.5 -96.2 Q-116.65 -97.2 -104.05 -98.85 L-95.05 -99.1 -88.85 -98.6 -84.95 -97.8 -85.2 -99.55 Q-85.7 -102.05 -83.15 -105.9 L-82.9 -106.1 -82.6 -106.1 -82.35 -105.95 -82.25 -105.65 -82.35 -103.2 -82.35 -103.15 Q-82.5 -102.15 -82.25 -101.05 -82.0 -100.0 -81.0 -98.9 L-80.95 -98.8 -79.95 -97.85 Q-78.4 -96.85 -76.55 -96.4 -71.3 -95.15 -65.9 -94.65 L-65.3 -94.65 -65.2 -94.65 Q-61.4 -94.35 -56.4 -94.7 L-53.25 -99.1 Q-52.85 -99.7 -52.6 -100.6 L-52.65 -100.6 Q-52.1 -103.4 -53.5 -105.7 L-53.9 -105.9 -55.35 -107.0 Q-57.3 -108.15 -59.15 -107.0 L-59.5 -106.95 -59.8 -107.0 Q-61.35 -105.85 -61.9 -104.35 L-61.95 -104.35 Q-62.5 -102.9 -61.65 -100.9 L-60.85 -103.65 -60.7 -103.95 -60.15 -104.3 -60.05 -104.35 -59.35 -104.4 -58.25 -104.65 -58.05 -104.6 -57.45 -104.4 -57.15 -104.15 -56.35 -102.4 -56.3 -102.3 -56.15 -101.05 -56.15 -101.0 Q-56.2 -99.6 -57.25 -98.65 -58.1 -97.9 -59.4 -97.35 L-59.75 -97.3 Q-61.25 -97.9 -62.5 -98.85 -63.45 -99.35 -63.85 -100.35 L-63.85 -100.3 Q-64.3 -101.2 -64.35 -102.25 L-64.3 -103.9 Q-64.15 -106.1 -62.4 -107.8 -60.05 -110.4 -56.8 -110.55 L-56.75 -110.55 Q-54.45 -110.45 -52.55 -109.0 -50.0 -107.05 -48.85 -103.6 -48.0 -100.65 -48.6 -97.6 L-48.75 -97.35 -49.75 -96.2 -51.45 -93.7 -51.95 -92.75 -49.85 -90.6 -45.6 -90.0 -45.2 -90.45 Q-44.65 -90.95 -43.85 -90.85 -43.05 -90.8 -42.6 -90.05 L-42.35 -89.55 Q-22.65 -86.75 -2.0 -83.0 24.75 -78.2 55.0 -74.25 L54.1 -76.3 Q52.4 -80.0 54.8 -86.85 L55.0 -87.1 55.3 -87.2 55.6 -87.05 55.75 -86.8 56.5 -82.95 Q56.75 -81.3 57.55 -79.55 58.35 -77.9 60.5 -76.55 L60.6 -76.45 Q61.25 -75.75 62.55 -75.3 65.5 -74.4 68.55 -74.45 77.25 -74.55 85.95 -75.9 L86.9 -76.15 87.05 -76.2 Q93.15 -77.25 100.85 -79.85 L104.1 -88.1 Q104.5 -89.25 104.5 -90.7 104.25 -95.5 100.95 -98.6 L100.1 -98.85 97.5 -99.95 Q93.9 -101.0 91.25 -98.4 L90.95 -98.25 90.35 -98.2 Q88.25 -95.65 87.9 -92.95 L87.9 -92.9 Q87.5 -90.3 89.85 -87.35 L90.3 -87.35 90.4 -92.25 90.55 -92.55 91.25 -93.35 91.4 -93.5 92.3 -93.7 Q93.05 -94.25 93.95 -94.5 L94.15 -94.55 95.15 -94.5 95.35 -94.45 95.55 -94.3 97.5 -91.9 97.55 -91.8 98.25 -89.9 Q98.75 -87.85 97.5 -86.05 L97.55 -86.05 Q96.55 -84.5 94.75 -83.2 L94.4 -83.1 Q91.9 -83.4 89.5 -84.4 88.05 -84.75 87.0 -86.1 L87.0 -86.05 Q86.1 -87.2 85.6 -88.8 85.2 -90.0 84.95 -91.35 84.35 -94.7 86.35 -97.95 89.0 -102.8 93.75 -104.25 L93.9 -104.3 Q97.4 -105.0 100.85 -103.55" fill="#101525" fill-opacity="0.73333335" fill-rule="evenodd" stroke="none"/>
    <path d="M59.05 -75.0 Q92.3 -70.8 137.5 -69.5 L132.75 257.3 -117.4 257.3 Q-119.45 215.9 -124.1 75.3 -128.6 -60.95 -131.6 -94.15 -117.1 -96.15 -100.9 -96.05 -81.75 -96.1 -60.4 -93.3 -32.95 -89.85 -3.6 -84.5 25.65 -79.3 59.05 -75.0" fill="url(#gradient0)" fill-rule="evenodd" stroke="none"/>
    <path d="M53.35 -66.0 Q83.2 -62.2 123.9 -61.05 L119.95 251.75 -105.6 251.75 Q-106.85 225.8 -111.4 75.0 -115.3 -53.3 -117.95 -83.1 -89.2 -86.95 -53.95 -82.4 -29.35 -79.25 -2.9 -74.5 23.35 -69.85 53.35 -66.0" fill="url(#gradient1)" fill-rule="evenodd" stroke="none"/>
  </g>
  <defs>
    <linearGradient gradientTransform="matrix(0.0018, 0.1235, -0.1416, 0.002, 7.2, 92.95)" gradientUnits="userSpaceOnUse" id="gradient0" spreadMethod="pad" x1="-819.2" x2="819.2">
      <stop offset="0.0" stop-color="#1c9ee3"/>
      <stop offset="1.0" stop-color="#073265"/>
    </linearGradient>
    <linearGradient gradientTransform="matrix(7.0E-4, -0.1514, 0.1194, 5.0E-4, -29.15, 116.95)" gradientUnits="userSpaceOnUse" id="gradient1" spreadMethod="pad" x1="-819.2" x2="819.2">
      <stop offset="0.0" stop-color="#157bba" stop-opacity="0.0"/>
      <stop offset="1.0" stop-color="#92dff1"/>
    </linearGradient>
  </defs>
</svg>
