<?xml version="1.0" encoding="UTF-8" standalone="no"?>
<svg xmlns:xlink="http://www.w3.org/1999/xlink" height="7.6px" width="15.8px" xmlns="http://www.w3.org/2000/svg">
  <g transform="matrix(1, 0, 0, 1, 8.75, 2.55)">
    <path d="M4.85 -1.65 L4.9 -1.65 6.05 -0.7 Q7.85 1.3 6.4 4.55 L3.25 4.55 3.25 3.5 -4.75 5.05 Q-8.1 4.6 -8.55 3.85 -9.05 3.05 -8.4 2.0 -7.6 0.1 -4.55 -1.65 -2.8 -2.55 1.4 -2.55 L4.85 -1.65" fill="#4f4f4f" fill-rule="evenodd" stroke="none"/>
    <path d="M4.85 -1.65 L4.9 -1.65 6.05 -0.7 Q7.85 1.3 6.4 4.55 L3.25 4.55 3.25 3.5 -4.75 5.05 Q-8.1 4.6 -8.55 3.85 -9.05 3.05 -8.4 2.0 -7.6 0.1 -4.55 -1.65 -2.8 -2.55 1.4 -2.55 L4.85 -1.65" fill="none" stroke="#000000" stroke-linecap="round" stroke-linejoin="round" stroke-width="0.05"/>
  </g>
</svg>
