<?xml version="1.0" encoding="UTF-8" standalone="no"?>
<svg xmlns:xlink="http://www.w3.org/1999/xlink" height="20.25px" width="15.0px" xmlns="http://www.w3.org/2000/svg">
  <g transform="matrix(1, 0, 0, 1, 8.05, 2.6)">
    <path d="M-7.5 0.9 Q-7.95 -0.65 -8.05 -2.6 -7.35 -2.0 -5.9 -1.55 L-4.05 -1.1 -3.6 -1.0 -2.75 -0.95 2.45 -0.7 3.95 -0.7 Q5.45 -0.85 6.6 -1.45 7.4 0.8 6.25 2.95 L4.2 5.15 Q2.45 6.5 0.3 6.65 L-0.35 6.65 -0.5 6.65 -1.0 6.65 -1.55 6.55 -2.35 6.4 -2.55 6.35 Q-4.4 5.8 -5.65 4.5 -6.9 3.15 -7.5 0.9" fill="#181c1d" fill-rule="evenodd" stroke="none"/>
    <path d="M-2.55 6.35 L-2.35 6.4 -1.55 6.55 -1.0 6.65 -0.5 6.65 -0.35 6.65 0.3 6.65 Q2.45 6.5 4.2 5.15 L6.25 2.95 Q7.4 0.8 6.6 -1.45 5.45 -0.85 3.95 -0.7 L2.45 -0.7 -2.75 -0.95 -3.6 -1.0 -4.05 -1.1 -5.9 -1.55 Q-7.35 -2.0 -8.05 -2.6 -7.95 -0.65 -7.5 0.9" fill="none" stroke="#3d3d3d" stroke-linecap="round" stroke-linejoin="round" stroke-width="0.05"/>
    <path d="M-4.65 14.8 L-5.35 14.4 -6.45 -1.35 Q-3.45 -0.25 0.55 0.25 L1.45 17.65 0.75 17.05 -0.2 16.9 -1.3 16.85 Q-2.15 16.6 -2.65 15.8 -3.35 14.95 -3.9 14.8 -4.35 14.6 -4.65 14.8 L-4.95 10.85 -4.65 14.8 M-2.65 12.75 L-2.65 15.8 -2.65 12.75 M-0.6 9.6 L-0.2 16.9 -0.6 9.6" fill="#e6e1c4" fill-rule="evenodd" stroke="none"/>
    <path d="M-4.65 14.8 L-5.35 14.4 -6.45 -1.35 Q-3.45 -0.25 0.55 0.25 L1.45 17.65 0.75 17.05 -0.2 16.9 -1.3 16.85 Q-2.15 16.6 -2.65 15.8 -3.35 14.95 -3.9 14.8 -4.35 14.6 -4.65 14.8 L-4.95 10.85 M-0.2 16.9 L-0.6 9.6 M-2.65 15.8 L-2.65 12.75" fill="none" stroke="#4b4421" stroke-linecap="round" stroke-linejoin="round" stroke-width="0.05"/>
  </g>
</svg>
