<?xml version="1.0" encoding="UTF-8" standalone="no"?>
<svg xmlns:xlink="http://www.w3.org/1999/xlink" height="16.65px" width="6.65px" xmlns="http://www.w3.org/2000/svg">
  <g transform="matrix(1, 0, 0, 1, 2.25, 1.7)">
    <path d="M0.1 14.05 L-1.95 5.5 Q-2.65 1.3 -1.6 -0.05 -0.55 -1.4 2.1 -1.7 L4.4 3.25 3.45 14.6 Q1.45 15.55 0.1 14.05" fill="#d1ab86" fill-rule="evenodd" stroke="none"/>
    <path d="M3.45 14.6 L4.4 3.25 2.1 -1.7 Q-0.55 -1.4 -1.6 -0.05 -2.65 1.3 -1.95 5.5 L0.1 14.05" fill="none" stroke="#916337" stroke-linecap="round" stroke-linejoin="round" stroke-width="0.05"/>
    <path d="M2.4 14.45 L0.75 14.15 -0.2 7.95 2.35 7.8 2.4 14.45" fill="#bea410" fill-rule="evenodd" stroke="none"/>
    <path d="M2.35 7.8 L4.0 8.1 3.45 14.6 2.4 14.45 2.35 7.8" fill="#4c570b" fill-rule="evenodd" stroke="none"/>
    <path d="M0.75 14.15 L0.1 14.05 -1.3 8.2 -0.2 7.95 0.75 14.15" fill="#ede78f" fill-rule="evenodd" stroke="none"/>
    <path d="M2.4 14.45 L0.75 14.15 0.1 14.05 -1.3 8.2 -0.2 7.95 2.35 7.8 4.0 8.1 3.45 14.6 2.4 14.45" fill="none" stroke="#382310" stroke-linecap="round" stroke-linejoin="round" stroke-width="0.05"/>
  </g>
</svg>
