<?xml version="1.0" encoding="UTF-8" standalone="no"?>
<svg xmlns:xlink="http://www.w3.org/1999/xlink" height="7.3px" width="15.8px" xmlns="http://www.w3.org/2000/svg">
  <g transform="matrix(1, 0, 0, 1, 8.75, 2.75)">
    <path d="M6.05 -0.7 Q7.85 1.3 6.4 4.55 L-8.05 4.55 Q-8.95 3.6 -8.7 2.1 -8.05 0.35 -6.75 -0.35 -5.5 -1.05 -3.9 -1.1 -2.25 -1.9 -0.65 -2.75 L4.85 -1.65 4.9 -1.65 6.05 -0.7" fill="#553817" fill-rule="evenodd" stroke="none"/>
    <path d="M6.05 -0.7 Q7.85 1.3 6.4 4.55 L-8.05 4.55 Q-8.95 3.6 -8.7 2.1 -8.05 0.35 -6.75 -0.35 -5.5 -1.05 -3.9 -1.1 -2.25 -1.9 -0.65 -2.75 L4.85 -1.65 4.9 -1.65 6.05 -0.7" fill="none" stroke="#382310" stroke-linecap="round" stroke-linejoin="round" stroke-width="0.05"/>
  </g>
</svg>
