<?xml version="1.0" encoding="UTF-8" standalone="no"?>
<svg xmlns:xlink="http://www.w3.org/1999/xlink" height="17.45px" width="18.75px" xmlns="http://www.w3.org/2000/svg">
  <g transform="matrix(1, 0, 0, 1, 6.05, 12.4)">
    <path d="M4.6 1.25 L0.25 1.15 Q0.95 0.25 2.4 -0.4 2.7 -0.3 4.6 1.25" fill="#000033" fill-rule="evenodd" stroke="none"/>
    <path d="M-2.2 -1.2 L-1.8 0.55 Q-2.6 -0.9 -4.1 -0.85 L-2.2 -1.2" fill="#000033" fill-rule="evenodd" stroke="none"/>
    <path d="M-1.9 -11.7 L-1.9 -12.0 1.1 -9.85 1.2 -9.8 5.2 -12.4 5.6 -9.15 8.35 -9.85 7.7 -8.35 5.6 -7.85 5.2 -11.1 1.2 -8.5 -1.9 -10.7 -1.9 -11.7 M8.1 -7.9 L11.35 -7.05 10.3 -6.0 7.55 -6.75 8.1 -7.9 M10.15 -5.6 L11.35 -4.9 10.8 -4.9 9.95 -5.4 10.15 -5.6 M10.05 -4.6 L12.7 -0.8 11.8 -0.8 9.15 -4.6 10.05 -4.6 M10.35 -0.5 L11.25 1.85 10.2 1.3 9.5 -0.5 10.35 -0.5 M-5.05 -2.75 L-5.6 -3.05 -5.0 -4.1 -4.55 -3.65 -5.05 -2.75 M-5.2 -5.6 L-6.05 -6.5 -3.7 -7.6 -3.0 -6.7 -5.2 -5.6 M-3.25 -7.85 L-3.0 -8.0 -4.15 -9.45 -1.9 -8.7 -1.9 -7.4 -3.25 -7.85" fill="#936146" fill-rule="evenodd" stroke="none"/>
    <path d="M8.3 4.05 L8.2 4.2 7.9 4.5 8.15 4.0 8.3 4.05" fill="#432e29" fill-rule="evenodd" stroke="none"/>
    <path d="M-1.9 -10.7 L1.2 -8.5 5.2 -11.1 5.6 -7.85 7.7 -8.35 7.55 -8.05 8.1 -7.9 7.55 -6.75 10.3 -6.0 9.95 -5.7 10.15 -5.6 9.95 -5.4 10.8 -4.9 9.85 -4.9 10.05 -4.6 9.15 -4.6 11.8 -0.8 10.2 -0.8 10.35 -0.5 9.5 -0.5 10.2 1.3 9.7 1.0 9.35 2.15 8.45 3.85 8.3 4.05 8.15 4.0 8.2 3.8 8.35 3.4 8.35 3.3 8.4 2.95 8.45 2.85 8.4 2.3 8.35 1.95 Q8.15 1.1 6.7 1.75 L6.45 2.15 6.5 1.95 6.45 1.95 6.4 2.1 6.35 2.45 6.15 3.4 6.05 4.1 5.95 5.05 5.5 3.1 5.4 2.7 5.35 2.5 5.0 1.35 4.75 0.4 4.65 0.15 4.3 1.05 3.35 1.6 Q3.7 -2.15 2.05 -2.45 1.5 -0.95 0.9 -1.1 0.9 -2.35 -0.25 -2.4 L-1.25 -2.0 -1.25 -3.15 Q-3.3 -2.65 -3.4 -0.05 -4.1 -0.15 -4.45 -1.25 L-4.65 -2.25 -4.6 -2.3 -4.55 -2.5 -5.05 -2.75 -4.55 -3.65 -5.0 -4.1 -4.55 -4.95 -5.2 -5.6 -3.0 -6.7 -3.7 -7.6 -3.25 -7.85 -1.9 -7.4 -1.9 -8.7 -1.9 -10.7" fill="#4d2a2e" fill-rule="evenodd" stroke="none"/>
    <path d="M7.7 -8.35 L8.35 -9.85 5.6 -9.15 5.2 -12.4 1.2 -9.8 1.1 -9.85 -1.9 -12.0 -1.9 -11.7 M7.7 -8.35 L7.55 -8.05 8.1 -7.9 11.35 -7.05 10.3 -6.0 9.95 -5.7 10.15 -5.6 11.35 -4.9 10.8 -4.9 9.85 -4.9 10.05 -4.6 12.7 -0.8 11.8 -0.8 10.2 -0.8 10.35 -0.5 11.25 1.85 10.2 1.3 9.7 1.0 9.35 2.15 8.45 3.85 8.3 4.05 8.2 4.2 7.9 4.5 8.15 4.0 8.2 3.8 8.35 3.4 8.35 3.3 8.4 2.95 8.45 2.85 M8.4 2.3 L8.35 1.95 M6.7 1.75 L6.45 2.15 M-4.65 -2.25 L-4.6 -2.3 -4.55 -2.5 -5.05 -2.75 -5.6 -3.05 -5.0 -4.1 -4.55 -4.95 -5.2 -5.6 -6.05 -6.5 -3.7 -7.6 -3.25 -7.85 -3.0 -8.0 -4.15 -9.45 -1.9 -8.7" fill="none" stroke="#584338" stroke-linecap="round" stroke-linejoin="round" stroke-width="0.05"/>
    <path d="M6.4 2.1 L6.35 2.45 6.15 3.4 6.05 4.1 5.95 5.05 5.5 3.1 5.4 2.7 5.35 2.5 5.0 1.35 4.75 0.4 4.65 0.15" fill="none" stroke="#7b5046" stroke-linecap="round" stroke-linejoin="round" stroke-width="0.05"/>
  </g>
</svg>
