<?xml version="1.0" encoding="UTF-8" standalone="no"?>
<svg xmlns:xlink="http://www.w3.org/1999/xlink" height="71.05px" width="176.65px" xmlns="http://www.w3.org/2000/svg">
  <g transform="matrix(1, 0, 0, 1, 88.25, 40.15)">
    <path d="M88.2 -40.15 L88.35 -40.15 88.4 -40.1 84.7 30.8 84.65 30.85 84.55 30.9 -82.85 26.85 -83.0 26.85 -83.0 26.8 -82.75 -39.25 -82.75 -39.35 -82.65 -39.35 88.2 -40.15" fill="#041f31" fill-opacity="0.5019608" fill-rule="evenodd" stroke="none"/>
    <path d="M82.85 -39.95 L79.15 27.3 -88.25 23.5 -88.05 -39.25 82.85 -39.95" fill="#062942" fill-rule="evenodd" stroke="none"/>
    <path d="M82.85 -39.95 L79.15 27.3 -88.25 23.5" fill="none" stroke="#07253a" stroke-linecap="round" stroke-linejoin="round" stroke-width="0.05"/>
    <path d="M-88.25 23.5 L-88.05 -39.25 82.85 -39.95" fill="none" stroke="#1b5e76" stroke-linecap="round" stroke-linejoin="round" stroke-width="0.05"/>
    <path d="M80.3 -38.5 L76.85 25.5 -85.8 21.95 -85.5 -37.85 80.3 -38.5" fill="url(#gradient0)" fill-rule="evenodd" stroke="none"/>
    <path d="M80.3 -38.5 L76.85 25.5" fill="none" stroke="#3eaad2" stroke-linecap="round" stroke-linejoin="round" stroke-width="0.05"/>
    <path d="M-85.8 21.95 L-85.5 -37.85 80.3 -38.5" fill="none" stroke="#03131b" stroke-linecap="round" stroke-linejoin="round" stroke-width="0.05"/>
    <path d="M76.85 25.5 L-85.8 21.95" fill="none" stroke="#75c2df" stroke-linecap="round" stroke-linejoin="round" stroke-width="0.05"/>
  </g>
  <defs>
    <linearGradient gradientTransform="matrix(-0.0032, -0.0273, -0.0984, 0.0045, -18.45, -22.0)" gradientUnits="userSpaceOnUse" id="gradient0" spreadMethod="pad" x1="-819.2" x2="819.2">
      <stop offset="0.0" stop-color="#093d72"/>
      <stop offset="1.0" stop-color="#55b6e1"/>
    </linearGradient>
  </defs>
</svg>
