<?xml version="1.0" encoding="UTF-8" standalone="no"?>
<svg xmlns:xlink="http://www.w3.org/1999/xlink" height="1.15px" width="101.0px" xmlns="http://www.w3.org/2000/svg">
  <g transform="matrix(1, 0, 0, 1, 54.1, -8.0)">
    <path d="M46.9 8.6 L46.75 9.0 46.35 9.15 Q46.1 9.15 45.95 9.0 45.8 8.8 45.8 8.6 45.8 8.35 45.95 8.2 L46.35 8.0 46.75 8.2 46.9 8.6 M41.4 8.2 L41.8 8.0 42.2 8.2 42.35 8.6 42.2 9.0 41.8 9.15 41.4 9.0 41.25 8.6 Q41.25 8.35 41.4 8.2 M36.85 8.2 L37.25 8.0 37.65 8.2 37.85 8.6 37.65 9.0 37.25 9.15 36.85 9.0 36.7 8.6 36.85 8.2 M33.1 8.2 L33.3 8.6 33.1 9.0 32.7 9.15 32.35 9.0 32.15 8.6 32.35 8.2 32.7 8.0 33.1 8.2 M24.2 8.6 L24.05 9.0 23.65 9.15 23.25 9.0 23.1 8.6 Q23.1 8.35 23.25 8.2 L23.65 8.0 24.05 8.2 24.2 8.6 M28.6 8.2 L28.75 8.6 28.6 9.0 28.2 9.15 Q27.95 9.15 27.8 9.0 L27.6 8.6 27.8 8.2 Q27.95 8.0 28.2 8.0 L28.6 8.2 M18.7 8.2 L19.1 8.0 19.5 8.2 19.65 8.6 19.5 9.0 19.1 9.15 18.7 9.0 18.55 8.6 18.7 8.2 M14.15 8.2 L14.55 8.0 14.95 8.2 15.15 8.6 14.95 9.0 14.55 9.15 14.15 9.0 14.0 8.6 Q14.0 8.35 14.15 8.2 M10.4 8.2 L10.6 8.6 10.4 9.0 10.05 9.15 9.65 9.0 9.45 8.6 9.65 8.2 10.05 8.0 10.4 8.2 M1.5 8.6 L1.35 9.0 0.95 9.15 0.55 9.0 0.4 8.6 Q0.4 8.35 0.55 8.2 L0.95 8.0 1.35 8.2 1.5 8.6 M5.9 8.2 L6.05 8.6 5.9 9.0 5.5 9.15 5.1 9.0 4.9 8.6 5.1 8.2 Q5.25 8.0 5.5 8.0 L5.9 8.2 M-3.2 8.2 L-3.0 8.6 -3.2 9.0 -3.6 9.15 -4.0 9.0 -4.15 8.6 -4.0 8.2 -3.6 8.0 Q-3.35 8.0 -3.2 8.2 M-8.55 8.2 L-8.15 8.0 -7.75 8.2 -7.55 8.6 -7.75 9.0 -8.15 9.15 -8.55 9.0 -8.7 8.6 -8.55 8.2 M-12.25 8.2 Q-12.1 8.35 -12.1 8.6 L-12.25 9.0 -12.65 9.15 -13.05 9.0 -13.25 8.6 -13.05 8.2 -12.65 8.0 -12.25 8.2 M-22.15 8.2 L-21.75 8.0 -21.35 8.2 Q-21.2 8.35 -21.2 8.6 L-21.35 9.0 -21.75 9.15 -22.15 9.0 -22.3 8.6 -22.15 8.2 M-16.8 8.2 Q-16.65 8.35 -16.65 8.6 L-16.8 9.0 -17.2 9.15 -17.6 9.0 -17.8 8.6 -17.6 8.2 -17.2 8.0 -16.8 8.2 M-26.7 8.2 L-26.3 8.0 Q-26.05 8.0 -25.9 8.2 L-25.7 8.6 -25.9 9.0 -26.3 9.15 -26.7 9.0 -26.85 8.6 -26.7 8.2 M-31.25 8.2 L-30.85 8.0 -30.45 8.2 -30.25 8.6 -30.45 9.0 -30.85 9.15 -31.25 9.0 -31.4 8.6 -31.25 8.2 M-39.35 8.6 L-39.5 9.0 -39.9 9.15 -40.3 9.0 -40.5 8.6 -40.3 8.2 -39.9 8.0 -39.5 8.2 Q-39.35 8.35 -39.35 8.6 M-35.75 8.2 L-35.35 8.0 -34.95 8.2 Q-34.8 8.35 -34.8 8.6 L-34.95 9.0 -35.35 9.15 -35.75 9.0 -35.95 8.6 -35.75 8.2 M-44.85 8.2 L-44.45 8.0 -44.05 8.2 -43.9 8.6 -44.05 9.0 -44.45 9.15 -44.85 9.0 -45.0 8.6 -44.85 8.2 M-48.6 8.2 L-48.4 8.6 -48.6 9.0 -49.0 9.15 -49.4 9.0 -49.55 8.6 -49.4 8.2 -49.0 8.0 Q-48.75 8.0 -48.6 8.2 M-53.95 8.2 L-53.55 8.0 -53.15 8.2 -52.95 8.6 -53.15 9.0 Q-53.3 9.15 -53.55 9.15 L-53.95 9.0 -54.1 8.6 -53.95 8.2" fill="#55b6e1" fill-rule="evenodd" stroke="none"/>
  </g>
</svg>
