<?xml version="1.0" encoding="UTF-8" standalone="no"?>
<svg xmlns:xlink="http://www.w3.org/1999/xlink" height="320.8px" width="203.25px" xmlns="http://www.w3.org/2000/svg">
  <g transform="matrix(1, 0, 0, 1, 98.15, 178.05)">
    <path d="M-94.85 -176.25 L88.55 -155.35 102.55 78.8 105.1 121.75 -67.2 120.05 -98.15 -176.6 Q-98.2 -177.25 -97.75 -177.65 -97.35 -178.05 -96.65 -178.05 -96.0 -178.0 -95.45 -177.45 -94.9 -176.95 -94.85 -176.3 L-94.85 -176.25" fill="url(#gradient0)" fill-rule="evenodd" stroke="none"/>
    <path d="M-66.8 141.25 L-89.8 -151.75" fill="none" stroke="#813a3a" stroke-linecap="round" stroke-linejoin="round" stroke-width="3.0"/>
    <path d="M102.4 119.6 L-66.8 141.25" fill="none" stroke="#291212" stroke-linecap="round" stroke-linejoin="round" stroke-width="3.0"/>
    <path d="M-89.8 -151.75 L86.7 -146.8" fill="none" stroke="#b14e4e" stroke-linecap="round" stroke-linejoin="round" stroke-width="3.0"/>
    <path d="M86.7 -146.8 L102.4 119.6" fill="none" stroke="#000000" stroke-linecap="round" stroke-linejoin="round" stroke-width="3.0"/>
    <path d="M102.5 119.6 L-66.45 141.3 -89.7 -151.75 86.75 -146.8 100.1 78.35 102.5 119.6" fill="url(#gradient1)" fill-rule="evenodd" stroke="none"/>
    <path d="M83.05 -137.0 L83.9 -137.15 98.65 110.8 -59.75 131.4 -81.5 -141.95 83.05 -137.0" fill="url(#gradient2)" fill-rule="evenodd" stroke="none"/>
  </g>
  <defs>
    <linearGradient gradientTransform="matrix(0.0216, 0.0833, -0.1958, 0.0148, 16.9, 47.15)" gradientUnits="userSpaceOnUse" id="gradient0" spreadMethod="pad" x1="-819.2" x2="819.2">
      <stop offset="0.01568627450980392" stop-color="#060c17" stop-opacity="0.56078434"/>
      <stop offset="1.0" stop-color="#0a0b14" stop-opacity="0.34117648"/>
    </linearGradient>
    <linearGradient gradientTransform="matrix(-0.0647, 0.0269, 0.0252, 0.2356, 14.1, -20.9)" gradientUnits="userSpaceOnUse" id="gradient1" spreadMethod="pad" x1="-819.2" x2="819.2">
      <stop offset="0.0" stop-color="#000000"/>
      <stop offset="1.0" stop-color="#47201f"/>
    </linearGradient>
    <linearGradient gradientTransform="matrix(-0.0871, 0.0333, -0.007, -0.1553, 0.9, -69.4)" gradientUnits="userSpaceOnUse" id="gradient2" spreadMethod="pad" x1="-819.2" x2="819.2">
      <stop offset="0.0" stop-color="#532626"/>
      <stop offset="1.0" stop-color="#a94949"/>
    </linearGradient>
  </defs>
</svg>
