<?xml version="1.0" encoding="UTF-8" standalone="no"?>
<svg xmlns:xlink="http://www.w3.org/1999/xlink" height="98.9px" width="152.85px" xmlns="http://www.w3.org/2000/svg">
  <g transform="matrix(1, 0, 0, 1, 78.25, 45.75)">
    <path d="M74.55 -42.85 L74.6 -42.8 71.35 53.0 71.3 53.1 71.2 53.15 -76.3 46.15 -76.4 46.15 -76.4 46.05 -76.2 -43.35 -76.2 -43.45 -76.1 -43.45 74.45 -42.9 74.55 -42.85" fill="#000000" fill-opacity="0.43137255" fill-rule="evenodd" stroke="none"/>
    <path d="M72.5 -45.75 L69.25 48.8 -78.25 43.5 -78.05 -44.7 72.5 -45.75" fill="#062942" fill-rule="evenodd" stroke="none"/>
    <path d="M72.5 -45.75 L69.25 48.8 -78.25 43.5" fill="none" stroke="#07253a" stroke-linecap="round" stroke-linejoin="round" stroke-width="0.05"/>
    <path d="M-78.25 43.5 L-78.05 -44.7 72.5 -45.75" fill="none" stroke="#1b5e76" stroke-linecap="round" stroke-linejoin="round" stroke-width="0.05"/>
    <path d="M70.25 -43.75 L67.25 46.25 -76.1 41.25 -75.8 -42.8 70.25 -43.75" fill="url(#gradient0)" fill-rule="evenodd" stroke="none"/>
    <path d="M67.25 46.25 L-76.1 41.25" fill="none" stroke="#75c2df" stroke-linecap="round" stroke-linejoin="round" stroke-width="0.05"/>
    <path d="M70.25 -43.75 L67.25 46.25" fill="none" stroke="#3eaad2" stroke-linecap="round" stroke-linejoin="round" stroke-width="0.05"/>
    <path d="M-76.1 41.25 L-75.8 -42.8" fill="none" stroke="#03131b" stroke-linecap="round" stroke-linejoin="round" stroke-width="0.05"/>
    <path d="M-75.8 -42.8 L70.25 -43.75" fill="none" stroke="#03131b" stroke-linecap="round" stroke-linejoin="round" stroke-width="0.05"/>
  </g>
  <defs>
    <linearGradient gradientTransform="matrix(-0.0028, -0.0384, -0.0867, 0.0064, -16.75, -20.5)" gradientUnits="userSpaceOnUse" id="gradient0" spreadMethod="pad" x1="-819.2" x2="819.2">
      <stop offset="0.0" stop-color="#093d72"/>
      <stop offset="1.0" stop-color="#55b6e1"/>
    </linearGradient>
  </defs>
</svg>
