<?xml version="1.0" encoding="UTF-8" standalone="no"?>
<svg xmlns:xlink="http://www.w3.org/1999/xlink" height="32.45px" width="50.5px" xmlns="http://www.w3.org/2000/svg">
  <g transform="matrix(1, 0, 0, 1, 24.85, 11.8)">
    <path d="M9.65 -11.35 L13.3 -10.6 15.85 -9.7 18.5 -8.5 20.15 -7.4 22.2 -5.1 22.85 -4.1 23.55 -2.1 Q24.6 3.1 25.45 5.6 26.25 8.05 24.15 12.3 L23.95 9.7 Q23.9 8.5 23.5 7.25 23.1 6.0 21.7 4.9 21.25 4.25 20.35 3.85 18.4 3.0 16.3 2.75 L4.55 2.35 3.8 2.45 Q-0.45 2.65 -5.9 3.85 L-8.8 9.25 Q-9.2 10.0 -9.3 11.1 -9.55 14.45 -7.4 17.0 L-6.85 17.15 Q-6.0 17.55 -5.2 18.1 -2.7 19.2 -0.55 17.5 L0.0 17.55 Q1.75 15.9 2.25 14.0 2.75 12.05 1.25 9.7 L0.45 9.65 -0.05 13.2 -0.55 13.65 -1.15 13.7 -2.3 14.15 -3.0 14.0 -4.1 12.25 -4.4 11.05 Q-4.55 9.75 -3.7 8.75 -2.95 7.8 -1.7 7.15 -0.1 7.55 1.4 8.4 2.2 8.7 2.75 9.6 3.25 10.35 3.45 11.4 L3.65 13.1 Q3.75 15.25 2.3 17.15 0.2 20.05 -3.0 20.65 -5.3 20.8 -7.4 19.65 -10.3 18.0 -11.85 14.65 -13.2 11.75 -12.95 8.55 L-12.0 7.1 -10.5 4.1 -10.0 2.6 Q-11.15 1.95 -14.5 -1.05 -14.4 -2.2 -15.0 -3.45 -15.3 -4.1 -15.75 -4.55 L-15.75 -4.6 -18.25 -7.3 -16.45 -7.95 -16.05 -8.05 -12.25 -9.0 -5.1 -10.9 4.25 -11.75 9.65 -11.35 M-20.55 -1.4 Q-20.15 -1.85 -19.55 -1.85 -18.95 -1.85 -18.55 -1.4 -18.15 -0.95 -18.15 -0.2 -18.15 0.5 -18.55 0.95 -18.95 1.4 -19.55 1.4 -20.15 1.4 -20.55 0.95 -20.95 0.5 -20.95 -0.2 -20.95 -0.95 -20.55 -1.4 M-24.45 -3.5 Q-24.85 -3.95 -24.85 -4.65 -24.85 -5.35 -24.45 -5.8 -24.05 -6.3 -23.45 -6.3 -22.85 -6.3 -22.45 -5.8 -22.05 -5.35 -22.05 -4.65 -22.05 -3.95 -22.45 -3.5 -22.85 -3.05 -23.45 -3.0 -24.05 -3.05 -24.45 -3.5 M-14.4 5.05 Q-14.8 5.5 -15.4 5.5 -16.0 5.5 -16.4 5.05 -16.8 4.55 -16.8 3.85 -16.8 3.15 -16.4 2.7 -16.0 2.25 -15.4 2.25 -14.8 2.25 -14.4 2.7 -14.0 3.15 -14.0 3.85 -14.0 4.55 -14.4 5.05" fill="#faa52a" fill-rule="evenodd" stroke="none"/>
  </g>
</svg>
