<?xml version="1.0" encoding="UTF-8" standalone="no"?>
<svg xmlns:xlink="http://www.w3.org/1999/xlink" height="33.65px" width="64.65px" xmlns="http://www.w3.org/2000/svg">
  <g transform="matrix(1, 0, 0, 1, 31.45, 16.5)">
    <path d="M-29.65 12.65 Q-29.35 12.6 -29.35 12.05 L-29.4 11.95 -29.05 11.25 -29.05 10.7 Q-29.2 9.2 -29.95 8.45 L-30.15 7.3 -30.1 5.85 Q-29.5 5.25 -29.85 3.95 L-30.2 3.2 Q-30.2 2.8 -30.35 2.35 L-29.55 3.05 -29.35 2.9 -29.35 2.45 Q-29.6 1.6 -30.15 0.95 L-30.15 0.6 -30.5 -0.1 -30.5 -0.35 -30.5 -0.4 Q-30.4 -0.5 -30.45 -0.75 L-30.5 -1.2 -30.55 -1.2 Q-30.35 -1.6 -30.6 -2.15 L-30.75 -2.4 -30.65 -2.65 -30.7 -3.05 Q-31.0 -4.0 -31.4 -4.0 L-31.45 -4.3 -31.15 -5.85 Q-30.8 -7.2 -30.95 -7.8 L-30.1 -9.35 -29.35 -10.6 Q-29.55 -10.9 -29.7 -10.75 L-29.75 -10.85 -29.75 -10.9 -29.85 -11.9 -30.1 -12.45 -30.1 -12.5 -28.4 -12.45 -28.45 -12.65 Q-27.55 -15.1 -27.1 -14.8 L-26.65 -14.7 Q-26.4 -14.7 -26.15 -14.95 -25.2 -13.95 -23.8 -13.4 -23.3 -12.55 -22.45 -13.0 -21.95 -13.9 -21.6 -13.65 L-20.5 -13.65 Q-19.85 -14.1 -20.3 -15.25 L-20.25 -15.3 -20.2 -15.3 -19.75 -15.25 -18.65 -14.55 -18.15 -13.6 -17.2 -13.6 Q-17.2 -13.85 -17.1 -13.65 L-16.85 -15.2 -15.7 -14.75 -15.25 -14.3 -14.6 -13.75 -14.1 -13.55 -13.15 -13.55 -12.9 -13.7 -12.75 -14.3 -12.9 -16.35 Q-12.3 -14.8 -12.1 -14.75 -12.1 -14.2 -11.25 -13.65 L-9.45 -13.65 Q-7.8 -14.2 -6.75 -14.95 -6.4 -15.1 -5.8 -14.55 -5.15 -14.0 -4.85 -14.0 -4.7 -14.25 -4.45 -14.15 L-4.3 -13.9 -2.6 -14.0 -1.9 -14.8 Q-1.0 -15.35 0.0 -15.55 L0.75 -15.7 0.85 -15.75 0.9 -15.55 Q0.15 -14.4 1.55 -13.9 L2.1 -13.8 3.7 -13.9 4.95 -14.6 Q6.4 -14.15 7.2 -14.95 9.45 -15.6 11.15 -16.5 L12.05 -16.2 12.85 -16.3 Q13.45 -16.55 15.75 -14.25 17.15 -16.45 17.6 -16.2 17.8 -16.3 18.05 -16.0 L18.6 -16.35 Q19.35 -15.4 20.65 -14.75 20.9 -13.8 21.9 -14.35 22.25 -13.5 23.35 -13.55 24.45 -13.85 24.25 -15.3 24.2 -15.55 24.3 -15.35 24.3 -15.55 24.35 -15.35 L24.75 -15.3 25.75 -14.6 Q25.95 -12.9 27.15 -13.65 L28.4 -13.15 Q28.6 -12.7 31.6 -11.8 L31.55 -11.35 31.6 -11.35 31.65 -11.1 Q33.3 -10.75 33.2 -10.5 32.8 -10.6 32.5 -9.7 L32.2 -7.95 Q32.2 -6.25 32.55 -5.35 L32.5 -3.2 Q31.7 -1.75 32.65 -0.9 L32.75 0.75 32.65 1.45 32.65 1.5 32.6 1.55 Q31.8 0.75 31.4 2.6 31.1 4.15 31.45 5.0 30.9 6.15 31.4 6.75 31.25 8.5 31.7 9.9 31.4 10.05 31.4 10.55 L31.4 11.2 31.4 11.25 30.5 12.7 29.85 13.35 29.8 13.35 29.55 14.55 29.15 14.55 Q29.15 14.0 28.85 13.85 28.3 13.65 27.9 13.85 26.8 14.15 26.25 14.75 L24.95 15.15 Q24.05 14.4 23.5 15.75 L22.4 16.3 22.05 16.4 21.95 16.4 21.95 16.3 Q22.45 15.15 21.4 15.05 20.4 14.95 19.9 15.6 19.1 15.15 18.65 15.85 17.35 16.2 16.5 17.1 16.3 16.75 16.05 16.8 L15.65 16.95 Q15.25 16.95 14.1 15.45 L11.2 17.0 10.45 16.9 Q9.9 16.8 9.65 17.15 8.15 16.2 6.05 15.95 5.35 15.2 3.9 15.65 3.4 15.25 2.8 15.2 L1.35 15.1 0.75 15.2 Q-0.55 15.4 0.2 16.4 L0.1 16.45 0.0 16.45 -0.65 16.4 -2.45 15.8 Q-2.8 15.25 -3.15 15.2 L-4.75 15.15 -4.9 15.25 -5.3 15.15 -7.1 14.8 Q-8.1 14.2 -9.75 13.9 -10.6 13.75 -11.45 13.9 -12.3 14.1 -12.2 14.6 L-12.9 15.6 -13.05 14.15 -13.25 13.7 -13.5 13.5 Q-14.05 13.25 -14.5 13.5 L-14.95 13.7 Q-15.7 13.95 -15.9 14.4 L-16.9 14.75 Q-17.05 14.65 -17.15 14.85 L-17.2 14.75 -18.1 14.8 -18.4 14.45 -19.4 15.0 -19.8 15.05 -19.85 15.0 Q-19.65 13.95 -20.35 13.8 L-21.5 13.8 Q-21.95 13.9 -22.1 14.3 -23.05 13.85 -23.3 14.6 -24.5 14.9 -25.15 15.75 -25.4 15.4 -25.65 15.5 L-26.1 15.6 -27.9 14.1 -27.95 13.85 -29.5 13.85 -29.5 13.4 -29.7 12.7 -29.65 12.65" fill="url(#gradient0)" fill-rule="evenodd" stroke="none"/>
    <path d="M33.2 -10.5 Q33.3 -10.75 31.65 -11.1 L31.6 -11.35 31.55 -11.35 31.6 -11.8 Q28.6 -12.7 28.4 -13.15 L27.15 -13.65 Q25.95 -12.9 25.75 -14.6 L24.75 -15.3 24.35 -15.35 Q24.3 -15.55 24.3 -15.35 24.2 -15.55 24.25 -15.3 24.45 -13.85 23.35 -13.55 22.25 -13.5 21.9 -14.35 20.9 -13.8 20.65 -14.75 19.35 -15.4 18.6 -16.35 L18.05 -16.0 Q17.8 -16.3 17.6 -16.2 17.15 -16.45 15.75 -14.25 13.45 -16.55 12.85 -16.3 L12.05 -16.2 11.15 -16.5 Q9.45 -15.6 7.2 -14.95 6.4 -14.15 4.95 -14.6 L3.7 -13.9 2.1 -13.8 1.55 -13.9 Q0.15 -14.4 0.9 -15.55 L0.85 -15.75 0.75 -15.7 0.0 -15.55 Q-1.0 -15.35 -1.9 -14.8 L-2.6 -14.0 -4.3 -13.9 -4.45 -14.15 Q-4.7 -14.25 -4.85 -14.0 -5.15 -14.0 -5.8 -14.55 -6.4 -15.1 -6.75 -14.95 -7.8 -14.2 -9.45 -13.65 L-11.25 -13.65 Q-12.1 -14.2 -12.1 -14.75 -12.3 -14.8 -12.9 -16.35 L-12.75 -14.3 -12.9 -13.7 -13.15 -13.55 -14.1 -13.55 -14.6 -13.75 -15.25 -14.3 -15.7 -14.75 -16.85 -15.2 -17.1 -13.65 Q-17.2 -13.85 -17.2 -13.6 L-18.15 -13.6 -18.65 -14.55 -19.75 -15.25 -20.2 -15.3 -20.25 -15.3 -20.3 -15.25 Q-19.85 -14.1 -20.5 -13.65 L-21.6 -13.65 Q-21.95 -13.9 -22.45 -13.0 -23.3 -12.55 -23.8 -13.4 -25.2 -13.95 -26.15 -14.95 -26.4 -14.7 -26.65 -14.7 L-27.1 -14.8 Q-27.55 -15.1 -28.45 -12.65 L-28.4 -12.45 -30.1 -12.5 -30.1 -12.45 -29.85 -11.9 -29.75 -10.9 -29.75 -10.85 -29.7 -10.75 Q-29.55 -10.9 -29.35 -10.6 L-30.1 -9.35 -30.95 -7.8 Q-30.8 -7.2 -31.15 -5.85 L-31.45 -4.3 -31.4 -4.0 Q-31.0 -4.0 -30.7 -3.05 L-30.65 -2.65 -30.75 -2.4 -30.6 -2.15 Q-30.35 -1.6 -30.55 -1.2 L-30.5 -1.2 -30.45 -0.75 Q-30.4 -0.5 -30.5 -0.4 L-30.5 -0.35 -30.5 -0.1 -30.15 0.6 -30.15 0.95 Q-29.6 1.6 -29.35 2.45 L-29.35 2.9 -29.55 3.05 -30.35 2.35 Q-30.2 2.8 -30.2 3.2 L-29.85 3.95 Q-29.5 5.25 -30.1 5.85 L-30.15 7.3 -29.95 8.45 Q-29.2 9.2 -29.05 10.7 L-29.05 11.25 -29.4 11.95 -29.35 12.05 Q-29.35 12.6 -29.65 12.65" fill="none" stroke="#072d3a" stroke-linecap="round" stroke-linejoin="round" stroke-width="0.05"/>
  </g>
  <defs>
    <linearGradient gradientTransform="matrix(0.0, 0.0194, -0.0194, 0.0017, 3.75, 1.55)" gradientUnits="userSpaceOnUse" id="gradient0" spreadMethod="pad" x1="-819.2" x2="819.2">
      <stop offset="0.0" stop-color="#031114" stop-opacity="0.7137255"/>
      <stop offset="1.0" stop-color="#083058" stop-opacity="0.68235296"/>
    </linearGradient>
  </defs>
</svg>
