<?xml version="1.0" encoding="UTF-8" standalone="no"?>
<svg xmlns:xlink="http://www.w3.org/1999/xlink" height="62.15px" width="199.3px" xmlns="http://www.w3.org/2000/svg">
  <g transform="matrix(1, 0, 0, 1, 100.85, 30.7)">
    <path d="M-77.5 9.65 L-77.5 16.1 80.3 16.1 80.3 9.65 -77.5 9.65 M85.4 -29.2 L85.45 -29.2 85.8 -29.0 98.35 -12.0 98.45 -11.8 98.45 -11.6 90.65 31.05 90.5 31.35 90.15 31.45 Q-21.6 30.85 -91.55 23.15 L-91.75 23.1 -91.95 22.9 -92.0 22.7 -100.8 -6.85 -100.85 -7.05 -100.75 -7.3 -87.25 -25.65 -87.05 -25.8 -86.8 -25.85 85.4 -29.2" fill="#1e0d0d" fill-opacity="0.37254903" fill-rule="evenodd" stroke="none"/>
    <path d="M84.45 -30.2 L96.95 -13.2 89.2 29.45 Q-21.95 28.85 -91.55 21.15 L-100.35 -8.5 -86.9 -26.85 84.45 -30.2" fill="url(#gradient0)" fill-rule="evenodd" stroke="none"/>
    <path d="M84.45 -30.2 L-86.9 -26.85 -100.35 -8.5" fill="none" stroke="#cc8c8c" stroke-linecap="round" stroke-linejoin="round" stroke-width="1.0"/>
    <path d="M-91.55 21.15 Q-21.95 28.85 89.2 29.45 L96.95 -13.2" fill="none" stroke="#4a2222" stroke-linecap="round" stroke-linejoin="round" stroke-width="1.0"/>
    <path d="M96.95 -13.2 L84.45 -30.2" fill="none" stroke="#7b3939" stroke-linecap="round" stroke-linejoin="round" stroke-width="1.0"/>
    <path d="M-100.35 -8.5 L-91.55 21.15" fill="none" stroke="#9d4848" stroke-linecap="round" stroke-linejoin="round" stroke-width="1.0"/>
    <path d="M-82.7 -13.05 L84.65 -13.05 84.65 9.55 -82.7 9.55 -82.7 -13.05" fill="#4c2121" fill-rule="evenodd" stroke="none"/>
    <path d="M84.0 -14.75 L-82.25 -14.75" fill="none" stroke="#220f0f" stroke-linecap="round" stroke-linejoin="round" stroke-width="0.05"/>
    <path d="M84.0 12.0 L-82.25 12.0" fill="none" stroke="#964343" stroke-linecap="round" stroke-linejoin="round" stroke-width="0.05"/>
  </g>
  <defs>
    <linearGradient gradientTransform="matrix(0.0042, 0.032, -0.1409, 0.0187, 60.4, -25.85)" gradientUnits="userSpaceOnUse" id="gradient0" spreadMethod="pad" x1="-819.2" x2="819.2">
      <stop offset="0.0" stop-color="#000000"/>
      <stop offset="1.0" stop-color="#6d3030"/>
    </linearGradient>
  </defs>
</svg>
