<?xml version="1.0" encoding="UTF-8" standalone="no"?>
<svg xmlns:xlink="http://www.w3.org/1999/xlink" height="34.9px" width="36.15px" xmlns="http://www.w3.org/2000/svg">
  <g transform="matrix(1, 0, 0, 1, 17.9, 14.75)">
    <path d="M16.75 -7.85 Q16.75 -10.1 15.15 -11.7 13.6 -13.3 11.35 -13.25 L-11.0 -13.25 Q-13.25 -13.3 -14.85 -11.7 -16.45 -10.1 -16.4 -7.85" fill="none" stroke="#1a7ca2" stroke-linecap="round" stroke-linejoin="round" stroke-width="3.0"/>
    <path d="M-16.4 -7.85 L-16.4 6.95 Q-16.45 9.2 -14.85 10.8 -13.25 12.35 -11.0 12.35 L6.5 12.35 4.45 18.65 15.15 10.8 Q16.75 9.2 16.75 6.95 L16.75 -7.85" fill="none" stroke="#115768" stroke-linecap="round" stroke-linejoin="round" stroke-width="3.0"/>
    <path d="M11.35 -13.25 Q13.6 -13.3 15.15 -11.7 16.75 -10.1 16.75 -7.85 L16.75 6.95 Q16.75 9.2 15.15 10.8 L4.45 18.65 6.5 12.35 -11.0 12.35 Q-13.25 12.35 -14.85 10.8 -16.45 9.2 -16.4 6.95 L-16.4 -7.85 Q-16.45 -10.1 -14.85 -11.7 -13.25 -13.3 -11.0 -13.25 L11.35 -13.25" fill="#ffffff" fill-rule="evenodd" stroke="none"/>
    <path d="M11.35 -13.25 L-11.0 -13.25 Q-13.25 -13.3 -14.85 -11.7 -16.45 -10.1 -16.4 -7.85 L-16.4 6.95 Q-16.45 9.2 -14.85 10.8 -13.25 12.35 -11.0 12.35 L6.5 12.35 4.45 18.65 15.15 10.8 Q16.75 9.2 16.75 6.95 L16.75 -7.85 Q16.75 -10.1 15.15 -11.7 13.6 -13.3 11.35 -13.25" fill="none" stroke="#092b33" stroke-linecap="round" stroke-linejoin="round" stroke-opacity="0.47058824" stroke-width="1.5"/>
  </g>
</svg>
