<?xml version="1.0" encoding="UTF-8" standalone="no"?>
<svg xmlns:xlink="http://www.w3.org/1999/xlink" height="22.3px" width="22.35px" xmlns="http://www.w3.org/2000/svg">
  <g transform="matrix(1, 0, 0, 1, 11.3, 11.15)">
    <path d="M10.55 -0.05 Q10.55 4.35 7.45 7.5 4.3 10.6 -0.1 10.65 -4.55 10.6 -7.65 7.5 -10.8 4.35 -10.8 -0.05 -10.8 -4.45 -7.65 -7.55 -4.55 -10.7 -0.1 -10.65 4.3 -10.7 7.45 -7.55 10.55 -4.45 10.55 -0.05" fill="none" stroke="#2d67a2" stroke-linecap="round" stroke-linejoin="round" stroke-opacity="0.53333336" stroke-width="1.0"/>
    <path d="M6.55 -6.5 Q9.25 -3.8 9.25 0.05 9.25 3.85 6.55 6.55 3.85 9.2 0.05 9.25 -3.75 9.2 -6.45 6.55 -9.15 3.85 -9.15 0.05 -9.15 -3.8 -6.45 -6.5 -3.75 -9.2 0.05 -9.2 3.85 -9.2 6.55 -6.5" fill="url(#gradient0)" fill-rule="evenodd" stroke="none"/>
    <path d="M6.2 3.05 Q5.35 5.3 5.25 5.9 0.15 10.45 -5.2 6.0 L-6.35 3.1 -7.85 -0.7 -8.25 -1.75 -6.45 -0.7 Q-3.25 1.0 -0.25 1.15 4.2 1.3 8.05 -2.0 L6.35 2.6 6.25 2.9 6.2 3.05 4.45 4.65 6.2 3.05 M-4.45 4.45 L-6.35 3.1 -4.45 4.45" fill="url(#gradient1)" fill-rule="evenodd" stroke="none"/>
    <path d="M-8.25 -1.75 L-6.45 -0.7 Q-3.25 1.0 -0.25 1.15 4.2 1.3 8.05 -2.0" fill="none" stroke="#000033" stroke-linecap="round" stroke-linejoin="round" stroke-width="0.05"/>
    <path d="M6.25 2.9 L6.2 3.05 4.45 4.65 M-6.35 3.1 L-4.45 4.45" fill="none" stroke="#8bb6e0" stroke-linecap="round" stroke-linejoin="round" stroke-width="0.05"/>
    <path d="M6.2 3.05 Q5.35 5.3 5.25 5.9 0.15 10.45 -5.2 6.0 L-6.35 3.1 -7.85 -0.7 -8.25 -1.75 M8.05 -2.0 L6.35 2.6 6.25 2.9" fill="none" stroke="#24548b" stroke-linecap="round" stroke-linejoin="round" stroke-width="0.05"/>
  </g>
  <defs>
    <radialGradient cx="0" cy="0" gradientTransform="matrix(0.0131, 0.0, 0.0, 0.0131, 0.65, 1.5)" gradientUnits="userSpaceOnUse" id="gradient0" r="819.2" spreadMethod="pad">
      <stop offset="0.2549019607843137" stop-color="#9feae9"/>
      <stop offset="0.8666666666666667" stop-color="#5a9ecf"/>
      <stop offset="0.996078431372549" stop-color="#295e9d"/>
    </radialGradient>
    <radialGradient cx="0" cy="0" gradientTransform="matrix(0.0107, 0.0, 0.0, 0.0107, -0.2, 3.2)" gradientUnits="userSpaceOnUse" id="gradient1" r="819.2" spreadMethod="pad">
      <stop offset="0.42745098039215684" stop-color="#ffffff"/>
      <stop offset="0.8274509803921568" stop-color="#bcd5ed"/>
      <stop offset="1.0" stop-color="#498ccd"/>
    </radialGradient>
  </defs>
</svg>
