<?xml version="1.0" encoding="UTF-8" standalone="no"?>
<svg xmlns:xlink="http://www.w3.org/1999/xlink" height="30.2px" width="26.0px" xmlns="http://www.w3.org/2000/svg">
  <g transform="matrix(1, 0, 0, 1, 13.0, 16.15)">
    <path d="M5.55 -4.0 Q9.0 -2.0 13.0 -1.35 12.75 -0.1 10.4 4.8 L3.3 2.7 Q0.95 8.55 -2.05 11.95 L-7.65 8.2 Q-5.8 6.45 -3.3 -0.05 -9.25 -2.05 -13.0 -5.6 L-9.0 -10.7 Q-6.45 -8.5 -0.65 -6.35 1.55 -12.85 1.85 -16.15 L8.0 -12.7 5.55 -4.0" fill="#000000" fill-opacity="0.47058824" fill-rule="evenodd" stroke="none"/>
    <path d="M8.0 -10.6 L5.55 -1.9 Q9.0 0.1 13.0 0.75 12.75 2.0 10.4 6.9 L3.3 4.8 Q0.95 10.65 -2.05 14.05 L-7.65 10.3 Q-5.8 8.55 -3.3 2.05 -9.25 0.05 -13.0 -3.5 L-9.0 -8.6 Q-6.45 -6.4 -0.65 -4.25 1.55 -10.75 1.85 -14.05 L8.0 -10.6" fill="url(#gradient0)" fill-rule="evenodd" stroke="none"/>
    <path d="M8.0 -10.6 L1.85 -14.05 Q1.55 -10.75 -0.65 -4.25 -6.45 -6.4 -9.0 -8.6 L-13.0 -3.5 Q-9.25 0.05 -3.3 2.05 -5.8 8.55 -7.65 10.3 L-2.05 14.05 Q0.95 10.65 3.3 4.8 L10.4 6.9 Q12.75 2.0 13.0 0.75 9.0 0.1 5.55 -1.9 L8.0 -10.6" fill="none" stroke="#24bd70" stroke-linecap="round" stroke-linejoin="round" stroke-width="0.05"/>
  </g>
  <defs>
    <radialGradient cx="0" cy="0" gradientTransform="matrix(0.0217, 0.0, 0.0, 0.0217, -2.8, 2.2)" gradientUnits="userSpaceOnUse" id="gradient0" r="819.2" spreadMethod="pad">
      <stop offset="0.22745098039215686" stop-color="#ffffff"/>
      <stop offset="0.7490196078431373" stop-color="#cdf3e0"/>
      <stop offset="1.0" stop-color="#68cda2"/>
    </radialGradient>
  </defs>
</svg>
