<?xml version="1.0" encoding="UTF-8" standalone="no"?>
<svg xmlns:xlink="http://www.w3.org/1999/xlink" height="22.3px" width="22.35px" xmlns="http://www.w3.org/2000/svg">
  <g transform="matrix(1, 0, 0, 1, 11.3, 11.15)">
    <path d="M10.55 -0.05 Q10.55 4.35 7.45 7.5 4.3 10.6 -0.1 10.65 -4.55 10.6 -7.65 7.5 -10.8 4.35 -10.8 -0.05 -10.8 -4.45 -7.65 -7.55 -4.55 -10.7 -0.1 -10.65 4.3 -10.7 7.45 -7.55 10.55 -4.45 10.55 -0.05" fill="none" stroke="#25a399" stroke-linecap="round" stroke-linejoin="round" stroke-opacity="0.53333336" stroke-width="1.0"/>
    <path d="M6.55 -6.5 Q9.25 -3.8 9.25 0.05 9.25 3.85 6.55 6.55 3.85 9.2 0.05 9.25 -3.75 9.2 -6.45 6.55 -9.15 3.85 -9.15 0.05 -9.15 -3.8 -6.45 -6.5 -3.75 -9.2 0.05 -9.2 3.85 -9.2 6.55 -6.5" fill="url(#gradient0)" fill-rule="evenodd" stroke="none"/>
    <path d="M3.3 3.6 Q4.45 3.6 5.0 4.25 5.5 4.85 5.25 5.8 4.95 6.95 4.1 7.7 3.15 8.4 2.05 8.4 0.9 8.55 0.35 7.95 -0.2 7.35 0.1 6.2 0.35 5.2 1.25 4.5 2.15 3.75 3.3 3.6" fill="url(#gradient1)" fill-rule="evenodd" stroke="none"/>
    <path d="M3.3 3.6 Q4.45 3.6 5.0 4.25 5.5 4.85 5.25 5.8 4.95 6.95 4.1 7.7 3.15 8.4 2.05 8.4 0.9 8.55 0.35 7.95 -0.2 7.35 0.1 6.2 0.35 5.2 1.25 4.5 2.15 3.75 3.3 3.6" fill="none" stroke="#1b6a72" stroke-linecap="round" stroke-linejoin="round" stroke-width="0.05"/>
  </g>
  <defs>
    <radialGradient cx="0" cy="0" gradientTransform="matrix(0.0131, 0.0, 0.0, 0.0131, 0.65, 1.5)" gradientUnits="userSpaceOnUse" id="gradient0" r="819.2" spreadMethod="pad">
      <stop offset="0.2549019607843137" stop-color="#a5ebeb"/>
      <stop offset="0.8666666666666667" stop-color="#5fc1c0"/>
      <stop offset="0.996078431372549" stop-color="#249297"/>
    </radialGradient>
    <radialGradient cx="0" cy="0" gradientTransform="matrix(0.0038, 0.0043, -0.0028, 0.0023, 2.65, 6.9)" gradientUnits="userSpaceOnUse" id="gradient1" r="819.2" spreadMethod="pad">
      <stop offset="0.6313725490196078" stop-color="#ffffff"/>
      <stop offset="1.0" stop-color="#c0d8ed"/>
    </radialGradient>
  </defs>
</svg>
