<?xml version="1.0" encoding="UTF-8" standalone="no"?>
<svg xmlns:xlink="http://www.w3.org/1999/xlink" height="22.3px" width="22.35px" xmlns="http://www.w3.org/2000/svg">
  <g transform="matrix(1, 0, 0, 1, 11.3, 11.15)">
    <path d="M10.55 -0.05 Q10.55 4.35 7.45 7.5 4.3 10.6 -0.1 10.65 -4.55 10.6 -7.65 7.5 -10.8 4.35 -10.8 -0.05 -10.8 -4.45 -7.65 -7.55 -4.55 -10.7 -0.1 -10.65 4.3 -10.7 7.45 -7.55 10.55 -4.45 10.55 -0.05" fill="none" stroke="#6925a3" stroke-linecap="round" stroke-linejoin="round" stroke-opacity="0.53333336" stroke-width="1.0"/>
    <path d="M6.55 -6.5 Q9.25 -3.8 9.25 0.05 9.25 3.85 6.55 6.55 3.85 9.2 0.05 9.25 -3.75 9.2 -6.45 6.55 -9.15 3.85 -9.15 0.05 -9.15 -3.8 -6.45 -6.5 -3.75 -9.2 0.05 -9.2 3.85 -9.2 6.55 -6.5" fill="url(#gradient0)" fill-rule="evenodd" stroke="none"/>
    <path d="M-6.15 3.05 Q-0.2 -4.05 6.45 2.75 L6.3 3.8 Q5.95 5.8 5.15 6.75 L4.95 6.95 Q-0.15 2.7 -4.75 6.95 L-4.85 6.85 Q-5.6 6.0 -6.0 4.05 L-6.15 3.05" fill="#0b2024" fill-rule="evenodd" stroke="none"/>
    <path d="M-6.35 1.4 Q-0.15 -5.8 5.8 0.5 L6.6 1.4 6.45 2.75 Q-0.2 -4.05 -6.15 3.05 L-6.35 1.4 M4.95 6.95 L3.7 7.5 Q1.95 6.35 0.15 6.1 -2.15 6.15 -3.75 7.45 -4.3 7.35 -4.75 6.95 -0.15 2.7 4.95 6.95" fill="url(#gradient1)" fill-rule="evenodd" stroke="none"/>
    <path d="M8.25 -2.4 Q7.4 -3.85 6.4 -4.4 L5.15 -4.8 4.65 -4.8 3.65 -4.6 M-7.95 -2.3 L-6.85 -3.85 -5.55 -4.7 -3.5 -4.6" fill="none" stroke="#2c1247" stroke-linecap="round" stroke-linejoin="round" stroke-width="0.05"/>
    <path d="M-6.35 1.4 L-6.15 3.05 -6.0 4.05 Q-5.6 6.0 -4.85 6.85 L-4.75 6.95 Q-4.3 7.35 -3.75 7.45 M6.45 2.75 L6.6 1.4 M4.95 6.95 L5.15 6.75 Q5.95 5.8 6.3 3.8 L6.45 2.75 M3.7 7.5 L4.95 6.95" fill="none" stroke="#1c4368" stroke-linecap="round" stroke-linejoin="round" stroke-width="0.05"/>
    <path d="M6.6 1.4 L5.8 0.5 Q-0.15 -5.8 -6.35 1.4 M-3.75 7.45 Q-2.15 6.15 0.15 6.1 1.95 6.35 3.7 7.5" fill="none" stroke="#0c1c29" stroke-linecap="round" stroke-linejoin="round" stroke-width="0.05"/>
    <path d="M4.65 -4.8 L4.65 -2.45 M7.1 -3.25 L7.1 0.5 7.1 0.8 M-5.5 -4.35 L-5.5 -3.0 M-6.75 -3.5 L-6.75 0.1" fill="none" stroke="#d3e4f3" stroke-linecap="round" stroke-linejoin="round" stroke-width="0.5"/>
  </g>
  <defs>
    <radialGradient cx="0" cy="0" gradientTransform="matrix(0.0131, 0.0, 0.0, 0.0131, 0.65, 1.5)" gradientUnits="userSpaceOnUse" id="gradient0" r="819.2" spreadMethod="pad">
      <stop offset="0.2549019607843137" stop-color="#c5b7ec"/>
      <stop offset="0.8666666666666667" stop-color="#8b64d7"/>
      <stop offset="0.996078431372549" stop-color="#8237cc"/>
    </radialGradient>
    <radialGradient cx="0" cy="0" gradientTransform="matrix(0.0089, 0.0, 0.0, 0.0089, 0.15, 1.85)" gradientUnits="userSpaceOnUse" id="gradient1" r="819.2" spreadMethod="pad">
      <stop offset="0.42745098039215684" stop-color="#ffffff"/>
      <stop offset="0.8274509803921568" stop-color="#bcd5ed"/>
      <stop offset="1.0" stop-color="#498ccd"/>
    </radialGradient>
  </defs>
</svg>
