<?xml version="1.0" encoding="UTF-8" standalone="no"?>
<svg xmlns:xlink="http://www.w3.org/1999/xlink" height="22.3px" width="22.35px" xmlns="http://www.w3.org/2000/svg">
  <g transform="matrix(1, 0, 0, 1, 11.3, 11.15)">
    <path d="M10.55 -0.05 Q10.55 4.35 7.45 7.5 4.3 10.6 -0.1 10.65 -4.55 10.6 -7.65 7.5 -10.8 4.35 -10.8 -0.05 -10.8 -4.45 -7.65 -7.55 -4.55 -10.7 -0.1 -10.65 4.3 -10.7 7.45 -7.55 10.55 -4.45 10.55 -0.05" fill="none" stroke="#a52395" stroke-linecap="round" stroke-linejoin="round" stroke-opacity="0.53333336" stroke-width="1.0"/>
    <path d="M6.55 -6.5 Q9.25 -3.8 9.25 0.05 9.25 3.85 6.55 6.55 3.85 9.2 0.05 9.25 -3.75 9.2 -6.45 6.55 -9.15 3.85 -9.15 0.05 -9.15 -3.8 -6.45 -6.5 -3.75 -9.2 0.05 -9.2 3.85 -9.2 6.55 -6.5" fill="url(#gradient0)" fill-rule="evenodd" stroke="none"/>
    <path d="M0.75 3.2 L1.05 5.75 1.2 7.05 1.15 8.15 1.1 8.25 -0.75 8.25 -0.8 8.15 -0.8 7.05 -0.7 5.75 -0.45 3.2 Q-0.15 2.2 0.2 2.2 0.5 2.2 0.75 3.2" fill="url(#gradient1)" fill-rule="evenodd" stroke="none"/>
    <path d="M0.75 3.2 L1.05 5.75 1.2 7.05 1.15 8.15 1.1 8.25 -0.75 8.25 -0.8 8.15 -0.8 7.05 -0.7 5.75 -0.45 3.2 Q-0.15 2.2 0.2 2.2 0.5 2.2 0.75 3.2" fill="none" stroke="#820f49" stroke-linecap="round" stroke-linejoin="round" stroke-width="0.05"/>
  </g>
  <defs>
    <radialGradient cx="0" cy="0" gradientTransform="matrix(0.0131, 0.0, 0.0, 0.0131, 0.65, 1.5)" gradientUnits="userSpaceOnUse" id="gradient0" r="819.2" spreadMethod="pad">
      <stop offset="0.2549019607843137" stop-color="#fbcefc"/>
      <stop offset="0.8666666666666667" stop-color="#ef7ce1"/>
      <stop offset="0.996078431372549" stop-color="#e03bb8"/>
    </radialGradient>
    <radialGradient cx="0" cy="0" gradientTransform="matrix(0.0054, 0.0, 0.0, 0.0054, 0.2, 7.15)" gradientUnits="userSpaceOnUse" id="gradient1" r="819.2" spreadMethod="pad">
      <stop offset="0.42745098039215684" stop-color="#ffffff"/>
      <stop offset="0.8274509803921568" stop-color="#bcd5ed"/>
      <stop offset="1.0" stop-color="#6380ad"/>
    </radialGradient>
  </defs>
</svg>
