<?xml version="1.0" encoding="UTF-8" standalone="no"?>
<svg xmlns:xlink="http://www.w3.org/1999/xlink" height="25.2px" width="27.45px" xmlns="http://www.w3.org/2000/svg">
  <g transform="matrix(1, 0, 0, 1, 14.45, 13.2)">
    <path d="M0.3 -11.05 Q2.45 -13.25 5.5 -13.2 8.55 -13.25 10.75 -11.05 12.9 -8.9 12.9 -5.85 12.9 -3.1 11.3 -1.0 5.75 6.35 -0.8 12.0 -7.7 6.15 -13.55 -2.4 L-13.6 -2.5 Q-14.45 -4.0 -14.45 -5.85 -14.45 -8.9 -12.25 -11.05 -10.1 -13.25 -7.0 -13.2 -4.0 -13.25 -1.85 -11.05 L-0.75 -9.75 0.3 -11.05" fill="#0e2b2e" fill-opacity="0.52156866" fill-rule="evenodd" stroke="none"/>
    <path d="M0.0 -8.7 L1.0 -9.95 Q3.05 -12.05 6.0 -12.0 8.9 -12.05 10.95 -9.95 13.0 -7.9 13.0 -5.0 13.0 -2.4 11.5 -0.35 6.2 6.65 0.0 12.0 -6.6 6.45 -12.2 -1.7 L-12.25 -1.8 Q-13.0 -3.25 -13.0 -5.0 -13.0 -7.9 -10.95 -9.95 -8.9 -12.05 -5.95 -12.0 -3.1 -12.05 -1.0 -9.95 L0.0 -8.7" fill="url(#gradient0)" fill-rule="evenodd" stroke="none"/>
    <path d="M0.0 12.0 Q6.2 6.65 11.5 -0.35 13.0 -2.4 13.0 -5.0 13.0 -7.9 10.95 -9.95 8.9 -12.05 6.0 -12.0 3.05 -12.05 1.0 -9.95 L0.0 -8.7 M-12.25 -1.8 L-12.2 -1.7" fill="none" stroke="#f49ae8" stroke-linecap="round" stroke-linejoin="round" stroke-width="0.05"/>
    <path d="M0.0 -8.7 L-1.0 -9.95 Q-3.1 -12.05 -5.95 -12.0 -8.9 -12.05 -10.95 -9.95 -13.0 -7.9 -13.0 -5.0 -13.0 -3.25 -12.25 -1.8" fill="none" stroke="#bf156b" stroke-linecap="round" stroke-linejoin="round" stroke-width="0.05"/>
    <path d="M-12.2 -1.7 Q-6.6 6.45 0.0 12.0" fill="none" stroke="#da35ab" stroke-linecap="round" stroke-linejoin="round" stroke-width="0.05"/>
  </g>
  <defs>
    <radialGradient cx="0" cy="0" gradientTransform="matrix(0.0171, 0.0, 0.0, 0.0177, 0.6, -3.4)" gradientUnits="userSpaceOnUse" id="gradient0" r="819.2" spreadMethod="pad">
      <stop offset="0.0" stop-color="#ffffff"/>
      <stop offset="0.7529411764705882" stop-color="#f9dbf5"/>
      <stop offset="1.0" stop-color="#f192d8"/>
    </radialGradient>
  </defs>
</svg>
