<?xml version="1.0" encoding="UTF-8" standalone="no"?>
<svg xmlns:xlink="http://www.w3.org/1999/xlink" height="33.4px" width="116.75px" xmlns="http://www.w3.org/2000/svg">
  <g transform="matrix(1, 0, 0, 1, 58.4, 16.7)">
    <path d="M-52.25 -15.95 Q-54.45 -16.0 -56.05 -14.4 -57.65 -12.8 -57.65 -10.55 L-57.65 4.25 Q-57.65 6.5 -56.05 8.1 L-45.35 15.95 -47.4 9.65 52.2 9.65 Q54.5 9.65 56.05 8.1 57.65 6.5 57.6 4.25 L57.6 -10.55 Q57.65 -12.75 56.05 -14.4 54.4 -16.0 52.2 -15.95 L-52.25 -15.95" fill="#ffffff" fill-rule="evenodd" stroke="none"/>
    <path d="M-52.25 -15.95 L52.2 -15.95 Q54.4 -16.0 56.05 -14.4 57.65 -12.75 57.6 -10.55 L57.6 4.25 Q57.65 6.5 56.05 8.1 54.5 9.65 52.2 9.65 L-47.4 9.65 -45.35 15.95 -56.05 8.1 Q-57.65 6.5 -57.65 4.25 L-57.65 -10.55 Q-57.65 -12.8 -56.05 -14.4 -54.45 -16.0 -52.25 -15.95" fill="none" stroke="#146a76" stroke-linecap="round" stroke-linejoin="round" stroke-width="1.5"/>
  </g>
</svg>
