<?xml version="1.0" encoding="UTF-8" standalone="no"?>
<svg xmlns:xlink="http://www.w3.org/1999/xlink" height="46.4px" width="147.6px" xmlns="http://www.w3.org/2000/svg">
  <g transform="matrix(1, 0, 0, 1, 73.8, 23.2)">
    <path d="M66.2 -22.45 L67.95 -22.3 Q69.6 -21.9 71.0 -20.7 73.0 -18.9 73.05 -16.35 L73.05 9.3 Q73.0 11.8 71.0 13.6 L57.45 22.45 60.05 15.35 -66.2 15.35 -68.45 15.05 Q-69.95 14.65 -71.1 13.6 -73.15 11.8 -73.05 9.3 L-73.05 -16.35 Q-73.15 -18.85 -71.1 -20.7 -69.0 -22.5 -66.2 -22.45 L66.2 -22.45" fill="#ffffff" fill-rule="evenodd" stroke="none"/>
    <path d="M66.2 -22.45 L-66.2 -22.45 Q-69.0 -22.5 -71.1 -20.7 -73.15 -18.85 -73.05 -16.35 L-73.05 9.3 Q-73.15 11.8 -71.1 13.6 -69.95 14.65 -68.45 15.05 L-66.2 15.35 60.05 15.35 57.45 22.45 71.0 13.6 Q73.0 11.8 73.05 9.3 L73.05 -16.35 Q73.0 -18.9 71.0 -20.7 69.6 -21.9 67.95 -22.3 L66.2 -22.45" fill="none" stroke="#146a76" stroke-linecap="round" stroke-linejoin="round" stroke-width="1.5"/>
  </g>
</svg>
