<?xml version="1.0" encoding="UTF-8" standalone="no"?>
<svg xmlns:xlink="http://www.w3.org/1999/xlink" height="46.4px" width="147.6px" xmlns="http://www.w3.org/2000/svg">
  <g transform="matrix(1, 0, 0, 1, 73.9, 23.2)">
    <path d="M-66.3 -22.45 L-68.05 -22.3 Q-69.7 -21.9 -71.1 -20.7 -73.1 -18.9 -73.15 -16.35 L-73.15 9.3 Q-73.1 11.8 -71.1 13.6 L-57.55 22.45 -60.15 15.35 66.1 15.35 68.35 15.05 Q69.85 14.65 71.0 13.6 73.05 11.8 72.95 9.3 L72.95 -16.35 Q73.05 -18.85 71.0 -20.7 68.9 -22.5 66.1 -22.45 L-66.3 -22.45" fill="#ffffff" fill-rule="evenodd" stroke="none"/>
    <path d="M-66.3 -22.45 L66.1 -22.45 Q68.9 -22.5 71.0 -20.7 73.05 -18.85 72.95 -16.35 L72.95 9.3 Q73.05 11.8 71.0 13.6 69.85 14.65 68.35 15.05 L66.1 15.35 -60.15 15.35 -57.55 22.45 -71.1 13.6 Q-73.1 11.8 -73.15 9.3 L-73.15 -16.35 Q-73.1 -18.9 -71.1 -20.7 -69.7 -21.9 -68.05 -22.3 L-66.3 -22.45" fill="none" stroke="#146a76" stroke-linecap="round" stroke-linejoin="round" stroke-width="1.5"/>
  </g>
</svg>
