<?xml version="1.0" encoding="UTF-8" standalone="no"?>
<svg xmlns:xlink="http://www.w3.org/1999/xlink" height="74.35px" width="134.2px" xmlns="http://www.w3.org/2000/svg">
  <g transform="matrix(1, 0, 0, 1, 67.2, 37.15)">
    <path d="M60.0 -36.4 Q62.55 -36.45 64.4 -34.55 66.2 -32.7 66.25 -30.05 L66.25 22.6 66.2 23.55 Q65.9 25.6 64.4 27.2 L52.05 36.45 54.45 29.0 -60.2 29.0 Q-62.9 29.0 -64.7 27.2 -66.2 25.6 -66.4 23.55 L-66.45 22.6 -66.45 -30.05 Q-66.55 -32.65 -64.7 -34.55 -62.8 -36.45 -60.2 -36.4 L60.0 -36.4" fill="#ffffff" fill-rule="evenodd" stroke="none"/>
    <path d="M60.0 -36.4 L-60.2 -36.4 Q-62.8 -36.45 -64.7 -34.55 -66.55 -32.65 -66.45 -30.05 L-66.45 22.6 -66.4 23.55 Q-66.2 25.6 -64.7 27.2 -62.9 29.0 -60.2 29.0 L54.45 29.0 52.05 36.45 64.4 27.2 Q65.9 25.6 66.2 23.55 L66.25 22.6 66.25 -30.05 Q66.2 -32.7 64.4 -34.55 62.55 -36.45 60.0 -36.4" fill="none" stroke="#146a76" stroke-linecap="round" stroke-linejoin="round" stroke-width="1.5"/>
  </g>
</svg>
