<?xml version="1.0" encoding="UTF-8" standalone="no"?>
<svg xmlns:xlink="http://www.w3.org/1999/xlink" height="74.35px" width="134.2px" xmlns="http://www.w3.org/2000/svg">
  <g transform="matrix(1, 0, 0, 1, 67.15, 37.15)">
    <path d="M66.3 -30.05 L66.3 22.6 66.25 23.55 Q66.0 25.6 64.5 27.2 62.7 29.0 60.05 29.0 L-54.6 29.0 -52.25 36.45 -64.55 27.2 Q-66.1 25.6 -66.35 23.55 L-66.4 22.6 -66.4 -30.05 Q-66.4 -32.7 -64.55 -34.55 -62.75 -36.45 -60.2 -36.4 L60.05 -36.4 Q62.6 -36.45 64.5 -34.55 66.35 -32.65 66.3 -30.05" fill="#ffffff" fill-rule="evenodd" stroke="none"/>
    <path d="M66.3 -30.05 L66.3 22.6 66.25 23.55 Q66.0 25.6 64.5 27.2 62.7 29.0 60.05 29.0 L-54.6 29.0 -52.25 36.45 -64.55 27.2 Q-66.1 25.6 -66.35 23.55 L-66.4 22.6 -66.4 -30.05 Q-66.4 -32.7 -64.55 -34.55 -62.75 -36.45 -60.2 -36.4 L60.05 -36.4 Q62.6 -36.45 64.5 -34.55 66.35 -32.65 66.3 -30.05" fill="none" stroke="#146a76" stroke-linecap="round" stroke-linejoin="round" stroke-width="1.5"/>
  </g>
</svg>
