<?xml version="1.0" encoding="UTF-8" standalone="no"?>
<svg xmlns:xlink="http://www.w3.org/1999/xlink" height="18.8px" width="17.9px" xmlns="http://www.w3.org/2000/svg">
  <g transform="matrix(1, 0, 0, 1, 10.25, 9.4)">
    <path d="M0.2 -7.65 L0.2 8.3 -4.9 3.35 -4.9 -2.5 0.2 -7.65 M1.05 4.85 L0.9 4.5 Q0.9 4.3 1.05 4.15 1.2 4.0 1.4 4.0 1.6 4.0 1.75 4.15 L6.15 8.55 6.3 8.9 6.15 9.25 5.8 9.4 5.45 9.25 1.05 4.85 M1.45 -0.35 L1.8 -0.5 7.15 -0.5 7.5 -0.35 7.65 0.0 7.5 0.35 7.15 0.5 1.8 0.5 1.45 0.35 1.3 0.0 1.45 -0.35 M5.45 -9.25 L5.8 -9.4 6.15 -9.25 6.3 -8.9 6.15 -8.55 1.5 -3.95 1.15 -3.8 Q0.95 -3.8 0.8 -3.95 L0.65 -4.3 0.8 -4.65 5.45 -9.25 M-5.9 -3.5 L-5.9 4.35 -10.25 4.35 -10.25 -3.5 -5.9 -3.5" fill="#0a3750" fill-rule="evenodd" stroke="none"/>
  </g>
</svg>
