<?xml version="1.0" encoding="UTF-8" standalone="no"?>
<svg xmlns:xlink="http://www.w3.org/1999/xlink" height="22.5px" width="22.45px" xmlns="http://www.w3.org/2000/svg">
  <g transform="matrix(1, 0, 0, 1, 12.6, 11.2)">
    <path d="M1.35 -7.25 L-1.35 -7.7 Q-3.05 -7.7 -4.45 -7.05 L-1.0 -2.55 2.9 -6.45 1.35 -7.25 M2.6 -10.5 Q4.8 -9.7 6.6 -7.9 L6.7 -7.8 7.35 -7.0 7.5 -6.8 Q9.85 -3.9 9.85 0.05 9.85 4.7 6.6 8.0 3.3 11.25 -1.35 11.3 -3.35 11.3 -5.05 10.7 L-7.0 9.8 -8.15 9.0 -10.35 6.8 Q-13.15 3.1 -12.5 -1.45 -11.95 -6.1 -8.25 -8.9 L-8.15 -9.0 -8.1 -8.95 -7.9 -9.1 Q-4.35 -11.7 0.05 -11.1 L1.3 -10.85 2.5 -10.5 2.6 -10.5 M4.65 4.85 Q5.95 3.2 6.25 1.0 6.6 -1.65 5.3 -3.85 L1.15 0.25 4.65 4.85 M-7.25 -5.0 Q-9.1 -2.9 -9.1 0.05 -9.1 2.4 -7.85 4.25 L-3.5 -0.1 -7.25 -5.0 M-2.45 7.7 Q-0.1 8.0 1.9 7.0 L-1.35 2.75 -5.35 6.7 -4.2 7.3 -2.45 7.7" fill="#c91010" fill-rule="evenodd" stroke="none"/>
  </g>
</svg>
