<?xml version="1.0" encoding="UTF-8" standalone="no"?>
<svg xmlns:xlink="http://www.w3.org/1999/xlink" height="5.0px" width="50.0px" xmlns="http://www.w3.org/2000/svg">
  <g transform="matrix(1, 0, 0, 1, 0.0, 0.0)">
    <path d="M2.0 0.0 L2.0 5.0 0.0 5.0 0.0 0.0 2.0 0.0 M18.0 0.0 L18.0 5.0 16.0 5.0 16.0 0.0 18.0 0.0 M6.0 0.0 L6.0 5.0 4.0 5.0 4.0 0.0 6.0 0.0 M10.0 0.0 L10.0 5.0 8.0 5.0 8.0 0.0 10.0 0.0 M14.0 0.0 L14.0 5.0 12.0 5.0 12.0 0.0 14.0 0.0 M38.0 0.0 L38.0 5.0 36.0 5.0 36.0 0.0 38.0 0.0 M26.0 0.0 L26.0 5.0 24.0 5.0 24.0 0.0 26.0 0.0 M28.0 0.0 L30.0 0.0 30.0 5.0 28.0 5.0 28.0 0.0 M34.0 0.0 L34.0 5.0 32.0 5.0 32.0 0.0 34.0 0.0 M22.0 0.0 L22.0 5.0 20.0 5.0 20.0 0.0 22.0 0.0 M50.0 0.0 L50.0 5.0 48.0 5.0 48.0 0.0 50.0 0.0 M46.0 0.0 L46.0 5.0 44.0 5.0 44.0 0.0 46.0 0.0 M42.0 0.0 L42.0 5.0 40.0 5.0 40.0 0.0 42.0 0.0" fill="#ffffff" fill-rule="evenodd" stroke="none"/>
  </g>
</svg>
