<?xml version="1.0" encoding="UTF-8" standalone="no"?>
<svg xmlns:xlink="http://www.w3.org/1999/xlink" height="26.35px" width="284.05px" xmlns="http://www.w3.org/2000/svg">
  <g transform="matrix(1, 0, 0, 1, 141.95, 13.5)">
    <path d="M121.1 -10.65 Q130.85 -0.4 141.15 12.3 L-140.2 12.3 Q-132.1 2.3 -119.85 -10.3 L-119.8 -10.35 121.1 -10.65" fill="url(#gradient0)" fill-rule="evenodd" stroke="none"/>
    <path d="M141.15 12.3 Q130.85 -0.4 121.1 -10.65" fill="none" stroke="#be6b6b" stroke-linecap="round" stroke-linejoin="round" stroke-width="1.0"/>
    <path d="M-119.8 -10.35 L-119.85 -10.3 Q-132.1 2.3 -140.2 12.3" fill="none" stroke="#be6b6b" stroke-linecap="round" stroke-linejoin="round" stroke-width="1.0"/>
    <path d="M121.1 -10.65 L-119.8 -10.35" fill="none" stroke="#cc8c8c" stroke-linecap="round" stroke-linejoin="round" stroke-width="1.0"/>
    <path d="M137.2 5.25 L138.15 5.35 Q138.65 5.5 138.9 5.95 139.15 6.4 138.95 6.85 L138.35 7.4 137.35 7.35 Q136.8 7.15 136.6 6.75 136.35 6.3 136.55 5.9 136.7 5.4 137.2 5.25 M137.1 1.75 Q137.3 2.15 137.15 2.6 L136.55 3.2 135.55 3.15 Q135.0 2.95 134.8 2.5 134.55 2.1 134.75 1.65 134.9 1.2 135.4 1.05 L136.35 1.1 137.1 1.75 M133.45 -1.0 L132.7 -1.6 Q132.45 -2.05 132.65 -2.5 132.8 -2.95 133.25 -3.1 L134.25 -3.05 134.95 -2.45 Q135.2 -2.0 135.05 -1.55 134.85 -1.1 134.4 -0.95 L133.45 -1.0 M98.7 -4.15 Q98.55 -5.75 99.0 -7.55 99.75 -10.45 101.75 -12.05 103.15 -13.2 105.05 -13.45 107.55 -13.45 109.65 -11.45 111.0 -10.25 111.25 -8.5 L111.3 -7.1 111.05 -5.65 110.15 -4.55 Q109.2 -3.7 107.9 -3.15 L106.15 -4.1 Q105.35 -4.75 105.3 -5.75 L105.35 -6.75 105.95 -8.3 106.5 -8.5 107.4 -8.3 107.9 -8.35 108.35 -8.05 109.25 -5.35 109.85 -5.55 Q110.7 -7.65 110.05 -9.0 109.35 -10.4 107.75 -11.45 L107.35 -11.3 103.65 -11.15 Q102.95 -10.45 102.5 -10.2 L102.1 -10.0 Q100.8 -7.7 101.45 -5.15 L102.1 -3.8 103.25 -2.25 104.05 -1.9 107.3 0.05 112.8 -0.25 113.4 -0.3 118.0 -0.6 122.5 -1.2 Q124.1 -1.7 125.5 -2.65 L126.4 -3.6 Q127.3 -4.7 127.45 -5.7 L127.45 -7.7 127.25 -9.7 Q129.45 -6.7 129.15 -4.65 128.85 -2.65 128.8 1.55 L128.6 2.8 129.15 3.9 129.6 4.95 129.65 4.95 130.25 5.85 Q131.0 6.65 131.85 6.9 L133.25 11.25 134.5 11.35 137.1 11.1 138.45 10.8 Q140.5 11.45 142.1 12.85 L-141.95 12.85 Q-140.4 11.45 -138.3 10.8 L-137.0 11.1 -134.35 11.35 -133.1 11.25 Q-133.0 10.25 -131.75 6.9 -130.85 6.65 -130.1 5.85 L-129.5 4.95 -129.05 3.9 -128.5 2.8 -128.65 1.55 Q-128.75 -2.65 -129.05 -4.65 -129.35 -6.7 -127.1 -9.7 L-127.3 -7.7 -127.3 -5.7 Q-127.2 -4.7 -126.25 -3.6 -126.0 -3.1 -125.35 -2.65 -123.95 -1.7 -122.35 -1.2 L-117.85 -0.6 -113.3 -0.3 -112.65 -0.25 -107.15 0.05 -103.9 -1.9 Q-103.5 -2.1 -103.15 -2.25 L-101.95 -3.8 Q-101.5 -4.45 -101.3 -5.15 -100.65 -7.7 -101.95 -10.0 -102.25 -10.0 -102.35 -10.2 L-103.55 -11.15 -107.2 -11.3 -107.6 -11.45 Q-109.25 -10.4 -109.9 -9.0 -110.55 -7.65 -109.7 -5.55 L-109.1 -5.35 -108.25 -8.05 -107.8 -8.35 -107.25 -8.3 -106.35 -8.5 -105.8 -8.3 -105.2 -6.75 -105.15 -5.75 Q-105.25 -4.75 -106.0 -4.1 -106.65 -3.55 -107.8 -3.15 -109.1 -3.7 -110.0 -4.55 -110.6 -4.95 -110.9 -5.65 -111.2 -6.3 -111.15 -7.1 L-111.1 -8.5 Q-110.85 -10.25 -109.5 -11.45 -107.45 -13.45 -104.9 -13.45 -103.05 -13.2 -101.6 -12.05 -99.6 -10.45 -98.85 -7.55 -98.45 -5.75 -98.6 -4.15 L-97.6 -4.35 -95.2 -4.45 -95.05 -4.4 Q-83.45 -6.25 0.15 -6.25 83.7 -6.25 95.35 -4.45 L97.7 -4.35 98.7 -4.15 M-132.5 -2.5 Q-132.3 -2.05 -132.55 -1.6 L-133.3 -1.0 -134.25 -0.95 Q-134.75 -1.1 -134.9 -1.55 -135.05 -2.0 -134.8 -2.45 L-134.1 -3.05 -133.1 -3.1 Q-132.65 -2.95 -132.5 -2.5 M-134.65 1.65 Q-134.45 2.1 -134.65 2.5 L-135.4 3.15 -136.4 3.2 -137.0 2.6 Q-137.2 2.15 -136.95 1.75 -136.75 1.3 -136.25 1.1 L-135.25 1.05 Q-134.8 1.2 -134.65 1.65 M-137.05 5.25 Q-136.6 5.4 -136.45 5.9 -136.25 6.3 -136.5 6.75 L-137.2 7.35 -138.2 7.4 -138.85 6.85 Q-139.05 6.4 -138.8 5.95 L-138.0 5.35 -137.05 5.25" fill="#000000" fill-opacity="0.4509804" fill-rule="evenodd" stroke="none"/>
    <path d="M135.8 2.4 L135.2 3.0 134.25 2.95 Q133.7 2.7 133.5 2.3 133.25 1.9 133.45 1.45 133.6 1.0 134.05 0.85 L135.05 0.9 135.75 1.55 Q135.95 1.95 135.8 2.4 M136.8 5.1 L137.55 5.7 137.6 6.6 137.0 7.15 136.0 7.1 135.3 6.5 Q135.05 6.05 135.25 5.65 135.4 5.2 135.85 5.05 L136.8 5.1 M131.4 -1.8 Q131.15 -2.25 131.35 -2.65 131.5 -3.1 131.95 -3.25 L132.95 -3.2 Q133.4 -3.0 133.65 -2.6 L133.7 -1.7 133.1 -1.15 Q132.65 -1.0 132.15 -1.15 131.6 -1.4 131.4 -1.8 M-132.8 -3.2 L-131.85 -3.25 -131.2 -2.65 Q-131.05 -2.25 -131.25 -1.8 -131.5 -1.4 -132.0 -1.15 -132.55 -1.0 -132.95 -1.15 L-133.6 -1.7 Q-133.75 -2.15 -133.5 -2.6 L-132.8 -3.2 M-134.1 2.95 L-135.1 3.0 -135.7 2.4 Q-135.85 1.95 -135.65 1.55 -135.45 1.1 -134.9 0.9 L-133.95 0.85 Q-133.5 1.0 -133.35 1.45 -133.15 1.9 -133.35 2.3 L-134.1 2.95 M-135.1 5.65 Q-134.95 6.05 -135.15 6.5 L-135.9 7.1 -136.85 7.15 -137.5 6.6 -137.45 5.7 Q-137.2 5.3 -136.7 5.1 L-135.75 5.05 Q-135.3 5.2 -135.1 5.65" fill="#1c9ee3" fill-rule="evenodd" stroke="none"/>
    <path d="M100.45 -5.3 Q100.65 -4.6 101.1 -3.95 L102.25 -2.45 103.0 -2.1 106.25 -0.15 111.7 -0.45 112.3 -0.5 116.85 -0.8 121.3 -1.4 Q122.85 -1.85 124.25 -2.8 L125.15 -3.75 Q126.05 -4.85 126.2 -5.85 L126.2 -7.8 126.0 -9.8 Q128.2 -6.85 127.9 -4.8 127.6 -2.8 127.55 1.35 L127.35 2.6 127.9 3.65 128.35 4.75 128.4 4.75 129.0 5.6 Q129.7 6.4 130.6 6.65 L131.95 10.95 133.2 11.05 135.8 10.8 137.1 10.5 Q139.35 11.2 141.05 12.85 L-140.95 12.85 Q-139.25 11.2 -137.0 10.5 L-135.65 10.8 -133.05 11.05 -131.8 10.95 Q-131.7 9.95 -130.45 6.65 -129.6 6.4 -128.85 5.6 L-128.25 4.75 -127.8 3.65 -127.25 2.6 -127.4 1.35 Q-127.5 -2.8 -127.8 -4.8 -128.1 -6.85 -125.9 -9.8 L-126.1 -7.8 -126.1 -5.85 Q-125.95 -4.85 -125.05 -3.75 L-124.15 -2.8 Q-122.75 -1.85 -121.15 -1.4 L-116.75 -0.8 -112.2 -0.5 -111.6 -0.45 -106.15 -0.15 -102.9 -2.1 -102.15 -2.45 -101.0 -3.95 -100.35 -5.3 Q-99.7 -7.8 -101.0 -10.1 L-101.4 -10.3 -102.55 -11.25 -106.2 -11.4 -106.6 -11.55 Q-108.2 -10.5 -108.85 -9.1 -109.5 -7.75 -108.65 -5.7 L-108.05 -5.5 -107.2 -8.15 -106.75 -8.45 -106.25 -8.4 -105.35 -8.6 -104.8 -8.4 -104.2 -6.9 -104.15 -5.9 Q-104.25 -4.9 -105.0 -4.25 -105.6 -3.7 -106.75 -3.3 -108.05 -3.85 -108.95 -4.7 -109.55 -5.1 -109.85 -5.8 L-110.1 -7.25 -110.05 -8.6 Q-109.8 -10.35 -108.45 -11.55 -106.4 -13.5 -103.9 -13.5 -102.05 -13.25 -100.65 -12.15 -98.65 -10.55 -97.9 -7.7 -97.5 -5.9 -97.65 -4.3 L-96.65 -4.5 -94.3 -4.6 -94.1 -4.55 Q-82.65 -6.4 0.15 -6.4 82.9 -6.4 94.4 -4.6 L96.75 -4.5 97.75 -4.3 Q97.6 -5.9 98.0 -7.7 98.75 -10.55 100.75 -12.15 102.15 -13.25 104.0 -13.5 106.5 -13.5 108.55 -11.55 109.9 -10.35 110.15 -8.6 L110.2 -7.25 109.95 -5.8 109.05 -4.7 Q108.15 -3.85 106.85 -3.3 105.7 -3.7 105.1 -4.25 104.35 -4.9 104.25 -5.9 L104.3 -6.9 104.9 -8.4 105.45 -8.6 106.35 -8.4 106.85 -8.45 107.3 -8.15 108.15 -5.5 108.75 -5.7 Q109.6 -7.75 108.95 -9.1 108.3 -10.5 106.7 -11.55 L106.3 -11.4 102.65 -11.25 101.5 -10.3 101.1 -10.1 Q99.8 -7.8 100.45 -5.3" fill="url(#gradient1)" fill-rule="evenodd" stroke="none"/>
    <path d="M-92.8 -1.0 L-94.1 -1.05 -93.6 -1.1 -92.8 -1.0" fill="url(#gradient2)" fill-rule="evenodd" stroke="none"/>
    <path d="M-92.8 -1.0 L-92.75 -1.0 Q-81.7 -2.8 0.35 -2.8 82.25 -2.75 93.55 -1.0 L94.4 -1.1 96.75 -1.0 103.0 1.4 103.05 1.45 106.25 3.35 111.7 3.05 112.3 3.0 Q113.5 2.85 116.85 2.95 L121.3 2.6 Q122.75 2.2 124.0 1.35 L124.9 4.55 125.4 5.65 126.0 6.5 Q126.7 7.3 127.6 7.55 L129.15 12.85 -128.3 12.85 -126.75 7.55 Q-125.9 7.3 -125.15 6.5 L-124.55 5.65 -124.1 4.55 -123.2 1.35 Q-121.95 2.2 -120.45 2.6 L-116.05 2.95 Q-112.7 2.85 -111.5 3.0 L-110.9 3.05 -105.45 3.35 -102.25 1.45 -102.2 1.4 -95.95 -1.0 -94.1 -1.05 -92.8 -1.0" fill="url(#gradient3)" fill-rule="evenodd" stroke="none"/>
  </g>
  <defs>
    <linearGradient gradientTransform="matrix(-0.002, -0.0132, -0.1327, 8.0E-4, -202.45, 3.05)" gradientUnits="userSpaceOnUse" id="gradient0" spreadMethod="pad" x1="-819.2" x2="819.2">
      <stop offset="0.0" stop-color="#000000"/>
      <stop offset="1.0" stop-color="#6d3030"/>
    </linearGradient>
    <linearGradient gradientTransform="matrix(0.0, 0.0105, -0.0253, 0.0, 149.65, 2.2)" gradientUnits="userSpaceOnUse" id="gradient1" spreadMethod="pad" x1="-819.2" x2="819.2">
      <stop offset="0.0" stop-color="#1c9ee3"/>
      <stop offset="1.0" stop-color="#094176"/>
    </linearGradient>
    <linearGradient gradientTransform="matrix(0.0, 0.0157, 0.0174, 0.0, -132.9, 15.6)" gradientUnits="userSpaceOnUse" id="gradient2" spreadMethod="pad" x1="-819.2" x2="819.2">
      <stop offset="0.0" stop-color="#ddf3fb" stop-opacity="0.6901961"/>
      <stop offset="1.0" stop-color="#0f64b9" stop-opacity="0.0"/>
    </linearGradient>
    <linearGradient gradientTransform="matrix(0.0, -0.0229, 0.0227, 0.0, 2.9, 12.4)" gradientUnits="userSpaceOnUse" id="gradient3" spreadMethod="pad" x1="-819.2" x2="819.2">
      <stop offset="0.0" stop-color="#0f64b9" stop-opacity="0.0"/>
      <stop offset="1.0" stop-color="#ddf3fb" stop-opacity="0.6901961"/>
    </linearGradient>
  </defs>
</svg>
