<?xml version="1.0" encoding="UTF-8" standalone="no"?>
<svg xmlns:xlink="http://www.w3.org/1999/xlink" height="40.65px" width="94.15px" xmlns="http://www.w3.org/2000/svg">
  <g transform="matrix(1, 0, 0, 1, 55.05, 17.7)">
    <path d="M39.05 -16.8 L39.1 -16.8 37.15 22.85 37.1 22.9 37.05 22.95 -52.95 20.7 -52.95 20.65 -52.85 -16.35 -52.8 -16.4 39.05 -16.8" fill="#000000" fill-opacity="0.43137255" fill-rule="evenodd" stroke="none"/>
    <path d="M36.9 -17.7 L34.9 19.95 -55.05 17.85 -54.9 -17.3 36.9 -17.7" fill="#062942" fill-rule="evenodd" stroke="none"/>
    <path d="M36.9 -17.7 L34.9 19.95 -55.05 17.85" fill="none" stroke="#07253a" stroke-linecap="round" stroke-linejoin="round" stroke-width="0.05"/>
    <path d="M-55.05 17.85 L-54.9 -17.3 36.9 -17.7" fill="none" stroke="#1b5e76" stroke-linecap="round" stroke-linejoin="round" stroke-width="0.05"/>
    <path d="M35.5 -16.9 L33.7 18.95 -53.75 16.95 -53.55 -16.55 35.5 -16.9" fill="url(#gradient0)" fill-rule="evenodd" stroke="none"/>
    <path d="M33.7 18.95 L-53.75 16.95" fill="none" stroke="#75c2df" stroke-linecap="round" stroke-linejoin="round" stroke-width="0.05"/>
    <path d="M-53.75 16.95 L-53.55 -16.55 35.5 -16.9" fill="none" stroke="#03131b" stroke-linecap="round" stroke-linejoin="round" stroke-width="0.05"/>
    <path d="M35.5 -16.9 L33.7 18.95" fill="none" stroke="#3eaad2" stroke-linecap="round" stroke-linejoin="round" stroke-width="0.05"/>
  </g>
  <defs>
    <linearGradient gradientTransform="matrix(-0.0017, -0.0153, -0.0529, 0.0025, -17.55, -7.7)" gradientUnits="userSpaceOnUse" id="gradient0" spreadMethod="pad" x1="-819.2" x2="819.2">
      <stop offset="0.0" stop-color="#093d72"/>
      <stop offset="1.0" stop-color="#55b6e1"/>
    </linearGradient>
  </defs>
</svg>
