<?xml version="1.0" encoding="UTF-8" standalone="no"?>
<svg xmlns:xlink="http://www.w3.org/1999/xlink" height="1.0px" width="49.0px" xmlns="http://www.w3.org/2000/svg">
  <g transform="matrix(1, 0, 0, 1, 33.5, 3.55)">
    <path d="M2.65 -3.4 L3.0 -3.55 3.35 -3.4 3.5 -3.05 3.35 -2.7 3.0 -2.55 Q2.8 -2.55 2.65 -2.7 L2.5 -3.05 2.65 -3.4 M7.35 -3.4 L7.5 -3.05 7.35 -2.7 7.0 -2.55 Q6.8 -2.55 6.65 -2.7 L6.5 -3.05 6.65 -3.4 7.0 -3.55 7.35 -3.4 M15.0 -3.55 L15.35 -3.4 15.5 -3.05 15.35 -2.7 15.0 -2.55 Q14.8 -2.55 14.65 -2.7 L14.5 -3.05 14.65 -3.4 Q14.8 -3.55 15.0 -3.55 M11.35 -3.4 L11.5 -3.05 11.35 -2.7 Q11.2 -2.55 11.0 -2.55 10.8 -2.55 10.65 -2.7 L10.5 -3.05 10.65 -3.4 11.0 -3.55 11.35 -3.4 M-33.35 -3.4 L-33.0 -3.55 -32.65 -3.4 -32.5 -3.05 Q-32.5 -2.85 -32.65 -2.7 -32.8 -2.55 -33.0 -2.55 L-33.35 -2.7 -33.5 -3.05 -33.35 -3.4 M-28.65 -3.4 L-28.5 -3.05 -28.65 -2.7 Q-28.8 -2.55 -29.0 -2.55 L-29.35 -2.7 -29.5 -3.05 -29.35 -3.4 -29.0 -3.55 -28.65 -3.4 M-25.5 -3.05 L-25.35 -3.4 -25.0 -3.55 -24.65 -3.4 -24.5 -3.05 -24.65 -2.7 -25.0 -2.55 -25.35 -2.7 -25.5 -3.05 M-20.65 -3.4 L-20.5 -3.05 Q-20.5 -2.85 -20.65 -2.7 -20.8 -2.55 -21.0 -2.55 L-21.35 -2.7 -21.5 -3.05 -21.35 -3.4 -21.0 -3.55 -20.65 -3.4 M-17.35 -3.4 L-17.0 -3.55 -16.65 -3.4 -16.5 -3.05 -16.65 -2.7 Q-16.8 -2.55 -17.0 -2.55 L-17.35 -2.7 -17.5 -3.05 -17.35 -3.4 M-12.65 -3.4 L-12.5 -3.05 -12.65 -2.7 -13.0 -2.55 -13.35 -2.7 -13.5 -3.05 -13.35 -3.4 -13.0 -3.55 -12.65 -3.4 M-8.65 -3.4 L-8.5 -3.05 Q-8.5 -2.85 -8.65 -2.7 -8.8 -2.55 -9.0 -2.55 -9.2 -2.55 -9.35 -2.7 L-9.5 -3.05 -9.35 -3.4 -9.0 -3.55 -8.65 -3.4 M-5.5 -3.05 L-5.35 -3.4 -5.0 -3.55 -4.65 -3.4 -4.5 -3.05 Q-4.5 -2.85 -4.65 -2.7 -4.8 -2.55 -5.0 -2.55 -5.2 -2.55 -5.35 -2.7 L-5.5 -3.05 M-1.0 -3.55 L-0.65 -3.4 -0.5 -3.05 -0.65 -2.7 Q-0.8 -2.55 -1.0 -2.55 L-1.35 -2.7 -1.5 -3.05 -1.35 -3.4 -1.0 -3.55" fill="#55b6e1" fill-rule="evenodd" stroke="none"/>
  </g>
</svg>
