<?xml version="1.0" encoding="UTF-8" standalone="no"?>
<svg xmlns:xlink="http://www.w3.org/1999/xlink" height="27.9px" width="33.25px" xmlns="http://www.w3.org/2000/svg">
  <g transform="matrix(1, 0, 0, 1, 16.35, 12.5)">
    <path d="M15.25 -10.05 L15.6 -9.9 15.75 -9.55 Q17.05 14.9 16.85 15.15 L16.15 15.4 -14.25 15.1 -14.7 14.8 -15.0 14.1 -14.15 -9.55 Q-14.15 -9.85 15.25 -10.05" fill="#000000" fill-opacity="0.4509804" fill-rule="evenodd" stroke="none"/>
    <path d="M13.9 -11.5 L-14.5 -11.5" fill="none" stroke="#55b8ec" stroke-linecap="round" stroke-linejoin="round" stroke-width="1.0"/>
    <path d="M-14.5 -11.5 L-15.35 12.15" fill="none" stroke="#0a394b" stroke-linecap="round" stroke-linejoin="round" stroke-width="2.0"/>
    <path d="M-15.35 12.15 L14.8 12.45" fill="none" stroke="#041820" stroke-linecap="round" stroke-linejoin="round" stroke-width="2.0"/>
    <path d="M14.8 12.45 L13.9 -11.5" fill="none" stroke="#0a394b" stroke-linecap="round" stroke-linejoin="round" stroke-width="1.0"/>
    <path d="M13.05 -10.95 L13.05 9.7 -13.3 9.7 -13.3 -10.95 13.05 -10.95" fill="#0a4278" fill-rule="evenodd" stroke="none"/>
    <path d="M13.05 -10.95 L13.05 9.7 -13.3 9.7 -13.3 -10.95 13.05 -10.95" fill="none" stroke="#cc8c8c" stroke-linecap="round" stroke-linejoin="round" stroke-width="1.0"/>
    <path d="M-14.5 -12.4 L-11.65 -12.4 13.9 -12.4 14.8 11.5 -15.35 11.4 -14.5 -12.4 M10.9 -10.9 L-11.7 -10.9 -12.5 8.6 11.55 8.55 10.9 -10.9" fill="url(#gradient0)" fill-rule="evenodd" stroke="none"/>
    <path d="M-14.5 -12.4 L-11.65 -12.4" fill="none" stroke="#0a3945" stroke-linecap="round" stroke-linejoin="round" stroke-width="0.05"/>
    <path d="M5.55 1.75 Q1.55 3.45 -1.85 4.55 L-8.5 6.4 -15.25 6.7 -14.5 -12.3 13.9 -12.5 14.6 4.75 Q9.25 0.15 5.55 1.75" fill="url(#gradient1)" fill-rule="evenodd" stroke="none"/>
  </g>
  <defs>
    <radialGradient cx="0" cy="0" gradientTransform="matrix(-0.0635, 0.0, 0.0, 0.0283, 7.2, -8.95)" gradientUnits="userSpaceOnUse" id="gradient0" r="819.2" spreadMethod="pad">
      <stop offset="0.0" stop-color="#073147"/>
      <stop offset="1.0" stop-color="#1992d5"/>
    </radialGradient>
    <linearGradient gradientTransform="matrix(0.0, -0.0112, -0.0155, 3.0E-4, -1.05, 0.15)" gradientUnits="userSpaceOnUse" id="gradient1" spreadMethod="pad" x1="-819.2" x2="819.2">
      <stop offset="0.0" stop-color="#c2edf8" stop-opacity="0.0"/>
      <stop offset="1.0" stop-color="#b5f1f4" stop-opacity="0.9607843"/>
    </linearGradient>
  </defs>
</svg>
