<?xml version="1.0" encoding="UTF-8" standalone="no"?>
<svg xmlns:xlink="http://www.w3.org/1999/xlink" height="159.5px" width="407.65px" xmlns="http://www.w3.org/2000/svg">
  <g transform="matrix(1, 0, 0, 1, 203.8, 79.75)">
    <path d="M-203.1 -78.25 L-203.8 -79.75 203.85 -79.75 203.85 79.75 -129.9 79.75 -130.25 79.05 -130.7 78.1 -130.65 78.1 196.75 78.1 196.75 -78.25 -203.1 -78.25 M-130.25 79.05 L-130.65 78.1 -130.25 79.05" fill="url(#gradient0)" fill-rule="evenodd" stroke="none"/>
    <path d="M-130.7 78.1 L-131.1 77.2 -203.1 -78.25 196.75 -78.25 196.75 78.1 -130.65 78.1 -131.1 77.2 -130.65 78.1 -130.7 78.1 M-191.95 -72.3 L-125.25 71.65 171.8 71.65 171.8 -72.3 -191.95 -72.3" fill="url(#gradient1)" fill-rule="evenodd" stroke="none"/>
    <path d="M-125.25 71.65 L-191.95 -72.3 171.8 -72.3 171.8 71.65 -125.25 71.65" fill="url(#gradient2)" fill-rule="evenodd" stroke="none"/>
    <path d="M-131.1 77.2 L-203.1 -78.25 M-130.65 78.1 L-130.25 79.05 M-130.65 78.1 L-131.1 77.2" fill="none" stroke="#653838" stroke-linecap="round" stroke-linejoin="round" stroke-width="1.0"/>
    <path d="M171.8 71.65 L-125.25 71.65" fill="none" stroke="#dabcbc" stroke-linecap="round" stroke-linejoin="round" stroke-width="1.0"/>
    <path d="M-125.25 71.65 L-191.95 -72.3 M171.8 -72.3 L171.8 71.65" fill="none" stroke="#995353" stroke-linecap="round" stroke-linejoin="round" stroke-width="1.0"/>
    <path d="M-191.95 -72.3 L171.8 -72.3" fill="none" stroke="#3e2222" stroke-linecap="round" stroke-linejoin="round" stroke-width="1.0"/>
  </g>
  <defs>
    <linearGradient gradientTransform="matrix(0.0015, -0.1087, -0.0972, -0.0013, -155.25, 0.0)" gradientUnits="userSpaceOnUse" id="gradient0" spreadMethod="pad" x1="-819.2" x2="819.2">
      <stop offset="0.0" stop-color="#140a0a"/>
      <stop offset="0.9882352941176471" stop-color="#cb9494"/>
    </linearGradient>
    <linearGradient gradientTransform="matrix(0.0, 0.0762, 0.3515, 0.0, -153.35, 1.9)" gradientUnits="userSpaceOnUse" id="gradient1" spreadMethod="pad" x1="-819.2" x2="819.2">
      <stop offset="0.0" stop-color="#642d2d"/>
      <stop offset="0.9882352941176471" stop-color="#452121"/>
    </linearGradient>
    <linearGradient gradientTransform="matrix(0.0, -0.1006, -0.3515, 1.0E-4, -164.05, -3.75)" gradientUnits="userSpaceOnUse" id="gradient2" spreadMethod="pad" x1="-819.2" x2="819.2">
      <stop offset="0.0" stop-color="#873a3a"/>
      <stop offset="0.9882352941176471" stop-color="#3e1c1c"/>
    </linearGradient>
  </defs>
</svg>
