<?xml version="1.0" encoding="UTF-8" standalone="no"?>
<svg xmlns:xlink="http://www.w3.org/1999/xlink" height="61.6px" width="47.9px" xmlns="http://www.w3.org/2000/svg">
  <g transform="matrix(1, 0, 0, 1, 23.4, 52.5)">
    <path d="M14.2 -32.95 Q11.9 -36.55 6.7 -40.05 2.55 -42.85 -4.45 -46.1 -9.0 -49.1 -14.2 -48.05 -14.4 -47.65 -14.85 -47.4 L-17.4 -45.85 Q-20.95 -43.2 -20.25 -38.9 L-20.75 -38.15 Q-19.8 -34.45 -17.5 -32.25 -15.2 -30.05 -10.75 -30.3 L-10.0 -31.4 -14.6 -34.85 -14.85 -35.9 -14.45 -36.8 -14.15 -38.7 -13.45 -39.6 -10.15 -39.75 -8.2 -39.25 Q-6.3 -38.45 -5.55 -36.5 -4.85 -34.75 -4.85 -32.45 -6.65 -30.5 -9.05 -29.1 -10.1 -28.2 -11.75 -28.15 L-14.8 -28.55 Q-16.05 -29.0 -17.3 -29.6 -20.4 -31.15 -21.95 -34.65 -24.4 -39.85 -22.7 -44.75 -21.2 -48.1 -17.9 -50.1 -13.4 -52.9 -7.45 -52.45 -2.35 -52.1 -0.5 -50.9 1.3 -49.75 9.65 -46.4 18.0 -43.05 22.9 -32.9 27.25 -21.0 19.85 -16.5 15.05 -14.1 8.15 -14.5 1.0 -15.05 -1.3 -7.9 L-0.55 -7.85 -1.2 -7.7 -4.1 -2.3 -4.6 -0.45 Q-4.85 2.9 -2.7 5.45 L-2.15 5.6 Q-1.3 6.0 -0.5 6.55 2.0 7.65 4.15 5.95 L4.7 6.0 Q6.45 4.35 6.95 2.45 7.45 0.5 5.95 -1.85 L5.15 -1.9 4.65 1.65 4.15 2.1 3.55 2.15 2.4 2.6 1.7 2.45 0.6 0.7 0.3 -0.5 Q0.15 -1.8 1.0 -2.8 1.75 -3.75 3.0 -4.4 L6.1 -3.15 Q6.9 -2.85 7.45 -1.95 L8.15 -0.15 8.35 1.55 Q8.45 3.7 7.0 5.6 4.9 8.5 1.7 9.1 -0.6 9.25 -2.7 8.1 -5.6 6.45 -7.15 3.1 -8.5 0.2 -8.25 -3.0 L-7.3 -4.45 -5.8 -7.45 -5.4 -8.55 Q0.2 -21.0 4.6 -20.75 9.0 -20.55 12.95 -22.2 19.35 -24.95 14.2 -32.95" fill="url(#gradient0)" fill-rule="evenodd" stroke="none"/>
  </g>
  <defs>
    <linearGradient gradientTransform="matrix(-0.0046, -0.017, 0.0362, -0.0097, 5.5, -7.6)" gradientUnits="userSpaceOnUse" id="gradient0" spreadMethod="pad" x1="-819.2" x2="819.2">
      <stop offset="0.0" stop-color="#faa52a"/>
      <stop offset="1.0" stop-color="#faa52a" stop-opacity="0.15294118"/>
    </linearGradient>
  </defs>
</svg>
