<?xml version="1.0" encoding="UTF-8" standalone="no"?>
<svg xmlns:xlink="http://www.w3.org/1999/xlink" height="160.5px" width="384.95px" xmlns="http://www.w3.org/2000/svg">
  <g transform="matrix(1, 0, 0, 1, 192.25, 80.25)">
    <path d="M118.3 -79.75 L119.0 -78.25 -185.2 -78.25 -185.2 78.1 191.4 78.1 191.6 78.5 192.2 79.75 -192.25 79.75 -192.25 -79.75 118.3 -79.75" fill="url(#gradient0)" fill-rule="evenodd" stroke="none"/>
    <path d="M119.0 -78.25 L188.05 70.8 188.45 71.65 191.2 77.6 191.4 78.1 -185.2 78.1 -185.2 -78.25 119.0 -78.25 M179.05 71.65 L112.35 -72.3 -169.65 -72.3 -169.65 71.65 179.05 71.65" fill="url(#gradient1)" fill-rule="evenodd" stroke="none"/>
    <path d="M112.35 -72.3 L179.05 71.65 -169.65 71.65 -169.65 -72.3 112.35 -72.3" fill="url(#gradient2)" fill-rule="evenodd" stroke="none"/>
    <path d="M118.3 -79.75 L119.0 -78.25 188.05 70.8 M188.45 71.65 L191.2 77.6 191.6 78.5 192.2 79.75" fill="none" stroke="#522e2e" stroke-linecap="round" stroke-linejoin="round" stroke-width="1.0"/>
    <path d="M112.35 -72.3 L-169.65 -72.3" fill="none" stroke="#3e2222" stroke-linecap="round" stroke-linejoin="round" stroke-width="1.0"/>
    <path d="M179.05 71.65 L112.35 -72.3 M-169.65 -72.3 L-169.65 71.65" fill="none" stroke="#995353" stroke-linecap="round" stroke-linejoin="round" stroke-width="1.0"/>
    <path d="M-169.65 71.65 L179.05 71.65" fill="none" stroke="#dabcbc" stroke-linecap="round" stroke-linejoin="round" stroke-width="1.0"/>
  </g>
  <defs>
    <linearGradient gradientTransform="matrix(0.0015, -0.1087, -0.0972, -0.0013, 166.85, 0.0)" gradientUnits="userSpaceOnUse" id="gradient0" spreadMethod="pad" x1="-819.2" x2="819.2">
      <stop offset="0.0" stop-color="#140a0a"/>
      <stop offset="0.9882352941176471" stop-color="#cb9494"/>
    </linearGradient>
    <linearGradient gradientTransform="matrix(0.0, 0.0762, 0.3515, 0.0, 168.75, 1.9)" gradientUnits="userSpaceOnUse" id="gradient1" spreadMethod="pad" x1="-819.2" x2="819.2">
      <stop offset="0.0" stop-color="#642d2d"/>
      <stop offset="0.9882352941176471" stop-color="#452121"/>
    </linearGradient>
    <linearGradient gradientTransform="matrix(0.0, -0.1006, -0.3515, 1.0E-4, 158.05, -3.75)" gradientUnits="userSpaceOnUse" id="gradient2" spreadMethod="pad" x1="-819.2" x2="819.2">
      <stop offset="0.0" stop-color="#873a3a"/>
      <stop offset="0.9882352941176471" stop-color="#3e1c1c"/>
    </linearGradient>
  </defs>
</svg>
