<?xml version="1.0" encoding="UTF-8" standalone="no"?>
<svg xmlns:xlink="http://www.w3.org/1999/xlink" height="144.9px" width="673.45px" xmlns="http://www.w3.org/2000/svg">
  <g transform="matrix(1, 0, 0, 1, 338.2, 72.15)">
    <path d="M-337.05 -6.8 L-338.2 -71.1 329.3 -69.8 333.8 18.45 Q-0.5 46.1 -337.05 -6.8" fill="url(#gradient0)" fill-rule="evenodd" stroke="none"/>
    <path d="M333.8 19.45 L335.25 71.85 -334.85 70.65 -337.05 -5.8 Q-0.5 47.1 333.8 19.45" fill="url(#gradient1)" fill-rule="evenodd" stroke="none"/>
    <path d="M-338.1 -72.15 L-180.65 -71.0 Q-226.75 4.5 -246.9 69.4 -275.55 73.05 -301.55 71.15 L-336.6 70.05 -338.1 -72.15" fill="url(#gradient2)" fill-rule="evenodd" stroke="none"/>
    <path d="M312.65 -70.1 L325.15 72.5 268.35 71.75 Q239.25 71.2 224.0 72.75 187.55 -1.1 139.55 -71.6 L312.65 -70.1" fill="url(#gradient3)" fill-rule="evenodd" stroke="none"/>
  </g>
  <defs>
    <linearGradient gradientTransform="matrix(-0.0016, -0.0573, -0.0644, -1.0E-4, -7.95, -40.0)" gradientUnits="userSpaceOnUse" id="gradient0" spreadMethod="pad" x1="-819.2" x2="819.2">
      <stop offset="0.0" stop-color="#000000" stop-opacity="0.0"/>
      <stop offset="1.0" stop-color="#000000" stop-opacity="0.42352942"/>
    </linearGradient>
    <linearGradient gradientTransform="matrix(0.0013, 0.0465, 0.0644, 1.0E-4, -0.9, 33.15)" gradientUnits="userSpaceOnUse" id="gradient1" spreadMethod="pad" x1="-819.2" x2="819.2">
      <stop offset="0.0" stop-color="#ffffff" stop-opacity="0.0"/>
      <stop offset="1.0" stop-color="#ffffff" stop-opacity="0.42352942"/>
    </linearGradient>
    <linearGradient gradientTransform="matrix(-0.062, -0.0117, -0.0359, 0.0899, -297.3, -29.3)" gradientUnits="userSpaceOnUse" id="gradient2" spreadMethod="pad" x1="-819.2" x2="819.2">
      <stop offset="0.0" stop-color="#000000" stop-opacity="0.0"/>
      <stop offset="1.0" stop-color="#000000" stop-opacity="0.6431373"/>
    </linearGradient>
    <linearGradient gradientTransform="matrix(0.0668, -0.0124, 0.0383, 0.0942, 265.5, -31.4)" gradientUnits="userSpaceOnUse" id="gradient3" spreadMethod="pad" x1="-819.2" x2="819.2">
      <stop offset="0.0" stop-color="#000000" stop-opacity="0.0"/>
      <stop offset="1.0" stop-color="#000000" stop-opacity="0.6431373"/>
    </linearGradient>
  </defs>
</svg>
