<?xml version="1.0" encoding="UTF-8" standalone="no"?>
<svg xmlns:xlink="http://www.w3.org/1999/xlink" height="25.05px" width="25.0px" xmlns="http://www.w3.org/2000/svg">
  <g transform="matrix(1, 0, 0, 1, 12.5, 12.5)">
    <path d="M4.55 -7.6 L4.1 -6.85 Q3.7 -4.1 3.1 -2.75 L2.1 -1.45 2.4 -1.0 2.9 -1.0 3.8 -2.45 4.55 -2.8 4.05 -3.15 Q5.65 -4.0 7.45 -3.95 L7.5 -3.95 Q8.85 -3.55 10.25 -2.75 L9.7 -2.5 11.1 -1.65 12.5 -1.5 Q10.1 -1.15 7.5 -2.55 L7.0 -2.8 Q5.8 -2.35 4.6 -2.25 4.2 -1.0 3.25 -0.35 L2.5 -0.15 2.3 0.3 3.0 0.6 Q3.7 0.0 4.45 -0.2 L4.3 -0.55 7.65 -0.55 9.85 1.05 9.3 1.2 10.25 2.5 11.35 3.4 Q9.05 2.65 7.5 0.65 L7.2 0.35 4.85 0.3 2.95 1.4 2.2 1.2 Q2.0 1.65 2.7 2.1 3.5 1.75 4.75 2.1 L4.75 1.7 Q6.3 2.6 7.3 4.5 L7.5 5.15 7.8 7.0 7.4 7.0 7.9 8.4 7.75 8.8 8.25 10.2 7.5 9.1 Q6.05 6.9 6.05 4.95 5.05 3.9 4.5 2.65 3.6 2.85 2.7 2.65 3.55 3.35 3.8 4.5 L3.8 5.45 Q4.7 9.4 1.9 11.15 L0.2 12.55 Q-1.4 11.9 -1.9 11.15 -4.75 9.4 -3.85 5.45 L-3.85 4.5 Q-3.6 3.35 -2.75 2.65 -3.65 2.85 -4.5 2.65 -5.05 3.9 -6.05 4.95 -6.05 7.4 -8.3 10.2 L-7.75 8.8 -7.9 8.4 -7.4 7.0 -7.8 7.0 Q-7.75 5.85 -7.3 4.5 -6.3 2.6 -4.75 1.7 L-4.75 2.1 Q-3.55 1.75 -2.7 2.1 -2.05 1.65 -2.25 1.2 L-2.95 1.4 -4.85 0.3 -7.25 0.35 Q-8.95 2.6 -11.4 3.4 L-10.25 2.5 -9.35 1.2 -9.85 1.05 -7.7 -0.55 -4.3 -0.55 -4.45 -0.2 Q-3.75 0.0 -3.0 0.6 L-2.3 0.3 -2.5 -0.15 -3.3 -0.35 Q-4.25 -1.0 -4.6 -2.25 L-7.05 -2.8 Q-9.9 -1.1 -12.5 -1.5 L-11.1 -1.65 -9.75 -2.5 -10.25 -2.75 Q-8.9 -3.55 -7.5 -3.95 -5.7 -4.0 -4.1 -3.15 L-4.55 -2.8 -3.85 -2.45 -2.95 -1.0 -2.45 -1.0 -2.15 -1.45 -3.15 -2.75 Q-3.8 -4.1 -4.15 -6.85 L-4.6 -7.6 -4.1 -12.5 -3.0 -7.6 -3.25 -7.05 -3.15 -4.6 -2.3 -3.4 -2.15 -2.7 -1.75 -2.4 -1.55 -3.35 -1.4 -3.5 -1.1 -5.05 Q-0.45 -5.85 -0.3 -6.95 -0.05 -5.9 -0.7 -4.55 L-0.7 -3.55 Q-0.45 -3.85 -0.05 -3.85 L0.0 -3.85 0.7 -3.55 0.65 -4.55 Q0.05 -5.9 0.3 -6.95 0.4 -5.85 1.05 -5.05 L1.35 -3.5 1.5 -3.35 1.75 -2.4 2.15 -2.7 2.3 -3.4 3.15 -4.6 3.25 -7.05 3.0 -7.6 4.05 -12.5 4.55 -7.6" fill="#ffffff" fill-rule="evenodd" stroke="none"/>
  </g>
</svg>
