<?xml version="1.0" encoding="UTF-8" standalone="no"?>
<svg xmlns:xlink="http://www.w3.org/1999/xlink" height="150.75px" width="341.75px" xmlns="http://www.w3.org/2000/svg">
  <g transform="matrix(1, 0, 0, 1, 170.9, 75.4)">
    <path d="M-104.0 -15.35 L-166.65 -51.8 -82.25 -45.7 -112.25 -72.65 -38.5 -54.05 -38.8 -74.3 -7.6 -53.55 0.25 -69.2 6.85 -55.8 Q7.65 -55.55 8.75 -54.05 9.8 -52.65 8.8 -51.05 8.1 -48.85 9.8 -46.75 L10.4 -46.25 10.4 -46.4 23.05 -69.65 34.2 -47.6 61.8 -74.9 73.95 -42.75 98.35 -56.9 92.9 -37.05 Q141.25 -51.8 170.35 -59.65 L112.9 -13.65 156.9 -3.6 108.2 12.2 161.05 45.5 89.85 43.5 115.15 68.9 52.95 54.05 53.15 74.15 26.9 55.05 20.25 71.0 14.7 58.0 Q14.0 57.75 13.1 56.4 12.15 55.0 13.05 53.4 13.6 51.1 12.2 49.15 L12.0 48.85 12.0 49.15 -3.0 71.85 -16.2 49.0 -48.95 74.85 -63.35 41.8 -92.25 54.6 -85.8 34.95 -170.4 46.1 -109.55 10.25 -161.7 -2.35 -104.0 -15.35" fill="url(#gradient0)" fill-rule="evenodd" stroke="none"/>
    <path d="M112.9 -13.65 L170.35 -59.65 Q141.25 -51.8 92.9 -37.05 L98.35 -56.9 73.95 -42.75 61.8 -74.9 34.2 -47.6 23.05 -69.65 10.4 -46.4 10.4 -46.25 9.8 -46.75 Q8.1 -48.85 8.8 -51.05 9.8 -52.65 8.75 -54.05 7.65 -55.55 6.85 -55.8 L0.25 -69.2 -7.6 -53.55 -38.8 -74.3 -38.5 -54.05 -112.25 -72.65 -82.25 -45.7 -166.65 -51.8 -104.0 -15.35" fill="none" stroke="#248bc1" stroke-linecap="round" stroke-linejoin="round" stroke-opacity="0.22352941" stroke-width="1.0"/>
    <path d="M-104.0 -15.35 L-161.7 -2.35 -109.55 10.25 -170.4 46.1 -85.8 34.95 -92.25 54.6 -63.35 41.8 -48.95 74.85 -16.2 49.0 -3.0 71.85 12.0 49.15 12.0 48.85 12.2 49.15 Q13.6 51.1 13.05 53.4 12.15 55.0 13.1 56.4 14.0 57.75 14.7 58.0 L20.25 71.0 26.9 55.05 53.15 74.15 52.95 54.05 115.15 68.9 89.85 43.5 161.05 45.5 108.2 12.2 156.9 -3.6 112.9 -13.65" fill="none" stroke="#b8def1" stroke-linecap="round" stroke-linejoin="round" stroke-opacity="0.24313726" stroke-width="1.0"/>
  </g>
  <defs>
    <linearGradient gradientTransform="matrix(2.0E-4, 0.084, -0.0335, 7.0E-4, 0.05, 0.0)" gradientUnits="userSpaceOnUse" id="gradient0" spreadMethod="pad" x1="-819.2" x2="819.2">
      <stop offset="0.0" stop-color="#29a3e4" stop-opacity="0.22352941"/>
      <stop offset="1.0" stop-color="#0a4278" stop-opacity="0.19215687"/>
    </linearGradient>
  </defs>
</svg>
