<?xml version="1.0" encoding="UTF-8" standalone="no"?>
<svg xmlns:xlink="http://www.w3.org/1999/xlink" height="109.0px" width="250.85px" xmlns="http://www.w3.org/2000/svg">
  <g transform="matrix(1, 0, 0, 1, 125.15, 45.85)">
    <path d="M-87.2 -26.45 L-87.6 -25.9 -87.95 -25.9 -87.2 -26.45" fill="#faa52a" fill-rule="evenodd" stroke="none"/>
    <path d="M-87.95 -25.9 L-100.55 -8.65 -100.35 -8.5 -91.55 21.15 Q-21.95 28.85 89.2 29.45 L96.95 -13.2 84.45 -30.2 -86.9 -26.85 -87.2 -26.45 -87.95 -25.9 M91.4 -31.2 L113.3 -45.85 96.85 -22.65 125.7 -24.55 98.9 -0.25 120.65 19.75 98.7 17.8 113.6 54.8 92.95 31.0 93.6 50.15 85.0 38.1 49.0 38.15 -72.35 31.95 -82.05 30.7 -92.85 63.15 -92.85 34.2 -112.75 53.25 -98.6 18.75 -125.15 31.95 -103.0 2.8 -123.4 -9.2 -103.35 -12.85 -110.25 -34.9 -96.3 -28.95 -101.5 -41.65 -76.75 -34.6 86.9 -38.1 97.05 -44.7 91.4 -31.2" fill="url(#gradient0)" fill-rule="evenodd" stroke="none"/>
  </g>
  <defs>
    <linearGradient gradientTransform="matrix(-0.0019, 0.062, -0.0253, -8.0E-4, 19.4, 12.7)" gradientUnits="userSpaceOnUse" id="gradient0" spreadMethod="pad" x1="-819.2" x2="819.2">
      <stop offset="0.0" stop-color="#1c9ee3"/>
      <stop offset="1.0" stop-color="#094176"/>
    </linearGradient>
  </defs>
</svg>
