<?xml version="1.0" encoding="UTF-8" standalone="no"?>
<svg xmlns:xlink="http://www.w3.org/1999/xlink" height="174.55px" width="238.6px" xmlns="http://www.w3.org/2000/svg">
  <g transform="matrix(1, 0, 0, 1, 124.85, 87.7)">
    <path d="M113.25 -87.2 L113.25 86.35 -124.35 86.35 -124.35 66.6 -124.35 -87.2 113.25 -87.2" fill="url(#gradient0)" fill-rule="evenodd" stroke="none"/>
    <path d="M113.25 -87.2 L113.25 86.35" fill="none" stroke="#3073b6" stroke-linecap="round" stroke-linejoin="round" stroke-width="1.0"/>
    <path d="M113.25 86.35 L-124.35 86.35" fill="none" stroke="#70b9ef" stroke-linecap="round" stroke-linejoin="round" stroke-width="1.0"/>
    <path d="M-124.35 86.35 L-124.35 66.6 -124.35 -87.2 113.25 -87.2" fill="none" stroke="#000000" stroke-linecap="round" stroke-linejoin="round" stroke-width="1.0"/>
    <path d="M53.65 -66.75 L53.8 -66.4 53.65 -66.05 Q53.5 -65.9 53.3 -65.9 53.1 -65.9 52.95 -66.05 52.8 -66.2 52.8 -66.4 L52.95 -66.75 53.3 -66.9 53.65 -66.75 M50.8 -66.4 L50.65 -66.05 Q50.5 -65.9 50.3 -65.9 50.1 -65.9 49.95 -66.05 49.8 -66.2 49.8 -66.4 L49.95 -66.75 50.3 -66.9 50.65 -66.75 50.8 -66.4 M58.95 -66.75 L59.3 -66.9 59.65 -66.75 59.8 -66.4 59.65 -66.05 Q59.5 -65.9 59.3 -65.9 59.1 -65.9 58.95 -66.05 L58.8 -66.4 58.95 -66.75 M55.95 -66.75 L56.3 -66.9 56.65 -66.75 56.8 -66.4 56.65 -66.05 56.3 -65.9 Q56.1 -65.9 55.95 -66.05 L55.8 -66.4 55.95 -66.75 M44.65 -66.75 L44.8 -66.4 44.65 -66.05 44.3 -65.9 Q44.1 -65.9 43.95 -66.05 L43.8 -66.4 43.95 -66.75 44.3 -66.9 44.65 -66.75 M40.95 -66.75 L41.3 -66.9 41.65 -66.75 41.8 -66.4 41.65 -66.05 Q41.5 -65.9 41.3 -65.9 41.1 -65.9 40.95 -66.05 40.8 -66.2 40.8 -66.4 L40.95 -66.75 M46.95 -66.75 L47.3 -66.9 47.65 -66.75 47.8 -66.4 47.65 -66.05 Q47.5 -65.9 47.3 -65.9 L46.95 -66.05 46.8 -66.4 46.95 -66.75 M40.95 -50.75 L41.3 -50.9 41.65 -50.75 41.8 -50.4 41.65 -50.05 Q41.5 -49.9 41.3 -49.9 41.1 -49.9 40.95 -50.05 40.8 -50.2 40.8 -50.4 L40.95 -50.75 M44.65 -50.75 L44.8 -50.4 44.65 -50.05 44.3 -49.9 Q44.1 -49.9 43.95 -50.05 L43.8 -50.4 43.95 -50.75 44.3 -50.9 44.65 -50.75 M46.95 -50.75 L47.3 -50.9 47.65 -50.75 47.8 -50.4 47.65 -50.05 Q47.5 -49.9 47.3 -49.9 L46.95 -50.05 46.8 -50.4 46.95 -50.75 M49.95 -50.75 L50.3 -50.9 50.65 -50.75 50.8 -50.4 50.65 -50.05 Q50.5 -49.9 50.3 -49.9 50.1 -49.9 49.95 -50.05 49.8 -50.2 49.8 -50.4 L49.95 -50.75 M52.8 -50.4 L52.95 -50.75 53.3 -50.9 53.65 -50.75 53.8 -50.4 53.65 -50.05 Q53.5 -49.9 53.3 -49.9 53.1 -49.9 52.95 -50.05 52.8 -50.2 52.8 -50.4 M55.95 -50.75 L56.3 -50.9 56.65 -50.75 56.8 -50.4 56.65 -50.05 56.3 -49.9 Q56.1 -49.9 55.95 -50.05 L55.8 -50.4 55.95 -50.75 M59.65 -50.75 L59.8 -50.4 59.65 -50.05 Q59.5 -49.9 59.3 -49.9 59.1 -49.9 58.95 -50.05 L58.8 -50.4 58.95 -50.75 59.3 -50.9 59.65 -50.75 M74.65 -66.75 L74.8 -66.4 74.65 -66.05 Q74.5 -65.9 74.3 -65.9 74.1 -65.9 73.95 -66.05 73.8 -66.2 73.8 -66.4 L73.95 -66.75 74.3 -66.9 74.65 -66.75 M71.8 -66.4 L71.65 -66.05 Q71.5 -65.9 71.3 -65.9 71.1 -65.9 70.95 -66.05 70.8 -66.2 70.8 -66.4 L70.95 -66.75 71.3 -66.9 71.65 -66.75 71.8 -66.4 M79.95 -66.75 L80.3 -66.9 80.65 -66.75 80.8 -66.4 80.65 -66.05 Q80.5 -65.9 80.3 -65.9 80.1 -65.9 79.95 -66.05 L79.8 -66.4 79.95 -66.75 M76.95 -66.75 L77.3 -66.9 77.65 -66.75 77.8 -66.4 77.65 -66.05 77.3 -65.9 Q77.1 -65.9 76.95 -66.05 L76.8 -66.4 76.95 -66.75 M65.65 -66.75 L65.8 -66.4 65.65 -66.05 65.3 -65.9 Q65.1 -65.9 64.95 -66.05 L64.8 -66.4 64.95 -66.75 65.3 -66.9 65.65 -66.75 M61.95 -66.75 L62.3 -66.9 62.65 -66.75 62.8 -66.4 62.65 -66.05 Q62.5 -65.9 62.3 -65.9 62.1 -65.9 61.95 -66.05 61.8 -66.2 61.8 -66.4 L61.95 -66.75 M68.65 -66.75 L68.8 -66.4 68.65 -66.05 Q68.5 -65.9 68.3 -65.9 L67.95 -66.05 67.8 -66.4 67.95 -66.75 68.3 -66.9 68.65 -66.75 M61.95 -50.75 L62.3 -50.9 62.65 -50.75 62.8 -50.4 62.65 -50.05 Q62.5 -49.9 62.3 -49.9 62.1 -49.9 61.95 -50.05 61.8 -50.2 61.8 -50.4 L61.95 -50.75 M65.65 -50.75 L65.8 -50.4 65.65 -50.05 65.3 -49.9 Q65.1 -49.9 64.95 -50.05 L64.8 -50.4 64.95 -50.75 65.3 -50.9 65.65 -50.75 M68.65 -50.75 L68.8 -50.4 68.65 -50.05 Q68.5 -49.9 68.3 -49.9 L67.95 -50.05 67.8 -50.4 67.95 -50.75 68.3 -50.9 68.65 -50.75 M71.8 -50.4 L71.65 -50.05 Q71.5 -49.9 71.3 -49.9 71.1 -49.9 70.95 -50.05 70.8 -50.2 70.8 -50.4 L70.95 -50.75 71.3 -50.9 71.65 -50.75 71.8 -50.4 M74.65 -50.75 L74.8 -50.4 74.65 -50.05 Q74.5 -49.9 74.3 -49.9 74.1 -49.9 73.95 -50.05 73.8 -50.2 73.8 -50.4 L73.95 -50.75 74.3 -50.9 74.65 -50.75 M76.95 -50.75 L77.3 -50.9 77.65 -50.75 77.8 -50.4 77.65 -50.05 77.3 -49.9 Q77.1 -49.9 76.95 -50.05 L76.8 -50.4 76.95 -50.75 M79.95 -50.75 L80.3 -50.9 80.65 -50.75 80.8 -50.4 80.65 -50.05 Q80.5 -49.9 80.3 -49.9 80.1 -49.9 79.95 -50.05 L79.8 -50.4 79.95 -50.75 M14.65 -66.75 L14.8 -66.4 14.65 -66.05 14.3 -65.9 Q14.1 -65.9 13.95 -66.05 L13.8 -66.4 13.95 -66.75 14.3 -66.9 14.65 -66.75 M10.95 -66.75 L11.3 -66.9 11.65 -66.75 11.8 -66.4 11.65 -66.05 Q11.5 -65.9 11.3 -65.9 11.1 -65.9 10.95 -66.05 10.8 -66.2 10.8 -66.4 L10.95 -66.75 M19.95 -66.75 L20.3 -66.9 20.65 -66.75 20.8 -66.4 20.65 -66.05 Q20.5 -65.9 20.3 -65.9 20.1 -65.9 19.95 -66.05 19.8 -66.2 19.8 -66.4 L19.95 -66.75 M16.95 -66.75 L17.3 -66.9 17.65 -66.75 17.8 -66.4 17.65 -66.05 Q17.5 -65.9 17.3 -65.9 17.1 -65.9 16.95 -66.05 L16.8 -66.4 16.95 -66.75 M4.8 -66.4 L4.95 -66.75 5.3 -66.9 5.65 -66.75 5.8 -66.4 5.65 -66.05 Q5.5 -65.9 5.3 -65.9 L4.95 -66.05 4.8 -66.4 M2.65 -66.05 L2.3 -65.9 Q2.1 -65.9 1.95 -66.05 L1.8 -66.4 1.95 -66.75 2.3 -66.9 2.65 -66.75 2.8 -66.4 2.65 -66.05 M7.95 -66.75 L8.3 -66.9 8.65 -66.75 8.8 -66.4 8.65 -66.05 Q8.5 -65.9 8.3 -65.9 8.1 -65.9 7.95 -66.05 7.8 -66.2 7.8 -66.4 L7.95 -66.75 M1.95 -50.75 L2.3 -50.9 2.65 -50.75 2.8 -50.4 2.65 -50.05 2.3 -49.9 Q2.1 -49.9 1.95 -50.05 L1.8 -50.4 1.95 -50.75 M4.8 -50.4 L4.95 -50.75 5.3 -50.9 5.65 -50.75 5.8 -50.4 5.65 -50.05 Q5.5 -49.9 5.3 -49.9 L4.95 -50.05 4.8 -50.4 M7.95 -50.75 L8.3 -50.9 8.65 -50.75 8.8 -50.4 8.65 -50.05 Q8.5 -49.9 8.3 -49.9 8.1 -49.9 7.95 -50.05 7.8 -50.2 7.8 -50.4 L7.95 -50.75 M10.95 -50.75 L11.3 -50.9 11.65 -50.75 11.8 -50.4 11.65 -50.05 Q11.5 -49.9 11.3 -49.9 11.1 -49.9 10.95 -50.05 10.8 -50.2 10.8 -50.4 L10.95 -50.75 M14.65 -50.75 L14.8 -50.4 14.65 -50.05 14.3 -49.9 Q14.1 -49.9 13.95 -50.05 L13.8 -50.4 13.95 -50.75 14.3 -50.9 14.65 -50.75 M16.95 -50.75 L17.3 -50.9 17.65 -50.75 17.8 -50.4 17.65 -50.05 Q17.5 -49.9 17.3 -49.9 17.1 -49.9 16.95 -50.05 L16.8 -50.4 16.95 -50.75 M19.8 -50.4 L19.95 -50.75 20.3 -50.9 20.65 -50.75 20.8 -50.4 20.65 -50.05 Q20.5 -49.9 20.3 -49.9 20.1 -49.9 19.95 -50.05 19.8 -50.2 19.8 -50.4 M35.3 -66.9 L35.65 -66.75 35.8 -66.4 35.65 -66.05 35.3 -65.9 Q35.1 -65.9 34.95 -66.05 L34.8 -66.4 34.95 -66.75 35.3 -66.9 M31.95 -66.75 L32.3 -66.9 32.65 -66.75 32.8 -66.4 32.65 -66.05 Q32.5 -65.9 32.3 -65.9 32.1 -65.9 31.95 -66.05 31.8 -66.2 31.8 -66.4 L31.95 -66.75 M38.8 -66.4 L38.65 -66.05 Q38.5 -65.9 38.3 -65.9 38.1 -65.9 37.95 -66.05 L37.8 -66.4 37.95 -66.75 38.3 -66.9 38.65 -66.75 38.8 -66.4 M23.65 -66.75 L23.8 -66.4 23.65 -66.05 23.3 -65.9 Q23.1 -65.9 22.95 -66.05 L22.8 -66.4 22.95 -66.75 23.3 -66.9 23.65 -66.75 M28.95 -66.75 L29.3 -66.9 29.65 -66.75 29.8 -66.4 29.65 -66.05 Q29.5 -65.9 29.3 -65.9 29.1 -65.9 28.95 -66.05 28.8 -66.2 28.8 -66.4 L28.95 -66.75 M25.95 -66.75 L26.3 -66.9 26.65 -66.75 26.8 -66.4 26.65 -66.05 Q26.5 -65.9 26.3 -65.9 L25.95 -66.05 25.8 -66.4 25.95 -66.75 M23.65 -50.75 L23.8 -50.4 23.65 -50.05 23.3 -49.9 Q23.1 -49.9 22.95 -50.05 L22.8 -50.4 22.95 -50.75 23.3 -50.9 23.65 -50.75 M25.95 -50.75 L26.3 -50.9 26.65 -50.75 26.8 -50.4 26.65 -50.05 Q26.5 -49.9 26.3 -49.9 L25.95 -50.05 25.8 -50.4 25.95 -50.75 M28.95 -50.75 L29.3 -50.9 29.65 -50.75 29.8 -50.4 29.65 -50.05 Q29.5 -49.9 29.3 -49.9 29.1 -49.9 28.95 -50.05 28.8 -50.2 28.8 -50.4 L28.95 -50.75 M31.95 -50.75 L32.3 -50.9 32.65 -50.75 32.8 -50.4 32.65 -50.05 Q32.5 -49.9 32.3 -49.9 32.1 -49.9 31.95 -50.05 31.8 -50.2 31.8 -50.4 L31.95 -50.75 M35.3 -50.9 L35.65 -50.75 35.8 -50.4 35.65 -50.05 35.3 -49.9 Q35.1 -49.9 34.95 -50.05 L34.8 -50.4 34.95 -50.75 35.3 -50.9 M37.95 -50.75 L38.3 -50.9 38.65 -50.75 38.8 -50.4 38.65 -50.05 Q38.5 -49.9 38.3 -49.9 38.1 -49.9 37.95 -50.05 L37.8 -50.4 37.95 -50.75 M29.3 -34.4 L29.65 -34.25 29.8 -33.9 29.65 -33.55 Q29.5 -33.4 29.3 -33.4 29.1 -33.4 28.95 -33.55 28.8 -33.7 28.8 -33.9 L28.95 -34.25 29.3 -34.4 M26.3 -34.4 L26.65 -34.25 26.8 -33.9 26.65 -33.55 Q26.5 -33.4 26.3 -33.4 L25.95 -33.55 25.8 -33.9 25.95 -34.25 26.3 -34.4 M23.65 -34.25 L23.8 -33.9 23.65 -33.55 23.3 -33.4 Q23.1 -33.4 22.95 -33.55 L22.8 -33.9 22.95 -34.25 23.3 -34.4 23.65 -34.25 M20.65 -34.25 L20.8 -33.9 20.65 -33.55 Q20.5 -33.4 20.3 -33.4 20.1 -33.4 19.95 -33.55 19.8 -33.7 19.8 -33.9 L19.95 -34.25 20.3 -34.4 20.65 -34.25 M38.65 -34.25 L38.8 -33.9 38.65 -33.55 Q38.5 -33.4 38.3 -33.4 38.1 -33.4 37.95 -33.55 L37.8 -33.9 37.95 -34.25 38.3 -34.4 38.65 -34.25 M35.65 -33.55 L35.3 -33.4 Q35.1 -33.4 34.95 -33.55 L34.8 -33.9 34.95 -34.25 35.3 -34.4 35.65 -34.25 35.8 -33.9 35.65 -33.55 M32.65 -34.25 L32.8 -33.9 32.65 -33.55 Q32.5 -33.4 32.3 -33.4 32.1 -33.4 31.95 -33.55 31.8 -33.7 31.8 -33.9 L31.95 -34.25 32.3 -34.4 32.65 -34.25 M8.3 -34.4 L8.65 -34.25 8.8 -33.9 8.65 -33.55 Q8.5 -33.4 8.3 -33.4 8.1 -33.4 7.95 -33.55 7.8 -33.7 7.8 -33.9 L7.95 -34.25 8.3 -34.4 M5.65 -34.25 L5.8 -33.9 5.65 -33.55 Q5.5 -33.4 5.3 -33.4 L4.95 -33.55 4.8 -33.9 4.95 -34.25 5.3 -34.4 5.65 -34.25 M2.3 -34.4 L2.65 -34.25 2.8 -33.9 2.65 -33.55 2.3 -33.4 Q2.1 -33.4 1.95 -33.55 L1.8 -33.9 1.95 -34.25 2.3 -34.4 M17.65 -34.25 L17.8 -33.9 17.65 -33.55 Q17.5 -33.4 17.3 -33.4 17.1 -33.4 16.95 -33.55 L16.8 -33.9 16.95 -34.25 17.3 -34.4 17.65 -34.25 M14.65 -34.25 L14.8 -33.9 14.65 -33.55 14.3 -33.4 Q14.1 -33.4 13.95 -33.55 L13.8 -33.9 13.95 -34.25 14.3 -34.4 14.65 -34.25 M11.3 -34.4 L11.65 -34.25 11.8 -33.9 11.65 -33.55 Q11.5 -33.4 11.3 -33.4 11.1 -33.4 10.95 -33.55 10.8 -33.7 10.8 -33.9 L10.95 -34.25 11.3 -34.4 M14.65 -17.75 L14.8 -17.4 14.65 -17.05 14.3 -16.9 Q14.1 -16.9 13.95 -17.05 L13.8 -17.4 13.95 -17.75 14.3 -17.9 14.65 -17.75 M10.95 -17.75 L11.3 -17.9 11.65 -17.75 11.8 -17.4 11.65 -17.05 Q11.5 -16.9 11.3 -16.9 11.1 -16.9 10.95 -17.05 10.8 -17.2 10.8 -17.4 L10.95 -17.75 M19.95 -17.75 L20.3 -17.9 20.65 -17.75 20.8 -17.4 20.65 -17.05 Q20.5 -16.9 20.3 -16.9 20.1 -16.9 19.95 -17.05 19.8 -17.2 19.8 -17.4 L19.95 -17.75 M16.95 -17.75 L17.3 -17.9 17.65 -17.75 17.8 -17.4 17.65 -17.05 Q17.5 -16.9 17.3 -16.9 17.1 -16.9 16.95 -17.05 L16.8 -17.4 16.95 -17.75 M4.8 -17.4 L4.95 -17.75 5.3 -17.9 5.65 -17.75 5.8 -17.4 5.65 -17.05 Q5.5 -16.9 5.3 -16.9 L4.95 -17.05 4.8 -17.4 M2.65 -17.05 L2.3 -16.9 Q2.1 -16.9 1.95 -17.05 L1.8 -17.4 1.95 -17.75 2.3 -17.9 2.65 -17.75 2.8 -17.4 2.65 -17.05 M7.95 -17.75 L8.3 -17.9 8.65 -17.75 8.8 -17.4 8.65 -17.05 Q8.5 -16.9 8.3 -16.9 8.1 -16.9 7.95 -17.05 7.8 -17.2 7.8 -17.4 L7.95 -17.75 M1.95 -0.75 L2.3 -0.9 2.65 -0.75 2.8 -0.4 2.65 -0.05 2.3 0.1 1.95 -0.05 1.8 -0.4 1.95 -0.75 M4.95 -0.75 L5.3 -0.9 5.65 -0.75 5.8 -0.4 5.65 -0.05 5.3 0.1 4.95 -0.05 4.8 -0.4 4.95 -0.75 M7.95 -0.75 L8.3 -0.9 8.65 -0.75 8.8 -0.4 8.65 -0.05 8.3 0.1 7.95 -0.05 Q7.8 -0.2 7.8 -0.4 L7.95 -0.75 M10.95 -0.75 L11.3 -0.9 11.65 -0.75 11.8 -0.4 11.65 -0.05 11.3 0.1 10.95 -0.05 Q10.8 -0.2 10.8 -0.4 L10.95 -0.75 M14.65 -0.75 L14.8 -0.4 14.65 -0.05 14.3 0.1 13.95 -0.05 13.8 -0.4 13.95 -0.75 14.3 -0.9 14.65 -0.75 M16.95 -0.75 L17.3 -0.9 17.65 -0.75 17.8 -0.4 17.65 -0.05 17.3 0.1 16.95 -0.05 16.8 -0.4 16.95 -0.75 M19.95 -0.75 L20.3 -0.9 20.65 -0.75 20.8 -0.4 20.65 -0.05 20.3 0.1 19.95 -0.05 Q19.8 -0.2 19.8 -0.4 L19.95 -0.75 M35.3 -17.9 L35.65 -17.75 35.8 -17.4 35.65 -17.05 35.3 -16.9 Q35.1 -16.9 34.95 -17.05 L34.8 -17.4 34.95 -17.75 35.3 -17.9 M31.95 -17.75 L32.3 -17.9 32.65 -17.75 32.8 -17.4 32.65 -17.05 Q32.5 -16.9 32.3 -16.9 32.1 -16.9 31.95 -17.05 31.8 -17.2 31.8 -17.4 L31.95 -17.75 M38.8 -17.4 L38.65 -17.05 Q38.5 -16.9 38.3 -16.9 38.1 -16.9 37.95 -17.05 L37.8 -17.4 37.95 -17.75 38.3 -17.9 38.65 -17.75 38.8 -17.4 M23.65 -17.75 L23.8 -17.4 23.65 -17.05 23.3 -16.9 Q23.1 -16.9 22.95 -17.05 L22.8 -17.4 22.95 -17.75 23.3 -17.9 23.65 -17.75 M28.95 -17.75 L29.3 -17.9 29.65 -17.75 29.8 -17.4 29.65 -17.05 Q29.5 -16.9 29.3 -16.9 29.1 -16.9 28.95 -17.05 28.8 -17.2 28.8 -17.4 L28.95 -17.75 M25.95 -17.75 L26.3 -17.9 26.65 -17.75 26.8 -17.4 26.65 -17.05 Q26.5 -16.9 26.3 -16.9 L25.95 -17.05 25.8 -17.4 25.95 -17.75 M23.65 -0.75 L23.8 -0.4 23.65 -0.05 23.3 0.1 22.95 -0.05 22.8 -0.4 22.95 -0.75 23.3 -0.9 23.65 -0.75 M25.95 -0.75 L26.3 -0.9 26.65 -0.75 26.8 -0.4 26.65 -0.05 26.3 0.1 25.95 -0.05 25.8 -0.4 25.95 -0.75 M28.95 -0.75 L29.3 -0.9 29.65 -0.75 29.8 -0.4 29.65 -0.05 29.3 0.1 28.95 -0.05 Q28.8 -0.2 28.8 -0.4 L28.95 -0.75 M32.65 -0.75 L32.8 -0.4 32.65 -0.05 32.3 0.1 31.95 -0.05 Q31.8 -0.2 31.8 -0.4 L31.95 -0.75 32.3 -0.9 32.65 -0.75 M35.3 -0.9 L35.65 -0.75 35.8 -0.4 35.65 -0.05 35.3 0.1 34.95 -0.05 34.8 -0.4 34.95 -0.75 35.3 -0.9 M38.65 -0.75 L38.8 -0.4 38.65 -0.05 38.3 0.1 37.95 -0.05 37.8 -0.4 37.95 -0.75 38.3 -0.9 38.65 -0.75 M68.65 -34.25 L68.8 -33.9 68.65 -33.55 Q68.5 -33.4 68.3 -33.4 L67.95 -33.55 67.8 -33.9 67.95 -34.25 68.3 -34.4 68.65 -34.25 M65.65 -34.25 L65.8 -33.9 65.65 -33.55 65.3 -33.4 Q65.1 -33.4 64.95 -33.55 L64.8 -33.9 64.95 -34.25 65.3 -34.4 65.65 -34.25 M62.3 -34.4 L62.65 -34.25 62.8 -33.9 62.65 -33.55 Q62.5 -33.4 62.3 -33.4 62.1 -33.4 61.95 -33.55 61.8 -33.7 61.8 -33.9 L61.95 -34.25 62.3 -34.4 M80.65 -34.25 L80.8 -33.9 80.65 -33.55 Q80.5 -33.4 80.3 -33.4 80.1 -33.4 79.95 -33.55 L79.8 -33.9 79.95 -34.25 80.3 -34.4 80.65 -34.25 M77.3 -34.4 L77.65 -34.25 77.8 -33.9 77.65 -33.55 77.3 -33.4 Q77.1 -33.4 76.95 -33.55 L76.8 -33.9 76.95 -34.25 77.3 -34.4 M74.65 -34.25 L74.8 -33.9 74.65 -33.55 Q74.5 -33.4 74.3 -33.4 74.1 -33.4 73.95 -33.55 73.8 -33.7 73.8 -33.9 L73.95 -34.25 74.3 -34.4 74.65 -34.25 M71.3 -34.4 L71.65 -34.25 71.8 -33.9 71.65 -33.55 Q71.5 -33.4 71.3 -33.4 71.1 -33.4 70.95 -33.55 70.8 -33.7 70.8 -33.9 L70.95 -34.25 71.3 -34.4 M50.3 -34.4 L50.65 -34.25 50.8 -33.9 50.65 -33.55 Q50.5 -33.4 50.3 -33.4 50.1 -33.4 49.95 -33.55 49.8 -33.7 49.8 -33.9 L49.95 -34.25 50.3 -34.4 M47.3 -34.4 L47.65 -34.25 47.8 -33.9 47.65 -33.55 Q47.5 -33.4 47.3 -33.4 L46.95 -33.55 46.8 -33.9 46.95 -34.25 47.3 -34.4 M44.65 -34.25 L44.8 -33.9 44.65 -33.55 44.3 -33.4 Q44.1 -33.4 43.95 -33.55 L43.8 -33.9 43.95 -34.25 44.3 -34.4 44.65 -34.25 M41.3 -34.4 L41.65 -34.25 41.8 -33.9 41.65 -33.55 Q41.5 -33.4 41.3 -33.4 41.1 -33.4 40.95 -33.55 40.8 -33.7 40.8 -33.9 L40.95 -34.25 41.3 -34.4 M59.65 -34.25 L59.8 -33.9 59.65 -33.55 Q59.5 -33.4 59.3 -33.4 59.1 -33.4 58.95 -33.55 L58.8 -33.9 58.95 -34.25 59.3 -34.4 59.65 -34.25 M56.3 -34.4 L56.65 -34.25 56.8 -33.9 56.65 -33.55 56.3 -33.4 Q56.1 -33.4 55.95 -33.55 L55.8 -33.9 55.95 -34.25 56.3 -34.4 M53.65 -34.25 L53.8 -33.9 53.65 -33.55 Q53.5 -33.4 53.3 -33.4 53.1 -33.4 52.95 -33.55 52.8 -33.7 52.8 -33.9 L52.95 -34.25 53.3 -34.4 53.65 -34.25 M53.65 -17.75 L53.8 -17.4 53.65 -17.05 Q53.5 -16.9 53.3 -16.9 53.1 -16.9 52.95 -17.05 52.8 -17.2 52.8 -17.4 L52.95 -17.75 53.3 -17.9 53.65 -17.75 M50.8 -17.4 L50.65 -17.05 Q50.5 -16.9 50.3 -16.9 50.1 -16.9 49.95 -17.05 49.8 -17.2 49.8 -17.4 L49.95 -17.75 50.3 -17.9 50.65 -17.75 50.8 -17.4 M58.95 -17.75 L59.3 -17.9 59.65 -17.75 59.8 -17.4 59.65 -17.05 Q59.5 -16.9 59.3 -16.9 59.1 -16.9 58.95 -17.05 L58.8 -17.4 58.95 -17.75 M55.95 -17.75 L56.3 -17.9 56.65 -17.75 56.8 -17.4 56.65 -17.05 56.3 -16.9 Q56.1 -16.9 55.95 -17.05 L55.8 -17.4 55.95 -17.75 M44.65 -17.75 L44.8 -17.4 44.65 -17.05 44.3 -16.9 Q44.1 -16.9 43.95 -17.05 L43.8 -17.4 43.95 -17.75 44.3 -17.9 44.65 -17.75 M40.95 -17.75 L41.3 -17.9 41.65 -17.75 41.8 -17.4 41.65 -17.05 Q41.5 -16.9 41.3 -16.9 41.1 -16.9 40.95 -17.05 40.8 -17.2 40.8 -17.4 L40.95 -17.75 M46.95 -17.75 L47.3 -17.9 47.65 -17.75 47.8 -17.4 47.65 -17.05 Q47.5 -16.9 47.3 -16.9 L46.95 -17.05 46.8 -17.4 46.95 -17.75 M40.95 -0.75 L41.3 -0.9 41.65 -0.75 41.8 -0.4 41.65 -0.05 41.3 0.1 40.95 -0.05 Q40.8 -0.2 40.8 -0.4 L40.95 -0.75 M44.65 -0.75 L44.8 -0.4 44.65 -0.05 44.3 0.1 43.95 -0.05 43.8 -0.4 43.95 -0.75 44.3 -0.9 44.65 -0.75 M46.95 -0.75 L47.3 -0.9 47.65 -0.75 47.8 -0.4 47.65 -0.05 47.3 0.1 46.95 -0.05 46.8 -0.4 46.95 -0.75 M49.95 -0.75 L50.3 -0.9 50.65 -0.75 50.8 -0.4 50.65 -0.05 50.3 0.1 49.95 -0.05 Q49.8 -0.2 49.8 -0.4 L49.95 -0.75 M52.95 -0.75 L53.3 -0.9 53.65 -0.75 53.8 -0.4 53.65 -0.05 53.3 0.1 52.95 -0.05 Q52.8 -0.2 52.8 -0.4 L52.95 -0.75 M55.95 -0.75 L56.3 -0.9 56.65 -0.75 56.8 -0.4 56.65 -0.05 56.3 0.1 55.95 -0.05 55.8 -0.4 55.95 -0.75 M59.65 -0.75 L59.8 -0.4 59.65 -0.05 59.3 0.1 58.95 -0.05 58.8 -0.4 58.95 -0.75 59.3 -0.9 59.65 -0.75 M74.65 -17.75 L74.8 -17.4 74.65 -17.05 Q74.5 -16.9 74.3 -16.9 74.1 -16.9 73.95 -17.05 73.8 -17.2 73.8 -17.4 L73.95 -17.75 74.3 -17.9 74.65 -17.75 M71.8 -17.4 L71.65 -17.05 Q71.5 -16.9 71.3 -16.9 71.1 -16.9 70.95 -17.05 70.8 -17.2 70.8 -17.4 L70.95 -17.75 71.3 -17.9 71.65 -17.75 71.8 -17.4 M79.95 -17.75 L80.3 -17.9 80.65 -17.75 80.8 -17.4 80.65 -17.05 Q80.5 -16.9 80.3 -16.9 80.1 -16.9 79.95 -17.05 L79.8 -17.4 79.95 -17.75 M76.95 -17.75 L77.3 -17.9 77.65 -17.75 77.8 -17.4 77.65 -17.05 77.3 -16.9 Q77.1 -16.9 76.95 -17.05 L76.8 -17.4 76.95 -17.75 M65.65 -17.75 L65.8 -17.4 65.65 -17.05 65.3 -16.9 Q65.1 -16.9 64.95 -17.05 L64.8 -17.4 64.95 -17.75 65.3 -17.9 65.65 -17.75 M61.95 -17.75 L62.3 -17.9 62.65 -17.75 62.8 -17.4 62.65 -17.05 Q62.5 -16.9 62.3 -16.9 62.1 -16.9 61.95 -17.05 61.8 -17.2 61.8 -17.4 L61.95 -17.75 M68.65 -17.75 L68.8 -17.4 68.65 -17.05 Q68.5 -16.9 68.3 -16.9 L67.95 -17.05 67.8 -17.4 67.95 -17.75 68.3 -17.9 68.65 -17.75 M61.95 -0.75 L62.3 -0.9 62.65 -0.75 62.8 -0.4 62.65 -0.05 62.3 0.1 61.95 -0.05 Q61.8 -0.2 61.8 -0.4 L61.95 -0.75 M65.65 -0.05 L65.3 0.1 64.95 -0.05 64.8 -0.4 64.95 -0.75 65.3 -0.9 65.65 -0.75 65.8 -0.4 65.65 -0.05 M68.65 -0.75 L68.8 -0.4 68.65 -0.05 68.3 0.1 67.95 -0.05 67.8 -0.4 67.95 -0.75 68.3 -0.9 68.65 -0.75 M71.8 -0.4 L71.65 -0.05 71.3 0.1 70.95 -0.05 Q70.8 -0.2 70.8 -0.4 L70.95 -0.75 71.3 -0.9 71.65 -0.75 71.8 -0.4 M74.65 -0.75 L74.8 -0.4 74.65 -0.05 74.3 0.1 73.95 -0.05 Q73.8 -0.2 73.8 -0.4 L73.95 -0.75 74.3 -0.9 74.65 -0.75 M76.95 -0.75 L77.3 -0.9 77.65 -0.75 77.8 -0.4 77.65 -0.05 77.3 0.1 76.95 -0.05 76.8 -0.4 76.95 -0.75 M79.95 -0.75 L80.3 -0.9 80.65 -0.75 80.8 -0.4 80.65 -0.05 80.3 0.1 79.95 -0.05 79.8 -0.4 79.95 -0.75 M95.65 -66.75 L95.8 -66.4 95.65 -66.05 Q95.5 -65.9 95.3 -65.9 95.1 -65.9 94.95 -66.05 94.8 -66.2 94.8 -66.4 L94.95 -66.75 95.3 -66.9 95.65 -66.75 M91.95 -66.75 L92.3 -66.9 92.65 -66.75 92.8 -66.4 92.65 -66.05 Q92.5 -65.9 92.3 -65.9 92.1 -65.9 91.95 -66.05 91.8 -66.2 91.8 -66.4 L91.95 -66.75 M100.95 -66.75 L101.3 -66.9 101.65 -66.75 101.8 -66.4 101.65 -66.05 Q101.5 -65.9 101.3 -65.9 101.1 -65.9 100.95 -66.05 L100.8 -66.4 100.95 -66.75 M97.95 -66.75 L98.3 -66.9 98.65 -66.75 98.8 -66.4 98.65 -66.05 98.3 -65.9 Q98.1 -65.9 97.95 -66.05 L97.8 -66.4 97.95 -66.75 M85.8 -66.4 L85.95 -66.75 86.3 -66.9 86.65 -66.75 86.8 -66.4 86.65 -66.05 86.3 -65.9 Q86.1 -65.9 85.95 -66.05 L85.8 -66.4 M83.65 -66.05 Q83.5 -65.9 83.3 -65.9 83.1 -65.9 82.95 -66.05 82.8 -66.2 82.8 -66.4 L82.95 -66.75 83.3 -66.9 83.65 -66.75 83.8 -66.4 83.65 -66.05 M88.95 -66.75 L89.3 -66.9 89.65 -66.75 89.8 -66.4 89.65 -66.05 Q89.5 -65.9 89.3 -65.9 L88.95 -66.05 88.8 -66.4 88.95 -66.75 M82.95 -50.75 L83.3 -50.9 83.65 -50.75 83.8 -50.4 83.65 -50.05 Q83.5 -49.9 83.3 -49.9 83.1 -49.9 82.95 -50.05 82.8 -50.2 82.8 -50.4 L82.95 -50.75 M85.8 -50.4 L85.95 -50.75 86.3 -50.9 86.65 -50.75 86.8 -50.4 86.65 -50.05 86.3 -49.9 Q86.1 -49.9 85.95 -50.05 L85.8 -50.4 M88.95 -50.75 L89.3 -50.9 89.65 -50.75 89.8 -50.4 89.65 -50.05 Q89.5 -49.9 89.3 -49.9 L88.95 -50.05 88.8 -50.4 88.95 -50.75 M91.95 -50.75 L92.3 -50.9 92.65 -50.75 92.8 -50.4 92.65 -50.05 Q92.5 -49.9 92.3 -49.9 92.1 -49.9 91.95 -50.05 91.8 -50.2 91.8 -50.4 L91.95 -50.75 M95.65 -50.75 L95.8 -50.4 95.65 -50.05 Q95.5 -49.9 95.3 -49.9 95.1 -49.9 94.95 -50.05 94.8 -50.2 94.8 -50.4 L94.95 -50.75 95.3 -50.9 95.65 -50.75 M97.95 -50.75 L98.3 -50.9 98.65 -50.75 98.8 -50.4 98.65 -50.05 98.3 -49.9 Q98.1 -49.9 97.95 -50.05 L97.8 -50.4 97.95 -50.75 M100.8 -50.4 L100.95 -50.75 101.3 -50.9 101.65 -50.75 101.8 -50.4 101.65 -50.05 Q101.5 -49.9 101.3 -49.9 101.1 -49.9 100.95 -50.05 L100.8 -50.4 M104.65 -66.75 L104.8 -66.4 104.65 -66.05 Q104.5 -65.9 104.3 -65.9 104.1 -65.9 103.95 -66.05 103.8 -66.2 103.8 -66.4 L103.95 -66.75 104.3 -66.9 104.65 -66.75 M109.95 -66.75 L110.3 -66.9 110.65 -66.75 110.8 -66.4 110.65 -66.05 Q110.5 -65.9 110.3 -65.9 L109.95 -66.05 109.8 -66.4 109.95 -66.75 M106.95 -66.75 L107.3 -66.9 107.65 -66.75 107.8 -66.4 107.65 -66.05 107.3 -65.9 Q107.1 -65.9 106.95 -66.05 L106.8 -66.4 106.95 -66.75 M104.65 -50.75 L104.8 -50.4 104.65 -50.05 Q104.5 -49.9 104.3 -49.9 104.1 -49.9 103.95 -50.05 103.8 -50.2 103.8 -50.4 L103.95 -50.75 104.3 -50.9 104.65 -50.75 M106.95 -50.75 L107.3 -50.9 107.65 -50.75 107.8 -50.4 107.65 -50.05 107.3 -49.9 Q107.1 -49.9 106.95 -50.05 L106.8 -50.4 106.95 -50.75 M109.95 -50.75 L110.3 -50.9 110.65 -50.75 110.8 -50.4 110.65 -50.05 Q110.5 -49.9 110.3 -49.9 L109.95 -50.05 109.8 -50.4 109.95 -50.75 M110.65 -34.25 L110.8 -33.9 110.65 -33.55 Q110.5 -33.4 110.3 -33.4 L109.95 -33.55 109.8 -33.9 109.95 -34.25 110.3 -34.4 110.65 -34.25 M107.3 -34.4 L107.65 -34.25 107.8 -33.9 107.65 -33.55 107.3 -33.4 Q107.1 -33.4 106.95 -33.55 L106.8 -33.9 106.95 -34.25 107.3 -34.4 M104.65 -34.25 L104.8 -33.9 104.65 -33.55 Q104.5 -33.4 104.3 -33.4 104.1 -33.4 103.95 -33.55 103.8 -33.7 103.8 -33.9 L103.95 -34.25 104.3 -34.4 104.65 -34.25 M101.65 -34.25 L101.8 -33.9 101.65 -33.55 Q101.5 -33.4 101.3 -33.4 101.1 -33.4 100.95 -33.55 L100.8 -33.9 100.95 -34.25 101.3 -34.4 101.65 -34.25 M89.3 -34.4 L89.65 -34.25 89.8 -33.9 89.65 -33.55 Q89.5 -33.4 89.3 -33.4 L88.95 -33.55 88.8 -33.9 88.95 -34.25 89.3 -34.4 M86.65 -34.25 L86.8 -33.9 86.65 -33.55 86.3 -33.4 Q86.1 -33.4 85.95 -33.55 L85.8 -33.9 85.95 -34.25 86.3 -34.4 86.65 -34.25 M83.3 -34.4 L83.65 -34.25 83.8 -33.9 83.65 -33.55 Q83.5 -33.4 83.3 -33.4 83.1 -33.4 82.95 -33.55 82.8 -33.7 82.8 -33.9 L82.95 -34.25 83.3 -34.4 M98.65 -34.25 L98.8 -33.9 98.65 -33.55 98.3 -33.4 Q98.1 -33.4 97.95 -33.55 L97.8 -33.9 97.95 -34.25 98.3 -34.4 98.65 -34.25 M95.65 -34.25 L95.8 -33.9 95.65 -33.55 Q95.5 -33.4 95.3 -33.4 95.1 -33.4 94.95 -33.55 94.8 -33.7 94.8 -33.9 L94.95 -34.25 95.3 -34.4 95.65 -34.25 M92.3 -34.4 L92.65 -34.25 92.8 -33.9 92.65 -33.55 Q92.5 -33.4 92.3 -33.4 92.1 -33.4 91.95 -33.55 91.8 -33.7 91.8 -33.9 L91.95 -34.25 92.3 -34.4 M95.65 -17.75 L95.8 -17.4 95.65 -17.05 Q95.5 -16.9 95.3 -16.9 95.1 -16.9 94.95 -17.05 94.8 -17.2 94.8 -17.4 L94.95 -17.75 95.3 -17.9 95.65 -17.75 M91.95 -17.75 L92.3 -17.9 92.65 -17.75 92.8 -17.4 92.65 -17.05 Q92.5 -16.9 92.3 -16.9 92.1 -16.9 91.95 -17.05 91.8 -17.2 91.8 -17.4 L91.95 -17.75 M100.95 -17.75 L101.3 -17.9 101.65 -17.75 101.8 -17.4 101.65 -17.05 Q101.5 -16.9 101.3 -16.9 101.1 -16.9 100.95 -17.05 L100.8 -17.4 100.95 -17.75 M97.95 -17.75 L98.3 -17.9 98.65 -17.75 98.8 -17.4 98.65 -17.05 98.3 -16.9 Q98.1 -16.9 97.95 -17.05 L97.8 -17.4 97.95 -17.75 M85.8 -17.4 L85.95 -17.75 86.3 -17.9 86.65 -17.75 86.8 -17.4 86.65 -17.05 86.3 -16.9 Q86.1 -16.9 85.95 -17.05 L85.8 -17.4 M83.65 -17.05 Q83.5 -16.9 83.3 -16.9 83.1 -16.9 82.95 -17.05 82.8 -17.2 82.8 -17.4 L82.95 -17.75 83.3 -17.9 83.65 -17.75 83.8 -17.4 83.65 -17.05 M88.95 -17.75 L89.3 -17.9 89.65 -17.75 89.8 -17.4 89.65 -17.05 Q89.5 -16.9 89.3 -16.9 L88.95 -17.05 88.8 -17.4 88.95 -17.75 M82.95 -0.75 L83.3 -0.9 83.65 -0.75 83.8 -0.4 83.65 -0.05 83.3 0.1 82.95 -0.05 Q82.8 -0.2 82.8 -0.4 L82.95 -0.75 M85.95 -0.75 L86.3 -0.9 86.65 -0.75 86.8 -0.4 86.65 -0.05 86.3 0.1 85.95 -0.05 85.8 -0.4 85.95 -0.75 M88.95 -0.75 L89.3 -0.9 89.65 -0.75 89.8 -0.4 89.65 -0.05 89.3 0.1 88.95 -0.05 88.8 -0.4 88.95 -0.75 M91.95 -0.75 L92.3 -0.9 92.65 -0.75 92.8 -0.4 92.65 -0.05 92.3 0.1 91.95 -0.05 Q91.8 -0.2 91.8 -0.4 L91.95 -0.75 M95.65 -0.75 L95.8 -0.4 95.65 -0.05 95.3 0.1 94.95 -0.05 Q94.8 -0.2 94.8 -0.4 L94.95 -0.75 95.3 -0.9 95.65 -0.75 M97.95 -0.75 L98.3 -0.9 98.65 -0.75 98.8 -0.4 98.65 -0.05 98.3 0.1 97.95 -0.05 97.8 -0.4 97.95 -0.75 M100.95 -0.75 L101.3 -0.9 101.65 -0.75 101.8 -0.4 101.65 -0.05 101.3 0.1 100.95 -0.05 100.8 -0.4 100.95 -0.75 M104.65 -17.75 L104.8 -17.4 104.65 -17.05 Q104.5 -16.9 104.3 -16.9 104.1 -16.9 103.95 -17.05 103.8 -17.2 103.8 -17.4 L103.95 -17.75 104.3 -17.9 104.65 -17.75 M109.95 -17.75 L110.3 -17.9 110.65 -17.75 110.8 -17.4 110.65 -17.05 Q110.5 -16.9 110.3 -16.9 L109.95 -17.05 109.8 -17.4 109.95 -17.75 M106.95 -17.75 L107.3 -17.9 107.65 -17.75 107.8 -17.4 107.65 -17.05 107.3 -16.9 Q107.1 -16.9 106.95 -17.05 L106.8 -17.4 106.95 -17.75 M104.65 -0.75 L104.8 -0.4 104.65 -0.05 104.3 0.1 103.95 -0.05 Q103.8 -0.2 103.8 -0.4 L103.95 -0.75 104.3 -0.9 104.65 -0.75 M106.95 -0.75 L107.3 -0.9 107.65 -0.75 107.8 -0.4 107.65 -0.05 107.3 0.1 106.95 -0.05 106.8 -0.4 106.95 -0.75 M109.95 -0.75 L110.3 -0.9 110.65 -0.75 110.8 -0.4 110.65 -0.05 110.3 0.1 109.95 -0.05 109.8 -0.4 109.95 -0.75 M110.65 15.25 L110.8 15.6 110.65 15.95 110.3 16.1 109.95 15.95 109.8 15.6 109.95 15.25 110.3 15.1 Q110.5 15.1 110.65 15.25 M107.3 15.1 L107.65 15.25 107.8 15.6 107.65 15.95 107.3 16.1 106.95 15.95 106.8 15.6 106.95 15.25 Q107.1 15.1 107.3 15.1 M104.65 15.25 L104.8 15.6 104.65 15.95 104.3 16.1 103.95 15.95 103.8 15.6 Q103.8 15.4 103.95 15.25 104.1 15.1 104.3 15.1 104.5 15.1 104.65 15.25 M101.65 15.25 L101.8 15.6 101.65 15.95 101.3 16.1 100.95 15.95 100.8 15.6 100.95 15.25 Q101.1 15.1 101.3 15.1 101.5 15.1 101.65 15.25 M89.3 15.1 Q89.5 15.1 89.65 15.25 L89.8 15.6 89.65 15.95 89.3 16.1 88.95 15.95 88.8 15.6 88.95 15.25 89.3 15.1 M86.65 15.25 L86.8 15.6 86.65 15.95 86.3 16.1 85.95 15.95 85.8 15.6 85.95 15.25 Q86.1 15.1 86.3 15.1 L86.65 15.25 M83.3 15.1 Q83.5 15.1 83.65 15.25 L83.8 15.6 83.65 15.95 83.3 16.1 82.95 15.95 82.8 15.6 Q82.8 15.4 82.95 15.25 83.1 15.1 83.3 15.1 M98.65 15.25 L98.8 15.6 98.65 15.95 98.3 16.1 97.95 15.95 97.8 15.6 97.95 15.25 Q98.1 15.1 98.3 15.1 L98.65 15.25 M95.65 15.25 L95.8 15.6 95.65 15.95 95.3 16.1 94.95 15.95 94.8 15.6 Q94.8 15.4 94.95 15.25 95.1 15.1 95.3 15.1 95.5 15.1 95.65 15.25 M92.3 15.1 Q92.5 15.1 92.65 15.25 L92.8 15.6 92.65 15.95 92.3 16.1 91.95 15.95 91.8 15.6 Q91.8 15.4 91.95 15.25 92.1 15.1 92.3 15.1 M95.65 31.75 L95.8 32.1 95.65 32.45 95.3 32.6 94.95 32.45 94.8 32.1 Q94.8 31.9 94.95 31.75 95.1 31.6 95.3 31.6 95.5 31.6 95.65 31.75 M91.95 31.75 Q92.1 31.6 92.3 31.6 92.5 31.6 92.65 31.75 L92.8 32.1 92.65 32.45 92.3 32.6 91.95 32.45 91.8 32.1 Q91.8 31.9 91.95 31.75 M100.95 31.75 Q101.1 31.6 101.3 31.6 101.5 31.6 101.65 31.75 L101.8 32.1 101.65 32.45 101.3 32.6 100.95 32.45 100.8 32.1 100.95 31.75 M97.95 31.75 Q98.1 31.6 98.3 31.6 L98.65 31.75 98.8 32.1 98.65 32.45 98.3 32.6 97.95 32.45 97.8 32.1 97.95 31.75 M85.8 32.1 L85.95 31.75 Q86.1 31.6 86.3 31.6 L86.65 31.75 86.8 32.1 86.65 32.45 86.3 32.6 85.95 32.45 85.8 32.1 M83.65 32.45 L83.3 32.6 82.95 32.45 82.8 32.1 Q82.8 31.9 82.95 31.75 83.1 31.6 83.3 31.6 83.5 31.6 83.65 31.75 L83.8 32.1 83.65 32.45 M88.95 31.75 L89.3 31.6 Q89.5 31.6 89.65 31.75 L89.8 32.1 89.65 32.45 89.3 32.6 88.95 32.45 88.8 32.1 88.95 31.75 M82.95 47.85 Q83.1 47.7 83.3 47.7 83.5 47.7 83.65 47.85 L83.8 48.2 83.65 48.55 83.3 48.7 82.95 48.55 82.8 48.2 Q82.8 48.0 82.95 47.85 M85.8 48.2 L85.95 47.85 Q86.1 47.7 86.3 47.7 L86.65 47.85 86.8 48.2 86.65 48.55 86.3 48.7 85.95 48.55 85.8 48.2 M88.95 47.85 L89.3 47.7 Q89.5 47.7 89.65 47.85 L89.8 48.2 89.65 48.55 89.3 48.7 88.95 48.55 88.8 48.2 88.95 47.85 M91.95 47.85 Q92.1 47.7 92.3 47.7 92.5 47.7 92.65 47.85 L92.8 48.2 92.65 48.55 92.3 48.7 91.95 48.55 91.8 48.2 Q91.8 48.0 91.95 47.85 M95.65 47.85 L95.8 48.2 95.65 48.55 95.3 48.7 94.95 48.55 94.8 48.2 Q94.8 48.0 94.95 47.85 95.1 47.7 95.3 47.7 95.5 47.7 95.65 47.85 M97.95 47.85 Q98.1 47.7 98.3 47.7 L98.65 47.85 98.8 48.2 98.65 48.55 98.3 48.7 97.95 48.55 97.8 48.2 97.95 47.85 M100.8 48.2 L100.95 47.85 Q101.1 47.7 101.3 47.7 101.5 47.7 101.65 47.85 L101.8 48.2 101.65 48.55 101.3 48.7 100.95 48.55 100.8 48.2 M104.65 31.75 L104.8 32.1 104.65 32.45 104.3 32.6 103.95 32.45 103.8 32.1 Q103.8 31.9 103.95 31.75 104.1 31.6 104.3 31.6 104.5 31.6 104.65 31.75 M109.95 31.75 L110.3 31.6 Q110.5 31.6 110.65 31.75 L110.8 32.1 110.65 32.45 110.3 32.6 109.95 32.45 109.8 32.1 109.95 31.75 M106.95 31.75 Q107.1 31.6 107.3 31.6 L107.65 31.75 107.8 32.1 107.65 32.45 107.3 32.6 106.95 32.45 106.8 32.1 106.95 31.75 M104.65 47.85 L104.8 48.2 104.65 48.55 104.3 48.7 103.95 48.55 103.8 48.2 Q103.8 48.0 103.95 47.85 104.1 47.7 104.3 47.7 104.5 47.7 104.65 47.85 M106.95 47.85 Q107.1 47.7 107.3 47.7 L107.65 47.85 107.8 48.2 107.65 48.55 107.3 48.7 106.95 48.55 106.8 48.2 106.95 47.85 M109.95 47.85 L110.3 47.7 Q110.5 47.7 110.65 47.85 L110.8 48.2 110.65 48.55 110.3 48.7 109.95 48.55 109.8 48.2 109.95 47.85 M109.95 64.35 L110.3 64.2 Q110.5 64.2 110.65 64.35 L110.8 64.7 110.65 65.05 110.3 65.2 109.95 65.05 109.8 64.7 109.95 64.35 M106.95 64.35 Q107.1 64.2 107.3 64.2 L107.65 64.35 107.8 64.7 107.65 65.05 107.3 65.2 106.95 65.05 106.8 64.7 106.95 64.35 M104.65 64.35 L104.8 64.7 104.65 65.05 104.3 65.2 103.95 65.05 103.8 64.7 Q103.8 64.5 103.95 64.35 104.1 64.2 104.3 64.2 104.5 64.2 104.65 64.35 M101.8 64.7 L101.65 65.05 101.3 65.2 100.95 65.05 100.8 64.7 100.95 64.35 Q101.1 64.2 101.3 64.2 101.5 64.2 101.65 64.35 L101.8 64.7 M88.95 64.35 L89.3 64.2 Q89.5 64.2 89.65 64.35 L89.8 64.7 89.65 65.05 89.3 65.2 88.95 65.05 88.8 64.7 88.95 64.35 M86.8 64.7 L86.65 65.05 86.3 65.2 85.95 65.05 85.8 64.7 85.95 64.35 Q86.1 64.2 86.3 64.2 L86.65 64.35 86.8 64.7 M83.8 64.7 L83.65 65.05 83.3 65.2 82.95 65.05 82.8 64.7 Q82.8 64.5 82.95 64.35 83.1 64.2 83.3 64.2 83.5 64.2 83.65 64.35 L83.8 64.7 M97.95 64.35 Q98.1 64.2 98.3 64.2 L98.65 64.35 98.8 64.7 98.65 65.05 98.3 65.2 97.95 65.05 97.8 64.7 97.95 64.35 M95.65 64.35 L95.8 64.7 95.65 65.05 95.3 65.2 94.95 65.05 94.8 64.7 Q94.8 64.5 94.95 64.35 95.1 64.2 95.3 64.2 95.5 64.2 95.65 64.35 M91.95 64.35 Q92.1 64.2 92.3 64.2 92.5 64.2 92.65 64.35 L92.8 64.7 92.65 65.05 92.3 65.2 91.95 65.05 91.8 64.7 Q91.8 64.5 91.95 64.35 M68.65 15.25 L68.8 15.6 68.65 15.95 68.3 16.1 67.95 15.95 67.8 15.6 67.95 15.25 68.3 15.1 Q68.5 15.1 68.65 15.25 M65.65 15.25 L65.8 15.6 65.65 15.95 65.3 16.1 64.95 15.95 64.8 15.6 64.95 15.25 Q65.1 15.1 65.3 15.1 L65.65 15.25 M62.3 15.1 Q62.5 15.1 62.65 15.25 L62.8 15.6 62.65 15.95 62.3 16.1 61.95 15.95 61.8 15.6 Q61.8 15.4 61.95 15.25 62.1 15.1 62.3 15.1 M80.65 15.25 L80.8 15.6 80.65 15.95 80.3 16.1 79.95 15.95 79.8 15.6 79.95 15.25 Q80.1 15.1 80.3 15.1 80.5 15.1 80.65 15.25 M77.3 15.1 L77.65 15.25 77.8 15.6 77.65 15.95 77.3 16.1 76.95 15.95 76.8 15.6 76.95 15.25 Q77.1 15.1 77.3 15.1 M74.65 15.25 L74.8 15.6 74.65 15.95 74.3 16.1 73.95 15.95 73.8 15.6 Q73.8 15.4 73.95 15.25 74.1 15.1 74.3 15.1 74.5 15.1 74.65 15.25 M71.3 15.1 Q71.5 15.1 71.65 15.25 L71.8 15.6 71.65 15.95 71.3 16.1 70.95 15.95 70.8 15.6 Q70.8 15.4 70.95 15.25 71.1 15.1 71.3 15.1 M50.3 15.1 Q50.5 15.1 50.65 15.25 L50.8 15.6 50.65 15.95 50.3 16.1 49.95 15.95 49.8 15.6 Q49.8 15.4 49.95 15.25 50.1 15.1 50.3 15.1 M47.3 15.1 Q47.5 15.1 47.65 15.25 L47.8 15.6 47.65 15.95 47.3 16.1 46.95 15.95 46.8 15.6 46.95 15.25 47.3 15.1 M44.65 15.25 L44.8 15.6 44.65 15.95 44.3 16.1 43.95 15.95 43.8 15.6 43.95 15.25 Q44.1 15.1 44.3 15.1 L44.65 15.25 M41.3 15.1 Q41.5 15.1 41.65 15.25 L41.8 15.6 41.65 15.95 41.3 16.1 40.95 15.95 40.8 15.6 Q40.8 15.4 40.95 15.25 41.1 15.1 41.3 15.1 M59.65 15.25 L59.8 15.6 59.65 15.95 59.3 16.1 58.95 15.95 58.8 15.6 58.95 15.25 Q59.1 15.1 59.3 15.1 59.5 15.1 59.65 15.25 M56.3 15.1 L56.65 15.25 56.8 15.6 56.65 15.95 56.3 16.1 55.95 15.95 55.8 15.6 55.95 15.25 Q56.1 15.1 56.3 15.1 M53.65 15.25 L53.8 15.6 53.65 15.95 53.3 16.1 52.95 15.95 52.8 15.6 Q52.8 15.4 52.95 15.25 53.1 15.1 53.3 15.1 53.5 15.1 53.65 15.25 M53.65 31.75 L53.8 32.1 53.65 32.45 53.3 32.6 52.95 32.45 52.8 32.1 Q52.8 31.9 52.95 31.75 53.1 31.6 53.3 31.6 53.5 31.6 53.65 31.75 M50.8 32.1 L50.65 32.45 50.3 32.6 49.95 32.45 49.8 32.1 Q49.8 31.9 49.95 31.75 50.1 31.6 50.3 31.6 50.5 31.6 50.65 31.75 L50.8 32.1 M58.95 31.75 Q59.1 31.6 59.3 31.6 59.5 31.6 59.65 31.75 L59.8 32.1 59.65 32.45 59.3 32.6 58.95 32.45 58.8 32.1 58.95 31.75 M55.95 31.75 Q56.1 31.6 56.3 31.6 L56.65 31.75 56.8 32.1 56.65 32.45 56.3 32.6 55.95 32.45 55.8 32.1 55.95 31.75 M44.65 31.75 L44.8 32.1 44.65 32.45 44.3 32.6 43.95 32.45 43.8 32.1 43.95 31.75 Q44.1 31.6 44.3 31.6 L44.65 31.75 M40.95 31.75 Q41.1 31.6 41.3 31.6 41.5 31.6 41.65 31.75 L41.8 32.1 41.65 32.45 41.3 32.6 40.95 32.45 40.8 32.1 Q40.8 31.9 40.95 31.75 M46.95 31.75 L47.3 31.6 Q47.5 31.6 47.65 31.75 L47.8 32.1 47.65 32.45 47.3 32.6 46.95 32.45 46.8 32.1 46.95 31.75 M40.95 47.85 Q41.1 47.7 41.3 47.7 41.5 47.7 41.65 47.85 L41.8 48.2 41.65 48.55 41.3 48.7 40.95 48.55 40.8 48.2 Q40.8 48.0 40.95 47.85 M44.65 47.85 L44.8 48.2 44.65 48.55 44.3 48.7 43.95 48.55 43.8 48.2 43.95 47.85 Q44.1 47.7 44.3 47.7 L44.65 47.85 M46.95 47.85 L47.3 47.7 Q47.5 47.7 47.65 47.85 L47.8 48.2 47.65 48.55 47.3 48.7 46.95 48.55 46.8 48.2 46.95 47.85 M49.95 47.85 Q50.1 47.7 50.3 47.7 50.5 47.7 50.65 47.85 L50.8 48.2 50.65 48.55 50.3 48.7 49.95 48.55 49.8 48.2 Q49.8 48.0 49.95 47.85 M52.8 48.2 Q52.8 48.0 52.95 47.85 53.1 47.7 53.3 47.7 53.5 47.7 53.65 47.85 L53.8 48.2 53.65 48.55 53.3 48.7 52.95 48.55 52.8 48.2 M55.95 47.85 Q56.1 47.7 56.3 47.7 L56.65 47.85 56.8 48.2 56.65 48.55 56.3 48.7 55.95 48.55 55.8 48.2 55.95 47.85 M59.65 47.85 L59.8 48.2 59.65 48.55 59.3 48.7 58.95 48.55 58.8 48.2 58.95 47.85 Q59.1 47.7 59.3 47.7 59.5 47.7 59.65 47.85 M74.65 31.75 L74.8 32.1 74.65 32.45 74.3 32.6 73.95 32.45 73.8 32.1 Q73.8 31.9 73.95 31.75 74.1 31.6 74.3 31.6 74.5 31.6 74.65 31.75 M71.8 32.1 L71.65 32.45 71.3 32.6 70.95 32.45 70.8 32.1 Q70.8 31.9 70.95 31.75 71.1 31.6 71.3 31.6 71.5 31.6 71.65 31.75 L71.8 32.1 M79.95 31.75 Q80.1 31.6 80.3 31.6 80.5 31.6 80.65 31.75 L80.8 32.1 80.65 32.45 80.3 32.6 79.95 32.45 79.8 32.1 79.95 31.75 M76.95 31.75 Q77.1 31.6 77.3 31.6 L77.65 31.75 77.8 32.1 77.65 32.45 77.3 32.6 76.95 32.45 76.8 32.1 76.95 31.75 M65.65 31.75 L65.8 32.1 65.65 32.45 65.3 32.6 64.95 32.45 64.8 32.1 64.95 31.75 Q65.1 31.6 65.3 31.6 L65.65 31.75 M61.95 31.75 Q62.1 31.6 62.3 31.6 62.5 31.6 62.65 31.75 L62.8 32.1 62.65 32.45 62.3 32.6 61.95 32.45 61.8 32.1 Q61.8 31.9 61.95 31.75 M68.65 31.75 L68.8 32.1 68.65 32.45 68.3 32.6 67.95 32.45 67.8 32.1 67.95 31.75 68.3 31.6 Q68.5 31.6 68.65 31.75 M61.95 47.85 Q62.1 47.7 62.3 47.7 62.5 47.7 62.65 47.85 L62.8 48.2 62.65 48.55 62.3 48.7 61.95 48.55 61.8 48.2 Q61.8 48.0 61.95 47.85 M65.65 47.85 L65.8 48.2 65.65 48.55 65.3 48.7 64.95 48.55 64.8 48.2 64.95 47.85 Q65.1 47.7 65.3 47.7 L65.65 47.85 M68.65 47.85 L68.8 48.2 68.65 48.55 68.3 48.7 67.95 48.55 67.8 48.2 67.95 47.85 68.3 47.7 Q68.5 47.7 68.65 47.85 M71.8 48.2 L71.65 48.55 71.3 48.7 70.95 48.55 70.8 48.2 Q70.8 48.0 70.95 47.85 71.1 47.7 71.3 47.7 71.5 47.7 71.65 47.85 L71.8 48.2 M74.65 47.85 L74.8 48.2 74.65 48.55 74.3 48.7 73.95 48.55 73.8 48.2 Q73.8 48.0 73.95 47.85 74.1 47.7 74.3 47.7 74.5 47.7 74.65 47.85 M76.95 47.85 Q77.1 47.7 77.3 47.7 L77.65 47.85 77.8 48.2 77.65 48.55 77.3 48.7 76.95 48.55 76.8 48.2 76.95 47.85 M79.95 47.85 Q80.1 47.7 80.3 47.7 80.5 47.7 80.65 47.85 L80.8 48.2 80.65 48.55 80.3 48.7 79.95 48.55 79.8 48.2 79.95 47.85 M29.3 15.1 Q29.5 15.1 29.65 15.25 L29.8 15.6 29.65 15.95 29.3 16.1 28.95 15.95 28.8 15.6 Q28.8 15.4 28.95 15.25 29.1 15.1 29.3 15.1 M26.3 15.1 Q26.5 15.1 26.65 15.25 L26.8 15.6 26.65 15.95 26.3 16.1 25.95 15.95 25.8 15.6 25.95 15.25 26.3 15.1 M23.65 15.25 L23.8 15.6 23.65 15.95 23.3 16.1 22.95 15.95 22.8 15.6 22.95 15.25 Q23.1 15.1 23.3 15.1 L23.65 15.25 M20.65 15.25 L20.8 15.6 20.65 15.95 20.3 16.1 19.95 15.95 19.8 15.6 Q19.8 15.4 19.95 15.25 20.1 15.1 20.3 15.1 20.5 15.1 20.65 15.25 M38.65 15.25 L38.8 15.6 38.65 15.95 38.3 16.1 37.95 15.95 37.8 15.6 37.95 15.25 Q38.1 15.1 38.3 15.1 38.5 15.1 38.65 15.25 M35.65 15.95 L35.3 16.1 34.95 15.95 34.8 15.6 34.95 15.25 Q35.1 15.1 35.3 15.1 L35.65 15.25 35.8 15.6 35.65 15.95 M32.65 15.25 L32.8 15.6 32.65 15.95 32.3 16.1 31.95 15.95 31.8 15.6 Q31.8 15.4 31.95 15.25 32.1 15.1 32.3 15.1 32.5 15.1 32.65 15.25 M8.3 15.1 Q8.5 15.1 8.65 15.25 L8.8 15.6 8.65 15.95 8.3 16.1 7.95 15.95 7.8 15.6 Q7.8 15.4 7.95 15.25 8.1 15.1 8.3 15.1 M5.65 15.25 L5.8 15.6 5.65 15.95 5.3 16.1 4.95 15.95 4.8 15.6 4.95 15.25 5.3 15.1 Q5.5 15.1 5.65 15.25 M2.3 15.1 L2.65 15.25 2.8 15.6 2.65 15.95 2.3 16.1 1.95 15.95 1.8 15.6 1.95 15.25 Q2.1 15.1 2.3 15.1 M17.65 15.25 L17.8 15.6 17.65 15.95 17.3 16.1 16.95 15.95 16.8 15.6 16.95 15.25 Q17.1 15.1 17.3 15.1 17.5 15.1 17.65 15.25 M14.65 15.25 L14.8 15.6 14.65 15.95 14.3 16.1 13.95 15.95 13.8 15.6 13.95 15.25 Q14.1 15.1 14.3 15.1 L14.65 15.25 M11.3 15.1 Q11.5 15.1 11.65 15.25 L11.8 15.6 11.65 15.95 11.3 16.1 10.95 15.95 10.8 15.6 Q10.8 15.4 10.95 15.25 11.1 15.1 11.3 15.1 M14.65 31.75 L14.8 32.1 14.65 32.45 14.3 32.6 13.95 32.45 13.8 32.1 13.95 31.75 Q14.1 31.6 14.3 31.6 L14.65 31.75 M10.95 31.75 Q11.1 31.6 11.3 31.6 11.5 31.6 11.65 31.75 L11.8 32.1 11.65 32.45 11.3 32.6 10.95 32.45 10.8 32.1 Q10.8 31.9 10.95 31.75 M19.95 31.75 Q20.1 31.6 20.3 31.6 20.5 31.6 20.65 31.75 L20.8 32.1 20.65 32.45 20.3 32.6 19.95 32.45 19.8 32.1 Q19.8 31.9 19.95 31.75 M16.95 31.75 Q17.1 31.6 17.3 31.6 17.5 31.6 17.65 31.75 L17.8 32.1 17.65 32.45 17.3 32.6 16.95 32.45 16.8 32.1 16.95 31.75 M4.8 32.1 L4.95 31.75 5.3 31.6 Q5.5 31.6 5.65 31.75 L5.8 32.1 5.65 32.45 5.3 32.6 4.95 32.45 4.8 32.1 M2.65 32.45 L2.3 32.6 1.95 32.45 1.8 32.1 1.95 31.75 Q2.1 31.6 2.3 31.6 L2.65 31.75 2.8 32.1 2.65 32.45 M7.95 31.75 Q8.1 31.6 8.3 31.6 8.5 31.6 8.65 31.75 L8.8 32.1 8.65 32.45 8.3 32.6 7.95 32.45 7.8 32.1 Q7.8 31.9 7.95 31.75 M1.95 47.85 Q2.1 47.7 2.3 47.7 L2.65 47.85 2.8 48.2 2.65 48.55 2.3 48.7 1.95 48.55 1.8 48.2 1.95 47.85 M4.8 48.2 L4.95 47.85 5.3 47.7 Q5.5 47.7 5.65 47.85 L5.8 48.2 5.65 48.55 5.3 48.7 4.95 48.55 4.8 48.2 M7.95 47.85 Q8.1 47.7 8.3 47.7 8.5 47.7 8.65 47.85 L8.8 48.2 8.65 48.55 8.3 48.7 7.95 48.55 7.8 48.2 Q7.8 48.0 7.95 47.85 M10.95 47.85 Q11.1 47.7 11.3 47.7 11.5 47.7 11.65 47.85 L11.8 48.2 11.65 48.55 11.3 48.7 10.95 48.55 10.8 48.2 Q10.8 48.0 10.95 47.85 M14.65 47.85 L14.8 48.2 14.65 48.55 14.3 48.7 13.95 48.55 13.8 48.2 13.95 47.85 Q14.1 47.7 14.3 47.7 L14.65 47.85 M16.95 47.85 Q17.1 47.7 17.3 47.7 17.5 47.7 17.65 47.85 L17.8 48.2 17.65 48.55 17.3 48.7 16.95 48.55 16.8 48.2 16.95 47.85 M19.8 48.2 Q19.8 48.0 19.95 47.85 20.1 47.7 20.3 47.7 20.5 47.7 20.65 47.85 L20.8 48.2 20.65 48.55 20.3 48.7 19.95 48.55 19.8 48.2 M35.3 31.6 L35.65 31.75 35.8 32.1 35.65 32.45 35.3 32.6 34.95 32.45 34.8 32.1 34.95 31.75 Q35.1 31.6 35.3 31.6 M31.95 31.75 Q32.1 31.6 32.3 31.6 32.5 31.6 32.65 31.75 L32.8 32.1 32.65 32.45 32.3 32.6 31.95 32.45 31.8 32.1 Q31.8 31.9 31.95 31.75 M38.8 32.1 L38.65 32.45 38.3 32.6 37.95 32.45 37.8 32.1 37.95 31.75 Q38.1 31.6 38.3 31.6 38.5 31.6 38.65 31.75 L38.8 32.1 M23.65 31.75 L23.8 32.1 23.65 32.45 23.3 32.6 22.95 32.45 22.8 32.1 22.95 31.75 Q23.1 31.6 23.3 31.6 L23.65 31.75 M28.95 31.75 Q29.1 31.6 29.3 31.6 29.5 31.6 29.65 31.75 L29.8 32.1 29.65 32.45 29.3 32.6 28.95 32.45 28.8 32.1 Q28.8 31.9 28.95 31.75 M25.95 31.75 L26.3 31.6 Q26.5 31.6 26.65 31.75 L26.8 32.1 26.65 32.45 26.3 32.6 25.95 32.45 25.8 32.1 25.95 31.75 M23.65 47.85 L23.8 48.2 23.65 48.55 23.3 48.7 22.95 48.55 22.8 48.2 22.95 47.85 Q23.1 47.7 23.3 47.7 L23.65 47.85 M25.95 47.85 L26.3 47.7 Q26.5 47.7 26.65 47.85 L26.8 48.2 26.65 48.55 26.3 48.7 25.95 48.55 25.8 48.2 25.95 47.85 M28.95 47.85 Q29.1 47.7 29.3 47.7 29.5 47.7 29.65 47.85 L29.8 48.2 29.65 48.55 29.3 48.7 28.95 48.55 28.8 48.2 Q28.8 48.0 28.95 47.85 M31.95 47.85 Q32.1 47.7 32.3 47.7 32.5 47.7 32.65 47.85 L32.8 48.2 32.65 48.55 32.3 48.7 31.95 48.55 31.8 48.2 Q31.8 48.0 31.95 47.85 M35.3 47.7 L35.65 47.85 35.8 48.2 35.65 48.55 35.3 48.7 34.95 48.55 34.8 48.2 34.95 47.85 Q35.1 47.7 35.3 47.7 M37.95 47.85 Q38.1 47.7 38.3 47.7 38.5 47.7 38.65 47.85 L38.8 48.2 38.65 48.55 38.3 48.7 37.95 48.55 37.8 48.2 37.95 47.85 M28.95 64.35 Q29.1 64.2 29.3 64.2 29.5 64.2 29.65 64.35 L29.8 64.7 29.65 65.05 29.3 65.2 28.95 65.05 28.8 64.7 Q28.8 64.5 28.95 64.35 M25.95 64.35 L26.3 64.2 Q26.5 64.2 26.65 64.35 L26.8 64.7 26.65 65.05 26.3 65.2 25.95 65.05 25.8 64.7 25.95 64.35 M23.65 64.35 L23.8 64.7 23.65 65.05 23.3 65.2 22.95 65.05 22.8 64.7 22.95 64.35 Q23.1 64.2 23.3 64.2 L23.65 64.35 M20.8 64.7 L20.65 65.05 20.3 65.2 19.95 65.05 19.8 64.7 Q19.8 64.5 19.95 64.35 20.1 64.2 20.3 64.2 20.5 64.2 20.65 64.35 L20.8 64.7 M38.8 64.7 L38.65 65.05 38.3 65.2 37.95 65.05 37.8 64.7 37.95 64.35 Q38.1 64.2 38.3 64.2 38.5 64.2 38.65 64.35 L38.8 64.7 M35.8 64.7 L35.65 65.05 35.3 65.2 34.95 65.05 34.8 64.7 34.95 64.35 Q35.1 64.2 35.3 64.2 L35.65 64.35 35.8 64.7 M31.95 64.35 Q32.1 64.2 32.3 64.2 32.5 64.2 32.65 64.35 L32.8 64.7 32.65 65.05 32.3 65.2 31.95 65.05 31.8 64.7 Q31.8 64.5 31.95 64.35 M7.95 64.35 Q8.1 64.2 8.3 64.2 8.5 64.2 8.65 64.35 L8.8 64.7 8.65 65.05 8.3 65.2 7.95 65.05 7.8 64.7 Q7.8 64.5 7.95 64.35 M5.8 64.7 L5.65 65.05 5.3 65.2 4.95 65.05 4.8 64.7 4.95 64.35 5.3 64.2 Q5.5 64.2 5.65 64.35 L5.8 64.7 M2.8 64.7 L2.65 65.05 2.3 65.2 1.95 65.05 1.8 64.7 1.95 64.35 Q2.1 64.2 2.3 64.2 L2.65 64.35 2.8 64.7 M16.95 64.35 Q17.1 64.2 17.3 64.2 17.5 64.2 17.65 64.35 L17.8 64.7 17.65 65.05 17.3 65.2 16.95 65.05 16.8 64.7 16.95 64.35 M14.65 64.35 L14.8 64.7 14.65 65.05 14.3 65.2 13.95 65.05 13.8 64.7 13.95 64.35 Q14.1 64.2 14.3 64.2 L14.65 64.35 M10.95 64.35 Q11.1 64.2 11.3 64.2 11.5 64.2 11.65 64.35 L11.8 64.7 11.65 65.05 11.3 65.2 10.95 65.05 10.8 64.7 Q10.8 64.5 10.95 64.35 M68.65 64.35 L68.8 64.7 68.65 65.05 68.3 65.2 67.95 65.05 67.8 64.7 67.95 64.35 68.3 64.2 Q68.5 64.2 68.65 64.35 M65.65 64.35 L65.8 64.7 65.65 65.05 65.3 65.2 64.95 65.05 64.8 64.7 64.95 64.35 Q65.1 64.2 65.3 64.2 L65.65 64.35 M61.95 64.35 Q62.1 64.2 62.3 64.2 62.5 64.2 62.65 64.35 L62.8 64.7 62.65 65.05 62.3 65.2 61.95 65.05 61.8 64.7 Q61.8 64.5 61.95 64.35 M79.95 64.35 Q80.1 64.2 80.3 64.2 80.5 64.2 80.65 64.35 L80.8 64.7 80.65 65.05 80.3 65.2 79.95 65.05 79.8 64.7 79.95 64.35 M76.95 64.35 Q77.1 64.2 77.3 64.2 L77.65 64.35 77.8 64.7 77.65 65.05 77.3 65.2 76.95 65.05 76.8 64.7 76.95 64.35 M74.65 64.35 L74.8 64.7 74.65 65.05 74.3 65.2 73.95 65.05 73.8 64.7 Q73.8 64.5 73.95 64.35 74.1 64.2 74.3 64.2 74.5 64.2 74.65 64.35 M71.8 64.7 L71.65 65.05 71.3 65.2 70.95 65.05 70.8 64.7 Q70.8 64.5 70.95 64.35 71.1 64.2 71.3 64.2 71.5 64.2 71.65 64.35 L71.8 64.7 M49.95 64.35 Q50.1 64.2 50.3 64.2 50.5 64.2 50.65 64.35 L50.8 64.7 50.65 65.05 50.3 65.2 49.95 65.05 49.8 64.7 Q49.8 64.5 49.95 64.35 M46.95 64.35 L47.3 64.2 Q47.5 64.2 47.65 64.35 L47.8 64.7 47.65 65.05 47.3 65.2 46.95 65.05 46.8 64.7 46.95 64.35 M44.65 64.35 L44.8 64.7 44.65 65.05 44.3 65.2 43.95 65.05 43.8 64.7 43.95 64.35 Q44.1 64.2 44.3 64.2 L44.65 64.35 M40.95 64.35 Q41.1 64.2 41.3 64.2 41.5 64.2 41.65 64.35 L41.8 64.7 41.65 65.05 41.3 65.2 40.95 65.05 40.8 64.7 Q40.8 64.5 40.95 64.35 M59.65 64.35 L59.8 64.7 59.65 65.05 59.3 65.2 58.95 65.05 58.8 64.7 58.95 64.35 Q59.1 64.2 59.3 64.2 59.5 64.2 59.65 64.35 M55.95 64.35 Q56.1 64.2 56.3 64.2 L56.65 64.35 56.8 64.7 56.65 65.05 56.3 65.2 55.95 65.05 55.8 64.7 55.95 64.35 M53.65 64.35 L53.8 64.7 53.65 65.05 53.3 65.2 52.95 65.05 52.8 64.7 Q52.8 64.5 52.95 64.35 53.1 64.2 53.3 64.2 53.5 64.2 53.65 64.35 M-108.35 -66.75 L-108.2 -66.4 -108.35 -66.05 Q-108.5 -65.9 -108.7 -65.9 L-109.05 -66.05 -109.2 -66.4 -109.05 -66.75 -108.7 -66.9 -108.35 -66.75 M-111.2 -66.4 L-111.35 -66.05 -111.7 -65.9 -112.05 -66.05 -112.2 -66.4 -112.05 -66.75 -111.7 -66.9 -111.35 -66.75 -111.2 -66.4 M-103.05 -66.75 L-102.7 -66.9 -102.35 -66.75 -102.2 -66.4 -102.35 -66.05 -102.7 -65.9 -103.05 -66.05 -103.2 -66.4 -103.05 -66.75 M-106.05 -66.75 L-105.7 -66.9 -105.35 -66.75 -105.2 -66.4 -105.35 -66.05 Q-105.5 -65.9 -105.7 -65.9 L-106.05 -66.05 -106.2 -66.4 -106.05 -66.75 M-118.05 -66.75 L-117.7 -66.9 -117.35 -66.75 -117.2 -66.4 -117.35 -66.05 Q-117.5 -65.9 -117.7 -65.9 L-118.05 -66.05 -118.2 -66.4 -118.05 -66.75 M-115.05 -66.75 L-114.7 -66.9 -114.35 -66.75 -114.2 -66.4 -114.35 -66.05 -114.7 -65.9 -115.05 -66.05 -115.2 -66.4 -115.05 -66.75 M-118.05 -50.75 L-117.7 -50.9 -117.35 -50.75 -117.2 -50.4 -117.35 -50.05 Q-117.5 -49.9 -117.7 -49.9 L-118.05 -50.05 -118.2 -50.4 -118.05 -50.75 M-115.05 -50.75 L-114.7 -50.9 -114.35 -50.75 -114.2 -50.4 -114.35 -50.05 -114.7 -49.9 -115.05 -50.05 -115.2 -50.4 -115.05 -50.75 M-112.05 -50.75 L-111.7 -50.9 -111.35 -50.75 -111.2 -50.4 -111.35 -50.05 -111.7 -49.9 -112.05 -50.05 -112.2 -50.4 -112.05 -50.75 M-109.2 -50.4 L-109.05 -50.75 -108.7 -50.9 -108.35 -50.75 -108.2 -50.4 -108.35 -50.05 Q-108.5 -49.9 -108.7 -49.9 L-109.05 -50.05 -109.2 -50.4 M-106.05 -50.75 L-105.7 -50.9 -105.35 -50.75 -105.2 -50.4 -105.35 -50.05 Q-105.5 -49.9 -105.7 -49.9 L-106.05 -50.05 -106.2 -50.4 -106.05 -50.75 M-102.35 -50.75 L-102.2 -50.4 -102.35 -50.05 -102.7 -49.9 -103.05 -50.05 -103.2 -50.4 -103.05 -50.75 -102.7 -50.9 -102.35 -50.75 M-87.35 -66.75 L-87.2 -66.4 -87.35 -66.05 Q-87.5 -65.9 -87.7 -65.9 L-88.05 -66.05 -88.2 -66.4 -88.05 -66.75 -87.7 -66.9 -87.35 -66.75 M-90.2 -66.4 L-90.35 -66.05 -90.7 -65.9 -91.05 -66.05 -91.2 -66.4 -91.05 -66.75 -90.7 -66.9 -90.35 -66.75 -90.2 -66.4 M-82.05 -66.75 L-81.7 -66.9 -81.35 -66.75 -81.2 -66.4 -81.35 -66.05 -81.7 -65.9 -82.05 -66.05 -82.2 -66.4 -82.05 -66.75 M-85.05 -66.75 L-84.7 -66.9 -84.35 -66.75 -84.2 -66.4 -84.35 -66.05 Q-84.5 -65.9 -84.7 -65.9 L-85.05 -66.05 -85.2 -66.4 -85.05 -66.75 M-96.35 -66.75 L-96.2 -66.4 -96.35 -66.05 Q-96.5 -65.9 -96.7 -65.9 L-97.05 -66.05 -97.2 -66.4 -97.05 -66.75 -96.7 -66.9 -96.35 -66.75 M-100.05 -66.75 L-99.7 -66.9 -99.35 -66.75 -99.2 -66.4 -99.35 -66.05 Q-99.5 -65.9 -99.7 -65.9 L-100.05 -66.05 -100.2 -66.4 -100.05 -66.75 M-93.35 -66.75 L-93.2 -66.4 -93.35 -66.05 -93.7 -65.9 -94.05 -66.05 -94.2 -66.4 -94.05 -66.75 -93.7 -66.9 -93.35 -66.75 M-100.05 -50.75 L-99.7 -50.9 -99.35 -50.75 -99.2 -50.4 -99.35 -50.05 Q-99.5 -49.9 -99.7 -49.9 L-100.05 -50.05 -100.2 -50.4 -100.05 -50.75 M-96.35 -50.75 L-96.2 -50.4 -96.35 -50.05 Q-96.5 -49.9 -96.7 -49.9 L-97.05 -50.05 -97.2 -50.4 -97.05 -50.75 -96.7 -50.9 -96.35 -50.75 M-93.35 -50.75 L-93.2 -50.4 -93.35 -50.05 -93.7 -49.9 -94.05 -50.05 -94.2 -50.4 -94.05 -50.75 -93.7 -50.9 -93.35 -50.75 M-90.2 -50.4 L-90.35 -50.05 -90.7 -49.9 -91.05 -50.05 -91.2 -50.4 -91.05 -50.75 -90.7 -50.9 -90.35 -50.75 -90.2 -50.4 M-87.35 -50.75 L-87.2 -50.4 -87.35 -50.05 Q-87.5 -49.9 -87.7 -49.9 L-88.05 -50.05 -88.2 -50.4 -88.05 -50.75 -87.7 -50.9 -87.35 -50.75 M-85.05 -50.75 L-84.7 -50.9 -84.35 -50.75 -84.2 -50.4 -84.35 -50.05 Q-84.5 -49.9 -84.7 -49.9 L-85.05 -50.05 -85.2 -50.4 -85.05 -50.75 M-82.05 -50.75 L-81.7 -50.9 -81.35 -50.75 -81.2 -50.4 -81.35 -50.05 -81.7 -49.9 -82.05 -50.05 -82.2 -50.4 -82.05 -50.75 M-93.35 -34.25 L-93.2 -33.9 -93.35 -33.55 -93.7 -33.4 -94.05 -33.55 -94.2 -33.9 -94.05 -34.25 -93.7 -34.4 -93.35 -34.25 M-96.35 -34.25 L-96.2 -33.9 -96.35 -33.55 Q-96.5 -33.4 -96.7 -33.4 L-97.05 -33.55 -97.2 -33.9 -97.05 -34.25 -96.7 -34.4 -96.35 -34.25 M-99.7 -34.4 L-99.35 -34.25 -99.2 -33.9 -99.35 -33.55 Q-99.5 -33.4 -99.7 -33.4 L-100.05 -33.55 -100.2 -33.9 -100.05 -34.25 -99.7 -34.4 M-81.35 -34.25 L-81.2 -33.9 -81.35 -33.55 -81.7 -33.4 -82.05 -33.55 -82.2 -33.9 -82.05 -34.25 -81.7 -34.4 -81.35 -34.25 M-84.7 -34.4 L-84.35 -34.25 -84.2 -33.9 -84.35 -33.55 Q-84.5 -33.4 -84.7 -33.4 L-85.05 -33.55 -85.2 -33.9 -85.05 -34.25 -84.7 -34.4 M-87.35 -34.25 L-87.2 -33.9 -87.35 -33.55 Q-87.5 -33.4 -87.7 -33.4 L-88.05 -33.55 -88.2 -33.9 -88.05 -34.25 -87.7 -34.4 -87.35 -34.25 M-90.7 -34.4 L-90.35 -34.25 -90.2 -33.9 -90.35 -33.55 -90.7 -33.4 -91.05 -33.55 -91.2 -33.9 -91.05 -34.25 -90.7 -34.4 M-111.7 -34.4 L-111.35 -34.25 -111.2 -33.9 -111.35 -33.55 -111.7 -33.4 -112.05 -33.55 -112.2 -33.9 -112.05 -34.25 -111.7 -34.4 M-114.7 -34.4 L-114.35 -34.25 -114.2 -33.9 -114.35 -33.55 -114.7 -33.4 -115.05 -33.55 -115.2 -33.9 -115.05 -34.25 -114.7 -34.4 M-118.05 -34.25 L-117.7 -34.4 -117.35 -34.25 -117.2 -33.9 -117.35 -33.55 Q-117.5 -33.4 -117.7 -33.4 L-118.05 -33.55 -118.2 -33.9 -118.05 -34.25 M-102.35 -34.25 L-102.2 -33.9 -102.35 -33.55 -102.7 -33.4 -103.05 -33.55 -103.2 -33.9 -103.05 -34.25 -102.7 -34.4 -102.35 -34.25 M-105.7 -34.4 L-105.35 -34.25 -105.2 -33.9 -105.35 -33.55 Q-105.5 -33.4 -105.7 -33.4 L-106.05 -33.55 -106.2 -33.9 -106.05 -34.25 -105.7 -34.4 M-108.35 -34.25 L-108.2 -33.9 -108.35 -33.55 Q-108.5 -33.4 -108.7 -33.4 L-109.05 -33.55 -109.2 -33.9 -109.05 -34.25 -108.7 -34.4 -108.35 -34.25 M-108.35 -17.75 L-108.2 -17.4 -108.35 -17.05 Q-108.5 -16.9 -108.7 -16.9 L-109.05 -17.05 -109.2 -17.4 -109.05 -17.75 -108.7 -17.9 -108.35 -17.75 M-111.2 -17.4 L-111.35 -17.05 -111.7 -16.9 -112.05 -17.05 -112.2 -17.4 -112.05 -17.75 -111.7 -17.9 -111.35 -17.75 -111.2 -17.4 M-103.05 -17.75 L-102.7 -17.9 -102.35 -17.75 -102.2 -17.4 -102.35 -17.05 -102.7 -16.9 -103.05 -17.05 -103.2 -17.4 -103.05 -17.75 M-106.05 -17.75 L-105.7 -17.9 -105.35 -17.75 -105.2 -17.4 -105.35 -17.05 Q-105.5 -16.9 -105.7 -16.9 L-106.05 -17.05 -106.2 -17.4 -106.05 -17.75 M-118.05 -17.75 L-117.7 -17.9 -117.35 -17.75 -117.2 -17.4 -117.35 -17.05 Q-117.5 -16.9 -117.7 -16.9 L-118.05 -17.05 -118.2 -17.4 -118.05 -17.75 M-115.05 -17.75 L-114.7 -17.9 -114.35 -17.75 -114.2 -17.4 -114.35 -17.05 -114.7 -16.9 -115.05 -17.05 -115.2 -17.4 -115.05 -17.75 M-118.05 -0.75 L-117.7 -0.9 -117.35 -0.75 -117.2 -0.4 -117.35 -0.05 -117.7 0.1 -118.05 -0.05 -118.2 -0.4 -118.05 -0.75 M-115.05 -0.75 L-114.7 -0.9 -114.35 -0.75 -114.2 -0.4 -114.35 -0.05 -114.7 0.1 -115.05 -0.05 -115.2 -0.4 -115.05 -0.75 M-112.05 -0.75 L-111.7 -0.9 -111.35 -0.75 -111.2 -0.4 -111.35 -0.05 -111.7 0.1 -112.05 -0.05 -112.2 -0.4 -112.05 -0.75 M-109.05 -0.75 L-108.7 -0.9 -108.35 -0.75 -108.2 -0.4 -108.35 -0.05 -108.7 0.1 -109.05 -0.05 -109.2 -0.4 -109.05 -0.75 M-106.05 -0.75 L-105.7 -0.9 -105.35 -0.75 -105.2 -0.4 -105.35 -0.05 -105.7 0.1 -106.05 -0.05 -106.2 -0.4 -106.05 -0.75 M-102.35 -0.75 L-102.2 -0.4 -102.35 -0.05 -102.7 0.1 -103.05 -0.05 -103.2 -0.4 -103.05 -0.75 -102.7 -0.9 -102.35 -0.75 M-87.35 -17.75 L-87.2 -17.4 -87.35 -17.05 Q-87.5 -16.9 -87.7 -16.9 L-88.05 -17.05 -88.2 -17.4 -88.05 -17.75 -87.7 -17.9 -87.35 -17.75 M-90.2 -17.4 L-90.35 -17.05 -90.7 -16.9 -91.05 -17.05 -91.2 -17.4 -91.05 -17.75 -90.7 -17.9 -90.35 -17.75 -90.2 -17.4 M-82.05 -17.75 L-81.7 -17.9 -81.35 -17.75 -81.2 -17.4 -81.35 -17.05 -81.7 -16.9 -82.05 -17.05 -82.2 -17.4 -82.05 -17.75 M-85.05 -17.75 L-84.7 -17.9 -84.35 -17.75 -84.2 -17.4 -84.35 -17.05 Q-84.5 -16.9 -84.7 -16.9 L-85.05 -17.05 -85.2 -17.4 -85.05 -17.75 M-96.35 -17.75 L-96.2 -17.4 -96.35 -17.05 Q-96.5 -16.9 -96.7 -16.9 L-97.05 -17.05 -97.2 -17.4 -97.05 -17.75 -96.7 -17.9 -96.35 -17.75 M-100.05 -17.75 L-99.7 -17.9 -99.35 -17.75 -99.2 -17.4 -99.35 -17.05 Q-99.5 -16.9 -99.7 -16.9 L-100.05 -17.05 -100.2 -17.4 -100.05 -17.75 M-93.35 -17.75 L-93.2 -17.4 -93.35 -17.05 -93.7 -16.9 -94.05 -17.05 -94.2 -17.4 -94.05 -17.75 -93.7 -17.9 -93.35 -17.75 M-100.05 -0.75 L-99.7 -0.9 -99.35 -0.75 -99.2 -0.4 -99.35 -0.05 -99.7 0.1 -100.05 -0.05 -100.2 -0.4 -100.05 -0.75 M-96.35 -0.05 L-96.7 0.1 -97.05 -0.05 -97.2 -0.4 -97.05 -0.75 -96.7 -0.9 -96.35 -0.75 -96.2 -0.4 -96.35 -0.05 M-93.35 -0.75 L-93.2 -0.4 -93.35 -0.05 -93.7 0.1 -94.05 -0.05 -94.2 -0.4 -94.05 -0.75 -93.7 -0.9 -93.35 -0.75 M-90.2 -0.4 L-90.35 -0.05 -90.7 0.1 -91.05 -0.05 -91.2 -0.4 -91.05 -0.75 -90.7 -0.9 -90.35 -0.75 -90.2 -0.4 M-87.35 -0.75 L-87.2 -0.4 -87.35 -0.05 -87.7 0.1 -88.05 -0.05 -88.2 -0.4 -88.05 -0.75 -87.7 -0.9 -87.35 -0.75 M-85.05 -0.75 L-84.7 -0.9 -84.35 -0.75 -84.2 -0.4 -84.35 -0.05 -84.7 0.1 -85.05 -0.05 -85.2 -0.4 -85.05 -0.75 M-82.05 -0.75 L-81.7 -0.9 -81.35 -0.75 -81.2 -0.4 -81.35 -0.05 -81.7 0.1 -82.05 -0.05 -82.2 -0.4 -82.05 -0.75 M-27.35 -66.75 L-27.2 -66.4 -27.35 -66.05 -27.7 -65.9 -28.05 -66.05 -28.2 -66.4 -28.05 -66.75 -27.7 -66.9 -27.35 -66.75 M-30.2 -66.4 L-30.35 -66.05 -30.7 -65.9 -31.05 -66.05 -31.2 -66.4 -31.05 -66.75 -30.7 -66.9 -30.35 -66.75 -30.2 -66.4 M-22.05 -66.75 L-21.7 -66.9 -21.35 -66.75 -21.2 -66.4 -21.35 -66.05 Q-21.5 -65.9 -21.7 -65.9 L-22.05 -66.05 -22.2 -66.4 -22.05 -66.75 M-25.05 -66.75 L-24.7 -66.9 -24.35 -66.75 -24.2 -66.4 -24.35 -66.05 Q-24.5 -65.9 -24.7 -65.9 L-25.05 -66.05 -25.2 -66.4 -25.05 -66.75 M-36.35 -66.75 L-36.2 -66.4 -36.35 -66.05 Q-36.5 -65.9 -36.7 -65.9 L-37.05 -66.05 -37.2 -66.4 -37.05 -66.75 -36.7 -66.9 -36.35 -66.75 M-40.05 -66.75 L-39.7 -66.9 -39.35 -66.75 -39.2 -66.4 -39.35 -66.05 -39.7 -65.9 -40.05 -66.05 -40.2 -66.4 -40.05 -66.75 M-34.05 -66.75 L-33.7 -66.9 -33.35 -66.75 -33.2 -66.4 -33.35 -66.05 Q-33.5 -65.9 -33.7 -65.9 L-34.05 -66.05 -34.2 -66.4 -34.05 -66.75 M-40.05 -50.75 L-39.7 -50.9 -39.35 -50.75 -39.2 -50.4 -39.35 -50.05 -39.7 -49.9 -40.05 -50.05 -40.2 -50.4 -40.05 -50.75 M-36.35 -50.75 L-36.2 -50.4 -36.35 -50.05 Q-36.5 -49.9 -36.7 -49.9 L-37.05 -50.05 -37.2 -50.4 -37.05 -50.75 -36.7 -50.9 -36.35 -50.75 M-34.05 -50.75 L-33.7 -50.9 -33.35 -50.75 -33.2 -50.4 -33.35 -50.05 Q-33.5 -49.9 -33.7 -49.9 L-34.05 -50.05 -34.2 -50.4 -34.05 -50.75 M-31.05 -50.75 L-30.7 -50.9 -30.35 -50.75 -30.2 -50.4 -30.35 -50.05 -30.7 -49.9 -31.05 -50.05 -31.2 -50.4 -31.05 -50.75 M-28.2 -50.4 L-28.05 -50.75 -27.7 -50.9 -27.35 -50.75 -27.2 -50.4 -27.35 -50.05 -27.7 -49.9 -28.05 -50.05 -28.2 -50.4 M-25.05 -50.75 L-24.7 -50.9 -24.35 -50.75 -24.2 -50.4 -24.35 -50.05 Q-24.5 -49.9 -24.7 -49.9 L-25.05 -50.05 -25.2 -50.4 -25.05 -50.75 M-21.35 -50.75 L-21.2 -50.4 -21.35 -50.05 Q-21.5 -49.9 -21.7 -49.9 L-22.05 -50.05 -22.2 -50.4 -22.05 -50.75 -21.7 -50.9 -21.35 -50.75 M-6.35 -66.75 L-6.2 -66.4 -6.35 -66.05 -6.7 -65.9 -7.05 -66.05 -7.2 -66.4 -7.05 -66.75 -6.7 -66.9 -6.35 -66.75 M-9.2 -66.4 L-9.35 -66.05 -9.7 -65.9 -10.05 -66.05 -10.2 -66.4 -10.05 -66.75 -9.7 -66.9 -9.35 -66.75 -9.2 -66.4 M-1.05 -66.75 L-0.7 -66.9 -0.35 -66.75 -0.2 -66.4 -0.35 -66.05 Q-0.5 -65.9 -0.7 -65.9 L-1.05 -66.05 -1.2 -66.4 -1.05 -66.75 M-4.05 -66.75 L-3.7 -66.9 -3.35 -66.75 -3.2 -66.4 -3.35 -66.05 Q-3.5 -65.9 -3.7 -65.9 L-4.05 -66.05 -4.2 -66.4 -4.05 -66.75 M-15.35 -66.75 L-15.2 -66.4 -15.35 -66.05 Q-15.5 -65.9 -15.7 -65.9 L-16.05 -66.05 -16.2 -66.4 -16.05 -66.75 -15.7 -66.9 -15.35 -66.75 M-19.05 -66.75 L-18.7 -66.9 -18.35 -66.75 -18.2 -66.4 -18.35 -66.05 -18.7 -65.9 -19.05 -66.05 -19.2 -66.4 -19.05 -66.75 M-12.35 -66.75 L-12.2 -66.4 -12.35 -66.05 Q-12.5 -65.9 -12.7 -65.9 L-13.05 -66.05 -13.2 -66.4 -13.05 -66.75 -12.7 -66.9 -12.35 -66.75 M-19.05 -50.75 L-18.7 -50.9 -18.35 -50.75 -18.2 -50.4 -18.35 -50.05 -18.7 -49.9 -19.05 -50.05 -19.2 -50.4 -19.05 -50.75 M-15.35 -50.75 L-15.2 -50.4 -15.35 -50.05 Q-15.5 -49.9 -15.7 -49.9 L-16.05 -50.05 -16.2 -50.4 -16.05 -50.75 -15.7 -50.9 -15.35 -50.75 M-12.35 -50.75 L-12.2 -50.4 -12.35 -50.05 Q-12.5 -49.9 -12.7 -49.9 L-13.05 -50.05 -13.2 -50.4 -13.05 -50.75 -12.7 -50.9 -12.35 -50.75 M-9.2 -50.4 L-9.35 -50.05 -9.7 -49.9 -10.05 -50.05 -10.2 -50.4 -10.05 -50.75 -9.7 -50.9 -9.35 -50.75 -9.2 -50.4 M-6.35 -50.75 L-6.2 -50.4 -6.35 -50.05 -6.7 -49.9 -7.05 -50.05 -7.2 -50.4 -7.05 -50.75 -6.7 -50.9 -6.35 -50.75 M-4.05 -50.75 L-3.7 -50.9 -3.35 -50.75 -3.2 -50.4 -3.35 -50.05 Q-3.5 -49.9 -3.7 -49.9 L-4.05 -50.05 -4.2 -50.4 -4.05 -50.75 M-1.05 -50.75 L-0.7 -50.9 -0.35 -50.75 -0.2 -50.4 -0.35 -50.05 Q-0.5 -49.9 -0.7 -49.9 L-1.05 -50.05 -1.2 -50.4 -1.05 -50.75 M-66.35 -66.75 L-66.2 -66.4 -66.35 -66.05 Q-66.5 -65.9 -66.7 -65.9 L-67.05 -66.05 -67.2 -66.4 -67.05 -66.75 -66.7 -66.9 -66.35 -66.75 M-70.05 -66.75 L-69.7 -66.9 -69.35 -66.75 -69.2 -66.4 -69.35 -66.05 -69.7 -65.9 -70.05 -66.05 -70.2 -66.4 -70.05 -66.75 M-61.05 -66.75 L-60.7 -66.9 -60.35 -66.75 -60.2 -66.4 -60.35 -66.05 -60.7 -65.9 -61.05 -66.05 -61.2 -66.4 -61.05 -66.75 M-64.05 -66.75 L-63.7 -66.9 -63.35 -66.75 -63.2 -66.4 -63.35 -66.05 Q-63.5 -65.9 -63.7 -65.9 L-64.05 -66.05 -64.2 -66.4 -64.05 -66.75 M-76.2 -66.4 L-76.05 -66.75 -75.7 -66.9 -75.35 -66.75 -75.2 -66.4 -75.35 -66.05 Q-75.5 -65.9 -75.7 -65.9 L-76.05 -66.05 -76.2 -66.4 M-78.35 -66.05 Q-78.5 -65.9 -78.7 -65.9 L-79.05 -66.05 -79.2 -66.4 -79.05 -66.75 -78.7 -66.9 -78.35 -66.75 -78.2 -66.4 -78.35 -66.05 M-73.05 -66.75 L-72.7 -66.9 -72.35 -66.75 -72.2 -66.4 -72.35 -66.05 -72.7 -65.9 -73.05 -66.05 -73.2 -66.4 -73.05 -66.75 M-79.05 -50.75 L-78.7 -50.9 -78.35 -50.75 -78.2 -50.4 -78.35 -50.05 Q-78.5 -49.9 -78.7 -49.9 L-79.05 -50.05 -79.2 -50.4 -79.05 -50.75 M-76.2 -50.4 L-76.05 -50.75 -75.7 -50.9 -75.35 -50.75 -75.2 -50.4 -75.35 -50.05 Q-75.5 -49.9 -75.7 -49.9 L-76.05 -50.05 -76.2 -50.4 M-73.05 -50.75 L-72.7 -50.9 -72.35 -50.75 -72.2 -50.4 -72.35 -50.05 -72.7 -49.9 -73.05 -50.05 -73.2 -50.4 -73.05 -50.75 M-70.05 -50.75 L-69.7 -50.9 -69.35 -50.75 -69.2 -50.4 -69.35 -50.05 -69.7 -49.9 -70.05 -50.05 -70.2 -50.4 -70.05 -50.75 M-66.35 -50.75 L-66.2 -50.4 -66.35 -50.05 Q-66.5 -49.9 -66.7 -49.9 L-67.05 -50.05 -67.2 -50.4 -67.05 -50.75 -66.7 -50.9 -66.35 -50.75 M-64.05 -50.75 L-63.7 -50.9 -63.35 -50.75 -63.2 -50.4 -63.35 -50.05 Q-63.5 -49.9 -63.7 -49.9 L-64.05 -50.05 -64.2 -50.4 -64.05 -50.75 M-61.2 -50.4 L-61.05 -50.75 -60.7 -50.9 -60.35 -50.75 -60.2 -50.4 -60.35 -50.05 -60.7 -49.9 -61.05 -50.05 -61.2 -50.4 M-45.7 -66.9 L-45.35 -66.75 -45.2 -66.4 -45.35 -66.05 Q-45.5 -65.9 -45.7 -65.9 L-46.05 -66.05 -46.2 -66.4 -46.05 -66.75 -45.7 -66.9 M-49.05 -66.75 L-48.7 -66.9 -48.35 -66.75 -48.2 -66.4 -48.35 -66.05 -48.7 -65.9 -49.05 -66.05 -49.2 -66.4 -49.05 -66.75 M-42.2 -66.4 L-42.35 -66.05 Q-42.5 -65.9 -42.7 -65.9 L-43.05 -66.05 -43.2 -66.4 -43.05 -66.75 -42.7 -66.9 -42.35 -66.75 -42.2 -66.4 M-57.35 -66.75 L-57.2 -66.4 -57.35 -66.05 Q-57.5 -65.9 -57.7 -65.9 L-58.05 -66.05 -58.2 -66.4 -58.05 -66.75 -57.7 -66.9 -57.35 -66.75 M-52.05 -66.75 L-51.7 -66.9 -51.35 -66.75 -51.2 -66.4 -51.35 -66.05 -51.7 -65.9 -52.05 -66.05 -52.2 -66.4 -52.05 -66.75 M-55.05 -66.75 L-54.7 -66.9 -54.35 -66.75 -54.2 -66.4 -54.35 -66.05 Q-54.5 -65.9 -54.7 -65.9 L-55.05 -66.05 -55.2 -66.4 -55.05 -66.75 M-57.35 -50.75 L-57.2 -50.4 -57.35 -50.05 Q-57.5 -49.9 -57.7 -49.9 L-58.05 -50.05 -58.2 -50.4 -58.05 -50.75 -57.7 -50.9 -57.35 -50.75 M-55.05 -50.75 L-54.7 -50.9 -54.35 -50.75 -54.2 -50.4 -54.35 -50.05 Q-54.5 -49.9 -54.7 -49.9 L-55.05 -50.05 -55.2 -50.4 -55.05 -50.75 M-52.05 -50.75 L-51.7 -50.9 -51.35 -50.75 -51.2 -50.4 -51.35 -50.05 -51.7 -49.9 -52.05 -50.05 -52.2 -50.4 -52.05 -50.75 M-49.05 -50.75 L-48.7 -50.9 -48.35 -50.75 -48.2 -50.4 -48.35 -50.05 -48.7 -49.9 -49.05 -50.05 -49.2 -50.4 -49.05 -50.75 M-45.7 -50.9 L-45.35 -50.75 -45.2 -50.4 -45.35 -50.05 Q-45.5 -49.9 -45.7 -49.9 L-46.05 -50.05 -46.2 -50.4 -46.05 -50.75 -45.7 -50.9 M-43.05 -50.75 L-42.7 -50.9 -42.35 -50.75 -42.2 -50.4 -42.35 -50.05 Q-42.5 -49.9 -42.7 -49.9 L-43.05 -50.05 -43.2 -50.4 -43.05 -50.75 M-51.7 -34.4 L-51.35 -34.25 -51.2 -33.9 -51.35 -33.55 -51.7 -33.4 -52.05 -33.55 -52.2 -33.9 -52.05 -34.25 -51.7 -34.4 M-54.7 -34.4 L-54.35 -34.25 -54.2 -33.9 -54.35 -33.55 Q-54.5 -33.4 -54.7 -33.4 L-55.05 -33.55 -55.2 -33.9 -55.05 -34.25 -54.7 -34.4 M-57.35 -34.25 L-57.2 -33.9 -57.35 -33.55 Q-57.5 -33.4 -57.7 -33.4 L-58.05 -33.55 -58.2 -33.9 -58.05 -34.25 -57.7 -34.4 -57.35 -34.25 M-60.35 -34.25 L-60.2 -33.9 -60.35 -33.55 -60.7 -33.4 -61.05 -33.55 -61.2 -33.9 -61.05 -34.25 -60.7 -34.4 -60.35 -34.25 M-42.35 -34.25 L-42.2 -33.9 -42.35 -33.55 Q-42.5 -33.4 -42.7 -33.4 L-43.05 -33.55 -43.2 -33.9 -43.05 -34.25 -42.7 -34.4 -42.35 -34.25 M-45.35 -33.55 Q-45.5 -33.4 -45.7 -33.4 L-46.05 -33.55 -46.2 -33.9 -46.05 -34.25 -45.7 -34.4 -45.35 -34.25 -45.2 -33.9 -45.35 -33.55 M-48.35 -34.25 L-48.2 -33.9 -48.35 -33.55 -48.7 -33.4 -49.05 -33.55 -49.2 -33.9 -49.05 -34.25 -48.7 -34.4 -48.35 -34.25 M-72.7 -34.4 L-72.35 -34.25 -72.2 -33.9 -72.35 -33.55 -72.7 -33.4 -73.05 -33.55 -73.2 -33.9 -73.05 -34.25 -72.7 -34.4 M-75.35 -34.25 L-75.2 -33.9 -75.35 -33.55 Q-75.5 -33.4 -75.7 -33.4 L-76.05 -33.55 -76.2 -33.9 -76.05 -34.25 -75.7 -34.4 -75.35 -34.25 M-78.7 -34.4 L-78.35 -34.25 -78.2 -33.9 -78.35 -33.55 Q-78.5 -33.4 -78.7 -33.4 L-79.05 -33.55 -79.2 -33.9 -79.05 -34.25 -78.7 -34.4 M-63.35 -34.25 L-63.2 -33.9 -63.35 -33.55 Q-63.5 -33.4 -63.7 -33.4 L-64.05 -33.55 -64.2 -33.9 -64.05 -34.25 -63.7 -34.4 -63.35 -34.25 M-66.35 -34.25 L-66.2 -33.9 -66.35 -33.55 Q-66.5 -33.4 -66.7 -33.4 L-67.05 -33.55 -67.2 -33.9 -67.05 -34.25 -66.7 -34.4 -66.35 -34.25 M-69.7 -34.4 L-69.35 -34.25 -69.2 -33.9 -69.35 -33.55 -69.7 -33.4 -70.05 -33.55 -70.2 -33.9 -70.05 -34.25 -69.7 -34.4 M-66.35 -17.75 L-66.2 -17.4 -66.35 -17.05 Q-66.5 -16.9 -66.7 -16.9 L-67.05 -17.05 -67.2 -17.4 -67.05 -17.75 -66.7 -17.9 -66.35 -17.75 M-70.05 -17.75 L-69.7 -17.9 -69.35 -17.75 -69.2 -17.4 -69.35 -17.05 -69.7 -16.9 -70.05 -17.05 -70.2 -17.4 -70.05 -17.75 M-61.05 -17.75 L-60.7 -17.9 -60.35 -17.75 -60.2 -17.4 -60.35 -17.05 -60.7 -16.9 -61.05 -17.05 -61.2 -17.4 -61.05 -17.75 M-64.05 -17.75 L-63.7 -17.9 -63.35 -17.75 -63.2 -17.4 -63.35 -17.05 Q-63.5 -16.9 -63.7 -16.9 L-64.05 -17.05 -64.2 -17.4 -64.05 -17.75 M-76.2 -17.4 L-76.05 -17.75 -75.7 -17.9 -75.35 -17.75 -75.2 -17.4 -75.35 -17.05 Q-75.5 -16.9 -75.7 -16.9 L-76.05 -17.05 -76.2 -17.4 M-78.35 -17.05 Q-78.5 -16.9 -78.7 -16.9 L-79.05 -17.05 -79.2 -17.4 -79.05 -17.75 -78.7 -17.9 -78.35 -17.75 -78.2 -17.4 -78.35 -17.05 M-73.05 -17.75 L-72.7 -17.9 -72.35 -17.75 -72.2 -17.4 -72.35 -17.05 -72.7 -16.9 -73.05 -17.05 -73.2 -17.4 -73.05 -17.75 M-79.05 -0.75 L-78.7 -0.9 -78.35 -0.75 -78.2 -0.4 -78.35 -0.05 -78.7 0.1 -79.05 -0.05 -79.2 -0.4 -79.05 -0.75 M-76.05 -0.75 L-75.7 -0.9 -75.35 -0.75 -75.2 -0.4 -75.35 -0.05 -75.7 0.1 -76.05 -0.05 -76.2 -0.4 -76.05 -0.75 M-73.05 -0.75 L-72.7 -0.9 -72.35 -0.75 -72.2 -0.4 -72.35 -0.05 -72.7 0.1 -73.05 -0.05 -73.2 -0.4 -73.05 -0.75 M-70.05 -0.75 L-69.7 -0.9 -69.35 -0.75 -69.2 -0.4 -69.35 -0.05 -69.7 0.1 -70.05 -0.05 -70.2 -0.4 -70.05 -0.75 M-66.35 -0.75 L-66.2 -0.4 -66.35 -0.05 -66.7 0.1 -67.05 -0.05 -67.2 -0.4 -67.05 -0.75 -66.7 -0.9 -66.35 -0.75 M-64.05 -0.75 L-63.7 -0.9 -63.35 -0.75 -63.2 -0.4 -63.35 -0.05 -63.7 0.1 -64.05 -0.05 -64.2 -0.4 -64.05 -0.75 M-61.05 -0.75 L-60.7 -0.9 -60.35 -0.75 -60.2 -0.4 -60.35 -0.05 -60.7 0.1 -61.05 -0.05 -61.2 -0.4 -61.05 -0.75 M-45.7 -17.9 L-45.35 -17.75 -45.2 -17.4 -45.35 -17.05 Q-45.5 -16.9 -45.7 -16.9 L-46.05 -17.05 -46.2 -17.4 -46.05 -17.75 -45.7 -17.9 M-49.05 -17.75 L-48.7 -17.9 -48.35 -17.75 -48.2 -17.4 -48.35 -17.05 -48.7 -16.9 -49.05 -17.05 -49.2 -17.4 -49.05 -17.75 M-42.2 -17.4 L-42.35 -17.05 Q-42.5 -16.9 -42.7 -16.9 L-43.05 -17.05 -43.2 -17.4 -43.05 -17.75 -42.7 -17.9 -42.35 -17.75 -42.2 -17.4 M-57.35 -17.75 L-57.2 -17.4 -57.35 -17.05 Q-57.5 -16.9 -57.7 -16.9 L-58.05 -17.05 -58.2 -17.4 -58.05 -17.75 -57.7 -17.9 -57.35 -17.75 M-52.05 -17.75 L-51.7 -17.9 -51.35 -17.75 -51.2 -17.4 -51.35 -17.05 -51.7 -16.9 -52.05 -17.05 -52.2 -17.4 -52.05 -17.75 M-55.05 -17.75 L-54.7 -17.9 -54.35 -17.75 -54.2 -17.4 -54.35 -17.05 Q-54.5 -16.9 -54.7 -16.9 L-55.05 -17.05 -55.2 -17.4 -55.05 -17.75 M-57.35 -0.75 L-57.2 -0.4 -57.35 -0.05 -57.7 0.1 -58.05 -0.05 -58.2 -0.4 -58.05 -0.75 -57.7 -0.9 -57.35 -0.75 M-55.05 -0.75 L-54.7 -0.9 -54.35 -0.75 -54.2 -0.4 -54.35 -0.05 -54.7 0.1 -55.05 -0.05 -55.2 -0.4 -55.05 -0.75 M-52.05 -0.75 L-51.7 -0.9 -51.35 -0.75 -51.2 -0.4 -51.35 -0.05 -51.7 0.1 -52.05 -0.05 -52.2 -0.4 -52.05 -0.75 M-48.35 -0.75 L-48.2 -0.4 -48.35 -0.05 -48.7 0.1 -49.05 -0.05 -49.2 -0.4 -49.05 -0.75 -48.7 -0.9 -48.35 -0.75 M-45.7 -0.9 L-45.35 -0.75 -45.2 -0.4 -45.35 -0.05 -45.7 0.1 -46.05 -0.05 -46.2 -0.4 -46.05 -0.75 -45.7 -0.9 M-42.35 -0.75 L-42.2 -0.4 -42.35 -0.05 -42.7 0.1 -43.05 -0.05 -43.2 -0.4 -43.05 -0.75 -42.7 -0.9 -42.35 -0.75 M-12.35 -34.25 L-12.2 -33.9 -12.35 -33.55 Q-12.5 -33.4 -12.7 -33.4 L-13.05 -33.55 -13.2 -33.9 -13.05 -34.25 -12.7 -34.4 -12.35 -34.25 M-15.35 -34.25 L-15.2 -33.9 -15.35 -33.55 Q-15.5 -33.4 -15.7 -33.4 L-16.05 -33.55 -16.2 -33.9 -16.05 -34.25 -15.7 -34.4 -15.35 -34.25 M-18.7 -34.4 L-18.35 -34.25 -18.2 -33.9 -18.35 -33.55 -18.7 -33.4 -19.05 -33.55 -19.2 -33.9 -19.05 -34.25 -18.7 -34.4 M-0.35 -34.25 L-0.2 -33.9 -0.35 -33.55 Q-0.5 -33.4 -0.7 -33.4 L-1.05 -33.55 -1.2 -33.9 -1.05 -34.25 -0.7 -34.4 -0.35 -34.25 M-3.7 -34.4 L-3.35 -34.25 -3.2 -33.9 -3.35 -33.55 Q-3.5 -33.4 -3.7 -33.4 L-4.05 -33.55 -4.2 -33.9 -4.05 -34.25 -3.7 -34.4 M-6.35 -34.25 L-6.2 -33.9 -6.35 -33.55 -6.7 -33.4 -7.05 -33.55 -7.2 -33.9 -7.05 -34.25 -6.7 -34.4 -6.35 -34.25 M-9.7 -34.4 L-9.35 -34.25 -9.2 -33.9 -9.35 -33.55 -9.7 -33.4 -10.05 -33.55 -10.2 -33.9 -10.05 -34.25 -9.7 -34.4 M-30.7 -34.4 L-30.35 -34.25 -30.2 -33.9 -30.35 -33.55 -30.7 -33.4 -31.05 -33.55 -31.2 -33.9 -31.05 -34.25 -30.7 -34.4 M-33.7 -34.4 L-33.35 -34.25 -33.2 -33.9 -33.35 -33.55 Q-33.5 -33.4 -33.7 -33.4 L-34.05 -33.55 -34.2 -33.9 -34.05 -34.25 -33.7 -34.4 M-36.35 -34.25 L-36.2 -33.9 -36.35 -33.55 Q-36.5 -33.4 -36.7 -33.4 L-37.05 -33.55 -37.2 -33.9 -37.05 -34.25 -36.7 -34.4 -36.35 -34.25 M-39.7 -34.4 L-39.35 -34.25 -39.2 -33.9 -39.35 -33.55 -39.7 -33.4 -40.05 -33.55 -40.2 -33.9 -40.05 -34.25 -39.7 -34.4 M-21.35 -34.25 L-21.2 -33.9 -21.35 -33.55 Q-21.5 -33.4 -21.7 -33.4 L-22.05 -33.55 -22.2 -33.9 -22.05 -34.25 -21.7 -34.4 -21.35 -34.25 M-24.7 -34.4 L-24.35 -34.25 -24.2 -33.9 -24.35 -33.55 Q-24.5 -33.4 -24.7 -33.4 L-25.05 -33.55 -25.2 -33.9 -25.05 -34.25 -24.7 -34.4 M-27.35 -34.25 L-27.2 -33.9 -27.35 -33.55 -27.7 -33.4 -28.05 -33.55 -28.2 -33.9 -28.05 -34.25 -27.7 -34.4 -27.35 -34.25 M-27.35 -17.75 L-27.2 -17.4 -27.35 -17.05 -27.7 -16.9 -28.05 -17.05 -28.2 -17.4 -28.05 -17.75 -27.7 -17.9 -27.35 -17.75 M-30.2 -17.4 L-30.35 -17.05 -30.7 -16.9 -31.05 -17.05 -31.2 -17.4 -31.05 -17.75 -30.7 -17.9 -30.35 -17.75 -30.2 -17.4 M-22.05 -17.75 L-21.7 -17.9 -21.35 -17.75 -21.2 -17.4 -21.35 -17.05 Q-21.5 -16.9 -21.7 -16.9 L-22.05 -17.05 -22.2 -17.4 -22.05 -17.75 M-25.05 -17.75 L-24.7 -17.9 -24.35 -17.75 -24.2 -17.4 -24.35 -17.05 Q-24.5 -16.9 -24.7 -16.9 L-25.05 -17.05 -25.2 -17.4 -25.05 -17.75 M-36.35 -17.75 L-36.2 -17.4 -36.35 -17.05 Q-36.5 -16.9 -36.7 -16.9 L-37.05 -17.05 -37.2 -17.4 -37.05 -17.75 -36.7 -17.9 -36.35 -17.75 M-40.05 -17.75 L-39.7 -17.9 -39.35 -17.75 -39.2 -17.4 -39.35 -17.05 -39.7 -16.9 -40.05 -17.05 -40.2 -17.4 -40.05 -17.75 M-34.05 -17.75 L-33.7 -17.9 -33.35 -17.75 -33.2 -17.4 -33.35 -17.05 Q-33.5 -16.9 -33.7 -16.9 L-34.05 -17.05 -34.2 -17.4 -34.05 -17.75 M-40.05 -0.75 L-39.7 -0.9 -39.35 -0.75 -39.2 -0.4 -39.35 -0.05 -39.7 0.1 -40.05 -0.05 -40.2 -0.4 -40.05 -0.75 M-36.35 -0.75 L-36.2 -0.4 -36.35 -0.05 -36.7 0.1 -37.05 -0.05 -37.2 -0.4 -37.05 -0.75 -36.7 -0.9 -36.35 -0.75 M-34.05 -0.75 L-33.7 -0.9 -33.35 -0.75 -33.2 -0.4 -33.35 -0.05 -33.7 0.1 -34.05 -0.05 -34.2 -0.4 -34.05 -0.75 M-31.05 -0.75 L-30.7 -0.9 -30.35 -0.75 -30.2 -0.4 -30.35 -0.05 -30.7 0.1 -31.05 -0.05 -31.2 -0.4 -31.05 -0.75 M-28.05 -0.75 L-27.7 -0.9 -27.35 -0.75 -27.2 -0.4 -27.35 -0.05 -27.7 0.1 -28.05 -0.05 -28.2 -0.4 -28.05 -0.75 M-25.05 -0.75 L-24.7 -0.9 -24.35 -0.75 -24.2 -0.4 -24.35 -0.05 -24.7 0.1 -25.05 -0.05 -25.2 -0.4 -25.05 -0.75 M-21.35 -0.75 L-21.2 -0.4 -21.35 -0.05 -21.7 0.1 -22.05 -0.05 -22.2 -0.4 -22.05 -0.75 -21.7 -0.9 -21.35 -0.75 M-6.35 -17.75 L-6.2 -17.4 -6.35 -17.05 -6.7 -16.9 -7.05 -17.05 -7.2 -17.4 -7.05 -17.75 -6.7 -17.9 -6.35 -17.75 M-9.2 -17.4 L-9.35 -17.05 -9.7 -16.9 -10.05 -17.05 -10.2 -17.4 -10.05 -17.75 -9.7 -17.9 -9.35 -17.75 -9.2 -17.4 M-1.05 -17.75 L-0.7 -17.9 -0.35 -17.75 -0.2 -17.4 -0.35 -17.05 Q-0.5 -16.9 -0.7 -16.9 L-1.05 -17.05 -1.2 -17.4 -1.05 -17.75 M-4.05 -17.75 L-3.7 -17.9 -3.35 -17.75 -3.2 -17.4 -3.35 -17.05 Q-3.5 -16.9 -3.7 -16.9 L-4.05 -17.05 -4.2 -17.4 -4.05 -17.75 M-15.35 -17.75 L-15.2 -17.4 -15.35 -17.05 Q-15.5 -16.9 -15.7 -16.9 L-16.05 -17.05 -16.2 -17.4 -16.05 -17.75 -15.7 -17.9 -15.35 -17.75 M-19.05 -17.75 L-18.7 -17.9 -18.35 -17.75 -18.2 -17.4 -18.35 -17.05 -18.7 -16.9 -19.05 -17.05 -19.2 -17.4 -19.05 -17.75 M-12.35 -17.75 L-12.2 -17.4 -12.35 -17.05 Q-12.5 -16.9 -12.7 -16.9 L-13.05 -17.05 -13.2 -17.4 -13.05 -17.75 -12.7 -17.9 -12.35 -17.75 M-19.05 -0.75 L-18.7 -0.9 -18.35 -0.75 -18.2 -0.4 -18.35 -0.05 -18.7 0.1 -19.05 -0.05 -19.2 -0.4 -19.05 -0.75 M-15.35 -0.05 L-15.7 0.1 -16.05 -0.05 -16.2 -0.4 -16.05 -0.75 -15.7 -0.9 -15.35 -0.75 -15.2 -0.4 -15.35 -0.05 M-12.35 -0.75 L-12.2 -0.4 -12.35 -0.05 -12.7 0.1 -13.05 -0.05 -13.2 -0.4 -13.05 -0.75 -12.7 -0.9 -12.35 -0.75 M-9.2 -0.4 L-9.35 -0.05 -9.7 0.1 -10.05 -0.05 -10.2 -0.4 -10.05 -0.75 -9.7 -0.9 -9.35 -0.75 -9.2 -0.4 M-6.35 -0.75 L-6.2 -0.4 -6.35 -0.05 -6.7 0.1 -7.05 -0.05 -7.2 -0.4 -7.05 -0.75 -6.7 -0.9 -6.35 -0.75 M-4.05 -0.75 L-3.7 -0.9 -3.35 -0.75 -3.2 -0.4 -3.35 -0.05 -3.7 0.1 -4.05 -0.05 -4.2 -0.4 -4.05 -0.75 M-1.05 -0.75 L-0.7 -0.9 -0.35 -0.75 -0.2 -0.4 -0.35 -0.05 -0.7 0.1 -1.05 -0.05 -1.2 -0.4 -1.05 -0.75 M-12.35 15.25 L-12.2 15.6 -12.35 15.95 -12.7 16.1 -13.05 15.95 -13.2 15.6 -13.05 15.25 -12.7 15.1 Q-12.5 15.1 -12.35 15.25 M-15.35 15.25 L-15.2 15.6 -15.35 15.95 -15.7 16.1 -16.05 15.95 -16.2 15.6 -16.05 15.25 -15.7 15.1 Q-15.5 15.1 -15.35 15.25 M-18.7 15.1 L-18.35 15.25 -18.2 15.6 -18.35 15.95 -18.7 16.1 -19.05 15.95 -19.2 15.6 -19.05 15.25 -18.7 15.1 M-0.35 15.25 L-0.2 15.6 -0.35 15.95 -0.7 16.1 -1.05 15.95 -1.2 15.6 -1.05 15.25 -0.7 15.1 Q-0.5 15.1 -0.35 15.25 M-3.7 15.1 Q-3.5 15.1 -3.35 15.25 L-3.2 15.6 -3.35 15.95 -3.7 16.1 -4.05 15.95 -4.2 15.6 -4.05 15.25 -3.7 15.1 M-6.35 15.25 L-6.2 15.6 -6.35 15.95 -6.7 16.1 -7.05 15.95 -7.2 15.6 -7.05 15.25 -6.7 15.1 -6.35 15.25 M-9.7 15.1 L-9.35 15.25 -9.2 15.6 -9.35 15.95 -9.7 16.1 -10.05 15.95 -10.2 15.6 -10.05 15.25 -9.7 15.1 M-30.7 15.1 L-30.35 15.25 -30.2 15.6 -30.35 15.95 -30.7 16.1 -31.05 15.95 -31.2 15.6 -31.05 15.25 -30.7 15.1 M-33.7 15.1 Q-33.5 15.1 -33.35 15.25 L-33.2 15.6 -33.35 15.95 -33.7 16.1 -34.05 15.95 -34.2 15.6 -34.05 15.25 -33.7 15.1 M-36.35 15.25 L-36.2 15.6 -36.35 15.95 -36.7 16.1 -37.05 15.95 -37.2 15.6 -37.05 15.25 -36.7 15.1 Q-36.5 15.1 -36.35 15.25 M-39.7 15.1 L-39.35 15.25 -39.2 15.6 -39.35 15.95 -39.7 16.1 -40.05 15.95 -40.2 15.6 -40.05 15.25 -39.7 15.1 M-21.35 15.25 L-21.2 15.6 -21.35 15.95 -21.7 16.1 -22.05 15.95 -22.2 15.6 -22.05 15.25 -21.7 15.1 Q-21.5 15.1 -21.35 15.25 M-24.7 15.1 Q-24.5 15.1 -24.35 15.25 L-24.2 15.6 -24.35 15.95 -24.7 16.1 -25.05 15.95 -25.2 15.6 -25.05 15.25 -24.7 15.1 M-27.35 15.25 L-27.2 15.6 -27.35 15.95 -27.7 16.1 -28.05 15.95 -28.2 15.6 -28.05 15.25 -27.7 15.1 -27.35 15.25 M-27.35 31.75 L-27.2 32.1 -27.35 32.45 -27.7 32.6 -28.05 32.45 -28.2 32.1 -28.05 31.75 -27.7 31.6 -27.35 31.75 M-30.2 32.1 L-30.35 32.45 -30.7 32.6 -31.05 32.45 -31.2 32.1 -31.05 31.75 -30.7 31.6 -30.35 31.75 -30.2 32.1 M-22.05 31.75 L-21.7 31.6 Q-21.5 31.6 -21.35 31.75 L-21.2 32.1 -21.35 32.45 -21.7 32.6 -22.05 32.45 -22.2 32.1 -22.05 31.75 M-25.05 31.75 L-24.7 31.6 Q-24.5 31.6 -24.35 31.75 L-24.2 32.1 -24.35 32.45 -24.7 32.6 -25.05 32.45 -25.2 32.1 -25.05 31.75 M-36.35 31.75 L-36.2 32.1 -36.35 32.45 -36.7 32.6 -37.05 32.45 -37.2 32.1 -37.05 31.75 -36.7 31.6 Q-36.5 31.6 -36.35 31.75 M-40.05 31.75 L-39.7 31.6 -39.35 31.75 -39.2 32.1 -39.35 32.45 -39.7 32.6 -40.05 32.45 -40.2 32.1 -40.05 31.75 M-34.05 31.75 L-33.7 31.6 Q-33.5 31.6 -33.35 31.75 L-33.2 32.1 -33.35 32.45 -33.7 32.6 -34.05 32.45 -34.2 32.1 -34.05 31.75 M-40.05 47.85 L-39.7 47.7 -39.35 47.85 -39.2 48.2 -39.35 48.55 -39.7 48.7 -40.05 48.55 -40.2 48.2 -40.05 47.85 M-36.35 47.85 L-36.2 48.2 -36.35 48.55 -36.7 48.7 -37.05 48.55 -37.2 48.2 -37.05 47.85 -36.7 47.7 Q-36.5 47.7 -36.35 47.85 M-34.05 47.85 L-33.7 47.7 Q-33.5 47.7 -33.35 47.85 L-33.2 48.2 -33.35 48.55 -33.7 48.7 -34.05 48.55 -34.2 48.2 -34.05 47.85 M-31.05 47.85 L-30.7 47.7 -30.35 47.85 -30.2 48.2 -30.35 48.55 -30.7 48.7 -31.05 48.55 -31.2 48.2 -31.05 47.85 M-28.2 48.2 L-28.05 47.85 -27.7 47.7 -27.35 47.85 -27.2 48.2 -27.35 48.55 -27.7 48.7 -28.05 48.55 -28.2 48.2 M-25.05 47.85 L-24.7 47.7 Q-24.5 47.7 -24.35 47.85 L-24.2 48.2 -24.35 48.55 -24.7 48.7 -25.05 48.55 -25.2 48.2 -25.05 47.85 M-21.35 47.85 L-21.2 48.2 -21.35 48.55 -21.7 48.7 -22.05 48.55 -22.2 48.2 -22.05 47.85 -21.7 47.7 Q-21.5 47.7 -21.35 47.85 M-6.35 31.75 L-6.2 32.1 -6.35 32.45 -6.7 32.6 -7.05 32.45 -7.2 32.1 -7.05 31.75 -6.7 31.6 -6.35 31.75 M-9.2 32.1 L-9.35 32.45 -9.7 32.6 -10.05 32.45 -10.2 32.1 -10.05 31.75 -9.7 31.6 -9.35 31.75 -9.2 32.1 M-1.05 31.75 L-0.7 31.6 Q-0.5 31.6 -0.35 31.75 L-0.2 32.1 -0.35 32.45 -0.7 32.6 -1.05 32.45 -1.2 32.1 -1.05 31.75 M-4.05 31.75 L-3.7 31.6 Q-3.5 31.6 -3.35 31.75 L-3.2 32.1 -3.35 32.45 -3.7 32.6 -4.05 32.45 -4.2 32.1 -4.05 31.75 M-15.35 31.75 L-15.2 32.1 -15.35 32.45 -15.7 32.6 -16.05 32.45 -16.2 32.1 -16.05 31.75 -15.7 31.6 Q-15.5 31.6 -15.35 31.75 M-19.05 31.75 L-18.7 31.6 -18.35 31.75 -18.2 32.1 -18.35 32.45 -18.7 32.6 -19.05 32.45 -19.2 32.1 -19.05 31.75 M-12.35 31.75 L-12.2 32.1 -12.35 32.45 -12.7 32.6 -13.05 32.45 -13.2 32.1 -13.05 31.75 -12.7 31.6 Q-12.5 31.6 -12.35 31.75 M-19.05 47.85 L-18.7 47.7 -18.35 47.85 -18.2 48.2 -18.35 48.55 -18.7 48.7 -19.05 48.55 -19.2 48.2 -19.05 47.85 M-15.35 47.85 L-15.2 48.2 -15.35 48.55 -15.7 48.7 -16.05 48.55 -16.2 48.2 -16.05 47.85 -15.7 47.7 Q-15.5 47.7 -15.35 47.85 M-12.35 47.85 L-12.2 48.2 -12.35 48.55 -12.7 48.7 -13.05 48.55 -13.2 48.2 -13.05 47.85 -12.7 47.7 Q-12.5 47.7 -12.35 47.85 M-9.2 48.2 L-9.35 48.55 -9.7 48.7 -10.05 48.55 -10.2 48.2 -10.05 47.85 -9.7 47.7 -9.35 47.85 -9.2 48.2 M-6.35 47.85 L-6.2 48.2 -6.35 48.55 -6.7 48.7 -7.05 48.55 -7.2 48.2 -7.05 47.85 -6.7 47.7 -6.35 47.85 M-4.05 47.85 L-3.7 47.7 Q-3.5 47.7 -3.35 47.85 L-3.2 48.2 -3.35 48.55 -3.7 48.7 -4.05 48.55 -4.2 48.2 -4.05 47.85 M-1.05 47.85 L-0.7 47.7 Q-0.5 47.7 -0.35 47.85 L-0.2 48.2 -0.35 48.55 -0.7 48.7 -1.05 48.55 -1.2 48.2 -1.05 47.85 M-51.7 15.1 L-51.35 15.25 -51.2 15.6 -51.35 15.95 -51.7 16.1 -52.05 15.95 -52.2 15.6 -52.05 15.25 -51.7 15.1 M-54.7 15.1 Q-54.5 15.1 -54.35 15.25 L-54.2 15.6 -54.35 15.95 -54.7 16.1 -55.05 15.95 -55.2 15.6 -55.05 15.25 -54.7 15.1 M-57.35 15.25 L-57.2 15.6 -57.35 15.95 -57.7 16.1 -58.05 15.95 -58.2 15.6 -58.05 15.25 -57.7 15.1 Q-57.5 15.1 -57.35 15.25 M-60.35 15.25 L-60.2 15.6 -60.35 15.95 -60.7 16.1 -61.05 15.95 -61.2 15.6 -61.05 15.25 -60.7 15.1 -60.35 15.25 M-42.35 15.25 L-42.2 15.6 -42.35 15.95 -42.7 16.1 -43.05 15.95 -43.2 15.6 -43.05 15.25 -42.7 15.1 Q-42.5 15.1 -42.35 15.25 M-45.35 15.95 L-45.7 16.1 -46.05 15.95 -46.2 15.6 -46.05 15.25 -45.7 15.1 Q-45.5 15.1 -45.35 15.25 L-45.2 15.6 -45.35 15.95 M-48.35 15.25 L-48.2 15.6 -48.35 15.95 -48.7 16.1 -49.05 15.95 -49.2 15.6 -49.05 15.25 -48.7 15.1 -48.35 15.25 M-72.7 15.1 L-72.35 15.25 -72.2 15.6 -72.35 15.95 -72.7 16.1 -73.05 15.95 -73.2 15.6 -73.05 15.25 -72.7 15.1 M-75.35 15.25 L-75.2 15.6 -75.35 15.95 -75.7 16.1 -76.05 15.95 -76.2 15.6 -76.05 15.25 -75.7 15.1 Q-75.5 15.1 -75.35 15.25 M-78.7 15.1 Q-78.5 15.1 -78.35 15.25 L-78.2 15.6 -78.35 15.95 -78.7 16.1 -79.05 15.95 -79.2 15.6 -79.05 15.25 -78.7 15.1 M-63.35 15.25 L-63.2 15.6 -63.35 15.95 -63.7 16.1 -64.05 15.95 -64.2 15.6 -64.05 15.25 -63.7 15.1 Q-63.5 15.1 -63.35 15.25 M-66.35 15.25 L-66.2 15.6 -66.35 15.95 -66.7 16.1 -67.05 15.95 -67.2 15.6 -67.05 15.25 -66.7 15.1 Q-66.5 15.1 -66.35 15.25 M-69.7 15.1 L-69.35 15.25 -69.2 15.6 -69.35 15.95 -69.7 16.1 -70.05 15.95 -70.2 15.6 -70.05 15.25 -69.7 15.1 M-66.35 31.75 L-66.2 32.1 -66.35 32.45 -66.7 32.6 -67.05 32.45 -67.2 32.1 -67.05 31.75 -66.7 31.6 Q-66.5 31.6 -66.35 31.75 M-70.05 31.75 L-69.7 31.6 -69.35 31.75 -69.2 32.1 -69.35 32.45 -69.7 32.6 -70.05 32.45 -70.2 32.1 -70.05 31.75 M-61.05 31.75 L-60.7 31.6 -60.35 31.75 -60.2 32.1 -60.35 32.45 -60.7 32.6 -61.05 32.45 -61.2 32.1 -61.05 31.75 M-64.05 31.75 L-63.7 31.6 Q-63.5 31.6 -63.35 31.75 L-63.2 32.1 -63.35 32.45 -63.7 32.6 -64.05 32.45 -64.2 32.1 -64.05 31.75 M-76.2 32.1 L-76.05 31.75 -75.7 31.6 Q-75.5 31.6 -75.35 31.75 L-75.2 32.1 -75.35 32.45 -75.7 32.6 -76.05 32.45 -76.2 32.1 M-78.35 32.45 L-78.7 32.6 -79.05 32.45 -79.2 32.1 -79.05 31.75 -78.7 31.6 Q-78.5 31.6 -78.35 31.75 L-78.2 32.1 -78.35 32.45 M-73.05 31.75 L-72.7 31.6 -72.35 31.75 -72.2 32.1 -72.35 32.45 -72.7 32.6 -73.05 32.45 -73.2 32.1 -73.05 31.75 M-79.05 47.85 L-78.7 47.7 Q-78.5 47.7 -78.35 47.85 L-78.2 48.2 -78.35 48.55 -78.7 48.7 -79.05 48.55 -79.2 48.2 -79.05 47.85 M-76.2 48.2 L-76.05 47.85 -75.7 47.7 Q-75.5 47.7 -75.35 47.85 L-75.2 48.2 -75.35 48.55 -75.7 48.7 -76.05 48.55 -76.2 48.2 M-73.05 47.85 L-72.7 47.7 -72.35 47.85 -72.2 48.2 -72.35 48.55 -72.7 48.7 -73.05 48.55 -73.2 48.2 -73.05 47.85 M-70.05 47.85 L-69.7 47.7 -69.35 47.85 -69.2 48.2 -69.35 48.55 -69.7 48.7 -70.05 48.55 -70.2 48.2 -70.05 47.85 M-66.35 47.85 L-66.2 48.2 -66.35 48.55 -66.7 48.7 -67.05 48.55 -67.2 48.2 -67.05 47.85 -66.7 47.7 Q-66.5 47.7 -66.35 47.85 M-64.05 47.85 L-63.7 47.7 Q-63.5 47.7 -63.35 47.85 L-63.2 48.2 -63.35 48.55 -63.7 48.7 -64.05 48.55 -64.2 48.2 -64.05 47.85 M-61.2 48.2 L-61.05 47.85 -60.7 47.7 -60.35 47.85 -60.2 48.2 -60.35 48.55 -60.7 48.7 -61.05 48.55 -61.2 48.2 M-45.7 31.6 Q-45.5 31.6 -45.35 31.75 L-45.2 32.1 -45.35 32.45 -45.7 32.6 -46.05 32.45 -46.2 32.1 -46.05 31.75 -45.7 31.6 M-49.05 31.75 L-48.7 31.6 -48.35 31.75 -48.2 32.1 -48.35 32.45 -48.7 32.6 -49.05 32.45 -49.2 32.1 -49.05 31.75 M-42.2 32.1 L-42.35 32.45 -42.7 32.6 -43.05 32.45 -43.2 32.1 -43.05 31.75 -42.7 31.6 Q-42.5 31.6 -42.35 31.75 L-42.2 32.1 M-57.35 31.75 L-57.2 32.1 -57.35 32.45 -57.7 32.6 -58.05 32.45 -58.2 32.1 -58.05 31.75 -57.7 31.6 Q-57.5 31.6 -57.35 31.75 M-52.05 31.75 L-51.7 31.6 -51.35 31.75 -51.2 32.1 -51.35 32.45 -51.7 32.6 -52.05 32.45 -52.2 32.1 -52.05 31.75 M-55.05 31.75 L-54.7 31.6 Q-54.5 31.6 -54.35 31.75 L-54.2 32.1 -54.35 32.45 -54.7 32.6 -55.05 32.45 -55.2 32.1 -55.05 31.75 M-57.35 47.85 L-57.2 48.2 -57.35 48.55 -57.7 48.7 -58.05 48.55 -58.2 48.2 -58.05 47.85 -57.7 47.7 Q-57.5 47.7 -57.35 47.85 M-55.05 47.85 L-54.7 47.7 Q-54.5 47.7 -54.35 47.85 L-54.2 48.2 -54.35 48.55 -54.7 48.7 -55.05 48.55 -55.2 48.2 -55.05 47.85 M-52.05 47.85 L-51.7 47.7 -51.35 47.85 -51.2 48.2 -51.35 48.55 -51.7 48.7 -52.05 48.55 -52.2 48.2 -52.05 47.85 M-49.05 47.85 L-48.7 47.7 -48.35 47.85 -48.2 48.2 -48.35 48.55 -48.7 48.7 -49.05 48.55 -49.2 48.2 -49.05 47.85 M-45.7 47.7 Q-45.5 47.7 -45.35 47.85 L-45.2 48.2 -45.35 48.55 -45.7 48.7 -46.05 48.55 -46.2 48.2 -46.05 47.85 -45.7 47.7 M-43.05 47.85 L-42.7 47.7 Q-42.5 47.7 -42.35 47.85 L-42.2 48.2 -42.35 48.55 -42.7 48.7 -43.05 48.55 -43.2 48.2 -43.05 47.85 M-52.05 64.35 L-51.7 64.2 -51.35 64.35 -51.2 64.7 -51.35 65.05 -51.7 65.2 -52.05 65.05 -52.2 64.7 -52.05 64.35 M-55.05 64.35 L-54.7 64.2 Q-54.5 64.2 -54.35 64.35 L-54.2 64.7 -54.35 65.05 -54.7 65.2 -55.05 65.05 -55.2 64.7 -55.05 64.35 M-57.35 64.35 L-57.2 64.7 -57.35 65.05 -57.7 65.2 -58.05 65.05 -58.2 64.7 -58.05 64.35 -57.7 64.2 Q-57.5 64.2 -57.35 64.35 M-60.2 64.7 L-60.35 65.05 -60.7 65.2 -61.05 65.05 -61.2 64.7 -61.05 64.35 -60.7 64.2 -60.35 64.35 -60.2 64.7 M-42.2 64.7 L-42.35 65.05 -42.7 65.2 -43.05 65.05 -43.2 64.7 -43.05 64.35 -42.7 64.2 Q-42.5 64.2 -42.35 64.35 L-42.2 64.7 M-45.2 64.7 L-45.35 65.05 -45.7 65.2 -46.05 65.05 -46.2 64.7 -46.05 64.35 -45.7 64.2 Q-45.5 64.2 -45.35 64.35 L-45.2 64.7 M-49.05 64.35 L-48.7 64.2 -48.35 64.35 -48.2 64.7 -48.35 65.05 -48.7 65.2 -49.05 65.05 -49.2 64.7 -49.05 64.35 M-73.05 64.35 L-72.7 64.2 -72.35 64.35 -72.2 64.7 -72.35 65.05 -72.7 65.2 -73.05 65.05 -73.2 64.7 -73.05 64.35 M-75.2 64.7 L-75.35 65.05 -75.7 65.2 -76.05 65.05 -76.2 64.7 -76.05 64.35 -75.7 64.2 Q-75.5 64.2 -75.35 64.35 L-75.2 64.7 M-78.2 64.7 L-78.35 65.05 -78.7 65.2 -79.05 65.05 -79.2 64.7 -79.05 64.35 -78.7 64.2 Q-78.5 64.2 -78.35 64.35 L-78.2 64.7 M-64.05 64.35 L-63.7 64.2 Q-63.5 64.2 -63.35 64.35 L-63.2 64.7 -63.35 65.05 -63.7 65.2 -64.05 65.05 -64.2 64.7 -64.05 64.35 M-66.35 64.35 L-66.2 64.7 -66.35 65.05 -66.7 65.2 -67.05 65.05 -67.2 64.7 -67.05 64.35 -66.7 64.2 Q-66.5 64.2 -66.35 64.35 M-70.05 64.35 L-69.7 64.2 -69.35 64.35 -69.2 64.7 -69.35 65.05 -69.7 65.2 -70.05 65.05 -70.2 64.7 -70.05 64.35 M-12.35 64.35 L-12.2 64.7 -12.35 65.05 -12.7 65.2 -13.05 65.05 -13.2 64.7 -13.05 64.35 -12.7 64.2 Q-12.5 64.2 -12.35 64.35 M-15.35 64.35 L-15.2 64.7 -15.35 65.05 -15.7 65.2 -16.05 65.05 -16.2 64.7 -16.05 64.35 -15.7 64.2 Q-15.5 64.2 -15.35 64.35 M-19.05 64.35 L-18.7 64.2 -18.35 64.35 -18.2 64.7 -18.35 65.05 -18.7 65.2 -19.05 65.05 -19.2 64.7 -19.05 64.35 M-1.05 64.35 L-0.7 64.2 Q-0.5 64.2 -0.35 64.35 L-0.2 64.7 -0.35 65.05 -0.7 65.2 -1.05 65.05 -1.2 64.7 -1.05 64.35 M-4.05 64.35 L-3.7 64.2 Q-3.5 64.2 -3.35 64.35 L-3.2 64.7 -3.35 65.05 -3.7 65.2 -4.05 65.05 -4.2 64.7 -4.05 64.35 M-6.35 64.35 L-6.2 64.7 -6.35 65.05 -6.7 65.2 -7.05 65.05 -7.2 64.7 -7.05 64.35 -6.7 64.2 -6.35 64.35 M-9.2 64.7 L-9.35 65.05 -9.7 65.2 -10.05 65.05 -10.2 64.7 -10.05 64.35 -9.7 64.2 -9.35 64.35 -9.2 64.7 M-31.05 64.35 L-30.7 64.2 -30.35 64.35 -30.2 64.7 -30.35 65.05 -30.7 65.2 -31.05 65.05 -31.2 64.7 -31.05 64.35 M-34.05 64.35 L-33.7 64.2 Q-33.5 64.2 -33.35 64.35 L-33.2 64.7 -33.35 65.05 -33.7 65.2 -34.05 65.05 -34.2 64.7 -34.05 64.35 M-36.35 64.35 L-36.2 64.7 -36.35 65.05 -36.7 65.2 -37.05 65.05 -37.2 64.7 -37.05 64.35 -36.7 64.2 Q-36.5 64.2 -36.35 64.35 M-40.05 64.35 L-39.7 64.2 -39.35 64.35 -39.2 64.7 -39.35 65.05 -39.7 65.2 -40.05 65.05 -40.2 64.7 -40.05 64.35 M-21.35 64.35 L-21.2 64.7 -21.35 65.05 -21.7 65.2 -22.05 65.05 -22.2 64.7 -22.05 64.35 -21.7 64.2 Q-21.5 64.2 -21.35 64.35 M-25.05 64.35 L-24.7 64.2 Q-24.5 64.2 -24.35 64.35 L-24.2 64.7 -24.35 65.05 -24.7 65.2 -25.05 65.05 -25.2 64.7 -25.05 64.35 M-27.35 64.35 L-27.2 64.7 -27.35 65.05 -27.7 65.2 -28.05 65.05 -28.2 64.7 -28.05 64.35 -27.7 64.2 -27.35 64.35 M-93.35 15.25 L-93.2 15.6 -93.35 15.95 -93.7 16.1 -94.05 15.95 -94.2 15.6 -94.05 15.25 -93.7 15.1 -93.35 15.25 M-96.35 15.25 L-96.2 15.6 -96.35 15.95 -96.7 16.1 -97.05 15.95 -97.2 15.6 -97.05 15.25 -96.7 15.1 Q-96.5 15.1 -96.35 15.25 M-99.7 15.1 Q-99.5 15.1 -99.35 15.25 L-99.2 15.6 -99.35 15.95 -99.7 16.1 -100.05 15.95 -100.2 15.6 -100.05 15.25 -99.7 15.1 M-81.35 15.25 L-81.2 15.6 -81.35 15.95 -81.7 16.1 -82.05 15.95 -82.2 15.6 -82.05 15.25 -81.7 15.1 -81.35 15.25 M-84.7 15.1 Q-84.5 15.1 -84.35 15.25 L-84.2 15.6 -84.35 15.95 -84.7 16.1 -85.05 15.95 -85.2 15.6 -85.05 15.25 -84.7 15.1 M-87.35 15.25 L-87.2 15.6 -87.35 15.95 -87.7 16.1 -88.05 15.95 -88.2 15.6 -88.05 15.25 -87.7 15.1 Q-87.5 15.1 -87.35 15.25 M-90.7 15.1 L-90.35 15.25 -90.2 15.6 -90.35 15.95 -90.7 16.1 -91.05 15.95 -91.2 15.6 -91.05 15.25 -90.7 15.1 M-111.7 15.1 L-111.35 15.25 -111.2 15.6 -111.35 15.95 -111.7 16.1 -112.05 15.95 -112.2 15.6 -112.05 15.25 -111.7 15.1 M-114.7 15.1 L-114.35 15.25 -114.2 15.6 -114.35 15.95 -114.7 16.1 -115.05 15.95 -115.2 15.6 -115.05 15.25 -114.7 15.1 M-118.05 15.25 L-117.7 15.1 Q-117.5 15.1 -117.35 15.25 L-117.2 15.6 -117.35 15.95 -117.7 16.1 -118.05 15.95 -118.2 15.6 -118.05 15.25 M-102.35 15.25 L-102.2 15.6 -102.35 15.95 -102.7 16.1 -103.05 15.95 -103.2 15.6 -103.05 15.25 -102.7 15.1 -102.35 15.25 M-105.7 15.1 Q-105.5 15.1 -105.35 15.25 L-105.2 15.6 -105.35 15.95 -105.7 16.1 -106.05 15.95 -106.2 15.6 -106.05 15.25 -105.7 15.1 M-108.35 15.25 L-108.2 15.6 -108.35 15.95 -108.7 16.1 -109.05 15.95 -109.2 15.6 -109.05 15.25 -108.7 15.1 Q-108.5 15.1 -108.35 15.25 M-108.35 31.75 L-108.2 32.1 -108.35 32.45 -108.7 32.6 -109.05 32.45 -109.2 32.1 -109.05 31.75 -108.7 31.6 Q-108.5 31.6 -108.35 31.75 M-111.2 32.1 L-111.35 32.45 -111.7 32.6 -112.05 32.45 -112.2 32.1 -112.05 31.75 -111.7 31.6 -111.35 31.75 -111.2 32.1 M-103.05 31.75 L-102.7 31.6 -102.35 31.75 -102.2 32.1 -102.35 32.45 -102.7 32.6 -103.05 32.45 -103.2 32.1 -103.05 31.75 M-106.05 31.75 L-105.7 31.6 Q-105.5 31.6 -105.35 31.75 L-105.2 32.1 -105.35 32.45 -105.7 32.6 -106.05 32.45 -106.2 32.1 -106.05 31.75 M-118.05 31.75 L-117.7 31.6 Q-117.5 31.6 -117.35 31.75 L-117.2 32.1 -117.35 32.45 -117.7 32.6 -118.05 32.45 -118.2 32.1 -118.05 31.75 M-115.05 31.75 L-114.7 31.6 -114.35 31.75 -114.2 32.1 -114.35 32.45 -114.7 32.6 -115.05 32.45 -115.2 32.1 -115.05 31.75 M-118.05 47.85 L-117.7 47.7 Q-117.5 47.7 -117.35 47.85 L-117.2 48.2 -117.35 48.55 -117.7 48.7 -118.05 48.55 -118.2 48.2 -118.05 47.85 M-115.05 47.85 L-114.7 47.7 -114.35 47.85 -114.2 48.2 -114.35 48.55 -114.7 48.7 -115.05 48.55 -115.2 48.2 -115.05 47.85 M-112.05 47.85 L-111.7 47.7 -111.35 47.85 -111.2 48.2 -111.35 48.55 -111.7 48.7 -112.05 48.55 -112.2 48.2 -112.05 47.85 M-109.2 48.2 L-109.05 47.85 -108.7 47.7 Q-108.5 47.7 -108.35 47.85 L-108.2 48.2 -108.35 48.55 -108.7 48.7 -109.05 48.55 -109.2 48.2 M-106.05 47.85 L-105.7 47.7 Q-105.5 47.7 -105.35 47.85 L-105.2 48.2 -105.35 48.55 -105.7 48.7 -106.05 48.55 -106.2 48.2 -106.05 47.85 M-102.35 47.85 L-102.2 48.2 -102.35 48.55 -102.7 48.7 -103.05 48.55 -103.2 48.2 -103.05 47.85 -102.7 47.7 -102.35 47.85 M-87.35 31.75 L-87.2 32.1 -87.35 32.45 -87.7 32.6 -88.05 32.45 -88.2 32.1 -88.05 31.75 -87.7 31.6 Q-87.5 31.6 -87.35 31.75 M-90.2 32.1 L-90.35 32.45 -90.7 32.6 -91.05 32.45 -91.2 32.1 -91.05 31.75 -90.7 31.6 -90.35 31.75 -90.2 32.1 M-82.05 31.75 L-81.7 31.6 -81.35 31.75 -81.2 32.1 -81.35 32.45 -81.7 32.6 -82.05 32.45 -82.2 32.1 -82.05 31.75 M-85.05 31.75 L-84.7 31.6 Q-84.5 31.6 -84.35 31.75 L-84.2 32.1 -84.35 32.45 -84.7 32.6 -85.05 32.45 -85.2 32.1 -85.05 31.75 M-96.35 31.75 L-96.2 32.1 -96.35 32.45 -96.7 32.6 -97.05 32.45 -97.2 32.1 -97.05 31.75 -96.7 31.6 Q-96.5 31.6 -96.35 31.75 M-100.05 31.75 L-99.7 31.6 Q-99.5 31.6 -99.35 31.75 L-99.2 32.1 -99.35 32.45 -99.7 32.6 -100.05 32.45 -100.2 32.1 -100.05 31.75 M-93.35 31.75 L-93.2 32.1 -93.35 32.45 -93.7 32.6 -94.05 32.45 -94.2 32.1 -94.05 31.75 -93.7 31.6 -93.35 31.75 M-100.05 47.85 L-99.7 47.7 Q-99.5 47.7 -99.35 47.85 L-99.2 48.2 -99.35 48.55 -99.7 48.7 -100.05 48.55 -100.2 48.2 -100.05 47.85 M-96.35 47.85 L-96.2 48.2 -96.35 48.55 -96.7 48.7 -97.05 48.55 -97.2 48.2 -97.05 47.85 -96.7 47.7 Q-96.5 47.7 -96.35 47.85 M-93.35 47.85 L-93.2 48.2 -93.35 48.55 -93.7 48.7 -94.05 48.55 -94.2 48.2 -94.05 47.85 -93.7 47.7 -93.35 47.85 M-90.2 48.2 L-90.35 48.55 -90.7 48.7 -91.05 48.55 -91.2 48.2 -91.05 47.85 -90.7 47.7 -90.35 47.85 -90.2 48.2 M-87.35 47.85 L-87.2 48.2 -87.35 48.55 -87.7 48.7 -88.05 48.55 -88.2 48.2 -88.05 47.85 -87.7 47.7 Q-87.5 47.7 -87.35 47.85 M-85.05 47.85 L-84.7 47.7 Q-84.5 47.7 -84.35 47.85 L-84.2 48.2 -84.35 48.55 -84.7 48.7 -85.05 48.55 -85.2 48.2 -85.05 47.85 M-82.05 47.85 L-81.7 47.7 -81.35 47.85 -81.2 48.2 -81.35 48.55 -81.7 48.7 -82.05 48.55 -82.2 48.2 -82.05 47.85 M-93.35 64.35 L-93.2 64.7 -93.35 65.05 -93.7 65.2 -94.05 65.05 -94.2 64.7 -94.05 64.35 -93.7 64.2 -93.35 64.35 M-96.35 64.35 L-96.2 64.7 -96.35 65.05 -96.7 65.2 -97.05 65.05 -97.2 64.7 -97.05 64.35 -96.7 64.2 Q-96.5 64.2 -96.35 64.35 M-100.05 64.35 L-99.7 64.2 Q-99.5 64.2 -99.35 64.35 L-99.2 64.7 -99.35 65.05 -99.7 65.2 -100.05 65.05 -100.2 64.7 -100.05 64.35 M-82.05 64.35 L-81.7 64.2 -81.35 64.35 -81.2 64.7 -81.35 65.05 -81.7 65.2 -82.05 65.05 -82.2 64.7 -82.05 64.35 M-85.05 64.35 L-84.7 64.2 Q-84.5 64.2 -84.35 64.35 L-84.2 64.7 -84.35 65.05 -84.7 65.2 -85.05 65.05 -85.2 64.7 -85.05 64.35 M-87.35 64.35 L-87.2 64.7 -87.35 65.05 -87.7 65.2 -88.05 65.05 -88.2 64.7 -88.05 64.35 -87.7 64.2 Q-87.5 64.2 -87.35 64.35 M-90.2 64.7 L-90.35 65.05 -90.7 65.2 -91.05 65.05 -91.2 64.7 -91.05 64.35 -90.7 64.2 -90.35 64.35 -90.2 64.7 M-112.05 64.35 L-111.7 64.2 -111.35 64.35 -111.2 64.7 -111.35 65.05 -111.7 65.2 -112.05 65.05 -112.2 64.7 -112.05 64.35 M-115.05 64.35 L-114.7 64.2 -114.35 64.35 -114.2 64.7 -114.35 65.05 -114.7 65.2 -115.05 65.05 -115.2 64.7 -115.05 64.35 M-118.05 64.35 L-117.7 64.2 Q-117.5 64.2 -117.35 64.35 L-117.2 64.7 -117.35 65.05 -117.7 65.2 -118.05 65.05 -118.2 64.7 -118.05 64.35 M-102.35 64.35 L-102.2 64.7 -102.35 65.05 -102.7 65.2 -103.05 65.05 -103.2 64.7 -103.05 64.35 -102.7 64.2 -102.35 64.35 M-106.05 64.35 L-105.7 64.2 Q-105.5 64.2 -105.35 64.35 L-105.2 64.7 -105.35 65.05 -105.7 65.2 -106.05 65.05 -106.2 64.7 -106.05 64.35 M-108.35 64.35 L-108.2 64.7 -108.35 65.05 -108.7 65.2 -109.05 65.05 -109.2 64.7 -109.05 64.35 -108.7 64.2 Q-108.5 64.2 -108.35 64.35" fill="#92dff1" fill-rule="evenodd" stroke="none"/>
  </g>
  <defs>
    <radialGradient cx="0" cy="0" gradientTransform="matrix(0.3469, 0.0, 0.0, 0.2901, -82.35, -69.95)" gradientUnits="userSpaceOnUse" id="gradient0" r="819.2" spreadMethod="pad">
      <stop offset="0.0" stop-color="#1471b4"/>
      <stop offset="0.7843137254901961" stop-color="#0b3d6f"/>
      <stop offset="1.0" stop-color="#05213d"/>
    </radialGradient>
  </defs>
</svg>
