<?xml version="1.0" encoding="UTF-8" standalone="no"?>
<svg xmlns:xlink="http://www.w3.org/1999/xlink" height="28.1px" width="145.8px" xmlns="http://www.w3.org/2000/svg">
  <g transform="matrix(1, 0, 0, 1, 72.55, 14.05)">
    <path d="M72.75 -13.55 L72.75 13.55 -72.05 13.55 -72.05 -13.55 72.75 -13.55" fill="url(#gradient0)" fill-rule="evenodd" stroke="none"/>
    <path d="M72.75 -13.55 L72.75 13.55" fill="none" stroke="#3073b6" stroke-linecap="round" stroke-linejoin="round" stroke-width="1.0"/>
    <path d="M-72.05 13.55 L-72.05 -13.55 72.75 -13.55" fill="none" stroke="#000000" stroke-linecap="round" stroke-linejoin="round" stroke-width="1.0"/>
    <path d="M72.75 13.55 L-72.05 13.55" fill="none" stroke="#70b9ef" stroke-linecap="round" stroke-linejoin="round" stroke-width="1.0"/>
    <path d="M1.8 -0.7 L1.9 -0.5 1.8 -0.35 1.65 -0.25 Q1.55 -0.25 1.45 -0.35 L1.4 -0.5 1.45 -0.7 1.65 -0.75 1.8 -0.7 M3.95 -0.7 L4.15 -0.75 4.3 -0.7 4.4 -0.5 4.3 -0.35 4.15 -0.25 Q4.05 -0.25 3.95 -0.35 L3.9 -0.5 3.95 -0.7 M6.8 -0.7 L6.9 -0.5 6.8 -0.35 6.65 -0.25 Q6.55 -0.25 6.45 -0.35 L6.4 -0.5 6.45 -0.7 6.65 -0.75 6.8 -0.7 M8.95 -0.7 L9.15 -0.75 9.3 -0.7 9.4 -0.5 9.3 -0.35 9.15 -0.25 Q9.05 -0.25 8.95 -0.35 L8.9 -0.5 8.95 -0.7 M11.45 -0.7 L11.65 -0.75 11.8 -0.7 11.9 -0.5 11.8 -0.35 11.65 -0.25 Q11.55 -0.25 11.45 -0.35 L11.4 -0.5 11.45 -0.7 M13.95 -0.7 L14.15 -0.75 14.3 -0.7 14.4 -0.5 14.3 -0.35 14.15 -0.25 Q14.05 -0.25 13.95 -0.35 L13.9 -0.5 13.95 -0.7 M16.8 -0.7 L16.9 -0.5 16.8 -0.35 16.65 -0.25 Q16.55 -0.25 16.45 -0.35 L16.4 -0.5 16.45 -0.7 16.65 -0.75 16.8 -0.7 M18.95 -0.7 L19.15 -0.75 19.3 -0.7 19.4 -0.5 19.3 -0.35 19.15 -0.25 Q19.05 -0.25 18.95 -0.35 L18.9 -0.5 18.95 -0.7 M21.45 -0.7 L21.65 -0.75 21.8 -0.7 21.9 -0.5 21.8 -0.35 21.65 -0.25 Q21.55 -0.25 21.45 -0.35 L21.4 -0.5 21.45 -0.7 M23.95 -0.7 L24.15 -0.75 24.3 -0.7 24.4 -0.5 24.3 -0.35 24.15 -0.25 Q24.05 -0.25 23.95 -0.35 L23.9 -0.5 23.95 -0.7 M26.8 -0.7 L26.9 -0.5 26.8 -0.35 26.65 -0.25 Q26.55 -0.25 26.45 -0.35 L26.4 -0.5 26.45 -0.7 26.65 -0.75 26.8 -0.7 M28.95 -0.7 L29.15 -0.75 29.3 -0.7 29.4 -0.5 29.3 -0.35 29.15 -0.25 Q29.05 -0.25 28.95 -0.35 L28.9 -0.5 28.95 -0.7 M35.85 -10.7 L36.05 -10.75 36.2 -10.7 36.3 -10.5 36.2 -10.35 36.05 -10.25 Q35.95 -10.25 35.85 -10.35 L35.8 -10.5 35.85 -10.7 M36.2 -8.2 L36.3 -8.0 36.2 -7.85 36.05 -7.75 Q35.95 -7.75 35.85 -7.85 L35.8 -8.0 35.85 -8.2 36.05 -8.25 36.2 -8.2 M31.8 -0.7 L31.9 -0.5 31.8 -0.35 31.65 -0.25 Q31.55 -0.25 31.45 -0.35 L31.4 -0.5 31.45 -0.7 31.65 -0.75 31.8 -0.7 M33.95 -0.7 L34.15 -0.75 34.3 -0.7 34.4 -0.5 34.3 -0.35 34.15 -0.25 Q34.05 -0.25 33.95 -0.35 L33.9 -0.5 33.95 -0.7 M35.85 -5.7 L36.05 -5.75 36.2 -5.7 36.3 -5.5 36.2 -5.35 36.05 -5.25 Q35.95 -5.25 35.85 -5.35 L35.8 -5.5 35.85 -5.7 M36.2 -3.2 L36.3 -3.0 36.2 -2.85 36.05 -2.75 Q35.95 -2.75 35.85 -2.85 L35.8 -3.0 35.85 -3.2 36.05 -3.25 36.2 -3.2 M35.85 -0.7 L36.05 -0.75 36.2 -0.7 36.4 -0.75 36.55 -0.7 36.65 -0.5 36.55 -0.35 36.4 -0.25 36.2 -0.35 36.05 -0.25 Q35.95 -0.25 35.85 -0.35 L35.8 -0.5 35.85 -0.7 M38.7 -0.7 L38.9 -0.75 39.05 -0.7 39.15 -0.5 39.05 -0.35 38.9 -0.25 38.7 -0.35 38.65 -0.5 38.7 -0.7 M41.2 -0.7 L41.4 -0.75 41.55 -0.7 41.65 -0.5 41.55 -0.35 41.4 -0.25 41.2 -0.35 41.15 -0.5 41.2 -0.7 M44.05 -0.7 L44.15 -0.5 44.05 -0.35 43.9 -0.25 43.7 -0.35 43.65 -0.5 43.7 -0.7 43.9 -0.75 44.05 -0.7 M46.2 -0.7 L46.4 -0.75 46.55 -0.7 46.65 -0.5 46.55 -0.35 46.4 -0.25 46.2 -0.35 46.15 -0.5 46.2 -0.7 M48.7 -0.7 L48.9 -0.75 49.05 -0.7 49.15 -0.5 49.05 -0.35 48.9 -0.25 48.7 -0.35 48.65 -0.5 48.7 -0.7 M51.2 -0.7 L51.4 -0.75 51.55 -0.7 51.65 -0.5 51.55 -0.35 51.4 -0.25 51.2 -0.35 51.15 -0.5 51.2 -0.7 M54.05 -0.7 L54.15 -0.5 54.05 -0.35 53.9 -0.25 53.7 -0.35 53.65 -0.5 53.7 -0.7 53.9 -0.75 54.05 -0.7 M56.2 -0.7 L56.4 -0.75 56.55 -0.7 56.65 -0.5 56.55 -0.35 56.4 -0.25 56.2 -0.35 56.15 -0.5 56.2 -0.7 M59.05 -0.7 L59.15 -0.5 59.05 -0.35 58.9 -0.25 58.7 -0.35 58.65 -0.5 58.7 -0.7 58.9 -0.75 59.05 -0.7 M61.2 -0.7 L61.4 -0.75 61.55 -0.7 61.65 -0.5 61.55 -0.35 61.4 -0.25 61.2 -0.35 61.15 -0.5 61.2 -0.7 M64.05 -0.7 L64.15 -0.5 64.05 -0.35 63.9 -0.25 63.7 -0.35 63.65 -0.5 63.7 -0.7 63.9 -0.75 64.05 -0.7 M66.2 -0.7 L66.4 -0.75 66.55 -0.7 66.65 -0.5 66.55 -0.35 66.4 -0.25 66.2 -0.35 66.15 -0.5 66.2 -0.7 M68.7 -0.7 L68.9 -0.75 69.05 -0.7 69.15 -0.5 69.05 -0.35 68.9 -0.25 68.7 -0.35 68.65 -0.5 68.7 -0.7 M71.2 -0.7 L71.4 -0.75 71.55 -0.7 71.65 -0.5 71.55 -0.35 71.4 -0.25 71.2 -0.35 71.15 -0.5 71.2 -0.7 M35.85 1.8 L36.05 1.75 36.2 1.8 36.3 2.0 36.2 2.15 36.05 2.25 35.85 2.15 35.8 2.0 35.85 1.8 M35.85 4.3 L36.05 4.25 36.2 4.3 36.3 4.5 36.2 4.65 36.05 4.75 35.85 4.65 35.8 4.5 35.85 4.3 M36.2 6.8 L36.3 7.0 36.2 7.15 36.05 7.25 35.85 7.15 35.8 7.0 35.85 6.8 36.05 6.75 36.2 6.8 M36.05 9.75 L35.85 9.65 35.8 9.5 35.85 9.3 36.05 9.25 36.2 9.3 36.3 9.5 36.2 9.65 36.05 9.75 M35.85 11.8 L36.05 11.75 36.2 11.8 36.3 12.0 36.2 12.15 36.05 12.25 35.85 12.15 35.8 12.0 35.85 11.8 M-69.45 -0.7 L-69.25 -0.75 -69.1 -0.7 -69.0 -0.5 -69.1 -0.35 -69.25 -0.25 Q-69.35 -0.25 -69.45 -0.35 L-69.5 -0.5 -69.45 -0.7 M-66.6 -0.7 L-66.5 -0.5 -66.6 -0.35 -66.75 -0.25 Q-66.85 -0.25 -66.95 -0.35 L-67.0 -0.5 -66.95 -0.7 -66.75 -0.75 -66.6 -0.7 M-64.45 -0.7 L-64.25 -0.75 -64.1 -0.7 -64.0 -0.5 -64.1 -0.35 -64.25 -0.25 Q-64.35 -0.25 -64.45 -0.35 L-64.5 -0.5 -64.45 -0.7 M-61.6 -0.7 L-61.5 -0.5 -61.6 -0.35 -61.75 -0.25 Q-61.85 -0.25 -61.95 -0.35 L-62.0 -0.5 -61.95 -0.7 -61.75 -0.75 -61.6 -0.7 M-59.45 -0.7 L-59.25 -0.75 -59.1 -0.7 -59.0 -0.5 -59.1 -0.35 -59.25 -0.25 Q-59.35 -0.25 -59.45 -0.35 L-59.5 -0.5 -59.45 -0.7 M-56.6 -0.7 L-56.5 -0.5 -56.6 -0.35 -56.75 -0.25 Q-56.85 -0.25 -56.95 -0.35 L-57.0 -0.5 -56.95 -0.7 -56.75 -0.75 -56.6 -0.7 M-54.45 -0.7 L-54.25 -0.75 -54.1 -0.7 -54.0 -0.5 -54.1 -0.35 -54.25 -0.25 Q-54.35 -0.25 -54.45 -0.35 L-54.5 -0.5 -54.45 -0.7 M-51.95 -0.7 L-51.75 -0.75 -51.6 -0.7 -51.5 -0.5 -51.6 -0.35 -51.75 -0.25 Q-51.85 -0.25 -51.95 -0.35 L-52.0 -0.5 -51.95 -0.7 M-49.45 -0.7 L-49.25 -0.75 -49.1 -0.7 -49.0 -0.5 -49.1 -0.35 -49.25 -0.25 Q-49.35 -0.25 -49.45 -0.35 L-49.5 -0.5 -49.45 -0.7 M-46.6 -0.7 L-46.5 -0.5 -46.6 -0.35 -46.75 -0.25 Q-46.85 -0.25 -46.95 -0.35 L-47.0 -0.5 -46.95 -0.7 -46.75 -0.75 -46.6 -0.7 M-44.45 -0.7 L-44.25 -0.75 -44.1 -0.7 -44.0 -0.5 -44.1 -0.35 -44.25 -0.25 Q-44.35 -0.25 -44.45 -0.35 L-44.5 -0.5 -44.45 -0.7 M-41.95 -0.7 L-41.75 -0.75 -41.6 -0.7 -41.5 -0.5 -41.6 -0.35 -41.75 -0.25 Q-41.85 -0.25 -41.95 -0.35 L-42.0 -0.5 -41.95 -0.7 M-34.45 -10.7 L-34.25 -10.75 -34.1 -10.7 -34.0 -10.5 -34.1 -10.35 -34.25 -10.25 Q-34.35 -10.25 -34.45 -10.35 L-34.5 -10.5 -34.45 -10.7 M-34.1 -8.2 L-34.0 -8.0 -34.1 -7.85 -34.25 -7.75 Q-34.35 -7.75 -34.45 -7.85 L-34.5 -8.0 -34.45 -8.2 -34.25 -8.25 -34.1 -8.2 M-39.45 -0.7 L-39.25 -0.75 -39.1 -0.7 -39.0 -0.5 -39.1 -0.35 -39.25 -0.25 Q-39.35 -0.25 -39.45 -0.35 L-39.5 -0.5 -39.45 -0.7 M-36.6 -0.7 L-36.5 -0.5 -36.6 -0.35 -36.75 -0.25 Q-36.85 -0.25 -36.95 -0.35 L-37.0 -0.5 -36.95 -0.7 -36.75 -0.75 -36.6 -0.7 M-34.1 -5.35 L-34.25 -5.25 Q-34.35 -5.25 -34.45 -5.35 L-34.5 -5.5 -34.45 -5.7 -34.25 -5.75 -34.1 -5.7 -34.0 -5.5 -34.1 -5.35 M-34.25 -3.25 L-34.1 -3.2 -34.0 -3.0 -34.1 -2.85 -34.25 -2.75 Q-34.35 -2.75 -34.45 -2.85 L-34.5 -3.0 -34.45 -3.2 -34.25 -3.25 M-34.25 -0.75 L-34.1 -0.7 -34.0 -0.5 -34.0 -0.4 -34.0 -0.3 -34.1 -0.15 -34.25 -0.05 Q-34.35 -0.05 -34.45 -0.15 L-34.5 -0.3 -34.45 -0.4 -34.5 -0.5 -34.45 -0.7 -34.25 -0.75 M-33.55 -0.7 L-33.35 -0.75 -33.2 -0.7 -33.1 -0.5 -33.2 -0.35 -33.35 -0.25 Q-33.45 -0.25 -33.55 -0.35 L-33.6 -0.5 -33.55 -0.7 M-31.05 -0.7 L-30.85 -0.75 -30.7 -0.7 -30.6 -0.5 -30.7 -0.35 -30.85 -0.25 Q-30.95 -0.25 -31.05 -0.35 L-31.1 -0.5 -31.05 -0.7 M-28.55 -0.7 L-28.35 -0.75 -28.2 -0.7 -28.1 -0.5 -28.2 -0.35 -28.35 -0.25 Q-28.45 -0.25 -28.55 -0.35 L-28.6 -0.5 -28.55 -0.7 M-25.7 -0.7 L-25.6 -0.5 -25.7 -0.35 -25.85 -0.25 Q-25.95 -0.25 -26.05 -0.35 L-26.1 -0.5 -26.05 -0.7 -25.85 -0.75 -25.7 -0.7 M-23.55 -0.7 L-23.35 -0.75 -23.2 -0.7 -23.1 -0.5 -23.2 -0.35 -23.35 -0.25 Q-23.45 -0.25 -23.55 -0.35 L-23.6 -0.5 -23.55 -0.7 M-21.05 -0.7 L-20.85 -0.75 -20.7 -0.7 -20.6 -0.5 -20.7 -0.35 -20.85 -0.25 Q-20.95 -0.25 -21.05 -0.35 L-21.1 -0.5 -21.05 -0.7 M-0.85 -12.45 L-0.7 -12.4 -0.6 -12.2 -0.7 -12.05 -0.85 -11.95 Q-0.95 -11.95 -1.05 -12.05 L-1.1 -12.2 -1.05 -12.4 -0.85 -12.45 M-18.55 -0.7 L-18.35 -0.75 -18.2 -0.7 -18.1 -0.5 -18.2 -0.35 -18.35 -0.25 Q-18.45 -0.25 -18.55 -0.35 L-18.6 -0.5 -18.55 -0.7 M-15.7 -0.7 L-15.6 -0.5 -15.7 -0.35 -15.85 -0.25 Q-15.95 -0.25 -16.05 -0.35 L-16.1 -0.5 -16.05 -0.7 -15.85 -0.75 -15.7 -0.7 M-13.55 -0.7 L-13.35 -0.75 -13.2 -0.7 -13.1 -0.5 -13.2 -0.35 -13.35 -0.25 Q-13.45 -0.25 -13.55 -0.35 L-13.6 -0.5 -13.55 -0.7 M-11.05 -0.7 L-10.85 -0.75 -10.7 -0.7 -10.6 -0.5 -10.7 -0.35 -10.85 -0.25 Q-10.95 -0.25 -11.05 -0.35 L-11.1 -0.5 -11.05 -0.7 M-1.05 -9.9 L-0.85 -9.95 -0.7 -9.9 -0.6 -9.7 -0.7 -9.55 -0.85 -9.45 Q-0.95 -9.45 -1.05 -9.55 L-1.1 -9.7 -1.05 -9.9 M-1.05 -7.4 L-0.85 -7.45 -0.7 -7.4 -0.6 -7.2 -0.7 -7.05 -0.85 -6.95 Q-0.95 -6.95 -1.05 -7.05 L-1.1 -7.2 -1.05 -7.4 M-8.55 -0.7 L-8.35 -0.75 -8.2 -0.7 -8.1 -0.5 -8.2 -0.35 -8.35 -0.25 Q-8.45 -0.25 -8.55 -0.35 L-8.6 -0.5 -8.55 -0.7 M-5.7 -0.7 L-5.6 -0.5 -5.7 -0.35 -5.85 -0.25 Q-5.95 -0.25 -6.05 -0.35 L-6.1 -0.5 -6.05 -0.7 -5.85 -0.75 -5.7 -0.7 M-1.05 -4.9 L-0.85 -4.95 -0.7 -4.9 -0.6 -4.7 -0.7 -4.55 -0.85 -4.45 Q-0.95 -4.45 -1.05 -4.55 L-1.1 -4.7 -1.05 -4.9 M-3.55 -0.7 L-3.35 -0.75 -3.2 -0.7 -3.1 -0.5 -3.2 -0.35 -3.35 -0.25 Q-3.45 -0.25 -3.55 -0.35 L-3.6 -0.5 -3.55 -0.7 M-1.05 -2.4 L-0.85 -2.45 -0.7 -2.4 -0.6 -2.2 -0.7 -2.05 -0.85 -1.95 Q-0.95 -1.95 -1.05 -2.05 L-1.1 -2.2 -1.05 -2.4 M-0.7 -0.7 L-0.6 -0.5 -0.6 -0.4 -0.6 -0.35 -0.7 -0.2 -0.85 -0.1 Q-0.95 -0.1 -1.05 -0.2 L-1.1 -0.35 -1.1 -0.4 -1.1 -0.5 -1.05 -0.7 -0.85 -0.75 -0.7 -0.7 M-1.05 1.95 L-0.85 1.9 -0.7 1.95 -0.6 2.15 -0.7 2.3 -0.85 2.4 -1.05 2.3 -1.1 2.15 -1.05 1.95 M-0.7 4.45 L-0.6 4.65 -0.7 4.8 -0.85 4.9 -1.05 4.8 -1.1 4.65 -1.05 4.45 -0.85 4.4 -0.7 4.45 M-1.05 6.95 L-0.85 6.9 -0.7 6.95 -0.6 7.15 -0.7 7.3 -0.85 7.4 -1.05 7.3 -1.1 7.15 -1.05 6.95 M-1.05 9.45 L-0.85 9.4 -0.7 9.45 -0.6 9.65 -0.7 9.8 -0.85 9.9 -1.05 9.8 -1.1 9.65 -1.05 9.45 M-0.7 11.95 L-0.6 12.15 -0.7 12.3 -0.85 12.4 -1.05 12.3 -1.1 12.15 -1.05 11.95 -0.85 11.9 -0.7 11.95 M-34.45 2.0 L-34.25 1.95 -34.1 2.0 -34.0 2.2 -34.1 2.35 -34.25 2.45 -34.45 2.35 -34.5 2.2 -34.45 2.0 M-34.1 4.5 L-34.0 4.7 -34.1 4.85 -34.25 4.95 -34.45 4.85 -34.5 4.7 -34.45 4.5 -34.25 4.45 -34.1 4.5 M-34.45 7.0 L-34.25 6.95 -34.1 7.0 -34.0 7.2 -34.1 7.35 -34.25 7.45 -34.45 7.35 -34.5 7.2 -34.45 7.0 M-34.0 9.7 L-34.1 9.85 -34.25 9.95 -34.45 9.85 -34.5 9.7 -34.45 9.5 -34.25 9.45 -34.1 9.5 -34.0 9.7 M-34.45 12.0 L-34.25 11.95 -34.1 12.0 -34.0 12.2 -34.1 12.35 -34.25 12.45 -34.45 12.35 -34.5 12.2 -34.45 12.0" fill="#137cb5" fill-rule="evenodd" stroke="none"/>
  </g>
  <defs>
    <radialGradient cx="0" cy="0" gradientTransform="matrix(0.2087, 0.0, 0.0, 0.1337, -9.0, -67.8)" gradientUnits="userSpaceOnUse" id="gradient0" r="819.2" spreadMethod="pad">
      <stop offset="0.0" stop-color="#1471b4"/>
      <stop offset="0.7843137254901961" stop-color="#0b3d6f"/>
      <stop offset="1.0" stop-color="#05213d"/>
    </radialGradient>
  </defs>
</svg>
