<?xml version="1.0" encoding="UTF-8" standalone="no"?>
<svg xmlns:xlink="http://www.w3.org/1999/xlink" height="388.6px" width="470.2px" xmlns="http://www.w3.org/2000/svg">
  <g transform="matrix(1, 0, 0, 1, 235.35, 206.7)">
    <path d="M-212.3 155.35 L-212.15 155.55 Q-211.95 156.0 -212.1 156.45 L-212.75 157.05 -213.7 157.0 -214.45 156.35 Q-214.65 155.95 -214.5 155.55 L-212.3 155.35 M216.3 -175.8 Q216.95 -175.8 217.4 -175.3 217.85 -174.8 217.85 -174.0 217.85 -173.25 217.4 -172.75 216.95 -172.25 216.3 -172.2 215.65 -172.25 215.2 -172.75 214.75 -173.25 214.75 -174.0 214.75 -174.8 215.2 -175.3 215.65 -175.8 216.3 -175.8 M221.15 -169.6 Q221.8 -169.6 222.25 -169.1 222.7 -168.6 222.7 -167.8 222.7 -167.05 222.25 -166.55 221.8 -166.05 221.15 -166.0 220.5 -166.05 220.05 -166.55 219.6 -167.05 219.6 -167.8 219.6 -168.6 220.05 -169.1 220.5 -169.6 221.15 -169.6 M221.65 -160.6 Q222.1 -161.1 222.75 -161.1 223.4 -161.1 223.85 -160.6 L224.3 -159.3 Q224.3 -158.55 223.85 -158.05 223.4 -157.55 222.75 -157.5 222.1 -157.55 221.65 -158.05 221.2 -158.55 221.2 -159.3 221.2 -160.1 221.65 -160.6 M217.55 128.4 L218.0 129.3 217.65 130.15 Q217.3 130.5 216.8 130.45 216.3 130.35 215.9 129.95 L215.5 129.1 Q215.45 128.55 215.8 128.25 216.15 127.9 216.65 127.95 217.15 128.0 217.55 128.4 M213.6 129.25 Q213.25 129.6 212.75 129.55 212.25 129.45 211.85 129.05 211.45 128.65 211.45 128.2 211.4 127.65 211.75 127.35 212.1 127.0 212.6 127.05 213.1 127.1 213.5 127.5 213.9 127.9 213.95 128.4 L213.6 129.25 M198.4 165.15 Q198.6 165.55 198.45 166.05 L198.15 166.5 196.9 166.7 196.75 166.65 195.95 166.0 195.8 165.45 198.4 165.15 M-211.1 159.15 Q-210.6 159.35 -210.35 159.75 -210.15 160.15 -210.35 160.6 -210.5 161.05 -210.95 161.2 L-211.9 161.15 -212.65 160.55 -212.7 159.7 -212.1 159.1 -211.1 159.15 M-209.0 163.25 L-208.25 163.85 Q-208.05 164.3 -208.2 164.75 L-208.85 165.3 -209.8 165.3 -210.5 164.65 Q-210.75 164.2 -210.6 163.8 -210.45 163.35 -209.95 163.2 L-209.0 163.25" fill="#0e0e21" fill-opacity="0.8509804" fill-rule="evenodd" stroke="none"/>
    <path d="M215.95 155.85 L215.95 155.9 215.9 155.8 215.95 155.85 M189.95 168.2 L190.0 168.15 189.8 168.3 189.95 168.2 M190.6 166.0 L190.45 166.6 190.45 166.65 190.2 167.2 190.3 166.55 190.3 166.6 190.6 166.0 M205.4 156.2 L205.2 155.45 205.45 155.8 205.4 156.2 M206.2 151.85 L206.25 151.7 206.2 151.8 206.2 151.85 M214.2 159.85 L213.85 160.05 214.0 159.9 214.2 159.85 M213.55 160.3 L213.95 160.15 213.3 160.9 Q213.35 160.55 213.55 160.3" fill="#090915" fill-opacity="0.7529412" fill-rule="evenodd" stroke="none"/>
    <path d="M-231.3 -148.6 Q-230.55 -147.9 -230.4 -146.75 -230.3 -145.65 -230.95 -144.8 -231.6 -144.0 -232.65 -143.85 -233.7 -143.8 -234.45 -144.5 -235.25 -145.2 -235.35 -146.3 -235.45 -147.45 -234.8 -148.25 -234.2 -149.1 -233.1 -149.2 -232.05 -149.3 -231.3 -148.6 M-215.05 -134.2 Q-214.95 -133.05 -215.55 -132.2 -216.2 -131.4 -217.25 -131.3 -218.3 -131.2 -219.05 -131.9 -219.85 -132.65 -219.95 -133.75 -220.05 -134.9 -219.4 -135.7 -218.8 -136.55 -217.75 -136.6 -216.7 -136.7 -215.9 -136.0 -215.15 -135.35 -215.05 -134.2 M-226.95 -137.85 Q-227.75 -138.6 -227.85 -139.7 -227.95 -140.85 -227.3 -141.7 -226.7 -142.5 -225.6 -142.6 -224.55 -142.7 -223.8 -142.0 -223.05 -141.3 -222.9 -140.15 -222.8 -139.05 -223.45 -138.2 -224.1 -137.4 -225.15 -137.3 -226.2 -137.2 -226.95 -137.85" fill="url(#gradient0)" fill-rule="evenodd" stroke="none"/>
    <path d="M-209.9 94.2 L-209.15 -115.8 -210.4 -119.25 -213.95 -121.15 -215.7 -121.6 Q-219.0 -121.85 -221.5 -119.85 L-221.8 -119.25 -221.75 -119.35 Q-222.25 -118.3 -222.9 -117.3 -223.85 -115.1 -222.3 -113.1 L-222.1 -112.5 -222.1 -112.2 Q-220.55 -110.7 -218.75 -110.2 -217.4 -109.9 -215.8 -110.55 L-218.15 -110.9 Q-218.5 -110.95 -218.75 -111.2 L-219.35 -111.85 -219.5 -112.1 -219.7 -113.0 -220.15 -114.35 -220.15 -114.6 -219.95 -115.55 -219.55 -116.1 -217.5 -117.45 -217.4 -117.5 -215.7 -117.95 -215.65 -117.95 Q-213.8 -118.2 -212.3 -116.9 -211.1 -115.95 -210.15 -114.3 -209.95 -113.95 -210.05 -113.5 -210.6 -111.7 -211.6 -109.9 L-211.6 -109.85 Q-212.05 -108.65 -213.35 -107.8 -214.4 -107.15 -215.8 -106.85 L-215.85 -106.85 -217.85 -106.6 -217.9 -106.6 Q-220.75 -106.45 -223.25 -108.4 L-223.2 -108.4 Q-226.95 -111.1 -227.65 -115.1 L-227.7 -115.2 Q-228.0 -118.2 -226.4 -120.9 L-226.4 -120.85 Q-224.45 -124.55 -220.2 -126.45 -216.6 -128.15 -212.6 -127.85 L-212.1 -127.65 -210.5 -126.6 -210.45 -126.6 -209.85 -126.25 -209.45 -126.9 -209.4 -127.0 -209.15 -127.6 -209.1 -134.85 -214.75 -138.5 -215.1 -138.9 -215.2 -139.35 Q-215.15 -141.0 -216.2 -142.6 L-217.45 -144.05 -217.6 -144.2 Q-220.6 -146.45 -223.3 -149.15 L-223.55 -149.5 -223.6 -149.95 -223.05 -153.25 Q-221.65 -160.05 -217.9 -166.05 -215.75 -169.75 -213.25 -173.05 -211.75 -175.0 -209.65 -176.25 L-209.6 -176.3 Q-207.75 -177.65 -205.5 -178.5 L-204.95 -178.55 -201.2 -177.7 Q-196.1 -176.45 -193.15 -171.45 L-193.0 -170.75 -193.25 -169.85 Q-193.1 -169.1 -193.1 -168.2 L-193.1 -168.15 Q-193.15 -166.35 -194.3 -164.55 -196.0 -162.0 -198.9 -160.7 -200.65 -159.9 -202.4 -160.75 L-202.45 -160.75 Q-204.0 -161.65 -204.95 -162.8 -206.05 -164.2 -206.7 -165.75 L-206.8 -166.2 -206.7 -166.6 -204.95 -169.15 -203.3 -170.75 -202.65 -170.9 -202.1 -170.65 -199.45 -167.95 -199.25 -167.75 -198.8 -168.9 -200.6 -171.45 -203.05 -171.75 -203.1 -171.75 Q-208.1 -171.95 -211.75 -167.65 L-215.15 -160.85 -217.7 -151.55 -211.7 -153.55 -202.6 -156.75 -202.65 -157.6 -202.6 -158.25 -202.15 -158.7 -201.5 -158.75 -198.15 -158.2 -182.9 -160.75 -182.95 -160.7 Q-178.4 -161.5 -173.25 -160.95 L-166.65 -160.35 Q-165.0 -160.2 -161.85 -159.2 L-157.1 -157.7 Q-155.15 -157.1 -153.65 -156.0 L-149.75 -152.6 -149.2 -152.1 -125.85 -150.55 Q-103.75 -149.45 -67.6 -149.6 -31.1 -149.8 25.45 -156.15 L38.2 -158.1 Q75.25 -163.75 110.1 -167.45 L129.15 -169.1 126.75 -175.15 Q124.75 -179.3 127.45 -187.05 L127.85 -187.55 128.45 -187.75 129.05 -187.5 129.4 -186.95 130.25 -182.7 130.25 -182.65 Q130.5 -180.9 131.35 -179.05 132.15 -177.35 134.35 -176.0 L134.55 -175.8 Q135.25 -175.1 136.5 -174.7 139.65 -173.75 142.95 -173.75 152.45 -173.85 161.95 -175.35 162.45 -175.4 162.9 -175.6 L163.15 -175.65 Q169.75 -176.8 178.0 -179.6 L181.5 -188.45 Q181.9 -189.6 181.85 -191.1 181.65 -196.05 178.3 -199.35 L177.35 -199.6 Q175.95 -200.1 174.55 -200.75 L174.5 -200.75 174.45 -200.8 Q170.85 -201.85 168.15 -199.2 167.9 -198.95 167.55 -198.9 L167.05 -198.85 Q164.95 -196.3 164.6 -193.5 164.3 -190.9 166.4 -188.05 L166.45 -192.8 166.65 -193.4 167.5 -194.35 167.75 -194.5 168.85 -194.85 Q169.65 -195.4 170.6 -195.7 L170.9 -195.75 172.2 -195.7 172.9 -195.35 175.0 -192.65 175.05 -192.55 Q175.65 -191.55 175.9 -190.3 L175.9 -190.35 Q176.45 -187.9 175.1 -185.8 173.95 -184.0 171.9 -182.5 171.55 -182.25 171.2 -182.3 168.4 -182.65 165.8 -183.85 164.1 -184.2 162.85 -185.75 161.75 -187.05 161.2 -188.9 L161.2 -188.85 Q160.7 -190.25 160.5 -191.75 L160.55 -191.7 Q159.85 -195.55 162.05 -199.3 L162.05 -199.25 Q165.0 -204.75 170.5 -206.4 L170.6 -206.4 Q174.6 -207.25 178.55 -205.6 183.8 -203.45 187.15 -197.95 189.4 -194.3 190.05 -190.1 L190.75 -190.6 190.7 -190.55 Q192.0 -191.65 193.5 -191.95 L196.15 -192.5 Q196.5 -192.55 196.85 -192.25 L198.55 -190.95 198.55 -190.9 Q200.95 -188.95 201.3 -185.1 L201.2 -184.55 200.9 -184.0 200.55 -182.95 200.55 -182.9 Q200.05 -181.75 199.0 -180.85 L199.0 -180.8 197.35 -179.75 196.8 -178.4 196.8 -178.35 196.5 -178.0 199.3 -177.5 Q200.0 -178.3 201.15 -178.45 202.6 -178.65 203.7 -177.7 L203.75 -177.65 204.65 -176.35 Q206.7 -175.8 208.7 -174.6 L211.9 -172.8 214.15 -171.0 216.25 -169.05 217.65 -167.2 217.65 -167.15 218.65 -164.8 218.65 -164.75 218.9 -164.2 218.85 -164.2 219.25 -162.6 219.3 -160.25 219.3 -160.1 218.7 -153.0 Q220.55 -153.75 222.7 -153.9 L222.75 -153.9 Q227.05 -154.3 230.45 -152.3 L230.5 -152.3 Q233.0 -150.8 234.2 -148.2 L234.25 -148.1 Q235.6 -144.45 233.85 -140.45 232.65 -137.7 230.3 -136.45 L230.2 -136.4 228.45 -135.65 228.35 -135.65 225.9 -135.3 Q224.5 -135.35 223.6 -136.05 221.85 -137.1 220.5 -138.45 220.2 -138.75 220.2 -139.15 220.2 -140.95 220.75 -142.3 L220.7 -142.3 Q221.35 -144.0 222.95 -144.7 L223.05 -144.75 Q223.8 -145.2 224.7 -145.25 L224.75 -145.25 224.8 -145.25 227.1 -145.15 227.8 -144.8 228.3 -144.2 228.45 -143.85 228.75 -142.55 229.0 -141.9 229.0 -141.25 228.85 -140.75 228.45 -140.1 226.9 -138.85 Q228.3 -139.1 229.15 -139.85 230.35 -141.1 230.95 -143.05 L230.85 -143.2 Q230.65 -143.55 230.7 -143.85 231.0 -146.25 229.2 -147.65 228.25 -148.1 227.4 -148.65 L226.9 -149.0 Q223.9 -149.5 221.4 -147.7 L220.15 -146.5 218.0 -143.1 210.05 94.2 -209.9 94.2 210.05 94.2 208.8 132.3 215.05 133.05 Q217.5 133.05 220.65 136.3 L220.9 136.9 220.8 137.5 220.35 137.9 219.7 138.0 217.45 137.35 215.75 137.05 215.7 137.05 Q214.85 137.05 213.9 137.6 L213.6 137.75 212.9 138.2 212.85 138.25 212.8 138.25 213.55 138.45 Q215.65 138.95 216.9 140.45 217.85 141.6 217.95 143.1 L217.95 143.15 Q217.95 145.15 216.45 146.75 215.4 147.85 214.0 148.05 L213.85 148.05 213.0 148.05 211.75 147.85 Q210.85 147.5 210.55 146.85 L209.6 145.4 209.5 145.0 209.55 144.65 Q209.85 143.75 210.4 143.25 211.05 142.4 212.15 142.3 L212.05 142.35 213.15 142.4 Q213.65 142.55 214.2 142.85 L214.7 143.45 214.8 143.75 214.85 143.95 214.85 144.05 214.85 144.4 214.9 144.35 214.8 144.55 214.8 144.6 214.8 144.7 214.7 145.0 214.7 144.9 214.65 144.65 213.8 145.35 213.05 145.4 212.65 145.55 212.8 145.7 212.6 146.0 213.0 146.05 213.7 146.05 214.45 145.8 215.0 145.4 215.0 145.35 Q215.8 144.5 215.95 143.55 L215.55 142.3 214.95 141.6 214.8 141.35 Q213.4 140.5 211.8 140.9 L210.95 141.3 208.8 143.0 207.1 147.15 Q206.5 150.6 205.25 153.45 204.75 155.55 204.4 158.05 L207.75 161.95 209.05 162.85 Q211.6 164.05 214.25 163.1 L214.55 162.75 215.75 161.7 Q217.35 160.1 216.65 157.9 L216.85 157.5 215.95 155.85 215.9 155.8 214.75 154.65 Q213.45 153.75 211.35 154.15 L211.6 154.95 212.0 154.65 211.8 155.1 213.55 155.2 213.9 155.4 214.35 155.9 214.5 156.25 214.65 156.75 214.55 157.45 214.5 158.5 214.3 158.9 214.1 159.25 213.85 159.6 213.45 159.8 211.7 160.15 211.5 160.15 210.2 159.95 210.25 160.0 Q208.75 159.65 208.05 158.35 L208.05 158.3 Q207.4 157.2 207.2 155.9 207.15 155.5 207.4 155.2 208.15 153.95 209.4 153.0 L209.45 153.0 209.5 152.95 Q210.1 152.2 211.3 152.05 L213.25 152.0 213.3 152.0 214.7 152.35 214.75 152.35 Q216.8 153.0 218.1 155.0 219.95 157.85 219.4 160.95 L219.35 161.05 Q218.75 163.15 216.95 164.7 214.7 166.55 211.65 166.9 212.3 168.45 212.55 170.15 L212.55 170.2 Q213.0 173.45 211.65 176.35 L211.6 176.45 Q209.25 180.25 204.5 181.55 L204.55 181.5 Q201.2 182.45 198.45 181.2 L198.45 181.25 Q197.35 180.75 196.4 180.15 195.05 179.35 194.35 178.25 L194.3 178.2 Q193.35 176.85 193.35 175.55 193.0 173.45 193.25 171.45 L192.4 172.35 192.3 172.4 Q191.1 173.3 189.75 173.4 L189.65 173.4 Q187.6 173.35 186.15 171.85 L186.1 171.8 Q184.9 170.75 184.8 169.35 L184.8 168.3 Q184.8 167.6 185.1 167.05 L185.1 167.0 185.4 166.55 Q185.6 166.2 185.95 166.0 L186.65 165.5 Q152.2 166.65 -94.1 165.9 L-94.1 166.35 -94.5 166.9 -95.1 167.1 -165.75 166.1 -166.6 166.7 -166.55 166.65 -170.6 169.15 -170.75 169.2 -172.1 169.8 -173.3 169.95 -175.6 169.85 -175.9 172.3 Q-176.75 175.45 -179.0 177.3 -180.7 178.6 -182.8 178.85 L-182.9 178.85 Q-185.85 178.85 -188.15 176.65 L-188.1 176.65 Q-189.8 175.05 -190.05 173.1 L-190.1 171.6 -190.1 171.55 Q-190.1 170.5 -189.75 169.8 -189.35 168.75 -188.55 168.25 -187.45 167.25 -186.1 166.75 L-185.4 166.7 Q-184.2 167.1 -183.35 167.85 -182.25 168.75 -182.15 170.15 L-182.15 170.2 -182.2 171.45 -182.25 171.65 -182.85 173.15 -183.1 173.5 -183.45 173.7 -183.95 173.9 -184.45 173.95 -185.25 173.8 -185.95 173.8 -186.25 173.65 -186.8 173.3 -185.45 174.8 -184.7 174.9 -182.15 174.8 -181.05 173.9 -180.7 173.6 Q-179.8 171.85 -180.3 169.9 L-180.3 169.95 -180.75 168.95 -181.8 167.65 -182.35 167.35 -182.4 167.3 -184.65 166.0 -189.55 165.7 -190.5 165.8 -190.75 165.8 -190.85 165.8 -191.05 165.85 Q-195.6 166.45 -199.85 167.7 L-199.85 167.75 Q-201.35 168.1 -202.6 169.0 L-202.55 169.0 -203.15 169.6 -203.3 169.8 Q-203.95 170.6 -204.1 171.35 L-204.1 173.0 -203.9 175.15 Q-203.9 175.5 -204.05 175.75 L-204.55 176.15 -205.2 176.15 -205.7 175.8 Q-208.2 172.35 -207.8 170.05 -207.5 168.05 -207.4 164.05 L-207.4 164.0 -207.25 163.0 -208.15 161.1 -208.15 161.05 -208.55 160.45 -208.6 160.4 Q-209.1 159.85 -209.65 159.75 L-210.1 159.5 -210.35 159.1 -211.6 155.35 -212.05 155.35 -212.3 155.35 -214.5 155.55 -215.7 155.8 -216.3 155.8 Q-218.95 155.0 -220.85 153.0 -223.1 150.65 -223.5 147.8 -223.8 145.55 -222.85 143.7 L-222.8 143.65 Q-221.3 141.1 -218.1 140.35 L-214.15 140.55 -214.1 140.55 -212.85 141.25 -211.45 142.55 Q-210.9 143.3 -210.8 144.15 L-210.8 143.75 -209.9 94.2 M196.75 -185.95 L196.7 -186.55 196.45 -186.7 196.55 -186.55 196.75 -185.95 M195.35 -187.1 L195.6 -187.15 Q193.35 -188.1 190.85 -186.4 L188.6 -183.95 Q187.7 -181.9 187.15 -179.8 L187.15 -179.85 186.75 -178.2 187.2 -178.2 191.7 -178.25 Q191.0 -179.05 190.85 -180.2 190.65 -181.75 191.45 -182.85 L191.5 -182.9 192.2 -183.7 192.2 -184.5 192.5 -185.1 194.0 -186.45 193.95 -186.35 Q194.6 -186.9 195.35 -187.1 M189.05 166.6 Q189.55 167.0 189.6 167.65 L189.5 168.25 189.1 169.2 188.8 169.3 188.2 169.2 187.9 169.2 187.65 169.0 187.4 168.25 187.1 168.35 187.3 168.2 187.4 168.25 187.2 167.6 187.05 167.7 186.95 167.85 186.9 167.9 186.9 167.95 186.8 168.4 186.8 168.55 186.8 169.15 187.0 169.75 187.5 170.35 187.55 170.4 Q188.3 171.2 189.3 171.35 L190.5 171.0 190.8 170.7 190.45 170.2 190.5 170.25 190.3 169.85 190.75 169.55 Q190.95 169.4 191.2 169.35 L191.25 168.85 Q191.4 168.35 191.9 168.2 L192.1 168.15 191.95 167.3 191.1 168.25 191.0 167.6 191.65 167.25 191.45 167.3 191.95 167.15 191.6 166.4 190.75 165.3 189.15 165.4 189.7 165.85 190.15 166.35 188.85 166.4 189.05 166.6 M191.25 169.5 L190.75 169.8 190.9 170.65 191.25 170.4 191.5 170.3 191.6 170.1 191.35 169.75 191.25 169.5 M195.8 165.45 L194.55 165.6 Q194.8 166.95 194.6 168.35 L194.7 168.45 194.85 169.7 Q195.8 169.05 196.75 168.75 L196.9 168.7 198.15 168.5 Q199.3 168.45 200.45 169.05 201.4 169.4 202.1 170.2 L202.15 170.2 203.75 172.35 203.9 172.7 203.9 173.15 203.75 173.9 203.6 174.35 202.65 175.55 202.2 176.3 201.75 176.6 201.05 176.9 200.4 177.0 197.6 176.35 Q199.05 177.8 200.65 178.05 202.7 178.3 204.95 177.35 L205.0 177.1 Q205.1 176.75 205.45 176.55 207.85 175.1 207.7 172.3 207.45 171.1 207.35 169.9 L207.35 169.25 Q205.75 166.55 202.95 165.45 L202.1 165.15 200.35 164.95 200.1 164.95 200.05 164.95 198.4 165.15 195.8 165.45 M-218.5 144.1 Q-219.8 144.9 -219.75 146.4 L-219.55 147.8 -219.5 148.2 Q-218.5 149.85 -216.5 150.5 L-215.4 150.65 -211.15 150.15 -210.75 149.55 -210.8 147.5 -211.1 147.85 -213.15 149.0 -215.65 148.85 -215.75 148.85 -216.85 148.05 -216.9 148.0 -217.95 146.65 -218.1 145.9 -217.9 145.15 -217.85 145.0 -217.25 144.25 -217.0 143.75 Q-216.85 143.55 -216.55 143.45 L-216.05 143.25 -218.05 143.6 -218.5 144.1" fill="url(#gradient1)" fill-rule="evenodd" stroke="none"/>
  </g>
  <defs>
    <linearGradient gradientTransform="matrix(0.2076, 0.1062, -0.1077, 0.2106, -1.35, -15.0)" gradientUnits="userSpaceOnUse" id="gradient0" spreadMethod="pad" x1="-819.2" x2="819.2">
      <stop offset="0.0" stop-color="#000000" stop-opacity="0.34117648"/>
      <stop offset="0.9882352941176471" stop-color="#000000" stop-opacity="0.7607843"/>
    </linearGradient>
    <linearGradient gradientTransform="matrix(0.2076, 0.1062, -0.1077, 0.2106, 1.15, -14.25)" gradientUnits="userSpaceOnUse" id="gradient1" spreadMethod="pad" x1="-819.2" x2="819.2">
      <stop offset="0.0" stop-color="#000000" stop-opacity="0.44313726"/>
      <stop offset="0.9882352941176471" stop-color="#000000" stop-opacity="0.7607843"/>
    </linearGradient>
  </defs>
</svg>
