<?xml version="1.0" encoding="UTF-8" standalone="no"?>
<svg xmlns:xlink="http://www.w3.org/1999/xlink" height="265.0px" width="194.95px" xmlns="http://www.w3.org/2000/svg">
  <g transform="matrix(1, 0, 0, 1, 0.0, 0.0)">
    <path d="M189.5 24.65 Q190.35 27.55 190.65 31.0 L190.7 31.75 190.75 227.85 Q191.1 234.9 189.5 240.35 L189.45 240.35 Q184.35 261.45 153.35 260.75 L58.6 260.8 57.9 260.8 41.8 260.8 41.6 260.8 Q10.6 261.5 5.5 240.4 3.85 234.95 4.2 227.9 L4.25 204.6 4.25 203.95 4.2 33.8 4.2 33.55 Q4.3 28.65 5.5 24.65 L5.55 24.6 Q10.5 4.5 39.15 4.2 L153.15 4.2 153.35 4.2 Q184.35 3.5 189.45 24.6 L189.5 24.65 M186.5 31.35 Q186.25 28.4 185.5 25.8 180.7 7.7 153.35 8.35 L153.25 8.35 39.15 8.35 Q14.1 8.6 9.5 25.8 8.45 29.35 8.35 33.65 L8.35 33.8 8.4 203.95 8.4 204.4 8.35 228.1 Q8.05 234.35 9.5 239.2 L9.5 239.25 Q14.25 257.3 41.6 256.65 L41.7 256.65 57.9 256.65 58.4 256.65 153.35 256.6 Q180.7 257.25 185.5 239.2 L185.5 239.15 Q186.9 234.3 186.6 228.05 L186.55 31.75 186.5 31.35" fill="#ffffff" fill-opacity="0.6627451" fill-rule="evenodd" stroke="none"/>
    <path d="M189.5 24.65 L189.45 24.6 Q184.35 3.5 153.35 4.2 L153.15 4.2 39.15 4.2 Q10.5 4.5 5.55 24.6 L5.5 24.65 Q4.3 28.65 4.2 33.55 L4.2 33.8 4.25 203.95 4.25 204.6 4.2 227.9 Q3.85 234.95 5.5 240.4 10.6 261.5 41.6 260.8 L41.8 260.8 57.9 260.8 58.6 260.8 153.35 260.75 Q184.35 261.45 189.45 240.35 L189.5 240.35 Q191.1 234.9 190.75 227.85 L190.7 31.75 190.65 31.0 Q190.35 27.55 189.5 24.65 M193.45 23.5 Q194.45 26.8 194.8 30.6 L194.85 31.75 194.9 228.25 Q195.2 235.7 193.45 241.5 L193.45 241.55 Q188.0 265.75 153.05 264.9 L58.75 264.95 57.9 264.95 41.9 264.95 Q6.95 265.8 1.55 241.6 L1.5 241.55 Q-0.25 235.7 0.05 228.3 L0.1 204.75 0.1 203.95 0.05 33.8 0.05 33.45 Q0.2 27.95 1.55 23.5 L1.55 23.45 Q6.85 0.35 39.1 0.05 L153.05 0.05 Q188.0 -0.8 193.45 23.4 L193.45 23.5" fill="#000000" fill-rule="evenodd" stroke="none"/>
  </g>
</svg>
