<?xml version="1.0" encoding="UTF-8" standalone="no"?>
<svg xmlns:xlink="http://www.w3.org/1999/xlink" height="18.8px" width="93.2px" xmlns="http://www.w3.org/2000/svg">
  <g transform="matrix(1, 0, 0, 1, -17.4, -0.3)">
    <path d="M107.2 4.35 L104.95 4.35 100.7 16.85 Q100.4 17.65 99.55 18.1 L97.85 18.6 Q97.05 18.6 96.5 18.1 96.0 17.65 96.25 16.85 L100.5 4.35 98.25 4.35 Q97.45 4.35 96.9 3.85 96.35 3.35 96.65 2.55 96.9 1.75 97.75 1.25 98.65 0.8 99.45 0.8 L108.4 0.8 Q109.2 0.8 109.75 1.25 110.3 1.75 110.0 2.55 109.75 3.35 108.9 3.85 L107.2 4.35 M76.15 15.05 L82.85 15.05 84.05 11.5 77.35 11.5 Q76.55 11.5 76.0 11.0 75.5 10.5 75.75 9.7 L78.2 2.55 Q78.45 1.75 79.3 1.25 80.2 0.8 81.0 0.8 L89.95 0.8 Q90.75 0.8 91.3 1.25 91.85 1.75 91.55 2.55 91.3 3.35 90.45 3.85 89.55 4.35 88.75 4.35 L82.05 4.35 80.85 7.9 87.5 7.9 Q88.35 7.9 88.9 8.4 89.4 8.9 89.15 9.7 L86.7 16.85 Q86.45 17.65 85.55 18.1 84.7 18.6 83.9 18.6 L74.95 18.6 Q74.15 18.6 73.6 18.1 73.05 17.65 73.35 16.85 73.6 16.05 74.5 15.5 75.35 15.05 76.15 15.05 M72.85 1.25 Q73.4 1.75 73.1 2.55 L68.25 16.85 Q68.0 17.65 67.1 18.1 L65.45 18.6 56.5 18.6 Q55.7 18.6 55.15 18.1 54.6 17.65 54.9 16.85 L59.75 2.55 Q60.0 1.75 60.85 1.25 61.75 0.8 62.55 0.8 L71.5 0.8 Q72.3 0.8 72.85 1.25 M63.6 4.35 L59.95 15.05 64.4 15.05 68.05 4.35 63.6 4.35 M54.4 1.25 Q54.95 1.75 54.65 2.55 L49.8 16.85 Q49.55 17.65 48.65 18.1 L47.0 18.6 38.05 18.6 Q37.25 18.6 36.7 18.1 36.15 17.65 36.45 16.85 L41.3 2.55 Q41.55 1.75 42.4 1.25 43.3 0.8 44.1 0.8 L53.05 0.8 Q53.85 0.8 54.4 1.25 M45.15 4.35 L41.5 15.05 45.95 15.05 49.6 4.35 45.15 4.35 M34.0 2.55 L32.15 7.9 Q33.0 7.9 33.55 8.4 34.05 8.9 33.8 9.7 L31.35 16.85 Q31.1 17.65 30.2 18.1 29.35 18.6 28.55 18.6 L19.6 18.6 Q18.8 18.6 18.25 18.1 17.7 17.65 18.0 16.85 L22.85 2.55 Q23.1 1.75 23.95 1.25 24.85 0.8 25.65 0.8 L32.35 0.8 Q33.2 0.8 33.7 1.25 34.25 1.75 34.0 2.55 M26.7 4.35 L25.5 7.9 27.7 7.9 28.9 4.35 26.7 4.35 M24.25 11.5 L23.05 15.05 27.5 15.05 28.7 11.5 24.25 11.5" fill="#ffffff" fill-rule="evenodd" stroke="none"/>
    <path d="M107.2 4.35 L104.95 4.35 100.7 16.85 Q100.4 17.65 99.55 18.1 L97.85 18.6 Q97.05 18.6 96.5 18.1 96.0 17.65 96.25 16.85 L100.5 4.35 98.25 4.35 Q97.45 4.35 96.9 3.85 96.35 3.35 96.65 2.55 96.9 1.75 97.75 1.25 98.65 0.8 99.45 0.8 L108.4 0.8 Q109.2 0.8 109.75 1.25 110.3 1.75 110.0 2.55 109.75 3.35 108.9 3.85 L107.2 4.35 M74.95 18.6 Q74.15 18.6 73.6 18.1 73.05 17.65 73.35 16.85 73.6 16.05 74.5 15.5 75.35 15.05 76.15 15.05 M72.85 1.25 Q73.4 1.75 73.1 2.55 L68.25 16.85 Q68.0 17.65 67.1 18.1 L65.45 18.6 56.5 18.6 Q55.7 18.6 55.15 18.1 54.6 17.65 54.9 16.85 L59.75 2.55 Q60.0 1.75 60.85 1.25 61.75 0.8 62.55 0.8 L71.5 0.8 Q72.3 0.8 72.85 1.25 M63.6 4.35 L59.95 15.05 64.4 15.05 68.05 4.35 63.6 4.35 M54.4 1.25 Q54.95 1.75 54.65 2.55 L49.8 16.85 Q49.55 17.65 48.65 18.1 L47.0 18.6 38.05 18.6 Q37.25 18.6 36.7 18.1 36.15 17.65 36.45 16.85 L41.3 2.55 Q41.55 1.75 42.4 1.25 43.3 0.8 44.1 0.8 L53.05 0.8 Q53.85 0.8 54.4 1.25 M45.15 4.35 L41.5 15.05 45.95 15.05 49.6 4.35 45.15 4.35 M34.0 2.55 L32.15 7.9 Q33.0 7.9 33.55 8.4 34.05 8.9 33.8 9.7 L31.35 16.85 Q31.1 17.65 30.2 18.1 29.35 18.6 28.55 18.6 L19.6 18.6 Q18.8 18.6 18.25 18.1 17.7 17.65 18.0 16.85 L22.85 2.55 Q23.1 1.75 23.95 1.25 24.85 0.8 25.65 0.8 L32.35 0.8 Q33.2 0.8 33.7 1.25 34.25 1.75 34.0 2.55 M26.7 4.35 L25.5 7.9 27.7 7.9 28.9 4.35 26.7 4.35 M24.25 11.5 L23.05 15.05 27.5 15.05 28.7 11.5 24.25 11.5" fill="none" stroke="#d29d08" stroke-linecap="round" stroke-linejoin="round" stroke-width="1.0"/>
    <path d="M76.15 15.05 L82.85 15.05 84.05 11.5 77.35 11.5 Q76.55 11.5 76.0 11.0 75.5 10.5 75.75 9.7 L78.2 2.55 Q78.45 1.75 79.3 1.25 80.2 0.8 81.0 0.8 L89.95 0.8 Q90.75 0.8 91.3 1.25 91.85 1.75 91.55 2.55 91.3 3.35 90.45 3.85 89.55 4.35 88.75 4.35 L82.05 4.35 80.85 7.9 87.5 7.9 Q88.35 7.9 88.9 8.4 89.4 8.9 89.15 9.7 L86.7 16.85 Q86.45 17.65 85.55 18.1 84.7 18.6 83.9 18.6 L74.95 18.6" fill="none" stroke="#d29d08" stroke-linecap="round" stroke-linejoin="round" stroke-width="1.0"/>
  </g>
</svg>
