<?xml version="1.0" encoding="UTF-8" standalone="no"?>
<svg xmlns:xlink="http://www.w3.org/1999/xlink" height="18.1px" width="133.85px" xmlns="http://www.w3.org/2000/svg">
  <g transform="matrix(1, 0, 0, 1, -9.5, 1.65)">
    <path d="M24.45 -0.75 Q24.85 -0.4 24.65 0.25 L23.75 1.3 22.4 1.7 17.05 1.7 16.05 4.55 21.4 4.55 Q22.05 4.55 22.5 4.95 22.9 5.35 22.7 5.95 L21.8 7.0 Q21.1 7.4 20.45 7.4 L15.1 7.4 14.1 10.25 19.45 10.25 Q20.15 10.25 20.55 10.6 21.0 11.05 20.75 11.7 20.55 12.35 19.85 12.7 L18.5 13.1 11.35 13.1 Q10.7 13.1 10.25 12.7 9.85 12.35 10.05 11.7 L13.95 0.25 Q14.15 -0.4 14.85 -0.75 15.55 -1.15 16.2 -1.15 L23.35 -1.15 Q24.0 -1.15 24.45 -0.75 M39.2 -0.75 Q39.6 -0.4 39.4 0.25 L35.5 11.7 34.6 12.7 Q33.9 13.1 33.25 13.1 L31.45 13.1 30.95 14.55 30.05 15.55 Q29.35 15.95 28.7 15.95 28.05 15.95 27.6 15.55 27.2 15.15 27.4 14.55 L27.9 13.1 26.1 13.1 Q25.45 13.1 25.0 12.7 24.6 12.35 24.8 11.7 L28.7 0.25 Q28.9 -0.4 29.6 -0.75 30.3 -1.15 30.95 -1.15 L38.1 -1.15 Q38.75 -1.15 39.2 -0.75 M54.0 -0.75 Q54.4 -0.4 54.2 0.25 L50.3 11.7 Q50.1 12.35 49.4 12.7 48.7 13.1 48.05 13.1 L40.9 13.1 Q40.25 13.1 39.8 12.7 39.4 12.35 39.6 11.7 L43.5 0.25 Q43.7 -0.4 44.4 -0.75 45.1 -1.15 45.75 -1.15 46.45 -1.15 46.8 -0.8 47.3 -0.4 47.05 0.25 L43.65 10.25 47.2 10.25 50.6 0.25 Q50.85 -0.4 51.55 -0.8 L52.9 -1.15 Q53.55 -1.15 54.0 -0.75 M68.75 -0.75 Q69.15 -0.4 68.95 0.25 L68.05 1.3 Q67.35 1.7 66.7 1.7 L64.9 1.7 61.95 10.25 63.75 10.25 Q64.45 10.25 64.85 10.6 65.3 11.05 65.05 11.7 L64.15 12.7 Q63.45 13.1 62.8 13.1 L55.65 13.1 Q55.0 13.1 54.55 12.7 54.15 12.35 54.35 11.7 54.6 11.05 55.3 10.6 55.95 10.25 56.6 10.25 L58.4 10.25 61.35 1.7 59.55 1.7 Q58.85 1.7 58.45 1.3 58.05 0.9 58.25 0.25 58.45 -0.4 59.15 -0.75 59.85 -1.15 60.5 -1.15 L67.65 -1.15 Q68.3 -1.15 68.75 -0.75 M75.25 -1.15 L82.4 -1.15 Q83.05 -1.15 83.5 -0.75 83.9 -0.4 83.7 0.25 L80.8 8.85 79.85 9.85 78.5 10.25 73.15 10.25 72.7 11.7 71.7 12.75 70.4 13.1 Q69.75 13.1 69.3 12.7 68.9 12.35 69.1 11.7 L73.0 0.25 Q73.2 -0.4 73.9 -0.75 74.6 -1.15 75.25 -1.15 M100.05 -0.75 Q100.5 -0.4 100.25 0.25 L96.4 11.7 Q96.15 12.35 95.5 12.7 L94.15 13.1 Q93.45 13.1 93.05 12.7 92.6 12.35 92.85 11.7 L96.25 1.7 94.45 1.7 91.05 11.7 Q90.8 12.35 90.15 12.7 89.45 13.1 88.8 13.1 88.1 13.1 87.7 12.7 87.25 12.35 87.5 11.7 L90.9 1.7 89.1 1.7 85.7 11.7 Q85.45 12.35 84.8 12.7 L83.45 13.1 Q82.75 13.1 82.35 12.7 81.9 12.35 82.15 11.7 L86.0 0.25 86.9 -0.75 Q87.6 -1.15 88.3 -1.15 L99.0 -1.15 Q99.65 -1.15 100.05 -0.75 M113.05 -0.75 Q113.45 -0.4 113.25 0.25 L112.35 1.3 Q111.65 1.7 111.0 1.7 L105.65 1.7 104.65 4.55 110.0 4.55 Q110.65 4.55 111.1 4.95 111.5 5.35 111.3 5.95 L110.4 7.0 109.05 7.4 103.7 7.4 102.7 10.25 108.05 10.25 Q108.75 10.25 109.15 10.6 109.6 11.05 109.35 11.7 109.15 12.35 108.45 12.7 L107.1 13.1 99.95 13.1 Q99.3 13.1 98.85 12.7 98.45 12.35 98.65 11.7 L102.55 0.25 Q102.75 -0.4 103.45 -0.75 104.15 -1.15 104.8 -1.15 L111.95 -1.15 Q112.6 -1.15 113.05 -0.75 M119.55 -1.15 L126.7 -1.15 Q127.35 -1.15 127.8 -0.75 128.2 -0.4 128.0 0.25 L124.1 11.7 Q123.9 12.35 123.2 12.7 L121.85 13.1 120.75 12.75 Q120.3 12.35 120.55 11.7 L123.95 1.7 120.4 1.7 117.0 11.7 116.05 12.75 114.7 13.1 Q114.05 13.1 113.6 12.7 113.2 12.35 113.4 11.7 L117.3 0.25 Q117.5 -0.4 118.2 -0.75 L119.55 -1.15 M142.6 -0.75 Q143.0 -0.4 142.8 0.25 L141.9 1.3 140.55 1.7 138.75 1.7 135.35 11.7 134.45 12.7 133.1 13.1 Q132.4 13.1 132.0 12.7 131.55 12.35 131.8 11.7 L135.2 1.7 133.4 1.7 Q132.7 1.7 132.3 1.3 131.9 0.9 132.1 0.25 132.3 -0.4 133.0 -0.75 L134.35 -1.15 141.5 -1.15 Q142.15 -1.15 142.6 -0.75 M77.7 7.4 L79.65 1.7 76.1 1.7 74.15 7.4 77.7 7.4 M31.8 1.7 L28.85 10.25 32.4 10.25 35.35 1.7 31.8 1.7" fill="#ffffff" fill-rule="evenodd" stroke="none"/>
    <path d="M24.45 -0.75 Q24.85 -0.4 24.65 0.25 L23.75 1.3 22.4 1.7 17.05 1.7 16.05 4.55 21.4 4.55 Q22.05 4.55 22.5 4.95 22.9 5.35 22.7 5.95 L21.8 7.0 Q21.1 7.4 20.45 7.4 L15.1 7.4 14.1 10.25 19.45 10.25 Q20.15 10.25 20.55 10.6 21.0 11.05 20.75 11.7 20.55 12.35 19.85 12.7 L18.5 13.1 11.35 13.1 Q10.7 13.1 10.25 12.7 9.85 12.35 10.05 11.7 L13.95 0.25 Q14.15 -0.4 14.85 -0.75 15.55 -1.15 16.2 -1.15 L23.35 -1.15 Q24.0 -1.15 24.45 -0.75 M39.2 -0.75 Q39.6 -0.4 39.4 0.25 L35.5 11.7 34.6 12.7 Q33.9 13.1 33.25 13.1 L31.45 13.1 30.95 14.55 30.05 15.55 Q29.35 15.95 28.7 15.95 28.05 15.95 27.6 15.55 27.2 15.15 27.4 14.55 L27.9 13.1 26.1 13.1 Q25.45 13.1 25.0 12.7 24.6 12.35 24.8 11.7 L28.7 0.25 Q28.9 -0.4 29.6 -0.75 30.3 -1.15 30.95 -1.15 L38.1 -1.15 Q38.75 -1.15 39.2 -0.75 M54.0 -0.75 Q54.4 -0.4 54.2 0.25 L50.3 11.7 Q50.1 12.35 49.4 12.7 48.7 13.1 48.05 13.1 L40.9 13.1 Q40.25 13.1 39.8 12.7 39.4 12.35 39.6 11.7 L43.5 0.25 Q43.7 -0.4 44.4 -0.75 45.1 -1.15 45.75 -1.15 46.45 -1.15 46.8 -0.8 47.3 -0.4 47.05 0.25 L43.65 10.25 47.2 10.25 50.6 0.25 Q50.85 -0.4 51.55 -0.8 L52.9 -1.15 Q53.55 -1.15 54.0 -0.75 M68.75 -0.75 Q69.15 -0.4 68.95 0.25 L68.05 1.3 Q67.35 1.7 66.7 1.7 L64.9 1.7 61.95 10.25 63.75 10.25 Q64.45 10.25 64.85 10.6 65.3 11.05 65.05 11.7 L64.15 12.7 Q63.45 13.1 62.8 13.1 L55.65 13.1 Q55.0 13.1 54.55 12.7 54.15 12.35 54.35 11.7 54.6 11.05 55.3 10.6 55.95 10.25 56.6 10.25 L58.4 10.25 61.35 1.7 59.55 1.7 Q58.85 1.7 58.45 1.3 58.05 0.9 58.25 0.25 58.45 -0.4 59.15 -0.75 59.85 -1.15 60.5 -1.15 L67.65 -1.15 Q68.3 -1.15 68.75 -0.75 M75.25 -1.15 L82.4 -1.15 Q83.05 -1.15 83.5 -0.75 83.9 -0.4 83.7 0.25 L80.8 8.85 79.85 9.85 78.5 10.25 73.15 10.25 72.7 11.7 71.7 12.75 70.4 13.1 Q69.75 13.1 69.3 12.7 68.9 12.35 69.1 11.7 L73.0 0.25 Q73.2 -0.4 73.9 -0.75 74.6 -1.15 75.25 -1.15 M100.05 -0.75 Q100.5 -0.4 100.25 0.25 L96.4 11.7 Q96.15 12.35 95.5 12.7 L94.15 13.1 Q93.45 13.1 93.05 12.7 92.6 12.35 92.85 11.7 L96.25 1.7 94.45 1.7 91.05 11.7 Q90.8 12.35 90.15 12.7 89.45 13.1 88.8 13.1 88.1 13.1 87.7 12.7 87.25 12.35 87.5 11.7 L90.9 1.7 89.1 1.7 85.7 11.7 Q85.45 12.35 84.8 12.7 L83.45 13.1 Q82.75 13.1 82.35 12.7 81.9 12.35 82.15 11.7 L86.0 0.25 86.9 -0.75 Q87.6 -1.15 88.3 -1.15 L99.0 -1.15 Q99.65 -1.15 100.05 -0.75 M113.05 -0.75 Q113.45 -0.4 113.25 0.25 L112.35 1.3 Q111.65 1.7 111.0 1.7 L105.65 1.7 104.65 4.55 110.0 4.55 Q110.65 4.55 111.1 4.95 111.5 5.35 111.3 5.95 L110.4 7.0 109.05 7.4 103.7 7.4 102.7 10.25 108.05 10.25 Q108.75 10.25 109.15 10.6 109.6 11.05 109.35 11.7 109.15 12.35 108.45 12.7 L107.1 13.1 99.95 13.1 Q99.3 13.1 98.85 12.7 98.45 12.35 98.65 11.7 L102.55 0.25 Q102.75 -0.4 103.45 -0.75 104.15 -1.15 104.8 -1.15 L111.95 -1.15 Q112.6 -1.15 113.05 -0.75 M119.55 -1.15 L126.7 -1.15 Q127.35 -1.15 127.8 -0.75 128.2 -0.4 128.0 0.25 L124.1 11.7 Q123.9 12.35 123.2 12.7 L121.85 13.1 120.75 12.75 Q120.3 12.35 120.55 11.7 L123.95 1.7 120.4 1.7 117.0 11.7 116.05 12.75 114.7 13.1 Q114.05 13.1 113.6 12.7 113.2 12.35 113.4 11.7 L117.3 0.25 Q117.5 -0.4 118.2 -0.75 L119.55 -1.15 M142.6 -0.75 Q143.0 -0.4 142.8 0.25 L141.9 1.3 140.55 1.7 138.75 1.7 135.35 11.7 134.45 12.7 133.1 13.1 Q132.4 13.1 132.0 12.7 131.55 12.35 131.8 11.7 L135.2 1.7 133.4 1.7 Q132.7 1.7 132.3 1.3 131.9 0.9 132.1 0.25 132.3 -0.4 133.0 -0.75 L134.35 -1.15 141.5 -1.15 Q142.15 -1.15 142.6 -0.75 M77.7 7.4 L79.65 1.7 76.1 1.7 74.15 7.4 77.7 7.4 M31.8 1.7 L28.85 10.25 32.4 10.25 35.35 1.7 31.8 1.7" fill="none" stroke="#1e4e1d" stroke-linecap="round" stroke-linejoin="round" stroke-width="1.0"/>
  </g>
</svg>
