<?xml version="1.0" encoding="UTF-8" standalone="no"?>
<svg xmlns:xlink="http://www.w3.org/1999/xlink" height="32.15px" width="101.55px" xmlns="http://www.w3.org/2000/svg">
  <g transform="matrix(1, 0, 0, 1, -2.65, 1.65)">
    <path d="M38.9 -1.15 L46.05 -1.15 Q46.7 -1.15 47.15 -0.75 47.55 -0.4 47.35 0.25 L46.45 1.3 Q45.75 1.7 45.1 1.7 L43.3 1.7 39.9 11.7 39.0 12.7 Q38.3 13.1 37.65 13.1 36.95 13.1 36.55 12.7 36.1 12.35 36.35 11.7 L39.75 1.7 37.95 1.7 Q37.25 1.7 36.85 1.3 36.45 0.9 36.65 0.25 36.85 -0.4 37.55 -0.75 38.25 -1.15 38.9 -1.15 M27.7 -1.15 L31.25 -1.15 Q31.9 -1.15 32.35 -0.75 32.75 -0.4 32.55 0.25 L28.65 11.7 Q28.45 12.35 27.75 12.7 27.05 13.1 26.4 13.1 25.7 13.1 25.3 12.75 24.85 12.35 25.1 11.7 L25.55 10.25 22.0 10.25 21.55 11.7 20.55 12.75 19.25 13.1 Q18.6 13.1 18.15 12.7 17.75 12.35 17.95 11.7 L20.85 3.15 Q21.05 2.5 21.7 2.1 L26.25 -0.75 Q26.9 -1.15 27.7 -1.15 M9.35 -1.15 L14.7 -1.15 Q15.4 -1.15 15.75 -0.8 16.25 -0.4 16.0 0.25 L14.55 4.55 Q15.2 4.55 15.65 4.95 16.05 5.35 15.85 5.95 L13.9 11.7 13.0 12.7 Q12.3 13.1 11.65 13.1 L4.5 13.1 Q3.85 13.1 3.4 12.7 3.0 12.35 3.2 11.7 L7.1 0.25 Q7.3 -0.4 8.0 -0.75 8.7 -1.15 9.35 -1.15 M68.4 -1.15 Q69.1 -1.15 69.45 -0.8 69.95 -0.4 69.7 0.25 L66.3 10.25 71.65 10.25 Q72.35 10.25 72.75 10.6 73.2 11.05 72.95 11.7 72.75 12.35 72.05 12.7 71.35 13.1 70.7 13.1 L63.55 13.1 Q62.9 13.1 62.45 12.7 62.05 12.35 62.25 11.7 L66.15 0.25 Q66.35 -0.4 67.05 -0.75 67.75 -1.15 68.4 -1.15 M53.65 -1.15 L60.8 -1.15 Q61.45 -1.15 61.9 -0.75 62.3 -0.4 62.1 0.25 L61.2 1.3 59.85 1.7 58.05 1.7 54.65 11.7 Q54.4 12.35 53.75 12.7 L52.4 13.1 Q51.7 13.1 51.3 12.7 50.85 12.35 51.1 11.7 L54.5 1.7 52.7 1.7 Q52.0 1.7 51.6 1.3 51.2 0.9 51.4 0.25 51.6 -0.4 52.3 -0.75 53.0 -1.15 53.65 -1.15 M83.2 -1.15 L90.35 -1.15 Q91.0 -1.15 91.45 -0.75 91.85 -0.4 91.65 0.25 L90.75 1.3 Q90.05 1.7 89.4 1.7 L84.05 1.7 83.05 4.55 88.4 4.55 Q89.05 4.55 89.5 4.95 89.9 5.35 89.7 5.95 L88.8 7.0 87.45 7.4 82.1 7.4 81.1 10.25 86.45 10.25 Q87.15 10.25 87.55 10.6 88.0 11.05 87.75 11.7 87.55 12.35 86.85 12.7 L85.5 13.1 78.35 13.1 Q77.7 13.1 77.25 12.7 76.85 12.35 77.05 11.7 L80.95 0.25 Q81.15 -0.4 81.85 -0.75 82.55 -1.15 83.2 -1.15 M103.45 17.05 Q103.8 17.4 103.65 18.0 L100.0 28.7 99.15 29.65 97.9 30.0 Q97.25 30.0 96.9 29.65 96.45 29.3 96.65 28.7 L99.85 19.35 96.5 19.35 93.35 28.7 92.45 29.65 91.2 30.0 90.2 29.65 Q89.8 29.3 90.0 28.7 L93.65 18.0 Q93.8 17.4 94.45 17.05 95.1 16.7 95.75 16.7 L102.4 16.7 Q103.05 16.7 103.45 17.05 M88.6 16.7 Q89.25 16.7 89.65 17.05 90.0 17.4 89.85 18.0 L86.2 28.7 85.35 29.65 84.1 30.0 77.4 30.0 Q76.8 30.0 76.4 29.65 76.0 29.3 76.2 28.7 L79.85 18.0 Q80.0 17.4 80.65 17.05 L81.95 16.7 88.6 16.7 M82.7 19.35 L80.0 27.35 83.3 27.35 86.05 19.35 82.7 19.35 M68.15 16.7 L74.8 16.7 Q75.45 16.7 75.85 17.05 76.25 17.4 76.05 18.0 L75.2 18.95 73.9 19.35 72.25 19.35 69.5 27.35 71.2 27.35 Q71.8 27.35 72.2 27.7 72.6 28.1 72.4 28.7 L71.55 29.65 70.3 30.0 63.6 30.0 Q63.0 30.0 62.6 29.65 62.2 29.3 62.4 28.7 62.6 28.1 63.25 27.7 63.9 27.35 64.5 27.35 L66.2 27.35 68.9 19.35 67.25 19.35 Q66.6 19.35 66.2 18.95 65.8 18.6 66.05 18.0 66.25 17.4 66.85 17.05 67.5 16.7 68.15 16.7 M62.25 18.0 L61.4 18.95 60.1 19.35 58.45 19.35 55.25 28.7 54.4 29.65 53.15 30.0 Q52.55 30.0 52.15 29.65 51.75 29.3 51.95 28.7 L55.1 19.35 53.45 19.35 Q52.8 19.35 52.4 18.95 52.0 18.6 52.25 18.0 52.45 17.4 53.05 17.05 53.7 16.7 54.35 16.7 L61.0 16.7 Q61.65 16.7 62.05 17.05 62.45 17.4 62.25 18.0 M48.45 18.0 L47.5 20.7 46.65 21.65 45.4 22.0 Q44.75 22.0 44.4 21.65 43.95 21.3 44.15 20.7 L44.65 19.35 41.3 19.35 38.6 27.35 41.9 27.35 42.35 26.0 Q42.55 25.4 43.25 25.0 43.85 24.7 44.5 24.7 45.1 24.7 45.5 25.05 45.9 25.4 45.7 26.0 L44.8 28.7 43.95 29.65 42.7 30.0 36.0 30.0 Q35.4 30.0 35.0 29.65 34.6 29.3 34.8 28.7 L38.45 18.0 Q38.6 17.4 39.25 17.05 39.9 16.7 40.55 16.7 L47.2 16.7 Q47.85 16.7 48.25 17.05 48.6 17.4 48.45 18.0 M27.45 1.7 L24.25 3.7 23.0 7.4 26.55 7.4 28.5 1.7 27.45 1.7 M24.5 19.75 L28.75 17.05 Q29.35 16.7 30.1 16.7 L33.4 16.7 Q34.05 16.7 34.45 17.05 34.8 17.4 34.65 18.0 L31.0 28.7 30.15 29.65 28.9 30.0 Q28.25 30.0 27.9 29.65 27.45 29.3 27.65 28.7 L28.1 27.35 24.8 27.35 24.35 28.7 23.45 29.65 22.2 30.0 21.2 29.65 Q20.8 29.3 21.0 28.7 L23.7 20.7 Q23.9 20.1 24.5 19.75 M26.85 21.2 L25.7 24.7 29.0 24.7 30.85 19.35 29.85 19.35 26.85 21.2 M11.95 1.7 L10.2 1.7 9.2 4.55 11.0 4.55 11.95 1.7 M11.8 7.4 L8.25 7.4 7.25 10.25 10.8 10.25 11.8 7.4" fill="#ffffff" fill-rule="evenodd" stroke="none"/>
    <path d="M38.9 -1.15 L46.05 -1.15 Q46.7 -1.15 47.15 -0.75 47.55 -0.4 47.35 0.25 L46.45 1.3 Q45.75 1.7 45.1 1.7 L43.3 1.7 39.9 11.7 39.0 12.7 Q38.3 13.1 37.65 13.1 36.95 13.1 36.55 12.7 36.1 12.35 36.35 11.7 L39.75 1.7 37.95 1.7 Q37.25 1.7 36.85 1.3 36.45 0.9 36.65 0.25 36.85 -0.4 37.55 -0.75 38.25 -1.15 38.9 -1.15 M27.7 -1.15 L31.25 -1.15 Q31.9 -1.15 32.35 -0.75 32.75 -0.4 32.55 0.25 L28.65 11.7 Q28.45 12.35 27.75 12.7 27.05 13.1 26.4 13.1 25.7 13.1 25.3 12.75 24.85 12.35 25.1 11.7 L25.55 10.25 22.0 10.25 21.55 11.7 20.55 12.75 19.25 13.1 Q18.6 13.1 18.15 12.7 17.75 12.35 17.95 11.7 L20.85 3.15 Q21.05 2.5 21.7 2.1 L26.25 -0.75 Q26.9 -1.15 27.7 -1.15 M9.35 -1.15 L14.7 -1.15 Q15.4 -1.15 15.75 -0.8 16.25 -0.4 16.0 0.25 L14.55 4.55 Q15.2 4.55 15.65 4.95 16.05 5.35 15.85 5.95 L13.9 11.7 13.0 12.7 Q12.3 13.1 11.65 13.1 L4.5 13.1 Q3.85 13.1 3.4 12.7 3.0 12.35 3.2 11.7 L7.1 0.25 Q7.3 -0.4 8.0 -0.75 8.7 -1.15 9.35 -1.15 M68.4 -1.15 Q69.1 -1.15 69.45 -0.8 69.95 -0.4 69.7 0.25 L66.3 10.25 71.65 10.25 Q72.35 10.25 72.75 10.6 73.2 11.05 72.95 11.7 72.75 12.35 72.05 12.7 71.35 13.1 70.7 13.1 L63.55 13.1 Q62.9 13.1 62.45 12.7 62.05 12.35 62.25 11.7 L66.15 0.25 Q66.35 -0.4 67.05 -0.75 67.75 -1.15 68.4 -1.15 M53.65 -1.15 L60.8 -1.15 Q61.45 -1.15 61.9 -0.75 62.3 -0.4 62.1 0.25 L61.2 1.3 59.85 1.7 58.05 1.7 54.65 11.7 Q54.4 12.35 53.75 12.7 L52.4 13.1 Q51.7 13.1 51.3 12.7 50.85 12.35 51.1 11.7 L54.5 1.7 52.7 1.7 Q52.0 1.7 51.6 1.3 51.2 0.9 51.4 0.25 51.6 -0.4 52.3 -0.75 53.0 -1.15 53.65 -1.15 M83.2 -1.15 L90.35 -1.15 Q91.0 -1.15 91.45 -0.75 91.85 -0.4 91.65 0.25 L90.75 1.3 Q90.05 1.7 89.4 1.7 L84.05 1.7 83.05 4.55 88.4 4.55 Q89.05 4.55 89.5 4.95 89.9 5.35 89.7 5.95 L88.8 7.0 87.45 7.4 82.1 7.4 81.1 10.25 86.45 10.25 Q87.15 10.25 87.55 10.6 88.0 11.05 87.75 11.7 87.55 12.35 86.85 12.7 L85.5 13.1 78.35 13.1 Q77.7 13.1 77.25 12.7 76.85 12.35 77.05 11.7 L80.95 0.25 Q81.15 -0.4 81.85 -0.75 82.55 -1.15 83.2 -1.15 M103.45 17.05 Q103.8 17.4 103.65 18.0 L100.0 28.7 99.15 29.65 97.9 30.0 Q97.25 30.0 96.9 29.65 96.45 29.3 96.65 28.7 L99.85 19.35 96.5 19.35 93.35 28.7 92.45 29.65 91.2 30.0 90.2 29.65 Q89.8 29.3 90.0 28.7 L93.65 18.0 Q93.8 17.4 94.45 17.05 95.1 16.7 95.75 16.7 L102.4 16.7 Q103.05 16.7 103.45 17.05 M88.6 16.7 Q89.25 16.7 89.65 17.05 90.0 17.4 89.85 18.0 L86.2 28.7 85.35 29.65 84.1 30.0 77.4 30.0 Q76.8 30.0 76.4 29.65 76.0 29.3 76.2 28.7 L79.85 18.0 Q80.0 17.4 80.65 17.05 L81.95 16.7 88.6 16.7 M82.7 19.35 L80.0 27.35 83.3 27.35 86.05 19.35 82.7 19.35 M68.15 16.7 L74.8 16.7 Q75.45 16.7 75.85 17.05 76.25 17.4 76.05 18.0 L75.2 18.95 73.9 19.35 72.25 19.35 69.5 27.35 71.2 27.35 Q71.8 27.35 72.2 27.7 72.6 28.1 72.4 28.7 L71.55 29.65 70.3 30.0 63.6 30.0 Q63.0 30.0 62.6 29.65 62.2 29.3 62.4 28.7 62.6 28.1 63.25 27.7 63.9 27.35 64.5 27.35 L66.2 27.35 68.9 19.35 67.25 19.35 Q66.6 19.35 66.2 18.95 65.8 18.6 66.05 18.0 66.25 17.4 66.85 17.05 67.5 16.7 68.15 16.7 M62.25 18.0 L61.4 18.95 60.1 19.35 58.45 19.35 55.25 28.7 54.4 29.65 53.15 30.0 Q52.55 30.0 52.15 29.65 51.75 29.3 51.95 28.7 L55.1 19.35 53.45 19.35 Q52.8 19.35 52.4 18.95 52.0 18.6 52.25 18.0 52.45 17.4 53.05 17.05 53.7 16.7 54.35 16.7 L61.0 16.7 Q61.65 16.7 62.05 17.05 62.45 17.4 62.25 18.0 M48.45 18.0 L47.5 20.7 46.65 21.65 45.4 22.0 Q44.75 22.0 44.4 21.65 43.95 21.3 44.15 20.7 L44.65 19.35 41.3 19.35 38.6 27.35 41.9 27.35 42.35 26.0 Q42.55 25.4 43.25 25.0 43.85 24.7 44.5 24.7 45.1 24.7 45.5 25.05 45.9 25.4 45.7 26.0 L44.8 28.7 43.95 29.65 42.7 30.0 36.0 30.0 Q35.4 30.0 35.0 29.65 34.6 29.3 34.8 28.7 L38.45 18.0 Q38.6 17.4 39.25 17.05 39.9 16.7 40.55 16.7 L47.2 16.7 Q47.85 16.7 48.25 17.05 48.6 17.4 48.45 18.0 M27.45 1.7 L24.25 3.7 23.0 7.4 26.55 7.4 28.5 1.7 27.45 1.7 M24.5 19.75 L28.75 17.05 Q29.35 16.7 30.1 16.7 L33.4 16.7 Q34.05 16.7 34.45 17.05 34.8 17.4 34.65 18.0 L31.0 28.7 30.15 29.65 28.9 30.0 Q28.25 30.0 27.9 29.65 27.45 29.3 27.65 28.7 L28.1 27.35 24.8 27.35 24.35 28.7 23.45 29.65 22.2 30.0 21.2 29.65 Q20.8 29.3 21.0 28.7 L23.7 20.7 Q23.9 20.1 24.5 19.75 M26.85 21.2 L25.7 24.7 29.0 24.7 30.85 19.35 29.85 19.35 26.85 21.2 M11.95 1.7 L10.2 1.7 9.2 4.55 11.0 4.55 11.95 1.7 M11.8 7.4 L8.25 7.4 7.25 10.25 10.8 10.25 11.8 7.4" fill="none" stroke="#647dc4" stroke-linecap="round" stroke-linejoin="round" stroke-width="1.0"/>
  </g>
</svg>
