<?xml version="1.0" encoding="UTF-8" standalone="no"?>
<svg xmlns:xlink="http://www.w3.org/1999/xlink" height="304.85px" width="233.0px" xmlns="http://www.w3.org/2000/svg">
  <g transform="matrix(1, 0, 0, 1, 115.55, 123.6)">
    <path d="M-104.4 -103.7 L-104.35 -103.75 -104.05 -103.95 -104.4 -103.95 -104.4 -103.7 M108.65 -103.75 L108.65 -103.95 108.4 -103.95 108.65 -103.75 M117.15 -112.3 L117.45 -111.6 117.45 180.25 117.15 180.95 116.45 181.25 -111.25 181.25 -111.95 180.95 -112.25 180.25 -112.25 -111.6 -111.95 -112.3 -111.25 -112.6 116.45 -112.6 117.15 -112.3" fill="url(#gradient0)" fill-rule="evenodd" stroke="none"/>
    <path d="M-114.55 -122.6 L113.15 -122.6 113.15 169.25 -114.55 169.25 -114.55 -122.6 M106.35 -115.95 L-108.7 -115.95 -108.7 162.55 106.35 162.55 106.35 -115.95" fill="url(#gradient1)" fill-rule="evenodd" stroke="none"/>
    <path d="M-106.95 161.15 L-106.95 -114.05 104.65 -114.05 104.65 161.15 -106.95 161.15" fill="url(#gradient2)" fill-rule="evenodd" stroke="none"/>
    <path d="M-114.55 -122.6 L113.15 -122.6 M-108.7 162.55 L-108.7 -115.95 106.35 -115.95" fill="none" stroke="#b14e4e" stroke-linecap="round" stroke-linejoin="round" stroke-width="2.0"/>
    <path d="M-106.95 161.15 L-106.95 -114.05 104.65 -114.05 104.65 161.15" fill="none" stroke="#100707" stroke-linecap="round" stroke-linejoin="round" stroke-width="2.0"/>
    <path d="M106.35 162.55 L-108.7 162.55" fill="none" stroke="#8e4040" stroke-linecap="round" stroke-linejoin="round" stroke-width="2.0"/>
    <path d="M113.15 169.25 L-114.55 169.25" fill="none" stroke="#200f0f" stroke-linecap="round" stroke-linejoin="round" stroke-width="2.0"/>
    <path d="M104.65 161.15 L-106.95 161.15" fill="none" stroke="#411f1f" stroke-linecap="round" stroke-linejoin="round" stroke-width="2.0"/>
    <path d="M106.35 -115.95 L106.35 162.55" fill="none" stroke="#9e4747" stroke-linecap="round" stroke-linejoin="round" stroke-width="2.0"/>
    <path d="M113.15 -122.6 L113.15 169.25" fill="none" stroke="#5a2929" stroke-linecap="round" stroke-linejoin="round" stroke-width="2.0"/>
    <path d="M-114.55 169.25 L-114.55 -122.6" fill="none" stroke="#813a3a" stroke-linecap="round" stroke-linejoin="round" stroke-width="2.0"/>
  </g>
  <defs>
    <linearGradient gradientTransform="matrix(0.0, 0.0466, -0.1789, 1.0E-4, 3.85, 144.75)" gradientUnits="userSpaceOnUse" id="gradient0" spreadMethod="pad" x1="-819.2" x2="819.2">
      <stop offset="0.01568627450980392" stop-color="#060c17" stop-opacity="0.56078434"/>
      <stop offset="1.0" stop-color="#0a0b14" stop-opacity="0.34117648"/>
    </linearGradient>
    <linearGradient gradientTransform="matrix(-0.1336, -0.0697, 0.0912, -0.1866, 16.65, 20.8)" gradientUnits="userSpaceOnUse" id="gradient1" spreadMethod="pad" x1="-819.2" x2="819.2">
      <stop offset="0.0" stop-color="#000000"/>
      <stop offset="1.0" stop-color="#6d3030"/>
    </linearGradient>
    <linearGradient gradientTransform="matrix(-0.0999, -0.0871, 0.1333, -0.1528, -78.55, 52.9)" gradientUnits="userSpaceOnUse" id="gradient2" spreadMethod="pad" x1="-819.2" x2="819.2">
      <stop offset="0.0" stop-color="#532626"/>
      <stop offset="1.0" stop-color="#a94949"/>
    </linearGradient>
  </defs>
</svg>
