<?xml version="1.0" encoding="UTF-8" standalone="no"?>
<svg xmlns:xlink="http://www.w3.org/1999/xlink" height="18.6px" width="38.55px" xmlns="http://www.w3.org/2000/svg">
  <g transform="matrix(1, 0, 0, 1, 19.0, 9.3)">
    <path d="M6.2 -6.55 Q4.25 -8.35 1.25 -8.7 -1.8 -9.1 -4.1 -7.8 -6.45 -6.5 -6.75 -4.3 L-12.4 -3.7 Q-15.3 -3.15 -16.8 -2.25 -18.15 -1.55 -18.4 -0.4 L-18.4 1.3 -18.2 2.0 Q-17.35 3.7 -13.45 5.4 -8.15 7.65 -0.4 8.45 7.35 9.3 13.0 8.2 17.15 7.4 18.45 5.9 L18.95 4.85 18.95 4.75 19.05 3.7 19.0 2.8 18.85 2.5 18.7 2.25 Q17.7 0.6 14.05 -0.9 11.3 -2.1 7.9 -2.85 8.05 -4.9 6.2 -6.55" fill="none" stroke="#09475e" stroke-linecap="round" stroke-linejoin="round" stroke-width="1.0"/>
    <path d="M0.95 -6.3 Q-1.2 -6.6 -2.85 -5.55 L-4.2 -4.3 1.0 -3.95 5.3 -3.4 4.45 -4.6 Q3.05 -6.05 0.95 -6.3" fill="none" stroke="#063242" stroke-linecap="round" stroke-linejoin="round" stroke-width="1.0"/>
    <path d="M-3.95 -4.3 L1.0 -3.95 4.95 -3.45 5.0 -1.65 Q6.3 -0.95 7.9 -1.2 L8.15 -2.8 Q11.4 -2.05 14.05 -0.9 17.7 0.6 18.7 2.25 L18.85 2.5 19.0 2.8 Q18.0 3.7 16.2 4.25 L11.3 5.3 Q7.65 5.95 -0.1 5.1 -7.85 4.2 -11.0 2.95 L-14.95 1.35 Q-17.2 0.35 -18.25 -0.75 L-18.0 -1.15 -17.8 -1.4 -17.75 -1.45 Q-16.5 -2.95 -12.4 -3.7 L-7.0 -4.3 -7.5 -2.75 -4.65 -2.6 -3.95 -4.3" fill="url(#gradient0)" fill-rule="evenodd" stroke="none"/>
    <path d="M-18.25 -0.75 Q-17.2 0.35 -14.95 1.35 L-11.0 2.95 Q-7.85 4.2 -0.1 5.1 7.65 5.95 11.3 5.3 L16.2 4.25 Q18.0 3.7 19.0 2.8 L19.05 3.7 18.95 4.75 18.95 4.85 18.45 5.9 Q17.15 7.4 13.0 8.2 7.35 9.3 -0.4 8.45 -8.15 7.65 -13.45 5.4 -17.35 3.7 -18.2 2.0 L-18.4 1.3 -18.4 -0.4 -18.25 -0.75" fill="url(#gradient1)" fill-rule="evenodd" stroke="none"/>
    <path d="M-3.95 -4.3 L-4.65 -2.6 -7.5 -2.75 -7.0 -4.3 -6.75 -4.3 Q-6.45 -6.5 -4.1 -7.8 -1.8 -9.1 1.25 -8.7 4.25 -8.35 6.2 -6.55 8.05 -4.9 7.9 -2.85 L8.15 -2.8 7.9 -1.2 Q6.3 -0.95 5.0 -1.65 L4.95 -3.45 5.3 -3.4 4.45 -4.6 Q3.05 -6.05 0.95 -6.3 -1.2 -6.6 -2.85 -5.55 L-4.2 -4.3 -3.95 -4.3" fill="url(#gradient2)" fill-rule="evenodd" stroke="none"/>
    <path d="M-3.95 -4.3 L-4.65 -2.6 M8.15 -2.8 L7.9 -1.2 Q6.3 -0.95 5.0 -1.65" fill="none" stroke="#073b57" stroke-linecap="round" stroke-linejoin="round" stroke-width="0.05"/>
    <path d="M-4.65 -2.6 L-7.5 -2.75 -7.0 -4.3" fill="none" stroke="#1081ab" stroke-linecap="round" stroke-linejoin="round" stroke-width="0.05"/>
    <path d="M5.0 -1.65 L4.95 -3.45" fill="none" stroke="#0c6485" stroke-linecap="round" stroke-linejoin="round" stroke-width="0.05"/>
  </g>
  <defs>
    <linearGradient gradientTransform="matrix(0.0157, -0.0125, 0.0037, 0.0047, -2.95, -6.95)" gradientUnits="userSpaceOnUse" id="gradient0" spreadMethod="pad" x1="-819.2" x2="819.2">
      <stop offset="0.0" stop-color="#72cced"/>
      <stop offset="0.12941176470588237" stop-color="#cfeef9"/>
      <stop offset="0.20392156862745098" stop-color="#72cced"/>
      <stop offset="0.28627450980392155" stop-color="#56b7e1"/>
      <stop offset="0.42745098039215684" stop-color="#2689c2"/>
      <stop offset="0.6509803921568628" stop-color="#0e5b96"/>
      <stop offset="1.0" stop-color="#094464"/>
    </linearGradient>
    <linearGradient gradientTransform="matrix(0.0153, 0.0039, -0.0016, 0.0056, -8.0, 2.65)" gradientUnits="userSpaceOnUse" id="gradient1" spreadMethod="pad" x1="-819.2" x2="819.2">
      <stop offset="0.07058823529411765" stop-color="#1f7cb5"/>
      <stop offset="0.47843137254901963" stop-color="#ccecf8"/>
      <stop offset="0.8" stop-color="#11629c"/>
      <stop offset="1.0" stop-color="#073852"/>
    </linearGradient>
    <radialGradient cx="0" cy="0" gradientTransform="matrix(0.0118, 0.0089, -0.0082, 0.0099, -3.6, -7.55)" gradientUnits="userSpaceOnUse" id="gradient2" r="819.2" spreadMethod="pad">
      <stop offset="0.0" stop-color="#cef1f9"/>
      <stop offset="0.611764705882353" stop-color="#3698cc"/>
      <stop offset="1.0" stop-color="#0c5284"/>
    </radialGradient>
  </defs>
</svg>
