<?xml version="1.0" encoding="UTF-8" standalone="no"?>
<svg xmlns:xlink="http://www.w3.org/1999/xlink" height="98.55px" width="153.25px" xmlns="http://www.w3.org/2000/svg">
  <g transform="matrix(1, 0, 0, 1, 80.75, 45.9)">
    <path d="M69.3 -45.9 L69.4 -45.85 66.5 52.5 66.4 52.6 66.35 52.65 -80.7 45.8 -80.75 45.7 -79.9 -44.7 -79.85 -44.8 -79.8 -44.85 69.3 -45.9" fill="#041f31" fill-opacity="0.5019608" fill-rule="evenodd" stroke="none"/>
    <path d="M72.5 -45.75 L69.25 48.8 -78.25 43.5 -78.05 -44.7 72.5 -45.75" fill="#062942" fill-rule="evenodd" stroke="none"/>
    <path d="M72.5 -45.75 L69.25 48.8 -78.25 43.5" fill="none" stroke="#07253a" stroke-linecap="round" stroke-linejoin="round" stroke-width="0.05"/>
    <path d="M-78.25 43.5 L-78.05 -44.7 72.5 -45.75" fill="none" stroke="#1b5e76" stroke-linecap="round" stroke-linejoin="round" stroke-width="0.05"/>
    <path d="M70.25 -43.75 L67.25 46.25 -76.1 41.25 -75.8 -42.8 70.25 -43.75" fill="url(#gradient0)" fill-rule="evenodd" stroke="none"/>
    <path d="M67.25 46.25 L-76.1 41.25" fill="none" stroke="#75c2df" stroke-linecap="round" stroke-linejoin="round" stroke-width="0.05"/>
    <path d="M70.25 -43.75 L67.25 46.25" fill="none" stroke="#3eaad2" stroke-linecap="round" stroke-linejoin="round" stroke-width="0.05"/>
    <path d="M-76.1 41.25 L-75.8 -42.8" fill="none" stroke="#03131b" stroke-linecap="round" stroke-linejoin="round" stroke-width="0.05"/>
    <path d="M-75.8 -42.8 L70.25 -43.75" fill="none" stroke="#03131b" stroke-linecap="round" stroke-linejoin="round" stroke-width="0.05"/>
  </g>
  <defs>
    <linearGradient gradientTransform="matrix(-0.0028, -0.0384, -0.0867, 0.0064, -16.75, -20.5)" gradientUnits="userSpaceOnUse" id="gradient0" spreadMethod="pad" x1="-819.2" x2="819.2">
      <stop offset="0.0" stop-color="#093d72"/>
      <stop offset="1.0" stop-color="#55b6e1"/>
    </linearGradient>
  </defs>
</svg>
