<?xml version="1.0" encoding="UTF-8" standalone="no"?>
<svg xmlns:xlink="http://www.w3.org/1999/xlink" height="443.45px" width="585.85px" xmlns="http://www.w3.org/2000/svg">
  <g transform="matrix(1, 0, 0, 1, 293.3, 221.25)">
    <path d="M283.7 214.65 L-283.0 209.25 -287.1 -202.55 286.6 -215.1 283.7 214.65" fill="url(#gradient0)" fill-rule="evenodd" stroke="none"/>
    <path d="M-283.0 209.25 L-287.1 -202.55 286.6 -215.1" fill="none" stroke="#000000" stroke-linecap="round" stroke-linejoin="round" stroke-opacity="0.44313726" stroke-width="3.0"/>
    <path d="M286.6 -215.1 L283.7 214.65 -283.0 209.25" fill="none" stroke="#000000" stroke-linecap="round" stroke-linejoin="round" stroke-opacity="0.44313726" stroke-width="3.0"/>
    <path d="M286.4 218.35 L289.35 -217.7 -290.1 -205.0 -285.95 212.5 286.4 218.35 M292.55 -221.25 L289.25 222.2 -288.7 216.05 -293.3 -208.15 292.55 -221.25" fill="url(#gradient1)" fill-rule="evenodd" stroke="none"/>
    <path d="M289.35 -217.7 L286.4 218.35 -285.95 212.5 -290.1 -205.0 289.35 -217.7 M283.7 214.65 L286.6 -215.1 -287.1 -202.55 -283.0 209.25 283.7 214.65" fill="url(#gradient2)" fill-rule="evenodd" stroke="none"/>
    <path d="M292.55 -221.25 L289.25 222.2 -288.7 216.05" fill="none" stroke="#07253a" stroke-linecap="round" stroke-linejoin="round" stroke-width="0.05"/>
    <path d="M-288.7 216.05 L-293.3 -208.15 292.55 -221.25" fill="none" stroke="#1b5e76" stroke-linecap="round" stroke-linejoin="round" stroke-width="0.05"/>
    <path d="M283.7 214.65 L-283.0 209.25" fill="none" stroke="#75c2df" stroke-linecap="round" stroke-linejoin="round" stroke-width="0.05"/>
    <path d="M286.4 218.35 L-285.95 212.5 M-283.0 209.25 L-287.1 -202.55 286.6 -215.1" fill="none" stroke="#03131b" stroke-linecap="round" stroke-linejoin="round" stroke-width="0.05"/>
    <path d="M-285.95 212.5 L-290.1 -205.0" fill="none" stroke="#2fa6c4" stroke-linecap="round" stroke-linejoin="round" stroke-width="0.05"/>
    <path d="M-290.1 -205.0 L289.35 -217.7" fill="none" stroke="#31afce" stroke-linecap="round" stroke-linejoin="round" stroke-width="0.05"/>
    <path d="M289.35 -217.7 L286.4 218.35" fill="none" stroke="#278ea7" stroke-linecap="round" stroke-linejoin="round" stroke-width="0.05"/>
    <path d="M286.6 -215.1 L283.7 214.65" fill="none" stroke="#103a45" stroke-linecap="round" stroke-linejoin="round" stroke-width="0.05"/>
  </g>
  <defs>
    <radialGradient cx="0" cy="0" gradientTransform="matrix(0.7664, 0.0, 0.0, 0.3852, 6.0, -155.0)" gradientUnits="userSpaceOnUse" id="gradient0" r="819.2" spreadMethod="pad">
      <stop offset="0.00392156862745098" stop-color="#1ab8df"/>
      <stop offset="1.0" stop-color="#093d72"/>
    </radialGradient>
    <linearGradient gradientTransform="matrix(2.0E-4, 0.2687, -0.2707, 2.0E-4, -0.35, 0.5)" gradientUnits="userSpaceOnUse" id="gradient1" spreadMethod="pad" x1="-819.2" x2="819.2">
      <stop offset="0.0" stop-color="#062942"/>
      <stop offset="1.0" stop-color="#041e2b"/>
    </linearGradient>
    <linearGradient gradientTransform="matrix(-0.0045, -0.2594, 0.266, -0.0046, -0.4, 0.25)" gradientUnits="userSpaceOnUse" id="gradient2" spreadMethod="pad" x1="-819.2" x2="819.2">
      <stop offset="0.0" stop-color="#0a4463"/>
      <stop offset="1.0" stop-color="#0e638f"/>
    </linearGradient>
  </defs>
</svg>
