<?xml version="1.0" encoding="UTF-8" standalone="no"?>
<svg xmlns:xlink="http://www.w3.org/1999/xlink" height="59.95px" width="208.45px" xmlns="http://www.w3.org/2000/svg">
  <g transform="matrix(1, 0, 0, 1, 112.05, 39.8)">
    <path d="M65.95 -37.25 L64.5 -37.85 Q62.3 -38.5 60.65 -36.9 L60.2 -36.9 Q58.9 -35.45 58.7 -33.85 58.45 -32.3 59.95 -30.55 L60.6 -30.55 60.7 -33.4 61.05 -33.85 61.55 -33.95 62.45 -34.4 63.05 -34.35 64.15 -33.1 64.55 -32.15 Q64.75 -31.15 64.15 -30.3 L62.65 -28.8 Q61.25 -28.95 59.95 -29.5 59.25 -29.7 58.7 -30.35 58.2 -30.9 57.95 -31.7 57.7 -32.35 57.6 -33.0 57.3 -34.75 58.35 -36.4 59.8 -38.9 62.4 -39.65 64.3 -40.05 66.2 -39.3 68.75 -38.3 70.35 -35.75 71.7 -33.65 71.9 -31.15 L72.95 -31.95 Q73.55 -32.4 74.2 -32.55 L75.5 -32.75 76.35 -32.15 Q77.4 -31.3 77.6 -29.6 L77.4 -29.3 77.25 -28.75 76.6 -27.95 75.6 -27.35 75.35 -26.65 Q75.05 -26.25 74.55 -26.2 74.05 -26.15 73.7 -26.5 73.3 -26.8 73.25 -27.35 73.15 -27.9 73.45 -28.3 73.65 -28.6 73.95 -28.7 L73.95 -29.35 74.65 -29.9 Q74.9 -30.1 75.2 -30.15 L75.55 -29.15 75.6 -28.45 76.4 -29.4 76.2 -30.7 75.45 -31.05 Q74.05 -31.75 72.4 -30.7 L71.05 -29.3 70.3 -27.2 70.0 -25.95 70.4 -25.8 70.85 -25.8 74.6 -25.8 77.25 -25.4 77.3 -25.5 Q77.6 -25.9 78.1 -25.9 L79.0 -25.65 79.4 -25.0 81.7 -24.1 83.3 -23.2 84.35 -22.4 85.45 -21.45 86.05 -20.65 86.65 -19.2 86.8 -18.85 86.85 -18.45 86.85 -18.3 86.85 -17.5 Q86.5 -14.7 86.55 -13.3 L86.55 -13.15 88.05 -14.2 88.5 -14.55 Q88.2 -14.6 88.0 -14.8 87.75 -15.05 87.8 -15.4 L87.8 -15.45 Q87.55 -15.7 87.6 -16.05 87.55 -16.45 87.8 -16.65 88.05 -16.95 88.4 -16.9 L88.95 -16.65 89.15 -16.05 89.15 -16.0 89.35 -15.4 89.2 -14.9 92.3 -14.75 Q94.3 -14.2 95.45 -12.75 96.3 -11.75 96.4 -10.55 96.3 -8.8 94.9 -7.45 93.95 -6.55 92.75 -6.4 L91.8 -6.4 90.75 -6.6 89.95 -7.2 88.95 -8.75 Q89.25 -9.45 89.7 -9.95 90.15 -10.5 90.9 -10.5 L91.65 -10.45 92.7 -10.0 92.8 -9.65 92.7 -9.0 92.7 -8.65 92.5 -8.35 90.55 -7.8 90.65 -7.4 93.1 -7.2 Q94.15 -7.65 94.9 -8.7 L94.85 -8.95 Q95.6 -10.25 94.75 -11.5 L94.1 -12.3 93.95 -12.55 Q92.4 -13.5 90.55 -13.05 L89.5 -12.7 86.8 -10.7 86.75 -10.3 86.25 -12.05 86.2 -12.0 93.75 19.1 -109.3 20.15 -109.3 -18.95 41.7 -21.3 40.2 -25.0 Q39.25 -26.9 40.6 -30.45 L41.0 -28.4 Q41.15 -27.45 41.65 -26.5 42.1 -25.55 43.35 -24.8 43.8 -24.35 44.6 -24.1 L48.1 -23.6 57.9 -24.4 58.55 -24.55 Q62.05 -25.1 66.5 -26.55 L68.35 -31.15 68.6 -32.65 Q68.45 -35.35 66.45 -37.15 L65.95 -37.25" fill="#000000" fill-opacity="0.43137255" fill-rule="evenodd" stroke="none"/>
    <path d="M80.25 -21.0 L90.4 18.95 -112.05 19.55 -112.05 -17.9 80.25 -21.0" fill="url(#gradient0)" fill-rule="evenodd" stroke="none"/>
    <path d="M76.95 -17.2 L86.1 19.05 -109.35 19.85 -108.85 -14.2 76.95 -17.2" fill="url(#gradient1)" fill-rule="evenodd" stroke="none"/>
  </g>
  <defs>
    <linearGradient gradientTransform="matrix(0.0022, -0.0234, 0.0242, 0.0023, -10.85, -0.6)" gradientUnits="userSpaceOnUse" id="gradient0" spreadMethod="pad" x1="-819.2" x2="819.2">
      <stop offset="0.0" stop-color="#168cd1"/>
      <stop offset="0.9882352941176471" stop-color="#72cced"/>
    </linearGradient>
    <linearGradient gradientTransform="matrix(0.0358, 0.026, -0.0369, 2.0E-4, -231.4, 1.45)" gradientUnits="userSpaceOnUse" id="gradient1" spreadMethod="pad" x1="-819.2" x2="819.2">
      <stop offset="0.0" stop-color="#0c6aaf"/>
      <stop offset="0.9882352941176471" stop-color="#01165f"/>
    </linearGradient>
  </defs>
</svg>
