<?xml version="1.0" encoding="UTF-8" standalone="no"?>
<svg xmlns:xlink="http://www.w3.org/1999/xlink" height="104.7px" width="88.15px" xmlns="http://www.w3.org/2000/svg">
  <g transform="matrix(1, 0, 0, 1, 40.45, 45.95)">
    <path d="M47.6 -45.9 L47.65 -45.9 47.7 -45.8 47.05 58.6 47.0 58.7 47.0 58.75 -38.3 56.35 -38.35 56.3 -38.35 56.25 -39.4 -41.1 -39.4 -41.2 -39.35 -41.25 47.6 -45.9" fill="#000000" fill-opacity="0.43137255" fill-rule="evenodd" stroke="none"/>
    <path d="M46.5 -45.5 L45.8 53.65 -39.5 51.5 -40.45 -40.95 46.5 -45.5" fill="#062942" fill-rule="evenodd" stroke="none"/>
    <path d="M46.5 -45.5 L45.8 53.65 -39.5 51.5" fill="none" stroke="#07253a" stroke-linecap="round" stroke-linejoin="round" stroke-width="0.05"/>
    <path d="M-39.5 51.5 L-40.45 -40.95 46.5 -45.5" fill="none" stroke="#1b5e76" stroke-linecap="round" stroke-linejoin="round" stroke-width="0.05"/>
    <path d="M44.6 51.05 L-38.25 49.15 -39.15 -38.95 45.2 -43.35 44.6 51.05" fill="url(#gradient0)" fill-rule="evenodd" stroke="none"/>
    <path d="M44.6 51.05 L-38.25 49.15" fill="none" stroke="#75c2df" stroke-linecap="round" stroke-linejoin="round" stroke-width="0.05"/>
    <path d="M45.2 -43.35 L44.6 51.05" fill="none" stroke="#3eaad2" stroke-linecap="round" stroke-linejoin="round" stroke-width="0.05"/>
    <path d="M-38.25 49.15 L-39.15 -38.95 45.2 -43.35" fill="none" stroke="#03131b" stroke-linecap="round" stroke-linejoin="round" stroke-width="0.05"/>
  </g>
  <defs>
    <linearGradient gradientTransform="matrix(-0.0024, -0.0456, -0.05, 0.0087, -3.55, 0.75)" gradientUnits="userSpaceOnUse" id="gradient0" spreadMethod="pad" x1="-819.2" x2="819.2">
      <stop offset="0.0" stop-color="#093d72"/>
      <stop offset="1.0" stop-color="#55b6e1"/>
    </linearGradient>
  </defs>
</svg>
