<?xml version="1.0" encoding="UTF-8" standalone="no"?>
<svg xmlns:xlink="http://www.w3.org/1999/xlink" height="86.9px" width="60.85px" xmlns="http://www.w3.org/2000/svg">
  <g transform="matrix(1, 0, 0, 1, 35.05, 53.2)">
    <path d="M10.8 -37.7 L10.7 -30.8 10.7 -30.55 Q10.0 -34.5 8.25 -32.45 L8.15 -30.55 8.15 -30.3 8.35 -27.75 9.85 -28.95 10.0 -29.15 10.7 -30.45 10.7 -29.9 10.65 -27.5 9.6 -23.45 8.65 -23.75 4.95 -23.4 Q2.9 -23.0 1.45 -21.8 L0.05 -20.8 -0.55 -19.5 Q-5.6 -20.2 -4.2 -29.75 L-4.45 -30.1 -4.4 -30.2 -4.55 -30.25 Q-5.55 -31.7 -5.95 -33.45 -6.5 -35.55 -4.3 -37.9 -2.15 -40.4 0.05 -39.65 2.3 -39.1 6.15 -36.6 L7.45 -38.25 8.9 -39.55 Q9.85 -40.15 10.8 -37.7 M8.7 -17.65 L9.95 -17.6 11.25 -17.5 11.25 -16.75 Q11.0 -11.7 8.85 -8.35 L7.7 -6.9 6.1 -5.45 Q-3.75 -4.55 -14.45 -8.1 L-14.7 -8.2 -18.05 -10.05 -12.05 -13.7 -10.05 -14.65 -9.85 -15.85 Q-9.3 -14.95 -5.95 -14.15 1.8 -13.9 3.55 -14.8 L4.45 -15.3 3.5 -15.3 1.4 -15.9 1.8 -16.75 Q2.6 -19.35 4.5 -20.4 6.45 -21.5 7.65 -20.9 L8.2 -20.25 Q8.6 -19.2 8.15 -16.85 L8.7 -17.65 M1.3 -26.05 L2.85 -26.15 4.05 -26.2 Q3.8 -28.85 2.85 -30.45 -0.55 -30.45 -0.95 -25.9 L1.3 -26.05 M8.6 -24.95 Q8.05 -25.7 7.9 -26.75 7.7 -28.2 8.15 -30.3 7.7 -28.2 7.9 -26.75 8.05 -25.7 8.6 -24.95 L8.1 -24.5 7.15 -23.85 Q8.45 -23.5 8.5 -24.5 L8.6 -24.95 M7.35 -32.55 Q8.95 -35.25 10.7 -35.55 7.85 -36.15 7.35 -32.55 M4.15 -19.2 L5.45 -19.65 8.2 -20.25 5.45 -19.65 4.15 -19.2 M8.15 -16.85 Q7.2 -15.45 4.5 -15.3 L4.45 -15.3 4.5 -15.3 Q7.2 -15.45 8.15 -16.85 M-12.1 -29.75 Q-11.8 -30.6 -11.1 -30.7 -10.35 -30.6 -9.0 -29.3 L-8.9 -27.45 -9.6 -27.5 -9.8 -27.85 -10.5 -28.6 Q-11.75 -28.05 -12.15 -26.85 L-12.3 -27.45 -12.1 -29.75 M-8.0 -10.1 L-8.1 -10.25 -8.1 -10.1 -8.0 -10.1 M-2.65 -31.95 Q0.1 -32.85 3.65 -31.15 1.0 -34.45 -2.65 -31.95" fill="#ffdfc8" fill-rule="evenodd" stroke="none"/>
    <path d="M-4.55 -30.25 L-4.4 -30.2 -4.45 -30.1 -4.55 -30.25 M8.6 -24.95 L8.5 -24.5 Q8.45 -23.5 7.15 -23.85 L8.1 -24.5 8.6 -24.95 M4.45 -15.3 L3.55 -14.8 Q1.8 -13.9 -5.95 -14.15 -9.3 -14.95 -9.85 -15.85 L-9.65 -19.15 Q-9.4 -20.85 -10.0 -23.3 L-10.05 -23.35 -10.05 -23.4 -9.5 -23.0 -7.75 -20.8 -9.5 -23.0 -10.05 -23.4 -10.35 -23.6 -11.4 -24.5 -12.15 -26.85 Q-11.75 -28.05 -10.5 -28.6 L-9.8 -27.85 -9.6 -27.5 -8.9 -27.45 -8.7 -24.75 Q-8.4 -22.5 -7.75 -20.8 -5.85 -16.05 -1.05 -16.0 0.35 -14.85 1.2 -15.6 L1.4 -15.9 3.5 -15.3 4.45 -15.3 M1.2 -15.6 L3.5 -15.3 1.2 -15.6 M-12.1 -29.75 L-12.05 -30.2 Q-11.75 -30.8 -11.1 -30.7 -11.8 -30.6 -12.1 -29.75 M-8.7 -24.75 L-9.25 -26.2 -9.3 -26.45 -9.6 -27.5 -9.3 -26.45 -9.25 -26.2 -8.7 -24.75 M-10.3 -25.15 L-9.25 -26.2 -10.3 -25.15" fill="#ffd0ae" fill-rule="evenodd" stroke="none"/>
    <path d="M22.9 10.0 L23.35 12.75 23.65 13.05 25.7 16.3 25.8 18.9 24.45 31.35 Q24.3 22.15 18.8 10.25 L22.9 10.0 M-21.9 33.45 L-31.95 33.7 -34.05 30.15 -35.05 27.75 -34.55 23.95 -33.35 19.95 -30.05 20.15 Q-27.1 20.8 -26.4 23.25 L-25.8 21.75 Q-24.95 22.65 -24.3 23.95 -23.15 26.25 -22.6 29.85 L-22.3 31.35 -21.9 33.45 M-27.25 25.8 L-26.4 23.25 -27.25 25.8" fill="#d2c0b7" fill-rule="evenodd" stroke="none"/>
    <path d="M22.3 6.75 L22.9 10.0 18.8 10.25 17.85 8.1 20.4 7.8 21.3 7.45 21.4 7.4 22.3 6.75 M-32.35 16.35 L-31.95 16.7 -31.9 16.75 -30.95 17.2 -27.4 17.9 -24.15 17.5 -25.8 21.75 -26.4 23.25 Q-27.1 20.8 -30.05 20.15 L-33.35 19.95 -32.35 16.35" fill="#bda097" fill-rule="evenodd" stroke="none"/>
    <path d="M21.45 -2.4 Q22.6 3.05 23.65 5.15 L23.9 5.75 22.3 6.75 21.4 7.4 21.25 7.4 21.3 7.45 20.4 7.8 17.85 8.1 17.45 7.35 Q19.1 4.4 18.8 0.3 19.95 -0.25 20.8 -1.3 L21.45 -2.4 20.8 0.5 21.45 -2.4 M-12.4 33.25 L-21.9 33.45 -22.3 31.35 -21.1 13.4 -19.6 9.2 -17.0 5.6 -19.6 9.2 -21.1 13.4 -22.5 17.3 -24.15 17.5 -27.4 17.9 -30.95 17.2 -31.9 16.75 -31.85 16.7 -31.95 16.7 -32.35 16.35 -34.55 14.65 -34.15 14.05 Q-32.85 11.75 -30.95 5.85 L-29.9 7.65 Q-28.85 9.0 -27.1 9.45 L-24.8 9.2 -22.65 8.3 Q-20.55 7.0 -18.65 4.7 L-14.55 -3.65 -14.4 -3.7 -14.8 0.35 -16.4 4.65 -16.55 4.9 -17.0 5.6 Q-14.75 9.65 -10.7 12.25 -13.2 22.4 -12.75 30.1 L-12.4 33.25 M-30.55 9.1 L-30.9 6.95 -30.95 5.85 -30.9 6.95 -30.55 9.1 M-21.7 11.1 L-19.6 9.2 -21.7 11.1" fill="#534f73" fill-rule="evenodd" stroke="none"/>
    <path d="M13.2 -16.8 L13.25 -16.7 Q14.5 -16.4 15.8 -15.35 18.75 -13.25 20.3 -9.15 L20.9 -7.8 21.5 -4.75 21.45 -2.4 20.8 -1.3 Q19.95 -0.25 18.8 0.3 19.1 4.4 17.45 7.35 L17.85 8.1 18.8 10.25 Q24.3 22.15 24.45 31.35 L24.45 32.3 -12.4 33.25 -12.75 30.1 Q-13.2 22.4 -10.7 12.25 -14.75 9.65 -17.0 5.6 L-16.55 4.9 -16.4 4.65 -14.8 0.35 -14.4 -3.7 -14.55 -3.65 -18.65 4.7 Q-20.55 7.0 -22.65 8.3 L-24.8 9.2 -27.1 9.45 Q-28.85 9.0 -29.9 7.65 L-30.95 5.85 -30.7 3.2 -29.7 -0.05 -28.95 -1.5 Q-26.8 -5.95 -23.3 -8.05 -21.25 -9.45 -19.45 -9.4 L-18.2 -9.25 -17.4 -9.0 -17.25 -8.9 -15.7 -7.6 -15.65 -7.55 -14.8 -5.85 -14.7 -5.4 Q-6.25 -1.6 6.25 -2.55 L6.85 -2.55 7.05 -2.6 7.45 -2.6 7.7 -2.8 9.05 -4.1 10.05 -5.3 Q12.05 -8.1 12.8 -11.75 13.25 -14.05 13.2 -16.7 L13.2 -16.8 M17.45 -5.65 Q18.55 -2.45 18.8 0.3 18.55 -2.45 17.45 -5.65" fill="#706a99" fill-rule="evenodd" stroke="none"/>
    <path d="M-31.95 16.7 L-31.85 16.7 -31.9 16.75 -31.95 16.7 M21.4 7.4 L21.3 7.45 21.25 7.4 21.4 7.4" fill="#a5bafe" fill-rule="evenodd" stroke="none"/>
    <path d="M8.5 -31.05 L8.6 -30.95 8.6 -30.85 9.0 -30.65 9.45 -30.85 9.6 -31.4 9.5 -31.6 9.7 -31.5 9.95 -30.55 9.8 -29.65 9.25 -29.25 8.75 -29.65 8.55 -30.55 8.5 -31.05 M1.05 -28.35 L1.25 -28.15 1.75 -27.95 2.2 -28.15 2.45 -28.8 2.35 -29.05 2.55 -28.9 2.85 -27.85 2.6 -26.85 2.0 -26.45 1.3 -26.85 1.1 -27.85 1.05 -28.35" fill="#000000" fill-rule="evenodd" stroke="none"/>
    <path d="M11.25 -17.5 L13.2 -16.8 13.2 -16.7 Q13.25 -14.05 12.8 -11.75 12.05 -8.1 10.05 -5.3 L9.05 -4.1 7.7 -2.8 7.45 -2.6 7.05 -2.6 6.85 -2.55 6.25 -2.55 Q-6.25 -1.6 -14.7 -5.4 L-14.8 -5.85 -15.65 -7.55 -15.7 -7.6 -15.25 -7.9 -15.1 -8.1 -14.7 -8.2 -14.45 -8.1 Q-3.75 -4.55 6.1 -5.45 L7.7 -6.9 8.85 -8.35 Q11.0 -11.7 11.25 -16.75 L11.25 -17.5" fill="#b8b6cd" fill-rule="evenodd" stroke="none"/>
    <path d="M-14.7 -8.2 L-15.1 -8.1 -15.25 -7.9 -15.7 -7.6 -17.25 -8.9 -17.4 -9.0 -18.2 -9.25 -19.45 -9.4 -18.05 -10.05 -14.7 -8.2" fill="#8f8baf" fill-rule="evenodd" stroke="none"/>
    <path d="M-8.0 -10.1 L-8.1 -10.1 -8.1 -10.25 -8.0 -10.1" fill="#b48f87" fill-rule="evenodd" stroke="none"/>
    <path d="M10.7 -30.8 L10.8 -30.0 10.7 -29.9 10.7 -30.45 10.0 -29.15 10.2 -30.55 9.85 -31.95 9.1 -32.55 8.35 -31.95 8.15 -30.55 Q8.15 -29.65 8.5 -29.05 L9.3 -28.5 9.85 -28.95 8.35 -27.75 8.15 -30.3 8.15 -30.55 8.25 -32.45 Q10.0 -34.5 10.7 -30.55 L10.7 -30.45 10.7 -30.55 10.7 -30.8 M8.5 -31.05 L8.5 -31.4 8.55 -31.85 8.95 -32.05 9.4 -31.85 9.5 -31.6 9.6 -31.4 9.45 -30.85 9.0 -30.65 8.6 -30.85 8.6 -30.95 8.5 -31.05 M2.85 -26.15 L2.95 -26.2 3.25 -27.85 2.8 -29.45 1.85 -30.2 Q1.25 -30.2 0.85 -29.45 L0.55 -27.85 1.05 -26.2 1.3 -26.05 -0.95 -25.9 Q-0.55 -30.45 2.85 -30.45 3.8 -28.85 4.05 -26.2 L2.85 -26.15 M2.35 -29.05 L2.45 -28.8 2.2 -28.15 1.75 -27.95 1.25 -28.15 1.05 -28.35 0.95 -28.8 1.2 -29.25 1.7 -29.45 2.15 -29.25 2.35 -29.05" fill="#ffffff" fill-rule="evenodd" stroke="none"/>
    <path d="M9.5 -31.6 L9.4 -31.85 8.95 -32.05 8.55 -31.85 8.5 -31.4 8.5 -31.05 8.55 -30.55 8.75 -29.65 9.25 -29.25 9.8 -29.65 9.95 -30.55 9.7 -31.5 9.5 -31.6 M9.85 -28.95 L9.3 -28.5 8.5 -29.05 Q8.15 -29.65 8.15 -30.55 L8.35 -31.95 9.1 -32.55 9.85 -31.95 10.2 -30.55 10.0 -29.15 9.85 -28.95 M1.3 -26.05 L1.05 -26.2 0.55 -27.85 0.85 -29.45 Q1.25 -30.2 1.85 -30.2 L2.8 -29.45 3.25 -27.85 2.95 -26.2 2.85 -26.15 1.3 -26.05 M2.35 -29.05 L2.15 -29.25 1.7 -29.45 1.2 -29.25 0.95 -28.8 1.05 -28.35 1.1 -27.85 1.3 -26.85 2.0 -26.45 2.6 -26.85 2.85 -27.85 2.55 -28.9 2.35 -29.05" fill="#0099ff" fill-rule="evenodd" stroke="none"/>
    <path d="M-9.65 -19.15 Q-10.1 -16.0 -13.3 -15.35 -12.0 -16.15 -12.3 -19.3 L-15.2 -17.1 Q-12.85 -20.3 -15.2 -27.55 -17.55 -34.85 -14.35 -44.8 L-16.3 -45.9 Q-3.55 -51.85 3.5 -48.7 4.55 -49.0 2.9 -53.2 L10.85 -46.6 Q12.2 -40.5 10.95 -37.3 L10.8 -37.7 Q9.85 -40.15 8.9 -39.55 L7.45 -38.25 6.15 -36.6 Q2.3 -39.1 0.05 -39.65 -2.15 -40.4 -4.3 -37.9 -6.5 -35.55 -5.95 -33.45 -5.55 -31.7 -4.55 -30.25 L-4.45 -30.1 -4.2 -29.75 Q-5.6 -20.2 -0.55 -19.5 L0.05 -20.8 1.45 -21.8 Q2.9 -23.0 4.95 -23.4 L8.65 -23.75 9.6 -23.45 Q10.15 -22.95 10.1 -21.5 10.1 -19.6 8.7 -17.65 L8.15 -16.85 Q8.6 -19.2 8.2 -20.25 L7.65 -20.9 Q6.45 -21.5 4.5 -20.4 2.6 -19.35 1.8 -16.75 L1.4 -15.9 1.2 -15.6 Q0.35 -14.85 -1.05 -16.0 -5.85 -16.05 -7.75 -20.8 -8.4 -22.5 -8.7 -24.75 L-8.9 -27.45 -9.0 -29.3 Q-10.35 -30.6 -11.1 -30.7 -11.75 -30.8 -12.05 -30.2 L-12.1 -29.75 -12.3 -27.45 -12.15 -26.85 -11.4 -24.5 -10.35 -23.6 -10.05 -23.35 -10.0 -23.3 Q-9.4 -20.85 -9.65 -19.15 M-1.05 -16.0 L-1.0 -16.2 -0.55 -19.5 -1.0 -16.2 -1.05 -16.0" fill="#4d4333" fill-rule="evenodd" stroke="none"/>
    <path d="M7.35 -32.55 Q7.85 -36.15 10.7 -35.55 8.95 -35.25 7.35 -32.55 M-2.65 -31.95 Q1.0 -34.45 3.65 -31.15 0.1 -32.85 -2.65 -31.95" fill="#9b5e5e" fill-rule="evenodd" stroke="none"/>
    <path d="M10.8 -37.7 L10.7 -30.8 M10.7 -29.9 L10.65 -27.5 9.6 -23.45 M8.7 -17.65 L9.95 -17.6 M9.85 -28.95 L10.0 -29.15 10.7 -30.45 10.7 -30.55 Q10.0 -34.5 8.25 -32.45 L8.15 -30.55 8.15 -30.3 8.35 -27.75 9.85 -28.95 M1.3 -26.05 L2.85 -26.15 4.05 -26.2 Q3.8 -28.85 2.85 -30.45 -0.55 -30.45 -0.95 -25.9 L1.3 -26.05 M8.15 -30.3 Q7.7 -28.2 7.9 -26.75 8.05 -25.7 8.6 -24.95 L8.5 -24.5 Q8.45 -23.5 7.15 -23.85 M10.7 -30.45 L10.7 -29.9 M10.7 -30.55 L10.7 -30.8 M8.2 -20.25 L5.45 -19.65 4.15 -19.2 M4.45 -15.3 L3.5 -15.3 1.2 -15.6 M-7.75 -20.8 L-9.5 -23.0 -10.05 -23.4 -10.05 -23.35 M-9.65 -19.15 L-9.85 -15.85 -10.05 -14.65 -12.05 -13.7 -18.05 -10.05 M4.45 -15.3 L4.5 -15.3 Q7.2 -15.45 8.15 -16.85 M-12.1 -29.75 Q-11.8 -30.6 -11.1 -30.7 M-10.5 -28.6 L-9.8 -27.85 -9.6 -27.5 -9.3 -26.45 -9.25 -26.2 -8.7 -24.75 M-10.35 -23.6 L-10.05 -23.4 M-9.25 -26.2 L-10.3 -25.15" fill="none" stroke="#d7995e" stroke-linecap="round" stroke-linejoin="round" stroke-width="0.05"/>
    <path d="M11.25 -17.5 L13.2 -16.8 M22.3 6.75 L22.9 10.0 23.35 12.75 23.65 13.05 25.7 16.3 25.8 18.9 24.45 31.35 M-22.3 31.35 L-21.9 33.45 M-33.35 19.95 L-34.55 23.95 -35.05 27.75 -34.05 30.15 -31.95 33.7 M-32.35 16.35 L-33.35 19.95 M-26.4 23.25 L-25.8 21.75 -24.15 17.5 M-22.3 31.35 L-22.6 29.85 Q-23.15 26.25 -24.3 23.95 -24.95 22.65 -25.8 21.75 M-26.4 23.25 L-27.25 25.8" fill="none" stroke="#6a4e44" stroke-linecap="round" stroke-linejoin="round" stroke-width="0.05"/>
    <path d="M13.25 -16.7 Q14.5 -16.4 15.8 -15.35 18.75 -13.25 20.3 -9.15 L20.9 -7.8 21.5 -4.75 21.45 -2.4 Q22.6 3.05 23.65 5.15 L23.9 5.75 22.3 6.75 21.4 7.4 21.3 7.45 20.4 7.8 17.85 8.1 18.8 10.25 M24.45 31.35 L24.45 32.3 M11.25 -17.5 L11.25 -16.75 Q11.0 -11.7 8.85 -8.35 L7.7 -6.9 6.1 -5.45 Q-3.75 -4.55 -14.45 -8.1 L-14.7 -8.2 M-18.2 -9.25 L-19.45 -9.4 Q-21.25 -9.45 -23.3 -8.05 -26.8 -5.95 -28.95 -1.5 L-29.7 -0.05 -30.7 3.2 -30.95 5.85 -30.9 6.95 -30.55 9.1 M-16.55 4.9 L-17.0 5.6 -19.6 9.2 -21.1 13.4 -22.3 31.35 M-18.05 -10.05 L-14.7 -8.2 M21.45 -2.4 L20.8 0.5 M-19.45 -9.4 L-18.05 -10.05 M-30.95 5.85 Q-32.85 11.75 -34.15 14.05 L-34.55 14.65 -32.35 16.35 -31.95 16.7 -31.9 16.75 -30.95 17.2 -27.4 17.9 -24.15 17.5 -22.5 17.3 -21.1 13.4 M-19.6 9.2 L-21.7 11.1 M17.85 8.1 L17.45 7.35 Q19.1 4.4 18.8 0.3 18.55 -2.45 17.45 -5.65 M24.45 31.35 Q24.3 22.15 18.8 10.25" fill="none" stroke="#42415c" stroke-linecap="round" stroke-linejoin="round" stroke-width="0.05"/>
    <path d="M9.95 -17.6 L11.25 -17.5" fill="none" stroke="#674743" stroke-linecap="round" stroke-linejoin="round" stroke-width="0.05"/>
    <path d="M7.35 -32.55 Q8.95 -35.25 10.7 -35.55 7.85 -36.15 7.35 -32.55 M1.4 -15.9 L1.8 -16.75 Q2.6 -19.35 4.5 -20.4 6.45 -21.5 7.65 -20.9 L8.2 -20.25 Q8.6 -19.2 8.15 -16.85 M1.2 -15.6 Q0.35 -14.85 -1.05 -16.0 M1.4 -15.9 L1.2 -15.6 M-2.65 -31.95 Q1.0 -34.45 3.65 -31.15 0.1 -32.85 -2.65 -31.95" fill="none" stroke="#4b2e2e" stroke-linecap="round" stroke-linejoin="round" stroke-width="0.05"/>
    <path d="M-9.65 -19.15 Q-10.1 -16.0 -13.3 -15.35 -12.0 -16.15 -12.3 -19.3 L-15.2 -17.1 Q-12.85 -20.3 -15.2 -27.55 -17.55 -34.85 -14.35 -44.8 L-16.3 -45.9 Q-3.55 -51.85 3.5 -48.7 4.55 -49.0 2.9 -53.2 L10.85 -46.6 Q12.2 -40.5 10.95 -37.3 L10.8 -37.7 Q9.85 -40.15 8.9 -39.55 M7.45 -38.25 L6.15 -36.6 Q2.3 -39.1 0.05 -39.65 -2.15 -40.4 -4.3 -37.9 -6.5 -35.55 -5.95 -33.45 -5.55 -31.7 -4.55 -30.25 L-4.45 -30.1 -4.2 -29.75 Q-5.6 -20.2 -0.55 -19.5 L-1.0 -16.2 -1.05 -16.0 Q-5.85 -16.05 -7.75 -20.8 M-10.05 -23.35 L-10.0 -23.3 Q-9.4 -20.85 -9.65 -19.15 M-11.1 -30.7 Q-11.75 -30.8 -12.05 -30.2 L-12.1 -29.75 -12.3 -27.45 -12.15 -26.85 -11.4 -24.5 -10.35 -23.6 -10.05 -23.35 M-11.1 -30.7 Q-10.35 -30.6 -9.0 -29.3 L-8.9 -27.45 -8.7 -24.75 Q-8.4 -22.5 -7.75 -20.8" fill="none" stroke="#4f4535" stroke-linecap="round" stroke-linejoin="round" stroke-width="0.05"/>
    <path d="M-31.95 33.7 L-32.5 33.7" fill="none" stroke="#103a45" stroke-linecap="round" stroke-linejoin="round" stroke-width="0.05"/>
  </g>
</svg>
