<?xml version="1.0" encoding="UTF-8" standalone="no"?>
<svg xmlns:xlink="http://www.w3.org/1999/xlink" height="82.75px" width="64.1px" xmlns="http://www.w3.org/2000/svg">
  <g transform="matrix(1, 0, 0, 1, 37.35, 49.45)">
    <path d="M-9.05 -15.25 Q-8.95 -16.85 -9.0 -18.5 L-9.05 -19.75 -8.65 -19.3 -7.3 -18.35 -7.4 -17.55 -7.05 -18.15 -6.1 -17.5 -6.95 -14.55 -9.05 -15.25" fill="#ffd0ae" fill-rule="evenodd" stroke="none"/>
    <path d="M10.3 -30.55 L10.25 -29.65 10.1 -28.9 9.9 -27.95 Q9.1 -31.6 7.5 -29.65 L7.45 -29.0 7.3 -27.55 7.2 -25.15 7.75 -25.2 Q8.5 -25.55 9.05 -26.2 L9.7 -27.15 9.55 -26.5 8.55 -21.6 Q7.95 -18.45 3.55 -14.85 L2.95 -14.35 2.7 -14.1 0.7 -15.05 Q-2.3 -16.75 -3.6 -18.8 -4.8 -20.6 -4.7 -22.65 L-4.3 -23.6 Q-3.0 -26.55 -2.0 -29.55 L-0.8 -29.45 Q-0.65 -27.9 -0.15 -26.75 -1.1 -25.6 -1.2 -23.3 L0.45 -23.4 2.7 -23.55 3.55 -23.6 3.0 -26.3 2.7 -27.15 2.35 -27.8 2.15 -27.8 Q1.15 -27.75 0.5 -27.25 L0.3 -27.15 1.05 -29.15 3.95 -28.1 Q2.8 -29.35 1.3 -29.75 2.35 -31.85 4.05 -33.5 5.65 -30.15 5.15 -26.5 L7.0 -28.55 7.45 -29.7 Q8.6 -31.35 10.05 -31.6 L10.3 -30.55 M19.75 6.85 L22.75 18.85 23.15 19.45 25.2 23.4 26.75 32.35 20.8 32.25 18.1 26.95 Q17.2 23.9 17.7 20.65 L17.8 19.6 14.35 8.65 Q17.45 9.1 19.75 6.85 M-23.1 16.2 L-27.85 29.25 -27.65 30.4 -27.4 33.3 -34.7 33.3 -32.8 28.0 -32.85 27.9 -29.25 15.2 Q-27.05 16.4 -23.1 16.2 M-1.9 -29.75 L-0.8 -33.65 -0.85 -29.95 -1.9 -29.75 M8.25 -31.45 Q8.75 -32.8 8.7 -34.3 9.55 -33.3 10.0 -31.7 L8.25 -31.45 M7.95 -22.5 Q7.55 -23.15 7.35 -24.05 7.2 -24.55 7.2 -25.15 7.2 -24.55 7.35 -24.05 7.55 -23.15 7.95 -22.5 L6.65 -21.45 Q8.2 -21.0 7.95 -22.5 M2.6 -17.65 Q5.9 -17.9 6.8 -19.2 5.9 -17.9 2.6 -17.65 M18.15 20.7 L17.8 19.6 18.15 20.7 M-11.75 -25.9 L-11.7 -26.1 Q-11.35 -27.05 -10.7 -27.3 L-9.9 -27.4 -8.8 -26.95 -8.75 -26.85 Q-8.95 -24.9 -9.55 -24.75 -9.9 -25.55 -10.7 -26.05 L-11.75 -25.65 -11.75 -25.9" fill="#ffeadf" fill-rule="evenodd" stroke="none"/>
    <path d="M13.35 -13.2 L13.9 -12.75 Q15.9 -11.3 17.1 -8.35 L18.0 -5.45 18.2 -4.45 20.85 5.45 19.75 6.85 Q17.45 9.1 14.35 8.65 L12.9 8.35 12.95 8.3 13.7 7.4 Q14.8 5.85 15.0 3.9 L15.1 2.55 Q15.1 0.55 14.65 -0.85 15.3 -1.2 15.7 -2.1 L15.75 -2.15 16.05 -2.9 Q16.6 -5.3 15.4 -8.65 L13.35 -13.2 M-18.5 6.05 L-18.5 6.1 Q-20.9 10.95 -21.35 16.05 L-23.1 16.2 Q-27.05 16.4 -29.25 15.2 -30.75 14.35 -31.45 12.85 L-26.35 2.1 -26.45 2.65 -25.85 4.5 -25.2 5.6 Q-24.35 6.6 -22.8 6.3 L-21.85 5.9 -21.7 5.9 -18.8 3.4 -18.55 3.1 -18.2 2.45 Q-16.9 0.45 -15.75 -2.5 L-15.25 -3.55 -15.0 -2.05 Q-14.8 -0.9 -15.4 1.3 L-16.8 3.5 -18.5 6.05 M17.15 -0.25 L17.7 -1.2 18.15 -3.55 18.2 -4.45 18.15 -3.55 17.7 -1.2 17.15 -0.25 M-26.4 6.15 L-26.45 2.65 -26.4 6.15 M-20.2 7.5 L-18.5 6.1 -20.2 7.5" fill="#e7e7e7" fill-rule="evenodd" stroke="none"/>
    <path d="M10.1 -28.9 L10.1 -27.25 9.55 -26.5 9.7 -27.15 9.9 -27.8 9.9 -27.95 9.9 -27.8 9.7 -27.15 9.05 -26.2 9.35 -27.7 9.05 -29.25 8.3 -29.9 Q7.8 -29.9 7.5 -29.25 L7.45 -29.0 7.5 -29.65 Q9.1 -31.6 9.9 -27.95 L10.1 -28.9 M3.55 -14.85 L4.5 -14.75 5.25 -13.25 Q7.05 -9.3 7.45 -5.4 L-6.25 -1.65 Q-9.2 -5.35 -11.15 -9.65 L-12.1 -11.9 -10.75 -12.7 Q-10.55 -14.1 -9.45 -15.4 L-9.05 -15.25 -6.95 -14.55 Q-2.0 -13.1 0.05 -14.45 L2.7 -14.1 2.95 -14.35 3.55 -14.85 M8.9 -14.4 L11.4 -13.95 11.45 -13.85 Q12.35 -13.8 13.35 -13.2 L15.4 -8.65 Q16.6 -5.3 16.05 -2.9 L15.75 -2.15 15.7 -2.1 Q15.3 -1.2 14.65 -0.85 L13.6 -2.85 12.3 -5.05 12.05 -5.8 11.95 -6.0 8.9 -14.4 M-18.4 6.25 L-18.5 6.05 -16.8 3.5 -15.4 1.3 Q-14.8 -0.9 -15.0 -2.05 L-15.25 -3.55 -15.75 -2.5 Q-16.9 0.45 -18.2 2.45 L-18.55 3.1 -18.8 3.4 -21.7 5.9 -21.85 5.9 -22.8 6.3 Q-24.35 6.6 -25.2 5.6 L-25.85 4.5 -26.45 2.65 -26.35 2.1 -25.25 -1.45 Q-23.85 -4.35 -21.6 -5.85 L-21.6 -6.0 -15.9 -9.7 -15.4 -9.9 Q-13.5 -6.65 -13.15 -2.8 -12.9 1.2 -14.4 3.2 L-14.85 5.0 Q-16.3 8.3 -18.4 6.25 M0.5 -25.85 L0.3 -26.35 0.65 -26.9 1.2 -27.15 1.8 -26.9 1.95 -26.75 2.05 -26.35 1.8 -25.8 1.2 -25.45 0.5 -25.85 M2.15 -27.8 L2.35 -27.8 2.7 -27.15 2.15 -27.8 M3.0 -26.3 L3.55 -23.6 2.7 -23.55 3.1 -25.3 3.0 -26.3 M0.45 -23.4 L-1.2 -23.3 Q-1.1 -25.6 -0.15 -26.75 L0.05 -26.3 -0.05 -25.3 Q-0.05 -24.2 0.4 -23.45 L0.45 -23.4 M0.2 -26.75 L0.3 -27.15 0.5 -27.25 0.4 -27.15 0.2 -26.75 M7.55 -28.2 L7.5 -28.55 7.75 -29.1 8.15 -29.25 8.55 -29.1 8.6 -28.85 8.75 -28.55 8.55 -28.05 8.15 -27.9 7.75 -28.05 7.55 -28.2 M9.9 -27.95 L9.7 -27.15 9.9 -27.95 M7.6 -26.1 L8.3 -25.55 9.05 -26.2 Q8.5 -25.55 7.75 -25.2 L7.6 -26.1 M2.45 -10.45 L3.25 -11.75 2.95 -14.35 3.25 -11.75 2.45 -10.45 M12.05 -6.0 L12.05 -5.8 12.05 -6.0 Q11.85 -7.45 12.0 -8.05 11.85 -7.45 12.05 -6.0 M-21.6 -5.85 L-21.45 -5.95 Q-19.15 -7.45 -17.25 -6.5 L-15.65 -4.95 -15.5 -4.35 -15.65 -4.95 -17.25 -6.5 Q-19.15 -7.45 -21.45 -5.95 L-21.6 -5.85 M-10.7 -12.6 L-10.75 -12.7 -10.7 -12.6 Q-10.4 -10.45 -9.55 -10.0 -10.4 -10.45 -10.7 -12.6" fill="#ffffff" fill-rule="evenodd" stroke="none"/>
    <path d="M0.05 -14.45 Q-2.0 -13.1 -6.95 -14.55 L-6.1 -17.5 -4.15 -16.15 Q-2.0 -14.95 0.05 -14.45" fill="#ffdfc8" fill-rule="evenodd" stroke="none"/>
    <path d="M4.5 -14.75 L7.85 -14.5 8.9 -14.4 11.95 -6.0 12.05 -5.8 12.3 -5.05 13.6 -2.85 14.65 -0.85 Q15.1 0.55 15.1 2.55 L15.0 3.9 Q14.4 6.25 12.6 7.65 L12.2 7.95 0.1 12.25 -0.85 12.4 -1.1 12.5 -1.1 12.4 -1.55 12.55 Q-8.75 14.55 -11.05 10.65 -12.65 7.2 -11.2 1.05 -10.85 -0.45 -8.75 -1.55 L-6.25 -1.65 7.45 -5.4 Q7.05 -9.3 5.25 -13.25 L4.5 -14.75 M8.3 18.55 Q8.3 20.6 9.05 22.05 L9.25 22.35 9.35 22.4 9.85 23.1 Q12.2 26.3 13.1 30.2 L13.6 29.85 13.9 30.65 14.05 32.4 8.6 32.5 -9.65 32.9 -10.3 29.5 -10.3 29.3 -7.9 23.75 -5.75 20.4 -3.05 17.4 Q-1.3 15.95 1.75 15.35 4.9 14.7 8.3 18.55 M-11.3 -22.05 L-11.1 -21.55 -12.05 -22.6 Q-18.65 -30.55 -19.4 -38.35 L-19.35 -42.8 -19.3 -43.25 -18.45 -47.25 -17.65 -49.45 -14.8 -49.0 -4.5 -48.55 -3.35 -48.15 Q4.5 -47.6 7.95 -43.25 L8.15 -43.2 Q9.9 -42.45 9.35 -41.15 L8.95 -41.25 7.0 -41.6 Q1.4 -42.3 -4.5 -38.8 L-6.1 -37.85 Q-7.8 -35.3 -8.3 -31.55 -8.6 -29.5 -8.5 -27.0 L-8.5 -26.75 -8.8 -26.95 -9.9 -27.4 -10.7 -27.3 Q-11.35 -27.05 -11.7 -26.1 L-11.75 -25.9 -11.9 -25.3 -11.9 -24.2 -11.85 -23.9 -11.8 -23.8 -11.3 -22.05 M-5.95 -41.45 L-4.5 -42.1 Q0.15 -44.15 4.45 -43.9 L6.4 -43.65 7.95 -43.25 6.4 -43.65 4.45 -43.9 Q0.15 -44.15 -4.5 -42.1 L-5.95 -41.45 M13.1 30.2 L8.6 32.5 13.1 30.2 M-8.75 -44.75 Q-10.8 -42.2 -11.6 -38.35 -12.05 -36.3 -12.1 -33.85 -12.25 -30.55 -11.7 -26.5 L-11.7 -26.1 -11.7 -26.5 Q-12.25 -30.55 -12.1 -33.85 -12.05 -36.3 -11.6 -38.35 -10.8 -42.2 -8.75 -44.75" fill="#38c03f" fill-rule="evenodd" stroke="none"/>
    <path d="M12.9 8.35 Q11.65 9.7 9.9 10.25 L9.6 11.95 8.95 13.75 Q8.35 16.45 8.3 18.55 4.9 14.7 1.75 15.35 -1.3 15.95 -3.05 17.4 L-5.75 20.4 -7.9 23.75 -10.3 29.3 -10.3 29.5 -9.65 32.9 -16.7 33.1 -16.6 33.0 -15.05 28.25 -13.45 25.65 -12.7 23.1 -12.55 22.25 Q-12.15 19.1 -13.5 16.0 L-17.15 9.4 -18.4 6.25 Q-16.3 8.3 -14.85 5.0 L-14.4 3.2 Q-12.9 1.2 -13.15 -2.8 -13.5 -6.65 -15.4 -9.9 L-12.1 -11.9 -11.15 -9.65 Q-9.2 -5.35 -6.25 -1.65 L-8.75 -1.55 Q-10.85 -0.45 -11.2 1.05 -12.65 7.2 -11.05 10.65 -8.75 14.55 -1.55 12.55 L-1.1 12.4 -1.1 12.5 -0.85 12.4 0.1 12.25 12.2 7.95 12.6 7.65 Q14.4 6.25 15.0 3.9 14.8 5.85 13.7 7.4 L12.95 8.3 12.9 8.35 M-14.85 5.0 L-14.9 6.45 Q-14.85 10.25 -12.05 12.9 -9.4 15.55 -5.6 15.5 L-1.6 14.65 8.85 10.55 9.9 10.25 8.85 10.55 -1.6 14.65 -5.6 15.5 Q-9.4 15.55 -12.05 12.9 -14.85 10.25 -14.9 6.45 L-14.85 5.0" fill="#2f992f" fill-rule="evenodd" stroke="none"/>
    <path d="M1.95 -26.75 L1.8 -26.9 1.2 -27.15 0.65 -26.9 0.3 -26.35 0.5 -25.85 0.5 -25.3 0.85 -24.2 1.55 -23.7 2.3 -24.2 2.6 -25.3 2.3 -26.45 1.95 -26.75 M2.15 -27.8 L2.7 -27.15 3.0 -26.3 3.1 -25.3 2.7 -23.55 0.45 -23.4 0.4 -23.45 Q-0.05 -24.2 -0.05 -25.3 L0.05 -26.3 0.1 -26.25 0.2 -26.75 0.4 -27.15 0.5 -27.25 Q1.15 -27.75 2.15 -27.8 M8.6 -28.85 L8.55 -29.1 8.15 -29.25 7.75 -29.1 7.5 -28.55 7.55 -28.2 7.55 -27.7 7.75 -26.75 8.3 -26.35 8.8 -26.75 9.05 -27.7 8.8 -28.65 8.6 -28.85 M7.45 -29.0 L7.5 -29.25 Q7.8 -29.9 8.3 -29.9 L9.05 -29.25 9.35 -27.7 9.05 -26.2 8.3 -25.55 7.6 -26.1 7.3 -27.55 7.45 -29.0" fill="#99cc00" fill-rule="evenodd" stroke="none"/>
    <path d="M1.95 -26.75 L2.3 -26.45 2.6 -25.3 2.3 -24.2 1.55 -23.7 0.85 -24.2 0.5 -25.3 0.5 -25.85 1.2 -25.45 1.8 -25.8 2.05 -26.35 1.95 -26.75 M7.55 -28.2 L7.75 -28.05 8.15 -27.9 8.55 -28.05 8.75 -28.55 8.6 -28.85 8.8 -28.65 9.05 -27.7 8.8 -26.75 8.3 -26.35 7.75 -26.75 7.55 -27.7 7.55 -28.2" fill="#000000" fill-rule="evenodd" stroke="none"/>
    <path d="M-9.05 -19.75 L-9.95 -20.8 -10.1 -20.8 -10.7 -21.2 -11.15 -21.85 -11.8 -23.8 -11.85 -23.9 -11.75 -24.35 -11.75 -25.65 -10.7 -26.05 Q-9.9 -25.55 -9.55 -24.75 -8.95 -24.9 -8.75 -26.85 L-8.8 -26.95 -8.5 -26.75 -8.5 -27.0 -8.3 -26.9 Q-6.65 -24.4 -7.3 -18.35 L-8.65 -19.3 -9.05 -19.75 M-7.05 -18.15 L-6.45 -19.35 Q-5.3 -21.45 -4.3 -23.6 L-4.7 -22.65 Q-4.8 -20.6 -3.6 -18.8 -2.3 -16.75 0.7 -15.05 L2.7 -14.1 0.05 -14.45 Q-2.0 -14.95 -4.15 -16.15 L-6.1 -17.5 -7.05 -18.15 M-10.1 -22.05 L-9.85 -23.2 -9.15 -23.4 -9.15 -23.6 -9.55 -24.75 -9.15 -23.6 -9.15 -23.4 -9.85 -23.2 -10.1 -22.05" fill="#ffdfce" fill-rule="evenodd" stroke="none"/>
    <path d="M7.3 -27.55 L7.6 -26.1 7.75 -25.2 7.2 -25.15 7.3 -27.55 M7.95 -22.5 Q8.2 -21.0 6.65 -21.45 L7.95 -22.5" fill="#efc8a0" fill-rule="evenodd" stroke="none"/>
    <path d="M-15.35 -16.25 L-15.8 -15.95 -16.0 -15.7 -17.45 -14.75 -17.45 -14.7 -17.65 -14.6 -17.7 -14.7 -17.3 -15.4 -17.3 -15.5 -16.6 -17.5 -16.35 -18.8 -16.25 -19.05 -16.25 -19.8 -16.35 -20.3 Q-16.2 -20.45 -16.0 -20.55 L-14.7 -21.1 -14.6 -21.1 -14.4 -20.1 -14.95 -17.15 -15.35 -16.25 M-20.6 -17.3 L-21.4 -15.5 -21.4 -15.4 -21.65 -14.75 -22.05 -12.9 -23.15 -14.7 -23.35 -15.25 -23.45 -15.4 -23.6 -17.75 -23.45 -18.55 -23.1 -19.45 -22.9 -19.75 -26.9 -17.55 -26.95 -17.55 -29.05 -16.35 Q-29.2 -18.05 -28.8 -19.6 L-28.75 -20.0 -28.1 -21.55 -28.15 -21.55 -28.5 -21.65 -28.55 -21.65 -29.15 -21.85 -29.8 -21.85 -30.35 -21.6 -31.0 -21.1 -31.05 -21.05 -32.65 -17.8 Q-32.9 -21.35 -31.95 -24.1 L-30.65 -26.65 -28.9 -28.85 -28.8 -28.85 -28.65 -29.0 -28.8 -29.1 -30.1 -29.1 -31.35 -28.55 -32.0 -27.95 -32.1 -28.0 -32.2 -27.9 -32.25 -27.8 -33.0 -27.05 -33.05 -26.9 -33.3 -26.65 -35.35 -23.45 Q-34.55 -30.0 -31.55 -32.7 L-30.8 -33.35 -30.75 -33.35 -30.65 -33.4 -28.8 -34.3 -29.2 -34.65 -29.4 -34.7 -29.3 -34.7 -27.9 -35.7 -27.85 -35.75 -27.2 -36.1 -26.5 -36.2 -26.3 -36.35 -26.05 -36.35 -25.65 -36.45 -24.6 -36.2 -23.8 -35.9 -23.15 -35.45 Q-26.15 -34.5 -27.85 -31.25 L-27.9 -31.2 -28.5 -29.95 -27.0 -30.8 -26.3 -30.95 -26.15 -31.05 -24.45 -30.95 -23.65 -30.6 -23.05 -30.15 -23.9 -29.8 Q-25.75 -28.95 -27.0 -27.05 L-28.15 -25.0 -28.65 -23.8 -28.65 -23.55 -28.9 -22.9 -29.15 -21.85 -28.55 -22.25 -28.25 -22.4 -27.65 -22.5 -27.45 -22.5 -26.9 -23.05 -25.75 -23.9 -25.6 -23.9 -24.8 -24.25 -23.35 -24.2 -23.6 -24.05 -25.35 -21.85 -26.3 -20.1 -26.35 -19.35 -26.3 -18.65 -20.35 -21.9 -20.25 -21.85 -20.45 -21.55 -20.5 -21.2 -20.5 -21.1 -20.65 -20.8 -20.85 -20.0 -20.85 -19.6 -20.6 -17.45 -20.6 -17.3 M-30.1 -35.1 L-30.25 -35.1 -30.75 -35.2 -31.95 -35.2 -32.1 -35.1 -32.8 -34.95 -33.55 -34.55 -33.95 -34.3 -34.9 -33.6 -35.0 -33.6 -37.35 -31.1 Q-35.7 -37.95 -30.8 -40.9 -29.45 -41.8 -27.85 -42.35 L-24.8 -43.1 -25.0 -43.25 -25.0 -43.35 -26.0 -44.2 -30.15 -47.0 -28.4 -47.6 -28.25 -47.6 -25.6 -48.15 -21.75 -48.35 -20.1 -48.0 -22.45 -47.45 -22.6 -47.45 -24.4 -46.85 -24.2 -46.7 -20.1 -44.05 -20.0 -44.0 -19.55 -43.4 -19.3 -43.25 -19.35 -42.8 -22.05 -42.2 -23.65 -41.45 Q-26.65 -40.1 -28.65 -37.55 L-30.1 -35.1 M7.0 -41.6 L7.55 -40.25 8.8 -38.75 9.4 -37.45 9.5 -37.35 9.95 -36.1 10.05 -35.7 10.3 -35.1 7.55 -37.7 6.6 -37.45 Q6.8 -35.35 5.85 -33.5 5.8 -36.0 3.8 -36.55 1.5 -35.6 0.85 -33.1 L1.25 -37.05 Q-2.85 -35.2 -4.6 -31.5 -5.25 -32.25 -5.4 -36.45 L-7.0 -34.0 -8.3 -31.55 Q-7.8 -35.3 -6.1 -37.85 L-4.5 -38.8 Q1.4 -42.3 7.0 -41.6" fill="#fdb875" fill-rule="evenodd" stroke="none"/>
    <path d="M8.95 -41.25 L9.35 -40.75 Q14.45 -36.4 10.55 -27.0 L10.3 -30.55 10.05 -31.6 10.35 -31.65 10.0 -31.7 Q9.55 -33.3 8.7 -34.3 8.75 -32.8 8.25 -31.45 7.35 -30.9 7.15 -29.2 L7.45 -29.7 7.0 -28.55 5.15 -26.5 Q5.65 -30.15 4.05 -33.5 2.35 -31.85 1.3 -29.75 L-0.85 -29.95 -0.8 -33.65 -1.9 -29.75 -2.95 -29.45 -2.0 -29.55 Q-3.0 -26.55 -4.3 -23.6 -5.3 -21.45 -6.45 -19.35 L-7.05 -18.15 -7.4 -17.55 -7.3 -18.35 Q-6.65 -24.4 -8.3 -26.9 L-8.5 -27.0 Q-8.6 -29.5 -8.3 -31.55 L-7.0 -34.0 -5.4 -36.45 Q-5.25 -32.25 -4.6 -31.5 -2.85 -35.2 1.25 -37.05 L0.85 -33.1 Q1.5 -35.6 3.8 -36.55 5.8 -36.0 5.85 -33.5 6.8 -35.35 6.6 -37.45 L7.55 -37.7 10.3 -35.1 10.05 -35.7 9.95 -36.1 9.5 -37.35 9.4 -37.45 8.8 -38.75 7.55 -40.25 7.0 -41.6 8.95 -41.25 M-11.15 -21.85 L-11.05 -21.6 -11.3 -22.05 -11.8 -23.8 -11.15 -21.85 M-12.05 -22.6 L-12.4 -20.95 -12.55 -20.65 -12.95 -19.6 -14.35 -17.45 -15.15 -16.6 -15.35 -16.25 -14.95 -17.15 -14.4 -20.1 -14.6 -21.1 -14.7 -21.1 -16.0 -20.55 Q-16.2 -20.45 -16.35 -20.3 L-16.4 -20.45 -17.65 -20.1 -19.3 -18.95 -20.25 -17.8 -20.6 -17.3 -20.6 -17.45 -20.85 -19.6 -20.85 -20.0 -20.65 -20.8 -20.5 -21.1 -20.5 -21.2 -20.45 -21.55 -20.25 -21.85 -20.35 -21.9 -26.3 -18.65 -26.35 -19.35 -26.3 -20.1 -25.35 -21.85 -23.6 -24.05 -23.35 -24.2 -24.8 -24.25 -25.6 -23.9 -25.75 -23.9 -26.9 -23.05 -27.45 -22.5 -27.65 -22.5 -28.25 -22.4 -28.55 -22.25 -29.15 -21.85 -28.9 -22.9 -28.65 -23.55 -28.65 -23.8 -28.15 -25.0 -27.0 -27.05 Q-25.75 -28.95 -23.9 -29.8 L-23.05 -30.15 -23.65 -30.6 -24.45 -30.95 -26.15 -31.05 -26.3 -30.95 -27.0 -30.8 -28.5 -29.95 -27.9 -31.2 -27.85 -31.25 Q-26.15 -34.5 -23.15 -35.45 L-23.8 -35.9 -24.6 -36.2 -25.65 -36.45 -26.05 -36.35 -26.3 -36.35 -26.5 -36.2 -27.2 -36.1 -27.85 -35.75 -27.9 -35.7 -29.3 -34.7 -29.4 -34.7 -29.45 -34.8 -29.85 -34.95 -29.95 -35.05 -30.1 -35.1 -28.65 -37.55 Q-26.65 -40.1 -23.65 -41.45 L-22.05 -42.2 -19.35 -42.8 -19.4 -38.35 Q-18.65 -30.55 -12.05 -22.6 M-17.65 -14.6 L-17.7 -14.6 -17.8 -14.5 -17.7 -14.7 -17.65 -14.6 M-32.0 -27.95 L-32.2 -27.9 -32.1 -28.0 -32.0 -27.95 M-20.1 -48.0 L-19.25 -47.7 -18.45 -47.25 -19.3 -43.25 -19.55 -43.4 -20.0 -44.0 -20.1 -44.05 -24.2 -46.7 -24.4 -46.85 -22.6 -47.45 -22.45 -47.45 -20.1 -48.0 M-0.15 -26.75 Q-0.65 -27.9 -0.8 -29.45 L1.05 -29.15 0.3 -27.15 0.2 -26.75 0.1 -26.25 0.05 -26.3 -0.15 -26.75 M-11.9 -24.2 L-11.9 -25.3 -11.75 -25.9 -11.75 -25.65 -11.75 -24.35 -11.85 -23.9 -11.9 -24.2" fill="#fb8b1c" fill-rule="evenodd" stroke="none"/>
    <path d="M-2.0 -29.55 L-2.95 -29.45 -1.9 -29.75 -0.85 -29.95 1.3 -29.75 Q2.8 -29.35 3.95 -28.1 L1.05 -29.15 -0.8 -29.45 -2.0 -29.55 M7.45 -29.7 L7.15 -29.2 Q7.35 -30.9 8.25 -31.45 L10.0 -31.7 10.35 -31.65 10.05 -31.6 Q8.6 -31.35 7.45 -29.7" fill="#503e53" fill-rule="evenodd" stroke="none"/>
    <path d="M10.3 -30.55 L10.25 -29.65 10.1 -28.9 9.9 -27.95 9.9 -27.8 9.7 -27.15 9.55 -26.5 8.55 -21.6 Q7.95 -18.45 3.55 -14.85 L2.95 -14.35 2.7 -14.1 0.05 -14.45 M19.75 6.85 L22.75 18.85 23.15 19.45 25.2 23.4 26.75 32.35 M20.8 32.25 L18.1 26.95 Q17.2 23.9 17.7 20.65 L17.8 19.6 14.35 8.65 M-23.1 16.2 L-27.85 29.25 -27.65 30.4 -27.4 33.3 M-34.7 33.3 L-32.8 28.0 M-32.85 27.9 L-29.25 15.2 M-9.05 -15.25 Q-8.95 -16.85 -9.0 -18.5 L-9.05 -19.75 -9.95 -20.8 -10.1 -20.8 -10.7 -21.2 -11.15 -21.85 M2.7 -27.15 L2.35 -27.8 2.15 -27.8 M2.7 -27.15 L3.0 -26.3 3.55 -23.6 2.7 -23.55 0.45 -23.4 -1.2 -23.3 Q-1.1 -25.6 -0.15 -26.75 M0.3 -27.15 L0.5 -27.25 Q1.15 -27.75 2.15 -27.8 M9.05 -26.2 L9.7 -27.15 9.9 -27.95 Q9.1 -31.6 7.5 -29.65 L7.45 -29.0 7.3 -27.55 7.6 -26.1 M9.05 -26.2 Q8.5 -25.55 7.75 -25.2 L7.6 -26.1 M7.2 -25.15 Q7.2 -24.55 7.35 -24.05 7.55 -23.15 7.95 -22.5 8.2 -21.0 6.65 -21.45 M7.3 -27.55 L7.2 -25.15 M6.8 -19.2 Q5.9 -17.9 2.6 -17.65 M17.8 19.6 L18.15 20.7 M-8.8 -26.95 L-8.75 -26.85 M-9.55 -24.75 L-9.15 -23.6 -9.15 -23.4 -9.85 -23.2 -10.1 -22.05 M-9.05 -19.75 L-8.65 -19.3 -7.3 -18.35 M-7.05 -18.15 L-6.1 -17.5 -4.15 -16.15 Q-2.0 -14.95 0.05 -14.45 M-9.55 -24.75 Q-9.9 -25.55 -10.7 -26.05" fill="none" stroke="#d7995e" stroke-linecap="round" stroke-linejoin="round" stroke-width="0.05"/>
    <path d="M3.55 -14.85 L4.5 -14.75 M8.9 -14.4 L11.4 -13.95 M11.45 -13.85 Q12.35 -13.8 13.35 -13.2 L13.9 -12.75 Q15.9 -11.3 17.1 -8.35 L18.0 -5.45 18.2 -4.45 20.85 5.45 19.75 6.85 Q17.45 9.1 14.35 8.65 L12.9 8.35 M-18.4 6.25 L-18.5 6.05 -18.5 6.1 Q-20.9 10.95 -21.35 16.05 L-23.1 16.2 M-29.25 15.2 Q-30.75 14.35 -31.45 12.85 L-26.35 2.1 -25.25 -1.45 Q-23.85 -4.35 -21.6 -5.85 M-21.6 -6.0 L-15.9 -9.7 -15.4 -9.9 M-12.1 -11.9 L-10.75 -12.7 Q-10.55 -14.1 -9.45 -15.4 L-9.05 -15.25 M2.95 -14.35 L3.25 -11.75 2.45 -10.45 M0.05 -14.45 Q-2.0 -13.1 -6.95 -14.55 L-9.05 -15.25 M12.05 -6.0 Q11.85 -7.45 12.0 -8.05 M18.2 -4.45 L18.15 -3.55 17.7 -1.2 17.15 -0.25 M-15.5 -4.35 L-15.65 -4.95 -17.25 -6.5 Q-19.15 -7.45 -21.45 -5.95 L-21.6 -5.85 M-10.7 -12.6 Q-10.4 -10.45 -9.55 -10.0 M-26.45 2.65 L-26.4 6.15 M-18.5 6.05 L-16.8 3.5 M-18.5 6.1 L-20.2 7.5 M-26.45 2.65 L-26.35 2.1 M-29.25 15.2 Q-27.05 16.4 -23.1 16.2" fill="none" stroke="#cccccc" stroke-linecap="round" stroke-linejoin="round" stroke-width="0.05"/>
    <path d="M8.95 13.75 Q8.35 16.45 8.3 18.55 8.3 20.6 9.05 22.05 L9.25 22.35 9.35 22.4" fill="none" stroke="#685942" stroke-linecap="round" stroke-linejoin="round" stroke-width="0.05"/>
    <path d="M7.85 -14.5 L8.9 -14.4" fill="none" stroke="#305054" stroke-linecap="round" stroke-linejoin="round" stroke-width="0.05"/>
    <path d="M-2.0 -29.55 L-2.95 -29.45 -1.9 -29.75 M-0.85 -29.95 L1.3 -29.75 Q2.8 -29.35 3.95 -28.1 L1.05 -29.15 -0.8 -29.45 -2.0 -29.55 M7.45 -29.7 L7.15 -29.2 Q7.35 -30.9 8.25 -31.45 M10.0 -31.7 L10.35 -31.65 10.05 -31.6 M10.0 -31.7 L8.25 -31.45 M7.45 -29.7 Q8.6 -31.35 10.05 -31.6 M-0.85 -29.95 L-1.9 -29.75" fill="none" stroke="#5b4961" stroke-linecap="round" stroke-linejoin="round" stroke-width="0.05"/>
    <path d="M8.95 -41.25 L9.35 -40.75 Q14.45 -36.4 10.55 -27.0 L10.3 -30.55 M-11.15 -21.85 L-11.05 -21.6 -11.3 -22.05 M-12.05 -22.6 L-12.4 -20.95 -12.55 -20.65 -12.95 -19.6 -14.35 -17.45 -15.15 -16.6 -15.35 -16.25 -15.8 -15.95 -16.0 -15.7 -17.45 -14.75 -17.45 -14.7 -17.65 -14.6 -17.7 -14.6 -17.8 -14.5 -17.7 -14.7 -17.3 -15.4 -17.3 -15.5 -16.6 -17.5 -16.35 -18.8 -16.25 -19.05 -16.25 -19.8 -16.35 -20.3 -16.4 -20.45 -17.65 -20.1 -19.3 -18.95 -20.25 -17.8 -20.6 -17.3 -21.4 -15.5 -21.4 -15.4 -21.65 -14.75 -22.05 -12.9 -23.15 -14.7 -23.35 -15.25 -23.45 -15.4 -23.6 -17.75 -23.45 -18.55 -23.1 -19.45 -22.9 -19.75 -26.9 -17.55 -26.95 -17.55 -29.05 -16.35 Q-29.2 -18.05 -28.8 -19.6 L-28.75 -20.0 -28.1 -21.55 -28.15 -21.55 -28.5 -21.65 -28.55 -21.65 -29.15 -21.85 -29.8 -21.85 -30.35 -21.6 -31.0 -21.1 -31.05 -21.05 -32.65 -17.8 Q-32.9 -21.35 -31.95 -24.1 L-30.65 -26.65 -28.9 -28.85 -28.8 -28.85 -28.65 -29.0 -28.8 -29.1 -30.1 -29.1 -31.35 -28.55 -32.0 -27.95 -32.2 -27.9 -32.25 -27.8 -33.0 -27.05 -33.05 -26.9 -33.3 -26.65 -35.35 -23.45 Q-34.55 -30.0 -31.55 -32.7 L-30.8 -33.35 -30.75 -33.35 -30.65 -33.4 -28.8 -34.3 -29.2 -34.65 -29.4 -34.7 -29.45 -34.8 -29.85 -34.95 -29.95 -35.05 -30.1 -35.1 -30.25 -35.1 -30.75 -35.2 -31.95 -35.2 -32.1 -35.1 -32.8 -34.95 -33.55 -34.55 -33.95 -34.3 -34.9 -33.6 -35.0 -33.6 -37.35 -31.1 Q-35.7 -37.95 -30.8 -40.9 -29.45 -41.8 -27.85 -42.35 L-24.8 -43.1 -25.0 -43.25 -25.0 -43.35 -26.0 -44.2 -30.15 -47.0 -28.4 -47.6 -28.25 -47.6 -25.6 -48.15 -21.75 -48.35 -20.1 -48.0 -19.25 -47.7 -18.45 -47.25 M-8.5 -27.0 L-8.3 -26.9 Q-6.65 -24.4 -7.3 -18.35 L-7.4 -17.55 -7.05 -18.15 -6.45 -19.35 Q-5.3 -21.45 -4.3 -23.6 -3.0 -26.55 -2.0 -29.55 M-1.9 -29.75 L-0.8 -33.65 -0.85 -29.95 M1.3 -29.75 Q2.35 -31.85 4.05 -33.5 5.65 -30.15 5.15 -26.5 L7.0 -28.55 7.45 -29.7 M8.25 -31.45 Q8.75 -32.8 8.7 -34.3 9.55 -33.3 10.0 -31.7 M10.05 -31.6 L10.3 -30.55 M-0.15 -26.75 Q-0.65 -27.9 -0.8 -29.45 M0.2 -26.75 L0.3 -27.15 1.05 -29.15 M0.2 -26.75 L0.1 -26.25 0.05 -26.3 M-10.7 -27.3 L-9.9 -27.4 M-11.75 -25.65 L-11.75 -24.35 -11.85 -23.9 -11.8 -23.8 -11.15 -21.85 M-11.75 -25.65 L-11.75 -25.9 M-32.2 -27.9 L-32.1 -28.0 -32.0 -27.95 M-20.6 -17.45 L-20.6 -17.3 M-29.4 -34.7 L-29.3 -34.7 M-11.85 -23.9 L-11.9 -24.2 M-0.15 -26.75 L0.05 -26.3" fill="none" stroke="#ab5703" stroke-linecap="round" stroke-linejoin="round" stroke-width="0.05"/>
    <path d="M4.5 -14.75 L7.85 -14.5 M12.9 8.35 Q11.65 9.7 9.9 10.25 L9.6 11.95 8.95 13.75 M9.35 22.4 L9.85 23.1 Q12.2 26.3 13.1 30.2 L13.6 29.85 13.9 30.65 14.05 32.4 M-16.7 33.1 L-16.6 33.0 -15.05 28.25 -13.45 25.65 -12.7 23.1 -12.55 22.25 Q-12.15 19.1 -13.5 16.0 L-17.15 9.4 -18.4 6.25 M-21.6 -5.85 L-21.6 -6.0 M-15.4 -9.9 L-12.1 -11.9 M-11.1 -21.55 L-12.05 -22.6 M-18.45 -47.25 L-17.65 -49.45 -14.8 -49.0 -4.5 -48.55 -3.35 -48.15 Q4.5 -47.6 7.95 -43.25 L8.15 -43.2 Q9.9 -42.45 9.35 -41.15 L8.95 -41.25 7.0 -41.6 Q1.4 -42.3 -4.5 -38.8 L-6.1 -37.85 Q-7.8 -35.3 -8.3 -31.55 -8.6 -29.5 -8.5 -27.0 M7.95 -43.25 L6.4 -43.65 4.45 -43.9 Q0.15 -44.15 -4.5 -42.1 L-5.95 -41.45 M4.5 -14.75 L5.25 -13.25 Q7.05 -9.3 7.45 -5.4 L-6.25 -1.65 Q-9.2 -5.35 -11.15 -9.65 L-12.1 -11.9 M15.0 3.9 L15.1 2.55 Q15.1 0.55 14.65 -0.85 L13.6 -2.85 12.3 -5.05 12.05 -5.8 11.95 -6.0 8.9 -14.4 M12.05 -5.8 L12.05 -6.0 M15.0 3.9 Q14.8 5.85 13.7 7.4 L12.95 8.3 12.9 8.35 M9.9 10.25 L8.85 10.55 -1.6 14.65 -5.6 15.5 Q-9.4 15.55 -12.05 12.9 -14.85 10.25 -14.9 6.45 L-14.85 5.0 Q-16.3 8.3 -18.4 6.25 M8.6 32.5 L13.1 30.2 M-19.3 -43.25 L-19.35 -42.8 -19.4 -38.35 Q-18.65 -30.55 -12.05 -22.6 M-18.45 -47.25 L-19.3 -43.25 M-11.7 -26.1 L-11.7 -26.5 Q-12.25 -30.55 -12.1 -33.85 -12.05 -36.3 -11.6 -38.35 -10.8 -42.2 -8.75 -44.75 M-8.5 -26.75 L-8.5 -27.0 M-10.75 -12.7 L-10.7 -12.6 M-15.4 -9.9 Q-13.5 -6.65 -13.15 -2.8 -12.9 1.2 -14.4 3.2 L-14.85 5.0" fill="none" stroke="#426123" stroke-linecap="round" stroke-linejoin="round" stroke-width="0.05"/>
  </g>
</svg>
