<?xml version="1.0" encoding="UTF-8" standalone="no"?>
<svg xmlns:xlink="http://www.w3.org/1999/xlink" height="90.75px" width="59.5px" xmlns="http://www.w3.org/2000/svg">
  <g transform="matrix(1, 0, 0, 1, 34.9, 57.1)">
    <path d="M-5.1 -26.85 L-6.45 -21.85 -4.0 -17.8 Q-1.7 -13.95 2.9 -13.1 L3.9 -13.1 3.0 -12.6 Q1.3 -11.7 -6.25 -11.95 -9.55 -12.8 -10.05 -13.6 -9.7 -16.15 -10.0 -19.05 L-10.0 -19.55 -10.25 -20.95 -11.5 -21.75 -11.7 -22.2 -11.6 -22.05 -12.3 -24.4 Q-11.95 -25.5 -10.7 -26.0 L-10.1 -25.35 -9.9 -25.0 -8.95 -25.0 Q-8.35 -20.55 -8.4 -19.7 -7.15 -24.8 -5.1 -26.85 M7.85 -22.5 L7.7 -22.0 Q7.7 -21.05 6.45 -21.4 L7.35 -22.0 7.85 -22.5 M-12.2 -27.4 L-12.2 -27.65 Q-11.9 -28.25 -11.3 -28.1 -11.9 -28.1 -12.2 -27.4 M-9.45 -22.6 L-9.5 -23.7 -9.55 -24.0 -9.9 -25.0 -9.55 -24.0 -9.5 -23.7 -9.45 -22.6 M2.9 -13.1 Q-1.25 -13.4 -4.95 -15.55 L-7.95 -18.3 -9.75 -20.6 -10.25 -20.95 -9.75 -20.6 -7.95 -18.3 -4.95 -15.55 Q-1.25 -13.4 2.9 -13.1 M-9.5 -23.7 L-10.55 -22.7 -9.5 -23.7" fill="#ffd0ae" fill-rule="evenodd" stroke="none"/>
    <path d="M9.95 -34.8 L10.15 -29.25 9.85 -25.0 8.85 -21.15 8.75 -21.1 6.15 -20.65 Q3.75 -20.65 2.3 -19.5 L0.95 -18.5 Q0.15 -17.6 -1.9 -17.55 L2.2 -16.65 2.3 -16.65 5.3 -18.15 6.7 -18.7 7.6 -18.75 8.2 -18.65 8.25 -18.65 8.2 -18.65 8.25 -18.7 8.25 -18.65 7.7 -15.35 10.5 -15.2 Q10.35 -7.25 5.45 -3.5 -4.15 -2.6 -14.55 -6.1 L-14.75 -6.2 -18.05 -8.05 -12.15 -11.55 -10.25 -12.4 -10.05 -13.6 Q-9.55 -12.8 -6.25 -11.95 1.3 -11.7 3.0 -12.6 L3.9 -13.1 2.9 -13.1 Q-1.7 -13.95 -4.0 -17.8 L-6.45 -21.85 -5.1 -26.85 -4.6 -27.25 Q-5.85 -28.8 -6.3 -30.8 -6.8 -32.8 -4.7 -35.15 -2.6 -37.55 -0.5 -36.85 1.7 -36.35 5.5 -33.9 8.45 -37.45 9.95 -34.8 M7.7 -15.35 Q7.05 -13.25 3.9 -13.1 7.05 -13.25 7.7 -15.35 M0.7 -23.5 L2.2 -23.6 3.4 -23.65 Q3.15 -26.3 2.2 -27.85 -1.1 -27.85 -1.45 -23.35 L0.7 -23.5 M7.45 -28.4 L7.4 -27.45 7.6 -25.2 9.0 -26.35 9.2 -26.55 9.9 -27.85 Q9.25 -31.85 7.5 -29.8 L7.45 -28.4 M9.9 -32.75 Q7.1 -33.35 6.65 -29.9 8.15 -32.5 9.9 -32.75 M6.45 -21.4 Q7.7 -21.05 7.7 -22.0 L7.85 -22.5 7.35 -22.0 6.45 -21.4 M7.6 -18.75 Q5.45 -17.2 2.3 -16.65 5.45 -17.2 7.6 -18.75 M7.4 -27.45 Q7.0 -25.55 7.2 -24.25 7.35 -23.2 7.85 -22.5 7.35 -23.2 7.2 -24.25 7.0 -25.55 7.4 -27.45 M-12.2 -27.4 Q-11.9 -28.1 -11.3 -28.1 -10.55 -28.05 -9.25 -26.75 L-8.95 -25.0 -9.9 -25.0 -10.1 -25.35 -10.7 -26.0 Q-11.95 -25.5 -12.3 -24.4 L-12.45 -24.95 -12.2 -27.4 M-8.3 -8.15 L-8.3 -8.05 -8.2 -8.05 -8.3 -8.15 M3.1 -28.55 Q0.45 -31.75 -3.1 -29.3 -0.4 -30.2 3.1 -28.55" fill="#ffdfc8" fill-rule="evenodd" stroke="none"/>
    <path d="M21.75 11.4 L22.25 14.15 22.45 14.4 24.5 17.55 24.6 20.05 23.3 32.25 16.1 32.45 14.35 24.55 13.8 20.5 13.8 17.7 13.7 16.65 Q14.05 15.25 14.9 14.2 L15.0 14.1 15.05 14.35 15.3 13.8 Q16.65 10.9 21.75 11.4 M-25.9 23.6 Q-25.2 24.3 -24.45 25.7 -23.3 27.95 -22.8 31.45 L-22.4 33.4 -32.85 33.65 -33.95 31.75 -34.9 29.45 -34.35 25.7 -33.95 24.35 -33.6 24.05 -33.75 23.9 -33.0 21.15 Q-29.15 21.0 -27.4 22.5 -26.6 23.15 -26.2 24.35 L-25.9 23.6 M15.05 14.35 L15.7 16.85 15.05 14.35 M-27.05 26.8 L-26.2 24.35 -27.05 26.8" fill="#d2c0b7" fill-rule="evenodd" stroke="none"/>
    <path d="M21.15 8.35 L21.75 11.4 Q16.65 10.9 15.3 13.8 L15.05 14.35 15.0 14.1 13.65 9.2 16.2 9.75 19.4 9.3 20.25 9.0 20.3 8.95 21.15 8.35 M-24.05 18.75 L-25.9 23.6 -26.2 24.35 Q-26.6 23.15 -27.4 22.5 -29.15 21.0 -33.0 21.15 L-32.0 17.6 -31.6 17.95 -31.5 18.0 -30.6 18.45 -27.1 19.2 -24.05 18.75" fill="#bda097" fill-rule="evenodd" stroke="none"/>
    <path d="M12.35 -14.5 Q13.6 -14.3 14.9 -13.2 17.75 -11.2 19.3 -7.15 L19.8 -5.85 20.4 -2.9 20.45 -1.6 20.4 -0.65 19.7 0.5 18.5 1.5 18.2 1.65 17.8 1.75 17.65 1.85 17.5 1.9 15.4 1.75 15.25 1.7 14.25 3.9 14.15 4.0 14.1 4.35 Q13.35 6.5 13.1 9.1 12.9 11.65 13.4 14.35 L13.6 15.45 13.6 15.75 13.7 16.65 13.8 17.7 13.8 20.5 14.35 24.55 14.6 32.45 -13.2 33.15 -13.75 28.2 -12.85 22.1 -12.95 22.05 -13.3 21.65 -13.5 21.3 -14.15 20.4 -17.25 14.2 -18.65 9.4 -16.6 6.5 -14.9 2.05 -14.55 -1.85 -14.55 -2.05 -14.9 -1.15 -18.15 4.8 -19.2 6.25 Q-20.8 8.2 -22.35 9.2 L-23.05 9.65 -23.85 10.0 -25.4 10.45 -27.7 10.45 -28.05 10.2 -28.4 10.1 -28.75 9.9 -29.6 9.1 Q-30.35 8.25 -30.55 7.4 L-30.5 6.35 -30.35 4.9 -29.4 1.7 -28.6 0.25 Q-26.55 -4.05 -23.15 -6.1 -21.1 -7.55 -19.2 -7.45 L-18.2 -7.25 -17.45 -7.0 -15.7 -5.6 -14.85 -4.0 -14.75 -3.5 Q-6.5 0.25 5.6 -0.7 L5.9 -0.7 6.2 -0.75 6.75 -0.75 7.05 -0.95 8.35 -2.2 Q11.1 -5.25 12.0 -9.65 12.45 -11.8 12.35 -14.5 M15.0 -9.15 L16.0 -5.05 Q16.25 -2.75 15.8 -0.6 L15.25 1.7 15.8 -0.6 Q16.25 -2.75 16.0 -5.05 L15.0 -9.15" fill="#c4ccb7" fill-rule="evenodd" stroke="none"/>
    <path d="M20.65 -0.65 L20.9 1.5 22.5 6.75 22.8 7.3 21.15 8.35 20.3 8.95 20.2 8.6 20.25 9.0 19.4 9.3 16.2 9.75 13.65 9.2 13.1 9.1 Q13.35 6.5 14.1 4.35 L14.15 4.0 14.25 3.9 15.25 1.7 15.4 1.75 17.5 1.9 17.65 1.85 17.8 1.75 18.2 1.65 18.5 1.5 19.7 0.5 20.4 -0.65 20.65 -0.65 M-13.2 33.15 L-17.65 33.25 -18.15 20.0 -20.85 14.2 -22.35 18.55 -24.05 18.75 -27.1 19.2 -30.6 18.45 -31.5 18.0 -31.35 17.6 -31.6 17.95 -32.0 17.6 -34.05 15.95 -33.75 15.4 -31.35 9.7 -30.8 7.35 -30.55 7.4 Q-30.35 8.25 -29.6 9.1 L-28.75 9.9 -28.4 10.1 -28.05 10.2 -27.7 10.45 -25.4 10.45 -23.85 10.0 -23.05 9.65 -22.35 9.2 Q-20.8 8.2 -19.2 6.25 L-18.15 4.8 -14.9 -1.15 -14.55 -2.05 -14.55 -1.85 -14.9 2.05 -16.6 6.5 -18.65 9.4 -17.25 14.2 -14.15 20.4 -13.5 21.3 -13.3 21.65 -12.95 22.05 -12.85 22.1 -13.75 28.2 -13.2 33.15 M19.75 2.2 L20.4 -0.65 19.75 2.2 M-30.2 10.55 L-30.5 8.45 -30.55 7.4 -30.5 8.45 -30.2 10.55 M-20.85 14.2 L-19.55 10.65 -18.65 9.4 -19.55 10.65 -20.85 14.2 M-23.25 13.55 L-23.2 13.45 -23.4 13.5 -23.25 13.55 M-21.85 12.7 L-20.35 11.5 -19.55 10.65 -20.35 11.5 -21.85 12.7" fill="#aeba9e" fill-rule="evenodd" stroke="none"/>
    <path d="M20.45 -1.6 L20.65 -0.65 20.4 -0.65 20.45 -1.6 M-30.5 6.35 L-30.55 7.4 -30.8 7.35 -30.5 6.35" fill="#a47c73" fill-rule="evenodd" stroke="none"/>
    <path d="M20.3 8.95 L20.25 9.0 20.2 8.6 20.3 8.95 M-31.6 17.95 L-31.35 17.6 -31.5 18.0 -31.6 17.95" fill="#a5bafe" fill-rule="evenodd" stroke="none"/>
    <path d="M-23.25 13.55 L-23.4 13.5 -23.2 13.45 -23.25 13.55" fill="#deddb1" fill-rule="evenodd" stroke="none"/>
    <path d="M1.75 -26.45 L1.9 -26.3 2.25 -25.3 2.0 -24.35 1.45 -23.95 0.75 -24.35 0.5 -25.3 0.5 -25.8 0.7 -25.6 1.2 -25.4 1.65 -25.6 1.85 -26.2 1.75 -26.45 M7.7 -28.4 L7.85 -28.35 7.85 -28.25 8.25 -28.0 8.65 -28.25 8.8 -28.7 8.7 -28.9 8.9 -28.8 9.15 -27.9 8.95 -27.05 8.5 -26.65 8.0 -27.05 7.7 -28.4" fill="#000000" fill-rule="evenodd" stroke="none"/>
    <path d="M10.5 -15.2 L12.35 -14.55 12.35 -14.5 Q12.45 -11.8 12.0 -9.65 11.1 -5.25 8.35 -2.2 L7.05 -0.95 6.75 -0.75 6.2 -0.75 5.9 -0.7 5.6 -0.7 Q-6.5 0.25 -14.75 -3.5 L-14.85 -4.0 -15.7 -5.6 -15.3 -5.85 -15.1 -6.1 -14.75 -6.2 -14.55 -6.1 Q-4.15 -2.6 5.45 -3.5 10.35 -7.25 10.5 -15.2" fill="#dce0d3" fill-rule="evenodd" stroke="none"/>
    <path d="M-18.05 -8.05 L-14.75 -6.2 -15.1 -6.1 -15.3 -5.85 -15.7 -5.6 -17.45 -7.0 -18.2 -7.25 -19.2 -7.45 -18.05 -8.05" fill="#c5ccb7" fill-rule="evenodd" stroke="none"/>
    <path d="M-8.3 -8.15 L-8.2 -8.05 -8.3 -8.05 -8.3 -8.15" fill="#b48f87" fill-rule="evenodd" stroke="none"/>
    <path d="M0.5 -25.8 L0.4 -26.2 0.65 -26.65 1.1 -26.9 1.6 -26.65 1.75 -26.45 1.85 -26.2 1.65 -25.6 1.2 -25.4 0.7 -25.6 0.5 -25.8 M2.2 -23.6 L2.3 -23.65 2.65 -25.3 2.15 -26.9 1.3 -27.55 Q0.65 -27.55 0.3 -26.9 L0.0 -25.3 0.5 -23.65 0.7 -23.5 -1.45 -23.35 Q-1.1 -27.85 2.2 -27.85 3.15 -26.3 3.4 -23.65 L2.2 -23.6 M8.7 -28.9 L8.8 -28.7 8.65 -28.25 8.25 -28.0 7.85 -28.25 7.85 -28.35 7.7 -28.4 7.7 -28.7 7.8 -29.2 8.15 -29.35 8.6 -29.2 8.7 -28.9 M9.2 -26.55 L9.4 -27.9 9.05 -29.3 8.35 -29.85 7.6 -29.3 7.45 -28.4 7.5 -29.8 Q9.25 -31.85 9.9 -27.85 L9.2 -26.55 M7.4 -27.45 L7.7 -26.45 8.55 -25.9 9.0 -26.35 7.6 -25.2 7.4 -27.45" fill="#ffffff" fill-rule="evenodd" stroke="none"/>
    <path d="M1.75 -26.45 L1.6 -26.65 1.1 -26.9 0.65 -26.65 0.4 -26.2 0.5 -25.8 0.5 -25.3 0.75 -24.35 1.45 -23.95 2.0 -24.35 2.25 -25.3 1.9 -26.3 1.75 -26.45 M0.7 -23.5 L0.5 -23.65 0.0 -25.3 0.3 -26.9 Q0.65 -27.55 1.3 -27.55 L2.15 -26.9 2.65 -25.3 2.3 -23.65 2.2 -23.6 0.7 -23.5 M8.7 -28.9 L8.6 -29.2 8.15 -29.35 7.8 -29.2 7.7 -28.7 7.7 -28.4 8.0 -27.05 8.5 -26.65 8.95 -27.05 9.15 -27.9 8.9 -28.8 8.7 -28.9 M7.45 -28.4 L7.6 -29.3 8.35 -29.85 9.05 -29.3 9.4 -27.9 9.2 -26.55 9.0 -26.35 8.55 -25.9 7.7 -26.45 7.4 -27.45 7.45 -28.4" fill="#0099ff" fill-rule="evenodd" stroke="none"/>
    <path d="M9.9 -32.75 Q8.15 -32.5 6.65 -29.9 7.1 -33.35 9.9 -32.75 M3.1 -28.55 Q-0.4 -30.2 -3.1 -29.3 0.45 -31.75 3.1 -28.55" fill="#9b5e5e" fill-rule="evenodd" stroke="none"/>
    <path d="M1.55 -53.65 L1.35 -57.1 5.5 -51.55 6.75 -48.8 Q11.0 -49.3 15.05 -47.95 L11.7 -46.2 4.15 -46.25 4.2 -47.25 Q4.2 -51.3 1.55 -53.65 M8.85 -43.2 L8.95 -43.2 Q13.9 -44.25 17.7 -41.95 L14.4 -40.45 7.8 -40.8 8.85 -43.2 M-19.85 -39.95 L-21.35 -40.7 -22.95 -41.0 Q-17.35 -47.25 -9.15 -48.3 L-10.65 -50.05 -12.2 -51.0 -9.7 -51.15 Q-4.6 -51.3 0.0 -49.65 L-1.25 -47.35 -2.7 -47.55 -3.75 -48.4 -5.3 -48.0 -9.15 -45.4 -9.9 -45.6 -12.3 -44.5 -19.85 -39.95 M-20.85 -29.35 L-21.6 -28.8 -18.15 -37.35 Q-17.95 -33.7 -19.85 -30.7 L-20.85 -29.35" fill="#a39174" fill-rule="evenodd" stroke="none"/>
    <path d="M1.55 -53.65 Q4.2 -51.3 4.2 -47.25 L4.15 -46.25 11.7 -46.2 9.85 -44.55 8.85 -43.2 7.8 -40.8 14.4 -40.45 Q12.05 -39.4 10.95 -36.95 L10.1 -34.55 9.95 -34.8 Q8.45 -37.45 5.5 -33.9 1.7 -36.35 -0.5 -36.85 -2.6 -37.55 -4.7 -35.15 -6.8 -32.8 -6.3 -30.8 -5.85 -28.8 -4.6 -27.25 L-5.1 -26.85 Q-7.15 -24.8 -8.4 -19.7 -8.35 -20.55 -8.95 -25.0 L-9.25 -26.75 Q-10.55 -28.05 -11.3 -28.1 -11.9 -28.25 -12.2 -27.65 L-12.2 -27.4 -12.45 -24.95 -12.3 -24.4 -11.6 -22.05 -11.7 -22.2 -13.2 -23.9 -15.05 -28.7 -16.2 -24.05 -17.5 -27.0 Q-18.15 -28.6 -18.05 -30.7 L-20.85 -29.35 -19.85 -30.7 Q-17.95 -33.7 -18.15 -37.35 L-18.25 -37.85 -18.15 -37.85 -18.35 -38.0 -18.25 -38.0 -18.65 -38.45 -19.85 -39.95 -12.3 -44.5 -9.9 -45.6 -9.15 -45.4 -5.3 -48.0 -3.75 -48.4 -2.7 -47.55 -1.25 -47.35 0.0 -49.65 1.55 -53.65 M8.85 -21.15 L9.4 -21.25 10.25 -21.05 Q10.95 -21.1 12.05 -19.2 10.75 -18.3 9.6 -18.35 L8.75 -18.5 8.25 -18.65 8.25 -18.7 8.2 -18.65 6.7 -18.7 5.3 -18.15 2.3 -16.65 2.2 -16.65 -1.9 -17.55 Q0.15 -17.6 0.95 -18.5 L2.3 -19.5 Q3.75 -20.65 6.15 -20.65 L8.75 -21.1 8.85 -21.15" fill="#817354" fill-rule="evenodd" stroke="none"/>
    <path d="M9.95 -34.8 L10.15 -29.25 9.85 -25.0 8.85 -21.15 M8.25 -18.65 L7.7 -15.35 M2.9 -13.1 L3.9 -13.1 Q7.05 -13.25 7.7 -15.35 M0.7 -23.5 L2.2 -23.6 3.4 -23.65 Q3.15 -26.3 2.2 -27.85 -1.1 -27.85 -1.45 -23.35 L0.7 -23.5 M7.45 -28.4 L7.4 -27.45 7.6 -25.2 9.0 -26.35 9.2 -26.55 9.9 -27.85 Q9.25 -31.85 7.5 -29.8 L7.45 -28.4 M6.45 -21.4 Q7.7 -21.05 7.7 -22.0 L7.85 -22.5 Q7.35 -23.2 7.2 -24.25 7.0 -25.55 7.4 -27.45 M2.3 -16.65 Q5.45 -17.2 7.6 -18.75 M8.25 -18.7 L8.25 -18.65 M-12.2 -27.4 Q-11.9 -28.1 -11.3 -28.1 M-10.7 -26.0 L-10.1 -25.35 -9.9 -25.0 -9.55 -24.0 -9.5 -23.7 -9.45 -22.6 M-10.25 -20.95 L-11.5 -21.75 -11.7 -22.2 M-10.25 -20.95 L-9.75 -20.6 -7.95 -18.3 -4.95 -15.55 Q-1.25 -13.4 2.9 -13.1 M-10.55 -22.7 L-9.5 -23.7" fill="none" stroke="#d7995e" stroke-linecap="round" stroke-linejoin="round" stroke-width="0.05"/>
    <path d="M10.5 -15.2 L12.35 -14.55 M12.35 -14.5 Q13.6 -14.3 14.9 -13.2 17.75 -11.2 19.3 -7.15 L19.8 -5.85 20.4 -2.9 20.45 -1.6 20.65 -0.65 20.9 1.5 22.5 6.75 22.8 7.3 21.15 8.35 21.75 11.4 22.25 14.15 22.45 14.4 24.5 17.55 24.6 20.05 23.3 32.25 M16.1 32.45 L14.35 24.55 14.6 32.45 M-17.65 33.25 L-18.15 20.0 -20.85 14.2 -22.35 18.55 -24.05 18.75 -25.9 23.6 Q-25.2 24.3 -24.45 25.7 -23.3 27.95 -22.8 31.45 L-22.4 33.4 M-18.05 -8.05 L-14.75 -6.2 -14.55 -6.1 Q-4.15 -2.6 5.45 -3.5 10.35 -7.25 10.5 -15.2 M-18.2 -7.25 L-19.2 -7.45 Q-21.1 -7.55 -23.15 -6.1 -26.55 -4.05 -28.6 0.25 L-29.4 1.7 -30.35 4.9 -30.5 6.35 -30.55 7.4 -30.5 8.45 -30.2 10.55 M-16.6 6.5 L-18.65 9.4 -19.55 10.65 -20.85 14.2 M15.25 1.7 L15.8 -0.6 Q16.25 -2.75 16.0 -5.05 L15.0 -9.15 M20.45 -1.6 L20.4 -0.65 19.75 2.2 M20.3 8.95 L20.25 9.0 19.4 9.3 16.2 9.75 13.65 9.2 15.0 14.1 15.05 14.35 M20.3 8.95 L21.15 8.35 M15.25 1.7 L14.25 3.9 14.15 4.0 14.1 4.35 Q13.35 6.5 13.1 9.1 L13.65 9.2 M13.7 16.65 L13.6 15.75 13.6 15.45 13.4 14.35 Q12.9 11.65 13.1 9.1 M15.0 14.1 L14.9 14.2 Q14.05 15.25 13.7 16.65 L13.8 17.7 13.8 20.5 14.35 24.55 M15.7 16.85 L15.05 14.35 M-19.2 -7.45 L-18.05 -8.05 M-30.8 7.35 L-30.5 6.35 M-30.8 7.35 L-31.35 9.7 -33.75 15.4 -34.05 15.95 -32.0 17.6 -31.6 17.95 -31.5 18.0 -30.6 18.45 -27.1 19.2 -24.05 18.75 M-33.6 24.05 L-33.95 24.35 -34.35 25.7 -34.9 29.45 -33.95 31.75 -32.85 33.65 M-33.0 21.15 L-33.75 23.9 M-32.0 17.6 L-33.0 21.15 M-26.2 24.35 L-25.9 23.6 M-19.55 10.65 L-20.35 11.5 -21.85 12.7 M-26.2 24.35 L-27.05 26.8" fill="none" stroke="#6a4e44" stroke-linecap="round" stroke-linejoin="round" stroke-width="0.05"/>
    <path d="M7.7 -15.35 L10.5 -15.2 M-10.05 -13.6 L-10.25 -12.4 -12.15 -11.55 -18.05 -8.05 M-10.05 -13.6 Q-9.7 -16.15 -10.0 -19.05 L-10.0 -19.55 -10.25 -20.95" fill="none" stroke="#674743" stroke-linecap="round" stroke-linejoin="round" stroke-width="0.05"/>
    <path d="M9.9 -32.75 Q7.1 -33.35 6.65 -29.9 8.15 -32.5 9.9 -32.75 M3.1 -28.55 Q-0.4 -30.2 -3.1 -29.3 0.45 -31.75 3.1 -28.55" fill="none" stroke="#4b2e2e" stroke-linecap="round" stroke-linejoin="round" stroke-width="0.05"/>
    <path d="M11.7 -46.2 L15.05 -47.95 Q11.0 -49.3 6.75 -48.8 L5.5 -51.55 1.35 -57.1 1.55 -53.65 M11.7 -46.2 L9.85 -44.55 8.85 -43.2 8.95 -43.2 Q13.9 -44.25 17.7 -41.95 L14.4 -40.45 Q12.05 -39.4 10.95 -36.95 L10.1 -34.55 9.95 -34.8 Q8.45 -37.45 5.5 -33.9 1.7 -36.35 -0.5 -36.85 -2.6 -37.55 -4.7 -35.15 -6.8 -32.8 -6.3 -30.8 -5.85 -28.8 -4.6 -27.25 L-5.1 -26.85 M0.0 -49.65 L1.55 -53.65 M0.0 -49.65 Q-4.6 -51.3 -9.7 -51.15 L-12.2 -51.0 -10.65 -50.05 -9.15 -48.3 Q-17.35 -47.25 -22.95 -41.0 L-21.35 -40.7 -19.85 -39.95 M-18.15 -37.35 L-18.25 -37.85 M-18.15 -37.85 L-18.35 -38.0 -18.65 -38.45 -19.85 -39.95 M-18.25 -38.0 L-18.65 -38.45 M-11.3 -28.1 Q-11.9 -28.25 -12.2 -27.65 L-12.2 -27.4 -12.45 -24.95 -12.3 -24.4 M-11.3 -28.1 Q-10.55 -28.05 -9.25 -26.75 L-8.95 -25.0 Q-8.35 -20.55 -8.4 -19.7 -7.15 -24.8 -5.1 -26.85 M-11.7 -22.2 L-13.2 -23.9 -15.05 -28.7 -16.2 -24.05 -17.5 -27.0 Q-18.15 -28.6 -18.05 -30.7 L-20.85 -29.35 -21.6 -28.8 -18.15 -37.35 M-11.7 -22.2 L-11.6 -22.05 -12.3 -24.4" fill="none" stroke="#4f4535" stroke-linecap="round" stroke-linejoin="round" stroke-width="0.05"/>
    <path d="M-32.85 33.65 L-33.2 33.65" fill="none" stroke="#103a45" stroke-linecap="round" stroke-linejoin="round" stroke-width="0.05"/>
    <path d="M12.05 -19.2 Q10.75 -18.3 9.6 -18.35 L8.75 -18.5 8.25 -18.65 8.2 -18.65 6.7 -18.7 5.3 -18.15 2.3 -16.65 M-1.9 -17.55 L2.2 -16.65 2.3 -16.65" fill="none" stroke="#4b2e2e" stroke-linecap="round" stroke-linejoin="round" stroke-width="0.05"/>
  </g>
</svg>
