<?xml version="1.0" encoding="UTF-8" standalone="no"?>
<svg xmlns:xlink="http://www.w3.org/1999/xlink" height="61.2px" width="44.65px" xmlns="http://www.w3.org/2000/svg">
  <g transform="matrix(1, 0, 0, 1, 23.9, 57.85)">
    <path d="M9.25 -43.45 L9.6 -43.65 9.9 -42.35 9.4 -41.4 9.55 -42.4 9.25 -43.45 M8.35 -42.65 L9.0 -43.2 9.0 -43.15 9.1 -43.0 8.95 -42.65 8.65 -42.5 8.35 -42.65 M3.7 -40.75 L3.7 -40.65 3.35 -40.5 3.05 -40.6 3.7 -40.75 M4.15 -39.15 L4.2 -39.2 4.45 -40.45 4.3 -40.9 4.7 -41.05 5.0 -39.2 4.15 -39.15 M1.6 -40.25 L2.45 -40.45 2.8 -39.2 3.0 -39.1 1.35 -39.0 1.6 -40.25 M8.0 -42.2 L8.0 -42.4 8.3 -41.3 8.9 -40.9 9.25 -41.25 8.15 -40.35 8.0 -42.2" fill="#ffffff" fill-rule="evenodd" stroke="none"/>
    <path d="M-5.9 -27.2 L-6.0 -27.2 -5.95 -27.3 -5.9 -27.2" fill="#d2c0b7" fill-rule="evenodd" stroke="none"/>
    <path d="M8.3 -42.65 L8.35 -42.65 8.65 -42.5 8.95 -42.65 9.1 -43.0 9.0 -43.15 9.15 -43.1 9.35 -42.4 9.25 -41.75 8.85 -41.45 8.45 -41.75 8.3 -42.65 M3.05 -40.6 L3.35 -40.5 3.7 -40.65 3.7 -40.75 4.0 -40.85 4.15 -40.45 3.95 -39.7 3.5 -39.4 3.0 -39.7 2.85 -40.45 2.85 -40.55 3.05 -40.6" fill="#000000" fill-rule="evenodd" stroke="none"/>
    <path d="M5.55 -49.65 L5.7 -49.65 Q7.7 -48.3 7.0 -45.5 9.0 -48.0 8.2 -49.1 L8.65 -48.85 Q9.7 -47.85 10.05 -46.3 L10.1 -46.0 Q10.0 -45.35 10.05 -44.25 L10.05 -43.75 10.2 -43.35 10.35 -42.4 Q10.6 -38.9 9.75 -37.9 8.95 -36.85 8.7 -35.65 L8.65 -35.5 8.2 -32.6 8.15 -32.4 8.5 -32.55 8.85 -32.5 Q8.7 -31.1 6.85 -27.7 5.05 -24.4 5.45 -23.0 4.75 -25.15 2.7 -26.1 L-1.2 -28.35 -1.75 -30.4 2.1 -30.4 Q3.3 -29.6 4.6 -28.95 4.15 -29.6 3.85 -30.4 2.85 -32.55 2.4 -35.5 -0.15 -36.15 -0.2 -38.05 L-0.35 -41.05 -1.8 -41.7 -1.65 -42.2 0.05 -44.7 0.85 -44.6 0.75 -45.5 2.15 -46.95 3.05 -45.55 Q4.25 -47.35 3.5 -48.15 L5.55 -49.65 M9.4 -46.2 L8.05 -46.1 7.5 -44.85 9.85 -45.5 9.4 -46.2 M9.6 -43.65 L9.25 -43.45 9.0 -43.2 8.35 -42.65 8.3 -42.65 8.0 -42.4 8.1 -43.8 Q9.05 -44.9 9.6 -43.65 9.05 -44.9 8.1 -43.8 L8.0 -42.4 8.0 -42.2 8.15 -40.35 9.25 -41.25 9.4 -41.4 9.9 -42.35 9.6 -43.65 M5.0 -44.2 L3.55 -44.9 1.05 -44.05 -0.3 -42.7 5.0 -44.2 M3.7 -40.75 L3.05 -40.6 2.85 -40.55 2.45 -40.45 1.6 -40.25 Q2.15 -42.35 4.15 -42.35 L4.7 -41.05 4.15 -42.35 Q2.15 -42.35 1.6 -40.25 L1.35 -39.0 3.0 -39.1 4.15 -39.15 5.0 -39.2 4.7 -41.05 4.3 -40.9 4.0 -40.85 3.7 -40.75 M8.45 -36.7 Q7.9 -38.2 7.85 -39.65 7.75 -40.95 8.0 -42.2 7.75 -40.95 7.85 -39.65 7.9 -38.2 8.45 -36.7 L7.35 -35.75 8.05 -35.8 Q8.4 -36.05 8.45 -36.7 M4.95 -32.65 L6.4 -33.4 7.4 -33.55 6.4 -33.4 4.95 -32.65 M4.6 -28.95 Q7.1 -28.45 7.9 -30.7 L8.15 -32.4 7.9 -30.7 Q7.1 -28.45 4.6 -28.95" fill="#ffdfc8" fill-rule="evenodd" stroke="none"/>
    <path d="M8.45 -36.7 Q8.4 -36.05 8.05 -35.8 L7.35 -35.75 8.45 -36.7 M8.2 -32.6 L8.5 -32.55 8.15 -32.4 8.2 -32.6 M4.6 -28.95 Q3.3 -29.6 2.1 -30.4 L-1.75 -30.4 -2.95 -33.2 Q-3.8 -35.1 -3.65 -37.0 L-3.4 -38.5 -1.75 -36.15 Q-2.45 -39.1 -1.8 -41.7 L-0.35 -41.05 -0.2 -38.05 Q-0.15 -36.15 2.4 -35.5 2.85 -32.55 3.85 -30.4 4.15 -29.6 4.6 -28.95 M2.1 -30.4 Q0.3 -31.55 -1.3 -33.05 L-3.55 -37.0 -3.65 -37.0 -3.55 -37.0 -1.3 -33.05 Q0.3 -31.55 2.1 -30.4" fill="#ffd0ae" fill-rule="evenodd" stroke="none"/>
    <path d="M8.0 -42.4 L8.3 -42.65 8.45 -41.75 8.85 -41.45 9.25 -41.75 9.35 -42.4 9.15 -43.1 9.0 -43.15 9.0 -43.2 9.25 -43.45 9.55 -42.4 9.4 -41.4 9.25 -41.25 8.9 -40.9 8.3 -41.3 8.0 -42.4 M2.85 -40.55 L2.85 -40.45 3.0 -39.7 3.5 -39.4 3.95 -39.7 4.15 -40.45 4.0 -40.85 4.3 -40.9 4.45 -40.45 4.2 -39.2 4.15 -39.15 3.0 -39.1 2.8 -39.2 2.45 -40.45 2.85 -40.55" fill="#0099ff" fill-rule="evenodd" stroke="none"/>
    <path d="M10.2 -33.2 L10.2 -33.9 12.3 -33.4 12.8 -33.1 Q14.9 -31.75 16.15 -28.85 17.3 -25.95 17.65 -22.6 L17.7 -22.65 19.85 -9.75 20.7 -8.1 20.75 -6.2 19.95 2.05 20.1 2.35 20.05 2.35 20.05 2.4 14.05 2.55 14.65 -1.05 14.4 -2.95 Q13.75 -5.5 13.9 -7.35 L14.0 -8.25 13.9 -8.25 12.3 -14.1 12.2 -13.35 Q13.3 -5.4 12.25 1.3 L12.05 2.55 12.25 1.3 12.5 2.55 12.05 2.55 7.1 2.7 Q7.55 -6.9 7.35 -14.45 L8.15 -14.15 10.55 -18.3 11.3 -20.65 Q11.8 -22.85 10.2 -22.95 L8.4 -21.95 6.9 -21.4 6.6 -24.25 6.8 -24.45 Q9.1 -26.5 10.4 -30.45 L10.4 -30.5 10.85 -32.05 10.9 -32.6 10.2 -33.2 M13.75 -28.25 L14.5 -25.15 Q14.7 -23.45 14.35 -21.75 14.05 -20.05 13.15 -18.35 14.05 -20.05 14.35 -21.75 14.7 -23.45 14.5 -25.15 L13.75 -28.25 M11.75 -32.3 L10.9 -32.6 11.75 -32.3 M13.1 -18.3 L13.05 -18.05 Q12.5 -16.55 12.35 -14.95 L12.3 -14.1 12.35 -14.95 Q12.5 -16.55 13.05 -18.05 L13.1 -18.3 13.15 -18.35 13.1 -18.3 M3.55 -22.95 L3.75 -20.7 0.65 -20.65 Q-0.7 -19.4 0.6 -17.55 L4.0 -15.75 Q4.4 -6.45 3.9 2.75 L-8.6 3.05 -7.4 -4.7 -7.8 -5.25 -7.9 -5.4 -8.25 -5.95 -10.35 -10.0 -10.6 -10.6 -11.45 -13.6 -12.65 -12.9 -13.05 -12.75 -13.55 -11.3 -17.45 -1.2 -17.3 -0.9 Q-16.5 0.65 -16.05 3.05 L-15.95 3.25 -15.95 3.35 -22.8 3.35 -23.2 2.7 -23.9 0.95 -23.8 -1.75 -23.7 -2.1 -23.8 -2.15 -20.55 -14.9 -20.45 -14.85 Q-19.95 -18.05 -18.5 -20.75 -17.05 -23.45 -14.7 -24.6 L-14.65 -24.6 -14.15 -24.85 Q-12.25 -25.6 -10.65 -24.8 L-10.6 -24.8 -9.15 -25.75 -9.05 -25.95 -8.95 -25.95 -8.6 -25.75 Q-4.0 -23.65 3.55 -22.95" fill="#928361" fill-rule="evenodd" stroke="none"/>
    <path d="M5.45 -22.95 L6.6 -24.25 6.9 -21.4 4.1 -20.7 3.75 -20.7 3.55 -22.95 5.45 -22.9 5.45 -22.95 M7.35 -14.45 Q7.55 -6.9 7.1 2.7 L3.9 2.75 Q4.4 -6.45 4.0 -15.75 L4.2 -15.65 7.35 -14.45" fill="#443d35" fill-rule="evenodd" stroke="none"/>
    <path d="M-8.6 3.05 L-11.05 3.1 -11.0 -0.3 -11.3 -6.15 -11.3 -6.2 -11.6 -6.7 -13.3 -10.5 -13.55 -11.3 -13.05 -12.75 -12.65 -12.9 -11.45 -13.6 -10.6 -10.6 -10.35 -10.0 -8.25 -5.95 -7.9 -5.4 -7.8 -5.25 -7.4 -4.7 -8.6 3.05 M-14.65 -24.6 L-14.55 -24.8 -12.75 -26.75 -9.05 -26.0 -9.05 -25.95 -9.15 -25.75 -10.6 -24.8 -10.65 -24.8 Q-12.25 -25.6 -14.15 -24.85 L-14.65 -24.6" fill="#7a6b54" fill-rule="evenodd" stroke="none"/>
    <path d="M8.75 -35.5 L9.0 -34.5 9.0 -34.2 8.9 -33.1 8.9 -32.95 8.85 -32.5 8.5 -32.55 8.2 -32.6 8.65 -35.5 8.75 -35.5" fill="#2f553f" fill-rule="evenodd" stroke="none"/>
    <path d="M5.7 -49.65 L5.55 -49.65 7.65 -50.55 5.55 -49.65 3.5 -48.15 2.15 -46.95 0.75 -45.5 0.05 -44.7 -1.65 -42.2 -2.95 -39.7 -3.4 -38.5 -3.65 -37.0 Q-3.8 -35.1 -2.95 -33.2 L-1.75 -30.4 -1.2 -28.35 2.7 -26.1 Q4.75 -25.15 5.45 -23.0 5.05 -24.4 6.85 -27.7 8.7 -31.1 8.85 -32.5 L8.95 -32.5 8.95 -32.75 8.9 -32.95 8.9 -33.1 9.0 -34.2 9.0 -34.5 9.6 -33.3 10.2 -32.8 10.2 -33.2 10.9 -32.6 10.85 -32.05 10.4 -30.5 10.4 -30.45 Q9.1 -26.5 6.8 -24.45 L6.6 -24.25 5.45 -22.95 5.45 -23.0 5.45 -22.95 5.45 -22.9 3.55 -22.95 Q-4.0 -23.65 -8.6 -25.75 L-8.95 -25.95 -9.05 -26.0 -12.75 -26.75 -11.05 -28.85 -9.05 -29.3 -9.1 -29.75 -9.15 -30.25 -9.2 -30.9 Q-10.25 -33.35 -10.1 -35.65 L-9.7 -39.4 -10.6 -41.7 Q-10.95 -42.6 -11.65 -41.3 -12.4 -38.2 -13.55 -39.8 -13.55 -47.95 -13.2 -48.55 -12.1 -51.0 -10.3 -52.85 L-7.45 -55.45 Q-6.15 -56.65 -4.45 -57.2 -1.25 -58.45 2.2 -57.3 4.0 -56.55 5.5 -55.6 8.45 -53.8 10.5 -50.7 L13.35 -49.1 13.2 -48.25 11.9 -45.8 11.05 -46.6 10.85 -46.9 10.05 -48.1 9.95 -48.25 10.05 -48.1 9.95 -48.1 9.95 -48.25 8.9 -48.8 8.65 -48.85 8.2 -49.1 5.7 -49.65 M-1.4 -47.85 L2.4 -50.8 Q4.95 -52.9 8.3 -51.6 L10.5 -50.7 8.3 -51.6 Q4.95 -52.9 2.4 -50.8 L-1.4 -47.85 M-9.05 -36.9 L-9.7 -39.4 -9.05 -36.9 M9.3 -30.85 L9.6 -32.15 9.6 -33.3 9.6 -32.15 9.3 -30.85 M-5.9 -27.2 L-5.95 -27.3 -6.0 -27.2 -5.9 -27.2 Q-2.1 -25.05 5.45 -22.9 -2.1 -25.05 -5.9 -27.2 M-0.9 -26.95 L-1.2 -28.35 -0.9 -26.95" fill="#f2d9c8" fill-rule="evenodd" stroke="none"/>
    <path d="M8.85 -32.5 L8.9 -32.95 8.95 -32.75 8.95 -32.5 8.85 -32.5" fill="#674743" fill-rule="evenodd" stroke="none"/>
    <path d="M-9.05 -25.95 L-9.05 -26.0 -8.95 -25.95 -9.05 -25.95" fill="#64574a" fill-rule="evenodd" stroke="none"/>
    <path d="M6.9 -21.4 L8.4 -21.95 10.2 -22.95 Q11.8 -22.85 11.3 -20.65 L10.55 -18.3 8.15 -14.15 7.35 -14.45 4.2 -15.65 4.0 -15.75 0.6 -17.55 Q-0.7 -19.4 0.65 -20.65 L3.75 -20.7 4.1 -20.7 6.9 -21.4 M7.0 -20.75 Q6.35 -20.8 6.05 -20.1 5.75 -19.45 5.9 -18.45 L6.7 -16.75 7.25 -16.25 7.75 -16.1 8.2 -16.2 8.7 -16.85 Q9.1 -17.45 8.95 -18.45 8.75 -19.4 8.15 -20.1 L7.2 -20.7 7.0 -20.75 M10.55 -18.3 L9.85 -20.45 8.4 -21.95 9.85 -20.45 10.55 -18.3 M4.1 -20.7 L3.15 -18.25 4.2 -15.65 3.15 -18.25 4.1 -20.7" fill="#828282" fill-rule="evenodd" stroke="none"/>
    <path d="M7.0 -20.75 L7.2 -20.7 8.15 -20.1 Q8.75 -19.4 8.95 -18.45 9.1 -17.45 8.7 -16.85 L8.2 -16.2 7.75 -16.1 7.25 -16.25 6.7 -16.75 5.9 -18.45 Q5.75 -19.45 6.05 -20.1 6.35 -20.8 7.0 -20.75 M7.05 -19.9 L6.95 -19.8 6.85 -18.9 7.25 -17.9 7.95 -17.5 8.45 -17.9 8.6 -18.9 8.15 -19.8 Q7.75 -20.25 7.45 -20.2 L7.2 -20.1 7.05 -19.9" fill="#858bd3" fill-rule="evenodd" stroke="none"/>
    <path d="M7.05 -19.9 L7.2 -20.1 7.45 -20.2 Q7.75 -20.25 8.15 -19.8 L8.6 -18.9 8.45 -17.9 7.95 -17.5 7.25 -17.9 6.85 -18.9 6.95 -19.8 7.05 -19.9" fill="#333a8e" fill-rule="evenodd" stroke="none"/>
    <path d="M5.7 -49.65 L8.2 -49.1 Q9.0 -48.0 7.0 -45.5 7.7 -48.3 5.7 -49.65 M8.65 -48.85 L8.9 -48.8 9.95 -48.25 9.95 -48.1 10.1 -46.2 10.05 -46.3 Q9.7 -47.85 8.65 -48.85 M9.4 -46.2 L9.85 -45.5 7.5 -44.85 8.05 -46.1 9.4 -46.2 M0.05 -44.7 L0.75 -45.5 0.85 -44.6 0.05 -44.7 M2.15 -46.95 L3.5 -48.15 Q4.25 -47.35 3.05 -45.55 L2.15 -46.95 M5.0 -44.2 L-0.3 -42.7 1.05 -44.05 3.55 -44.9 5.0 -44.2 M-1.8 -41.7 Q-2.45 -39.1 -1.75 -36.15 L-3.4 -38.5 -2.95 -39.7 -1.65 -42.2 -1.8 -41.7" fill="#333333" fill-rule="evenodd" stroke="none"/>
    <path d="M10.05 -48.1 L10.85 -46.9 11.05 -46.6 11.9 -45.8 11.15 -44.9 Q10.1 -39.4 10.2 -33.9 L10.2 -33.2 10.2 -32.8 9.6 -33.3 9.0 -34.5 8.75 -35.5 8.7 -35.65 Q8.95 -36.85 9.75 -37.9 10.6 -38.9 10.35 -42.4 L10.2 -43.35 10.05 -43.75 10.05 -44.25 Q10.0 -45.35 10.1 -46.0 L10.1 -46.2 9.95 -48.1 10.05 -48.1" fill="#e0c8b6" fill-rule="evenodd" stroke="none"/>
    <path d="M12.05 2.55 L12.25 1.3 Q13.3 -5.4 12.2 -13.35 M13.1 -18.3 L13.15 -18.35 M-11.0 -0.3 L-11.3 -6.15 M-11.6 -6.7 L-13.3 -10.5 M-11.6 -6.7 L-11.3 -6.2 -11.3 -6.15" fill="none" stroke="#6a4e44" stroke-linecap="round" stroke-linejoin="round" stroke-width="0.05"/>
    <path d="M10.2 -43.35 L10.35 -42.4 Q10.6 -38.9 9.75 -37.9 8.95 -36.85 8.7 -35.65 L8.65 -35.5 8.2 -32.6 M10.1 -46.0 Q10.0 -45.35 10.05 -44.25 M10.05 -46.3 L10.1 -46.0 M9.25 -43.45 L9.6 -43.65 Q9.05 -44.9 8.1 -43.8 L8.0 -42.4 8.3 -42.65 8.35 -42.65 9.0 -43.2 9.25 -43.45 M9.4 -41.4 L9.9 -42.35 9.6 -43.65 M3.7 -40.75 L3.05 -40.6 2.85 -40.55 M4.0 -40.85 L3.7 -40.75 M4.15 -39.15 L5.0 -39.2 4.7 -41.05 4.3 -40.9 4.0 -40.85 M4.7 -41.05 L4.15 -42.35 Q2.15 -42.35 1.6 -40.25 L2.45 -40.45 2.85 -40.55 M4.15 -39.15 L3.0 -39.1 1.35 -39.0 1.6 -40.25 M8.0 -42.2 L8.0 -42.4 M9.25 -41.25 L9.4 -41.4 M9.25 -41.25 L8.15 -40.35 8.0 -42.2 Q7.75 -40.95 7.85 -39.65 7.9 -38.2 8.45 -36.7 8.4 -36.05 8.05 -35.8 L7.35 -35.75 M7.4 -33.55 L6.4 -33.4 4.95 -32.65 M8.15 -32.4 L8.2 -32.6 M8.15 -32.4 L7.9 -30.7 Q7.1 -28.45 4.6 -28.95 3.3 -29.6 2.1 -30.4 M-3.65 -37.0 L-3.55 -37.0 -1.3 -33.05 Q0.3 -31.55 2.1 -30.4" fill="none" stroke="#d7995e" stroke-linecap="round" stroke-linejoin="round" stroke-width="0.05"/>
    <path d="M20.05 2.4 L20.05 2.35 20.1 2.35 19.95 2.05 20.75 -6.2 20.7 -8.1 19.85 -9.75 17.7 -22.65 17.65 -22.6 Q17.3 -25.95 16.15 -28.85 14.9 -31.75 12.8 -33.1 L12.3 -33.4 M14.0 -8.25 L13.9 -7.35 Q13.75 -5.5 14.4 -2.95 L14.65 -1.05 14.05 2.55 M12.3 -14.1 L13.9 -8.25 M12.5 2.55 L12.25 1.3 M-11.05 3.1 L-11.0 -0.3 M-13.55 -11.3 L-17.45 -1.2 -17.3 -0.9 Q-16.5 0.65 -16.05 3.05 L-15.95 3.25 -15.95 3.35 M-22.8 3.35 L-23.2 2.7 -23.9 0.95 -23.8 -1.75 -23.7 -2.1 M-23.8 -2.15 L-20.55 -14.9 -20.45 -14.85 Q-19.95 -18.05 -18.5 -20.75 -17.05 -23.45 -14.7 -24.6 L-14.65 -24.6 M-14.15 -24.85 L-14.65 -24.6 M-12.65 -12.9 L-11.45 -13.6 M-13.55 -11.3 L-13.05 -12.75" fill="none" stroke="#4a4239" stroke-linecap="round" stroke-linejoin="round" stroke-width="0.05"/>
    <path d="M6.9 -21.4 L8.4 -21.95 10.2 -22.95 Q11.8 -22.85 11.3 -20.65 L10.55 -18.3 8.15 -14.15 7.35 -14.45 Q7.55 -6.9 7.1 2.7 M3.55 -22.95 L3.75 -20.7 4.1 -20.7 6.9 -21.4 6.6 -24.25 M8.4 -21.95 L9.85 -20.45 10.55 -18.3 M3.75 -20.7 L0.65 -20.65 Q-0.7 -19.4 0.6 -17.55 L4.0 -15.75 4.2 -15.65 3.15 -18.25 4.1 -20.7 M4.2 -15.65 L7.35 -14.45 M4.0 -15.75 Q4.4 -6.45 3.9 2.75" fill="none" stroke="#333333" stroke-linecap="round" stroke-linejoin="round" stroke-width="0.05"/>
    <path d="M8.65 -35.5 L8.75 -35.5 M8.85 -32.5 L8.9 -32.95 8.9 -33.1 9.0 -34.2" fill="none" stroke="#30543c" stroke-linecap="round" stroke-linejoin="round" stroke-width="0.05"/>
    <path d="M9.0 -34.2 L9.0 -34.5 M8.85 -32.5 Q8.7 -31.1 6.85 -27.7 5.05 -24.4 5.45 -23.0 L5.45 -22.95 6.6 -24.25 6.8 -24.45 Q9.1 -26.5 10.4 -30.45 L10.4 -30.5 10.85 -32.05 10.9 -32.6 10.2 -33.2 M9.6 -33.3 L9.6 -32.15 9.3 -30.85 M-1.2 -28.35 L2.7 -26.1 Q4.75 -25.15 5.45 -23.0 M10.9 -32.6 L11.75 -32.3 M13.15 -18.35 Q14.05 -20.05 14.35 -21.75 14.7 -23.45 14.5 -25.15 L13.75 -28.25 M12.2 -13.35 L12.3 -14.1 12.35 -14.95 Q12.5 -16.55 13.05 -18.05 L13.1 -18.3 M5.45 -22.95 L5.45 -22.9 M-13.3 -10.5 L-13.55 -11.3 M-14.65 -24.6 L-14.55 -24.8 -12.75 -26.75 -11.05 -28.85 -9.05 -29.3 -9.1 -29.75 -9.15 -30.25 M-5.9 -27.2 Q-2.1 -25.05 5.45 -22.9" fill="none" stroke="#42374d" stroke-linecap="round" stroke-linejoin="round" stroke-width="0.05"/>
    <path d="M5.45 -22.9 L3.55 -22.95 Q-4.0 -23.65 -8.6 -25.75 L-8.95 -25.95 -9.05 -26.0 -12.75 -26.75" fill="none" stroke="#000000" stroke-linecap="round" stroke-linejoin="round" stroke-width="0.05"/>
    <path d="M-11.3 -6.15 L-11.6 -6.7" fill="none" stroke="#4e3325" stroke-linecap="round" stroke-linejoin="round" stroke-width="0.05"/>
    <path d="M9.4 -46.2 L8.05 -46.1 7.5 -44.85 9.85 -45.5 9.4 -46.2 M5.0 -44.2 L-0.3 -42.7 1.05 -44.05 3.55 -44.9 5.0 -44.2" fill="none" stroke="#666666" stroke-linecap="round" stroke-linejoin="round" stroke-width="0.05"/>
    <path d="M5.55 -49.65 L5.7 -49.65 8.2 -49.1 8.65 -48.85 8.9 -48.8 9.95 -48.25 M10.05 -48.1 L10.85 -46.9 M10.5 -50.7 L8.3 -51.6 Q4.95 -52.9 2.4 -50.8 L-1.4 -47.85 M-9.7 -39.4 L-9.05 -36.9 M5.55 -49.65 L7.65 -50.55 M0.75 -45.5 L0.05 -44.7 M0.75 -45.5 L2.15 -46.95 3.5 -48.15 5.55 -49.65 M-1.75 -30.4 L-1.2 -28.35 -0.9 -26.95 M-3.4 -38.5 L-3.65 -37.0 Q-3.8 -35.1 -2.95 -33.2 L-1.75 -30.4 M-3.4 -38.5 L-2.95 -39.7 -1.65 -42.2 0.05 -44.7" fill="none" stroke="#ab8558" stroke-linecap="round" stroke-linejoin="round" stroke-width="0.05"/>
    <path d="M9.95 -48.25 L10.05 -48.1 M11.9 -45.8 L13.2 -48.25 13.35 -49.1 10.5 -50.7 Q8.45 -53.8 5.5 -55.6 4.0 -56.55 2.2 -57.3 -1.25 -58.45 -4.45 -57.2 -6.15 -56.65 -7.45 -55.45 L-10.3 -52.85 Q-12.1 -51.0 -13.2 -48.55 -13.55 -47.95 -13.55 -39.8 -12.4 -38.2 -11.65 -41.3 -10.95 -42.6 -10.6 -41.7 L-9.7 -39.4 M10.2 -32.8 L10.2 -33.2 10.2 -33.9 Q10.1 -39.4 11.15 -44.9 L11.9 -45.8 M-9.15 -30.25 L-9.2 -30.9 Q-10.25 -33.35 -10.1 -35.65 L-9.7 -39.4" fill="none" stroke="#584338" stroke-linecap="round" stroke-linejoin="round" stroke-width="0.05"/>
  </g>
</svg>
