<?xml version="1.0" encoding="UTF-8" standalone="no"?>
<svg xmlns:xlink="http://www.w3.org/1999/xlink" height="172.45px" width="94.9px" xmlns="http://www.w3.org/2000/svg">
  <g transform="matrix(1, 0, 0, 1, -42.2, 123.3)">
    <path d="M116.1 -101.45 L115.25 -100.95 115.2 -100.95 Q98.05 -94.15 92.55 -88.6 89.55 -81.85 92.15 -75.65 85.55 -81.65 89.9 -90.85 83.35 -84.25 85.45 -74.75 79.55 -94.3 93.1 -114.1 L98.95 -123.3 93.1 -114.1 Q79.55 -94.3 85.45 -74.75 L85.4 -74.7 Q84.3 -74.55 83.45 -73.8 L83.15 -73.6 82.7 -73.05 Q82.0 -78.8 80.3 -84.55 L80.15 -84.85 Q78.35 -89.85 74.35 -92.95 78.5 -83.85 76.2 -76.25 75.4 -76.05 74.75 -75.45 L73.7 -77.25 73.3 -77.65 Q73.25 -79.75 72.1 -81.7 L71.95 -81.9 70.1 -84.1 Q68.45 -85.6 66.0 -86.5 55.75 -89.45 42.2 -91.3 L42.2 -95.05 Q47.7 -94.7 54.0 -94.8 L42.2 -96.2 42.2 -102.0 42.2 -114.15 42.2 -123.3 66.55 -123.3 74.2 -123.3 98.95 -123.3 107.65 -123.3 124.2 -123.3 Q122.1 -115.0 115.65 -106.1 124.65 -114.55 125.85 -123.3 L129.25 -123.3 137.1 -123.3 137.1 -109.95 137.1 -95.15 137.1 -80.6 Q127.15 -82.1 117.15 -80.75 L116.85 -80.7 Q97.85 -78.55 123.6 -93.95 118.55 -91.15 112.85 -89.95 106.5 -88.15 101.95 -85.65 L100.95 -85.0 Q108.2 -88.05 109.9 -87.75 104.2 -82.85 105.2 -79.8 102.45 -81.95 105.9 -85.8 101.6 -82.65 100.15 -78.9 L98.75 -77.4 98.05 -77.4 97.15 -77.35 Q96.05 -77.15 95.2 -76.35 L94.9 -76.15 94.55 -75.8 Q88.75 -88.35 115.2 -100.9 L116.1 -101.45 M128.0 -93.25 L137.1 -95.15 128.0 -93.25 M77.8 -101.1 Q74.1 -106.6 74.05 -117.45 L74.2 -123.3 74.05 -117.45 Q74.1 -106.6 77.8 -101.1 M116.95 -101.9 Q128.5 -108.95 129.25 -123.3 128.5 -108.95 116.95 -101.9 M130.9 -102.6 Q134.75 -105.85 137.1 -109.95 134.75 -105.85 130.9 -102.6 M96.65 -107.05 Q103.55 -113.9 107.65 -123.3 103.55 -113.9 96.65 -107.05 M74.05 -117.45 Q71.45 -120.75 66.55 -123.3 71.45 -120.75 74.05 -117.45 M42.2 -102.0 Q47.45 -100.8 52.0 -100.5 66.45 -99.55 70.0 -97.45 66.45 -99.55 52.0 -100.5 47.45 -100.8 42.2 -102.0 M52.7 -109.05 Q47.55 -111.8 42.2 -114.15 47.55 -111.8 52.7 -109.05 M74.5 -77.5 L74.75 -75.45 74.5 -77.5 M93.2 -44.65 L93.05 -44.85 Q90.45 -49.55 90.55 -58.35 91.05 -61.7 90.85 -66.25 L90.8 -67.9 90.85 -67.9 Q92.0 -67.05 93.5 -67.05 95.3 -67.05 96.65 -68.35 L96.95 -68.7 97.1 -68.7 98.05 -68.55 98.4 -68.6 Q100.55 -68.4 100.6 -68.1 L100.6 -68.05 Q102.4 -66.05 101.15 -62.5 100.1 -66.3 96.35 -64.9 L95.65 -64.6 95.05 -64.3 Q94.4 -63.05 94.0 -61.45 L93.85 -60.85 94.1 -61.35 Q92.9 -52.45 93.85 -44.9 94.1 -42.6 94.6 -40.45 95.0 -38.65 95.55 -36.95 L96.85 -33.45 97.65 -31.75 98.95 -30.75 99.4 -30.5 Q102.45 -26.8 102.45 -20.3 101.7 -23.85 100.2 -27.25 98.75 -29.45 97.65 -31.75 L96.25 -33.3 Q95.2 -34.75 94.55 -36.75 94.05 -38.3 93.8 -40.2 L93.65 -41.6 93.35 -44.45 93.35 -44.5 93.2 -44.65 M64.15 -57.4 L64.55 -50.8 64.55 -50.75 61.95 -41.7 Q60.55 -36.5 57.05 -35.15 61.75 -40.45 63.35 -48.85 L64.15 -57.4 M52.55 2.1 L49.5 3.85 Q50.45 3.05 51.45 1.1 L51.5 1.1 52.0 1.65 52.55 2.1 M51.6 -8.8 L50.65 -12.35 Q48.7 -21.9 51.2 -27.6 50.2 -21.95 52.6 -11.3 L52.55 -11.2 52.15 -9.25 Q52.0 -8.4 52.0 -7.4 L51.6 -8.8 M95.95 4.85 L96.15 4.2 Q102.25 -10.4 102.45 -19.6 L102.45 -20.3 102.6 -19.75 Q104.85 -7.35 97.0 6.5 L96.9 6.75 Q95.15 13.2 98.55 18.5 94.3 14.25 95.45 7.2 L95.95 4.85 M92.1 -57.3 L93.35 -44.45 92.1 -57.3 M81.9 -93.75 Q78.25 -109.2 81.55 -119.9 74.45 -109.95 81.9 -93.75 M86.65 -93.95 L94.7 -109.25 Q90.4 -103.8 86.65 -93.95 M124.75 -94.65 Q130.0 -97.8 134.45 -102.75 130.0 -97.8 124.75 -94.65" fill="#79b18e" fill-rule="evenodd" stroke="none"/>
    <path d="M115.2 -100.9 Q88.75 -88.35 94.55 -75.8 L94.55 -75.75 93.5 -75.85 92.6 -75.75 92.15 -75.65 Q89.55 -81.85 92.55 -88.6 98.05 -94.15 115.2 -100.95 L115.2 -100.9 M100.15 -78.9 Q101.6 -82.65 105.9 -85.8 102.45 -81.95 105.2 -79.8 104.2 -82.85 109.9 -87.75 108.2 -88.05 100.95 -85.0 L101.95 -85.65 Q106.5 -88.15 112.85 -89.95 118.55 -91.15 123.6 -93.95 97.85 -78.55 116.85 -80.7 111.85 -80.0 106.85 -78.6 L106.55 -78.9 105.5 -79.65 105.4 -79.65 105.25 -79.75 105.2 -79.8 105.2 -79.75 103.45 -80.1 102.1 -79.9 101.65 -79.8 Q100.95 -79.65 100.15 -78.9 M66.0 -86.5 Q68.45 -85.6 70.1 -84.1 L71.95 -81.9 72.1 -81.7 Q73.25 -79.75 73.3 -77.65 72.1 -78.5 70.55 -78.45 L69.8 -78.4 69.8 -78.45 68.8 -80.4 Q67.5 -81.7 65.65 -81.7 L63.85 -81.4 Q62.45 -89.9 42.2 -90.75 L42.2 -91.3 Q55.75 -89.45 66.0 -86.5 M80.15 -84.85 L80.3 -84.55 Q82.0 -78.8 82.7 -73.05 L82.55 -72.85 82.15 -72.0 81.95 -72.1 Q81.95 -73.95 80.75 -75.25 L79.3 -76.15 79.0 -76.2 77.6 -76.45 76.7 -76.35 76.2 -76.25 Q78.5 -83.85 74.35 -92.95 78.35 -89.85 80.15 -84.85 M85.45 -74.75 Q83.35 -84.25 89.9 -90.85 85.55 -81.65 92.15 -75.65 L91.85 -75.55 Q91.15 -75.3 90.65 -74.85 L90.35 -74.65 89.5 -73.55 89.45 -73.6 Q88.1 -74.85 86.3 -74.8 L85.45 -74.7 85.45 -74.75 M102.2 -71.5 L103.3 -71.35 104.75 -71.55 103.7 -62.8 Q103.2 -59.7 101.95 -57.1 L99.65 -52.75 99.55 -52.8 Q100.85 -56.2 101.2 -59.55 L101.2 -62.1 101.15 -62.5 Q102.4 -66.05 100.6 -68.05 L100.6 -68.1 Q100.55 -68.4 98.4 -68.6 L99.65 -68.85 Q100.5 -69.2 101.2 -69.9 L101.45 -70.15 101.8 -70.75 102.2 -71.5" fill="#487b5b" fill-rule="evenodd" stroke="none"/>
    <path d="M94.55 -75.8 L94.9 -76.15 95.2 -76.35 Q96.05 -77.15 97.15 -77.35 L98.05 -77.4 98.75 -77.4 100.15 -78.9 Q100.95 -79.65 101.65 -79.8 L102.1 -79.9 103.45 -80.1 105.2 -79.75 105.25 -79.75 105.4 -79.65 105.5 -79.65 106.55 -78.9 106.85 -78.6 Q107.5 -77.75 107.75 -76.75 L107.6 -76.05 107.75 -76.6 107.8 -75.75 Q107.85 -74.3 107.05 -73.15 L106.85 -72.9 106.55 -72.6 Q105.75 -71.85 104.75 -71.55 L103.3 -71.35 102.2 -71.5 102.4 -73.0 102.4 -73.15 102.4 -73.0 102.2 -71.5 101.8 -70.75 101.45 -70.15 101.2 -69.9 Q100.5 -69.2 99.65 -68.85 L98.4 -68.6 98.05 -68.55 97.1 -68.7 96.95 -68.7 97.65 -70.05 96.95 -68.7 96.65 -68.35 Q95.3 -67.05 93.5 -67.05 92.0 -67.05 90.85 -67.9 L90.8 -67.95 90.35 -68.35 90.25 -68.4 89.45 -67.3 89.2 -67.05 Q88.3 -66.3 87.1 -66.1 L86.3 -66.0 Q84.4 -66.0 83.15 -67.3 82.55 -67.85 82.25 -68.5 L82.1 -68.95 Q81.9 -69.6 81.85 -70.3 L81.85 -70.45 81.95 -71.2 82.15 -72.0 82.55 -72.85 82.7 -73.05 83.15 -73.6 83.45 -73.8 Q84.3 -74.55 85.4 -74.7 L85.45 -74.7 86.3 -74.8 Q88.1 -74.85 89.45 -73.6 L89.5 -73.5 89.5 -73.55 90.35 -74.65 90.65 -74.85 Q91.15 -75.3 91.85 -75.55 L92.15 -75.65 92.6 -75.75 93.5 -75.85 94.55 -75.75 94.55 -75.8 M63.85 -81.4 L65.65 -81.7 Q67.5 -81.7 68.8 -80.4 L69.8 -78.45 69.65 -78.4 Q68.85 -78.3 68.15 -77.85 68.85 -78.3 69.65 -78.4 L69.8 -78.4 70.55 -78.45 Q72.1 -78.5 73.3 -77.65 L73.7 -77.25 74.75 -75.45 74.45 -75.25 Q73.15 -73.95 73.15 -72.1 L73.4 -70.65 73.15 -72.1 Q73.15 -73.95 74.45 -75.25 L74.75 -75.45 Q75.4 -76.05 76.2 -76.25 L76.7 -76.35 77.6 -76.45 79.0 -76.2 79.3 -76.15 80.75 -75.25 Q81.95 -73.95 81.95 -72.1 L81.85 -71.2 81.65 -70.35 80.75 -68.95 Q79.4 -67.65 77.6 -67.65 75.7 -67.65 74.45 -68.95 L73.55 -70.2 73.45 -70.5 73.4 -70.65 72.85 -70.3 71.3 -69.75 70.55 -69.7 Q68.65 -69.7 67.4 -70.95 L66.5 -72.15 66.25 -72.85 65.65 -72.85 64.2 -73.05 64.15 -73.05 62.8 -73.9 62.8 -74.05 62.5 -74.2 Q61.2 -75.5 61.25 -77.35 61.2 -79.15 62.5 -80.4 L63.85 -81.4 M68.15 -77.85 L68.2 -77.9 Q68.6 -78.35 67.55 -79.2 66.5 -80.1 65.35 -80.1 L64.0 -79.7 Q63.5 -79.7 63.1 -79.35 62.65 -78.9 62.65 -78.3 L62.65 -78.2 62.5 -77.25 Q62.5 -76.1 63.55 -75.1 64.55 -74.1 65.65 -74.1 L66.1 -74.2 Q66.1 -74.95 66.35 -75.55 L66.65 -76.15 67.0 -76.85 67.4 -77.25 68.15 -77.85 M66.1 -74.2 L66.1 -74.1 Q66.1 -73.5 66.25 -72.85 66.1 -73.5 66.1 -74.1 L66.1 -74.2 M67.45 -75.3 Q67.3 -74.85 67.3 -74.35 67.3 -73.2 68.15 -72.4 69.0 -71.5 70.15 -71.5 71.3 -71.5 72.1 -72.4 73.0 -73.2 73.0 -74.35 73.0 -75.5 72.1 -76.35 71.3 -77.2 70.15 -77.2 L68.8 -76.8 Q68.3 -76.8 67.9 -76.45 67.45 -76.0 67.45 -75.4 L67.45 -75.3 M74.95 -73.05 L74.8 -72.1 Q74.8 -70.95 75.65 -70.15 76.5 -69.25 77.65 -69.25 78.8 -69.25 79.6 -70.15 80.5 -70.95 80.5 -72.1 80.5 -73.25 79.6 -74.1 78.8 -74.95 77.65 -74.95 L76.45 -74.65 76.3 -74.55 75.4 -74.2 Q74.95 -73.75 74.95 -73.15 L74.95 -73.05 M53.3 2.6 L53.15 2.55 52.55 2.1 52.0 1.65 51.5 1.1 51.45 1.05 Q50.4 -0.4 50.45 -2.25 50.45 -4.5 51.95 -6.1 L52.1 -6.25 Q53.6 -7.75 55.9 -7.75 58.2 -7.8 59.8 -6.25 61.4 -4.65 61.45 -2.25 L61.15 -0.4 Q60.75 0.7 59.8 1.65 L59.75 1.7 Q58.7 2.75 57.35 3.05 L55.9 3.2 55.45 3.2 53.3 2.6 M84.95 5.4 L84.95 5.3 84.95 4.85 Q84.9 2.55 86.45 0.95 88.05 -0.65 90.4 -0.7 92.7 -0.65 94.3 0.95 95.9 2.5 95.95 4.85 L95.45 7.2 94.85 8.25 94.3 8.85 Q93.4 9.7 92.3 10.05 L91.6 10.2 90.4 10.35 88.0 9.8 87.95 9.8 86.45 8.85 Q85.2 7.55 84.95 5.85 L84.95 5.4 M52.15 -3.4 Q51.9 -2.8 51.95 -2.1 51.95 -0.6 53.05 0.45 54.2 1.6 55.7 1.65 57.2 1.6 58.25 0.45 59.4 -0.6 59.4 -2.1 59.4 -3.6 58.25 -4.75 57.2 -5.85 55.7 -5.85 L53.9 -5.35 Q53.25 -5.3 52.75 -4.85 52.15 -4.25 52.15 -3.45 L52.15 -3.4 M102.4 -73.15 Q104.95 -73.1 105.75 -74.05 106.65 -75.1 106.65 -76.25 106.65 -77.4 105.75 -78.25 104.95 -79.1 103.8 -79.1 L102.45 -78.7 Q101.7 -78.45 101.35 -77.65 L101.3 -77.7 101.3 -77.6 101.0 -76.35 100.1 -76.95 99.65 -77.2 98.75 -77.4 99.65 -77.2 100.1 -76.95 101.0 -76.35 101.2 -76.15 Q102.4 -74.9 102.4 -73.15 M96.35 -74.9 L96.25 -74.95 95.85 -75.25 Q95.25 -75.6 94.55 -75.75 95.25 -75.6 95.85 -75.25 L96.25 -74.95 96.35 -74.9 96.65 -74.65 96.8 -74.45 97.6 -73.15 97.85 -71.5 97.8 -71.0 97.65 -70.05 97.6 -69.9 Q99.6 -70.05 100.5 -71.1 101.4 -72.15 101.4 -73.3 101.4 -74.45 100.5 -75.3 99.7 -76.15 98.55 -76.15 L97.2 -75.75 Q96.4 -75.45 96.35 -74.9 M92.35 -73.9 Q91.85 -73.9 91.45 -73.55 91.0 -73.1 91.0 -72.5 L91.0 -72.4 90.85 -71.45 Q90.85 -70.3 91.7 -69.5 92.55 -68.6 93.7 -68.6 94.85 -68.6 95.65 -69.5 96.55 -70.3 96.55 -71.45 96.55 -72.6 95.65 -73.45 94.85 -74.3 93.7 -74.3 L92.35 -73.9 M83.8 -71.25 L83.65 -70.3 Q83.65 -69.15 84.5 -68.35 85.35 -67.45 86.5 -67.45 87.65 -67.45 88.45 -68.35 89.35 -69.15 89.35 -70.3 89.35 -71.45 88.45 -72.3 87.65 -73.15 86.5 -73.15 L85.15 -72.75 84.25 -72.4 Q83.8 -71.95 83.8 -71.35 L83.8 -71.25 M90.25 -68.4 Q90.65 -69.35 90.65 -70.45 90.65 -72.25 89.5 -73.5 90.65 -72.25 90.65 -70.45 90.65 -69.35 90.25 -68.4 M88.65 49.15 L86.25 49.15 Q86.65 48.5 86.7 47.65 86.65 46.3 85.6 45.25 84.65 44.3 83.35 44.3 82.45 44.3 81.75 44.75 81.1 44.75 80.65 45.2 80.15 45.7 80.15 46.45 L80.15 46.5 Q79.95 47.05 80.0 47.65 80.0 48.5 80.35 49.15 L79.2 49.15 78.95 48.2 78.95 47.75 78.95 47.45 Q78.95 45.35 80.45 43.95 L80.75 43.65 81.95 42.9 83.9 42.5 Q85.25 42.5 86.35 43.1 L87.5 43.95 Q88.9 45.35 88.9 47.45 L88.65 49.15 M62.85 49.15 L59.6 49.15 59.35 49.05 59.3 49.05 58.1 48.15 57.8 47.85 57.35 47.25 Q56.85 46.45 56.65 45.6 L56.65 45.15 56.65 44.75 Q56.65 44.05 56.8 43.5 L56.95 43.25 57.65 42.0 57.8 41.85 58.1 41.4 59.5 40.4 Q60.35 40.05 61.45 40.05 L62.2 40.1 63.5 40.5 64.75 41.4 Q66.1 42.75 66.1 44.75 66.1 46.75 64.75 48.15 64.0 48.8 63.05 49.1 62.85 48.85 62.85 49.15 M61.25 34.85 Q60.55 34.55 59.95 33.95 58.85 32.85 58.6 31.4 L58.6 30.95 58.6 30.65 Q58.6 28.65 59.95 27.3 60.5 26.75 61.15 26.45 62.1 25.9 63.35 25.85 L64.1 25.85 64.25 25.85 Q65.15 26.05 65.95 26.6 L66.7 27.3 Q68.0 28.65 68.0 30.65 68.0 32.6 66.7 33.95 65.95 34.65 65.0 34.95 L64.4 35.15 63.35 35.3 61.3 34.85 61.25 34.85 M86.7 3.8 Q86.45 4.4 86.5 5.1 86.5 6.6 87.6 7.65 88.75 8.8 90.25 8.85 91.75 8.8 92.8 7.65 93.95 6.6 93.95 5.1 93.95 3.6 92.8 2.45 91.75 1.35 90.25 1.35 89.25 1.4 88.45 1.85 87.8 1.9 87.3 2.35 86.7 2.95 86.7 3.75 L86.7 3.8 M83.2 28.95 L85.1 28.55 Q86.85 28.55 88.25 29.55 L88.7 30.0 Q90.05 31.4 90.05 33.5 90.05 35.6 88.7 37.05 87.8 37.8 86.75 38.15 L86.5 38.3 86.2 38.4 85.1 38.55 Q83.9 38.5 82.9 38.0 L82.85 38.0 81.95 37.35 81.85 37.35 81.55 37.05 Q80.35 35.9 80.05 34.4 L80.05 33.8 80.05 33.5 Q80.1 31.4 81.55 30.0 82.25 29.25 83.2 28.95 M83.3 30.65 Q82.75 30.65 82.35 30.95 L82.2 31.1 Q81.7 31.6 81.7 32.35 L81.7 32.4 Q81.5 32.95 81.55 33.55 81.55 34.9 82.5 35.85 83.5 36.9 84.9 36.95 86.2 36.9 87.15 35.9 L87.4 35.6 87.45 35.55 Q88.2 34.7 88.25 33.55 88.2 32.2 87.15 31.15 86.2 30.2 84.9 30.2 84.0 30.2 83.3 30.65 M61.4 27.45 Q60.75 27.45 60.3 27.9 59.8 28.4 59.8 29.15 L59.8 29.2 Q59.6 29.75 59.65 30.35 59.65 31.7 60.6 32.65 61.6 33.7 63.0 33.75 64.3 33.7 65.25 32.65 66.3 31.7 66.35 30.35 66.3 29.0 65.25 27.95 64.3 27.0 63.0 27.0 62.1 27.0 61.4 27.45 M59.5 42.05 Q58.85 42.05 58.4 42.5 57.9 43.0 57.9 43.75 L57.9 43.8 Q57.7 44.35 57.75 44.95 57.75 46.3 58.7 47.25 59.7 48.3 61.1 48.35 62.4 48.3 63.35 47.25 64.4 46.3 64.45 44.95 64.4 43.6 63.35 42.55 62.4 41.6 61.1 41.6 60.2 41.6 59.5 42.05" fill="#c85478" fill-rule="evenodd" stroke="none"/>
    <path d="M64.0 -79.7 L65.35 -80.1 Q66.5 -80.1 67.55 -79.2 68.6 -78.35 68.2 -77.9 L68.15 -77.85 67.4 -77.25 67.0 -76.85 66.65 -76.15 66.35 -75.55 Q66.1 -74.95 66.1 -74.2 L65.65 -74.1 Q64.55 -74.1 63.55 -75.1 62.5 -76.1 62.5 -77.25 L62.65 -78.2 Q62.7 -77.7 63.1 -77.3 63.55 -76.85 64.15 -76.85 64.75 -76.85 65.15 -77.3 L65.6 -78.3 Q65.6 -78.9 65.15 -79.35 64.75 -79.75 64.15 -79.7 L64.0 -79.7 M68.8 -76.8 L70.15 -77.2 Q71.3 -77.2 72.1 -76.35 73.0 -75.5 73.0 -74.35 73.0 -73.2 72.1 -72.4 71.3 -71.5 70.15 -71.5 69.0 -71.5 68.15 -72.4 67.3 -73.2 67.3 -74.35 67.3 -74.85 67.45 -75.3 67.5 -74.8 67.9 -74.4 68.35 -73.95 68.95 -73.95 69.55 -73.95 69.95 -74.4 70.4 -74.8 70.4 -75.4 70.4 -76.0 69.95 -76.45 69.55 -76.85 68.95 -76.8 L68.8 -76.8 M76.45 -74.55 L76.45 -74.65 76.45 -74.55 76.3 -74.55 76.45 -74.65 77.65 -74.95 Q78.8 -74.95 79.6 -74.1 80.5 -73.25 80.5 -72.1 80.5 -70.95 79.6 -70.15 78.8 -69.25 77.65 -69.25 76.5 -69.25 75.65 -70.15 74.8 -70.95 74.8 -72.1 L74.95 -73.05 Q75.0 -72.55 75.4 -72.15 75.85 -71.7 76.45 -71.7 77.05 -71.7 77.45 -72.15 77.9 -72.55 77.9 -73.15 77.9 -73.75 77.45 -74.2 77.05 -74.6 76.45 -74.55 M53.9 -5.35 L55.7 -5.85 Q57.2 -5.85 58.25 -4.75 59.4 -3.6 59.4 -2.1 59.4 -0.6 58.25 0.45 57.2 1.6 55.7 1.65 54.2 1.6 53.05 0.45 51.95 -0.6 51.95 -2.1 51.9 -2.8 52.15 -3.4 52.15 -2.7 52.75 -2.2 53.3 -1.6 54.1 -1.6 54.85 -1.6 55.4 -2.2 55.95 -2.7 55.95 -3.45 55.95 -4.25 55.4 -4.85 54.85 -5.35 54.1 -5.35 L53.9 -5.35 M102.45 -78.7 L103.8 -79.1 Q104.95 -79.1 105.75 -78.25 106.65 -77.4 106.65 -76.25 106.65 -75.1 105.75 -74.05 104.95 -73.1 102.4 -73.15 102.4 -74.9 101.2 -76.15 L101.0 -76.35 101.3 -77.6 101.3 -77.7 101.35 -77.65 Q101.65 -76.8 101.85 -76.6 102.65 -75.85 103.3 -76.2 104.05 -76.7 104.05 -77.3 L103.6 -78.35 Q103.2 -78.75 102.6 -78.7 L102.45 -78.7 M97.2 -75.75 L98.55 -76.15 Q99.7 -76.15 100.5 -75.3 101.4 -74.45 101.4 -73.3 101.4 -72.15 100.5 -71.1 99.6 -70.05 97.6 -69.9 L97.65 -70.05 97.8 -71.0 97.85 -71.5 97.6 -73.15 98.35 -73.35 Q98.8 -73.75 98.8 -74.35 L98.35 -75.4 Q97.95 -75.8 97.35 -75.75 L97.2 -75.75 M92.35 -73.9 L93.7 -74.3 Q94.85 -74.3 95.65 -73.45 96.55 -72.6 96.55 -71.45 96.55 -70.3 95.65 -69.5 94.85 -68.6 93.7 -68.6 92.55 -68.6 91.7 -69.5 90.85 -70.3 90.85 -71.45 L91.0 -72.4 Q91.05 -71.9 91.45 -71.5 91.9 -71.05 92.5 -71.05 93.1 -71.05 93.5 -71.5 93.95 -71.9 93.95 -72.5 93.95 -73.1 93.5 -73.55 L92.5 -73.9 92.35 -73.9 M85.15 -72.75 L86.5 -73.15 Q87.65 -73.15 88.45 -72.3 89.35 -71.45 89.35 -70.3 89.35 -69.15 88.45 -68.35 87.65 -67.45 86.5 -67.45 85.35 -67.45 84.5 -68.35 83.65 -69.15 83.65 -70.3 L83.8 -71.25 Q83.85 -70.75 84.25 -70.35 84.7 -69.9 85.3 -69.9 85.9 -69.9 86.3 -70.35 86.75 -70.75 86.75 -71.35 86.75 -71.95 86.3 -72.4 85.9 -72.8 85.3 -72.75 L85.15 -72.75 M86.25 49.15 L80.35 49.15 Q80.0 48.5 80.0 47.65 79.95 47.05 80.15 46.5 80.15 47.15 80.65 47.6 81.2 48.1 81.9 48.1 82.6 48.1 83.05 47.6 83.6 47.1 83.6 46.45 83.6 45.7 83.05 45.2 82.6 44.7 81.9 44.75 L81.75 44.75 Q82.45 44.3 83.35 44.3 84.65 44.3 85.6 45.25 86.65 46.3 86.7 47.65 86.65 48.5 86.25 49.15 M88.45 1.85 Q89.25 1.4 90.25 1.35 91.75 1.35 92.8 2.45 93.95 3.6 93.95 5.1 93.95 6.6 92.8 7.65 91.75 8.8 90.25 8.85 88.75 8.8 87.6 7.65 86.5 6.6 86.5 5.1 86.45 4.4 86.7 3.8 86.7 4.5 87.3 5.0 87.85 5.6 88.65 5.6 89.4 5.6 89.95 5.0 90.5 4.5 90.5 3.75 90.5 2.95 89.95 2.35 89.4 1.85 88.65 1.85 L88.45 1.85 M81.7 32.4 Q81.7 32.7 81.85 33.0 L82.2 33.5 Q82.75 34.0 83.45 34.0 84.15 34.0 84.6 33.5 85.15 33.0 85.15 32.35 85.15 31.6 84.6 31.1 84.15 30.6 83.45 30.65 L83.3 30.65 Q84.0 30.2 84.9 30.2 86.2 30.2 87.15 31.15 88.2 32.2 88.25 33.55 88.2 34.7 87.45 35.55 L87.4 35.6 87.15 35.85 87.15 35.9 Q86.2 36.9 84.9 36.95 83.5 36.9 82.5 35.85 81.55 34.9 81.55 33.55 81.5 32.95 81.7 32.4 M59.8 29.2 Q59.8 29.85 60.3 30.3 60.85 30.8 61.55 30.8 62.25 30.8 62.7 30.3 63.25 29.8 63.25 29.15 63.25 28.4 62.7 27.9 62.25 27.4 61.55 27.45 L61.4 27.45 Q62.1 27.0 63.0 27.0 64.3 27.0 65.25 27.95 66.3 29.0 66.35 30.35 66.3 31.7 65.25 32.65 64.3 33.7 63.0 33.75 61.6 33.7 60.6 32.65 59.65 31.7 59.65 30.35 59.6 29.75 59.8 29.2 M57.9 43.8 Q57.9 44.45 58.4 44.9 58.95 45.4 59.65 45.4 60.35 45.4 60.8 44.9 61.35 44.4 61.35 43.75 61.35 43.0 60.8 42.5 60.35 42.0 59.65 42.05 L59.5 42.05 Q60.2 41.6 61.1 41.6 62.4 41.6 63.35 42.55 64.4 43.6 64.45 44.95 64.4 46.3 63.35 47.25 62.4 48.3 61.1 48.35 59.7 48.3 58.7 47.25 57.75 46.3 57.75 44.95 57.7 44.35 57.9 43.8" fill="#972334" fill-rule="evenodd" stroke="none"/>
    <path d="M64.0 -79.7 L64.15 -79.7 Q64.75 -79.75 65.15 -79.35 65.6 -78.9 65.6 -78.3 L65.15 -77.3 Q64.75 -76.85 64.15 -76.85 63.55 -76.85 63.1 -77.3 62.7 -77.7 62.65 -78.2 L62.65 -78.3 Q62.65 -78.9 63.1 -79.35 63.5 -79.7 64.0 -79.7 M67.45 -75.3 L67.45 -75.4 Q67.45 -76.0 67.9 -76.45 68.3 -76.8 68.8 -76.8 L68.95 -76.8 Q69.55 -76.85 69.95 -76.45 70.4 -76.0 70.4 -75.4 70.4 -74.8 69.95 -74.4 69.55 -73.95 68.95 -73.95 68.35 -73.95 67.9 -74.4 67.5 -74.8 67.45 -75.3 M76.45 -74.55 Q77.05 -74.6 77.45 -74.2 77.9 -73.75 77.9 -73.15 77.9 -72.55 77.45 -72.15 77.05 -71.7 76.45 -71.7 75.85 -71.7 75.4 -72.15 75.0 -72.55 74.95 -73.05 L74.95 -73.15 Q74.95 -73.75 75.4 -74.2 L76.3 -74.55 76.45 -74.55 M53.9 -5.35 L54.1 -5.35 Q54.85 -5.35 55.4 -4.85 55.95 -4.25 55.95 -3.45 55.95 -2.7 55.4 -2.2 54.85 -1.6 54.1 -1.6 53.3 -1.6 52.75 -2.2 52.15 -2.7 52.15 -3.4 L52.15 -3.45 Q52.15 -4.25 52.75 -4.85 53.25 -5.3 53.9 -5.35 M101.35 -77.65 Q101.7 -78.45 102.45 -78.7 L102.6 -78.7 Q103.2 -78.75 103.6 -78.35 L104.05 -77.3 Q104.05 -76.7 103.3 -76.2 102.65 -75.85 101.85 -76.6 101.65 -76.8 101.35 -77.65 M96.35 -74.9 Q96.4 -75.45 97.2 -75.75 L97.35 -75.75 Q97.95 -75.8 98.35 -75.4 L98.8 -74.35 Q98.8 -73.75 98.35 -73.35 L97.6 -73.15 96.8 -74.45 96.65 -74.65 96.35 -74.9 M91.0 -72.4 L91.0 -72.5 Q91.0 -73.1 91.45 -73.55 91.85 -73.9 92.35 -73.9 L92.5 -73.9 93.5 -73.55 Q93.95 -73.1 93.95 -72.5 93.95 -71.9 93.5 -71.5 93.1 -71.05 92.5 -71.05 91.9 -71.05 91.45 -71.5 91.05 -71.9 91.0 -72.4 M85.15 -72.75 L85.3 -72.75 Q85.9 -72.8 86.3 -72.4 86.75 -71.95 86.75 -71.35 86.75 -70.75 86.3 -70.35 85.9 -69.9 85.3 -69.9 84.7 -69.9 84.25 -70.35 83.85 -70.75 83.8 -71.25 L83.8 -71.35 Q83.8 -71.95 84.25 -72.4 L85.15 -72.75 M86.7 3.8 L86.7 3.75 Q86.7 2.95 87.3 2.35 87.8 1.9 88.45 1.85 L88.65 1.85 Q89.4 1.85 89.95 2.35 90.5 2.95 90.5 3.75 90.5 4.5 89.95 5.0 89.4 5.6 88.65 5.6 87.85 5.6 87.3 5.0 86.7 4.5 86.7 3.8 M83.3 30.65 L83.45 30.65 Q84.15 30.6 84.6 31.1 85.15 31.6 85.15 32.35 85.15 33.0 84.6 33.5 84.15 34.0 83.45 34.0 82.75 34.0 82.2 33.5 L81.85 33.0 Q81.7 32.7 81.7 32.4 L81.7 32.35 Q81.7 31.6 82.2 31.1 L82.35 30.95 Q82.75 30.65 83.3 30.65 M81.75 44.75 L81.9 44.75 Q82.6 44.7 83.05 45.2 83.6 45.7 83.6 46.45 83.6 47.1 83.05 47.6 82.6 48.1 81.9 48.1 81.2 48.1 80.65 47.6 80.15 47.15 80.15 46.5 L80.15 46.45 Q80.15 45.7 80.65 45.2 81.1 44.75 81.75 44.75 M61.4 27.45 L61.55 27.45 Q62.25 27.4 62.7 27.9 63.25 28.4 63.25 29.15 63.25 29.8 62.7 30.3 62.25 30.8 61.55 30.8 60.85 30.8 60.3 30.3 59.8 29.85 59.8 29.2 L59.8 29.15 Q59.8 28.4 60.3 27.9 60.75 27.45 61.4 27.45 M59.5 42.05 L59.65 42.05 Q60.35 42.0 60.8 42.5 61.35 43.0 61.35 43.75 61.35 44.4 60.8 44.9 60.35 45.4 59.65 45.4 58.95 45.4 58.4 44.9 57.9 44.45 57.9 43.8 L57.9 43.75 Q57.9 43.0 58.4 42.5 58.85 42.05 59.5 42.05" fill="#e9c4d6" fill-rule="evenodd" stroke="none"/>
    <path d="M69.8 -78.45 L69.8 -78.4 69.65 -78.4 69.8 -78.45 M73.4 -70.65 L73.45 -70.5 72.85 -70.3 73.4 -70.65 M68.4 -67.6 L68.55 -68.1 68.6 -67.8 68.55 -67.6 68.4 -67.6 M99.55 -52.8 L99.65 -52.75 99.55 -52.8 99.65 -52.75 99.55 -52.6 99.55 -52.8 M109.15 45.6 L109.85 47.15 109.85 47.25 110.15 47.9 110.6 49.15 108.05 49.15 109.15 45.6 M57.55 49.15 L55.25 49.15 54.95 49.15 55.15 48.45 55.25 48.45 55.25 49.15 55.25 48.45 55.25 48.2 55.3 46.4 55.55 45.9 56.8 43.5 Q56.65 44.05 56.65 44.75 L56.65 45.15 56.65 45.6 Q56.85 46.45 57.35 47.25 L57.8 47.85 57.7 48.05 57.55 49.15 M62.3 11.6 L61.6 11.75 61.6 11.4 62.3 11.6 M81.85 37.35 L81.95 37.35 81.95 37.4 81.85 37.35 M86.5 38.3 L86.75 38.15 86.5 38.4 86.5 38.3 M61.55 10.65 L61.4 10.65 61.45 10.55 61.55 10.65" fill="#ced0d5" fill-rule="evenodd" stroke="none"/>
    <path d="M64.15 -57.4 L64.1 -57.75 64.15 -57.75 64.15 -57.4 M74.7 -59.05 L74.9 -59.1 75.0 -58.95 75.0 -58.9 74.8 -58.8 74.7 -59.05 M93.85 -60.85 L94.0 -61.45 94.1 -61.35 93.85 -60.85 M97.1 -33.55 Q97.9 -32.1 99.05 -30.95 L98.95 -30.75 97.65 -31.75 96.85 -33.45 97.1 -33.55" fill="#e3e1e4" fill-rule="evenodd" stroke="none"/>
    <path d="M66.55 -67.95 L67.8 -68.5 67.9 -68.55 68.3 -68.45 68.5 -68.3 68.55 -68.1 68.4 -67.6 68.35 -67.6 68.35 -67.55 Q68.25 -67.2 67.65 -67.05 L65.65 -66.5 Q65.05 -66.25 64.15 -65.55 63.3 -65.55 64.15 -66.3 L64.35 -66.4 65.7 -67.4 66.55 -67.9 66.55 -67.95 M77.0 -65.85 Q76.0 -66.85 77.85 -66.8 81.85 -65.8 84.85 -64.05 L87.0 -62.15 84.7 -63.6 Q81.4 -64.9 78.3 -65.3 77.2 -65.55 77.0 -65.85" fill="#333333" fill-rule="evenodd" stroke="none"/>
    <path d="M85.4 -74.7 L85.45 -74.75 85.45 -74.7 85.4 -74.7 M65.0 -56.55 L65.0 -56.6 65.05 -56.55 65.0 -56.55 M64.15 -57.75 L64.55 -50.75 64.55 -50.8 64.15 -57.4 64.15 -57.75 M57.05 -35.15 L56.55 -34.6 54.2 -32.4 Q52.35 -30.2 51.2 -27.6 51.75 -30.75 53.2 -32.7 54.1 -33.9 55.35 -34.7 L57.05 -35.15 M51.45 1.1 L51.45 1.05 51.5 1.1 51.45 1.1 M52.55 -11.2 L52.6 -11.3 52.6 -11.2 52.55 -11.2 M52.15 -9.25 L52.0 -7.3 52.0 -7.4 Q52.0 -8.4 52.15 -9.25 M105.25 -79.75 L105.2 -79.75 105.2 -79.8 105.25 -79.75 M100.6 -68.05 L100.6 -68.1 100.6 -68.05" fill="#78b08c" fill-rule="evenodd" stroke="none"/>
    <path d="M124.2 -123.3 L125.85 -123.3 Q124.65 -114.55 115.65 -106.1 122.1 -115.0 124.2 -123.3 M42.2 -95.05 L42.2 -96.2 54.0 -94.8 Q47.7 -94.7 42.2 -95.05 M81.9 -93.75 Q74.45 -109.95 81.55 -119.9 78.25 -109.2 81.9 -93.75 M86.65 -93.95 Q90.4 -103.8 94.7 -109.25 L86.65 -93.95" fill="#a5cbb4" fill-rule="evenodd" stroke="none"/>
    <path d="M115.25 -100.95 L115.2 -100.9 115.2 -100.95 115.25 -100.95" fill="#508964" fill-rule="evenodd" stroke="none"/>
    <path d="M115.25 -100.95 L116.1 -101.45 115.2 -100.9 115.25 -100.95 M89.45 -73.6 L89.5 -73.55 89.5 -73.5 89.45 -73.6 M96.95 -68.7 L97.1 -68.7 96.95 -68.7" fill="#496f5d" fill-rule="evenodd" stroke="none"/>
    <path d="M107.75 -76.6 L107.6 -76.05 107.75 -76.75 107.75 -76.6" fill="#fdffc1" fill-rule="evenodd" stroke="none"/>
    <path d="M81.65 -70.35 L81.85 -71.2 81.95 -71.2 81.85 -70.45 81.85 -70.3 81.65 -70.35 M53.8 4.95 L53.8 4.85 Q53.3 4.1 53.3 2.6 L55.45 3.2 55.9 3.2 57.35 3.05 Q58.4 5.75 59.5 7.7 L61.45 10.55 59.5 7.7 Q58.4 5.75 57.35 3.05 58.7 2.75 59.75 1.7 L59.8 1.65 Q60.75 0.7 61.15 -0.4 69.95 7.75 84.95 5.4 L84.95 5.85 Q85.2 7.55 86.45 8.85 L87.95 9.8 88.0 9.8 90.4 10.35 91.6 10.2 91.9 10.55 92.3 10.05 Q93.4 9.7 94.3 8.85 L94.85 8.9 Q94.75 19.2 88.25 29.55 86.85 28.55 85.1 28.55 L83.2 28.95 Q85.75 22.65 86.05 15.95 L83.75 17.15 83.0 17.45 Q77.25 19.65 70.15 17.9 65.5 15.35 62.3 11.6 L61.6 10.7 61.55 10.65 61.45 10.55 61.4 10.65 61.45 11.1 61.55 11.3 61.6 11.4 61.6 11.75 Q62.4 19.15 65.95 26.6 65.15 26.05 64.25 25.85 L64.1 25.85 63.35 25.85 Q62.1 25.9 61.15 26.45 56.15 16.8 53.8 4.95 M81.5 -8.05 L81.25 -7.95 81.2 -8.25 81.5 -8.05 M59.6 49.15 L57.55 49.15 57.7 48.05 58.1 48.15 59.3 49.05 59.35 49.05 59.6 49.15 M86.05 15.95 Q89.2 13.95 91.9 10.55 89.2 13.95 86.05 15.95 M64.9 35.3 L63.5 40.5 62.2 40.1 61.45 40.05 Q60.35 40.05 59.5 40.4 L61.3 34.85 63.35 35.3 64.4 35.15 64.9 35.3 M82.85 38.0 L82.9 38.0 Q83.9 38.5 85.1 38.55 L86.2 38.4 86.5 38.4 86.35 43.1 Q85.25 42.5 83.9 42.5 L81.95 42.9 80.75 43.65 81.95 37.4 82.85 38.0" fill="#e6e7e8" fill-rule="evenodd" stroke="none"/>
    <path d="M101.15 -62.5 L101.2 -62.1 101.2 -59.55 101.15 -61.15 101.15 -61.2 101.15 -62.5" fill="#fdd85b" fill-rule="evenodd" stroke="none"/>
    <path d="M96.35 -48.3 L96.35 -47.95 96.2 -47.95 96.35 -48.3 M109.15 -15.3 L109.45 -15.0 109.15 -15.15 109.15 -15.3 M61.55 10.65 L61.45 10.8 61.45 10.85 61.45 11.1 61.4 10.65 61.55 10.65" fill="#737688" fill-rule="evenodd" stroke="none"/>
    <path d="M76.6 -36.25 Q79.4 -36.8 82.1 -37.8 85.25 -39.05 88.3 -40.8 90.8 -39.55 93.8 -40.2 94.05 -38.3 94.55 -36.75 95.2 -34.75 96.25 -33.3 83.9 -30.2 76.6 -36.25 M96.05 -40.95 Q98.8 -38.85 96.35 -37.15 99.75 -34.9 97.1 -33.55 L96.85 -33.45 95.55 -36.95 Q95.0 -38.65 94.6 -40.45 95.3 -40.65 96.05 -40.95 M82.1 -37.8 Q86.9 -35.2 94.55 -36.75 86.9 -35.2 82.1 -37.8 M96.35 -37.15 L95.55 -36.95 96.35 -37.15" fill="#f6f498" fill-rule="evenodd" stroke="none"/>
    <path d="M56.55 -34.6 L61.3 -35.95 61.9 -36.0 63.35 -36.25 64.1 -36.4 64.15 -36.4 Q62.9 -32.45 63.1 -28.0 63.5 -17.85 71.5 -4.9 76.7 -6.3 81.25 -7.95 L81.5 -8.05 Q94.6 -12.8 102.45 -19.6 102.25 -10.4 96.15 4.2 L95.95 4.85 Q95.9 2.5 94.3 0.95 92.7 -0.65 90.4 -0.7 88.05 -0.65 86.45 0.95 84.9 2.55 84.95 4.85 L84.95 5.3 84.95 5.4 Q69.95 7.75 61.15 -0.4 L61.45 -2.25 Q61.4 -4.65 59.8 -6.25 58.2 -7.8 55.9 -7.75 53.6 -7.75 52.1 -6.25 L52.0 -6.25 51.95 -6.1 Q50.45 -4.5 50.45 -2.25 50.4 -0.4 51.45 1.05 L51.45 1.1 Q50.45 3.05 49.5 3.85 L52.55 2.1 53.15 2.55 53.3 2.6 Q53.3 4.1 53.8 4.85 L53.8 4.95 44.9 34.05 42.2 34.45 42.2 4.45 46.6 -11.1 Q46.1 -11.9 45.65 -15.55 45.35 -18.55 46.9 -22.8 L47.65 -24.75 Q49.25 -28.65 51.65 -31.2 L53.2 -32.7 Q51.75 -30.75 51.2 -27.6 52.35 -30.2 54.2 -32.4 L56.55 -34.6 M51.6 -8.8 L52.0 -7.3 52.0 -6.25 52.0 -7.3 51.6 -8.8 52.0 -7.4 52.0 -7.3 52.15 -9.25 52.55 -11.2 52.6 -11.2 52.6 -11.3 Q50.2 -21.95 51.2 -27.6 48.7 -21.9 50.65 -12.35 L51.6 -8.8 M57.1 -19.95 L56.75 -18.55 Q56.0 -16.6 53.95 -13.9 53.05 -12.8 52.6 -11.3 53.05 -12.8 53.95 -13.9 56.0 -16.6 56.75 -18.55 L57.1 -19.95 57.35 -20.25 57.4 -20.35 57.35 -20.35 57.1 -19.95 M52.0 -7.3 L52.0 -7.4 52.0 -7.3 M109.3 -27.55 L117.1 -23.2 119.9 -21.45 120.7 -20.8 121.3 -20.1 121.25 -20.05 121.3 -19.95 121.4 -19.95 Q125.6 -17.1 128.3 -11.55 130.2 -7.6 130.55 -3.9 L130.4 -3.25 130.6 -3.25 130.45 -0.6 130.55 -0.45 130.4 1.65 137.1 26.7 137.1 49.15 120.7 49.15 131.2 41.45 117.7 4.7 117.55 4.65 115.4 2.55 115.25 2.9 Q111.6 6.4 109.0 1.85 L108.4 0.65 108.5 1.85 108.5 3.45 Q108.4 9.65 104.5 14.25 L103.1 15.75 100.9 17.6 Q102.25 10.2 96.9 6.75 L97.0 6.5 Q104.85 -7.35 102.6 -19.75 106.7 -23.35 109.3 -27.55 M109.15 -15.3 L109.15 -15.15 109.45 -15.0 109.15 -15.3 M107.5 -2.85 L107.8 -2.05 108.2 -0.7 108.4 0.65 108.2 -0.7 107.8 -2.05 107.5 -2.85 M112.15 -2.1 Q113.6 0.55 115.4 2.55 113.6 0.55 112.15 -2.1" fill="#bed3e4" fill-rule="evenodd" stroke="none"/>
    <path d="M130.55 -3.9 L130.6 -3.25 130.4 -3.25 130.55 -3.9" fill="#9e7865" fill-rule="evenodd" stroke="none"/>
    <path d="M57.1 -19.95 L57.35 -20.35 57.35 -20.25 57.1 -19.95 M121.3 -19.95 L121.25 -20.05 121.3 -20.1 121.3 -20.05 121.3 -19.95" fill="#af937e" fill-rule="evenodd" stroke="none"/>
    <path d="M81.2 -8.25 L81.4 -8.55 81.35 -8.4 81.2 -8.25" fill="#afb1ba" fill-rule="evenodd" stroke="none"/>
    <path d="M115.25 2.9 L113.95 6.0 112.75 9.0 110.2 14.25 105.85 21.6 Q103.2 27.55 104.0 33.5 L104.3 35.0 Q104.55 36.6 105.1 38.25 L105.8 39.95 106.6 41.3 108.8 44.75 109.1 45.45 109.15 45.6 108.05 49.15 98.2 49.15 88.65 49.15 88.9 47.45 Q88.9 45.35 87.5 43.95 L86.35 43.1 86.5 38.4 86.75 38.15 Q87.8 37.8 88.7 37.05 90.05 35.6 90.05 33.5 90.05 31.4 88.7 30.0 L88.25 29.55 Q94.75 19.2 94.85 8.9 L94.85 8.25 95.45 7.2 Q94.3 14.25 98.55 18.5 95.15 13.2 96.9 6.75 102.25 10.2 100.9 17.6 L103.1 15.75 104.5 14.25 Q108.4 9.65 108.5 3.45 L108.5 1.85 109.0 1.85 Q111.6 6.4 115.25 2.9 M79.2 49.15 L63.0 49.15 63.05 49.1 Q64.0 48.8 64.75 48.15 66.1 46.75 66.1 44.75 66.1 42.75 64.75 41.4 L63.5 40.5 64.9 35.3 65.0 34.95 Q65.95 34.65 66.7 33.95 68.0 32.6 68.0 30.65 68.0 28.65 66.7 27.3 L65.95 26.6 Q62.4 19.15 61.6 11.75 L62.3 11.6 Q65.5 15.35 70.15 17.9 77.25 19.65 83.0 17.45 L83.75 17.15 86.05 15.95 Q85.75 22.65 83.2 28.95 82.25 29.25 81.55 30.0 80.1 31.4 80.05 33.5 L80.05 33.8 80.05 34.4 Q80.35 35.9 81.55 37.05 L81.85 37.35 81.95 37.4 80.75 43.65 80.45 43.95 Q78.95 45.35 78.95 47.45 L78.95 47.75 78.95 48.2 79.2 49.15 M98.0 19.25 L100.9 17.6 98.0 19.25 M105.1 38.25 Q102.4 43.45 98.2 49.15 102.4 43.45 105.1 38.25" fill="#7aceb9" fill-rule="evenodd" stroke="none"/>
    <path d="M61.3 -35.95 L61.3 -36.0 64.1 -36.4 63.35 -36.25 61.9 -36.0 61.3 -35.95" fill="#ffdfc8" fill-rule="evenodd" stroke="none"/>
    <path d="M64.2 -73.05 L65.65 -72.85 66.25 -72.85 66.5 -72.15 67.4 -70.95 Q68.65 -69.7 70.55 -69.7 L71.3 -69.75 72.85 -70.3 73.45 -70.5 73.55 -70.2 74.45 -68.95 Q75.7 -67.65 77.6 -67.65 79.4 -67.65 80.75 -68.95 L81.65 -70.35 81.85 -70.3 Q81.9 -69.6 82.1 -68.95 L82.25 -68.5 Q82.55 -67.85 83.15 -67.3 84.4 -66.0 86.3 -66.0 L87.1 -66.1 Q88.3 -66.3 89.2 -67.05 L89.45 -67.3 90.25 -68.4 90.35 -68.35 90.8 -67.95 90.8 -67.9 90.85 -66.25 Q91.05 -61.7 90.55 -58.35 90.45 -49.55 93.05 -44.85 L93.2 -44.65 93.3 -44.45 Q90.85 -42.45 88.3 -40.8 90.85 -42.45 93.3 -44.45 L93.35 -44.5 93.35 -44.45 93.65 -41.6 93.8 -40.2 Q90.8 -39.55 88.3 -40.8 85.25 -39.05 82.1 -37.8 79.4 -36.8 76.6 -36.25 L74.0 -35.8 73.0 -37.0 74.0 -35.8 76.6 -36.25 Q83.9 -30.2 96.25 -33.3 L97.65 -31.75 Q98.75 -29.45 100.2 -27.25 101.7 -23.85 102.45 -20.3 L102.45 -19.6 Q94.6 -12.8 81.5 -8.05 L81.2 -8.25 81.25 -7.95 Q76.7 -6.3 71.5 -4.9 63.5 -17.85 63.1 -28.0 62.9 -32.45 64.15 -36.4 L65.35 -36.6 66.55 -36.7 67.45 -36.75 69.1 -36.85 69.4 -36.85 73.0 -37.0 Q67.4 -43.9 64.55 -50.75 L64.15 -57.75 64.1 -57.75 64.05 -61.4 63.4 -62.15 63.3 -62.3 Q63.8 -62.85 64.1 -64.3 L64.15 -65.55 Q65.05 -66.25 65.65 -66.5 L67.65 -67.05 Q68.25 -67.2 68.35 -67.55 L68.4 -67.6 68.55 -67.6 68.6 -67.8 68.55 -68.1 68.5 -68.3 68.3 -68.45 67.9 -68.55 67.8 -68.5 66.55 -67.95 66.55 -67.9 65.7 -67.4 64.35 -66.4 64.15 -66.3 64.15 -66.75 64.15 -68.1 64.15 -69.0 64.1 -70.15 64.1 -70.5 Q64.0 -71.2 64.2 -73.05 M77.0 -65.85 Q77.2 -65.55 78.3 -65.3 81.4 -64.9 84.7 -63.6 L87.0 -62.15 84.85 -64.05 Q81.85 -65.8 77.85 -66.8 76.0 -66.85 77.0 -65.85 M69.25 -60.8 L68.45 -61.05 Q65.7 -59.8 64.05 -61.4 65.7 -59.8 68.45 -61.05 L69.25 -60.8 M65.0 -56.6 L65.0 -56.55 65.05 -56.55 65.0 -56.6 M69.35 -52.0 Q67.5 -51.35 67.75 -54.7 L68.65 -57.5 67.75 -54.7 Q67.5 -51.35 69.35 -52.0 M74.7 -59.05 L74.55 -59.2 74.65 -59.0 74.7 -59.05 74.8 -58.8 75.0 -58.9 75.0 -58.95 74.9 -59.1 74.7 -59.05 M76.1 -63.2 Q75.7 -60.1 74.9 -59.1 75.7 -60.1 76.1 -63.2 M74.25 -58.55 L74.8 -58.8 74.25 -58.55 M73.8 -44.55 Q71.0 -45.6 69.25 -45.65 71.0 -45.6 73.8 -44.55 M73.5 -32.6 L77.3 -29.3 73.5 -32.6 M78.25 -14.35 Q73.65 -10.6 71.5 -4.9 73.65 -10.6 78.25 -14.35 M94.0 -61.45 Q94.4 -63.05 95.05 -64.3 L95.65 -64.6 96.35 -64.9 Q100.1 -66.3 101.15 -62.5 L101.15 -61.2 101.15 -61.15 101.2 -59.55 Q100.85 -56.2 99.55 -52.8 L99.55 -52.6 98.95 -51.85 98.05 -51.1 97.85 -51.0 Q97.2 -50.35 96.35 -48.3 L96.2 -47.95 96.35 -47.95 Q95.25 -44.9 96.05 -40.95 95.3 -40.65 94.6 -40.45 94.1 -42.6 93.85 -44.9 95.6 -46.7 96.2 -47.95 95.6 -46.7 93.85 -44.9 92.9 -52.45 94.1 -61.35 L94.0 -61.45 M98.95 -62.4 Q97.75 -61.35 97.15 -59.55 L96.55 -57.1 96.55 -56.55 97.7 -56.35 Q98.25 -55.7 98.15 -53.85 98.25 -55.7 97.7 -56.35 L96.55 -56.55 96.55 -57.1 97.15 -59.55 Q97.75 -61.35 98.95 -62.4 M84.05 -57.0 L82.65 -57.9 Q78.1 -54.55 75.0 -58.95 78.1 -54.55 82.65 -57.9 L84.05 -57.0 M99.05 -30.95 Q102.55 -27.65 109.3 -27.55 106.7 -23.35 102.6 -19.75 L102.45 -20.3 Q102.45 -26.8 99.4 -30.5 L98.95 -30.75 99.05 -30.95 M94.65 -28.95 L84.8 -26.55 94.65 -28.95 M81.2 -8.25 L81.35 -8.4 81.4 -8.55 81.2 -8.25" fill="#ffffff" fill-rule="evenodd" stroke="none"/>
    <path d="M62.9 49.15 L62.85 49.15 Q62.85 48.85 63.05 49.1 L62.95 49.1 62.9 49.15" fill="#858898" fill-rule="evenodd" stroke="none"/>
    <path d="M63.0 49.15 L62.9 49.15 62.95 49.1 63.05 49.1 63.0 49.15" fill="#bec1c5" fill-rule="evenodd" stroke="none"/>
    <path d="M115.25 -100.95 L116.1 -101.45 M94.55 -75.8 L94.9 -76.15 95.2 -76.35 Q96.05 -77.15 97.15 -77.35 L98.05 -77.4 98.75 -77.4 100.15 -78.9 Q101.6 -82.65 105.9 -85.8 M100.95 -85.0 L101.95 -85.65 Q106.5 -88.15 112.85 -89.95 118.55 -91.15 123.6 -93.95 M117.15 -80.75 Q127.15 -82.1 137.1 -80.6 M137.1 -95.15 L128.0 -93.25 M115.25 -100.95 L115.2 -100.95 M85.45 -74.75 Q79.55 -94.3 93.1 -114.1 L98.95 -123.3 M74.2 -123.3 L74.05 -117.45 Q74.1 -106.6 77.8 -101.1 M107.65 -123.3 Q103.55 -113.9 96.65 -107.05 M137.1 -109.95 Q134.75 -105.85 130.9 -102.6 M129.25 -123.3 Q128.5 -108.95 116.95 -101.9 M42.2 -114.15 Q47.55 -111.8 52.7 -109.05 M70.0 -97.45 Q66.45 -99.55 52.0 -100.5 47.45 -100.8 42.2 -102.0 M66.55 -123.3 Q71.45 -120.75 74.05 -117.45 M73.3 -77.65 Q73.25 -79.75 72.1 -81.7 L71.95 -81.9 70.1 -84.1 Q68.45 -85.6 66.0 -86.5 M42.2 -90.75 Q62.45 -89.9 63.85 -81.4 L65.65 -81.7 Q67.5 -81.7 68.8 -80.4 L69.8 -78.45 69.8 -78.4 70.55 -78.45 Q72.1 -78.5 73.3 -77.65 L73.7 -77.25 74.75 -75.45 74.5 -77.5 M68.15 -77.85 Q68.85 -78.3 69.65 -78.4 L69.8 -78.4 M66.1 -74.2 Q66.1 -74.95 66.35 -75.55 L66.65 -76.15 67.0 -76.85 67.4 -77.25 68.15 -77.85 M63.85 -81.4 L62.5 -80.4 Q61.2 -79.15 61.25 -77.35 61.2 -75.5 62.5 -74.2 L62.8 -73.9 64.15 -73.05 64.2 -73.05 65.65 -72.85 66.25 -72.85 Q66.1 -73.5 66.1 -74.1 L66.1 -74.2 M62.8 -74.05 L62.8 -73.9 M80.15 -84.85 Q78.35 -89.85 74.35 -92.95 M76.2 -76.25 L76.7 -76.35 77.6 -76.45 79.0 -76.2 79.3 -76.15 80.75 -75.25 Q81.95 -73.95 81.95 -72.1 M82.15 -72.0 L82.55 -72.85 M82.7 -73.05 L83.15 -73.6 83.45 -73.8 Q84.3 -74.55 85.4 -74.7 M85.45 -74.75 Q83.35 -84.25 89.9 -90.85 M92.55 -88.6 Q98.05 -94.15 115.2 -100.95 M74.75 -75.45 L74.45 -75.25 Q73.15 -73.95 73.15 -72.1 L73.4 -70.65 73.45 -70.5 73.55 -70.2 74.45 -68.95 Q75.7 -67.65 77.6 -67.65 79.4 -67.65 80.75 -68.95 L81.65 -70.35 81.85 -71.2 81.95 -72.1 M76.45 -74.65 L76.45 -74.55 M76.2 -76.25 Q75.4 -76.05 74.75 -75.45 M73.4 -70.65 L72.85 -70.3 M66.25 -72.85 L66.5 -72.15 67.4 -70.95 Q68.65 -69.7 70.55 -69.7 L71.3 -69.75 72.85 -70.3 M77.0 -65.85 Q77.2 -65.55 78.3 -65.3 81.4 -64.9 84.7 -63.6 L87.0 -62.15 84.85 -64.05 Q81.85 -65.8 77.85 -66.8 76.0 -66.85 77.0 -65.85 M68.55 -68.1 L68.5 -68.3 68.3 -68.45 67.9 -68.55 67.8 -68.5 66.55 -67.95 66.55 -67.9 65.7 -67.4 64.35 -66.4 64.15 -66.3 Q63.3 -65.55 64.15 -65.55 65.05 -66.25 65.65 -66.5 L67.65 -67.05 Q68.25 -67.2 68.35 -67.55 M68.4 -67.6 L68.55 -68.1 M68.4 -67.6 L68.35 -67.55 M64.15 -66.3 L64.15 -66.75 64.15 -68.1 64.15 -69.0 64.1 -70.15 64.1 -70.5 Q64.0 -71.2 64.2 -73.05 M64.1 -57.75 L64.05 -61.4 63.4 -62.15 63.3 -62.3 Q63.8 -62.85 64.1 -64.3 L64.15 -65.55 M64.05 -61.4 Q65.7 -59.8 68.45 -61.05 L69.25 -60.8 M65.0 -56.6 L65.0 -56.55 M64.15 -57.4 L64.1 -57.75 M64.55 -50.75 Q67.4 -43.9 73.0 -37.0 L74.0 -35.8 76.6 -36.25 Q79.4 -36.8 82.1 -37.8 85.25 -39.05 88.3 -40.8 90.85 -42.45 93.3 -44.45 M93.2 -44.65 L93.05 -44.85 Q90.45 -49.55 90.55 -58.35 91.05 -61.7 90.85 -66.25 L90.8 -67.9 90.8 -67.95 90.35 -68.35 90.25 -68.4 89.45 -67.3 89.2 -67.05 Q88.3 -66.3 87.1 -66.1 L86.3 -66.0 Q84.4 -66.0 83.15 -67.3 82.55 -67.85 82.25 -68.5 L82.1 -68.95 Q81.9 -69.6 81.85 -70.3 M64.15 -57.75 L64.15 -57.4 64.55 -50.8 64.55 -50.75 61.95 -41.7 Q60.55 -36.5 57.05 -35.15 L56.55 -34.6 61.3 -35.95 M61.3 -36.0 L64.1 -36.4 64.15 -36.4 65.35 -36.6 66.55 -36.7 67.45 -36.75 69.1 -36.85 69.4 -36.85 73.0 -37.0 M68.65 -57.5 L67.75 -54.7 Q67.5 -51.35 69.35 -52.0 M74.9 -59.1 Q75.7 -60.1 76.1 -63.2 M74.8 -58.8 L75.0 -58.9 75.0 -58.95 74.9 -59.1 M74.8 -58.8 L74.25 -58.55 M64.1 -36.4 L63.35 -36.25 M64.15 -36.4 Q62.9 -32.45 63.1 -28.0 63.5 -17.85 71.5 -4.9 73.65 -10.6 78.25 -14.35 M77.3 -29.3 L73.5 -32.6 M69.25 -45.65 Q71.0 -45.6 73.8 -44.55 M57.05 -35.15 L55.35 -34.7 Q54.1 -33.9 53.2 -32.7 51.75 -30.75 51.2 -27.6 52.35 -30.2 54.2 -32.4 L56.55 -34.6 M53.2 -32.7 L51.65 -31.2 Q49.25 -28.65 47.65 -24.75 L46.9 -22.8 Q45.35 -18.55 45.65 -15.55 46.1 -11.9 46.6 -11.1 L42.2 4.45 M42.2 34.45 L44.9 34.05 53.8 4.95 53.8 4.85 Q53.3 4.1 53.3 2.6 L53.15 2.55 52.55 2.1 49.5 3.85 Q50.45 3.05 51.45 1.1 L51.45 1.05 Q50.4 -0.4 50.45 -2.25 50.45 -4.5 51.95 -6.1 L52.0 -6.25 52.0 -7.3 51.6 -8.8 50.65 -12.35 Q48.7 -21.9 51.2 -27.6 50.2 -21.95 52.6 -11.3 53.05 -12.8 53.95 -13.9 56.0 -16.6 56.75 -18.55 L57.1 -19.95 M57.4 -20.35 L57.35 -20.25 57.1 -19.95 M57.35 -20.25 L57.35 -20.35 M52.1 -6.25 Q53.6 -7.75 55.9 -7.75 58.2 -7.8 59.8 -6.25 61.4 -4.65 61.45 -2.25 L61.15 -0.4 Q69.95 7.75 84.95 5.4 L84.95 5.3 84.95 4.85 Q84.9 2.55 86.45 0.95 88.05 -0.65 90.4 -0.7 92.7 -0.65 94.3 0.95 95.9 2.5 95.95 4.85 L96.15 4.2 Q102.25 -10.4 102.45 -19.6 94.6 -12.8 81.5 -8.05 L81.25 -7.95 Q76.7 -6.3 71.5 -4.9 M52.55 -11.2 L52.6 -11.3 52.6 -11.2 M52.55 -11.2 L52.15 -9.25 M52.0 -7.4 L52.0 -7.3 M52.0 -6.25 L52.1 -6.25 M52.0 -7.4 Q52.0 -8.4 52.15 -9.25 M64.15 -57.4 L63.35 -48.85 Q61.75 -40.45 57.05 -35.15 M102.4 -73.15 L102.4 -73.0 102.2 -71.5 103.3 -71.35 104.75 -71.55 Q105.75 -71.85 106.55 -72.6 L106.85 -72.9 107.05 -73.15 Q107.85 -74.3 107.8 -75.75 L107.75 -76.6 M107.75 -76.75 Q107.5 -77.75 106.85 -78.6 L106.55 -78.9 105.5 -79.65 105.4 -79.65 105.25 -79.75 105.2 -79.75 103.45 -80.1 102.1 -79.9 101.65 -79.8 Q100.95 -79.65 100.15 -78.9 M107.75 -76.75 L107.75 -76.6 M106.85 -78.6 Q111.85 -80.0 116.85 -80.7 M85.45 -74.7 L86.3 -74.8 Q88.1 -74.85 89.45 -73.6 L89.5 -73.5 89.5 -73.55 90.35 -74.65 90.65 -74.85 Q91.15 -75.3 91.85 -75.55 L92.15 -75.65 92.6 -75.75 93.5 -75.85 94.55 -75.75 94.55 -75.8 M85.45 -74.7 L85.4 -74.7 M85.45 -74.75 L85.45 -74.7 M94.55 -75.75 Q95.25 -75.6 95.85 -75.25 L96.25 -74.95 96.35 -74.9 96.65 -74.65 96.8 -74.45 97.6 -73.15 97.85 -71.5 97.8 -71.0 97.65 -70.05 96.95 -68.7 97.1 -68.7 98.05 -68.55 98.4 -68.6 99.65 -68.85 Q100.5 -69.2 101.2 -69.9 L101.45 -70.15 101.8 -70.75 102.2 -71.5 M101.0 -76.35 L100.1 -76.95 99.65 -77.2 98.75 -77.4 M102.4 -73.15 Q102.4 -74.9 101.2 -76.15 L101.0 -76.35 M96.95 -68.7 L96.65 -68.35 Q95.3 -67.05 93.5 -67.05 92.0 -67.05 90.85 -67.9 M94.0 -61.45 Q94.4 -63.05 95.05 -64.3 L95.65 -64.6 96.35 -64.9 Q100.1 -66.3 101.15 -62.5 L101.2 -62.1 101.2 -59.55 Q100.85 -56.2 99.55 -52.8 L99.65 -52.75 101.95 -57.1 Q103.2 -59.7 103.7 -62.8 L104.75 -71.55 M89.5 -73.5 Q90.65 -72.25 90.65 -70.45 90.65 -69.35 90.25 -68.4 M82.15 -72.0 L81.95 -71.2 81.85 -70.45 81.85 -70.3 M90.8 -67.95 L90.85 -67.9 M75.0 -58.95 Q78.1 -54.55 82.65 -57.9 L84.05 -57.0 M98.15 -53.85 Q98.25 -55.7 97.7 -56.35 L96.55 -56.55 96.55 -57.1 97.15 -59.55 Q97.75 -61.35 98.95 -62.4 M101.15 -62.5 L101.15 -61.2 101.15 -61.15 101.2 -59.55 M94.0 -61.45 L93.85 -60.85 M99.55 -52.6 L99.65 -52.75 M96.35 -48.3 Q97.2 -50.35 97.85 -51.0 L98.05 -51.1 98.95 -51.85 99.55 -52.6 M96.35 -47.95 L96.35 -48.3 96.2 -47.95 Q95.6 -46.7 93.85 -44.9 94.1 -42.6 94.6 -40.45 95.3 -40.65 96.05 -40.95 98.8 -38.85 96.35 -37.15 99.75 -34.9 97.1 -33.55 97.9 -32.1 99.05 -30.95 102.55 -27.65 109.3 -27.55 L117.1 -23.2 119.9 -21.45 120.7 -20.8 121.3 -20.1 121.4 -19.95 Q125.6 -17.1 128.3 -11.55 130.2 -7.6 130.55 -3.9 L130.6 -3.25 130.45 -0.6 130.55 -0.45 130.4 1.65 137.1 26.7 M96.35 -47.95 Q95.25 -44.9 96.05 -40.95 M120.7 49.15 L131.2 41.45 117.7 4.7 117.55 4.65 115.4 2.55 115.25 2.9 113.95 6.0 112.75 9.0 110.2 14.25 105.85 21.6 Q103.2 27.55 104.0 33.5 L104.3 35.0 Q104.55 36.6 105.1 38.25 L105.8 39.95 106.6 41.3 108.8 44.75 109.1 45.45 109.15 45.6 109.85 47.15 109.85 47.25 110.15 47.9 110.6 49.15 M54.95 49.15 L55.15 48.45 55.25 48.2 55.3 46.4 55.55 45.9 56.8 43.5 56.95 43.25 57.65 42.0 57.8 41.85 Q59.95 37.05 61.25 34.85 60.55 34.55 59.95 33.95 58.85 32.85 58.6 31.4 L58.6 30.95 58.6 30.65 Q58.6 28.65 59.95 27.3 60.5 26.75 61.15 26.45 56.15 16.8 53.8 4.95 M93.2 -44.65 L93.35 -44.5 93.35 -44.45 92.1 -57.3 M93.35 -44.5 L93.3 -44.45 M93.8 -40.2 L93.65 -41.6 93.35 -44.45 M97.1 -33.55 L96.85 -33.45 97.65 -31.75 98.95 -30.75 M102.45 -19.6 L102.45 -20.3 Q101.7 -23.85 100.2 -27.25 98.75 -29.45 97.65 -31.75 L96.25 -33.3 Q83.9 -30.2 76.6 -36.25 M102.45 -20.3 Q102.45 -26.8 99.4 -30.5 L98.95 -30.75 M96.25 -33.3 Q95.2 -34.75 94.55 -36.75 86.9 -35.2 82.1 -37.8 M95.55 -36.95 L96.85 -33.45 M94.6 -40.45 Q95.0 -38.65 95.55 -36.95 L96.35 -37.15 M84.8 -26.55 L94.65 -28.95 M94.55 -36.75 Q94.05 -38.3 93.8 -40.2 90.8 -39.55 88.3 -40.8 M121.3 -20.05 L121.4 -19.95 121.3 -19.95 121.25 -20.05 M121.3 -20.1 L121.3 -20.05 121.3 -19.95 M102.6 -19.75 L102.45 -20.3 M108.4 0.65 L108.2 -0.7 107.8 -2.05 107.5 -2.85 M109.3 -27.55 Q106.7 -23.35 102.6 -19.75 104.85 -7.35 97.0 6.5 L96.9 6.75 Q102.25 10.2 100.9 17.6 L103.1 15.75 104.5 14.25 Q108.4 9.65 108.5 3.45 L108.5 1.85 108.4 0.65 109.0 1.85 Q111.6 6.4 115.25 2.9 M94.1 -61.35 Q92.9 -52.45 93.85 -44.9 M134.45 -102.75 Q130.0 -97.8 124.75 -94.65 M94.3 8.85 Q93.4 9.7 92.3 10.05 L91.9 10.55 Q89.2 13.95 86.05 15.95 85.75 22.65 83.2 28.95 L85.1 28.55 Q86.85 28.55 88.25 29.55 94.75 19.2 94.85 8.9 L94.85 8.25 95.45 7.2 95.95 4.85 M94.3 8.85 L94.85 8.25 M91.6 10.2 L90.4 10.35 88.0 9.8 87.95 9.8 86.45 8.85 Q85.2 7.55 84.95 5.85 L84.95 5.4 M91.6 10.2 L92.3 10.05 M86.05 15.95 L83.75 17.15 83.0 17.45 Q77.25 19.65 70.15 17.9 65.5 15.35 62.3 11.6 L61.6 11.4 61.6 11.75 Q62.4 19.15 65.95 26.6 L66.7 27.3 Q68.0 28.65 68.0 30.65 68.0 32.6 66.7 33.95 65.95 34.65 65.0 34.95 L64.9 35.3 63.5 40.5 64.75 41.4 Q66.1 42.75 66.1 44.75 66.1 46.75 64.75 48.15 64.0 48.8 63.05 49.1 62.85 48.85 62.85 49.15 M100.9 17.6 L98.0 19.25 M95.45 7.2 Q94.3 14.25 98.55 18.5 95.15 13.2 96.9 6.75 M86.75 38.15 Q87.8 37.8 88.7 37.05 90.05 35.6 90.05 33.5 90.05 31.4 88.7 30.0 L88.25 29.55 M83.2 28.95 Q82.25 29.25 81.55 30.0 80.1 31.4 80.05 33.5 L80.05 33.8 80.05 34.4 Q80.35 35.9 81.55 37.05 L81.85 37.35 81.95 37.4 81.95 37.35 82.85 38.0 82.9 38.0 Q83.9 38.5 85.1 38.55 L86.2 38.4 86.5 38.3 86.75 38.15 M86.5 38.4 L86.35 43.1 87.5 43.95 Q88.9 45.35 88.9 47.45 L88.65 49.15 M86.5 38.4 L86.5 38.3 M82.85 38.0 L81.95 37.4 80.75 43.65 81.95 42.9 83.9 42.5 Q85.25 42.5 86.35 43.1 M109.15 45.6 L108.05 49.15 M98.2 49.15 Q102.4 43.45 105.1 38.25 M61.55 10.65 L61.6 10.7 62.3 11.6 M61.55 10.65 L61.4 10.65 61.45 11.1 61.55 11.3 61.45 10.85 61.6 11.4 61.55 11.3 M61.45 10.85 L61.45 10.8 M61.55 10.65 L61.45 10.55 59.5 7.7 Q58.4 5.75 57.35 3.05 L55.9 3.2 55.45 3.2 53.3 2.6 M57.35 3.05 Q58.7 2.75 59.75 1.7 L59.8 1.65 Q60.75 0.7 61.15 -0.4 M51.5 1.1 L52.0 1.65 52.55 2.1 M51.45 1.05 L51.5 1.1 M59.5 40.4 L58.1 41.4 57.8 41.85 M55.25 48.45 L55.25 49.15 M55.25 48.45 L55.25 48.2 M56.8 43.5 Q56.65 44.05 56.65 44.75 L56.65 45.15 56.65 45.6 Q56.85 46.45 57.35 47.25 L57.8 47.85 58.1 48.15 59.3 49.05 59.35 49.05 59.6 49.15 M57.8 47.85 L57.7 48.05 M57.55 49.15 L57.7 48.05 M65.95 26.6 Q65.15 26.05 64.25 25.85 L64.1 25.85 63.35 25.85 Q62.1 25.9 61.15 26.45 M65.0 34.95 L64.4 35.15 M61.25 34.85 L61.3 34.85 63.35 35.3 64.4 35.15 M63.5 40.5 L62.2 40.1 61.45 40.05 Q60.35 40.05 59.5 40.4 L61.3 34.85 M62.95 49.1 L63.05 49.1 M80.75 43.65 L80.45 43.95 Q78.95 45.35 78.95 47.45 L78.95 47.75 78.95 48.2 79.2 49.15 M115.4 2.55 Q113.6 0.55 112.15 -2.1" fill="none" stroke="#000000" stroke-linecap="round" stroke-linejoin="round" stroke-width="0.05"/>
  </g>
</svg>
