<?xml version="1.0" encoding="UTF-8" standalone="no"?>
<svg xmlns:xlink="http://www.w3.org/1999/xlink" height="96.15px" width="94.4px" xmlns="http://www.w3.org/2000/svg">
  <g transform="matrix(1, 0, 0, 1, -40.4, 46.1)">
    <path d="M79.15 -41.25 L79.15 -42.95 79.0 -45.95 83.5 -46.1 89.35 -45.95 90.85 -45.85 95.2 -45.3 95.3 -45.35 96.7 -45.2 96.45 -42.95 Q95.75 -36.9 96.25 -31.35 L92.25 -30.85 Q91.45 -34.15 90.3 -36.95 80.85 -38.35 79.15 -41.25" fill="#ffd0ae" fill-rule="evenodd" stroke="none"/>
    <path d="M98.0 47.85 L57.0 47.85 Q58.75 42.6 62.05 38.0 L63.0 36.85 63.2 36.6 63.5 36.15 Q64.8 33.6 64.85 29.85 L64.95 29.85 Q71.05 22.95 76.65 24.05 82.25 25.15 85.45 27.8 88.0 29.8 90.3 33.05 L92.7 36.6 93.0 37.2 93.45 37.95 94.1 39.15 97.2 45.9 97.5 46.65 98.0 47.85 M63.85 -29.65 L65.75 -30.0 71.75 -30.4 70.35 -27.55 Q67.15 -20.5 66.45 -13.35 L91.2 -6.7 95.65 -6.45 Q99.35 -4.45 100.2 -1.85 102.7 9.4 99.95 15.6 95.6 22.55 82.6 19.0 L81.9 18.75 81.95 18.95 81.35 18.6 79.65 18.4 Q78.45 18.25 72.75 15.55 67.05 12.85 62.65 11.8 L57.9 10.55 Q56.25 9.55 55.1 8.2 53.4 6.2 52.7 3.35 L52.6 0.85 Q52.6 -2.75 53.4 -5.35 54.05 -7.5 55.25 -8.95 56.9 -11.05 57.65 -12.9 L58.05 -14.2 58.25 -14.55 63.85 -29.65" fill="#d2c0b7" fill-rule="evenodd" stroke="none"/>
    <path d="M92.25 -30.85 L96.25 -31.35 97.05 -31.45 Q98.9 -29.2 99.3 -26.65 L101.75 -25.15 100.05 -21.15 Q96.5 -13.35 91.2 -6.7 L66.45 -13.35 Q67.15 -20.5 70.35 -27.55 L71.75 -30.4 74.75 -30.65 Q74.75 -31.6 77.4 -33.65 L78.3 -32.75 Q81.85 -29.85 92.25 -30.85 M107.75 -21.6 L108.55 -21.15 112.7 -18.85 114.1 -17.9 117.6 -15.6 118.4 -15.0 119.0 -14.6 119.0 -14.3 118.4 -11.05 117.6 -7.35 Q115.75 0.6 113.2 7.55 109.3 11.25 106.7 5.35 106.45 3.6 105.8 2.0 103.15 -1.45 103.65 -8.75 104.35 -15.6 107.65 -21.6 L107.75 -21.6 M50.05 24.2 L47.7 31.8 47.95 33.55 Q48.6 38.25 47.7 42.8 47.45 45.05 47.55 46.95 L40.4 46.95 40.4 24.2 46.9 -1.5 Q54.7 6.6 50.05 24.2 M55.95 -27.5 Q57.7 -28.6 59.3 -28.75 L59.35 -28.9 63.85 -29.65 58.25 -14.55 58.05 -14.2 57.65 -12.9 Q56.9 -11.05 55.25 -8.95 54.05 -7.5 53.4 -5.35 52.25 -6.0 51.6 -7.5 L51.55 -7.6 51.05 -9.0 Q50.0 -13.3 52.15 -19.4 53.45 -23.15 55.95 -27.5 M75.5 -22.55 Q73.9 -24.4 73.9 -24.9 L74.0 -26.1 74.75 -30.65 74.0 -26.1 73.9 -24.9 Q73.9 -24.4 75.5 -22.55 M58.15 -18.2 Q58.55 -17.15 58.15 -14.55 L58.15 -14.45 58.05 -14.2 58.15 -14.45 58.15 -14.55 Q58.55 -17.15 58.15 -18.2 M97.1 -21.7 Q98.7 -22.6 99.3 -26.65 98.7 -22.6 97.1 -21.7 M134.8 44.0 L134.8 50.05 130.15 50.05 Q131.05 44.3 134.8 44.0 M47.15 33.65 L47.7 31.8 47.15 33.65" fill="#af937e" fill-rule="evenodd" stroke="none"/>
    <path d="M79.15 -41.25 Q80.85 -38.35 90.3 -36.95 91.45 -34.15 92.25 -30.85 81.85 -29.85 78.3 -32.75 79.05 -36.85 79.15 -41.25" fill="#ffdfc8" fill-rule="evenodd" stroke="none"/>
    <path d="M54.75 9.25 L50.05 24.2 Q54.7 6.6 46.9 -1.5 L48.0 -6.0 Q47.55 -6.9 47.2 -10.05 46.8 -13.55 49.1 -18.8 51.25 -24.05 54.95 -26.8 L55.95 -27.5 Q53.45 -23.15 52.15 -19.4 50.0 -13.3 51.05 -9.0 L51.55 -7.6 51.6 -7.5 Q52.25 -6.0 53.4 -5.35 52.6 -2.75 52.6 0.85 L52.7 3.35 Q53.15 6.7 54.75 9.25 M49.05 -4.25 L48.05 -5.85 48.0 -6.0 48.05 -5.85 49.05 -4.25" fill="#9e7865" fill-rule="evenodd" stroke="none"/>
    <path d="M101.75 -25.15 L107.75 -21.6 107.65 -21.6 Q104.35 -15.6 103.65 -8.75 103.15 -1.45 105.8 2.0 106.45 3.6 106.7 5.35 109.3 11.25 113.2 7.55 L110.85 13.3 Q107.8 20.05 104.3 25.25 101.75 30.9 102.5 36.55 L102.75 38.0 Q103.2 40.3 104.2 42.7 L107.05 47.25 107.35 47.85 98.0 47.85 97.5 46.65 97.2 45.9 94.1 39.15 93.45 37.95 93.0 37.2 92.7 36.6 90.3 33.05 Q88.0 29.8 85.45 27.8 82.25 25.15 76.65 24.05 71.05 22.95 64.95 29.85 L64.85 29.85 Q64.9 26.05 63.7 21.05 L62.65 17.8 62.0 14.85 Q58.85 13.85 56.45 11.3 L55.05 9.7 54.75 9.25 Q53.15 6.7 52.7 3.35 53.4 6.2 55.1 8.2 56.25 9.55 57.9 10.55 L62.65 11.8 Q67.05 12.85 72.75 15.55 78.45 18.25 79.65 18.4 L81.35 18.6 81.95 18.95 81.9 18.75 82.6 19.0 Q95.6 22.55 99.95 15.6 102.7 9.4 100.2 -1.85 99.35 -4.45 95.65 -6.45 L91.2 -6.7 Q96.5 -13.35 100.05 -21.15 L101.75 -25.15 M62.0 14.85 L63.1 15.1 63.9 15.25 82.75 22.75 Q86.0 24.3 90.0 24.35 96.9 24.4 101.7 19.65 106.7 14.85 106.8 7.95 L106.7 5.35 106.8 7.95 Q106.7 14.85 101.7 19.65 96.9 24.4 90.0 24.35 86.0 24.3 82.75 22.75 L63.9 15.25 63.1 15.1 62.0 14.85" fill="#c5afa0" fill-rule="evenodd" stroke="none"/>
    <path d="M96.25 -31.35 Q95.75 -36.9 96.45 -42.95 L96.7 -45.2 95.3 -45.35 95.2 -45.3 90.85 -45.85 89.35 -45.95 83.5 -46.1 79.0 -45.95 79.15 -42.95 79.15 -41.25 M78.3 -32.75 Q79.05 -36.85 79.15 -41.25 M95.3 -45.35 L90.85 -45.85" fill="none" stroke="#d7995e" stroke-linecap="round" stroke-linejoin="round" stroke-width="0.05"/>
    <path d="M59.35 -28.9 L63.85 -29.65 65.75 -30.0" fill="none" stroke="#305054" stroke-linecap="round" stroke-linejoin="round" stroke-width="0.05"/>
    <path d="M92.25 -30.85 L96.25 -31.35 97.05 -31.45 Q98.9 -29.2 99.3 -26.65 L101.75 -25.15 107.75 -21.6 108.55 -21.15 112.7 -18.85 114.1 -17.9 117.6 -15.6 118.4 -15.0 119.0 -14.6 119.0 -14.3 118.4 -11.05 117.6 -7.35 Q115.75 0.6 113.2 7.55 L110.85 13.3 Q107.8 20.05 104.3 25.25 101.75 30.9 102.5 36.55 L102.75 38.0 Q103.2 40.3 104.2 42.7 L107.05 47.25 107.35 47.85 M57.0 47.85 Q58.75 42.6 62.05 38.0 L63.0 36.85 M63.7 21.05 L62.65 17.8 62.0 14.85 Q58.85 13.85 56.45 11.3 L55.05 9.7 54.75 9.25 50.05 24.2 47.7 31.8 47.95 33.55 Q48.6 38.25 47.7 42.8 47.45 45.05 47.55 46.95 M40.4 24.2 L46.9 -1.5 48.0 -6.0 Q47.55 -6.9 47.2 -10.05 46.8 -13.55 49.1 -18.8 51.25 -24.05 54.95 -26.8 L55.95 -27.5 Q57.7 -28.6 59.3 -28.75 M65.75 -30.0 L71.75 -30.4 74.75 -30.65 Q74.75 -31.6 77.4 -33.65 L78.3 -32.75 Q81.85 -29.85 92.25 -30.85 M74.75 -30.65 L74.0 -26.1 73.9 -24.9 Q73.9 -24.4 75.5 -22.55 M71.75 -30.4 L70.35 -27.55 Q67.15 -20.5 66.45 -13.35 L91.2 -6.7 Q96.5 -13.35 100.05 -21.15 L101.75 -25.15 M58.05 -14.2 L58.15 -14.45 58.15 -14.55 Q58.55 -17.15 58.15 -18.2 M63.85 -29.65 L58.25 -14.55 58.05 -14.2 57.65 -12.9 Q56.9 -11.05 55.25 -8.95 54.05 -7.5 53.4 -5.35 52.6 -2.75 52.6 0.85 L52.7 3.35 Q53.15 6.7 54.75 9.25 M48.0 -6.0 L48.05 -5.85 49.05 -4.25 M107.75 -21.6 L107.65 -21.6 Q104.35 -15.6 103.65 -8.75 103.15 -1.45 105.8 2.0 106.45 3.6 106.7 5.35 109.3 11.25 113.2 7.55 M99.3 -26.65 Q98.7 -22.6 97.1 -21.7 M106.7 5.35 L106.8 7.95 Q106.7 14.85 101.7 19.65 96.9 24.4 90.0 24.35 86.0 24.3 82.75 22.75 L63.9 15.25 63.1 15.1 62.0 14.85 M130.15 50.05 Q131.05 44.3 134.8 44.0 M47.7 31.8 L47.15 33.65" fill="none" stroke="#594337" stroke-linecap="round" stroke-linejoin="round" stroke-width="0.05"/>
    <path d="M63.0 36.85 L63.2 36.6 63.5 36.15 Q64.8 33.6 64.85 29.85 64.9 26.05 63.7 21.05" fill="none" stroke="#685942" stroke-linecap="round" stroke-linejoin="round" stroke-width="0.05"/>
  </g>
</svg>
