<?xml version="1.0" encoding="UTF-8" standalone="no"?>
<svg xmlns:xlink="http://www.w3.org/1999/xlink" height="59.7px" width="43.35px" xmlns="http://www.w3.org/2000/svg">
  <g transform="matrix(1, 0, 0, 1, -93.85, 82.7)">
    <path d="M94.7 -74.85 L95.1 -75.8 96.95 -78.2 Q100.15 -81.35 104.65 -81.3 107.0 -81.35 109.05 -80.5 111.6 -82.7 115.15 -82.7 119.0 -82.7 121.75 -79.95 124.55 -77.15 124.6 -73.25 124.55 -71.15 123.7 -69.4 125.3 -70.4 127.25 -70.4 130.2 -70.4 132.35 -68.3 134.5 -66.2 134.55 -63.2 134.5 -60.8 133.1 -58.9 134.55 -56.65 135.2 -54.05 L135.65 -51.6 137.2 -51.2 137.2 -27.2 Q136.3 -26.65 135.2 -26.4 L133.75 -26.3 Q131.9 -26.3 130.4 -27.15 131.55 -27.6 132.5 -28.45 134.6 -30.25 134.75 -32.85 134.85 -35.4 132.85 -37.2 L132.0 -37.9 Q132.95 -38.4 133.8 -39.15 L135.2 -40.7 Q136.0 -41.9 136.05 -43.35 136.1 -45.1 135.2 -46.5 L134.2 -47.75 Q132.6 -49.25 130.4 -49.45 130.2 -53.1 128.2 -56.1 129.6 -57.8 129.65 -59.95 129.8 -62.6 127.8 -64.5 125.7 -66.45 122.75 -66.4 120.75 -66.45 119.15 -65.55 120.0 -67.15 120.1 -69.05 120.2 -72.55 117.45 -75.05 114.9 -77.55 111.05 -77.55 107.5 -77.5 104.8 -75.5 102.8 -76.3 100.45 -76.3 97.95 -76.3 95.8 -75.4 L94.7 -74.85" fill="#fdffc1" fill-rule="evenodd" stroke="none"/>
    <path d="M130.4 -27.15 L130.25 -27.15 130.2 -27.0 129.0 -25.55 Q126.45 -23.05 122.9 -23.0 120.75 -23.05 119.0 -23.95 L118.4 -24.35 116.8 -25.55 Q115.0 -27.45 114.55 -29.85 112.35 -28.0 109.3 -27.95 L109.2 -27.95 108.65 -27.95 Q107.3 -28.05 106.1 -28.55 105.75 -28.7 105.45 -28.9 L103.45 -30.45 Q101.05 -32.8 101.05 -36.25 101.0 -39.6 103.2 -42.0 101.35 -45.5 101.4 -49.85 101.35 -55.35 104.4 -59.65 100.05 -59.75 96.95 -62.85 93.8 -66.0 93.85 -70.5 93.85 -72.85 94.7 -74.85 L95.8 -75.4 Q97.95 -76.3 100.45 -76.3 102.8 -76.3 104.8 -75.5 107.5 -77.5 111.05 -77.55 114.9 -77.55 117.45 -75.05 120.2 -72.55 120.1 -69.05 120.0 -67.15 119.15 -65.55 120.75 -66.45 122.75 -66.4 125.7 -66.45 127.8 -64.5 129.8 -62.6 129.65 -59.95 129.6 -57.8 128.2 -56.1 130.2 -53.1 130.4 -49.45 132.6 -49.25 134.2 -47.75 L135.2 -46.5 Q136.1 -45.1 136.05 -43.35 136.0 -41.9 135.2 -40.7 L133.8 -39.15 Q132.95 -38.4 132.0 -37.9 L132.85 -37.2 Q134.85 -35.4 134.75 -32.85 134.6 -30.25 132.5 -28.45 131.55 -27.6 130.4 -27.15" fill="#fdd85b" fill-rule="evenodd" stroke="none"/>
    <path d="M94.7 -74.85 L95.1 -75.8 96.95 -78.2 Q100.15 -81.35 104.65 -81.3 107.0 -81.35 109.05 -80.5 111.6 -82.7 115.15 -82.7 119.0 -82.7 121.75 -79.95 124.55 -77.15 124.6 -73.25 124.55 -71.15 123.7 -69.4 125.3 -70.4 127.25 -70.4 130.2 -70.4 132.35 -68.3 134.5 -66.2 134.55 -63.2 134.5 -60.8 133.1 -58.9 134.55 -56.65 135.2 -54.05 L135.65 -51.6 137.2 -51.2 M137.2 -27.2 Q136.3 -26.65 135.2 -26.4 L133.75 -26.3 Q131.9 -26.3 130.4 -27.15 L130.25 -27.15 130.2 -27.0 129.0 -25.55 Q126.45 -23.05 122.9 -23.0 120.75 -23.05 119.0 -23.95 L118.4 -24.35 116.8 -25.55 Q115.0 -27.45 114.55 -29.85 112.35 -28.0 109.3 -27.95 L109.2 -27.95 108.65 -27.95 Q107.3 -28.05 106.1 -28.55 105.75 -28.7 105.45 -28.9 L103.45 -30.45 Q101.05 -32.8 101.05 -36.25 101.0 -39.6 103.2 -42.0 101.35 -45.5 101.4 -49.85 101.35 -55.35 104.4 -59.65 100.05 -59.75 96.95 -62.85 93.8 -66.0 93.85 -70.5 93.85 -72.85 94.7 -74.85" fill="none" stroke="#baba01" stroke-linecap="round" stroke-linejoin="round" stroke-width="0.05"/>
  </g>
</svg>
