<?xml version="1.0" encoding="UTF-8" standalone="no"?>
<svg xmlns:xlink="http://www.w3.org/1999/xlink" height="58.15px" width="55.7px" xmlns="http://www.w3.org/2000/svg">
  <g transform="matrix(1, 0, 0, 1, -56.2, 93.6)">
    <path d="M62.15 -75.3 L62.15 -76.45 Q63.6 -77.9 65.5 -78.9 L66.05 -78.9 Q63.6 -77.45 62.15 -75.3" fill="#68536f" fill-rule="evenodd" stroke="none"/>
    <path d="M65.75 -80.65 Q65.65 -82.85 71.0 -85.05 L72.75 -84.75 73.05 -84.9 Q91.2 -81.95 94.25 -66.0 94.4 -62.5 92.5 -65.1 85.4 -78.35 65.75 -80.65" fill="#9933cc" fill-rule="evenodd" stroke="none"/>
    <path d="M88.75 -80.65 L89.2 -80.5 Q97.0 -75.85 96.6 -63.2 L97.15 -55.95 Q101.4 -60.45 99.95 -66.55 103.7 -63.95 103.0 -58.45 107.5 -60.9 108.8 -70.05 107.5 -77.3 105.15 -80.65 L103.3 -82.7 103.0 -82.85 103.0 -83.0 Q99.05 -87.05 94.85 -87.2 L97.6 -85.3 Q92.95 -87.95 88.3 -87.05 91.2 -86.05 89.6 -85.05 84.65 -86.5 80.45 -84.9 84.65 -84.75 88.6 -80.8 L88.75 -80.65 88.6 -80.8 Q84.65 -84.75 80.45 -84.9 84.65 -86.5 89.6 -85.05 91.2 -86.05 88.3 -87.05 92.95 -87.95 97.6 -85.3 L94.85 -87.2 Q99.05 -87.05 103.0 -83.0 L103.0 -82.85 103.3 -82.7 105.15 -80.65 Q107.5 -77.3 108.8 -70.05 107.5 -60.9 103.0 -58.45 103.7 -63.95 99.95 -66.55 101.4 -60.45 97.15 -55.95 L96.6 -63.2 Q97.0 -75.85 89.2 -80.5 L88.75 -80.65 M65.75 -80.65 Q85.4 -78.35 92.5 -65.1 94.4 -62.5 94.25 -66.0 91.2 -81.95 73.05 -84.9 79.6 -88.25 88.9 -89.55 98.05 -90.1 103.55 -86.2 106.9 -83.85 108.95 -79.65 L109.8 -77.2 110.1 -76.3 Q111.85 -67.9 106.75 -55.95 L104.85 -50.7 Q103.55 -47.5 99.8 -42.75 101.7 -46.65 101.55 -50.45 100.35 -54.65 94.85 -52.3 91.65 -47.5 93.25 -35.45 89.9 -39.4 90.05 -47.4 91.05 -53.05 89.05 -57.7 88.6 -49.7 86.1 -44.45 88.3 -57.4 81.35 -64.55 82.05 -55.8 79.75 -51.15 78.0 -58.85 72.6 -64.25 69.7 -58.15 70.55 -51.6 68.55 -52.9 67.25 -55.25 66.2 -56.95 65.65 -59.15 L65.65 -68.9 64.6 -59.15 Q64.05 -62.05 64.15 -65.7 60.7 -61.6 60.85 -52.45 58.8 -56.25 59.65 -66.55 59.65 -67.9 59.95 -68.9 59.95 -70.05 60.25 -71.2 60.85 -73.55 62.15 -75.3 63.6 -77.45 66.05 -78.9 L65.5 -78.9 Q63.6 -77.9 62.15 -76.45 L62.15 -78.9 Q63.75 -79.95 65.75 -80.65 M78.25 -63.5 Q77.1 -68.0 73.05 -69.75 69.4 -68.75 69.25 -64.25 67.5 -67.6 67.95 -71.35 L66.2 -71.8 66.2 -71.05 Q64.6 -70.35 63.0 -68.9 L62.15 -68.0 61.25 -67.15 61.7 -68.15 Q61.7 -68.6 61.85 -68.9 L62.15 -69.6 62.7 -71.2 62.85 -71.35 Q63.3 -72.55 64.05 -73.7 64.9 -75.3 66.2 -76.45 L66.2 -78.9 Q74.05 -78.35 82.95 -73.25 88.0 -67.75 88.15 -60.6 84.95 -67.3 77.55 -70.65 78.55 -66.15 78.25 -63.5 78.55 -66.15 77.55 -70.65 84.95 -67.3 88.15 -60.6 88.0 -67.75 82.95 -73.25 74.05 -78.35 66.2 -78.9 L66.2 -76.45 Q64.9 -75.3 64.05 -73.7 63.3 -72.55 62.85 -71.35 L62.7 -71.2 62.15 -69.6 61.85 -68.9 Q61.7 -68.6 61.7 -68.15 L61.25 -67.15 62.15 -68.0 63.0 -68.9 Q64.6 -70.35 66.2 -71.05 L66.2 -71.8 67.95 -71.35 Q67.5 -67.6 69.25 -64.25 69.4 -68.75 73.05 -69.75 77.1 -68.0 78.25 -63.5" fill="#fdd85b" fill-rule="evenodd" stroke="none"/>
    <path d="M88.75 -80.65 L88.6 -80.8 Q84.65 -84.75 80.45 -84.9 84.65 -86.5 89.6 -85.05 91.2 -86.05 88.3 -87.05 92.95 -87.95 97.6 -85.3 L94.85 -87.2 Q99.05 -87.05 103.0 -83.0 L103.0 -82.85 103.3 -82.7 105.15 -80.65 Q107.5 -77.3 108.8 -70.05 107.5 -60.9 103.0 -58.45 103.7 -63.95 99.95 -66.55 101.4 -60.45 97.15 -55.95 L96.6 -63.2 Q97.0 -75.85 89.2 -80.5 L88.75 -80.65 M65.75 -80.65 Q85.4 -78.35 92.5 -65.1 94.4 -62.5 94.25 -66.0 91.2 -81.95 73.05 -84.9 79.6 -88.25 88.9 -89.55 98.05 -90.1 103.55 -86.2 106.9 -83.85 108.95 -79.65 L109.8 -77.2 110.1 -76.3 Q111.85 -67.9 106.75 -55.95 L104.85 -50.7 Q103.55 -47.5 99.8 -42.75 101.7 -46.65 101.55 -50.45 100.35 -54.65 94.85 -52.3 91.65 -47.5 93.25 -35.45 89.9 -39.4 90.05 -47.4 91.05 -53.05 89.05 -57.7 88.6 -49.7 86.1 -44.45 88.3 -57.4 81.35 -64.55 82.05 -55.8 79.75 -51.15 78.0 -58.85 72.6 -64.25 69.7 -58.15 70.55 -51.6 68.55 -52.9 67.25 -55.25 66.2 -56.95 65.65 -59.15 L65.65 -68.9 64.6 -59.15 Q64.05 -62.05 64.15 -65.7 60.7 -61.6 60.85 -52.45 58.8 -56.25 59.65 -66.55 59.65 -67.9 59.95 -68.9 59.95 -70.05 60.25 -71.2 60.85 -73.55 62.15 -75.3 63.6 -77.45 66.05 -78.9 L65.5 -78.9 Q63.6 -77.9 62.15 -76.45 L62.15 -78.9 Q63.75 -79.95 65.75 -80.65 M78.25 -63.5 Q78.55 -66.15 77.55 -70.65 84.95 -67.3 88.15 -60.6 88.0 -67.75 82.95 -73.25 74.05 -78.35 66.2 -78.9 L66.2 -76.45 Q64.9 -75.3 64.05 -73.7 63.3 -72.55 62.85 -71.35 L62.7 -71.2 62.15 -69.6 61.85 -68.9 Q61.7 -68.6 61.7 -68.15 L61.25 -67.15 62.15 -68.0 63.0 -68.9 Q64.6 -70.35 66.2 -71.05 L66.2 -71.8 67.95 -71.35 Q67.5 -67.6 69.25 -64.25 69.4 -68.75 73.05 -69.75 77.1 -68.0 78.25 -63.5" fill="none" stroke="#baba01" stroke-linecap="round" stroke-linejoin="round" stroke-width="0.05"/>
    <path d="M88.0 -62.8 L86.55 -62.8 Q70.55 -62.35 58.8 -69.05 L58.35 -76.0 Q58.05 -82.55 64.3 -87.2 70.55 -92.0 75.5 -92.9 L84.25 -93.6 Q100.1 -78.2 88.0 -62.8" fill="#996633" fill-rule="evenodd" stroke="none"/>
    <path d="M58.8 -69.05 Q70.55 -62.35 86.55 -62.8 L88.0 -62.8 88.6 -62.8 Q97.0 -59.6 92.8 -54.05 L92.65 -53.9 Q74.95 -51.15 61.0 -59.75 52.7 -62.8 58.8 -69.05 M92.8 -54.05 L92.65 -53.9 92.8 -54.05" fill="#7b5128" fill-rule="evenodd" stroke="none"/>
    <path d="M88.0 -62.8 Q100.1 -78.2 84.25 -93.6 94.85 -93.3 103.4 -86.65 112.0 -80.1 110.55 -69.6 100.1 -63.5 88.6 -62.8 L88.0 -62.8" fill="#724a25" fill-rule="evenodd" stroke="none"/>
    <path d="M92.8 -54.05 Q97.0 -59.6 88.6 -62.8 100.1 -63.5 110.55 -69.6 111.55 -69.2 111.85 -65.4 112.15 -61.75 109.95 -60.05 L107.5 -58.3 Q99.8 -55.25 92.8 -54.05" fill="#56391d" fill-rule="evenodd" stroke="none"/>
    <path d="M58.8 -69.05 Q70.55 -62.35 86.55 -62.8 L88.0 -62.8 M84.25 -93.6 L75.5 -92.9 Q70.55 -92.0 64.3 -87.2 58.05 -82.55 58.35 -76.0 L58.8 -69.05 Q52.7 -62.8 61.0 -59.75 74.95 -51.15 92.65 -53.9 L92.8 -54.05 Q97.0 -59.6 88.6 -62.8 L88.0 -62.8 M110.55 -69.6 Q112.0 -80.1 103.4 -86.65 94.85 -93.3 84.25 -93.6 M110.55 -69.6 Q111.55 -69.2 111.85 -65.4 112.15 -61.75 109.95 -60.05 L107.5 -58.3 Q99.8 -55.25 92.8 -54.05 M88.6 -62.8 Q100.1 -63.5 110.55 -69.6" fill="none" stroke="#604020" stroke-linecap="round" stroke-linejoin="round" stroke-width="0.05"/>
    <path d="M92.8 -54.05 L92.65 -53.9" fill="none" stroke="#33ff99" stroke-linecap="round" stroke-linejoin="round" stroke-width="0.05"/>
  </g>
</svg>
