<?xml version="1.0" encoding="UTF-8" standalone="no"?>
<svg xmlns:xlink="http://www.w3.org/1999/xlink" height="166.55px" width="96.4px" xmlns="http://www.w3.org/2000/svg">
  <g transform="matrix(1, 0, 0, 1, -40.4, 117.7)">
    <path d="M111.35 -41.5 L111.3 -41.3 111.2 -41.1 110.6 -39.8 106.85 -37.3 104.45 -35.2 100.7 -32.05 100.3 -28.85 95.75 -28.3 Q81.55 -18.3 73.75 -20.9 81.95 -24.45 87.65 -28.0 97.3 -34.05 99.55 -40.05 L96.05 -52.6 98.75 -53.5 102.0 -40.4 102.15 -39.9 102.5 -38.4 Q103.0 -44.35 104.0 -48.85 L103.95 -48.1 Q104.25 -46.5 106.95 -46.9 L107.55 -47.8 Q108.1 -48.6 108.9 -49.2 111.45 -48.15 112.25 -46.0 L112.0 -44.5 Q111.65 -42.6 110.75 -40.7 L111.35 -41.5 M104.65 -51.45 L104.75 -51.55 104.65 -50.75 Q105.0 -51.7 105.55 -52.3 106.5 -53.15 107.25 -53.2 105.85 -52.5 104.95 -51.0 L104.3 -49.95 104.1 -49.2 104.0 -49.15 104.65 -51.45 M68.25 -41.5 Q69.5 -40.1 71.3 -39.3 67.95 -38.2 68.25 -41.5 M108.45 -42.1 Q107.55 -43.55 106.2 -44.1 L106.35 -44.85 106.95 -46.9 106.35 -44.85 106.2 -44.1 Q107.55 -43.55 108.45 -42.1 M106.05 -40.9 Q105.95 -42.65 106.2 -44.1 105.95 -42.65 106.05 -40.9 M100.7 -32.05 L95.75 -28.3 100.7 -32.05" fill="#ffd0ae" fill-rule="evenodd" stroke="none"/>
    <path d="M110.5 -16.95 Q111.2 -16.85 112.8 -15.9 L114.25 -14.95 118.95 -11.85 116.95 -11.6 115.15 -10.9 Q113.4 -10.05 112.2 -8.45 L111.45 -8.95 108.85 -10.7 109.25 -11.9 110.15 -14.95 110.5 -16.95 M136.8 21.65 L136.8 24.15 Q134.6 23.15 132.35 22.6 L135.2 22.45 135.9 22.1 136.8 21.65 M57.4 14.7 L53.15 30.0 Q50.8 23.2 40.4 24.45 L40.4 24.05 43.75 5.95 43.05 3.3 42.8 1.6 Q43.3 2.8 44.15 3.75 45.05 4.8 46.45 5.55 L46.7 5.7 47.8 6.15 48.45 6.4 52.5 6.1 52.85 6.05 Q53.6 8.2 54.75 10.35 L55.55 11.7 57.4 14.7 M113.95 14.8 L113.7 14.4 Q109.55 6.25 109.95 -1.1 L110.0 -1.55 Q113.3 6.35 116.95 11.65 L119.1 14.55 Q122.0 18.15 125.1 20.15 126.9 21.3 128.8 21.9 L125.65 21.75 121.9 22.0 119.25 22.5 117.85 20.85 119.25 22.5 117.25 23.1 117.85 20.85 Q115.7 18.2 113.95 14.8 M44.75 8.1 L44.25 7.15 44.15 6.95 43.75 5.95 44.15 6.95 44.25 7.15 44.75 8.1" fill="#f2f2f2" fill-rule="evenodd" stroke="none"/>
    <path d="M118.95 -11.85 Q122.45 -11.95 126.5 -9.35 132.7 -5.5 136.8 2.2 L136.8 21.65 135.9 22.1 135.2 22.45 132.35 22.6 129.65 22.05 128.8 21.9 Q126.9 21.3 125.1 20.15 122.0 18.15 119.1 14.55 L116.95 11.65 Q113.3 6.35 110.0 -1.55 L109.95 -1.1 Q109.55 6.25 113.7 14.4 L113.95 14.8 Q115.7 18.2 117.85 20.85 L117.25 23.1 Q107.65 26.25 100.1 37.05 99.6 19.55 103.1 0.45 L103.8 -0.35 104.0 -0.6 105.4 -2.85 107.25 -6.8 108.85 -10.7 111.45 -8.95 112.2 -8.45 Q113.4 -10.05 115.15 -10.9 L116.95 -11.6 118.95 -11.85 M59.5 17.6 L59.5 17.5 57.4 14.7 55.55 11.7 54.75 10.35 Q53.6 8.2 52.85 6.05 L52.5 6.1 48.45 6.4 47.8 6.15 46.7 5.7 46.45 5.55 Q45.05 4.8 44.15 3.75 43.3 2.8 42.8 1.6 42.2 -4.4 44.9 -11.1 47.9 -18.7 53.45 -22.65 56.15 -24.75 58.7 -25.25 L58.9 -25.5 59.2 -25.95 60.55 -26.25 63.45 -26.7 63.85 -26.8 64.3 -26.85 64.15 -26.0 63.2 -18.6 63.25 -18.3 Q62.65 -18.85 62.3 -17.9 L60.05 -8.95 Q59.0 -4.75 59.0 2.35 L59.15 9.35 59.75 17.6 59.5 17.6 M53.15 30.0 Q50.0 43.8 40.4 44.55 L40.4 24.45 Q50.8 23.2 53.15 30.0 M66.25 -49.15 L66.7 -49.1 Q67.65 -49.1 68.35 -50.35 69.05 -51.65 69.15 -53.45 69.2 -55.3 68.65 -56.55 68.0 -57.85 67.1 -57.8 66.15 -57.85 65.45 -56.55 64.75 -55.3 64.7 -53.45 64.6 -51.65 65.2 -50.35 L65.2 -50.3 Q64.3 -51.55 63.7 -53.15 L63.7 -54.0 Q65.3 -61.8 68.9 -57.5 69.3 -55.25 69.2 -52.85 69.2 -50.3 68.65 -47.6 67.3 -48.2 66.25 -49.15 M66.25 -55.75 L66.55 -56.25 Q66.85 -56.65 67.35 -56.65 67.85 -56.65 68.2 -56.25 68.5 -55.85 68.45 -55.25 L68.35 -54.65 68.25 -54.4 68.1 -54.2 Q67.75 -53.8 67.25 -53.8 66.75 -53.8 66.4 -54.2 66.1 -54.65 66.15 -55.25 L66.25 -55.75 M84.3 -48.9 L83.95 -48.45 Q83.5 -48.05 82.85 -48.05 82.2 -48.05 81.8 -48.45 81.35 -48.95 81.35 -49.65 L81.55 -50.25 81.9 -50.7 Q82.35 -51.15 83.0 -51.1 83.6 -51.15 84.0 -50.7 L84.55 -49.65 84.3 -48.9 M82.2 -42.85 L83.2 -43.1 84.4 -44.2 Q85.25 -45.65 85.3 -47.7 85.4 -49.8 84.7 -51.2 83.85 -52.65 82.6 -52.6 81.45 -52.65 80.55 -51.2 79.65 -49.8 79.55 -47.7 79.45 -45.65 80.25 -44.2 80.7 -43.4 81.3 -43.05 L81.4 -42.95 81.15 -43.05 Q79.65 -43.4 78.0 -44.1 78.35 -49.8 80.45 -53.35 87.75 -53.15 88.5 -43.45 L87.5 -43.05 82.2 -42.85 M59.95 24.0 L59.85 23.9 59.95 23.9 60.1 24.1 60.05 24.1 59.95 24.0 M51.2 -7.4 Q50.4 -0.65 52.85 6.05 50.4 -0.65 51.2 -7.4" fill="#ffffff" fill-rule="evenodd" stroke="none"/>
    <path d="M61.95 37.8 L61.85 37.7 61.95 37.7 61.95 37.8" fill="#eebf5a" fill-rule="evenodd" stroke="none"/>
    <path d="M109.0 -32.4 L111.0 -17.3 110.5 -16.95 Q99.75 -9.7 83.25 -7.85 L76.65 -7.35 75.0 -7.8 Q71.75 -8.9 69.35 -10.5 L67.5 -11.95 Q64.5 -14.6 63.25 -18.3 64.5 -14.6 67.5 -11.95 L69.35 -10.5 Q71.75 -8.9 75.0 -7.8 L76.65 -7.35 83.25 -7.85 Q99.75 -9.7 110.5 -16.95 L110.15 -14.95 109.25 -11.9 108.85 -10.7 107.25 -6.8 105.4 -2.85 104.0 -0.6 103.8 -0.35 103.1 0.45 Q99.6 19.55 100.1 37.05 L98.6 39.25 Q95.7 43.8 93.55 48.85 L58.0 48.85 Q56.1 44.85 57.55 39.95 L59.7 31.85 59.7 21.25 59.75 17.9 59.5 17.6 59.75 17.6 59.15 9.35 59.0 2.35 Q59.0 -4.75 60.05 -8.95 L62.3 -17.9 Q62.65 -18.85 63.25 -18.3 L63.2 -18.6 64.15 -26.0 64.3 -26.85 65.1 -32.4 Q65.15 -31.3 67.5 -30.35 71.15 -23.3 73.75 -20.9 81.55 -18.3 95.75 -28.3 L100.3 -28.85 100.9 -28.95 102.7 -29.25 Q109.1 -30.55 109.0 -32.4 M63.6 -70.15 Q62.35 -69.35 61.85 -67.9 59.9 -78.75 63.6 -80.55 64.2 -84.8 66.5 -86.25 67.2 -86.7 68.05 -86.9 L71.75 -87.7 75.25 -87.5 Q101.65 -84.85 108.8 -58.9 L110.0 -53.9 110.1 -53.45 110.1 -53.35 109.35 -53.6 108.8 -53.6 Q108.2 -53.65 107.75 -53.2 L107.25 -53.2 Q106.5 -53.15 105.55 -52.3 L104.75 -51.55 104.65 -51.45 102.1 -54.85 96.8 -59.9 Q89.5 -66.45 77.0 -69.4 L70.8 -70.55 Q65.9 -71.6 63.6 -70.15 M79.95 -77.35 Q74.6 -80.25 68.75 -80.65 L68.7 -80.65 Q66.15 -80.85 63.6 -80.55 66.15 -80.85 68.7 -80.65 L68.75 -80.65 Q74.6 -80.25 79.95 -77.35 M90.3 -70.25 Q99.1 -65.1 105.45 -56.55 L107.55 -53.45 107.6 -53.4 107.75 -53.2 107.6 -53.4 107.55 -53.45 105.45 -56.55 Q99.1 -65.1 90.3 -70.25 M59.75 17.9 L59.75 17.6 59.75 17.9 M59.85 23.9 L59.85 24.0 59.95 24.0 60.05 24.1 60.1 24.1 59.95 23.9 59.85 23.9 M72.3 26.95 L72.2 26.9 72.3 27.0 72.3 26.95 M61.95 37.8 L61.95 37.7 61.85 37.7 61.95 37.8" fill="#96bebe" fill-rule="evenodd" stroke="none"/>
    <path d="M104.45 -35.2 Q109.05 -34.0 109.0 -32.4 109.1 -30.55 102.7 -29.25 L100.9 -28.95 100.3 -28.85 100.7 -32.05 104.45 -35.2 M65.1 -32.4 Q65.15 -33.05 65.9 -33.6 L67.5 -30.35 Q65.15 -31.3 65.1 -32.4" fill="#385858" fill-rule="evenodd" stroke="none"/>
    <path d="M59.85 23.9 L59.95 24.0 59.85 24.0 59.85 23.9" fill="#8bc087" fill-rule="evenodd" stroke="none"/>
    <path d="M72.3 26.95 L72.3 27.0 72.2 26.9 72.3 26.95" fill="#cecece" fill-rule="evenodd" stroke="none"/>
    <path d="M109.4 48.85 L93.55 48.85 Q95.7 43.8 98.6 39.25 L100.1 37.05 Q107.65 26.25 117.25 23.1 L119.25 22.5 121.9 22.0 125.65 21.75 128.8 21.9 129.65 22.05 129.9 22.2 Q134.1 25.25 133.55 29.05 133.25 31.3 131.3 33.8 L130.1 33.75 Q124.55 33.75 119.8 36.9 118.05 38.0 116.45 39.55 112.85 42.85 109.8 48.15 L109.4 48.85" fill="#cccccc" fill-rule="evenodd" stroke="none"/>
    <path d="M136.8 24.15 L136.8 35.0 132.95 34.0 131.3 33.8 Q133.25 31.3 133.55 29.05 134.1 25.25 129.9 22.2 L129.65 22.05 132.35 22.6 Q134.6 23.15 136.8 24.15" fill="#afafaf" fill-rule="evenodd" stroke="none"/>
    <path d="M136.8 35.0 L136.8 48.85 119.8 48.85 109.4 48.85 109.8 48.15 Q112.85 42.85 116.45 39.55 118.05 38.0 119.8 36.9 124.55 33.75 130.1 33.75 L131.3 33.8 132.95 34.0 136.8 35.0 M119.8 48.85 L119.8 36.9 119.8 48.85" fill="#9f8577" fill-rule="evenodd" stroke="none"/>
    <path d="M65.2 -50.3 L65.2 -50.35 Q64.6 -51.65 64.7 -53.45 64.75 -55.3 65.45 -56.55 66.15 -57.85 67.1 -57.8 68.0 -57.85 68.65 -56.55 69.2 -55.3 69.15 -53.45 69.05 -51.65 68.35 -50.35 67.65 -49.1 66.7 -49.1 L66.25 -49.15 Q65.65 -49.45 65.2 -50.3 M68.35 -54.65 L68.45 -55.25 Q68.5 -55.85 68.2 -56.25 67.85 -56.65 67.35 -56.65 66.85 -56.65 66.55 -56.25 L66.25 -55.75 65.95 -55.4 Q65.45 -54.65 65.4 -53.6 65.35 -52.45 65.8 -51.65 66.2 -50.85 66.75 -50.8 67.4 -50.85 67.85 -51.65 68.35 -52.4 68.4 -53.45 L68.35 -54.65 M81.55 -50.25 L81.1 -49.85 Q80.55 -49.0 80.5 -47.8 80.4 -46.5 80.95 -45.55 81.5 -44.7 82.3 -44.75 83.1 -44.7 83.7 -45.55 84.3 -46.45 84.3 -47.7 L84.3 -48.9 84.55 -49.65 84.0 -50.7 Q83.6 -51.15 83.0 -51.1 82.35 -51.15 81.9 -50.7 L81.55 -50.25 M81.4 -42.95 L81.3 -43.05 Q80.7 -43.4 80.25 -44.2 79.45 -45.65 79.55 -47.7 79.65 -49.8 80.55 -51.2 81.45 -52.65 82.6 -52.6 83.85 -52.65 84.7 -51.2 85.4 -49.8 85.3 -47.7 85.25 -45.65 84.4 -44.2 L83.2 -43.1 82.2 -42.85 81.4 -42.95" fill="#0099ff" fill-rule="evenodd" stroke="none"/>
    <path d="M68.35 -54.65 L68.4 -53.45 Q68.35 -52.4 67.85 -51.65 67.4 -50.85 66.75 -50.8 66.2 -50.85 65.8 -51.65 65.35 -52.45 65.4 -53.6 65.45 -54.65 65.95 -55.4 L66.25 -55.75 66.15 -55.25 Q66.1 -54.65 66.4 -54.2 66.75 -53.8 67.25 -53.8 67.75 -53.8 68.1 -54.2 L68.25 -54.4 68.35 -54.65 M84.3 -48.9 L84.3 -47.7 Q84.3 -46.45 83.7 -45.55 83.1 -44.7 82.3 -44.75 81.5 -44.7 80.95 -45.55 80.4 -46.5 80.5 -47.8 80.55 -49.0 81.1 -49.85 L81.55 -50.25 81.35 -49.65 Q81.35 -48.95 81.8 -48.45 82.2 -48.05 82.85 -48.05 83.5 -48.05 83.95 -48.45 L84.3 -48.9" fill="#000000" fill-rule="evenodd" stroke="none"/>
    <path d="M65.9 -33.6 L65.9 -33.65 Q61.15 -43.55 61.65 -52.6 62.1 -61.65 62.3 -62.95 62.6 -66.55 63.5 -69.85 L63.6 -70.15 Q65.9 -71.6 70.8 -70.55 L77.0 -69.4 Q89.5 -66.45 96.8 -59.9 L98.75 -53.5 96.05 -52.6 99.55 -40.05 Q97.3 -34.05 87.65 -28.0 81.95 -24.45 73.75 -20.9 71.15 -23.3 67.5 -30.35 L65.9 -33.6 M107.25 -53.2 L107.75 -53.2 Q108.2 -53.65 108.8 -53.6 L109.35 -53.6 110.1 -53.35 110.1 -53.45 110.75 -53.35 Q112.6 -49.65 112.25 -46.0 111.45 -48.15 108.9 -49.2 108.1 -48.6 107.55 -47.8 L106.95 -46.9 Q104.25 -46.5 103.95 -48.1 L104.0 -48.85 104.0 -49.15 104.1 -49.2 104.3 -49.95 104.95 -51.0 Q105.85 -52.5 107.25 -53.2 M66.25 -49.15 Q67.3 -48.2 68.65 -47.6 69.2 -50.3 69.2 -52.85 69.3 -55.25 68.9 -57.5 65.3 -61.8 63.7 -54.0 L63.6 -53.35 63.7 -53.15 Q64.3 -51.55 65.2 -50.3 65.65 -49.45 66.25 -49.15 M63.4 -64.25 Q67.4 -63.55 70.6 -57.85 69.6 -65.4 63.4 -64.25 M82.2 -42.85 L87.5 -43.05 88.5 -43.45 Q87.75 -53.15 80.45 -53.35 78.35 -49.8 78.0 -44.1 79.65 -43.4 81.15 -43.05 L81.4 -42.95 82.2 -42.85 M68.25 -41.5 Q69.35 -43.05 69.7 -45.45 70.05 -48.45 69.2 -52.85 70.05 -48.45 69.7 -45.45 69.35 -43.05 68.25 -41.5 67.95 -38.2 71.3 -39.3 69.5 -40.1 68.25 -41.5 M80.85 -29.8 Q76.85 -30.6 73.9 -31.85 L73.8 -31.9 Q71.55 -32.9 69.9 -34.2 71.55 -32.9 73.8 -31.9 L73.9 -31.85 Q76.85 -30.6 80.85 -29.8 M78.4 -54.9 Q86.1 -58.45 91.85 -56.55 84.25 -61.8 78.4 -54.9" fill="#ffdfc8" fill-rule="evenodd" stroke="none"/>
    <path d="M63.4 -64.25 Q69.6 -65.4 70.6 -57.85 67.4 -63.55 63.4 -64.25 M78.4 -54.9 Q84.25 -61.8 91.85 -56.55 86.1 -58.45 78.4 -54.9" fill="#503e53" fill-rule="evenodd" stroke="none"/>
    <path d="M83.55 -109.35 Q81.55 -112.9 78.05 -117.7 98.75 -106.85 98.95 -98.25 112.95 -101.1 123.4 -97.6 L117.9 -93.75 Q109.55 -95.15 99.35 -93.1 L98.95 -93.0 98.95 -93.2 Q98.6 -100.45 83.55 -109.35 M117.65 -88.25 Q123.25 -89.0 134.95 -84.55 L129.45 -81.2 Q118.4 -84.6 114.5 -81.95 114.0 -82.35 113.85 -82.85 113.35 -84.75 117.65 -88.25 M126.25 -73.2 Q131.2 -64.35 132.65 -56.85 L130.85 -58.0 Q128.95 -63.25 125.6 -69.05 L124.95 -70.0 Q124.4 -71.25 126.25 -73.2 M61.95 -89.4 Q59.15 -90.55 55.3 -90.85 59.85 -93.9 63.4 -95.4 66.1 -93.9 68.8 -91.4 65.9 -91.35 61.95 -89.4 M66.5 -98.7 Q61.2 -102.7 56.1 -102.7 76.35 -106.4 84.4 -99.65 L85.55 -100.15 Q87.6 -94.95 84.4 -94.35 78.6 -99.25 66.5 -98.7" fill="#4a5371" fill-rule="evenodd" stroke="none"/>
    <path d="M85.55 -100.15 Q87.85 -101.9 83.55 -109.35 98.6 -100.45 98.95 -93.2 L98.95 -93.0 99.35 -93.1 Q109.55 -95.15 117.9 -93.75 112.15 -89.1 114.5 -87.2 115.7 -88.05 117.65 -88.25 113.35 -84.75 113.85 -82.85 114.0 -82.35 114.5 -81.95 118.4 -84.6 129.45 -81.2 124.05 -77.3 124.95 -75.3 125.15 -74.75 125.6 -74.3 L126.25 -73.2 Q124.4 -71.25 124.95 -70.0 L125.6 -69.05 Q128.95 -63.25 130.85 -58.0 128.0 -59.75 124.85 -60.55 125.2 -50.4 120.85 -45.65 121.25 -51.4 118.3 -55.55 116.85 -48.9 112.3 -42.75 L111.35 -41.5 110.75 -40.7 Q111.65 -42.6 112.0 -44.5 L112.25 -46.0 Q112.6 -49.65 110.75 -53.35 L110.1 -53.45 110.0 -53.9 108.8 -58.9 Q101.65 -84.85 75.25 -87.5 L71.75 -87.7 68.05 -86.9 Q67.2 -86.7 66.5 -86.25 64.85 -88.25 61.95 -89.4 65.9 -91.35 68.8 -91.4 66.1 -93.9 63.4 -95.4 66.45 -96.65 68.8 -96.7 L66.5 -98.7 Q78.6 -99.25 84.4 -94.35 87.6 -94.95 85.55 -100.15 M96.8 -59.9 L102.1 -54.85 104.65 -51.45 104.0 -49.15 104.0 -48.85 Q103.0 -44.35 102.5 -38.4 L102.15 -39.9 102.0 -40.4 98.75 -53.5 96.8 -59.9 M104.75 -51.55 L105.55 -52.3 Q105.0 -51.7 104.65 -50.75 L104.75 -51.55" fill="#000033" fill-rule="evenodd" stroke="none"/>
    <path d="M110.5 -16.95 Q111.2 -16.85 112.8 -15.9 L114.25 -14.95 118.95 -11.85 Q122.45 -11.95 126.5 -9.35 132.7 -5.5 136.8 2.2 M59.5 17.5 L57.4 14.7 53.15 30.0 Q50.0 43.8 40.4 44.55 M40.4 24.05 L43.75 5.95 43.05 3.3 42.8 1.6 Q42.2 -4.4 44.9 -11.1 47.9 -18.7 53.45 -22.65 56.15 -24.75 58.7 -25.25 M58.9 -25.5 L59.2 -25.95 M116.95 -11.6 L118.95 -11.85 M113.95 14.8 Q115.7 18.2 117.85 20.85 L119.25 22.5 M57.4 14.7 L55.55 11.7 54.75 10.35 Q53.6 8.2 52.85 6.05 50.4 -0.65 51.2 -7.4 M43.75 5.95 L44.15 6.95 44.25 7.15 44.75 8.1" fill="none" stroke="#a0a0a0" stroke-linecap="round" stroke-linejoin="round" stroke-width="0.05"/>
    <path d="M111.35 -41.5 L111.3 -41.3 111.2 -41.1 110.6 -39.8 106.85 -37.3 104.45 -35.2 M65.9 -33.6 L65.9 -33.65 Q61.15 -43.55 61.65 -52.6 62.1 -61.65 62.3 -62.95 62.6 -66.55 63.5 -69.85 L63.6 -70.15 M66.25 -49.15 Q67.3 -48.2 68.65 -47.6 69.2 -50.3 69.2 -52.85 69.3 -55.25 68.9 -57.5 65.3 -61.8 63.7 -54.0 M63.7 -53.15 Q64.3 -51.55 65.2 -50.3 65.65 -49.45 66.25 -49.15 M63.7 -53.15 L63.6 -53.35 63.7 -54.0 M82.2 -42.85 L87.5 -43.05 88.5 -43.45 Q87.75 -53.15 80.45 -53.35 78.35 -49.8 78.0 -44.1 79.65 -43.4 81.15 -43.05 L81.4 -42.95 82.2 -42.85 M69.2 -52.85 Q70.05 -48.45 69.7 -45.45 69.35 -43.05 68.25 -41.5 M71.3 -39.3 Q67.95 -38.2 68.25 -41.5 M65.9 -33.6 L67.5 -30.35 Q71.15 -23.3 73.75 -20.9 M69.9 -34.2 Q71.55 -32.9 73.8 -31.9 L73.9 -31.85 Q76.85 -30.6 80.85 -29.8 M104.3 -49.95 L104.95 -51.0 Q105.85 -52.5 107.25 -53.2 M108.9 -49.2 Q108.1 -48.6 107.55 -47.8 L106.95 -46.9 106.35 -44.85 106.2 -44.1 Q107.55 -43.55 108.45 -42.1 M106.2 -44.1 Q105.95 -42.65 106.05 -40.9 M95.75 -28.3 Q81.55 -18.3 73.75 -20.9 M95.75 -28.3 L100.7 -32.05 104.45 -35.2" fill="none" stroke="#d7995e" stroke-linecap="round" stroke-linejoin="round" stroke-width="0.05"/>
    <path d="M104.45 -35.2 Q109.05 -34.0 109.0 -32.4 L111.0 -17.3 110.5 -16.95 110.15 -14.95 109.25 -11.9 108.85 -10.7 107.25 -6.8 105.4 -2.85 104.0 -0.6 103.8 -0.35 103.1 0.45 Q99.6 19.55 100.1 37.05 M58.0 48.85 Q56.1 44.85 57.55 39.95 L59.7 31.85 59.7 21.25 59.75 17.9 59.5 17.6 59.5 17.5 M59.2 -25.95 L60.55 -26.25 63.45 -26.7 63.85 -26.8 64.3 -26.85 65.1 -32.4 Q65.15 -33.05 65.9 -33.6 M63.6 -70.15 Q62.35 -69.35 61.85 -67.9 59.9 -78.75 63.6 -80.55 64.2 -84.8 66.5 -86.25 M110.1 -53.45 L110.0 -53.9 108.8 -58.9 Q101.65 -84.85 75.25 -87.5 L71.75 -87.7 68.05 -86.9 Q67.2 -86.7 66.5 -86.25 M63.6 -80.55 Q66.15 -80.85 68.7 -80.65 L68.75 -80.65 Q74.6 -80.25 79.95 -77.35 M63.6 -70.15 Q65.9 -71.6 70.8 -70.55 L77.0 -69.4 Q89.5 -66.45 96.8 -59.9 L102.1 -54.85 104.65 -51.45 104.75 -51.55 105.55 -52.3 Q106.5 -53.15 107.25 -53.2 L107.75 -53.2 107.6 -53.4 107.55 -53.45 105.45 -56.55 Q99.1 -65.1 90.3 -70.25 M67.5 -30.35 Q65.15 -31.3 65.1 -32.4 M64.15 -26.0 L63.2 -18.6 63.25 -18.3 Q64.5 -14.6 67.5 -11.95 L69.35 -10.5 Q71.75 -8.9 75.0 -7.8 L76.65 -7.35 83.25 -7.85 Q99.75 -9.7 110.5 -16.95 M63.25 -18.3 Q62.65 -18.85 62.3 -17.9 L60.05 -8.95 Q59.0 -4.75 59.0 2.35 L59.15 9.35 59.75 17.6 59.75 17.9 M110.1 -53.45 L110.1 -53.35 109.35 -53.6 108.8 -53.6 Q108.2 -53.65 107.75 -53.2 M100.3 -28.85 L100.9 -28.95 102.7 -29.25 Q109.1 -30.55 109.0 -32.4 M100.3 -28.85 L95.75 -28.3 M59.85 23.9 L59.85 24.0 59.95 24.0 60.05 24.1 60.1 24.1 59.95 23.9 59.85 23.9 M72.3 26.95 L72.2 26.9 72.3 27.0 72.3 26.95 M61.95 37.8 L61.85 37.7 61.95 37.7 61.95 37.8" fill="none" stroke="#548584" stroke-linecap="round" stroke-linejoin="round" stroke-width="0.05"/>
    <path d="M119.25 22.5 L121.9 22.0 125.65 21.75 128.8 21.9 129.65 22.05 132.35 22.6 M100.1 37.05 Q107.65 26.25 117.25 23.1 M131.3 33.8 L132.95 34.0 136.8 35.0 M136.8 24.15 Q134.6 23.15 132.35 22.6 M131.3 33.8 L130.1 33.75 Q124.55 33.75 119.8 36.9 118.05 38.0 116.45 39.55 112.85 42.85 109.8 48.15 L109.4 48.85 M119.25 22.5 L117.25 23.1 M93.55 48.85 Q95.7 43.8 98.6 39.25 L100.1 37.05" fill="none" stroke="#666666" stroke-linecap="round" stroke-linejoin="round" stroke-width="0.05"/>
    <path d="M119.8 36.9 L119.8 48.85" fill="none" stroke="#604b44" stroke-linecap="round" stroke-linejoin="round" stroke-width="0.05"/>
    <path d="M63.4 -64.25 Q69.6 -65.4 70.6 -57.85 67.4 -63.55 63.4 -64.25 M78.4 -54.9 Q86.1 -58.45 91.85 -56.55 84.25 -61.8 78.4 -54.9" fill="none" stroke="#5b4961" stroke-linecap="round" stroke-linejoin="round" stroke-width="0.05"/>
    <path d="M98.75 -53.5 L96.8 -59.9 M104.0 -48.85 Q103.0 -44.35 102.5 -38.4 L102.15 -39.9 102.0 -40.4 98.75 -53.5 M104.0 -48.85 L104.0 -49.15 104.65 -51.45" fill="none" stroke="#7b5046" stroke-linecap="round" stroke-linejoin="round" stroke-width="0.05"/>
    <path d="M85.55 -100.15 Q87.85 -101.9 83.55 -109.35 81.55 -112.9 78.05 -117.7 98.75 -106.85 98.95 -98.25 112.95 -101.1 123.4 -97.6 L117.9 -93.75 Q112.15 -89.1 114.5 -87.2 115.7 -88.05 117.65 -88.25 123.25 -89.0 134.95 -84.55 L129.45 -81.2 Q124.05 -77.3 124.95 -75.3 125.15 -74.75 125.6 -74.3 L126.25 -73.2 Q131.2 -64.35 132.65 -56.85 L130.85 -58.0 Q128.0 -59.75 124.85 -60.55 125.2 -50.4 120.85 -45.65 121.25 -51.4 118.3 -55.55 116.85 -48.9 112.3 -42.75 L111.35 -41.5 110.75 -40.7 Q111.65 -42.6 112.0 -44.5 L112.25 -46.0 Q112.6 -49.65 110.75 -53.35 L110.1 -53.45 M66.5 -86.25 Q64.85 -88.25 61.95 -89.4 59.15 -90.55 55.3 -90.85 59.85 -93.9 63.4 -95.4 66.45 -96.65 68.8 -96.7 L66.5 -98.7 Q61.2 -102.7 56.1 -102.7 76.35 -106.4 84.4 -99.65 L85.55 -100.15 M105.55 -52.3 Q105.0 -51.7 104.65 -50.75 L104.75 -51.55" fill="none" stroke="#584338" stroke-linecap="round" stroke-linejoin="round" stroke-width="0.05"/>
  </g>
</svg>
