<?xml version="1.0" encoding="UTF-8" standalone="no"?>
<svg xmlns:xlink="http://www.w3.org/1999/xlink" height="42.4px" width="93.75px" xmlns="http://www.w3.org/2000/svg">
  <g transform="matrix(1, 0, 0, 1, -42.4, -8.7)">
    <path d="M136.15 49.95 L130.4 49.05 128.2 48.5 Q128.5 45.75 128.45 42.45 L128.4 41.95 Q127.85 37.15 128.75 32.05 129.65 23.35 136.05 25.2 L136.15 25.35 136.15 49.95 M95.35 40.4 Q93.4 46.9 90.55 51.1 L87.0 51.1 87.15 40.2 94.2 40.4 95.35 40.4 M42.4 8.85 Q47.95 7.75 48.4 14.75 L48.3 23.25 48.2 23.8 Q47.9 26.65 48.15 29.05 L45.9 29.6 42.4 30.35 42.4 8.85 M56.5 44.6 L56.2 43.7 Q55.4 38.75 56.15 33.1 58.15 36.3 66.3 38.3 L66.3 51.1 59.55 51.1 Q57.7 48.35 56.5 44.6" fill="#858898" fill-rule="evenodd" stroke="none"/>
    <path d="M128.2 48.5 L130.4 49.05 136.15 49.95 136.15 51.1 127.75 51.1 128.2 48.5 M48.15 29.05 Q48.35 32.05 49.35 34.1 46.5 35.85 42.65 37.3 L42.6 37.3 42.4 37.35 42.4 30.35 45.9 29.6 48.15 29.05" fill="#ded1cb" fill-rule="evenodd" stroke="none"/>
    <path d="M95.35 40.4 Q104.1 40.6 109.7 36.75 111.95 45.4 111.75 51.1 L90.55 51.1 Q93.4 46.9 95.35 40.4 M56.3 44.7 L56.5 44.6 Q57.7 48.35 59.55 51.1 L58.4 51.1 Q56.95 48.1 56.3 44.7" fill="#636876" fill-rule="evenodd" stroke="none"/>
    <path d="M66.3 38.3 L66.3 37.95 87.15 39.85 87.15 40.2 87.0 51.1 66.3 51.1 66.3 38.3" fill="#c49b59" fill-rule="evenodd" stroke="none"/>
    <path d="M42.65 37.3 L42.4 37.85 42.4 37.35 42.6 37.3 42.65 37.3" fill="#ffdfc8" fill-rule="evenodd" stroke="none"/>
    <path d="M56.5 44.6 L56.3 44.7 56.3 44.6 56.2 43.7 56.5 44.6" fill="#a8866f" fill-rule="evenodd" stroke="none"/>
    <path d="M128.2 48.5 L127.75 51.1 M136.15 25.35 L136.05 25.2 Q129.65 23.35 128.75 32.05 127.85 37.15 128.4 41.95 L128.45 42.45 Q128.5 45.75 128.2 48.5 M111.75 51.1 Q111.95 45.4 109.7 36.75 104.1 40.6 95.35 40.4 M87.15 40.2 L94.2 40.4 95.35 40.4 M66.3 38.3 L66.3 37.95 87.15 39.85 87.15 40.2 87.0 51.1 M42.4 8.85 Q47.95 7.75 48.4 14.75 L48.3 23.25 48.2 23.8 Q47.9 26.65 48.15 29.05 48.35 32.05 49.35 34.1 46.5 35.85 42.65 37.3 L42.6 37.3 42.4 37.35 M56.2 43.7 L56.3 44.6 M56.2 43.7 Q55.4 38.75 56.15 33.1 58.15 36.3 66.3 38.3 L66.3 51.1" fill="none" stroke="#50545f" stroke-linecap="round" stroke-linejoin="round" stroke-width="0.05"/>
    <path d="M42.65 37.3 L42.4 37.85" fill="none" stroke="#50545f" stroke-linecap="round" stroke-linejoin="round" stroke-width="0.05"/>
  </g>
</svg>
