<?xml version="1.0" encoding="UTF-8" standalone="no"?>
<svg xmlns:xlink="http://www.w3.org/1999/xlink" height="157.1px" width="96.2px" xmlns="http://www.w3.org/2000/svg">
  <g transform="matrix(1, 0, 0, 1, -40.75, 106.7)">
    <path d="M64.4 -52.8 L66.65 -54.7 66.95 -54.95 66.95 -55.35 Q67.25 -60.1 68.75 -64.65 L69.6 -66.9 Q70.85 -69.85 72.6 -72.7 74.25 -75.55 76.5 -78.3 82.7 -85.85 89.45 -90.8 96.7 -96.25 101.5 -99.3 105.35 -101.75 108.8 -103.4 114.9 -106.35 119.65 -106.65 123.4 -106.95 126.35 -105.65 133.5 -102.45 130.1 -87.9 L129.8 -86.6 128.1 -81.0 124.3 -70.75 Q114.05 -92.2 99.85 -92.0 106.0 -97.45 113.4 -102.55 122.5 -99.6 129.8 -86.6 122.5 -99.6 113.4 -102.55 106.0 -97.45 99.85 -92.0 114.05 -92.2 124.3 -70.75 121.45 -63.75 118.3 -58.15 116.25 -54.55 114.1 -51.5 L112.5 -49.35 Q108.5 -44.5 104.0 -41.15 L101.7 -39.45 Q101.0 -37.1 99.9 -35.05 98.25 -32.1 95.75 -29.75 90.45 -39.45 83.05 -43.2 79.75 -44.85 76.1 -45.35 79.75 -44.85 83.05 -43.2 90.45 -39.45 95.75 -29.75 L95.85 -29.75 95.75 -29.65 Q91.9 -26.45 86.35 -24.45 L85.2 -27.25 Q83.3 -30.95 80.05 -31.85 L79.8 -31.9 Q76.45 -32.65 73.45 -29.85 L72.35 -28.85 Q71.15 -27.4 70.45 -25.45 69.95 -24.25 69.75 -22.75 L69.75 -22.55 69.6 -21.45 69.6 -19.4 Q69.75 -16.75 70.95 -14.35 73.1 -10.55 76.55 -9.9 L79.0 -9.8 Q76.1 -8.65 73.05 -8.75 L73.05 -8.95 Q72.95 -10.5 70.4 -11.95 68.0 -13.35 64.5 -14.0 L58.35 -14.25 Q57.55 -14.15 55.9 -13.15 L54.25 -7.45 Q53.15 -9.65 52.5 -11.9 L55.2 -13.95 54.75 -14.75 Q56.1 -14.7 57.35 -16.15 58.2 -17.15 58.75 -18.65 L59.45 -21.65 Q59.85 -25.1 58.7 -28.25 57.65 -31.65 55.75 -32.65 L54.8 -32.95 Q55.05 -36.05 55.85 -38.9 56.7 -42.05 58.15 -44.8 59.7 -47.75 61.95 -50.3 L63.5 -51.95 63.7 -51.8 62.6 -50.3 61.7 -48.8 Q60.95 -47.5 60.55 -45.9 L60.55 -45.8 Q59.8 -42.7 60.55 -40.4 L60.75 -40.05 60.85 -40.5 62.35 -48.5 Q62.9 -50.8 64.65 -52.45 66.35 -54.0 68.3 -53.95 70.15 -54.0 71.0 -52.45 71.95 -50.8 71.4 -48.5 L70.95 -47.2 68.9 -36.75 69.65 -37.15 Q71.05 -37.8 72.35 -39.1 L73.55 -40.3 74.45 -41.5 Q75.55 -43.25 76.1 -45.35 L76.2 -45.8 Q77.25 -49.8 75.7 -52.65 74.15 -55.3 70.85 -55.25 L69.65 -55.15 Q68.1 -54.95 66.6 -54.1 L64.6 -52.65 64.4 -52.8 M115.0 -18.5 L117.7 -19.05 Q120.2 -19.65 123.45 -22.05 130.4 -13.3 123.4 -7.35 131.85 -4.3 136.95 1.6 L136.95 28.8 136.95 35.25 Q131.1 38.05 120.7 37.65 L119.55 37.2 Q115.4 35.8 111.95 35.35 105.25 36.25 102.2 40.65 96.0 39.55 94.25 36.65 L94.3 36.55 94.3 36.45 92.75 31.25 92.05 30.8 92.0 30.7 Q88.15 28.05 85.3 25.15 83.8 22.5 83.65 17.5 83.55 15.45 83.75 13.0 84.2 5.4 86.8 -5.95 L86.85 -6.15 86.75 -6.15 86.75 -6.25 86.85 -6.45 87.5 -7.4 88.8 -9.15 88.7 -11.0 91.1 -12.5 Q91.95 -12.0 93.45 -11.5 97.9 -10.1 104.45 -10.5 L108.8 -11.25 Q111.7 -12.15 112.95 -14.15 114.85 -17.4 115.0 -18.5 M51.3 40.25 L50.4 41.3 Q45.65 46.45 40.75 47.15 L40.75 29.15 Q46.05 27.1 49.2 28.4 L42.95 32.05 Q44.8 38.5 51.3 40.25 M119.65 -106.65 L113.4 -102.55 108.8 -103.4 113.4 -102.55 119.65 -106.65 M66.95 -55.35 L69.6 -56.25 74.1 -56.75 Q92.8 -60.7 101.7 -39.45 92.8 -60.7 74.1 -56.75 L69.6 -56.25 66.95 -55.35 M74.1 -56.75 Q75.65 -60.8 77.75 -64.65 80.25 -69.5 83.55 -74.1 96.35 -74.8 105.55 -64.65 110.3 -59.5 114.1 -51.5 110.3 -59.5 105.55 -64.65 96.35 -74.8 83.55 -74.1 80.25 -69.5 77.75 -64.65 75.65 -60.8 74.1 -56.75 M60.55 -45.9 Q59.25 -45.65 58.15 -44.8 59.25 -45.65 60.55 -45.9 M57.1 -2.8 Q61.75 -3.25 65.05 -0.65 65.25 0.55 62.7 1.8 65.65 2.25 67.7 1.9 70.15 1.6 70.2 0.5 L72.4 -6.8 Q76.05 -6.75 80.0 -7.7 78.5 -3.8 78.2 4.3 78.0 8.75 78.65 12.5 L77.05 12.15 Q73.9 11.4 71.25 10.0 68.8 8.7 66.8 7.1 L62.85 3.65 59.8 0.35 57.1 -2.8 M55.2 -13.95 L55.9 -13.15 55.2 -13.95 M99.85 -92.0 L94.85 -92.3 Q92.9 -92.3 89.45 -90.8 92.9 -92.3 94.85 -92.3 L99.85 -92.0 Q90.15 -83.45 83.55 -74.1 L81.05 -74.1 Q77.35 -74.2 72.6 -72.7 77.35 -74.2 81.05 -74.1 L83.55 -74.1 Q90.15 -83.45 99.85 -92.0 M136.95 28.8 Q130.5 32.35 123.15 32.0 117.05 29.8 107.85 30.1 104.3 29.95 98.8 32.85 94.55 32.15 92.75 31.25 94.55 32.15 98.8 32.85 104.3 29.95 107.85 30.1 117.05 29.8 123.15 32.0 130.5 32.35 136.95 28.8" fill="#5a7e5f" fill-rule="evenodd" stroke="none"/>
    <path d="M101.45 -33.1 Q108.1 -25.1 115.0 -18.5 114.85 -17.4 112.95 -14.15 111.7 -12.15 108.8 -11.25 L104.45 -10.5 Q97.9 -10.1 93.45 -11.5 91.95 -12.0 91.1 -12.5 97.8 -17.3 97.85 -25.1 L101.4 -33.1 101.45 -33.1 M136.95 48.35 L136.95 50.4 116.65 50.4 103.05 50.4 102.4 48.85 102.4 48.8 100.6 45.3 Q100.95 42.55 102.2 40.65 105.25 36.25 111.95 35.35 115.4 35.8 119.55 37.2 L120.7 37.65 Q126.85 40.25 132.2 45.35 L134.3 47.05 Q135.6 47.9 136.95 48.35 M73.1 18.1 Q59.5 24.9 52.6 37.75 52.2 39.0 51.4 40.15 L51.35 40.25 51.3 40.25 Q44.8 38.5 42.95 32.05 L49.2 28.4 Q58.25 21.8 62.25 10.75 L62.8 11.2 67.2 14.5 72.1 17.65 73.1 18.1 M111.95 35.35 L116.65 50.4 111.95 35.35" fill="#3d543f" fill-rule="evenodd" stroke="none"/>
    <path d="M129.95 -86.5 Q126.85 -64.65 118.3 -47.6 112.55 -36.1 101.45 -33.1 L101.4 -33.1 97.85 -25.1 Q97.8 -17.3 91.1 -12.5 L88.7 -11.0 Q85.85 -9.45 82.15 -8.3 L80.0 -7.7 82.15 -8.3 Q85.85 -9.45 88.7 -11.0 L88.8 -9.15 87.5 -7.4 86.85 -6.45 86.75 -6.25 86.75 -6.15 86.8 -5.95 Q84.2 5.4 83.75 13.0 83.55 15.45 83.65 17.5 83.8 22.5 85.3 25.15 82.15 22.5 80.4 18.55 L77.15 19.0 Q75.05 18.95 73.1 18.1 L72.1 17.65 67.2 14.5 62.8 11.2 62.25 10.75 59.4 7.85 Q57.0 5.45 55.4 2.7 53.8 -0.05 52.6 -3.0 51.8 -7.1 52.5 -11.9 53.15 -9.65 54.25 -7.45 L55.9 -13.15 Q57.55 -14.15 58.35 -14.25 L64.5 -14.0 Q68.0 -13.35 70.4 -11.95 72.95 -10.5 73.05 -8.95 L73.05 -8.75 72.85 -8.2 72.4 -6.8 72.85 -8.2 73.05 -8.75 Q76.1 -8.65 79.0 -9.8 81.0 -10.15 82.85 -11.8 L83.0 -11.95 84.65 -13.9 85.6 -15.4 85.7 -15.6 86.45 -18.15 86.6 -19.1 86.7 -19.95 86.75 -22.35 86.35 -24.45 Q91.9 -26.45 95.75 -29.65 L95.85 -29.75 97.85 -25.1 95.85 -29.75 95.75 -29.75 Q98.25 -32.1 99.9 -35.05 101.0 -37.1 101.7 -39.45 L104.0 -41.15 Q108.5 -44.5 112.5 -49.35 L114.1 -51.5 Q116.25 -54.55 118.3 -58.15 121.45 -63.75 124.3 -70.75 L128.1 -81.0 129.8 -86.6 129.95 -86.5 M123.45 -22.05 Q127.3 -25.7 131.2 -20.0 135.05 -14.35 135.85 -14.05 L135.95 -14.1 136.95 -14.1 136.95 1.6 Q131.85 -4.3 123.4 -7.35 130.4 -13.3 123.45 -22.05 M136.95 35.25 L136.95 48.35 Q135.6 47.9 134.3 47.05 L132.2 45.35 Q126.85 40.25 120.7 37.65 131.1 38.05 136.95 35.25 M102.4 48.85 L100.35 49.25 Q96.05 42.55 94.25 36.65 96.0 39.55 102.2 40.65 100.95 42.55 100.6 45.3 L102.4 48.8 102.4 48.85 M60.55 -40.4 L60.85 -40.5 60.75 -40.05 60.55 -40.4 M57.1 -2.8 L56.15 -2.7 Q55.4 -1.8 56.15 -0.15 L55.5 -0.55 Q52.95 -1.85 53.0 -3.15 L54.25 -7.45 53.0 -3.15 Q52.95 -1.85 55.5 -0.55 L56.15 -0.15 Q55.4 -1.8 56.15 -2.7 L57.1 -2.8 59.8 0.35 62.85 3.65 66.8 7.1 Q68.8 8.7 71.25 10.0 73.9 11.4 77.05 12.15 L78.65 12.5 Q79.2 15.85 80.4 18.55 79.2 15.85 78.65 12.5 78.0 8.75 78.2 4.3 78.5 -3.8 80.0 -7.7 76.05 -6.75 72.4 -6.8 L70.2 0.5 Q70.15 1.6 67.7 1.9 65.65 2.25 62.7 1.8 65.25 0.55 65.05 -0.65 61.75 -3.25 57.1 -2.8" fill="#537557" fill-rule="evenodd" stroke="none"/>
    <path d="M64.65 -52.45 L64.5 -52.55 64.6 -52.65 64.65 -52.45 M86.75 -6.15 L86.85 -6.15 86.8 -5.95 86.75 -6.15" fill="#ffd0ae" fill-rule="evenodd" stroke="none"/>
    <path d="M94.2 36.55 L94.2 36.5 94.3 36.55 94.2 36.55" fill="#ffdfc8" fill-rule="evenodd" stroke="none"/>
    <path d="M94.25 36.65 L94.2 36.55 94.3 36.55 94.25 36.65 M63.5 -51.95 L64.4 -52.8 64.6 -52.65 64.5 -52.55 63.7 -51.8 63.5 -51.95 M69.85 -22.65 L69.75 -22.55 69.75 -22.75 69.85 -22.65" fill="#618f5c" fill-rule="evenodd" stroke="none"/>
    <path d="M64.6 -52.65 L66.6 -54.1 Q68.1 -54.95 69.65 -55.15 L70.85 -55.25 Q74.15 -55.3 75.7 -52.65 77.25 -49.8 76.2 -45.8 L76.1 -45.35 Q75.55 -43.25 74.45 -41.5 L73.55 -40.3 72.35 -39.1 Q71.05 -37.8 69.65 -37.15 L68.9 -36.75 70.95 -47.2 71.4 -48.5 Q71.95 -50.8 71.0 -52.45 70.15 -54.0 68.3 -53.95 66.35 -54.0 64.65 -52.45 62.9 -50.8 62.35 -48.5 L60.85 -40.5 60.55 -40.4 Q59.8 -42.7 60.55 -45.8 L60.55 -45.9 Q60.95 -47.5 61.7 -48.8 L62.6 -50.3 63.7 -51.8 64.5 -52.55 64.65 -52.45 64.6 -52.65" fill="#4e6d4f" fill-rule="evenodd" stroke="none"/>
    <path d="M54.75 -14.75 L53.75 -15.0 Q51.8 -15.9 50.65 -19.2 50.05 -21.25 50.0 -23.4 L50.1 -26.0 50.2 -26.0 50.1 -26.1 50.5 -28.25 Q50.95 -29.75 51.65 -30.8 L52.25 -31.55 Q53.5 -33.05 54.8 -32.95 L55.75 -32.65 Q57.65 -31.65 58.7 -28.25 59.85 -25.1 59.45 -21.65 L58.75 -18.65 Q58.2 -17.15 57.35 -16.15 56.1 -14.7 54.75 -14.75 M69.85 -22.65 L69.8 -21.45 Q69.75 -19.55 70.65 -17.9 71.85 -15.7 73.8 -15.3 75.85 -14.8 77.6 -16.3 79.3 -17.95 79.65 -20.4 L79.65 -20.5 79.7 -21.25 79.7 -22.35 Q79.6 -23.9 78.85 -25.3 77.65 -27.5 75.6 -27.9 73.75 -28.35 72.1 -26.75 70.3 -25.2 69.85 -22.65 L69.75 -22.75 Q69.95 -24.25 70.45 -25.45 71.15 -27.4 72.35 -28.85 L73.45 -29.85 Q76.45 -32.65 79.8 -31.9 L80.05 -31.85 Q83.3 -30.95 85.2 -27.25 L86.35 -24.45 86.75 -22.35 86.7 -19.95 86.6 -19.1 86.45 -18.15 85.7 -15.6 85.6 -15.4 84.65 -13.9 83.0 -11.95 82.85 -11.8 Q81.0 -10.15 79.0 -9.8 L76.55 -9.9 Q73.1 -10.55 70.95 -14.35 69.75 -16.75 69.6 -19.4 L69.6 -21.45 69.75 -22.55 69.85 -22.65 M50.2 -26.0 Q49.95 -23.95 50.6 -22.1 51.2 -20.2 52.25 -19.7 53.05 -19.3 53.75 -19.7 L54.35 -20.15 Q55.35 -21.3 55.6 -23.3 L55.6 -23.4 55.65 -23.95 Q55.75 -25.7 55.2 -27.35 L55.15 -27.6 Q54.45 -29.25 53.35 -29.75 52.35 -30.3 51.45 -29.1 50.45 -28.05 50.2 -26.0" fill="#993333" fill-rule="evenodd" stroke="none"/>
    <path d="M69.85 -22.65 Q70.3 -25.2 72.1 -26.75 73.75 -28.35 75.6 -27.9 77.65 -27.5 78.85 -25.3 79.6 -23.9 79.7 -22.35 L79.7 -21.25 79.65 -20.5 79.65 -20.4 Q79.3 -17.95 77.6 -16.3 75.85 -14.8 73.8 -15.3 71.85 -15.7 70.65 -17.9 69.75 -19.55 69.8 -21.45 L69.85 -22.65 M50.2 -26.0 Q50.45 -28.05 51.45 -29.1 52.35 -30.3 53.35 -29.75 54.45 -29.25 55.15 -27.6 L55.2 -27.35 Q55.75 -25.7 55.65 -23.95 L55.6 -23.4 55.6 -23.3 Q55.35 -21.3 54.35 -20.15 L53.75 -19.7 Q53.05 -19.3 52.25 -19.7 51.2 -20.2 50.6 -22.1 49.95 -23.95 50.2 -26.0" fill="#ff0000" fill-rule="evenodd" stroke="none"/>
    <path d="M101.45 -33.1 Q108.1 -25.1 115.0 -18.5 L117.7 -19.05 Q120.2 -19.65 123.45 -22.05 127.3 -25.7 131.2 -20.0 135.05 -14.35 135.85 -14.05 L135.95 -14.1 136.95 -14.1 M103.05 50.4 L102.4 48.85 100.35 49.25 Q96.05 42.55 94.25 36.65 M94.2 36.55 L94.2 36.5 M94.3 36.55 L94.3 36.45 92.75 31.25 92.05 30.8 92.0 30.7 Q88.15 28.05 85.3 25.15 82.15 22.5 80.4 18.55 L77.15 19.0 Q75.05 18.95 73.1 18.1 59.5 24.9 52.6 37.75 52.2 39.0 51.4 40.15 L51.35 40.25 M51.3 40.25 L50.4 41.3 Q45.65 46.45 40.75 47.15 M40.75 29.15 Q46.05 27.1 49.2 28.4 58.25 21.8 62.25 10.75 L59.4 7.85 Q57.0 5.45 55.4 2.7 53.8 -0.05 52.6 -3.0 51.8 -7.1 52.5 -11.9 L55.2 -13.95 M120.7 37.65 Q126.85 40.25 132.2 45.35 L134.3 47.05 Q135.6 47.9 136.95 48.35 M92.75 31.25 Q94.55 32.15 98.8 32.85 104.3 29.95 107.85 30.1 117.05 29.8 123.15 32.0 130.5 32.35 136.95 28.8 M102.2 40.65 Q105.25 36.25 111.95 35.35 115.4 35.8 119.55 37.2 L120.7 37.65 M102.4 48.85 L102.4 48.8 100.6 45.3 Q100.95 42.55 102.2 40.65 M116.65 50.4 L111.95 35.35 M62.25 10.75 L62.8 11.2 67.2 14.5 72.1 17.65 73.1 18.1 M80.4 18.55 Q79.2 15.85 78.65 12.5 78.0 8.75 78.2 4.3 78.5 -3.8 80.0 -7.7 M42.95 32.05 L49.2 28.4" fill="none" stroke="#374e32" stroke-linecap="round" stroke-linejoin="round" stroke-width="0.05"/>
    <path d="M64.4 -52.8 L66.65 -54.7 66.95 -54.95 66.95 -55.35 Q67.25 -60.1 68.75 -64.65 L69.6 -66.9 Q70.85 -69.85 72.6 -72.7 74.25 -75.55 76.5 -78.3 82.7 -85.85 89.45 -90.8 96.7 -96.25 101.5 -99.3 105.35 -101.75 108.8 -103.4 114.9 -106.35 119.65 -106.65 123.4 -106.95 126.35 -105.65 133.5 -102.45 130.1 -87.9 L129.95 -86.5 Q126.85 -64.65 118.3 -47.6 112.55 -36.1 101.45 -33.1 L101.4 -33.1 97.85 -25.1 95.85 -29.75 M55.2 -13.95 L54.75 -14.75 M54.8 -32.95 Q55.05 -36.05 55.85 -38.9 56.7 -42.05 58.15 -44.8 59.7 -47.75 61.95 -50.3 L63.5 -51.95 64.4 -52.8 M64.6 -52.65 L66.6 -54.1 Q68.1 -54.95 69.65 -55.15 L70.85 -55.25 Q74.15 -55.3 75.7 -52.65 77.25 -49.8 76.2 -45.8 L76.1 -45.35 Q79.75 -44.85 83.05 -43.2 90.45 -39.45 95.75 -29.75 M101.7 -39.45 Q92.8 -60.7 74.1 -56.75 L69.6 -56.25 66.95 -55.35 M108.8 -103.4 L113.4 -102.55 119.65 -106.65 M64.5 -52.55 L63.7 -51.8 62.6 -50.3 61.7 -48.8 Q60.95 -47.5 60.55 -45.9 L60.55 -45.8 Q59.8 -42.7 60.55 -40.4 M64.5 -52.55 L64.6 -52.65 M68.9 -36.75 L69.65 -37.15 Q71.05 -37.8 72.35 -39.1 L73.55 -40.3 74.45 -41.5 Q75.55 -43.25 76.1 -45.35 M114.1 -51.5 Q110.3 -59.5 105.55 -64.65 96.35 -74.8 83.55 -74.1 80.25 -69.5 77.75 -64.65 75.65 -60.8 74.1 -56.75 M60.75 -40.05 L60.55 -40.4 M58.15 -44.8 Q59.25 -45.65 60.55 -45.9 M73.05 -8.75 L73.05 -8.95 Q72.95 -10.5 70.4 -11.95 68.0 -13.35 64.5 -14.0 L58.35 -14.25 Q57.55 -14.15 55.9 -13.15 L54.25 -7.45 53.0 -3.15 Q52.95 -1.85 55.5 -0.55 L56.15 -0.15 Q55.4 -1.8 56.15 -2.7 L57.1 -2.8 Q61.75 -3.25 65.05 -0.65 65.25 0.55 62.7 1.8 65.65 2.25 67.7 1.9 70.15 1.6 70.2 0.5 L72.4 -6.8 72.85 -8.2 73.05 -8.75 M55.9 -13.15 L55.2 -13.95 M72.4 -6.8 Q76.05 -6.75 80.0 -7.7 L82.15 -8.3 Q85.85 -9.45 88.7 -11.0 L91.1 -12.5 Q97.8 -17.3 97.85 -25.1 M130.1 -87.9 L129.8 -86.6 Q122.5 -99.6 113.4 -102.55 106.0 -97.45 99.85 -92.0 114.05 -92.2 124.3 -70.75 121.45 -63.75 118.3 -58.15 116.25 -54.55 114.1 -51.5 L112.5 -49.35 Q108.5 -44.5 104.0 -41.15 L101.7 -39.45 M124.3 -70.75 L128.1 -81.0 129.8 -86.6 M99.85 -92.0 Q90.15 -83.45 83.55 -74.1 L81.05 -74.1 Q77.35 -74.2 72.6 -72.7 M89.45 -90.8 Q92.9 -92.3 94.85 -92.3 L99.85 -92.0" fill="none" stroke="#374e32" stroke-linecap="round" stroke-linejoin="round" stroke-width="0.05"/>
  </g>
</svg>
