<?xml version="1.0" encoding="UTF-8" standalone="no"?>
<svg xmlns:xlink="http://www.w3.org/1999/xlink" height="170.85px" width="94.5px" xmlns="http://www.w3.org/2000/svg">
  <g transform="matrix(1, 0, 0, 1, -42.2, 123.9)">
    <path d="M99.65 -47.45 Q99.35 -45.1 98.2 -42.75 L98.65 -43.35 Q100.85 -46.05 102.35 -48.85 L103.6 -47.15 103.45 -46.6 Q101.1 -44.7 97.55 -38.65 L96.75 -37.45 Q93.0 -34.7 89.85 -33.45 85.3 -28.15 80.8 -25.15 77.05 -22.7 73.35 -21.85 L67.65 -21.55 Q69.55 -22.25 72.65 -23.9 L72.8 -24.0 Q75.25 -25.35 77.5 -27.3 L79.0 -27.3 79.8 -29.55 79.8 -29.65 81.75 -31.95 82.8 -32.25 83.0 -33.65 85.9 -38.35 85.1 -36.45 Q85.85 -37.75 89.85 -38.45 90.75 -45.35 91.75 -49.95 L91.75 -49.75 Q92.05 -48.2 94.6 -48.55 L95.1 -49.45 96.4 -50.75 Q98.95 -49.7 99.65 -47.45 M92.45 -52.9 L92.55 -53.0 92.45 -52.2 Q92.8 -53.1 93.3 -53.7 94.15 -54.45 94.85 -54.5 93.5 -53.85 92.65 -52.45 L92.1 -51.45 92.45 -52.9 M87.2 -43.7 L84.3 -53.95 86.75 -54.75 Q87.85 -48.9 87.2 -43.7 M58.2 -43.55 Q59.3 -42.25 60.95 -41.45 57.95 -40.45 58.2 -43.55 M98.65 -43.35 L98.55 -43.15 98.0 -41.95 94.5 -39.55 89.85 -33.45 94.5 -39.55 98.0 -41.95 98.55 -43.15 98.65 -43.35 M115.1 -10.05 L116.05 -9.45 118.1 -9.5 120.9 -9.6 125.35 -9.7 120.05 -2.75 119.9 -2.75 116.5 -1.8 116.15 -1.75 112.7 -1.05 100.9 -0.75 112.85 -11.25 113.05 -11.45 115.1 -10.05 M96.0 -44.05 Q95.15 -45.45 93.9 -45.95 L94.0 -46.65 94.6 -48.55 94.0 -46.65 93.9 -45.95 Q95.15 -45.45 96.0 -44.05 M93.75 -42.95 Q93.65 -44.6 93.9 -45.95 93.65 -44.6 93.75 -42.95 M116.05 -9.45 L116.5 -1.8 116.05 -9.45" fill="#ffd0ae" fill-rule="evenodd" stroke="none"/>
    <path d="M97.6 -54.75 L98.2 -54.65 Q100.0 -51.05 99.65 -47.45 98.95 -49.7 96.4 -50.75 L95.1 -49.45 94.6 -48.55 Q92.05 -48.2 91.75 -49.75 L91.75 -49.95 92.1 -51.35 92.1 -51.45 92.65 -52.45 Q93.5 -53.85 94.85 -54.5 L95.4 -54.5 Q95.85 -54.9 96.4 -54.85 L96.9 -54.85 97.6 -54.65 97.6 -54.75 M61.65 -25.3 Q58.95 -28.7 56.2 -34.15 53.2 -44.25 52.85 -53.35 52.45 -62.45 52.6 -63.65 52.85 -67.1 53.7 -70.2 L53.75 -70.35 Q55.95 -71.8 60.65 -70.8 60.15 -66.15 61.7 -62.6 63.0 -67.2 66.5 -69.75 78.25 -66.95 85.1 -60.8 L85.7 -58.95 86.75 -54.75 84.3 -53.95 87.2 -43.7 Q86.8 -40.95 85.9 -38.35 L83.0 -33.65 83.25 -35.3 80.25 -34.65 Q80.25 -36.75 79.9 -38.55 L76.6 -38.55 76.65 -38.1 76.75 -37.35 76.75 -37.2 76.8 -34.4 75.15 -34.5 73.75 -34.65 73.3 -31.6 76.5 -31.25 75.7 -27.3 77.3 -27.3 77.5 -27.3 Q75.25 -25.35 72.8 -24.0 L72.65 -23.9 Q69.55 -22.25 67.65 -21.55 L64.65 -22.1 61.65 -25.3 M56.3 -50.75 Q57.3 -49.8 58.55 -49.25 L59.1 -54.15 Q59.2 -56.45 58.8 -58.55 55.4 -62.6 53.95 -55.3 L53.8 -54.65 53.9 -54.4 Q54.45 -52.9 55.35 -51.8 55.75 -50.95 56.3 -50.75 M53.7 -64.9 Q57.45 -64.25 60.45 -58.9 59.5 -66.0 53.7 -64.9 M67.55 -45.85 Q67.55 -44.85 67.9 -44.05 69.05 -41.6 73.75 -41.35 L75.25 -41.6 75.3 -41.6 Q80.8 -42.7 79.4 -46.55 77.75 -51.0 76.0 -52.65 75.2 -53.35 74.4 -53.5 L73.6 -53.55 Q71.95 -54.6 69.65 -54.65 67.75 -51.35 67.35 -46.15 L67.35 -45.95 67.55 -45.85 M80.45 -57.65 Q73.3 -62.6 67.8 -56.15 75.0 -59.45 80.45 -57.65 M70.05 -32.5 L69.2 -32.95 Q64.75 -35.3 62.95 -35.85 L60.4 -36.65 62.95 -35.85 Q64.75 -35.3 69.2 -32.95 L70.05 -32.5 M80.1 -31.55 L81.75 -31.95 79.8 -29.65 80.1 -31.55 M58.2 -43.55 Q59.2 -45.0 59.55 -47.2 59.9 -50.05 59.1 -54.15 59.9 -50.05 59.55 -47.2 59.2 -45.0 58.2 -43.55 57.95 -40.45 60.95 -41.45 59.3 -42.25 58.2 -43.55 M96.75 -37.45 L97.55 -38.65 Q101.1 -44.7 103.45 -46.6 102.6 -43.9 99.75 -39.75 L96.75 -37.45 M112.0 12.05 L102.2 3.05 102.05 0.55 100.8 -0.6 100.9 -0.75 112.7 -1.05 116.15 -1.75 116.5 -1.8 119.9 -2.75 120.05 -2.75 125.35 -9.7 132.7 3.1 132.3 4.35 131.15 4.5 129.25 3.7 Q127.8 3.0 125.8 4.05 L125.4 4.25 125.2 4.2 Q119.05 7.15 121.6 13.8 L122.1 13.95 122.15 14.0 123.5 14.8 Q121.15 16.1 117.35 15.4 L114.95 14.75 114.7 14.55 112.0 12.05 M90.8 13.1 L90.65 13.0 90.6 12.9 90.8 13.1" fill="#ffdfc8" fill-rule="evenodd" stroke="none"/>
    <path d="M106.95 46.95 L92.8 46.95 91.65 45.4 91.6 44.95 Q91.3 42.35 89.45 40.3 87.4 38.1 86.7 36.65 L86.4 34.1 98.8 36.55 103.05 37.25 103.0 37.45 103.0 38.1 Q102.85 42.15 106.55 46.5 L91.6 44.95 106.55 46.5 106.95 46.95 M69.8 46.95 L52.45 46.95 52.95 45.3 Q54.9 39.6 59.9 35.8 L63.15 34.7 Q62.15 31.45 64.45 25.5 L64.1 22.25 Q73.85 18.35 77.9 24.35 L77.9 25.35 80.4 27.0 79.9 28.15 78.1 30.7 76.0 33.0 Q72.05 36.9 65.6 40.8 L65.25 40.95 65.6 41.55 66.0 42.85 Q66.75 44.15 68.65 45.95 L69.8 46.95 M56.3 -56.85 L56.55 -57.35 Q56.9 -57.75 57.35 -57.8 57.85 -57.75 58.15 -57.35 58.45 -57.0 58.4 -56.45 L58.3 -55.85 58.2 -55.65 58.05 -55.45 Q57.7 -55.1 57.25 -55.05 56.75 -55.1 56.45 -55.45 56.15 -55.9 56.2 -56.45 L56.3 -56.85 M56.3 -50.75 L56.75 -50.65 Q57.6 -50.65 58.3 -51.85 58.95 -53.05 59.0 -54.75 59.1 -56.5 58.55 -57.65 58.0 -58.85 57.1 -58.85 56.25 -58.85 55.55 -57.65 54.9 -56.5 54.85 -54.75 54.75 -53.05 55.3 -51.85 L55.35 -51.8 Q54.45 -52.9 53.9 -54.4 L53.95 -55.3 Q55.4 -62.6 58.8 -58.55 59.2 -56.45 59.1 -54.15 L58.55 -49.25 Q57.3 -49.8 56.3 -50.75 M73.25 -50.45 L72.95 -50.05 Q72.5 -49.65 71.9 -49.65 71.3 -49.65 70.95 -50.05 70.5 -50.5 70.5 -51.1 L70.5 -51.15 70.7 -51.75 71.05 -52.15 Q71.45 -52.55 72.05 -52.55 L72.6 -52.45 73.0 -52.15 Q73.45 -51.75 73.5 -51.15 L73.25 -50.45 M73.6 -53.55 L74.0 -53.25 Q76.8 -51.05 77.25 -45.35 75.7 -44.6 73.9 -44.55 L71.3 -44.75 Q72.35 -44.75 73.2 -45.8 L73.35 -46.05 Q74.15 -47.45 74.2 -49.35 74.3 -51.3 73.65 -52.65 L73.45 -52.95 Q72.75 -54.0 71.7 -53.95 70.6 -54.0 69.75 -52.65 68.9 -51.3 68.8 -49.35 68.7 -47.45 69.45 -46.05 69.95 -45.15 70.65 -44.9 69.15 -45.2 67.55 -45.85 L67.35 -45.95 67.35 -46.15 Q67.75 -51.35 69.65 -54.65 71.95 -54.6 73.6 -53.55 M77.3 -27.3 L75.7 -27.3 76.5 -31.25 73.3 -31.6 73.75 -34.65 75.15 -34.5 76.8 -34.4 76.75 -37.2 76.75 -37.35 76.65 -38.1 76.6 -38.55 79.9 -38.55 Q80.25 -36.75 80.25 -34.65 L83.25 -35.3 83.0 -33.65 82.8 -32.25 81.75 -31.95 80.1 -31.55 76.6 -31.25 76.5 -31.25 76.6 -31.25 80.1 -31.55 79.8 -29.65 79.8 -29.55 77.3 -27.3 M67.55 -45.85 L67.35 -46.15 67.55 -45.85 M76.8 -34.4 L78.95 -34.5 80.25 -34.65 78.95 -34.5 76.8 -34.4 M123.35 5.75 Q120.25 8.75 122.1 13.95 L121.6 13.8 Q119.05 7.15 125.2 4.2 L125.4 4.25 Q124.2 4.9 123.35 5.75 M90.65 13.0 L90.8 13.1 90.7 13.05 90.65 13.0 M52.95 45.3 Q57.6 43.0 66.0 42.85 57.6 43.0 52.95 45.3 M63.15 34.7 Q64.0 37.45 65.6 40.8 64.0 37.45 63.15 34.7" fill="#ffffff" fill-rule="evenodd" stroke="none"/>
    <path d="M136.7 45.2 L136.7 46.95 131.9 46.95 133.0 46.65 136.7 45.2 M64.1 22.25 L63.75 18.05 Q70.35 19.45 77.95 17.0 L77.9 24.35 Q73.85 18.35 64.1 22.25" fill="#f2f2f2" fill-rule="evenodd" stroke="none"/>
    <path d="M136.2 -42.1 L136.7 -42.2 136.7 -21.5 135.35 -23.05 128.8 -31.15 Q130.0 -25.45 130.65 -23.4 131.3 -21.35 132.35 -20.6 L133.7 -19.35 136.7 -15.5 136.7 4.35 133.45 4.3 132.3 4.35 132.7 3.1 125.35 -9.7 120.9 -9.6 124.9 -37.95 127.05 -37.55 129.6 -36.75 Q130.8 -38.8 132.3 -39.9 L134.4 -41.35 Q134.85 -41.65 135.7 -41.95 L136.2 -42.1 M136.7 18.9 L136.7 33.75 132.1 35.65 131.25 36.0 128.15 37.15 122.75 39.05 121.3 39.3 120.6 39.35 120.5 39.4 113.9 39.85 117.35 15.4 Q121.15 16.1 123.5 14.8 127.95 17.15 134.9 17.75 L136.7 18.9 M58.45 -4.4 L58.05 -6.55 Q57.5 -10.15 58.0 -14.25 58.75 -20.65 61.65 -25.3 L64.65 -22.1 Q65.05 -9.8 73.1 -1.5 65.05 -9.8 64.65 -22.1 L67.65 -21.55 73.35 -21.85 Q75.05 -16.6 78.8 -13.05 L79.0 -12.85 80.55 -11.55 81.4 -10.9 Q83.05 -9.8 85.05 -8.95 L88.7 -7.55 94.05 -6.35 94.2 -6.3 Q101.9 -7.45 107.4 -11.65 111.85 -15.1 114.9 -20.5 L116.95 -24.8 117.35 -25.9 115.1 -10.05 113.05 -11.45 112.85 -11.25 100.9 -0.75 100.8 -0.6 102.05 0.55 102.2 3.05 112.0 12.05 108.15 39.2 107.85 39.1 107.75 39.05 Q105.65 38.5 104.2 37.5 L103.75 37.05 103.6 36.95 103.2 36.6 Q98.1 34.0 96.65 28.05 95.2 22.05 93.8 18.1 L90.7 13.15 90.8 13.1 88.85 9.8 87.95 8.05 87.2 7.75 87.15 7.65 Q83.65 6.2 80.75 4.4 L79.35 3.6 79.35 3.55 Q75.75 1.25 73.1 -1.5 71.8 -0.3 70.25 0.55 68.5 1.5 66.45 1.9 L65.75 1.8 64.55 1.65 64.3 1.6 64.05 1.55 62.4 1.0 Q60.6 0.2 59.4 -1.35 58.8 -2.85 58.45 -4.4 M117.15 -38.8 L119.15 -38.6 118.0 -30.5 117.7 -34.7 117.15 -38.8 M103.4 10.25 L103.35 10.15 103.25 10.2 103.4 10.25 M99.5 24.2 L99.45 24.1 99.35 24.15 99.5 24.2" fill="#96bebe" fill-rule="evenodd" stroke="none"/>
    <path d="M136.7 4.35 L136.7 7.55 132.65 7.05 130.6 6.85 130.65 6.65 131.1 4.65 131.15 4.5 131.1 4.65 130.65 6.65 130.6 6.85 128.25 6.45 123.35 5.75 Q124.2 4.9 125.4 4.25 L125.8 4.05 Q127.8 3.0 129.25 3.7 L131.15 4.5 132.3 4.35 133.45 4.3 136.7 4.35 M136.7 33.75 L136.7 45.2 133.0 46.65 131.9 46.95 124.2 46.95 Q120.2 43.0 120.6 39.35 L121.3 39.3 122.75 39.05 128.15 37.15 131.25 36.0 132.1 35.65 136.7 33.75 M92.8 46.95 L90.0 46.95 88.6 46.95 85.55 43.2 82.8 39.8 Q78.55 34.2 77.9 31.9 77.75 31.4 78.1 30.7 L79.9 28.15 80.4 27.0 80.7 26.05 Q82.75 27.75 84.7 30.5 85.9 32.15 86.4 34.1 L86.7 36.65 Q87.4 38.1 89.45 40.3 91.3 42.35 91.6 44.95 L91.65 45.4 92.8 46.95 M110.3 -45.55 L111.1 -43.15 111.55 -40.7 111.6 -39.35 111.75 -38.05 111.75 -36.65 Q111.75 -31.9 108.75 -27.0 L108.65 -26.85 107.4 -24.9 107.3 -24.75 104.95 -21.45 102.15 -18.45 100.9 -17.25 99.75 -16.25 Q97.05 -14.1 92.1 -11.5 L91.6 -11.5 90.15 -11.5 Q85.25 -11.55 81.95 -14.1 85.9 -12.35 90.8 -13.6 94.65 -14.6 99.1 -17.5 L100.85 -18.95 Q104.95 -22.7 107.4 -26.75 110.8 -32.6 110.9 -39.1 L110.9 -39.3 110.95 -39.45 110.9 -40.75 Q110.8 -43.1 110.3 -45.55 M86.7 36.65 L86.5 36.85 82.8 39.8 86.5 36.85 86.7 36.65 M91.65 45.4 L91.45 45.6 90.0 46.95 91.45 45.6 91.65 45.4" fill="#684942" fill-rule="evenodd" stroke="none"/>
    <path d="M103.1 -50.35 L103.2 -50.5 104.5 -50.6 Q106.4 -50.45 107.75 -49.0 L107.7 -47.45 108.4 -48.25 108.7 -47.8 110.0 -48.15 Q112.9 -48.65 115.5 -45.0 L116.2 -43.05 116.9 -40.05 117.15 -38.8 117.7 -34.7 118.0 -30.5 117.35 -25.9 116.95 -24.8 114.9 -20.5 Q111.85 -15.1 107.4 -11.65 101.9 -7.45 94.2 -6.3 L94.05 -6.35 88.7 -7.55 85.05 -8.95 Q83.05 -9.8 81.4 -10.9 L80.55 -11.55 79.0 -12.85 78.8 -13.05 Q75.05 -16.6 73.35 -21.85 77.05 -22.7 80.8 -25.15 85.3 -28.15 89.85 -33.45 93.0 -34.7 96.75 -37.45 L99.75 -39.75 Q102.6 -43.9 103.45 -46.6 L103.6 -47.15 Q104.1 -49.3 103.1 -50.35 M136.7 7.55 L136.7 18.9 134.9 17.75 134.6 17.45 Q129.9 11.8 130.6 6.85 129.9 11.8 134.6 17.45 L134.9 17.75 Q127.95 17.15 123.5 14.8 L122.15 14.0 122.1 13.95 Q120.25 8.75 123.35 5.75 L128.25 6.45 130.6 6.85 132.65 7.05 136.7 7.55 M124.2 46.95 L112.9 46.95 113.9 39.85 120.5 39.4 120.6 39.35 Q120.2 43.0 124.2 46.95 M107.05 46.95 L106.95 46.95 106.55 46.5 Q102.85 42.15 103.0 38.1 L103.0 37.45 103.05 37.25 103.2 36.6 103.6 36.95 103.75 37.05 104.2 37.5 Q105.65 38.5 107.75 39.05 L107.85 39.1 108.15 39.2 107.05 46.95 M88.6 46.95 L69.8 46.95 68.65 45.95 71.0 46.0 Q76.65 45.55 82.8 39.8 76.65 45.55 71.0 46.0 L68.65 45.95 Q66.75 44.15 66.0 42.85 L65.6 41.55 65.25 40.95 65.6 40.8 Q72.05 36.9 76.0 33.0 L78.1 30.7 Q77.75 31.4 77.9 31.9 78.55 34.2 82.8 39.8 L85.55 43.2 88.6 46.95 M92.1 -11.5 Q97.05 -14.1 99.75 -16.25 L100.9 -17.25 102.15 -18.45 104.95 -21.45 107.3 -24.75 107.4 -24.9 108.65 -26.85 108.75 -27.0 Q111.75 -31.9 111.75 -36.65 L111.75 -38.05 111.6 -39.35 111.55 -40.7 111.1 -43.15 110.3 -45.55 Q110.8 -43.1 110.9 -40.75 L110.95 -39.45 110.9 -39.3 110.9 -39.1 Q110.8 -32.6 107.4 -26.75 104.95 -22.7 100.85 -18.95 L99.1 -17.5 Q94.65 -14.6 90.8 -13.6 85.9 -12.35 81.95 -14.1 85.25 -11.55 90.15 -11.5 L91.6 -11.5 92.1 -11.5 M104.4 -32.05 L102.95 -30.65 Q94.6 -22.9 88.1 -22.65 84.1 -22.5 80.8 -25.15 84.1 -22.5 88.1 -22.65 94.6 -22.9 102.95 -30.65 L104.4 -32.05" fill="#956c5e" fill-rule="evenodd" stroke="none"/>
    <path d="M115.5 -45.0 L118.1 -45.1 119.85 -44.9 120.0 -44.9 119.15 -38.6 117.15 -38.8 116.9 -40.05 116.2 -43.05 115.5 -45.0 M125.8 -44.3 L125.95 -44.25 Q132.9 -43.85 136.2 -42.1 L135.7 -41.95 Q134.85 -41.65 134.4 -41.35 L132.3 -39.9 Q130.8 -38.8 129.6 -36.75 L127.05 -37.55 124.9 -37.95 125.8 -44.3 M136.7 -21.5 L136.7 -15.5 133.7 -19.35 132.35 -20.6 Q131.3 -21.35 130.65 -23.4 130.0 -25.45 128.8 -31.15 L135.35 -23.05 136.7 -21.5 M63.75 18.05 Q59.5 17.15 55.7 14.65 58.2 6.2 58.45 -4.4 58.8 -2.85 59.4 -1.35 60.6 0.2 62.4 1.0 L64.05 1.55 64.3 1.6 64.55 1.65 65.75 1.8 66.45 1.9 Q68.5 1.5 70.25 0.55 71.8 -0.3 73.1 -1.5 75.75 1.25 79.35 3.55 78.65 10.3 79.6 16.45 L77.95 17.0 Q70.35 19.45 63.75 18.05" fill="#74a9a8" fill-rule="evenodd" stroke="none"/>
    <path d="M99.5 24.2 L99.35 24.15 99.45 24.1 99.5 24.2" fill="#eebf5a" fill-rule="evenodd" stroke="none"/>
    <path d="M103.4 10.25 L103.25 10.2 103.35 10.15 103.4 10.25" fill="#cecece" fill-rule="evenodd" stroke="none"/>
    <path d="M90.8 13.1 L90.7 13.15 90.7 13.05 90.8 13.1" fill="#8bc087" fill-rule="evenodd" stroke="none"/>
    <path d="M120.0 -44.9 L131.15 -123.9 134.25 -123.9 118.1 -9.5 116.05 -9.45 115.1 -10.05 117.35 -25.9 118.0 -30.5 119.15 -38.6 120.0 -44.9 M110.15 46.95 L107.05 46.95 108.15 39.2 112.0 12.05 114.7 14.55 110.15 46.95" fill="#a2978c" fill-rule="evenodd" stroke="none"/>
    <path d="M134.25 -123.9 L136.7 -123.9 136.7 -121.8 125.8 -44.3 124.9 -37.95 120.9 -9.6 118.1 -9.5 134.25 -123.9 M112.9 46.95 L110.15 46.95 114.7 14.55 114.95 14.75 117.35 15.4 113.9 39.85 112.9 46.95" fill="#86796c" fill-rule="evenodd" stroke="none"/>
    <path d="M56.3 -56.85 L56.0 -56.55 Q55.55 -55.85 55.5 -54.85 55.45 -53.8 55.85 -53.05 56.25 -52.3 56.8 -52.25 57.4 -52.3 57.85 -53.05 58.3 -53.8 58.35 -54.75 L58.3 -55.85 58.4 -56.45 Q58.45 -57.0 58.15 -57.35 57.85 -57.75 57.35 -57.8 56.9 -57.75 56.55 -57.35 L56.3 -56.85 M55.35 -51.8 L55.3 -51.85 Q54.75 -53.05 54.85 -54.75 54.9 -56.5 55.55 -57.65 56.25 -58.85 57.1 -58.85 58.0 -58.85 58.55 -57.65 59.1 -56.5 59.0 -54.75 58.95 -53.05 58.3 -51.85 57.6 -50.65 56.75 -50.65 L56.3 -50.75 Q55.75 -50.95 55.35 -51.8 M70.7 -51.75 L70.3 -51.35 69.95 -50.75 69.85 -50.45 69.7 -49.45 Q69.6 -48.2 70.1 -47.35 70.65 -46.5 71.4 -46.55 71.95 -46.55 72.45 -47.0 L72.7 -47.35 Q73.25 -48.2 73.3 -49.35 L73.25 -50.45 73.5 -51.15 Q73.45 -51.75 73.0 -52.15 L72.6 -52.45 72.05 -52.55 Q71.45 -52.55 71.05 -52.15 L70.7 -51.75 M71.3 -44.75 L70.65 -44.9 Q69.95 -45.15 69.45 -46.05 68.7 -47.45 68.8 -49.35 68.9 -51.3 69.75 -52.65 70.6 -54.0 71.7 -53.95 72.75 -54.0 73.45 -52.95 L73.65 -52.65 Q74.3 -51.3 74.2 -49.35 74.15 -47.45 73.35 -46.05 L73.2 -45.8 Q72.35 -44.75 71.3 -44.75" fill="#0099ff" fill-rule="evenodd" stroke="none"/>
    <path d="M58.3 -55.85 L58.35 -54.75 Q58.3 -53.8 57.85 -53.05 57.4 -52.3 56.8 -52.25 56.25 -52.3 55.85 -53.05 55.45 -53.8 55.5 -54.85 55.55 -55.85 56.0 -56.55 L56.3 -56.85 56.2 -56.45 Q56.15 -55.9 56.45 -55.45 56.75 -55.1 57.25 -55.05 57.7 -55.1 58.05 -55.45 L58.2 -55.65 58.3 -55.85 M73.25 -50.45 L73.3 -49.35 Q73.25 -48.2 72.7 -47.35 L72.45 -47.0 Q71.95 -46.55 71.4 -46.55 70.65 -46.5 70.1 -47.35 69.6 -48.2 69.7 -49.45 L69.85 -50.45 69.95 -50.75 70.3 -51.35 70.7 -51.75 70.5 -51.15 70.5 -51.1 Q70.5 -50.5 70.95 -50.05 71.3 -49.65 71.9 -49.65 72.5 -49.65 72.95 -50.05 L73.25 -50.45" fill="#000000" fill-rule="evenodd" stroke="none"/>
    <path d="M73.6 -53.55 L74.4 -53.5 Q75.2 -53.35 76.0 -52.65 77.75 -51.0 79.4 -46.55 80.8 -42.7 75.3 -41.6 L75.25 -41.6 73.75 -41.35 Q69.05 -41.6 67.9 -44.05 67.55 -44.85 67.55 -45.85 69.15 -45.2 70.65 -44.9 L71.3 -44.75 73.9 -44.55 Q75.7 -44.6 77.25 -45.35 76.8 -51.05 74.0 -53.25 L73.6 -53.55" fill="#7b648e" fill-rule="evenodd" stroke="none"/>
    <path d="M53.7 -64.9 Q59.5 -66.0 60.45 -58.9 57.45 -64.25 53.7 -64.9 M80.45 -57.65 Q75.0 -59.45 67.8 -56.15 73.3 -62.6 80.45 -57.65" fill="#503e53" fill-rule="evenodd" stroke="none"/>
    <path d="M57.9 -86.2 Q50.15 -103.25 42.2 -107.65 56.85 -106.2 69.35 -99.75 69.65 -108.9 56.3 -118.4 76.1 -117.7 84.2 -109.65 87.3 -106.55 89.5 -103.5 91.65 -100.5 92.95 -97.55 99.9 -98.8 94.45 -116.0 114.95 -100.35 113.15 -81.95 L112.15 -74.35 Q117.35 -65.4 118.8 -57.95 115.4 -60.4 111.5 -61.4 111.75 -52.7 108.4 -48.25 L107.7 -47.45 107.75 -49.0 Q107.7 -53.4 105.3 -56.75 104.6 -53.55 103.2 -50.5 L103.1 -50.35 102.35 -48.85 Q100.85 -46.05 98.65 -43.35 L98.2 -42.75 Q99.35 -45.1 99.65 -47.45 100.0 -51.05 98.2 -54.65 L97.6 -54.75 97.5 -55.15 96.4 -59.9 95.9 -61.55 Q88.75 -84.4 64.8 -86.8 L61.55 -87.0 58.1 -86.2 57.9 -86.2 M66.5 -69.75 Q63.0 -67.2 61.7 -62.6 60.15 -66.15 60.65 -70.8 L66.5 -69.75 M85.1 -60.8 L86.8 -59.35 90.05 -56.1 Q91.45 -54.5 92.45 -52.9 L92.1 -51.45 92.1 -51.35 91.75 -49.95 Q90.75 -45.35 89.85 -38.45 85.85 -37.75 85.1 -36.45 L85.9 -38.35 Q86.8 -40.95 87.2 -43.7 87.85 -48.9 86.75 -54.75 L85.7 -58.95 85.1 -60.8 M92.55 -53.0 L93.3 -53.7 Q92.8 -53.1 92.45 -52.2 L92.55 -53.0" fill="#735a48" fill-rule="evenodd" stroke="none"/>
    <path d="M57.9 -86.2 L58.1 -86.2 61.55 -87.0 64.8 -86.8 Q88.75 -84.4 95.9 -61.55 L96.4 -59.9 97.5 -55.15 97.6 -54.75 97.6 -54.65 96.9 -54.85 96.4 -54.85 Q95.85 -54.9 95.4 -54.5 L94.85 -54.5 Q94.15 -54.45 93.3 -53.7 L92.55 -53.0 92.45 -52.9 Q91.45 -54.5 90.05 -56.1 L86.8 -59.35 85.1 -60.8 Q78.25 -66.95 66.5 -69.75 L60.65 -70.8 Q55.95 -71.8 53.75 -70.35 52.7 -69.65 52.25 -68.35 50.4 -78.5 53.9 -80.25 54.6 -85.3 57.9 -86.2 M69.3 -77.25 Q65.55 -79.25 61.6 -79.95 L58.6 -80.35 53.9 -80.25 58.6 -80.35 61.6 -79.95 Q65.55 -79.25 69.3 -77.25 M79.0 -70.55 Q85.7 -66.6 90.9 -60.6 L93.2 -57.7 95.25 -54.75 95.4 -54.5 95.25 -54.75 93.2 -57.7 90.9 -60.6 Q85.7 -66.6 79.0 -70.55" fill="#e2cfcb" fill-rule="evenodd" stroke="none"/>
    <path d="M77.3 -27.3 L79.8 -29.55 79.0 -27.3 77.5 -27.3 77.3 -27.3" fill="#eaeaea" fill-rule="evenodd" stroke="none"/>
    <path d="M52.45 46.95 L52.95 45.3 Q54.9 39.6 59.9 35.8 L63.15 34.7 Q62.15 31.45 64.45 25.5 L64.1 22.25 63.75 18.05 M125.2 4.2 L125.4 4.25 M122.1 13.95 L121.6 13.8 M91.6 44.95 L106.55 46.5 M103.05 37.25 L98.8 36.55 86.4 34.1 M77.9 24.35 L77.95 17.0 M77.9 24.35 L77.9 25.35 80.4 27.0 M66.0 42.85 Q57.6 43.0 52.95 45.3 M65.6 40.8 Q64.0 37.45 63.15 34.7" fill="none" stroke="#a0a0a0" stroke-linecap="round" stroke-linejoin="round" stroke-width="0.05"/>
    <path d="M115.5 -45.0 L118.1 -45.1 119.85 -44.9 120.0 -44.9 M125.8 -44.3 L125.95 -44.25 Q132.9 -43.85 136.2 -42.1 L136.7 -42.2 M63.75 18.05 Q59.5 17.15 55.7 14.65 58.2 6.2 58.45 -4.4 L58.05 -6.55 Q57.5 -10.15 58.0 -14.25 58.75 -20.65 61.65 -25.3 M58.45 -4.4 Q58.8 -2.85 59.4 -1.35 M73.1 -1.5 Q65.05 -9.8 64.65 -22.1 M136.2 -42.1 L135.7 -41.95 M133.7 -19.35 L136.7 -15.5 M79.35 3.55 L79.35 3.6 80.75 4.4 Q83.65 6.2 87.15 7.65 L87.2 7.75 87.95 8.05 88.85 9.8 M90.7 13.15 L93.8 18.1 Q95.2 22.05 96.65 28.05 98.1 34.0 103.2 36.6 M90.7 13.05 L90.7 13.15 M77.95 17.0 L79.6 16.45 Q78.65 10.3 79.35 3.55 75.75 1.25 73.1 -1.5 M77.95 17.0 Q70.35 19.45 63.75 18.05" fill="none" stroke="#548584" stroke-linecap="round" stroke-linejoin="round" stroke-width="0.05"/>
    <path d="M108.4 -48.25 L108.7 -47.8 110.0 -48.15 Q112.9 -48.65 115.5 -45.0 M117.35 -25.9 L116.95 -24.8 114.9 -20.5 Q111.85 -15.1 107.4 -11.65 101.9 -7.45 94.2 -6.3 L94.05 -6.35 88.7 -7.55 85.05 -8.95 Q83.05 -9.8 81.4 -10.9 L80.55 -11.55 79.0 -12.85 78.8 -13.05 Q75.05 -16.6 73.35 -21.85 M103.2 -50.5 L104.5 -50.6 Q106.4 -50.45 107.75 -49.0 M92.1 -11.5 Q97.05 -14.1 99.75 -16.25 L100.9 -17.25 102.15 -18.45 104.95 -21.45 107.3 -24.75 107.4 -24.9 108.65 -26.85 108.75 -27.0 Q111.75 -31.9 111.75 -36.65 L111.75 -38.05 111.6 -39.35 111.55 -40.7 111.1 -43.15 110.3 -45.55 M117.15 -38.8 L116.9 -40.05 116.2 -43.05 115.5 -45.0 M103.45 -46.6 L103.6 -47.15 Q104.1 -49.3 103.1 -50.35 M80.8 -25.15 Q84.1 -22.5 88.1 -22.65 94.6 -22.9 102.95 -30.65 L104.4 -32.05 M118.0 -30.5 L117.7 -34.7 117.15 -38.8 M118.0 -30.5 L117.35 -25.9 M96.75 -37.45 L99.75 -39.75 Q102.6 -43.9 103.45 -46.6 M89.85 -33.45 Q93.0 -34.7 96.75 -37.45 M130.6 6.85 Q129.9 11.8 134.6 17.45 L134.9 17.75 136.7 18.9 M132.3 4.35 L133.45 4.3 136.7 4.35 M125.4 4.25 L125.8 4.05 Q127.8 3.0 129.25 3.7 L131.15 4.5 132.3 4.35 M131.15 4.5 L131.1 4.65 130.65 6.65 130.6 6.85 M123.35 5.75 Q120.25 8.75 122.1 13.95 L122.15 14.0 123.5 14.8 Q127.95 17.15 134.9 17.75 M125.4 4.25 Q124.2 4.9 123.35 5.75 M120.6 39.35 L121.3 39.3 122.75 39.05 128.15 37.15 131.25 36.0 132.1 35.65 136.7 33.75 M131.9 46.95 L133.0 46.65 136.7 45.2 M103.2 36.6 L103.6 36.95 103.75 37.05 104.2 37.5 Q105.65 38.5 107.75 39.05 L107.85 39.1 108.15 39.2 M86.4 34.1 L86.7 36.65 Q87.4 38.1 89.45 40.3 91.3 42.35 91.6 44.95 L91.65 45.4 92.8 46.95 M106.55 46.5 Q102.85 42.15 103.0 38.1 L103.0 37.45 103.05 37.25 M86.4 34.1 Q85.9 32.15 84.7 30.5 82.75 27.75 80.7 26.05 L80.4 27.0 79.9 28.15 78.1 30.7 M82.8 39.8 L86.5 36.85 86.7 36.65 M82.8 39.8 Q76.65 45.55 71.0 46.0 L68.65 45.95 69.8 46.95 M90.0 46.95 L91.45 45.6 91.65 45.4 M106.95 46.95 L106.55 46.5 M113.9 39.85 L120.5 39.4 120.6 39.35 M103.2 36.6 L103.05 37.25 M65.6 40.8 Q72.05 36.9 76.0 33.0 L78.1 30.7 M68.65 45.95 Q66.75 44.15 66.0 42.85 L65.6 41.55 65.25 40.95 65.6 40.8" fill="none" stroke="#3f2c27" stroke-linecap="round" stroke-linejoin="round" stroke-width="0.05"/>
    <path d="M61.65 -25.3 Q58.95 -28.7 56.2 -34.15 53.2 -44.25 52.85 -53.35 52.45 -62.45 52.6 -63.65 52.85 -67.1 53.7 -70.2 L53.75 -70.35 M56.3 -50.75 Q57.3 -49.8 58.55 -49.25 L59.1 -54.15 Q59.2 -56.45 58.8 -58.55 55.4 -62.6 53.95 -55.3 M53.9 -54.4 Q54.45 -52.9 55.35 -51.8 55.75 -50.95 56.3 -50.75 M53.9 -54.4 L53.8 -54.65 53.95 -55.3 M67.55 -45.85 L67.35 -45.95 67.35 -46.15 Q67.75 -51.35 69.65 -54.65 71.95 -54.6 73.6 -53.55 M60.4 -36.65 L62.95 -35.85 Q64.75 -35.3 69.2 -32.95 L70.05 -32.5 M59.1 -54.15 Q59.9 -50.05 59.55 -47.2 59.2 -45.0 58.2 -43.55 M60.95 -41.45 Q57.95 -40.45 58.2 -43.55 M64.65 -22.1 L61.65 -25.3 M73.35 -21.85 L67.65 -21.55 64.65 -22.1 M73.35 -21.85 Q77.05 -22.7 80.8 -25.15 85.3 -28.15 89.85 -33.45 L94.5 -39.55 98.0 -41.95 98.55 -43.15 98.65 -43.35 M94.6 -48.55 L95.1 -49.45 96.4 -50.75 M94.85 -54.5 Q93.5 -53.85 92.65 -52.45 L92.1 -51.45 M103.6 -47.15 L102.35 -48.85 M115.1 -10.05 L116.05 -9.45 118.1 -9.5 M94.6 -48.55 L94.0 -46.65 93.9 -45.95 Q95.15 -45.45 96.0 -44.05 M93.9 -45.95 Q93.65 -44.6 93.75 -42.95 M112.0 12.05 L102.2 3.05 102.05 0.55 100.8 -0.6 100.9 -0.75 112.85 -11.25 113.05 -11.45 115.1 -10.05 M120.9 -9.6 L118.1 -9.5 M116.15 -1.75 L116.5 -1.8 116.05 -9.45 M125.35 -9.7 L120.9 -9.6 M125.35 -9.7 L132.7 3.1 132.3 4.35 M117.35 15.4 L114.95 14.75 114.7 14.55 112.0 12.05 M117.35 15.4 Q121.15 16.1 123.5 14.8" fill="none" stroke="#d7995e" stroke-linecap="round" stroke-linejoin="round" stroke-width="0.05"/>
    <path d="M88.85 9.8 L90.8 13.1" fill="none" stroke="#666666" stroke-linecap="round" stroke-linejoin="round" stroke-width="0.05"/>
    <path d="M136.7 -121.8 L125.8 -44.3 M120.9 -9.6 L124.9 -37.95 125.8 -44.3 M112.9 46.95 L113.9 39.85 117.35 15.4" fill="none" stroke="#5c554e" stroke-linecap="round" stroke-linejoin="round" stroke-width="0.05"/>
    <path d="M67.35 -46.15 L67.55 -45.85" fill="none" stroke="#cccccc" stroke-linecap="round" stroke-linejoin="round" stroke-width="0.05"/>
    <path d="M73.6 -53.55 L74.0 -53.25 Q76.8 -51.05 77.25 -45.35 75.7 -44.6 73.9 -44.55 L71.3 -44.75 70.65 -44.9 Q69.15 -45.2 67.55 -45.85" fill="none" stroke="#4f425b" stroke-linecap="round" stroke-linejoin="round" stroke-width="0.05"/>
    <path d="M53.7 -64.9 Q59.5 -66.0 60.45 -58.9 57.45 -64.25 53.7 -64.9 M80.45 -57.65 Q73.3 -62.6 67.8 -56.15 75.0 -59.45 80.45 -57.65" fill="none" stroke="#5b4961" stroke-linecap="round" stroke-linejoin="round" stroke-width="0.05"/>
    <path d="M57.9 -86.2 L58.1 -86.2 61.55 -87.0 64.8 -86.8 Q88.75 -84.4 95.9 -61.55 L96.4 -59.9 97.5 -55.15 97.6 -54.75 97.6 -54.65 96.9 -54.85 96.4 -54.85 Q95.85 -54.9 95.4 -54.5 L95.25 -54.75 93.2 -57.7 90.9 -60.6 Q85.7 -66.6 79.0 -70.55 M53.75 -70.35 Q52.7 -69.65 52.25 -68.35 50.4 -78.5 53.9 -80.25 54.6 -85.3 57.9 -86.2 M53.9 -80.25 L58.6 -80.35 61.6 -79.95 Q65.55 -79.25 69.3 -77.25 M60.65 -70.8 Q55.95 -71.8 53.75 -70.35 M66.5 -69.75 Q63.0 -67.2 61.7 -62.6 60.15 -66.15 60.65 -70.8 L66.5 -69.75 Q78.25 -66.95 85.1 -60.8 L86.8 -59.35 90.05 -56.1 Q91.45 -54.5 92.45 -52.9 L92.55 -53.0 93.3 -53.7 Q94.15 -54.45 94.85 -54.5 L95.4 -54.5 M85.9 -38.35 Q86.8 -40.95 87.2 -43.7 M86.75 -54.75 L85.7 -58.95 85.1 -60.8 M92.1 -51.45 L92.1 -51.35 91.75 -49.95 Q90.75 -45.35 89.85 -38.45 85.85 -37.75 85.1 -36.45 L85.9 -38.35 M92.1 -51.45 L92.45 -52.9 M86.75 -54.75 Q87.85 -48.9 87.2 -43.7" fill="none" stroke="#7b5046" stroke-linecap="round" stroke-linejoin="round" stroke-width="0.05"/>
    <path d="M77.3 -27.3 L75.7 -27.3 76.5 -31.25 73.3 -31.6 73.75 -34.65 75.15 -34.5 76.8 -34.4 76.75 -37.2 76.75 -37.35 76.65 -38.1 76.6 -38.55 79.9 -38.55 Q80.25 -36.75 80.25 -34.65 L83.25 -35.3 83.0 -33.65 M76.5 -31.25 L76.6 -31.25 80.1 -31.55 81.75 -31.95 82.8 -32.25 83.0 -33.65 M80.25 -34.65 L78.95 -34.5 76.8 -34.4 M77.3 -27.3 L77.5 -27.3 79.0 -27.3 79.8 -29.55 79.8 -29.65 80.1 -31.55" fill="none" stroke="#cccccc" stroke-linecap="round" stroke-linejoin="round" stroke-width="0.05"/>
    <path d="M108.4 -48.25 Q111.75 -52.7 111.5 -61.4 115.4 -60.4 118.8 -57.95 117.35 -65.4 112.15 -74.35 L113.15 -81.95 Q114.95 -100.35 94.45 -116.0 99.9 -98.8 92.95 -97.55 91.65 -100.5 89.5 -103.5 87.3 -106.55 84.2 -109.65 76.1 -117.7 56.3 -118.4 69.65 -108.9 69.35 -99.75 56.85 -106.2 42.2 -107.65 50.15 -103.25 57.9 -86.2 M97.6 -54.75 L98.2 -54.65 Q100.0 -51.05 99.65 -47.45 99.35 -45.1 98.2 -42.75 L98.65 -43.35 Q100.85 -46.05 102.35 -48.85 L103.1 -50.35 103.2 -50.5 Q104.6 -53.55 105.3 -56.75 107.7 -53.4 107.75 -49.0 L107.7 -47.45 108.4 -48.25 M92.55 -53.0 L92.45 -52.2 Q92.8 -53.1 93.3 -53.7" fill="none" stroke="#584338" stroke-linecap="round" stroke-linejoin="round" stroke-width="0.05"/>
  </g>
</svg>
