<?xml version="1.0" encoding="UTF-8" standalone="no"?>
<svg xmlns:xlink="http://www.w3.org/1999/xlink" height="174.1px" width="95.85px" xmlns="http://www.w3.org/2000/svg">
  <g transform="matrix(1, 0, 0, 1, -40.6, 125.9)">
    <path d="M108.0 -60.05 Q107.9 -57.9 106.85 -55.7 L107.45 -56.45 107.4 -56.25 107.25 -56.0 106.75 -55.05 104.5 -53.5 Q104.4 -50.35 104.75 -47.35 L104.55 -47.4 104.75 -47.1 105.1 -44.8 Q104.85 -43.85 104.05 -42.75 101.6 -41.75 97.65 -38.8 99.35 -42.7 100.65 -47.4 L100.35 -48.5 99.8 -52.0 100.75 -58.55 101.8 -63.65 101.95 -64.3 102.1 -64.4 102.0 -63.8 101.95 -63.65 102.05 -63.85 102.35 -64.55 102.7 -65.0 Q103.45 -65.6 104.0 -65.65 103.1 -65.1 102.45 -64.15 L102.3 -63.95 101.85 -63.1 101.65 -62.5 101.6 -62.3 101.5 -61.65 Q101.7 -60.5 103.3 -60.55 L103.95 -60.6 104.4 -61.4 104.4 -61.45 105.45 -62.5 105.65 -62.4 Q107.4 -61.65 108.0 -60.05 M95.7 -50.65 L95.95 -51.0 95.85 -50.65 95.7 -50.65 M97.55 -56.95 L95.25 -65.2 97.15 -65.8 97.2 -65.7 Q97.7 -63.0 97.7 -60.45 L97.55 -56.95 M73.15 -56.35 Q74.1 -55.2 75.55 -54.6 72.9 -53.7 73.15 -56.35 M52.1 8.4 Q54.8 9.65 57.9 10.2 L57.65 12.7 Q55.0 12.25 51.4 12.8 L51.95 9.15 52.1 8.4 M100.35 -48.5 L103.8 -53.0 104.5 -53.5 103.8 -53.0 100.35 -48.5 M103.2 -55.9 Q103.1 -57.3 103.25 -58.4 L103.4 -59.0 103.75 -60.1 103.95 -60.6 103.75 -60.1 103.4 -59.0 103.25 -58.4 104.8 -57.2 105.1 -56.8 104.8 -57.2 103.25 -58.4 Q103.1 -57.3 103.2 -55.9" fill="#ffd0ae" fill-rule="evenodd" stroke="none"/>
    <path d="M106.3 -65.85 L106.85 -65.8 107.6 -63.95 107.75 -63.4 107.9 -62.55 108.0 -60.05 Q107.4 -61.65 105.65 -62.4 L105.45 -62.5 104.4 -61.45 104.4 -61.4 103.95 -60.6 103.3 -60.55 Q101.7 -60.5 101.5 -61.65 L101.6 -62.3 101.65 -62.5 101.85 -63.1 102.3 -63.95 102.45 -64.15 Q103.1 -65.1 104.0 -65.65 L104.3 -65.65 104.5 -65.6 Q104.85 -65.95 105.3 -65.9 L105.7 -65.9 106.3 -65.8 106.3 -65.85 M70.05 -51.55 L67.7 -55.7 Q65.55 -58.45 66.8 -62.15 L68.4 -67.05 Q67.95 -72.55 68.25 -74.2 L69.35 -78.9 69.4 -79.1 Q71.25 -80.25 75.05 -79.45 74.7 -75.5 76.0 -72.45 77.05 -76.35 80.0 -78.5 89.95 -76.2 95.8 -71.0 L97.15 -65.8 95.25 -65.2 97.55 -56.95 97.4 -55.85 Q96.95 -53.35 95.95 -51.0 L95.7 -50.65 86.2 -48.0 84.55 -49.8 Q82.55 -51.85 80.55 -52.95 79.0 -53.8 77.4 -54.1 74.05 -54.8 70.65 -52.95 L70.05 -51.55 M71.6 -62.45 Q72.4 -61.65 73.5 -61.2 73.9 -63.35 73.9 -65.35 74.0 -67.3 73.7 -69.1 70.8 -72.5 69.55 -66.25 L69.45 -65.8 69.55 -65.65 Q70.0 -64.35 70.75 -63.35 71.1 -62.65 71.6 -62.45 M75.55 -54.6 Q74.1 -55.2 73.15 -56.35 72.9 -53.7 75.55 -54.6 M73.9 -65.35 Q74.55 -61.85 74.3 -59.45 74.0 -57.55 73.15 -56.35 74.0 -57.55 74.3 -59.45 74.55 -61.85 73.9 -65.35 M76.0 -41.1 L73.65 -48.0 73.65 -51.0 77.6 -51.15 78.1 -51.0 Q80.2 -50.25 82.9 -48.4 L85.05 -46.9 81.55 -39.6 81.55 -43.65 76.35 -45.35 76.35 -40.65 76.0 -41.1 M74.85 -69.35 Q74.1 -75.35 69.2 -74.4 72.35 -73.85 74.85 -69.35 M97.05 -37.5 L97.65 -38.8 Q101.6 -41.75 104.05 -42.75 L103.75 -42.3 Q102.5 -40.6 98.65 -38.0 L97.05 -37.5 M72.45 -18.0 L72.35 -18.0 72.35 -18.05 72.35 -19.0 72.45 -18.9 72.45 -18.0 M83.2 -47.05 L81.65 -47.4 Q78.4 -48.2 76.15 -49.45 L74.4 -50.55 76.15 -49.45 Q78.4 -48.2 81.65 -47.4 L83.2 -47.05 M88.75 -60.85 Q87.4 -65.65 82.85 -65.8 81.45 -63.4 81.0 -59.8 L80.85 -58.4 Q83.7 -57.2 86.05 -57.2 87.8 -57.2 89.25 -57.85 L89.05 -59.5 88.75 -60.85 M91.8 -68.3 Q85.75 -72.5 81.05 -67.05 87.2 -69.85 91.8 -68.3 M61.45 31.2 Q59.7 32.7 56.8 33.8 52.0 33.3 44.5 28.6 L40.6 22.95 40.6 5.4 41.0 5.0 43.3 3.0 Q47.5 6.3 51.95 9.15 L51.4 12.8 Q55.0 12.25 57.65 12.7 56.9 23.55 61.45 31.2 M50.55 18.55 L51.4 12.8 50.55 18.55" fill="#ffdfc8" fill-rule="evenodd" stroke="none"/>
    <path d="M40.6 5.4 L40.6 4.6 41.0 5.0 40.6 5.4" fill="#77878c" fill-rule="evenodd" stroke="none"/>
    <path d="M40.6 4.6 L40.6 0.15 41.55 1.0 43.5 2.85 43.3 3.0 41.0 5.0 40.6 4.6" fill="#5f6b70" fill-rule="evenodd" stroke="none"/>
    <path d="M51.95 -17.1 L52.0 -17.15 56.5 -21.25 57.6 -22.25 60.15 -19.25 60.55 -18.85 Q66.35 -13.05 75.45 -9.75 L78.95 -8.6 81.1 -8.0 Q95.45 -5.35 118.05 -15.85 L122.25 -17.85 125.95 -19.75 126.0 -18.65 130.05 -22.0 135.35 -26.45 135.45 -26.5 135.4 -26.6 136.45 -26.0 136.45 5.85 135.6 5.4 129.4 -0.25 127.3 -3.25 125.75 -5.95 125.65 -6.1 125.35 -6.65 125.3 -6.75 123.55 -10.15 121.45 -14.85 119.35 -14.85 119.65 -13.8 121.4 -7.45 Q122.3 -3.95 123.1 -2.05 L123.85 -0.4 124.7 1.25 Q122.45 12.75 116.9 22.6 L115.65 24.75 118.2 36.2 Q116.7 40.4 114.4 42.25 107.15 44.3 94.8 44.45 L94.8 43.9 94.7 43.35 Q94.25 40.55 92.0 40.2 L90.85 40.05 76.9 37.95 75.25 34.05 Q71.85 25.9 74.0 14.5 L74.1 13.95 74.15 13.8 74.15 13.7 Q75.05 9.0 76.45 4.35 77.7 0.1 79.4 -4.1 L81.1 -8.0 79.4 -4.1 Q77.7 0.1 76.45 4.35 75.05 9.0 74.15 13.7 L74.15 13.8 74.1 13.95 74.0 14.5 Q71.85 25.9 75.25 34.05 L76.9 37.95 74.1 37.5 Q72.45 38.1 71.9 39.4 L71.75 39.8 70.9 39.5 67.6 37.9 66.55 37.4 Q63.45 34.6 61.45 31.2 56.9 23.55 57.65 12.7 L57.9 10.2 Q58.7 3.45 61.4 -4.5 L60.5 -6.05 59.95 -6.95 57.9 -7.0 57.25 -7.25 56.15 -7.7 55.9 -7.85 55.65 -7.95 54.7 -8.55 Q52.85 -9.85 52.0 -11.85 L51.95 -11.95 Q51.75 -13.55 51.8 -15.15 L51.95 -17.1 M56.5 -21.25 Q56.45 -19.55 56.65 -17.8 57.0 -14.05 58.4 -10.4 L58.5 -10.25 58.65 -9.8 58.65 -9.7 59.75 -7.3 59.95 -6.95 59.75 -7.3 58.65 -9.7 58.65 -9.8 58.5 -10.25 58.4 -10.4 Q57.0 -14.05 56.65 -17.8 56.45 -19.55 56.5 -21.25 M80.05 10.25 L79.95 10.25 80.05 10.35 80.05 10.25 M70.45 22.0 L70.35 22.0 70.45 22.1 70.45 22.0" fill="#fcdead" fill-rule="evenodd" stroke="none"/>
    <path d="M125.95 -19.75 L130.05 -22.0 126.0 -18.65 125.95 -19.75 M52.1 8.4 Q49.0 7.0 46.45 4.8 L44.25 2.55 46.25 -1.1 46.35 -1.25 Q49.55 -7.4 51.8 -15.15 51.75 -13.55 51.95 -11.95 L52.0 -11.85 Q52.85 -9.85 54.7 -8.55 L55.65 -7.95 55.9 -7.85 56.15 -7.7 57.25 -7.25 57.9 -7.0 59.95 -6.95 60.5 -6.05 61.4 -4.5 Q58.7 3.45 57.9 10.2 54.8 9.65 52.1 8.4 M121.4 -7.45 L119.65 -13.8 119.35 -14.85 121.45 -14.85 123.55 -10.15 125.3 -6.75 125.35 -6.65 125.65 -6.1 125.75 -5.95 127.3 -3.25 129.4 -0.25 135.6 5.4 136.45 5.85 136.45 26.85 135.0 26.75 Q133.75 18.15 129.45 9.2 L127.65 5.75 126.2 3.75 124.7 1.25 126.2 3.75 127.65 5.75 129.45 9.2 Q127.55 15.35 125.1 20.85 L125.3 30.65 125.75 32.75 Q124.3 36.95 122.0 38.7 120.0 40.35 116.75 41.55 L114.4 42.25 Q116.7 40.4 118.2 36.2 L115.65 24.75 116.9 22.6 Q122.45 12.75 124.7 1.25 L123.85 -0.4 123.1 -2.05 Q122.3 -3.95 121.4 -7.45" fill="#f9be79" fill-rule="evenodd" stroke="none"/>
    <path d="M70.35 22.0 L70.45 22.0 70.45 22.1 70.35 22.0" fill="#eebf5a" fill-rule="evenodd" stroke="none"/>
    <path d="M73.5 -92.55 L75.8 -93.1 78.65 -92.85 Q98.9 -90.85 104.9 -71.5 L105.3 -70.1 106.05 -67.0 106.25 -66.2 106.3 -65.85 106.3 -65.8 105.7 -65.9 105.3 -65.9 Q104.85 -65.95 104.5 -65.6 L104.3 -65.65 104.0 -65.65 Q103.45 -65.6 102.7 -65.0 L102.1 -64.4 101.95 -64.3 100.0 -66.9 99.5 -67.45 95.8 -71.0 Q89.95 -76.2 80.0 -78.5 L75.05 -79.45 Q71.25 -80.25 69.4 -79.1 68.35 -78.55 67.95 -77.3 66.45 -85.9 69.4 -87.4 70.0 -91.8 72.9 -92.4 L73.5 -92.55 M82.4 -84.85 Q79.25 -86.55 75.9 -87.15 L73.5 -87.5 69.4 -87.4 73.5 -87.5 75.9 -87.15 Q79.25 -86.55 82.4 -84.85 M53.0 -30.85 Q52.95 -34.45 56.85 -37.8 L57.7 -38.55 60.05 -40.25 Q63.35 -42.35 68.15 -44.3 L69.2 -44.7 69.3 -44.05 53.0 -30.85 M68.95 -32.25 Q69.55 -24.85 73.95 -21.2 81.9 -21.2 87.85 -25.55 93.3 -29.65 97.05 -37.5 L98.65 -38.0 Q102.5 -40.6 103.75 -42.3 L104.05 -42.75 Q104.85 -43.85 105.1 -44.8 105.4 -46.1 104.75 -47.1 L104.55 -47.4 104.75 -47.35 107.3 -46.65 107.6 -42.2 107.4 -46.55 Q108.7 -46.05 109.85 -45.15 114.95 -42.4 118.8 -37.85 128.85 -33.75 135.35 -26.45 L130.05 -22.0 125.95 -19.75 122.25 -17.85 118.05 -15.85 Q95.45 -5.35 81.1 -8.0 L78.95 -8.6 75.45 -9.75 Q66.35 -13.05 60.55 -18.85 L60.15 -19.25 57.6 -22.25 68.95 -32.25 M79.45 -14.15 L81.8 -14.4 82.25 -14.5 Q85.9 -15.1 88.35 -15.85 L89.85 -16.4 91.5 -17.1 95.3 -18.9 98.85 -21.2 100.95 -22.7 101.15 -22.8 106.2 -27.1 108.0 -29.0 108.25 -29.05 110.6 -29.5 112.8 -29.95 113.65 -30.25 114.4 -30.55 114.5 -30.55 116.25 -31.4 Q117.1 -31.85 118.0 -32.65 118.55 -33.3 118.75 -35.75 L118.8 -37.85 118.3 -36.0 Q117.1 -32.85 114.35 -32.15 L114.15 -32.05 112.4 -31.6 112.15 -31.7 111.85 -31.6 108.3 -30.9 107.4 -29.65 105.05 -27.05 Q99.35 -21.4 90.55 -18.0 L88.35 -17.25 82.3 -16.5 81.8 -16.45 79.15 -16.6 Q75.45 -17.05 72.45 -18.9 L72.35 -19.0 69.6 -20.2 69.6 -20.25 68.2 -20.9 68.0 -21.0 66.75 -21.6 67.8 -20.8 68.1 -20.6 Q68.4 -20.4 68.8 -20.15 L70.0 -19.4 72.35 -18.05 72.35 -18.0 72.45 -18.0 Q75.0 -15.9 77.65 -14.8 L79.0 -14.3 79.45 -14.15 M90.55 -79.15 Q97.1 -75.35 101.85 -69.25 L102.65 -68.25 104.25 -65.85 104.35 -65.8 104.4 -65.7 104.5 -65.6 104.4 -65.7 104.35 -65.8 104.25 -65.85 102.65 -68.25 101.85 -69.25 Q97.1 -75.35 90.55 -79.15 M99.4 -29.05 L97.55 -28.3 94.25 -27.1 Q90.75 -25.95 87.85 -25.55 90.75 -25.95 94.25 -27.1 L97.55 -28.3 99.4 -29.05" fill="#8cb562" fill-rule="evenodd" stroke="none"/>
    <path d="M118.8 -37.85 L118.75 -35.75 Q118.55 -33.3 118.0 -32.65 117.1 -31.85 116.25 -31.4 L114.5 -30.55 114.4 -30.55 113.65 -30.25 112.8 -29.95 110.6 -29.5 108.25 -29.05 108.0 -29.0 106.2 -27.1 101.15 -22.8 100.95 -22.7 98.85 -21.2 95.3 -18.9 91.5 -17.1 89.85 -16.4 88.35 -15.85 Q85.9 -15.1 82.25 -14.5 L81.8 -14.4 79.45 -14.15 79.0 -14.3 77.65 -14.8 Q75.0 -15.9 72.45 -18.0 L72.45 -18.9 Q75.45 -17.05 79.15 -16.6 L81.8 -16.45 82.3 -16.5 88.35 -17.25 90.55 -18.0 Q99.35 -21.4 105.05 -27.05 L107.4 -29.65 108.3 -30.9 111.85 -31.6 112.15 -31.7 112.4 -31.6 114.15 -32.05 114.35 -32.15 Q117.1 -32.85 118.3 -36.0 L118.8 -37.85 M72.35 -18.05 L70.0 -19.4 68.8 -20.15 Q68.4 -20.4 68.1 -20.6 L67.8 -20.8 66.75 -21.6 68.0 -21.0 68.2 -20.9 69.6 -20.25 69.6 -20.2 72.35 -19.0 72.35 -18.05" fill="#5f803c" fill-rule="evenodd" stroke="none"/>
    <path d="M94.8 44.45 Q107.15 44.3 114.4 42.25 L116.75 41.55 Q120.0 40.35 122.0 38.7 125.75 42.35 124.25 47.6 L123.25 48.2 94.8 48.2 94.8 44.45" fill="#684942" fill-rule="evenodd" stroke="none"/>
    <path d="M90.85 40.05 L92.0 40.2 Q94.25 40.55 94.7 43.35 L94.8 43.9 94.8 44.45 94.8 48.2 93.05 48.2 92.85 44.65 92.85 44.5 Q93.0 42.25 90.85 40.05 M88.95 48.2 L74.3 48.2 74.3 41.4 89.0 43.55 88.95 48.2" fill="#c5c5c5" fill-rule="evenodd" stroke="none"/>
    <path d="M76.9 37.95 L90.85 40.05 Q93.0 42.25 92.85 44.5 L92.85 44.65 93.05 48.2 88.95 48.2 89.0 43.55 74.3 41.4 74.3 48.2 71.6 48.2 71.6 40.65 Q71.6 40.2 71.75 39.8 L71.9 39.4 Q72.45 38.1 74.1 37.5 L76.9 37.95" fill="#dadada" fill-rule="evenodd" stroke="none"/>
    <path d="M80.05 10.25 L80.05 10.35 79.95 10.25 80.05 10.25" fill="#cecece" fill-rule="evenodd" stroke="none"/>
    <path d="M71.6 48.2 L68.95 48.2 67.35 46.7 Q65.45 40.55 66.55 37.4 L67.6 37.9 70.9 39.5 71.75 39.8 Q71.6 40.2 71.6 40.65 L71.6 48.2" fill="#956c5e" fill-rule="evenodd" stroke="none"/>
    <path d="M128.1 -115.75 Q113.8 -116.4 111.0 -114.95 L116.9 -125.9 123.15 -125.9 124.6 -125.7 124.45 -125.9 135.15 -125.9 Q129.3 -120.0 128.1 -115.75" fill="#cfcfd3" fill-rule="evenodd" stroke="none"/>
    <path d="M135.15 -125.9 L136.45 -125.9 136.45 -113.5 Q132.4 -115.3 128.1 -115.75 129.3 -120.0 135.15 -125.9" fill="#a09fa8" fill-rule="evenodd" stroke="none"/>
    <path d="M127.65 -88.25 L126.0 -90.35 136.45 -98.5 136.45 -88.45 130.85 -84.1 129.95 -85.25 127.65 -88.25" fill="#97979d" fill-rule="evenodd" stroke="none"/>
    <path d="M122.2 -75.2 L120.8 -78.35 129.95 -85.25 130.85 -84.1 132.0 -82.6 122.2 -75.2 M76.0 -41.1 L76.35 -40.65 76.35 -40.15 76.0 -41.1 M68.9 -36.65 Q68.8 -34.3 68.95 -32.25 L57.6 -22.25 56.5 -21.25 52.0 -17.15 51.95 -17.1 40.6 -6.35 40.6 -11.0 52.0 -21.65 53.15 -22.7 55.5 -24.85 68.9 -36.65" fill="#786850" fill-rule="evenodd" stroke="none"/>
    <path d="M136.45 -88.45 L136.45 -82.65 133.65 -80.5 132.0 -82.6 130.85 -84.1 136.45 -88.45" fill="#7d7d86" fill-rule="evenodd" stroke="none"/>
    <path d="M120.8 -78.35 L118.95 -81.9 127.65 -88.25 129.95 -85.25 120.8 -78.35 M69.3 -44.05 Q69.5 -42.4 70.1 -40.65 69.7 -40.2 68.95 -37.0 L68.9 -36.65 55.5 -24.85 53.15 -22.7 52.0 -21.65 40.6 -11.0 40.6 -20.5 52.0 -30.05 53.0 -30.85 69.3 -44.05" fill="#9f8c6f" fill-rule="evenodd" stroke="none"/>
    <path d="M71.6 -62.45 L71.9 -62.35 Q72.65 -62.4 73.2 -63.4 73.75 -64.45 73.8 -65.85 73.9 -67.3 73.45 -68.3 72.95 -69.35 72.25 -69.35 71.5 -69.35 70.9 -68.3 70.35 -67.3 70.3 -65.85 70.25 -64.45 70.75 -63.4 L70.75 -63.35 Q70.0 -64.35 69.55 -65.65 L69.55 -66.25 Q70.8 -72.5 73.7 -69.1 74.0 -67.3 73.9 -65.35 73.9 -63.35 73.5 -61.2 72.4 -61.65 71.6 -62.45 M73.2 -66.75 L73.1 -66.65 73.0 -66.45 Q72.75 -66.15 72.35 -66.15 71.9 -66.15 71.65 -66.45 71.4 -66.8 71.45 -67.3 L71.6 -67.6 71.8 -68.05 Q72.05 -68.4 72.45 -68.4 72.85 -68.4 73.1 -68.05 L73.3 -67.3 73.2 -66.75 M84.55 -65.2 Q83.6 -65.2 82.9 -64.1 82.2 -62.95 82.15 -61.3 L82.2 -60.0 Q82.3 -59.2 82.65 -58.5 83.25 -57.4 84.25 -57.45 85.2 -57.4 85.95 -58.5 86.5 -59.4 86.6 -60.65 L86.65 -61.3 Q86.75 -62.95 86.2 -64.1 85.55 -65.2 84.55 -65.2 M85.9 -62.25 L85.6 -61.9 Q85.25 -61.55 84.75 -61.55 84.25 -61.55 83.9 -61.9 83.5 -62.3 83.5 -62.8 L83.7 -63.35 83.95 -63.65 Q84.3 -64.0 84.8 -64.0 85.3 -64.0 85.65 -63.65 L86.1 -62.8 85.9 -62.25 M88.75 -60.85 L89.05 -59.5 89.25 -57.85 Q87.8 -57.2 86.05 -57.2 83.7 -57.2 80.85 -58.4 L81.0 -59.8 Q81.45 -63.4 82.85 -65.8 87.4 -65.65 88.75 -60.85" fill="#ffffff" fill-rule="evenodd" stroke="none"/>
    <path d="M70.75 -63.35 L70.75 -63.4 Q70.25 -64.45 70.3 -65.85 70.35 -67.3 70.9 -68.3 71.5 -69.35 72.25 -69.35 72.95 -69.35 73.45 -68.3 73.9 -67.3 73.8 -65.85 73.75 -64.45 73.2 -63.4 72.65 -62.4 71.9 -62.35 L71.6 -62.45 Q71.1 -62.65 70.75 -63.35 M73.2 -66.75 L73.3 -67.3 73.1 -68.05 Q72.85 -68.4 72.45 -68.4 72.05 -68.4 71.8 -68.05 L71.6 -67.6 71.3 -67.35 Q70.95 -66.75 70.9 -65.9 70.85 -65.0 71.15 -64.4 71.5 -63.75 71.95 -63.75 72.45 -63.75 72.85 -64.4 73.2 -65.0 73.2 -65.85 L73.2 -66.75 M84.55 -65.2 Q85.55 -65.2 86.2 -64.1 86.75 -62.95 86.65 -61.3 L86.6 -60.65 Q86.5 -59.4 85.95 -58.5 85.2 -57.4 84.25 -57.45 83.25 -57.4 82.65 -58.5 82.3 -59.2 82.2 -60.0 L82.15 -61.3 Q82.2 -62.95 82.9 -64.1 83.6 -65.2 84.55 -65.2 M85.9 -62.25 L86.1 -62.8 85.65 -63.65 Q85.3 -64.0 84.8 -64.0 84.3 -64.0 83.95 -63.65 L83.7 -63.35 83.4 -62.95 Q82.9 -62.3 82.85 -61.4 82.8 -60.7 83.0 -60.15 L83.25 -59.6 Q83.65 -58.9 84.3 -58.9 84.9 -58.9 85.4 -59.6 L85.85 -60.55 85.95 -61.3 85.9 -62.25" fill="#0099ff" fill-rule="evenodd" stroke="none"/>
    <path d="M71.6 -67.6 L71.45 -67.3 Q71.4 -66.8 71.65 -66.45 71.9 -66.15 72.35 -66.15 72.75 -66.15 73.0 -66.45 L73.1 -66.65 73.2 -66.75 73.2 -65.85 Q73.2 -65.0 72.85 -64.4 72.45 -63.75 71.95 -63.75 71.5 -63.75 71.15 -64.4 70.85 -65.0 70.9 -65.9 70.95 -66.75 71.3 -67.35 L71.6 -67.6 M83.7 -63.35 L83.5 -62.8 Q83.5 -62.3 83.9 -61.9 84.25 -61.55 84.75 -61.55 85.25 -61.55 85.6 -61.9 L85.9 -62.25 85.95 -61.3 85.85 -60.55 85.4 -59.6 Q84.9 -58.9 84.3 -58.9 83.65 -58.9 83.25 -59.6 L83.0 -60.15 Q82.8 -60.7 82.85 -61.4 82.9 -62.3 83.4 -62.95 L83.7 -63.35" fill="#000000" fill-rule="evenodd" stroke="none"/>
    <path d="M74.85 -69.35 Q72.35 -73.85 69.2 -74.4 74.1 -75.35 74.85 -69.35 M91.8 -68.3 Q87.2 -69.85 81.05 -67.05 85.75 -72.5 91.8 -68.3" fill="#503e53" fill-rule="evenodd" stroke="none"/>
    <path d="M73.5 -92.55 Q77.85 -99.05 83.45 -101.7 86.45 -103.1 89.9 -103.35 L92.75 -103.45 Q104.65 -102.85 118.05 -100.55 112.85 -99.45 110.35 -95.9 112.95 -94.25 114.4 -91.85 118.95 -84.45 118.6 -82.45 L118.95 -81.9 120.8 -78.35 122.2 -75.2 Q123.6 -71.75 124.25 -68.55 122.15 -70.05 119.8 -70.85 L119.35 -71.05 118.05 -71.45 118.05 -69.95 118.05 -68.6 Q117.65 -62.7 114.85 -59.65 115.1 -62.9 114.0 -65.5 L113.8 -65.85 112.8 -67.5 Q112.2 -64.8 111.0 -62.15 L110.85 -61.8 Q109.5 -59.05 107.45 -56.45 L106.85 -55.7 Q107.9 -57.9 108.0 -60.05 L107.9 -62.55 107.75 -63.4 107.6 -63.95 106.85 -65.8 106.3 -65.85 106.25 -66.2 106.05 -67.0 105.3 -70.1 104.9 -71.5 Q98.9 -90.85 78.65 -92.85 L75.8 -93.1 73.5 -92.55 M70.05 -51.55 L70.65 -52.95 Q74.05 -54.8 77.4 -54.1 79.0 -53.8 80.55 -52.95 82.55 -51.85 84.55 -49.8 L86.2 -48.0 95.7 -50.65 95.85 -50.65 95.95 -51.0 Q96.95 -53.35 97.4 -55.85 L97.55 -56.95 97.7 -60.45 Q97.7 -63.0 97.2 -65.7 L97.15 -65.8 95.8 -71.0 99.5 -67.45 100.0 -66.9 101.95 -64.3 101.8 -63.65 100.75 -58.55 99.8 -52.0 100.35 -48.5 100.65 -47.4 Q99.35 -42.7 97.65 -38.8 L97.05 -37.5 Q93.3 -29.65 87.85 -25.55 81.9 -21.2 73.95 -21.2 69.55 -24.85 68.95 -32.25 68.8 -34.3 68.9 -36.65 L68.95 -37.0 Q69.7 -40.2 70.1 -40.65 69.5 -42.4 69.3 -44.05 L69.2 -44.7 Q68.85 -48.25 70.05 -51.55 M80.0 -78.5 Q77.05 -76.35 76.0 -72.45 74.7 -75.5 75.05 -79.45 L80.0 -78.5 M76.35 -40.65 L76.35 -45.35 81.55 -43.65 81.55 -39.6 85.05 -46.9 82.9 -48.4 Q80.2 -50.25 78.1 -51.0 L77.6 -51.15 73.65 -51.0 73.65 -48.0 76.0 -41.1 76.35 -40.15 76.35 -40.65 M102.1 -64.4 L102.7 -65.0 102.35 -64.55 102.05 -63.85 101.95 -63.65 102.0 -63.8 102.1 -64.4" fill="#3d3148" fill-rule="evenodd" stroke="none"/>
    <path d="M104.5 -53.5 Q104.4 -50.35 104.75 -47.35 M104.75 -47.1 L105.1 -44.8 M61.45 31.2 Q59.7 32.7 56.8 33.8 52.0 33.3 44.5 28.6 L40.6 22.95 M43.3 3.0 Q47.5 6.3 51.95 9.15 L52.1 8.4 M70.45 22.0 L70.45 22.1 70.35 22.0 M51.4 12.8 L50.55 18.55 M51.95 9.15 L51.4 12.8" fill="none" stroke="#d7995e" stroke-linecap="round" stroke-linejoin="round" stroke-width="0.05"/>
    <path d="M40.6 0.15 L41.55 1.0 43.5 2.85 43.3 3.0 M40.6 5.4 L41.0 5.0 43.3 3.0" fill="none" stroke="#3d4547" stroke-linecap="round" stroke-linejoin="round" stroke-width="0.05"/>
    <path d="M59.95 -6.95 L59.75 -7.3 58.65 -9.7 58.65 -9.8 58.5 -10.25 58.4 -10.4 Q57.0 -14.05 56.65 -17.8 56.45 -19.55 56.5 -21.25 M51.8 -15.15 L51.95 -17.1 M51.8 -15.15 Q49.55 -7.4 46.35 -1.25 L46.25 -1.1 44.25 2.55 46.45 4.8 Q49.0 7.0 52.1 8.4 54.8 9.65 57.9 10.2 58.7 3.45 61.4 -4.5 L60.5 -6.05 59.95 -6.95 M51.95 -11.95 Q51.75 -13.55 51.8 -15.15 M121.4 -7.45 Q122.3 -3.95 123.1 -2.05 L123.85 -0.4 124.7 1.25 126.2 3.75 127.65 5.75 129.45 9.2 Q133.75 18.15 135.0 26.75 L136.45 26.85 M136.45 -26.0 L135.4 -26.6 M81.1 -8.0 L79.4 -4.1 Q77.7 0.1 76.45 4.35 75.05 9.0 74.15 13.7 L74.15 13.8 74.1 13.95 74.0 14.5 Q71.85 25.9 75.25 34.05 L76.9 37.95 M129.45 9.2 Q127.55 15.35 125.1 20.85 L125.3 30.65 M125.75 32.75 Q124.3 36.95 122.0 38.7 M66.55 37.4 Q63.45 34.6 61.45 31.2 M57.9 10.2 L57.65 12.7 Q56.9 23.55 61.45 31.2" fill="none" stroke="#975506" stroke-linecap="round" stroke-linejoin="round" stroke-width="0.05"/>
    <path d="M53.0 -30.85 Q52.95 -34.45 56.85 -37.8 L57.7 -38.55 60.05 -40.25 Q63.35 -42.35 68.15 -44.3 L69.2 -44.7 M57.6 -22.25 L60.15 -19.25 60.55 -18.85 Q66.35 -13.05 75.45 -9.75 L78.95 -8.6 81.1 -8.0 Q95.45 -5.35 118.05 -15.85 L122.25 -17.85 125.95 -19.75 130.05 -22.0 M135.35 -26.45 Q128.85 -33.75 118.8 -37.85 L118.75 -35.75 Q118.55 -33.3 118.0 -32.65 117.1 -31.85 116.25 -31.4 L114.5 -30.55 114.4 -30.55 113.65 -30.25 112.8 -29.95 110.6 -29.5 108.25 -29.05 108.0 -29.0 106.2 -27.1 101.15 -22.8 100.95 -22.7 98.85 -21.2 95.3 -18.9 91.5 -17.1 89.85 -16.4 88.35 -15.85 Q85.9 -15.1 82.25 -14.5 L81.8 -14.4 79.45 -14.15 M118.8 -37.85 Q114.95 -42.4 109.85 -45.15 108.7 -46.05 107.4 -46.55 M107.3 -46.65 L104.75 -47.35 104.55 -47.4 104.75 -47.1 Q105.4 -46.1 105.1 -44.8 104.85 -43.85 104.05 -42.75 L103.75 -42.3 Q102.5 -40.6 98.65 -38.0 L97.05 -37.5 M87.85 -25.55 Q90.75 -25.95 94.25 -27.1 L97.55 -28.3 99.4 -29.05" fill="none" stroke="#567337" stroke-linecap="round" stroke-linejoin="round" stroke-width="0.05"/>
    <path d="M125.3 30.65 L125.75 32.75" fill="none" stroke="#548584" stroke-linecap="round" stroke-linejoin="round" stroke-width="0.05"/>
    <path d="M94.8 44.45 Q107.15 44.3 114.4 42.25 M122.0 38.7 Q125.75 42.35 124.25 47.6 L123.25 48.2 M68.95 48.2 L67.35 46.7 Q65.45 40.55 66.55 37.4 L67.6 37.9 70.9 39.5 71.75 39.8 M122.0 38.7 Q120.0 40.35 116.75 41.55 L114.4 42.25" fill="none" stroke="#3f2c27" stroke-linecap="round" stroke-linejoin="round" stroke-width="0.05"/>
    <path d="M127.65 -88.25 L126.0 -90.35 136.45 -98.5 M136.45 -82.65 L133.65 -80.5 132.0 -82.6 M128.1 -115.75 Q113.8 -116.4 111.0 -114.95 L116.9 -125.9 M123.15 -125.9 L124.6 -125.7 124.45 -125.9 M136.45 -113.5 Q132.4 -115.3 128.1 -115.75 M129.95 -85.25 L130.85 -84.1 132.0 -82.6 M129.95 -85.25 L127.65 -88.25 M76.9 37.95 L90.85 40.05 92.0 40.2 Q94.25 40.55 94.7 43.35 L94.8 43.9 94.8 44.45 M94.8 48.2 L94.8 44.45 M71.75 39.8 L71.9 39.4 Q72.45 38.1 74.1 37.5 L76.9 37.95 M71.75 39.8 Q71.6 40.2 71.6 40.65 L71.6 48.2" fill="none" stroke="#666666" stroke-linecap="round" stroke-linejoin="round" stroke-width="0.05"/>
    <path d="M118.95 -81.9 L127.65 -88.25 M132.0 -82.6 L122.2 -75.2 M40.6 -20.5 L52.0 -30.05 53.0 -30.85 69.3 -44.05 M40.6 -6.35 L51.95 -17.1 52.0 -17.15 56.5 -21.25 57.6 -22.25 68.95 -32.25" fill="none" stroke="#453a2e" stroke-linecap="round" stroke-linejoin="round" stroke-width="0.05"/>
    <path d="M69.4 -79.1 L69.35 -78.9 68.25 -74.2 Q67.95 -72.55 68.4 -67.05 L66.8 -62.15 Q65.55 -58.45 67.7 -55.7 L70.05 -51.55 M71.6 -62.45 Q72.4 -61.65 73.5 -61.2 73.9 -63.35 73.9 -65.35 74.0 -67.3 73.7 -69.1 70.8 -72.5 69.55 -66.25 M69.55 -65.65 Q70.0 -64.35 70.75 -63.35 71.1 -62.65 71.6 -62.45 M69.55 -65.65 L69.45 -65.8 69.55 -66.25 M75.55 -54.6 Q72.9 -53.7 73.15 -56.35 74.0 -57.55 74.3 -59.45 74.55 -61.85 73.9 -65.35 M76.0 -41.1 L76.35 -40.65 M74.4 -50.55 L76.15 -49.45 Q78.4 -48.2 81.65 -47.4 L83.2 -47.05 M88.75 -60.85 Q87.4 -65.65 82.85 -65.8 81.45 -63.4 81.0 -59.8 L80.85 -58.4 Q83.7 -57.2 86.05 -57.2 87.8 -57.2 89.25 -57.85 L89.05 -59.5 88.75 -60.85 M104.0 -65.65 Q103.1 -65.1 102.45 -64.15 L102.3 -63.95 101.85 -63.1 M103.95 -60.6 L104.4 -61.4 104.4 -61.45 105.45 -62.5 M107.45 -56.45 L107.4 -56.25 107.25 -56.0 106.75 -55.05 104.5 -53.5 103.8 -53.0 100.35 -48.5 M103.95 -60.6 L103.75 -60.1 103.4 -59.0 103.25 -58.4 104.8 -57.2 105.1 -56.8 M103.25 -58.4 Q103.1 -57.3 103.2 -55.9" fill="none" stroke="#d7995e" stroke-linecap="round" stroke-linejoin="round" stroke-width="0.05"/>
    <path d="M74.85 -69.35 Q72.35 -73.85 69.2 -74.4 74.1 -75.35 74.85 -69.35 M91.8 -68.3 Q85.75 -72.5 81.05 -67.05 87.2 -69.85 91.8 -68.3" fill="none" stroke="#5b4961" stroke-linecap="round" stroke-linejoin="round" stroke-width="0.05"/>
    <path d="M73.5 -92.55 L75.8 -93.1 78.65 -92.85 Q98.9 -90.85 104.9 -71.5 L105.3 -70.1 106.05 -67.0 106.25 -66.2 106.3 -65.85 M73.5 -92.55 L72.9 -92.4 Q70.0 -91.8 69.4 -87.4 L73.5 -87.5 75.9 -87.15 Q79.25 -86.55 82.4 -84.85 M95.8 -71.0 Q89.95 -76.2 80.0 -78.5 M75.05 -79.45 Q71.25 -80.25 69.4 -79.1 68.35 -78.55 67.95 -77.3 66.45 -85.9 69.4 -87.4 M75.05 -79.45 L80.0 -78.5 M101.95 -64.3 L100.0 -66.9 99.5 -67.45 95.8 -71.0 M104.5 -65.6 L104.4 -65.7 104.35 -65.8 104.25 -65.85 102.65 -68.25 101.85 -69.25 Q97.1 -75.35 90.55 -79.15 M104.0 -65.65 L104.3 -65.65 104.5 -65.6 Q104.85 -65.95 105.3 -65.9 L105.7 -65.9 106.3 -65.8 106.3 -65.85 M101.95 -64.3 L102.1 -64.4 102.7 -65.0 Q103.45 -65.6 104.0 -65.65" fill="none" stroke="#567337" stroke-linecap="round" stroke-linejoin="round" stroke-width="0.05"/>
  </g>
</svg>
