<?xml version="1.0" encoding="UTF-8" standalone="no"?>
<svg xmlns:xlink="http://www.w3.org/1999/xlink" height="150.25px" width="95.65px" xmlns="http://www.w3.org/2000/svg">
  <g transform="matrix(1, 0, 0, 1, -41.55, 103.4)">
    <path d="M71.75 7.95 L71.6 2.95 71.6 2.65 71.6 1.8 71.65 0.35 71.65 -0.05 71.75 -1.5 72.1 -0.5 72.15 -0.45 72.55 0.85 73.3 3.7 Q74.05 7.25 73.1 8.0 L71.75 7.95 M93.1 -2.4 Q95.65 -3.6 97.85 -3.9 101.15 -4.4 101.7 -2.7 102.2 -1.0 99.65 1.9 97.95 3.8 95.55 5.5 L93.05 7.15 Q89.4 9.2 86.45 9.85 L85.6 10.0 Q82.35 10.5 81.85 8.8 81.6 8.15 81.85 7.35 82.25 6.0 83.8 4.2 L85.6 2.45 Q87.65 0.55 90.5 -1.05 L93.1 -2.4" fill="#ff0000" fill-rule="evenodd" stroke="none"/>
    <path d="M84.55 -30.0 L84.9 -30.35 Q79.1 -33.7 74.25 -37.45 L71.4 -39.75 66.6 -34.65 66.05 -34.65 62.85 -34.6 61.7 -34.55 54.55 -33.75 49.75 -32.8 51.7 -35.5 51.75 -35.55 51.85 -35.7 Q53.25 -34.75 55.2 -34.85 61.75 -46.35 65.75 -51.65 76.45 -55.15 85.4 -52.35 L78.55 -49.2 90.8 -42.05 89.1 -39.9 92.3 -37.35 89.0 -34.5 88.4 -33.9 86.7 -32.25 86.9 -32.15 85.35 -30.75 84.9 -30.3 84.55 -30.0 M75.5 -31.85 L67.15 -29.2 80.05 -24.05 79.45 -23.15 78.55 -21.65 75.75 -16.3 Q74.85 -14.4 74.1 -12.3 63.75 -16.15 56.25 -20.85 L53.55 -19.1 Q47.2 -9.4 43.6 -5.4 L41.55 -4.0 41.55 -9.2 42.45 -11.8 41.55 -11.2 41.55 -22.25 Q51.0 -30.65 58.95 -31.6 L69.2 -32.5 74.15 -32.05 75.5 -31.85 M41.55 -2.0 L43.6 -3.4 48.9 -6.55 43.7 1.2 45.55 0.45 43.7 3.2 60.7 -3.8 60.45 -2.85 68.5 -5.15 Q70.8 -4.25 71.9 -3.0 L71.75 -1.5 71.65 -0.05 71.65 0.35 71.6 1.8 71.6 2.65 71.6 2.95 71.75 7.95 71.95 10.4 69.9 12.45 69.2 11.25 68.7 9.9 Q67.8 7.1 68.65 4.45 53.85 11.35 41.55 14.65 L41.55 -2.0 M74.35 23.0 Q74.0 19.2 74.1 15.8 74.1 14.1 74.25 12.5 L74.4 10.8 74.5 10.15 74.55 9.6 74.7 8.75 Q75.05 6.45 75.55 4.25 L76.25 1.15 77.2 -2.15 78.95 -7.15 80.3 -10.35 Q82.1 -14.35 84.4 -18.1 87.3 -22.8 90.95 -27.1 L92.1 -28.45 95.2 -31.8 99.7 -36.3 102.75 -39.05 109.75 -44.95 111.75 -46.45 111.05 -45.95 Q117.25 -50.7 124.3 -55.1 L127.1 -56.9 130.4 -58.5 131.45 -58.95 130.95 -61.3 130.45 -64.15 130.2 -66.3 130.0 -68.7 Q128.95 -84.5 137.2 -97.0 L137.2 -5.95 135.6 -5.95 135.6 3.4 129.35 2.0 Q125.1 4.25 126.35 7.5 L126.7 8.25 Q126.65 7.75 126.75 7.3 127.1 5.35 129.95 3.85 L135.6 5.1 135.6 13.8 132.0 12.45 130.75 13.55 130.4 13.8 Q129.3 14.5 128.0 14.9 124.65 15.95 121.5 14.6 L121.15 14.4 121.15 15.0 Q121.1 17.05 120.05 19.0 118.55 21.95 115.55 23.2 L115.2 23.35 114.6 23.55 112.7 23.95 Q104.05 33.75 95.9 40.55 L96.15 42.55 96.7 46.85 83.1 46.85 Q84.95 39.4 87.65 33.05 L89.05 29.9 Q91.1 25.55 93.6 21.75 L94.8 14.1 92.75 16.75 92.4 17.25 91.7 18.25 Q88.9 22.35 86.65 27.1 L83.2 31.7 Q78.05 34.25 73.4 34.4 L70.9 34.25 70.95 34.15 80.2 29.55 84.7 17.7 Q87.25 16.35 89.2 16.1 L89.2 16.0 89.0 16.0 88.25 16.1 Q86.3 16.35 83.75 17.7 L82.05 22.1 74.35 23.0 M97.45 -60.1 Q103.1 -66.55 112.95 -69.45 117.5 -67.95 125.45 -64.15 L125.95 -61.3 126.45 -58.95 125.4 -58.5 121.85 -56.8 120.3 -56.0 118.85 -56.35 114.15 -57.35 112.35 -51.6 108.3 -49.05 107.4 -48.45 104.6 -46.55 104.1 -46.25 104.0 -46.15 Q100.65 -43.9 97.8 -41.7 L99.5 -47.45 96.9 -48.25 102.9 -61.1 97.45 -60.1 M93.1 -2.4 L90.5 -1.05 Q87.65 0.55 85.6 2.45 L83.8 4.2 Q82.25 6.0 81.85 7.35 81.6 8.15 81.85 8.8 82.35 10.5 85.6 10.0 L86.45 9.85 Q89.4 9.2 93.05 7.15 L95.55 5.5 Q97.95 3.8 99.65 1.9 102.2 -1.0 101.7 -2.7 101.15 -4.4 97.85 -3.9 95.65 -3.6 93.1 -2.4 M72.6 16.8 L65.3 21.7 62.8 29.85 Q62.25 26.75 62.35 24.4 L62.35 24.25 Q62.4 22.4 62.9 21.0 L72.0 12.0 72.5 16.2 72.6 16.8 M96.25 23.15 L95.25 29.7 106.45 17.4 105.6 12.9 102.65 16.1 Q102.45 15.05 102.55 14.0 L98.8 15.85 98.55 15.95 94.2 17.95 92.85 26.9 96.25 23.15" fill="#000000" fill-rule="evenodd" stroke="none"/>
    <path d="M66.6 -34.65 L71.55 -34.2 Q75.05 -33.75 78.2 -32.7 L75.5 -31.85 74.15 -32.05 69.2 -32.5 58.95 -31.6 Q51.0 -30.65 41.55 -22.25 L41.55 -26.65 48.6 -32.55 49.75 -32.8 54.55 -33.75 61.7 -34.55 62.85 -34.6 66.05 -34.65 66.6 -34.65 M80.05 -24.05 Q82.1 -27.2 84.55 -30.0 L84.9 -30.3 85.35 -30.75 86.9 -32.15 86.7 -32.25 88.4 -33.9 89.0 -34.5 92.3 -37.35 94.75 -39.4 97.8 -41.7 Q100.65 -43.9 104.0 -46.15 L104.1 -46.25 104.6 -46.55 107.4 -48.45 108.3 -49.05 112.35 -51.6 118.5 -55.05 120.3 -56.0 121.85 -56.8 125.4 -58.5 126.45 -58.95 125.95 -61.3 125.45 -64.15 Q117.5 -67.95 112.95 -69.45 103.1 -66.55 97.45 -60.1 L94.05 -59.5 Q99.75 -69.7 112.95 -73.6 117.5 -72.1 125.0 -68.7 123.7 -88.65 137.2 -103.4 L137.2 -97.0 Q128.95 -84.5 130.0 -68.7 L130.2 -66.3 130.45 -64.15 130.95 -61.3 131.45 -58.95 130.4 -58.5 127.1 -56.9 124.3 -55.1 Q117.25 -50.7 111.05 -45.95 L111.75 -46.45 109.75 -44.95 102.75 -39.05 99.7 -36.3 95.2 -31.8 92.1 -28.45 90.95 -27.1 Q87.3 -22.8 84.4 -18.1 82.1 -14.35 80.3 -10.35 L78.95 -7.15 77.2 -2.15 76.25 1.15 75.55 4.25 Q75.05 6.45 74.7 8.75 L74.55 9.6 74.5 10.15 74.4 10.8 74.25 12.5 Q74.1 14.1 74.1 15.8 74.0 19.2 74.35 23.0 73.4 20.2 73.0 18.0 L72.75 16.7 72.6 16.8 72.5 16.2 72.0 12.0 62.9 21.0 Q62.4 22.4 62.35 24.25 L62.35 24.4 Q62.25 26.75 62.8 29.85 L62.65 30.4 Q61.9 27.05 61.85 24.5 L61.85 24.35 Q61.75 21.7 62.4 19.85 L69.9 12.45 71.95 10.4 71.75 7.95 73.1 8.0 Q74.05 7.25 73.3 3.7 L72.55 0.85 72.15 -0.45 72.1 -0.5 71.75 -1.5 71.9 -3.0 72.15 -5.0 72.7 -7.85 Q73.1 -9.6 73.65 -11.15 L74.1 -12.3 Q74.85 -14.4 75.75 -16.3 L78.55 -21.65 79.45 -23.15 80.05 -24.05 M85.4 -52.35 Q76.45 -55.15 65.75 -51.65 61.75 -46.35 55.2 -34.85 53.25 -34.75 51.85 -35.7 L51.75 -35.55 Q58.9 -48.15 63.15 -53.8 76.25 -58.1 86.7 -52.95 L85.4 -52.35 M41.55 -4.0 L43.6 -5.4 Q47.2 -7.8 50.95 -9.55 L48.9 -6.55 43.6 -3.4 41.55 -2.0 41.55 -4.0 M60.7 -3.8 L43.7 3.2 45.55 0.45 61.25 -6.05 60.7 -3.8 M135.6 3.4 L135.6 5.1 129.95 3.85 Q127.1 5.35 126.75 7.3 126.65 7.75 126.7 8.25 L126.35 7.5 Q125.1 4.25 129.35 2.0 L135.6 3.4 M83.1 46.85 L80.35 46.85 80.2 46.25 Q82.15 37.55 85.25 30.25 L86.65 27.1 Q88.9 22.35 91.7 18.25 L92.4 17.25 92.75 16.75 94.8 14.1 93.6 21.75 Q91.1 25.55 89.05 29.9 L87.65 33.05 Q84.95 39.4 83.1 46.85 M70.9 34.25 L70.0 34.15 79.25 29.55 82.1 22.1 82.05 22.1 83.75 17.7 Q86.3 16.35 88.25 16.1 L89.0 16.0 89.2 16.0 89.2 16.1 Q87.25 16.35 84.7 17.7 L80.2 29.55 70.95 34.15 70.9 34.25 M102.65 16.1 L105.6 12.9 106.45 17.4 95.25 29.7 96.25 23.15 102.65 16.1" fill="#666666" fill-rule="evenodd" stroke="none"/>
    <path d="M71.9 -3.0 Q70.8 -4.25 68.5 -5.15 L60.45 -2.85" fill="none" stroke="#999999" stroke-linecap="round" stroke-linejoin="round" stroke-width="0.05"/>
  </g>
</svg>
