<?xml version="1.0" encoding="UTF-8" standalone="no"?>
<svg xmlns:xlink="http://www.w3.org/1999/xlink" height="174.5px" width="94.25px" xmlns="http://www.w3.org/2000/svg">
  <g transform="matrix(1, 0, 0, 1, -40.75, 123.9)">
    <path d="M117.3 5.0 L117.2 4.9 117.3 4.8 117.3 5.0 M65.0 11.15 L65.0 11.1 65.1 11.15 65.0 11.15" fill="#ffdfc8" fill-rule="evenodd" stroke="none"/>
    <path d="M135.0 -29.5 L135.0 -7.8 133.75 -7.3 133.1 -7.1 132.35 -6.85 130.3 -6.45 126.8 -6.15 126.05 -6.1 124.9 -6.0 124.55 -6.0 123.5 -7.3 Q120.7 -12.05 122.75 -19.7 124.1 -24.0 125.85 -26.15 L126.8 -27.4 128.0 -28.7 129.45 -29.45 Q130.3 -29.8 135.0 -29.5 M69.8 50.6 L61.9 50.6 Q60.05 43.85 62.85 42.4 62.55 44.1 62.6 45.8 64.2 47.6 66.65 49.05 68.05 49.9 69.8 50.6 M60.2 -0.75 L59.75 -1.5 Q59.25 -3.7 59.9 -7.05 L60.9 -11.1 62.2 -14.9 62.65 -16.05 63.05 -17.15 64.25 -14.7 65.5 -12.2 67.2 -9.25 75.35 -20.35 78.5 -19.35 80.2 -19.1 80.95 -19.2 81.2 -18.65 87.0 -6.1 Q100.95 -11.55 113.25 -22.5 115.5 -19.1 116.8 -16.0 L117.7 -13.2 Q119.6 -6.3 117.75 2.65 L117.3 4.8 117.2 4.9 117.3 5.0 117.1 5.1 Q112.55 20.6 90.1 16.15 L89.1 15.55 85.8 13.85 82.35 12.55 Q79.0 12.5 76.3 13.5 73.55 14.45 71.45 16.4 65.85 14.4 65.0 11.25 L65.1 11.15 65.1 11.05 Q64.95 7.3 65.1 5.65 L64.55 5.1 64.55 5.0 Q62.0 2.15 60.2 -0.75 M46.9 34.05 L47.05 34.4 Q50.55 43.4 49.55 50.6 L40.75 50.6 40.75 36.6 Q43.35 37.3 46.7 35.85 L46.9 34.05 M47.3 -29.1 Q53.9 -34.55 58.5 -35.05 L62.45 -35.45 62.7 -32.55 Q62.15 -31.5 61.65 -29.3 L61.5 -30.0 Q60.2 -27.15 58.95 -23.35 57.8 -19.85 57.3 -16.7 L55.4 -18.0 54.15 -19.1 53.2 -20.0 51.4 -21.9 49.6 -24.1 Q48.0 -26.5 47.3 -29.1 M58.5 -80.2 L58.45 -83.55 Q70.5 -76.9 90.7 -77.9 L92.55 -69.0 90.0 -68.95 Q89.4 -74.3 84.4 -75.3 L83.65 -75.4 Q78.85 -76.05 73.8 -71.4 70.65 -70.2 68.45 -72.7 65.75 -79.05 62.5 -79.6 59.4 -80.2 59.4 -75.1 L58.8 -78.5 58.5 -80.2 M65.1 5.65 Q66.55 6.85 70.45 8.15 76.55 6.1 79.95 6.75 L85.65 7.75 Q90.65 8.9 94.1 10.9 105.25 13.3 117.1 5.1 105.25 13.3 94.1 10.9 90.65 8.9 85.65 7.75 L79.95 6.75 Q76.55 6.1 70.45 8.15 66.55 6.85 65.1 5.65" fill="#6da396" fill-rule="evenodd" stroke="none"/>
    <path d="M135.0 -7.8 L135.0 -2.95 134.4 -2.8 133.25 -2.6 131.55 -2.7 130.25 -3.0 Q128.55 -3.5 127.05 -4.35 126.9 -4.4 126.8 -4.5 125.75 -4.95 124.9 -5.65 125.75 -4.95 126.8 -4.5 126.9 -4.4 127.05 -4.35 L130.25 1.85 130.1 2.2 129.4 4.15 Q125.8 13.85 122.8 20.35 L122.3 21.4 115.95 25.85 Q112.3 28.55 109.3 29.55 103.9 31.25 100.4 27.6 L98.9 25.55 Q95.25 19.65 90.1 16.15 112.55 20.6 117.1 5.1 L117.3 5.0 117.3 4.8 117.75 2.65 Q119.6 -6.3 117.7 -13.2 L116.8 -16.0 Q115.5 -19.1 113.25 -22.5 116.05 -24.95 118.75 -27.75 L119.75 -27.75 121.35 -27.75 124.0 -27.7 126.8 -27.4 125.85 -26.15 Q124.1 -24.0 122.75 -19.7 120.7 -12.05 123.5 -7.3 L124.55 -6.0 124.9 -5.65 124.9 -6.0 126.05 -6.1 126.8 -6.15 130.3 -6.45 132.35 -6.85 133.1 -7.1 133.75 -7.3 135.0 -7.8 M123.05 50.6 L109.8 50.6 Q114.55 48.95 118.15 46.5 L118.15 46.45 118.55 46.3 Q124.65 46.4 123.05 50.6 M59.75 -1.5 L58.3 -4.0 Q56.6 -7.8 56.85 -12.75 L57.2 -16.05 57.3 -16.7 57.2 -16.05 56.85 -12.75 55.55 -13.65 53.1 -15.5 51.1 -17.4 50.5 -18.1 Q49.55 -19.2 48.85 -20.4 47.95 -22.05 47.3 -23.8 46.85 -26.25 47.3 -29.1 48.0 -26.5 49.6 -24.1 L51.4 -21.9 53.2 -20.0 54.15 -19.1 55.4 -18.0 57.3 -16.7 Q57.8 -19.85 58.95 -23.35 60.2 -27.15 61.5 -30.0 L61.65 -29.3 61.55 -28.9 Q60.95 -26.5 61.45 -22.35 61.7 -20.35 63.05 -17.15 L62.65 -16.05 62.2 -14.9 60.9 -11.1 59.9 -7.05 Q59.25 -3.7 59.75 -1.5 M124.25 -2.55 L121.4 0.95 119.95 2.5 117.8 4.45 117.3 4.8 117.8 4.45 119.95 2.5 121.4 0.95 124.25 -2.55 M65.0 11.25 Q65.85 14.4 71.45 16.4 69.7 18.15 68.55 20.8 L69.3 24.55 69.25 24.65 67.2 24.75 Q65.0 17.4 65.0 11.25" fill="#598c81" fill-rule="evenodd" stroke="none"/>
    <path d="M124.55 -6.0 L124.9 -6.0 124.9 -5.65 124.55 -6.0" fill="#537557" fill-rule="evenodd" stroke="none"/>
    <path d="M100.9 -50.05 L100.95 -49.8 Q101.55 -46.05 102.45 -42.55 97.35 -41.35 90.8 -40.65 L77.85 -39.95 77.7 -39.9 77.8 -40.0 77.9 -40.2 78.25 -40.6 78.55 -40.8 78.75 -41.1 78.75 -41.15 78.65 -41.15 79.15 -42.6 Q84.05 -48.05 88.55 -51.4 L88.6 -51.4 89.4 -49.0 Q94.15 -53.8 94.5 -59.45 L96.5 -49.55 100.9 -50.05 M135.0 -2.95 L135.0 14.1 Q133.05 7.85 130.25 1.85 L127.05 -4.35 Q128.55 -3.5 130.25 -3.0 L131.55 -2.7 133.25 -2.6 134.4 -2.8 135.0 -2.95 M109.8 50.6 L69.8 50.6 Q68.05 49.9 66.65 49.05 64.2 47.6 62.6 45.8 62.55 44.1 62.85 42.4 63.25 40.0 64.25 37.6 L65.5 37.1 65.9 36.9 Q69.15 35.2 69.5 31.1 69.7 28.25 69.25 24.65 L69.3 24.55 68.55 20.8 Q69.7 18.15 71.45 16.4 73.55 14.45 76.3 13.5 79.0 12.5 82.35 12.55 L85.8 13.85 89.1 15.55 90.1 16.15 Q95.25 19.65 98.9 25.55 L100.4 27.6 Q103.9 31.25 109.3 29.55 109.55 34.5 111.65 36.95 L113.3 38.25 Q116.95 40.3 118.2 40.6 119.0 42.75 118.15 46.45 L118.15 46.5 Q114.55 48.95 109.8 50.6 M58.3 -4.0 Q49.35 14.1 46.9 34.05 L46.7 35.85 Q43.35 37.3 40.75 36.6 L40.75 22.2 Q49.35 3.4 49.25 -17.65 L50.5 -18.1 51.1 -17.4 53.1 -15.5 55.55 -13.65 56.85 -12.75 Q56.6 -7.8 58.3 -4.0 M69.25 -111.15 Q69.95 -118.05 71.9 -123.9 L75.3 -123.9 Q74.55 -117.95 74.7 -113.95 74.75 -111.25 75.25 -109.5 75.8 -107.4 76.85 -106.6 L76.25 -105.55 Q72.2 -98.2 70.65 -88.75 68.55 -96.3 68.8 -105.8 L68.85 -107.05 69.25 -111.15" fill="#385851" fill-rule="evenodd" stroke="none"/>
    <path d="M100.95 -49.8 L106.2 -49.85 Q112.75 -49.25 112.7 -47.4 112.8 -45.55 106.35 -43.6 L103.95 -42.9 102.45 -42.55 Q101.55 -46.05 100.95 -49.8 M79.15 -42.6 L78.65 -41.15 78.75 -41.1 78.55 -40.8 78.25 -40.6 77.9 -40.2 77.8 -40.0 77.7 -39.9 76.75 -39.95 76.25 -39.95 74.95 -40.05 Q69.25 -40.6 68.45 -42.05 L68.25 -42.5 Q71.4 -40.85 77.05 -40.6 L79.15 -42.6" fill="#2e071a" fill-rule="evenodd" stroke="none"/>
    <path d="M78.75 -41.1 L78.65 -41.15 78.75 -41.15 78.75 -41.1" fill="#7b1544" fill-rule="evenodd" stroke="none"/>
    <path d="M112.7 -47.4 L113.25 -44.0 Q112.7 -42.05 106.2 -40.05 L103.85 -39.4 102.3 -39.05 Q97.25 -37.85 90.65 -37.1 L77.55 -36.4 76.6 -36.45 76.15 -36.45 74.8 -36.55 Q69.1 -37.1 67.75 -38.6 L68.0 -40.95 68.25 -42.5 68.45 -42.05 Q69.25 -40.6 74.95 -40.05 L76.25 -39.95 76.75 -39.95 77.7 -39.9 77.85 -39.95 90.8 -40.65 Q97.35 -41.35 102.45 -42.55 L103.95 -42.9 106.35 -43.6 Q112.8 -45.55 112.7 -47.4 M67.5 -29.75 Q68.65 -27.6 70.65 -26.0 73.65 -23.6 78.6 -22.5 L80.3 -22.25 86.95 -23.45 Q93.2 -24.85 98.65 -26.9 96.4 -24.45 81.5 -19.35 L81.4 -19.35 80.95 -19.2 80.2 -19.1 78.5 -19.35 75.35 -20.35 70.95 -24.8 Q68.45 -27.6 67.5 -29.75" fill="#6b1440" fill-rule="evenodd" stroke="none"/>
    <path d="M114.2 -37.4 L115.0 -37.7 Q118.0 -38.9 125.45 -38.85 131.4 -38.85 135.0 -34.3 L135.0 -29.5 Q130.3 -29.8 129.45 -29.45 L128.0 -28.7 126.8 -27.4 124.0 -27.7 121.35 -27.75 119.75 -27.75 118.75 -27.75 Q116.05 -24.95 113.25 -22.5 100.95 -11.55 87.0 -6.1 L81.2 -18.65 81.0 -19.1 80.95 -19.2 81.4 -19.35 81.5 -19.35 Q96.4 -24.45 98.65 -26.9 L100.3 -28.55 104.65 -32.25 Q106.3 -33.5 108.0 -34.45 111.4 -36.35 114.2 -37.4 M62.45 -35.45 Q62.4 -39.9 65.6 -39.0 65.7 -41.0 68.0 -40.95 L67.5 -37.2 67.5 -37.05 66.85 -32.3 67.0 -31.3 67.5 -29.75 Q68.45 -27.6 70.95 -24.8 L75.35 -20.35 67.2 -9.25 65.5 -12.2 64.25 -14.7 63.05 -17.15 Q61.7 -20.35 61.45 -22.35 60.95 -26.5 61.55 -28.9 L61.65 -29.3 Q62.15 -31.5 62.7 -32.55 L62.45 -35.45 M81.0 -19.1 L81.4 -19.35 81.0 -19.1 M110.6 -26.45 Q114.6 -27.5 118.75 -27.75 114.6 -27.5 110.6 -26.45" fill="#e7e7e7" fill-rule="evenodd" stroke="none"/>
    <path d="M113.25 -44.0 L113.25 -43.8 114.2 -37.4 Q111.4 -36.35 108.0 -34.45 106.3 -33.5 104.65 -32.25 L100.3 -28.55 98.65 -26.9 Q93.2 -24.85 86.95 -23.45 L80.3 -22.25 78.6 -22.5 Q73.65 -23.6 70.65 -26.0 68.65 -27.6 67.5 -29.75 L67.0 -31.3 66.85 -32.3 67.5 -37.05 67.5 -37.2 67.75 -38.6 Q69.1 -37.1 74.8 -36.55 L76.15 -36.45 76.6 -36.45 77.55 -36.4 90.65 -37.1 Q97.25 -37.85 102.3 -39.05 L103.85 -39.4 106.2 -40.05 Q112.7 -42.05 113.25 -44.0" fill="#bf205c" fill-rule="evenodd" stroke="none"/>
    <path d="M65.1 11.15 L65.0 11.25 65.0 11.15 65.1 11.15" fill="#618f5c" fill-rule="evenodd" stroke="none"/>
    <path d="M63.0 -76.05 L63.2 -76.8 63.55 -76.05 63.8 -74.0 63.55 -72.15 63.15 -71.4 63.0 -72.15 Q62.8 -72.9 62.7 -74.2 L63.0 -76.05 M81.45 -67.45 L81.15 -69.5 81.45 -71.75 81.7 -72.7 82.0 -71.75 82.3 -69.5 82.0 -67.45 81.6 -66.55 81.45 -67.45" fill="#5f0000" fill-rule="evenodd" stroke="none"/>
    <path d="M58.8 -78.5 L59.4 -75.1 59.45 -74.3 59.55 -74.2 Q62.3 -69.6 64.55 -69.35 62.0 -67.8 59.2 -71.4 58.8 -73.15 58.65 -77.1 58.6 -77.85 58.8 -78.5 M83.65 -75.4 L84.4 -75.3 Q89.4 -74.3 90.0 -68.95 L92.55 -69.0 93.6 -63.85 Q87.45 -62.8 82.25 -65.15 L82.3 -65.3 Q84.25 -65.4 86.55 -66.45 88.25 -67.55 88.6 -69.35 87.4 -73.3 83.65 -75.4" fill="#548173" fill-rule="evenodd" stroke="none"/>
    <path d="M68.45 -72.7 Q70.65 -70.2 73.8 -71.4 76.6 -65.8 81.05 -65.3 79.6 -63.55 77.6 -62.15 L77.45 -62.05 74.8 -60.55 Q69.4 -61.15 65.55 -63.25 L65.6 -63.35 Q64.0 -66.9 65.1 -69.35 66.9 -69.55 68.4 -72.6 L68.45 -72.7" fill="#b5cec6" fill-rule="evenodd" stroke="none"/>
    <path d="M68.25 -42.5 Q66.1 -43.65 65.15 -45.45 L64.55 -50.85 Q63.9 -55.45 62.8 -59.25 L61.7 -62.45 Q60.9 -64.5 60.15 -67.35 L60.2 -67.85 59.9 -68.35 59.2 -71.4 Q62.0 -67.8 64.55 -69.35 L65.1 -69.35 Q64.0 -66.9 65.6 -63.35 L65.4 -63.35 65.55 -63.25 Q64.55 -59.45 65.9 -56.2 L66.3 -46.0 75.15 -43.55 77.55 -52.05 77.8 -52.8 77.45 -62.05 77.6 -62.15 Q85.8 -58.05 88.6 -51.4 85.8 -58.05 77.6 -62.15 79.6 -63.55 81.05 -65.3 L81.9 -65.3 82.25 -65.15 Q87.45 -62.8 93.6 -63.85 L94.5 -59.45 Q94.15 -53.8 89.4 -49.0 L88.6 -51.4 88.55 -51.4 Q84.05 -48.05 79.15 -42.6 L77.05 -40.6 Q71.4 -40.85 68.25 -42.5 M62.8 -59.25 Q63.0 -63.2 65.4 -63.35 63.0 -63.2 62.8 -59.25" fill="#8cb5a8" fill-rule="evenodd" stroke="none"/>
    <path d="M77.45 -62.05 L77.8 -52.8 77.55 -52.05 75.15 -43.55 66.3 -46.0 65.9 -56.2 Q64.55 -59.45 65.55 -63.25 69.4 -61.15 74.8 -60.55 L77.45 -62.05 M65.9 -56.2 L68.1 -52.7 69.9 -55.9 72.35 -51.8 75.1 -55.7 77.55 -52.05 75.1 -55.7 72.35 -51.8 69.9 -55.9 68.1 -52.7 65.9 -56.2" fill="#eff5f3" fill-rule="evenodd" stroke="none"/>
    <path d="M74.7 -113.95 Q77.75 -115.15 81.85 -115.45 L87.9 -115.55 89.85 -115.35 92.9 -114.9 Q99.2 -113.55 104.35 -109.85 105.8 -108.8 109.85 -103.4 113.9 -98.05 113.85 -90.7 113.8 -83.4 114.65 -76.9 115.45 -70.45 122.45 -62.05 110.2 -52.1 100.9 -50.05 L96.5 -49.55 94.5 -59.45 93.6 -63.85 92.55 -69.0 90.7 -77.9 Q70.5 -76.9 58.45 -83.55 L58.5 -80.2 58.55 -77.55 Q58.65 -71.05 59.9 -68.35 L60.2 -67.85 60.15 -67.35 59.2 -54.95 54.15 -62.25 Q57.3 -68.8 57.35 -83.9 56.3 -90.75 56.4 -91.95 57.55 -100.25 64.6 -107.35 66.75 -109.55 69.25 -111.15 L68.85 -107.05 68.8 -105.8 Q68.55 -96.3 70.65 -88.75 72.2 -98.2 76.25 -105.55 L76.85 -106.6 Q75.8 -107.4 75.25 -109.5 74.75 -111.25 74.7 -113.95" fill="#bf956a" fill-rule="evenodd" stroke="none"/>
    <path d="M135.0 14.1 L135.0 50.6 125.75 50.6 Q124.15 37.45 122.8 20.35 125.8 13.85 129.4 4.15 L130.1 2.2 130.25 1.85 Q133.05 7.85 135.0 14.1" fill="#a7a7a7" fill-rule="evenodd" stroke="none"/>
    <path d="M125.75 50.6 L123.05 50.6 Q124.65 46.4 118.55 46.3 L118.15 46.45 Q119.0 42.75 118.2 40.6 116.95 40.3 113.3 38.25 L111.65 36.95 Q109.55 34.5 109.3 29.55 112.3 28.55 115.95 25.85 L122.3 21.4 122.8 20.35 Q124.15 37.45 125.75 50.6 M61.9 50.6 L53.6 50.6 Q57.25 28.85 60.2 -0.75 62.0 2.15 64.55 5.0 L64.55 5.1 65.1 5.65 Q64.95 7.3 65.1 11.05 L65.1 11.15 65.0 11.1 65.0 11.15 65.0 11.25 Q65.0 17.4 67.2 24.75 L69.25 24.65 Q69.7 28.25 69.5 31.1 69.15 35.2 65.9 36.9 L65.5 37.1 64.25 37.6 Q63.25 40.0 62.85 42.4 60.05 43.85 61.9 50.6 M81.0 -19.1 L81.2 -18.65 80.95 -19.2 81.0 -19.1" fill="#bcbcbc" fill-rule="evenodd" stroke="none"/>
    <path d="M73.8 -71.4 Q78.85 -76.05 83.65 -75.4 87.4 -73.3 88.6 -69.35 88.25 -67.55 86.55 -66.45 84.25 -65.4 82.3 -65.3 L81.9 -65.3 81.05 -65.3 Q76.6 -65.8 73.8 -71.4 M81.45 -71.75 L81.15 -69.5 81.45 -67.45 81.6 -66.55 82.0 -67.45 82.3 -69.5 82.0 -71.75 81.7 -72.7 81.45 -71.75" fill="url(#gradient0)" fill-rule="evenodd" stroke="none"/>
    <path d="M63.2 -76.8 L63.0 -76.05 62.7 -74.2 Q62.8 -72.9 63.0 -72.15 L63.15 -71.4 63.55 -72.15 63.8 -74.0 63.55 -76.05 63.2 -76.8 M59.4 -75.1 Q59.4 -80.2 62.5 -79.6 65.75 -79.05 68.45 -72.7 L68.4 -72.6 Q66.9 -69.55 65.1 -69.35 L64.55 -69.35 Q62.3 -69.6 59.55 -74.2 L59.4 -75.1" fill="url(#gradient1)" fill-rule="evenodd" stroke="none"/>
    <path d="M53.6 50.6 Q57.25 28.85 60.2 -0.75 M122.8 20.35 Q124.15 37.45 125.75 50.6" fill="none" stroke="#666666" stroke-linecap="round" stroke-linejoin="round" stroke-width="0.05"/>
    <path d="M100.9 -50.05 L100.95 -49.8 M60.2 -0.75 L59.75 -1.5 58.3 -4.0 M46.9 34.05 L47.05 34.4 Q50.55 43.4 49.55 50.6 M50.5 -18.1 Q49.55 -19.2 48.85 -20.4 47.95 -22.05 47.3 -23.8 46.85 -26.25 47.3 -29.1 53.9 -34.55 58.5 -35.05 L62.45 -35.45 M68.25 -42.5 Q66.1 -43.65 65.15 -45.45 L64.55 -50.85 Q63.9 -55.45 62.8 -59.25 L61.7 -62.45 Q60.9 -64.5 60.15 -67.35 M63.0 -76.05 L63.2 -76.8 M63.15 -71.4 L63.0 -72.15 M58.5 -80.2 L58.8 -78.5 59.4 -75.1 Q59.4 -80.2 62.5 -79.6 65.75 -79.05 68.45 -72.7 70.65 -70.2 73.8 -71.4 78.85 -76.05 83.65 -75.4 L84.4 -75.3 Q89.4 -74.3 90.0 -68.95 L92.55 -69.0 M59.9 -68.35 L59.2 -71.4 Q58.8 -73.15 58.65 -77.1 58.6 -77.85 58.8 -78.5 M59.55 -74.2 L59.45 -74.3 59.4 -75.1 59.55 -74.2 M65.1 -69.35 Q66.9 -69.55 68.4 -72.6 L68.45 -72.7 M77.6 -62.15 L77.45 -62.05 77.8 -52.8 77.55 -52.05 75.15 -43.55 66.3 -46.0 M65.4 -63.35 Q63.0 -63.2 62.8 -59.25 M65.55 -63.25 L65.6 -63.35 Q64.0 -66.9 65.1 -69.35 M77.55 -52.05 L75.1 -55.7 72.35 -51.8 69.9 -55.9 68.1 -52.7 65.9 -56.2 M77.45 -62.05 L74.8 -60.55 Q69.4 -61.15 65.55 -63.25 M78.65 -41.15 L79.15 -42.6 77.05 -40.6 Q71.4 -40.85 68.25 -42.5 M78.55 -40.8 L78.75 -41.1 M78.65 -41.15 L78.75 -41.15 78.75 -41.1 M102.45 -42.55 Q101.55 -46.05 100.95 -49.8 M61.5 -30.0 Q60.2 -27.15 58.95 -23.35 57.8 -19.85 57.3 -16.7 L57.2 -16.05 56.85 -12.75 Q56.6 -7.8 58.3 -4.0 M50.5 -18.1 L51.1 -17.4 53.1 -15.5 55.55 -13.65 56.85 -12.75 M81.45 -71.75 L81.7 -72.7 M81.6 -66.55 L81.45 -67.45 M81.9 -65.3 L82.3 -65.3 M88.6 -51.4 Q85.8 -58.05 77.6 -62.15 79.6 -63.55 81.05 -65.3 76.6 -65.8 73.8 -71.4 M117.3 4.8 L117.8 4.45 119.95 2.5 121.4 0.95 124.25 -2.55 M135.0 -29.5 Q130.3 -29.8 129.45 -29.45 L128.0 -28.7 126.8 -27.4 125.85 -26.15 Q124.1 -24.0 122.75 -19.7 120.7 -12.05 123.5 -7.3 L124.55 -6.0 124.9 -5.65 Q125.75 -4.95 126.8 -4.5 126.9 -4.4 127.05 -4.35 128.55 -3.5 130.25 -3.0 L131.55 -2.7 133.25 -2.6 134.4 -2.8 135.0 -2.95 M94.5 -59.45 Q94.15 -53.8 89.4 -49.0 L88.6 -51.4 M79.15 -42.6 Q84.05 -48.05 88.55 -51.4 M130.25 1.85 L130.1 2.2 129.4 4.15 Q125.8 13.85 122.8 20.35 L122.3 21.4 115.95 25.85 Q112.3 28.55 109.3 29.55 109.55 34.5 111.65 36.95 L113.3 38.25 Q116.95 40.3 118.2 40.6 119.0 42.75 118.15 46.45 L118.55 46.3 Q124.65 46.4 123.05 50.6 M117.1 5.1 L117.3 5.0 117.2 4.9 117.3 4.8 M71.45 16.4 Q73.55 14.45 76.3 13.5 79.0 12.5 82.35 12.55 L85.8 13.85 89.1 15.55 90.1 16.15 M117.1 5.1 Q105.25 13.3 94.1 10.9 90.65 8.9 85.65 7.75 L79.95 6.75 Q76.55 6.1 70.45 8.15 66.55 6.85 65.1 5.65 64.95 7.3 65.1 11.05 L65.1 11.15 M71.45 16.4 Q69.7 18.15 68.55 20.8 L69.3 24.55 69.25 24.65 Q69.7 28.25 69.5 31.1 69.15 35.2 65.9 36.9 L65.5 37.1 64.25 37.6 Q63.25 40.0 62.85 42.4 62.55 44.1 62.6 45.8 64.2 47.6 66.65 49.05 68.05 49.9 69.8 50.6 M109.3 29.55 Q103.9 31.25 100.4 27.6 L98.9 25.55 Q95.25 19.65 90.1 16.15 M118.15 46.45 L118.15 46.5 Q114.55 48.95 109.8 50.6 M60.2 -0.75 Q62.0 2.15 64.55 5.0 L64.55 5.1 65.1 5.65 M65.0 11.15 L65.0 11.1 M69.25 24.65 L67.2 24.75 Q65.0 17.4 65.0 11.25 M62.85 42.4 Q60.05 43.85 61.9 50.6" fill="none" stroke="#39574e" stroke-linecap="round" stroke-linejoin="round" stroke-width="0.05"/>
    <path d="M100.95 -49.8 L106.2 -49.85 Q112.75 -49.25 112.7 -47.4 L113.25 -44.0 113.25 -43.8 114.2 -37.4 M68.0 -40.95 L68.25 -42.5 M68.45 -42.05 Q69.25 -40.6 74.95 -40.05 L76.25 -39.95 76.75 -39.95 77.7 -39.9 77.85 -39.95 90.8 -40.65 Q97.35 -41.35 102.45 -42.55 L103.95 -42.9 106.35 -43.6 Q112.8 -45.55 112.7 -47.4 M75.35 -20.35 L78.5 -19.35 80.2 -19.1 80.95 -19.2 81.4 -19.35" fill="none" stroke="#2e071b" stroke-linecap="round" stroke-linejoin="round" stroke-width="0.05"/>
    <path d="M114.2 -37.4 L115.0 -37.7 Q118.0 -38.9 125.45 -38.85 131.4 -38.85 135.0 -34.3 M62.45 -35.45 Q62.4 -39.9 65.6 -39.0 65.7 -41.0 68.0 -40.95 M67.5 -37.2 L68.0 -40.95 M67.5 -37.2 L67.5 -37.05 66.85 -32.3 67.0 -31.3 67.5 -29.75 Q68.45 -27.6 70.95 -24.8 L75.35 -20.35 M98.65 -26.9 L100.3 -28.55 104.65 -32.25 Q106.3 -33.5 108.0 -34.45 111.4 -36.35 114.2 -37.4 M61.65 -29.3 Q62.15 -31.5 62.7 -32.55 L62.45 -35.45 M63.05 -17.15 Q61.7 -20.35 61.45 -22.35 60.95 -26.5 61.55 -28.9 L61.65 -29.3 M81.4 -19.35 L81.5 -19.35 Q96.4 -24.45 98.65 -26.9 M63.05 -17.15 L64.25 -14.7 65.5 -12.2 67.2 -9.25 75.35 -20.35 M126.8 -27.4 L124.0 -27.7 121.35 -27.75 119.75 -27.75 118.75 -27.75 Q116.05 -24.95 113.25 -22.5 M118.75 -27.75 Q114.6 -27.5 110.6 -26.45 M81.4 -19.35 L81.0 -19.1 81.2 -18.65 87.0 -6.1 Q100.95 -11.55 113.25 -22.5" fill="none" stroke="#666666" stroke-linecap="round" stroke-linejoin="round" stroke-width="0.05"/>
    <path d="M81.0 -19.1 L80.95 -19.2" fill="none" stroke="#999999" stroke-linecap="round" stroke-linejoin="round" stroke-width="0.05"/>
    <path d="M74.7 -113.95 Q77.75 -115.15 81.85 -115.45 L87.9 -115.55 89.85 -115.35 92.9 -114.9 Q99.2 -113.55 104.35 -109.85 105.8 -108.8 109.85 -103.4 113.9 -98.05 113.85 -90.7 113.8 -83.4 114.65 -76.9 115.45 -70.45 122.45 -62.05 110.2 -52.1 100.9 -50.05 M60.15 -67.35 L59.2 -54.95 54.15 -62.25 Q57.3 -68.8 57.35 -83.9 56.3 -90.75 56.4 -91.95 57.55 -100.25 64.6 -107.35 66.75 -109.55 69.25 -111.15 M92.55 -69.0 L90.7 -77.9 Q70.5 -76.9 58.45 -83.55 L58.5 -80.2 58.55 -77.55 Q58.65 -71.05 59.9 -68.35 L60.2 -67.85 60.15 -67.35 M92.55 -69.0 L93.6 -63.85 94.5 -59.45 96.5 -49.55 100.9 -50.05" fill="none" stroke="#6d4e30" stroke-linecap="round" stroke-linejoin="round" stroke-width="0.05"/>
    <path d="M58.3 -4.0 Q49.35 14.1 46.9 34.05 M40.75 22.2 Q49.35 3.4 49.25 -17.65 L50.5 -18.1 M69.25 -111.15 Q69.95 -118.05 71.9 -123.9 M75.3 -123.9 Q74.55 -117.95 74.7 -113.95 74.75 -111.25 75.25 -109.5 75.8 -107.4 76.85 -106.6 L76.25 -105.55 Q72.2 -98.2 70.65 -88.75 68.55 -96.3 68.8 -105.8 L68.85 -107.05 69.25 -111.15 M135.0 14.1 Q133.05 7.85 130.25 1.85 M46.7 35.85 L46.9 34.05 M127.05 -4.35 L130.25 1.85" fill="none" stroke="#374e32" stroke-linecap="round" stroke-linejoin="round" stroke-width="0.05"/>
    <path d="M77.35 -29.1 L75.0 -30.5 77.4 -34.65 82.25 -34.3 84.35 -30.1 81.85 -28.3 81.85 -28.4 77.35 -29.1 M74.8 -30.1 L77.35 -28.5 77.2 -25.2 74.15 -28.95 74.8 -30.1 M85.4 -28.0 L82.25 -24.7 81.9 -27.75 84.55 -29.75 85.4 -28.0" fill="#6b1440" fill-rule="evenodd" stroke="none"/>
  </g>
  <defs>
    <radialGradient cx="0" cy="0" gradientTransform="matrix(0.0092, 0.0, 0.0, 0.0092, 81.2, -70.4)" gradientUnits="userSpaceOnUse" id="gradient0" r="819.2" spreadMethod="pad">
      <stop offset="0.0" stop-color="#ff0000"/>
      <stop offset="1.0" stop-color="#a30101"/>
    </radialGradient>
    <radialGradient cx="0" cy="0" gradientTransform="matrix(0.0081, 0.0, 0.0, 0.0081, 64.1, -73.7)" gradientUnits="userSpaceOnUse" id="gradient1" r="819.2" spreadMethod="pad">
      <stop offset="0.0" stop-color="#ff0000"/>
      <stop offset="1.0" stop-color="#a30101"/>
    </radialGradient>
  </defs>
</svg>
