<?xml version="1.0" encoding="UTF-8" standalone="no"?>
<svg xmlns:xlink="http://www.w3.org/1999/xlink" height="25.25px" width="85.5px" xmlns="http://www.w3.org/2000/svg">
  <g transform="matrix(1, 0, 0, 1, 42.65, 7.55)">
    <path d="M19.25 -0.3 Q18.45 -0.55 18.05 -1.3 17.7 -2.05 17.95 -2.85 18.2 -3.65 19.0 -4.0 L23.55 -6.2 24.75 -6.35 24.95 -6.3 25.85 -6.6 37.2 -7.55 38.25 -7.35 39.05 -6.6 39.35 -5.6 39.8 7.25 42.1 9.2 Q42.65 9.65 42.8 10.45 43.05 12.25 42.05 13.7 L41.35 14.35 40.4 14.55 40.35 14.55 39.2 14.5 38.8 14.8 37.75 15.05 Q12.05 14.15 -13.9 14.7 -26.45 15.5 -38.8 17.7 L-40.15 17.45 Q-40.8 17.05 -41.05 16.35 L-42.55 12.05 Q-42.75 11.45 -42.55 10.85 -42.4 10.2 -41.85 9.8 L-23.95 8.15 25.6 6.35 Q23.85 2.0 19.3 -0.25 L19.25 -0.3" fill="#000000" fill-rule="evenodd" stroke="none"/>
    <path d="M25.05 1.35 Q21.0 -2.15 19.85 -2.35 L24.35 -4.3 26.3 -2.4 26.1 -4.55 37.3 -5.45 37.3 -0.25 Q27.7 -0.6 25.05 1.35" fill="#cfcfd3" fill-rule="evenodd" stroke="none"/>
    <path d="M37.7 9.3 L40.15 9.3 40.65 10.7 40.65 11.3 Q39.1 11.25 37.7 10.55 L37.7 9.3 M-40.6 11.6 L-40.55 11.5 Q-40.3 10.8 -39.4 10.35 -12.2 8.2 18.65 9.3 L18.65 10.7 Q-17.9 10.05 -39.1 14.3 -40.25 12.85 -40.55 11.8 L-40.6 11.6" fill="#9f8c6f" fill-rule="evenodd" stroke="none"/>
    <path d="M37.3 8.3 L37.7 8.3 37.7 9.3 37.7 10.55 37.7 11.25 18.65 11.25 18.65 10.7 18.65 9.3 18.65 8.3 28.4 8.3 28.55 10.35 37.3 10.35 37.3 8.3" fill="#97979d" fill-rule="evenodd" stroke="none"/>
    <path d="M40.65 11.3 L40.35 12.45 37.7 11.95 37.7 11.25 37.7 10.55 Q39.1 11.25 40.65 11.3 M18.65 11.95 Q-17.9 11.3 -39.1 15.55 -41.05 13.05 -40.6 11.6 L-40.55 11.8 Q-40.25 12.85 -39.1 14.3 -17.9 10.05 18.65 10.7 L18.65 11.25 18.65 11.95" fill="#786850" fill-rule="evenodd" stroke="none"/>
    <path d="M37.7 11.95 L37.7 12.95 18.65 12.95 18.65 11.95 18.65 11.25 37.7 11.25 37.7 11.95" fill="#7d7d86" fill-rule="evenodd" stroke="none"/>
    <path d="M37.3 -0.25 L37.3 8.3 37.3 10.35 28.55 10.35 28.4 8.3 Q27.75 3.95 25.05 1.35 27.7 -0.6 37.3 -0.25" fill="#a09fa8" fill-rule="evenodd" stroke="none"/>
    <path d="M25.05 1.35 Q21.0 -2.15 19.85 -2.35 L24.35 -4.3 26.3 -2.4 26.1 -4.55 37.3 -5.45 37.3 -0.25 37.3 8.3 37.7 8.3 37.7 9.3 M37.7 11.95 L37.7 12.95 18.65 12.95 18.65 11.95 M18.65 9.3 L18.65 8.3 28.4 8.3 Q27.75 3.95 25.05 1.35 M37.3 8.3 L37.3 10.35 28.55 10.35 28.4 8.3 M37.7 10.55 L37.7 9.3 M37.7 10.55 L37.7 11.25 37.7 11.95 M18.65 11.25 L18.65 10.7 18.65 9.3 M18.65 11.25 L18.65 11.95" fill="none" stroke="#666666" stroke-linecap="round" stroke-linejoin="round" stroke-width="0.05"/>
    <path d="M37.7 9.3 L40.15 9.3 40.65 10.7 40.65 11.3 40.35 12.45 37.7 11.95 M18.65 11.95 Q-17.9 11.3 -39.1 15.55 -41.05 13.05 -40.6 11.6 L-40.55 11.5 Q-40.3 10.8 -39.4 10.35 -12.2 8.2 18.65 9.3" fill="none" stroke="#453a2e" stroke-linecap="round" stroke-linejoin="round" stroke-width="0.05"/>
  </g>
</svg>
