<?xml version="1.0" encoding="UTF-8" standalone="no"?>
<svg xmlns:xlink="http://www.w3.org/1999/xlink" height="165.05px" width="116.75px" xmlns="http://www.w3.org/2000/svg">
  <g transform="matrix(1, 0, 0, 1, -25.45, 112.8)">
    <path d="M104.85 -38.6 L109.55 -36.25 Q108.3 -35.3 107.2 -33.55 101.25 -33.1 96.45 -27.5 89.65 -33.35 79.2 -32.55 L75.9 -32.1 Q71.1 -37.35 63.2 -36.6 L58.95 -35.9 Q60.55 -39.4 58.85 -42.65 60.3 -45.0 60.45 -47.25 L63.2 -47.45 74.15 -48.0 74.15 -48.05 Q79.5 -48.4 84.15 -51.0 L87.85 -53.2 Q89.2 -49.25 89.85 -44.4 L89.95 -43.2 94.2 -43.25 95.45 -43.25 104.85 -38.6 M130.2 5.65 L137.35 30.45 137.15 30.75 Q139.15 34.25 141.3 40.55 L142.2 52.25 129.2 52.25 127.85 48.7 Q126.5 42.2 127.75 35.25 127.85 34.0 128.1 33.0 L119.05 8.45 Q123.95 7.9 125.95 5.15 L130.2 5.65 M49.05 -2.6 L43.45 15.3 43.65 17.05 Q44.5 23.05 42.85 28.8 37.55 39.55 33.6 51.85 L37.05 52.25 33.45 52.25 25.45 52.25 29.85 22.15 Q32.3 16.6 34.45 13.45 L39.7 -7.5 Q40.75 -7.0 41.85 -6.8 L44.4 -6.85 45.6 -5.2 Q47.4 -3.05 49.05 -2.6 M56.25 -46.85 L56.25 -47.0 56.45 -47.0 56.25 -46.85 M69.1 -48.15 Q59.45 -54.5 59.1 -61.05 L58.5 -70.55 58.45 -71.5 Q58.95 -70.35 59.7 -69.5 60.2 -68.55 60.9 -68.45 L62.0 -67.85 63.05 -67.75 62.95 -70.8 62.75 -72.15 62.65 -75.05 62.55 -76.05 Q59.55 -79.7 58.05 -73.0 L57.7 -74.75 57.45 -76.05 Q56.95 -79.5 57.1 -80.65 57.35 -83.65 58.15 -86.4 L59.1 -89.1 Q60.8 -91.9 63.45 -93.5 62.5 -91.0 63.45 -89.1 63.6 -87.65 64.25 -86.55 65.15 -85.0 66.9 -84.1 67.35 -88.45 71.7 -92.45 76.05 -88.95 76.2 -83.8 78.3 -85.7 79.55 -88.55 80.3 -90.45 80.75 -92.65 81.15 -83.8 85.45 -75.5 L86.15 -73.65 82.45 -70.45 84.95 -63.1 Q85.2 -59.25 82.65 -56.05 80.05 -52.9 74.65 -50.35 72.15 -49.2 69.1 -48.15 M72.5 -72.6 L72.05 -72.6 71.4 -71.4 71.0 -70.4 Q70.05 -68.05 69.75 -64.85 L71.75 -64.15 Q73.35 -63.65 74.8 -63.6 76.85 -63.5 78.55 -64.25 78.3 -69.55 75.65 -71.5 74.35 -72.45 72.5 -72.6 M61.55 -62.8 Q62.4 -63.95 62.8 -65.65 L63.05 -67.75 62.8 -65.65 Q62.4 -63.95 61.55 -62.8 61.25 -59.95 64.0 -60.85 62.55 -61.55 61.55 -62.8 M71.6 -53.9 Q65.45 -54.35 63.85 -56.65 65.45 -54.35 71.6 -53.9 M63.2 -75.2 Q62.55 -80.95 57.3 -79.75 60.65 -79.4 63.2 -75.2 M72.55 -43.45 L73.0 -44.4 74.15 -48.0 73.0 -44.4 72.55 -43.45 M69.05 -73.1 Q76.05 -76.4 81.9 -75.7 73.9 -78.4 69.05 -73.1 M128.1 33.0 Q129.6 26.35 135.35 28.05 L137.15 30.75 135.35 28.05 Q129.6 26.35 128.1 33.0 M33.45 52.25 L33.6 51.85 33.45 52.25 M43.45 15.3 Q42.3 9.35 36.4 11.1 35.45 12.0 34.45 13.45 35.45 12.0 36.4 11.1 42.3 9.35 43.45 15.3" fill="#ffdfc8" fill-rule="evenodd" stroke="none"/>
    <path d="M97.7 -62.9 L97.55 -62.55 97.1 -61.65 96.65 -61.0 96.15 -60.4 95.1 -59.7 94.85 -59.65 93.0 -57.55 92.9 -55.45 Q92.85 -49.9 93.8 -44.8 L93.9 -44.4 93.95 -44.3 104.85 -38.6 95.45 -43.25 94.2 -43.25 89.95 -43.2 89.85 -44.4 Q89.2 -49.25 87.85 -53.2 L84.15 -51.0 Q79.5 -48.4 74.15 -48.05 71.7 -47.9 69.1 -48.15 72.15 -49.2 74.65 -50.35 80.05 -52.9 82.65 -56.05 85.2 -59.25 84.95 -63.1 L82.45 -70.45 86.15 -73.65 89.55 -63.5 Q91.55 -65.85 91.85 -79.25 92.35 -75.35 92.2 -70.7 L92.65 -70.95 92.55 -70.85 Q92.85 -67.25 94.05 -66.95 94.75 -68.5 96.15 -69.4 97.65 -69.05 98.4 -68.45 L98.45 -68.0 Q98.75 -66.0 97.7 -62.9 M95.15 -62.1 Q95.3 -63.65 94.65 -64.2 L93.4 -64.4 93.4 -64.85 Q93.6 -66.0 94.05 -66.95 93.6 -66.0 93.4 -64.85 L93.4 -64.4 94.65 -64.2 Q95.3 -63.65 95.15 -62.1 M93.0 -57.55 L92.5 -56.9 Q91.35 -55.45 87.85 -53.2 91.35 -55.45 92.5 -56.9 L93.0 -57.55 M93.95 -44.3 L94.2 -43.25 93.95 -44.3" fill="#ffd0ae" fill-rule="evenodd" stroke="none"/>
    <path d="M109.55 -36.25 Q111.85 -38.05 114.55 -37.3 L114.3 -33.8 114.25 -33.8 114.2 -33.9 113.85 -33.4 Q110.95 -34.55 108.45 -33.3 106.5 -32.4 105.6 -30.35 L105.15 -29.35 104.8 -27.7 104.6 -26.7 Q100.7 -24.55 95.3 -22.0 L56.1 -31.25 56.05 -32.75 Q55.65 -37.7 56.0 -43.75 L56.25 -46.8 56.25 -46.85 56.45 -47.0 59.95 -50.45 Q60.55 -48.9 60.45 -47.25 60.3 -45.0 58.85 -42.65 60.55 -39.4 58.95 -35.9 L63.2 -36.6 Q71.1 -37.35 75.9 -32.1 L79.2 -32.55 Q89.65 -33.35 96.45 -27.5 101.25 -33.1 107.2 -33.55 108.3 -35.3 109.55 -36.25 M131.75 -2.5 Q137.0 -2.6 134.4 3.55 133.55 5.55 130.2 5.65 L125.95 5.15 Q123.95 7.9 119.05 8.45 117.0 8.65 114.45 8.5 112.0 5.0 115.0 1.65 L116.65 2.0 Q123.2 2.95 128.5 -0.15 L131.75 -2.5 M104.45 52.25 L74.9 52.25 74.9 47.9 75.1 47.95 77.45 42.75 78.0 41.6 Q84.05 29.45 91.45 23.85 98.5 30.65 102.2 42.8 L103.25 46.6 103.4 46.6 103.95 49.55 104.45 52.25 M62.5 52.25 L46.95 52.25 49.25 42.8 49.1 42.7 49.4 41.5 Q52.6 30.0 59.45 19.9 62.0 25.4 62.6 36.5 L62.8 41.35 62.8 44.8 62.7 44.8 62.5 52.25 M53.9 -4.3 Q52.9 -3.5 51.15 -2.75 L49.05 -2.6 Q47.4 -3.05 45.6 -5.2 L44.4 -6.85 41.85 -6.8 Q40.75 -7.0 39.7 -7.5 37.15 -8.65 34.45 -11.6 35.4 -15.45 39.8 -15.95 40.5 -14.85 41.3 -13.9 44.75 -9.9 50.05 -8.85 L50.95 -7.4 52.35 -5.75 53.9 -4.3 M58.5 -70.55 L57.7 -71.65 57.7 -74.75 58.05 -73.0 Q59.55 -79.7 62.55 -76.05 L62.65 -75.05 62.55 -75.35 Q61.9 -76.55 61.05 -76.5 60.2 -76.55 59.65 -75.35 59.05 -74.2 59.05 -72.45 59.05 -70.8 59.65 -69.65 L59.7 -69.5 Q58.95 -70.35 58.45 -71.5 L58.05 -73.0 58.45 -71.5 58.0 -72.6 58.05 -73.0 58.0 -72.6 58.45 -71.5 58.5 -70.55 M60.35 -74.65 L60.6 -75.0 Q60.9 -75.35 61.35 -75.35 61.8 -75.35 62.1 -75.0 L62.45 -74.05 62.3 -73.45 62.1 -73.15 Q61.8 -72.75 61.35 -72.75 60.9 -72.75 60.6 -73.15 60.25 -73.5 60.2 -74.05 L60.35 -74.65 M60.9 -68.45 L61.05 -68.45 Q61.75 -68.45 62.35 -69.3 L62.0 -67.85 60.9 -68.45 M71.4 -71.4 L72.05 -72.6 72.5 -72.6 Q71.9 -72.25 71.45 -71.5 L71.4 -71.4 M75.65 -71.5 Q78.3 -69.55 78.55 -64.25 76.85 -63.5 74.8 -63.6 L75.65 -64.55 Q76.45 -66.0 76.45 -68.0 76.45 -70.05 75.65 -71.5 M71.75 -64.15 L69.75 -64.85 Q70.05 -68.05 71.0 -70.4 70.65 -69.35 70.65 -68.0 70.65 -66.0 71.45 -64.55 L71.75 -64.15 M75.4 -69.1 L75.2 -68.9 Q74.75 -68.4 74.15 -68.35 73.5 -68.4 73.05 -68.9 72.55 -69.35 72.6 -70.0 72.55 -70.45 72.8 -70.75 L73.05 -71.05 Q73.5 -71.5 74.15 -71.5 L75.2 -71.05 Q75.65 -70.65 75.7 -70.0 L75.4 -69.1 M49.4 41.5 L49.25 42.8 49.4 41.5" fill="#ffffff" fill-rule="evenodd" stroke="none"/>
    <path d="M114.3 -33.8 L115.0 -33.35 115.85 -32.7 116.5 -32.3 116.45 -32.05 116.2 -32.2 Q115.0 -33.0 113.85 -33.4 L114.2 -33.9 114.25 -33.8 114.3 -33.8 M125.45 -17.35 Q128.4 -9.0 131.75 -2.5 L128.5 -0.15 Q123.2 2.95 116.65 2.0 L115.0 1.65 Q113.85 -2.95 111.9 -7.5 L110.8 -10.0 110.7 -10.15 110.5 -9.6 108.1 -3.7 Q105.6 1.8 102.8 6.35 L101.4 8.55 Q98.9 14.15 99.45 19.75 L99.55 20.15 99.8 21.6 99.9 21.9 91.45 23.85 90.95 22.8 90.25 21.6 89.85 20.8 89.5 20.2 89.25 19.8 87.05 16.55 Q84.65 13.2 82.1 11.15 80.7 10.0 78.95 9.15 76.4 7.95 73.05 7.3 67.3 6.2 61.05 13.25 L61.0 13.25 Q61.0 9.4 59.8 4.25 L58.7 0.9 58.0 -2.1 Q55.75 -2.85 53.9 -4.3 L52.35 -5.75 50.95 -7.4 50.05 -8.85 Q44.75 -9.9 41.3 -13.9 40.5 -14.85 39.8 -15.95 41.05 -20.3 42.5 -27.7 L42.9 -27.7 42.8 -29.45 43.05 -31.3 Q43.55 -33.7 44.8 -36.65 47.0 -42.0 50.8 -44.85 L51.8 -45.55 Q49.25 -41.05 47.95 -37.25 45.7 -31.0 46.8 -26.6 L47.3 -25.15 47.35 -25.05 Q48.05 -23.5 49.2 -22.85 48.4 -20.2 48.4 -16.5 L48.5 -13.9 Q49.25 -10.8 51.2 -8.7 52.3 -7.45 53.85 -6.5 L55.05 -6.2 58.7 -5.25 Q63.2 -4.15 69.1 -1.4 74.9 1.35 76.15 1.55 L77.85 1.75 78.5 2.1 78.4 1.9 79.15 2.15 Q92.5 5.8 96.9 -1.35 98.65 -5.25 98.4 -11.1 98.2 -14.8 97.2 -19.2 96.7 -20.7 95.3 -22.0 100.7 -24.55 104.6 -26.7 L104.8 -27.7 105.0 -27.2 105.05 -26.95 Q107.7 -19.7 110.95 -15.4 L111.35 -14.9 112.05 -14.05 Q114.25 -11.6 116.75 -10.35 L116.9 -10.25 118.8 -9.55 Q121.5 -8.9 123.25 -10.9 L124.4 -12.8 125.35 -15.55 125.55 -16.4 125.45 -17.35 M44.6 -21.65 Q44.0 -22.25 43.6 -23.2 42.9 -24.9 42.9 -27.7 42.9 -24.9 43.6 -23.2 44.0 -22.25 44.6 -21.65 M103.85 -11.85 L103.95 -9.15 Q103.85 -2.1 98.75 2.8 96.35 5.15 93.5 6.3 90.4 7.65 86.75 7.6 83.1 7.6 80.1 6.3 L79.3 6.0 60.0 -1.7 59.15 -1.85 58.0 -2.1 59.15 -1.85 60.0 -1.7 79.3 6.0 80.1 6.3 Q83.1 7.6 86.75 7.6 90.4 7.65 93.5 6.3 96.35 5.15 98.75 2.8 103.85 -2.1 103.95 -9.15 L103.85 -11.85 M48.5 -13.9 Q48.85 -11.15 50.05 -8.85 48.85 -11.15 48.5 -13.9 M125.35 -9.8 L125.4 -11.0 125.55 -13.05 125.5 -13.1 Q125.7 -14.75 125.55 -16.4 125.7 -14.75 125.5 -13.1 L125.55 -13.05 125.4 -11.0 125.35 -9.8 M107.65 -14.6 Q109.0 -12.05 110.7 -10.15 109.0 -12.05 107.65 -14.6" fill="#c84242" fill-rule="evenodd" stroke="none"/>
    <path d="M116.45 -32.05 Q120.65 -29.3 123.35 -23.85 124.95 -20.5 125.45 -17.35 L125.55 -16.4 125.35 -15.55 124.4 -12.8 123.25 -10.9 Q121.5 -8.9 118.8 -9.55 L116.9 -10.25 116.75 -10.35 Q114.25 -11.6 112.05 -14.05 L111.35 -14.9 110.95 -15.4 Q107.7 -19.7 105.05 -26.95 L105.0 -27.2 104.8 -27.7 105.15 -29.35 105.6 -30.35 Q106.5 -32.4 108.45 -33.3 110.95 -34.55 113.85 -33.4 115.0 -33.0 116.2 -32.2 L116.45 -32.05 M74.9 52.25 L62.5 52.25 62.7 44.8 62.8 44.8 62.8 41.35 62.6 36.5 Q62.0 25.4 59.45 19.9 L59.55 19.7 Q60.9 17.15 61.0 13.25 L61.05 13.25 Q67.3 6.2 73.05 7.3 76.4 7.95 78.95 9.15 80.7 10.0 82.1 11.15 84.65 13.2 87.05 16.55 L89.25 19.8 89.5 20.2 89.85 20.8 90.25 21.6 90.95 22.8 91.45 23.85 Q84.05 29.45 78.0 41.6 L77.45 42.75 75.1 47.95 74.9 47.9 74.9 52.25 M51.8 -45.55 Q53.6 -46.7 55.3 -46.8 L55.3 -47.0 56.25 -47.1 56.25 -46.85 56.25 -46.8 56.0 -43.75 Q55.65 -37.7 56.05 -32.75 L56.1 -31.25 95.3 -22.0 Q96.7 -20.7 97.2 -19.2 98.2 -14.8 98.4 -11.1 98.65 -5.25 96.9 -1.35 92.5 5.8 79.15 2.15 L78.4 1.9 78.5 2.1 77.85 1.75 76.15 1.55 Q74.9 1.35 69.1 -1.4 63.2 -4.15 58.7 -5.25 L55.05 -6.2 53.85 -6.5 Q52.3 -7.45 51.2 -8.7 49.25 -10.8 48.5 -13.9 L48.4 -16.5 Q48.4 -20.2 49.2 -22.85 48.05 -23.5 47.35 -25.05 L47.3 -25.15 46.8 -26.6 Q45.7 -31.0 47.95 -37.25 49.25 -41.05 51.8 -45.55 M53.95 -31.9 L53.6 -30.55 Q52.85 -28.65 51.1 -26.5 49.9 -25.0 49.2 -22.85 49.9 -25.0 51.1 -26.5 52.85 -28.65 53.6 -30.55 L53.95 -31.9 54.1 -32.15 53.95 -31.9 M74.9 45.1 L74.9 47.9 74.9 45.1" fill="#d26262" fill-rule="evenodd" stroke="none"/>
    <path d="M42.5 -27.7 L42.8 -29.45 42.9 -27.7 42.5 -27.7" fill="#e7e7e7" fill-rule="evenodd" stroke="none"/>
    <path d="M59.4 -97.45 L59.15 -97.35 Q58.1 -99.8 61.35 -101.1 L61.6 -101.3 Q68.1 -109.35 82.65 -110.3 L83.25 -110.55 84.75 -111.05 Q91.35 -113.1 100.1 -112.25 L103.85 -111.8 Q106.25 -113.1 109.05 -112.7 L109.85 -110.7 111.3 -106.0 Q112.8 -100.05 112.5 -94.05 L112.35 -92.15 Q110.75 -76.6 97.0 -61.0 L97.7 -62.9 Q98.75 -66.0 98.45 -68.0 L98.4 -68.45 98.0 -69.5 Q96.75 -73.3 92.65 -70.95 L92.2 -70.7 Q92.35 -75.35 91.85 -79.25 90.95 -86.3 87.9 -91.0 L87.75 -91.25 86.3 -92.15 84.9 -93.05 84.75 -93.1 Q81.45 -95.05 78.2 -96.25 71.25 -98.85 64.5 -98.3 L59.4 -97.45 M87.45 -97.8 L84.75 -99.2 83.25 -99.8 Q76.4 -102.55 69.95 -102.5 L66.65 -102.3 61.6 -101.3 66.65 -102.3 69.95 -102.5 Q76.4 -102.55 83.25 -99.8 L84.75 -99.2 87.45 -97.8 M92.65 -104.05 Q94.75 -101.35 96.15 -97.8 97.15 -95.2 97.8 -92.15 L98.25 -89.65 Q98.85 -85.65 98.85 -80.95 L98.3 -72.05 98.0 -69.5 98.3 -72.05 98.85 -80.95 Q98.85 -85.65 98.25 -89.65 L97.8 -92.15 Q97.15 -95.2 96.15 -97.8 94.75 -101.35 92.65 -104.05" fill="#328fc0" fill-rule="evenodd" stroke="none"/>
    <path d="M99.9 21.9 Q106.3 31.25 109.15 45.05 L109.5 47.05 111.1 52.25 104.45 52.25 103.95 49.55 103.4 46.6 103.25 46.6 102.2 42.8 Q98.5 30.65 91.45 23.85 L99.9 21.9" fill="#ececec" fill-rule="evenodd" stroke="none"/>
    <path d="M62.3 -73.45 L62.45 -74.05 62.1 -75.0 Q61.8 -75.35 61.35 -75.35 60.9 -75.35 60.6 -75.0 L60.35 -74.65 60.05 -74.25 Q59.65 -73.55 59.7 -72.55 59.65 -71.5 60.05 -70.75 60.5 -70.0 61.05 -70.0 61.6 -70.0 62.0 -70.75 62.4 -71.5 62.4 -72.45 L62.3 -73.45 M59.7 -69.5 L59.65 -69.65 Q59.05 -70.8 59.05 -72.45 59.05 -74.2 59.65 -75.35 60.2 -76.55 61.05 -76.5 61.9 -76.55 62.55 -75.35 L62.65 -75.05 62.75 -72.15 62.35 -69.3 Q61.75 -68.45 61.05 -68.45 L60.9 -68.45 Q60.2 -68.55 59.7 -69.5 M71.4 -71.4 L71.45 -71.5 Q71.9 -72.25 72.5 -72.6 74.35 -72.45 75.65 -71.5 76.45 -70.05 76.45 -68.0 76.45 -66.0 75.65 -64.55 L74.8 -63.6 Q73.35 -63.65 71.75 -64.15 L71.45 -64.55 Q70.65 -66.0 70.65 -68.0 70.65 -69.35 71.0 -70.4 L71.4 -71.4 M75.4 -69.1 L75.7 -70.0 Q75.65 -70.65 75.2 -71.05 L74.15 -71.5 Q73.5 -71.5 73.05 -71.05 L72.8 -70.75 72.2 -70.15 Q71.6 -69.3 71.6 -68.05 71.6 -66.8 72.2 -65.9 72.8 -65.0 73.55 -65.0 74.35 -65.0 74.9 -65.9 75.5 -66.8 75.5 -68.0 L75.4 -69.1" fill="#99cc00" fill-rule="evenodd" stroke="none"/>
    <path d="M62.3 -73.45 L62.4 -72.45 Q62.4 -71.5 62.0 -70.75 61.6 -70.0 61.05 -70.0 60.5 -70.0 60.05 -70.75 59.65 -71.5 59.7 -72.55 59.65 -73.55 60.05 -74.25 L60.35 -74.65 60.2 -74.05 Q60.25 -73.5 60.6 -73.15 60.9 -72.75 61.35 -72.75 61.8 -72.75 62.1 -73.15 L62.3 -73.45 M72.8 -70.75 Q72.55 -70.45 72.6 -70.0 72.55 -69.35 73.05 -68.9 73.5 -68.4 74.15 -68.35 74.75 -68.4 75.2 -68.9 L75.4 -69.1 75.5 -68.0 Q75.5 -66.8 74.9 -65.9 74.35 -65.0 73.55 -65.0 72.8 -65.0 72.2 -65.9 71.6 -66.8 71.6 -68.05 71.6 -69.3 72.2 -70.15 L72.8 -70.75" fill="#000000" fill-rule="evenodd" stroke="none"/>
    <path d="M62.35 -69.3 L62.75 -72.15 62.95 -70.8 63.05 -67.75 62.0 -67.85 62.35 -69.3 M61.55 -62.8 Q62.55 -61.55 64.0 -60.85 61.25 -59.95 61.55 -62.8" fill="#efc8a0" fill-rule="evenodd" stroke="none"/>
    <path d="M92.65 -70.95 Q96.75 -73.3 98.0 -69.5 L98.4 -68.45 Q97.65 -69.05 96.15 -69.4 94.75 -68.5 94.05 -66.95 92.85 -67.25 92.55 -70.85 L92.65 -70.95" fill="#ffeadf" fill-rule="evenodd" stroke="none"/>
    <path d="M109.85 -110.7 Q141.0 -118.95 134.4 -81.05 127.55 -42.25 137.05 -30.75 133.1 -33.0 129.75 -35.5 L128.35 -40.05 Q125.65 -50.3 125.15 -65.7 L126.1 -74.9 Q129.45 -102.7 113.9 -105.7 L111.3 -106.0 109.85 -110.7 M64.5 -98.3 Q71.25 -98.85 78.2 -96.25 78.25 -93.55 77.4 -92.0 77.15 -95.0 73.45 -96.1 69.45 -95.45 68.3 -92.45 67.2 -94.65 68.5 -97.15 L66.9 -97.4 62.95 -95.5 62.75 -95.4 61.75 -94.95 60.7 -94.35 61.35 -95.1 61.75 -95.5 62.2 -96.1 63.15 -97.05 63.25 -97.15 64.5 -98.3 M84.9 -93.05 L86.3 -92.15 87.75 -91.25 87.9 -91.0 86.9 -90.05 Q86.25 -91.7 84.9 -93.05" fill="#83715c" fill-rule="evenodd" stroke="none"/>
    <path d="M129.75 -35.5 L126.65 -38.1 125.6 -39.0 124.55 -40.05 Q122.7 -41.95 121.1 -43.95 110.25 -57.75 112.05 -78.15 114.45 -89.45 112.5 -94.05 112.8 -100.05 111.3 -106.0 L113.9 -105.7 Q129.45 -102.7 126.1 -74.9 L125.15 -65.7 Q125.65 -50.3 128.35 -40.05 L129.75 -35.5 M59.1 -89.1 Q57.9 -87.15 57.1 -84.6 54.65 -92.5 59.4 -97.45 L64.5 -98.3 63.25 -97.15 63.15 -97.05 62.2 -96.1 61.75 -95.5 61.35 -95.1 60.7 -94.35 61.75 -94.95 62.75 -95.4 62.95 -95.5 66.9 -97.4 68.5 -97.15 Q67.2 -94.65 68.3 -92.45 69.45 -95.45 73.45 -96.1 77.15 -95.0 77.4 -92.0 78.25 -93.55 78.2 -96.25 81.45 -95.05 84.75 -93.1 L84.9 -93.05 Q86.25 -91.7 86.9 -90.05 L87.9 -91.0 Q90.95 -86.3 91.85 -79.25 91.55 -65.85 89.55 -63.5 L86.15 -73.65 85.45 -75.5 Q81.15 -83.8 80.75 -92.65 80.3 -90.45 79.55 -88.55 78.3 -85.7 76.2 -83.8 76.05 -88.95 71.7 -92.45 67.35 -88.45 66.9 -84.1 65.15 -85.0 64.25 -86.55 63.6 -87.65 63.45 -89.1 62.5 -91.0 63.45 -93.5 60.8 -91.9 59.1 -89.1" fill="#645446" fill-rule="evenodd" stroke="none"/>
    <path d="M63.2 -75.2 Q60.65 -79.4 57.3 -79.75 62.55 -80.95 63.2 -75.2 M69.05 -73.1 Q73.9 -78.4 81.9 -75.7 76.05 -76.4 69.05 -73.1" fill="#503e53" fill-rule="evenodd" stroke="none"/>
    <path d="M97.7 -62.9 L97.55 -62.55 97.1 -61.65 96.65 -61.0 96.15 -60.4 95.1 -59.7 94.85 -59.65 93.0 -57.55 92.9 -55.45 Q92.85 -49.9 93.8 -44.8 L93.9 -44.4 93.95 -44.3 104.85 -38.6 109.55 -36.25 M130.2 5.65 L137.35 30.45 M128.1 33.0 L119.05 8.45 M49.05 -2.6 L43.45 15.3 M33.6 51.85 L37.05 52.25 M34.45 13.45 L39.7 -7.5 M56.25 -46.85 L56.25 -47.0 56.45 -47.0 M60.45 -47.25 L63.2 -47.45 74.15 -48.0 74.15 -48.05 Q71.7 -47.9 69.1 -48.15 59.45 -54.5 59.1 -61.05 L58.5 -70.55 M57.7 -74.75 L57.45 -76.05 Q56.95 -79.5 57.1 -80.65 57.35 -83.65 58.15 -86.4 L59.1 -89.1 M59.7 -69.5 Q60.2 -68.55 60.9 -68.45 M62.35 -69.3 L62.75 -72.15 62.65 -75.05 62.55 -76.05 Q59.55 -79.7 58.05 -73.0 L58.45 -71.5 Q58.95 -70.35 59.7 -69.5 M58.45 -71.5 L58.0 -72.6 58.05 -73.0 57.7 -74.75 M58.45 -71.5 L58.5 -70.55 M72.5 -72.6 L72.05 -72.6 71.4 -71.4 M72.5 -72.6 Q74.35 -72.45 75.65 -71.5 78.3 -69.55 78.55 -64.25 76.85 -63.5 74.8 -63.6 73.35 -63.65 71.75 -64.15 L69.75 -64.85 Q70.05 -68.05 71.0 -70.4 L71.4 -71.4 M62.75 -72.15 L62.95 -70.8 63.05 -67.75 62.8 -65.65 Q62.4 -63.95 61.55 -62.8 M64.0 -60.85 Q61.25 -59.95 61.55 -62.8 M62.0 -67.85 L60.9 -68.45 M62.0 -67.85 L62.35 -69.3 M63.85 -56.65 Q65.45 -54.35 71.6 -53.9 M74.15 -48.0 L73.0 -44.4 72.55 -43.45 M92.65 -70.95 L92.55 -70.85 M94.05 -66.95 Q94.75 -68.5 96.15 -69.4 M94.05 -66.95 Q93.6 -66.0 93.4 -64.85 L93.4 -64.4 94.65 -64.2 Q95.3 -63.65 95.15 -62.1 M74.15 -48.05 Q79.5 -48.4 84.15 -51.0 L87.85 -53.2 Q91.35 -55.45 92.5 -56.9 L93.0 -57.55 M94.2 -43.25 L93.95 -44.3" fill="none" stroke="#d7995e" stroke-linecap="round" stroke-linejoin="round" stroke-width="0.05"/>
    <path d="M109.55 -36.25 Q111.85 -38.05 114.55 -37.3 L114.3 -33.8 M131.75 -2.5 Q137.0 -2.6 134.4 3.55 133.55 5.55 130.2 5.65 L125.95 5.15 Q123.95 7.9 119.05 8.45 117.0 8.65 114.45 8.5 112.0 5.0 115.0 1.65 L116.65 2.0 Q123.2 2.95 128.5 -0.15 L131.75 -2.5 M99.9 21.9 Q106.3 31.25 109.15 45.05 M49.25 42.8 L49.1 42.7 49.4 41.5 Q52.6 30.0 59.45 19.9 M53.9 -4.3 Q52.9 -3.5 51.15 -2.75 L49.05 -2.6 Q47.4 -3.05 45.6 -5.2 L44.4 -6.85 41.85 -6.8 Q40.75 -7.0 39.7 -7.5 37.15 -8.65 34.45 -11.6 35.4 -15.45 39.8 -15.95 40.5 -14.85 41.3 -13.9 44.75 -9.9 50.05 -8.85 M56.45 -47.0 L59.95 -50.45 Q60.55 -48.9 60.45 -47.25 60.3 -45.0 58.85 -42.65 60.55 -39.4 58.95 -35.9 L63.2 -36.6 Q71.1 -37.35 75.9 -32.1 L79.2 -32.55 Q89.65 -33.35 96.45 -27.5 101.25 -33.1 107.2 -33.55 108.3 -35.3 109.55 -36.25 M56.45 -47.0 L56.25 -46.85" fill="none" stroke="#cecece" stroke-linecap="round" stroke-linejoin="round" stroke-width="0.05"/>
    <path d="M39.8 -15.95 Q41.05 -20.3 42.5 -27.7 L42.8 -29.45 43.05 -31.3 Q43.55 -33.7 44.8 -36.65 47.0 -42.0 50.8 -44.85 L51.8 -45.55 Q53.6 -46.7 55.3 -46.8 M53.95 -31.9 L54.1 -32.15 M42.8 -29.45 L42.9 -27.7 Q42.9 -24.9 43.6 -23.2 44.0 -22.25 44.6 -21.65" fill="none" stroke="#581b1b" stroke-linecap="round" stroke-linejoin="round" stroke-width="0.05"/>
    <path d="M114.3 -33.8 L115.0 -33.35 115.85 -32.7 116.5 -32.3 116.45 -32.05 Q120.65 -29.3 123.35 -23.85 124.95 -20.5 125.45 -17.35 128.4 -9.0 131.75 -2.5 M115.0 1.65 Q113.85 -2.95 111.9 -7.5 L110.8 -10.0 110.7 -10.15 110.5 -9.6 108.1 -3.7 Q105.6 1.8 102.8 6.35 L101.4 8.55 Q98.9 14.15 99.45 19.75 L99.55 20.15 99.8 21.6 99.9 21.9 91.45 23.85 Q84.05 29.45 78.0 41.6 L77.45 42.75 75.1 47.95 M59.45 19.9 L59.55 19.7 Q60.9 17.15 61.0 13.25 61.0 9.4 59.8 4.25 L58.7 0.9 58.0 -2.1 Q55.75 -2.85 53.9 -4.3 M55.3 -47.0 L56.25 -47.1 56.25 -46.85 56.25 -46.8 56.0 -43.75 Q55.65 -37.7 56.05 -32.75 L56.1 -31.25 95.3 -22.0 Q100.7 -24.55 104.6 -26.7 M105.15 -29.35 L105.6 -30.35 Q106.5 -32.4 108.45 -33.3 110.95 -34.55 113.85 -33.4 L114.2 -33.9 114.25 -33.8 114.3 -33.8 M49.2 -22.85 Q49.9 -25.0 51.1 -26.5 52.85 -28.65 53.6 -30.55 L53.95 -31.9 M49.2 -22.85 Q48.4 -20.2 48.4 -16.5 L48.5 -13.9 M50.05 -8.85 L50.95 -7.4 52.35 -5.75 53.9 -4.3 M58.0 -2.1 L59.15 -1.85 60.0 -1.7 79.3 6.0 80.1 6.3 Q83.1 7.6 86.75 7.6 90.4 7.65 93.5 6.3 96.35 5.15 98.75 2.8 103.85 -2.1 103.95 -9.15 L103.85 -11.85 M50.05 -8.85 Q48.85 -11.15 48.5 -13.9 M125.55 -16.4 L125.45 -17.35 M116.45 -32.05 L116.2 -32.2 Q115.0 -33.0 113.85 -33.4 M110.7 -10.15 Q109.0 -12.05 107.65 -14.6 M125.55 -16.4 Q125.7 -14.75 125.5 -13.1 L125.55 -13.05 125.4 -11.0 125.35 -9.8 M59.45 19.9 Q62.0 25.4 62.6 36.5 L62.8 41.35 62.8 44.8" fill="none" stroke="#661e1e" stroke-linecap="round" stroke-linejoin="round" stroke-width="0.05"/>
    <path d="M109.85 -110.7 Q141.0 -118.95 134.4 -81.05 127.55 -42.25 137.05 -30.75 133.1 -33.0 129.75 -35.5 L126.65 -38.1 125.6 -39.0 124.55 -40.05 Q122.7 -41.95 121.1 -43.95 110.25 -57.75 112.05 -78.15 114.45 -89.45 112.5 -94.05 M59.1 -89.1 Q57.9 -87.15 57.1 -84.6 54.65 -92.5 59.4 -97.45 M86.15 -73.65 L85.45 -75.5 Q81.15 -83.8 80.75 -92.65 80.3 -90.45 79.55 -88.55 78.3 -85.7 76.2 -83.8 76.05 -88.95 71.7 -92.45 67.35 -88.45 66.9 -84.1 65.15 -85.0 64.25 -86.55 63.6 -87.65 63.45 -89.1 62.5 -91.0 63.45 -93.5 60.8 -91.9 59.1 -89.1 M86.15 -73.65 L89.55 -63.5 Q91.55 -65.85 91.85 -79.25" fill="none" stroke="#1f1a16" stroke-linecap="round" stroke-linejoin="round" stroke-width="0.05"/>
    <path d="M63.2 -75.2 Q60.65 -79.4 57.3 -79.75 62.55 -80.95 63.2 -75.2 M69.05 -73.1 Q76.05 -76.4 81.9 -75.7 73.9 -78.4 69.05 -73.1" fill="none" stroke="#5b4961" stroke-linecap="round" stroke-linejoin="round" stroke-width="0.05"/>
    <path d="M137.15 30.75 Q139.15 34.25 141.3 40.55 L142.2 52.25 M129.2 52.25 L127.85 48.7 Q126.5 42.2 127.75 35.25 127.85 34.0 128.1 33.0 M43.45 15.3 L43.65 17.05 Q44.5 23.05 42.85 28.8 37.55 39.55 33.6 51.85 L33.45 52.25 M25.45 52.25 L29.85 22.15 Q32.3 16.6 34.45 13.45 35.45 12.0 36.4 11.1 42.3 9.35 43.45 15.3 M137.15 30.75 L135.35 28.05 Q129.6 26.35 128.1 33.0" fill="none" stroke="#d7995e" stroke-linecap="round" stroke-linejoin="round" stroke-width="0.05"/>
    <path d="M74.9 47.9 L74.9 45.1 M74.9 47.9 L74.9 52.25 M62.7 44.8 L62.5 52.25" fill="none" stroke="#661e1e" stroke-linecap="round" stroke-linejoin="round" stroke-width="0.05"/>
    <path d="M109.15 45.05 L109.5 47.05 111.1 52.25 M46.95 52.25 L49.25 42.8 49.4 41.5" fill="none" stroke="#cecece" stroke-linecap="round" stroke-linejoin="round" stroke-width="0.05"/>
    <path d="M59.4 -97.45 L59.15 -97.35 Q58.1 -99.8 61.35 -101.1 L61.6 -101.3 Q68.1 -109.35 82.65 -110.3 L83.25 -110.55 84.75 -111.05 Q91.35 -113.1 100.1 -112.25 L103.85 -111.8 Q106.25 -113.1 109.05 -112.7 L109.85 -110.7 111.3 -106.0 Q112.8 -100.05 112.5 -94.05 L112.35 -92.15 Q110.75 -76.6 97.0 -61.0 M59.4 -97.45 L64.5 -98.3 Q71.25 -98.85 78.2 -96.25 81.45 -95.05 84.75 -93.1 L84.9 -93.05 86.3 -92.15 87.75 -91.25 87.9 -91.0 Q90.95 -86.3 91.85 -79.25 92.35 -75.35 92.2 -70.7 M98.0 -69.5 L98.3 -72.05 98.85 -80.95 Q98.85 -85.65 98.25 -89.65 L97.8 -92.15 Q97.15 -95.2 96.15 -97.8 94.75 -101.35 92.65 -104.05 M61.6 -101.3 L66.65 -102.3 69.95 -102.5 Q76.4 -102.55 83.25 -99.8 L84.75 -99.2 87.45 -97.8" fill="none" stroke="#2b3f6c" stroke-linecap="round" stroke-linejoin="round" stroke-width="0.05"/>
  </g>
</svg>
