<?xml version="1.0" encoding="UTF-8" standalone="no"?>
<svg xmlns:xlink="http://www.w3.org/1999/xlink" height="178.3px" width="89.3px" xmlns="http://www.w3.org/2000/svg">
  <g transform="matrix(1, 0, 0, 1, -50.0, 110.55)">
    <path d="M86.2 -104.9 L82.5 -110.55 Q96.5 -103.2 96.6 -97.4 106.1 -99.3 113.2 -96.95 L109.5 -94.3 96.9 -93.9 96.6 -93.85 96.6 -93.95 Q96.4 -98.9 86.2 -104.9 M107.3 -89.95 Q108.1 -90.45 109.35 -90.55 113.1 -91.1 121.1 -88.1 118.9 -86.85 117.4 -85.8 109.85 -88.1 107.2 -86.3 106.95 -88.7 107.3 -89.9 L107.3 -89.95 M115.15 -80.4 Q118.5 -74.4 119.5 -69.3 L118.3 -70.1 Q117.0 -73.65 114.75 -77.6 L114.3 -78.25 Q113.9 -79.1 115.15 -80.4 M64.05 -86.5 L60.75 -84.65 Q66.3 -94.5 75.35 -96.25 71.05 -100.4 67.6 -100.35 81.3 -102.9 86.8 -98.35 87.25 -98.4 87.55 -98.65 88.95 -95.15 86.8 -94.75 84.6 -96.6 80.75 -96.75 82.0 -94.4 82.5 -91.8 L82.55 -91.55 Q83.65 -84.5 79.2 -75.8 80.25 -82.65 78.75 -88.5 L77.85 -91.25 Q76.6 -93.8 64.05 -86.5" fill="#a39174" fill-rule="evenodd" stroke="none"/>
    <path d="M86.2 -104.9 Q96.4 -98.9 96.6 -93.95 L96.6 -93.85 96.9 -93.9 109.5 -94.3 Q105.7 -91.25 107.15 -89.95 L107.2 -89.9 107.3 -89.9 Q106.95 -88.7 107.2 -86.3 109.85 -88.1 117.4 -85.8 113.7 -83.15 114.3 -81.8 114.45 -81.45 114.75 -81.2 L115.15 -80.4 Q113.9 -79.1 114.3 -78.25 L114.75 -77.6 Q117.0 -73.65 118.3 -70.1 116.35 -71.25 114.25 -71.8 114.45 -64.9 111.55 -61.7 111.75 -64.65 110.65 -67.0 L109.8 -68.4 Q108.8 -63.9 105.75 -59.7 L105.0 -58.8 104.8 -58.5 104.65 -58.35 104.8 -58.6 105.5 -60.95 105.7 -61.9 Q105.85 -64.2 104.85 -66.5 103.85 -67.75 102.2 -66.8 L101.65 -66.45 100.6 -65.65 100.5 -65.2 100.55 -65.65 100.55 -65.7 100.5 -65.65 100.35 -65.2 100.35 -65.15 100.1 -64.15 100.0 -63.7 99.75 -62.45 99.05 -56.75 96.5 -67.05 95.2 -71.4 Q100.65 -80.6 79.2 -75.8 74.65 -81.2 72.25 -76.9 L72.05 -76.5 Q72.25 -82.95 64.05 -86.5 76.6 -93.8 77.85 -91.25 L78.75 -88.5 Q80.25 -82.65 79.2 -75.8 83.65 -84.5 82.55 -91.55 L82.5 -91.8 Q82.0 -94.4 80.75 -96.75 84.6 -96.6 86.8 -94.75 88.95 -95.15 87.55 -98.65 89.1 -99.85 86.2 -104.9" fill="#817354" fill-rule="evenodd" stroke="none"/>
    <path d="M107.2 -89.9 L107.3 -89.95 107.3 -89.9 107.2 -89.9" fill="#edf7a6" fill-rule="evenodd" stroke="none"/>
    <path d="M136.4 6.0 L137.5 10.15 137.4 10.3 137.95 10.8 138.55 12.85 139.3 18.4 138.3 20.95 Q132.0 20.3 127.9 18.7 L125.7 17.8 125.65 17.7 Q124.5 17.1 123.6 16.4 L122.7 15.4 Q123.15 14.0 123.8 12.85 124.7 11.05 126.0 9.8 L126.4 10.85 Q126.85 9.25 127.95 8.2 130.45 5.75 136.4 6.0 M50.85 3.5 L50.95 0.7 53.95 -4.0 54.1 -4.15 54.5 -4.75 55.15 -8.4 Q62.85 -9.3 64.9 -4.6 L65.1 -4.05 65.2 -4.3 65.25 -4.25 Q67.15 -1.75 67.35 2.15 L67.3 4.9 66.0 5.45 63.65 5.8 63.6 5.85 61.2 5.75 Q56.75 5.45 50.85 3.5 M75.0 -53.4 Q73.8 -56.75 73.2 -59.35 72.45 -62.65 72.1 -67.55 71.65 -72.55 71.75 -73.4 L72.25 -76.9 Q74.65 -81.2 79.2 -75.8 100.65 -80.6 95.2 -71.4 L96.5 -67.05 94.65 -66.45 97.0 -57.9 96.85 -57.55 Q95.05 -53.35 87.8 -49.0 84.3 -47.0 79.5 -44.9 77.5 -46.8 75.85 -50.95 L75.7 -51.5 75.0 -53.4 M74.45 -64.1 Q75.15 -63.4 76.1 -63.0 L76.45 -66.55 76.25 -69.75 Q73.75 -72.7 72.7 -67.25 L72.65 -66.95 72.7 -66.85 Q73.1 -65.75 73.75 -64.9 74.05 -64.25 74.45 -64.1 M77.85 -57.4 L76.5 -58.15 75.8 -58.9 Q75.75 -58.5 75.85 -58.15 76.0 -56.8 77.85 -57.4 M76.45 -66.55 Q77.0 -63.6 76.75 -61.55 76.55 -59.95 75.8 -58.9 76.55 -59.95 76.75 -61.55 77.0 -63.6 76.45 -66.55 M100.0 -63.7 L100.1 -64.15 100.3 -64.65 100.65 -65.35 101.65 -66.45 102.2 -66.8 Q103.85 -67.75 104.85 -66.5 105.85 -64.2 105.7 -61.9 105.1 -63.45 103.35 -64.15 L102.45 -63.2 102.1 -62.5 Q100.2 -62.25 100.0 -63.4 L100.0 -63.7 M77.4 -70.0 Q76.7 -75.1 72.55 -74.3 75.2 -73.85 77.4 -70.0 M64.15 -0.25 L65.1 -4.05 64.15 -0.25 M84.35 -50.95 L81.2 -51.75 81.05 -51.8 Q78.55 -52.7 76.9 -53.95 78.55 -52.7 81.05 -51.8 L81.2 -51.75 84.35 -50.95 M89.55 -60.2 Q89.05 -66.8 84.1 -66.95 82.65 -64.5 82.4 -60.65 86.7 -58.85 89.55 -60.2 M82.65 -68.0 Q87.9 -70.4 91.85 -69.1 86.65 -72.65 82.65 -68.0 M127.6 14.5 L126.4 10.85 127.6 14.5 M115.85 46.55 Q117.45 49.5 121.75 49.1 L121.55 49.5 Q116.05 50.05 115.05 44.9 L115.15 44.7 115.85 46.55 M60.6 36.05 L62.05 34.7 62.05 34.8 Q59.0 39.1 54.25 36.35 L54.2 35.95 Q57.9 38.05 60.6 36.05" fill="#ffdfc8" fill-rule="evenodd" stroke="none"/>
    <path d="M73.75 -64.9 Q73.3 -65.8 73.4 -67.0 73.4 -68.25 73.9 -69.1 74.35 -70.0 75.0 -70.0 75.65 -70.0 76.05 -69.1 76.4 -68.25 76.35 -67.0 76.3 -65.8 75.85 -64.9 75.35 -64.05 74.75 -64.0 L74.45 -64.1 Q74.05 -64.25 73.75 -64.9 M75.85 -67.8 L75.9 -68.25 75.75 -68.85 75.2 -69.2 74.65 -68.85 74.45 -68.5 74.25 -68.3 Q73.9 -67.8 73.9 -67.05 73.85 -66.3 74.1 -65.75 74.4 -65.2 74.8 -65.2 75.2 -65.2 75.55 -65.75 L75.85 -67.0 75.85 -67.8 M86.65 -63.9 L86.85 -64.4 86.5 -65.15 85.75 -65.45 Q85.35 -65.45 85.05 -65.15 L84.8 -64.85 84.55 -64.55 Q84.1 -64.0 84.1 -63.2 84.05 -62.3 84.4 -61.65 84.8 -61.1 85.3 -61.1 85.85 -61.1 86.25 -61.65 86.7 -62.3 86.7 -63.1 L86.65 -63.9 M85.55 -66.45 Q86.4 -66.45 86.95 -65.5 87.4 -64.5 87.35 -63.1 87.3 -61.7 86.7 -60.7 86.1 -59.8 85.25 -59.8 84.45 -59.8 83.9 -60.7 83.4 -61.7 83.45 -63.1 83.5 -64.5 84.15 -65.5 84.75 -66.45 85.55 -66.45" fill="#0099ff" fill-rule="evenodd" stroke="none"/>
    <path d="M74.45 -64.1 L74.75 -64.0 Q75.35 -64.05 75.85 -64.9 76.3 -65.8 76.35 -67.0 76.4 -68.25 76.05 -69.1 75.65 -70.0 75.0 -70.0 74.35 -70.0 73.9 -69.1 73.4 -68.25 73.4 -67.0 73.3 -65.8 73.75 -64.9 73.1 -65.75 72.7 -66.85 L72.7 -67.25 Q73.75 -72.7 76.25 -69.75 L76.45 -66.55 76.1 -63.0 Q75.15 -63.4 74.45 -64.1 M74.45 -68.5 L74.65 -68.85 75.2 -69.2 75.75 -68.85 75.9 -68.25 75.85 -67.8 75.75 -67.7 75.7 -67.5 75.15 -67.25 Q74.75 -67.25 74.5 -67.5 L74.35 -68.25 74.45 -68.5 M84.8 -64.85 L85.05 -65.15 Q85.35 -65.45 85.75 -65.45 L86.5 -65.15 86.85 -64.4 86.65 -63.9 86.45 -63.65 Q86.15 -63.35 85.7 -63.35 85.25 -63.35 85.0 -63.65 84.65 -63.95 84.65 -64.4 L84.8 -64.85 M85.55 -66.45 Q84.75 -66.45 84.15 -65.5 83.5 -64.5 83.45 -63.1 83.4 -61.7 83.9 -60.7 84.45 -59.8 85.25 -59.8 86.1 -59.8 86.7 -60.7 87.3 -61.7 87.35 -63.1 87.4 -64.5 86.95 -65.5 86.4 -66.45 85.55 -66.45 M89.55 -60.2 Q86.7 -58.85 82.4 -60.65 82.65 -64.5 84.1 -66.95 89.05 -66.8 89.55 -60.2 M93.45 3.35 L93.55 3.4 93.35 3.35 93.45 3.35" fill="#ffffff" fill-rule="evenodd" stroke="none"/>
    <path d="M74.45 -68.5 L74.35 -68.25 74.5 -67.5 Q74.75 -67.25 75.15 -67.25 L75.7 -67.5 75.75 -67.7 75.85 -67.8 75.85 -67.0 75.55 -65.75 Q75.2 -65.2 74.8 -65.2 74.4 -65.2 74.1 -65.75 73.85 -66.3 73.9 -67.05 73.9 -67.8 74.25 -68.3 L74.45 -68.5 M86.65 -63.9 L86.7 -63.1 Q86.7 -62.3 86.25 -61.65 85.85 -61.1 85.3 -61.1 84.8 -61.1 84.4 -61.65 84.05 -62.3 84.1 -63.2 84.1 -64.0 84.55 -64.55 L84.8 -64.85 84.65 -64.4 Q84.65 -63.95 85.0 -63.65 85.25 -63.35 85.7 -63.35 86.15 -63.35 86.45 -63.65 L86.65 -63.9" fill="#000000" fill-rule="evenodd" stroke="none"/>
    <path d="M77.4 -70.0 Q75.2 -73.85 72.55 -74.3 76.7 -75.1 77.4 -70.0 M82.65 -68.0 Q86.65 -72.65 91.85 -69.1 87.9 -70.4 82.65 -68.0" fill="#503e53" fill-rule="evenodd" stroke="none"/>
    <path d="M105.0 -58.8 L104.9 -58.6 104.5 -57.8 102.65 -56.55 102.4 -55.1 102.25 -55.15 101.65 -49.7 95.65 -49.1 94.9 -48.5 Q84.8 -43.15 79.5 -44.9 84.3 -47.0 87.8 -49.0 95.05 -53.35 96.85 -57.55 L97.0 -57.9 94.65 -66.45 96.5 -67.05 99.05 -56.75 99.75 -62.45 100.0 -63.7 100.0 -63.4 Q100.2 -62.25 102.1 -62.5 L102.45 -63.2 103.35 -64.15 Q105.1 -63.45 105.7 -61.9 L105.5 -60.95 104.8 -58.6 104.65 -58.35 104.8 -58.5 105.0 -58.8 M135.0 0.95 L136.4 6.0 Q130.45 5.75 127.95 8.2 126.85 9.25 126.4 10.85 L126.0 9.8 123.25 2.7 Q130.0 4.0 135.0 0.95 M55.15 -8.4 L55.95 -12.6 Q60.8 -9.7 67.15 -11.25 L65.2 -4.3 65.1 -4.05 64.9 -4.6 Q62.85 -9.3 55.15 -8.4 M75.8 -58.9 L76.5 -58.15 77.85 -57.4 Q76.0 -56.8 75.85 -58.15 75.75 -58.5 75.8 -58.9 M100.1 -64.15 L100.35 -65.15 100.35 -65.2 100.5 -65.65 100.55 -65.7 100.55 -65.65 100.5 -65.2 100.6 -65.65 101.65 -66.45 100.65 -65.35 100.3 -64.65 100.1 -64.15 M102.65 -56.55 L101.95 -56.05 Q99.8 -53.95 99.2 -52.6 98.65 -51.45 95.65 -49.1 98.65 -51.45 99.2 -52.6 99.8 -53.95 101.95 -56.05 L102.65 -56.55 M101.45 -58.5 L101.45 -59.15 Q101.4 -59.95 101.5 -60.65 L101.65 -61.15 Q101.8 -61.9 102.1 -62.5 101.8 -61.9 101.65 -61.15 L101.5 -60.65 Q102.45 -60.3 103.1 -59.3 102.45 -60.3 101.5 -60.65 101.4 -59.95 101.45 -59.15 L101.45 -58.5" fill="#ffd0ae" fill-rule="evenodd" stroke="none"/>
    <path d="M108.3 -52.45 Q111.15 -45.95 109.9 -40.75 L109.65 -40.55 109.5 -40.45 Q106.85 -38.65 103.75 -37.25 L103.75 -37.2 103.8 -37.2 Q93.55 -25.8 80.85 -28.75 78.5 -29.9 76.8 -31.4 75.7 -32.4 74.9 -33.5 71.3 -38.45 73.3 -46.4 L73.75 -48.1 73.3 -46.4 Q71.3 -38.45 74.9 -33.5 75.7 -32.4 76.8 -31.4 78.5 -29.9 80.85 -28.75 93.55 -25.8 103.8 -37.2 109.25 -34.95 110.25 -34.25 L110.85 -33.85 Q111.75 -35.05 113.1 -35.75 L114.5 -36.3 116.05 -36.5 Q118.75 -36.55 121.9 -34.55 126.85 -31.45 130.1 -25.15 131.9 -21.65 132.55 -18.25 L132.9 -16.1 Q135.1 -6.4 138.15 -1.65 L135.0 0.95 Q130.0 4.0 123.25 2.7 L120.75 2.05 118.45 -4.3 116.5 -9.55 117.85 -8.35 119.4 -7.05 119.45 -7.0 120.1 -6.6 120.45 -6.3 Q125.05 -3.55 128.65 -5.3 130.4 -6.15 131.4 -7.85 L131.6 -8.2 131.9 -8.75 132.1 -9.2 132.3 -9.5 132.35 -9.75 Q132.8 -11.15 132.9 -12.95 L132.95 -14.4 Q132.5 -12.85 131.45 -11.7 L130.25 -10.75 130.05 -10.65 129.15 -10.2 128.65 -9.9 Q126.85 -9.65 125.15 -9.95 123.2 -10.3 121.35 -11.3 L120.8 -11.65 Q118.4 -13.25 116.15 -16.05 L114.5 -18.3 Q111.75 -22.25 109.2 -28.15 L109.1 -28.55 109.05 -28.15 Q108.75 -22.45 112.0 -16.15 L112.15 -15.85 Q113.5 -13.2 115.2 -11.1 112.6 -0.8 106.65 7.45 L107.95 16.55 Q106.55 19.65 104.7 20.9 L103.75 21.05 103.55 21.15 100.6 21.4 Q95.9 21.65 89.4 21.1 L88.7 21.05 88.0 20.95 87.25 20.9 81.75 20.25 80.7 19.85 80.2 19.7 80.15 19.7 75.85 17.9 Q74.1 16.95 72.85 15.95 L71.75 15.05 71.15 14.4 69.9 12.7 69.8 12.3 69.55 11.75 Q67.4 8.55 69.9 -13.0 L70.0 -13.75 Q67.95 -16.5 67.0 -18.25 L66.9 -18.3 67.0 -18.25 Q67.95 -16.5 70.0 -13.75 L69.9 -13.0 69.7 -12.05 67.15 -11.25 Q60.8 -9.7 55.95 -12.6 54.7 -13.3 53.6 -14.3 55.9 -18.75 57.0 -27.65 L57.1 -29.55 Q57.4 -32.6 58.7 -35.9 61.05 -41.75 65.3 -44.85 67.35 -46.45 69.4 -46.8 L69.55 -47.1 69.8 -47.45 70.85 -47.65 73.1 -48.0 73.4 -48.05 73.6 -48.1 73.65 -48.1 73.6 -48.05 73.6 -48.1 73.6 -48.05 73.65 -48.1 73.75 -48.1 73.75 -48.25 73.8 -48.35 Q73.1 -50.45 74.4 -52.45 74.45 -51.65 75.85 -50.95 77.5 -46.8 79.5 -44.9 84.8 -43.15 94.9 -48.5 L95.65 -49.1 101.65 -49.7 102.1 -49.75 103.45 -49.95 Q108.4 -51.0 108.3 -52.45 M99.45 -41.5 Q83.9 -35.1 77.7 -38.35 L77.0 -38.8 Q73.85 -41.0 73.65 -46.25 L73.75 -48.1 73.65 -46.25 Q73.85 -41.0 77.0 -38.8 L77.7 -38.35 Q83.9 -35.1 99.45 -41.5 M57.1 -26.05 L57.3 -24.75 57.8 -22.75 58.15 -21.95 58.2 -21.8 58.6 -21.05 58.95 -20.6 59.15 -20.3 Q60.2 -18.9 61.85 -18.2 64.25 -17.25 66.9 -18.3 L66.35 -19.3 Q65.45 -20.95 64.9 -22.6 L64.6 -22.55 61.45 -22.35 60.95 -22.55 60.1 -22.9 59.9 -23.0 Q58.8 -23.6 58.1 -24.35 57.45 -25.15 57.1 -26.05 L57.0 -27.65 57.1 -26.05 M63.6 -33.05 Q63.0 -27.8 64.9 -22.6 63.0 -27.8 63.6 -33.05 M132.9 -16.1 L132.95 -14.4 132.9 -16.1 M79.85 -6.5 L79.95 -6.4 79.95 -6.5 79.85 -6.5 M93.45 3.35 L93.35 3.35 93.55 3.4 93.45 3.35 M80.15 27.65 L85.7 29.0 88.5 29.25 88.6 42.65 88.6 44.7 88.7 61.7 Q87.85 60.7 87.05 60.25 85.95 59.5 84.9 59.9 L82.4 59.75 Q80.5 59.15 79.45 57.25 77.95 55.55 76.7 55.05 75.7 54.65 74.9 55.05 L73.4 54.15 73.2 48.05 72.9 34.45 72.6 24.45 Q75.65 26.35 80.15 27.65 M84.75 43.2 L84.9 59.9 84.75 43.2 M71.95 1.9 L71.95 1.85 71.85 1.85 71.95 1.9 M74.65 46.05 L74.9 55.05 74.65 46.05 M79.8 50.4 L79.45 57.25 79.8 50.4" fill="#c1a49d" fill-rule="evenodd" stroke="none"/>
    <path d="M102.4 -55.1 L103.35 -54.9 Q108.35 -53.9 108.3 -52.45 108.4 -51.0 103.45 -49.95 L102.1 -49.75 101.65 -49.7 102.25 -55.15 102.4 -55.1 M74.4 -52.45 Q74.4 -52.95 75.0 -53.4 L75.7 -51.5 75.85 -50.95 Q74.45 -51.65 74.4 -52.45" fill="#674743" fill-rule="evenodd" stroke="none"/>
    <path d="M109.5 -40.45 L111.3 -39.6 112.45 -38.9 116.05 -36.5 114.5 -36.3 113.1 -35.75 Q111.75 -35.05 110.85 -33.85 L110.25 -34.25 Q109.25 -34.95 103.8 -37.2 L103.75 -37.2 103.75 -37.25 Q106.85 -38.65 109.5 -40.45 M58.6 -21.05 L58.2 -21.8 58.15 -21.95 57.8 -22.75 57.3 -24.75 57.1 -26.05 Q57.45 -25.15 58.1 -24.35 58.8 -23.6 59.9 -23.0 L60.1 -22.9 60.95 -22.55 61.45 -22.35 64.6 -22.55 64.9 -22.6 Q65.45 -20.95 66.35 -19.3 L66.9 -18.3 Q64.25 -17.25 61.85 -18.2 60.2 -18.9 59.15 -20.3 L58.95 -20.6 58.6 -21.05 M104.7 20.9 Q106.55 19.65 107.95 16.55 L106.65 7.45 Q112.6 -0.8 115.2 -11.1 113.5 -13.2 112.15 -15.85 L112.0 -16.15 Q108.75 -22.45 109.05 -28.15 L109.2 -28.15 Q111.75 -22.25 114.5 -18.3 L116.15 -16.05 Q118.4 -13.25 120.8 -11.65 L121.35 -11.3 Q123.2 -10.3 125.15 -9.95 126.85 -9.65 128.65 -9.9 L129.15 -10.2 130.05 -10.65 130.25 -10.75 131.45 -11.7 Q132.5 -12.85 132.95 -14.4 L132.9 -12.95 Q132.8 -11.15 132.35 -9.75 L132.3 -9.5 132.1 -9.2 131.9 -8.75 131.6 -8.2 131.4 -7.85 Q130.4 -6.15 128.65 -5.3 125.05 -3.55 120.45 -6.3 L120.1 -6.6 119.45 -7.0 119.4 -7.05 117.85 -8.35 116.5 -9.55 118.45 -4.3 Q116.6 0.5 114.45 4.3 L113.95 14.45 Q112.6 17.55 110.75 18.7 108.55 20.25 104.7 20.9 M116.5 -9.55 L115.2 -11.1 116.5 -9.55" fill="#b48f87" fill-rule="evenodd" stroke="none"/>
    <path d="M138.3 20.95 L138.35 20.95 138.25 21.55 Q138.5 22.85 136.85 25.9 L132.6 32.8 127.35 40.85 Q126.65 41.8 126.4 44.25 125.55 46.65 124.45 47.85 123.3 49.15 121.75 49.1 117.45 49.5 115.85 46.55 L117.4 43.1 118.1 41.35 118.75 39.85 120.0 36.6 120.85 34.6 122.7 29.85 122.95 29.3 124.15 26.3 Q126.1 20.6 126.1 18.55 126.1 18.15 125.7 17.8 L127.9 18.7 Q132.0 20.3 138.3 20.95 M116.75 59.8 L117.7 67.75 100.75 67.75 93.35 67.75 93.6 63.85 Q93.95 58.3 93.45 44.95 97.15 43.55 100.3 43.1 103.3 42.6 105.85 43.0 L104.45 44.35 106.45 51.3 105.6 53.9 116.05 60.85 116.15 60.9 116.75 59.8 M89.1 48.85 Q88.95 59.4 89.3 67.75 L71.45 67.75 62.9 67.75 65.8 51.35 66.4 47.15 66.75 44.0 67.25 38.7 67.75 32.5 69.4 32.3 71.55 32.1 72.9 34.45 73.2 48.05 73.4 54.15 74.9 55.05 Q75.7 54.65 76.7 55.05 77.95 55.55 79.45 57.25 80.5 59.15 82.4 59.75 L84.9 59.9 Q85.95 59.5 87.05 60.25 87.85 60.7 88.7 61.7 L88.6 44.7 89.1 48.85 M52.15 33.25 Q51.8 31.75 52.0 29.6 52.75 27.25 52.6 26.1 L51.05 16.6 Q50.2 10.75 50.05 8.6 49.8 5.1 50.6 4.0 L50.7 3.4 50.85 3.5 Q56.75 5.45 61.2 5.75 L63.6 5.85 Q63.05 5.95 62.85 6.35 62.0 8.15 61.5 14.2 L61.35 17.35 61.3 18.05 61.0 23.05 60.95 25.25 60.8 28.8 60.75 30.35 60.75 32.2 60.6 36.05 Q57.9 38.05 54.2 35.95 52.6 35.25 52.15 33.25 M100.75 67.75 L100.3 43.1 100.75 67.75 M71.45 67.75 L73.2 48.05 71.45 67.75" fill="#9cb19c" fill-rule="evenodd" stroke="none"/>
    <path d="M79.85 -6.5 L79.95 -6.5 79.95 -6.4 79.85 -6.5" fill="#cecece" fill-rule="evenodd" stroke="none"/>
    <path d="M93.45 44.95 L93.4 42.4 91.3 42.65 89.3 42.65 88.9 42.65 89.1 48.85 88.6 44.7 88.6 42.65 88.5 29.25 89.2 29.3 95.4 29.5 99.9 29.25 Q106.0 28.55 110.7 26.5 L111.1 26.3 110.9 27.1 112.3 31.65 113.4 36.4 112.55 36.35 105.85 43.0 Q103.3 42.6 100.3 43.1 97.15 43.55 93.45 44.95 M67.3 4.9 L67.6 4.7 Q67.9 7.1 67.6 9.95 67.25 12.8 65.45 14.9 65.1 16.2 65.05 18.85 L65.05 19.05 Q64.95 21.55 63.65 23.3 L63.45 25.65 63.25 27.1 63.05 28.5 62.6 30.25 62.95 31.85 Q63.3 33.0 62.25 34.4 L62.05 34.7 60.6 36.05 60.75 32.2 60.75 30.35 60.8 28.8 60.95 25.25 61.0 23.05 61.3 18.05 61.35 17.35 61.5 14.2 Q62.0 8.15 62.85 6.35 63.05 5.95 63.6 5.85 L63.65 5.8 66.0 5.45 67.3 4.9 M68.1 28.75 Q68.4 26.0 68.95 23.75 L68.6 21.2 71.25 23.55 72.6 24.45 72.9 34.45 71.55 32.1 69.4 32.3 67.75 32.5 68.1 28.75 M122.7 15.4 L123.6 16.4 Q124.5 17.1 125.65 17.7 L125.7 17.8 Q126.1 18.15 126.1 18.55 126.1 20.6 124.15 26.3 L122.95 29.3 122.7 29.85 120.85 34.6 120.0 36.6 118.75 39.85 118.1 41.35 117.4 43.1 115.85 46.55 115.15 44.7 115.05 44.35 Q114.7 42.65 115.5 41.8 L116.5 40.45 116.75 38.7 117.15 37.3 117.6 35.95 118.4 33.7 Q117.9 31.55 118.85 29.25 L118.95 29.05 Q120.0 26.65 120.25 25.3 119.45 22.65 120.35 19.9 121.25 17.15 122.5 15.1 L122.7 15.4 M88.9 42.65 L88.6 42.65 88.9 42.65 M93.4 42.4 Q93.3 34.25 95.4 29.5 93.3 34.25 93.4 42.4 M99.9 29.25 L100.3 43.1 99.9 29.25 M110.7 26.5 L110.9 27.1 110.7 26.5 M69.4 26.0 L68.95 23.75 69.4 26.0" fill="#89a58a" fill-rule="evenodd" stroke="none"/>
    <path d="M69.55 11.75 L69.8 12.3 69.9 12.7 71.15 14.4 71.75 15.05 72.85 15.95 Q74.1 16.95 75.85 17.9 L80.15 19.7 80.2 19.7 79.9 20.15 Q78.4 22.9 80.15 27.65 75.65 26.35 72.6 24.45 L71.25 23.55 68.6 21.2 68.15 20.65 Q67.0 15.75 68.9 12.75 L69.1 12.3 69.55 11.75" fill="#956c5e" fill-rule="evenodd" stroke="none"/>
    <path d="M71.95 1.9 L71.85 1.85 71.95 1.85 71.95 1.9" fill="#eebf5a" fill-rule="evenodd" stroke="none"/>
    <path d="M109.05 -28.15 L109.1 -28.55 109.2 -28.15 109.05 -28.15" fill="#f2f2f2" fill-rule="evenodd" stroke="none"/>
    <path d="M124.45 47.85 L118.6 59.1 116.8 59.75 116.75 59.8 116.15 60.9 116.05 60.85 113.45 52.1 112.2 49.65 112.15 49.4 110.7 46.9 104.45 44.35 105.85 43.0 112.55 36.35 113.4 36.4 Q115.35 36.55 117.15 37.3 L116.75 38.7 116.5 40.45 115.5 41.8 Q114.7 42.65 115.05 44.35 L115.15 44.7 115.05 44.9 Q116.05 50.05 121.55 49.5 L121.75 49.1 Q123.3 49.15 124.45 47.85 M54.55 49.05 L54.4 49.05 54.25 47.75 52.85 46.4 52.15 33.25 Q52.6 35.25 54.2 35.95 L54.25 36.35 Q59.0 39.1 62.05 34.8 L62.05 34.7 62.25 34.4 Q63.3 33.0 62.95 31.85 L62.6 30.25 63.05 28.5 63.25 27.1 Q65.6 27.2 67.9 28.15 L68.1 28.75 67.75 32.5 67.25 38.7 65.1 38.6 62.8 40.2 62.6 40.45 60.5 42.2 54.55 49.05" fill="#fbdab3" fill-rule="evenodd" stroke="none"/>
    <path d="M80.2 19.7 L80.7 19.85 81.75 20.25 87.25 20.9 88.0 20.95 88.7 21.05 89.4 21.1 Q95.9 21.65 100.6 21.4 L103.55 21.15 103.75 21.05 104.7 20.9 Q108.55 20.25 110.75 18.7 113.45 21.85 112.05 25.8 L111.1 26.3 110.7 26.5 Q106.0 28.55 99.9 29.25 L95.4 29.5 89.2 29.3 88.5 29.25 85.7 29.0 80.15 27.65 Q78.4 22.9 79.9 20.15 L80.2 19.7" fill="#684942" fill-rule="evenodd" stroke="none"/>
    <path d="M66.4 47.15 L54.55 49.05 60.5 42.2 62.6 40.45 62.8 40.2 65.1 38.6 67.25 38.7 66.75 44.0 66.4 47.15 M104.45 44.35 L110.7 46.9 112.15 49.4 106.45 51.3 112.15 49.4 112.2 49.65 113.45 52.1 116.05 60.85 105.6 53.9 106.45 51.3 104.45 44.35 M66.75 44.0 L62.8 40.2 66.75 44.0" fill="#fac98f" fill-rule="evenodd" stroke="none"/>
    <path d="M109.5 -94.3 L113.2 -96.95 Q106.1 -99.3 96.6 -97.4 96.5 -103.2 82.5 -110.55 L86.2 -104.9 M109.5 -94.3 Q105.7 -91.25 107.15 -89.95 L107.2 -89.9 107.3 -89.95 Q108.1 -90.45 109.35 -90.55 113.1 -91.1 121.1 -88.1 118.9 -86.85 117.4 -85.8 113.7 -83.15 114.3 -81.8 114.45 -81.45 114.75 -81.2 L115.15 -80.4 Q118.5 -74.4 119.5 -69.3 L118.3 -70.1 Q116.35 -71.25 114.25 -71.8 114.45 -64.9 111.55 -61.7 111.75 -64.65 110.65 -67.0 L109.8 -68.4 Q108.8 -63.9 105.75 -59.7 L105.0 -58.8 M72.25 -76.9 L72.05 -76.5 Q72.25 -82.95 64.05 -86.5 L60.75 -84.65 Q66.3 -94.5 75.35 -96.25 71.05 -100.4 67.6 -100.35 81.3 -102.9 86.8 -98.35 87.25 -98.4 87.55 -98.65 89.1 -99.85 86.2 -104.9 M96.5 -67.05 L95.2 -71.4 Q100.65 -80.6 79.2 -75.8 74.65 -81.2 72.25 -76.9 M96.5 -67.05 L99.05 -56.75 99.75 -62.45 100.0 -63.7 100.1 -64.15 100.35 -65.15 100.35 -65.2 100.5 -65.65 M100.55 -65.7 L100.55 -65.65 100.5 -65.2 100.6 -65.65 101.65 -66.45 102.2 -66.8 M104.85 -66.5 Q105.85 -64.2 105.7 -61.9 L105.5 -60.95 104.8 -58.6 104.65 -58.35 104.8 -58.5 105.0 -58.8" fill="none" stroke="#4f4535" stroke-linecap="round" stroke-linejoin="round" stroke-width="0.05"/>
    <path d="M105.0 -58.8 L104.9 -58.6 104.5 -57.8 102.65 -56.55 M135.0 0.95 L136.4 6.0 137.5 10.15 M137.4 10.3 L137.95 10.8 138.55 12.85 139.3 18.4 138.3 20.95 M124.45 47.85 L118.6 59.1 116.8 59.75 116.75 59.8 M66.4 47.15 L54.55 49.05 54.4 49.05 54.25 47.75 52.85 46.4 52.15 33.25 M50.85 3.5 L50.95 0.7 53.95 -4.0 54.1 -4.15 54.5 -4.75 55.15 -8.4 55.95 -12.6 M75.0 -53.4 Q73.8 -56.75 73.2 -59.35 72.45 -62.65 72.1 -67.55 71.65 -72.55 71.75 -73.4 L72.25 -76.9 M74.45 -64.1 Q75.15 -63.4 76.1 -63.0 L76.45 -66.55 76.25 -69.75 Q73.75 -72.7 72.7 -67.25 M72.7 -66.85 Q73.1 -65.75 73.75 -64.9 74.05 -64.25 74.45 -64.1 M72.7 -66.85 L72.65 -66.95 72.7 -67.25 M77.85 -57.4 Q76.0 -56.8 75.85 -58.15 75.75 -58.5 75.8 -58.9 76.55 -59.95 76.75 -61.55 77.0 -63.6 76.45 -66.55 M75.85 -50.95 L75.7 -51.5 75.0 -53.4 M75.85 -50.95 Q77.5 -46.8 79.5 -44.9 M67.15 -11.25 L65.2 -4.3 65.25 -4.25 Q67.15 -1.75 67.35 2.15 L67.3 4.9 M63.25 27.1 Q65.6 27.2 67.9 28.15 L68.1 28.75 M65.1 -4.05 L65.2 -4.3 M65.1 -4.05 L64.15 -0.25 M102.1 -62.5 L102.45 -63.2 103.35 -64.15 M100.3 -64.65 L100.65 -65.35 101.65 -66.45 M76.9 -53.95 Q78.55 -52.7 81.05 -51.8 L81.2 -51.75 84.35 -50.95 M89.55 -60.2 Q89.05 -66.8 84.1 -66.95 82.65 -64.5 82.4 -60.65 86.7 -58.85 89.55 -60.2 M102.1 -62.5 Q101.8 -61.9 101.65 -61.15 L101.5 -60.65 Q102.45 -60.3 103.1 -59.3 M101.5 -60.65 Q101.4 -59.95 101.45 -59.15 L101.45 -58.5 M95.65 -49.1 Q98.65 -51.45 99.2 -52.6 99.8 -53.95 101.95 -56.05 L102.65 -56.55 M95.65 -49.1 L94.9 -48.5 Q84.8 -43.15 79.5 -44.9 M126.0 9.8 L126.4 10.85 127.6 14.5 M126.0 9.8 L123.25 2.7 M122.7 15.4 Q123.15 14.0 123.8 12.85 124.7 11.05 126.0 9.8 M121.55 49.5 L121.75 49.1 M113.4 36.4 Q115.35 36.55 117.15 37.3 M105.85 43.0 L112.55 36.35 113.4 36.4 M104.45 44.35 L106.45 51.3 112.15 49.4 112.2 49.65 M116.05 60.85 L116.15 60.9 116.75 59.8 M105.85 43.0 L104.45 44.35 M115.15 44.7 L115.05 44.9 M116.05 60.85 L105.6 53.9 106.45 51.3 M54.2 35.95 L54.25 36.35 M62.05 34.8 L62.05 34.7 M62.8 40.2 L66.75 44.0 M62.8 40.2 L62.6 40.45" fill="none" stroke="#d7995e" stroke-linecap="round" stroke-linejoin="round" stroke-width="0.05"/>
    <path d="M77.4 -70.0 Q75.2 -73.85 72.55 -74.3 76.7 -75.1 77.4 -70.0 M82.65 -68.0 Q87.9 -70.4 91.85 -69.1 86.65 -72.65 82.65 -68.0" fill="none" stroke="#5b4961" stroke-linecap="round" stroke-linejoin="round" stroke-width="0.05"/>
    <path d="M102.65 -56.55 L102.4 -55.1 103.35 -54.9 Q108.35 -53.9 108.3 -52.45 111.15 -45.95 109.9 -40.75 L109.65 -40.55 109.5 -40.45 111.3 -39.6 112.45 -38.9 116.05 -36.5 Q118.75 -36.55 121.9 -34.55 126.85 -31.45 130.1 -25.15 131.9 -21.65 132.55 -18.25 L132.9 -16.1 Q135.1 -6.4 138.15 -1.65 L135.0 0.95 M55.95 -12.6 Q54.7 -13.3 53.6 -14.3 55.9 -18.75 57.0 -27.65 L57.1 -29.55 Q57.4 -32.6 58.7 -35.9 61.05 -41.75 65.3 -44.85 67.35 -46.45 69.4 -46.8 M69.55 -47.1 L69.8 -47.45 70.85 -47.65 73.1 -48.0 73.4 -48.05 73.6 -48.1 73.65 -48.1 73.75 -48.25 73.8 -48.35 Q73.1 -50.45 74.4 -52.45 74.4 -52.95 75.0 -53.4 M74.4 -52.45 Q74.45 -51.65 75.85 -50.95 M73.65 -48.1 L73.6 -48.05 73.6 -48.1 M73.65 -48.1 L73.75 -48.1 73.3 -46.4 Q71.3 -38.45 74.9 -33.5 75.7 -32.4 76.8 -31.4 78.5 -29.9 80.85 -28.75 93.55 -25.8 103.8 -37.2 M103.75 -37.25 Q106.85 -38.65 109.5 -40.45 M58.6 -21.05 L58.2 -21.8 58.15 -21.95 57.8 -22.75 57.3 -24.75 57.1 -26.05 57.0 -27.65 M64.9 -22.6 Q63.0 -27.8 63.6 -33.05 M66.9 -18.3 L67.0 -18.25 Q67.95 -16.5 70.0 -13.75 L69.9 -13.0 Q67.4 8.55 69.55 11.75 L69.8 12.3 69.9 12.7 71.15 14.4 71.75 15.05 72.85 15.95 Q74.1 16.95 75.85 17.9 L80.15 19.7 80.2 19.7 80.7 19.85 81.75 20.25 87.25 20.9 88.0 20.95 88.7 21.05 89.4 21.1 Q95.9 21.65 100.6 21.4 L103.55 21.15 103.75 21.05 104.7 20.9 M115.2 -11.1 Q113.5 -13.2 112.15 -15.85 M132.95 -14.4 L132.9 -16.1 M64.9 -22.6 Q65.45 -20.95 66.35 -19.3 L66.9 -18.3 M69.9 -13.0 L69.7 -12.05 67.15 -11.25 Q60.8 -9.7 55.95 -12.6 M68.6 21.2 L68.15 20.65 Q67.0 15.75 68.9 12.75 L69.1 12.3 69.55 11.75 M79.85 -6.5 L79.95 -6.4 79.95 -6.5 79.85 -6.5 M102.25 -55.15 L102.4 -55.1 M108.3 -52.45 Q108.4 -51.0 103.45 -49.95 L102.1 -49.75 101.65 -49.7 95.65 -49.1 M114.5 -36.3 L116.05 -36.5 M120.45 -6.3 L120.1 -6.6 119.45 -7.0 119.4 -7.05 117.85 -8.35 116.5 -9.55 118.45 -4.3 120.75 2.05 123.25 2.7 Q130.0 4.0 135.0 0.95 M115.2 -11.1 L116.5 -9.55 M131.9 -8.75 L132.1 -9.2 132.3 -9.5 132.35 -9.75 Q132.8 -11.15 132.9 -12.95 L132.95 -14.4 M110.75 18.7 Q108.55 20.25 104.7 20.9 M118.45 -4.3 Q116.6 0.5 114.45 4.3 L113.95 14.45 Q112.6 17.55 110.75 18.7 113.45 21.85 112.05 25.8 L111.1 26.3 M88.5 29.25 L89.2 29.3 95.4 29.5 99.9 29.25 Q106.0 28.55 110.7 26.5 L111.1 26.3 M80.15 27.65 L85.7 29.0 88.5 29.25 88.6 42.65 88.6 44.7 88.7 61.7 Q87.85 60.7 87.05 60.25 85.95 59.5 84.9 59.9 L82.4 59.75 Q80.5 59.15 79.45 57.25 77.95 55.55 76.7 55.05 75.7 54.65 74.9 55.05 L73.4 54.15 73.2 48.05 M84.9 59.9 L84.75 43.2 M71.95 1.9 L71.85 1.85 71.95 1.85 71.95 1.9 M68.6 21.2 L71.25 23.55 72.6 24.45 Q75.65 26.35 80.15 27.65 M72.9 34.45 L73.2 48.05 M72.6 24.45 L72.9 34.45 M79.45 57.25 L79.8 50.4 M74.9 55.05 L74.65 46.05" fill="none" stroke="#674743" stroke-linecap="round" stroke-linejoin="round" stroke-width="0.05"/>
    <path d="M138.3 20.95 L138.35 20.95 138.25 21.55 Q138.5 22.85 136.85 25.9 L132.6 32.8 127.35 40.85 Q126.65 41.8 126.4 44.25 125.55 46.65 124.45 47.85 M116.75 59.8 L117.7 67.75 M93.35 67.75 L93.6 63.85 Q93.95 58.3 93.45 44.95 L93.4 42.4 91.3 42.65 89.3 42.65 88.9 42.65 89.1 48.85 Q88.95 59.4 89.3 67.75 M62.9 67.75 L65.8 51.35 66.4 47.15 M52.15 33.25 Q51.8 31.75 52.0 29.6 52.75 27.25 52.6 26.1 L51.05 16.6 Q50.2 10.75 50.05 8.6 49.8 5.1 50.6 4.0 L50.7 3.4 50.85 3.5 Q56.75 5.45 61.2 5.75 L63.6 5.85 M73.75 -48.25 L73.75 -48.1 73.65 -46.25 Q73.85 -41.0 77.0 -38.8 L77.7 -38.35 Q83.9 -35.1 99.45 -41.5 M67.3 4.9 L67.6 4.7 Q67.9 7.1 67.6 9.95 67.25 12.8 65.45 14.9 65.1 16.2 65.05 18.85 L65.05 19.05 Q64.95 21.55 63.65 23.3 L63.45 25.65 63.25 27.1 M68.1 28.75 Q68.4 26.0 68.95 23.75 L68.6 21.2 M122.7 15.4 L123.6 16.4 Q124.5 17.1 125.65 17.7 M125.7 17.8 L127.9 18.7 Q132.0 20.3 138.3 20.95 M115.85 46.55 Q117.45 49.5 121.75 49.1 123.3 49.15 124.45 47.85 M117.15 37.3 L117.6 35.95 118.4 33.7 Q117.9 31.55 118.85 29.25 L118.95 29.05 Q120.0 26.65 120.25 25.3 119.45 22.65 120.35 19.9 121.25 17.15 122.5 15.1 L122.7 15.4 M111.1 26.3 L110.9 27.1 112.3 31.65 113.4 36.4 M117.15 37.3 L116.75 38.7 116.5 40.45 115.5 41.8 Q114.7 42.65 115.05 44.35 L115.15 44.7 115.85 46.55 M88.6 42.65 L88.9 42.65 M100.3 43.1 L99.9 29.25 M95.4 29.5 Q93.3 34.25 93.4 42.4 M110.9 27.1 L110.7 26.5 M73.2 48.05 L71.45 67.75 M100.3 43.1 L100.75 67.75 M63.65 5.8 L66.0 5.45 67.3 4.9 M60.6 36.05 L62.05 34.7 62.25 34.4 Q63.3 33.0 62.95 31.85 L62.6 30.25 63.05 28.5 63.25 27.1 M54.2 35.95 Q57.9 38.05 60.6 36.05 M52.15 33.25 Q52.6 35.25 54.2 35.95 M67.75 32.5 L67.25 38.7 66.75 44.0 66.4 47.15 M67.75 32.5 L68.1 28.75 M68.95 23.75 L69.4 26.0" fill="none" stroke="#49614b" stroke-linecap="round" stroke-linejoin="round" stroke-width="0.05"/>
  </g>
</svg>
