<?xml version="1.0" encoding="UTF-8" standalone="no"?>
<svg xmlns:xlink="http://www.w3.org/1999/xlink" height="170.25px" width="88.5px" xmlns="http://www.w3.org/2000/svg">
  <g transform="matrix(1, 0, 0, 1, -50.4, 112.85)">
    <path d="M90.1 -112.85 L95.4 -112.85 Q95.45 -109.1 98.6 -105.65 101.55 -111.3 107.3 -112.85 L108.15 -112.85 Q104.3 -108.15 104.95 -102.55 109.6 -102.75 113.4 -105.9 115.4 -98.95 111.25 -91.4 117.65 -95.5 121.4 -91.05 116.7 -89.05 114.05 -84.95 115.55 -88.1 114.85 -89.25 114.15 -90.4 113.85 -90.35 113.45 -90.4 113.4 -90.6 L112.2 -89.5 Q111.3 -88.75 109.25 -88.15 L108.55 -88.0 107.75 -87.9 Q105.8 -87.6 104.9 -88.5 L104.9 -89.6 Q105.0 -91.9 106.35 -94.4 107.6 -96.85 109.95 -99.45 107.35 -99.15 105.5 -98.55 L105.5 -98.7 103.1 -98.0 Q99.2 -96.55 96.75 -92.9 L95.1 -94.3 Q93.85 -95.25 92.4 -101.9 L91.95 -104.15 Q90.5 -103.15 89.2 -101.65 86.35 -98.5 84.15 -93.2 L83.85 -93.65 Q82.35 -95.6 79.85 -96.9 L79.5 -97.05 76.2 -98.3 76.35 -98.0 73.4 -99.15 Q75.4 -95.6 75.25 -92.3 75.15 -89.35 73.2 -86.65 L72.2 -85.4 72.15 -85.45 71.55 -86.0 71.4 -86.6 71.35 -87.2 Q69.95 -97.35 63.35 -103.0 71.2 -103.1 75.05 -99.85 80.2 -105.75 76.6 -112.85 L78.4 -112.85 Q84.85 -110.2 85.8 -104.3 87.45 -109.85 90.1 -112.85" fill="#d09753" fill-rule="evenodd" stroke="none"/>
    <path d="M114.05 -84.95 Q112.55 -82.65 111.7 -79.7 L111.3 -78.45 111.3 -78.35 Q109.15 -69.1 104.55 -66.0 L105.35 -68.35 Q106.2 -71.8 105.2 -74.0 L104.75 -74.25 Q104.1 -75.0 102.95 -74.7 101.6 -74.6 100.2 -73.15 L100.1 -72.7 100.0 -72.35 99.6 -71.0 99.35 -69.95 98.65 -64.25 96.1 -74.55 94.8 -78.9 Q100.25 -88.1 78.8 -83.25 77.3 -85.05 76.1 -85.8 L73.1 -85.85 Q72.5 -85.45 72.0 -84.55 L71.65 -84.0 71.55 -86.0 72.15 -85.45 72.2 -85.4 73.2 -86.65 Q75.15 -89.35 75.25 -92.3 75.4 -95.6 73.4 -99.15 L76.35 -98.0 76.2 -98.3 79.5 -97.05 79.85 -96.9 Q82.35 -95.6 83.85 -93.65 L84.15 -93.2 Q86.35 -98.5 89.2 -101.65 90.5 -103.15 91.95 -104.15 L92.4 -101.9 Q93.85 -95.25 95.1 -94.3 L96.75 -92.9 Q99.2 -96.55 103.1 -98.0 L105.5 -98.7 105.5 -98.55 Q107.35 -99.15 109.95 -99.45 107.6 -96.85 106.35 -94.4 105.0 -91.9 104.9 -89.6 L104.9 -88.5 Q105.8 -87.6 107.75 -87.9 L108.55 -88.0 109.25 -88.15 Q111.3 -88.75 112.2 -89.5 L113.4 -90.6 Q113.45 -90.4 113.85 -90.35 114.15 -90.4 114.85 -89.25 115.55 -88.1 114.05 -84.95 M77.0 -77.45 Q74.8 -81.35 72.15 -81.8 76.3 -82.6 77.0 -77.45 M91.45 -76.55 Q87.5 -77.9 82.25 -75.5 86.25 -80.15 91.45 -76.55" fill="#c98636" fill-rule="evenodd" stroke="none"/>
    <path d="M102.0 -53.25 L102.35 -51.5 103.6 -50.8 105.1 -50.1 105.15 -50.1 Q102.5 -47.35 99.5 -45.05 L99.3 -44.95 Q92.9 -40.4 84.8 -39.2 L83.05 -33.65 79.95 -35.35 80.25 -41.45 Q77.8 -46.65 77.55 -51.6 L78.2 -51.35 77.55 -51.6 Q74.35 -52.9 74.8 -56.15 L75.0 -57.3 Q73.0 -62.1 73.2 -65.25 71.1 -68.95 70.85 -69.9 70.6 -70.85 71.25 -75.2 71.9 -79.65 71.75 -81.5 71.6 -82.95 72.0 -84.55 72.5 -85.45 73.1 -85.85 L76.1 -85.8 Q77.3 -85.05 78.8 -83.25 100.25 -88.1 94.8 -78.9 L96.1 -74.55 94.7 -74.05 94.25 -73.95 96.6 -65.4 94.65 -62.1 93.0 -59.4 Q89.85 -54.2 80.45 -51.9 L78.2 -51.35 80.75 -51.3 81.05 -50.8 96.4 -50.85 Q100.15 -53.0 102.0 -53.25 M136.0 -1.5 L137.1 2.7 137.0 2.8 137.55 3.3 138.15 5.4 138.9 10.9 137.5 14.4 124.25 36.75 124.4 39.75 118.2 51.6 116.4 52.25 116.35 52.3 115.75 53.4 115.65 53.35 113.05 44.6 111.8 42.15 111.75 41.9 110.3 39.4 104.05 36.9 105.45 35.55 107.35 33.6 112.15 28.85 113.0 28.9 Q115.2 29.05 117.2 29.95 L119.4 21.8 120.9 13.9 Q121.65 8.7 123.4 5.4 124.3 3.55 125.6 2.3 L126.0 3.35 Q126.45 1.75 127.55 0.7 129.75 -1.45 134.5 -1.5 L136.0 -1.5 M54.15 41.55 L54.0 41.55 53.85 40.25 52.45 38.9 51.75 25.5 Q52.4 23.85 53.2 22.7 L50.4 -3.05 50.55 -6.75 53.55 -11.5 53.7 -11.65 54.1 -12.2 54.75 -15.9 Q62.45 -16.8 64.5 -12.1 L64.7 -11.55 64.8 -11.75 64.85 -11.7 Q66.0 -10.2 66.6 -8.15 L66.4 -6.25 Q66.2 -3.25 66.7 -0.85 L65.7 3.4 Q64.6 7.05 63.8 11.2 L62.4 19.6 Q65.0 19.6 67.5 20.7 L67.7 21.3 67.35 25.0 66.9 31.2 64.7 31.1 62.4 32.7 62.2 32.95 60.1 34.7 54.15 41.55 M99.6 -71.0 L100.0 -72.35 100.25 -72.85 Q101.2 -74.4 102.95 -74.7 104.1 -75.0 104.75 -74.25 L105.3 -73.35 Q105.85 -71.65 105.55 -69.95 L105.4 -68.85 Q105.0 -70.8 102.95 -71.6 L102.05 -70.65 101.7 -70.0 Q99.8 -69.75 99.6 -70.9 L99.6 -71.0 M72.3 -74.85 L72.25 -74.45 72.3 -74.3 Q72.7 -73.25 73.35 -72.4 73.6 -71.75 74.05 -71.55 L75.7 -70.5 Q76.05 -72.3 76.05 -74.05 L75.85 -77.25 Q73.4 -80.15 72.3 -74.85 M75.4 -66.4 Q76.15 -67.45 76.35 -69.05 76.6 -71.05 76.05 -74.05 76.6 -71.05 76.35 -69.05 76.15 -67.45 75.4 -66.4 L75.45 -65.65 Q75.6 -64.25 77.45 -64.85 L76.1 -65.65 75.4 -66.4 M77.0 -77.45 Q76.3 -82.6 72.15 -81.8 74.8 -81.35 77.0 -77.45 M83.95 -58.45 L80.75 -59.25 Q78.2 -60.15 76.5 -61.45 78.2 -60.15 80.75 -59.25 L83.95 -58.45 M63.75 -7.7 L64.7 -11.55 63.75 -7.7 M91.45 -76.55 Q86.25 -80.15 82.25 -75.5 87.5 -77.9 91.45 -76.55 M84.65 -67.3 Q87.2 -66.8 89.15 -67.7 88.65 -74.3 83.7 -74.45 82.25 -72.0 82.0 -68.15 83.25 -67.6 84.45 -67.35 L84.65 -67.3 M127.2 7.0 L126.0 3.35 127.2 7.0 M114.65 37.4 L117.2 29.95 114.65 37.4 M121.15 42.0 L124.25 36.75 121.15 42.0 M53.85 28.85 L53.2 22.7 53.85 28.85 M61.65 27.3 Q61.95 23.3 62.4 19.6 61.95 23.3 61.65 27.3" fill="#ecce9d" fill-rule="evenodd" stroke="none"/>
    <path d="M72.3 -74.85 Q73.4 -80.15 75.85 -77.25 L76.05 -74.05 Q76.05 -72.3 75.7 -70.5 L74.05 -71.55 74.35 -71.5 Q74.95 -71.55 75.45 -72.4 75.9 -73.3 75.95 -74.5 76.0 -75.7 75.65 -76.55 75.25 -77.45 74.6 -77.45 73.95 -77.45 73.5 -76.55 73.0 -75.7 73.0 -74.5 72.9 -73.3 73.35 -72.4 72.7 -73.25 72.3 -74.3 L72.3 -74.85 M74.05 -76.0 L74.25 -76.35 74.8 -76.7 75.35 -76.35 75.5 -75.75 75.45 -75.3 75.35 -75.15 75.3 -75.0 Q75.05 -74.7 74.75 -74.7 74.35 -74.7 74.1 -75.0 73.9 -75.3 73.95 -75.75 L74.05 -76.0 M84.4 -72.35 L84.65 -72.65 Q84.95 -72.95 85.35 -72.9 L86.1 -72.65 86.45 -71.9 86.25 -71.4 86.05 -71.1 85.3 -70.85 84.6 -71.1 Q84.25 -71.45 84.25 -71.9 84.25 -72.2 84.4 -72.35 M84.65 -67.3 L84.85 -67.3 Q85.7 -67.25 86.3 -68.2 86.9 -69.2 86.95 -70.6 87.0 -72.0 86.55 -72.95 86.0 -73.95 85.15 -73.95 84.35 -73.95 83.75 -72.95 83.1 -72.0 83.05 -70.6 83.0 -69.2 83.5 -68.2 83.9 -67.5 84.45 -67.35 83.25 -67.6 82.0 -68.15 82.25 -72.0 83.7 -74.45 88.65 -74.3 89.15 -67.7 87.2 -66.8 84.65 -67.3 M92.95 -4.1 L93.05 -4.1 93.15 -4.05 92.95 -4.1" fill="#ffffff" fill-rule="evenodd" stroke="none"/>
    <path d="M73.35 -72.4 Q72.9 -73.3 73.0 -74.5 73.0 -75.7 73.5 -76.55 73.95 -77.45 74.6 -77.45 75.25 -77.45 75.65 -76.55 76.0 -75.7 75.95 -74.5 75.9 -73.3 75.45 -72.4 74.95 -71.55 74.35 -71.5 L74.05 -71.55 Q73.6 -71.75 73.35 -72.4 M75.45 -75.3 L75.5 -75.75 75.35 -76.35 74.8 -76.7 74.25 -76.35 74.05 -76.0 73.85 -75.8 Q73.5 -75.25 73.5 -74.55 73.45 -73.8 73.7 -73.25 74.0 -72.7 74.4 -72.7 74.8 -72.7 75.15 -73.25 L75.45 -74.5 75.45 -75.3 M84.4 -72.35 L84.15 -72.0 Q83.7 -71.45 83.7 -70.65 83.65 -69.8 84.0 -69.15 84.4 -68.55 84.9 -68.6 85.45 -68.55 85.85 -69.15 86.3 -69.75 86.3 -70.6 L86.25 -71.4 86.45 -71.9 86.1 -72.65 85.35 -72.9 Q84.95 -72.95 84.65 -72.65 L84.4 -72.35 M84.45 -67.35 Q83.9 -67.5 83.5 -68.2 83.0 -69.2 83.05 -70.6 83.1 -72.0 83.75 -72.95 84.35 -73.95 85.15 -73.95 86.0 -73.95 86.55 -72.95 87.0 -72.0 86.95 -70.6 86.9 -69.2 86.3 -68.2 85.7 -67.25 84.85 -67.3 L84.65 -67.3 84.45 -67.35" fill="#0099ff" fill-rule="evenodd" stroke="none"/>
    <path d="M75.45 -75.3 L75.45 -74.5 75.15 -73.25 Q74.8 -72.7 74.4 -72.7 74.0 -72.7 73.7 -73.25 73.45 -73.8 73.5 -74.55 73.5 -75.25 73.85 -75.8 L74.05 -76.0 73.95 -75.75 Q73.9 -75.3 74.1 -75.0 74.35 -74.7 74.75 -74.7 75.05 -74.7 75.3 -75.0 L75.35 -75.15 75.45 -75.3 M86.25 -71.4 L86.3 -70.6 Q86.3 -69.75 85.85 -69.15 85.45 -68.55 84.9 -68.6 84.4 -68.55 84.0 -69.15 83.65 -69.8 83.7 -70.65 83.7 -71.45 84.15 -72.0 L84.4 -72.35 Q84.25 -72.2 84.25 -71.9 84.25 -71.45 84.6 -71.1 L85.3 -70.85 86.05 -71.1 86.25 -71.4" fill="#000000" fill-rule="evenodd" stroke="none"/>
    <path d="M75.4 -66.4 L76.1 -65.65 77.45 -64.85 Q75.6 -64.25 75.45 -65.65 L75.4 -66.4" fill="#e7b18b" fill-rule="evenodd" stroke="none"/>
    <path d="M116.55 -43.95 Q118.85 -43.75 121.5 -42.05 126.45 -38.95 129.7 -32.65 131.5 -29.1 132.15 -25.7 L132.5 -23.6 Q133.45 -19.5 134.5 -16.3 136.0 -11.9 137.75 -9.15 136.25 -7.6 134.6 -6.55 L134.5 -6.5 Q129.55 -3.5 122.85 -4.8 L120.35 -5.4 118.05 -11.75 116.1 -17.05 117.45 -15.8 119.0 -14.55 119.05 -14.45 119.7 -14.1 120.05 -13.8 Q124.65 -11.05 128.25 -12.8 130.0 -13.65 131.0 -15.3 L131.2 -15.7 131.5 -16.2 131.7 -16.65 131.9 -17.0 131.95 -17.25 Q132.4 -18.65 132.5 -20.45 L132.55 -21.9 Q132.1 -20.35 131.05 -19.2 L129.85 -18.25 129.65 -18.15 128.75 -17.7 128.25 -17.4 Q126.45 -17.15 124.75 -17.45 122.8 -17.8 120.95 -18.8 L120.4 -19.15 Q118.0 -20.7 115.75 -23.55 L114.1 -25.8 Q111.35 -29.75 108.8 -35.6 L108.7 -36.0 108.65 -35.6 Q108.35 -29.9 111.6 -23.65 L111.75 -23.35 Q113.1 -20.7 114.8 -18.6 112.2 -8.35 106.3 -0.15 L106.25 0.0 107.55 9.05 Q106.15 12.15 104.3 13.45 L103.35 13.55 103.15 13.65 100.2 13.95 89.0 13.6 88.3 13.55 87.6 13.5 86.85 13.35 86.05 13.3 86.05 11.7 75.2 9.3 75.2 10.2 72.35 8.5 71.35 7.6 70.75 6.9 69.5 5.2 69.4 4.8 69.15 4.25 Q67.55 2.55 66.85 -0.05 L66.7 -0.85 Q66.2 -3.25 66.4 -6.25 L66.6 -8.15 Q67.1 -13.05 69.05 -19.5 L69.45 -20.7 69.6 -21.2 68.9 -22.2 Q67.4 -24.3 66.6 -25.7 L66.5 -25.8 66.6 -25.7 Q67.4 -24.3 68.9 -22.2 L69.6 -21.2 69.45 -20.7 69.05 -19.5 Q67.85 -19.05 66.75 -18.75 60.4 -17.2 55.55 -20.1 54.3 -20.8 53.2 -21.8 55.5 -26.25 56.6 -35.1 L56.7 -37.05 Q57.0 -40.1 58.3 -43.4 60.65 -49.25 64.9 -52.35 66.7 -53.7 68.45 -54.2 L68.65 -54.6 71.7 -55.65 74.8 -56.15 Q74.35 -52.9 77.55 -51.6 77.8 -46.65 80.25 -41.45 L79.95 -35.35 83.05 -33.65 84.8 -39.2 Q92.9 -40.4 99.3 -44.95 L99.45 -44.95 105.05 -44.0 109.5 -42.0 109.85 -41.75 110.45 -41.35 Q111.35 -42.55 112.7 -43.2 L114.1 -43.8 116.55 -43.95 M64.7 -46.6 Q63.5 -43.55 63.2 -40.5 62.6 -35.3 64.5 -30.1 62.6 -35.3 63.2 -40.5 63.5 -43.55 64.7 -46.6 M64.5 -30.1 L64.2 -30.05 61.05 -29.85 60.55 -30.05 59.7 -30.4 59.5 -30.5 Q58.4 -31.1 57.7 -31.85 57.05 -32.6 56.7 -33.55 L56.6 -35.1 56.7 -33.55 56.9 -32.25 57.4 -30.2 57.75 -29.45 57.8 -29.25 58.2 -28.55 58.55 -28.1 58.75 -27.8 Q59.8 -26.35 61.45 -25.65 L66.5 -25.8 65.95 -26.8 Q65.05 -28.45 64.5 -30.1 M132.5 -23.6 L132.55 -21.9 132.5 -23.6 M92.95 -4.1 L93.15 -4.05 93.05 -4.1 92.95 -4.1" fill="#deddb1" fill-rule="evenodd" stroke="none"/>
    <path d="M105.35 -68.35 L105.3 -68.3 105.0 -67.45 104.65 -66.55 104.6 -66.3 104.5 -66.1 104.1 -65.25 102.25 -64.05 101.95 -62.0 101.85 -61.4 Q101.4 -57.2 102.0 -53.25 100.15 -53.0 96.4 -50.85 L81.05 -50.8 80.75 -51.3 78.2 -51.35 80.45 -51.9 Q89.85 -54.2 93.0 -59.4 L94.65 -62.1 96.6 -65.4 94.25 -73.95 94.7 -74.05 96.1 -74.55 98.65 -64.25 99.35 -69.95 99.6 -71.0 99.6 -70.9 Q99.8 -69.75 101.7 -70.0 101.4 -69.4 101.25 -68.65 L101.1 -68.15 Q102.05 -67.8 102.7 -66.8 102.05 -67.8 101.1 -68.15 L101.25 -68.65 Q101.4 -69.4 101.7 -70.0 L102.05 -70.65 102.95 -71.6 Q105.0 -70.8 105.4 -68.85 L105.55 -69.95 Q105.85 -71.65 105.3 -73.35 L104.75 -74.25 105.2 -74.0 Q106.2 -71.8 105.35 -68.35 M134.6 -6.55 L136.0 -1.5 134.5 -1.5 Q129.75 -1.45 127.55 0.7 126.45 1.75 126.0 3.35 L125.6 2.3 122.85 -4.8 Q129.55 -3.5 134.5 -6.5 L134.6 -6.55 M66.0 39.65 L54.15 41.55 60.1 34.7 62.2 32.95 62.4 32.7 64.7 31.1 66.9 31.2 66.4 36.5 62.4 32.7 66.4 36.5 66.0 39.65 M54.75 -15.9 L55.55 -20.1 Q60.4 -17.2 66.75 -18.75 L64.8 -11.75 64.7 -11.55 64.5 -12.1 Q62.45 -16.8 54.75 -15.9 M100.0 -72.35 L100.1 -72.7 100.2 -73.15 Q101.6 -74.6 102.95 -74.7 101.2 -74.4 100.25 -72.85 L100.0 -72.35 M102.25 -64.05 L101.55 -63.5 Q99.4 -61.4 98.8 -60.1 98.2 -58.85 94.65 -56.15 86.35 -51.65 80.75 -51.3 86.35 -51.65 94.65 -56.15 98.2 -58.85 98.8 -60.1 99.4 -61.4 101.55 -63.5 L102.25 -64.05 M101.05 -66.0 L101.05 -66.6 Q101.0 -67.45 101.1 -68.15 101.0 -67.45 101.05 -66.6 L101.05 -66.0 M105.3 -68.3 L105.4 -68.85 105.3 -68.3 M110.05 49.65 L105.2 46.4 106.05 43.8 111.75 41.9 106.05 43.8 104.05 36.9 110.3 39.4 111.75 41.9 111.8 42.15 113.05 44.6 115.65 53.35 110.05 49.65" fill="#e3b175" fill-rule="evenodd" stroke="none"/>
    <path d="M105.15 -50.1 Q110.95 -48.9 116.55 -43.95 L114.1 -43.8 112.7 -43.2 Q111.35 -42.55 110.45 -41.35 L109.85 -41.75 109.5 -42.0 105.05 -44.0 99.45 -44.95 99.5 -45.05 Q102.5 -47.35 105.15 -50.1 M56.7 -33.55 Q57.05 -32.6 57.7 -31.85 58.4 -31.1 59.5 -30.5 L59.7 -30.4 60.55 -30.05 61.05 -29.85 64.2 -30.05 64.5 -30.1 Q65.05 -28.45 65.95 -26.8 L66.5 -25.8 61.45 -25.65 Q59.8 -26.35 58.75 -27.8 L58.55 -28.1 58.2 -28.55 57.8 -29.25 57.75 -29.45 57.4 -30.2 56.9 -32.25 56.7 -33.55 M104.3 13.45 Q106.15 12.15 107.55 9.05 L106.25 0.0 106.3 -0.15 Q112.2 -8.35 114.8 -18.6 113.1 -20.7 111.75 -23.35 L111.6 -23.65 Q108.35 -29.9 108.65 -35.6 L108.8 -35.6 Q111.35 -29.75 114.1 -25.8 L115.75 -23.55 Q118.0 -20.7 120.4 -19.15 L120.95 -18.8 Q122.8 -17.8 124.75 -17.45 126.45 -17.15 128.25 -17.4 L128.75 -17.7 129.65 -18.15 129.85 -18.25 131.05 -19.2 Q132.1 -20.35 132.55 -21.9 L132.5 -20.45 Q132.4 -18.65 131.95 -17.25 L131.9 -17.0 131.7 -16.65 131.5 -16.2 131.2 -15.7 131.0 -15.3 Q130.0 -13.65 128.25 -12.8 124.65 -11.05 120.05 -13.8 L119.7 -14.1 119.05 -14.45 119.0 -14.55 117.45 -15.8 116.1 -17.05 114.8 -18.6 116.1 -17.05 118.05 -11.75 Q116.2 -7.0 114.05 -3.15 L113.5 8.6 Q112.2 10.1 110.35 11.25 108.15 12.75 104.3 13.45" fill="#c9c97e" fill-rule="evenodd" stroke="none"/>
    <path d="M108.65 -35.6 L108.7 -36.0 108.8 -35.6 108.65 -35.6" fill="#f2f2f2" fill-rule="evenodd" stroke="none"/>
    <path d="M99.3 -44.95 L99.5 -45.05 99.45 -44.95 99.3 -44.95" fill="#b48f87" fill-rule="evenodd" stroke="none"/>
    <path d="M86.05 13.3 L86.85 13.35 87.6 13.5 88.3 13.55 89.0 13.6 100.2 13.95 103.15 13.65 103.35 13.55 104.3 13.45 Q108.15 12.75 110.35 11.25 113.05 14.35 111.65 18.3 L110.7 18.75 110.3 18.95 105.2 20.75 99.5 21.75 96.3 22.0 95.0 22.05 88.8 21.8 86.0 21.6 86.05 13.3" fill="#684942" fill-rule="evenodd" stroke="none"/>
    <path d="M93.05 37.45 L93.0 34.9 90.9 35.15 88.9 35.15 88.5 35.15 87.65 35.1 87.1 35.05 85.5 34.8 83.15 34.35 82.65 34.2 82.4 34.15 Q77.25 32.6 73.95 28.9 L73.85 28.75 Q72.25 26.9 71.15 24.6 L70.55 23.4 70.4 24.6 70.4 24.7 69.0 24.8 67.35 25.0 67.7 21.3 Q68.0 18.55 68.55 16.3 L68.2 13.7 70.85 16.05 Q72.65 17.4 75.15 18.5 L75.15 20.45 86.0 22.75 86.0 21.6 88.8 21.8 95.0 22.05 96.3 22.0 96.05 36.4 96.05 36.45 93.05 37.45 M105.2 20.75 L107.35 33.6 105.45 35.55 Q102.9 35.1 99.9 35.6 L99.8 35.6 99.5 21.75 105.2 20.75 M110.5 19.6 L110.3 18.95 110.7 18.75 110.5 19.6 M69.0 18.5 L68.55 16.3 69.0 18.5 M93.0 34.9 Q92.9 26.75 95.0 22.05 92.9 26.75 93.0 34.9" fill="#acb4cc" fill-rule="evenodd" stroke="none"/>
    <path d="M88.5 35.15 L88.7 41.4 Q88.45 37.85 87.65 35.1 L88.5 35.15 M105.2 20.75 L110.3 18.95 110.5 19.6 111.9 24.15 113.0 28.9 112.15 28.85 107.35 33.6 105.2 20.75 M96.3 22.0 L99.5 21.75 99.8 35.6 96.35 36.3 96.05 36.4 96.3 22.0 M70.7 24.6 L70.4 24.6 70.55 23.4 71.15 24.6 70.7 24.6" fill="#d9dde8" fill-rule="evenodd" stroke="none"/>
    <path d="M75.2 10.2 L75.2 9.3 86.05 11.7 86.05 13.3 86.0 21.6 86.0 22.75 75.15 20.45 75.15 18.5 75.2 10.2" fill="#cccccc" fill-rule="evenodd" stroke="none"/>
    <path d="M116.35 52.3 L116.95 57.4 111.4 57.4 110.05 49.65 115.65 53.35 115.75 53.4 116.35 52.3 M100.3 57.4 L95.7 57.4 96.05 36.45 96.35 36.3 99.8 35.6 100.3 57.4 M88.7 41.4 Q88.6 50.15 88.8 57.4 L83.7 57.4 82.4 34.15 82.65 34.2 83.15 34.35 85.5 34.8 87.1 35.05 87.65 35.1 Q88.45 37.85 88.7 41.4 M71.3 57.4 L66.2 57.4 70.4 24.7 70.7 24.6 71.15 24.6 Q72.25 26.9 73.85 28.75 L71.3 57.4" fill="#e8ebf0" fill-rule="evenodd" stroke="none"/>
    <path d="M96.05 36.4 L96.35 36.3 96.05 36.45 96.05 36.4 M70.4 24.7 L70.4 24.6 70.7 24.6 70.4 24.7" fill="#89a58a" fill-rule="evenodd" stroke="none"/>
    <path d="M111.4 57.4 L100.3 57.4 99.8 35.6 99.9 35.6 Q102.9 35.1 105.45 35.55 L104.05 36.9 106.05 43.8 105.2 46.4 110.05 49.65 111.4 57.4 M95.7 57.4 L93.1 57.4 93.2 56.35 Q93.55 50.8 93.05 37.45 L96.05 36.45 95.7 57.4 M83.7 57.4 L71.3 57.4 73.85 28.75 73.95 28.9 Q77.25 32.6 82.4 34.15 L83.7 57.4 M66.2 57.4 L63.0 57.4 65.4 43.85 66.0 39.65 66.4 36.5 66.9 31.2 67.35 25.0 69.0 24.8 70.4 24.7 66.2 57.4" fill="#bec5d8" fill-rule="evenodd" stroke="none"/>
    <path d="M69.15 4.25 L69.4 4.8 69.5 5.2 70.75 6.9 71.35 7.6 72.35 8.5 75.2 10.2 75.15 18.5 Q72.65 17.4 70.85 16.05 L68.2 13.7 67.75 13.15 Q66.6 8.25 68.5 5.25 L68.7 4.8 69.15 4.25" fill="#956c5e" fill-rule="evenodd" stroke="none"/>
    <path d="M95.4 -112.85 Q95.45 -109.1 98.6 -105.65 101.55 -111.3 107.3 -112.85 M108.15 -112.85 Q104.3 -108.15 104.95 -102.55 109.6 -102.75 113.4 -105.9 115.4 -98.95 111.25 -91.4 117.65 -95.5 121.4 -91.05 116.7 -89.05 114.05 -84.95 112.55 -82.65 111.7 -79.7 L111.3 -78.45 111.3 -78.35 Q109.15 -69.1 104.55 -66.0 L105.35 -68.35 M72.0 -84.55 L71.65 -84.0 71.55 -86.0 71.4 -86.6 71.35 -87.2 Q69.95 -97.35 63.35 -103.0 71.2 -103.1 75.05 -99.85 80.2 -105.75 76.6 -112.85 M78.4 -112.85 Q84.85 -110.2 85.8 -104.3 87.45 -109.85 90.1 -112.85 M72.0 -84.55 Q72.5 -85.45 73.1 -85.85 L76.1 -85.8 Q77.3 -85.05 78.8 -83.25 100.25 -88.1 94.8 -78.9 L96.1 -74.55 98.65 -64.25 99.35 -69.95 99.6 -71.0 100.0 -72.35 100.1 -72.7 100.2 -73.15 Q101.6 -74.6 102.95 -74.7 104.1 -75.0 104.75 -74.25 L105.2 -74.0 Q106.2 -71.8 105.35 -68.35 M77.0 -77.45 Q74.8 -81.35 72.15 -81.8 76.3 -82.6 77.0 -77.45 M91.45 -76.55 Q86.25 -80.15 82.25 -75.5 87.5 -77.9 91.45 -76.55" fill="none" stroke="#aa6c2f" stroke-linecap="round" stroke-linejoin="round" stroke-width="0.05"/>
    <path d="M105.35 -68.35 L105.3 -68.3 105.0 -67.45 104.65 -66.55 104.6 -66.3 104.5 -66.1 104.1 -65.25 102.25 -64.05 101.95 -62.0 101.85 -61.4 Q101.4 -57.2 102.0 -53.25 L102.35 -51.5 103.6 -50.8 105.1 -50.1 105.15 -50.1 M134.6 -6.55 L136.0 -1.5 137.1 2.7 M137.0 2.8 L137.55 3.3 138.15 5.4 138.9 10.9 137.5 14.4 124.25 36.75 124.4 39.75 118.2 51.6 116.4 52.25 116.35 52.3 115.75 53.4 115.65 53.35 M66.0 39.65 L54.15 41.55 54.0 41.55 53.85 40.25 52.45 38.9 51.75 25.5 Q52.4 23.85 53.2 22.7 L50.4 -3.05 50.55 -6.75 53.55 -11.5 53.7 -11.65 54.1 -12.2 54.75 -15.9 55.55 -20.1 M74.8 -56.15 L75.0 -57.3 Q73.0 -62.1 73.2 -65.25 71.1 -68.95 70.85 -69.9 70.6 -70.85 71.25 -75.2 71.9 -79.65 71.75 -81.5 71.6 -82.95 72.0 -84.55 M72.3 -74.3 L72.25 -74.45 72.3 -74.85 Q73.4 -80.15 75.85 -77.25 L76.05 -74.05 Q76.6 -71.05 76.35 -69.05 76.15 -67.45 75.4 -66.4 M77.45 -64.85 Q75.6 -64.25 75.45 -65.65 L75.4 -66.4 M72.3 -74.3 Q72.7 -73.25 73.35 -72.4 73.6 -71.75 74.05 -71.55 L75.7 -70.5 Q76.05 -72.3 76.05 -74.05 M78.2 -51.35 L77.55 -51.6 Q74.35 -52.9 74.8 -56.15 M78.2 -51.35 L80.75 -51.3 Q86.35 -51.65 94.65 -56.15 98.2 -58.85 98.8 -60.1 99.4 -61.4 101.55 -63.5 L102.25 -64.05 M76.5 -61.45 Q78.2 -60.15 80.75 -59.25 L83.95 -58.45 M66.75 -18.75 L64.8 -11.75 64.85 -11.7 Q66.0 -10.2 66.6 -8.15 M64.7 -11.55 L64.8 -11.75 M64.7 -11.55 L63.75 -7.7 M101.7 -70.0 Q101.4 -69.4 101.25 -68.65 L101.1 -68.15 Q102.05 -67.8 102.7 -66.8 M102.95 -74.7 Q101.2 -74.4 100.25 -72.85 L100.0 -72.35 M101.1 -68.15 Q101.0 -67.45 101.05 -66.6 L101.05 -66.0 M84.65 -67.3 Q87.2 -66.8 89.15 -67.7 88.65 -74.3 83.7 -74.45 82.25 -72.0 82.0 -68.15 83.25 -67.6 84.45 -67.35 L84.65 -67.3 M104.75 -74.25 L105.3 -73.35 Q105.85 -71.65 105.55 -69.95 L105.4 -68.85 105.3 -68.3 M102.95 -71.6 L102.05 -70.65 101.7 -70.0 M126.0 3.35 L127.2 7.0 M125.6 2.3 Q124.3 3.55 123.4 5.4 121.65 8.7 120.9 13.9 L119.4 21.8 117.2 29.95 114.65 37.4 M125.6 2.3 L126.0 3.35 M107.35 33.6 L112.15 28.85 113.0 28.9 M105.45 35.55 L107.35 33.6 M117.2 29.95 Q115.2 29.05 113.0 28.9 M104.05 36.9 L105.45 35.55 M106.05 43.8 L105.2 46.4 110.05 49.65 115.65 53.35 M111.8 42.15 L111.75 41.9 106.05 43.8 104.05 36.9 M124.25 36.75 L121.15 42.0 M66.7 -0.85 L65.7 3.4 Q64.6 7.05 63.8 11.2 L62.4 19.6 Q65.0 19.6 67.5 20.7 L67.7 21.3 M62.4 32.7 L66.4 36.5 M62.4 32.7 L62.2 32.95 M62.4 19.6 Q61.95 23.3 61.65 27.3 M53.2 22.7 L53.85 28.85 M122.85 -4.8 L125.6 2.3" fill="none" stroke="#d87c4b" stroke-linecap="round" stroke-linejoin="round" stroke-width="0.05"/>
    <path d="M105.15 -50.1 Q110.95 -48.9 116.55 -43.95 118.85 -43.75 121.5 -42.05 126.45 -38.95 129.7 -32.65 131.5 -29.1 132.15 -25.7 L132.5 -23.6 Q133.45 -19.5 134.5 -16.3 136.0 -11.9 137.75 -9.15 136.25 -7.6 134.6 -6.55 M55.55 -20.1 Q54.3 -20.8 53.2 -21.8 55.5 -26.25 56.6 -35.1 L56.7 -37.05 Q57.0 -40.1 58.3 -43.4 60.65 -49.25 64.9 -52.35 66.7 -53.7 68.45 -54.2 M68.65 -54.6 L71.7 -55.65 74.8 -56.15 M77.55 -51.6 Q77.8 -46.65 80.25 -41.45 L79.95 -35.35 83.05 -33.65 84.8 -39.2 Q92.9 -40.4 99.3 -44.95 L99.5 -45.05 Q102.5 -47.35 105.15 -50.1 M64.5 -30.1 Q62.6 -35.3 63.2 -40.5 63.5 -43.55 64.7 -46.6 M64.5 -30.1 Q65.05 -28.45 65.95 -26.8 L66.5 -25.8 66.6 -25.7 Q67.4 -24.3 68.9 -22.2 L69.6 -21.2 69.45 -20.7 69.05 -19.5 Q67.1 -13.05 66.6 -8.15 L66.4 -6.25 Q66.2 -3.25 66.7 -0.85 L66.85 -0.05 Q67.55 2.55 69.15 4.25 M114.8 -18.6 Q113.1 -20.7 111.75 -23.35 M132.55 -21.9 L132.5 -23.6 M56.6 -35.1 L56.7 -33.55 56.9 -32.25 57.4 -30.2 57.75 -29.45 57.8 -29.25 58.2 -28.55 M69.05 -19.5 Q67.85 -19.05 66.75 -18.75 60.4 -17.2 55.55 -20.1 M116.55 -43.95 L114.1 -43.8 M116.1 -17.05 L117.45 -15.8 119.0 -14.55 119.05 -14.45 119.7 -14.1 120.05 -13.8 M131.5 -16.2 L131.7 -16.65 131.9 -17.0 131.95 -17.25 Q132.4 -18.65 132.5 -20.45 L132.55 -21.9 M114.8 -18.6 L116.1 -17.05 118.05 -11.75 120.35 -5.4 122.85 -4.8 Q129.55 -3.5 134.5 -6.5 L134.6 -6.55 M110.35 11.25 Q112.2 10.1 113.5 8.6 L114.05 -3.15 Q116.2 -7.0 118.05 -11.75" fill="none" stroke="#786d36" stroke-linecap="round" stroke-linejoin="round" stroke-width="0.05"/>
    <path d="M69.15 4.25 L69.4 4.8 69.5 5.2 70.75 6.9 71.35 7.6 72.35 8.5 75.2 10.2 M86.05 13.3 L86.85 13.35 87.6 13.5 88.3 13.55 89.0 13.6 100.2 13.95 103.15 13.65 103.35 13.55 104.3 13.45 M110.3 18.95 L105.2 20.75 M110.3 18.95 L110.7 18.75 111.65 18.3 Q113.05 14.35 110.35 11.25 108.15 12.75 104.3 13.45 M95.0 22.05 L88.8 21.8 86.0 21.6 M75.15 18.5 Q72.65 17.4 70.85 16.05 L68.2 13.7 M96.3 22.0 L95.0 22.05 M99.5 21.75 L96.3 22.0 M99.5 21.75 L105.2 20.75 M69.15 4.25 L68.7 4.8 68.5 5.25 Q66.6 8.25 67.75 13.15 L68.2 13.7" fill="none" stroke="#674743" stroke-linecap="round" stroke-linejoin="round" stroke-width="0.05"/>
    <path d="M116.35 52.3 L116.95 57.4 M93.1 57.4 L93.2 56.35 Q93.55 50.8 93.05 37.45 L93.0 34.9 90.9 35.15 88.9 35.15 88.5 35.15 88.7 41.4 Q88.6 50.15 88.8 57.4 M63.0 57.4 L65.4 43.85 66.0 39.65 M113.0 28.9 L111.9 24.15 110.5 19.6 110.3 18.95 M110.5 19.6 L110.7 18.75 M68.2 13.7 L68.55 16.3 69.0 18.5 M95.0 22.05 Q92.9 26.75 93.0 34.9 M96.05 36.45 L96.05 36.4 M87.65 35.1 L87.1 35.05 85.5 34.8 83.15 34.35 82.65 34.2 M87.65 35.1 L88.5 35.15 M67.7 21.3 Q68.0 18.55 68.55 16.3 M70.4 24.6 L70.4 24.7 M66.4 36.5 L66.9 31.2 67.35 25.0 67.7 21.3 M66.4 36.5 L66.0 39.65" fill="none" stroke="#61749e" stroke-linecap="round" stroke-linejoin="round" stroke-width="0.05"/>
    <path d="M75.2 10.2 L75.2 9.3 86.05 11.7 86.05 13.3 M86.0 21.6 L86.0 22.75 75.15 20.45 75.15 18.5 75.2 10.2 M86.0 21.6 L86.05 13.3" fill="none" stroke="#999999" stroke-linecap="round" stroke-linejoin="round" stroke-width="0.05"/>
  </g>
</svg>
