<?xml version="1.0" encoding="UTF-8" standalone="no"?>
<svg xmlns:xlink="http://www.w3.org/1999/xlink" height="175.65px" width="89.35px" xmlns="http://www.w3.org/2000/svg">
  <g transform="matrix(1, 0, 0, 1, -49.95, 107.9)">
    <path d="M73.0 -90.55 L72.5 -91.65 Q70.45 -105.7 86.5 -107.55 102.5 -109.4 109.2 -101.75 109.5 -98.85 106.95 -97.35 103.5 -95.4 94.75 -95.95 79.5 -96.95 77.0 -94.1 74.5 -91.25 74.65 -89.5 L74.95 -88.8 Q73.65 -89.55 73.0 -90.55 M93.85 -64.2 Q92.15 -72.1 92.8 -75.6 93.5 -79.35 96.55 -81.55 99.6 -83.8 96.3 -89.65 94.3 -92.75 85.9 -90.55 89.35 -92.25 92.35 -92.5 95.4 -92.8 98.65 -90.9 101.9 -89.0 101.1 -83.8 101.15 -82.0 100.6 -79.7 L100.5 -79.65 98.9 -77.45 Q96.4 -76.3 96.0 -72.1 95.8 -70.0 96.15 -67.05 L96.75 -63.15 94.15 -62.8 93.85 -64.2" fill="#309bb6" fill-rule="evenodd" stroke="none"/>
    <path d="M73.0 -90.55 Q73.65 -89.55 74.95 -88.8 80.4 -87.7 85.9 -90.55 94.3 -92.75 96.3 -89.65 99.6 -83.8 96.55 -81.55 93.5 -79.35 92.8 -75.6 92.15 -72.1 93.85 -64.2 89.65 -60.2 80.4 -56.05 L79.5 -55.65 Q78.6 -56.5 77.8 -57.75 78.6 -56.5 79.5 -55.65 L80.7 -55.4 81.4 -54.1 96.75 -54.15 Q100.3 -56.15 102.15 -56.45 L102.4 -55.95 102.5 -55.9 98.5 -52.8 96.15 -51.05 Q87.8 -45.3 81.15 -42.15 77.5 -47.15 75.85 -52.8 75.05 -55.45 74.7 -58.25 L75.15 -58.3 77.45 -57.4 77.8 -57.75 77.35 -58.55 Q76.45 -60.15 75.65 -62.25 L75.0 -64.15 Q73.8 -67.55 73.2 -70.15 72.45 -73.4 72.05 -78.35 71.6 -83.3 71.7 -84.2 71.9 -86.65 72.5 -88.9 L73.0 -90.55 M116.0 -47.3 Q118.7 -47.35 121.85 -45.3 126.85 -42.25 130.05 -35.95 131.85 -32.4 132.55 -29.0 L132.85 -26.85 132.9 -25.2 Q132.5 -23.65 131.4 -22.5 L130.2 -21.55 130.0 -21.4 129.1 -20.95 128.6 -20.7 Q126.8 -20.45 125.1 -20.75 123.2 -21.05 121.35 -22.1 L120.75 -22.45 Q117.45 -24.6 114.45 -29.05 111.7 -33.05 109.2 -38.9 L109.05 -39.3 Q109.45 -44.75 113.05 -46.5 L114.45 -47.05 116.0 -47.3 M136.35 -4.75 L137.5 -0.6 137.35 -0.5 137.95 0.0 138.3 1.5 138.5 2.1 139.3 7.6 138.25 10.2 Q132.0 9.55 127.85 7.95 L125.65 7.05 125.6 6.95 123.6 5.65 122.7 4.65 Q123.15 3.25 123.75 2.1 124.7 0.25 125.95 -1.0 L126.35 0.05 Q126.7 -1.35 127.65 -2.35 L127.8 -2.5 Q130.3 -5.05 136.35 -4.75 M124.45 37.1 L118.6 48.35 116.8 48.95 116.7 49.0 116.1 50.15 116.0 50.1 113.4 41.3 112.15 38.9 112.1 38.6 110.65 36.15 104.4 33.6 105.8 32.25 112.5 25.55 113.35 25.6 Q115.3 25.75 117.1 26.5 L116.7 27.9 116.45 29.65 115.5 31.0 Q114.7 31.9 115.05 33.6 L115.1 33.95 115.8 35.8 Q117.45 38.7 121.75 38.3 123.25 38.35 124.45 37.1 M54.5 38.25 L54.35 38.25 54.25 36.95 52.8 35.6 52.1 22.45 Q52.55 24.5 54.15 25.15 57.9 27.25 60.6 25.25 L62.0 23.9 62.2 23.65 Q63.25 22.2 62.9 21.05 L62.55 19.5 63.0 17.75 63.25 16.35 Q65.6 16.45 67.85 17.4 L68.05 17.95 67.75 21.75 67.2 27.9 65.1 27.8 62.8 29.45 62.55 29.65 60.45 31.4 54.5 38.25 M50.8 -7.3 L50.9 -10.05 Q52.5 -12.9 53.9 -14.8 L54.05 -14.95 54.15 -15.05 54.3 -15.25 54.35 -15.3 54.45 -15.45 55.15 -19.15 Q61.05 -19.9 63.6 -17.25 L64.85 -15.4 65.1 -14.85 65.15 -15.05 65.2 -15.0 Q67.15 -12.5 67.35 -8.65 L67.3 -5.9 Q66.55 -5.5 66.0 -5.35 L63.6 -5.0 63.55 -4.95 61.15 -5.05 Q56.7 -5.3 50.8 -7.3 M57.05 -36.85 Q56.95 -37.65 57.0 -38.4 L57.05 -40.3 Q57.35 -43.4 58.65 -46.65 61.0 -52.55 65.25 -55.6 67.35 -57.2 69.35 -57.6 L69.55 -57.85 69.75 -58.2 70.8 -58.45 71.65 -58.6 71.15 -57.7 Q69.9 -55.5 69.0 -53.1 L68.85 -52.75 Q65.6 -44.35 65.95 -33.75 65.95 -32.2 66.1 -30.6 L64.85 -33.4 64.6 -33.35 61.45 -33.1 Q61.15 -33.2 60.9 -33.35 L60.1 -33.7 59.85 -33.8 Q58.8 -34.35 58.05 -35.15 57.4 -35.9 57.05 -36.85 M72.5 -85.1 Q73.35 -84.95 74.2 -84.4 75.85 -83.4 77.35 -80.75 77.0 -83.35 75.75 -84.4 74.55 -85.45 72.5 -85.1 M72.7 -78.1 L72.6 -77.7 72.7 -77.6 Q73.05 -76.5 73.7 -75.65 74.0 -75.05 74.4 -74.85 L76.05 -73.8 Q76.4 -75.6 76.4 -77.35 L76.2 -80.55 Q73.75 -83.45 72.7 -78.1 M77.8 -68.15 Q77.05 -68.5 76.45 -68.95 L75.75 -69.7 75.85 -68.95 Q75.95 -67.55 77.8 -68.15 M75.75 -69.7 Q76.5 -70.7 76.75 -72.3 76.95 -74.35 76.4 -77.35 76.95 -74.35 76.75 -72.3 76.5 -70.7 75.75 -69.7 M63.55 -43.8 Q62.95 -38.55 64.85 -33.4 62.95 -38.55 63.55 -43.8 M64.15 -11.0 L65.1 -14.85 64.15 -11.0 M100.25 -73.6 L100.5 -75.4 100.65 -76.15 101.05 -76.7 101.85 -77.25 Q103.1 -77.9 104.0 -77.85 L104.7 -77.8 105.25 -77.45 105.65 -76.65 106.05 -74.35 105.9 -73.2 105.8 -72.3 105.75 -72.15 Q105.4 -74.1 103.35 -74.9 L102.45 -73.95 102.05 -73.3 Q100.7 -73.1 100.25 -73.6 M91.8 -79.85 Q86.65 -83.45 82.65 -78.8 87.85 -81.2 91.8 -79.85 M84.3 -61.75 L81.15 -62.55 81.0 -62.6 Q78.5 -63.45 76.85 -64.75 78.5 -63.45 81.0 -62.6 L81.15 -62.55 84.3 -61.75 M89.5 -70.95 Q89.0 -77.55 84.05 -77.7 82.65 -75.3 82.35 -71.4 86.65 -69.6 89.5 -70.95 M127.6 3.75 L126.35 0.05 127.6 3.75" fill="#fbdab3" fill-rule="evenodd" stroke="none"/>
    <path d="M74.95 -88.8 L74.65 -89.5 Q74.5 -91.25 77.0 -94.1 79.5 -96.95 94.75 -95.95 103.5 -95.4 106.95 -97.35 109.5 -98.85 109.2 -101.75 111.45 -98.8 112.1 -94.2 111.45 -80.55 108.35 -74.55 L108.05 -74.05 Q106.95 -72.2 105.6 -71.15 L105.7 -71.65 105.75 -72.15 105.8 -72.3 105.9 -73.2 106.05 -74.35 106.0 -75.7 Q105.8 -76.9 105.25 -77.45 L104.7 -77.8 104.0 -77.85 Q103.1 -77.9 101.85 -77.25 L101.05 -76.7 100.65 -76.15 100.5 -75.4 100.25 -73.6 98.55 -63.15 Q95.5 -60.45 94.15 -62.8 L96.75 -63.15 96.15 -67.05 Q95.8 -70.0 96.0 -72.1 96.4 -76.3 98.9 -77.45 L100.5 -79.65 100.6 -79.7 Q101.15 -82.0 101.1 -83.8 101.9 -89.0 98.65 -90.9 95.4 -92.8 92.35 -92.5 89.35 -92.25 85.9 -90.55 80.4 -87.7 74.95 -88.8" fill="#246f8a" fill-rule="evenodd" stroke="none"/>
    <path d="M72.5 -85.1 Q74.55 -85.45 75.75 -84.4 77.0 -83.35 77.35 -80.75 75.85 -83.4 74.2 -84.4 73.35 -84.95 72.5 -85.1 M91.8 -79.85 Q87.85 -81.2 82.65 -78.8 86.65 -83.45 91.8 -79.85" fill="#503e53" fill-rule="evenodd" stroke="none"/>
    <path d="M75.85 -78.55 L75.9 -79.0 75.7 -79.65 75.15 -79.95 74.6 -79.65 74.4 -79.3 74.2 -79.05 Q73.85 -78.55 73.85 -77.85 73.8 -77.1 74.1 -76.55 74.35 -76.0 74.75 -76.0 75.15 -76.0 75.5 -76.55 L75.85 -77.8 75.85 -78.55 M73.7 -75.65 L73.7 -75.7 Q73.3 -76.55 73.35 -77.8 73.4 -79.0 73.85 -79.85 74.35 -80.75 75.0 -80.75 75.6 -80.75 76.0 -79.85 76.4 -79.0 76.35 -77.8 76.3 -76.55 75.85 -75.7 75.35 -74.8 74.7 -74.8 L74.4 -74.85 Q74.0 -75.05 73.7 -75.65 M85.5 -77.2 Q86.35 -77.25 86.9 -76.25 87.4 -75.3 87.3 -73.9 87.25 -72.5 86.7 -71.5 86.05 -70.55 85.2 -70.6 84.4 -70.55 83.85 -71.5 83.35 -72.5 83.4 -73.9 83.45 -75.3 84.1 -76.25 84.7 -77.25 85.5 -77.2 M86.65 -74.7 L86.8 -75.2 86.45 -75.9 85.75 -76.2 Q85.3 -76.2 85.0 -75.9 L84.75 -75.65 84.5 -75.3 Q84.05 -74.75 84.05 -73.95 84.0 -73.1 84.4 -72.45 84.75 -71.85 85.3 -71.85 85.8 -71.85 86.25 -72.45 86.65 -73.05 86.7 -73.9 L86.65 -74.7" fill="#0099ff" fill-rule="evenodd" stroke="none"/>
    <path d="M74.4 -79.3 L74.6 -79.65 75.15 -79.95 75.7 -79.65 75.9 -79.0 75.85 -78.55 75.7 -78.45 75.65 -78.3 Q75.4 -78.0 75.1 -78.0 74.7 -78.0 74.5 -78.3 74.25 -78.6 74.3 -79.0 L74.4 -79.3 M72.7 -77.6 L72.7 -78.1 Q73.75 -83.45 76.2 -80.55 L76.4 -77.35 Q76.4 -75.6 76.05 -73.8 L74.4 -74.85 74.7 -74.8 Q75.35 -74.8 75.85 -75.7 76.3 -76.55 76.35 -77.8 76.4 -79.0 76.0 -79.85 75.6 -80.75 75.0 -80.75 74.35 -80.75 73.85 -79.85 73.4 -79.0 73.35 -77.8 73.3 -76.55 73.7 -75.7 L73.7 -75.65 Q73.05 -76.5 72.7 -77.6 M85.5 -77.2 Q84.7 -77.25 84.1 -76.25 83.45 -75.3 83.4 -73.9 83.35 -72.5 83.85 -71.5 84.4 -70.55 85.2 -70.6 86.05 -70.55 86.7 -71.5 87.25 -72.5 87.3 -73.9 87.4 -75.3 86.9 -76.25 86.35 -77.25 85.5 -77.2 M86.65 -74.7 L86.4 -74.4 Q86.1 -74.1 85.65 -74.1 85.2 -74.1 84.95 -74.4 84.6 -74.75 84.6 -75.2 L84.75 -75.65 85.0 -75.9 Q85.3 -76.2 85.75 -76.2 L86.45 -75.9 86.8 -75.2 86.65 -74.7 M89.5 -70.95 Q86.65 -69.6 82.35 -71.4 82.65 -75.3 84.05 -77.7 89.0 -77.55 89.5 -70.95 M93.45 -7.4 L93.5 -7.35 93.3 -7.4 93.45 -7.4" fill="#ffffff" fill-rule="evenodd" stroke="none"/>
    <path d="M75.85 -78.55 L75.85 -77.8 75.5 -76.55 Q75.15 -76.0 74.75 -76.0 74.35 -76.0 74.1 -76.55 73.8 -77.1 73.85 -77.85 73.85 -78.55 74.2 -79.05 L74.4 -79.3 74.3 -79.0 Q74.25 -78.6 74.5 -78.3 74.7 -78.0 75.1 -78.0 75.4 -78.0 75.65 -78.3 L75.7 -78.45 75.85 -78.55 M84.75 -75.65 L84.6 -75.2 Q84.6 -74.75 84.95 -74.4 85.2 -74.1 85.65 -74.1 86.1 -74.1 86.4 -74.4 L86.65 -74.7 86.7 -73.9 Q86.65 -73.05 86.25 -72.45 85.8 -71.85 85.3 -71.85 84.75 -71.85 84.4 -72.45 84.0 -73.1 84.05 -73.95 84.05 -74.75 84.5 -75.3 L84.75 -75.65" fill="#000000" fill-rule="evenodd" stroke="none"/>
    <path d="M75.75 -69.7 L76.45 -68.95 Q77.05 -68.5 77.8 -68.15 75.95 -67.55 75.85 -68.95 L75.75 -69.7 M77.35 -58.55 L77.8 -57.75 77.45 -57.4 75.15 -58.3 77.35 -58.55" fill="#ffd0ae" fill-rule="evenodd" stroke="none"/>
    <path d="M102.4 -65.85 L103.35 -65.7 Q108.35 -64.65 108.3 -63.2 L107.95 -62.4 106.3 -59.85 Q105.35 -58.35 102.75 -56.1 L102.6 -56.2 102.6 -56.0 102.5 -55.95 102.4 -55.95 102.15 -56.45 Q101.5 -58.55 102.2 -65.9 L102.4 -65.85 M74.35 -63.2 Q74.35 -63.7 75.0 -64.15 L75.65 -62.25 Q76.45 -60.15 77.35 -58.55 L75.15 -58.3 74.7 -58.25 74.7 -58.5 74.65 -58.95 74.4 -61.65 74.3 -63.1 74.35 -63.2" fill="#2f553f" fill-rule="evenodd" stroke="none"/>
    <path d="M108.3 -63.2 Q110.75 -57.55 110.15 -52.8 L109.85 -51.5 109.65 -51.35 109.45 -51.25 108.95 -50.9 107.45 -49.95 104.35 -48.3 103.75 -48.0 103.75 -47.95 103.8 -47.9 Q96.4 -39.8 87.8 -39.0 L81.4 -39.4 80.85 -39.55 78.65 -40.45 Q72.45 -45.4 72.6 -52.8 72.7 -55.6 73.65 -58.65 L73.65 -58.9 73.65 -59.25 Q73.2 -60.75 73.8 -62.2 L74.35 -63.2 74.3 -63.1 74.4 -61.65 74.55 -58.95 74.55 -58.55 74.55 -58.25 74.7 -58.25 Q75.05 -55.45 75.85 -52.8 77.5 -47.15 81.15 -42.15 87.8 -45.3 96.15 -51.05 L98.5 -52.8 102.5 -55.9 102.6 -56.0 102.75 -56.1 Q105.35 -58.35 106.3 -59.85 L107.95 -62.4 108.3 -63.2" fill="#47815f" fill-rule="evenodd" stroke="none"/>
    <path d="M93.7 49.1 L90.35 48.95 89.05 49.0 85.5 48.8 Q81.95 48.25 80.1 46.35 77.35 44.6 74.95 44.1 L72.55 43.95 71.55 44.1 68.75 43.25 69.45 21.5 69.7 15.2 69.8 11.65 71.2 12.8 Q74.55 15.25 80.1 16.9 L85.65 18.25 89.15 18.5 95.35 18.7 Q92.95 24.15 93.45 34.15 L93.7 49.1 M71.65 -58.6 L71.9 -58.65 73.05 -58.75 73.35 -58.8 73.6 -58.9 73.6 -58.8 73.65 -58.9 73.65 -58.65 Q72.7 -55.6 72.6 -52.8 72.45 -45.4 78.65 -40.45 L80.85 -39.55 81.4 -39.4 87.8 -39.0 Q96.4 -39.8 103.8 -47.9 L103.8 -47.95 107.7 -46.3 108.8 -45.75 108.0 -44.35 Q106.55 -41.4 105.85 -37.85 105.0 -34.05 105.0 -29.65 105.05 -21.1 108.1 -15.05 109.45 -12.35 111.1 -10.85 109.15 -6.9 106.6 -3.3 L107.9 5.75 Q106.55 8.9 104.7 10.15 L103.75 10.25 103.5 10.35 100.75 10.65 99.35 10.7 89.4 10.3 88.65 10.25 81.75 9.45 80.65 9.05 80.15 8.9 80.1 8.9 79.25 8.55 75.85 7.1 72.8 5.2 71.7 4.3 71.1 3.6 69.85 1.95 69.75 1.55 69.55 0.95 Q67.45 -2.1 69.7 -21.9 L70.0 -24.5 68.4 -26.7 66.95 -29.0 66.3 -30.1 66.1 -30.6 Q65.95 -32.2 65.95 -33.75 65.6 -44.35 68.85 -52.75 L69.0 -53.1 Q69.9 -55.5 71.15 -57.7 L71.65 -58.6 M93.45 -7.4 L93.3 -7.4 93.5 -7.35 93.45 -7.4 M91.35 32.25 L90.35 48.95 91.35 32.25 M71.8 35.15 L71.55 44.1 71.8 35.15 M81.3 39.5 L80.1 46.35 81.3 39.5" fill="#6aac86" fill-rule="evenodd" stroke="none"/>
    <path d="M73.6 -58.9 L73.65 -58.9 73.6 -58.8 73.6 -58.9 M103.8 -47.9 L103.75 -47.95 103.8 -47.95 103.8 -47.9" fill="#c1a49d" fill-rule="evenodd" stroke="none"/>
    <path d="M74.4 -61.65 L74.65 -58.95 74.7 -58.5 74.7 -58.25 74.55 -58.25 74.55 -58.55 74.55 -58.95 74.4 -61.65 M102.5 -55.9 L102.4 -55.95 102.5 -55.95 102.6 -56.0 102.5 -55.9" fill="#674743" fill-rule="evenodd" stroke="none"/>
    <path d="M105.7 -71.65 L105.65 -71.6 105.35 -70.75 105.0 -69.85 104.95 -69.55 104.85 -69.4 104.45 -68.55 102.6 -67.3 102.4 -65.85 102.2 -65.9 Q101.5 -58.55 102.15 -56.45 100.3 -56.15 96.75 -54.15 L81.4 -54.1 80.7 -55.4 79.5 -55.65 80.4 -56.05 Q89.65 -60.2 93.85 -64.2 L94.15 -62.8 Q95.5 -60.45 98.55 -63.15 L100.25 -73.6 Q100.7 -73.1 102.05 -73.3 L102.45 -73.95 103.35 -74.9 Q105.4 -74.1 105.75 -72.15 L105.65 -71.6 105.75 -72.15 105.7 -71.65 M112.5 -49.6 L112.95 -49.3 114.7 -48.15 116.0 -47.3 114.45 -47.05 113.05 -46.5 Q109.45 -44.75 109.05 -39.3 L109.0 -38.9 109.2 -38.9 Q111.7 -33.05 114.45 -29.05 117.45 -24.6 120.75 -22.45 L121.35 -22.1 Q123.2 -21.05 125.1 -20.75 126.8 -20.45 128.6 -20.7 L129.1 -20.95 130.0 -21.4 130.2 -21.55 131.4 -22.5 Q132.5 -23.65 132.9 -25.2 L132.85 -23.7 Q132.75 -21.9 132.3 -20.5 L132.25 -20.3 132.1 -19.95 136.35 -4.75 Q130.3 -5.05 127.8 -2.5 L127.65 -2.35 Q126.7 -1.35 126.35 0.05 L125.95 -1.0 119.4 -17.75 119.35 -17.8 118.0 -14.1 115.7 -8.95 115.55 -9.0 Q113.1 -9.0 111.1 -10.85 109.45 -12.35 108.1 -15.05 105.05 -21.1 105.0 -29.65 105.0 -34.05 105.85 -37.85 106.55 -41.4 108.0 -44.35 L108.8 -45.75 109.7 -47.05 Q111.0 -48.75 112.5 -49.6 M66.4 36.35 L54.5 38.25 60.45 31.4 62.55 29.65 62.8 29.45 65.1 27.8 67.2 27.9 66.7 33.2 66.4 36.35 M55.15 -19.15 L57.75 -33.5 57.25 -35.55 57.05 -36.85 Q57.4 -35.9 58.05 -35.15 58.8 -34.35 59.85 -33.8 L60.1 -33.7 60.9 -33.35 Q61.15 -33.2 61.45 -33.1 L64.6 -33.35 64.85 -33.4 66.1 -30.6 66.3 -30.1 66.95 -29.0 68.4 -26.7 65.15 -15.05 65.1 -14.85 64.85 -15.4 63.6 -17.25 Q61.05 -19.9 55.15 -19.15 M58.55 -31.8 L58.15 -32.55 58.1 -32.7 57.75 -33.5 58.1 -32.7 58.15 -32.55 58.55 -31.8 M106.05 -74.35 L105.65 -76.65 105.25 -77.45 Q105.8 -76.9 106.0 -75.7 L106.05 -74.35 M102.6 -67.3 L101.95 -66.8 Q99.75 -64.7 99.15 -63.4 98.55 -62.1 94.85 -59.25 85.9 -54.5 80.7 -55.4 85.9 -54.5 94.85 -59.25 98.55 -62.1 99.15 -63.4 99.75 -64.7 101.95 -66.8 L102.6 -67.3 M101.4 -69.3 L101.4 -69.9 101.5 -71.4 101.6 -71.95 102.05 -73.3 101.6 -71.95 101.5 -71.4 Q102.4 -71.05 103.05 -70.05 102.4 -71.05 101.5 -71.4 L101.4 -69.9 101.4 -69.3 M112.1 -26.65 Q114.0 -22.95 116.45 -20.35 L117.8 -19.1 119.35 -17.8 117.8 -19.1 116.45 -20.35 Q114.0 -22.95 112.1 -26.65 M104.4 33.6 L110.65 36.15 112.1 38.6 112.15 38.9 113.4 41.3 116.0 50.1 105.6 43.1 106.45 40.5 104.4 33.6 M112.1 38.6 L106.45 40.5 112.1 38.6 M66.7 33.2 L62.8 29.45 66.7 33.2" fill="#fac98f" fill-rule="evenodd" stroke="none"/>
    <path d="M138.25 10.2 L138.3 10.2 138.2 10.75 Q138.45 12.1 136.8 15.15 L132.6 22.0 127.3 30.05 Q126.6 31.05 126.35 33.5 125.55 35.85 124.45 37.1 123.25 38.35 121.75 38.3 117.45 38.7 115.8 35.8 L117.35 32.3 118.05 30.55 118.7 29.1 120.0 25.85 120.85 23.8 122.7 19.1 122.9 18.5 124.1 15.55 Q126.05 9.8 126.05 7.8 126.05 7.35 125.65 7.05 L127.85 7.95 Q132.0 9.55 138.25 10.2 M52.1 22.45 Q51.75 21.0 52.0 18.8 52.75 16.5 52.55 15.3 L51.0 5.8 Q50.15 0.0 50.0 -2.2 49.75 -5.65 50.55 -6.8 L50.7 -7.35 50.8 -7.3 Q56.7 -5.3 61.15 -5.05 L63.55 -4.95 62.85 -4.45 Q62.0 -2.6 61.5 3.45 L61.3 6.6 61.25 7.25 61.0 12.3 60.9 14.45 60.75 18.0 60.7 19.6 60.7 21.45 60.6 25.25 Q57.9 27.25 54.15 25.15 52.55 24.5 52.1 22.45" fill="#823939" fill-rule="evenodd" stroke="none"/>
    <path d="M60.6 25.25 L60.7 21.45 60.7 19.6 60.75 18.0 60.9 14.45 61.0 12.3 61.25 7.25 61.3 6.6 61.5 3.45 Q62.0 -2.6 62.85 -4.45 L63.55 -4.95 63.6 -5.0 66.0 -5.35 Q66.55 -5.5 67.3 -5.9 L67.55 -6.05 Q67.85 -3.7 67.55 -0.85 67.25 2.0 65.4 4.1 65.05 5.45 65.05 8.05 L65.05 8.3 Q64.9 10.8 63.6 12.5 L63.4 14.85 63.25 16.35 63.0 17.75 62.55 19.5 62.9 21.05 Q63.25 22.2 62.2 23.65 L62.0 23.9 60.6 25.25 M117.1 26.5 L117.55 25.15 118.35 22.9 Q117.85 20.8 118.8 18.45 L118.9 18.3 Q119.95 15.85 120.2 14.55 119.4 11.85 120.3 9.15 121.2 6.4 122.45 4.35 L122.7 4.65 123.6 5.65 125.6 6.95 125.65 7.05 Q126.05 7.35 126.05 7.8 126.05 9.8 124.1 15.55 L122.9 18.5 122.7 19.1 120.85 23.8 120.0 25.85 118.7 29.1 118.05 30.55 117.35 32.3 115.8 35.8 115.1 33.95 115.05 33.6 Q114.7 31.9 115.5 31.0 L116.45 29.65 116.7 27.9 117.1 26.5" fill="#b45656" fill-rule="evenodd" stroke="none"/>
    <path d="M109.45 -51.25 L110.8 -50.6 111.25 -50.4 112.4 -49.65 112.5 -49.6 Q111.0 -48.75 109.7 -47.05 L108.8 -45.75 107.7 -46.3 103.8 -47.95 103.75 -48.0 104.35 -48.3 107.45 -49.95 108.95 -50.9 109.45 -51.25 M104.7 10.15 Q106.55 8.9 107.9 5.75 L106.6 -3.3 Q109.15 -6.9 111.1 -10.85 113.1 -9.0 115.55 -9.0 L115.7 -8.95 114.4 -6.45 113.9 3.65 Q112.55 6.75 110.7 7.95 108.55 9.45 104.7 10.15" fill="#52946d" fill-rule="evenodd" stroke="none"/>
    <path d="M103.75 -47.95 L103.75 -48.0 103.8 -47.95 103.75 -47.95" fill="#b48f87" fill-rule="evenodd" stroke="none"/>
    <path d="M109.05 -39.3 L109.2 -38.9 109.0 -38.9 109.05 -39.3" fill="#f2f2f2" fill-rule="evenodd" stroke="none"/>
    <path d="M80.15 8.9 L80.65 9.05 81.75 9.45 88.65 10.25 89.4 10.3 99.35 10.7 100.75 10.65 103.5 10.35 103.75 10.25 104.7 10.15 Q108.55 9.45 110.7 7.95 113.4 11.05 112.0 15.05 L111.05 15.5 110.65 15.65 Q105.9 17.8 99.85 18.4 L95.35 18.7 89.15 18.5 85.65 18.25 80.1 16.9 Q78.2 11.7 80.15 8.9" fill="#684942" fill-rule="evenodd" stroke="none"/>
    <path d="M68.05 17.95 Q68.35 15.25 68.9 12.95 L68.55 10.4 69.8 11.65 69.7 15.2 69.45 21.5 69.35 21.5 67.75 21.75 68.05 17.95 M111.05 15.5 L110.85 16.35 112.3 20.9 113.35 25.6 112.5 25.55 105.8 32.25 Q103.3 31.8 100.25 32.3 L98.65 32.6 Q96.2 33.1 93.45 34.15 92.95 24.15 95.35 18.7 L99.85 18.4 Q105.9 17.8 110.65 15.65 L111.05 15.5 M110.65 15.65 L110.85 16.35 110.65 15.65 M99.85 18.4 L100.25 32.3 99.85 18.4 M68.9 12.95 Q69.1 14.1 69.7 15.2 69.1 14.1 68.9 12.95" fill="#b68923" fill-rule="evenodd" stroke="none"/>
    <path d="M116.7 49.0 Q117.9 59.7 119.3 67.75 L100.95 67.75 92.55 67.75 93.55 53.05 93.7 49.1 93.45 34.15 Q96.2 33.1 98.65 32.6 L100.25 32.3 Q103.3 31.8 105.8 32.25 L104.4 33.6 106.45 40.5 105.6 43.1 116.0 50.1 116.1 50.15 116.7 49.0 M89.05 49.0 Q89.15 56.3 89.55 62.25 L88.6 67.75 71.1 67.75 64.6 67.75 64.35 66.75 Q63.5 63.05 62.8 57.4 L65.75 40.55 66.4 36.35 66.7 33.2 67.2 27.9 67.75 21.75 69.35 21.5 69.45 21.5 68.75 43.25 71.55 44.1 72.55 43.95 74.95 44.1 Q77.35 44.6 80.1 46.35 81.95 48.25 85.5 48.8 L89.05 49.0 M71.1 67.75 Q70.85 64.85 71.05 61.25 L71.05 61.05 72.55 43.95 71.05 61.05 71.05 61.25 Q70.85 64.85 71.1 67.75 M100.95 67.75 L100.25 32.3 100.95 67.75" fill="#dab63d" fill-rule="evenodd" stroke="none"/>
    <path d="M64.6 67.75 L63.75 67.75 64.35 66.75 64.6 67.75" fill="#61463d" fill-rule="evenodd" stroke="none"/>
    <path d="M68.55 10.4 L68.1 9.85 Q67.0 5.0 68.85 2.0 L69.1 1.55 69.55 0.95 69.75 1.55 69.85 1.95 71.1 3.6 71.7 4.3 72.8 5.2 75.85 7.1 79.25 8.55 80.1 8.9 80.15 8.9 Q78.2 11.7 80.1 16.9 74.55 15.25 71.2 12.8 L69.8 11.65 68.55 10.4" fill="#956c5e" fill-rule="evenodd" stroke="none"/>
    <path d="M109.2 -101.75 Q102.5 -109.4 86.5 -107.55 70.45 -105.7 72.5 -91.65 L73.0 -90.55 Q73.65 -89.55 74.95 -88.8 M109.2 -101.75 Q111.45 -98.8 112.1 -94.2 111.45 -80.55 108.35 -74.55 L108.05 -74.05 Q106.95 -72.2 105.6 -71.15 L105.7 -71.65 105.75 -72.15 M93.85 -64.2 Q92.15 -72.1 92.8 -75.6 93.5 -79.35 96.55 -81.55 99.6 -83.8 96.3 -89.65 94.3 -92.75 85.9 -90.55 80.4 -87.7 74.95 -88.8 M105.25 -77.45 L104.7 -77.8 104.0 -77.85 Q103.1 -77.9 101.85 -77.25 L101.05 -76.7 100.65 -76.15 100.5 -75.4 100.25 -73.6 98.55 -63.15 Q95.5 -60.45 94.15 -62.8 L93.85 -64.2 M105.8 -72.3 L105.9 -73.2 106.05 -74.35 M105.25 -77.45 Q105.8 -76.9 106.0 -75.7 L106.05 -74.35" fill="none" stroke="#000066" stroke-linecap="round" stroke-linejoin="round" stroke-width="0.05"/>
    <path d="M105.7 -71.65 L105.65 -71.6 105.35 -70.75 105.0 -69.85 104.95 -69.55 104.85 -69.4 104.45 -68.55 102.6 -67.3 M112.95 -49.3 L114.7 -48.15 116.0 -47.3 Q118.7 -47.35 121.85 -45.3 126.85 -42.25 130.05 -35.95 131.85 -32.4 132.55 -29.0 L132.85 -26.85 132.9 -25.2 132.85 -23.7 Q132.75 -21.9 132.3 -20.5 L132.25 -20.3 132.1 -19.95 136.35 -4.75 137.5 -0.6 M137.35 -0.5 L137.95 0.0 138.3 1.5 138.5 2.1 139.3 7.6 138.25 10.2 M124.45 37.1 L118.6 48.35 116.8 48.95 116.7 49.0 M66.4 36.35 L54.5 38.25 54.35 38.25 54.25 36.95 52.8 35.6 52.1 22.45 M50.8 -7.3 L50.9 -10.05 Q52.5 -12.9 53.9 -14.8 L54.05 -14.95 54.15 -15.05 54.3 -15.25 54.35 -15.3 54.45 -15.45 55.15 -19.15 57.75 -33.5 57.25 -35.55 57.05 -36.85 Q56.95 -37.65 57.0 -38.4 L57.05 -40.3 Q57.35 -43.4 58.65 -46.65 61.0 -52.55 65.25 -55.6 67.35 -57.2 69.35 -57.6 M69.55 -57.85 L69.75 -58.2 70.8 -58.45 71.65 -58.6 M75.0 -64.15 Q73.8 -67.55 73.2 -70.15 72.45 -73.4 72.05 -78.35 71.6 -83.3 71.7 -84.2 71.9 -86.65 72.5 -88.9 L73.0 -90.55 M72.7 -78.1 L72.6 -77.7 72.7 -77.6 Q73.05 -76.5 73.7 -75.65 74.0 -75.05 74.4 -74.85 L76.05 -73.8 Q76.4 -75.6 76.4 -77.35 L76.2 -80.55 Q73.75 -83.45 72.7 -78.1 M75.75 -69.7 L75.85 -68.95 Q75.95 -67.55 77.8 -68.15 M75.0 -64.15 L75.65 -62.25 Q76.45 -60.15 77.35 -58.55 L77.8 -57.75 Q78.6 -56.5 79.5 -55.65 M76.4 -77.35 Q76.95 -74.35 76.75 -72.3 76.5 -70.7 75.75 -69.7 M80.7 -55.4 L79.5 -55.65 M66.1 -30.6 L64.85 -33.4 Q62.95 -38.55 63.55 -43.8 M57.75 -33.5 L58.1 -32.7 58.15 -32.55 58.55 -31.8 M67.3 -5.9 L67.35 -8.65 Q67.15 -12.5 65.2 -15.0 L65.15 -15.05 65.1 -14.85 64.15 -11.0 M68.4 -26.7 L65.15 -15.05 M63.25 16.35 Q65.6 16.45 67.85 17.4 L68.05 17.95 M102.05 -73.3 L102.45 -73.95 103.35 -74.9 M105.75 -72.15 L105.8 -72.3 M106.05 -74.35 L105.65 -76.65 105.25 -77.45 M76.85 -64.75 Q78.5 -63.45 81.0 -62.6 L81.15 -62.55 84.3 -61.75 M89.5 -70.95 Q89.0 -77.55 84.05 -77.7 82.65 -75.3 82.35 -71.4 86.65 -69.6 89.5 -70.95 M80.7 -55.4 Q85.9 -54.5 94.85 -59.25 98.55 -62.1 99.15 -63.4 99.75 -64.7 101.95 -66.8 L102.6 -67.3 M105.75 -72.15 L105.65 -71.6 M102.05 -73.3 L101.6 -71.95 101.5 -71.4 Q102.4 -71.05 103.05 -70.05 M101.5 -71.4 L101.4 -69.9 101.4 -69.3 M116.0 -47.3 L114.45 -47.05 M115.7 -8.95 L118.0 -14.1 119.35 -17.8 117.8 -19.1 116.45 -20.35 Q114.0 -22.95 112.1 -26.65 M119.35 -17.8 L119.4 -17.75 125.95 -1.0 126.35 0.05 127.6 3.75 M122.7 4.65 Q123.15 3.25 123.75 2.1 124.7 0.25 125.95 -1.0 M113.35 25.6 Q115.3 25.75 117.1 26.5 M105.8 32.25 L112.5 25.55 113.35 25.6 M105.8 32.25 L104.4 33.6 M112.1 38.6 L112.15 38.9 M116.0 50.1 L116.1 50.15 116.7 49.0 M116.0 50.1 L105.6 43.1 106.45 40.5 104.4 33.6 M106.45 40.5 L112.1 38.6 M62.8 29.45 L66.7 33.2 M62.8 29.45 L62.55 29.65" fill="none" stroke="#d7995e" stroke-linecap="round" stroke-linejoin="round" stroke-width="0.05"/>
    <path d="M72.5 -85.1 Q74.55 -85.45 75.75 -84.4 77.0 -83.35 77.35 -80.75 75.85 -83.4 74.2 -84.4 73.35 -84.95 72.5 -85.1 M91.8 -79.85 Q86.65 -83.45 82.65 -78.8 87.85 -81.2 91.8 -79.85" fill="none" stroke="#5b4961" stroke-linecap="round" stroke-linejoin="round" stroke-width="0.05"/>
    <path d="M102.4 -65.85 L103.35 -65.7 Q108.35 -64.65 108.3 -63.2 110.75 -57.55 110.15 -52.8 L109.85 -51.5 109.65 -51.35 109.45 -51.25 110.8 -50.6 111.25 -50.4 112.4 -49.65 112.5 -49.6 Q111.0 -48.75 109.7 -47.05 L108.8 -45.75 M93.7 49.1 L90.35 48.95 89.05 49.0 85.5 48.8 Q81.95 48.25 80.1 46.35 77.35 44.6 74.95 44.1 L72.55 43.95 71.55 44.1 71.8 35.15 M71.65 -58.6 L71.9 -58.65 73.05 -58.75 73.35 -58.8 73.6 -58.9 73.65 -58.9 73.65 -59.25 Q73.2 -60.75 73.8 -62.2 L74.35 -63.2 Q74.35 -63.7 75.0 -64.15 M74.35 -63.2 L74.3 -63.1 74.4 -61.65 74.65 -58.95 74.7 -58.5 74.7 -58.25 Q75.05 -55.45 75.85 -52.8 77.5 -47.15 81.15 -42.15 87.8 -45.3 96.15 -51.05 L98.5 -52.8 102.5 -55.9 M69.0 -53.1 Q69.9 -55.5 71.15 -57.7 L71.65 -58.6 M73.65 -58.9 L73.6 -58.8 73.6 -58.9 M73.65 -58.9 L73.65 -58.65 Q72.7 -55.6 72.6 -52.8 72.45 -45.4 78.65 -40.45 L80.85 -39.55 81.4 -39.4 87.8 -39.0 Q96.4 -39.8 103.8 -47.9 M103.75 -48.0 L104.35 -48.3 107.45 -49.95 108.95 -50.9 109.45 -51.25 M66.1 -30.6 Q65.95 -32.2 65.95 -33.75 65.6 -44.35 68.85 -52.75 M68.4 -26.7 L66.95 -29.0 66.3 -30.1 66.1 -30.6 M69.55 0.95 Q67.45 -2.1 69.7 -21.9 L70.0 -24.5 68.4 -26.7 M69.55 0.95 L69.75 1.55 69.85 1.95 71.1 3.6 71.7 4.3 72.8 5.2 75.85 7.1 79.25 8.55 80.1 8.9 80.15 8.9 80.65 9.05 81.75 9.45 88.65 10.25 89.4 10.3 99.35 10.7 100.75 10.65 103.5 10.35 103.75 10.25 104.7 10.15 Q108.55 9.45 110.7 7.95 112.55 6.75 113.9 3.65 L114.4 -6.45 115.7 -8.95 115.55 -9.0 Q113.1 -9.0 111.1 -10.85 109.45 -12.35 108.1 -15.05 105.05 -21.1 105.0 -29.65 105.0 -34.05 105.85 -37.85 106.55 -41.4 108.0 -44.35 L108.8 -45.75 M102.4 -65.85 L102.2 -65.9 M108.3 -63.2 L107.95 -62.4 106.3 -59.85 Q105.35 -58.35 102.75 -56.1 L102.6 -56.0 102.5 -55.9 M90.35 48.95 L91.35 32.25 M69.8 11.65 L69.7 15.2 69.45 21.5 68.75 43.25 71.55 44.1 M80.1 46.35 L81.3 39.5" fill="none" stroke="#30543c" stroke-linecap="round" stroke-linejoin="round" stroke-width="0.05"/>
    <path d="M138.25 10.2 L138.3 10.2 138.2 10.75 Q138.45 12.1 136.8 15.15 L132.6 22.0 127.3 30.05 Q126.6 31.05 126.35 33.5 125.55 35.85 124.45 37.1 M52.1 22.45 Q51.75 21.0 52.0 18.8 52.75 16.5 52.55 15.3 L51.0 5.8 Q50.15 0.0 50.0 -2.2 49.75 -5.65 50.55 -6.8 L50.7 -7.35 50.8 -7.3 M63.55 -4.95 L61.15 -5.05 Q56.7 -5.3 50.8 -7.3 M63.6 -5.0 L66.0 -5.35 Q66.55 -5.5 67.3 -5.9 L67.55 -6.05 Q67.85 -3.7 67.55 -0.85 67.25 2.0 65.4 4.1 65.05 5.45 65.05 8.05 L65.05 8.3 Q64.9 10.8 63.6 12.5 L63.4 14.85 63.25 16.35 63.0 17.75 62.55 19.5 62.9 21.05 Q63.25 22.2 62.2 23.65 L62.0 23.9 60.6 25.25 Q57.9 27.25 54.15 25.15 52.55 24.5 52.1 22.45 M122.7 4.65 L122.45 4.35 Q121.2 6.4 120.3 9.15 119.4 11.85 120.2 14.55 119.95 15.85 118.9 18.3 L118.8 18.45 Q117.85 20.8 118.35 22.9 L117.55 25.15 117.1 26.5 116.7 27.9 116.45 29.65 115.5 31.0 Q114.7 31.9 115.05 33.6 L115.1 33.95 115.8 35.8 Q117.45 38.7 121.75 38.3 123.25 38.35 124.45 37.1 M125.6 6.95 L123.6 5.65 122.7 4.65 M138.25 10.2 Q132.0 9.55 127.85 7.95 L125.65 7.05" fill="none" stroke="#6c3131" stroke-linecap="round" stroke-linejoin="round" stroke-width="0.05"/>
    <path d="M102.6 -67.3 L102.4 -65.85 M68.55 10.4 L68.1 9.85 Q67.0 5.0 68.85 2.0 L69.1 1.55 69.55 0.95 M110.7 7.95 Q113.4 11.05 112.0 15.05 L111.05 15.5 M95.35 18.7 L99.85 18.4 Q105.9 17.8 110.65 15.65 L111.05 15.5 M80.1 16.9 L85.65 18.25 89.15 18.5 95.35 18.7 M68.55 10.4 L69.8 11.65 71.2 12.8 Q74.55 15.25 80.1 16.9" fill="none" stroke="#674743" stroke-linecap="round" stroke-linejoin="round" stroke-width="0.05"/>
    <path d="M116.7 49.0 Q117.9 59.7 119.3 67.75 M92.55 67.75 L93.55 53.05 93.7 49.1 M89.05 49.0 Q89.15 56.3 89.55 62.25 L88.6 67.75 M64.35 66.75 Q63.5 63.05 62.8 57.4 L65.75 40.55 66.4 36.35 M68.05 17.95 Q68.35 15.25 68.9 12.95 L68.55 10.4 M111.05 15.5 L110.85 16.35 112.3 20.9 113.35 25.6 M110.85 16.35 L110.65 15.65 M95.35 18.7 Q92.95 24.15 93.45 34.15 L93.7 49.1 M100.25 32.3 L99.85 18.4 M72.55 43.95 L71.05 61.05 71.05 61.25 Q70.85 64.85 71.1 67.75 M100.25 32.3 L100.95 67.75 M69.7 15.2 Q69.1 14.1 68.9 12.95 M67.75 21.75 L67.2 27.9 66.7 33.2 66.4 36.35 M68.05 17.95 L67.75 21.75 M64.35 66.75 L64.6 67.75" fill="none" stroke="#6b5114" stroke-linecap="round" stroke-linejoin="round" stroke-width="0.05"/>
    <path d="M63.75 67.75 L64.35 66.75" fill="none" stroke="#3f2c27" stroke-linecap="round" stroke-linejoin="round" stroke-width="0.05"/>
  </g>
</svg>
