<?xml version="1.0" encoding="UTF-8" standalone="no"?>
<svg xmlns:xlink="http://www.w3.org/1999/xlink" height="179.0px" width="96.75px" xmlns="http://www.w3.org/2000/svg">
  <g transform="matrix(1, 0, 0, 1, -43.2, 114.7)">
    <path d="M67.55 -79.65 L67.15 -80.25 Q66.65 -81.2 66.3 -82.35 65.45 -85.75 66.7 -89.1 67.3 -90.9 68.35 -92.1 67.8 -94.75 68.75 -97.35 69.85 -100.25 72.15 -101.4 74.5 -102.65 76.7 -101.45 77.85 -100.8 78.65 -99.6 78.5 -101.1 79.05 -102.55 79.85 -104.75 81.65 -105.65 83.45 -106.6 85.15 -105.7 86.5 -104.95 87.15 -103.3 88.75 -103.65 90.6 -103.35 L91.8 -103.2 92.35 -103.05 Q92.85 -104.7 94.1 -105.55 95.65 -106.6 97.4 -105.9 99.15 -105.2 100.05 -103.2 L100.65 -101.45 101.2 -101.95 Q102.75 -102.95 104.55 -102.2 106.35 -101.5 107.25 -99.45 108.2 -97.55 107.75 -95.35 107.45 -94.0 106.7 -93.05 L106.2 -94.95 Q105.4 -97.05 103.85 -97.8 102.25 -98.5 100.85 -97.4 L100.3 -96.95 99.8 -98.6 Q99.05 -100.7 97.55 -101.4 96.0 -102.1 94.55 -101.05 93.4 -100.2 92.9 -98.55 L90.9 -98.95 90.6 -98.95 87.4 -98.8 Q86.85 -100.4 85.65 -101.1 84.15 -102.0 82.5 -101.1 80.85 -100.15 80.05 -97.95 79.5 -96.45 79.55 -94.95 78.85 -96.1 77.85 -96.75 75.9 -97.95 73.75 -96.7 71.6 -95.55 70.55 -92.65 69.55 -90.0 69.95 -87.35 69.0 -86.15 68.35 -84.4 67.65 -82.55 67.55 -80.7 L67.55 -79.65 M95.9 -107.55 Q95.85 -108.8 96.35 -110.15 97.1 -112.3 98.75 -113.55 100.45 -114.9 102.15 -114.65 103.8 -114.4 104.45 -112.7 L104.55 -111.95 105.8 -113.25 Q107.5 -114.6 109.1 -114.3 110.75 -114.1 111.35 -112.4 111.85 -111.05 111.35 -109.35 113.55 -108.75 114.8 -106.85 116.3 -107.75 117.75 -107.55 119.4 -107.3 120.0 -105.5 120.6 -103.7 119.8 -101.5 119.25 -100.05 118.25 -98.95 L120.65 -99.3 Q122.85 -98.95 123.7 -96.6 124.5 -94.35 123.4 -91.5 122.4 -88.85 120.45 -87.05 L120.3 -86.1 Q118.9 -87.8 119.3 -88.85 120.35 -91.7 119.7 -93.85 119.0 -96.05 117.0 -96.25 115.9 -96.4 114.75 -95.85 115.65 -97.05 116.2 -98.5 117.05 -100.7 116.55 -102.4 116.0 -104.05 114.45 -104.2 113.2 -104.35 111.9 -103.45 110.75 -105.2 108.75 -105.65 109.15 -107.35 108.75 -108.65 108.25 -110.25 106.8 -110.4 105.35 -110.55 103.8 -109.1 L102.5 -107.85 102.3 -108.5 Q101.85 -110.15 100.4 -110.3 98.85 -110.45 97.25 -109.05 L95.9 -107.55" fill="#fdffc1" fill-rule="evenodd" stroke="none"/>
    <path d="M67.55 -79.65 L67.55 -80.7 Q67.65 -82.55 68.35 -84.4 69.0 -86.15 69.95 -87.35 69.55 -90.0 70.55 -92.65 71.6 -95.55 73.75 -96.7 75.9 -97.95 77.85 -96.75 78.85 -96.1 79.55 -94.95 79.5 -96.45 80.05 -97.95 80.85 -100.15 82.5 -101.1 84.15 -102.0 85.65 -101.1 86.85 -100.4 87.4 -98.8 L90.6 -98.95 90.9 -98.95 92.9 -98.55 Q93.4 -100.2 94.55 -101.05 96.0 -102.1 97.55 -101.4 99.05 -100.7 99.8 -98.6 L100.3 -96.95 100.85 -97.4 Q102.25 -98.5 103.85 -97.8 105.4 -97.05 106.2 -94.95 L106.7 -93.05 Q107.45 -94.0 107.75 -95.35 108.2 -97.55 107.25 -99.45 106.35 -101.5 104.55 -102.2 102.75 -102.95 101.2 -101.95 L100.65 -101.45 100.05 -103.2 Q99.15 -105.2 97.4 -105.9 95.65 -106.6 94.1 -105.55 92.85 -104.7 92.35 -103.05 L91.8 -103.2 Q92.8 -105.3 94.6 -106.65 L95.75 -107.45 95.85 -107.45 95.9 -107.55 97.25 -109.05 Q98.85 -110.45 100.4 -110.3 101.85 -110.15 102.3 -108.5 L102.5 -107.85 103.8 -109.1 Q105.35 -110.55 106.8 -110.4 108.25 -110.25 108.75 -108.65 109.15 -107.35 108.75 -105.65 110.75 -105.2 111.9 -103.45 113.2 -104.35 114.45 -104.2 116.0 -104.05 116.55 -102.4 117.05 -100.7 116.2 -98.5 115.65 -97.05 114.75 -95.85 115.9 -96.4 117.0 -96.25 119.0 -96.05 119.7 -93.85 120.35 -91.7 119.3 -88.85 118.9 -87.8 120.3 -86.1 L119.7 -83.7 118.65 -81.5 Q117.5 -79.65 115.75 -78.25 L113.9 -77.1 113.25 -76.9 110.45 -76.65 Q109.25 -76.8 108.45 -77.4 107.45 -68.0 101.55 -63.2 102.2 -64.5 102.3 -65.85 102.4 -67.0 102.1 -68.2 L101.1 -70.5 100.1 -70.65 98.5 -70.5 98.1 -70.35 Q96.45 -69.7 94.5 -63.6 92.7 -58.15 93.3 -72.3 L93.5 -76.1 90.6 -76.05 90.6 -76.0 83.6 -76.9 Q80.45 -78.6 78.85 -82.15 77.6 -79.0 75.0 -77.65 72.7 -76.5 70.5 -77.35 L69.8 -77.7 Q68.45 -78.45 67.55 -79.65 M70.6 -75.45 Q74.0 -77.65 76.0 -73.7 73.05 -76.05 70.6 -75.45 M108.45 -77.4 Q108.9 -81.8 108.3 -87.15 108.5 -89.4 107.5 -91.6 L106.75 -92.85 106.7 -92.95 106.7 -93.05 106.7 -92.95 106.75 -92.85 107.5 -91.6 Q108.5 -89.4 108.3 -87.15 108.9 -81.8 108.45 -77.4 M89.25 -72.05 Q85.15 -73.75 79.35 -72.75 83.95 -75.65 89.25 -72.05" fill="#fdd85b" fill-rule="evenodd" stroke="none"/>
    <path d="M135.15 31.3 L136.2 43.85 136.4 46.65 Q133.65 49.95 131.0 46.1 L129.5 39.35 127.25 31.1 127.3 31.1 131.25 32.35 Q133.25 32.1 135.15 31.3 M55.7 14.9 Q54.05 19.0 52.65 23.4 L51.25 28.1 Q48.35 31.55 45.8 28.8 L45.9 28.05 47.75 15.4 51.7 16.15 55.7 14.9 M76.55 -52.25 Q75.0 -53.65 73.85 -55.85 71.4 -60.7 70.7 -69.05 L70.7 -73.2 Q70.3 -75.8 70.4 -76.7 L70.5 -77.35 Q72.7 -76.5 75.0 -77.65 77.6 -79.0 78.85 -82.15 80.45 -78.6 83.6 -76.9 L90.6 -76.0 90.6 -76.05 93.5 -76.1 93.3 -72.3 89.55 -69.0 91.45 -63.4 Q91.65 -60.65 90.05 -58.05 88.05 -54.75 83.25 -51.7 L80.7 -50.25 80.45 -50.3 80.7 -50.25 82.85 -50.3 Q87.5 -50.7 91.5 -53.5 L93.8 -55.25 Q94.85 -51.6 96.2 -44.45 91.4 -40.65 83.1 -42.6 80.4 -45.05 80.45 -50.3 79.2 -50.55 78.15 -51.15 L76.55 -52.25 M74.65 -72.45 L74.55 -73.2 Q72.2 -76.05 71.1 -70.6 71.55 -69.25 72.35 -68.35 L72.4 -68.3 Q72.75 -67.55 73.3 -67.45 L74.15 -67.0 74.9 -66.95 74.8 -69.25 74.7 -70.25 74.65 -72.45 M73.8 -63.2 Q74.4 -64.05 74.7 -65.3 L74.9 -66.95 74.7 -65.3 Q74.4 -64.05 73.8 -63.2 73.55 -61.05 75.65 -61.7 74.55 -62.25 73.8 -63.2 M80.9 -68.85 Q80.2 -67.1 80.0 -64.75 L81.5 -64.2 83.8 -63.8 Q85.35 -63.75 86.6 -64.3 86.4 -68.3 84.45 -69.75 83.45 -70.5 82.0 -70.6 L81.75 -70.6 81.3 -69.75 80.9 -68.85 M70.6 -75.45 Q73.05 -76.05 76.0 -73.7 74.0 -77.65 70.6 -75.45 M98.5 -70.5 L100.1 -70.65 101.1 -70.5 102.1 -68.2 102.05 -66.8 Q101.8 -67.75 99.9 -68.2 98.85 -67.5 98.3 -66.35 97.4 -66.55 97.2 -69.25 L98.5 -70.5 M82.1 -48.6 L82.85 -50.3 82.1 -48.6 M89.25 -72.05 Q83.95 -75.65 79.35 -72.75 85.15 -73.75 89.25 -72.05 M81.4 -56.5 Q76.7 -56.85 74.55 -59.2 76.7 -56.85 81.4 -56.5" fill="#ffdfc8" fill-rule="evenodd" stroke="none"/>
    <path d="M99.65 -48.85 L100.0 -49.5 101.85 -48.4 101.8 -48.3 100.55 -45.25 Q98.75 -41.2 96.35 -37.6 L93.75 -34.1 74.6 -39.2 Q75.15 -44.75 77.6 -50.2 L78.15 -51.15 Q79.2 -50.55 80.45 -50.3 80.4 -45.05 83.1 -42.6 91.4 -40.65 96.2 -44.45 98.25 -46.1 99.65 -48.85 M106.5 -45.65 L106.55 -45.6 107.15 -45.3 110.35 -43.5 111.5 -42.75 114.2 -40.95 114.8 -40.5 115.25 -40.2 115.25 -39.9 Q118.4 -37.85 120.45 -33.75 121.8 -30.85 122.05 -28.15 L121.95 -27.65 121.2 -25.45 120.3 -24.0 Q119.0 -22.45 117.0 -22.95 L115.55 -23.55 115.4 -23.6 Q113.55 -24.55 111.9 -26.4 L111.35 -27.0 111.05 -27.4 Q108.55 -30.7 106.6 -36.3 L106.4 -36.7 105.95 -34.6 Q105.6 -33.0 106.65 -29.95 107.75 -26.85 108.5 -26.9 L108.55 -26.8 Q109.6 -24.85 110.85 -23.4 L110.75 -23.1 Q107.75 -20.2 105.75 -24.75 L105.05 -27.35 Q103.0 -30.0 103.4 -35.6 103.9 -40.95 106.5 -45.65 M129.05 0.75 L131.0 7.25 130.9 7.4 Q132.35 10.05 134.0 14.8 L134.0 14.95 Q135.1 19.0 136.7 22.45 133.8 26.75 123.3 23.8 L123.5 19.0 Q123.0 15.0 123.75 10.8 L124.05 9.15 124.05 9.1 115.95 -12.85 Q124.95 -10.95 129.05 0.75 M61.85 -10.15 L60.15 -4.3 60.3 -2.9 Q60.75 0.75 60.05 4.25 59.85 6.5 60.05 8.35 49.4 11.3 46.75 7.7 48.45 4.65 49.85 1.1 L49.85 0.95 Q51.3 -2.4 52.65 -4.55 L53.25 -5.55 59.45 -30.05 Q65.45 -23.75 61.85 -10.15 M66.45 -50.2 Q67.8 -51.05 69.05 -51.15 L69.05 -51.25 72.55 -51.8 68.25 -40.2 68.15 -40.05 68.05 -39.9 67.8 -38.9 Q67.2 -37.4 65.9 -35.8 65.0 -34.7 64.5 -33.05 63.6 -33.55 63.05 -34.7 L63.0 -34.8 62.65 -35.85 Q61.85 -39.15 63.5 -43.9 64.5 -46.8 66.45 -50.2 M72.35 -68.35 Q71.55 -69.25 71.1 -70.6 72.2 -76.05 74.55 -73.2 L74.65 -72.45 74.55 -72.7 Q74.05 -73.55 73.4 -73.55 72.75 -73.55 72.35 -72.7 71.9 -71.8 71.9 -70.5 71.9 -69.25 72.35 -68.35 M72.9 -72.15 L73.05 -72.4 73.65 -72.7 74.2 -72.4 74.45 -71.7 74.35 -71.25 74.2 -71.0 73.65 -70.7 Q73.3 -70.75 73.05 -71.0 72.8 -71.3 72.8 -71.7 L72.9 -72.15 M73.3 -67.45 L73.4 -67.45 Q73.95 -67.5 74.35 -68.1 L74.15 -67.0 73.3 -67.45 M80.9 -68.85 Q80.65 -68.1 80.65 -67.1 80.65 -65.6 81.3 -64.55 L81.5 -64.2 80.0 -64.75 Q80.2 -67.1 80.9 -68.85 M83.8 -63.8 L84.45 -64.55 Q85.05 -65.6 85.05 -67.1 85.05 -68.7 84.45 -69.75 86.4 -68.3 86.6 -64.3 85.35 -63.75 83.8 -63.8 M82.0 -70.6 L81.3 -69.75 81.75 -70.6 82.0 -70.6 M68.1 -43.0 Q68.45 -42.2 68.15 -40.2 L68.15 -40.05 68.15 -40.2 Q68.45 -42.2 68.1 -43.0 M59.7 -2.85 L60.15 -4.3 59.7 -2.85 M84.25 -67.95 L84.1 -67.8 Q83.75 -67.45 83.3 -67.4 82.8 -67.45 82.45 -67.8 82.1 -68.15 82.1 -68.65 L82.3 -69.2 82.45 -69.45 Q82.8 -69.8 83.3 -69.75 83.75 -69.8 84.1 -69.45 L84.5 -68.65 84.25 -67.95 M106.65 -37.95 L107.0 -38.65 Q107.7 -40.2 109.2 -40.9 111.8 -42.2 115.05 -40.05 L115.25 -39.9 115.05 -40.05 Q111.8 -42.2 109.2 -40.9 107.7 -40.2 107.0 -38.65 L106.65 -37.95" fill="#ffffff" fill-rule="evenodd" stroke="none"/>
    <path d="M72.35 -68.35 Q71.9 -69.25 71.9 -70.5 71.9 -71.8 72.35 -72.7 72.75 -73.55 73.4 -73.55 74.05 -73.55 74.55 -72.7 L74.65 -72.45 74.7 -70.25 74.35 -68.1 Q73.95 -67.5 73.4 -67.45 L73.3 -67.45 Q72.75 -67.55 72.4 -68.3 L72.35 -68.35 M74.35 -71.25 L74.45 -71.7 74.2 -72.4 73.65 -72.7 73.05 -72.4 72.9 -72.15 72.65 -71.85 Q72.35 -71.3 72.4 -70.55 72.35 -69.75 72.65 -69.2 73.0 -68.65 73.4 -68.65 73.85 -68.65 74.15 -69.2 L74.4 -70.5 74.35 -71.25 M81.5 -64.2 L81.3 -64.55 Q80.65 -65.6 80.65 -67.1 80.65 -68.1 80.9 -68.85 L81.3 -69.75 82.0 -70.6 Q83.45 -70.5 84.45 -69.75 85.05 -68.7 85.05 -67.1 85.05 -65.6 84.45 -64.55 L83.8 -63.8 81.5 -64.2 M82.3 -69.2 L81.85 -68.75 Q81.4 -68.1 81.4 -67.2 81.4 -66.2 81.85 -65.55 82.3 -64.85 82.85 -64.85 83.45 -64.85 83.85 -65.55 84.3 -66.2 84.3 -67.1 L84.25 -67.95 84.5 -68.65 84.1 -69.45 Q83.75 -69.8 83.3 -69.75 82.8 -69.8 82.45 -69.45 L82.3 -69.2" fill="#2c7bfe" fill-rule="evenodd" stroke="none"/>
    <path d="M74.35 -71.25 L74.4 -70.5 74.15 -69.2 Q73.85 -68.65 73.4 -68.65 73.0 -68.65 72.65 -69.2 72.35 -69.75 72.4 -70.55 72.35 -71.3 72.65 -71.85 L72.9 -72.15 72.8 -71.7 Q72.8 -71.3 73.05 -71.0 73.3 -70.75 73.65 -70.7 L74.2 -71.0 74.35 -71.25 M84.25 -67.95 L84.3 -67.1 Q84.3 -66.2 83.85 -65.55 83.45 -64.85 82.85 -64.85 82.3 -64.85 81.85 -65.55 81.4 -66.2 81.4 -67.2 81.4 -68.1 81.85 -68.75 L82.3 -69.2 82.1 -68.65 Q82.1 -68.15 82.45 -67.8 82.8 -67.45 83.3 -67.4 83.75 -67.45 84.1 -67.8 L84.25 -67.95" fill="#000000" fill-rule="evenodd" stroke="none"/>
    <path d="M74.7 -70.25 L74.8 -69.25 74.9 -66.95 74.15 -67.0 74.35 -68.1 74.7 -70.25 M73.8 -63.2 Q74.55 -62.25 75.65 -61.7 73.55 -61.05 73.8 -63.2" fill="#efc8a0" fill-rule="evenodd" stroke="none"/>
    <path d="M122.05 -28.15 L122.0 -25.65 122.05 -25.6 121.95 -24.05 129.05 0.75 Q124.95 -10.95 115.95 -12.85 L112.6 -21.8 112.55 -21.85 110.85 -23.4 Q109.6 -24.85 108.55 -26.8 L108.5 -26.9 Q107.75 -26.85 106.65 -29.95 105.6 -33.0 105.95 -34.6 L106.4 -36.7 106.6 -36.3 Q108.55 -30.7 111.05 -27.4 L111.35 -27.0 111.9 -26.4 Q113.55 -24.55 115.4 -23.6 L115.55 -23.55 117.0 -22.95 Q119.0 -22.45 120.3 -24.0 L121.2 -25.45 121.95 -27.65 122.05 -28.15 M65.55 -21.65 L61.85 -10.15 Q65.45 -23.75 59.45 -30.05 L60.3 -33.55 Q59.95 -34.2 59.7 -36.7 59.4 -39.35 61.15 -43.45 62.8 -47.5 65.65 -49.7 L66.45 -50.2 Q64.5 -46.8 63.5 -43.9 61.85 -39.15 62.65 -35.85 L63.0 -34.8 63.05 -34.7 Q63.6 -33.55 64.5 -33.05 63.85 -31.05 63.85 -28.25 L63.95 -26.3 Q64.3 -23.7 65.55 -21.65 M61.1 -32.2 L60.35 -33.45 60.3 -33.55 60.35 -33.45 61.1 -32.2" fill="#cecece" fill-rule="evenodd" stroke="none"/>
    <path d="M112.35 64.3 L54.9 64.3 56.65 52.75 Q58.45 38.95 61.7 25.95 63.15 20.7 64.75 15.5 L66.65 16.2 Q69.3 18.9 72.6 20.75 L76.95 22.65 81.15 23.65 86.7 24.4 95.25 23.8 106.05 21.6 Q109.65 38.05 111.45 52.75 L112.35 64.3 M66.6 10.4 Q67.9 5.05 71.2 0.55 L71.9 -0.35 72.05 -0.6 72.3 -0.9 Q73.25 -2.9 73.35 -5.8 L73.4 -5.8 Q78.1 -11.15 82.45 -10.3 86.8 -9.45 89.25 -7.4 91.2 -5.85 93.05 -3.3 L94.9 -0.6 95.1 -0.15 95.45 0.5 95.95 1.4 98.4 6.6 98.6 7.25 99.4 9.2 99.35 9.55 98.3 13.35 97.8 16.75 97.6 16.8 Q92.55 17.25 77.05 15.05 L72.6 13.5 Q70.15 12.4 67.85 11.1 L66.6 10.4 M72.55 -51.8 L74.0 -52.1 76.55 -52.25 78.15 -51.15 77.6 -50.2 Q75.15 -44.75 74.6 -39.2 L93.75 -34.1 97.2 -33.9 Q100.05 -32.3 100.7 -30.3 102.65 -21.65 100.5 -16.85 97.15 -11.45 87.05 -14.2 L86.5 -14.35 86.55 -14.25 86.1 -14.45 84.8 -14.65 Q83.85 -14.75 79.5 -16.85 75.05 -18.9 71.65 -19.75 L67.95 -20.7 Q66.7 -21.45 65.8 -22.5 64.5 -24.1 63.95 -26.3 L63.85 -28.25 Q63.85 -31.05 64.5 -33.05 65.0 -34.7 65.9 -35.8 67.2 -37.4 67.8 -38.9 L68.05 -39.9 68.15 -40.05 68.25 -40.2 72.55 -51.8" fill="#d2c0b7" fill-rule="evenodd" stroke="none"/>
    <path d="M101.85 -48.4 L106.5 -45.65 Q103.9 -40.95 103.4 -35.6 103.0 -30.0 105.05 -27.35 L105.75 -24.75 Q107.75 -20.2 110.75 -23.1 L108.9 -18.6 Q106.55 -13.4 103.9 -9.35 101.95 -5.0 102.5 -0.6 L102.7 0.55 Q103.0 2.3 103.8 4.15 L106.05 7.7 107.0 10.0 108.2 13.35 108.3 13.6 102.7 15.6 97.8 16.75 98.3 13.35 99.35 9.55 99.4 9.2 98.6 7.25 98.4 6.6 95.95 1.4 95.45 0.5 95.1 -0.15 94.9 -0.6 93.05 -3.3 Q91.2 -5.85 89.25 -7.4 86.8 -9.45 82.45 -10.3 78.1 -11.15 73.4 -5.8 L73.35 -5.8 Q73.35 -8.75 72.45 -12.6 L71.6 -15.1 71.15 -17.4 Q68.7 -18.2 66.8 -20.15 L65.75 -21.4 65.55 -21.65 Q64.3 -23.7 63.95 -26.3 64.5 -24.1 65.8 -22.5 66.7 -21.45 67.95 -20.7 L71.65 -19.75 Q75.05 -18.9 79.5 -16.85 83.85 -14.75 84.8 -14.65 L86.1 -14.45 86.55 -14.25 86.5 -14.35 87.05 -14.2 Q97.15 -11.45 100.5 -16.85 102.65 -21.65 100.7 -30.3 100.05 -32.3 97.2 -33.9 L93.75 -34.1 96.35 -37.6 Q98.75 -41.2 100.55 -45.25 L101.8 -48.3 101.85 -48.4 M71.15 -17.4 L72.0 -17.15 72.6 -17.05 87.2 -11.25 Q89.7 -10.05 92.8 -10.05 98.15 -10.0 101.85 -13.7 105.75 -17.4 105.8 -22.75 L105.75 -24.75 105.8 -22.75 Q105.75 -17.4 101.85 -13.7 98.15 -10.0 92.8 -10.05 89.7 -10.05 87.2 -11.25 L72.6 -17.05 72.0 -17.15 71.15 -17.4" fill="#c5afa0" fill-rule="evenodd" stroke="none"/>
    <path d="M102.3 -65.85 L101.7 -64.95 101.4 -64.2 100.95 -63.0 100.65 -62.35 100.3 -61.85 99.9 -61.4 99.1 -60.9 98.95 -60.8 Q98.4 -60.4 97.55 -58.9 97.3 -54.05 98.15 -49.65 L98.25 -49.25 98.6 -49.2 99.65 -48.85 Q98.25 -46.1 96.2 -44.45 94.85 -51.6 93.8 -55.25 L91.5 -53.5 Q87.5 -50.7 82.85 -50.3 L80.7 -50.25 83.25 -51.7 Q88.05 -54.75 90.05 -58.05 91.65 -60.65 91.45 -63.4 L89.55 -69.0 93.3 -72.3 Q92.7 -58.15 94.5 -63.6 96.45 -69.7 98.1 -70.35 L98.5 -70.5 97.2 -69.25 Q97.4 -66.55 98.3 -66.35 98.85 -67.5 99.9 -68.2 101.8 -67.75 102.05 -66.8 L102.1 -68.2 Q102.4 -67.0 102.3 -65.85 M99.15 -62.7 Q99.25 -63.85 98.75 -64.25 L97.8 -64.4 97.8 -64.75 98.3 -66.35 97.8 -64.75 97.8 -64.4 98.75 -64.25 Q99.25 -63.85 99.15 -62.7 M93.8 -55.25 Q96.6 -57.45 97.35 -58.7 L97.55 -58.9 97.35 -58.7 Q96.6 -57.45 93.8 -55.25 M102.05 -66.8 L101.7 -64.95 102.05 -66.8" fill="#ffd0ae" fill-rule="evenodd" stroke="none"/>
    <path d="M136.7 22.45 L136.85 22.9 Q138.2 25.9 139.95 28.5 L138.35 29.55 Q136.8 30.6 135.2 31.3 L135.15 31.3 Q133.25 32.1 131.25 32.35 L127.3 31.1 127.25 31.1 124.05 29.65 122.1 28.45 Q123.0 26.55 123.3 23.8 133.8 26.75 136.7 22.45 M60.05 8.35 Q60.2 10.75 60.95 12.4 L59.05 13.5 55.7 14.9 51.7 16.15 47.75 15.4 Q46.15 14.85 44.65 14.0 L43.2 13.1 46.5 8.15 46.75 7.7 Q49.4 11.3 60.05 8.35" fill="#ded1cb" fill-rule="evenodd" stroke="none"/>
    <path d="M136.2 43.85 L136.55 45.9 136.4 46.65 133.95 57.35 132.7 58.35 132.5 59.5 131.55 59.15 Q129.25 57.8 129.3 52.8 L128.15 51.1 128.1 50.9 126.8 49.15 123.45 45.6 126.5 39.7 129.5 39.35 131.0 46.1 Q133.65 49.95 136.4 46.65 L136.2 43.85 M52.65 23.4 Q54.35 23.2 55.95 23.95 L57.45 29.4 53.75 32.25 52.25 33.75 52.15 33.9 50.75 35.35 Q49.75 39.75 47.4 40.75 L46.5 41.05 46.55 40.0 45.65 39.0 45.65 28.6 45.9 28.05 45.8 28.8 Q48.35 31.55 51.25 28.1 L52.65 23.4" fill="#885b51" fill-rule="evenodd" stroke="none"/>
    <path d="M131.55 59.15 L124.1 56.25 124.3 53.95 121.9 48.6 123.45 45.6 126.8 49.15 128.1 50.9 127.95 50.95 128.15 51.1 129.3 52.8 Q129.25 57.8 131.55 59.15 M57.45 29.4 L58.15 32.2 54.95 36.7 54.65 38.8 47.4 40.75 Q49.75 39.75 50.75 35.35 L52.15 33.9 52.3 33.8 52.25 33.75 53.75 32.25 57.45 29.4 M124.3 53.95 L127.95 50.95 124.3 53.95 M54.95 36.7 L52.3 33.8 54.95 36.7" fill="#6d4641" fill-rule="evenodd" stroke="none"/>
    <path d="M108.3 13.6 L108.35 13.6 Q111.05 16.15 110.4 20.2 L110.35 20.4 106.05 21.6 95.25 23.8 95.35 23.1 Q95.65 21.55 96.25 19.95 96.8 18.4 97.6 16.8 L97.8 16.75 102.7 15.6 108.3 13.6" fill="#a8866f" fill-rule="evenodd" stroke="none"/>
    <path d="M110.4 20.2 Q116.3 36.4 120.3 52.75 L123.05 64.3 112.35 64.3 111.45 52.75 Q109.65 38.05 106.05 21.6 L110.35 20.4 110.4 20.2" fill="#c7b2a4" fill-rule="evenodd" stroke="none"/>
    <path d="M66.65 16.2 L65.65 15.05 Q65.0 12.9 65.55 11.1 65.7 10.5 66.0 10.0 L66.6 10.4 67.85 11.1 Q70.15 12.4 72.6 13.5 L77.05 15.05 Q92.55 17.25 97.6 16.8 96.8 18.4 96.25 19.95 95.65 21.55 95.35 23.1 L95.25 23.8 86.7 24.4 81.15 23.65 76.95 22.65 72.6 20.75 Q69.3 18.9 66.65 16.2" fill="#c0ab98" fill-rule="evenodd" stroke="none"/>
    <path d="M128.15 51.1 L127.95 50.95 128.1 50.9 128.15 51.1 M52.15 33.9 L52.25 33.75 52.3 33.8 52.15 33.9" fill="#eebf5a" fill-rule="evenodd" stroke="none"/>
    <path d="M91.8 -103.2 L90.6 -103.35 Q88.75 -103.65 87.15 -103.3 86.5 -104.95 85.15 -105.7 83.45 -106.6 81.65 -105.65 79.85 -104.75 79.05 -102.55 78.5 -101.1 78.65 -99.6 77.85 -100.8 76.7 -101.45 74.5 -102.65 72.15 -101.4 69.85 -100.25 68.75 -97.35 67.8 -94.75 68.35 -92.1 67.3 -90.9 66.7 -89.1 65.45 -85.75 66.3 -82.35 66.65 -81.2 67.15 -80.25 L67.55 -79.65 M106.7 -93.05 Q107.45 -94.0 107.75 -95.35 108.2 -97.55 107.25 -99.45 106.35 -101.5 104.55 -102.2 102.75 -102.95 101.2 -101.95 L100.65 -101.45 100.05 -103.2 Q99.15 -105.2 97.4 -105.9 95.65 -106.6 94.1 -105.55 92.85 -104.7 92.35 -103.05 L91.8 -103.2 Q92.8 -105.3 94.6 -106.65 L95.75 -107.45 95.85 -107.45 95.9 -107.55 Q95.85 -108.8 96.35 -110.15 97.1 -112.3 98.75 -113.55 100.45 -114.9 102.15 -114.65 103.8 -114.4 104.45 -112.7 L104.55 -111.95 105.8 -113.25 Q107.5 -114.6 109.1 -114.3 110.75 -114.1 111.35 -112.4 111.85 -111.05 111.35 -109.35 113.55 -108.75 114.8 -106.85 116.3 -107.75 117.75 -107.55 119.4 -107.3 120.0 -105.5 120.6 -103.7 119.8 -101.5 119.25 -100.05 118.25 -98.95 L120.65 -99.3 Q122.85 -98.95 123.7 -96.6 124.5 -94.35 123.4 -91.5 122.4 -88.85 120.45 -87.05 L120.3 -86.1 119.7 -83.7 118.65 -81.5 Q117.5 -79.65 115.75 -78.25 L113.9 -77.1 113.25 -76.9 110.45 -76.65 Q109.25 -76.8 108.45 -77.4 107.45 -68.0 101.55 -63.2 102.2 -64.5 102.3 -65.85 M70.5 -77.35 L69.8 -77.7 Q68.45 -78.45 67.55 -79.65 M90.6 -76.0 L83.6 -76.9 Q80.45 -78.6 78.85 -82.15 77.6 -79.0 75.0 -77.65 72.7 -76.5 70.5 -77.35 M93.3 -72.3 L93.5 -76.1 90.6 -76.05 M106.7 -93.05 L106.7 -92.95 106.75 -92.85 107.5 -91.6 Q108.5 -89.4 108.3 -87.15 108.9 -81.8 108.45 -77.4 M98.5 -70.5 L98.1 -70.35 Q96.45 -69.7 94.5 -63.6 92.7 -58.15 93.3 -72.3 M102.1 -68.2 L101.1 -70.5 100.1 -70.65 98.5 -70.5 M102.1 -68.2 Q102.4 -67.0 102.3 -65.85" fill="none" stroke="#baba01" stroke-linecap="round" stroke-linejoin="round" stroke-width="0.05"/>
    <path d="M102.3 -65.85 L101.7 -64.95 101.4 -64.2 100.95 -63.0 100.65 -62.35 100.3 -61.85 99.9 -61.4 99.1 -60.9 98.95 -60.8 Q98.4 -60.4 97.55 -58.9 97.3 -54.05 98.15 -49.65 L98.25 -49.25 98.6 -49.2 99.65 -48.85 M135.15 31.3 L136.2 43.85 M129.5 39.35 L127.25 31.1 M55.7 14.9 Q54.05 19.0 52.65 23.4 L51.25 28.1 M45.9 28.05 L47.75 15.4 M76.55 -52.25 Q75.0 -53.65 73.85 -55.85 71.4 -60.7 70.7 -69.05 L70.7 -73.2 Q70.3 -75.8 70.4 -76.7 L70.5 -77.35 M74.65 -72.45 L74.55 -73.2 Q72.2 -76.05 71.1 -70.6 71.55 -69.25 72.35 -68.35 L72.4 -68.3 Q72.75 -67.55 73.3 -67.45 L74.15 -67.0 74.35 -68.1 74.7 -70.25 74.8 -69.25 74.9 -66.95 74.7 -65.3 Q74.4 -64.05 73.8 -63.2 M74.65 -72.45 L74.7 -70.25 M75.65 -61.7 Q73.55 -61.05 73.8 -63.2 M80.9 -68.85 Q80.2 -67.1 80.0 -64.75 L81.5 -64.2 83.8 -63.8 M84.45 -69.75 Q83.45 -70.5 82.0 -70.6 M81.3 -69.75 L80.9 -68.85 M78.15 -51.15 L76.55 -52.25 M78.15 -51.15 Q79.2 -50.55 80.45 -50.3 L80.7 -50.25 82.85 -50.3 82.1 -48.6 M98.5 -70.5 L97.2 -69.25 M98.3 -66.35 Q98.85 -67.5 99.9 -68.2 M102.05 -66.8 L102.1 -68.2 M98.3 -66.35 L97.8 -64.75 97.8 -64.4 98.75 -64.25 Q99.25 -63.85 99.15 -62.7 M81.3 -69.75 L81.75 -70.6 82.0 -70.6 M84.45 -69.75 Q86.4 -68.3 86.6 -64.3 85.35 -63.75 83.8 -63.8 M93.8 -55.25 L91.5 -53.5 Q87.5 -50.7 82.85 -50.3 M97.55 -58.9 L97.35 -58.7 Q96.6 -57.45 93.8 -55.25 M101.7 -64.95 L102.05 -66.8 M74.55 -59.2 Q76.7 -56.85 81.4 -56.5 M129.5 39.35 L131.0 46.1 M136.4 46.65 L136.2 43.85 M45.8 28.8 L45.9 28.05" fill="none" stroke="#d7995e" stroke-linecap="round" stroke-linejoin="round" stroke-width="0.05"/>
    <path d="M99.65 -48.85 L100.0 -49.5 101.85 -48.4 M106.55 -45.6 L107.15 -45.3 110.35 -43.5 111.5 -42.75 114.2 -40.95 114.8 -40.5 115.25 -40.2 115.25 -39.9 Q118.4 -37.85 120.45 -33.75 121.8 -30.85 122.05 -28.15 L122.0 -25.65 122.05 -25.6 121.95 -24.05 129.05 0.75 131.0 7.25 M130.9 7.4 Q132.35 10.05 134.0 14.8 L134.0 14.95 Q135.1 19.0 136.7 22.45 L136.85 22.9 Q138.2 25.9 139.95 28.5 L138.35 29.55 Q136.8 30.6 135.2 31.3 L135.15 31.3 M127.25 31.1 L124.05 29.65 122.1 28.45 Q123.0 26.55 123.3 23.8 L123.5 19.0 Q123.0 15.0 123.75 10.8 L124.05 9.15 124.05 9.1 115.95 -12.85 112.6 -21.8 112.55 -21.85 110.85 -23.4 110.75 -23.1 M65.55 -21.65 L61.85 -10.15 60.15 -4.3 60.3 -2.9 Q60.75 0.75 60.05 4.25 59.85 6.5 60.05 8.35 60.2 10.75 60.95 12.4 L59.05 13.5 55.7 14.9 M47.75 15.4 Q46.15 14.85 44.65 14.0 L43.2 13.1 46.5 8.15 46.75 7.7 Q48.45 4.65 49.85 1.1 L49.85 0.95 Q51.3 -2.4 52.65 -4.55 L53.25 -5.55 59.45 -30.05 60.3 -33.55 Q59.95 -34.2 59.7 -36.7 59.4 -39.35 61.15 -43.45 62.8 -47.5 65.65 -49.7 L66.45 -50.2 Q67.8 -51.05 69.05 -51.15 M93.75 -34.1 L74.6 -39.2 Q75.15 -44.75 77.6 -50.2 L78.15 -51.15 M93.75 -34.1 L96.35 -37.6 Q98.75 -41.2 100.55 -45.25 L101.8 -48.3 101.85 -48.4 M60.3 -33.55 L60.35 -33.45 61.1 -32.2 M60.15 -4.3 L59.7 -2.85 M96.2 -44.45 Q98.25 -46.1 99.65 -48.85 M115.25 -39.9 L115.05 -40.05 Q111.8 -42.2 109.2 -40.9 107.7 -40.2 107.0 -38.65 L106.65 -37.95 M110.85 -23.4 Q109.6 -24.85 108.55 -26.8 L108.5 -26.9 M80.45 -50.3 Q80.4 -45.05 83.1 -42.6 91.4 -40.65 96.2 -44.45 M127.25 31.1 L127.3 31.1 131.25 32.35 Q133.25 32.1 135.15 31.3 M47.75 15.4 L51.7 16.15 55.7 14.9" fill="none" stroke="#676767" stroke-linecap="round" stroke-linejoin="round" stroke-width="0.05"/>
    <path d="M101.85 -48.4 L106.5 -45.65 106.55 -45.6 M110.75 -23.1 L108.9 -18.6 Q106.55 -13.4 103.9 -9.35 101.95 -5.0 102.5 -0.6 L102.7 0.55 Q103.0 2.3 103.8 4.15 L106.05 7.7 107.0 10.0 108.2 13.35 108.3 13.6 108.35 13.6 Q111.05 16.15 110.4 20.2 L110.35 20.4 106.05 21.6 95.25 23.8 86.7 24.4 81.15 23.65 76.95 22.65 72.6 20.75 Q69.3 18.9 66.65 16.2 L65.65 15.05 Q65.0 12.9 65.55 11.1 65.7 10.5 66.0 10.0 L66.6 10.4 Q67.9 5.05 71.2 0.55 L71.9 -0.35 M72.45 -12.6 L71.6 -15.1 71.15 -17.4 Q68.7 -18.2 66.8 -20.15 L65.75 -21.4 65.55 -21.65 Q64.3 -23.7 63.95 -26.3 M74.0 -52.1 L76.55 -52.25 M68.15 -40.05 L68.15 -40.2 Q68.45 -42.2 68.1 -43.0 M72.55 -51.8 L68.25 -40.2 68.15 -40.05 68.05 -39.9 67.8 -38.9 Q67.2 -37.4 65.9 -35.8 65.0 -34.7 64.5 -33.05 63.85 -31.05 63.85 -28.25 L63.95 -26.3 M105.75 -24.75 L105.8 -22.75 Q105.75 -17.4 101.85 -13.7 98.15 -10.0 92.8 -10.05 89.7 -10.05 87.2 -11.25 L72.6 -17.05 72.0 -17.15 71.15 -17.4 M97.8 16.75 L102.7 15.6 108.3 13.6 M105.75 -24.75 L105.05 -27.35 Q103.0 -30.0 103.4 -35.6 103.9 -40.95 106.5 -45.65 M110.75 -23.1 Q107.75 -20.2 105.75 -24.75 M97.6 16.8 Q92.55 17.25 77.05 15.05 L72.6 13.5 Q70.15 12.4 67.85 11.1 L66.6 10.4 M97.6 16.8 L97.8 16.75" fill="none" stroke="#594337" stroke-linecap="round" stroke-linejoin="round" stroke-width="0.05"/>
    <path d="M69.05 -51.25 L72.55 -51.8 74.0 -52.1" fill="none" stroke="#305054" stroke-linecap="round" stroke-linejoin="round" stroke-width="0.05"/>
    <path d="M70.6 -75.45 Q74.0 -77.65 76.0 -73.7 73.05 -76.05 70.6 -75.45 M89.25 -72.05 Q83.95 -75.65 79.35 -72.75 85.15 -73.75 89.25 -72.05" fill="none" stroke="#baba01" stroke-linecap="round" stroke-linejoin="round" stroke-width="0.05"/>
    <path d="M110.4 20.2 Q116.3 36.4 120.3 52.75 L123.05 64.3 M54.9 64.3 L56.65 52.75 Q58.45 38.95 61.7 25.95 63.15 20.7 64.75 15.5 M71.9 -0.35 L72.05 -0.6 72.3 -0.9 Q73.25 -2.9 73.35 -5.8 73.35 -8.75 72.45 -12.6" fill="none" stroke="#685942" stroke-linecap="round" stroke-linejoin="round" stroke-width="0.05"/>
    <path d="M136.2 43.85 L136.55 45.9 136.4 46.65 133.95 57.35 132.7 58.35 132.5 59.5 131.55 59.15 124.1 56.25 124.3 53.95 121.9 48.6 123.45 45.6 126.5 39.7 129.5 39.35 M52.65 23.4 Q54.35 23.2 55.95 23.95 L57.45 29.4 58.15 32.2 54.95 36.7 54.65 38.8 47.4 40.75 46.5 41.05 46.55 40.0 45.65 39.0 45.65 28.6 45.9 28.05 M127.95 50.95 L124.3 53.95 M128.1 50.9 L128.15 51.1 M127.95 50.95 L128.1 50.9 M52.15 33.9 L52.25 33.75 M52.3 33.8 L52.25 33.75 M52.3 33.8 L54.95 36.7" fill="none" stroke="#251816" stroke-linecap="round" stroke-linejoin="round" stroke-width="0.05"/>
  </g>
</svg>
