<?xml version="1.0" encoding="UTF-8" standalone="no"?>
<svg xmlns:xlink="http://www.w3.org/1999/xlink" height="166.45px" width="89.35px" xmlns="http://www.w3.org/2000/svg">
  <g transform="matrix(1, 0, 0, 1, -49.95, 107.9)">
    <path d="M72.3 -83.5 L72.3 -87.75 Q72.6 -92.15 72.85 -94.05 73.15 -95.95 73.65 -96.8 L74.3 -98.5 Q76.4 -101.3 75.9 -102.05 78.9 -101.65 80.6 -98.5 81.8 -103.75 86.45 -107.9 88.15 -104.35 91.05 -103.35 93.45 -106.05 97.8 -107.8 97.25 -105.0 98.75 -101.65 104.95 -104.05 107.9 -104.9 107.7 -101.15 106.5 -97.9 108.75 -98.4 111.15 -100.2 111.0 -96.4 111.15 -94.15 L111.6 -88.6 111.8 -86.75 111.9 -85.6 Q112.35 -81.7 112.1 -79.75 L111.95 -78.85 111.85 -78.85 111.8 -80.15 Q111.5 -82.8 111.35 -85.75 111.15 -88.3 109.95 -90.35 L108.6 -89.95 107.85 -89.7 106.6 -89.45 Q107.25 -91.15 107.25 -92.35 L107.25 -92.4 Q107.15 -94.9 104.7 -95.55 L104.45 -95.65 Q102.5 -94.6 98.9 -93.2 97.4 -96.55 95.75 -98.6 93.55 -97.6 91.2 -94.9 88.6 -95.85 86.3 -97.5 81.95 -95.65 80.75 -90.05 L78.15 -94.15 77.45 -95.05 Q77.35 -93.35 77.0 -92.95 L76.9 -92.8 75.6 -91.4 74.3 -88.95 Q73.35 -86.7 72.85 -84.05 L72.75 -83.85 72.3 -83.2 72.3 -83.5" fill="#b98e8e" fill-rule="evenodd" stroke="none"/>
    <path d="M111.95 -78.85 L111.9 -78.3 111.65 -77.2 111.65 -77.1 Q110.05 -70.05 107.0 -66.55 L106.5 -66.05 105.2 -65.05 105.8 -67.35 Q106.55 -70.65 105.6 -72.75 103.75 -74.5 101.7 -72.75 L100.8 -71.85 100.8 -71.8 100.5 -71.45 100.4 -71.15 99.95 -69.55 Q98.75 -64.4 99.5 -60.0 L99.65 -58.75 Q93.85 -51.45 88.7 -54.45 L88.6 -54.5 76.55 -61.7 74.55 -60.55 74.85 -58.9 74.7 -58.15 74.5 -58.35 74.25 -58.5 Q70.65 -60.95 73.5 -65.3 L76.25 -63.6 76.3 -63.55 Q76.35 -62.9 78.15 -63.3 86.85 -65.1 89.75 -59.85 96.15 -62.05 96.25 -66.75 96.3 -69.05 94.9 -71.9 L95.4 -72.9 Q103.0 -89.25 79.15 -82.0 77.65 -83.8 76.45 -84.55 L73.5 -84.6 72.85 -84.05 Q73.35 -86.7 74.3 -88.95 L75.6 -91.4 76.9 -92.8 77.0 -92.95 Q77.35 -93.35 77.45 -95.05 L78.15 -94.15 80.75 -90.05 Q81.95 -95.65 86.3 -97.5 88.6 -95.85 91.2 -94.9 93.55 -97.6 95.75 -98.6 97.4 -96.55 98.9 -93.2 102.5 -94.6 104.45 -95.65 L104.7 -95.55 Q107.15 -94.9 107.25 -92.4 L107.25 -92.35 Q107.25 -91.15 106.6 -89.45 L107.85 -89.7 108.6 -89.95 109.95 -90.35 Q111.15 -88.3 111.35 -85.75 111.5 -82.8 111.8 -80.15 L111.85 -78.85 111.95 -78.85 M77.35 -76.2 Q75.2 -80.1 72.5 -80.55 76.7 -81.35 77.35 -76.2 M82.65 -74.25 Q86.65 -78.9 91.8 -75.3 87.85 -76.65 82.65 -74.25" fill="#9b5e5e" fill-rule="evenodd" stroke="none"/>
    <path d="M116.0 -42.75 Q118.75 -42.8 121.85 -40.8 126.85 -37.7 130.05 -31.4 131.85 -27.85 132.55 -24.45 L132.9 -22.35 132.95 -20.65 Q132.5 -19.1 131.4 -17.95 L130.25 -17.0 130.0 -16.9 129.1 -16.45 128.6 -16.15 Q126.85 -15.9 125.1 -16.2 123.2 -16.55 121.35 -17.55 L120.8 -17.9 Q117.5 -20.05 114.5 -24.55 111.7 -28.5 109.2 -34.35 L109.1 -34.75 Q109.45 -40.2 113.1 -41.95 L114.5 -42.55 116.0 -42.75 M136.35 -0.25 L137.5 3.95 137.4 4.05 137.95 4.55 138.5 6.65 139.3 12.15 138.3 14.75 Q132.0 14.1 127.85 12.5 L126.45 11.9 126.4 11.9 125.7 11.6 125.6 11.45 122.7 9.05 Q123.15 7.75 123.75 6.65 124.7 4.8 125.95 3.55 L126.35 4.6 Q126.8 3.0 127.95 1.95 130.45 -0.5 136.35 -0.25 M50.8 -2.75 L50.9 -5.5 Q52.55 -8.35 53.9 -10.25 L54.05 -10.4 54.45 -10.95 55.15 -14.65 Q60.35 -15.25 63.0 -13.3 61.5 -7.3 61.5 -4.05 61.45 -2.3 61.8 -0.45 L61.15 -0.5 Q56.7 -0.8 50.8 -2.75 M57.05 -32.3 L57.0 -33.85 57.05 -35.8 Q57.35 -38.85 58.7 -42.15 61.0 -48.0 65.25 -51.1 67.35 -52.7 69.35 -53.05 L69.55 -53.35 69.75 -53.65 69.95 -53.65 70.1 -53.7 70.65 -53.85 70.2 -53.15 Q69.2 -51.65 68.4 -49.15 66.4 -42.8 66.45 -33.9 66.45 -31.65 66.6 -29.55 66.7 -27.65 66.95 -25.9 L66.5 -25.25 66.35 -25.55 64.85 -28.85 64.6 -28.8 61.45 -28.6 60.95 -28.8 60.1 -29.15 59.85 -29.25 Q58.8 -29.85 58.05 -30.6 57.4 -31.35 57.05 -32.3 M73.5 -65.3 L73.4 -65.6 Q72.45 -68.85 72.05 -73.8 71.6 -78.8 71.75 -79.65 71.85 -81.65 72.3 -83.5 L72.3 -83.2 72.75 -83.85 72.85 -84.05 73.5 -84.6 76.45 -84.55 Q77.65 -83.8 79.15 -82.0 103.0 -89.25 95.4 -72.9 L94.65 -72.7 96.25 -66.75 Q96.15 -62.05 89.75 -59.85 86.85 -65.1 78.15 -63.3 76.35 -62.9 76.3 -63.55 L77.8 -63.6 Q77.05 -63.95 76.45 -64.4 L75.8 -65.15 Q75.75 -64.75 75.85 -64.4 75.9 -63.85 76.25 -63.6 L73.5 -65.3 M74.45 -70.3 L76.05 -69.25 Q76.4 -71.05 76.4 -72.8 L76.25 -76.0 Q73.75 -78.9 72.7 -73.6 L72.65 -73.2 72.7 -73.05 Q73.05 -72.0 73.7 -71.15 74.0 -70.5 74.45 -70.3 M77.35 -76.2 Q76.7 -81.35 72.5 -80.55 75.2 -80.1 77.35 -76.2 M76.4 -72.8 Q77.0 -69.8 76.75 -67.8 76.5 -66.2 75.8 -65.15 76.5 -66.2 76.75 -67.8 77.0 -69.8 76.4 -72.8 M83.55 -56.35 L80.9 -56.35 Q77.45 -56.55 76.8 -58.05 77.45 -56.55 80.9 -56.35 L83.55 -56.35 M75.0 -57.7 L74.85 -58.9 74.55 -60.55 76.55 -61.7 88.6 -54.5 88.7 -54.45 Q84.05 -50.85 77.3 -51.15 75.85 -52.55 75.05 -57.45 L75.0 -57.7 M63.6 -39.25 Q62.95 -34.05 64.85 -28.85 62.95 -34.05 63.6 -39.25 M82.65 -74.25 Q87.85 -76.65 91.8 -75.3 86.65 -78.9 82.65 -74.25 M100.4 -71.15 L100.65 -71.6 100.8 -71.8 100.8 -71.85 101.7 -72.75 Q102.4 -73.3 103.35 -73.45 105.05 -73.85 105.65 -72.1 106.2 -70.4 105.95 -68.7 L105.75 -67.6 Q105.4 -69.55 103.35 -70.35 L102.45 -69.4 102.05 -68.75 Q100.3 -68.5 99.95 -69.55 L100.4 -71.15 M85.05 -66.05 Q87.6 -65.55 89.5 -66.45 89.0 -73.05 84.05 -73.2 82.65 -70.75 82.35 -66.9 83.65 -66.35 84.85 -66.1 L85.05 -66.05 M127.6 8.25 L126.35 4.6 127.6 8.25" fill="#f2ccb0" fill-rule="evenodd" stroke="none"/>
    <path d="M74.45 -74.75 L74.6 -75.1 75.15 -75.45 75.75 -75.1 75.9 -74.5 75.85 -74.05 75.75 -73.9 75.65 -73.75 Q75.4 -73.45 75.1 -73.45 74.75 -73.45 74.5 -73.75 74.25 -74.05 74.3 -74.5 L74.45 -74.75 M74.45 -70.3 L74.7 -70.25 Q75.35 -70.3 75.85 -71.15 76.3 -72.05 76.35 -73.25 76.4 -74.45 76.0 -75.3 75.6 -76.2 75.0 -76.2 74.35 -76.2 73.85 -75.3 73.4 -74.45 73.35 -73.25 73.3 -72.05 73.7 -71.15 73.05 -72.0 72.7 -73.05 L72.7 -73.6 Q73.75 -78.9 76.25 -76.0 L76.4 -72.8 Q76.4 -71.05 76.05 -69.25 L74.45 -70.3 M85.05 -66.05 L85.25 -66.05 Q86.05 -66.0 86.7 -66.95 87.25 -67.95 87.3 -69.35 87.4 -70.75 86.9 -71.7 86.35 -72.7 85.5 -72.7 84.7 -72.7 84.1 -71.7 83.5 -70.75 83.45 -69.35 83.35 -67.95 83.9 -66.95 84.25 -66.25 84.85 -66.1 83.65 -66.35 82.35 -66.9 82.65 -70.75 84.05 -73.2 89.0 -73.05 89.5 -66.45 87.6 -65.55 85.05 -66.05 M84.8 -71.1 L85.0 -71.4 Q85.3 -71.7 85.75 -71.65 L86.45 -71.4 86.8 -70.65 86.65 -70.15 86.4 -69.85 85.7 -69.6 Q85.25 -69.6 84.95 -69.85 84.6 -70.2 84.6 -70.65 L84.8 -71.1 M93.45 -2.85 L93.5 -2.8 93.35 -2.85 93.45 -2.85" fill="#ffffff" fill-rule="evenodd" stroke="none"/>
    <path d="M75.85 -74.05 L75.9 -74.5 75.75 -75.1 75.15 -75.45 74.6 -75.1 74.45 -74.75 74.2 -74.55 73.85 -73.3 Q73.8 -72.55 74.1 -72.0 74.35 -71.45 74.75 -71.45 75.2 -71.45 75.5 -72.0 L75.85 -73.25 75.85 -74.05 M73.7 -71.15 Q73.3 -72.05 73.35 -73.25 73.4 -74.45 73.85 -75.3 74.35 -76.2 75.0 -76.2 75.6 -76.2 76.0 -75.3 76.4 -74.45 76.35 -73.25 76.3 -72.05 75.85 -71.15 75.35 -70.3 74.7 -70.25 L74.45 -70.3 Q74.0 -70.5 73.7 -71.15 M84.85 -66.1 Q84.25 -66.25 83.9 -66.95 83.35 -67.95 83.45 -69.35 83.5 -70.75 84.1 -71.7 84.7 -72.7 85.5 -72.7 86.35 -72.7 86.9 -71.7 87.4 -70.75 87.3 -69.35 87.25 -67.95 86.7 -66.95 86.05 -66.0 85.25 -66.05 L85.05 -66.05 84.85 -66.1 M86.65 -70.15 L86.8 -70.65 86.45 -71.4 85.75 -71.65 Q85.3 -71.7 85.0 -71.4 L84.8 -71.1 84.5 -70.75 Q84.1 -70.2 84.05 -69.4 84.0 -68.55 84.4 -67.9 84.75 -67.3 85.3 -67.35 L86.25 -67.9 Q86.65 -68.5 86.7 -69.35 L86.65 -70.15" fill="#0099ff" fill-rule="evenodd" stroke="none"/>
    <path d="M74.45 -74.75 L74.3 -74.5 Q74.25 -74.05 74.5 -73.75 74.75 -73.45 75.1 -73.45 75.4 -73.45 75.65 -73.75 L75.75 -73.9 75.85 -74.05 75.85 -73.25 75.5 -72.0 Q75.2 -71.45 74.75 -71.45 74.35 -71.45 74.1 -72.0 73.8 -72.55 73.85 -73.3 L74.2 -74.55 74.45 -74.75 M84.8 -71.1 L84.6 -70.65 Q84.6 -70.2 84.95 -69.85 85.25 -69.6 85.7 -69.6 L86.4 -69.85 86.65 -70.15 86.7 -69.35 Q86.65 -68.5 86.25 -67.9 L85.3 -67.35 Q84.75 -67.3 84.4 -67.9 84.0 -68.55 84.05 -69.4 84.1 -70.2 84.5 -70.75 L84.8 -71.1" fill="#000000" fill-rule="evenodd" stroke="none"/>
    <path d="M76.3 -63.55 L76.25 -63.6 Q75.9 -63.85 75.85 -64.4 75.75 -64.75 75.8 -65.15 L76.45 -64.4 Q77.05 -63.95 77.8 -63.6 L76.3 -63.55" fill="#ffd0ae" fill-rule="evenodd" stroke="none"/>
    <path d="M108.3 -58.65 Q111.1 -52.15 109.85 -46.95 L109.65 -46.8 109.5 -46.7 Q106.85 -44.9 103.75 -43.5 L103.75 -43.45 103.8 -43.35 103.8 -43.45 108.8 -41.25 108.6 -40.4 Q106.95 -35.2 106.95 -28.85 106.95 -19.3 110.7 -12.55 L111.45 -11.35 Q112.0 -10.45 112.7 -9.7 110.25 -3.85 106.6 1.25 L107.9 10.3 Q106.75 12.95 105.25 14.3 L104.7 14.7 103.75 14.8 103.5 14.9 96.3 15.2 94.95 16.1 Q89.6 19.15 83.25 19.05 L79.4 18.8 Q73.5 17.8 68.9 13.7 L68.4 13.25 67.85 12.7 67.9 13.05 66.45 10.65 65.1 8.25 63.6 5.35 63.7 6.3 Q64.25 12.8 63.3 20.85 L62.15 28.2 Q63.3 25.3 64.35 20.9 66.3 21.1 68.15 21.9 L67.75 26.25 67.25 32.45 65.55 32.35 63.25 33.95 63.0 34.2 60.95 35.95 54.95 42.8 54.8 42.8 54.7 41.5 53.3 40.15 52.7 29.6 52.6 29.55 Q50.95 18.15 50.65 12.15 L50.0 2.35 Q49.75 -1.15 50.6 -2.25 L50.7 -2.8 50.8 -2.75 Q56.7 -0.8 61.15 -0.5 L61.8 -0.45 Q61.45 -2.3 61.5 -4.05 61.5 -7.3 63.0 -13.3 64.25 -18.3 66.5 -25.25 L66.95 -25.9 Q66.7 -27.65 66.6 -29.55 66.45 -31.65 66.45 -33.9 66.4 -42.8 68.4 -49.15 69.2 -51.65 70.2 -53.15 L70.65 -53.85 70.85 -53.9 73.1 -54.25 73.35 -54.3 73.6 -54.35 73.6 -54.3 73.65 -54.35 73.7 -54.35 73.25 -52.65 Q71.3 -44.7 74.9 -39.7 75.7 -38.6 76.8 -37.6 L80.3 -35.2 80.85 -35.0 Q93.5 -32.05 103.8 -43.35 93.5 -32.05 80.85 -35.0 L80.3 -35.2 76.8 -37.6 Q75.7 -38.6 74.9 -39.7 71.3 -44.7 73.25 -52.65 L73.7 -54.35 73.7 -54.5 73.75 -54.55 73.5 -55.5 Q73.35 -57.05 74.25 -58.5 L74.5 -58.35 75.0 -57.7 75.05 -57.45 Q75.85 -52.55 77.3 -51.15 88.75 -47.15 94.2 -51.9 L97.85 -55.45 101.6 -55.9 102.05 -55.95 103.4 -56.2 Q108.35 -57.2 108.3 -58.65 M138.3 14.75 L138.35 14.75 138.2 15.3 Q138.45 16.65 136.8 19.7 L132.25 28.35 Q129.8 32.95 124.8 40.9 L124.8 41.0 123.5 43.55 118.6 52.85 116.8 53.5 116.75 53.55 116.1 54.65 116.0 54.6 113.4 45.85 112.2 43.4 112.1 43.15 110.65 40.65 104.4 38.15 105.15 37.4 104.4 38.15 105.0 40.0 Q104.35 48.85 104.05 58.55 L68.9 58.55 68.9 26.1 68.9 17.5 68.9 15.35 71.25 17.3 Q74.6 19.8 80.1 21.45 L85.7 22.8 89.15 23.05 Q99.25 23.8 106.6 21.7 L105.2 36.65 105.15 37.4 105.8 36.8 112.5 30.1 113.35 30.15 116.05 30.65 Q115.25 35.1 115.1 38.2 116.05 34.4 117.15 31.0 119.55 23.25 122.8 17.65 124.4 14.8 126.2 12.55 L126.4 11.9 126.45 11.9 127.85 12.5 Q132.0 14.1 138.3 14.75 M99.4 -47.75 Q85.95 -42.2 79.55 -43.9 78.5 -44.15 77.7 -44.6 L76.95 -45.05 Q73.85 -47.25 73.7 -52.5 L73.7 -54.35 73.7 -52.5 Q73.85 -47.25 76.95 -45.05 L77.7 -44.6 Q78.5 -44.15 79.55 -43.9 85.95 -42.2 99.4 -47.75 M68.75 -27.9 L66.95 -25.9 68.75 -27.9 M93.45 -2.85 L93.35 -2.85 93.5 -2.8 93.45 -2.85 M124.8 40.9 Q124.0 42.1 123.5 43.55 124.0 42.1 124.8 40.9 M121.2 27.5 L121.2 27.45 121.1 27.5 121.2 27.5 M61.8 -0.45 Q62.3 2.35 63.6 5.35 62.3 2.35 61.8 -0.45 M61.05 15.85 L61.05 15.95 61.1 15.95 61.05 15.85" fill="#43446b" fill-rule="evenodd" stroke="none"/>
    <path d="M102.4 -61.3 L103.35 -61.15 Q108.35 -60.1 108.3 -58.65 108.35 -57.2 103.4 -56.2 L102.05 -55.95 101.6 -55.9 102.2 -61.35 102.4 -61.3 M109.5 -46.7 L110.9 -46.0 Q109.5 -43.25 108.8 -41.25 L103.8 -43.45 103.75 -43.5 Q106.85 -44.9 109.5 -46.7 M66.4 40.95 L54.95 42.8 60.95 35.95 63.0 34.2 63.25 33.95 65.55 32.35 67.25 32.45 66.8 37.35 66.4 40.95 M74.85 -58.9 L75.0 -57.7 74.5 -58.35 74.7 -58.15 74.85 -58.9 M112.7 -9.7 Q113.9 -8.15 117.15 -7.2 L114.45 -1.9 113.9 8.2 Q112.55 11.3 110.7 12.5 109.25 13.5 107.0 14.15 L104.7 14.7 105.25 14.3 Q106.75 12.95 107.9 10.3 L106.6 1.25 Q110.25 -3.85 112.7 -9.7 M116.05 30.65 Q117.4 23.65 120.45 13.2 120.6 10.15 122.45 8.9 L122.7 9.05 125.6 11.45 125.7 11.6 126.4 11.9 126.2 12.55 Q124.4 14.8 122.8 17.65 119.55 23.25 117.15 31.0 116.05 34.4 115.1 38.2 115.25 35.1 116.05 30.65 M104.4 38.15 L110.65 40.65 112.1 43.15 112.2 43.4 113.4 45.85 116.0 54.6 105.6 47.65 106.45 45.05 105.0 40.0 104.4 38.15 M112.1 43.15 L106.45 45.05 112.1 43.15 M62.15 28.2 L63.3 20.85 Q64.25 12.8 63.7 6.3 L63.6 5.35 65.1 8.25 66.45 10.65 64.35 20.9 Q63.3 25.3 62.15 28.2 M63.25 33.95 L66.8 37.35 63.25 33.95" fill="#2f2e4b" fill-rule="evenodd" stroke="none"/>
    <path d="M73.6 -54.35 L73.65 -54.35 73.6 -54.3 73.6 -54.35 M103.75 -43.45 L103.8 -43.45 103.8 -43.35 103.75 -43.45" fill="#c1a49d" fill-rule="evenodd" stroke="none"/>
    <path d="M105.8 -67.35 L105.65 -67.05 105.35 -66.2 105.05 -65.3 105.0 -65.05 104.85 -64.85 104.45 -64.0 102.6 -62.8 102.4 -61.3 102.2 -61.35 101.6 -55.9 97.85 -55.45 94.2 -51.9 Q88.75 -47.15 77.3 -51.15 84.05 -50.85 88.7 -54.45 93.85 -51.45 99.65 -58.75 L99.5 -60.0 Q98.75 -64.4 99.95 -69.55 100.3 -68.5 102.05 -68.75 L102.45 -69.4 103.35 -70.35 Q105.4 -69.55 105.75 -67.6 L105.95 -68.7 Q106.2 -70.4 105.65 -72.1 105.05 -73.85 103.35 -73.45 102.4 -73.3 101.7 -72.75 103.75 -74.5 105.6 -72.75 106.55 -70.65 105.8 -67.35 M110.9 -46.0 L111.3 -45.85 112.4 -45.1 116.0 -42.75 114.5 -42.55 113.1 -41.95 Q109.45 -40.2 109.1 -34.75 L109.05 -34.35 109.2 -34.35 Q111.7 -28.5 114.5 -24.55 117.5 -20.05 120.8 -17.9 L121.35 -17.55 Q123.2 -16.55 125.1 -16.2 126.85 -15.9 128.6 -16.15 L129.1 -16.45 130.0 -16.9 130.25 -17.0 131.4 -17.95 Q132.5 -19.1 132.95 -20.65 L132.9 -19.2 132.3 -16.0 132.25 -15.75 132.1 -15.4 136.35 -0.25 Q130.45 -0.5 127.95 1.95 126.8 3.0 126.35 4.6 L125.95 3.55 119.45 -13.2 119.4 -13.3 117.15 -7.2 Q113.9 -8.15 112.7 -9.7 112.0 -10.45 111.45 -11.35 L110.7 -12.55 Q106.95 -19.3 106.95 -28.85 106.95 -35.2 108.6 -40.4 L108.8 -41.25 Q109.5 -43.25 110.9 -46.0 M55.15 -14.65 L57.8 -28.95 57.3 -31.0 57.05 -32.3 Q57.4 -31.35 58.05 -30.6 58.8 -29.85 59.85 -29.25 L60.1 -29.15 60.95 -28.8 61.45 -28.6 64.6 -28.8 64.85 -28.85 66.35 -25.55 66.5 -25.25 Q64.25 -18.3 63.0 -13.3 60.35 -15.25 55.15 -14.65 M95.4 -72.9 L94.9 -71.9 Q96.3 -69.05 96.25 -66.75 L94.65 -72.7 95.4 -72.9 M58.55 -27.3 L58.2 -28.0 58.1 -28.2 57.8 -28.95 58.1 -28.2 58.2 -28.0 58.55 -27.3 M100.8 -71.8 L100.65 -71.6 100.4 -71.15 100.5 -71.45 100.8 -71.8 M102.6 -62.8 L101.95 -62.25 Q99.75 -60.15 99.7 -58.45 99.6 -57.45 97.85 -55.45 99.6 -57.45 99.7 -58.45 99.75 -60.15 101.95 -62.25 L102.6 -62.8 M101.45 -64.75 L101.45 -65.35 Q101.4 -66.2 101.5 -66.9 L101.6 -67.4 102.05 -68.75 101.6 -67.4 101.5 -66.9 Q102.4 -66.55 103.05 -65.55 102.4 -66.55 101.5 -66.9 101.4 -66.2 101.45 -65.35 L101.45 -64.75 M105.65 -67.05 L105.75 -67.6 105.65 -67.05 M112.1 -22.1 Q114.0 -18.45 116.45 -15.8 L117.8 -14.55 119.4 -13.3 117.8 -14.55 116.45 -15.8 Q114.0 -18.45 112.1 -22.1" fill="#eeba95" fill-rule="evenodd" stroke="none"/>
    <path d="M103.75 -43.5 L103.8 -43.45 103.75 -43.45 103.75 -43.5" fill="#b48f87" fill-rule="evenodd" stroke="none"/>
    <path d="M109.1 -34.75 L109.2 -34.35 109.05 -34.35 109.1 -34.75" fill="#f2f2f2" fill-rule="evenodd" stroke="none"/>
    <path d="M110.7 12.5 Q113.45 15.6 112.0 19.55 L111.45 19.85 111.05 21.45 112.3 25.4 113.35 30.15 112.5 30.1 105.8 36.8 105.2 36.65 106.6 21.7 Q99.25 23.8 89.15 23.05 L85.7 22.8 80.1 21.45 Q79.6 20.0 79.4 18.8 L83.25 19.05 Q89.6 19.15 94.95 16.1 L96.3 15.2 103.5 14.9 103.75 14.8 104.7 14.7 107.0 14.15 Q109.25 13.5 110.7 12.5 M111.05 21.45 L110.5 22.5 111.05 21.45 M111.45 19.85 Q109.2 20.95 106.6 21.7 109.2 20.95 111.45 19.85 M68.6 14.95 L68.9 15.35 68.9 17.5 68.6 14.95 M68.15 21.9 Q68.45 19.5 68.9 17.5 L68.9 26.1 67.75 26.25 68.15 21.9" fill="#c5afa0" fill-rule="evenodd" stroke="none"/>
    <path d="M121.2 27.5 L121.1 27.5 121.2 27.45 121.2 27.5 M61.05 15.85 L61.1 15.95 61.05 15.95 61.05 15.85" fill="#89a58a" fill-rule="evenodd" stroke="none"/>
    <path d="M116.75 53.55 L117.3 58.55 104.05 58.55 Q104.35 48.85 105.0 40.0 L106.45 45.05 105.6 47.65 116.0 54.6 116.1 54.65 116.75 53.55 M68.9 58.55 L63.4 58.55 65.75 45.1 66.4 40.95 66.8 37.35 67.25 32.45 67.75 26.25 68.9 26.1 68.9 58.55 M79.4 18.8 Q79.6 20.0 80.1 21.45 74.6 19.8 71.25 17.3 L68.9 15.35 68.6 14.95 68.15 14.4 67.9 13.05 67.85 12.7 68.4 13.25 68.9 13.7 Q73.5 17.8 79.4 18.8 M105.8 36.8 L105.15 37.4 105.2 36.65 105.8 36.8" fill="#d2c0b7" fill-rule="evenodd" stroke="none"/>
    <path d="M72.3 -83.5 L72.3 -87.75 Q72.6 -92.15 72.85 -94.05 73.15 -95.95 73.65 -96.8 L74.3 -98.5 Q76.4 -101.3 75.9 -102.05 78.9 -101.65 80.6 -98.5 81.8 -103.75 86.45 -107.9 88.15 -104.35 91.05 -103.35 93.45 -106.05 97.8 -107.8 97.25 -105.0 98.75 -101.65 104.95 -104.05 107.9 -104.9 107.7 -101.15 106.5 -97.9 108.75 -98.4 111.15 -100.2 111.0 -96.4 111.15 -94.15 L111.6 -88.6 111.8 -86.75 111.9 -85.6 Q112.35 -81.7 112.1 -79.75 L111.95 -78.85 111.9 -78.3 111.65 -77.2 111.65 -77.1 Q110.05 -70.05 107.0 -66.55 L106.5 -66.05 105.2 -65.05 105.8 -67.35 M74.25 -58.5 Q70.65 -60.95 73.5 -65.3 M72.3 -83.5 L72.3 -83.2 72.75 -83.85 72.85 -84.05 73.5 -84.6 76.45 -84.55 Q77.65 -83.8 79.15 -82.0 103.0 -89.25 95.4 -72.9 L94.9 -71.9 Q96.3 -69.05 96.25 -66.75 96.15 -62.05 89.75 -59.85 M111.85 -78.85 L111.95 -78.85 M77.35 -76.2 Q75.2 -80.1 72.5 -80.55 76.7 -81.35 77.35 -76.2 M88.7 -54.45 L88.6 -54.5 76.55 -61.7 74.55 -60.55 74.85 -58.9 74.7 -58.15 74.5 -58.35 74.25 -58.5 M82.65 -74.25 Q87.85 -76.65 91.8 -75.3 86.65 -78.9 82.65 -74.25 M100.8 -71.8 L100.5 -71.45 100.4 -71.15 99.95 -69.55 M101.7 -72.75 L100.8 -71.85 100.8 -71.8 M88.7 -54.45 Q93.85 -51.45 99.65 -58.75 L99.5 -60.0 Q98.75 -64.4 99.95 -69.55 M101.7 -72.75 Q103.75 -74.5 105.6 -72.75 106.55 -70.65 105.8 -67.35" fill="none" stroke="#4b2e2e" stroke-linecap="round" stroke-linejoin="round" stroke-width="0.05"/>
    <path d="M105.8 -67.35 L105.65 -67.05 105.35 -66.2 105.05 -65.3 105.0 -65.05 104.85 -64.85 104.45 -64.0 102.6 -62.8 M110.9 -46.0 L111.3 -45.85 112.4 -45.1 116.0 -42.75 Q118.75 -42.8 121.85 -40.8 126.85 -37.7 130.05 -31.4 131.85 -27.85 132.55 -24.45 L132.9 -22.35 132.95 -20.65 132.9 -19.2 132.3 -16.0 132.25 -15.75 132.1 -15.4 136.35 -0.25 137.5 3.95 M137.4 4.05 L137.95 4.55 138.5 6.65 139.3 12.15 138.3 14.75 M50.8 -2.75 L50.9 -5.5 Q52.55 -8.35 53.9 -10.25 L54.05 -10.4 54.45 -10.95 55.15 -14.65 57.8 -28.95 57.3 -31.0 57.05 -32.3 57.0 -33.85 57.05 -35.8 Q57.35 -38.85 58.7 -42.15 61.0 -48.0 65.25 -51.1 67.35 -52.7 69.35 -53.05 M69.75 -53.65 L69.95 -53.65 70.1 -53.7 70.65 -53.85 M73.5 -65.3 L73.4 -65.6 Q72.45 -68.85 72.05 -73.8 71.6 -78.8 71.75 -79.65 71.85 -81.65 72.3 -83.5 M76.9 -92.8 L77.0 -92.95 M76.3 -63.55 L76.25 -63.6 Q75.9 -63.85 75.85 -64.4 75.75 -64.75 75.8 -65.15 76.5 -66.2 76.75 -67.8 77.0 -69.8 76.4 -72.8 L76.25 -76.0 Q73.75 -78.9 72.7 -73.6 L72.65 -73.2 72.7 -73.05 Q73.05 -72.0 73.7 -71.15 74.0 -70.5 74.45 -70.3 L76.05 -69.25 Q76.4 -71.05 76.4 -72.8 M76.3 -63.55 L77.8 -63.6 M76.8 -58.05 Q77.45 -56.55 80.9 -56.35 L83.55 -56.35 M74.85 -58.9 L75.0 -57.7 75.05 -57.45 Q75.85 -52.55 77.3 -51.15 88.75 -47.15 94.2 -51.9 L97.85 -55.45 Q99.6 -57.45 99.7 -58.45 99.75 -60.15 101.95 -62.25 L102.6 -62.8 M66.5 -25.25 L66.35 -25.55 64.85 -28.85 Q62.95 -34.05 63.6 -39.25 M57.8 -28.95 L58.1 -28.2 58.2 -28.0 58.55 -27.3 M100.4 -71.15 L100.65 -71.6 100.8 -71.8 M102.05 -68.75 L102.45 -69.4 103.35 -70.35 M105.75 -67.6 L105.95 -68.7 Q106.2 -70.4 105.65 -72.1 105.05 -73.85 103.35 -73.45 102.4 -73.3 101.7 -72.75 M85.05 -66.05 Q87.6 -65.55 89.5 -66.45 89.0 -73.05 84.05 -73.2 82.65 -70.75 82.35 -66.9 83.65 -66.35 84.85 -66.1 L85.05 -66.05 M105.75 -67.6 L105.65 -67.05 M102.05 -68.75 L101.6 -67.4 101.5 -66.9 Q102.4 -66.55 103.05 -65.55 M101.5 -66.9 Q101.4 -66.2 101.45 -65.35 L101.45 -64.75 M116.0 -42.75 L114.5 -42.55 M117.15 -7.2 L119.4 -13.3 117.8 -14.55 116.45 -15.8 Q114.0 -18.45 112.1 -22.1 M125.95 3.55 L119.45 -13.2 119.4 -13.3 M122.7 9.05 Q123.15 7.75 123.75 6.65 124.7 4.8 125.95 3.55 L126.35 4.6 127.6 8.25" fill="none" stroke="#d7995e" stroke-linecap="round" stroke-linejoin="round" stroke-width="0.05"/>
    <path d="M109.5 -46.7 L110.9 -46.0 M124.8 40.9 L124.8 41.0 123.5 43.55 118.6 52.85 116.8 53.5 116.75 53.55 M66.4 40.95 L54.95 42.8 54.8 42.8 54.7 41.5 53.3 40.15 52.7 29.6 M70.65 -53.85 L70.85 -53.9 73.1 -54.25 73.35 -54.3 73.6 -54.35 M66.5 -25.25 L66.95 -25.9 Q66.7 -27.65 66.6 -29.55 66.45 -31.65 66.45 -33.9 66.4 -42.8 68.4 -49.15 69.2 -51.65 70.2 -53.15 L70.65 -53.85 M73.7 -54.35 L73.65 -54.35 73.6 -54.3 73.6 -54.35 M66.95 -25.9 L68.75 -27.9 M61.8 -0.45 Q61.45 -2.3 61.5 -4.05 61.5 -7.3 63.0 -13.3 64.25 -18.3 66.5 -25.25 M108.8 -41.25 Q109.5 -43.25 110.9 -46.0 M103.8 -43.45 L103.8 -43.35 M108.8 -41.25 L108.6 -40.4 Q106.95 -35.2 106.95 -28.85 106.95 -19.3 110.7 -12.55 L111.45 -11.35 Q112.0 -10.45 112.7 -9.7 113.9 -8.15 117.15 -7.2 L114.45 -1.9 113.9 8.2 Q112.55 11.3 110.7 12.5 M113.35 30.15 L116.05 30.65 M96.3 15.2 L94.95 16.1 Q89.6 19.15 83.25 19.05 L79.4 18.8 Q73.5 17.8 68.9 13.7 L68.4 13.25 67.85 12.7 67.9 13.05 66.45 10.65 65.1 8.25 63.6 5.35 Q62.3 2.35 61.8 -0.45 M113.35 30.15 L112.5 30.1 105.8 36.8 105.15 37.4 104.4 38.15 105.0 40.0 106.45 45.05 M112.1 43.15 L112.2 43.4 M116.0 54.6 L116.1 54.65 116.75 53.55 M116.0 54.6 L105.6 47.65 106.45 45.05 M64.35 20.9 Q66.3 21.1 68.15 21.9 M63.25 33.95 L63.0 34.2" fill="none" stroke="#2f314a" stroke-linecap="round" stroke-linejoin="round" stroke-width="0.05"/>
    <path d="M108.3 -58.65 Q111.1 -52.15 109.85 -46.95 L109.65 -46.8 109.5 -46.7 M138.3 14.75 L138.35 14.75 138.2 15.3 Q138.45 16.65 136.8 19.7 L132.25 28.35 Q129.8 32.95 124.8 40.9 M52.6 29.55 Q50.95 18.15 50.65 12.15 L50.0 2.35 Q49.75 -1.15 50.6 -2.25 L50.7 -2.8 50.8 -2.75 M73.7 -54.5 L73.75 -54.55 73.5 -55.5 Q73.35 -57.05 74.25 -58.5 M74.5 -58.35 L75.0 -57.7 M73.7 -54.35 L73.7 -54.5 M73.7 -54.35 L73.7 -52.5 Q73.85 -47.25 76.95 -45.05 L77.7 -44.6 Q78.5 -44.15 79.55 -43.9 85.95 -42.2 99.4 -47.75 M103.8 -43.35 Q93.5 -32.05 80.85 -35.0 L80.3 -35.2 76.8 -37.6 Q75.7 -38.6 74.9 -39.7 71.3 -44.7 73.25 -52.65 L73.7 -54.35 M61.8 -0.45 L61.15 -0.5 Q56.7 -0.8 50.8 -2.75 M101.6 -55.9 L102.05 -55.95 103.4 -56.2 Q108.35 -57.2 108.3 -58.65 M97.85 -55.45 L101.6 -55.9 M103.75 -43.5 Q106.85 -44.9 109.5 -46.7 M116.05 30.65 Q117.4 23.65 120.45 13.2 120.6 10.15 122.45 8.9 L122.7 9.05 M126.4 11.9 L125.7 11.6 M125.6 11.45 L122.7 9.05 M126.4 11.9 L126.45 11.9 127.85 12.5 Q132.0 14.1 138.3 14.75 M123.5 43.55 Q124.0 42.1 124.8 40.9 M105.2 36.65 L105.15 37.4 M106.45 45.05 L112.1 43.15 M116.05 30.65 Q115.25 35.1 115.1 38.2 M105.2 36.65 L106.6 21.7 M105.0 40.0 Q104.35 48.85 104.05 58.55 M62.15 28.2 Q63.3 25.3 64.35 20.9 L66.45 10.65 M68.9 17.5 L68.9 15.35 M68.9 26.1 L68.9 17.5 M66.8 37.35 L63.25 33.95 M68.9 26.1 L68.9 58.55" fill="none" stroke="#a2a5c4" stroke-linecap="round" stroke-linejoin="round" stroke-width="0.05"/>
    <path d="M102.4 -61.3 L103.35 -61.15 Q108.35 -60.1 108.3 -58.65 M73.6 -54.35 L73.65 -54.35 73.7 -54.5 M102.2 -61.35 L102.4 -61.3" fill="none" stroke="#bc9898" stroke-linecap="round" stroke-linejoin="round" stroke-width="0.05"/>
    <path d="M102.6 -62.8 L102.4 -61.3" fill="none" stroke="#674743" stroke-linecap="round" stroke-linejoin="round" stroke-width="0.05"/>
    <path d="M116.75 53.55 L117.3 58.55 M63.4 58.55 L65.75 45.1 66.4 40.95 M110.7 12.5 Q113.45 15.6 112.0 19.55 L111.45 19.85 111.05 21.45 112.3 25.4 113.35 30.15 M104.7 14.7 L107.0 14.15 Q109.25 13.5 110.7 12.5 M110.5 22.5 L111.05 21.45 M104.7 14.7 L103.75 14.8 103.5 14.9 96.3 15.2 M80.1 21.45 L85.7 22.8 89.15 23.05 Q99.25 23.8 106.6 21.7 109.2 20.95 111.45 19.85 M68.9 15.35 L68.6 14.95 68.9 17.5 Q68.45 19.5 68.15 21.9 L67.75 26.25 67.25 32.45 66.8 37.35 66.4 40.95 M68.9 15.35 L71.25 17.3 Q74.6 19.8 80.1 21.45 M68.6 14.95 L68.15 14.4 67.9 13.05" fill="none" stroke="#594337" stroke-linecap="round" stroke-linejoin="round" stroke-width="0.05"/>
  </g>
</svg>
