<?xml version="1.0" encoding="UTF-8" standalone="no"?>
<svg xmlns:xlink="http://www.w3.org/1999/xlink" height="223.05px" width="119.25px" xmlns="http://www.w3.org/2000/svg">
  <g transform="matrix(1, 0, 0, 1, -33.3, 148.4)">
    <path d="M73.9 -88.7 L74.2 -89.8 Q75.55 -94.25 78.95 -97.8 82.35 -101.4 86.65 -102.85 89.45 -103.8 92.7 -103.8 L94.05 -103.7 94.0 -103.55 Q101.0 -103.0 104.1 -98.3 105.3 -96.6 105.75 -94.7 106.45 -91.4 104.9 -87.5 103.45 -84.0 100.75 -81.2 L100.75 -84.65 96.05 -84.65 Q83.85 -84.7 78.0 -86.5 L76.0 -87.25 Q74.65 -87.9 73.9 -88.7 M108.25 -50.55 L109.8 -51.6 Q115.0 -52.05 116.95 -46.85 L122.6 -41.8 Q123.85 -40.4 124.6 -38.55 L123.55 -39.25 Q119.55 -41.85 116.2 -41.0 L116.15 -41.0 116.8 -45.65 Q116.45 -44.0 115.75 -42.5 L115.4 -41.8 114.6 -40.4 Q112.95 -39.65 111.7 -39.75 L111.45 -39.75 111.25 -39.75 110.05 -41.9 Q108.75 -43.7 106.95 -44.2 L105.6 -44.35 105.25 -44.3 104.9 -44.25 103.7 -43.9 Q102.25 -43.2 101.05 -41.65 100.1 -40.4 99.65 -38.9 L89.75 -37.4 84.65 -37.25 79.5 -38.05 Q74.4 -39.55 71.85 -43.9 71.65 -45.8 71.6 -47.65 71.55 -50.8 73.2 -52.35 71.55 -50.8 71.6 -47.65 71.65 -45.8 71.85 -43.9 74.4 -39.55 79.5 -38.05 L84.65 -37.25 89.75 -37.4 99.65 -38.9 Q99.15 -37.45 99.15 -35.75 L99.2 -34.75 99.25 -34.1 98.15 -33.65 Q92.4 -31.7 86.45 -30.9 L81.0 -30.95 79.5 -30.95 74.2 -31.6 69.9 -33.15 68.15 -35.4 69.55 -33.05 Q69.75 -32.6 70.2 -32.45 72.95 -30.8 76.1 -29.45 L80.55 -29.5 86.4 -29.8 Q90.45 -30.4 94.45 -31.4 L99.4 -33.1 99.65 -32.3 99.4 -33.1 99.45 -33.1 99.65 -32.45 99.65 -32.3 Q100.05 -31.2 100.75 -30.25 L100.8 -30.2 Q88.45 -25.4 79.65 -25.45 74.85 -25.5 71.1 -26.95 L67.25 -32.05 Q65.9 -33.9 65.2 -35.75 64.3 -37.85 64.15 -39.9 63.9 -43.8 65.05 -46.7 L65.95 -48.75 Q66.65 -50.15 67.45 -50.95 68.45 -52.05 72.3 -52.3 L73.2 -52.35 73.2 -52.4 73.3 -52.5 Q72.95 -54.9 76.65 -56.6 L77.7 -54.65 77.6 -53.85 Q77.05 -46.35 84.2 -45.25 L99.4 -45.85 Q102.0 -46.45 104.55 -47.9 L106.9 -49.45 108.25 -50.55 M47.85 -1.7 L33.3 -13.75 33.3 -16.35 Q35.6 -17.65 37.05 -19.7 L37.35 -19.55 38.5 -18.85 41.25 -17.3 42.95 -16.3 46.85 -14.1 49.75 -12.45 Q53.3 -10.65 55.3 -10.05 55.55 -9.3 56.05 -8.65 L56.2 -8.5 55.9 -8.2 Q53.4 -4.6 51.3 1.05 L47.85 -1.7 M75.2 -74.55 L76.0 -74.35 75.6 -73.75 Q75.1 -72.9 75.1 -71.7 75.0 -70.5 75.4 -69.6 L74.4 -71.5 74.4 -71.9 Q74.75 -73.65 75.2 -74.55 M77.55 -74.05 L78.0 -74.0 78.1 -71.25 77.8 -67.7 76.15 -68.75 76.45 -68.7 Q77.05 -68.75 77.55 -69.6 78.0 -70.5 78.05 -71.7 78.1 -72.9 77.7 -73.75 L77.55 -74.05 M76.15 -73.2 L76.3 -73.55 76.9 -73.9 77.45 -73.55 77.6 -72.95 77.55 -72.5 77.45 -72.35 77.4 -72.2 Q77.15 -71.9 76.8 -71.9 76.45 -71.9 76.2 -72.2 76.0 -72.5 76.05 -72.95 L76.15 -73.2 M116.95 -46.85 L116.8 -45.65 116.95 -46.85 M86.5 -69.55 L86.7 -69.85 Q87.0 -70.15 87.45 -70.1 L88.2 -69.85 88.5 -69.1 88.35 -68.6 88.15 -68.3 87.4 -68.05 Q86.95 -68.05 86.65 -68.3 86.35 -68.65 86.35 -69.1 86.35 -69.4 86.5 -69.55 M86.75 -64.5 L86.95 -64.5 Q87.75 -64.45 88.4 -65.4 89.0 -66.4 89.05 -67.8 89.1 -69.2 88.65 -70.15 88.1 -71.15 87.25 -71.15 86.4 -71.15 85.8 -70.15 85.2 -69.2 85.15 -67.8 85.05 -66.4 85.6 -65.4 85.95 -64.75 86.5 -64.55 85.35 -64.8 84.1 -65.35 84.35 -69.2 85.75 -71.65 90.7 -71.5 91.2 -64.9 89.3 -64.0 86.75 -64.5 M111.8 -37.4 L111.65 -38.4 112.5 -38.5 111.8 -37.4 M110.75 -31.25 Q110.75 -29.55 111.15 -27.8 L109.3 -29.2 109.95 -30.05 110.75 -31.25" fill="#ffffff" fill-rule="evenodd" stroke="none"/>
    <path d="M100.75 -81.2 Q103.45 -84.0 104.9 -87.5 106.45 -91.4 105.75 -94.7 105.3 -96.6 104.1 -98.3 101.0 -103.0 94.0 -103.55 L94.05 -103.7 Q101.2 -103.3 106.4 -97.8 112.1 -91.8 112.1 -83.3 L112.0 -80.7 Q110.55 -79.55 108.3 -79.15 L100.65 -79.5 100.75 -81.2" fill="#ececec" fill-rule="evenodd" stroke="none"/>
    <path d="M33.3 -146.55 L33.6 -146.8 33.75 -146.2 Q33.7 -144.15 33.3 -142.4 L33.3 -146.55" fill="#929292" fill-rule="evenodd" stroke="none"/>
    <path d="M134.4 -11.65 Q139.55 -8.3 143.8 -1.65 152.5 11.95 152.55 31.2 152.5 50.4 143.8 63.95 139.15 71.25 133.45 74.65 L127.75 74.65 Q128.2 73.0 127.85 70.45 L128.55 70.4 Q131.2 69.95 133.65 68.55 138.3 65.8 142.05 59.3 145.9 52.75 147.55 44.65 150.5 39.55 150.5 32.75 150.5 26.15 147.7 21.1 146.85 16.3 145.3 12.05 143.9 8.45 142.05 5.25 L140.1 2.15 Q137.0 -2.1 133.35 -4.1 L130.35 -5.3 128.55 -5.7 127.3 -5.8 Q131.35 -11.05 126.2 -14.75 L126.0 -14.95 128.2 -14.5 Q131.45 -13.65 134.4 -11.65" fill="#afafaf" fill-rule="evenodd" stroke="none"/>
    <path d="M127.75 74.65 L112.4 74.65 Q106.65 71.25 101.95 63.95 99.45 59.95 97.65 55.5 93.35 44.75 93.35 31.2 93.35 27.9 93.6 24.8 93.9 20.55 94.7 16.7 96.8 6.5 101.95 -1.65 108.25 -11.45 116.4 -14.15 L117.95 -14.6 120.0 -15.0 122.95 -15.15 125.25 -15.05 126.0 -14.95 126.2 -14.75 Q131.35 -11.05 127.3 -5.8 L126.4 -5.9 123.5 -5.6 Q120.8 -5.05 118.4 -3.45 117.05 -2.6 115.8 -1.45 113.05 1.15 110.65 5.25 109.8 6.65 109.1 8.2 107.25 12.0 106.15 16.3 105.1 20.0 104.6 24.1 104.15 28.0 104.15 32.3 104.15 43.3 107.3 52.05 L108.25 54.55 Q109.3 57.0 110.65 59.3 114.1 65.3 118.4 68.15 L120.25 69.15 Q123.15 70.5 126.4 70.5 L127.85 70.45 Q128.2 73.0 127.75 74.65 M36.95 -22.4 L37.05 -22.35 43.9 -18.4 55.4 -14.5 Q54.6 -11.9 55.3 -10.05 53.3 -10.65 49.75 -12.45 L46.85 -14.1 42.95 -16.3 41.25 -17.3 38.5 -18.85 37.35 -19.55 37.05 -19.7 37.6 -20.55 36.95 -22.4 M111.25 -39.75 L111.45 -39.75 111.7 -39.75 Q112.95 -39.65 114.6 -40.4 L115.4 -41.8 115.75 -42.5 Q116.45 -44.0 116.8 -45.65 L116.15 -41.0 114.8 -40.4 Q113.4 -39.75 112.5 -38.5 L111.65 -38.4 111.25 -39.75 M99.4 -33.1 L94.45 -31.4 Q90.45 -30.4 86.4 -29.8 L80.55 -29.5 76.1 -29.45 Q72.95 -30.8 70.2 -32.45 69.75 -32.6 69.55 -33.05 L68.15 -35.4 69.9 -33.15 74.2 -31.6 79.5 -30.95 81.0 -30.95 86.45 -30.9 Q92.4 -31.7 98.15 -33.65 L99.25 -34.1 99.4 -33.2 99.4 -33.1 99.4 -33.2 99.45 -33.1 99.4 -33.1 M147.7 21.1 Q150.5 26.15 150.5 32.75 150.5 39.55 147.55 44.65 L146.4 46.3 Q144.15 49.55 141.35 51.0 139.1 52.1 136.55 52.1 L133.3 51.6 132.3 51.15 Q129.15 49.8 126.65 46.3 L125.65 44.8 124.65 42.9 Q122.6 38.4 122.6 32.75 L122.7 30.5 Q123.2 23.95 126.65 19.05 L127.45 18.05 Q129.65 15.35 132.3 14.2 L132.5 14.15 133.3 13.85 136.55 13.4 139.2 13.7 Q140.7 14.05 142.05 14.9 144.45 16.3 146.4 19.05 L147.7 21.1 M145.5 24.15 Q144.0 22.7 141.9 22.7 139.8 22.7 138.35 24.15 136.9 25.6 136.9 27.7 136.9 29.8 138.35 31.3 139.8 32.75 141.9 32.75 144.0 32.75 145.5 31.3 146.95 29.8 146.95 27.7 146.95 25.6 145.5 24.15" fill="#cccccc" fill-rule="evenodd" stroke="none"/>
    <path d="M33.3 -148.4 L33.6 -146.8 33.3 -146.55 33.3 -148.4" fill="#acacac" fill-rule="evenodd" stroke="none"/>
    <path d="M73.9 -88.7 Q74.65 -87.9 76.0 -87.25 L78.0 -86.5 Q83.85 -84.7 96.05 -84.65 L96.05 -76.45 94.0 -76.4 93.75 -76.4 93.45 -76.4 92.25 -76.4 84.35 -77.15 83.45 -77.2 79.05 -78.2 79.0 -78.2 77.2 -78.7 75.65 -79.35 75.6 -79.35 74.7 -79.85 73.8 -80.4 73.75 -80.6 73.75 -80.65 73.3 -81.05 73.2 -81.2 73.1 -81.5 72.95 -82.0 72.95 -82.15 72.95 -82.5 73.15 -89.65 73.9 -88.7 M72.95 -82.15 L73.0 -81.95 72.95 -82.5 73.0 -81.95 72.95 -82.15 M97.35 -67.6 L99.95 -75.85 99.95 -76.2 100.65 -76.1 102.3 -75.85 97.0 -59.05 103.3 -51.9 99.75 -51.15 97.65 -53.05 96.25 -54.3 96.0 -54.55 93.85 -56.45 94.0 -56.75 97.35 -67.6" fill="#c6c7d0" fill-rule="evenodd" stroke="none"/>
    <path d="M71.85 -78.9 L71.85 -79.05 71.95 -79.4 Q72.15 -80.6 72.95 -82.0 L73.1 -81.5 73.2 -81.2 73.3 -81.05 73.75 -80.65 73.75 -80.6 73.8 -80.4 74.7 -79.85 75.6 -79.35 75.65 -79.35 77.2 -78.7 79.0 -78.2 79.05 -78.2 83.45 -77.2 84.35 -77.15 92.25 -76.4 93.45 -76.4 93.75 -76.4 94.0 -76.4 92.25 -76.15 91.6 -76.1 85.75 -75.35 Q81.8 -75.05 79.0 -75.25 L78.75 -75.25 78.15 -75.3 74.95 -75.9 74.0 -76.25 73.9 -76.4 73.35 -76.75 73.1 -76.9 Q72.1 -77.7 71.85 -78.8 L71.85 -78.9" fill="#a8aab7" fill-rule="evenodd" stroke="none"/>
    <path d="M73.3 -75.5 L73.1 -75.65 Q71.55 -76.85 71.85 -78.9 L71.85 -78.8 Q72.1 -77.7 73.1 -76.9 L73.35 -76.75 73.9 -76.4 74.0 -76.25 74.95 -75.9 78.15 -75.3 78.75 -75.25 79.0 -75.25 Q81.8 -75.05 85.75 -75.35 L91.6 -76.1 92.25 -76.15 94.0 -76.4 96.05 -76.45 98.1 -76.65 98.75 -76.65 99.95 -76.7 99.95 -76.2 98.6 -75.9 91.75 -74.8 91.6 -74.8 85.75 -74.05 Q81.25 -73.7 78.15 -74.0 L78.0 -74.0 77.55 -74.05 76.0 -74.35 75.2 -74.55 74.95 -74.6 74.0 -74.95 73.9 -75.1 73.3 -75.5" fill="#999da8" fill-rule="evenodd" stroke="none"/>
    <path d="M33.3 -16.35 L33.3 -29.1 34.3 -29.9 36.95 -22.4 37.6 -20.55 37.05 -19.7 Q35.6 -17.65 33.3 -16.35 M76.65 -56.6 L76.25 -57.45 76.55 -57.2 73.6 -65.1 73.5 -64.95 Q72.8 -68.1 73.0 -71.15 L73.3 -75.5 73.9 -75.1 74.0 -74.95 74.95 -74.6 75.2 -74.55 Q74.75 -73.65 74.4 -71.9 L74.35 -71.65 74.4 -71.5 75.4 -69.6 Q75.7 -68.95 76.15 -68.75 L77.8 -67.7 78.1 -71.25 78.0 -74.0 78.15 -74.0 Q81.25 -73.7 85.75 -74.05 L84.25 -72.65 84.35 -72.7 89.15 -74.1 93.45 -73.7 93.3 -73.85 93.55 -73.75 91.75 -74.8 98.6 -75.9 Q98.2 -73.95 97.0 -71.35 L96.35 -71.15 96.55 -70.35 96.5 -70.3 96.7 -69.95 97.35 -67.6 94.0 -56.75 89.95 -53.95 Q86.3 -51.8 81.2 -49.6 79.7 -50.95 77.7 -54.65 L76.65 -56.6 M79.5 -62.05 Q78.3 -62.6 77.5 -63.6 77.25 -61.35 79.5 -62.05 M78.1 -71.25 Q78.7 -68.25 78.45 -66.25 78.2 -64.65 77.5 -63.6 78.2 -64.65 78.45 -66.25 78.7 -68.25 78.1 -71.25 M86.75 -64.5 Q89.3 -64.0 91.2 -64.9 90.7 -71.5 85.75 -71.65 84.35 -69.2 84.1 -65.35 85.35 -64.8 86.5 -64.55 L86.75 -64.5 M86.05 -55.65 L82.85 -56.45 82.75 -56.5 Q80.4 -57.3 78.85 -58.4 80.4 -57.3 82.75 -56.5 L82.85 -56.45 86.05 -55.65" fill="#ffdfc8" fill-rule="evenodd" stroke="none"/>
    <path d="M85.75 -74.05 L91.6 -74.8 91.75 -74.8 93.3 -73.85 91.75 -74.8 93.55 -73.75 93.3 -73.85 93.45 -73.7 89.15 -74.1 84.35 -72.7 84.25 -72.65 85.75 -74.05 M98.6 -75.9 L99.95 -76.2 99.95 -75.85 97.35 -67.6 96.7 -69.95 96.5 -70.3 96.55 -70.35 97.0 -71.35 Q98.2 -73.95 98.6 -75.9 M96.25 -54.3 L97.65 -53.05 Q96.2 -52.2 94.65 -52.05 L96.05 -54.1 96.25 -54.3" fill="#9b5e5e" fill-rule="evenodd" stroke="none"/>
    <path d="M76.0 -74.35 L77.55 -74.05 77.7 -73.75 Q78.1 -72.9 78.05 -71.7 78.0 -70.5 77.55 -69.6 77.05 -68.75 76.45 -68.7 L76.15 -68.75 Q75.7 -68.95 75.4 -69.6 75.0 -70.5 75.1 -71.7 75.1 -72.9 75.6 -73.75 L76.0 -74.35 M77.55 -72.5 L77.6 -72.95 77.45 -73.55 76.9 -73.9 76.3 -73.55 76.15 -73.2 75.9 -73.0 Q75.6 -72.45 75.6 -71.75 75.55 -71.0 75.8 -70.45 76.1 -69.9 76.5 -69.9 76.9 -69.9 77.2 -70.45 77.55 -71.0 77.55 -71.7 L77.55 -72.5 M88.35 -68.6 L88.5 -69.1 88.2 -69.85 87.45 -70.1 Q87.0 -70.15 86.7 -69.85 L86.5 -69.55 86.2 -69.2 Q85.8 -68.65 85.75 -67.85 85.75 -67.0 86.1 -66.35 86.5 -65.75 87.0 -65.8 87.55 -65.75 87.95 -66.35 88.4 -66.95 88.4 -67.8 L88.35 -68.6 M86.5 -64.55 Q85.95 -64.75 85.6 -65.4 85.05 -66.4 85.15 -67.8 85.2 -69.2 85.8 -70.15 86.4 -71.15 87.25 -71.15 88.1 -71.15 88.65 -70.15 89.1 -69.2 89.05 -67.8 89.0 -66.4 88.4 -65.4 87.75 -64.45 86.95 -64.5 L86.75 -64.5 86.5 -64.55" fill="#0099ff" fill-rule="evenodd" stroke="none"/>
    <path d="M77.55 -72.5 L77.55 -71.7 Q77.55 -71.0 77.2 -70.45 76.9 -69.9 76.5 -69.9 76.1 -69.9 75.8 -70.45 75.55 -71.0 75.6 -71.75 75.6 -72.45 75.9 -73.0 L76.15 -73.2 76.05 -72.95 Q76.0 -72.5 76.2 -72.2 76.45 -71.9 76.8 -71.9 77.15 -71.9 77.4 -72.2 L77.45 -72.35 77.55 -72.5 M88.35 -68.6 L88.4 -67.8 Q88.4 -66.95 87.95 -66.35 87.55 -65.75 87.0 -65.8 86.5 -65.75 86.1 -66.35 85.75 -67.0 85.75 -67.85 85.8 -68.65 86.2 -69.2 L86.5 -69.55 Q86.35 -69.4 86.35 -69.1 86.35 -68.65 86.65 -68.3 86.95 -68.05 87.4 -68.05 L88.15 -68.3 88.35 -68.6" fill="#000000" fill-rule="evenodd" stroke="none"/>
    <path d="M76.25 -57.45 L72.05 -61.6 73.5 -64.95 73.6 -65.1 76.55 -57.2 76.25 -57.45" fill="#6c7280" fill-rule="evenodd" stroke="none"/>
    <path d="M71.25 7.05 Q68.85 3.5 70.2 -1.1 L70.6 -2.4 70.8 -3.45 69.95 -20.05 69.9 -21.05 68.65 -22.9 68.05 -24.0 Q67.15 -25.65 66.6 -27.3 65.05 -31.5 65.2 -35.75 65.9 -33.9 67.25 -32.05 L71.1 -26.95 Q74.85 -25.5 79.65 -25.45 88.45 -25.4 100.8 -30.2 L101.0 -29.85 Q102.25 -28.2 103.75 -27.7 L105.45 -27.55 Q107.65 -27.55 109.3 -29.2 L111.15 -27.8 Q111.8 -24.45 113.65 -20.85 L113.85 -20.55 Q115.2 -17.9 116.85 -15.85 L116.4 -14.15 Q108.25 -11.45 101.95 -1.65 96.8 6.5 94.7 16.7 L91.1 16.4 90.4 16.35 83.45 15.55 82.4 15.15 81.9 15.0 81.85 15.0 80.35 14.35 77.9 13.3 74.5 11.3 73.45 10.4 72.85 9.7 Q72.05 8.9 71.6 8.0 L71.5 7.6 71.25 7.05 M72.3 -52.3 L72.55 -52.35 73.2 -52.4 73.2 -52.35 72.3 -52.3 M73.6 -2.8 L73.6 -2.85 73.55 -2.85 73.6 -2.8 M79.65 -25.45 Q78.4 -17.25 80.3 -5.25 77.0 3.2 79.05 10.75 L80.05 13.65 80.35 14.35 80.05 13.65 79.05 10.75 Q77.0 3.2 80.3 -5.25 78.4 -17.25 79.65 -25.45 M81.65 -11.1 L81.65 -11.15 81.55 -11.15 81.65 -11.1" fill="#eaeaea" fill-rule="evenodd" stroke="none"/>
    <path d="M107.95 -53.95 L108.25 -50.55 106.9 -49.45 104.55 -47.9 Q102.0 -46.45 99.4 -45.85 L84.2 -45.25 Q77.05 -46.35 77.6 -53.85 L77.7 -54.65 Q79.7 -50.95 81.2 -49.6 86.25 -47.9 95.25 -54.05 L96.05 -54.1 94.65 -52.05 Q96.2 -52.2 97.65 -53.05 L99.75 -51.15 103.3 -51.9 Q105.6 -52.55 107.95 -53.95 M95.45 55.4 L90.75 55.15 Q87.2 55.0 86.6 55.2 L84.1 55.05 Q82.2 54.45 81.15 52.55 79.65 50.85 78.4 50.35 77.4 49.95 76.6 50.35 71.9 49.75 67.6 45.95 65.7 44.25 63.9 42.0 65.4 23.45 69.4 12.7 69.4 14.2 69.85 15.95 71.05 17.5 72.95 18.85 76.3 21.35 81.85 23.0 L87.4 24.35 90.9 24.6 93.6 24.8 Q93.35 27.9 93.35 31.2 93.35 44.75 97.65 55.5 L95.45 55.4 M86.45 38.5 L86.6 55.2 86.45 38.5 M81.5 45.7 L81.15 52.55 81.5 45.7 M76.3 41.35 L76.6 50.35 76.3 41.35" fill="#54833f" fill-rule="evenodd" stroke="none"/>
    <path d="M33.3 -29.1 L33.3 -30.05 34.3 -29.9 33.3 -29.1 M77.5 -63.6 Q78.3 -62.6 79.5 -62.05 77.25 -61.35 77.5 -63.6 M96.55 -70.35 L96.35 -71.15 97.0 -71.35 96.55 -70.35 M81.2 -49.6 Q86.3 -51.8 89.95 -53.95 L94.0 -56.75 93.85 -56.45 96.0 -54.55 96.25 -54.3 96.05 -54.1 95.25 -54.05 Q86.25 -47.9 81.2 -49.6 M95.25 -54.05 L96.0 -54.55 95.25 -54.05" fill="#ffd0ae" fill-rule="evenodd" stroke="none"/>
    <path d="M124.6 -38.55 Q128.9 -35.5 131.8 -29.85 134.6 -24.25 134.65 -19.1 134.2 -17.55 133.15 -16.4 L131.95 -15.45 131.7 -15.35 130.8 -14.9 130.3 -14.6 128.2 -14.5 126.0 -14.95 125.25 -15.05 Q124.15 -15.4 123.05 -16.0 L122.5 -16.35 Q120.1 -17.9 117.85 -20.75 L116.2 -23.0 113.85 -26.85 Q112.5 -29.3 111.2 -32.25 111.8 -33.95 111.85 -36.05 L111.8 -37.4 112.5 -38.5 Q113.4 -39.75 114.8 -40.4 L116.15 -41.0 116.2 -41.0 Q119.55 -41.85 123.55 -39.25 L124.6 -38.55 M112.4 74.65 L94.25 74.65 95.25 59.15 95.45 55.4 97.65 55.5 Q99.45 59.95 101.95 63.95 106.65 71.25 112.4 74.65 M90.75 55.15 Q90.9 62.4 91.3 68.3 L90.6 72.4 91.05 74.65 90.15 74.65 66.55 74.65 63.9 74.65 64.4 64.2 64.55 64.05 64.5 63.5 67.5 46.65 67.6 45.95 Q71.9 49.75 76.6 50.35 77.4 49.95 78.4 50.35 79.65 50.85 81.15 52.55 82.2 54.45 84.1 55.05 L86.6 55.2 Q87.2 55.0 90.75 55.15 M69.05 -16.85 Q67.9 -8.0 65.95 -5.1 66.25 -1.55 63.75 3.2 59.55 6.85 53.65 5.9 L50.55 0.55 47.85 -1.7 51.3 1.05 Q53.4 -4.6 55.9 -8.2 L56.2 -8.5 56.05 -8.65 Q55.55 -9.3 55.3 -10.05 54.6 -11.9 55.4 -14.5 56.1 -16.95 58.15 -20.05 65.2 -22.2 69.05 -16.85 M58.75 -30.75 Q58.3 -35.4 60.4 -40.6 62.4 -45.7 65.95 -48.75 L65.05 -46.7 Q63.9 -43.8 64.15 -39.9 64.3 -37.85 65.2 -35.75 65.05 -31.5 66.6 -27.3 L66.3 -27.25 63.15 -27.05 62.65 -27.25 61.8 -27.6 61.6 -27.7 59.8 -29.05 58.75 -30.75 M90.6 72.4 L90.15 74.65 90.6 72.4 M66.55 74.65 Q65.45 70.85 64.55 64.05 65.45 70.85 66.55 74.65" fill="#414f35" fill-rule="evenodd" stroke="none"/>
    <path d="M134.65 -19.1 L134.6 -17.65 Q134.5 -15.85 134.05 -14.45 L133.95 -14.2 133.8 -13.9 134.4 -11.65 Q131.45 -13.65 128.2 -14.5 L130.3 -14.6 130.8 -14.9 131.7 -15.35 131.95 -15.45 133.15 -16.4 Q134.2 -17.55 134.65 -19.1 M69.95 -20.05 L69.05 -16.85 Q65.2 -22.2 58.15 -20.05 L59.5 -27.5 59.0 -29.45 58.75 -30.75 59.8 -29.05 61.6 -27.7 61.8 -27.6 62.65 -27.25 63.15 -27.05 66.3 -27.25 66.6 -27.3 Q67.15 -25.65 68.05 -24.0 L68.65 -22.9 69.9 -21.05 69.95 -20.05 M60.3 -25.75 L59.9 -26.45 59.85 -26.65 59.5 -27.5 59.85 -26.65 59.9 -26.45 60.3 -25.75 M110.75 -31.25 L111.2 -32.25 Q112.5 -29.3 113.85 -26.85 L116.2 -23.0 117.85 -20.75 Q120.1 -17.9 122.5 -16.35 L123.05 -16.0 Q124.15 -15.4 125.25 -15.05 L122.95 -15.15 120.0 -15.0 117.95 -14.6 116.85 -15.85 Q115.2 -17.9 113.85 -20.55 L113.65 -20.85 Q111.8 -24.45 111.15 -27.8 110.75 -29.55 110.75 -31.25" fill="#303827" fill-rule="evenodd" stroke="none"/>
    <path d="M96.05 -84.65 L100.75 -84.65 100.75 -81.2 100.65 -79.5 108.3 -79.15 Q110.55 -79.55 112.0 -80.7 L112.3 -81.05 112.45 -78.85 112.5 -77.2 117.6 -62.9 Q112.65 -56.9 107.95 -53.95 105.6 -52.55 103.3 -51.9 L97.0 -59.05 102.3 -75.85 100.65 -76.1 99.95 -76.2 99.95 -76.7 98.75 -76.65 98.1 -76.65 96.05 -76.45 96.05 -84.65 M112.45 -78.85 L111.9 -78.25 111.4 -77.75 Q109.3 -76.05 105.5 -75.8 L102.3 -75.85 105.5 -75.8 Q109.3 -76.05 111.4 -77.75 L111.9 -78.25 112.45 -78.85 M100.65 -79.5 L100.65 -77.5 100.65 -76.1 100.65 -77.5 100.65 -79.5" fill="#babcc5" fill-rule="evenodd" stroke="none"/>
    <path d="M99.65 -38.9 Q100.1 -40.4 101.05 -41.65 102.25 -43.2 103.7 -43.9 L104.9 -44.25 105.25 -44.3 105.6 -44.35 106.95 -44.2 Q108.75 -43.7 110.05 -41.9 L111.25 -39.75 111.65 -38.4 111.8 -37.4 111.85 -36.05 Q111.8 -33.95 111.2 -32.25 L110.75 -31.25 109.95 -30.05 109.3 -29.2 Q107.65 -27.55 105.45 -27.55 L103.75 -27.7 Q102.25 -28.2 101.0 -29.85 L100.8 -30.2 100.75 -30.25 Q100.05 -31.2 99.65 -32.3 L99.65 -32.45 99.45 -33.1 99.4 -33.2 99.25 -34.1 99.2 -34.75 99.15 -35.75 Q99.15 -37.45 99.65 -38.9" fill="#edd585" fill-rule="evenodd" stroke="none"/>
    <path d="M116.85 -15.85 L117.95 -14.6 116.4 -14.15 116.85 -15.85" fill="#c5c5c5" fill-rule="evenodd" stroke="none"/>
    <path d="M127.85 70.45 L126.4 70.5 Q123.15 70.5 120.25 69.15 L118.4 68.15 Q114.1 65.3 110.65 59.3 109.3 57.0 108.25 54.55 L107.3 52.05 Q104.15 43.3 104.15 32.3 104.15 28.0 104.6 24.1 105.1 20.0 106.15 16.3 107.25 12.0 109.1 8.2 109.8 6.65 110.65 5.25 113.05 1.15 115.8 -1.45 117.05 -2.6 118.4 -3.45 120.8 -5.05 123.5 -5.6 L126.4 -5.9 127.3 -5.8 128.55 -5.7 130.35 -5.3 133.35 -4.1 Q137.0 -2.1 140.1 2.15 L142.05 5.25 Q143.9 8.45 145.3 12.05 146.85 16.3 147.7 21.1 L146.4 19.05 Q144.45 16.3 142.05 14.9 140.7 14.05 139.2 13.7 L136.8 12.3 Q135.1 11.6 133.3 11.45 L131.95 11.35 Q129.65 11.3 127.6 12.1 125.65 12.85 123.9 14.25 122.2 15.65 120.7 17.75 119.35 19.65 118.4 21.8 118.05 22.5 117.85 23.2 116.45 26.85 116.2 31.1 116.1 32.15 116.15 33.25 116.1 39.65 118.4 44.75 119.35 46.85 120.7 48.75 L122.45 50.9 Q126.55 55.25 131.95 55.25 L133.3 55.15 Q135.1 55.0 136.8 54.25 139.2 53.2 141.35 51.0 144.15 49.55 146.4 46.3 L147.55 44.65 Q145.9 52.75 142.05 59.3 138.3 65.8 133.65 68.55 131.2 69.95 128.55 70.4 L127.85 70.45 M133.65 68.55 L133.3 55.15 133.65 68.55 M118.4 44.75 L118.4 68.15 118.4 44.75 M118.4 -3.45 L118.4 21.8 118.4 -3.45 M133.3 11.45 L133.35 -4.1 133.3 11.45" fill="#9f8577" fill-rule="evenodd" stroke="none"/>
    <path d="M139.2 13.7 L136.55 13.4 133.3 13.85 132.5 14.15 132.3 14.2 Q129.65 15.35 127.45 18.05 L126.65 19.05 Q123.2 23.95 122.7 30.5 L122.6 32.75 Q122.6 38.4 124.65 42.9 L125.65 44.8 126.65 46.3 Q129.15 49.8 132.3 51.15 L133.3 51.6 136.55 52.1 Q139.1 52.1 141.35 51.0 139.2 53.2 136.8 54.25 135.1 55.0 133.3 55.15 L131.95 55.25 Q126.55 55.25 122.45 50.9 L120.7 48.75 Q119.35 46.85 118.4 44.75 116.1 39.65 116.15 33.25 116.1 32.15 116.2 31.1 116.45 26.85 117.85 23.2 118.05 22.5 118.4 21.8 119.35 19.65 120.7 17.75 122.2 15.65 123.9 14.25 125.65 12.85 127.6 12.1 129.65 11.3 131.95 11.35 L133.3 11.45 Q135.1 11.6 136.8 12.3 L139.2 13.7" fill="#aaaaaa" fill-rule="evenodd" stroke="none"/>
    <path d="M145.5 24.15 Q146.95 25.6 146.95 27.7 146.95 29.8 145.5 31.3 144.0 32.75 141.9 32.75 139.8 32.75 138.35 31.3 136.9 29.8 136.9 27.7 136.9 25.6 138.35 24.15 139.8 22.7 141.9 22.7 144.0 22.7 145.5 24.15" fill="#f5f4f7" fill-rule="evenodd" stroke="none"/>
    <path d="M94.7 16.7 Q93.9 20.55 93.6 24.8 L90.9 24.6 87.4 24.35 81.85 23.0 Q79.95 17.8 81.9 15.0 L82.4 15.15 83.45 15.55 90.4 16.35 91.1 16.4 94.7 16.7" fill="#684942" fill-rule="evenodd" stroke="none"/>
    <path d="M69.4 12.7 Q69.35 10.0 70.6 8.05 L70.8 7.6 71.25 7.05 71.5 7.6 71.6 8.0 Q72.05 8.9 72.85 9.7 L73.45 10.4 74.5 11.3 77.9 13.3 80.35 14.35 81.85 15.0 81.9 15.0 Q79.95 17.8 81.85 23.0 76.3 21.35 72.95 18.85 71.05 17.5 69.85 15.95 69.4 14.2 69.4 12.7" fill="#956c5e" fill-rule="evenodd" stroke="none"/>
    <path d="M94.05 -103.7 L92.7 -103.8 Q89.45 -103.8 86.65 -102.85 82.35 -101.4 78.95 -97.8 75.55 -94.25 74.2 -89.8 L73.9 -88.7 M94.05 -103.7 Q101.2 -103.3 106.4 -97.8 112.1 -91.8 112.1 -83.3 L112.0 -80.7" fill="none" stroke="#999999" stroke-linecap="round" stroke-linejoin="round" stroke-width="0.05"/>
    <path d="M108.25 -50.55 L109.8 -51.6 Q115.0 -52.05 116.95 -46.85 L122.6 -41.8 Q123.85 -40.4 124.6 -38.55 M134.4 -11.65 Q139.55 -8.3 143.8 -1.65 152.5 11.95 152.55 31.2 152.5 50.4 143.8 63.95 139.15 71.25 133.45 74.65 M47.85 -1.7 L33.3 -13.75 M36.95 -22.4 L37.05 -22.35 43.9 -18.4 55.4 -14.5 M65.95 -48.75 Q66.65 -50.15 67.45 -50.95 68.45 -52.05 72.3 -52.3 L73.2 -52.35 73.2 -52.4 73.3 -52.5 Q72.95 -54.9 76.65 -56.6 M33.6 -146.8 L33.3 -148.4 M33.6 -146.8 L33.75 -146.2 Q33.7 -144.15 33.3 -142.4 M108.25 -50.55 L106.9 -49.45 104.55 -47.9 Q102.0 -46.45 99.4 -45.85 L84.2 -45.25 Q77.05 -46.35 77.6 -53.85 L77.7 -54.65 M73.2 -52.35 Q71.55 -50.8 71.6 -47.65 71.65 -45.8 71.85 -43.9 74.4 -39.55 79.5 -38.05 L84.65 -37.25 89.75 -37.4 99.65 -38.9 M116.8 -45.65 L116.95 -46.85 M65.95 -48.75 L65.05 -46.7 Q63.9 -43.8 64.15 -39.9 64.3 -37.85 65.2 -35.75 65.9 -33.9 67.25 -32.05 L71.1 -26.95 Q74.85 -25.5 79.65 -25.45 88.45 -25.4 100.8 -30.2 M99.4 -33.1 L94.45 -31.4 Q90.45 -30.4 86.4 -29.8 L80.55 -29.5 76.1 -29.45 M47.85 -1.7 L51.3 1.05 Q53.4 -4.6 55.9 -8.2 L56.2 -8.5 M116.15 -41.0 L116.8 -45.65 M112.5 -38.5 L111.65 -38.4 M117.95 -14.6 L120.0 -15.0 122.95 -15.15 125.25 -15.05 M109.3 -29.2 L111.15 -27.8 M99.4 -33.1 L99.45 -33.1 M116.4 -14.15 L117.95 -14.6 M127.85 70.45 L126.4 70.5 Q123.15 70.5 120.25 69.15 L118.4 68.15 Q114.1 65.3 110.65 59.3 109.3 57.0 108.25 54.55 L107.3 52.05 Q104.15 43.3 104.15 32.3 104.15 28.0 104.6 24.1 105.1 20.0 106.15 16.3 107.25 12.0 109.1 8.2 109.8 6.65 110.65 5.25 113.05 1.15 115.8 -1.45 117.05 -2.6 118.4 -3.45 120.8 -5.05 123.5 -5.6 L126.4 -5.9 127.3 -5.8 128.55 -5.7 130.35 -5.3 133.35 -4.1 Q137.0 -2.1 140.1 2.15 L142.05 5.25 Q143.9 8.45 145.3 12.05 146.85 16.3 147.7 21.1 150.5 26.15 150.5 32.75 150.5 39.55 147.55 44.65 145.9 52.75 142.05 59.3 138.3 65.8 133.65 68.55 131.2 69.95 128.55 70.4 L127.85 70.45 M126.0 -14.95 L125.25 -15.05 M116.4 -14.15 Q108.25 -11.45 101.95 -1.65 96.8 6.5 94.7 16.7 93.9 20.55 93.6 24.8 93.35 27.9 93.35 31.2 93.35 44.75 97.65 55.5 99.45 59.95 101.95 63.95 106.65 71.25 112.4 74.65 M126.0 -14.95 L128.2 -14.5 Q131.45 -13.65 134.4 -11.65 M147.7 21.1 L146.4 19.05 Q144.45 16.3 142.05 14.9 140.7 14.05 139.2 13.7 L136.55 13.4 133.3 13.85 132.5 14.15 132.3 14.2 Q129.65 15.35 127.45 18.05 L126.65 19.05 Q123.2 23.95 122.7 30.5 L122.6 32.75 Q122.6 38.4 124.65 42.9 L125.65 44.8 126.65 46.3 Q129.15 49.8 132.3 51.15 L133.3 51.6 136.55 52.1 Q139.1 52.1 141.35 51.0 144.15 49.55 146.4 46.3 L147.55 44.65 M139.2 13.7 L136.8 12.3 Q135.1 11.6 133.3 11.45 L131.95 11.35 Q129.65 11.3 127.6 12.1 125.65 12.85 123.9 14.25 122.2 15.65 120.7 17.75 119.35 19.65 118.4 21.8 118.05 22.5 117.85 23.2 116.45 26.85 116.2 31.1 116.1 32.15 116.15 33.25 116.1 39.65 118.4 44.75 119.35 46.85 120.7 48.75 L122.45 50.9 Q126.55 55.25 131.95 55.25 L133.3 55.15 Q135.1 55.0 136.8 54.25 139.2 53.2 141.35 51.0" fill="none" stroke="#666666" stroke-linecap="round" stroke-linejoin="round" stroke-width="0.05"/>
    <path d="M73.9 -88.7 Q74.65 -87.9 76.0 -87.25 L78.0 -86.5 Q83.85 -84.7 96.05 -84.65 L100.75 -84.65 100.75 -81.2 100.65 -79.5 108.3 -79.15 Q110.55 -79.55 112.0 -80.7 L112.3 -81.05 112.45 -78.85 112.5 -77.2 117.6 -62.9 Q112.65 -56.9 107.95 -53.95 M72.95 -82.0 L72.95 -82.15 72.95 -82.5 73.15 -89.65 73.9 -88.7 M72.95 -82.5 L73.0 -81.95 72.95 -82.15 M102.3 -75.85 L105.5 -75.8 Q109.3 -76.05 111.4 -77.75 L111.9 -78.25 112.45 -78.85 M97.35 -67.6 L99.95 -75.85 99.95 -76.2 100.65 -76.1 100.65 -77.5 100.65 -79.5 M94.0 -56.75 L97.35 -67.6 M94.0 -56.75 L93.85 -56.45 96.0 -54.55 96.25 -54.3 97.65 -53.05 99.75 -51.15 103.3 -51.9 Q105.6 -52.55 107.95 -53.95 M102.3 -75.85 L100.65 -76.1" fill="none" stroke="#7d8193" stroke-linecap="round" stroke-linejoin="round" stroke-width="0.05"/>
    <path d="M73.3 -75.5 L73.1 -75.65 Q71.55 -76.85 71.85 -78.9 L71.85 -79.05 71.95 -79.4 Q72.15 -80.6 72.95 -82.0 M73.3 -75.5 L73.9 -75.1 74.0 -74.95 74.95 -74.6 75.2 -74.55 76.0 -74.35 77.55 -74.05 78.0 -74.0 78.15 -74.0 Q81.25 -73.7 85.75 -74.05 L91.6 -74.8 91.75 -74.8 98.6 -75.9 99.95 -76.2" fill="none" stroke="#9599a6" stroke-linecap="round" stroke-linejoin="round" stroke-width="0.05"/>
    <path d="M85.75 -74.05 L84.25 -72.65 84.35 -72.7 89.15 -74.1 93.45 -73.7 93.3 -73.85 91.75 -74.8 93.55 -73.75 93.3 -73.85 M96.55 -70.35 L97.0 -71.35 Q98.2 -73.95 98.6 -75.9 M97.35 -67.6 L96.7 -69.95 96.5 -70.3 96.55 -70.35 M96.05 -54.1 L96.25 -54.3 M96.05 -54.1 L94.65 -52.05 Q96.2 -52.2 97.65 -53.05" fill="none" stroke="#4b2e2e" stroke-linecap="round" stroke-linejoin="round" stroke-width="0.05"/>
    <path d="M33.3 -30.05 L34.3 -29.9 36.95 -22.4 M76.65 -56.6 L76.25 -57.45 M73.5 -64.95 Q72.8 -68.1 73.0 -71.15 L73.3 -75.5 M76.15 -68.75 L77.8 -67.7 78.1 -71.25 78.0 -74.0 M74.4 -71.5 L75.4 -69.6 Q75.7 -68.95 76.15 -68.75 M74.4 -71.9 L74.35 -71.65 74.4 -71.5 M74.4 -71.9 Q74.75 -73.65 75.2 -74.55 M79.5 -62.05 Q77.25 -61.35 77.5 -63.6 78.2 -64.65 78.45 -66.25 78.7 -68.25 78.1 -71.25 M77.7 -54.65 L76.65 -56.6 M37.05 -19.7 Q35.6 -17.65 33.3 -16.35 M37.05 -19.7 L37.6 -20.55 36.95 -22.4 M86.75 -64.5 Q89.3 -64.0 91.2 -64.9 90.7 -71.5 85.75 -71.65 84.35 -69.2 84.1 -65.35 85.35 -64.8 86.5 -64.55 L86.75 -64.5 M78.85 -58.4 Q80.4 -57.3 82.75 -56.5 L82.85 -56.45 86.05 -55.65 M96.0 -54.55 L95.25 -54.05 M81.2 -49.6 Q86.25 -47.9 95.25 -54.05 M77.7 -54.65 Q79.7 -50.95 81.2 -49.6" fill="none" stroke="#d7995e" stroke-linecap="round" stroke-linejoin="round" stroke-width="0.05"/>
    <path d="M76.25 -57.45 L72.05 -61.6 73.5 -64.95 73.6 -65.1 M76.55 -57.2 L76.25 -57.45" fill="none" stroke="#912b5f" stroke-linecap="round" stroke-linejoin="round" stroke-width="0.05"/>
    <path d="M71.25 7.05 Q68.85 3.5 70.2 -1.1 L70.6 -2.4 70.8 -3.45 69.95 -20.05 69.9 -21.05 M72.3 -52.3 L72.55 -52.35 73.2 -52.4 M80.35 14.35 L80.05 13.65 79.05 10.75 Q77.0 3.2 80.3 -5.25 78.4 -17.25 79.65 -25.45 M94.7 16.7 L91.1 16.4 90.4 16.35 83.45 15.55 82.4 15.15 81.9 15.0 M80.35 14.35 L81.85 15.0 81.9 15.0 M71.25 7.05 L71.5 7.6 71.6 8.0 Q72.05 8.9 72.85 9.7 L73.45 10.4 74.5 11.3 77.9 13.3 80.35 14.35" fill="none" stroke="#548584" stroke-linecap="round" stroke-linejoin="round" stroke-width="0.05"/>
    <path d="M124.6 -38.55 Q128.9 -35.5 131.8 -29.85 134.6 -24.25 134.65 -19.1 L134.6 -17.65 Q134.5 -15.85 134.05 -14.45 L133.95 -14.2 133.8 -13.9 134.4 -11.65 M69.95 -20.05 L69.05 -16.85 Q67.9 -8.0 65.95 -5.1 66.25 -1.55 63.75 3.2 59.55 6.85 53.65 5.9 L50.55 0.55 47.85 -1.7 M55.4 -14.5 Q56.1 -16.95 58.15 -20.05 L59.5 -27.5 59.0 -29.45 58.75 -30.75 Q58.3 -35.4 60.4 -40.6 62.4 -45.7 65.95 -48.75 M59.5 -27.5 L59.85 -26.65 59.9 -26.45 60.3 -25.75 M56.05 -8.65 Q55.55 -9.3 55.3 -10.05 54.6 -11.9 55.4 -14.5 M113.85 -20.55 Q115.2 -17.9 116.85 -15.85 L117.95 -14.6 M124.6 -38.55 L123.55 -39.25 Q119.55 -41.85 116.2 -41.0" fill="none" stroke="#425337" stroke-linecap="round" stroke-linejoin="round" stroke-width="0.05"/>
    <path d="M66.6 -27.3 Q65.05 -31.5 65.2 -35.75 M69.9 -21.05 L68.65 -22.9 68.05 -24.0 Q67.15 -25.65 66.6 -27.3" fill="none" stroke="#a0a0a0" stroke-linecap="round" stroke-linejoin="round" stroke-width="0.05"/>
    <path d="M107.95 -53.95 L108.25 -50.55 M94.25 74.65 L95.25 59.15 95.45 55.4 90.75 55.15 Q90.9 62.4 91.3 68.3 L90.6 72.4 91.05 74.65 M63.9 74.65 L64.4 64.2 64.55 64.05 64.5 63.5 67.5 46.65 67.6 45.95 Q65.7 44.25 63.9 42.0 65.4 23.45 69.4 12.7 M95.25 -54.05 L96.05 -54.1 M97.65 55.5 L95.45 55.4 M90.75 55.15 Q87.2 55.0 86.6 55.2 L84.1 55.05 Q82.2 54.45 81.15 52.55 79.65 50.85 78.4 50.35 77.4 49.95 76.6 50.35 71.9 49.75 67.6 45.95 M90.15 74.65 L90.6 72.4 M81.15 52.55 L81.5 45.7 M86.6 55.2 L86.45 38.5 M64.55 64.05 Q65.45 70.85 66.55 74.65 M76.6 50.35 L76.3 41.35" fill="none" stroke="#324824" stroke-linecap="round" stroke-linejoin="round" stroke-width="0.05"/>
    <path d="M99.65 -38.9 Q100.1 -40.4 101.05 -41.65 102.25 -43.2 103.7 -43.9 L104.9 -44.25 105.25 -44.3 105.6 -44.35 106.95 -44.2 Q108.75 -43.7 110.05 -41.9 L111.25 -39.75 M100.8 -30.2 L100.75 -30.25 Q100.05 -31.2 99.65 -32.3 L99.4 -33.1 M99.25 -34.1 L99.2 -34.75 99.15 -35.75 Q99.15 -37.45 99.65 -38.9 M111.65 -38.4 L111.8 -37.4 M111.65 -38.4 L111.25 -39.75 M111.2 -32.25 L110.75 -31.25 109.95 -30.05 109.3 -29.2 Q107.65 -27.55 105.45 -27.55 L103.75 -27.7 Q102.25 -28.2 101.0 -29.85 L100.8 -30.2 M111.2 -32.25 Q111.8 -33.95 111.85 -36.05 L111.8 -37.4 M99.4 -33.2 L99.4 -33.1 M99.4 -33.2 L99.25 -34.1" fill="none" stroke="#796111" stroke-linecap="round" stroke-linejoin="round" stroke-width="0.05"/>
    <path d="M69.4 12.7 Q69.35 10.0 70.6 8.05 L70.8 7.6 71.25 7.05 M81.85 23.0 L87.4 24.35 90.9 24.6 93.6 24.8 M69.4 12.7 Q69.4 14.2 69.85 15.95 71.05 17.5 72.95 18.85 76.3 21.35 81.85 23.0" fill="none" stroke="#3f2c27" stroke-linecap="round" stroke-linejoin="round" stroke-width="0.05"/>
    <path d="M133.3 55.15 L133.65 68.55 M118.4 68.15 L118.4 44.75 M133.35 -4.1 L133.3 11.45 M118.4 21.8 L118.4 -3.45" fill="none" stroke="#604b44" stroke-linecap="round" stroke-linejoin="round" stroke-width="0.05"/>
  </g>
</svg>
