<?xml version="1.0" encoding="UTF-8" standalone="no"?>
<svg xmlns:xlink="http://www.w3.org/1999/xlink" height="161.85px" width="82.45px" xmlns="http://www.w3.org/2000/svg">
  <g transform="matrix(1, 0, 0, 1, -54.55, 105.6)">
    <path d="M80.9 -102.25 Q82.65 -103.5 84.7 -104.2 89.55 -106.15 95.85 -105.4 L99.65 -104.9 104.6 -104.95 Q107.1 -105.05 109.4 -102.3 112.3 -98.9 114.9 -90.95 L117.0 -83.9 117.2 -82.2 Q116.05 -79.95 113.6 -78.85 110.95 -77.65 106.85 -77.75 L106.95 -80.0 Q106.9 -84.85 106.25 -88.8 104.95 -96.15 101.25 -100.2 L99.65 -101.75 101.25 -100.2 Q104.95 -96.15 106.25 -88.8 106.9 -84.85 106.95 -80.0 L106.85 -77.75 106.85 -76.95 106.85 -76.75 106.65 -73.7 106.4 -72.7 105.7 -70.3 105.5 -69.8 Q103.95 -65.7 100.9 -62.15 98.45 -59.2 94.95 -56.6 L94.35 -56.15 94.65 -56.6 96.6 -59.6 Q98.2 -62.5 99.2 -65.4 100.0 -67.75 100.4 -70.1 100.9 -73.4 100.65 -76.75 100.3 -81.45 98.45 -86.2 99.25 -81.1 98.85 -76.75 98.1 -74.65 97.05 -72.8 L95.1 -70.2 Q97.75 -75.8 93.3 -89.6 L93.3 -84.6 90.85 -79.95 90.2 -78.8 89.55 -77.55 89.75 -78.8 90.0 -79.95 Q91.1 -86.2 90.85 -89.45 90.6 -92.0 89.55 -92.8 88.05 -92.6 85.65 -89.45 85.1 -94.9 83.75 -93.3 83.35 -91.9 83.2 -90.35 82.6 -85.6 83.9 -79.55 80.95 -82.95 80.55 -88.9 78.35 -86.7 77.5 -82.7 L77.4 -82.2 Q77.0 -80.25 76.95 -77.85 L76.95 -76.05 77.15 -72.45 76.45 -73.7 76.25 -74.0 Q74.7 -77.15 74.6 -82.05 L74.6 -84.5 Q74.7 -87.6 75.3 -91.25 74.7 -87.6 74.6 -84.5 L74.6 -82.05 Q74.45 -72.4 76.4 -61.65 72.2 -70.75 72.35 -83.9 72.45 -97.1 78.15 -102.8 L80.9 -102.25 84.7 -100.5 80.9 -102.25 M80.55 -92.25 L80.55 -88.9 80.55 -92.25" fill="#c59e73" fill-rule="evenodd" stroke="none"/>
    <path d="M77.4 -82.2 L77.5 -82.7 Q80.35 -83.25 81.95 -79.4 79.55 -81.8 77.4 -82.2 M90.0 -79.95 L89.75 -78.8 86.45 -78.5 Q88.3 -79.8 90.0 -79.95 M90.2 -78.8 L90.85 -79.95 Q93.35 -79.85 95.6 -77.2 93.35 -78.7 90.2 -78.8" fill="#503e53" fill-rule="evenodd" stroke="none"/>
    <path d="M77.8 -74.55 L77.8 -74.6 Q77.4 -75.5 77.45 -76.7 77.5 -77.8 77.85 -78.55 L78.45 -78.15 78.3 -78.0 Q77.95 -77.5 77.95 -76.75 77.9 -76.0 78.2 -75.45 78.45 -74.9 78.85 -74.9 79.25 -74.9 79.6 -75.45 L79.95 -76.7 79.95 -77.15 80.45 -76.8 80.45 -76.7 Q80.4 -75.5 79.95 -74.6 79.45 -73.75 78.8 -73.7 L78.5 -73.8 Q78.1 -73.95 77.8 -74.55 M91.4 -73.25 L91.4 -72.8 Q91.35 -71.4 90.8 -70.4 90.15 -69.5 89.3 -69.5 88.5 -69.5 87.95 -70.4 87.45 -71.4 87.5 -72.8 L87.65 -73.6 88.25 -73.55 88.15 -72.9 Q88.1 -72.0 88.5 -71.35 88.85 -70.8 89.4 -70.8 89.9 -70.8 90.35 -71.35 90.75 -72.0 90.8 -72.8 L90.8 -73.35 91.4 -73.25" fill="#4489bb" fill-rule="evenodd" stroke="none"/>
    <path d="M69.5 16.95 L69.6 21.05 65.15 17.5 63.15 17.55 62.95 17.65 61.15 17.8 56.2 19.6 Q60.25 17.95 63.2 15.0 67.25 17.1 69.5 16.95 M80.75 -60.85 L79.35 -63.15 Q77.1 -68.25 76.45 -73.7 L77.15 -72.45 76.95 -76.05 Q77.3 -75.25 77.8 -74.55 78.1 -73.95 78.5 -73.8 L80.15 -72.7 80.5 -76.25 80.55 -76.75 80.45 -76.8 79.95 -77.15 79.75 -77.25 78.45 -78.15 77.85 -78.55 77.3 -78.95 76.95 -77.85 Q77.0 -80.25 77.4 -82.2 79.55 -81.8 81.95 -79.4 80.35 -83.25 77.5 -82.7 78.35 -86.7 80.55 -88.9 80.95 -82.95 83.9 -79.55 82.6 -85.6 83.2 -90.35 L85.65 -89.45 90.85 -89.45 Q91.1 -86.2 90.0 -79.95 88.3 -79.8 86.45 -78.5 L89.75 -78.8 89.55 -77.55 90.2 -78.8 Q93.35 -78.7 95.6 -77.2 93.35 -79.85 90.85 -79.95 L93.3 -84.6 93.3 -89.6 Q97.75 -75.8 95.1 -70.2 L97.05 -72.8 Q96.85 -67.6 95.95 -63.0 92.0 -60.45 85.15 -57.25 L84.45 -56.9 83.75 -57.5 80.75 -60.85 M106.4 -72.7 L106.65 -73.7 106.85 -76.75 107.45 -76.95 107.6 -77.0 Q108.7 -77.15 109.3 -76.4 L109.75 -75.6 Q110.3 -73.85 110.0 -72.15 L109.85 -71.1 Q109.5 -73.0 107.45 -73.85 L106.55 -72.9 106.4 -72.7 M77.3 -78.95 Q78.35 -81.75 80.3 -79.45 L80.55 -76.75 80.3 -79.45 Q78.35 -81.75 77.3 -78.95 M79.85 -68.6 Q80.6 -69.65 80.85 -71.25 81.05 -73.3 80.5 -76.25 81.05 -73.3 80.85 -71.25 80.6 -69.65 79.85 -68.6 79.65 -66.35 81.9 -67.1 80.65 -67.65 79.85 -68.6 M87.65 -73.6 L86.95 -73.7 Q86.55 -72.2 86.45 -70.35 90.75 -68.55 93.6 -69.9 L92.9 -73.1 91.4 -73.25 90.8 -73.35 90.5 -73.35 88.85 -73.5 88.25 -73.55 87.65 -73.6 M92.9 -73.1 Q91.7 -76.55 88.15 -76.65 87.4 -75.4 86.95 -73.7 87.4 -75.4 88.15 -76.65 91.7 -76.55 92.9 -73.1 M83.8 -62.7 L80.95 -63.65 83.8 -62.7 M110.45 30.4 L110.4 30.15 109.1 28.05 103.65 25.8 106.65 22.85 Q108.0 25.4 112.2 28.2 111.95 33.5 113.45 39.1 L111.55 32.55 110.45 30.4" fill="#ffdfc8" fill-rule="evenodd" stroke="none"/>
    <path d="M79.75 -77.25 L79.95 -77.15 79.95 -76.7 79.6 -75.45 Q79.25 -74.9 78.85 -74.9 78.45 -74.9 78.2 -75.45 77.9 -76.0 77.95 -76.75 77.95 -77.5 78.3 -78.0 L78.45 -78.15 78.4 -77.95 Q78.35 -77.55 78.6 -77.2 78.8 -76.95 79.2 -76.95 L79.75 -77.2 79.75 -77.25 M90.8 -73.35 L90.8 -72.8 Q90.75 -72.0 90.35 -71.35 89.9 -70.8 89.4 -70.8 88.85 -70.8 88.5 -71.35 88.1 -72.0 88.15 -72.9 L88.25 -73.55 88.85 -73.5 89.05 -73.35 Q89.3 -73.05 89.75 -73.05 90.2 -73.05 90.5 -73.35 L90.8 -73.35" fill="#000000" fill-rule="evenodd" stroke="none"/>
    <path d="M109.2 -59.6 L109.45 -57.4 Q109.25 -56.1 104.95 -55.2 L103.85 -55.0 103.35 -54.95 94.55 -54.35 90.9 -54.5 90.55 -46.55 98.85 -46.0 96.85 -35.15 90.35 -35.55 90.0 -28.85 98.5 -28.9 107.45 -29.05 112.0 -29.25 112.15 -28.55 Q112.9 -28.75 113.7 -28.25 114.7 -27.7 115.7 -26.0 L115.8 -25.85 Q116.9 -23.9 118.0 -20.45 L118.8 -20.25 118.9 -20.25 Q123.7 -19.3 129.95 -22.2 L132.15 -23.3 Q133.75 -22.5 133.8 -18.5 132.85 -17.35 131.5 -16.45 L131.0 -16.1 Q127.45 -14.05 121.45 -13.7 L119.65 -13.65 117.1 -16.2 Q115.05 -18.55 114.7 -20.35 L114.45 -21.15 113.0 -25.75 113.0 -25.8 106.55 -25.8 103.6 -25.85 85.8 -24.85 85.9 -26.6 Q81.0 -27.25 77.55 -28.9 L75.2 -30.2 Q73.25 -30.95 72.15 -31.6 L71.15 -32.1 Q69.1 -33.45 70.7 -35.4 71.55 -34.65 76.4 -32.7 L78.85 -31.75 79.15 -31.65 Q82.1 -30.6 85.95 -29.9 L85.9 -26.6 85.95 -29.9 86.7 -38.35 93.65 -37.6 94.65 -42.75 87.5 -43.2 88.05 -54.6 85.2 -54.95 84.7 -55.0 84.05 -55.15 83.25 -55.35 82.3 -55.55 Q79.55 -56.4 79.2 -57.4 L79.55 -59.6 Q79.6 -58.4 83.75 -57.5 L84.45 -56.9 Q86.15 -56.65 88.1 -56.85 L88.15 -56.85 88.05 -54.6 88.15 -56.85 94.35 -56.6 94.2 -56.3 94.2 -56.15 94.35 -56.15 94.95 -56.6 103.35 -57.25 103.7 -57.3 104.9 -57.45 Q109.25 -58.35 109.2 -59.6 M136.65 2.05 Q137.7 3.6 135.6 4.6 127.4 7.1 122.4 -1.4 121.3 -4.65 123.95 -4.55 L125.95 -1.25 Q130.15 4.2 136.65 2.05 M119.7 49.65 Q120.65 50.2 120.0 52.65 L118.55 53.4 Q111.35 56.85 102.7 54.3 L101.25 53.85 98.15 17.3 96.4 17.25 92.2 17.0 89.2 16.75 84.3 15.55 81.45 14.55 81.1 14.4 81.45 14.55 79.65 45.65 77.9 45.85 75.95 45.9 Q72.6 46.0 71.2 44.65 L70.7 44.1 69.7 43.15 Q69.3 40.65 69.8 40.15 L71.15 41.7 71.75 42.3 Q73.3 43.85 76.7 43.5 L78.95 13.4 81.1 14.4 Q80.1 13.9 80.15 12.05 L80.3 12.1 80.6 5.95 Q80.7 2.6 82.1 2.5 L82.55 2.55 84.6 3.3 85.05 3.45 87.6 4.05 Q93.45 5.3 101.45 4.8 L105.2 4.45 106.05 4.35 Q109.4 3.8 111.25 2.5 112.3 3.05 112.45 4.05 112.6 5.05 112.1 6.05 L111.75 6.2 108.35 7.45 102.0 8.5 99.75 8.7 Q91.2 9.15 86.9 7.9 L83.7 6.95 83.45 12.05 Q83.1 12.5 86.4 13.35 L95.45 13.95 97.05 13.95 97.85 14.1 Q101.15 14.55 101.0 17.0 L101.1 17.0 104.05 52.1 Q111.7 54.6 118.1 50.7 L119.7 49.65 M74.25 -1.6 Q74.2 -3.55 75.35 -3.65 L75.55 -3.2 75.65 -2.8 76.6 -1.45 76.7 -1.35 77.3 -0.7 Q78.3 0.3 79.85 1.2 L82.1 2.35 82.55 2.55 82.1 2.5 Q80.7 2.6 80.6 5.95 L79.55 5.5 Q75.05 3.3 74.55 0.75 74.25 -0.65 74.25 -1.6 M75.75 -25.85 L75.75 -25.9 75.95 -25.9 75.95 -25.85 75.75 -25.85 M75.25 -26.55 L73.7 -26.45 Q67.5 -26.4 64.0 -28.6 L62.25 -29.95 Q62.0 -33.55 63.4 -34.4 L64.95 -33.75 Q68.3 -32.4 71.15 -32.1 L72.15 -31.6 72.55 -30.75 73.05 -29.8 Q74.0 -28.15 75.25 -26.55 M72.8 -13.4 Q74.3 -12.35 72.75 -11.0 66.2 -6.85 58.55 -12.95 56.4 -15.55 58.85 -16.05 66.4 -9.15 72.8 -13.4 M70.15 15.0 Q70.75 16.65 69.5 16.95 67.25 17.1 63.2 15.0 60.25 17.95 56.2 19.6 L55.4 19.9 Q53.95 19.4 54.95 17.1 60.05 15.5 62.15 12.05 67.4 14.9 70.15 15.0 M76.95 -77.85 L77.3 -78.95 77.85 -78.55 Q77.5 -77.8 77.45 -76.7 77.4 -75.5 77.8 -74.6 L77.8 -74.55 Q77.3 -75.25 76.95 -76.05 L76.95 -77.85 M78.45 -78.15 L79.75 -77.25 79.75 -77.2 79.2 -76.95 Q78.8 -76.95 78.6 -77.2 78.35 -77.55 78.4 -77.95 L78.45 -78.15 M80.45 -76.8 L80.55 -76.75 80.5 -76.25 80.15 -72.7 78.5 -73.8 78.8 -73.7 Q79.45 -73.75 79.95 -74.6 80.4 -75.5 80.45 -76.7 L80.45 -76.8 M76.05 -21.6 L76.05 -21.5 76.0 -21.6 76.05 -21.6 M87.65 -73.6 L87.5 -72.8 Q87.45 -71.4 87.95 -70.4 88.5 -69.5 89.3 -69.5 90.15 -69.5 90.8 -70.4 91.35 -71.4 91.4 -72.8 L91.4 -73.25 92.9 -73.1 93.6 -69.9 Q90.75 -68.55 86.45 -70.35 86.55 -72.2 86.95 -73.7 L87.65 -73.6 M90.5 -73.35 Q90.2 -73.05 89.75 -73.05 89.3 -73.05 89.05 -73.35 L88.85 -73.5 90.5 -73.35 M94.2 -56.15 L94.2 -56.1 94.35 -56.15 94.2 -56.1 94.2 -56.15 M106.65 22.85 Q106.05 21.3 107.65 20.7 109.5 23.6 114.95 27.25 113.85 32.0 116.05 38.65 115.05 41.4 113.8 40.2 L113.45 39.1 Q111.95 33.5 112.2 28.2 108.0 25.4 106.65 22.85" fill="#ffffff" fill-rule="evenodd" stroke="none"/>
    <path d="M109.45 -57.4 L110.55 -49.4 110.2 -49.2 110.35 -49.2 111.75 -48.45 112.7 -47.85 116.1 -45.6 116.25 -45.5 Q126.0 -44.95 129.65 -32.5 L132.15 -23.3 129.95 -22.2 Q123.7 -19.3 118.9 -20.25 L118.8 -20.25 118.0 -20.45 Q116.9 -23.9 115.8 -25.85 L115.7 -26.0 Q114.7 -27.7 113.7 -28.25 112.9 -28.75 112.15 -28.55 L112.0 -29.25 107.45 -29.05 98.5 -28.9 90.0 -28.85 90.35 -35.55 96.85 -35.15 98.85 -46.0 90.55 -46.55 90.9 -54.5 94.55 -54.35 103.35 -54.95 103.85 -55.0 104.95 -55.2 Q109.25 -56.1 109.45 -57.4 M118.3 34.35 Q119.3 41.8 119.7 49.65 L118.1 50.7 Q111.7 54.6 104.05 52.1 L101.1 17.0 101.0 17.0 Q101.15 14.55 97.85 14.1 L97.05 13.95 95.45 13.95 86.4 13.35 Q83.1 12.5 83.45 12.05 L83.7 6.95 86.9 7.9 Q91.2 9.15 99.75 8.7 L102.0 8.5 108.35 7.45 111.75 6.2 112.1 6.05 112.6 8.55 112.6 10.8 112.6 8.55 114.25 14.2 113.3 14.95 Q111.85 16.15 111.45 17.95 L111.45 18.8 110.75 18.75 107.65 20.7 Q106.05 21.3 106.65 22.85 L103.65 25.8 105.45 31.8 104.7 34.1 104.85 34.15 113.8 40.2 Q115.05 41.4 116.05 38.65 L118.3 34.35 M69.8 40.15 Q70.6 17.75 74.2 -1.55 L74.25 -1.6 Q74.25 -0.65 74.55 0.75 75.05 3.3 79.55 5.5 L80.6 5.95 80.3 12.1 80.15 12.05 Q80.1 13.9 81.1 14.4 L78.95 13.4 76.7 43.5 Q73.3 43.85 71.75 42.3 L71.15 41.7 69.8 40.15 M63.4 -34.4 L64.75 -42.8 Q66.9 -54.15 75.55 -55.25 L76.45 -55.45 78.4 -55.8 78.7 -55.85 78.85 -55.9 78.95 -55.9 79.2 -57.4 Q79.55 -56.4 82.3 -55.55 L83.25 -55.35 84.05 -55.15 84.7 -55.0 85.2 -54.95 88.05 -54.6 87.5 -43.2 94.65 -42.75 93.65 -37.6 86.7 -38.35 85.95 -29.9 Q82.1 -30.6 79.15 -31.65 L78.85 -31.75 76.4 -32.7 Q71.55 -34.65 70.7 -35.4 69.1 -33.45 71.15 -32.1 68.3 -32.4 64.95 -33.75 L63.4 -34.4 M80.0 -47.0 Q78.85 -48.4 78.3 -50.1 L78.25 -50.25 78.85 -55.9 78.25 -50.25 78.3 -50.1 Q78.85 -48.4 80.0 -47.0 M70.15 -42.75 Q69.7 -39.05 70.7 -35.4 69.7 -39.05 70.15 -42.75 M84.6 3.3 L84.65 3.3 85.05 3.45 84.6 3.3 M93.9 -51.95 Q93.25 -51.3 93.2 -50.5 93.25 -49.6 93.8 -48.95 94.45 -48.35 95.3 -48.35 96.15 -48.3 96.8 -48.95 97.55 -49.65 97.5 -50.55 97.5 -51.35 96.85 -51.95 96.3 -52.65 95.4 -52.7 94.6 -52.65 93.9 -51.95 M103.7 -45.8 L106.55 -47.0 Q108.45 -48.0 110.2 -49.2 108.45 -48.0 106.55 -47.0 L103.7 -45.8 M114.65 -45.5 L116.25 -45.5 114.65 -45.5 M96.35 -32.5 L96.3 -33.05 95.85 -33.8 95.75 -33.9 Q95.15 -34.45 94.4 -34.5 93.6 -34.45 93.0 -33.9 92.45 -33.35 92.45 -32.55 92.4 -31.8 93.0 -31.25 93.6 -30.65 94.4 -30.7 95.15 -30.65 95.7 -31.2 96.3 -31.75 96.35 -32.5 M113.95 17.5 L113.7 17.4 113.75 16.8 113.95 17.5 M85.8 9.45 Q85.25 10.0 85.2 10.8 85.15 11.6 85.7 12.15 86.4 12.8 87.25 12.8 88.0 12.8 88.55 12.25 89.15 11.65 89.2 10.9 L89.15 10.3 88.7 9.6 88.6 9.4 Q88.0 8.9 87.2 8.85 86.4 8.9 85.8 9.45" fill="#536854" fill-rule="evenodd" stroke="none"/>
    <path d="M104.0 -61.95 L104.85 -61.8 Q109.2 -60.9 109.2 -59.6 109.25 -58.35 104.9 -57.45 L103.7 -57.3 103.35 -57.25 103.85 -61.95 104.0 -61.95 M79.55 -59.6 Q79.55 -60.3 80.75 -60.85 L83.75 -57.5 Q79.6 -58.4 79.55 -59.6" fill="#354435" fill-rule="evenodd" stroke="none"/>
    <path d="M106.85 -77.75 Q110.95 -77.65 113.6 -78.85 116.05 -79.95 117.2 -82.2 117.3 -76.45 109.1 -68.3 L109.8 -70.55 Q110.9 -75.1 109.3 -76.4 108.7 -77.15 107.6 -77.0 L106.85 -76.95 106.85 -77.75 M76.25 -74.0 L76.4 -61.65 Q74.45 -72.4 74.6 -82.05 74.7 -77.15 76.25 -74.0 M97.05 -72.8 Q98.1 -74.65 98.85 -76.75 99.25 -81.1 98.45 -86.2 100.3 -81.45 100.65 -76.75 100.9 -73.4 100.4 -70.1 100.0 -67.75 99.2 -65.4 98.2 -62.5 96.6 -59.6 L94.65 -56.6 94.35 -56.15 94.2 -56.3 94.35 -56.6 95.0 -58.85 95.95 -63.0 Q96.85 -67.6 97.05 -72.8" fill="#aa7948" fill-rule="evenodd" stroke="none"/>
    <path d="M131.7 -15.9 L134.5 -6.05 135.05 -5.55 135.6 -5.05 Q136.35 -2.7 136.8 1.6 L136.65 2.05 Q130.15 4.2 125.95 -1.25 L123.95 -4.55 124.6 -5.3 125.95 -1.25 124.6 -5.3 121.45 -13.7 Q127.45 -14.05 131.0 -16.1 L131.7 -15.9 M118.55 53.4 L118.95 55.65 118.95 56.25 102.75 56.25 102.7 54.3 Q111.35 56.85 118.55 53.4 M77.7 56.25 L72.3 56.25 Q71.2 52.8 70.35 46.1 L70.7 44.1 71.2 44.65 Q72.6 46.0 75.95 45.9 L77.9 45.85 77.55 49.35 Q77.4 53.25 77.7 56.25 M75.75 -25.9 L75.25 -26.55 Q74.0 -28.15 73.05 -29.8 L72.55 -30.75 72.15 -31.6 Q73.25 -30.95 75.2 -30.2 75.6 -28.95 75.8 -26.85 L75.95 -25.9 75.75 -25.9 M73.7 -26.45 L71.05 -16.7 72.75 -13.85 72.8 -13.4 Q66.4 -9.15 58.85 -16.05 59.35 -18.1 60.7 -19.4 61.4 -20.15 62.45 -20.4 L64.0 -28.6 Q67.5 -26.4 73.7 -26.45 M62.05 -18.2 L62.45 -20.4 62.05 -18.2 M105.2 4.45 Q103.1 -5.15 103.15 -15.55 103.15 -20.65 103.6 -25.85 L106.55 -25.8 113.0 -25.8 113.0 -25.75 114.45 -21.15 112.45 -15.6 Q110.5 -11.25 107.7 -7.35 L108.85 0.55 Q107.65 3.25 106.05 4.35 L105.2 4.45 M70.6 -14.95 L71.05 -16.7 70.6 -14.95" fill="#689b98" fill-rule="evenodd" stroke="none"/>
    <path d="M75.95 -25.65 L75.75 -25.85 75.95 -25.85 75.95 -25.65" fill="#96bebe" fill-rule="evenodd" stroke="none"/>
    <path d="M102.75 56.25 L95.3 56.25 96.3 41.65 Q96.6 36.8 96.2 25.1 L96.15 23.05 94.35 23.25 93.1 23.25 93.25 29.25 Q93.15 41.5 93.7 50.3 L92.65 56.25 77.7 56.25 Q77.4 53.25 77.55 49.35 L77.9 45.85 79.65 45.65 81.45 14.55 84.3 15.55 89.2 16.75 92.2 17.0 96.4 17.25 98.15 17.3 101.25 53.85 102.7 54.3 102.75 56.25 M75.35 -3.65 Q73.25 -6.75 74.4 -10.8 L75.7 -15.55 75.9 -16.25 75.9 -21.5 75.9 -23.4 75.95 -25.65 75.95 -25.85 75.95 -25.9 75.8 -26.85 Q75.6 -28.95 75.2 -30.2 L77.55 -28.9 Q81.0 -27.25 85.9 -26.6 L85.8 -24.85 103.6 -25.85 Q103.15 -20.65 103.15 -15.55 103.1 -5.15 105.2 4.45 L101.45 4.8 Q93.45 5.3 87.6 4.05 L85.05 3.45 84.65 3.3 84.6 3.3 82.55 2.55 82.1 2.35 79.85 1.2 Q78.3 0.3 77.3 -0.7 L76.7 -1.35 76.6 -1.45 75.65 -2.8 75.55 -3.2 75.35 -3.65 M76.05 -21.5 L76.05 -21.6 76.0 -21.6 76.0 -21.5 76.05 -21.5 M96.4 17.25 Q96.1 19.85 96.15 23.05 96.1 19.85 96.4 17.25 M87.65 22.6 L89.6 23.05 91.05 23.2 92.3 23.25 92.65 23.25 93.1 23.25 92.65 23.25 92.3 23.25 91.05 23.2 89.6 23.05 87.65 22.6" fill="#dcdeeb" fill-rule="evenodd" stroke="none"/>
    <path d="M135.6 4.6 L126.1 20.55 125.9 20.4 122.4 20.6 122.05 20.8 120.3 19.6 119.25 18.7 Q117.65 17.3 115.95 15.2 118.9 10.25 120.0 6.55 121.55 1.0 122.4 -1.4 127.4 7.1 135.6 4.6 M120.25 30.5 L118.3 34.35 116.05 38.65 Q113.85 32.0 114.95 27.25 109.5 23.6 107.65 20.7 L110.75 18.75 111.45 18.8 Q111.6 20.1 113.05 21.25 L112.95 22.2 112.95 22.6 Q113.65 24.95 115.8 26.4 L116.9 26.95 116.7 27.4 Q116.5 29.4 117.9 30.25 118.85 30.95 120.25 30.5 M72.75 -11.0 L69.05 10.65 69.5 11.25 70.15 15.0 Q67.4 14.9 62.15 12.05 60.05 15.5 54.95 17.1 L57.45 8.0 57.7 7.0 57.9 6.85 Q59.85 -0.75 59.3 -5.55 58.65 -10.7 58.55 -12.95 66.2 -6.85 72.75 -11.0 M68.6 13.15 L69.05 10.65 68.6 13.15 M57.45 8.0 L57.9 6.85 57.45 8.0" fill="#2f546f" fill-rule="evenodd" stroke="none"/>
    <path d="M76.05 -21.5 L76.0 -21.5 76.0 -21.6 76.05 -21.5" fill="#8bc087" fill-rule="evenodd" stroke="none"/>
    <path d="M109.8 -70.55 L109.75 -70.5 109.45 -69.65 109.1 -68.75 109.05 -68.5 108.95 -68.3 108.55 -67.5 106.05 -65.75 104.55 -64.6 104.0 -61.95 103.85 -61.95 103.35 -57.25 94.95 -56.6 Q98.45 -59.2 100.9 -62.15 103.95 -65.7 105.5 -69.8 L105.7 -70.3 106.4 -72.7 106.55 -72.9 107.45 -73.85 Q109.5 -73.0 109.85 -71.1 L110.0 -72.15 Q110.3 -73.85 109.75 -75.6 L109.3 -76.4 Q110.9 -75.1 109.8 -70.55 M69.6 21.05 L65.1 22.7 64.25 24.55 55.4 19.9 56.2 19.6 61.15 17.8 62.95 17.65 63.15 17.55 65.15 17.5 69.6 21.05 M106.85 -76.75 L106.85 -76.95 107.6 -77.0 107.45 -76.95 106.85 -76.75 M79.85 -68.6 Q80.65 -67.65 81.9 -67.1 79.65 -66.35 79.85 -68.6 M109.75 -70.5 L109.85 -71.1 109.75 -70.5 M88.15 -56.85 L88.1 -56.85 Q86.15 -56.65 84.45 -56.9 L85.15 -57.25 Q92.0 -60.45 95.95 -63.0 L95.0 -58.85 Q91.3 -57.2 88.15 -56.85 91.3 -57.2 95.0 -58.85 L94.35 -56.6 88.15 -56.85 M105.5 -68.2 L105.5 -69.8 105.5 -68.2 M107.15 -69.0 L105.7 -70.3 107.15 -69.0 M100.9 -62.15 L104.55 -64.6 100.9 -62.15 M110.4 30.15 L110.45 30.4 111.55 32.55 113.45 39.1 113.8 40.2 104.85 34.15 104.7 34.1 105.45 31.8 110.4 30.15 105.45 31.8 103.65 25.8 109.1 28.05 110.4 30.15 M63.15 17.55 L65.1 22.7 63.15 17.55" fill="#ffd0ae" fill-rule="evenodd" stroke="none"/>
    <path d="M83.2 -90.35 Q83.35 -91.9 83.75 -93.3 85.1 -94.9 85.65 -89.45 88.05 -92.6 89.55 -92.8 90.6 -92.0 90.85 -89.45 L85.65 -89.45 83.2 -90.35" fill="#976b42" fill-rule="evenodd" stroke="none"/>
    <path d="M94.35 -56.15 L94.2 -56.15 94.2 -56.3 94.35 -56.15" fill="#7a634d" fill-rule="evenodd" stroke="none"/>
    <path d="M93.9 -51.95 Q94.6 -52.65 95.4 -52.7 96.3 -52.65 96.85 -51.95 97.5 -51.35 97.5 -50.55 97.55 -49.65 96.8 -48.95 96.15 -48.3 95.3 -48.35 94.45 -48.35 93.8 -48.95 93.25 -49.6 93.2 -50.5 93.25 -51.3 93.9 -51.95 M95.7 -51.65 L95.4 -50.95 Q95.35 -50.55 95.7 -50.3 95.95 -50.0 96.3 -50.1 96.7 -50.1 96.9 -50.4 L97.15 -50.95 96.85 -51.65 96.25 -51.9 95.7 -51.65 M96.35 -32.5 Q96.3 -31.75 95.7 -31.2 95.15 -30.65 94.4 -30.7 93.6 -30.65 93.0 -31.25 92.4 -31.8 92.45 -32.55 92.45 -33.35 93.0 -33.9 93.6 -34.45 94.4 -34.5 95.15 -34.45 95.75 -33.9 L95.85 -33.8 96.3 -33.05 96.35 -32.5 M94.95 -32.0 Q95.4 -32.0 95.75 -32.25 L96.05 -33.0 95.75 -33.75 94.95 -34.05 94.25 -33.75 94.05 -33.05 Q94.0 -32.6 94.25 -32.25 94.55 -31.95 94.95 -32.0 M85.8 9.45 Q86.4 8.9 87.2 8.85 88.0 8.9 88.6 9.4 L88.7 9.6 89.15 10.3 89.2 10.9 Q89.15 11.65 88.55 12.25 88.0 12.8 87.25 12.8 86.4 12.8 85.7 12.15 85.15 11.6 85.2 10.8 85.25 10.0 85.8 9.45 M87.75 9.3 Q87.35 9.35 87.05 9.65 L86.85 10.3 Q86.8 10.8 87.05 11.15 87.35 11.45 87.8 11.4 L88.6 11.15 88.95 10.35 Q88.95 9.95 88.55 9.65 88.25 9.3 87.75 9.3" fill="#f2be48" fill-rule="evenodd" stroke="none"/>
    <path d="M95.7 -51.65 L96.25 -51.9 96.85 -51.65 97.15 -50.95 96.9 -50.4 Q96.7 -50.1 96.3 -50.1 95.95 -50.0 95.7 -50.3 95.35 -50.55 95.4 -50.95 L95.7 -51.65 M94.95 -32.0 Q94.55 -31.95 94.25 -32.25 94.0 -32.6 94.05 -33.05 L94.25 -33.75 94.95 -34.05 95.75 -33.75 96.05 -33.0 95.75 -32.25 Q95.4 -32.0 94.95 -32.0 M87.75 9.3 Q88.25 9.3 88.55 9.65 88.95 9.95 88.95 10.35 L88.6 11.15 87.8 11.4 Q87.35 11.45 87.05 11.15 86.8 10.8 86.85 10.3 L87.05 9.65 Q87.35 9.35 87.75 9.3" fill="#eff38f" fill-rule="evenodd" stroke="none"/>
    <path d="M131.5 -16.45 L131.7 -15.9 131.0 -16.1 131.5 -16.45 M106.05 4.35 Q107.65 3.25 108.85 0.55 L107.7 -7.35 Q110.5 -11.25 112.45 -15.6 L114.45 -21.15 114.7 -20.35 Q115.05 -18.55 117.1 -16.2 L116.85 -15.6 Q115.15 -12.25 112.95 -9.2 L114.05 -1.25 Q112.85 1.45 111.25 2.5 109.4 3.8 106.05 4.35" fill="#55807c" fill-rule="evenodd" stroke="none"/>
    <path d="M126.1 20.55 Q127.05 21.55 126.65 23.25 126.35 25.4 124.65 27.3 123.15 29.35 121.1 30.15 L120.25 30.5 Q118.85 30.95 117.9 30.25 116.5 29.4 116.7 27.4 L116.9 26.95 Q117.3 25.25 118.65 23.5 L118.85 23.2 Q120.35 21.7 122.05 20.8 L122.4 20.6 125.9 20.4 126.1 20.55 M111.45 18.8 L111.45 17.95 Q111.85 16.15 113.3 14.95 L114.25 14.2 114.35 14.15 114.3 14.4 113.75 16.8 113.7 17.4 113.55 18.1 113.05 21.25 Q111.6 20.1 111.45 18.8" fill="#847d31" fill-rule="evenodd" stroke="none"/>
    <path d="M114.6 14.15 L114.4 13.95 114.5 13.5 114.95 14.05 115.95 15.2 Q117.65 17.3 119.25 18.7 L120.3 19.6 116.9 19.2 117.4 22.4 115.05 22.7 115.8 26.4 Q113.65 24.95 112.95 22.6 L114.4 22.75 114.4 22.5 113.55 18.1 113.7 17.4 113.95 17.5 115.6 18.3 114.6 14.15" fill="#e0e0e0" fill-rule="evenodd" stroke="none"/>
    <path d="M122.05 20.8 Q120.35 21.7 118.85 23.2 L118.65 23.5 Q117.3 25.25 116.9 26.95 L115.8 26.4 115.05 22.7 117.4 22.4 116.9 19.2 120.3 19.6 122.05 20.8 M114.6 14.15 L115.6 18.3 113.95 17.5 113.75 16.8 114.3 14.4 114.35 14.15 114.6 14.15 M113.55 18.1 L114.4 22.5 114.4 22.75 112.95 22.6 112.95 22.2 113.05 21.25 113.55 18.1" fill="#c5c5c5" fill-rule="evenodd" stroke="none"/>
    <path d="M117.2 -82.2 L117.0 -83.9 114.9 -90.95 Q112.3 -98.9 109.4 -102.3 107.1 -105.05 104.6 -104.95 L99.65 -104.9 95.85 -105.4 Q89.55 -106.15 84.7 -104.2 82.65 -103.5 80.9 -102.25 L84.7 -100.5 M99.65 -101.75 L101.25 -100.2 Q104.95 -96.15 106.25 -88.8 106.9 -84.85 106.95 -80.0 L106.85 -77.75 M117.2 -82.2 Q117.3 -76.45 109.1 -68.3 L109.8 -70.55 M76.45 -73.7 L76.25 -74.0 M76.4 -61.65 Q72.2 -70.75 72.35 -83.9 72.45 -97.1 78.15 -102.8 L80.9 -102.25 M80.55 -88.9 L80.55 -92.25 M83.75 -93.3 Q85.1 -94.9 85.65 -89.45 88.05 -92.6 89.55 -92.8 M95.1 -70.2 L97.05 -72.8 Q98.1 -74.65 98.85 -76.75 99.25 -81.1 98.45 -86.2 M94.35 -56.15 L94.95 -56.6 Q98.45 -59.2 100.9 -62.15 103.95 -65.7 105.5 -69.8 L105.7 -70.3 106.4 -72.7 106.65 -73.7 106.85 -76.75 106.85 -76.95 106.85 -77.75 M74.6 -82.05 L74.6 -84.5 Q74.7 -87.6 75.3 -91.25 M76.45 -73.7 L77.15 -72.45 M74.6 -82.05 Q74.7 -77.15 76.25 -74.0 M106.85 -76.95 L107.6 -77.0 Q108.7 -77.15 109.3 -76.4 110.9 -75.1 109.8 -70.55 M94.2 -56.3 L94.2 -56.15 94.35 -56.15" fill="none" stroke="#7a634d" stroke-linecap="round" stroke-linejoin="round" stroke-width="0.05"/>
    <path d="M109.8 -70.55 L109.75 -70.5 109.45 -69.65 109.1 -68.75 109.05 -68.5 108.95 -68.3 108.55 -67.5 106.05 -65.75 104.55 -64.6 104.0 -61.95 M69.5 16.95 L69.6 21.05 65.1 22.7 64.25 24.55 55.4 19.9 M80.75 -60.85 L79.35 -63.15 Q77.1 -68.25 76.45 -73.7 M77.85 -78.55 L77.3 -78.95 76.95 -77.85 M76.95 -76.05 Q77.3 -75.25 77.8 -74.55 M77.85 -78.55 L78.45 -78.15 79.75 -77.25 79.95 -77.15 80.45 -76.8 80.55 -76.75 80.3 -79.45 Q78.35 -81.75 77.3 -78.95 M78.5 -73.8 L80.15 -72.7 80.5 -76.25 80.55 -76.75 M80.5 -76.25 Q81.05 -73.3 80.85 -71.25 80.6 -69.65 79.85 -68.6 M81.9 -67.1 Q79.65 -66.35 79.85 -68.6 M78.5 -73.8 Q78.1 -73.95 77.8 -74.55 M107.6 -77.0 L107.45 -76.95 106.85 -76.75 M109.3 -76.4 L109.75 -75.6 Q110.3 -73.85 110.0 -72.15 L109.85 -71.1 109.75 -70.5 M87.65 -73.6 L86.95 -73.7 Q86.55 -72.2 86.45 -70.35 90.75 -68.55 93.6 -69.9 L92.9 -73.1 91.4 -73.25 90.8 -73.35 M88.25 -73.55 L87.65 -73.6 M88.85 -73.5 L88.25 -73.55 M90.5 -73.35 L90.8 -73.35 M88.85 -73.5 L90.5 -73.35 M84.45 -56.9 Q86.15 -56.65 88.1 -56.85 L88.15 -56.85 Q91.3 -57.2 95.0 -58.85 M84.45 -56.9 L83.75 -57.5 M107.45 -73.85 L106.55 -72.9 106.4 -72.7 M105.5 -69.8 L105.5 -68.2 M105.7 -70.3 L107.15 -69.0 M86.95 -73.7 Q87.4 -75.4 88.15 -76.65 91.7 -76.55 92.9 -73.1 M104.55 -64.6 L100.9 -62.15 M80.95 -63.65 L83.8 -62.7 M80.75 -60.85 L83.75 -57.5 M110.45 30.4 L110.4 30.15 105.45 31.8 104.7 34.1 104.85 34.15 113.8 40.2 M105.45 31.8 L103.65 25.8 106.65 22.85 M63.15 17.55 L62.95 17.65 M65.1 22.7 L63.15 17.55" fill="none" stroke="#d7995e" stroke-linecap="round" stroke-linejoin="round" stroke-width="0.05"/>
    <path d="M109.2 -59.6 L109.45 -57.4 M132.15 -23.3 Q133.75 -22.5 133.8 -18.5 132.85 -17.35 131.5 -16.45 L131.0 -16.1 M136.65 2.05 Q137.7 3.6 135.6 4.6 M119.7 49.65 Q120.65 50.2 120.0 52.65 L118.55 53.4 M70.7 44.1 L69.7 43.15 Q69.3 40.65 69.8 40.15 M74.25 -1.6 Q74.2 -3.55 75.35 -3.65 L75.55 -3.2 75.65 -2.8 76.6 -1.45 76.7 -1.35 77.3 -0.7 Q78.3 0.3 79.85 1.2 L82.1 2.35 82.55 2.55 84.6 3.3 M75.25 -26.55 L73.7 -26.45 M72.8 -13.4 Q74.3 -12.35 72.75 -11.0 M70.15 15.0 Q70.75 16.65 69.5 16.95 67.25 17.1 63.2 15.0 60.25 17.95 56.2 19.6 L55.4 19.9 Q53.95 19.4 54.95 17.1 60.05 15.5 62.15 12.05 67.4 14.9 70.15 15.0 M58.55 -12.95 Q56.4 -15.55 58.85 -16.05 M64.0 -28.6 L62.25 -29.95 Q62.0 -33.55 63.4 -34.4 L64.95 -33.75 Q68.3 -32.4 71.15 -32.1 69.1 -33.45 70.7 -35.4 M79.2 -57.4 L79.55 -59.6 M72.15 -31.6 L71.15 -32.1 M72.15 -31.6 Q73.25 -30.95 75.2 -30.2 L77.55 -28.9 Q81.0 -27.25 85.9 -26.6 L85.95 -29.9 86.7 -38.35 93.65 -37.6 94.65 -42.75 87.5 -43.2 88.05 -54.6 88.15 -56.85 94.35 -56.6 M64.0 -28.6 Q67.5 -26.4 73.7 -26.45 M85.05 3.45 L87.6 4.05 Q93.45 5.3 101.45 4.8 L105.2 4.45 M103.6 -25.85 L85.8 -24.85 85.9 -26.6 M58.55 -12.95 Q66.2 -6.85 72.75 -11.0 M72.8 -13.4 Q66.4 -9.15 58.85 -16.05 M83.75 -57.5 Q79.6 -58.4 79.55 -59.6 M112.15 -28.55 Q112.9 -28.75 113.7 -28.25 114.7 -27.7 115.7 -26.0 L115.8 -25.85 Q116.9 -23.9 118.0 -20.45 L118.8 -20.25 118.9 -20.25 Q123.7 -19.3 129.95 -22.2 L132.15 -23.3 M103.35 -57.25 L103.7 -57.3 104.9 -57.45 Q109.25 -58.35 109.2 -59.6 M94.95 -56.6 L103.35 -57.25 M113.0 -25.8 L106.55 -25.8 103.6 -25.85 M106.05 4.35 Q109.4 3.8 111.25 2.5 112.3 3.05 112.45 4.05 112.6 5.05 112.1 6.05 M117.1 -16.2 Q115.05 -18.55 114.7 -20.35 L114.45 -21.15 113.0 -25.75 M121.45 -13.7 L119.65 -13.65 117.1 -16.2 M123.95 -4.55 Q121.3 -4.65 122.4 -1.4 127.4 7.1 135.6 4.6 M123.95 -4.55 L125.95 -1.25 Q130.15 4.2 136.65 2.05 M121.45 -13.7 Q127.45 -14.05 131.0 -16.1 M106.05 4.35 L105.2 4.45 M106.65 22.85 Q106.05 21.3 107.65 20.7 109.5 23.6 114.95 27.25 113.85 32.0 116.05 38.65 115.05 41.4 113.8 40.2 L113.45 39.1 M80.6 5.95 Q80.7 2.6 82.1 2.5 L82.55 2.55 M85.05 3.45 L84.6 3.3 M81.1 14.4 L81.45 14.55 84.3 15.55 89.2 16.75 92.2 17.0 96.4 17.25 98.15 17.3 101.25 53.85 102.7 54.3 Q111.35 56.85 118.55 53.4 M106.65 22.85 Q108.0 25.4 112.2 28.2 111.95 33.5 113.45 39.1 M80.6 5.95 L80.3 12.1 80.15 12.05 Q80.1 13.9 81.1 14.4 M77.9 45.85 L79.65 45.65 81.45 14.55 M77.9 45.85 L75.95 45.9 Q72.6 46.0 71.2 44.65 L70.7 44.1 M74.25 -1.6 Q74.25 -0.65 74.55 0.75" fill="none" stroke="#666666" stroke-linecap="round" stroke-linejoin="round" stroke-width="0.05"/>
    <path d="M104.0 -61.95 L104.85 -61.8 Q109.2 -60.9 109.2 -59.6 M110.55 -49.4 L110.2 -49.2 M75.95 -25.65 L75.75 -25.85 75.75 -25.9 M78.85 -55.9 L78.95 -55.9 79.2 -57.4 M79.55 -59.6 Q79.55 -60.3 80.75 -60.85 M104.0 -61.95 L103.85 -61.95" fill="none" stroke="#548584" stroke-linecap="round" stroke-linejoin="round" stroke-width="0.05"/>
    <path d="M109.45 -57.4 L110.55 -49.4 M110.2 -49.2 L110.35 -49.2 111.75 -48.45 112.7 -47.85 116.1 -45.6 116.25 -45.5 Q126.0 -44.95 129.65 -32.5 L132.15 -23.3 M63.4 -34.4 L64.75 -42.8 Q66.9 -54.15 75.55 -55.25 L76.45 -55.45 78.4 -55.8 78.7 -55.85 78.85 -55.9 78.25 -50.25 78.3 -50.1 Q78.85 -48.4 80.0 -47.0 M70.7 -35.4 Q69.7 -39.05 70.15 -42.75 M84.6 3.3 L84.65 3.3 M116.25 -45.5 L114.65 -45.5 M110.2 -49.2 Q108.45 -48.0 106.55 -47.0 L103.7 -45.8" fill="none" stroke="#1c211b" stroke-linecap="round" stroke-linejoin="round" stroke-width="0.05"/>
    <path d="M131.5 -16.45 L131.7 -15.9 134.5 -6.05 135.05 -5.55 135.6 -5.05 Q136.35 -2.7 136.8 1.6 L136.65 2.05 M75.35 -3.65 Q73.25 -6.75 74.4 -10.8 L75.7 -15.55 75.9 -16.25 75.9 -21.5 75.9 -23.4 75.95 -25.65 M75.75 -25.9 L75.25 -26.55 Q74.0 -28.15 73.05 -29.8 L72.55 -30.75 72.15 -31.6 M73.7 -26.45 L71.05 -16.7 72.75 -13.85 72.8 -13.4 M58.85 -16.05 Q59.35 -18.1 60.7 -19.4 61.4 -20.15 62.45 -20.4 L64.0 -28.6 M75.95 -25.9 L75.8 -26.85 Q75.6 -28.95 75.2 -30.2 M62.45 -20.4 L62.05 -18.2 M105.2 4.45 Q103.1 -5.15 103.15 -15.55 103.15 -20.65 103.6 -25.85 M71.05 -16.7 L70.6 -14.95 M111.25 2.5 Q112.85 1.45 114.05 -1.25 L112.95 -9.2 Q115.15 -12.25 116.85 -15.6 L117.1 -16.2 M124.6 -5.3 L123.95 -4.55 M125.95 -1.25 L124.6 -5.3 121.45 -13.7" fill="none" stroke="#37534d" stroke-linecap="round" stroke-linejoin="round" stroke-width="0.05"/>
    <path d="M118.55 53.4 L118.95 55.65 118.95 56.25 M95.3 56.25 L96.3 41.65 Q96.6 36.8 96.2 25.1 L96.15 23.05 94.35 23.25 93.1 23.25 93.25 29.25 Q93.15 41.5 93.7 50.3 L92.65 56.25 M72.3 56.25 Q71.2 52.8 70.35 46.1 L70.7 44.1 M75.95 -25.65 L75.95 -25.85 75.95 -25.9 M76.05 -21.5 L76.0 -21.5 76.0 -21.6 76.05 -21.6 M93.1 23.25 L92.65 23.25 92.3 23.25 91.05 23.2 89.6 23.05 87.65 22.6 M96.15 23.05 Q96.1 19.85 96.4 17.25 M102.75 56.25 L102.7 54.3 M77.7 56.25 Q77.4 53.25 77.55 49.35 L77.9 45.85" fill="none" stroke="#588780" stroke-linecap="round" stroke-linejoin="round" stroke-width="0.05"/>
    <path d="M135.6 4.6 L126.1 20.55 M120.25 30.5 L118.3 34.35 M72.75 -11.0 L69.05 10.65 69.5 11.25 70.15 15.0 M54.95 17.1 L57.45 8.0 57.7 7.0 57.9 6.85 Q59.85 -0.75 59.3 -5.55 58.65 -10.7 58.55 -12.95 M107.65 20.7 L110.75 18.75 111.45 18.8 M116.05 38.65 L118.3 34.35 M115.95 15.2 Q118.9 10.25 120.0 6.55 121.55 1.0 122.4 -1.4 M69.05 10.65 L68.6 13.15 M57.9 6.85 L57.45 8.0" fill="none" stroke="#1d3643" stroke-linecap="round" stroke-linejoin="round" stroke-width="0.05"/>
    <path d="M90.85 -89.45 L85.65 -89.45 83.2 -90.35 M94.35 -56.15 L94.2 -56.1 94.2 -56.15" fill="none" stroke="#009900" stroke-linecap="round" stroke-linejoin="round" stroke-width="0.05"/>
    <path d="M118.3 34.35 Q119.3 41.8 119.7 49.65 M69.8 40.15 Q70.6 17.75 74.2 -1.55 M112.6 8.55 L112.6 10.8 M112.6 8.55 L112.1 6.05 M114.25 14.2 L112.6 8.55" fill="none" stroke="#455645" stroke-linecap="round" stroke-linejoin="round" stroke-width="0.05"/>
  </g>
</svg>
