<?xml version="1.0" encoding="UTF-8" standalone="no"?>
<svg xmlns:xlink="http://www.w3.org/1999/xlink" height="189.45px" width="88.65px" xmlns="http://www.w3.org/2000/svg">
  <g transform="matrix(1, 0, 0, 1, -54.25, 126.3)">
    <path d="M101.2 -107.45 L101.0 -107.25 Q90.9 -119.75 79.4 -121.95 67.9 -124.2 67.45 -124.55 67.0 -124.9 70.15 -115.5 73.3 -106.2 75.95 -90.4 L76.05 -89.85 74.0 -92.95 73.9 -93.3 73.8 -93.5 73.5 -96.05 72.9 -99.65 Q71.0 -112.8 62.25 -126.3 L71.4 -125.7 73.7 -125.25 Q89.65 -122.1 98.85 -110.65 L101.2 -107.45 M67.5 -102.75 L70.55 -95.7 72.2 -91.1 73.75 -86.05 74.0 -85.15 74.0 -85.05 75.3 -79.85 67.15 -88.55 74.6 -73.65 72.15 -64.95 73.15 -75.05 69.1 -66.3 72.2 -77.1 64.7 -92.0 72.8 -83.25 72.35 -85.4 71.7 -88.0 Q69.1 -97.9 64.8 -106.8 L67.5 -102.75 M83.05 -82.3 L83.25 -82.6 83.85 -83.45 88.55 -70.45 88.75 -69.05 88.85 -67.9 89.0 -65.95 88.35 -67.8 88.0 -68.7 83.05 -82.3" fill="#6963a1" fill-rule="evenodd" stroke="none"/>
    <path d="M74.0 -92.95 L76.05 -89.85 75.95 -90.4 Q73.3 -106.2 70.15 -115.5 67.0 -124.9 67.45 -124.55 67.9 -124.2 79.4 -121.95 90.9 -119.75 101.0 -107.25 L101.2 -107.45 101.65 -106.8 102.85 -104.75 Q105.75 -99.6 107.75 -93.15 L107.9 -95.3 108.0 -95.85 108.0 -95.95 108.15 -100.8 Q108.3 -111.8 105.55 -121.3 L107.8 -116.95 108.2 -115.9 108.9 -114.15 Q110.3 -110.55 111.35 -106.4 L112.4 -100.9 Q113.15 -96.35 113.5 -91.3 L113.65 -88.8 123.95 -107.9 116.25 -81.15 116.0 -80.35 115.15 -77.3 125.85 -90.3 124.55 -88.15 119.15 -78.15 118.35 -76.6 117.7 -75.3 Q114.5 -68.9 112.35 -63.35 L111.55 -61.3 108.85 -53.95 108.85 -57.8 107.0 -54.4 107.0 -56.1 107.05 -56.2 108.3 -58.2 108.85 -59.15 108.85 -59.75 108.85 -60.15 108.85 -60.45 109.1 -62.5 109.1 -62.55 109.1 -63.15 Q109.05 -64.75 108.4 -65.45 L108.1 -65.7 107.85 -65.85 106.5 -65.95 106.2 -65.85 105.65 -65.6 104.85 -65.25 104.65 -65.15 105.0 -61.3 105.0 -60.95 105.1 -59.2 105.1 -59.15 105.1 -58.45 105.1 -58.3 105.0 -55.7 104.95 -54.7 104.95 -54.45 104.85 -54.65 Q103.45 -61.0 101.15 -66.45 L98.8 -71.35 98.5 -71.85 96.85 -74.5 96.85 -74.55 95.85 -76.0 94.05 -78.45 97.2 -62.5 94.45 -67.05 93.8 -68.15 93.45 -68.7 91.75 -71.4 90.35 -73.6 89.1 -75.3 88.55 -76.15 87.95 -77.1 88.55 -70.45 83.85 -83.45 83.25 -82.6 83.05 -82.3 82.8 -82.9 Q79.8 -78.3 77.35 -73.15 L77.1 -72.55 75.9 -69.75 75.3 -68.3 75.15 -68.1 74.85 -67.05 Q73.65 -64.1 72.7 -60.95 71.9 -58.45 71.25 -55.75 L72.15 -64.95 74.6 -73.65 67.15 -88.55 75.3 -79.85 74.0 -85.05 74.0 -85.15 73.75 -86.05 72.2 -91.1 70.55 -95.7 67.5 -102.75 73.9 -93.3 74.0 -92.95 M98.9 -86.35 L100.35 -82.65 100.35 -82.6 Q103.15 -75.15 104.3 -68.05 L104.3 -67.9 104.5 -66.25 104.65 -65.15 104.5 -66.25 104.3 -67.9 104.3 -68.05 Q103.15 -75.15 100.35 -82.6 L100.35 -82.65 98.9 -86.35 M114.6 -84.35 Q113.75 -86.35 113.65 -88.8 113.75 -86.35 114.6 -84.35" fill="#3a3961" fill-rule="evenodd" stroke="none"/>
    <path d="M77.1 -72.55 L77.35 -73.15 Q79.95 -72.65 80.45 -68.75 78.9 -71.55 77.1 -72.55 M93.45 -68.7 L93.8 -68.15 88.85 -67.9 88.75 -69.05 Q90.9 -69.95 93.45 -68.7 M88.35 -67.8 Q87.05 -67.4 85.75 -66.8 86.8 -68.05 88.0 -68.7 L88.35 -67.8" fill="#503e53" fill-rule="evenodd" stroke="none"/>
    <path d="M75.3 -68.3 L75.9 -69.75 77.1 -72.55 Q78.9 -71.55 80.45 -68.75 79.95 -72.65 77.35 -73.15 79.8 -78.3 82.8 -82.9 L83.05 -82.3 88.0 -68.7 Q86.8 -68.05 85.75 -66.8 87.05 -67.4 88.35 -67.8 L89.0 -65.95 88.85 -67.9 93.8 -68.15 94.45 -67.05 97.2 -62.5 94.05 -78.45 95.85 -76.0 96.85 -74.55 96.85 -74.5 98.5 -71.85 98.8 -71.35 101.15 -66.45 97.75 -65.2 100.1 -56.65 99.75 -56.15 Q96.1 -50.95 84.75 -42.55 83.7 -43.3 82.8 -44.05 L82.75 -44.1 Q80.15 -46.45 79.1 -48.75 L78.95 -49.15 Q77.75 -51.9 77.4 -53.85 L75.9 -63.55 75.3 -68.3 M88.55 -70.45 L87.95 -77.1 88.55 -76.15 89.1 -75.3 90.35 -73.6 91.75 -71.4 93.45 -68.7 Q90.9 -69.95 88.75 -69.05 L88.55 -70.45 M105.0 -61.3 L104.65 -65.15 104.85 -65.25 105.65 -65.6 106.2 -65.85 106.5 -65.95 107.85 -65.85 108.1 -65.7 108.75 -64.65 109.1 -63.15 109.1 -62.55 109.1 -62.5 108.85 -60.45 108.85 -60.15 Q108.5 -62.1 106.45 -62.9 L105.55 -61.95 105.15 -61.3 105.0 -61.3 M125.95 60.75 L124.8 63.15 116.45 63.15 116.3 62.55 115.05 59.95 115.0 59.65 113.55 57.0 107.3 54.3 107.95 53.6 115.4 45.7 115.45 45.7 Q118.1 45.8 120.45 46.95 L117.9 54.9 Q118.85 60.2 125.95 60.75 M63.6 52.5 L63.4 52.55 62.8 51.65 61.1 51.45 54.9 41.9 Q54.5 37.15 56.95 35.0 57.45 34.5 58.15 34.2 61.5 30.45 65.95 29.4 L68.4 31.2 69.55 32.0 Q68.55 33.6 69.25 34.95 L70.55 36.5 70.45 37.2 68.05 38.75 66.8 41.25 66.7 41.55 65.65 43.95 63.6 52.5 M75.8 -66.0 L75.75 -65.7 75.8 -65.6 Q76.2 -64.5 76.8 -63.7 77.1 -63.05 77.55 -62.85 78.25 -62.2 79.15 -61.8 79.5 -63.6 79.5 -65.35 L79.35 -68.55 Q76.85 -71.5 75.8 -66.0 M78.9 -57.7 Q78.65 -55.45 80.9 -56.15 79.7 -56.7 78.9 -57.7 79.6 -58.7 79.85 -60.3 80.1 -62.35 79.5 -65.35 80.1 -62.35 79.85 -60.3 79.6 -58.7 78.9 -57.7 M87.45 -49.75 Q85.3 -50.15 83.6 -50.8 L83.55 -50.8 83.15 -51.0 Q81.3 -51.75 79.95 -52.75 81.3 -51.75 83.15 -51.0 L83.55 -50.8 83.6 -50.8 Q85.3 -50.15 87.45 -49.75 M85.45 -59.4 Q89.75 -57.6 92.6 -58.95 92.1 -65.55 87.15 -65.7 85.75 -63.3 85.45 -59.4" fill="#ffdfc8" fill-rule="evenodd" stroke="none"/>
    <path d="M108.0 -48.55 Q109.75 -45.25 110.05 -42.05 L110.25 -42.2 Q115.45 -42.65 117.4 -37.1 L123.1 -31.8 Q124.3 -30.3 125.1 -28.3 L124.05 -29.05 Q120.05 -31.8 116.7 -30.9 L116.65 -30.9 117.3 -35.9 Q116.95 -34.15 116.25 -32.55 L115.9 -31.8 115.1 -30.35 Q113.45 -29.55 112.2 -29.6 L111.35 -29.5 Q108.45 -29.1 105.9 -27.25 L104.75 -26.4 Q104.4 -32.5 101.4 -36.6 L101.25 -36.75 102.8 -39.4 104.35 -42.6 104.4 -42.65 Q108.05 -47.05 108.0 -48.55 M66.4 -39.05 L67.9 -41.5 Q68.95 -42.65 72.75 -42.95 L73.7 -43.0 73.75 -43.1 73.75 -43.15 Q73.4 -46.1 78.5 -48.15 L78.6 -48.25 78.5 -47.7 78.45 -47.45 78.05 -44.2 Q77.75 -36.6 84.7 -35.45 90.7 -34.85 96.7 -35.65 90.7 -34.85 84.7 -35.45 77.75 -36.6 78.05 -44.2 L78.45 -47.45 78.5 -47.7 Q78.6 -45.9 82.1 -43.95 L82.7 -43.6 Q88.3 -40.3 89.9 -39.95 91.5 -39.65 95.65 -37.0 96.3 -36.55 96.95 -36.25 L96.7 -35.65 96.65 -35.45 Q99.1 -32.55 100.6 -28.9 L101.9 -24.65 98.65 -23.15 Q93.9 -21.45 89.0 -20.55 L86.95 -20.2 80.0 -20.2 74.65 -20.9 73.25 -21.5 70.4 -22.6 68.65 -25.0 70.0 -22.5 70.05 -22.45 70.65 -21.8 73.3 -20.25 76.6 -18.6 86.85 -19.0 89.0 -19.3 94.9 -20.7 Q98.5 -21.95 102.15 -23.5 L102.5 -21.35 94.25 -16.85 Q91.65 -15.45 89.0 -14.65 81.5 -12.4 73.45 -15.25 81.5 -12.4 89.0 -14.65 L89.2 15.75 87.55 14.1 Q86.4 13.25 85.4 13.55 L82.9 13.2 Q81.05 12.5 80.0 10.4 L79.85 10.15 Q78.4 8.35 77.2 7.8 L75.4 7.7 73.95 6.65 73.45 -15.25 71.55 -16.0 67.75 -21.35 Q66.4 -23.35 65.6 -25.35 64.8 -27.6 64.65 -29.8 64.4 -33.95 65.55 -37.05 L66.4 -39.05 M75.8 -65.6 L75.8 -66.0 Q76.85 -71.5 79.35 -68.55 L79.5 -65.35 Q79.5 -63.6 79.15 -61.8 78.25 -62.2 77.55 -62.85 L77.8 -62.8 Q78.45 -62.8 78.95 -63.7 79.4 -64.55 79.45 -65.8 79.5 -67.0 79.1 -67.85 78.7 -68.75 78.1 -68.75 77.45 -68.75 76.95 -67.85 76.5 -67.0 76.45 -65.8 76.4 -64.55 76.8 -63.7 76.2 -64.5 75.8 -65.6 M78.95 -66.55 L78.85 -66.45 78.75 -66.3 78.2 -66.0 Q77.85 -66.0 77.6 -66.3 77.35 -66.6 77.4 -67.0 L77.55 -67.3 77.7 -67.65 Q77.95 -67.95 78.25 -67.95 L78.85 -67.65 79.0 -67.0 78.95 -66.55 M73.7 -43.0 Q72.05 -41.4 72.1 -38.05 L72.35 -34.0 74.1 -31.45 Q76.4 -28.9 80.0 -27.75 84.4 -26.65 88.95 -26.95 L90.25 -27.1 100.6 -28.9 90.25 -27.1 88.95 -26.95 Q84.4 -26.65 80.0 -27.75 76.4 -28.9 74.1 -31.45 L72.35 -34.0 72.1 -38.05 Q72.05 -41.4 73.7 -43.0 M70.65 18.0 Q73.2 17.45 78.95 21.0 L84.75 25.0 Q90.65 20.55 106.45 19.65 L109.3 19.55 115.65 19.7 Q120.6 20.3 117.9 22.75 L116.0 23.45 109.9 23.85 105.9 23.65 Q101.25 23.8 97.05 25.05 92.9 26.3 89.2 28.7 L87.45 29.95 85.35 31.6 Q84.6 30.95 83.6 30.9 L82.75 31.1 Q82.2 31.25 81.75 31.65 L81.55 31.85 Q80.75 32.7 80.75 33.95 L80.9 35.15 81.45 36.05 Q82.35 36.8 83.5 36.75 L83.6 36.8 85.05 36.45 Q90.0 38.0 95.15 38.15 L99.7 38.05 Q106.35 37.4 113.4 34.5 L116.45 33.1 Q119.45 35.25 113.55 38.15 L112.5 38.6 108.2 40.3 Q101.4 42.65 95.15 42.6 L91.95 42.45 89.55 42.05 85.2 40.95 Q82.25 39.25 80.8 37.4 79.8 36.2 79.45 34.95 79.8 36.2 80.8 37.4 82.25 39.25 85.2 40.95 79.1 40.0 75.35 38.8 L75.15 38.75 Q72.1 37.7 70.55 36.5 L69.25 34.95 Q68.55 33.6 69.55 32.0 L69.65 31.8 69.6 31.7 70.6 32.75 71.1 33.3 Q73.05 35.0 75.1 35.45 L75.15 35.45 Q77.25 35.85 79.45 34.95 78.75 32.75 80.0 30.3 L80.7 29.1 81.2 28.45 81.35 28.25 Q82.65 26.65 84.75 25.0 82.65 26.65 81.35 28.25 L81.2 28.45 80.95 28.1 80.75 27.8 Q78.75 25.2 75.7 23.85 73.4 22.8 70.5 22.55 L69.5 22.4 Q69.0 21.5 68.95 20.75 68.65 19.5 69.45 18.65 69.9 18.1 70.65 18.0 M89.75 -62.7 L89.5 -62.4 Q89.2 -62.1 88.8 -62.1 88.35 -62.1 88.05 -62.4 87.7 -62.75 87.7 -63.2 L87.9 -63.65 88.1 -63.9 Q88.4 -64.2 88.85 -64.2 L89.55 -63.9 Q89.9 -63.65 89.9 -63.2 L89.75 -62.7 M87.2 -64.25 Q86.6 -63.3 86.55 -61.9 86.45 -60.5 87.0 -59.5 87.5 -58.55 88.35 -58.6 89.15 -58.55 89.8 -59.5 90.35 -60.5 90.4 -61.9 90.5 -63.3 90.0 -64.25 89.45 -65.25 88.6 -65.2 87.8 -65.25 87.2 -64.25 M85.45 -59.4 Q85.75 -63.3 87.15 -65.7 92.1 -65.55 92.6 -58.95 89.75 -57.6 85.45 -59.4 M110.05 -42.05 L107.4 -39.95 105.05 -38.25 Q103.25 -37.2 101.4 -36.6 103.25 -37.2 105.05 -38.25 L107.4 -39.95 110.05 -42.05 M109.65 -27.55 L109.65 -27.75 111.4 -28.0 112.95 -28.3 Q111.5 -26.2 111.3 -22.65 L111.25 -22.25 111.25 -18.75 109.8 -19.05 Q105.75 -19.85 104.2 -20.5 L104.75 -21.9 104.7 -22.0 104.8 -24.7 104.85 -24.7 109.65 -27.55 M117.4 -37.1 L117.3 -35.9 117.4 -37.1 M80.3 3.3 L80.0 10.4 80.3 3.3 M75.15 -1.9 L75.4 7.7 75.15 -1.9 M85.25 -4.3 L85.4 13.55 85.25 -4.3" fill="#ffffff" fill-rule="evenodd" stroke="none"/>
    <path d="M137.05 5.55 L137.35 6.45 135.8 6.35 137.05 5.55 M77.55 -67.3 L77.4 -67.0 Q77.35 -66.6 77.6 -66.3 77.85 -66.0 78.2 -66.0 L78.75 -66.3 78.85 -66.45 78.95 -66.55 78.95 -65.8 78.6 -64.55 Q78.3 -64.0 77.85 -64.0 77.45 -64.0 77.2 -64.55 76.9 -65.1 76.95 -65.85 77.0 -66.55 77.3 -67.05 L77.55 -67.3 M87.9 -63.65 L87.7 -63.2 Q87.7 -62.75 88.05 -62.4 88.35 -62.1 88.8 -62.1 89.2 -62.1 89.5 -62.4 L89.75 -62.7 89.8 -61.9 Q89.75 -61.05 89.35 -60.45 88.9 -59.85 88.4 -59.85 87.85 -59.85 87.5 -60.45 87.1 -61.1 87.15 -61.95 87.2 -62.75 87.6 -63.3 L87.9 -63.65 M124.85 9.15 L127.35 9.0 125.55 11.15 124.85 9.15" fill="#000000" fill-rule="evenodd" stroke="none"/>
    <path d="M76.8 -63.7 Q76.4 -64.55 76.45 -65.8 76.5 -67.0 76.95 -67.85 77.45 -68.75 78.1 -68.75 78.7 -68.75 79.1 -67.85 79.5 -67.0 79.45 -65.8 79.4 -64.55 78.95 -63.7 78.45 -62.8 77.8 -62.8 L77.55 -62.85 Q77.1 -63.05 76.8 -63.7 M77.55 -67.3 L77.3 -67.05 Q77.0 -66.55 76.95 -65.85 76.9 -65.1 77.2 -64.55 77.45 -64.0 77.85 -64.0 78.3 -64.0 78.6 -64.55 L78.95 -65.8 78.95 -66.55 79.0 -67.0 78.85 -67.65 78.25 -67.95 Q77.95 -67.95 77.7 -67.65 L77.55 -67.3 M87.9 -63.65 L87.6 -63.3 Q87.2 -62.75 87.15 -61.95 87.1 -61.1 87.5 -60.45 87.85 -59.85 88.4 -59.85 88.9 -59.85 89.35 -60.45 89.75 -61.05 89.8 -61.9 L89.75 -62.7 89.9 -63.2 Q89.9 -63.65 89.55 -63.9 L88.85 -64.2 Q88.4 -64.2 88.1 -63.9 L87.9 -63.65 M87.2 -64.25 Q87.8 -65.25 88.6 -65.2 89.45 -65.25 90.0 -64.25 90.5 -63.3 90.4 -61.9 90.35 -60.5 89.8 -59.5 89.15 -58.55 88.35 -58.6 87.5 -58.55 87.0 -59.5 86.45 -60.5 86.55 -61.9 86.6 -63.3 87.2 -64.25" fill="#0099ff" fill-rule="evenodd" stroke="none"/>
    <path d="M101.15 -66.45 Q103.45 -61.0 104.85 -54.65 L104.95 -54.45 104.95 -54.7 105.0 -55.7 105.1 -58.3 105.1 -58.45 105.1 -59.15 105.1 -59.2 105.0 -60.95 105.0 -61.3 105.15 -61.3 105.55 -61.95 106.45 -62.9 Q108.5 -62.1 108.85 -60.15 L108.85 -59.75 108.75 -59.6 108.45 -58.75 108.3 -58.2 107.05 -56.2 105.05 -54.8 104.95 -54.7 105.25 -54.6 104.6 -50.95 104.35 -51.0 104.3 -48.05 Q104.15 -45.6 104.35 -43.2 L104.35 -42.6 102.8 -39.4 101.25 -36.75 100.55 -37.65 Q97.85 -38.15 96.95 -36.25 96.3 -36.55 95.65 -37.0 91.5 -39.65 89.9 -39.95 88.3 -40.3 82.7 -43.6 L82.8 -43.95 82.8 -44.05 Q83.7 -43.3 84.75 -42.55 96.1 -50.95 99.75 -56.15 L100.1 -56.65 97.75 -65.2 101.15 -66.45 M116.45 63.15 L108.85 63.15 109.3 61.7 107.3 54.3 113.55 57.0 115.0 59.65 115.05 59.95 116.3 62.55 116.45 63.15 M69.6 47.05 L63.6 52.5 65.65 43.95 66.7 41.55 66.8 41.25 68.05 38.75 70.45 37.2 Q70.15 39.25 70.0 41.6 L66.8 41.25 70.0 41.6 69.95 42.4 69.6 47.05 M80.9 -56.15 Q78.65 -55.45 78.9 -57.7 79.7 -56.7 80.9 -56.15 M104.85 -54.65 Q95.6 -43.3 84.75 -42.55 95.6 -43.3 104.85 -54.65 M108.1 -65.7 L108.4 -65.45 Q109.05 -64.75 109.1 -63.15 L108.75 -64.65 108.1 -65.7 M108.75 -59.6 L108.85 -60.15 108.75 -59.6 M105.15 -61.3 L105.0 -60.95 105.15 -61.3 M106.15 -58.05 L105.1 -59.2 106.15 -58.05 M115.0 59.65 L109.3 61.7 115.0 59.65" fill="#ffd0ae" fill-rule="evenodd" stroke="none"/>
    <path d="M104.6 -50.95 Q108.1 -49.95 108.0 -48.55 108.05 -47.05 104.4 -42.65 L104.35 -42.6 104.35 -43.2 Q104.15 -45.6 104.3 -48.05 L104.35 -51.0 104.6 -50.95 M78.5 -48.15 L78.5 -48.25 Q78.5 -48.7 78.95 -49.15 L79.1 -48.75 Q80.15 -46.45 82.75 -44.1 L82.75 -43.95 82.7 -43.6 82.1 -43.95 Q78.6 -45.9 78.5 -47.7 L78.6 -48.25 78.5 -48.15" fill="#666666" fill-rule="evenodd" stroke="none"/>
    <path d="M125.1 -28.3 Q129.4 -25.05 132.25 -19.05 135.1 -13.1 135.15 -7.6 134.7 -6.0 133.65 -4.8 L132.45 -3.75 132.2 -3.6 131.3 -3.1 130.8 -2.85 Q129.05 -2.55 127.3 -2.9 125.4 -3.2 123.6 -4.3 L123.0 -4.7 Q120.55 -6.35 118.3 -9.3 L116.7 -11.7 Q114.8 -14.6 113.05 -18.45 L111.3 -22.65 Q111.5 -26.2 112.95 -28.3 113.9 -29.6 115.3 -30.35 L116.65 -30.9 116.7 -30.9 Q120.05 -31.8 124.05 -29.05 L125.1 -28.3 M95.2 52.95 L95.25 63.15 90.4 63.15 75.8 63.15 75.35 45.0 75.15 38.75 75.35 38.8 Q79.1 40.0 85.2 40.95 L89.55 42.05 91.95 42.45 95.15 42.6 95.2 52.95 M59.25 -20.0 Q58.8 -24.9 60.9 -30.45 62.9 -35.9 66.4 -39.05 L65.55 -37.05 Q64.4 -33.95 64.65 -29.8 64.8 -27.6 65.6 -25.35 66.4 -23.35 67.75 -21.35 L71.55 -16.0 73.45 -15.25 73.95 6.65 75.4 7.7 77.2 7.8 Q78.4 8.35 79.85 10.15 78.3 15.8 78.95 21.0 78.3 15.8 79.85 10.15 L80.0 10.4 Q81.05 12.5 82.9 13.2 L85.4 13.55 Q86.4 13.25 87.55 14.1 L89.2 15.75 89.0 -14.65 Q91.65 -15.45 94.25 -16.85 L102.5 -21.35 102.6 -20.4 Q103.35 -18.8 104.2 -20.5 105.75 -19.85 109.8 -19.05 L111.25 -18.75 Q111.45 -15.15 112.6 -12.8 L115.35 -7.2 117.15 -3.25 Q115.75 2.3 113.5 7.25 111.5 11.7 108.8 15.65 L109.3 19.55 106.45 19.65 Q90.65 20.55 84.75 25.0 L78.95 21.0 Q73.2 17.45 70.65 18.0 69.7 15.05 70.65 11.55 L71.05 10.15 71.3 9.05 70.55 -5.65 70.45 -8.1 70.4 -9.7 69.65 -10.9 69.15 -11.7 68.55 -12.85 Q67.65 -14.6 67.05 -16.35 L66.8 -16.3 63.65 -16.0 63.15 -16.2 62.3 -16.6 62.05 -16.65 61.1 -17.35 Q59.85 -18.4 59.25 -20.0 M72.75 -42.95 L73.05 -43.0 73.75 -43.1 73.7 -43.0 72.75 -42.95 M67.05 -16.35 Q65.5 -20.8 65.6 -25.35 65.5 -20.8 67.05 -16.35 M90.4 62.35 L90.4 63.15 90.4 62.35 M74.1 9.75 L74.1 9.7 74.05 9.7 74.1 9.75" fill="#e6e1c4" fill-rule="evenodd" stroke="none"/>
    <path d="M139.7 -0.6 L141.55 1.45 Q139.5 3.85 137.05 5.55 L135.8 6.35 Q132.05 8.45 127.35 9.0 L124.85 9.15 120.8 9.0 120.55 6.4 123.9 6.45 Q130.5 6.15 136.05 2.4 L139.7 -0.6 M60.4 -7.2 Q57.0 -8.7 54.25 -11.45 L55.75 -13.35 Q58.1 -11.45 60.65 -10.2 L62.3 -9.55 Q65.75 -8.2 69.5 -8.1 L70.45 -8.1 70.55 -5.65 Q64.95 -5.25 60.4 -7.2" fill="#663e43" fill-rule="evenodd" stroke="none"/>
    <path d="M137.5 -2.9 L139.7 -0.6 136.05 2.4 Q130.5 6.15 123.9 6.45 L120.55 6.4 120.0 4.1 119.95 3.95 120.05 3.95 122.85 3.65 Q130.6 2.5 135.0 -0.7 L137.5 -2.9 M55.75 -13.35 L57.5 -15.55 Q58.95 -14.2 60.85 -13.25 64.4 -11.45 69.65 -10.9 L70.4 -9.7 70.45 -8.1 69.5 -8.1 Q65.75 -8.2 62.3 -9.55 L60.65 -10.2 Q58.1 -11.45 55.75 -13.35" fill="#fcfcfc" fill-rule="evenodd" stroke="none"/>
    <path d="M135.15 -7.6 L137.5 -2.9 135.0 -0.7 Q130.6 2.5 122.85 3.65 L120.05 3.95 119.95 3.95 118.65 0.45 117.15 -3.25 118.65 0.45 119.95 3.95 120.0 4.1 118.5 7.25 114.85 13.5 115.65 19.7 109.3 19.55 108.8 15.65 Q111.5 11.7 113.5 7.25 115.75 2.3 117.15 -3.25 L115.35 -7.2 112.6 -12.8 Q111.45 -15.15 111.25 -18.75 L111.25 -22.25 111.3 -22.65 113.05 -18.45 Q114.8 -14.6 116.7 -11.7 L118.3 -9.3 Q120.55 -6.35 123.0 -4.7 L123.6 -4.3 Q125.4 -3.2 127.3 -2.9 129.05 -2.55 130.8 -2.85 L131.3 -3.1 132.2 -3.6 132.45 -3.75 133.65 -4.8 Q134.7 -6.0 135.15 -7.6 M57.5 -15.55 L59.25 -20.0 Q59.85 -18.4 61.1 -17.35 L62.05 -16.65 62.3 -16.6 63.15 -16.2 63.65 -16.0 66.8 -16.3 67.05 -16.35 Q67.65 -14.6 68.55 -12.85 L69.15 -11.7 69.65 -10.9 Q64.4 -11.45 60.85 -13.25 58.95 -14.2 57.5 -15.55" fill="#dad2a9" fill-rule="evenodd" stroke="none"/>
    <path d="M137.35 6.45 L140.15 14.3 Q145.3 21.6 140.75 30.35 L126.45 60.8 125.95 60.75 Q118.85 60.2 117.9 54.9 L120.45 46.95 Q123.1 37.7 124.15 29.85 125.1 22.8 127.65 19.0 126.55 15.95 125.55 11.15 L127.35 9.0 Q132.05 8.45 135.8 6.35 L137.35 6.45 M108.85 63.15 L95.85 63.15 95.65 55.65 Q99.3 54.15 102.45 53.7 105.45 53.15 107.95 53.6 L107.3 54.3 109.3 61.7 108.85 63.15 M75.8 63.15 L67.85 63.15 67.95 62.45 Q68.8 57.7 69.6 47.05 L69.95 42.4 72.2 42.1 73.7 42.0 Q74.4 43.6 75.35 45.0 L75.8 63.15 M56.95 35.0 L56.45 34.2 Q57.55 22.1 56.1 12.4 54.65 2.7 59.35 0.0 L59.85 -0.3 Q59.95 -2.8 60.4 -7.2 64.95 -5.25 70.55 -5.65 L71.3 9.05 71.05 10.15 70.65 11.55 Q69.7 15.05 70.65 18.0 69.9 18.1 69.45 18.65 68.65 19.5 68.95 20.75 69.0 21.5 69.5 22.4 68.4 25.15 69.0 28.9 L68.4 31.2 65.95 29.4 Q61.5 30.45 58.15 34.2 57.45 34.5 56.95 35.0 M140.15 14.3 Q140.9 16.85 140.8 17.55 140.9 16.85 140.15 14.3 M129.8 23.15 Q128.65 21.85 127.65 19.0 128.65 21.85 129.8 23.15 M59.85 -0.3 Q59.8 1.9 60.05 2.55 59.8 1.9 59.85 -0.3" fill="#343a3f" fill-rule="evenodd" stroke="none"/>
    <path d="M102.15 -23.5 Q98.5 -21.95 94.9 -20.7 L89.0 -19.3 86.85 -19.0 76.6 -18.6 73.3 -20.25 70.65 -21.8 70.05 -22.45 70.0 -22.5 68.65 -25.0 70.4 -22.6 73.25 -21.5 74.65 -20.9 80.0 -20.2 86.95 -20.2 89.0 -20.55 Q93.9 -21.45 98.65 -23.15 L101.9 -24.65 102.15 -23.5 M109.65 -27.75 L109.65 -27.55 104.85 -24.7 104.8 -24.7 104.75 -26.4 105.9 -27.25 Q108.45 -29.1 111.35 -29.5 L112.2 -29.6 Q113.45 -29.55 115.1 -30.35 L115.9 -31.8 116.25 -32.55 Q116.95 -34.15 117.3 -35.9 L116.65 -30.9 115.3 -30.35 Q113.9 -29.6 112.95 -28.3 L111.4 -28.0 109.65 -27.75" fill="#cccccc" fill-rule="evenodd" stroke="none"/>
    <path d="M102.5 -21.35 L102.15 -23.5 101.9 -24.65 100.6 -28.9 Q99.1 -32.55 96.65 -35.45 L96.7 -35.65 96.95 -36.25 Q97.85 -38.15 100.55 -37.65 L101.25 -36.75 101.4 -36.6 Q104.4 -32.5 104.75 -26.4 L104.8 -24.7 104.7 -22.0 104.75 -21.9 104.2 -20.5 Q103.35 -18.8 102.6 -20.4 L102.5 -21.35" fill="#803e35" fill-rule="evenodd" stroke="none"/>
    <path d="M82.75 -43.95 L82.8 -43.95 82.7 -43.6 82.75 -43.95" fill="#eebf5a" fill-rule="evenodd" stroke="none"/>
    <path d="M117.9 22.75 Q115.05 27.8 116.45 33.1 L113.4 34.5 Q106.35 37.4 99.7 38.05 L95.15 38.15 Q90.0 38.0 85.05 36.45 L85.5 36.0 Q86.3 35.1 86.35 33.9 86.4 32.65 85.6 31.8 L85.5 31.75 85.35 31.6 87.45 29.95 89.2 28.7 Q92.9 26.3 97.05 25.05 101.25 23.8 105.9 23.65 L109.9 23.85 116.0 23.45 117.9 22.75" fill="url(#gradient0)" fill-rule="evenodd" stroke="none"/>
    <path d="M85.35 31.6 L85.5 31.75 85.6 31.8 Q86.4 32.65 86.35 33.9 86.3 35.1 85.5 36.0 L85.05 36.45 83.6 36.8 83.5 36.75 Q82.35 36.8 81.45 36.05 L80.9 35.15 80.75 33.95 Q80.75 32.7 81.55 31.85 L81.75 31.65 Q82.2 31.25 82.75 31.1 L83.6 30.9 Q84.6 30.95 85.35 31.6" fill="#beb16b" fill-rule="evenodd" stroke="none"/>
    <path d="M95.65 55.65 L95.6 52.9 95.2 52.95 95.15 42.6 Q101.4 42.65 108.2 40.3 L112.5 38.6 113.55 38.15 114.5 41.5 115.45 45.7 115.4 45.7 107.95 53.6 Q105.45 53.15 102.45 53.7 99.3 54.15 95.65 55.65 M112.5 38.6 L111.1 41.75 Q108.2 45.9 104.95 48.6 100.55 52.05 95.6 52.9 100.55 52.05 104.95 48.6 108.2 45.9 111.1 41.75 L112.5 38.6 M70.55 36.5 Q72.1 37.7 75.15 38.75 L75.35 45.0 Q74.4 43.6 73.7 42.0 L72.2 42.1 69.95 42.4 70.0 41.6 Q70.15 39.25 70.45 37.2 L70.55 36.5" fill="#181c1d" fill-rule="evenodd" stroke="none"/>
    <path d="M81.2 28.45 L80.7 29.1 80.0 30.3 Q78.75 32.75 79.45 34.95 77.25 35.85 75.15 35.45 L75.1 35.45 Q73.05 35.0 71.1 33.3 L70.6 32.75 69.6 31.7 69.0 28.9 Q68.4 25.15 69.5 22.4 L70.5 22.55 Q73.4 22.8 75.7 23.85 78.75 25.2 80.75 27.8 L80.95 28.1 81.2 28.45" fill="url(#gradient1)" fill-rule="evenodd" stroke="none"/>
    <path d="M74.0 -92.95 L73.9 -93.3 67.5 -102.75 M72.15 -64.95 L71.25 -55.75 Q71.9 -58.45 72.7 -60.95 73.65 -64.1 74.85 -67.05 L75.15 -68.1 75.3 -68.3 75.9 -69.75 77.1 -72.55 77.35 -73.15 Q79.8 -78.3 82.8 -82.9 L83.05 -82.3 M88.55 -70.45 L87.95 -77.1 88.55 -76.15 89.1 -75.3 90.35 -73.6 91.75 -71.4 93.45 -68.7 93.8 -68.15 94.45 -67.05 97.2 -62.5 94.05 -78.45 95.85 -76.0 96.85 -74.55 96.85 -74.5 98.5 -71.85 98.8 -71.35 101.15 -66.45 Q103.45 -61.0 104.85 -54.65 L104.95 -54.45 104.95 -54.7 105.0 -55.7 105.1 -58.3 105.1 -58.45 105.1 -59.15 105.1 -59.2 105.0 -60.95 105.0 -61.3 104.65 -65.15 104.5 -66.25 104.3 -67.9 104.3 -68.05 Q103.15 -75.15 100.35 -82.6 L100.35 -82.65 98.9 -86.35 M73.9 -93.3 L73.8 -93.5 73.5 -96.05 72.9 -99.65 Q71.0 -112.8 62.25 -126.3 L71.4 -125.7 73.7 -125.25 Q89.65 -122.1 98.85 -110.65 L101.2 -107.45 101.65 -106.8 102.85 -104.75 Q105.75 -99.6 107.75 -93.15 L107.9 -95.3 108.0 -95.85 108.0 -95.95 108.15 -100.8 Q108.3 -111.8 105.55 -121.3 L107.8 -116.95 108.2 -115.9 108.9 -114.15 Q110.3 -110.55 111.35 -106.4 L112.4 -100.9 Q113.15 -96.35 113.5 -91.3 L113.65 -88.8 123.95 -107.9 116.25 -81.15 M116.0 -80.35 L115.15 -77.3 125.85 -90.3 124.55 -88.15 119.15 -78.15 118.35 -76.6 117.7 -75.3 Q114.5 -68.9 112.35 -63.35 L111.55 -61.3 108.85 -53.95 108.85 -57.8 107.0 -54.4 107.0 -56.1 107.05 -56.2 M72.15 -64.95 L73.15 -75.05 69.1 -66.3 72.2 -77.1 64.7 -92.0 72.8 -83.25 72.35 -85.4 71.7 -88.0 Q69.1 -97.9 64.8 -106.8 L67.5 -102.75 M113.65 -88.8 Q113.75 -86.35 114.6 -84.35 M88.55 -70.45 L88.75 -69.05 M88.35 -67.8 L89.0 -65.95 88.85 -67.9 88.75 -69.05 M88.35 -67.8 L88.0 -68.7 83.05 -82.3 M104.65 -65.15 L104.85 -65.25 105.65 -65.6 106.2 -65.85 106.5 -65.95 107.85 -65.85 108.1 -65.7 108.4 -65.45 Q109.05 -64.75 109.1 -63.15 L109.1 -62.55 109.1 -62.5 108.85 -60.45 108.85 -60.15 108.85 -59.75 108.85 -59.15 108.3 -58.2 107.05 -56.2" fill="none" stroke="#000000" stroke-linecap="round" stroke-linejoin="round" stroke-width="0.05"/>
    <path d="M77.35 -73.15 Q79.95 -72.65 80.45 -68.75 78.9 -71.55 77.1 -72.55 M88.75 -69.05 Q90.9 -69.95 93.45 -68.7 M88.0 -68.7 Q86.8 -68.05 85.75 -66.8 87.05 -67.4 88.35 -67.8 M88.85 -67.9 L93.8 -68.15" fill="none" stroke="#5b4961" stroke-linecap="round" stroke-linejoin="round" stroke-width="0.05"/>
    <path d="M107.05 -56.2 L105.05 -54.8 104.95 -54.7 105.25 -54.6 104.6 -50.95 M125.95 60.75 L124.8 63.15 M69.6 47.05 L63.6 52.5 63.4 52.55 62.8 51.65 61.1 51.45 54.9 41.9 Q54.5 37.15 56.95 35.0 M78.95 -49.15 Q77.75 -51.9 77.4 -53.85 L75.9 -63.55 75.3 -68.3 M75.8 -66.0 L75.75 -65.7 75.8 -65.6 Q76.2 -64.5 76.8 -63.7 77.1 -63.05 77.55 -62.85 78.25 -62.2 79.15 -61.8 79.5 -63.6 79.5 -65.35 L79.35 -68.55 Q76.85 -71.5 75.8 -66.0 M80.9 -56.15 Q78.65 -55.45 78.9 -57.7 79.6 -58.7 79.85 -60.3 80.1 -62.35 79.5 -65.35 M82.75 -44.1 Q80.15 -46.45 79.1 -48.75 L78.95 -49.15 M84.75 -42.55 Q95.6 -43.3 104.85 -54.65 M79.95 -52.75 Q81.3 -51.75 83.15 -51.0 L83.55 -50.8 83.6 -50.8 Q85.3 -50.15 87.45 -49.75 M85.45 -59.4 Q89.75 -57.6 92.6 -58.95 92.1 -65.55 87.15 -65.7 85.75 -63.3 85.45 -59.4 M108.1 -65.7 L108.75 -64.65 109.1 -63.15 M105.15 -61.3 L105.55 -61.95 106.45 -62.9 M108.85 -60.15 L108.75 -59.6 108.85 -59.75 M108.75 -59.6 L108.45 -58.75 108.3 -58.2 M105.0 -60.95 L105.15 -61.3 M105.1 -59.2 L106.15 -58.05 M82.8 -44.05 L82.75 -44.1 M82.75 -43.95 L82.8 -43.95 82.8 -44.05 Q83.7 -43.3 84.75 -42.55 M82.7 -43.6 L82.8 -43.95 M115.45 45.7 Q118.1 45.8 120.45 46.95 M115.45 45.7 L115.4 45.7 107.95 53.6 107.3 54.3 109.3 61.7 115.0 59.65 115.05 59.95 M108.85 63.15 L109.3 61.7 M68.4 31.2 L65.95 29.4 Q61.5 30.45 58.15 34.2 57.45 34.5 56.95 35.0 M68.4 31.2 L69.55 32.0 M66.8 41.25 L70.0 41.6 M66.8 41.25 L66.7 41.55" fill="none" stroke="#d7995e" stroke-linecap="round" stroke-linejoin="round" stroke-width="0.05"/>
    <path d="M104.6 -50.95 Q108.1 -49.95 108.0 -48.55 109.75 -45.25 110.05 -42.05 L110.25 -42.2 Q115.45 -42.65 117.4 -37.1 L123.1 -31.8 Q124.3 -30.3 125.1 -28.3 M66.4 -39.05 L67.9 -41.5 Q68.95 -42.65 72.75 -42.95 M73.75 -43.1 L73.75 -43.15 Q73.4 -46.1 78.5 -48.15 L78.5 -48.25 Q78.5 -48.7 78.95 -49.15 M96.7 -35.65 Q90.7 -34.85 84.7 -35.45 77.75 -36.6 78.05 -44.2 L78.45 -47.45 78.5 -47.7 78.6 -48.25 78.5 -48.15 M100.6 -28.9 L90.25 -27.1 88.95 -26.95 Q84.4 -26.65 80.0 -27.75 76.4 -28.9 74.1 -31.45 L72.35 -34.0 72.1 -38.05 Q72.05 -41.4 73.7 -43.0 L72.75 -42.95 M73.7 -43.0 L73.75 -43.1 M65.6 -25.35 Q64.8 -27.6 64.65 -29.8 64.4 -33.95 65.55 -37.05 L66.4 -39.05 M73.45 -15.25 L71.55 -16.0 67.75 -21.35 Q66.4 -23.35 65.6 -25.35 M70.65 18.0 Q73.2 17.45 78.95 21.0 M73.45 -15.25 Q81.5 -12.4 89.0 -14.65 91.65 -15.45 94.25 -16.85 L102.5 -21.35 M102.15 -23.5 Q98.5 -21.95 94.9 -20.7 L89.0 -19.3 86.85 -19.0 76.6 -18.6 M96.95 -36.25 Q96.3 -36.55 95.65 -37.0 91.5 -39.65 89.9 -39.95 88.3 -40.3 82.7 -43.6 L82.1 -43.95 Q78.6 -45.9 78.5 -47.7 M104.35 -42.6 L104.35 -43.2 Q104.15 -45.6 104.3 -48.05 L104.35 -51.0 104.6 -50.95 M104.35 -42.6 L102.8 -39.4 101.25 -36.75 M101.4 -36.6 Q103.25 -37.2 105.05 -38.25 L107.4 -39.95 110.05 -42.05 M108.0 -48.55 Q108.05 -47.05 104.4 -42.65 L104.35 -42.6 M109.65 -27.75 L111.4 -28.0 112.95 -28.3 M116.65 -30.9 L117.3 -35.9 117.4 -37.1 M104.8 -24.7 L104.85 -24.7 109.65 -27.55 M82.75 -44.1 L82.75 -43.95 82.7 -43.6 M111.25 -18.75 L109.8 -19.05 Q105.75 -19.85 104.2 -20.5 M115.65 19.7 Q120.6 20.3 117.9 22.75 115.05 27.8 116.45 33.1 119.45 35.25 113.55 38.15 M109.3 19.55 L115.65 19.7 M109.3 19.55 L106.45 19.65 Q90.65 20.55 84.75 25.0 82.65 26.65 81.35 28.25 L81.2 28.45 80.7 29.1 80.0 30.3 Q78.75 32.75 79.45 34.95 79.8 36.2 80.8 37.4 82.25 39.25 85.2 40.95 L89.55 42.05 91.95 42.45 95.15 42.6 Q101.4 42.65 108.2 40.3 L112.5 38.6 113.55 38.15 M97.05 25.05 Q101.25 23.8 105.9 23.65 L109.9 23.85 116.0 23.45 117.9 22.75 M85.05 36.45 L85.5 36.0 Q86.3 35.1 86.35 33.9 86.4 32.65 85.6 31.8 L85.5 31.75 85.35 31.6 Q84.6 30.95 83.6 30.9 L82.75 31.1 Q82.2 31.25 81.75 31.65 L81.55 31.85 Q80.75 32.7 80.75 33.95 L80.9 35.15 81.45 36.05 Q82.35 36.8 83.5 36.75 L83.6 36.8 85.05 36.45 M99.7 38.05 Q106.35 37.4 113.4 34.5 L116.45 33.1 M69.5 22.4 Q69.0 21.5 68.95 20.75 68.65 19.5 69.45 18.65 69.9 18.1 70.65 18.0 M69.5 22.4 Q68.4 25.15 69.0 28.9 L69.6 31.7 M75.15 35.45 Q77.25 35.85 79.45 34.95 M81.2 28.45 L80.95 28.1 80.75 27.8 Q78.75 25.2 75.7 23.85 M69.55 32.0 L69.65 31.8 69.6 31.7 M69.55 32.0 Q68.55 33.6 69.25 34.95 L70.55 36.5 Q72.1 37.7 75.15 38.75 L75.35 38.8 Q79.1 40.0 85.2 40.95 M84.75 25.0 L78.95 21.0" fill="none" stroke="#999999" stroke-linecap="round" stroke-linejoin="round" stroke-width="0.05"/>
    <path d="M125.1 -28.3 Q129.4 -25.05 132.25 -19.05 135.1 -13.1 135.15 -7.6 L137.5 -2.9 139.7 -0.6 141.55 1.45 Q139.5 3.85 137.05 5.55 L135.8 6.35 M95.2 52.95 L95.25 63.15 M60.4 -7.2 Q57.0 -8.7 54.25 -11.45 L55.75 -13.35 57.5 -15.55 59.25 -20.0 Q58.8 -24.9 60.9 -30.45 62.9 -35.9 66.4 -39.05 M72.75 -42.95 L73.05 -43.0 73.75 -43.1 M70.45 -8.1 L69.5 -8.1 Q65.75 -8.2 62.3 -9.55 L60.65 -10.2 Q58.1 -11.45 55.75 -13.35 M65.6 -25.35 Q65.5 -20.8 67.05 -16.35 67.65 -14.6 68.55 -12.85 L69.15 -11.7 69.65 -10.9 70.4 -9.7 70.45 -8.1 70.55 -5.65 71.3 9.05 71.05 10.15 70.65 11.55 Q69.7 15.05 70.65 18.0 M78.95 21.0 Q78.3 15.8 79.85 10.15 M102.5 -21.35 L102.15 -23.5 101.9 -24.65 100.6 -28.9 Q99.1 -32.55 96.65 -35.45 L96.7 -35.65 96.95 -36.25 Q97.85 -38.15 100.55 -37.65 L101.25 -36.75 101.4 -36.6 Q104.4 -32.5 104.75 -26.4 L104.8 -24.7 104.7 -22.0 104.75 -21.9 104.2 -20.5 Q103.35 -18.8 102.6 -20.4 L102.5 -21.35 M69.65 -10.9 Q64.4 -11.45 60.85 -13.25 58.95 -14.2 57.5 -15.55 M70.55 -5.65 Q64.95 -5.25 60.4 -7.2 M116.7 -30.9 Q120.05 -31.8 124.05 -29.05 L125.1 -28.3 M115.35 -7.2 L117.15 -3.25 118.65 0.45 119.95 3.95 120.05 3.95 122.85 3.65 Q130.6 2.5 135.0 -0.7 L137.5 -2.9 M127.35 9.0 L124.85 9.15 120.8 9.0 120.55 6.4 123.9 6.45 Q130.5 6.15 136.05 2.4 L139.7 -0.6 M127.35 9.0 Q132.05 8.45 135.8 6.35 M120.0 4.1 L118.5 7.25 114.85 13.5 115.65 19.7 M120.55 6.4 L120.0 4.1 119.95 3.95 M90.4 63.15 L90.4 62.35 M95.15 42.6 L95.2 52.95 M75.35 45.0 L75.15 38.75 M75.35 45.0 L75.8 63.15" fill="none" stroke="#4b4421" stroke-linecap="round" stroke-linejoin="round" stroke-width="0.05"/>
    <path d="M137.05 5.55 L137.35 6.45 140.15 14.3 Q145.3 21.6 140.75 30.35 L126.45 60.8 M56.45 34.2 Q57.55 22.1 56.1 12.4 54.65 2.7 59.35 0.0 L59.85 -0.3 Q59.95 -2.8 60.4 -7.2 M124.85 9.15 L125.55 11.15 Q126.55 15.95 127.65 19.0 125.1 22.8 124.15 29.85 123.1 37.7 120.45 46.95 L117.9 54.9 M127.65 19.0 Q128.65 21.85 129.8 23.15 M140.8 17.55 Q140.9 16.85 140.15 14.3 M69.0 28.9 L68.4 31.2 M60.05 2.55 Q59.8 1.9 59.85 -0.3" fill="none" stroke="#425337" stroke-linecap="round" stroke-linejoin="round" stroke-width="0.05"/>
    <path d="M79.85 10.15 Q78.4 8.35 77.2 7.8 L75.4 7.7 73.95 6.65 73.45 -15.25 M89.0 -14.65 L89.2 15.75 87.55 14.1 Q86.4 13.25 85.4 13.55 L82.9 13.2 Q81.05 12.5 80.0 10.4 L79.85 10.15 M80.0 10.4 L80.3 3.3 M85.4 13.55 L85.25 -4.3 M75.4 7.7 L75.15 -1.9" fill="none" stroke="#548584" stroke-linecap="round" stroke-linejoin="round" stroke-width="0.05"/>
    <path d="M95.6 52.9 L95.2 52.95 M95.6 52.9 Q100.55 52.05 104.95 48.6 108.2 45.9 111.1 41.75 L112.5 38.6" fill="none" stroke="#3d3d3d" stroke-linecap="round" stroke-linejoin="round" stroke-width="0.05"/>
    <path d="M95.85 63.15 L95.65 55.65 95.6 52.9 M67.85 63.15 L67.95 62.45 Q68.8 57.7 69.6 47.05 M113.55 38.15 L114.5 41.5 115.45 45.7 M70.0 41.6 Q70.15 39.25 70.45 37.2 L70.55 36.5 M69.95 42.4 L69.6 47.05 M70.0 41.6 L69.95 42.4" fill="none" stroke="#666666" stroke-linecap="round" stroke-linejoin="round" stroke-width="0.05"/>
  </g>
  <defs>
    <linearGradient gradientTransform="matrix(0.0127, -7.0E-4, 5.0E-4, 0.0089, 99.85, 30.8)" gradientUnits="userSpaceOnUse" id="gradient0" spreadMethod="pad" x1="-819.2" x2="819.2">
      <stop offset="0.0" stop-color="#dedede"/>
      <stop offset="1.0" stop-color="#ffffff"/>
    </linearGradient>
    <linearGradient gradientTransform="matrix(0.0039, 0.0014, -0.002, 0.0065, 69.15, 28.0)" gradientUnits="userSpaceOnUse" id="gradient1" spreadMethod="pad" x1="-819.2" x2="819.2">
      <stop offset="0.0" stop-color="#dedede"/>
      <stop offset="1.0" stop-color="#ffffff"/>
    </linearGradient>
  </defs>
</svg>
