<?xml version="1.0" encoding="UTF-8" standalone="no"?>
<svg xmlns:xlink="http://www.w3.org/1999/xlink" height="162.8px" width="67.35px" xmlns="http://www.w3.org/2000/svg">
  <g transform="matrix(1, 0, 0, 1, -58.1, 99.65)">
    <path d="M72.5 -66.55 L72.3 -66.2 Q66.4 -67.9 60.7 -63.45 65.0 -73.25 76.0 -75.3 71.6 -82.0 59.95 -82.5 72.15 -86.85 80.7 -85.2 80.6 -89.5 74.7 -95.35 80.6 -95.75 86.55 -90.5 89.45 -94.95 96.6 -99.65 92.1 -92.75 99.85 -85.5 104.4 -91.85 114.85 -94.05 107.95 -86.05 111.9 -79.65 116.3 -81.75 125.45 -75.45 119.7 -76.5 115.75 -73.05 121.75 -65.95 119.85 -57.3 117.7 -62.1 115.05 -61.75 113.8 -52.1 105.6 -48.85 107.25 -51.25 107.6 -53.3 107.95 -55.15 107.15 -56.75 103.6 -58.95 101.7 -55.4 L101.25 -54.4 101.2 -54.2 Q100.75 -53.15 100.45 -51.75 99.6 -52.0 98.85 -52.8 96.75 -54.95 95.45 -60.9 L94.7 -63.6 Q90.95 -67.25 80.0 -64.6 74.65 -69.05 72.5 -66.55 M73.4 -80.75 Q75.85 -79.7 77.95 -77.2 79.45 -75.4 80.75 -72.85 76.55 -72.75 73.9 -71.25 71.6 -70.05 70.5 -67.75 71.75 -68.3 72.95 -68.65 79.4 -70.5 83.7 -66.3 L83.7 -66.4 Q88.5 -67.6 92.15 -67.05 99.8 -74.0 104.0 -69.35 104.9 -67.65 105.25 -65.9 105.8 -63.55 105.35 -61.2 108.2 -59.8 109.0 -56.05 L109.2 -55.15 Q112.9 -56.85 110.6 -63.45 L109.95 -65.0 110.6 -64.95 Q113.1 -64.65 114.45 -63.25 113.85 -67.35 109.5 -72.5 112.4 -74.95 116.15 -75.45 111.1 -77.85 107.3 -76.3 103.9 -81.8 108.95 -87.6 102.25 -85.05 100.05 -81.5 L99.5 -80.3 Q98.15 -81.5 97.15 -82.6 92.6 -87.45 93.3 -90.85 90.55 -88.35 88.95 -84.65 84.15 -88.9 82.35 -88.95 84.05 -84.65 84.25 -81.65 L84.25 -81.25 83.65 -81.4 Q77.85 -82.35 73.4 -80.75" fill="#eabd57" fill-rule="evenodd" stroke="none"/>
    <path d="M73.4 -80.75 Q77.85 -82.35 83.65 -81.4 L84.25 -81.25 84.25 -81.65 Q84.05 -84.65 82.35 -88.95 84.15 -88.9 88.95 -84.65 90.55 -88.35 93.3 -90.85 92.6 -87.45 97.15 -82.6 98.15 -81.5 99.5 -80.3 L100.05 -81.5 Q102.25 -85.05 108.95 -87.6 103.9 -81.8 107.3 -76.3 111.1 -77.85 116.15 -75.45 112.4 -74.95 109.5 -72.5 113.85 -67.35 114.45 -63.25 113.1 -64.65 110.6 -64.95 L109.95 -65.0 110.6 -63.45 Q112.9 -56.85 109.2 -55.15 L109.0 -56.05 Q108.2 -59.8 105.35 -61.2 105.8 -63.55 105.25 -65.9 104.9 -67.65 104.0 -69.35 99.8 -74.0 92.15 -67.05 88.5 -67.6 83.7 -66.4 L83.7 -66.3 Q79.4 -70.5 72.95 -68.65 71.75 -68.3 70.5 -67.75 71.6 -70.05 73.9 -71.25 76.55 -72.75 80.75 -72.85 79.45 -75.4 77.95 -77.2 75.85 -79.7 73.4 -80.75 M72.85 -62.75 Q73.9 -65.9 78.0 -62.2 74.25 -64.4 72.85 -62.75 M92.4 -56.2 Q89.8 -61.5 83.7 -60.6 89.6 -62.95 92.4 -56.2" fill="#dfa724" fill-rule="evenodd" stroke="none"/>
    <path d="M118.25 7.8 L118.3 11.9 118.0 12.05 Q118.7 14.5 118.65 17.3 118.5 21.7 114.25 41.6 L114.7 42.05 118.4 53.3 117.65 54.75 118.0 55.95 117.85 56.0 110.55 52.2 108.15 51.55 107.9 51.45 105.35 50.85 99.65 53.3 99.75 43.25 Q102.9 40.25 107.4 39.8 L107.95 39.55 107.85 37.05 107.75 31.45 Q107.85 22.8 109.3 13.65 L108.75 13.35 108.45 9.75 Q110.95 5.35 118.25 7.8 M58.2 40.25 L58.1 40.1 58.65 39.1 58.45 37.5 65.1 27.7 65.6 27.4 Q66.95 7.1 68.05 2.85 68.5 1.05 69.25 -0.45 L68.45 -1.1 68.8 -5.35 Q74.35 -6.85 76.9 -4.25 75.5 5.2 76.35 7.1 L76.05 7.5 75.9 7.85 Q74.45 10.2 74.8 14.15 L75.65 15.45 75.6 15.6 Q74.8 14.85 74.55 13.8 73.9 16.7 73.85 19.05 72.75 22.1 72.4 26.6 L72.2 27.15 72.35 27.25 72.35 27.4 72.3 28.5 71.25 38.75 69.0 38.6 68.75 38.65 66.3 38.65 58.2 40.25 M79.55 -39.35 L77.8 -41.0 Q72.25 -46.9 72.2 -56.25 72.2 -63.6 72.5 -66.55 74.65 -69.05 80.0 -64.6 90.95 -67.25 94.7 -63.6 L95.45 -60.9 Q96.75 -54.95 98.85 -52.8 L98.75 -49.1 Q98.45 -45.9 97.1 -43.5 96.0 -41.75 94.35 -40.45 90.9 -37.8 84.95 -37.2 L83.0 -37.6 82.45 -37.8 Q81.55 -38.1 80.7 -38.55 L79.95 -39.1 79.6 -39.3 79.55 -39.35 M101.2 -54.2 L101.25 -54.4 101.7 -55.4 101.8 -55.55 Q102.6 -56.7 104.0 -56.95 105.55 -57.3 106.15 -55.75 106.7 -54.3 106.55 -52.9 L106.4 -51.95 Q105.25 -55.45 103.05 -52.95 101.4 -52.75 101.2 -53.7 L101.2 -54.2 M72.85 -62.75 Q74.25 -64.4 78.0 -62.2 73.9 -65.9 72.85 -62.75 M75.2 -54.15 Q76.05 -53.45 77.05 -53.05 77.4 -55.0 77.35 -56.8 L76.9 -60.1 75.3 -61.2 74.9 -61.3 74.3 -61.3 Q72.9 -61.0 73.05 -57.2 L73.35 -56.55 73.7 -55.95 74.0 -55.4 75.2 -54.15 M84.2 -42.8 L83.4 -42.85 Q82.0 -42.95 80.7 -43.4 L78.15 -44.8 80.7 -43.4 Q82.0 -42.95 83.4 -42.85 L84.2 -42.8 M77.35 -49.35 Q77.3 -49.05 77.4 -48.8 77.55 -47.6 79.15 -48.1 78.5 -48.4 78.0 -48.8 L77.35 -49.35 M85.95 -50.0 Q88.7 -49.5 90.75 -50.35 L90.85 -50.4 Q91.3 -57.5 85.25 -57.65 L83.65 -57.55 Q83.05 -54.95 82.95 -50.9 L85.7 -50.05 85.95 -50.0 M92.4 -56.2 Q89.6 -62.95 83.7 -60.6 89.8 -61.5 92.4 -56.2 M114.0 42.6 L114.25 41.6 114.0 42.6 M108.0 40.8 L107.95 39.55 108.0 40.8 M65.55 28.4 L65.6 27.4 65.55 28.4 M72.3 28.5 Q72.0 27.8 72.2 27.15 72.0 27.8 72.3 28.5" fill="#ffdfc8" fill-rule="evenodd" stroke="none"/>
    <path d="M76.5 -58.05 L76.55 -58.55 76.35 -59.2 75.7 -59.5 Q75.3 -59.5 75.05 -59.2 L74.85 -58.8 74.6 -58.6 Q74.3 -58.05 74.3 -57.3 74.3 -56.55 74.6 -56.0 74.9 -55.4 75.35 -55.4 75.85 -55.4 76.2 -56.0 76.55 -56.55 76.55 -57.25 L76.5 -58.05 M73.95 -55.6 L73.75 -57.25 Q73.75 -58.55 74.25 -59.45 74.7 -60.35 75.35 -60.35 76.1 -60.35 76.6 -59.45 77.1 -58.55 77.1 -57.25 77.1 -55.95 76.6 -55.0 76.1 -54.15 75.35 -54.15 L75.2 -54.15 74.0 -55.4 73.95 -55.6 M85.7 -50.05 Q85.1 -50.25 84.65 -50.95 84.0 -51.95 84.05 -53.4 84.0 -54.9 84.65 -55.95 85.25 -56.95 86.15 -56.9 87.1 -56.95 87.75 -55.95 88.35 -54.9 88.3 -53.4 88.35 -51.95 87.75 -50.95 87.1 -49.95 86.15 -50.0 L85.95 -50.0 85.7 -50.05 M87.5 -54.25 L87.7 -54.75 87.3 -55.55 86.5 -55.9 Q86.05 -55.9 85.7 -55.55 L85.45 -55.2 85.15 -54.95 Q84.7 -54.35 84.7 -53.5 84.7 -52.55 85.15 -51.9 85.6 -51.3 86.15 -51.35 86.8 -51.3 87.25 -51.9 87.65 -52.55 87.6 -53.4 L87.5 -54.25" fill="#ccffcc" fill-rule="evenodd" stroke="none"/>
    <path d="M74.85 -58.8 L75.05 -59.2 Q75.3 -59.5 75.7 -59.5 L76.35 -59.2 76.55 -58.55 76.5 -58.05 76.4 -57.9 76.35 -57.75 75.7 -57.45 Q75.3 -57.5 75.05 -57.75 74.8 -58.1 74.8 -58.55 L74.85 -58.8 M75.2 -54.15 L75.35 -54.15 Q76.1 -54.15 76.6 -55.0 77.1 -55.95 77.1 -57.25 77.1 -58.55 76.6 -59.45 76.1 -60.35 75.35 -60.35 74.7 -60.35 74.25 -59.45 73.75 -58.55 73.75 -57.25 L73.95 -55.6 73.7 -55.95 73.35 -56.55 73.35 -58.75 74.3 -61.3 74.9 -61.3 75.3 -61.2 76.9 -60.1 77.35 -56.8 Q77.4 -55.0 77.05 -53.05 76.05 -53.45 75.2 -54.15 M85.95 -50.0 L86.15 -50.0 Q87.1 -49.95 87.75 -50.95 88.35 -51.95 88.3 -53.4 88.35 -54.9 87.75 -55.95 87.1 -56.95 86.15 -56.9 85.25 -56.95 84.65 -55.95 84.0 -54.9 84.05 -53.4 84.0 -51.95 84.65 -50.95 85.1 -50.25 85.7 -50.05 L82.95 -50.9 Q83.05 -54.95 83.65 -57.55 L85.25 -57.65 86.95 -57.0 Q90.25 -56.4 90.75 -52.45 L90.75 -50.35 Q88.7 -49.5 85.95 -50.0 M87.5 -54.25 L87.3 -54.0 Q86.95 -53.65 86.5 -53.65 86.05 -53.65 85.7 -54.0 85.3 -54.3 85.25 -54.75 L85.45 -55.2 85.7 -55.55 Q86.05 -55.9 86.5 -55.9 L87.3 -55.55 87.7 -54.75 87.5 -54.25 M92.45 1.5 L92.35 1.35 92.45 1.35 92.45 1.5" fill="#ffffff" fill-rule="evenodd" stroke="none"/>
    <path d="M74.85 -58.8 L74.8 -58.55 Q74.8 -58.1 75.05 -57.75 75.3 -57.5 75.7 -57.45 L76.35 -57.75 76.4 -57.9 76.5 -58.05 76.55 -57.25 Q76.55 -56.55 76.2 -56.0 75.85 -55.4 75.35 -55.4 74.9 -55.4 74.6 -56.0 74.3 -56.55 74.3 -57.3 74.3 -58.05 74.6 -58.6 L74.85 -58.8 M85.45 -55.2 L85.25 -54.75 Q85.3 -54.3 85.7 -54.0 86.05 -53.65 86.5 -53.65 86.95 -53.65 87.3 -54.0 L87.5 -54.25 87.6 -53.4 Q87.65 -52.55 87.25 -51.9 86.8 -51.3 86.15 -51.35 85.6 -51.3 85.15 -51.9 84.7 -52.55 84.7 -53.5 84.7 -54.35 85.15 -54.95 L85.45 -55.2" fill="#000000" fill-rule="evenodd" stroke="none"/>
    <path d="M107.6 -53.3 L106.3 -51.4 105.8 -49.7 105.8 -49.6 103.1 -46.65 102.5 -45.55 102.3 -44.75 102.2 -44.8 101.45 -40.5 96.6 -40.3 Q94.5 -39.2 91.9 -38.25 88.1 -36.85 84.95 -37.2 90.9 -37.8 94.35 -40.45 96.0 -41.75 97.1 -43.5 98.45 -45.9 98.75 -49.1 L98.85 -52.8 Q99.6 -52.0 100.45 -51.75 100.75 -53.15 101.2 -54.2 L101.2 -53.7 Q101.4 -52.75 103.05 -52.95 L102.75 -52.15 102.7 -49.9 Q104.1 -51.85 104.1 -49.6 104.1 -51.85 102.7 -49.9 L102.75 -52.15 103.05 -52.95 Q105.25 -55.45 106.4 -51.95 L106.55 -52.9 Q106.7 -54.3 106.15 -55.75 105.55 -57.3 104.0 -56.95 102.6 -56.7 101.8 -55.55 L101.7 -55.4 Q103.6 -58.95 107.15 -56.75 107.95 -55.15 107.6 -53.3 M118.2 3.65 L118.25 7.8 Q110.95 5.35 108.45 9.75 L107.85 3.75 Q113.45 5.45 118.2 3.65 M117.85 56.0 L113.15 57.0 106.8 58.35 106.65 58.35 105.5 56.25 99.65 53.3 105.35 50.85 107.9 51.45 108.15 51.55 110.55 52.2 117.85 56.0 M70.35 43.85 L70.05 43.9 68.35 45.65 68.15 45.5 58.2 40.25 66.3 38.65 68.75 38.65 69.0 38.6 71.25 38.75 70.75 41.85 70.35 43.85 M68.8 -5.35 L68.95 -8.35 Q72.75 -6.65 77.4 -7.5 L76.9 -4.25 Q74.35 -6.85 68.8 -5.35 M79.15 -48.1 Q77.55 -47.6 77.4 -48.8 77.3 -49.05 77.35 -49.35 L78.0 -48.8 Q78.5 -48.4 79.15 -48.1 M106.3 -51.4 L106.4 -51.95 106.3 -51.4 M102.5 -45.55 L100.9 -43.5 Q99.15 -41.8 96.6 -40.3 99.15 -41.8 100.9 -43.5 L102.5 -45.55 M107.9 51.45 L105.5 56.25 107.9 51.45 M70.05 43.9 L69.0 38.6 70.05 43.9" fill="#ffd0ae" fill-rule="evenodd" stroke="none"/>
    <path d="M107.85 -31.35 L107.95 -31.65 Q115.6 -27.55 118.1 -20.25 119.9 -15.25 119.2 -8.65 L118.1 -6.5 Q116.55 -4.25 113.85 -3.2 116.3 -2.85 118.1 -3.85 L119.45 -4.9 120.1 2.75 118.2 3.65 Q113.45 5.45 107.85 3.75 L105.95 3.05 104.55 2.45 104.4 -1.1 Q102.75 2.2 100.7 5.2 L100.95 12.45 Q99.8 14.9 98.5 15.8 L97.95 15.9 97.75 15.95 88.55 15.3 88.15 15.2 83.7 14.3 83.0 13.95 82.7 13.85 Q79.05 12.0 77.5 9.85 L77.15 9.25 77.0 8.9 76.55 7.9 76.45 7.5 76.35 7.1 Q75.5 5.2 76.9 -4.25 L77.4 -7.5 78.4 -13.2 77.6 -14.85 76.8 -16.9 76.45 -17.75 Q74.55 -23.35 75.6 -28.85 74.55 -23.35 76.45 -17.75 L76.8 -16.9 77.6 -14.85 78.4 -13.2 77.4 -7.5 Q72.75 -6.65 68.95 -8.35 68.1 -8.75 67.25 -9.25 L68.1 -16.05 69.35 -15.05 Q70.95 -14.05 73.2 -14.2 70.8 -15.3 69.45 -17.35 68.85 -18.25 68.5 -19.4 68.1 -25.3 69.9 -29.7 72.4 -36.1 79.55 -39.35 L79.6 -39.3 79.75 -38.85 79.95 -39.1 80.7 -38.55 Q81.55 -38.1 82.45 -37.8 L82.0 -34.75 82.0 -32.85 Q82.2 -29.35 84.2 -26.85 85.15 -25.7 86.55 -24.75 94.55 -21.85 102.0 -30.45 105.35 -28.45 105.95 -27.85 L106.25 -27.6 107.85 -31.35 M113.15 57.0 L114.0 60.3 114.0 62.45 114.0 63.15 98.45 63.15 91.1 63.15 91.35 49.95 Q91.4 45.65 90.35 35.45 91.25 35.05 92.2 34.7 94.15 33.95 95.95 33.6 104.0 31.7 107.85 37.05 L107.95 39.55 107.4 39.8 Q102.9 40.25 99.75 43.25 L99.65 53.3 105.5 56.25 106.65 58.35 106.8 58.35 113.15 57.0 M90.45 40.05 Q90.35 50.75 90.95 58.45 L90.0 63.15 75.35 63.15 69.95 63.15 Q69.3 61.15 68.75 58.1 L68.15 54.7 70.35 43.85 70.75 41.85 71.25 38.75 72.3 28.5 72.35 27.4 72.5 27.4 75.8 27.15 Q74.75 25.0 74.15 22.35 L74.0 21.6 Q73.8 20.4 73.85 19.05 73.9 16.7 74.55 13.8 74.8 14.85 75.6 15.6 L76.25 16.15 76.6 16.5 76.45 16.45 76.8 28.7 77.0 37.55 77.05 39.05 77.15 43.55 78.3 44.15 Q78.9 43.85 79.65 44.15 80.6 44.55 81.8 45.85 82.55 47.25 83.9 47.65 L85.8 47.85 Q86.6 47.55 87.45 48.1 L88.65 49.2 88.6 34.9 88.8 34.9 89.15 34.9 89.45 34.9 89.15 34.9 88.8 34.9 88.6 34.9 88.5 22.0 91.8 22.3 Q89.4 26.6 90.3 34.9 L89.45 34.9 Q90.25 37.15 90.45 40.05 M100.95 -14.65 Q101.55 -10.3 103.2 -8.35 L104.15 -3.15 104.4 -1.1 104.15 -3.15 103.2 -8.35 Q101.55 -10.3 100.95 -14.65 M103.45 18.05 L103.65 17.95 Q104.65 20.2 104.85 22.1 L104.0 20.1 103.0 19.85 103.45 18.05 M92.45 1.5 L92.45 1.35 92.35 1.35 92.45 1.5 M75.35 63.15 Q75.1 60.65 75.25 57.5 L77.05 39.05 75.25 57.5 Q75.1 60.65 75.35 63.15 M98.45 63.15 L95.95 33.6 98.45 63.15 M76.8 28.7 L75.8 27.15 76.8 28.7" fill="#738f56" fill-rule="evenodd" stroke="none"/>
    <path d="M105.95 -42.4 Q107.1 -38.2 106.6 -34.75 L106.2 -33.0 106.05 -32.95 105.85 -32.85 Q104.05 -31.5 102.0 -30.45 94.55 -21.85 86.55 -24.75 85.15 -25.7 84.2 -26.85 82.2 -29.35 82.0 -32.85 L82.0 -34.75 82.45 -37.8 83.0 -37.6 84.95 -37.2 Q88.1 -36.85 91.9 -38.25 94.5 -39.2 96.6 -40.3 L101.45 -40.5 101.7 -40.55 102.65 -40.65 Q105.9 -41.25 105.95 -42.4 M119.2 -8.65 L119.45 -4.9 118.1 -3.85 Q116.3 -2.85 113.85 -3.2 116.55 -4.25 118.1 -6.5 L119.2 -8.65 M68.1 -16.05 L68.5 -19.4 Q68.85 -18.25 69.45 -17.35 70.8 -15.3 73.2 -14.2 70.95 -14.05 69.35 -15.05 L68.1 -16.05 M99.45 -34.8 Q85.85 -28.4 83.55 -34.75 83.05 -35.95 83.0 -37.6 83.05 -35.95 83.55 -34.75 85.85 -28.4 99.45 -34.8" fill="#4b5232" fill-rule="evenodd" stroke="none"/>
    <path d="M102.3 -44.75 L102.95 -44.6 Q106.1 -43.55 105.95 -42.4 105.9 -41.25 102.65 -40.65 L101.7 -40.55 101.45 -40.5 102.2 -44.8 102.3 -44.75" fill="#3a1b1b" fill-rule="evenodd" stroke="none"/>
    <path d="M105.85 -32.85 L107.05 -32.1 107.65 -31.5 107.85 -31.35 106.25 -27.6 105.95 -27.85 Q105.35 -28.45 102.0 -30.45 104.05 -31.5 105.85 -32.85 M90.35 35.45 L90.3 34.9 90.45 40.05 Q90.25 37.15 89.45 34.9 L90.3 34.9 Q89.4 26.6 91.8 22.3 L94.95 22.25 Q99.45 21.9 102.95 20.0 L103.0 19.85 104.0 20.1 104.85 22.1 105.6 24.0 Q106.4 25.95 107.75 31.45 L107.85 37.05 Q104.0 31.7 95.95 33.6 94.15 33.95 92.2 34.7 91.25 35.05 90.35 35.45 M98.5 15.8 Q99.8 14.9 100.95 12.45 L100.7 5.2 Q102.75 2.2 104.4 -1.1 L104.55 2.45 105.95 3.05 105.0 11.1 Q103.9 13.55 102.6 14.4 101.05 15.5 98.5 15.8 M95.95 33.6 L94.95 22.25 95.95 33.6 M75.7 15.5 L76.25 16.15 75.6 15.6 75.7 15.5 M73.85 19.05 Q73.8 20.4 74.0 21.6 L74.15 22.35 Q74.75 25.0 75.8 27.15 L72.5 27.4 72.35 27.4 72.35 27.25 72.4 26.6 Q72.75 22.1 73.85 19.05" fill="#5e7546" fill-rule="evenodd" stroke="none"/>
    <path d="M82.7 13.85 L83.0 13.95 83.7 14.3 88.15 15.2 88.55 15.3 97.75 15.95 97.95 15.9 98.5 15.8 Q101.05 15.5 102.6 14.4 103.65 16.1 103.45 18.05 L103.0 19.85 102.95 20.0 Q99.45 21.9 94.95 22.25 L91.8 22.3 88.5 22.0 87.85 21.9 85.65 21.5 82.1 20.2 85.65 21.5 87.85 21.9 88.5 22.0 88.6 34.9 88.65 49.2 87.45 48.1 Q86.6 47.55 85.8 47.85 L83.9 47.65 Q82.55 47.25 81.8 45.85 80.6 44.55 79.65 44.15 78.9 43.85 78.3 44.15 L77.15 43.55 77.05 39.05 77.0 37.55 76.8 28.7 76.45 16.45 76.6 16.5 Q78.6 18.6 82.1 20.2 L81.8 17.95 Q81.65 15.9 82.3 14.55 L82.7 13.85 M85.7 35.3 L85.8 47.85 85.7 35.3 M82.0 40.75 L81.8 45.85 82.0 40.75 M78.3 44.15 L77.0 37.55 78.3 44.15" fill="#823939" fill-rule="evenodd" stroke="none"/>
    <path d="M76.35 7.1 L76.45 7.5 76.55 7.9 77.0 8.9 77.15 9.25 77.5 9.85 Q79.05 12.0 82.7 13.85 L82.3 14.55 Q81.65 15.9 81.8 17.95 L82.1 20.2 Q78.6 18.6 76.6 16.5 L76.25 16.15 75.7 15.5 75.65 15.45 74.8 14.15 Q74.45 10.2 75.9 7.85 L76.05 7.5 76.35 7.1" fill="#ae654a" fill-rule="evenodd" stroke="none"/>
    <path d="M67.4 63.15 L67.0 63.15 67.05 62.9 67.15 62.9 67.4 63.15" fill="#a67e71" fill-rule="evenodd" stroke="none"/>
    <path d="M114.0 62.45 L114.7 63.15 114.0 63.15 114.0 62.45 M69.95 63.15 L67.4 63.15 67.15 62.9 67.05 62.75 Q67.5 60.1 68.75 58.1 69.3 61.15 69.95 63.15" fill="#61463d" fill-rule="evenodd" stroke="none"/>
    <path d="M67.05 62.9 L67.05 62.75 67.15 62.9 67.05 62.9" fill="#8e8e8e" fill-rule="evenodd" stroke="none"/>
    <path d="M72.5 -66.55 L72.3 -66.2 Q66.4 -67.9 60.7 -63.45 65.0 -73.25 76.0 -75.3 71.6 -82.0 59.95 -82.5 72.15 -86.85 80.7 -85.2 80.6 -89.5 74.7 -95.35 80.6 -95.75 86.55 -90.5 89.45 -94.95 96.6 -99.65 92.1 -92.75 99.85 -85.5 104.4 -91.85 114.85 -94.05 107.95 -86.05 111.9 -79.65 116.3 -81.75 125.45 -75.45 119.7 -76.5 115.75 -73.05 121.75 -65.95 119.85 -57.3 117.7 -62.1 115.05 -61.75 113.8 -52.1 105.6 -48.85 107.25 -51.25 107.6 -53.3 M72.5 -66.55 Q74.65 -69.05 80.0 -64.6 90.95 -67.25 94.7 -63.6 L95.45 -60.9 Q96.75 -54.95 98.85 -52.8 99.6 -52.0 100.45 -51.75 100.75 -53.15 101.2 -54.2 L101.25 -54.4 101.7 -55.4 Q103.6 -58.95 107.15 -56.75 107.95 -55.15 107.6 -53.3 M72.85 -62.75 Q73.9 -65.9 78.0 -62.2 74.25 -64.4 72.85 -62.75 M92.4 -56.2 Q89.6 -62.95 83.7 -60.6 89.8 -61.5 92.4 -56.2" fill="none" stroke="#a8721a" stroke-linecap="round" stroke-linejoin="round" stroke-width="0.05"/>
    <path d="M107.6 -53.3 L106.3 -51.4 105.8 -49.7 105.8 -49.6 103.1 -46.65 102.5 -45.55 102.3 -44.75 M118.2 3.65 L118.25 7.8 118.3 11.9 M118.0 12.05 Q118.7 14.5 118.65 17.3 118.5 21.7 114.25 41.6 L114.7 42.05 118.4 53.3 117.65 54.75 118.0 55.95 117.85 56.0 113.15 57.0 M70.35 43.85 L70.05 43.9 68.35 45.65 68.15 45.5 58.2 40.25 58.1 40.1 58.65 39.1 58.45 37.5 65.1 27.7 65.6 27.4 Q66.95 7.1 68.05 2.85 68.5 1.05 69.25 -0.45 M68.45 -1.1 L68.8 -5.35 68.95 -8.35 M79.55 -39.35 L77.8 -41.0 Q72.25 -46.9 72.2 -56.25 72.2 -63.6 72.5 -66.55 M75.2 -54.15 Q76.05 -53.45 77.05 -53.05 77.4 -55.0 77.35 -56.8 L76.9 -60.1 75.3 -61.2 74.9 -61.3 74.3 -61.3 Q72.9 -61.0 73.05 -57.2 L73.35 -56.55 73.7 -55.95 M74.0 -55.4 L75.2 -54.15 M74.0 -55.4 L73.7 -55.95 M78.15 -44.8 L80.7 -43.4 Q82.0 -42.95 83.4 -42.85 L84.2 -42.8 M79.15 -48.1 Q77.55 -47.6 77.4 -48.8 77.3 -49.05 77.35 -49.35 M79.95 -39.1 L80.7 -38.55 Q81.55 -38.1 82.45 -37.8 L83.0 -37.6 84.95 -37.2 Q88.1 -36.85 91.9 -38.25 94.5 -39.2 96.6 -40.3 99.15 -41.8 100.9 -43.5 L102.5 -45.55 M79.6 -39.3 L79.95 -39.1 M79.6 -39.3 L79.55 -39.35 M85.95 -50.0 Q88.7 -49.5 90.75 -50.35 L90.85 -50.4 Q91.3 -57.5 85.25 -57.65 L83.65 -57.55 Q83.05 -54.95 82.95 -50.9 L85.7 -50.05 85.95 -50.0 M101.8 -55.55 Q102.6 -56.7 104.0 -56.95 105.55 -57.3 106.15 -55.75 106.7 -54.3 106.55 -52.9 L106.4 -51.95 106.3 -51.4 M103.05 -52.95 L102.75 -52.15 102.7 -49.9 Q104.1 -51.85 104.1 -49.6 M106.4 -51.95 Q105.25 -55.45 103.05 -52.95 M107.75 31.45 Q107.85 22.8 109.3 13.65 M108.75 13.35 L108.45 9.75 107.85 3.75 M107.85 37.05 L107.75 31.45 M107.95 39.55 L108.0 40.8 M114.25 41.6 L114.0 42.6 M107.95 39.55 L107.4 39.8 Q102.9 40.25 99.75 43.25 L99.65 53.3 105.5 56.25 107.9 51.45 108.15 51.55 M107.85 37.05 L107.95 39.55 M105.5 56.25 L106.65 58.35 106.8 58.35 113.15 57.0 M75.65 15.45 L75.6 15.6 M72.2 27.15 L72.4 26.6 M72.35 27.25 L72.2 27.15 Q72.0 27.8 72.3 28.5 M65.6 27.4 L65.55 28.4 M69.0 38.6 L70.05 43.9 M69.0 38.6 L68.75 38.65" fill="none" stroke="#fb8264" stroke-linecap="round" stroke-linejoin="round" stroke-width="0.05"/>
    <path d="M105.85 -32.85 L107.05 -32.1 107.65 -31.5 107.85 -31.35 M107.95 -31.65 Q115.6 -27.55 118.1 -20.25 119.9 -15.25 119.2 -8.65 L119.45 -4.9 120.1 2.75 118.2 3.65 M68.95 -8.35 Q68.1 -8.75 67.25 -9.25 L68.1 -16.05 68.5 -19.4 Q68.1 -25.3 69.9 -29.7 72.4 -36.1 79.55 -39.35 M77.4 -7.5 L78.4 -13.2 77.6 -14.85 76.8 -16.9 76.45 -17.75 Q74.55 -23.35 75.6 -28.85 M73.2 -14.2 Q70.8 -15.3 69.45 -17.35 68.85 -18.25 68.5 -19.4 M77.4 -7.5 L76.9 -4.25 Q75.5 5.2 76.35 7.1 L76.45 7.5 76.55 7.9 77.0 8.9 77.15 9.25 77.5 9.85 Q79.05 12.0 82.7 13.85 L83.0 13.95 83.7 14.3 88.15 15.2 88.55 15.3 97.75 15.95 97.95 15.9 98.5 15.8 M104.4 -1.1 L104.15 -3.15 103.2 -8.35 Q101.55 -10.3 100.95 -14.65 M68.95 -8.35 Q72.75 -6.65 77.4 -7.5 M82.45 -37.8 L82.0 -34.75 82.0 -32.85 Q82.2 -29.35 84.2 -26.85 85.15 -25.7 86.55 -24.75 94.55 -21.85 102.0 -30.45 M119.2 -8.65 L118.1 -6.5 Q116.55 -4.25 113.85 -3.2 M105.95 3.05 L104.55 2.45 104.4 -1.1 M107.85 3.75 L105.95 3.05 105.0 11.1 Q103.9 13.55 102.6 14.4 103.65 16.1 103.45 18.05 L103.65 17.95 Q104.65 20.2 104.85 22.1 M107.85 3.75 Q113.45 5.45 118.2 3.65 M103.0 19.85 L102.95 20.0 Q99.45 21.9 94.95 22.25 M103.0 19.85 L103.45 18.05 M82.1 20.2 L85.65 21.5 87.85 21.9 88.5 22.0 91.8 22.3 94.95 22.25 M90.3 34.9 L89.45 34.9 89.15 34.9 88.8 34.9 88.6 34.9 M102.6 14.4 Q101.05 15.5 98.5 15.8 M76.35 7.1 L76.05 7.5 75.9 7.85 Q74.45 10.2 74.8 14.15 L75.65 15.45 75.7 15.5 76.25 16.15 76.6 16.5 Q78.6 18.6 82.1 20.2 M75.6 15.6 Q74.8 14.85 74.55 13.8 73.9 16.7 73.85 19.05 73.8 20.4 74.0 21.6 L74.15 22.35 Q74.75 25.0 75.8 27.15 L76.8 28.7 M76.25 16.15 L75.6 15.6" fill="none" stroke="#5a5430" stroke-linecap="round" stroke-linejoin="round" stroke-width="0.05"/>
    <path d="M102.3 -44.75 L102.95 -44.6 Q106.1 -43.55 105.95 -42.4 107.1 -38.2 106.6 -34.75 L106.2 -33.0 106.05 -32.95 105.85 -32.85 M102.2 -44.8 L102.3 -44.75 M101.45 -40.5 L101.7 -40.55 102.65 -40.65 Q105.9 -41.25 105.95 -42.4 M102.0 -30.45 Q104.05 -31.5 105.85 -32.85 M83.0 -37.6 Q83.05 -35.95 83.55 -34.75 85.85 -28.4 99.45 -34.8 M96.6 -40.3 L101.45 -40.5" fill="none" stroke="#421e1e" stroke-linecap="round" stroke-linejoin="round" stroke-width="0.05"/>
    <path d="M113.15 57.0 L114.0 60.3 114.0 62.45 114.0 63.15 M91.1 63.15 L91.35 49.95 Q91.4 45.65 90.35 35.45 L90.3 34.9 90.45 40.05 Q90.35 50.75 90.95 58.45 L90.0 63.15 M68.75 58.1 L68.15 54.7 70.35 43.85 M104.85 22.1 L105.6 24.0 Q106.4 25.95 107.75 31.45 M94.95 22.25 L95.95 33.6 98.45 63.15 M104.85 22.1 L104.0 20.1 103.0 19.85 M77.05 39.05 L75.25 57.5 Q75.1 60.65 75.35 63.15 M91.8 22.3 Q89.4 26.6 90.3 34.9 M75.6 15.6 L75.7 15.5 M72.35 27.4 L72.3 28.5 71.25 38.75 70.75 41.85 70.35 43.85 M72.4 26.6 Q72.75 22.1 73.85 19.05 M72.4 26.6 L72.35 27.25 72.35 27.4 M69.95 63.15 Q69.3 61.15 68.75 58.1" fill="none" stroke="#49614b" stroke-linecap="round" stroke-linejoin="round" stroke-width="0.05"/>
    <path d="M88.6 34.9 L88.65 49.2 87.45 48.1 Q86.6 47.55 85.8 47.85 L83.9 47.65 Q82.55 47.25 81.8 45.85 80.6 44.55 79.65 44.15 78.9 43.85 78.3 44.15 M81.8 45.85 L82.0 40.75 M85.8 47.85 L85.7 35.3 M88.6 34.9 L88.5 22.0 M76.6 16.5 L76.45 16.45 76.8 28.7 77.0 37.55 78.3 44.15" fill="none" stroke="#542525" stroke-linecap="round" stroke-linejoin="round" stroke-width="0.05"/>
    <path d="M114.0 62.45 L114.7 63.15 M67.0 63.15 L67.05 62.9 67.05 62.75 Q67.5 60.1 68.75 58.1 M67.05 62.9 L67.15 62.9 67.05 62.75 M67.15 62.9 L67.4 63.15" fill="none" stroke="#3f2c27" stroke-linecap="round" stroke-linejoin="round" stroke-width="0.05"/>
    <path d="M78.3 44.15 L77.15 43.55 77.05 39.05 M77.0 37.55 L77.05 39.05" fill="none" stroke="#674743" stroke-linecap="round" stroke-linejoin="round" stroke-width="0.05"/>
  </g>
</svg>
