<?xml version="1.0" encoding="UTF-8" standalone="no"?>
<svg xmlns:xlink="http://www.w3.org/1999/xlink" height="156.0px" width="73.35px" xmlns="http://www.w3.org/2000/svg">
  <g transform="matrix(1, 0, 0, 1, -56.7, 95.15)">
    <path d="M62.7 -56.85 Q64.05 -74.7 79.4 -79.3 L81.0 -79.0 Q88.85 -83.15 96.5 -81.4 L98.3 -80.85 Q100.25 -80.3 102.2 -79.3 107.65 -75.5 109.4 -70.0 L109.7 -68.55 Q110.35 -65.7 110.5 -63.0 108.25 -69.25 104.85 -72.75 L104.65 -72.55 Q99.65 -66.4 95.45 -65.4 99.75 -70.6 101.55 -75.3 96.8 -78.1 90.45 -76.9 L88.0 -73.75 Q85.95 -76.55 83.45 -77.9 L83.05 -78.1 Q69.4 -71.8 62.7 -56.85 M98.25 -87.3 Q98.4 -89.3 99.3 -91.45 114.95 -100.8 122.45 -86.45 123.9 -80.55 125.55 -75.3 115.9 -95.55 105.3 -87.3 102.2 -91.3 98.25 -87.3" fill="#db630b" fill-rule="evenodd" stroke="none"/>
    <path d="M116.8 11.85 L116.85 15.95 116.6 16.1 Q117.25 18.55 117.2 21.35 117.1 25.75 112.8 45.65 L113.25 46.1 117.0 57.35 116.25 58.8 116.6 60.0 116.4 60.05 109.1 56.25 106.75 55.6 106.45 55.5 103.95 54.9 98.25 57.35 98.3 50.45 98.3 47.3 98.6 47.1 Q101.65 44.25 105.95 43.85 L106.5 43.6 106.45 42.2 Q106.2 36.8 106.45 31.2 106.8 24.6 107.85 17.7 L107.3 17.4 107.0 13.8 Q109.5 9.4 116.8 11.85 M56.8 44.3 L56.7 44.15 57.25 43.15 57.0 41.55 63.65 31.75 64.15 31.45 Q65.5 11.15 66.65 6.9 67.1 5.1 67.8 3.6 L67.05 2.95 67.35 -1.3 Q73.8 -3.05 76.15 0.75 L75.65 1.25 Q74.85 2.3 74.8 3.55 L74.75 3.85 73.6 14.15 73.4 15.05 73.4 15.3 Q73.4 16.55 74.05 17.85 L73.85 17.75 66.2 37.3 Q68.2 40.6 71.85 41.55 L71.8 44.15 70.2 42.8 67.6 42.65 67.3 42.7 64.9 42.7 56.8 44.3 M80.0 -34.15 L79.3 -34.5 Q77.7 -35.45 76.35 -36.95 72.4 -41.15 71.25 -47.1 70.85 -50.1 70.8 -53.65 L70.8 -55.0 70.8 -55.3 70.85 -57.4 70.85 -57.55 70.85 -58.7 Q71.0 -62.5 71.3 -63.75 L71.55 -64.55 75.0 -66.7 Q74.2 -62.5 74.8 -59.5 75.3 -56.95 76.85 -55.3 76.35 -60.7 79.1 -65.55 80.15 -59.25 82.5 -56.65 L83.0 -56.1 82.85 -56.75 Q88.3 -58.6 91.0 -52.15 88.3 -58.6 82.85 -56.75 81.65 -60.95 83.85 -63.85 92.2 -60.5 95.7 -52.7 94.75 -45.3 95.75 -39.65 L95.65 -39.45 Q92.75 -34.6 85.35 -33.4 L83.5 -33.15 Q82.0 -33.35 80.6 -33.9 L80.0 -34.15 M73.8 -50.1 Q74.6 -49.4 75.65 -49.0 L75.9 -52.75 75.45 -56.05 73.95 -57.1 73.45 -57.25 72.9 -57.25 Q71.45 -56.95 71.65 -53.15 L71.9 -52.5 72.25 -51.95 72.6 -51.4 73.8 -50.1 M70.85 -58.7 Q72.1 -61.15 74.8 -59.5 72.1 -61.15 70.85 -58.7 M80.45 -39.2 Q77.7 -38.4 75.95 -40.3 77.7 -38.4 80.45 -39.2 M77.7 -44.05 Q77.1 -44.35 76.6 -44.75 L75.9 -45.3 75.95 -44.75 Q76.15 -43.55 77.7 -44.05 M83.85 -53.6 L82.2 -53.5 Q81.65 -50.9 81.55 -46.85 L84.3 -46.0 84.55 -45.95 Q87.3 -45.45 89.3 -46.3 L89.4 -46.35 Q89.85 -53.45 83.85 -53.6 M102.35 -52.85 L102.6 -52.9 Q104.1 -53.25 104.7 -51.7 105.3 -50.25 105.1 -48.85 L105.0 -47.9 Q103.85 -51.4 101.6 -48.9 L100.95 -48.85 100.6 -51.4 102.35 -52.85 M106.55 44.85 L106.5 43.6 106.55 44.85 M112.6 46.65 L112.8 45.65 112.6 46.65 M64.1 32.45 L64.15 31.45 64.1 32.45" fill="#ffdfc8" fill-rule="evenodd" stroke="none"/>
    <path d="M62.7 -56.85 Q69.4 -71.8 83.05 -78.1 L83.45 -77.9 Q85.95 -76.55 88.0 -73.75 L90.45 -76.9 Q96.8 -78.1 101.55 -75.3 99.75 -70.6 95.45 -65.4 99.65 -66.4 104.65 -72.55 L104.85 -72.75 Q108.25 -69.25 110.5 -63.0 110.8 -58.6 109.9 -54.7 108.5 -47.6 105.6 -45.55 L102.3 -43.3 102.2 -43.25 102.35 -43.35 Q104.9 -45.2 105.4 -48.0 L105.45 -49.8 Q104.95 -54.45 102.35 -52.85 L100.6 -51.4 100.95 -48.85 101.3 -46.85 101.45 -46.1 102.15 -43.15 102.35 -42.3 Q103.95 -36.5 106.45 -31.65 103.1 -35.0 100.7 -39.8 L100.4 -40.55 99.7 -42.1 99.2 -39.2 Q98.4 -33.9 99.05 -30.8 97.25 -33.5 96.35 -37.0 L95.75 -39.65 Q94.75 -45.3 95.7 -52.7 92.2 -60.5 83.85 -63.85 81.65 -60.95 82.85 -56.75 L83.0 -56.1 82.5 -56.65 Q80.15 -59.25 79.1 -65.55 76.35 -60.7 76.85 -55.3 75.3 -56.95 74.8 -59.5 74.2 -62.5 75.0 -66.7 L71.55 -64.55 Q63.5 -59.2 62.6 -53.7 L62.7 -56.85 M71.25 -47.1 L71.7 -44.55 66.7 -36.4 Q67.75 -46.5 70.85 -57.4 L70.8 -55.3 70.8 -55.0 70.8 -53.65 Q70.85 -50.1 71.25 -47.1" fill="#ce4f0b" fill-rule="evenodd" stroke="none"/>
    <path d="M72.9 -57.25 L73.45 -57.25 73.95 -57.1 75.45 -56.05 75.9 -52.75 75.65 -49.0 Q74.6 -49.4 73.8 -50.1 L73.95 -50.1 Q74.65 -50.1 75.2 -50.95 75.65 -51.9 75.7 -53.2 75.65 -54.5 75.2 -55.4 74.65 -56.3 73.95 -56.3 73.25 -56.3 72.8 -55.4 72.3 -54.5 72.3 -53.2 72.3 -52.3 72.55 -51.55 L72.25 -51.95 71.9 -52.5 71.9 -54.7 72.9 -57.25 M73.45 -54.75 L73.6 -55.15 Q73.9 -55.45 74.3 -55.45 L74.9 -55.15 75.15 -54.5 75.05 -54.0 74.95 -53.85 74.9 -53.7 74.3 -53.4 Q73.9 -53.45 73.6 -53.7 73.35 -54.05 73.4 -54.5 L73.45 -54.75 M83.85 -53.6 L85.55 -52.95 Q88.85 -52.35 89.3 -48.4 L89.3 -46.3 Q87.3 -45.45 84.55 -45.95 L84.75 -45.95 Q85.65 -45.9 86.3 -46.9 86.9 -47.9 86.9 -49.35 86.9 -50.85 86.3 -51.9 85.65 -52.9 84.75 -52.85 83.85 -52.9 83.25 -51.9 82.6 -50.85 82.6 -49.35 82.6 -47.9 83.25 -46.9 83.7 -46.2 84.3 -46.0 L81.55 -46.85 Q81.65 -50.9 82.2 -53.5 L83.85 -53.6 M84.0 -51.15 L84.3 -51.5 Q84.6 -51.85 85.1 -51.85 85.55 -51.85 85.85 -51.5 L86.25 -50.7 86.1 -50.2 85.85 -49.95 Q85.55 -49.6 85.1 -49.6 84.6 -49.6 84.3 -49.95 83.9 -50.25 83.85 -50.7 83.85 -51.0 84.0 -51.15" fill="#ffffff" fill-rule="evenodd" stroke="none"/>
    <path d="M73.8 -50.1 L72.6 -51.4 72.55 -51.55 Q72.3 -52.3 72.3 -53.2 72.3 -54.5 72.8 -55.4 73.25 -56.3 73.95 -56.3 74.65 -56.3 75.2 -55.4 75.65 -54.5 75.7 -53.2 75.65 -51.9 75.2 -50.95 74.65 -50.1 73.95 -50.1 L73.8 -50.1 M75.05 -54.0 L75.15 -54.5 74.9 -55.15 74.3 -55.45 Q73.9 -55.45 73.6 -55.15 L73.45 -54.75 73.15 -54.55 Q72.85 -54.0 72.9 -53.25 72.85 -52.5 73.15 -51.95 73.5 -51.35 73.95 -51.35 74.4 -51.35 74.8 -51.95 L75.15 -53.2 75.05 -54.0 M84.3 -46.0 Q83.7 -46.2 83.25 -46.9 82.6 -47.9 82.6 -49.35 82.6 -50.85 83.25 -51.9 83.85 -52.9 84.75 -52.85 85.65 -52.9 86.3 -51.9 86.9 -50.85 86.9 -49.35 86.9 -47.9 86.3 -46.9 85.65 -45.9 84.75 -45.95 L84.55 -45.95 84.3 -46.0 M84.0 -51.15 L83.75 -50.9 Q83.3 -50.3 83.3 -49.45 83.3 -48.5 83.75 -47.85 84.15 -47.25 84.75 -47.3 85.35 -47.25 85.8 -47.85 86.2 -48.5 86.15 -49.35 L86.1 -50.2 86.25 -50.7 85.85 -51.5 Q85.55 -51.85 85.1 -51.85 84.6 -51.85 84.3 -51.5 L84.0 -51.15" fill="#9975a8" fill-rule="evenodd" stroke="none"/>
    <path d="M75.05 -54.0 L75.15 -53.2 74.8 -51.95 Q74.4 -51.35 73.95 -51.35 73.5 -51.35 73.15 -51.95 72.85 -52.5 72.9 -53.25 72.85 -54.0 73.15 -54.55 L73.45 -54.75 73.4 -54.5 Q73.35 -54.05 73.6 -53.7 73.9 -53.45 74.3 -53.4 L74.9 -53.7 74.95 -53.85 75.05 -54.0 M86.1 -50.2 L86.15 -49.35 Q86.2 -48.5 85.8 -47.85 85.35 -47.25 84.75 -47.3 84.15 -47.25 83.75 -47.85 83.3 -48.5 83.3 -49.45 83.3 -50.3 83.75 -50.9 L84.0 -51.15 Q83.85 -51.0 83.85 -50.7 83.9 -50.25 84.3 -49.95 84.6 -49.6 85.1 -49.6 85.55 -49.6 85.85 -49.95 L86.1 -50.2" fill="#000000" fill-rule="evenodd" stroke="none"/>
    <path d="M102.3 -43.3 L102.15 -43.15 101.45 -46.1 101.3 -46.85 101.35 -48.1 101.6 -48.9 101.35 -48.1 101.3 -46.85 100.95 -48.85 101.6 -48.9 Q103.85 -51.4 105.0 -47.9 L105.1 -48.85 Q105.3 -50.25 104.7 -51.7 104.1 -53.25 102.6 -52.9 L102.35 -52.85 Q104.95 -54.45 105.45 -49.8 L105.4 -48.0 104.9 -47.35 105.0 -47.9 104.9 -47.35 104.4 -45.65 104.4 -45.55 102.35 -43.35 102.2 -43.25 102.3 -43.3 M100.7 -39.8 L99.8 -33.45 99.7 -32.55 Q101.75 -31.8 103.15 -30.65 104.6 -29.45 105.45 -27.85 104.8 -26.9 103.5 -26.2 L102.4 -25.8 Q97.0 -23.8 83.4 -25.0 78.6 -29.15 80.2 -33.05 L80.6 -33.9 Q82.0 -33.35 83.5 -33.15 L85.25 -33.1 Q87.7 -33.15 90.5 -34.2 93.85 -35.45 96.35 -37.0 93.85 -35.45 90.5 -34.2 87.7 -33.15 85.25 -33.1 L83.5 -33.15 85.35 -33.4 Q92.75 -34.6 95.65 -39.45 L95.75 -39.65 96.35 -37.0 Q97.25 -33.5 99.05 -30.8 99.6 -31.7 99.7 -32.55 99.6 -31.7 99.05 -30.8 98.4 -33.9 99.2 -39.2 L99.7 -42.1 100.4 -40.55 100.7 -39.8 M116.75 6.9 L116.8 11.85 Q109.5 9.4 107.0 13.8 L106.35 6.9 Q111.95 8.75 116.75 6.9 M116.4 60.05 L113.4 60.7 112.65 60.85 104.4 60.85 104.1 60.3 106.45 55.5 104.1 60.3 100.7 58.55 98.25 57.35 103.95 54.9 106.45 55.5 106.75 55.6 109.1 56.25 116.4 60.05 M68.9 47.9 L68.6 47.95 66.9 49.7 66.75 49.55 56.8 44.3 64.9 42.7 67.3 42.7 67.6 42.65 68.6 47.95 67.6 42.65 70.2 42.8 71.8 44.15 71.8 44.75 70.35 45.15 Q68.95 45.75 68.95 46.7 L68.9 47.9 M67.35 -1.3 L67.6 -5.05 Q72.0 -3.0 77.5 -4.5 L76.75 0.25 76.15 0.75 Q73.8 -3.05 67.35 -1.3 M75.9 -45.3 L76.6 -44.75 Q77.1 -44.35 77.7 -44.05 76.15 -43.55 75.95 -44.75 L75.9 -45.3 M102.7 -45.55 Q102.7 -47.65 101.45 -46.1 102.7 -47.65 102.7 -45.55 M100.4 -40.55 L99.5 -39.45 99.2 -39.2 99.5 -39.45 100.4 -40.55 M90.9 -26.6 Q92.3 -28.25 102.4 -25.8 92.3 -28.25 90.9 -26.6 M84.85 -28.45 Q83.35 -31.8 80.2 -33.05 83.35 -31.8 84.85 -28.45" fill="#ffd0ae" fill-rule="evenodd" stroke="none"/>
    <path d="M107.0 -27.5 Q113.8 -23.75 116.0 -17.8 118.3 -11.8 117.95 -5.55 L116.7 -3.2 Q115.15 -1.1 112.6 -0.1 114.95 0.25 116.7 -0.65 L118.2 -1.8 118.5 6.1 116.75 6.9 Q111.95 8.75 106.35 6.9 L104.1 6.05 Q104.05 0.15 103.05 -5.45 102.3 -9.3 101.15 -13.0 L106.7 -27.65 107.0 -27.5 M67.6 -5.05 L66.05 -5.85 66.5 -12.85 68.0 -11.7 Q69.5 -10.85 71.65 -11.0 69.35 -12.05 68.1 -13.95 67.35 -15.0 66.95 -16.25 66.85 -21.85 69.15 -27.1 71.45 -32.35 78.05 -35.3 L79.1 -32.1 79.7 -33.35 80.0 -34.15 80.6 -33.9 80.2 -33.05 Q78.6 -29.15 83.4 -25.0 97.0 -23.8 102.4 -25.8 L103.5 -26.2 Q104.75 -18.75 96.4 -5.6 L92.85 -0.25 96.8 14.6 Q93.2 15.5 88.4 14.45 L86.1 13.9 86.2 13.05 78.15 9.3 78.1 9.3 77.9 9.45 76.95 8.5 76.85 8.3 78.05 0.65 78.15 -0.5 78.15 -0.55 78.4 -2.05 77.85 -4.6 77.5 -4.5 Q72.0 -3.0 67.6 -5.05 M77.85 -4.6 L77.65 -5.6 Q74.65 -21.45 79.1 -32.1 74.65 -21.45 77.65 -5.6 L77.85 -4.6 M71.85 41.55 L73.1 41.8 76.3 44.35 Q77.8 45.4 79.95 45.8 82.95 47.1 85.1 46.95 L87.6 47.85 87.4 53.55 86.65 53.85 79.65 53.6 Q75.7 52.7 72.9 50.75 72.1 50.2 71.6 49.65 L71.8 44.75 71.8 44.15 71.85 41.55 M91.55 48.4 L91.65 48.4 Q95.35 49.85 98.3 50.45 L98.25 57.35 100.7 58.55 Q97.1 58.7 94.25 57.65 L92.8 57.0 92.1 52.15 91.55 48.4" fill="#fcdead" fill-rule="evenodd" stroke="none"/>
    <path d="M99.8 -33.45 L100.25 -33.25 103.65 -31.05 Q105.95 -29.25 107.0 -27.5 L106.7 -27.65 101.15 -13.0 Q102.3 -9.3 103.05 -5.45 L100.45 1.8 100.35 5.0 100.35 6.2 Q100.35 9.65 100.65 12.65 99.75 13.55 98.2 14.15 L97.35 14.45 96.8 14.6 92.85 -0.25 96.4 -5.6 Q104.75 -18.75 103.5 -26.2 104.8 -26.9 105.45 -27.85 104.6 -29.45 103.15 -30.65 101.75 -31.8 99.7 -32.55 L99.8 -33.45 M117.95 -5.55 L118.2 -1.8 116.7 -0.65 Q114.95 0.25 112.6 -0.1 115.15 -1.1 116.7 -3.2 L117.95 -5.55 M66.5 -12.85 L66.95 -16.25 Q67.35 -15.0 68.1 -13.95 69.35 -12.05 71.65 -11.0 69.5 -10.85 68.0 -11.7 L66.5 -12.85 M83.1 46.1 L85.1 46.95 Q82.95 47.1 79.95 45.8 L83.1 46.1 M91.65 48.4 Q94.25 48.25 97.45 47.1 L98.6 47.1 98.3 47.3 98.3 50.45 Q95.35 49.85 91.65 48.4" fill="#f9be79" fill-rule="evenodd" stroke="none"/>
    <path d="M76.75 0.25 L78.05 -0.5 78.15 -0.5 78.05 0.65 76.85 8.3 76.4 7.55 Q74.85 4.6 75.65 1.25 L76.15 0.75 76.75 0.25 M100.65 12.65 Q100.35 9.65 100.35 6.2 L100.35 5.0 Q102.2 7.2 102.25 9.4 L100.65 12.65" fill="#4e517a" fill-rule="evenodd" stroke="none"/>
    <path d="M110.5 -63.0 Q110.35 -65.7 109.7 -68.55 L109.4 -70.0 111.6 -72.45 Q109.8 -84.15 98.6 -84.0 98.15 -85.6 98.25 -87.3 102.2 -91.3 105.3 -87.3 115.9 -95.55 125.55 -75.3 127.65 -68.7 130.05 -63.25 L126.6 -66.15 Q127.15 -56.75 129.9 -50.4 125.8 -55.15 123.35 -63.45 122.45 -55.2 124.3 -46.65 120.5 -51.2 120.6 -60.4 119.7 -51.0 117.6 -44.55 117.8 -51.05 116.45 -55.4 114.15 -54.25 112.6 -48.8 112.35 -52.35 109.9 -54.7 110.8 -58.6 110.5 -63.0" fill="#bd3c0b" fill-rule="evenodd" stroke="none"/>
    <path d="M109.4 -70.0 Q107.65 -75.5 102.2 -79.3 100.25 -80.3 98.3 -80.85 L96.5 -81.4 98.3 -84.0 98.6 -84.0 Q109.8 -84.15 111.6 -72.45 L109.4 -70.0" fill="#4f8091" fill-rule="evenodd" stroke="none"/>
    <path d="M113.4 60.7 L113.4 60.85 112.65 60.85 113.4 60.7 M104.4 60.85 L90.45 60.85 68.5 60.85 68.15 60.05 68.9 47.9 68.95 46.7 Q68.95 45.75 70.35 45.15 L71.8 44.75 71.6 49.65 Q72.1 50.2 72.9 50.75 75.7 52.7 79.65 53.6 L86.65 53.85 87.4 53.55 87.6 47.85 87.8 47.9 89.8 48.35 Q91.2 49.2 91.5 51.1 L91.45 51.2 91.4 51.7 91.45 51.2 91.5 51.2 91.4 51.7 91.35 52.6 92.1 52.15 92.8 57.0 94.25 57.65 Q97.1 58.7 100.7 58.55 L104.1 60.3 104.4 60.85 M76.95 8.5 L77.9 9.45 78.05 9.65 76.65 20.9 Q75.15 19.65 74.4 18.4 L74.05 17.85 Q73.4 16.55 73.4 15.3 L73.4 15.05 73.6 14.15 74.75 3.85 74.8 3.55 Q74.85 2.3 75.65 1.25 74.85 4.6 76.4 7.55 L76.85 8.3 76.85 8.45 76.95 8.5 M86.1 13.9 L88.4 14.45 Q93.2 15.5 96.8 14.6 L97.35 14.45 98.2 14.15 Q99.75 13.55 100.65 12.65 L102.25 9.4 102.3 19.05 102.25 19.2 102.3 20.2 102.25 20.3 102.3 20.65 102.3 21.95 102.3 22.05 Q102.05 23.2 101.3 24.1 100.65 24.85 99.55 25.4 L98.1 26.0 Q93.9 27.55 87.8 26.15 L84.85 25.45 86.1 13.9 M83.6 14.55 L82.65 23.0 78.5 21.15 79.55 12.15 83.6 14.55 M90.45 60.85 L89.7 54.9 Q89.55 54.0 90.75 53.0 L91.35 52.6 90.75 53.0 Q89.55 54.0 89.7 54.9 L90.45 60.85" fill="#64889b" fill-rule="evenodd" stroke="none"/>
    <path d="M78.15 9.3 L86.2 13.05 86.1 13.9 84.85 25.45 87.8 26.15 Q93.9 27.55 98.1 26.0 L99.55 25.4 Q100.65 24.85 101.3 24.1 102.05 23.2 102.3 22.05 L106.45 31.2 Q106.2 36.8 106.45 42.2 L106.5 43.6 105.95 43.85 Q101.65 44.25 98.6 47.1 L97.45 47.1 Q94.25 48.25 91.65 48.4 L91.55 48.4 89.8 48.35 87.8 47.9 87.6 47.85 85.1 46.95 83.1 46.1 83.95 27.5 83.1 46.1 79.95 45.8 Q77.8 45.4 76.3 44.35 L73.1 41.8 71.85 41.55 Q68.2 40.6 66.2 37.3 L73.85 17.75 74.05 17.85 74.4 18.4 Q75.15 19.65 76.65 20.9 L76.55 22.05 84.75 26.15 84.85 25.45 84.75 26.15 76.55 22.05 76.65 20.9 78.05 9.65 78.15 9.3 M83.6 14.55 L79.55 12.15 78.5 21.15 82.65 23.0 83.6 14.55 M77.4 25.4 L73.1 41.75 73.1 41.8 73.1 41.75 77.4 25.4 M92.6 28.05 L97.45 47.1 92.6 28.05 M106.45 42.2 L99.55 25.4 106.45 42.2" fill="#826357" fill-rule="evenodd" stroke="none"/>
    <path d="M76.85 8.3 L76.95 8.5 76.85 8.45 76.85 8.3" fill="#67987b" fill-rule="evenodd" stroke="none"/>
    <path d="M96.5 -81.4 Q88.85 -83.15 81.0 -79.0 L79.4 -79.3 Q64.05 -74.7 62.7 -56.85 M110.5 -63.0 Q110.35 -65.7 109.7 -68.55 L109.4 -70.0 Q107.65 -75.5 102.2 -79.3 100.25 -80.3 98.3 -80.85 L96.5 -81.4 M98.6 -84.0 Q98.15 -85.6 98.25 -87.3 98.4 -89.3 99.3 -91.45 114.95 -100.8 122.45 -86.45 123.9 -80.55 125.55 -75.3 127.65 -68.7 130.05 -63.25 L126.6 -66.15 Q127.15 -56.75 129.9 -50.4 125.8 -55.15 123.35 -63.45 122.45 -55.2 124.3 -46.65 120.5 -51.2 120.6 -60.4 119.7 -51.0 117.6 -44.55 117.8 -51.05 116.45 -55.4 114.15 -54.25 112.6 -48.8 112.35 -52.35 109.9 -54.7 108.5 -47.6 105.6 -45.55 L102.3 -43.3 M102.15 -43.15 L102.35 -42.3 Q103.95 -36.5 106.45 -31.65 103.1 -35.0 100.7 -39.8 M71.25 -47.1 L71.7 -44.55 66.7 -36.4 Q67.75 -46.5 70.85 -57.4 L70.85 -57.55 M71.55 -64.55 Q63.5 -59.2 62.6 -53.7 L62.7 -56.85 M74.8 -59.5 Q74.2 -62.5 75.0 -66.7 L71.55 -64.55 M82.85 -56.75 L83.0 -56.1 82.5 -56.65 Q80.15 -59.25 79.1 -65.55 76.35 -60.7 76.85 -55.3 75.3 -56.95 74.8 -59.5 72.1 -61.15 70.85 -58.7 M99.05 -30.8 Q97.25 -33.5 96.35 -37.0 M82.85 -56.75 Q88.3 -58.6 91.0 -52.15 M95.75 -39.65 Q94.75 -45.3 95.7 -52.7 92.2 -60.5 83.85 -63.85 81.65 -60.95 82.85 -56.75 M105.4 -48.0 L105.45 -49.8 Q104.95 -54.45 102.35 -52.85 L100.6 -51.4 100.95 -48.85 101.3 -46.85 101.45 -46.1 M110.5 -63.0 Q110.8 -58.6 109.9 -54.7 M102.35 -43.35 Q104.9 -45.2 105.4 -48.0 M102.35 -43.35 L102.2 -43.25 102.3 -43.3 M102.15 -43.15 L101.45 -46.1 M100.4 -40.55 L99.7 -42.1 99.2 -39.2 Q98.4 -33.9 99.05 -30.8 M100.4 -40.55 L100.7 -39.8 M95.75 -39.65 L96.35 -37.0" fill="none" stroke="#912213" stroke-linecap="round" stroke-linejoin="round" stroke-width="0.05"/>
    <path d="M102.3 -43.3 L102.15 -43.15 M100.7 -39.8 L99.8 -33.45 99.7 -32.55 Q99.6 -31.7 99.05 -30.8 M116.75 6.9 L116.8 11.85 116.85 15.95 M116.6 16.1 Q117.25 18.55 117.2 21.35 117.1 25.75 112.8 45.65 L113.25 46.1 117.0 57.35 116.25 58.8 116.6 60.0 116.4 60.05 113.4 60.7 112.65 60.85 M68.9 47.9 L68.6 47.95 66.9 49.7 66.75 49.55 56.8 44.3 56.7 44.15 57.25 43.15 57.0 41.55 63.65 31.75 64.15 31.45 Q65.5 11.15 66.65 6.9 67.1 5.1 67.8 3.6 M67.05 2.95 L67.35 -1.3 67.6 -5.05 M80.0 -34.15 L79.3 -34.5 Q77.7 -35.45 76.35 -36.95 72.4 -41.15 71.25 -47.1 M70.85 -57.55 L70.85 -58.7 Q71.0 -62.5 71.3 -63.75 L71.55 -64.55 M72.9 -57.25 L73.45 -57.25 73.95 -57.1 75.45 -56.05 75.9 -52.75 75.65 -49.0 Q74.6 -49.4 73.8 -50.1 L72.6 -51.4 72.25 -51.95 71.9 -52.5 71.65 -53.15 Q71.45 -56.95 72.9 -57.25 M75.95 -40.3 Q77.7 -38.4 80.45 -39.2 M77.7 -44.05 Q76.15 -43.55 75.95 -44.75 L75.9 -45.3 M80.6 -33.9 L80.0 -34.15 M77.5 -4.5 L76.75 0.25 M96.35 -37.0 Q93.85 -35.45 90.5 -34.2 87.7 -33.15 85.25 -33.1 L83.5 -33.15 Q82.0 -33.35 80.6 -33.9 M83.85 -53.6 L82.2 -53.5 Q81.65 -50.9 81.55 -46.85 L84.3 -46.0 84.55 -45.95 Q87.3 -45.45 89.3 -46.3 L89.4 -46.35 Q89.85 -53.45 83.85 -53.6 M102.35 -52.85 L102.6 -52.9 Q104.1 -53.25 104.7 -51.7 105.3 -50.25 105.1 -48.85 L105.0 -47.9 104.9 -47.35 105.4 -48.0 M101.6 -48.9 Q103.85 -51.4 105.0 -47.9 M101.6 -48.9 L101.35 -48.1 101.3 -46.85 M101.45 -46.1 Q102.7 -47.65 102.7 -45.55 M104.9 -47.35 L104.4 -45.65 104.4 -45.55 102.35 -43.35 M99.2 -39.2 L99.5 -39.45 100.4 -40.55 M102.4 -25.8 Q92.3 -28.25 90.9 -26.6 M80.2 -33.05 Q83.35 -31.8 84.85 -28.45 M107.85 17.7 Q106.8 24.6 106.45 31.2 106.2 36.8 106.45 42.2 L106.5 43.6 106.55 44.85 M107.0 13.8 L107.3 17.4 M107.0 13.8 L106.35 6.9 M98.6 47.1 Q101.65 44.25 105.95 43.85 L106.5 43.6 M98.6 47.1 L98.3 47.3 98.3 50.45 98.25 57.35 100.7 58.55 M106.45 55.5 L106.75 55.6 M112.8 45.65 L112.6 46.65 M104.1 60.3 L104.4 60.85 M106.45 55.5 L104.1 60.3 100.7 58.55 M64.15 31.45 L64.1 32.45 M67.6 42.65 L68.6 47.95 M67.3 42.7 L67.6 42.65" fill="none" stroke="#fb8264" stroke-linecap="round" stroke-linejoin="round" stroke-width="0.05"/>
    <path d="M99.8 -33.45 L100.25 -33.25 103.65 -31.05 Q105.95 -29.25 107.0 -27.5 113.8 -23.75 116.0 -17.8 118.3 -11.8 117.95 -5.55 L118.2 -1.8 118.5 6.1 116.75 6.9 M67.6 -5.05 L66.05 -5.85 66.5 -12.85 66.95 -16.25 Q66.85 -21.85 69.15 -27.1 71.45 -32.35 78.05 -35.3 M79.1 -32.1 L79.7 -33.35 80.0 -34.15 M103.5 -26.2 L102.4 -25.8 Q97.0 -23.8 83.4 -25.0 78.6 -29.15 80.2 -33.05 L80.6 -33.9 M71.65 -11.0 Q69.35 -12.05 68.1 -13.95 67.35 -15.0 66.95 -16.25 M78.15 -0.55 L78.4 -2.05 77.85 -4.6 77.5 -4.5 Q72.0 -3.0 67.6 -5.05 M78.05 -0.5 L78.15 -0.55 78.15 -0.5 78.05 0.65 76.85 8.3 76.85 8.45 76.95 8.5 77.9 9.45 M78.1 9.3 L78.15 9.3 86.2 13.05 86.1 13.9 88.4 14.45 Q93.2 15.5 96.8 14.6 L97.35 14.45 98.2 14.15 Q99.75 13.55 100.65 12.65 100.35 9.65 100.35 6.2 L100.35 5.0 100.45 1.8 103.05 -5.45 Q104.05 0.15 104.1 6.05 L106.35 6.9 Q111.95 8.75 116.75 6.9 M103.5 -26.2 Q104.8 -26.9 105.45 -27.85 104.6 -29.45 103.15 -30.65 101.75 -31.8 99.7 -32.55 M79.1 -32.1 Q74.65 -21.45 77.65 -5.6 L77.85 -4.6 M107.0 -27.5 L106.7 -27.65 M101.15 -13.0 Q102.3 -9.3 103.05 -5.45 M112.6 -0.1 Q115.15 -1.1 116.7 -3.2 L117.95 -5.55 M100.7 58.55 Q97.1 58.7 94.25 57.65 L92.8 57.0 92.1 52.15 M87.6 47.85 L87.4 53.55 86.65 53.85 79.65 53.6 Q75.7 52.7 72.9 50.75 72.1 50.2 71.6 49.65 L71.8 44.75 71.8 44.15 71.85 41.55 M91.55 48.4 L92.1 52.15 M78.05 9.65 L77.9 9.45 M78.1 9.3 L78.05 9.65" fill="none" stroke="#975506" stroke-linecap="round" stroke-linejoin="round" stroke-width="0.05"/>
    <path d="M96.5 -81.4 L98.3 -84.0 98.6 -84.0 Q109.8 -84.15 111.6 -72.45 L109.4 -70.0" fill="none" stroke="#2e4b52" stroke-linecap="round" stroke-linejoin="round" stroke-width="0.05"/>
    <path d="M113.4 60.7 L113.4 60.85 M68.5 60.85 L68.15 60.05 68.9 47.9 M76.75 0.25 L78.05 -0.5 M102.3 20.65 L102.35 21.4 102.3 21.95 102.3 22.05 106.45 31.2 M102.25 9.4 L102.3 19.05 102.25 19.2 102.3 20.2 102.35 20.4 102.25 20.3 102.3 20.65 102.3 21.95 M102.25 20.3 L102.3 20.2 M86.1 13.9 L84.85 25.45 87.8 26.15 Q93.9 27.55 98.1 26.0 L99.55 25.4 Q100.65 24.85 101.3 24.1 102.05 23.2 102.3 22.05 M83.6 14.55 L79.55 12.15 78.5 21.15 82.65 23.0 83.6 14.55 M102.25 9.4 Q102.2 7.2 100.35 5.0 M84.85 25.45 L84.75 26.15 76.55 22.05 76.65 20.9 Q75.15 19.65 74.4 18.4 L74.05 17.85 73.85 17.75 66.2 37.3 Q68.2 40.6 71.85 41.55 L73.1 41.8 73.1 41.75 77.4 25.4 M83.1 46.1 L85.1 46.95 87.6 47.85 87.8 47.9 89.8 48.35 91.55 48.4 91.65 48.4 Q94.25 48.25 97.45 47.1 L92.6 28.05 M97.45 47.1 L98.6 47.1 M83.1 46.1 L83.95 27.5 M99.55 25.4 L106.45 42.2 M92.1 52.15 L91.35 52.6 90.75 53.0 Q89.55 54.0 89.7 54.9 L90.45 60.85 M91.35 52.6 L91.4 51.7 91.45 51.2 91.5 51.2 91.5 51.1 Q91.2 49.2 89.8 48.35 M71.8 44.75 L70.35 45.15 Q68.95 45.75 68.95 46.7 L68.9 47.9 M76.15 0.75 L76.75 0.25 M75.65 1.25 Q74.85 2.3 74.8 3.55 L74.75 3.85 73.6 14.15 73.4 15.05 73.4 15.3 Q73.4 16.55 74.05 17.85 M76.15 0.75 L75.65 1.25 M76.65 20.9 L78.05 9.65 M73.1 41.8 L76.3 44.35 Q77.8 45.4 79.95 45.8 L83.1 46.1" fill="none" stroke="#3f3872" stroke-linecap="round" stroke-linejoin="round" stroke-width="0.05"/>
    <path d="M76.85 8.3 L76.95 8.5" fill="none" stroke="#000000" stroke-linecap="round" stroke-linejoin="round" stroke-width="0.05"/>
  </g>
</svg>
