<?xml version="1.0" encoding="UTF-8" standalone="no"?>
<svg xmlns:xlink="http://www.w3.org/1999/xlink" height="167.45px" width="86.8px" xmlns="http://www.w3.org/2000/svg">
  <g transform="matrix(1, 0, 0, 1, -51.4, 102.0)">
    <path d="M71.45 -66.2 Q68.0 -65.35 66.05 -61.05 64.75 -66.95 76.95 -78.75 76.0 -80.45 71.75 -78.75 76.85 -82.8 81.45 -82.95 L86.55 -87.4 Q75.9 -77.1 71.45 -66.2 M76.2 -40.35 Q69.6 -50.95 72.25 -62.05 73.65 -67.8 77.5 -73.65 69.45 -53.85 76.2 -40.35 M102.35 -34.3 L102.7 -35.65 103.6 -41.0 Q104.4 -48.0 102.9 -54.35 100.2 -65.8 90.2 -75.2 102.75 -71.8 105.2 -56.6 L105.65 -53.05 Q105.75 -47.1 104.95 -42.35 104.25 -38.65 102.95 -35.65 L102.35 -34.3" fill="#dec8b7" fill-rule="evenodd" stroke="none"/>
    <path d="M71.45 -66.2 Q75.9 -77.1 86.55 -87.4 L87.2 -87.9 Q88.65 -88.7 90.2 -88.9 90.65 -96.0 99.2 -102.0 94.05 -95.6 92.8 -88.65 94.8 -88.15 96.95 -86.65 109.7 -92.6 118.7 -71.7 117.95 -64.0 115.1 -59.05 113.2 -55.85 110.45 -53.8 108.8 -55.85 105.65 -53.05 L105.2 -56.6 Q102.75 -71.8 90.2 -75.2 100.2 -65.8 102.9 -54.35 104.4 -48.0 103.6 -41.0 L102.7 -35.65 102.35 -34.3 100.9 -31.8 Q98.95 -29.05 96.2 -27.35 L98.0 -31.6 99.6 -36.15 100.45 -39.05 101.25 -42.7 101.8 -48.05 Q101.9 -57.9 95.1 -63.15 99.4 -54.65 99.5 -49.85 94.1 -54.65 88.9 -66.2 85.5 -56.65 88.9 -48.75 87.15 -50.35 86.1 -52.3 L86.95 -45.9 Q83.5 -50.45 81.65 -56.55 L81.05 -58.75 Q80.5 -60.7 80.2 -62.8 78.65 -60.75 78.2 -57.85 L78.1 -56.6 78.15 -53.55 78.35 -52.2 Q76.7 -54.9 76.65 -61.2 L76.25 -60.0 Q73.2 -49.45 79.05 -36.15 77.4 -38.25 76.2 -40.35 69.45 -53.85 77.5 -73.65 73.65 -67.8 72.25 -62.05 72.4 -65.5 71.45 -66.2 M120.95 -66.05 Q129.2 -60.35 131.4 -51.35 128.1 -57.05 123.1 -58.6 L119.1 -64.65 120.95 -66.05" fill="#d59e8a" fill-rule="evenodd" stroke="none"/>
    <path d="M129.5 38.8 L137.0 43.55 137.4 44.75 138.2 45.45 138.2 45.55 131.55 47.0 129.7 47.8 129.45 47.85 127.55 48.9 125.25 53.4 119.95 47.0 Q120.4 43.45 123.05 40.8 123.35 40.0 123.9 39.5 124.7 38.65 126.15 38.4 L127.2 38.3 128.8 38.35 129.5 38.8 M68.3 23.3 Q69.3 25.4 69.35 27.85 L63.35 33.6 61.55 28.85 59.85 27.6 59.6 27.55 57.85 26.55 51.4 24.35 51.4 24.25 52.25 23.7 52.75 22.45 58.75 19.55 Q62.3 22.75 68.3 23.3 M85.05 -36.7 Q79.6 -41.25 77.6 -47.3 L76.4 -58.9 76.25 -60.0 76.65 -61.2 Q76.7 -54.9 78.35 -52.2 L78.15 -53.55 78.75 -52.55 80.45 -51.7 81.2 -51.35 Q82.05 -53.6 81.65 -56.55 83.5 -50.45 86.95 -45.9 L86.1 -52.3 Q87.15 -50.35 88.9 -48.75 85.5 -56.65 88.9 -66.2 94.1 -54.65 99.5 -49.85 L101.8 -48.05 101.25 -42.7 Q99.55 -40.3 96.35 -38.8 L92.6 -37.6 89.0 -36.9 87.5 -36.75 87.3 -36.75 85.3 -36.6 85.1 -36.6 85.05 -36.7 M78.2 -57.85 Q78.65 -60.75 80.2 -62.8 80.5 -60.7 81.05 -58.75 79.35 -59.5 78.2 -57.85 M90.7 -55.15 L89.7 -54.95 Q88.35 -51.7 89.3 -48.5 L90.5 -47.7 91.65 -47.3 92.75 -47.15 Q95.45 -48.15 96.95 -50.35 95.35 -53.4 93.45 -54.5 92.15 -55.3 90.7 -55.15 M87.0 -41.7 Q84.2 -41.6 81.75 -43.55 84.2 -41.6 87.0 -41.7 M83.95 -46.45 L82.95 -47.3 83.95 -46.45" fill="#eaddcd" fill-rule="evenodd" stroke="none"/>
    <path d="M78.1 -56.6 L78.2 -57.85 Q79.35 -59.5 81.05 -58.75 L81.65 -56.55 Q82.05 -53.6 81.2 -51.35 L80.45 -51.7 81.05 -52.55 Q81.55 -53.6 81.55 -55.15 81.55 -56.65 81.05 -57.7 80.5 -58.8 79.75 -58.8 79.0 -58.8 78.5 -57.7 L78.1 -56.6 M79.25 -57.0 L79.4 -57.45 Q79.65 -57.8 80.0 -57.75 80.45 -57.8 80.75 -57.45 L81.0 -56.65 80.9 -56.1 80.85 -55.85 80.75 -55.7 Q80.45 -55.35 80.0 -55.35 79.65 -55.35 79.4 -55.7 79.15 -56.1 79.2 -56.65 L79.25 -57.0 M93.2 -52.35 L92.95 -52.05 Q92.6 -51.6 92.1 -51.6 L91.2 -52.1 Q90.85 -52.55 90.9 -53.1 L91.05 -53.6 91.4 -54.05 Q91.75 -54.4 92.25 -54.35 92.7 -54.35 93.0 -53.95 93.4 -53.5 93.4 -52.95 L93.2 -52.35 M90.7 -55.15 L90.2 -54.55 Q89.45 -53.35 89.4 -51.55 89.3 -49.8 89.9 -48.55 L90.5 -47.7 89.3 -48.5 Q88.35 -51.7 89.7 -54.95 L90.7 -55.15 M91.65 -47.3 Q92.5 -47.35 93.2 -48.3 93.9 -49.5 93.95 -51.2 94.1 -53.05 93.5 -54.4 L93.45 -54.5 Q95.35 -53.4 96.95 -50.35 95.45 -48.15 92.75 -47.15 L91.65 -47.3" fill="#ffffff" fill-rule="evenodd" stroke="none"/>
    <path d="M78.15 -53.55 L78.1 -56.6 78.5 -57.7 Q79.0 -58.8 79.75 -58.8 80.5 -58.8 81.05 -57.7 81.55 -56.65 81.55 -55.15 81.55 -53.6 81.05 -52.55 L80.45 -51.7 78.75 -52.55 78.15 -53.55 M80.9 -56.1 L81.0 -56.65 80.75 -57.45 Q80.45 -57.8 80.0 -57.75 79.65 -57.8 79.4 -57.45 L79.25 -57.0 78.9 -56.7 Q78.55 -56.1 78.6 -55.2 78.55 -54.3 78.9 -53.65 79.25 -52.95 79.75 -52.95 80.25 -52.95 80.65 -53.65 81.0 -54.3 81.0 -55.15 L80.9 -56.1 M93.2 -52.35 L93.4 -52.95 Q93.4 -53.5 93.0 -53.95 92.7 -54.35 92.25 -54.35 91.75 -54.4 91.4 -54.05 L91.05 -53.6 90.7 -53.35 Q90.2 -52.6 90.15 -51.6 90.1 -50.45 90.55 -49.55 90.95 -48.85 91.55 -48.85 92.2 -48.8 92.75 -49.5 93.2 -50.25 93.25 -51.3 L93.2 -52.35 M90.5 -47.7 L89.9 -48.55 Q89.3 -49.8 89.4 -51.55 89.45 -53.35 90.2 -54.55 L90.7 -55.15 Q92.15 -55.3 93.45 -54.5 L93.5 -54.4 Q94.1 -53.05 93.95 -51.2 93.9 -49.5 93.2 -48.3 92.5 -47.35 91.65 -47.3 L90.5 -47.7" fill="#9975a8" fill-rule="evenodd" stroke="none"/>
    <path d="M80.9 -56.1 L81.0 -55.15 Q81.0 -54.3 80.65 -53.65 80.25 -52.95 79.75 -52.95 79.25 -52.95 78.9 -53.65 78.55 -54.3 78.6 -55.2 78.55 -56.1 78.9 -56.7 L79.25 -57.0 79.2 -56.65 Q79.15 -56.1 79.4 -55.7 79.65 -55.35 80.0 -55.35 80.45 -55.35 80.75 -55.7 L80.85 -55.85 80.9 -56.1 M91.05 -53.6 L90.9 -53.1 Q90.85 -52.55 91.2 -52.1 L92.1 -51.6 Q92.6 -51.6 92.95 -52.05 L93.2 -52.35 93.25 -51.3 Q93.2 -50.25 92.75 -49.5 92.2 -48.8 91.55 -48.85 90.95 -48.85 90.55 -49.55 90.1 -50.45 90.15 -51.6 90.2 -52.6 90.7 -53.35 L91.05 -53.6" fill="#000000" fill-rule="evenodd" stroke="none"/>
    <path d="M113.7 -31.35 L117.3 -29.2 Q118.2 -27.85 117.7 -25.65 L116.65 -22.9 Q116.3 -16.15 117.5 -13.05 L125.3 -0.6 122.1 0.5 Q117.65 1.8 113.1 1.35 L110.95 1.0 108.9 -16.2 Q107.2 -12.1 104.7 -7.1 101.5 -8.4 98.8 -10.25 92.85 -14.25 89.25 -20.7 86.2 -18.35 84.35 -18.05 L84.0 -18.05 Q83.95 -23.5 85.25 -28.3 86.05 -31.3 87.45 -34.1 86.05 -31.3 85.25 -28.3 83.95 -23.5 84.0 -18.05 L84.0 -17.25 Q81.25 -10.35 80.0 -4.05 L79.85 -4.05 80.0 -3.85 69.65 13.65 70.75 23.4 68.3 23.3 Q62.3 22.75 58.75 19.55 56.9 17.95 55.7 15.65 L69.3 -9.5 69.2 -9.75 78.15 -21.45 Q79.85 -23.85 81.2 -30.6 80.65 -31.35 80.55 -32.8 80.85 -35.7 81.9 -36.35 L85.05 -36.7 85.1 -36.6 85.3 -36.6 87.45 -34.1 88.05 -31.5 88.2 -31.1 Q89.0 -28.1 90.45 -25.5 96.35 -25.0 102.35 -26.4 104.6 -26.95 106.85 -27.75 L109.0 -28.5 109.0 -28.6 113.7 -31.35 M110.4 19.75 L108.6 20.85 108.5 20.9 Q106.7 22.0 104.65 22.95 L102.75 23.75 94.15 14.3 Q97.05 13.15 100.0 11.55 102.6 10.1 105.3 8.25 L105.15 7.85 110.4 19.75 M77.65 55.65 Q72.85 52.0 69.0 47.35 70.85 34.95 75.75 24.6 L78.5 22.65 78.6 22.6 80.45 21.35 79.2 19.85 79.05 19.75 76.85 16.8 Q77.55 11.1 82.1 3.0 L83.85 2.25 82.95 4.9 Q85.45 10.15 90.7 15.3 L93.05 17.45 Q96.9 20.75 102.0 24.05 L103.35 24.9 103.5 25.05 Q102.3 27.8 100.85 29.9 98.6 33.15 95.7 34.85 L92.85 32.85 92.3 34.5 Q87.9 48.0 87.85 61.75 82.3 59.15 77.65 55.65 M111.85 -22.55 L108.3 -20.7 108.9 -16.2 108.3 -20.7 111.85 -22.55 M92.85 32.85 Q85.7 27.55 80.45 21.35 85.7 27.55 92.85 32.85" fill="#b1d1d0" fill-rule="evenodd" stroke="none"/>
    <path d="M117.7 -25.65 Q120.95 -10.45 125.3 -0.6 L117.5 -13.05 Q116.3 -16.15 116.65 -22.9 L117.7 -25.65 M104.5 5.9 L107.2 6.85 111.85 18.6 110.4 19.75 105.15 7.85 104.5 5.9 M80.0 -3.85 L70.75 23.4 69.65 13.65 80.0 -3.85 M69.2 -9.75 L80.55 -32.8 Q80.65 -31.35 81.2 -30.6 79.85 -23.85 78.15 -21.45 L69.2 -9.75 M102.75 23.75 L102.0 24.05 Q96.9 20.75 93.05 17.45 L90.7 15.3 94.15 14.3 102.75 23.75" fill="#699b98" fill-rule="evenodd" stroke="none"/>
    <path d="M118.7 -71.7 L120.95 -66.05 119.1 -64.65 123.1 -58.6 Q126.25 -54.25 124.8 -48.9 L123.2 -52.3 Q122.95 -50.15 120.8 -46.65 L120.8 -49.35 Q121.1 -55.45 107.1 -43.6 L108.55 -45.45 Q110.85 -48.65 111.25 -50.85 111.4 -52.15 110.9 -53.1 L110.45 -53.8 Q113.2 -55.85 115.1 -59.05 117.95 -64.0 118.7 -71.7 M99.5 -49.85 Q99.4 -54.65 95.1 -63.15 101.9 -57.9 101.8 -48.05 L99.5 -49.85" fill="#a4756b" fill-rule="evenodd" stroke="none"/>
    <path d="M108.55 -45.45 L106.9 -44.8 106.75 -44.7 104.95 -42.35 Q105.75 -47.1 105.65 -53.05 108.8 -55.85 110.45 -53.8 L110.9 -53.1 Q111.4 -52.15 111.25 -50.85 110.85 -48.65 108.55 -45.45 M101.25 -42.7 L100.45 -39.05 96.05 -37.8 92.1 -37.0 88.85 -36.6 85.3 -36.6 87.3 -36.75 87.5 -36.75 89.0 -36.9 92.6 -37.6 96.35 -38.8 Q99.55 -40.3 101.25 -42.7 M108.65 -47.3 Q108.7 -50.55 106.65 -47.3 105.75 -49.0 106.65 -51.2 110.5 -55.0 111.25 -50.85 110.5 -55.0 106.65 -51.2 105.75 -49.0 106.65 -47.3 108.7 -50.55 108.65 -47.3" fill="#d7bba2" fill-rule="evenodd" stroke="none"/>
    <path d="M106.9 -44.8 Q106.9 -40.6 106.1 -36.25 L105.0 -35.9 102.95 -35.65 Q104.25 -38.65 104.95 -42.35 L106.75 -44.7 106.9 -44.8 M138.2 45.55 L132.4 52.75 132.35 52.95 130.5 52.15 125.25 53.4 127.55 48.9 129.45 47.85 129.7 47.8 131.55 47.0 138.2 45.55 M63.35 33.6 L58.3 31.8 56.4 32.35 56.35 32.25 51.4 24.35 57.85 26.55 59.6 27.55 59.85 27.6 61.55 28.85 63.35 33.6 M100.45 -39.05 L99.6 -36.15 Q97.9 -36.65 96.05 -37.7 L96.05 -37.8 100.45 -39.05 M129.45 47.85 L130.5 52.15 129.45 47.85 M59.85 27.6 L58.3 31.8 59.85 27.6" fill="#ccbba6" fill-rule="evenodd" stroke="none"/>
    <path d="M108.1 -34.25 L109.7 -33.2 110.7 -32.55 113.7 -31.35 109.0 -28.6 109.0 -28.5 106.85 -27.75 Q104.6 -26.95 102.35 -26.4 103.2 -29.95 108.1 -34.25 M123.0 4.55 L124.25 9.85 124.55 11.3 124.45 11.35 Q127.45 20.9 129.65 30.65 L128.6 31.0 127.85 30.5 Q126.2 29.8 124.7 30.25 123.5 30.75 122.75 31.9 L121.35 31.9 120.35 28.75 Q117.4 20.5 115.65 13.15 L115.75 13.05 115.7 13.05 114.3 6.65 Q121.3 6.85 123.0 4.55 M130.7 36.2 L131.05 38.0 129.5 38.8 128.8 38.35 127.2 38.3 127.65 38.15 Q129.0 37.7 129.75 36.2 L130.7 36.2 M123.9 39.5 L123.2 37.55 123.55 37.4 124.55 37.95 Q125.35 38.35 126.15 38.4 124.7 38.65 123.9 39.5 M112.05 39.65 Q114.8 55.95 115.6 65.45 L100.6 65.45 95.1 34.8 93.35 34.65 92.95 34.6 92.3 34.5 92.95 34.6 93.35 36.5 Q93.15 55.75 92.0 65.45 L77.65 65.45 77.65 55.65 Q82.3 59.15 87.85 61.75 87.9 48.0 92.3 34.5 L92.85 32.85 95.7 34.85 Q98.6 33.15 100.85 29.9 102.3 27.8 103.5 25.05 L103.35 24.9 102.0 24.05 102.75 23.75 104.65 22.95 108.8 31.2 108.55 31.4 112.05 39.65 M78.5 22.65 L78.8 21.6 79.05 19.75 79.2 19.85 80.45 21.35 78.6 22.6 78.5 22.65 M83.85 2.25 L84.2 1.25 Q85.5 -3.0 85.05 -8.9 84.15 -13.25 84.0 -17.25 L84.0 -18.05 84.35 -18.05 Q86.2 -18.35 89.25 -20.7 92.85 -14.25 98.8 -10.25 97.35 -6.15 96.2 -2.05 97.6 4.65 100.0 11.55 97.05 13.15 94.15 14.3 L90.7 15.3 Q85.45 10.15 82.95 4.9 L83.85 2.25 M88.05 -31.5 L87.45 -34.1 88.85 -36.6 87.45 -34.1 85.3 -36.6 88.85 -36.6 92.1 -37.0 Q90.25 -34.95 88.55 -32.3 L88.05 -31.5 M124.45 11.35 L124.25 9.85 124.45 11.35 M78.8 21.6 L78.6 22.6 78.8 21.6" fill="#29536c" fill-rule="evenodd" stroke="none"/>
    <path d="M106.1 -36.25 L105.95 -35.45 108.1 -34.25 Q103.2 -29.95 102.35 -26.4 96.35 -25.0 90.45 -25.5 89.0 -28.1 88.2 -31.1 L88.05 -31.5 88.55 -32.3 Q90.25 -34.95 92.1 -37.0 L96.05 -37.8 96.05 -37.7 Q97.9 -36.65 99.6 -36.15 L98.0 -31.6 96.2 -27.35 Q98.95 -29.05 100.9 -31.8 L102.35 -34.3 102.95 -35.65 105.0 -35.9 106.1 -36.25 M105.55 -33.55 L105.95 -35.45 105.55 -33.55 M95.5 -35.55 L96.05 -37.7 95.5 -35.55 M96.5 -31.15 L98.0 -31.6 96.5 -31.15 M102.8 -31.3 L100.9 -31.8 102.8 -31.3" fill="#eadcd1" fill-rule="evenodd" stroke="none"/>
    <path d="M122.1 0.5 L123.0 4.55 Q121.3 6.85 114.3 6.65 L113.1 1.35 Q117.65 1.8 122.1 0.5 M104.7 -7.1 L101.85 -1.65 104.5 5.9 105.15 7.85 105.3 8.25 Q102.6 10.1 100.0 11.55 97.6 4.65 96.2 -2.05 97.35 -6.15 98.8 -10.25 101.5 -8.4 104.7 -7.1 M108.6 20.85 L109.85 27.65 110.0 29.1 110.15 29.2 110.4 30.3 112.05 39.65 108.55 31.4 108.8 31.2 104.65 22.95 Q106.7 22.0 108.5 20.9 L108.6 20.85 M93.35 34.65 L93.35 36.5 92.95 34.6 93.35 34.65 M110.0 29.1 L110.4 30.3 110.0 29.1" fill="#1b3645" fill-rule="evenodd" stroke="none"/>
    <path d="M129.65 30.65 L131.1 30.05 Q133.35 33.5 132.35 36.4 L130.7 36.2 129.75 36.2 Q131.05 32.9 128.6 31.0 L129.65 30.65 M123.2 37.55 Q122.35 37.8 121.5 38.2 119.75 35.15 120.4 31.8 L121.35 31.9 122.75 31.9 122.45 32.5 Q122.1 33.2 122.05 33.9 121.95 34.8 122.25 35.65 L123.0 36.9 123.55 37.4 123.2 37.55" fill="#d2dde0" fill-rule="evenodd" stroke="none"/>
    <path d="M123.55 37.4 L123.0 36.9 122.25 35.65 Q121.95 34.8 122.05 33.9 122.1 33.2 122.45 32.5 L122.75 31.9 Q123.5 30.75 124.7 30.25 126.2 29.8 127.85 30.5 L128.6 31.0 Q131.05 32.9 129.75 36.2 129.0 37.7 127.65 38.15 L127.2 38.3 126.15 38.4 Q125.35 38.35 124.55 37.95 L123.55 37.4" fill="#a49b50" fill-rule="evenodd" stroke="none"/>
    <path d="M86.55 -87.4 L81.45 -82.95 Q76.85 -82.8 71.75 -78.75 76.0 -80.45 76.95 -78.75 64.75 -66.95 66.05 -61.05 68.0 -65.35 71.45 -66.2 M86.55 -87.4 L87.2 -87.9 Q88.65 -88.7 90.2 -88.9 90.65 -96.0 99.2 -102.0 94.05 -95.6 92.8 -88.65 94.8 -88.15 96.95 -86.65 109.7 -92.6 118.7 -71.7 L120.95 -66.05 Q129.2 -60.35 131.4 -51.35 128.1 -57.05 123.1 -58.6 126.25 -54.25 124.8 -48.9 L123.2 -52.3 Q122.95 -50.15 120.8 -46.65 L120.8 -49.35 Q121.1 -55.45 107.1 -43.6 L108.55 -45.45 M105.95 -35.45 L108.1 -34.25 M76.25 -60.0 Q73.2 -49.45 79.05 -36.15 M72.25 -62.05 Q72.4 -65.5 71.45 -66.2 M76.25 -60.0 L76.65 -61.2 M78.35 -52.2 L78.15 -53.55 78.1 -56.6 78.2 -57.85 Q78.65 -60.75 80.2 -62.8 M86.95 -45.9 L86.1 -52.3 M88.9 -48.75 Q85.5 -56.65 88.9 -66.2 M105.65 -53.05 Q108.8 -55.85 110.45 -53.8 L110.9 -53.1 Q111.4 -52.15 111.25 -50.85 110.85 -48.65 108.55 -45.45" fill="none" stroke="#803f2f" stroke-linecap="round" stroke-linejoin="round" stroke-width="0.05"/>
    <path d="M108.55 -45.45 L106.9 -44.8 Q106.9 -40.6 106.1 -36.25 L105.95 -35.45 105.55 -33.55 M129.5 38.8 L137.0 43.55 137.4 44.75 138.2 45.45 138.2 45.55 132.4 52.75 132.35 52.95 130.5 52.15 125.25 53.4 119.95 47.0 Q120.4 43.45 123.05 40.8 123.35 40.0 123.9 39.5 M68.3 23.3 Q69.3 25.4 69.35 27.85 L63.35 33.6 58.3 31.8 56.4 32.35 56.35 32.25 51.4 24.35 51.4 24.25 52.25 23.7 52.75 22.45 58.75 19.55 M85.05 -36.7 Q79.6 -41.25 77.6 -47.3 L76.4 -58.9 76.25 -60.0 M80.45 -51.7 L81.2 -51.35 M78.75 -52.55 L80.45 -51.7 M90.7 -55.15 L89.7 -54.95 M89.3 -48.5 L90.5 -47.7 91.65 -47.3 M93.45 -54.5 Q92.15 -55.3 90.7 -55.15 M93.45 -54.5 Q95.35 -53.4 96.95 -50.35 M92.75 -47.15 L91.65 -47.3 M111.25 -50.85 Q110.5 -55.0 106.65 -51.2 105.75 -49.0 106.65 -47.3 108.7 -50.55 108.65 -47.3 M104.95 -42.35 L106.75 -44.7 106.9 -44.8 M96.05 -37.8 L96.05 -37.7 95.5 -35.55 M96.05 -37.8 L100.45 -39.05 M82.95 -47.3 L83.95 -46.45 M81.75 -43.55 Q84.2 -41.6 87.0 -41.7 M88.85 -36.6 L85.3 -36.6 M85.05 -36.7 L85.1 -36.6 85.3 -36.6 M98.0 -31.6 L96.5 -31.15 M92.1 -37.0 L96.05 -37.8 M88.85 -36.6 L92.1 -37.0 M100.9 -31.8 L102.8 -31.3 M81.05 -58.75 Q79.35 -59.5 78.2 -57.85 M126.15 38.4 L127.2 38.3 M129.5 38.8 L128.8 38.35 127.2 38.3 M126.15 38.4 Q124.7 38.65 123.9 39.5 M129.45 47.85 L129.7 47.8 M130.5 52.15 L129.45 47.85 M58.3 31.8 L59.85 27.6 59.6 27.55" fill="none" stroke="#cc924a" stroke-linecap="round" stroke-linejoin="round" stroke-width="0.05"/>
    <path d="M113.7 -31.35 L117.3 -29.2 Q118.2 -27.85 117.7 -25.65 120.95 -10.45 125.3 -0.6 L122.1 0.5 Q117.65 1.8 113.1 1.35 L110.95 1.0 108.9 -16.2 Q107.2 -12.1 104.7 -7.1 M104.5 5.9 L107.2 6.85 111.85 18.6 110.4 19.75 108.6 20.85 M77.65 55.65 Q72.85 52.0 69.0 47.35 70.85 34.95 75.75 24.6 L78.5 22.65 78.6 22.6 80.45 21.35 79.2 19.85 79.05 19.75 76.85 16.8 Q77.55 11.1 82.1 3.0 L83.85 2.25 82.95 4.9 Q85.45 10.15 90.7 15.3 L93.05 17.45 Q96.9 20.75 102.0 24.05 L103.35 24.9 103.5 25.05 Q102.3 27.8 100.85 29.9 98.6 33.15 95.7 34.85 L92.85 32.85 92.3 34.5 Q87.9 48.0 87.85 61.75 82.3 59.15 77.65 55.65 M84.0 -17.25 Q81.25 -10.35 80.0 -4.05 M80.0 -3.85 L70.75 23.4 68.3 23.3 M58.75 19.55 Q56.9 17.95 55.7 15.65 L69.3 -9.5 M69.2 -9.75 L80.55 -32.8 Q80.85 -35.7 81.9 -36.35 L85.05 -36.7 M78.15 -21.45 Q79.85 -23.85 81.2 -30.6 80.65 -31.35 80.55 -32.8 M102.35 -26.4 Q104.6 -26.95 106.85 -27.75 L109.0 -28.5 M109.0 -28.6 L113.7 -31.35 M102.35 -26.4 Q96.35 -25.0 90.45 -25.5 89.0 -28.1 88.2 -31.1 L88.05 -31.5 87.45 -34.1 Q86.05 -31.3 85.25 -28.3 83.95 -23.5 84.0 -18.05 L84.35 -18.05 Q86.2 -18.35 89.25 -20.7 92.85 -14.25 98.8 -10.25 101.5 -8.4 104.7 -7.1 M85.3 -36.6 L87.45 -34.1 M100.0 11.55 Q102.6 10.1 105.3 8.25 L105.15 7.85 104.5 5.9 M108.9 -16.2 L108.3 -20.7 111.85 -22.55 M117.7 -25.65 L116.65 -22.9 Q116.3 -16.15 117.5 -13.05 M102.0 24.05 L102.75 23.75 104.65 22.95 Q106.7 22.0 108.5 20.9 L108.6 20.85 M94.15 14.3 L90.7 15.3 M94.15 14.3 Q97.05 13.15 100.0 11.55 M58.75 19.55 Q62.3 22.75 68.3 23.3 M80.45 21.35 Q85.7 27.55 92.85 32.85" fill="none" stroke="#699b98" stroke-linecap="round" stroke-linejoin="round" stroke-width="0.05"/>
    <path d="M108.1 -34.25 L109.7 -33.2 110.7 -32.55 113.7 -31.35 M122.1 0.5 L123.0 4.55 124.25 9.85 124.55 11.3 M124.45 11.35 Q127.45 20.9 129.65 30.65 M130.7 36.2 L131.05 38.0 129.5 38.8 M123.9 39.5 L123.2 37.55 M121.35 31.9 L120.35 28.75 Q117.4 20.5 115.65 13.15 M115.7 13.05 L114.3 6.65 113.1 1.35 M104.7 -7.1 L101.85 -1.65 104.5 5.9 M108.6 20.85 L109.85 27.65 110.0 29.1 M110.15 29.2 L110.4 30.3 112.05 39.65 Q114.8 55.95 115.6 65.45 M100.6 65.45 L95.1 34.8 93.35 34.65 93.35 36.5 Q93.15 55.75 92.0 65.45 M77.65 65.45 L77.65 55.65 M78.5 22.65 L78.8 21.6 79.05 19.75 M83.85 2.25 L84.2 1.25 Q85.5 -3.0 85.05 -8.9 84.15 -13.25 84.0 -17.25 L84.0 -18.05 M108.1 -34.25 Q103.2 -29.95 102.35 -26.4 M87.45 -34.1 L88.85 -36.6 M92.1 -37.0 Q90.25 -34.95 88.55 -32.3 L88.05 -31.5 M85.3 -36.6 L87.3 -36.75 M124.25 9.85 L124.45 11.35 M123.55 37.4 L123.2 37.55 M92.3 34.5 L92.95 34.6 93.35 34.65 M110.4 30.3 L110.0 29.1 M78.6 22.6 L78.8 21.6" fill="none" stroke="#152c33" stroke-linecap="round" stroke-linejoin="round" stroke-width="0.05"/>
    <path d="M129.65 30.65 L131.1 30.05 Q133.35 33.5 132.35 36.4 L130.7 36.2 M123.2 37.55 Q122.35 37.8 121.5 38.2 119.75 35.15 120.4 31.8 L121.35 31.9 M122.75 31.9 L121.35 31.9 M129.75 36.2 L130.7 36.2 M129.65 30.65 L128.6 31.0" fill="none" stroke="#5c7b83" stroke-linecap="round" stroke-linejoin="round" stroke-width="0.05"/>
    <path d="M122.75 31.9 L122.45 32.5 Q122.1 33.2 122.05 33.9 121.95 34.8 122.25 35.65 L123.0 36.9 123.55 37.4 124.55 37.95 Q125.35 38.35 126.15 38.4 M127.2 38.3 L127.65 38.15 Q129.0 37.7 129.75 36.2 131.05 32.9 128.6 31.0 L127.85 30.5 Q126.2 29.8 124.7 30.25 123.5 30.75 122.75 31.9" fill="none" stroke="#615830" stroke-linecap="round" stroke-linejoin="round" stroke-width="0.05"/>
  </g>
</svg>
