<?xml version="1.0" encoding="UTF-8" standalone="no"?>
<svg xmlns:xlink="http://www.w3.org/1999/xlink" height="164.35px" width="144.7px" xmlns="http://www.w3.org/2000/svg">
  <g transform="matrix(1, 0, 0, 1, -24.1, 92.0)">
    <path d="M24.1 -3.65 L29.85 -2.1 29.45 -1.65 29.65 -0.8 30.55 2.2 24.1 0.45 24.1 -3.65 M70.65 13.1 L45.45 6.3 Q46.15 4.3 45.45 2.2 L48.8 3.1 74.4 10.1 76.1 10.55 82.7 12.35 75.65 14.5 75.1 14.35 70.65 13.1 M118.2 23.85 L120.6 23.1 121.35 22.8 124.4 23.65 Q126.75 26.05 123.6 27.5 L114.8 25.2 116.85 24.8 118.2 23.85 M88.15 13.8 L105.95 18.65 105.2 18.9 105.25 19.0 105.55 22.65 80.95 15.9 Q84.55 15.05 88.15 13.8" fill="#cccccc" fill-rule="evenodd" stroke="none"/>
    <path d="M29.45 -1.65 L29.85 -2.1 30.15 -2.45 34.4 -3.15 40.8 -3.05 43.15 -1.85 Q45.2 -0.55 45.05 1.15 L45.45 2.2 Q46.15 4.3 45.45 6.3 L45.35 6.6 40.3 7.9 36.15 2.95 35.95 2.85 34.55 1.55 Q31.3 0.75 30.0 -0.75 L30.05 -0.75 29.5 -1.55 29.45 -1.65 M79.45 -46.8 L82.15 -46.75 85.3 -47.3 82.75 -41.55 81.45 -38.5 79.5 -34.9 81.45 -38.5 80.45 -35.75 79.5 -34.9 79.35 -34.95 79.15 -34.65 79.45 -34.85 78.05 -33.3 Q75.1 -33.6 74.2 -35.8 L73.95 -36.85 Q73.65 -38.35 74.2 -39.9 75.2 -43.15 79.45 -46.8 M88.05 -54.2 L87.6 -54.95 Q87.3 -56.05 87.15 -57.1 L87.3 -56.6 88.25 -59.15 Q88.4 -58.3 89.6 -58.5 L89.85 -58.55 89.7 -58.7 Q88.9 -59.15 88.45 -59.75 L88.45 -59.85 88.8 -60.75 89.35 -62.55 89.45 -63.25 89.5 -63.25 89.5 -63.6 89.6 -64.15 89.8 -65.25 Q89.85 -65.65 90.05 -65.7 90.35 -65.95 90.95 -65.05 91.95 -63.6 92.25 -61.25 92.6 -58.95 96.75 -57.65 98.5 -57.1 99.95 -58.55 101.4 -60.05 102.6 -63.7 L103.8 -59.2 103.7 -58.0 Q103.2 -55.45 100.5 -53.4 98.85 -52.15 96.45 -51.1 94.2 -50.1 91.35 -49.3 L90.5 -49.95 89.25 -52.2 88.05 -54.2 M125.3 -38.15 L125.45 -38.05 127.35 -36.75 Q129.8 -34.75 131.25 -32.4 131.95 -30.2 132.0 -28.65 L132.0 -28.3 Q131.75 -25.05 128.15 -25.0 L126.75 -25.05 124.5 -25.7 122.15 -26.9 120.8 -27.75 118.8 -29.15 114.9 -32.7 Q113.85 -35.7 115.1 -37.75 116.15 -39.6 118.35 -39.85 L120.05 -39.85 122.3 -39.4 125.3 -38.15 M97.45 -67.95 L96.95 -73.1 98.35 -69.5 99.0 -67.9 97.45 -67.95 M99.4 -67.2 L99.85 -66.4 97.45 -66.55 97.45 -67.1 99.4 -67.2 M102.85 -66.4 L102.85 -71.05 Q102.6 -73.8 101.85 -75.2 105.0 -72.15 105.45 -68.15 L105.6 -66.55 102.85 -64.5 103.3 -66.4 102.85 -66.4 M111.4 -65.25 L111.95 -65.25 112.0 -65.25 Q112.95 -65.2 113.25 -64.05 L113.3 -61.5 Q113.15 -62.4 111.5 -62.9 110.55 -62.35 110.05 -61.35 109.25 -61.6 109.2 -63.95 110.05 -65.1 111.4 -65.25 M92.95 -67.3 L93.0 -68.35 Q92.95 -70.95 92.55 -73.35 L93.9 -69.9 94.8 -66.95 92.95 -67.3 M93.95 -61.8 Q93.3 -62.4 93.3 -63.0 93.35 -63.7 94.3 -64.15 L94.75 -64.3 93.95 -61.8 M99.65 -60.95 L99.45 -62.4 99.75 -61.5 99.65 -60.95 M89.5 -68.65 L89.5 -68.75 Q88.65 -69.95 87.95 -69.65 86.95 -70.45 86.25 -71.4 87.6 -75.6 89.9 -78.6 L91.6 -67.7 90.45 -68.2 Q90.15 -71.65 86.9 -71.3 88.95 -70.85 90.4 -68.2 L89.5 -68.65 M86.0 -65.95 L86.0 -66.65 86.0 -67.55 86.7 -67.8 86.35 -66.65 Q86.65 -65.4 87.3 -64.55 L87.45 -64.3 Q86.9 -64.55 86.3 -65.25 L86.0 -65.95 M89.5 -63.25 L89.25 -61.85 88.8 -60.75 89.25 -61.85 89.5 -63.25 M87.65 -47.6 L89.45 -47.7 90.75 -47.75 93.4 -47.7 92.85 -47.2 84.65 -39.5 85.65 -42.2 87.65 -47.6 M96.1 -49.55 L100.85 -51.05 104.6 -52.6 105.25 -52.5 105.45 -51.95 105.9 -50.2 106.15 -49.0 106.45 -47.9 106.05 -47.85 Q98.65 -45.9 96.65 -47.95 L96.25 -48.6 96.1 -49.55 M93.85 -53.55 L88.9 -55.1 93.85 -53.55 M114.05 16.5 L113.75 17.15 112.0 16.65 112.55 15.15 113.6 15.25 115.0 15.35 115.05 15.6 114.25 16.25 114.05 16.5 M113.65 19.55 L113.8 20.0 114.3 20.7 113.85 21.0 Q112.3 22.35 112.9 23.35 113.3 24.3 115.65 24.1 L118.2 23.85 116.85 24.8 114.8 25.2 114.45 25.25 110.9 25.85 106.6 25.8 105.7 25.2 Q105.8 24.0 107.0 23.05 107.85 22.25 109.4 21.65 L110.25 20.25 110.4 20.1 110.95 19.1 113.65 19.55" fill="#ffeadf" fill-rule="evenodd" stroke="none"/>
    <path d="M29.65 -0.8 L29.45 -1.65 29.5 -1.55 30.05 -0.75 30.0 -0.75 29.65 -0.8 M121.25 11.05 L121.25 10.9 121.65 10.6 121.7 11.05 121.7 11.95 Q121.65 14.05 122.0 15.5 L122.25 16.45 119.65 15.25 117.85 17.65 115.7 17.2 113.8 20.0 113.65 19.55 Q113.25 18.4 113.75 17.15 L114.05 16.5 115.1 17.05 115.25 16.9 116.3 15.45 116.35 15.4 117.7 13.55 118.2 13.1 118.4 13.2 119.2 14.2 121.25 11.05 M105.65 24.4 L105.95 24.3 105.7 25.2 105.65 24.4" fill="#e0e0e0" fill-rule="evenodd" stroke="none"/>
    <path d="M30.55 2.2 L29.65 -0.8 30.0 -0.75 Q31.3 0.75 34.55 1.55 L35.95 2.85 36.05 3.0 36.15 2.95 40.3 7.9 39.95 7.95 39.0 8.2 37.65 8.55 33.35 5.45 31.4 5.1 31.4 5.0 30.55 2.2 M71.1 -35.1 L71.4 -35.8 71.35 -35.9 Q71.05 -36.75 71.05 -37.7 70.95 -40.55 73.2 -43.15 75.35 -45.8 78.6 -46.65 L79.45 -46.8 Q75.2 -43.15 74.2 -39.9 73.65 -38.35 73.95 -36.85 L74.2 -35.8 Q75.1 -33.6 78.05 -33.3 L76.2 -31.25 75.8 -30.8 Q74.35 -28.25 74.2 -26.05 72.2 -30.05 71.1 -35.1 M112.9 -59.9 L112.65 -59.3 112.1 -58.3 111.85 -57.65 111.5 -57.3 111.1 -56.9 110.4 -56.5 110.55 -57.95 109.85 -56.4 109.55 -56.3 Q108.3 -54.4 104.6 -52.6 108.3 -54.4 109.55 -56.3 L109.85 -56.4 Q108.7 -53.3 107.95 -48.4 L106.45 -47.9 106.15 -49.0 105.9 -50.2 105.45 -51.95 105.25 -52.5 104.6 -52.6 100.85 -51.05 96.1 -49.55 96.05 -49.55 91.35 -49.3 Q94.2 -50.1 96.45 -51.1 98.85 -52.15 100.5 -53.4 103.2 -55.45 103.7 -58.0 L103.8 -59.2 102.6 -63.7 102.8 -64.3 102.85 -64.5 105.6 -66.55 105.95 -62.75 Q105.8 -58.0 103.7 -53.75 L106.6 -57.5 Q108.8 -61.25 109.15 -64.6 L110.1 -64.95 111.4 -65.25 Q110.05 -65.1 109.2 -63.95 109.25 -61.6 110.05 -61.35 L109.5 -60.0 109.5 -59.7 110.25 -59.45 Q110.65 -59.1 110.55 -57.95 110.65 -59.1 110.25 -59.45 L109.5 -59.7 109.5 -60.0 110.05 -61.35 Q110.55 -62.35 111.5 -62.9 113.15 -62.4 113.3 -61.5 L113.25 -64.05 Q112.95 -65.2 112.0 -65.25 113.7 -65.15 113.55 -62.6 L113.4 -61.65 113.05 -60.45 112.9 -60.0 112.9 -59.9 M113.75 -44.05 L114.5 -43.8 117.95 -42.3 120.75 -40.8 120.9 -40.8 125.3 -38.15 122.3 -39.4 120.05 -39.85 118.35 -39.85 Q116.15 -39.6 115.1 -37.75 113.85 -35.7 114.9 -32.7 L118.8 -29.15 120.8 -27.75 122.15 -26.9 124.5 -25.7 126.75 -25.05 128.15 -25.0 Q131.75 -25.05 132.0 -28.3 L132.0 -28.65 Q131.95 -30.2 131.25 -32.4 L132.5 -30.05 132.95 -28.95 133.0 -28.65 133.15 -28.65 140.25 -18.4 Q134.25 -18.2 127.15 -20.6 L125.75 -22.35 126.9 -22.05 125.75 -22.35 Q123.5 -23.0 121.25 -24.65 L119.0 -19.7 Q116.9 -18.75 115.45 -23.6 L115.1 -25.9 115.05 -26.3 Q113.5 -30.05 113.25 -34.15 112.75 -38.8 113.7 -43.85 L113.75 -44.05 M89.35 -65.65 L89.45 -64.85 89.15 -64.7 89.35 -65.65 M89.5 -63.25 L89.45 -63.25 89.5 -63.6 89.5 -63.25 M88.25 -59.15 L88.45 -59.75 Q88.9 -59.15 89.7 -58.7 L89.85 -58.55 89.6 -58.5 Q88.4 -58.3 88.25 -59.15 M113.05 -60.45 L113.3 -61.5 113.05 -60.45 M118.95 -26.55 L120.45 -25.25 121.25 -24.65 120.45 -25.25 118.95 -26.55 M109.35 15.6 L109.95 14.95 112.55 15.15 112.0 16.65 109.25 15.8 109.35 15.6 M105.95 18.65 L106.95 18.3 107.0 18.25 110.95 19.1 110.4 20.1 110.3 20.05 110.25 20.25 109.4 21.65 Q107.85 22.25 107.0 23.05 105.8 24.0 105.7 25.2 L105.95 24.3 105.65 24.4 105.55 22.65 105.25 19.0 105.2 18.9 105.95 18.65 M106.95 18.3 L110.3 20.05 106.95 18.3 M33.35 5.45 L36.05 3.0 33.35 5.45" fill="#ffdfce" fill-rule="evenodd" stroke="none"/>
    <path d="M30.15 -2.45 L31.05 -3.2 34.4 -3.15 30.15 -2.45 M106.6 25.8 L110.9 25.85 110.3 25.95 109.5 26.1 107.75 26.35 106.6 25.8" fill="#f5dfc5" fill-rule="evenodd" stroke="none"/>
    <path d="M43.15 -1.85 L57.9 -10.3 62.05 -11.0 68.75 -28.75 Q74.55 -21.75 70.15 -10.6 L68.7 -7.35 Q68.7 -6.05 67.55 -4.65 L66.9 -3.95 Q64.2 -0.95 60.55 0.45 54.7 1.35 48.8 3.1 L45.45 2.2 45.05 1.15 Q45.2 -0.55 43.15 -1.85 M148.25 -6.9 L152.1 -1.55 152.0 -1.1 Q152.5 -0.25 152.6 1.05 151.1 3.85 145.6 8.35 L124.55 17.8 123.3 17.75 122.9 17.75 Q122.5 17.2 122.25 16.45 L122.0 15.5 Q121.65 14.05 121.7 11.95 129.6 6.65 136.1 0.9 139.0 -0.95 142.45 -1.95 L131.6 -15.25 Q140.7 -16.5 148.25 -6.9 M116.35 28.3 L119.4 41.7 118.15 42.55 114.15 44.85 Q111.75 35.55 110.3 25.95 L110.9 25.85 114.45 25.25 Q114.65 26.85 116.35 28.3 M100.4 50.6 L96.3 52.0 Q95.75 43.7 94.65 35.65 L93.65 29.4 93.0 25.8 92.1 21.25 90.05 21.1 89.5 21.0 88.6 20.9 85.8 28.1 84.85 30.55 83.65 33.7 Q79.85 43.85 79.2 47.85 69.55 38.85 67.25 33.75 66.45 32.0 66.55 30.7 L73.25 18.15 73.7 17.3 80.95 15.9 105.55 22.65 105.65 24.4 105.7 25.2 106.6 25.8 107.75 26.35 109.5 26.1 Q109.35 33.05 112.05 45.9 107.15 48.25 100.4 50.6 M78.05 -33.3 L79.45 -34.85 79.15 -34.65 79.5 -34.9 80.45 -35.75 Q77.95 -28.4 77.2 -20.0 L75.3 -22.55 74.4 -24.2 Q74.15 -25.1 74.2 -26.05 74.35 -28.25 75.8 -30.8 L76.2 -31.25 78.05 -33.3 M76.4 9.65 Q77.25 7.1 78.55 4.75 L87.55 10.6 82.7 12.35 76.1 10.55 76.4 9.65 M80.3 1.95 L83.5 -2.05 83.5 -2.15 Q85.45 -7.9 91.1 -9.15 L92.75 -9.05 92.95 -9.05 Q100.75 -6.95 102.75 0.15 L103.0 1.85 103.7 3.3 Q98.0 6.3 92.15 8.75 86.0 5.7 80.3 1.95 M60.75 -7.6 L62.05 -11.0 60.75 -7.6 M93.4 -47.7 L94.1 -47.7 95.35 -47.4 95.75 -49.1 96.05 -49.55 96.1 -49.55 96.25 -48.6 96.65 -47.95 Q98.65 -45.9 106.05 -47.85 L106.45 -47.9 106.4 -47.75 106.55 -45.45 106.65 -43.85 106.65 -43.45 106.7 -42.05 106.35 -37.8 99.35 -37.75 98.4 -37.8 Q97.05 -37.9 100.6 -36.45 L103.3 -35.75 105.8 -36.0 106.85 -35.0 106.85 -34.95 Q106.3 -24.5 101.95 -14.2 97.95 -14.0 95.75 -14.85 93.25 -15.9 90.65 -17.75 L90.45 -17.75 90.25 -17.9 89.4 -18.4 Q86.9 -20.3 84.55 -20.4 L81.85 -20.05 81.35 -19.95 Q81.6 -30.2 84.65 -39.5 L92.85 -47.2 93.4 -47.7 M94.3 -38.1 L97.8 -43.95 Q100.3 -43.25 105.8 -45.2 L106.1 -45.15 106.55 -45.45 106.1 -45.15 105.8 -45.2 Q100.3 -43.25 97.8 -43.95 L94.3 -38.1 88.45 -34.45 91.2 -30.35 97.1 -34.1 94.35 -38.1 94.3 -38.1 M106.65 -15.05 Q109.3 -23.8 109.3 -32.15 110.4 -30.55 111.0 -28.8 L110.95 -28.55 Q110.8 -28.55 111.05 -28.15 L111.0 -27.75 111.3 -20.9 Q111.05 -20.5 111.15 -20.05 L109.95 -17.1 Q108.85 -15.8 106.65 -15.05 M95.4 -46.8 L95.55 -46.65 95.45 -47.15 95.4 -46.8 M95.45 -47.15 L95.35 -47.4 95.35 -47.15 95.45 -47.15 M97.8 -43.95 Q96.15 -44.35 95.7 -45.8 L95.55 -46.65 95.7 -45.8 Q96.15 -44.35 97.8 -43.95 M89.75 -29.1 L86.9 -34.55 91.75 -37.75 84.65 -34.85 87.75 -28.25 87.3 -23.15 89.75 -29.1 M91.65 -29.0 L89.25 -23.1 92.9 -28.05 101.1 -34.2 96.55 -37.55 98.7 -34.1 91.65 -29.0 M146.1 2.65 L142.45 -1.95 146.1 2.65 M104.8 6.15 L106.1 10.15 107.3 14.7 109.35 15.6 109.25 15.8 Q102.45 13.55 96.15 10.65 100.5 8.7 104.8 6.15 M107.0 18.25 L106.95 18.3 105.95 18.65 88.15 13.8 91.5 12.65 Q98.95 16.25 107.0 18.25 M75.65 14.5 L75.05 14.65 75.1 14.35 75.65 14.5" fill="#24485b" fill-rule="evenodd" stroke="none"/>
    <path d="M79.5 -34.9 L79.15 -34.65 79.35 -34.95 79.5 -34.9 M91.35 -49.3 L90.8 -49.55 90.5 -49.95 91.35 -49.3 M95.35 -47.15 L95.35 -47.4 95.45 -47.15 95.35 -47.15" fill="#ffdfc8" fill-rule="evenodd" stroke="none"/>
    <path d="M68.75 -28.75 L71.1 -35.1 Q72.2 -30.05 74.2 -26.05 74.15 -25.1 74.4 -24.2 L75.3 -22.55 77.2 -20.0 77.0 -18.15 Q75.7 -19.2 75.4 -20.5 L75.1 -21.05 75.05 -21.15 75.0 -21.2 74.4 -24.2 75.0 -21.2 75.1 -21.05 70.15 -10.6 Q74.55 -21.75 68.75 -28.75 M109.5 -46.25 L109.55 -45.9 109.65 -45.9 113.75 -44.05 113.7 -43.85 Q112.75 -38.8 113.25 -34.15 113.5 -30.05 115.05 -26.3 L115.1 -25.9 115.45 -23.6 Q116.9 -18.75 119.0 -19.7 L119.0 -19.65 108.8 -3.9 108.8 -3.85 107.45 -1.2 108.4 0.7 103.7 3.3 103.0 1.85 102.75 0.15 Q100.75 -6.95 92.95 -9.05 L92.75 -9.05 91.1 -9.15 Q85.45 -7.9 83.5 -2.15 L83.5 -2.05 83.45 -2.15 83.25 -5.3 81.0 -13.2 80.85 -13.95 80.75 -14.75 81.4 -14.65 81.35 -15.95 81.35 -19.95 81.85 -20.05 84.55 -20.4 Q86.9 -20.3 89.4 -18.4 L90.25 -17.9 90.45 -17.75 90.65 -17.75 Q93.25 -15.9 95.75 -14.85 97.95 -14.0 101.95 -14.2 L99.8 -9.5 99.4 -8.8 Q101.6 -8.2 104.7 -9.4 L105.0 -10.1 106.65 -15.05 Q108.85 -15.8 109.95 -17.1 L111.15 -20.05 Q111.05 -20.5 111.3 -20.9 L111.0 -27.75 111.05 -28.15 Q110.8 -28.55 110.95 -28.55 L111.0 -28.8 Q110.4 -30.55 109.3 -32.15 L109.3 -33.45 Q109.1 -39.8 109.5 -46.25 M140.25 -18.4 L148.25 -6.9 Q140.7 -16.5 131.6 -15.25 L127.15 -20.6 Q134.25 -18.2 140.25 -18.4 M106.45 -47.9 L107.95 -48.4 107.6 -45.9 106.55 -45.45 107.6 -45.9 Q107.05 -41.2 106.85 -35.0 L105.8 -36.0 103.3 -35.75 100.6 -36.45 Q97.05 -37.9 98.4 -37.8 L99.35 -37.75 106.35 -37.8 106.7 -42.05 106.65 -43.45 106.65 -43.85 106.55 -45.45 106.4 -47.75 106.45 -47.9 M110.25 -42.35 L109.65 -45.9 110.25 -42.35 M99.8 -9.5 L97.6 -9.95 Q96.2 -10.45 95.3 -11.0 L92.95 -13.0 Q89.8 -15.65 84.0 -15.7 L81.35 -15.95 84.0 -15.7 Q89.8 -15.65 92.95 -13.0 L95.3 -11.0 Q96.2 -10.45 97.6 -9.95 L99.8 -9.5 M105.0 -10.1 Q106.65 -10.6 108.25 -11.45 112.95 -14.3 114.6 -19.1 L115.45 -21.65 115.5 -21.85 115.45 -23.6 115.5 -21.85 115.45 -21.65 114.6 -19.1 Q112.95 -14.3 108.25 -11.45 106.65 -10.6 105.0 -10.1 M104.8 6.15 L109.7 3.2 Q112.85 9.05 113.6 15.25 L112.55 15.15 109.95 14.95 109.35 15.6 107.3 14.7 106.1 10.15 104.8 6.15" fill="#1c3748" fill-rule="evenodd" stroke="none"/>
    <path d="M75.05 -21.15 L75.1 -21.05 75.0 -21.2 75.05 -21.15" fill="#ffd9ec" fill-rule="evenodd" stroke="none"/>
    <path d="M85.3 -47.3 L88.05 -54.2 89.25 -52.2 87.65 -47.6 85.65 -42.2 84.65 -39.5 Q81.6 -30.2 81.35 -19.95 L81.35 -15.95 81.4 -14.65 80.75 -14.75 Q78.85 -15.2 76.95 -17.0 L77.0 -18.15 77.2 -20.0 Q77.95 -28.4 80.45 -35.75 L81.45 -38.5 82.75 -41.55 85.3 -47.3 M110.4 -56.5 Q109.75 -51.35 109.5 -46.25 109.1 -39.8 109.3 -33.45 L109.3 -32.15 Q109.3 -23.8 106.65 -15.05 L105.0 -10.1 104.7 -9.4 Q101.6 -8.2 99.4 -8.8 L99.8 -9.5 101.95 -14.2 Q106.3 -24.5 106.85 -34.95 L106.85 -35.0 Q107.05 -41.2 107.6 -45.9 L107.95 -48.4 Q108.7 -53.3 109.85 -56.4 L110.55 -57.95 110.4 -56.5 M116.55 72.35 L112.05 72.35 Q114.65 58.95 112.1 46.1 L112.05 45.9 Q109.35 33.05 109.5 26.1 L110.3 25.95 Q111.75 35.55 114.15 44.85 L114.65 46.75 114.8 47.35 Q117.95 59.05 116.55 72.35 M39.95 7.95 Q40.4 15.0 38.5 27.75 36.6 41.25 40.5 55.6 38.3 55.8 35.6 54.1 33.3 40.6 35.85 28.9 38.0 18.75 39.0 8.2 L39.95 7.95" fill="#9a85b4" fill-rule="evenodd" stroke="none"/>
    <path d="M85.65 -69.05 L84.95 -65.1 83.45 -68.7 Q83.15 -69.7 83.1 -71.8 L83.1 -73.1 83.3 -75.15 84.0 -77.7 83.9 -77.7 82.05 -74.7 82.75 -78.0 82.8 -78.0 Q91.45 -94.15 103.75 -88.05 L104.25 -87.75 105.25 -87.95 Q116.5 -89.5 120.8 -75.15 L121.4 -72.25 122.35 -65.6 122.4 -65.45 122.55 -63.8 121.5 -65.0 120.35 -66.45 120.15 -63.95 113.85 -60.45 112.9 -59.85 112.9 -59.9 112.9 -60.0 113.05 -60.45 113.4 -61.65 113.55 -62.6 Q113.7 -65.15 112.0 -65.25 L111.95 -65.25 111.4 -65.25 110.1 -64.95 109.15 -64.6 Q108.8 -61.25 106.6 -57.5 L103.7 -53.75 Q105.8 -58.0 105.95 -62.75 L105.6 -66.55 105.45 -68.15 Q105.0 -72.15 101.85 -75.2 102.6 -73.8 102.85 -71.05 L102.85 -66.4 102.4 -63.2 101.7 -63.9 101.25 -64.5 99.85 -66.4 99.4 -67.2 99.0 -67.9 98.35 -69.5 96.95 -73.1 97.45 -67.95 97.45 -67.1 97.45 -66.55 97.35 -64.75 97.25 -64.05 97.1 -63.2 96.9 -61.95 95.8 -66.75 95.8 -66.85 95.25 -69.2 93.5 -73.85 93.9 -69.9 92.55 -73.35 Q92.95 -70.95 93.0 -68.35 L92.95 -67.3 92.9 -65.9 92.85 -62.7 92.55 -61.55 91.6 -67.7 89.9 -78.6 Q87.6 -75.6 86.25 -71.4 L85.8 -69.75 85.65 -69.05" fill="#5b3859" fill-rule="evenodd" stroke="none"/>
    <path d="M84.95 -65.1 L84.75 -62.95 84.75 -62.75 Q80.75 -67.65 82.05 -74.7 L83.9 -77.7 84.0 -77.7 83.3 -75.15 83.1 -73.1 83.1 -71.8 Q83.15 -69.7 83.45 -68.7 L84.95 -65.1 M82.75 -78.0 L77.85 -70.35 Q83.6 -86.75 91.3 -90.65 94.6 -92.4 98.15 -91.85 100.9 -91.6 103.55 -90.15 L104.45 -90.25 Q106.4 -90.5 108.3 -90.3 117.25 -89.2 120.8 -75.15 116.5 -89.5 105.25 -87.95 L104.25 -87.75 103.75 -88.05 Q91.45 -94.15 82.8 -78.0 L82.75 -78.0 M93.9 -69.9 L93.5 -73.85 95.25 -69.2 95.8 -66.85 95.8 -66.75 96.9 -61.95 96.55 -60.95 96.35 -60.5 96.25 -60.35 96.05 -59.9 95.9 -60.5 95.8 -61.15 95.35 -63.85 95.25 -64.35 95.15 -65.2 94.9 -66.55 94.85 -66.8 94.8 -66.95 93.9 -69.9" fill="#ad8da2" fill-rule="evenodd" stroke="none"/>
    <path d="M99.0 -67.9 L99.4 -67.2 97.45 -67.1 97.45 -67.95 99.0 -67.9 M94.9 -66.55 L94.45 -66.45 94.85 -66.8 94.9 -66.55 M90.45 -68.2 L90.45 -68.1 90.4 -68.2 Q88.95 -70.85 86.9 -71.3 90.15 -71.65 90.45 -68.2" fill="#503e53" fill-rule="evenodd" stroke="none"/>
    <path d="M87.15 -57.1 Q86.25 -59.55 85.85 -62.05 L87.35 -59.15 89.35 -62.55 88.8 -60.75 88.45 -59.85 88.45 -59.75 88.25 -59.15 87.3 -56.6 87.15 -57.1 M120.45 58.7 L120.8 62.3 119.85 58.75 120.45 58.7 M80.7 47.0 L78.45 50.5 80.1 46.6 80.7 47.0 M99.85 -66.4 L101.25 -64.5 98.5 -64.6 98.15 -64.65 97.85 -64.7 97.35 -64.75 97.45 -66.55 99.85 -66.4 M101.7 -63.9 L102.4 -63.2 102.85 -66.4 103.3 -66.4 102.85 -64.5 102.8 -64.3 102.6 -63.7 Q101.4 -60.05 99.95 -58.55 98.5 -57.1 96.75 -57.65 92.6 -58.95 92.25 -61.25 91.95 -63.6 90.95 -65.05 90.35 -65.95 90.05 -65.7 L89.5 -66.95 89.5 -67.0 89.3 -67.1 88.0 -67.9 87.5 -68.25 87.05 -68.6 86.0 -69.55 85.8 -69.75 86.25 -71.4 Q86.95 -70.45 87.95 -69.65 L88.55 -69.2 Q88.65 -69.15 88.8 -69.05 L89.05 -68.85 89.5 -68.65 90.4 -68.2 90.45 -68.1 90.45 -68.2 91.6 -67.7 92.55 -61.55 92.85 -62.7 93.15 -61.15 Q95.7 -58.2 99.05 -58.45 100.95 -61.15 101.7 -63.9 M94.9 -66.55 L95.15 -65.2 92.9 -65.9 92.95 -67.3 94.8 -66.95 94.85 -66.8 94.45 -66.45 94.9 -66.55" fill="#333333" fill-rule="evenodd" stroke="none"/>
    <path d="M101.25 -64.5 L101.7 -63.9 Q100.95 -61.15 99.05 -58.45 95.7 -58.2 93.15 -61.15 L92.85 -62.7 92.9 -65.9 95.15 -65.2 95.25 -64.35 94.75 -64.3 94.3 -64.15 Q93.35 -63.7 93.3 -63.0 93.3 -62.4 93.95 -61.8 L94.3 -61.45 94.75 -61.1 Q95.3 -60.75 95.9 -60.5 L96.05 -59.9 96.25 -60.35 96.6 -60.3 97.4 -60.15 98.9 -60.35 99.65 -60.95 99.75 -61.5 99.45 -62.4 98.85 -63.05 98.4 -63.4 97.9 -63.75 97.25 -64.05 97.35 -64.75 97.85 -64.7 98.15 -64.65 98.5 -64.6 101.25 -64.5" fill="#990000" fill-rule="evenodd" stroke="none"/>
    <path d="M95.25 -64.35 L95.35 -63.85 Q95.2 -63.5 95.2 -63.05 95.1 -62.25 95.45 -61.6 L95.8 -61.15 95.9 -60.5 Q95.3 -60.75 94.75 -61.1 94.4 -61.95 94.5 -63.05 94.55 -63.75 94.75 -64.3 L95.25 -64.35 M96.25 -60.35 L96.35 -60.5 96.55 -60.95 Q96.9 -61.05 97.25 -61.5 97.7 -62.05 97.8 -62.85 L97.8 -63.6 97.9 -63.75 98.4 -63.4 98.4 -62.8 Q98.3 -61.45 97.7 -60.55 L97.4 -60.15 96.6 -60.3 96.25 -60.35 M87.45 -64.3 L87.3 -64.55 87.3 -64.65 Q86.95 -65.45 87.05 -66.5 L87.25 -67.75 87.7 -67.55 87.5 -66.65 87.5 -66.4 Q87.45 -65.8 87.65 -65.3 87.9 -64.85 88.25 -64.8 L88.95 -65.25 89.25 -66.05 89.35 -65.65 89.15 -64.7 88.2 -64.3 Q87.85 -64.15 87.45 -64.3" fill="#b8cdd1" fill-rule="evenodd" stroke="none"/>
    <path d="M118.15 42.55 L120.45 58.7 119.85 58.75 118.8 55.85 Q117.1 51.05 114.65 46.75 L114.15 44.85 118.15 42.55 M94.65 35.65 L87.65 34.95 80.7 47.0 80.1 46.6 81.4 43.35 Q83.05 38.8 84.1 34.2 L83.6 34.0 83.65 33.7 84.85 30.55 85.8 28.1 Q88.55 29.05 90.9 29.35 L93.65 29.4 94.65 35.65 M96.9 -61.95 L97.1 -63.2 Q97.4 -63.25 97.6 -63.45 L97.8 -63.6 97.8 -62.85 Q97.7 -62.05 97.25 -61.5 96.9 -61.05 96.55 -60.95 L96.9 -61.95 M95.35 -63.85 L95.8 -61.15 95.45 -61.6 Q95.1 -62.25 95.2 -63.05 95.2 -63.5 95.35 -63.85 M89.25 -66.05 L88.95 -65.25 88.25 -64.8 Q87.9 -64.85 87.65 -65.3 87.45 -65.8 87.5 -66.4 L87.5 -66.65 87.7 -67.55 87.9 -67.45 88.1 -66.9 88.55 -66.6 88.85 -66.65 89.25 -66.05" fill="#000000" fill-rule="evenodd" stroke="none"/>
    <path d="M85.85 -62.05 L85.55 -65.45 85.55 -68.15 85.65 -69.05 85.8 -69.75 86.0 -69.55 87.05 -68.6 87.5 -68.25 88.0 -67.9 89.3 -67.1 89.5 -67.0 89.5 -66.95 90.05 -65.7 Q89.85 -65.65 89.8 -65.25 L89.6 -64.15 89.5 -63.6 89.45 -63.25 89.35 -62.55 87.35 -59.15 85.85 -62.05 M97.1 -63.2 L97.25 -64.05 97.9 -63.75 97.8 -63.6 97.6 -63.45 Q97.4 -63.25 97.1 -63.2 M93.95 -61.8 L94.75 -64.3 Q94.55 -63.75 94.5 -63.05 94.4 -61.95 94.75 -61.1 L94.3 -61.45 93.95 -61.8 M97.4 -60.15 L97.7 -60.55 Q98.3 -61.45 98.4 -62.8 L98.4 -63.4 98.85 -63.05 99.45 -62.4 99.65 -60.95 98.9 -60.35 97.4 -60.15 M89.5 -68.65 L89.05 -68.85 88.8 -69.05 Q88.65 -69.15 88.55 -69.2 L87.95 -69.65 Q88.65 -69.95 89.5 -68.75 L89.5 -68.65 M86.0 -67.55 L85.95 -67.55 85.8 -67.2 85.85 -66.6 86.0 -65.95 86.3 -65.25 Q86.9 -64.55 87.45 -64.3 87.85 -64.15 88.2 -64.3 L89.15 -64.7 89.45 -64.85 89.35 -65.65 89.25 -66.05 88.85 -66.65 88.55 -66.6 88.1 -66.9 87.9 -67.45 87.7 -67.55 87.25 -67.75 87.05 -66.5 Q86.95 -65.45 87.3 -64.65 L87.3 -64.55 Q86.65 -65.4 86.35 -66.65 L86.7 -67.8 86.0 -67.55" fill="#ffffff" fill-rule="evenodd" stroke="none"/>
    <path d="M95.55 -46.65 L95.4 -46.8 95.45 -47.15 95.55 -46.65" fill="#d6f8f4" fill-rule="evenodd" stroke="none"/>
    <path d="M125.6 20.35 Q128.9 21.4 130.2 22.5 131.5 23.65 131.7 25.25 L131.8 25.75 131.6 27.65 131.0 29.1 130.75 29.5 Q129.7 30.9 127.5 31.3 125.3 31.7 121.85 30.8 118.3 29.9 116.45 28.4 L116.35 28.3 Q114.65 26.85 114.45 25.25 L114.8 25.2 123.6 27.5 Q126.75 26.05 124.4 23.65 L121.35 22.8 Q123.6 22.0 125.05 20.8 L125.6 20.35 M94.3 -38.1 L94.35 -38.1 97.1 -34.1 91.2 -30.35 88.45 -34.45 94.3 -38.1 M89.75 -29.1 L87.3 -23.15 87.75 -28.25 84.65 -34.85 91.75 -37.75 86.9 -34.55 89.75 -29.1 M91.65 -29.0 L98.7 -34.1 96.55 -37.55 101.1 -34.2 92.9 -28.05 89.25 -23.1 91.65 -29.0" fill="#adb56c" fill-rule="evenodd" stroke="none"/>
    <path d="M131.8 25.75 Q149.85 28.0 167.6 35.5 170.65 38.35 165.9 39.1 145.5 36.35 130.75 29.5 L131.0 29.1 131.6 27.65 131.8 25.75" fill="#0e171e" fill-rule="evenodd" stroke="none"/>
    <path d="M124.55 17.8 Q125.95 17.95 126.4 18.6 126.65 19.4 125.6 20.35 L125.05 20.8 Q123.6 22.0 121.35 22.8 L120.6 23.1 118.2 23.85 115.65 24.1 Q113.3 24.3 112.9 23.35 112.3 22.35 113.85 21.0 L114.3 20.7 115.25 20.05 118.15 18.7 118.6 18.6 122.9 17.75 123.3 17.75 124.55 17.8 M118.2 13.1 L117.7 13.55 115.4 15.4 115.05 15.6 115.0 15.35 Q114.6 13.95 115.95 12.8 117.55 11.65 119.6 11.25 L121.0 11.0 118.7 12.65 118.2 13.1" fill="#847d31" fill-rule="evenodd" stroke="none"/>
    <path d="M121.25 11.05 L119.2 14.2 118.4 13.2 118.7 12.65 121.0 11.0 121.25 11.05 M117.7 13.55 L116.35 15.4 116.3 15.45 115.25 16.9 115.1 17.05 114.05 16.5 114.25 16.25 115.05 15.6 115.4 15.4 117.7 13.55 M113.8 20.0 L115.7 17.2 117.85 17.65 119.65 15.25 122.25 16.45 Q122.5 17.2 122.9 17.75 L118.6 18.6 118.15 18.7 115.25 20.05 114.3 20.7 113.8 20.0" fill="#c5c5c5" fill-rule="evenodd" stroke="none"/>
    <path d="M78.55 4.75 L78.2 4.5 Q77.05 2.35 79.8 1.6 L80.3 1.95 Q86.0 5.7 92.15 8.75 98.0 6.3 103.7 3.3 L108.4 0.7 109.35 0.15 Q111.6 0.95 109.95 3.1 L109.7 3.2 104.8 6.15 Q100.5 8.7 96.15 10.65 102.45 13.55 109.25 15.8 L112.0 16.65 113.75 17.15 Q113.25 18.4 113.65 19.55 L110.95 19.1 107.0 18.25 Q98.95 16.25 91.5 12.65 L88.15 13.8 Q84.55 15.05 80.95 15.9 L73.7 17.3 72.4 17.5 Q72.1 15.35 73.75 15.0 L75.05 14.65 75.65 14.5 82.7 12.35 87.55 10.6 92.15 8.75 87.55 10.6 78.55 4.75 M91.5 12.65 L96.15 10.65 91.5 12.65" fill="#9b96cc" fill-rule="evenodd" stroke="none"/>
    <path d="M35.95 2.85 L36.15 2.95 36.05 3.0 35.95 2.85 M110.25 20.25 L110.3 20.05 110.4 20.1 110.25 20.25" fill="#eebf5a" fill-rule="evenodd" stroke="none"/>
    <path d="M120.8 62.3 L120.95 64.95 121.45 72.35 116.55 72.35 Q117.95 59.05 114.8 47.35 L114.65 46.75 Q117.1 51.05 118.8 55.85 L119.85 58.75 120.8 62.3 M112.05 72.35 L105.1 72.35 104.35 69.85 100.4 50.6 Q107.15 48.25 112.05 45.9 L112.1 46.1 Q114.65 58.95 112.05 72.35 M78.45 50.5 L76.75 52.95 66.4 68.0 66.55 72.35 53.7 72.35 53.9 66.7 54.7 63.3 Q55.1 61.7 55.65 60.35 57.85 53.1 61.05 45.85 L67.25 33.75 Q69.55 38.85 79.2 47.85 79.85 43.85 83.65 33.7 L83.6 34.0 84.1 34.2 Q83.05 38.8 81.4 43.35 L80.1 46.6 78.45 50.5 M88.6 20.9 L89.5 21.0 90.05 21.1 92.1 21.25 93.0 25.8 93.65 29.4 90.9 29.35 Q88.55 29.05 85.8 28.1 L88.6 20.9 M65.25 69.55 L66.4 68.0 65.25 69.55" fill="#25353a" fill-rule="evenodd" stroke="none"/>
    <path d="M29.85 -2.1 L24.1 -3.65 M24.1 0.45 L30.55 2.2 M70.65 13.1 L45.45 6.3 M48.8 3.1 L74.4 10.1 M88.15 13.8 L105.95 18.65 M76.1 10.55 L82.7 12.35 M76.1 10.55 L74.4 10.1 M75.65 14.5 L75.1 14.35 70.65 13.1 M48.8 3.1 L45.45 2.2 M105.55 22.65 L80.95 15.9" fill="none" stroke="#666666" stroke-linecap="round" stroke-linejoin="round" stroke-width="0.05"/>
    <path d="M30.55 2.2 L29.65 -0.8 29.45 -1.65 29.85 -2.1 30.15 -2.45 31.05 -3.2 34.4 -3.15 40.8 -3.05 43.15 -1.85 M71.1 -35.1 L71.4 -35.8 M71.35 -35.9 Q71.05 -36.75 71.05 -37.7 70.95 -40.55 73.2 -43.15 75.35 -45.8 78.6 -46.65 L79.45 -46.8 82.15 -46.75 85.3 -47.3 M88.05 -54.2 L87.6 -54.95 Q87.3 -56.05 87.15 -57.1 M112.9 -59.9 L112.65 -59.3 112.1 -58.3 111.85 -57.65 111.5 -57.3 111.1 -56.9 110.4 -56.5 M113.75 -44.05 L114.5 -43.8 117.95 -42.3 120.75 -40.8 M120.9 -40.8 L125.3 -38.15 125.45 -38.05 127.35 -36.75 Q129.8 -34.75 131.25 -32.4 L132.5 -30.05 132.95 -28.95 M133.0 -28.65 L133.15 -28.65 140.25 -18.4 M45.45 6.3 L45.35 6.6 40.3 7.9 39.95 7.95 M39.0 8.2 L37.65 8.55 33.35 5.45 31.4 5.1 31.4 5.0 30.55 2.2 M35.95 2.85 L36.15 2.95 36.05 3.0 33.35 5.45 M79.5 -34.9 L81.45 -38.5 M111.4 -65.25 L111.95 -65.25 112.0 -65.25 Q112.95 -65.2 113.25 -64.05 L113.3 -61.5 113.05 -60.45 112.9 -60.0 112.9 -59.9 M86.0 -65.95 L86.0 -66.65 86.0 -67.55 M89.5 -63.25 L89.5 -63.6 M88.8 -60.75 L89.25 -61.85 89.5 -63.25 M88.25 -59.15 Q88.4 -58.3 89.6 -58.5 L89.85 -58.55 M90.5 -49.95 L89.25 -52.2 88.05 -54.2 M87.65 -47.6 L89.45 -47.7 90.75 -47.75 93.4 -47.7 92.85 -47.2 M96.05 -49.55 L91.35 -49.3 90.5 -49.95 M96.05 -49.55 L96.1 -49.55 100.85 -51.05 104.6 -52.6 Q108.3 -54.4 109.55 -56.3 L109.85 -56.4 M110.55 -57.95 Q110.65 -59.1 110.25 -59.45 L109.5 -59.7 109.5 -60.0 110.05 -61.35 M109.2 -63.95 Q110.05 -65.1 111.4 -65.25 M88.9 -55.1 L93.85 -53.55 M111.5 -62.9 Q110.55 -62.35 110.05 -61.35 M119.0 -19.7 L121.25 -24.65 120.45 -25.25 118.95 -26.55 M125.3 -38.15 L122.3 -39.4 120.05 -39.85 118.35 -39.85 M125.75 -22.35 L127.15 -20.6 M125.75 -22.35 L126.9 -22.05 M121.25 -24.65 Q123.5 -23.0 125.75 -22.35 M114.8 25.2 L114.45 25.25 M109.35 15.6 L109.95 14.95 112.55 15.15 113.6 15.25 M109.25 15.8 L109.35 15.6 M105.95 18.65 L106.95 18.3 107.0 18.25 M105.95 18.65 L105.2 18.9 105.25 19.0 105.55 22.65 105.65 24.4 M110.3 20.05 L106.95 18.3 M110.4 20.1 L110.3 20.05 M110.4 20.1 L110.25 20.25 M115.0 15.35 L113.6 15.25 M114.8 25.2 L116.85 24.8 118.2 23.85 M106.6 25.8 L105.7 25.2 105.65 24.4 M106.6 25.8 L107.75 26.35 109.5 26.1 110.3 25.95 110.9 25.85 114.45 25.25 M45.45 2.2 Q46.15 4.3 45.45 6.3 M45.45 2.2 L45.05 1.15 Q45.2 -0.55 43.15 -1.85 M39.0 8.2 L39.95 7.95" fill="none" stroke="#fda893" stroke-linecap="round" stroke-linejoin="round" stroke-width="0.05"/>
    <path d="M43.15 -1.85 L57.9 -10.3 62.05 -11.0 68.75 -28.75 71.1 -35.1 Q72.2 -30.05 74.2 -26.05 74.15 -25.1 74.4 -24.2 L75.0 -21.2 75.1 -21.05 70.15 -10.6 68.7 -7.35 Q68.7 -6.05 67.55 -4.65 L66.9 -3.95 Q64.2 -0.95 60.55 0.45 54.7 1.35 48.8 3.1 M109.5 -46.25 L109.55 -45.9 M109.65 -45.9 L113.75 -44.05 113.7 -43.85 Q112.75 -38.8 113.25 -34.15 113.5 -30.05 115.05 -26.3 L115.1 -25.9 115.45 -23.6 Q116.9 -18.75 119.0 -19.7 M140.25 -18.4 L148.25 -6.9 152.1 -1.55 M152.0 -1.1 Q152.5 -0.25 152.6 1.05 151.1 3.85 145.6 8.35 L124.55 17.8 M116.35 28.3 L119.4 41.7 118.15 42.55 M100.4 50.6 L96.3 52.0 Q95.75 43.7 94.65 35.65 M67.25 33.75 Q66.45 32.0 66.55 30.7 L73.25 18.15 M79.15 -34.65 L79.45 -34.85 78.05 -33.3 76.2 -31.25 75.8 -30.8 Q74.35 -28.25 74.2 -26.05 M80.45 -35.75 L79.5 -34.9 79.15 -34.65 79.35 -34.95 M75.05 -21.15 L75.1 -21.05 75.4 -20.5 Q75.7 -19.2 77.0 -18.15 M76.4 9.65 Q77.25 7.1 78.55 4.75 L78.2 4.5 Q77.05 2.35 79.8 1.6 L80.3 1.95 83.5 -2.05 83.45 -2.15 83.25 -5.3 81.0 -13.2 80.85 -13.95 80.75 -14.75 M62.05 -11.0 L60.75 -7.6 M94.1 -47.7 L95.35 -47.4 95.75 -49.1 96.05 -49.55 M106.45 -47.9 L107.95 -48.4 M106.45 -47.9 L106.4 -47.75 M106.55 -45.45 L107.6 -45.9 M106.55 -45.45 L106.1 -45.15 105.8 -45.2 Q100.3 -43.25 97.8 -43.95 L94.3 -38.1 M96.1 -49.55 L96.25 -48.6 96.65 -47.95 Q98.65 -45.9 106.05 -47.85 L106.45 -47.9 M109.65 -45.9 L110.25 -42.35 M95.55 -46.65 L95.45 -47.15 95.4 -46.8 M95.45 -47.15 L95.35 -47.4 95.35 -47.15 M92.85 -47.2 L84.65 -39.5 M95.55 -46.65 L95.7 -45.8 Q96.15 -44.35 97.8 -43.95 M81.35 -15.95 L84.0 -15.7 Q89.8 -15.65 92.95 -13.0 L95.3 -11.0 Q96.2 -10.45 97.6 -9.95 L99.8 -9.5 M83.5 -2.05 L83.5 -2.15 M92.75 -9.05 L92.95 -9.05 M103.7 3.3 L108.4 0.7 107.45 -1.2 108.8 -3.85 108.8 -3.9 119.0 -19.65 119.0 -19.7 M115.45 -23.6 L115.5 -21.85 115.45 -21.65 114.6 -19.1 Q112.95 -14.3 108.25 -11.45 106.65 -10.6 105.0 -10.1 M127.15 -20.6 Q134.25 -18.2 140.25 -18.4 M127.15 -20.6 L131.6 -15.25 142.45 -1.95 146.1 2.65 M116.35 15.4 L116.3 15.45 M121.7 11.95 Q129.6 6.65 136.1 0.9 139.0 -0.95 142.45 -1.95 M109.7 3.2 L109.95 3.1 Q111.6 0.95 109.35 0.15 L108.4 0.7 M109.7 3.2 L104.8 6.15 Q100.5 8.7 96.15 10.65 L91.5 12.65 88.15 13.8 M113.6 15.25 Q112.85 9.05 109.7 3.2 M107.0 18.25 Q98.95 16.25 91.5 12.65 M107.0 18.25 L110.95 19.1 113.65 19.55 M113.75 17.15 L112.0 16.65 109.25 15.8 Q102.45 13.55 96.15 10.65 M87.55 10.6 L82.7 12.35 75.65 14.5 75.05 14.65 73.75 15.0 Q72.1 15.35 72.4 17.5 L73.7 17.3 80.95 15.9 Q84.55 15.05 88.15 13.8 M92.15 8.75 L87.55 10.6 78.55 4.75 M92.1 21.25 L93.0 25.8 93.65 29.4 94.65 35.65 M83.65 33.7 L84.85 30.55 85.8 28.1 88.6 20.9 M114.15 44.85 L118.15 42.55 M112.05 45.9 Q107.15 48.25 100.4 50.6 M80.3 1.95 Q86.0 5.7 92.15 8.75 98.0 6.3 103.7 3.3 M76.4 9.65 L76.1 10.55 M75.1 14.35 L75.05 14.65 M73.7 17.3 L73.25 18.15 M67.25 33.75 Q69.55 38.85 79.2 47.85 79.85 43.85 83.65 33.7" fill="none" stroke="#346c81" stroke-linecap="round" stroke-linejoin="round" stroke-width="0.05"/>
    <path d="M85.3 -47.3 L88.05 -54.2 M110.4 -56.5 Q109.75 -51.35 109.5 -46.25 M39.95 7.95 Q40.4 15.0 38.5 27.75 36.6 41.25 40.5 55.6 38.3 55.8 35.6 54.1 33.3 40.6 35.85 28.9 38.0 18.75 39.0 8.2 M77.2 -20.0 Q77.95 -28.4 80.45 -35.75 L81.45 -38.5 82.75 -41.55 85.3 -47.3 M77.0 -18.15 L77.2 -20.0 M80.75 -14.75 Q78.85 -15.2 76.95 -17.0 L77.0 -18.15 M89.25 -52.2 L87.65 -47.6 M109.85 -56.4 L110.55 -57.95 110.4 -56.5 M107.95 -48.4 Q108.7 -53.3 109.85 -56.4 M107.6 -45.9 L107.95 -48.4 M106.85 -35.0 Q107.05 -41.2 107.6 -45.9 M106.85 -35.0 L106.85 -34.95 Q106.3 -24.5 101.95 -14.2 L99.8 -9.5 99.4 -8.8 Q101.6 -8.2 104.7 -9.4 L105.0 -10.1 106.65 -15.05 Q109.3 -23.8 109.3 -32.15 L109.3 -33.45 Q109.1 -39.8 109.5 -46.25 M84.65 -39.5 Q81.6 -30.2 81.35 -19.95 M84.65 -39.5 L85.65 -42.2 87.65 -47.6 M80.75 -14.75 L81.4 -14.65 81.35 -15.95 81.35 -19.95 M114.65 46.75 L114.8 47.35 Q117.95 59.05 116.55 72.35 M112.05 72.35 Q114.65 58.95 112.1 46.1 L112.05 45.9 M114.15 44.85 L114.65 46.75 M109.5 26.1 Q109.35 33.05 112.05 45.9 M110.3 25.95 Q111.75 35.55 114.15 44.85" fill="none" stroke="#4b3d61" stroke-linecap="round" stroke-linejoin="round" stroke-width="0.05"/>
    <path d="M84.75 -62.95 L84.75 -62.75 Q80.75 -67.65 82.05 -74.7 L82.75 -78.0 M77.85 -70.35 Q83.6 -86.75 91.3 -90.65 94.6 -92.4 98.15 -91.85 100.9 -91.6 103.55 -90.15 L104.45 -90.25 Q106.4 -90.5 108.3 -90.3 117.25 -89.2 120.8 -75.15 M121.5 -65.0 L120.35 -66.45 120.15 -63.95 M113.85 -60.45 L112.9 -59.85 M103.7 -53.75 L106.6 -57.5 Q108.8 -61.25 109.15 -64.6" fill="none" stroke="#342134" stroke-linecap="round" stroke-linejoin="round" stroke-width="0.05"/>
    <path d="M87.15 -57.1 Q86.25 -59.55 85.85 -62.05 L85.55 -65.45 85.55 -68.15 85.65 -69.05 M73.25 18.15 L72.45 17.7 Q70.4 16.3 70.45 14.35 70.4 13.7 70.65 13.1 M74.4 10.1 L76.4 9.65 M94.8 -66.95 L92.95 -67.3 M99.85 -66.4 L97.45 -66.55 M90.05 -65.7 Q90.35 -65.95 90.95 -65.05 91.95 -63.6 92.25 -61.25 92.6 -58.95 96.75 -57.65 98.5 -57.1 99.95 -58.55 101.4 -60.05 102.6 -63.7 L102.8 -64.3 102.85 -64.5 103.3 -66.4 102.85 -66.4 M87.95 -69.65 L88.55 -69.2 Q88.65 -69.15 88.8 -69.05 L89.05 -68.85 89.5 -68.65 M87.95 -69.65 Q86.95 -70.45 86.25 -71.4 M90.4 -68.2 L89.5 -68.65 M90.45 -68.2 L91.6 -67.7 M89.5 -63.6 L89.6 -64.15 89.8 -65.25 Q89.85 -65.65 90.05 -65.7 M89.5 -63.6 L89.45 -63.25 89.35 -62.55 88.8 -60.75 M88.45 -59.75 L88.25 -59.15 87.3 -56.6 87.15 -57.1 M88.45 -59.75 L88.45 -59.85 88.8 -60.75" fill="none" stroke="#333333" stroke-linecap="round" stroke-linejoin="round" stroke-width="0.05"/>
    <path d="M120.75 -40.8 L120.9 -40.8" fill="none" stroke="#d7995e" stroke-linecap="round" stroke-linejoin="round" stroke-width="0.05"/>
    <path d="M131.8 25.75 Q149.85 28.0 167.6 35.5 170.65 38.35 165.9 39.1 145.5 36.35 130.75 29.5 M131.8 25.75 L131.6 27.65 131.0 29.1 130.75 29.5" fill="none" stroke="#0e171e" stroke-linecap="round" stroke-linejoin="round" stroke-width="0.05"/>
    <path d="M125.6 20.35 Q128.9 21.4 130.2 22.5 131.5 23.65 131.7 25.25 L131.8 25.75 M130.75 29.5 Q129.7 30.9 127.5 31.3 125.3 31.7 121.85 30.8 118.3 29.9 116.45 28.4 L116.35 28.3 M121.35 22.8 L124.4 23.65 Q126.75 26.05 123.6 27.5 L114.8 25.2 M114.45 25.25 Q114.65 26.85 116.35 28.3" fill="none" stroke="#464725" stroke-linecap="round" stroke-linejoin="round" stroke-width="0.05"/>
    <path d="M118.15 42.55 L120.45 58.7 120.8 62.3 120.95 64.95 121.45 72.35 M105.1 72.35 L104.35 69.85 100.4 50.6 M87.65 34.95 L80.7 47.0 78.45 50.5 76.75 52.95 66.4 68.0 65.25 69.55 M54.7 63.3 Q55.1 61.7 55.65 60.35 57.85 53.1 61.05 45.85 L67.25 33.75" fill="none" stroke="#000000" stroke-linecap="round" stroke-linejoin="round" stroke-width="0.05"/>
    <path d="M66.4 68.0 L66.55 72.35 M53.7 72.35 L53.9 66.7 54.7 63.3" fill="none" stroke="#272727" stroke-linecap="round" stroke-linejoin="round" stroke-width="0.05"/>
  </g>
</svg>
