<?xml version="1.0" encoding="UTF-8" standalone="no"?>
<svg xmlns:xlink="http://www.w3.org/1999/xlink" height="168.2px" width="114.35px" xmlns="http://www.w3.org/2000/svg">
  <g transform="matrix(1, 0, 0, 1, -37.9, 102.75)">
    <path d="M134.1 -3.2 Q139.25 0.15 143.5 6.8 152.2 20.45 152.25 39.65 152.2 54.15 147.25 65.45 L143.05 65.45 Q145.9 59.8 147.25 53.1 150.2 48.0 150.2 41.25 150.2 34.65 147.4 29.6 145.85 20.75 141.75 13.7 139.6 10.0 137.15 7.55 135.2 5.55 133.05 4.4 130.75 3.1 128.25 2.75 L127.0 2.65 Q131.05 -2.6 125.9 -6.3 L125.7 -6.45 127.9 -6.0 Q131.15 -5.2 134.1 -3.2" fill="#afafaf" fill-rule="evenodd" stroke="none"/>
    <path d="M94.45 25.15 Q96.5 14.95 101.65 6.8 L102.85 5.1 Q108.7 -3.25 116.1 -5.7 L117.65 -6.15 119.7 -6.55 122.65 -6.7 124.95 -6.6 125.7 -6.45 125.9 -6.3 Q131.05 -2.6 127.0 2.65 L126.1 2.6 123.2 2.85 Q120.5 3.4 118.1 5.0 116.75 5.85 115.5 7.05 112.75 9.6 110.35 13.7 109.5 15.1 108.8 16.65 106.95 20.45 105.85 24.75 104.8 28.45 104.3 32.55 103.85 36.5 103.85 40.8 L104.1 46.65 Q104.95 57.2 109.1 65.45 L98.0 65.45 Q96.2 61.45 95.1 57.05 93.8 51.95 93.35 46.35 93.05 43.1 93.05 39.65 93.05 36.35 93.35 33.25 93.65 29.0 94.45 25.15 M147.4 29.6 Q150.2 34.65 150.2 41.25 150.2 48.0 147.25 53.1 L146.1 54.8 Q143.85 58.0 141.05 59.45 138.8 60.55 136.25 60.6 L133.0 60.05 132.0 59.6 Q128.85 58.25 126.35 54.8 L125.35 53.2 124.5 51.6 Q123.05 48.55 122.55 45.0 L122.3 41.25 122.4 39.0 122.55 37.55 Q123.1 32.95 125.3 29.25 125.75 28.3 126.35 27.5 L127.15 26.5 Q129.35 23.8 132.0 22.65 L132.2 22.6 133.0 22.35 136.25 21.9 138.9 22.15 140.8 22.85 Q143.75 24.25 146.1 27.5 L147.4 29.6 M138.05 32.6 Q136.6 34.05 136.6 36.15 136.6 38.25 138.05 39.75 139.5 41.2 141.6 41.25 143.7 41.2 145.2 39.75 146.65 38.25 146.65 36.15 146.65 34.05 145.2 32.6 143.7 31.15 141.6 31.15 139.5 31.15 138.05 32.6" fill="#cccccc" fill-rule="evenodd" stroke="none"/>
    <path d="M74.0 -74.5 Q75.5 -75.55 78.95 -74.8 L83.15 -74.05 Q91.65 -72.05 96.6 -67.6 97.5 -62.85 98.35 -60.3 L96.3 -59.2 98.4 -51.25 Q96.45 -48.3 92.35 -46.35 L89.45 -45.25 Q85.8 -44.05 80.85 -43.45 79.3 -44.35 77.55 -46.35 L76.3 -47.8 75.9 -48.25 75.75 -48.5 74.35 -50.45 Q70.6 -55.8 71.55 -60.45 L73.0 -68.65 Q73.35 -72.1 73.95 -74.35 L74.0 -74.5 M103.6 -63.0 L104.05 -63.0 Q104.35 -63.3 104.75 -63.3 L105.1 -63.3 105.6 -63.15 Q105.1 -61.7 104.95 -60.3 L104.75 -60.35 103.45 -58.75 Q101.6 -58.5 101.4 -59.65 L101.45 -60.2 101.5 -60.35 101.65 -60.75 101.65 -60.85 102.05 -61.6 Q102.65 -62.55 103.6 -63.0 M74.1 -63.55 L74.05 -63.15 74.1 -63.05 Q74.4 -62.15 75.4 -60.45 L75.55 -60.2 75.6 -60.2 77.85 -60.2 Q78.95 -63.45 77.65 -66.0 75.2 -68.9 74.1 -63.55 M78.6 -69.3 Q74.3 -72.1 73.45 -67.45 74.55 -70.6 78.6 -69.3 M76.45 -56.7 L77.85 -60.2 76.45 -56.7 Q76.1 -55.2 77.05 -54.1 78.55 -53.6 81.8 -54.55 77.1 -54.75 76.45 -56.7 M90.9 -56.4 Q90.4 -63.0 85.45 -63.15 84.05 -60.75 83.8 -56.85 88.1 -55.05 90.9 -56.4 M86.05 -67.45 Q89.3 -66.65 93.55 -61.05 91.75 -67.75 86.05 -67.45 M85.75 -48.75 L82.65 -48.65 82.55 -48.65 Q79.95 -48.9 78.25 -50.2 79.95 -48.9 82.55 -48.65 L82.65 -48.65 85.75 -48.75" fill="#fededa" fill-rule="evenodd" stroke="none"/>
    <path d="M96.6 -67.6 Q91.65 -72.05 83.15 -74.05 L78.95 -74.8 Q75.5 -75.55 74.0 -74.5 73.2 -73.95 72.85 -73.0 71.6 -80.35 74.1 -81.6 74.5 -84.5 76.0 -85.45 L77.1 -85.9 79.55 -86.45 81.9 -86.3 Q100.5 -84.5 105.1 -65.55 L105.55 -63.5 105.6 -63.25 105.6 -63.15 105.1 -63.3 104.75 -63.3 Q104.35 -63.3 104.05 -63.0 L103.6 -63.0 Q103.1 -62.95 102.5 -62.45 L101.95 -61.95 101.9 -61.9 101.55 -62.4 Q99.85 -64.95 96.6 -67.6 M75.75 -48.5 L75.9 -48.25 76.3 -47.8 77.55 -46.35 Q79.3 -44.35 80.85 -43.45 88.6 -41.4 95.35 -45.3 L103.0 -45.9 103.45 -45.95 104.8 -46.2 Q109.75 -47.2 109.7 -48.65 L111.3 -36.95 110.9 -36.7 Q102.55 -31.05 89.8 -29.65 L84.75 -29.25 83.45 -29.6 Q80.9 -30.45 79.05 -31.65 78.25 -32.2 77.6 -32.8 75.3 -34.85 74.35 -37.7 75.3 -34.85 77.6 -32.8 78.25 -32.2 79.05 -31.65 80.9 -30.45 83.45 -29.6 L84.75 -29.25 89.8 -29.65 Q102.55 -31.05 110.9 -36.7 L110.6 -35.1 109.95 -32.75 109.6 -31.85 108.35 -28.8 106.95 -25.75 105.9 -24.0 105.7 -23.8 105.15 -23.2 Q102.45 -8.45 102.85 5.1 L101.65 6.8 Q96.5 14.95 94.45 25.15 L90.8 24.85 90.1 24.8 89.4 24.75 88.6 24.7 83.15 24.0 82.1 23.6 81.6 23.45 81.55 23.45 77.25 21.65 74.2 19.75 73.15 18.85 72.55 18.15 71.3 16.5 71.2 16.1 70.95 15.5 Q68.55 11.95 69.9 7.35 L71.55 1.05 71.55 -7.1 71.65 -9.7 71.65 -9.9 71.65 -9.7 71.4 -9.95 71.65 -9.9 71.2 -16.35 71.05 -21.7 Q71.05 -27.2 71.85 -30.5 L73.6 -37.4 Q73.85 -38.1 74.35 -37.7 L74.25 -37.9 75.05 -43.7 75.1 -44.35 75.75 -48.5 M92.15 -74.6 Q98.85 -70.7 103.4 -63.9 L103.85 -63.25 103.9 -63.15 104.05 -63.0 103.9 -63.15 103.85 -63.25 103.4 -63.9 Q98.85 -70.7 92.15 -74.6 M85.2 -79.45 Q81.5 -81.4 77.55 -81.7 L77.5 -81.7 74.1 -81.6 77.5 -81.7 77.55 -81.7 Q81.5 -81.4 85.2 -79.45 M71.75 -5.0 L71.85 -4.9 71.9 -4.9 71.75 -5.05 71.7 -5.05 71.7 -5.0 71.75 -5.0 M81.35 -2.7 L81.25 -2.7 81.35 -2.65 81.35 -2.7 M81.55 31.45 L87.1 32.8 89.9 33.0 89.95 46.4 89.95 48.5 90.1 65.45 88.45 64.0 Q87.3 63.3 86.3 63.65 L83.8 63.5 Q81.9 62.95 80.85 61.05 79.35 59.3 78.1 58.85 77.1 58.4 76.3 58.85 L76.0 49.85 76.3 58.85 74.8 57.95 74.6 51.8 74.25 38.25 74.0 28.25 Q77.05 30.1 81.55 31.45 M86.15 46.95 L86.3 63.65 86.15 46.95 M73.3 5.6 L73.25 5.6 73.3 5.7 73.3 5.6 M81.2 54.15 L80.85 61.05 81.2 54.15" fill="#96bebe" fill-rule="evenodd" stroke="none"/>
    <path d="M98.35 -60.3 Q97.5 -62.85 96.6 -67.6 99.85 -64.95 101.55 -62.4 L101.9 -61.9 101.95 -61.9 Q99.9 -61.25 99.45 -57.9 98.9 -58.55 98.35 -60.3 M105.6 -63.15 L105.6 -63.25 105.55 -63.5 105.1 -65.55 Q100.5 -84.5 81.9 -86.3 L79.55 -86.45 77.1 -85.9 76.0 -85.45 Q72.1 -85.0 68.7 -88.3 L77.15 -89.7 Q72.6 -92.65 69.15 -98.35 L78.9 -91.2 86.3 -93.6 Q82.6 -97.4 82.15 -102.75 L94.45 -85.15 116.35 -88.6 Q113.7 -85.5 108.3 -84.05 L99.75 -82.3 122.85 -78.75 Q119.05 -75.3 114.75 -75.6 L108.75 -75.6 118.75 -65.15 Q114.75 -65.3 113.5 -67.6 L113.5 -56.6 Q111.45 -57.55 109.9 -60.85 L106.45 -55.2 106.05 -54.55 Q104.6 -57.2 104.95 -60.3 105.1 -61.7 105.6 -63.15 M78.6 -69.3 Q74.55 -70.6 73.45 -67.45 74.3 -72.1 78.6 -69.3 M86.05 -67.45 Q91.75 -67.75 93.55 -61.05 89.3 -66.65 86.05 -67.45" fill="#592626" fill-rule="evenodd" stroke="none"/>
    <path d="M118.75 -65.15 L108.75 -75.6 114.75 -75.6 118.75 -65.15 M122.85 -78.75 L99.75 -82.3 108.3 -84.05 122.85 -78.75 M116.35 -88.6 L94.45 -85.15 82.15 -102.75 98.0 -91.65 116.35 -88.6 M86.3 -93.6 L78.9 -91.2 69.15 -98.35 86.3 -93.6" fill="#593426" fill-rule="evenodd" stroke="none"/>
    <path d="M77.25 -64.0 L77.25 -63.25 Q77.25 -62.5 76.9 -62.0 76.6 -61.45 76.2 -61.45 75.8 -61.45 75.5 -62.0 75.25 -62.55 75.3 -63.3 75.3 -64.0 75.6 -64.5 L75.85 -64.75 75.75 -64.45 Q75.7 -64.05 75.9 -63.75 76.15 -63.45 76.5 -63.45 76.85 -63.45 77.1 -63.75 L77.15 -63.9 77.25 -64.0 M88.05 -60.15 L88.1 -59.35 Q88.1 -58.5 87.65 -57.9 87.25 -57.3 86.7 -57.3 86.2 -57.3 85.8 -57.9 85.45 -58.55 85.45 -59.4 85.5 -60.2 85.9 -60.75 L86.2 -61.1 86.05 -60.65 Q86.05 -60.2 86.35 -59.85 86.65 -59.55 87.1 -59.55 87.5 -59.55 87.85 -59.85 L88.05 -60.15" fill="#000000" fill-rule="evenodd" stroke="none"/>
    <path d="M77.25 -64.0 L77.15 -63.9 77.1 -63.75 Q76.85 -63.45 76.5 -63.45 76.15 -63.45 75.9 -63.75 75.7 -64.05 75.75 -64.45 L75.85 -64.75 76.0 -65.1 Q76.25 -65.4 76.6 -65.4 L77.15 -65.1 77.3 -64.45 77.25 -64.0 M74.1 -63.05 L74.1 -63.55 Q75.2 -68.9 77.65 -66.0 78.95 -63.45 77.85 -60.2 L75.6 -60.2 75.4 -60.45 Q74.4 -62.15 74.1 -63.05 M75.3 -65.3 Q74.8 -64.45 74.8 -63.25 74.7 -62.0 75.1 -61.15 75.5 -60.25 76.15 -60.25 76.75 -60.25 77.25 -61.15 77.7 -62.0 77.75 -63.25 77.8 -64.45 77.4 -65.3 77.0 -66.2 76.4 -66.2 75.75 -66.2 75.3 -65.3 M58.45 -22.3 Q58.0 -26.9 60.1 -32.1 62.4 -38.0 66.7 -41.05 68.75 -42.65 70.8 -43.05 L70.95 -43.3 71.2 -43.65 72.25 -43.9 74.5 -44.2 74.8 -44.25 75.1 -44.35 75.05 -43.7 74.25 -37.9 74.35 -37.7 Q73.85 -38.1 73.6 -37.4 L71.85 -30.5 Q71.05 -27.2 71.05 -21.7 L71.2 -16.35 71.65 -9.9 71.4 -9.95 71.4 -10.0 69.85 -12.15 68.35 -14.45 67.75 -15.55 Q66.85 -17.2 66.3 -18.85 L66.0 -18.8 62.85 -18.55 62.35 -18.8 61.5 -19.15 61.3 -19.25 Q60.2 -19.8 59.5 -20.6 58.85 -21.35 58.45 -22.3 M102.85 5.1 Q102.45 -8.45 105.15 -23.2 L105.7 -23.8 105.9 -24.0 106.95 -25.75 108.35 -28.8 109.6 -31.85 111.6 -30.5 112.25 -30.1 Q113.15 -31.3 114.5 -31.95 L115.9 -32.5 117.4 -32.75 Q120.15 -32.8 123.25 -30.75 128.25 -27.7 131.5 -21.4 134.3 -15.8 134.35 -10.65 133.9 -9.1 132.85 -7.95 L131.65 -7.0 131.4 -6.85 130.5 -6.4 130.0 -6.15 127.9 -6.0 125.7 -6.45 124.95 -6.6 122.75 -7.55 122.2 -7.9 Q119.8 -9.45 117.55 -12.25 L115.9 -14.5 Q113.05 -18.6 110.5 -24.75 L110.45 -24.35 Q110.1 -18.65 113.35 -12.4 L113.55 -12.1 Q114.9 -9.45 116.55 -7.35 L116.1 -5.7 Q108.7 -3.25 102.85 5.1 M98.0 65.45 L95.1 65.45 95.1 57.05 Q96.2 61.45 98.0 65.45 M90.45 52.65 L90.55 65.45 90.1 65.45 73.4 65.45 65.35 65.45 67.2 55.1 Q68.2 49.7 69.15 36.3 L72.9 35.9 74.25 38.25 74.6 51.8 73.4 65.45 74.6 51.8 74.8 57.95 76.3 58.85 Q77.1 58.4 78.1 58.85 79.35 59.3 80.85 61.05 81.9 62.95 83.8 63.5 L86.3 63.65 Q87.3 63.3 88.45 64.0 L90.1 65.45 89.95 48.5 90.45 52.65 M65.0 -29.25 Q64.35 -24.0 66.3 -18.85 64.35 -24.0 65.0 -29.25 M56.0 -1.3 L56.55 -4.6 59.6 -4.75 Q65.05 -4.5 66.5 -0.3 L65.6 3.35 Q65.35 6.7 60.5 10.3 L53.1 10.7 51.0 9.45 Q53.1 3.85 55.6 0.3 L55.9 -0.05 55.75 -0.15 56.0 -1.3 M71.7 -5.05 L71.75 -5.05 71.9 -4.9 71.85 -4.9 71.75 -5.0 71.7 -5.05 M86.2 -61.1 L86.4 -61.35 87.15 -61.65 87.9 -61.35 88.2 -60.65 88.05 -60.15 87.85 -59.85 Q87.5 -59.55 87.1 -59.55 86.65 -59.55 86.35 -59.85 86.05 -60.2 86.05 -60.65 L86.2 -61.1 M86.65 -56.05 Q87.45 -56.0 88.1 -56.95 88.7 -57.95 88.75 -59.35 88.8 -60.75 88.35 -61.7 87.8 -62.7 86.95 -62.65 86.1 -62.7 85.5 -61.7 84.9 -60.75 84.85 -59.35 84.75 -57.95 85.3 -56.95 85.8 -56.0 86.65 -56.05 M90.9 -56.4 Q88.1 -55.05 83.8 -56.85 84.05 -60.75 85.45 -63.15 90.4 -63.0 90.9 -56.4" fill="#ffffff" fill-rule="evenodd" stroke="none"/>
    <path d="M75.85 -64.75 L75.6 -64.5 Q75.3 -64.0 75.3 -63.3 75.25 -62.55 75.5 -62.0 75.8 -61.45 76.2 -61.45 76.6 -61.45 76.9 -62.0 77.25 -62.5 77.25 -63.25 L77.25 -64.0 77.3 -64.45 77.15 -65.1 76.6 -65.4 Q76.25 -65.4 76.0 -65.1 L75.85 -64.75 M75.3 -65.3 Q75.75 -66.2 76.4 -66.2 77.0 -66.2 77.4 -65.3 77.8 -64.45 77.75 -63.25 77.7 -62.0 77.25 -61.15 76.75 -60.25 76.15 -60.25 75.5 -60.25 75.1 -61.15 74.7 -62.0 74.8 -63.25 74.8 -64.45 75.3 -65.3 M88.05 -60.15 L88.2 -60.65 87.9 -61.35 87.15 -61.65 86.4 -61.35 86.2 -61.1 85.9 -60.75 Q85.5 -60.2 85.45 -59.4 85.45 -58.55 85.8 -57.9 86.2 -57.3 86.7 -57.3 87.25 -57.3 87.65 -57.9 88.1 -58.5 88.1 -59.35 L88.05 -60.15 M86.65 -56.05 Q85.8 -56.0 85.3 -56.95 84.75 -57.95 84.85 -59.35 84.9 -60.75 85.5 -61.7 86.1 -62.7 86.95 -62.65 87.8 -62.7 88.35 -61.7 88.8 -60.75 88.75 -59.35 88.7 -57.95 88.1 -56.95 87.45 -56.0 86.65 -56.05" fill="#0099ff" fill-rule="evenodd" stroke="none"/>
    <path d="M80.85 -43.45 Q85.8 -44.05 89.45 -45.25 L92.35 -46.35 Q96.45 -48.3 98.4 -51.25 L96.3 -59.2 98.35 -60.3 Q98.9 -58.55 99.45 -57.9 99.9 -61.25 101.95 -61.9 L102.5 -62.45 Q103.1 -62.95 103.6 -63.0 102.65 -62.55 102.05 -61.6 L101.65 -60.85 101.65 -60.75 101.5 -60.35 101.45 -60.2 101.4 -59.65 Q101.6 -58.5 103.45 -58.75 L104.75 -60.35 104.95 -60.3 Q104.6 -57.2 106.05 -54.55 L106.45 -55.2 106.4 -55.0 106.3 -54.85 105.9 -54.0 104.05 -52.75 103.8 -51.3 103.65 -51.35 103.0 -45.9 95.35 -45.3 Q88.6 -41.4 80.85 -43.45 M101.9 -61.9 L101.95 -61.95 101.95 -61.9 101.9 -61.9 M76.45 -56.7 Q77.1 -54.75 81.8 -54.55 78.55 -53.6 77.05 -54.1 76.1 -55.2 76.45 -56.7 M102.85 -54.75 L102.85 -55.35 Q102.8 -56.15 102.9 -56.85 L103.0 -57.2 103.0 -57.4 Q103.15 -58.15 103.45 -58.75 103.15 -58.15 103.0 -57.4 L103.0 -57.2 102.9 -56.85 Q103.85 -56.5 104.5 -55.5 103.85 -56.5 102.9 -56.85 102.8 -56.15 102.85 -55.35 L102.85 -54.75 M95.35 -45.3 L97.1 -46.35 Q100.35 -48.6 103.35 -52.25 L104.05 -52.75 103.35 -52.25 Q100.35 -48.6 97.1 -46.35 L95.35 -45.3" fill="#fbc8c6" fill-rule="evenodd" stroke="none"/>
    <path d="M38.25 -12.5 L39.8 -12.05 42.15 -10.95 Q43.45 -10.25 44.05 -10.0 L43.9 -9.8 42.65 -7.8 43.9 -9.8 44.05 -10.0 Q46.25 -10.25 48.25 -9.0 50.2 -7.8 51.4 -7.45 54.05 -7.85 56.35 -6.7 L56.9 -6.4 56.55 -4.6 56.0 -1.3 Q54.05 -1.65 49.45 -4.0 48.15 -4.75 46.55 -5.65 L42.65 -7.8 40.95 -8.85 38.2 -10.4 37.9 -10.6 37.9 -12.15 38.15 -12.4 38.25 -12.5 38.15 -12.4 37.9 -12.15 37.9 -12.8 38.25 -12.5 M51.4 -7.45 L51.15 -7.1 49.45 -4.0 51.15 -7.1 51.4 -7.45 M81.6 23.45 L82.1 23.6 83.15 24.0 88.6 24.7 89.4 24.75 90.1 24.8 90.8 24.85 94.45 25.15 Q93.65 29.0 93.35 33.25 L90.6 33.05 89.9 33.0 87.1 32.8 81.55 31.45 Q79.8 26.65 81.3 23.9 L81.6 23.45" fill="#684942" fill-rule="evenodd" stroke="none"/>
    <path d="M37.9 -10.6 L38.2 -10.4 40.95 -8.85 42.65 -7.8 Q40.45 -4.0 42.3 2.4 L42.65 3.55 42.3 2.4 Q40.45 -4.0 42.65 -7.8 L46.55 -5.65 Q48.15 -4.75 49.45 -4.0 54.05 -1.65 56.0 -1.3 L55.75 -0.15 55.9 -0.05 55.6 0.3 Q53.1 3.85 51.0 9.45 L51.0 9.5 50.5 9.35 Q49.15 9.4 46.7 7.6 L46.35 5.75 Q45.95 1.4 49.45 -4.0 45.95 1.4 46.35 5.75 L46.7 7.6 Q43.3 5.0 42.65 3.55 39.6 1.4 37.9 -0.15 L37.9 -10.6 M70.95 15.5 L71.2 16.1 71.3 16.5 72.55 18.15 73.15 18.85 74.2 19.75 77.25 21.65 81.55 23.45 81.6 23.45 81.3 23.9 Q79.8 26.65 81.55 31.45 77.05 30.1 74.0 28.25 L72.65 27.35 70.0 24.95 69.55 24.4 Q68.4 19.55 70.3 16.55 L70.5 16.1 70.95 15.5" fill="#956c5e" fill-rule="evenodd" stroke="none"/>
    <path d="M56.9 -6.4 L59.2 -19.0 58.7 -21.0 58.45 -22.3 Q58.85 -21.35 59.5 -20.6 60.2 -19.8 61.3 -19.25 L61.5 -19.15 62.35 -18.8 62.85 -18.55 66.0 -18.8 66.3 -18.85 Q66.85 -17.2 67.75 -15.55 L68.35 -14.45 69.85 -12.15 66.5 -0.3 Q65.05 -4.5 59.6 -4.75 L56.55 -4.6 56.9 -6.4 M109.6 -31.85 L109.95 -32.75 110.6 -35.1 110.9 -36.7 112.7 -35.85 113.8 -35.1 117.4 -32.75 115.9 -32.5 114.5 -31.95 Q113.15 -31.3 112.25 -30.1 L111.6 -30.5 109.6 -31.85 M134.35 -10.65 L134.3 -9.15 Q134.2 -7.35 133.75 -5.95 L133.65 -5.75 133.5 -5.4 134.1 -3.2 Q131.15 -5.2 127.9 -6.0 L130.0 -6.15 130.5 -6.4 131.4 -6.85 131.65 -7.0 132.85 -7.95 Q133.9 -9.1 134.35 -10.65 M93.35 46.35 L92.65 46.4 90.7 46.4 90.3 46.4 90.45 52.65 89.95 48.5 89.95 46.4 89.9 33.0 90.6 33.05 93.35 33.25 Q93.05 36.35 93.05 39.65 93.05 43.1 93.35 46.35 M69.15 36.3 Q69.45 31.25 70.35 27.5 L70.0 24.95 72.65 27.35 74.0 28.25 74.25 38.25 72.9 35.9 69.15 36.3 M60.0 -17.25 L59.6 -18.0 59.55 -18.15 59.2 -19.0 59.55 -18.15 59.6 -18.0 60.0 -17.25 M117.65 -6.15 L116.55 -7.35 117.65 -6.15 116.1 -5.7 116.55 -7.35 Q114.9 -9.45 113.55 -12.1 L113.35 -12.4 Q110.1 -18.65 110.45 -24.35 L110.5 -24.75 Q113.05 -18.6 115.9 -14.5 L117.55 -12.25 Q119.8 -9.45 122.2 -7.9 L122.75 -7.55 124.95 -6.6 122.65 -6.7 119.7 -6.55 117.65 -6.15 M89.95 46.4 L90.3 46.4 89.95 46.4 M70.8 29.75 L70.35 27.5 70.8 29.75" fill="#f2f2f2" fill-rule="evenodd" stroke="none"/>
    <path d="M71.75 -5.0 L71.7 -5.0 71.7 -5.05 71.75 -5.0" fill="#8bc087" fill-rule="evenodd" stroke="none"/>
    <path d="M101.95 -61.95 L102.5 -62.45 101.95 -61.9 101.95 -61.95" fill="#000033" fill-rule="evenodd" stroke="none"/>
    <path d="M109.7 -48.65 Q109.75 -47.2 104.8 -46.2 L103.45 -45.95 103.0 -45.9 103.65 -51.35 103.8 -51.3 104.75 -51.15 Q109.75 -50.1 109.7 -48.65" fill="#385858" fill-rule="evenodd" stroke="none"/>
    <path d="M81.35 -2.7 L81.35 -2.65 81.25 -2.7 81.35 -2.7" fill="#cecece" fill-rule="evenodd" stroke="none"/>
    <path d="M143.05 65.45 L133.05 65.45 118.1 65.45 109.1 65.45 Q104.95 57.2 104.1 46.65 L103.85 40.8 Q103.85 36.5 104.3 32.55 104.8 28.45 105.85 24.75 106.95 20.45 108.8 16.65 109.5 15.1 110.35 13.7 112.75 9.6 115.5 7.05 116.75 5.85 118.1 5.0 120.5 3.4 123.2 2.85 L126.1 2.6 127.0 2.65 128.25 2.75 Q130.75 3.1 133.05 4.4 135.2 5.55 137.15 7.55 139.6 10.0 141.75 13.7 145.85 20.75 147.4 29.6 L146.1 27.5 Q143.75 24.25 140.8 22.85 L138.9 22.15 Q137.75 21.3 136.5 20.75 134.8 20.05 133.0 19.9 L131.65 19.8 Q129.35 19.8 127.3 20.6 124.5 21.65 122.15 24.15 121.2 25.05 120.4 26.2 119.05 28.1 118.1 30.25 L118.1 5.0 118.1 30.25 Q116.2 34.45 115.9 39.55 115.8 40.6 115.85 41.75 115.8 48.15 118.1 53.2 119.05 55.3 120.4 57.2 L122.15 59.35 Q126.25 63.7 131.65 63.75 L133.0 63.6 Q134.8 63.45 136.5 62.7 138.9 61.65 141.05 59.45 143.85 58.0 146.1 54.8 L147.25 53.1 Q145.9 59.8 143.05 65.45 M133.05 4.4 L133.0 19.9 133.05 4.4 M118.1 65.45 L118.1 53.2 118.1 65.45 M133.05 65.45 L133.0 63.6 133.05 65.45" fill="#9f8577" fill-rule="evenodd" stroke="none"/>
    <path d="M118.1 30.25 Q119.05 28.1 120.4 26.2 121.2 25.05 122.15 24.15 124.5 21.65 127.3 20.6 129.35 19.8 131.65 19.8 L133.0 19.9 Q134.8 20.05 136.5 20.75 137.75 21.3 138.9 22.15 L136.25 21.9 133.0 22.35 132.2 22.6 132.0 22.65 Q129.35 23.8 127.15 26.5 L126.35 27.5 Q125.75 28.3 125.3 29.25 123.1 32.95 122.55 37.55 L122.4 39.0 122.3 41.25 122.55 45.0 Q123.05 48.55 124.5 51.6 L125.35 53.2 126.35 54.8 Q128.85 58.25 132.0 59.6 L133.0 60.05 136.25 60.6 Q138.8 60.55 141.05 59.45 138.9 61.65 136.5 62.7 134.8 63.45 133.0 63.6 L131.65 63.75 Q126.25 63.7 122.15 59.35 L120.4 57.2 Q119.05 55.3 118.1 53.2 115.8 48.15 115.85 41.75 115.8 40.6 115.9 39.55 116.2 34.45 118.1 30.25" fill="#aaaaaa" fill-rule="evenodd" stroke="none"/>
    <path d="M138.05 32.6 Q139.5 31.15 141.6 31.15 143.7 31.15 145.2 32.6 146.65 34.05 146.65 36.15 146.65 38.25 145.2 39.75 143.7 41.2 141.6 41.25 139.5 41.2 138.05 39.75 136.6 38.25 136.6 36.15 136.6 34.05 138.05 32.6" fill="#f5f4f7" fill-rule="evenodd" stroke="none"/>
    <path d="M73.3 5.6 L73.3 5.7 73.25 5.6 73.3 5.6" fill="#eebf5a" fill-rule="evenodd" stroke="none"/>
    <path d="M94.45 25.15 Q96.5 14.95 101.65 6.8 L102.85 5.1 Q108.7 -3.25 116.1 -5.7 L117.65 -6.15 119.7 -6.55 122.65 -6.7 124.95 -6.6 125.7 -6.45 127.9 -6.0 Q131.15 -5.2 134.1 -3.2 139.25 0.15 143.5 6.8 152.2 20.45 152.25 39.65 152.2 54.15 147.25 65.45 M95.1 57.05 Q93.8 51.95 93.35 46.35 M127.0 2.65 L128.25 2.75 Q130.75 3.1 133.05 4.4 135.2 5.55 137.15 7.55 139.6 10.0 141.75 13.7 145.85 20.75 147.4 29.6 150.2 34.65 150.2 41.25 150.2 48.0 147.25 53.1 145.9 59.8 143.05 65.45 M127.0 2.65 L126.1 2.6 123.2 2.85 Q120.5 3.4 118.1 5.0 116.75 5.85 115.5 7.05 112.75 9.6 110.35 13.7 109.5 15.1 108.8 16.65 106.95 20.45 105.85 24.75 104.8 28.45 104.3 32.55 103.85 36.5 103.85 40.8 L104.1 46.65 Q104.95 57.2 109.1 65.45 M118.1 30.25 Q119.05 28.1 120.4 26.2 121.2 25.05 122.15 24.15 124.5 21.65 127.3 20.6 129.35 19.8 131.65 19.8 L133.0 19.9 Q134.8 20.05 136.5 20.75 137.75 21.3 138.9 22.15 L136.25 21.9 133.0 22.35 132.2 22.6 132.0 22.65 Q129.35 23.8 127.15 26.5 L126.35 27.5 Q125.75 28.3 125.3 29.25 123.1 32.95 122.55 37.55 L122.4 39.0 122.3 41.25 122.55 45.0 Q123.05 48.55 124.5 51.6 L125.35 53.2 126.35 54.8 Q128.85 58.25 132.0 59.6 L133.0 60.05 136.25 60.6 Q138.8 60.55 141.05 59.45 143.85 58.0 146.1 54.8 L147.25 53.1 M138.9 22.15 L140.8 22.85 Q143.75 24.25 146.1 27.5 L147.4 29.6 M93.35 33.25 Q93.65 29.0 94.45 25.15 M93.35 33.25 Q93.05 36.35 93.05 39.65 93.05 43.1 93.35 46.35 M118.1 53.2 Q115.8 48.15 115.85 41.75 115.8 40.6 115.9 39.55 116.2 34.45 118.1 30.25 M133.0 63.6 L131.65 63.75 Q126.25 63.7 122.15 59.35 L120.4 57.2 Q119.05 55.3 118.1 53.2 M95.1 57.05 Q96.2 61.45 98.0 65.45 M141.05 59.45 Q138.9 61.65 136.5 62.7 134.8 63.45 133.0 63.6" fill="none" stroke="#666666" stroke-linecap="round" stroke-linejoin="round" stroke-width="0.05"/>
    <path d="M96.6 -67.6 Q91.65 -72.05 83.15 -74.05 L78.95 -74.8 Q75.5 -75.55 74.0 -74.5 73.2 -73.95 72.85 -73.0 71.6 -80.35 74.1 -81.6 L77.5 -81.7 77.55 -81.7 Q81.5 -81.4 85.2 -79.45 M96.6 -67.6 Q99.85 -64.95 101.55 -62.4 L101.9 -61.9 101.95 -61.95 102.5 -62.45 Q103.1 -62.95 103.6 -63.0 L104.05 -63.0 103.9 -63.15 103.85 -63.25 103.4 -63.9 Q98.85 -70.7 92.15 -74.6 M76.0 -85.45 L77.1 -85.9 79.55 -86.45 81.9 -86.3 Q100.5 -84.5 105.1 -65.55 L105.55 -63.5 105.6 -63.25 105.6 -63.15 105.1 -63.3 104.75 -63.3 Q104.35 -63.3 104.05 -63.0 M76.0 -85.45 Q74.5 -84.5 74.1 -81.6 M71.2 -43.65 L72.25 -43.9 74.5 -44.2 74.8 -44.25 75.1 -44.35 75.75 -48.5 M75.05 -43.7 L74.25 -37.9 74.35 -37.7 Q75.3 -34.85 77.6 -32.8 78.25 -32.2 79.05 -31.65 80.9 -30.45 83.45 -29.6 L84.75 -29.25 89.8 -29.65 Q102.55 -31.05 110.9 -36.7 L111.3 -36.95 109.7 -48.65 Q109.75 -47.2 104.8 -46.2 L103.45 -45.95 103.0 -45.9 95.35 -45.3 M74.35 -37.7 Q73.85 -38.1 73.6 -37.4 L71.85 -30.5 Q71.05 -27.2 71.05 -21.7 L71.2 -16.35 71.65 -9.9 71.65 -9.7 71.55 -7.1 71.55 1.05 69.9 7.35 Q68.55 11.95 70.95 15.5 L71.2 16.1 71.3 16.5 72.55 18.15 73.15 18.85 74.2 19.75 77.25 21.65 81.55 23.45 81.6 23.45 82.1 23.6 83.15 24.0 88.6 24.7 89.4 24.75 90.1 24.8 90.8 24.85 94.45 25.15 M102.85 5.1 Q102.45 -8.45 105.15 -23.2 L105.7 -23.8 105.9 -24.0 106.95 -25.75 108.35 -28.8 109.6 -31.85 109.95 -32.75 110.6 -35.1 110.9 -36.7 M71.4 -10.0 L71.4 -9.95 71.65 -9.7 M71.7 -5.05 L71.75 -5.05 71.9 -4.9 71.85 -4.9 71.75 -5.0 71.7 -5.0 71.7 -5.05 M103.8 -51.3 L103.65 -51.35 M103.8 -51.3 L104.75 -51.15 Q109.75 -50.1 109.7 -48.65 M81.35 -2.7 L81.25 -2.7 81.35 -2.65 81.35 -2.7 M89.95 48.5 L89.95 46.4 89.9 33.0 M80.85 61.05 Q81.9 62.95 83.8 63.5 L86.3 63.65 86.15 46.95 M86.3 63.65 Q87.3 63.3 88.45 64.0 L90.1 65.45 89.95 48.5 M73.3 5.6 L73.3 5.7 73.25 5.6 73.3 5.6 M74.25 38.25 L74.0 28.25 M74.6 51.8 L74.25 38.25 M76.3 58.85 Q77.1 58.4 78.1 58.85 79.35 59.3 80.85 61.05 L81.2 54.15 M76.3 58.85 L76.0 49.85 M74.6 51.8 L74.8 57.95 76.3 58.85" fill="none" stroke="#548584" stroke-linecap="round" stroke-linejoin="round" stroke-width="0.05"/>
    <path d="M74.0 -74.5 L73.95 -74.35 Q73.35 -72.1 73.0 -68.65 L71.55 -60.45 Q70.6 -55.8 74.35 -50.45 L75.75 -48.5 75.9 -48.25 76.3 -47.8 77.55 -46.35 Q79.3 -44.35 80.85 -43.45 M74.1 -63.55 L74.05 -63.15 74.1 -63.05 Q74.4 -62.15 75.4 -60.45 M75.6 -60.2 L77.85 -60.2 Q78.95 -63.45 77.65 -66.0 75.2 -68.9 74.1 -63.55 M77.85 -60.2 L76.45 -56.7 M81.8 -54.55 Q78.55 -53.6 77.05 -54.1 76.1 -55.2 76.45 -56.7 M75.6 -60.2 L75.55 -60.2 75.4 -60.45 M95.35 -45.3 Q88.6 -41.4 80.85 -43.45 M90.9 -56.4 Q90.4 -63.0 85.45 -63.15 84.05 -60.75 83.8 -56.85 88.1 -55.05 90.9 -56.4 M103.45 -58.75 L104.75 -60.35 104.95 -60.3 M103.6 -63.0 Q102.65 -62.55 102.05 -61.6 L101.65 -60.85 M103.45 -58.75 Q103.15 -58.15 103.0 -57.4 L103.0 -57.2 102.9 -56.85 Q103.85 -56.5 104.5 -55.5 M104.05 -52.75 L103.35 -52.25 Q100.35 -48.6 97.1 -46.35 L95.35 -45.3 M102.9 -56.85 Q102.8 -56.15 102.85 -55.35 L102.85 -54.75 M106.45 -55.2 L106.4 -55.0 106.3 -54.85 105.9 -54.0 104.05 -52.75 103.8 -51.3 M78.25 -50.2 Q79.95 -48.9 82.55 -48.65 L82.65 -48.65 85.75 -48.75" fill="none" stroke="#ed8e78" stroke-linecap="round" stroke-linejoin="round" stroke-width="0.05"/>
    <path d="M98.35 -60.3 Q97.5 -62.85 96.6 -67.6 M105.6 -63.15 Q105.1 -61.7 104.95 -60.3 104.6 -57.2 106.05 -54.55 L106.45 -55.2 109.9 -60.85 Q111.45 -57.55 113.5 -56.6 L113.5 -67.6 Q114.75 -65.3 118.75 -65.15 L114.75 -75.6 Q119.05 -75.3 122.85 -78.75 L108.3 -84.05 Q113.7 -85.5 116.35 -88.6 L98.0 -91.65 82.15 -102.75 Q82.6 -97.4 86.3 -93.6 L69.15 -98.35 Q72.6 -92.65 77.15 -89.7 L68.7 -88.3 Q72.1 -85.0 76.0 -85.45 M78.6 -69.3 Q74.55 -70.6 73.45 -67.45 74.3 -72.1 78.6 -69.3 M101.95 -61.9 Q99.9 -61.25 99.45 -57.9 98.9 -58.55 98.35 -60.3 M86.05 -67.45 Q89.3 -66.65 93.55 -61.05 91.75 -67.75 86.05 -67.45" fill="none" stroke="#3c1a1a" stroke-linecap="round" stroke-linejoin="round" stroke-width="0.05"/>
    <path d="M44.05 -10.0 Q43.45 -10.25 42.15 -10.95 L39.8 -12.05 38.25 -12.5 38.15 -12.4 37.9 -12.15 M42.65 -7.8 L43.9 -9.8 44.05 -10.0 Q46.25 -10.25 48.25 -9.0 50.2 -7.8 51.4 -7.45 54.05 -7.85 56.35 -6.7 L56.9 -6.4 M38.25 -12.5 L37.9 -12.8 M37.9 -0.15 Q39.6 1.4 42.65 3.55 L42.3 2.4 Q40.45 -4.0 42.65 -7.8 M49.45 -4.0 L51.15 -7.1 51.4 -7.45 M70.0 24.95 L69.55 24.4 Q68.4 19.55 70.3 16.55 L70.5 16.1 70.95 15.5 M55.9 -0.05 L55.6 0.3 Q53.1 3.85 51.0 9.45 M49.45 -4.0 Q45.95 1.4 46.35 5.75 L46.7 7.6 Q49.15 9.4 50.5 9.35 L51.0 9.5 51.0 9.45 M81.55 31.45 L87.1 32.8 89.9 33.0 90.6 33.05 93.35 33.25 M42.65 3.55 Q43.3 5.0 46.7 7.6 M74.0 28.25 L72.65 27.35 70.0 24.95 M74.0 28.25 Q77.05 30.1 81.55 31.45" fill="none" stroke="#3f2c27" stroke-linecap="round" stroke-linejoin="round" stroke-width="0.05"/>
    <path d="M56.9 -6.4 L59.2 -19.0 58.7 -21.0 58.45 -22.3 Q58.0 -26.9 60.1 -32.1 62.4 -38.0 66.7 -41.05 68.75 -42.65 70.8 -43.05 M70.95 -43.3 L71.2 -43.65 M110.9 -36.7 L112.7 -35.85 113.8 -35.1 117.4 -32.75 Q120.15 -32.8 123.25 -30.75 128.25 -27.7 131.5 -21.4 134.3 -15.8 134.35 -10.65 L134.3 -9.15 Q134.2 -7.35 133.75 -5.95 L133.65 -5.75 133.5 -5.4 134.1 -3.2 M95.1 65.45 L95.1 57.05 M93.35 46.35 L92.65 46.4 90.7 46.4 90.3 46.4 90.45 52.65 90.55 65.45 M65.35 65.45 L67.2 55.1 Q68.2 49.7 69.15 36.3 69.45 31.25 70.35 27.5 L70.0 24.95 M66.3 -18.85 Q64.35 -24.0 65.0 -29.25 M59.2 -19.0 L59.55 -18.15 59.6 -18.0 60.0 -17.25 M56.55 -4.6 L56.0 -1.3 55.75 -0.15 M51.0 9.45 L53.1 10.7 60.5 10.3 Q65.35 6.7 65.6 3.35 L66.5 -0.3 69.85 -12.15 71.4 -10.0 M56.55 -4.6 L56.9 -6.4 M69.85 -12.15 L68.35 -14.45 67.75 -15.55 Q66.85 -17.2 66.3 -18.85 M117.4 -32.75 L115.9 -32.5 M116.55 -7.35 L117.65 -6.15 M113.55 -12.1 Q114.9 -9.45 116.55 -7.35 M90.3 46.4 L89.95 46.4 M70.35 27.5 L70.8 29.75 M73.4 65.45 L74.6 51.8" fill="none" stroke="#a0a0a0" stroke-linecap="round" stroke-linejoin="round" stroke-width="0.05"/>
    <path d="M102.5 -62.45 L101.95 -61.9 101.95 -61.95" fill="none" stroke="#584338" stroke-linecap="round" stroke-linejoin="round" stroke-width="0.05"/>
    <path d="M118.1 5.0 L118.1 30.25 M133.0 19.9 L133.05 4.4 M118.1 53.2 L118.1 65.45 M133.0 63.6 L133.05 65.45" fill="none" stroke="#604b44" stroke-linecap="round" stroke-linejoin="round" stroke-width="0.05"/>
  </g>
</svg>
