<?xml version="1.0" encoding="UTF-8" standalone="no"?>
<svg xmlns:xlink="http://www.w3.org/1999/xlink" height="166.1px" width="108.1px" xmlns="http://www.w3.org/2000/svg">
  <g transform="matrix(1, 0, 0, 1, -40.25, 104.1)">
    <path d="M94.3 -100.2 L97.0 -102.65 99.05 -94.5 Q104.9 -96.3 110.75 -94.5 L108.3 -88.95 Q114.15 -88.35 118.6 -85.4 L117.5 -84.1 105.25 -84.1 Q106.25 -89.55 104.9 -91.25 L96.0 -93.0 94.3 -100.2 M112.6 -78.65 Q117.0 -73.35 120.3 -59.35 115.8 -69.3 106.5 -80.4 L105.9 -81.1 106.25 -81.1 Q109.65 -80.8 112.6 -78.65 M107.2 -63.7 Q107.05 -57.75 104.7 -54.05 L106.45 -75.65 Q107.1 -72.5 107.2 -67.35 L107.2 -63.7 M64.45 -91.95 Q71.45 -96.35 81.3 -95.7 84.4 -94.8 85.85 -92.8 71.85 -94.05 64.45 -91.95 M77.25 -104.1 Q84.9 -102.45 90.15 -96.4 91.7 -94.2 92.2 -91.85 L92.45 -90.25 91.05 -91.95 Q84.25 -99.9 77.25 -104.1 M93.85 -57.2 Q97.15 -59.4 99.05 -65.75 100.65 -71.45 101.15 -80.4 103.55 -75.0 103.25 -70.3 103.05 -67.45 101.9 -64.85 L101.75 -64.5 Q100.45 -61.8 98.7 -60.0 96.6 -57.95 93.85 -57.2" fill="#774913" fill-rule="evenodd" stroke="none"/>
    <path d="M130.25 -4.55 Q135.35 -1.2 139.65 5.45 148.35 19.1 148.35 38.3 148.35 51.5 144.25 62.0 L140.15 62.0 Q142.25 57.25 143.35 51.75 146.3 46.65 146.35 39.9 146.3 33.3 143.5 28.25 141.95 19.4 137.9 12.35 135.7 8.65 133.3 6.2 131.3 4.2 129.2 3.05 126.85 1.75 124.4 1.4 L123.1 1.3 Q127.15 -3.95 122.05 -7.65 L121.8 -7.8 124.0 -7.35 Q127.25 -6.55 130.25 -4.55" fill="#afafaf" fill-rule="evenodd" stroke="none"/>
    <path d="M104.25 62.0 L93.25 62.0 Q92.05 58.95 91.2 55.7 89.9 50.6 89.45 45.0 89.15 41.75 89.2 38.3 89.15 35.0 89.4 31.9 89.75 27.65 90.55 23.8 92.6 13.6 97.8 5.45 L98.95 3.75 Q104.8 -4.6 112.25 -7.05 L113.75 -7.5 115.85 -7.9 118.75 -8.05 121.1 -7.95 121.8 -7.8 122.05 -7.65 Q127.15 -3.95 123.1 1.3 L122.2 1.25 119.35 1.5 Q116.65 2.05 114.2 3.65 L111.65 5.7 Q108.85 8.25 106.45 12.35 L104.95 15.3 Q103.1 19.1 101.95 23.4 100.95 27.1 100.45 31.2 99.95 35.15 100.0 39.45 99.95 42.4 100.2 45.3 100.95 54.55 104.25 62.0 M143.5 28.25 Q146.3 33.3 146.35 39.9 146.3 46.65 143.35 51.75 L142.25 53.45 Q139.95 56.65 137.15 58.1 134.9 59.2 132.4 59.25 L129.1 58.7 128.1 58.25 Q124.95 56.9 122.5 53.45 L121.45 51.85 120.65 50.25 Q119.15 47.2 118.65 43.65 L118.45 39.9 118.55 37.65 118.65 36.2 Q119.25 31.6 121.4 27.9 L122.5 26.15 123.25 25.15 Q125.45 22.45 128.1 21.3 L128.35 21.25 129.1 21.0 132.4 20.55 135.05 20.8 136.95 21.5 Q139.9 22.9 142.25 26.15 L143.5 28.25 M132.7 34.8 Q132.7 36.9 134.2 38.4 135.65 39.85 137.75 39.9 139.85 39.85 141.35 38.4 142.8 36.9 142.8 34.8 142.8 32.7 141.35 31.25 139.85 29.8 137.75 29.8 135.65 29.8 134.2 31.25 132.7 32.7 132.7 34.8" fill="#cccccc" fill-rule="evenodd" stroke="none"/>
    <path d="M94.3 -100.2 L96.0 -93.0 104.9 -91.25 Q106.25 -89.55 105.25 -84.1 L117.5 -84.1 112.6 -78.65 Q109.65 -80.8 106.25 -81.1 L105.9 -81.1 106.5 -80.4 Q115.8 -69.3 120.3 -59.35 L111.75 -64.9 Q113.95 -57.25 111.75 -50.5 L107.2 -63.7 107.2 -67.35 Q107.1 -72.5 106.45 -75.65 L104.7 -54.05 103.35 -58.75 103.3 -58.95 102.35 -62.4 101.75 -64.5 101.9 -64.85 Q103.05 -67.45 103.25 -70.3 103.55 -75.0 101.15 -80.4 100.65 -71.45 99.05 -65.75 97.15 -59.4 93.85 -57.2 L94.15 -62.6 93.9 -67.85 93.3 -72.4 Q92.1 -78.55 89.4 -84.2 84.55 -87.0 78.0 -87.65 L75.7 -87.8 73.2 -87.25 72.15 -86.8 Q70.6 -85.85 70.25 -82.95 68.5 -82.15 68.55 -78.55 L58.25 -73.05 Q62.1 -83.65 71.15 -89.55 L64.45 -91.95 Q71.85 -94.05 85.85 -92.8 84.4 -94.8 81.3 -95.7 L77.25 -104.1 Q84.25 -99.9 91.05 -91.95 L92.45 -90.25 92.2 -91.85 Q91.7 -94.2 90.15 -96.4 L94.3 -100.2 M73.7 -68.65 Q70.45 -72.45 69.55 -70.2 70.3 -74.8 73.7 -68.65 M81.85 -65.8 Q93.1 -70.25 90.4 -62.95 89.95 -68.0 81.85 -65.8" fill="#6b3214" fill-rule="evenodd" stroke="none"/>
    <path d="M105.85 -50.0 L107.4 -38.3 107.0 -38.05 Q98.7 -32.4 85.9 -31.0 L80.85 -30.6 79.55 -30.95 Q77.05 -31.8 75.2 -33.0 L73.7 -34.15 Q71.4 -36.2 70.45 -39.05 71.4 -36.2 73.7 -34.15 L75.2 -33.0 Q77.05 -31.8 79.55 -30.95 L80.85 -30.6 85.9 -31.0 Q98.7 -32.4 107.0 -38.05 L106.75 -36.45 106.05 -34.1 105.7 -33.2 104.5 -30.15 103.1 -27.1 102.0 -25.35 101.85 -25.15 101.3 -24.55 Q98.55 -9.8 98.95 3.75 L97.8 5.45 Q92.6 13.6 90.55 23.8 L86.95 23.5 86.2 23.45 85.55 23.4 84.75 23.35 79.3 22.65 78.2 22.25 77.7 22.1 77.65 22.1 Q75.25 21.25 73.4 20.3 71.6 19.35 70.35 18.4 L69.25 17.5 68.65 16.8 67.4 15.15 67.3 14.75 67.1 14.15 Q64.65 10.6 66.0 6.0 L67.7 -0.3 67.7 -8.45 67.75 -11.05 67.55 -11.3 67.75 -11.25 67.3 -17.7 67.2 -23.05 Q67.2 -28.55 68.0 -31.85 L69.7 -38.75 Q69.95 -39.45 70.45 -39.05 L70.4 -39.25 71.2 -45.05 71.25 -45.7 71.9 -50.0 Q71.9 -49.55 72.4 -49.15 L72.65 -44.95 Q73.8 -41.95 77.15 -41.9 L77.2 -41.9 80.8 -42.65 90.5 -46.5 90.6 -46.6 99.15 -47.25 99.6 -47.3 100.95 -47.55 Q105.9 -48.55 105.85 -50.0 M86.2 62.0 L82.45 62.0 79.5 62.0 Q77.9 61.35 77.0 59.7 75.45 57.95 74.2 57.5 73.2 57.05 72.4 57.5 L70.9 56.6 70.75 50.45 70.4 36.9 70.1 26.9 Q73.15 28.75 77.65 30.1 L83.2 31.45 86.05 31.65 86.1 45.05 86.1 47.15 86.2 62.0 M69.65 -75.5 Q69.2 -75.05 69.0 -74.35 68.55 -76.8 68.55 -78.55 68.5 -82.15 70.25 -82.95 70.6 -85.85 72.15 -86.8 L73.2 -87.25 75.7 -87.8 78.0 -87.65 Q84.55 -87.0 89.4 -84.2 92.1 -78.55 93.3 -72.4 L93.9 -67.85 92.75 -68.95 Q87.75 -73.4 79.3 -75.4 L75.05 -76.15 Q71.2 -77.0 69.65 -75.5 M81.3 -80.8 Q77.65 -82.75 73.65 -83.05 L73.6 -83.05 70.25 -82.95 73.6 -83.05 73.65 -83.05 Q77.65 -82.75 81.3 -80.8 M67.75 -11.05 L67.75 -11.25 67.75 -11.05 M67.85 -6.35 L68.0 -6.25 68.05 -6.25 67.85 -6.4 67.8 -6.4 67.8 -6.35 67.85 -6.35 M77.35 -4.05 L77.5 -4.0 77.5 -4.05 77.35 -4.05 M88.3 -75.95 L93.3 -72.4 88.3 -75.95 M82.25 45.6 L82.45 62.0 82.25 45.6 M69.4 4.25 L69.45 4.35 69.45 4.25 69.4 4.25 M72.15 48.5 L72.4 57.5 72.15 48.5 M77.3 52.8 L77.0 59.7 77.3 52.8" fill="#96bebe" fill-rule="evenodd" stroke="none"/>
    <path d="M72.2 -50.7 Q71.8 -53.05 71.05 -55.05 67.9 -58.1 68.8 -62.45 L69.85 -68.8 Q67.65 -70.45 69.65 -75.5 71.2 -77.0 75.05 -76.15 L79.3 -75.4 Q87.75 -73.4 92.75 -68.95 L93.9 -67.85 94.15 -62.6 91.05 -61.1 93.3 -56.5 Q94.15 -53.0 90.65 -49.55 89.1 -48.1 86.7 -46.6 82.95 -44.25 77.2 -41.9 L77.15 -41.9 Q73.8 -41.95 72.65 -44.95 L72.4 -49.15 72.35 -49.55 72.2 -50.7 M101.75 -64.5 L102.35 -62.4 101.4 -62.55 Q100.75 -62.45 100.3 -61.75 L99.6 -60.1 98.7 -60.0 Q100.45 -61.8 101.75 -64.5 M73.5 -66.85 L73.5 -67.6 Q71.25 -69.95 70.25 -64.9 L70.15 -64.5 70.25 -64.4 Q70.6 -63.35 71.25 -62.5 71.55 -61.75 72.1 -61.6 L73.1 -60.9 73.25 -62.35 73.4 -64.15 73.5 -66.85 M73.6 -56.1 Q72.8 -56.75 72.8 -58.05 L73.0 -60.6 73.1 -60.9 73.0 -60.6 72.8 -58.05 Q72.8 -56.75 73.6 -56.1 74.7 -55.25 77.2 -55.65 77.65 -57.15 77.0 -57.2 76.3 -56.15 73.6 -56.1 M80.8 -51.3 L78.9 -51.75 78.85 -51.75 76.8 -52.45 Q74.75 -53.2 73.4 -54.25 74.75 -53.2 76.8 -52.45 L78.85 -51.75 78.9 -51.75 80.8 -51.3 M73.7 -68.65 Q70.3 -74.8 69.55 -70.2 70.45 -72.45 73.7 -68.65 M81.85 -65.8 Q89.95 -68.0 90.4 -62.95 93.1 -70.25 81.85 -65.8 M81.6 -64.5 Q80.2 -62.1 79.9 -58.2 84.2 -56.4 87.05 -57.75 86.55 -64.35 81.6 -64.5" fill="#dbb78a" fill-rule="evenodd" stroke="none"/>
    <path d="M113.55 -34.1 Q116.25 -34.15 119.4 -32.1 124.4 -29.05 127.6 -22.75 130.45 -17.15 130.45 -12.0 130.05 -10.45 128.95 -9.3 L127.75 -8.35 127.55 -8.2 126.65 -7.75 126.15 -7.5 124.0 -7.35 121.8 -7.8 121.1 -7.95 Q119.95 -8.3 118.9 -8.9 L118.3 -9.25 Q115.9 -10.8 113.65 -13.6 L112.0 -15.85 Q109.2 -19.95 106.6 -26.1 L106.55 -25.7 Q106.25 -20.0 109.5 -13.75 L109.65 -13.45 Q111.0 -10.8 112.7 -8.7 L112.25 -7.05 Q104.8 -4.6 98.95 3.75 98.55 -9.8 101.3 -24.55 L101.85 -25.15 102.0 -25.35 103.1 -27.1 104.5 -30.15 105.7 -33.2 107.75 -31.85 108.35 -31.45 Q109.25 -32.65 110.6 -33.3 L112.0 -33.85 113.55 -34.1 M93.25 62.0 L91.25 62.0 91.2 55.7 Q92.05 58.95 93.25 62.0 M86.6 51.3 L86.6 62.0 86.2 62.0 86.1 47.15 86.6 51.3 M79.5 62.0 L69.7 62.0 61.85 62.0 63.3 53.75 Q64.3 48.35 65.3 34.95 L69.05 34.55 70.4 36.9 70.75 50.45 70.9 56.6 72.4 57.5 Q73.2 57.05 74.2 57.5 75.45 57.95 77.0 59.7 77.9 61.35 79.5 62.0 M67.55 -11.3 L67.55 -11.35 65.95 -13.5 64.5 -15.8 63.85 -16.9 62.4 -20.2 62.15 -20.15 59.0 -19.9 58.45 -20.15 57.65 -20.5 57.4 -20.6 55.6 -21.95 Q54.95 -22.7 54.6 -23.65 54.1 -28.25 56.2 -33.45 58.55 -39.35 62.8 -42.4 64.9 -44.0 66.9 -44.4 L67.1 -44.65 67.3 -45.0 68.35 -45.25 70.6 -45.55 70.9 -45.6 71.25 -45.7 71.2 -45.05 70.4 -39.25 70.45 -39.05 Q69.95 -39.45 69.7 -38.75 L68.0 -31.85 Q67.2 -28.55 67.2 -23.05 L67.3 -17.7 67.75 -11.25 67.55 -11.3 M62.65 -1.65 L61.75 2.0 Q61.5 5.35 56.6 8.95 L49.25 9.35 47.1 8.1 Q49.2 2.5 51.7 -1.05 L52.0 -1.4 51.9 -1.5 52.1 -2.65 52.7 -5.95 55.7 -6.1 Q61.15 -5.85 62.65 -1.65 M70.25 -64.9 Q71.25 -69.95 73.5 -67.6 L73.5 -66.85 Q73.1 -67.55 72.55 -67.55 71.9 -67.55 71.4 -66.65 70.95 -65.8 70.9 -64.6 70.85 -63.35 71.25 -62.5 70.6 -63.35 70.25 -64.4 L70.25 -64.9 M73.25 -62.35 L73.1 -60.9 72.1 -61.6 72.25 -61.6 Q72.85 -61.65 73.25 -62.35 M71.95 -66.1 L72.15 -66.45 Q72.35 -66.75 72.7 -66.75 L73.25 -66.45 73.45 -65.8 73.4 -65.35 73.25 -65.25 73.2 -65.1 Q72.95 -64.8 72.65 -64.8 72.25 -64.8 72.05 -65.1 71.8 -65.4 71.85 -65.8 L71.95 -66.1 M61.1 -30.6 Q60.5 -25.35 62.4 -20.2 60.5 -25.35 61.1 -30.6 M67.8 -6.4 L67.85 -6.4 68.05 -6.25 68.0 -6.25 67.85 -6.35 67.8 -6.4 M84.2 -61.5 L83.95 -61.2 Q83.65 -60.9 83.2 -60.9 82.75 -60.9 82.5 -61.2 82.15 -61.55 82.15 -62.0 L82.3 -62.45 82.55 -62.7 83.3 -63.0 84.0 -62.7 84.35 -62.0 84.2 -61.5 M83.05 -64.0 Q82.25 -64.05 81.65 -63.05 81.0 -62.1 80.95 -60.7 80.9 -59.3 81.4 -58.3 81.95 -57.35 82.75 -57.4 83.6 -57.35 84.25 -58.3 84.8 -59.3 84.85 -60.7 84.95 -62.1 84.45 -63.05 83.9 -64.05 83.05 -64.0 M81.6 -64.5 Q86.55 -64.35 87.05 -57.75 84.2 -56.4 79.9 -58.2 80.2 -62.1 81.6 -64.5 M70.75 50.45 L69.7 62.0 70.75 50.45" fill="#ffffff" fill-rule="evenodd" stroke="none"/>
    <path d="M73.4 -65.35 L73.4 -64.6 73.05 -63.35 Q72.7 -62.8 72.3 -62.8 71.9 -62.8 71.65 -63.35 71.35 -63.9 71.4 -64.65 71.4 -65.35 71.75 -65.85 L71.95 -66.1 71.85 -65.8 Q71.8 -65.4 72.05 -65.1 72.25 -64.8 72.65 -64.8 72.95 -64.8 73.2 -65.1 L73.25 -65.25 73.4 -65.35 M82.3 -62.45 L82.15 -62.0 Q82.15 -61.55 82.5 -61.2 82.75 -60.9 83.2 -60.9 83.65 -60.9 83.95 -61.2 L84.2 -61.5 84.25 -60.7 Q84.2 -59.85 83.8 -59.25 83.35 -58.65 82.85 -58.65 82.3 -58.65 81.95 -59.25 81.55 -59.9 81.6 -60.75 81.6 -61.55 82.05 -62.1 L82.3 -62.45" fill="#000000" fill-rule="evenodd" stroke="none"/>
    <path d="M71.25 -62.5 Q70.85 -63.35 70.9 -64.6 70.95 -65.8 71.4 -66.65 71.9 -67.55 72.55 -67.55 73.1 -67.55 73.5 -66.85 L73.4 -64.15 73.25 -62.35 Q72.85 -61.65 72.25 -61.6 L72.1 -61.6 Q71.55 -61.75 71.25 -62.5 M73.4 -65.35 L73.45 -65.8 73.25 -66.45 72.7 -66.75 Q72.35 -66.75 72.15 -66.45 L71.95 -66.1 71.75 -65.85 Q71.4 -65.35 71.4 -64.65 71.35 -63.9 71.65 -63.35 71.9 -62.8 72.3 -62.8 72.7 -62.8 73.05 -63.35 L73.4 -64.6 73.4 -65.35 M82.3 -62.45 L82.05 -62.1 Q81.6 -61.55 81.6 -60.75 81.55 -59.9 81.95 -59.25 82.3 -58.65 82.85 -58.65 83.35 -58.65 83.8 -59.25 84.2 -59.85 84.25 -60.7 L84.2 -61.5 84.35 -62.0 84.0 -62.7 83.3 -63.0 82.55 -62.7 82.3 -62.45 M83.05 -64.0 Q83.9 -64.05 84.45 -63.05 84.95 -62.1 84.85 -60.7 84.8 -59.3 84.25 -58.3 83.6 -57.35 82.75 -57.4 81.95 -57.35 81.4 -58.3 80.9 -59.3 80.95 -60.7 81.0 -62.1 81.65 -63.05 82.25 -64.05 83.05 -64.0" fill="#0000ff" fill-rule="evenodd" stroke="none"/>
    <path d="M99.95 -52.65 L100.9 -52.5 Q105.9 -51.45 105.85 -50.0 105.9 -48.55 100.95 -47.55 L99.6 -47.3 99.15 -47.25 99.75 -52.7 99.95 -52.65 M71.9 -50.0 Q71.9 -50.35 72.2 -50.7 L72.35 -49.55 72.4 -49.15 Q71.9 -49.55 71.9 -50.0" fill="#385858" fill-rule="evenodd" stroke="none"/>
    <path d="M103.2 -58.4 L102.0 -55.35 100.15 -54.1 99.95 -52.65 99.75 -52.7 99.15 -47.25 90.6 -46.6 90.5 -46.5 80.8 -42.65 77.2 -41.9 Q82.95 -44.25 86.7 -46.6 89.1 -48.1 90.65 -49.55 94.15 -53.0 93.3 -56.5 L91.05 -61.1 94.15 -62.6 93.85 -57.2 Q96.6 -57.95 98.7 -60.0 L99.6 -60.1 100.3 -61.75 Q100.75 -62.45 101.4 -62.55 L102.35 -62.4 103.3 -58.95 103.2 -58.4 M73.6 -56.1 Q76.3 -56.15 77.0 -57.2 77.65 -57.15 77.2 -55.65 74.7 -55.25 73.6 -56.1 M90.6 -46.6 L94.7 -49.55 99.5 -53.6 100.15 -54.1 99.5 -53.6 94.7 -49.55 90.6 -46.6 M98.95 -56.1 L99.05 -58.2 99.6 -60.1 99.05 -58.2 Q99.95 -57.85 100.6 -56.85 99.95 -57.85 99.05 -58.2 L98.95 -56.1" fill="#cd9f74" fill-rule="evenodd" stroke="none"/>
    <path d="M40.25 -8.3 L40.25 -11.35 Q42.4 -11.6 44.35 -10.35 46.3 -9.15 47.5 -8.8 50.15 -9.2 52.45 -8.05 L53.0 -7.75 52.7 -5.95 52.1 -2.65 Q50.15 -3.0 45.6 -5.35 L42.65 -7.0 40.25 -8.3 M47.5 -8.8 L47.3 -8.45 45.6 -5.35 47.3 -8.45 47.5 -8.8 M90.55 23.8 Q89.75 27.65 89.4 31.9 L86.7 31.7 86.05 31.65 83.2 31.45 77.65 30.1 Q75.9 25.35 77.45 22.55 L77.7 22.1 78.2 22.25 79.3 22.65 84.75 23.35 85.55 23.4 86.2 23.45 86.95 23.5 90.55 23.8" fill="#684942" fill-rule="evenodd" stroke="none"/>
    <path d="M66.1 23.6 L65.65 23.05 Q64.55 18.2 66.4 15.2 L66.65 14.75 67.1 14.15 67.3 14.75 67.4 15.15 68.65 16.8 69.25 17.5 70.35 18.4 Q71.6 19.35 73.4 20.3 75.25 21.25 77.65 22.1 L77.7 22.1 77.45 22.55 Q75.9 25.35 77.65 30.1 73.15 28.75 70.1 26.9 L68.75 26.0 66.1 23.6 M47.1 8.1 L47.1 8.15 46.6 8.0 Q45.25 8.05 42.85 6.25 L40.25 4.1 40.25 -8.3 42.65 -7.0 45.6 -5.35 Q50.15 -3.0 52.1 -2.65 L51.9 -1.5 52.0 -1.4 51.7 -1.05 Q49.2 2.5 47.1 8.1 M42.85 6.25 L42.5 4.4 Q42.05 0.05 45.6 -5.35 42.05 0.05 42.5 4.4 L42.85 6.25" fill="#956c5e" fill-rule="evenodd" stroke="none"/>
    <path d="M107.0 -38.05 L108.8 -37.2 109.95 -36.45 113.55 -34.1 112.0 -33.85 110.6 -33.3 Q109.25 -32.65 108.35 -31.45 L107.75 -31.85 105.7 -33.2 106.05 -34.1 106.75 -36.45 107.0 -38.05 M130.45 -12.0 L130.4 -10.5 Q130.3 -8.7 129.85 -7.3 L129.8 -7.1 129.65 -6.75 130.25 -4.55 Q127.25 -6.55 124.0 -7.35 L126.15 -7.5 126.65 -7.75 127.55 -8.2 127.75 -8.35 128.95 -9.3 Q130.05 -10.45 130.45 -12.0 M89.45 45.0 L88.8 45.05 86.8 45.05 86.45 45.05 86.6 51.3 86.1 47.15 86.1 45.05 86.45 45.05 86.1 45.05 86.05 31.65 86.7 31.7 89.4 31.9 Q89.15 35.0 89.2 38.3 89.15 41.75 89.45 45.0 M65.3 34.95 Q65.6 29.9 66.45 26.15 L66.1 23.6 68.75 26.0 70.1 26.9 70.4 36.9 69.05 34.55 65.3 34.95 M65.95 -13.5 L62.65 -1.65 Q61.15 -5.85 55.7 -6.1 L52.7 -5.95 53.0 -7.75 55.3 -20.3 54.8 -22.35 54.6 -23.65 Q54.95 -22.7 55.6 -21.95 L57.4 -20.6 57.65 -20.5 58.45 -20.15 59.0 -19.9 62.15 -20.15 62.4 -20.2 63.85 -16.9 64.5 -15.8 65.95 -13.5 M56.1 -18.6 L55.7 -19.35 55.65 -19.5 55.3 -20.3 55.65 -19.5 55.7 -19.35 56.1 -18.6 M109.65 -13.45 L109.5 -13.75 Q106.25 -20.0 106.55 -25.7 L106.6 -26.1 Q109.2 -19.95 112.0 -15.85 L113.65 -13.6 Q115.9 -10.8 118.3 -9.25 L118.9 -8.9 Q119.95 -8.3 121.1 -7.95 L118.75 -8.05 115.85 -7.9 113.75 -7.5 112.25 -7.05 112.7 -8.7 Q111.0 -10.8 109.65 -13.45 M113.75 -7.5 L112.7 -8.7 113.75 -7.5 M66.9 28.4 L66.45 26.15 66.9 28.4" fill="#f2f2f2" fill-rule="evenodd" stroke="none"/>
    <path d="M67.8 -6.4 L67.85 -6.35 67.8 -6.35 67.8 -6.4" fill="#8bc087" fill-rule="evenodd" stroke="none"/>
    <path d="M77.35 -4.05 L77.5 -4.05 77.5 -4.0 77.35 -4.05" fill="#cecece" fill-rule="evenodd" stroke="none"/>
    <path d="M103.35 -58.75 L103.2 -58.4 103.3 -58.95 103.35 -58.75" fill="#ffd0ae" fill-rule="evenodd" stroke="none"/>
    <path d="M140.15 62.0 L130.65 62.0 132.6 61.35 Q135.05 60.3 137.15 58.1 139.95 56.65 142.25 53.45 L143.35 51.75 Q142.25 57.25 140.15 62.0 M124.75 62.0 L114.2 62.0 104.25 62.0 Q100.95 54.55 100.2 45.3 99.95 42.4 100.0 39.45 99.95 35.15 100.45 31.2 100.95 27.1 101.95 23.4 103.1 19.1 104.95 15.3 L106.45 12.35 Q108.85 8.25 111.65 5.7 L114.2 3.65 Q116.65 2.05 119.35 1.5 L122.2 1.25 123.1 1.3 124.4 1.4 Q126.85 1.75 129.2 3.05 131.3 4.2 133.3 6.2 135.7 8.65 137.9 12.35 141.95 19.4 143.5 28.25 L142.25 26.15 Q139.9 22.9 136.95 21.5 L135.05 20.8 Q133.85 19.95 132.6 19.4 130.95 18.7 129.1 18.55 L127.75 18.45 Q125.45 18.45 123.45 19.25 120.6 20.3 118.25 22.8 L116.5 24.85 Q115.15 26.75 114.2 28.9 L114.2 3.65 114.2 28.9 Q112.35 33.1 112.0 38.2 L111.95 40.4 Q111.95 46.8 114.2 51.85 L114.2 62.0 114.2 51.85 Q115.15 53.95 116.5 55.85 L118.25 58.0 Q121.2 61.1 124.75 62.0 M129.2 3.05 L129.1 18.55 129.2 3.05" fill="#9f8577" fill-rule="evenodd" stroke="none"/>
    <path d="M130.65 62.0 L124.75 62.0 Q121.2 61.1 118.25 58.0 L116.5 55.85 Q115.15 53.95 114.2 51.85 111.95 46.8 111.95 40.4 L112.0 38.2 Q112.35 33.1 114.2 28.9 115.15 26.75 116.5 24.85 L118.25 22.8 Q120.6 20.3 123.45 19.25 125.45 18.45 127.75 18.45 L129.1 18.55 Q130.95 18.7 132.6 19.4 133.85 19.95 135.05 20.8 L132.4 20.55 129.1 21.0 128.35 21.25 128.1 21.3 Q125.45 22.45 123.25 25.15 L122.5 26.15 121.4 27.9 Q119.25 31.6 118.65 36.2 L118.55 37.65 118.45 39.9 118.65 43.65 Q119.15 47.2 120.65 50.25 L121.45 51.85 122.5 53.45 Q124.95 56.9 128.1 58.25 L129.1 58.7 132.4 59.25 Q134.9 59.2 137.15 58.1 135.05 60.3 132.6 61.35 L130.65 62.0" fill="#aaaaaa" fill-rule="evenodd" stroke="none"/>
    <path d="M132.7 34.8 Q132.7 32.7 134.2 31.25 135.65 29.8 137.75 29.8 139.85 29.8 141.35 31.25 142.8 32.7 142.8 34.8 142.8 36.9 141.35 38.4 139.85 39.85 137.75 39.9 135.65 39.85 134.2 38.4 132.7 36.9 132.7 34.8" fill="#f5f4f7" fill-rule="evenodd" stroke="none"/>
    <path d="M69.4 4.25 L69.45 4.25 69.45 4.35 69.4 4.25" fill="#eebf5a" fill-rule="evenodd" stroke="none"/>
    <path d="M117.5 -84.1 L118.6 -85.4 Q114.15 -88.35 108.3 -88.95 L110.75 -94.5 Q104.9 -96.3 99.05 -94.5 L97.0 -102.65 94.3 -100.2 M117.5 -84.1 L112.6 -78.65 Q117.0 -73.35 120.3 -59.35 L111.75 -64.9 Q113.95 -57.25 111.75 -50.5 L107.2 -63.7 Q107.05 -57.75 104.7 -54.05 L103.35 -58.75 M68.55 -78.55 L58.25 -73.05 Q62.1 -83.65 71.15 -89.55 L64.45 -91.95 Q71.45 -96.35 81.3 -95.7 L77.25 -104.1 Q84.9 -102.45 90.15 -96.4 L94.3 -100.2 M89.4 -84.2 Q92.1 -78.55 93.3 -72.4 L93.9 -67.85 94.15 -62.6 93.85 -57.2 M101.75 -64.5 L102.35 -62.4 103.3 -58.95 103.35 -58.75 M73.7 -68.65 Q70.45 -72.45 69.55 -70.2 70.3 -74.8 73.7 -68.65 M81.85 -65.8 Q89.95 -68.0 90.4 -62.95 93.1 -70.25 81.85 -65.8 M98.7 -60.0 Q96.6 -57.95 93.85 -57.2 M98.7 -60.0 Q100.45 -61.8 101.75 -64.5" fill="none" stroke="#3f1010" stroke-linecap="round" stroke-linejoin="round" stroke-width="0.05"/>
    <path d="M130.25 -4.55 Q135.35 -1.2 139.65 5.45 148.35 19.1 148.35 38.3 148.35 51.5 144.25 62.0 M91.2 55.7 Q89.9 50.6 89.45 45.0 M121.1 -7.95 L121.8 -7.8 124.0 -7.35 Q127.25 -6.55 130.25 -4.55 M121.1 -7.95 L118.75 -8.05 115.85 -7.9 113.75 -7.5 112.25 -7.05 Q104.8 -4.6 98.95 3.75 L97.8 5.45 Q92.6 13.6 90.55 23.8 89.75 27.65 89.4 31.9 89.15 35.0 89.2 38.3 89.15 41.75 89.45 45.0 M123.1 1.3 L124.4 1.4 Q126.85 1.75 129.2 3.05 131.3 4.2 133.3 6.2 135.7 8.65 137.9 12.35 141.95 19.4 143.5 28.25 146.3 33.3 146.35 39.9 146.3 46.65 143.35 51.75 142.25 57.25 140.15 62.0 M123.1 1.3 L122.2 1.25 119.35 1.5 Q116.65 2.05 114.2 3.65 L111.65 5.7 Q108.85 8.25 106.45 12.35 L104.95 15.3 Q103.1 19.1 101.95 23.4 100.95 27.1 100.45 31.2 99.95 35.15 100.0 39.45 99.95 42.4 100.2 45.3 100.95 54.55 104.25 62.0 M114.2 28.9 Q115.15 26.75 116.5 24.85 L118.25 22.8 Q120.6 20.3 123.45 19.25 125.45 18.45 127.75 18.45 L129.1 18.55 Q130.95 18.7 132.6 19.4 133.85 19.95 135.05 20.8 L132.4 20.55 129.1 21.0 128.35 21.25 128.1 21.3 Q125.45 22.45 123.25 25.15 L122.5 26.15 121.4 27.9 Q119.25 31.6 118.65 36.2 L118.55 37.65 118.45 39.9 118.65 43.65 Q119.15 47.2 120.65 50.25 L121.45 51.85 122.5 53.45 Q124.95 56.9 128.1 58.25 L129.1 58.7 132.4 59.25 Q134.9 59.2 137.15 58.1 139.95 56.65 142.25 53.45 L143.35 51.75 M135.05 20.8 L136.95 21.5 Q139.9 22.9 142.25 26.15 L143.5 28.25 M114.2 51.85 Q111.95 46.8 111.95 40.4 L112.0 38.2 Q112.35 33.1 114.2 28.9 M114.2 51.85 Q115.15 53.95 116.5 55.85 L118.25 58.0 Q121.2 61.1 124.75 62.0 M91.2 55.7 Q92.05 58.95 93.25 62.0 M130.65 62.0 L132.6 61.35 Q135.05 60.3 137.15 58.1" fill="none" stroke="#666666" stroke-linecap="round" stroke-linejoin="round" stroke-width="0.05"/>
    <path d="M99.95 -52.65 L100.9 -52.5 Q105.9 -51.45 105.85 -50.0 L107.4 -38.3 107.0 -38.05 106.75 -36.45 106.05 -34.1 105.7 -33.2 M67.1 14.15 Q64.65 10.6 66.0 6.0 L67.7 -0.3 67.7 -8.45 67.75 -11.05 67.55 -11.3 67.55 -11.35 M67.3 -45.0 L68.35 -45.25 70.6 -45.55 70.9 -45.6 71.25 -45.7 71.9 -50.0 Q71.9 -50.35 72.2 -50.7 M69.65 -75.5 Q69.2 -75.05 69.0 -74.35 68.55 -76.8 68.55 -78.55 68.5 -82.15 70.25 -82.95 70.6 -85.85 72.15 -86.8 L73.2 -87.25 75.7 -87.8 78.0 -87.65 Q84.55 -87.0 89.4 -84.2 M70.25 -82.95 L73.6 -83.05 73.65 -83.05 Q77.65 -82.75 81.3 -80.8 M69.65 -75.5 Q71.2 -77.0 75.05 -76.15 L79.3 -75.4 Q87.75 -73.4 92.75 -68.95 L93.9 -67.85 M71.2 -45.05 L70.4 -39.25 70.45 -39.05 Q71.4 -36.2 73.7 -34.15 L75.2 -33.0 Q77.05 -31.8 79.55 -30.95 L80.85 -30.6 85.9 -31.0 Q98.7 -32.4 107.0 -38.05 M70.45 -39.05 Q69.95 -39.45 69.7 -38.75 L68.0 -31.85 Q67.2 -28.55 67.2 -23.05 L67.3 -17.7 67.75 -11.25 67.75 -11.05 M67.85 -6.35 L68.0 -6.25 68.05 -6.25 67.85 -6.4 67.8 -6.4 M67.85 -6.35 L67.8 -6.35 67.8 -6.4 M77.35 -4.05 L77.5 -4.0 77.5 -4.05 77.35 -4.05 M71.9 -50.0 Q71.9 -49.55 72.4 -49.15 M90.6 -46.6 L99.15 -47.25 99.6 -47.3 100.95 -47.55 Q105.9 -48.55 105.85 -50.0 M99.75 -52.7 L99.95 -52.65 M93.3 -72.4 L88.3 -75.95 M98.95 3.75 Q98.55 -9.8 101.3 -24.55 L101.85 -25.15 102.0 -25.35 103.1 -27.1 104.5 -30.15 105.7 -33.2 M77.7 22.1 L78.2 22.25 79.3 22.65 84.75 23.35 85.55 23.4 86.2 23.45 86.95 23.5 90.55 23.8 M86.1 45.05 L86.1 47.15 M86.1 45.05 L86.05 31.65 M82.45 62.0 L82.25 45.6 M86.2 62.0 L86.1 47.15 M69.4 4.25 L69.45 4.25 69.45 4.35 69.4 4.25 M67.1 14.15 L67.3 14.75 67.4 15.15 68.65 16.8 69.25 17.5 70.35 18.4 Q71.6 19.35 73.4 20.3 75.25 21.25 77.65 22.1 L77.7 22.1 M70.1 26.9 L70.4 36.9 70.75 50.45 70.9 56.6 72.4 57.5 72.15 48.5 M79.5 62.0 Q77.9 61.35 77.0 59.7 75.45 57.95 74.2 57.5 73.2 57.05 72.4 57.5 M77.0 59.7 L77.3 52.8" fill="none" stroke="#548584" stroke-linecap="round" stroke-linejoin="round" stroke-width="0.05"/>
    <path d="M103.35 -58.75 L103.2 -58.4 102.0 -55.35 100.15 -54.1 99.95 -52.65 M72.2 -50.7 Q71.8 -53.05 71.05 -55.05 67.9 -58.1 68.8 -62.45 L69.85 -68.8 Q67.65 -70.45 69.65 -75.5 M73.5 -66.85 L73.5 -67.6 Q71.25 -69.95 70.25 -64.9 L70.15 -64.5 70.25 -64.4 Q70.6 -63.35 71.25 -62.5 M73.5 -66.85 L73.4 -64.15 73.25 -62.35 73.1 -60.9 73.0 -60.6 72.8 -58.05 Q72.8 -56.75 73.6 -56.1 M77.0 -57.2 Q77.65 -57.15 77.2 -55.65 74.7 -55.25 73.6 -56.1 M72.1 -61.6 L73.1 -60.9 M72.1 -61.6 Q71.55 -61.75 71.25 -62.5 M72.2 -50.7 L72.35 -49.55 72.4 -49.15 72.65 -44.95 Q73.8 -41.95 77.15 -41.9 L77.2 -41.9 M73.4 -54.25 Q74.75 -53.2 76.8 -52.45 L78.85 -51.75 78.9 -51.75 80.8 -51.3 M90.6 -46.6 L90.5 -46.5 80.8 -42.65 77.2 -41.9 M102.35 -62.4 L101.4 -62.55 Q100.75 -62.45 100.3 -61.75 L99.6 -60.1 99.05 -58.2 Q99.95 -57.85 100.6 -56.85 M99.05 -58.2 L98.95 -56.1 M100.15 -54.1 L99.5 -53.6 94.7 -49.55 90.6 -46.6 M81.6 -64.5 Q80.2 -62.1 79.9 -58.2 84.2 -56.4 87.05 -57.75 86.55 -64.35 81.6 -64.5 M103.2 -58.4 L103.3 -58.95" fill="none" stroke="#9e6b3a" stroke-linecap="round" stroke-linejoin="round" stroke-width="0.05"/>
    <path d="M66.1 23.6 L65.65 23.05 Q64.55 18.2 66.4 15.2 L66.65 14.75 67.1 14.15 M47.1 8.1 L47.1 8.15 46.6 8.0 Q45.25 8.05 42.85 6.25 L40.25 4.1 M40.25 -11.35 Q42.4 -11.6 44.35 -10.35 46.3 -9.15 47.5 -8.8 50.15 -9.2 52.45 -8.05 L53.0 -7.75 M45.6 -5.35 L47.3 -8.45 47.5 -8.8 M52.0 -1.4 L51.7 -1.05 Q49.2 2.5 47.1 8.1 M77.65 30.1 L83.2 31.45 86.05 31.65 86.7 31.7 89.4 31.9 M77.65 30.1 Q73.15 28.75 70.1 26.9 M45.6 -5.35 Q42.05 0.05 42.5 4.4 L42.85 6.25 M66.1 23.6 L68.75 26.0 70.1 26.9" fill="none" stroke="#3f2c27" stroke-linecap="round" stroke-linejoin="round" stroke-width="0.05"/>
    <path d="M107.0 -38.05 L108.8 -37.2 109.95 -36.45 113.55 -34.1 Q116.25 -34.15 119.4 -32.1 124.4 -29.05 127.6 -22.75 130.45 -17.15 130.45 -12.0 L130.4 -10.5 Q130.3 -8.7 129.85 -7.3 L129.8 -7.1 129.65 -6.75 130.25 -4.55 M91.25 62.0 L91.2 55.7 M89.45 45.0 L88.8 45.05 86.8 45.05 86.45 45.05 86.6 51.3 86.6 62.0 M61.85 62.0 L63.3 53.75 Q64.3 48.35 65.3 34.95 65.6 29.9 66.45 26.15 L66.1 23.6 M67.55 -11.35 L65.95 -13.5 62.65 -1.65 61.75 2.0 Q61.5 5.35 56.6 8.95 L49.25 9.35 47.1 8.1 M53.0 -7.75 L55.3 -20.3 54.8 -22.35 54.6 -23.65 Q54.1 -28.25 56.2 -33.45 58.55 -39.35 62.8 -42.4 64.9 -44.0 66.9 -44.4 M67.1 -44.65 L67.3 -45.0 M112.0 -33.85 L113.55 -34.1 M62.4 -20.2 Q60.5 -25.35 61.1 -30.6 M55.3 -20.3 L55.65 -19.5 55.7 -19.35 56.1 -18.6 M52.1 -2.65 L52.7 -5.95 53.0 -7.75 M52.1 -2.65 L51.9 -1.5 M65.95 -13.5 L64.5 -15.8 63.85 -16.9 62.4 -20.2 M112.7 -8.7 L113.75 -7.5 M112.7 -8.7 Q111.0 -10.8 109.65 -13.45 M86.45 45.05 L86.1 45.05 M66.45 26.15 L66.9 28.4 M69.7 62.0 L70.75 50.45" fill="none" stroke="#a0a0a0" stroke-linecap="round" stroke-linejoin="round" stroke-width="0.05"/>
    <path d="M114.2 3.65 L114.2 28.9 M129.1 18.55 L129.2 3.05 M114.2 62.0 L114.2 51.85" fill="none" stroke="#604b44" stroke-linecap="round" stroke-linejoin="round" stroke-width="0.05"/>
  </g>
</svg>
