<?xml version="1.0" encoding="UTF-8" standalone="no"?>
<svg xmlns:xlink="http://www.w3.org/1999/xlink" height="180.2px" width="115.85px" xmlns="http://www.w3.org/2000/svg">
  <g transform="matrix(1, 0, 0, 1, -40.2, 111.3)">
    <path d="M103.95 -100.6 L104.4 -98.7 Q113.65 -103.1 114.7 -104.9 111.35 -98.25 105.6 -96.8 L103.6 -96.45 103.95 -100.6 M112.85 -94.4 Q117.3 -95.85 121.6 -95.85 L101.45 -87.75 101.15 -88.05 Q101.1 -94.35 98.7 -98.6 102.25 -95.8 104.15 -90.15 107.15 -92.1 110.1 -93.3 L112.85 -94.4 M115.35 -90.45 Q118.4 -88.25 119.85 -85.45 116.55 -83.25 115.45 -81.45 L115.3 -81.15 113.1 -81.95 111.1 -82.45 Q111.9 -85.0 113.2 -87.25 L113.7 -88.15 115.35 -90.45 M123.25 -75.15 Q119.15 -75.6 115.1 -75.0 L114.55 -74.95 Q111.75 -74.5 108.7 -73.5 L108.4 -74.8 107.9 -76.65 110.9 -77.25 Q113.1 -77.5 115.4 -77.3 119.2 -76.9 123.25 -75.15 M76.7 -77.2 L76.4 -77.0 74.9 -75.75 Q70.15 -71.8 66.25 -65.7 67.75 -75.9 76.5 -81.8 L77.8 -82.5 78.25 -82.75 78.3 -82.75 Q79.85 -83.45 82.75 -82.8 L86.4 -82.15 Q81.2 -80.55 76.7 -77.2 M79.4 -95.0 Q75.15 -100.05 64.55 -97.7 76.2 -102.7 86.55 -98.35 L88.05 -94.0 85.75 -94.3 83.4 -94.45 80.9 -93.9 80.35 -93.7 79.4 -95.0 M91.0 -101.35 L94.15 -99.9 Q97.6 -106.1 97.1 -111.3 99.5 -103.0 96.55 -98.55 L96.25 -98.15 91.0 -101.35 M95.1 -79.15 Q98.15 -77.65 100.45 -75.6 102.6 -73.8 103.9 -72.05 L104.7 -71.0 104.55 -70.7 103.3 -68.75 102.1 -71.0 102.0 -71.25 102.0 -70.95 Q102.2 -66.7 101.85 -63.1 L101.85 -63.05 101.5 -60.4 100.7 -57.0 100.65 -59.0 Q100.25 -70.4 95.1 -79.15" fill="#b1841d" fill-rule="evenodd" stroke="none"/>
    <path d="M97.1 -111.3 Q102.05 -107.4 103.95 -100.6 L103.6 -96.45 105.6 -96.8 Q111.35 -98.25 114.7 -104.9 115.95 -100.5 112.85 -94.4 L110.1 -93.3 Q107.15 -92.1 104.15 -90.15 102.25 -95.8 98.7 -98.6 98.3 -94.6 95.65 -91.75 92.25 -93.35 88.05 -94.0 L86.55 -98.35 Q76.2 -102.7 64.55 -97.7 78.55 -106.45 91.0 -101.35 L96.25 -98.15 96.55 -98.55 Q99.5 -103.0 97.1 -111.3 M114.45 -71.2 Q114.1 -68.2 112.95 -65.3 111.55 -61.65 112.3 -59.85 109.75 -60.8 108.25 -63.3 L108.15 -63.45 108.85 -65.5 109.15 -66.4 111.25 -72.55 111.3 -72.75 111.3 -72.8 111.15 -72.95 Q110.6 -73.9 108.7 -73.4 L108.7 -73.5 Q111.75 -74.5 114.55 -74.95 L114.45 -71.2 M76.4 -77.0 L77.25 -70.9 Q72.7 -68.4 69.85 -62.0 70.8 -68.45 74.9 -75.75 L76.4 -77.0 M78.1 -90.55 Q75.0 -91.7 71.5 -90.55 75.55 -95.7 79.4 -95.0 L80.35 -93.7 79.85 -93.45 Q79.15 -93.0 78.7 -92.15 L78.1 -90.55 M101.85 -63.1 Q102.2 -66.7 102.0 -70.95 L102.0 -71.25 102.1 -71.0 103.3 -68.75 103.65 -66.15 Q104.1 -62.2 104.2 -57.6 L104.25 -54.7 103.6 -57.05 102.15 -61.95 101.9 -62.95 101.85 -63.1" fill="#9c7d18" fill-rule="evenodd" stroke="none"/>
    <path d="M137.95 -11.2 Q143.05 -7.85 147.35 -1.2 156.05 12.45 156.05 31.65 156.05 50.85 147.35 64.4 L144.1 68.9 137.35 68.9 Q141.9 66.15 145.6 59.8 149.45 53.25 151.05 45.1 154.0 40.0 154.05 33.25 154.0 26.65 151.2 21.6 149.65 12.75 145.6 5.75 143.4 2.0 141.0 -0.45 139.0 -2.45 136.9 -3.6 134.55 -4.9 132.1 -5.25 L130.8 -5.35 Q134.85 -10.6 129.75 -14.3 L129.5 -14.45 131.7 -14.0 Q134.95 -13.15 137.95 -11.2" fill="#afafaf" fill-rule="evenodd" stroke="none"/>
    <path d="M122.4 68.9 L108.75 68.9 106.0 65.2 105.5 64.4 Q101.05 57.45 98.9 49.05 97.6 43.95 97.15 38.35 96.85 35.1 96.9 31.65 96.85 28.35 97.1 25.25 97.45 21.05 98.25 17.15 100.3 6.95 105.5 -1.2 L106.65 -2.85 Q112.5 -11.2 119.95 -13.65 L121.45 -14.1 123.55 -14.5 126.45 -14.7 128.8 -14.55 129.5 -14.45 129.75 -14.3 Q134.85 -10.6 130.8 -5.35 L129.9 -5.4 127.05 -5.1 Q124.35 -4.6 121.9 -3.0 120.6 -2.15 119.35 -0.95 116.55 1.6 114.15 5.75 L112.65 8.65 Q110.8 12.45 109.65 16.75 108.65 20.45 108.15 24.5 107.65 28.5 107.7 32.8 107.65 35.75 107.9 38.65 108.9 50.7 114.15 59.8 117.65 65.8 121.9 68.6 L122.4 68.9 M151.2 21.6 Q154.0 26.65 154.05 33.25 154.0 40.0 151.05 45.1 L149.95 46.8 Q147.65 50.0 144.85 51.45 142.6 52.55 140.1 52.6 L136.8 52.1 135.8 51.65 Q132.65 50.25 130.2 46.8 L129.15 45.3 128.25 43.6 Q126.85 40.55 126.35 37.0 L126.15 33.25 126.25 31.0 126.35 29.6 Q126.95 24.95 129.1 21.25 L130.2 19.5 130.95 18.5 Q133.15 15.85 135.8 14.7 L136.05 14.6 136.8 14.35 Q138.35 13.85 140.1 13.9 L142.75 14.15 144.65 14.85 Q147.6 16.25 149.95 19.5 L151.2 21.6 M145.45 23.15 Q143.35 23.15 141.9 24.65 140.4 26.1 140.4 28.2 140.4 30.3 141.9 31.8 143.35 33.25 145.45 33.25 147.55 33.25 149.05 31.8 150.5 30.3 150.5 28.2 150.5 26.1 149.05 24.65 147.55 23.15 145.45 23.15" fill="#cccccc" fill-rule="evenodd" stroke="none"/>
    <path d="M113.55 -56.65 L115.1 -44.95 114.7 -44.65 Q106.4 -39.05 93.6 -37.65 L88.55 -37.25 87.25 -37.6 Q84.75 -38.45 82.9 -39.65 L81.4 -40.8 Q79.1 -42.85 78.15 -45.7 79.1 -42.85 81.4 -40.8 L82.9 -39.65 Q84.75 -38.45 87.25 -37.6 L88.55 -37.25 93.6 -37.65 Q106.4 -39.05 114.7 -44.65 L114.45 -43.1 113.75 -40.75 113.4 -39.85 112.2 -36.8 110.8 -33.75 109.7 -32.0 109.55 -31.8 109.0 -31.15 Q106.25 -16.4 106.65 -2.85 L105.5 -1.2 Q100.3 6.95 98.25 17.15 L94.65 16.85 93.9 16.8 93.25 16.75 92.45 16.7 87.0 16.05 85.9 15.65 85.4 15.45 85.35 15.45 Q82.95 14.6 81.1 13.65 79.3 12.75 78.05 11.75 L76.95 10.85 76.35 10.2 Q75.55 9.35 75.1 8.5 L75.0 8.1 74.8 7.55 Q72.35 4.0 73.7 -0.6 L75.4 -6.9 75.4 -15.1 75.45 -17.65 75.25 -17.95 75.45 -17.9 75.0 -24.35 74.9 -29.7 Q74.9 -35.2 75.7 -38.5 L77.4 -45.4 Q77.65 -46.1 78.15 -45.7 L78.1 -45.9 78.9 -51.7 78.95 -52.3 79.6 -56.65 Q79.6 -56.1 80.35 -55.65 L81.8 -51.85 Q83.0 -50.15 85.2 -49.65 91.15 -48.15 98.75 -53.2 L106.85 -53.9 107.3 -53.95 108.65 -54.15 Q113.6 -55.2 113.55 -56.65 M76.5 -81.8 Q75.55 -88.45 77.95 -89.6 77.95 -90.15 78.1 -90.55 L78.7 -92.15 Q79.15 -93.0 79.85 -93.45 L80.35 -93.7 80.9 -93.9 83.4 -94.45 85.75 -94.3 88.05 -94.0 Q92.25 -93.35 95.65 -91.75 98.75 -90.3 101.15 -88.05 L101.45 -87.75 Q105.8 -83.5 107.9 -76.65 L108.4 -74.8 108.7 -73.5 108.7 -73.4 108.45 -73.3 Q107.6 -73.1 106.75 -72.5 L106.55 -72.45 106.3 -72.25 105.5 -71.6 104.7 -71.0 103.9 -72.05 Q102.6 -73.8 100.45 -75.6 98.15 -77.65 95.1 -79.15 91.55 -80.95 87.0 -82.0 L86.4 -82.15 82.75 -82.8 Q79.85 -83.45 78.3 -82.75 L78.25 -82.75 77.8 -82.5 76.5 -81.8 M96.0 -82.6 Q101.85 -79.2 106.05 -73.25 L106.55 -72.45 106.05 -73.25 Q101.85 -79.2 96.0 -82.6 M75.45 -17.65 L75.45 -17.9 75.45 -17.65 M75.55 -13.0 L75.7 -12.9 75.75 -12.9 75.55 -13.05 75.5 -13.05 75.5 -13.0 75.55 -13.0 M77.15 -2.3 L77.15 -2.35 77.1 -2.35 77.15 -2.3 M89.0 -87.4 Q85.35 -89.4 81.35 -89.65 L81.3 -89.65 Q79.65 -89.8 77.95 -89.6 79.65 -89.8 81.3 -89.65 L81.35 -89.65 Q85.35 -89.4 89.0 -87.4 M85.05 -10.7 L85.2 -10.65 85.2 -10.7 85.05 -10.7 M85.35 23.45 L90.9 24.8 93.75 25.05 93.8 38.4 93.8 40.5 93.9 57.5 92.25 56.0 Q91.15 55.3 90.15 55.7 L87.6 55.5 Q85.75 54.95 84.7 53.05 83.15 51.3 81.9 50.85 80.9 50.4 80.1 50.85 L78.6 49.95 78.45 43.8 78.1 30.25 77.8 20.25 Q80.85 22.1 85.35 23.45 M85.0 46.2 L84.7 53.05 85.0 46.2 M89.95 39.0 L90.15 55.7 89.95 39.0 M79.85 41.85 L80.1 50.85 79.85 41.85" fill="#96bebe" fill-rule="evenodd" stroke="none"/>
    <path d="M40.2 -18.75 L40.2 -22.7 40.45 -22.0 41.15 -20.1 40.6 -19.25 40.2 -18.75 M79.65 -56.85 Q77.05 -61.5 77.4 -69.65 L76.7 -75.25 Q76.55 -76.05 76.7 -77.2 81.2 -80.55 86.4 -82.15 L87.0 -82.0 Q91.55 -80.95 95.1 -79.15 100.25 -70.4 100.65 -59.0 98.4 -55.65 94.2 -53.2 90.45 -51.05 85.2 -49.65 83.0 -50.15 81.8 -51.85 L80.35 -55.65 79.75 -56.75 79.65 -56.85 M105.5 -71.6 L106.3 -72.25 106.75 -72.5 Q107.6 -73.1 108.45 -73.3 109.9 -73.65 111.15 -72.95 L111.3 -72.8 111.25 -72.55 109.15 -66.4 Q108.9 -68.15 108.15 -69.85 106.55 -69.6 104.8 -65.4 L103.65 -66.15 103.3 -68.75 104.55 -70.7 105.5 -71.6 M80.2 -67.95 Q80.9 -67.55 81.8 -67.6 82.25 -71.1 81.65 -72.95 79.0 -74.45 78.0 -72.4 L77.8 -72.05 77.95 -71.6 78.25 -70.6 Q79.05 -68.65 80.2 -67.95 M80.75 -63.05 L80.7 -63.1 Q80.4 -60.85 85.0 -62.0 81.85 -62.15 80.75 -63.05 L81.8 -67.6 80.75 -63.05 M91.35 -64.25 Q93.1 -64.75 94.9 -66.7 93.3 -69.2 90.8 -69.85 L89.8 -70.1 88.0 -70.1 Q86.7 -67.9 87.6 -64.85 88.45 -64.3 89.35 -64.15 L91.35 -64.25 M87.65 -56.05 L86.5 -56.6 86.3 -56.65 Q83.0 -58.2 81.9 -57.95 83.0 -58.2 86.3 -56.65 L86.5 -56.6 87.65 -56.05 M96.25 -71.25 Q94.25 -76.3 86.25 -72.3 93.25 -73.0 96.25 -71.25 M101.9 -62.95 L102.15 -61.95 101.5 -60.4 101.85 -63.05 101.9 -62.95 M76.95 -74.6 Q77.3 -77.1 82.25 -74.15 77.05 -79.45 76.95 -74.6" fill="#ffdfc8" fill-rule="evenodd" stroke="none"/>
    <path d="M80.85 -71.5 L80.95 -70.7 80.75 -69.6 80.0 -69.1 Q79.6 -69.1 79.2 -69.6 78.85 -70.05 78.75 -70.75 78.75 -71.45 79.05 -71.95 L79.3 -72.15 79.15 -71.9 Q79.15 -71.5 79.45 -71.2 79.7 -70.95 80.05 -70.95 L80.7 -71.2 80.75 -71.4 80.85 -71.5 M89.35 -68.55 L89.3 -68.1 Q89.3 -67.7 89.7 -67.4 90.0 -67.1 90.45 -67.1 90.9 -67.1 91.2 -67.4 L91.45 -67.65 91.55 -66.95 Q91.6 -66.15 91.2 -65.6 90.8 -65.05 90.2 -65.05 89.65 -65.05 89.25 -65.6 88.8 -66.15 88.8 -66.95 88.7 -67.7 89.05 -68.25 L89.35 -68.55" fill="#000000" fill-rule="evenodd" stroke="none"/>
    <path d="M121.25 -40.75 Q123.95 -40.8 127.1 -38.75 132.1 -35.7 135.3 -29.35 138.15 -23.75 138.15 -18.6 137.75 -17.05 136.65 -15.9 L135.45 -14.95 135.25 -14.85 134.35 -14.4 133.85 -14.1 131.7 -14.0 129.5 -14.45 128.8 -14.55 126.6 -15.55 126.0 -15.85 Q123.6 -17.45 121.35 -20.25 L119.7 -22.5 Q116.9 -26.6 114.3 -32.75 L114.25 -32.35 Q113.95 -26.65 117.2 -20.35 L117.35 -20.1 Q118.7 -17.45 120.4 -15.35 L119.95 -13.65 Q112.5 -11.2 106.65 -2.85 106.25 -16.4 109.0 -31.15 L109.55 -31.8 109.7 -32.0 110.8 -33.75 112.2 -36.8 113.4 -39.85 115.45 -38.5 116.05 -38.1 Q116.95 -39.3 118.3 -39.95 L119.7 -40.5 121.25 -40.75 M108.75 68.9 L106.05 68.9 98.2 68.9 98.8 59.6 Q99.05 56.0 98.9 49.05 101.05 57.45 105.5 64.4 L106.0 65.2 108.75 68.9 M94.3 44.65 Q94.15 58.7 94.8 68.8 L94.8 68.9 76.25 68.9 68.75 68.9 68.05 63.95 71.0 47.15 Q72.0 41.7 73.0 28.3 L76.75 27.9 78.1 30.25 78.45 43.8 78.6 49.95 80.1 50.85 Q80.9 50.4 81.9 50.85 83.15 51.3 84.7 53.05 85.75 54.95 87.6 55.5 L90.15 55.7 Q91.15 55.3 92.25 56.0 L93.9 57.5 93.8 40.5 94.3 44.65 M75.25 -17.95 L75.25 -18.0 73.65 -20.15 72.2 -22.45 71.55 -23.5 70.1 -26.85 69.85 -26.8 66.7 -26.55 66.15 -26.8 65.35 -27.1 65.1 -27.25 Q64.05 -27.8 63.3 -28.6 62.65 -29.35 62.3 -30.25 61.8 -34.9 63.9 -40.1 66.25 -46.0 70.5 -49.05 72.6 -50.65 74.6 -51.0 L74.8 -51.3 75.0 -51.65 76.05 -51.85 78.3 -52.2 78.6 -52.25 78.95 -52.3 78.9 -51.7 78.1 -45.9 78.15 -45.7 Q77.65 -46.1 77.4 -45.4 L75.7 -38.5 Q74.9 -35.2 74.9 -29.7 L75.0 -24.35 75.45 -17.9 75.25 -17.95 M70.35 -8.25 L69.45 -4.6 Q69.2 -1.25 64.3 2.3 L56.95 2.7 54.8 1.45 Q56.9 -4.15 59.4 -7.7 L59.7 -8.05 59.6 -8.15 59.8 -9.3 60.4 -12.6 63.4 -12.7 Q68.85 -12.5 70.35 -8.25 M79.3 -72.15 L79.35 -72.5 79.95 -72.75 80.55 -72.5 80.85 -71.9 80.85 -71.5 80.75 -71.4 80.7 -71.2 80.05 -70.95 Q79.7 -70.95 79.45 -71.2 79.15 -71.5 79.15 -71.9 L79.3 -72.15 M80.2 -67.95 Q80.75 -68.0 81.15 -68.75 81.55 -69.55 81.55 -70.7 81.45 -71.9 80.9 -72.7 80.35 -73.5 79.65 -73.5 78.95 -73.5 78.55 -72.7 78.15 -71.9 78.25 -70.7 L78.25 -70.6 77.95 -71.6 78.0 -72.4 Q79.0 -74.45 81.65 -72.95 82.25 -71.1 81.8 -67.6 80.9 -67.55 80.2 -67.95 M68.8 -37.25 Q68.2 -32.0 70.1 -26.85 68.2 -32.0 68.8 -37.25 M75.5 -13.05 L75.55 -13.05 75.75 -12.9 75.7 -12.9 75.55 -13.0 75.5 -13.05 M89.35 -68.55 L89.55 -68.85 Q89.85 -69.15 90.3 -69.1 L91.1 -68.85 91.55 -68.1 91.45 -67.65 91.2 -67.4 Q90.9 -67.1 90.45 -67.1 90.0 -67.1 89.7 -67.4 89.3 -67.7 89.3 -68.1 L89.35 -68.55 M91.35 -64.25 L91.75 -64.7 Q92.25 -65.65 92.15 -66.95 92.15 -68.25 91.55 -69.15 L90.8 -69.85 Q93.3 -69.2 94.9 -66.7 93.1 -64.75 91.35 -64.25 M89.8 -70.1 Q89.05 -69.95 88.6 -69.15 88.0 -68.25 88.05 -66.95 88.1 -65.65 88.8 -64.7 89.0 -64.35 89.35 -64.15 88.45 -64.3 87.6 -64.85 86.7 -67.9 88.0 -70.1 L89.8 -70.1 M76.25 68.9 L76.3 67.85 76.3 67.6 78.45 43.8 76.3 67.6 76.3 67.85 76.25 68.9 M106.05 68.9 L106.0 65.2 106.05 68.9" fill="#ffffff" fill-rule="evenodd" stroke="none"/>
    <path d="M79.3 -72.15 L79.05 -71.95 Q78.75 -71.45 78.75 -70.75 78.85 -70.05 79.2 -69.6 79.6 -69.1 80.0 -69.1 L80.75 -69.6 80.95 -70.7 80.85 -71.5 80.85 -71.9 80.55 -72.5 79.95 -72.75 79.35 -72.5 79.3 -72.15 M78.25 -70.6 L78.25 -70.7 Q78.15 -71.9 78.55 -72.7 78.95 -73.5 79.65 -73.5 80.35 -73.5 80.9 -72.7 81.45 -71.9 81.55 -70.7 81.55 -69.55 81.15 -68.75 80.75 -68.0 80.2 -67.95 79.05 -68.65 78.25 -70.6 M91.45 -67.65 L91.55 -68.1 91.1 -68.85 90.3 -69.1 Q89.85 -69.15 89.55 -68.85 L89.35 -68.55 89.05 -68.25 Q88.7 -67.7 88.8 -66.95 88.8 -66.15 89.25 -65.6 89.65 -65.05 90.2 -65.05 90.8 -65.05 91.2 -65.6 91.6 -66.15 91.55 -66.95 L91.45 -67.65 M90.8 -69.85 L91.55 -69.15 Q92.15 -68.25 92.15 -66.95 92.25 -65.65 91.75 -64.7 L91.35 -64.25 89.35 -64.15 Q89.0 -64.35 88.8 -64.7 88.1 -65.65 88.05 -66.95 88.0 -68.25 88.6 -69.15 89.05 -69.95 89.8 -70.1 L90.8 -69.85" fill="#99ff00" fill-rule="evenodd" stroke="none"/>
    <path d="M115.45 -81.45 L115.5 -81.05 115.3 -81.15 115.45 -81.45 M115.1 -75.0 L114.45 -71.2 114.55 -74.95 115.1 -75.0 M108.25 -63.3 L107.85 -62.95 108.3 -62.8 107.65 -59.3 107.45 -59.35 106.85 -53.9 98.75 -53.2 Q91.15 -48.15 85.2 -49.65 90.45 -51.05 94.2 -53.2 98.4 -55.65 100.65 -59.0 L100.7 -57.0 101.5 -60.4 102.15 -61.95 103.6 -57.05 104.25 -54.7 104.2 -57.6 Q104.1 -62.2 103.65 -66.15 L104.8 -65.4 Q106.55 -69.6 108.15 -69.85 108.9 -68.15 109.15 -66.4 L108.85 -65.5 108.15 -63.45 108.25 -63.3 M104.7 -71.0 L105.5 -71.6 104.55 -70.7 104.7 -71.0 M106.3 -72.25 L106.55 -72.45 106.75 -72.5 106.3 -72.25 M85.0 -62.0 Q80.4 -60.85 80.7 -63.1 L80.75 -63.05 Q81.85 -62.15 85.0 -62.0 M111.15 -72.95 Q109.9 -73.65 108.45 -73.3 L108.7 -73.4 Q110.6 -73.9 111.15 -72.95 M111.25 -72.55 L111.3 -72.8 111.3 -72.75 111.25 -72.55 M101.9 -62.95 L101.85 -63.05 101.85 -63.1 101.9 -62.95 M104.55 -63.3 L104.6 -63.85 104.8 -65.4 Q105.7 -65.05 106.2 -64.05 105.7 -65.05 104.8 -65.4 L104.6 -63.85 104.55 -63.3 M107.85 -62.95 L107.7 -62.85 107.55 -62.8 107.65 -62.85 107.7 -63.0 108.85 -65.5 107.7 -63.0 107.65 -62.85 107.55 -62.8 107.7 -62.85 107.85 -62.95 M104.2 -57.6 L104.85 -58.2 104.95 -58.2 105.65 -60.8 107.55 -62.8 105.65 -60.8 104.95 -58.2 104.85 -58.2 104.2 -57.6 M98.75 -53.2 L103.6 -57.05 98.75 -53.2" fill="#ffd0ae" fill-rule="evenodd" stroke="none"/>
    <path d="M107.65 -59.3 L108.6 -59.1 Q113.6 -58.1 113.55 -56.65 113.6 -55.2 108.65 -54.15 L107.3 -53.95 106.85 -53.9 107.45 -59.35 107.65 -59.3 M79.6 -56.65 L79.65 -56.85 79.75 -56.75 80.35 -55.65 Q79.6 -56.1 79.6 -56.65" fill="#385858" fill-rule="evenodd" stroke="none"/>
    <path d="M73.8 17.0 L73.35 16.4 Q72.25 11.55 74.1 8.55 L74.35 8.1 74.8 7.55 75.0 8.1 75.1 8.5 Q75.55 9.35 76.35 10.2 L76.95 10.85 78.05 11.75 Q79.3 12.75 81.1 13.65 82.95 14.6 85.35 15.45 L85.4 15.45 85.15 15.9 Q83.6 18.7 85.35 23.45 80.85 22.1 77.8 20.25 L76.45 19.35 Q74.9 18.2 73.8 17.0 M54.8 1.45 L54.8 1.5 54.3 1.35 Q52.95 1.45 50.55 -0.4 47.1 -2.95 46.5 -4.45 41.75 -7.75 40.2 -9.7 L40.2 -18.05 40.2 -18.75 40.6 -19.25 40.85 -19.05 42.05 -18.4 44.8 -16.8 46.5 -15.8 50.35 -13.6 53.3 -12.0 Q57.85 -9.65 59.8 -9.3 L59.6 -8.15 59.7 -8.05 59.4 -7.7 Q56.9 -4.15 54.8 1.45 M46.5 -4.45 L46.15 -5.55 Q44.25 -12.0 46.5 -15.8 44.25 -12.0 46.15 -5.55 L46.5 -4.45 M50.55 -0.4 Q50.25 -1.3 50.2 -2.25 49.75 -6.6 53.3 -12.0 49.75 -6.6 50.2 -2.25 50.25 -1.3 50.55 -0.4 M40.2 -18.05 L40.85 -19.05 40.2 -18.05" fill="#956c5e" fill-rule="evenodd" stroke="none"/>
    <path d="M114.7 -44.65 L116.5 -43.8 117.65 -43.1 121.25 -40.75 119.7 -40.5 118.3 -39.95 Q116.95 -39.3 116.05 -38.1 L115.45 -38.5 113.4 -39.85 113.75 -40.75 114.45 -43.1 114.7 -44.65 M138.15 -18.6 L138.1 -17.15 Q138.0 -15.35 137.55 -13.95 L137.5 -13.75 137.35 -13.45 137.95 -11.2 Q134.95 -13.15 131.7 -14.0 L133.85 -14.1 134.35 -14.4 135.25 -14.85 135.45 -14.95 136.65 -15.9 Q137.75 -17.05 138.15 -18.6 M97.15 38.35 L96.5 38.4 94.5 38.4 94.15 38.4 94.3 44.65 93.8 40.5 93.8 38.4 93.75 25.05 94.4 25.1 97.1 25.25 Q96.85 28.35 96.9 31.65 96.85 35.1 97.15 38.35 M73.0 28.3 Q73.3 23.25 74.15 19.5 L73.8 17.0 Q74.9 18.2 76.45 19.35 L77.8 20.25 78.1 30.25 76.75 27.9 73.0 28.3 M73.65 -20.15 L70.35 -8.25 Q68.85 -12.5 63.4 -12.7 L60.4 -12.6 60.7 -14.4 63.0 -26.95 62.5 -28.95 62.3 -30.25 Q62.65 -29.35 63.3 -28.6 64.05 -27.8 65.1 -27.25 L65.35 -27.1 66.15 -26.8 66.7 -26.55 69.85 -26.8 70.1 -26.85 71.55 -23.5 72.2 -22.45 73.65 -20.15 M63.8 -25.25 L63.4 -26.0 63.35 -26.15 63.0 -26.95 63.35 -26.15 63.4 -26.0 63.8 -25.25 M119.95 -13.65 L120.4 -15.35 Q118.7 -17.45 117.35 -20.1 L117.2 -20.35 Q113.95 -26.65 114.25 -32.35 L114.3 -32.75 Q116.9 -26.6 119.7 -22.5 L121.35 -20.25 Q123.6 -17.45 126.0 -15.85 L126.6 -15.55 128.8 -14.55 126.45 -14.7 123.55 -14.5 121.45 -14.1 119.95 -13.65 M120.4 -15.35 L121.45 -14.1 120.4 -15.35 M94.15 38.4 L93.8 38.4 94.15 38.4 M74.6 21.75 L74.15 19.5 74.6 21.75" fill="#f2f2f2" fill-rule="evenodd" stroke="none"/>
    <path d="M40.45 -22.0 L41.15 -21.5 42.1 -20.5 43.6 -20.05 46.0 -18.95 47.9 -18.0 Q50.05 -18.25 52.05 -17.0 54.0 -15.8 55.2 -15.4 57.85 -15.85 60.15 -14.7 L60.7 -14.4 60.4 -12.6 59.8 -9.3 Q57.85 -9.65 53.3 -12.0 54.0 -13.55 55.0 -15.1 L55.2 -15.4 55.0 -15.1 Q54.0 -13.55 53.3 -12.0 L50.35 -13.6 46.5 -15.8 44.8 -16.8 42.05 -18.4 40.85 -19.05 40.6 -19.25 41.15 -20.1 40.45 -22.0 M42.1 -20.5 L42.0 -20.35 40.9 -19.2 40.85 -19.05 40.9 -19.2 42.0 -20.35 42.1 -20.5 M47.9 -18.0 L47.7 -17.8 46.5 -15.8 47.7 -17.8 47.9 -18.0 M98.25 17.15 Q97.45 21.05 97.1 25.25 L94.4 25.1 93.75 25.05 90.9 24.8 85.35 23.45 Q83.6 18.7 85.15 15.9 L85.4 15.45 85.9 15.65 87.0 16.05 92.45 16.7 93.25 16.75 93.9 16.8 94.65 16.85 98.25 17.15" fill="#684942" fill-rule="evenodd" stroke="none"/>
    <path d="M75.55 -13.0 L75.5 -13.0 75.5 -13.05 75.55 -13.0" fill="#8bc087" fill-rule="evenodd" stroke="none"/>
    <path d="M77.15 -2.3 L77.1 -2.35 77.15 -2.35 77.15 -2.3" fill="#eebf5a" fill-rule="evenodd" stroke="none"/>
    <path d="M121.6 -95.85 Q117.9 -93.6 115.35 -90.45 L113.7 -88.15 113.2 -87.25 Q111.9 -85.0 111.1 -82.45 L113.1 -81.95 115.3 -81.15 115.5 -81.05 Q119.9 -79.2 123.25 -75.15 119.2 -76.9 115.4 -77.3 113.1 -77.5 110.9 -77.25 L107.9 -76.65 Q105.8 -83.5 101.45 -87.75 L121.6 -95.85 M98.7 -98.6 Q101.1 -94.35 101.15 -88.05 98.75 -90.3 95.65 -91.75 98.3 -94.6 98.7 -98.6 M96.25 -71.25 Q93.25 -73.0 86.25 -72.3 94.25 -76.3 96.25 -71.25 M76.95 -74.6 Q77.05 -79.45 82.25 -74.15 77.3 -77.1 76.95 -74.6" fill="#936d17" fill-rule="evenodd" stroke="none"/>
    <path d="M85.05 -10.7 L85.2 -10.7 85.2 -10.65 85.05 -10.7" fill="#cecece" fill-rule="evenodd" stroke="none"/>
    <path d="M137.35 68.9 L137.15 68.9 122.4 68.9 121.9 68.6 Q117.65 65.8 114.15 59.8 108.9 50.7 107.9 38.65 107.65 35.75 107.7 32.8 107.65 28.5 108.15 24.5 108.65 20.45 109.65 16.75 110.8 12.45 112.65 8.65 L114.15 5.75 Q116.55 1.6 119.35 -0.95 120.6 -2.15 121.9 -3.0 124.35 -4.6 127.05 -5.1 L129.9 -5.4 130.8 -5.35 132.1 -5.25 Q134.55 -4.9 136.9 -3.6 139.0 -2.45 141.0 -0.45 143.4 2.0 145.6 5.75 149.65 12.75 151.2 21.6 L149.95 19.5 Q147.6 16.25 144.65 14.85 L142.75 14.15 Q141.55 13.3 140.3 12.75 138.65 12.05 136.8 11.9 L135.45 11.8 Q133.15 11.8 131.15 12.6 128.3 13.65 125.95 16.15 L124.2 18.2 Q122.85 20.1 121.9 22.25 120.05 26.45 119.7 31.55 L119.65 33.75 Q119.65 40.15 121.9 45.2 122.85 47.3 124.2 49.2 L125.95 51.35 Q130.05 55.7 135.45 55.75 L136.8 55.65 140.3 54.75 Q142.75 53.65 144.85 51.45 147.65 50.0 149.95 46.8 L151.05 45.1 Q149.45 53.25 145.6 59.8 141.9 66.15 137.35 68.9 M137.15 68.9 L136.8 55.65 137.15 68.9 M121.9 45.2 L121.9 68.6 121.9 45.2 M121.9 22.25 L121.9 -3.0 121.9 22.25 M136.8 11.9 L136.9 -3.6 136.8 11.9" fill="#9f8577" fill-rule="evenodd" stroke="none"/>
    <path d="M145.45 23.15 Q147.55 23.15 149.05 24.65 150.5 26.1 150.5 28.2 150.5 30.3 149.05 31.8 147.55 33.25 145.45 33.25 143.35 33.25 141.9 31.8 140.4 30.3 140.4 28.2 140.4 26.1 141.9 24.65 143.35 23.15 145.45 23.15" fill="#f5f4f7" fill-rule="evenodd" stroke="none"/>
    <path d="M142.75 14.15 L140.1 13.9 Q138.35 13.85 136.8 14.35 L136.05 14.6 135.8 14.7 Q133.15 15.85 130.95 18.5 L130.2 19.5 129.1 21.25 Q126.95 24.95 126.35 29.6 L126.25 31.0 126.15 33.25 126.35 37.0 Q126.85 40.55 128.25 43.6 L129.15 45.3 130.2 46.8 Q132.65 50.25 135.8 51.65 L136.8 52.1 140.1 52.6 Q142.6 52.55 144.85 51.45 142.75 53.65 140.3 54.75 L136.8 55.65 135.45 55.75 Q130.05 55.7 125.95 51.35 L124.2 49.2 Q122.85 47.3 121.9 45.2 119.65 40.15 119.65 33.75 L119.7 31.55 Q120.05 26.45 121.9 22.25 122.85 20.1 124.2 18.2 L125.95 16.15 Q128.3 13.65 131.15 12.6 133.15 11.8 135.45 11.8 L136.8 11.9 Q138.65 12.05 140.3 12.75 141.55 13.3 142.75 14.15" fill="#aaaaaa" fill-rule="evenodd" stroke="none"/>
    <path d="M97.1 -111.3 Q102.05 -107.4 103.95 -100.6 L104.4 -98.7 Q113.65 -103.1 114.7 -104.9 115.95 -100.5 112.85 -94.4 117.3 -95.85 121.6 -95.85 117.9 -93.6 115.35 -90.45 118.4 -88.25 119.85 -85.45 116.55 -83.25 115.45 -81.45 M115.5 -81.05 Q119.9 -79.2 123.25 -75.15 119.15 -75.6 115.1 -75.0 L114.55 -74.95 114.45 -71.2 Q114.1 -68.2 112.95 -65.3 111.55 -61.65 112.3 -59.85 109.75 -60.8 108.25 -63.3 M76.7 -77.2 L76.4 -77.0 77.25 -70.9 Q72.7 -68.4 69.85 -62.0 70.8 -68.45 74.9 -75.75 70.15 -71.8 66.25 -65.7 67.75 -75.9 76.5 -81.8 M78.1 -90.55 Q75.0 -91.7 71.5 -90.55 75.55 -95.7 79.4 -95.0 75.15 -100.05 64.55 -97.7 78.55 -106.45 91.0 -101.35 L94.15 -99.9 Q97.6 -106.1 97.1 -111.3 M80.35 -93.7 L79.85 -93.45 Q79.15 -93.0 78.7 -92.15 L78.1 -90.55 M80.35 -93.7 L80.9 -93.9 M100.65 -59.0 Q100.25 -70.4 95.1 -79.15 M115.3 -81.15 L115.45 -81.45 M115.3 -81.15 L115.5 -81.05 M101.5 -60.4 L100.7 -57.0 100.65 -59.0 M96.25 -71.25 Q94.25 -76.3 86.25 -72.3 93.25 -73.0 96.25 -71.25 M111.3 -72.8 L111.15 -72.95 Q110.6 -73.9 108.7 -73.4 L108.7 -73.5 M111.3 -72.8 L111.3 -72.75 111.25 -72.55 109.15 -66.4 108.85 -65.5 108.15 -63.45 108.25 -63.3 M103.3 -68.75 L104.55 -70.7 104.7 -71.0 M102.15 -61.95 L101.9 -62.95 101.85 -63.1 101.85 -63.05 101.5 -60.4 M102.15 -61.95 L103.6 -57.05 104.25 -54.7 104.2 -57.6 Q104.1 -62.2 103.65 -66.15 L103.3 -68.75 M86.4 -82.15 Q81.2 -80.55 76.7 -77.2 M76.95 -74.6 Q77.05 -79.45 82.25 -74.15 77.3 -77.1 76.95 -74.6" fill="none" stroke="#885415" stroke-linecap="round" stroke-linejoin="round" stroke-width="0.05"/>
    <path d="M137.95 -11.2 Q143.05 -7.85 147.35 -1.2 156.05 12.45 156.05 31.65 156.05 50.85 147.35 64.4 L144.1 68.9 M98.9 49.05 Q97.6 43.95 97.15 38.35 M106.65 -2.85 Q112.5 -11.2 119.95 -13.65 M128.8 -14.55 L129.5 -14.45 131.7 -14.0 Q134.95 -13.15 137.95 -11.2 M106.65 -2.85 L105.5 -1.2 Q100.3 6.95 98.25 17.15 97.45 21.05 97.1 25.25 96.85 28.35 96.9 31.65 96.85 35.1 97.15 38.35 M128.8 -14.55 L126.45 -14.7 123.55 -14.5 121.45 -14.1 119.95 -13.65 M122.4 68.9 L121.9 68.6 Q117.65 65.8 114.15 59.8 108.9 50.7 107.9 38.65 107.65 35.75 107.7 32.8 107.65 28.5 108.15 24.5 108.65 20.45 109.65 16.75 110.8 12.45 112.65 8.65 L114.15 5.75 Q116.55 1.6 119.35 -0.95 120.6 -2.15 121.9 -3.0 124.35 -4.6 127.05 -5.1 L129.9 -5.4 130.8 -5.35 132.1 -5.25 Q134.55 -4.9 136.9 -3.6 139.0 -2.45 141.0 -0.45 143.4 2.0 145.6 5.75 149.65 12.75 151.2 21.6 154.0 26.65 154.05 33.25 154.0 40.0 151.05 45.1 149.45 53.25 145.6 59.8 141.9 66.15 137.35 68.9 M151.2 21.6 L149.95 19.5 Q147.6 16.25 144.65 14.85 L142.75 14.15 140.1 13.9 Q138.35 13.85 136.8 14.35 L136.05 14.6 135.8 14.7 Q133.15 15.85 130.95 18.5 L130.2 19.5 129.1 21.25 Q126.95 24.95 126.35 29.6 L126.25 31.0 126.15 33.25 126.35 37.0 Q126.85 40.55 128.25 43.6 L129.15 45.3 130.2 46.8 Q132.65 50.25 135.8 51.65 L136.8 52.1 140.1 52.6 Q142.6 52.55 144.85 51.45 147.65 50.0 149.95 46.8 L151.05 45.1 M142.75 14.15 Q141.55 13.3 140.3 12.75 138.65 12.05 136.8 11.9 L135.45 11.8 Q133.15 11.8 131.15 12.6 128.3 13.65 125.95 16.15 L124.2 18.2 Q122.85 20.1 121.9 22.25 120.05 26.45 119.7 31.55 L119.65 33.75 Q119.65 40.15 121.9 45.2 122.85 47.3 124.2 49.2 L125.95 51.35 Q130.05 55.7 135.45 55.75 L136.8 55.65 140.3 54.75 Q142.75 53.65 144.85 51.45 M98.9 49.05 Q101.05 57.45 105.5 64.4 L106.0 65.2 108.75 68.9" fill="none" stroke="#666666" stroke-linecap="round" stroke-linejoin="round" stroke-width="0.05"/>
    <path d="M107.65 -59.3 L108.6 -59.1 Q113.6 -58.1 113.55 -56.65 L115.1 -44.95 114.7 -44.65 114.45 -43.1 113.75 -40.75 113.4 -39.85 112.2 -36.8 110.8 -33.75 109.7 -32.0 109.55 -31.8 109.0 -31.15 Q106.25 -16.4 106.65 -2.85 M74.8 7.55 Q72.35 4.0 73.7 -0.6 L75.4 -6.9 75.4 -15.1 75.45 -17.65 75.25 -17.95 75.25 -18.0 M75.0 -51.65 L76.05 -51.85 78.3 -52.2 78.6 -52.25 78.95 -52.3 79.6 -56.65 79.65 -56.85 M76.5 -81.8 Q75.55 -88.45 77.95 -89.6 77.95 -90.15 78.1 -90.55 M80.9 -93.9 L83.4 -94.45 85.75 -94.3 88.05 -94.0 M76.5 -81.8 L77.8 -82.5 78.25 -82.75 M78.3 -82.75 Q79.85 -83.45 82.75 -82.8 L86.4 -82.15 87.0 -82.0 Q91.55 -80.95 95.1 -79.15 98.15 -77.65 100.45 -75.6 102.6 -73.8 103.9 -72.05 L104.7 -71.0 M106.55 -72.45 L106.05 -73.25 Q101.85 -79.2 96.0 -82.6 M78.9 -51.7 L78.1 -45.9 78.15 -45.7 Q79.1 -42.85 81.4 -40.8 L82.9 -39.65 Q84.75 -38.45 87.25 -37.6 L88.55 -37.25 93.6 -37.65 Q106.4 -39.05 114.7 -44.65 M80.35 -55.65 Q79.6 -56.1 79.6 -56.65 M78.15 -45.7 Q77.65 -46.1 77.4 -45.4 L75.7 -38.5 Q74.9 -35.2 74.9 -29.7 L75.0 -24.35 75.45 -17.9 75.45 -17.65 M75.5 -13.05 L75.55 -13.05 75.75 -12.9 75.7 -12.9 75.55 -13.0 75.5 -13.0 75.5 -13.05 M77.15 -2.3 L77.1 -2.35 77.15 -2.35 77.15 -2.3 M101.15 -88.05 L101.45 -87.75 M108.7 -73.5 L108.4 -74.8 107.9 -76.65 Q105.8 -83.5 101.45 -87.75 M95.65 -91.75 Q98.75 -90.3 101.15 -88.05 M77.95 -89.6 Q79.65 -89.8 81.3 -89.65 L81.35 -89.65 Q85.35 -89.4 89.0 -87.4 M95.65 -91.75 Q92.25 -93.35 88.05 -94.0 M107.45 -59.35 L107.65 -59.3 M113.55 -56.65 Q113.6 -55.2 108.65 -54.15 L107.3 -53.95 106.85 -53.9 98.75 -53.2 M85.05 -10.7 L85.2 -10.65 85.2 -10.7 85.05 -10.7 M85.4 15.45 L85.35 15.45 Q82.95 14.6 81.1 13.65 79.3 12.75 78.05 11.75 L76.95 10.85 76.35 10.2 Q75.55 9.35 75.1 8.5 L75.0 8.1 74.8 7.55 M98.25 17.15 L94.65 16.85 93.9 16.8 93.25 16.75 92.45 16.7 87.0 16.05 85.9 15.65 85.4 15.45 M93.8 40.5 L93.8 38.4 93.75 25.05 M93.8 40.5 L93.9 57.5 92.25 56.0 Q91.15 55.3 90.15 55.7 L87.6 55.5 Q85.75 54.95 84.7 53.05 83.15 51.3 81.9 50.85 80.9 50.4 80.1 50.85 L78.6 49.95 78.45 43.8 M90.15 55.7 L89.95 39.0 M84.7 53.05 L85.0 46.2 M78.1 30.25 L78.45 43.8 M77.8 20.25 L78.1 30.25 M80.1 50.85 L79.85 41.85" fill="none" stroke="#548584" stroke-linecap="round" stroke-linejoin="round" stroke-width="0.05"/>
    <path d="M115.45 -81.45 L115.5 -81.05 M115.1 -75.0 L114.45 -71.2 M108.25 -63.3 L107.85 -62.95 108.3 -62.8 107.65 -59.3 M40.2 -22.7 L40.45 -22.0 41.15 -20.1 40.6 -19.25 40.2 -18.75 M79.65 -56.85 Q77.05 -61.5 77.4 -69.65 L76.7 -75.25 Q76.55 -76.05 76.7 -77.2 M105.5 -71.6 L106.3 -72.25 M80.2 -67.95 Q80.9 -67.55 81.8 -67.6 82.25 -71.1 81.65 -72.95 79.0 -74.45 78.0 -72.4 M77.95 -71.6 L78.25 -70.6 Q79.05 -68.65 80.2 -67.95 M77.95 -71.6 L77.8 -72.05 78.0 -72.4 M85.0 -62.0 Q80.4 -60.85 80.7 -63.1 L80.75 -63.05 81.8 -67.6 M79.65 -56.85 L79.75 -56.75 80.35 -55.65 81.8 -51.85 Q83.0 -50.15 85.2 -49.65 M91.35 -64.25 Q93.1 -64.75 94.9 -66.7 93.3 -69.2 90.8 -69.85 L89.8 -70.1 M89.35 -64.15 L91.35 -64.25 M89.35 -64.15 Q88.45 -64.3 87.6 -64.85 86.7 -67.9 88.0 -70.1 L89.8 -70.1 M81.9 -57.95 Q83.0 -58.2 86.3 -56.65 L86.5 -56.6 87.65 -56.05 M111.15 -72.95 Q109.9 -73.65 108.45 -73.3 107.6 -73.1 106.75 -72.5 L106.3 -72.25 M111.25 -72.55 L111.3 -72.8 M104.55 -70.7 L105.5 -71.6 M106.2 -64.05 Q105.7 -65.05 104.8 -65.4 L104.6 -63.85 104.55 -63.3 M104.8 -65.4 Q106.55 -69.6 108.15 -69.85 108.9 -68.15 109.15 -66.4 M108.85 -65.5 L107.7 -63.0 107.65 -62.85 107.55 -62.8 107.7 -62.85 107.85 -62.95 M107.55 -62.8 L105.65 -60.8 104.95 -58.2 104.85 -58.2 104.2 -57.6 M98.75 -53.2 Q91.15 -48.15 85.2 -49.65 M103.6 -57.05 L98.75 -53.2" fill="none" stroke="#d7995e" stroke-linecap="round" stroke-linejoin="round" stroke-width="0.05"/>
    <path d="M78.25 -82.75 L78.3 -82.75" fill="none" stroke="#584338" stroke-linecap="round" stroke-linejoin="round" stroke-width="0.05"/>
    <path d="M114.7 -44.65 L116.5 -43.8 117.65 -43.1 121.25 -40.75 Q123.95 -40.8 127.1 -38.75 132.1 -35.7 135.3 -29.35 138.15 -23.75 138.15 -18.6 L138.1 -17.15 Q138.0 -15.35 137.55 -13.95 L137.5 -13.75 137.35 -13.45 137.95 -11.2 M98.2 68.9 L98.8 59.6 Q99.05 56.0 98.9 49.05 M97.15 38.35 L96.5 38.4 94.5 38.4 94.15 38.4 94.3 44.65 Q94.15 58.7 94.8 68.8 L94.8 68.9 M68.75 68.9 L68.05 63.95 71.0 47.15 Q72.0 41.7 73.0 28.3 73.3 23.25 74.15 19.5 L73.8 17.0 M75.25 -18.0 L73.65 -20.15 70.35 -8.25 69.45 -4.6 Q69.2 -1.25 64.3 2.3 L56.95 2.7 54.8 1.45 M60.7 -14.4 L63.0 -26.95 62.5 -28.95 62.3 -30.25 Q61.8 -34.9 63.9 -40.1 66.25 -46.0 70.5 -49.05 72.6 -50.65 74.6 -51.0 M74.8 -51.3 L75.0 -51.65 M119.7 -40.5 L121.25 -40.75 M63.0 -26.95 L63.35 -26.15 63.4 -26.0 63.8 -25.25 M70.1 -26.85 Q68.2 -32.0 68.8 -37.25 M60.4 -12.6 L60.7 -14.4 M59.8 -9.3 L60.4 -12.6 M59.8 -9.3 L59.6 -8.15 M70.1 -26.85 L71.55 -23.5 72.2 -22.45 73.65 -20.15 M120.4 -15.35 Q118.7 -17.45 117.35 -20.1 M121.45 -14.1 L120.4 -15.35 M78.45 43.8 L76.3 67.6 76.3 67.85 76.25 68.9 M93.8 38.4 L94.15 38.4 M106.0 65.2 L106.05 68.9 M74.15 19.5 L74.6 21.75" fill="none" stroke="#a0a0a0" stroke-linecap="round" stroke-linejoin="round" stroke-width="0.05"/>
    <path d="M73.8 17.0 L73.35 16.4 Q72.25 11.55 74.1 8.55 L74.35 8.1 74.8 7.55 M54.8 1.45 L54.8 1.5 54.3 1.35 Q52.95 1.45 50.55 -0.4 47.1 -2.95 46.5 -4.45 41.75 -7.75 40.2 -9.7 M40.45 -22.0 L41.15 -21.5 42.1 -20.5 43.6 -20.05 46.0 -18.95 47.9 -18.0 Q50.05 -18.25 52.05 -17.0 54.0 -15.8 55.2 -15.4 57.85 -15.85 60.15 -14.7 L60.7 -14.4 M55.2 -15.4 L55.0 -15.1 Q54.0 -13.55 53.3 -12.0 49.75 -6.6 50.2 -2.25 50.25 -1.3 50.55 -0.4 M40.85 -19.05 L40.9 -19.2 42.0 -20.35 42.1 -20.5 M46.5 -15.8 L47.7 -17.8 47.9 -18.0 M46.5 -15.8 Q44.25 -12.0 46.15 -5.55 L46.5 -4.45 M59.7 -8.05 L59.4 -7.7 Q56.9 -4.15 54.8 1.45 M40.85 -19.05 L40.2 -18.05 M85.35 23.45 L90.9 24.8 93.75 25.05 94.4 25.1 97.1 25.25 M77.8 20.25 L76.45 19.35 Q74.9 18.2 73.8 17.0 M85.35 23.45 Q80.85 22.1 77.8 20.25" fill="none" stroke="#3f2c27" stroke-linecap="round" stroke-linejoin="round" stroke-width="0.05"/>
    <path d="M136.8 55.65 L137.15 68.9 M121.9 68.6 L121.9 45.2 M136.9 -3.6 L136.8 11.9 M121.9 -3.0 L121.9 22.25" fill="none" stroke="#604b44" stroke-linecap="round" stroke-linejoin="round" stroke-width="0.05"/>
  </g>
</svg>
