<?xml version="1.0" encoding="UTF-8" standalone="no"?>
<svg xmlns:xlink="http://www.w3.org/1999/xlink" height="177.3px" width="126.5px" xmlns="http://www.w3.org/2000/svg">
  <g transform="matrix(1, 0, 0, 1, -21.8, 110.7)">
    <path d="M148.3 -63.35 L148.3 -45.15 Q145.9 -49.75 143.25 -52.7 L143.75 -57.8 136.2 -69.5 148.3 -63.35" fill="#cccccc" fill-rule="evenodd" stroke="none"/>
    <path d="M144.6 -104.25 L148.3 -107.9 148.3 -96.1 Q146.6 -91.45 146.35 -86.45 L148.3 -87.8 148.3 -83.7 132.15 -72.45 129.65 -73.7 130.4 -78.2 Q131.5 -83.65 133.85 -88.7 137.6 -96.9 144.6 -104.25 M142.65 -83.95 L146.35 -86.45 142.65 -83.95" fill="#634d4b" fill-rule="evenodd" stroke="none"/>
    <path d="M133.85 -88.7 Q131.5 -83.65 130.4 -78.2 L129.7 -78.6 127.95 -74.45 126.75 -74.95 125.45 -75.5 122.9 -75.5 119.6 -75.65 119.4 -75.65 116.5 -75.25 127.65 -92.9 133.85 -88.7 M132.15 -72.45 L148.3 -83.7 148.3 -80.2 133.85 -71.45 132.15 -72.45 M148.3 -87.8 L146.35 -86.45 Q146.6 -91.45 148.3 -96.1 L148.3 -87.8 M60.1 -78.5 L74.1 -87.95 87.6 -66.5 86.75 -66.05 Q84.2 -64.5 81.25 -62.35 L81.2 -62.35 79.1 -60.9 Q74.45 -66.95 72.05 -73.65 69.65 -72.4 67.45 -71.0 64.1 -75.15 60.1 -78.5 M21.8 -58.25 L51.2 -68.3 66.0 -51.0 62.6 -48.35 58.45 -43.35 Q52.2 -48.8 48.9 -54.5 L47.7 -56.75 Q36.6 -53.9 28.1 -49.9 36.6 -53.9 47.7 -56.75 L48.9 -54.5 Q46.25 -51.0 44.3 -47.15 41.5 -41.8 38.5 -39.45 32.1 -41.25 25.8 -42.15 26.65 -45.95 28.1 -49.9 L21.8 -46.65 21.8 -58.25 M21.8 -29.05 L40.4 -28.1 44.1 -33.95 52.4 -32.8 Q51.35 -30.2 50.75 -27.6 L50.65 -27.2 50.1 -23.25 49.95 -20.0 49.7 -19.65 Q33.65 -16.85 21.8 -18.15 L21.8 -29.05 M148.3 -21.3 L148.3 -13.2 148.3 0.6 146.0 -0.25 144.65 1.4 137.45 -0.3 138.35 4.0 140.15 12.1 148.3 16.55 148.3 29.55 Q138.35 23.7 126.75 13.85 L124.35 11.75 123.05 12.4 Q108.45 30.1 95.9 36.8 95.05 55.05 98.55 66.6 L86.3 66.6 85.15 33.8 111.2 12.8 111.05 5.85 111.0 3.65 111.0 3.0 116.5 2.1 120.65 -0.75 122.8 -0.8 Q124.95 -2.35 126.75 -4.4 L127.55 -5.35 Q129.1 -7.45 130.4 -10.05 L130.95 -10.25 Q134.4 -11.8 137.15 -13.75 L137.85 -14.3 141.8 -16.4 Q145.75 -18.75 148.3 -21.3 M130.0 0.3 L126.5 -1.25 124.1 -0.75 122.8 -0.8 124.1 -0.75 126.5 -1.25 130.0 0.3 Q129.6 -2.9 127.55 -5.35 129.6 -2.9 130.0 0.3 L138.35 4.0 130.0 0.3 M141.8 -16.4 L144.45 -14.35 145.4 -13.35 144.45 -14.35 141.8 -16.4 M146.0 -0.25 L141.9 -1.85 Q133.8 -7.7 141.5 -13.5 L145.4 -13.35 148.3 -13.2 145.4 -13.35 141.5 -13.5 Q133.8 -7.7 141.9 -1.85 L146.0 -0.25 M111.05 5.85 L111.4 5.6 116.5 2.1 111.4 5.6 111.05 5.85 M123.05 12.4 L123.9 11.35 124.35 11.75 123.9 11.35 123.05 12.4 M111.0 3.65 L111.4 5.6 111.0 3.65 M124.1 -0.75 Q116.15 1.3 120.65 8.45 L123.9 11.35 120.65 8.45 Q116.15 1.3 124.1 -0.75" fill="#3b2e2d" fill-rule="evenodd" stroke="none"/>
    <path d="M129.65 -73.7 L132.15 -72.45 133.85 -71.45 134.55 -71.05 135.65 -70.4 118.0 -55.7 Q107.45 -44.95 93.65 -40.85 L93.65 -40.8 Q85.9 -37.05 78.4 -34.95 L72.5 -33.5 63.8 -32.35 Q62.25 -37.1 61.8 -40.65 61.1 -45.6 62.6 -48.35 L66.0 -51.0 66.1 -51.1 66.1 -50.9 Q66.0 -42.95 66.7 -37.7 73.55 -39.3 80.1 -41.3 L91.15 -45.15 Q95.35 -46.5 99.4 -48.45 L99.55 -48.5 96.0 -63.65 95.95 -63.6 86.75 -66.05 87.6 -66.5 Q91.1 -68.55 93.85 -69.45 L94.65 -69.75 99.65 -67.8 119.6 -75.65 122.9 -75.5 125.45 -75.5 126.75 -74.95 127.95 -74.45 129.65 -73.7 M126.75 -73.4 L125.75 -74.0 125.4 -74.2 102.65 -63.7 105.5 -51.65 107.0 -52.55 Q113.35 -56.6 119.5 -62.1 123.2 -65.4 126.75 -69.2 L129.05 -71.75 127.25 -73.1 126.75 -73.4" fill="#9e3633" fill-rule="evenodd" stroke="none"/>
    <path d="M94.65 -69.75 L95.7 -70.2 97.7 -71.0 98.85 -71.45 100.75 -72.05 107.45 -73.8 116.5 -75.25 119.4 -75.65 119.6 -75.65 99.65 -67.8 94.65 -69.75 M66.1 -51.1 L66.2 -51.2 75.35 -58.2 79.1 -60.9 81.2 -62.35 81.25 -62.35 Q84.2 -64.5 86.75 -66.05 L95.95 -63.6 96.0 -63.65 99.55 -48.5 99.4 -48.45 Q95.35 -46.5 91.15 -45.15 L80.1 -41.3 Q73.55 -39.3 66.7 -37.7 66.0 -42.95 66.1 -50.9 L66.1 -51.1 M58.45 -43.35 L62.6 -48.35 Q61.1 -45.6 61.8 -40.65 62.25 -37.1 63.8 -32.35 L72.5 -33.5 78.4 -34.95 Q85.9 -37.05 93.65 -40.8 L93.65 -40.85 Q107.45 -44.95 118.0 -55.7 L135.65 -70.4 136.2 -69.5 143.75 -57.8 143.25 -52.7 Q145.9 -49.75 148.3 -45.15 L148.3 -21.3 Q145.75 -18.75 141.8 -16.4 L137.85 -14.3 140.45 -16.7 141.45 -17.75 Q143.3 -20.0 144.45 -22.65 L146.1 -27.35 Q147.3 -31.9 146.85 -36.2 146.55 -38.85 145.7 -41.4 144.8 -43.9 143.45 -45.9 L142.6 -46.55 141.95 -39.85 130.2 -31.8 121.4 -8.8 121.2 -8.7 119.45 -8.05 Q116.55 -6.95 113.75 -6.0 L113.45 -5.85 114.65 -6.0 Q119.1 -6.5 123.65 -7.7 L125.45 -8.25 126.1 -8.45 126.75 -8.65 130.4 -10.05 Q129.1 -7.45 127.55 -5.35 L126.75 -4.4 Q124.95 -2.35 122.8 -0.8 L120.65 -0.75 116.5 2.1 111.0 3.0 110.95 2.15 108.85 3.05 Q102.75 3.0 95.2 0.75 L104.45 -2.45 112.65 -5.55 113.45 -5.85 112.65 -5.55 104.45 -2.45 95.2 0.75 93.25 1.35 90.35 2.2 86.0 3.45 81.1 4.6 76.1 5.5 72.3 5.95 63.65 5.65 61.9 5.2 Q57.5 3.85 55.7 0.45 54.8 -1.25 54.55 -3.5 55.65 -1.8 56.9 -0.4 58.65 1.5 60.7 2.8 L61.95 2.95 63.2 3.05 Q72.15 3.5 82.4 1.15 L86.0 0.25 89.55 -0.8 90.0 -0.95 Q97.45 -3.35 105.55 -7.15 L111.35 -10.05 111.4 -10.1 111.45 -10.1 Q114.55 -11.65 117.8 -13.5 L127.95 -34.15 139.6 -42.05 140.65 -57.85 140.3 -58.45 Q137.75 -62.7 135.0 -66.0 L112.4 -46.05 104.85 -41.7 Q100.05 -39.1 95.75 -37.25 L95.7 -37.25 Q80.1 -30.05 69.65 -29.3 L58.3 -21.0 59.95 -32.6 Q57.45 -36.75 57.65 -42.3 L58.45 -43.35 M50.1 -23.25 L50.65 -27.2 53.4 -19.0 52.7 -12.75 50.1 -23.25 M58.7 -15.5 Q56.95 -16.4 55.85 -17.5 L54.5 -10.1 Q56.7 -6.35 59.7 -3.5 L61.35 -3.75 62.3 -3.95 63.6 -4.25 Q66.2 -5.05 68.45 -6.35 L64.1 -16.55 Q61.4 -15.3 58.7 -15.5 M59.7 -2.1 L59.6 -2.05 59.4 -2.3 Q55.35 -6.2 53.6 -9.8 L55.4 -19.1 58.5 -16.45 Q61.95 -16.35 64.7 -18.2 L70.1 -5.25 69.65 -5.0 Q68.15 -4.3 66.65 -3.75 L62.45 -2.6 61.95 -2.45 59.7 -2.1 M69.7 -9.05 L68.9 -14.75 92.9 -20.65 69.7 -9.05 M126.75 -73.4 L127.25 -73.1 129.05 -71.75 126.75 -69.2 Q123.2 -65.4 119.5 -62.1 113.35 -56.6 107.0 -52.55 L105.5 -51.65 102.65 -63.7 125.4 -74.2 125.75 -74.0 126.75 -73.4 M143.25 -52.7 L142.6 -46.55 143.25 -52.7" fill="#eed360" fill-rule="evenodd" stroke="none"/>
    <path d="M144.6 -104.25 Q137.6 -96.9 133.85 -88.7 L127.65 -92.9 116.5 -75.25 107.45 -73.8 105.95 -74.8 Q112.5 -98.6 125.15 -109.85 L126.75 -110.35 Q134.5 -112.2 144.6 -104.25 M60.1 -78.5 L55.45 -82.05 Q49.2 -84.1 41.4 -82.7 49.2 -84.1 55.45 -82.05 L60.1 -78.5 Q64.1 -75.15 67.45 -71.0 72.05 -65.35 75.35 -58.2 L66.2 -51.2 66.1 -51.1 66.0 -51.0 51.2 -68.3 21.8 -58.25 21.8 -75.4 Q32.55 -81.2 41.4 -82.7 62.9 -110.15 76.6 -104.9 89.15 -93.7 95.7 -70.2 L94.65 -69.75 93.85 -69.45 Q91.1 -68.55 87.6 -66.5 L74.1 -87.95 60.1 -78.5 M44.1 -33.95 L40.4 -28.1 21.8 -29.05 21.8 -42.65 25.8 -42.15 Q32.1 -41.25 38.5 -39.45 L46.05 -37.0 44.1 -33.95 M144.65 1.4 L148.3 2.45 148.3 16.55 140.15 12.1 138.35 4.0 137.45 -0.3 144.65 1.4 M86.3 66.6 L68.55 66.6 Q66.75 57.9 67.05 50.3 67.4 40.45 71.3 32.4 L72.5 30.1 Q80.8 20.3 91.15 13.0 93.05 11.65 95.05 10.45 L101.45 6.65 Q105.05 4.7 108.85 3.05 L110.95 2.15 111.0 3.0 111.0 3.65 111.05 5.85 111.2 12.8 85.15 33.8 86.3 66.6" fill="#b4b071" fill-rule="evenodd" stroke="none"/>
    <path d="M49.95 -20.0 L50.1 -23.25 52.7 -12.75 53.4 -19.0 50.65 -27.2 50.75 -27.6 Q51.35 -30.2 52.4 -32.8 54.25 -37.6 57.65 -42.3 57.45 -36.75 59.95 -32.6 L58.3 -21.0 Q57.45 -17.65 58.5 -16.45 L55.4 -19.1 53.6 -9.8 Q55.35 -6.2 59.4 -2.3 L59.6 -2.05 59.7 -2.1 60.7 2.8 Q58.65 1.5 56.9 -0.4 55.65 -1.8 54.55 -3.5 52.95 -6.1 51.65 -9.35 50.0 -14.6 49.95 -19.7 L49.95 -20.0" fill="#318477" fill-rule="evenodd" stroke="none"/>
    <path d="M49.7 -19.65 L49.95 -20.0 49.95 -19.7 Q50.0 -14.6 51.65 -9.35 52.95 -6.1 54.55 -3.5 54.8 -1.25 55.7 0.45 L48.55 5.8 51.2 0.3 50.25 -1.25 Q48.35 -3.9 45.4 -4.7 L42.25 -5.0 Q40.25 -5.0 37.95 -4.3 L37.45 -4.15 49.7 -19.65 M75.3 10.2 L76.1 5.5 81.1 4.6 86.0 3.45 90.35 2.2 93.25 1.35 95.2 0.75 Q102.75 3.0 108.85 3.05 105.05 4.7 101.45 6.65 L98.7 5.65 96.2 4.95 89.3 4.45 87.35 4.65 Q81.1 5.65 75.3 10.2" fill="#333333" fill-rule="evenodd" stroke="none"/>
    <path d="M36.45 -2.25 L35.65 -2.05 37.5 -4.1 37.45 -4.15 37.95 -4.3 Q40.25 -5.0 42.25 -5.0 L45.4 -4.7 Q48.35 -3.9 50.25 -1.25 L51.2 0.3 48.55 5.8 48.25 5.35 Q46.3 1.85 44.1 -0.05 40.6 -3.1 36.45 -2.25 M76.25 15.45 Q73.25 13.45 75.35 10.25 L75.3 10.2 Q81.1 5.65 87.35 4.65 L89.3 4.45 96.2 4.95 98.7 5.65 101.45 6.65 95.05 10.45 91.85 10.1 89.4 10.25 Q83.3 10.95 76.25 15.5 L76.25 15.45" fill="#666666" fill-rule="evenodd" stroke="none"/>
    <path d="M40.55 17.9 L36.6 17.8 Q35.15 14.5 34.75 8.95 L44.1 -0.05 Q46.3 1.85 48.25 5.35 L40.9 10.7 40.55 17.9 M95.05 10.45 Q93.05 11.65 91.15 13.0 L91.85 10.1 95.05 10.45" fill="#eaeaea" fill-rule="evenodd" stroke="none"/>
    <path d="M36.45 -2.25 Q40.6 -3.1 44.1 -0.05 L34.75 8.95 Q35.15 14.5 36.6 17.8 L40.55 17.9 40.55 22.8 Q39.55 35.45 34.2 34.2 L30.05 7.9 Q33.0 2.6 36.45 -2.25 M67.05 50.3 L62.8 52.6 Q57.35 47.1 63.3 39.3 L71.3 32.4 Q67.4 40.45 67.05 50.3 M72.5 30.1 L76.25 15.45 76.25 15.5 Q83.3 10.95 89.4 10.25 L91.85 10.1 91.15 13.0 Q80.8 20.3 72.5 30.1 M107.35 -37.55 L107.3 -37.65 107.35 -37.6 107.35 -37.55 M130.4 -10.05 L126.75 -8.65 126.1 -8.45 125.45 -8.25 123.65 -7.7 Q119.1 -6.5 114.65 -6.0 L113.45 -5.85 113.75 -6.0 Q116.55 -6.95 119.45 -8.05 L121.2 -8.7 121.4 -8.8 130.2 -31.8 141.95 -39.85 142.6 -46.55 143.45 -45.9 Q144.8 -43.9 145.7 -41.4 146.55 -38.85 146.85 -36.2 147.3 -31.9 146.1 -27.35 L144.45 -22.65 Q143.3 -20.0 141.45 -17.75 L140.45 -16.7 137.85 -14.3 137.15 -13.75 Q134.4 -11.8 130.95 -10.25 L130.4 -10.05" fill="#ffffff" fill-rule="evenodd" stroke="none"/>
    <path d="M58.5 -16.45 Q57.45 -17.65 58.3 -21.0 L69.65 -29.3 Q80.1 -30.05 95.7 -37.25 L95.75 -37.25 Q100.05 -39.1 104.85 -41.7 L112.4 -46.05 135.0 -66.0 Q137.75 -62.7 140.3 -58.45 L140.65 -57.85 139.6 -42.05 127.95 -34.15 117.8 -13.5 Q114.55 -11.65 111.45 -10.1 L111.4 -10.1 111.35 -10.05 105.55 -7.15 Q97.45 -3.35 90.0 -0.95 L89.55 -0.8 86.0 0.25 82.4 1.15 Q72.15 3.5 63.2 3.05 L61.95 2.95 60.7 2.8 59.7 -2.1 61.95 -2.45 62.45 -2.6 66.65 -3.75 Q68.15 -4.3 69.65 -5.0 L70.1 -5.25 64.7 -18.2 Q61.95 -16.35 58.5 -16.45 M69.7 -9.05 L92.9 -20.65 68.9 -14.75 69.7 -9.05 M109.75 -33.6 Q112.45 -28.4 114.15 -22.1 118.4 -25.05 118.7 -27.45 116.05 -32.7 110.65 -35.9 L107.35 -37.55 109.75 -33.6 M114.15 -22.1 Q121.55 -25.05 125.9 -38.0 L126.6 -40.1 126.75 -41.4 126.75 -42.4 126.5 -43.55 Q125.5 -46.1 120.65 -44.75 L107.35 -37.6 120.65 -44.75 Q125.5 -46.1 126.5 -43.55 L126.75 -42.4 126.75 -41.4 126.6 -40.1 125.9 -38.0 Q121.55 -25.05 114.15 -22.1 M107.35 -37.6 L107.3 -37.65 107.35 -37.55 107.35 -37.6" fill="#286e66" fill-rule="evenodd" stroke="none"/>
    <path d="M58.7 -15.5 Q61.4 -15.3 64.1 -16.55 L58.55 -11.3 58.55 -11.45 58.55 -13.5 Q58.55 -14.6 58.7 -15.5" fill="#e87171" fill-rule="evenodd" stroke="none"/>
    <path d="M54.5 -10.1 L55.85 -17.5 Q56.95 -16.4 58.7 -15.5 58.55 -14.6 58.55 -13.5 L58.55 -11.45 58.55 -11.3 54.5 -10.1" fill="#f2b0b0" fill-rule="evenodd" stroke="none"/>
    <path d="M64.1 -16.55 L68.45 -6.35 Q66.2 -5.05 63.6 -4.25 L62.3 -3.95 61.35 -3.75 59.7 -3.5 Q58.7 -8.05 58.55 -11.3 L64.1 -16.55" fill="#df3e3e" fill-rule="evenodd" stroke="none"/>
    <path d="M59.7 -3.5 Q56.7 -6.35 54.5 -10.1 L58.55 -11.3 Q58.7 -8.05 59.7 -3.5" fill="#ed9696" fill-rule="evenodd" stroke="none"/>
    <path d="M109.75 -33.6 L107.35 -37.55 110.65 -35.9 Q116.05 -32.7 118.7 -27.45 118.4 -25.05 114.15 -22.1 112.45 -28.4 109.75 -33.6" fill="#225e54" fill-rule="evenodd" stroke="none"/>
    <path d="M135.65 -70.4 L134.55 -71.05 133.85 -71.45 148.3 -80.2 148.3 -63.35 136.2 -69.5 135.65 -70.4" fill="#ebebeb" fill-rule="evenodd" stroke="none"/>
    <path d="M36.45 -2.25 Q33.0 2.6 30.05 7.9 L34.2 34.2 Q39.55 35.45 40.55 22.8 M67.05 50.3 L62.8 52.6 Q57.35 47.1 63.3 39.3 L71.3 32.4 M72.5 30.1 L76.25 15.45 M48.25 5.35 L40.9 10.7 40.55 17.9" fill="none" stroke="#666666" stroke-linecap="round" stroke-linejoin="round" stroke-width="0.05"/>
    <path d="M148.3 -107.9 L144.6 -104.25 Q137.6 -96.9 133.85 -88.7 131.5 -83.65 130.4 -78.2 L129.65 -73.7 M132.15 -72.45 L148.3 -83.7 M148.3 -87.8 L146.35 -86.45 142.65 -83.95 M148.3 -80.2 L133.85 -71.45" fill="none" stroke="#221a1a" stroke-linecap="round" stroke-linejoin="round" stroke-width="0.05"/>
    <path d="M129.65 -73.7 L132.15 -72.45 M87.6 -66.5 Q91.1 -68.55 93.85 -69.45 L94.65 -69.75 95.7 -70.2 M66.0 -51.0 L66.1 -51.1 M66.2 -51.2 L75.35 -58.2 79.1 -60.9 81.2 -62.35 M58.45 -43.35 L62.6 -48.35 66.0 -51.0 M81.25 -62.35 Q84.2 -64.5 86.75 -66.05 L87.6 -66.5 M49.7 -19.65 L49.95 -20.0 50.1 -23.25 50.65 -27.2 50.75 -27.6 Q51.35 -30.2 52.4 -32.8 M36.45 -2.25 L35.65 -2.05 37.5 -4.1 M37.45 -4.15 L49.7 -19.65 M48.55 5.8 L55.7 0.45 Q54.8 -1.25 54.55 -3.5 52.95 -6.1 51.65 -9.35 50.0 -14.6 49.95 -19.7 L49.95 -20.0 M135.65 -70.4 L134.55 -71.05 133.85 -71.45 132.15 -72.45 M57.65 -42.3 Q54.25 -37.6 52.4 -32.8 M57.65 -42.3 L58.45 -43.35 M95.7 -37.25 L95.75 -37.25 M111.4 -10.1 L111.35 -10.05 M44.1 -0.05 Q40.6 -3.1 36.45 -2.25 M40.55 22.8 L40.55 17.9 M44.1 -0.05 Q46.3 1.85 48.25 5.35 L48.55 5.8 M76.25 15.45 Q73.25 13.45 75.35 10.25 M75.3 10.2 L76.1 5.5 72.3 5.95 63.65 5.65 61.9 5.2 Q57.5 3.85 55.7 0.45 M116.5 -75.25 L119.4 -75.65 119.6 -75.65 122.9 -75.5 125.45 -75.5 126.75 -74.95 127.95 -74.45 M135.65 -70.4 L136.2 -69.5 143.75 -57.8 143.25 -52.7 Q145.9 -49.75 148.3 -45.15 M129.65 -73.7 L127.95 -74.45 M107.45 -73.8 L100.75 -72.05 98.85 -71.45 97.7 -71.0 95.7 -70.2 M116.5 -75.25 L107.45 -73.8 M109.75 -33.6 Q112.45 -28.4 114.15 -22.1 118.4 -25.05 118.7 -27.45 116.05 -32.7 110.65 -35.9 L107.35 -37.55 109.75 -33.6 M107.35 -37.6 L120.65 -44.75 Q125.5 -46.1 126.5 -43.55 L126.75 -42.4 126.75 -41.4 126.6 -40.1 125.9 -38.0 Q121.55 -25.05 114.15 -22.1 M107.35 -37.55 L107.3 -37.65 107.35 -37.6 M113.45 -5.85 L112.65 -5.55 104.45 -2.45 95.2 0.75 Q102.75 3.0 108.85 3.05 M111.0 3.0 L116.5 2.1 M122.8 -0.8 Q124.95 -2.35 126.75 -4.4 L127.55 -5.35 Q129.1 -7.45 130.4 -10.05 L126.75 -8.65 126.1 -8.45 125.45 -8.25 123.65 -7.7 Q119.1 -6.5 114.65 -6.0 L113.45 -5.85 113.75 -6.0 Q116.55 -6.95 119.45 -8.05 L121.2 -8.7 121.4 -8.8 130.2 -31.8 141.95 -39.85 142.6 -46.55 143.25 -52.7 M137.85 -14.3 L140.45 -16.7 141.45 -17.75 Q143.3 -20.0 144.45 -22.65 L146.1 -27.35 Q147.3 -31.9 146.85 -36.2 146.55 -38.85 145.7 -41.4 144.8 -43.9 143.45 -45.9 L142.6 -46.55 M130.4 -10.05 L130.95 -10.25 Q134.4 -11.8 137.15 -13.75 L137.85 -14.3 141.8 -16.4 Q145.75 -18.75 148.3 -21.3 M91.85 10.1 L95.05 10.45 M95.2 0.75 L93.25 1.35 90.35 2.2 86.0 3.45 81.1 4.6 76.1 5.5 M91.85 10.1 L89.4 10.25 Q83.3 10.95 76.25 15.5 L76.25 15.45" fill="none" stroke="#354544" stroke-linecap="round" stroke-linejoin="round" stroke-width="0.05"/>
    <path d="M66.1 -51.1 L66.2 -51.2 M95.95 -63.6 L96.0 -63.65" fill="none" stroke="#485b58" stroke-linecap="round" stroke-linejoin="round" stroke-width="0.05"/>
    <path d="M28.1 -49.9 Q36.6 -53.9 47.7 -56.75 L48.9 -54.5 Q52.2 -48.8 58.45 -43.35 M79.1 -60.9 Q74.45 -66.95 72.05 -73.65 69.65 -72.4 67.45 -71.0 M21.8 -18.15 Q33.65 -16.85 49.7 -19.65 M52.4 -32.8 L44.1 -33.95 M48.9 -54.5 Q46.25 -51.0 44.3 -47.15 41.5 -41.8 38.5 -39.45 M25.8 -42.15 Q26.65 -45.95 28.1 -49.9 L21.8 -46.65 M148.3 0.6 L146.0 -0.25 M148.3 29.55 Q138.35 23.7 126.75 13.85 L124.35 11.75 123.9 11.35 123.05 12.4 Q108.45 30.1 95.9 36.8 95.05 55.05 98.55 66.6 M127.95 -74.45 L129.7 -78.6 130.4 -78.2 M116.5 2.1 L120.65 -0.75 122.8 -0.8 124.1 -0.75 126.5 -1.25 130.0 0.3 138.35 4.0 M148.3 -13.2 L145.4 -13.35 141.5 -13.5 Q133.8 -7.7 141.9 -1.85 L146.0 -0.25 M116.5 2.1 L111.4 5.6 111.05 5.85 M123.9 11.35 L120.65 8.45 Q116.15 1.3 124.1 -0.75" fill="none" stroke="#482424" stroke-linecap="round" stroke-linejoin="round" stroke-width="0.05"/>
    <path d="M146.0 -0.25 L144.65 1.4 M124.35 11.75 L123.05 12.4 M130.0 0.3 Q129.6 -2.9 127.55 -5.35 M145.4 -13.35 L144.45 -14.35 141.8 -16.4 M111.4 5.6 L111.0 3.65" fill="none" stroke="#898801" stroke-linecap="round" stroke-linejoin="round" stroke-width="0.05"/>
    <path d="M107.45 -73.8 L105.95 -74.8 Q112.5 -98.6 125.15 -109.85 L126.75 -110.35 Q134.5 -112.2 144.6 -104.25 M41.4 -82.7 Q49.2 -84.1 55.45 -82.05 L60.1 -78.5 74.1 -87.95 87.6 -66.5 M95.7 -70.2 Q89.15 -93.7 76.6 -104.9 62.9 -110.15 41.4 -82.7 32.55 -81.2 21.8 -75.4 M21.8 -58.25 L51.2 -68.3 66.0 -51.0 M75.35 -58.2 Q72.05 -65.35 67.45 -71.0 64.1 -75.15 60.1 -78.5 M44.1 -33.95 L40.4 -28.1 21.8 -29.05 M44.1 -33.95 L46.05 -37.0 38.5 -39.45 Q32.1 -41.25 25.8 -42.15 L21.8 -42.65 M144.65 1.4 L148.3 2.45 M68.55 66.6 Q66.75 57.9 67.05 50.3 M71.3 32.4 L72.5 30.1 M133.85 -88.7 L127.65 -92.9 116.5 -75.25 M108.85 3.05 L110.95 2.15 111.0 3.0 M144.65 1.4 L137.45 -0.3 138.35 4.0 140.15 12.1 148.3 16.55 M111.05 5.85 L111.2 12.8 85.15 33.8 86.3 66.6 M111.05 5.85 L111.0 3.65 111.0 3.0 M108.85 3.05 Q105.05 4.7 101.45 6.65 L95.05 10.45 Q93.05 11.65 91.15 13.0 80.8 20.3 72.5 30.1 M71.3 32.4 Q67.4 40.45 67.05 50.3" fill="none" stroke="#28513d" stroke-linecap="round" stroke-linejoin="round" stroke-width="0.05"/>
  </g>
</svg>
