<?xml version="1.0" encoding="UTF-8" standalone="no"?>
<svg xmlns:xlink="http://www.w3.org/1999/xlink" height="175.65px" width="123.1px" xmlns="http://www.w3.org/2000/svg">
  <g transform="matrix(1, 0, 0, 1, -31.0, 102.15)">
    <path d="M50.9 -75.0 L56.1 -80.6 51.4 -74.95 50.9 -75.0 M98.65 -60.7 L100.3 -58.55 101.35 -56.65 99.75 -56.1 97.75 -55.2 Q98.45 -57.75 98.65 -60.7 M104.9 -57.9 Q104.85 -59.15 105.1 -60.35 105.5 -62.4 106.5 -63.5 L108.15 -65.65 Q108.35 -62.3 109.25 -59.45 L104.9 -57.9 M154.1 -27.45 L154.1 -24.15 154.0 -23.95 152.95 -22.1 Q150.85 -21.85 149.1 -20.8 L148.75 -20.6 149.1 -20.8 Q150.85 -21.85 152.95 -22.1 L154.0 -23.95 154.1 -23.9 154.1 -22.25 154.1 -12.05 Q152.25 -10.8 151.1 -9.25 149.45 -7.2 149.2 -4.65 148.95 -2.25 149.95 0.65 L154.1 1.65 154.1 7.75 151.45 7.1 148.75 6.3 148.2 7.1 144.95 5.1 Q140.5 5.1 137.5 6.25 135.0 7.15 133.45 8.9 L132.6 9.95 Q131.45 11.6 131.0 13.9 L154.1 29.75 154.1 37.25 129.05 19.85 126.75 18.1 Q124.6 19.15 122.05 19.15 117.6 19.15 114.55 16.1 L113.55 15.0 Q113.3 19.0 110.45 21.75 107.35 24.85 102.95 24.85 L99.9 24.4 92.8 28.4 65.6 43.7 65.35 49.9 Q61.65 44.9 61.05 41.5 59.9 34.9 70.15 34.15 L102.4 16.3 Q100.65 11.35 95.1 9.15 L93.85 8.7 Q94.5 7.65 95.45 6.7 96.8 5.35 98.5 4.6 96.8 5.35 95.45 6.7 94.5 7.65 93.85 8.7 L92.6 8.35 95.1 6.4 95.15 6.4 96.95 4.9 98.5 4.6 Q100.5 3.7 102.95 3.7 L103.0 3.7 Q108.95 2.35 114.4 0.6 L115.45 0.25 Q114.95 0.6 114.55 1.05 111.65 3.9 111.45 7.85 112.5 9.25 113.05 10.9 113.55 12.45 113.6 14.25 L113.55 15.0 113.6 14.25 Q113.55 12.45 113.05 10.9 112.5 9.25 111.45 7.85 111.65 3.9 114.55 1.05 114.95 0.6 115.45 0.25 118.0 -1.8 121.35 -1.95 L121.95 -2.2 Q127.45 -4.5 132.25 -7.3 L133.8 -8.25 132.4 -7.05 Q129.3 -3.95 129.3 0.45 129.3 -3.95 132.4 -7.05 L133.8 -8.25 134.75 -8.85 Q140.5 -12.55 145.3 -17.1 145.95 -18.2 146.95 -19.2 L148.75 -20.6 149.05 -20.9 152.5 -25.2 154.1 -27.45 M64.6 67.95 L64.4 73.5 63.0 73.5 64.6 67.95 M57.1 22.1 Q55.1 18.6 57.5 13.85 L58.1 12.75 58.5 13.25 58.75 13.6 Q60.8 14.95 62.95 15.85 L62.95 15.9 Q60.6 18.85 59.65 20.9 L57.1 22.1 M56.95 -14.05 L54.4 -13.75 31.0 -12.1 31.0 -18.1 54.3 -19.6 Q54.85 -24.85 50.75 -29.2 L54.25 -29.3 Q56.2 -29.45 58.15 -28.55 59.25 -28.05 60.1 -27.25 57.2 -23.05 57.9 -15.85 L56.95 -14.05 M67.95 -32.45 L46.05 -51.2 31.0 -39.45 31.0 -47.45 31.0 -51.45 38.65 -53.9 Q44.7 -61.45 48.75 -59.95 50.8 -59.25 52.4 -56.15 L53.65 -53.0 72.15 -36.9 71.8 -36.35 Q69.65 -34.5 67.95 -32.45 M31.0 -47.45 L44.15 -52.85 46.05 -51.2 44.15 -52.85 31.0 -47.45 M64.8 -65.9 L62.25 -68.5 65.5 -70.55 Q72.75 -87.3 77.05 -70.8 L92.35 -52.85 Q89.35 -51.7 86.7 -50.2 L69.75 -69.8 64.8 -65.9 M140.65 -77.0 L139.55 -72.75 137.05 -74.75 128.65 -65.05 118.3 -62.3 129.7 -75.75 Q133.8 -91.5 140.65 -77.0 M129.15 0.7 Q126.15 -2.0 122.05 -2.0 L121.35 -1.95 122.05 -2.0 Q126.15 -2.0 129.15 0.7 L129.3 0.85 129.3 0.45 129.15 0.7 M134.75 -8.85 Q137.0 -10.1 139.9 -10.1 L142.9 -9.7 Q140.75 -8.6 140.45 -5.9 140.1 -2.75 142.35 0.7 144.6 4.2 148.1 5.95 L148.75 6.3 148.1 5.95 Q144.6 4.2 142.35 0.7 140.1 -2.75 140.45 -5.9 140.75 -8.6 142.9 -9.7 L139.9 -10.1 Q137.0 -10.1 134.75 -8.85 M143.95 -10.1 Q143.85 -10.85 143.9 -11.65 143.85 -14.7 145.3 -17.1 143.85 -14.7 143.9 -11.65 143.85 -10.85 143.95 -10.1 145.55 -10.5 147.4 -10.05 L151.1 -9.25 147.4 -10.05 Q145.55 -10.5 143.95 -10.1 L143.5 -9.95 142.9 -9.7 143.5 -9.95 143.95 -10.1 M152.95 -22.1 L154.1 -22.25 152.95 -22.1 M126.75 18.1 L126.25 17.55 Q123.65 14.7 123.25 10.9 122.75 7.15 124.8 4.7 126.8 2.3 130.1 2.6 L130.95 2.7 Q132.6 3.05 134.05 4.1 L137.5 6.25 134.05 4.1 Q132.6 3.05 130.95 2.7 L130.1 2.6 Q126.8 2.3 124.8 4.7 122.75 7.15 123.25 10.9 123.65 14.7 126.25 17.55 L126.75 18.1 M130.95 2.7 L130.3 1.85 129.55 1.05 129.3 0.85 129.55 1.05 130.3 1.85 130.95 2.7 M99.9 24.4 L105.0 21.55 Q106.4 21.0 107.55 19.85 109.8 17.6 109.8 14.35 109.85 11.15 107.55 8.85 105.3 6.65 102.05 6.6 99.95 6.6 98.25 7.6 L95.1 9.15 98.25 7.6 Q99.95 6.6 102.05 6.6 105.3 6.65 107.55 8.85 109.85 11.15 109.8 14.35 109.8 17.6 107.55 19.85 106.4 21.0 105.0 21.55 L99.9 24.4 M111.45 7.85 L110.45 6.7 Q107.35 3.7 103.0 3.7 107.35 3.7 110.45 6.7 L111.45 7.85" fill="#742d3b" fill-rule="evenodd" stroke="none"/>
    <path d="M50.9 -75.0 L51.4 -74.95 56.1 -80.6 65.65 -92.6 Q73.95 -101.65 81.05 -92.8 L98.3 -69.05 Q98.85 -64.55 98.65 -60.7 98.45 -57.75 97.75 -55.2 L96.55 -54.6 95.15 -53.8 92.35 -52.85 77.05 -70.8 Q72.75 -87.3 65.5 -70.55 L62.25 -68.5 64.8 -65.9 81.0 -49.5 81.25 -46.7 Q75.9 -42.6 72.15 -36.9 L53.65 -53.0 52.4 -56.15 Q50.8 -59.25 48.75 -59.95 44.7 -61.45 38.65 -53.9 L31.0 -51.45 31.0 -65.75 40.25 -72.05 Q45.9 -75.4 50.9 -75.0 M108.15 -65.65 Q107.9 -69.5 108.5 -74.0 L125.75 -97.75 Q132.8 -106.6 141.1 -97.55 L145.9 -91.55 Q143.05 -87.15 141.8 -80.9 L141.7 -80.5 140.65 -77.0 Q133.8 -91.5 129.7 -75.75 L118.3 -62.3 109.25 -59.45 Q108.35 -62.3 108.15 -65.65 M154.1 -58.4 L154.1 -46.95 153.25 -46.55 Q148.45 -44.4 143.75 -41.85 L143.05 -41.45 138.35 -38.75 135.65 -37.15 Q120.85 -25.45 116.2 -9.65 L102.4 -4.55 101.55 -6.4 105.45 -9.0 Q108.6 -11.4 108.2 -12.4 107.75 -13.55 104.0 -12.65 101.9 -12.2 99.4 -11.2 L97.9 -14.55 Q114.7 -23.1 120.45 -36.85 124.7 -44.75 136.9 -51.2 L138.1 -51.85 142.6 -54.0 149.55 -56.8 154.1 -58.4 M154.1 -12.05 L154.1 1.65 149.95 0.65 Q148.95 -2.25 149.2 -4.65 149.45 -7.2 151.1 -9.25 152.25 -10.8 154.1 -12.05 M148.2 7.1 L154.1 10.7 154.1 29.75 131.0 13.9 Q131.45 11.6 132.6 9.95 L133.45 8.9 Q135.0 7.15 137.5 6.25 140.5 5.1 144.95 5.1 L148.2 7.1 M65.75 50.45 L68.65 53.95 64.6 67.95 63.0 73.5 58.7 73.5 Q60.05 72.0 60.55 69.25 61.5 63.45 63.25 62.7 L62.45 59.95 Q59.6 61.25 59.2 66.55 58.55 72.0 54.5 73.3 L54.5 73.5 51.35 73.5 Q48.6 72.6 47.8 67.8 47.0 62.55 44.75 61.75 L44.55 60.25 44.05 55.75 42.55 43.25 Q40.8 30.45 53.8 23.65 L57.1 22.1 59.65 20.9 61.75 19.9 67.4 17.2 87.55 7.55 92.6 8.35 93.85 8.7 95.1 9.15 Q100.65 11.35 102.4 16.3 L70.15 34.15 Q59.9 34.9 61.05 41.5 61.65 44.9 65.35 49.9 L65.75 50.45 M47.95 73.5 L47.05 73.5 45.25 66.15 45.15 65.45 Q46.1 66.8 47.0 70.75 47.35 72.4 47.95 73.5 M31.0 -18.1 L31.0 -33.85 44.6 -33.95 Q48.4 -31.75 50.75 -29.2 54.85 -24.85 54.3 -19.6 L31.0 -18.1 M62.25 -68.5 L60.1 -70.7 Q56.0 -74.45 51.4 -74.95 56.0 -74.45 60.1 -70.7 L62.25 -68.5 M55.0 58.85 Q53.55 56.45 51.8 56.4 50.0 56.4 48.95 58.8 47.85 61.2 48.1 64.6 48.4 67.95 49.8 70.3 51.25 72.7 53.05 72.7 54.8 72.75 55.9 70.35 57.0 68.0 56.75 64.6 56.5 61.2 55.0 58.85" fill="#dc7b77" fill-rule="evenodd" stroke="none"/>
    <path d="M154.1 -93.25 L154.1 -87.95 151.75 -84.4 151.7 -84.35 Q148.1 -78.55 145.95 -72.55 L144.7 -68.7 144.45 -67.75 143.95 -67.7 141.45 -67.4 138.3 -66.95 139.55 -72.75 140.65 -77.0 141.7 -80.5 141.1 -76.05 140.8 -72.65 142.05 -75.05 Q145.45 -81.4 149.45 -87.05 L154.1 -93.25 M154.1 -67.05 L154.1 -61.7 149.9 -60.35 142.75 -57.65 137.5 -55.35 136.95 -55.1 Q132.9 -53.3 128.95 -51.15 123.15 -48.0 118.8 -41.3 L118.15 -40.25 118.5 -41.4 118.55 -41.45 Q120.6 -47.9 120.25 -55.3 L120.1 -57.05 113.7 -56.9 110.35 -56.7 107.65 -56.45 107.1 -56.35 105.05 -56.1 101.65 -55.5 100.0 -55.1 101.65 -55.7 104.95 -56.9 109.6 -58.4 116.6 -60.35 126.55 -62.6 137.95 -64.75 143.95 -65.7 150.85 -66.65 154.1 -67.05 M154.1 -43.6 L154.1 -27.45 152.5 -25.2 149.05 -20.9 148.75 -20.6 146.95 -19.2 Q145.95 -18.2 145.3 -17.1 140.5 -12.55 134.75 -8.85 L133.8 -8.25 132.25 -7.3 Q127.45 -4.5 121.95 -2.2 L121.35 -1.95 Q118.0 -1.8 115.45 0.25 L114.4 0.6 Q108.95 2.35 103.0 3.7 L102.95 3.7 Q100.5 3.7 98.5 4.6 L96.95 4.9 95.15 6.4 95.1 6.4 92.6 8.35 87.55 7.55 67.4 17.2 64.15 16.35 Q73.45 16.55 82.5 7.3 74.3 13.7 58.75 13.6 L58.5 13.25 58.1 12.75 57.5 13.85 Q42.45 23.4 40.65 36.0 39.3 45.45 31.0 54.75 L31.0 39.2 33.0 31.7 Q37.35 14.65 53.55 3.05 L53.3 1.05 Q52.85 -4.35 55.2 -10.4 55.4 -5.4 54.0 -1.15 L53.85 1.0 54.1 2.65 Q54.3 3.4 54.8 3.85 L54.55 2.65 Q54.45 1.7 54.7 0.75 57.75 -5.7 55.95 -12.1 L56.95 -14.05 57.9 -15.85 62.35 -23.45 64.05 -26.15 Q63.15 -24.2 62.6 -22.1 62.75 -20.15 61.85 -18.25 61.1 -12.55 62.4 -5.8 L62.35 -5.75 62.4 -5.75 Q83.95 -7.5 97.9 -14.55 L99.4 -11.2 Q97.55 -10.5 95.5 -9.5 90.65 -7.25 87.45 -4.95 84.35 -2.6 84.75 -1.55 85.2 -0.45 88.9 -1.25 92.65 -2.1 97.55 -4.35 L101.55 -6.4 102.4 -4.55 119.65 -6.95 Q121.8 -21.05 138.35 -34.55 L139.3 -35.25 144.35 -38.6 Q148.35 -40.95 154.1 -43.6 M92.8 28.4 Q85.95 45.8 65.75 50.45 L65.35 49.9 65.6 43.7 92.8 28.4 M44.55 60.25 Q39.55 65.1 35.85 72.25 39.0 62.7 44.05 55.75 L44.55 60.25 M60.3 -1.4 Q58.9 -1.45 57.9 -0.5 56.95 0.5 56.95 2.0 56.95 3.4 57.9 4.35 58.7 5.1 59.7 5.3 L60.3 5.35 Q61.75 5.3 62.7 4.35 63.7 3.4 63.7 2.0 63.7 0.5 62.7 -0.5 62.0 -1.2 61.05 -1.4 L60.3 -1.4 M76.75 0.6 Q70.35 -3.0 66.1 3.8 63.5 7.95 60.6 9.25 63.7 10.5 67.45 6.1 71.15 1.7 76.75 0.6 M58.1 12.75 Q54.45 8.25 53.55 3.05 54.45 8.25 58.1 12.75" fill="#ebebeb" fill-rule="evenodd" stroke="none"/>
    <path d="M101.35 -56.65 L102.35 -56.95 104.9 -57.9 109.25 -59.45 118.3 -62.3 128.65 -65.05 138.3 -66.95 141.45 -67.4 143.95 -67.7 144.45 -67.75 151.15 -68.3 154.1 -68.4 154.1 -67.05 150.85 -66.65 143.95 -65.7 137.95 -64.75 126.55 -62.6 116.6 -60.35 109.6 -58.4 104.95 -56.9 101.65 -55.7 100.0 -55.1 98.2 -54.65 97.55 -54.5 97.45 -54.5 96.75 -54.25 95.15 -53.8 96.55 -54.6 97.75 -55.2 99.75 -56.1 101.35 -56.65 M154.1 -61.7 L154.1 -58.4 149.55 -56.8 142.6 -54.0 138.1 -51.85 136.9 -51.2 Q124.7 -44.75 120.45 -36.85 114.7 -23.1 97.9 -14.55 83.95 -7.5 62.4 -5.75 L62.4 -5.8 Q61.1 -12.55 61.85 -18.25 62.75 -20.15 62.6 -22.1 63.15 -24.2 64.05 -26.15 L64.1 -26.25 Q65.55 -29.55 67.9 -32.45 L67.95 -32.45 Q69.65 -34.5 71.8 -36.35 L69.1 -31.5 Q64.65 -22.1 63.6 -9.2 L63.6 -9.15 Q86.5 -11.15 102.75 -21.05 114.15 -29.15 118.15 -40.25 L118.8 -41.3 Q123.15 -48.0 128.95 -51.15 132.9 -53.3 136.95 -55.1 L137.5 -55.35 142.75 -57.65 149.9 -60.35 154.1 -61.7 M154.1 -46.95 L154.1 -43.6 Q148.35 -40.95 144.35 -38.6 L139.3 -35.25 138.35 -34.55 Q121.8 -21.05 119.65 -6.95 L102.4 -4.55 116.2 -9.65 Q120.85 -25.45 135.65 -37.15 L138.35 -38.75 143.05 -41.45 143.75 -41.85 Q148.45 -44.4 153.25 -46.55 L154.1 -46.95 M55.2 -10.4 L55.95 -12.1 Q57.75 -5.7 54.7 0.75 54.45 1.7 54.55 2.65 L54.8 3.85 Q54.3 3.4 54.1 2.65 L53.85 1.0 54.0 -1.15 Q55.4 -5.4 55.2 -10.4 M62.4 -5.8 L63.6 -9.15 62.4 -5.8 M76.75 0.6 Q71.15 1.7 67.45 6.1 63.7 10.5 60.6 9.25 63.5 7.95 66.1 3.8 70.35 -3.0 76.75 0.6" fill="#b1dcc5" fill-rule="evenodd" stroke="none"/>
    <path d="M60.1 -27.25 Q62.6 -31.0 67.9 -32.45 65.55 -29.55 64.1 -26.25 L64.05 -26.15 62.35 -23.45 57.9 -15.85 Q57.2 -23.05 60.1 -27.25 M60.3 -1.4 L61.05 -1.4 Q62.0 -1.2 62.7 -0.5 63.7 0.5 63.7 2.0 63.7 3.4 62.7 4.35 61.75 5.3 60.3 5.35 L59.7 5.3 Q58.7 5.1 57.9 4.35 56.95 3.4 56.95 2.0 56.95 0.5 57.9 -0.5 58.9 -1.45 60.3 -1.4 M101.55 -6.4 L97.55 -4.35 Q92.65 -2.1 88.9 -1.25 85.2 -0.45 84.75 -1.55 84.35 -2.6 87.45 -4.95 90.65 -7.25 95.5 -9.5 97.55 -10.5 99.4 -11.2 101.9 -12.2 104.0 -12.65 107.75 -13.55 108.2 -12.4 108.6 -11.4 105.45 -9.0 L101.55 -6.4 M86.6 -2.45 Q95.0 -7.35 94.2 -4.7 95.0 -7.35 86.6 -2.45 M64.15 16.35 L62.95 15.85 Q60.8 14.95 58.75 13.6 74.3 13.7 82.5 7.3 73.45 16.55 64.15 16.35" fill="#d28a5f" fill-rule="evenodd" stroke="none"/>
    <path d="M86.7 -50.2 Q89.35 -51.7 92.35 -52.85 L95.15 -53.8 96.75 -54.25 97.45 -54.5 97.55 -54.5 98.2 -54.65 100.0 -55.1 101.65 -55.5 105.05 -56.1 107.1 -56.35 107.65 -56.45 110.35 -56.7 113.7 -56.9 120.1 -57.05 120.25 -55.3 Q120.6 -47.9 118.55 -41.45 L118.5 -41.4 118.15 -40.25 Q114.15 -29.15 102.75 -21.05 86.5 -11.15 63.6 -9.15 L63.6 -9.2 Q64.65 -22.1 69.1 -31.5 L71.8 -36.35 72.15 -36.9 Q75.9 -42.6 81.25 -46.7 83.75 -48.65 86.7 -50.2 M55.0 58.85 Q56.5 61.2 56.75 64.6 57.0 68.0 55.9 70.35 54.8 72.75 53.05 72.7 51.25 72.7 49.8 70.3 48.4 67.95 48.1 64.6 47.85 61.2 48.95 58.8 50.0 56.4 51.8 56.4 53.55 56.45 55.0 58.85" fill="#e6e497" fill-rule="evenodd" stroke="none"/>
    <path d="M145.9 -91.55 Q149.05 -96.5 154.1 -99.15 L154.1 -93.25 149.45 -87.05 Q145.45 -81.4 142.05 -75.05 L140.8 -72.65 141.1 -76.05 141.7 -80.5 141.8 -80.9 Q143.05 -87.15 145.9 -91.55 M154.1 -79.3 L154.1 -68.4 151.15 -68.3 151.3 -69.2 Q152.4 -74.6 154.1 -79.3 M58.7 73.5 L54.5 73.5 54.5 73.3 Q58.55 72.0 59.2 66.55 59.6 61.25 62.45 59.95 L63.25 62.7 Q61.5 63.45 60.55 69.25 60.05 72.0 58.7 73.5 M51.35 73.5 L47.95 73.5 Q47.35 72.4 47.0 70.75 46.1 66.8 45.15 65.45 L44.75 61.75 Q47.0 62.55 47.8 67.8 48.6 72.6 51.35 73.5" fill="#aeddc9" fill-rule="evenodd" stroke="none"/>
    <path d="M154.1 -87.95 L154.1 -79.3 Q152.4 -74.6 151.3 -69.2 L151.15 -68.3 144.45 -67.75 144.7 -68.7 145.95 -72.55 Q148.1 -78.55 151.7 -84.35 L151.75 -84.4 154.1 -87.95 M154.1 -24.15 L154.1 -23.9 154.0 -23.95 154.1 -24.15" fill="#e17976" fill-rule="evenodd" stroke="none"/>
    <path d="M67.4 17.2 L61.75 19.9 Q62.05 18.25 62.95 15.9 L62.95 15.85 64.15 16.35 67.4 17.2" fill="#e1cad7" fill-rule="evenodd" stroke="none"/>
    <path d="M50.9 -75.0 L51.4 -74.95 56.1 -80.6 65.65 -92.6 Q73.95 -101.65 81.05 -92.8 L98.3 -69.05 Q98.85 -64.55 98.65 -60.7 M108.15 -65.65 Q107.9 -69.5 108.5 -74.0 L125.75 -97.75 Q132.8 -106.6 141.1 -97.55 L145.9 -91.55 M148.2 7.1 L154.1 10.7 M65.75 50.45 L68.65 53.95 64.6 67.95 63.0 73.5 M45.25 66.15 L45.15 65.45 44.75 61.75 44.55 60.25 44.05 55.75 42.55 43.25 Q40.8 30.45 53.8 23.65 L57.1 22.1 M31.0 -33.85 L44.6 -33.95 Q48.4 -31.75 50.75 -29.2 M31.0 -65.75 L40.25 -72.05 Q45.9 -75.4 50.9 -75.0 M53.65 -53.0 L52.4 -56.15 Q50.8 -59.25 48.75 -59.95 44.7 -61.45 38.65 -53.9 L31.0 -51.45 M92.35 -52.85 L77.05 -70.8 Q72.75 -87.3 65.5 -70.55 L62.25 -68.5 64.8 -65.9 81.0 -49.5 81.25 -46.7 M97.75 -55.2 Q98.45 -57.75 98.65 -60.7 M51.4 -74.95 Q56.0 -74.45 60.1 -70.7 L62.25 -68.5 M72.15 -36.9 L53.65 -53.0 M31.0 -18.1 L54.3 -19.6 Q54.85 -24.85 50.75 -29.2 M144.45 -67.75 L144.7 -68.7 145.95 -72.55 Q148.1 -78.55 151.7 -84.35 L151.75 -84.4 154.1 -87.95 M118.3 -62.3 L129.7 -75.75 Q133.8 -91.5 140.65 -77.0 M109.25 -59.45 Q108.35 -62.3 108.15 -65.65 M154.0 -23.95 L154.1 -23.9 M154.1 -12.05 Q152.25 -10.8 151.1 -9.25 149.45 -7.2 149.2 -4.65 148.95 -2.25 149.95 0.65 L154.1 1.65 M137.5 6.25 Q140.5 5.1 144.95 5.1 L148.2 7.1 M154.1 29.75 L131.0 13.9 Q131.45 11.6 132.6 9.95 L133.45 8.9 Q135.0 7.15 137.5 6.25 M93.85 8.7 L95.1 9.15 Q100.65 11.35 102.4 16.3 L70.15 34.15 Q59.9 34.9 61.05 41.5 61.65 44.9 65.35 49.9 L65.75 50.45 M92.6 8.35 L93.85 8.7 M92.6 8.35 L87.55 7.55 67.4 17.2 61.75 19.9 59.65 20.9 57.1 22.1 M45.15 65.45 Q46.1 66.8 47.0 70.75 M51.35 73.5 Q48.6 72.6 47.8 67.8 47.0 62.55 44.75 61.75" fill="none" stroke="#932222" stroke-linecap="round" stroke-linejoin="round" stroke-width="0.05"/>
    <path d="M56.1 -80.6 L50.9 -75.0 M98.65 -60.7 L100.3 -58.55 101.35 -56.65 M104.9 -57.9 Q104.85 -59.15 105.1 -60.35 105.5 -62.4 106.5 -63.5 L108.15 -65.65 M154.1 7.75 L151.45 7.1 148.75 6.3 148.2 7.1 M154.1 37.25 L129.05 19.85 126.75 18.1 Q124.6 19.15 122.05 19.15 117.6 19.15 114.55 16.1 L113.55 15.0 Q113.3 19.0 110.45 21.75 107.35 24.85 102.95 24.85 L99.9 24.4 92.8 28.4 M64.6 67.95 L64.4 73.5 M47.05 73.5 L45.25 66.15 M57.1 22.1 Q55.1 18.6 57.5 13.85 M56.95 -14.05 L54.4 -13.75 31.0 -12.1 M50.75 -29.2 L54.25 -29.3 Q56.2 -29.45 58.15 -28.55 59.25 -28.05 60.1 -27.25 M67.95 -32.45 L46.05 -51.2 31.0 -39.45 M46.05 -51.2 L44.15 -52.85 31.0 -47.45 M64.8 -65.9 L69.75 -69.8 86.7 -50.2 M139.55 -72.75 L137.05 -74.75 128.65 -65.05 M154.1 -27.45 L152.5 -25.2 149.05 -20.9 148.75 -20.6 149.1 -20.8 Q150.85 -21.85 152.95 -22.1 L154.0 -23.95 154.1 -24.15 M133.8 -8.25 L132.25 -7.3 Q127.45 -4.5 121.95 -2.2 L121.35 -1.95 122.05 -2.0 Q126.15 -2.0 129.15 0.7 L129.3 0.85 129.55 1.05 130.3 1.85 130.95 2.7 130.1 2.6 Q126.8 2.3 124.8 4.7 122.75 7.15 123.25 10.9 123.65 14.7 126.25 17.55 L126.75 18.1 M129.3 0.45 Q129.3 -3.95 132.4 -7.05 L133.8 -8.25 134.75 -8.85 Q140.5 -12.55 145.3 -17.1 145.95 -18.2 146.95 -19.2 L148.75 -20.6 M148.75 6.3 L148.1 5.95 Q144.6 4.2 142.35 0.7 140.1 -2.75 140.45 -5.9 140.75 -8.6 142.9 -9.7 L139.9 -10.1 Q137.0 -10.1 134.75 -8.85 M154.1 -22.25 L152.95 -22.1 M151.1 -9.25 L147.4 -10.05 Q145.55 -10.5 143.95 -10.1 L143.5 -9.95 142.9 -9.7 M145.3 -17.1 Q143.85 -14.7 143.9 -11.65 143.85 -10.85 143.95 -10.1 M137.5 6.25 L134.05 4.1 Q132.6 3.05 130.95 2.7 M129.3 0.45 L129.3 0.85 M115.45 0.25 Q114.95 0.6 114.55 1.05 111.65 3.9 111.45 7.85 112.5 9.25 113.05 10.9 113.55 12.45 113.6 14.25 L113.55 15.0 M115.45 0.25 L114.4 0.6 Q108.95 2.35 103.0 3.7 107.35 3.7 110.45 6.7 L111.45 7.85 M95.1 9.15 L98.25 7.6 Q99.95 6.6 102.05 6.6 105.3 6.65 107.55 8.85 109.85 11.15 109.8 14.35 109.8 17.6 107.55 19.85 106.4 21.0 105.0 21.55 L99.9 24.4 M103.0 3.7 L102.95 3.7 Q100.5 3.7 98.5 4.6 96.8 5.35 95.45 6.7 94.5 7.65 93.85 8.7 M65.35 49.9 L65.6 43.7 92.8 28.4 M98.5 4.6 L96.95 4.9 95.15 6.4 95.1 6.4 92.6 8.35 M62.95 15.85 L62.95 15.9 M58.75 13.6 L58.5 13.25 58.1 12.75 57.5 13.85 M59.65 20.9 Q60.6 18.85 62.95 15.9 M121.35 -1.95 Q118.0 -1.8 115.45 0.25" fill="none" stroke="#451b24" stroke-linecap="round" stroke-linejoin="round" stroke-width="0.05"/>
    <path d="M92.8 28.4 Q85.95 45.8 65.75 50.45 M44.55 60.25 Q39.55 65.1 35.85 72.25 39.0 62.7 44.05 55.75 M57.5 13.85 Q42.45 23.4 40.65 36.0 39.3 45.45 31.0 54.75 M31.0 39.2 L33.0 31.7 Q37.35 14.65 53.55 3.05 L53.3 1.05 Q52.85 -4.35 55.2 -10.4 M55.95 -12.1 L56.95 -14.05 M57.9 -15.85 L56.95 -14.05 M141.7 -80.5 L140.65 -77.0 139.55 -72.75 138.3 -66.95 M53.55 3.05 Q54.45 8.25 58.1 12.75" fill="none" stroke="#828282" stroke-linecap="round" stroke-linejoin="round" stroke-width="0.05"/>
    <path d="M101.35 -56.65 L102.35 -56.95 104.9 -57.9 M145.9 -91.55 Q149.05 -96.5 154.1 -99.15 M55.2 -10.4 L55.95 -12.1 Q57.75 -5.7 54.7 0.75 54.45 1.7 54.55 2.65 L54.8 3.85 Q54.3 3.4 54.1 2.65 L53.85 1.0 54.0 -1.15 Q55.4 -5.4 55.2 -10.4 M67.9 -32.45 L67.95 -32.45 Q69.65 -34.5 71.8 -36.35 M95.15 -53.8 L96.55 -54.6 97.75 -55.2 M64.05 -26.15 L64.1 -26.25 Q65.55 -29.55 67.9 -32.45 M63.6 -9.15 L62.4 -5.8 62.4 -5.75 Q83.95 -7.5 97.9 -14.55 114.7 -23.1 120.45 -36.85 124.7 -44.75 136.9 -51.2 L138.1 -51.85 142.6 -54.0 149.55 -56.8 154.1 -58.4 M62.4 -5.8 Q61.1 -12.55 61.85 -18.25 62.75 -20.15 62.6 -22.1 63.15 -24.2 64.05 -26.15 M154.1 -93.25 L149.45 -87.05 Q145.45 -81.4 142.05 -75.05 L140.8 -72.65 141.1 -76.05 141.7 -80.5 141.8 -80.9 Q143.05 -87.15 145.9 -91.55 M138.3 -66.95 L141.45 -67.4 143.95 -67.7 144.45 -67.75 M128.65 -65.05 L138.3 -66.95 M154.1 -67.05 L150.85 -66.65 143.95 -65.7 137.95 -64.75 126.55 -62.6 116.6 -60.35 109.6 -58.4 104.95 -56.9 101.65 -55.7 100.0 -55.1 M154.1 -61.7 L149.9 -60.35 142.75 -57.65 137.5 -55.35 136.95 -55.1 Q132.9 -53.3 128.95 -51.15 123.15 -48.0 118.8 -41.3 L118.15 -40.25 M154.1 -79.3 Q152.4 -74.6 151.3 -69.2 L151.15 -68.3 154.1 -68.4 M151.15 -68.3 L144.45 -67.75 M128.65 -65.05 L118.3 -62.3 109.25 -59.45 104.9 -57.9 M101.35 -56.65 L99.75 -56.1 97.75 -55.2 M154.1 -46.95 L153.25 -46.55 Q148.45 -44.4 143.75 -41.85 L143.05 -41.45 138.35 -38.75 135.65 -37.15 Q120.85 -25.45 116.2 -9.65 L102.4 -4.55 119.65 -6.95 Q121.8 -21.05 138.35 -34.55 L139.3 -35.25 144.35 -38.6 Q148.35 -40.95 154.1 -43.6 M76.75 0.6 Q70.35 -3.0 66.1 3.8 63.5 7.95 60.6 9.25 63.7 10.5 67.45 6.1 71.15 1.7 76.75 0.6 M58.7 73.5 Q60.05 72.0 60.55 69.25 61.5 63.45 63.25 62.7 L62.45 59.95 Q59.6 61.25 59.2 66.55 58.55 72.0 54.5 73.3 L54.5 73.5 M47.0 70.75 Q47.35 72.4 47.95 73.5" fill="none" stroke="#42625a" stroke-linecap="round" stroke-linejoin="round" stroke-width="0.05"/>
    <path d="M86.7 -50.2 Q89.35 -51.7 92.35 -52.85 L95.15 -53.8 M71.8 -36.35 L69.1 -31.5 Q64.65 -22.1 63.6 -9.2 L63.6 -9.15 Q86.5 -11.15 102.75 -21.05 114.15 -29.15 118.15 -40.25 L118.5 -41.4 118.55 -41.45 Q120.6 -47.9 120.25 -55.3 L120.1 -57.05 113.7 -56.9 110.35 -56.7 107.65 -56.45 107.1 -56.35 105.05 -56.1 101.65 -55.5 100.0 -55.1 98.2 -54.65 97.55 -54.5 97.45 -54.5 96.75 -54.25 95.15 -53.8 M71.8 -36.35 L72.15 -36.9 M81.25 -46.7 Q83.75 -48.65 86.7 -50.2 M81.25 -46.7 Q75.9 -42.6 72.15 -36.9 M55.0 58.85 Q56.5 61.2 56.75 64.6 57.0 68.0 55.9 70.35 54.8 72.75 53.05 72.7 51.25 72.7 49.8 70.3 48.4 67.95 48.1 64.6 47.85 61.2 48.95 58.8 50.0 56.4 51.8 56.4 53.55 56.45 55.0 58.85" fill="none" stroke="#a2982d" stroke-linecap="round" stroke-linejoin="round" stroke-width="0.05"/>
    <path d="M60.1 -27.25 Q62.6 -31.0 67.9 -32.45 M60.3 -1.4 L61.05 -1.4 Q62.0 -1.2 62.7 -0.5 63.7 0.5 63.7 2.0 63.7 3.4 62.7 4.35 61.75 5.3 60.3 5.35 L59.7 5.3 Q58.7 5.1 57.9 4.35 56.95 3.4 56.95 2.0 56.95 0.5 57.9 -0.5 58.9 -1.45 60.3 -1.4 M64.05 -26.15 L62.35 -23.45 57.9 -15.85 Q57.2 -23.05 60.1 -27.25 M101.55 -6.4 L97.55 -4.35 Q92.65 -2.1 88.9 -1.25 85.2 -0.45 84.75 -1.55 84.35 -2.6 87.45 -4.95 90.65 -7.25 95.5 -9.5 97.55 -10.5 99.4 -11.2 101.9 -12.2 104.0 -12.65 107.75 -13.55 108.2 -12.4 108.6 -11.4 105.45 -9.0 L101.55 -6.4 M94.2 -4.7 Q95.0 -7.35 86.6 -2.45 M64.15 16.35 L62.95 15.85 M64.15 16.35 Q73.45 16.55 82.5 7.3 74.3 13.7 58.75 13.6 60.8 14.95 62.95 15.85" fill="none" stroke="#7a3329" stroke-linecap="round" stroke-linejoin="round" stroke-width="0.05"/>
    <path d="M62.4 -5.8 L62.35 -5.75 62.4 -5.75 M99.4 -11.2 L97.9 -14.55 M101.55 -6.4 L102.4 -4.55" fill="none" stroke="#975506" stroke-linecap="round" stroke-linejoin="round" stroke-width="0.05"/>
    <path d="M62.95 15.9 Q62.05 18.25 61.75 19.9 M67.4 17.2 L64.15 16.35" fill="none" stroke="#a46087" stroke-linecap="round" stroke-linejoin="round" stroke-width="0.05"/>
  </g>
</svg>
