<?xml version="1.0" encoding="UTF-8" standalone="no"?>
<svg xmlns:xlink="http://www.w3.org/1999/xlink" height="182.95px" width="115.05px" xmlns="http://www.w3.org/2000/svg">
  <g transform="matrix(1, 0, 0, 1, -31.0, 117.5)">
    <path d="M126.5 -100.75 Q128.3 -107.25 139.0 -114.1 142.45 -116.3 146.05 -117.5 L146.05 -113.85 146.05 -109.8 Q139.5 -105.75 133.6 -100.6 130.65 -82.05 146.05 -76.05 L146.05 -69.0 Q126.1 -76.4 128.85 -102.85 L126.5 -100.75 M146.05 -61.2 L146.05 -54.9 Q141.35 -55.5 134.85 -59.45 L138.35 -65.0 Q140.15 -63.65 142.15 -62.65 144.0 -61.75 146.05 -61.2 M146.05 -113.85 Q140.45 -111.2 135.7 -108.0 132.05 -105.6 128.85 -102.85 132.05 -105.6 135.7 -108.0 140.45 -111.2 146.05 -113.85 M121.75 -85.45 Q121.9 -80.45 123.9 -77.9 L119.35 -74.2 Q116.4 -82.0 119.5 -86.8 120.4 -88.2 121.8 -89.35 L121.75 -85.45" fill="#ebebeb" fill-rule="evenodd" stroke="none"/>
    <path d="M146.05 -69.0 L146.05 -61.2 Q144.0 -61.75 142.15 -62.65 140.15 -63.65 138.35 -65.0 L134.85 -59.45 Q141.35 -55.5 146.05 -54.9 L146.05 -22.85 138.55 -22.6 Q140.15 -27.95 140.2 -33.9 L140.05 -37.05 Q139.05 -50.1 129.95 -59.65 120.9 -69.1 108.7 -70.2 111.05 -79.7 115.8 -87.55 120.15 -94.85 126.5 -100.75 L128.85 -102.85 Q126.1 -76.4 146.05 -69.0 M121.75 -85.45 L121.8 -89.35 Q120.4 -88.2 119.5 -86.8 116.4 -82.0 119.35 -74.2 L123.9 -77.9 Q121.9 -80.45 121.75 -85.45" fill="#d1e2be" fill-rule="evenodd" stroke="none"/>
    <path d="M146.05 -109.8 L146.05 -76.05 Q130.65 -82.05 133.6 -100.6 139.5 -105.75 146.05 -109.8 M146.05 -22.75 L146.05 -14.8 146.05 0.05 146.05 26.4 Q140.4 22.8 132.05 16.3 L127.85 12.85 128.1 7.55 127.2 10.55 126.7 11.9 125.45 15.35 Q121.85 24.85 117.35 33.35 L115.3 37.1 Q116.6 46.35 114.6 60.35 L113.8 65.45 89.4 65.45 Q87.85 56.6 87.05 45.45 86.75 37.8 89.55 30.25 91.2 25.8 93.25 21.45 96.2 15.25 100.05 9.3 L100.2 9.1 Q101.5 7.05 102.95 5.1 101.5 7.05 100.2 9.1 L100.15 9.1 Q91.0 10.85 83.65 10.6 78.3 10.45 73.9 9.25 67.8 7.6 63.55 4.0 61.75 2.5 60.3 0.75 59.65 -1.0 59.35 -2.85 59.05 -4.6 59.0 -6.45 58.95 -7.6 59.05 -8.75 L59.4 -12.2 Q60.6 -12.25 61.5 -12.85 62.35 -13.4 63.0 -14.45 63.65 -13.85 64.35 -13.35 65.45 -12.55 66.65 -11.85 69.45 -10.3 72.75 -9.6 L72.6 -7.85 Q72.6 -3.35 75.55 -0.1 78.5 3.15 82.6 3.15 86.75 3.15 89.65 -0.1 92.65 -3.35 92.65 -7.85 L92.6 -8.95 Q115.6 -9.7 117.65 -27.65 L118.2 -23.45 118.3 -20.8 Q118.3 -17.2 117.65 -13.9 L116.5 -9.85 115.55 -5.35 Q111.7 -4.95 108.75 -2.35 111.7 -4.95 115.55 -5.35 L120.25 -5.0 Q122.5 -8.15 127.45 -8.0 127.25 -9.85 127.8 -11.3 128.75 -13.95 132.1 -15.2 L137.15 -15.3 Q137.25 -17.8 139.9 -19.9 L142.2 -21.5 146.05 -22.75 M48.5 2.9 Q45.45 10.0 39.75 18.65 35.95 24.4 31.0 30.85 L31.0 -20.3 Q41.4 -30.25 55.2 -37.6 L58.75 -39.45 54.8 -42.7 52.25 -45.05 Q49.95 -47.4 49.0 -49.15 45.3 -46.8 39.4 -43.75 L36.35 -42.25 31.0 -39.7 31.0 -57.15 42.65 -64.45 Q48.5 -67.8 53.65 -67.7 L63.65 -79.3 Q69.55 -85.55 74.65 -83.95 83.65 -79.45 90.4 -66.95 85.1 -64.35 80.65 -59.65 77.55 -56.4 75.4 -52.75 74.05 -50.45 73.1 -47.95 69.9 -46.0 67.05 -43.0 L65.35 -41.05 Q62.85 -41.2 60.3 -40.25 L58.75 -39.45 60.3 -40.25 Q62.85 -41.2 65.35 -41.05 62.2 -37.2 60.45 -32.7 57.9 -32.4 55.95 -29.75 53.75 -26.65 53.75 -22.35 53.75 -18.1 55.95 -15.05 57.5 -12.95 59.4 -12.25 L59.4 -12.2 Q48.65 -6.1 48.5 2.9 M97.85 -69.55 Q104.65 -82.65 113.9 -87.25 L115.8 -87.55 Q111.05 -79.7 108.7 -70.2 L105.25 -70.35 97.85 -69.55 M53.65 -67.7 L57.2 -67.15 Q63.3 -64.7 68.5 -60.4 63.3 -64.7 57.2 -67.15 L53.65 -67.7 M69.1 -59.8 L71.7 -57.35 Q70.1 -59.6 69.4 -61.4 L68.5 -60.4 69.1 -59.8 M71.7 -57.35 Q73.2 -55.25 75.4 -52.75 73.2 -55.25 71.7 -57.35 M40.35 -41.3 Q44.8 -43.95 47.95 -46.2 48.65 -44.65 49.9 -43.0 L45.1 -39.05 Q41.85 -38.6 40.35 -41.3 M74.7 -27.05 L74.65 -27.05 74.7 -27.1 74.7 -27.05 M73.8 -23.8 L73.6 -23.9 73.75 -23.9 73.8 -23.8 M108.75 -2.35 Q108.35 -3.95 107.1 -5.2 105.3 -7.0 102.85 -7.0 100.4 -7.0 98.65 -5.2 96.85 -3.4 96.85 -0.95 96.85 1.5 98.65 3.3 100.4 5.05 102.85 5.1 L102.95 5.1 Q105.35 1.65 108.1 -1.7 L108.75 -2.35 M146.05 -14.8 L142.95 -15.1 137.15 -15.3 142.95 -15.1 146.05 -14.8 M146.05 0.05 Q142.7 -1.85 139.15 -3.55 134.95 -5.5 130.5 -7.15 L128.25 -7.95 127.45 -8.0 128.25 -7.95 130.5 -7.15 Q134.95 -5.5 139.15 -3.55 142.7 -1.85 146.05 0.05 M128.1 7.55 Q128.65 5.2 128.55 3.25 128.2 -2.25 122.6 -4.3 L120.25 -5.0 122.6 -4.3 Q128.2 -2.25 128.55 3.25 128.65 5.2 128.1 7.55" fill="#edc05b" fill-rule="evenodd" stroke="none"/>
    <path d="M146.05 26.4 L146.05 30.1 Q138.4 26.25 127.2 16.85 124.95 27.15 117.35 33.35 121.85 24.85 125.45 15.35 L126.7 11.9 127.2 10.55 128.1 7.55 127.85 12.85 132.05 16.3 Q140.4 22.8 146.05 26.4 M114.6 60.35 L115.1 65.45 113.8 65.45 114.6 60.35 M39.75 18.65 Q35.4 31.6 31.0 37.65 L31.0 30.85 Q35.95 24.4 39.75 18.65 M55.2 -37.6 L52.25 -40.3 42.8 -31.9 Q35.9 -29.7 35.75 -38.7 L31.0 -36.2 31.0 -39.7 36.35 -42.25 39.4 -43.75 Q45.3 -46.8 49.0 -49.15 L47.95 -46.2 49.0 -49.15 Q49.95 -47.4 52.25 -45.05 L54.8 -42.7 58.75 -39.45 55.2 -37.6 M69.4 -61.4 Q70.1 -59.6 71.7 -57.35 L69.1 -59.8 69.4 -61.4 69.1 -59.8 68.5 -60.4 69.4 -61.4 M40.35 -41.3 L35.75 -38.7 40.35 -41.3 Q41.85 -38.6 45.1 -39.05 L49.9 -43.0 Q48.65 -44.65 47.95 -46.2 44.8 -43.95 40.35 -41.3 M52.25 -40.3 Q50.9 -41.7 49.9 -43.0 50.9 -41.7 52.25 -40.3 M127.85 12.85 L127.2 16.85 127.85 12.85" fill="#f3ebdf" fill-rule="evenodd" stroke="none"/>
    <path d="M90.4 -66.95 Q93.9 -68.75 97.85 -69.55 L105.25 -70.35 108.7 -70.2 Q120.9 -69.1 129.95 -59.65 139.05 -50.1 140.05 -37.05 138.8 -32.5 133.8 -28.5 L129.2 -28.05 Q126.55 -25.95 122.35 -24.55 L118.2 -23.45 117.65 -27.65 117.35 -28.95 Q115.4 -36.85 109.5 -43.0 L106.3 -45.95 104.05 -47.6 Q99.9 -50.4 95.1 -51.5 L94.35 -51.65 88.3 -52.25 Q82.6 -52.25 77.7 -50.3 L77.5 -50.2 Q75.2 -49.3 73.1 -47.95 74.05 -50.45 75.4 -52.75 77.55 -56.4 80.65 -59.65 85.1 -64.35 90.4 -66.95" fill="#d2c4dd" fill-rule="evenodd" stroke="none"/>
    <path d="M93.25 21.45 Q85.4 28.15 71.05 20.75 81.6 20.25 83.65 10.6 77.65 15.65 71.45 14.6 75.15 11.95 73.9 9.25 78.3 10.45 83.65 10.6 91.0 10.85 100.15 9.1 L100.05 9.3 Q96.2 15.25 93.25 21.45 M63.55 4.0 Q61.1 3.8 60.3 8.15 58.1 4.7 58.45 0.95 53.15 0.35 49.95 10.2 48.45 6.3 48.5 2.9 48.65 -6.1 59.4 -12.2 L59.05 -8.75 Q58.95 -7.6 59.0 -6.45 59.05 -4.6 59.35 -2.85 59.65 -1.0 60.3 0.75 61.75 2.5 63.55 4.0 M73.1 -47.95 Q75.2 -49.3 77.5 -50.2 L77.7 -50.3 Q82.6 -52.25 88.3 -52.25 L94.35 -51.65 95.1 -51.5 Q99.9 -50.4 104.05 -47.6 L106.3 -45.95 109.5 -43.0 Q115.4 -36.85 117.35 -28.95 L117.65 -27.65 Q115.6 -9.7 92.6 -8.95 92.25 -12.75 89.65 -15.55 86.75 -18.8 82.6 -18.8 78.5 -18.8 75.55 -15.55 73.5 -13.35 72.9 -10.55 L72.75 -9.6 Q69.45 -10.3 66.65 -11.85 65.45 -12.55 64.35 -13.35 63.65 -13.85 63.0 -14.45 64.45 -16.8 64.9 -21.55 64.8 -29.75 60.45 -32.65 L60.45 -32.7 Q62.2 -37.2 65.35 -41.05 L67.05 -43.0 Q69.9 -46.0 73.1 -47.95 M67.4 -28.6 Q68.2 -32.6 71.9 -36.6 L69.2 -38.9 Q67.8 -38.35 67.75 -36.8 L68.75 -35.85 Q66.9 -32.55 66.3 -30.4 L67.4 -28.6 M75.95 -36.25 L75.7 -36.35 74.55 -36.45 Q73.2 -36.45 71.95 -35.4 70.1 -34.0 69.45 -31.45 68.75 -28.85 69.65 -26.75 70.5 -24.6 72.4 -24.05 L73.6 -23.9 73.8 -23.8 74.75 -23.7 Q76.15 -23.7 77.55 -24.75 79.35 -26.15 80.05 -28.75 80.7 -31.3 79.85 -33.45 79.4 -34.5 78.75 -35.15 78.05 -35.85 77.05 -36.1 L75.95 -36.25 M80.25 -21.55 Q81.7 -24.15 84.2 -25.85 L88.9 -23.65 Q89.5 -24.75 90.6 -25.3 L83.45 -29.55 Q80.05 -25.75 78.05 -22.45 L80.25 -21.55 M59.35 -2.85 Q58.6 -0.95 58.45 0.95 58.6 -0.95 59.35 -2.85" fill="#ece5d3" fill-rule="evenodd" stroke="none"/>
    <path d="M67.4 -28.6 L66.3 -30.4 Q66.9 -32.55 68.75 -35.85 L67.75 -36.8 Q67.8 -38.35 69.2 -38.9 L71.9 -36.6 Q68.2 -32.6 67.4 -28.6 M75.95 -36.25 L77.05 -36.1 Q78.05 -35.85 78.75 -35.15 79.4 -34.5 79.85 -33.45 80.7 -31.3 80.05 -28.75 79.35 -26.15 77.55 -24.75 76.15 -23.7 74.75 -23.7 L73.8 -23.8 73.75 -23.9 75.25 -24.35 76.15 -25.0 Q77.95 -26.35 78.7 -28.9 79.35 -31.5 78.45 -33.7 L78.1 -34.45 Q77.3 -35.8 75.95 -36.25 M80.25 -21.55 L78.05 -22.45 Q80.05 -25.75 83.45 -29.55 L90.6 -25.3 Q89.5 -24.75 88.9 -23.65 L84.2 -25.85 Q81.7 -24.15 80.25 -21.55" fill="#81c8b8" fill-rule="evenodd" stroke="none"/>
    <path d="M73.15 -31.75 L72.7 -31.75 Q71.6 -31.75 70.8 -30.95 70.0 -30.15 70.0 -29.05 70.0 -27.9 70.8 -27.1 71.6 -26.3 72.7 -26.25 73.85 -26.3 74.65 -27.05 L74.7 -27.05 75.0 -27.0 Q76.15 -27.0 76.95 -27.7 L77.05 -27.8 Q77.8 -28.6 77.8 -29.8 L77.35 -31.35 77.05 -31.7 Q76.2 -32.5 75.0 -32.5 73.9 -32.5 73.15 -31.75 M73.6 -23.9 L72.4 -24.05 Q70.5 -24.6 69.65 -26.75 68.75 -28.85 69.45 -31.45 70.1 -34.0 71.95 -35.4 73.2 -36.45 74.55 -36.45 L75.7 -36.35 75.95 -36.25 Q77.3 -35.8 78.1 -34.45 L78.45 -33.7 Q79.35 -31.5 78.7 -28.9 77.95 -26.35 76.15 -25.0 L75.25 -24.35 73.75 -23.9 73.6 -23.9" fill="#a7383c" fill-rule="evenodd" stroke="none"/>
    <path d="M74.65 -27.05 Q73.85 -26.3 72.7 -26.25 71.6 -26.3 70.8 -27.1 70.0 -27.9 70.0 -29.05 70.0 -30.15 70.8 -30.95 71.6 -31.75 72.7 -31.75 L73.15 -31.75 Q74.05 -31.6 74.7 -30.95 75.5 -30.15 75.5 -29.05 75.5 -27.9 74.7 -27.1 L74.65 -27.05" fill="#de8f8b" fill-rule="evenodd" stroke="none"/>
    <path d="M73.15 -31.75 Q73.9 -32.5 75.0 -32.5 76.2 -32.5 77.05 -31.7 L77.35 -31.35 77.8 -29.8 Q77.8 -28.6 77.05 -27.8 L76.95 -27.7 Q76.15 -27.0 75.0 -27.0 L74.7 -27.05 74.7 -27.1 Q75.5 -27.9 75.5 -29.05 75.5 -30.15 74.7 -30.95 74.05 -31.6 73.15 -31.75" fill="#021204" fill-rule="evenodd" stroke="none"/>
    <path d="M59.7 -25.25 L59.8 -26.4 Q59.8 -27.8 59.2 -28.75 58.6 -29.7 57.7 -29.7 56.85 -29.7 56.2 -28.75 55.6 -27.8 55.6 -26.45 55.6 -25.45 55.95 -24.7 55.1 -23.2 55.1 -21.1 55.1 -19.05 55.95 -17.6 56.8 -16.1 58.0 -16.15 59.2 -16.1 60.05 -17.6 60.9 -19.05 60.9 -21.1 60.9 -23.2 60.05 -24.7 L59.7 -25.25 M59.4 -12.2 L59.4 -12.25 Q57.5 -12.95 55.95 -15.05 53.75 -18.1 53.75 -22.35 53.75 -26.65 55.95 -29.75 57.9 -32.4 60.45 -32.7 L60.45 -32.65 Q64.8 -29.75 64.9 -21.55 64.45 -16.8 63.0 -14.45 62.35 -13.4 61.5 -12.85 60.6 -12.25 59.4 -12.2 M72.75 -9.6 L72.9 -10.55 Q73.5 -13.35 75.55 -15.55 78.5 -18.8 82.6 -18.8 86.75 -18.8 89.65 -15.55 92.25 -12.75 92.6 -8.95 L92.65 -7.85 Q92.65 -3.35 89.65 -0.1 86.75 3.15 82.6 3.15 78.5 3.15 75.55 -0.1 72.6 -3.35 72.6 -7.85 L72.75 -9.6 M83.05 -11.65 Q82.95 -12.85 82.05 -13.75 81.1 -14.7 79.75 -14.65 78.4 -14.7 77.4 -13.75 76.45 -12.75 76.45 -11.4 76.45 -10.6 76.75 -9.95 L76.95 -9.65 Q76.35 -8.45 76.4 -7.0 76.35 -4.85 77.65 -3.3 79.0 -1.7 80.8 -1.7 82.65 -1.7 83.95 -3.3 85.25 -4.85 85.3 -7.0 L84.9 -9.1 83.95 -10.75 83.2 -11.5 83.05 -11.65 M102.9 -4.35 L102.65 -4.45 101.35 -4.8 Q100.45 -4.85 99.85 -4.2 99.3 -3.6 99.25 -2.8 98.75 -2.05 98.75 -1.0 98.75 0.45 99.75 1.4 100.75 2.4 102.15 2.45 103.6 2.4 104.55 1.4 105.55 0.45 105.6 -1.0 105.55 -2.45 104.55 -3.45 103.85 -4.2 102.9 -4.35 M102.95 5.1 L102.85 5.1 Q100.4 5.05 98.65 3.3 96.85 1.5 96.85 -0.95 96.85 -3.4 98.65 -5.2 100.4 -7.0 102.85 -7.0 105.3 -7.0 107.1 -5.2 108.35 -3.95 108.75 -2.35 L108.1 -1.7 Q105.35 1.65 102.95 5.1" fill="#9dadf0" fill-rule="evenodd" stroke="none"/>
    <path d="M55.95 -24.7 Q55.6 -25.45 55.6 -26.45 55.6 -27.8 56.2 -28.75 56.85 -29.7 57.7 -29.7 58.6 -29.7 59.2 -28.75 59.8 -27.8 59.8 -26.4 L59.7 -25.25 59.2 -24.1 Q58.6 -23.15 57.7 -23.15 56.85 -23.15 56.2 -24.1 L55.95 -24.7 M76.95 -9.65 L76.75 -9.95 Q76.45 -10.6 76.45 -11.4 76.45 -12.75 77.4 -13.75 78.4 -14.7 79.75 -14.65 81.1 -14.7 82.05 -13.75 82.95 -12.85 83.05 -11.65 L83.05 -11.35 Q83.05 -10.2 82.3 -9.3 L82.05 -9.1 Q81.1 -8.1 79.75 -8.1 78.4 -8.1 77.4 -9.1 L76.95 -9.65 M99.25 -2.8 Q99.3 -3.6 99.85 -4.2 100.45 -4.85 101.35 -4.8 L102.65 -4.45 102.9 -4.35 102.85 -4.2 Q103.5 -3.6 103.5 -2.65 103.5 -1.8 102.85 -1.2 102.25 -0.6 101.35 -0.55 100.45 -0.6 99.85 -1.2 99.25 -1.8 99.25 -2.7 L99.25 -2.8" fill="#ffffff" fill-rule="evenodd" stroke="none"/>
    <path d="M59.7 -25.25 L60.05 -24.7 Q60.9 -23.2 60.9 -21.1 60.9 -19.05 60.05 -17.6 59.2 -16.1 58.0 -16.15 56.8 -16.1 55.95 -17.6 55.1 -19.05 55.1 -21.1 55.1 -23.2 55.95 -24.7 L56.2 -24.1 Q56.85 -23.15 57.7 -23.15 58.6 -23.15 59.2 -24.1 L59.7 -25.25 M83.2 -11.5 L83.95 -10.75 84.9 -9.1 85.3 -7.0 Q85.25 -4.85 83.95 -3.3 82.65 -1.7 80.8 -1.7 79.0 -1.7 77.65 -3.3 76.35 -4.85 76.4 -7.0 76.35 -8.45 76.95 -9.65 L77.4 -9.1 Q78.4 -8.1 79.75 -8.1 81.1 -8.1 82.05 -9.1 L82.3 -9.3 Q83.05 -10.2 83.05 -11.35 L83.2 -11.5 M102.9 -4.35 Q103.85 -4.2 104.55 -3.45 105.55 -2.45 105.6 -1.0 105.55 0.45 104.55 1.4 103.6 2.4 102.15 2.45 100.75 2.4 99.75 1.4 98.75 0.45 98.75 -1.0 98.75 -2.05 99.25 -2.8 L99.25 -2.7 Q99.25 -1.8 99.85 -1.2 100.45 -0.6 101.35 -0.55 102.25 -0.6 102.85 -1.2 103.5 -1.8 103.5 -2.65 103.5 -3.6 102.85 -4.2 L102.9 -4.35" fill="#0a0c0c" fill-rule="evenodd" stroke="none"/>
    <path d="M118.2 -23.45 L122.35 -24.55 Q126.55 -25.95 129.2 -28.05 L133.8 -28.5 Q138.8 -32.5 140.05 -37.05 L140.2 -33.9 Q140.15 -27.95 138.55 -22.6 L138.1 -21.25 139.9 -19.9 Q137.25 -17.8 137.15 -15.3 L132.1 -15.2 Q128.75 -13.95 127.8 -11.3 127.25 -9.85 127.45 -8.0 122.5 -8.15 120.25 -5.0 L115.55 -5.35 116.5 -9.85 117.65 -13.9 Q118.3 -17.2 118.3 -20.8 L118.2 -23.45 M117.65 -13.9 L120.5 -14.25 122.35 -14.1 Q125.4 -13.6 127.8 -11.3 125.4 -13.6 122.35 -14.1 L120.5 -14.25 117.65 -13.9 M122.35 -14.1 Q122.9 -17.2 125.25 -19.55 126.1 -20.4 127.1 -21.05 129.1 -22.35 131.5 -22.6 L132.75 -22.65 134.15 -22.6 Q136.25 -22.35 138.1 -21.25 136.25 -22.35 134.15 -22.6 L132.75 -22.65 131.5 -22.6 Q129.1 -22.35 127.1 -21.05 126.1 -20.4 125.25 -19.55 122.9 -17.2 122.35 -14.1" fill="#9c7fb8" fill-rule="evenodd" stroke="none"/>
    <path d="M146.05 -22.85 L146.05 -22.75 142.2 -21.5 139.9 -19.9 138.1 -21.25 138.55 -22.6 146.05 -22.85" fill="#b67858" fill-rule="evenodd" stroke="none"/>
    <path d="M126.5 -100.75 Q128.3 -107.25 139.0 -114.1 142.45 -116.3 146.05 -117.5 M128.85 -102.85 Q132.05 -105.6 135.7 -108.0 140.45 -111.2 146.05 -113.85 M121.75 -85.45 Q121.9 -80.45 123.9 -77.9 L119.35 -74.2 Q116.4 -82.0 119.5 -86.8 120.4 -88.2 121.8 -89.35 L121.75 -85.45 M146.05 -61.2 Q144.0 -61.75 142.15 -62.65 140.15 -63.65 138.35 -65.0 L134.85 -59.45 Q141.35 -55.5 146.05 -54.9 M146.05 -69.0 Q126.1 -76.4 128.85 -102.85" fill="none" stroke="#767584" stroke-linecap="round" stroke-linejoin="round" stroke-width="0.05"/>
    <path d="M115.8 -87.55 Q120.15 -94.85 126.5 -100.75 L128.85 -102.85 M115.8 -87.55 Q111.05 -79.7 108.7 -70.2" fill="none" stroke="#5e9346" stroke-linecap="round" stroke-linejoin="round" stroke-width="0.05"/>
    <path d="M31.0 -57.15 L42.65 -64.45 Q48.5 -67.8 53.65 -67.7 L63.65 -79.3 Q69.55 -85.55 74.65 -83.95 83.65 -79.45 90.4 -66.95 M97.85 -69.55 Q104.65 -82.65 113.9 -87.25 L115.8 -87.55 M68.5 -60.4 Q63.3 -64.7 57.2 -67.15 L53.65 -67.7 M69.1 -59.8 L71.7 -57.35 Q70.1 -59.6 69.4 -61.4 M69.1 -59.8 L68.5 -60.4 69.4 -61.4 M75.4 -52.75 Q73.2 -55.25 71.7 -57.35 M49.0 -49.15 Q45.3 -46.8 39.4 -43.75 L36.35 -42.25 31.0 -39.7 M49.0 -49.15 Q49.95 -47.4 52.25 -45.05 L54.8 -42.7 58.75 -39.45 M40.35 -41.3 Q41.85 -38.6 45.1 -39.05 L49.9 -43.0 M139.9 -19.9 Q137.25 -17.8 137.15 -15.3 L142.95 -15.1 146.05 -14.8 M139.9 -19.9 L142.2 -21.5 146.05 -22.75 M137.15 -15.3 L132.1 -15.2 Q128.75 -13.95 127.8 -11.3 127.25 -9.85 127.45 -8.0 L128.25 -7.95 130.5 -7.15 Q134.95 -5.5 139.15 -3.55 142.7 -1.85 146.05 0.05 M127.45 -8.0 Q122.5 -8.15 120.25 -5.0 M127.85 12.85 L132.05 16.3 Q140.4 22.8 146.05 26.4" fill="none" stroke="#a87013" stroke-linecap="round" stroke-linejoin="round" stroke-width="0.05"/>
    <path d="M90.4 -66.95 Q93.9 -68.75 97.85 -69.55 M90.4 -66.95 Q85.1 -64.35 80.65 -59.65 77.55 -56.4 75.4 -52.75 74.05 -50.45 73.1 -47.95 M140.05 -37.05 Q139.05 -50.1 129.95 -59.65 120.9 -69.1 108.7 -70.2 L105.25 -70.35 97.85 -69.55 M127.8 -11.3 Q125.4 -13.6 122.35 -14.1 L120.5 -14.25 117.65 -13.9 M140.05 -37.05 L140.2 -33.9 Q140.15 -27.95 138.55 -22.6 L138.1 -21.25 139.9 -19.9 M138.1 -21.25 Q136.25 -22.35 134.15 -22.6 L132.75 -22.65 131.5 -22.6 Q129.1 -22.35 127.1 -21.05 126.1 -20.4 125.25 -19.55 122.9 -17.2 122.35 -14.1" fill="none" stroke="#594273" stroke-linecap="round" stroke-linejoin="round" stroke-width="0.05"/>
    <path d="M93.25 21.45 Q85.4 28.15 71.05 20.75 81.6 20.25 83.65 10.6 77.65 15.65 71.45 14.6 75.15 11.95 73.9 9.25 78.3 10.45 83.65 10.6 91.0 10.85 100.15 9.1 L100.05 9.3 M63.55 4.0 Q61.1 3.8 60.3 8.15 58.1 4.7 58.45 0.95 53.15 0.35 49.95 10.2 48.45 6.3 48.5 2.9 48.65 -6.1 59.4 -12.2 L59.05 -8.75 Q58.95 -7.6 59.0 -6.45 59.05 -4.6 59.35 -2.85 59.65 -1.0 60.3 0.75 61.75 2.5 63.55 4.0 M73.1 -47.95 Q75.2 -49.3 77.5 -50.2 L77.7 -50.3 Q82.6 -52.25 88.3 -52.25 L94.35 -51.65 95.1 -51.5 Q99.9 -50.4 104.05 -47.6 L106.3 -45.95 109.5 -43.0 Q115.4 -36.85 117.35 -28.95 L117.65 -27.65 M65.35 -41.05 L67.05 -43.0 Q69.9 -46.0 73.1 -47.95 M74.7 -27.05 L74.65 -27.05 74.7 -27.1 M73.8 -23.8 L73.6 -23.9 73.75 -23.9 M60.45 -32.7 Q62.2 -37.2 65.35 -41.05 M63.0 -14.45 Q63.65 -13.85 64.35 -13.35 65.45 -12.55 66.65 -11.85 69.45 -10.3 72.75 -9.6 M92.6 -8.95 Q115.6 -9.7 117.65 -27.65 M58.45 0.95 Q58.6 -0.95 59.35 -2.85" fill="none" stroke="#816b3a" stroke-linecap="round" stroke-linejoin="round" stroke-width="0.05"/>
    <path d="M146.05 30.1 Q138.4 26.25 127.2 16.85 124.95 27.15 117.35 33.35 L115.3 37.1 Q116.6 46.35 114.6 60.35 L115.1 65.45 M89.4 65.45 Q87.85 56.6 87.05 45.45 86.75 37.8 89.55 30.25 91.2 25.8 93.25 21.45 M48.5 2.9 Q45.45 10.0 39.75 18.65 35.4 31.6 31.0 37.65 M31.0 -20.3 Q41.4 -30.25 55.2 -37.6 L52.25 -40.3 42.8 -31.9 Q35.9 -29.7 35.75 -38.7 L31.0 -36.2 M69.4 -61.4 L69.1 -59.8 M35.75 -38.7 L40.35 -41.3 Q44.8 -43.95 47.95 -46.2 L49.0 -49.15 M58.75 -39.45 L60.3 -40.25 Q62.85 -41.2 65.35 -41.05 M58.75 -39.45 L55.2 -37.6 M49.9 -43.0 Q48.65 -44.65 47.95 -46.2 M49.9 -43.0 Q50.9 -41.7 52.25 -40.3 M108.75 -2.35 Q111.7 -4.95 115.55 -5.35 M108.75 -2.35 L108.1 -1.7 Q105.35 1.65 102.95 5.1 101.5 7.05 100.2 9.1 L100.05 9.3 Q96.2 15.25 93.25 21.45 M120.25 -5.0 L115.55 -5.35 M120.25 -5.0 L122.6 -4.3 Q128.2 -2.25 128.55 3.25 128.65 5.2 128.1 7.55 L127.85 12.85 M117.35 33.35 Q121.85 24.85 125.45 15.35 L126.7 11.9 127.2 10.55 128.1 7.55 M127.2 16.85 L127.85 12.85 M113.8 65.45 L114.6 60.35 M31.0 30.85 Q35.95 24.4 39.75 18.65" fill="none" stroke="#b58244" stroke-linecap="round" stroke-linejoin="round" stroke-width="0.05"/>
    <path d="M67.4 -28.6 Q68.2 -32.6 71.9 -36.6 L69.2 -38.9 Q67.8 -38.35 67.75 -36.8 L68.75 -35.85 Q66.9 -32.55 66.3 -30.4 L67.4 -28.6 M75.95 -36.25 L77.05 -36.1 Q78.05 -35.85 78.75 -35.15 79.4 -34.5 79.85 -33.45 80.7 -31.3 80.05 -28.75 79.35 -26.15 77.55 -24.75 76.15 -23.7 74.75 -23.7 L73.8 -23.8 M80.25 -21.55 Q81.7 -24.15 84.2 -25.85 L88.9 -23.65 Q89.5 -24.75 90.6 -25.3 L83.45 -29.55 Q80.05 -25.75 78.05 -22.45 L80.25 -21.55" fill="none" stroke="#2e5c5b" stroke-linecap="round" stroke-linejoin="round" stroke-width="0.05"/>
    <path d="M73.6 -23.9 L72.4 -24.05 Q70.5 -24.6 69.65 -26.75 68.75 -28.85 69.45 -31.45 70.1 -34.0 71.95 -35.4 73.2 -36.45 74.55 -36.45 L75.7 -36.35 75.95 -36.25 M73.75 -23.9 L75.25 -24.35 76.15 -25.0 Q77.95 -26.35 78.7 -28.9 79.35 -31.5 78.45 -33.7 L78.1 -34.45 Q77.3 -35.8 75.95 -36.25" fill="none" stroke="#5e2d46" stroke-linecap="round" stroke-linejoin="round" stroke-width="0.05"/>
    <path d="M59.4 -12.2 L59.4 -12.25 Q57.5 -12.95 55.95 -15.05 53.75 -18.1 53.75 -22.35 53.75 -26.65 55.95 -29.75 57.9 -32.4 60.45 -32.7 L60.45 -32.65 Q64.8 -29.75 64.9 -21.55 64.45 -16.8 63.0 -14.45 M72.75 -9.6 L72.9 -10.55 Q73.5 -13.35 75.55 -15.55 78.5 -18.8 82.6 -18.8 86.75 -18.8 89.65 -15.55 92.25 -12.75 92.6 -8.95 M83.05 -11.65 L83.2 -11.5 M83.05 -11.35 L83.05 -11.65 M59.4 -12.2 Q60.6 -12.25 61.5 -12.85 62.35 -13.4 63.0 -14.45 M72.75 -9.6 L72.6 -7.85 Q72.6 -3.35 75.55 -0.1 78.5 3.15 82.6 3.15 86.75 3.15 89.65 -0.1 92.65 -3.35 92.65 -7.85 L92.6 -8.95 M102.95 5.1 L102.85 5.1 Q100.4 5.05 98.65 3.3 96.85 1.5 96.85 -0.95 96.85 -3.4 98.65 -5.2 100.4 -7.0 102.85 -7.0 105.3 -7.0 107.1 -5.2 108.35 -3.95 108.75 -2.35" fill="none" stroke="#1c3dac" stroke-linecap="round" stroke-linejoin="round" stroke-width="0.05"/>
    <path d="M73.9 9.25 Q67.8 7.6 63.55 4.0 M117.65 -27.65 L118.2 -23.45 M115.55 -5.35 L116.5 -9.85 117.65 -13.9 Q118.3 -17.2 118.3 -20.8 L118.2 -23.45 M100.15 9.1 L100.2 9.1" fill="none" stroke="#b4750e" stroke-linecap="round" stroke-linejoin="round" stroke-width="0.05"/>
    <path d="M146.05 -76.05 Q130.65 -82.05 133.6 -100.6 139.5 -105.75 146.05 -109.8" fill="none" stroke="#885a0f" stroke-linecap="round" stroke-linejoin="round" stroke-width="0.05"/>
  </g>
</svg>
