<?xml version="1.0" encoding="UTF-8" standalone="no"?>
<svg xmlns:xlink="http://www.w3.org/1999/xlink" height="179.15px" width="94.55px" xmlns="http://www.w3.org/2000/svg">
  <g transform="matrix(1, 0, 0, 1, -46.7, 103.7)">
    <path d="M83.05 -99.0 Q84.2 -101.4 90.15 -102.3 L99.05 -103.7 99.05 -103.65 Q98.5 -103.4 98.0 -102.45 98.5 -103.4 99.05 -103.65 L99.2 -103.1 99.1 -103.65 Q102.75 -98.9 105.25 -93.85 L105.7 -93.0 Q107.75 -88.65 108.95 -84.1 107.3 -84.6 106.0 -85.7 L104.9 -86.8 Q103.6 -88.35 102.85 -90.7 L102.35 -92.55 102.2 -93.2 Q100.65 -99.7 98.0 -102.45 90.15 -99.85 83.85 -99.05 L83.05 -99.0 83.85 -99.05 Q84.15 -98.45 83.95 -96.1 83.6 -91.8 81.6 -81.8 L81.15 -79.55 81.1 -79.25 80.15 -78.65 80.0 -79.55 79.8 -82.6 Q79.35 -91.25 81.3 -96.05 82.05 -97.8 83.05 -99.0 M72.2 -93.15 Q71.3 -98.9 71.7 -99.95 66.75 -99.85 60.6 -101.25 58.55 -97.85 57.65 -90.4 56.7 -83.0 52.9 -80.7 54.55 -91.75 59.7 -102.3 L59.65 -101.75 59.75 -102.3 59.75 -102.4 66.7 -102.35 Q71.3 -102.3 72.3 -100.05 73.75 -98.1 74.55 -94.4 L75.05 -91.05 Q75.45 -87.9 75.45 -83.9 L75.35 -80.1 75.35 -79.55 74.6 -80.05 74.55 -80.4 74.4 -81.35 Q73.0 -88.05 72.3 -92.3 L72.2 -93.15 M60.6 -101.25 L59.75 -102.3 60.6 -101.25 M72.3 -100.05 L71.7 -99.95 72.3 -100.05" fill="#465457" fill-rule="evenodd" stroke="none"/>
    <path d="M99.05 -103.65 L99.05 -103.7 99.1 -103.65 99.05 -103.65 M59.7 -102.3 L59.75 -102.4 59.75 -102.3 59.7 -102.3" fill="#cccccc" fill-rule="evenodd" stroke="none"/>
    <path d="M105.25 -93.85 L107.5 -94.5 Q113.25 -94.8 117.4 -91.75 121.7 -88.45 123.95 -84.0 126.15 -79.4 126.35 -73.75 126.5 -70.75 127.4 -68.0 129.15 -63.0 133.6 -60.35 135.7 -59.1 138.9 -58.95 133.4 -58.85 128.8 -61.1 124.55 -63.45 122.3 -67.75 117.15 -90.55 106.1 -92.95 L105.7 -93.0 105.25 -93.85 M106.25 -85.25 L107.15 -83.45 Q109.15 -79.1 109.55 -76.7 L109.7 -75.35 109.55 -72.0 Q108.4 -69.65 105.85 -68.55 103.2 -67.4 99.05 -67.5 L98.95 -69.8 98.9 -71.45 98.85 -72.0 Q98.65 -75.7 98.0 -78.8 96.95 -83.8 94.85 -87.3 99.25 -85.25 102.9 -86.1 103.6 -86.25 104.3 -86.55 L104.9 -86.8 104.3 -86.55 Q103.6 -86.25 102.9 -86.1 99.25 -85.25 94.85 -87.3 96.95 -83.8 98.0 -78.8 98.65 -75.7 98.85 -72.0 L98.9 -71.45 100.85 -71.45 Q104.15 -71.65 106.4 -73.05 108.4 -74.35 109.55 -76.7 108.4 -74.35 106.4 -73.05 104.15 -71.65 100.85 -71.45 L98.9 -71.45 98.95 -69.8 99.05 -67.5 99.1 -66.65 99.1 -66.55 98.95 -63.35 98.8 -62.45 98.15 -59.85 97.95 -59.35 96.6 -56.15 95.25 -53.85 Q93.35 -50.9 90.6 -48.3 L87.05 -45.4 Q89.7 -49.35 91.15 -53.35 L91.9 -55.6 92.05 -56.1 92.75 -59.65 Q93.15 -63.1 92.75 -66.55 L92.15 -69.75 Q91.45 -72.95 90.1 -76.2 90.8 -72.65 90.95 -69.45 L90.85 -66.55 Q90.2 -64.35 89.2 -62.45 L87.35 -59.8 Q88.75 -63.0 87.8 -68.8 87.0 -73.45 84.75 -79.7 L84.9 -74.55 81.7 -68.2 81.25 -67.35 81.35 -68.2 Q82.6 -75.85 82.15 -79.55 L81.6 -81.8 Q83.6 -91.8 83.95 -96.1 L86.65 -95.85 90.65 -95.35 95.7 -95.4 Q98.25 -95.5 101.45 -92.3 L101.6 -92.15 102.85 -90.7 Q103.6 -88.35 104.9 -86.8 L106.0 -85.7 106.25 -85.25 M67.9 -52.15 L67.9 -52.2 Q63.75 -61.25 63.4 -73.95 62.95 -87.45 68.55 -93.3 L71.45 -92.65 72.2 -93.15 72.3 -92.3 Q73.0 -88.05 74.4 -81.35 L74.3 -80.5 Q74.1 -78.2 74.35 -75.55 L72.65 -75.75 72.35 -75.3 Q71.85 -77.0 71.65 -79.0 68.9 -76.1 68.5 -70.2 68.35 -68.4 68.45 -66.35 L68.65 -63.5 68.8 -62.1 68.3 -62.8 67.8 -63.7 Q66.1 -66.95 65.85 -71.95 66.1 -63.0 68.05 -53.05 L68.5 -51.05 67.9 -52.15 M74.55 -94.4 L75.25 -94.7 Q78.0 -95.8 81.3 -96.05 79.35 -91.25 79.8 -82.6 78.5 -81.85 76.8 -79.55 76.25 -83.6 75.45 -83.9 75.45 -87.9 75.05 -91.05 L74.55 -94.4 M66.1 -81.45 Q65.7 -77.7 65.75 -74.5 L65.85 -71.95 65.75 -74.5 Q65.7 -77.7 66.1 -81.45 M71.45 -92.65 L72.3 -92.3 71.45 -92.65 M73.4 -72.5 L74.65 -72.25 74.8 -72.35 Q75.0 -71.15 75.35 -69.9 L75.3 -69.6 75.4 -69.7 75.45 -69.45 75.3 -69.6 Q74.15 -70.9 73.4 -72.5 M71.5 -82.35 Q71.5 -80.6 71.65 -79.0 71.5 -80.6 71.5 -82.35 M90.8 -92.1 L92.45 -90.5 Q93.8 -89.1 94.85 -87.3 93.8 -89.1 92.45 -90.5 L90.8 -92.1" fill="#dcdeeb" fill-rule="evenodd" stroke="none"/>
    <path d="M138.9 -58.95 Q124.35 -54.6 118.75 -68.2 115.05 -77.75 108.85 -83.9 107.4 -84.55 106.25 -85.25 L106.0 -85.7 Q107.3 -84.6 108.95 -84.1 107.75 -88.65 105.7 -93.0 L106.1 -92.95 Q117.15 -90.55 122.3 -67.75 124.55 -63.45 128.8 -61.1 133.4 -58.85 138.9 -58.95 M109.55 -72.0 Q109.75 -67.35 104.7 -61.1 L101.75 -57.8 101.9 -58.4 102.2 -59.55 102.35 -60.25 102.4 -60.6 Q103.2 -64.65 101.75 -66.0 101.0 -66.95 99.8 -66.75 L99.1 -66.65 99.05 -67.5 Q103.2 -67.4 105.85 -68.55 108.4 -69.65 109.55 -72.0 M74.4 -81.35 L74.55 -80.4 74.3 -80.5 74.4 -81.35 M75.35 -80.1 L75.45 -83.9 Q76.25 -83.6 76.8 -79.55 78.5 -81.85 79.8 -82.6 L80.0 -79.55 76.8 -79.55 75.35 -80.1 M82.15 -79.55 L81.15 -79.55 81.6 -81.8 82.15 -79.55 M88.9 -55.65 L89.2 -62.45 Q90.2 -64.35 90.85 -66.55 L90.95 -69.45 Q90.8 -72.65 90.1 -76.2 91.45 -72.95 92.15 -69.75 L92.75 -66.55 Q93.15 -63.1 92.75 -59.65 L92.05 -56.1 91.9 -55.6 91.15 -53.35 Q89.7 -49.35 87.05 -45.4 L86.95 -45.45 88.15 -50.6 88.5 -52.65 88.9 -55.65 M67.8 -63.7 L68.3 -54.7 68.3 -54.5 68.5 -51.05 68.05 -53.05 Q66.1 -63.0 65.85 -71.95 66.1 -66.95 67.8 -63.7 M102.0 -93.2 L102.2 -93.2 102.35 -92.55 102.85 -90.7 101.6 -92.15 102.0 -93.2" fill="#b6bdd3" fill-rule="evenodd" stroke="none"/>
    <path d="M74.55 -80.4 L74.6 -80.05 75.35 -79.55 75.35 -80.1 76.8 -79.55 80.0 -79.55 80.15 -78.65 81.1 -79.25 81.15 -79.55 82.15 -79.55 Q82.6 -75.85 81.35 -68.2 79.05 -68.15 76.7 -68.25 L74.1 -66.2 71.8 -69.3 70.8 -67.35 70.25 -69.3 68.5 -70.2 Q68.9 -76.1 71.65 -79.0 71.85 -77.0 72.35 -75.3 L71.85 -74.6 72.35 -72.75 73.4 -72.5 Q74.15 -70.9 75.3 -69.6 L75.45 -69.45 75.4 -69.7 77.1 -71.3 76.55 -72.75 75.25 -71.55 Q75.7 -70.9 75.35 -69.9 75.0 -71.15 74.8 -72.35 L75.95 -73.4 75.25 -75.45 74.35 -75.55 Q74.1 -78.2 74.3 -80.5 L74.55 -80.4 M71.85 -72.25 L71.4 -74.1 70.15 -72.25 71.6 -70.15 Q71.1 -71.85 71.85 -72.25 M69.2 -59.75 Q70.1 -61.4 72.65 -63.05 L72.55 -60.9 Q72.35 -59.25 71.7 -58.2 L71.8 -57.1 Q72.25 -56.1 73.9 -56.65 L72.6 -57.4 71.85 -58.0 Q73.85 -59.6 74.55 -63.65 77.05 -61.05 78.25 -58.4 L78.85 -56.9 82.25 -56.0 88.9 -55.65 88.5 -52.65 Q84.95 -49.85 81.95 -48.3 78.0 -46.25 75.1 -46.4 L73.15 -50.8 72.15 -53.25 70.45 -56.55 69.2 -59.75 M87.8 -68.8 L81.7 -68.2 84.9 -74.55 84.75 -79.7 Q87.0 -73.45 87.8 -68.8 M99.1 -66.55 L99.65 -66.65 99.8 -66.75 Q101.0 -66.95 101.75 -66.0 L102.1 -65.25 Q102.75 -63.5 102.5 -61.8 L102.4 -61.05 102.3 -60.7 102.2 -61.05 Q101.65 -62.75 99.7 -63.45 L98.85 -62.5 98.8 -62.45 98.95 -63.35 99.1 -66.55" fill="#dbe6e2" fill-rule="evenodd" stroke="none"/>
    <path d="M73.4 -72.5 L72.35 -72.75 71.85 -74.6 72.35 -75.3 72.65 -75.75 74.35 -75.55 75.25 -75.45 75.95 -73.4 74.8 -72.35 74.65 -72.25 73.4 -72.5 M75.35 -69.9 Q75.7 -70.9 75.25 -71.55 L76.55 -72.75 77.1 -71.3 75.4 -69.7 75.3 -69.6 75.35 -69.9 M71.85 -72.25 Q71.1 -71.85 71.6 -70.15 L70.15 -72.25 71.4 -74.1 71.85 -72.25 M77.0 -30.75 L83.0 -30.3 85.4 -25.45 82.9 -22.35 77.3 -23.3 75.55 -27.85 77.0 -30.75 M76.4 -16.8 L72.4 -21.8 74.6 -26.5 76.35 -21.95 Q74.75 -20.95 76.4 -16.8 M85.15 -15.75 Q86.0 -18.85 84.45 -20.7 L86.95 -23.8 88.8 -20.15 85.15 -15.75" fill="#d3d301" fill-rule="evenodd" stroke="none"/>
    <path d="M68.5 -70.2 L70.25 -69.3 70.8 -67.35 71.8 -69.3 74.1 -66.2 76.7 -68.25 Q79.05 -68.15 81.35 -68.2 L81.25 -67.35 81.7 -68.2 87.8 -68.8 Q88.75 -63.0 87.35 -59.8 L89.2 -62.45 88.9 -55.65 82.25 -56.0 78.85 -56.9 78.25 -58.4 Q77.05 -61.05 74.55 -63.65 73.85 -59.6 71.85 -58.0 L71.7 -58.2 Q72.35 -59.25 72.55 -60.9 L72.65 -63.05 Q70.1 -61.4 69.2 -59.75 L68.3 -62.8 68.8 -62.1 68.65 -63.5 69.05 -63.2 Q69.8 -62.6 70.6 -62.55 L71.9 -62.9 Q72.1 -64.0 71.6 -64.5 L70.35 -65.45 69.15 -66.3 68.45 -66.35 Q68.35 -68.4 68.5 -70.2 M79.6 -64.55 Q78.1 -63.85 77.25 -62.75 77.8 -62.15 79.05 -61.7 L82.15 -61.5 Q84.1 -61.7 85.4 -62.4 86.85 -63.1 86.95 -63.85 86.85 -64.75 85.45 -65.1 L82.7 -65.4 Q81.15 -65.25 79.6 -64.55" fill="#893238" fill-rule="evenodd" stroke="none"/>
    <path d="M68.45 -66.35 L69.15 -66.3 70.35 -65.45 71.6 -64.5 Q72.1 -64.0 71.9 -62.9 L70.6 -62.55 Q69.8 -62.6 69.05 -63.2 L68.65 -63.5 68.45 -66.35 M79.6 -64.55 Q81.15 -65.25 82.7 -65.4 L85.45 -65.1 Q86.85 -64.75 86.95 -63.85 86.85 -63.1 85.4 -62.4 84.1 -61.7 82.15 -61.5 L79.05 -61.7 Q77.8 -62.15 77.25 -62.75 78.1 -63.85 79.6 -64.55" fill="#c1b742" fill-rule="evenodd" stroke="none"/>
    <path d="M104.7 -61.1 L105.05 -61.1 Q108.9 -60.85 110.45 -60.15 111.4 -59.7 111.35 -59.1 111.5 -57.55 105.25 -55.8 L103.25 -55.3 102.9 -55.25 101.45 -54.9 100.9 -54.8 100.0 -54.65 100.0 -54.8 99.95 -55.25 99.8 -56.05 100.9 -56.9 101.9 -58.4 101.75 -57.8 104.7 -61.1 M68.3 -54.7 Q68.35 -55.6 70.45 -56.55 L72.15 -53.25 73.15 -50.8 75.1 -46.4 Q77.65 -44.3 81.85 -46.25 L81.6 -38.45 73.55 -39.15 70.75 -53.25 Q68.9 -53.65 68.5 -54.3 L68.3 -54.7 M102.2 -59.55 L102.25 -60.1 102.35 -60.25 102.2 -59.55" fill="#2e071a" fill-rule="evenodd" stroke="none"/>
    <path d="M111.35 -59.1 L111.9 -56.2 111.9 -56.15 Q109.4 -53.8 103.75 -52.5 L99.3 -51.7 99.25 -51.7 94.45 -50.75 89.85 -36.85 Q98.45 -28.15 99.85 -39.45 99.35 -42.5 97.3 -45.0 100.4 -43.7 101.9 -42.15 L102.35 -41.65 Q104.65 -39.15 103.85 -37.05 L103.75 -36.75 Q102.9 -34.55 101.1 -31.1 L101.0 -30.95 Q99.15 -27.55 94.6 -29.7 L93.5 -30.3 Q88.15 -33.45 85.65 -30.8 83.0 -33.4 80.25 -33.8 78.9 -34.05 77.55 -33.8 75.65 -33.5 73.65 -32.25 72.2 -34.7 69.85 -32.85 67.45 -31.05 66.9 -33.1 66.35 -35.1 67.15 -38.25 L67.15 -38.6 67.15 -39.35 67.25 -41.35 Q68.05 -32.65 71.15 -39.8 L68.5 -51.0 67.85 -51.35 67.9 -52.15 68.5 -51.05 68.3 -54.5 68.3 -54.7 68.5 -54.3 Q68.9 -53.65 70.75 -53.25 L73.55 -39.15 81.6 -38.45 87.4 -37.95 90.6 -48.3 Q93.35 -50.9 95.25 -53.85 L100.0 -54.65 100.9 -54.8 101.45 -54.9 102.9 -55.25 103.25 -55.3 105.25 -55.8 Q111.5 -57.55 111.35 -59.1" fill="#b3b071" fill-rule="evenodd" stroke="none"/>
    <path d="M111.9 -56.15 L114.2 -40.9 Q116.15 -36.95 119.1 -35.5 124.15 -33.7 128.55 -30.15 134.25 -25.65 138.9 -18.4 140.8 -14.05 138.55 -12.05 136.05 -9.9 128.45 -10.75 L126.85 -11.0 122.35 -11.7 122.15 -11.65 121.9 -11.65 Q116.4 -12.3 109.25 -11.95 L109.05 -11.95 106.5 -11.75 101.75 -11.45 94.0 -10.35 92.0 -11.5 91.15 -11.95 Q81.55 -16.5 72.1 -13.25 L70.85 -12.8 69.1 -12.0 66.5 -14.0 64.0 -15.65 62.85 -16.25 62.35 -16.55 Q59.3 -18.05 56.5 -18.25 L53.25 -18.0 53.2 -18.0 Q49.5 -18.15 48.2 -19.55 46.7 -21.05 48.05 -24.05 55.4 -31.05 62.85 -33.75 L62.95 -33.75 Q65.65 -35.55 67.1 -38.4 L67.15 -38.6 67.15 -38.25 Q66.35 -35.1 66.9 -33.1 67.45 -31.05 69.85 -32.85 72.2 -34.7 73.65 -32.25 75.65 -33.5 77.55 -33.8 78.9 -34.05 80.25 -33.8 83.0 -33.4 85.65 -30.8 88.15 -33.45 93.5 -30.3 L94.6 -29.7 Q99.15 -27.55 101.0 -30.95 L101.1 -31.1 Q102.9 -34.55 103.75 -36.75 L103.85 -37.05 Q104.65 -39.15 102.35 -41.65 L101.9 -42.15 Q100.4 -43.7 97.3 -45.0 99.35 -42.5 99.85 -39.45 98.45 -28.15 89.85 -36.85 L94.45 -50.75 99.25 -51.7 99.3 -51.7 103.75 -52.5 Q109.4 -53.8 111.9 -56.15 M67.25 -41.35 L67.6 -50.2 67.85 -51.35 68.5 -51.0 71.15 -39.8 Q68.05 -32.65 67.25 -41.35 M77.0 -30.75 L75.55 -27.85 77.3 -23.3 82.9 -22.35 85.4 -25.45 83.0 -30.3 77.0 -30.75 M76.4 -16.8 Q74.75 -20.95 76.35 -21.95 L74.6 -26.5 72.4 -21.8 76.4 -16.8 M114.1 -38.7 L114.5 -38.95 114.65 -39.05 114.5 -39.05 114.1 -38.7 114.05 -38.6 113.2 -37.5 112.4 -36.5 Q110.5 -34.45 108.1 -33.0 L106.35 -32.1 108.1 -33.0 Q110.5 -34.45 112.4 -36.5 L113.2 -37.5 114.05 -38.6 114.1 -38.7 M114.2 -40.9 L114.5 -39.05 114.2 -40.9 M85.15 -15.75 L88.8 -20.15 86.95 -23.8 84.45 -20.7 Q86.0 -18.85 85.15 -15.75" fill="#5a3659" fill-rule="evenodd" stroke="none"/>
    <path d="M71.7 -58.2 L71.85 -58.0 72.6 -57.4 73.9 -56.65 Q72.25 -56.1 71.8 -57.1 L71.7 -58.2" fill="#a3bcb6" fill-rule="evenodd" stroke="none"/>
    <path d="M53.25 -18.0 L56.5 -18.25 52.05 22.15 53.25 -18.0 M62.85 -16.25 L64.0 -15.65 62.85 -0.05 62.85 -16.25 M106.5 -11.75 L109.05 -11.95 109.05 5.65 106.5 -11.75 M121.9 -11.65 L122.15 -11.65 122.35 -11.7 126.85 -11.0 128.45 -10.75 130.7 27.9 121.9 -11.65" fill="#353c4f" fill-rule="evenodd" stroke="none"/>
    <path d="M138.55 -12.05 Q139.2 27.85 141.25 75.45 L101.75 75.45 101.75 53.7 101.75 45.5 101.75 -11.45 106.5 -11.75 109.05 5.65 109.05 -11.95 109.25 -11.95 Q116.4 -12.3 121.9 -11.65 L130.7 27.9 131.25 30.3 130.7 27.9 128.45 -10.75 Q136.05 -9.9 138.55 -12.05 M66.5 75.45 L46.7 75.45 Q47.8 23.45 48.2 -19.55 49.5 -18.15 53.2 -18.0 L53.25 -18.0 52.05 22.15 56.5 -18.25 Q59.3 -18.05 62.35 -16.55 L62.85 -16.25 62.85 -0.05 64.0 -15.65 66.5 -14.0 66.5 8.15 68.95 11.5 Q66.35 35.8 68.6 39.1 L68.1 39.7 67.85 40.2 Q67.5 40.85 67.3 41.55 L66.5 41.45 66.5 8.15 66.5 41.45 66.5 75.45 M62.6 4.05 L62.85 -0.05 62.6 4.05 M109.6 9.75 L109.05 5.65 109.6 9.75 M51.8 24.55 L52.05 22.15 51.8 24.55" fill="#3f455d" fill-rule="evenodd" stroke="none"/>
    <path d="M101.75 75.45 L66.5 75.45 66.5 41.45 67.3 41.55 Q66.75 43.1 66.75 44.95 L66.8 46.95 67.2 48.8 71.5 53.15 73.7 53.1 75.8 55.55 80.95 56.05 86.5 56.7 88.15 54.25 95.1 55.15 101.75 53.7 101.75 75.45 M66.5 -14.0 L69.1 -12.0 70.85 -12.8 72.1 -13.25 Q78.8 2.85 91.15 -11.95 L92.0 -11.5 94.0 -10.35 101.75 -11.45 101.75 45.5 101.65 45.5 94.9 46.5 88.45 47.7 86.65 44.35 81.05 43.8 75.95 43.25 74.05 45.65 70.8 42.4 70.1 41.7 69.0 40.25 68.9 40.05 68.75 39.6 68.6 39.1 Q66.35 35.8 68.95 11.5 L66.5 8.15 66.5 -14.0" fill="#1f2326" fill-rule="evenodd" stroke="none"/>
    <path d="M81.85 -46.25 Q77.65 -44.3 75.1 -46.4 78.0 -46.25 81.95 -48.3 84.95 -49.85 88.5 -52.65 L88.15 -50.6 Q84.65 -47.55 81.85 -46.25 M99.8 -66.75 L99.65 -66.65 99.1 -66.55 99.1 -66.65 99.8 -66.75 M98.8 -62.45 L98.85 -62.5 99.7 -63.45 Q101.65 -62.75 102.2 -61.05 L102.3 -60.7 102.4 -61.05 102.5 -61.8 Q102.75 -63.5 102.1 -65.25 L101.75 -66.0 Q103.2 -64.65 102.4 -60.6 L102.3 -60.7 102.25 -60.1 102.2 -59.55 101.9 -58.4 100.9 -56.9 99.8 -56.05 Q98.9 -55.6 97.9 -55.6 L97.15 -55.8 96.8 -56.05 96.6 -56.15 97.95 -59.35 98.15 -59.85 98.8 -62.45 M99.6 -58.2 L98.15 -59.85 99.6 -58.2 M97.9 -57.4 L97.95 -59.35 97.9 -57.4" fill="#c6d7d2" fill-rule="evenodd" stroke="none"/>
    <path d="M81.6 -38.45 L81.85 -46.25 Q84.65 -47.55 88.15 -50.6 L86.95 -45.45 86.95 -45.4 87.05 -45.4 90.6 -48.3 87.4 -37.95 81.6 -38.45 M96.6 -56.15 L96.8 -56.05 97.15 -55.8 97.9 -55.6 Q98.9 -55.6 99.8 -56.05 L99.95 -55.25 100.0 -54.8 100.0 -54.65 95.25 -53.85 96.6 -56.15 M86.95 -45.4 L86.95 -45.35 87.05 -45.4 86.95 -45.35 86.95 -45.4" fill="#b1c8c5" fill-rule="evenodd" stroke="none"/>
    <path d="M102.25 -60.1 L102.3 -60.7 102.4 -60.6 102.35 -60.25 102.25 -60.1" fill="#ffd0ae" fill-rule="evenodd" stroke="none"/>
    <path d="M111.9 -56.2 L111.95 -56.15 111.9 -56.15 111.9 -56.2" fill="#c1a49d" fill-rule="evenodd" stroke="none"/>
    <path d="M114.5 -38.95 L114.1 -38.7 114.5 -39.05 114.5 -38.95" fill="#643342" fill-rule="evenodd" stroke="none"/>
    <path d="M86.95 -45.45 L87.05 -45.4 86.95 -45.4 86.95 -45.45" fill="#7a634d" fill-rule="evenodd" stroke="none"/>
    <path d="M72.1 -13.25 Q81.55 -16.5 91.15 -11.95 78.8 2.85 72.1 -13.25" fill="#40263f" fill-rule="evenodd" stroke="none"/>
    <path d="M88.45 47.7 L94.9 46.5 101.65 45.5 101.75 45.5 101.75 53.7 95.1 55.15 88.15 54.25 88.45 47.7 88.15 54.25 86.5 56.7 80.95 56.05 81.05 43.8 80.95 56.05 75.8 55.55 73.7 53.1 71.5 53.15 67.2 48.8 66.8 46.95 66.75 44.95 Q66.75 43.1 67.3 41.55 67.5 40.85 67.85 40.2 L68.1 39.7 68.6 39.1 68.75 39.6 68.9 40.05 69.0 40.25 70.1 41.7 70.8 42.4 74.05 45.65 75.95 43.25 81.05 43.8 86.65 44.35 88.45 47.7 M74.05 45.65 L74.0 45.85 73.7 53.1 74.0 45.85 74.05 45.65" fill="#b4b071" fill-rule="evenodd" stroke="none"/>
    <path d="M83.05 -99.0 L83.85 -99.05 Q90.15 -99.85 98.0 -102.45 98.5 -103.4 99.05 -103.65 M72.2 -93.15 Q71.3 -98.9 71.7 -99.95 66.75 -99.85 60.6 -101.25 58.55 -97.85 57.65 -90.4 56.7 -83.0 52.9 -80.7 M59.75 -102.3 L60.6 -101.25 M71.7 -99.95 L72.3 -100.05 M72.2 -93.15 L72.3 -92.3 Q73.0 -88.05 74.4 -81.35 L74.55 -80.4 74.6 -80.05 75.35 -79.55 M81.15 -79.55 L81.1 -79.25 80.15 -78.65 M108.95 -84.1 Q107.3 -84.6 106.0 -85.7 L104.9 -86.8 Q103.6 -88.35 102.85 -90.7 L102.35 -92.55 102.2 -93.2 Q100.65 -99.7 98.0 -102.45 M83.95 -96.1 Q83.6 -91.8 81.6 -81.8 M81.15 -79.55 L81.6 -81.8 M83.95 -96.1 Q84.15 -98.45 83.85 -99.05" fill="none" stroke="#666666" stroke-linecap="round" stroke-linejoin="round" stroke-width="0.05"/>
    <path d="M105.25 -93.85 L107.5 -94.5 Q113.25 -94.8 117.4 -91.75 121.7 -88.45 123.95 -84.0 126.15 -79.4 126.35 -73.75 126.5 -70.75 127.4 -68.0 129.15 -63.0 133.6 -60.35 135.7 -59.1 138.9 -58.95 124.35 -54.6 118.75 -68.2 115.05 -77.75 108.85 -83.9 107.4 -84.55 106.25 -85.25 L107.15 -83.45 Q109.15 -79.1 109.55 -76.7 L109.7 -75.35 109.55 -72.0 Q109.75 -67.35 104.7 -61.1 M67.9 -52.15 L67.9 -52.2 Q63.75 -61.25 63.4 -73.95 62.95 -87.45 68.55 -93.3 L71.45 -92.65 72.2 -93.15 M74.55 -94.4 L75.25 -94.7 Q78.0 -95.8 81.3 -96.05 M72.3 -92.3 L71.45 -92.65 M65.85 -71.95 L65.75 -74.5 Q65.7 -77.7 66.1 -81.45 M71.65 -79.0 Q71.5 -80.6 71.5 -82.35 M75.45 -83.9 Q76.25 -83.6 76.8 -79.55 78.5 -81.85 79.8 -82.6 M68.8 -62.1 L68.3 -62.8 67.8 -63.7 Q66.1 -66.95 65.85 -71.95 M89.2 -62.45 L87.35 -59.8 Q88.75 -63.0 87.8 -68.8 87.0 -73.45 84.75 -79.7 M67.9 -52.15 L68.5 -51.05 M106.0 -85.7 L106.25 -85.25 M102.0 -93.2 L101.6 -92.15 102.85 -90.7 M101.6 -92.15 L101.45 -92.3 Q98.25 -95.5 95.7 -95.4 L90.65 -95.35 86.65 -95.85 83.95 -96.1 M104.9 -86.8 L104.3 -86.55 Q103.6 -86.25 102.9 -86.1 99.25 -85.25 94.85 -87.3 96.95 -83.8 98.0 -78.8 98.65 -75.7 98.85 -72.0 L98.9 -71.45 100.85 -71.45 Q104.15 -71.65 106.4 -73.05 108.4 -74.35 109.55 -76.7 M94.85 -87.3 Q93.8 -89.1 92.45 -90.5 L90.8 -92.1 M99.05 -67.5 L98.95 -69.8 98.9 -71.45 M99.1 -66.55 L98.95 -63.35 98.8 -62.45 98.15 -59.85 97.95 -59.35 96.6 -56.15 95.25 -53.85 M101.75 -66.0 Q101.0 -66.95 99.8 -66.75 L99.1 -66.65 99.1 -66.55 M99.05 -67.5 L99.1 -66.65 M90.1 -76.2 Q90.8 -72.65 90.95 -69.45 L90.85 -66.55 Q90.2 -64.35 89.2 -62.45 M101.9 -58.4 L102.2 -59.55 M102.4 -60.6 Q103.2 -64.65 101.75 -66.0 M102.35 -60.25 L102.2 -59.55 M102.35 -60.25 L102.4 -60.6 M101.9 -58.4 L101.75 -57.8 104.7 -61.1 M87.05 -45.4 L90.6 -48.3 Q93.35 -50.9 95.25 -53.85 M86.95 -45.4 L86.95 -45.45 M87.05 -45.4 L86.95 -45.4" fill="none" stroke="#7583ae" stroke-linecap="round" stroke-linejoin="round" stroke-width="0.05"/>
    <path d="M74.3 -80.5 L74.55 -80.4 M82.15 -79.55 L81.15 -79.55 M80.0 -79.55 L76.8 -79.55 75.35 -80.1 M87.05 -45.4 L86.95 -45.35 86.95 -45.4" fill="none" stroke="#7583ae" stroke-linecap="round" stroke-linejoin="round" stroke-width="0.05"/>
    <path d="M70.45 -56.55 L69.2 -59.75 M81.85 -46.25 Q77.65 -44.3 75.1 -46.4 L73.15 -50.8 72.15 -53.25 70.45 -56.55 M73.9 -56.65 Q72.25 -56.1 71.8 -57.1 L71.7 -58.2 M99.8 -66.75 L99.65 -66.65 99.1 -66.55 M98.8 -62.45 L98.85 -62.5 99.7 -63.45 M102.3 -60.7 L102.4 -61.05 102.5 -61.8 Q102.75 -63.5 102.1 -65.25 L101.75 -66.0 M96.6 -56.15 L96.8 -56.05 97.15 -55.8 97.9 -55.6 Q98.9 -55.6 99.8 -56.05 L100.9 -56.9 101.9 -58.4 M102.2 -59.55 L102.25 -60.1 102.3 -60.7 M97.95 -59.35 L97.9 -57.4 M98.15 -59.85 L99.6 -58.2 M102.25 -60.1 L102.35 -60.25 M88.15 -50.6 Q84.65 -47.55 81.85 -46.25" fill="none" stroke="#86a89b" stroke-linecap="round" stroke-linejoin="round" stroke-width="0.05"/>
    <path d="M104.7 -61.1 L105.05 -61.1 Q108.9 -60.85 110.45 -60.15 111.4 -59.7 111.35 -59.1 L111.9 -56.2 M111.9 -56.15 L114.2 -40.9 Q116.15 -36.95 119.1 -35.5 124.15 -33.7 128.55 -30.15 134.25 -25.65 138.9 -18.4 140.8 -14.05 138.55 -12.05 139.2 27.85 141.25 75.45 M46.7 75.45 Q47.8 23.45 48.2 -19.55 46.7 -21.05 48.05 -24.05 55.4 -31.05 62.85 -33.75 M62.95 -33.75 Q65.65 -35.55 67.1 -38.4 L67.15 -39.35 67.25 -41.35 67.6 -50.2 67.9 -52.15 M68.3 -54.7 Q68.35 -55.6 70.45 -56.55 M68.3 -54.5 L68.3 -54.7 M68.5 -54.3 Q68.9 -53.65 70.75 -53.25 L73.55 -39.15 81.6 -38.45 87.4 -37.95 90.6 -48.3 M67.15 -38.6 L67.1 -38.4 M67.15 -39.35 L67.15 -38.6 67.15 -38.25 M111.9 -56.15 L111.9 -56.2 M56.5 -18.25 L53.25 -18.0 52.05 22.15 51.8 24.55 M56.5 -18.25 Q59.3 -18.05 62.35 -16.55 L62.85 -16.25 64.0 -15.65 66.5 -14.0 69.1 -12.0 70.85 -12.8 72.1 -13.25 Q81.55 -16.5 91.15 -11.95 L92.0 -11.5 94.0 -10.35 101.75 -11.45 106.5 -11.75 109.05 -11.95 109.25 -11.95 Q116.4 -12.3 121.9 -11.65 L122.15 -11.65 122.35 -11.7 126.85 -11.0 128.45 -10.75 Q136.05 -9.9 138.55 -12.05 M48.2 -19.55 Q49.5 -18.15 53.2 -18.0 L53.25 -18.0 M62.85 -16.25 L62.85 -0.05 62.6 4.05 M95.25 -53.85 L100.0 -54.65 100.9 -54.8 101.45 -54.9 102.9 -55.25 103.25 -55.3 105.25 -55.8 Q111.5 -57.55 111.35 -59.1 M114.1 -38.7 L114.5 -38.95 114.5 -39.05 114.2 -40.9 M114.1 -38.7 L114.05 -38.6 113.2 -37.5 112.4 -36.5 Q110.5 -34.45 108.1 -33.0 L106.35 -32.1 M72.1 -13.25 Q78.8 2.85 91.15 -11.95 M130.7 27.9 L131.25 30.3 M101.75 53.7 L101.75 45.5 101.75 -11.45 M109.05 5.65 L109.6 9.75 M101.75 53.7 L101.75 75.45 M66.5 8.15 L66.5 41.45 66.5 75.45 M66.5 -14.0 L66.5 8.15 M109.05 -11.95 L109.05 5.65 M130.7 27.9 L128.45 -10.75" fill="none" stroke="#301820" stroke-linecap="round" stroke-linejoin="round" stroke-width="0.05"/>
    <path d="M101.75 45.5 L101.65 45.5 94.9 46.5 88.45 47.7 88.15 54.25 95.1 55.15 101.75 53.7 M88.45 47.7 L86.65 44.35 81.05 43.8 80.95 56.05 86.5 56.7 88.15 54.25 M67.3 41.55 Q67.5 40.85 67.85 40.2 L68.1 39.7 68.6 39.1 68.75 39.6 68.9 40.05 69.0 40.25 70.1 41.7 70.8 42.4 74.05 45.65 75.95 43.25 81.05 43.8 M80.95 56.05 L75.8 55.55 73.7 53.1 71.5 53.15 67.2 48.8 66.8 46.95 66.75 44.95 Q66.75 43.1 67.3 41.55 M73.7 53.1 L74.0 45.85 74.05 45.65" fill="none" stroke="#674743" stroke-linecap="round" stroke-linejoin="round" stroke-width="0.05"/>
    <path d="M68.6 39.1 Q66.35 35.8 68.95 11.5 L66.5 8.15 M66.5 41.45 L67.3 41.55" fill="none" stroke="#000000" stroke-linecap="round" stroke-linejoin="round" stroke-width="0.05"/>
  </g>
</svg>
