<?xml version="1.0" encoding="UTF-8" standalone="no"?>
<svg xmlns:xlink="http://www.w3.org/1999/xlink" height="178.7px" width="124.85px" xmlns="http://www.w3.org/2000/svg">
  <g transform="matrix(1, 0, 0, 1, -23.7, 103.5)">
    <path d="M89.3 -87.05 Q89.65 -88.9 90.75 -91.0 92.75 -95.05 94.4 -99.3 96.05 -103.6 96.7 -103.5 97.4 -103.4 96.7 -98.8 L95.55 -90.5 Q95.2 -87.55 93.85 -84.95 L93.0 -83.6 Q90.95 -80.55 90.3 -80.75 89.55 -80.9 89.15 -83.95 88.95 -85.4 89.3 -87.05 M99.05 -80.65 Q104.8 -81.2 102.35 -75.85 L101.95 -75.35 Q100.05 -72.55 96.15 -70.2 92.25 -67.95 91.45 -68.05 90.5 -68.15 91.0 -70.3 91.45 -72.55 95.6 -75.55 L100.4 -79.2 99.05 -80.65 M55.1 -60.8 L55.1 -60.85 Q49.95 -64.2 55.5 -67.7 L55.3 -67.35 55.25 -67.15 Q54.8 -65.85 54.7 -64.65 58.65 -63.45 58.85 -62.75 59.15 -62.0 56.9 -61.05 L55.3 -60.65 55.1 -60.8 M59.35 -76.7 Q55.65 -81.5 55.05 -82.9 L51.25 -90.5 Q49.1 -94.3 49.7 -94.7 50.3 -95.05 53.4 -91.6 L59.2 -85.55 Q60.95 -83.8 62.35 -81.1 L62.05 -80.85 60.2 -78.05 59.5 -76.6 59.35 -76.7 60.2 -78.05 59.35 -76.7 M61.35 -79.6 L62.35 -81.1 62.4 -81.05 61.35 -79.6" fill="#9d563c" fill-rule="evenodd" stroke="none"/>
    <path d="M62.35 -81.1 L62.8 -81.55 63.25 -81.9 Q65.55 -84.05 68.6 -85.6 L70.95 -86.35 74.95 -87.4 85.45 -87.8 88.15 -87.3 Q87.0 -86.7 86.0 -85.95 77.0 -79.8 79.9 -68.05 L80.05 -67.4 75.9 -63.95 66.1 -61.55 61.95 -64.55 Q58.55 -74.55 61.35 -79.6 L62.4 -81.05 62.35 -81.1 M67.15 -64.4 Q65.25 -66.55 66.3 -67.5 L64.25 -70.0 63.35 -66.45 67.15 -64.4 M71.0 -69.5 L72.4 -72.0 69.9 -74.55 65.4 -73.2 64.75 -71.0 66.8 -68.65 71.0 -69.5 M72.5 -68.85 Q73.95 -68.15 73.75 -66.0 L75.85 -69.6 73.9 -71.45 72.5 -68.85" fill="#ff6699" fill-rule="evenodd" stroke="none"/>
    <path d="M93.85 -84.95 L94.2 -84.8 Q96.25 -83.55 99.05 -80.65 L100.4 -79.2 95.6 -75.55 Q91.45 -72.55 91.0 -70.3 90.5 -68.15 91.45 -68.05 92.25 -67.95 96.15 -70.2 100.05 -72.55 101.95 -75.35 L102.35 -75.85 Q103.25 -72.15 98.8 -67.35 97.65 -65.85 95.8 -64.45 L93.55 -62.95 Q92.35 -61.55 90.8 -61.05 L90.6 -61.5 Q89.45 -63.8 87.05 -64.0 L85.15 -63.95 84.5 -63.85 Q80.05 -64.35 78.35 -61.75 77.85 -61.15 77.6 -60.3 70.7 -56.65 66.1 -57.45 64.7 -60.1 63.15 -59.7 L60.6 -59.15 59.6 -58.75 Q58.35 -57.85 59.0 -55.25 L57.95 -57.45 Q56.85 -58.4 55.9 -59.7 L55.3 -60.65 56.9 -61.05 Q59.15 -62.0 58.85 -62.75 58.65 -63.45 54.7 -64.65 54.8 -65.85 55.25 -67.15 L55.3 -67.35 55.5 -67.7 Q56.85 -71.7 59.35 -76.7 L59.5 -76.6 60.2 -78.05 62.05 -80.85 62.35 -81.1 61.35 -79.6 Q58.55 -74.55 61.95 -64.55 L66.1 -61.55 75.9 -63.95 80.05 -67.4 79.9 -68.05 Q77.0 -79.8 86.0 -85.95 87.0 -86.7 88.15 -87.3 L89.3 -87.05 Q88.95 -85.4 89.15 -83.95 89.55 -80.9 90.3 -80.75 90.95 -80.55 93.0 -83.6 L93.85 -84.95 M97.3 -61.45 Q99.8 -57.05 99.8 -52.0 L99.2 -51.2 95.45 -46.85 92.95 -44.3 Q89.6 -41.05 86.6 -38.95 L82.5 -42.5 86.6 -38.95 Q76.95 -32.3 70.1 -37.6 L69.65 -38.0 Q68.65 -38.85 67.75 -39.95 65.6 -41.7 64.5 -44.15 L64.2 -44.9 Q63.55 -46.75 63.4 -48.9 L59.7 -52.45 Q62.55 -50.8 64.3 -52.5 L64.7 -52.65 Q66.15 -53.3 66.8 -55.85 L66.85 -55.9 Q69.2 -54.25 77.2 -58.25 L78.1 -57.45 Q81.05 -55.15 84.3 -55.9 L84.95 -56.15 85.15 -56.25 85.25 -56.15 Q89.85 -55.9 94.65 -58.4 L94.7 -58.45 94.8 -58.45 95.25 -58.9 97.3 -61.45 M137.0 -33.2 Q142.85 -30.5 148.55 -26.95 L148.55 -26.9 148.55 -10.5 Q145.35 -11.9 142.75 -16.4 L141.95 -17.95 Q129.15 -19.4 119.35 -23.6 L119.5 -23.7 119.75 -23.9 119.55 -23.95 118.25 -24.25 117.7 -24.4 117.15 -24.6 116.05 -25.0 Q115.15 -25.3 114.35 -25.75 113.15 -26.4 112.2 -27.3 111.3 -28.15 110.65 -29.1 L109.45 -30.95 108.8 -32.2 108.6 -32.7 107.75 -34.6 Q107.0 -36.75 106.95 -38.8 109.4 -40.05 111.45 -40.6 L111.75 -40.7 115.85 -41.05 115.9 -41.05 119.8 -40.35 120.65 -39.6 120.95 -39.05 Q129.15 -36.85 137.0 -33.2 M115.6 75.2 L94.55 75.2 Q93.45 69.6 93.0 64.6 94.0 55.75 93.7 47.25 L93.7 47.2 96.4 42.85 Q99.05 41.95 101.45 41.6 104.0 42.7 106.15 44.45 116.6 52.75 115.6 75.2 M54.65 72.95 L54.6 73.05 54.55 73.05 52.8 74.7 52.2 75.2 40.0 75.2 Q39.5 73.9 39.35 72.2 L39.3 71.35 Q39.2 68.0 40.8 64.9 41.4 63.65 42.15 62.7 49.8 42.9 58.65 31.65 56.95 26.5 60.8 19.85 57.7 14.95 61.95 10.4 63.4 9.95 65.65 10.95 L63.35 23.2 61.15 20.45 60.8 19.85 61.15 20.45 63.35 23.2 61.45 33.5 61.15 36.05 60.15 34.65 Q59.15 33.2 58.65 31.65 59.15 33.2 60.15 34.65 L61.15 36.05 Q59.15 55.15 54.65 72.95 L54.55 73.05 54.65 72.95 M67.75 10.6 L67.85 10.6 68.3 10.6 68.35 10.6 68.2 10.95 67.75 10.6 M58.25 -10.85 L58.25 -11.35 58.15 -11.9 58.3 -12.6 Q58.9 -16.5 59.95 -19.85 65.1 -11.3 75.95 1.1 L75.35 1.1 72.55 0.45 Q66.05 -0.8 61.9 -5.25 60.25 -7.0 59.2 -8.9 L58.25 -10.85 M58.7 -25.75 Q47.1 -20.35 31.35 -18.25 L29.65 -17.0 Q26.45 -15.15 23.7 -14.85 L23.7 -28.05 Q27.2 -28.55 29.45 -27.95 41.55 -35.4 54.55 -39.55 L56.85 -41.85 Q59.0 -43.9 64.2 -44.9 L64.5 -44.15 Q63.7 -42.7 63.25 -39.6 L63.1 -38.25 62.9 -38.95 Q59.3 -32.3 58.7 -25.75 M55.7 -59.9 L55.1 -60.8 55.3 -60.65 55.7 -59.9 M67.65 -47.35 L65.4 -50.0 Q69.5 -52.95 77.9 -53.95 L79.8 -54.2 79.3 -49.45 79.8 -54.2 77.9 -53.95 Q69.5 -52.95 65.4 -50.0 L67.65 -47.35 71.0 -43.3 70.55 -40.5 70.1 -37.6 70.55 -40.5 Q74.7 -42.5 79.5 -42.6 L82.5 -42.5 78.8 -45.65 79.3 -49.45 77.5 -49.5 Q73.2 -49.45 69.65 -48.2 L67.65 -47.35 M29.75 -18.0 L31.35 -18.25 29.75 -18.0 M29.45 -27.95 L27.5 -26.75 29.45 -27.95 M63.4 -48.9 L63.75 -48.7 Q64.45 -49.45 65.4 -50.0 64.45 -49.45 63.75 -48.7 L63.4 -48.9 M68.7 -24.2 L70.1 -22.75 75.0 -16.7 87.85 -17.8 88.9 -24.6 95.55 -19.6 Q104.9 -21.75 107.75 -29.05 L108.6 -27.65 109.05 -27.0 Q110.3 -24.3 110.65 -21.0 111.05 -17.9 110.6 -14.25 L110.15 -11.9 110.05 -11.1 110.0 -11.0 110.15 -11.9 109.9 -11.0 Q108.25 -6.3 107.5 -5.15 L107.05 -4.55 106.1 -3.4 103.4 -3.85 101.85 -2.5 Q99.75 -3.8 97.45 -3.5 95.1 -3.05 95.1 -2.5 95.05 -2.3 95.35 -2.1 L97.3 1.25 Q92.9 2.0 87.05 1.35 75.25 -11.4 68.7 -24.2 M54.55 -39.55 L54.3 -39.2 54.05 -38.2 54.1 -37.65 54.05 -38.2 54.3 -39.2 54.55 -39.55 M79.8 -54.2 L90.7 -54.65 94.65 -58.4 90.7 -54.65 79.8 -54.2 M120.45 -24.5 L119.75 -23.9 120.45 -24.5 M146.6 -17.55 L141.95 -17.95 146.6 -17.55 M91.4 17.75 L91.65 18.05 91.0 17.95 91.4 17.75" fill="#5a7e5f" fill-rule="evenodd" stroke="none"/>
    <path d="M59.7 -52.45 L59.55 -52.5 59.55 -52.55 59.7 -52.45 M55.95 -59.6 L55.7 -59.9 55.9 -59.7 55.95 -59.6 M55.3 -60.65 L55.9 -59.7 55.7 -59.9 55.3 -60.65" fill="#548173" fill-rule="evenodd" stroke="none"/>
    <path d="M98.8 -67.35 Q99.05 -64.25 97.3 -61.45 L95.25 -58.9 94.8 -58.45 94.7 -58.45 94.65 -58.4 Q89.85 -55.9 85.25 -56.15 L85.25 -56.25 Q86.8 -56.9 88.5 -58.3 L88.55 -58.3 Q89.65 -59.55 89.6 -60.95 L89.5 -61.0 Q88.65 -62.25 87.35 -62.95 86.1 -63.65 84.5 -63.85 L85.15 -63.95 87.05 -64.0 Q89.45 -63.8 90.6 -61.5 L90.8 -61.05 Q92.35 -61.55 93.55 -62.95 L95.8 -64.45 Q97.65 -65.85 98.8 -67.35 M59.55 -52.55 L55.95 -59.6 55.9 -59.7 Q56.85 -58.4 57.95 -57.45 L59.0 -55.25 59.25 -54.55 59.35 -54.5 Q62.4 -52.05 64.3 -52.5 62.55 -50.8 59.7 -52.45 L59.55 -52.55" fill="#476348" fill-rule="evenodd" stroke="none"/>
    <path d="M59.0 -55.25 Q58.35 -57.85 59.6 -58.75 L60.6 -59.15 63.15 -59.7 Q64.7 -60.1 66.1 -57.45 L66.8 -56.0 66.8 -55.85 Q66.15 -53.3 64.7 -52.65 L64.3 -52.5 Q62.4 -52.05 59.35 -54.5 L59.0 -55.25 M77.6 -60.3 Q77.85 -61.15 78.35 -61.75 80.05 -64.35 84.5 -63.85 86.1 -63.65 87.35 -62.95 88.65 -62.25 89.5 -61.0 L89.6 -60.95 Q89.65 -59.55 88.55 -58.3 L88.5 -58.3 Q86.8 -56.9 85.25 -56.25 L85.15 -56.25 84.95 -56.15 84.3 -55.9 Q81.05 -55.15 78.1 -57.45 L77.2 -58.25 77.6 -60.3 M61.85 -57.45 L61.8 -56.8 61.9 -55.4 62.5 -54.1 62.75 -53.65 63.05 -54.25 62.9 -55.65 62.3 -57.05 61.85 -57.45 M84.45 -56.9 L84.65 -57.8 84.5 -59.25 83.8 -60.75 83.35 -61.3 83.4 -60.6 83.55 -59.0 84.05 -57.55 84.45 -56.9" fill="#e8e7fe" fill-rule="evenodd" stroke="none"/>
    <path d="M65.65 10.95 L65.95 9.25 67.75 10.6 68.2 10.95 Q75.4 15.5 91.0 17.95 L91.65 18.05 91.95 18.1 102.95 19.45 Q101.3 25.5 99.95 32.0 L99.6 33.7 98.85 36.8 Q97.9 39.95 96.4 42.85 L93.7 47.2 93.7 47.25 Q82.0 46.85 74.3 43.9 65.15 40.5 61.45 33.5 L63.35 23.2 65.65 10.95 M72.5 -68.85 L73.9 -71.45 75.85 -69.6 73.75 -66.0 Q73.95 -68.15 72.5 -68.85 M71.0 -69.5 L66.8 -68.65 64.75 -71.0 65.4 -73.2 69.9 -74.55 72.4 -72.0 71.0 -69.5 M67.15 -64.4 L63.35 -66.45 64.25 -70.0 66.3 -67.5 Q65.25 -66.55 67.15 -64.4 M75.95 -24.05 Q73.05 -24.85 70.35 -26.0 L70.15 -26.05 69.55 -26.6 69.5 -26.65 67.9 -28.8 69.85 -26.8 70.4 -26.75 73.85 -25.9 78.6 -26.15 84.65 -27.25 Q89.7 -29.05 94.4 -31.95 97.6 -34.1 100.05 -37.0 102.15 -39.35 104.8 -40.1 L105.15 -40.25 Q106.3 -40.4 107.6 -41.45 L108.05 -42.95 Q108.6 -44.9 108.6 -47.05 L108.8 -41.85 Q108.0 -40.3 106.35 -39.2 L104.7 -38.6 103.75 -38.25 103.25 -38.1 103.3 -37.85 101.0 -35.75 100.6 -35.35 99.6 -34.45 Q95.6 -31.5 91.55 -29.1 88.3 -27.4 84.85 -26.1 80.5 -24.9 75.95 -24.05" fill="#d3d301" fill-rule="evenodd" stroke="none"/>
    <path d="M66.1 -57.45 Q70.7 -56.65 77.6 -60.3 L77.2 -58.25 Q69.2 -54.25 66.85 -55.9 L66.8 -56.0 66.1 -57.45 M67.65 -47.35 L69.65 -48.2 Q73.2 -49.45 77.5 -49.5 L79.3 -49.45 78.8 -45.65 82.5 -42.5 79.5 -42.6 Q74.7 -42.5 70.55 -40.5 L71.0 -43.3 67.65 -47.35" fill="#21382f" fill-rule="evenodd" stroke="none"/>
    <path d="M61.8 -56.8 L61.85 -57.45 62.3 -57.05 62.9 -55.65 63.05 -54.25 62.75 -53.65 62.5 -54.1 61.9 -55.4 61.8 -56.8 M83.35 -61.3 L83.8 -60.75 84.5 -59.25 84.65 -57.8 84.45 -56.9 84.05 -57.55 83.55 -59.0 83.4 -60.6 83.35 -61.3" fill="#5f0000" fill-rule="evenodd" stroke="none"/>
    <path d="M59.1 -21.4 L58.55 -22.4 58.7 -25.75 Q59.3 -32.3 62.9 -38.95 L63.1 -38.25 Q65.1 -31.25 68.7 -24.2 75.25 -11.4 87.05 1.35 90.8 5.35 95.1 9.4 L97.55 11.7 Q96.4 11.8 93.95 13.85 91.9 15.5 91.9 17.55 L91.95 18.1 91.65 18.05 91.4 17.75 79.6 5.3 75.95 1.1 Q65.1 -11.3 59.95 -19.85 L59.1 -21.4" fill="#9a8776" fill-rule="evenodd" stroke="none"/>
    <path d="M99.2 -51.2 Q106.4 -52.2 108.55 -48.2 L109.75 -47.45 110.4 -46.9 Q110.7 -47.55 111.3 -48.0 L112.15 -48.45 Q112.1 -51.6 113.25 -53.65 115.05 -56.9 119.75 -57.45 124.3 -56.35 126.8 -60.4 128.25 -55.7 125.35 -50.6 L124.7 -49.8 133.35 -45.0 Q135.15 -43.9 135.6 -41.85 136.55 -38.85 138.0 -39.15 135.55 -37.9 128.4 -42.65 134.15 -36.6 141.1 -34.85 139.15 -33.8 137.0 -33.2 129.15 -36.85 120.95 -39.05 L120.65 -39.6 119.8 -40.35 115.9 -41.05 115.85 -41.05 114.8 -43.5 Q113.8 -42.75 112.6 -42.85 L112.2 -42.95 111.55 -41.0 111.45 -40.6 Q109.4 -40.05 106.95 -38.8 106.15 -36.85 106.05 -35.0 106.15 -33.55 106.5 -32.2 106.8 -30.8 107.5 -29.5 L107.75 -29.05 Q104.9 -21.75 95.55 -19.6 L88.9 -24.6 87.85 -17.8 75.0 -16.7 70.1 -22.75 68.7 -24.2 Q65.1 -31.25 63.1 -38.25 L63.25 -39.6 Q63.7 -42.7 64.5 -44.15 65.6 -41.7 67.75 -39.95 68.65 -38.85 69.65 -38.0 L70.1 -37.6 Q76.95 -32.3 86.6 -38.95 89.6 -41.05 92.95 -44.3 L93.35 -44.45 Q95.3 -45.35 95.45 -46.85 L99.2 -51.2 M93.0 64.6 L91.35 75.2 80.35 75.2 58.2 75.2 54.05 75.2 54.65 72.95 Q59.15 55.15 61.15 36.05 L61.45 33.5 Q65.15 40.5 74.3 43.9 82.0 46.85 93.7 47.25 94.0 55.75 93.0 64.6 M110.4 -46.9 Q110.15 -46.55 111.25 -46.3 112.35 -46.05 112.1 -44.65 111.8 -43.35 112.2 -42.95 111.8 -43.35 112.1 -44.65 112.35 -46.05 111.25 -46.3 110.15 -46.55 110.4 -46.9 M94.75 -37.55 L86.45 -34.25 Q81.95 -32.9 77.35 -33.25 73.75 -33.8 71.2 -36.25 L70.75 -36.7 69.65 -37.9 69.65 -38.0 69.65 -37.9 70.75 -36.7 71.2 -36.25 Q73.75 -33.8 77.35 -33.25 81.95 -32.9 86.45 -34.25 L94.75 -37.55 M108.6 -47.05 Q108.6 -44.9 108.05 -42.95 L107.6 -41.45 Q106.3 -40.4 105.15 -40.25 L104.8 -40.1 Q102.15 -39.35 100.05 -37.0 97.6 -34.1 94.4 -31.95 89.7 -29.05 84.65 -27.25 L78.6 -26.15 73.85 -25.9 70.4 -26.75 69.85 -26.8 67.9 -28.8 69.5 -26.65 69.55 -26.6 70.15 -26.05 70.35 -26.0 Q73.05 -24.85 75.95 -24.05 80.5 -24.9 84.85 -26.1 88.3 -27.4 91.55 -29.1 95.6 -31.5 99.6 -34.45 L100.6 -35.35 101.0 -35.75 103.3 -37.85 103.25 -38.1 103.75 -38.25 104.7 -38.6 106.35 -39.2 Q108.0 -40.3 108.8 -41.85 L108.6 -47.05 108.55 -48.2 108.6 -47.05 M114.8 -43.5 L114.9 -43.55 Q115.85 -44.25 116.05 -45.35 L116.15 -45.5 Q116.3 -46.75 115.5 -47.65 L114.85 -48.2 113.45 -48.65 112.15 -48.45 113.45 -48.65 114.85 -48.2 Q120.5 -50.2 124.7 -49.8 120.5 -50.2 114.85 -48.2 L115.5 -47.65 Q116.3 -46.75 116.15 -45.5 L116.05 -45.35 Q115.85 -44.25 114.9 -43.55 L114.8 -43.5 M60.95 63.95 L60.5 66.4 60.25 67.5 58.2 75.2 60.25 67.5 60.5 66.4 60.95 63.95 M83.0 62.6 L80.35 75.2 83.0 62.6" fill="#ffff99" fill-rule="evenodd" stroke="none"/>
    <path d="M119.35 -23.6 Q118.7 -23.35 118.05 -23.2 L118.0 -23.2 Q118.95 -18.55 119.45 -13.5 L119.65 -10.85 119.85 -8.65 118.25 -4.35 Q116.0 0.9 112.35 4.65 L111.75 5.15 110.05 6.7 Q109.5 2.8 114.65 -1.8 L111.75 -2.5 Q111.75 -3.05 109.25 -3.5 108.4 -3.65 107.15 -2.95 L106.1 -3.4 107.05 -4.55 107.5 -5.15 Q108.25 -6.3 109.9 -11.0 L110.15 -11.9 110.0 -11.0 110.05 -11.1 110.15 -11.9 110.6 -14.25 Q111.05 -17.9 110.65 -21.0 110.3 -24.3 109.05 -27.0 L110.05 -25.7 111.7 -23.85 Q112.5 -23.05 113.6 -22.75 L115.55 -22.6 118.0 -23.2 115.55 -22.6 113.6 -22.75 Q112.5 -23.05 111.7 -23.85 L110.05 -25.7 109.05 -27.0 108.6 -27.65 107.75 -29.05 107.5 -29.5 Q106.8 -30.8 106.5 -32.2 106.15 -33.55 106.05 -35.0 106.15 -36.85 106.95 -38.8 107.0 -36.75 107.75 -34.6 L108.6 -32.7 108.8 -32.2 109.45 -30.95 110.65 -29.1 Q111.3 -28.15 112.2 -27.3 113.15 -26.4 114.35 -25.75 115.15 -25.3 116.05 -25.0 L117.15 -24.6 117.7 -24.4 118.25 -24.25 119.55 -23.95 119.75 -23.9 119.5 -23.7 119.35 -23.6 M115.8 47.7 Q120.4 51.35 116.6 75.2 L115.6 75.2 Q116.6 52.75 106.15 44.45 104.0 42.7 101.45 41.6 L104.15 41.35 108.7 44.55 113.95 45.1 115.8 47.7 M52.8 74.7 L53.0 75.2 52.2 75.2 52.8 74.7 M40.0 75.2 L37.6 75.2 38.0 73.15 39.3 71.35 39.35 72.2 Q39.5 73.9 40.0 75.2 M69.05 9.35 L67.9 9.45 67.8 9.45 67.75 9.4 67.7 9.25 65.9 7.55 Q63.7 5.2 62.15 2.4 59.55 -2.15 58.65 -7.95 L58.45 -8.95 58.25 -10.85 59.2 -8.9 Q60.25 -7.0 61.9 -5.25 66.05 -0.8 72.55 0.45 L75.35 1.1 75.95 1.1 79.6 5.3 Q73.6 5.35 69.1 9.35 L69.1 9.2 69.05 9.35 M58.15 -11.9 L58.1 -12.85 Q57.95 -16.1 59.1 -21.4 L59.95 -19.85 Q58.9 -16.5 58.3 -12.6 L58.15 -11.9 M111.45 -40.6 L111.55 -41.0 111.75 -40.7 111.45 -40.6 M97.9 10.8 Q97.05 10.2 95.1 9.4 90.8 5.35 87.05 1.35 92.9 2.0 97.3 1.25 98.75 4.3 99.25 7.9 L99.25 8.0 98.3 9.95 97.9 10.8 M67.75 9.4 L67.9 9.45 67.75 9.4" fill="#537557" fill-rule="evenodd" stroke="none"/>
    <path d="M114.9 45.0 L115.8 47.7 113.95 45.1 114.9 45.0 M85.15 -56.25 L85.25 -56.25 85.25 -56.15 85.15 -56.25 M92.95 -44.3 L95.45 -46.85 Q95.3 -45.35 93.35 -44.45 L92.95 -44.3 M98.85 36.8 L104.15 41.35 101.45 41.6 Q99.05 41.95 96.4 42.85 97.9 39.95 98.85 36.8 M69.1 9.35 L69.05 9.35 69.1 9.2 69.1 9.35" fill="#3d543f" fill-rule="evenodd" stroke="none"/>
    <path d="M121.45 39.65 Q119.3 44.15 114.9 45.0 L113.95 45.1 108.7 44.55 104.15 41.35 98.85 36.8 99.6 33.7 99.95 32.0 Q105.0 37.55 113.9 41.65 L114.45 41.95 Q119.3 41.8 121.45 39.65 M106.1 -3.4 L107.15 -2.95 Q108.4 -3.65 109.25 -3.5 111.75 -3.05 111.75 -2.5 L114.65 -1.8 109.25 -1.6 103.4 -1.15 103.1 -0.9 Q102.85 -0.5 102.85 0.65 L101.45 -0.05 Q99.05 -1.3 97.45 -1.6 95.9 -1.8 95.35 -2.1 95.05 -2.3 95.1 -2.5 95.1 -3.05 97.45 -3.5 99.75 -3.8 101.85 -2.5 L103.4 -3.85 106.1 -3.4" fill="#a59485" fill-rule="evenodd" stroke="none"/>
    <path d="M110.05 6.7 L110.15 7.2 Q108.25 8.65 106.4 9.2 102.8 10.25 99.25 8.0 L99.25 7.9 Q98.75 4.3 97.3 1.25 L95.35 -2.1 Q95.9 -1.8 97.45 -1.6 99.05 -1.3 101.45 -0.05 L102.85 0.65 Q102.85 -0.5 103.1 -0.9 L103.4 -1.15 109.25 -1.6 114.65 -1.8 Q109.5 2.8 110.05 6.7 M112.9 7.7 Q118.2 9.1 122.45 14.05 125.05 32.05 121.45 39.65 119.3 41.8 114.45 41.95 L113.9 41.65 Q105.0 37.55 99.95 32.0 101.3 25.5 102.95 19.45 L91.95 18.1 91.9 17.55 Q91.9 15.5 93.95 13.85 96.4 11.8 97.55 11.7 L97.9 10.8 98.3 9.95 Q99.8 11.05 101.6 11.35 L102.5 11.45 Q106.9 11.65 112.9 7.7" fill="#beb1a7" fill-rule="evenodd" stroke="none"/>
    <path d="M110.15 7.2 L112.9 7.7 Q106.9 11.65 102.5 11.45 L101.6 11.35 Q99.8 11.05 98.3 9.95 L99.25 8.0 Q102.8 10.25 106.4 9.2 108.25 8.65 110.15 7.2" fill="#685a4d" fill-rule="evenodd" stroke="none"/>
    <path d="M68.3 10.6 L69.05 9.35 69.1 9.35 Q73.6 5.35 79.6 5.3 L91.4 17.75 91.0 17.95 Q75.4 15.5 68.2 10.95 L68.35 10.6 68.3 10.6 M95.1 9.4 Q97.05 10.2 97.9 10.8 L97.55 11.7 95.1 9.4" fill="#446045" fill-rule="evenodd" stroke="none"/>
    <path d="M89.3 -87.05 Q89.65 -88.9 90.75 -91.0 92.75 -95.05 94.4 -99.3 96.05 -103.6 96.7 -103.5 97.4 -103.4 96.7 -98.8 L95.55 -90.5 Q95.2 -87.55 93.85 -84.95 L94.2 -84.8 Q96.25 -83.55 99.05 -80.65 104.8 -81.2 102.35 -75.85 103.25 -72.15 98.8 -67.35 M55.1 -60.8 L55.1 -60.85 Q49.95 -64.2 55.5 -67.7 56.85 -71.7 59.35 -76.7 55.65 -81.5 55.05 -82.9 L51.25 -90.5 Q49.1 -94.3 49.7 -94.7 50.3 -95.05 53.4 -91.6 L59.2 -85.55 Q60.95 -83.8 62.35 -81.1 L62.05 -80.85 60.2 -78.05 59.5 -76.6 59.35 -76.7 60.2 -78.05 M88.15 -87.3 L89.3 -87.05 Q88.95 -85.4 89.15 -83.95 89.55 -80.9 90.3 -80.75 90.95 -80.55 93.0 -83.6 L93.85 -84.95 M61.35 -79.6 L62.35 -81.1 M61.35 -79.6 Q58.55 -74.55 61.95 -64.55 L66.1 -61.55 75.9 -63.95 80.05 -67.4 79.9 -68.05 Q77.0 -79.8 86.0 -85.95 87.0 -86.7 88.15 -87.3 M55.3 -67.35 L55.25 -67.15 Q54.8 -65.85 54.7 -64.65 58.65 -63.45 58.85 -62.75 59.15 -62.0 56.9 -61.05 L55.3 -60.65 55.9 -59.7 Q56.85 -58.4 57.95 -57.45 L59.0 -55.25 Q58.35 -57.85 59.6 -58.75 L60.6 -59.15 63.15 -59.7 Q64.7 -60.1 66.1 -57.45 70.7 -56.65 77.6 -60.3 77.85 -61.15 78.35 -61.75 80.05 -64.35 84.5 -63.85 L85.15 -63.95 87.05 -64.0 Q89.45 -63.8 90.6 -61.5 L90.8 -61.05 Q92.35 -61.55 93.55 -62.95 L95.8 -64.45 Q97.65 -65.85 98.8 -67.35 M55.1 -60.8 L55.3 -60.65 M102.35 -75.85 L101.95 -75.35 Q100.05 -72.55 96.15 -70.2 92.25 -67.95 91.45 -68.05 90.5 -68.15 91.0 -70.3 91.45 -72.55 95.6 -75.55 L100.4 -79.2 99.05 -80.65" fill="none" stroke="#6c372b" stroke-linecap="round" stroke-linejoin="round" stroke-width="0.05"/>
    <path d="M98.8 -67.35 Q99.05 -64.25 97.3 -61.45 99.8 -57.05 99.8 -52.0 L99.2 -51.2 M64.2 -44.9 Q63.55 -46.75 63.4 -48.9 L59.7 -52.45 59.55 -52.55 55.95 -59.6 55.7 -59.9 55.1 -60.8 M59.55 -52.5 L59.55 -52.55 M62.35 -81.1 L62.8 -81.55 63.25 -81.9 Q65.55 -84.05 68.6 -85.6 L70.95 -86.35 74.95 -87.4 85.45 -87.8 88.15 -87.3 M55.5 -67.7 L55.3 -67.35 M55.7 -59.9 L55.9 -59.7 M55.3 -60.65 L55.7 -59.9 M59.0 -55.25 L59.25 -54.55 59.35 -54.5 59.0 -55.25 M66.8 -56.0 L66.1 -57.45 M66.8 -55.85 L66.8 -56.0 M77.2 -58.25 L77.6 -60.3 M61.8 -56.8 L61.85 -57.45 M62.75 -53.65 L62.5 -54.1 M64.7 -52.65 Q66.15 -53.3 66.8 -55.85 M77.2 -58.25 L78.1 -57.45 Q81.05 -55.15 84.3 -55.9 M84.95 -56.15 L85.15 -56.25 85.25 -56.25 M79.3 -49.45 L79.8 -54.2 77.9 -53.95 Q69.5 -52.95 65.4 -50.0 L67.65 -47.35 69.65 -48.2 Q73.2 -49.45 77.5 -49.5 L79.3 -49.45 78.8 -45.65 82.5 -42.5 86.6 -38.95 Q89.6 -41.05 92.95 -44.3 L95.45 -46.85 99.2 -51.2 M65.4 -50.0 Q64.45 -49.45 63.75 -48.7 L63.4 -48.9 M64.5 -44.15 L64.2 -44.9 M70.55 -40.5 L70.1 -37.6 Q76.95 -32.3 86.6 -38.95 M70.1 -37.6 L69.65 -38.0 Q68.65 -38.85 67.75 -39.95 65.6 -41.7 64.5 -44.15 M70.55 -40.5 L71.0 -43.3 67.65 -47.35 M82.5 -42.5 L79.5 -42.6 Q74.7 -42.5 70.55 -40.5 M84.45 -56.9 L84.05 -57.55 M83.4 -60.6 L83.35 -61.3 M94.7 -58.45 L94.8 -58.45 95.25 -58.9 97.3 -61.45 M94.65 -58.4 L90.7 -54.65 79.8 -54.2" fill="none" stroke="#36544a" stroke-linecap="round" stroke-linejoin="round" stroke-width="0.05"/>
    <path d="M62.35 -81.1 L62.4 -81.05" fill="none" stroke="#6d4e30" stroke-linecap="round" stroke-linejoin="round" stroke-width="0.05"/>
    <path d="M137.0 -33.2 Q142.85 -30.5 148.55 -26.95 M148.55 -10.5 Q145.35 -11.9 142.75 -16.4 L141.95 -17.95 Q129.15 -19.4 119.35 -23.6 118.7 -23.35 118.05 -23.2 L118.0 -23.2 M119.65 -10.85 L119.85 -8.65 118.25 -4.35 Q116.0 0.9 112.35 4.65 L111.75 5.15 110.05 6.7 110.15 7.2 112.9 7.7 Q118.2 9.1 122.45 14.05 125.05 32.05 121.45 39.65 119.3 44.15 114.9 45.0 L115.8 47.7 Q120.4 51.35 116.6 75.2 M94.55 75.2 Q93.45 69.6 93.0 64.6 M54.55 73.05 L52.8 74.7 53.0 75.2 M37.6 75.2 L38.0 73.15 39.3 71.35 Q39.2 68.0 40.8 64.9 41.4 63.65 42.15 62.7 49.8 42.9 58.65 31.65 56.95 26.5 60.8 19.85 57.7 14.95 61.95 10.4 63.4 9.95 65.65 10.95 M67.75 10.6 L67.85 10.6 68.3 10.6 69.05 9.35 67.9 9.45 67.8 9.45 M67.75 9.4 L67.7 9.25 65.9 7.55 Q63.7 5.2 62.15 2.4 59.55 -2.15 58.65 -7.95 L58.45 -8.95 58.25 -10.85 58.25 -11.35 58.15 -11.9 58.1 -12.85 Q57.95 -16.1 59.1 -21.4 L58.55 -22.4 58.7 -25.75 Q47.1 -20.35 31.35 -18.25 L29.65 -17.0 Q26.45 -15.15 23.7 -14.85 M23.7 -28.05 Q27.2 -28.55 29.45 -27.95 41.55 -35.4 54.55 -39.55 L56.85 -41.85 Q59.0 -43.9 64.2 -44.9 M27.5 -26.75 L29.45 -27.95 M31.35 -18.25 L29.75 -18.0 M63.1 -38.25 L62.9 -38.95 Q59.3 -32.3 58.7 -25.75 M63.1 -38.25 Q65.1 -31.25 68.7 -24.2 75.25 -11.4 87.05 1.35 90.8 5.35 95.1 9.4 L97.55 11.7 97.9 10.8 98.3 9.95 99.25 8.0 99.25 7.9 Q98.75 4.3 97.3 1.25 M107.75 -29.05 L107.5 -29.5 Q106.8 -30.8 106.5 -32.2 106.15 -33.55 106.05 -35.0 106.15 -36.85 106.95 -38.8 109.4 -40.05 111.45 -40.6 M54.1 -37.65 L54.05 -38.2 54.3 -39.2 54.55 -39.55 M59.95 -19.85 L59.1 -21.4 M75.95 1.1 Q65.1 -11.3 59.95 -19.85 M115.85 -41.05 L115.9 -41.05 119.8 -40.35 120.65 -39.6 120.95 -39.05 Q129.15 -36.85 137.0 -33.2 M111.75 -40.7 L111.45 -40.6 M111.55 -41.0 L111.75 -40.7 115.85 -41.05 M119.75 -23.9 L120.45 -24.5 M109.05 -27.0 L110.05 -25.7 111.7 -23.85 Q112.5 -23.05 113.6 -22.75 L115.55 -22.6 118.0 -23.2 M107.75 -29.05 L108.6 -27.65 109.05 -27.0 M106.1 -3.4 L107.15 -2.95 Q108.4 -3.65 109.25 -3.5 111.75 -3.05 111.75 -2.5 L114.65 -1.8 Q109.5 2.8 110.05 6.7 M106.1 -3.4 L103.4 -3.85 101.85 -2.5 Q99.75 -3.8 97.45 -3.5 95.1 -3.05 95.1 -2.5 95.05 -2.3 95.35 -2.1 95.9 -1.8 97.45 -1.6 99.05 -1.3 101.45 -0.05 L102.85 0.65 Q102.85 -0.5 103.1 -0.9 L103.4 -1.15 109.25 -1.6 114.65 -1.8 M119.75 -23.9 L119.5 -23.7 119.35 -23.6 M141.95 -17.95 L146.6 -17.55 M99.25 8.0 Q102.8 10.25 106.4 9.2 108.25 8.65 110.15 7.2 M98.3 9.95 Q99.8 11.05 101.6 11.35 L102.5 11.45 Q106.9 11.65 112.9 7.7 M91.65 18.05 L91.4 17.75 91.0 17.95 M91.95 18.1 L91.9 17.55 Q91.9 15.5 93.95 13.85 96.4 11.8 97.55 11.7 M98.85 36.8 L104.15 41.35 108.7 44.55 113.95 45.1 114.9 45.0 M96.4 42.85 Q99.05 41.95 101.45 41.6 M75.95 1.1 L79.6 5.3 91.4 17.75 M67.9 9.45 L67.75 9.4 M69.05 9.35 L69.1 9.2 M68.2 10.95 L68.35 10.6 M63.35 23.2 L61.15 20.45 60.8 19.85 M58.65 31.65 Q59.15 33.2 60.15 34.65 L61.15 36.05 M39.3 71.35 L39.35 72.2 Q39.5 73.9 40.0 75.2 M54.65 72.95 L54.55 73.05 M52.2 75.2 L52.8 74.7 M95.35 -2.1 L97.3 1.25" fill="none" stroke="#374e32" stroke-linecap="round" stroke-linejoin="round" stroke-width="0.05"/>
    <path d="M99.2 -51.2 Q106.4 -52.2 108.55 -48.2 L109.75 -47.45 110.4 -46.9 Q110.7 -47.55 111.3 -48.0 L112.15 -48.45 Q112.1 -51.6 113.25 -53.65 115.05 -56.9 119.75 -57.45 124.3 -56.35 126.8 -60.4 128.25 -55.7 125.35 -50.6 L124.7 -49.8 133.35 -45.0 Q135.15 -43.9 135.6 -41.85 136.55 -38.85 138.0 -39.15 135.55 -37.9 128.4 -42.65 134.15 -36.6 141.1 -34.85 139.15 -33.8 137.0 -33.2 M93.0 64.6 L91.35 75.2 M54.05 75.2 L54.65 72.95 M65.65 10.95 L65.95 9.25 67.75 10.6 M64.5 -44.15 Q63.7 -42.7 63.25 -39.6 L63.1 -38.25 M68.7 -24.2 L70.1 -22.75 75.0 -16.7 87.85 -17.8 88.9 -24.6 95.55 -19.6 Q104.9 -21.75 107.75 -29.05 M111.45 -40.6 L111.55 -41.0 112.2 -42.95 Q111.8 -43.35 112.1 -44.65 112.35 -46.05 111.25 -46.3 110.15 -46.55 110.4 -46.9 M69.65 -38.0 L69.65 -37.9 70.75 -36.7 71.2 -36.25 Q73.75 -33.8 77.35 -33.25 81.95 -32.9 86.45 -34.25 L94.75 -37.55 M108.6 -47.05 L108.55 -48.2 M112.15 -48.45 L113.45 -48.65 114.85 -48.2 Q120.5 -50.2 124.7 -49.8 M114.85 -48.2 L115.5 -47.65 Q116.3 -46.75 116.15 -45.5 L116.05 -45.35 Q115.85 -44.25 114.9 -43.55 L114.8 -43.5 115.85 -41.05 M114.8 -43.5 Q113.8 -42.75 112.6 -42.85 L112.2 -42.95 M108.6 -47.05 L108.8 -41.85 Q108.0 -40.3 106.35 -39.2 L104.7 -38.6 103.75 -38.25 103.25 -38.1 M103.3 -37.85 L101.0 -35.75 100.6 -35.35 99.6 -34.45 Q95.6 -31.5 91.55 -29.1 88.3 -27.4 84.85 -26.1 80.5 -24.9 75.95 -24.05 M92.95 -44.3 L93.35 -44.45 Q95.3 -45.35 95.45 -46.85 M91.0 17.95 L91.65 18.05 91.95 18.1 102.95 19.45 Q101.3 25.5 99.95 32.0 L99.6 33.7 98.85 36.8 Q97.9 39.95 96.4 42.85 L93.7 47.2 M93.7 47.25 Q94.0 55.75 93.0 64.6 M68.2 10.95 L67.75 10.6 M63.35 23.2 L65.65 10.95 M61.15 36.05 L61.45 33.5 63.35 23.2 M58.2 75.2 L60.25 67.5 60.5 66.4 60.95 63.95 M61.15 36.05 Q59.15 55.15 54.65 72.95 M80.35 75.2 L83.0 62.6 M91.0 17.95 Q75.4 15.5 68.2 10.95" fill="none" stroke="#787801" stroke-linecap="round" stroke-linejoin="round" stroke-width="0.05"/>
    <path d="M118.0 -23.2 Q118.95 -18.55 119.45 -13.5 L119.65 -10.85 M95.1 9.4 Q97.05 10.2 97.9 10.8 M69.1 9.35 L69.05 9.35 M69.1 9.35 Q73.6 5.35 79.6 5.3" fill="none" stroke="#553e35" stroke-linecap="round" stroke-linejoin="round" stroke-width="0.05"/>
  </g>
</svg>
