<?xml version="1.0" encoding="UTF-8" standalone="no"?>
<svg xmlns:xlink="http://www.w3.org/1999/xlink" height="127.25px" width="75.15px" xmlns="http://www.w3.org/2000/svg">
  <g transform="matrix(1, 0, 0, 1, -57.6, 76.75)">
    <path d="M123.9 -32.0 L128.1 -17.4 128.05 -17.25 Q129.25 -15.1 130.6 -11.15 L132.45 13.05 132.75 14.55 132.6 15.1 132.6 15.2 131.3 20.8 129.5 24.9 129.35 25.85 128.6 25.55 Q126.65 24.4 126.7 20.3 L125.75 18.9 125.7 18.7 124.6 17.25 121.85 14.35 124.4 9.45 126.9 9.15 Q124.95 1.05 122.25 -6.05 121.4 -10.1 122.15 -14.45 L122.35 -15.8 116.8 -30.9 Q121.3 -30.6 123.9 -32.0 M73.55 -39.65 L69.55 -26.85 69.65 -25.75 Q70.2 -22.0 69.15 -18.45 65.85 -11.75 63.35 -4.05 64.8 -4.2 66.1 -3.6 L67.35 0.95 64.3 3.3 63.05 4.5 62.95 4.7 61.8 5.85 Q60.95 9.5 59.05 10.35 L58.3 10.55 58.4 9.7 57.6 5.95 57.65 0.45 57.65 0.25 57.75 -0.05 61.05 -22.6 Q62.55 -26.1 63.95 -28.05 L67.35 -41.7 Q69.9 -39.15 73.55 -39.65 M69.15 -25.7 L69.55 -26.85 69.15 -25.7 M63.95 -28.05 L63.65 -26.95 63.95 -28.05 M62.2 -0.15 L63.35 -4.05 62.2 -0.15 M128.15 14.75 L126.9 9.15 128.15 14.75 M132.6 15.1 L132.45 13.05 132.6 15.1 M57.75 -0.05 L57.65 0.45 57.75 -0.05" fill="#ffeadf" fill-rule="evenodd" stroke="none"/>
    <path d="M89.65 -73.65 L89.65 -74.7 89.55 -76.65 92.4 -76.75 96.2 -76.65 97.15 -76.55 99.9 -76.2 99.95 -76.25 100.85 -76.15 100.7 -74.7 100.45 -71.0 Q100.4 -69.05 100.6 -67.2 L98.15 -66.4 96.8 -70.9 96.0 -71.0 Q90.65 -71.9 89.65 -73.65 M128.6 25.55 L122.55 23.15 122.4 23.15 122.6 21.2 120.6 16.8 121.85 14.35 124.6 17.25 125.7 18.7 125.6 18.75 125.75 18.9 126.7 20.3 Q126.65 24.4 128.6 25.55 M67.35 0.95 L67.95 3.25 65.3 7.0 65.05 8.75 64.95 8.75 59.05 10.35 Q60.95 9.5 61.8 5.85 L62.95 4.7 63.1 4.55 63.05 4.5 64.3 3.3 67.35 0.95 M122.6 21.2 L125.6 18.75 122.6 21.2 M65.3 7.0 L63.1 4.55 65.3 7.0" fill="#ffd0ae" fill-rule="evenodd" stroke="none"/>
    <path d="M125.7 18.7 L125.75 18.9 125.6 18.75 125.7 18.7 M63.05 4.5 L63.1 4.55 62.95 4.7 63.05 4.5" fill="#eebf5a" fill-rule="evenodd" stroke="none"/>
    <path d="M131.3 20.8 L130.55 24.05 129.5 24.9 131.3 20.8 M58.4 9.7 L57.65 8.9 57.6 5.95 58.4 9.7" fill="#f5dfc5" fill-rule="evenodd" stroke="none"/>
    <path d="M74.75 -64.9 L73.45 -62.4 72.3 -59.6 Q70.95 -55.75 71.65 -53.05 L71.95 -52.15 71.95 -52.1 Q72.4 -51.1 73.15 -50.65 72.65 -49.0 72.65 -46.7 L72.7 -45.1 Q73.0 -42.75 74.25 -41.0 L75.1 -40.0 75.15 -40.0 73.55 -39.65 Q69.9 -39.15 67.35 -41.7 66.6 -42.4 66.0 -43.35 67.4 -45.5 69.1 -54.8 L69.3 -56.0 Q69.55 -57.5 70.35 -59.3 71.1 -61.05 72.1 -62.4 L74.1 -64.45 74.75 -64.9 M120.7 -47.25 Q123.35 -39.85 126.45 -34.75 125.65 -33.0 123.9 -32.0 121.3 -30.6 116.8 -30.9 L114.85 -31.05 Q114.3 -36.9 111.6 -42.65 L111.55 -42.75 112.35 -45.15 Q113.7 -43.65 115.25 -42.9 L115.4 -42.8 116.55 -42.4 Q118.25 -41.95 119.35 -43.2 L120.05 -44.4 120.65 -46.1 120.75 -46.65 120.7 -47.25 M70.35 -50.0 L69.7 -51.05 Q69.4 -51.6 69.15 -53.7 L69.1 -54.8 69.15 -53.7 Q69.4 -51.6 69.7 -51.05 L70.35 -50.0 M113.5 -41.0 L112.9 -41.45 111.6 -42.65 112.9 -41.45 113.5 -41.0 M120.65 -42.5 L120.65 -43.15 120.75 -44.55 120.75 -44.6 120.75 -46.65 120.75 -44.6 120.75 -44.55 120.65 -43.15 120.65 -42.5" fill="#e7e7e7" fill-rule="evenodd" stroke="none"/>
    <path d="M73.15 -50.65 Q72.4 -51.1 71.95 -52.1 L71.95 -52.15 71.65 -53.05 Q70.95 -55.75 72.3 -59.6 L73.45 -62.4 74.75 -64.9 Q75.9 -65.6 76.95 -65.65 L76.95 -65.75 79.85 -66.2 76.2 -56.5 76.15 -56.35 76.15 -56.3 75.9 -55.5 Q75.4 -54.3 74.35 -52.95 73.55 -52.05 73.15 -50.65 M76.2 -56.55 L76.2 -56.5 76.2 -56.55 Q76.45 -58.2 76.2 -58.9 76.45 -58.2 76.2 -56.55 M84.9 -66.65 L86.85 -66.85 87.65 -68.0 88.5 -68.8 Q88.65 -68.05 88.95 -67.45 90.7 -64.2 98.15 -66.4 L100.6 -67.2 101.1 -67.4 Q102.3 -65.95 102.55 -64.3 L104.1 -63.35 103.7 -62.4 103.0 -60.75 Q100.75 -55.75 97.35 -51.55 L81.55 -55.8 Q81.85 -59.1 83.05 -62.4 L84.0 -64.85 84.9 -66.65 M107.95 -61.05 L108.45 -60.8 111.1 -59.3 112.0 -58.7 Q113.1 -58.0 114.25 -57.25 L114.75 -56.85 115.15 -56.55 115.15 -56.4 115.15 -56.35 Q117.75 -54.65 119.4 -51.3 120.4 -49.2 120.7 -47.25 L120.75 -46.65 120.65 -46.1 120.05 -44.4 119.35 -43.2 Q118.25 -41.95 116.55 -42.4 L115.4 -42.8 115.25 -42.9 Q113.7 -43.65 112.35 -45.15 L111.55 -42.75 111.4 -42.4 Q108.95 -40.05 107.3 -43.8 L106.7 -45.95 Q105.0 -48.15 105.35 -52.85 105.75 -57.25 107.9 -61.05 L107.95 -61.05 M87.3 -61.65 L86.75 -62.4 86.3 -63.15 86.35 -63.95 86.85 -66.85 86.35 -63.95 86.3 -63.15 86.75 -62.4 87.3 -61.65 M102.55 -64.15 L102.55 -64.3 102.55 -64.15 102.1 -62.4 Q101.7 -61.45 101.15 -61.15 101.7 -61.45 102.1 -62.4 L102.55 -64.15 M112.35 -45.15 Q113.4 -48.4 114.25 -51.95 L114.75 -54.3 115.15 -56.35 114.75 -54.3 114.25 -51.95 Q113.4 -48.4 112.35 -45.15" fill="#ffffff" fill-rule="evenodd" stroke="none"/>
    <path d="M88.95 -67.45 L89.5 -71.0 89.65 -73.65 Q90.65 -71.9 96.0 -71.0 L96.8 -70.9 98.15 -66.4 Q90.7 -64.2 88.95 -67.45" fill="#ffdfc8" fill-rule="evenodd" stroke="none"/>
    <path d="M73.15 -50.65 Q73.55 -52.05 74.35 -52.95 75.4 -54.3 75.9 -55.5 L76.15 -56.3 76.15 -56.35 76.2 -56.5 79.85 -66.2 81.1 -66.45 84.9 -66.65 84.0 -64.85 83.05 -62.4 Q81.85 -59.1 81.55 -55.8 L97.35 -51.55 100.2 -51.35 Q102.55 -50.1 103.1 -48.4 104.7 -41.25 102.95 -37.25 100.2 -32.8 91.85 -35.1 L91.4 -35.25 91.45 -35.1 91.05 -35.35 89.95 -35.45 Q89.2 -35.55 85.55 -37.3 81.9 -39.0 79.1 -39.7 L76.05 -40.5 75.5 -40.85 Q73.4 -42.35 72.7 -45.1 L72.65 -46.7 Q72.65 -49.0 73.15 -50.65 M113.25 50.5 L66.15 50.5 Q67.4 25.35 71.3 2.25 L73.8 -11.15 74.1 -10.95 Q73.6 -12.7 74.05 -14.15 L74.4 -15.1 74.9 -14.75 Q76.0 -19.2 78.7 -22.9 L79.3 -23.65 79.45 -23.85 79.65 -24.1 Q80.45 -25.7 80.5 -28.15 L80.55 -28.15 Q84.45 -32.55 88.05 -31.85 91.65 -31.15 93.7 -29.45 95.3 -28.2 96.8 -26.1 L98.3 -23.8 98.5 -23.45 98.8 -22.95 99.2 -22.2 101.2 -17.9 101.4 -17.4 102.05 -15.7 101.95 -15.5 101.15 -12.3 Q100.85 -10.9 100.7 -9.5 L100.55 -9.45 91.1 -9.95 83.55 -10.9 Q81.65 -11.5 79.9 -12.25 L78.6 -12.8 75.95 -14.15 74.9 -14.75 75.95 -14.15 78.6 -12.8 79.9 -12.25 Q81.65 -11.5 83.55 -10.9 L91.1 -9.95 100.55 -9.45 100.3 -9.0 Q99.45 -7.15 98.95 -5.35 L98.7 -4.25 98.6 -3.7 100.05 -3.95 99.3 9.4 Q98.2 22.35 95.8 30.6 92.3 42.45 86.15 44.55 L85.05 44.85 86.15 44.65 Q92.45 43.4 96.35 35.85 101.15 26.6 102.35 8.0 102.75 2.2 102.8 -4.45 L107.75 -5.6 Q110.3 11.3 111.7 26.6 L112.1 31.3 113.25 50.5 M98.6 -3.7 L91.5 -3.2 86.95 -3.8 83.45 -4.6 Q81.55 -5.3 79.9 -6.25 76.6 -8.05 74.1 -10.9 L74.1 -10.95 74.1 -10.9 Q76.6 -8.05 79.9 -6.25 81.55 -5.3 83.45 -4.6 L86.95 -3.8 91.5 -3.2 98.6 -3.7 M85.05 44.85 L83.5 44.95 Q80.95 44.4 78.95 42.95 75.75 40.7 73.8 36.2 72.65 33.55 71.9 30.2 69.6 19.8 71.3 2.25 69.6 19.8 71.9 30.2 72.65 33.55 73.8 36.2 75.75 40.7 78.95 42.95 80.95 44.4 83.5 44.95 L85.05 44.85" fill="#993300" fill-rule="evenodd" stroke="none"/>
    <path d="M104.1 -63.35 L107.95 -61.05 107.9 -61.05 Q105.75 -57.25 105.35 -52.85 105.0 -48.15 106.7 -45.95 L107.3 -43.8 107.35 -42.15 Q107.25 -37.75 104.05 -34.65 101.0 -31.65 96.6 -31.65 94.0 -31.7 91.95 -32.7 L79.9 -37.5 79.35 -37.55 78.65 -37.75 79.35 -37.55 79.9 -37.5 91.95 -32.7 Q94.0 -31.7 96.6 -31.65 101.0 -31.65 104.05 -34.65 107.25 -37.75 107.35 -42.15 L107.3 -43.8 Q108.95 -40.05 111.4 -42.4 L109.9 -38.75 Q108.0 -34.45 105.75 -31.1 104.1 -27.45 104.6 -23.85 L104.75 -22.95 Q105.0 -21.45 105.7 -19.95 L107.5 -17.0 108.35 -15.1 109.35 -12.3 109.4 -12.15 109.45 -12.15 Q111.4 -10.25 111.2 -7.4 118.2 21.15 121.75 50.5 L113.25 50.5 112.1 31.3 111.7 26.6 Q110.3 11.3 107.75 -5.6 L102.8 -4.45 100.05 -3.95 102.8 -4.45 Q102.75 2.2 102.35 8.0 101.15 26.6 96.35 35.85 92.45 43.4 86.15 44.65 L85.05 44.85 86.15 44.55 Q92.3 42.45 95.8 30.6 98.2 22.35 99.3 9.4 L100.05 -3.95 98.6 -3.7 98.7 -4.25 98.95 -5.35 Q99.45 -7.15 100.3 -9.0 L100.55 -9.45 100.7 -9.5 Q100.85 -10.9 101.15 -12.3 L101.95 -15.5 102.05 -15.7 101.4 -17.4 101.2 -17.9 99.2 -22.2 98.8 -22.95 98.5 -23.45 98.3 -23.8 96.8 -26.1 Q95.3 -28.2 93.7 -29.45 91.65 -31.15 88.05 -31.85 84.45 -32.55 80.55 -28.15 L80.5 -28.15 Q80.5 -30.55 79.75 -33.75 L79.05 -35.85 78.65 -37.75 Q76.65 -38.4 75.15 -40.0 L75.1 -40.0 74.25 -41.0 Q73.0 -42.75 72.7 -45.1 73.4 -42.35 75.5 -40.85 L76.05 -40.5 79.1 -39.7 Q81.9 -39.0 85.55 -37.3 89.2 -35.55 89.95 -35.45 L91.05 -35.35 91.45 -35.1 91.4 -35.25 91.85 -35.1 Q100.2 -32.8 102.95 -37.25 104.7 -41.25 103.1 -48.4 102.55 -50.1 100.2 -51.35 L97.35 -51.55 Q100.75 -55.75 103.0 -60.75 L103.7 -62.4 104.1 -63.35 M109.4 -12.15 Q105.75 -10.65 104.8 -10.45 L100.7 -9.5 104.8 -10.45 Q105.75 -10.65 109.4 -12.15 M111.2 -7.4 L111.1 -6.5 107.75 -5.6 111.1 -6.5 111.2 -7.4" fill="#990000" fill-rule="evenodd" stroke="none"/>
    <path d="M76.2 -56.55 Q76.45 -58.2 76.2 -58.9 M76.95 -65.75 L79.85 -66.2 M84.9 -66.65 L86.85 -66.85 87.65 -68.0 88.5 -68.8 Q88.65 -68.05 88.95 -67.45 M100.6 -67.2 L101.1 -67.4 Q102.3 -65.95 102.55 -64.3 L104.1 -63.35 M107.95 -61.05 L108.45 -60.8 111.1 -59.3 112.0 -58.7 Q113.1 -58.0 114.25 -57.25 L114.75 -56.85 115.15 -56.55 M115.15 -56.4 L115.15 -56.35 Q117.75 -54.65 119.4 -51.3 120.4 -49.2 120.7 -47.25 123.35 -39.85 126.45 -34.75 125.65 -33.0 123.9 -32.0 M116.8 -30.9 L114.85 -31.05 Q114.3 -36.9 111.6 -42.65 L111.55 -42.75 111.4 -42.4 M75.15 -40.0 L73.55 -39.65 Q69.9 -39.15 67.35 -41.7 66.6 -42.4 66.0 -43.35 67.4 -45.5 69.1 -54.8 L69.3 -56.0 Q69.55 -57.5 70.35 -59.3 71.1 -61.05 72.1 -62.4 L74.1 -64.45 74.75 -64.9 Q75.9 -65.6 76.95 -65.65 M69.1 -54.8 L69.15 -53.7 Q69.4 -51.6 69.7 -51.05 L70.35 -50.0 M98.15 -66.4 L100.6 -67.2 M98.15 -66.4 Q90.7 -64.2 88.95 -67.45 M86.85 -66.85 L86.35 -63.95 86.3 -63.15 86.75 -62.4 87.3 -61.65 M102.55 -64.15 L102.1 -62.4 Q101.7 -61.45 101.15 -61.15 M115.15 -56.35 L114.75 -54.3 114.25 -51.95 Q113.4 -48.4 112.35 -45.15 L111.55 -42.75 M120.75 -46.65 L120.7 -47.25 M120.75 -46.65 L120.75 -44.6 120.75 -44.55 120.65 -43.15 120.65 -42.5 M111.6 -42.65 L112.9 -41.45 113.5 -41.0 M116.8 -30.9 Q121.3 -30.6 123.9 -32.0" fill="none" stroke="#cccccc" stroke-linecap="round" stroke-linejoin="round" stroke-width="0.05"/>
    <path d="M79.3 -23.65 L79.45 -23.85 79.65 -24.1 Q80.45 -25.7 80.5 -28.15 80.5 -30.55 79.75 -33.75" fill="none" stroke="#685942" stroke-linecap="round" stroke-linejoin="round" stroke-width="0.05"/>
    <path d="M73.15 -50.65 Q73.55 -52.05 74.35 -52.95 75.4 -54.3 75.9 -55.5 L76.15 -56.3 76.15 -56.35 76.2 -56.5 76.2 -56.55 M81.1 -66.45 L84.9 -66.65 M104.1 -63.35 L107.95 -61.05 M111.4 -42.4 L109.9 -38.75 Q108.0 -34.45 105.75 -31.1 104.1 -27.45 104.6 -23.85 L104.75 -22.95 Q105.0 -21.45 105.7 -19.95 L107.5 -17.0 108.35 -15.1 109.35 -12.3 109.4 -12.15 109.45 -12.15 Q111.4 -10.25 111.2 -7.4 M74.1 -10.95 Q73.6 -12.7 74.05 -14.15 L74.4 -15.1 74.9 -14.75 Q76.0 -19.2 78.7 -22.9 L79.3 -23.65 M79.75 -33.75 L79.05 -35.85 78.65 -37.75 Q76.65 -38.4 75.15 -40.0 M79.85 -66.2 L76.2 -56.5 M73.15 -50.65 Q72.65 -49.0 72.65 -46.7 L72.7 -45.1 Q73.0 -42.75 74.25 -41.0 L75.1 -40.0 75.15 -40.0 M97.35 -51.55 L81.55 -55.8 Q81.85 -59.1 83.05 -62.4 L84.0 -64.85 84.9 -66.65 M78.65 -37.75 L79.35 -37.55 79.9 -37.5 91.95 -32.7 Q94.0 -31.7 96.6 -31.65 101.0 -31.65 104.05 -34.65 107.25 -37.75 107.35 -42.15 L107.3 -43.8 106.7 -45.95 Q105.0 -48.15 105.35 -52.85 105.75 -57.25 107.9 -61.05 L107.95 -61.05 M100.7 -9.5 L104.8 -10.45 Q105.75 -10.65 109.4 -12.15 M100.55 -9.45 L91.1 -9.95 83.55 -10.9 Q81.65 -11.5 79.9 -12.25 L78.6 -12.8 75.95 -14.15 74.9 -14.75 M74.1 -10.95 L74.1 -10.9 Q76.6 -8.05 79.9 -6.25 81.55 -5.3 83.45 -4.6 L86.95 -3.8 91.5 -3.2 98.6 -3.7 100.05 -3.95 102.8 -4.45 107.75 -5.6 111.1 -6.5 111.2 -7.4 M100.55 -9.45 L100.7 -9.5 M104.1 -63.35 L103.7 -62.4 103.0 -60.75 Q100.75 -55.75 97.35 -51.55 M107.3 -43.8 Q108.95 -40.05 111.4 -42.4" fill="none" stroke="#d7917f" stroke-linecap="round" stroke-linejoin="round" stroke-width="0.05"/>
    <path d="M115.15 -56.55 L115.15 -56.4 M71.3 2.25 L73.8 -11.15 74.1 -10.95 M102.55 -64.3 L102.55 -64.15" fill="none" stroke="#426123" stroke-linecap="round" stroke-linejoin="round" stroke-width="0.05"/>
    <path d="M79.85 -66.2 L81.1 -66.45" fill="none" stroke="#305054" stroke-linecap="round" stroke-linejoin="round" stroke-width="0.05"/>
    <path d="M111.2 -7.4 Q118.2 21.15 121.75 50.5 M66.15 50.5 Q67.4 25.35 71.3 2.25" fill="none" stroke="#4f4535" stroke-linecap="round" stroke-linejoin="round" stroke-width="0.05"/>
    <path d="M85.05 44.85 L86.15 44.65 Q92.45 43.4 96.35 35.85 101.15 26.6 102.35 8.0 102.75 2.2 102.8 -4.45 M71.3 2.25 Q69.6 19.8 71.9 30.2 72.65 33.55 73.8 36.2 75.75 40.7 78.95 42.95 80.95 44.4 83.5 44.95 L85.05 44.85" fill="none" stroke="#ff0000" stroke-linecap="round" stroke-linejoin="round" stroke-width="0.05"/>
    <path d="M88.95 -67.45 L89.5 -71.0 89.65 -73.65 89.65 -74.7 89.55 -76.65 92.4 -76.75 96.2 -76.65 97.15 -76.55 99.95 -76.25 100.85 -76.15 100.7 -74.7 100.45 -71.0 Q100.4 -69.05 100.6 -67.2 M123.9 -32.0 L128.1 -17.4 M128.05 -17.25 Q129.25 -15.1 130.6 -11.15 L132.45 13.05 132.75 14.55 132.6 15.1 132.6 15.2 131.3 20.8 130.55 24.05 129.5 24.9 129.35 25.85 128.6 25.55 122.55 23.15 122.4 23.15 122.6 21.2 120.6 16.8 121.85 14.35 124.4 9.45 126.9 9.15 Q124.95 1.05 122.25 -6.05 121.4 -10.1 122.15 -14.45 L122.35 -15.8 116.8 -30.9 M73.55 -39.65 L69.55 -26.85 69.65 -25.75 Q70.2 -22.0 69.15 -18.45 65.85 -11.75 63.35 -4.05 64.8 -4.2 66.1 -3.6 L67.35 0.95 67.95 3.25 65.3 7.0 65.05 8.75 64.95 8.75 59.05 10.35 58.3 10.55 58.4 9.7 57.65 8.9 57.6 5.95 57.65 0.45 57.65 0.25 57.75 -0.05 61.05 -22.6 Q62.55 -26.1 63.95 -28.05 L67.35 -41.7 M63.65 -26.95 L63.95 -28.05 M69.55 -26.85 L69.15 -25.7 M63.35 -4.05 L62.2 -0.15 M99.95 -76.25 L99.9 -76.2 97.15 -76.55 M125.7 18.7 L125.75 18.9 M125.6 18.75 L122.6 21.2 M125.6 18.75 L125.7 18.7 M132.45 13.05 L132.6 15.1 M126.9 9.15 L128.15 14.75 M63.05 4.5 L63.1 4.55 65.3 7.0 M63.05 4.5 L62.95 4.7 M57.65 0.45 L57.75 -0.05" fill="none" stroke="#d7995e" stroke-linecap="round" stroke-linejoin="round" stroke-width="0.05"/>
  </g>
</svg>
