<?xml version="1.0" encoding="UTF-8" standalone="no"?>
<svg xmlns:xlink="http://www.w3.org/1999/xlink" height="159.8px" width="89.25px" xmlns="http://www.w3.org/2000/svg">
  <g transform="matrix(1, 0, 0, 1, -48.15, 110.25)">
    <path d="M75.85 -83.55 L76.25 -85.45 Q78.35 -85.05 80.05 -82.75 L80.15 -82.55 Q77.75 -85.25 76.5 -79.8 L76.2 -81.2 76.0 -82.4 75.85 -83.55 M76.3 -85.6 Q77.0 -88.15 78.4 -89.75 78.3 -87.25 79.1 -85.15 78.05 -85.9 76.3 -85.6 M80.35 -82.1 L81.0 -80.7 Q82.15 -78.7 83.9 -77.55 83.1 -83.25 85.65 -88.4 88.2 -85.85 89.85 -82.55 87.5 -81.95 85.7 -79.95 88.05 -81.05 90.3 -81.6 L91.4 -78.45 91.3 -78.55 Q90.2 -79.35 88.65 -79.5 L88.3 -79.5 87.7 -78.45 87.7 -78.35 87.4 -77.6 Q86.6 -75.65 86.35 -73.0 L88.05 -72.4 90.6 -71.95 Q92.3 -71.85 93.7 -72.5 93.55 -76.05 92.1 -77.8 92.85 -79.65 93.15 -82.15 L95.0 -82.2 Q96.55 -77.35 98.7 -72.65 L99.1 -71.5 Q99.35 -68.3 97.2 -65.65 95.0 -62.95 90.45 -60.85 88.35 -59.85 85.8 -59.0 77.65 -64.3 77.4 -69.8 L76.9 -77.75 76.85 -78.55 Q77.25 -77.65 77.9 -76.95 78.3 -76.1 78.9 -76.0 L79.85 -75.5 80.7 -75.45 80.6 -78.0 80.45 -79.15 80.4 -81.55 80.35 -82.1 M93.2 -82.85 L93.15 -88.65 94.85 -82.6 93.2 -82.85 M115.85 -51.0 L123.75 -47.0 123.75 -46.95 123.65 -47.0 123.35 -46.6 118.75 -46.5 Q117.15 -45.75 116.35 -44.05 L116.0 -43.2 115.7 -41.85 115.55 -40.95 Q112.25 -39.15 107.8 -37.05 L75.0 -44.8 74.85 -46.0 Q74.6 -54.2 75.05 -57.9 L75.05 -58.05 80.85 -58.4 90.05 -58.85 90.05 -58.9 Q94.55 -59.2 98.4 -61.35 L101.55 -63.25 Q102.65 -59.9 103.25 -55.85 L103.35 -54.85 106.85 -54.9 107.9 -54.9 115.85 -51.0 M135.6 -18.65 L137.4 -12.4 137.4 5.35 137.4 28.65 135.15 22.3 Q134.0 16.85 135.05 11.0 L135.35 9.15 135.25 9.1 125.7 -16.9 Q131.15 -16.1 135.6 -18.65 M70.35 -25.1 L64.25 -5.8 64.45 -4.2 Q65.15 0.85 63.8 5.65 59.35 14.65 56.0 25.0 57.85 24.85 59.6 25.6 L61.25 31.7 57.15 34.9 55.5 36.5 55.35 36.7 53.8 38.3 Q52.65 43.2 50.1 44.35 L49.1 44.6 49.2 43.45 48.15 38.4 48.2 31.05 48.2 30.8 48.5 29.95 52.85 0.1 Q54.85 -4.45 56.6 -7.05 L62.4 -30.3 Q65.3 -26.85 69.85 -26.0 L70.35 -25.1 M79.45 -71.25 Q80.15 -72.25 80.5 -73.65 L80.7 -75.45 80.5 -73.65 Q80.15 -72.25 79.45 -71.25 79.2 -68.9 81.55 -69.65 80.3 -70.2 79.45 -71.25 M56.6 -7.05 L58.35 -9.2 Q63.25 -10.65 64.25 -5.8 63.25 -10.65 58.35 -9.2 L56.6 -7.05 M87.9 -63.8 Q82.7 -64.2 81.4 -66.15 82.7 -64.2 87.9 -63.8 M88.75 -55.05 L89.1 -55.85 90.05 -58.85 89.1 -55.85 88.75 -55.05 M137.4 5.35 Q135.95 6.4 135.35 9.15 135.95 6.4 137.4 5.35 M137.4 44.35 L137.4 49.55 134.7 49.55 137.4 44.35 M54.4 30.25 L56.0 25.0 54.4 30.25 M48.2 31.05 L48.5 29.95 48.2 31.05" fill="#ffdfc8" fill-rule="evenodd" stroke="none"/>
    <path d="M98.7 -72.65 Q100.15 -69.5 101.85 -66.4 L103.05 -64.25 103.4 -63.65 103.3 -64.45 Q102.1 -74.25 104.8 -78.2 L106.0 -78.65 105.5 -78.0 Q105.75 -75.0 106.75 -74.75 107.35 -76.05 108.5 -76.8 109.95 -76.5 110.55 -75.85 110.4 -72.9 108.95 -69.95 L109.05 -69.9 108.9 -69.75 108.5 -69.25 107.6 -68.7 107.4 -68.65 105.9 -66.95 105.8 -65.1 Q105.75 -60.45 106.55 -56.2 L106.6 -55.85 106.7 -55.8 115.85 -51.0 107.9 -54.9 106.85 -54.9 103.35 -54.85 103.25 -55.85 Q102.65 -59.9 101.55 -63.25 L98.4 -61.35 Q94.55 -59.2 90.05 -58.9 L85.8 -59.0 Q88.35 -59.85 90.45 -60.85 95.0 -62.95 97.2 -65.65 99.35 -68.3 99.1 -71.5 L98.7 -72.65 M61.25 31.7 L62.05 34.8 58.45 39.85 58.15 42.15 58.0 42.15 50.1 44.35 Q52.65 43.2 53.8 38.3 L55.35 36.7 55.55 36.55 55.5 36.5 57.15 34.9 61.25 31.7 M101.55 -63.25 L103.05 -64.25 101.55 -63.25 M107.65 -70.7 Q107.75 -72.0 107.25 -72.45 L106.15 -72.65 106.15 -73.0 106.75 -74.75 106.15 -73.0 106.15 -72.65 107.25 -72.45 Q107.75 -72.0 107.65 -70.7 M105.9 -66.95 L105.4 -66.3 Q104.8 -65.55 103.3 -64.45 104.8 -65.55 105.4 -66.3 L105.9 -66.95 M106.7 -55.8 L106.85 -54.9 106.7 -55.8 M58.45 39.85 L55.55 36.55 58.45 39.85" fill="#ffd0ae" fill-rule="evenodd" stroke="none"/>
    <path d="M55.55 36.55 L55.35 36.7 55.5 36.5 55.55 36.55" fill="#eebf5a" fill-rule="evenodd" stroke="none"/>
    <path d="M49.2 43.45 L48.2 42.35 48.15 38.4 49.2 43.45" fill="#f5dfc5" fill-rule="evenodd" stroke="none"/>
    <path d="M125.55 -45.4 Q129.05 -43.1 131.25 -38.6 132.6 -35.8 133.05 -33.15 L133.1 -32.35 132.95 -31.6 132.2 -29.3 131.2 -27.7 Q129.7 -26.0 127.45 -26.6 126.65 -26.8 125.9 -27.2 L125.75 -27.3 Q123.65 -28.3 121.85 -30.3 L121.2 -31.05 120.85 -31.5 Q118.15 -35.1 115.95 -41.15 L115.85 -41.4 115.7 -41.85 116.0 -43.2 116.35 -44.05 Q117.15 -45.75 118.75 -46.5 L123.35 -46.6 125.3 -45.6 125.55 -45.4 M119.4 49.55 L62.5 49.55 Q64.0 39.7 66.05 30.15 L69.15 17.3 69.0 17.25 69.3 16.25 Q72.0 6.6 77.75 -1.9 L77.8 -2.05 Q78.9 -4.2 79.0 -7.45 L79.1 -7.45 Q84.3 -13.35 89.15 -12.45 91.95 -11.9 94.1 -10.9 L96.7 -9.2 Q98.9 -7.5 100.9 -4.65 L102.7 -1.95 102.95 -1.65 103.2 -1.15 103.55 -0.45 104.15 0.55 104.55 1.45 Q110.45 7.15 113.6 17.35 L114.45 20.55 114.55 20.5 115.05 23.0 Q117.6 36.75 119.4 49.55 M71.3 -56.8 Q72.8 -57.75 74.2 -57.85 L74.25 -58.0 75.05 -58.15 75.05 -58.05 75.05 -57.9 Q74.6 -54.2 74.85 -46.0 L75.0 -44.8 107.8 -37.05 Q109.0 -36.0 109.4 -34.7 110.25 -31.0 110.4 -27.9 110.65 -23.0 109.15 -19.7 105.45 -13.75 94.25 -16.8 L93.65 -17.0 93.7 -16.85 93.15 -17.1 91.75 -17.3 Q90.65 -17.45 85.8 -19.75 80.85 -22.05 77.1 -23.0 L73.0 -24.05 Q71.75 -24.8 70.85 -25.85 69.2 -27.6 68.55 -30.25 L68.45 -32.4 Q68.45 -35.5 69.1 -37.7 68.15 -38.3 67.55 -39.6 L67.5 -39.7 67.1 -40.9 Q66.15 -44.55 68.05 -49.8 69.15 -53.05 71.3 -56.8 M73.1 -45.35 L72.8 -44.25 Q72.15 -42.6 70.7 -40.8 69.7 -39.55 69.1 -37.7 69.7 -39.55 70.7 -40.8 72.15 -42.6 72.8 -44.25 L73.1 -45.35 73.2 -45.6 73.1 -45.35 M75.0 -44.8 L74.9 -44.8 74.85 -46.0 74.9 -44.8 75.0 -44.8 M69.15 17.3 L69.3 16.25 69.15 17.3" fill="#66cccc" fill-rule="evenodd" stroke="none"/>
    <path d="M123.75 -46.95 L124.35 -46.55 125.05 -46.05 Q125.3 -45.9 125.6 -45.7 L125.55 -45.45 125.55 -45.4 125.3 -45.6 123.35 -46.6 123.65 -47.0 123.75 -46.95 M133.05 -33.15 Q135.1 -27.35 137.4 -22.55 L137.4 -19.9 135.6 -18.65 Q131.15 -16.1 125.7 -16.9 L124.25 -17.15 Q123.3 -21.05 121.65 -24.9 L120.75 -26.95 120.7 -27.05 120.55 -26.65 118.55 -21.7 Q116.45 -17.05 114.1 -13.25 L112.95 -11.4 Q110.8 -6.7 111.3 -2.0 L111.35 -1.65 111.6 -0.45 111.65 -0.2 Q117.05 7.65 119.4 19.2 L119.8 21.1 Q124.15 35.3 127.6 49.55 L119.4 49.55 Q117.6 36.75 115.05 23.0 L114.55 20.5 114.45 20.55 113.6 17.35 Q110.45 7.15 104.55 1.45 L104.15 0.55 103.55 -0.45 103.2 -1.15 102.95 -1.65 102.7 -1.95 100.9 -4.65 Q98.9 -7.5 96.7 -9.2 L94.1 -10.9 Q91.95 -11.9 89.15 -12.45 84.3 -13.35 79.1 -7.45 L79.0 -7.45 Q79.0 -10.7 78.0 -15.0 L77.05 -17.8 76.5 -20.35 Q73.8 -21.25 71.75 -23.4 L70.55 -24.75 70.35 -25.1 69.85 -26.0 Q65.3 -26.85 62.4 -30.3 L61.2 -31.95 Q62.25 -35.55 63.45 -41.8 L63.8 -41.8 63.7 -43.3 63.95 -44.85 Q64.35 -46.85 65.4 -49.3 67.25 -53.8 70.45 -56.2 L71.3 -56.8 Q69.15 -53.05 68.05 -49.8 66.15 -44.55 67.1 -40.9 L67.5 -39.7 67.55 -39.6 Q68.15 -38.3 69.1 -37.7 68.45 -35.5 68.45 -32.4 L68.55 -30.25 Q69.2 -27.6 70.85 -25.85 71.75 -24.8 73.0 -24.05 L77.1 -23.0 Q80.85 -22.05 85.8 -19.75 90.65 -17.45 91.75 -17.3 L93.15 -17.1 93.7 -16.85 93.65 -17.0 94.25 -16.8 Q105.45 -13.75 109.15 -19.7 110.65 -23.0 110.4 -27.9 110.25 -31.0 109.4 -34.7 109.0 -36.0 107.8 -37.05 112.25 -39.15 115.55 -40.95 L115.7 -41.85 115.85 -41.4 115.95 -41.15 Q118.15 -35.1 120.85 -31.5 L121.2 -31.05 121.85 -30.3 Q123.65 -28.3 125.75 -27.3 L125.9 -27.2 Q126.65 -26.8 127.45 -26.6 129.7 -26.0 131.2 -27.7 L132.2 -29.3 132.95 -31.6 133.1 -32.35 133.05 -33.15 M65.25 -36.75 Q64.7 -37.25 64.35 -38.1 63.8 -39.5 63.8 -41.8 63.8 -39.5 64.35 -38.1 64.7 -37.25 65.25 -36.75 M68.55 -30.25 Q68.85 -27.9 69.85 -26.0 68.85 -27.9 68.55 -30.25 M115.0 -28.55 L115.1 -26.25 Q115.0 -20.35 110.7 -16.25 108.7 -14.3 106.3 -13.3 103.7 -12.2 100.6 -12.2 97.55 -12.2 95.05 -13.25 L94.35 -13.55 78.2 -20.0 77.45 -20.15 76.5 -20.35 77.45 -20.15 78.2 -20.0 94.35 -13.55 95.05 -13.25 Q97.55 -12.2 100.6 -12.2 103.7 -12.2 106.3 -13.3 108.7 -14.3 110.7 -16.25 115.0 -20.35 115.1 -26.25 L115.0 -28.55 M118.1 -30.8 Q119.3 -28.65 120.7 -27.05 119.3 -28.65 118.1 -30.8 M132.95 -26.8 L133.0 -27.75 133.1 -29.5 133.05 -29.6 Q133.25 -30.95 133.1 -32.35 133.25 -30.95 133.05 -29.6 L133.1 -29.5 133.0 -27.75 132.95 -26.8" fill="#6699cc" fill-rule="evenodd" stroke="none"/>
    <path d="M63.45 -41.8 L63.7 -43.3 63.8 -41.8 63.45 -41.8" fill="#e7e7e7" fill-rule="evenodd" stroke="none"/>
    <path d="M80.15 -82.55 L80.35 -82.1 80.4 -81.55 80.3 -81.8 Q79.75 -82.8 79.05 -82.75 78.3 -82.8 77.85 -81.8 77.3 -80.85 77.35 -79.4 77.3 -78.0 77.85 -77.0 L77.9 -76.95 Q77.25 -77.65 76.85 -78.55 L76.9 -77.75 76.2 -78.7 76.2 -81.2 76.5 -79.8 76.85 -78.55 76.5 -79.8 Q77.75 -85.25 80.15 -82.55 M91.4 -78.45 L91.55 -78.05 91.3 -78.55 91.4 -78.45 M91.8 -77.25 L92.1 -77.8 Q93.55 -76.05 93.7 -72.5 92.3 -71.85 90.6 -71.95 L91.3 -72.75 Q91.95 -73.95 91.95 -75.65 L91.8 -77.25 M80.1 -80.2 L79.9 -79.95 Q79.65 -79.65 79.3 -79.65 78.9 -79.65 78.65 -79.95 78.35 -80.25 78.35 -80.7 L78.45 -81.2 78.65 -81.5 Q78.9 -81.85 79.3 -81.8 79.65 -81.85 79.9 -81.5 L80.2 -80.7 80.1 -80.2 M80.1 -76.7 L79.85 -75.5 78.9 -76.0 79.05 -76.0 Q79.65 -76.05 80.1 -76.7 M76.5 -79.8 L76.45 -79.5 76.85 -78.55 76.45 -79.5 76.5 -79.8 M88.9 -77.95 L89.1 -78.2 Q89.45 -78.55 90.05 -78.55 L90.9 -78.2 Q91.3 -77.85 91.35 -77.3 L91.1 -76.55 90.9 -76.4 Q90.55 -76.0 90.05 -75.95 89.45 -76.0 89.1 -76.4 88.7 -76.8 88.7 -77.3 L88.9 -77.95 M87.4 -77.6 Q87.05 -76.75 87.1 -75.65 87.05 -73.95 87.8 -72.75 L88.05 -72.4 86.35 -73.0 Q86.6 -75.65 87.4 -77.6 M87.7 -78.45 L88.3 -79.5 88.65 -79.5 Q88.15 -79.2 87.8 -78.55 L87.7 -78.45" fill="#ffffff" fill-rule="evenodd" stroke="none"/>
    <path d="M91.55 -78.05 L91.75 -77.15 91.8 -77.25 91.95 -75.65 Q91.95 -73.95 91.3 -72.75 L90.6 -71.95 88.05 -72.4 87.8 -72.75 Q87.05 -73.95 87.1 -75.65 87.05 -76.75 87.4 -77.6 L87.7 -78.35 87.7 -78.45 87.8 -78.55 Q88.15 -79.2 88.65 -79.5 90.2 -79.35 91.3 -78.55 L91.55 -78.05 M78.45 -81.2 L78.2 -80.9 Q77.9 -80.3 77.9 -79.45 77.9 -78.55 78.2 -77.95 78.55 -77.3 79.05 -77.3 79.5 -77.3 79.85 -77.95 L80.15 -79.4 80.1 -80.2 80.2 -80.7 79.9 -81.5 Q79.65 -81.85 79.3 -81.8 78.9 -81.85 78.65 -81.5 L78.45 -81.2 M77.9 -76.95 L77.85 -77.0 Q77.3 -78.0 77.35 -79.4 77.3 -80.85 77.85 -81.8 78.3 -82.8 79.05 -82.75 79.75 -82.8 80.3 -81.8 L80.4 -81.55 80.45 -79.15 80.1 -76.7 Q79.65 -76.05 79.05 -76.0 L78.9 -76.0 Q78.3 -76.1 77.9 -76.95 M91.1 -76.55 L91.35 -77.3 Q91.3 -77.85 90.9 -78.2 L90.05 -78.55 Q89.45 -78.55 89.1 -78.2 L88.9 -77.95 88.4 -77.45 Q87.9 -76.7 87.9 -75.7 87.9 -74.65 88.4 -73.9 88.9 -73.15 89.55 -73.15 90.2 -73.15 90.65 -73.9 91.15 -74.65 91.15 -75.65 L91.1 -76.55" fill="#99cc00" fill-rule="evenodd" stroke="none"/>
    <path d="M80.1 -80.2 L80.15 -79.4 79.85 -77.95 Q79.5 -77.3 79.05 -77.3 78.55 -77.3 78.2 -77.95 77.9 -78.55 77.9 -79.45 77.9 -80.3 78.2 -80.9 L78.45 -81.2 78.35 -80.7 Q78.35 -80.25 78.65 -79.95 78.9 -79.65 79.3 -79.65 79.65 -79.65 79.9 -79.95 L80.1 -80.2 M91.1 -76.55 L91.15 -75.65 Q91.15 -74.65 90.65 -73.9 90.2 -73.15 89.55 -73.15 88.9 -73.15 88.4 -73.9 87.9 -74.65 87.9 -75.7 87.9 -76.7 88.4 -77.45 L88.9 -77.95 88.7 -77.3 Q88.7 -76.8 89.1 -76.4 89.45 -76.0 90.05 -75.95 90.55 -76.0 90.9 -76.4 L91.1 -76.55" fill="#000000" fill-rule="evenodd" stroke="none"/>
    <path d="M80.45 -79.15 L80.6 -78.0 80.7 -75.45 79.85 -75.5 80.1 -76.7 80.45 -79.15 M79.45 -71.25 Q80.3 -70.2 81.55 -69.65 79.2 -68.9 79.45 -71.25" fill="#efc8a0" fill-rule="evenodd" stroke="none"/>
    <path d="M106.0 -78.65 Q109.65 -79.7 110.55 -76.6 L110.55 -75.85 Q109.95 -76.5 108.5 -76.8 107.35 -76.05 106.75 -74.75 105.75 -75.0 105.5 -78.0 L106.0 -78.65" fill="#ffeadf" fill-rule="evenodd" stroke="none"/>
    <path d="M76.25 -85.45 L76.3 -85.6 Q78.05 -85.9 79.1 -85.15 L79.65 -84.05 80.05 -82.75 Q78.35 -85.05 76.25 -85.45 M89.85 -82.55 L90.3 -81.6 Q88.05 -81.05 85.7 -79.95 87.5 -81.95 89.85 -82.55 M93.15 -82.15 L93.2 -82.85 94.85 -82.6 95.0 -82.2 93.15 -82.15" fill="#503e53" fill-rule="evenodd" stroke="none"/>
    <path d="M94.15 -107.2 L90.5 -106.55 Q81.45 -104.45 80.15 -99.0 79.0 -97.95 78.25 -96.6 L77.2 -94.55 77.15 -94.4 76.65 -93.1 76.4 -92.4 76.2 -91.85 75.8 -90.9 76.55 -91.65 76.85 -91.95 77.4 -92.4 80.15 -94.9 81.65 -94.55 Q81.25 -91.3 82.75 -88.4 82.85 -92.3 86.0 -93.15 89.45 -91.75 90.5 -87.8 90.8 -90.0 89.9 -93.9 96.3 -91.1 99.0 -85.3 100.0 -86.4 100.2 -93.0 L102.7 -89.15 104.85 -85.25 Q106.05 -83.1 106.6 -82.7 L106.65 -82.65 Q106.95 -82.5 106.95 -82.9 110.3 -85.4 109.15 -90.4 112.35 -88.15 111.8 -83.5 114.25 -84.8 115.65 -88.6 L116.8 -93.5 Q115.65 -99.7 113.6 -102.6 L111.95 -104.35 111.8 -104.5 111.8 -104.55 Q108.35 -108.1 104.7 -108.25 L107.15 -106.6 Q103.15 -108.8 99.15 -108.05 L99.75 -107.8 Q101.35 -107.05 100.2 -106.3 95.95 -107.6 94.15 -107.2 M75.85 -83.55 Q75.45 -81.25 75.5 -78.3 69.4 -92.9 77.4 -99.65 82.35 -107.25 99.65 -110.2 107.55 -110.7 112.3 -107.35 115.2 -105.3 116.9 -101.7 L117.65 -99.6 117.85 -98.85 Q119.45 -91.6 115.05 -81.3 L113.35 -76.8 Q112.25 -74.1 109.05 -69.9 L108.95 -69.95 Q110.4 -72.9 110.55 -75.85 L110.55 -76.6 Q109.65 -79.7 106.0 -78.65 L104.8 -78.2 Q102.1 -74.25 103.3 -64.45 L103.4 -63.65 103.05 -64.25 101.85 -66.4 Q100.15 -69.5 98.7 -72.65 96.55 -77.35 95.0 -82.2 L94.85 -82.6 93.15 -88.65 93.2 -82.85 93.15 -82.15 Q92.85 -79.65 92.1 -77.8 L91.8 -77.25 91.75 -77.15 91.55 -78.05 91.4 -78.45 90.3 -81.6 89.85 -82.55 Q88.2 -85.85 85.65 -88.4 83.1 -83.25 83.9 -77.55 82.15 -78.7 81.0 -80.7 L80.35 -82.1 80.15 -82.55 80.05 -82.75 79.65 -84.05 79.1 -85.15 Q78.3 -87.25 78.4 -89.75 77.0 -88.15 76.3 -85.6 L76.25 -85.45 75.85 -83.55" fill="#ffff99" fill-rule="evenodd" stroke="none"/>
    <path d="M94.15 -107.2 Q95.95 -107.6 100.2 -106.3 101.35 -107.05 99.75 -107.8 L99.15 -108.05 Q103.15 -108.8 107.15 -106.6 L104.7 -108.25 Q108.35 -108.1 111.8 -104.55 L111.8 -104.5 111.95 -104.35 113.6 -102.6 Q115.65 -99.7 116.8 -93.5 L115.65 -88.6 Q114.25 -84.8 111.8 -83.5 112.35 -88.15 109.15 -90.4 110.3 -85.4 106.95 -82.9 106.95 -82.5 106.65 -82.65 L106.6 -82.7 Q106.05 -83.1 104.85 -85.25 L102.7 -89.15 100.2 -93.0 Q100.0 -86.4 99.0 -85.3 96.3 -91.1 89.9 -93.9 90.8 -90.0 90.5 -87.8 89.45 -91.75 86.0 -93.15 82.85 -92.3 82.75 -88.4 81.25 -91.3 81.65 -94.55 L80.15 -94.9 77.4 -92.4 76.85 -91.95 76.55 -91.65 75.8 -90.9 76.2 -91.85 76.4 -92.4 76.65 -93.1 77.15 -94.4 77.2 -94.55 78.25 -96.6 Q79.0 -97.95 80.15 -99.0 81.45 -104.45 90.5 -106.55 L94.15 -107.2" fill="#ffffcc" fill-rule="evenodd" stroke="none"/>
    <path d="M109.05 -69.9 L108.9 -69.75 108.5 -69.25 107.6 -68.7 107.4 -68.65 105.9 -66.95 105.8 -65.1 Q105.75 -60.45 106.55 -56.2 L106.6 -55.85 106.7 -55.8 115.85 -51.0 123.75 -47.0 123.75 -46.95 M135.6 -18.65 L137.4 -12.4 M135.25 9.1 L125.7 -16.9 M70.35 -25.1 L64.25 -5.8 M56.0 25.0 Q57.85 24.85 59.6 25.6 L61.25 31.7 62.05 34.8 58.45 39.85 58.15 42.15 58.0 42.15 50.1 44.35 49.1 44.6 49.2 43.45 48.2 42.35 48.15 38.4 48.2 31.05 48.2 30.8 48.5 29.95 M56.6 -7.05 L62.4 -30.3 M75.05 -58.05 L80.85 -58.4 90.05 -58.85 90.05 -58.9 85.8 -59.0 Q77.65 -64.3 77.4 -69.8 L76.9 -77.75 76.85 -78.55 76.45 -79.5 76.5 -79.8 76.2 -81.2 76.0 -82.4 75.85 -83.55 M80.4 -81.55 L80.35 -82.1 M80.7 -75.45 L80.6 -78.0 80.45 -79.15 80.1 -76.7 79.85 -75.5 M80.7 -75.45 L80.5 -73.65 Q80.15 -72.25 79.45 -71.25 M81.55 -69.65 Q79.2 -68.9 79.45 -71.25 M76.85 -78.55 L76.5 -79.8 Q77.75 -85.25 80.15 -82.55 M78.9 -76.0 L79.85 -75.5 M77.9 -76.95 Q78.3 -76.1 78.9 -76.0 M76.85 -78.55 Q77.25 -77.65 77.9 -76.95 M80.4 -81.55 L80.45 -79.15 M74.85 -46.0 L75.0 -44.8 M106.0 -78.65 L105.5 -78.0 M106.75 -74.75 Q107.35 -76.05 108.5 -76.8 M87.7 -78.45 L87.7 -78.35 87.4 -77.6 M88.05 -72.4 L90.6 -71.95 Q92.3 -71.85 93.7 -72.5 93.55 -76.05 92.1 -77.8 M88.65 -79.5 L88.3 -79.5 87.7 -78.45 M88.65 -79.5 Q90.2 -79.35 91.3 -78.55 L91.4 -78.45 M81.4 -66.15 Q82.7 -64.2 87.9 -63.8 M88.05 -72.4 L86.35 -73.0 Q86.6 -75.65 87.4 -77.6 M90.05 -58.85 L89.1 -55.85 88.75 -55.05 M101.55 -63.25 L98.4 -61.35 Q94.55 -59.2 90.05 -58.9 M106.75 -74.75 L106.15 -73.0 106.15 -72.65 107.25 -72.45 Q107.75 -72.0 107.65 -70.7 M103.05 -64.25 L101.55 -63.25 M106.85 -54.9 L106.7 -55.8 M103.3 -64.45 Q104.8 -65.55 105.4 -66.3 L105.9 -66.95 M134.7 49.55 L137.4 44.35 M55.55 36.55 L55.5 36.5 55.35 36.7 M55.55 36.55 L58.45 39.85" fill="none" stroke="#d7995e" stroke-linecap="round" stroke-linejoin="round" stroke-width="0.05"/>
    <path d="M61.2 -31.95 Q62.25 -35.55 63.45 -41.8 L63.7 -43.3 63.95 -44.85 Q64.35 -46.85 65.4 -49.3 67.25 -53.8 70.45 -56.2 L71.3 -56.8 Q72.8 -57.75 74.2 -57.85 M73.1 -45.35 L73.2 -45.6 M63.8 -41.8 L63.7 -43.3 M63.8 -41.8 Q63.8 -39.5 64.35 -38.1 64.7 -37.25 65.25 -36.75" fill="none" stroke="#581b1b" stroke-linecap="round" stroke-linejoin="round" stroke-width="0.05"/>
    <path d="M123.75 -46.95 L124.35 -46.55 125.05 -46.05 Q125.3 -45.9 125.6 -45.7 L125.55 -45.45 125.55 -45.4 Q129.05 -43.1 131.25 -38.6 132.6 -35.8 133.05 -33.15 135.1 -27.35 137.4 -22.55 M124.25 -17.15 Q123.3 -21.05 121.65 -24.9 L120.75 -26.95 120.7 -27.05 120.55 -26.65 118.55 -21.7 Q116.45 -17.05 114.1 -13.25 L112.95 -11.4 Q110.8 -6.7 111.3 -2.0 L111.35 -1.65 111.6 -0.45 111.65 -0.2 M77.75 -1.9 L77.8 -2.05 Q78.9 -4.2 79.0 -7.45 79.0 -10.7 78.0 -15.0 L77.05 -17.8 76.5 -20.35 Q73.8 -21.25 71.75 -23.4 L70.55 -24.75 70.35 -25.1 M74.25 -58.0 L75.05 -58.15 75.05 -58.05 75.05 -57.9 Q74.6 -54.2 74.85 -46.0 L74.9 -44.8 75.0 -44.8 107.8 -37.05 Q112.25 -39.15 115.55 -40.95 M116.0 -43.2 L116.35 -44.05 Q117.15 -45.75 118.75 -46.5 L123.35 -46.6 123.65 -47.0 123.75 -46.95 M69.1 -37.7 Q69.7 -39.55 70.7 -40.8 72.15 -42.6 72.8 -44.25 L73.1 -45.35 M69.85 -26.0 Q68.85 -27.9 68.55 -30.25 L68.45 -32.4 Q68.45 -35.5 69.1 -37.7 M69.85 -26.0 L70.35 -25.1 M76.5 -20.35 L77.45 -20.15 78.2 -20.0 94.35 -13.55 95.05 -13.25 Q97.55 -12.2 100.6 -12.2 103.7 -12.2 106.3 -13.3 108.7 -14.3 110.7 -16.25 115.0 -20.35 115.1 -26.25 L115.0 -28.55 M133.1 -32.35 L133.05 -33.15 M120.7 -27.05 Q119.3 -28.65 118.1 -30.8 M125.55 -45.4 L125.3 -45.6 123.35 -46.6 M133.1 -32.35 Q133.25 -30.95 133.05 -29.6 L133.1 -29.5 133.0 -27.75 132.95 -26.8" fill="none" stroke="#661e1e" stroke-linecap="round" stroke-linejoin="round" stroke-width="0.05"/>
    <path d="M111.65 -0.2 Q117.05 7.65 119.4 19.2 M69.15 17.3 L69.0 17.25 69.3 16.25 Q72.0 6.6 77.75 -1.9" fill="none" stroke="#cecece" stroke-linecap="round" stroke-linejoin="round" stroke-width="0.05"/>
    <path d="M80.05 -82.75 Q78.35 -85.05 76.25 -85.45 M79.1 -85.15 Q78.05 -85.9 76.3 -85.6 M89.85 -82.55 Q87.5 -81.95 85.7 -79.95 88.05 -81.05 90.3 -81.6 M93.2 -82.85 L94.85 -82.6 M95.0 -82.2 L93.15 -82.15" fill="none" stroke="#5b4961" stroke-linecap="round" stroke-linejoin="round" stroke-width="0.05"/>
    <path d="M137.4 28.65 L135.15 22.3 Q134.0 16.85 135.05 11.0 L135.35 9.15 Q135.95 6.4 137.4 5.35 M64.25 -5.8 L64.45 -4.2 Q65.15 0.85 63.8 5.65 59.35 14.65 56.0 25.0 L54.4 30.25 M48.5 29.95 L52.85 0.1 Q54.85 -4.45 56.6 -7.05 M64.25 -5.8 Q63.25 -10.65 58.35 -9.2 L56.6 -7.05 M48.5 29.95 L48.2 31.05" fill="none" stroke="#d7995e" stroke-linecap="round" stroke-linejoin="round" stroke-width="0.05"/>
    <path d="M109.05 -69.9 Q112.25 -74.1 113.35 -76.8 L115.05 -81.3 Q119.45 -91.6 117.85 -98.85 L117.65 -99.6 116.9 -101.7 Q115.2 -105.3 112.3 -107.35 107.55 -110.7 99.65 -110.2 82.35 -107.25 77.4 -99.65 69.4 -92.9 75.5 -78.3 75.45 -81.25 75.85 -83.55 L76.25 -85.45 76.3 -85.6 Q77.0 -88.15 78.4 -89.75 78.3 -87.25 79.1 -85.15 L79.65 -84.05 80.05 -82.75 80.15 -82.55 80.35 -82.1 81.0 -80.7 Q82.15 -78.7 83.9 -77.55 83.1 -83.25 85.65 -88.4 88.2 -85.85 89.85 -82.55 L90.3 -81.6 91.4 -78.45 91.55 -78.05 91.75 -77.15 91.8 -77.25 92.1 -77.8 Q92.85 -79.65 93.15 -82.15 L93.2 -82.85 93.15 -88.65 94.85 -82.6 95.0 -82.2 Q96.55 -77.35 98.7 -72.65 100.15 -69.5 101.85 -66.4 L103.05 -64.25 103.4 -63.65 103.3 -64.45 Q102.1 -74.25 104.8 -78.2 L106.0 -78.65 Q109.65 -79.7 110.55 -76.6 L110.55 -75.85 Q110.4 -72.9 108.95 -69.95 L109.05 -69.9" fill="none" stroke="#ab5703" stroke-linecap="round" stroke-linejoin="round" stroke-width="0.05"/>
    <path d="M119.4 19.2 L119.8 21.1 Q124.15 35.3 127.6 49.55 M62.5 49.55 Q64.0 39.7 66.05 30.15 L69.15 17.3 M69.3 16.25 L69.15 17.3" fill="none" stroke="#cecece" stroke-linecap="round" stroke-linejoin="round" stroke-width="0.05"/>
  </g>
</svg>
