<?xml version="1.0" encoding="UTF-8" standalone="no"?>
<svg xmlns:xlink="http://www.w3.org/1999/xlink" height="173.35px" width="218.15px" xmlns="http://www.w3.org/2000/svg">
  <g transform="matrix(1, 0, 0, 1, 11.3, 107.9)">
    <path d="M132.8 55.65 L133.0 59.15 129.7 65.45 120.25 65.45 120.0 64.7 118.65 61.95 118.5 61.6 116.9 58.85 109.75 55.9 111.35 54.35 113.55 52.15 118.95 46.75 119.95 46.8 Q122.45 47.0 124.7 48.0 L121.85 56.5 Q122.95 62.35 129.2 61.75 L132.8 55.65 M52.85 61.25 L52.65 61.25 52.55 59.75 50.95 58.25 50.15 43.0 Q50.9 41.1 51.8 39.8 L52.55 46.75 Q57.95 49.9 61.45 45.05 61.75 40.45 62.3 36.25 65.25 36.25 68.05 37.45 L68.3 38.1 67.9 42.35 67.35 49.45 64.95 49.35 62.3 51.2 62.05 51.45 59.65 53.4 52.85 61.25 M205.85 44.7 L206.85 45.1 205.95 47.15 205.85 44.7 M-11.25 -0.4 L-10.2 -0.35 -11.3 1.85 -11.25 -0.4" fill="#ecce9d" fill-rule="evenodd" stroke="none"/>
    <path d="M120.25 65.45 L111.55 65.45 112.1 63.8 118.5 61.6 118.65 61.95 120.0 64.7 120.25 65.45 M66.4 59.0 L52.85 61.25 59.65 53.4 62.05 51.45 62.3 51.2 64.95 49.35 67.35 49.45 66.8 55.45 66.4 59.0 M109.75 55.9 L116.9 58.85 118.5 61.6 112.1 63.8 109.75 55.9 M66.8 55.45 L62.3 51.2 66.8 55.45" fill="#e3b175" fill-rule="evenodd" stroke="none"/>
    <path d="M146.15 12.15 L147.45 16.95 147.3 17.1 147.9 17.65 148.6 20.0 149.5 26.35 147.9 30.25 132.8 55.65 129.2 61.75 Q122.95 62.35 121.85 56.5 L124.7 48.0 127.2 38.75 Q128.35 34.05 128.95 29.75 129.8 23.8 131.75 20.05 132.8 17.9 134.25 16.45 L134.75 17.7 136.15 21.85 134.75 17.7 Q135.25 15.9 136.5 14.7 139.35 11.9 146.15 12.15 M51.8 39.8 L48.6 10.4 48.75 6.15 Q50.6 2.9 52.2 0.75 L52.8 0.0 53.6 -4.2 Q62.15 -5.25 64.5 -0.15 L64.85 0.7 63.8 5.1 64.85 0.7 64.95 0.35 65.1 0.55 Q66.4 2.25 67.0 4.55 L66.9 6.25 66.85 6.75 Q66.65 10.2 67.15 12.9 L66.05 17.7 Q64.8 21.9 63.9 26.65 62.95 31.15 62.3 36.25 61.75 40.45 61.45 45.05 57.95 49.9 52.55 46.75 L51.8 39.8 M77.15 -71.95 L77.1 -71.75 77.0 -71.6 Q76.7 -71.3 76.3 -71.25 75.9 -71.3 75.7 -71.6 75.4 -71.95 75.45 -72.4 L75.55 -72.75 75.75 -73.15 Q76.0 -73.5 76.4 -73.5 76.8 -73.5 77.05 -73.15 L77.3 -72.4 77.15 -71.95 M75.55 -67.7 L75.9 -67.65 Q76.65 -67.65 77.2 -68.65 77.7 -69.65 77.8 -71.05 77.85 -72.45 77.4 -73.4 76.95 -74.4 76.2 -74.4 75.5 -74.4 74.95 -73.4 74.4 -72.45 74.35 -71.05 74.25 -69.65 74.7 -68.65 74.0 -69.55 73.55 -70.8 L73.6 -71.35 Q74.8 -77.5 77.6 -74.15 L77.85 -70.55 77.4 -66.5 75.55 -67.7 M87.95 -62.8 Q88.85 -62.85 89.55 -63.85 90.2 -65.0 90.25 -66.6 90.35 -68.2 89.8 -69.3 89.15 -70.4 88.2 -70.35 87.3 -70.4 86.6 -69.3 85.9 -68.2 85.8 -66.6 85.75 -65.0 86.35 -63.85 86.7 -63.2 87.25 -62.95 L84.65 -63.8 Q84.9 -68.2 86.5 -70.95 92.15 -70.8 92.75 -63.3 90.7 -62.3 87.95 -62.8 M89.5 -67.5 L89.25 -67.15 Q88.9 -66.85 88.4 -66.85 87.9 -66.85 87.6 -67.15 87.2 -67.55 87.2 -68.05 L87.4 -68.55 87.65 -68.9 Q88.0 -69.25 88.5 -69.2 89.0 -69.25 89.3 -68.9 L89.7 -68.05 89.5 -67.5 M97.15 9.2 L97.2 9.2 97.3 9.3 97.15 9.2 M52.65 0.85 L52.8 0.0 52.65 0.85" fill="#ffffff" fill-rule="evenodd" stroke="none"/>
    <path d="M144.55 6.45 L146.15 12.15 Q139.35 11.9 136.5 14.7 135.25 15.9 134.75 17.7 L134.25 16.45 131.15 8.4 136.45 8.85 Q139.55 8.7 142.25 7.6 L143.85 6.85 143.9 6.8 144.55 6.45 M53.6 -4.2 L54.45 -9.0 55.95 -8.25 56.05 -8.2 Q56.75 -7.85 57.55 -7.6 60.1 -6.75 62.9 -6.85 L67.15 -7.45 64.95 0.35 64.85 0.7 64.5 -0.15 Q62.15 -5.25 53.6 -4.2 M76.9 25.55 L76.85 24.5 83.85 26.0 89.25 27.2 89.25 29.1 89.15 38.5 89.15 39.8 76.75 37.2 76.8 35.0 76.9 25.55" fill="#cccccc" fill-rule="evenodd" stroke="none"/>
    <path d="M123.95 -36.2 Q126.6 -35.95 129.6 -34.0 135.3 -30.5 139.0 -23.35 L140.2 -20.8 Q141.3 -18.1 141.85 -15.45 L142.2 -13.0 143.65 -7.25 Q145.45 -1.2 147.6 2.5 L148.2 3.45 Q146.5 5.25 144.55 6.45 L143.9 6.8 143.6 6.3 Q142.55 4.65 141.65 2.5 140.6 0.25 139.7 -2.55 L140.45 -3.6 140.7 -4.0 141.05 -4.6 141.3 -5.2 141.45 -5.55 141.5 -5.75 Q142.05 -7.35 142.2 -9.4 L142.25 -11.05 Q141.75 -9.35 140.55 -8.05 L139.15 -6.95 138.95 -6.8 138.5 -6.55 137.9 -9.05 137.65 -10.15 137.25 -12.6 Q136.5 -16.45 134.45 -20.5 L134.25 -20.8 131.3 -25.5 Q128.55 -29.05 125.05 -31.2 121.55 -33.45 118.55 -33.4 L118.1 -32.6 Q117.2 -30.6 117.1 -27.65 116.95 -24.8 117.5 -21.75 L115.65 -25.7 115.2 -26.75 115.05 -27.15 Q115.2 -28.95 115.6 -30.35 116.15 -32.05 117.1 -33.25 118.1 -34.6 119.65 -35.4 L119.9 -35.55 121.25 -36.0 123.95 -36.2 M105.15 65.45 L100.45 65.45 100.65 55.4 100.95 55.3 104.95 54.45 105.15 65.45 M92.2 61.0 L92.2 65.45 85.75 65.45 85.05 52.75 85.35 52.85 85.95 53.0 88.55 53.6 90.45 53.85 91.05 53.85 Q91.95 57.0 92.2 61.0 M73.6 65.45 L68.4 65.45 71.35 42.0 71.7 41.9 72.15 41.9 Q73.5 44.55 75.3 46.65 L73.6 65.45 M54.45 -9.0 Q53.05 -9.8 51.8 -10.95 L52.2 -11.85 Q53.8 -15.3 54.9 -20.85 L55.7 -26.1 55.8 -28.3 Q56.05 -30.7 56.75 -33.2 L57.65 -35.6 Q60.3 -42.25 65.15 -45.75 67.2 -47.3 69.15 -47.85 66.55 -43.4 65.0 -39.45 L64.9 -39.2 64.55 -38.15 Q63.2 -36.1 62.15 -33.6 L62.05 -33.3 Q60.7 -29.95 60.25 -26.75 L60.2 -26.05 60.1 -23.85 59.6 -20.55 59.2 -20.75 59.0 -20.85 Q57.75 -21.55 56.95 -22.5 56.2 -23.3 55.8 -24.35 L56.05 -22.85 Q56.25 -21.65 56.6 -20.6 L56.95 -19.65 57.05 -19.45 57.5 -18.65 57.85 -18.15 58.1 -17.75 58.9 -16.9 57.6 -12.2 56.2 -8.7 55.95 -8.25 54.45 -9.0 M67.0 -14.45 Q67.95 -11.15 68.2 -7.7 L67.15 -7.45 62.9 -6.85 65.85 -12.45 66.0 -12.8 67.0 -14.45 M55.7 -26.1 L55.8 -24.35 55.7 -26.1 M142.2 -13.0 L142.25 -11.05 142.2 -13.0 M123.5 -5.55 L125.05 -4.15 126.75 -2.7 126.85 -2.65 127.55 -2.2 128.05 -1.85 Q128.95 -1.3 129.9 -0.9 L129.95 -0.75 130.85 0.4 132.35 2.5 132.6 2.9 Q134.9 6.1 136.45 8.85 L131.15 8.4 128.35 7.7 125.7 0.4 123.5 -5.55" fill="#a47c73" fill-rule="evenodd" stroke="none"/>
    <path d="M115.0 -26.75 L115.05 -27.15 115.2 -26.75 115.0 -26.75" fill="#f2f2f2" fill-rule="evenodd" stroke="none"/>
    <path d="M92.0 53.9 L92.2 61.0 Q91.95 57.0 91.05 53.85 L92.0 53.9 M73.65 23.55 L74.6 24.25 73.65 23.55 M121.95 -7.35 Q120.1 -9.75 118.55 -12.75 L118.35 -13.1 Q116.45 -16.75 115.65 -20.25 114.85 -23.55 115.0 -26.75 L115.2 -26.75 115.65 -25.7 117.5 -21.75 Q118.35 -17.65 120.6 -13.25 121.5 -11.45 122.55 -9.85 124.0 -7.6 125.65 -5.75 L125.65 -5.7 127.45 -3.85 129.9 -0.9 Q128.95 -1.3 128.05 -1.85 L127.55 -2.2 126.85 -2.65 126.75 -2.7 125.05 -4.15 123.5 -5.55 121.95 -7.35 M55.8 -24.35 Q56.2 -23.3 56.95 -22.5 57.75 -21.55 59.0 -20.85 L59.2 -20.75 59.6 -20.55 58.9 -16.9 58.1 -17.75 57.85 -18.15 57.5 -18.65 57.05 -19.45 56.95 -19.65 56.6 -20.6 Q56.25 -21.65 56.05 -22.85 L55.8 -24.35 M138.5 -6.55 L138.95 -6.8 139.15 -6.95 140.55 -8.05 Q141.75 -9.35 142.25 -11.05 L142.2 -9.4 Q142.05 -7.35 141.5 -5.75 L141.45 -5.55 141.3 -5.2 141.05 -4.6 140.7 -4.0 140.45 -3.6 139.7 -2.55 138.5 -6.55 M100.9 38.95 L104.6 38.65 104.95 54.45 100.95 55.3 100.65 55.35 100.9 38.95 M111.1 37.5 Q114.15 36.7 116.9 35.5 L117.1 36.2 118.7 41.4 119.3 43.65 119.95 46.8 118.95 46.75 113.55 52.15 111.1 37.5 M71.7 41.9 L71.35 41.9 71.55 40.5 72.15 41.9 71.7 41.9" fill="#976c62" fill-rule="evenodd" stroke="none"/>
    <path d="M111.55 65.45 L105.15 65.45 104.95 54.45 105.05 54.4 Q108.5 53.85 111.35 54.35 L109.75 55.9 112.1 63.8 111.55 65.45 M100.45 65.45 L97.5 65.45 97.25 56.55 Q98.95 55.85 100.65 55.4 L100.45 65.45 M85.75 65.45 L73.6 65.45 75.3 46.65 75.45 46.85 Q79.2 51.05 85.05 52.75 L85.75 65.45 M68.4 65.45 L65.4 65.45 65.7 63.85 66.4 59.0 66.8 55.45 67.35 49.45 67.9 42.35 69.8 42.1 71.35 42.0 68.4 65.45 M69.15 -47.85 L69.45 -48.3 Q71.2 -49.1 72.85 -49.5 L77.1 -50.15 Q77.6 -48.0 79.5 -46.9 79.5 -43.75 80.45 -40.6 81.1 -38.4 82.25 -36.2 82.85 -35.05 83.6 -33.85 L89.6 -33.4 92.15 -33.5 Q99.65 -33.95 104.5 -37.5 L104.35 -37.35 104.5 -37.3 110.9 -36.25 115.95 -33.95 116.35 -33.65 117.1 -33.25 Q116.15 -32.05 115.6 -30.35 115.2 -28.95 115.05 -27.15 L115.0 -26.75 Q114.85 -23.55 115.65 -20.25 116.45 -16.75 118.35 -13.1 L118.55 -12.75 Q120.1 -9.75 121.95 -7.35 120.95 -3.35 119.5 0.4 117.4 5.85 114.35 10.8 L113.3 12.4 112.35 13.7 112.25 13.9 113.75 24.2 Q112.2 27.75 110.05 29.2 L109.0 29.35 108.75 29.45 105.5 29.75 Q100.1 30.05 92.6 29.4 L91.8 29.35 90.15 29.2 89.25 29.1 89.25 27.2 83.85 26.0 76.85 24.5 76.9 25.55 76.6 25.4 76.5 25.35 74.6 24.25 73.65 23.55 73.6 23.5 73.0 23.05 72.5 22.55 72.1 22.1 71.8 21.75 70.4 19.85 70.25 19.35 70.05 18.75 Q68.15 16.8 67.35 13.8 L67.15 12.9 Q66.65 10.2 66.85 6.75 L66.9 6.25 67.0 4.55 67.2 3.05 67.2 2.5 67.7 0.6 Q68.45 -3.65 68.2 -7.7 67.95 -11.15 67.0 -14.45 L66.7 -15.45 67.0 -14.45 66.0 -12.8 65.85 -12.45 62.9 -6.85 Q60.1 -6.75 57.55 -7.6 56.75 -7.85 56.05 -8.2 L56.2 -8.7 57.6 -12.2 58.9 -16.9 Q59.9 -15.9 61.25 -15.35 62.75 -14.75 64.35 -14.9 L65.45 -15.05 66.7 -15.45 66.45 -16.3 66.3 -16.8 66.15 -17.05 Q65.25 -18.75 64.65 -20.45 63.9 -22.55 63.5 -24.6 62.75 -28.45 63.2 -32.3 L63.3 -33.0 Q63.65 -35.6 64.55 -38.15 63.65 -35.6 63.3 -33.0 L63.2 -32.3 Q62.75 -28.45 63.5 -24.6 63.9 -22.55 64.65 -20.45 L64.35 -20.4 60.8 -20.1 60.45 -20.2 60.2 -20.3 Q59.85 -20.45 59.6 -20.55 L60.1 -23.85 60.2 -26.05 60.25 -26.75 Q60.7 -29.95 62.05 -33.3 L62.15 -33.6 Q63.2 -36.1 64.55 -38.15 L64.9 -39.2 65.0 -39.45 Q66.55 -43.4 69.15 -47.85 M117.5 -21.75 Q116.95 -24.8 117.1 -27.65 117.2 -30.6 118.1 -32.6 L118.55 -33.4 Q121.55 -33.45 125.05 -31.2 128.55 -29.05 131.3 -25.5 L134.25 -20.8 134.45 -20.5 Q136.5 -16.45 137.25 -12.6 L137.65 -10.15 137.9 -9.05 138.5 -6.55 137.9 -6.25 137.6 -6.1 137.3 -6.0 Q135.3 -5.7 133.4 -6.0 L130.8 -6.7 Q129.9 -7.05 129.05 -7.55 L128.45 -7.9 Q125.65 -9.7 123.1 -12.95 L121.2 -15.5 Q119.35 -18.25 117.5 -21.75 M129.95 -0.75 L130.0 -0.85 130.85 -0.55 132.75 0.0 133.95 0.05 Q135.7 0.1 137.3 -0.7 138.7 -1.4 139.7 -2.55 140.6 0.25 141.65 2.5 142.55 4.65 143.6 6.3 L143.85 6.85 142.25 7.6 Q139.55 8.7 136.45 8.85 134.9 6.1 132.6 2.9 L132.35 2.5 130.85 0.4 129.95 -0.75 M97.15 9.2 L97.3 9.3 97.2 9.2 97.15 9.2" fill="#d2c0b7" fill-rule="evenodd" stroke="none"/>
    <path d="M111.0 -43.15 L111.05 -43.2 Q115.5 -42.3 119.85 -39.4 121.9 -38.0 123.95 -36.2 L121.25 -36.0 119.9 -35.55 119.65 -35.4 Q118.1 -34.6 117.1 -33.25 L116.35 -33.65 115.95 -33.95 110.9 -36.25 104.5 -37.3 104.5 -37.5 Q108.0 -40.05 111.0 -43.15 M97.25 56.55 L97.15 53.6 94.7 53.9 92.5 53.9 92.0 53.9 91.05 53.85 90.45 53.85 88.55 53.6 85.95 53.0 85.35 52.85 85.05 52.75 Q79.2 51.05 75.45 46.85 L75.3 46.65 Q73.5 44.55 72.15 41.9 L71.55 40.5 71.35 41.9 71.35 42.0 69.8 42.1 67.9 42.35 68.3 38.1 Q68.65 34.95 69.3 32.35 L68.9 29.5 Q69.95 30.7 71.35 31.75 L71.9 32.2 72.3 32.45 Q74.2 33.8 76.8 35.0 L76.75 37.2 89.15 39.8 89.15 38.5 92.35 38.8 99.4 39.0 100.9 38.95 100.65 55.35 100.65 55.4 Q98.95 55.85 97.25 56.55 M64.65 -20.45 Q65.25 -18.75 66.15 -17.05 L66.3 -16.8 66.45 -16.3 66.7 -15.45 65.45 -15.05 64.35 -14.9 Q62.75 -14.75 61.25 -15.35 59.9 -15.9 58.9 -16.9 L59.6 -20.55 Q59.85 -20.45 60.2 -20.3 L60.45 -20.2 60.8 -20.1 64.35 -20.4 64.65 -20.45 M110.05 29.2 Q112.2 27.75 113.75 24.2 L112.25 13.9 112.35 13.7 113.3 12.4 114.35 10.8 Q117.4 5.85 119.5 0.4 120.95 -3.35 121.95 -7.35 L123.5 -5.55 125.7 0.4 125.6 0.6 125.05 2.0 Q123.25 6.55 121.15 10.3 L120.55 23.65 Q119.05 25.4 116.95 26.75 114.45 28.45 110.05 29.2 M117.5 -21.75 Q119.35 -18.25 121.2 -15.5 L123.1 -12.95 Q125.65 -9.7 128.45 -7.9 L129.05 -7.55 Q129.9 -7.05 130.8 -6.7 L133.4 -6.0 Q135.3 -5.7 137.3 -6.0 L137.6 -6.1 137.9 -6.25 138.5 -6.55 139.7 -2.55 Q138.7 -1.4 137.3 -0.7 135.7 0.1 133.95 0.05 L132.75 0.0 130.85 -0.55 130.0 -0.85 129.9 -0.9 127.45 -3.85 125.65 -5.7 125.65 -5.75 Q124.0 -7.6 122.55 -9.85 121.5 -11.45 120.6 -13.25 118.35 -17.65 117.5 -21.75 M97.15 53.6 Q97.1 47.85 98.0 43.6 98.5 41.0 99.4 39.0 98.5 41.0 98.0 43.6 97.1 47.85 97.15 53.6 M104.6 38.65 L111.1 37.5 113.55 52.15 111.35 54.35 Q108.5 53.85 105.05 54.4 L104.95 54.45 104.6 38.65 M116.9 35.5 L117.25 35.3 117.1 36.2 116.9 35.5 M69.8 35.0 L69.3 32.35 69.8 35.0" fill="#bda097" fill-rule="evenodd" stroke="none"/>
    <path d="M58.4 -44.8 L58.3 -44.6 58.3 -44.75 58.4 -44.8 M137.3 -33.25 L137.15 -33.5 137.25 -33.45 137.3 -33.25" fill="#bec5d8" fill-rule="evenodd" stroke="none"/>
    <path d="M56.2 -8.7 L56.05 -8.2 55.95 -8.25 56.2 -8.7 M143.6 6.3 L143.9 6.8 143.85 6.85 143.6 6.3" fill="#a5bafe" fill-rule="evenodd" stroke="none"/>
    <path d="M129.9 -0.9 L130.0 -0.85 129.95 -0.75 129.9 -0.9" fill="#deddb1" fill-rule="evenodd" stroke="none"/>
    <path d="M70.05 18.75 L70.25 19.35 70.4 19.85 71.8 21.75 72.1 22.1 72.5 22.55 73.0 23.05 73.6 23.5 73.65 23.55 74.6 24.25 76.5 25.35 76.6 25.4 76.9 25.55 76.8 35.0 Q74.2 33.8 72.3 32.45 L71.9 32.2 71.35 31.75 Q69.95 30.7 68.9 29.5 L68.4 28.9 Q67.5 25.0 68.3 22.15 68.6 20.9 69.25 19.9 L69.5 19.4 70.05 18.75" fill="#956c5e" fill-rule="evenodd" stroke="none"/>
    <path d="M75.55 -72.75 L75.45 -72.4 Q75.4 -71.95 75.7 -71.6 75.9 -71.3 76.3 -71.25 76.7 -71.3 77.0 -71.6 L77.1 -71.75 77.15 -71.95 77.2 -71.05 76.8 -69.65 Q76.45 -69.0 75.95 -68.95 75.5 -69.0 75.15 -69.65 74.85 -70.25 74.9 -71.1 74.95 -71.95 75.3 -72.5 L75.55 -72.75 M89.5 -67.5 L89.55 -66.6 Q89.5 -65.65 89.05 -64.95 88.55 -64.25 87.95 -64.25 87.35 -64.25 86.9 -64.95 86.5 -65.65 86.55 -66.65 86.6 -67.6 87.05 -68.25 L87.4 -68.55 87.2 -68.05 Q87.2 -67.55 87.6 -67.15 87.9 -66.85 88.4 -66.85 88.9 -66.85 89.25 -67.15 L89.5 -67.5" fill="#000000" fill-rule="evenodd" stroke="none"/>
    <path d="M73.6 23.5 L73.65 23.55 73.6 23.5 M100.95 55.3 L100.65 55.4 100.65 55.35 100.95 55.3 M71.7 41.9 L71.35 42.0 71.35 41.9 71.7 41.9" fill="#89a58a" fill-rule="evenodd" stroke="none"/>
    <path d="M107.4 -46.8 L107.8 -44.8 109.25 -44.05 110.95 -43.2 111.0 -43.15 Q108.0 -40.05 104.5 -37.5 99.65 -33.95 92.15 -33.5 L89.6 -33.4 83.6 -33.85 Q82.85 -35.05 82.25 -36.2 81.1 -38.4 80.45 -40.6 79.5 -43.75 79.5 -46.9 77.6 -48.0 77.1 -50.15 L76.9 -51.35 Q76.45 -57.15 75.4 -59.75 74.3 -62.4 73.6 -65.9 72.85 -69.45 73.2 -73.25 73.5 -77.0 73.15 -79.1 72.85 -80.6 73.15 -82.35 L73.6 -83.15 73.8 -83.35 74.45 -84.0 77.85 -83.9 Q79.25 -83.1 80.95 -81.05 108.15 -89.3 99.45 -70.65 L98.6 -70.35 101.15 -61.2 101.15 -60.4 97.2 -53.8 Q93.2 -47.2 85.45 -45.85 L82.5 -45.95 Q80.7 -46.2 79.5 -46.9 80.7 -46.2 82.5 -45.95 L83.5 -44.05 101.05 -44.05 Q105.3 -46.5 107.4 -46.8 M73.4 -79.35 Q76.45 -78.85 78.9 -74.45 78.15 -80.25 73.4 -79.35 M75.55 -67.7 L77.4 -66.5 77.85 -70.55 77.6 -74.15 Q74.8 -77.5 73.6 -71.35 L73.5 -70.95 73.55 -70.8 Q74.0 -69.55 74.7 -68.65 75.05 -67.95 75.55 -67.7 M77.15 -61.8 Q77.95 -63.0 78.2 -64.8 78.5 -67.15 77.85 -70.55 78.5 -67.15 78.2 -64.8 77.95 -63.0 77.15 -61.8 L77.15 -61.0 Q77.35 -59.4 79.45 -60.05 L77.9 -61.0 77.15 -61.8 M87.95 -62.8 Q90.7 -62.3 92.75 -63.3 92.15 -70.8 86.5 -70.95 84.9 -68.2 84.65 -63.8 L87.25 -62.95 87.95 -62.8 M86.85 -52.75 L83.25 -53.65 Q80.3 -54.65 78.35 -56.1 80.3 -54.65 83.25 -53.65 L86.85 -52.75 M95.35 -73.4 Q89.45 -77.45 84.95 -72.15 90.9 -74.9 95.35 -73.4 M105.1 -68.45 L105.45 -69.15 Q106.55 -70.9 108.5 -71.25 110.5 -71.7 111.15 -69.7 111.8 -67.75 111.5 -65.85 L111.25 -64.6 Q110.85 -66.8 108.5 -67.75 L107.5 -66.65 107.05 -65.9 Q104.95 -65.65 104.7 -66.9 L105.1 -68.45" fill="#ffdfc8" fill-rule="evenodd" stroke="none"/>
    <path d="M111.35 -64.2 L111.15 -63.95 110.85 -63.05 110.5 -61.95 110.4 -61.65 110.3 -61.45 109.85 -60.5 107.75 -59.05 107.35 -56.8 107.25 -56.05 Q106.75 -51.3 107.4 -46.8 105.3 -46.5 101.05 -44.05 L83.5 -44.05 82.5 -45.95 85.45 -45.85 Q93.2 -47.2 97.2 -53.8 L101.15 -60.4 Q101.1 -54.45 96.85 -48.9 L96.75 -48.8 Q100.95 -49.3 104.25 -54.5 L104.2 -55.35 Q105.0 -56.65 106.95 -58.5 L107.75 -59.05 106.95 -58.5 Q105.0 -56.65 104.2 -55.35 L104.15 -55.95 Q103.3 -61.0 104.7 -66.9 104.95 -65.65 107.05 -65.9 L107.5 -66.65 108.5 -67.75 Q110.85 -66.8 111.25 -64.6 L111.5 -65.85 Q111.8 -67.75 111.15 -69.7 110.5 -71.7 108.5 -71.25 106.55 -70.9 105.45 -69.15 L105.1 -68.45 105.25 -69.0 Q108.35 -73.05 111.1 -70.45 112.2 -68.1 111.35 -64.2 M77.15 -61.8 L77.9 -61.0 79.45 -60.05 Q77.35 -59.4 77.15 -61.0 L77.15 -61.8 M101.15 -61.2 L98.6 -70.35 99.45 -70.65 98.9 -69.5 Q100.95 -65.25 101.15 -61.2 M111.15 -63.95 L111.25 -64.6 111.15 -63.95 M106.35 -61.3 L106.3 -62.0 106.45 -63.8 106.55 -64.35 107.05 -65.9 106.55 -64.35 106.45 -63.8 Q107.5 -63.35 108.2 -62.2 107.5 -63.35 106.45 -63.8 L106.3 -62.0 106.35 -61.3 M85.45 -45.85 Q91.3 -46.2 96.85 -48.9 91.3 -46.2 85.45 -45.85" fill="#ffd0ae" fill-rule="evenodd" stroke="none"/>
    <path d="M104.5 -37.3 L104.35 -37.35 104.5 -37.5 104.5 -37.3" fill="#b48f87" fill-rule="evenodd" stroke="none"/>
    <path d="M89.25 29.1 L90.15 29.2 91.8 29.35 92.6 29.4 Q100.1 30.05 105.5 29.75 L108.75 29.45 109.0 29.35 110.05 29.2 Q114.45 28.45 116.95 26.75 118.95 29.05 118.95 31.75 L118.9 32.55 118.4 34.75 117.25 35.3 116.9 35.5 Q114.15 36.7 111.1 37.5 L104.6 38.65 100.9 38.95 99.4 39.0 92.35 38.8 89.15 38.5 89.25 29.1" fill="#684942" fill-rule="evenodd" stroke="none"/>
    <path d="M75.55 -72.75 L75.3 -72.5 Q74.95 -71.95 74.9 -71.1 74.85 -70.25 75.15 -69.65 75.5 -69.0 75.95 -68.95 76.45 -69.0 76.8 -69.65 L77.2 -71.05 77.15 -71.95 77.3 -72.4 77.05 -73.15 Q76.8 -73.5 76.4 -73.5 76.0 -73.5 75.75 -73.15 L75.55 -72.75 M74.7 -68.65 Q74.25 -69.65 74.35 -71.05 74.4 -72.45 74.95 -73.4 75.5 -74.4 76.2 -74.4 76.95 -74.4 77.4 -73.4 77.85 -72.45 77.8 -71.05 77.7 -69.65 77.2 -68.65 76.65 -67.65 75.9 -67.65 L75.55 -67.7 Q75.05 -67.95 74.7 -68.65 M87.25 -62.95 Q86.7 -63.2 86.35 -63.85 85.75 -65.0 85.8 -66.6 85.9 -68.2 86.6 -69.3 87.3 -70.4 88.2 -70.35 89.15 -70.4 89.8 -69.3 90.35 -68.2 90.25 -66.6 90.2 -65.0 89.55 -63.85 88.85 -62.85 87.95 -62.8 L87.25 -62.95 M87.4 -68.55 L87.05 -68.25 Q86.6 -67.6 86.55 -66.65 86.5 -65.65 86.9 -64.95 87.35 -64.25 87.95 -64.25 88.55 -64.25 89.05 -64.95 89.5 -65.65 89.55 -66.6 L89.5 -67.5 89.7 -68.05 89.3 -68.9 Q89.0 -69.25 88.5 -69.2 88.0 -69.25 87.65 -68.9 L87.4 -68.55" fill="#0099ff" fill-rule="evenodd" stroke="none"/>
    <path d="M118.35 -77.45 L118.25 -76.8 118.0 -75.5 118.0 -75.45 Q116.1 -67.35 112.65 -63.35 L112.1 -62.8 110.6 -61.65 111.35 -64.2 Q112.2 -68.1 111.1 -70.45 108.35 -73.05 105.25 -69.0 L105.1 -68.45 104.7 -66.9 Q103.3 -61.0 104.15 -55.95 L104.2 -55.35 104.25 -54.5 Q100.95 -49.3 96.75 -48.8 L96.85 -48.9 Q101.1 -54.45 101.15 -60.4 L101.15 -61.2 Q100.95 -65.25 98.9 -69.5 L99.45 -70.65 Q108.15 -89.3 80.95 -81.05 79.25 -83.1 77.85 -83.9 L74.45 -84.0 73.8 -83.35 Q74.25 -86.1 75.25 -88.45 75.9 -90.2 76.9 -91.7 77.6 -92.9 78.35 -93.35 L78.6 -93.5 Q80.55 -94.25 82.75 -90.2 84.75 -99.2 94.65 -95.7 99.95 -101.7 103.45 -93.75 108.8 -95.9 111.15 -95.25 112.85 -94.8 112.95 -92.9 L112.95 -92.75 Q112.95 -91.5 112.25 -89.5 L113.7 -89.7 114.7 -89.6 Q117.35 -89.05 117.6 -85.3 L118.1 -78.95 118.2 -77.45 118.35 -77.45 M73.4 -79.35 Q78.15 -80.25 78.9 -74.45 76.45 -78.85 73.4 -79.35 M95.35 -73.4 Q90.9 -74.9 84.95 -72.15 89.45 -77.45 95.35 -73.4" fill="#9b5e5e" fill-rule="evenodd" stroke="none"/>
    <path d="M73.15 -82.35 L73.15 -87.55 Q73.45 -92.6 73.8 -94.75 74.1 -96.95 74.7 -97.9 L76.7 -101.35 Q79.45 -105.7 82.6 -99.8 84.6 -108.85 94.5 -105.35 99.8 -111.3 103.3 -103.35 115.35 -108.1 112.1 -99.15 117.05 -100.2 117.45 -94.9 L117.95 -88.55 118.1 -86.45 118.25 -85.15 Q118.75 -80.65 118.5 -78.45 L118.35 -77.45 118.2 -77.45 118.1 -78.95 117.6 -85.3 Q117.35 -89.05 114.7 -89.6 L113.7 -89.7 112.25 -89.5 Q112.95 -91.5 112.95 -92.75 L112.95 -92.9 Q112.85 -94.8 111.15 -95.25 108.8 -95.9 103.45 -93.75 99.95 -101.7 94.65 -95.7 84.75 -99.2 82.75 -90.2 80.55 -94.25 78.6 -93.5 L78.35 -93.35 Q77.6 -92.9 76.9 -91.7 75.9 -90.2 75.25 -88.45 74.25 -86.1 73.8 -83.35 L73.6 -83.15 73.15 -82.35" fill="#b98e8e" fill-rule="evenodd" stroke="none"/>
    <path d="M132.8 55.65 L133.0 59.15 129.7 65.45 M66.4 59.0 L52.85 61.25 52.65 61.25 52.55 59.75 50.95 58.25 50.15 43.0 Q50.9 41.1 51.8 39.8 M119.95 46.8 L118.95 46.75 113.55 52.15 111.35 54.35 109.75 55.9 112.1 63.8 111.55 65.45 M118.5 61.6 L118.65 61.95 M119.95 46.8 Q122.45 47.0 124.7 48.0 M112.1 63.8 L118.5 61.6 M62.3 36.25 Q65.25 36.25 68.05 37.45 L68.3 38.1 M62.3 51.2 L66.8 55.45 M62.05 51.45 L62.3 51.2" fill="none" stroke="#d87c4b" stroke-linecap="round" stroke-linejoin="round" stroke-width="0.05"/>
    <path d="M144.55 6.45 L146.15 12.15 147.45 16.95 M147.3 17.1 L147.9 17.65 148.6 20.0 149.5 26.35 147.9 30.25 132.8 55.65 M51.8 39.8 L48.6 10.4 48.75 6.15 Q50.6 2.9 52.2 0.75 L52.8 0.0 53.6 -4.2 54.45 -9.0 M76.9 25.55 L76.85 24.5 M83.85 26.0 L89.25 27.2 89.25 29.1 M67.15 -7.45 L64.95 0.35 65.1 0.55 Q66.4 2.25 67.0 4.55 M125.65 -5.7 L125.65 -5.75 M134.75 17.7 L136.15 21.85 M134.25 16.45 Q132.8 17.9 131.75 20.05 129.8 23.8 128.95 29.75 128.35 34.05 127.2 38.75 L124.7 48.0 121.85 56.5 Q122.95 62.35 129.2 61.75 L132.8 55.65 M134.75 17.7 L134.25 16.45 131.15 8.4 M76.8 35.0 L76.75 37.2 89.15 39.8 89.15 38.5 89.25 29.1 M64.85 0.7 L63.8 5.1 M64.95 0.35 L64.85 0.7 M67.15 12.9 L66.05 17.7 Q64.8 21.9 63.9 26.65 62.95 31.15 62.3 36.25 M52.8 0.0 L52.65 0.85 M51.8 39.8 L52.55 46.75 Q57.95 49.9 61.45 45.05 61.75 40.45 62.3 36.25 M76.9 25.55 L76.8 35.0" fill="none" stroke="#999999" stroke-linecap="round" stroke-linejoin="round" stroke-width="0.05"/>
    <path d="M111.0 -43.15 L111.05 -43.2 Q115.5 -42.3 119.85 -39.4 121.9 -38.0 123.95 -36.2 126.6 -35.95 129.6 -34.0 135.3 -30.5 139.0 -23.35 L140.2 -20.8 Q141.3 -18.1 141.85 -15.45 L142.2 -13.0 143.65 -7.25 Q145.45 -1.2 147.6 2.5 L148.2 3.45 Q146.5 5.25 144.55 6.45 M97.5 65.45 L97.25 56.55 97.15 53.6 94.7 53.9 92.5 53.9 92.0 53.9 92.2 61.0 92.2 65.45 M65.4 65.45 L65.7 63.85 66.4 59.0 M54.45 -9.0 Q53.05 -9.8 51.8 -10.95 L52.2 -11.85 Q53.8 -15.3 54.9 -20.85 L55.7 -26.1 55.8 -28.3 Q56.05 -30.7 56.75 -33.2 L57.65 -35.6 Q60.3 -42.25 65.15 -45.75 67.2 -47.3 69.15 -47.85 M69.45 -48.3 Q71.2 -49.1 72.85 -49.5 L77.1 -50.15 M79.5 -46.9 Q79.5 -43.75 80.45 -40.6 81.1 -38.4 82.25 -36.2 82.85 -35.05 83.6 -33.85 L89.6 -33.4 92.15 -33.5 Q99.65 -33.95 104.5 -37.5 108.0 -40.05 111.0 -43.15 M65.0 -39.45 L64.9 -39.2 64.55 -38.15 Q63.65 -35.6 63.3 -33.0 L63.2 -32.3 Q62.75 -28.45 63.5 -24.6 63.9 -22.55 64.65 -20.45 65.25 -18.75 66.15 -17.05 L66.3 -16.8 66.45 -16.3 66.7 -15.45 67.0 -14.45 Q67.95 -11.15 68.2 -7.7 68.45 -3.65 67.7 0.6 L67.2 2.5 67.2 3.05 67.0 4.55 66.9 6.25 66.85 6.75 Q66.65 10.2 67.15 12.9 L67.35 13.8 Q68.15 16.8 70.05 18.75 M121.95 -7.35 Q120.1 -9.75 118.55 -12.75 M57.5 -18.65 L57.05 -19.45 56.95 -19.65 56.6 -20.6 Q56.25 -21.65 56.05 -22.85 L55.8 -24.35 55.7 -26.1 M56.05 -8.2 Q56.75 -7.85 57.55 -7.6 60.1 -6.75 62.9 -6.85 L67.15 -7.45 68.2 -7.7 M55.95 -8.25 L56.05 -8.2 M55.95 -8.25 L54.45 -9.0 M121.25 -36.0 L123.95 -36.2 M142.25 -11.05 L142.2 -13.0 M141.05 -4.6 L141.3 -5.2 141.45 -5.55 141.5 -5.75 Q142.05 -7.35 142.2 -9.4 L142.25 -11.05 M123.5 -5.55 L125.05 -4.15 126.75 -2.7 126.85 -2.65 127.55 -2.2 M143.9 6.8 L144.55 6.45 M121.95 -7.35 L123.5 -5.55 125.7 0.4 128.35 7.7 131.15 8.4 136.45 8.85 M143.85 6.85 L142.25 7.6 Q139.55 8.7 136.45 8.85 M143.9 6.8 L143.85 6.85 M116.95 26.75 Q119.05 25.4 120.55 23.65 L121.15 10.3 Q123.25 6.55 125.05 2.0 L125.6 0.6 125.7 0.4 M99.4 39.0 Q98.5 41.0 98.0 43.6 97.1 47.85 97.15 53.6 M116.9 35.5 L117.1 36.2 117.25 35.3 M117.1 36.2 L118.7 41.4 119.3 43.65 119.95 46.8 M91.05 53.85 L90.45 53.85 88.55 53.6 85.95 53.0 85.35 52.85 M92.0 53.9 L91.05 53.85 M68.3 38.1 Q68.65 34.95 69.3 32.35 L68.9 29.5 M69.3 32.35 L69.8 35.0 M67.9 42.35 L68.3 38.1 M67.9 42.35 L67.35 49.45 66.8 55.45 66.4 59.0" fill="none" stroke="#6a4e44" stroke-linecap="round" stroke-linejoin="round" stroke-width="0.05"/>
    <path d="M107.75 -59.05 L107.35 -56.8 107.25 -56.05 Q106.75 -51.3 107.4 -46.8 L107.8 -44.8 109.25 -44.05 110.95 -43.2 111.0 -43.15 M70.05 18.75 L70.25 19.35 70.4 19.85 71.8 21.75 72.1 22.1 72.5 22.55 73.0 23.05 73.6 23.5 73.65 23.55 74.6 24.25 76.5 25.35 76.6 25.4 76.9 25.55 M89.25 29.1 L90.15 29.2 91.8 29.35 92.6 29.4 Q100.1 30.05 105.5 29.75 L108.75 29.45 109.0 29.35 110.05 29.2 M89.15 38.5 L92.35 38.8 99.4 39.0 100.9 38.95 104.6 38.65 111.1 37.5 Q114.15 36.7 116.9 35.5 L117.25 35.3 118.4 34.75 118.9 32.55 118.95 31.75 Q118.95 29.05 116.95 26.75 114.45 28.45 110.05 29.2 M68.9 29.5 L68.4 28.9 Q67.5 25.0 68.3 22.15 68.6 20.9 69.25 19.9 L69.5 19.4 70.05 18.75 M76.8 35.0 Q74.2 33.8 72.3 32.45 L71.9 32.2 71.35 31.75 Q69.95 30.7 68.9 29.5" fill="none" stroke="#674743" stroke-linecap="round" stroke-linejoin="round" stroke-width="0.05"/>
    <path d="M111.35 -64.2 L111.15 -63.95 110.85 -63.05 110.5 -61.95 110.4 -61.65 110.3 -61.45 109.85 -60.5 107.75 -59.05 M77.1 -50.15 L76.9 -51.35 Q76.45 -57.15 75.4 -59.75 74.3 -62.4 73.6 -65.9 72.85 -69.45 73.2 -73.25 73.5 -77.0 73.15 -79.1 72.85 -80.6 73.15 -82.35 M75.55 -67.7 L77.4 -66.5 77.85 -70.55 77.6 -74.15 Q74.8 -77.5 73.6 -71.35 M73.55 -70.8 Q74.0 -69.55 74.7 -68.65 75.05 -67.95 75.55 -67.7 M73.55 -70.8 L73.5 -70.95 73.6 -71.35 M77.85 -70.55 Q78.5 -67.15 78.2 -64.8 77.95 -63.0 77.15 -61.8 M79.45 -60.05 Q77.35 -59.4 77.15 -61.0 L77.15 -61.8 M77.1 -50.15 Q77.6 -48.0 79.5 -46.9 80.7 -46.2 82.5 -45.95 L85.45 -45.85 M87.95 -62.8 Q90.7 -62.3 92.75 -63.3 92.15 -70.8 86.5 -70.95 84.9 -68.2 84.65 -63.8 L87.25 -62.95 87.95 -62.8 M78.35 -56.1 Q80.3 -54.65 83.25 -53.65 L86.85 -52.75 M111.25 -64.6 L111.5 -65.85 Q111.8 -67.75 111.15 -69.7 110.5 -71.7 108.5 -71.25 106.55 -70.9 105.45 -69.15 L105.1 -68.45 M107.05 -65.9 L107.5 -66.65 108.5 -67.75 M111.25 -64.6 L111.15 -63.95 M107.05 -65.9 L106.55 -64.35 106.45 -63.8 Q107.5 -63.35 108.2 -62.2 M106.45 -63.8 L106.3 -62.0 106.35 -61.3 M104.2 -55.35 Q105.0 -56.65 106.95 -58.5 L107.75 -59.05 M96.85 -48.9 Q91.3 -46.2 85.45 -45.85" fill="none" stroke="#d7995e" stroke-linecap="round" stroke-linejoin="round" stroke-width="0.05"/>
    <path d="M73.15 -82.35 L73.15 -87.55 Q73.45 -92.6 73.8 -94.75 74.1 -96.95 74.7 -97.9 L76.7 -101.35 Q79.45 -105.7 82.6 -99.8 84.6 -108.85 94.5 -105.35 99.8 -111.3 103.3 -103.35 115.35 -108.1 112.1 -99.15 117.05 -100.2 117.45 -94.9 L117.95 -88.55 118.1 -86.45 118.25 -85.15 Q118.75 -80.65 118.5 -78.45 L118.35 -77.45 118.25 -76.8 118.0 -75.5 118.0 -75.45 Q116.1 -67.35 112.65 -63.35 L112.1 -62.8 110.6 -61.65 111.35 -64.2 Q112.2 -68.1 111.1 -70.45 108.35 -73.05 105.25 -69.0 L105.1 -68.45 104.7 -66.9 Q103.3 -61.0 104.15 -55.95 L104.2 -55.35 104.25 -54.5 Q100.95 -49.3 96.75 -48.8 L96.85 -48.9 Q101.1 -54.45 101.15 -60.4 L101.15 -61.2 M73.15 -82.35 L73.6 -83.15 73.8 -83.35 M118.2 -77.45 L118.35 -77.45 M73.4 -79.35 Q78.15 -80.25 78.9 -74.45 76.45 -78.85 73.4 -79.35 M99.45 -70.65 Q108.15 -89.3 80.95 -81.05 79.25 -83.1 77.85 -83.9 L74.45 -84.0 73.8 -83.35 M99.45 -70.65 L98.9 -69.5 Q100.95 -65.25 101.15 -61.2 M95.35 -73.4 Q89.45 -77.45 84.95 -72.15 90.9 -74.9 95.35 -73.4" fill="none" stroke="#4b2e2e" stroke-linecap="round" stroke-linejoin="round" stroke-width="0.05"/>
  </g>
</svg>
