<?xml version="1.0" encoding="UTF-8" standalone="no"?>
<svg xmlns:xlink="http://www.w3.org/1999/xlink" height="175.85px" width="94.55px" xmlns="http://www.w3.org/2000/svg">
  <g transform="matrix(1, 0, 0, 1, -42.85, 105.2)">
    <path d="M120.25 49.05 L118.15 53.05 115.8 57.6 113.9 58.2 113.25 59.45 113.1 59.35 110.4 50.25 109.15 47.75 109.05 47.45 107.55 44.9 101.05 42.25 108.0 35.3 109.45 33.85 112.7 34.3 111.9 35.45 108.7 40.15 108.7 40.5 108.75 40.65 Q109.7 46.2 117.15 48.35 L120.25 49.05 M49.15 47.2 L49.0 47.2 48.9 45.8 47.45 44.4 46.9 34.4 Q55.5 36.85 59.7 33.6 L59.15 37.05 57.75 38.0 57.55 38.2 55.35 40.0 49.15 47.2 M70.65 -86.85 L71.5 -87.3 Q70.0 -85.0 74.1 -79.85 72.55 -85.6 76.7 -88.45 L77.0 -88.45 Q79.2 -87.0 81.2 -85.35 79.7 -83.55 82.2 -80.0 L84.0 -82.9 86.9 -79.9 86.65 -78.05 88.2 -78.25 91.8 -73.1 92.15 -71.95 89.15 -70.7 88.85 -64.55 Q88.75 -60.7 83.55 -59.4 82.6 -53.25 80.65 -48.9 L79.0 -45.9 Q73.8 -44.9 72.2 -49.5 L71.65 -52.9 72.2 -49.5 Q73.8 -44.9 79.0 -45.9 L84.25 -48.9 92.1 -48.95 90.85 -44.65 Q86.3 -41.65 82.75 -40.05 78.55 -38.1 77.15 -33.6 77.95 -36.45 74.25 -43.35 70.55 -50.3 70.2 -53.2 L70.9 -53.25 Q71.25 -53.1 71.65 -52.9 L71.6 -53.35 70.65 -59.45 70.6 -59.7 70.6 -59.8 70.1 -61.55 68.45 -64.25 Q66.65 -66.35 67.2 -73.55 L67.6 -75.55 67.6 -75.7 67.7 -76.3 67.8 -77.95 67.85 -79.4 67.85 -79.55 67.85 -79.65 67.8 -80.0 67.65 -80.95 67.6 -81.45 Q68.4 -84.65 70.65 -86.85 M71.4 -74.1 L71.25 -74.2 69.9 -75.25 69.3 -75.75 68.75 -76.2 68.15 -74.1 68.0 -73.45 68.1 -73.2 69.1 -71.35 Q69.4 -70.75 69.85 -70.55 70.6 -69.85 71.6 -69.4 71.95 -71.3 71.95 -73.1 L72.0 -73.6 71.75 -76.4 Q69.85 -78.65 68.75 -76.2 69.85 -78.65 71.75 -76.4 L72.0 -73.6 71.95 -73.65 71.4 -74.1 M69.2 -81.35 L68.25 -79.85 73.0 -78.5 71.9 -81.05 69.2 -81.35 M71.15 -61.8 Q72.15 -64.85 72.35 -67.85 72.45 -70.5 71.95 -73.1 72.45 -70.5 72.35 -67.85 72.15 -64.85 71.15 -61.8 71.2 -60.5 71.95 -60.05 L73.35 -59.85 71.15 -61.8 M79.35 -70.55 L78.75 -70.7 Q78.3 -69.0 78.15 -66.9 L80.55 -66.15 81.2 -66.0 Q83.7 -65.6 85.55 -66.5 L85.15 -69.05 Q83.95 -73.35 79.9 -73.45 79.15 -72.25 78.75 -70.7 79.15 -72.25 79.9 -73.45 83.95 -73.35 85.15 -69.05 L83.3 -69.5 82.65 -69.7 82.1 -69.8 80.7 -70.2 80.1 -70.35 79.35 -70.55 M78.3 -53.55 L76.4 -54.45 75.3 -55.05 73.3 -55.45 75.3 -55.05 76.4 -54.45 78.3 -53.55 M60.65 24.7 L61.45 24.9 61.05 26.85 60.85 25.65 60.65 24.7 M81.1 -78.65 L78.15 -77.15 89.0 -74.15 86.25 -76.85 81.1 -78.65" fill="#ffdfc8" fill-rule="evenodd" stroke="none"/>
    <path d="M57.8 45.75 L49.15 47.2 55.35 40.0 57.55 38.2 57.75 38.0 59.15 37.05 58.85 39.0 57.8 45.75 M71.6 -53.35 L71.65 -52.9 Q71.25 -53.1 70.9 -53.25 L71.6 -53.35 M79.0 -45.9 L80.65 -48.9 Q82.6 -53.25 83.55 -59.4 88.75 -60.7 88.85 -64.55 L89.15 -70.7 92.15 -71.95 Q93.4 -66.7 92.0 -60.65 L95.3 -65.6 95.9 -62.3 Q96.15 -58.45 94.45 -54.6 93.05 -51.85 92.1 -48.95 L84.25 -48.9 79.0 -45.9 M71.15 -61.8 L73.35 -59.85 71.95 -60.05 Q71.2 -60.5 71.15 -61.8 M95.9 -62.3 L95.7 -62.4 91.1 -54.3 Q87.85 -51.35 84.25 -48.9 87.85 -51.35 91.1 -54.3 L95.7 -62.4 95.9 -62.3 M101.05 42.25 L107.55 44.9 109.05 47.45 109.15 47.75 110.4 50.25 113.1 59.35 110.85 57.9 102.45 52.25 102.25 52.15 103.2 49.45 101.05 42.25 M109.05 47.45 L103.2 49.45 109.05 47.45 M58.85 39.0 L57.75 38.0 58.85 39.0" fill="#ffd0ae" fill-rule="evenodd" stroke="none"/>
    <path d="M118.35 -37.1 L118.5 -37.05 Q123.15 -34.65 126.2 -29.05 129.2 -23.55 130.25 -17.1 L130.5 -17.1 137.15 9.0 137.0 9.05 137.15 9.9 137.4 15.45 135.9 19.0 127.45 33.65 127.4 34.3 127.2 34.3 126.2 42.05 121.95 41.4 Q118.0 40.4 114.85 38.05 L111.9 35.45 112.7 34.3 113.6 32.95 120.1 23.4 120.05 23.3 121.2 19.65 Q122.25 14.4 124.05 10.95 L124.1 10.9 123.15 8.1 123.25 8.0 123.1 8.05 116.15 -9.75 115.0 -12.75 114.3 -13.05 113.6 -13.4 112.0 -14.4 111.4 -14.85 112.0 -14.4 111.0 -10.8 110.05 -8.35 109.55 -7.2 Q107.75 -2.8 105.3 1.15 L104.5 2.3 104.35 2.6 103.45 3.8 106.35 22.05 106.35 22.15 106.0 22.4 108.0 35.3 101.05 42.25 103.2 49.45 102.25 52.15 102.45 52.25 110.85 57.9 112.0 69.2 112.1 70.65 82.55 70.65 Q82.3 49.65 81.1 29.2 L81.05 29.2 80.45 21.15 Q78.9 -2.15 80.5 -25.9 L81.05 -33.75 Q96.5 -35.1 105.85 -39.45 L106.65 -39.8 106.8 -39.7 107.15 -39.45 110.1 -37.45 110.15 -37.5 Q113.45 -39.1 117.35 -37.6 L118.35 -37.1 M73.0 70.65 L54.85 70.65 55.0 69.2 Q56.1 57.25 57.8 45.75 L58.85 39.0 59.15 37.05 59.7 33.6 60.25 30.65 61.05 26.85 61.45 24.9 63.3 16.2 Q61.0 2.35 63.25 -14.1 L63.2 -15.45 60.95 -7.5 60.8 -7.55 60.95 -7.4 59.95 -3.4 59.7 -3.4 59.9 -1.65 Q60.05 2.2 58.85 7.45 58.45 9.15 58.4 11.25 L58.35 11.35 60.65 24.7 60.85 25.65 Q54.9 28.05 48.8 26.8 L45.05 25.7 47.35 18.25 47.2 18.2 47.4 17.6 45.8 0.75 45.9 -3.1 Q46.9 -5.35 47.85 -7.05 L52.1 -32.95 52.35 -33.0 Q52.85 -39.75 55.35 -45.7 57.85 -51.65 62.1 -54.45 L63.2 -55.15 Q65.4 -56.3 67.55 -56.2 L67.5 -54.8 66.0 -53.45 66.1 -52.25 Q66.3 -51.0 66.95 -49.1 69.65 -40.95 74.4 -36.75 L74.85 -36.35 Q74.3 -31.95 73.9 -27.05 72.45 -7.7 73.9 19.85 L74.25 26.5 73.6 26.15 Q73.7 48.2 73.0 70.65 M64.35 -52.8 L66.0 -53.45 64.35 -52.8 M60.2 -44.5 Q58.95 -41.35 58.65 -38.2 58.2 -34.65 58.9 -31.15 59.55 -27.7 61.3 -24.3 59.55 -27.7 58.9 -31.15 58.2 -34.65 58.65 -38.2 58.95 -41.35 60.2 -44.5 M47.6 -5.45 L47.85 -7.05 47.6 -5.45 M61.45 -24.1 L61.55 -23.6 Q62.65 -20.5 63.0 -17.25 L63.2 -15.45 63.0 -17.25 Q62.65 -20.5 61.55 -23.6 L61.45 -24.1 61.3 -24.3 61.45 -24.1 M124.45 11.85 L124.1 10.9 124.45 11.85 M63.65 18.3 L63.3 16.2 63.65 18.3" fill="#928361" fill-rule="evenodd" stroke="none"/>
    <path d="M126.2 42.05 L125.2 49.55 120.25 49.05 117.15 48.35 Q109.7 46.2 108.75 40.65 L108.7 40.5 108.7 40.15 111.9 35.45 114.85 38.05 Q118.0 40.4 121.95 41.4 L126.2 42.05 M82.55 70.65 L73.0 70.65 Q73.7 48.2 73.6 26.15 L74.25 26.5 73.9 19.85 Q72.45 -7.7 73.9 -27.05 74.3 -31.95 74.85 -36.35 L77.05 -33.6 77.05 -33.55 77.1 -33.45 81.05 -33.75 80.5 -25.9 Q78.9 -2.15 80.45 21.15 L81.05 29.2 81.1 29.2 Q82.3 49.65 82.55 70.65 M46.9 34.4 L42.85 33.0 45.05 25.7 48.8 26.8 Q54.9 28.05 60.85 25.65 L61.05 26.85 60.25 30.65 59.7 33.6 Q55.5 36.85 46.9 34.4" fill="#443d35" fill-rule="evenodd" stroke="none"/>
    <path d="M60.95 -7.5 L60.95 -7.4 60.8 -7.55 60.95 -7.5 M123.1 8.05 L123.25 8.0 123.15 8.1 123.1 8.05" fill="#cccccc" fill-rule="evenodd" stroke="none"/>
    <path d="M71.4 -74.1 L71.4 -73.55 71.0 -72.3 70.25 -71.65 Q69.8 -71.7 69.55 -72.3 69.25 -72.85 69.3 -73.6 69.3 -74.35 69.65 -74.9 L69.9 -75.15 69.8 -74.85 Q69.75 -74.4 70.0 -74.05 70.2 -73.8 70.6 -73.75 L71.2 -74.05 71.25 -74.2 71.4 -74.1 M82.65 -69.7 L82.65 -69.5 Q82.6 -68.6 82.2 -67.95 81.75 -67.35 81.2 -67.4 80.65 -67.35 80.25 -67.95 79.85 -68.6 79.95 -69.55 L80.1 -70.35 80.7 -70.2 80.85 -70.0 Q81.15 -69.7 81.6 -69.7 L82.1 -69.8 82.65 -69.7" fill="#000000" fill-rule="evenodd" stroke="none"/>
    <path d="M114.5 -41.5 L115.6 -40.35 118.1 -37.45 118.35 -37.1 117.35 -37.6 Q113.45 -39.1 110.15 -37.5 L110.1 -37.45 107.15 -39.45 106.8 -39.7 106.8 -39.85 114.5 -41.5 M118.15 53.05 L121.25 69.2 121.5 70.65 112.1 70.65 112.0 69.2 110.85 57.9 113.1 59.35 113.25 59.45 113.9 58.2 115.8 57.6 118.15 53.05 M112.0 -14.4 L113.6 -13.4 114.3 -13.05 115.0 -12.75 116.15 -9.75 115.6 -8.15 115.6 -8.1 115.65 -8.1 115.1 -6.9 Q113.7 -3.35 112.1 -0.3 L111.5 0.7 111.5 0.75 110.95 12.9 111.05 21.15 110.65 21.25 113.6 32.95 112.7 34.3 109.45 33.85 108.0 35.3 106.0 22.4 106.35 22.15 106.35 22.05 103.45 3.8 104.35 2.6 104.5 2.3 105.3 1.15 Q107.75 -2.8 109.55 -7.2 L110.05 -8.35 111.0 -10.8 112.0 -14.4" fill="#7a6b54" fill-rule="evenodd" stroke="none"/>
    <path d="M64.05 -80.5 Q62.45 -82.9 61.4 -85.4 L61.05 -87.2 66.8 -90.5 Q71.05 -96.85 77.1 -100.6 80.2 -102.55 83.9 -104.05 90.9 -106.45 97.6 -103.9 100.95 -102.75 103.7 -100.3 L109.5 -94.9 Q113.2 -91.15 115.55 -86.2 116.25 -84.85 116.25 -68.15 113.8 -64.8 112.3 -71.3 110.75 -73.85 110.05 -72.1 108.6 -68.75 108.25 -67.45 L109.1 -59.7 Q109.4 -54.9 107.2 -49.85 L107.05 -47.5 106.85 -46.65 Q109.2 -47.25 111.0 -45.75 112.8 -44.3 114.5 -41.5 L106.8 -39.85 106.65 -39.8 105.85 -39.45 Q96.5 -35.1 81.05 -33.75 L77.1 -33.45 77.15 -33.55 77.15 -33.6 Q78.55 -38.1 82.75 -40.05 86.3 -41.65 90.85 -44.65 L92.1 -48.95 Q93.05 -51.85 94.45 -54.6 96.15 -58.45 95.9 -62.3 L95.3 -65.6 94.45 -67.95 92.4 -72.1 91.8 -73.1 88.2 -78.25 87.45 -79.25 86.9 -79.9 84.0 -82.9 81.2 -85.35 Q79.2 -87.0 77.0 -88.45 L76.7 -88.45 Q74.0 -88.4 71.5 -87.3 L70.65 -86.85 70.2 -86.6 Q68.95 -86.2 68.05 -85.5 L67.8 -85.2 68.05 -85.5 67.95 -85.15 67.8 -85.2 66.25 -82.8 65.75 -82.1 64.05 -80.5 M91.3 -84.65 Q87.2 -87.4 83.45 -90.7 78.2 -95.05 71.35 -92.35 L71.35 -92.3 66.8 -90.5 71.35 -92.3 71.35 -92.35 Q78.2 -95.05 83.45 -90.7 87.2 -87.4 91.3 -84.65 M72.75 -90.2 L77.0 -88.45 72.75 -90.2 M69.9 -57.2 L69.9 -56.75 69.95 -56.15 70.0 -55.65 70.05 -54.4 70.05 -54.05 70.05 -53.65 70.05 -53.2 70.2 -53.2 Q70.55 -50.3 74.25 -43.35 77.95 -36.45 77.15 -33.6 L77.05 -33.6 74.85 -36.35 74.4 -36.75 Q69.65 -40.95 66.95 -49.1 66.3 -51.0 66.1 -52.25 L66.0 -53.45 67.5 -54.8 67.5 -53.85 68.7 -54.85 68.75 -52.65 69.3 -49.8 68.75 -52.65 68.7 -54.85 69.9 -57.2 M100.55 -42.35 Q92.6 -37.95 77.1 -33.45 92.6 -37.95 100.55 -42.35 L100.6 -42.4 100.55 -42.6 100.55 -42.5 100.45 -42.45 100.55 -42.35 M106.95 -62.3 L108.25 -67.45 106.95 -62.3 M107.7 -45.2 L107.8 -45.3 107.7 -45.3 107.7 -45.2 M90.25 -41.85 L90.85 -44.65 90.25 -41.85 M106.65 -48.6 L107.2 -49.85 106.65 -48.6" fill="#f2d9c8" fill-rule="evenodd" stroke="none"/>
    <path d="M70.65 -59.45 L71.6 -53.35 70.9 -53.25 70.2 -53.2 70.2 -53.55 70.15 -54.05 70.1 -54.4 70.0 -55.65 69.95 -56.15 69.9 -56.75 69.9 -57.2 70.5 -59.35 70.65 -59.45" fill="#2f553f" fill-rule="evenodd" stroke="none"/>
    <path d="M70.0 -55.65 L70.1 -54.4 70.15 -54.05 70.2 -53.55 70.2 -53.2 70.05 -53.2 70.05 -53.65 70.05 -54.05 70.05 -54.4 70.0 -55.65" fill="#674743" fill-rule="evenodd" stroke="none"/>
    <path d="M77.05 -33.6 L77.15 -33.6 77.15 -33.55 77.05 -33.6" fill="#ffffcc" fill-rule="evenodd" stroke="none"/>
    <path d="M77.15 -33.55 L77.1 -33.45 77.05 -33.55 77.05 -33.6 77.15 -33.55 77.05 -33.55 77.15 -33.55" fill="#7b6c5e" fill-rule="evenodd" stroke="none"/>
    <path d="M107.7 -45.2 L107.7 -45.3 107.8 -45.3 107.7 -45.2" fill="#52946d" fill-rule="evenodd" stroke="none"/>
    <path d="M106.65 -39.8 L106.8 -39.85 106.8 -39.7 106.65 -39.8" fill="#64574a" fill-rule="evenodd" stroke="none"/>
    <path d="M100.55 -42.35 L100.45 -42.45 100.55 -42.5 100.6 -42.4 100.55 -42.35" fill="#d2c0b7" fill-rule="evenodd" stroke="none"/>
    <path d="M100.55 -42.5 L100.55 -42.6 100.6 -42.4 100.55 -42.5" fill="#7d6792" fill-rule="evenodd" stroke="none"/>
    <path d="M115.6 -8.1 L115.6 -8.15 115.65 -8.1 115.6 -8.1" fill="#bda097" fill-rule="evenodd" stroke="none"/>
    <path d="M71.25 -74.2 L71.2 -74.05 70.6 -73.75 Q70.2 -73.8 70.0 -74.05 69.75 -74.4 69.8 -74.85 L69.9 -75.15 69.9 -75.25 71.25 -74.2 M69.3 -75.75 L69.3 -75.7 Q68.8 -74.85 68.75 -73.55 68.7 -72.3 69.1 -71.35 L68.1 -73.2 68.15 -74.1 68.75 -76.2 69.3 -75.75 M69.85 -70.55 L70.2 -70.45 Q70.85 -70.5 71.35 -71.35 71.85 -72.3 71.95 -73.55 L71.95 -73.65 72.0 -73.6 71.95 -73.1 Q71.95 -71.3 71.6 -69.4 70.6 -69.85 69.85 -70.55 M79.35 -70.55 L79.25 -69.5 Q79.15 -68.05 79.75 -67.0 80.05 -66.4 80.55 -66.15 L78.15 -66.9 Q78.3 -69.0 78.75 -70.7 L79.35 -70.55 M81.2 -66.0 Q82.0 -66.05 82.65 -67.0 83.25 -68.05 83.3 -69.5 L85.15 -69.05 85.55 -66.5 Q83.7 -65.6 81.2 -66.0 M82.1 -69.8 L81.6 -69.7 Q81.15 -69.7 80.85 -70.0 L80.7 -70.2 82.1 -69.8" fill="#ffffff" fill-rule="evenodd" stroke="none"/>
    <path d="M69.9 -75.15 L69.65 -74.9 Q69.3 -74.35 69.3 -73.6 69.25 -72.85 69.55 -72.3 69.8 -71.7 70.25 -71.65 L71.0 -72.3 71.4 -73.55 71.4 -74.1 71.95 -73.65 71.95 -73.55 Q71.85 -72.3 71.35 -71.35 70.85 -70.5 70.2 -70.45 L69.85 -70.55 Q69.4 -70.75 69.1 -71.35 68.7 -72.3 68.75 -73.55 68.8 -74.85 69.3 -75.7 L69.3 -75.75 69.9 -75.25 69.9 -75.15 M80.55 -66.15 Q80.05 -66.4 79.75 -67.0 79.15 -68.05 79.25 -69.5 L79.35 -70.55 80.1 -70.35 79.95 -69.55 Q79.85 -68.6 80.25 -67.95 80.65 -67.35 81.2 -67.4 81.75 -67.35 82.2 -67.95 82.6 -68.6 82.65 -69.5 L82.65 -69.7 83.3 -69.5 Q83.25 -68.05 82.65 -67.0 82.0 -66.05 81.2 -66.0 L80.55 -66.15" fill="#0099ff" fill-rule="evenodd" stroke="none"/>
    <path d="M68.05 -85.5 Q68.95 -86.2 70.2 -86.6 L70.65 -86.85 Q68.4 -84.65 67.6 -81.45 L67.6 -83.2 67.95 -85.15 68.05 -85.5 M71.5 -87.3 Q74.0 -88.4 76.7 -88.45 72.55 -85.6 74.1 -79.85 70.0 -85.0 71.5 -87.3 M92.15 -71.95 L91.8 -73.1 92.4 -72.1 94.45 -67.95 95.3 -65.6 92.0 -60.65 Q93.4 -66.7 92.15 -71.95 M88.2 -78.25 L86.65 -78.05 86.9 -79.9 87.45 -79.25 88.2 -78.25 M84.0 -82.9 L82.2 -80.0 Q79.7 -83.55 81.2 -85.35 L84.0 -82.9 M69.2 -81.35 L71.9 -81.05 73.0 -78.5 68.25 -79.85 69.2 -81.35 M81.1 -78.65 L86.25 -76.85 89.0 -74.15 78.15 -77.15 81.1 -78.65" fill="#333333" fill-rule="evenodd" stroke="none"/>
    <path d="M67.55 -56.2 Q67.65 -67.4 65.55 -78.65 L64.05 -80.5 65.75 -82.1 66.25 -82.8 67.8 -85.2 67.95 -85.15 67.6 -83.2 67.6 -81.45 67.65 -80.95 67.8 -80.0 67.85 -79.65 67.85 -79.55 67.85 -79.4 67.8 -77.95 67.7 -76.3 67.6 -75.7 67.6 -75.55 67.2 -73.55 Q66.65 -66.35 68.45 -64.25 L70.1 -61.55 70.6 -59.8 70.6 -59.7 70.5 -59.35 69.9 -57.2 68.7 -54.85 67.5 -53.85 67.5 -54.8 67.55 -56.2" fill="#e0c8b6" fill-rule="evenodd" stroke="none"/>
    <path d="M120.25 49.05 L118.15 53.05 M57.8 45.75 L49.15 47.2 49.0 47.2 48.9 45.8 47.45 44.4 46.9 34.4 M67.95 -85.15 L68.05 -85.5 M67.65 -80.95 L67.8 -80.0 67.85 -79.65 67.85 -79.55 67.85 -79.4 M67.6 -75.7 L67.6 -75.55 67.2 -73.55 Q66.65 -66.35 68.45 -64.25 L70.1 -61.55 M70.6 -59.8 L70.6 -59.7 70.65 -59.45 71.6 -53.35 71.65 -52.9 72.2 -49.5 Q73.8 -44.9 79.0 -45.9 M71.4 -74.1 L71.25 -74.2 M69.9 -75.25 L69.3 -75.75 68.75 -76.2 68.15 -74.1 68.0 -73.45 68.1 -73.2 69.1 -71.35 Q69.4 -70.75 69.85 -70.55 70.6 -69.85 71.6 -69.4 71.95 -71.3 71.95 -73.1 72.45 -70.5 72.35 -67.85 72.15 -64.85 71.15 -61.8 M71.95 -73.65 L71.4 -74.1 M68.75 -76.2 Q69.85 -78.65 71.75 -76.4 L72.0 -73.6 71.95 -73.1 M73.35 -59.85 L71.95 -60.05 Q71.2 -60.5 71.15 -61.8 M79.35 -70.55 L78.75 -70.7 Q78.3 -69.0 78.15 -66.9 L80.55 -66.15 81.2 -66.0 M83.3 -69.5 L82.65 -69.7 82.1 -69.8 80.7 -70.2 80.1 -70.35 79.35 -70.55 M78.75 -70.7 Q79.15 -72.25 79.9 -73.45 83.95 -73.35 85.15 -69.05 L85.55 -66.5 Q83.7 -65.6 81.2 -66.0 M71.95 -73.65 L72.0 -73.6 M84.25 -48.9 L79.0 -45.9 M73.3 -55.45 L75.3 -55.05 76.4 -54.45 78.3 -53.55 M69.9 -75.25 L71.25 -74.2 M60.65 24.7 L61.45 24.9 M84.25 -48.9 Q87.85 -51.35 91.1 -54.3 L95.7 -62.4 95.9 -62.3 M85.15 -69.05 L83.3 -69.5 M112.7 34.3 L109.45 33.85 108.0 35.3 101.05 42.25 103.2 49.45 102.25 52.15 102.45 52.25 110.85 57.9 113.1 59.35 113.25 59.45 113.9 58.2 115.8 57.6 118.15 53.05 M109.05 47.45 L109.15 47.75 M103.2 49.45 L109.05 47.45 M57.75 38.0 L58.85 39.0 M57.75 38.0 L57.55 38.2" fill="none" stroke="#d7995e" stroke-linecap="round" stroke-linejoin="round" stroke-width="0.05"/>
    <path d="M118.35 -37.1 L118.5 -37.05 Q123.15 -34.65 126.2 -29.05 129.2 -23.55 130.25 -17.1 L130.5 -17.1 137.15 9.0 M137.0 9.05 L137.15 9.9 137.4 15.45 135.9 19.0 127.45 33.65 127.4 34.3 127.2 34.3 126.2 42.05 125.2 49.55 120.25 49.05 M118.15 53.05 L121.25 69.2 121.5 70.65 M54.85 70.65 L55.0 69.2 Q56.1 57.25 57.8 45.75 M46.9 34.4 L42.85 33.0 45.05 25.7 47.35 18.25 47.2 18.2 47.4 17.6 45.8 0.75 45.9 -3.1 Q46.9 -5.35 47.85 -7.05 L52.1 -32.95 52.35 -33.0 Q52.85 -39.75 55.35 -45.7 57.85 -51.65 62.1 -54.45 L63.2 -55.15 M47.85 -7.05 L47.6 -5.45 M59.7 -3.4 L59.9 -1.65 Q60.05 2.2 58.85 7.45 58.45 9.15 58.4 11.25 L58.35 11.35 60.65 24.7 60.85 25.65 M61.45 24.9 L63.3 16.2 M63.2 -15.45 L60.95 -7.5 60.8 -7.55 60.95 -7.4 59.95 -3.4 M117.35 -37.6 L118.35 -37.1 M112.0 -14.4 L111.4 -14.85 M112.0 -14.4 L113.6 -13.4 114.3 -13.05 M115.0 -12.75 L116.15 -9.75 123.1 8.05 123.25 8.0 123.15 8.1 124.1 10.9 124.45 11.85 M110.95 12.9 L111.05 21.15 M110.65 21.25 L113.6 32.95 120.1 23.4 120.05 23.3 121.2 19.65 Q122.25 14.4 124.05 10.95 L124.1 10.9 M111.9 35.45 L108.7 40.15 108.7 40.5 108.75 40.65 Q109.7 46.2 117.15 48.35 L120.25 49.05 M113.6 32.95 L112.7 34.3 111.9 35.45 M59.7 33.6 L60.25 30.65 61.05 26.85 60.85 25.65 M59.7 33.6 L59.15 37.05 58.85 39.0 57.8 45.75 M46.9 34.4 Q55.5 36.85 59.7 33.6 M61.05 26.85 L61.45 24.9" fill="none" stroke="#4a4239" stroke-linecap="round" stroke-linejoin="round" stroke-width="0.05"/>
    <path d="M60.95 -7.5 L60.95 -7.4 M123.1 8.05 L123.15 8.1" fill="none" stroke="#999999" stroke-linecap="round" stroke-linejoin="round" stroke-width="0.05"/>
    <path d="M74.85 -36.35 Q74.3 -31.95 73.9 -27.05 72.45 -7.7 73.9 19.85 L74.25 26.5 M73.6 26.15 Q73.7 48.2 73.0 70.65 M81.05 29.2 L80.45 21.15 Q78.9 -2.15 80.5 -25.9 L81.05 -33.75 M82.55 70.65 Q82.3 49.65 81.1 29.2" fill="none" stroke="#333333" stroke-linecap="round" stroke-linejoin="round" stroke-width="0.05"/>
    <path d="M107.2 -49.85 L107.05 -47.5 106.85 -46.65 Q109.2 -47.25 111.0 -45.75 112.8 -44.3 114.5 -41.5 L115.6 -40.35 118.1 -37.45 118.35 -37.1 M69.9 -57.2 L69.9 -56.75 M70.2 -53.2 Q70.55 -50.3 74.25 -43.35 77.95 -36.45 77.15 -33.6 78.55 -38.1 82.75 -40.05 86.3 -41.65 90.85 -44.65 M68.7 -54.85 L68.75 -52.65 69.3 -49.8 M67.5 -54.8 L66.0 -53.45 66.1 -52.25 Q66.3 -51.0 66.95 -49.1 69.65 -40.95 74.4 -36.75 L74.85 -36.35 77.05 -33.6 77.15 -33.6 M77.15 -33.55 L77.1 -33.45 Q92.6 -37.95 100.55 -42.35 L100.45 -42.45 M66.0 -53.45 L64.35 -52.8 M77.05 -33.6 L77.05 -33.55 77.15 -33.55 77.05 -33.6 M61.3 -24.3 Q59.55 -27.7 58.9 -31.15 58.2 -34.65 58.65 -38.2 58.95 -41.35 60.2 -44.5 M63.25 -14.1 L63.2 -15.45 63.0 -17.25 Q62.65 -20.5 61.55 -23.6 L61.45 -24.1 M115.6 -8.15 L116.15 -9.75" fill="none" stroke="#42374d" stroke-linecap="round" stroke-linejoin="round" stroke-width="0.05"/>
    <path d="M70.5 -59.35 L70.65 -59.45 M69.9 -56.75 L69.95 -56.15 70.0 -55.65 70.1 -54.4 70.15 -54.05 70.2 -53.55 70.2 -53.2 M115.65 -8.1 L115.6 -8.1" fill="none" stroke="#30543c" stroke-linecap="round" stroke-linejoin="round" stroke-width="0.05"/>
    <path d="M63.3 16.2 Q61.0 2.35 63.25 -14.1 M61.45 -24.1 L61.3 -24.3 M115.6 -8.15 L115.65 -8.1 115.1 -6.9 Q113.7 -3.35 112.1 -0.3 L111.5 0.7 111.5 0.75 110.95 12.9 M63.3 16.2 L63.65 18.3" fill="none" stroke="#6a4e44" stroke-linecap="round" stroke-linejoin="round" stroke-width="0.05"/>
    <path d="M77.1 -33.45 L81.05 -33.75 Q96.5 -35.1 105.85 -39.45 L106.65 -39.8 106.8 -39.85 114.5 -41.5" fill="none" stroke="#000000" stroke-linecap="round" stroke-linejoin="round" stroke-width="0.05"/>
    <path d="M112.1 -0.3 Q112.1 0.45 111.5 0.75" fill="none" stroke="#4e3325" stroke-linecap="round" stroke-linejoin="round" stroke-width="0.05"/>
    <path d="M69.2 -81.35 L71.9 -81.05 73.0 -78.5 68.25 -79.85 69.2 -81.35 M81.1 -78.65 L78.15 -77.15 89.0 -74.15 86.25 -76.85 81.1 -78.65" fill="none" stroke="#666666" stroke-linecap="round" stroke-linejoin="round" stroke-width="0.05"/>
    <path d="M66.25 -82.8 L67.8 -85.2 M68.05 -85.5 Q68.95 -86.2 70.2 -86.6 L70.65 -86.85 71.5 -87.3 Q74.0 -88.4 76.7 -88.45 L77.0 -88.45 72.75 -90.2 M66.8 -90.5 L71.35 -92.3 71.35 -92.35 Q78.2 -95.05 83.45 -90.7 87.2 -87.4 91.3 -84.65 M91.8 -73.1 L88.2 -78.25 M86.9 -79.9 L84.0 -82.9 81.2 -85.35 Q79.2 -87.0 77.0 -88.45 M90.85 -44.65 L92.1 -48.95 M86.9 -79.9 L87.45 -79.25 88.2 -78.25 M91.8 -73.1 L92.4 -72.1 94.45 -67.95 95.3 -65.6 95.9 -62.3 Q96.15 -58.45 94.45 -54.6 93.05 -51.85 92.1 -48.95 M108.25 -67.45 L106.95 -62.3 M90.85 -44.65 L90.25 -41.85" fill="none" stroke="#ab8558" stroke-linecap="round" stroke-linejoin="round" stroke-width="0.05"/>
    <path d="M64.05 -80.5 Q62.45 -82.9 61.4 -85.4 L61.05 -87.2 66.8 -90.5 Q71.05 -96.85 77.1 -100.6 80.2 -102.55 83.9 -104.05 90.9 -106.45 97.6 -103.9 100.95 -102.75 103.7 -100.3 L109.5 -94.9 Q113.2 -91.15 115.55 -86.2 116.25 -84.85 116.25 -68.15 113.8 -64.8 112.3 -71.3 110.75 -73.85 110.05 -72.1 108.6 -68.75 108.25 -67.45 L109.1 -59.7 Q109.4 -54.9 107.2 -49.85 L106.65 -48.6 M67.55 -56.2 Q67.65 -67.4 65.55 -78.65 L64.05 -80.5 M67.8 -85.2 L68.05 -85.5 M67.5 -53.85 L67.5 -54.8 67.55 -56.2" fill="none" stroke="#584338" stroke-linecap="round" stroke-linejoin="round" stroke-width="0.05"/>
    <path d="M79.9 -29.05 Q83.35 -28.7 86.95 -28.9 89.7 -26.3 87.15 -22.55 83.45 -20.4 79.75 -18.7 L81.95 -23.95 79.9 -29.05 81.95 -23.95 79.75 -18.7 Q75.6 -16.85 71.65 -15.6 68.5 -19.85 66.75 -24.05 65.8 -26.5 65.15 -28.95 64.2 -33.35 67.5 -33.6 69.25 -32.45 71.15 -31.55 75.3 -29.8 79.9 -29.05 M74.05 -29.15 L73.6 -29.0 71.6 -27.8 Q70.3 -26.35 69.9 -24.45 69.7 -22.35 70.5 -21.1 70.95 -20.15 71.5 -19.8 L72.4 -19.6 Q73.6 -19.7 74.6 -20.95 75.7 -22.4 76.25 -24.45 76.5 -26.4 75.95 -27.8 75.25 -29.2 74.05 -29.15 M71.15 -31.55 L68.15 -28.45 66.75 -24.05 68.15 -28.45 71.15 -31.55" fill="#828282" fill-rule="evenodd" stroke="none"/>
    <path d="M74.05 -29.15 Q75.25 -29.2 75.95 -27.8 76.5 -26.4 76.25 -24.45 75.7 -22.4 74.6 -20.95 73.6 -19.7 72.4 -19.6 L71.5 -19.8 Q70.95 -20.15 70.5 -21.1 69.7 -22.35 69.9 -24.45 70.3 -26.35 71.6 -27.8 L73.6 -29.0 74.05 -29.15 M74.35 -25.35 Q74.4 -26.4 74.1 -27.15 74.0 -27.65 73.55 -27.8 L73.1 -28.0 Q72.5 -28.0 71.7 -27.15 70.9 -26.45 70.7 -25.3 70.5 -24.1 71.1 -23.3 71.5 -22.5 72.1 -22.5 L72.4 -22.6 Q73.0 -22.7 73.5 -23.3 74.1 -24.15 74.35 -25.35" fill="#858bd3" fill-rule="evenodd" stroke="none"/>
    <path d="M74.35 -25.35 Q74.1 -24.15 73.5 -23.3 73.0 -22.7 72.4 -22.6 L72.1 -22.5 Q71.5 -22.5 71.1 -23.3 70.5 -24.1 70.7 -25.3 70.9 -26.45 71.7 -27.15 72.5 -28.0 73.1 -28.0 L73.55 -27.8 Q74.0 -27.65 74.1 -27.15 74.4 -26.4 74.35 -25.35" fill="#333a8e" fill-rule="evenodd" stroke="none"/>
    <path d="M79.75 -18.7 Q83.45 -20.4 87.15 -22.55 89.7 -26.3 86.95 -28.9 83.35 -28.7 79.9 -29.05 L81.95 -23.95 79.75 -18.7 Q75.6 -16.85 71.65 -15.6 68.5 -19.85 66.75 -24.05 65.8 -26.5 65.15 -28.95 64.2 -33.35 67.5 -33.6 69.25 -32.45 71.15 -31.55 75.3 -29.8 79.9 -29.05 M66.75 -24.05 L68.15 -28.45 71.15 -31.55" fill="none" stroke="#333333" stroke-linecap="round" stroke-linejoin="round" stroke-width="0.05"/>
  </g>
</svg>
