<?xml version="1.0" encoding="UTF-8" standalone="no"?>
<svg xmlns:xlink="http://www.w3.org/1999/xlink" height="168.3px" width="93.8px" xmlns="http://www.w3.org/2000/svg">
  <g transform="matrix(1, 0, 0, 1, -45.6, 104.65)">
    <path d="M71.25 -77.65 Q71.3 -78.35 71.5 -78.9 73.45 -79.3 75.75 -77.85 76.15 -76.15 76.9 -75.05 77.0 -77.55 78.45 -81.1 79.25 -76.4 80.3 -76.05 81.9 -82.0 85.5 -84.2 83.45 -81.7 83.65 -78.75 87.0 -81.4 90.55 -81.4 93.05 -79.2 95.05 -75.95 L90.85 -72.25 92.8 -66.45 Q92.85 -64.3 89.75 -61.35 87.95 -59.55 85.05 -57.55 L80.95 -54.9 78.45 -53.45 77.6 -54.75 73.1 -61.8 71.4 -72.25 71.4 -76.6 71.25 -77.65 M71.5 -79.0 Q72.2 -81.4 75.2 -81.85 L75.5 -78.85 Q73.85 -80.4 71.5 -79.0 M99.15 -70.4 L99.15 -72.1 Q101.7 -74.65 103.0 -72.8 L103.3 -72.25 Q103.7 -71.4 103.65 -70.25 103.2 -71.05 101.55 -71.4 100.45 -70.7 99.9 -69.45 99.4 -69.6 99.15 -70.4 M117.4 -42.1 Q120.6 -40.05 122.7 -35.85 124.1 -32.9 124.4 -30.1 L124.3 -29.4 123.55 -27.25 123.45 -27.1 122.6 -25.8 Q121.25 -24.25 119.1 -24.8 L117.75 -25.3 117.55 -25.4 115.0 -27.1 113.85 -28.25 113.3 -28.9 113.0 -29.25 Q110.45 -32.7 108.45 -38.5 L108.3 -38.85 108.5 -40.2 108.8 -40.95 Q109.35 -42.1 110.35 -42.8 L111.05 -43.2 112.55 -43.65 Q114.65 -44.0 117.1 -42.35 L117.4 -42.1 M131.65 -0.2 L133.7 6.45 133.55 6.65 Q135.1 9.4 136.8 14.35 L139.05 44.45 139.4 46.35 139.25 47.0 139.25 47.2 139.2 47.25 137.55 54.15 135.4 59.2 135.15 60.35 134.25 60.05 Q131.8 58.6 131.8 53.45 L130.65 51.65 130.6 51.45 125.8 46.0 128.95 39.9 132.15 39.5 Q129.7 29.45 126.35 20.7 125.3 15.6 126.25 10.15 L126.5 8.45 118.2 -14.25 Q127.45 -12.3 131.65 -0.2 M113.45 63.65 L93.1 63.65 Q92.6 56.2 92.8 48.25 93.75 45.45 94.9 43.45 L96.05 41.75 96.2 41.5 106.25 41.05 Q108.5 43.85 110.35 49.5 112.5 55.8 113.45 63.65 M69.0 63.65 L63.4 63.65 Q62.9 50.55 64.75 36.25 L67.75 36.35 70.65 36.55 Q69.1 50.3 69.0 63.65 M62.25 -11.45 L60.5 -5.4 60.65 -4.1 60.65 -3.95 Q61.3 0.7 60.05 5.1 55.85 13.5 52.75 23.15 54.55 23.0 56.25 23.8 L57.8 29.45 52.35 33.85 52.3 34.1 50.8 35.55 Q49.8 40.1 47.4 41.15 L46.45 41.35 46.55 40.35 45.6 35.65 45.6 28.6 45.8 28.2 49.9 -0.05 Q51.35 -3.5 52.75 -5.7 L53.45 -6.9 59.8 -32.0 Q66.0 -25.5 62.25 -11.45 M67.0 -52.9 Q68.4 -53.75 69.7 -53.8 L69.7 -53.9 77.4 -54.75 64.6 -33.2 Q64.6 -34.1 64.9 -35.15 65.55 -37.5 67.6 -40.65 L68.8 -42.45 Q69.0 -43.7 68.6 -48.7 69.0 -43.7 68.8 -42.45 L67.6 -40.65 Q65.55 -37.5 64.9 -35.15 64.0 -35.7 63.5 -36.85 L63.45 -36.95 63.05 -38.1 Q62.2 -41.5 63.9 -46.3 64.95 -49.3 67.0 -52.9 M75.45 -75.8 L75.35 -76.6 Q72.95 -79.5 71.8 -73.9 72.25 -72.5 73.05 -71.55 73.45 -70.75 74.05 -70.65 L74.9 -70.15 75.75 -70.15 75.65 -72.5 75.5 -73.55 75.45 -75.8 M76.5 -64.75 Q74.35 -64.05 74.6 -66.2 75.25 -67.15 75.5 -68.45 L75.75 -70.15 75.5 -68.45 Q75.25 -67.15 74.6 -66.2 74.35 -64.05 76.5 -64.75 M81.7 -53.9 L84.35 -54.35 Q90.65 -55.75 94.05 -58.0 L95.05 -58.7 Q95.95 -55.85 97.05 -50.5 91.6 -45.25 87.45 -37.95 84.8 -36.7 81.85 -35.7 78.65 -42.7 81.25 -53.75 L81.7 -53.9 M82.35 -73.05 L81.85 -71.95 Q81.2 -70.15 80.95 -67.85 L82.55 -67.2 84.9 -66.85 Q86.5 -66.8 87.85 -67.35 87.65 -71.5 85.6 -73.05 84.55 -73.8 83.1 -73.9 L82.8 -73.9 82.35 -73.05 M83.2 -51.2 L84.35 -54.35 83.2 -51.2 M80.3 -76.05 Q86.25 -77.05 90.55 -75.35 85.05 -79.05 80.3 -76.05 M139.25 47.0 L139.05 44.45 139.25 47.0 M133.7 46.65 L132.15 39.5 133.7 46.65 M82.4 -59.3 Q77.6 -59.65 75.35 -62.1 77.6 -59.65 82.4 -59.3 M51.3 27.95 L52.75 23.15 51.3 27.95" fill="#ffdfc8" fill-rule="evenodd" stroke="none"/>
    <path d="M95.05 -75.95 Q97.35 -72.25 99.0 -67.05 L99.15 -70.4 Q99.4 -69.6 99.9 -69.45 100.45 -70.7 101.55 -71.4 103.2 -71.05 103.65 -70.25 103.35 -67.95 101.0 -64.5 L100.55 -63.8 Q99.9 -63.3 99.35 -62.25 L99.15 -61.95 Q98.9 -57.25 99.7 -52.9 L97.05 -50.5 Q95.95 -55.85 95.05 -58.7 L94.05 -58.0 Q90.65 -55.75 84.35 -54.35 L81.7 -53.9 81.25 -53.8 78.45 -53.45 80.95 -54.9 85.05 -57.55 Q87.95 -59.55 89.75 -61.35 92.85 -64.3 92.8 -66.45 L90.85 -72.25 95.05 -75.95 M114.55 -44.2 L117.4 -42.45 117.4 -42.1 117.1 -42.35 Q114.65 -44.0 112.55 -43.65 L114.55 -44.05 114.55 -44.2 M124.4 -30.1 L124.4 -27.5 124.3 -26.15 131.65 -0.2 Q127.45 -12.3 118.2 -14.25 L114.8 -23.4 114.65 -23.55 112.95 -25.15 112.75 -24.8 110.9 -20.2 110.3 -18.75 Q108.45 -19.45 107.2 -21.15 103.75 -25.9 104.55 -38.0 107.35 -41.3 110.35 -42.8 109.35 -42.1 108.8 -40.95 L108.5 -40.2 108.3 -38.85 108.45 -38.5 Q110.45 -32.7 113.0 -29.25 L113.3 -28.9 113.85 -28.25 115.0 -27.1 117.55 -25.4 117.75 -25.3 119.1 -24.8 Q121.25 -24.25 122.6 -25.8 L123.45 -27.1 123.55 -27.25 124.3 -29.4 124.4 -30.1 M134.25 60.05 L126.65 57.0 126.5 57.0 126.7 54.6 124.25 49.1 125.8 46.0 130.6 51.45 130.5 51.5 130.65 51.65 131.8 53.45 Q131.8 58.6 134.25 60.05 M114.5 42.75 Q114.6 51.7 113.9 63.65 L113.45 63.65 Q112.5 55.8 110.35 49.5 108.5 43.85 106.25 41.05 L114.5 42.75 M92.8 48.25 L92.8 47.5 92.95 43.15 93.0 42.15 96.2 41.5 96.05 41.75 94.9 43.45 Q93.75 45.45 92.8 48.25 M85.45 41.6 L84.65 46.95 84.6 41.15 85.05 41.35 85.45 41.6 M66.05 -23.3 L62.25 -11.45 Q66.0 -25.5 59.8 -32.0 L60.7 -35.6 Q60.2 -36.95 60.05 -38.95 59.7 -41.7 61.5 -45.9 63.2 -50.1 66.15 -52.35 L67.0 -52.9 Q64.95 -49.3 63.9 -46.3 62.2 -41.5 63.05 -38.1 L63.45 -36.95 63.5 -36.85 Q64.0 -35.7 64.9 -35.15 64.6 -34.1 64.6 -33.2 64.35 -31.8 64.35 -30.1 L64.45 -28.1 Q64.75 -25.4 66.05 -23.3 M57.8 29.45 L58.5 32.3 55.15 36.95 54.85 39.1 54.75 39.1 47.4 41.15 Q49.8 40.1 50.8 35.55 L52.3 34.1 52.45 33.95 52.35 33.85 57.8 29.45 M99.15 -61.95 L95.05 -58.7 99.15 -61.95 M100.75 -65.75 Q100.85 -66.95 100.4 -67.35 L99.35 -67.55 99.35 -67.85 99.9 -69.45 99.35 -67.85 99.35 -67.55 100.4 -67.35 Q100.85 -66.95 100.75 -65.75 M97.65 -67.2 L97.75 -67.2 98.2 -67.2 97.65 -67.2 M110.45 -28.65 Q111.55 -26.65 112.95 -25.15 111.55 -26.65 110.45 -28.65 M126.7 54.6 L130.5 51.5 126.7 54.6 M52.45 33.95 L55.15 36.95 52.45 33.95" fill="#ffd0ae" fill-rule="evenodd" stroke="none"/>
    <path d="M130.65 51.65 L130.5 51.5 130.6 51.45 130.65 51.65 M52.45 33.95 L52.3 34.1 52.35 33.85 52.45 33.95" fill="#eebf5a" fill-rule="evenodd" stroke="none"/>
    <path d="M137.55 54.15 L136.65 58.2 135.4 59.2 137.55 54.15 M46.55 40.35 L45.6 39.35 45.6 35.65 46.55 40.35" fill="#f5dfc5" fill-rule="evenodd" stroke="none"/>
    <path d="M106.75 -54.2 Q110.95 -51.25 111.3 -48.8 L108.65 -47.8 105.4 -45.75 Q100.95 -42.45 97.15 -36.0 92.55 -28.25 88.85 -16.0 L87.9 -12.95 86.9 -9.15 85.9 -5.05 80.25 -5.25 Q80.95 -8.45 81.8 -11.3 L83.05 -15.7 84.05 -18.9 Q88.9 -33.8 94.95 -42.75 L97.75 -46.6 Q99.25 -48.5 100.85 -50.0 L102.65 -51.5 Q104.6 -53.15 106.75 -54.2 M81.15 63.65 L71.65 63.65 Q72.3 50.55 73.9 36.95 L74.8 29.2 76.75 16.2 76.85 16.2 76.9 15.6 77.0 14.8 Q77.85 7.15 79.0 0.65 L84.6 1.0 81.95 15.35 81.8 16.6 81.65 17.35 81.5 17.3 81.15 63.65" fill="#65589a" fill-rule="evenodd" stroke="none"/>
    <path d="M99.7 -52.9 L103.1 -55.6 Q105.95 -57.1 106.75 -54.2 104.6 -53.15 102.65 -51.5 L100.85 -50.0 Q99.25 -48.5 97.75 -46.6 L94.95 -42.75 Q88.9 -33.8 84.05 -18.9 L83.05 -15.7 81.8 -11.3 Q80.95 -8.45 80.25 -5.25 L76.35 -5.95 77.3 -10.3 79.1 -17.35 79.95 -20.35 Q83.05 -30.3 87.45 -37.95 91.6 -45.25 97.05 -50.5 L99.7 -52.9 M111.3 -48.8 Q114.75 -49.2 114.55 -44.2 L114.55 -44.05 112.55 -43.65 111.05 -43.2 110.35 -42.8 Q107.35 -41.3 104.55 -38.0 102.6 -35.75 100.7 -32.6 96.5 -25.65 92.7 -14.45 L91.8 -11.6 90.3 -6.65 89.85 -5.05 85.9 -5.05 86.9 -9.15 87.9 -12.95 88.85 -16.0 Q92.55 -28.25 97.15 -36.0 100.95 -42.45 105.4 -45.75 L108.65 -47.8 111.3 -48.8 M84.65 46.95 L84.75 63.65 81.15 63.65 81.5 17.3 81.65 17.35 81.8 16.6 81.95 15.35 84.6 1.0 88.2 1.0 Q86.5 7.7 84.9 15.4 L84.75 16.25 84.25 16.25 84.4 16.6 84.5 32.0 84.6 38.1 84.6 38.45 84.6 41.15 84.65 46.95 M71.65 63.65 L69.0 63.65 Q69.1 50.3 70.65 36.55 L71.95 26.25 73.75 15.6 73.95 15.65 74.05 14.9 74.1 14.1 Q74.55 6.4 75.45 0.0 L79.0 0.65 Q77.85 7.15 77.0 14.8 L76.9 15.6 76.85 16.2 76.75 16.2 74.8 29.2 73.9 36.95 Q72.3 50.55 71.65 63.65" fill="#874141" fill-rule="evenodd" stroke="none"/>
    <path d="M66.9 14.95 L67.7 11.0 Q69.65 4.3 72.75 -1.0 L72.75 -0.9 Q73.85 -0.4 75.45 0.0 74.55 6.4 74.1 14.1 L74.05 14.9 73.95 15.65 73.75 15.6 71.95 26.25 Q69.2 22.65 67.45 16.8 L66.9 14.95 M88.2 1.0 L96.45 0.65 Q97.9 3.3 98.45 6.2 99.4 11.8 99.15 15.9 L98.9 17.9 98.45 18.0 Q94.7 28.95 87.5 31.4 L84.5 32.0 84.4 16.6 84.25 16.25 84.75 16.25 84.9 15.4 Q86.5 7.7 88.2 1.0 M84.75 16.25 L84.8 16.35 84.8 16.25 84.75 16.25 M96.2 41.5 Q97.7 39.7 99.35 38.6 100.3 38.15 101.3 38.2 104.0 38.2 106.25 41.05 L96.2 41.5" fill="#5f5065" fill-rule="evenodd" stroke="none"/>
    <path d="M105.9 -0.05 L106.75 1.7 Q110.0 8.05 111.15 15.25 L110.9 15.35 112.05 21.4 Q115.05 31.55 116.35 43.25 L114.5 42.75 106.25 41.05 Q104.0 38.2 101.3 38.2 100.3 38.15 99.35 38.6 97.7 39.7 96.2 41.5 L93.0 42.15 92.1 42.3 92.1 38.65 87.6 38.8 87.35 38.8 86.85 42.3 85.45 41.6 85.05 41.35 84.6 41.15 84.6 38.45 84.6 38.1 84.5 32.0 87.5 31.4 Q94.7 28.95 98.45 18.0 L98.9 17.9 99.15 15.9 Q99.4 11.8 98.45 6.2 97.9 3.3 96.45 0.65 L105.9 -0.05 M64.75 36.25 L64.6 36.25 63.65 36.25 66.9 19.6 66.9 19.55 Q66.55 17.35 66.9 14.95 L67.45 16.8 Q69.2 22.65 71.95 26.25 L70.65 36.55 67.75 36.35 64.75 36.25 M87.35 38.8 L87.2 38.8 86.6 38.75 84.6 38.1 86.6 38.75 87.2 38.8 87.35 38.8 M86.6 38.75 L84.6 38.45 86.6 38.75 M92.15 33.7 L92.1 38.65 92.15 33.7" fill="#4f4354" fill-rule="evenodd" stroke="none"/>
    <path d="M74.1 -6.55 L74.1 -6.95 74.2 -6.95 Q75.5 -9.25 77.3 -10.3 L76.35 -5.95 74.1 -6.55 M77.4 -54.75 L77.6 -54.75 78.45 -53.45 81.25 -53.8 81.25 -53.75 Q78.65 -42.7 81.85 -35.7 84.8 -36.7 87.45 -37.95 83.05 -30.3 79.95 -20.35 L72.35 -20.65 Q68.6 -21.7 66.45 -24.4 65.15 -26.0 64.45 -28.1 L64.35 -30.1 Q64.35 -31.8 64.6 -33.2 L77.4 -54.75 M89.85 -5.05 L90.3 -6.65 92.0 -5.1 89.85 -5.05 M92.7 -14.45 Q96.5 -25.65 100.7 -32.6 103.25 -26.8 102.15 -18.35 99.1 -13.3 92.7 -14.45" fill="#7e985a" fill-rule="evenodd" stroke="none"/>
    <path d="M110.3 -18.75 Q108.1 -14.25 105.65 -10.6 105.05 -8.5 105.05 -6.5 L92.0 -5.1 90.3 -6.65 91.8 -11.6 92.7 -14.45 Q99.1 -13.3 102.15 -18.35 103.25 -26.8 100.7 -32.6 102.6 -35.75 104.55 -38.0 103.75 -25.9 107.2 -21.15 108.45 -19.45 110.3 -18.75 M74.1 -6.95 Q74.1 -9.95 73.2 -13.95 L72.35 -16.55 71.9 -18.9 Q69.35 -19.75 67.45 -21.75 L66.3 -23.0 66.05 -23.3 Q64.75 -25.4 64.45 -28.1 65.15 -26.0 66.45 -24.4 68.6 -21.7 72.35 -20.65 L79.95 -20.35 79.1 -17.35 Q75.55 -18.5 71.95 -18.9 L71.9 -18.9 71.95 -18.9 Q75.55 -18.5 79.1 -17.35 L77.3 -10.3 Q75.5 -9.25 74.2 -6.95 L74.1 -6.95 M91.8 -11.6 L94.25 -11.4 Q99.75 -11.35 103.55 -15.1 106.3 -17.7 107.2 -21.15 106.3 -17.7 103.55 -15.1 99.75 -11.35 94.25 -11.4 L91.8 -11.6" fill="#5b7942" fill-rule="evenodd" stroke="none"/>
    <path d="M105.05 -6.5 L105.4 -6.55 Q107.55 -3.6 106.75 -0.2 L105.9 -0.05 96.45 0.65 88.2 1.0 84.6 1.0 79.0 0.65 75.45 0.0 Q73.85 -0.4 72.75 -0.9 L72.75 -1.0 72.75 -1.1 Q71.6 -3.7 73.9 -6.65 L74.1 -6.55 76.35 -5.95 80.25 -5.25 85.9 -5.05 89.85 -5.05 92.0 -5.1 105.05 -6.5" fill="#725043" fill-rule="evenodd" stroke="none"/>
    <path d="M84.8 16.25 L84.8 16.35 84.75 16.25 84.8 16.25" fill="#d7acac" fill-rule="evenodd" stroke="none"/>
    <path d="M75.45 -75.8 L75.35 -76.05 Q74.9 -76.95 74.2 -76.9 73.5 -76.95 73.05 -76.05 72.55 -75.15 72.55 -73.8 72.55 -72.5 73.05 -71.55 72.25 -72.5 71.8 -73.9 72.95 -79.5 75.35 -76.6 L75.45 -75.8 M74.05 -70.65 L74.2 -70.65 Q74.75 -70.65 75.15 -71.15 L74.9 -70.15 74.05 -70.65 M75.15 -74.6 L75.0 -74.35 Q74.75 -74.05 74.45 -74.05 74.05 -74.05 73.8 -74.35 73.5 -74.65 73.5 -75.05 L73.65 -75.5 73.8 -75.75 Q74.05 -76.05 74.45 -76.05 L75.0 -75.75 75.3 -75.05 75.15 -74.6 M83.35 -72.5 L83.5 -72.7 Q83.85 -73.05 84.4 -73.05 L85.2 -72.7 85.6 -71.85 85.35 -71.15 85.2 -71.0 Q84.85 -70.65 84.4 -70.65 83.85 -70.65 83.5 -71.0 83.15 -71.4 83.2 -71.85 L83.35 -72.5 M81.85 -71.95 L81.65 -70.3 Q81.65 -68.75 82.35 -67.6 L82.55 -67.2 80.95 -67.85 Q81.2 -70.15 81.85 -71.95 M84.9 -66.85 L85.6 -67.6 Q86.2 -68.75 86.2 -70.3 86.2 -71.95 85.6 -73.05 87.65 -71.5 87.85 -67.35 86.5 -66.8 84.9 -66.85 M83.1 -73.9 Q82.65 -73.6 82.35 -73.05 L82.8 -73.9 83.1 -73.9" fill="#ffffff" fill-rule="evenodd" stroke="none"/>
    <path d="M73.05 -71.55 Q72.55 -72.5 72.55 -73.8 72.55 -75.15 73.05 -76.05 73.5 -76.95 74.2 -76.9 74.9 -76.95 75.35 -76.05 L75.45 -75.8 75.5 -73.55 75.15 -71.15 Q74.75 -70.65 74.2 -70.65 L74.05 -70.65 Q73.45 -70.75 73.05 -71.55 M73.65 -75.5 L73.45 -75.2 Q73.1 -74.65 73.1 -73.9 73.1 -73.05 73.45 -72.5 73.75 -71.9 74.2 -71.85 74.6 -71.9 74.9 -72.5 L75.2 -73.8 75.15 -74.6 75.3 -75.05 75.0 -75.75 74.45 -76.05 Q74.05 -76.05 73.8 -75.75 L73.65 -75.5 M85.35 -71.15 L85.6 -71.85 85.2 -72.7 84.4 -73.05 Q83.85 -73.05 83.5 -72.7 L83.35 -72.5 82.9 -72.0 Q82.4 -71.35 82.4 -70.4 82.4 -69.4 82.9 -68.7 83.35 -68.0 83.95 -68.0 84.55 -68.0 84.95 -68.7 85.4 -69.4 85.45 -70.3 L85.35 -71.15 M81.85 -71.95 L82.35 -73.05 Q82.65 -73.6 83.1 -73.9 84.55 -73.8 85.6 -73.05 86.2 -71.95 86.2 -70.3 86.2 -68.75 85.6 -67.6 L84.9 -66.85 82.55 -67.2 82.35 -67.6 Q81.65 -68.75 81.65 -70.3 L81.85 -71.95" fill="#2c7bfe" fill-rule="evenodd" stroke="none"/>
    <path d="M73.65 -75.5 L73.5 -75.05 Q73.5 -74.65 73.8 -74.35 74.05 -74.05 74.45 -74.05 74.75 -74.05 75.0 -74.35 L75.15 -74.6 75.2 -73.8 74.9 -72.5 Q74.6 -71.9 74.2 -71.85 73.75 -71.9 73.45 -72.5 73.1 -73.05 73.1 -73.9 73.1 -74.65 73.45 -75.2 L73.65 -75.5 M85.35 -71.15 L85.45 -70.3 Q85.4 -69.4 84.95 -68.7 84.55 -68.0 83.95 -68.0 83.35 -68.0 82.9 -68.7 82.4 -69.4 82.4 -70.4 82.4 -71.35 82.9 -72.0 L83.35 -72.5 83.2 -71.85 Q83.15 -71.4 83.5 -71.0 83.85 -70.65 84.4 -70.65 84.85 -70.65 85.2 -71.0 L85.35 -71.15" fill="#000000" fill-rule="evenodd" stroke="none"/>
    <path d="M75.15 -71.15 L75.5 -73.55 75.65 -72.5 75.75 -70.15 74.9 -70.15 75.15 -71.15" fill="#efc8a0" fill-rule="evenodd" stroke="none"/>
    <path d="M71.25 -77.65 L71.35 -75.75 Q68.15 -82.05 71.2 -84.2 68.45 -83.45 65.2 -80.95 65.9 -84.9 75.75 -95.7 75.0 -97.25 71.55 -95.7 75.7 -99.35 79.4 -99.5 82.95 -104.1 88.7 -104.65 91.35 -104.5 92.0 -102.9 102.4 -108.35 109.75 -89.2 109.35 -84.4 108.1 -80.7 106.45 -75.9 103.4 -73.1 L103.0 -72.8 Q101.7 -74.65 99.15 -72.1 L99.15 -70.4 99.0 -67.05 Q97.35 -72.25 95.05 -75.95 93.05 -79.2 90.55 -81.4 87.0 -81.4 83.65 -78.75 83.45 -81.7 85.5 -84.2 81.9 -82.0 80.3 -76.05 79.25 -76.4 78.45 -81.1 77.0 -77.55 76.9 -75.05 76.15 -76.15 75.75 -77.85 L75.5 -78.85 75.2 -81.85 Q72.2 -81.4 71.5 -79.0 L71.5 -78.9 Q71.3 -78.35 71.25 -77.65" fill="#d59e8a" fill-rule="evenodd" stroke="none"/>
    <path d="M71.5 -78.9 L71.5 -79.0 Q73.85 -80.4 75.5 -78.85 L75.75 -77.85 Q73.45 -79.3 71.5 -78.9 M103.0 -72.8 L103.4 -73.1 Q106.45 -75.9 108.1 -80.7 109.35 -84.4 109.75 -89.2 L111.55 -84.05 Q115.9 -77.55 118.45 -77.6 115.75 -76.0 113.3 -77.2 115.85 -73.25 118.5 -70.0 L113.4 -71.5 Q106.3 -68.0 114.0 -67.0 107.75 -63.1 100.3 -63.5 L100.55 -63.8 101.0 -64.5 Q103.35 -67.95 103.65 -70.25 103.7 -71.4 103.3 -72.25 L103.0 -72.8 M80.3 -76.05 Q85.05 -79.05 90.55 -75.35 86.25 -77.05 80.3 -76.05" fill="#a4756b" fill-rule="evenodd" stroke="none"/>
    <path d="M97.65 -67.2 L98.2 -67.2 97.75 -67.2 97.65 -67.2" fill="#dec8b7" fill-rule="evenodd" stroke="none"/>
    <path d="M100.55 -63.8 Q99.9 -63.3 99.35 -62.25 L99.15 -61.95 Q98.9 -57.25 99.7 -52.9 M114.55 -44.2 L117.4 -42.45 117.4 -42.1 Q120.6 -40.05 122.7 -35.85 124.1 -32.9 124.4 -30.1 L124.4 -27.5 124.3 -26.15 131.65 -0.2 133.7 6.45 M133.55 6.65 Q135.1 9.4 136.8 14.35 L139.05 44.45 139.4 46.35 139.25 47.0 139.25 47.2 M139.2 47.25 L137.55 54.15 136.65 58.2 135.4 59.2 135.15 60.35 134.25 60.05 126.65 57.0 126.5 57.0 126.7 54.6 124.25 49.1 125.8 46.0 128.95 39.9 132.15 39.5 Q129.7 29.45 126.35 20.7 125.3 15.6 126.25 10.15 L126.5 8.45 118.2 -14.25 114.8 -23.4 114.65 -23.55 112.95 -25.15 112.75 -24.8 M114.5 42.75 Q114.6 51.7 113.9 63.65 M93.1 63.65 Q92.6 56.2 92.8 48.25 L92.8 47.5 92.95 43.15 93.0 42.15 M85.45 41.6 L84.65 46.95 M63.4 63.65 Q62.9 50.55 64.75 36.25 M66.05 -23.3 L62.25 -11.45 60.5 -5.4 60.65 -4.1 60.65 -3.95 Q61.3 0.7 60.05 5.1 55.85 13.5 52.75 23.15 54.55 23.0 56.25 23.8 L57.8 29.45 58.5 32.3 55.15 36.95 54.85 39.1 54.75 39.1 47.4 41.15 46.45 41.35 46.55 40.35 45.6 39.35 45.6 35.65 45.6 28.6 45.8 28.2 49.9 -0.05 Q51.35 -3.5 52.75 -5.7 L53.45 -6.9 59.8 -32.0 60.7 -35.6 Q60.2 -36.95 60.05 -38.95 59.7 -41.7 61.5 -45.9 63.2 -50.1 66.15 -52.35 L67.0 -52.9 Q68.4 -53.75 69.7 -53.8 M69.7 -53.9 L77.4 -54.75 M77.6 -54.75 L73.1 -61.8 71.4 -72.25 71.4 -76.6 71.25 -77.65 M75.45 -75.8 L75.35 -76.6 Q72.95 -79.5 71.8 -73.9 72.25 -72.5 73.05 -71.55 73.45 -70.75 74.05 -70.65 L74.9 -70.15 75.15 -71.15 75.5 -73.55 75.45 -75.8 M75.75 -70.15 L75.65 -72.5 75.5 -73.55 M75.75 -70.15 L75.5 -68.45 Q75.25 -67.15 74.6 -66.2 74.35 -64.05 76.5 -64.75 M77.6 -54.75 L78.45 -53.45 81.25 -53.8 81.7 -53.9 84.35 -54.35 Q90.65 -55.75 94.05 -58.0 L95.05 -58.7 99.15 -61.95 M64.9 -35.15 Q65.55 -37.5 67.6 -40.65 L68.8 -42.45 Q69.0 -43.7 68.6 -48.7 M64.6 -33.2 Q64.6 -34.1 64.9 -35.15 M99.9 -69.45 Q100.45 -70.7 101.55 -71.4 M99.9 -69.45 L99.35 -67.85 99.35 -67.55 100.4 -67.35 Q100.85 -66.95 100.75 -65.75 M82.35 -73.05 L81.85 -71.95 Q81.2 -70.15 80.95 -67.85 L82.55 -67.2 84.9 -66.85 Q86.5 -66.8 87.85 -67.35 87.65 -71.5 85.6 -73.05 84.55 -73.8 83.1 -73.9 M82.35 -73.05 L82.8 -73.9 83.1 -73.9 M81.25 -53.75 L81.7 -53.9 M84.35 -54.35 L83.2 -51.2 M117.4 -42.1 L117.1 -42.35 Q114.65 -44.0 112.55 -43.65 L111.05 -43.2 110.35 -42.8 Q109.35 -42.1 108.8 -40.95 L108.5 -40.2 M112.95 -25.15 Q111.55 -26.65 110.45 -28.65 M75.35 -62.1 Q77.6 -59.65 82.4 -59.3 M132.15 39.5 L133.7 46.65 M139.05 44.45 L139.25 47.0 M130.5 51.5 L126.7 54.6 M130.6 51.45 L130.5 51.5 M130.65 51.65 L130.6 51.45 M52.45 33.95 L52.35 33.85 52.3 34.1 M55.15 36.95 L52.45 33.95 M52.75 23.15 L51.3 27.95" fill="none" stroke="#d7995e" stroke-linecap="round" stroke-linejoin="round" stroke-width="0.05"/>
    <path d="M105.05 -6.5 L105.4 -6.55 Q107.55 -3.6 106.75 -0.2 L105.9 -0.05 M110.9 15.35 L112.05 21.4 M92.1 38.65 L87.6 38.8 87.35 38.8 M84.65 46.95 L84.75 63.65 M66.9 19.6 L66.9 19.55 Q66.55 17.35 66.9 14.95 L67.7 11.0 Q69.65 4.3 72.75 -1.0 L72.75 -0.9 Q73.85 -0.4 75.45 0.0 L79.0 0.65 84.6 1.0 88.2 1.0 96.45 0.65 105.9 -0.05 M72.75 -1.1 Q71.6 -3.7 73.9 -6.65 L74.1 -6.55 M80.25 -5.25 L76.35 -5.95 74.1 -6.55 M80.25 -5.25 L85.9 -5.05 89.85 -5.05 M92.0 -5.1 L105.05 -6.5 M92.0 -5.1 L89.85 -5.05 M84.5 32.0 L84.6 38.1 86.6 38.75 87.2 38.8 87.35 38.8 M81.5 17.3 L81.15 63.65 M84.5 32.0 L84.4 16.6 84.25 16.25 M84.6 41.15 L84.65 46.95 M84.6 41.15 L84.6 38.45 84.6 38.1 M84.6 38.45 L86.6 38.75 M71.65 63.65 Q72.3 50.55 73.9 36.95 L74.8 29.2 76.75 16.2 M70.65 36.55 L71.95 26.25 73.75 15.6 M70.65 36.55 Q69.1 50.3 69.0 63.65" fill="none" stroke="#25233d" stroke-linecap="round" stroke-linejoin="round" stroke-width="0.05"/>
    <path d="M112.05 21.4 Q115.05 31.55 116.35 43.25 L114.5 42.75 M93.0 42.15 L92.1 42.3 92.1 38.65 92.15 33.7 M87.35 38.8 L86.85 42.3 85.45 41.6 85.05 41.35 84.6 41.15 M64.75 36.25 L64.6 36.25 63.65 36.25 66.9 19.6 M96.2 41.5 L93.0 42.15 M106.25 41.05 L114.5 42.75 M106.25 41.05 L96.2 41.5 M64.75 36.25 L67.75 36.35 70.65 36.55" fill="none" stroke="#000000" stroke-linecap="round" stroke-linejoin="round" stroke-width="0.05"/>
    <path d="M99.7 -52.9 L103.1 -55.6 Q105.95 -57.1 106.75 -54.2 110.95 -51.25 111.3 -48.8 114.75 -49.2 114.55 -44.2 M79.1 -17.35 L79.95 -20.35 M77.3 -10.3 L79.1 -17.35 M76.35 -5.95 L77.3 -10.3 M99.7 -52.9 L97.05 -50.5 Q91.6 -45.25 87.45 -37.95 83.05 -30.3 79.95 -20.35 M106.75 -54.2 Q104.6 -53.15 102.65 -51.5 L100.85 -50.0 Q99.25 -48.5 97.75 -46.6 L94.95 -42.75 Q88.9 -33.8 84.05 -18.9 L83.05 -15.7 81.8 -11.3 Q80.95 -8.45 80.25 -5.25 M85.9 -5.05 L86.9 -9.15 87.9 -12.95 88.85 -16.0 Q92.55 -28.25 97.15 -36.0 100.95 -42.45 105.4 -45.75 L108.65 -47.8 111.3 -48.8 M112.55 -43.65 L114.55 -44.05 114.55 -44.2 M110.35 -42.8 Q107.35 -41.3 104.55 -38.0 M89.85 -5.05 L90.3 -6.65 91.8 -11.6 92.7 -14.45 Q96.5 -25.65 100.7 -32.6 102.6 -35.75 104.55 -38.0 M84.6 1.0 L81.95 15.35 81.8 16.6 81.65 17.35 M84.75 16.25 L84.9 15.4 Q86.5 7.7 88.2 1.0 M84.8 16.25 L84.75 16.25 M76.85 16.2 L76.9 15.6 77.0 14.8 Q77.85 7.15 79.0 0.65 M73.95 15.65 L74.05 14.9 74.1 14.1 Q74.55 6.4 75.45 0.0" fill="none" stroke="#2e3f31" stroke-linecap="round" stroke-linejoin="round" stroke-width="0.05"/>
    <path d="M112.75 -24.8 L110.9 -20.2 110.3 -18.75 Q108.1 -14.25 105.65 -10.6 105.05 -8.5 105.05 -6.5 M105.9 -0.05 L106.75 1.7 Q110.0 8.05 111.15 15.25 M72.75 -1.0 L72.75 -1.1 M74.1 -6.55 L74.1 -6.95 Q74.1 -9.95 73.2 -13.95 L72.35 -16.55 71.9 -18.9 Q69.35 -19.75 67.45 -21.75 L66.3 -23.0 66.05 -23.3 M64.45 -28.1 L64.35 -30.1 Q64.35 -31.8 64.6 -33.2 L77.4 -54.75 M64.45 -28.1 Q64.75 -25.4 66.05 -23.3 M79.1 -17.35 Q75.55 -18.5 71.95 -18.9 L71.9 -18.9 M74.1 -6.95 L74.2 -6.95 M81.25 -53.8 L81.25 -53.75 Q78.65 -42.7 81.85 -35.7 84.8 -36.7 87.45 -37.95 M104.55 -38.0 Q103.75 -25.9 107.2 -21.15 108.45 -19.45 110.3 -18.75 M107.2 -21.15 Q106.3 -17.7 103.55 -15.1 99.75 -11.35 94.25 -11.4 L91.8 -11.6" fill="none" stroke="#854343" stroke-linecap="round" stroke-linejoin="round" stroke-width="0.05"/>
    <path d="M77.4 -54.75 L77.6 -54.75" fill="none" stroke="#594f79" stroke-linecap="round" stroke-linejoin="round" stroke-width="0.05"/>
    <path d="M109.75 -89.2 Q102.4 -108.35 92.0 -102.9 91.35 -104.5 88.7 -104.65 82.95 -104.1 79.4 -99.5 75.7 -99.35 71.55 -95.7 75.0 -97.25 75.75 -95.7 65.9 -84.9 65.2 -80.95 68.45 -83.45 71.2 -84.2 68.15 -82.05 71.35 -75.75 L71.25 -77.65 Q71.3 -78.35 71.5 -78.9 L71.5 -79.0 Q72.2 -81.4 75.2 -81.85 L75.5 -78.85 75.75 -77.85 Q76.15 -76.15 76.9 -75.05 77.0 -77.55 78.45 -81.1 79.25 -76.4 80.3 -76.05 81.9 -82.0 85.5 -84.2 83.45 -81.7 83.65 -78.75 87.0 -81.4 90.55 -81.4 93.05 -79.2 95.05 -75.95 97.35 -72.25 99.0 -67.05 L99.15 -70.4 99.15 -72.1 Q101.7 -74.65 103.0 -72.8 M109.75 -89.2 L111.55 -84.05 Q115.9 -77.55 118.45 -77.6 115.75 -76.0 113.3 -77.2 115.85 -73.25 118.5 -70.0 L113.4 -71.5 Q106.3 -68.0 114.0 -67.0 107.75 -63.1 100.3 -63.5 L100.55 -63.8 101.0 -64.5 Q103.35 -67.95 103.65 -70.25 103.7 -71.4 103.3 -72.25 L103.0 -72.8 M75.75 -77.85 Q73.45 -79.3 71.5 -78.9 M75.5 -78.85 Q73.85 -80.4 71.5 -79.0 M80.3 -76.05 Q86.25 -77.05 90.55 -75.35 85.05 -79.05 80.3 -76.05" fill="none" stroke="#803f2f" stroke-linecap="round" stroke-linejoin="round" stroke-width="0.05"/>
  </g>
</svg>
