<?xml version="1.0" encoding="UTF-8" standalone="no"?>
<svg xmlns:xlink="http://www.w3.org/1999/xlink" height="223.9px" width="108.7px" xmlns="http://www.w3.org/2000/svg">
  <g transform="matrix(1, 0, 0, 1, -47.75, 114.25)">
    <path d="M78.4 -75.8 L78.5 -75.7 78.15 -79.25 77.95 -84.6 77.95 -84.9 Q78.15 -87.95 78.85 -90.7 L78.85 -90.75 79.25 -91.1 82.4 -91.05 Q83.65 -90.2 85.3 -87.95 85.3 -83.0 87.15 -79.35 87.1 -84.65 90.65 -87.8 93.0 -84.2 95.7 -81.4 92.05 -82.45 89.05 -78.4 93.4 -80.7 96.9 -80.25 99.35 -77.9 102.05 -76.35 L101.85 -76.3 104.35 -65.85 102.0 -58.8 Q99.5 -56.05 86.5 -50.7 85.1 -51.5 84.0 -53.2 L83.2 -54.55 84.0 -53.2 83.8 -52.3 83.85 -52.05 83.85 -51.95 84.1 -51.35 Q84.7 -49.9 85.4 -48.8 L104.3 -48.85 Q106.0 -49.85 107.4 -50.45 103.1 -43.9 99.4 -37.15 93.7 -36.35 85.2 -38.25 77.8 -41.6 78.9 -53.55 L80.65 -52.9 Q81.6 -53.95 83.2 -54.55 L82.95 -55.2 Q82.35 -56.45 81.9 -57.95 80.1 -63.55 79.4 -67.6 78.7 -71.0 78.4 -75.8 M108.15 -74.95 L108.75 -75.8 Q109.7 -77.0 111.05 -77.25 112.85 -77.8 113.45 -75.6 114.05 -73.5 113.7 -71.4 L113.5 -70.1 Q113.1 -72.45 111.0 -73.45 L110.0 -72.3 109.6 -71.55 Q107.7 -71.2 107.45 -72.6 L107.5 -73.3 107.6 -73.45 107.8 -74.1 108.15 -74.95 M78.9 -76.75 Q79.25 -75.55 79.75 -74.65 L80.65 -73.45 Q81.35 -72.65 82.35 -72.15 82.75 -74.35 82.8 -76.5 L82.6 -80.35 Q80.1 -83.9 78.9 -77.55 L78.85 -76.95 78.9 -76.75 M52.1 -0.35 L52.3 -1.25 52.1 -0.35 M51.2 41.55 L47.75 9.9 47.95 5.3 Q49.95 1.85 51.65 -0.45 L52.15 -1.1 52.3 -1.25 53.1 -5.85 Q60.35 -6.7 63.5 -3.45 L64.9 -1.4 65.3 -0.5 65.4 -0.85 65.5 -0.7 Q67.85 2.35 68.1 7.1 68.3 11.6 66.55 17.8 65.2 22.3 64.2 27.45 63.25 32.25 62.6 37.6 61.9 42.2 61.6 47.25 61.9 42.2 62.6 37.6 65.65 37.65 68.7 38.95 L69.05 39.75 68.65 44.3 68.05 51.9 65.35 51.75 62.5 53.8 62.25 54.05 59.7 56.15 52.35 64.6 52.15 64.6 52.05 63.0 50.3 61.35 49.4 44.9 Q50.2 42.9 51.2 41.55 L52.05 49.1 51.2 41.55 M64.1 4.25 L65.3 -0.5 64.1 4.25 M91.9 -68.15 Q94.45 -67.6 96.45 -68.7 96.0 -76.75 90.8 -76.95 89.25 -73.95 88.95 -69.25 90.3 -68.55 91.65 -68.25 L91.9 -68.15 M82.8 -76.5 Q83.4 -72.85 83.05 -70.3 82.85 -68.35 82.1 -67.05 82.85 -68.35 83.05 -70.3 83.4 -72.85 82.8 -76.5 M82.1 -67.05 L82.1 -66.2 Q82.2 -64.5 84.1 -65.2 83.4 -65.6 82.8 -66.2 L82.1 -67.05 M91.0 -57.3 Q87.3 -58.35 85.2 -59.55 83.85 -60.2 83.15 -60.9 83.85 -60.2 85.2 -59.55 87.3 -58.35 91.0 -57.3 M152.9 11.9 L154.35 17.05 154.15 17.15 154.85 17.75 155.3 19.55 155.55 20.25 Q156.1 23.1 156.45 27.1 L154.75 31.3 138.55 58.65 138.75 62.5 131.1 77.1 128.85 77.9 128.75 78.1 128.05 79.3 127.95 79.25 124.7 68.5 123.25 65.5 123.15 65.15 121.35 62.15 113.7 59.0 115.35 57.35 123.6 49.1 124.5 49.1 Q127.3 49.3 129.8 50.45 L132.5 40.4 134.35 30.75 Q135.25 24.35 137.35 20.3 138.55 18.0 140.15 16.45 L140.65 17.8 Q141.1 16.1 142.25 14.85 L142.65 14.5 Q145.75 11.55 152.9 11.9 M83.45 -80.8 Q82.65 -87.1 78.25 -86.1 81.1 -85.55 83.45 -80.8 M134.6 65.25 L138.55 58.65 134.6 65.25 M126.7 59.6 L129.8 50.45 126.7 59.6 M142.15 22.3 L140.65 17.8 142.15 22.3" fill="#fbdab3" fill-rule="evenodd" stroke="none"/>
    <path d="M77.95 -84.6 L78.15 -79.25 78.5 -75.7 78.4 -75.8 Q64.1 -92.5 75.3 -102.9 86.5 -113.3 91.0 -109.55 98.95 -118.65 111.6 -110.1 124.25 -101.6 122.4 -88.75 120.55 -75.95 118.65 -74.35 L116.1 -72.15 114.45 -68.3 113.05 -67.05 113.75 -70.0 Q114.45 -74.05 113.45 -76.55 111.4 -78.5 109.15 -76.5 L108.75 -75.8 108.15 -74.95 107.5 -73.9 Q104.6 -74.85 102.05 -76.35 99.35 -77.9 96.9 -80.25 L95.7 -81.4 Q93.0 -84.2 90.65 -87.8 87.1 -84.65 87.15 -79.35 85.3 -83.0 85.3 -87.95 83.65 -90.2 82.4 -91.05 L79.25 -91.1 78.85 -90.75 78.7 -90.6 Q78.5 -90.4 78.05 -86.8 L77.95 -84.6" fill="#623c3c" fill-rule="evenodd" stroke="none"/>
    <path d="M78.9 -76.75 L78.9 -77.55 Q80.1 -83.9 82.6 -80.35 L82.8 -76.5 Q82.75 -74.35 82.35 -72.15 81.35 -72.65 80.65 -73.45 L80.95 -73.4 Q81.6 -73.4 82.15 -74.45 82.65 -75.55 82.75 -77.0 82.8 -78.5 82.4 -79.55 81.95 -80.7 81.3 -80.65 80.65 -80.7 80.1 -79.55 79.6 -78.5 79.5 -77.0 79.45 -75.6 79.75 -74.65 79.25 -75.55 78.9 -76.75 M80.7 -78.9 L80.9 -79.3 Q81.15 -79.7 81.5 -79.7 81.9 -79.7 82.15 -79.3 L82.3 -78.5 82.15 -78.0 82.1 -77.8 82.1 -77.65 81.4 -77.25 80.85 -77.65 Q80.55 -78.05 80.55 -78.5 80.55 -78.8 80.7 -78.9 M93.5 -73.2 L93.3 -72.85 Q92.95 -72.5 92.5 -72.5 91.95 -72.5 91.7 -72.85 91.35 -73.25 91.35 -73.85 L91.55 -74.35 91.75 -74.7 Q92.1 -75.1 92.55 -75.1 93.0 -75.1 93.35 -74.7 L93.7 -73.85 93.5 -73.2 M91.9 -68.15 L92.05 -68.15 Q92.9 -68.15 93.55 -69.3 94.15 -70.55 94.2 -72.2 94.35 -73.95 93.8 -75.15 93.2 -76.35 92.35 -76.3 91.5 -76.35 90.85 -75.15 90.2 -73.95 90.1 -72.2 90.0 -70.55 90.6 -69.3 91.0 -68.45 91.65 -68.25 90.3 -68.55 88.95 -69.25 89.25 -73.95 90.8 -76.95 96.0 -76.75 96.45 -68.7 94.45 -67.6 91.9 -68.15" fill="#ffffff" fill-rule="evenodd" stroke="none"/>
    <path d="M58.3 -49.7 L58.15 -49.55 58.15 -49.65 58.3 -49.7 M145.15 -35.5 L145.15 -35.3 145.05 -35.5 145.15 -35.5" fill="#bec5d8" fill-rule="evenodd" stroke="none"/>
    <path d="M71.15 -53.8 L71.35 -53.95 72.4 -54.15 73.5 -54.35 73.8 -54.4 75.15 -54.55 75.55 -54.6 75.8 -54.65 75.8 -54.6 75.9 -54.65 76.0 -54.65 Q75.15 -50.7 75.35 -47.15 76.0 -37.45 85.7 -34.5 91.75 -32.6 97.35 -33.3 82.65 -5.0 77.85 26.0 76.1 25.05 74.85 24.1 L73.5 22.95 72.8 22.1 71.25 20.05 71.15 19.55 70.9 18.85 Q68.3 15.1 71.1 -9.25 L71.4 -12.05 71.4 -12.45 Q68.9 -15.85 67.65 -18.05 L66.95 -19.3 66.6 -19.95 66.6 -20.0 66.55 -20.0 65.0 -23.5 64.7 -23.35 60.85 -23.1 60.55 -23.15 60.25 -23.3 59.6 -23.55 59.15 -23.75 58.95 -23.9 Q57.65 -24.6 56.8 -25.6 55.9 -26.55 55.55 -27.65 L55.4 -29.55 55.55 -31.95 Q55.7 -34.55 56.6 -37.2 L57.5 -39.75 Q60.35 -46.95 65.6 -50.7 68.2 -52.75 70.75 -53.2 L70.9 -53.4 71.15 -53.8 M63.9 -27.3 Q64.3 -25.4 65.0 -23.5 64.3 -25.4 63.9 -27.3 M129.25 -39.6 L128.85 -37.0 129.0 -37.05 132.4 -37.4 Q134.8 -37.15 137.35 -35.6 142.9 -32.55 146.0 -25.65 L147.05 -23.25 Q147.85 -20.6 148.15 -18.05 L148.35 -15.7 148.25 -13.8 Q147.65 -12.15 146.4 -10.9 L144.7 -9.6 144.5 -9.4 144.0 -9.15 143.35 -8.8 143.05 -8.6 142.7 -8.45 138.7 -8.3 136.2 -8.8 Q135.4 -9.05 134.65 -9.45 134.2 -9.65 133.8 -9.9 130.2 -12.1 127.1 -16.9 L125.75 -19.1 123.9 -22.85 122.35 -26.6 122.0 -27.65 121.8 -28.0 121.8 -27.6 Q121.35 -24.3 121.9 -21.25 122.4 -17.85 124.0 -14.35 L124.2 -14.0 124.7 -12.9 121.5 5.35 Q119.25 9.65 116.4 13.6 L118.0 24.75 Q116.35 28.55 114.05 30.05 L112.85 30.25 112.6 30.35 111.85 30.45 Q106.65 30.95 95.2 30.2 L93.2 30.05 91.0 29.85 93.2 30.05 91.5 30.0 91.0 29.95 91.0 29.85 Q104.7 -15.15 129.2 -39.65 L129.25 -39.6" fill="#887ba2" fill-rule="evenodd" stroke="none"/>
    <path d="M75.9 -54.65 L75.8 -54.6 75.8 -54.65 75.9 -54.65" fill="#c1a49d" fill-rule="evenodd" stroke="none"/>
    <path d="M79.05 -55.0 L79.05 -54.95 78.9 -53.55 Q77.8 -41.6 85.2 -38.25 93.7 -36.35 99.4 -37.15 L97.35 -33.3 Q91.75 -32.6 85.7 -34.5 76.0 -37.45 75.35 -47.15 75.15 -50.7 76.0 -54.65 L79.05 -55.0 M66.6 -19.95 L66.6 -19.85 66.55 -20.0 66.6 -19.95 66.55 -20.0 66.6 -20.0 66.6 -19.95" fill="#fbf8f7" fill-rule="evenodd" stroke="none"/>
    <path d="M82.95 -55.2 L83.2 -54.55 Q81.6 -53.95 80.65 -52.9 L78.9 -53.55 79.05 -54.95 82.95 -55.2 M84.1 -65.2 Q82.2 -64.5 82.1 -66.2 L82.1 -67.05 82.8 -66.2 Q83.4 -65.6 84.1 -65.2" fill="#ffd0ae" fill-rule="evenodd" stroke="none"/>
    <path d="M55.55 -27.65 Q55.9 -26.55 56.8 -25.6 57.65 -24.6 58.95 -23.9 L59.15 -23.75 59.6 -23.55 60.25 -23.3 60.55 -23.15 60.85 -23.1 64.7 -23.35 65.0 -23.5 66.55 -20.0 66.6 -19.85 66.6 -19.95 66.95 -19.3 67.65 -18.05 Q68.9 -15.85 71.4 -12.45 L71.4 -12.05 70.95 -10.45 67.8 -9.45 63.15 -8.8 Q60.15 -8.75 57.35 -9.6 L55.7 -10.25 55.9 -10.8 55.65 -10.3 54.1 -11.1 Q52.55 -11.95 51.2 -13.2 L51.65 -14.2 Q53.35 -17.95 54.55 -23.9 L55.15 -27.7 55.55 -27.65 55.7 -26.05 56.4 -23.55 56.8 -22.6 56.4 -23.55 55.7 -26.05 55.55 -27.65 M129.25 -39.6 L132.4 -37.4 129.0 -37.05 128.85 -37.0 129.25 -39.6 M148.65 -13.9 Q148.9 -11.9 149.3 -10.1 150.6 -4.3 152.45 -0.75 L153.0 0.15 150.3 2.4 148.3 3.65 148.05 3.2 148.25 3.7 146.5 4.55 Q143.7 5.8 140.55 6.15 138.35 6.3 136.1 6.1 L132.35 5.5 130.65 -0.3 130.4 0.35 129.05 3.65 127.6 6.7 127.35 6.7 127.55 6.75 125.95 9.8 125.45 22.15 Q123.7 26.0 121.4 27.45 118.8 29.3 114.05 30.05 116.35 28.55 118.0 24.75 L116.4 13.6 Q119.25 9.65 121.5 5.35 L124.7 -12.9 124.2 -14.0 124.0 -14.35 Q122.4 -17.85 121.9 -21.25 121.35 -24.3 121.8 -27.6 L122.0 -27.65 122.35 -26.6 123.9 -22.85 125.75 -19.1 127.1 -16.9 Q130.2 -12.1 133.8 -9.9 134.2 -9.65 134.65 -9.45 135.4 -9.05 136.2 -8.8 L138.7 -8.3 142.7 -8.45 143.05 -8.6 143.35 -8.8 144.0 -9.15 144.5 -9.4 144.7 -9.6 146.4 -10.9 Q147.65 -12.15 148.25 -13.8 L148.65 -13.9 M130.65 -0.3 L128.55 -7.3 Q126.35 -9.65 124.7 -12.9 126.35 -9.65 128.55 -7.3 L130.0 -5.95 Q130.95 -5.1 132.05 -4.45 L132.4 -4.2 132.05 -4.45 Q130.95 -5.1 130.0 -5.95 L128.55 -7.3 130.65 -0.3 M147.0 -8.55 L147.2 -8.95 148.05 -12.15 148.25 -13.8 148.05 -12.15 147.2 -8.95 147.0 -8.55 M134.8 -3.05 L134.65 -3.05 134.75 -2.95 134.8 -3.05" fill="#665a7e" fill-rule="evenodd" stroke="none"/>
    <path d="M55.4 -29.55 L55.55 -27.65 55.15 -27.7 55.4 -29.55 M148.35 -15.7 L148.65 -13.9 148.25 -13.8 148.35 -15.7" fill="#a47c73" fill-rule="evenodd" stroke="none"/>
    <path d="M55.65 -10.3 L55.9 -10.8 55.7 -10.25 55.65 -10.3 M148.25 3.7 L148.05 3.2 148.3 3.65 148.25 3.7" fill="#a5bafe" fill-rule="evenodd" stroke="none"/>
    <path d="M102.05 -76.35 Q104.6 -74.85 107.5 -73.9 L108.15 -74.95 107.8 -74.1 107.6 -73.45 107.5 -73.3 107.45 -72.6 Q107.7 -71.2 109.6 -71.55 L110.0 -72.3 111.0 -73.45 Q113.1 -72.45 113.5 -70.1 L113.4 -69.35 113.5 -70.1 113.7 -71.4 Q114.05 -73.5 113.45 -75.6 112.85 -77.8 111.05 -77.25 109.7 -77.0 108.75 -75.8 L109.15 -76.5 Q111.4 -78.5 113.45 -76.55 114.45 -74.05 113.75 -70.0 L113.4 -69.35 113.1 -68.45 112.7 -67.25 112.7 -66.9 112.65 -66.7 112.15 -65.65 111.6 -65.2 109.5 -63.5 105.85 -57.1 Q96.4 -50.05 86.5 -50.7 96.4 -50.05 105.85 -57.1 L109.5 -63.5 111.6 -65.2 111.15 -62.55 111.0 -61.8 Q110.7 -58.7 110.8 -55.65 L107.4 -50.45 Q106.0 -49.85 104.3 -48.85 L85.4 -48.8 Q84.7 -49.9 84.1 -51.35 L83.85 -51.95 83.85 -52.05 83.8 -52.3 84.0 -53.2 Q85.1 -51.5 86.5 -50.7 99.5 -56.05 102.0 -58.8 L104.35 -65.85 101.85 -76.3 102.05 -76.35 M54.1 -11.1 L55.65 -10.3 55.7 -10.25 57.35 -9.6 Q60.15 -8.75 63.15 -8.8 L67.8 -9.45 65.4 -0.85 65.3 -0.5 64.9 -1.4 63.5 -3.45 Q60.35 -6.7 53.1 -5.85 L54.1 -11.1 M110.7 -67.5 L110.35 -68.1 109.1 -69.25 109.25 -69.8 109.6 -71.55 109.25 -69.8 109.1 -69.25 110.35 -68.1 110.7 -67.5 M109.1 -69.25 L109.05 -68.5 108.95 -66.55 109.05 -68.5 109.1 -69.25 M150.3 2.4 L152.9 11.9 Q145.75 11.55 142.65 14.5 L142.25 14.85 Q141.1 16.1 140.65 17.8 L140.15 16.45 136.1 6.1 Q138.35 6.3 140.55 6.15 143.7 5.8 146.5 4.55 L148.25 3.7 148.3 3.65 150.3 2.4 M67.0 62.15 L52.35 64.6 59.7 56.15 62.25 54.05 62.5 53.8 65.35 51.75 68.05 51.9 67.45 58.4 67.0 62.15 M123.15 65.15 L123.25 65.5 124.7 68.5 127.95 79.25 115.35 70.8 115.1 70.75 116.2 67.5 123.15 65.15 116.2 67.5 113.7 59.0 121.35 62.15 123.15 65.15 M62.5 53.8 L67.45 58.4 62.5 53.8" fill="#fac98f" fill-rule="evenodd" stroke="none"/>
    <path d="M79.75 -74.65 Q79.45 -75.6 79.5 -77.0 79.6 -78.5 80.1 -79.55 80.65 -80.7 81.3 -80.65 81.95 -80.7 82.4 -79.55 82.8 -78.5 82.75 -77.0 82.65 -75.55 82.15 -74.45 81.6 -73.4 80.95 -73.4 L80.65 -73.45 79.75 -74.65 M82.15 -78.0 L82.3 -78.5 82.15 -79.3 Q81.9 -79.7 81.5 -79.7 81.15 -79.7 80.9 -79.3 L80.7 -78.9 80.5 -78.6 Q80.1 -78.0 80.1 -77.15 80.05 -76.15 80.35 -75.5 80.65 -74.85 81.05 -74.85 L81.9 -75.5 82.2 -77.0 82.15 -78.0 M91.55 -74.35 L91.3 -73.95 Q90.85 -73.3 90.8 -72.3 90.7 -71.2 91.1 -70.5 91.5 -69.75 92.1 -69.75 92.6 -69.75 93.1 -70.5 93.5 -71.2 93.55 -72.2 L93.5 -73.2 93.7 -73.85 93.35 -74.7 Q93.0 -75.1 92.55 -75.1 92.1 -75.1 91.75 -74.7 L91.55 -74.35 M91.65 -68.25 Q91.0 -68.45 90.6 -69.3 90.0 -70.55 90.1 -72.2 90.2 -73.95 90.85 -75.15 91.5 -76.35 92.35 -76.3 93.2 -76.35 93.8 -75.15 94.35 -73.95 94.2 -72.2 94.15 -70.55 93.55 -69.3 92.9 -68.15 92.05 -68.15 L91.9 -68.15 91.65 -68.25" fill="#0099ff" fill-rule="evenodd" stroke="none"/>
    <path d="M95.7 -81.4 L96.9 -80.25 Q93.4 -80.7 89.05 -78.4 92.05 -82.45 95.7 -81.4 M83.45 -80.8 Q81.1 -85.55 78.25 -86.1 82.65 -87.1 83.45 -80.8" fill="#9b5e5e" fill-rule="evenodd" stroke="none"/>
    <path d="M82.15 -78.0 L82.2 -77.0 81.9 -75.5 81.05 -74.85 Q80.65 -74.85 80.35 -75.5 80.05 -76.15 80.1 -77.15 80.1 -78.0 80.5 -78.6 L80.7 -78.9 Q80.55 -78.8 80.55 -78.5 80.55 -78.05 80.85 -77.65 L81.4 -77.25 82.1 -77.65 82.1 -77.8 82.15 -78.0 M91.55 -74.35 L91.35 -73.85 Q91.35 -73.25 91.7 -72.85 91.95 -72.5 92.5 -72.5 92.95 -72.5 93.3 -72.85 L93.5 -73.2 93.55 -72.2 Q93.5 -71.2 93.1 -70.5 92.6 -69.75 92.1 -69.75 91.5 -69.75 91.1 -70.5 90.7 -71.2 90.8 -72.3 90.85 -73.3 91.3 -73.95 L91.55 -74.35" fill="#000000" fill-rule="evenodd" stroke="none"/>
    <path d="M97.35 -33.3 L99.4 -37.15 Q103.1 -43.9 107.4 -50.45 L110.8 -55.65 Q114.25 -57.45 115.2 -54.0 L112.15 -49.45 Q108.95 -44.7 106.15 -39.7 L103.5 -34.95 Q89.0 -8.1 80.45 27.3 L79.05 26.65 78.3 26.25 77.85 26.0 Q82.65 -5.0 97.35 -33.3 M87.6 29.4 Q99.3 -16.3 124.25 -42.95 L126.5 -45.3 Q129.7 -44.65 129.25 -39.7 L129.2 -39.65 Q104.7 -15.15 91.0 29.85 L87.6 29.4 M87.6 39.45 L90.7 40.1 91.65 40.2 90.65 56.3 88.95 84.7 Q88.15 83.5 87.35 82.9 86.15 82.05 85.05 82.5 L87.6 39.45 M75.05 76.4 L74.5 76.55 73.0 75.45 74.15 45.45 74.55 34.5 Q76.3 35.55 78.4 36.45 L75.05 76.4" fill="#ccaf6f" fill-rule="evenodd" stroke="none"/>
    <path d="M80.45 27.3 Q89.0 -8.1 103.5 -34.95 L106.15 -39.7 Q108.95 -44.7 112.15 -49.45 L115.2 -54.0 Q122.65 -50.7 126.5 -45.3 L124.25 -42.95 Q99.3 -16.3 87.6 29.4 89.0 29.7 88.1 29.55 L87.95 29.55 85.85 29.3 84.5 28.8 83.95 28.6 83.85 28.6 82.15 27.95 81.9 27.9 81.75 27.85 80.45 27.3 M83.85 38.35 L87.6 39.45 85.05 82.5 82.35 82.3 Q80.3 81.65 79.25 79.3 77.75 77.1 76.5 76.55 L75.05 76.4 78.4 36.45 Q80.85 37.5 83.85 38.35 M80.15 70.85 L79.25 79.3 80.15 70.85" fill="#65589a" fill-rule="evenodd" stroke="none"/>
    <path d="M121.8 -27.6 L121.8 -28.0 122.0 -27.65 121.8 -27.6" fill="#aeba9e" fill-rule="evenodd" stroke="none"/>
    <path d="M127.6 6.7 L127.55 6.75 127.35 6.7 127.6 6.7" fill="#bb9c8c" fill-rule="evenodd" stroke="none"/>
    <path d="M134.8 -3.05 L134.75 -2.95 134.65 -3.05 134.8 -3.05" fill="#deddb1" fill-rule="evenodd" stroke="none"/>
    <path d="M83.95 28.6 L84.5 28.8 85.85 29.3 87.95 29.55 88.1 29.55 Q89.0 29.7 87.6 29.4 L91.0 29.85 91.0 29.95 91.5 30.0 94.35 30.25 94.4 30.25 95.2 30.2 94.4 30.25 94.35 30.25 91.5 30.0 93.2 30.05 95.2 30.2 Q106.65 30.95 111.85 30.45 L112.6 30.35 112.85 30.25 114.05 30.05 Q118.8 29.3 121.4 27.45 124.8 31.25 123.0 36.15 L121.8 36.75 121.2 37.0 Q113.4 40.5 102.45 40.7 L94.95 40.5 91.65 40.2 90.7 40.1 87.6 39.45 83.85 38.35 Q82.85 35.8 82.75 33.7 82.55 31.05 83.6 29.2 L83.95 28.6 M93.2 30.05 L94.35 30.25 93.2 30.05" fill="#684942" fill-rule="evenodd" stroke="none"/>
    <path d="M100.05 59.7 L100.0 56.35 97.5 56.7 95.15 56.7 94.6 56.7 94.8 64.45 Q94.55 60.05 93.55 56.65 L92.9 56.55 90.85 56.3 90.65 56.3 91.65 40.2 94.95 40.5 102.45 40.7 Q113.4 40.5 121.2 37.0 L121.8 36.75 121.55 38.0 123.2 43.4 124.5 49.1 123.6 49.1 115.35 57.35 Q112.25 56.8 108.5 57.4 104.6 57.95 100.05 59.7 M121.55 38.0 L121.2 37.0 121.55 38.0 M91.5 30.0 L91.0 29.95 91.5 30.0 M94.6 56.7 L93.55 56.65 94.6 56.7 M74.15 45.45 L73.3 43.85 70.6 44.05 68.65 44.3 69.05 39.75 Q69.45 36.35 70.15 33.5 L69.7 30.45 Q71.0 32.0 72.9 33.35 L74.55 34.5 74.15 45.45 M102.45 40.7 Q99.95 46.5 100.0 56.35 99.95 46.5 102.45 40.7 M70.7 36.25 L70.15 33.5 70.7 36.25" fill="#a49cb8" fill-rule="evenodd" stroke="none"/>
    <path d="M80.45 27.3 L81.75 27.85 81.9 27.9 82.15 27.95 83.85 28.6 83.95 28.6 83.6 29.2 Q82.55 31.05 82.75 33.7 82.85 35.8 83.85 38.35 80.85 37.5 78.4 36.45 76.3 35.55 74.55 34.5 L72.9 33.35 Q71.0 32.0 69.7 30.45 L69.15 29.8 Q67.7 23.8 70.0 20.05 L70.35 19.55 70.9 18.85 71.15 19.55 71.25 20.05 72.8 22.1 73.5 22.95 74.85 24.1 Q76.1 25.05 77.85 26.0 L78.3 26.25 79.05 26.65 80.45 27.3" fill="#956c5e" fill-rule="evenodd" stroke="none"/>
    <path d="M128.75 78.1 Q130.3 92.25 132.15 102.75 L131.9 107.35 133.2 109.65 131.7 109.65 99.65 109.65 99.55 109.65 99.55 109.2 Q98.55 105.85 98.8 104.05 L100.25 83.0 Q100.75 76.2 100.05 59.7 104.6 57.95 108.5 57.4 112.25 56.8 115.35 57.35 L113.7 59.0 116.2 67.5 115.1 70.75 115.35 70.8 127.95 79.25 128.05 79.3 128.75 78.1 M94.8 64.45 Q94.65 81.65 95.45 94.05 L95.0 97.2 Q97.3 101.9 99.15 109.65 L60.65 109.65 Q61.25 102.55 62.5 92.45 62.1 89.65 62.6 88.1 L66.25 67.5 67.0 62.15 67.45 58.4 68.05 51.9 68.65 44.3 70.6 44.05 73.3 43.85 74.15 45.45 73.0 75.45 74.5 76.55 75.05 76.4 76.5 76.55 Q77.75 77.1 79.25 79.3 80.3 81.65 82.35 82.3 L85.05 82.5 Q86.15 82.05 87.35 82.9 88.15 83.5 88.95 84.7 L90.65 56.3 90.85 56.3 92.9 56.55 93.55 56.65 Q94.55 60.05 94.8 64.45 M93.7 103.5 L95.0 97.2 93.7 103.5 M99.65 109.65 L99.55 109.2 99.65 109.65 M131.9 107.35 L131.7 109.65 131.9 107.35 M63.35 96.75 Q62.75 94.3 62.5 92.45 62.75 94.3 63.35 96.75" fill="#b4adc5" fill-rule="evenodd" stroke="none"/>
    <path d="M78.4 -75.8 Q78.7 -71.0 79.4 -67.6 80.1 -63.55 81.9 -57.95 82.35 -56.45 82.95 -55.2 L83.2 -54.55 84.0 -53.2 Q85.1 -51.5 86.5 -50.7 96.4 -50.05 105.85 -57.1 L109.5 -63.5 111.6 -65.2 112.15 -65.65 112.65 -66.7 112.7 -66.9 112.7 -67.25 113.1 -68.45 113.4 -69.35 113.5 -70.1 M77.95 -84.6 L77.95 -84.9 Q78.15 -87.95 78.85 -90.7 L78.85 -90.75 M78.9 -76.75 Q79.25 -75.55 79.75 -74.65 M80.65 -73.45 Q81.35 -72.65 82.35 -72.15 82.75 -74.35 82.8 -76.5 L82.6 -80.35 Q80.1 -83.9 78.9 -77.55 L78.85 -76.95 78.9 -76.75 M52.3 -1.25 L52.1 -0.35 M52.3 -1.25 L52.15 -1.1 51.65 -0.45 Q49.95 1.85 47.95 5.3 L47.75 9.9 51.2 41.55 52.05 49.1 M54.1 -11.1 L53.1 -5.85 52.3 -1.25 M65.3 -0.5 L65.4 -0.85 67.8 -9.45 M62.6 37.6 Q63.25 32.25 64.2 27.45 65.2 22.3 66.55 17.8 68.3 11.6 68.1 7.1 67.85 2.35 65.5 -0.7 L65.4 -0.85 M65.3 -0.5 L64.1 4.25 M91.9 -68.15 Q94.45 -67.6 96.45 -68.7 96.0 -76.75 90.8 -76.95 89.25 -73.95 88.95 -69.25 90.3 -68.55 91.65 -68.25 L91.9 -68.15 M80.65 -73.45 L79.75 -74.65 M82.1 -67.05 Q82.85 -68.35 83.05 -70.3 83.4 -72.85 82.8 -76.5 M84.1 -65.2 Q82.2 -64.5 82.1 -66.2 L82.1 -67.05 M83.15 -60.9 Q83.85 -60.2 85.2 -59.55 87.3 -58.35 91.0 -57.3 M111.0 -73.45 L110.0 -72.3 109.6 -71.55 109.25 -69.8 109.1 -69.25 110.35 -68.1 110.7 -67.5 M108.75 -75.8 Q109.7 -77.0 111.05 -77.25 112.85 -77.8 113.45 -75.6 114.05 -73.5 113.7 -71.4 L113.5 -70.1 M107.8 -74.1 L108.15 -74.95 M108.95 -66.55 L109.05 -68.5 109.1 -69.25 M113.4 -69.35 L113.75 -70.0 M150.3 2.4 L152.9 11.9 154.35 17.05 M154.15 17.15 L154.85 17.75 155.3 19.55 155.55 20.25 Q156.1 23.1 156.45 27.1 L154.75 31.3 138.55 58.65 138.75 62.5 131.1 77.1 128.85 77.9 128.75 78.1 M67.0 62.15 L52.35 64.6 52.15 64.6 52.05 63.0 50.3 61.35 49.4 44.9 Q50.2 42.9 51.2 41.55 M124.5 49.1 Q127.3 49.3 129.8 50.45 L132.5 40.4 134.35 30.75 Q135.25 24.35 137.35 20.3 138.55 18.0 140.15 16.45 L136.1 6.1 M140.15 16.45 L140.65 17.8 142.15 22.3 M138.55 58.65 L134.6 65.25 M115.35 57.35 L123.6 49.1 124.5 49.1 M123.25 65.5 L123.15 65.15 116.2 67.5 115.1 70.75 115.35 70.8 127.95 79.25 128.05 79.3 128.75 78.1 M116.2 67.5 L113.7 59.0 115.35 57.35 M129.8 50.45 L126.7 59.6 M62.6 37.6 Q61.9 42.2 61.6 47.25 M69.05 39.75 L68.7 38.95 Q65.65 37.65 62.6 37.6 M62.25 54.05 L62.5 53.8 M67.45 58.4 L62.5 53.8" fill="none" stroke="#d7995e" stroke-linecap="round" stroke-linejoin="round" stroke-width="0.05"/>
    <path d="M78.4 -75.8 L78.5 -75.7 78.15 -79.25 77.95 -84.6 78.05 -86.8 Q78.5 -90.4 78.7 -90.6 L78.85 -90.75 79.25 -91.1 82.4 -91.05 Q83.65 -90.2 85.3 -87.95 85.3 -83.0 87.15 -79.35 87.1 -84.65 90.65 -87.8 93.0 -84.2 95.7 -81.4 L96.9 -80.25 Q99.35 -77.9 102.05 -76.35 104.6 -74.85 107.5 -73.9 L108.15 -74.95 108.75 -75.8 109.15 -76.5 Q111.4 -78.5 113.45 -76.55 114.45 -74.05 113.75 -70.0 L113.05 -67.05 114.45 -68.3 116.1 -72.15 118.65 -74.35 Q120.55 -75.95 122.4 -88.75 M75.3 -102.9 Q64.1 -92.5 78.4 -75.8 M95.7 -81.4 Q92.05 -82.45 89.05 -78.4 93.4 -80.7 96.9 -80.25 M83.45 -80.8 Q81.1 -85.55 78.25 -86.1 82.65 -87.1 83.45 -80.8" fill="none" stroke="#4b2e2e" stroke-linecap="round" stroke-linejoin="round" stroke-width="0.05"/>
    <path d="M75.8 -54.65 L75.55 -54.6 75.15 -54.55 73.8 -54.4 73.5 -54.35 72.4 -54.15 71.35 -53.95 71.15 -53.8 M70.75 -53.2 Q68.2 -52.75 65.6 -50.7 60.35 -46.95 57.5 -39.75 L56.6 -37.2 Q55.7 -34.55 55.55 -31.95 L55.4 -29.55 55.55 -27.65 55.7 -26.05 56.4 -23.55 56.8 -22.6 M65.0 -23.5 Q64.3 -25.4 63.9 -27.3 M76.0 -54.65 L75.9 -54.65 75.8 -54.6 75.8 -54.65 75.9 -54.65 M55.4 -29.55 L55.15 -27.7 54.55 -23.9 Q53.35 -17.95 51.65 -14.2 L51.2 -13.2 Q52.55 -11.95 54.1 -11.1 L55.65 -10.3 M55.7 -10.25 L57.35 -9.6 Q60.15 -8.75 63.15 -8.8 L67.8 -9.45 70.95 -10.45 71.4 -12.05 71.4 -12.45 Q68.9 -15.85 67.65 -18.05 L66.95 -19.3 66.6 -19.95 66.6 -19.85 66.55 -20.0 65.0 -23.5 M66.6 -19.95 L66.55 -20.0 M66.6 -20.0 L66.6 -19.95 M70.9 18.85 Q68.3 15.1 71.1 -9.25 L71.4 -12.05 M55.7 -10.25 L55.65 -10.3 M80.45 27.3 L81.75 27.85 81.9 27.9 82.15 27.95 83.85 28.6 83.95 28.6 84.5 28.8 85.85 29.3 87.95 29.55 88.1 29.55 Q89.0 29.7 87.6 29.4 M132.4 -37.4 L129.25 -39.6 129.2 -39.65 M129.0 -37.05 L132.4 -37.4 Q134.8 -37.15 137.35 -35.6 142.9 -32.55 146.0 -25.65 L147.05 -23.25 Q147.85 -20.6 148.15 -18.05 L148.35 -15.7 148.65 -13.9 Q148.9 -11.9 149.3 -10.1 150.6 -4.3 152.45 -0.75 L153.0 0.15 150.3 2.4 M100.0 56.35 L97.5 56.7 95.15 56.7 94.6 56.7 M93.2 30.05 L95.2 30.2 Q106.65 30.95 111.85 30.45 L112.6 30.35 112.85 30.25 114.05 30.05 M124.7 -12.9 L124.2 -14.0 M148.25 -13.8 L148.35 -15.7 M124.7 -12.9 Q126.35 -9.65 128.55 -7.3 L130.0 -5.95 Q130.95 -5.1 132.05 -4.45 L132.4 -4.2 M128.55 -7.3 L130.65 -0.3 132.35 5.5 136.1 6.1 Q138.35 6.3 140.55 6.15 143.7 5.8 146.5 4.55 L148.25 3.7 148.3 3.65 150.3 2.4 M130.65 -0.3 L130.4 0.35 129.05 3.65 127.6 6.7 127.55 6.75 125.95 9.8 125.45 22.15 Q123.7 26.0 121.4 27.45 118.8 29.3 114.05 30.05 M121.8 36.75 L121.55 38.0 M148.25 -13.8 L148.05 -12.15 147.2 -8.95 147.0 -8.55 M93.2 30.05 L91.5 30.0 M90.65 56.3 L90.85 56.3 92.9 56.55 93.55 56.65 94.6 56.7 M90.65 56.3 L88.95 84.7 Q88.15 83.5 87.35 82.9 86.15 82.05 85.05 82.5 L82.35 82.3 Q80.3 81.65 79.25 79.3 77.75 77.1 76.5 76.55 L75.05 76.4 74.5 76.55 73.0 75.45 74.15 45.45 74.55 34.5 M91.65 40.2 L90.65 56.3 M70.9 18.85 L71.15 19.55 71.25 20.05 72.8 22.1 73.5 22.95 74.85 24.1 Q76.1 25.05 77.85 26.0 M70.15 33.5 L69.7 30.45 M70.15 33.5 L70.7 36.25 M79.25 79.3 L80.15 70.85" fill="none" stroke="#30543c" stroke-linecap="round" stroke-linejoin="round" stroke-width="0.05"/>
    <path d="M79.05 -54.95 L79.05 -55.0 M99.4 -37.15 Q93.7 -36.35 85.2 -38.25 77.8 -41.6 78.9 -53.55 L79.05 -54.95" fill="none" stroke="#cccccc" stroke-linecap="round" stroke-linejoin="round" stroke-width="0.05"/>
    <path d="M79.05 -55.0 L76.0 -54.65" fill="none" stroke="#0f2446" stroke-linecap="round" stroke-linejoin="round" stroke-width="0.05"/>
    <path d="M79.05 -54.95 L82.95 -55.2 M83.85 -51.95 L83.85 -52.05 83.8 -52.3 84.0 -53.2 M110.8 -55.65 Q110.7 -58.7 111.0 -61.8 L111.15 -62.55 111.6 -65.2 M121.4 27.45 Q124.8 31.25 123.0 36.15 L121.8 36.75 121.2 37.0 M83.85 38.35 L87.6 39.45 90.7 40.1 91.65 40.2 94.95 40.5 102.45 40.7 Q113.4 40.5 121.2 37.0 M69.7 30.45 L69.15 29.8 Q67.7 23.8 70.0 20.05 L70.35 19.55 70.9 18.85 M69.7 30.45 Q71.0 32.0 72.9 33.35 L74.55 34.5 Q76.3 35.55 78.4 36.45 80.85 37.5 83.85 38.35" fill="none" stroke="#674743" stroke-linecap="round" stroke-linejoin="round" stroke-width="0.05"/>
    <path d="M97.35 -33.3 L99.4 -37.15 M115.2 -54.0 Q114.25 -57.45 110.8 -55.65 L107.4 -50.45 Q103.1 -43.9 99.4 -37.15 M126.5 -45.3 Q122.65 -50.7 115.2 -54.0 M129.2 -39.65 L129.25 -39.7 Q129.7 -44.65 126.5 -45.3 M129.2 -39.65 Q104.7 -15.15 91.0 29.85 L93.2 30.05 M95.2 30.2 L94.4 30.25 94.35 30.25 91.5 30.0 91.0 29.95 91.0 29.85 87.6 29.4 M94.35 30.25 L93.2 30.05 M77.85 26.0 L78.3 26.25 79.05 26.65 80.45 27.3 M77.85 26.0 Q82.65 -5.0 97.35 -33.3" fill="none" stroke="#2e3f31" stroke-linecap="round" stroke-linejoin="round" stroke-width="0.05"/>
    <path d="M128.75 78.1 Q130.3 92.25 132.15 102.75 L131.9 107.35 133.2 109.65 M99.55 109.65 L99.55 109.2 Q98.55 105.85 98.8 104.05 L100.25 83.0 Q100.75 76.2 100.05 59.7 L100.0 56.35 Q99.95 46.5 102.45 40.7 M94.6 56.7 L94.8 64.45 Q94.65 81.65 95.45 94.05 L95.0 97.2 Q97.3 101.9 99.15 109.65 M60.65 109.65 Q61.25 102.55 62.5 92.45 62.1 89.65 62.6 88.1 L66.25 67.5 67.0 62.15 M121.55 38.0 L123.2 43.4 124.5 49.1 M121.2 37.0 L121.55 38.0 M68.65 44.3 L68.05 51.9 67.45 58.4 67.0 62.15 M131.7 109.65 L131.9 107.35 M99.55 109.2 L99.65 109.65 M95.0 97.2 L93.7 103.5 M68.65 44.3 L69.05 39.75 Q69.45 36.35 70.15 33.5 M62.5 92.45 Q62.75 94.3 63.35 96.75" fill="none" stroke="#564e6d" stroke-linecap="round" stroke-linejoin="round" stroke-width="0.05"/>
  </g>
</svg>
