<?xml version="1.0" encoding="UTF-8" standalone="no"?>
<svg xmlns:xlink="http://www.w3.org/1999/xlink" height="188.8px" width="93.2px" xmlns="http://www.w3.org/2000/svg">
  <g transform="matrix(1, 0, 0, 1, -53.15, 116.15)">
    <path d="M125.85 -41.65 Q127.9 -41.45 130.05 -40.15 134.7 -37.5 137.35 -31.7 138.8 -28.45 139.2 -25.25 L139.35 -23.25 139.25 -21.65 Q138.75 -20.4 137.85 -19.35 L136.25 -18.05 136.05 -17.9 135.1 -17.4 134.55 -17.15 131.15 -16.95 Q129.25 -17.15 127.5 -18.05 L127.0 -18.35 Q123.9 -20.2 121.3 -24.3 118.95 -27.9 116.95 -33.35 L116.85 -33.7 Q117.7 -38.9 121.45 -40.8 L122.9 -41.4 125.85 -41.65 M143.2 -0.05 L144.45 4.35 144.35 4.45 144.9 4.95 145.35 6.45 145.5 7.1 146.35 12.9 145.25 15.55 Q138.7 14.9 134.4 13.25 L132.1 12.3 132.05 12.2 129.95 10.85 129.0 9.8 130.1 7.15 Q131.05 5.25 132.35 3.95 L132.75 5.05 Q133.2 3.55 134.15 2.5 L134.35 2.35 Q136.95 -0.3 143.2 -0.05 M130.95 43.55 L124.75 55.45 122.85 56.1 122.8 56.15 122.15 57.3 122.05 57.25 119.35 48.1 118.05 45.6 117.95 45.3 116.45 42.75 109.95 40.05 111.45 38.6 118.4 31.65 119.25 31.7 Q121.3 31.85 123.2 32.6 L122.8 34.1 Q122.5 35.3 122.5 35.9 L121.5 37.25 Q120.65 38.2 121.05 40.0 L121.1 40.3 121.85 42.25 Q123.55 45.3 128.0 44.95 L128.05 44.95 Q129.65 45.0 130.95 43.55 M57.85 44.95 L57.7 44.95 57.6 43.55 56.15 42.2 55.4 28.45 Q55.9 30.55 57.55 31.25 61.45 33.45 64.25 31.35 L65.75 29.9 65.95 29.65 Q67.0 28.15 66.65 26.95 L66.3 25.3 66.75 23.5 67.0 22.05 Q69.4 22.15 71.75 23.15 L71.95 23.6 71.55 27.65 71.05 34.1 68.9 34.05 66.5 35.75 66.25 35.95 64.1 37.75 57.85 44.95 M54.05 -2.65 L54.15 -5.5 Q55.85 -8.45 57.3 -10.45 L57.7 -10.95 57.75 -11.0 58.45 -15.05 Q64.6 -15.8 67.3 -13.05 L68.5 -11.3 68.8 -10.55 67.8 -6.55 68.8 -10.55 68.9 -10.85 69.05 -10.65 Q71.1 -8.05 71.3 -4.05 L71.2 -1.15 69.9 -0.6 67.4 -0.25 67.35 -0.15 64.85 -0.25 Q60.2 -0.55 54.05 -2.65 M60.55 -33.45 L60.45 -35.05 60.55 -37.05 Q60.85 -40.25 62.25 -43.7 64.7 -49.8 69.15 -53.0 71.35 -54.7 73.45 -55.1 L73.1 -54.55 70.4 -50.35 70.25 -50.0 69.25 -47.85 Q68.7 -45.2 68.55 -42.55 68.05 -36.3 69.25 -30.05 L69.9 -26.95 68.65 -29.85 68.4 -29.8 65.15 -29.55 64.6 -29.75 63.7 -30.15 63.5 -30.25 61.55 -31.8 Q60.9 -32.55 60.55 -33.45 M83.7 -56.8 Q83.2 -57.85 82.85 -59.1 81.35 -63.9 80.7 -67.3 80.05 -70.75 79.75 -75.9 79.35 -81.1 79.5 -82.0 L79.7 -84.2 Q90.85 -84.15 98.35 -81.15 L99.9 -79.75 Q99.9 -77.25 100.2 -74.85 L99.85 -74.7 100.9 -70.05 101.4 -67.85 101.85 -65.8 99.95 -59.85 Q97.9 -53.5 86.75 -53.0 85.6 -53.6 84.7 -54.95 L84.55 -54.35 84.6 -54.15 84.6 -54.05 84.8 -53.6 Q85.3 -52.35 85.9 -51.4 L101.95 -51.45 104.6 -52.8 Q100.95 -47.25 97.85 -41.5 92.95 -40.8 85.75 -42.4 79.45 -45.3 80.35 -55.4 L81.85 -54.85 Q82.65 -55.7 83.95 -56.2 L83.7 -56.8 M80.3 -75.75 L80.2 -75.25 80.25 -75.05 81.15 -73.1 Q81.4 -72.45 81.8 -72.3 L83.25 -71.15 83.6 -74.85 83.45 -78.15 Q81.3 -81.2 80.3 -75.75 M83.0 -66.85 Q83.65 -67.95 83.85 -69.6 84.1 -71.75 83.6 -74.85 84.1 -71.75 83.85 -69.6 83.65 -67.95 83.0 -66.85 82.95 -66.45 83.05 -66.1 83.15 -64.65 84.8 -65.3 L83.6 -66.1 83.0 -66.85 M67.65 -33.15 Q68.0 -31.5 68.65 -29.85 68.0 -31.5 67.65 -33.15 M57.75 -11.0 L57.65 -10.45 57.75 -11.0 M97.15 -77.8 Q92.45 -81.55 88.85 -76.7 93.55 -79.2 97.15 -77.8 M91.4 -67.75 Q93.55 -67.3 95.2 -68.2 94.8 -75.1 90.4 -75.25 89.1 -72.7 88.85 -68.65 L91.0 -67.85 91.4 -67.75 M90.55 -58.55 Q87.45 -59.45 85.7 -60.4 L83.9 -61.65 85.7 -60.4 Q87.45 -59.45 90.55 -58.55 M83.95 -56.2 L84.7 -54.95 83.95 -56.2 M107.55 -72.3 L106.75 -71.3 106.4 -70.65 Q104.75 -70.35 104.55 -71.55 L104.6 -72.15 104.65 -72.3 104.85 -72.8 105.2 -73.55 Q106.05 -75.2 107.6 -75.55 109.1 -75.95 109.65 -74.1 110.1 -72.3 109.85 -70.55 L109.7 -69.45 Q109.35 -71.45 107.55 -72.3 M84.1 -78.75 Q83.45 -84.1 79.7 -83.25 82.1 -82.75 84.1 -78.75 M134.1 8.8 L132.75 5.05 134.1 8.8 M127.75 45.3 L128.0 44.95 127.75 45.3 M57.6 31.7 L57.55 31.25 57.6 31.7" fill="#fbdab3" fill-rule="evenodd" stroke="none"/>
    <path d="M109.7 -68.95 L109.6 -68.8 109.35 -68.0 109.05 -67.0 109.0 -66.7 108.9 -66.55 108.55 -65.65 108.15 -65.3 107.75 -63.1 107.65 -62.4 Q107.4 -59.75 107.5 -57.2 L104.6 -52.8 101.95 -51.45 85.9 -51.4 Q85.3 -52.35 84.8 -53.6 L84.6 -54.05 84.6 -54.15 84.55 -54.35 84.7 -54.95 Q85.6 -53.6 86.75 -53.0 97.9 -53.5 99.95 -59.85 L101.85 -65.8 101.4 -67.85 Q105.3 -80.45 105.95 -75.05 L106.8 -75.75 106.8 -75.7 Q108.2 -76.25 109.6 -75.1 L110.0 -73.5 110.05 -72.9 109.95 -70.8 110.0 -70.75 109.7 -68.95 M123.1 -43.6 L125.85 -41.65 122.9 -41.4 121.45 -40.8 Q117.7 -38.9 116.85 -33.7 L116.8 -33.35 116.95 -33.35 Q118.95 -27.9 121.3 -24.3 123.9 -20.2 127.0 -18.35 L127.5 -18.05 Q129.25 -17.15 131.15 -16.95 L134.55 -17.15 135.1 -17.4 136.05 -17.9 136.25 -18.05 137.85 -19.35 Q138.75 -20.4 139.25 -21.65 L139.05 -20.25 138.35 -17.6 143.2 -0.05 Q136.95 -0.3 134.35 2.35 L134.15 2.5 Q133.2 3.55 132.75 5.05 L132.35 3.95 125.55 -13.6 125.55 -13.65 124.1 -9.65 123.0 -6.85 121.75 -4.3 121.55 -4.3 Q120.05 -4.3 118.7 -5.0 117.8 -5.5 116.95 -6.25 115.55 -7.55 114.4 -9.65 113.85 -26.75 116.75 -36.6 119.8 -40.35 123.1 -43.6 M70.2 42.9 L57.85 44.95 64.1 37.75 66.25 35.95 66.5 35.75 68.9 34.05 71.05 34.1 70.55 39.55 70.2 42.9 M58.45 -15.05 L61.25 -30.15 Q60.95 -31.05 60.8 -32.05 L60.55 -33.45 Q60.9 -32.55 61.55 -31.8 L63.5 -30.25 63.7 -30.15 64.6 -29.75 65.15 -29.55 68.4 -29.8 68.65 -29.85 69.9 -26.95 69.95 -26.8 69.95 -26.9 70.25 -26.35 70.85 -25.25 Q71.4 -24.25 72.3 -22.95 L68.9 -10.85 68.8 -10.55 68.5 -11.3 67.3 -13.05 Q64.6 -15.8 58.45 -15.05 M62.15 -28.2 L61.7 -28.95 61.65 -29.1 61.25 -30.15 61.65 -29.1 61.7 -28.95 62.15 -28.2 M108.15 -65.3 L106.3 -63.85 101.05 -56.0 Q95.8 -51.2 86.75 -53.0 95.8 -51.2 101.05 -56.0 L106.3 -63.85 108.15 -65.3 M100.9 -70.05 L99.85 -74.7 100.2 -74.85 Q100.4 -72.35 100.9 -70.05 M106.4 -70.65 L106.75 -71.3 107.55 -72.3 Q109.35 -71.45 109.7 -69.45 L109.85 -70.55 Q110.1 -72.3 109.65 -74.1 109.1 -75.95 107.6 -75.55 106.05 -75.2 105.2 -73.55 L104.85 -72.8 104.65 -72.3 104.6 -72.15 104.55 -71.55 Q104.75 -70.35 106.4 -70.65 L106.0 -69.2 105.95 -68.65 106.95 -67.8 107.3 -67.25 106.95 -67.8 105.95 -68.65 106.0 -69.2 106.4 -70.65 M109.7 -69.45 L109.6 -68.8 109.7 -69.45 M105.8 -66.4 L105.85 -68.1 105.95 -68.65 105.85 -68.1 105.8 -66.4 M137.7 -16.2 L138.1 -16.95 138.2 -17.15 138.35 -17.6 138.2 -17.15 138.1 -16.95 137.7 -16.2 M118.8 -21.85 Q120.35 -18.45 122.55 -16.1 L123.75 -15.0 125.55 -13.65 123.75 -15.0 122.55 -16.1 Q120.35 -18.45 118.8 -21.85 M126.2 -13.2 L125.8 -13.5 125.55 -13.6 125.8 -13.5 126.2 -13.2 M109.95 40.05 L116.45 42.75 117.95 45.3 112.1 47.25 117.95 45.3 118.05 45.6 119.35 48.1 122.05 57.25 111.35 50.1 111.15 50.0 112.1 47.25 109.95 40.05 M70.55 39.55 L66.5 35.75 70.55 39.55" fill="#fac98f" fill-rule="evenodd" stroke="none"/>
    <path d="M145.25 15.55 L145.35 15.55 145.2 16.15 Q145.5 17.55 143.75 20.75 L139.35 27.9 133.8 36.25 Q133.1 37.3 132.85 39.85 132.05 42.25 130.95 43.55 129.65 45.0 128.05 44.95 L128.0 44.95 Q123.55 45.3 121.85 42.25 L123.4 38.6 124.2 36.85 124.8 35.3 126.2 31.9 127.1 29.75 129.05 24.85 129.25 24.25 130.45 21.15 Q132.55 15.15 132.55 13.05 L132.1 12.3 134.4 13.25 Q138.7 14.9 145.25 15.55 M55.4 28.45 Q55.0 26.9 55.25 24.6 56.05 22.15 55.85 20.95 L54.3 11.05 Q53.35 4.95 53.25 2.7 52.95 -0.9 53.8 -2.05 L53.95 -2.65 54.05 -2.65 Q60.2 -0.55 64.85 -0.25 L67.35 -0.15 Q66.75 -0.05 66.6 0.35 65.7 2.25 65.15 8.6 L65.0 11.9 64.95 12.55 64.65 17.8 64.6 20.1 64.45 23.8 64.35 25.45 64.35 27.4 64.25 31.35 Q61.45 33.45 57.55 31.25 55.9 30.55 55.4 28.45" fill="#823939" fill-rule="evenodd" stroke="none"/>
    <path d="M67.35 -0.15 L67.4 -0.25 69.9 -0.6 71.2 -1.15 71.55 -1.35 Q71.85 1.15 71.5 4.15 71.15 7.1 69.25 9.3 68.9 10.65 68.9 13.4 L68.9 13.65 Q68.8 16.25 67.4 18.05 L67.2 20.5 67.0 22.05 66.75 23.5 66.3 25.3 66.65 26.95 Q67.0 28.15 65.95 29.65 L65.75 29.9 64.25 31.35 64.35 27.4 64.35 25.45 64.45 23.8 64.6 20.1 64.65 17.8 64.95 12.55 65.0 11.9 65.15 8.6 Q65.7 2.25 66.6 0.35 66.75 -0.05 67.35 -0.15 M123.2 32.6 L123.65 31.2 124.5 28.85 Q124.0 26.6 124.95 24.2 L125.05 24.0 Q126.15 21.5 126.45 20.1 125.6 17.3 126.55 14.5 127.45 11.6 128.75 9.5 L129.0 9.8 129.95 10.85 132.05 12.2 132.1 12.3 132.55 13.05 Q132.55 15.15 130.45 21.15 L129.25 24.25 129.05 24.85 127.1 29.75 126.2 31.9 124.8 35.3 124.2 36.85 123.4 38.6 121.85 42.25 121.1 40.3 121.05 40.0 Q120.65 38.2 121.5 37.25 L122.5 35.9 Q122.5 35.3 122.8 34.1 L123.2 32.6" fill="#b45656" fill-rule="evenodd" stroke="none"/>
    <path d="M116.95 -33.35 L116.8 -33.35 116.85 -33.7 116.95 -33.35" fill="#f2f2f2" fill-rule="evenodd" stroke="none"/>
    <path d="M73.6 6.1 L73.8 6.65 73.9 7.1 75.2 8.85 75.85 9.55 76.85 10.45 Q77.95 11.3 79.5 12.15 L80.0 12.4 82.3 13.45 83.2 13.8 83.8 14.05 84.6 14.35 84.65 14.35 84.35 14.9 Q83.45 16.45 83.65 18.7 83.8 20.45 84.6 22.65 L80.0 21.0 76.75 19.35 75.3 18.35 Q73.7 17.25 72.6 15.95 L72.1 15.35 Q70.9 10.25 72.85 7.1 L73.1 6.65 73.6 6.1" fill="#956c5e" fill-rule="evenodd" stroke="none"/>
    <path d="M81.85 -76.9 L81.75 -76.6 Q81.7 -76.15 81.9 -75.85 L82.4 -75.55 82.95 -75.85 83.0 -76.0 83.1 -76.15 83.1 -75.3 82.8 -74.0 82.15 -73.4 Q81.75 -73.45 81.5 -74.0 81.25 -74.6 81.3 -75.4 81.35 -76.15 81.65 -76.65 L81.85 -76.9 M92.7 -72.05 L92.7 -71.25 Q92.7 -70.4 92.35 -69.75 91.95 -69.1 91.45 -69.1 91.0 -69.1 90.65 -69.75 90.35 -70.4 90.4 -71.3 90.4 -72.15 90.8 -72.75 L91.05 -73.05 90.9 -72.6 Q90.9 -72.1 91.2 -71.75 91.45 -71.45 91.85 -71.45 92.2 -71.45 92.5 -71.75 L92.7 -72.05" fill="#000000" fill-rule="evenodd" stroke="none"/>
    <path d="M80.5 -56.6 L83.7 -56.8 83.95 -56.2 Q82.65 -55.7 81.85 -54.85 L80.35 -55.4 80.5 -56.6 M83.0 -66.85 L83.6 -66.1 84.8 -65.3 Q83.15 -64.65 83.05 -66.1 82.95 -66.45 83.0 -66.85" fill="#ffd0ae" fill-rule="evenodd" stroke="none"/>
    <path d="M98.45 40.6 L98.4 37.95 96.2 38.2 94.15 38.2 93.8 38.2 93.6 38.2 93.8 44.75 Q93.55 41.05 92.75 38.15 L92.3 38.15 90.55 37.9 90.4 37.9 91.2 24.2 94.0 24.4 100.45 24.6 105.2 24.3 Q111.55 23.6 116.45 21.35 L116.85 21.2 116.7 22.1 118.1 26.75 119.25 31.7 118.4 31.65 111.45 38.6 Q108.8 38.15 105.6 38.65 L105.2 24.3 105.6 38.65 Q102.3 39.1 98.45 40.6 M110.25 15.6 Q112.2 14.3 113.6 11.05 L112.25 1.6 Q114.65 -1.7 116.55 -5.35 L116.95 -6.25 Q117.8 -5.5 118.7 -5.0 120.05 -4.3 121.55 -4.3 L121.7 -4.2 120.35 -1.65 119.9 8.9 Q118.45 12.15 116.5 13.35 114.25 14.9 110.25 15.6 M116.7 22.1 L116.45 21.35 116.7 22.1 M90.65 15.45 L90.85 15.5 91.1 15.5 90.65 15.5 90.65 15.45 M92.75 38.15 L93.6 38.2 92.75 38.15 M100.45 24.6 Q98.3 29.5 98.4 37.95 98.3 29.5 100.45 24.6 M72.6 15.95 Q73.7 17.25 75.3 18.35 L76.75 19.35 76.35 28.65 75.6 27.25 73.35 27.4 71.55 27.65 71.95 23.6 Q72.3 20.65 72.9 18.2 L72.6 15.95 M73.4 20.9 L72.9 18.2 73.4 20.9" fill="#a49eba" fill-rule="evenodd" stroke="none"/>
    <path d="M107.5 -57.2 Q110.35 -58.75 111.2 -55.85 L108.75 -51.85 Q106.5 -48.2 104.5 -44.4 L102.2 -40.0 Q90.1 -16.2 83.2 13.8 L82.3 13.45 80.0 12.4 79.5 12.15 Q83.55 -14.2 96.1 -38.25 L97.85 -41.5 Q100.95 -47.25 104.6 -52.8 L107.5 -57.2 M120.8 -48.4 Q123.5 -47.85 123.15 -43.65 L123.1 -43.6 Q119.8 -40.35 116.75 -36.6 113.55 -32.8 110.65 -28.45 98.5 -10.55 90.65 15.4 L87.8 15.0 Q96.25 -18.1 112.9 -39.4 115.75 -43.1 118.85 -46.4 L120.8 -48.4 M87.8 23.5 L90.4 24.1 91.2 24.2 90.4 37.9 88.95 62.05 87.6 60.5 Q86.6 59.75 85.65 60.15 L87.8 23.5 M80.0 21.0 L77.15 54.95 76.7 55.1 76.3 54.8 75.35 54.2 76.35 28.65 76.75 19.35 80.0 21.0" fill="#887ba2" fill-rule="evenodd" stroke="none"/>
    <path d="M122.8 56.15 Q123.8 65.35 124.95 72.65 L106.2 72.65 97.75 72.65 98.6 60.35 Q99.0 54.55 98.45 40.6 102.3 39.1 105.6 38.65 108.8 38.15 111.45 38.6 L109.95 40.05 112.1 47.25 111.15 50.0 111.35 50.1 122.05 57.25 122.15 57.3 122.8 56.15 M93.8 44.75 Q93.65 59.4 94.35 69.9 L93.9 72.65 74.95 72.65 67.6 72.65 Q66.95 69.35 66.4 64.85 L69.55 47.35 70.2 42.9 70.55 39.55 71.05 34.1 71.55 27.65 73.35 27.4 75.6 27.25 76.35 28.65 75.35 54.2 76.3 54.8 76.7 55.1 77.15 54.95 78.35 55.1 Q79.45 55.6 80.7 57.45 81.6 59.4 83.3 60.0 L85.65 60.15 Q86.6 59.75 87.6 60.5 L88.95 62.05 90.4 37.9 90.55 37.9 92.3 38.15 92.75 38.15 Q93.55 41.05 93.8 44.75 M75.8 -56.05 L76.0 -56.1 77.25 -56.25 77.55 -56.35 77.75 -56.4 77.75 -56.3 77.85 -56.4 77.9 -56.4 Q77.2 -53.05 77.4 -50.0 78.0 -41.8 86.2 -39.2 91.35 -37.65 96.1 -38.25 83.55 -14.2 79.5 12.15 77.95 11.3 76.85 10.45 L75.85 9.55 75.2 8.85 73.9 7.1 73.8 6.65 73.6 6.1 Q71.4 2.9 73.75 -17.8 L74.05 -20.5 72.3 -22.95 Q71.4 -24.25 70.85 -25.25 L70.25 -26.35 69.95 -26.9 69.95 -30.3 69.95 -30.35 Q70.15 -45.8 75.3 -55.2 L75.8 -56.05 M110.65 -28.45 L110.6 -25.85 Q110.65 -16.95 113.85 -10.7 L114.4 -9.65 Q115.55 -7.55 116.95 -6.25 L116.55 -5.35 Q114.65 -1.7 112.25 1.6 L113.6 11.05 Q112.2 14.3 110.25 15.6 L109.25 15.8 109.0 15.85 108.15 15.95 Q103.75 16.35 94.25 15.7 L92.5 15.6 90.65 15.4 92.5 15.6 91.1 15.5 90.85 15.5 90.65 15.45 90.65 15.4 Q98.5 -10.55 110.65 -28.45 M106.2 72.65 L105.6 38.65 106.2 72.65 M76.3 54.8 L75.0 68.7 75.0 68.95 74.95 72.65 75.0 68.95 75.0 68.7 76.3 54.8" fill="#bbb7cc" fill-rule="evenodd" stroke="none"/>
    <path d="M111.2 -55.85 Q117.55 -53.0 120.8 -48.4 L118.85 -46.4 Q115.75 -43.1 112.9 -39.4 96.25 -18.1 87.8 15.0 89.0 15.25 88.15 15.15 L87.35 15.05 87.3 15.05 86.4 14.95 86.3 14.9 85.2 14.55 84.65 14.35 84.6 14.35 83.8 14.05 83.2 13.8 Q90.1 -16.2 102.2 -40.0 L104.5 -44.4 Q106.5 -48.2 108.75 -51.85 L111.2 -55.85 M87.8 23.5 L85.65 60.15 83.3 60.0 Q81.6 59.4 80.7 57.45 79.45 55.6 78.35 55.1 L77.15 54.95 80.0 21.0 84.6 22.65 87.8 23.5 M81.5 50.25 L80.7 57.45 81.5 50.25" fill="#665a7e" fill-rule="evenodd" stroke="none"/>
    <path d="M73.45 -55.1 L73.55 -55.3 73.8 -55.65 74.9 -55.9 75.8 -56.05 75.3 -55.2 Q70.15 -45.8 69.95 -30.35 L69.95 -30.3 69.95 -26.9 69.9 -26.95 69.95 -26.9 69.95 -26.8 69.9 -26.95 69.25 -30.05 Q68.05 -36.3 68.55 -42.55 68.7 -45.2 69.25 -47.85 L70.25 -50.0 70.4 -50.35 73.1 -54.55 73.45 -55.1 M77.9 -56.4 L80.5 -56.65 80.5 -56.6 80.35 -55.4 Q79.45 -45.3 85.75 -42.4 92.95 -40.8 97.85 -41.5 L96.1 -38.25 Q91.35 -37.65 86.2 -39.2 78.0 -41.8 77.4 -50.0 77.2 -53.05 77.9 -56.4 M114.4 -9.65 L113.85 -10.7 Q110.65 -16.95 110.6 -25.85 L110.65 -28.45 Q113.55 -32.8 116.75 -36.6 113.85 -26.75 114.4 -9.65" fill="#fbf8f7" fill-rule="evenodd" stroke="none"/>
    <path d="M77.75 -56.4 L77.85 -56.4 77.75 -56.3 77.75 -56.4" fill="#c1a49d" fill-rule="evenodd" stroke="none"/>
    <path d="M121.55 -4.3 L121.75 -4.3 121.7 -4.2 121.55 -4.3" fill="#bb9c8c" fill-rule="evenodd" stroke="none"/>
    <path d="M84.65 14.35 L85.2 14.55 86.3 14.9 86.4 14.95 87.3 15.05 87.35 15.05 88.15 15.15 Q89.0 15.25 87.8 15.0 L90.65 15.4 90.65 15.45 90.65 15.5 91.1 15.5 92.5 15.6 94.25 15.7 Q103.75 16.35 108.15 15.95 L109.0 15.85 109.25 15.8 110.25 15.6 Q114.25 14.9 116.5 13.35 119.35 16.6 117.85 20.7 L116.85 21.2 116.45 21.35 Q111.55 23.6 105.2 24.3 L100.45 24.6 94.0 24.4 91.2 24.2 90.4 24.1 87.8 23.5 84.6 22.65 Q83.8 20.45 83.65 18.7 83.45 16.45 84.35 14.9 L84.65 14.35 M94.25 15.7 L93.5 15.75 92.5 15.6 93.5 15.75 94.25 15.7 M93.5 15.75 L91.1 15.5 93.5 15.75" fill="#684942" fill-rule="evenodd" stroke="none"/>
    <path d="M80.25 -75.05 L80.3 -75.75 Q81.3 -81.2 83.45 -78.15 L83.6 -74.85 83.25 -71.15 81.8 -72.3 82.1 -72.2 Q82.65 -72.2 83.1 -73.1 83.5 -74.05 83.55 -75.3 83.6 -76.6 83.3 -77.5 82.9 -78.4 82.35 -78.4 81.8 -78.4 81.35 -77.5 80.9 -76.6 80.85 -75.3 80.8 -74.05 81.15 -73.1 L80.25 -75.05 M83.1 -76.15 L83.0 -76.0 82.95 -75.85 82.4 -75.55 81.9 -75.85 Q81.7 -76.15 81.75 -76.6 L81.85 -76.9 82.0 -77.25 Q82.2 -77.55 82.5 -77.55 L83.0 -77.25 83.2 -76.6 83.1 -76.15 M91.05 -73.05 L91.25 -73.35 91.95 -73.65 92.55 -73.35 92.85 -72.6 92.7 -72.05 92.5 -71.75 Q92.2 -71.45 91.85 -71.45 91.45 -71.45 91.2 -71.75 90.9 -72.1 90.9 -72.6 L91.05 -73.05 M91.4 -67.75 Q92.15 -67.75 92.75 -68.75 93.25 -69.8 93.3 -71.25 93.4 -72.7 92.95 -73.7 92.45 -74.75 91.7 -74.7 91.0 -74.75 90.45 -73.7 89.85 -72.7 89.8 -71.25 89.75 -69.8 90.2 -68.75 90.5 -68.05 91.0 -67.85 L88.85 -68.65 Q89.1 -72.7 90.4 -75.25 94.8 -75.1 95.2 -68.2 93.55 -67.3 91.4 -67.75" fill="#ffffff" fill-rule="evenodd" stroke="none"/>
    <path d="M81.15 -73.1 Q80.8 -74.05 80.85 -75.3 80.9 -76.6 81.35 -77.5 81.8 -78.4 82.35 -78.4 82.9 -78.4 83.3 -77.5 83.6 -76.6 83.55 -75.3 83.5 -74.05 83.1 -73.1 82.65 -72.2 82.1 -72.2 L81.8 -72.3 Q81.4 -72.45 81.15 -73.1 M83.1 -76.15 L83.2 -76.6 83.0 -77.25 82.5 -77.55 Q82.2 -77.55 82.0 -77.25 L81.85 -76.9 81.65 -76.65 Q81.35 -76.15 81.3 -75.4 81.25 -74.6 81.5 -74.0 81.75 -73.45 82.15 -73.4 L82.8 -74.0 83.1 -75.3 83.1 -76.15 M92.7 -72.05 L92.85 -72.6 92.55 -73.35 91.95 -73.65 91.25 -73.35 91.05 -73.05 90.8 -72.75 Q90.4 -72.15 90.4 -71.3 90.35 -70.4 90.65 -69.75 91.0 -69.1 91.45 -69.1 91.95 -69.1 92.35 -69.75 92.7 -70.4 92.7 -71.25 L92.7 -72.05 M91.0 -67.85 Q90.5 -68.05 90.2 -68.75 89.75 -69.8 89.8 -71.25 89.85 -72.7 90.45 -73.7 91.0 -74.75 91.7 -74.7 92.45 -74.75 92.95 -73.7 93.4 -72.7 93.3 -71.25 93.25 -69.8 92.75 -68.75 92.15 -67.75 91.4 -67.75 L91.0 -67.85" fill="#0099ff" fill-rule="evenodd" stroke="none"/>
    <path d="M80.4 -93.8 Q80.25 -99.4 77.3 -103.45 79.0 -104.15 81.75 -102.25 81.25 -106.6 81.7 -108.4 L86.1 -103.0 Q89.65 -106.5 90.55 -112.55 L96.4 -107.05 Q100.0 -110.1 100.2 -116.15 103.6 -112.0 103.4 -105.25 109.0 -103.75 112.4 -107.35 113.7 -103.3 110.4 -101.35 117.05 -101.65 120.1 -94.95 115.8 -94.4 115.25 -82.4 L115.2 -82.5 115.15 -82.85 114.8 -88.7 Q114.55 -92.2 112.45 -92.65 L111.7 -92.7 110.5 -92.55 Q111.05 -94.4 111.05 -95.6 111.0 -97.45 109.55 -97.85 107.65 -98.3 103.55 -96.45 100.75 -103.7 96.55 -98.25 89.35 -101.15 87.4 -94.55 L86.4 -94.5 Q85.45 -96.05 84.6 -96.25 L83.65 -96.05 Q83.05 -95.65 82.45 -94.6 L82.2 -94.1 80.4 -93.8" fill="#b98e8e" fill-rule="evenodd" stroke="none"/>
    <path d="M111.25 -69.2 L110.85 -68.65 110.4 -68.1 109.2 -67.05 109.7 -68.95 110.0 -70.75 111.25 -69.2 M82.2 -94.1 L82.45 -94.6 Q83.05 -95.65 83.65 -96.05 L84.6 -96.25 Q85.45 -96.05 86.4 -94.5 L82.2 -94.1 M87.4 -94.55 Q89.35 -101.15 96.55 -98.25 100.75 -103.7 103.55 -96.45 107.65 -98.3 109.55 -97.85 111.0 -97.45 111.05 -95.6 111.05 -94.4 110.5 -92.55 L111.7 -92.7 112.45 -92.65 Q114.55 -92.2 114.8 -88.7 L115.15 -82.85 115.2 -82.5 Q101.55 -94.55 87.4 -94.55 M106.8 -75.75 L105.95 -75.05 Q105.3 -80.45 101.4 -67.85 L100.9 -70.05 Q100.4 -72.35 100.2 -74.85 99.9 -77.25 99.9 -79.75 L98.35 -81.15 Q103.4 -79.1 106.8 -75.75 M97.15 -77.8 Q93.55 -79.2 88.85 -76.7 92.45 -81.55 97.15 -77.8 M84.1 -78.75 Q82.1 -82.75 79.7 -83.25 83.45 -84.1 84.1 -78.75" fill="#9b5e5e" fill-rule="evenodd" stroke="none"/>
    <path d="M115.25 -82.4 L115.9 -81.85 116.0 -81.85 Q115.6 -71.45 111.3 -69.15 L111.25 -69.2 110.0 -70.75 109.95 -70.8 110.05 -72.9 110.0 -73.5 109.6 -75.1 Q108.2 -76.25 106.8 -75.7 L106.8 -75.75 Q103.4 -79.1 98.35 -81.15 90.85 -84.15 79.7 -84.2 L79.25 -84.2 Q78.6 -87.65 80.35 -93.75 L80.4 -93.8 82.2 -94.1 86.4 -94.5 87.4 -94.55 Q101.55 -94.55 115.2 -82.5 L115.25 -82.4" fill="#d5c1b5" fill-rule="evenodd" stroke="none"/>
    <path d="M109.7 -68.95 L109.6 -68.8 109.35 -68.0 109.05 -67.0 109.0 -66.7 108.9 -66.55 108.55 -65.65 108.15 -65.3 M123.1 -43.6 L125.85 -41.65 Q127.9 -41.45 130.05 -40.15 134.7 -37.5 137.35 -31.7 138.8 -28.45 139.2 -25.25 L139.35 -23.25 139.25 -21.65 139.05 -20.25 138.35 -17.6 143.2 -0.05 144.45 4.35 M144.35 4.45 L144.9 4.95 145.35 6.45 145.5 7.1 146.35 12.9 145.25 15.55 M130.95 43.55 L124.75 55.45 122.85 56.1 122.8 56.15 M70.2 42.9 L57.85 44.95 57.7 44.95 57.6 43.55 56.15 42.2 55.4 28.45 M54.05 -2.65 L54.15 -5.5 Q55.85 -8.45 57.3 -10.45 L57.7 -10.95 57.75 -11.0 58.45 -15.05 61.25 -30.15 Q60.95 -31.05 60.8 -32.05 L60.55 -33.45 60.45 -35.05 60.55 -37.05 Q60.85 -40.25 62.25 -43.7 64.7 -49.8 69.15 -53.0 71.35 -54.7 73.45 -55.1 M83.7 -56.8 Q83.2 -57.85 82.85 -59.1 81.35 -63.9 80.7 -67.3 80.05 -70.75 79.75 -75.9 79.35 -81.1 79.5 -82.0 L79.7 -84.2 M80.3 -75.75 L80.2 -75.25 80.25 -75.05 M80.3 -75.75 Q81.3 -81.2 83.45 -78.15 L83.6 -74.85 Q84.1 -71.75 83.85 -69.6 83.65 -67.95 83.0 -66.85 M84.8 -65.3 Q83.15 -64.65 83.05 -66.1 82.95 -66.45 83.0 -66.85 M83.95 -56.2 L83.7 -56.8 M68.65 -29.85 Q68.0 -31.5 67.65 -33.15 M61.25 -30.15 L61.65 -29.1 61.7 -28.95 62.15 -28.2 M69.9 -26.95 L68.65 -29.85 M57.65 -10.45 L57.75 -11.0 M68.8 -10.55 L67.8 -6.55 M71.2 -1.15 L71.3 -4.05 Q71.1 -8.05 69.05 -10.65 L68.9 -10.85 68.8 -10.55 M72.3 -22.95 L68.9 -10.85 M86.75 -53.0 Q95.8 -51.2 101.05 -56.0 L106.3 -63.85 108.15 -65.3 M81.8 -72.3 L83.25 -71.15 83.6 -74.85 M91.4 -67.75 Q93.55 -67.3 95.2 -68.2 94.8 -75.1 90.4 -75.25 89.1 -72.7 88.85 -68.65 L91.0 -67.85 91.4 -67.75 M81.8 -72.3 Q81.4 -72.45 81.15 -73.1 L80.25 -75.05 M83.9 -61.65 L85.7 -60.4 Q87.45 -59.45 90.55 -58.55 M84.7 -54.95 L83.95 -56.2 M84.7 -54.95 Q85.6 -53.6 86.75 -53.0 M106.4 -70.65 L106.75 -71.3 107.55 -72.3 M109.7 -69.45 L109.85 -70.55 Q110.1 -72.3 109.65 -74.1 109.1 -75.95 107.6 -75.55 106.05 -75.2 105.2 -73.55 L104.85 -72.8 M106.4 -70.65 L106.0 -69.2 105.95 -68.65 106.95 -67.8 107.3 -67.25 M109.6 -68.8 L109.7 -69.45 M105.95 -68.65 L105.85 -68.1 105.8 -66.4 M122.9 -41.4 L125.85 -41.65 M121.75 -4.3 L123.0 -6.85 124.1 -9.65 125.55 -13.65 123.75 -15.0 122.55 -16.1 Q120.35 -18.45 118.8 -21.85 M138.35 -17.6 L138.2 -17.15 138.1 -16.95 137.7 -16.2 M125.55 -13.65 L125.55 -13.6 125.8 -13.5 126.2 -13.2 M119.25 31.7 Q121.3 31.85 123.2 32.6 M129.0 9.8 L130.1 7.15 Q131.05 5.25 132.35 3.95 L125.55 -13.6 M132.35 3.95 L132.75 5.05 134.1 8.8 M128.0 44.95 L127.75 45.3 M111.45 38.6 L118.4 31.65 119.25 31.7 M109.95 40.05 L112.1 47.25 117.95 45.3 118.05 45.6 M122.05 57.25 L122.15 57.3 122.8 56.15 M109.95 40.05 L111.45 38.6 M112.1 47.25 L111.15 50.0 111.35 50.1 122.05 57.25 M71.95 23.6 L71.75 23.15 Q69.4 22.15 67.0 22.05 M57.55 31.25 L57.6 31.7 M66.5 35.75 L70.55 39.55 M66.25 35.95 L66.5 35.75" fill="none" stroke="#d7995e" stroke-linecap="round" stroke-linejoin="round" stroke-width="0.05"/>
    <path d="M145.25 15.55 L145.35 15.55 145.2 16.15 Q145.5 17.55 143.75 20.75 L139.35 27.9 133.8 36.25 Q133.1 37.3 132.85 39.85 132.05 42.25 130.95 43.55 M55.4 28.45 Q55.0 26.9 55.25 24.6 56.05 22.15 55.85 20.95 L54.3 11.05 Q53.35 4.95 53.25 2.7 52.95 -0.9 53.8 -2.05 L53.95 -2.65 54.05 -2.65 Q60.2 -0.55 64.85 -0.25 L67.35 -0.15 M64.25 31.35 L65.75 29.9 65.95 29.65 Q67.0 28.15 66.65 26.95 L66.3 25.3 66.75 23.5 67.0 22.05 67.2 20.5 67.4 18.05 Q68.8 16.25 68.9 13.65 L68.9 13.4 Q68.9 10.65 69.25 9.3 71.15 7.1 71.5 4.15 71.85 1.15 71.55 -1.35 L71.2 -1.15 69.9 -0.6 67.4 -0.25 M123.2 32.6 L123.65 31.2 124.5 28.85 Q124.0 26.6 124.95 24.2 L125.05 24.0 Q126.15 21.5 126.45 20.1 125.6 17.3 126.55 14.5 127.45 11.6 128.75 9.5 L129.0 9.8 M132.05 12.2 L129.95 10.85 129.0 9.8 M121.85 42.25 Q123.55 45.3 128.0 44.95 L128.05 44.95 Q129.65 45.0 130.95 43.55 M145.25 15.55 Q138.7 14.9 134.4 13.25 L132.1 12.3 M123.2 32.6 L122.8 34.1 Q122.5 35.3 122.5 35.9 L121.5 37.25 Q120.65 38.2 121.05 40.0 L121.1 40.3 121.85 42.25 M55.4 28.45 Q55.9 30.55 57.55 31.25 61.45 33.45 64.25 31.35" fill="none" stroke="#6c3131" stroke-linecap="round" stroke-linejoin="round" stroke-width="0.05"/>
    <path d="M108.15 -65.3 L107.75 -63.1 107.65 -62.4 Q107.4 -59.75 107.5 -57.2 M80.5 -56.6 L83.7 -56.8 M84.6 -54.05 L84.6 -54.15 84.55 -54.35 84.7 -54.95 M116.5 13.35 Q119.35 16.6 117.85 20.7 L116.85 21.2 116.45 21.35 Q111.55 23.6 105.2 24.3 M91.2 24.2 L90.4 24.1 87.8 23.5 84.6 22.65 80.0 21.0 M91.2 24.2 L94.0 24.4 100.45 24.6 105.2 24.3 M73.6 6.1 L73.1 6.65 72.85 7.1 Q70.9 10.25 72.1 15.35 L72.6 15.95 Q73.7 17.25 75.3 18.35 L76.75 19.35 80.0 21.0" fill="none" stroke="#674743" stroke-linecap="round" stroke-linejoin="round" stroke-width="0.05"/>
    <path d="M107.5 -57.2 Q110.35 -58.75 111.2 -55.85 117.55 -53.0 120.8 -48.4 123.5 -47.85 123.15 -43.65 L123.1 -43.6 Q119.8 -40.35 116.75 -36.6 113.55 -32.8 110.65 -28.45 98.5 -10.55 90.65 15.4 L92.5 15.6 93.5 15.75 94.25 15.7 M122.8 56.15 Q123.8 65.35 124.95 72.65 M97.75 72.65 L98.6 60.35 Q99.0 54.55 98.45 40.6 L98.4 37.95 96.2 38.2 94.15 38.2 93.8 38.2 93.6 38.2 93.8 44.75 Q93.65 59.4 94.35 69.9 L93.9 72.65 M67.6 72.65 Q66.95 69.35 66.4 64.85 L69.55 47.35 70.2 42.9 M75.8 -56.05 L76.0 -56.1 77.25 -56.25 77.55 -56.35 77.75 -56.4 M77.85 -56.4 L77.9 -56.4 M77.85 -56.4 L77.75 -56.3 77.75 -56.4 M75.8 -56.05 L75.3 -55.2 Q70.15 -45.8 69.95 -30.35 L69.95 -30.3 69.95 -26.9 70.25 -26.35 70.85 -25.25 Q71.4 -24.25 72.3 -22.95 L74.05 -20.5 73.75 -17.8 Q71.4 2.9 73.6 6.1 M79.5 12.15 Q83.55 -14.2 96.1 -38.25 M107.5 -57.2 L104.6 -52.8 Q100.95 -47.25 97.85 -41.5 L96.1 -38.25 M111.2 -55.85 L108.75 -51.85 Q106.5 -48.2 104.5 -44.4 L102.2 -40.0 Q90.1 -16.2 83.2 13.8 M87.8 15.0 Q96.25 -18.1 112.9 -39.4 115.75 -43.1 118.85 -46.4 L120.8 -48.4 M110.65 -28.45 L110.6 -25.85 Q110.65 -16.95 113.85 -10.7 L114.4 -9.65 M116.95 -6.25 Q115.55 -7.55 114.4 -9.65 M116.95 -6.25 Q117.8 -5.5 118.7 -5.0 120.05 -4.3 121.55 -4.3 M121.7 -4.2 L120.35 -1.65 119.9 8.9 Q118.45 12.15 116.5 13.35 M116.85 21.2 L116.7 22.1 118.1 26.75 119.25 31.7 M116.45 21.35 L116.7 22.1 M105.2 24.3 L105.6 38.65 106.2 72.65 M90.65 15.4 L90.65 15.45 90.65 15.5 91.1 15.5 93.5 15.75 M87.8 15.0 L90.65 15.4 M80.0 12.4 L82.3 13.45 83.2 13.8 M87.8 23.5 L85.65 60.15 Q86.6 59.75 87.6 60.5 L88.95 62.05 90.4 37.9 91.2 24.2 M80.0 21.0 L77.15 54.95 78.35 55.1 Q79.45 55.6 80.7 57.45 L81.5 50.25 M92.75 38.15 L92.3 38.15 90.55 37.9 90.4 37.9 M93.6 38.2 L92.75 38.15 M98.4 37.95 Q98.3 29.5 100.45 24.6 M85.65 60.15 L83.3 60.0 Q81.6 59.4 80.7 57.45 M72.6 15.95 L72.9 18.2 73.4 20.9 M72.9 18.2 Q72.3 20.65 71.95 23.6 L71.55 27.65 71.05 34.1 70.55 39.55 70.2 42.9 M76.35 28.65 L76.75 19.35 M76.35 28.65 L75.35 54.2 76.3 54.8 76.7 55.1 77.15 54.95 M74.95 72.65 L75.0 68.95 75.0 68.7 76.3 54.8" fill="none" stroke="#4a4763" stroke-linecap="round" stroke-linejoin="round" stroke-width="0.05"/>
    <path d="M73.45 -55.1 L73.55 -55.3 73.8 -55.65 74.9 -55.9 75.8 -56.05 M77.75 -56.4 L77.85 -56.4 M69.9 -26.95 L69.25 -30.05 Q68.05 -36.3 68.55 -42.55 68.7 -45.2 69.25 -47.85 L70.25 -50.0 70.4 -50.35 73.1 -54.55 73.45 -55.1 M73.6 6.1 L73.8 6.65 73.9 7.1 75.2 8.85 75.85 9.55 76.85 10.45 Q77.95 11.3 79.5 12.15 M69.9 -26.95 L69.95 -26.9 69.95 -26.8 69.9 -26.95 M83.2 13.8 L83.8 14.05 84.6 14.35 84.65 14.35 85.2 14.55 86.3 14.9 M114.4 -9.65 Q113.85 -26.75 116.75 -36.6 M92.5 15.6 L94.25 15.7 Q103.75 16.35 108.15 15.95 L109.0 15.85 109.25 15.8 110.25 15.6 Q114.25 14.9 116.5 13.35 M121.55 -4.3 L121.75 -4.3 M121.7 -4.2 L121.75 -4.3 M91.1 15.5 L92.5 15.6" fill="none" stroke="#30543c" stroke-linecap="round" stroke-linejoin="round" stroke-width="0.05"/>
    <path d="M115.25 -82.4 L115.9 -81.85 116.0 -81.85 Q115.6 -71.45 111.3 -69.15 L111.25 -69.2 M77.9 -56.4 L80.5 -56.65 M79.7 -84.2 L79.25 -84.2 Q78.6 -87.65 80.35 -93.75 L80.4 -93.8 82.2 -94.1 86.4 -94.5 87.4 -94.55 M115.2 -82.5 L115.25 -82.4 M106.8 -75.75 L106.8 -75.7 Q108.2 -76.25 109.6 -75.1 L110.0 -73.5 110.05 -72.9 109.95 -70.8 110.0 -70.75 111.25 -69.2 M98.35 -81.15 Q90.85 -84.15 79.7 -84.2 M98.35 -81.15 Q103.4 -79.1 106.8 -75.75 M115.2 -82.5 Q101.55 -94.55 87.4 -94.55" fill="none" stroke="#0f2446" stroke-linecap="round" stroke-linejoin="round" stroke-width="0.05"/>
    <path d="M80.5 -56.65 L80.5 -56.6 80.35 -55.4 M97.85 -41.5 Q92.95 -40.8 85.75 -42.4 79.45 -45.3 80.35 -55.4" fill="none" stroke="#cccccc" stroke-linecap="round" stroke-linejoin="round" stroke-width="0.05"/>
    <path d="M80.4 -93.8 Q80.25 -99.4 77.3 -103.45 79.0 -104.15 81.75 -102.25 81.25 -106.6 81.7 -108.4 L86.1 -103.0 Q89.65 -106.5 90.55 -112.55 L96.4 -107.05 Q100.0 -110.1 100.2 -116.15 103.6 -112.0 103.4 -105.25 109.0 -103.75 112.4 -107.35 113.7 -103.3 110.4 -101.35 117.05 -101.65 120.1 -94.95 115.8 -94.4 115.25 -82.4 M111.25 -69.2 L110.85 -68.65 110.4 -68.1 109.2 -67.05 109.7 -68.95 M106.8 -75.75 L105.95 -75.05 Q105.3 -80.45 101.4 -67.85 L100.9 -70.05 Q100.4 -72.35 100.2 -74.85 99.9 -77.25 99.9 -79.75 L98.35 -81.15 M97.15 -77.8 Q92.45 -81.55 88.85 -76.7 93.55 -79.2 97.15 -77.8 M110.0 -70.75 L109.7 -68.95 M84.1 -78.75 Q82.1 -82.75 79.7 -83.25 83.45 -84.1 84.1 -78.75" fill="none" stroke="#4b2e2e" stroke-linecap="round" stroke-linejoin="round" stroke-width="0.05"/>
  </g>
</svg>
