<?xml version="1.0" encoding="UTF-8" standalone="no"?>
<svg xmlns:xlink="http://www.w3.org/1999/xlink" height="154.8px" width="64.25px" xmlns="http://www.w3.org/2000/svg">
  <g transform="matrix(1, 0, 0, 1, -62.75, 95.15)">
    <path d="M78.1 -74.6 L79.95 -76.15 81.25 -73.85 87.0 -76.95 87.4 -67.45 94.45 -75.6 99.1 -66.45 100.65 -68.45 101.45 -65.8 99.75 -65.2 102.35 -57.2 95.05 -49.4 84.75 -43.55 Q79.65 -49.95 77.7 -61.3 L77.8 -67.5 77.9 -71.85 78.1 -74.6 M105.2 -61.85 L105.85 -63.35 Q110.4 -67.2 110.5 -62.2 L110.5 -61.9 110.5 -61.75 110.55 -61.3 110.45 -60.5 Q110.0 -62.35 108.0 -63.1 L107.3 -62.2 106.95 -61.55 Q105.7 -61.4 105.2 -61.85 M79.35 -5.95 Q77.8 4.4 78.75 6.55 L78.45 7.0 78.25 7.4 Q77.25 9.05 77.05 11.4 74.4 17.45 74.1 24.1 L74.55 24.4 Q73.1 29.1 71.95 34.1 L70.65 34.1 70.5 34.15 68.7 34.25 62.8 35.85 62.75 35.75 63.25 34.85 63.05 33.35 67.45 25.2 67.3 25.1 Q68.5 4.75 69.65 0.55 70.1 -1.1 70.85 -2.5 L71.05 -2.85 71.6 -7.15 Q77.2 -9.1 79.35 -5.95 M74.05 25.2 L74.1 24.1 74.05 25.2 M88.45 -65.6 Q93.5 -67.9 97.3 -66.65 92.3 -70.1 88.45 -65.6 M90.75 -50.6 Q86.15 -51.5 83.55 -53.45 86.15 -51.5 90.75 -50.6 M84.35 -56.75 Q83.2 -57.25 82.4 -58.15 83.05 -59.15 83.2 -60.65 83.3 -62.6 82.55 -65.35 83.3 -62.6 83.2 -60.65 83.05 -59.15 82.4 -58.15 83.2 -57.25 84.35 -56.75 M124.5 7.35 L124.65 9.5 Q126.45 12.75 126.45 16.75 126.35 21.1 121.95 41.0 L121.85 41.05 123.85 50.35 123.3 51.75 123.5 52.75 123.4 52.85 118.2 49.65 116.5 49.1 116.35 49.0 114.55 48.5 110.4 50.85 110.75 41.7 Q112.85 39.2 115.6 38.5 L115.75 37.8 Q117.35 30.7 116.1 23.55 114.95 16.95 115.85 13.35 L115.95 12.95 115.45 9.4 Q117.45 4.5 124.5 7.35 M105.7 -42.8 L105.4 -42.75 105.75 -42.9 105.7 -42.8 M78.7 -71.7 Q81.25 -71.25 83.35 -67.5 82.7 -72.45 78.7 -71.7 M124.65 9.5 L124.85 12.0 124.65 9.5 M115.45 39.2 L115.6 38.5 115.45 39.2" fill="#ffdfc8" fill-rule="evenodd" stroke="none"/>
    <path d="M84.75 -43.55 L95.05 -49.4 102.35 -57.2 99.75 -65.2 101.45 -65.8 104.2 -54.95 104.25 -54.75 104.3 -55.05 105.05 -58.95 Q104.65 -60.25 105.2 -61.85 105.7 -61.4 106.95 -61.55 L107.3 -62.2 108.0 -63.1 Q110.0 -62.35 110.45 -60.5 L110.55 -61.3 110.6 -60.3 110.35 -59.95 110.2 -59.1 109.85 -58.25 109.8 -58.0 109.8 -57.85 109.4 -57.0 Q108.4 -55.95 106.7 -55.6 L104.6 -55.4 104.3 -55.05 104.6 -55.4 106.7 -55.6 108.65 -54.65 107.8 -51.2 107.75 -50.55 Q107.3 -48.1 107.2 -45.75 L106.55 -46.15 105.75 -42.9 105.4 -42.75 97.75 -42.3 Q94.0 -42.4 91.6 -44.05 89.35 -43.3 87.15 -43.3 L85.0 -43.5 84.75 -43.55 M72.2 -12.6 Q75.95 -11.3 80.4 -12.2 L79.35 -5.95 Q77.2 -9.1 71.6 -7.15 L72.2 -12.6 M62.8 35.85 L68.7 34.25 70.5 34.15 70.65 34.1 71.95 34.1 71.15 37.95 70.9 39.4 70.0 40.5 69.95 40.4 62.8 35.85 M110.45 -60.5 L110.35 -59.95 110.45 -60.5 M107.85 -58.55 Q107.3 -59.45 106.55 -59.75 L106.65 -60.25 106.95 -61.55 106.65 -60.25 106.55 -59.75 Q107.3 -59.45 107.85 -58.55 M124.05 0.5 L124.5 7.35 Q117.45 4.5 115.45 9.4 L114.1 0.05 Q119.45 1.85 124.05 0.5 M123.4 52.85 L119.75 53.9 115.3 55.25 115.2 55.3 114.4 53.4 110.4 50.85 114.55 48.5 116.35 49.0 116.5 49.1 118.2 49.65 123.4 52.85 M91.6 -44.05 Q94.3 -44.95 97.05 -47.05 L104.2 -54.95 97.05 -47.05 Q94.3 -44.95 91.6 -44.05 M114.4 53.4 L116.35 49.0 114.4 53.4 M70.65 34.1 L71.15 37.95 70.65 34.1" fill="#ffd0ae" fill-rule="evenodd" stroke="none"/>
    <path d="M77.9 -33.8 Q76.8 -27.6 78.9 -21.35 L79.25 -20.4 80.2 -18.05 81.1 -16.2 80.4 -12.2 81.1 -16.2 80.2 -18.05 79.25 -20.4 78.9 -21.35 Q76.8 -27.6 77.9 -33.8 M72.2 -12.6 Q70.8 -13.1 69.5 -13.9 L70.75 -24.1 Q71.5 -28.3 73.0 -34.5 74.5 -40.65 81.2 -42.7 L81.35 -42.95 85.0 -43.5 87.15 -43.3 Q87.85 -41.85 89.1 -40.2 91.8 -36.6 107.5 -35.5 L107.55 -35.5 107.65 -35.5 112.05 -32.65 114.45 -30.3 115.3 -33.8 Q117.3 -33.05 118.85 -31.95 123.05 -29.1 124.1 -23.95 L126.1 -12.25 127.0 -0.75 124.05 0.5 Q119.45 1.85 114.1 0.05 L113.25 -0.25 111.35 -1.05 111.15 -4.65 Q109.05 0.2 106.1 4.4 L106.4 12.55 Q105.1 15.3 103.65 16.35 L103.0 16.4 102.8 16.5 92.45 15.75 92.0 15.65 87.05 14.6 86.3 14.25 85.9 14.15 Q81.85 12.0 80.1 9.6 L79.7 9.0 79.0 7.4 78.95 7.25 78.9 7.0 78.75 6.55 Q77.8 4.4 79.35 -5.95 L80.4 -12.2 Q75.95 -11.3 72.2 -12.6 M109.95 -12.0 L110.95 -6.75 111.15 -4.65 110.95 -6.75 109.95 -12.0" fill="#817ba8" fill-rule="evenodd" stroke="none"/>
    <path d="M85.9 14.15 L86.3 14.25 87.05 14.6 92.0 15.65 92.45 15.75 102.8 16.5 103.0 16.4 103.65 16.35 Q106.5 15.95 108.25 14.7 109.35 16.6 109.2 18.75 L108.6 21.0 Q108.25 21.15 107.95 21.35 101.3 24.6 91.7 23.15 L89.25 22.7 85.25 21.25 84.9 18.7 Q84.8 17.2 85.1 16.05 85.3 14.95 85.9 14.15" fill="#823939" fill-rule="evenodd" stroke="none"/>
    <path d="M71.95 34.1 Q73.1 29.1 74.55 24.4 L75.5 21.45 76.0 19.9 Q76.05 17.25 76.75 13.9 77.1 15.15 78.0 16.05 L78.05 15.95 78.5 16.5 79.1 17.1 Q81.1 19.25 84.5 20.9 L85.25 21.25 89.25 22.7 91.7 23.15 Q101.3 24.6 107.95 21.35 108.25 21.15 108.6 21.0 L109.2 18.75 109.45 18.6 Q110.1 20.15 110.55 22.5 L109.85 21.0 107.95 21.35 109.85 21.0 110.55 22.5 111.8 25.3 Q113.15 28.15 115.75 37.8 L115.6 38.5 Q112.85 39.2 110.75 41.7 L110.4 50.85 114.4 53.4 115.2 55.3 115.3 55.25 119.75 53.9 121.25 59.65 94.85 59.65 68.7 59.65 68.6 59.15 Q69.15 48.8 70.9 39.4 L71.15 37.95 71.95 34.1 M94.1 31.5 L91.7 31.6 Q87.0 30.3 84.5 20.9 87.0 30.3 91.7 31.6 L94.1 31.5 94.25 34.0 94.45 31.5 94.1 31.5 M94.6 30.2 L94.45 31.5 94.6 30.2 M82.4 28.65 L83.15 29.0 Q86.55 30.45 91.7 31.6 86.55 30.45 83.15 29.0 L82.4 28.65 M94.85 59.65 Q93.3 46.35 94.25 34.0 93.3 46.35 94.85 59.65 M78.5 16.5 L78.0 16.05 78.5 16.5 M76.35 23.3 L76.2 22.65 76.0 20.1 76.0 19.9 76.0 20.1 76.2 22.65 76.35 23.3" fill="#bba09d" fill-rule="evenodd" stroke="none"/>
    <path d="M103.65 16.35 Q105.1 15.3 106.4 12.55 L106.1 4.4 Q109.05 0.2 111.15 -4.65 L111.35 -1.05 113.25 -0.25 112.05 2.0 110.9 11.0 Q109.65 13.75 108.25 14.7 106.5 15.95 103.65 16.35 M111.9 -38.25 L113.2 -37.4 113.9 -36.7 116.55 -34.2 118.85 -31.95 Q117.3 -33.05 115.3 -33.8 L114.45 -30.3 112.05 -32.65 107.65 -35.5 107.6 -35.65 Q109.9 -36.8 111.9 -38.25" fill="#666192" fill-rule="evenodd" stroke="none"/>
    <path d="M111.9 -38.25 Q109.9 -36.8 107.6 -35.65 L107.5 -35.6 107.5 -35.5 Q91.8 -36.6 89.1 -40.2 87.85 -41.85 87.15 -43.3 89.35 -43.3 91.6 -44.05 94.0 -42.4 97.75 -42.3 L105.4 -42.75 105.7 -42.8 107.2 -42.8 112.45 -43.05 Q112.3 -42.55 112.3 -41.85 L112.15 -38.95 112.1 -38.35 111.9 -38.25" fill="#5f5986" fill-rule="evenodd" stroke="none"/>
    <path d="M112.45 -43.05 L107.2 -42.8 105.7 -42.8 105.75 -42.9 106.55 -46.15 107.2 -45.75 Q109.25 -44.6 112.45 -43.05" fill="#3a1b1b" fill-rule="evenodd" stroke="none"/>
    <path d="M107.5 -35.5 L107.5 -35.6 107.55 -35.5 107.5 -35.5" fill="#5763a2" fill-rule="evenodd" stroke="none"/>
    <path d="M107.65 -35.5 L107.55 -35.5 107.5 -35.6 107.65 -35.5" fill="#738f56" fill-rule="evenodd" stroke="none"/>
    <path d="M107.6 -35.65 L107.65 -35.5 107.5 -35.6 107.6 -35.65" fill="#5e7546" fill-rule="evenodd" stroke="none"/>
    <path d="M78.75 6.55 L78.9 7.0 78.95 7.25 79.0 7.4 79.7 9.0 80.1 9.6 Q81.85 12.0 85.9 14.15 85.3 14.95 85.1 16.05 84.8 17.2 84.9 18.7 L85.25 21.25 84.5 20.9 Q81.1 19.25 79.1 17.1 L78.5 16.5 78.05 15.95 77.05 14.4 Q76.9 12.8 77.05 11.4 77.25 9.05 78.25 7.4 L78.45 7.0 78.75 6.55" fill="#ae654a" fill-rule="evenodd" stroke="none"/>
    <path d="M101.45 -65.8 L100.65 -68.45 99.1 -66.45 94.45 -75.6 87.4 -67.45 87.0 -76.95 81.25 -73.85 79.95 -76.15 78.1 -74.6 Q76.2 -72.6 75.0 -69.45 74.25 -76.65 78.1 -85.55 81.95 -94.45 89.6 -93.8 119.85 -101.35 114.6 -66.0 113.65 -61.65 110.65 -57.65 L109.6 -56.3 Q110.2 -57.5 110.4 -58.75 L110.6 -60.3 110.55 -61.3 110.5 -61.75 110.6 -61.75 110.5 -62.2 Q110.4 -67.2 105.85 -63.35 L105.2 -61.85 Q104.65 -60.25 105.05 -58.95 L104.3 -55.05 104.25 -54.75 104.2 -54.95 101.45 -65.8" fill="#806660" fill-rule="evenodd" stroke="none"/>
    <path d="M110.5 -62.2 L110.6 -61.75 110.5 -61.75 110.5 -61.9 110.5 -62.2 M88.45 -65.6 Q92.3 -70.1 97.3 -66.65 93.5 -67.9 88.45 -65.6 M78.7 -71.7 Q82.7 -72.45 83.35 -67.5 81.25 -71.25 78.7 -71.7" fill="#000033" fill-rule="evenodd" stroke="none"/>
    <path d="M71.6 -7.15 L71.05 -2.85 70.85 -2.5 Q70.1 -1.1 69.65 0.55 68.5 4.75 67.3 25.1 M67.45 25.2 L63.05 33.35 63.25 34.85 62.75 35.75 62.8 35.85 M70.5 34.15 L70.65 34.1 M74.55 24.4 L74.1 24.1 74.05 25.2 M72.2 -12.6 L71.6 -7.15 M107.2 -45.75 Q107.3 -48.1 107.75 -50.55 L107.8 -51.2 108.65 -54.65 106.7 -55.6 M124.05 0.5 L124.5 7.35 124.65 9.5 Q126.45 12.75 126.45 16.75 126.35 21.1 121.95 41.0 M121.85 41.05 L123.85 50.35 123.3 51.75 123.5 52.75 123.4 52.85 119.75 53.9 M70.9 39.4 L70.0 40.5 69.95 40.4 62.8 35.85 M124.85 12.0 L124.65 9.5 M114.1 0.05 L115.45 9.4 M115.75 37.8 Q117.35 30.7 116.1 23.55 114.95 16.95 115.85 13.35 L115.95 12.95 115.45 9.4 M110.4 50.85 L110.75 41.7 Q112.85 39.2 115.6 38.5 L115.75 37.8 M116.35 49.0 L116.5 49.1 M116.35 49.0 L114.4 53.4 115.2 55.3 115.3 55.25 119.75 53.9 M115.6 38.5 L115.45 39.2 M114.4 53.4 L110.4 50.85 M77.05 11.4 Q74.4 17.45 74.1 24.1 M71.15 37.95 L70.65 34.1" fill="none" stroke="#fb8264" stroke-linecap="round" stroke-linejoin="round" stroke-width="0.05"/>
    <path d="M80.4 -12.2 L81.1 -16.2 80.2 -18.05 79.25 -20.4 78.9 -21.35 Q76.8 -27.6 77.9 -33.8 M81.2 -42.7 Q74.5 -40.65 73.0 -34.5 71.5 -28.3 70.75 -24.1 L69.5 -13.9 Q70.8 -13.1 72.2 -12.6 75.95 -11.3 80.4 -12.2 L79.35 -5.95 Q77.8 4.4 78.75 6.55 M111.15 -4.65 L110.95 -6.75 109.95 -12.0 M118.85 -31.95 L116.55 -34.2 113.9 -36.7 113.2 -37.4 111.9 -38.25 Q109.9 -36.8 107.6 -35.65 M115.3 -33.8 Q117.3 -33.05 118.85 -31.95 123.05 -29.1 124.1 -23.95 L126.1 -12.25 127.0 -0.75 124.05 0.5 M111.9 -38.25 L112.1 -38.35 112.15 -38.95 112.3 -41.85 Q112.3 -42.55 112.45 -43.05 L107.2 -42.8 105.7 -42.8 105.4 -42.75 97.75 -42.3 Q94.0 -42.4 91.6 -44.05 M87.15 -43.3 Q87.85 -41.85 89.1 -40.2 91.8 -36.6 107.5 -35.5 L107.5 -35.6 107.6 -35.65 M85.0 -43.5 L81.35 -42.95 M113.25 -0.25 L111.35 -1.05 111.15 -4.65 M108.25 14.7 Q109.65 13.75 110.9 11.0 L112.05 2.0 113.25 -0.25 114.1 0.05 Q119.45 1.85 124.05 0.5" fill="none" stroke="#434262" stroke-linecap="round" stroke-linejoin="round" stroke-width="0.05"/>
    <path d="M71.95 34.1 Q73.1 29.1 74.55 24.4 L75.5 21.45 M119.75 53.9 L121.25 59.65 M68.7 59.65 L68.6 59.15 Q69.15 48.8 70.9 39.4 L71.15 37.95 71.95 34.1 M107.95 21.35 L109.85 21.0 110.55 22.5 111.8 25.3 Q113.15 28.15 115.75 37.8 M94.45 31.5 L94.6 30.2 M94.25 34.0 L94.1 31.5 M94.45 31.5 L94.25 34.0 Q93.3 46.35 94.85 59.65" fill="none" stroke="#49614b" stroke-linecap="round" stroke-linejoin="round" stroke-width="0.05"/>
    <path d="M78.75 6.55 L78.9 7.0 78.95 7.25 79.0 7.4 79.7 9.0 80.1 9.6 Q81.85 12.0 85.9 14.15 L86.3 14.25 87.05 14.6 92.0 15.65 92.45 15.75 102.8 16.5 103.0 16.4 103.65 16.35 M110.55 22.5 Q110.1 20.15 109.45 18.6 L109.2 18.75 108.6 21.0 Q108.25 21.15 107.95 21.35 101.3 24.6 91.7 23.15 L89.25 22.7 85.25 21.25 84.5 20.9 Q87.0 30.3 91.7 31.6 L94.1 31.5 94.45 31.5 M109.2 18.75 Q109.35 16.6 108.25 14.7 106.5 15.95 103.65 16.35 M91.7 31.6 Q86.55 30.45 83.15 29.0 L82.4 28.65 M78.75 6.55 L78.45 7.0 78.25 7.4 Q77.25 9.05 77.05 11.4 76.9 12.8 77.05 14.4 L78.05 15.95 78.5 16.5 79.1 17.1 Q81.1 19.25 84.5 20.9 M76.0 19.9 Q76.05 17.25 76.75 13.9 77.1 15.15 78.0 16.05 L78.5 16.5 M76.0 19.9 L76.0 20.1 76.2 22.65 76.35 23.3" fill="none" stroke="#5a5430" stroke-linecap="round" stroke-linejoin="round" stroke-width="0.05"/>
    <path d="M107.55 -35.5 L107.5 -35.5 M107.55 -35.5 L107.5 -35.6" fill="none" stroke="#313a59" stroke-linecap="round" stroke-linejoin="round" stroke-width="0.05"/>
    <path d="M106.55 -46.15 L107.2 -45.75 Q109.25 -44.6 112.45 -43.05" fill="none" stroke="#421e1e" stroke-linecap="round" stroke-linejoin="round" stroke-width="0.05"/>
    <path d="M78.1 -74.6 L77.9 -71.85 77.8 -67.5 77.7 -61.3 Q79.65 -49.95 84.75 -43.55 L85.0 -43.5 87.15 -43.3 M82.55 -65.35 Q83.3 -62.6 83.2 -60.65 83.05 -59.15 82.4 -58.15 83.2 -57.25 84.35 -56.75 M83.55 -53.45 Q86.15 -51.5 90.75 -50.6 M106.95 -61.55 L107.3 -62.2 108.0 -63.1 M110.45 -60.5 L110.55 -61.3 M106.7 -55.6 Q108.4 -55.95 109.4 -57.0 L109.8 -57.85 109.8 -58.0 109.85 -58.25 110.2 -59.1 110.35 -59.95 110.45 -60.5 M110.35 -59.95 L110.6 -60.3 M106.95 -61.55 L106.65 -60.25 106.55 -59.75 Q107.3 -59.45 107.85 -58.55 M106.7 -55.6 L104.6 -55.4 104.3 -55.05 M91.6 -44.05 Q89.35 -43.3 87.15 -43.3 M104.2 -54.95 L97.05 -47.05 Q94.3 -44.95 91.6 -44.05" fill="none" stroke="#d7995e" stroke-linecap="round" stroke-linejoin="round" stroke-width="0.05"/>
    <path d="M101.45 -65.8 L100.65 -68.45 99.1 -66.45 94.45 -75.6 87.4 -67.45 87.0 -76.95 81.25 -73.85 79.95 -76.15 78.1 -74.6 M101.45 -65.8 L104.2 -54.95 104.25 -54.75 104.3 -55.05 105.05 -58.95 Q104.65 -60.25 105.2 -61.85 L105.85 -63.35 Q110.4 -67.2 110.5 -62.2 L110.6 -61.75 110.5 -61.75 110.55 -61.3 110.6 -60.3 110.4 -58.75 Q110.2 -57.5 109.6 -56.3 L110.65 -57.65 Q113.65 -61.65 114.6 -66.0 119.85 -101.35 89.6 -93.8 81.95 -94.45 78.1 -85.55 74.25 -76.65 75.0 -69.45 76.2 -72.6 78.1 -74.6" fill="none" stroke="#3b240e" stroke-linecap="round" stroke-linejoin="round" stroke-width="0.05"/>
    <path d="M110.5 -62.2 L110.5 -61.9 110.5 -61.75" fill="none" stroke="#1f1e3c" stroke-linecap="round" stroke-linejoin="round" stroke-width="0.05"/>
    <path d="M93.25 -61.5 L93.6 -62.0 93.1 -62.8 92.3 -62.95 91.65 -62.8 91.45 -62.45 91.15 -62.15 Q90.65 -61.5 90.65 -60.7 90.65 -59.85 91.15 -59.05 91.45 -58.55 92.1 -58.4 L93.1 -59.05 93.4 -60.7 93.25 -61.5 M91.65 -57.25 L90.65 -58.1 Q90.0 -59.2 90.0 -60.7 90.0 -62.15 90.65 -63.1 91.15 -64.1 92.1 -64.1 92.95 -64.1 93.6 -63.1 94.05 -62.15 94.05 -60.7 94.05 -59.2 93.6 -58.1 92.95 -57.1 92.1 -57.1 91.8 -57.1 91.65 -57.25" fill="#0099ff" fill-rule="evenodd" stroke="none"/>
    <path d="M91.45 -62.45 L91.65 -62.8 92.3 -62.95 93.1 -62.8 93.6 -62.0 93.25 -61.5 93.1 -61.15 Q92.75 -60.85 92.3 -60.85 91.95 -60.85 91.65 -61.15 91.15 -61.5 91.15 -62.0 L91.45 -62.45 M92.1 -57.1 Q92.95 -57.1 93.6 -58.1 94.05 -59.2 94.05 -60.7 94.05 -62.15 93.6 -63.1 92.95 -64.1 92.1 -64.1 91.15 -64.1 90.65 -63.1 90.0 -62.15 90.0 -60.7 90.0 -59.2 90.65 -58.1 L91.65 -57.25 89.05 -58.1 Q89.2 -62.15 90.5 -64.55 95.7 -64.4 96.5 -57.6 94.55 -56.8 92.1 -57.1" fill="#ffffff" fill-rule="evenodd" stroke="none"/>
    <path d="M93.25 -61.5 L93.4 -60.7 93.1 -59.05 92.1 -58.4 Q91.45 -58.55 91.15 -59.05 90.65 -59.85 90.65 -60.7 90.65 -61.5 91.15 -62.15 L91.45 -62.45 91.15 -62.0 Q91.15 -61.5 91.65 -61.15 91.95 -60.85 92.3 -60.85 92.75 -60.85 93.1 -61.15 L93.25 -61.5" fill="#000000" fill-rule="evenodd" stroke="none"/>
    <path d="M92.1 -57.1 Q94.55 -56.8 96.5 -57.6 95.7 -64.4 90.5 -64.55 89.2 -62.15 89.05 -58.1 L91.65 -57.25 Q91.8 -57.1 92.1 -57.1" fill="none" stroke="#d7995e" stroke-linecap="round" stroke-linejoin="round" stroke-width="0.05"/>
    <path d="M81.9 -65.55 L81.9 -64.55 81.75 -63.45 Q81.25 -62.8 80.95 -62.8 80.45 -62.8 80.3 -63.45 79.95 -63.9 79.95 -64.75 79.95 -65.55 80.3 -66.05 L80.45 -66.2 Q80.3 -66.2 80.45 -66.05 80.3 -65.55 80.6 -65.2 80.8 -64.9 81.25 -64.9 L81.75 -65.2 81.9 -65.4 81.9 -65.55" fill="#000000" fill-rule="evenodd" stroke="none"/>
    <path d="M81.9 -65.55 L81.9 -65.4 81.75 -65.2 81.25 -64.9 Q80.8 -64.9 80.6 -65.2 80.3 -65.55 80.45 -66.05 80.3 -66.2 80.45 -66.2 L80.6 -66.5 81.25 -67.0 81.75 -66.5 81.9 -66.05 81.9 -65.55 M80.6 -61.5 L80.95 -61.5 Q81.6 -61.5 82.05 -62.45 L82.55 -64.55 Q82.4 -66.05 82.05 -66.85 81.6 -67.8 80.95 -67.8 80.3 -67.8 79.8 -66.85 79.3 -66.05 79.5 -64.55 79.3 -63.45 79.8 -62.45 79.15 -63.25 78.65 -64.4 L78.65 -65.2 Q79.65 -70.55 82.25 -67.5 L82.55 -64.25 82.4 -60.5 Q81.45 -60.85 80.6 -61.5" fill="#ffffff" fill-rule="evenodd" stroke="none"/>
    <path d="M80.45 -66.2 L80.3 -66.05 Q79.95 -65.55 79.95 -64.75 79.95 -63.9 80.3 -63.45 80.45 -62.8 80.95 -62.8 81.25 -62.8 81.75 -63.45 L81.9 -64.55 81.9 -65.55 81.9 -66.05 81.75 -66.5 81.25 -67.0 80.6 -66.5 80.45 -66.2 M79.8 -62.45 Q79.3 -63.45 79.5 -64.55 79.3 -66.05 79.8 -66.85 80.3 -67.8 80.95 -67.8 81.6 -67.8 82.05 -66.85 82.4 -66.05 82.55 -64.55 L82.05 -62.45 Q81.6 -61.5 80.95 -61.5 L80.6 -61.5 Q80.15 -61.8 79.8 -62.45" fill="#0099ff" fill-rule="evenodd" stroke="none"/>
    <path d="M79.8 -62.45 Q80.15 -61.8 80.6 -61.5 81.45 -60.85 82.4 -60.5 L82.55 -64.25 82.25 -67.5 Q79.65 -70.55 78.65 -65.2 M78.65 -64.4 Q79.15 -63.25 79.8 -62.45" fill="none" stroke="#d7995e" stroke-linecap="round" stroke-linejoin="round" stroke-width="0.05"/>
  </g>
</svg>
