<?xml version="1.0" encoding="UTF-8" standalone="no"?>
<svg xmlns:xlink="http://www.w3.org/1999/xlink" height="179.65px" width="103.25px" xmlns="http://www.w3.org/2000/svg">
  <g transform="matrix(1, 0, 0, 1, -57.15, 112.0)">
    <path d="M124.35 -65.75 L122.45 -62.15 122.25 -61.3 122.0 -60.25 121.9 -59.95 121.8 -59.8 121.45 -58.85 Q120.85 -57.3 118.15 -57.0 L117.85 -55.35 117.75 -54.65 Q117.25 -50.1 117.9 -45.8 L95.15 -43.1 95.1 -43.15 95.0 -43.3 Q100.75 -43.6 106.6 -46.15 L116.5 -56.95 118.15 -57.0 116.5 -56.95 106.6 -46.15 Q100.75 -43.6 95.0 -43.3 L94.85 -43.3 94.95 -43.35 Q103.0 -46.9 111.65 -60.6 L110.0 -68.25 111.55 -68.75 112.35 -65.7 112.5 -65.1 112.85 -63.95 114.3 -57.8 114.6 -60.8 114.95 -63.0 115.45 -65.95 115.7 -66.95 115.85 -67.45 115.95 -67.45 115.85 -66.9 116.55 -68.05 116.65 -68.05 118.05 -68.6 Q117.15 -68.1 116.65 -67.1 L116.3 -66.3 116.2 -65.75 116.1 -65.6 116.05 -64.95 Q116.4 -63.75 118.4 -64.05 L118.8 -64.75 119.7 -65.75 Q121.15 -65.2 121.9 -64.1 L121.75 -63.3 121.7 -62.9 121.3 -61.75 121.05 -61.05 120.35 -59.5 121.2 -60.5 121.55 -61.0 122.0 -61.6 122.5 -62.35 124.35 -65.75 M132.2 -37.15 L134.75 -35.9 134.45 -35.8 132.55 -35.0 Q127.55 -32.4 126.3 -25.95 128.85 -19.1 132.0 -14.75 134.8 -10.7 138.1 -8.6 139.4 -7.8 140.85 -7.3 142.8 -6.6 144.9 -6.5 L149.45 -6.95 150.2 -7.35 151.45 -8.05 151.7 -8.2 153.0 -9.1 Q154.9 -10.75 155.8 -12.8 L155.5 -11.1 Q155.1 -9.05 154.35 -7.4 L154.3 -7.25 154.2 -7.05 153.6 -6.0 153.15 -5.4 152.8 -4.9 Q151.3 -2.8 148.85 -1.5 L148.35 -1.25 Q143.6 0.9 138.25 -1.55 L137.7 -1.85 Q136.3 -2.55 135.1 -3.5 L135.05 -3.55 134.1 -4.3 133.8 -4.1 133.65 -1.85 Q131.95 -0.05 129.8 1.35 126.0 -1.7 124.0 -5.1 121.15 -15.2 128.05 -32.25 L128.6 -33.1 Q130.9 -35.0 132.2 -37.15 M130.65 67.65 L124.15 67.65 121.15 65.65 120.95 65.55 121.9 62.7 128.0 60.65 121.9 62.7 119.65 55.2 126.45 58.0 128.0 60.65 128.1 60.95 129.45 63.6 130.65 67.65 M76.7 43.45 L74.75 50.1 75.6 52.6 75.4 52.7 65.6 59.25 68.1 50.85 69.25 48.55 69.35 48.25 70.7 45.9 76.7 43.45 M70.8 -24.15 L70.45 -25.4 71.05 -24.5 Q72.3 -22.75 74.6 -21.5 L74.85 -21.4 Q75.25 -21.2 75.75 -20.95 L75.9 -19.75 Q76.15 -17.95 76.65 -16.25 75.05 -17.15 73.9 -18.5 L73.55 -18.9 73.1 -19.45 72.45 -20.3 72.35 -20.5 Q71.45 -22.0 70.9 -23.85 L70.8 -24.15 M122.45 -62.15 L122.5 -62.35 122.45 -62.15 M119.8 -60.5 Q119.05 -61.6 118.0 -62.0 L118.1 -62.55 118.4 -64.05 118.1 -62.55 118.0 -62.0 Q119.05 -61.6 119.8 -60.5 M118.05 -59.65 L118.0 -59.95 118.0 -62.0 118.0 -59.95 118.05 -59.65 M128.6 -11.55 Q130.8 -7.1 134.1 -4.3 130.8 -7.1 128.6 -11.55 M74.75 50.1 L69.35 48.25 74.75 50.1" fill="#c89a6c" fill-rule="evenodd" stroke="none"/>
    <path d="M117.9 -45.8 L118.3 -43.9 120.85 -42.55 Q118.95 -40.55 114.65 -38.45 L113.3 -37.85 Q108.45 -35.7 102.0 -35.0 L99.35 -34.8 99.2 -34.8 95.25 -34.75 91.8 -35.05 Q90.0 -35.4 89.25 -36.05 L88.95 -36.4 Q87.35 -37.95 87.25 -39.8 L87.25 -39.9 Q87.1 -41.65 88.45 -44.05 L88.95 -44.9 90.2 -46.55 88.9 -49.3 87.7 -51.95 84.55 -69.85 84.6 -73.8 85.25 -73.65 85.45 -75.85 Q88.35 -75.1 90.15 -71.85 89.95 -74.65 89.0 -77.2 L85.65 -76.8 Q86.85 -82.05 91.95 -83.3 L91.95 -79.7 95.05 -80.95 Q98.55 -80.75 98.6 -76.9 100.45 -76.55 102.2 -81.1 106.35 -80.35 106.4 -72.55 103.8 -74.6 103.25 -74.75 98.8 -72.7 96.5 -70.0 100.8 -71.95 106.4 -70.75 L106.2 -68.5 Q107.9 -69.0 108.95 -70.05 L110.1 -69.6 109.2 -70.35 Q110.05 -71.45 110.25 -73.1 L110.55 -72.25 111.35 -69.35 111.55 -68.75 110.0 -68.25 111.65 -60.6 Q103.0 -46.9 94.95 -43.35 L94.85 -43.3 95.0 -43.3 95.1 -43.15 95.15 -43.1 117.9 -45.8 M134.75 -35.9 Q139.15 -37.2 143.95 -34.8 150.1 -31.95 153.5 -25.0 156.5 -18.85 155.8 -12.8 154.9 -10.75 153.0 -9.1 L151.7 -8.2 151.45 -8.05 150.2 -7.35 149.45 -6.95 144.9 -6.5 Q142.8 -6.6 140.85 -7.3 139.4 -7.8 138.1 -8.6 134.8 -10.7 132.0 -14.75 128.85 -19.1 126.3 -25.95 127.55 -32.4 132.55 -35.0 L134.45 -35.8 134.75 -35.9 M154.35 -7.4 Q158.75 -1.05 157.5 7.95 158.65 11.95 158.85 14.75 L159.05 14.8 Q162.3 20.65 157.65 30.9 L144.25 50.8 Q143.3 50.95 142.1 51.7 L141.75 51.95 139.75 50.75 138.55 49.8 Q136.35 48.0 133.9 45.0 136.75 36.25 137.95 28.6 138.7 23.7 140.3 20.4 133.15 13.55 133.65 -1.85 L133.8 -4.1 134.1 -4.3 135.05 -3.55 135.1 -3.5 Q136.3 -2.55 137.7 -1.85 L138.25 -1.55 Q143.6 0.9 148.35 -1.25 L148.85 -1.5 Q151.3 -2.8 152.8 -4.9 L153.15 -5.4 153.6 -6.0 154.2 -7.05 154.3 -7.25 154.35 -7.4 M138.6 64.45 L136.9 67.65 130.65 67.65 129.45 63.6 128.1 60.95 128.0 60.65 126.45 58.0 119.65 55.2 128.45 46.45 130.45 46.6 131.1 46.75 Q130.05 48.15 129.7 49.95 129.5 51.8 130.9 53.15 L131.65 53.75 131.5 54.9 131.6 55.35 Q132.45 58.2 134.9 59.7 L136.1 60.2 135.95 60.8 Q135.8 63.25 137.35 64.05 137.9 64.45 138.6 64.45 M81.25 18.05 L77.2 27.9 77.5 27.15 Q75.25 25.85 72.85 24.95 69.2 23.6 65.15 23.05 L61.75 22.7 61.85 14.9 Q62.65 7.2 64.8 3.5 59.35 -7.4 70.8 -24.15 L70.9 -23.85 Q71.45 -22.0 72.35 -20.5 L72.45 -20.3 73.1 -19.45 73.55 -18.9 73.9 -18.5 Q75.05 -17.15 76.65 -16.25 77.8 -12.7 80.15 -9.6 L80.45 -9.25 82.8 -6.4 82.55 2.6 80.8 5.7 81.95 11.55 81.25 18.05 M72.55 39.3 L76.7 43.45 70.7 45.9 69.35 48.25 69.25 48.55 68.1 50.85 65.6 59.25 65.45 59.3 64.85 58.2 63.1 57.6 57.15 46.2 Q56.85 40.1 60.7 38.95 L61.25 38.5 61.25 39.25 63.0 40.15 67.75 42.4 70.7 43.8 72.55 39.3 M70.45 -25.4 Q69.25 -30.8 71.45 -36.5 73.85 -42.95 79.2 -45.9 80.85 -46.9 82.55 -47.35 L82.45 -47.3 82.25 -47.25 81.95 -46.85 Q79.75 -44.9 78.55 -42.65 L78.15 -41.95 77.9 -41.35 77.7 -40.9 Q77.05 -39.25 77.05 -37.7 76.05 -34.8 75.75 -31.95 75.1 -26.3 75.75 -20.95 75.25 -21.2 74.85 -21.4 L74.6 -21.5 Q72.3 -22.75 71.05 -24.5 L70.45 -25.4 M73.15 3.15 L75.85 -0.75 Q78.35 -4.85 80.15 -9.6 78.35 -4.85 75.85 -0.75 L73.15 3.15 M121.75 -67.5 L121.9 -66.4 122.0 -64.7 121.9 -64.3 121.9 -64.1 Q121.15 -65.2 119.7 -65.75 L118.8 -64.75 118.4 -64.05 Q116.4 -63.75 116.05 -64.95 L116.1 -65.6 116.2 -65.75 116.3 -66.3 116.65 -67.1 Q117.15 -68.1 118.05 -68.6 121.3 -69.7 121.75 -67.5 M96.0 -74.8 L95.9 -75.0 95.55 -75.1 Q95.4 -75.1 95.3 -74.95 L93.75 -73.0 92.2 -75.4 92.0 -75.55 91.65 -75.5 91.5 -75.25 91.55 -74.95 93.1 -72.45 91.5 -70.65 91.4 -70.3 91.5 -70.0 91.8 -69.9 92.1 -70.0 93.6 -71.65 94.8 -69.9 95.0 -69.75 95.35 -69.85 95.5 -70.1 95.45 -70.4 94.1 -72.35 95.95 -74.45 96.0 -74.8 M100.35 -61.05 Q103.05 -60.55 105.0 -61.5 103.9 -68.65 98.5 -68.8 97.15 -66.2 97.15 -62.0 L99.75 -61.15 100.35 -61.05 M88.25 -65.75 Q89.05 -65.05 90.05 -64.6 L90.15 -64.6 90.25 -65.5 90.25 -68.45 89.75 -71.9 Q86.8 -75.1 86.1 -69.1 L86.1 -68.8 86.1 -68.75 87.4 -66.6 Q87.75 -65.95 88.25 -65.75 M89.35 -57.9 L90.05 -64.6 89.35 -57.9 M101.15 -51.15 L94.85 -52.45 Q90.9 -53.45 88.3 -54.75 90.9 -53.45 94.85 -52.45 L101.15 -51.15 M90.2 -46.55 L90.7 -45.5 Q91.85 -44.55 94.85 -43.3 91.85 -44.55 90.7 -45.5 L90.2 -46.55 M143.85 23.0 Q141.9 21.9 140.3 20.4 141.9 21.9 143.85 23.0 M150.65 18.45 L150.95 13.5 Q150.9 6.45 148.35 -1.25 150.9 6.45 150.95 13.5 L150.65 18.45 M158.55 18.0 Q158.95 16.7 158.85 14.75 158.95 16.7 158.55 18.0 M132.3 48.2 L132.5 48.9 132.55 49.05 132.45 49.0 132.25 48.95 132.3 48.2 M132.45 49.0 L132.5 48.9 132.45 49.0 M130.5 54.1 L130.9 53.15 130.5 54.1 M65.05 3.95 L64.8 3.5 65.05 3.95 M80.0 6.55 L80.8 5.7 80.0 6.55" fill="#d1ab86" fill-rule="evenodd" stroke="none"/>
    <path d="M61.25 38.5 L61.7 22.7 61.75 22.7 65.15 23.05 63.0 40.15 61.25 39.25 61.25 38.5 M78.1 -33.7 Q81.7 -37.55 86.55 -39.55 L87.25 -39.8 Q87.35 -37.95 88.95 -36.4 L88.9 -36.35 Q85.3 -33.8 83.15 -29.15 L81.85 -29.95 Q79.3 -31.7 78.1 -33.7 M99.35 -34.8 L99.35 -34.7 99.2 -34.8 99.35 -34.8 M95.25 -34.75 L94.4 -32.85 Q93.05 -29.4 93.2 -25.8 L88.0 -27.0 Q88.95 -31.7 91.25 -34.45 L91.8 -35.05 95.25 -34.75" fill="#ede78f" fill-rule="evenodd" stroke="none"/>
    <path d="M77.05 -37.7 Q77.05 -39.25 77.7 -40.9 L77.9 -41.35 78.15 -41.95 78.55 -42.65 79.5 -43.05 Q83.0 -44.5 86.0 -44.4 L88.45 -44.05 Q87.1 -41.65 87.25 -39.9 L87.25 -39.8 86.55 -39.55 Q81.7 -37.55 78.1 -33.7 77.0 -35.6 77.05 -37.7 M124.65 -30.5 Q122.85 -29.45 120.65 -28.55 112.55 -25.2 101.65 -25.2 L100.25 -25.2 98.1 -25.25 93.2 -25.8 Q93.05 -29.4 94.4 -32.85 L95.25 -34.75 99.2 -34.8 99.35 -34.7 99.35 -34.8 102.0 -35.0 Q108.45 -35.7 113.3 -37.85 L114.65 -38.45 Q117.35 -37.7 119.35 -36.6 123.75 -34.25 124.65 -30.5 M88.0 -27.0 Q85.3 -27.85 83.15 -29.15 85.3 -33.8 88.9 -36.35 L88.95 -36.4 89.25 -36.05 Q90.0 -35.4 91.8 -35.05 L91.25 -34.45 Q88.95 -31.7 88.0 -27.0 M65.15 23.05 Q69.2 23.6 72.85 24.95 L67.75 42.4 63.0 40.15 65.15 23.05" fill="#bea410" fill-rule="evenodd" stroke="none"/>
    <path d="M120.85 -42.55 L121.25 -43.0 Q129.25 -41.85 132.2 -37.15 130.9 -35.0 128.6 -33.1 L127.75 -32.45 Q126.35 -31.45 124.65 -30.5 123.75 -34.25 119.35 -36.6 117.35 -37.7 114.65 -38.45 118.95 -40.55 120.85 -42.55 M77.2 27.9 L72.55 39.3 70.7 43.8 67.75 42.4 72.85 24.95 Q75.25 25.85 77.5 27.15 L77.2 27.9 M82.55 -47.35 Q85.75 -49.2 88.9 -49.3 L90.2 -46.55 88.95 -44.9 88.45 -44.05 86.0 -44.4 Q83.0 -44.5 79.5 -43.05 L78.55 -42.65 Q79.75 -44.9 81.95 -46.85 L82.45 -47.3 82.55 -47.35" fill="#4c570b" fill-rule="evenodd" stroke="none"/>
    <path d="M120.15 67.65 L82.3 67.65 86.1 30.85 Q87.9 31.9 90.1 32.75 90.75 34.1 91.95 35.3 94.65 37.95 98.45 37.9 101.75 37.95 104.25 35.85 L117.0 35.45 120.15 67.65 M81.0 19.95 L81.25 18.05 81.95 11.55 82.55 2.6 82.8 -6.4 80.45 -9.25 80.15 -9.6 Q77.8 -12.7 76.65 -16.25 76.15 -17.95 75.9 -19.75 L75.75 -20.95 Q75.1 -26.3 75.75 -31.95 76.05 -34.8 77.05 -37.7 77.0 -35.6 78.1 -33.7 79.3 -31.7 81.85 -29.95 L83.15 -29.15 Q85.3 -27.85 88.0 -27.0 L93.2 -25.8 98.1 -25.25 100.25 -25.2 101.65 -25.2 Q112.55 -25.2 120.65 -28.55 122.85 -29.45 124.65 -30.5 126.35 -31.45 127.75 -32.45 L128.05 -32.25 Q121.15 -15.2 124.0 -5.1 L118.65 -3.3 Q118.65 12.95 120.55 26.8 L120.55 27.05 116.2 27.3 Q111.55 27.45 107.35 27.25 L107.3 26.95 106.65 24.95 Q105.95 23.55 104.8 22.4 L103.65 21.4 Q102.6 20.65 101.4 20.3 L98.45 19.8 97.9 19.85 96.95 19.95 Q94.1 20.35 91.9 22.35 90.85 23.45 90.2 24.7 L86.85 23.65 84.45 22.5 81.0 19.95 M81.95 -46.85 L82.25 -47.25 82.45 -47.3 81.95 -46.85 M93.5 -3.1 L93.45 -3.1 93.5 -3.05 93.5 -3.1 M107.35 -3.55 Q98.7 -10.1 88.5 -7.45 98.7 -10.1 107.35 -3.55" fill="#553817" fill-rule="evenodd" stroke="none"/>
    <path d="M124.15 67.65 L120.15 67.65 117.0 35.45 Q122.8 34.6 127.35 32.45 L127.2 33.4 128.7 38.3 130.45 46.6 128.45 46.45 119.65 55.2 121.9 62.7 120.95 65.55 121.15 65.65 124.15 67.65 M82.3 67.65 L76.7 67.65 78.15 59.7 Q79.2 53.8 80.25 39.2 80.55 34.1 81.45 30.25 L81.55 29.7 81.2 27.0 84.0 29.5 86.1 30.85 82.3 67.65" fill="#b7c6a5" fill-rule="evenodd" stroke="none"/>
    <path d="M127.75 -32.45 L128.6 -33.1 128.05 -32.25 127.75 -32.45 M124.0 -5.1 Q126.0 -1.7 129.8 1.35 L127.0 2.9 Q124.15 14.8 126.95 24.3 125.45 25.35 123.25 26.2 L120.55 27.05 120.55 26.8 Q118.65 12.95 118.65 -3.3 L124.0 -5.1" fill="#382510" fill-rule="evenodd" stroke="none"/>
    <path d="M120.55 27.05 L123.25 26.2 Q125.45 25.35 126.95 24.3 129.9 27.65 128.35 31.95 L127.35 32.45 Q122.8 34.6 117.0 35.45 L104.25 35.85 104.8 35.3 Q107.45 32.65 107.45 28.85 L107.35 27.25 Q111.55 27.45 116.2 27.3 L120.55 27.05" fill="#684942" fill-rule="evenodd" stroke="none"/>
    <path d="M81.2 27.0 L80.7 26.4 Q80.1 23.85 81.0 19.95 L84.45 22.5 86.85 23.65 90.2 24.7 Q89.25 26.55 89.25 28.8 89.25 30.95 90.1 32.75 87.9 31.9 86.1 30.85 L84.0 29.5 81.2 27.0" fill="#956c5e" fill-rule="evenodd" stroke="none"/>
    <path d="M99.5 -66.55 L99.75 -66.85 Q100.0 -67.2 100.45 -67.15 100.95 -67.2 101.3 -66.85 L101.7 -66.05 101.55 -65.5 101.3 -65.2 Q101.0 -64.9 100.5 -64.9 100.05 -64.9 99.75 -65.2 99.35 -65.6 99.3 -66.05 L99.5 -66.55 M100.35 -61.05 Q101.25 -61.05 101.9 -62.05 102.45 -63.15 102.4 -64.65 102.35 -66.2 101.75 -67.25 101.05 -68.3 100.15 -68.25 99.25 -68.3 98.65 -67.25 98.1 -66.2 98.15 -64.65 98.15 -63.15 98.8 -62.05 99.2 -61.4 99.75 -61.15 L97.15 -62.0 Q97.15 -66.2 98.5 -68.8 103.9 -68.65 105.0 -61.5 103.05 -60.55 100.35 -61.05 M88.25 -65.75 L88.6 -65.7 Q89.3 -65.7 89.75 -66.6 90.2 -67.55 90.2 -68.9 90.1 -70.25 89.6 -71.2 89.1 -72.15 88.45 -72.1 87.7 -72.15 87.2 -71.2 86.8 -70.25 86.9 -68.9 86.9 -67.55 87.4 -66.6 L86.1 -68.75 86.1 -69.1 Q86.8 -75.1 89.75 -71.9 L90.25 -68.45 90.25 -65.5 90.05 -64.6 90.25 -65.5 90.15 -64.6 90.05 -64.6 Q89.05 -65.05 88.25 -65.75 M89.5 -69.75 L89.45 -69.6 89.35 -69.45 Q89.1 -69.15 88.7 -69.15 88.35 -69.15 88.1 -69.45 87.8 -69.8 87.8 -70.25 L87.9 -70.55 88.1 -70.95 88.65 -71.25 89.35 -70.95 89.55 -70.25 89.5 -69.75" fill="#ffffff" fill-rule="evenodd" stroke="none"/>
    <path d="M101.55 -65.5 L101.7 -64.65 Q101.7 -63.75 101.3 -63.1 100.9 -62.45 100.35 -62.45 99.75 -62.45 99.25 -63.1 98.85 -63.8 98.85 -64.75 98.8 -65.6 99.15 -66.25 L99.5 -66.55 99.3 -66.05 Q99.35 -65.6 99.75 -65.2 100.05 -64.9 100.5 -64.9 101.0 -64.9 101.3 -65.2 L101.55 -65.5 M87.9 -70.55 L87.8 -70.25 Q87.8 -69.8 88.1 -69.45 88.35 -69.15 88.7 -69.15 89.1 -69.15 89.35 -69.45 L89.45 -69.6 89.5 -69.75 89.65 -68.9 89.35 -67.55 Q89.0 -66.95 88.5 -66.95 88.1 -66.95 87.75 -67.55 87.45 -68.15 87.45 -69.0 87.4 -69.75 87.65 -70.3 L87.9 -70.55" fill="#000000" fill-rule="evenodd" stroke="none"/>
    <path d="M101.55 -65.5 L101.7 -66.05 101.3 -66.85 Q100.95 -67.2 100.45 -67.15 100.0 -67.2 99.75 -66.85 L99.5 -66.55 99.15 -66.25 Q98.8 -65.6 98.85 -64.75 98.85 -63.8 99.25 -63.1 99.75 -62.45 100.35 -62.45 100.9 -62.45 101.3 -63.1 101.7 -63.75 101.7 -64.65 L101.55 -65.5 M99.75 -61.15 Q99.2 -61.4 98.8 -62.05 98.15 -63.15 98.15 -64.65 98.1 -66.2 98.65 -67.25 99.25 -68.3 100.15 -68.25 101.05 -68.3 101.75 -67.25 102.35 -66.2 102.4 -64.65 102.45 -63.15 101.9 -62.05 101.25 -61.05 100.35 -61.05 L99.75 -61.15 M87.4 -66.6 Q86.9 -67.55 86.9 -68.9 86.8 -70.25 87.2 -71.2 87.7 -72.15 88.45 -72.1 89.1 -72.15 89.6 -71.2 90.1 -70.25 90.2 -68.9 90.2 -67.55 89.75 -66.6 89.3 -65.7 88.6 -65.7 L88.25 -65.75 Q87.75 -65.95 87.4 -66.6 M87.9 -70.55 L87.65 -70.3 Q87.4 -69.75 87.45 -69.0 87.45 -68.15 87.75 -67.55 88.1 -66.95 88.5 -66.95 89.0 -66.95 89.35 -67.55 L89.65 -68.9 89.5 -69.75 89.55 -70.25 89.35 -70.95 88.65 -71.25 88.1 -70.95 87.9 -70.55" fill="#0099ff" fill-rule="evenodd" stroke="none"/>
    <path d="M96.0 -74.8 L95.95 -74.45 94.1 -72.35 95.45 -70.4 95.5 -70.1 95.35 -69.85 95.0 -69.75 94.8 -69.9 93.6 -71.65 92.1 -70.0 91.8 -69.9 91.5 -70.0 91.4 -70.3 91.5 -70.65 93.1 -72.45 91.55 -74.95 91.5 -75.25 91.65 -75.5 92.0 -75.55 92.2 -75.4 93.75 -73.0 95.3 -74.95 Q95.4 -75.1 95.55 -75.1 L95.9 -75.0 96.0 -74.8" fill="#634527" fill-rule="evenodd" stroke="none"/>
    <path d="M85.45 -75.85 L83.05 -76.15 85.65 -76.8 89.0 -77.2 Q89.95 -74.65 90.15 -71.85 88.35 -75.1 85.45 -75.85 M106.4 -72.55 L106.4 -70.75 Q100.8 -71.95 96.5 -70.0 98.8 -72.7 103.25 -74.75 103.8 -74.6 106.4 -72.55 M108.95 -70.05 L109.1 -70.2 109.2 -70.35 110.1 -69.6 108.95 -70.05" fill="#000033" fill-rule="evenodd" stroke="none"/>
    <path d="M89.9 -109.85 L89.9 -110.8 99.55 -103.95 111.95 -112.0 113.2 -101.9 121.75 -104.1 119.75 -99.5 113.2 -97.9 111.95 -108.0 99.55 -99.9 89.9 -106.75 89.9 -109.85 M120.9 -98.1 L131.1 -95.4 127.8 -92.2 119.3 -94.45 120.9 -98.1 M127.35 -90.9 L131.1 -88.7 129.4 -88.7 126.75 -90.25 127.35 -90.9 M127.05 -87.8 L135.3 -75.95 132.5 -75.95 124.15 -87.85 127.05 -87.8 M127.9 -75.05 L130.8 -67.75 127.5 -69.5 125.35 -75.05 127.9 -75.05 M80.1 -82.05 L78.4 -82.95 80.25 -86.3 81.65 -84.85 80.1 -82.05 M79.65 -90.95 L77.0 -93.7 84.25 -97.2 86.5 -94.3 79.65 -90.95 M85.65 -97.9 L86.5 -98.35 82.9 -102.85 89.9 -100.55 89.9 -96.5 85.65 -97.9" fill="#936146" fill-rule="evenodd" stroke="none"/>
    <path d="M89.9 -106.75 L99.55 -99.9 111.95 -108.0 113.2 -97.9 119.75 -99.5 119.3 -98.5 120.9 -98.1 119.3 -94.45 127.8 -92.2 126.75 -91.2 127.35 -90.9 126.75 -90.25 129.4 -88.7 126.35 -88.8 127.05 -87.8 124.15 -87.85 132.5 -75.95 127.5 -75.95 127.9 -75.05 125.35 -75.05 127.5 -69.5 125.95 -70.4 124.85 -66.9 124.35 -65.75 122.5 -62.35 122.0 -61.6 121.55 -61.0 121.05 -61.05 121.3 -61.75 121.7 -62.9 121.75 -63.3 121.9 -64.1 121.9 -64.3 122.0 -64.7 121.9 -66.4 121.75 -67.5 Q121.3 -69.7 118.05 -68.6 L116.65 -68.05 116.55 -68.05 115.85 -66.9 115.95 -67.45 115.85 -67.45 115.7 -66.95 115.45 -65.95 114.95 -63.0 114.6 -60.8 114.3 -57.8 112.85 -63.95 112.5 -65.1 112.35 -65.7 111.55 -68.75 111.35 -69.35 110.55 -72.25 110.25 -73.1 Q110.05 -71.45 109.2 -70.35 L109.1 -70.2 108.95 -70.05 Q107.9 -69.0 106.2 -68.5 L106.4 -70.75 106.4 -72.55 Q106.35 -80.35 102.2 -81.1 100.45 -76.55 98.6 -76.9 98.55 -80.75 95.05 -80.95 L91.95 -79.7 91.95 -83.3 Q86.85 -82.05 85.65 -76.8 L83.05 -76.15 85.45 -75.85 85.25 -73.65 84.6 -73.8 Q82.85 -74.5 82.0 -77.35 81.55 -78.7 81.35 -80.5 L81.45 -80.7 81.6 -81.25 80.1 -82.05 81.65 -84.85 80.25 -86.3 81.65 -88.85 79.65 -90.95 86.5 -94.3 84.25 -97.2 85.65 -97.9 89.9 -96.5 89.9 -100.55 89.9 -106.75" fill="#4d2a2e" fill-rule="evenodd" stroke="none"/>
    <path d="M121.05 -61.05 L121.55 -61.0 121.2 -60.5 120.35 -59.5 121.05 -61.05" fill="#432e29" fill-rule="evenodd" stroke="none"/>
    <path d="M101.4 20.3 L98.15 23.25 97.15 23.0 96.25 22.95 95.15 23.1 96.95 19.95 97.9 19.85 98.45 19.8 101.4 20.3 M99.75 23.9 L103.65 21.4 104.8 22.4 Q105.95 23.55 106.65 24.95 L102.0 26.15 101.7 25.8 101.05 25.0 99.75 23.9 M96.85 27.1 Q96.8 28.0 96.2 28.6 95.5 29.35 94.55 29.3 93.75 29.25 93.2 28.6 L92.75 28.1 92.45 27.1 Q92.5 26.3 93.15 25.6 L93.55 25.3 Q93.9 25.05 94.3 25.05 L94.6 25.05 Q95.55 25.1 96.15 25.6 L96.4 25.9 96.85 27.1" fill="#ef2672" fill-rule="evenodd" stroke="none"/>
    <path d="M101.4 20.3 Q102.6 20.65 103.65 21.4 L99.75 23.9 Q99.0 23.45 98.15 23.25 L101.4 20.3 M106.65 24.95 L107.3 26.95 107.35 27.25 107.45 28.85 Q107.45 32.65 104.8 35.3 L104.25 35.85 Q101.75 37.95 98.45 37.9 94.65 37.95 91.95 35.3 90.75 34.1 90.1 32.75 89.25 30.95 89.25 28.8 89.25 26.55 90.2 24.7 90.85 23.45 91.9 22.35 94.1 20.35 96.95 19.95 L95.15 23.1 Q93.15 23.5 91.65 25.0 89.65 26.9 89.7 29.6 89.7 31.45 90.65 32.95 L91.7 34.3 Q93.6 36.3 96.3 36.2 98.1 36.2 99.55 35.45 L101.1 34.3 Q103.05 32.35 103.05 29.7 103.0 28.2 102.45 26.95 L102.4 26.85 102.0 26.15 106.65 24.95" fill="#760a3a" fill-rule="evenodd" stroke="none"/>
    <path d="M98.15 23.25 Q99.0 23.45 99.75 23.9 L101.05 25.0 101.7 25.8 102.0 26.15 102.4 26.85 102.45 26.95 Q103.0 28.2 103.05 29.7 103.05 32.35 101.1 34.3 L99.55 35.45 Q98.1 36.2 96.3 36.2 93.6 36.3 91.7 34.3 L90.65 32.95 Q89.7 31.45 89.7 29.6 89.65 26.9 91.65 25.0 93.15 23.5 95.15 23.1 L96.25 22.95 97.15 23.0 98.15 23.25 M96.85 27.1 L96.4 25.9 96.15 25.6 Q95.55 25.1 94.6 25.05 L94.3 25.05 Q93.9 25.05 93.55 25.3 L93.15 25.6 Q92.5 26.3 92.45 27.1 L92.75 28.1 93.2 28.6 Q93.75 29.25 94.55 29.3 95.5 29.35 96.2 28.6 96.8 28.0 96.85 27.1" fill="#580730" fill-rule="evenodd" stroke="none"/>
    <path d="M144.25 50.8 L146.05 50.95 Q147.4 51.95 147.0 54.35 146.75 56.95 144.85 59.55 143.2 62.25 140.95 63.5 139.65 64.4 138.6 64.45 137.9 64.45 137.35 64.05 135.8 63.25 135.95 60.8 L136.1 60.2 Q136.5 58.05 137.95 55.7 L138.25 55.3 Q139.85 53.25 141.75 51.95 L142.1 51.7 Q143.3 50.95 144.25 50.8 M131.1 46.75 L131.7 46.0 132.9 44.95 132.5 47.1 132.3 48.2 132.25 48.95 132.15 49.8 131.65 53.75 130.9 53.15 Q129.5 51.8 129.7 49.95 130.05 48.15 131.1 46.75" fill="#847d31" fill-rule="evenodd" stroke="none"/>
    <path d="M132.9 44.95 L133.15 44.9 134.4 49.8 132.55 49.05 132.5 48.9 132.3 48.2 132.5 47.1 132.9 44.95 M132.15 49.8 L132.15 49.85 133.2 55.15 133.2 55.4 131.6 55.35 131.5 54.9 131.65 53.75 132.15 49.8 M134.9 59.7 L133.9 55.2 136.55 54.55 135.9 50.7 139.75 50.75 141.75 51.95 Q139.85 53.25 138.25 55.3 L137.95 55.7 Q136.5 58.05 136.1 60.2 L134.9 59.7" fill="#c5c5c5" fill-rule="evenodd" stroke="none"/>
    <path d="M133.15 44.9 L133.0 44.7 133.1 44.15 133.65 44.7 133.9 45.0 Q136.35 48.0 138.55 49.8 L139.75 50.75 135.9 50.7 136.55 54.55 133.9 55.2 134.9 59.7 Q132.45 58.2 131.6 55.35 L133.2 55.4 133.2 55.15 132.15 49.85 132.15 49.8 132.25 48.95 132.45 49.0 132.55 49.05 134.4 49.8 133.15 44.9" fill="#e0e0e0" fill-rule="evenodd" stroke="none"/>
    <path d="M124.35 -65.75 L122.45 -62.15 122.25 -61.3 122.0 -60.25 121.9 -59.95 121.8 -59.8 121.45 -58.85 Q120.85 -57.3 118.15 -57.0 L117.85 -55.35 117.75 -54.65 Q117.25 -50.1 117.9 -45.8 L118.3 -43.9 120.85 -42.55 121.25 -43.0 Q129.25 -41.85 132.2 -37.15 L134.75 -35.9 Q139.15 -37.2 143.95 -34.8 150.1 -31.95 153.5 -25.0 156.5 -18.85 155.8 -12.8 L155.5 -11.1 Q155.1 -9.05 154.35 -7.4 158.75 -1.05 157.5 7.95 158.65 11.95 158.85 14.75 158.95 16.7 158.55 18.0 M138.6 64.45 L136.9 67.65 M81.25 18.05 L77.2 27.9 72.55 39.3 76.7 43.45 74.75 50.1 75.6 52.6 75.4 52.7 65.6 59.25 65.45 59.3 64.85 58.2 63.1 57.6 57.15 46.2 Q56.85 40.1 60.7 38.95 L61.25 38.5 M61.75 22.7 L61.85 14.9 Q62.65 7.2 64.8 3.5 59.35 -7.4 70.8 -24.15 L70.45 -25.4 Q69.25 -30.8 71.45 -36.5 73.85 -42.95 79.2 -45.9 80.85 -46.9 82.55 -47.35 85.75 -49.2 88.9 -49.3 L87.7 -51.95 84.55 -69.85 84.6 -73.8 M78.55 -42.65 L78.15 -41.95 77.9 -41.35 77.7 -40.9 Q77.05 -39.25 77.05 -37.7 77.0 -35.6 78.1 -33.7 M87.25 -39.8 L87.25 -39.9 Q87.1 -41.65 88.45 -44.05 L86.0 -44.4 Q83.0 -44.5 79.5 -43.05 L78.55 -42.65 Q79.75 -44.9 81.95 -46.85 M82.45 -47.3 L82.55 -47.35 M73.1 -19.45 L72.45 -20.3 72.35 -20.5 Q71.45 -22.0 70.9 -23.85 L70.8 -24.15 M122.5 -62.35 L122.45 -62.15 M100.35 -61.05 Q103.05 -60.55 105.0 -61.5 103.9 -68.65 98.5 -68.8 97.15 -66.2 97.15 -62.0 L99.75 -61.15 100.35 -61.05 M88.25 -65.75 Q89.05 -65.05 90.05 -64.6 L90.25 -65.5 90.25 -68.45 89.75 -71.9 Q86.8 -75.1 86.1 -69.1 M86.1 -68.75 L87.4 -66.6 Q87.75 -65.95 88.25 -65.75 M86.1 -68.75 L86.1 -68.8 86.1 -69.1 M90.05 -64.6 L89.35 -57.9 M90.25 -65.5 L90.15 -64.6 M88.3 -54.75 Q90.9 -53.45 94.85 -52.45 L101.15 -51.15 M116.3 -66.3 L116.65 -67.1 Q117.15 -68.1 118.05 -68.6 M119.7 -65.75 L118.8 -64.75 118.4 -64.05 118.1 -62.55 118.0 -62.0 Q119.05 -61.6 119.8 -60.5 M118.15 -57.0 L116.5 -56.95 106.6 -46.15 Q100.75 -43.6 95.0 -43.3 L94.85 -43.3 Q91.85 -44.55 90.7 -45.5 L90.2 -46.55 88.95 -44.9 88.45 -44.05 M118.0 -62.0 L118.0 -59.95 118.05 -59.65 M93.2 -25.8 L98.1 -25.25 100.25 -25.2 101.65 -25.2 Q112.55 -25.2 120.65 -28.55 122.85 -29.45 124.65 -30.5 126.35 -31.45 127.75 -32.45 L128.6 -33.1 Q130.9 -35.0 132.2 -37.15 M114.65 -38.45 L113.3 -37.85 Q108.45 -35.7 102.0 -35.0 L99.35 -34.8 M99.2 -34.8 L95.25 -34.75 M93.2 -25.8 L88.0 -27.0 Q85.3 -27.85 83.15 -29.15 L81.85 -29.95 Q79.3 -31.7 78.1 -33.7 M114.65 -38.45 Q118.95 -40.55 120.85 -42.55 M90.2 -46.55 L88.9 -49.3 M82.45 -47.3 L81.95 -46.85 M91.8 -35.05 Q90.0 -35.4 89.25 -36.05 L88.95 -36.4 Q87.35 -37.95 87.25 -39.8 M99.2 -34.8 L99.35 -34.8 M91.8 -35.05 L95.25 -34.75 M134.75 -35.9 L134.45 -35.8 M138.25 -1.55 L137.7 -1.85 Q136.3 -2.55 135.1 -3.5 L135.05 -3.55 134.1 -4.3 133.8 -4.1 133.65 -1.85 Q133.15 13.55 140.3 20.4 141.9 21.9 143.85 23.0 M134.1 -4.3 Q130.8 -7.1 128.6 -11.55 M154.35 -7.4 L154.3 -7.25 154.2 -7.05 153.6 -6.0 M129.8 1.35 Q131.95 -0.05 133.65 -1.85 M126.95 24.3 Q124.15 14.8 127.0 2.9 L129.8 1.35 M130.45 46.6 L131.1 46.75 M130.45 46.6 L128.45 46.45 119.65 55.2 M128.0 60.65 L128.1 60.95 M82.55 2.6 L80.8 5.7 81.95 11.55 M121.9 62.7 L120.95 65.55 121.15 65.65 124.15 67.65 M128.0 60.65 L121.9 62.7 119.65 55.2 M80.8 5.7 L80.0 6.55 M64.8 3.5 L65.05 3.95 M69.25 48.55 L69.35 48.25 74.75 50.1" fill="none" stroke="#916337" stroke-linecap="round" stroke-linejoin="round" stroke-width="0.05"/>
    <path d="M61.25 38.5 L61.7 22.7 61.75 22.7 65.15 23.05 Q69.2 23.6 72.85 24.95 75.25 25.85 77.5 27.15 L77.2 27.9 M67.75 42.4 L63.0 40.15 61.25 39.25 61.25 38.5 M67.75 42.4 L70.7 43.8 72.55 39.3" fill="none" stroke="#382310" stroke-linecap="round" stroke-linejoin="round" stroke-width="0.05"/>
    <path d="M80.15 -9.6 Q78.35 -4.85 75.85 -0.75 L73.15 3.15 M148.35 -1.25 Q150.9 6.45 150.95 13.5 L150.65 18.45" fill="none" stroke="#c89a6c" stroke-linecap="round" stroke-linejoin="round" stroke-width="0.05"/>
    <path d="M76.7 67.65 L78.15 59.7 Q79.2 53.8 80.25 39.2 80.55 34.1 81.45 30.25 M127.2 33.4 L128.7 38.3 130.45 46.6" fill="none" stroke="#324824" stroke-linecap="round" stroke-linejoin="round" stroke-width="0.05"/>
    <path d="M81.45 30.25 L81.55 29.7 81.2 27.0 M127.35 32.45 L127.2 33.4" fill="none" stroke="#a0a0a0" stroke-linecap="round" stroke-linejoin="round" stroke-width="0.05"/>
    <path d="M81.0 19.95 L81.25 18.05 M81.95 -46.85 L82.25 -47.25 82.45 -47.3 M75.75 -20.95 Q75.1 -26.3 75.75 -31.95 76.05 -34.8 77.05 -37.7 M76.65 -16.25 Q76.15 -17.95 75.9 -19.75 L75.75 -20.95 M82.55 2.6 L82.8 -6.4 80.45 -9.25 80.15 -9.6 Q77.8 -12.7 76.65 -16.25 M88.5 -7.45 Q98.7 -10.1 107.35 -3.55 M128.05 -32.25 L128.6 -33.1 M128.05 -32.25 Q121.15 -15.2 124.0 -5.1 126.0 -1.7 129.8 1.35 M81.95 11.55 L82.55 2.6 M81.95 11.55 L81.25 18.05 M90.2 24.7 L86.85 23.65 84.45 22.5 81.0 19.95" fill="none" stroke="#382510" stroke-linecap="round" stroke-linejoin="round" stroke-width="0.05"/>
    <path d="M81.2 27.0 L80.7 26.4 Q80.1 23.85 81.0 19.95 M120.55 27.05 L123.25 26.2 Q125.45 25.35 126.95 24.3 129.9 27.65 128.35 31.95 L127.35 32.45 Q122.8 34.6 117.0 35.45 M107.35 27.25 Q111.55 27.45 116.2 27.3 L120.55 27.05 M86.1 30.85 L84.0 29.5 81.2 27.0 M86.1 30.85 Q87.9 31.9 90.1 32.75 M104.25 35.85 L117.0 35.45" fill="none" stroke="#3f2c27" stroke-linecap="round" stroke-linejoin="round" stroke-width="0.05"/>
    <path d="M158.85 14.75 L159.05 14.8 Q162.3 20.65 157.65 30.9 L144.25 50.8 M133.9 45.0 Q136.75 36.25 137.95 28.6 138.7 23.7 140.3 20.4 M132.5 48.9 L132.45 49.0 M130.9 53.15 L130.5 54.1" fill="none" stroke="#425337" stroke-linecap="round" stroke-linejoin="round" stroke-width="0.05"/>
    <path d="M119.75 -99.5 L121.75 -104.1 113.2 -101.9 111.95 -112.0 99.55 -103.95 89.9 -110.8 89.9 -109.85 M119.75 -99.5 L119.3 -98.5 120.9 -98.1 131.1 -95.4 127.8 -92.2 126.75 -91.2 127.35 -90.9 131.1 -88.7 129.4 -88.7 126.35 -88.8 127.05 -87.8 135.3 -75.95 132.5 -75.95 127.5 -75.95 127.9 -75.05 130.8 -67.75 127.5 -69.5 125.95 -70.4 124.85 -66.9 124.35 -65.75 M81.35 -80.5 L81.45 -80.7 81.6 -81.25 80.1 -82.05 78.4 -82.95 80.25 -86.3 81.65 -88.85 79.65 -90.95 77.0 -93.7 84.25 -97.2 85.65 -97.9 86.5 -98.35 82.9 -102.85 89.9 -100.55 M121.75 -67.5 L121.9 -66.4 M122.0 -64.7 L121.9 -64.3 121.9 -64.1 121.75 -63.3 121.7 -62.9 121.3 -61.75 121.05 -61.05 120.35 -59.5 121.2 -60.5 121.55 -61.0 122.0 -61.6 122.5 -62.35 124.35 -65.75 M115.85 -66.9 L116.55 -68.05" fill="none" stroke="#584338" stroke-linecap="round" stroke-linejoin="round" stroke-width="0.05"/>
    <path d="M110.25 -73.1 L110.55 -72.25 111.35 -69.35 111.55 -68.75 112.35 -65.7 112.5 -65.1 112.85 -63.95 114.3 -57.8 114.6 -60.8 114.95 -63.0 115.45 -65.95 115.7 -66.95" fill="none" stroke="#7b5046" stroke-linecap="round" stroke-linejoin="round" stroke-width="0.05"/>
  </g>
</svg>
