<?xml version="1.0" encoding="UTF-8" standalone="no"?>
<svg xmlns:xlink="http://www.w3.org/1999/xlink" height="211.8px" width="163.05px" xmlns="http://www.w3.org/2000/svg">
  <g transform="matrix(1, 0, 0, 1, -4.35, 136.35)">
    <path d="M167.4 -15.45 L167.4 -7.45 Q158.75 -7.9 143.6 -15.1 L142.2 -13.6 141.9 -13.3 Q139.55 -11.55 136.3 -12.1 133.55 -12.6 131.45 -14.45 L131.1 -12.75 Q130.5 -10.95 129.0 -9.65 126.5 -7.6 123.0 -8.2 L122.5 -8.3 123.0 -8.2 Q126.5 -7.6 129.0 -9.65 130.5 -10.95 131.1 -12.75 L132.1 -8.15 152.9 6.45 160.9 46.85 166.25 50.1 Q164.85 68.7 159.25 75.45 146.3 68.05 149.9 52.95 153.45 37.8 146.75 11.4 136.7 7.35 122.5 -8.3 119.45 -9.0 117.2 -11.45 116.65 -9.5 115.0 -8.15 112.55 -6.1 109.05 -6.7 L108.4 -6.8 Q95.95 5.5 86.4 8.15 82.6 30.4 87.85 43.75 93.1 57.1 81.0 62.45 74.65 56.15 71.25 39.95 L76.25 37.6 79.45 5.75 Q86.15 1.7 91.9 -3.55 L98.8 -7.45 99.25 -11.25 101.1 -13.55 104.3 -17.95 Q109.65 -18.0 111.6 -20.25 L114.85 -20.25 114.9 -20.25 115.0 -20.1 114.95 -20.25 115.0 -20.25 130.0 -20.25 132.8 -20.25 141.45 -26.35 152.1 -33.85 153.35 -34.75 Q157.15 -31.55 161.7 -28.65 162.2 -28.35 162.8 -28.0 L163.15 -27.75 161.0 -27.7 155.45 -28.9 Q154.8 -30.85 153.35 -32.55 L152.15 -33.8 152.1 -33.85 152.15 -33.8 153.35 -32.55 Q154.8 -30.85 155.45 -28.9 155.85 -27.6 155.85 -26.15 155.85 -22.65 153.35 -20.6 L151.55 -19.5 Q149.7 -18.75 147.4 -19.1 145.9 -19.4 144.65 -20.05 L144.75 -19.1 Q144.7 -16.8 143.6 -15.1 144.7 -16.8 144.75 -19.1 L144.65 -20.05 Q144.35 -23.05 142.2 -25.55 L141.45 -26.35 142.2 -25.55 Q144.35 -23.05 144.65 -20.05 145.9 -19.4 147.4 -19.1 149.7 -18.75 151.55 -19.5 L167.4 -15.45 M45.25 -28.1 L43.95 -28.3 Q31.05 -9.8 30.1 4.55 29.15 18.85 15.95 18.5 12.9 10.1 16.65 -6.0 L22.2 -6.0 39.95 -35.5 50.65 -36.3 48.25 -35.0 45.25 -28.1 M18.85 -34.6 Q16.15 -35.3 13.95 -37.8 18.45 -45.6 32.45 -55.0 L35.5 -51.8 67.15 -62.85 72.45 -58.4 Q69.7 -55.05 67.5 -51.4 L65.55 -53.35 64.05 -55.4 Q56.0 -53.15 49.4 -50.25 56.0 -53.15 64.05 -55.4 L65.55 -53.35 Q62.25 -49.8 59.7 -45.85 L47.4 -46.3 49.4 -50.25 Q44.5 -48.1 40.35 -45.65 33.5 -44.75 25.7 -42.75 22.45 -40.25 18.85 -34.6 M79.7 -66.05 L75.3 -69.65 84.9 -76.2 87.95 -72.7 Q83.45 -69.55 79.7 -66.05 M117.2 -11.45 L117.5 -13.7 Q117.45 -17.2 115.0 -20.1 117.45 -17.2 117.5 -13.7 L117.2 -11.45 M108.4 -6.8 Q105.3 -7.55 103.05 -10.2 101.7 -11.75 101.1 -13.55 101.7 -11.75 103.05 -10.2 105.3 -7.55 108.4 -6.8 M130.0 -20.25 L131.1 -17.9 131.45 -15.2 131.45 -14.45 131.45 -15.2 131.1 -17.9 130.0 -20.25" fill="#171b24" fill-rule="evenodd" stroke="none"/>
    <path d="M167.4 -25.4 L167.4 -15.45 151.55 -19.5 153.35 -20.6 Q155.85 -22.65 155.85 -26.15 155.85 -27.6 155.45 -28.9 L161.0 -27.7 165.2 -26.6 167.4 -25.4 M141.9 -13.3 Q153.5 -7.05 167.4 5.9 L167.4 50.9 166.25 50.1 160.9 46.85 152.9 6.45 132.1 -8.15 131.1 -12.75 131.45 -14.45 Q133.55 -12.6 136.3 -12.1 139.55 -11.55 141.9 -13.3 M71.25 39.95 Q69.75 40.65 60.85 46.9 59.15 22.0 61.55 9.9 L77.0 7.15 79.45 5.75 76.25 37.6 71.25 39.95 M73.2 -16.5 Q67.5 -17.45 63.8 -19.35 61.1 -20.7 59.55 -22.35 58.45 -23.45 57.9 -24.7 L60.3 -34.85 Q59.35 -30.5 65.35 -29.05 L65.35 -23.65 71.8 -26.4 Q79.4 -20.7 99.45 -25.4 L105.65 -27.0 Q123.4 -23.55 141.0 -33.1 L144.9 -35.35 149.45 -38.4 151.6 -40.0 Q157.9 -44.9 164.25 -51.45 164.65 -47.35 164.7 -42.7 L153.35 -34.75 152.1 -33.85 141.45 -26.35 132.8 -20.25 130.0 -20.25 115.0 -20.25 114.85 -20.25 111.6 -20.25 Q109.65 -18.0 104.3 -17.95 L98.7 -18.4 Q96.1 -17.05 89.45 -16.2 82.75 -15.3 75.5 -16.2 L73.2 -16.5 M16.65 -6.0 L4.35 -4.15 Q12.25 -24.45 18.85 -34.6 22.45 -40.25 25.7 -42.75 33.5 -44.75 40.35 -45.65 L47.4 -46.3 59.7 -45.85 64.05 -45.05 63.55 -43.95 62.7 -41.95 Q56.6 -39.45 50.65 -36.3 L39.95 -35.5 22.2 -6.0 16.65 -6.0 M32.45 -55.0 L24.25 -60.7 Q46.35 -72.2 57.8 -75.15 75.3 -91.35 82.2 -92.1 91.25 -85.95 96.55 -78.2 91.95 -75.6 87.95 -72.7 L84.9 -76.2 75.3 -69.65 79.7 -66.05 78.35 -64.8 Q75.15 -61.75 72.45 -58.4 L67.15 -62.85 35.5 -51.8 32.45 -55.0 M117.5 -86.55 Q120.15 -89.6 123.45 -92.3 125.5 -89.55 127.9 -87.05 L117.5 -86.55 M132.45 -86.7 Q132.8 -90.35 133.6 -93.85 L133.85 -94.95 135.15 -99.45 Q136.2 -102.7 137.7 -105.8 137.3 -101.85 136.95 -94.7 L136.9 -93.85 136.9 -91.85 136.9 -91.4 135.75 -86.25 132.45 -86.7 M57.8 -75.15 Q61.9 -76.25 64.6 -76.25 70.65 -73.1 75.3 -69.65 70.65 -73.1 64.6 -76.25 61.9 -76.25 57.8 -75.15 M91.9 -3.55 Q95.8 -7.15 99.25 -11.25 L98.8 -7.45 91.9 -3.55" fill="#385f5e" fill-rule="evenodd" stroke="none"/>
    <path d="M123.45 -92.3 Q120.0 -96.85 117.5 -102.05 L118.5 -102.35 Q125.55 -98.2 133.85 -94.95 L133.6 -93.85 Q132.8 -90.35 132.45 -86.7 L127.9 -87.05 Q125.5 -89.55 123.45 -92.3" fill="#275842" fill-rule="evenodd" stroke="none"/>
    <path d="M118.5 -102.35 Q128.8 -105.75 138.1 -106.7 L137.7 -105.8 Q136.2 -102.7 135.15 -99.45 L133.85 -94.95 Q125.55 -98.2 118.5 -102.35 M96.55 -78.2 L98.2 -79.1 Q104.65 -82.65 112.1 -85.65 L112.95 -85.95 113.6 -86.05 117.5 -86.55 127.9 -87.05 132.45 -86.7 135.75 -86.25 Q138.65 -85.75 141.25 -84.85 151.2 -81.6 156.95 -73.4 149.45 -67.55 139.9 -62.95 L135.45 -60.9 Q120.85 -54.7 101.9 -51.15 L100.15 -53.45 Q93.65 -61.55 84.65 -63.9 L81.25 -64.55 78.35 -64.8 79.7 -66.05 Q83.45 -69.55 87.95 -72.7 91.95 -75.6 96.55 -78.2 M99.45 -25.4 Q104.5 -31.4 102.75 -47.35 119.55 -50.75 136.3 -58.5 L137.6 -59.1 146.55 -56.85 Q156.35 -57.75 162.4 -62.95 163.5 -58.65 164.25 -51.45 157.9 -44.9 151.6 -40.0 L149.45 -38.4 144.9 -35.35 141.0 -33.1 Q123.4 -23.55 105.65 -27.0 L99.45 -25.4" fill="#498c6b" fill-rule="evenodd" stroke="none"/>
    <path d="M138.1 -106.7 Q141.8 -114.35 147.85 -121.5 155.1 -130.25 164.15 -136.35 L167.4 -136.35 167.4 -132.2 166.05 -131.3 Q150.95 -121.1 145.4 -107.05 142.6 -100.0 142.25 -92.0 L142.25 -87.9 142.3 -86.55 141.25 -84.85 Q138.65 -85.75 135.75 -86.25 L136.9 -91.4 136.9 -91.85 136.9 -93.85 136.95 -94.7 Q137.3 -101.85 137.7 -105.8 L138.1 -106.7 M167.4 -100.65 L167.4 -71.45 Q166.1 -74.95 164.4 -77.95 162.8 -80.75 160.85 -83.1 L160.15 -83.95 159.65 -84.55 160.75 -87.5 Q162.3 -91.5 164.25 -95.2 165.7 -98.0 167.4 -100.65" fill="#990000" fill-rule="evenodd" stroke="none"/>
    <path d="M167.4 -132.2 L167.4 -100.65 Q165.7 -98.0 164.25 -95.2 162.3 -91.5 160.75 -87.5 L159.65 -84.55 160.15 -83.95 160.85 -83.1 Q162.8 -80.75 164.4 -77.95 166.1 -74.95 167.4 -71.45 L167.4 -25.4 165.2 -26.6 163.15 -27.75 162.8 -28.0 Q162.2 -28.35 161.7 -28.65 157.15 -31.55 153.35 -34.75 L164.7 -42.7 Q164.65 -47.35 164.25 -51.45 163.5 -58.65 162.4 -62.95 L167.3 -67.3 158.6 -70.8 158.55 -70.8 158.5 -71.05 156.95 -73.4 Q151.2 -81.6 141.25 -84.85 L142.3 -86.55 142.25 -87.9 142.25 -92.0 Q142.6 -100.0 145.4 -107.05 150.95 -121.1 166.05 -131.3 L167.4 -132.2 M158.5 -71.05 L158.6 -70.85 158.6 -70.8 158.6 -70.85 158.55 -70.8 158.6 -70.85 158.5 -71.05" fill="#0f0f12" fill-rule="evenodd" stroke="none"/>
    <path d="M61.55 9.9 L57.4 10.65 Q53.15 7.55 52.35 0.25 L66.3 -4.6 70.35 -11.35 70.4 -11.35 70.5 -11.6 73.2 -16.5 75.5 -16.2 Q82.75 -15.3 89.45 -16.2 96.1 -17.05 98.7 -18.4 L104.3 -17.95 101.1 -13.55 99.25 -11.25 Q95.8 -7.15 91.9 -3.55 86.15 1.7 79.45 5.75 L77.0 7.15 61.55 9.9 M59.55 -22.35 L56.8 -22.55 47.25 -8.45 Q39.25 -7.15 38.3 -12.35 L45.25 -28.1 48.25 -35.0 50.65 -36.3 Q56.6 -39.45 62.7 -41.95 61.35 -38.75 60.4 -35.35 L60.3 -34.85 57.9 -24.7 Q58.45 -23.45 59.55 -22.35 M68.5 -43.8 L68.6 -44.25 68.8 -44.95 Q69.4 -46.6 70.95 -48.25 L71.25 -48.55 Q72.65 -50.05 74.1 -50.75 L76.4 -50.8 76.8 -49.95 76.75 -49.95 76.8 -49.8 Q76.75 -49.25 75.75 -47.95 L74.65 -46.6 73.8 -45.6 72.05 -43.4 71.0 -41.7 69.3 -38.55 69.25 -38.45 Q68.55 -40.65 68.45 -41.65 68.35 -42.65 68.55 -43.8 L68.5 -43.8" fill="#ffffff" fill-rule="evenodd" stroke="none"/>
    <path d="M98.2 -79.1 L99.0 -81.05 Q105.5 -87.4 113.6 -89.0 L113.6 -86.05 112.95 -85.95 112.1 -85.65 Q104.65 -82.65 98.2 -79.1 M78.35 -64.8 L81.25 -64.55 84.65 -63.9 Q93.65 -61.55 100.15 -53.45 L101.9 -51.15 Q120.85 -54.7 135.45 -60.9 L139.9 -62.95 Q149.45 -67.55 156.95 -73.4 L158.5 -71.05 158.55 -70.8 158.6 -70.8 167.3 -67.3 162.4 -62.95 Q156.35 -57.75 146.55 -56.85 L137.6 -59.1 136.3 -58.5 Q119.55 -50.75 102.75 -47.35 104.5 -31.4 99.45 -25.4 79.4 -20.7 71.8 -26.4 L65.35 -23.65 65.35 -29.05 Q59.35 -30.5 60.3 -34.85 L60.4 -35.35 Q61.35 -38.75 62.7 -41.95 L63.55 -43.95 63.65 -42.35 Q64.2 -36.25 66.5 -30.75 L67.3 -28.95 Q75.75 -32.6 83.7 -38.6 L97.35 -45.8 92.9 -58.5 90.6 -58.5 94.85 -46.65 83.5 -40.3 83.15 -42.85 Q82.4 -47.45 81.0 -51.7 L78.7 -57.7 Q77.05 -56.85 75.5 -55.8 71.9 -53.5 68.7 -50.4 L64.4 -45.75 Q65.8 -48.65 67.5 -51.4 69.7 -55.05 72.45 -58.4 75.15 -61.75 78.35 -64.8 M75.85 -29.6 L93.15 -28.5 95.45 -32.35 80.0 -32.9 75.85 -29.6 M87.35 -38.75 L82.8 -35.15 97.15 -35.15 99.35 -38.75 87.35 -38.75" fill="#ebebeb" fill-rule="evenodd" stroke="none"/>
    <path d="M64.05 -45.05 L64.4 -45.75 68.7 -50.4 Q71.9 -53.5 75.5 -55.8 77.05 -56.85 78.7 -57.7 L81.0 -51.7 Q82.4 -47.45 83.15 -42.85 L83.5 -40.3 94.85 -46.65 90.6 -58.5 92.9 -58.5 97.35 -45.8 83.7 -38.6 Q75.75 -32.6 67.3 -28.95 L66.5 -30.75 Q64.2 -36.25 63.65 -42.35 L63.55 -43.95 64.05 -45.05 M78.15 -54.3 L77.6 -54.05 Q73.6 -52.0 70.35 -49.15 68.0 -47.2 66.1 -44.85 L66.1 -44.5 66.1 -44.0 66.15 -43.35 Q66.4 -38.0 67.6 -33.75 L68.15 -32.0 Q71.4 -33.15 74.4 -34.85 78.2 -36.95 81.55 -39.9 L81.05 -43.65 Q80.2 -48.75 78.55 -53.25 L78.15 -54.3 M75.85 -29.6 L80.0 -32.9 95.45 -32.35 93.15 -28.5 75.85 -29.6 M87.35 -38.75 L99.35 -38.75 97.15 -35.15 82.8 -35.15 87.35 -38.75" fill="#7f3840" fill-rule="evenodd" stroke="none"/>
    <path d="M76.8 -49.8 L76.75 -49.95 76.8 -49.95 76.4 -50.8 74.1 -50.75 Q72.65 -50.05 71.25 -48.55 L70.95 -48.25 Q69.4 -46.6 68.8 -44.95 L68.6 -44.25 68.5 -43.8 67.85 -43.25 Q67.65 -40.65 68.6 -36.6 L68.95 -35.25 79.65 -40.45 76.8 -49.8 M78.15 -54.3 L78.55 -53.25 Q80.2 -48.75 81.05 -43.65 L81.55 -39.9 Q78.2 -36.95 74.4 -34.85 71.4 -33.15 68.15 -32.0 L67.6 -33.75 Q66.4 -38.0 66.15 -43.35 L66.1 -44.0 66.1 -44.5 66.1 -44.85 Q68.0 -47.2 70.35 -49.15 73.6 -52.0 77.6 -54.05 L78.15 -54.3" fill="#c8c58e" fill-rule="evenodd" stroke="none"/>
    <path d="M76.8 -49.8 L79.65 -40.45 68.95 -35.25 68.6 -36.6 Q67.65 -40.65 67.85 -43.25 L68.5 -43.8 68.55 -43.8 Q68.35 -42.65 68.45 -41.65 68.55 -40.65 69.25 -38.45 L69.3 -38.55 71.0 -41.7 72.05 -43.4 73.8 -45.6 74.65 -46.6 75.75 -47.95 Q76.75 -49.25 76.8 -49.8" fill="#605c41" fill-rule="evenodd" stroke="none"/>
    <path d="M141.9 -13.3 Q153.5 -7.05 167.4 5.9 M167.4 50.9 L166.25 50.1 M71.25 39.95 Q69.75 40.65 60.85 46.9 59.15 22.0 61.55 9.9 M16.65 -6.0 L4.35 -4.15 Q12.25 -24.45 18.85 -34.6 M32.45 -55.0 L24.25 -60.7 Q46.35 -72.2 57.8 -75.15 75.3 -91.35 82.2 -92.1 91.25 -85.95 96.55 -78.2 M117.5 -86.55 Q120.15 -89.6 123.45 -92.3 M87.95 -72.7 L84.9 -76.2 75.3 -69.65 79.7 -66.05 M72.45 -58.4 L67.15 -62.85 35.5 -51.8 32.45 -55.0 M59.7 -45.85 L64.05 -45.05 M75.3 -69.65 Q70.65 -73.1 64.6 -76.25 61.9 -76.25 57.8 -75.15 M40.35 -45.65 Q33.5 -44.75 25.7 -42.75 22.45 -40.25 18.85 -34.6 M50.65 -36.3 L39.95 -35.5 22.2 -6.0 16.65 -6.0 M59.7 -45.85 L47.4 -46.3 40.35 -45.65 M91.9 -3.55 L98.8 -7.45 99.25 -11.25 M155.45 -28.9 L161.0 -27.7 M131.1 -12.75 L132.1 -8.15 152.9 6.45 160.9 46.85 166.25 50.1 M151.55 -19.5 L167.4 -15.45 M165.2 -26.6 L161.0 -27.7 M79.45 5.75 L76.25 37.6 71.25 39.95" fill="none" stroke="#28513d" stroke-linecap="round" stroke-linejoin="round" stroke-width="0.05"/>
    <path d="M167.4 -7.45 Q158.75 -7.9 143.6 -15.1 M166.25 50.1 Q164.85 68.7 159.25 75.45 146.3 68.05 149.9 52.95 153.45 37.8 146.75 11.4 136.7 7.35 122.5 -8.3 M108.4 -6.8 Q95.95 5.5 86.4 8.15 82.6 30.4 87.85 43.75 93.1 57.1 81.0 62.45 74.65 56.15 71.25 39.95 M45.25 -28.1 L43.95 -28.3 Q31.05 -9.8 30.1 4.55 29.15 18.85 15.95 18.5 12.9 10.1 16.65 -6.0 M18.85 -34.6 Q16.15 -35.3 13.95 -37.8 18.45 -45.6 32.45 -55.0 M65.55 -53.35 L67.5 -51.4 M49.4 -50.25 Q56.0 -53.15 64.05 -55.4 L65.55 -53.35 Q62.25 -49.8 59.7 -45.85 M40.35 -45.65 Q44.5 -48.1 49.4 -50.25 L47.4 -46.3 M161.0 -27.7 L163.15 -27.75" fill="none" stroke="#482424" stroke-linecap="round" stroke-linejoin="round" stroke-width="0.05"/>
    <path d="M143.6 -15.1 L142.2 -13.6 141.9 -13.3 M122.5 -8.3 Q119.45 -9.0 117.2 -11.45 116.65 -9.5 115.0 -8.15 112.55 -6.1 109.05 -6.7 L108.4 -6.8 M115.0 -20.1 Q117.45 -17.2 117.5 -13.7 L117.2 -11.45 M115.0 -20.25 L114.95 -20.25 115.0 -20.1 114.9 -20.25 114.85 -20.25 M101.1 -13.55 Q101.7 -11.75 103.05 -10.2 105.3 -7.55 108.4 -6.8 M155.45 -28.9 Q154.8 -30.85 153.35 -32.55 L152.15 -33.8 152.1 -33.85 M151.55 -19.5 L153.35 -20.6 Q155.85 -22.65 155.85 -26.15 155.85 -27.6 155.45 -28.9 M131.45 -14.45 L131.45 -15.2 131.1 -17.9 130.0 -20.25 M131.1 -12.75 L131.45 -14.45 Q133.55 -12.6 136.3 -12.1 139.55 -11.55 141.9 -13.3 M122.5 -8.3 L123.0 -8.2 Q126.5 -7.6 129.0 -9.65 130.5 -10.95 131.1 -12.75 M143.6 -15.1 Q144.7 -16.8 144.75 -19.1 L144.65 -20.05 Q144.35 -23.05 142.2 -25.55 L141.45 -26.35 M144.65 -20.05 Q145.9 -19.4 147.4 -19.1 149.7 -18.75 151.55 -19.5" fill="none" stroke="#213836" stroke-linecap="round" stroke-linejoin="round" stroke-width="0.05"/>
    <path d="M138.1 -106.7 Q141.8 -114.35 147.85 -121.5 155.1 -130.25 164.15 -136.35 M132.45 -86.7 Q132.8 -90.35 133.6 -93.85 L133.85 -94.95 M137.7 -105.8 Q136.2 -102.7 135.15 -99.45 L133.85 -94.95 M137.7 -105.8 L138.1 -106.7 M167.4 -71.45 Q166.1 -74.95 164.4 -77.95 162.8 -80.75 160.85 -83.1 L160.15 -83.95 159.65 -84.55 160.75 -87.5 Q162.3 -91.5 164.25 -95.2 165.7 -98.0 167.4 -100.65 M141.25 -84.85 L142.3 -86.55 142.25 -87.9 142.25 -92.0 Q142.6 -100.0 145.4 -107.05 150.95 -121.1 166.05 -131.3 L167.4 -132.2 M135.75 -86.25 L136.9 -91.4 136.9 -91.85 136.9 -93.85 136.95 -94.7 Q137.3 -101.85 137.7 -105.8 M163.15 -27.75 L162.8 -28.0 Q162.2 -28.35 161.7 -28.65 157.15 -31.55 153.35 -34.75 M165.2 -26.6 L167.4 -25.4 M163.15 -27.75 L165.2 -26.6" fill="none" stroke="#6b1e01" stroke-linecap="round" stroke-linejoin="round" stroke-width="0.05"/>
    <path d="M123.45 -92.3 Q120.0 -96.85 117.5 -102.05 L118.5 -102.35 Q128.8 -105.75 138.1 -106.7 M123.45 -92.3 Q125.5 -89.55 127.9 -87.05" fill="none" stroke="#213836" stroke-linecap="round" stroke-linejoin="round" stroke-width="0.05"/>
    <path d="M61.55 9.9 L57.4 10.65 Q53.15 7.55 52.35 0.25 L66.3 -4.6 70.35 -11.35 70.4 -11.35 70.5 -11.6 73.2 -16.5 M59.55 -22.35 L56.8 -22.55 47.25 -8.45 Q39.25 -7.15 38.3 -12.35 L45.25 -28.1 M50.65 -36.3 L48.25 -35.0 45.25 -28.1 M62.7 -41.95 Q56.6 -39.45 50.65 -36.3 M99.25 -11.25 Q95.8 -7.15 91.9 -3.55 86.15 1.7 79.45 5.75 L77.0 7.15 61.55 9.9 M99.25 -11.25 L101.1 -13.55 104.3 -17.95" fill="none" stroke="#666666" stroke-linecap="round" stroke-linejoin="round" stroke-width="0.05"/>
    <path d="M96.55 -78.2 L98.2 -79.1 99.0 -81.05 Q105.5 -87.4 113.6 -89.0 L113.6 -86.05 117.5 -86.55 M127.9 -87.05 L132.45 -86.7 M79.7 -66.05 Q83.45 -69.55 87.95 -72.7 91.95 -75.6 96.55 -78.2 M79.7 -66.05 L78.35 -64.8 81.25 -64.55 84.65 -63.9 Q93.65 -61.55 100.15 -53.45 L101.9 -51.15 M156.95 -73.4 Q151.2 -81.6 141.25 -84.85 138.65 -85.75 135.75 -86.25 L132.45 -86.7 M67.5 -51.4 Q69.7 -55.05 72.45 -58.4 M64.05 -45.05 L64.4 -45.75 Q65.8 -48.65 67.5 -51.4 M64.4 -45.75 L68.7 -50.4 Q71.9 -53.5 75.5 -55.8 77.05 -56.85 78.7 -57.7 L81.0 -51.7 Q82.4 -47.45 83.15 -42.85 L83.5 -40.3 94.85 -46.65 90.6 -58.5 92.9 -58.5 97.35 -45.8 83.7 -38.6 Q75.75 -32.6 67.3 -28.95 L66.5 -30.75 Q64.2 -36.25 63.65 -42.35 L63.55 -43.95 62.7 -41.95 Q61.35 -38.75 60.4 -35.35 L60.3 -34.85 Q59.35 -30.5 65.35 -29.05 L65.35 -23.65 71.8 -26.4 Q79.4 -20.7 99.45 -25.4 M162.4 -62.95 L167.3 -67.3 158.6 -70.8 158.55 -70.8 158.5 -71.05 156.95 -73.4 M78.35 -64.8 Q75.15 -61.75 72.45 -58.4 M64.05 -45.05 L63.55 -43.95 M164.7 -42.7 Q164.65 -47.35 164.25 -51.45 157.9 -44.9 151.6 -40.0 L149.45 -38.4 144.9 -35.35 141.0 -33.1 Q123.4 -23.55 105.65 -27.0 L99.45 -25.4 M60.3 -34.85 L57.9 -24.7 M158.6 -70.8 L158.6 -70.85 158.55 -70.8 M158.6 -70.85 L158.5 -71.05 M98.2 -79.1 Q104.65 -82.65 112.1 -85.65 L112.95 -85.95 113.6 -86.05 M127.9 -87.05 L117.5 -86.55 M162.4 -62.95 Q163.5 -58.65 164.25 -51.45" fill="none" stroke="#213838" stroke-linecap="round" stroke-linejoin="round" stroke-width="0.05"/>
    <path d="M73.2 -16.5 Q67.5 -17.45 63.8 -19.35 61.1 -20.7 59.55 -22.35 M57.9 -24.7 Q58.45 -23.45 59.55 -22.35 M73.2 -16.5 L75.5 -16.2 Q82.75 -15.3 89.45 -16.2 96.1 -17.05 98.7 -18.4 L104.3 -17.95 Q109.65 -18.0 111.6 -20.25 L114.85 -20.25 115.0 -20.25 130.0 -20.25 132.8 -20.25 141.45 -26.35 152.1 -33.85 153.35 -34.75 164.7 -42.7" fill="none" stroke="#990000" stroke-linecap="round" stroke-linejoin="round" stroke-width="1.0"/>
    <path d="M101.9 -51.15 Q120.85 -54.7 135.45 -60.9 L139.9 -62.95 Q149.45 -67.55 156.95 -73.4" fill="none" stroke="#888888" stroke-linecap="round" stroke-linejoin="round" stroke-width="0.05"/>
  </g>
</svg>
