<?xml version="1.0" encoding="UTF-8" standalone="no"?>
<svg xmlns:xlink="http://www.w3.org/1999/xlink" height="193.55px" width="124.05px" xmlns="http://www.w3.org/2000/svg">
  <g transform="matrix(1, 0, 0, 1, -33.1, 128.9)">
    <path d="M118.15 -116.35 L116.5 -123.55 Q118.7 -127.6 123.85 -128.9 119.0 -123.15 122.85 -121.35 L125.6 -120.75 118.15 -116.35 M127.2 -120.35 L130.8 -119.5 Q134.85 -118.45 132.95 -126.25 137.75 -124.75 137.65 -119.0 L131.1 -111.3 127.2 -120.35 M144.5 -10.05 Q146.55 -8.55 147.7 -4.85 138.5 0.3 134.05 -7.05 L134.6 -7.6 Q135.8 -6.75 137.1 -5.95 L139.1 -6.7 140.75 -7.55 144.5 -10.05 M148.25 -2.4 L157.15 11.65 149.25 10.9 148.8 2.55 148.25 -2.4 M149.4 13.85 L150.75 15.85 154.6 23.2 149.75 22.0 149.4 13.85 M61.3 -5.1 L63.0 -3.6 Q56.85 1.4 48.75 -3.7 50.3 -5.8 52.2 -6.8 L52.45 -5.9 Q54.5 -4.95 56.65 -4.45 L58.35 -4.1 60.3 -3.9 61.3 -5.1 M40.55 16.3 L35.4 16.6 40.95 11.55 42.8 10.25 40.55 16.3 M43.6 8.0 L35.45 7.55 47.6 -1.9 45.95 1.75 43.6 8.0 M70.5 -73.75 Q71.4 -78.1 71.0 -77.95 60.2 -86.15 57.35 -92.85 L57.3 -93.2 Q56.05 -100.2 62.75 -113.3 67.8 -115.55 74.5 -114.65 69.25 -114.05 66.45 -111.1 L66.35 -110.9 Q64.45 -106.6 64.05 -101.85 L69.1 -101.9 63.9 -98.75 63.95 -98.1 Q72.0 -87.75 77.5 -85.65 78.65 -85.2 79.75 -85.1 73.45 -81.1 70.5 -73.75 M90.65 -86.05 L91.7 -87.1 Q95.35 -91.1 97.95 -96.8 98.7 -101.0 96.65 -104.95 L87.05 -106.15 94.75 -107.85 Q92.45 -110.8 88.6 -113.75 L88.55 -113.85 79.4 -113.85 Q84.2 -116.55 91.95 -116.85 L92.2 -116.7 Q103.85 -110.05 106.15 -98.0 L106.2 -97.9 106.2 -97.5 Q106.05 -87.75 101.05 -79.65 L101.2 -79.5 101.25 -79.35 102.0 -76.4 Q97.5 -82.85 90.65 -86.05 M71.0 -77.95 Q73.5 -83.85 77.5 -85.65 73.5 -83.85 71.0 -77.95 M82.3 -20.7 L83.25 -20.6 86.75 -19.95 93.5 -17.8 93.7 -17.75 95.0 -17.1 Q96.5 -16.25 97.8 -15.25 L98.55 -14.7 100.75 -12.3 99.05 -9.2 Q97.75 -7.55 95.35 -6.55 90.55 -4.6 81.2 -5.2 81.35 -10.7 81.6 -13.6 L81.8 -16.1 82.3 -20.6 82.3 -20.7 M101.05 -79.65 Q97.85 -84.7 91.7 -87.1 97.85 -84.7 101.05 -79.65 M81.2 -5.2 Q90.55 -4.6 95.35 -6.55 97.75 -7.55 99.05 -9.2 98.8 -3.65 96.2 2.15 L92.15 4.8 Q87.55 7.1 82.2 6.65 L81.85 2.15 81.2 -5.2" fill="#404040" fill-rule="evenodd" stroke="none"/>
    <path d="M126.8 -107.3 L123.8 -96.2 121.4 -87.3 118.45 -76.35 114.85 -62.9 113.2 -56.95 Q110.5 -61.6 108.0 -64.5 L106.9 -65.75 110.75 -78.55 114.1 -89.8 117.45 -100.9 119.85 -108.9 126.8 -107.3 M121.4 -87.3 L114.1 -89.8 121.4 -87.3 M118.45 -76.35 L110.75 -78.55 118.45 -76.35 M108.0 -64.5 L114.85 -62.9 108.0 -64.5 M123.8 -96.2 L117.45 -100.9 123.8 -96.2" fill="#887c70" fill-rule="evenodd" stroke="none"/>
    <path d="M118.15 -116.35 L125.6 -120.75 126.7 -121.4 127.2 -120.35 131.1 -111.3 127.5 -107.2 126.8 -107.3 119.85 -108.9 118.15 -116.35 M123.85 -48.65 Q131.8 -52.3 139.5 -45.35 141.05 -41.6 139.95 -37.7 L141.4 -33.95 142.3 -31.5 144.3 -22.4 Q145.35 -16.85 144.7 -10.15 L144.5 -10.05 140.75 -7.55 139.1 -6.7 138.65 -9.85 Q136.85 -20.15 129.8 -33.35 126.2 -39.95 121.35 -47.25 L121.5 -47.35 123.85 -48.65 M150.25 32.0 Q151.85 32.85 152.8 36.45 L151.75 48.2 150.75 49.4 150.65 50.55 150.55 50.55 146.85 44.5 143.95 41.4 139.45 41.65 142.55 32.25 144.45 31.5 144.6 31.9 145.55 34.5 Q148.95 36.05 150.35 34.4 L150.25 32.0 M113.3 4.25 Q114.15 5.25 114.75 6.9 L113.5 7.9 Q110.05 10.65 107.1 13.4 L105.45 15.0 Q100.7 19.6 95.9 25.95 94.95 22.85 95.25 20.1 L95.45 18.9 Q99.35 16.5 103.95 12.15 107.4 8.75 111.25 4.2 L112.05 3.25 113.3 4.25 M115.15 14.7 Q125.9 24.0 128.2 37.3 130.35 49.55 128.45 64.65 L123.25 64.65 Q123.4 37.2 115.15 14.7 M67.5 64.65 L62.55 64.65 62.55 64.55 Q60.65 57.8 59.85 51.45 59.15 46.2 59.25 41.2 59.4 28.7 67.5 16.95 66.0 25.25 65.6 33.8 64.95 46.6 66.8 60.0 L67.5 64.65 M42.85 25.3 L45.25 32.9 41.2 32.85 39.9 34.3 39.75 34.5 38.6 36.05 35.35 42.25 35.25 42.25 35.15 41.1 34.2 39.95 33.1 28.15 Q34.2 22.9 36.7 23.35 L38.15 22.85 37.15 25.65 Q38.15 27.05 41.95 26.3 L42.85 25.3 M52.2 -6.8 Q50.35 -13.0 50.15 -18.65 49.9 -24.8 50.1 -28.6 L50.35 -31.4 50.95 -35.7 Q49.05 -39.4 49.75 -43.7 56.25 -54.7 66.1 -51.2 L65.05 -47.8 63.95 -46.3 Q62.4 -42.7 61.65 -39.5 L63.0 -40.85 Q66.35 -44.0 70.3 -44.2 L71.0 -42.7 Q73.3 -38.95 79.05 -38.65 80.1 -30.35 78.8 -25.55 L78.8 -25.5 Q75.05 -24.3 72.0 -23.95 64.85 -23.2 61.55 -27.15 60.8 -29.25 60.7 -31.75 57.4 -17.05 58.1 -6.6 L58.35 -4.1 56.65 -4.45 Q54.5 -4.95 52.45 -5.9 L52.2 -6.8 M86.7 -39.4 Q89.45 -40.05 92.65 -41.05 L93.25 -41.25 Q96.85 -42.5 101.0 -44.25 L101.65 -44.5 101.65 -44.6 103.15 -45.3 103.75 -45.6 Q107.85 -44.7 110.65 -42.4 113.35 -40.2 114.75 -36.6 114.55 -34.95 114.5 -32.9 L114.5 -31.35 114.5 -29.35 113.35 -27.0 112.55 -25.65 111.15 -23.8 Q104.95 -21.2 99.35 -20.75 91.45 -20.15 84.75 -23.85 L84.6 -24.65 Q83.7 -30.0 86.7 -39.4 M55.25 -34.8 L50.95 -35.7 55.25 -34.8 M50.35 -31.4 L53.5 -30.85 50.35 -31.4 M53.3 -27.9 L50.1 -28.6 53.3 -27.9 M60.7 -31.75 Q60.5 -35.25 61.65 -39.5 60.5 -35.25 60.7 -31.75 M135.8 -35.55 L139.95 -37.7 135.8 -35.55 M141.4 -33.95 L138.4 -32.55 141.4 -33.95 M139.2 -29.9 L142.3 -31.5 139.2 -29.9 M72.55 12.75 L72.25 12.1 70.3 9.0 Q70.0 4.6 73.25 2.45 74.3 8.1 75.95 12.15 77.55 16.1 79.65 18.45 L79.0 21.75 78.7 22.9 Q77.95 20.5 74.4 15.6 L72.8 13.45 72.8 13.35 72.55 12.75" fill="#85699f" fill-rule="evenodd" stroke="none"/>
    <path d="M62.4 64.65 L55.55 64.65 59.85 51.45 Q60.65 57.8 62.55 64.55 L62.4 64.65 M69.9 20.55 L72.45 12.6 72.55 12.75 72.8 13.35 72.8 13.45 74.4 15.6 72.65 14.9 71.35 22.9 69.9 20.55" fill="#a7a7a7" fill-rule="evenodd" stroke="none"/>
    <path d="M116.7 -50.4 L123.9 -48.85 123.85 -48.65 121.5 -47.35 120.35 -47.55 Q117.95 -50.7 116.9 -50.05 L116.7 -50.4 M98.5 54.75 L97.45 58.95 87.1 50.2 87.25 49.3 Q89.0 51.1 91.0 52.1 L92.0 52.0 Q94.8 51.4 96.65 47.2 97.25 50.75 98.5 54.75" fill="#bcbcbc" fill-rule="evenodd" stroke="none"/>
    <path d="M97.45 58.95 L87.7 64.65 84.2 64.65 86.6 52.75 87.1 50.2 97.45 58.95 M62.55 64.65 L62.4 64.65 62.55 64.55 62.55 64.65" fill="#d5d5d5" fill-rule="evenodd" stroke="none"/>
    <path d="M150.55 50.55 L143.6 49.05 139.45 41.65 143.95 41.4 146.85 44.5 150.55 50.55 M134.6 -7.6 Q127.4 -12.55 122.95 -18.15 121.15 -20.45 119.75 -22.8 L118.7 -24.8 Q115.95 -37.7 121.35 -47.25 126.2 -39.95 129.8 -33.35 136.85 -20.15 138.65 -9.85 L139.1 -6.7 137.1 -5.95 Q135.8 -6.75 134.6 -7.6 M112.0 22.55 Q115.1 14.2 115.15 14.7 123.4 37.2 123.25 64.65 L105.4 64.65 105.05 62.75 Q102.75 50.95 103.1 35.85 L103.15 34.45 103.5 34.25 Q111.4 29.5 112.0 22.55 M82.6 64.65 L67.5 64.65 66.8 60.0 Q64.95 46.6 65.6 33.8 66.0 25.25 67.5 16.95 L69.9 20.55 71.35 22.9 Q72.6 28.15 78.55 30.05 80.15 36.9 82.35 41.75 L82.8 46.55 82.95 56.3 82.6 64.65 M72.45 12.6 L69.95 9.0 Q69.8 6.3 70.35 4.5 L71.15 2.75 Q72.95 1.05 73.8 -0.9 L75.35 2.3 75.55 3.05 Q77.7 11.0 82.05 13.75 80.5 13.35 80.45 19.2 L80.45 19.3 79.65 18.45 Q77.55 16.1 75.95 12.15 74.3 8.1 73.25 2.45 70.0 4.6 70.3 9.0 L72.25 12.1 72.55 12.75 72.45 12.6 M67.0 -13.25 Q64.55 -9.2 61.3 -5.1 L60.3 -3.9 58.35 -4.1 58.1 -6.6 Q57.4 -17.05 60.7 -31.75 60.8 -29.25 61.55 -27.15 64.85 -23.2 72.0 -23.95 75.05 -24.3 78.8 -25.5 L78.8 -25.55 Q80.1 -30.35 79.05 -38.65 L86.7 -39.4 Q83.7 -30.0 84.6 -24.65 L84.75 -23.85 Q91.45 -20.15 99.35 -20.75 104.95 -21.2 111.15 -23.8 L109.5 -22.05 Q108.55 -21.25 107.6 -20.6 L107.45 -20.5 Q104.75 -18.8 101.3 -18.1 L98.45 -17.45 Q96.6 -17.2 95.05 -17.45 L93.7 -17.75 93.5 -17.8 86.75 -19.95 83.25 -20.6 82.3 -20.7 79.75 -20.75 75.4 -20.35 74.2 -20.0 73.8 -20.0 73.7 -20.0 70.6 -20.2 70.55 -20.2 Q68.8 -20.55 67.25 -21.4 L65.0 -22.8 62.1 -25.75 61.55 -27.15 62.1 -25.75 64.8 -22.15 64.8 -22.05 66.35 -19.55 67.0 -13.25 M45.25 32.9 L41.65 40.5 35.35 42.25 38.6 36.05 39.75 34.5 39.9 34.3 41.2 32.85 45.25 32.9 M66.1 -51.2 L67.1 -49.95 65.05 -47.8 66.1 -51.2 M73.7 -67.55 L69.7 -71.25 71.95 -74.55 Q73.2 -70.4 75.25 -70.0 78.2 -70.25 78.5 -73.9 80.05 -72.05 82.35 -70.7 L82.55 -69.45 Q82.7 -68.5 83.0 -67.5 83.3 -66.15 83.85 -64.75 82.85 -65.05 82.0 -65.55 80.3 -66.5 79.3 -68.15 L79.05 -68.55 Q77.1 -69.6 76.8 -68.75 L76.8 -65.85 74.7 -68.5 73.7 -67.55 M83.85 -63.35 L86.4 -60.65 88.4 -63.5 90.8 -59.15 94.05 -61.4 94.3 -61.6 99.35 -61.55 99.25 -58.55 91.1 -54.0 87.75 -52.1 84.1 -55.45 83.85 -63.35 M144.35 45.25 Q143.7 46.45 143.6 49.05 143.7 46.45 144.35 45.25 M40.9 36.7 Q41.45 37.9 41.65 40.5 41.45 37.9 40.9 36.7" fill="#664d77" fill-rule="evenodd" stroke="none"/>
    <path d="M147.7 -4.85 L147.85 -4.3 148.25 -2.4 148.8 2.55 149.25 10.9 149.3 12.4 149.4 13.85 149.75 22.0 150.25 32.0 150.35 34.4 Q148.95 36.05 145.55 34.5 L144.6 31.9 144.45 31.5 143.25 28.45 141.2 23.35 141.15 23.35 137.6 15.3 Q124.8 2.95 133.65 -6.5 L134.05 -7.05 Q138.5 0.3 147.7 -4.85 M63.0 -3.6 L63.3 -3.1 Q70.05 5.2 54.35 12.85 L48.95 18.5 48.9 18.45 45.7 22.05 43.5 24.5 42.85 25.3 41.95 26.3 Q38.15 27.05 37.15 25.65 L38.15 22.85 40.55 16.3 42.8 10.25 43.2 9.15 43.6 8.0 45.95 1.75 47.6 -1.9 48.45 -3.3 48.75 -3.7 Q56.85 1.4 63.0 -3.6 M70.05 -51.4 L73.9 -63.45 73.95 -63.45 Q75.4 -59.5 77.1 -55.85 L77.2 -55.6 Q77.4 -54.8 78.05 -54.15 L79.85 -52.35 81.25 -52.75 81.75 -52.1 87.75 -52.1 91.1 -54.0 88.5 -51.9 82.25 -47.65 Q77.75 -44.8 74.55 -55.3 77.75 -44.8 82.25 -47.65 L88.5 -51.9 91.1 -54.0 99.25 -58.55 99.35 -61.55 99.35 -61.95 Q102.45 -58.5 102.5 -53.45 102.5 -51.55 102.1 -49.45 L101.75 -46.6 101.5 -46.5 100.95 -46.3 Q96.1 -44.45 92.0 -43.3 L91.75 -43.25 Q74.1 -38.5 69.9 -47.65 L70.05 -51.4 M87.25 49.3 Q84.5 46.45 82.35 41.75 80.15 36.9 78.55 30.05 77.95 27.65 77.5 25.0 78.7 28.15 79.95 30.45 L81.0 32.2 Q83.7 36.3 86.5 36.3 86.7 41.1 87.85 44.75 89.2 49.2 92.0 52.0 L91.0 52.1 Q89.0 51.1 87.25 49.3" fill="#32686b" fill-rule="evenodd" stroke="none"/>
    <path d="M113.2 -56.95 L116.7 -50.4 116.9 -50.05 115.2 -49.55 Q105.5 -46.55 103.75 -45.6 L103.15 -45.3 101.65 -44.6 101.65 -44.5 101.0 -44.25 Q96.85 -42.5 93.25 -41.25 L92.65 -41.05 Q89.45 -40.05 86.7 -39.4 L79.05 -38.65 Q73.3 -38.95 71.0 -42.7 L70.3 -44.2 69.9 -45.3 69.85 -45.65 69.9 -47.65 Q74.1 -38.5 91.75 -43.25 L92.0 -43.3 Q96.1 -44.45 100.95 -46.3 L101.5 -46.5 101.5 -46.45 101.55 -46.5 101.75 -46.6 102.1 -49.45 Q102.5 -51.55 102.5 -53.45 102.45 -58.5 99.35 -61.95 L99.45 -64.35 103.3 -68.65 103.5 -68.55 103.5 -68.45 Q105.15 -67.6 106.9 -65.75 L108.0 -64.5 Q110.5 -61.6 113.2 -56.95 M95.9 25.95 Q96.3 27.1 98.1 28.7 L98.7 29.25 100.3 27.65 Q101.1 29.65 99.5 30.65 L99.55 30.65 99.1 36.4 Q98.25 43.3 96.65 47.2 94.8 51.4 92.0 52.0 89.2 49.2 87.85 44.75 86.7 41.1 86.5 36.3 L88.0 36.0 Q90.65 34.95 93.45 30.3 L95.9 25.95" fill="#275252" fill-rule="evenodd" stroke="none"/>
    <path d="M110.3 17.85 L112.0 22.55 Q111.4 29.5 103.5 34.25 L103.15 34.45 Q101.15 35.2 99.1 36.4 L99.55 30.65 99.5 30.65 Q101.1 29.65 100.3 27.65 L110.3 17.85 M78.55 30.05 Q72.6 28.15 71.35 22.9 L72.65 14.9 74.4 15.6 Q77.95 20.5 78.7 22.9 78.1 24.7 77.5 25.0 77.95 27.65 78.55 30.05" fill="#363833" fill-rule="evenodd" stroke="none"/>
    <path d="M122.95 -18.15 L119.8 -16.05 119.8 -16.0 113.3 4.25 112.05 3.25 111.25 4.2 110.9 4.05 Q108.0 2.4 106.8 0.05 106.0 -1.35 105.85 -3.05 L105.85 -3.1 Q104.9 -5.95 103.55 -8.4 104.9 -5.95 105.85 -3.1 L105.85 -3.05 Q106.0 -1.35 106.8 0.05 108.0 2.4 110.9 4.05 L111.25 4.2 Q107.4 8.75 103.95 12.15 99.35 16.5 95.45 18.9 86.2 24.65 80.45 19.3 L80.45 19.2 Q80.5 13.35 82.05 13.75 L89.5 14.25 Q101.65 12.5 103.55 -8.4 L101.7 -11.3 100.75 -12.3 98.55 -14.7 97.8 -15.25 Q96.5 -16.25 95.0 -17.1 L95.05 -17.45 Q96.6 -17.2 98.45 -17.45 L101.3 -18.1 Q104.75 -18.8 107.45 -20.5 L107.6 -20.6 Q108.55 -21.25 109.5 -22.05 L111.15 -23.8 112.55 -25.65 113.35 -27.0 114.5 -29.35 Q115.8 -24.0 119.75 -22.8 121.15 -20.45 122.95 -18.15 M114.75 6.9 Q115.9 13.55 114.8 13.45 L110.3 17.85 100.3 27.65 98.7 29.25 98.1 28.7 Q96.3 27.1 95.9 25.95 100.7 19.6 105.45 15.0 L107.1 13.4 Q110.05 10.65 113.5 7.9 L114.75 6.9 M105.4 64.65 L102.2 64.65 100.5 60.4 98.5 54.75 Q97.25 50.75 96.65 47.2 98.25 43.3 99.1 36.4 101.15 35.2 103.15 34.45 L103.1 35.85 Q102.75 50.95 105.05 62.75 L105.4 64.65 M84.2 64.65 L82.6 64.65 82.95 56.3 82.8 46.55 82.35 41.75 Q84.5 46.45 87.25 49.3 L87.1 50.2 86.6 52.75 84.2 64.65 M70.35 4.5 L68.75 2.75 67.0 -13.25 66.35 -19.55 64.8 -22.05 64.8 -22.15 62.1 -25.75 65.0 -22.8 67.25 -21.4 Q68.8 -20.55 70.55 -20.2 L70.6 -20.2 73.7 -20.0 73.7 -19.8 Q69.8 -11.95 73.7 -8.7 71.4 -5.75 73.8 -0.9 72.95 1.05 71.15 2.75 L70.35 4.5 M103.65 -71.35 L102.2 -69.6 101.85 -69.15 99.55 -67.6 99.45 -64.35 99.35 -61.95 99.35 -61.55 94.3 -61.6 94.05 -61.4 95.25 -67.3 93.35 -66.25 Q93.9 -68.0 93.1 -69.75 L90.7 -69.15 Q86.9 -67.9 83.85 -64.75 83.3 -66.15 83.0 -67.5 82.7 -68.5 82.55 -69.45 L82.35 -70.7 88.2 -75.0 Q91.35 -70.6 94.5 -71.65 98.25 -72.85 98.5 -76.4 101.65 -74.15 103.65 -71.35" fill="#584569" fill-rule="evenodd" stroke="none"/>
    <path d="M73.95 -63.45 L73.95 -63.65 74.75 -64.7 76.5 -58.95 77.15 -55.85 77.1 -55.85 Q75.4 -59.5 73.95 -63.45 M102.2 -69.6 L103.4 -68.75 103.3 -68.65 99.45 -64.35 99.55 -67.6 101.85 -69.15 102.2 -69.6 M80.0 -54.3 L80.65 -53.45 79.85 -52.35 80.0 -54.3" fill="#363636" fill-rule="evenodd" stroke="none"/>
    <path d="M76.5 -58.95 L76.6 -58.6 80.0 -54.3 79.85 -52.35 80.65 -53.45 81.25 -52.75 79.85 -52.35 78.05 -54.15 Q77.4 -54.8 77.2 -55.6 L77.15 -55.85 76.5 -58.95" fill="#783a32" fill-rule="evenodd" stroke="none"/>
    <path d="M77.1 -55.85 L77.15 -55.85 77.2 -55.6 77.1 -55.85" fill="#1c334a" fill-rule="evenodd" stroke="none"/>
    <path d="M67.1 -49.95 Q68.6 -51.2 70.05 -51.4 L69.9 -47.65 69.85 -45.65 69.9 -45.3 70.3 -44.2 Q66.35 -44.0 63.0 -40.85 L61.65 -39.5 Q62.4 -42.7 63.95 -46.3 L65.05 -47.8 67.1 -49.95 M103.75 -45.6 Q105.5 -46.55 115.2 -49.55 L116.9 -50.05 Q117.95 -50.7 120.35 -47.55 L117.1 -43.45 Q115.35 -41.35 114.75 -36.6 113.35 -40.2 110.65 -42.4 107.85 -44.7 103.75 -45.6" fill="#726790" fill-rule="evenodd" stroke="none"/>
    <path d="M73.8 -20.0 L74.2 -20.0 73.7 -19.8 73.8 -20.0" fill="#643342" fill-rule="evenodd" stroke="none"/>
    <path d="M74.2 -20.0 L75.4 -20.35 79.75 -20.75 82.3 -20.7 82.3 -20.6 81.8 -16.1 81.6 -13.6 Q81.35 -10.7 81.2 -5.2 L78.5 -6.0 Q75.45 -7.1 73.7 -8.7 75.45 -7.1 78.5 -6.0 L81.2 -5.2 81.85 2.15 82.2 6.65 Q78.5 5.75 75.7 2.65 L75.35 2.3 73.8 -0.9 Q71.4 -5.75 73.7 -8.7 69.8 -11.95 73.7 -19.8 L74.2 -20.0" fill="#5a5a5a" fill-rule="evenodd" stroke="none"/>
    <path d="M103.4 -68.75 L103.5 -68.55 103.3 -68.65 103.4 -68.75 M73.7 -20.0 L73.8 -20.0 73.7 -19.8 73.7 -20.0 M93.7 -17.75 L95.05 -17.45 95.0 -17.1 93.7 -17.75 M101.55 -46.5 L101.5 -46.45 101.5 -46.5 101.55 -46.5" fill="#294876" fill-rule="evenodd" stroke="none"/>
    <path d="M121.5 -47.35 L121.35 -47.25 Q115.95 -37.7 118.7 -24.8 L119.75 -22.8 Q115.8 -24.0 114.5 -29.35 L114.5 -31.35 114.5 -32.9 Q114.55 -34.95 114.75 -36.6 115.35 -41.35 117.1 -43.45 L120.35 -47.55 121.5 -47.35" fill="#0e1a27" fill-rule="evenodd" stroke="none"/>
    <path d="M101.75 -46.6 L101.55 -46.5 101.5 -46.5 101.75 -46.6" fill="#30727a" fill-rule="evenodd" stroke="none"/>
    <path d="M76.8 -65.85 L76.8 -68.75 Q77.1 -69.6 79.05 -68.55 L79.3 -68.15 Q80.3 -66.5 82.0 -65.55 82.85 -65.05 83.85 -64.75 86.9 -67.9 90.7 -69.15 L93.1 -69.75 Q93.9 -68.0 93.35 -66.25 L95.25 -67.3 94.05 -61.4 90.8 -59.15 88.4 -63.5 86.4 -60.65 83.85 -63.35 82.35 -61.1 80.95 -62.95 80.9 -58.45 77.7 -61.25 76.8 -65.85 M100.75 -12.3 L101.7 -11.3 103.55 -8.4 Q101.65 12.5 89.5 14.25 L82.05 13.75 Q77.7 11.0 75.55 3.05 L75.35 2.3 75.7 2.65 Q78.5 5.75 82.2 6.65 87.55 7.1 92.15 4.8 L96.2 2.15 Q98.8 -3.65 99.05 -9.2 L100.75 -12.3" fill="#120610" fill-rule="evenodd" stroke="none"/>
    <path d="M95.45 18.9 L95.25 20.1 Q94.95 22.85 95.9 25.95 L93.45 30.3 Q90.65 34.95 88.0 36.0 L86.5 36.3 Q83.7 36.3 81.0 32.2 L79.95 30.45 Q78.7 28.15 77.5 25.0 78.1 24.7 78.7 22.9 L79.0 21.75 79.65 18.45 80.45 19.3 Q86.2 24.65 95.45 18.9" fill="#387675" fill-rule="evenodd" stroke="none"/>
    <path d="M69.7 -71.25 L70.5 -73.75 Q73.45 -81.1 79.75 -85.1 82.2 -86.75 85.25 -87.85 L85.35 -87.85 Q83.95 -84.7 83.2 -81.65 L81.5 -81.65 80.65 -80.35 81.05 -78.35 82.5 -78.2 Q81.9 -74.35 82.35 -70.7 80.05 -72.05 78.5 -73.9 77.2 -75.35 76.35 -77.1 74.85 -78.45 71.95 -74.55 L69.7 -71.25 M78.75 -77.55 L80.1 -75.45 Q79.7 -77.25 80.5 -77.75 L80.1 -79.7 78.75 -77.55 M81.75 -52.1 L84.1 -55.45 87.75 -52.1 81.75 -52.1" fill="#957eab" fill-rule="evenodd" stroke="none"/>
    <path d="M71.95 -74.55 Q74.85 -78.45 76.35 -77.1 77.2 -75.35 78.5 -73.9 78.2 -70.25 75.25 -70.0 73.2 -70.4 71.95 -74.55 M88.2 -75.0 L90.15 -76.4 90.35 -76.5 Q92.3 -78.1 95.05 -78.5 L98.5 -76.4 Q98.25 -72.85 94.5 -71.65 91.35 -70.6 88.2 -75.0" fill="#bbddff" fill-rule="evenodd" stroke="none"/>
    <path d="M74.75 -64.7 L74.0 -67.2 73.7 -67.55 74.7 -68.5 76.8 -65.85 77.7 -61.25 80.9 -58.45 80.95 -62.95 82.35 -61.1 83.85 -63.35 84.1 -55.45 81.75 -52.1 81.25 -52.75 80.65 -53.45 80.0 -54.3 76.6 -58.6 76.5 -58.95 74.75 -64.7 M85.4 -87.9 L85.45 -87.9 90.65 -86.05 Q97.5 -82.85 102.0 -76.4 L104.4 -72.35 103.65 -71.35 Q101.65 -74.15 98.5 -76.4 L95.05 -78.5 Q92.3 -78.1 90.35 -76.5 L90.15 -76.4 88.2 -75.0 82.35 -70.7 Q81.9 -74.35 82.5 -78.2 L83.5 -78.1 84.85 -79.55 84.2 -81.65 83.2 -81.65 Q83.95 -84.7 85.35 -87.85 L85.4 -87.9 M85.45 -78.85 L84.05 -77.45 Q84.6 -76.65 83.95 -75.25 L85.95 -77.3 85.45 -78.85" fill="#8568a5" fill-rule="evenodd" stroke="none"/>
    <path d="M78.75 -77.55 L80.1 -79.7 80.5 -77.75 Q79.7 -77.25 80.1 -75.45 L78.75 -77.55 M82.5 -78.2 L81.05 -78.35 80.65 -80.35 81.5 -81.65 83.2 -81.65 84.2 -81.65 84.85 -79.55 83.5 -78.1 82.5 -78.2 M85.45 -78.85 L85.95 -77.3 83.95 -75.25 Q84.6 -76.65 84.05 -77.45 L85.45 -78.85" fill="#d3d301" fill-rule="evenodd" stroke="none"/>
    <path d="M125.6 -120.75 L122.85 -121.35 Q119.0 -123.15 123.85 -128.9 118.7 -127.6 116.5 -123.55 L118.15 -116.35 125.6 -120.75 126.7 -121.4 127.2 -120.35 130.8 -119.5 Q134.85 -118.45 132.95 -126.25 137.75 -124.75 137.65 -119.0 L131.1 -111.3 127.5 -107.2 126.8 -107.3 M70.5 -73.75 Q71.4 -78.1 71.0 -77.95 60.2 -86.15 57.35 -92.85 L57.3 -93.2 Q56.05 -100.2 62.75 -113.3 67.8 -115.55 74.5 -114.65 69.25 -114.05 66.45 -111.1 L66.35 -110.9 Q64.45 -106.6 64.05 -101.85 L69.1 -101.9 63.9 -98.75 63.95 -98.1 Q72.0 -87.75 77.5 -85.65 78.65 -85.2 79.75 -85.1 M90.65 -86.05 L91.7 -87.1 Q95.35 -91.1 97.95 -96.8 98.7 -101.0 96.65 -104.95 L87.05 -106.15 94.75 -107.85 Q92.45 -110.8 88.6 -113.75 L88.55 -113.85 79.4 -113.85 Q84.2 -116.55 91.95 -116.85 L92.2 -116.7 Q103.85 -110.05 106.15 -98.0 L106.2 -97.9 106.2 -97.5 Q106.05 -87.75 101.05 -79.65 L101.2 -79.5 101.25 -79.35 102.0 -76.4 M119.85 -108.9 L118.15 -116.35 M131.1 -111.3 L127.2 -120.35 M119.85 -108.9 L126.8 -107.3" fill="none" stroke="#1b1b1b" stroke-linecap="round" stroke-linejoin="round" stroke-width="0.05"/>
    <path d="M126.8 -107.3 L123.8 -96.2 121.4 -87.3 118.45 -76.35 114.85 -62.9 113.2 -56.95 M106.9 -65.75 L110.75 -78.55 114.1 -89.8 117.45 -100.9 119.85 -108.9 M110.75 -78.55 L118.45 -76.35 M114.1 -89.8 L121.4 -87.3 M114.85 -62.9 L108.0 -64.5 M117.45 -100.9 L123.8 -96.2" fill="none" stroke="#564e47" stroke-linecap="round" stroke-linejoin="round" stroke-width="0.05"/>
    <path d="M116.7 -50.4 L123.9 -48.85 123.85 -48.65 M98.5 54.75 L97.45 58.95 87.7 64.65 M55.55 64.65 L59.85 51.45 M69.9 20.55 L72.45 12.6" fill="none" stroke="#333333" stroke-linecap="round" stroke-linejoin="round" stroke-width="0.05"/>
    <path d="M113.2 -56.95 L116.7 -50.4 M144.5 -10.05 Q146.55 -8.55 147.7 -4.85 L147.85 -4.3 148.25 -2.4 157.15 11.65 149.25 10.9 149.3 12.4 149.4 13.85 149.75 22.0 150.25 32.0 Q151.85 32.85 152.8 36.45 L151.75 48.2 150.75 49.4 150.65 50.55 150.55 50.55 143.6 49.05 139.45 41.65 142.55 32.25 144.45 31.5 143.25 28.45 141.2 23.35 141.15 23.35 137.6 15.3 Q124.8 2.95 133.65 -6.5 L134.05 -7.05 134.6 -7.6 M150.75 15.85 L154.6 23.2 149.75 22.0 M113.3 4.25 Q114.15 5.25 114.75 6.9 115.9 13.55 114.8 13.45 L110.3 17.85 112.0 22.55 Q115.1 14.2 115.15 14.7 125.9 24.0 128.2 37.3 130.35 49.55 128.45 64.65 M102.2 64.65 L100.5 60.4 98.5 54.75 M59.85 51.45 Q59.15 46.2 59.25 41.2 59.4 28.7 67.5 16.95 L69.9 20.55 M61.3 -5.1 L63.0 -3.6 63.3 -3.1 Q70.05 5.2 54.35 12.85 L48.95 18.5 48.9 18.45 45.7 22.05 43.5 24.5 42.85 25.3 45.25 32.9 41.65 40.5 35.35 42.25 35.25 42.25 35.15 41.1 34.2 39.95 33.1 28.15 Q34.2 22.9 36.7 23.35 L38.15 22.85 40.55 16.3 35.4 16.6 40.95 11.55 M42.8 10.25 L43.2 9.15 43.6 8.0 35.45 7.55 47.6 -1.9 48.45 -3.3 48.75 -3.7 Q50.3 -5.8 52.2 -6.8 M70.05 -51.4 L73.9 -63.45 M103.5 -68.55 L103.5 -68.45 Q105.15 -67.6 106.9 -65.75 M77.1 -55.85 L77.2 -55.6 Q77.4 -54.8 78.05 -54.15 L79.85 -52.35 81.25 -52.75 M73.95 -63.45 Q75.4 -59.5 77.1 -55.85 M70.3 -44.2 L71.0 -42.7 Q73.3 -38.95 79.05 -38.65 L86.7 -39.4 Q89.45 -40.05 92.65 -41.05 L93.25 -41.25 Q96.85 -42.5 101.0 -44.25 L101.65 -44.5 101.65 -44.6 103.15 -45.3 103.75 -45.6 Q105.5 -46.55 115.2 -49.55 L116.9 -50.05 116.7 -50.4 M70.3 -44.2 L69.9 -45.3 69.85 -45.65 69.9 -47.65 70.05 -51.4 M48.75 -3.7 Q56.85 1.4 63.0 -3.6 M91.1 -54.0 L88.5 -51.9 82.25 -47.65 Q77.75 -44.8 74.55 -55.3 M113.2 -56.95 Q110.5 -61.6 108.0 -64.5 L106.9 -65.75 M111.25 4.2 L112.05 3.25 113.3 4.25 M147.7 -4.85 Q138.5 0.3 134.05 -7.05 M148.25 -2.4 L148.8 2.55 149.25 10.9 M150.25 32.0 L150.35 34.4 Q148.95 36.05 145.55 34.5 L144.6 31.9 144.45 31.5 M143.6 49.05 Q143.7 46.45 144.35 45.25 M111.25 4.2 Q107.4 8.75 103.95 12.15 99.35 16.5 95.45 18.9 L95.25 20.1 Q94.95 22.85 95.9 25.95 96.3 27.1 98.1 28.7 L98.7 29.25 100.3 27.65 110.3 17.85 M80.45 19.3 Q86.2 24.65 95.45 18.9 M100.3 27.65 Q101.1 29.65 99.5 30.65 L99.55 30.65 99.1 36.4 Q101.15 35.2 103.15 34.45 L103.5 34.25 Q111.4 29.5 112.0 22.55 M87.25 49.3 Q84.5 46.45 82.35 41.75 80.15 36.9 78.55 30.05 72.6 28.15 71.35 22.9 L69.9 20.55 M99.1 36.4 Q98.25 43.3 96.65 47.2 97.25 50.75 98.5 54.75 M77.5 25.0 Q77.95 27.65 78.55 30.05 M84.2 64.65 L86.6 52.75 87.1 50.2 87.25 49.3 Q89.0 51.1 91.0 52.1 L92.0 52.0 Q94.8 51.4 96.65 47.2 M79.65 18.45 Q77.55 16.1 75.95 12.15 74.3 8.1 73.25 2.45 70.0 4.6 70.3 9.0 L72.25 12.1 72.55 12.75 72.8 13.35 72.8 13.45 74.4 15.6 Q77.95 20.5 78.7 22.9 L79.0 21.75 79.65 18.45 80.45 19.3 M71.35 22.9 L72.65 14.9 74.4 15.6 M47.6 -1.9 L45.95 1.75 43.6 8.0 M40.55 16.3 L42.8 10.25 M42.85 25.3 L41.95 26.3 Q38.15 27.05 37.15 25.65 L38.15 22.85 M41.65 40.5 Q41.45 37.9 40.9 36.7 M78.7 22.9 Q78.1 24.7 77.5 25.0 M62.55 64.55 L62.55 64.65 M59.85 51.45 Q60.65 57.8 62.55 64.55" fill="none" stroke="#301820" stroke-linecap="round" stroke-linejoin="round" stroke-width="0.05"/>
    <path d="M149.4 13.85 L150.75 15.85 M40.95 11.55 L42.8 10.25 M73.95 -63.45 L73.95 -63.65 74.75 -64.7 M102.2 -69.6 L103.4 -68.75 M77.2 -55.6 L77.15 -55.85 76.5 -58.95 M80.0 -54.3 L79.85 -52.35 80.65 -53.45 M50.1 -28.6 L53.3 -27.9 M53.5 -30.85 L50.35 -31.4 M50.95 -35.7 L55.25 -34.8 M73.7 -19.8 Q69.8 -11.95 73.7 -8.7 75.45 -7.1 78.5 -6.0 L81.2 -5.2 M73.8 -0.9 Q71.4 -5.75 73.7 -8.7 M99.05 -9.2 Q97.75 -7.55 95.35 -6.55 90.55 -4.6 81.2 -5.2 M138.4 -32.55 L141.4 -33.95 M139.95 -37.7 L135.8 -35.55 M142.3 -31.5 L139.2 -29.9 M75.35 2.3 L73.8 -0.9" fill="none" stroke="#303030" stroke-linecap="round" stroke-linejoin="round" stroke-width="0.05"/>
    <path d="M123.85 -48.65 Q131.8 -52.3 139.5 -45.35 141.05 -41.6 139.95 -37.7 L141.4 -33.95 142.3 -31.5 144.3 -22.4 Q145.35 -16.85 144.7 -10.15 L144.5 -10.05 M134.6 -7.6 Q127.4 -12.55 122.95 -18.15 M67.0 -13.25 Q64.55 -9.2 61.3 -5.1 M52.2 -6.8 Q50.35 -13.0 50.15 -18.65 49.9 -24.8 50.1 -28.6 L50.35 -31.4 50.95 -35.7 Q49.05 -39.4 49.75 -43.7 56.25 -54.7 66.1 -51.2 L67.1 -49.95 M58.35 -4.1 L60.3 -3.9 61.3 -5.1 M58.35 -4.1 L56.65 -4.45 Q54.5 -4.95 52.45 -5.9 L52.2 -6.8 M121.35 -47.25 L121.5 -47.35 123.85 -48.65 M119.75 -22.8 L118.7 -24.8 Q115.95 -37.7 121.35 -47.25 M139.1 -6.7 L140.75 -7.55 144.5 -10.05 M139.1 -6.7 L137.1 -5.95 Q135.8 -6.75 134.6 -7.6 M119.75 -22.8 Q121.15 -20.45 122.95 -18.15" fill="none" stroke="#1d3450" stroke-linecap="round" stroke-linejoin="round" stroke-width="0.05"/>
    <path d="M122.95 -18.15 L119.8 -16.05 119.8 -16.0 113.3 4.25 M72.45 12.6 L69.95 9.0 Q69.8 6.3 70.35 4.5 L68.75 2.75 67.0 -13.25 66.35 -19.55 64.8 -22.05 M67.1 -49.95 Q68.6 -51.2 70.05 -51.4 M74.75 -64.7 L74.0 -67.2 73.7 -67.55 69.7 -71.25 70.5 -73.75 M79.75 -85.1 Q82.2 -86.75 85.25 -87.85 L85.4 -87.9 85.45 -87.9 90.65 -86.05 Q97.5 -82.85 102.0 -76.4 L104.4 -72.35 103.65 -71.35 102.2 -69.6 101.85 -69.15 99.55 -67.6 99.45 -64.35 99.35 -61.95 M103.4 -68.75 L103.5 -68.55 M71.95 -74.55 Q74.85 -78.45 76.35 -77.1 77.2 -75.35 78.5 -73.9 80.05 -72.05 82.35 -70.7 L88.2 -75.0 90.15 -76.4 90.35 -76.5 Q92.3 -78.1 95.05 -78.5 L98.5 -76.4 Q101.65 -74.15 103.65 -71.35 M83.85 -64.75 Q82.85 -65.05 82.0 -65.55 80.3 -66.5 79.3 -68.15 L79.05 -68.55 Q77.1 -69.6 76.8 -68.75 L76.8 -65.85 77.7 -61.25 80.9 -58.45 80.95 -62.95 82.35 -61.1 83.85 -63.35 86.4 -60.65 88.4 -63.5 90.8 -59.15 94.05 -61.4 95.25 -67.3 93.35 -66.25 Q93.9 -68.0 93.1 -69.75 L90.7 -69.15 Q86.9 -67.9 83.85 -64.75 M78.5 -73.9 Q78.2 -70.25 75.25 -70.0 73.2 -70.4 71.95 -74.55 L69.7 -71.25 M76.5 -58.95 L76.6 -58.6 80.0 -54.3 80.65 -53.45 81.25 -52.75 81.75 -52.1 87.75 -52.1 M76.5 -58.95 L74.75 -64.7 M79.75 -85.1 Q73.45 -81.1 70.5 -73.75 M65.05 -47.8 L63.95 -46.3 Q62.4 -42.7 61.65 -39.5 L63.0 -40.85 Q66.35 -44.0 70.3 -44.2 M62.1 -25.75 L61.55 -27.15 Q60.8 -29.25 60.7 -31.75 M74.2 -20.0 L75.4 -20.35 79.75 -20.75 82.3 -20.7 83.25 -20.6 86.75 -19.95 93.5 -17.8 93.7 -17.75 M73.7 -19.8 L74.2 -20.0 M82.3 -20.6 L82.3 -20.7 M64.8 -22.15 L62.1 -25.75 M61.65 -39.5 Q60.5 -35.25 60.7 -31.75 M67.1 -49.95 L65.05 -47.8 M85.4 -87.9 L85.35 -87.85 M91.1 -54.0 L87.75 -52.1 M94.05 -61.4 L94.3 -61.6 M99.35 -61.55 L99.35 -61.95 M99.35 -61.55 L99.25 -58.55 91.1 -54.0 M88.2 -75.0 Q91.35 -70.6 94.5 -71.65 98.25 -72.85 98.5 -76.4 M114.5 -29.35 Q115.8 -24.0 119.75 -22.8 M103.75 -45.6 Q107.85 -44.7 110.65 -42.4 113.35 -40.2 114.75 -36.6 M95.0 -17.1 L93.7 -17.75 M95.0 -17.1 Q96.5 -16.25 97.8 -15.25 L98.55 -14.7 100.75 -12.3 101.7 -11.3 103.55 -8.4 Q104.9 -5.95 105.85 -3.1 L105.85 -3.05 Q106.0 -1.35 106.8 0.05 108.0 2.4 110.9 4.05 L111.25 4.2 M99.05 -9.2 L100.75 -12.3 M82.2 6.65 Q87.55 7.1 92.15 4.8 L96.2 2.15 Q98.8 -3.65 99.05 -9.2 M116.9 -50.05 Q117.95 -50.7 120.35 -47.55 M103.55 -8.4 Q101.65 12.5 89.5 14.25 L82.05 13.75 M82.2 6.65 Q78.5 5.75 75.7 2.65 L75.35 2.3 75.55 3.05 Q77.7 11.0 82.05 13.75 M72.55 12.75 L72.45 12.6 M73.8 -0.9 Q72.95 1.05 71.15 2.75 L70.35 4.5" fill="none" stroke="#372c4e" stroke-linecap="round" stroke-linejoin="round" stroke-width="0.05"/>
    <path d="M77.5 -85.65 Q73.5 -83.85 71.0 -77.95 M91.7 -87.1 Q97.85 -84.7 101.05 -79.65" fill="none" stroke="#929292" stroke-linecap="round" stroke-linejoin="round" stroke-width="0.05"/>
  </g>
</svg>
