<?xml version="1.0" encoding="UTF-8" standalone="no"?>
<svg xmlns:xlink="http://www.w3.org/1999/xlink" height="17.7px" width="5.4px" xmlns="http://www.w3.org/2000/svg">
  <g transform="matrix(1, 0, 0, 1, 3.75, 5.65)">
    <path d="M0.4 9.3 L0.4 9.5 Q-0.55 10.85 -2.1 11.15 L-2.4 3.1 Q-0.1 4.6 0.35 8.05 L0.4 9.3" fill="#ddc5cd" fill-rule="evenodd" stroke="none"/>
    <path d="M0.7 1.5 L0.4 9.3 0.35 8.05 Q-0.1 4.6 -2.4 3.1 L-2.45 1.95 Q-0.9 1.05 0.7 1.5" fill="#cda5b8" fill-rule="evenodd" stroke="none"/>
    <path d="M-2.45 1.95 L-2.55 -1.35 Q-0.9 -1.75 0.75 -0.2 L0.7 1.5 Q-0.9 1.05 -2.45 1.95" fill="#5b2424" fill-rule="evenodd" stroke="none"/>
    <path d="M0.4 9.5 L0.35 11.65 Q-0.85 12.6 -2.1 11.4 L-2.1 11.15 Q-0.55 10.85 0.4 9.5" fill="#693e1b" fill-rule="evenodd" stroke="none"/>
    <path d="M-2.45 1.95 L-2.55 -1.35 Q-0.9 -1.75 0.75 -0.2 L0.7 1.5 0.4 9.3 0.4 9.5 0.35 11.65 M-2.1 11.4 L-2.1 11.15 -2.4 3.1 -2.45 1.95" fill="none" stroke="#1b1b1b" stroke-linecap="round" stroke-linejoin="round" stroke-width="0.05"/>
    <path d="M-2.45 1.95 Q-0.9 1.05 0.7 1.5 M0.4 9.5 Q-0.55 10.85 -2.1 11.15" fill="none" stroke="#9a3f3f" stroke-linecap="round" stroke-linejoin="round" stroke-width="0.05"/>
    <path d="M1.55 0.25 Q-1.15 -0.45 -2.45 2.05 -3.75 1.0 -3.75 -0.55 -2.25 -5.6 0.1 -5.65 2.1 -3.05 1.55 0.25" fill="#f0cb60" fill-rule="evenodd" stroke="none"/>
    <path d="M1.55 0.25 Q-1.15 -0.45 -2.45 2.05 -3.75 1.0 -3.75 -0.55 -2.25 -5.6 0.1 -5.65 2.1 -3.05 1.55 0.25" fill="none" stroke="#000000" stroke-linecap="round" stroke-linejoin="round" stroke-width="0.05"/>
  </g>
</svg>
