<?xml version="1.0" encoding="UTF-8" standalone="no"?>
<svg xmlns:xlink="http://www.w3.org/1999/xlink" height="7.9px" width="15.2px" xmlns="http://www.w3.org/2000/svg">
  <g transform="matrix(1, 0, 0, 1, 9.3, 1.35)">
    <path d="M-0.15 -0.65 L0.4 0.2 -1.95 3.35 -5.5 3.35 -0.15 -0.65" fill="#dfc6cf" fill-rule="evenodd" stroke="none"/>
    <path d="M-0.15 -0.65 L0.75 -1.35 4.4 -1.35 Q6.1 -0.8 5.9 4.3 L3.35 3.3 Q-2.8 5.45 -9.3 6.55 L-5.5 3.35 -1.95 3.35 0.4 0.2 -0.15 -0.65 M4.4 2.5 L3.35 3.3 4.4 2.5" fill="#7a3430" fill-rule="evenodd" stroke="none"/>
    <path d="M3.35 3.3 L5.9 4.3 Q6.1 -0.8 4.4 -1.35 L0.75 -1.35 -0.15 -0.65 0.4 0.2 -1.95 3.35 -5.5 3.35 -9.3 6.55 Q-2.8 5.45 3.35 3.3 L4.4 2.5 M-5.5 3.35 L-0.15 -0.65" fill="none" stroke="#272727" stroke-linecap="round" stroke-linejoin="round" stroke-width="0.05"/>
  </g>
</svg>
