<?xml version="1.0" encoding="UTF-8" standalone="no"?>
<svg xmlns:xlink="http://www.w3.org/1999/xlink" height="12.2px" width="13.3px" xmlns="http://www.w3.org/2000/svg">
  <g transform="matrix(1, 0, 0, 1, 0.05, 6.95)">
    <path d="M13.2 -4.45 L13.2 -4.4 13.2 -4.45" fill="#cccccc" fill-rule="evenodd" stroke="none"/>
    <path d="M-0.05 0.0 Q3.15 -5.9 6.15 -6.75 7.15 -7.35 9.6 -6.15 L13.2 -4.45 13.2 -4.4 13.1 -4.2 13.2 -4.4 Q13.5 0.8 11.9 5.25 10.4 3.45 11.6 0.5 12.8 -2.5 12.5 -4.25 8.95 -5.3 6.45 -6.55 6.35 -5.65 0.45 0.0 L-0.05 0.0 M6.15 -6.75 L6.45 -6.55 6.15 -6.75 M12.5 -4.25 L13.2 -4.4 12.5 -4.25" fill="#465457" fill-rule="evenodd" stroke="none"/>
    <path d="M11.9 5.25 Q10.4 3.45 11.6 0.5 12.8 -2.5 12.5 -4.25 8.95 -5.3 6.45 -6.55 6.35 -5.65 0.45 0.0 L-0.05 0.0 M6.45 -6.55 L6.15 -6.75 M13.2 -4.4 L12.5 -4.25" fill="none" stroke="#666666" stroke-linecap="round" stroke-linejoin="round" stroke-width="0.05"/>
  </g>
</svg>
