<?xml version="1.0" encoding="UTF-8" standalone="no"?>
<svg xmlns:xlink="http://www.w3.org/1999/xlink" height="156.0px" width="84.0px" xmlns="http://www.w3.org/2000/svg">
  <g transform="matrix(1, 0, 0, 1, -60.6, 99.35)">
    <path d="M83.95 -68.8 L83.75 -71.05 83.8 -72.5 83.9 -72.0 83.95 -71.75 84.9 -71.65 85.4 -71.55 86.65 -70.8 87.15 -70.2 87.65 -69.15 87.65 -69.05 Q89.3 -67.1 93.3 -67.8 L94.05 -67.8 95.9 -67.8 98.85 -68.15 98.95 -68.1 98.95 -68.15 99.6 -68.3 99.55 -65.95 100.3 -68.5 102.2 -69.3 Q102.15 -64.75 101.15 -60.1 99.35 -57.65 95.85 -55.35 L95.2 -54.95 94.3 -54.4 93.0 -53.65 92.25 -53.85 93.0 -53.65 94.9 -53.7 93.45 -51.5 94.9 -53.7 Q97.25 -53.9 99.45 -54.75 98.8 -52.35 98.7 -50.2 L99.0 -49.15 Q96.25 -49.35 94.7 -50.4 L93.45 -51.5 92.25 -53.85 Q91.3 -54.1 90.5 -54.55 L89.8 -55.35 Q86.1 -59.85 83.95 -69.0 L83.95 -68.8 M137.6 -6.55 L139.4 -0.6 Q137.15 -5.95 134.4 -1.7 L133.05 0.95 133.0 1.1 132.95 1.15 126.8 -15.6 131.75 -16.0 Q135.4 -12.8 137.6 -6.55 M140.75 2.55 L142.15 6.45 143.85 27.9 144.2 33.1 144.6 35.1 142.15 45.7 141.0 46.6 140.85 47.65 139.95 47.35 139.4 46.9 Q137.85 45.45 137.9 41.5 L136.8 39.9 136.7 39.7 135.5 38.05 132.45 34.8 135.25 29.35 138.0 29.0 137.75 27.9 Q135.65 19.5 132.8 12.15 131.85 7.6 132.7 2.75 L132.95 1.15 133.2 1.25 Q135.6 5.8 138.9 7.8 L139.4 7.1 Q140.4 5.4 140.75 2.55 M75.45 -16.65 L73.85 -11.25 73.95 -10.0 Q74.55 -5.8 73.4 -1.8 70.2 4.7 67.65 12.1 L66.9 14.4 Q68.55 14.2 70.05 14.9 L71.45 19.95 68.05 22.6 66.65 23.9 66.5 24.1 65.25 25.45 Q64.3 29.5 62.2 30.45 L61.35 30.7 61.4 29.7 60.6 28.8 60.6 19.3 60.6 19.2 60.6 19.1 61.6 12.35 64.35 -6.45 65.95 -9.85 Q66.15 -6.8 67.55 -5.35 70.0 -6.7 72.05 -9.2 L73.4 -9.9 73.7 -11.5 73.7 -11.85 Q73.85 -14.75 71.8 -14.2 70.2 -13.8 67.25 -11.3 L67.55 -12.5 71.4 -27.85 Q73.7 -25.55 76.7 -25.35 76.75 -21.55 75.45 -16.65 M73.85 -11.25 L73.4 -9.9 73.85 -11.25 M105.8 -49.95 L105.9 -49.75 105.8 -49.7 105.8 -49.95 M86.55 -64.6 Q87.2 -66.15 87.45 -67.6 L87.65 -69.05 87.45 -67.6 Q87.2 -66.15 86.55 -64.6 87.25 -63.85 88.75 -62.9 88.2 -65.3 86.55 -64.6 M92.05 -58.95 Q90.0 -59.25 88.65 -60.2 90.0 -59.25 92.05 -58.95 M144.2 33.1 L144.4 35.9 Q141.85 38.9 139.4 35.35 L138.0 29.0 139.4 35.35 Q141.85 38.9 144.4 35.9 L144.2 33.1 M137.75 27.9 L139.4 28.45 Q141.85 29.05 143.85 27.9 141.85 29.05 139.4 28.45 L137.75 27.9 M60.6 19.1 L60.6 19.3 Q62.95 21.85 65.6 18.65 L66.9 14.4 65.6 18.65 Q62.95 21.85 60.6 19.3 L60.6 19.1 M67.65 12.1 Q64.15 13.55 61.6 12.35 64.15 13.55 67.65 12.1" fill="#dbd3bb" fill-rule="evenodd" stroke="none"/>
    <path d="M134.65 -17.0 L137.6 -6.55 Q135.4 -12.8 131.75 -16.0 133.4 -16.35 134.65 -17.0 M139.4 -0.6 L139.25 -0.45 139.4 -0.2 140.75 2.55 Q140.4 5.4 139.4 7.1 L138.9 7.8 Q135.6 5.8 133.2 1.25 L132.95 1.15 133.0 1.1 133.05 0.95 134.4 -1.7 Q137.15 -5.95 139.4 -0.6 M139.95 47.35 L133.2 44.65 133.05 44.65 133.25 42.5 131.05 37.6 132.45 34.8 135.5 38.05 136.7 39.7 136.65 39.75 136.8 39.9 137.9 41.5 Q137.85 45.45 139.4 46.9 L139.95 47.35 M78.25 -25.45 L75.45 -16.65 Q76.75 -21.55 76.7 -25.35 L78.25 -25.45 M71.45 19.95 L72.1 22.55 69.15 26.7 68.85 28.65 68.75 28.65 62.2 30.45 Q64.3 29.5 65.25 25.45 L66.5 24.1 66.7 24.0 66.65 23.9 68.05 22.6 71.45 19.95 M65.95 -9.85 L67.55 -12.5 67.25 -11.3 Q70.2 -13.8 71.8 -14.2 73.85 -14.75 73.7 -11.85 L73.7 -11.5 73.4 -9.9 72.05 -9.2 Q70.0 -6.7 67.55 -5.35 66.15 -6.8 65.95 -9.85 M101.15 -60.1 L100.9 -59.15 99.6 -55.35 99.45 -54.75 Q97.25 -53.9 94.9 -53.7 L93.0 -53.65 94.3 -54.4 95.2 -54.95 95.85 -55.35 Q99.35 -57.65 101.15 -60.1 M86.55 -64.6 Q88.2 -65.3 88.75 -62.9 87.25 -63.85 86.55 -64.6 M136.65 39.75 L133.25 42.5 136.65 39.75 M69.15 26.7 L66.7 24.0 69.15 26.7" fill="#cec4a4" fill-rule="evenodd" stroke="none"/>
    <path d="M136.7 39.7 L136.8 39.9 136.65 39.75 136.7 39.7 M66.5 24.1 L66.65 23.9 66.7 24.0 66.5 24.1" fill="#eebf5a" fill-rule="evenodd" stroke="none"/>
    <path d="M71.9 -34.9 L73.5 -42.45 Q73.5 -44.45 74.9 -47.45 76.45 -51.2 79.1 -53.2 L79.8 -53.7 Q78.0 -50.5 77.05 -47.8 75.5 -43.5 76.25 -40.45 76.7 -38.4 77.9 -37.65 77.4 -35.85 77.35 -33.35 L77.4 -32.5 74.4 -33.55 73.0 -34.25 71.9 -34.9 M118.7 -48.35 L124.85 -44.4 124.85 -44.25 124.7 -44.35 122.9 -45.25 120.0 -45.4 119.3 -45.1 Q117.95 -44.5 117.3 -43.05 L117.0 -42.35 116.75 -41.2 116.7 -41.05 116.9 -40.85 117.4 -39.55 117.8 -38.6 Q119.25 -34.95 121.05 -32.6 L121.3 -32.25 121.7 -31.8 122.75 -30.75 Q123.85 -29.7 125.1 -29.1 L125.2 -29.05 126.5 -28.55 Q128.4 -28.05 129.65 -29.45 L130.4 -30.6 130.45 -30.8 131.1 -32.7 131.3 -32.7 131.25 -32.75 131.25 -33.35 131.4 -33.35 Q132.9 -29.2 134.55 -25.75 133.65 -24.9 132.6 -24.2 129.3 -22.05 124.5 -21.8 L122.4 -21.8 Q122.05 -24.85 120.6 -28.3 L119.0 -24.45 Q117.15 -20.15 114.3 -15.9 112.55 -11.7 113.05 -7.8 113.0 -6.45 114.25 -3.4 L116.3 -0.15 118.35 5.1 118.4 5.3 113.25 7.2 108.8 8.25 108.7 8.25 109.2 5.1 Q109.7 2.7 110.1 1.55 L110.2 1.3 106.0 -7.75 104.3 -10.3 100.85 -14.05 Q98.8 -15.8 94.55 -16.75 90.55 -17.55 86.2 -12.6 L86.1 -12.6 Q86.2 -14.75 85.3 -18.9 L84.05 -23.3 Q81.45 -24.2 80.0 -25.8 L79.1 -27.0 Q77.7 -28.85 77.4 -31.55 78.1 -28.45 80.65 -26.7 L81.15 -26.4 84.55 -25.5 Q88.2 -24.55 91.75 -22.85 96.35 -20.55 98.8 -20.35 108.15 -17.75 111.2 -22.8 113.05 -26.95 111.55 -34.55 L113.9 -36.85 118.7 -48.35 M120.2 11.6 Q126.55 34.55 128.75 51.6 L129.45 56.65 122.35 56.65 Q122.15 49.05 121.35 41.55 119.7 27.95 116.3 12.7 L120.2 11.6 M74.85 -37.05 Q74.4 -37.8 74.1 -38.65 73.7 -39.8 73.55 -41.2 L73.5 -42.45 73.55 -41.2 Q73.7 -39.8 74.1 -38.65 74.4 -37.8 74.85 -37.05 M116.05 -30.1 L116.1 -28.25 Q116.0 -23.15 112.45 -19.9 109.0 -16.35 104.1 -16.55 101.25 -16.45 98.9 -17.7 L84.05 -23.3 98.9 -17.7 Q101.25 -16.45 104.1 -16.55 109.0 -16.35 112.45 -19.9 116.0 -23.15 116.1 -28.25 L116.05 -30.1 M120.6 -28.3 L118.8 -32.0 120.6 -28.3 M131.1 -28.7 L131.1 -29.35 131.2 -31.0 131.2 -31.05 131.3 -32.7 131.2 -31.05 131.2 -31.0 131.1 -29.35 131.1 -28.7" fill="#bf935e" fill-rule="evenodd" stroke="none"/>
    <path d="M118.4 -50.0 L118.7 -48.35 113.9 -36.85 111.55 -34.55 109.15 -32.85 Q100.4 -27.1 93.85 -29.85 87.3 -32.65 84.75 -38.1 84.35 -39.1 84.1 -40.15 83.05 -44.6 85.1 -49.75 85.2 -50.65 86.1 -52.3 88.1 -48.6 88.1 -46.65 89.0 -47.2 89.65 -48.05 91.15 -50.15 91.05 -54.05 L90.5 -54.55 Q91.3 -54.1 92.25 -53.85 L93.45 -51.5 94.7 -50.4 Q96.25 -49.35 99.0 -49.15 99.7 -47.0 100.6 -45.8 101.9 -44.0 102.45 -42.35 103.4 -39.1 100.9 -36.65 103.85 -37.8 105.0 -43.0 105.65 -45.8 105.8 -49.7 L105.9 -49.75 Q108.95 -44.15 108.9 -37.9 110.3 -48.4 113.15 -54.3 116.25 -52.15 116.5 -48.3 L118.4 -50.0 M134.55 -25.75 Q136.0 -22.65 137.6 -20.05 136.7 -18.1 134.65 -17.0 133.4 -16.35 131.75 -16.0 L126.8 -15.6 123.1 -15.85 122.4 -21.8 124.5 -21.8 Q129.3 -22.05 132.6 -24.2 133.65 -24.9 134.55 -25.75 M78.4 7.2 Q78.35 4.3 79.3 2.0 L79.9 2.35 85.4 5.2 89.55 6.65 Q103.7 8.6 108.7 8.3 L108.75 8.3 Q108.75 9.5 108.15 11.15 L106.35 14.7 98.4 15.3 93.3 14.6 Q89.65 14.05 89.45 13.7 87.45 13.1 85.45 11.9 81.8 9.9 78.4 7.3 L78.4 7.2 M80.0 -25.8 L78.25 -25.45 76.7 -25.35 Q73.7 -25.55 71.4 -27.85 L70.0 -29.6 Q70.9 -30.95 71.9 -34.9 L73.0 -34.25 74.4 -33.55 77.4 -32.5 77.4 -31.55 Q77.7 -28.85 79.1 -27.0 L80.0 -25.8 M102.45 -42.35 Q92.2 -40.35 89.95 -46.8 L89.65 -48.05 89.95 -46.8 Q92.2 -40.35 102.45 -42.35 M107.05 -43.6 L105.0 -43.0 107.05 -43.6 M115.45 -47.35 Q108.65 -30.55 92.35 -35.95 108.65 -30.55 115.45 -47.35" fill="#a44745" fill-rule="evenodd" stroke="none"/>
    <path d="M79.8 -53.7 Q81.0 -54.45 82.15 -54.55 L82.15 -54.6 82.2 -54.55 Q83.2 -51.6 83.45 -48.95 85.4 -52.15 84.65 -54.75 L86.1 -52.3 Q85.2 -50.65 85.1 -49.75 83.05 -44.6 84.1 -40.15 84.35 -39.1 84.75 -38.1 87.3 -32.65 93.85 -29.85 100.4 -27.1 109.15 -32.85 L111.55 -34.55 Q113.05 -26.95 111.2 -22.8 108.15 -17.75 98.8 -20.35 96.35 -20.55 91.75 -22.85 88.2 -24.55 84.55 -25.5 L81.15 -26.4 80.65 -26.7 Q78.1 -28.45 77.4 -31.55 L77.4 -32.5 77.35 -33.35 Q77.4 -35.85 77.9 -37.65 76.7 -38.4 76.25 -40.45 75.5 -43.5 77.05 -47.8 78.0 -50.5 79.8 -53.7 M124.85 -44.25 Q127.8 -42.35 129.7 -38.5 130.8 -36.2 131.2 -33.95 L131.25 -33.35 131.1 -32.7 130.45 -30.8 130.4 -30.6 129.65 -29.45 Q128.4 -28.05 126.5 -28.55 L125.2 -29.05 125.1 -29.1 Q123.85 -29.7 122.75 -30.75 L121.7 -31.8 121.3 -32.25 121.05 -32.6 Q119.25 -34.95 117.8 -38.6 L117.4 -39.55 116.9 -40.85 116.75 -41.2 117.0 -42.35 117.3 -43.05 Q117.95 -44.5 119.3 -45.1 L120.0 -45.4 122.9 -45.25 124.7 -44.35 124.85 -44.25 M122.35 56.65 L68.25 56.65 71.35 42.85 78.2 7.1 78.4 7.2 78.4 7.3 Q81.8 9.9 85.45 11.9 87.45 13.1 89.45 13.7 89.65 14.05 93.3 14.6 L98.4 15.3 106.35 14.7 116.3 12.7 Q119.7 27.95 121.35 41.55 122.15 49.05 122.35 56.65 M79.9 2.35 Q81.1 -2.75 84.1 -6.75 L85.15 -8.1 Q86.25 -10.05 86.1 -12.6 L86.2 -12.6 Q90.55 -17.55 94.55 -16.75 98.8 -15.8 100.85 -14.05 L104.3 -10.3 106.0 -7.75 110.2 1.3 110.1 1.55 Q109.7 2.7 109.2 5.1 L108.7 8.25 108.7 8.3 Q103.7 8.6 89.55 6.65 L85.4 5.2 79.9 2.35 M79.9 -41.25 L79.9 -41.3 79.85 -41.35 79.9 -41.25 79.25 -40.35 Q78.35 -39.3 77.9 -37.65 78.35 -39.3 79.25 -40.35 L79.9 -41.25 M81.4 -44.35 L81.25 -44.1 79.9 -41.3 81.25 -44.1 81.4 -44.35" fill="#d0b384" fill-rule="evenodd" stroke="none"/>
    <path d="M131.2 -33.95 L131.4 -33.35 131.25 -33.35 131.2 -33.95 M79.9 -41.3 L79.9 -41.25 79.85 -41.35 79.9 -41.3 M116.75 -41.2 L116.9 -40.85 116.7 -41.05 116.75 -41.2 M131.1 -32.7 L131.25 -33.35 131.25 -32.75 131.3 -32.7 131.1 -32.7" fill="#a76a4b" fill-rule="evenodd" stroke="none"/>
    <path d="M118.4 5.3 L118.45 5.3 Q120.95 7.75 120.3 11.6 L120.2 11.6 116.3 12.7 106.35 14.7 108.15 11.15 Q108.75 9.5 108.75 8.3 L108.8 8.25 113.25 7.2 118.4 5.3" fill="#773333" fill-rule="evenodd" stroke="none"/>
    <path d="M108.7 8.25 L108.75 8.3 108.7 8.3 108.7 8.25" fill="#d2c0b7" fill-rule="evenodd" stroke="none"/>
    <path d="M108.8 8.25 L108.75 8.3 108.7 8.25 108.8 8.25" fill="#a8866f" fill-rule="evenodd" stroke="none"/>
    <path d="M83.9 -72.0 L83.9 -72.55 83.95 -71.75 83.9 -72.0" fill="#ffdfc8" fill-rule="evenodd" stroke="none"/>
    <path d="M83.9 -72.55 L83.75 -74.85 Q83.4 -77.3 83.5 -78.1 L83.6 -78.95 Q84.1 -80.05 84.9 -80.95 84.25 -79.2 84.4 -77.3 L83.65 -76.9 84.4 -77.0 Q84.65 -74.75 86.05 -72.4 L86.5 -71.65 86.45 -72.55 87.6 -73.2 86.45 -72.55 86.55 -76.6 88.65 -75.3 Q87.8 -76.95 86.65 -77.45 87.05 -80.7 88.2 -83.65 88.2 -79.75 89.75 -77.3 92.35 -81.1 96.0 -80.65 97.65 -78.0 98.6 -75.05 94.95 -76.45 91.75 -74.4 95.65 -75.1 98.75 -74.45 99.5 -71.55 99.6 -68.3 L98.95 -68.15 98.95 -68.1 98.85 -68.15 95.9 -67.8 94.05 -67.8 93.3 -67.8 Q89.3 -67.1 87.65 -69.05 L87.65 -69.15 87.15 -70.2 86.65 -70.8 85.4 -71.55 84.9 -71.65 83.95 -71.75 83.9 -72.55 M100.3 -68.5 Q100.8 -70.9 100.9 -73.8 101.0 -77.3 100.55 -81.6 102.25 -75.5 102.2 -69.3 L100.3 -68.5 M91.75 -71.95 Q94.9 -69.5 98.85 -68.15 94.9 -69.5 91.75 -71.95 M87.45 -72.15 L87.55 -71.25 87.65 -69.15 87.55 -71.25 87.45 -72.15 M83.95 -71.75 L86.05 -72.4 83.95 -71.75" fill="#8892a6" fill-rule="evenodd" stroke="none"/>
    <path d="M83.6 -78.95 Q82.25 -76.2 82.3 -72.1 80.85 -77.1 82.4 -82.95 79.35 -78.45 79.45 -69.1 76.0 -85.95 86.55 -90.5 92.55 -99.15 105.4 -99.35 112.85 -97.7 117.2 -89.05 L115.6 -86.4 113.9 -84.35 Q110.7 -81.05 106.5 -80.55 L107.75 -73.85 108.0 -71.15 Q108.35 -64.4 106.35 -59.3 L105.35 -57.15 104.65 -55.9 104.6 -55.35 Q104.35 -51.6 105.7 -50.1 L105.8 -50.2 105.8 -49.95 105.8 -49.7 Q105.65 -45.8 105.0 -43.0 103.85 -37.8 100.9 -36.65 103.4 -39.1 102.45 -42.35 101.9 -44.0 100.6 -45.8 99.7 -47.0 99.0 -49.15 L98.7 -50.2 Q98.8 -52.35 99.45 -54.75 L99.6 -55.35 100.9 -59.15 101.15 -60.1 Q102.15 -64.75 102.2 -69.3 102.25 -75.5 100.55 -81.6 101.0 -77.3 100.9 -73.8 100.8 -70.9 100.3 -68.5 L99.55 -65.95 99.6 -68.3 Q99.5 -71.55 98.75 -74.45 95.65 -75.1 91.75 -74.4 94.95 -76.45 98.6 -75.05 97.65 -78.0 96.0 -80.65 92.35 -81.1 89.75 -77.3 88.2 -79.75 88.2 -83.65 87.05 -80.7 86.65 -77.45 87.8 -76.95 88.65 -75.3 L86.55 -76.6 86.65 -77.45 86.55 -76.6 86.45 -72.55 86.5 -71.65 86.05 -72.4 Q84.65 -74.75 84.4 -77.0 L83.65 -76.9 84.4 -77.3 Q84.25 -79.2 84.9 -80.95 84.1 -80.05 83.6 -78.95 M94.45 -92.2 L90.6 -91.75 Q88.35 -91.3 86.55 -90.5 88.35 -91.3 90.6 -91.75 L94.45 -92.2 M105.7 -50.1 L105.8 -49.95 105.7 -50.1" fill="#c7788e" fill-rule="evenodd" stroke="none"/>
    <path d="M82.15 -54.6 L81.7 -55.35 Q80.0 -58.3 81.35 -60.4 83.95 -63.25 83.95 -68.8 L83.95 -69.0 Q86.1 -59.85 89.8 -55.35 L90.5 -54.55 91.05 -54.05 Q91.15 -50.15 89.65 -48.05 89.0 -47.2 88.1 -46.65 88.1 -48.6 86.1 -52.3 L84.65 -54.75 Q85.4 -52.15 83.45 -48.95 83.2 -51.6 82.2 -54.55 L82.15 -54.6 M117.2 -89.05 Q119.55 -84.25 120.95 -77.2 120.65 -69.5 125.05 -62.75 120.05 -66.25 118.25 -73.7 117.1 -69.4 119.7 -63.1 123.9 -59.6 122.85 -56.1 L122.45 -55.35 Q120.95 -52.55 118.4 -50.0 L116.5 -48.3 Q116.25 -52.15 113.15 -54.3 110.3 -48.4 108.9 -37.9 108.95 -44.15 105.9 -49.75 L105.8 -49.95 105.8 -50.2 105.7 -50.1 Q104.35 -51.6 104.6 -55.35 L104.65 -55.9 105.35 -57.15 106.35 -59.3 Q108.35 -64.4 108.0 -71.15 L107.75 -73.85 106.5 -80.55 Q110.7 -81.05 113.9 -84.35 L115.6 -86.4 117.2 -89.05 M114.1 -56.1 L113.75 -55.5 113.65 -55.35 113.15 -54.3 113.65 -55.35 113.75 -55.5 114.1 -56.1" fill="#bb5e78" fill-rule="evenodd" stroke="none"/>
    <path d="M83.95 -68.8 L83.75 -71.05 83.8 -72.5 83.9 -72.0 M134.65 -17.0 L137.6 -6.55 139.4 -0.6 M139.25 -0.45 L139.4 -0.2 140.75 2.55 142.15 6.45 143.85 27.9 144.2 33.1 144.6 35.1 142.15 45.7 141.0 46.6 140.85 47.65 139.95 47.35 133.2 44.65 133.05 44.65 133.25 42.5 131.05 37.6 132.45 34.8 135.25 29.35 138.0 29.0 137.75 27.9 Q135.65 19.5 132.8 12.15 131.85 7.6 132.7 2.75 L132.95 1.15 126.8 -15.6 M78.25 -25.45 L75.45 -16.65 73.85 -11.25 73.95 -10.0 Q74.55 -5.8 73.4 -1.8 70.2 4.7 67.65 12.1 L66.9 14.4 Q68.55 14.2 70.05 14.9 L71.45 19.95 72.1 22.55 69.15 26.7 68.85 28.65 68.75 28.65 62.2 30.45 61.35 30.7 61.4 29.7 60.6 28.8 60.6 19.3 60.6 19.2 60.6 19.1 61.6 12.35 64.35 -6.45 65.95 -9.85 67.55 -12.5 71.4 -27.85 M72.05 -9.2 Q70.0 -6.7 67.55 -5.35 66.15 -6.8 65.95 -9.85 M67.55 -12.5 L67.25 -11.3 Q70.2 -13.8 71.8 -14.2 73.85 -14.75 73.7 -11.85 L73.7 -11.5 73.4 -9.9 73.85 -11.25 M98.95 -68.1 L98.85 -68.15 Q94.9 -69.5 91.75 -71.95 M87.65 -69.05 L87.45 -67.6 Q87.2 -66.15 86.55 -64.6 M88.75 -62.9 Q87.25 -63.85 86.55 -64.6 M86.05 -72.4 L83.95 -71.75 83.9 -72.0 M86.45 -72.55 L87.6 -73.2 M93.0 -53.65 L92.25 -53.85 Q91.3 -54.1 90.5 -54.55 M93.45 -51.5 L94.9 -53.7 93.0 -53.65 M99.45 -54.75 Q97.25 -53.9 94.9 -53.7 M88.65 -60.2 Q90.0 -59.25 92.05 -58.95 M132.95 1.15 L133.0 1.1 133.05 0.95 134.4 -1.7 Q137.15 -5.95 139.4 -0.6 M133.2 1.25 Q135.6 5.8 138.9 7.8 L139.4 7.1 Q140.4 5.4 140.75 2.55 M143.85 27.9 Q141.85 29.05 139.4 28.45 L137.75 27.9 M138.0 29.0 L139.4 35.35 Q141.85 38.9 144.4 35.9 L144.2 33.1 M136.8 39.9 L136.7 39.7 136.65 39.75 M136.8 39.9 L137.9 41.5 Q137.85 45.45 139.4 46.9 L139.95 47.35 M133.25 42.5 L136.65 39.75 M136.7 39.7 L135.5 38.05 132.45 34.8 M66.9 14.4 L65.6 18.65 Q62.95 21.85 60.6 19.3 L60.6 19.1 M66.5 24.1 L66.65 23.9 68.05 22.6 71.45 19.95 M66.5 24.1 L65.25 25.45 Q64.3 29.5 62.2 30.45 M66.65 23.9 L66.7 24.0 69.15 26.7 M61.6 12.35 Q64.15 13.55 67.65 12.1" fill="none" stroke="#70633a" stroke-linecap="round" stroke-linejoin="round" stroke-width="0.05"/>
    <path d="M71.9 -34.9 L73.5 -42.45 Q73.5 -44.45 74.9 -47.45 76.45 -51.2 79.1 -53.2 L79.8 -53.7 Q81.0 -54.45 82.15 -54.55 M118.7 -48.35 L124.85 -44.4 124.85 -44.25 Q127.8 -42.35 129.7 -38.5 130.8 -36.2 131.2 -33.95 L131.4 -33.35 Q132.9 -29.2 134.55 -25.75 136.0 -22.65 137.6 -20.05 136.7 -18.1 134.65 -17.0 133.4 -16.35 131.75 -16.0 L126.8 -15.6 123.1 -15.85 122.4 -21.8 Q122.05 -24.85 120.6 -28.3 L119.0 -24.45 Q117.15 -20.15 114.3 -15.9 112.55 -11.7 113.05 -7.8 113.0 -6.45 114.25 -3.4 L116.3 -0.15 118.35 5.1 118.4 5.3 118.45 5.3 Q120.95 7.75 120.3 11.6 L120.2 11.6 Q126.55 34.55 128.75 51.6 L129.45 56.65 M68.25 56.65 L71.35 42.85 78.2 7.1 M78.4 7.2 Q78.35 4.3 79.3 2.0 L79.9 2.35 Q81.1 -2.75 84.1 -6.75 L85.15 -8.1 Q86.25 -10.05 86.1 -12.6 86.2 -14.75 85.3 -18.9 L84.05 -23.3 Q81.45 -24.2 80.0 -25.8 L78.25 -25.45 76.7 -25.35 Q73.7 -25.55 71.4 -27.85 L70.0 -29.6 Q70.9 -30.95 71.9 -34.9 L73.0 -34.25 74.4 -33.55 77.4 -32.5 77.35 -33.35 Q77.4 -35.85 77.9 -37.65 M73.5 -42.45 L73.55 -41.2 Q73.7 -39.8 74.1 -38.65 74.4 -37.8 74.85 -37.05 M79.9 -41.3 L79.9 -41.25 79.25 -40.35 Q78.35 -39.3 77.9 -37.65 M79.9 -41.3 L81.25 -44.1 81.4 -44.35 M77.4 -32.5 L77.4 -31.55 Q77.7 -28.85 79.1 -27.0 L80.0 -25.8 M131.25 -33.35 L131.2 -33.95 M118.8 -32.0 L120.6 -28.3 M84.05 -23.3 L98.9 -17.7 Q101.25 -16.45 104.1 -16.55 109.0 -16.35 112.45 -19.9 116.0 -23.15 116.1 -28.25 L116.05 -30.1 M124.85 -44.25 L124.7 -44.35 122.9 -45.25 120.0 -45.4 M131.3 -32.7 L131.25 -32.75 131.25 -33.35 M131.3 -32.7 L131.2 -31.05 131.2 -31.0 131.1 -29.35 131.1 -28.7 M122.4 -21.8 L124.5 -21.8 Q129.3 -22.05 132.6 -24.2 133.65 -24.9 134.55 -25.75 M118.4 5.3 L113.25 7.2 108.8 8.25 108.7 8.25 108.75 8.3 108.7 8.3 Q103.7 8.6 89.55 6.65 L85.4 5.2 79.9 2.35 M106.35 14.7 L116.3 12.7 120.2 11.6 M106.35 14.7 L98.4 15.3 93.3 14.6 Q89.65 14.05 89.45 13.7 87.45 13.1 85.45 11.9 81.8 9.9 78.4 7.3 L78.4 7.2" fill="none" stroke="#744636" stroke-linecap="round" stroke-linejoin="round" stroke-width="0.05"/>
    <path d="M118.4 -50.0 L118.7 -48.35 M111.55 -34.55 L109.15 -32.85 Q100.4 -27.1 93.85 -29.85 87.3 -32.65 84.75 -38.1 84.35 -39.1 84.1 -40.15 83.05 -44.6 85.1 -49.75 85.2 -50.65 86.1 -52.3 M89.65 -48.05 L89.95 -46.8 Q92.2 -40.35 102.45 -42.35 M92.25 -53.85 L93.45 -51.5 M99.0 -49.15 Q96.25 -49.35 94.7 -50.4 L93.45 -51.5 M105.8 -49.7 L105.9 -49.75 M105.0 -43.0 L107.05 -43.6 M111.55 -34.55 L113.9 -36.85 118.7 -48.35 M92.35 -35.95 Q108.65 -30.55 115.45 -47.35" fill="none" stroke="#3f2c27" stroke-linecap="round" stroke-linejoin="round" stroke-width="0.05"/>
    <path d="M83.9 -72.55 L83.75 -74.85 Q83.4 -77.3 83.5 -78.1 L83.6 -78.95 M100.3 -68.5 L102.2 -69.3 M99.6 -68.3 L98.95 -68.15 M98.85 -68.15 L95.9 -67.8 94.05 -67.8 93.3 -67.8 Q89.3 -67.1 87.65 -69.05 M87.65 -69.15 L87.55 -71.25 87.45 -72.15 M83.95 -71.75 L84.9 -71.65 85.4 -71.55 86.65 -70.8 87.15 -70.2 87.65 -69.15 87.65 -69.05 M83.95 -71.75 L83.9 -72.55" fill="none" stroke="#4e5667" stroke-linecap="round" stroke-linejoin="round" stroke-width="0.05"/>
    <path d="M82.15 -54.6 L81.7 -55.35 Q80.0 -58.3 81.35 -60.4 83.95 -63.25 83.95 -68.8 M83.6 -78.95 Q82.25 -76.2 82.3 -72.1 M82.4 -82.95 Q79.35 -78.45 79.45 -69.1 76.0 -85.95 86.55 -90.5 92.55 -99.15 105.4 -99.35 112.85 -97.7 117.2 -89.05 119.55 -84.25 120.95 -77.2 120.65 -69.5 125.05 -62.75 120.05 -66.25 118.25 -73.7 117.1 -69.4 119.7 -63.1 123.9 -59.6 122.85 -56.1 L122.45 -55.35 Q120.95 -52.55 118.4 -50.0 M86.1 -52.3 L84.65 -54.75 Q85.4 -52.15 83.45 -48.95 83.2 -51.6 82.2 -54.55 L82.15 -54.6 M105.7 -50.1 L105.8 -50.2 105.8 -49.95 105.9 -49.75 Q108.95 -44.15 108.9 -37.9 110.3 -48.4 113.15 -54.3 L113.65 -55.35 113.75 -55.5 114.1 -56.1 M86.55 -90.5 Q88.35 -91.3 90.6 -91.75 L94.45 -92.2 M83.65 -76.9 L84.4 -77.3 M84.9 -80.95 Q84.1 -80.05 83.6 -78.95 M86.65 -77.45 L86.55 -76.6 86.45 -72.55 86.5 -71.65 M88.65 -75.3 Q87.8 -76.95 86.65 -77.45 87.05 -80.7 88.2 -83.65 M89.75 -77.3 Q92.35 -81.1 96.0 -80.65 M98.6 -75.05 Q94.95 -76.45 91.75 -74.4 M99.55 -65.95 L100.3 -68.5 Q100.8 -70.9 100.9 -73.8 101.0 -77.3 100.55 -81.6 102.25 -75.5 102.2 -69.3 102.15 -64.75 101.15 -60.1 L100.9 -59.15 99.6 -55.35 99.45 -54.75 Q98.8 -52.35 98.7 -50.2 L99.0 -49.15 Q99.7 -47.0 100.6 -45.8 101.9 -44.0 102.45 -42.35 103.4 -39.1 100.9 -36.65 103.85 -37.8 105.0 -43.0 105.65 -45.8 105.8 -49.7 L105.8 -49.95 105.7 -50.1 M90.5 -54.55 L89.8 -55.35 Q86.1 -59.85 83.95 -69.0 L83.95 -68.8 M90.5 -54.55 L91.05 -54.05 Q91.15 -50.15 89.65 -48.05 89.0 -47.2 88.1 -46.65 88.1 -48.6 86.1 -52.3 M113.15 -54.3 Q116.25 -52.15 116.5 -48.3 L118.4 -50.0" fill="none" stroke="#733145" stroke-linecap="round" stroke-linejoin="round" stroke-width="0.05"/>
    <path d="M96.3 -69.05 L96.4 -69.5 96.1 -70.1 95.6 -70.3 94.95 -70.1 94.85 -69.9 Q94.15 -69.9 93.6 -69.5 93.2 -68.95 93.2 -68.25 93.2 -67.5 93.6 -67.1 94.15 -66.55 94.85 -66.55 95.6 -66.55 96.0 -67.1 96.5 -67.5 96.5 -68.25 L96.3 -69.05 M96.75 -70.4 Q97.55 -69.6 97.55 -68.45 97.55 -67.3 96.75 -66.55 96.0 -65.75 94.85 -65.75 93.7 -65.75 92.9 -66.55 92.15 -67.3 92.15 -68.45 92.15 -69.6 92.9 -70.4 93.7 -71.15 94.85 -71.15 96.0 -71.15 96.75 -70.4" fill="#f85701" fill-rule="evenodd" stroke="none"/>
    <path d="M94.85 -69.9 L94.75 -69.5 94.95 -68.95 Q95.3 -68.65 95.6 -68.65 95.9 -68.65 96.1 -68.95 L96.3 -69.05 96.5 -68.25 Q96.5 -67.5 96.0 -67.1 95.6 -66.55 94.85 -66.55 94.15 -66.55 93.6 -67.1 93.2 -67.5 93.2 -68.25 93.2 -68.95 93.6 -69.5 94.15 -69.9 94.85 -69.9" fill="#832401" fill-rule="evenodd" stroke="none"/>
    <path d="M96.3 -69.05 L96.1 -68.95 Q95.9 -68.65 95.6 -68.65 95.3 -68.65 94.95 -68.95 L94.75 -69.5 94.85 -69.9 94.95 -70.1 95.6 -70.3 96.1 -70.1 96.4 -69.5 96.3 -69.05" fill="#feb498" fill-rule="evenodd" stroke="none"/>
    <path d="M96.75 -70.4 Q97.55 -69.6 97.55 -68.45 97.55 -67.3 96.75 -66.55 96.0 -65.75 94.85 -65.75 93.7 -65.75 92.9 -66.55 92.15 -67.3 92.15 -68.45 92.15 -69.6 92.9 -70.4 93.7 -71.15 94.85 -71.15 96.0 -71.15 96.75 -70.4" fill="none" stroke="#ad0101" stroke-linecap="round" stroke-linejoin="round" stroke-width="0.05"/>
    <path d="M86.15 -72.75 Q85.7 -72.75 85.35 -72.45 L85.1 -71.45 Q85.05 -70.85 85.3 -70.5 85.6 -70.1 86.05 -70.1 86.45 -70.1 86.7 -70.5 L87.05 -71.45 86.95 -72.1 87.0 -72.45 86.85 -72.95 86.55 -73.1 86.2 -72.95 86.15 -72.75 M84.5 -71.6 Q84.55 -72.5 85.0 -73.2 85.5 -73.75 86.2 -73.75 86.85 -73.75 87.25 -73.2 87.75 -72.5 87.7 -71.6 87.65 -70.65 87.15 -70.1 86.65 -69.4 86.0 -69.4 85.3 -69.4 84.9 -70.1 84.45 -70.65 84.5 -71.6" fill="#f85701" fill-rule="evenodd" stroke="none"/>
    <path d="M86.95 -72.1 L87.05 -71.45 86.7 -70.5 Q86.45 -70.1 86.05 -70.1 85.6 -70.1 85.3 -70.5 85.05 -70.85 85.1 -71.45 L85.35 -72.45 Q85.7 -72.75 86.15 -72.75 L86.05 -72.45 86.15 -72.0 Q86.35 -71.75 86.5 -71.75 L86.8 -72.0 86.95 -72.1" fill="#832401" fill-rule="evenodd" stroke="none"/>
    <path d="M86.15 -72.75 L86.2 -72.95 86.55 -73.1 86.85 -72.95 87.0 -72.45 86.95 -72.1 86.8 -72.0 86.5 -71.75 Q86.35 -71.75 86.15 -72.0 L86.05 -72.45 86.15 -72.75" fill="#feb498" fill-rule="evenodd" stroke="none"/>
    <path d="M84.5 -71.6 Q84.55 -72.5 85.0 -73.2 85.5 -73.75 86.2 -73.75 86.85 -73.75 87.25 -73.2 87.75 -72.5 87.7 -71.6 87.65 -70.65 87.15 -70.1 86.65 -69.4 86.0 -69.4 85.3 -69.4 84.9 -70.1 84.45 -70.65 84.5 -71.6" fill="none" stroke="#ad0101" stroke-linecap="round" stroke-linejoin="round" stroke-width="0.05"/>
  </g>
</svg>
