<?xml version="1.0" encoding="UTF-8" standalone="no"?>
<svg xmlns:xlink="http://www.w3.org/1999/xlink" height="182.3px" width="105.35px" xmlns="http://www.w3.org/2000/svg">
  <g transform="matrix(1, 0, 0, 1, 52.35, 92.15)">
    <path d="M45.25 -44.2 L45.25 -44.25 45.25 -86.9 -44.6 -86.9 -44.6 81.35 -17.45 81.35 12.75 81.35 45.25 81.35 45.25 -44.2 M-51.35 -91.15 L52.0 -91.15 52.0 89.15 -51.35 89.15 -51.35 -91.15" fill="#47201f" fill-rule="evenodd" stroke="none"/>
    <path d="M-51.35 89.15 L52.0 89.15" fill="none" stroke="#000000" stroke-linecap="round" stroke-linejoin="round" stroke-width="2.0"/>
    <path d="M-51.35 -91.15 L-51.35 89.15" fill="none" stroke="#000000" stroke-linecap="round" stroke-linejoin="round" stroke-width="2.0"/>
    <path d="M52.0 89.15 L52.0 -91.15 -51.35 -91.15" fill="none" stroke="#000000" stroke-linecap="round" stroke-linejoin="round" stroke-width="2.0"/>
    <path d="M45.25 -44.2 L45.25 81.35 12.75 81.35 -17.45 81.35 -44.6 81.35 -44.6 -86.9 45.25 -86.9 45.25 -44.25 45.25 -44.2" fill="none" stroke="#000000" stroke-linecap="round" stroke-linejoin="round" stroke-width="1.0"/>
  </g>
</svg>
