<?xml version="1.0" encoding="UTF-8" standalone="no"?>
<svg xmlns:xlink="http://www.w3.org/1999/xlink" height="166.95px" width="91.2px" xmlns="http://www.w3.org/2000/svg">
  <g transform="matrix(1, 0, 0, 1, -43.3, 121.3)">
    <path d="M134.5 30.55 L134.5 43.85 130.15 31.95 Q132.25 31.0 134.5 30.55 M101.2 45.65 L74.1 45.65 73.35 43.25 75.45 39.7 Q76.7 29.8 86.0 30.4 89.45 30.65 92.6 33.0 95.55 34.9 98.3 37.65 L98.15 39.8 101.2 45.65 M59.9 27.7 L57.5 35.7 57.75 37.5 Q58.3 41.65 57.75 45.65 L43.3 45.65 43.7 42.7 Q46.1 37.25 48.35 34.25 L48.35 34.2 48.35 34.15 48.35 34.1 48.35 34.05 48.35 34.0 48.35 33.95 54.15 10.75 54.2 10.75 54.7 10.8 59.95 12.1 61.6 12.95 61.7 12.95 61.75 16.2 60.0 27.35 59.9 27.7 M73.0 -15.65 L73.2 -15.65 82.9 -26.75 85.55 -27.35 86.4 -27.1 86.4 -26.8 86.55 -26.8 86.55 -26.2 86.7 -26.0 Q90.15 -18.3 98.8 -22.4 100.0 -23.3 101.3 -23.9 L101.4 -12.3 91.15 -12.75 Q94.55 -11.6 98.2 -10.95 99.65 -10.05 101.4 -9.95 103.75 -7.45 105.7 -4.6 107.8 -1.55 108.95 2.05 111.6 11.15 106.25 18.65 105.15 20.3 102.95 20.95 96.55 23.65 90.35 20.55 83.25 16.4 75.9 13.95 74.0 12.85 71.65 13.1 L66.55 14.35 65.85 13.6 Q64.25 11.8 62.95 9.8 61.9 8.35 61.25 6.6 61.15 5.25 61.2 3.9 61.3 1.6 61.95 -0.8 62.25 -2.1 62.9 -3.45 64.1 -6.0 66.4 -8.7 L66.7 -8.95 66.8 -9.05 73.0 -15.65 M85.15 -23.4 L86.55 -26.2 85.15 -23.4 M56.2 40.05 L57.5 35.7 56.2 40.05 M47.95 35.5 L48.35 34.2 47.95 35.5" fill="#ffe6f2" fill-rule="evenodd" stroke="none"/>
    <path d="M109.35 -46.1 L109.2 -45.85 108.8 -44.9 108.2 -43.3 107.75 -42.4 107.3 -41.7 106.75 -41.1 105.7 -40.45 105.5 -40.35 104.4 -40.05 103.95 -39.3 104.5 -28.85 100.9 -27.55 98.85 -34.3 98.7 -34.35 92.1 -30.2 Q89.85 -29.0 87.85 -28.15 L86.45 -27.65 85.55 -27.35 82.9 -26.75 Q79.95 -26.35 77.95 -27.3 L77.45 -27.6 Q83.3 -29.7 87.3 -32.1 90.6 -34.1 92.6 -36.3 95.2 -39.3 95.4 -42.6 L95.4 -43.85 92.85 -51.3 94.95 -53.05 98.05 -49.05 Q101.15 -44.95 102.3 -47.6 103.0 -49.35 103.2 -51.15 103.5 -48.05 104.65 -47.75 105.35 -49.35 106.75 -50.25 109.1 -49.75 109.6 -48.55 L109.55 -48.0 109.35 -46.1 M111.1 -21.7 L123.15 -14.7 Q120.45 -15.65 118.1 -14.45 115.2 -13.05 114.5 -9.05 115.75 -5.5 117.2 -2.55 L118.75 0.35 Q120.85 4.0 123.25 6.2 L123.6 6.5 124.5 7.25 126.25 8.3 Q130.8 10.65 133.2 7.25 L133.55 6.65 134.5 4.35 134.5 23.4 Q132.3 23.6 130.3 24.45 L130.25 24.5 127.1 23.55 122.15 10.15 122.0 10.05 120.5 14.5 119.35 14.6 Q116.1 13.15 115.5 9.5 L115.45 8.7 Q113.55 2.35 112.45 -3.95 110.95 -13.25 111.1 -21.7 M106.75 43.25 L107.75 44.7 106.75 43.35 106.75 43.25 M64.05 14.6 L63.95 14.9 64.05 14.6 M56.65 1.0 L57.9 -4.1 57.85 -4.2 Q57.35 -5.45 57.15 -7.0 56.5 -11.75 58.9 -17.2 61.1 -22.65 64.95 -25.55 L66.0 -26.25 Q63.35 -21.55 62.0 -17.6 59.85 -11.35 60.95 -7.0 61.15 -6.1 61.45 -5.35 62.0 -4.1 62.9 -3.45 62.25 -2.1 61.95 -0.8 61.3 1.6 61.2 3.9 L58.65 3.45 58.6 3.45 56.65 1.0 M100.85 -57.5 L100.8 -57.45 100.8 -57.5 100.85 -57.5 M101.25 -57.75 L101.25 -57.8 101.3 -57.8 101.25 -57.75 M107.05 -55.3 L107.3 -55.4 107.35 -55.4 107.3 -55.3 107.05 -55.3 M105.8 -42.85 Q105.9 -44.4 105.25 -44.95 L103.95 -45.2 103.95 -45.65 Q104.15 -46.8 104.65 -47.75 104.15 -46.8 103.95 -45.65 L103.95 -45.2 105.25 -44.95 Q105.9 -44.4 105.8 -42.85 M109.55 -48.0 L109.2 -45.85 109.55 -48.0 M103.95 -39.3 Q102.35 -37.0 98.7 -34.35 102.35 -37.0 103.95 -39.3 M122.75 10.65 L122.15 10.15 122.75 10.65 M115.65 0.35 L116.7 2.8 Q118.85 7.35 122.0 10.05 118.85 7.35 116.7 2.8 L115.65 0.35 M61.7 12.95 L61.6 12.95 61.6 12.9 61.7 12.95" fill="#ffd0ae" fill-rule="evenodd" stroke="none"/>
    <path d="M123.15 -14.7 L123.6 -14.5 125.75 -13.4 128.25 -11.4 Q130.95 -9.0 132.85 -5.1 133.95 -2.85 134.5 -0.6 L134.5 4.35 133.55 6.65 133.2 7.25 Q130.8 10.65 126.25 8.3 L124.5 7.25 123.6 6.5 123.25 6.2 Q120.85 4.0 118.75 0.35 L117.2 -2.55 Q115.75 -5.5 114.5 -9.05 115.2 -13.05 118.1 -14.45 120.45 -15.65 123.15 -14.7 M127.9 25.8 L127.1 23.55 130.25 24.5 127.9 25.8 M56.0 3.6 L56.65 1.0 58.6 3.45 56.0 3.6 M66.0 -26.25 Q69.25 -28.25 72.1 -27.1 L72.8 -26.8 77.95 -27.3 Q79.95 -26.35 82.9 -26.75 L73.2 -15.65 73.0 -15.65 66.8 -9.05 66.7 -8.95 66.4 -8.7 Q64.1 -6.0 62.9 -3.45 62.0 -4.1 61.45 -5.35 61.15 -6.1 60.95 -7.0 59.85 -11.35 62.0 -17.6 63.35 -21.55 66.0 -26.25 M77.45 -27.6 L76.6 -27.9 76.05 -28.5 Q70.2 -35.4 68.75 -42.75 67.8 -47.4 67.4 -51.05 L67.6 -52.2 68.6 -56.25 69.55 -58.85 70.25 -60.45 Q71.9 -59.6 73.35 -57.9 72.9 -60.6 70.6 -61.2 L72.2 -64.15 72.2 -64.55 72.5 -64.0 72.8 -63.55 74.3 -61.6 74.65 -61.2 78.35 -56.75 74.95 -60.45 74.15 -61.35 72.75 -63.4 72.2 -64.15 72.75 -63.4 74.15 -61.35 74.95 -60.45 78.35 -56.75 85.35 -54.1 85.5 -54.25 85.8 -57.35 87.7 -57.75 88.1 -56.55 Q88.65 -54.25 89.65 -52.05 L91.8 -49.65 Q92.4 -49.1 92.55 -50.2 L92.6 -50.65 91.8 -55.55 91.1 -58.05 91.65 -58.05 92.45 -56.7 94.45 -53.75 94.95 -53.05 92.85 -51.3 95.4 -43.85 95.4 -42.6 Q95.2 -39.3 92.6 -36.3 90.6 -34.1 87.3 -32.1 83.3 -29.7 77.45 -27.6 L76.05 -28.5 77.45 -27.6 M68.15 -67.25 L68.2 -67.5 68.85 -69.4 69.5 -70.15 68.6 -68.15 68.15 -67.25 M85.8 -58.25 L85.8 -58.35 Q85.65 -60.6 84.6 -63.35 L85.8 -61.5 87.4 -58.55 85.8 -58.25 M90.9 -58.7 L90.75 -59.4 91.25 -58.55 90.95 -58.55 90.9 -58.7 M72.8 -56.0 L72.65 -57.0 Q69.55 -60.8 68.05 -53.5 68.65 -51.65 69.75 -50.4 70.3 -49.4 71.05 -49.25 L72.15 -48.65 73.2 -48.6 73.05 -51.7 72.9 -53.05 72.8 -56.0 M71.7 -43.55 Q72.55 -44.7 72.9 -46.4 L73.2 -48.6 72.9 -46.4 Q72.55 -44.7 71.7 -43.55 71.35 -40.7 74.2 -41.55 72.7 -42.25 71.7 -43.55 M68.85 -26.35 L72.8 -26.8 68.85 -26.35 M68.75 -14.6 L66.8 -9.05 68.75 -14.6 M90.75 -59.4 L90.95 -58.55 90.75 -59.4 M82.75 -53.5 L82.35 -53.5 81.6 -52.15 81.25 -51.3 Q80.3 -48.9 80.0 -45.65 L82.05 -44.9 85.1 -44.35 Q87.2 -44.25 88.9 -45.05 88.65 -50.4 85.95 -52.35 84.65 -53.35 82.75 -53.5 M103.2 -51.4 Q104.2 -53.45 107.0 -53.3 L107.05 -53.3 107.6 -53.15 107.75 -53.15 107.8 -53.05 108.55 -52.5 109.1 -51.75 109.15 -51.55 109.25 -51.3 109.3 -51.15 109.5 -50.4 109.5 -49.75 109.55 -49.1 109.6 -48.55 Q109.1 -49.75 106.75 -50.25 105.35 -49.35 104.65 -47.75 103.5 -48.05 103.2 -51.15 L103.2 -51.4 M87.85 -28.15 Q89.85 -29.0 92.1 -30.2 L98.7 -34.35 98.85 -34.3 100.9 -27.55 Q95.8 -24.55 90.65 -25.05 L88.75 -26.0 88.25 -27.2 87.85 -28.15 M86.55 -26.8 L86.4 -26.8 86.4 -27.1 86.55 -26.8 M83.1 -35.35 Q75.55 -34.45 72.2 -37.35 75.55 -34.45 83.1 -35.35 M61.6 12.9 L61.6 12.95 59.95 12.1 61.6 12.9" fill="#ffdfc8" fill-rule="evenodd" stroke="none"/>
    <path d="M105.05 -25.6 L105.35 -24.4 105.5 -24.0 105.75 -24.4 111.0 -22.2 110.9 -21.75 111.1 -21.7 Q110.95 -13.25 112.45 -3.95 113.55 2.35 115.45 8.7 L115.5 9.5 Q116.05 15.1 113.55 19.3 110.9 23.6 107.25 26.5 108.2 29.3 109.6 31.95 L110.65 34.45 108.8 37.65 106.75 43.25 106.75 43.35 107.75 44.7 108.4 45.65 101.2 45.65 98.15 39.8 98.3 37.65 Q95.55 34.9 92.6 33.0 89.45 30.65 86.0 30.4 76.7 29.8 75.45 39.7 L75.15 35.35 75.2 35.3 70.3 18.95 Q66.65 17.35 64.5 14.5 63.1 12.6 62.35 10.15 L61.25 6.6 Q61.9 8.35 62.95 9.8 64.25 11.8 65.85 13.6 L66.55 14.35 71.65 13.1 Q74.0 12.85 75.9 13.95 83.25 16.4 90.35 20.55 96.55 23.65 102.95 20.95 105.15 20.3 106.25 18.65 111.6 11.15 108.95 2.05 107.8 -1.55 105.7 -4.6 103.75 -7.45 101.4 -9.95 99.65 -10.05 98.2 -10.95 94.55 -11.6 91.15 -12.75 L101.4 -12.3 101.3 -23.9 105.05 -25.6 M63.95 14.9 L63.95 15.0 59.9 27.7 60.0 27.35 61.75 16.2 61.7 12.95 64.05 14.6 63.95 14.9 M106.55 -19.25 L105.5 -24.0 106.55 -19.25 M70.3 18.95 Q80.65 18.75 85.1 22.15 89.55 25.55 94.55 27.65 99.45 29.7 107.25 26.5 99.45 29.7 94.55 27.65 89.55 25.55 85.1 22.15 80.65 18.75 70.3 18.95" fill="#ffd9ec" fill-rule="evenodd" stroke="none"/>
    <path d="M134.5 23.4 L134.5 30.55 Q132.25 31.0 130.15 31.95 L130.05 31.95 129.6 31.95 Q126.25 30.45 127.35 26.6 L127.4 26.2 127.9 25.8 130.25 24.5 130.3 24.45 Q132.3 23.6 134.5 23.4 M64.5 14.5 L64.1 14.7 64.05 14.6 61.7 12.95 61.6 12.9 59.95 12.1 54.7 10.8 54.2 10.75 54.15 10.75 54.05 10.75 53.75 10.5 Q51.9 7.4 55.05 4.15 L55.35 3.75 56.0 3.6 58.6 3.45 58.65 3.45 61.2 3.9 Q61.15 5.25 61.25 6.6 L62.35 10.15 Q63.1 12.6 64.5 14.5 M101.3 -23.9 Q100.0 -23.3 98.8 -22.4 90.15 -18.3 86.7 -26.0 L86.55 -26.8 86.4 -27.1 86.45 -27.65 87.85 -28.15 88.25 -27.2 88.75 -26.0 90.65 -25.05 Q95.8 -24.55 100.9 -27.55 L100.9 -27.35 101.3 -23.9" fill="#60e1cd" fill-rule="evenodd" stroke="none"/>
    <path d="M104.5 -28.85 L104.95 -26.9 105.05 -25.6 101.3 -23.9 100.9 -27.35 100.9 -27.55 104.5 -28.85" fill="#27d8bc" fill-rule="evenodd" stroke="none"/>
    <path d="M86.7 -26.0 L86.55 -26.2 86.55 -26.8 86.7 -26.0" fill="#d6f8f4" fill-rule="evenodd" stroke="none"/>
    <path d="M105.35 -24.4 L105.75 -24.4 105.5 -24.0 105.35 -24.4" fill="#b1f1e7" fill-rule="evenodd" stroke="none"/>
    <path d="M120.5 14.5 L120.5 14.7 120.25 15.05 110.65 34.45 109.6 31.95 Q108.2 29.3 107.25 26.5 110.9 23.6 113.55 19.3 116.05 15.1 115.5 9.5 116.1 13.15 119.35 14.6 L120.5 14.5" fill="#454545" fill-rule="evenodd" stroke="none"/>
    <path d="M74.1 45.65 L72.0 45.65 72.8 44.2 73.35 43.25 74.1 45.65" fill="#666666" fill-rule="evenodd" stroke="none"/>
    <path d="M72.45 -54.35 L72.2 -54.05 71.45 -53.65 70.7 -54.05 Q70.35 -54.4 70.3 -54.95 L70.5 -55.55 70.7 -55.9 Q71.0 -56.3 71.45 -56.3 71.9 -56.3 72.2 -55.9 L72.6 -54.95 72.45 -54.35 M72.8 -56.0 L72.65 -56.3 Q72.05 -57.5 71.15 -57.45 70.3 -57.5 69.7 -56.3 69.1 -55.1 69.1 -53.35 69.1 -51.7 69.7 -50.5 L69.75 -50.4 Q68.65 -51.65 68.05 -53.5 69.55 -60.8 72.65 -57.0 L72.8 -56.0 M71.05 -49.25 L71.15 -49.25 Q71.9 -49.3 72.45 -50.15 L72.15 -48.65 71.05 -49.25 M81.6 -52.15 L82.35 -53.5 82.75 -53.5 81.75 -52.35 81.6 -52.15 M85.95 -52.35 Q88.65 -50.4 88.9 -45.05 87.2 -44.25 85.1 -44.35 L85.95 -45.35 Q86.8 -46.8 86.8 -48.8 86.8 -50.9 85.95 -52.35 M82.05 -44.9 L80.0 -45.65 Q80.3 -48.9 81.25 -51.3 80.9 -50.2 80.9 -48.8 80.9 -46.8 81.75 -45.35 L82.05 -44.9 M85.75 -49.95 L85.5 -49.75 84.45 -49.2 Q83.8 -49.25 83.35 -49.75 82.85 -50.2 82.85 -50.85 82.85 -51.3 83.1 -51.6 L83.35 -51.9 Q83.8 -52.35 84.45 -52.35 L85.5 -51.9 86.05 -50.85 85.75 -49.95" fill="#ffffff" fill-rule="evenodd" stroke="none"/>
    <path d="M70.5 -55.55 L70.15 -55.15 Q69.75 -54.45 69.8 -53.45 69.75 -52.35 70.15 -51.6 70.6 -50.85 71.15 -50.85 71.75 -50.85 72.15 -51.6 72.55 -52.35 72.5 -53.35 L72.45 -54.35 72.6 -54.95 72.2 -55.9 Q71.9 -56.3 71.45 -56.3 71.0 -56.3 70.7 -55.9 L70.5 -55.55 M69.75 -50.4 L69.7 -50.5 Q69.1 -51.7 69.1 -53.35 69.1 -55.1 69.7 -56.3 70.3 -57.5 71.15 -57.45 72.05 -57.5 72.65 -56.3 L72.8 -56.0 72.9 -53.05 72.45 -50.15 Q71.9 -49.3 71.15 -49.25 L71.05 -49.25 Q70.3 -49.4 69.75 -50.4 M81.6 -52.15 L81.75 -52.35 82.75 -53.5 Q84.65 -53.35 85.95 -52.35 86.8 -50.9 86.8 -48.8 86.8 -46.8 85.95 -45.35 L85.1 -44.35 82.05 -44.9 81.75 -45.35 Q80.9 -46.8 80.9 -48.8 80.9 -50.2 81.25 -51.3 L81.6 -52.15 M83.1 -51.6 L82.5 -51.0 Q81.9 -50.1 81.9 -48.9 81.9 -47.6 82.5 -46.7 83.1 -45.8 83.85 -45.8 84.65 -45.8 85.2 -46.7 85.8 -47.6 85.8 -48.8 L85.75 -49.95 86.05 -50.85 85.5 -51.9 84.45 -52.35 Q83.8 -52.35 83.35 -51.9 L83.1 -51.6" fill="#b8cdd1" fill-rule="evenodd" stroke="none"/>
    <path d="M72.45 -54.35 L72.5 -53.35 Q72.55 -52.35 72.15 -51.6 71.75 -50.85 71.15 -50.85 70.6 -50.85 70.15 -51.6 69.75 -52.35 69.8 -53.45 69.75 -54.45 70.15 -55.15 L70.5 -55.55 70.3 -54.95 Q70.35 -54.4 70.7 -54.05 L71.45 -53.65 72.2 -54.05 72.45 -54.35 M85.75 -49.95 L85.8 -48.8 Q85.8 -47.6 85.2 -46.7 84.65 -45.8 83.85 -45.8 83.1 -45.8 82.5 -46.7 81.9 -47.6 81.9 -48.9 81.9 -50.1 82.5 -51.0 L83.1 -51.6 Q82.85 -51.3 82.85 -50.85 82.85 -50.2 83.35 -49.75 83.8 -49.25 84.45 -49.2 L85.5 -49.75 85.75 -49.95" fill="#000000" fill-rule="evenodd" stroke="none"/>
    <path d="M72.45 -50.15 L72.9 -53.05 73.05 -51.7 73.2 -48.6 72.15 -48.65 72.45 -50.15 M71.7 -43.55 Q72.7 -42.25 74.2 -41.55 71.35 -40.7 71.7 -43.55" fill="#efc8a0" fill-rule="evenodd" stroke="none"/>
    <path d="M89.35 -89.2 Q90.0 -95.15 91.4 -99.45 L92.4 -102.1 Q95.65 -109.6 101.9 -110.45 L103.2 -110.6 103.05 -109.7 Q101.55 -109.1 100.2 -108.0 L99.7 -107.7 Q93.8 -102.8 90.8 -89.2 L90.75 -89.2 90.45 -89.2 89.75 -89.2 89.35 -89.2 89.75 -89.2 89.75 -89.1 89.35 -89.05 Q87.25 -88.6 85.3 -87.7 81.5 -86.0 79.75 -84.35 78.65 -83.3 78.4 -82.25 L78.35 -81.8 78.4 -81.2 77.95 -81.1 76.95 -81.05 74.45 -80.7 76.95 -81.05 77.95 -81.1 76.65 -80.7 74.85 -80.2 Q70.45 -78.65 67.45 -76.1 60.1 -69.9 60.65 -57.65 L60.65 -57.35 60.65 -57.05 60.95 -54.2 Q60.35 -50.5 59.5 -50.5 L58.15 -50.8 Q56.3 -52.9 56.65 -55.75 L56.7 -60.15 56.8 -60.15 Q57.05 -63.2 57.7 -65.3 58.45 -68.2 59.95 -70.75 61.3 -73.2 63.15 -75.3 64.85 -76.9 67.15 -78.1 L68.3 -78.6 Q71.0 -79.95 74.45 -80.7 L74.4 -81.1 74.55 -82.15 75.45 -83.5 76.75 -84.65 76.9 -84.75 77.75 -85.35 78.5 -85.8 79.45 -86.3 80.65 -86.9 81.35 -87.2 Q83.5 -88.2 85.8 -88.65 L85.9 -88.65 88.15 -89.05 89.35 -89.2 M101.55 -98.55 L103.15 -102.4 Q104.9 -106.35 106.75 -109.45 L107.5 -110.6 107.6 -110.75 Q111.1 -116.2 115.15 -118.75 L118.15 -120.5 Q122.0 -122.4 121.5 -119.65 L121.35 -119.15 121.35 -119.05 119.6 -118.35 117.85 -117.55 116.35 -116.65 Q112.05 -114.1 107.9 -108.6 L107.8 -108.45 Q104.65 -104.35 101.55 -98.55 M114.55 -106.6 L115.35 -106.8 117.95 -107.5 124.5 -107.95 128.9 -107.2 133.35 -105.65 134.5 -105.15 134.5 -102.55 134.25 -102.65 132.45 -103.55 128.15 -105.05 Q124.25 -106.1 120.3 -105.8 116.55 -105.5 112.75 -104.1 L114.55 -106.6 M67.4 -51.05 L67.35 -50.95 67.2 -50.35 66.3 -51.55 Q65.7 -52.9 65.55 -54.1 65.45 -55.15 65.5 -56.25 L65.55 -57.15 65.5 -57.15 Q65.7 -60.05 66.45 -62.75 L67.3 -65.2 67.95 -66.5 Q69.45 -69.4 70.15 -70.15 L70.9 -70.95 Q68.65 -66.8 67.65 -62.35 L67.45 -61.35 67.45 -61.3 67.15 -59.2 67.05 -58.7 67.05 -58.5 66.9 -57.2 66.9 -56.9 66.9 -56.6 66.85 -54.85 66.9 -54.65 67.0 -54.25 67.0 -54.1 67.15 -53.5 67.6 -52.2 67.4 -51.05" fill="#fbe28e" fill-rule="evenodd" stroke="none"/>
    <path d="M89.75 -89.2 L90.45 -89.2 90.75 -89.2 90.8 -89.2 Q93.8 -102.8 99.7 -107.7 L100.2 -108.0 Q101.55 -109.1 103.05 -109.7 L100.4 -95.6 101.55 -98.55 Q104.65 -104.35 107.8 -108.45 L107.9 -108.6 Q112.05 -114.1 116.35 -116.65 L117.85 -117.55 119.6 -118.35 121.35 -119.05 121.05 -118.05 113.55 -106.2 114.55 -106.6 112.75 -104.1 Q116.55 -105.5 120.3 -105.8 124.25 -106.1 128.15 -105.05 L132.45 -103.55 134.25 -102.65 134.5 -102.55 134.5 -102.4 Q131.0 -100.0 125.2 -99.9 L131.25 -99.25 131.65 -99.15 134.5 -98.4 134.5 -79.05 Q122.5 -76.7 106.55 -84.8 L106.55 -84.75 Q108.9 -83.15 111.0 -80.25 L111.35 -79.8 111.35 -79.65 111.65 -79.45 113.2 -77.3 113.25 -77.25 113.35 -77.1 113.55 -76.7 113.4 -76.65 Q114.2 -74.3 114.45 -71.85 L114.55 -67.8 114.15 -64.6 113.4 -61.3 Q112.75 -58.95 109.15 -58.95 105.95 -59.0 102.65 -60.8 L101.9 -61.2 102.5 -61.3 101.9 -61.35 101.55 -61.45 101.9 -61.2 102.1 -60.15 103.2 -52.9 Q102.55 -52.0 101.85 -51.85 L101.7 -51.85 101.1 -51.85 Q100.35 -51.95 99.55 -52.45 98.35 -53.25 96.95 -54.85 L95.85 -56.1 94.45 -57.95 90.8 -63.65 92.45 -56.7 91.65 -58.05 91.25 -58.55 90.75 -59.4 90.9 -58.7 89.3 -61.2 89.9 -58.65 90.05 -57.95 90.35 -56.1 90.5 -54.85 90.05 -52.45 89.65 -52.05 Q88.65 -54.25 88.1 -56.55 L87.7 -57.75 87.4 -58.55 85.8 -61.5 84.6 -63.35 Q85.65 -60.6 85.8 -58.35 L85.8 -58.25 85.8 -57.35 85.5 -54.25 85.35 -54.1 78.35 -56.75 74.65 -61.2 74.3 -61.6 72.8 -63.55 72.5 -64.0 72.2 -64.55 72.2 -64.15 70.6 -61.2 70.55 -61.05 70.25 -60.45 69.55 -58.85 68.6 -56.25 67.6 -52.2 67.15 -53.5 67.0 -54.1 67.0 -54.25 66.9 -54.65 66.85 -54.85 66.9 -56.6 66.9 -56.9 66.9 -57.2 67.05 -58.5 67.05 -58.7 67.15 -59.2 67.45 -61.3 67.45 -61.35 67.65 -62.35 Q68.65 -66.8 70.9 -70.95 L70.15 -70.15 Q69.45 -69.4 67.95 -66.5 L67.3 -65.2 68.15 -67.25 68.6 -68.15 69.5 -70.15 68.85 -69.4 66.9 -66.5 66.0 -64.85 63.75 -60.3 61.0 -54.4 60.95 -54.2 60.65 -57.05 60.65 -57.35 60.65 -57.65 Q60.1 -69.9 67.45 -76.1 70.45 -78.65 74.85 -80.2 L76.65 -80.7 77.95 -81.1 78.4 -81.2 78.35 -81.8 78.4 -82.25 Q78.65 -83.3 79.75 -84.35 81.5 -86.0 85.3 -87.7 87.25 -88.6 89.35 -89.05 L89.75 -89.1 89.75 -89.2 M113.05 -49.65 L112.6 -48.75 112.8 -49.75 113.05 -49.65 M56.7 -60.15 L56.7 -60.25 56.8 -60.15 56.7 -60.15 M85.9 -88.65 L85.95 -88.75 88.15 -89.05 85.9 -88.65 M88.9 -78.9 Q83.45 -81.25 77.95 -81.1 83.45 -81.25 88.9 -78.9 M90.8 -89.2 Q96.2 -89.2 102.35 -86.9 104.0 -86.45 106.45 -84.8 L106.55 -84.75 106.45 -84.8 Q104.0 -86.45 102.35 -86.9 96.2 -89.2 90.8 -89.2 M100.85 -57.5 L100.8 -57.5 100.8 -57.45 100.85 -57.5 M101.25 -57.75 L101.3 -57.8 101.25 -57.8 101.25 -57.75" fill="#ebc807" fill-rule="evenodd" stroke="none"/>
    <path d="M85.8 -57.35 L85.8 -58.25 87.4 -58.55 87.7 -57.75 85.8 -57.35 M91.25 -58.55 L91.65 -58.05 91.1 -58.05 90.95 -58.55 91.25 -58.55 M70.25 -60.45 L70.55 -61.05 70.6 -61.2 Q72.9 -60.6 73.35 -57.9 71.9 -59.6 70.25 -60.45" fill="#503e53" fill-rule="evenodd" stroke="none"/>
    <path d="M134.5 -79.05 L134.5 -72.9 130.65 -72.65 126.4 -73.0 126.8 -72.85 130.25 -71.35 130.95 -70.95 131.0 -70.9 Q133.05 -69.55 134.5 -67.75 L134.5 -64.9 130.55 -64.4 129.95 -64.3 121.7 -63.95 116.95 -64.25 Q116.9 -60.85 116.2 -57.9 L115.75 -56.3 115.7 -56.1 115.0 -54.05 114.7 -53.3 113.05 -49.65 112.8 -49.75 112.6 -48.75 111.65 -47.15 108.7 -44.0 109.35 -46.1 109.55 -48.0 109.6 -48.55 109.55 -49.1 109.5 -49.75 109.5 -50.4 109.3 -51.15 109.25 -51.3 109.15 -51.55 109.1 -51.75 108.55 -52.5 107.8 -53.05 107.75 -53.15 107.6 -53.15 107.05 -53.3 107.0 -53.3 Q104.2 -53.45 103.2 -51.4 L103.2 -51.15 Q103.0 -49.35 102.3 -47.6 101.15 -44.95 98.05 -49.05 L94.95 -53.05 94.45 -53.75 92.45 -56.7 90.8 -63.65 94.45 -57.95 95.85 -56.1 96.95 -54.85 Q98.35 -53.25 99.55 -52.45 100.35 -51.95 101.1 -51.85 L101.7 -51.85 101.85 -51.85 Q102.55 -52.0 103.2 -52.9 L102.1 -60.15 101.9 -61.2 101.55 -61.45 101.9 -61.35 102.5 -61.3 101.9 -61.2 102.65 -60.8 Q105.95 -59.0 109.15 -58.95 112.75 -58.95 113.4 -61.3 L114.15 -64.6 114.55 -67.8 114.45 -71.85 Q114.2 -74.3 113.4 -76.65 L113.55 -76.7 113.35 -77.1 113.25 -77.25 113.2 -77.3 111.65 -79.45 111.35 -79.65 111.35 -79.8 111.0 -80.25 Q108.9 -83.15 106.55 -84.75 L106.55 -84.8 Q122.5 -76.7 134.5 -79.05 M89.65 -52.05 L90.05 -52.45 90.5 -54.85 90.35 -56.1 90.05 -57.95 89.9 -58.65 89.3 -61.2 90.9 -58.7 90.95 -58.55 91.1 -58.05 91.8 -55.55 92.6 -50.65 92.55 -50.2 Q92.4 -49.1 91.8 -49.65 L89.65 -52.05 M122.05 -74.0 L126.4 -73.0 122.05 -74.0 M111.35 -79.8 L111.65 -79.45 111.35 -79.8 M103.2 -51.4 L103.2 -51.8 103.2 -52.9 103.2 -51.8 103.2 -51.4 M101.9 -61.35 L101.9 -61.2 101.9 -61.35 M116.95 -64.25 L116.95 -66.2 116.95 -66.3 Q116.45 -71.95 113.55 -76.7 116.45 -71.95 116.95 -66.3 L116.95 -66.2 116.95 -64.25 M107.05 -55.3 L107.3 -55.3 107.35 -55.4 107.3 -55.4 107.05 -55.3" fill="#ceb006" fill-rule="evenodd" stroke="none"/>
    <path d="M134.5 43.85 L130.15 31.95 M120.5 14.5 L120.5 14.7 M110.65 34.45 L108.8 37.65 106.75 43.25 107.75 44.7 108.4 45.65 M73.35 43.25 L75.45 39.7 75.15 35.35 75.2 35.3 70.3 18.95 Q66.65 17.35 64.5 14.5 M63.95 14.9 L63.95 15.0 M59.9 27.7 L57.5 35.7 57.75 37.5 Q58.3 41.65 57.75 45.65 M43.3 45.65 L43.7 42.7 Q46.1 37.25 48.35 34.25 M48.35 34.2 L48.35 34.15 48.35 34.1 48.35 34.05 48.35 34.0 48.35 33.95 54.15 10.75 M73.0 -15.65 L66.8 -9.05 66.7 -8.95 M66.4 -8.7 Q64.1 -6.0 62.9 -3.45 62.25 -2.1 61.95 -0.8 61.3 1.6 61.2 3.9 61.15 5.25 61.25 6.6 L62.35 10.15 Q63.1 12.6 64.5 14.5 M115.5 9.5 L115.45 8.7 Q113.55 2.35 112.45 -3.95 110.95 -13.25 111.1 -21.7 M120.5 14.5 L119.35 14.6 Q116.1 13.15 115.5 9.5 116.05 15.1 113.55 19.3 110.9 23.6 107.25 26.5 108.2 29.3 109.6 31.95 L110.65 34.45 M106.75 43.35 L106.75 43.25 M107.25 26.5 Q99.45 29.7 94.55 27.65 89.55 25.55 85.1 22.15 80.65 18.75 70.3 18.95 M64.05 14.6 L63.95 14.9 M48.35 34.2 L47.95 35.5 M57.5 35.7 L56.2 40.05" fill="none" stroke="#fe67b3" stroke-linecap="round" stroke-linejoin="round" stroke-width="0.05"/>
    <path d="M109.35 -46.1 L109.2 -45.85 108.8 -44.9 108.2 -43.3 107.75 -42.4 107.3 -41.7 106.75 -41.1 105.7 -40.45 105.5 -40.35 104.4 -40.05 103.95 -39.3 104.5 -28.85 M111.1 -21.7 L123.15 -14.7 M123.6 -14.5 L125.75 -13.4 128.25 -11.4 Q130.95 -9.0 132.85 -5.1 133.95 -2.85 134.5 -0.6 M127.9 25.8 L127.1 23.55 122.15 10.15 122.0 10.05 120.5 14.5 M64.05 14.6 L63.95 14.9 M63.95 15.0 L59.9 27.7 M56.0 3.6 L56.65 1.0 57.9 -4.1 M57.85 -4.2 Q57.35 -5.45 57.15 -7.0 56.5 -11.75 58.9 -17.2 61.1 -22.65 64.95 -25.55 L66.0 -26.25 Q69.25 -28.25 72.1 -27.1 L72.8 -26.8 77.95 -27.3 77.45 -27.6 M76.05 -28.5 Q70.2 -35.4 68.75 -42.75 67.8 -47.4 67.4 -51.05 M68.15 -67.25 L68.2 -67.5 68.85 -69.4 M72.8 -56.0 L72.65 -57.0 Q69.55 -60.8 68.05 -53.5 68.65 -51.65 69.75 -50.4 70.3 -49.4 71.05 -49.25 M72.45 -50.15 L72.9 -53.05 72.8 -56.0 M72.9 -53.05 L73.05 -51.7 73.2 -48.6 72.9 -46.4 Q72.55 -44.7 71.7 -43.55 M74.2 -41.55 Q71.35 -40.7 71.7 -43.55 M72.15 -48.65 L71.05 -49.25 M76.05 -28.5 L77.45 -27.6 M72.8 -26.8 L68.85 -26.35 M66.7 -8.95 L66.4 -8.7 M66.8 -9.05 L68.75 -14.6 M72.15 -48.65 L72.45 -50.15 M82.75 -53.5 L82.35 -53.5 81.6 -52.15 M82.75 -53.5 Q84.65 -53.35 85.95 -52.35 88.65 -50.4 88.9 -45.05 87.2 -44.25 85.1 -44.35 L82.05 -44.9 80.0 -45.65 Q80.3 -48.9 81.25 -51.3 L81.6 -52.15 M104.65 -47.75 Q105.35 -49.35 106.75 -50.25 M109.2 -45.85 L109.55 -48.0 M104.65 -47.75 Q104.15 -46.8 103.95 -45.65 L103.95 -45.2 105.25 -44.95 Q105.9 -44.4 105.8 -42.85 M82.9 -26.75 L85.55 -27.35 86.45 -27.65 87.85 -28.15 Q89.85 -29.0 92.1 -30.2 L98.7 -34.35 Q102.35 -37.0 103.95 -39.3 M72.2 -37.35 Q75.55 -34.45 83.1 -35.35 M77.95 -27.3 Q79.95 -26.35 82.9 -26.75 M122.15 10.15 L122.75 10.65 M122.0 10.05 Q118.85 7.35 116.7 2.8 L115.65 0.35" fill="none" stroke="#d7995e" stroke-linecap="round" stroke-linejoin="round" stroke-width="0.05"/>
    <path d="M130.15 31.95 L130.05 31.95 129.6 31.95 Q126.25 30.45 127.35 26.6 L127.4 26.2 127.9 25.8 M64.5 14.5 L64.1 14.7 64.05 14.6 61.7 12.95 61.6 12.9 59.95 12.1 54.7 10.8 54.2 10.75 54.15 10.75 54.05 10.75 53.75 10.5 Q51.9 7.4 55.05 4.15 L55.35 3.75 56.0 3.6 M130.25 24.5 L130.3 24.45 Q132.3 23.6 134.5 23.4 M130.15 31.95 Q132.25 31.0 134.5 30.55 M130.25 24.5 L127.9 25.8 M58.6 3.45 L56.0 3.6 M58.6 3.45 L58.65 3.45 61.2 3.9 M73.35 43.25 L74.1 45.65" fill="none" stroke="#1d9e8a" stroke-linecap="round" stroke-linejoin="round" stroke-width="0.05"/>
    <path d="M104.5 -28.85 L104.95 -26.9 105.05 -25.6 105.35 -24.4 105.75 -24.4 111.0 -22.2 110.9 -21.75 M101.3 -23.9 Q100.0 -23.3 98.8 -22.4 90.15 -18.3 86.7 -26.0 M86.55 -26.2 L85.15 -23.4 M86.55 -26.2 L86.55 -26.8 86.7 -26.0 M86.4 -26.8 L86.4 -27.1 85.55 -27.35 M86.4 -27.1 L86.45 -27.65 M86.55 -26.8 L86.4 -27.1 M100.9 -27.55 Q95.8 -24.55 90.65 -25.05 L88.75 -26.0 88.25 -27.2 87.85 -28.15 M100.9 -27.35 L100.9 -27.55 104.5 -28.85 M105.35 -24.4 L105.5 -24.0 106.55 -19.25 M101.3 -23.9 L105.05 -25.6 M82.9 -26.75 L73.2 -15.65" fill="none" stroke="#a0a0a0" stroke-linecap="round" stroke-linejoin="round" stroke-width="0.05"/>
    <path d="M120.5 14.7 L120.25 15.05 110.65 34.45 M72.0 45.65 L72.8 44.2" fill="none" stroke="#000000" stroke-linecap="round" stroke-linejoin="round" stroke-width="0.05"/>
    <path d="M72.8 44.2 L73.35 43.25" fill="none" stroke="#272727" stroke-linecap="round" stroke-linejoin="round" stroke-width="0.05"/>
    <path d="M103.05 -109.7 L103.2 -110.6 101.9 -110.45 Q95.65 -109.6 92.4 -102.1 L91.4 -99.45 Q90.0 -95.15 89.35 -89.2 L89.75 -89.2 90.45 -89.2 90.75 -89.2 90.8 -89.2 M103.05 -109.7 L100.4 -95.6 101.55 -98.55 103.15 -102.4 Q104.9 -106.35 106.75 -109.45 L107.5 -110.6 107.6 -110.75 Q111.1 -116.2 115.15 -118.75 L118.15 -120.5 Q122.0 -122.4 121.5 -119.65 L121.35 -119.15 121.35 -119.05 121.05 -118.05 113.55 -106.2 114.55 -106.6 115.35 -106.8 117.95 -107.5 124.5 -107.95 128.9 -107.2 133.35 -105.65 134.5 -105.15 M134.5 -102.4 Q131.0 -100.0 125.2 -99.9 L131.25 -99.25 131.65 -99.15 134.5 -98.4 M134.5 -72.9 L130.65 -72.65 126.4 -73.0 126.8 -72.85 130.25 -71.35 130.95 -70.95 131.0 -70.9 Q133.05 -69.55 134.5 -67.75 M134.5 -64.9 L130.55 -64.4 129.95 -64.3 121.7 -63.95 116.95 -64.25 Q116.9 -60.85 116.2 -57.9 L115.75 -56.3 115.7 -56.1 115.0 -54.05 114.7 -53.3 113.05 -49.65 112.6 -48.75 111.65 -47.15 108.7 -44.0 108.65 -43.85 108.5 -43.75 108.7 -44.0 109.35 -46.1 M67.4 -51.05 L67.35 -50.95 67.2 -50.35 66.3 -51.55 Q65.7 -52.9 65.55 -54.1 65.45 -55.15 65.5 -56.25 L65.55 -57.15 M65.5 -57.15 Q65.7 -60.05 66.45 -62.75 L67.3 -65.2 68.15 -67.25 M68.85 -69.4 L66.9 -66.5 66.0 -64.85 63.75 -60.3 61.0 -54.4 60.95 -54.2 Q60.35 -50.5 59.5 -50.5 L58.15 -50.8 Q56.3 -52.9 56.65 -55.75 L56.7 -60.15 56.7 -60.25 M56.8 -60.15 Q57.05 -63.2 57.7 -65.3 58.45 -68.2 59.95 -70.75 61.3 -73.2 63.15 -75.3 64.85 -76.9 67.15 -78.1 L68.3 -78.6 Q71.0 -79.95 74.45 -80.7 L74.4 -81.1 74.55 -82.15 75.45 -83.5 76.75 -84.65 76.9 -84.75 77.75 -85.35 78.5 -85.8 79.45 -86.3 80.65 -86.9 81.35 -87.2 Q83.5 -88.2 85.8 -88.65 L85.9 -88.65 88.15 -89.05 89.35 -89.2 M74.45 -80.7 L76.95 -81.05 77.95 -81.1 Q83.45 -81.25 88.9 -78.9 M72.2 -64.15 L72.75 -63.4 74.15 -61.35 74.95 -60.45 78.35 -56.75 85.35 -54.1 85.5 -54.25 85.8 -57.35 85.8 -58.25 85.8 -58.35 Q85.65 -60.6 84.6 -63.35 L85.8 -61.5 87.4 -58.55 87.7 -57.75 88.1 -56.55 Q88.65 -54.25 89.65 -52.05 M90.75 -59.4 L91.25 -58.55 91.65 -58.05 92.45 -56.7 M103.2 -52.9 L102.1 -60.15 101.9 -61.2 101.9 -61.35 M113.55 -76.7 L113.35 -77.1 113.25 -77.25 113.2 -77.3 111.65 -79.45 111.35 -79.8 111.0 -80.25 Q108.9 -83.15 106.55 -84.75 L106.45 -84.8 Q104.0 -86.45 102.35 -86.9 96.2 -89.2 90.8 -89.2 M68.85 -69.4 L69.5 -70.15 68.6 -68.15 68.15 -67.25 M67.6 -52.2 L68.6 -56.25 69.55 -58.85 70.25 -60.45 70.55 -61.05 70.6 -61.2 72.2 -64.15 M67.4 -51.05 L67.6 -52.2 M94.95 -53.05 L94.45 -53.75 92.45 -56.7 M126.4 -73.0 L122.05 -74.0 M90.95 -58.55 L90.75 -59.4 M91.1 -58.05 L90.95 -58.55 M91.1 -58.05 L91.8 -55.55 92.6 -50.65 92.55 -50.2 Q92.4 -49.1 91.8 -49.65 L89.65 -52.05 M113.55 -76.7 Q116.45 -71.95 116.95 -66.3 L116.95 -66.2 116.95 -64.25 M103.2 -52.9 L103.2 -51.8 103.2 -51.4 Q104.2 -53.45 107.0 -53.3 L107.05 -53.3 107.6 -53.15 107.75 -53.15 107.8 -53.05 108.55 -52.5 109.1 -51.75 109.15 -51.55 109.25 -51.3 109.3 -51.15 109.5 -50.4 109.5 -49.75 109.55 -49.1 109.6 -48.55 109.55 -48.0 109.35 -46.1 M103.2 -51.4 L103.2 -51.15 Q103.0 -49.35 102.3 -47.6 101.15 -44.95 98.05 -49.05 L94.95 -53.05" fill="none" stroke="#7e6305" stroke-linecap="round" stroke-linejoin="round" stroke-width="0.05"/>
    <path d="M70.6 -61.2 Q72.9 -60.6 73.35 -57.9 71.9 -59.6 70.25 -60.45 M90.95 -58.55 L91.25 -58.55 M87.4 -58.55 L85.8 -58.25 M87.7 -57.75 L85.8 -57.35 M91.65 -58.05 L91.1 -58.05" fill="none" stroke="#5b4961" stroke-linecap="round" stroke-linejoin="round" stroke-width="0.05"/>
    <path d="M82.9 -9.2 L82.7 -9.2 Q82.15 -9.65 82.45 -10.4 82.5 -11.2 83.05 -11.75 L84.25 -12.0 Q84.85 -12.2 85.2 -11.6 L85.4 -11.4 85.55 -10.4 Q85.5 -9.65 85.05 -9.25 84.65 -8.9 84.05 -8.9 L82.9 -9.2" fill="#ffffff" fill-rule="evenodd" stroke="none"/>
    <path d="M81.2 -12.4 L81.8 -13.2 Q83.5 -15.25 86.05 -15.2 88.6 -15.25 90.35 -13.05 91.25 -11.95 91.5 -10.4 91.85 -9.2 91.75 -7.85 91.75 -4.9 89.85 -2.7 L89.0 -1.95 Q87.4 -0.7 85.45 -0.85 82.9 -0.8 81.3 -2.85 L80.95 -3.5 Q79.5 -5.35 79.7 -8.05 79.75 -10.55 81.2 -12.4 M85.55 -10.4 L85.4 -11.4 85.2 -11.6 Q84.85 -12.2 84.25 -12.0 L83.05 -11.75 Q82.5 -11.2 82.45 -10.4 82.15 -9.65 82.7 -9.2 L82.9 -9.2 Q81.65 -7.9 81.7 -5.95 81.6 -4.2 82.85 -2.95 84.15 -1.75 86.1 -1.75 87.85 -1.85 89.3 -2.95 90.55 -4.25 90.65 -6.2 90.6 -8.1 89.55 -9.35 88.25 -10.6 86.3 -10.55 L85.55 -10.4" fill="#bb7855" fill-rule="evenodd" stroke="none"/>
    <path d="M85.55 -10.4 L86.3 -10.55 Q88.25 -10.6 89.55 -9.35 90.6 -8.1 90.65 -6.2 90.55 -4.25 89.3 -2.95 87.85 -1.85 86.1 -1.75 84.15 -1.75 82.85 -2.95 81.6 -4.2 81.7 -5.95 81.65 -7.9 82.9 -9.2 L84.05 -8.9 Q84.65 -8.9 85.05 -9.25 85.5 -9.65 85.55 -10.4" fill="#7c4632" fill-rule="evenodd" stroke="none"/>
    <path d="M107.15 -42.8 L107.15 -42.65 106.85 -41.9 Q106.5 -41.55 105.9 -41.55 L105.15 -41.7 105.0 -41.9 Q104.55 -42.05 104.55 -42.5 104.55 -42.95 105.0 -43.4 L105.15 -43.55 105.9 -43.7 Q106.35 -43.85 106.65 -43.4 L106.85 -43.25 107.15 -42.8" fill="#ffffff" fill-rule="evenodd" stroke="none"/>
    <path d="M107.15 -42.8 L106.85 -43.25 106.65 -43.4 Q106.35 -43.85 105.9 -43.7 L105.15 -43.55 105.0 -43.4 Q104.55 -42.95 104.55 -42.5 104.55 -42.05 105.0 -41.9 L105.15 -41.7 Q104.25 -40.8 104.25 -39.6 104.4 -38.4 105.45 -37.5 106.5 -36.75 108.05 -36.9 109.4 -37.05 110.3 -37.8 111.2 -38.85 111.2 -40.05 111.2 -41.25 110.15 -42.2 109.1 -42.95 107.75 -42.8 L107.15 -42.8 M112.1 -41.1 Q112.1 -39.3 110.9 -37.8 L110.15 -37.05 Q109.1 -36.3 107.6 -36.15 105.6 -36.15 104.25 -37.5 L103.8 -37.8 Q102.75 -39.0 102.6 -40.8 102.6 -42.5 103.5 -43.85 L103.95 -44.3 Q105.15 -45.8 107.15 -45.95 109.25 -46.1 110.6 -44.6 L111.8 -42.95 112.1 -41.1" fill="#bb7855" fill-rule="evenodd" stroke="none"/>
    <path d="M105.15 -41.7 L105.9 -41.55 Q106.5 -41.55 106.85 -41.9 L107.15 -42.65 107.15 -42.8 107.75 -42.8 Q109.1 -42.95 110.15 -42.2 111.2 -41.25 111.2 -40.05 111.2 -38.85 110.3 -37.8 109.4 -37.05 108.05 -36.9 106.5 -36.75 105.45 -37.5 104.4 -38.4 104.25 -39.6 104.25 -40.8 105.15 -41.7" fill="#7c4632" fill-rule="evenodd" stroke="none"/>
  </g>
</svg>
