<?xml version="1.0" encoding="UTF-8" standalone="no"?>
<svg xmlns:xlink="http://www.w3.org/1999/xlink" height="170.8px" width="82.5px" xmlns="http://www.w3.org/2000/svg">
  <g transform="matrix(1, 0, 0, 1, -54.6, 107.95)">
    <path d="M88.7 -97.65 Q95.1 -99.9 102.2 -99.75 L105.65 -99.55 Q105.0 -99.3 104.5 -98.85 L103.5 -98.15 101.35 -95.75 Q112.8 -94.35 120.55 -85.7 L118.3 -85.25 116.3 -84.2 Q111.65 -87.8 105.85 -90.45 104.2 -91.4 102.45 -92.05 L101.35 -91.75 Q98.7 -93.75 96.1 -95.35 L93.9 -95.95 92.5 -94.75 90.5 -94.45 88.7 -97.65 M113.9 -80.6 L118.65 -68.75 117.55 -69.6 116.3 -71.35 Q113.65 -75.4 113.9 -80.6 M68.75 -84.85 L64.2 -86.95 Q69.5 -90.15 76.3 -88.75 L76.4 -88.7 77.95 -85.4 Q72.4 -86.45 68.75 -84.85 M72.5 -92.85 L67.85 -95.25 Q73.35 -97.15 79.4 -96.45 80.05 -98.55 81.1 -100.25 83.8 -104.25 86.9 -107.95 L86.6 -103.25 Q82.85 -99.85 82.9 -94.25 82.85 -93.65 82.95 -92.95 L72.5 -92.85" fill="#a39174" fill-rule="evenodd" stroke="none"/>
    <path d="M88.7 -97.65 L90.5 -94.45 92.5 -94.75 93.9 -95.95 96.1 -95.35 Q98.7 -93.75 101.35 -91.75 L102.45 -92.05 Q104.2 -91.4 105.85 -90.45 111.65 -87.8 116.3 -84.2 L114.55 -82.1 114.05 -81.5 114.15 -81.5 113.9 -81.25 113.95 -81.25 113.85 -80.6 113.9 -80.6 Q113.65 -75.4 116.3 -71.35 L117.55 -69.6 113.75 -71.35 Q113.9 -68.6 113.0 -66.2 L111.2 -62.15 109.65 -68.6 107.0 -61.95 105.9 -60.6 104.95 -59.65 104.85 -59.4 105.75 -62.5 105.95 -63.35 Q106.4 -65.2 105.6 -67.1 105.25 -67.9 104.5 -67.75 103.4 -67.7 101.55 -65.9 L101.2 -63.4 Q100.35 -57.4 100.35 -56.15 98.6 -63.25 95.8 -66.0 L95.05 -66.6 95.5 -67.0 Q96.95 -68.95 97.5 -71.5 98.1 -74.4 95.25 -77.6 92.4 -80.85 89.4 -80.0 86.35 -79.2 81.1 -75.8 76.9 -80.8 74.65 -76.75 L74.65 -76.8 73.45 -80.05 Q71.85 -83.35 68.75 -84.85 72.4 -86.45 77.95 -85.4 L76.4 -88.7 76.45 -88.7 75.1 -90.55 72.5 -92.85 82.95 -92.95 Q82.85 -93.65 82.9 -94.25 82.85 -99.85 86.6 -103.25 L88.7 -97.65 M77.4 -54.25 Q75.75 -54.15 74.05 -55.45 76.3 -55.9 76.45 -56.2 L76.9 -57.05 Q77.3 -57.55 78.0 -57.85 L82.65 -57.95 Q85.5 -57.4 87.55 -55.85 L89.4 -54.45 Q90.45 -53.25 93.4 -53.1 89.45 -51.35 87.7 -51.9 85.9 -52.5 83.35 -54.0 80.8 -55.45 78.65 -54.55 L77.4 -54.25" fill="#817354" fill-rule="evenodd" stroke="none"/>
    <path d="M102.7 -47.7 L103.0 -46.05 104.2 -45.45 105.5 -44.75 113.75 -39.9 Q111.95 -38.75 109.2 -37.45 L108.9 -37.3 Q94.4 -32.35 81.2 -33.65 74.45 -38.85 74.1 -49.75 L74.25 -49.85 75.95 -50.05 77.95 -50.15 Q77.75 -50.75 77.7 -51.45 L77.4 -54.25 78.65 -54.55 Q80.8 -55.45 83.35 -54.0 85.9 -52.5 87.7 -51.9 89.45 -51.35 93.4 -53.1 90.45 -53.25 89.4 -54.45 L87.55 -55.85 Q85.5 -57.4 82.65 -57.95 L78.0 -57.85 Q77.3 -57.55 76.9 -57.05 L76.45 -58.35 Q75.6 -60.5 75.05 -63.4 74.4 -66.3 74.65 -69.4 74.95 -72.45 74.65 -74.1 74.45 -75.35 74.65 -76.75 76.9 -80.8 81.1 -75.8 86.35 -79.2 89.4 -80.0 92.4 -80.85 95.25 -77.6 98.1 -74.4 97.5 -71.5 96.95 -68.95 95.5 -67.0 L95.05 -66.6 95.8 -66.0 97.65 -59.1 94.3 -53.45 Q91.05 -48.05 84.7 -46.95 L83.3 -46.95 84.5 -46.3 Q86.9 -44.95 97.4 -45.4 L97.4 -45.45 Q101.85 -46.4 102.7 -47.7 M123.45 36.15 L123.55 38.9 117.8 50.0 116.35 50.45 116.05 50.5 115.5 51.65 115.3 51.6 112.9 43.4 111.8 41.15 111.7 40.95 110.35 38.6 104.55 36.2 105.9 34.85 112.1 28.75 112.9 28.8 Q115.0 28.95 116.85 29.8 L114.5 36.7 Q115.45 41.45 120.55 40.95 L123.45 36.15 M58.1 40.45 L58.05 40.45 57.9 39.3 56.65 38.0 55.95 25.55 Q56.55 24.05 57.3 23.05 L57.9 28.75 Q62.25 31.3 65.05 27.35 L65.85 20.05 68.45 20.35 68.45 21.05 70.55 23.05 70.4 25.05 69.6 30.8 68.0 30.75 65.9 32.3 65.7 32.45 63.75 34.1 58.1 40.45 M78.5 -67.7 L78.35 -70.15 Q76.05 -72.85 75.05 -67.85 L74.95 -67.45 75.05 -67.4 Q75.4 -66.5 75.9 -65.75 L76.7 -64.8 Q77.35 -64.25 78.2 -63.9 L78.5 -67.15 78.5 -67.55 78.5 -67.7 M77.9 -60.05 Q78.55 -61.0 78.8 -62.45 79.05 -64.4 78.5 -67.15 79.05 -64.4 78.8 -62.45 78.55 -61.0 77.9 -60.05 77.85 -59.7 77.95 -59.4 78.1 -58.1 79.85 -58.65 79.15 -58.95 78.55 -59.4 L77.9 -60.05 M85.35 -51.9 Q81.05 -52.75 78.65 -54.55 81.05 -52.75 85.35 -51.9 M79.45 -70.4 Q78.85 -75.15 74.95 -74.35 77.45 -73.95 79.45 -70.4 M101.2 -63.4 L101.55 -65.9 Q103.4 -67.7 104.5 -67.75 105.35 -67.65 105.75 -66.5 106.25 -64.9 105.95 -63.35 L105.75 -62.5 Q105.35 -64.15 103.6 -64.85 L102.75 -64.0 102.4 -63.4 101.2 -63.4 M86.9 -60.8 Q89.05 -60.5 90.7 -61.25 90.2 -67.35 85.6 -67.45 84.3 -65.25 84.0 -61.65 L86.2 -60.95 86.9 -60.8 M84.4 -68.5 Q89.3 -70.75 92.95 -69.5 88.1 -72.85 84.4 -68.5 M100.3 -40.0 L100.3 -40.15 100.15 -40.0 100.3 -40.0 M77.95 -50.15 Q78.9 -47.2 83.3 -46.95 78.9 -47.2 77.95 -50.15" fill="#ffdfc8" fill-rule="evenodd" stroke="none"/>
    <path d="M76.3 -88.75 L76.45 -88.7 76.4 -88.7 76.3 -88.75" fill="#edf7a6" fill-rule="evenodd" stroke="none"/>
    <path d="M77.95 -68.3 L78.0 -68.75 77.9 -69.35 77.35 -69.6 76.75 -69.35 76.6 -68.95 76.4 -68.8 Q76.1 -68.3 76.1 -67.65 76.05 -66.9 76.3 -66.4 76.6 -65.9 77.0 -65.9 L77.65 -66.4 77.95 -67.55 77.95 -68.3 M75.9 -65.75 Q75.6 -66.55 75.65 -67.55 75.65 -68.7 76.1 -69.5 76.5 -70.3 77.1 -70.3 77.7 -70.3 78.1 -69.5 78.5 -68.75 78.5 -67.7 L78.5 -67.55 Q78.4 -66.4 77.95 -65.6 77.5 -64.8 76.9 -64.8 L76.7 -64.8 75.9 -65.75 M86.2 -60.95 Q85.75 -61.15 85.45 -61.7 84.95 -62.65 85.0 -63.95 85.05 -65.25 85.65 -66.1 86.2 -67.05 86.95 -67.0 87.75 -67.05 88.3 -66.1 88.75 -65.25 88.65 -63.95 88.6 -62.65 88.05 -61.7 87.55 -60.9 86.9 -60.8 L86.2 -60.95 M86.25 -65.5 L86.05 -65.3 Q85.65 -64.75 85.6 -64.0 85.55 -63.2 85.9 -62.6 86.25 -62.1 86.7 -62.1 87.2 -62.1 87.6 -62.6 88.0 -63.2 88.05 -63.95 L88.0 -64.7 88.15 -65.15 87.85 -65.8 87.25 -66.1 Q86.8 -66.1 86.5 -65.8 L86.25 -65.5" fill="#0099ff" fill-rule="evenodd" stroke="none"/>
    <path d="M76.6 -68.95 L76.75 -69.35 77.35 -69.6 77.9 -69.35 78.0 -68.75 77.95 -68.3 77.9 -68.15 77.85 -68.05 77.3 -67.75 76.75 -68.05 76.55 -68.75 76.6 -68.95 M78.5 -67.7 Q78.5 -68.75 78.1 -69.5 77.7 -70.3 77.1 -70.3 76.5 -70.3 76.1 -69.5 75.65 -68.7 75.65 -67.55 75.6 -66.55 75.9 -65.75 75.4 -66.5 75.05 -67.4 L75.05 -67.85 Q76.05 -72.85 78.35 -70.15 L78.5 -67.7 M76.7 -64.8 L76.9 -64.8 Q77.5 -64.8 77.95 -65.6 78.4 -66.4 78.5 -67.55 L78.5 -67.15 78.2 -63.9 Q77.35 -64.25 76.7 -64.8 M86.9 -60.8 Q87.55 -60.9 88.05 -61.7 88.6 -62.65 88.65 -63.95 88.75 -65.25 88.3 -66.1 87.75 -67.05 86.95 -67.0 86.2 -67.05 85.65 -66.1 85.05 -65.25 85.0 -63.95 84.95 -62.65 85.45 -61.7 85.75 -61.15 86.2 -60.95 L84.0 -61.65 Q84.3 -65.25 85.6 -67.45 90.2 -67.35 90.7 -61.25 89.05 -60.5 86.9 -60.8 M86.25 -65.5 L86.5 -65.8 Q86.8 -66.1 87.25 -66.1 L87.85 -65.8 88.15 -65.15 88.0 -64.7 87.75 -64.4 Q87.45 -64.15 87.1 -64.2 86.7 -64.15 86.5 -64.4 86.15 -64.75 86.1 -65.15 L86.25 -65.5" fill="#ffffff" fill-rule="evenodd" stroke="none"/>
    <path d="M76.6 -68.95 L76.55 -68.75 76.75 -68.05 77.3 -67.75 77.85 -68.05 77.9 -68.15 77.95 -68.3 77.95 -67.55 77.65 -66.4 77.0 -65.9 Q76.6 -65.9 76.3 -66.4 76.05 -66.9 76.1 -67.65 76.1 -68.3 76.4 -68.8 L76.6 -68.95 M88.0 -64.7 L88.05 -63.95 Q88.0 -63.2 87.6 -62.6 87.2 -62.1 86.7 -62.1 86.25 -62.1 85.9 -62.6 85.55 -63.2 85.6 -64.0 85.65 -64.75 86.05 -65.3 L86.25 -65.5 86.1 -65.15 Q86.15 -64.75 86.5 -64.4 86.7 -64.15 87.1 -64.2 87.45 -64.15 87.75 -64.4 L88.0 -64.7" fill="#000000" fill-rule="evenodd" stroke="none"/>
    <path d="M104.95 -59.65 L104.65 -58.95 102.9 -57.85 102.6 -55.85 102.55 -55.3 Q102.15 -51.4 102.7 -47.7 101.85 -46.4 97.4 -45.45 L97.4 -45.4 Q86.9 -44.95 84.5 -46.3 L83.3 -46.95 84.7 -46.95 Q91.05 -48.05 94.3 -53.45 L97.65 -59.1 95.8 -66.0 Q98.6 -63.25 100.35 -56.15 100.35 -57.4 101.2 -63.4 L102.4 -63.4 102.0 -62.15 101.9 -61.65 Q102.8 -61.3 103.35 -60.35 102.8 -61.3 101.9 -61.65 L102.0 -62.15 102.4 -63.4 102.75 -64.0 103.6 -64.85 Q105.35 -64.15 105.75 -62.5 L104.85 -59.4 104.95 -59.65 M68.55 38.75 L58.1 40.45 63.75 34.1 65.7 32.45 65.9 32.3 69.0 35.15 65.9 32.3 68.0 30.75 69.6 30.8 69.0 35.15 68.55 38.75 M77.9 -60.05 L78.55 -59.4 Q79.15 -58.95 79.85 -58.65 78.1 -58.1 77.95 -59.4 77.85 -59.7 77.9 -60.05 M104.5 -67.75 Q105.25 -67.9 105.6 -67.1 106.4 -65.2 105.95 -63.35 106.25 -64.9 105.75 -66.5 105.35 -67.65 104.5 -67.75 M102.9 -57.85 L102.3 -57.35 Q100.25 -55.4 99.75 -54.1 99.15 -52.95 95.6 -50.35 90.35 -47.35 84.7 -46.95 90.35 -47.35 95.6 -50.35 99.15 -52.95 99.75 -54.1 100.25 -55.4 102.3 -57.35 L102.9 -57.85 M101.8 -60.1 L101.9 -61.65 101.8 -60.1 M104.55 36.2 L110.35 38.6 111.7 40.95 111.8 41.15 112.9 43.4 115.3 51.6 105.85 45.2 105.65 45.1 106.5 42.65 104.55 36.2 M111.7 40.95 L106.5 42.65 111.7 40.95" fill="#ffd0ae" fill-rule="evenodd" stroke="none"/>
    <path d="M62.45 -46.2 L62.45 -46.35 62.55 -46.35 62.45 -46.2 M127.1 -36.85 L127.1 -36.7 127.0 -36.85 127.1 -36.85" fill="#bec5d8" fill-rule="evenodd" stroke="none"/>
    <path d="M115.7 -39.1 Q118.05 -39.1 120.8 -37.3 125.45 -34.45 128.5 -28.55 L129.5 -26.45 130.85 -22.1 131.15 -20.15 131.15 -18.5 Q130.75 -17.2 129.8 -16.2 L128.55 -15.15 128.45 -15.05 128.0 -14.85 127.6 -14.6 127.35 -14.45 127.1 -14.4 Q125.45 -14.15 123.85 -14.4 L121.8 -15.0 120.45 -15.7 119.8 -16.05 Q117.55 -17.45 115.5 -20.1 L113.9 -22.2 Q112.4 -24.4 110.9 -27.3 L109.4 -30.45 108.9 -31.6 108.9 -31.4 Q108.75 -28.6 109.4 -26.0 110.05 -23.15 111.55 -20.15 L111.8 -19.9 Q113.05 -17.45 114.55 -15.5 113.75 -12.2 112.55 -9.15 110.85 -4.65 108.35 -0.6 L107.5 0.7 107.05 1.15 106.65 1.75 106.55 1.85 107.85 10.35 Q107.65 10.7 107.3 14.0 L106.8 18.7 105.9 27.2 94.65 27.7 82.6 27.05 82.25 27.05 79.25 26.5 74.35 25.05 73.95 24.9 73.4 24.7 Q71.75 23.95 70.55 23.05 L68.45 21.05 68.45 20.35 Q68.4 10.75 68.85 5.2 69.1 1.4 69.6 -0.4 69.4 -2.05 69.55 -3.9 L69.55 -4.4 69.65 -5.9 69.8 -6.95 69.8 -7.45 70.2 -8.9 Q70.8 -12.55 70.55 -16.05 70.25 -19.5 69.15 -22.8 L69.05 -23.2 68.9 -23.45 67.55 -26.5 67.4 -26.45 64.45 -26.2 64.25 -26.2 64.05 -26.4 63.6 -26.5 Q63.4 -26.65 63.25 -26.75 L63.05 -26.8 61.4 -28.1 Q60.8 -28.8 60.45 -29.7 L60.35 -31.1 60.45 -32.85 Q60.65 -34.85 61.3 -36.9 L61.95 -38.85 Q64.1 -44.3 68.05 -47.15 69.85 -48.55 71.6 -49.0 71.45 -45.25 72.15 -42.0 73.3 -36.15 77.1 -31.9 L78.95 -30.15 79.4 -29.8 79.9 -29.8 80.1 -29.8 80.55 -29.75 80.6 -29.75 80.9 -29.75 Q97.8 -28.5 109.2 -33.65 L109.35 -34.3 Q109.8 -35.7 110.6 -36.65 L110.6 -36.7 Q111.35 -37.8 112.6 -38.4 L112.85 -38.55 113.95 -38.95 115.7 -39.1 M67.95 -41.5 Q66.85 -38.65 66.55 -35.85 66.15 -32.7 66.75 -29.55 67.0 -28.05 67.55 -26.5 67.0 -28.05 66.75 -29.55 66.15 -32.7 66.55 -35.85 66.85 -38.65 67.95 -41.5" fill="#c4ccb7" fill-rule="evenodd" stroke="none"/>
    <path d="M71.6 -49.0 L74.1 -49.85 74.1 -49.75 Q74.45 -38.85 81.2 -33.65 94.4 -32.35 108.9 -37.3 L109.2 -37.45 109.65 -37.2 110.0 -37.0 110.6 -36.65 Q109.8 -35.7 109.35 -34.3 L109.2 -33.65 Q97.8 -28.5 80.9 -29.75 L80.6 -29.75 80.55 -29.75 80.1 -29.8 79.9 -29.8 79.4 -29.8 78.95 -30.15 77.1 -31.9 Q73.3 -36.15 72.15 -42.0 71.45 -45.25 71.6 -49.0" fill="#dce0d3" fill-rule="evenodd" stroke="none"/>
    <path d="M131.45 -18.6 L132.25 -15.45 Q133.75 -10.5 135.55 -7.45 L136.0 -6.7 133.1 -4.3 132.45 -3.9 132.25 -4.4 132.4 -3.9 131.15 -3.2 Q128.95 -2.35 126.4 -2.25 L122.15 -2.6 119.8 -3.15 117.55 -9.2 117.5 -9.0 117.05 -7.85 Q115.6 -4.15 113.9 -1.1 L113.0 24.35 112.5 24.85 110.85 20.9 110.45 20.05 106.8 27.1 105.9 27.2 106.8 18.7 107.3 14.0 Q107.65 10.7 107.85 10.35 L106.55 1.85 106.65 1.75 107.05 1.15 107.5 0.7 108.35 -0.6 Q110.85 -4.65 112.55 -9.15 113.75 -12.2 114.55 -15.5 113.05 -17.45 111.8 -19.9 L111.55 -20.15 Q110.05 -23.15 109.4 -26.0 108.75 -28.6 108.9 -31.4 L108.9 -31.6 109.4 -30.45 110.9 -27.3 Q112.4 -24.4 113.9 -22.2 L115.5 -20.1 Q117.55 -17.45 119.8 -16.05 L120.45 -15.7 121.8 -15.0 123.85 -14.4 Q125.45 -14.15 127.1 -14.4 L127.35 -14.45 127.6 -14.6 128.0 -14.85 128.45 -15.05 128.55 -15.15 129.8 -16.2 Q130.75 -17.2 131.15 -18.5 L131.15 -17.15 130.55 -14.15 131.15 -17.15 131.15 -18.5 131.45 -18.6 M59.4 -17.1 Q58.2 -17.75 57.15 -18.7 L57.55 -19.4 Q58.8 -22.25 59.7 -26.8 L60.15 -29.7 60.45 -29.7 Q60.8 -28.8 61.4 -28.1 L63.05 -26.8 63.25 -26.75 Q63.4 -26.65 63.6 -26.5 L64.05 -26.4 64.25 -26.2 64.45 -26.2 67.4 -26.45 67.55 -26.5 68.9 -23.45 69.05 -23.2 69.15 -22.8 Q70.25 -19.5 70.55 -16.05 L69.8 -15.8 66.3 -15.4 Q63.95 -15.3 61.9 -15.95 L60.65 -16.5 60.75 -16.85 60.6 -16.5 59.4 -17.1 M61.1 -26.5 Q60.8 -27.45 60.65 -28.5 L60.45 -29.7 60.65 -28.5 Q60.8 -27.45 61.1 -26.5 M118.5 -11.75 L117.05 -12.9 115.8 -14.05 114.55 -15.5 115.8 -14.05 117.05 -12.9 118.5 -11.75 M121.1 -10.1 L121.1 -10.2 121.0 -10.2 121.1 -10.1 M117.55 -9.2 L115.8 -14.05 117.55 -9.2" fill="#aeba9e" fill-rule="evenodd" stroke="none"/>
    <path d="M131.15 -20.15 L131.45 -18.6 131.15 -18.5 131.15 -20.15 M60.15 -29.7 L60.35 -31.1 60.45 -29.7 60.15 -29.7" fill="#a47c73" fill-rule="evenodd" stroke="none"/>
    <path d="M133.1 -4.3 L134.45 0.45 Q129.0 0.2 126.65 2.45 125.45 3.45 125.0 5.0 L124.65 3.95 122.15 -2.6 126.4 -2.25 Q128.95 -2.35 131.15 -3.2 L132.4 -3.9 132.45 -3.9 133.1 -4.3 M58.65 -12.95 L59.4 -17.1 60.6 -16.5 60.65 -16.5 61.9 -15.95 Q63.95 -15.3 66.3 -15.4 L69.8 -15.8 67.95 -9.2 67.85 -8.9 67.55 -9.7 Q65.55 -13.8 58.65 -12.95" fill="#bda097" fill-rule="evenodd" stroke="none"/>
    <path d="M60.6 -16.5 L60.75 -16.85 60.65 -16.5 60.6 -16.5 M132.4 -3.9 L132.25 -4.4 132.45 -3.9 132.4 -3.9" fill="#a5bafe" fill-rule="evenodd" stroke="none"/>
    <path d="M134.45 0.45 L135.45 4.4 135.4 4.45 135.85 4.9 136.35 6.85 137.1 12.05 135.85 15.25 123.45 36.15 120.55 40.95 Q115.45 41.45 114.5 36.7 L116.85 29.8 118.9 22.15 120.35 14.8 Q121.0 9.95 122.65 6.85 123.5 5.15 124.65 3.95 L125.0 5.0 Q125.45 3.45 126.65 2.45 129.0 0.2 134.45 0.45 M57.3 23.05 L54.6 -1.0 54.75 -4.45 Q56.3 -7.1 57.6 -8.85 L58.0 -9.4 58.65 -12.95 Q65.55 -13.8 67.55 -9.7 L67.85 -8.9 67.95 -9.2 68.05 -9.1 Q69.1 -7.75 69.65 -5.9 L69.55 -4.4 69.55 -3.9 Q69.4 -2.05 69.6 -0.4 69.1 1.4 68.85 5.2 67.85 8.5 67.1 12.25 66.35 15.9 65.85 20.05 L65.05 27.35 Q62.25 31.3 57.9 28.75 L57.3 23.05 M66.95 -5.4 L67.85 -8.9 66.95 -5.4 M126.25 8.35 L125.0 5.0 126.25 8.35" fill="#d2c0b7" fill-rule="evenodd" stroke="none"/>
    <path d="M94.35 36.7 L94.3 34.35 92.3 34.55 90.55 34.55 90.1 34.55 90.25 40.35 Q90.05 37.1 89.35 34.5 L88.85 34.5 87.3 34.35 85.15 33.8 84.7 33.7 Q79.75 32.35 76.55 28.8 75.05 27.1 73.95 24.9 L74.35 25.05 79.25 26.5 82.25 27.05 82.6 27.05 94.65 27.7 105.9 27.2 106.8 27.1 110.45 20.05 110.85 20.9 111.9 24.35 112.4 26.1 112.9 28.8 112.1 28.75 105.9 34.85 Q103.55 34.45 100.7 34.95 L100.65 34.95 97.4 35.7 97.15 35.7 97.15 35.75 94.35 36.7 M70.55 23.05 Q71.75 23.95 73.4 24.7 L73.2 24.7 73.2 24.75 71.95 24.85 70.4 25.05 70.55 23.05 M94.3 34.35 Q94.25 30.6 94.65 27.7 94.25 30.6 94.3 34.35 M89.35 34.5 L90.1 34.55 89.35 34.5" fill="#4a5371" fill-rule="evenodd" stroke="none"/>
    <path d="M116.35 50.45 L117.55 58.05 117.95 62.1 118.0 62.85 94.65 62.85 Q94.25 58.4 94.15 54.6 L94.05 54.4 Q93.9 48.55 94.35 36.7 L97.15 35.75 97.4 35.7 100.65 34.95 100.7 34.95 Q103.55 34.45 105.9 34.85 L104.55 36.2 106.5 42.65 105.65 45.1 105.85 45.2 115.3 51.6 115.5 51.65 116.05 50.5 116.35 50.45 M90.25 40.35 L90.5 42.75 90.85 51.4 90.75 55.5 90.15 62.85 67.85 62.85 67.7 55.9 67.75 51.4 Q67.8 46.7 68.1 42.75 L68.1 42.6 68.55 38.75 69.0 35.15 69.6 30.8 70.4 25.05 71.95 24.85 73.2 24.75 73.4 24.7 73.95 24.9 Q75.05 27.1 76.55 28.8 79.75 32.35 84.7 33.7 L85.15 33.8 87.3 34.35 88.85 34.5 89.35 34.5 Q90.05 37.1 90.25 40.35" fill="#556280" fill-rule="evenodd" stroke="none"/>
    <path d="M97.15 35.75 L97.15 35.7 97.4 35.7 97.15 35.75 M73.2 24.75 L73.2 24.7 73.4 24.7 73.2 24.75" fill="#89a58a" fill-rule="evenodd" stroke="none"/>
    <path d="M79.45 -70.4 Q77.45 -73.95 74.95 -74.35 78.85 -75.15 79.45 -70.4 M84.4 -68.5 Q88.1 -72.85 92.95 -69.5 89.3 -70.75 84.4 -68.5" fill="#9b5e5e" fill-rule="evenodd" stroke="none"/>
    <path d="M100.3 -40.0 L100.15 -40.0 100.3 -40.15 100.3 -40.0" fill="#b48f87" fill-rule="evenodd" stroke="none"/>
    <path d="M113.75 -39.9 Q114.8 -39.65 115.7 -39.1 L113.95 -38.95 112.85 -38.55 112.6 -38.4 Q111.35 -37.8 110.6 -36.7 L110.6 -36.65 110.0 -37.0 109.65 -37.2 109.2 -37.45 Q111.95 -38.75 113.75 -39.9" fill="#c5ccb7" fill-rule="evenodd" stroke="none"/>
    <path d="M121.1 -10.1 L121.0 -10.2 121.1 -10.2 121.1 -10.1" fill="#deddb1" fill-rule="evenodd" stroke="none"/>
    <path d="M116.3 -84.2 L118.3 -85.25 120.55 -85.7 Q112.8 -94.35 101.35 -95.75 L103.5 -98.15 104.5 -98.85 Q105.0 -99.3 105.65 -99.55 L102.2 -99.75 Q95.1 -99.9 88.7 -97.65 M116.3 -84.2 L114.55 -82.1 114.15 -81.5 113.9 -81.25 M113.95 -81.25 L113.85 -80.6 M113.9 -80.6 L118.65 -68.75 117.55 -69.6 113.75 -71.35 Q113.9 -68.6 113.0 -66.2 L111.2 -62.15 109.65 -68.6 107.0 -61.95 105.9 -60.6 104.95 -59.65 M74.65 -76.75 L74.65 -76.8 73.45 -80.05 Q71.85 -83.35 68.75 -84.85 L64.2 -86.95 Q69.5 -90.15 76.3 -88.75 L76.45 -88.7 75.1 -90.55 72.5 -92.85 67.85 -95.25 Q73.35 -97.15 79.4 -96.45 80.05 -98.55 81.1 -100.25 83.8 -104.25 86.9 -107.95 L86.6 -103.25 88.7 -97.65 M114.05 -81.5 L114.55 -82.1 M74.65 -76.75 Q76.9 -80.8 81.1 -75.8 86.35 -79.2 89.4 -80.0 92.4 -80.85 95.25 -77.6 98.1 -74.4 97.5 -71.5 96.95 -68.95 95.5 -67.0 L95.05 -66.6 95.8 -66.0 Q98.6 -63.25 100.35 -56.15 100.35 -57.4 101.2 -63.4 L101.55 -65.9 Q103.4 -67.7 104.5 -67.75 105.25 -67.9 105.6 -67.1 106.4 -65.2 105.95 -63.35 L105.75 -62.5 104.85 -59.4 104.95 -59.65" fill="none" stroke="#4f4535" stroke-linecap="round" stroke-linejoin="round" stroke-width="0.05"/>
    <path d="M104.95 -59.65 L104.65 -58.95 102.9 -57.85 M123.45 36.15 L123.55 38.9 117.8 50.0 116.35 50.45 M68.55 38.75 L58.1 40.45 58.05 40.45 57.9 39.3 56.65 38.0 55.95 25.55 Q56.55 24.05 57.3 23.05 M77.95 -50.15 Q77.75 -50.75 77.7 -51.45 L77.4 -54.25 M76.9 -57.05 L76.45 -58.35 Q75.6 -60.5 75.05 -63.4 74.4 -66.3 74.65 -69.4 74.95 -72.45 74.65 -74.1 74.45 -75.35 74.65 -76.75 M78.5 -67.7 L78.35 -70.15 Q76.05 -72.85 75.05 -67.85 M75.05 -67.4 Q75.4 -66.5 75.9 -65.75 L76.7 -64.8 M78.5 -67.55 L78.5 -67.7 M75.05 -67.4 L74.95 -67.45 75.05 -67.85 M78.5 -67.55 L78.5 -67.15 Q79.05 -64.4 78.8 -62.45 78.55 -61.0 77.9 -60.05 M79.85 -58.65 Q78.1 -58.1 77.95 -59.4 77.85 -59.7 77.9 -60.05 M78.5 -67.15 L78.2 -63.9 Q77.35 -64.25 76.7 -64.8 M78.65 -54.55 Q81.05 -52.75 85.35 -51.9 M86.9 -60.8 Q89.05 -60.5 90.7 -61.25 90.2 -67.35 85.6 -67.45 84.3 -65.25 84.0 -61.65 L86.2 -60.95 86.9 -60.8 M84.7 -46.95 Q90.35 -47.35 95.6 -50.35 99.15 -52.95 99.75 -54.1 100.25 -55.4 102.3 -57.35 L102.9 -57.85 M105.95 -63.35 Q106.25 -64.9 105.75 -66.5 105.35 -67.65 104.5 -67.75 M102.4 -63.4 L102.0 -62.15 101.9 -61.65 Q102.8 -61.3 103.35 -60.35 M103.6 -64.85 L102.75 -64.0 102.4 -63.4 M101.9 -61.65 L101.8 -60.1 M83.3 -46.95 Q78.9 -47.2 77.95 -50.15 M83.3 -46.95 L84.7 -46.95 M112.9 28.8 Q115.0 28.95 116.85 29.8 M105.9 34.85 L112.1 28.75 112.9 28.8 M105.9 34.85 L104.55 36.2 M111.7 40.95 L111.8 41.15 M115.3 51.6 L115.5 51.65 116.05 50.5 116.35 50.45 M115.3 51.6 L105.85 45.2 105.65 45.1 106.5 42.65 104.55 36.2 M106.5 42.65 L111.7 40.95 M65.85 20.05 L68.45 20.35 M65.9 32.3 L69.0 35.15 M65.9 32.3 L65.7 32.45" fill="none" stroke="#d7995e" stroke-linecap="round" stroke-linejoin="round" stroke-width="0.05"/>
    <path d="M77.4 -54.25 Q75.75 -54.15 74.05 -55.45 M93.4 -53.1 Q89.45 -51.35 87.7 -51.9 85.9 -52.5 83.35 -54.0 80.8 -55.45 78.65 -54.55 M77.4 -54.25 L78.65 -54.55 M79.45 -70.4 Q77.45 -73.95 74.95 -74.35 78.85 -75.15 79.45 -70.4 M84.4 -68.5 Q89.3 -70.75 92.95 -69.5 88.1 -72.85 84.4 -68.5" fill="none" stroke="#4b2e2e" stroke-linecap="round" stroke-linejoin="round" stroke-width="0.05"/>
    <path d="M113.75 -39.9 Q114.8 -39.65 115.7 -39.1 118.05 -39.1 120.8 -37.3 125.45 -34.45 128.5 -28.55 L129.5 -26.45 130.85 -22.1 131.15 -20.15 131.45 -18.6 132.25 -15.45 Q133.75 -10.5 135.55 -7.45 L136.0 -6.7 133.1 -4.3 134.45 0.45 135.45 4.4 M135.4 4.45 L135.85 4.9 136.35 6.85 137.1 12.05 135.85 15.25 123.45 36.15 120.55 40.95 Q115.45 41.45 114.5 36.7 L116.85 29.8 118.9 22.15 120.35 14.8 Q121.0 9.95 122.65 6.85 123.5 5.15 124.65 3.95 L122.15 -2.6 126.4 -2.25 Q128.95 -2.35 131.15 -3.2 L132.4 -3.9 132.45 -3.9 133.1 -4.3 M57.3 23.05 L54.6 -1.0 54.75 -4.45 Q56.3 -7.1 57.6 -8.85 L58.0 -9.4 58.65 -12.95 59.4 -17.1 Q58.2 -17.75 57.15 -18.7 L57.55 -19.4 Q58.8 -22.25 59.7 -26.8 L60.15 -29.7 60.35 -31.1 60.45 -32.85 Q60.65 -34.85 61.3 -36.9 L61.95 -38.85 Q64.1 -44.3 68.05 -47.15 69.85 -48.55 71.6 -49.0 L74.1 -49.85 74.1 -49.75 M109.2 -37.45 L108.9 -37.3 Q94.4 -32.35 81.2 -33.65 74.45 -38.85 74.1 -49.75 M67.55 -26.5 Q67.0 -28.05 66.75 -29.55 66.15 -32.7 66.55 -35.85 66.85 -38.65 67.95 -41.5 M60.45 -29.7 L60.35 -31.1 M60.45 -29.7 L60.65 -28.5 Q60.8 -27.45 61.1 -26.5 M59.4 -17.1 L60.6 -16.5 60.65 -16.5 61.9 -15.95 Q63.95 -15.3 66.3 -15.4 L69.8 -15.8 70.55 -16.05 Q70.25 -19.5 69.15 -22.8 L69.05 -23.2 68.9 -23.45 67.55 -26.5 M67.85 -8.9 L67.95 -9.2 69.8 -15.8 M67.85 -8.9 L66.95 -5.4 M69.65 -5.9 Q69.1 -7.75 68.05 -9.1 L67.95 -9.2 M70.55 -16.05 Q70.8 -12.55 70.2 -8.9 L69.8 -7.45 69.8 -6.95 69.65 -5.9 69.55 -4.4 69.55 -3.9 Q69.4 -2.05 69.6 -0.4 69.1 1.4 68.85 5.2 68.4 10.75 68.45 20.35 L68.45 21.05 70.55 23.05 Q71.75 23.95 73.4 24.7 L73.95 24.9 74.35 25.05 79.25 26.5 82.25 27.05 82.6 27.05 94.65 27.7 105.9 27.2 M114.55 -15.5 Q113.05 -17.45 111.8 -19.9 M131.15 -18.5 L131.15 -20.15 M113.95 -38.95 L115.7 -39.1 M113.75 -39.9 Q111.95 -38.75 109.2 -37.45 M114.55 -15.5 L115.8 -14.05 117.05 -12.9 118.5 -11.75 M122.15 -2.6 L119.8 -3.15 117.55 -9.2 117.5 -9.0 117.05 -7.85 Q115.6 -4.15 113.9 -1.1 L113.0 24.35 112.5 24.85 110.85 20.9 110.45 20.05 106.8 27.1 105.9 27.2 M115.8 -14.05 L117.55 -9.2 M131.15 -18.5 L131.15 -17.15 130.55 -14.15 M125.0 5.0 L126.25 8.35 M125.0 5.0 L124.65 3.95 M65.85 20.05 Q66.35 15.9 67.1 12.25 67.85 8.5 68.85 5.2 M57.3 23.05 L57.9 28.75 Q62.25 31.3 65.05 27.35 L65.85 20.05" fill="none" stroke="#6a4e44" stroke-linecap="round" stroke-linejoin="round" stroke-width="0.05"/>
    <path d="M102.9 -57.85 L102.6 -55.85 102.55 -55.3 Q102.15 -51.4 102.7 -47.7 L103.0 -46.05 104.2 -45.45 105.5 -44.75 113.75 -39.9 M74.25 -49.85 L75.95 -50.05 77.95 -50.15" fill="none" stroke="#674743" stroke-linecap="round" stroke-linejoin="round" stroke-width="0.05"/>
    <path d="M116.35 50.45 L117.55 58.05 117.95 62.1 118.0 62.85 M94.65 62.85 Q94.25 58.4 94.15 54.6 L94.05 54.4 Q93.9 48.55 94.35 36.7 L94.3 34.35 92.3 34.55 90.55 34.55 90.1 34.55 90.25 40.35 90.5 42.75 90.85 51.4 90.75 55.5 90.15 62.85 M67.85 62.85 L67.7 55.9 67.75 51.4 Q67.8 46.7 68.1 42.75 L68.1 42.6 68.55 38.75 M110.85 20.9 L111.9 24.35 112.4 26.1 112.9 28.8 M94.65 27.7 Q94.25 30.6 94.3 34.35 M89.35 34.5 L88.85 34.5 87.3 34.35 85.15 33.8 84.7 33.7 M90.1 34.55 L89.35 34.5 M69.0 35.15 L69.6 30.8 70.4 25.05 70.55 23.05 M69.0 35.15 L68.55 38.75" fill="none" stroke="#000033" stroke-linecap="round" stroke-linejoin="round" stroke-width="0.05"/>
  </g>
</svg>
