<?xml version="1.0" encoding="UTF-8" standalone="no"?>
<svg xmlns:xlink="http://www.w3.org/1999/xlink" height="183.45px" width="91.3px" xmlns="http://www.w3.org/2000/svg">
  <g transform="matrix(1, 0, 0, 1, -48.0, 112.25)">
    <path d="M79.35 -108.05 Q79.4 -107.15 79.65 -106.75 L81.05 -105.9 83.4 -104.9 Q87.75 -103.6 93.9 -103.6 99.95 -103.6 104.2 -104.9 L105.8 -105.4 106.4 -105.7 107.45 -106.2 Q108.6 -106.95 108.65 -107.8 L108.7 -107.95 108.7 -107.8 110.75 -53.8 110.55 -53.1 Q110.25 -52.45 109.55 -52.2 L107.35 -51.95 107.4 -46.55 106.85 -41.95 105.8 -38.65 105.25 -37.4 103.55 -34.9 Q102.7 -34.0 101.9 -33.35 98.5 -30.45 96.5 -31.7 L95.85 -32.2 94.9 -33.25 93.95 -34.4 93.9 -35.65 95.55 -38.35 96.75 -39.2 Q97.85 -39.95 98.15 -40.95 98.45 -41.95 98.25 -44.35 L98.25 -54.45 98.25 -54.95 97.05 -54.9 96.35 -54.9 92.05 -54.65 82.65 -55.4 81.75 -55.45 77.35 -56.45 77.3 -56.45 Q75.25 -57.0 73.95 -57.6 L73.85 -57.6 72.95 -58.1 72.2 -58.6 72.05 -58.65 72.0 -58.9 71.5 -59.45 71.4 -59.75 Q71.25 -60.0 71.25 -60.25 L71.25 -60.45 71.25 -60.75 71.4 -61.6 71.4 -61.75 72.3 -66.85 73.05 -66.8 Q73.9 -66.85 74.55 -67.3 L74.95 -67.7 Q75.7 -68.55 75.6 -69.65 L75.45 -70.65 74.85 -71.65 Q74.15 -72.3 73.2 -72.4 L74.7 -81.25 75.85 -81.1 Q76.7 -81.15 77.35 -81.6 L77.75 -82.0 Q78.5 -82.85 78.45 -83.9 L78.25 -84.95 77.65 -85.95 Q76.8 -86.75 75.6 -86.65 L79.35 -108.05 M88.65 -68.4 Q87.8 -69.2 86.65 -69.1 85.55 -69.05 84.85 -68.2 L84.55 -67.9 Q84.05 -67.15 84.05 -66.2 84.15 -65.2 84.8 -64.45 L84.95 -64.3 Q85.75 -63.5 86.85 -63.55 87.75 -63.6 88.4 -64.05 L88.8 -64.45 Q89.55 -65.3 89.45 -66.35 L89.3 -67.4 88.65 -68.4 M90.25 -82.25 L90.05 -83.25 89.45 -84.25 Q88.6 -85.05 87.45 -85.0 86.35 -84.95 85.65 -84.1 L85.35 -83.75 Q84.8 -83.0 84.85 -82.05 84.9 -81.05 85.55 -80.3 L85.75 -80.15 Q86.55 -79.35 87.65 -79.4 88.5 -79.45 89.15 -79.9 L89.55 -80.3 Q90.3 -81.15 90.25 -82.25" fill="#c6c7d0" fill-rule="evenodd" stroke="none"/>
    <path d="M79.35 -108.05 L79.1 -107.75 79.1 -108.05 79.1 -108.35 79.9 -109.4 Q80.95 -110.35 83.4 -111.1 87.75 -112.3 93.9 -112.25 99.95 -112.3 104.2 -111.1 L105.8 -110.6 107.15 -109.9 Q108.6 -109.05 108.65 -108.0 L108.65 -107.8 Q108.6 -106.95 107.45 -106.2 L106.4 -105.7 105.8 -105.4 104.2 -104.9 Q99.95 -103.6 93.9 -103.6 87.75 -103.6 83.4 -104.9 L81.05 -105.9 79.65 -106.75 Q79.4 -107.15 79.35 -108.05" fill="#d0d1d9" fill-rule="evenodd" stroke="none"/>
    <path d="M75.6 -84.85 L75.95 -84.85 Q76.75 -84.95 77.35 -84.5 77.95 -84.0 78.0 -83.3 78.0 -82.6 77.45 -82.05 76.9 -81.55 76.1 -81.5 L74.85 -81.8 74.65 -81.9 Q74.05 -82.35 74.0 -83.0 73.95 -83.75 74.5 -84.3 L74.95 -84.2 75.2 -84.25 75.4 -84.35 75.6 -84.75 75.6 -84.85 M72.8 -70.6 L72.9 -70.6 73.15 -70.6 Q73.95 -70.65 74.55 -70.2 75.1 -69.7 75.15 -69.0 75.2 -68.3 74.65 -67.75 74.1 -67.25 73.3 -67.2 L72.35 -67.3 71.85 -67.6 Q71.2 -68.05 71.15 -68.75 71.15 -69.45 71.7 -70.0 L72.15 -69.9 72.6 -70.1 72.8 -70.45 72.8 -70.6 M87.45 -83.2 L87.75 -83.2 Q88.55 -83.25 89.15 -82.8 89.75 -82.3 89.8 -81.6 89.8 -80.9 89.3 -80.35 88.75 -79.85 87.95 -79.8 87.1 -79.75 86.45 -80.2 85.85 -80.65 85.8 -81.35 85.75 -82.05 86.3 -82.6 L86.75 -82.5 87.2 -82.7 87.45 -83.05 87.45 -83.2 M86.65 -67.3 L87.0 -67.3 Q87.8 -67.4 88.4 -66.95 88.95 -66.45 89.0 -65.75 89.05 -65.05 88.5 -64.5 87.95 -64.0 87.15 -63.95 86.3 -63.9 85.7 -64.35 85.05 -64.8 85.0 -65.45 85.0 -66.2 85.5 -66.75 L85.95 -66.65 86.4 -66.8 86.65 -67.2 86.65 -67.3" fill="#7c4632" fill-rule="evenodd" stroke="none"/>
    <path d="M72.3 -66.85 L71.1 -67.55 70.95 -67.7 Q70.3 -68.45 70.2 -69.45 70.2 -70.4 70.7 -71.15 L71.0 -71.5 Q71.7 -72.35 72.8 -72.4 L73.2 -72.4 Q74.15 -72.3 74.85 -71.65 L75.45 -70.65 75.6 -69.65 Q75.7 -68.55 74.95 -67.7 L74.55 -67.3 Q73.9 -66.85 73.05 -66.8 L72.3 -66.85 M74.7 -81.25 L73.95 -81.85 73.75 -82.0 Q73.1 -82.75 73.05 -83.75 73.0 -84.7 73.55 -85.45 L73.8 -85.75 Q74.5 -86.6 75.6 -86.65 76.8 -86.75 77.65 -85.95 L78.25 -84.95 78.45 -83.9 Q78.5 -82.85 77.75 -82.0 L77.35 -81.6 Q76.7 -81.15 75.85 -81.1 L74.7 -81.25 M74.5 -84.3 Q73.95 -83.75 74.0 -83.0 74.05 -82.35 74.65 -81.9 L74.85 -81.8 76.1 -81.5 Q76.9 -81.55 77.45 -82.05 78.0 -82.6 78.0 -83.3 77.95 -84.0 77.35 -84.5 76.75 -84.95 75.95 -84.85 L75.6 -84.85 75.45 -85.15 75.4 -85.2 Q75.25 -85.4 74.95 -85.4 L74.5 -85.25 74.45 -85.2 74.15 -84.7 Q74.15 -84.45 74.4 -84.3 L74.5 -84.3 M71.7 -70.0 Q71.15 -69.45 71.15 -68.75 71.2 -68.05 71.85 -67.6 L72.35 -67.3 73.3 -67.2 Q74.1 -67.25 74.65 -67.75 75.2 -68.3 75.15 -69.0 75.1 -69.7 74.55 -70.2 73.95 -70.65 73.15 -70.6 L72.9 -70.6 72.8 -70.6 72.65 -70.85 72.6 -70.9 Q72.45 -71.1 72.15 -71.1 L71.7 -71.0 71.6 -70.9 71.35 -70.4 Q71.3 -70.15 71.55 -70.0 L71.7 -70.0 M87.45 -83.2 L87.25 -83.45 87.2 -83.5 86.75 -83.7 86.3 -83.6 86.25 -83.5 85.95 -83.0 86.2 -82.6 86.3 -82.6 Q85.75 -82.05 85.8 -81.35 85.85 -80.65 86.45 -80.2 87.1 -79.75 87.95 -79.8 88.75 -79.85 89.3 -80.35 89.8 -80.9 89.8 -81.6 89.75 -82.3 89.15 -82.8 88.55 -83.25 87.75 -83.2 L87.45 -83.2 M90.25 -82.25 Q90.3 -81.15 89.55 -80.3 L89.15 -79.9 Q88.5 -79.45 87.65 -79.4 86.55 -79.35 85.75 -80.15 L85.55 -80.3 Q84.9 -81.05 84.85 -82.05 84.8 -83.0 85.35 -83.75 L85.65 -84.1 Q86.35 -84.95 87.45 -85.0 88.6 -85.05 89.45 -84.25 L90.05 -83.25 90.25 -82.25 M88.65 -68.4 L89.3 -67.4 89.45 -66.35 Q89.55 -65.3 88.8 -64.45 L88.4 -64.05 Q87.75 -63.6 86.85 -63.55 85.75 -63.5 84.95 -64.3 L84.8 -64.45 Q84.15 -65.2 84.05 -66.2 84.05 -67.15 84.55 -67.9 L84.85 -68.2 Q85.55 -69.05 86.65 -69.1 87.8 -69.2 88.65 -68.4 M85.5 -66.75 Q85.0 -66.2 85.0 -65.45 85.05 -64.8 85.7 -64.35 86.3 -63.9 87.15 -63.95 87.95 -64.0 88.5 -64.5 89.05 -65.05 89.0 -65.75 88.95 -66.45 88.4 -66.95 87.8 -67.4 87.0 -67.3 L86.65 -67.3 86.45 -67.6 86.4 -67.65 85.95 -67.85 85.5 -67.7 85.45 -67.65 85.2 -67.15 Q85.15 -66.9 85.4 -66.75 L85.5 -66.75" fill="#bb7855" fill-rule="evenodd" stroke="none"/>
    <path d="M136.95 25.2 L137.45 26.95 138.75 28.2 139.0 30.15 139.3 35.45 137.85 38.9 129.75 53.0 129.65 53.55 129.5 53.6 127.6 68.3 123.0 67.8 119.85 67.1 116.4 52.25 122.65 43.15 122.65 43.05 123.7 39.55 Q124.7 34.5 126.45 31.15 L127.1 30.05 126.35 27.9 126.35 27.8 128.5 28.15 Q132.9 28.5 136.05 26.0 L136.95 25.2 M113.25 71.2 L104.4 71.2 104.45 40.45 107.5 40.3 108.8 40.25 109.4 44.05 111.05 54.8 111.5 57.8 111.75 59.2 111.85 60.15 112.85 68.0 113.25 71.2 M67.3 71.2 L61.9 71.2 62.8 64.75 63.8 58.25 64.1 56.35 64.7 52.65 Q60.8 56.25 52.35 53.95 L48.0 52.5 52.35 38.3 52.15 38.25 52.4 37.7 50.8 21.5 50.9 17.8 Q52.2 14.95 53.35 13.05 L54.45 11.45 54.7 11.35 54.75 10.9 55.1 11.2 Q58.35 14.1 62.9 13.4 L65.05 12.9 65.1 13.0 64.15 16.85 64.1 16.85 64.35 19.2 Q64.55 22.9 63.4 27.9 63.0 29.55 62.95 31.55 L62.85 31.7 65.05 44.4 65.65 47.8 66.3 44.65 67.95 36.85 68.2 35.8 70.4 36.8 69.5 36.8 67.3 71.2 M75.6 -84.85 L75.6 -84.75 75.4 -84.35 75.2 -84.25 74.95 -84.2 74.5 -84.3 74.4 -84.3 Q74.15 -84.45 74.15 -84.7 L74.45 -85.2 74.5 -85.25 74.95 -85.4 Q75.25 -85.4 75.4 -85.2 L75.45 -85.15 75.6 -84.85 M72.8 -70.6 L72.8 -70.45 72.6 -70.1 72.15 -69.9 71.7 -70.0 71.55 -70.0 Q71.3 -70.15 71.35 -70.4 L71.6 -70.9 71.7 -71.0 72.15 -71.1 Q72.45 -71.1 72.6 -70.9 L72.65 -70.85 72.8 -70.6 M73.5 -52.75 L74.25 -52.6 73.85 -52.0 Q73.4 -51.15 73.35 -49.95 73.3 -48.75 73.7 -47.85 L73.7 -47.8 72.7 -49.75 72.7 -50.3 Q73.0 -51.95 73.5 -52.75 M75.9 -52.3 L76.3 -52.25 76.4 -49.5 Q76.4 -47.75 76.05 -45.95 L74.45 -47.0 74.7 -46.95 Q75.35 -47.0 75.85 -47.85 76.3 -48.75 76.35 -49.95 76.4 -51.15 76.0 -52.0 L75.9 -52.3 M74.45 -51.45 L74.6 -51.8 75.15 -52.15 75.75 -51.8 75.9 -51.2 75.85 -50.75 75.75 -50.6 75.65 -50.45 Q75.4 -50.15 75.1 -50.15 74.75 -50.15 74.5 -50.45 74.25 -50.75 74.3 -51.2 L74.45 -51.45 M68.0 7.2 Q70.35 8.95 73.05 10.3 L72.95 16.4 Q69.85 17.05 66.95 15.75 L67.05 15.05 67.1 14.5 67.5 12.9 Q68.0 9.95 68.0 7.2 M75.55 11.5 L80.4 13.25 80.6 13.3 81.8 13.6 83.3 13.9 84.1 14.15 93.9 15.25 93.9 37.1 88.7 37.0 88.7 36.35 77.85 34.0 77.85 34.45 77.85 35.75 75.6 34.65 75.6 19.7 75.55 18.9 75.6 15.4 75.55 14.75 75.55 11.5 M86.3 -82.6 L86.2 -82.6 85.95 -83.0 86.25 -83.5 86.3 -83.6 86.75 -83.7 87.2 -83.5 87.25 -83.45 87.45 -83.2 87.45 -83.05 87.2 -82.7 86.75 -82.5 86.3 -82.6 M85.5 -66.75 L85.4 -66.75 Q85.15 -66.9 85.2 -67.15 L85.45 -67.65 85.5 -67.7 85.95 -67.85 86.4 -67.65 86.45 -67.6 86.65 -67.3 86.65 -67.2 86.4 -66.8 85.95 -66.65 85.5 -66.75 M85.05 -42.75 L85.25 -42.75 Q86.05 -42.7 86.7 -43.65 87.25 -44.65 87.3 -46.05 87.4 -47.45 86.9 -48.4 86.35 -49.4 85.5 -49.4 84.7 -49.4 84.1 -48.4 83.5 -47.45 83.45 -46.05 83.35 -44.65 83.9 -43.65 84.25 -42.95 84.85 -42.8 83.65 -43.05 82.35 -43.6 82.65 -47.45 84.05 -49.9 89.0 -49.75 89.5 -43.15 87.6 -42.25 85.05 -42.75 M86.65 -46.85 L86.4 -46.55 85.7 -46.3 Q85.25 -46.3 84.95 -46.55 84.6 -46.9 84.6 -47.35 L84.8 -47.8 85.0 -48.1 Q85.3 -48.4 85.75 -48.35 L86.45 -48.1 86.8 -47.35 86.65 -46.85 M127.6 31.55 L127.1 30.05 127.6 31.55 M112.5 13.85 Q110.8 18.05 108.45 21.85 L107.7 22.95 Q103.05 22.35 98.15 17.35 L98.25 15.25 112.5 13.85 M98.25 22.95 Q103.3 26.3 107.0 27.25 L107.9 33.6 Q106.55 36.7 104.7 38.0 L104.45 38.05 104.45 37.25 100.6 37.2 98.25 37.15 98.25 22.95 M69.55 28.8 Q67.9 27.1 67.25 24.5 66.8 22.65 66.8 20.35 68.95 22.25 72.85 20.95 L72.85 33.05 71.75 32.15 71.1 31.45 Q70.3 30.65 69.9 29.75 L69.75 29.35 69.55 28.8 M54.35 13.1 L54.7 11.35 54.35 13.1 M64.7 52.65 L65.15 50.25 65.65 47.8 65.15 50.25 64.7 52.65" fill="#ffffff" fill-rule="evenodd" stroke="none"/>
    <path d="M72.4 -53.15 L72.3 -53.2 72.2 -53.35 Q71.7 -53.6 71.4 -53.9 68.8 -55.95 71.25 -60.25 71.25 -60.0 71.4 -59.75 L71.5 -59.45 72.0 -58.9 72.05 -58.65 72.2 -58.6 72.95 -58.1 73.85 -57.6 73.95 -57.6 Q75.25 -57.0 77.3 -56.45 L77.35 -56.45 81.75 -55.45 82.65 -55.4 92.05 -54.65 96.35 -54.9 97.05 -54.9 98.25 -54.95 98.25 -54.45 96.9 -54.15 89.95 -53.05 89.9 -53.05 84.05 -52.3 Q79.4 -51.95 76.3 -52.25 L75.9 -52.3 74.25 -52.6 73.5 -52.75 72.4 -53.15" fill="#a8aab7" fill-rule="evenodd" stroke="none"/>
    <path d="M123.0 67.8 L121.2 71.2 120.7 71.2 119.85 67.1 123.0 67.8 M54.5 66.1 L54.35 66.1 54.25 64.8 52.85 63.45 52.35 53.95 Q60.8 56.25 64.7 52.65 L64.1 56.35 62.8 57.25 62.55 57.5 60.5 59.25 54.5 66.1 M72.75 -45.15 L72.7 -45.45 Q72.05 -48.6 72.35 -51.9 L72.4 -53.15 73.5 -52.75 Q73.0 -51.95 72.7 -50.3 L72.65 -49.9 72.7 -49.75 73.7 -47.8 Q74.0 -47.2 74.45 -47.0 L76.05 -45.95 Q76.4 -47.75 76.4 -49.5 L76.3 -52.25 Q79.4 -51.95 84.05 -52.3 L82.55 -50.9 82.65 -50.95 87.55 -52.35 91.75 -51.95 91.6 -52.1 91.8 -52.0 89.95 -53.05 96.9 -54.15 Q96.5 -52.2 95.3 -49.6 L94.65 -49.4 94.85 -48.65 94.8 -48.55 94.95 -48.2 96.8 -41.5 96.8 -40.55 95.55 -38.35 93.9 -35.65 93.4 -34.85 Q89.85 -29.05 83.1 -27.85 L80.55 -27.95 Q77.7 -28.3 76.5 -29.95 77.7 -28.3 80.55 -27.95 L81.4 -26.25 96.75 -26.3 Q100.3 -28.3 102.15 -28.6 L102.4 -28.1 102.5 -28.05 98.5 -24.95 96.15 -23.2 Q90.8 -19.6 86.75 -17.75 82.75 -15.9 81.35 -11.6 82.15 -14.35 78.6 -20.95 75.05 -27.65 74.7 -30.4 L75.4 -30.5 76.5 -29.95 76.2 -30.55 Q75.7 -31.5 75.6 -32.65 L75.35 -35.35 75.2 -35.95 75.15 -36.45 74.9 -38.35 Q73.35 -42.5 72.85 -45.65 L72.75 -45.15 M75.8 -41.85 Q76.5 -42.9 76.75 -44.5 77.0 -46.5 76.4 -49.5 77.0 -46.5 76.75 -44.5 76.5 -42.9 75.8 -41.85 75.75 -41.45 75.85 -41.1 76.0 -39.7 77.8 -40.3 77.05 -40.65 76.45 -41.1 L75.8 -41.85 M85.05 -42.75 Q87.6 -42.25 89.5 -43.15 89.0 -49.75 84.05 -49.9 82.65 -47.45 82.35 -43.6 83.65 -43.05 84.85 -42.8 L85.05 -42.75 M84.35 -33.9 L81.2 -34.7 81.0 -34.75 Q78.5 -35.65 76.85 -36.9 78.5 -35.65 81.0 -34.75 L81.2 -34.7 84.35 -33.9 M65.05 44.4 L66.3 44.65 65.65 47.8 65.05 44.4" fill="#ffdfc8" fill-rule="evenodd" stroke="none"/>
    <path d="M74.25 -52.6 L75.9 -52.3 76.0 -52.0 Q76.4 -51.15 76.35 -49.95 76.3 -48.75 75.85 -47.85 75.35 -47.0 74.7 -46.95 L74.45 -47.0 Q74.0 -47.2 73.7 -47.8 L73.7 -47.85 Q73.3 -48.75 73.35 -49.95 73.4 -51.15 73.85 -52.0 L74.25 -52.6 M75.85 -50.75 L75.9 -51.2 75.75 -51.8 75.15 -52.15 74.6 -51.8 74.45 -51.45 74.2 -51.25 73.85 -50.0 Q73.8 -49.25 74.1 -48.7 74.35 -48.15 74.75 -48.15 75.2 -48.15 75.5 -48.7 L75.85 -49.95 75.85 -50.75 M84.85 -42.8 Q84.25 -42.95 83.9 -43.65 83.35 -44.65 83.45 -46.05 83.5 -47.45 84.1 -48.4 84.7 -49.4 85.5 -49.4 86.35 -49.4 86.9 -48.4 87.4 -47.45 87.3 -46.05 87.25 -44.65 86.7 -43.65 86.05 -42.7 85.25 -42.75 L85.05 -42.75 84.85 -42.8 M84.8 -47.8 L84.5 -47.45 Q84.1 -46.9 84.05 -46.1 84.0 -45.25 84.4 -44.6 84.75 -44.0 85.3 -44.05 L86.25 -44.6 Q86.65 -45.2 86.7 -46.05 L86.65 -46.85 86.8 -47.35 86.45 -48.1 85.75 -48.35 Q85.3 -48.4 85.0 -48.1 L84.8 -47.8" fill="#0099ff" fill-rule="evenodd" stroke="none"/>
    <path d="M75.85 -50.75 L75.85 -49.95 75.5 -48.7 Q75.2 -48.15 74.75 -48.15 74.35 -48.15 74.1 -48.7 73.8 -49.25 73.85 -50.0 L74.2 -51.25 74.45 -51.45 74.3 -51.2 Q74.25 -50.75 74.5 -50.45 74.75 -50.15 75.1 -50.15 75.4 -50.15 75.65 -50.45 L75.75 -50.6 75.85 -50.75 M86.65 -46.85 L86.7 -46.05 Q86.65 -45.2 86.25 -44.6 L85.3 -44.05 Q84.75 -44.0 84.4 -44.6 84.0 -45.25 84.05 -46.1 84.1 -46.9 84.5 -47.45 L84.8 -47.8 84.6 -47.35 Q84.6 -46.9 84.95 -46.55 85.25 -46.3 85.7 -46.3 L86.4 -46.55 86.65 -46.85" fill="#000000" fill-rule="evenodd" stroke="none"/>
    <path d="M74.4 -35.55 Q70.65 -36.55 70.15 -41.0 72.2 -43.3 72.75 -45.15 L72.85 -45.65 Q73.35 -42.5 74.9 -38.35 L75.15 -36.45 75.2 -35.95 75.35 -35.35 74.4 -35.55" fill="#6c7280" fill-rule="evenodd" stroke="none"/>
    <path d="M62.8 64.75 L54.5 66.1 60.5 59.25 62.55 57.5 62.8 57.25 64.1 56.35 63.8 58.25 62.8 64.75 M96.75 -39.2 L95.55 -38.35 96.8 -40.55 96.75 -39.2 M93.9 -35.65 L93.95 -34.4 94.9 -33.25 93.1 -30.5 92.95 -30.3 Q94.8 -30.5 96.5 -31.7 98.5 -30.45 101.9 -33.35 101.75 -29.95 102.15 -28.6 100.3 -28.3 96.75 -26.3 L81.4 -26.25 80.55 -27.95 83.1 -27.85 Q89.85 -29.05 93.4 -34.85 L93.9 -35.65 M75.8 -41.85 L76.45 -41.1 Q77.05 -40.65 77.8 -40.3 76.0 -39.7 75.85 -41.1 75.75 -41.45 75.8 -41.85 M76.2 -30.55 L76.5 -29.95 75.4 -30.5 76.2 -30.55 M95.3 -49.6 L94.85 -48.65 94.65 -49.4 95.3 -49.6 M83.1 -27.85 Q88.2 -28.15 93.1 -30.5 88.2 -28.15 83.1 -27.85 M62.8 57.25 L63.8 58.25 62.8 57.25" fill="#ffd0ae" fill-rule="evenodd" stroke="none"/>
    <path d="M116.9 -19.4 Q119.25 -19.2 121.85 -17.5 126.85 -14.4 130.05 -8.1 L131.15 -5.85 Q132.05 -3.5 132.55 -1.15 L132.9 0.95 134.15 5.95 Q134.85 8.4 135.7 10.45 L133.35 12.4 Q128.8 15.25 121.35 15.05 L119.15 14.9 118.35 12.7 117.35 9.9 116.45 7.5 117.8 8.75 118.7 9.45 119.4 9.95 119.45 9.95 120.05 10.45 120.45 10.75 122.1 11.6 122.15 11.7 122.2 11.6 122.9 11.9 124.6 12.4 125.7 12.45 Q127.2 12.45 128.6 11.75 129.8 11.15 130.7 10.15 L131.35 9.25 131.6 8.85 131.85 8.35 132.1 7.9 132.25 7.55 132.3 7.3 132.9 4.1 132.95 2.65 Q132.5 4.2 131.4 5.35 L130.25 6.3 130.0 6.4 129.65 6.65 129.1 6.85 128.9 7.05 128.6 7.15 Q126.85 7.4 125.1 7.1 L122.9 6.5 121.4 5.75 120.8 5.4 Q118.35 3.8 116.1 1.0 L114.5 -1.25 Q112.8 -3.6 111.2 -6.7 L109.6 -10.15 109.2 -11.05 109.1 -11.45 109.05 -11.05 Q108.85 -8.3 109.6 -5.4 110.3 -2.3 111.95 0.9 L112.1 1.2 Q113.45 3.85 115.15 5.95 L113.9 10.35 Q98.25 14.25 85.85 9.3 84.75 2.65 85.2 -4.1 85.4 -8.2 86.2 -12.35 94.3 -14.65 103.85 -19.95 L103.9 -20.05 105.35 -19.45 105.45 -19.45 108.8 -17.95 109.85 -17.45 110.2 -17.2 110.9 -16.8 111.4 -17.35 111.4 -17.55 111.45 -17.5 113.1 -18.65 113.35 -18.85 114.5 -19.25 116.9 -19.4 M55.3 -1.85 L56.25 -5.95 57.0 -10.55 57.05 -12.5 Q57.3 -14.6 57.95 -16.75 L58.7 -18.85 Q61.0 -24.7 65.25 -27.8 67.05 -29.15 68.8 -29.65 L69.05 -30.05 72.05 -31.1 73.65 -31.45 73.65 -31.05 73.65 -30.8 73.5 -30.1 Q72.8 -27.2 73.4 -23.15 74.15 -18.6 76.8 -15.7 79.35 -12.8 78.6 -7.4 78.4 -6.4 78.35 -5.2 78.0 -0.2 79.15 7.85 73.7 8.45 69.15 5.2 L67.8 4.15 67.35 1.4 Q60.95 1.8 56.9 -0.7 L55.3 -1.85 M73.6 -31.0 L73.65 -31.05 73.6 -31.05 73.6 -31.0 M57.05 -9.0 L57.3 -7.7 57.8 -5.65 58.1 -4.9 58.2 -4.7 58.55 -4.0 58.9 -3.55 59.15 -3.25 59.8 -2.45 Q60.65 -1.6 61.85 -1.1 L64.6 -0.7 65.55 -0.85 66.6 -1.25 66.4 -1.95 66.3 -2.4 66.15 -2.65 64.85 -5.55 64.6 -5.5 61.45 -5.3 61.15 -5.35 60.95 -5.5 60.45 -5.65 60.1 -5.85 59.85 -5.95 Q58.8 -6.55 58.05 -7.3 57.4 -8.05 57.05 -9.0 L57.0 -10.55 57.05 -9.0 M65.1 -22.05 Q63.9 -19.0 63.6 -15.95 63.2 -12.6 63.85 -9.2 64.2 -7.4 64.85 -5.55 64.2 -7.4 63.85 -9.2 63.2 -12.6 63.6 -15.95 63.9 -19.0 65.1 -22.05 M67.35 1.4 L66.6 -1.25 67.35 1.4 M132.9 0.95 L132.95 2.65 132.9 0.95" fill="#a28fb1" fill-rule="evenodd" stroke="none"/>
    <path d="M105.25 -37.4 Q108.35 -36.5 108.3 -35.35 108.3 -35.0 107.95 -34.6 L106.35 -32.0 Q105.35 -30.5 102.8 -28.3 L102.6 -28.35 102.6 -28.15 102.5 -28.1 102.4 -28.1 102.15 -28.6 Q101.75 -29.95 101.9 -33.35 102.7 -34.0 103.55 -34.9 L105.25 -37.4 M74.3 -35.25 L74.4 -35.35 74.4 -35.55 75.35 -35.35 75.6 -32.65 Q75.7 -31.5 76.2 -30.55 L75.4 -30.5 74.7 -30.4 74.65 -30.8 74.6 -31.25 74.6 -31.55 74.5 -33.25 74.45 -33.8 74.3 -35.25" fill="#2f553f" fill-rule="evenodd" stroke="none"/>
    <path d="M108.3 -35.35 Q110.8 -29.7 110.15 -24.95 L110.0 -24.05 109.85 -23.65 109.65 -23.5 109.5 -23.4 109.15 -23.15 Q106.65 -21.5 103.75 -20.2 L103.75 -20.15 103.8 -20.05 103.85 -19.95 Q94.3 -14.65 86.2 -12.35 85.4 -8.2 85.2 -4.1 84.75 2.65 85.85 9.3 98.25 14.25 113.9 10.35 L112.95 12.7 112.5 13.85 98.25 15.25 93.9 15.25 84.1 14.15 83.3 13.9 Q82.0 13.45 81.45 11.75 81.2 13.3 80.6 13.3 L80.4 13.25 75.55 11.5 73.05 10.3 Q70.35 8.95 68.0 7.2 L67.9 5.6 67.8 4.15 67.9 5.6 67.05 5.8 63.3 6.35 58.55 5.7 57.3 5.2 57.4 4.75 57.2 5.15 55.95 4.45 Q54.7 3.75 53.55 2.75 L53.9 2.0 Q54.7 0.35 55.3 -1.85 L56.9 -0.7 Q60.95 1.8 67.35 1.4 L67.8 4.15 69.15 5.2 Q73.7 8.45 79.15 7.85 78.0 -0.2 78.35 -5.2 78.4 -6.4 78.6 -7.4 79.35 -12.8 76.8 -15.7 74.15 -18.6 73.4 -23.15 72.8 -27.2 73.5 -30.1 L73.65 -30.8 73.65 -31.05 73.65 -31.45 Q73.2 -32.95 73.8 -34.35 L74.3 -35.25 74.45 -33.8 74.5 -33.25 74.55 -31.55 74.55 -31.25 74.55 -30.85 74.55 -30.4 74.7 -30.4 Q75.05 -27.65 78.6 -20.95 82.15 -14.35 81.35 -11.6 L81.3 -11.6 Q80.85 -8.1 80.7 -4.75 80.2 4.0 81.45 11.7 L81.45 11.75 81.45 11.7 Q80.2 4.0 80.7 -4.75 80.85 -8.1 81.3 -11.6 L81.35 -11.6 Q82.75 -15.9 86.75 -17.75 90.8 -19.6 96.15 -23.2 L98.5 -24.95 102.5 -28.05 102.6 -28.15 102.8 -28.3 Q105.35 -30.5 106.35 -32.0 L107.95 -34.6 Q108.3 -35.0 108.3 -35.35 M135.7 10.45 Q136.6 12.8 137.6 14.6 L138.1 15.4 Q136.65 17.0 134.9 18.05 L134.4 18.35 134.1 17.9 134.35 18.35 132.95 19.1 Q130.55 20.05 127.8 20.15 L123.15 19.75 120.75 19.15 119.15 14.9 121.35 15.05 Q128.8 15.25 133.35 12.4 L135.7 10.45" fill="#ffffcc" fill-rule="evenodd" stroke="none"/>
    <path d="M74.5 -33.25 L74.6 -31.55 74.6 -31.25 74.65 -30.8 74.7 -30.4 74.55 -30.4 74.55 -30.85 74.55 -31.25 74.55 -31.55 74.5 -33.25 M102.6 -28.15 L102.5 -28.05 102.4 -28.1 102.5 -28.1 102.6 -28.15" fill="#674743" fill-rule="evenodd" stroke="none"/>
    <path d="M73.6 -31.05 L73.65 -31.05 73.6 -31.0 73.6 -31.05 M103.8 -20.05 L103.75 -20.15 103.8 -20.15 103.8 -20.05" fill="#c1a49d" fill-rule="evenodd" stroke="none"/>
    <path d="M59.25 -26.95 L59.35 -26.95 59.25 -26.75 59.25 -26.95 M128.55 -16.8 L128.45 -17.0 128.55 -17.0 128.55 -16.8" fill="#bec5d8" fill-rule="evenodd" stroke="none"/>
    <path d="M110.0 -24.05 Q111.6 -23.3 113.25 -22.2 L116.9 -19.4 114.5 -19.25 113.35 -18.85 113.1 -18.65 111.45 -17.5 111.4 -17.55 111.4 -17.35 110.9 -16.8 110.2 -17.2 109.85 -17.45 108.8 -17.95 105.45 -19.45 105.35 -19.45 103.9 -20.05 103.8 -20.15 103.75 -20.2 Q106.65 -21.5 109.15 -23.15 L109.5 -23.4 109.65 -23.5 109.85 -23.65 110.0 -24.05 M58.55 -4.0 L58.2 -4.7 58.1 -4.9 57.8 -5.65 57.3 -7.7 57.05 -9.0 Q57.4 -8.05 58.05 -7.3 58.8 -6.55 59.85 -5.95 L60.1 -5.85 60.45 -5.65 60.95 -5.5 61.15 -5.35 61.45 -5.3 64.6 -5.5 64.85 -5.55 66.15 -2.65 66.3 -2.4 66.4 -1.95 66.6 -1.25 65.55 -0.85 64.6 -0.7 61.85 -1.1 Q60.65 -1.6 59.8 -2.45 L59.15 -3.25 58.9 -3.55 58.55 -4.0 M110.75 -22.85 L110.75 -22.7 110.85 -22.75 110.75 -22.85 M109.05 -11.05 L109.2 -11.05 109.6 -10.15 111.2 -6.7 Q112.8 -3.6 114.5 -1.25 L116.1 1.0 Q118.35 3.8 120.8 5.4 L121.4 5.75 122.9 6.5 125.1 7.1 Q126.85 7.4 128.6 7.15 L128.9 7.05 129.1 6.85 129.65 6.65 130.0 6.4 130.25 6.3 131.4 5.35 Q132.5 4.2 132.95 2.65 L132.9 4.1 132.3 7.3 132.25 7.55 132.1 7.9 131.85 8.35 131.6 8.85 131.35 9.25 130.7 10.15 Q129.8 11.15 128.6 11.75 127.2 12.45 125.7 12.45 L124.6 12.4 122.9 11.9 122.2 11.6 122.1 11.6 120.45 10.75 120.05 10.45 119.45 9.95 119.4 9.95 118.7 9.45 117.8 8.75 116.45 7.5 117.35 9.9 113.9 10.35 115.15 5.95 Q113.45 3.85 112.1 1.2 L111.95 0.9 Q110.3 -2.3 109.6 -5.4 108.85 -8.3 109.05 -11.05 M116.45 7.5 L115.15 5.95 116.45 7.5" fill="#7d6792" fill-rule="evenodd" stroke="none"/>
    <path d="M110.55 -53.1 Q112.5 -47.95 106.85 -41.95 L107.4 -46.55 107.35 -51.95 109.55 -52.2 Q110.25 -52.45 110.55 -53.1 M98.25 -54.45 L98.25 -44.35 Q98.45 -41.95 98.15 -40.95 97.85 -39.95 96.75 -39.2 L96.8 -40.55 96.8 -41.5 94.95 -48.2 94.8 -48.55 94.85 -48.65 95.3 -49.6 Q96.5 -52.2 96.9 -54.15 L98.25 -54.45 M94.9 -33.25 L95.85 -32.2 96.5 -31.7 Q94.8 -30.5 92.95 -30.3 L93.1 -30.5 94.9 -33.25 M84.05 -52.3 L89.9 -53.05 89.95 -53.05 91.8 -52.0 91.6 -52.1 91.75 -51.95 87.55 -52.35 82.65 -50.95 82.55 -50.9 84.05 -52.3 M91.6 -52.1 L89.9 -53.05 91.6 -52.1" fill="#9b5e5e" fill-rule="evenodd" stroke="none"/>
    <path d="M110.75 -22.85 L110.85 -22.75 110.75 -22.7 110.75 -22.85" fill="#52946d" fill-rule="evenodd" stroke="none"/>
    <path d="M103.75 -20.15 L103.75 -20.2 103.8 -20.15 103.75 -20.15" fill="#b48f87" fill-rule="evenodd" stroke="none"/>
    <path d="M103.85 -19.95 L103.8 -20.05 103.8 -20.15 103.9 -20.05 103.85 -19.95 M77.9 35.75 L77.85 35.75 77.85 34.45 77.9 35.75" fill="#d2c0b7" fill-rule="evenodd" stroke="none"/>
    <path d="M109.2 -11.05 L109.05 -11.05 109.1 -11.45 109.2 -11.05" fill="#f2f2f2" fill-rule="evenodd" stroke="none"/>
    <path d="M122.1 11.6 L122.2 11.6 122.15 11.7 122.1 11.6" fill="#deddb1" fill-rule="evenodd" stroke="none"/>
    <path d="M134.9 18.05 L135.4 19.75 Q130.55 23.3 124.15 22.35 L123.15 19.75 127.8 20.15 Q130.55 20.05 132.95 19.1 L134.35 18.35 134.4 18.35 134.9 18.05 M55.8 5.2 L55.95 4.45 57.2 5.15 57.3 5.2 58.55 5.7 63.3 6.35 67.05 5.8 66.75 7.1 Q60.65 8.5 55.8 5.2 M118.4 12.95 L117.85 14.05 Q116.5 17.5 114.95 20.45 L114.45 21.4 114.45 21.5 Q111.1 23.4 107.7 22.95 L108.45 21.85 Q110.8 18.05 112.5 13.85 L118.3 12.95 118.4 12.95 M114.2 26.3 L113.85 33.15 Q112.55 34.65 110.7 35.8 108.55 37.3 104.7 38.0 106.55 36.7 107.9 33.6 L107.0 27.25 Q111.4 28.4 114.2 26.3 M126.35 27.9 L126.3 27.85 126.35 27.8 126.35 27.9 M65.1 12.95 L65.1 13.0 65.05 12.9 65.1 12.95" fill="#cccccc" fill-rule="evenodd" stroke="none"/>
    <path d="M134.4 18.35 L134.35 18.35 134.1 17.9 134.4 18.35 M57.3 5.2 L57.2 5.15 57.4 4.75 57.3 5.2" fill="#a5bafe" fill-rule="evenodd" stroke="none"/>
    <path d="M135.4 19.75 L136.35 23.05 Q127.9 22.7 126.35 27.8 L126.3 27.85 124.15 22.35 Q130.55 23.3 135.4 19.75 M55.15 8.65 L55.8 5.2 Q60.65 8.5 66.75 7.1 L65.1 12.95 65.05 12.9 Q63.2 7.7 55.15 8.65 M114.45 21.5 L114.2 26.3 Q111.4 28.4 107.0 27.25 L106.6 24.55 106.65 24.4 107.5 23.25 107.7 22.95 Q111.1 23.4 114.45 21.5" fill="#62402f" fill-rule="evenodd" stroke="none"/>
    <path d="M136.35 23.05 L136.95 25.2 136.05 26.0 Q132.9 28.5 128.5 28.15 L126.35 27.8 Q127.9 22.7 136.35 23.05 M104.4 71.2 L100.55 71.2 100.6 37.2 104.45 37.25 104.45 38.05 104.45 40.45 104.4 71.2 M70.9 71.2 L67.3 71.2 69.5 36.8 70.4 36.8 73.35 36.85 70.9 71.2 M54.75 10.9 L55.15 8.65 Q63.2 7.7 65.05 12.9 L62.9 13.4 Q58.35 14.1 55.1 11.2 L54.75 10.9 M73.05 10.3 L75.55 11.5 75.55 14.75 75.6 15.4 75.55 18.9 75.6 19.7 75.6 34.65 72.85 33.05 72.85 20.95 72.95 16.4 72.85 20.95 Q68.95 22.25 66.8 20.35 L66.8 18.8 66.8 18.3 66.85 17.85 66.95 15.75 Q69.85 17.05 72.95 16.4 L73.05 10.3 M107.7 22.95 L107.5 23.25 106.65 24.4 106.6 24.55 107.0 27.25 Q103.3 26.3 98.25 22.95 L98.15 17.35 98.25 22.95 98.25 37.15 93.9 37.1 93.9 15.25 98.25 15.25 98.15 17.35 Q103.05 22.35 107.7 22.95 M88.7 37.0 L77.85 36.9 77.9 35.75 77.85 34.45 77.85 34.0 88.7 36.35 88.7 37.0" fill="#855b3f" fill-rule="evenodd" stroke="none"/>
    <path d="M118.35 12.7 L118.3 12.9 118.3 12.95 112.5 13.85 112.95 12.7 113.9 10.35 117.35 9.9 118.35 12.7" fill="#fefd85" fill-rule="evenodd" stroke="none"/>
    <path d="M118.3 12.9 L118.4 12.95 118.3 12.95 118.3 12.9" fill="#bda097" fill-rule="evenodd" stroke="none"/>
    <path d="M100.55 71.2 L83.75 71.2 70.9 71.2 73.35 36.85 77.85 36.9 88.7 37.0 93.9 37.1 98.25 37.15 100.6 37.2 100.55 71.2 M84.5 39.0 L83.75 71.2 84.5 39.0" fill="#ffff99" fill-rule="evenodd" stroke="none"/>
    <path d="M120.7 71.2 L113.25 71.2 112.85 68.0 111.85 60.15 111.75 59.2 111.5 57.8 111.05 54.8 109.4 44.05 108.8 40.25 111.75 39.45 112.4 39.1 112.95 38.9 116.4 52.25 119.85 67.1 120.7 71.2" fill="#ececec" fill-rule="evenodd" stroke="none"/>
    <path d="M110.7 35.8 Q112.05 37.35 112.4 39.1 L111.75 39.45 108.8 40.25 107.5 40.3 104.45 40.45 104.45 38.05 104.7 38.0 Q108.55 37.3 110.7 35.8" fill="#684942" fill-rule="evenodd" stroke="none"/>
    <path d="M77.85 36.9 L73.35 36.85 70.4 36.8 68.2 35.8 67.95 36.85 Q67.15 32.55 68.85 29.8 L69.1 29.35 69.55 28.8 69.75 29.35 69.9 29.75 Q70.3 30.65 71.1 31.45 L71.75 32.15 72.85 33.05 75.6 34.65 77.85 35.75 77.85 36.9 77.85 35.75 77.9 35.75 77.85 36.9" fill="#956c5e" fill-rule="evenodd" stroke="none"/>
    <path d="M108.65 -107.8 L108.65 -108.0 Q108.6 -109.05 107.15 -109.9 L105.8 -110.6 104.2 -111.1 Q99.95 -112.3 93.9 -112.25 87.75 -112.3 83.4 -111.1 80.95 -110.35 79.9 -109.4 L79.1 -108.35 79.1 -108.05 79.1 -107.75 79.35 -108.05 M108.65 -107.8 L108.7 -107.95 108.7 -107.8 110.75 -53.8 110.55 -53.1 M105.8 -38.65 L105.25 -37.4 M72.4 -53.15 L72.3 -53.2 72.2 -53.35 M71.4 -53.9 Q68.8 -55.95 71.25 -60.25 L71.25 -60.45 71.25 -60.75 71.4 -61.6 71.4 -61.75 72.3 -66.85 M73.2 -72.4 L74.7 -81.25 M75.6 -86.65 L79.35 -108.05 M98.25 -54.45 L98.25 -44.35 Q98.45 -41.95 98.15 -40.95 97.85 -39.95 96.75 -39.2 L95.55 -38.35 93.9 -35.65 93.95 -34.4 94.9 -33.25 95.85 -32.2 96.5 -31.7 Q98.5 -30.45 101.9 -33.35 102.7 -34.0 103.55 -34.9 L105.25 -37.4 M73.5 -52.75 L74.25 -52.6 75.9 -52.3 76.3 -52.25 Q79.4 -51.95 84.05 -52.3 L89.9 -53.05 89.95 -53.05 96.9 -54.15 98.25 -54.45 M73.5 -52.75 L72.4 -53.15 M106.85 -41.95 L107.4 -46.55 107.35 -51.95 109.55 -52.2 Q110.25 -52.45 110.55 -53.1" fill="none" stroke="#7d8193" stroke-linecap="round" stroke-linejoin="round" stroke-width="0.05"/>
    <path d="M74.4 -35.55 Q70.65 -36.55 70.15 -41.0 72.2 -43.3 72.75 -45.15 L72.85 -45.65 Q73.35 -42.5 74.9 -38.35 L75.15 -36.45 75.2 -35.95 75.35 -35.35 74.4 -35.55 M72.2 -53.35 Q71.7 -53.6 71.4 -53.9" fill="none" stroke="#912b5f" stroke-linecap="round" stroke-linejoin="round" stroke-width="0.05"/>
    <path d="M123.0 67.8 L121.2 71.2 M62.8 64.75 L54.5 66.1 54.35 66.1 54.25 64.8 52.85 63.45 52.35 53.95 M72.75 -45.15 L72.7 -45.45 Q72.05 -48.6 72.35 -51.9 L72.4 -53.15 M72.7 -50.3 L72.65 -49.9 72.7 -49.75 73.7 -47.8 Q74.0 -47.2 74.45 -47.0 L76.05 -45.95 Q76.4 -47.75 76.4 -49.5 L76.3 -52.25 M72.7 -50.3 Q73.0 -51.95 73.5 -52.75 M76.4 -49.5 Q77.0 -46.5 76.75 -44.5 76.5 -42.9 75.8 -41.85 M77.8 -40.3 Q76.0 -39.7 75.85 -41.1 75.75 -41.45 75.8 -41.85 M75.35 -35.35 L75.6 -32.65 Q75.7 -31.5 76.2 -30.55 L76.5 -29.95 Q77.7 -28.3 80.55 -27.95 L83.1 -27.85 M85.05 -42.75 Q87.6 -42.25 89.5 -43.15 89.0 -49.75 84.05 -49.9 82.65 -47.45 82.35 -43.6 83.65 -43.05 84.85 -42.8 L85.05 -42.75 M76.85 -36.9 Q78.5 -35.65 81.0 -34.75 L81.2 -34.7 84.35 -33.9 M93.1 -30.5 Q88.2 -28.15 83.1 -27.85 M65.05 44.4 L66.3 44.65 M63.8 58.25 L62.8 57.25 62.55 57.5" fill="none" stroke="#d7995e" stroke-linecap="round" stroke-linejoin="round" stroke-width="0.05"/>
    <path d="M108.3 -35.35 Q110.8 -29.7 110.15 -24.95 L110.0 -24.05 Q111.6 -23.3 113.25 -22.2 L116.9 -19.4 Q119.25 -19.2 121.85 -17.5 126.85 -14.4 130.05 -8.1 L131.15 -5.85 Q132.05 -3.5 132.55 -1.15 L132.9 0.95 134.15 5.95 Q134.85 8.4 135.7 10.45 136.6 12.8 137.6 14.6 L138.1 15.4 Q136.65 17.0 134.9 18.05 L134.4 18.35 134.35 18.35 132.95 19.1 Q130.55 20.05 127.8 20.15 L123.15 19.75 120.75 19.15 119.15 14.9 118.35 12.7 118.3 12.9 M55.95 4.45 Q54.7 3.75 53.55 2.75 L53.9 2.0 Q54.7 0.35 55.3 -1.85 L56.25 -5.95 57.0 -10.55 57.05 -12.5 Q57.3 -14.6 57.95 -16.75 L58.7 -18.85 Q61.0 -24.7 65.25 -27.8 67.05 -29.15 68.8 -29.65 M69.05 -30.05 L72.05 -31.1 73.65 -31.45 Q73.2 -32.95 73.8 -34.35 L74.3 -35.25 74.4 -35.35 M73.65 -31.45 L73.65 -31.05 73.65 -30.8 73.5 -30.1 Q72.8 -27.2 73.4 -23.15 74.15 -18.6 76.8 -15.7 79.35 -12.8 78.6 -7.4 78.4 -6.4 78.35 -5.2 78.0 -0.2 79.15 7.85 73.7 8.45 69.15 5.2 L67.8 4.15 67.9 5.6 68.0 7.2 Q70.35 8.95 73.05 10.3 L75.55 11.5 80.4 13.25 80.6 13.3 Q81.2 13.3 81.45 11.75 L81.45 11.7 Q80.2 4.0 80.7 -4.75 80.85 -8.1 81.3 -11.6 L81.35 -11.6 Q82.15 -14.35 78.6 -20.95 75.05 -27.65 74.7 -30.4 M74.3 -35.25 L74.45 -33.8 M58.55 -4.0 L58.2 -4.7 58.1 -4.9 57.8 -5.65 57.3 -7.7 57.05 -9.0 57.0 -10.55 M64.85 -5.55 Q64.2 -7.4 63.85 -9.2 63.2 -12.6 63.6 -15.95 63.9 -19.0 65.1 -22.05 M67.8 4.15 L67.35 1.4 Q60.95 1.8 56.9 -0.7 L55.3 -1.85 M66.3 -2.4 L66.4 -1.95 66.6 -1.25 67.35 1.4 M64.85 -5.55 L66.15 -2.65 M108.3 -35.35 Q108.3 -35.0 107.95 -34.6 L106.35 -32.0 Q105.35 -30.5 102.8 -28.3 L102.6 -28.15 102.5 -28.05 98.5 -24.95 96.15 -23.2 Q90.8 -19.6 86.75 -17.75 82.75 -15.9 81.35 -11.6 M113.9 10.35 Q98.25 14.25 85.85 9.3 84.75 2.65 85.2 -4.1 85.4 -8.2 86.2 -12.35 94.3 -14.65 103.85 -19.95 L103.8 -20.05 M103.75 -20.2 Q106.65 -21.5 109.15 -23.15 L109.5 -23.4 109.65 -23.5 109.85 -23.65 110.0 -24.05 M114.5 -19.25 L116.9 -19.4 M112.1 1.2 Q113.45 3.85 115.15 5.95 L116.45 7.5 117.8 8.75 118.7 9.45 119.4 9.95 119.45 9.95 120.05 10.45 M131.85 8.35 L132.1 7.9 132.25 7.55 132.3 7.3 132.9 4.1 132.95 2.65 132.9 0.95 M119.15 14.9 L121.35 15.05 Q128.8 15.25 133.35 12.4 L135.7 10.45 M126.3 27.85 L126.35 27.8 M116.45 7.5 L117.35 9.9 118.35 12.7 M117.35 9.9 L113.9 10.35 M112.5 13.85 L118.3 12.95 M98.15 17.35 L98.25 22.95 M98.15 17.35 L98.25 15.25 93.9 15.25 93.9 37.1 M98.25 37.15 L98.25 22.95 M81.45 11.75 Q82.0 13.45 83.3 13.9 L84.1 14.15 93.9 15.25 M98.25 15.25 L112.5 13.85 M67.05 5.8 L67.9 5.6 M57.3 5.2 L58.55 5.7 63.3 6.35 67.05 5.8 M65.1 12.95 L65.05 12.9 M72.95 16.4 L72.85 20.95 72.85 33.05 M75.6 34.65 L75.6 19.7 M75.55 18.9 L75.6 15.4 M75.55 14.75 L75.55 11.5 M72.95 16.4 L73.05 10.3 M57.3 5.2 L57.2 5.15 55.95 4.45" fill="none" stroke="#42374d" stroke-linecap="round" stroke-linejoin="round" stroke-width="0.05"/>
    <path d="M105.25 -37.4 Q108.35 -36.5 108.3 -35.35 M74.4 -35.35 L74.4 -35.55 M74.45 -33.8 L74.5 -33.25 74.6 -31.55 74.6 -31.25 74.65 -30.8 74.7 -30.4 M73.6 -31.0 L73.65 -31.05 73.6 -31.05 M118.4 12.95 L118.3 12.95" fill="none" stroke="#30543c" stroke-linecap="round" stroke-linejoin="round" stroke-width="0.05"/>
    <path d="M66.15 -2.65 L66.3 -2.4 M118.3 12.9 L118.4 12.95 117.85 14.05 Q116.5 17.5 114.95 20.45 M114.45 21.5 L114.2 26.3 113.85 33.15 Q112.55 34.65 110.7 35.8 M114.45 21.5 L114.45 21.4 114.95 20.45 M69.55 28.8 Q67.9 27.1 67.25 24.5 66.8 22.65 66.8 20.35 M66.8 18.8 L66.8 18.3 66.85 17.85 66.95 15.75 67.05 15.05 67.1 14.5 67.5 12.9 Q68.0 9.95 68.0 7.2" fill="none" stroke="#6a4e44" stroke-linecap="round" stroke-linejoin="round" stroke-width="0.05"/>
    <path d="M110.55 -53.1 Q112.5 -47.95 106.85 -41.95 M89.95 -53.05 L91.8 -52.0 91.6 -52.1 91.75 -51.95 87.55 -52.35 82.65 -50.95 82.55 -50.9 84.05 -52.3 M96.9 -54.15 Q96.5 -52.2 95.3 -49.6 L94.85 -48.65 94.8 -48.55 94.95 -48.2 96.8 -41.5 96.8 -40.55 96.75 -39.2 M89.9 -53.05 L91.6 -52.1 M93.1 -30.5 L94.9 -33.25 M96.5 -31.7 Q94.8 -30.5 92.95 -30.3 L93.1 -30.5" fill="none" stroke="#4b2e2e" stroke-linecap="round" stroke-linejoin="round" stroke-width="0.05"/>
    <path d="M106.85 -41.95 L105.8 -38.65 M134.9 18.05 L135.4 19.75 136.35 23.05 136.95 25.2 137.45 26.95 138.75 28.2 139.0 30.15 139.3 35.45 137.85 38.9 129.75 53.0 129.65 53.55 M129.5 53.6 L127.6 68.3 123.0 67.8 M52.35 53.95 L48.0 52.5 52.35 38.3 M52.15 38.25 L52.4 37.7 50.8 21.5 50.9 17.8 Q52.2 14.95 53.35 13.05 L54.45 11.45 54.7 11.35 54.75 10.9 55.15 8.65 55.8 5.2 55.95 4.45 M123.15 19.75 L124.15 22.35 M116.4 52.25 L122.65 43.15 M122.65 43.05 L123.7 39.55 Q124.7 34.5 126.45 31.15 L127.1 30.05 126.35 27.9 126.3 27.85 124.15 22.35 M127.1 30.05 L127.6 31.55 M119.85 67.1 L123.0 67.8 M67.05 5.8 L66.75 7.1 65.1 12.95 65.1 13.0 64.15 16.85 M64.1 16.85 L64.35 19.2 Q64.55 22.9 63.4 27.9 63.0 29.55 62.95 31.55 M62.85 31.7 L65.05 44.4 65.65 47.8 M54.7 11.35 L54.35 13.1 M64.7 52.65 Q60.8 56.25 52.35 53.95" fill="none" stroke="#999999" stroke-linecap="round" stroke-linejoin="round" stroke-width="0.05"/>
    <path d="M124.15 22.35 Q130.55 23.3 135.4 19.75 M114.95 20.45 Q115.0 21.15 114.45 21.5 M126.35 27.8 L128.5 28.15 Q132.9 28.5 136.05 26.0 L136.95 25.2 M107.7 22.95 Q111.1 23.4 114.45 21.5 M107.7 22.95 Q103.05 22.35 98.15 17.35 M98.25 22.95 Q103.3 26.3 107.0 27.25 111.4 28.4 114.2 26.3 M104.45 37.25 L104.45 38.05 104.45 40.45 104.4 71.2 M66.8 20.35 L66.8 18.8 M65.05 12.9 L62.9 13.4 Q58.35 14.1 55.1 11.2 L54.75 10.9 M75.6 19.7 L75.55 18.9 M75.6 15.4 L75.55 14.75 M66.95 15.75 Q69.85 17.05 72.95 16.4 M72.85 20.95 Q68.95 22.25 66.8 20.35 M55.8 5.2 Q60.65 8.5 66.75 7.1 M67.3 71.2 L69.5 36.8" fill="none" stroke="#4e3325" stroke-linecap="round" stroke-linejoin="round" stroke-width="0.05"/>
    <path d="M77.85 34.45 L77.85 34.0 88.7 36.35 88.7 37.0 M77.85 35.75 L77.85 36.9 M77.85 35.75 L77.85 34.45" fill="none" stroke="#493230" stroke-linecap="round" stroke-linejoin="round" stroke-width="0.05"/>
    <path d="M110.7 35.8 Q112.05 37.35 112.4 39.1 M104.45 38.05 L104.7 38.0 Q108.55 37.3 110.7 35.8 M67.95 36.85 Q67.15 32.55 68.85 29.8 L69.1 29.35 69.55 28.8 M72.85 33.05 L75.6 34.65 M72.85 33.05 L71.75 32.15 71.1 31.45 Q70.3 30.65 69.9 29.75 L69.75 29.35 69.55 28.8 M77.9 35.75 L77.85 35.75 75.6 34.65" fill="none" stroke="#674743" stroke-linecap="round" stroke-linejoin="round" stroke-width="0.05"/>
    <path d="M61.9 71.2 L62.8 64.75 M112.95 38.9 L116.4 52.25 M120.7 71.2 L119.85 67.1 116.4 52.25 M66.3 44.65 L67.95 36.85 M68.2 35.8 L67.95 36.85 M65.65 47.8 L66.3 44.65 M64.1 56.35 L64.7 52.65 M64.1 56.35 L63.8 58.25 62.8 64.75 M65.65 47.8 L65.15 50.25 64.7 52.65" fill="none" stroke="#cecece" stroke-linecap="round" stroke-linejoin="round" stroke-width="0.05"/>
    <path d="M73.35 36.85 L70.9 71.2 M100.55 71.2 L100.6 37.2 M83.75 71.2 L84.5 39.0" fill="none" stroke="#a36807" stroke-linecap="round" stroke-linejoin="round" stroke-width="0.05"/>
  </g>
</svg>
