<?xml version="1.0" encoding="UTF-8" standalone="no"?>
<svg xmlns:xlink="http://www.w3.org/1999/xlink" height="167.35px" width="122.0px" xmlns="http://www.w3.org/2000/svg">
  <g transform="matrix(1, 0, 0, 1, -36.7, 107.9)">
    <path d="M74.35 -77.3 L75.0 -78.45 Q80.15 -87.1 80.45 -95.05 80.7 -102.95 75.9 -105.55 71.1 -108.2 64.15 -104.05 62.45 -103.05 60.9 -101.8 57.8 -99.35 55.1 -95.9 56.85 -98.3 58.8 -100.25 61.65 -103.2 64.95 -105.15 72.1 -109.55 77.05 -106.85 81.95 -104.2 81.7 -96.0 81.4 -87.75 76.15 -78.75 L75.25 -77.25 74.25 -75.75 73.55 -76.1 74.35 -77.3 M82.7 -81.6 Q87.6 -85.55 92.6 -86.1 97.7 -86.65 101.55 -83.75 104.3 -89.3 108.7 -93.2 116.05 -99.6 123.8 -97.7 131.5 -95.8 135.15 -86.85 136.85 -82.75 137.25 -78.3 137.5 -75.25 137.15 -72.0 137.45 -76.75 136.4 -81.1 L135.0 -85.3 Q131.35 -94.0 123.8 -95.85 116.2 -97.7 109.1 -91.5 105.1 -87.9 102.6 -82.9 L105.0 -80.1 Q109.75 -73.25 111.7 -65.4 113.55 -57.55 108.8 -54.55 106.8 -52.45 104.9 -51.45 L104.6 -51.35 101.95 -50.65 94.85 -37.45 Q91.15 -34.35 87.0 -31.6 L85.35 -30.5 84.6 -30.75 81.55 -31.65 79.35 -32.3 77.65 -38.3 74.45 -49.7 Q71.45 -53.15 70.75 -56.05 L70.65 -56.1 70.75 -56.1 70.75 -56.05 70.75 -56.1 72.2 -55.9 72.3 -55.25 72.45 -55.25 74.45 -52.95 Q75.5 -52.1 76.4 -51.95 L76.75 -51.95 76.95 -51.95 Q75.95 -49.75 77.6 -47.95 L77.45 -47.95 77.3 -47.95 77.45 -47.9 77.45 -47.85 Q76.85 -45.35 77.3 -45.25 L76.75 -44.2 76.35 -43.2 77.75 -41.45 78.95 -36.15 Q79.55 -35.7 80.35 -35.4 L81.1 -35.2 84.9 -34.55 85.6 -34.55 86.2 -37.45 87.15 -38.05 87.75 -38.35 Q89.1 -39.1 90.55 -39.65 92.3 -44.05 94.4 -47.25 L94.95 -48.0 94.65 -48.0 94.35 -48.0 Q92.0 -48.25 89.85 -49.1 L89.85 -49.25 Q91.35 -49.3 93.05 -50.0 94.3 -50.7 94.5 -51.9 L94.5 -52.05 94.4 -52.25 Q93.35 -54.45 91.0 -55.8 L91.05 -55.95 Q94.5 -55.35 95.4 -52.3 L95.45 -52.2 95.4 -52.1 95.55 -51.65 95.6 -51.65 99.15 -51.85 99.45 -51.85 99.65 -51.85 100.55 -51.95 101.3 -52.25 Q102.0 -52.7 102.8 -53.7 106.7 -57.2 104.95 -62.35 103.2 -67.45 99.55 -74.45 L99.2 -72.8 99.0 -71.7 97.95 -72.0 98.2 -73.35 98.7 -75.75 98.75 -75.9 Q95.05 -82.1 89.85 -83.45 86.1 -84.2 82.7 -81.6 M107.8 -49.3 L108.0 -48.95 109.55 -45.35 Q112.75 -37.35 114.9 -26.15 L113.65 -25.35 Q111.75 -23.2 110.7 -21.05 L109.65 -20.4 109.1 -20.0 108.7 -19.65 106.55 -18.15 105.8 -17.65 105.5 -17.55 106.25 -21.75 Q108.05 -34.2 102.65 -41.2 L107.8 -49.3 M129.85 10.7 L127.95 15.2 127.6 15.45 116.35 7.85 Q117.45 6.0 118.35 3.75 120.45 13.55 129.85 10.7 M123.45 18.55 L121.35 20.15 121.05 20.35 111.4 13.4 113.3 11.85 123.45 18.55 M116.25 23.8 L116.15 23.95 121.05 28.2 Q118.0 30.45 115.0 31.6 115.25 29.15 114.95 26.75 110.85 27.25 108.1 28.35 L107.35 26.8 105.5 23.65 Q104.25 21.75 102.65 20.1 L102.4 19.9 Q100.8 18.4 98.9 17.2 L97.7 16.5 99.1 16.55 103.5 16.45 105.15 16.1 116.25 23.8 M120.75 50.3 L121.15 51.45 Q119.7 52.95 118.5 54.8 115.15 56.75 112.8 58.85 L112.15 59.45 104.95 59.45 Q111.35 53.75 120.75 50.3 M74.05 26.25 Q71.75 25.05 70.25 23.1 L73.6 18.55 73.0 17.55 74.7 13.65 77.9 13.85 77.75 14.15 Q77.4 15.75 77.45 17.8 77.4 21.45 78.65 26.3 L78.95 27.45 78.8 27.75 78.65 27.75 Q77.5 24.85 74.05 24.75 L74.05 26.25 M70.45 13.7 L68.95 11.55 68.95 11.5 68.7 11.15 66.3 7.45 Q67.55 9.2 68.95 10.5 L69.2 10.75 71.4 12.3 70.45 13.7 M105.65 -14.85 L104.85 -14.2 103.05 -13.05 98.8 -10.65 Q97.1 -9.75 95.45 -9.1 L91.95 -7.85 88.9 -7.1 Q79.9 -5.9 75.6 -14.0 L75.4 -14.25 74.15 -17.0 74.3 -19.85 75.2 -17.85 Q76.55 -14.95 78.45 -13.1 81.75 -9.85 86.75 -9.9 L90.0 -10.15 Q92.6 -10.65 95.65 -11.9 L96.5 -12.3 103.15 -15.9 104.55 -16.8 104.95 -17.1 105.45 -17.3 105.5 -17.3 105.65 -14.85 M99.55 -74.45 L99.6 -74.6 Q100.65 -79.15 102.6 -82.9 100.65 -79.15 99.6 -74.6 L99.55 -74.45 M101.55 -83.75 Q99.8 -80.2 98.75 -75.9 99.8 -80.2 101.55 -83.75 M106.25 -40.7 Q108.8 -43.65 109.55 -45.35 108.8 -43.65 106.25 -40.7" fill="#294876" fill-rule="evenodd" stroke="none"/>
    <path d="M75.75 -76.8 L76.35 -75.45 76.5 -75.15 Q76.9 -74.0 76.7 -73.05 76.5 -71.9 74.95 -69.8 73.7 -68.1 73.15 -68.95 L72.95 -69.5 Q72.45 -71.3 72.25 -72.95 L72.0 -75.5 Q72.2 -75.2 72.75 -75.05 L74.15 -75.35 75.35 -76.15 75.75 -76.8 M79.2 -54.3 L79.25 -54.25 79.2 -54.15 79.2 -54.25 79.2 -54.3 M100.1 -70.9 L99.3 -69.55 96.9 -65.7 Q95.25 -63.05 94.95 -64.9 94.55 -66.75 94.8 -68.65 95.05 -70.55 95.85 -71.8 96.35 -72.55 96.95 -73.1 96.8 -72.8 97.05 -72.3 L98.0 -71.3 Q98.65 -70.9 99.3 -70.85 L100.1 -70.9 M105.65 -14.85 L105.5 -17.3 105.5 -17.4 105.8 -17.65 106.55 -18.15 108.7 -19.65 109.1 -20.0 109.65 -20.4 110.7 -21.05 110.3 -20.25 110.0 -19.65 109.35 -17.35 107.4 -16.0 107.2 -15.85 105.65 -14.85" fill="#234061" fill-rule="evenodd" stroke="none"/>
    <path d="M74.35 -77.3 L73.55 -76.1 74.25 -75.75 75.25 -77.25 75.75 -76.8 75.35 -76.15 74.15 -75.35 72.75 -75.05 Q72.2 -75.2 72.0 -75.5 L72.05 -75.8 72.45 -76.35 73.5 -77.1 74.35 -77.3 M76.5 -75.15 L77.6 -76.6 Q80.15 -79.55 82.7 -81.6 86.1 -84.2 89.85 -83.45 95.05 -82.1 98.75 -75.9 L98.7 -75.75 98.2 -73.35 97.85 -73.4 97.3 -73.35 96.95 -73.1 97.3 -73.35 97.85 -73.4 98.2 -73.35 97.95 -72.0 99.0 -71.7 99.2 -72.8 99.55 -74.45 Q103.2 -67.45 104.95 -62.35 106.7 -57.2 102.8 -53.7 102.0 -52.7 101.3 -52.25 L100.55 -51.95 99.65 -51.85 99.45 -51.85 99.15 -51.85 95.6 -51.65 95.55 -51.65 95.4 -52.1 95.45 -52.2 95.4 -52.3 Q94.5 -55.35 91.05 -55.95 L90.5 -56.0 86.95 -55.55 86.25 -55.25 Q84.8 -54.6 83.4 -53.4 L83.25 -53.4 Q80.15 -53.25 79.25 -54.25 L79.2 -54.3 79.1 -54.35 78.8 -54.9 Q76.65 -58.5 74.4 -58.85 72.9 -59.15 72.5 -57.85 72.2 -57.1 72.2 -55.9 L70.75 -56.1 Q70.6 -60.8 73.05 -63.25 72.55 -66.35 73.15 -68.95 73.7 -68.1 74.95 -69.8 76.5 -71.9 76.7 -73.05 76.9 -74.0 76.5 -75.15 M129.5 -20.35 L131.0 -22.4 Q143.6 -14.25 145.35 1.5 L145.8 2.35 148.35 8.2 Q152.45 18.15 153.8 25.55 L153.7 25.6 153.55 25.85 Q150.65 29.2 146.35 29.9 L145.95 29.45 144.7 28.15 145.95 29.45 Q149.6 35.4 155.6 30.9 L155.8 31.5 Q156.5 34.65 156.9 39.0 L157.8 49.85 158.3 55.25 Q157.15 57.95 155.7 59.45 L151.45 59.45 Q148.95 52.35 147.3 48.6 L143.4 44.5 Q140.75 41.85 143.0 32.55 143.6 30.0 144.65 28.25 L144.7 28.15 Q134.4 17.25 130.25 9.8 L130.15 9.65 129.45 8.4 Q119.25 -1.15 126.9 -15.85 L129.5 -20.35 M116.75 46.55 Q117.15 46.35 117.5 46.2 119.55 47.05 120.75 50.3 111.35 53.75 104.95 59.45 L87.85 59.45 92.3 56.0 84.7 58.05 78.95 53.3 83.3 59.45 81.0 59.45 80.45 59.05 80.75 59.45 77.55 59.45 77.3 58.9 74.3 50.95 74.15 50.85 Q73.55 48.95 70.4 46.2 71.85 43.85 74.0 43.15 73.9 44.4 73.95 45.85 76.45 50.05 84.6 55.0 L86.65 55.2 90.95 55.3 95.0 54.65 98.4 53.65 104.9 51.85 Q110.55 50.3 116.7 46.7 L116.75 46.55 M121.15 51.45 Q122.7 49.9 124.5 48.75 126.6 51.45 128.55 59.45 L116.1 59.45 Q117.15 56.9 118.5 54.8 119.7 52.95 121.15 51.45 M68.7 11.15 Q66.0 19.4 60.05 31.15 L59.75 31.7 60.15 31.3 60.4 31.75 Q61.0 33.2 61.0 35.25 61.15 42.55 57.9 44.25 54.6 45.9 53.0 46.8 50.2 49.75 45.3 55.75 41.6 54.95 40.4 50.35 L42.15 46.35 45.55 38.25 Q46.95 35.0 48.4 32.75 L48.7 32.3 Q53.65 36.45 58.7 32.6 54.75 32.95 51.55 30.35 L51.5 30.35 51.45 29.1 Q51.3 21.45 52.85 10.75 54.15 1.75 56.25 -4.95 L56.7 -6.35 Q56.5 -20.0 66.65 -28.85 70.7 -24.8 72.95 -20.95 L74.4 -22.15 74.45 -22.2 74.4 -22.25 77.65 -38.3 79.35 -32.3 81.55 -31.65 81.6 -31.5 Q81.75 -30.1 82.5 -28.9 L84.25 -26.4 Q86.85 -27.3 89.1 -28.5 92.15 -30.2 94.3 -32.55 95.4 -33.85 97.75 -35.8 L100.9 -39.0 102.65 -41.2 Q108.05 -34.2 106.25 -21.75 L105.5 -17.55 105.5 -17.4 105.5 -17.3 105.45 -17.3 104.95 -17.1 104.55 -16.8 103.15 -15.9 96.5 -12.3 95.65 -11.9 Q92.6 -10.65 90.0 -10.15 L86.75 -9.9 Q81.75 -9.85 78.45 -13.1 76.55 -14.95 75.2 -17.85 L74.3 -19.85 74.4 -22.15 74.3 -19.85 74.15 -17.0 75.4 -14.25 75.6 -14.0 Q79.9 -5.9 88.9 -7.1 L91.95 -7.85 95.45 -9.1 Q97.1 -9.75 98.8 -10.65 L103.05 -13.05 104.85 -14.2 105.65 -14.85 107.2 -15.85 107.4 -16.0 109.35 -17.35 Q108.45 -12.9 110.75 -8.3 111.2 -13.2 113.7 -15.6 L113.75 -15.65 115.65 -17.65 117.15 -20.05 Q117.85 -18.7 119.5 -17.75 L119.1 -16.4 Q116.05 -5.6 118.35 3.75 117.45 6.0 116.35 7.85 L107.35 1.95 113.3 11.85 111.4 13.4 111.3 13.45 99.25 5.3 105.15 16.1 103.5 16.45 99.1 16.55 97.7 16.5 97.45 16.4 Q91.25 13.7 86.3 13.2 81.75 12.65 78.3 13.85 L77.9 13.85 74.7 13.65 77.25 3.5 71.4 12.3 69.2 10.75 71.65 2.4 66.25 7.0 66.15 6.4 66.15 6.3 65.9 4.6 65.8 3.75 65.8 3.7 Q65.5 0.5 65.75 -2.5 L65.75 -3.2 Q65.95 -6.05 66.65 -8.75 L67.7 -12.65 Q69.85 -18.15 72.95 -20.95 69.85 -18.15 67.7 -12.65 L66.65 -8.75 Q65.95 -6.05 65.75 -3.2 L65.75 -2.5 Q65.5 0.5 65.8 3.7 L65.8 3.75 65.9 4.6 66.15 6.3 66.15 6.4 66.25 7.0 66.3 7.45 68.7 11.15 M70.65 -56.1 L70.65 -56.15 70.75 -56.1 70.65 -56.1 M79.05 -66.9 L79.85 -63.65 83.9 -62.8 86.1 -64.9 84.85 -68.4 80.4 -68.9 79.05 -66.9 M79.0 -62.8 L78.15 -66.05 76.05 -62.8 78.5 -59.15 Q77.7 -62.15 79.0 -62.8 M100.1 -70.9 L100.2 -71.85 100.2 -71.9 99.2 -72.8 100.2 -71.9 100.2 -71.85 100.1 -70.9 99.3 -70.85 Q98.65 -70.9 98.0 -71.3 L97.05 -72.3 Q96.8 -72.8 96.95 -73.1 96.35 -72.55 95.85 -71.8 95.05 -70.55 94.8 -68.65 94.55 -66.75 94.95 -64.9 95.25 -63.05 96.9 -65.7 L99.3 -69.55 100.1 -70.9 M76.95 -51.95 L77.4 -52.05 77.9 -52.45 78.35 -52.85 Q81.25 -51.6 84.05 -52.1 84.95 -51.0 86.05 -50.3 87.05 -49.65 88.25 -49.35 L89.0 -49.25 89.6 -49.25 89.65 -49.2 89.75 -49.25 89.85 -49.1 Q92.0 -48.25 94.35 -48.0 L94.65 -48.0 94.95 -48.0 94.4 -47.25 Q92.3 -44.05 90.55 -39.65 89.1 -39.1 87.75 -38.35 L87.15 -38.05 86.2 -37.45 86.7 -40.7 86.75 -40.95 86.95 -42.2 87.05 -42.5 86.95 -42.45 86.45 -46.95 86.5 -47.0 80.6 -46.5 Q78.8 -46.75 77.6 -47.7 L77.6 -47.95 Q75.95 -49.75 76.95 -51.95 M84.9 -61.65 Q85.9 -60.3 84.9 -58.15 L88.1 -61.1 87.1 -63.7 84.9 -61.65 M86.45 -46.95 L87.4 -47.35 Q90.25 -48.6 89.65 -49.2 90.25 -48.6 87.4 -47.35 L86.45 -46.95 M95.5 -28.35 L92.85 -25.55 86.5 -19.6 Q82.0 -15.65 79.0 -30.65 82.0 -15.65 86.5 -19.6 L92.85 -25.55 95.5 -28.35 M58.7 32.6 L59.3 32.55 59.75 31.7 59.3 32.55 58.7 32.6 M63.15 59.45 Q63.7 54.95 64.7 52.75 69.9 54.05 73.4 59.45 L63.15 59.45" fill="#39689f" fill-rule="evenodd" stroke="none"/>
    <path d="M79.0 -62.8 Q77.7 -62.15 78.5 -59.15 L76.05 -62.8 78.15 -66.05 79.0 -62.8 M79.05 -66.9 L80.4 -68.9 84.85 -68.4 86.1 -64.9 83.9 -62.8 79.85 -63.65 79.05 -66.9 M84.9 -61.65 L87.1 -63.7 88.1 -61.1 84.9 -58.15 Q85.9 -60.3 84.9 -61.65" fill="#d3d301" fill-rule="evenodd" stroke="none"/>
    <path d="M75.0 -56.95 L74.9 -56.55 Q74.8 -56.05 74.85 -55.25 L74.85 -55.1 74.85 -55.05 75.05 -53.85 75.05 -53.8 75.25 -53.3 75.6 -53.85 75.65 -55.1 75.35 -56.55 75.0 -56.95 M72.2 -55.9 Q72.2 -57.1 72.5 -57.85 72.9 -59.15 74.4 -58.85 76.65 -58.5 78.8 -54.9 L79.1 -54.35 79.2 -54.25 79.2 -54.15 78.35 -52.85 77.9 -52.45 77.4 -52.05 76.95 -51.95 76.75 -51.95 76.4 -51.95 Q75.5 -52.1 74.45 -52.95 L72.45 -55.25 72.2 -55.9 M83.4 -53.4 Q84.8 -54.6 86.25 -55.25 L86.95 -55.55 90.5 -56.0 91.0 -55.8 Q93.35 -54.45 94.4 -52.25 L94.5 -52.05 94.5 -51.9 Q94.3 -50.7 93.05 -50.0 91.35 -49.3 89.85 -49.25 L89.75 -49.25 89.6 -49.25 89.0 -49.25 88.25 -49.35 Q87.05 -49.65 86.05 -50.3 84.95 -51.0 84.05 -52.1 L83.25 -53.3 83.4 -53.4 M89.0 -54.2 L89.0 -53.6 Q88.85 -52.95 88.85 -52.05 L88.85 -52.0 88.9 -51.65 88.95 -51.3 89.0 -50.95 89.1 -50.7 89.25 -50.05 89.6 -50.65 89.7 -51.5 89.7 -51.65 89.7 -52.05 89.35 -53.6 89.0 -54.2" fill="#f2c261" fill-rule="evenodd" stroke="none"/>
    <path d="M75.0 -56.95 L75.35 -56.55 75.65 -55.1 75.6 -53.85 75.25 -53.3 75.05 -53.8 75.05 -53.85 74.85 -55.05 74.85 -55.1 74.85 -55.25 Q74.8 -56.05 74.9 -56.55 L75.0 -56.95 M89.0 -54.2 L89.35 -53.6 89.7 -52.05 89.7 -51.65 89.7 -51.5 89.6 -50.65 89.25 -50.05 89.1 -50.7 89.0 -50.95 88.95 -51.3 88.9 -51.65 88.85 -52.0 88.85 -52.05 Q88.85 -52.95 89.0 -53.6 L89.0 -54.2" fill="#5f0000" fill-rule="evenodd" stroke="none"/>
    <path d="M79.1 -54.35 L79.2 -54.3 79.2 -54.25 79.1 -54.35 M83.25 -53.4 L83.4 -53.4 83.25 -53.3 83.25 -53.4 M77.6 -47.7 L77.45 -47.85 77.45 -47.9 77.45 -47.95 77.6 -47.95 77.6 -47.7 M89.6 -49.25 L89.75 -49.25 89.65 -49.2 89.6 -49.25" fill="#ca7de1" fill-rule="evenodd" stroke="none"/>
    <path d="M79.25 -54.25 Q80.15 -53.25 83.25 -53.4 L83.25 -53.3 84.05 -52.1 Q81.25 -51.6 78.35 -52.85 L79.2 -54.15 79.25 -54.25" fill="#172b42" fill-rule="evenodd" stroke="none"/>
    <path d="M77.45 -47.85 L77.6 -47.7 Q78.8 -46.75 80.6 -46.5 L86.5 -47.0 86.45 -46.95 86.95 -42.45 84.6 -40.65 84.15 -42.85 78.8 -44.55 78.2 -43.2 76.75 -44.2 77.3 -45.25 Q76.85 -45.35 77.45 -47.85 M77.75 -41.45 L78.3 -40.85 79.45 -43.25 82.8 -42.3 83.6 -38.85 86.7 -40.7 86.2 -37.45 85.6 -34.55 84.9 -34.55 81.1 -35.2 80.35 -35.4 Q79.55 -35.7 78.95 -36.15 L77.75 -41.45" fill="#8785b4" fill-rule="evenodd" stroke="none"/>
    <path d="M76.75 -44.2 L78.2 -43.2 78.8 -44.55 84.15 -42.85 84.6 -40.65 86.95 -42.45 86.95 -42.2 86.75 -40.95 86.7 -40.7 83.6 -38.85 82.8 -42.3 79.45 -43.25 78.3 -40.85 77.75 -41.45 76.35 -43.2 76.75 -44.2" fill="#7575a8" fill-rule="evenodd" stroke="none"/>
    <path d="M90.5 -56.0 L91.05 -55.95 91.0 -55.8 90.5 -56.0" fill="#b547d6" fill-rule="evenodd" stroke="none"/>
    <path d="M81.55 -31.65 L84.6 -30.75 84.5 -30.35 84.25 -26.4 82.5 -28.9 Q81.75 -30.1 81.6 -31.5 L81.55 -31.65 M87.0 -31.6 Q91.15 -34.35 94.85 -37.45 L101.95 -50.65 104.6 -51.35 Q102.8 -45.25 99.0 -39.8 L96.9 -37.1 Q95.3 -35.2 94.3 -32.55 92.15 -30.2 89.1 -28.5 86.85 -27.3 84.25 -26.4 L86.05 -29.8 87.0 -31.6" fill="#783a32" fill-rule="evenodd" stroke="none"/>
    <path d="M104.9 -51.45 Q106.9 -50.7 107.8 -49.3 L102.65 -41.2 100.9 -39.0 97.75 -35.8 Q95.4 -33.85 94.3 -32.55 95.3 -35.2 96.9 -37.1 L99.0 -39.8 Q102.8 -45.25 104.6 -51.35 L104.9 -51.45 M84.6 -30.75 L85.35 -30.5 87.0 -31.6 86.05 -29.8 84.25 -26.4 84.5 -30.35 84.6 -30.75 M89.85 -49.25 L89.85 -49.1 89.75 -49.25 89.85 -49.25" fill="#1c334a" fill-rule="evenodd" stroke="none"/>
    <path d="M114.9 -26.15 Q121.6 -27.4 126.25 -24.2 128.7 -22.6 129.5 -20.35 L126.9 -15.85 124.2 -16.25 Q121.3 -16.75 119.5 -17.75 117.85 -18.7 117.15 -20.05 L115.65 -17.65 113.75 -15.65 113.7 -15.6 Q111.2 -13.2 110.75 -8.3 108.45 -12.9 109.35 -17.35 L110.0 -19.65 110.3 -20.25 110.7 -21.05 Q111.75 -23.2 113.65 -25.35 L114.9 -26.15 M153.55 25.85 Q154.75 27.6 155.6 30.9 149.6 35.4 145.95 29.45 L146.35 29.9 Q150.65 29.2 153.55 25.85 M158.3 55.25 L158.7 59.45 155.7 59.45 Q157.15 57.95 158.3 55.25 M115.0 31.6 Q114.75 35.05 113.45 38.6 L113.1 39.45 Q110.85 44.45 107.0 42.15 L101.55 39.0 99.65 37.9 Q93.5 30.2 98.25 21.0 98.25 25.85 100.4 28.05 102.5 30.2 103.25 32.2 104.3 30.2 106.9 28.95 107.45 28.6 108.1 28.35 110.85 27.25 114.95 26.75 115.25 29.15 115.0 31.6 M87.85 59.45 L83.3 59.45 78.95 53.3 84.7 58.05 92.3 56.0 87.85 59.45 M81.0 59.45 L80.75 59.45 80.45 59.05 81.0 59.45 M76.05 38.0 Q75.45 37.25 74.95 34.95 74.05 30.65 74.05 26.25 L74.05 24.75 Q77.5 24.85 78.65 27.75 L78.9 28.35 78.95 27.9 79.0 27.7 79.0 27.65 Q79.3 26.15 79.95 24.5 80.75 22.4 80.65 18.2 82.75 25.7 80.45 32.95 79.7 31.95 79.3 30.55 L79.0 29.15 78.9 28.35 79.0 29.15 79.3 30.55 Q79.7 31.95 80.45 32.95 82.75 25.7 80.65 18.2 80.75 22.4 79.95 24.5 79.3 26.15 79.0 27.65 L78.95 27.45 78.65 26.3 Q77.4 21.45 77.45 17.8 77.4 15.75 77.75 14.15 L78.3 13.85 Q81.75 12.65 86.3 13.2 L86.3 13.25 Q85.8 17.3 85.6 20.95 84.85 30.5 85.65 37.5 86.3 43.45 88.05 47.45 L87.55 47.45 Q86.3 47.4 85.3 46.95 80.95 45.0 79.7 35.2 L79.55 34.35 80.45 32.95 79.55 34.35 77.65 37.45 Q76.75 38.8 76.05 38.0 M60.05 31.15 L60.15 31.3 59.75 31.7 60.05 31.15 M45.3 55.75 Q44.75 56.45 46.6 57.0 43.6 58.25 42.45 59.45 L40.85 59.45 36.7 59.45 38.25 55.65 38.45 55.15 40.4 50.35 Q41.6 54.95 45.3 55.75 M48.7 32.3 Q50.05 30.25 51.45 29.1 L51.5 30.35 51.55 30.35 Q54.75 32.95 58.7 32.6 53.65 36.45 48.7 32.3 M117.15 -20.05 Q116.9 -22.3 115.4 -23.95 L114.95 -24.5 113.65 -25.35 114.95 -24.5 115.4 -23.95 Q116.9 -22.3 117.15 -20.05 M99.65 37.9 Q102.7 35.6 103.25 32.2 102.7 35.6 99.65 37.9 M40.85 59.45 Q38.25 58.45 38.25 55.65 38.25 58.45 40.85 59.45" fill="#8786ae" fill-rule="evenodd" stroke="none"/>
    <path d="M86.95 -42.2 L86.95 -42.45 87.05 -42.5 86.95 -42.2" fill="#eff5f3" fill-rule="evenodd" stroke="none"/>
    <path d="M74.0 43.15 Q74.25 40.55 75.2 39.0 L76.05 38.0 Q76.75 38.8 77.65 37.45 L79.55 34.35 79.7 35.2 Q80.95 45.0 85.3 46.95 86.3 47.4 87.55 47.45 L88.05 47.45 87.75 47.5 Q83.35 48.5 84.6 55.0 76.45 50.05 73.95 45.85 73.9 44.4 74.0 43.15 M66.25 7.0 L71.65 2.4 69.2 10.75 68.95 10.5 Q67.55 9.2 66.3 7.45 L66.25 7.0 M71.4 12.3 L77.25 3.5 74.7 13.65 Q72.95 13.2 71.4 12.3 M105.15 16.1 L99.25 5.3 111.3 13.45 Q108.55 15.35 105.15 16.1 M113.3 11.85 L107.35 1.95 116.35 7.85 Q115.0 10.1 113.3 11.85 M118.35 3.75 Q116.05 -5.6 119.1 -16.4 L119.5 -17.75 Q121.3 -16.75 124.2 -16.25 L124.0 -14.65 Q122.35 -5.5 118.35 3.75" fill="#21415f" fill-rule="evenodd" stroke="none"/>
    <path d="M77.9 13.85 L78.3 13.85 77.75 14.15 77.9 13.85 M105.5 -17.55 L105.8 -17.65 105.5 -17.4 105.5 -17.55 M79.0 27.7 L78.95 27.9 78.8 27.75 78.95 27.45 79.0 27.7" fill="#643342" fill-rule="evenodd" stroke="none"/>
    <path d="M130.25 9.8 L129.85 10.7 Q120.45 13.55 118.35 3.75 122.35 -5.5 124.0 -14.65 L124.2 -16.25 126.9 -15.85 Q119.25 -1.15 129.45 8.4 L130.15 9.65 130.25 9.8 M127.6 15.45 L123.45 18.55 113.3 11.85 Q115.0 10.1 116.35 7.85 L127.6 15.45 M121.05 20.35 L116.25 23.8 105.15 16.1 Q108.55 15.35 111.3 13.45 L111.4 13.4 121.05 20.35 M113.1 39.45 Q114.6 40.75 116.75 41.7 117.65 44.3 116.75 46.55 L116.7 46.7 Q110.55 50.3 104.9 51.85 L98.4 53.65 95.0 54.65 90.95 55.3 86.65 55.2 84.6 55.0 Q83.35 48.5 87.75 47.5 L88.05 47.45 89.2 47.35 Q91.3 46.75 94.3 44.8 L100.65 39.8 101.55 39.0 107.0 42.15 Q110.85 44.45 113.1 39.45 M77.55 59.45 L74.85 59.45 75.05 58.15 77.3 58.9 77.55 59.45 M73.0 17.55 L70.45 13.7 71.4 12.3 Q72.95 13.2 74.7 13.65 L73.0 17.55 M106.9 28.95 L107.35 26.8 108.1 28.35 Q107.45 28.6 106.9 28.95 M112.8 59.45 L114.15 58.45 114.5 59.45 112.8 59.45" fill="#0e1a27" fill-rule="evenodd" stroke="none"/>
    <path d="M86.3 13.2 Q91.25 13.7 97.45 16.4 L97.7 16.5 98.9 17.2 Q100.8 18.4 102.4 19.9 L102.65 20.1 Q104.25 21.75 105.5 23.65 L107.35 26.8 106.9 28.95 Q104.3 30.2 103.25 32.2 102.5 30.2 100.4 28.05 98.25 25.85 98.25 21.0 93.5 30.2 99.65 37.9 L101.55 39.0 100.65 39.8 94.3 44.8 Q91.3 46.75 89.2 47.35 L88.05 47.45 Q86.3 43.45 85.65 37.5 84.85 30.5 85.6 20.95 85.8 17.3 86.3 13.25 L86.3 13.2" fill="#72729e" fill-rule="evenodd" stroke="none"/>
    <path d="M79.0 27.65 L79.0 27.7 78.95 27.45 79.0 27.65" fill="#783d4a" fill-rule="evenodd" stroke="none"/>
    <path d="M75.25 -77.25 L76.15 -78.75 Q81.4 -87.75 81.7 -96.0 81.95 -104.2 77.05 -106.85 72.1 -109.55 64.95 -105.15 61.65 -103.2 58.8 -100.25 56.85 -98.3 55.1 -95.9 57.8 -99.35 60.9 -101.8 62.45 -103.05 64.15 -104.05 71.1 -108.2 75.9 -105.55 80.7 -102.95 80.45 -95.05 80.15 -87.1 75.0 -78.45 L74.35 -77.3 73.55 -76.1 74.25 -75.75 75.25 -77.25 75.75 -76.8 76.35 -75.45 76.5 -75.15 77.6 -76.6 Q80.15 -79.55 82.7 -81.6 87.6 -85.55 92.6 -86.1 97.7 -86.65 101.55 -83.75 104.3 -89.3 108.7 -93.2 116.05 -99.6 123.8 -97.7 131.5 -95.8 135.15 -86.85 136.85 -82.75 137.25 -78.3 137.5 -75.25 137.15 -72.0 137.45 -76.75 136.4 -81.1 L135.0 -85.3 Q131.35 -94.0 123.8 -95.85 116.2 -97.7 109.1 -91.5 105.1 -87.9 102.6 -82.9 L105.0 -80.1 Q109.75 -73.25 111.7 -65.4 113.55 -57.55 108.8 -54.55 106.8 -52.45 104.9 -51.45 106.9 -50.7 107.8 -49.3 L108.0 -48.95 109.55 -45.35 Q112.75 -37.35 114.9 -26.15 M129.5 -20.35 L131.0 -22.4 Q143.6 -14.25 145.35 1.5 L145.8 2.35 148.35 8.2 Q152.45 18.15 153.8 25.55 L153.7 25.6 153.55 25.85 M155.6 30.9 L155.8 31.5 M144.65 28.25 L144.7 28.15 Q134.4 17.25 130.25 9.8 L129.85 10.7 127.95 15.2 127.6 15.45 123.45 18.55 121.35 20.15 M121.05 20.35 L116.25 23.8 116.15 23.95 121.05 28.2 Q118.0 30.45 115.0 31.6 M113.1 39.45 Q114.6 40.75 116.75 41.7 117.65 44.3 116.75 46.55 M74.0 43.15 Q74.25 40.55 75.2 39.0 L76.05 38.0 M74.05 26.25 Q71.75 25.05 70.25 23.1 M73.6 18.55 L73.0 17.55 70.45 13.7 68.95 11.55 M68.95 11.5 L68.7 11.15 Q66.0 19.4 60.05 31.15 L59.75 31.7 60.15 31.3 60.4 31.75 M38.25 55.65 L38.45 55.15 M48.4 32.75 L48.7 32.3 Q53.65 36.45 58.7 32.6 54.75 32.95 51.55 30.35 L51.5 30.35 51.45 29.1 Q51.3 21.45 52.85 10.75 54.15 1.75 56.25 -4.95 L56.7 -6.35 Q56.5 -20.0 66.65 -28.85 70.7 -24.8 72.95 -20.95 L74.4 -22.15 74.4 -22.25 77.65 -38.3 74.45 -49.7 Q71.45 -53.15 70.75 -56.05 M70.65 -56.15 L70.75 -56.1 Q70.6 -60.8 73.05 -63.25 72.55 -66.35 73.15 -68.95 L72.95 -69.5 Q72.45 -71.3 72.25 -72.95 L72.0 -75.5 72.05 -75.8 72.45 -76.35 73.5 -77.1 74.35 -77.3 M72.0 -75.5 Q72.2 -75.2 72.75 -75.05 L74.15 -75.35 75.35 -76.15 75.75 -76.8 M73.15 -68.95 Q73.7 -68.1 74.95 -69.8 76.5 -71.9 76.7 -73.05 76.9 -74.0 76.5 -75.15 M70.75 -56.1 L70.75 -56.05 M79.1 -54.35 L79.2 -54.3 79.25 -54.25 M83.25 -53.4 L83.4 -53.4 M90.5 -56.0 L91.05 -55.95 Q94.5 -55.35 95.4 -52.3 L95.45 -52.2 95.4 -52.1 M99.55 -74.45 L99.2 -72.8 100.2 -71.9 100.2 -71.85 100.1 -70.9 99.3 -69.55 96.9 -65.7 Q95.25 -63.05 94.95 -64.9 94.55 -66.75 94.8 -68.65 95.05 -70.55 95.85 -71.8 96.35 -72.55 96.95 -73.1 L97.3 -73.35 97.85 -73.4 98.2 -73.35 98.7 -75.75 98.75 -75.9 Q99.8 -80.2 101.55 -83.75 M72.45 -55.25 L72.3 -55.25 72.2 -55.9 M76.75 -44.2 L78.2 -43.2 78.8 -44.55 84.15 -42.85 84.6 -40.65 86.95 -42.45 87.05 -42.5 86.95 -42.2 M77.6 -47.7 L77.6 -47.95 M77.45 -47.95 L77.45 -47.9 77.45 -47.85 M77.65 -38.3 L79.35 -32.3 M85.35 -30.5 L87.0 -31.6 Q91.15 -34.35 94.85 -37.45 L101.95 -50.65 104.6 -51.35 104.9 -51.45 M74.4 -22.15 L74.45 -22.2 74.4 -22.25 M74.3 -19.85 L74.4 -22.15 M74.3 -19.85 L74.15 -17.0 75.4 -14.25 75.6 -14.0 Q79.9 -5.9 88.9 -7.1 L91.95 -7.85 95.45 -9.1 Q97.1 -9.75 98.8 -10.65 L103.05 -13.05 104.85 -14.2 105.65 -14.85 M72.95 -20.95 Q69.85 -18.15 67.7 -12.65 L66.65 -8.75 Q65.95 -6.05 65.75 -3.2 L65.75 -2.5 Q65.5 0.5 65.8 3.7 L65.8 3.75 65.9 4.6 66.15 6.3 66.15 6.4 66.25 7.0 66.3 7.45 68.7 11.15 M78.3 13.85 Q81.75 12.65 86.3 13.2 91.25 13.7 97.45 16.4 L97.7 16.5 M118.35 3.75 Q116.05 -5.6 119.1 -16.4 L119.5 -17.75 M109.35 -17.35 L107.4 -16.0 107.2 -15.85 105.65 -14.85 M102.6 -82.9 Q100.65 -79.15 99.6 -74.6 L99.55 -74.45 M98.2 -73.35 L97.95 -72.0 99.0 -71.7 99.2 -72.8 M100.1 -70.9 L99.3 -70.85 Q98.65 -70.9 98.0 -71.3 L97.05 -72.3 Q96.8 -72.8 96.95 -73.1 M109.55 -45.35 Q108.8 -43.65 106.25 -40.7 M89.75 -49.25 L89.65 -49.2 Q90.25 -48.6 87.4 -47.35 L86.45 -46.95 M81.6 -31.5 Q81.75 -30.1 82.5 -28.9 L84.25 -26.4 84.5 -30.35 84.6 -30.75 M87.0 -31.6 L86.05 -29.8 84.25 -26.4 Q86.85 -27.3 89.1 -28.5 92.15 -30.2 94.3 -32.55 95.3 -35.2 96.9 -37.1 L99.0 -39.8 Q102.8 -45.25 104.6 -51.35 M94.3 -32.55 Q95.4 -33.85 97.75 -35.8 L100.9 -39.0 102.65 -41.2 M79.0 -30.65 Q82.0 -15.65 86.5 -19.6 L92.85 -25.55 95.5 -28.35 M126.9 -15.85 L129.5 -20.35 M126.9 -15.85 Q119.25 -1.15 129.45 8.4 L130.15 9.65 130.25 9.8 M144.7 28.15 L145.95 29.45 146.35 29.9 Q150.65 29.2 153.55 25.85 M155.6 30.9 Q149.6 35.4 145.95 29.45 M107.35 26.8 L105.5 23.65 Q104.25 21.75 102.65 20.1 L102.4 19.9 Q100.8 18.4 98.9 17.2 L97.7 16.5 M88.05 47.45 L89.2 47.35 Q91.3 46.75 94.3 44.8 L100.65 39.8 101.55 39.0 M106.9 28.95 L107.35 26.8 108.1 28.35 M79.55 34.35 L79.7 35.2 Q80.95 45.0 85.3 46.95 86.3 47.4 87.55 47.45 L88.05 47.45 M84.6 55.0 L86.65 55.2 90.95 55.3 95.0 54.65 98.4 53.65 104.9 51.85 Q110.55 50.3 116.7 46.7 L116.75 46.55 M158.3 55.25 Q157.15 57.95 155.7 59.45 M118.35 3.75 Q120.45 13.55 129.85 10.7 M77.75 14.15 Q77.4 15.75 77.45 17.8 77.4 21.45 78.65 26.3 L78.95 27.45 79.0 27.65 M78.3 13.85 L77.75 14.15 M59.75 31.7 L59.3 32.55 58.7 32.6 M78.8 27.75 L78.65 27.75 M78.8 27.75 L78.95 27.9 M79.0 27.7 L78.95 27.45 M84.6 55.0 Q76.45 50.05 73.95 45.85 73.9 44.4 74.0 43.15 M45.3 55.75 Q41.6 54.95 40.4 50.35 M38.25 55.65 Q38.25 58.45 40.85 59.45" fill="none" stroke="#1d3450" stroke-linecap="round" stroke-linejoin="round" stroke-width="0.05"/>
    <path d="M114.9 -26.15 Q121.6 -27.4 126.25 -24.2 128.7 -22.6 129.5 -20.35 M115.0 31.6 Q114.75 35.05 113.45 38.6 L113.1 39.45 M76.05 38.0 Q75.45 37.25 74.95 34.95 74.05 30.65 74.05 26.25 M119.5 -17.75 Q117.85 -18.7 117.15 -20.05 L115.65 -17.65 113.75 -15.65 M113.7 -15.6 Q111.2 -13.2 110.75 -8.3 108.45 -12.9 109.35 -17.35 M114.9 -26.15 L113.65 -25.35 114.95 -24.5 115.4 -23.95 Q116.9 -22.3 117.15 -20.05 M110.7 -21.05 Q111.75 -23.2 113.65 -25.35 M110.7 -21.05 L110.3 -20.25 110.0 -19.65 109.35 -17.35 M124.2 -16.25 Q121.3 -16.75 119.5 -17.75 M124.2 -16.25 L126.9 -15.85 M101.55 39.0 L99.65 37.9 Q93.5 30.2 98.25 21.0 98.25 25.85 100.4 28.05 102.5 30.2 103.25 32.2 104.3 30.2 106.9 28.95 M108.1 28.35 Q110.85 27.25 114.95 26.75 115.25 29.15 115.0 31.6 M108.1 28.35 Q107.45 28.6 106.9 28.95 M101.55 39.0 L107.0 42.15 Q110.85 44.45 113.1 39.45 M103.25 32.2 Q102.7 35.6 99.65 37.9 M78.9 28.35 L79.0 29.15 79.3 30.55 Q79.7 31.95 80.45 32.95 82.75 25.7 80.65 18.2 80.75 22.4 79.95 24.5 79.3 26.15 79.0 27.65 L79.0 27.7 78.95 27.9 78.9 28.35 78.65 27.75 Q77.5 24.85 74.05 24.75 L74.05 26.25 M79.55 34.35 L80.45 32.95 M76.05 38.0 Q76.75 38.8 77.65 37.45 L79.55 34.35" fill="none" stroke="#3e3f59" stroke-linecap="round" stroke-linejoin="round" stroke-width="0.05"/>
    <path d="M153.55 25.85 Q154.75 27.6 155.6 30.9 M155.8 31.5 Q156.5 34.65 156.9 39.0 L157.8 49.85 158.3 55.25 158.7 59.45 M151.45 59.45 Q148.95 52.35 147.3 48.6 L143.4 44.5 Q140.75 41.85 143.0 32.55 143.6 30.0 144.65 28.25 M60.05 31.15 L60.15 31.3 M60.4 31.75 Q61.0 33.2 61.0 35.25 61.15 42.55 57.9 44.25 54.6 45.9 53.0 46.8 50.2 49.75 45.3 55.75 44.75 56.45 46.6 57.0 43.6 58.25 42.45 59.45 M36.7 59.45 L38.25 55.65 M38.45 55.15 L40.4 50.35 42.15 46.35 45.55 38.25 Q46.95 35.0 48.4 32.75 M48.7 32.3 Q50.05 30.25 51.45 29.1" fill="none" stroke="#621d81" stroke-linecap="round" stroke-linejoin="round" stroke-width="0.05"/>
    <path d="M121.35 20.15 L121.05 20.35 M86.3 13.2 L86.3 13.25" fill="none" stroke="#00ff00" stroke-linecap="round" stroke-linejoin="round" stroke-width="0.05"/>
    <path d="M116.75 46.55 Q117.15 46.35 117.5 46.2 119.55 47.05 120.75 50.3 L121.15 51.45 Q122.7 49.9 124.5 48.75 126.6 51.45 128.55 59.45 M116.1 59.45 Q117.15 56.9 118.5 54.8 115.15 56.75 112.8 58.85 L112.15 59.45 M74.85 59.45 L75.05 58.15 77.3 58.9 74.3 50.95 74.15 50.85 Q73.55 48.95 70.4 46.2 71.85 43.85 74.0 43.15 M112.8 59.45 L114.15 58.45 114.5 59.45 M118.5 54.8 Q119.7 52.95 121.15 51.45 M77.55 59.45 L77.3 58.9 M63.15 59.45 Q63.7 54.95 64.7 52.75 69.9 54.05 73.4 59.45" fill="none" stroke="#301820" stroke-linecap="round" stroke-linejoin="round" stroke-width="0.05"/>
    <path d="M78.95 53.3 L83.3 59.45 M87.85 59.45 L92.3 56.0 M80.45 59.05 L80.75 59.45" fill="none" stroke="#535375" stroke-linecap="round" stroke-linejoin="round" stroke-width="0.05"/>
  </g>
</svg>
