<?xml version="1.0" encoding="UTF-8" standalone="no"?>
<svg xmlns:xlink="http://www.w3.org/1999/xlink" height="173.5px" width="87.35px" xmlns="http://www.w3.org/2000/svg">
  <g transform="matrix(1, 0, 0, 1, -60.3, 115.85)">
    <path d="M103.9 -82.85 L103.8 -82.7 103.75 -82.8 103.9 -82.85 M98.9 -62.4 Q105.9 -62.5 108.6 -69.7 109.95 -73.4 110.15 -78.9 L111.1 -78.95 111.5 -79.6 112.4 -80.5 Q114.3 -79.75 114.75 -77.95 L113.8 -74.75 113.75 -74.55 112.5 -73.5 111.8 -73.0 111.7 -72.45 Q111.1 -69.85 111.2 -67.85 111.1 -65.05 111.5 -62.3 110.65 -60.95 105.95 -59.95 L105.95 -59.85 Q94.75 -59.4 92.15 -60.85 L91.05 -61.45 92.35 -61.45 Q93.95 -61.75 95.35 -62.3 L95.7 -61.9 92.35 -61.45 95.7 -61.9 Q96.85 -60.7 98.9 -62.4 M113.5 -83.6 Q114.2 -83.6 114.55 -82.8 115.4 -80.8 114.95 -78.85 115.25 -80.55 114.7 -82.25 114.3 -83.35 113.5 -83.6 M64.7 31.75 L64.05 31.85 64.7 31.05 64.7 31.75 M110.5 -74.95 L110.45 -75.55 Q110.45 -76.4 110.6 -77.1 111.5 -76.7 112.1 -75.7 111.5 -76.7 110.6 -77.1 110.45 -76.4 110.45 -75.55 L110.5 -74.95 M110.6 -77.1 L110.7 -77.6 111.1 -78.95 110.7 -77.6 110.6 -77.1 M85.1 -75.35 L85.75 -74.65 Q86.35 -74.2 87.1 -73.85 85.25 -73.25 85.1 -74.65 L85.1 -75.35 M108.6 -69.7 L111.05 -72.5 111.8 -73.0 111.05 -72.5 108.6 -69.7 M113.5 27.15 L119.7 29.7 121.1 32.1 121.2 32.4 122.4 34.8 124.95 43.5 114.85 36.7 114.65 36.6 115.5 34.0 113.5 27.15 M121.1 32.1 L115.5 34.0 121.1 32.1" fill="#ffd0ae" fill-rule="evenodd" stroke="none"/>
    <path d="M81.6 -93.2 L81.65 -93.1 Q83.15 -97.2 84.55 -96.35 85.95 -95.45 86.6 -94.45 L88.55 -92.0 Q94.1 -95.65 97.3 -96.5 100.5 -97.4 103.55 -93.95 106.6 -90.55 105.95 -87.5 105.35 -84.85 103.9 -82.85 L103.75 -82.8 103.8 -82.7 103.4 -82.25 Q105.3 -68.45 98.1 -67.55 L97.3 -69.35 95.35 -70.85 Q93.15 -72.45 90.15 -73.05 L84.9 -73.6 Q84.15 -73.6 83.7 -73.2 L83.55 -73.55 Q82.6 -75.85 82.0 -78.95 81.35 -82.05 81.65 -85.3 81.9 -88.6 81.6 -90.4 81.35 -91.7 81.6 -93.2 M110.15 -78.9 L110.2 -81.55 Q112.35 -83.6 113.5 -83.6 114.3 -83.35 114.7 -82.25 115.25 -80.55 114.95 -78.85 L114.75 -77.95 Q114.3 -79.75 112.4 -80.5 L111.5 -79.6 111.1 -78.95 110.15 -78.9 M111.5 -62.3 L111.85 -60.55 113.1 -59.9 Q113.7 -59.6 114.6 -59.2 L123.3 -54.0 Q121.4 -52.8 118.45 -51.4 L118.15 -51.25 Q102.7 -46.0 88.6 -47.35 81.5 -52.85 81.15 -64.45 L81.25 -64.6 83.1 -64.8 84.75 -64.85 85.7 -63.65 85.65 -63.8 Q84.95 -67.05 85.6 -68.55 85.85 -69.2 86.4 -69.5 88.15 -70.4 90.85 -68.85 93.6 -67.3 94.75 -63.6 95.0 -62.8 95.35 -62.3 93.95 -61.75 92.35 -61.45 L91.05 -61.45 92.15 -60.85 Q94.75 -59.4 105.95 -59.85 L105.95 -59.95 Q110.65 -60.95 111.5 -62.3 M133.2 25.65 Q133.8 27.4 133.7 30.0 L131.7 33.8 127.55 41.75 125.75 42.4 125.1 43.55 124.95 43.5 122.4 34.8 121.2 32.4 121.1 32.1 119.7 29.7 113.5 27.15 121.5 19.15 Q123.8 19.2 125.85 20.0 L123.6 26.5 Q124.6 31.65 130.0 31.1 L133.2 25.65 M64.05 31.85 L63.9 31.85 63.8 30.55 62.4 29.25 61.7 15.95 62.9 13.55 63.4 15.75 63.8 19.2 64.7 19.7 65.2 20.85 64.7 31.05 64.05 31.85 M83.7 -80.5 Q84.4 -79.85 85.35 -79.45 85.7 -81.25 85.7 -82.95 L85.5 -86.1 Q83.05 -89.0 82.0 -83.75 L81.95 -83.3 82.0 -83.15 83.0 -81.3 Q83.3 -80.7 83.7 -80.5 M87.1 -73.85 Q86.35 -74.2 85.75 -74.65 L85.1 -75.35 85.1 -74.65 Q85.25 -73.25 87.1 -73.85 M85.7 -82.95 Q86.3 -80.0 86.0 -77.95 85.8 -76.4 85.1 -75.35 85.8 -76.4 86.0 -77.95 86.3 -80.0 85.7 -82.95 M94.45 -76.2 Q96.85 -75.8 98.7 -76.65 98.15 -83.2 93.25 -83.3 91.85 -80.9 91.6 -77.1 L93.9 -76.3 94.45 -76.2 M101.05 -85.35 Q95.95 -88.9 92.0 -84.3 97.2 -86.7 101.05 -85.35 M86.75 -86.3 Q86.1 -91.35 81.95 -90.55 84.6 -90.1 86.75 -86.3 M91.45 -67.05 Q90.7 -67.55 89.55 -67.85 L85.6 -68.55 89.55 -67.85 Q90.7 -67.55 91.45 -67.05 M85.65 -63.8 Q87.05 -61.65 90.85 -61.45 L91.05 -61.45 90.85 -61.45 Q87.05 -61.65 85.65 -63.8 M109.0 -54.2 L108.85 -54.1 109.0 -54.05 109.0 -54.2" fill="#ffdfc8" fill-rule="evenodd" stroke="none"/>
    <path d="M145.15 -11.0 L146.1 -7.45 146.3 -7.3 146.4 -6.85 146.85 -5.25 147.65 0.25 146.25 3.7 133.2 25.65 130.0 31.1 Q124.6 31.65 123.6 26.5 L125.85 20.0 128.3 11.05 129.4 5.55 129.8 3.2 Q130.5 -1.95 132.25 -5.2 133.15 -7.05 134.4 -8.3 L135.2 -6.15 Q136.2 -9.7 140.5 -10.65 L145.15 -11.0 M62.25 5.25 L60.3 -12.4 60.5 -16.1 Q62.1 -18.95 63.45 -20.8 L63.9 -21.35 64.6 -25.2 70.35 -24.85 Q62.5 -7.9 62.25 5.25 M63.8 -20.8 L63.9 -21.35 63.8 -20.8 M136.45 -2.55 L135.2 -6.15 136.45 -2.55 M146.4 -6.85 L146.1 -7.45 146.4 -6.85 M63.4 15.75 Q63.9 17.75 64.7 19.7 L63.8 19.2 63.4 15.75" fill="#d2c0b7" fill-rule="evenodd" stroke="none"/>
    <path d="M143.8 -15.9 L145.15 -11.0 140.5 -10.65 Q136.2 -9.7 135.2 -6.15 L134.4 -8.3 132.1 -14.15 136.7 -13.75 Q139.4 -13.9 141.75 -14.85 142.45 -15.15 143.15 -15.55 L143.2 -15.55 143.8 -15.9 M64.6 -25.2 L65.4 -29.65 Q66.05 -29.25 66.75 -28.95 L66.85 -28.9 Q67.45 -28.6 68.15 -28.35 69.85 -27.8 71.7 -27.7 L70.35 -24.85 64.6 -25.2" fill="#bda097" fill-rule="evenodd" stroke="none"/>
    <path d="M125.8 -52.95 Q128.1 -52.75 130.75 -51.05 135.7 -48.05 138.9 -41.8 L140.0 -39.55 Q140.9 -37.2 141.4 -34.9 L141.8 -31.1 Q141.2 -29.65 140.3 -28.5 138.7 -26.6 136.25 -25.85 L132.95 -26.25 Q131.15 -26.85 129.5 -27.85 126.65 -29.65 124.2 -32.7 L123.15 -34.25 Q119.85 -39.3 118.25 -44.75 L118.05 -44.75 Q117.95 -41.8 118.65 -39.05 119.3 -36.05 120.95 -32.85 L121.15 -32.55 121.75 -31.4 Q118.45 -25.65 112.7 -21.95 116.3 -7.45 115.7 3.6 L115.2 8.45 Q113.8 17.25 109.35 23.55 L109.3 25.85 Q109.0 41.1 107.5 54.15 L102.8 54.65 98.3 54.9 Q85.25 55.3 74.35 52.05 68.9 50.35 63.95 47.8 L64.7 31.75 64.7 31.05 65.2 20.85 64.7 19.7 Q63.9 17.75 63.4 15.75 L62.9 13.55 Q62.15 9.6 62.25 5.25 62.5 -7.9 70.35 -24.85 L71.7 -27.7 72.3 -29.0 Q69.95 -33.2 70.4 -39.15 68.75 -39.95 67.55 -41.5 L66.65 -42.95 66.65 -46.4 Q66.85 -48.5 67.5 -50.65 L68.25 -52.7 Q70.55 -58.5 74.8 -61.55 76.6 -62.95 78.35 -63.4 L78.45 -63.65 78.45 -63.45 Q78.35 -59.65 79.0 -56.3 80.25 -50.05 84.4 -45.5 L86.25 -43.7 86.7 -43.3 87.3 -43.25 87.5 -43.25 87.95 -43.2 88.0 -43.2 88.35 -43.2 Q106.35 -41.8 118.45 -47.35 L118.6 -47.85 Q119.05 -49.35 119.9 -50.4 L119.95 -50.5 Q120.75 -51.65 122.1 -52.25 L122.35 -52.4 123.45 -52.8 125.8 -52.95 M72.25 -47.75 Q70.7 -43.1 70.4 -39.15 70.7 -43.1 72.25 -47.75 M102.65 -13.6 L102.55 -13.6 102.7 -13.55 102.65 -13.6" fill="#706a99" fill-rule="evenodd" stroke="none"/>
    <path d="M68.85 -60.75 L68.8 -60.6 68.8 -60.7 68.85 -60.75 M137.35 -50.6 L137.45 -50.6 137.45 -50.4 137.35 -50.6" fill="#bec5d8" fill-rule="evenodd" stroke="none"/>
    <path d="M141.8 -31.1 Q144.55 -22.55 146.4 -19.3 L146.9 -18.45 Q145.45 -16.95 143.8 -15.9 L143.2 -15.55 143.1 -15.6 143.15 -15.55 Q142.45 -15.15 141.75 -14.85 139.4 -13.9 136.7 -13.75 L132.1 -14.15 129.7 -14.75 127.65 -20.25 129.4 5.55 128.3 11.05 125.85 20.0 Q123.8 19.2 121.5 19.15 L113.5 27.15 115.5 34.0 114.65 36.6 114.85 36.7 124.95 43.5 125.1 43.55 125.75 42.4 127.55 41.75 131.7 33.8 Q132.7 44.35 133.5 49.65 L127.3 50.75 125.3 51.15 120.55 41.35 117.0 53.35 107.5 54.15 Q109.0 41.1 109.3 25.85 L109.35 23.55 Q113.8 17.25 115.2 8.45 L115.7 3.6 Q116.3 -7.45 112.7 -21.95 118.45 -25.65 121.75 -31.4 123.4 -28.5 125.45 -26.3 L126.8 -25.1 Q127.55 -24.4 128.4 -23.75 L128.95 -23.4 128.4 -23.75 Q127.55 -24.4 126.8 -25.1 L125.45 -26.3 Q123.4 -28.5 121.75 -31.4 L121.15 -32.55 120.95 -32.85 Q119.3 -36.05 118.65 -39.05 117.95 -41.8 118.05 -44.75 L118.25 -44.75 Q119.85 -39.3 123.15 -34.25 L124.2 -32.7 Q126.65 -29.65 129.5 -27.85 131.15 -26.85 132.95 -26.25 L136.25 -25.85 Q138.7 -26.6 140.3 -28.5 141.2 -29.65 141.8 -31.1 L141.7 -29.65 Q141.6 -27.9 141.15 -26.5 141.6 -27.9 141.7 -29.65 L141.8 -31.1 M65.4 -29.65 L63.15 -31.3 63.5 -32.1 Q64.9 -35.1 66.65 -42.95 L66.85 -41.65 67.25 -39.8 67.65 -38.85 67.25 -39.8 66.85 -41.65 66.65 -42.95 67.55 -41.5 Q68.75 -39.95 70.4 -39.15 69.95 -33.2 72.3 -29.0 L71.7 -27.7 Q69.85 -27.8 68.15 -28.35 67.45 -28.6 66.85 -28.9 L66.85 -28.95 66.75 -28.95 Q66.05 -29.25 65.4 -29.65 M125.45 -26.3 L127.65 -20.25 125.45 -26.3" fill="#534f73" fill-rule="evenodd" stroke="none"/>
    <path d="M66.75 -28.95 L66.85 -28.95 66.85 -28.9 66.75 -28.95 M143.15 -15.55 L143.1 -15.6 143.2 -15.55 143.15 -15.55" fill="#a5bafe" fill-rule="evenodd" stroke="none"/>
    <path d="M85.1 -84.15 L85.15 -83.4 84.8 -82.15 Q84.5 -81.6 84.1 -81.6 83.65 -81.6 83.4 -82.15 83.1 -82.7 83.15 -83.45 83.2 -84.15 83.5 -84.65 L83.7 -84.9 Q83.6 -84.8 83.65 -84.6 L83.8 -83.9 Q84.05 -83.6 84.4 -83.6 84.7 -83.6 84.95 -83.9 L85.05 -84.05 85.1 -84.15 M95.85 -80.3 L95.85 -79.5 Q95.85 -78.7 95.45 -78.1 L94.5 -77.5 Q93.95 -77.5 93.6 -78.1 93.25 -78.7 93.3 -79.6 93.3 -80.4 93.7 -80.95 L94.0 -81.25 93.85 -80.8 Q93.85 -80.35 94.2 -80.0 94.45 -79.75 94.9 -79.75 L95.6 -80.0 95.85 -80.3" fill="#000000" fill-rule="evenodd" stroke="none"/>
    <path d="M127.3 50.75 L127.7 54.75 127.85 57.65 103.1 57.65 102.9 55.85 102.8 54.65 107.5 54.15 117.0 53.35 120.55 41.35 125.3 51.15 127.3 50.75 M98.3 54.9 L97.9 57.65 74.6 57.65 74.35 52.05 Q85.25 55.3 98.3 54.9" fill="#845a55" fill-rule="evenodd" stroke="none"/>
    <path d="M123.3 -54.0 Q124.65 -53.65 125.8 -52.95 L123.45 -52.8 122.35 -52.4 122.1 -52.25 Q120.75 -51.65 119.95 -50.5 L119.3 -50.9 118.95 -51.15 118.45 -51.4 Q121.4 -52.8 123.3 -54.0" fill="#8f8baf" fill-rule="evenodd" stroke="none"/>
    <path d="M109.0 -54.2 L109.0 -54.05 108.85 -54.1 109.0 -54.2" fill="#b48f87" fill-rule="evenodd" stroke="none"/>
    <path d="M78.45 -63.65 L81.15 -64.6 81.15 -64.45 Q81.5 -52.85 88.6 -47.35 102.7 -46.0 118.15 -51.25 L118.45 -51.4 118.95 -51.15 119.3 -50.9 119.95 -50.5 119.9 -50.4 Q119.05 -49.35 118.6 -47.85 L118.45 -47.35 Q106.35 -41.8 88.35 -43.2 L88.0 -43.2 87.95 -43.2 87.5 -43.25 87.3 -43.25 86.7 -43.3 86.25 -43.7 84.4 -45.5 Q80.25 -50.05 79.0 -56.3 78.35 -59.65 78.45 -63.45 L78.45 -63.65" fill="#b8b6cd" fill-rule="evenodd" stroke="none"/>
    <path d="M83.7 -84.9 L83.9 -85.25 84.45 -85.55 85.05 -85.25 85.2 -84.6 85.1 -84.15 85.05 -84.05 84.95 -83.9 Q84.7 -83.6 84.4 -83.6 84.05 -83.6 83.8 -83.9 L83.65 -84.6 Q83.6 -84.8 83.7 -84.9 M83.7 -80.5 L84.0 -80.45 Q84.65 -80.45 85.15 -81.3 85.6 -82.2 85.65 -83.4 85.7 -84.6 85.35 -85.45 84.9 -86.35 84.3 -86.3 83.65 -86.35 83.2 -85.45 82.7 -84.6 82.65 -83.4 82.6 -82.2 83.0 -81.3 L82.0 -83.15 82.0 -83.75 Q83.05 -89.0 85.5 -86.1 L85.7 -82.95 Q85.7 -81.25 85.35 -79.45 84.4 -79.85 83.7 -80.5 M95.85 -80.3 L95.6 -80.0 94.9 -79.75 Q94.45 -79.75 94.2 -80.0 93.85 -80.35 93.85 -80.8 L94.0 -81.25 94.25 -81.5 94.95 -81.8 95.7 -81.5 96.0 -80.8 95.85 -80.3 M94.45 -76.2 Q95.25 -76.2 95.9 -77.15 96.5 -78.15 96.5 -79.5 96.6 -80.9 96.1 -81.9 95.55 -82.85 94.75 -82.8 93.95 -82.85 93.35 -81.9 92.7 -80.9 92.65 -79.5 92.55 -78.15 93.1 -77.15 93.45 -76.55 93.9 -76.3 L91.6 -77.1 Q91.85 -80.9 93.25 -83.3 98.15 -83.2 98.7 -76.65 96.85 -75.8 94.45 -76.2 M102.65 -13.6 L102.7 -13.55 102.55 -13.6 102.65 -13.6" fill="#ffffff" fill-rule="evenodd" stroke="none"/>
    <path d="M85.1 -84.15 L85.2 -84.6 85.05 -85.25 84.45 -85.55 83.9 -85.25 83.7 -84.9 83.5 -84.65 Q83.2 -84.15 83.15 -83.45 83.1 -82.7 83.4 -82.15 83.65 -81.6 84.1 -81.6 84.5 -81.6 84.8 -82.15 L85.15 -83.4 85.1 -84.15 M83.0 -81.3 Q82.6 -82.2 82.65 -83.4 82.7 -84.6 83.2 -85.45 83.65 -86.35 84.3 -86.3 84.9 -86.35 85.35 -85.45 85.7 -84.6 85.65 -83.4 85.6 -82.2 85.15 -81.3 84.65 -80.45 84.0 -80.45 L83.7 -80.5 Q83.3 -80.7 83.0 -81.3 M94.0 -81.25 L93.7 -80.95 Q93.3 -80.4 93.3 -79.6 93.25 -78.7 93.6 -78.1 93.95 -77.5 94.5 -77.5 L95.45 -78.1 Q95.85 -78.7 95.85 -79.5 L95.85 -80.3 96.0 -80.8 95.7 -81.5 94.95 -81.8 94.25 -81.5 94.0 -81.25 M93.9 -76.3 Q93.45 -76.55 93.1 -77.15 92.55 -78.15 92.65 -79.5 92.7 -80.9 93.35 -81.9 93.95 -82.85 94.75 -82.8 95.55 -82.85 96.1 -81.9 96.6 -80.9 96.5 -79.5 96.5 -78.15 95.9 -77.15 95.25 -76.2 94.45 -76.2 L93.9 -76.3" fill="#0099ff" fill-rule="evenodd" stroke="none"/>
    <path d="M81.6 -93.2 Q79.9 -97.7 81.85 -106.35 86.45 -110.0 93.2 -115.85 90.7 -109.8 92.35 -109.3 102.4 -113.9 120.7 -105.35 L118.0 -103.8 Q122.5 -89.45 119.15 -79.05 115.75 -68.7 119.15 -64.1 118.3 -64.45 115.05 -67.2 114.55 -62.7 116.45 -61.55 111.45 -62.55 111.2 -67.85 111.1 -69.85 111.7 -72.45 L111.8 -72.9 112.5 -73.5 113.75 -74.55 113.75 -74.6 113.8 -74.75 114.75 -77.95 114.95 -78.85 Q115.4 -80.8 114.55 -82.8 114.2 -83.6 113.5 -83.6 112.35 -83.6 110.2 -81.55 L110.15 -78.9 Q109.95 -73.4 108.6 -69.7 105.9 -62.5 98.9 -62.4 L98.85 -62.75 98.7 -64.1 98.1 -67.55 98.7 -64.1 98.85 -62.75 98.9 -62.4 Q96.85 -60.7 95.7 -61.9 L95.35 -62.3 Q95.0 -62.8 94.75 -63.6 93.6 -67.3 90.85 -68.85 88.15 -70.4 86.4 -69.5 85.85 -69.2 85.6 -68.55 84.95 -67.05 85.65 -63.8 L85.7 -63.65 84.75 -64.85 Q82.75 -67.65 82.8 -70.35 82.75 -72.5 83.7 -73.2 84.15 -73.6 84.9 -73.6 L90.15 -73.05 Q93.15 -72.45 95.35 -70.85 L97.3 -69.35 98.1 -67.55 Q105.3 -68.45 103.4 -82.25 L103.8 -82.7 103.9 -82.85 Q105.35 -84.85 105.95 -87.5 106.6 -90.55 103.55 -93.95 100.5 -97.4 97.3 -96.5 94.1 -95.65 88.55 -92.0 L86.6 -94.45 Q85.95 -95.45 84.55 -96.35 83.15 -97.2 81.65 -93.1 L81.6 -93.2" fill="#4d4333" fill-rule="evenodd" stroke="none"/>
    <path d="M101.05 -85.35 Q97.2 -86.7 92.0 -84.3 95.95 -88.9 101.05 -85.35 M86.75 -86.3 Q84.6 -90.1 81.95 -90.55 86.1 -91.35 86.75 -86.3" fill="#9b5e5e" fill-rule="evenodd" stroke="none"/>
    <path d="M111.2 -67.85 Q111.1 -65.05 111.5 -62.3 L111.85 -60.55 113.1 -59.9 Q113.7 -59.6 114.6 -59.2 L123.3 -54.0 M133.2 25.65 Q133.8 27.4 133.7 30.0 L131.7 33.8 M64.7 31.75 L64.05 31.85 63.9 31.85 63.8 30.55 62.4 29.25 61.7 15.95 62.9 13.55 M83.1 -64.8 L84.75 -64.85 M83.7 -73.2 L83.55 -73.55 Q82.6 -75.85 82.0 -78.95 81.35 -82.05 81.65 -85.3 81.9 -88.6 81.6 -90.4 81.35 -91.7 81.6 -93.2 M112.1 -75.7 Q111.5 -76.7 110.6 -77.1 110.45 -76.4 110.45 -75.55 L110.5 -74.95 M111.1 -78.95 L111.5 -79.6 112.4 -80.5 M111.1 -78.95 L110.7 -77.6 110.6 -77.1 M113.5 -83.6 Q114.3 -83.35 114.7 -82.25 115.25 -80.55 114.95 -78.85 M113.8 -74.75 L113.75 -74.55 M83.7 -80.5 Q84.4 -79.85 85.35 -79.45 85.7 -81.25 85.7 -82.95 L85.5 -86.1 Q83.05 -89.0 82.0 -83.75 M82.0 -83.15 L83.0 -81.3 Q83.3 -80.7 83.7 -80.5 M82.0 -83.15 L81.95 -83.3 82.0 -83.75 M87.1 -73.85 Q85.25 -73.25 85.1 -74.65 L85.1 -75.35 Q85.8 -76.4 86.0 -77.95 86.3 -80.0 85.7 -82.95 M94.45 -76.2 Q96.85 -75.8 98.7 -76.65 98.15 -83.2 93.25 -83.3 91.85 -80.9 91.6 -77.1 L93.9 -76.3 94.45 -76.2 M85.6 -68.55 L89.55 -67.85 Q90.7 -67.55 91.45 -67.05 M92.35 -61.45 L95.7 -61.9 M91.05 -61.45 L90.85 -61.45 Q87.05 -61.65 85.65 -63.8 M92.35 -61.45 L91.05 -61.45 M112.5 -73.5 L111.8 -73.0 111.7 -72.45 M111.8 -73.0 L111.05 -72.5 108.6 -69.7 M125.85 20.0 Q123.8 19.2 121.5 19.15 L113.5 27.15 115.5 34.0 121.1 32.1 121.2 32.4 M124.95 43.5 L125.1 43.55 125.75 42.4 127.55 41.75 131.7 33.8 M115.5 34.0 L114.65 36.6 114.85 36.7 124.95 43.5" fill="none" stroke="#d7995e" stroke-linecap="round" stroke-linejoin="round" stroke-width="0.05"/>
    <path d="M143.8 -15.9 L145.15 -11.0 146.1 -7.45 146.3 -7.3 146.4 -6.85 146.85 -5.25 147.65 0.25 146.25 3.7 133.2 25.65 M62.25 5.25 L60.3 -12.4 60.5 -16.1 Q62.1 -18.95 63.45 -20.8 L63.9 -21.35 64.6 -25.2 65.4 -29.65 M78.45 -63.65 L81.15 -64.6 M63.9 -21.35 L63.8 -20.8 M132.1 -14.15 L134.4 -8.3 135.2 -6.15 136.45 -2.55 M129.4 5.55 L129.8 3.2 Q130.5 -1.95 132.25 -5.2 133.15 -7.05 134.4 -8.3 M146.1 -7.45 L146.4 -6.85 M129.4 5.55 L128.3 11.05 125.85 20.0 123.6 26.5 Q124.6 31.65 130.0 31.1 L133.2 25.65 M63.4 15.75 L63.8 19.2 64.7 19.7" fill="none" stroke="#6a4e44" stroke-linecap="round" stroke-linejoin="round" stroke-width="0.05"/>
    <path d="M123.3 -54.0 Q124.65 -53.65 125.8 -52.95 128.1 -52.75 130.75 -51.05 135.7 -48.05 138.9 -41.8 L140.0 -39.55 Q140.9 -37.2 141.4 -34.9 L141.8 -31.1 Q144.55 -22.55 146.4 -19.3 L146.9 -18.45 Q145.45 -16.95 143.8 -15.9 M131.7 33.8 Q132.7 44.35 133.5 49.65 L127.3 50.75 125.3 51.15 120.55 41.35 117.0 53.35 107.5 54.15 102.8 54.65 98.3 54.9 Q85.25 55.3 74.35 52.05 68.9 50.35 63.95 47.8 L64.7 31.75 M62.9 13.55 Q62.15 9.6 62.25 5.25 M65.4 -29.65 L63.15 -31.3 63.5 -32.1 Q64.9 -35.1 66.65 -42.95 L66.65 -46.4 Q66.85 -48.5 67.5 -50.65 L68.25 -52.7 Q70.55 -58.5 74.8 -61.55 76.6 -62.95 78.35 -63.4 M81.15 -64.6 L81.15 -64.45 M118.45 -51.4 L118.15 -51.25 Q102.7 -46.0 88.6 -47.35 81.5 -52.85 81.15 -64.45 M66.65 -42.95 L66.85 -41.65 67.25 -39.8 67.65 -38.85 M70.4 -39.15 Q70.7 -43.1 72.25 -47.75 M66.85 -28.9 Q67.45 -28.6 68.15 -28.35 69.85 -27.8 71.7 -27.7 L72.3 -29.0 Q69.95 -33.2 70.4 -39.15 M66.75 -28.95 L66.85 -28.9 M65.4 -29.65 Q66.05 -29.25 66.75 -28.95 M70.35 -24.85 L71.7 -27.7 M123.45 -52.8 L125.8 -52.95 M141.8 -31.1 L141.7 -29.65 Q141.6 -27.9 141.15 -26.5 M121.75 -31.4 Q123.4 -28.5 125.45 -26.3 L126.8 -25.1 Q127.55 -24.4 128.4 -23.75 L128.95 -23.4 M143.15 -15.55 Q142.45 -15.15 141.75 -14.85 139.4 -13.9 136.7 -13.75 L132.1 -14.15 129.7 -14.75 127.65 -20.25 129.4 5.55 M143.15 -15.55 L143.2 -15.55 143.8 -15.9 M127.65 -20.25 L125.45 -26.3 M118.45 -51.4 Q121.4 -52.8 123.3 -54.0 M121.75 -31.4 L121.15 -32.55 M62.9 13.55 L63.4 15.75 Q63.9 17.75 64.7 19.7 L65.2 20.85 64.7 31.05 64.7 31.75 M70.35 -24.85 Q62.5 -7.9 62.25 5.25" fill="none" stroke="#42415c" stroke-linecap="round" stroke-linejoin="round" stroke-width="0.05"/>
    <path d="M127.3 50.75 L127.7 54.75 127.85 57.65 M103.1 57.65 L102.9 55.85 102.8 54.65 M98.3 54.9 L97.9 57.65 M74.6 57.65 L74.35 52.05" fill="none" stroke="#573a39" stroke-linecap="round" stroke-linejoin="round" stroke-width="0.05"/>
    <path d="M81.25 -64.6 L83.1 -64.8" fill="none" stroke="#674743" stroke-linecap="round" stroke-linejoin="round" stroke-width="0.05"/>
    <path d="M111.2 -67.85 Q111.45 -62.55 116.45 -61.55 114.55 -62.7 115.05 -67.2 118.3 -64.45 119.15 -64.1 115.75 -68.7 119.15 -79.05 122.5 -89.45 118.0 -103.8 L120.7 -105.35 Q102.4 -113.9 92.35 -109.3 90.7 -109.8 93.2 -115.85 86.45 -110.0 81.85 -106.35 79.9 -97.7 81.6 -93.2 L81.65 -93.1 Q83.15 -97.2 84.55 -96.35 M86.6 -94.45 L88.55 -92.0 Q94.1 -95.65 97.3 -96.5 100.5 -97.4 103.55 -93.95 106.6 -90.55 105.95 -87.5 105.35 -84.85 103.9 -82.85 L103.8 -82.7 103.4 -82.25 Q105.3 -68.45 98.1 -67.55 L98.7 -64.1 98.85 -62.75 98.9 -62.4 Q105.9 -62.5 108.6 -69.7 109.95 -73.4 110.15 -78.9 L110.2 -81.55 Q112.35 -83.6 113.5 -83.6 114.2 -83.6 114.55 -82.8 115.4 -80.8 114.95 -78.85 L114.75 -77.95 113.8 -74.75 113.75 -74.6 113.75 -74.55 112.5 -73.5 111.8 -72.9 111.7 -72.45 Q111.1 -69.85 111.2 -67.85" fill="none" stroke="#4f4535" stroke-linecap="round" stroke-linejoin="round" stroke-width="0.05"/>
    <path d="M101.05 -85.35 Q95.95 -88.9 92.0 -84.3 97.2 -86.7 101.05 -85.35 M86.75 -86.3 Q84.6 -90.1 81.95 -90.55 86.1 -91.35 86.75 -86.3 M95.35 -62.3 Q95.0 -62.8 94.75 -63.6 93.6 -67.3 90.85 -68.85 88.15 -70.4 86.4 -69.5 85.85 -69.2 85.6 -68.55 M95.7 -61.9 L95.35 -62.3 M95.7 -61.9 Q96.85 -60.7 98.9 -62.4 M85.7 -63.65 L85.65 -63.8 Q84.95 -67.05 85.6 -68.55" fill="none" stroke="#4b2e2e" stroke-linecap="round" stroke-linejoin="round" stroke-width="0.05"/>
  </g>
</svg>
