<?xml version="1.0" encoding="UTF-8" standalone="no"?>
<svg xmlns:xlink="http://www.w3.org/1999/xlink" height="157.95px" width="272.85px" xmlns="http://www.w3.org/2000/svg">
  <g transform="matrix(1, 0, 0, 1, 7.45, -27.35)">
    <path d="M184.9 166.6 Q185.5 166.6 185.9 167.05 186.3 167.5 186.3 168.2 186.3 168.9 185.9 169.4 185.5 169.85 184.9 169.85 184.3 169.85 183.9 169.4 183.5 168.9 183.5 168.2 183.5 167.5 183.9 167.05 184.3 166.6 184.9 166.6 M188.55 170.65 Q189.15 170.65 189.55 171.1 189.95 171.55 189.95 172.25 189.95 172.95 189.55 173.45 189.15 173.9 188.55 173.9 187.95 173.9 187.55 173.45 187.15 172.95 187.15 172.25 187.15 171.55 187.55 171.1 187.95 170.65 188.55 170.65 M242.65 161.15 Q242.8 160.65 243.3 160.5 243.75 160.3 244.35 160.5 244.9 160.7 245.15 161.2 245.35 161.6 245.2 162.1 L244.55 162.75 243.5 162.7 242.7 162.05 Q242.45 161.6 242.65 161.15 M240.55 163.85 L239.9 164.5 238.9 164.45 Q238.3 164.25 238.1 163.8 237.85 163.35 238.0 162.9 238.15 162.4 238.65 162.25 239.15 162.05 239.7 162.25 L240.5 162.9 Q240.7 163.35 240.55 163.85 M4.0 155.9 Q4.45 156.4 4.5 157.2 L4.05 158.55 Q3.6 159.05 2.95 159.05 2.3 159.05 1.85 158.55 1.35 158.05 1.35 157.25 1.35 156.45 1.8 155.95 2.2 155.4 2.9 155.4 3.55 155.35 4.0 155.9 M7.65 159.9 Q8.3 159.85 8.75 160.4 9.2 160.9 9.25 161.65 L8.8 163.0 Q8.35 163.5 7.7 163.55 7.0 163.55 6.55 163.05 6.1 162.5 6.1 161.75 6.05 160.95 6.5 160.45 6.95 159.9 7.65 159.9" fill="#151515" fill-opacity="0.7019608" fill-rule="evenodd" stroke="none"/>
    <path d="M251.45 27.85 L252.0 28.1 252.2 28.6 251.6 126.7 253.25 126.75 253.3 126.75 259.8 127.55 Q262.2 127.55 265.2 130.75 L265.4 131.15 265.3 131.65 264.95 131.95 264.5 132.0 262.3 131.35 260.5 131.05 Q259.5 131.05 258.5 131.65 L258.3 131.75 Q257.85 131.85 257.45 132.25 L257.45 132.3 Q256.2 133.45 255.55 134.95 253.3 139.3 251.75 143.95 L251.75 144.05 251.65 144.3 251.65 144.55 Q250.6 147.75 249.95 152.1 L253.05 155.7 254.15 156.45 Q256.25 157.45 258.45 156.75 L258.9 156.4 260.05 155.35 Q261.25 154.1 260.7 152.4 260.6 152.1 260.75 151.85 L260.8 151.75 Q260.15 150.3 259.1 149.55 258.25 149.0 257.05 149.05 L258.5 149.85 258.85 150.25 259.05 150.65 259.15 151.0 259.05 151.65 259.0 152.7 258.85 153.0 258.65 153.4 258.4 153.65 258.15 153.8 256.4 154.15 256.25 154.15 255.0 154.0 255.05 154.0 Q253.65 153.65 253.0 152.45 L253.0 152.4 Q252.35 151.4 252.2 150.1 L252.35 149.6 Q253.1 148.35 254.35 147.4 254.9 146.7 256.1 146.5 L257.95 146.45 258.0 146.5 259.4 146.85 259.45 146.85 Q261.35 147.45 262.65 149.4 264.45 152.15 263.9 155.15 L263.9 155.25 Q263.25 157.3 261.55 158.75 259.5 160.45 256.75 160.85 257.65 163.05 257.5 165.5 L257.5 165.6 Q256.7 169.9 252.75 172.75 250.15 174.7 247.2 174.6 L247.15 174.6 244.95 174.35 244.9 174.35 Q243.4 174.0 242.35 173.35 241.1 172.5 240.65 171.4 239.5 169.4 239.0 167.3 L239.05 166.75 Q239.95 165.0 241.3 163.95 L241.3 164.0 Q242.8 162.7 244.7 162.95 L246.45 163.35 246.55 163.4 248.8 164.85 249.0 165.1 249.1 165.4 249.25 166.2 249.25 166.5 248.75 167.95 248.6 168.85 248.45 169.1 247.85 169.7 247.4 169.9 243.8 170.45 Q246.15 171.8 248.1 171.35 L248.15 171.35 Q250.2 170.8 252.05 168.95 L252.0 168.65 252.05 168.35 252.15 168.1 Q254.0 165.75 252.9 163.15 L251.7 161.05 251.4 160.3 250.45 159.95 250.1 159.7 249.8 159.25 249.5 159.1 249.55 159.15 Q249.8 159.6 249.65 160.05 L248.95 160.7 247.9 160.65 247.15 160.0 Q246.9 159.55 247.05 159.1 247.2 158.65 247.7 158.45 L244.7 158.25 243.8 158.45 243.4 158.7 243.35 158.7 239.6 160.85 236.15 162.55 236.1 162.8 235.8 163.2 235.3 163.35 Q235.05 163.35 234.85 163.15 L234.7 163.0 230.45 164.3 230.5 164.3 Q226.3 165.55 222.4 165.65 210.95 166.15 208.3 165.75 L197.4 163.95 191.9 163.1 195.65 171.25 199.6 176.9 Q203.4 180.1 207.6 179.15 L209.6 178.5 210.7 175.75 210.05 174.6 209.9 174.95 209.85 175.0 208.1 177.7 207.7 178.0 207.2 177.95 205.55 176.8 203.8 174.85 203.65 174.3 Q203.85 172.8 204.6 171.4 205.2 170.15 206.25 169.2 L206.3 169.15 Q207.65 168.1 209.15 168.55 211.75 169.25 213.55 171.25 214.8 172.6 215.15 174.2 L215.15 174.25 215.3 175.8 215.6 176.6 215.6 177.05 Q214.0 181.85 210.05 183.85 L207.15 185.25 206.65 185.3 Q204.6 184.85 202.8 183.95 200.9 183.15 199.4 181.65 196.75 179.1 194.4 176.2 190.3 171.45 188.0 165.65 L188.0 165.6 187.05 162.8 187.0 162.45 187.15 162.15 189.55 158.65 183.15 158.55 Q183.15 159.55 182.65 160.4 L182.6 160.5 Q181.85 161.4 180.65 161.55 179.4 161.7 178.5 160.8 177.65 159.95 177.5 158.7 L177.5 158.5 50.4 156.7 52.1 162.7 Q53.2 165.65 50.8 170.85 L50.45 171.15 50.0 171.25 49.6 171.05 49.35 170.65 49.05 167.65 Q49.0 166.4 48.55 165.1 48.1 163.9 46.75 162.85 L46.6 162.75 45.4 161.85 45.35 161.85 Q43.25 160.95 41.05 160.75 34.55 160.15 28.0 160.55 L27.95 160.55 27.3 160.65 27.15 160.65 Q22.6 161.0 16.8 162.35 15.25 165.15 13.85 168.15 L13.8 168.2 Q13.45 168.85 13.4 169.9 13.2 173.25 15.25 175.7 L15.95 176.0 17.7 176.9 Q20.1 177.95 22.1 176.3 L22.55 176.1 22.95 176.15 Q24.45 174.5 24.95 172.7 25.25 171.05 24.15 169.1 L23.8 172.1 23.55 172.6 23.1 173.05 22.7 173.3 21.95 173.4 20.75 173.85 20.45 173.85 19.65 173.75 19.4 173.65 19.15 173.45 17.85 171.45 17.85 171.4 17.4 169.85 Q17.1 168.0 18.3 166.65 L18.25 166.7 Q19.15 165.5 20.7 164.6 L21.25 164.55 Q23.15 165.0 24.95 166.0 25.95 166.4 26.75 167.5 27.35 168.45 27.65 169.75 L27.95 171.75 Q28.1 174.4 26.4 176.85 L26.35 176.85 Q23.85 180.4 20.05 181.2 L19.95 181.2 Q17.15 181.4 14.6 180.05 L14.6 180.1 Q11.1 178.2 9.2 174.25 7.55 170.8 7.75 167.05 L7.9 166.7 8.9 165.1 10.45 161.85 10.45 161.9 10.85 160.7 6.05 156.95 5.85 156.65 5.8 156.3 Q5.85 155.2 5.3 154.05 L4.6 153.05 4.45 152.9 2.8 151.25 -0.65 150.85 -0.45 151.05 Q0.0 151.55 0.05 152.35 0.05 153.1 -0.4 153.65 -0.85 154.15 -1.5 154.2 -2.15 154.2 -2.6 153.65 -3.1 153.15 -3.1 152.4 -3.1 151.6 -2.65 151.05 L-2.3 150.75 Q-4.6 150.45 -7.25 147.65 L-7.45 147.2 -7.35 146.75 -7.0 146.45 -6.55 146.4 -4.35 147.0 -4.4 147.0 -2.65 147.3 Q-1.75 147.3 -0.7 146.7 L-0.55 146.65 0.3 146.1 0.25 146.15 2.15 143.5 2.15 143.55 Q4.2 139.3 5.75 134.85 L5.75 134.9 5.8 134.5 5.3 124.45 4.5 123.5 Q4.15 123.1 3.5 122.8 1.35 121.8 -0.7 122.45 L-0.95 122.8 -1.0 122.85 -2.15 123.75 Q-3.4 125.0 -2.85 126.7 L-2.9 127.25 -2.95 127.3 Q-2.35 128.65 -1.25 129.45 -0.55 129.9 0.55 129.9 L-0.8 129.15 -1.15 128.8 -1.35 128.3 -1.35 128.15 -1.3 127.4 -1.3 126.5 -1.2 126.2 -0.9 125.7 -0.45 125.35 1.3 124.95 1.4 124.95 2.65 125.15 2.6 125.15 Q3.9 125.45 4.6 126.6 L4.65 126.65 Q5.15 127.6 5.35 128.9 L5.25 129.45 3.25 131.6 Q2.65 132.2 1.65 132.4 L-0.2 132.45 -0.4 132.4 -1.65 132.1 -1.65 132.05 Q-3.55 131.45 -4.75 129.55 -6.55 126.85 -5.95 124.0 L-5.95 123.95 Q-5.4 121.95 -3.7 120.55 -1.5 118.6 1.75 118.4 L5.05 118.7 5.0 117.75 4.8 113.2 0.25 28.15 0.35 27.75 0.65 27.45 1.0 27.35 251.45 27.85 M235.55 162.7 L235.65 162.65 235.6 162.65 235.55 162.7" fill="#000000" fill-opacity="0.8509804" fill-rule="evenodd" stroke="none"/>
  </g>
</svg>
