<?xml version="1.0" encoding="UTF-8" standalone="no"?>
<svg xmlns:xlink="http://www.w3.org/1999/xlink" height="38.3px" width="38.3px" xmlns="http://www.w3.org/2000/svg">
  <g transform="matrix(1, 0, 0, 1, 19.15, 19.15)">
    <path d="M16.95 -2.2 L16.95 -2.5 19.15 -2.3 16.95 -2.2" fill="url(#gradient0)" fill-rule="evenodd" stroke="none"/>
    <path d="M16.95 -2.2 Q14.25 -2.4 11.45 -3.95 L10.7 -4.3 Q8.85 -3.6 7.05 -3.45 6.4 -1.55 5.0 -0.55 L3.85 -0.2 3.5 0.45 4.55 0.95 Q5.65 0.0 6.8 -0.35 L6.55 -0.85 11.7 -0.85 15.05 1.6 14.25 1.8 15.65 3.8 15.7 3.8 17.35 5.15 Q13.85 4.05 11.45 0.95 L11.0 0.5 Q9.15 0.9 7.4 0.45 6.1 1.6 4.5 2.15 L3.35 1.85 Q3.05 2.5 4.1 3.2 5.35 2.7 7.25 3.2 L7.25 2.55 Q9.6 4.0 11.15 6.9 L11.45 7.9 11.9 10.7 11.3 10.7 12.05 12.8 11.85 13.45 12.65 15.6 11.45 13.95 Q9.25 10.55 9.25 7.55 7.7 6.0 6.9 4.05 5.55 4.4 4.15 4.05 5.4 5.1 5.8 6.9 L5.8 8.3 Q7.15 14.35 2.9 17.0 2.05 18.2 0.3 19.15 -2.1 18.2 -2.95 17.0 -7.25 14.35 -5.85 8.3 L-5.85 6.9 Q-5.5 5.1 -4.2 4.05 -5.6 4.4 -6.9 4.05 -7.75 6.0 -9.3 7.55 -9.3 11.35 -12.7 15.6 L-11.85 13.45 -12.1 12.8 -11.35 10.7 -11.95 10.7 Q-11.85 8.95 -11.2 6.9 -9.65 4.0 -7.25 2.55 L-7.25 3.2 Q-5.45 2.7 -4.15 3.2 -3.15 2.5 -3.45 1.85 L-4.55 2.15 Q-6.15 1.6 -7.4 0.45 -9.2 0.9 -11.1 0.5 -13.7 4.0 -17.45 5.15 L-15.7 3.8 -14.3 1.8 -15.05 1.6 -11.8 -0.85 -6.6 -0.85 -6.85 -0.35 Q-5.7 0.0 -4.6 0.95 L-3.5 0.45 -3.85 -0.2 -5.05 -0.55 Q-6.45 -1.55 -7.05 -3.45 -8.95 -3.6 -10.8 -4.3 -15.15 -1.7 -19.15 -2.3 L-17.0 -2.5 -14.9 -3.8 -15.7 -4.2 Q-13.6 -5.4 -11.45 -6.05 -8.75 -6.1 -6.25 -4.8 L-7.0 -4.3 -5.85 -3.75 -4.5 -1.5 -3.75 -1.5 Q-3.35 -1.8 -3.3 -2.25 L-4.8 -4.25 Q-5.8 -6.25 -6.35 -10.45 L-7.0 -11.6 -6.25 -19.15 -4.6 -11.65 -5.0 -10.75 -4.85 -7.05 -3.55 -5.2 -3.3 -4.1 -2.7 -3.7 -2.35 -5.1 -2.15 -5.4 -1.7 -7.75 Q-0.7 -8.95 -0.45 -10.6 -0.1 -9.0 -1.05 -7.0 L-1.1 -5.45 Q-0.7 -5.85 -0.05 -5.85 L1.1 -5.45 1.0 -7.0 Q0.05 -9.0 0.45 -10.6 0.6 -8.95 1.6 -7.75 L2.05 -5.4 2.25 -5.1 2.7 -3.7 3.25 -4.1 3.55 -5.2 4.8 -7.05 4.95 -10.75 4.55 -11.65 6.2 -19.15 6.95 -11.6 6.3 -10.45 Q5.7 -6.25 4.7 -4.25 L3.2 -2.25 Q3.3 -1.8 3.7 -1.5 L4.45 -1.5 5.8 -3.75 6.95 -4.3 6.15 -4.8 Q8.6 -6.1 11.35 -6.05 L11.45 -6.05 Q13.55 -5.4 15.65 -4.2 L14.85 -3.8 16.95 -2.5 16.95 -2.2" fill="url(#gradient1)" fill-rule="evenodd" stroke="none"/>
  </g>
  <defs>
    <radialGradient cx="0" cy="0" gradientTransform="matrix(0.0404, 0.0, 0.0, 0.0262, -0.05, -5.85)" gradientUnits="userSpaceOnUse" id="gradient0" r="819.2" spreadMethod="pad">
      <stop offset="0.0" stop-color="#6fabe6"/>
      <stop offset="0.5607843137254902" stop-color="#d1e5f8"/>
      <stop offset="1.0" stop-color="#ffffff"/>
    </radialGradient>
    <radialGradient cx="0" cy="0" gradientTransform="matrix(0.0227, 0.0, 0.0, 0.0227, -0.45, -0.25)" gradientUnits="userSpaceOnUse" id="gradient1" r="819.2" spreadMethod="pad">
      <stop offset="0.0" stop-color="#ffffff"/>
      <stop offset="0.5607843137254902" stop-color="#d1e5f8"/>
      <stop offset="1.0" stop-color="#6fabe6"/>
    </radialGradient>
  </defs>
</svg>
