<?xml version="1.0" encoding="UTF-8" standalone="no"?>
<svg xmlns:xlink="http://www.w3.org/1999/xlink" height="10.2px" width="17.45px" xmlns="http://www.w3.org/2000/svg">
  <g transform="matrix(1, 0, 0, 1, -0.65, 16.8)">
    <path d="M15.95 -11.05 L16.0 -10.85 16.0 -10.8 15.65 -10.1 15.3 -9.85 14.65 -9.5 13.75 -9.2 13.45 -9.1 12.0 -8.8 10.1 -8.6 8.3 -8.5 7.8 -8.5 5.4 -8.7 3.8 -9.0 2.9 -9.2 2.5 -9.35 1.4 -9.8 1.3 -9.85 Q0.65 -10.3 0.65 -10.8 L0.65 -10.85 0.7 -11.1 Q0.8 -10.7 1.4 -10.35 L2.45 -9.9 2.9 -9.75 3.8 -9.5 5.4 -9.25 7.8 -9.05 8.3 -9.05 10.1 -9.1 12.0 -9.35 13.4 -9.65 13.75 -9.75 14.65 -10.05 15.65 -10.65 15.95 -11.05" fill="url(#gradient0)" fill-rule="evenodd" stroke="none"/>
    <path d="M10.15 -15.9 L9.1 -15.95 5.85 -15.55 5.35 -15.4 5.0 -15.25 Q4.6 -15.1 4.5 -14.85 L4.5 -15.0 4.65 -15.3 5.0 -15.5 5.85 -15.8 9.1 -16.15 12.3 -15.8 Q13.45 -15.55 13.6 -15.15 L13.65 -15.0 13.65 -14.9 13.6 -14.9 13.6 -14.95 12.3 -15.55 10.15 -15.9" fill="#ebcc1f" fill-rule="evenodd" stroke="none"/>
    <path d="M7.8 -6.6 L5.4 -6.8 5.4 -8.7 7.8 -8.5 7.8 -6.6 M6.35 -13.3 L8.6 -13.2 8.6 -11.7 6.35 -11.8 6.35 -13.3 M7.8 -10.95 L7.8 -9.05 5.4 -9.25 5.4 -11.15 7.8 -10.95" fill="#d2b513" fill-rule="evenodd" stroke="none"/>
    <path d="M15.65 -8.2 L14.65 -7.6 14.65 -9.5 15.3 -9.85 15.65 -10.1 15.65 -8.2 M13.4 -7.2 L12.0 -6.9 12.0 -8.8 13.45 -9.1 13.4 -7.2 M10.1 -6.65 L8.3 -6.6 7.8 -6.6 7.8 -8.5 8.3 -8.5 10.1 -8.6 10.1 -6.65 M5.4 -6.8 L3.8 -7.05 3.8 -9.0 5.4 -8.7 5.4 -6.8 M2.45 -7.45 L1.4 -7.9 1.4 -9.8 2.5 -9.35 2.45 -7.45 M2.65 -14.2 Q3.0 -14.0 3.6 -13.85 L3.6 -12.35 Q3.0 -12.5 2.65 -12.7 L2.65 -14.2 M4.85 -13.55 L6.35 -13.3 6.35 -11.8 4.85 -12.05 4.85 -13.55 M8.6 -13.2 L9.05 -13.2 10.75 -13.25 10.75 -11.75 9.05 -11.7 8.6 -11.7 8.6 -13.2 M12.5 -13.4 L12.95 -13.5 13.0 -13.5 12.9 -12.2 13.85 -13.4 13.8 -12.15 12.5 -11.9 12.5 -12.95 12.5 -13.15 12.5 -13.4 M15.6 -14.25 L15.9 -14.45 15.9 -13.45 14.95 -13.75 14.95 -13.95 15.4 -14.15 15.6 -14.25 M14.95 -12.45 L14.95 -13.4 15.9 -13.15 15.9 -12.95 14.95 -12.45 M15.65 -12.55 L15.65 -10.65 14.65 -10.05 14.65 -11.95 14.8 -12.05 15.3 -12.3 15.65 -12.55 M7.8 -10.95 L8.3 -10.95 10.1 -11.05 10.1 -9.1 8.3 -9.05 7.8 -9.05 7.8 -10.95 M12.0 -11.25 L12.4 -11.35 12.85 -11.4 13.45 -11.55 13.4 -9.65 12.0 -9.35 12.0 -11.25 M5.4 -11.15 L5.4 -9.25 3.8 -9.5 3.8 -11.45 3.85 -11.4 4.25 -11.35 5.4 -11.15 M2.5 -11.8 L2.45 -9.9 1.4 -10.35 1.4 -12.25 1.8 -12.05 2.5 -11.8" fill="#eac915" fill-rule="evenodd" stroke="none"/>
    <path d="M12.0 -6.9 L10.1 -6.65 10.1 -8.6 12.0 -8.8 12.0 -6.9 M10.75 -13.25 L12.25 -13.4 12.5 -13.4 12.5 -13.15 12.5 -12.95 12.5 -11.9 10.75 -11.75 10.75 -13.25 M10.1 -9.1 L10.1 -11.05 11.7 -11.2 12.0 -11.25 12.0 -9.35 10.1 -9.1" fill="#d9bb13" fill-rule="evenodd" stroke="none"/>
    <path d="M3.8 -7.05 L2.9 -7.3 2.45 -7.45 2.5 -9.35 2.9 -9.2 3.8 -9.0 3.8 -7.05 M1.4 -7.9 Q0.8 -8.25 0.7 -8.65 L0.65 -10.8 Q0.65 -10.3 1.3 -9.85 L1.4 -9.8 1.4 -7.9 M0.7 -11.1 L0.65 -13.25 Q0.65 -12.75 1.3 -12.3 L1.4 -12.25 1.4 -10.35 Q0.8 -10.7 0.7 -11.1 M1.9 -14.55 L1.9 -14.95 2.05 -14.6 Q2.2 -14.4 2.55 -14.25 2.55 -14.25 2.65 -14.2 L2.65 -12.7 1.95 -13.25 1.9 -14.55 M3.6 -13.85 L3.75 -13.8 4.0 -13.7 4.1 -13.7 4.85 -13.55 4.85 -12.05 4.0 -12.2 3.6 -12.35 3.6 -13.85 M2.5 -11.8 L2.9 -11.65 3.8 -11.45 3.8 -9.5 2.9 -9.75 2.45 -9.9 2.5 -11.8" fill="#c2a812" fill-rule="evenodd" stroke="none"/>
    <path d="M16.25 -15.0 L16.25 -13.45 16.2 -13.3 15.9 -13.45 15.9 -14.45 16.25 -15.0 M16.1 -13.1 L16.0 -13.0 16.0 -11.35 15.95 -11.05 15.65 -10.65 15.65 -12.55 15.95 -12.95 16.0 -13.0 15.95 -12.95 15.9 -12.95 15.9 -13.15 16.1 -13.1 M16.0 -10.8 L16.0 -8.9 15.65 -8.2 15.65 -10.1 16.0 -10.8 M14.65 -7.6 L13.75 -7.3 13.4 -7.2 13.45 -9.1 13.75 -9.2 14.65 -9.5 14.65 -7.6 M13.8 -12.15 L13.85 -13.4 14.95 -12.55 14.1 -13.6 14.95 -13.4 14.95 -12.45 14.15 -12.2 13.8 -12.15 M14.95 -13.95 L14.95 -13.75 14.65 -13.85 14.95 -13.95 M13.45 -11.55 L13.75 -11.65 14.65 -11.95 14.65 -10.05 13.75 -9.75 13.4 -9.65 13.45 -11.55" fill="#ead915" fill-rule="evenodd" stroke="none"/>
    <path d="M16.2 -13.3 L18.1 -12.65 16.1 -13.1 15.9 -13.15 14.95 -13.4 14.1 -13.6 14.95 -12.55 13.85 -13.4 12.9 -12.2 13.0 -13.5 13.0 -13.7 11.4 -13.55 12.75 -14.0 12.35 -14.15 12.3 -14.15 11.7 -14.0 11.0 -13.95 10.15 -13.95 10.8 -14.05 11.3 -14.15 11.9 -14.3 11.95 -14.3 9.15 -15.35 12.45 -14.5 12.7 -14.55 12.2 -15.3 12.95 -14.7 12.5 -15.2 10.15 -15.9 12.3 -15.55 13.6 -14.95 13.6 -14.9 13.15 -14.5 13.35 -14.35 14.4 -15.55 14.1 -14.15 15.05 -14.55 Q16.25 -15.1 12.55 -16.2 L14.7 -15.8 Q15.75 -15.45 16.0 -14.95 L15.4 -14.3 15.2 -14.2 15.6 -14.25 14.7 -14.0 14.45 -13.95 14.65 -13.85 14.95 -13.75 15.9 -13.45 16.2 -13.3" fill="#ffffff" fill-rule="evenodd" stroke="none"/>
    <path d="M0.65 -13.25 L0.65 -13.3 Q0.65 -14.0 1.9 -14.55 L1.95 -13.25 2.65 -12.7 Q3.0 -12.5 3.6 -12.35 L4.0 -12.2 4.85 -12.05 6.35 -11.8 8.6 -11.7 9.05 -11.7 10.75 -11.75 12.5 -11.9 13.8 -12.15 14.15 -12.2 14.95 -12.45 15.9 -12.95 15.95 -12.95 15.65 -12.55 15.3 -12.3 14.8 -12.05 14.65 -11.95 13.75 -11.65 13.45 -11.55 12.85 -11.4 12.4 -11.35 12.0 -11.25 11.7 -11.2 10.1 -11.05 8.3 -10.95 7.8 -10.95 5.4 -11.15 4.25 -11.35 3.85 -11.4 3.8 -11.45 2.9 -11.65 2.5 -11.8 1.8 -12.05 1.4 -12.25 1.3 -12.3 Q0.65 -12.75 0.65 -13.25" fill="url(#gradient1)" fill-rule="evenodd" stroke="none"/>
    <path d="M1.9 -14.95 L1.9 -15.0 Q1.9 -15.75 4.0 -16.25 L5.0 -16.5 9.05 -16.8 13.6 -16.4 14.15 -16.25 Q16.2 -15.75 16.25 -15.0 L15.9 -14.45 15.6 -14.25 15.2 -14.2 15.4 -14.3 16.0 -14.95 Q15.75 -15.45 14.7 -15.8 L12.55 -16.2 Q16.25 -15.1 15.05 -14.55 L14.1 -14.15 14.4 -15.55 13.35 -14.35 13.15 -14.5 13.6 -14.9 13.65 -14.9 13.65 -15.0 13.6 -15.15 Q13.45 -15.55 12.3 -15.8 L9.1 -16.15 5.85 -15.8 5.0 -15.5 4.65 -15.3 4.5 -15.0 4.5 -14.85 Q4.6 -15.1 5.0 -15.25 L5.35 -15.4 5.85 -15.55 9.1 -15.95 10.15 -15.9 12.5 -15.2 12.95 -14.7 12.2 -15.3 12.7 -14.55 12.45 -14.5 9.15 -15.35 11.95 -14.3 11.9 -14.3 11.3 -14.15 10.8 -14.05 10.15 -13.95 11.0 -13.95 11.7 -14.0 12.3 -14.15 12.35 -14.15 12.75 -14.0 11.4 -13.55 13.0 -13.7 13.0 -13.5 12.95 -13.5 12.5 -13.4 12.25 -13.4 10.75 -13.25 9.05 -13.2 8.6 -13.2 6.35 -13.3 4.85 -13.55 4.1 -13.7 4.0 -13.7 3.75 -13.8 3.6 -13.85 Q3.0 -14.0 2.65 -14.2 2.55 -14.25 2.55 -14.25 2.2 -14.4 2.05 -14.6 L1.9 -14.95 M14.65 -13.85 L14.45 -13.95 14.7 -14.0 15.6 -14.25 15.4 -14.15 14.95 -13.95 14.65 -13.85" fill="url(#gradient2)" fill-rule="evenodd" stroke="none"/>
    <path d="M1.9 -14.95 L1.9 -15.0 Q1.9 -15.75 4.0 -16.25 L5.0 -16.5 9.05 -16.8 13.6 -16.4 14.15 -16.25 Q16.2 -15.75 16.25 -15.0 L16.25 -13.45 16.2 -13.3 M16.1 -13.1 L16.0 -13.0 16.0 -11.35 15.95 -11.05 16.0 -10.85 16.0 -10.8 16.0 -8.9 15.65 -8.2 14.65 -7.6 13.75 -7.3 13.4 -7.2 12.0 -6.9 M0.65 -10.8 L0.65 -10.85 0.7 -11.1 M0.65 -13.25 L0.65 -13.3 Q0.65 -14.0 1.9 -14.55 M12.5 -11.9 L13.8 -12.15 M15.65 -10.65 L15.95 -11.05 M15.95 -12.95 L16.0 -13.0 M15.9 -12.95 L15.95 -12.95 M15.9 -12.95 L14.95 -12.45 14.15 -12.2 13.8 -12.15 M14.65 -10.05 L13.75 -9.75 13.4 -9.65 12.0 -9.35 M14.65 -10.05 L15.65 -10.65" fill="none" stroke="#999900" stroke-linecap="round" stroke-linejoin="round" stroke-width="0.05"/>
    <path d="M12.0 -6.9 L10.1 -6.65 8.3 -6.6 7.8 -6.6 5.4 -6.8 3.8 -7.05 2.9 -7.3 2.45 -7.45 1.4 -7.9 Q0.8 -8.25 0.7 -8.65 L0.65 -10.8 M0.7 -11.1 L0.65 -13.25 M1.9 -14.55 L1.9 -14.95 M2.65 -12.7 L1.95 -13.25 1.9 -14.55 M2.65 -12.7 Q3.0 -12.5 3.6 -12.35 M8.6 -11.7 L9.05 -11.7 10.75 -11.75 M7.8 -9.05 L8.3 -9.05 10.1 -9.1 M6.35 -11.8 L8.6 -11.7 M5.4 -9.25 L7.8 -9.05 M2.45 -9.9 L2.9 -9.75 3.8 -9.5 M4.85 -12.05 L4.0 -12.2 3.6 -12.35 M1.4 -10.35 L2.45 -9.9 M1.4 -10.35 Q0.8 -10.7 0.7 -11.1 M4.85 -12.05 L6.35 -11.8 M5.4 -9.25 L3.8 -9.5 M12.0 -9.35 L10.1 -9.1 M12.5 -11.9 L10.75 -11.75" fill="none" stroke="#c9bc1d" stroke-linecap="round" stroke-linejoin="round" stroke-width="0.05"/>
  </g>
  <defs>
    <linearGradient gradientTransform="matrix(0.0094, 0.0, 0.0, 0.0028, 8.3, -10.85)" gradientUnits="userSpaceOnUse" id="gradient0" spreadMethod="pad" x1="-819.2" x2="819.2">
      <stop offset="0.0" stop-color="#ead915"/>
      <stop offset="1.0" stop-color="#fafe9e"/>
    </linearGradient>
    <linearGradient gradientTransform="matrix(0.0094, 0.0, 0.0, 0.0028, 8.3, -13.3)" gradientUnits="userSpaceOnUse" id="gradient1" spreadMethod="pad" x1="-819.2" x2="819.2">
      <stop offset="0.0" stop-color="#ead915"/>
      <stop offset="1.0" stop-color="#fafe9e"/>
    </linearGradient>
    <linearGradient gradientTransform="matrix(0.0087, 0.0, 0.0, 0.0022, 9.05, -15.0)" gradientUnits="userSpaceOnUse" id="gradient2" spreadMethod="pad" x1="-819.2" x2="819.2">
      <stop offset="0.0" stop-color="#ead915"/>
      <stop offset="1.0" stop-color="#fafe9e"/>
    </linearGradient>
  </defs>
</svg>
