<?xml version="1.0" encoding="UTF-8" standalone="no"?>
<svg xmlns:xlink="http://www.w3.org/1999/xlink" height="32.4px" width="39.55px" xmlns="http://www.w3.org/2000/svg">
  <g transform="matrix(1, 0, 0, 1, 18.95, 24.9)">
    <path d="M-17.15 -4.75 L-17.15 -4.8 -17.0 -5.25 -17.0 -4.3 -16.8 -4.05 -17.15 -4.75" fill="url(#gradient0)" fill-rule="evenodd" stroke="none"/>
    <path d="M5.9 -18.75 L5.55 -18.85 4.0 -19.2 2.55 -19.55 3.95 -17.85 2.1 -19.25 0.55 -17.2 0.75 -19.35 0.75 -19.75 -1.95 -19.5 0.3 -20.2 -0.45 -20.45 -1.1 -20.35 -2.05 -20.2 -4.0 -20.15 -2.6 -20.35 -1.95 -20.5 -1.15 -20.75 -5.65 -22.45 -0.15 -21.05 0.2 -21.15 0.25 -21.2 -0.65 -22.4 0.6 -21.4 0.6 -21.8 Q0.05 -22.45 -4.0 -23.4 L-0.4 -22.85 Q1.4 -22.4 1.75 -21.75 L1.55 -21.6 1.0 -21.05 1.3 -20.8 3.05 -22.8 2.55 -20.5 2.6 -20.5 4.15 -21.1 Q6.2 -22.05 -0.05 -23.85 L3.55 -23.2 Q5.35 -22.65 5.7 -21.85 L4.7 -20.75 4.35 -20.55 5.0 -20.6 5.15 -20.6 4.9 -20.55 3.55 -20.25 3.1 -20.1 3.45 -20.0 4.0 -19.8 5.55 -19.25 6.05 -19.1 9.2 -18.0 5.9 -18.75 M4.75 -10.2 L5.0 -10.8 6.3 -9.8 5.3 -8.7 4.95 -8.5 5.6 -8.55 5.75 -8.55 5.5 -8.5 4.15 -8.2 3.7 -8.05 4.05 -7.95 4.6 -7.75 6.15 -7.2 6.65 -7.05 6.8 -7.0 9.8 -5.95 6.8 -6.65 6.7 -6.7 6.5 -6.75 6.15 -6.8 4.6 -7.15 3.15 -7.5 4.35 -6.0 4.25 -6.0 2.7 -7.2 1.15 -5.15 1.35 -7.3 1.35 -7.7 -1.35 -7.45 0.9 -8.15 0.2 -8.4 1.0 -8.6 1.5 -8.7 1.85 -8.8 1.9 -8.75 2.0 -8.85 2.9 -9.1 3.35 -9.3 3.15 -8.45 3.2 -8.45 4.75 -9.05 Q5.75 -9.55 4.75 -10.2 M-1.2 -8.2 L0.2 -8.4 -0.4 -8.3 -1.3 -8.15 -1.5 -8.15 -1.2 -8.2 M3.2 -3.8 L3.65 -3.5 3.5 -3.8 3.3 -5.15 5.55 -5.4 8.5 -4.5 5.7 -4.9 6.0 -2.4 6.35 -2.5 6.3 -2.85 6.15 -3.45 6.7 -3.65 8.25 -3.45 11.15 -2.4 Q7.0 -3.5 6.8 -2.8 L6.8 -2.6 8.2 -3.0 6.95 -2.3 7.0 -2.25 7.15 -2.0 11.9 -0.9 7.75 -1.3 7.85 -1.2 8.45 -0.55 9.25 0.15 9.3 0.2 9.55 0.4 9.2 0.2 7.7 -0.85 7.1 -1.4 6.4 -1.45 7.75 0.1 5.85 -1.25 5.7 -0.95 4.75 1.05 4.65 -1.4 2.6 -0.95 4.45 -1.85 3.2 -2.2 1.9 -2.5 1.6 -2.6 0.35 -2.9 -1.15 -3.35 0.6 -3.1 1.5 -3.0 1.65 -2.95 2.15 -2.9 3.5 -2.7 4.0 -2.65 4.35 -2.6 4.1 -2.85 3.25 -3.7 3.1 -3.85 3.2 -3.8 M5.05 1.75 L4.4 1.75 4.95 1.65 5.0 1.7 5.05 1.75 M4.9 -2.65 L5.7 -4.9 Q3.35 -5.05 4.1 -3.9 L4.9 -2.7 4.9 -2.65" fill="#ffffff" fill-rule="evenodd" stroke="none"/>
    <path d="M1.75 -21.75 Q1.4 -22.4 -0.4 -22.85 L-4.0 -23.4 -5.8 -23.45 -11.2 -22.85 -12.65 -22.35 -13.4 -21.65 -13.45 -21.85 Q-13.45 -22.35 -12.65 -22.75 L-11.2 -23.25 -5.8 -23.85 -0.4 -23.25 Q1.45 -22.75 1.75 -22.1 L1.8 -21.9 1.8 -21.85 1.8 -21.7 1.75 -21.75 M6.15 -3.45 L6.15 -3.4 6.1 -3.4 6.15 -3.55 6.2 -3.6 6.3 -3.75 6.7 -3.9 8.45 -3.8 Q10.35 -3.35 12.7 -2.05 15.0 -0.7 16.35 0.75 L17.15 1.8 Q17.55 2.45 17.3 2.9 L17.2 3.05 Q17.25 2.65 16.95 2.15 L16.15 1.1 Q14.8 -0.35 12.5 -1.7 L11.15 -2.4 8.25 -3.45 6.7 -3.65 6.15 -3.45 M2.0 -1.5 L0.5 -1.4 -1.7 -0.95 -2.45 -0.65 -2.9 -0.45 -3.55 0.25 -3.55 0.05 Q-3.55 -0.45 -2.9 -0.85 L-2.45 -1.05 -1.7 -1.35 0.5 -1.8 1.8 -1.9 2.0 -1.5" fill="#ebcc1f" fill-rule="evenodd" stroke="none"/>
    <path d="M5.55 -18.85 L5.55 -18.45 5.25 -18.25 5.25 -15.85 4.9 -15.6 4.35 -15.35 3.7 -15.05 4.35 -15.35 4.35 -13.15 2.8 -12.35 2.8 -14.8 3.7 -15.05 3.7 -17.55 3.85 -17.6 4.0 -17.65 4.0 -19.2 5.55 -18.85 M5.55 -19.25 L4.0 -19.8 4.0 -20.15 4.8 -20.5 4.9 -20.55 5.15 -20.6 5.0 -20.6 5.05 -20.65 5.55 -20.95 5.55 -19.25 M0.75 -19.35 L0.55 -17.2 2.1 -19.25 2.1 -17.15 -0.1 -16.75 -0.1 -19.25 0.2 -19.3 0.75 -19.35 M4.0 -17.65 L5.25 -18.25 4.0 -17.65 M-0.4 -16.65 L0.3 -16.75 0.55 -16.8 1.8 -17.05 1.8 -14.55 1.25 -14.4 -0.4 -14.15 -0.4 -16.65 M-1.3 -13.95 L-0.65 -14.05 0.0 -14.15 0.9 -14.35 0.9 -11.85 -1.3 -11.45 -1.3 -13.95 M4.45 -12.4 L4.45 -9.9 3.35 -9.3 2.9 -9.1 2.9 -11.6 3.55 -11.85 3.95 -12.1 4.45 -12.4 M5.6 -8.55 L5.65 -8.6 6.15 -8.9 6.15 -7.2 4.6 -7.75 4.6 -8.1 5.5 -8.5 5.75 -8.55 5.6 -8.55 M17.7 7.5 L16.2 7.35 17.4 5.2 18.95 5.35 17.7 7.5 M14.45 6.9 L12.4 6.15 13.65 4.0 15.7 4.75 14.45 6.9 M9.55 4.75 L7.7 5.15 7.7 3.65 9.0 4.45 9.55 4.75 9.0 4.45 7.7 3.65 7.0 3.2 8.25 1.05 8.3 1.1 10.0 2.15 10.25 2.3 10.8 2.6 9.55 4.75 M5.2 5.45 L2.85 5.55 2.2 5.55 2.2 3.05 2.85 3.05 5.25 2.95 5.2 5.45 M-0.95 5.3 L-3.1 4.95 -3.1 2.45 -0.95 2.8 -0.95 5.3 M-4.8 4.45 L-6.2 3.85 -6.2 1.35 -4.8 1.95 -4.8 4.45 M-9.75 0.5 L-12.3 0.15 -12.3 -2.3 -12.2 -2.25 -12.2 -4.75 -9.65 -4.4 -9.65 -1.9 -9.75 -1.9 -9.75 0.5 M-14.35 -0.35 L-15.95 -0.95 -15.95 -3.4 -15.85 -3.35 -15.85 -5.85 -14.2 -5.25 -14.25 -2.75 -14.3 -2.75 -14.35 -0.35 M-17.15 -9.25 L-17.65 -9.5 -17.65 -12.0 -16.0 -11.4 -16.05 -8.9 -16.9 -9.15 -17.15 -9.25 M-16.55 -20.55 L-14.9 -19.95 -14.95 -17.45 -16.55 -18.05 -16.55 -20.55 M-12.9 -19.45 L-10.35 -19.1 -10.35 -16.6 -12.9 -16.95 -12.9 -19.45 M-6.6 -18.85 L-5.85 -18.85 -3.05 -18.95 -3.05 -16.45 -5.85 -16.35 -6.6 -16.35 -6.6 -18.85 M6.15 -6.8 L6.15 -6.4 5.45 -5.95 4.6 -6.0 4.6 -7.15 6.15 -6.8 M6.25 -6.25 L6.25 -5.8 5.75 -5.9 5.8 -5.95 6.25 -6.25 M-1.2 -10.7 L-1.0 -10.7 -0.1 -10.85 0.75 -11.05 1.0 -11.1 1.0 -8.6 0.2 -8.4 -1.2 -8.2 -1.2 -10.7 M1.35 -7.3 L1.15 -5.15 2.7 -7.2 2.7 -5.1 0.5 -4.7 0.5 -7.2 1.1 -7.3 1.35 -7.3 M2.95 -4.35 L3.15 -3.85 3.2 -3.8 3.1 -3.85 3.25 -3.7 3.7 -3.0 3.5 -2.7 2.15 -2.9 2.95 -4.35 M5.7 -0.95 L6.25 -0.45 5.05 1.65 5.0 1.7 4.95 1.65 3.6 0.45 4.65 -1.4 4.75 1.05 5.7 -0.95 M2.75 -4.95 L1.75 -3.2 1.65 -3.0 1.5 -3.0 0.6 -3.1 0.6 -4.55 1.25 -4.65 2.25 -4.8 2.4 -4.85 2.75 -4.95 M1.9 -2.5 L3.2 -2.2 2.45 -0.85 2.0 -1.5 1.8 -1.9 1.7 -2.15 1.9 -2.5 M-2.35 -2.55 L-2.9 -2.45 -4.25 -2.1 -6.0 -1.4 -6.0 -1.65 -5.9 -1.65 -5.9 -4.15 -5.15 -4.15 -2.35 -4.25 -2.35 -2.55 M-3.35 -13.85 L-6.15 -13.75 -6.9 -13.75 -6.9 -16.25 -6.15 -16.25 -3.35 -16.35 -3.35 -13.85 M-10.65 -16.5 L-10.65 -14.0 -13.2 -14.35 -13.2 -16.85 -10.65 -16.5 M-15.25 -14.85 L-16.85 -15.45 -16.85 -17.95 -15.2 -17.35 -15.25 -14.85 M-4.25 -11.15 L-7.05 -11.05 -7.8 -11.05 -7.8 -13.55 -7.05 -13.55 -4.25 -13.65 -4.25 -11.15 M-17.75 -12.75 L-17.75 -15.25 -17.05 -14.95 -16.1 -14.65 -16.15 -12.15 -17.75 -12.75 M-14.1 -14.15 L-13.85 -14.1 -13.25 -14.0 -11.55 -13.8 -11.55 -11.3 -14.1 -11.65 -14.1 -14.15 M-14.0 -10.9 L-12.15 -10.6 -11.45 -10.55 -11.45 -8.05 -14.0 -8.4 -14.0 -10.9 M-15.95 -8.5 L-15.9 -8.5 -14.3 -7.9 -14.35 -5.4 -15.95 -6.0 -15.95 -8.5 M-12.3 -7.4 L-9.75 -7.05 -9.75 -4.55 -12.3 -4.9 -12.3 -7.4 M-6.0 -4.3 L-6.0 -6.8 -5.25 -6.8 -2.45 -6.9 -2.45 -4.4 -5.25 -4.3 -6.0 -4.3 M-4.15 -7.9 L-6.95 -7.8 -7.7 -7.8 -7.7 -10.3 -6.95 -10.3 -4.95 -10.35 -4.9 -10.35 -4.15 -10.4 -4.15 -7.9" fill="#eac915" fill-rule="evenodd" stroke="none"/>
    <path d="M5.55 -18.85 L5.9 -18.75 5.8 -18.7 5.55 -18.45 5.8 -18.7 5.8 -16.75 Q5.8 -16.25 5.25 -15.85 L5.25 -18.25 5.55 -18.45 5.55 -18.85 M6.05 -19.1 L5.55 -19.25 5.55 -20.95 Q6.1 -21.35 6.1 -21.85 L6.1 -19.35 6.05 -19.1 M4.0 -19.8 L3.45 -20.0 4.0 -20.15 4.0 -19.8 M2.1 -19.25 L3.95 -17.85 2.55 -19.55 4.0 -19.2 4.0 -17.65 3.85 -17.6 3.7 -17.55 2.6 -17.25 2.1 -17.15 2.1 -19.25 M3.7 -17.55 L3.7 -15.05 2.8 -14.8 2.3 -14.65 1.8 -14.55 2.3 -14.65 2.8 -14.8 2.8 -12.35 1.4 -11.95 0.9 -11.85 0.9 -14.35 1.25 -14.4 1.8 -14.55 1.8 -17.05 2.3 -17.15 3.7 -17.55 M4.35 -15.35 L4.9 -15.6 4.9 -14.05 4.85 -13.8 4.35 -13.15 4.35 -15.35 M4.45 -12.4 Q5.0 -12.8 5.0 -13.3 L5.0 -11.4 5.0 -10.8 4.75 -10.2 4.45 -9.9 4.45 -12.4 M6.15 -8.9 Q6.7 -9.3 6.7 -9.8 L6.7 -7.6 6.7 -7.3 6.65 -7.05 6.15 -7.2 6.15 -8.9 M6.8 -7.15 L6.8 -7.0 6.8 -7.15 M6.8 -6.65 L6.8 -5.7 6.65 -5.75 6.25 -5.8 6.25 -6.25 6.7 -6.7 6.8 -6.65 M6.15 -6.4 L6.15 -6.8 6.5 -6.75 6.15 -6.4 M4.6 -7.15 L4.6 -6.0 4.35 -6.0 3.15 -7.5 4.6 -7.15 M4.6 -7.75 L4.05 -7.95 4.6 -8.1 4.6 -7.75 M1.0 -11.1 L1.5 -11.2 2.05 -11.35 2.65 -11.5 2.9 -11.6 2.9 -9.1 2.0 -8.85 1.85 -8.8 1.5 -8.7 1.0 -8.6 1.0 -11.1 M2.7 -7.2 L4.25 -6.0 Q3.35 -5.95 3.05 -5.4 L3.0 -5.35 3.0 -5.3 3.0 -5.25 2.95 -5.25 2.9 -5.15 2.9 -4.95 Q2.85 -4.7 2.95 -4.35 L2.15 -2.9 1.65 -2.95 1.65 -3.0 1.75 -3.2 2.75 -4.95 2.9 -5.15 2.7 -5.1 2.7 -7.2 M2.9 -5.15 L2.95 -5.25 2.9 -5.15 M4.0 -2.65 L3.5 -2.7 3.7 -3.0 4.0 -2.65 M1.6 -2.6 L1.9 -2.5 1.7 -2.15 1.6 -2.6 M3.2 -2.2 L4.45 -1.85 2.6 -0.95 4.65 -1.4 3.6 0.45 3.25 0.1 2.45 -0.85 3.2 -2.2" fill="#ead915" fill-rule="evenodd" stroke="none"/>
    <path d="M-0.1 -19.25 L-0.1 -16.75 -3.05 -16.45 -3.05 -18.95 -0.1 -19.25 M-0.4 -16.65 L-0.4 -14.15 -3.35 -13.85 -3.35 -16.35 -0.7 -16.6 -0.4 -16.65 M7.7 5.15 L5.2 5.45 5.25 2.95 6.5 2.85 Q5.7 2.3 5.05 1.75 L5.0 1.7 5.05 1.65 6.25 -0.45 7.85 0.8 8.25 1.05 7.0 3.2 7.7 3.65 7.7 5.15 M-1.2 -10.7 L-1.2 -8.2 -1.5 -8.15 -4.15 -7.9 -4.15 -10.4 -1.2 -10.7 M0.5 -7.2 L0.5 -4.7 -2.45 -4.4 -2.45 -6.9 0.5 -7.2 M0.6 -4.55 L0.6 -3.1 -1.15 -3.35 0.35 -2.9 -2.35 -2.55 -2.35 -4.25 0.6 -4.55 M7.0 3.2 L6.5 2.85 7.0 3.2 M-4.25 -11.15 L-4.25 -13.65 -1.7 -13.9 -1.3 -13.95 -1.3 -11.45 -4.25 -11.15" fill="#d9bb13" fill-rule="evenodd" stroke="none"/>
    <path d="M20.45 4.75 L19.0 7.15 17.7 7.5 18.95 5.35 19.1 5.35 Q20.1 5.3 20.45 4.75 M16.2 7.35 L15.6 7.2 14.45 6.9 15.7 4.75 16.85 5.05 17.4 5.2 16.2 7.35 M-3.1 4.95 L-4.25 4.65 -4.8 4.45 -4.8 1.95 -4.25 2.15 -3.1 2.45 -3.1 4.95 M-6.2 3.85 L-7.15 2.9 -7.2 0.7 -7.2 0.05 -6.95 0.7 -6.3 1.25 -6.2 1.35 -6.2 3.85 M-12.3 0.15 L-13.65 -0.15 -14.35 -0.35 -14.3 -2.75 -14.25 -2.75 -14.2 -5.25 -13.55 -5.05 -12.8 -4.9 -12.6 -4.85 -12.2 -4.75 -12.2 -2.25 -12.3 -2.3 -12.3 0.15 M-15.95 -0.95 L-17.1 -1.9 -17.15 -4.75 -16.8 -4.05 -17.0 -4.3 -17.0 -5.25 -17.05 -6.9 -17.1 -6.95 -17.15 -9.25 -16.9 -9.15 -16.1 -8.6 -15.95 -8.5 -15.95 -6.0 -16.9 -6.65 -16.15 -6.0 -16.0 -5.95 -15.85 -5.85 -15.85 -3.35 -15.95 -3.4 -15.95 -0.95 M-17.65 -9.5 L-18.8 -10.45 -18.85 -13.3 Q-18.85 -12.65 -17.8 -12.1 L-17.65 -12.0 -17.65 -9.5 M-18.8 -13.6 L-18.9 -13.7 -18.95 -16.55 Q-18.95 -15.9 -17.9 -15.35 L-17.75 -15.25 -17.75 -12.75 Q-18.55 -13.15 -18.8 -13.6 M-18.0 -17.75 L-18.05 -19.25 Q-18.05 -18.65 -17.2 -18.15 L-17.0 -18.05 -16.85 -17.95 -16.85 -15.45 -18.0 -16.4 -18.0 -17.75 M-17.7 -20.0 L-17.75 -21.85 Q-17.75 -21.2 -16.75 -20.65 L-16.7 -20.65 -16.55 -20.55 -16.55 -18.05 Q-17.45 -18.5 -17.7 -19.0 L-17.7 -20.0 M-14.9 -19.95 L-14.25 -19.75 -13.6 -19.6 -13.3 -19.55 -12.9 -19.45 -12.9 -16.95 -14.25 -17.25 -14.95 -17.45 -14.9 -19.95 M-13.2 -14.35 L-14.55 -14.65 -15.25 -14.85 -15.2 -17.35 -14.55 -17.15 -14.35 -17.1 -13.9 -17.0 -13.2 -16.85 -13.2 -14.35 M-16.15 -12.15 L-16.1 -14.65 -15.45 -14.45 -14.1 -14.15 -14.1 -11.65 -15.45 -11.95 -16.15 -12.15 M-14.0 -8.4 L-15.35 -8.7 -16.05 -8.9 -16.0 -11.4 -15.65 -11.3 -15.35 -11.2 -14.0 -10.9 -14.0 -8.4 M-14.3 -7.9 L-13.65 -7.7 -12.65 -7.5 -12.3 -7.4 -12.3 -4.9 -13.65 -5.2 -14.35 -5.4 -14.3 -7.9" fill="#c2a812" fill-rule="evenodd" stroke="none"/>
    <path d="M-0.4 -14.15 L1.25 -14.4 0.9 -14.35 0.0 -14.15 -0.65 -14.05 -1.3 -13.95 -1.7 -13.9 -4.25 -13.65 -7.05 -13.55 -7.8 -13.55 -7.8 -11.05 -7.05 -11.05 -4.25 -11.15 -1.3 -11.45 0.9 -11.85 1.4 -11.95 2.8 -12.35 4.35 -13.15 4.85 -13.8 5.0 -13.35 5.0 -13.3 Q5.0 -12.8 4.45 -12.4 L3.95 -12.1 3.55 -11.85 2.9 -11.6 2.65 -11.5 2.05 -11.35 1.5 -11.2 1.0 -11.1 0.75 -11.05 -0.1 -10.85 -1.0 -10.7 -1.2 -10.7 -4.15 -10.4 -4.9 -10.35 -4.95 -10.35 -6.95 -10.3 -7.7 -10.3 -7.7 -7.8 -6.95 -7.8 -4.15 -7.9 -1.5 -8.15 -1.3 -8.15 -0.4 -8.3 0.2 -8.4 0.9 -8.15 -1.35 -7.45 1.35 -7.7 1.35 -7.3 1.1 -7.3 0.5 -7.2 -2.45 -6.9 -5.25 -6.8 -6.0 -6.8 -6.0 -4.3 -9.75 -4.55 -9.75 -7.05 -12.3 -7.4 -12.65 -7.5 -13.65 -7.7 -14.3 -7.9 -15.9 -8.5 -15.95 -8.5 -16.1 -8.6 -16.9 -9.15 -16.05 -8.9 -15.35 -8.7 -14.0 -8.4 -11.45 -8.05 -11.45 -10.55 -12.15 -10.6 -14.0 -10.9 -15.35 -11.2 -15.65 -11.3 -16.0 -11.4 -17.65 -12.0 -17.8 -12.1 Q-18.85 -12.65 -18.85 -13.3 L-18.85 -13.35 -18.8 -13.6 Q-18.55 -13.15 -17.75 -12.75 L-16.15 -12.15 -15.45 -11.95 -14.1 -11.65 -11.55 -11.3 -11.55 -13.8 -13.25 -14.0 -13.85 -14.1 -14.1 -14.15 -15.45 -14.45 -16.1 -14.65 -17.05 -14.95 -17.75 -15.25 -17.9 -15.35 Q-18.95 -15.9 -18.95 -16.55 L-18.95 -16.6 Q-18.95 -17.25 -18.0 -17.75 L-18.0 -16.4 -16.85 -15.45 -15.25 -14.85 -14.55 -14.65 -13.2 -14.35 -10.65 -14.0 -10.65 -16.5 -6.9 -16.25 -6.9 -13.75 -6.15 -13.75 -3.35 -13.85 -0.4 -14.15 M12.4 6.15 L9.55 4.75 10.8 2.6 11.2 2.8 12.45 3.45 13.65 4.0 12.4 6.15 M2.2 5.55 L-0.95 5.3 -0.95 2.8 2.2 3.05 2.2 5.55 M-7.2 0.7 L-9.75 0.5 -9.75 -1.9 -9.65 -1.9 -9.65 -4.4 -5.9 -4.15 -5.9 -1.65 -6.0 -1.65 -6.0 -1.4 Q-7.2 -0.8 -7.2 0.0 L-7.2 0.05 -7.2 0.7 M-10.35 -19.1 L-6.6 -18.85 -6.6 -16.35 -10.35 -16.6 -10.35 -19.1" fill="#d2b513" fill-rule="evenodd" stroke="none"/>
    <path d="M6.7 -7.6 L6.8 -7.2 6.8 -7.15 6.8 -7.0 6.65 -7.05 6.7 -7.3 6.7 -7.6 M6.15 -6.4 L6.5 -6.75 6.7 -6.7 6.25 -6.25 5.8 -5.95 5.75 -5.9 5.45 -5.95 6.15 -6.4 M0.5 -4.7 L2.7 -5.1 2.9 -5.15 2.75 -4.95 2.4 -4.85 2.25 -4.8 1.25 -4.65 0.6 -4.55 -2.35 -4.25 -5.15 -4.15 -5.9 -4.15 -9.65 -4.4 -12.2 -4.75 -12.6 -4.85 -12.8 -4.9 -13.55 -5.05 -14.2 -5.25 -15.85 -5.85 -16.0 -5.95 -16.15 -6.0 -16.9 -6.65 -15.95 -6.0 -14.35 -5.4 -13.65 -5.2 -12.3 -4.9 -9.75 -4.55 -6.0 -4.3 -5.25 -4.3 -2.45 -4.4 0.5 -4.7" fill="url(#gradient1)" fill-rule="evenodd" stroke="none"/>
    <path d="M4.45 -9.9 L4.75 -10.2 Q5.75 -9.55 4.75 -9.05 L3.2 -8.45 3.15 -8.45 3.35 -9.3 4.45 -9.9 M5.0 -10.8 L5.0 -11.4 Q6.65 -10.7 6.7 -9.85 L6.7 -9.8 Q6.7 -9.3 6.15 -8.9 L5.65 -8.6 5.6 -8.55 4.95 -8.5 5.3 -8.7 6.3 -9.8 5.0 -10.8 M4.05 -7.95 L3.7 -8.05 4.15 -8.2 5.5 -8.5 4.6 -8.1 4.05 -7.95 M1.85 -8.8 L2.0 -8.85 1.9 -8.75 1.85 -8.8" fill="url(#gradient2)" fill-rule="evenodd" stroke="none"/>
    <path d="M-0.1 -16.75 L2.1 -17.15 2.6 -17.25 3.7 -17.55 2.3 -17.15 1.8 -17.05 0.55 -16.8 0.3 -16.75 -0.4 -16.65 -0.7 -16.6 -3.35 -16.35 -6.15 -16.25 -6.9 -16.25 -10.65 -16.5 -13.2 -16.85 -13.9 -17.0 -14.35 -17.1 -14.55 -17.15 -15.2 -17.35 -16.85 -17.95 -17.0 -18.05 -17.2 -18.15 Q-18.05 -18.65 -18.05 -19.25 L-18.05 -19.3 -17.7 -20.0 -17.7 -19.0 Q-17.45 -18.5 -16.55 -18.05 L-14.95 -17.45 -14.25 -17.25 -12.9 -16.95 -10.35 -16.6 -6.6 -16.35 -5.85 -16.35 -3.05 -16.45 -0.1 -16.75" fill="url(#gradient3)" fill-rule="evenodd" stroke="none"/>
    <path d="M3.45 -20.0 L3.1 -20.1 3.55 -20.25 4.9 -20.55 4.8 -20.5 4.0 -20.15 3.45 -20.0 M5.0 -20.6 L4.35 -20.55 4.7 -20.75 5.7 -21.85 Q5.35 -22.65 3.55 -23.2 L-0.05 -23.85 Q6.2 -22.05 4.15 -21.1 L2.6 -20.5 2.55 -20.5 3.05 -22.8 1.3 -20.8 1.0 -21.05 1.55 -21.6 1.75 -21.75 1.8 -21.7 1.8 -21.85 1.8 -21.9 1.75 -22.1 Q1.45 -22.75 -0.4 -23.25 L-5.8 -23.85 -11.2 -23.25 -12.65 -22.75 Q-13.45 -22.35 -13.45 -21.85 L-13.4 -21.65 -12.65 -22.35 -11.2 -22.85 -5.8 -23.45 -4.0 -23.4 Q0.05 -22.45 0.6 -21.8 L0.6 -21.4 -0.65 -22.4 0.25 -21.2 0.2 -21.15 -0.15 -21.05 -5.65 -22.45 -1.15 -20.75 -1.95 -20.5 -2.6 -20.35 -4.0 -20.15 -2.05 -20.2 -1.1 -20.35 -0.45 -20.45 0.3 -20.2 -1.95 -19.5 0.75 -19.75 0.75 -19.35 0.2 -19.3 -0.1 -19.25 -3.05 -18.95 -5.85 -18.85 -6.6 -18.85 -10.35 -19.1 -12.9 -19.45 -13.3 -19.55 -13.6 -19.6 -14.25 -19.75 -14.9 -19.95 -16.55 -20.55 -16.7 -20.65 -16.75 -20.65 Q-17.75 -21.2 -17.75 -21.85 L-17.75 -21.9 Q-17.75 -23.15 -14.25 -24.0 L-12.65 -24.35 -5.85 -24.9 1.75 -24.2 2.6 -24.0 Q6.05 -23.15 6.1 -21.9 L6.1 -21.85 Q6.1 -21.35 5.55 -20.95 L5.05 -20.65 5.0 -20.6" fill="url(#gradient4)" fill-rule="evenodd" stroke="none"/>
    <path d="M1.65 -3.0 L1.65 -2.95 1.5 -3.0 1.65 -3.0 M1.7 -2.15 L1.8 -1.9 0.5 -1.8 -1.7 -1.35 -2.45 -1.05 -2.9 -0.85 Q-3.55 -0.45 -3.55 0.05 L-3.55 0.25 -2.9 -0.45 -2.45 -0.65 -1.7 -0.95 0.5 -1.4 2.0 -1.5 2.45 -0.85 3.25 0.1 3.6 0.45 4.95 1.65 4.4 1.75 5.05 1.75 Q5.7 2.3 6.5 2.85 L5.25 2.95 2.85 3.05 2.2 3.05 -0.95 2.8 -3.1 2.45 -4.25 2.15 -4.8 1.95 -6.2 1.35 -6.3 1.25 -6.95 0.7 -7.2 0.05 -7.2 0.0 Q-7.2 -0.8 -6.0 -1.4 L-4.25 -2.1 -2.9 -2.45 -2.35 -2.55 0.35 -2.9 1.6 -2.6 1.7 -2.15" fill="url(#gradient5)" fill-rule="evenodd" stroke="none"/>
    <path d="M3.25 -3.7 L4.1 -2.85 4.35 -2.6 4.0 -2.65 3.7 -3.0 3.25 -3.7 M4.9 -2.65 L4.9 -2.7 4.1 -3.9 Q3.35 -5.05 5.7 -4.9 L4.9 -2.65" fill="url(#gradient6)" fill-rule="evenodd" stroke="none"/>
    <path d="M6.8 -5.7 L7.35 -5.55 Q10.05 -4.8 13.3 -2.95 16.05 -1.35 17.95 0.4 L19.0 1.4 Q21.05 3.6 20.5 4.7 L20.45 4.75 Q20.1 5.3 19.1 5.35 L18.95 5.35 17.4 5.2 16.85 5.05 15.7 4.75 13.65 4.0 12.45 3.45 11.2 2.8 10.8 2.6 10.25 2.3 10.0 2.15 8.3 1.1 8.25 1.05 7.85 0.8 6.25 -0.45 5.7 -0.95 5.85 -1.25 7.75 0.1 6.4 -1.45 7.1 -1.4 7.7 -0.85 9.2 0.2 9.55 0.4 9.3 0.2 9.25 0.15 8.45 -0.55 7.85 -1.2 7.75 -1.3 11.9 -0.9 7.15 -2.0 7.0 -2.25 6.95 -2.3 8.2 -3.0 6.8 -2.6 6.8 -2.8 Q7.0 -3.5 11.15 -2.4 L12.5 -1.7 Q14.8 -0.35 16.15 1.1 L16.95 2.15 Q17.25 2.65 17.2 3.05 L17.3 2.9 Q17.55 2.45 17.15 1.8 L16.35 0.75 Q15.0 -0.7 12.7 -2.05 10.35 -3.35 8.45 -3.8 L6.7 -3.9 6.3 -3.75 6.2 -3.6 6.15 -3.55 6.1 -3.4 6.15 -3.4 6.15 -3.45 6.3 -2.85 6.35 -2.5 6.0 -2.4 5.7 -4.9 8.5 -4.5 5.55 -5.4 3.3 -5.15 3.5 -3.8 3.65 -3.5 3.2 -3.8 3.15 -3.85 2.95 -4.35 Q2.85 -4.7 2.9 -4.95 L2.9 -5.15 2.95 -5.25 3.0 -5.25 3.0 -5.3 3.0 -5.35 3.05 -5.4 Q3.35 -5.95 4.25 -6.0 L4.35 -6.0 4.6 -6.0 5.45 -5.95 5.75 -5.9 6.25 -5.8 6.65 -5.75 6.8 -5.7" fill="url(#gradient7)" fill-rule="evenodd" stroke="none"/>
    <path d="M6.7 -9.8 L6.7 -9.85 Q6.65 -10.7 5.0 -11.4 M6.7 -9.8 L6.7 -7.6 6.8 -7.2 6.8 -7.15 6.8 -7.0 M6.8 -6.65 L6.8 -5.7 M6.7 -7.6 L6.7 -7.3 6.65 -7.05" fill="none" stroke="#999900" stroke-linecap="round" stroke-linejoin="round" stroke-width="0.05"/>
    <path d="M20.45 4.75 L19.0 7.15 17.7 7.5 16.2 7.35 15.6 7.2 14.45 6.9 M7.7 5.15 L5.2 5.45 2.85 5.55 2.2 5.55 -0.95 5.3 -3.1 4.95 -4.25 4.65 -4.8 4.45 -6.2 3.85 -7.15 2.9 -7.2 0.7 -9.75 0.5 -12.3 0.15 -13.65 -0.15 -14.35 -0.35 -15.95 -0.95 M-17.15 -9.25 L-17.65 -9.5 -18.8 -10.45 -18.85 -13.3 M-18.8 -13.6 L-18.9 -13.7 -18.95 -16.55 M-18.0 -17.75 L-18.05 -19.25 M5.0 1.7 L5.05 1.75 M-18.0 -16.4 L-18.0 -17.75 M-16.05 -8.9 L-16.9 -9.15 M-17.15 -9.25 L-16.9 -9.15 M-1.5 -8.15 L-1.2 -8.2 M-7.2 0.7 L-7.2 0.05" fill="none" stroke="#656401" stroke-linecap="round" stroke-linejoin="round" stroke-width="0.05"/>
    <path d="M-15.95 -0.95 L-17.1 -1.9 -17.15 -4.75 -17.15 -4.8 -17.0 -5.25 -17.05 -6.9 -17.1 -6.95 -17.15 -9.25" fill="none" stroke="#8a6d0d" stroke-linecap="round" stroke-linejoin="round" stroke-width="0.05"/>
    <path d="M5.55 -18.45 L5.8 -18.7 5.9 -18.75 M-17.75 -21.85 L-17.75 -21.9 Q-17.75 -23.15 -14.25 -24.0 L-12.65 -24.35 -5.85 -24.9 1.75 -24.2 2.6 -24.0 Q6.05 -23.15 6.1 -21.9 L6.1 -21.85 6.1 -19.35 6.05 -19.1 M-0.1 -16.75 L2.1 -17.15 2.6 -17.25 3.7 -17.55 3.85 -17.6 4.0 -17.65 M3.7 -15.05 L4.35 -15.35 4.9 -15.6 5.25 -15.85 Q5.8 -16.25 5.8 -16.75 L5.8 -18.7 M5.25 -18.25 L4.0 -17.65 M-0.4 -14.15 L1.25 -14.4 1.8 -14.55 2.3 -14.65 2.8 -14.8 3.7 -15.05 M0.9 -11.85 L1.4 -11.95 2.8 -12.35 M4.45 -9.9 L4.75 -10.2 5.0 -10.8 5.0 -11.4 5.0 -13.3 5.0 -13.35 4.85 -13.8 4.35 -13.15 2.8 -12.35 M4.85 -13.8 L4.9 -14.05 4.9 -15.6 M5.25 -18.25 L5.55 -18.45 M6.8 -5.7 L7.35 -5.55 Q10.05 -4.8 13.3 -2.95 16.05 -1.35 17.95 0.4 L19.0 1.4 Q21.05 3.6 20.5 4.7 L20.45 4.75 M9.55 4.75 L7.7 5.15 M-18.85 -13.3 L-18.85 -13.35 -18.8 -13.6 M-18.95 -16.55 L-18.95 -16.6 Q-18.95 -17.25 -18.0 -17.75 M-18.05 -19.25 L-18.05 -19.3 -17.7 -20.0 M4.6 -6.0 L5.45 -5.95 M6.25 -5.8 L6.65 -5.75 6.8 -5.7 M3.35 -9.3 L4.45 -9.9 M2.0 -8.85 L1.85 -8.8 1.5 -8.7 1.0 -8.6 M2.0 -8.85 L2.9 -9.1 3.35 -9.3 M4.25 -6.0 L4.35 -6.0 4.6 -6.0 M4.25 -6.0 Q3.35 -5.95 3.05 -5.4 L3.0 -5.35 M3.0 -5.3 L3.0 -5.25 M2.95 -5.25 L2.9 -5.15 2.75 -4.95 1.75 -3.2 1.65 -3.0 1.65 -2.95 M1.5 -3.0 L1.65 -3.0 M1.8 -1.9 L1.7 -2.15 1.6 -2.6 M0.35 -2.9 L-2.35 -2.55 -2.9 -2.45 -4.25 -2.1 -6.0 -1.4 Q-7.2 -0.8 -7.2 0.0 L-7.2 0.05 M4.95 1.65 L3.6 0.45 3.25 0.1 2.45 -0.85 2.0 -1.5 M1.8 -1.9 L2.0 -1.5 M5.75 -5.9 L6.25 -5.8 M5.75 -5.9 L5.45 -5.95 M4.95 1.65 L5.0 1.7 M-1.3 -11.45 L0.9 -11.85" fill="none" stroke="#999900" stroke-linecap="round" stroke-linejoin="round" stroke-width="0.05"/>
    <path d="M-17.7 -20.0 L-17.75 -21.85 M-6.6 -16.35 L-5.85 -16.35 -3.05 -16.45 -0.1 -16.75 M-6.6 -16.35 L-10.35 -16.6 -12.9 -16.95 -14.25 -17.25 -14.95 -17.45 -16.55 -18.05 Q-17.45 -18.5 -17.7 -19.0 L-17.7 -20.0" fill="none" stroke="#bc8912" stroke-linecap="round" stroke-linejoin="round" stroke-width="0.05"/>
    <path d="M14.45 6.9 L12.4 6.15 9.55 4.75 M6.5 2.85 Q5.7 2.3 5.05 1.75 M7.7 3.65 L9.0 4.45 9.55 4.75 M6.5 2.85 L7.0 3.2 7.7 3.65" fill="none" stroke="#a49917" stroke-linecap="round" stroke-linejoin="round" stroke-width="0.05"/>
  </g>
  <defs>
    <linearGradient gradientTransform="matrix(0.0146, 0.0, 0.0, 0.0037, -5.25, -4.8)" gradientUnits="userSpaceOnUse" id="gradient0" spreadMethod="pad" x1="-819.2" x2="819.2">
      <stop offset="0.0" stop-color="#ead915"/>
      <stop offset="1.0" stop-color="#fafe9e"/>
    </linearGradient>
    <linearGradient gradientTransform="matrix(0.0146, 0.0, 0.0, 0.0037, -5.15, -7.2)" gradientUnits="userSpaceOnUse" id="gradient1" spreadMethod="pad" x1="-819.2" x2="819.2">
      <stop offset="0.0" stop-color="#ead915"/>
      <stop offset="1.0" stop-color="#fafe9e"/>
    </linearGradient>
    <linearGradient gradientTransform="matrix(0.0146, 0.0, 0.0, 0.0037, -5.25, -9.85)" gradientUnits="userSpaceOnUse" id="gradient2" spreadMethod="pad" x1="-819.2" x2="819.2">
      <stop offset="0.0" stop-color="#ead915"/>
      <stop offset="1.0" stop-color="#fafe9e"/>
    </linearGradient>
    <linearGradient gradientTransform="matrix(0.0146, 0.0, 0.0, 0.0037, -6.15, -19.3)" gradientUnits="userSpaceOnUse" id="gradient3" spreadMethod="pad" x1="-819.2" x2="819.2">
      <stop offset="0.0" stop-color="#ead915"/>
      <stop offset="1.0" stop-color="#fafe9e"/>
    </linearGradient>
    <linearGradient gradientTransform="matrix(0.0146, 0.0, 0.0, 0.0037, -5.85, -21.9)" gradientUnits="userSpaceOnUse" id="gradient4" spreadMethod="pad" x1="-819.2" x2="819.2">
      <stop offset="0.0" stop-color="#ead915"/>
      <stop offset="1.0" stop-color="#fafe9e"/>
    </linearGradient>
    <linearGradient gradientTransform="matrix(0.0123, 0.0, 0.0, 0.0037, 2.85, 0.0)" gradientUnits="userSpaceOnUse" id="gradient5" spreadMethod="pad" x1="-819.2" x2="819.2">
      <stop offset="0.0" stop-color="#ead915"/>
      <stop offset="1.0" stop-color="#fafe9e"/>
    </linearGradient>
    <linearGradient gradientTransform="matrix(-0.0107, -0.0061, -0.0018, 0.0032, 11.75, -0.35)" gradientUnits="userSpaceOnUse" id="gradient6" spreadMethod="pad" x1="-819.2" x2="819.2">
      <stop offset="0.0" stop-color="#ead915"/>
      <stop offset="1.0" stop-color="#fafe9e"/>
    </linearGradient>
    <linearGradient gradientTransform="matrix(-0.0107, -0.0061, -0.0018, 0.0032, 11.75, -0.35)" gradientUnits="userSpaceOnUse" id="gradient7" spreadMethod="pad" x1="-819.2" x2="819.2">
      <stop offset="0.0" stop-color="#f1e951"/>
      <stop offset="1.0" stop-color="#fefdbc"/>
    </linearGradient>
  </defs>
</svg>
