<?xml version="1.0" encoding="UTF-8" standalone="no"?>
<svg xmlns:xlink="http://www.w3.org/1999/xlink" height="59.75px" width="205.1px" xmlns="http://www.w3.org/2000/svg">
  <g transform="matrix(1, 0, 0, 1, 111.45, 20.15)">
    <path d="M-108.75 -19.05 L93.65 -12.6 93.65 17.8 -56.9 20.25 -55.4 24.15 Q-54.5 26.1 -55.8 29.85 L-56.2 27.7 Q-56.35 26.7 -56.85 25.7 -57.3 24.7 -58.55 23.95 -59.0 23.45 -59.8 23.2 L-63.25 22.7 -73.05 23.5 -73.7 23.65 Q-77.2 24.25 -81.6 25.8 L-83.5 30.55 -83.75 32.15 Q-83.6 34.95 -81.55 36.85 L-81.1 36.95 Q-80.35 37.2 -79.65 37.55 -77.45 38.2 -75.8 36.6 L-75.35 36.6 Q-74.1 35.05 -73.85 33.4 -73.6 31.75 -75.1 29.95 L-75.75 29.95 -75.85 32.95 -76.2 33.4 -76.7 33.5 -77.6 34.0 -78.2 33.95 -79.3 32.6 -79.65 31.6 Q-79.95 30.55 -79.3 29.65 -78.8 28.8 -77.8 28.1 L-75.1 28.85 Q-74.4 29.0 -73.85 29.7 -73.4 30.3 -73.1 31.15 L-72.75 32.5 Q-72.5 34.3 -73.5 36.05 -74.95 38.65 -77.55 39.5 -79.45 39.85 -81.3 39.1 -83.9 38.0 -85.5 35.35 -86.85 33.15 -87.0 30.55 L-88.05 31.45 -89.3 32.05 -90.6 32.3 -91.45 31.6 Q-92.55 30.7 -92.7 28.95 L-92.5 28.65 -92.35 28.1 -91.7 27.2 -90.7 26.65 -90.45 25.85 Q-90.2 25.45 -89.65 25.4 -89.2 25.3 -88.8 25.7 -88.4 26.0 -88.35 26.6 -88.3 27.15 -88.55 27.6 L-89.05 28.05 -89.05 28.7 -89.75 29.3 -90.3 29.55 -90.65 28.5 -90.7 27.75 -91.5 28.75 -91.3 30.1 -90.55 30.5 Q-89.2 31.15 -87.55 30.1 L-86.2 28.65 -85.4 26.45 -85.15 25.15 -85.55 24.95 -85.95 24.95 -89.7 25.0 -92.35 24.55 -92.4 24.65 Q-92.7 25.05 -93.2 25.1 L-94.1 24.85 -94.5 24.1 -96.75 23.2 -98.4 22.3 -99.45 21.45 -100.5 20.45 -101.15 19.6 -101.75 18.1 -101.9 17.45 -101.9 16.25 -101.6 11.9 -101.6 11.75 -103.15 12.85 -103.85 13.5 -107.35 13.4 Q-109.35 12.8 -110.5 11.35 -111.35 10.25 -111.45 9.0 -111.4 7.15 -109.95 5.75 -109.0 4.8 -107.8 4.65 L-106.85 4.65 -105.8 4.85 -105.0 5.5 -104.05 7.1 -104.75 8.35 Q-105.25 8.9 -105.95 8.95 L-106.7 8.9 Q-107.2 8.7 -107.75 8.45 L-107.85 8.05 -107.75 7.4 -107.75 7.05 -107.55 6.7 -105.6 6.15 -105.7 5.7 Q-107.15 5.05 -108.15 5.5 -109.2 5.95 -109.95 7.05 L-109.9 7.35 Q-110.65 8.7 -109.8 10.0 L-109.15 10.85 -109.0 11.1 Q-107.45 12.1 -105.6 11.65 L-104.6 11.25 -101.85 9.15 -101.85 8.8 -101.3 10.55 -101.3 10.5 -108.75 -19.05 M-100.35 21.65 Q-100.15 21.9 -100.1 22.3 L-100.35 22.95 -100.9 23.25 -101.45 22.95 -101.7 22.3 -101.45 21.65 Q-101.25 21.4 -100.9 21.4 L-100.35 21.65 M-103.65 15.4 L-104.2 15.7 -104.75 15.4 -105.0 14.75 -104.75 14.1 Q-104.55 13.85 -104.2 13.85 -103.9 13.85 -103.65 14.1 -103.45 14.35 -103.4 14.75 -103.45 15.15 -103.65 15.4 M-102.85 18.45 Q-102.65 18.7 -102.6 19.1 -102.65 19.5 -102.85 19.75 L-103.4 20.05 Q-103.75 20.0 -103.95 19.75 L-104.2 19.1 -103.95 18.45 Q-103.75 18.2 -103.4 18.2 -103.1 18.2 -102.85 18.45" fill="#000000" fill-opacity="0.48235294" fill-rule="evenodd" stroke="none"/>
    <path d="M91.65 -13.7 L91.65 16.7 -100.65 19.85 -110.75 -20.15 91.65 -13.7" fill="url(#gradient0)" fill-rule="evenodd" stroke="none"/>
    <path d="M88.95 -12.3 L88.45 14.75 -97.3 17.75 -106.5 -18.5 88.95 -12.3" fill="url(#gradient1)" fill-rule="evenodd" stroke="none"/>
    <path d="M88.45 14.75 L88.95 -12.3" fill="none" stroke="#16528e" stroke-linecap="round" stroke-linejoin="round" stroke-width="0.05"/>
  </g>
  <defs>
    <linearGradient gradientTransform="matrix(-0.061, -0.0775, 0.0393, 0.011, -61.7, -37.55)" gradientUnits="userSpaceOnUse" id="gradient0" spreadMethod="pad" x1="-819.2" x2="819.2">
      <stop offset="0.0" stop-color="#168cd1"/>
      <stop offset="0.9882352941176471" stop-color="#c8e3ff"/>
    </linearGradient>
    <linearGradient gradientTransform="matrix(0.0287, 0.0336, -0.0359, -0.0085, -183.6, -25.8)" gradientUnits="userSpaceOnUse" id="gradient1" spreadMethod="pad" x1="-819.2" x2="819.2">
      <stop offset="0.0" stop-color="#0c6aaf"/>
      <stop offset="0.9882352941176471" stop-color="#01165f"/>
    </linearGradient>
  </defs>
</svg>
