<?xml version="1.0" encoding="UTF-8" standalone="no"?>
<svg xmlns:xlink="http://www.w3.org/1999/xlink" height="47.95px" width="44.85px" xmlns="http://www.w3.org/2000/svg">
  <g transform="matrix(1, 0, 0, 1, 21.2, 23.4)">
    <path d="M8.25 -19.9 L23.65 -13.35 Q23.45 -6.75 22.4 -1.2 L18.4 -1.85 21.55 2.5 Q19.85 9.25 16.75 14.05 L12.1 10.65 13.4 18.2 Q9.1 22.6 2.5 24.55 -3.85 22.6 -8.15 18.2 L-6.8 10.65 -11.45 14.05 Q-14.6 9.25 -16.3 2.5 L-13.15 -1.85 -17.1 -1.2 Q-17.9 -5.4 -18.2 -10.25 L-18.4 -13.35 -2.95 -19.9 -2.65 -16.45 Q-1.7 -11.65 2.45 -11.65 8.25 -11.6 8.25 -19.9" fill="#000000" fill-opacity="0.19215687" fill-rule="evenodd" stroke="none"/>
    <path d="M9.3 -18.15 L9.3 -18.2 18.9 -14.35 18.1 -7.15 12.85 -6.55 16.5 -0.8 14.35 5.95 8.3 4.65 8.3 12.6 Q5.3 16.85 0.0 18.5 -4.6 17.05 -7.15 12.6 L-7.15 4.65 -13.2 5.95 -15.35 -0.8 -11.7 -6.55 -16.9 -7.15 -17.7 -14.35 -8.15 -18.2 -8.15 -18.15 Q-6.25 -11.35 0.6 -11.45 7.25 -11.5 9.3 -18.15" fill="url(#gradient0)" fill-rule="evenodd" stroke="none"/>
    <path d="M5.9 -22.9 L21.35 -16.35 Q21.1 -9.75 20.1 -4.2 L16.1 -4.85 19.25 -0.5 Q17.5 6.25 14.4 11.05 L9.75 7.65 11.1 15.2 Q6.75 19.6 0.2 21.55 -6.15 19.6 -10.45 15.2 L-9.15 7.65 -13.8 11.05 Q-16.9 6.25 -18.6 -0.5 L-15.45 -4.85 -19.45 -4.2 Q-20.25 -8.4 -20.55 -13.25 L-20.7 -16.35 -5.3 -22.9 -5.0 -19.45 Q-4.05 -14.65 0.1 -14.65 5.9 -14.6 5.9 -22.9 M0.0 18.5 Q5.3 16.85 8.3 12.6 L8.3 4.65 14.35 5.95 16.5 -0.8 12.85 -6.55 18.1 -7.15 18.9 -14.35 9.3 -18.2 9.3 -18.15 Q7.25 -11.5 0.6 -11.45 -6.25 -11.35 -8.15 -18.15 L-8.15 -18.2 -17.7 -14.35 -16.9 -7.15 -11.7 -6.55 -15.35 -0.8 -13.2 5.95 -7.15 4.65 -7.15 12.6 Q-4.6 17.05 0.0 18.5" fill="url(#gradient1)" fill-rule="evenodd" stroke="none"/>
    <path d="M5.9 -22.9 L21.35 -16.35 Q21.1 -9.75 20.1 -4.2 L16.1 -4.85 19.25 -0.5 Q17.5 6.25 14.4 11.05 L9.75 7.65 11.1 15.2 Q6.75 19.6 0.2 21.55 -6.15 19.6 -10.45 15.2 L-9.15 7.65 -13.8 11.05 Q-16.9 6.25 -18.6 -0.5 L-15.45 -4.85 -19.45 -4.2 Q-20.25 -8.4 -20.55 -13.25 L-20.7 -16.35 -5.3 -22.9 -5.0 -19.45 Q-4.05 -14.65 0.1 -14.65 5.9 -14.6 5.9 -22.9" fill="none" stroke="#764f27" stroke-linecap="round" stroke-linejoin="round" stroke-width="1.0"/>
    <path d="M-8.15 -18.15 L-8.15 -18.2 M-16.9 -7.15 L-11.7 -6.55 M-13.2 5.95 L-7.15 4.65" fill="none" stroke="#f1e9c0" stroke-linecap="round" stroke-linejoin="round" stroke-width="0.05"/>
    <path d="M9.3 -18.15 Q7.25 -11.5 0.6 -11.45 -6.25 -11.35 -8.15 -18.15 M-8.15 -18.2 L-17.7 -14.35 -16.9 -7.15 M-11.7 -6.55 L-15.35 -0.8 -13.2 5.95 M-7.15 4.65 L-7.15 12.6 Q-4.6 17.05 0.0 18.5" fill="none" stroke="#937822" stroke-linecap="round" stroke-linejoin="round" stroke-width="0.05"/>
    <path d="M0.0 18.5 Q5.3 16.85 8.3 12.6 L8.3 4.65 14.35 5.95 16.5 -0.8 12.85 -6.55 18.1 -7.15 18.9 -14.35 9.3 -18.2 9.3 -18.15" fill="none" stroke="#f4cb6b" stroke-linecap="round" stroke-linejoin="round" stroke-width="0.05"/>
    <path d="M3.2 -1.65 Q2.3 -0.75 1.0 -0.75 -0.3 -0.75 -1.2 -1.65 -2.1 -2.55 -2.1 -3.85 -2.1 -5.15 -1.2 -6.05 -0.3 -7.0 1.0 -7.0 2.3 -7.0 3.2 -6.05 4.1 -5.15 4.15 -3.85 4.1 -2.55 3.2 -1.65 M2.25 1.95 Q2.85 2.55 2.85 3.4 2.85 4.25 2.25 4.85 1.65 5.4 0.85 5.45 -0.05 5.4 -0.65 4.85 -1.25 4.25 -1.2 3.4 -1.25 2.55 -0.65 1.95 -0.05 1.35 0.85 1.35 1.65 1.35 2.25 1.95 M0.6 10.7 Q-0.15 10.7 -0.6 10.25 -1.1 9.75 -1.1 9.05 -1.1 8.35 -0.6 7.9 -0.15 7.4 0.6 7.4 1.25 7.4 1.75 7.9 2.2 8.35 2.25 9.05 2.2 9.75 1.75 10.25 1.25 10.7 0.6 10.7" fill="#000000" fill-opacity="0.19215687" fill-rule="evenodd" stroke="none"/>
    <path d="M1.8 -0.3 Q2.45 0.35 2.45 1.3 2.45 2.2 1.8 2.85 1.1 3.5 0.2 3.55 -0.75 3.5 -1.4 2.85 -2.1 2.2 -2.1 1.3 -2.1 0.35 -1.4 -0.3 -0.75 -1.0 0.2 -1.0 1.1 -1.0 1.8 -0.3" fill="url(#gradient2)" fill-rule="evenodd" stroke="none"/>
    <path d="M3.55 -6.25 Q3.55 -5.0 2.65 -4.05 1.7 -3.1 0.45 -3.1 -0.85 -3.1 -1.75 -4.05 -2.7 -5.0 -2.7 -6.25 -2.7 -7.5 -1.75 -8.45 -0.85 -9.4 0.45 -9.35 1.7 -9.4 2.65 -8.45 3.55 -7.5 3.55 -6.25" fill="url(#gradient3)" fill-rule="evenodd" stroke="none"/>
    <path d="M0.2 9.1 Q-0.6 9.1 -1.1 8.55 -1.65 8.0 -1.65 7.25 -1.65 6.5 -1.1 5.95 -0.6 5.4 0.2 5.45 0.95 5.4 1.5 5.95 2.0 6.5 2.0 7.25 2.0 8.0 1.5 8.55 0.95 9.1 0.2 9.1" fill="url(#gradient4)" fill-rule="evenodd" stroke="none"/>
    <path d="M3.55 -6.25 Q3.55 -5.0 2.65 -4.05 1.7 -3.1 0.45 -3.1 -0.85 -3.1 -1.75 -4.05 -2.7 -5.0 -2.7 -6.25 -2.7 -7.5 -1.75 -8.45 -0.85 -9.4 0.45 -9.35 1.7 -9.4 2.65 -8.45 3.55 -7.5 3.55 -6.25 M1.8 -0.3 Q2.45 0.35 2.45 1.3 2.45 2.2 1.8 2.85 1.1 3.5 0.2 3.55 -0.75 3.5 -1.4 2.85 -2.1 2.2 -2.1 1.3 -2.1 0.35 -1.4 -0.3 -0.75 -1.0 0.2 -1.0 1.1 -1.0 1.8 -0.3 M0.2 9.1 Q-0.6 9.1 -1.1 8.55 -1.65 8.0 -1.65 7.25 -1.65 6.5 -1.1 5.95 -0.6 5.4 0.2 5.45 0.95 5.4 1.5 5.95 2.0 6.5 2.0 7.25 2.0 8.0 1.5 8.55 0.95 9.1 0.2 9.1" fill="none" stroke="#76611b" stroke-linecap="round" stroke-linejoin="round" stroke-width="0.05"/>
  </g>
  <defs>
    <radialGradient cx="0" cy="0" gradientTransform="matrix(0.0417, 0.0, 0.0, 0.0417, 2.85, 13.0)" gradientUnits="userSpaceOnUse" id="gradient0" r="819.2" spreadMethod="pad">
      <stop offset="0.0" stop-color="#0b25b7"/>
      <stop offset="1.0" stop-color="#0c96a9"/>
    </radialGradient>
    <radialGradient cx="0" cy="0" gradientTransform="matrix(0.0531, 0.0, 0.0, 0.0531, -16.25, -18.15)" gradientUnits="userSpaceOnUse" id="gradient1" r="819.2" spreadMethod="pad">
      <stop offset="0.0" stop-color="#ffffff"/>
      <stop offset="0.796078431372549" stop-color="#cdb118"/>
      <stop offset="1.0" stop-color="#9c660e"/>
    </radialGradient>
    <radialGradient cx="0" cy="0" gradientTransform="matrix(0.0039, 0.0, 0.0, 0.0039, -0.75, 0.35)" gradientUnits="userSpaceOnUse" id="gradient2" r="819.2" spreadMethod="pad">
      <stop offset="0.0" stop-color="#ffffff"/>
      <stop offset="0.796078431372549" stop-color="#cdb118"/>
      <stop offset="1.0" stop-color="#9c660e"/>
    </radialGradient>
    <radialGradient cx="0" cy="0" gradientTransform="matrix(0.0049, 0.0, 0.0, 0.0049, -0.3, -7.2)" gradientUnits="userSpaceOnUse" id="gradient3" r="819.2" spreadMethod="pad">
      <stop offset="0.0" stop-color="#ffffff"/>
      <stop offset="0.796078431372549" stop-color="#cdb118"/>
      <stop offset="1.0" stop-color="#9c660e"/>
    </radialGradient>
    <radialGradient cx="0" cy="0" gradientTransform="matrix(0.0031, 0.0, 0.0, 0.0031, -0.55, 6.5)" gradientUnits="userSpaceOnUse" id="gradient4" r="819.2" spreadMethod="pad">
      <stop offset="0.0" stop-color="#ffffff"/>
      <stop offset="0.796078431372549" stop-color="#cdb118"/>
      <stop offset="1.0" stop-color="#9c660e"/>
    </radialGradient>
  </defs>
</svg>
