<?xml version="1.0" encoding="UTF-8" standalone="no"?>
<svg xmlns:xlink="http://www.w3.org/1999/xlink" height="49.35px" width="41.85px" xmlns="http://www.w3.org/2000/svg">
  <g transform="matrix(1, 0, 0, 1, 19.95, 23.65)">
    <path d="M3.45 -20.6 L21.9 -10.65 18.1 13.8 -3.2 25.7 -18.35 10.9 -18.55 -13.8 3.45 -20.6" fill="#000000" fill-opacity="0.19215687" fill-rule="evenodd" stroke="none"/>
    <path d="M-2.6 -3.75 L18.7 -13.35 16.7 10.85 -2.6 22.6 -2.6 -3.75" fill="url(#gradient0)" fill-rule="evenodd" stroke="none"/>
    <path d="M-19.45 -16.4 L-2.6 -3.75 -2.6 22.6 -17.7 7.95 -19.45 -16.4" fill="url(#gradient1)" fill-rule="evenodd" stroke="none"/>
    <path d="M-19.45 -16.4 L0.8 -23.15 18.7 -13.35 -2.6 -3.75 -19.45 -16.4" fill="url(#gradient2)" fill-rule="evenodd" stroke="none"/>
    <path d="M18.7 -13.35 L0.8 -23.15 -19.45 -16.4 M18.7 -13.35 L16.7 10.85 -2.6 22.6 -17.7 7.95 -19.45 -16.4" fill="none" stroke="#764f27" stroke-linecap="round" stroke-linejoin="round" stroke-width="1.0"/>
    <path d="M-19.45 -16.4 L-2.6 -3.75 18.7 -13.35" fill="none" stroke="#dab498" stroke-linecap="round" stroke-linejoin="round" stroke-width="0.05"/>
    <path d="M-2.6 22.6 L-2.6 -3.75" fill="none" stroke="#e4cab8" stroke-linecap="round" stroke-linejoin="round" stroke-width="0.05"/>
    <path d="M-11.85 -5.95 Q-9.8 -5.75 -8.15 -3.2 -6.5 -0.6 -6.2 2.75 -5.95 6.05 -7.15 8.2 -8.35 10.5 -10.35 10.3 -12.4 10.05 -14.05 7.45 -15.7 4.9 -16.0 1.55 -16.3 -1.75 -15.05 -4.0 -13.85 -6.2 -11.85 -5.95" fill="url(#gradient3)" fill-rule="evenodd" stroke="none"/>
    <path d="M7.7 -13.05 Q6.95 -11.25 4.05 -10.35 L-2.35 -10.0 Q-5.7 -10.6 -7.5 -12.35 -9.45 -14.05 -8.7 -15.9 -7.95 -17.75 -4.95 -18.6 L1.35 -18.95 Q4.7 -18.4 6.6 -16.65 8.45 -14.95 7.7 -13.05" fill="url(#gradient4)" fill-rule="evenodd" stroke="none"/>
    <path d="M9.6 -4.05 Q12.0 -4.05 13.3 -1.65 14.55 0.8 14.0 4.2 13.4 7.6 11.3 10.0 9.15 12.45 6.75 12.45 4.35 12.45 3.15 10.0 1.85 7.6 2.4 4.2 3.0 0.8 5.15 -1.65 7.2 -4.05 9.6 -4.05" fill="url(#gradient5)" fill-rule="evenodd" stroke="none"/>
    <path d="M9.6 -4.05 Q12.0 -4.05 13.3 -1.65 14.55 0.8 14.0 4.2 13.4 7.6 11.3 10.0 9.15 12.45 6.75 12.45 4.35 12.45 3.15 10.0 1.85 7.6 2.4 4.2 3.0 0.8 5.15 -1.65 7.2 -4.05 9.6 -4.05" fill="none" stroke="#cea780" stroke-linecap="round" stroke-linejoin="round" stroke-width="0.05"/>
    <path d="M7.7 -13.05 Q8.45 -14.95 6.6 -16.65 4.7 -18.4 1.35 -18.95 L-4.95 -18.6 Q-7.95 -17.75 -8.7 -15.9 -9.45 -14.05 -7.5 -12.35 -5.7 -10.6 -2.35 -10.0 L4.05 -10.35 Q6.95 -11.25 7.7 -13.05" fill="none" stroke="#dab692" stroke-linecap="round" stroke-linejoin="round" stroke-width="0.05"/>
    <path d="M-11.85 -5.95 Q-13.85 -6.2 -15.05 -4.0 -16.3 -1.75 -16.0 1.55 -15.7 4.9 -14.05 7.45 -12.4 10.05 -10.35 10.3 -8.35 10.5 -7.15 8.2 -5.95 6.05 -6.2 2.75 -6.5 -0.6 -8.15 -3.2 -9.8 -5.75 -11.85 -5.95" fill="none" stroke="#c7915c" stroke-linecap="round" stroke-linejoin="round" stroke-width="0.05"/>
  </g>
  <defs>
    <linearGradient gradientTransform="matrix(0.0034, 0.0123, -0.0216, 0.0057, 8.05, 4.6)" gradientUnits="userSpaceOnUse" id="gradient0" spreadMethod="pad" x1="-819.2" x2="819.2">
      <stop offset="0.0" stop-color="#e2c55f"/>
      <stop offset="1.0" stop-color="#b5783e"/>
    </linearGradient>
    <linearGradient gradientTransform="matrix(0.0, 0.0149, -0.0103, 0.0, -11.05, 3.4)" gradientUnits="userSpaceOnUse" id="gradient1" spreadMethod="pad" x1="-819.2" x2="819.2">
      <stop offset="0.0" stop-color="#f8f2b1"/>
      <stop offset="1.0" stop-color="#c99461"/>
    </linearGradient>
    <linearGradient gradientTransform="matrix(0.0165, 0.0165, -0.0084, 0.0084, -0.35, -13.45)" gradientUnits="userSpaceOnUse" id="gradient2" spreadMethod="pad" x1="-819.2" x2="819.2">
      <stop offset="0.0" stop-color="#f8f2b1"/>
      <stop offset="1.0" stop-color="#f9f1a4"/>
    </linearGradient>
    <radialGradient cx="0" cy="0" gradientTransform="matrix(0.0076, 0.0, 0.0, 0.0105, -11.2, 2.1)" gradientUnits="userSpaceOnUse" id="gradient3" r="819.2" spreadMethod="pad">
      <stop offset="0.0" stop-color="#f9a591"/>
      <stop offset="0.12941176470588237" stop-color="#ea9b1a"/>
      <stop offset="1.0" stop-color="#ea3026"/>
    </radialGradient>
    <radialGradient cx="0" cy="0" gradientTransform="matrix(0.0104, 0.0, 0.0, 0.0068, -0.6, -14.5)" gradientUnits="userSpaceOnUse" id="gradient4" r="819.2" spreadMethod="pad">
      <stop offset="0.0" stop-color="#fdfdb0"/>
      <stop offset="0.12941176470588237" stop-color="#f2f148"/>
      <stop offset="1.0" stop-color="#e9c13a"/>
    </radialGradient>
    <radialGradient cx="0" cy="0" gradientTransform="matrix(0.0063, 0.0018, -0.0035, 0.0113, 8.15, 4.7)" gradientUnits="userSpaceOnUse" id="gradient5" r="819.2" spreadMethod="pad">
      <stop offset="0.0" stop-color="#e0f979"/>
      <stop offset="0.2" stop-color="#71f81f"/>
      <stop offset="1.0" stop-color="#82d13f"/>
    </radialGradient>
  </defs>
</svg>
