<?xml version="1.0" encoding="UTF-8" standalone="no"?>
<svg xmlns:xlink="http://www.w3.org/1999/xlink" height="45.5px" width="49.3px" xmlns="http://www.w3.org/2000/svg">
  <g transform="matrix(1, 0, 0, 1, 0.0, 0.0)">
    <path d="M34.0 0.0 L49.3 22.75 33.95 45.5 15.35 45.5 0.0 22.75 1.2 20.9 15.15 41.05 32.25 41.05 46.3 20.85 32.25 0.55 15.2 0.55 10.2 7.7 15.35 0.0 34.0 0.0" fill="#000000" fill-opacity="0.28235295" fill-rule="evenodd" stroke="none"/>
    <path d="M16.8 4.35 L30.65 4.35 42.0 20.75 30.6 37.2 16.85 37.2 5.45 20.75 16.8 4.35" fill="url(#gradient0)" fill-rule="evenodd" stroke="none"/>
    <path d="M1.15 20.95 L1.1 20.9 3.15 17.95 5.2 15.0 10.15 7.75 15.15 0.6 32.2 0.6 46.25 20.9 32.2 41.1 15.1 41.1 1.15 20.95 M30.6 4.4 L16.75 4.4 5.4 20.8 16.8 37.25 30.55 37.25 41.95 20.8 30.6 4.4" fill="#062b46" fill-rule="evenodd" stroke="none"/>
    <path d="M1.15 20.95 L1.1 20.9" fill="none" stroke="#5c3265" stroke-linecap="round" stroke-linejoin="round" stroke-width="0.05"/>
    <path d="M1.1 20.9 L3.15 17.95 5.2 15.0 10.15 7.75 15.15 0.6 32.2 0.6 M41.95 20.8 L30.55 37.25 16.8 37.25" fill="none" stroke="#3e88d2" stroke-linecap="round" stroke-linejoin="round" stroke-width="0.05"/>
    <path d="M46.25 20.9 L32.2 41.1 15.1 41.1 M5.4 20.8 L16.75 4.4 30.6 4.4" fill="none" stroke="#0c2236" stroke-linecap="round" stroke-linejoin="round" stroke-width="0.05"/>
    <path d="M32.2 0.6 L46.25 20.9 M30.6 4.4 L41.95 20.8 M16.8 37.25 L5.4 20.8" fill="none" stroke="#1c4d7b" stroke-linecap="round" stroke-linejoin="round" stroke-width="0.05"/>
    <path d="M15.1 41.1 L1.15 20.95" fill="none" stroke="#1b4876" stroke-linecap="round" stroke-linejoin="round" stroke-width="0.05"/>
  </g>
  <defs>
    <radialGradient cx="0" cy="0" gradientTransform="matrix(-0.0242, -0.0202, -0.012, 0.03, 19.9, 17.4)" gradientUnits="userSpaceOnUse" id="gradient0" r="819.2" spreadMethod="pad">
      <stop offset="0.0" stop-color="#fb5228"/>
      <stop offset="1.0" stop-color="#691c0a"/>
    </radialGradient>
  </defs>
</svg>
