<?xml version="1.0" encoding="UTF-8" standalone="no"?>
<svg xmlns:xlink="http://www.w3.org/1999/xlink" height="50.7px" width="32.35px" xmlns="http://www.w3.org/2000/svg">
  <g transform="matrix(1.0, 0.0, 0.0, 1.0, 16.15, 25.35)">
    <path d="M8.95 -9.55 L7.5 -9.7 5.7 -9.45 5.15 -9.25 Q3.45 -8.55 2.1 -6.65 -0.15 -3.5 -0.15 0.85 -0.15 5.2 2.1 8.3 3.45 10.2 5.15 10.95 L5.7 11.15 7.5 11.45 10.1 10.85 Q8.95 12.0 7.6 12.6 L5.7 13.1 4.95 13.15 Q1.35 13.15 -1.2 9.6 L-2.45 7.45 Q-3.7 4.65 -3.7 1.15 -3.7 -2.35 -2.45 -5.15 L-1.2 -7.35 Q1.35 -10.85 4.95 -10.85 L5.7 -10.8 7.6 -10.3 8.95 -9.55" fill="#aaaaaa" fill-rule="evenodd" stroke="none"/>
    <path d="M2.7 21.5 L1.9 21.5 Q-0.45 21.5 -2.45 20.2 -4.8 18.65 -6.7 15.4 -10.25 9.3 -10.25 0.65 -10.25 -8.05 -6.7 -14.15 -4.8 -17.45 -2.45 -18.95 -0.45 -20.25 1.9 -20.25 L2.4 -20.25 3.1 -20.15 Q4.45 -19.95 5.75 -19.25 8.35 -17.8 10.5 -14.15 12.75 -10.35 13.6 -5.5 L12.85 -6.65 Q11.15 -9.0 8.95 -9.55 L7.6 -10.3 5.7 -10.8 4.95 -10.85 Q1.35 -10.85 -1.2 -7.35 L-2.45 -5.15 Q-3.7 -2.35 -3.7 1.15 -3.7 4.65 -2.45 7.45 L-1.2 9.6 Q1.35 13.15 4.95 13.15 L5.7 13.1 7.6 12.6 Q8.95 12.0 10.1 10.85 11.6 10.05 12.85 8.3 L13.5 7.35 Q12.6 11.8 10.5 15.4 8.45 18.95 5.9 20.45 4.55 21.2 3.1 21.45 L2.7 21.5 M-2.45 20.2 L-2.45 7.45 -2.45 20.2 M-2.45 -18.95 L-2.45 -5.15 -2.45 -18.95 M5.9 20.45 L5.7 13.1 5.9 20.45 M5.7 -10.8 L5.75 -19.25 5.7 -10.8" fill="#9f8577" fill-rule="evenodd" stroke="none"/>
    <path d="M1.3 25.3 L0.05 25.35 -1.55 25.25 Q-7.25 24.45 -11.4 17.9 -16.15 10.5 -16.15 0.0 -16.15 -10.5 -11.4 -17.95 -7.25 -24.45 -1.55 -25.25 L0.05 -25.35 1.7 -25.2 Q4.7 -23.2 2.4 -20.25 L1.9 -20.25 Q-0.45 -20.25 -2.45 -18.95 -4.8 -17.45 -6.7 -14.15 -10.25 -8.05 -10.25 0.65 -10.25 9.3 -6.7 15.4 -4.8 18.65 -2.45 20.2 -0.45 21.5 1.9 21.5 L2.7 21.5 Q3.2 24.55 1.3 25.3 M13.6 -5.5 Q15.1 -2.75 15.1 0.85 15.1 4.55 13.5 7.35 L12.85 8.3 Q11.6 10.05 10.1 10.85 L7.5 11.45 5.7 11.15 5.15 10.95 Q3.45 10.2 2.1 8.3 -0.15 5.2 -0.15 0.85 -0.15 -3.5 2.1 -6.65 3.45 -8.55 5.15 -9.25 L5.7 -9.45 7.5 -9.7 8.95 -9.55 Q11.15 -9.0 12.85 -6.65 L13.6 -5.5 M8.45 -3.85 Q7.65 -3.05 7.65 -1.9 7.65 -0.75 8.45 0.05 9.25 0.85 10.4 0.85 11.55 0.85 12.35 0.05 13.15 -0.75 13.15 -1.9 13.15 -3.05 12.35 -3.85 11.55 -4.65 10.4 -4.65 9.25 -4.65 8.45 -3.85" fill="#cccccc" fill-rule="evenodd" stroke="none"/>
    <path d="M1.3 25.3 Q3.2 24.55 2.7 21.5 L3.1 21.45 Q4.55 21.2 5.9 20.45 8.45 18.95 10.5 15.4 12.6 11.8 13.5 7.35 15.1 4.55 15.1 0.85 15.1 -2.75 13.6 -5.5 12.75 -10.35 10.5 -14.15 8.35 -17.8 5.75 -19.25 4.45 -19.95 3.1 -20.15 L2.4 -20.25 Q4.7 -23.2 1.7 -25.2 7.35 -24.4 11.45 -17.95 16.2 -10.5 16.2 0.0 16.2 10.5 11.45 17.9 7.2 24.65 1.3 25.3" fill="#afafaf" fill-rule="evenodd" stroke="none"/>
    <path d="M8.45 -3.85 Q9.25 -4.65 10.4 -4.65 11.55 -4.65 12.35 -3.85 13.15 -3.05 13.15 -1.9 13.15 -0.75 12.35 0.05 11.55 0.85 10.4 0.85 9.25 0.85 8.45 0.05 7.65 -0.75 7.65 -1.9 7.65 -3.05 8.45 -3.85" fill="#f5f4f7" fill-rule="evenodd" stroke="none"/>
    <path d="M1.7 -25.2 L0.05 -25.35 -1.55 -25.25 Q-7.25 -24.45 -11.4 -17.95 -16.15 -10.5 -16.15 0.0 -16.15 10.5 -11.4 17.9 -7.25 24.45 -1.55 25.25 L0.05 25.35 1.3 25.3 Q7.2 24.65 11.45 17.9 16.2 10.5 16.2 0.0 16.2 -10.5 11.45 -17.95 7.35 -24.4 1.7 -25.2 M2.7 21.5 L1.9 21.5 Q-0.45 21.5 -2.45 20.2 -4.8 18.65 -6.7 15.4 -10.25 9.3 -10.25 0.65 -10.25 -8.05 -6.7 -14.15 -4.8 -17.45 -2.45 -18.95 -0.45 -20.25 1.9 -20.25 L2.4 -20.25 3.1 -20.15 Q4.45 -19.95 5.75 -19.25 8.35 -17.8 10.5 -14.15 12.75 -10.35 13.6 -5.5 15.1 -2.75 15.1 0.85 15.1 4.55 13.5 7.35 12.6 11.8 10.5 15.4 8.45 18.95 5.9 20.45 4.55 21.2 3.1 21.45 L2.7 21.5 M10.1 10.85 L7.5 11.45 5.7 11.15 5.15 10.95 Q3.45 10.2 2.1 8.3 -0.15 5.2 -0.15 0.85 -0.15 -3.5 2.1 -6.65 3.45 -8.55 5.15 -9.25 L5.7 -9.45 7.5 -9.7 8.95 -9.55 7.6 -10.3 5.7 -10.8 4.95 -10.85 Q1.35 -10.85 -1.2 -7.35 L-2.45 -5.15 Q-3.7 -2.35 -3.7 1.15 -3.7 4.65 -2.45 7.45 L-1.2 9.6 Q1.35 13.15 4.95 13.15 L5.7 13.1 7.6 12.6 Q8.95 12.0 10.1 10.85 11.6 10.05 12.85 8.3 L13.5 7.35 M8.95 -9.55 Q11.15 -9.0 12.85 -6.65 L13.6 -5.5" fill="none" stroke="#666666" stroke-linecap="round" stroke-linejoin="round" stroke-width="0.05"/>
    <path d="M5.75 -19.25 L5.7 -10.8 M5.7 13.1 L5.9 20.45 M-2.45 -5.15 L-2.45 -18.95 M-2.45 7.45 L-2.45 20.2" fill="none" stroke="#604b44" stroke-linecap="round" stroke-linejoin="round" stroke-width="0.05"/>
  </g>
</svg>
