<?xml version="1.0" encoding="UTF-8" standalone="no"?>
<svg xmlns:xlink="http://www.w3.org/1999/xlink" height="33.1px" width="20.9px" xmlns="http://www.w3.org/2000/svg">
  <g transform="matrix(1.0, 0.0, 0.0, 1.0, 10.9, 13.15)">
    <path d="M2.35 -8.25 Q2.1 -7.8 0.45 -7.3 -3.45 -6.9 -4.35 -7.3 L-5.35 -7.8 -5.35 -7.85 -5.35 -7.9 -5.25 -8.65 -5.2 -8.75 Q-4.85 -11.05 -5.3 -12.75 -0.7 -13.6 2.4 -12.7 L2.2 -11.3 2.2 -11.05 Q2.1 -9.6 2.35 -8.25" fill="#ffd0ae" fill-rule="evenodd" stroke="none"/>
    <path d="M-5.35 -7.8 L-4.35 -7.3 Q-3.45 -6.9 0.45 -7.3 2.1 -7.8 2.35 -8.25 L2.5 -7.65 2.95 -7.45 3.5 -7.25 6.6 -5.65 Q5.95 1.95 -5.1 0.4 L-5.45 0.4 -5.55 0.35 -5.6 0.35 -5.85 0.3 -6.35 0.25 -7.0 0.1 -7.55 0.0 Q-9.85 -4.75 -8.25 -8.4 L-7.6 -8.5 -5.25 -8.75 -5.25 -8.65 -5.35 -7.9 -5.35 -7.85 -5.35 -7.8" fill="#ffdfc8" fill-rule="evenodd" stroke="none"/>
    <path d="M-5.2 -8.75 L-5.25 -8.65 -5.25 -8.75 -5.2 -8.75" fill="#eebf5a" fill-rule="evenodd" stroke="none"/>
    <path d="M2.35 -8.25 Q2.1 -9.6 2.2 -11.05 L2.2 -11.3 2.4 -12.7 Q-0.7 -13.6 -5.3 -12.75 -4.85 -11.05 -5.2 -8.75 L-5.25 -8.65 -5.35 -7.9 -5.35 -7.85 -5.35 -7.8 M6.6 -5.65 L3.5 -7.25 2.95 -7.45 2.5 -7.65 2.35 -8.25 M-5.2 -8.75 L-5.25 -8.75 -7.6 -8.5 -8.25 -8.4" fill="none" stroke="#674743" stroke-linecap="round" stroke-linejoin="round" stroke-width="0.05"/>
    <path d="M1.6 -5.4 L1.6 -5.35 1.55 -5.35 1.6 -5.4" fill="#b48f87" fill-rule="evenodd" stroke="none"/>
    <path d="M0.05 8.9 L0.0 8.9 0.05 8.9" fill="#ffffff" fill-rule="evenodd" stroke="none"/>
    <path d="M4.8 19.4 L-3.85 19.9 -3.95 19.9 -5.1 19.75 -6.9 19.35 Q-8.45 18.85 -9.2 18.0 -9.5 11.75 -9.15 10.05 L-9.2 8.75 -9.2 8.6 -9.15 7.6 -9.15 7.45 -9.05 6.85 Q-8.7 4.15 -9.65 1.75 L-9.7 1.6 -9.75 1.55 Q-10.4 0.45 -10.65 -0.7 -10.95 -1.85 -10.85 -3.0 L-10.45 -5.15 -10.4 -5.2 -9.2 -8.0 Q-9.15 -4.1 -6.85 -1.8 L-6.15 -1.2 -6.0 -1.1 -5.8 -1.1 -5.7 -1.1 -5.55 -1.1 -5.4 -1.1 Q1.8 -1.0 6.2 -3.9 L6.35 -3.8 6.55 -3.7 6.75 -3.55 7.7 -2.3 7.7 -1.85 7.75 -1.05 7.75 -0.75 7.65 0.9 7.6 1.4 7.45 2.65 7.45 2.75 7.35 3.2 6.7 5.8 5.25 9.05 4.95 9.55 4.85 9.75 4.7 9.95 4.65 10.0 5.25 13.1 4.8 19.4 M0.05 8.9 L0.0 8.9 0.05 8.9" fill="#c4ccb7" fill-rule="evenodd" stroke="none"/>
    <path d="M7.8 -5.15 L8.05 -4.95 8.95 -4.05 9.15 -3.75 9.75 -2.75 10.0 -1.3 9.95 -0.9 9.9 -0.15 9.05 4.05 8.55 5.75 8.4 6.15 7.3 8.75 7.4 18.15 7.25 18.4 6.4 16.65 5.15 19.35 4.8 19.4 5.25 13.1 4.65 10.0 4.7 9.95 4.85 9.75 4.95 9.55 5.25 9.05 6.7 5.8 7.35 3.2 7.45 2.75 7.45 2.65 7.6 1.4 7.65 0.9 7.75 -0.75 7.75 -1.05 7.7 -1.85 7.7 -2.3 6.75 -3.55 6.55 -3.7 6.35 -3.8 6.2 -3.9 7.8 -5.15" fill="#aeba9e" fill-rule="evenodd" stroke="none"/>
    <path d="M-8.25 -8.4 Q-8.0 -4.3 -5.4 -2.55 -0.45 -2.4 4.85 -4.55 L4.95 -4.6 5.15 -4.55 5.25 -4.45 6.2 -3.9 Q1.8 -1.0 -5.4 -1.1 L-5.55 -1.1 -5.7 -1.1 -5.8 -1.1 -6.0 -1.1 -6.15 -1.2 -6.85 -1.8 Q-9.15 -4.1 -9.2 -8.0 L-8.25 -8.4" fill="#dce0d3" fill-rule="evenodd" stroke="none"/>
    <path d="M4.95 -4.6 L6.6 -5.65 7.8 -5.15 6.2 -3.9 5.25 -4.45 5.15 -4.55 4.95 -4.6" fill="#c5ccb7" fill-rule="evenodd" stroke="none"/>
    <path d="M6.6 -5.65 L7.8 -5.15 8.05 -4.95 8.95 -4.05 9.15 -3.75 9.75 -2.75 10.0 -1.3 9.95 -0.9 9.9 -0.15 9.05 4.05 8.55 5.75 8.4 6.15 7.3 8.75 7.4 18.15 7.25 18.4 6.4 16.65 5.15 19.35 4.8 19.4 -3.85 19.9 -3.95 19.9 -5.1 19.75 -6.9 19.35 Q-8.45 18.85 -9.2 18.0 -9.5 11.75 -9.15 10.05 L-9.2 8.75 -9.2 8.6 -9.15 7.6 -9.15 7.45 -9.05 6.85 Q-8.7 4.15 -9.65 1.75 L-9.7 1.6 -9.75 1.55 Q-10.4 0.45 -10.65 -0.7 -10.95 -1.85 -10.85 -3.0 L-10.45 -5.15 -10.4 -5.2 M-9.2 -8.0 L-8.25 -8.4" fill="none" stroke="#6a4e44" stroke-linecap="round" stroke-linejoin="round" stroke-width="0.05"/>
    <path d="M-8.25 -8.4 Q-8.0 -4.3 -5.4 -2.55 -0.45 -2.4 4.85 -4.55 L4.95 -4.6 6.6 -5.65 Z" fill="none" stroke="#6a4e44" stroke-linecap="round" stroke-linejoin="round" stroke-width="0.05"/>
  </g>
</svg>
