<?xml version="1.0" encoding="UTF-8" standalone="no"?>
<svg xmlns:xlink="http://www.w3.org/1999/xlink" height="23.8px" width="9.35px" xmlns="http://www.w3.org/2000/svg">
  <g transform="matrix(1.0, 0.0, 0.0, 1.0, 8.15, 1.85)">
    <path d="M-5.6 3.8 L-5.7 3.85 -5.7 3.8 -5.6 3.8" fill="#89a58a" fill-rule="evenodd" stroke="none"/>
    <path d="M0.8 8.9 L1.2 16.85 0.35 20.8 0.1 21.5 -1.4 21.85 -1.65 21.85 -4.4 21.75 -5.5 21.35 -5.9 21.15 -6.4 20.75 -7.05 20.2 -7.25 19.75 -8.15 15.85 -7.25 10.25 Q-6.95 8.45 -6.75 4.0 L-5.7 3.85 -5.6 3.8 -4.35 3.75 Q-2.75 3.7 -1.65 4.3 L-1.45 4.4 Q0.5 5.6 0.8 8.9" fill="#c1a49d" fill-rule="evenodd" stroke="none"/>
    <path d="M-6.35 0.95 Q-6.0 -0.6 -5.3 -1.5 L-5.15 -1.45 -5.15 -1.5 -5.05 -1.55 -4.0 -1.75 -2.15 -1.8 -0.85 -1.5 -0.55 -1.35 -0.3 -1.25 0.1 0.55 Q0.45 2.2 0.8 8.9 0.5 5.6 -1.45 4.4 L-1.65 4.3 Q-2.75 3.7 -4.35 3.75 L-5.6 3.8 -5.7 3.8 -5.7 3.85 -6.75 4.0 -6.35 0.95" fill="#ba9894" fill-rule="evenodd" stroke="none"/>
    <path d="M-0.55 -1.35 L-0.3 -1.25 0.1 0.55 Q0.45 2.2 0.8 8.9 L1.2 16.85 0.35 20.8 M-7.25 19.75 L-8.15 15.85 -7.25 10.25 Q-6.95 8.45 -6.75 4.0 L-6.35 0.95 M-5.7 3.8 L-5.7 3.85" fill="none" stroke="#7d5651" stroke-linecap="round" stroke-linejoin="round" stroke-width="0.05"/>
  </g>
</svg>
