<?xml version="1.0" encoding="UTF-8" standalone="no"?>
<svg xmlns:xlink="http://www.w3.org/1999/xlink" height="18.4px" width="16.0px" xmlns="http://www.w3.org/2000/svg">
  <g transform="matrix(1.0, 0.0, 0.0, 1.0, 4.15, 9.75)">
    <path d="M-2.35 -0.55 L-1.9 -0.55 -1.6 0.45 -2.35 -0.55 M3.45 0.75 Q2.05 0.3 0.25 1.15 1.6 -0.5 3.45 0.75" fill="#9b5e5e" fill-rule="evenodd" stroke="none"/>
    <path d="M-2.35 -0.55 L-1.6 0.45 -1.9 -0.55 M3.45 0.75 Q1.6 -0.5 0.25 1.15 2.05 0.3 3.45 0.75" fill="none" stroke="#4b2e2e" stroke-linecap="round" stroke-linejoin="round" stroke-width="0.05"/>
    <path d="M8.7 4.3 Q8.95 2.85 8.85 0.8 9.75 0.85 10.0 0.4 10.65 2.2 8.7 4.3 M5.2 0.0 L5.7 -0.1 5.7 3.45 5.65 4.65 5.15 5.25 Q5.3 3.65 4.5 2.0 L5.2 0.0 M2.75 0.4 L3.4 0.8 Q2.0 0.3 0.2 1.15 L0.7 0.65 2.75 0.4 M5.05 7.85 Q4.5 8.3 3.85 8.35 L4.5 7.35 5.05 7.85" fill="#9b5e5e" fill-rule="evenodd" stroke="none"/>
    <path d="M10.0 0.4 Q10.65 2.2 8.7 4.3 M5.15 5.25 Q5.3 3.65 4.5 2.0 L5.2 0.0 M0.7 0.65 L0.2 1.15 Q2.0 0.3 3.4 0.8 L2.75 0.4 M5.05 7.85 Q4.5 8.3 3.85 8.35 L4.5 7.35" fill="none" stroke="#4b2e2e" stroke-linecap="round" stroke-linejoin="round" stroke-width="0.05"/>
    <path d="M-3.45 -4.45 Q-3.0 -4.0 -2.0 -3.7 L4.3 -3.05 4.3 -0.2 3.6 -0.15 3.5 -0.15 3.4 -0.15 3.0 -0.15 0.25 -0.4 -0.1 -0.45 -1.6 -0.8 -1.65 -0.8 -2.25 -0.95 Q-2.6 -1.1 -2.8 -1.2 L-2.85 -1.2 -3.15 -1.35 -3.45 -1.55 -3.5 -1.65 -3.65 -1.8 -3.65 -1.85 -3.7 -1.95 -3.75 -2.1 -3.75 -2.3 -3.75 -2.1 -3.75 -2.15 -3.75 -2.1 -3.75 -2.15 -3.75 -2.3 -3.7 -4.8 -3.45 -4.45 M5.7 -0.1 L5.95 -0.05 6.5 0.05 4.65 5.9 6.85 8.4 5.6 8.65 3.55 6.8 5.7 0.05 5.7 -0.1" fill="#c6c7d0" fill-rule="evenodd" stroke="none"/>
    <path d="M3.6 -0.15 L3.0 -0.05 2.75 -0.05 0.7 0.2 -1.95 0.25 -3.05 0.0 -3.4 -0.1 -3.45 -0.15 -3.7 -0.35 -4.15 -1.0 -4.15 -1.05 -4.15 -1.1 -4.1 -1.2 -3.75 -2.1 -3.7 -1.95 -3.65 -1.85 -3.65 -1.8 -3.5 -1.65 -3.45 -1.55 -3.15 -1.35 -2.85 -1.2 -2.8 -1.2 Q-2.6 -1.1 -2.25 -0.95 L-1.65 -0.8 -1.6 -0.8 -0.1 -0.45 0.25 -0.4 3.0 -0.15 3.4 -0.15 3.5 -0.15 3.6 -0.15" fill="#a8aab7" fill-rule="evenodd" stroke="none"/>
    <path d="M-3.55 3.8 L-2.5 6.55 -4.1 5.0 -3.55 3.8" fill="#6c7280" fill-rule="evenodd" stroke="none"/>
    <path d="M3.6 -9.7 L3.6 -9.65 Q6.05 -9.45 7.15 -7.8 8.25 -6.2 7.4 -4.05 L5.95 -1.85 5.95 -3.05 4.3 -3.05 -2.0 -3.7 Q-3.0 -4.0 -3.45 -4.45 L-3.35 -4.85 Q-2.85 -6.4 -1.65 -7.65 -0.5 -8.9 1.05 -9.4 L3.15 -9.75 3.6 -9.7" fill="#ffffff" fill-rule="evenodd" stroke="none"/>
    <path d="M5.95 -1.85 L7.4 -4.05 Q8.25 -6.2 7.15 -7.8 6.05 -9.45 3.6 -9.65 L3.6 -9.7 Q6.1 -9.55 7.95 -7.65 9.9 -5.55 9.95 -2.55 L9.9 -1.65 Q8.7 -0.75 5.95 -1.25 L5.95 -1.85" fill="#ececec" fill-rule="evenodd" stroke="none"/>
    <path d="M4.3 -3.05 L5.95 -3.05 5.95 -1.85 5.95 -1.25 Q8.7 -0.75 9.9 -1.65 L10.0 -1.8 10.05 -1.0 10.05 -0.45 11.85 4.55 Q9.3 7.7 6.85 8.4 L4.65 5.9 6.5 0.05 5.95 -0.05 5.7 -0.1 5.7 -0.25 5.25 -0.25 5.05 -0.25 4.3 -0.2 4.3 -3.05 M10.05 -1.0 L9.7 -0.65 Q8.65 0.2 6.5 0.05 8.65 0.2 9.7 -0.65 L10.05 -1.0 M5.95 -1.25 L5.95 -0.55 5.95 -0.05 5.95 -0.55 5.95 -1.25" fill="#babcc5" fill-rule="evenodd" stroke="none"/>
    <path d="M-4.15 -1.05 L-4.15 -1.0 -3.7 -0.35 -3.45 -0.15 -3.4 -0.1 -3.05 0.0 -1.95 0.25 0.7 0.2 2.75 -0.05 3.0 -0.05 3.6 -0.15 4.3 -0.2 5.05 -0.25 5.25 -0.25 5.7 -0.25 5.7 -0.1 5.2 0.0 2.75 0.4 0.7 0.65 -1.95 0.7 -3.05 0.45 -3.4 0.35 -3.45 0.3 -3.7 0.1 Q-4.25 -0.35 -4.15 -1.05" fill="#999da8" fill-rule="evenodd" stroke="none"/>
    <path d="M-3.45 -4.45 Q-3.0 -4.0 -2.0 -3.7 L4.3 -3.05 5.95 -3.05 5.95 -1.85 5.95 -1.25 Q8.7 -0.75 9.9 -1.65 L10.0 -1.8 10.05 -1.0 9.7 -0.65 Q8.65 0.2 6.5 0.05 L5.95 -0.05 5.95 -0.55 5.95 -1.25 M5.7 -0.1 L5.95 -0.05 M10.05 -0.45 L11.85 4.55 Q9.3 7.7 6.85 8.4 L5.6 8.65 3.55 6.8 5.7 0.05 5.7 -0.1 M-3.45 -4.45 L-3.7 -4.8 -3.75 -2.3 -3.75 -2.1 -3.75 -2.15 -3.75 -2.1 M-3.75 -2.15 L-3.75 -2.3" fill="none" stroke="#7d8193" stroke-linecap="round" stroke-linejoin="round" stroke-width="0.05"/>
    <path d="M10.05 -1.0 L10.05 -0.45" fill="none" stroke="#7d8193" stroke-linecap="round" stroke-linejoin="round" stroke-width="0.05"/>
    <path d="M-3.55 3.8 L-4.1 5.0 -2.5 6.55" fill="none" stroke="#912b5f" stroke-linecap="round" stroke-linejoin="round" stroke-width="0.05"/>
    <path d="M3.6 -9.7 L3.15 -9.75 1.05 -9.4 Q-0.5 -8.9 -1.65 -7.65 -2.85 -6.4 -3.35 -4.85 L-3.45 -4.45 M9.9 -1.65 L9.95 -2.55 Q9.9 -5.55 7.95 -7.65 6.1 -9.55 3.6 -9.7" fill="none" stroke="#999999" stroke-linecap="round" stroke-linejoin="round" stroke-width="0.05"/>
    <path d="M-4.15 -1.05 Q-4.25 -0.35 -3.7 0.1 M-3.45 0.3 L-3.4 0.35 -3.05 0.45 -1.95 0.7 0.7 0.65 2.75 0.4 5.2 0.0 5.7 -0.1 M-3.75 -2.1 L-4.1 -1.2 -4.15 -1.1 -4.15 -1.05" fill="none" stroke="#9599a6" stroke-linecap="round" stroke-linejoin="round" stroke-width="0.05"/>
    <path d="M-3.7 0.1 L-3.45 0.3" fill="none" stroke="#9599a6" stroke-linecap="round" stroke-linejoin="round" stroke-width="0.05"/>
  </g>
</svg>
