<?xml version="1.0" encoding="UTF-8" standalone="no"?>
<svg xmlns:xlink="http://www.w3.org/1999/xlink" height="7.55px" width="13.05px" xmlns="http://www.w3.org/2000/svg">
  <g transform="matrix(1.0, 0.0, 0.0, 1.0, 6.0, 2.55)">
    <path d="M-5.95 3.25 Q-4.1 1.05 -0.5 -1.6 L-0.05 -1.8 1.75 -2.55 2.35 -2.35 2.35 -2.3 4.85 -1.65 4.9 -1.65 6.05 -0.7 Q7.85 1.3 6.4 4.55 L3.25 4.55 3.25 3.5 2.65 3.65 2.55 3.65 -4.85 5.0 Q-6.15 5.0 -5.95 3.25 M-0.5 -1.6 Q3.35 -0.35 2.65 3.65 3.35 -0.35 -0.5 -1.6 M3.25 3.5 Q4.4 1.45 3.25 -0.1 1.85 -1.9 -0.05 -1.8 1.85 -1.9 3.25 -0.1 4.4 1.45 3.25 3.5" fill="#2f546f" fill-rule="evenodd" stroke="none"/>
    <path d="M-5.95 3.25 Q-4.1 1.05 -0.5 -1.6 L-0.05 -1.8 1.75 -2.55 2.35 -2.35 M2.35 -2.3 L4.85 -1.65 4.9 -1.65 6.05 -0.7 Q7.85 1.3 6.4 4.55 L3.25 4.55 3.25 3.5 2.65 3.65 2.55 3.65 -4.85 5.0 Q-6.15 5.0 -5.95 3.25 M-0.05 -1.8 Q1.85 -1.9 3.25 -0.1 4.4 1.45 3.25 3.5 M2.65 3.65 Q3.35 -0.35 -0.5 -1.6" fill="none" stroke="#1d3643" stroke-linecap="round" stroke-linejoin="round" stroke-width="0.05"/>
  </g>
</svg>
