<?xml version="1.0" encoding="UTF-8" standalone="no"?>
<svg xmlns:xlink="http://www.w3.org/1999/xlink" height="23.95px" width="10.0px" xmlns="http://www.w3.org/2000/svg">
  <g transform="matrix(1.0, 0.0, 0.0, 1.0, 8.15, 2.0)">
    <path d="M-4.0 -1.75 Q-1.9 -2.1 -0.3 -1.25 L0.1 0.55 Q0.45 2.2 0.8 8.9 0.35 3.7 -4.35 3.75 L-4.0 -1.75" fill="#7dacab" fill-rule="evenodd" stroke="none"/>
    <path d="M0.8 8.9 L1.2 16.85 Q0.85 19.7 0.1 21.5 L-4.4 21.75 Q-5.3 20.2 -5.25 16.9 L-4.35 3.75 Q0.35 3.7 0.8 8.9" fill="#689b98" fill-rule="evenodd" stroke="none"/>
    <path d="M-4.4 21.75 Q-6.0 21.35 -7.05 20.2 -7.65 18.95 -8.15 15.85 L-7.25 10.25 Q-6.95 8.45 -6.75 4.0 -6.6 0.15 -5.3 -1.5 L-4.0 -1.75 -4.35 3.75 -5.25 16.9 Q-5.3 20.2 -4.4 21.75" fill="#dcdeeb" fill-rule="evenodd" stroke="none"/>
    <path d="M-4.4 21.75 Q-6.0 21.35 -7.05 20.2 -7.65 18.95 -8.15 15.85 L-7.25 10.25 Q-6.95 8.45 -6.75 4.0 -6.6 0.15 -5.3 -1.5 L-4.0 -1.75 Q-1.9 -2.1 -0.3 -1.25 L0.1 0.55 Q0.45 2.2 0.8 8.9 L1.2 16.85 Q0.85 19.7 0.1 21.5 L-4.4 21.75 Q-5.3 20.2 -5.25 16.9 L-4.35 3.75 -4.0 -1.75" fill="none" stroke="#588780" stroke-linecap="round" stroke-linejoin="round" stroke-width="0.05"/>
    <path d="M1.7 14.6 Q2.05 14.85 1.7 15.75 -1.7 17.1 -5.7 15.15 L-5.7 -1.9 -4.55 -1.9 -4.55 14.65 Q-1.25 16.2 1.7 14.6" fill="#ffffff" fill-rule="evenodd" stroke="none"/>
    <path d="M1.7 14.6 Q-1.25 16.2 -4.55 14.65 L-4.55 -1.9 0.2 -1.65 Q2.0 6.1 1.7 14.6" fill="#536854" fill-rule="evenodd" stroke="none"/>
    <path d="M0.2 -1.65 Q2.0 6.1 1.7 14.6" fill="none" stroke="#455645" stroke-linecap="round" stroke-linejoin="round" stroke-width="0.05"/>
    <path d="M-4.55 -1.9 L-5.7 -1.9 -5.7 15.15 Q-1.7 17.1 1.7 15.75 2.05 14.85 1.7 14.6" fill="none" stroke="#666666" stroke-linecap="round" stroke-linejoin="round" stroke-width="0.05"/>
  </g>
</svg>
