<?xml version="1.0" encoding="UTF-8" standalone="no"?>
<svg xmlns:xlink="http://www.w3.org/1999/xlink" height="9.9px" width="10.4px" xmlns="http://www.w3.org/2000/svg">
  <g transform="matrix(1.0, 0.0, 0.0, 1.0, 4.95, 4.45)">
    <path d="M-4.95 -3.05 Q-3.2 -4.8 -1.1 -4.35 3.35 -0.3 5.45 4.15 5.2 4.9 2.75 5.45 -0.4 5.0 -1.8 2.5 -2.05 1.9 -2.65 1.65 -4.3 1.0 -4.35 -0.5 -4.45 -2.0 -4.95 -3.05" fill="#223543" fill-rule="evenodd" stroke="none"/>
    <path d="M-4.95 -3.05 Q-4.45 -2.0 -4.35 -0.5 -4.3 1.0 -2.65 1.65 -2.05 1.9 -1.8 2.5 -0.4 5.0 2.75 5.45 5.2 4.9 5.45 4.15 3.35 -0.3 -1.1 -4.35" fill="none" stroke="#152c33" stroke-linecap="round" stroke-linejoin="round" stroke-width="0.05"/>
  </g>
</svg>
