<?xml version="1.0" encoding="UTF-8" standalone="no"?>
<svg xmlns:xlink="http://www.w3.org/1999/xlink" height="27.1px" width="19.9px" xmlns="http://www.w3.org/2000/svg">
  <g transform="matrix(1.0, 0.0, 0.0, 1.0, 9.95, 13.55)">
    <path d="M0.1 -9.35 Q0.65 -8.85 1.35 -8.85 2.05 -8.85 2.6 -9.35 3.1 -9.9 3.1 -10.6 3.1 -11.3 2.6 -11.85 2.05 -12.35 1.35 -12.35 0.65 -12.35 0.1 -11.85 -0.4 -11.3 -0.4 -10.6 -0.4 -9.9 0.1 -9.35 M-4.35 -6.1 Q-5.1 -7.25 -5.1 -8.7 -5.1 -10.75 -3.65 -12.15 -2.25 -13.6 -0.25 -13.55 1.75 -13.6 3.2 -12.15 4.6 -10.75 4.6 -8.7 4.6 -7.2 3.75 -5.95 L3.2 -5.3 Q1.75 -3.9 -0.25 -3.85 -2.25 -3.9 -3.65 -5.3 L-4.35 -6.1" fill="#33ffff" fill-rule="evenodd" stroke="none"/>
    <path d="M0.1 -9.35 Q-0.4 -9.9 -0.4 -10.6 -0.4 -11.3 0.1 -11.85 0.65 -12.35 1.35 -12.35 2.05 -12.35 2.6 -11.85 3.1 -11.3 3.1 -10.6 3.1 -9.9 2.6 -9.35 2.05 -8.85 1.35 -8.85 0.65 -8.85 0.1 -9.35" fill="#c1ffff" fill-rule="evenodd" stroke="none"/>
    <path d="M5.2 -4.95 L7.0 -3.45 Q9.95 -0.55 9.95 3.6 9.95 7.7 7.0 10.6 4.1 13.55 0.0 13.55 -4.15 13.55 -7.05 10.6 -9.95 7.7 -9.95 3.6 -9.95 -0.55 -7.05 -3.45 L-6.05 -4.35 Q-5.75 -3.85 -4.5 -3.45 -2.85 -2.9 -0.5 -2.9 L0.4 -2.9 Q1.2 -2.05 0.4 -1.15 -1.1 -0.8 -2.25 0.35 -3.9 2.0 -3.9 4.4 -3.9 6.75 -2.25 8.4 -0.55 10.05 1.8 10.1 4.15 10.05 5.85 8.4 7.5 6.75 7.5 4.4 7.5 2.0 5.85 0.35 4.55 -0.95 2.95 -1.25 3.65 -2.05 2.95 -3.25 L3.55 -3.45 Q5.2 -4.0 5.2 -4.75 L5.2 -4.95" fill="#ffde59" fill-rule="evenodd" stroke="none"/>
    <path d="M3.75 -5.95 L5.2 -4.95 5.2 -4.75 Q5.2 -4.0 3.55 -3.45 L2.95 -3.25 Q3.65 -2.05 2.95 -1.25 L1.8 -1.35 0.4 -1.15 Q1.2 -2.05 0.4 -2.9 L-0.5 -2.9 Q-2.85 -2.9 -4.5 -3.45 -5.75 -3.85 -6.05 -4.35 L-6.15 -4.75 Q-6.15 -5.5 -4.5 -6.05 L-4.35 -6.1 -3.65 -5.3 Q-2.25 -3.9 -0.25 -3.85 1.75 -3.9 3.2 -5.3 L3.75 -5.95 M0.4 -2.9 L2.95 -3.25 0.4 -2.9" fill="#f8bf01" fill-rule="evenodd" stroke="none"/>
    <path d="M-4.35 -6.1 Q-5.1 -7.25 -5.1 -8.7 -5.1 -10.75 -3.65 -12.15 -2.25 -13.6 -0.25 -13.55 1.75 -13.6 3.2 -12.15 4.6 -10.75 4.6 -8.7 4.6 -7.2 3.75 -5.95 L3.2 -5.3 Q1.75 -3.9 -0.25 -3.85 -2.25 -3.9 -3.65 -5.3 L-4.35 -6.1" fill="none" stroke="#01a3a2" stroke-linecap="round" stroke-linejoin="round" stroke-width="0.05"/>
    <path d="M3.75 -5.95 L5.2 -4.95 7.0 -3.45 Q9.95 -0.55 9.95 3.6 9.95 7.7 7.0 10.6 4.1 13.55 0.0 13.55 -4.15 13.55 -7.05 10.6 -9.95 7.7 -9.95 3.6 -9.95 -0.55 -7.05 -3.45 L-6.05 -4.35 -6.15 -4.75 Q-6.15 -5.5 -4.5 -6.05 L-4.35 -6.1 M2.95 -3.25 L0.4 -2.9 Q1.2 -2.05 0.4 -1.15 L1.8 -1.35 2.95 -1.25 Q3.65 -2.05 2.95 -3.25 L3.55 -3.45 Q5.2 -4.0 5.2 -4.75 L5.2 -4.95 M2.95 -1.25 Q4.55 -0.95 5.85 0.35 7.5 2.0 7.5 4.4 7.5 6.75 5.85 8.4 4.15 10.05 1.8 10.1 -0.55 10.05 -2.25 8.4 -3.9 6.75 -3.9 4.4 -3.9 2.0 -2.25 0.35 -1.1 -0.8 0.4 -1.15 M0.4 -2.9 L-0.5 -2.9 Q-2.85 -2.9 -4.5 -3.45 -5.75 -3.85 -6.05 -4.35" fill="none" stroke="#e4b001" stroke-linecap="round" stroke-linejoin="round" stroke-width="0.05"/>
  </g>
</svg>
