<?xml version="1.0" encoding="UTF-8" standalone="no"?>
<svg xmlns:xlink="http://www.w3.org/1999/xlink" height="8.55px" width="7.2px" xmlns="http://www.w3.org/2000/svg">
  <g transform="matrix(1.0, 0.0, 0.0, 1.0, 6.55, 6.8)">
    <path d="M-3.9 -3.9 L-3.7 -4.15 -2.5 -5.85 Q0.0 -5.7 0.2 -6.7 1.55 -0.95 -1.25 0.8 -0.4 -2.8 -3.9 -3.9" fill="#6b5f43" fill-rule="evenodd" stroke="none"/>
    <path d="M-2.5 -5.85 L-3.7 -4.15 -3.9 -3.9 Q-4.75 -4.2 -6.25 -2.65 -5.75 -4.3 -4.3 -6.8 -4.6 -6.0 -2.5 -5.85" fill="#7e6c50" fill-rule="evenodd" stroke="none"/>
    <path d="M-6.25 -2.65 Q-4.75 -4.2 -3.9 -3.9 -5.95 -0.55 -4.9 1.75 -7.1 0.6 -6.35 -2.35 L-6.25 -2.65" fill="#c5b9a0" fill-rule="evenodd" stroke="none"/>
    <path d="M-3.9 -3.9 Q-0.4 -2.8 -1.25 0.8 -2.6 1.65 -4.9 1.75 -5.95 -0.55 -3.9 -3.9" fill="#867653" fill-rule="evenodd" stroke="none"/>
    <path d="M-2.5 -5.85 L-3.7 -4.15 -3.9 -3.9 Q-5.95 -0.55 -4.9 1.75 -2.6 1.65 -1.25 0.8 1.55 -0.95 0.2 -6.7 0.0 -5.7 -2.5 -5.85 -4.6 -6.0 -4.3 -6.8 -5.75 -4.3 -6.25 -2.65 L-6.35 -2.35 Q-7.1 0.6 -4.9 1.75" fill="none" stroke="#685942" stroke-linecap="round" stroke-linejoin="round" stroke-width="0.05"/>
  </g>
</svg>
