<?xml version="1.0" encoding="UTF-8" standalone="no"?>
<svg xmlns:xlink="http://www.w3.org/1999/xlink" height="64.25px" width="95.65px" xmlns="http://www.w3.org/2000/svg">
  <g transform="matrix(1.0, 0.0, 0.0, 1.0, 88.95, 64.55)">
    <path d="M-88.95 -37.8 Q-68.2 -22.75 -31.05 -35.45 5.6 -50.1 -3.1 -2.8 -0.05 -0.7 4.25 -0.3 12.2 -58.1 -27.05 -42.65 -66.35 -27.2 -88.95 -37.8" fill="#a1d109" fill-rule="evenodd" stroke="none">
      <animate attributeName="fill" dur="2s" repeatCount="indefinite" values="#a1d109;#a1d10a"/>
      <animate attributeName="fill-opacity" dur="2s" repeatCount="indefinite" values="1.0;1.0"/>
      <animate attributeName="d" dur="2s" repeatCount="indefinite" values="M-88.95 -37.8 Q-68.2 -22.75 -31.05 -35.45 5.6 -50.1 -3.1 -2.8 -0.05 -0.7 4.25 -0.3 12.2 -58.1 -27.05 -42.65 -66.35 -27.2 -88.95 -37.8;M-66.05 -5.3 Q-60.85 -37.7 -31.9 -53.7 8.6 -74.45 -3.1 -2.8 -0.05 -0.7 4.25 -0.3 15.2 -73.65 -23.1 -63.25 -61.4 -52.9 -66.05 -5.3"/>
    </path>
    <path d="M-88.95 -37.8 Q-66.35 -27.2 -27.05 -42.65 12.2 -58.1 4.25 -0.3 -0.05 -0.7 -3.1 -2.8 5.6 -50.1 -31.05 -35.45 -68.2 -22.75 -88.95 -37.8 -66.35 -27.2 -27.05 -42.65 12.2 -58.1 4.25 -0.3 -0.05 -0.7 -3.1 -2.8 5.6 -50.1 -31.05 -35.45 -68.2 -22.75 -88.95 -37.8" fill="none" stroke="#475f1b" stroke-linecap="round" stroke-linejoin="round" stroke-width="0.05">
      <animate attributeName="stroke" dur="2s" repeatCount="indefinite" values="#475f1b;#475f1c"/>
      <animate attributeName="stroke-width" dur="2s" repeatCount="indefinite" values="0.05;0.05"/>
      <animate attributeName="fill-opacity" dur="2s" repeatCount="indefinite" values="1.0;1.0"/>
      <animate attributeName="d" dur="2s" repeatCount="indefinite" values="M-88.95 -37.8 Q-66.35 -27.2 -27.05 -42.65 12.2 -58.1 4.25 -0.3 -0.05 -0.7 -3.1 -2.8 5.6 -50.1 -31.05 -35.45 -68.2 -22.75 -88.95 -37.8 -66.35 -27.2 -27.05 -42.65 12.2 -58.1 4.25 -0.3 -0.05 -0.7 -3.1 -2.8 5.6 -50.1 -31.05 -35.45 -68.2 -22.75 -88.95 -37.8;M-66.05 -5.3 Q-61.4 -52.9 -23.1 -63.25 15.2 -73.65 4.25 -0.3 -0.05 -0.7 -3.1 -2.8 8.6 -74.45 -31.9 -53.7 -60.85 -37.7 -66.05 -5.3 -61.4 -52.9 -23.1 -63.25 15.2 -73.65 4.25 -0.3 -0.05 -0.7 -3.1 -2.8 8.6 -74.45 -31.9 -53.7 -60.85 -37.7 -66.05 -5.3"/>
    </path>
  </g>
</svg>
