<?xml version="1.0" encoding="UTF-8" standalone="no"?>
<svg xmlns:xlink="http://www.w3.org/1999/xlink" height="64.25px" width="77.45px" xmlns="http://www.w3.org/2000/svg">
  <g transform="matrix(1.0, 0.0, 0.0, 1.0, 70.75, 64.55)">
    <path d="M4.25 -0.3 Q15.2 -73.65 -23.1 -63.25 L-28.9 -61.4 Q-37.35 -58.25 -43.9 -53.05 -62.6 -38.1 -65.95 -6.1 L-66.05 -5.3 Q-61.1 -36.15 -31.9 -53.7 8.6 -74.45 -3.1 -2.8 -0.05 -0.7 4.25 -0.3" fill="#a1d109" fill-rule="evenodd" stroke="none">
      <animate attributeName="fill" dur="2s" repeatCount="indefinite" values="#a1d109;#a1d10a"/>
      <animate attributeName="fill-opacity" dur="2s" repeatCount="indefinite" values="1.0;1.0"/>
      <animate attributeName="d" dur="2s" repeatCount="indefinite" values="M4.25 -0.3 Q15.2 -73.65 -23.1 -63.25 L-28.9 -61.4 Q-37.35 -58.25 -43.9 -53.05 -62.6 -38.1 -65.95 -6.1 L-66.05 -5.3 Q-61.1 -36.15 -31.9 -53.7 8.6 -74.45 -3.1 -2.8 -0.05 -0.7 4.25 -0.3;M4.25 -0.3 Q7.4 -54.7 -16.2 -61.75 L-20.8 -62.65 Q-28.05 -63.8 -34.95 -62.6 -57.65 -58.7 -70.75 -38.8 L-70.25 -39.3 Q-53.75 -55.15 -24.15 -57.3 0.05 -57.9 -3.1 -2.8 -0.05 -0.7 4.25 -0.3"/>
    </path>
    <path d="M4.25 -0.3 Q-0.05 -0.7 -3.1 -2.8 8.6 -74.45 -31.9 -53.7 -61.1 -36.15 -66.05 -5.3 L-65.95 -6.1 Q-62.6 -38.1 -43.9 -53.05 -37.35 -58.25 -28.9 -61.4 L-23.1 -63.25 Q15.2 -73.65 4.25 -0.3 -0.05 -0.7 -3.1 -2.8 8.6 -74.45 -31.9 -53.7 -61.1 -36.15 -66.05 -5.3 L-65.95 -6.1 Q-62.6 -38.1 -43.9 -53.05 -37.35 -58.25 -28.9 -61.4 L-23.1 -63.25 Q15.2 -73.65 4.25 -0.3" fill="none" stroke="#475f1b" stroke-linecap="round" stroke-linejoin="round" stroke-width="0.05">
      <animate attributeName="stroke" dur="2s" repeatCount="indefinite" values="#475f1b;#475f1c"/>
      <animate attributeName="stroke-width" dur="2s" repeatCount="indefinite" values="0.05;0.05"/>
      <animate attributeName="fill-opacity" dur="2s" repeatCount="indefinite" values="1.0;1.0"/>
      <animate attributeName="d" dur="2s" repeatCount="indefinite" values="M4.25 -0.3 Q-0.05 -0.7 -3.1 -2.8 8.6 -74.45 -31.9 -53.7 -61.1 -36.15 -66.05 -5.3 L-65.95 -6.1 Q-62.6 -38.1 -43.9 -53.05 -37.35 -58.25 -28.9 -61.4 L-23.1 -63.25 Q15.2 -73.65 4.25 -0.3 -0.05 -0.7 -3.1 -2.8 8.6 -74.45 -31.9 -53.7 -61.1 -36.15 -66.05 -5.3 L-65.95 -6.1 Q-62.6 -38.1 -43.9 -53.05 -37.35 -58.25 -28.9 -61.4 L-23.1 -63.25 Q15.2 -73.65 4.25 -0.3;M4.25 -0.3 Q-0.05 -0.7 -3.1 -2.8 0.05 -57.9 -24.15 -57.3 -53.75 -55.15 -70.25 -39.3 L-70.75 -38.8 Q-57.65 -58.7 -34.95 -62.6 -28.05 -63.8 -20.8 -62.65 L-16.2 -61.75 Q7.4 -54.7 4.25 -0.3 -0.05 -0.7 -3.1 -2.8 0.05 -57.9 -24.15 -57.3 -53.75 -55.15 -70.25 -39.3 L-70.75 -38.8 Q-57.65 -58.7 -34.95 -62.6 -28.05 -63.8 -20.8 -62.65 L-16.2 -61.75 Q7.4 -54.7 4.25 -0.3"/>
    </path>
  </g>
</svg>
