<?xml version="1.0" encoding="UTF-8" standalone="no"?>
<svg xmlns:xlink="http://www.w3.org/1999/xlink" height="73.75px" width="80.45px" xmlns="http://www.w3.org/2000/svg">
  <g transform="matrix(1.0, 0.0, 0.0, 1.0, 75.85, 74.05)">
    <path d="M-70.75 -38.8 Q-54.15 -55.1 -26.9 -57.05 -23.35 -57.55 -20.35 -57.0 -0.2 -53.35 -3.1 -2.8 L-1.45 -1.85 Q1.05 -0.6 4.25 -0.3 L4.35 -2.5 Q7.15 -59.8 -20.8 -62.65 -26.65 -63.6 -34.95 -62.6 -57.65 -58.7 -70.75 -38.8" fill="#a1d109" fill-rule="evenodd" stroke="none">
      <animate attributeName="fill" dur="2s" repeatCount="indefinite" values="#a1d109;#a1d10a"/>
      <animate attributeName="fill-opacity" dur="2s" repeatCount="indefinite" values="1.0;1.0"/>
      <animate attributeName="d" dur="2s" repeatCount="indefinite" values="M-70.75 -38.8 Q-54.15 -55.1 -26.9 -57.05 -23.35 -57.55 -20.35 -57.0 -0.2 -53.35 -3.1 -2.8 L-1.45 -1.85 Q1.05 -0.6 4.25 -0.3 L4.35 -2.5 Q7.15 -59.8 -20.8 -62.65 -26.65 -63.6 -34.95 -62.6 -57.65 -58.7 -70.75 -38.8;M-75.85 -69.15 Q-50.85 -72.85 -29.5 -62.25 -26.8 -60.75 -24.15 -59.3 -8.1 -49.65 -3.3 -4.6 L-3.1 -2.8 Q-0.8 -1.2 2.25 -0.6 L4.25 -0.3 Q-0.05 -48.4 -20.65 -63.8 -25.2 -67.2 -33.15 -69.85 -60.9 -78.55 -75.85 -69.15"/>
    </path>
    <path d="M-70.75 -38.8 Q-57.65 -58.7 -34.95 -62.6 -26.65 -63.6 -20.8 -62.65 7.15 -59.8 4.35 -2.5 L4.25 -0.3 Q1.05 -0.6 -1.45 -1.85 L-3.1 -2.8 Q-0.2 -53.35 -20.35 -57.0 -23.35 -57.55 -26.9 -57.05 -54.15 -55.1 -70.75 -38.8 -57.65 -58.7 -34.95 -62.6 -26.65 -63.6 -20.8 -62.65 7.15 -59.8 4.35 -2.5 L4.25 -0.3 Q1.05 -0.6 -1.45 -1.85 L-3.1 -2.8 Q-0.2 -53.35 -20.35 -57.0 -23.35 -57.55 -26.9 -57.05 -54.15 -55.1 -70.75 -38.8" fill="none" stroke="#475f1b" stroke-linecap="round" stroke-linejoin="round" stroke-width="0.05">
      <animate attributeName="stroke" dur="2s" repeatCount="indefinite" values="#475f1b;#475f1c"/>
      <animate attributeName="stroke-width" dur="2s" repeatCount="indefinite" values="0.05;0.05"/>
      <animate attributeName="fill-opacity" dur="2s" repeatCount="indefinite" values="1.0;1.0"/>
      <animate attributeName="d" dur="2s" repeatCount="indefinite" values="M-70.75 -38.8 Q-57.65 -58.7 -34.95 -62.6 -26.65 -63.6 -20.8 -62.65 7.15 -59.8 4.35 -2.5 L4.25 -0.3 Q1.05 -0.6 -1.45 -1.85 L-3.1 -2.8 Q-0.2 -53.35 -20.35 -57.0 -23.35 -57.55 -26.9 -57.05 -54.15 -55.1 -70.75 -38.8 -57.65 -58.7 -34.95 -62.6 -26.65 -63.6 -20.8 -62.65 7.15 -59.8 4.35 -2.5 L4.25 -0.3 Q1.05 -0.6 -1.45 -1.85 L-3.1 -2.8 Q-0.2 -53.35 -20.35 -57.0 -23.35 -57.55 -26.9 -57.05 -54.15 -55.1 -70.75 -38.8;M-75.85 -69.15 Q-60.9 -78.55 -33.15 -69.85 -25.2 -67.2 -20.65 -63.8 -0.05 -48.4 4.25 -0.3 L2.25 -0.6 Q-0.8 -1.2 -3.1 -2.8 L-3.3 -4.6 Q-8.1 -49.65 -24.15 -59.3 -26.8 -60.75 -29.5 -62.25 -50.85 -72.85 -75.85 -69.15 -60.9 -78.55 -33.15 -69.85 -25.2 -67.2 -20.65 -63.8 -0.05 -48.4 4.25 -0.3 L2.25 -0.6 Q-0.8 -1.2 -3.1 -2.8 L-3.3 -4.6 Q-8.1 -49.65 -24.15 -59.3 -26.8 -60.75 -29.5 -62.25 -50.85 -72.85 -75.85 -69.15"/>
    </path>
  </g>
</svg>
