<?xml version="1.0" encoding="UTF-8" standalone="no"?>
<svg xmlns:xlink="http://www.w3.org/1999/xlink" height="72.9px" width="79.25px" xmlns="http://www.w3.org/2000/svg">
  <g transform="matrix(1.0, 0.0, 0.0, 1.0, 74.8, 73.2)">
    <path d="M4.25 -0.3 Q4.6 -6.35 -14.25 -15.9 -26.75 -22.25 -33.8 -29.8 -37.35 -33.6 -39.5 -37.7 -45.9 -49.9 -40.1 -73.2 L-41.25 -70.85 Q-46.15 -60.3 -47.2 -42.7 -47.85 -32.4 -35.75 -21.95 -24.7 -12.45 -3.1 -2.8 -0.05 -0.7 4.25 -0.3" fill="#a1d109" fill-rule="evenodd" stroke="none">
      <animate attributeName="fill" dur="2s" repeatCount="indefinite" values="#a1d109;#a1d10a"/>
      <animate attributeName="fill-opacity" dur="2s" repeatCount="indefinite" values="1.0;1.0"/>
      <animate attributeName="d" dur="2s" repeatCount="indefinite" values="M4.25 -0.3 Q4.6 -6.35 -14.25 -15.9 -26.75 -22.25 -33.8 -29.8 -37.35 -33.6 -39.5 -37.7 -45.9 -49.9 -40.1 -73.2 L-41.25 -70.85 Q-46.15 -60.3 -47.2 -42.7 -47.85 -32.4 -35.75 -21.95 -24.7 -12.45 -3.1 -2.8 -0.05 -0.7 4.25 -0.3;M4.25 -0.3 Q5.8 -24.95 -3.45 -33.3 -12.45 -41.35 -31.6 -34.1 -38.45 -31.5 -44.2 -30.7 -69.9 -27.0 -74.2 -58.45 L-74.6 -61.85 Q-76.45 -34.2 -62.6 -26.85 -52.05 -21.25 -32.3 -27.55 -2.3 -40.3 -3.1 -2.8 -0.05 -0.7 4.25 -0.3"/>
    </path>
    <path d="M4.25 -0.3 Q-0.05 -0.7 -3.1 -2.8 -24.7 -12.45 -35.75 -21.95 -47.85 -32.4 -47.2 -42.7 -46.15 -60.3 -41.25 -70.85 L-40.1 -73.2 Q-45.9 -49.9 -39.5 -37.7 -37.35 -33.6 -33.8 -29.8 -26.75 -22.25 -14.25 -15.9 4.6 -6.35 4.25 -0.3 -0.05 -0.7 -3.1 -2.8 -24.7 -12.45 -35.75 -21.95 -47.85 -32.4 -47.2 -42.7 -46.15 -60.3 -41.25 -70.85 L-40.1 -73.2 Q-45.9 -49.9 -39.5 -37.7 -37.35 -33.6 -33.8 -29.8 -26.75 -22.25 -14.25 -15.9 4.6 -6.35 4.25 -0.3" fill="none" stroke="#475f1b" stroke-linecap="round" stroke-linejoin="round" stroke-width="0.05">
      <animate attributeName="stroke" dur="2s" repeatCount="indefinite" values="#475f1b;#475f1c"/>
      <animate attributeName="stroke-width" dur="2s" repeatCount="indefinite" values="0.05;0.05"/>
      <animate attributeName="fill-opacity" dur="2s" repeatCount="indefinite" values="1.0;1.0"/>
      <animate attributeName="d" dur="2s" repeatCount="indefinite" values="M4.25 -0.3 Q-0.05 -0.7 -3.1 -2.8 -24.7 -12.45 -35.75 -21.95 -47.85 -32.4 -47.2 -42.7 -46.15 -60.3 -41.25 -70.85 L-40.1 -73.2 Q-45.9 -49.9 -39.5 -37.7 -37.35 -33.6 -33.8 -29.8 -26.75 -22.25 -14.25 -15.9 4.6 -6.35 4.25 -0.3 -0.05 -0.7 -3.1 -2.8 -24.7 -12.45 -35.75 -21.95 -47.85 -32.4 -47.2 -42.7 -46.15 -60.3 -41.25 -70.85 L-40.1 -73.2 Q-45.9 -49.9 -39.5 -37.7 -37.35 -33.6 -33.8 -29.8 -26.75 -22.25 -14.25 -15.9 4.6 -6.35 4.25 -0.3;M4.25 -0.3 Q-0.05 -0.7 -3.1 -2.8 -2.3 -40.3 -32.3 -27.55 -52.05 -21.25 -62.6 -26.85 -76.45 -34.2 -74.6 -61.85 L-74.2 -58.45 Q-69.9 -27.0 -44.2 -30.7 -38.45 -31.5 -31.6 -34.1 -12.45 -41.35 -3.45 -33.3 5.8 -24.95 4.25 -0.3 -0.05 -0.7 -3.1 -2.8 -2.3 -40.3 -32.3 -27.55 -52.05 -21.25 -62.6 -26.85 -76.45 -34.2 -74.6 -61.85 L-74.2 -58.45 Q-69.9 -27.0 -44.2 -30.7 -38.45 -31.5 -31.6 -34.1 -12.45 -41.35 -3.45 -33.3 5.8 -24.95 4.25 -0.3"/>
    </path>
  </g>
</svg>
