<?xml version="1.0" encoding="UTF-8" standalone="no"?>
<svg xmlns:xlink="http://www.w3.org/1999/xlink" height="36.25px" width="34.9px" xmlns="http://www.w3.org/2000/svg">
  <g transform="matrix(1.0, 0.0, 0.0, 1.0, 17.65, 19.0)">
    <path d="M16.8 -1.8 Q16.75 5.35 11.75 10.4 6.7 15.4 -0.45 15.45 -7.6 15.4 -12.6 10.4 -17.65 5.35 -17.65 -1.8 -17.65 -8.95 -12.6 -13.95 -7.6 -19.0 -0.45 -19.0 6.7 -19.0 11.75 -13.95 16.75 -8.95 16.8 -1.8 M-0.4 -2.1 L-0.65 -2.75 -1.25 -2.95 -1.85 -2.75 -2.05 -2.1 -1.85 -1.5 Q-1.6 -1.25 -1.25 -1.25 L-0.65 -1.5 Q-0.4 -1.75 -0.4 -2.1" fill="#000000" fill-opacity="0.5137255" fill-rule="evenodd" stroke="none"/>
    <path d="M-1.4 0.3 L-1.6 -0.3 -1.4 -0.95 -0.8 -1.15 -0.2 -0.95 0.05 -0.3 0.05 -0.1 0.0 -0.15 -0.6 -0.35 -1.2 -0.15 -1.4 0.3 -1.2 -0.15 -0.6 -0.35 0.0 -0.15 0.05 -0.1 -0.2 0.3 Q-0.45 0.55 -0.8 0.55 L-1.4 0.3" fill="#ffffff" fill-rule="evenodd" stroke="none"/>
    <path d="M0.05 -0.1 L0.25 0.5 0.0 1.1 -0.6 1.35 -1.2 1.1 -1.4 0.5 -1.4 0.3 -0.8 0.55 Q-0.45 0.55 -0.2 0.3 L0.05 -0.1" fill="url(#gradient0)" fill-rule="evenodd" stroke="none"/>
    <path d="M0.05 -0.1 L0.05 -0.3 -0.2 -0.95 -0.8 -1.15 -1.4 -0.95 -1.6 -0.3 -1.4 0.3 -1.4 0.5 -1.2 1.1 -0.6 1.35 0.0 1.1 0.25 0.5 0.05 -0.1 M12.2 -12.15 Q17.2 -7.15 17.25 0.0 17.2 7.15 12.2 12.2 7.15 17.2 0.0 17.25 -7.15 17.2 -12.15 12.2 -17.2 7.15 -17.2 0.0 -17.2 -7.15 -12.15 -12.15 -7.15 -17.2 0.0 -17.2 7.15 -17.2 12.2 -12.15" fill="url(#gradient1)" fill-rule="evenodd" stroke="none"/>
    <path d="M12.2 -12.15 Q17.2 -7.15 17.25 0.0 17.2 7.15 12.2 12.2 7.15 17.2 0.0 17.25 -7.15 17.2 -12.15 12.2 -17.2 7.15 -17.2 0.0 -17.2 -7.15 -12.15 -12.15 -7.15 -17.2 0.0 -17.2 7.15 -17.2 12.2 -12.15" fill="none" stroke="#9b5915" stroke-linecap="round" stroke-linejoin="round" stroke-width="0.05"/>
    <path d="M-1.4 0.3 L-1.2 -0.15 -0.6 -0.35 0.0 -0.15 0.05 -0.1 0.25 0.5 0.0 1.1 -0.6 1.35 -1.2 1.1 -1.4 0.5 -1.4 0.3" fill="none" stroke="#000000" stroke-linecap="round" stroke-linejoin="round" stroke-width="1.0"/>
  </g>
  <defs>
    <radialGradient cx="0" cy="0" gradientTransform="matrix(0.0255, 0.0, 0.0, 0.0255, 2.05, 3.35)" gradientUnits="userSpaceOnUse" id="gradient0" r="819.2" spreadMethod="pad">
      <stop offset="0.34509803921568627" stop-color="#ffffff"/>
      <stop offset="0.7450980392156863" stop-color="#bcd5ed"/>
      <stop offset="1.0" stop-color="#235281"/>
    </radialGradient>
    <radialGradient cx="0" cy="0" gradientTransform="matrix(0.0271, 0.0, 0.0, 0.0271, 0.0, 2.8)" gradientUnits="userSpaceOnUse" id="gradient1" r="819.2" spreadMethod="pad">
      <stop offset="0.34509803921568627" stop-color="#ffffff"/>
      <stop offset="0.7529411764705882" stop-color="#bfd8ee"/>
      <stop offset="1.0" stop-color="#3477b8"/>
    </radialGradient>
  </defs>
</svg>
