<?xml version="1.0" encoding="UTF-8" standalone="no"?>
<svg xmlns:xlink="http://www.w3.org/1999/xlink" height="17.05px" width="22.4px" xmlns="http://www.w3.org/2000/svg">
  <g transform="matrix(1.0, 0.0, 0.0, 1.0, 11.35, 11.2)">
    <path d="M10.3 -3.8 Q10.3 -6.6 8.55 -8.5 6.8 -10.45 4.3 -10.45 L-4.6 -10.45 Q-7.1 -10.45 -8.85 -8.5 -10.6 -6.6 -10.6 -3.8 L-10.6 -1.5 Q-10.6 1.2 -8.85 3.15 -7.1 5.05 -4.6 5.1 L4.3 5.1 Q6.8 5.05 8.55 3.15 10.3 1.2 10.3 -1.5 L10.3 -3.8 Z" fill="none" stroke="#0c3e49" stroke-linecap="round" stroke-linejoin="round" stroke-width="1.5"/>
    <path d="M4.3 -10.9 Q6.8 -10.95 8.55 -8.95 10.3 -7.05 10.3 -4.3 L10.3 -1.95 Q10.3 0.75 8.55 2.7 6.8 4.6 4.3 4.6 L-4.6 4.6 Q-7.1 4.6 -8.85 2.7 -10.6 0.75 -10.6 -1.95 L-10.6 -4.3 Q-10.6 -7.05 -8.85 -8.95 -7.1 -10.95 -4.6 -10.9 L4.3 -10.9" fill="url(#gradient0)" fill-rule="evenodd" stroke="none"/>
    <path d="M1.65 -7.1 L1.55 -7.4 2.1 -9.95 2.35 -7.4 2.1 -7.0 1.6 -4.85 1.1 -4.2 1.25 -3.95 1.5 -3.95 1.95 -4.7 2.35 -4.9 2.05 -5.05 Q2.9 -5.5 3.8 -5.5 L3.85 -5.5 5.25 -4.85 5.0 -4.75 5.7 -4.3 6.4 -4.2 Q5.15 -4.0 3.85 -4.75 L3.6 -4.9 2.35 -4.6 1.7 -3.6 1.3 -3.5 1.2 -3.25 1.55 -3.1 2.3 -3.55 2.2 -3.75 3.95 -3.75 5.05 -2.9 4.75 -2.8 5.25 -2.15 5.8 -1.65 Q4.65 -2.05 3.85 -3.1 L3.7 -3.25 2.5 -3.25 1.5 -2.7 1.15 -2.8 Q1.05 -2.6 1.4 -2.35 1.8 -2.55 2.45 -2.35 L2.45 -2.55 Q3.2 -2.1 3.75 -1.1 L3.85 -0.75 4.0 0.2 3.8 0.2 4.05 0.95 3.95 1.15 4.25 1.85 3.85 1.35 Q3.1 0.15 3.1 -0.85 2.55 -1.4 2.3 -2.05 L1.4 -2.05 1.95 -1.1 1.95 -0.6 Q2.4 1.45 0.95 2.35 L0.1 3.1 -0.95 2.35 Q-2.4 1.45 -1.95 -0.6 L-1.95 -1.1 Q-1.85 -1.7 -1.4 -2.05 L-2.3 -2.05 -3.1 -0.85 Q-3.1 0.4 -4.25 1.85 L-3.95 1.15 -4.05 0.95 -3.8 0.2 -4.0 0.2 -3.75 -1.1 Q-3.25 -2.1 -2.4 -2.55 L-2.4 -2.35 Q-1.8 -2.55 -1.4 -2.35 -1.05 -2.6 -1.15 -2.8 L-1.5 -2.7 Q-2.05 -2.9 -2.45 -3.25 L-3.7 -3.25 Q-4.6 -2.05 -5.85 -1.65 L-5.25 -2.15 -4.75 -2.8 -5.05 -2.9 -3.95 -3.75 -2.2 -3.75 -2.3 -3.55 -1.55 -3.1 -1.15 -3.25 -1.3 -3.5 -1.7 -3.6 -2.35 -4.6 -3.6 -4.9 Q-5.05 -4.0 -6.4 -4.2 L-5.7 -4.3 -5.0 -4.75 -5.25 -4.85 -3.85 -5.5 -2.1 -5.05 -2.35 -4.9 -1.95 -4.7 -1.5 -3.95 -1.25 -3.95 -1.1 -4.2 -1.6 -4.85 Q-1.95 -5.55 -2.1 -7.0 L-2.35 -7.4 -2.1 -9.95 -1.55 -7.4 -1.65 -7.1 -1.6 -5.8 -1.2 -5.2 -1.1 -4.85 -0.9 -4.65 -0.8 -5.15 -0.7 -5.25 -0.55 -6.05 -0.15 -7.05 Q-0.05 -6.5 -0.35 -5.8 L-0.35 -5.3 0.0 -5.45 0.35 -5.3 0.35 -5.8 Q0.0 -6.5 0.15 -7.05 0.2 -6.45 0.55 -6.05 L0.7 -5.25 0.75 -5.15 0.9 -4.65 1.1 -4.85 1.2 -5.2 1.6 -5.8 1.65 -7.1" fill="#004f4f" fill-rule="evenodd" stroke="none"/>
    <path d="M2.35 -7.65 L2.1 -7.25 1.6 -5.15 1.1 -4.45 1.25 -4.2 1.5 -4.2 1.95 -5.0 2.35 -5.15 2.05 -5.35 3.8 -5.75 3.85 -5.75 5.25 -5.15 5.0 -5.0 5.7 -4.55 6.4 -4.45 Q5.15 -4.3 3.85 -5.05 L3.6 -5.15 2.35 -4.85 1.7 -3.9 1.3 -3.75 1.2 -3.55 1.55 -3.4 Q1.9 -3.7 2.3 -3.8 L2.2 -3.95 3.95 -3.95 5.05 -3.15 4.75 -3.05 5.25 -2.4 5.8 -1.95 Q4.65 -2.3 3.85 -3.35 L3.7 -3.5 2.5 -3.55 1.5 -2.95 1.15 -3.05 Q1.05 -2.85 1.4 -2.6 1.8 -2.8 2.45 -2.6 L2.45 -2.8 Q3.2 -2.35 3.75 -1.35 L3.85 -1.0 4.0 -0.05 3.8 -0.05 4.05 0.65 3.95 0.9 4.25 1.6 3.85 1.05 Q3.1 -0.1 3.1 -1.15 2.55 -1.7 2.3 -2.35 1.85 -2.2 1.4 -2.35 L1.95 -1.35 1.95 -0.85 Q2.4 1.2 0.95 2.1 L0.1 2.85 -0.95 2.1 Q-2.4 1.2 -1.95 -0.85 L-1.95 -1.35 Q-1.85 -2.0 -1.4 -2.35 -1.85 -2.2 -2.3 -2.35 L-3.1 -1.15 Q-3.1 0.15 -4.25 1.6 L-3.95 0.9 -4.05 0.65 -3.8 -0.05 -4.0 -0.05 -3.75 -1.35 Q-3.25 -2.35 -2.4 -2.8 L-2.4 -2.6 Q-1.8 -2.8 -1.4 -2.6 -1.05 -2.85 -1.15 -3.05 L-1.5 -2.95 -2.45 -3.55 -3.7 -3.5 Q-4.6 -2.3 -5.85 -1.95 L-5.25 -2.4 -4.75 -3.05 -5.05 -3.15 -3.95 -3.95 -2.2 -3.95 -2.3 -3.8 Q-1.9 -3.7 -1.55 -3.4 L-1.15 -3.55 -1.3 -3.75 -1.7 -3.9 -2.35 -4.85 -3.6 -5.15 Q-5.05 -4.25 -6.4 -4.45 L-5.7 -4.55 -5.0 -5.0 -5.25 -5.15 -3.85 -5.75 Q-2.95 -5.8 -2.1 -5.35 L-2.35 -5.15 -1.95 -5.0 -1.5 -4.2 -1.25 -4.2 -1.1 -4.45 -1.6 -5.15 Q-1.95 -5.85 -2.1 -7.25 L-2.35 -7.65 -2.1 -10.2 -1.55 -7.65 -1.65 -7.35 -1.6 -6.1 -1.2 -5.45 -1.1 -5.1 -0.9 -4.95 -0.8 -5.45 -0.7 -5.55 -0.55 -6.3 -0.15 -7.3 Q-0.05 -6.75 -0.35 -6.05 L-0.35 -5.55 0.0 -5.7 0.35 -5.55 0.35 -6.05 Q0.0 -6.75 0.15 -7.3 0.2 -6.7 0.55 -6.3 L0.7 -5.55 0.75 -5.45 0.9 -4.95 1.1 -5.1 1.2 -5.45 1.6 -6.1 1.65 -7.35 1.55 -7.65 2.1 -10.2 2.35 -7.65" fill="url(#gradient1)" fill-rule="evenodd" stroke="none"/>
  </g>
  <defs>
    <radialGradient cx="0" cy="0" gradientTransform="matrix(0.0139, 0.0, 0.0, 0.0139, -0.15, -3.15)" gradientUnits="userSpaceOnUse" id="gradient0" r="819.2" spreadMethod="pad">
      <stop offset="0.0" stop-color="#289eca"/>
      <stop offset="1.0" stop-color="#146a76"/>
    </radialGradient>
    <linearGradient gradientTransform="matrix(0.0078, 0.0, 0.0, 0.008, 0.0, -3.7)" gradientUnits="userSpaceOnUse" id="gradient1" spreadMethod="pad" x1="-819.2" x2="819.2">
      <stop offset="0.0" stop-color="#60b9e0"/>
      <stop offset="0.5333333333333333" stop-color="#ffffff"/>
      <stop offset="1.0" stop-color="#60b9e0"/>
    </linearGradient>
  </defs>
</svg>
