<?xml version="1.0" encoding="UTF-8" standalone="no"?>
<svg xmlns:xlink="http://www.w3.org/1999/xlink" height="282.95px" width="190.95px" xmlns="http://www.w3.org/2000/svg">
  <g transform="matrix(1.0, 0.0, 0.0, 1.0, 95.5, 141.5)">
    <path d="M-91.7 -136.85 L-91.7 -136.9 91.65 -136.9 91.65 -136.7 91.65 135.85 -91.7 135.85 -91.7 -136.85" fill="url(#gradient0)" fill-rule="evenodd" stroke="none"/>
    <path d="M91.65 135.85 L95.4 141.45 -95.5 141.45 -91.7 135.85 91.65 135.85" fill="#041b26" fill-rule="evenodd" stroke="none"/>
    <path d="M95.45 -141.45 L91.65 -136.7 91.65 -136.9 -91.7 -136.9 -91.7 -136.85 -95.35 -141.5 95.45 -141.5 95.45 -141.45" fill="#1c84af" fill-rule="evenodd" stroke="none"/>
    <path d="M91.65 -136.7 L95.45 -141.45 95.45 141.45 95.4 141.45 91.65 135.85 91.65 -136.7 M-95.35 -141.5 L-91.7 -136.85 -91.7 135.85 -95.5 141.45 -95.5 -141.5 -95.35 -141.5" fill="#0d4053" fill-rule="evenodd" stroke="none"/>
  </g>
  <defs>
    <linearGradient gradientTransform="matrix(1.0E-4, 0.177, -0.1727, 1.0E-4, 12.1, -8.0)" gradientUnits="userSpaceOnUse" id="gradient0" spreadMethod="pad" x1="-819.2" x2="819.2">
      <stop offset="0.0" stop-color="#2c5072" stop-opacity="0.7019608"/>
      <stop offset="1.0" stop-color="#102445"/>
    </linearGradient>
  </defs>
</svg>
