<?xml version="1.0" encoding="UTF-8" standalone="no"?>
<svg xmlns:xlink="http://www.w3.org/1999/xlink" height="56.4px" width="56.35px" xmlns="http://www.w3.org/2000/svg">
  <g transform="matrix(1.0, 0.0, 0.0, 1.0, 28.25, 28.05)">
    <path d="M7.25 -15.7 L6.65 -17.0 9.1 -28.05 10.2 -16.95 9.2 -15.25 Q8.3 -9.05 6.9 -6.1 L4.7 -3.15 Q4.8 -2.5 5.35 -2.1 L6.5 -2.1 8.5 -5.4 10.15 -6.2 9.05 -6.9 Q12.65 -8.8 16.7 -8.7 L16.8 -8.7 Q19.9 -7.8 23.0 -6.0 L21.8 -5.45 24.9 -3.55 28.1 -3.2 Q22.65 -2.4 16.8 -5.65 L15.75 -6.2 Q13.0 -5.1 10.3 -4.9 9.4 -2.1 7.3 -0.7 L5.6 -0.15 5.1 0.8 6.65 1.5 Q8.25 0.15 9.95 -0.35 L9.6 -1.05 17.2 -1.05 22.1 2.5 20.9 2.8 23.0 5.75 23.05 5.75 25.5 7.75 Q20.35 6.15 16.8 1.6 L16.2 0.9 Q13.4 1.45 10.85 0.8 8.95 2.5 6.55 3.3 L4.85 2.85 Q4.45 3.85 6.0 4.9 7.85 4.1 10.6 4.9 L10.6 3.95 Q14.1 6.05 16.35 10.3 L16.8 11.75 17.45 15.95 16.55 15.95 17.7 19.0 17.35 20.0 18.55 23.15 16.8 20.65 Q13.55 15.75 13.55 11.25 11.3 8.95 10.1 6.1 8.1 6.65 6.05 6.1 7.9 7.7 8.5 10.3 L8.5 12.4 Q10.5 21.3 4.2 25.2 2.95 26.95 0.35 28.35 -3.15 26.95 -4.35 25.2 -10.7 21.3 -8.7 12.4 L-8.7 10.3 Q-8.1 7.7 -6.2 6.1 -8.25 6.65 -10.2 6.1 -11.45 8.95 -13.7 11.25 -13.7 16.85 -18.7 23.15 L-17.5 20.0 -17.85 19.0 -16.75 15.95 -17.65 15.95 Q-17.45 13.3 -16.5 10.3 -14.25 6.05 -10.7 3.95 L-10.7 4.9 Q-8.0 4.1 -6.15 4.9 -4.65 3.85 -5.1 2.85 L-6.75 3.3 Q-9.1 2.5 -10.95 0.8 -13.6 1.45 -16.4 0.9 -20.15 6.05 -25.75 7.75 L-23.15 5.75 -21.1 2.8 -22.2 2.5 -17.4 -1.05 -9.75 -1.05 -10.1 -0.35 Q-8.45 0.15 -6.85 1.5 L-5.2 0.8 -5.7 -0.15 -7.45 -0.7 Q-9.55 -2.1 -10.45 -4.9 -13.2 -5.1 -15.95 -6.2 -22.4 -2.3 -28.25 -3.2 L-25.05 -3.55 -22.0 -5.45 -23.15 -6.0 Q-20.1 -7.8 -16.9 -8.7 -12.9 -8.8 -9.25 -6.9 L-10.35 -6.2 -8.7 -5.4 -6.65 -2.1 -5.55 -2.1 Q-5.0 -2.5 -4.85 -3.15 L-7.1 -6.1 Q-8.6 -9.05 -9.45 -15.25 L-10.4 -16.95 -9.25 -28.05 -6.85 -17.0 -7.4 -15.7 -7.15 -10.25 -5.25 -7.5 -4.95 -5.9 -4.0 -5.3 -3.5 -7.35 -3.2 -7.75 Q-3.15 -9.55 -2.55 -11.25 -1.05 -13.0 -0.7 -15.5 -0.2 -13.1 -1.6 -10.15 L-1.65 -7.9 Q-1.1 -8.45 -0.15 -8.5 L-0.1 -8.5 Q0.9 -8.45 1.55 -7.9 L1.45 -10.15 Q0.0 -13.1 0.6 -15.5 0.85 -13.0 2.35 -11.25 2.9 -9.55 2.95 -7.75 L3.3 -7.35 3.9 -5.3 4.75 -5.9 5.15 -7.5 7.0 -10.25 7.25 -15.7" fill="#000000" fill-opacity="0.38039216" fill-rule="evenodd" stroke="none"/>
  </g>
</svg>
