<?xml version="1.0" encoding="UTF-8" standalone="no"?>
<svg xmlns:xlink="http://www.w3.org/1999/xlink" height="51.9px" width="54.25px" xmlns="http://www.w3.org/2000/svg">
  <g transform="matrix(1.0, 0.0, 0.0, 1.0, 27.15, 25.95)">
    <path d="M27.1 -18.1 L25.35 -16.9 Q21.9 -7.4 24.75 2.05 L27.1 2.25 M25.35 -16.9 L14.85 -9.7 14.8 -9.7 Q12.8 -3.85 15.95 1.4 L24.7 2.05 24.75 2.05 M25.35 -16.9 Q13.05 -18.4 5.55 -25.95 M4.65 -25.95 L3.3 -18.05 3.35 -18.05 Q8.15 -11.5 14.85 -9.7 M14.8 -9.7 L0.25 0.25 15.9 1.4 15.95 1.4 M0.05 0.35 L0.1 0.2 -0.1 0.2 0.05 0.4 0.05 0.35 0.25 0.25 0.1 0.2 3.3 -18.05 Q-5.65 -14.65 -14.6 -17.05 L-0.1 0.2 -20.0 -1.3 Q-14.45 3.55 -14.45 10.3 L0.05 0.4 10.3 12.6 10.35 12.65 Q11.75 6.45 15.9 1.4 M10.3 12.6 Q2.8 13.35 -2.95 17.6 L-4.35 25.75 Q6.75 19.85 17.85 21.6 L10.35 12.65 M21.45 25.95 L17.85 21.65 17.85 21.6 Q18.55 11.85 24.7 2.05 M-20.4 -24.0 L-20.35 -23.9 -20.3 -24.0 -20.4 -24.0 -22.05 -25.95 M-27.15 -1.85 L-20.2 -1.3 Q-14.6 -9.2 -15.0 -17.05 L-14.9 -17.4 -20.35 -23.9 Q-21.3 -12.4 -27.15 -3.2 M-20.0 -1.3 L-20.2 -1.3 M-15.0 -17.05 L-14.6 -17.05 -14.9 -17.4 M-4.35 25.75 L-4.4 25.75 Q-13.8 18.65 -23.2 16.25 L-27.15 18.95 M-2.95 17.6 Q-7.85 11.05 -14.45 10.3 L-14.5 10.3 -23.2 16.25 Q-23.05 7.6 -27.15 -0.5 M-20.3 -24.0 Q-8.1 -21.5 2.95 -25.95 M0.05 0.4 L-2.95 17.6" fill="none" stroke="#0d559d" stroke-linecap="round" stroke-linejoin="round" stroke-width="0.05"/>
  </g>
</svg>
