<?xml version="1.0" encoding="UTF-8" standalone="no"?>
<svg xmlns:xlink="http://www.w3.org/1999/xlink" height="52.35px" width="54.6px" xmlns="http://www.w3.org/2000/svg">
  <g transform="matrix(1.0, 0.0, 0.0, 1.0, 27.2, 26.35)">
    <path d="M0.1 8.75 Q-13.55 6.4 -27.2 -3.8 L-27.0 -25.6 -27.05 -25.85 -27.15 -19.45 -27.2 -26.35 27.4 -26.35 27.4 -3.8 Q13.75 6.4 0.1 8.75 M-23.4 -10.05 L-23.5 -9.75 -23.4 -9.75 -23.4 -10.05" fill="url(#gradient0)" fill-rule="evenodd" stroke="none"/>
    <path d="M27.4 -3.8 L27.4 26.0 -27.2 26.0 -27.2 5.6 -25.3 6.3 -25.05 6.5 -24.75 6.6 -24.5 6.6 Q-12.2 10.85 0.1 8.75 13.75 6.4 27.4 -3.8 M8.55 23.0 L8.55 23.05 8.65 23.05 8.55 23.0 M-26.7 18.6 L-26.7 18.7 -26.65 18.6 -26.7 18.6" fill="url(#gradient1)" fill-rule="evenodd" stroke="none"/>
  </g>
  <defs>
    <linearGradient gradientTransform="matrix(0.0, -0.0223, -0.0052, 0.0, -0.3, -17.0)" gradientUnits="userSpaceOnUse" id="gradient0" spreadMethod="pad" x1="-819.2" x2="819.2">
      <stop offset="0.0" stop-color="#000000" stop-opacity="0.0"/>
      <stop offset="1.0" stop-color="#000000" stop-opacity="0.42352942"/>
    </linearGradient>
    <linearGradient gradientTransform="matrix(0.0, 0.0181, -0.0052, 0.0, 0.1, 11.15)" gradientUnits="userSpaceOnUse" id="gradient1" spreadMethod="pad" x1="-819.2" x2="819.2">
      <stop offset="0.0" stop-color="#ffffff" stop-opacity="0.0"/>
      <stop offset="1.0" stop-color="#ffffff" stop-opacity="0.42352942"/>
    </linearGradient>
  </defs>
</svg>
