<?xml version="1.0" encoding="UTF-8" standalone="no"?>
<svg xmlns:xlink="http://www.w3.org/1999/xlink" height="245.0px" width="178.6px" xmlns="http://www.w3.org/2000/svg">
  <g transform="matrix(1.0, 0.0, 0.0, 1.0, 89.9, 154.45)">
    <path d="M88.2 -154.25 L88.55 -154.1 88.7 -153.7 88.7 90.05 88.55 90.4 88.2 90.55 -83.4 90.5 -83.75 90.35 -83.9 90.0 -83.9 -153.95 -83.75 -154.3 -83.4 -154.45 88.2 -154.25" fill="#000011" fill-opacity="0.34117648" fill-rule="evenodd" stroke="none"/>
    <path d="M-75.9 -4.0 L-76.15 -3.8 -76.15 -3.85 -75.9 -4.0" fill="url(#gradient0)" fill-rule="evenodd" stroke="none"/>
    <path d="M-89.35 -77.55 L-89.3 -74.7 -89.35 -21.65 -89.4 -21.65 -89.35 -77.55" fill="url(#gradient1)" fill-rule="evenodd" stroke="none"/>
    <path d="M79.4 -150.0 L79.4 85.35 -86.45 85.35 -86.45 -150.2 79.4 -150.0 M-75.9 -4.0 L-76.15 -3.85 -76.15 -3.8 -75.9 -4.0" fill="url(#gradient2)" fill-rule="evenodd" stroke="none"/>
    <path d="M82.2 -151.65 L82.2 -82.25 82.2 87.9 -89.4 87.85 -89.35 -21.65 -89.3 -74.7 -89.35 -77.55 -89.4 -151.85 82.2 -151.65 M79.4 85.35 L79.4 -150.0 -86.45 -150.2 -86.45 85.35 79.4 85.35" fill="#0b3d4f" fill-rule="evenodd" stroke="none"/>
    <path d="M-89.4 -151.85 L-89.35 -77.55 -89.4 -21.65 M-89.3 -74.7 L-89.35 -21.65 -89.4 87.85" fill="none" stroke="#0b466e" stroke-linecap="round" stroke-linejoin="round" stroke-width="1.0"/>
    <path d="M-86.45 -150.2 L79.4 -150.0" fill="none" stroke="#23a8c9" stroke-linecap="round" stroke-linejoin="round" stroke-opacity="0.7137255" stroke-width="0.5"/>
    <path d="M82.2 -151.65 L-89.4 -151.85" fill="none" stroke="#07345f" stroke-linecap="round" stroke-linejoin="round" stroke-width="1.0"/>
    <path d="M-89.4 87.85 L82.2 87.9" fill="none" stroke="#1a7ca2" stroke-linecap="round" stroke-linejoin="round" stroke-width="1.0"/>
    <path d="M79.4 85.35 L-86.45 85.35" fill="none" stroke="#0b3544" stroke-linecap="round" stroke-linejoin="round" stroke-width="0.5"/>
    <path d="M79.4 -150.0 L79.4 85.35" fill="none" stroke="#0a313f" stroke-linecap="round" stroke-linejoin="round" stroke-width="0.5"/>
    <path d="M-86.45 85.35 L-86.45 -150.2" fill="none" stroke="#0b2537" stroke-linecap="round" stroke-linejoin="round" stroke-width="0.5"/>
    <path d="M82.2 -82.25 L82.2 -151.65 M82.2 87.9 L82.2 -82.25" fill="none" stroke="#07354e" stroke-linecap="round" stroke-linejoin="round" stroke-width="1.0"/>
  </g>
  <defs>
    <radialGradient cx="0" cy="0" gradientTransform="matrix(0.0, 0.331, 0.1914, 0.0, -106.0, -29.65)" gradientUnits="userSpaceOnUse" id="gradient0" r="819.2" spreadMethod="pad">
      <stop offset="0.0" stop-color="#89271b"/>
      <stop offset="1.0" stop-color="#3c1d3d"/>
    </radialGradient>
    <linearGradient gradientTransform="matrix(0.1011, 0.0, 0.0, 0.1039, 35.8, 1.9)" gradientUnits="userSpaceOnUse" id="gradient1" spreadMethod="pad" x1="-819.2" x2="819.2">
      <stop offset="0.0" stop-color="#17719b"/>
      <stop offset="1.0" stop-color="#07345f"/>
    </linearGradient>
    <radialGradient cx="0" cy="0" gradientTransform="matrix(0.0, 0.331, 0.1914, 0.0, -56.8, -30.1)" gradientUnits="userSpaceOnUse" id="gradient2" r="819.2" spreadMethod="pad">
      <stop offset="0.0" stop-color="#2194be"/>
      <stop offset="1.0" stop-color="#07345f"/>
    </radialGradient>
  </defs>
</svg>
