<?xml version="1.0" encoding="UTF-8" standalone="no"?>
<svg xmlns:xlink="http://www.w3.org/1999/xlink" height="29.45px" width="24.55px" xmlns="http://www.w3.org/2000/svg">
  <g transform="matrix(1.0, 0.0, 0.0, 1.0, 12.3, 14.75)">
    <path d="M12.0 0.4 Q11.8 -1.05 8.45 -2.8 5.3 -4.4 1.1 -4.55 L1.1 8.4 1.1 8.8 Q1.1 10.4 2.1 13.85 L1.75 14.55 -0.1 14.7 -1.95 14.55 -2.3 13.85 Q-1.2 10.55 -1.2 8.8 L-1.2 8.4 -1.2 -4.55 Q-5.4 -4.4 -8.6 -2.8 -11.85 -1.05 -12.05 0.45 L-12.1 -0.1 Q-12.1 -2.0 -8.6 -3.85 -5.35 -5.45 -0.9 -5.6 L-0.9 -8.75 -3.1 -8.75 -0.15 -14.75 2.95 -8.75 0.8 -8.75 0.8 -5.6 Q5.25 -5.45 8.45 -3.85 12.0 -1.95 12.0 -0.15 L12.0 0.4" fill="#ffffff" fill-rule="evenodd" stroke="none"/>
    <path d="M1.1 8.4 L1.1 -4.55 Q5.3 -4.4 8.45 -2.8 11.8 -1.05 12.0 0.4 L1.1 8.4 M-12.05 0.45 Q-11.85 -1.05 -8.6 -2.8 -5.4 -4.4 -1.2 -4.55 L-1.2 8.4 Q-6.6 4.45 -12.05 0.45" fill="none" stroke="#ffffff" stroke-linecap="round" stroke-linejoin="round" stroke-width="0.5"/>
  </g>
</svg>
