<?xml version="1.0" encoding="UTF-8" standalone="no"?>
<svg xmlns:xlink="http://www.w3.org/1999/xlink" height="19.2px" width="27.95px" xmlns="http://www.w3.org/2000/svg">
  <g transform="matrix(1.0, 0.0, 0.0, 1.0, 14.5, 10.4)">
    <path d="M3.2 5.0 L3.25 5.05 2.1 5.45 -3.9 7.85 -3.15 4.8 Q-5.9 3.75 -6.95 2.35 -9.05 -0.45 -8.55 -3.9 -8.4 -5.1 -7.9 -6.1 L-5.4 -4.25 -5.55 -3.05 Q-5.9 -0.9 -4.55 0.9 -4.0 1.65 -2.6 2.4 L-1.8 -0.7 3.2 5.0 M1.25 -4.5 L0.7 -1.4 -4.75 -6.7 -3.65 -7.2 2.15 -10.1 1.65 -7.1 Q3.85 -6.4 5.55 -4.55 7.9 -1.8 7.7 1.25 7.65 2.45 7.25 3.5 L4.7 1.45 4.7 1.05 Q4.85 -1.25 3.25 -3.0 2.45 -4.0 1.25 -4.5" fill="#ffffff" fill-rule="evenodd" stroke="none"/>
    <path d="M11.9 -6.6 Q12.5 -6.55 12.95 -6.1 13.4 -5.65 13.45 -5.05 L13.45 7.25 13.0 8.3 Q12.55 8.75 11.9 8.8 L5.8 8.8 5.0 8.55 4.65 8.3 Q4.2 7.85 4.2 7.2 L4.25 -5.0 Q4.25 -5.65 4.7 -6.1 5.15 -6.55 5.75 -6.55 L11.9 -6.6 M-14.05 -9.9 L-13.7 -10.2 -12.95 -10.4 -6.8 -10.4 Q-6.15 -10.4 -5.7 -9.9 -5.25 -9.5 -5.25 -8.85 L-5.25 3.4 Q-5.3 4.0 -5.75 4.5 -6.2 4.95 -6.8 4.95 L-12.95 4.95 Q-13.6 4.95 -14.0 4.5 -14.5 4.0 -14.5 3.4 L-14.5 -8.85 -14.05 -9.9" fill="#ffffff" fill-rule="evenodd" stroke="none"/>
  </g>
</svg>
