<?xml version="1.0" encoding="UTF-8" standalone="no"?>
<svg xmlns:xlink="http://www.w3.org/1999/xlink" height="11.4px" width="11.6px" xmlns="http://www.w3.org/2000/svg">
  <g transform="matrix(1.0, 0.0, 0.0, 1.0, 5.9, 8.15)">
    <path d="M5.1 -7.55 L5.1 2.65 2.8 2.65 2.8 -3.0 1.1 2.65 -1.25 2.65 -2.95 -3.0 -2.95 2.65 -5.3 2.65 -5.3 -7.55 -2.3 -7.55 -0.1 -0.3 2.1 -7.55 5.1 -7.55 Z" fill="none" stroke="#cee7ff" stroke-linecap="round" stroke-linejoin="round" stroke-width="1.25"/>
    <path d="M4.85 -7.3 L4.85 2.4 3.05 2.4 3.05 -3.0 3.0 -3.15 2.85 -3.25 2.7 -3.2 2.55 -3.05 0.9 2.4 -1.05 2.4 -2.7 -3.05 -2.8 -3.2 -2.95 -3.25 -3.15 -3.15 -3.2 -3.0 -3.2 2.4 -5.05 2.4 -5.05 -7.3 -2.5 -7.3 -0.35 -0.2 -0.25 -0.1 -0.1 -0.05 0.05 -0.1 0.15 -0.2 2.3 -7.3 4.85 -7.3" fill="#000033" fill-rule="evenodd" stroke="none"/>
  </g>
</svg>
