<?xml version="1.0" encoding="UTF-8" standalone="no"?>
<svg xmlns:xlink="http://www.w3.org/1999/xlink" height="37.35px" width="21.75px" xmlns="http://www.w3.org/2000/svg">
  <g transform="matrix(1.0, 0.0, 0.0, 1.0, 9.5, 18.3)">
    <path d="M-5.25 14.15 L8.65 0.9 -5.25 -12.25 -5.25 14.15 M-8.25 -15.7 L-7.8 -16.7 Q-7.35 -17.1 -6.75 -17.1 -6.15 -17.1 -5.7 -16.7 L11.8 -0.1 Q12.25 0.3 12.25 0.9 12.25 1.5 11.85 1.9 L-5.65 18.6 -6.15 18.9 -6.75 19.05 -7.8 18.6 -8.25 17.6 -8.25 -15.7" fill="#000000" fill-opacity="0.7607843" fill-rule="evenodd" stroke="none"/>
    <path d="M8.75 -0.05 L-8.75 17.55" fill="none" stroke="#0a353f" stroke-linecap="round" stroke-linejoin="round" stroke-width="1.5"/>
    <path d="M-8.75 17.55 L-8.75 -17.55" fill="none" stroke="#062228" stroke-linecap="round" stroke-linejoin="round" stroke-width="1.5"/>
    <path d="M-8.75 -17.55 L8.75 -0.05 Z" fill="none" stroke="#32bcde" stroke-linecap="round" stroke-linejoin="round" stroke-width="1.5"/>
    <path d="M8.35 -0.55 L-9.15 17.05 -9.15 -18.05 8.35 -0.55" fill="url(#gradient0)" fill-rule="evenodd" stroke="none"/>
  </g>
  <defs>
    <linearGradient gradientTransform="matrix(-0.0078, 0.0101, -0.0169, -0.0131, -6.2, 2.0)" gradientUnits="userSpaceOnUse" id="gradient0" spreadMethod="pad" x1="-819.2" x2="819.2">
      <stop offset="0.0" stop-color="#1a7da7"/>
      <stop offset="1.0" stop-color="#114d62"/>
    </linearGradient>
  </defs>
</svg>
